solid OpenSCAD_Model
  facet normal 0 1 0
    outer loop
      vertex 29.2893 70.7107 70.7107
      vertex -70.7107 70.7107 29.2893
      vertex -29.2893 70.7107 70.7107
    endloop
  endfacet
  facet normal 0 1 0
    outer loop
      vertex 70.7107 70.7107 29.2893
      vertex -70.7107 70.7107 29.2893
      vertex 29.2893 70.7107 70.7107
    endloop
  endfacet
  facet normal 0 1 0
    outer loop
      vertex 70.7107 70.7107 29.2893
      vertex -70.7107 70.7107 -29.2893
      vertex -70.7107 70.7107 29.2893
    endloop
  endfacet
  facet normal 0 1 -0
    outer loop
      vertex 70.7107 70.7107 -29.2893
      vertex -70.7107 70.7107 -29.2893
      vertex 70.7107 70.7107 29.2893
    endloop
  endfacet
  facet normal 0 1 -0
    outer loop
      vertex 29.2893 70.7107 -70.7107
      vertex -70.7107 70.7107 -29.2893
      vertex 70.7107 70.7107 -29.2893
    endloop
  endfacet
  facet normal 0 1 0
    outer loop
      vertex -70.7107 70.7107 -29.2893
      vertex 29.2893 70.7107 -70.7107
      vertex -29.2893 70.7107 -70.7107
    endloop
  endfacet
  facet normal 0 0 -1
    outer loop
      vertex 70.7107 -29.2893 -70.7107
      vertex 29.2893 70.7107 -70.7107
      vertex 70.7107 29.2893 -70.7107
    endloop
  endfacet
  facet normal 0 0 -1
    outer loop
      vertex 29.2893 -70.7107 -70.7107
      vertex 29.2893 70.7107 -70.7107
      vertex 70.7107 -29.2893 -70.7107
    endloop
  endfacet
  facet normal 0 0 -1
    outer loop
      vertex 29.2893 -70.7107 -70.7107
      vertex -29.2893 70.7107 -70.7107
      vertex 29.2893 70.7107 -70.7107
    endloop
  endfacet
  facet normal 0 0 -1
    outer loop
      vertex -29.2893 -70.7107 -70.7107
      vertex -29.2893 70.7107 -70.7107
      vertex 29.2893 -70.7107 -70.7107
    endloop
  endfacet
  facet normal 0 0 -1
    outer loop
      vertex -70.7107 -29.2893 -70.7107
      vertex -29.2893 70.7107 -70.7107
      vertex -29.2893 -70.7107 -70.7107
    endloop
  endfacet
  facet normal 0 0 -1
    outer loop
      vertex -29.2893 70.7107 -70.7107
      vertex -70.7107 -29.2893 -70.7107
      vertex -70.7107 29.2893 -70.7107
    endloop
  endfacet
  facet normal -1 0 0
    outer loop
      vertex -70.7107 70.7107 -29.2893
      vertex -70.7107 29.2893 70.7107
      vertex -70.7107 70.7107 29.2893
    endloop
  endfacet
  facet normal -1 0 0
    outer loop
      vertex -70.7107 29.2893 -70.7107
      vertex -70.7107 29.2893 70.7107
      vertex -70.7107 70.7107 -29.2893
    endloop
  endfacet
  facet normal -1 0 0
    outer loop
      vertex -70.7107 29.2893 -70.7107
      vertex -70.7107 -29.2893 70.7107
      vertex -70.7107 29.2893 70.7107
    endloop
  endfacet
  facet normal -1 0 0
    outer loop
      vertex -70.7107 -29.2893 -70.7107
      vertex -70.7107 -29.2893 70.7107
      vertex -70.7107 29.2893 -70.7107
    endloop
  endfacet
  facet normal -1 0 0
    outer loop
      vertex -70.7107 -70.7107 -29.2893
      vertex -70.7107 -29.2893 70.7107
      vertex -70.7107 -29.2893 -70.7107
    endloop
  endfacet
  facet normal -1 0 0
    outer loop
      vertex -70.7107 -29.2893 70.7107
      vertex -70.7107 -70.7107 -29.2893
      vertex -70.7107 -70.7107 29.2893
    endloop
  endfacet
  facet normal 1 0 0
    outer loop
      vertex 70.7107 29.2893 70.7107
      vertex 70.7107 70.7107 -29.2893
      vertex 70.7107 70.7107 29.2893
    endloop
  endfacet
  facet normal 1 0 0
    outer loop
      vertex 70.7107 29.2893 70.7107
      vertex 70.7107 29.2893 -70.7107
      vertex 70.7107 70.7107 -29.2893
    endloop
  endfacet
  facet normal 1 -0 0
    outer loop
      vertex 70.7107 -29.2893 70.7107
      vertex 70.7107 29.2893 -70.7107
      vertex 70.7107 29.2893 70.7107
    endloop
  endfacet
  facet normal 1 0 0
    outer loop
      vertex 70.7107 -29.2893 70.7107
      vertex 70.7107 -29.2893 -70.7107
      vertex 70.7107 29.2893 -70.7107
    endloop
  endfacet
  facet normal 1 -0 0
    outer loop
      vertex 70.7107 -70.7107 29.2893
      vertex 70.7107 -29.2893 -70.7107
      vertex 70.7107 -29.2893 70.7107
    endloop
  endfacet
  facet normal 1 0 0
    outer loop
      vertex 70.7107 -29.2893 -70.7107
      vertex 70.7107 -70.7107 29.2893
      vertex 70.7107 -70.7107 -29.2893
    endloop
  endfacet
  facet normal 0 0 1
    outer loop
      vertex 29.2893 70.7107 70.7107
      vertex 70.7107 -29.2893 70.7107
      vertex 70.7107 29.2893 70.7107
    endloop
  endfacet
  facet normal 0 0 1
    outer loop
      vertex 29.2893 70.7107 70.7107
      vertex 29.2893 -70.7107 70.7107
      vertex 70.7107 -29.2893 70.7107
    endloop
  endfacet
  facet normal -0 0 1
    outer loop
      vertex -29.2893 70.7107 70.7107
      vertex 29.2893 -70.7107 70.7107
      vertex 29.2893 70.7107 70.7107
    endloop
  endfacet
  facet normal 0 0 1
    outer loop
      vertex -29.2893 70.7107 70.7107
      vertex -29.2893 -70.7107 70.7107
      vertex 29.2893 -70.7107 70.7107
    endloop
  endfacet
  facet normal 0 0 1
    outer loop
      vertex -29.2893 70.7107 70.7107
      vertex -70.7107 -29.2893 70.7107
      vertex -29.2893 -70.7107 70.7107
    endloop
  endfacet
  facet normal 0 0 1
    outer loop
      vertex -70.7107 -29.2893 70.7107
      vertex -29.2893 70.7107 70.7107
      vertex -70.7107 29.2893 70.7107
    endloop
  endfacet
  facet normal 0 -1 0
    outer loop
      vertex -70.7107 -70.7107 29.2893
      vertex 29.2893 -70.7107 70.7107
      vertex -29.2893 -70.7107 70.7107
    endloop
  endfacet
  facet normal 0 -1 0
    outer loop
      vertex -70.7107 -70.7107 29.2893
      vertex 70.7107 -70.7107 29.2893
      vertex 29.2893 -70.7107 70.7107
    endloop
  endfacet
  facet normal 0 -1 0
    outer loop
      vertex -70.7107 -70.7107 -29.2893
      vertex 70.7107 -70.7107 29.2893
      vertex -70.7107 -70.7107 29.2893
    endloop
  endfacet
  facet normal 0 -1 0
    outer loop
      vertex -70.7107 -70.7107 -29.2893
      vertex 70.7107 -70.7107 -29.2893
      vertex 70.7107 -70.7107 29.2893
    endloop
  endfacet
  facet normal 0 -1 0
    outer loop
      vertex -29.2893 -70.7107 -70.7107
      vertex 70.7107 -70.7107 -29.2893
      vertex -70.7107 -70.7107 -29.2893
    endloop
  endfacet
  facet normal 0 -1 0
    outer loop
      vertex 70.7107 -70.7107 -29.2893
      vertex -29.2893 -70.7107 -70.7107
      vertex 29.2893 -70.7107 -70.7107
    endloop
  endfacet
  facet normal -0.57735 0.57735 -0.57735
    outer loop
      vertex -29.2893 70.7107 -70.7107
      vertex -70.7107 29.2893 -70.7107
      vertex -70.7107 70.7107 -29.2893
    endloop
  endfacet
  facet normal 0.57735 0.57735 -0.57735
    outer loop
      vertex 29.2893 70.7107 -70.7107
      vertex 70.7107 70.7107 -29.2893
      vertex 70.7107 29.2893 -70.7107
    endloop
  endfacet
  facet normal -0.57735 0.57735 0.57735
    outer loop
      vertex -70.7107 70.7107 29.2893
      vertex -70.7107 29.2893 70.7107
      vertex -29.2893 70.7107 70.7107
    endloop
  endfacet
  facet normal -0.57735 -0.57735 -0.57735
    outer loop
      vertex -70.7107 -29.2893 -70.7107
      vertex -29.2893 -70.7107 -70.7107
      vertex -70.7107 -70.7107 -29.2893
    endloop
  endfacet
  facet normal 0.57735 -0.57735 -0.57735
    outer loop
      vertex 70.7107 -29.2893 -70.7107
      vertex 70.7107 -70.7107 -29.2893
      vertex 29.2893 -70.7107 -70.7107
    endloop
  endfacet
  facet normal 0.57735 0.57735 0.57735
    outer loop
      vertex 70.7107 70.7107 29.2893
      vertex 29.2893 70.7107 70.7107
      vertex 70.7107 29.2893 70.7107
    endloop
  endfacet
  facet normal -0.57735 -0.57735 0.57735
    outer loop
      vertex -70.7107 -29.2893 70.7107
      vertex -70.7107 -70.7107 29.2893
      vertex -29.2893 -70.7107 70.7107
    endloop
  endfacet
  facet normal 0.57735 -0.57735 0.57735
    outer loop
      vertex 70.7107 -70.7107 29.2893
      vertex 70.7107 -29.2893 70.7107
      vertex 29.2893 -70.7107 70.7107
    endloop
  endfacet
endsolid OpenSCAD_Model
