solid OpenSCAD_Model
  facet normal 0.57735 0.187592 0.794655
    outer loop
      vertex 5.84149 43.3956 91.0354
      vertex 54.6249 -39.5995 75.1847
      vertex 84.7746 43.3957 33.6872
    endloop
  endfacet
  facet normal 0.934172 -0.187592 0.303531
    outer loop
      vertex 54.6249 -39.5995 75.1847
      vertex 84.7747 -39.5994 -17.6067
      vertex 84.7746 43.3957 33.6872
    endloop
  endfacet
  facet normal 0.356821 0.794654 0.491124
    outer loop
      vertex 84.7746 43.3957 33.6872
      vertex 5.84155 94.6895 8.04025
      vertex 5.84149 43.3956 91.0354
    endloop
  endfacet
  facet normal 0 -0.187593 0.982247
    outer loop
      vertex 5.84149 43.3956 91.0354
      vertex -42.9417 -39.5995 75.1847
      vertex 54.6249 -39.5995 75.1847
    endloop
  endfacet
  facet normal -0.0884907 -0.988602 -0.121799
    outer loop
      vertex -82.7238 -26.8786 -113.86
      vertex 5.84165 -39.5994 -74.9549
      vertex -73.0915 -39.5995 -17.6067
    endloop
  endfacet
  facet normal -0.904989 0.400504 0.143495
    outer loop
      vertex -82.7238 -26.8786 -113.86
      vertex -73.0915 -39.5995 -17.6067
      vertex -42.9417 43.3957 -59.1042
    endloop
  endfacet
  facet normal 0.416133 0.400506 -0.816351
    outer loop
      vertex -82.7238 -26.8786 -113.86
      vertex -42.9417 43.3957 -59.1042
      vertex 5.84165 -39.5994 -74.9549
    endloop
  endfacet
  facet normal 0.525731 0.447215 -0.723606
    outer loop
      vertex 5.84165 -39.5994 -74.9549
      vertex 84.7746 43.3957 33.6872
      vertex 84.7747 -39.5994 -17.6067
    endloop
  endfacet
  facet normal 0.525731 0.447214 -0.723606
    outer loop
      vertex -42.9417 43.3957 -59.1042
      vertex 84.7746 43.3957 33.6872
      vertex 5.84165 -39.5994 -74.9549
    endloop
  endfacet
  facet normal 0.525731 0.447214 -0.723607
    outer loop
      vertex 84.7746 43.3957 33.6872
      vertex -42.9417 43.3957 -59.1042
      vertex 5.84155 94.6895 8.04025
    endloop
  endfacet
  facet normal -0.850651 0.447213 0.276393
    outer loop
      vertex -73.0915 -39.5995 -17.6067
      vertex 5.84155 94.6895 8.04025
      vertex -42.9417 43.3957 -59.1042
    endloop
  endfacet
  facet normal -0.850651 0.447213 0.276393
    outer loop
      vertex 5.84155 94.6895 8.04025
      vertex -73.0915 -39.5995 -17.6067
      vertex 5.84149 43.3956 91.0354
    endloop
  endfacet
  facet normal -0.850651 0.447212 0.276394
    outer loop
      vertex 5.84149 43.3956 91.0354
      vertex -73.0915 -39.5995 -17.6067
      vertex -42.9417 -39.5995 75.1847
    endloop
  endfacet
  facet normal 0 -1 -1.07769e-06
    outer loop
      vertex -42.9417 -39.5995 75.1847
      vertex 84.7747 -39.5994 -17.6067
      vertex 54.6249 -39.5995 75.1847
    endloop
  endfacet
  facet normal 6.33448e-07 -1 -2.0582e-07
    outer loop
      vertex -73.0915 -39.5995 -17.6067
      vertex 84.7747 -39.5994 -17.6067
      vertex -42.9417 -39.5995 75.1847
    endloop
  endfacet
  facet normal 6.33448e-07 -1 -8.71866e-07
    outer loop
      vertex 84.7747 -39.5994 -17.6067
      vertex -73.0915 -39.5995 -17.6067
      vertex 5.84165 -39.5994 -74.9549
    endloop
  endfacet
endsolid OpenSCAD_Model
