solid OpenSCAD_Model
  facet normal 0 -1 0
    outer loop
      vertex -42.5807 -90.4814 0
      vertex 34.4485 -90.4814 25.0283
      vertex -13.1582 -90.4814 40.4967
    endloop
  endfacet
  facet normal 0 -1 0
    outer loop
      vertex -42.5807 -90.4814 0
      vertex 34.4485 -90.4814 -25.0283
      vertex 34.4485 -90.4814 25.0283
    endloop
  endfacet
  facet normal -0 -1 0
    outer loop
      vertex 34.4485 -90.4814 -25.0283
      vertex -42.5807 -90.4814 0
      vertex -13.1582 -90.4814 -40.4967
    endloop
  endfacet
  facet normal -0.276394 -0.447212 -0.850651
    outer loop
      vertex -13.1582 -90.4814 -40.4967
      vertex -0 -21.5843 -80.9933
      vertex 21.2904 -64.1651 -65.525
    endloop
  endfacet
  facet normal -0.276392 -0.447213 -0.850651
    outer loop
      vertex -55.7389 -64.1651 -40.4967
      vertex -0 -21.5843 -80.9933
      vertex -13.1582 -90.4814 -40.4967
    endloop
  endfacet
  facet normal -0.276392 -0.447213 -0.850651
    outer loop
      vertex -0 -21.5843 -80.9933
      vertex -55.7389 -64.1651 -40.4967
      vertex -47.6067 -21.5843 -65.525
    endloop
  endfacet
  facet normal 0.187593 -0.794655 -0.577349
    outer loop
      vertex -13.1582 -90.4814 -40.4967
      vertex 21.2904 -64.1651 -65.525
      vertex 34.4485 -90.4814 -25.0283
    endloop
  endfacet
  facet normal 0.30353 -0.187591 -0.934173
    outer loop
      vertex 21.2904 -64.1651 -65.525
      vertex -0 -21.5843 -80.9933
      vertex 47.6067 -21.5843 -65.525
    endloop
  endfacet
  facet normal 0.723608 -0.447213 -0.525731
    outer loop
      vertex 21.2904 -64.1651 -65.525
      vertex 77.0292 -21.5843 -25.0283
      vertex 68.897 -64.1651 0
    endloop
  endfacet
  facet normal 0.723608 -0.447213 -0.52573
    outer loop
      vertex 77.0292 -21.5843 -25.0283
      vertex 21.2904 -64.1651 -65.525
      vertex 47.6067 -21.5843 -65.525
    endloop
  endfacet
  facet normal 0.723607 -0.447215 -0.52573
    outer loop
      vertex 21.2904 -64.1651 -65.525
      vertex 68.897 -64.1651 0
      vertex 34.4485 -90.4814 -25.0283
    endloop
  endfacet
  facet normal 0.607062 -0.794655 0
    outer loop
      vertex 34.4485 -90.4814 -25.0283
      vertex 68.897 -64.1651 0
      vertex 34.4485 -90.4814 25.0283
    endloop
  endfacet
  facet normal 0.982247 -0.187592 0
    outer loop
      vertex 68.897 -64.1651 0
      vertex 77.0292 -21.5843 -25.0283
      vertex 77.0292 -21.5843 25.0283
    endloop
  endfacet
  facet normal 0.723608 -0.447213 0.52573
    outer loop
      vertex 21.2904 -64.1651 65.525
      vertex 77.0292 -21.5843 25.0283
      vertex 47.6067 -21.5843 65.525
    endloop
  endfacet
  facet normal 0.723608 -0.447213 0.525731
    outer loop
      vertex 21.2904 -64.1651 65.525
      vertex 68.897 -64.1651 0
      vertex 77.0292 -21.5843 25.0283
    endloop
  endfacet
  facet normal 0.723607 -0.447215 0.52573
    outer loop
      vertex 68.897 -64.1651 0
      vertex 21.2904 -64.1651 65.525
      vertex 34.4485 -90.4814 25.0283
    endloop
  endfacet
  facet normal 0.187593 -0.794655 0.577349
    outer loop
      vertex 34.4485 -90.4814 25.0283
      vertex 21.2904 -64.1651 65.525
      vertex -13.1582 -90.4814 40.4967
    endloop
  endfacet
  facet normal 0.30353 -0.187591 0.934173
    outer loop
      vertex 21.2904 -64.1651 65.525
      vertex 47.6067 -21.5843 65.525
      vertex -0 -21.5843 80.9933
    endloop
  endfacet
  facet normal -0.276394 -0.447212 0.850651
    outer loop
      vertex -0 -21.5843 80.9933
      vertex -13.1582 -90.4814 40.4967
      vertex 21.2904 -64.1651 65.525
    endloop
  endfacet
  facet normal -0.276392 -0.447213 0.850651
    outer loop
      vertex -55.7389 -64.1651 40.4967
      vertex -0 -21.5843 80.9933
      vertex -47.6067 -21.5843 65.525
    endloop
  endfacet
  facet normal -0.276392 -0.447213 0.850651
    outer loop
      vertex -0 -21.5843 80.9933
      vertex -55.7389 -64.1651 40.4967
      vertex -13.1582 -90.4814 40.4967
    endloop
  endfacet
  facet normal -0.491123 -0.794655 0.356821
    outer loop
      vertex -13.1582 -90.4814 40.4967
      vertex -55.7389 -64.1651 40.4967
      vertex -42.5807 -90.4814 0
    endloop
  endfacet
  facet normal -0.794655 -0.187591 0.577349
    outer loop
      vertex -55.7389 -64.1651 40.4967
      vertex -47.6067 -21.5843 65.525
      vertex -77.0292 -21.5843 25.0283
    endloop
  endfacet
  facet normal -0.894428 -0.447212 1.99773e-06
    outer loop
      vertex -42.5807 -90.4814 0
      vertex -77.0292 -21.5843 -25.0283
      vertex -55.7389 -64.1651 -40.4967
    endloop
  endfacet
  facet normal -0.894427 -0.447213 0
    outer loop
      vertex -77.0292 -21.5843 -25.0283
      vertex -42.5807 -90.4814 0
      vertex -77.0292 -21.5843 25.0283
    endloop
  endfacet
  facet normal -0.894428 -0.447212 -1.99773e-06
    outer loop
      vertex -77.0292 -21.5843 25.0283
      vertex -42.5807 -90.4814 0
      vertex -55.7389 -64.1651 40.4967
    endloop
  endfacet
  facet normal -0.491123 -0.794655 -0.356821
    outer loop
      vertex -42.5807 -90.4814 0
      vertex -55.7389 -64.1651 -40.4967
      vertex -13.1582 -90.4814 -40.4967
    endloop
  endfacet
  facet normal -0.794655 -0.187591 -0.577349
    outer loop
      vertex -55.7389 -64.1651 -40.4967
      vertex -77.0292 -21.5843 -25.0283
      vertex -47.6067 -21.5843 -65.525
    endloop
  endfacet
  facet normal 0 1 0
    outer loop
      vertex 40.4967 90.4814 -13.1582
      vertex -25.0283 90.4814 34.4485
      vertex 25.0283 90.4814 34.4485
    endloop
  endfacet
  facet normal 0 1 0
    outer loop
      vertex 40.4967 90.4814 -13.1582
      vertex -40.4967 90.4814 -13.1582
      vertex -25.0283 90.4814 34.4485
    endloop
  endfacet
  facet normal -0 1 0
    outer loop
      vertex -40.4967 90.4814 -13.1582
      vertex 40.4967 90.4814 -13.1582
      vertex 0 90.4814 -42.5807
    endloop
  endfacet
  facet normal -1.99773e-06 0.447212 -0.894428
    outer loop
      vertex 25.0283 21.5843 -77.0292
      vertex 0 90.4814 -42.5807
      vertex 40.4967 64.1651 -55.7389
    endloop
  endfacet
  facet normal 0 0.447213 -0.894427
    outer loop
      vertex -25.0283 21.5843 -77.0292
      vertex 0 90.4814 -42.5807
      vertex 25.0283 21.5843 -77.0292
    endloop
  endfacet
  facet normal 1.99773e-06 0.447212 -0.894428
    outer loop
      vertex 0 90.4814 -42.5807
      vertex -25.0283 21.5843 -77.0292
      vertex -40.4967 64.1651 -55.7389
    endloop
  endfacet
  facet normal -0.356821 0.794655 -0.491123
    outer loop
      vertex 0 90.4814 -42.5807
      vertex -40.4967 64.1651 -55.7389
      vertex -40.4967 90.4814 -13.1582
    endloop
  endfacet
  facet normal -0.577349 0.187591 -0.794655
    outer loop
      vertex -40.4967 64.1651 -55.7389
      vertex -25.0283 21.5843 -77.0292
      vertex -65.525 21.5843 -47.6067
    endloop
  endfacet
  facet normal -0.850651 0.447213 -0.276392
    outer loop
      vertex -80.9933 21.5843 0
      vertex -40.4967 90.4814 -13.1582
      vertex -40.4967 64.1651 -55.7389
    endloop
  endfacet
  facet normal -0.850651 0.447213 -0.276392
    outer loop
      vertex -80.9933 21.5843 0
      vertex -40.4967 64.1651 -55.7389
      vertex -65.525 21.5843 -47.6067
    endloop
  endfacet
  facet normal -0.850651 0.447212 -0.276394
    outer loop
      vertex -40.4967 90.4814 -13.1582
      vertex -80.9933 21.5843 0
      vertex -65.525 64.1651 21.2904
    endloop
  endfacet
  facet normal -0.577349 0.794655 0.187593
    outer loop
      vertex -40.4967 90.4814 -13.1582
      vertex -65.525 64.1651 21.2904
      vertex -25.0283 90.4814 34.4485
    endloop
  endfacet
  facet normal -0.934173 0.187591 0.30353
    outer loop
      vertex -65.525 64.1651 21.2904
      vertex -80.9933 21.5843 0
      vertex -65.525 21.5843 47.6067
    endloop
  endfacet
  facet normal -0.52573 0.447215 0.723607
    outer loop
      vertex -65.525 64.1651 21.2904
      vertex 0 64.1651 68.897
      vertex -25.0283 90.4814 34.4485
    endloop
  endfacet
  facet normal -0.525731 0.447213 0.723608
    outer loop
      vertex 0 64.1651 68.897
      vertex -65.525 64.1651 21.2904
      vertex -25.0283 21.5843 77.0292
    endloop
  endfacet
  facet normal -0.52573 0.447213 0.723608
    outer loop
      vertex -25.0283 21.5843 77.0292
      vertex -65.525 64.1651 21.2904
      vertex -65.525 21.5843 47.6067
    endloop
  endfacet
  facet normal -0 0.794655 0.607062
    outer loop
      vertex -25.0283 90.4814 34.4485
      vertex 0 64.1651 68.897
      vertex 25.0283 90.4814 34.4485
    endloop
  endfacet
  facet normal 0 0.187592 0.982247
    outer loop
      vertex 0 64.1651 68.897
      vertex -25.0283 21.5843 77.0292
      vertex 25.0283 21.5843 77.0292
    endloop
  endfacet
  facet normal 0.52573 0.447215 0.723607
    outer loop
      vertex 0 64.1651 68.897
      vertex 65.525 64.1651 21.2904
      vertex 25.0283 90.4814 34.4485
    endloop
  endfacet
  facet normal 0.52573 0.447213 0.723608
    outer loop
      vertex 65.525 64.1651 21.2904
      vertex 25.0283 21.5843 77.0292
      vertex 65.525 21.5843 47.6067
    endloop
  endfacet
  facet normal 0.525731 0.447213 0.723608
    outer loop
      vertex 65.525 64.1651 21.2904
      vertex 0 64.1651 68.897
      vertex 25.0283 21.5843 77.0292
    endloop
  endfacet
  facet normal 0.577349 0.794655 0.187593
    outer loop
      vertex 25.0283 90.4814 34.4485
      vertex 65.525 64.1651 21.2904
      vertex 40.4967 90.4814 -13.1582
    endloop
  endfacet
  facet normal 0.934173 0.187591 0.30353
    outer loop
      vertex 65.525 64.1651 21.2904
      vertex 65.525 21.5843 47.6067
      vertex 80.9933 21.5843 0
    endloop
  endfacet
  facet normal 0.850651 0.447212 -0.276394
    outer loop
      vertex 80.9933 21.5843 0
      vertex 40.4967 90.4814 -13.1582
      vertex 65.525 64.1651 21.2904
    endloop
  endfacet
  facet normal 0.850651 0.447213 -0.276392
    outer loop
      vertex 40.4967 90.4814 -13.1582
      vertex 80.9933 21.5843 0
      vertex 40.4967 64.1651 -55.7389
    endloop
  endfacet
  facet normal 0.850651 0.447213 -0.276392
    outer loop
      vertex 40.4967 64.1651 -55.7389
      vertex 80.9933 21.5843 0
      vertex 65.525 21.5843 -47.6067
    endloop
  endfacet
  facet normal 0.356821 0.794655 -0.491123
    outer loop
      vertex 40.4967 90.4814 -13.1582
      vertex 40.4967 64.1651 -55.7389
      vertex 0 90.4814 -42.5807
    endloop
  endfacet
  facet normal 0.577349 0.187591 -0.794655
    outer loop
      vertex 40.4967 64.1651 -55.7389
      vertex 65.525 21.5843 -47.6067
      vertex 25.0283 21.5843 -77.0292
    endloop
  endfacet
  facet normal 0.307721 -0.0914427 0.947072
    outer loop
      vertex 47.6067 -21.5843 65.525
      vertex 25.0283 21.5843 77.0292
      vertex -0 -21.5843 80.9933
    endloop
  endfacet
  facet normal 0 0.0914436 0.99581
    outer loop
      vertex -0 -21.5843 80.9933
      vertex 25.0283 21.5843 77.0292
      vertex -25.0283 21.5843 77.0292
    endloop
  endfacet
  facet normal -0.307721 -0.0914427 0.947072
    outer loop
      vertex -0 -21.5843 80.9933
      vertex -25.0283 21.5843 77.0292
      vertex -47.6067 -21.5843 65.525
    endloop
  endfacet
  facet normal -0.585322 0.0914442 0.805628
    outer loop
      vertex -47.6067 -21.5843 65.525
      vertex -25.0283 21.5843 77.0292
      vertex -65.525 21.5843 47.6067
    endloop
  endfacet
  facet normal -0.805628 -0.0914442 0.585322
    outer loop
      vertex -47.6067 -21.5843 65.525
      vertex -65.525 21.5843 47.6067
      vertex -77.0292 -21.5843 25.0283
    endloop
  endfacet
  facet normal -0.947072 0.0914427 0.307721
    outer loop
      vertex -77.0292 -21.5843 25.0283
      vertex -65.525 21.5843 47.6067
      vertex -80.9933 21.5843 0
    endloop
  endfacet
  facet normal -0.99581 -0.0914436 -0
    outer loop
      vertex -77.0292 -21.5843 25.0283
      vertex -80.9933 21.5843 0
      vertex -77.0292 -21.5843 -25.0283
    endloop
  endfacet
  facet normal -0.947072 0.0914427 -0.307721
    outer loop
      vertex -77.0292 -21.5843 -25.0283
      vertex -80.9933 21.5843 0
      vertex -65.525 21.5843 -47.6067
    endloop
  endfacet
  facet normal -0.805628 -0.0914442 -0.585322
    outer loop
      vertex -77.0292 -21.5843 -25.0283
      vertex -65.525 21.5843 -47.6067
      vertex -47.6067 -21.5843 -65.525
    endloop
  endfacet
  facet normal -0.585322 0.0914442 -0.805628
    outer loop
      vertex -47.6067 -21.5843 -65.525
      vertex -65.525 21.5843 -47.6067
      vertex -25.0283 21.5843 -77.0292
    endloop
  endfacet
  facet normal -0.307721 -0.0914427 -0.947072
    outer loop
      vertex -47.6067 -21.5843 -65.525
      vertex -25.0283 21.5843 -77.0292
      vertex -0 -21.5843 -80.9933
    endloop
  endfacet
  facet normal 0 0.0914436 -0.99581
    outer loop
      vertex -0 -21.5843 -80.9933
      vertex -25.0283 21.5843 -77.0292
      vertex 25.0283 21.5843 -77.0292
    endloop
  endfacet
  facet normal 0.307721 -0.0914427 -0.947072
    outer loop
      vertex -0 -21.5843 -80.9933
      vertex 25.0283 21.5843 -77.0292
      vertex 47.6067 -21.5843 -65.525
    endloop
  endfacet
  facet normal 0.585322 0.0914442 -0.805628
    outer loop
      vertex 47.6067 -21.5843 -65.525
      vertex 25.0283 21.5843 -77.0292
      vertex 65.525 21.5843 -47.6067
    endloop
  endfacet
  facet normal 0.805628 -0.0914442 -0.585322
    outer loop
      vertex 47.6067 -21.5843 -65.525
      vertex 65.525 21.5843 -47.6067
      vertex 77.0292 -21.5843 -25.0283
    endloop
  endfacet
  facet normal 0.947072 0.0914427 -0.307721
    outer loop
      vertex 77.0292 -21.5843 -25.0283
      vertex 65.525 21.5843 -47.6067
      vertex 80.9933 21.5843 0
    endloop
  endfacet
  facet normal 0.99581 -0.0914436 0
    outer loop
      vertex 77.0292 -21.5843 -25.0283
      vertex 80.9933 21.5843 0
      vertex 77.0292 -21.5843 25.0283
    endloop
  endfacet
  facet normal 0.947072 0.0914427 0.307721
    outer loop
      vertex 77.0292 -21.5843 25.0283
      vertex 80.9933 21.5843 0
      vertex 65.525 21.5843 47.6067
    endloop
  endfacet
  facet normal 0.805628 -0.0914442 0.585322
    outer loop
      vertex 77.0292 -21.5843 25.0283
      vertex 65.525 21.5843 47.6067
      vertex 47.6067 -21.5843 65.525
    endloop
  endfacet
  facet normal 0.585322 0.0914442 0.805628
    outer loop
      vertex 47.6067 -21.5843 65.525
      vertex 65.525 21.5843 47.6067
      vertex 25.0283 21.5843 77.0292
    endloop
  endfacet
endsolid OpenSCAD_Model
