<?xml version="1.0" standalone="no"?>
<!DOCTYPE svg PUBLIC "-//W3C//DTD SVG 1.1//EN" "http://www.w3.org/Graphics/SVG/1.1/DTD/svg11.dtd">
<svg width="51mm" height="15mm" viewBox="0 -15 51 15" xmlns="http://www.w3.org/2000/svg" version="1.1">
<title>OpenSCAD Model</title>
<path d="
M 4.5511,-1.33214 L 4.62181,-1.36143 L 4.65111,-1.43214 L 4.62181,-1.50285 L 4.5511,-1.53215 L 2.72693,-1.47441
 L 22.338,-12.7969 L 47.238,-12.7969 L 47.238,-11.3094 L 47.338,-11.2094 L 50.513,-11.2094 L 50.613,-11.3094
 L 50.613,-14.4844 L 50.513,-14.5844 L 47.338,-14.5844 L 47.238,-14.4844 L 47.238,-12.9969 L 22.338,-12.9969
 L 2.63557,-1.62166 L 3.58653,-3.15459 L 3.61583,-3.2253 L 3.58653,-3.29601 L 3.51582,-3.3253 L 3.44511,-3.29601
 L 0.616684,-0.467575 L 0.587402,-0.396866 L 0.616684,-0.326157 L 0.687393,-0.296875 z
M 47.438,-11.4094 L 47.438,-14.3844 L 50.413,-14.3844 L 50.413,-11.4094 z
M 49.4453,-12.4797 L 49.076,-12.4797 L 49.076,-13.8318 L 48.8973,-13.8318 L 48.5389,-13.5853 L 48.5389,-13.4023
 L 48.8812,-13.6466 L 48.8812,-12.4797 L 48.4947,-12.4797 L 48.4947,-12.315 L 49.4453,-12.315 z
M 2.98296,-2.55101 L 2.28972,-1.4335 L 1.2859,-0.853958 z
M 2.38156,-1.26346 L 3.70464,-1.30534 L 1.37114,-0.680084 z
" stroke="black" fill="lightgray" stroke-width="0.5"/>
</svg>
