<?xml version="1.0" standalone="no"?>
<!DOCTYPE svg PUBLIC "-//W3C//DTD SVG 1.1//EN" "http://www.w3.org/Graphics/SVG/1.1/DTD/svg11.dtd">
<svg width="102mm" height="9mm" viewBox="-1 -12 102 9" xmlns="http://www.w3.org/2000/svg" version="1.1">
<title>OpenSCAD Model</title>
<path d="
M 48.9827,-9.72478 L 49.0829,-9.75465 L 49.1734,-9.80754 L 49.2513,-9.88654 L 49.3154,-9.99284 L 49.3643,-10.1277
 L 49.3954,-10.2941 L 49.4058,-10.4953 L 49.3956,-10.7048 L 49.3649,-10.8748 L 49.3165,-11.0097 L 49.2529,-11.1143
 L 49.1758,-11.1903 L 49.0866,-11.2397 L 48.988,-11.2668 L 48.8826,-11.2758 L 48.7728,-11.2668 L 48.6716,-11.2397
 L 48.5812,-11.1903 L 48.5037,-11.1143 L 48.4403,-11.0097 L 48.3923,-10.8748 L 48.362,-10.7048 L 48.3519,-10.4953
 L 48.362,-10.2933 L 48.3923,-10.1266 L 48.4402,-9.9919 L 48.5031,-9.88599 L 48.58,-9.8074 L 48.6694,-9.75465
 L 48.769,-9.72478 L 48.8762,-9.71483 z
M 48.804,-9.88101 L 48.7383,-9.90482 L 48.6817,-9.94681 L 48.6345,-10.0092 L 48.5971,-10.0936 L 48.5699,-10.2014
 L 48.5533,-10.3346 L 48.5478,-10.4953 L 48.5532,-10.6601 L 48.5693,-10.7951 L 48.5961,-10.903 L 48.6334,-10.9867
 L 48.6809,-11.0479 L 48.7384,-11.0884 L 48.8056,-11.1111 L 48.8826,-11.1186 L 48.9559,-11.1112 L 49.0209,-11.089
 L 49.0771,-11.0489 L 49.1237,-10.9878 L 49.1606,-10.9041 L 49.1873,-10.7962 L 49.2034,-10.6609 L 49.2088,-10.4953
 L 49.203,-10.3346 L 49.1857,-10.2014 L 49.1577,-10.0936 L 49.12,-10.0092 L 49.0728,-9.94681 L 49.0161,-9.90482
 L 48.951,-9.88101 L 48.8783,-9.87306 z
M 48.1868,-9.90106 L 47.8176,-9.90106 L 47.8176,-11.2532 L 47.6389,-11.2532 L 47.2804,-11.0066 L 47.2804,-10.8236
 L 47.6227,-11.068 L 47.6227,-9.90106 L 47.2362,-9.90106 L 47.2362,-9.73636 L 48.1868,-9.73636 z
M 51.4836,-10.4113 L 51.4883,-10.4935 L 51.5025,-10.5658 L 51.5253,-10.6277 L 51.5563,-10.6788 L 51.5949,-10.7192
 L 51.6408,-10.7488 L 51.6933,-10.767 L 51.7517,-10.773 L 51.8063,-10.7694 L 51.8518,-10.7585 L 51.8888,-10.7389
 L 51.918,-10.709 L 51.9397,-10.6685 L 51.9541,-10.6169 L 51.9621,-10.5529 L 51.9648,-10.4748 L 51.9648,-9.73636
 L 52.1565,-9.73636 L 52.1565,-10.4113 L 52.1612,-10.4953 L 52.1753,-10.5685 L 52.1982,-10.6307 L 52.2291,-10.6815
 L 52.2677,-10.7212 L 52.3136,-10.7499 L 52.3661,-10.7672 L 52.4245,-10.773 L 52.4792,-10.7694 L 52.5246,-10.7585
 L 52.5616,-10.7389 L 52.5908,-10.709 L 52.6125,-10.6685 L 52.6269,-10.6169 L 52.635,-10.5529 L 52.6377,-10.4748
 L 52.6377,-9.73636 L 52.8293,-9.73636 L 52.8293,-10.5125 L 52.8244,-10.6128 L 52.8099,-10.6982 L 52.7851,-10.7691
 L 52.7496,-10.8258 L 52.7029,-10.8688 L 52.6447,-10.899 L 52.5746,-10.9167 L 52.4923,-10.9227 L 52.4272,-10.9188
 L 52.3696,-10.9071 L 52.3185,-10.8882 L 52.2727,-10.8629 L 52.2324,-10.8313 L 52.1974,-10.7935 L 52.1667,-10.7502
 L 52.1392,-10.702 L 52.136,-10.702 L 52.0941,-10.8016 L 52.0289,-10.8699 L 51.938,-10.9095 L 51.8195,-10.9227
 L 51.7548,-10.9188 L 51.6984,-10.9071 L 51.6492,-10.8882 L 51.6058,-10.8629 L 51.568,-10.8313 L 51.5353,-10.7935
 L 51.5062,-10.7502 L 51.4793,-10.702 L 51.4761,-10.702 L 51.4758,-10.7261 L 51.475,-10.7553 L 51.4738,-10.7867
 L 51.4723,-10.8177 L 51.4709,-10.8466 L 51.4696,-10.8721 L 51.4686,-10.8912 L 51.4675,-10.9011 L 51.2845,-10.9011
 L 51.2856,-10.889 L 51.2866,-10.8678 L 51.2877,-10.8394 L 51.2888,-10.8058 L 51.2897,-10.7687 L 51.2904,-10.7294
 L 51.2908,-10.69 L 51.2909,-10.6525 L 51.2909,-9.73636 L 51.4836,-9.73636 z
M 50.755,-9.72249 L 50.8409,-9.7455 L 50.9145,-9.78116 L 50.976,-9.82678 L 51.0256,-9.88141 L 51.0637,-9.94411
 L 51.0904,-10.0122 L 51.1057,-10.083 L 50.9098,-10.0959 L 50.8803,-9.99472 L 50.8242,-9.92366 L 50.7463,-9.88168
 L 50.6514,-9.86769 L 50.5751,-9.87602 L 50.512,-9.90106 L 50.461,-9.9413 L 50.421,-9.99525 L 50.3916,-10.0619
 L 50.372,-10.14 L 50.3611,-10.2281 L 50.3575,-10.3241 L 50.3611,-10.4299 L 50.372,-10.5211 L 50.3916,-10.598
 L 50.421,-10.6605 L 50.4607,-10.709 L 50.5109,-10.7434 L 50.5732,-10.764 L 50.6493,-10.7709 L 50.7494,-10.7566
 L 50.8236,-10.7138 L 50.8734,-10.6468 L 50.9001,-10.5599 L 51.0992,-10.575 L 51.0801,-10.6457 L 51.0508,-10.7117
 L 51.0111,-10.771 L 50.9609,-10.822 L 50.9002,-10.8639 L 50.829,-10.8958 L 50.7472,-10.9159 L 50.6546,-10.9227
 L 50.5925,-10.9196 L 50.5308,-10.9103 L 50.4709,-10.8941 L 50.414,-10.8705 L 50.3606,-10.8384 L 50.3112,-10.7972
 L 50.267,-10.7461 L 50.2289,-10.6842 L 50.1978,-10.6113 L 50.1745,-10.527 L 50.16,-10.4303 L 50.1551,-10.3198
 L 50.1619,-10.1954 L 50.182,-10.0803 L 50.2172,-9.97722 L 50.2687,-9.88867 L 50.3375,-9.81615 L 50.4243,-9.76112
 L 50.5303,-9.72639 L 50.6568,-9.71483 z
M 100.05,-3.17499 L 100.05,-8.65195 L 100.071,-8.66054 L 100.1,-8.73125 L 100.071,-8.80196 L 100.05,-8.81053
 L 100.05,-9.52499 L 100,-9.575 L 99.95,-9.52499 L 99.95,-8.84464 L 96.1363,-9.86652 L 96.0656,-9.83723
 L 96.0363,-9.76653 L 96.0656,-9.6958 L 97.6789,-8.83124 L 2.32108,-8.83124 L 3.9344,-9.6958 L 3.9637,-9.76653
 L 3.9344,-9.83723 L 3.86369,-9.86652 L 0.0499878,-8.84464 L 0.0499878,-9.52499 L 0,-9.575 L -0.0499878,-9.52499
 L -0.0499878,-8.81053 L -0.0707092,-8.80196 L -0.0999908,-8.73125 L -0.0707092,-8.66054 L -0.0499878,-8.65195 L -0.0499878,-3.17499
 L 0,-3.125 L 0.0499878,-3.17499 L 0.0499878,-8.61784 L 3.86369,-7.59596 L 3.9344,-7.62526 L 3.9637,-7.69597
 L 3.9344,-7.76668 L 2.32111,-8.63124 L 97.6789,-8.63124 L 96.0656,-7.76668 L 96.0363,-7.69597 L 96.0656,-7.62526
 L 96.1363,-7.59596 L 99.95,-8.61784 L 99.95,-3.17499 L 100,-3.125 z
" stroke="black" fill="lightgray" stroke-width="0.5"/>
</svg>
