<?xml version="1.0" standalone="no"?>
<!DOCTYPE svg PUBLIC "-//W3C//DTD SVG 1.1//EN" "http://www.w3.org/Graphics/SVG/1.1/DTD/svg11.dtd">
<svg width="51mm" height="43mm" viewBox="0 -42 51 43" xmlns="http://www.w3.org/2000/svg" version="1.1">
<title>OpenSCAD Model</title>
<path d="
M 49.2769,0.0707092 L 49.2855,0.0499878 L 50,0.0499878 L 50.05,-0 L 50,-0.0499878 L 49.3188,-0.0499878
 L 50.2782,-3.88011 L 50.2489,-3.95082 L 50.1782,-3.98012 L 50.1075,-3.95082 L 49.247,-2.28003 L 49.2009,-3.21823
 L 49.0693,-4.82304 L 48.8853,-6.4227 L 48.649,-8.01547 L 48.3608,-9.59966 L 48.0208,-11.1736 L 47.6296,-12.7355
 L 47.1874,-14.2838 L 46.6949,-15.8168 L 46.1524,-17.3329 L 45.5606,-18.8304 L 44.9202,-20.3078 L 44.2317,-21.7634
 L 43.496,-23.1957 L 42.7139,-24.6031 L 41.886,-25.9842 L 41.0135,-27.3375 L 40.0971,-28.6615 L 39.1379,-29.9549
 L 38.1369,-31.2161 L 37.0952,-32.4439 L 36.0139,-33.637 L 34.8941,-34.7941 L 34.7941,-34.8941 L 33.637,-36.0139
 L 32.4439,-37.0952 L 31.2161,-38.1369 L 29.9549,-39.1379 L 29.2238,-39.6802 L 31.1037,-39.4659 L 31.1744,-39.4952
 L 31.2037,-39.5659 L 31.1744,-39.6366 L 31.1037,-39.6659 L 27.4318,-40.9798 L 27.8285,-41.5735 L 27.7785,-41.6235
 L 27.7285,-41.5735 L 27.3511,-41.0086 L 27.3375,-41.0135 L 27.2668,-40.9842 L 27.2375,-40.9135 L 27.2567,-40.8673
 L 25.6451,-38.4555 L 25.6951,-38.4055 L 25.7451,-38.4555 L 27.3079,-40.7943 L 29.8546,-37.7927 L 29.9253,-37.7634
 L 29.996,-37.7927 L 30.0253,-37.8634 L 29.996,-37.9341 L 29.1919,-39.5038 L 29.9549,-38.9379 L 31.2161,-37.9369
 L 32.4439,-36.8952 L 33.637,-35.8139 L 34.7432,-34.7432 L 35.8139,-33.637 L 36.8952,-32.4439 L 37.9369,-31.2161
 L 38.9379,-29.9549 L 39.8971,-28.6615 L 40.8135,-27.3375 L 41.6861,-25.9842 L 42.5139,-24.6031 L 43.296,-23.1957
 L 44.0317,-21.7634 L 44.7202,-20.3078 L 45.3606,-18.8304 L 45.9524,-17.3329 L 46.4949,-15.8168 L 46.9874,-14.2838
 L 47.4296,-12.7355 L 47.8208,-11.1736 L 48.1608,-9.59966 L 48.449,-8.01547 L 48.6853,-6.4227 L 48.8693,-4.82304
 L 49.0009,-3.21823 L 49.0428,-2.36591 L 48.1786,-3.91695 L 48.1079,-3.94624 L 48.0372,-3.91695 L 48.0079,-3.84624
 L 49.092,-0.0499878 L 46.25,-0.0499878 L 46.2,-0 L 46.25,0.0499878 L 49.127,0.0499878 L 49.1355,0.0707092
 L 49.2062,0.0999908 z
M 24.3562,-36.3768 L 25.0507,-37.4161 L 25.0007,-37.4661 L 24.9507,-37.4161 L 24.2562,-36.3768 L 24.3062,-36.3268
 z
M 21.5783,-32.2194 L 23.6617,-35.3374 L 23.6117,-35.3875 L 23.5617,-35.3374 L 21.4783,-32.2194 L 21.5283,-32.1694
 z
M 20.1894,-30.1408 L 20.8839,-31.1801 L 20.8339,-31.2301 L 20.7839,-31.1801 L 20.0894,-30.1408 L 20.1394,-30.0908
 z
M 41.0878,-29.3617 L 40.9696,-29.5829 L 42.537,-30.4207 L 42.6553,-30.1995 L 42.7778,-30.265 L 42.5712,-30.6514
 L 40.7588,-29.6826 L 40.9653,-29.2962 z
M 42.1399,-28.6745 L 42.2399,-28.6986 L 42.3404,-28.7426 L 42.4246,-28.7973 L 42.4931,-28.8632 L 42.545,-28.9383
 L 42.5794,-29.0204 L 42.5955,-29.1087 L 42.5927,-29.2021 L 42.5702,-29.2991 L 42.5272,-29.3978 L 42.4741,-29.482
 L 42.4152,-29.5467 L 42.3541,-29.5946 L 42.2941,-29.6284 L 42.7322,-29.8296 L 43.0554,-29.2249 L 43.2007,-29.3025
 L 42.7942,-30.063 L 42.0507,-29.7229 L 42.14,-29.5558 L 42.1707,-29.5431 L 42.2017,-29.5284 L 42.2324,-29.5106
 L 42.2625,-29.4888 L 42.2915,-29.463 L 42.3191,-29.4331 L 42.345,-29.3984 L 42.3689,-29.3583 L 42.3982,-29.2909
 L 42.4132,-29.2252 L 42.4146,-29.1623 L 42.4032,-29.1033 L 42.3797,-29.0486 L 42.3445,-28.9986 L 42.2982,-28.9547
 L 42.2417,-28.9181 L 42.1682,-28.8855 L 42.0976,-28.8679 L 42.0307,-28.8646 L 41.9681,-28.875 L 41.9104,-28.8986
 L 41.8583,-28.9353 L 41.8124,-28.9843 L 41.7735,-29.045 L 41.7438,-29.1105 L 41.7279,-29.1702 L 41.7238,-29.2247
 L 41.7294,-29.2747 L 41.7436,-29.32 L 41.7654,-29.3605 L 41.7925,-29.3967 L 41.8232,-29.4292 L 41.7109,-29.5914
 L 41.6561,-29.5391 L 41.6106,-29.4798 L 41.5764,-29.4134 L 41.5554,-29.3398 L 41.549,-29.259 L 41.5583,-29.1711
 L 41.5853,-29.0761 L 41.6319,-28.9742 L 41.6988,-28.8689 L 41.7749,-28.7864 L 41.8585,-28.7262 L 41.9479,-28.6878
 L 42.042,-28.6707 z
M 17.4116,-25.9834 L 19.4949,-29.1014 L 19.4449,-29.1514 L 19.3949,-29.1014 L 17.3116,-25.9834 L 17.3616,-25.9334
 z
M 42.7051,-27.6206 L 42.8045,-27.6467 L 42.9047,-27.6913 L 42.9947,-27.7487 L 43.0672,-27.8154 L 43.1219,-27.8895
 L 43.1584,-27.9691 L 43.1764,-28.0533 L 43.1756,-28.1413 L 43.1559,-28.2314 L 43.1168,-28.3222 L 43.0504,-28.4192
 L 42.9682,-28.4918 L 42.8726,-28.5371 L 42.7666,-28.5525 L 42.8941,-28.6138 L 43.0107,-28.6554 L 43.1158,-28.6782
 L 43.2091,-28.6828 L 43.2905,-28.6695 L 43.36,-28.639 L 43.4172,-28.592 L 43.4613,-28.5295 L 43.4903,-28.4521
 L 43.4951,-28.3737 L 43.4716,-28.2963 L 43.4157,-28.222 L 43.5324,-28.0744 L 43.5887,-28.1375 L 43.6291,-28.2018
 L 43.6549,-28.2669 L 43.6672,-28.3326 L 43.6671,-28.3989 L 43.6552,-28.4659 L 43.6327,-28.5336 L 43.6009,-28.6017
 L 43.5327,-28.7018 L 43.448,-28.7782 L 43.3474,-28.8298 L 43.2318,-28.8561 L 43.1013,-28.8564 L 42.9563,-28.8302
 L 42.7974,-28.7769 L 42.6255,-28.6955 L 42.4821,-28.6096 L 42.3633,-28.5181 L 42.2701,-28.4218 L 42.2037,-28.3212
 L 42.1644,-28.2162 L 42.1527,-28.1071 L 42.1698,-27.9945 L 42.2172,-27.8792 L 42.2786,-27.7844 L 42.3503,-27.7111
 L 42.4303,-27.6585 L 42.5166,-27.626 L 42.6085,-27.6135 z
M 42.5384,-27.8092 L 42.4825,-27.828 L 42.4323,-27.8593 L 42.3884,-27.9028 L 42.3518,-27.9584 L 42.3268,-28.0217
 L 42.3189,-28.0861 L 42.3265,-28.1502 L 42.348,-28.2121 L 42.3828,-28.2712 L 42.4304,-28.3264 L 42.4893,-28.3762
 L 42.5584,-28.4192 L 42.6283,-28.4488 L 42.6938,-28.4604 L 42.7541,-28.457 L 42.8084,-28.4412 L 42.8568,-28.4147
 L 42.899,-28.3791 L 42.9346,-28.3374 L 42.963,-28.2925 L 42.991,-28.2272 L 43.004,-28.1643 L 43.0029,-28.1041
 L 42.9884,-28.0473 L 42.9609,-27.9941 L 42.9204,-27.945 L 42.868,-27.9005 L 42.8043,-27.8609 L 42.7333,-27.8288
 L 42.6645,-27.8095 L 42.5992,-27.8029 z
M 42.4855,-26.973 L 42.5247,-26.9776 L 42.5648,-26.9855 L 42.6062,-26.9971 L 42.6491,-27.0128 L 42.6944,-27.0329
 L 42.743,-27.0575 L 42.9025,-27.1428 L 42.8035,-27.3279 L 42.5956,-27.2168 L 42.6403,-27.1332 L 42.5752,-27.1059
 L 42.5035,-27.09 L 42.426,-27.0848 L 42.3438,-27.0895 L 42.4062,-26.9727 L 42.4463,-26.9714 z
M 43.7357,-25.4332 L 43.5617,-25.7588 L 44.7541,-26.3962 L 44.6699,-26.5538 L 44.2835,-26.7538 L 44.1221,-26.6675
 L 44.499,-26.4808 L 43.4698,-25.9307 L 43.2876,-26.2715 L 43.1424,-26.1939 L 43.5905,-25.3555 z
M 44.3974,-24.451 L 44.4974,-24.4752 L 44.5979,-24.5191 L 44.6821,-24.5739 L 44.7506,-24.6398 L 44.8025,-24.7148
 L 44.8368,-24.797 L 44.853,-24.8853 L 44.8502,-24.9787 L 44.8277,-25.0756 L 44.7847,-25.1744 L 44.7316,-25.2586
 L 44.6727,-25.3233 L 44.6116,-25.3712 L 44.5515,-25.405 L 44.9897,-25.6062 L 45.3129,-25.0014 L 45.4582,-25.0791
 L 45.0517,-25.8395 L 44.3082,-25.4995 L 44.3975,-25.3324 L 44.4282,-25.3197 L 44.4592,-25.3049 L 44.4899,-25.2872
 L 44.5199,-25.2654 L 44.549,-25.2396 L 44.5766,-25.2096 L 44.6025,-25.1749 L 44.6263,-25.1349 L 44.6557,-25.0674
 L 44.6706,-25.0017 L 44.6721,-24.9389 L 44.6607,-24.8799 L 44.6372,-24.8251 L 44.6019,-24.7752 L 44.5557,-24.7312
 L 44.4992,-24.6946 L 44.4256,-24.662 L 44.3551,-24.6445 L 44.2881,-24.6412 L 44.2256,-24.6515 L 44.1679,-24.6752
 L 44.1158,-24.7119 L 44.0699,-24.7609 L 44.0309,-24.8215 L 44.0013,-24.887 L 43.9854,-24.9467 L 43.9812,-25.0013
 L 43.9869,-25.0513 L 44.0011,-25.0966 L 44.0228,-25.137 L 44.05,-25.1732 L 44.0807,-25.2058 L 43.9684,-25.3679
 L 43.9136,-25.3156 L 43.8681,-25.2563 L 43.8338,-25.19 L 43.8129,-25.1164 L 43.8065,-25.0356 L 43.8158,-24.9476
 L 43.8428,-24.8527 L 43.8893,-24.7507 L 43.9563,-24.6454 L 44.0324,-24.563 L 44.116,-24.5028 L 44.2054,-24.4644
 L 44.2995,-24.4472 z
M 16.0226,-23.9047 L 16.7171,-24.9441 L 16.6671,-24.9941 L 16.6171,-24.9441 L 15.9226,-23.9047 L 15.9726,-23.8547
 z
M 44.1785,-23.8056 L 44.2177,-23.8102 L 44.2578,-23.8181 L 44.2992,-23.8297 L 44.3421,-23.8455 L 44.3873,-23.8655
 L 44.436,-23.8902 L 44.5955,-23.9754 L 44.4965,-24.1606 L 44.2886,-24.0494 L 44.3333,-23.9659 L 44.2682,-23.9386
 L 44.1965,-23.9227 L 44.119,-23.9174 L 44.0368,-23.9222 L 44.0992,-23.8054 L 44.1393,-23.8041 z
M 45.6192,-22.3902 L 45.7806,-22.4413 L 45.9629,-22.527 L 46.1429,-22.6348 L 46.2783,-22.7419 L 46.3745,-22.8483
 L 46.4368,-22.9536 L 46.4675,-23.0574 L 46.469,-23.1594 L 46.4463,-23.2591 L 46.4046,-23.3563 L 46.3449,-23.4489
 L 46.2733,-23.5254 L 46.1872,-23.5819 L 46.0836,-23.6144 L 45.9615,-23.621 L 45.8198,-23.5997 L 45.6557,-23.5463
 L 45.4661,-23.4565 L 45.2927,-23.3523 L 45.16,-23.247 L 45.0638,-23.1413 L 45.0001,-23.0358 L 44.967,-22.931
 L 44.9626,-22.8273 L 44.9832,-22.7254 L 45.0249,-22.6262 L 45.084,-22.5369 L 45.1575,-22.4627 L 45.2468,-22.4077
 L 45.3532,-22.3763 L 45.4772,-22.3699 z
M 45.3222,-22.5621 L 45.2585,-22.5923 L 45.2068,-22.6385 L 45.1655,-22.6989 L 45.1375,-22.7681 L 45.1275,-22.8373
 L 45.1379,-22.907 L 45.1707,-22.9781 L 45.2274,-23.0509 L 45.3097,-23.1257 L 45.4194,-23.203 L 45.5585,-23.2837
 L 45.7064,-23.3566 L 45.833,-23.406 L 45.9408,-23.4333 L 46.0322,-23.4398 L 46.1086,-23.4268 L 46.1714,-23.3952
 L 46.2231,-23.3465 L 46.266,-23.2822 L 46.294,-23.2141 L 46.3051,-23.1463 L 46.2962,-23.0779 L 46.2643,-23.0079
 L 46.2079,-22.9359 L 46.1253,-22.8616 L 46.0136,-22.7836 L 45.8701,-22.7007 L 45.7256,-22.6301 L 45.6,-22.5826
 L 45.4917,-22.5565 L 45.3995,-22.5499 z
M 13.2448,-19.7474 L 15.3282,-22.8654 L 15.2782,-22.9154 L 15.2282,-22.8654 L 13.1448,-19.7474 L 13.1948,-19.6974
 z
M 46.9443,-22.47 L 46.7377,-22.8564 L 46.6152,-22.791 L 46.7335,-22.5698 L 45.166,-21.7319 L 45.0478,-21.9531
 L 44.9253,-21.8877 L 45.1319,-21.5013 z
M 46.4067,-20.1144 L 46.4236,-20.1247 L 46.4456,-20.1376 L 46.4715,-20.1527 L 46.501,-20.1695 L 46.5334,-20.1877
 L 46.5681,-20.2066 L 46.6044,-20.2262 L 47.8016,-20.8661 L 47.7102,-21.037 L 47.2839,-20.8091 L 47.2635,-20.798
 L 47.242,-20.7861 L 47.1997,-20.7623 L 47.1823,-20.7525 L 47.1701,-20.7458 L 47.1691,-20.7477 L 47.2201,-20.8458
 L 47.2378,-20.9456 L 47.2231,-21.0503 L 47.1765,-21.1631 L 46.8907,-21.3747 L 46.4372,-21.2537 L 46.2173,-21.1068
 L 46.0893,-20.95 L 46.0538,-20.7801 L 46.1113,-20.5937 L 46.1789,-20.493 L 46.2578,-20.4224 L 46.3523,-20.3821
 L 46.4665,-20.3722 L 46.4686,-20.3684 L 46.4439,-20.3549 L 46.4192,-20.3408 L 46.3952,-20.3266 L 46.3725,-20.3128
 L 46.3518,-20.2999 L 46.3337,-20.2884 L 46.319,-20.2785 L 46.3084,-20.2706 L 46.3957,-20.1073 z
M 46.4691,-20.4645 L 46.4061,-20.4809 L 46.3521,-20.5131 L 46.306,-20.56 L 46.2666,-20.6206 L 46.24,-20.6841
 L 46.23,-20.7438 L 46.2372,-20.801 L 46.2616,-20.8572 L 46.3037,-20.9123 L 46.3636,-20.9666 L 46.4418,-21.0212
 L 46.5388,-21.0773 L 46.6427,-21.1281 L 46.7342,-21.1628 L 46.8143,-21.1817 L 46.8841,-21.185 L 46.9441,-21.1731
 L 46.9949,-21.1466 L 47.0379,-21.1055 L 47.0746,-21.05 L 47.1029,-20.9847 L 47.1169,-20.9219 L 47.115,-20.8606
 L 47.0959,-20.8002 L 47.0586,-20.7406 L 47.0023,-20.6818 L 46.9256,-20.6234 L 46.8273,-20.565 L 46.7197,-20.5134
 L 46.6249,-20.4801 L 46.5417,-20.4641 z
M 47.9309,-18.8816 L 48.017,-18.9332 L 48.0856,-18.9863 L 48.1364,-19.0415 L 48.1696,-19.0996 L 48.1856,-19.1611
 L 48.1847,-19.2267 L 48.1673,-19.2968 L 48.1338,-19.3721 L 48.0997,-19.4277 L 48.0622,-19.473 L 48.0215,-19.5092
 L 47.9776,-19.5377 L 47.9307,-19.5584 L 47.8808,-19.5714 L 47.8282,-19.578 L 47.7728,-19.5795 L 47.7712,-19.5824
 L 47.8393,-19.6662 L 47.8688,-19.756 L 47.8609,-19.8548 L 47.8166,-19.9655 L 47.7827,-20.0208 L 47.7458,-20.065
 L 47.706,-20.0995 L 47.6632,-20.1258 L 47.6175,-20.1443 L 47.5687,-20.1553 L 47.5168,-20.1605 L 47.4617,-20.1615
 L 47.4601,-20.1644 L 47.4812,-20.1759 L 47.5066,-20.1904 L 47.5338,-20.2063 L 47.5604,-20.2222 L 47.5852,-20.2372
 L 47.6071,-20.2502 L 47.6234,-20.2602 L 47.6317,-20.2658 L 47.5454,-20.4272 L 47.5353,-20.4206 L 47.517,-20.4096
 L 47.4925,-20.3953 L 47.4635,-20.3785 L 47.4311,-20.3602 L 47.3968,-20.3411 L 47.3622,-20.3221 L 47.3292,-20.3043
 L 46.5212,-19.8725 L 46.6121,-19.7025 L 47.2074,-20.0207 L 47.2821,-20.0553 L 47.3524,-20.0769 L 47.4178,-20.0859
 L 47.4775,-20.0827 L 47.5313,-20.0677 L 47.5791,-20.0412 L 47.6198,-20.0034 L 47.6527,-19.9548 L 47.6752,-19.9049
 L 47.6871,-19.8596 L 47.6872,-19.8178 L 47.6746,-19.7779 L 47.6491,-19.7397 L 47.6104,-19.7027 L 47.5578,-19.6654
 L 47.4902,-19.6263 L 46.8389,-19.2781 L 46.9292,-19.1091 L 47.5245,-19.4273 L 47.6008,-19.4627 L 47.672,-19.4848
 L 47.7376,-19.4939 L 47.7971,-19.4906 L 47.8503,-19.4753 L 47.8972,-19.4483 L 47.9372,-19.4102 L 47.9699,-19.3614
 L 47.9924,-19.3115 L 48.0043,-19.2663 L 48.0044,-19.2244 L 47.9918,-19.1845 L 47.9663,-19.1463 L 47.9276,-19.1093
 L 47.8749,-19.072 L 47.8074,-19.0329 L 47.1561,-18.6848 L 47.2464,-18.5158 z
M 47.9887,-17.6458 L 48.0607,-17.6752 L 48.1103,-17.7068 L 48.1491,-17.7427 L 48.1785,-17.782 L 48.1996,-17.824
 L 48.2133,-17.8684 L 48.22,-17.9148 L 48.2213,-17.9628 L 48.2184,-18.0116 L 48.2119,-18.0608 L 48.2024,-18.1099
 L 48.1914,-18.1583 L 48.1801,-18.2054 L 48.1633,-18.2724 L 48.1487,-18.3338 L 48.1382,-18.3894 L 48.134,-18.4389
 L 48.1373,-18.4825 L 48.1491,-18.5202 L 48.1717,-18.552 L 48.207,-18.5774 L 48.2766,-18.5969 L 48.3428,-18.5792
 L 48.4067,-18.523 L 48.4693,-18.4271 L 48.4904,-18.3833 L 48.5071,-18.3392 L 48.5181,-18.2959 L 48.5222,-18.2539
 L 48.5189,-18.2137 L 48.5079,-18.1755 L 48.4879,-18.1401 L 48.4577,-18.1084 L 48.5589,-17.9648 L 48.6488,-18.0706
 L 48.683,-18.194 L 48.665,-18.3356 L 48.5984,-18.4961 L 48.4898,-18.6551 L 48.3688,-18.7487 L 48.2383,-18.7756
 L 48.1012,-18.7345 L 48.0383,-18.6911 L 47.9958,-18.6391 L 47.9701,-18.5803 L 47.957,-18.5164 L 47.9552,-18.4488
 L 47.963,-18.3786 L 47.9766,-18.3075 L 47.9924,-18.2369 L 48.0092,-18.1639 L 48.0249,-18.0974 L 48.0363,-18.0374
 L 48.0407,-17.9844 L 48.0368,-17.9377 L 48.0233,-17.897 L 47.998,-17.8624 L 47.9586,-17.8343 L 47.9142,-17.8165
 L 47.8722,-17.8119 L 47.8326,-17.8193 L 47.7952,-17.8373 L 47.7599,-17.8653 L 47.7267,-17.9026 L 47.6952,-17.9479
 L 47.6651,-17.9997 L 47.6169,-18.113 L 47.602,-18.2101 L 47.6212,-18.2933 L 47.6749,-18.365 L 47.5648,-18.5002
 L 47.5099,-18.4427 L 47.4714,-18.3814 L 47.4483,-18.3164 L 47.4397,-18.2478 L 47.4447,-18.1753 L 47.4628,-18.0984
 L 47.4931,-18.0168 L 47.535,-17.9301 L 47.5904,-17.8388 L 47.6501,-17.764 L 47.7131,-17.706 L 47.7787,-17.6649
 L 47.8467,-17.641 L 47.917,-17.6345 z
M 11.8559,-17.6687 L 12.5503,-18.7081 L 12.5003,-18.7581 L 12.4503,-18.7081 L 11.7559,-17.6687 L 11.8059,-17.6187
 z
M 9.078,-13.5114 L 11.1614,-16.6294 L 11.1114,-16.6794 L 11.0614,-16.6294 L 8.97801,-13.5114 L 9.02802,-13.4614
 z
M 7.68909,-11.4327 L 8.38354,-12.472 L 8.33354,-12.522 L 8.28354,-12.472 L 7.58908,-11.4327 L 7.63908,-11.3827
 z
M 4.91122,-7.27534 L 6.99461,-10.3934 L 6.94463,-10.4434 L 6.89462,-10.3934 L 4.81123,-7.27534 L 4.86124,-7.22536
 z
M 3.52231,-5.19667 L 4.21677,-6.23601 L 4.16676,-6.28601 L 4.11678,-6.23601 L 3.4223,-5.19667 L 3.47231,-5.14668
 z
M 0.744461,-1.03932 L 2.82785,-4.15733 L 2.77785,-4.20734 L 2.72784,-4.15733 L 0.644455,-1.03932 L 0.694458,-0.989334
 z
M 5.04999,-0 L 5,-0.0499878 L 1.25,-0.0499878 L 1.2,-0 L 1.25,0.0499878 L 5,0.0499878
 z
M 12.55,-0 L 12.5,-0.0499878 L 8.75,-0.0499878 L 8.7,-0 L 8.75,0.0499878 L 12.5,0.0499878
 z
M 20.05,-0 L 20,-0.0499878 L 16.25,-0.0499878 L 16.2,-0 L 16.25,0.0499878 L 20,0.0499878
 z
M 35.05,-0 L 35,-0.0499878 L 31.25,-0.0499878 L 31.2,-0 L 31.25,0.0499878 L 35,0.0499878
 z
M 27.55,-0 L 27.5,-0.0499878 L 23.75,-0.0499878 L 23.7,-0 L 23.75,0.0499878 L 27.5,0.0499878
 z
M 42.55,-0 L 42.5,-0.0499878 L 38.75,-0.0499878 L 38.7,-0 L 38.75,0.0499878 L 42.5,0.0499878
 z
M 45.05,-0 L 45,-0.0499878 L 43.75,-0.0499878 L 43.7,-0 L 43.75,0.0499878 L 45,0.0499878
 z
M 37.55,-0 L 37.5,-0.0499878 L 36.25,-0.0499878 L 36.2,-0 L 36.25,0.0499878 L 37.5,0.0499878
 z
M 30.05,-0 L 30,-0.0499878 L 28.75,-0.0499878 L 28.7,-0 L 28.75,0.0499878 L 30,0.0499878
 z
M 22.55,-0 L 22.5,-0.0499878 L 21.25,-0.0499878 L 21.2,-0 L 21.25,0.0499878 L 22.5,0.0499878
 z
M 15.05,-0 L 15,-0.0499878 L 13.75,-0.0499878 L 13.7,-0 L 13.75,0.0499878 L 15,0.0499878
 z
M 7.54999,-0 L 7.5,-0.0499878 L 6.25,-0.0499878 L 6.2,-0 L 6.25,0.0499878 L 7.5,0.0499878
 z
" stroke="black" fill="lightgray" stroke-width="0.5"/>
</svg>
