<?xml version="1.0" encoding="UTF-8" standalone="no"?>
<!DOCTYPE svg PUBLIC "-//W3C//DTD SVG 1.1//EN"
 "http://www.w3.org/Graphics/SVG/1.1/DTD/svg11.dtd">
<!-- Generated by graphviz version 2.43.0 (0)
 -->
<!-- Title: omdl_architecture Pages: 1 -->
<svg width="239pt" height="496pt"
 viewBox="0.00 0.00 239.00 496.00" xmlns="http://www.w3.org/2000/svg" xmlns:xlink="http://www.w3.org/1999/xlink">
<g id="graph0" class="graph" transform="scale(1 1) rotate(0) translate(4 492)">
<title>omdl_architecture</title>
<polygon fill="white" stroke="transparent" points="-4,4 -4,-492 235,-492 235,4 -4,4"/>
<g id="clust1" class="cluster">
<title>cluster_layers</title>
<polygon fill="none" stroke="gray" stroke-dasharray="5,2" points="8,-8 8,-480 223,-480 223,-8 8,-8"/>
</g>
<g id="clust2" class="cluster">
<title>cluster_tools</title>
<polygon fill="none" stroke="gray" stroke-dasharray="5,2" points="16,-391 16,-472 215,-472 215,-391 16,-391"/>
<text text-anchor="middle" x="115.5" y="-458.4" font-family="Helvetica,sans-Serif" font-size="12.00">Tooling</text>
</g>
<!-- openscad_amu -->
<g id="node1" class="node">
<title>openscad_amu</title>
<g id="a_node1"><a xlink:href="https://royasutton.github.io/openscad-amu" target="_top" xlink:title="openscad&#45;amu">
<polygon fill="lightgrey" stroke="black" points="116.5,-439 27.5,-439 27.5,-403 116.5,-403 116.5,-439"/>
<polygon fill="none" stroke="black" points="120.5,-443 23.5,-443 23.5,-399 120.5,-399 120.5,-443"/>
<text text-anchor="middle" x="72" y="-418.5" font-family="Helvetica,sans-Serif" font-size="10.00">openscad&#45;amu</text>
</a>
</g>
</g>
<!-- assemblies -->
<g id="node3" class="node">
<title>assemblies</title>
<path fill="none" stroke="black" d="M63,-312.5C63,-312.5 167,-312.5 167,-312.5 173,-312.5 179,-318.5 179,-324.5 179,-324.5 179,-349.5 179,-349.5 179,-355.5 173,-361.5 167,-361.5 167,-361.5 63,-361.5 63,-361.5 57,-361.5 51,-355.5 51,-349.5 51,-349.5 51,-324.5 51,-324.5 51,-318.5 57,-312.5 63,-312.5"/>
<text text-anchor="middle" x="115" y="-349.5" font-family="Helvetica,sans-Serif" font-size="10.00">Assembly Layer</text>
<polyline fill="none" stroke="black" points="51,-342.5 179,-342.5 "/>
<text text-anchor="start" x="59" y="-330.5" font-family="Helvetica,sans-Serif" font-size="10.00">&#45; Design intent</text>
<text text-anchor="start" x="59" y="-319.5" font-family="Helvetica,sans-Serif" font-size="10.00"> &#45; Multi&#45;part constructs</text>
</g>
<!-- openscad_amu&#45;&gt;assemblies -->
<!-- doxygen -->
<g id="node2" class="node">
<title>doxygen</title>
<g id="a_node2"><a xlink:href="http://www.doxygen.nl" target="_top" xlink:title="Doxygen">
<polygon fill="lightgrey" stroke="black" points="203,-439 143,-439 143,-403 203,-403 203,-439"/>
<polygon fill="none" stroke="black" points="207,-443 139,-443 139,-399 207,-399 207,-443"/>
<text text-anchor="middle" x="173" y="-418.5" font-family="Helvetica,sans-Serif" font-size="10.00">Doxygen</text>
</a>
</g>
</g>
<!-- doxygen&#45;&gt;assemblies -->
<!-- features -->
<g id="node4" class="node">
<title>features</title>
<path fill="none" stroke="black" d="M54,-217.5C54,-217.5 176,-217.5 176,-217.5 182,-217.5 188,-223.5 188,-229.5 188,-229.5 188,-254.5 188,-254.5 188,-260.5 182,-266.5 176,-266.5 176,-266.5 54,-266.5 54,-266.5 48,-266.5 42,-260.5 42,-254.5 42,-254.5 42,-229.5 42,-229.5 42,-223.5 48,-217.5 54,-217.5"/>
<text text-anchor="middle" x="115" y="-254.5" font-family="Helvetica,sans-Serif" font-size="10.00">Mechanical Feature Layer</text>
<polyline fill="none" stroke="black" points="42,-247.5 188,-247.5 "/>
<text text-anchor="start" x="50" y="-235.5" font-family="Helvetica,sans-Serif" font-size="10.00">&#45; Components &amp; parts</text>
<text text-anchor="start" x="50" y="-224.5" font-family="Helvetica,sans-Serif" font-size="10.00"> &#45; Engineering conventions</text>
</g>
<!-- assemblies&#45;&gt;features -->
<g id="edge3" class="edge">
<title>assemblies&#45;&gt;features</title>
<path fill="none" stroke="black" d="M115,-312.05C115,-301.34 115,-288.52 115,-276.85"/>
<polygon fill="black" stroke="black" points="115,-266.55 119.5,-276.55 115,-271.55 115,-276.55 115,-276.55 115,-276.55 115,-271.55 110.5,-276.55 115,-266.55 115,-266.55"/>
<text text-anchor="middle" x="125" y="-287.6" font-family="Helvetica,sans-Serif" font-size="8.00">uses</text>
</g>
<!-- primitives -->
<g id="node5" class="node">
<title>primitives</title>
<path fill="none" stroke="black" d="M53,-122.5C53,-122.5 177,-122.5 177,-122.5 183,-122.5 189,-128.5 189,-134.5 189,-134.5 189,-159.5 189,-159.5 189,-165.5 183,-171.5 177,-171.5 177,-171.5 53,-171.5 53,-171.5 47,-171.5 41,-165.5 41,-159.5 41,-159.5 41,-134.5 41,-134.5 41,-128.5 47,-122.5 53,-122.5"/>
<text text-anchor="middle" x="115" y="-159.5" font-family="Helvetica,sans-Serif" font-size="10.00">Geometry Primitives Layer</text>
<polyline fill="none" stroke="black" points="41,-152.5 189,-152.5 "/>
<text text-anchor="start" x="49" y="-140.5" font-family="Helvetica,sans-Serif" font-size="10.00">&#45; Parametric solids</text>
<text text-anchor="start" x="49" y="-129.5" font-family="Helvetica,sans-Serif" font-size="10.00"> &#45; Structural profiles</text>
</g>
<!-- features&#45;&gt;primitives -->
<g id="edge4" class="edge">
<title>features&#45;&gt;primitives</title>
<path fill="none" stroke="black" d="M115,-217.05C115,-206.34 115,-193.52 115,-181.85"/>
<polygon fill="black" stroke="black" points="115,-171.55 119.5,-181.55 115,-176.55 115,-181.55 115,-181.55 115,-181.55 115,-176.55 110.5,-181.55 115,-171.55 115,-171.55"/>
<text text-anchor="middle" x="138" y="-192.6" font-family="Helvetica,sans-Serif" font-size="8.00">builds from</text>
</g>
<!-- core -->
<g id="node6" class="node">
<title>core</title>
<path fill="none" stroke="black" d="M34,-16.5C34,-16.5 196,-16.5 196,-16.5 202,-16.5 208,-22.5 208,-28.5 208,-28.5 208,-64.5 208,-64.5 208,-70.5 202,-76.5 196,-76.5 196,-76.5 34,-76.5 34,-76.5 28,-76.5 22,-70.5 22,-64.5 22,-64.5 22,-28.5 22,-28.5 22,-22.5 28,-16.5 34,-16.5"/>
<text text-anchor="middle" x="115" y="-64.5" font-family="Helvetica,sans-Serif" font-size="10.00">Core Utilities Layer</text>
<polyline fill="none" stroke="black" points="22,-57.5 208,-57.5 "/>
<text text-anchor="start" x="30" y="-45.5" font-family="Helvetica,sans-Serif" font-size="10.00">&#45; Configuration management</text>
<text text-anchor="start" x="30" y="-34.5" font-family="Helvetica,sans-Serif" font-size="10.00"> &#45; Computations &amp; transformations</text>
<text text-anchor="start" x="30" y="-23.5" font-family="Helvetica,sans-Serif" font-size="10.00"> &#45; Shared conventions &amp; constants</text>
</g>
<!-- primitives&#45;&gt;core -->
<g id="edge5" class="edge">
<title>primitives&#45;&gt;core</title>
<path fill="none" stroke="black" d="M115,-122.41C115,-111.75 115,-98.88 115,-86.83"/>
<polygon fill="black" stroke="black" points="115,-76.53 119.5,-86.53 115,-81.53 115,-86.53 115,-86.53 115,-86.53 115,-81.53 110.5,-86.53 115,-76.53 115,-76.53"/>
<text text-anchor="middle" x="139.5" y="-97.6" font-family="Helvetica,sans-Serif" font-size="8.00">depends on</text>
</g>
</g>
</svg>
