<?xml version="1.0" encoding="UTF-8" standalone="no"?>
<!DOCTYPE svg PUBLIC "-//W3C//DTD SVG 1.1//EN"
 "http://www.w3.org/Graphics/SVG/1.1/DTD/svg11.dtd">
<!-- Generated by graphviz version 2.43.0 (0)
 -->
<!-- Title: omdl logos Pages: 1 -->
<svg width="278pt" height="29pt"
 viewBox="0.00 0.00 278.00 28.50" xmlns="http://www.w3.org/2000/svg" xmlns:xlink="http://www.w3.org/1999/xlink">
<g id="graph0" class="graph" transform="scale(1 1) rotate(0) translate(4 24.5)">
<title>omdl logos</title>
<polygon fill="white" stroke="transparent" points="-4,4 -4,-24.5 274,-24.5 274,4 -4,4"/>
<!-- Node1 -->
<g id="node1" class="node">
<title>Node1</title>
<g id="a_node1"><a xlink:title="OpenSCAD mechanical design library logos.">
<polygon fill="#bfbfbf" stroke="black" points="71,-19 0,-19 0,0 71,0 71,-19"/>
<text text-anchor="middle" x="35.5" y="-7" font-family="Helvetica,sans-Serif" font-size="10.00">omdl logos</text>
</a>
</g>
</g>
<!-- Node2 -->
<g id="node2" class="node">
<title>Node2</title>
<g id="a_node2"><a xlink:href="group__models__3d__misc.html" target="_top" xlink:title="Miscellaneous auxiliary design models.">
<polygon fill="white" stroke="black" points="270,-19 184,-19 184,0 270,0 270,-19"/>
<text text-anchor="middle" x="227" y="-7" font-family="Helvetica,sans-Serif" font-size="10.00">Miscellaneous</text>
</a>
</g>
</g>
<!-- Node1&#45;&gt;Node2 -->
<g id="edge2" class="edge">
<title>Node1&#45;&gt;Node2</title>
<path fill="none" stroke="darkgreen" stroke-dasharray="5,2" d="M71.26,-9.5C102.99,-9.5 149.98,-9.5 183.84,-9.5"/>
<text text-anchor="middle" x="127.5" y="-12.5" font-family="Helvetica,sans-Serif" font-size="10.00">omdl_logo.scad</text>
</g>
<!-- Node2&#45;&gt;Node1 -->
<g id="edge1" class="edge">
<title>Node2&#45;&gt;Node1</title>
<path fill="none" stroke="black" d="M173.67,-7.65C171.07,-7.59 168.51,-7.54 166,-7.5 131.78,-6.93 123.22,-6.85 89,-7.5 83.25,-7.61 77.16,-7.79 71.23,-7.99"/>
<polygon fill="black" stroke="black" points="173.63,-11.15 183.72,-7.91 173.81,-4.16 173.63,-11.15"/>
</g>
</g>
</svg>
