<?xml version="1.0" encoding="UTF-8" standalone="no"?>
<!DOCTYPE svg PUBLIC "-//W3C//DTD SVG 1.1//EN"
 "http://www.w3.org/Graphics/SVG/1.1/DTD/svg11.dtd">
<!-- Generated by graphviz version 2.43.0 (0)
 -->
<!-- Title: mean Pages: 1 -->
<svg width="281pt" height="66pt"
 viewBox="0.00 0.00 281.00 66.00" xmlns="http://www.w3.org/2000/svg" xmlns:xlink="http://www.w3.org/1999/xlink">
<g id="graph0" class="graph" transform="scale(1 1) rotate(0) translate(4 62)">
<title>mean</title>
<polygon fill="white" stroke="transparent" points="-4,4 -4,-62 277,-62 277,4 -4,4"/>
<!-- Node1 -->
<g id="node1" class="node">
<title>Node1</title>
<g id="a_node1"><a xlink:title="Compute the mean/average of a list of numbers.">
<polygon fill="#bfbfbf" stroke="black" points="229,-19.5 229,-38.5 273,-38.5 273,-19.5 229,-19.5"/>
<text text-anchor="middle" x="251" y="-26.5" font-family="Helvetica,sans-Serif" font-size="10.00">mean</text>
</a>
</g>
</g>
<!-- Node2 -->
<g id="node2" class="node">
<title>Node2</title>
<g id="a_node2"><a xlink:href="group__transforms__align.html#gac695554e76def13eeb5a15a349f5fa12" target="_top" xlink:title="Align a line or vector to a reference line or vector.">
<polygon fill="white" stroke="black" points="116,-38.5 116,-57.5 168,-57.5 168,-38.5 116,-38.5"/>
<text text-anchor="middle" x="142" y="-45.5" font-family="Helvetica,sans-Serif" font-size="10.00">align_ll</text>
</a>
</g>
</g>
<!-- Node1&#45;&gt;Node2 -->
<g id="edge1" class="edge">
<title>Node1&#45;&gt;Node2</title>
<path fill="none" stroke="midnightblue" d="M218.84,-34.53C202.75,-37.39 183.38,-40.83 168.24,-43.52"/>
<polygon fill="midnightblue" stroke="midnightblue" points="219.63,-37.95 228.86,-32.75 218.4,-31.06 219.63,-37.95"/>
</g>
<!-- Node4 -->
<g id="node4" class="node">
<title>Node4</title>
<g id="a_node4"><a xlink:href="group__tools__common__polytope.html#ga00b574079f19251be7281151d11db8fa" target="_top" xlink:title="Label the vertices, paths, and edges of a polytope.">
<polygon fill="white" stroke="black" points="91,-0.5 91,-19.5 193,-19.5 193,-0.5 91,-0.5"/>
<text text-anchor="middle" x="142" y="-7.5" font-family="Helvetica,sans-Serif" font-size="10.00">polytope_number</text>
</a>
</g>
</g>
<!-- Node1&#45;&gt;Node4 -->
<g id="edge3" class="edge">
<title>Node1&#45;&gt;Node4</title>
<path fill="none" stroke="midnightblue" d="M218.88,-23.47C210.87,-22.05 202.05,-20.49 193.34,-18.94"/>
<polygon fill="midnightblue" stroke="midnightblue" points="218.4,-26.94 228.86,-25.25 219.63,-20.05 218.4,-26.94"/>
</g>
<!-- Node3 -->
<g id="node3" class="node">
<title>Node3</title>
<g id="a_node3"><a xlink:href="group__transforms__align.html#ga8a1b75b5a53478f7ce1ca287cc479364" target="_top" xlink:title="Align an objects Cartesian axis to reference line or vector.">
<polygon fill="white" stroke="black" points="0,-38.5 0,-57.5 55,-57.5 55,-38.5 0,-38.5"/>
<text text-anchor="middle" x="27.5" y="-45.5" font-family="Helvetica,sans-Serif" font-size="10.00">align_al</text>
</a>
</g>
</g>
<!-- Node2&#45;&gt;Node3 -->
<g id="edge2" class="edge">
<title>Node2&#45;&gt;Node3</title>
<path fill="none" stroke="midnightblue" d="M105.52,-48C89.24,-48 70.27,-48 55.23,-48"/>
<polygon fill="midnightblue" stroke="midnightblue" points="105.75,-51.5 115.75,-48 105.75,-44.5 105.75,-51.5"/>
</g>
</g>
</svg>
