<?xml version="1.0" encoding="UTF-8" standalone="no"?>
<!DOCTYPE svg PUBLIC "-//W3C//DTD SVG 1.1//EN"
 "http://www.w3.org/Graphics/SVG/1.1/DTD/svg11.dtd">
<!-- Generated by graphviz version 2.43.0 (0)
 -->
<!-- Title: Washers Pages: 1 -->
<svg width="247pt" height="175pt"
 viewBox="0.00 0.00 247.00 175.00" xmlns="http://www.w3.org/2000/svg" xmlns:xlink="http://www.w3.org/1999/xlink">
<g id="graph0" class="graph" transform="scale(1 1) rotate(0) translate(4 171)">
<title>Washers</title>
<polygon fill="white" stroke="transparent" points="-4,4 -4,-171 243,-171 243,4 -4,4"/>
<!-- Node1 -->
<g id="node1" class="node">
<title>Node1</title>
<g id="a_node1"><a xlink:title=" ">
<polygon fill="#bfbfbf" stroke="black" points="141,-93 83,-93 83,-74 141,-74 141,-93"/>
<text text-anchor="middle" x="112" y="-81" font-family="Helvetica,sans-Serif" font-size="10.00">Washers</text>
</a>
</g>
</g>
<!-- Node4 -->
<g id="node2" class="node">
<title>Node4</title>
<g id="a_node2"><a xlink:href="group__database__component__fastener__iso__7089.html" target="_top" xlink:title="[metric/washers] Standard flat washer; ISO 7089; DIN 125 A.">
<polygon fill="white" stroke="black" points="238,-167 178,-167 178,-148 238,-148 238,-167"/>
<text text-anchor="middle" x="208" y="-155" font-family="Helvetica,sans-Serif" font-size="10.00">ISO 7089</text>
</a>
</g>
</g>
<!-- Node1&#45;&gt;Node4 -->
<g id="edge3" class="edge">
<title>Node1&#45;&gt;Node4</title>
<path fill="none" stroke="black" d="M130.37,-100.21C142.86,-111.84 160.36,-127.38 177,-139.5 181.03,-142.43 185.55,-145.33 189.84,-147.92"/>
<polygon fill="black" stroke="black" points="132.62,-97.53 122.95,-93.21 127.82,-102.62 132.62,-97.53"/>
</g>
<!-- Node5 -->
<g id="node3" class="node">
<title>Node5</title>
<g id="a_node3"><a xlink:href="group__database__component__fastener__iso__7091.html" target="_top" xlink:title="[metric/washers] Standard flat washer, wider inner diameter; ISO 7091; DIN 126.">
<polygon fill="white" stroke="black" points="238,-130 178,-130 178,-111 238,-111 238,-130"/>
<text text-anchor="middle" x="208" y="-118" font-family="Helvetica,sans-Serif" font-size="10.00">ISO 7091</text>
</a>
</g>
</g>
<!-- Node1&#45;&gt;Node5 -->
<g id="edge4" class="edge">
<title>Node1&#45;&gt;Node5</title>
<path fill="none" stroke="black" d="M146.78,-96.8C158.6,-101.45 171.64,-106.58 182.55,-110.88"/>
<polygon fill="black" stroke="black" points="147.79,-93.43 137.21,-93.03 145.23,-99.95 147.79,-93.43"/>
</g>
<!-- Node6 -->
<g id="node4" class="node">
<title>Node6</title>
<g id="a_node4"><a xlink:href="group__database__component__fastener__iso__7092.html" target="_top" xlink:title="[metric/washers] Standard flat washer, small outer diameter; ISO 7092; DIN 433.">
<polygon fill="white" stroke="black" points="238,-93 178,-93 178,-74 238,-74 238,-93"/>
<text text-anchor="middle" x="208" y="-81" font-family="Helvetica,sans-Serif" font-size="10.00">ISO 7092</text>
</a>
</g>
</g>
<!-- Node1&#45;&gt;Node6 -->
<g id="edge5" class="edge">
<title>Node1&#45;&gt;Node6</title>
<path fill="none" stroke="black" d="M151.32,-83.5C160.17,-83.5 169.45,-83.5 177.84,-83.5"/>
<polygon fill="black" stroke="black" points="151.2,-80 141.2,-83.5 151.2,-87 151.2,-80"/>
</g>
<!-- Node7 -->
<g id="node5" class="node">
<title>Node7</title>
<g id="a_node5"><a xlink:href="group__database__component__fastener__iso__7093.html" target="_top" xlink:title="[metric/washers] Standard flat washer, wider outer diameter; ISO 7093; DIN 9021.">
<polygon fill="white" stroke="black" points="238,-56 178,-56 178,-37 238,-37 238,-56"/>
<text text-anchor="middle" x="208" y="-44" font-family="Helvetica,sans-Serif" font-size="10.00">ISO 7093</text>
</a>
</g>
</g>
<!-- Node1&#45;&gt;Node7 -->
<g id="edge6" class="edge">
<title>Node1&#45;&gt;Node7</title>
<path fill="none" stroke="black" d="M146.78,-70.2C158.6,-65.55 171.64,-60.42 182.55,-56.12"/>
<polygon fill="black" stroke="black" points="145.23,-67.05 137.21,-73.97 147.79,-73.57 145.23,-67.05"/>
</g>
<!-- Node3 -->
<g id="node7" class="node">
<title>Node3</title>
<g id="a_node7"><a xlink:href="group__database__component__fastener__din__125a.html" target="_top" xlink:title="[metric/washers] Flat washers; DIN 125A; ISO 7089.">
<polygon fill="white" stroke="black" points="239,-19 177,-19 177,0 239,0 239,-19"/>
<text text-anchor="middle" x="208" y="-7" font-family="Helvetica,sans-Serif" font-size="10.00">DIN 125A</text>
</a>
</g>
</g>
<!-- Node1&#45;&gt;Node3 -->
<g id="edge2" class="edge">
<title>Node1&#45;&gt;Node3</title>
<path fill="none" stroke="black" d="M130.37,-66.79C142.86,-55.16 160.36,-39.62 177,-27.5 181.03,-24.57 185.55,-21.67 189.84,-19.08"/>
<polygon fill="black" stroke="black" points="127.82,-64.38 122.95,-73.79 132.62,-69.47 127.82,-64.38"/>
</g>
<!-- Node2 -->
<g id="node6" class="node">
<title>Node2</title>
<g id="a_node6"><a xlink:href="group__database__component__fastener__Metric.html" target="_top" xlink:title=" ">
<polygon fill="white" stroke="black" points="47,-93 0,-93 0,-74 47,-74 47,-93"/>
<text text-anchor="middle" x="23.5" y="-81" font-family="Helvetica,sans-Serif" font-size="10.00">Metric</text>
</a>
</g>
</g>
<!-- Node2&#45;&gt;Node1 -->
<g id="edge1" class="edge">
<title>Node2&#45;&gt;Node1</title>
<path fill="none" stroke="black" d="M57.44,-83.5C65.82,-83.5 74.75,-83.5 82.86,-83.5"/>
<polygon fill="black" stroke="black" points="57.23,-80 47.23,-83.5 57.23,-87 57.23,-80"/>
</g>
</g>
</svg>
