<?xml version="1.0" encoding="UTF-8" standalone="no"?>
<!DOCTYPE svg PUBLIC "-//W3C//DTD SVG 1.1//EN"
 "http://www.w3.org/Graphics/SVG/1.1/DTD/svg11.dtd">
<!-- Generated by graphviz version 2.43.0 (0)
 -->
<!-- Title: Base cs Pages: 1 -->
<svg width="234pt" height="29pt"
 viewBox="0.00 0.00 234.00 28.50" xmlns="http://www.w3.org/2000/svg" xmlns:xlink="http://www.w3.org/1999/xlink">
<g id="graph0" class="graph" transform="scale(1 1) rotate(0) translate(4 24.5)">
<title>Base cs</title>
<polygon fill="white" stroke="transparent" points="-4,4 -4,-24.5 230,-24.5 230,4 -4,4"/>
<!-- Node1 -->
<g id="node1" class="node">
<title>Node1</title>
<g id="a_node1"><a xlink:title="Conditional version of base transformations.">
<polygon fill="#bfbfbf" stroke="black" points="54,-19 0,-19 0,0 54,0 54,-19"/>
<text text-anchor="middle" x="27" y="-7" font-family="Helvetica,sans-Serif" font-size="10.00">Base cs</text>
</a>
</g>
</g>
<!-- Node2 -->
<g id="node2" class="node">
<title>Node2</title>
<g id="a_node2"><a xlink:href="group__transforms.html" target="_top" xlink:title="Geometric transformation and shape replication.">
<polygon fill="white" stroke="black" points="226,-19 155,-19 155,0 226,0 226,-19"/>
<text text-anchor="middle" x="190.5" y="-7" font-family="Helvetica,sans-Serif" font-size="10.00">Transforms</text>
</a>
</g>
</g>
<!-- Node1&#45;&gt;Node2 -->
<g id="edge2" class="edge">
<title>Node1&#45;&gt;Node2</title>
<path fill="none" stroke="darkgreen" stroke-dasharray="5,2" d="M54.31,-9.5C81.66,-9.5 124.61,-9.5 154.74,-9.5"/>
<text text-anchor="middle" x="104.5" y="-12.5" font-family="Helvetica,sans-Serif" font-size="10.00">base_cs.scad</text>
</g>
<!-- Node2&#45;&gt;Node1 -->
<g id="edge1" class="edge">
<title>Node2&#45;&gt;Node1</title>
<path fill="none" stroke="black" d="M144.7,-7.68C142.09,-7.61 139.51,-7.55 137,-7.5 108.12,-6.95 100.88,-6.84 72,-7.5 66.19,-7.63 59.95,-7.86 54.05,-8.12"/>
<polygon fill="black" stroke="black" points="144.67,-11.18 154.77,-7.99 144.88,-4.18 144.67,-11.18"/>
</g>
</g>
</svg>
