<?xml version="1.0" encoding="UTF-8" standalone="no"?>
<!DOCTYPE svg PUBLIC "-//W3C//DTD SVG 1.1//EN"
 "http://www.w3.org/Graphics/SVG/1.1/DTD/svg11.dtd">
<!-- Generated by graphviz version 2.43.0 (0)
 -->
<!-- Title: defined_eon_or Pages: 1 -->
<svg width="608pt" height="492pt"
 viewBox="0.00 0.00 608.00 491.86" xmlns="http://www.w3.org/2000/svg" xmlns:xlink="http://www.w3.org/1999/xlink">
<g id="graph0" class="graph" transform="scale(1 1) rotate(0) translate(4 487.86)">
<title>defined_eon_or</title>
<polygon fill="white" stroke="transparent" points="-4,4 -4,-487.86 604,-487.86 604,4 -4,4"/>
<!-- Node1 -->
<g id="node1" class="node">
<title>Node1</title>
<g id="a_node1"><a xlink:title="Returns the list element or scalar numeric value if defined, otherwise returns the default value.">
<polygon fill="#bfbfbf" stroke="black" points="509,-273.95 509,-292.95 600,-292.95 600,-273.95 509,-273.95"/>
<text text-anchor="middle" x="554.5" y="-280.95" font-family="Helvetica,sans-Serif" font-size="10.00">defined_eon_or</text>
</a>
</g>
</g>
<!-- Node2 -->
<g id="node2" class="node">
<title>Node2</title>
<g id="a_node2"><a xlink:href="group__parts__2d__enclosure__box__finger__joint.html#gacc1bfb220bc3cfed46dcaa3b84898020" target="_top" xlink:title="Generate a 2D box design using screw&#45;based finger joint (box&#45;joint).">
<polygon fill="white" stroke="black" points="173,-7.95 173,-26.95 280,-26.95 280,-7.95 173,-7.95"/>
<text text-anchor="middle" x="226.5" y="-14.95" font-family="Helvetica,sans-Serif" font-size="10.00">box2d_finger_joint</text>
</a>
</g>
</g>
<!-- Node1&#45;&gt;Node2 -->
<g id="edge1" class="edge">
<title>Node1&#45;&gt;Node2</title>
<path fill="none" stroke="midnightblue" d="M553.83,-263.53C553.44,-215.5 545.05,-93.12 473,-36.45 414.54,9.53 322.13,1.78 268.93,-7.9"/>
<polygon fill="midnightblue" stroke="midnightblue" points="550.33,-263.8 553.8,-273.81 557.33,-263.82 550.33,-263.8"/>
</g>
<!-- Node3 -->
<g id="node3" class="node">
<title>Node3</title>
<g id="a_node3"><a xlink:href="group__parts__3d__fastener__hinges.html#ga1ffc82e0bbac466d1dc4fbe6c214b765" target="_top" xlink:title="A print&#45;in&#45;place bi&#45;fold hinge generator.">
<polygon fill="white" stroke="black" points="33.5,-358.95 33.5,-377.95 92.5,-377.95 92.5,-358.95 33.5,-358.95"/>
<text text-anchor="middle" x="63" y="-365.95" font-family="Helvetica,sans-Serif" font-size="10.00">hinge_bf</text>
</a>
</g>
</g>
<!-- Node1&#45;&gt;Node3 -->
<g id="edge2" class="edge">
<title>Node1&#45;&gt;Node3</title>
<path fill="none" stroke="midnightblue" d="M550.99,-303.24C545.08,-340.54 526.48,-420.52 473,-454.45 338.21,-539.98 133.03,-414.99 77.99,-378.15"/>
<polygon fill="midnightblue" stroke="midnightblue" points="554.49,-303.53 552.44,-293.14 547.56,-302.54 554.49,-303.53"/>
</g>
<!-- Node4 -->
<g id="node4" class="node">
<title>Node4</title>
<g id="a_node4"><a xlink:href="group__parts__3d__fastener__hinges.html#ga7e350f2c55116094108b99dd8103fc04" target="_top" xlink:title="A print&#45;in&#45;place single&#45;fold hinge generator.">
<polygon fill="white" stroke="black" points="197.5,-349.95 197.5,-368.95 255.5,-368.95 255.5,-349.95 197.5,-349.95"/>
<text text-anchor="middle" x="226.5" y="-356.95" font-family="Helvetica,sans-Serif" font-size="10.00">hinge_sf</text>
</a>
</g>
</g>
<!-- Node1&#45;&gt;Node4 -->
<g id="edge3" class="edge">
<title>Node1&#45;&gt;Node4</title>
<path fill="none" stroke="midnightblue" d="M534.21,-299.71C518.72,-311.79 495.85,-327.49 473,-335.45 397.79,-361.68 302.27,-362.46 255.66,-360.93"/>
<polygon fill="midnightblue" stroke="midnightblue" points="536.83,-302.1 542.43,-293.11 532.44,-296.65 536.83,-302.1"/>
</g>
<!-- Node5 -->
<g id="node5" class="node">
<title>Node5</title>
<g id="a_node5"><a xlink:href="group__parts__3d__fastener__mounts.html#ga0cbac43259ec43fff7785057277bcef3" target="_top" xlink:title="A screw mount post with screw bore and optional fins.">
<polygon fill="white" stroke="black" points="172.5,-387.95 172.5,-406.95 280.5,-406.95 280.5,-387.95 172.5,-387.95"/>
<text text-anchor="middle" x="226.5" y="-394.95" font-family="Helvetica,sans-Serif" font-size="10.00">mount_screw_post</text>
</a>
</g>
</g>
<!-- Node1&#45;&gt;Node5 -->
<g id="edge5" class="edge">
<title>Node1&#45;&gt;Node5</title>
<path fill="none" stroke="midnightblue" d="M540.69,-301.21C526.4,-319.55 501.51,-347.42 473,-361.45 411.75,-391.62 332.23,-398.23 280.55,-398.89"/>
<polygon fill="midnightblue" stroke="midnightblue" points="543.6,-303.17 546.82,-293.08 538.01,-298.95 543.6,-303.17"/>
</g>
<!-- Node6 -->
<g id="node6" class="node">
<title>Node6</title>
<g id="a_node6"><a xlink:href="group__parts__3d__fastener__mounts.html#ga1a26f176e04863a2bf335960a52b39a8" target="_top" xlink:title="A screw mount slot with optional cover envelope.">
<polygon fill="white" stroke="black" points="174,-273.95 174,-292.95 279,-292.95 279,-273.95 174,-273.95"/>
<text text-anchor="middle" x="226.5" y="-280.95" font-family="Helvetica,sans-Serif" font-size="10.00">mount_screw_slot</text>
</a>
</g>
</g>
<!-- Node1&#45;&gt;Node6 -->
<g id="edge6" class="edge">
<title>Node1&#45;&gt;Node6</title>
<path fill="none" stroke="midnightblue" d="M498.61,-283.45C437.36,-283.45 339.02,-283.45 279.12,-283.45"/>
<polygon fill="midnightblue" stroke="midnightblue" points="498.85,-286.95 508.85,-283.45 498.85,-279.95 498.85,-286.95"/>
</g>
<!-- Node7 -->
<g id="node7" class="node">
<title>Node7</title>
<g id="a_node7"><a xlink:href="group__parts__3d__fastener__mounts.html#gabc7cd409ab1e2e4b6b894de3cf06658f" target="_top" xlink:title="A multi&#45;directional screw mount slot with optional cover envelope.">
<polygon fill="white" stroke="black" points="0,-301.95 0,-320.95 126,-320.95 126,-301.95 0,-301.95"/>
<text text-anchor="middle" x="63" y="-308.95" font-family="Helvetica,sans-Serif" font-size="10.00">mount_screw_slot_md</text>
</a>
</g>
</g>
<!-- Node1&#45;&gt;Node7 -->
<g id="edge9" class="edge">
<title>Node1&#45;&gt;Node7</title>
<path fill="none" stroke="midnightblue" d="M498.93,-293.99C490.28,-295.36 481.42,-296.58 473,-297.45 350.56,-310.13 206.52,-312.06 126.2,-311.99"/>
<polygon fill="midnightblue" stroke="midnightblue" points="499.65,-297.42 508.94,-292.33 498.51,-290.51 499.65,-297.42"/>
</g>
<!-- Node9 -->
<g id="node9" class="node">
<title>Node9</title>
<g id="a_node9"><a xlink:href="group__parts__3d__enclosure__project__box__rectangle.html#ga24cdfe5fd4bb74b75409d9afdbe1f0c0" target="_top" xlink:title="A rectangular box maker for project boxes, enclosures and housings.">
<polygon fill="white" stroke="black" points="164,-45.95 164,-64.95 289,-64.95 289,-45.95 164,-45.95"/>
<text text-anchor="middle" x="226.5" y="-52.95" font-family="Helvetica,sans-Serif" font-size="10.00">project_box_rectangle</text>
</a>
</g>
</g>
<!-- Node1&#45;&gt;Node9 -->
<g id="edge10" class="edge">
<title>Node1&#45;&gt;Node9</title>
<path fill="none" stroke="midnightblue" d="M532,-267.88C515.87,-256.29 493.2,-240.17 473,-226.45 408.95,-182.97 381.37,-186.56 327,-131.45 305.96,-110.12 314.87,-92.57 291,-74.45 285.87,-70.56 279.94,-67.46 273.81,-64.99"/>
<polygon fill="midnightblue" stroke="midnightblue" points="530.06,-270.8 540.22,-273.81 534.16,-265.12 530.06,-270.8"/>
</g>
<!-- Node11 -->
<g id="node11" class="node">
<title>Node11</title>
<g id="a_node11"><a xlink:href="group__models__3d__fastener__screws.html#ga57dcfe1241e15eaa58ccd08891504a93" target="_top" xlink:title="Flat and beveled&#45;head fastener bore with nut, nut slot, and bore tolerance.">
<polygon fill="white" stroke="black" points="364,-235.95 364,-254.95 436,-254.95 436,-235.95 364,-235.95"/>
<text text-anchor="middle" x="400" y="-242.95" font-family="Helvetica,sans-Serif" font-size="10.00">screw_bore</text>
</a>
</g>
</g>
<!-- Node1&#45;&gt;Node11 -->
<g id="edge13" class="edge">
<title>Node1&#45;&gt;Node11</title>
<path fill="none" stroke="midnightblue" d="M505.02,-271.37C482.63,-265.79 456.53,-259.29 436.08,-254.19"/>
<polygon fill="midnightblue" stroke="midnightblue" points="504.47,-274.84 515.02,-273.86 506.16,-268.05 504.47,-274.84"/>
</g>
<!-- Node16 -->
<g id="node16" class="node">
<title>Node16</title>
<g id="a_node16"><a xlink:href="group__models__3d__fastener__screws.html#gaad990187680f7ac947e555483d854bfa" target="_top" xlink:title="Gapped fastener bore with engagement cylinders for self&#45;forming threads.">
<polygon fill="white" stroke="black" points="355,-425.95 355,-444.95 445,-444.95 445,-425.95 355,-425.95"/>
<text text-anchor="middle" x="400" y="-432.95" font-family="Helvetica,sans-Serif" font-size="10.00">screw_bore_tsf</text>
</a>
</g>
</g>
<!-- Node1&#45;&gt;Node16 -->
<g id="edge25" class="edge">
<title>Node1&#45;&gt;Node16</title>
<path fill="none" stroke="midnightblue" d="M546.42,-302.47C535.11,-330.34 510.35,-382.13 473,-411.45 464.92,-417.8 455.07,-422.51 445.3,-425.98"/>
<polygon fill="midnightblue" stroke="midnightblue" points="549.72,-303.65 550.1,-293.06 543.2,-301.1 549.72,-303.65"/>
</g>
<!-- Node17 -->
<g id="node17" class="node">
<title>Node17</title>
<g id="a_node17"><a xlink:href="group__shapes__select__common__2d.html#gadde46fda315aab438eda3f752fec2aed" target="_top" xlink:title="Select configure and construct one of the available 2d shapes.">
<polygon fill="white" stroke="black" points="327,-45.95 327,-64.95 473,-64.95 473,-45.95 327,-45.95"/>
<text text-anchor="middle" x="400" y="-52.95" font-family="Helvetica,sans-Serif" font-size="10.00">select_common_2d_shape</text>
</a>
</g>
</g>
<!-- Node1&#45;&gt;Node17 -->
<g id="edge27" class="edge">
<title>Node1&#45;&gt;Node17</title>
<path fill="none" stroke="midnightblue" d="M549.78,-263.87C541.78,-226.53 519.78,-144.38 473,-93.45 461.14,-80.55 443.88,-71.23 429.23,-65.05"/>
<polygon fill="midnightblue" stroke="midnightblue" points="546.4,-264.83 551.82,-273.93 553.26,-263.43 546.4,-264.83"/>
</g>
<!-- Node18 -->
<g id="node18" class="node">
<title>Node18</title>
<g id="a_node18"><a xlink:href="group__shapes__select__common__3d.html#ga3fd7f214eff2f5935ad1bb56415a4aaf" target="_top" xlink:title="Select configure and construct one of the available 3d shapes.">
<polygon fill="white" stroke="black" points="327,-102.95 327,-121.95 473,-121.95 473,-102.95 327,-102.95"/>
<text text-anchor="middle" x="400" y="-109.95" font-family="Helvetica,sans-Serif" font-size="10.00">select_common_3d_shape</text>
</a>
</g>
</g>
<!-- Node1&#45;&gt;Node18 -->
<g id="edge30" class="edge">
<title>Node1&#45;&gt;Node18</title>
<path fill="none" stroke="midnightblue" d="M541.95,-265.33C527.24,-242.9 500.44,-204.03 473,-174.45 454.04,-154.02 428.73,-133.54 413.72,-121.99"/>
<polygon fill="midnightblue" stroke="midnightblue" points="539.1,-267.38 547.48,-273.87 544.98,-263.57 539.1,-267.38"/>
</g>
<!-- Node4&#45;&gt;Node3 -->
<g id="edge4" class="edge">
<title>Node4&#45;&gt;Node3</title>
<path fill="none" stroke="midnightblue" d="M187.18,-361.59C158.17,-363.21 118.94,-365.39 92.62,-366.86"/>
<polygon fill="midnightblue" stroke="midnightblue" points="187.58,-365.07 197.37,-361.02 187.19,-358.08 187.58,-365.07"/>
</g>
<!-- Node6&#45;&gt;Node7 -->
<g id="edge7" class="edge">
<title>Node6&#45;&gt;Node7</title>
<path fill="none" stroke="midnightblue" d="M163.89,-294.13C149.11,-296.7 133.42,-299.42 118.96,-301.93"/>
<polygon fill="midnightblue" stroke="midnightblue" points="164.7,-297.55 173.96,-292.39 163.51,-290.65 164.7,-297.55"/>
</g>
<!-- Node8 -->
<g id="node8" class="node">
<title>Node8</title>
<g id="a_node8"><a xlink:href="group__parts__3d__enclosure__power__strip.html#ga33509a1811b27fe7f3687957d4d32460" target="_top" xlink:title="A power strip generator for single gang electrical receptacles.">
<polygon fill="white" stroke="black" points="18,-121.95 18,-140.95 108,-140.95 108,-121.95 18,-121.95"/>
<text text-anchor="middle" x="63" y="-128.95" font-family="Helvetica,sans-Serif" font-size="10.00">power_strip_sg</text>
</a>
</g>
</g>
<!-- Node6&#45;&gt;Node8 -->
<g id="edge8" class="edge">
<title>Node6&#45;&gt;Node8</title>
<path fill="none" stroke="midnightblue" d="M170.7,-269.66C167.65,-268.1 164.73,-266.37 162,-264.45 113.92,-230.61 80,-165.68 68.39,-141.16"/>
<polygon fill="midnightblue" stroke="midnightblue" points="169.54,-272.97 180.1,-273.83 172.38,-266.58 169.54,-272.97"/>
</g>
<!-- Node9&#45;&gt;Node8 -->
<g id="edge12" class="edge">
<title>Node9&#45;&gt;Node8</title>
<path fill="none" stroke="midnightblue" d="M178.78,-68.05C173.06,-70 167.34,-72.14 162,-74.45 145.47,-81.61 102.5,-107.66 79.33,-121.94"/>
<polygon fill="midnightblue" stroke="midnightblue" points="179.93,-71.36 188.37,-64.96 177.78,-64.7 179.93,-71.36"/>
</g>
<!-- Node10 -->
<g id="node10" class="node">
<title>Node10</title>
<g id="a_node10"><a xlink:href="group__parts__3d__computer__pcie__expansion.html#gab6fb1c9f8f6550633467f4ec0bd3f983" target="_top" xlink:title="Generate a PCI Express expansion open chassis or closed enclosure.">
<polygon fill="white" stroke="black" points="17,-64.95 17,-83.95 109,-83.95 109,-64.95 17,-64.95"/>
<text text-anchor="middle" x="63" y="-71.95" font-family="Helvetica,sans-Serif" font-size="10.00">pcie_expansion</text>
</a>
</g>
</g>
<!-- Node9&#45;&gt;Node10 -->
<g id="edge11" class="edge">
<title>Node9&#45;&gt;Node10</title>
<path fill="none" stroke="midnightblue" d="M153.63,-63.91C138.55,-65.68 123.05,-67.51 109.27,-69.13"/>
<polygon fill="midnightblue" stroke="midnightblue" points="154.46,-67.34 163.98,-62.69 153.64,-60.38 154.46,-67.34"/>
</g>
<!-- Node11&#45;&gt;Node4 -->
<g id="edge18" class="edge">
<title>Node11&#45;&gt;Node4</title>
<path fill="none" stroke="midnightblue" d="M376.33,-260.52C340.59,-284.28 272.11,-329.8 242.15,-349.72"/>
<polygon fill="midnightblue" stroke="midnightblue" points="378.28,-263.43 384.67,-254.98 374.41,-257.6 378.28,-263.43"/>
</g>
<!-- Node11&#45;&gt;Node5 -->
<g id="edge20" class="edge">
<title>Node11&#45;&gt;Node5</title>
<path fill="none" stroke="midnightblue" d="M388.8,-264.17C372.14,-293 336.33,-348.12 291,-378.45 285.26,-382.29 278.73,-385.38 272.08,-387.85"/>
<polygon fill="midnightblue" stroke="midnightblue" points="392.02,-265.58 393.88,-255.15 385.92,-262.14 392.02,-265.58"/>
</g>
<!-- Node11&#45;&gt;Node6 -->
<g id="edge21" class="edge">
<title>Node11&#45;&gt;Node6</title>
<path fill="none" stroke="midnightblue" d="M353.97,-255.43C328.16,-261.15 295.94,-268.29 270.48,-273.93"/>
<polygon fill="midnightblue" stroke="midnightblue" points="354.87,-258.82 363.88,-253.24 353.36,-251.98 354.87,-258.82"/>
</g>
<!-- Node11&#45;&gt;Node8 -->
<g id="edge24" class="edge">
<title>Node11&#45;&gt;Node8</title>
<path fill="none" stroke="midnightblue" d="M353.99,-238.65C305.41,-230.38 226.36,-214.26 162,-188.45 130.03,-175.63 95.97,-153.7 77.62,-141.11"/>
<polygon fill="midnightblue" stroke="midnightblue" points="353.44,-242.1 363.88,-240.29 354.59,-235.2 353.44,-242.1"/>
</g>
<!-- Node12 -->
<g id="node12" class="node">
<title>Node12</title>
<g id="a_node12"><a xlink:href="group__parts__3d__fastener__catch__latch.html#ga26a9933aa6d33599daab1be8d632c430" target="_top" xlink:title="A catch latch generator with configurable profile.">
<polygon fill="white" stroke="black" points="190.5,-159.95 190.5,-178.95 262.5,-178.95 262.5,-159.95 190.5,-159.95"/>
<text text-anchor="middle" x="226.5" y="-166.95" font-family="Helvetica,sans-Serif" font-size="10.00">catch_latch</text>
</a>
</g>
</g>
<!-- Node11&#45;&gt;Node12 -->
<g id="edge14" class="edge">
<title>Node11&#45;&gt;Node12</title>
<path fill="none" stroke="midnightblue" d="M371.55,-231.42C349.9,-220.55 318.82,-205.38 291,-193.45 279.08,-188.35 265.69,-183.2 254.28,-178.98"/>
<polygon fill="midnightblue" stroke="midnightblue" points="369.99,-234.55 380.5,-235.93 373.15,-228.3 369.99,-234.55"/>
</g>
<!-- Node13 -->
<g id="node13" class="node">
<title>Node13</title>
<g id="a_node13"><a xlink:href="group__parts__3d__fastener__clamps.html#gad5d667c41776480785c62759c61a137e" target="_top" xlink:title="A clamp, bushing, and/or grip for wire, hose, and/or pipe wall penetrations.">
<polygon fill="white" stroke="black" points="195,-83.95 195,-102.95 258,-102.95 258,-83.95 195,-83.95"/>
<text text-anchor="middle" x="226.5" y="-90.95" font-family="Helvetica,sans-Serif" font-size="10.00">clamp_cg</text>
</a>
</g>
</g>
<!-- Node11&#45;&gt;Node13 -->
<g id="edge15" class="edge">
<title>Node11&#45;&gt;Node13</title>
<path fill="none" stroke="midnightblue" d="M365.78,-231.43C352.29,-224.38 337.44,-214.69 327,-202.45 299.03,-169.68 322.8,-141.52 291,-112.45 282,-104.22 269.56,-99.55 258.08,-96.9"/>
<polygon fill="midnightblue" stroke="midnightblue" points="364.33,-234.61 374.84,-235.9 367.42,-228.34 364.33,-234.61"/>
</g>
<!-- Node14 -->
<g id="node14" class="node">
<title>Node14</title>
<g id="a_node14"><a xlink:href="group__models__3d__joint__dovetail__screw.html#ga20f61ef0d29434a144ec653c6320f77f" target="_top" xlink:title="Construct a 3d dovetail joint with optional screw and nut fastener.">
<polygon fill="white" stroke="black" points="162,-235.95 162,-254.95 291,-254.95 291,-235.95 162,-235.95"/>
<text text-anchor="middle" x="226.5" y="-242.95" font-family="Helvetica,sans-Serif" font-size="10.00">joint3d_dovetail_screw</text>
</a>
</g>
</g>
<!-- Node11&#45;&gt;Node14 -->
<g id="edge19" class="edge">
<title>Node11&#45;&gt;Node14</title>
<path fill="none" stroke="midnightblue" d="M353.62,-245.45C334.45,-245.45 311.79,-245.45 291.01,-245.45"/>
<polygon fill="midnightblue" stroke="midnightblue" points="353.88,-248.95 363.88,-245.45 353.88,-241.95 353.88,-248.95"/>
</g>
<!-- Node15 -->
<g id="node15" class="node">
<title>Node15</title>
<g id="a_node15"><a xlink:href="group__parts__3d__fastener__mounts.html#gae1cc60f3ff242fb07c5a50d34be8c051" target="_top" xlink:title="A mount tab with screw hole and support brace.">
<polygon fill="white" stroke="black" points="175,-121.95 175,-140.95 278,-140.95 278,-121.95 175,-121.95"/>
<text text-anchor="middle" x="226.5" y="-128.95" font-family="Helvetica,sans-Serif" font-size="10.00">mount_screw_tab</text>
</a>
</g>
</g>
<!-- Node11&#45;&gt;Node15 -->
<g id="edge22" class="edge">
<title>Node11&#45;&gt;Node15</title>
<path fill="none" stroke="midnightblue" d="M368.8,-231.17C355.1,-223.79 339.27,-213.93 327,-202.45 306.47,-183.26 313.75,-166.97 291,-150.45 285.69,-146.6 279.6,-143.52 273.34,-141.06"/>
<polygon fill="midnightblue" stroke="midnightblue" points="367.38,-234.37 377.87,-235.87 370.6,-228.16 367.38,-234.37"/>
</g>
<!-- Node13&#45;&gt;Node8 -->
<g id="edge17" class="edge">
<title>Node13&#45;&gt;Node8</title>
<path fill="none" stroke="midnightblue" d="M184.98,-102.99C160.36,-108.78 129.03,-116.15 104.42,-121.94"/>
<polygon fill="midnightblue" stroke="midnightblue" points="185.81,-106.39 194.74,-100.69 184.21,-99.57 185.81,-106.39"/>
</g>
<!-- Node13&#45;&gt;Node10 -->
<g id="edge16" class="edge">
<title>Node13&#45;&gt;Node10</title>
<path fill="none" stroke="midnightblue" d="M184.63,-88.65C161.67,-85.94 132.95,-82.57 109.3,-79.78"/>
<polygon fill="midnightblue" stroke="midnightblue" points="184.4,-92.14 194.74,-89.84 185.22,-85.19 184.4,-92.14"/>
</g>
<!-- Node15&#45;&gt;Node8 -->
<g id="edge23" class="edge">
<title>Node15&#45;&gt;Node8</title>
<path fill="none" stroke="midnightblue" d="M164.61,-131.45C145.87,-131.45 125.6,-131.45 108.2,-131.45"/>
<polygon fill="midnightblue" stroke="midnightblue" points="164.84,-134.95 174.84,-131.45 164.84,-127.95 164.84,-134.95"/>
</g>
<!-- Node16&#45;&gt;Node5 -->
<g id="edge26" class="edge">
<title>Node16&#45;&gt;Node5</title>
<path fill="none" stroke="midnightblue" d="M345.96,-423.7C321.71,-418.33 293.35,-412.04 270.47,-406.97"/>
<polygon fill="midnightblue" stroke="midnightblue" points="345.2,-427.12 355.72,-425.86 346.72,-420.28 345.2,-427.12"/>
</g>
<!-- Node17&#45;&gt;Node2 -->
<g id="edge28" class="edge">
<title>Node17&#45;&gt;Node2</title>
<path fill="none" stroke="midnightblue" d="M345.96,-43.7C321.71,-38.33 293.35,-32.04 270.47,-26.97"/>
<polygon fill="midnightblue" stroke="midnightblue" points="345.2,-47.12 355.72,-45.86 346.72,-40.28 345.2,-47.12"/>
</g>
<!-- Node17&#45;&gt;Node9 -->
<g id="edge29" class="edge">
<title>Node17&#45;&gt;Node9</title>
<path fill="none" stroke="midnightblue" d="M316.71,-55.45C307.4,-55.45 298.04,-55.45 289.06,-55.45"/>
<polygon fill="midnightblue" stroke="midnightblue" points="316.77,-58.95 326.77,-55.45 316.77,-51.95 316.77,-58.95"/>
</g>
<!-- Node18&#45;&gt;Node9 -->
<g id="edge31" class="edge">
<title>Node18&#45;&gt;Node9</title>
<path fill="none" stroke="midnightblue" d="M363.45,-99.47C342.46,-91.92 315.31,-82.36 291,-74.45 281.15,-71.25 270.38,-67.95 260.55,-65.02"/>
<polygon fill="midnightblue" stroke="midnightblue" points="362.34,-102.79 372.93,-102.89 364.71,-96.2 362.34,-102.79"/>
</g>
</g>
</svg>
