<?xml version="1.0" encoding="UTF-8" standalone="no"?>
<!DOCTYPE svg PUBLIC "-//W3C//DTD SVG 1.1//EN"
 "http://www.w3.org/Graphics/SVG/1.1/DTD/svg11.dtd">
<!-- Generated by graphviz version 2.43.0 (0)
 -->
<!-- Title: table_dump_getters Pages: 1 -->
<svg width="514pt" height="294pt"
 viewBox="0.00 0.00 514.00 294.00" xmlns="http://www.w3.org/2000/svg" xmlns:xlink="http://www.w3.org/1999/xlink">
<g id="graph0" class="graph" transform="scale(1 1) rotate(0) translate(4 290)">
<title>table_dump_getters</title>
<polygon fill="white" stroke="transparent" points="-4,4 -4,-290 510,-290 510,4 -4,4"/>
<!-- Node1 -->
<g id="node1" class="node">
<title>Node1</title>
<g id="a_node1"><a xlink:title="Dump table getter functions to the console.">
<polygon fill="#bfbfbf" stroke="black" points="0,-114.5 0,-133.5 114,-133.5 114,-114.5 0,-114.5"/>
<text text-anchor="middle" x="57" y="-121.5" font-family="Helvetica,sans-Serif" font-size="10.00">table_dump_getters</text>
</a>
</g>
</g>
<!-- Node2 -->
<g id="node2" class="node">
<title>Node2</title>
<g id="a_node2"><a xlink:href="group__datatypes__iterable__operate.html#ga894d4bec62cc9cf38d5e099de3028c54" target="_top" xlink:title="Return the second element of an iterable value.">
<polygon fill="white" stroke="black" points="186,-228.5 186,-247.5 237,-247.5 237,-228.5 186,-228.5"/>
<text text-anchor="middle" x="211.5" y="-235.5" font-family="Helvetica,sans-Serif" font-size="10.00">second</text>
</a>
</g>
</g>
<!-- Node1&#45;&gt;Node2 -->
<g id="edge1" class="edge">
<title>Node1&#45;&gt;Node2</title>
<path fill="none" stroke="midnightblue" d="M64.69,-133.61C78.46,-152.68 111.9,-195.49 150,-219 157.9,-223.87 167.15,-227.6 176.01,-230.4"/>
<polygon fill="midnightblue" stroke="midnightblue" points="175.18,-233.8 185.76,-233.18 177.11,-227.07 175.18,-233.8"/>
</g>
<!-- Node3 -->
<g id="node3" class="node">
<title>Node3</title>
<g id="a_node3"><a xlink:href="group__datatypes__table.html#ga8a4429649e8b06d9f492e1a0d2653656" target="_top" xlink:title="Perform basic format checks on a table and output errors to console.">
<polygon fill="white" stroke="black" points="174,-190.5 174,-209.5 249,-209.5 249,-190.5 174,-190.5"/>
<text text-anchor="middle" x="211.5" y="-197.5" font-family="Helvetica,sans-Serif" font-size="10.00">table_check</text>
</a>
</g>
</g>
<!-- Node1&#45;&gt;Node3 -->
<g id="edge2" class="edge">
<title>Node1&#45;&gt;Node3</title>
<path fill="none" stroke="midnightblue" d="M71.12,-133.61C88.46,-145.95 120.28,-167.39 150,-181 154.76,-183.18 159.83,-185.2 164.95,-187.06"/>
<polygon fill="midnightblue" stroke="midnightblue" points="164.16,-190.48 174.75,-190.4 166.42,-183.86 164.16,-190.48"/>
</g>
<!-- Node10 -->
<g id="node10" class="node">
<title>Node10</title>
<g id="a_node10"><a xlink:href="group__datatypes__table.html#gac92c14192892a7bab0a7a818a86a6b86" target="_top" xlink:title="Perform basic format checks on a table and return errors.">
<polygon fill="white" stroke="black" points="174,-152.5 174,-171.5 249,-171.5 249,-152.5 174,-152.5"/>
<text text-anchor="middle" x="211.5" y="-159.5" font-family="Helvetica,sans-Serif" font-size="10.00">table_errors</text>
</a>
</g>
</g>
<!-- Node1&#45;&gt;Node10 -->
<g id="edge10" class="edge">
<title>Node1&#45;&gt;Node10</title>
<path fill="none" stroke="midnightblue" d="M96.48,-133.59C116.97,-138.69 142.33,-145.01 163.93,-150.39"/>
<polygon fill="midnightblue" stroke="midnightblue" points="163.32,-153.85 173.87,-152.87 165.01,-147.06 163.32,-153.85"/>
</g>
<!-- Node11 -->
<g id="node11" class="node">
<title>Node11</title>
<g id="a_node11"><a xlink:href="group__datatypes__table.html#ga67088801a97d5575ebef698f06e80096" target="_top" xlink:title="Test the existence of a table row identifier, table column identifier, or both.">
<polygon fill="white" stroke="black" points="173.5,-114.5 173.5,-133.5 249.5,-133.5 249.5,-114.5 173.5,-114.5"/>
<text text-anchor="middle" x="211.5" y="-121.5" font-family="Helvetica,sans-Serif" font-size="10.00">table_exists</text>
</a>
</g>
</g>
<!-- Node1&#45;&gt;Node11 -->
<g id="edge11" class="edge">
<title>Node1&#45;&gt;Node11</title>
<path fill="none" stroke="midnightblue" d="M114.35,-124C130.35,-124 147.6,-124 163.01,-124"/>
<polygon fill="midnightblue" stroke="midnightblue" points="163.35,-127.5 173.35,-124 163.35,-120.5 163.35,-127.5"/>
</g>
<!-- Node12 -->
<g id="node12" class="node">
<title>Node12</title>
<g id="a_node12"><a xlink:href="group__datatypes__table.html#gafce3197eb9f1e488473ac081227da017" target="_top" xlink:title="Get the table column that matches a table column identifier.">
<polygon fill="white" stroke="black" points="159.5,-76.5 159.5,-95.5 263.5,-95.5 263.5,-76.5 159.5,-76.5"/>
<text text-anchor="middle" x="211.5" y="-83.5" font-family="Helvetica,sans-Serif" font-size="10.00">table_get_column</text>
</a>
</g>
</g>
<!-- Node1&#45;&gt;Node12 -->
<g id="edge12" class="edge">
<title>Node1&#45;&gt;Node12</title>
<path fill="none" stroke="midnightblue" d="M96.48,-114.41C116.52,-109.42 141.2,-103.27 162.48,-97.97"/>
<polygon fill="midnightblue" stroke="midnightblue" points="163.44,-101.33 172.29,-95.52 161.74,-94.54 163.44,-101.33"/>
</g>
<!-- Node13 -->
<g id="node13" class="node">
<title>Node13</title>
<g id="a_node13"><a xlink:href="group__datatypes__table.html#gaa688ecb4f8f3aef6dca08b28a29430c6" target="_top" xlink:title="Form a list of all table column identifiers.">
<polygon fill="white" stroke="black" points="150,-38.5 150,-57.5 273,-57.5 273,-38.5 150,-38.5"/>
<text text-anchor="middle" x="211.5" y="-45.5" font-family="Helvetica,sans-Serif" font-size="10.00">table_get_column_ids</text>
</a>
</g>
</g>
<!-- Node1&#45;&gt;Node13 -->
<g id="edge13" class="edge">
<title>Node1&#45;&gt;Node13</title>
<path fill="none" stroke="midnightblue" d="M71.12,-114.39C88.46,-102.05 120.28,-80.61 150,-67 154.76,-64.82 159.83,-62.8 164.95,-60.94"/>
<polygon fill="midnightblue" stroke="midnightblue" points="166.42,-64.14 174.75,-57.6 164.16,-57.52 166.42,-64.14"/>
</g>
<!-- Node14 -->
<g id="node14" class="node">
<title>Node14</title>
<g id="a_node14"><a xlink:href="group__datatypes__table.html#ga955af1ddbc6e218b4867f6b57d45d170" target="_top" xlink:title="Form a list of all table row identifiers.">
<polygon fill="white" stroke="black" points="159,-0.5 159,-19.5 264,-19.5 264,-0.5 159,-0.5"/>
<text text-anchor="middle" x="211.5" y="-7.5" font-family="Helvetica,sans-Serif" font-size="10.00">table_get_row_ids</text>
</a>
</g>
</g>
<!-- Node1&#45;&gt;Node14 -->
<g id="edge14" class="edge">
<title>Node1&#45;&gt;Node14</title>
<path fill="none" stroke="midnightblue" d="M64.69,-114.39C78.46,-95.32 111.9,-52.51 150,-29 153.38,-26.91 157.01,-25.04 160.75,-23.35"/>
<polygon fill="midnightblue" stroke="midnightblue" points="162.23,-26.53 170.21,-19.56 159.62,-20.04 162.23,-26.53"/>
</g>
<!-- Node4 -->
<g id="node4" class="node">
<title>Node4</title>
<g id="a_node4"><a xlink:href="group__datatypes__iterable__operate.html#gaccab3e37e43cb1d882713b3f3d6d9e1b" target="_top" xlink:title="Return the first element of an iterable value.">
<polygon fill="white" stroke="black" points="350.5,-266.5 350.5,-285.5 385.5,-285.5 385.5,-266.5 350.5,-266.5"/>
<text text-anchor="middle" x="368" y="-273.5" font-family="Helvetica,sans-Serif" font-size="10.00">first</text>
</a>
</g>
</g>
<!-- Node3&#45;&gt;Node4 -->
<g id="edge3" class="edge">
<title>Node3&#45;&gt;Node4</title>
<path fill="none" stroke="midnightblue" d="M249.01,-208.18C257.26,-210.91 265.72,-214.45 273,-219 292.73,-231.33 289.34,-244.55 309,-257 318.53,-263.04 330.17,-267.34 340.52,-270.31"/>
<polygon fill="midnightblue" stroke="midnightblue" points="339.74,-273.72 350.3,-272.84 341.5,-266.94 339.74,-273.72"/>
</g>
<!-- Node5 -->
<g id="node5" class="node">
<title>Node5</title>
<g id="a_node5"><a xlink:href="group__common__console.html#gacb9540a228d2c15623784ff0b0653722" target="_top" xlink:title="Output information message to console.">
<polygon fill="white" stroke="black" points="340,-228.5 340,-247.5 396,-247.5 396,-228.5 340,-228.5"/>
<text text-anchor="middle" x="368" y="-235.5" font-family="Helvetica,sans-Serif" font-size="10.00">log_info</text>
</a>
</g>
</g>
<!-- Node3&#45;&gt;Node5 -->
<g id="edge4" class="edge">
<title>Node3&#45;&gt;Node5</title>
<path fill="none" stroke="midnightblue" d="M249.11,-209.01C273.48,-215 305.37,-222.84 329.84,-228.86"/>
<polygon fill="midnightblue" stroke="midnightblue" points="329.29,-232.33 339.83,-231.32 330.96,-225.53 329.29,-232.33"/>
</g>
<!-- Node7 -->
<g id="node7" class="node">
<title>Node7</title>
<g id="a_node7"><a xlink:href="group__common__console.html#ga1ece4e2cff9ae45c85429c226eb8362c" target="_top" xlink:title="Output warning message to console.">
<polygon fill="white" stroke="black" points="337.5,-190.5 337.5,-209.5 398.5,-209.5 398.5,-190.5 337.5,-190.5"/>
<text text-anchor="middle" x="368" y="-197.5" font-family="Helvetica,sans-Serif" font-size="10.00">log_warn</text>
</a>
</g>
</g>
<!-- Node3&#45;&gt;Node7 -->
<g id="edge6" class="edge">
<title>Node3&#45;&gt;Node7</title>
<path fill="none" stroke="midnightblue" d="M249.11,-200C272.59,-200 303.06,-200 327.15,-200"/>
<polygon fill="midnightblue" stroke="midnightblue" points="327.37,-203.5 337.37,-200 327.37,-196.5 327.37,-203.5"/>
</g>
<!-- Node8 -->
<g id="node8" class="node">
<title>Node8</title>
<g id="a_node8"><a xlink:href="group__datatypes__table.html#ga81a0c09664cc9d9123fb2aa4a0a143c4" target="_top" xlink:title="Get the table row index that matches a table row identifier.">
<polygon fill="white" stroke="black" points="309,-152.5 309,-171.5 427,-171.5 427,-152.5 309,-152.5"/>
<text text-anchor="middle" x="368" y="-159.5" font-family="Helvetica,sans-Serif" font-size="10.00">table_get_row_index</text>
</a>
</g>
</g>
<!-- Node3&#45;&gt;Node8 -->
<g id="edge8" class="edge">
<title>Node3&#45;&gt;Node8</title>
<path fill="none" stroke="midnightblue" d="M249.11,-190.99C269.78,-185.91 295.86,-179.5 318.23,-173.99"/>
<polygon fill="midnightblue" stroke="midnightblue" points="319.35,-177.33 328.22,-171.54 317.67,-170.53 319.35,-177.33"/>
</g>
<!-- Node9 -->
<g id="node9" class="node">
<title>Node9</title>
<g id="a_node9"><a xlink:href="group__datatypes__table.html#ga4fb8609e20584a019b2a4028d692db82" target="_top" xlink:title="Get the size of a table.">
<polygon fill="white" stroke="black" points="324.5,-114.5 324.5,-133.5 411.5,-133.5 411.5,-114.5 324.5,-114.5"/>
<text text-anchor="middle" x="368" y="-121.5" font-family="Helvetica,sans-Serif" font-size="10.00">table_get_size</text>
</a>
</g>
</g>
<!-- Node3&#45;&gt;Node9 -->
<g id="edge9" class="edge">
<title>Node3&#45;&gt;Node9</title>
<path fill="none" stroke="midnightblue" d="M249.01,-191.82C257.26,-189.09 265.72,-185.55 273,-181 292.73,-168.67 289.34,-155.45 309,-143 312.19,-140.98 315.61,-139.16 319.14,-137.51"/>
<polygon fill="midnightblue" stroke="midnightblue" points="320.75,-140.63 328.65,-133.57 318.07,-134.17 320.75,-140.63"/>
</g>
<!-- Node6 -->
<g id="node6" class="node">
<title>Node6</title>
<g id="a_node6"><a xlink:href="group__common__console.html#ga4fb6c985031c9b551777b2e9ebd2fc34" target="_top" xlink:title="Format the function call stack as a string.">
<polygon fill="white" stroke="black" points="463,-209.5 463,-228.5 506,-228.5 506,-209.5 463,-209.5"/>
<text text-anchor="middle" x="484.5" y="-216.5" font-family="Helvetica,sans-Serif" font-size="10.00">stack</text>
</a>
</g>
</g>
<!-- Node5&#45;&gt;Node6 -->
<g id="edge5" class="edge">
<title>Node5&#45;&gt;Node6</title>
<path fill="none" stroke="midnightblue" d="M396.13,-233.5C413,-230.7 434.75,-227.09 452.32,-224.17"/>
<polygon fill="midnightblue" stroke="midnightblue" points="453.35,-227.55 462.64,-222.46 452.21,-220.65 453.35,-227.55"/>
</g>
<!-- Node7&#45;&gt;Node6 -->
<g id="edge7" class="edge">
<title>Node7&#45;&gt;Node6</title>
<path fill="none" stroke="midnightblue" d="M398.78,-204.94C415.47,-207.71 436.22,-211.16 453.02,-213.94"/>
<polygon fill="midnightblue" stroke="midnightblue" points="452.45,-217.4 462.89,-215.58 453.6,-210.49 452.45,-217.4"/>
</g>
</g>
</svg>
