<?xml version="1.0" encoding="UTF-8" standalone="no"?>
<!DOCTYPE svg PUBLIC "-//W3C//DTD SVG 1.1//EN"
 "http://www.w3.org/Graphics/SVG/1.1/DTD/svg11.dtd">
<!-- Generated by graphviz version 2.43.0 (0)
 -->
<!-- Title: ISO 7092 Pages: 1 -->
<svg width="327pt" height="29pt"
 viewBox="0.00 0.00 327.00 28.50" xmlns="http://www.w3.org/2000/svg" xmlns:xlink="http://www.w3.org/1999/xlink">
<g id="graph0" class="graph" transform="scale(1 1) rotate(0) translate(4 24.5)">
<title>ISO 7092</title>
<polygon fill="white" stroke="transparent" points="-4,4 -4,-24.5 323,-24.5 323,4 -4,4"/>
<!-- Node2 -->
<g id="node1" class="node">
<title>Node2</title>
<g id="a_node1"><a xlink:href="group__database__component__fastener__Metric__Washers.html" target="_top" xlink:title=" ">
<polygon fill="white" stroke="black" points="58,-19 0,-19 0,0 58,0 58,-19"/>
<text text-anchor="middle" x="29" y="-7" font-family="Helvetica,sans-Serif" font-size="10.00">Washers</text>
</a>
</g>
</g>
<!-- Node1 -->
<g id="node2" class="node">
<title>Node1</title>
<g id="a_node2"><a xlink:title="[metric/washers] Standard flat washer, small outer diameter; ISO 7092; DIN 433.">
<polygon fill="#bfbfbf" stroke="black" points="155,-19 95,-19 95,0 155,0 155,-19"/>
<text text-anchor="middle" x="125" y="-7" font-family="Helvetica,sans-Serif" font-size="10.00">ISO 7092</text>
</a>
</g>
</g>
<!-- Node2&#45;&gt;Node1 -->
<g id="edge1" class="edge">
<title>Node2&#45;&gt;Node1</title>
<path fill="none" stroke="black" d="M68.32,-9.5C77.17,-9.5 86.45,-9.5 94.84,-9.5"/>
<polygon fill="black" stroke="black" points="68.2,-6 58.2,-9.5 68.2,-13 68.2,-6"/>
</g>
<!-- Node3 -->
<g id="node3" class="node">
<title>Node3</title>
<g id="a_node3"><a xlink:href="group__database__component__fastener.html" target="_top" xlink:title="Mechanical fastener specifications.">
<polygon fill="white" stroke="black" points="319,-19 261,-19 261,0 319,0 319,-19"/>
<text text-anchor="middle" x="290" y="-7" font-family="Helvetica,sans-Serif" font-size="10.00">Fastener</text>
</a>
</g>
</g>
<!-- Node1&#45;&gt;Node3 -->
<g id="edge2" class="edge">
<title>Node1&#45;&gt;Node3</title>
<path fill="none" stroke="darkgreen" stroke-dasharray="5,2" d="M155.14,-9.5C185.08,-9.5 231.38,-9.5 260.93,-9.5"/>
<text text-anchor="middle" x="208" y="-12.5" font-family="Helvetica,sans-Serif" font-size="10.00">iso_7092.scad</text>
</g>
</g>
</svg>
