<?xml version="1.0" encoding="UTF-8" standalone="no"?>
<!DOCTYPE svg PUBLIC "-//W3C//DTD SVG 1.1//EN"
 "http://www.w3.org/Graphics/SVG/1.1/DTD/svg11.dtd">
<!-- Generated by graphviz version 2.43.0 (0)
 -->
<!-- Title: Alignment Pages: 1 -->
<svg width="232pt" height="34pt"
 viewBox="0.00 0.00 232.00 33.72" xmlns="http://www.w3.org/2000/svg" xmlns:xlink="http://www.w3.org/1999/xlink">
<g id="graph0" class="graph" transform="scale(1 1) rotate(0) translate(4 29.72)">
<title>Alignment</title>
<polygon fill="white" stroke="transparent" points="-4,4 -4,-29.72 228,-29.72 228,4 -4,4"/>
<!-- Node2 -->
<g id="node1" class="node">
<title>Node2</title>
<g id="a_node1"><a xlink:href="group__transforms.html" target="_top" xlink:title="Geometric transformation and shape replication.">
<polygon fill="white" stroke="black" points="71,-25.72 0,-25.72 0,-6.72 71,-6.72 71,-25.72"/>
<text text-anchor="middle" x="35.5" y="-13.72" font-family="Helvetica,sans-Serif" font-size="10.00">Transforms</text>
</a>
</g>
</g>
<!-- Node1 -->
<g id="node2" class="node">
<title>Node1</title>
<g id="a_node2"><a xlink:title="Shape alignment tools.">
<polygon fill="#bfbfbf" stroke="black" points="224,-25.72 157,-25.72 157,-6.72 224,-6.72 224,-25.72"/>
<text text-anchor="middle" x="190.5" y="-13.72" font-family="Helvetica,sans-Serif" font-size="10.00">Alignment</text>
</a>
</g>
</g>
<!-- Node2&#45;&gt;Node1 -->
<g id="edge1" class="edge">
<title>Node2&#45;&gt;Node1</title>
<path fill="none" stroke="black" d="M81.23,-16.22C105.4,-16.22 134.72,-16.22 156.75,-16.22"/>
<polygon fill="black" stroke="black" points="81.22,-12.72 71.22,-16.22 81.22,-19.72 81.22,-12.72"/>
</g>
<!-- Node1&#45;&gt;Node2 -->
<g id="edge2" class="edge">
<title>Node1&#45;&gt;Node2</title>
<path fill="none" stroke="darkgreen" stroke-dasharray="5,2" d="M160.41,-6.71C153.47,-4.85 146.03,-3.18 139,-2.22 116.98,0.78 111.03,0.67 89,-2.22 81.7,-3.18 73.98,-4.85 66.77,-6.71"/>
<text text-anchor="middle" x="114" y="-5.22" font-family="Helvetica,sans-Serif" font-size="10.00">align.scad</text>
</g>
</g>
</svg>
