<?xml version="1.0" encoding="UTF-8" standalone="no"?>
<!DOCTYPE svg PUBLIC "-//W3C//DTD SVG 1.1//EN"
 "http://www.w3.org/Graphics/SVG/1.1/DTD/svg11.dtd">
<!-- Generated by graphviz version 2.43.0 (0)
 -->
<!-- Title: draft_arc Pages: 1 -->
<svg width="342pt" height="332pt"
 viewBox="0.00 0.00 342.00 332.00" xmlns="http://www.w3.org/2000/svg" xmlns:xlink="http://www.w3.org/1999/xlink">
<g id="graph0" class="graph" transform="scale(1 1) rotate(0) translate(4 328)">
<title>draft_arc</title>
<polygon fill="white" stroke="transparent" points="-4,4 -4,-328 338,-328 338,4 -4,4"/>
<!-- Node1 -->
<g id="node1" class="node">
<title>Node1</title>
<g id="a_node1"><a xlink:title="Draft an arc with configurable style and optional arrowheads.">
<polygon fill="#bfbfbf" stroke="black" points="0,-152.5 0,-171.5 59,-171.5 59,-152.5 0,-152.5"/>
<text text-anchor="middle" x="29.5" y="-159.5" font-family="Helvetica,sans-Serif" font-size="10.00">draft_arc</text>
</a>
</g>
</g>
<!-- Node2 -->
<g id="node2" class="node">
<title>Node2</title>
<g id="a_node2"><a xlink:href="group__datatypes__iterable__test.html#ga4dfc58aa5f208e103e622684db817ce6" target="_top" xlink:title="Test if all elements of an iterable value equal a comparison value.">
<polygon fill="white" stroke="black" points="126.5,-304.5 126.5,-323.5 187.5,-323.5 187.5,-304.5 126.5,-304.5"/>
<text text-anchor="middle" x="157" y="-311.5" font-family="Helvetica,sans-Serif" font-size="10.00">all_equal</text>
</a>
</g>
</g>
<!-- Node1&#45;&gt;Node2 -->
<g id="edge1" class="edge">
<title>Node1&#45;&gt;Node2</title>
<path fill="none" stroke="midnightblue" d="M32.85,-171.81C38.99,-195.42 57.68,-255.96 95,-290 101.22,-295.67 108.93,-300.07 116.76,-303.45"/>
<polygon fill="midnightblue" stroke="midnightblue" points="115.68,-306.79 126.27,-307.1 118.19,-300.25 115.68,-306.79"/>
</g>
<!-- Node3 -->
<g id="node3" class="node">
<title>Node3</title>
<g id="a_node3"><a xlink:href="group__datatypes__iterable__operate.html#ga3d37c2b0067d1661724bd89955c8f6ce" target="_top" xlink:title="Returns an element from an iterable if it exists, or a default value if not.">
<polygon fill="white" stroke="black" points="255,-247.5 255,-266.5 334,-266.5 334,-247.5 255,-247.5"/>
<text text-anchor="middle" x="294.5" y="-254.5" font-family="Helvetica,sans-Serif" font-size="10.00">defined_e_or</text>
</a>
</g>
</g>
<!-- Node1&#45;&gt;Node3 -->
<g id="edge2" class="edge">
<title>Node1&#45;&gt;Node3</title>
<path fill="none" stroke="midnightblue" d="M33.56,-171.57C40.61,-191.8 60.12,-238.52 95,-257 142.4,-282.11 205.55,-276.68 247.77,-268.57"/>
<polygon fill="midnightblue" stroke="midnightblue" points="248.67,-271.96 257.77,-266.53 247.27,-265.1 248.67,-271.96"/>
</g>
<!-- Node4 -->
<g id="node4" class="node">
<title>Node4</title>
<g id="a_node4"><a xlink:href="group__tools__2d__drafting.html#ga6f12ccd4c9de0a8ab887184911f39c8f" target="_top" xlink:title="Draft an arrowhead at the terminal point of a line.">
<polygon fill="white" stroke="black" points="121,-228.5 121,-247.5 193,-247.5 193,-228.5 121,-228.5"/>
<text text-anchor="middle" x="157" y="-235.5" font-family="Helvetica,sans-Serif" font-size="10.00">draft_arrow</text>
</a>
</g>
</g>
<!-- Node1&#45;&gt;Node4 -->
<g id="edge3" class="edge">
<title>Node1&#45;&gt;Node4</title>
<path fill="none" stroke="midnightblue" d="M39.14,-171.87C50.69,-184.49 72.34,-206.24 95,-219 100.08,-221.86 105.64,-224.34 111.27,-226.49"/>
<polygon fill="midnightblue" stroke="midnightblue" points="110.16,-229.81 120.75,-229.78 112.45,-223.19 110.16,-229.81"/>
</g>
<!-- Node5 -->
<g id="node5" class="node">
<title>Node5</title>
<g id="a_node5"><a xlink:href="group__tools__2d__drafting.html#ga4e7c5fa02dbc244702042067553a9225" target="_top" xlink:title="Draft a simple line from an initial to a terminal point.">
<polygon fill="white" stroke="black" points="117,-190.5 117,-209.5 197,-209.5 197,-190.5 117,-190.5"/>
<text text-anchor="middle" x="157" y="-197.5" font-family="Helvetica,sans-Serif" font-size="10.00">draft_line_pp</text>
</a>
</g>
</g>
<!-- Node1&#45;&gt;Node5 -->
<g id="edge5" class="edge">
<title>Node1&#45;&gt;Node5</title>
<path fill="none" stroke="midnightblue" d="M59.29,-170.72C75.66,-175.67 96.43,-181.96 114.52,-187.44"/>
<polygon fill="midnightblue" stroke="midnightblue" points="113.67,-190.84 124.26,-190.39 115.7,-184.14 113.67,-190.84"/>
</g>
<!-- Node6 -->
<g id="node6" class="node">
<title>Node6</title>
<g id="a_node6"><a xlink:href="group__datatypes__iterable__operate.html#ga10badea95b6bf88048b4a0b347b2d291" target="_top" xlink:title="Return a list containing the first n elements of an iterable value.">
<polygon fill="white" stroke="black" points="136.5,-152.5 136.5,-171.5 177.5,-171.5 177.5,-152.5 136.5,-152.5"/>
<text text-anchor="middle" x="157" y="-159.5" font-family="Helvetica,sans-Serif" font-size="10.00">firstn</text>
</a>
</g>
</g>
<!-- Node1&#45;&gt;Node6 -->
<g id="edge6" class="edge">
<title>Node1&#45;&gt;Node6</title>
<path fill="none" stroke="midnightblue" d="M59.29,-162C79.29,-162 105.87,-162 126.11,-162"/>
<polygon fill="midnightblue" stroke="midnightblue" points="126.32,-165.5 136.32,-162 126.32,-158.5 126.32,-165.5"/>
</g>
<!-- Node7 -->
<g id="node7" class="node">
<title>Node7</title>
<g id="a_node7"><a xlink:href="group__datatypes__iterable__operate.html#gaa735a2d01ca5c17ff07616657eb0aa83" target="_top" xlink:title="Return a list containing the last n elements of an iterable value.">
<polygon fill="white" stroke="black" points="136.5,-114.5 136.5,-133.5 177.5,-133.5 177.5,-114.5 136.5,-114.5"/>
<text text-anchor="middle" x="157" y="-121.5" font-family="Helvetica,sans-Serif" font-size="10.00">lastn</text>
</a>
</g>
</g>
<!-- Node1&#45;&gt;Node7 -->
<g id="edge7" class="edge">
<title>Node1&#45;&gt;Node7</title>
<path fill="none" stroke="midnightblue" d="M59.29,-153.28C79.47,-147.17 106.36,-139.03 126.66,-132.88"/>
<polygon fill="midnightblue" stroke="midnightblue" points="127.77,-136.21 136.32,-129.96 125.74,-129.51 127.77,-136.21"/>
</g>
<!-- Node8 -->
<g id="node8" class="node">
<title>Node8</title>
<g id="a_node8"><a xlink:href="group__math__polygon.html#ga128d01889534a62bba46ad30ef83a67f" target="_top" xlink:title="Compute coordinates of an arc with constant radius between two vectors in 2D.">
<polygon fill="white" stroke="black" points="95,-76.5 95,-95.5 219,-95.5 219,-76.5 95,-76.5"/>
<text text-anchor="middle" x="157" y="-83.5" font-family="Helvetica,sans-Serif" font-size="10.00">polygon_arc_sweep_p</text>
</a>
</g>
</g>
<!-- Node1&#45;&gt;Node8 -->
<g id="edge8" class="edge">
<title>Node1&#45;&gt;Node8</title>
<path fill="none" stroke="midnightblue" d="M39.14,-152.13C50.69,-139.51 72.34,-117.76 95,-105 98.75,-102.89 102.77,-100.98 106.88,-99.26"/>
<polygon fill="midnightblue" stroke="midnightblue" points="108.47,-102.4 116.58,-95.59 105.99,-95.86 108.47,-102.4"/>
</g>
<!-- Node9 -->
<g id="node9" class="node">
<title>Node9</title>
<g id="a_node9"><a xlink:href="group__datatypes__iterable__operate.html#gafb1f112a3ab162d589c49d1b2de21b9e" target="_top" xlink:title="Reverse the elements of an iterable value.">
<polygon fill="white" stroke="black" points="130.5,-38.5 130.5,-57.5 183.5,-57.5 183.5,-38.5 130.5,-38.5"/>
<text text-anchor="middle" x="157" y="-45.5" font-family="Helvetica,sans-Serif" font-size="10.00">reverse</text>
</a>
</g>
</g>
<!-- Node1&#45;&gt;Node9 -->
<g id="edge9" class="edge">
<title>Node1&#45;&gt;Node9</title>
<path fill="none" stroke="midnightblue" d="M34.42,-152.33C42.7,-133.16 63.78,-90.16 95,-67 102.51,-61.43 111.69,-57.47 120.62,-54.66"/>
<polygon fill="midnightblue" stroke="midnightblue" points="121.78,-57.97 130.5,-51.95 119.93,-51.22 121.78,-57.97"/>
</g>
<!-- Node10 -->
<g id="node10" class="node">
<title>Node10</title>
<g id="a_node10"><a xlink:href="group__datatypes__iterable__operate.html#gadb933df06b10d64dda8823069bdc84b7" target="_top" xlink:title="Return a list of all n&#45;element sequential&#45;subsets of an iterable value.">
<polygon fill="white" stroke="black" points="117,-0.5 117,-19.5 197,-19.5 197,-0.5 117,-0.5"/>
<text text-anchor="middle" x="157" y="-7.5" font-family="Helvetica,sans-Serif" font-size="10.00">sequence_ns</text>
</a>
</g>
</g>
<!-- Node1&#45;&gt;Node10 -->
<g id="edge10" class="edge">
<title>Node1&#45;&gt;Node10</title>
<path fill="none" stroke="midnightblue" d="M32.41,-152.35C37.75,-127.96 55.12,-63.32 95,-29 98.69,-25.82 102.92,-23.17 107.38,-20.97"/>
<polygon fill="midnightblue" stroke="midnightblue" points="108.9,-24.12 116.78,-17.04 106.2,-17.67 108.9,-24.12"/>
</g>
<!-- Node4&#45;&gt;Node3 -->
<g id="edge4" class="edge">
<title>Node4&#45;&gt;Node3</title>
<path fill="none" stroke="midnightblue" d="M193.25,-242.94C208.83,-245.13 227.42,-247.73 244.34,-250.11"/>
<polygon fill="midnightblue" stroke="midnightblue" points="244.23,-253.62 254.61,-251.55 245.2,-246.69 244.23,-253.62"/>
</g>
</g>
</svg>
