<?xml version="1.0" encoding="UTF-8" standalone="no"?>
<!DOCTYPE svg PUBLIC "-//W3C//DTD SVG 1.1//EN"
 "http://www.w3.org/Graphics/SVG/1.1/DTD/svg11.dtd">
<!-- Generated by graphviz version 2.43.0 (0)
 -->
<!-- Title: Enclosure Pages: 1 -->
<svg width="450pt" height="35pt"
 viewBox="0.00 0.00 450.00 34.83" xmlns="http://www.w3.org/2000/svg" xmlns:xlink="http://www.w3.org/1999/xlink">
<g id="graph0" class="graph" transform="scale(1 1) rotate(0) translate(4 30.83)">
<title>Enclosure</title>
<polygon fill="white" stroke="transparent" points="-4,4 -4,-30.83 446,-30.83 446,4 -4,4"/>
<!-- Node2 -->
<g id="node1" class="node">
<title>Node2</title>
<g id="a_node1"><a xlink:href="group__parts__2d.html" target="_top" xlink:title="2d parts, part generators, and small assemblies.">
<polygon fill="white" stroke="black" points="56,-26.83 0,-26.83 0,-7.83 56,-7.83 56,-26.83"/>
<text text-anchor="middle" x="28" y="-14.83" font-family="Helvetica,sans-Serif" font-size="10.00">2d Parts</text>
</a>
</g>
</g>
<!-- Node1 -->
<g id="node3" class="node">
<title>Node1</title>
<g id="a_node3"><a xlink:title="Project boxes, housings and enclosures.">
<polygon fill="#bfbfbf" stroke="black" points="157,-26.83 93,-26.83 93,-7.83 157,-7.83 157,-26.83"/>
<text text-anchor="middle" x="125" y="-14.83" font-family="Helvetica,sans-Serif" font-size="10.00">Enclosure</text>
</a>
</g>
</g>
<!-- Node2&#45;&gt;Node1 -->
<g id="edge1" class="edge">
<title>Node2&#45;&gt;Node1</title>
<path fill="none" stroke="black" d="M66.22,-17.33C75,-17.33 84.27,-17.33 92.75,-17.33"/>
<polygon fill="black" stroke="black" points="66.22,-13.83 56.22,-17.33 66.22,-20.83 66.22,-13.83"/>
</g>
<!-- Node3 -->
<g id="node2" class="node">
<title>Node3</title>
<g id="a_node2"><a xlink:href="group__parts__2d__enclosure__box__finger__joint.html" target="_top" xlink:title="Finger joint (box joint) box generator.">
<polygon fill="white" stroke="black" points="442,-26.83 297,-26.83 297,-7.83 442,-7.83 442,-26.83"/>
<text text-anchor="middle" x="369.5" y="-14.83" font-family="Helvetica,sans-Serif" font-size="10.00">Finger Joint Box Generator</text>
</a>
</g>
</g>
<!-- Node1&#45;&gt;Node3 -->
<g id="edge2" class="edge">
<title>Node1&#45;&gt;Node3</title>
<path fill="none" stroke="black" d="M167.66,-17.33C203.13,-17.33 254.87,-17.33 296.95,-17.33"/>
<polygon fill="black" stroke="black" points="167.21,-13.83 157.21,-17.33 167.21,-20.83 167.21,-13.83"/>
</g>
<!-- Node1&#45;&gt;Node3 -->
<g id="edge3" class="edge">
<title>Node1&#45;&gt;Node3</title>
<path fill="none" stroke="darkgreen" stroke-dasharray="5,2" d="M154.21,-7.83C160.95,-5.96 168.17,-4.29 175,-3.33 223.03,3.39 278.25,-1.88 317.38,-7.78"/>
<text text-anchor="middle" x="227" y="-6.33" font-family="Helvetica,sans-Serif" font-size="10.00">box_finger_joint.scad</text>
</g>
</g>
</svg>
