<?xml version="1.0" encoding="UTF-8" standalone="no"?>
<!DOCTYPE svg PUBLIC "-//W3C//DTD SVG 1.1//EN"
 "http://www.w3.org/Graphics/SVG/1.1/DTD/svg11.dtd">
<!-- Generated by graphviz version 2.43.0 (0)
 -->
<!-- Title: hinge_sf Pages: 1 -->
<svg width="387pt" height="598pt"
 viewBox="0.00 0.00 387.00 598.00" xmlns="http://www.w3.org/2000/svg" xmlns:xlink="http://www.w3.org/1999/xlink">
<g id="graph0" class="graph" transform="scale(1 1) rotate(0) translate(4 594)">
<title>hinge_sf</title>
<polygon fill="white" stroke="transparent" points="-4,4 -4,-594 383,-594 383,4 -4,4"/>
<!-- Node1 -->
<g id="node1" class="node">
<title>Node1</title>
<g id="a_node1"><a xlink:title="A print&#45;in&#45;place single&#45;fold hinge generator.">
<polygon fill="#bfbfbf" stroke="black" points="0,-266.5 0,-285.5 58,-285.5 58,-266.5 0,-266.5"/>
<text text-anchor="middle" x="29" y="-273.5" font-family="Helvetica,sans-Serif" font-size="10.00">hinge_sf</text>
</a>
</g>
</g>
<!-- Node2 -->
<g id="node2" class="node">
<title>Node2</title>
<g id="a_node2"><a xlink:href="group__datatypes__binary.html#ga7ce4ed94d9b389ff817ea219918b8732" target="_top" xlink:title="Test if a binary bit position of an integer value equals a test bit.">
<polygon fill="white" stroke="black" points="109,-532.5 109,-551.5 188,-551.5 188,-532.5 109,-532.5"/>
<text text-anchor="middle" x="148.5" y="-539.5" font-family="Helvetica,sans-Serif" font-size="10.00">binary_bit_is</text>
</a>
</g>
</g>
<!-- Node1&#45;&gt;Node2 -->
<g id="edge1" class="edge">
<title>Node1&#45;&gt;Node2</title>
<path fill="none" stroke="midnightblue" d="M29.52,-285.5C28.22,-321.56 28.48,-451.46 94,-523 95.78,-524.94 97.76,-526.68 99.9,-528.25"/>
<polygon fill="midnightblue" stroke="midnightblue" points="98.34,-531.39 108.73,-533.44 101.89,-525.35 98.34,-531.39"/>
</g>
<!-- Node3 -->
<g id="node3" class="node">
<title>Node3</title>
<g id="a_node3"><a xlink:href="group__shapes__common__3d.html#ga5075cfcc6967fb610e308f08da3fb059" target="_top" xlink:title="A cone.">
<polygon fill="white" stroke="black" points="128.5,-494.5 128.5,-513.5 168.5,-513.5 168.5,-494.5 128.5,-494.5"/>
<text text-anchor="middle" x="148.5" y="-501.5" font-family="Helvetica,sans-Serif" font-size="10.00">cone</text>
</a>
</g>
</g>
<!-- Node1&#45;&gt;Node3 -->
<g id="edge2" class="edge">
<title>Node1&#45;&gt;Node3</title>
<path fill="none" stroke="midnightblue" d="M30.34,-285.88C31.96,-317.96 41.23,-420.63 94,-480 100.56,-487.38 109.82,-492.61 118.8,-496.26"/>
<polygon fill="midnightblue" stroke="midnightblue" points="117.69,-499.58 128.29,-499.63 120.04,-492.99 117.69,-499.58"/>
</g>
<!-- Node5 -->
<g id="node5" class="node">
<title>Node5</title>
<g id="a_node5"><a xlink:href="group__datatypes__iterable__operate.html#ga3d37c2b0067d1661724bd89955c8f6ce" target="_top" xlink:title="Returns an element from an iterable if it exists, or a default value if not.">
<polygon fill="white" stroke="black" points="269.5,-304.5 269.5,-323.5 348.5,-323.5 348.5,-304.5 269.5,-304.5"/>
<text text-anchor="middle" x="309" y="-311.5" font-family="Helvetica,sans-Serif" font-size="10.00">defined_e_or</text>
</a>
</g>
</g>
<!-- Node1&#45;&gt;Node5 -->
<g id="edge7" class="edge">
<title>Node1&#45;&gt;Node5</title>
<path fill="none" stroke="midnightblue" d="M57.74,-285.55C68.89,-289.04 81.93,-292.7 94,-295 150.14,-305.71 215.73,-310.41 259.36,-312.45"/>
<polygon fill="midnightblue" stroke="midnightblue" points="259.27,-315.95 269.41,-312.89 259.57,-308.96 259.27,-315.95"/>
</g>
<!-- Node8 -->
<g id="node8" class="node">
<title>Node8</title>
<g id="a_node8"><a xlink:href="group__datatypes__iterable__operate.html#gaa10da05023bd79eec85459298bc937c2" target="_top" xlink:title="Returns the list element or scalar numeric value if defined, otherwise returns the default value.">
<polygon fill="white" stroke="black" points="263.5,-152.5 263.5,-171.5 354.5,-171.5 354.5,-152.5 263.5,-152.5"/>
<text text-anchor="middle" x="309" y="-159.5" font-family="Helvetica,sans-Serif" font-size="10.00">defined_eon_or</text>
</a>
</g>
</g>
<!-- Node1&#45;&gt;Node8 -->
<g id="edge8" class="edge">
<title>Node1&#45;&gt;Node8</title>
<path fill="none" stroke="midnightblue" d="M33.26,-266.36C40.55,-246.44 60.26,-200.91 94,-181 142.23,-152.53 207.5,-150.92 253.23,-154.46"/>
<polygon fill="midnightblue" stroke="midnightblue" points="252.98,-157.95 263.25,-155.34 253.6,-150.98 252.98,-157.95"/>
</g>
<!-- Node9 -->
<g id="node9" class="node">
<title>Node9</title>
<g id="a_node9"><a xlink:href="group__transforms__extrude.html#gab2442cfaf1ad44d6e295ab0979d9e03d" target="_top" xlink:title="Linearly extrude a 2d shape with uniformly&#45;spaced profile scaling.">
<polygon fill="white" stroke="black" points="94,-418.5 94,-437.5 203,-437.5 203,-418.5 94,-418.5"/>
<text text-anchor="middle" x="148.5" y="-425.5" font-family="Helvetica,sans-Serif" font-size="10.00">extrude_linear_uss</text>
</a>
</g>
</g>
<!-- Node1&#45;&gt;Node9 -->
<g id="edge9" class="edge">
<title>Node1&#45;&gt;Node9</title>
<path fill="none" stroke="midnightblue" d="M32.41,-285.7C38.68,-309.06 57.6,-369.09 94,-404 98,-407.83 102.71,-411.12 107.65,-413.92"/>
<polygon fill="midnightblue" stroke="midnightblue" points="106.19,-417.1 116.69,-418.45 109.32,-410.84 106.19,-417.1"/>
</g>
<!-- Node10 -->
<g id="node10" class="node">
<title>Node10</title>
<g id="a_node10"><a xlink:href="group__datatypes__iterable__operate.html#gaccab3e37e43cb1d882713b3f3d6d9e1b" target="_top" xlink:title="Return the first element of an iterable value.">
<polygon fill="white" stroke="black" points="291.5,-494.5 291.5,-513.5 326.5,-513.5 326.5,-494.5 291.5,-494.5"/>
<text text-anchor="middle" x="309" y="-501.5" font-family="Helvetica,sans-Serif" font-size="10.00">first</text>
</a>
</g>
</g>
<!-- Node1&#45;&gt;Node10 -->
<g id="edge14" class="edge">
<title>Node1&#45;&gt;Node10</title>
<path fill="none" stroke="midnightblue" d="M30.64,-285.83C33.1,-315.04 44.45,-402.07 94,-447 108.02,-459.71 227.04,-486.58 281.27,-498.32"/>
<polygon fill="midnightblue" stroke="midnightblue" points="280.69,-501.77 291.2,-500.45 282.16,-494.93 280.69,-501.77"/>
</g>
<!-- Node12 -->
<g id="node12" class="node">
<title>Node12</title>
<g id="a_node12"><a xlink:href="group__datatypes__iterable__operate.html#ga894d4bec62cc9cf38d5e099de3028c54" target="_top" xlink:title="Return the second element of an iterable value.">
<polygon fill="white" stroke="black" points="283.5,-380.5 283.5,-399.5 334.5,-399.5 334.5,-380.5 283.5,-380.5"/>
<text text-anchor="middle" x="309" y="-387.5" font-family="Helvetica,sans-Serif" font-size="10.00">second</text>
</a>
</g>
</g>
<!-- Node1&#45;&gt;Node12 -->
<g id="edge26" class="edge">
<title>Node1&#45;&gt;Node12</title>
<path fill="none" stroke="midnightblue" d="M33.26,-285.64C40.55,-305.56 60.26,-351.09 94,-371 149.76,-403.91 228.29,-400.93 273.08,-395.59"/>
<polygon fill="midnightblue" stroke="midnightblue" points="273.7,-399.04 283.17,-394.28 272.8,-392.1 273.7,-399.04"/>
</g>
<!-- Node13 -->
<g id="node13" class="node">
<title>Node13</title>
<g id="a_node13"><a xlink:href="group__datatypes__scalar__test.html#ga51d7fdb800c10f4b7479d23b89ab8d22" target="_top" xlink:title="Test if a value is defined.">
<polygon fill="white" stroke="black" points="115.5,-266.5 115.5,-285.5 181.5,-285.5 181.5,-266.5 115.5,-266.5"/>
<text text-anchor="middle" x="148.5" y="-273.5" font-family="Helvetica,sans-Serif" font-size="10.00">is_defined</text>
</a>
</g>
</g>
<!-- Node1&#45;&gt;Node13 -->
<g id="edge15" class="edge">
<title>Node1&#45;&gt;Node13</title>
<path fill="none" stroke="midnightblue" d="M58.14,-276C72.29,-276 89.72,-276 105.42,-276"/>
<polygon fill="midnightblue" stroke="midnightblue" points="105.44,-279.5 115.44,-276 105.44,-272.5 105.44,-279.5"/>
</g>
<!-- Node14 -->
<g id="node14" class="node">
<title>Node14</title>
<g id="a_node14"><a xlink:href="group__datatypes__scalar__test.html#gac61c3ea156e546e556ae399e5d0f60ec" target="_top" xlink:title="Test if a numerical value is even.">
<polygon fill="white" stroke="black" points="121.5,-228.5 121.5,-247.5 175.5,-247.5 175.5,-228.5 121.5,-228.5"/>
<text text-anchor="middle" x="148.5" y="-235.5" font-family="Helvetica,sans-Serif" font-size="10.00">is_even</text>
</a>
</g>
</g>
<!-- Node1&#45;&gt;Node14 -->
<g id="edge16" class="edge">
<title>Node1&#45;&gt;Node14</title>
<path fill="none" stroke="midnightblue" d="M58.14,-266.9C74.15,-261.72 94.36,-255.19 111.51,-249.64"/>
<polygon fill="midnightblue" stroke="midnightblue" points="112.76,-252.91 121.2,-246.51 110.6,-246.25 112.76,-252.91"/>
</g>
<!-- Node15 -->
<g id="node15" class="node">
<title>Node15</title>
<g id="a_node15"><a xlink:href="group__datatypes__iterable__operate.html#ga4f04409e3fce7bf8226e4fde98f514c0" target="_top" xlink:title="Return the last element of an iterable value.">
<polygon fill="white" stroke="black" points="131,-190.5 131,-209.5 166,-209.5 166,-190.5 131,-190.5"/>
<text text-anchor="middle" x="148.5" y="-197.5" font-family="Helvetica,sans-Serif" font-size="10.00">last</text>
</a>
</g>
</g>
<!-- Node1&#45;&gt;Node15 -->
<g id="edge17" class="edge">
<title>Node1&#45;&gt;Node15</title>
<path fill="none" stroke="midnightblue" d="M38.64,-266.26C50.16,-253.78 71.72,-232.19 94,-219 102.38,-214.04 112.26,-210.08 121.24,-207.08"/>
<polygon fill="midnightblue" stroke="midnightblue" points="122.34,-210.41 130.86,-204.11 120.27,-203.72 122.34,-210.41"/>
</g>
<!-- Node16 -->
<g id="node16" class="node">
<title>Node16</title>
<g id="a_node16"><a xlink:href="group__shapes__polygon.html#ga9c1bd914355d92f9d66ba0e5c2d9dbac" target="_top" xlink:title="A polygon rectangle with vertex rounding.">
<polygon fill="white" stroke="black" points="108.5,-342.5 108.5,-361.5 188.5,-361.5 188.5,-342.5 108.5,-342.5"/>
<text text-anchor="middle" x="148.5" y="-349.5" font-family="Helvetica,sans-Serif" font-size="10.00">pg_rectangle</text>
</a>
</g>
</g>
<!-- Node1&#45;&gt;Node16 -->
<g id="edge18" class="edge">
<title>Node1&#45;&gt;Node16</title>
<path fill="none" stroke="midnightblue" d="M40.23,-285.74C52.36,-296.93 73.52,-315.39 94,-328 100,-331.69 106.66,-335.15 113.2,-338.21"/>
<polygon fill="midnightblue" stroke="midnightblue" points="112.02,-341.52 122.58,-342.42 114.89,-335.14 112.02,-341.52"/>
</g>
<!-- Node18 -->
<g id="node18" class="node">
<title>Node18</title>
<g id="a_node18"><a xlink:href="group__models__3d__fastener__screws.html#ga57dcfe1241e15eaa58ccd08891504a93" target="_top" xlink:title="Flat and beveled&#45;head fastener bore with nut, nut slot, and bore tolerance.">
<polygon fill="white" stroke="black" points="112.5,-114.5 112.5,-133.5 184.5,-133.5 184.5,-114.5 112.5,-114.5"/>
<text text-anchor="middle" x="148.5" y="-121.5" font-family="Helvetica,sans-Serif" font-size="10.00">screw_bore</text>
</a>
</g>
</g>
<!-- Node1&#45;&gt;Node18 -->
<g id="edge22" class="edge">
<title>Node1&#45;&gt;Node18</title>
<path fill="none" stroke="midnightblue" d="M32.41,-266.3C38.68,-242.94 57.6,-182.91 94,-148 98,-144.17 102.71,-140.88 107.65,-138.08"/>
<polygon fill="midnightblue" stroke="midnightblue" points="109.32,-141.16 116.69,-133.55 106.19,-134.9 109.32,-141.16"/>
</g>
<!-- Node19 -->
<g id="node19" class="node">
<title>Node19</title>
<g id="a_node19"><a xlink:href="group__datatypes__list__operate.html#ga7b8e6f2bbfa72ae61e39377e5ca6b5be" target="_top" xlink:title="Select specified element from list or return a default.">
<polygon fill="white" stroke="black" points="279.5,-95.5 279.5,-114.5 338.5,-114.5 338.5,-95.5 279.5,-95.5"/>
<text text-anchor="middle" x="309" y="-102.5" font-family="Helvetica,sans-Serif" font-size="10.00">select_ci</text>
</a>
</g>
</g>
<!-- Node1&#45;&gt;Node19 -->
<g id="edge27" class="edge">
<title>Node1&#45;&gt;Node19</title>
<path fill="none" stroke="midnightblue" d="M30.11,-266.4C31.06,-236.3 38.52,-143.48 94,-105 145.94,-68.98 223.36,-80.84 269.45,-92.84"/>
<polygon fill="midnightblue" stroke="midnightblue" points="268.78,-96.29 279.35,-95.55 270.63,-89.53 268.78,-96.29"/>
</g>
<!-- Node20 -->
<g id="node20" class="node">
<title>Node20</title>
<g id="a_node20"><a xlink:href="group__datatypes__list__operate.html#gab842ea235bf5fc40a14512083b49c8d2" target="_top" xlink:title="Convert a list of values to a concatenated string.">
<polygon fill="white" stroke="black" points="132.5,-38.5 132.5,-57.5 164.5,-57.5 164.5,-38.5 132.5,-38.5"/>
<text text-anchor="middle" x="148.5" y="-45.5" font-family="Helvetica,sans-Serif" font-size="10.00">strl</text>
</a>
</g>
</g>
<!-- Node1&#45;&gt;Node20 -->
<g id="edge28" class="edge">
<title>Node1&#45;&gt;Node20</title>
<path fill="none" stroke="midnightblue" d="M30.34,-266.12C31.96,-234.04 41.23,-131.37 94,-72 101.51,-63.55 112.56,-57.92 122.68,-54.25"/>
<polygon fill="midnightblue" stroke="midnightblue" points="123.83,-57.55 132.31,-51.2 121.72,-50.88 123.83,-57.55"/>
</g>
<!-- Node21 -->
<g id="node21" class="node">
<title>Node21</title>
<g id="a_node21"><a xlink:href="group__datatypes__iterable__operate.html#ga4a000b3543933067bb00c6950e9122b3" target="_top" xlink:title="Return the third element of an iterable value.">
<polygon fill="white" stroke="black" points="129,-0.5 129,-19.5 168,-19.5 168,-0.5 129,-0.5"/>
<text text-anchor="middle" x="148.5" y="-7.5" font-family="Helvetica,sans-Serif" font-size="10.00">third</text>
</a>
</g>
</g>
<!-- Node1&#45;&gt;Node21 -->
<g id="edge29" class="edge">
<title>Node1&#45;&gt;Node21</title>
<path fill="none" stroke="midnightblue" d="M29.52,-266.5C28.22,-230.44 28.48,-100.54 94,-29 100.53,-21.87 109.91,-17.42 119,-14.63"/>
<polygon fill="midnightblue" stroke="midnightblue" points="120.11,-17.96 128.97,-12.15 118.42,-11.17 120.11,-17.96"/>
</g>
<!-- Node4 -->
<g id="node4" class="node">
<title>Node4</title>
<g id="a_node4"><a xlink:href="group__units__angle.html#ga06a917b77748dfb74e765bcd7c4c0219" target="_top" xlink:title="Convert an angle value from one unit to another.">
<polygon fill="white" stroke="black" points="287,-532.5 287,-551.5 331,-551.5 331,-532.5 287,-532.5"/>
<text text-anchor="middle" x="309" y="-539.5" font-family="Helvetica,sans-Serif" font-size="10.00">angle</text>
</a>
</g>
</g>
<!-- Node3&#45;&gt;Node4 -->
<g id="edge3" class="edge">
<title>Node3&#45;&gt;Node4</title>
<path fill="none" stroke="midnightblue" d="M168.62,-508.58C195.51,-515.03 244.82,-526.85 277,-534.57"/>
<polygon fill="midnightblue" stroke="midnightblue" points="276.25,-537.99 286.79,-536.92 277.89,-531.18 276.25,-537.99"/>
</g>
<!-- Node3&#45;&gt;Node5 -->
<g id="edge4" class="edge">
<title>Node3&#45;&gt;Node5</title>
<path fill="none" stroke="midnightblue" d="M161.35,-494.26C173.42,-483.76 191.89,-465.97 203,-447 229.85,-401.15 200.74,-369.87 239,-333 244.79,-327.42 252.06,-323.45 259.69,-320.63"/>
<polygon fill="midnightblue" stroke="midnightblue" points="260.93,-323.91 269.46,-317.64 258.88,-317.22 260.93,-323.91"/>
</g>
<!-- Node6 -->
<g id="node6" class="node">
<title>Node6</title>
<g id="a_node6"><a xlink:href="group__math__polygon.html#ga7a0eff64929a142fc507615f83e3bd58" target="_top" xlink:title="Compute coordinates that round all of the vertices between each adjacent edges in 2D.">
<polygon fill="white" stroke="black" points="239,-456.5 239,-475.5 379,-475.5 379,-456.5 239,-456.5"/>
<text text-anchor="middle" x="309" y="-463.5" font-family="Helvetica,sans-Serif" font-size="10.00">polygon_round_eve_all_p</text>
</a>
</g>
</g>
<!-- Node3&#45;&gt;Node6 -->
<g id="edge5" class="edge">
<title>Node3&#45;&gt;Node6</title>
<path fill="none" stroke="midnightblue" d="M168.62,-499.42C190.66,-494.13 227.77,-485.24 258.15,-477.95"/>
<polygon fill="midnightblue" stroke="midnightblue" points="259.26,-481.29 268.17,-475.55 257.62,-474.48 259.26,-481.29"/>
</g>
<!-- Node7 -->
<g id="node7" class="node">
<title>Node7</title>
<g id="a_node7"><a xlink:href="group__math__triangle.html#gaab9b812d15418fd05c9d93f3bfcc1989" target="_top" xlink:title="Compute a set of vertex coordinates for a triangle given its side lengths in 2D.">
<polygon fill="white" stroke="black" points="253.5,-570.5 253.5,-589.5 364.5,-589.5 364.5,-570.5 253.5,-570.5"/>
<text text-anchor="middle" x="309" y="-577.5" font-family="Helvetica,sans-Serif" font-size="10.00">triangle2d_sss2ppp</text>
</a>
</g>
</g>
<!-- Node3&#45;&gt;Node7 -->
<g id="edge6" class="edge">
<title>Node3&#45;&gt;Node7</title>
<path fill="none" stroke="midnightblue" d="M168.57,-508.41C179.26,-511.44 192.51,-516.17 203,-523 222.5,-535.69 219.05,-549.03 239,-561 242.6,-563.16 246.44,-565.08 250.41,-566.78"/>
<polygon fill="midnightblue" stroke="midnightblue" points="249.24,-570.08 259.83,-570.39 251.75,-563.55 249.24,-570.08"/>
</g>
<!-- Node9&#45;&gt;Node5 -->
<g id="edge10" class="edge">
<title>Node9&#45;&gt;Node5</title>
<path fill="none" stroke="midnightblue" d="M158.67,-418.24C181.36,-394.07 238.38,-333.37 239,-333 245.29,-329.21 252.36,-326.16 259.51,-323.7"/>
<polygon fill="midnightblue" stroke="midnightblue" points="260.71,-327 269.24,-320.72 258.65,-320.31 260.71,-327"/>
</g>
<!-- Node9&#45;&gt;Node10 -->
<g id="edge11" class="edge">
<title>Node9&#45;&gt;Node10</title>
<path fill="none" stroke="midnightblue" d="M175.14,-437.53C184.27,-441.42 194.41,-446.35 203,-452 221.13,-463.93 220.01,-474.49 239,-485 252.04,-492.21 268.01,-496.84 281.3,-499.72"/>
<polygon fill="midnightblue" stroke="midnightblue" points="280.79,-503.18 291.27,-501.67 282.13,-496.31 280.79,-503.18"/>
</g>
<!-- Node11 -->
<g id="node11" class="node">
<title>Node11</title>
<g id="a_node11"><a xlink:href="group__datatypes__scalar__test.html#ga258e8911375d30ff85a6e52df01dc1c5" target="_top" xlink:title="Test if a value is a single non&#45;iterable value.">
<polygon fill="white" stroke="black" points="279.5,-418.5 279.5,-437.5 338.5,-437.5 338.5,-418.5 279.5,-418.5"/>
<text text-anchor="middle" x="309" y="-425.5" font-family="Helvetica,sans-Serif" font-size="10.00">is_scalar</text>
</a>
</g>
</g>
<!-- Node9&#45;&gt;Node11 -->
<g id="edge12" class="edge">
<title>Node9&#45;&gt;Node11</title>
<path fill="none" stroke="midnightblue" d="M203.16,-428C224.78,-428 249.25,-428 269.1,-428"/>
<polygon fill="midnightblue" stroke="midnightblue" points="269.32,-431.5 279.32,-428 269.32,-424.5 269.32,-431.5"/>
</g>
<!-- Node9&#45;&gt;Node12 -->
<g id="edge13" class="edge">
<title>Node9&#45;&gt;Node12</title>
<path fill="none" stroke="midnightblue" d="M189.5,-418.41C215.33,-412.22 248.62,-404.24 273.33,-398.31"/>
<polygon fill="midnightblue" stroke="midnightblue" points="274.45,-401.64 283.35,-395.91 272.81,-394.84 274.45,-401.64"/>
</g>
<!-- Node16&#45;&gt;Node5 -->
<g id="edge19" class="edge">
<title>Node16&#45;&gt;Node5</title>
<path fill="none" stroke="midnightblue" d="M188.68,-342.61C210.08,-337.48 236.77,-331.08 259.48,-325.63"/>
<polygon fill="midnightblue" stroke="midnightblue" points="260.36,-329.02 269.27,-323.29 258.73,-322.21 260.36,-329.02"/>
</g>
<!-- Node16&#45;&gt;Node6 -->
<g id="edge20" class="edge">
<title>Node16&#45;&gt;Node6</title>
<path fill="none" stroke="midnightblue" d="M158.67,-361.76C181.36,-385.93 238.38,-446.63 239,-447 242.59,-449.16 246.44,-451.09 250.4,-452.79"/>
<polygon fill="midnightblue" stroke="midnightblue" points="249.24,-456.09 259.83,-456.4 251.74,-449.56 249.24,-456.09"/>
</g>
<!-- Node17 -->
<g id="node17" class="node">
<title>Node17</title>
<g id="a_node17"><a xlink:href="group__math__linear__algebra.html#gaeabe74699fd0a437bad9a1d442bfd111" target="_top" xlink:title="Translate all coordinates dimensions.">
<polygon fill="white" stroke="black" points="273.5,-342.5 273.5,-361.5 344.5,-361.5 344.5,-342.5 273.5,-342.5"/>
<text text-anchor="middle" x="309" y="-349.5" font-family="Helvetica,sans-Serif" font-size="10.00">translate_p</text>
</a>
</g>
</g>
<!-- Node16&#45;&gt;Node17 -->
<g id="edge21" class="edge">
<title>Node16&#45;&gt;Node17</title>
<path fill="none" stroke="midnightblue" d="M188.68,-352C211.28,-352 239.78,-352 263.26,-352"/>
<polygon fill="midnightblue" stroke="midnightblue" points="263.31,-355.5 273.31,-352 263.31,-348.5 263.31,-355.5"/>
</g>
<!-- Node18&#45;&gt;Node5 -->
<g id="edge23" class="edge">
<title>Node18&#45;&gt;Node5</title>
<path fill="none" stroke="midnightblue" d="M159.24,-133.85C170.17,-145.03 188.3,-163.93 203,-181 237.52,-221.08 275.35,-270.47 294.8,-296.32"/>
<polygon fill="midnightblue" stroke="midnightblue" points="292.09,-298.53 300.89,-304.43 297.69,-294.33 292.09,-298.53"/>
</g>
<!-- Node18&#45;&gt;Node8 -->
<g id="edge24" class="edge">
<title>Node18&#45;&gt;Node8</title>
<path fill="none" stroke="midnightblue" d="M184.68,-132.43C206.3,-137.62 234.35,-144.34 258.23,-150.07"/>
<polygon fill="midnightblue" stroke="midnightblue" points="257.64,-153.53 268.18,-152.45 259.27,-146.72 257.64,-153.53"/>
</g>
<!-- Node18&#45;&gt;Node19 -->
<g id="edge25" class="edge">
<title>Node18&#45;&gt;Node19</title>
<path fill="none" stroke="midnightblue" d="M184.68,-119.78C209.69,-116.79 243.28,-112.76 269.09,-109.66"/>
<polygon fill="midnightblue" stroke="midnightblue" points="269.76,-113.11 279.27,-108.44 268.93,-106.16 269.76,-113.11"/>
</g>
</g>
</svg>
