<?xml version="1.0" encoding="UTF-8" standalone="no"?>
<!DOCTYPE svg PUBLIC "-//W3C//DTD SVG 1.1//EN"
 "http://www.w3.org/Graphics/SVG/1.1/DTD/svg11.dtd">
<!-- Generated by graphviz version 2.43.0 (0)
 -->
<!-- Title: Motion Pages: 1 -->
<svg width="409pt" height="37pt"
 viewBox="0.00 0.00 409.00 36.95" xmlns="http://www.w3.org/2000/svg" xmlns:xlink="http://www.w3.org/1999/xlink">
<g id="graph0" class="graph" transform="scale(1 1) rotate(0) translate(4 32.95)">
<title>Motion</title>
<polygon fill="white" stroke="transparent" points="-4,4 -4,-32.95 405,-32.95 405,4 -4,4"/>
<!-- Node2 -->
<g id="node1" class="node">
<title>Node2</title>
<g id="a_node1"><a xlink:href="group__parts__3d.html" target="_top" xlink:title="3d parts, part generators, and small assemblies.">
<polygon fill="white" stroke="black" points="56,-28.95 0,-28.95 0,-9.95 56,-9.95 56,-28.95"/>
<text text-anchor="middle" x="28" y="-16.95" font-family="Helvetica,sans-Serif" font-size="10.00">3d Parts</text>
</a>
</g>
</g>
<!-- Node1 -->
<g id="node3" class="node">
<title>Node1</title>
<g id="a_node3"><a xlink:title="Parts that facilitate mechanical motion.">
<polygon fill="#bfbfbf" stroke="black" points="143,-28.95 93,-28.95 93,-9.95 143,-9.95 143,-28.95"/>
<text text-anchor="middle" x="118" y="-16.95" font-family="Helvetica,sans-Serif" font-size="10.00">Motion</text>
</a>
</g>
</g>
<!-- Node2&#45;&gt;Node1 -->
<g id="edge1" class="edge">
<title>Node2&#45;&gt;Node1</title>
<path fill="none" stroke="black" d="M66.58,-19.45C75.51,-19.45 84.8,-19.45 92.93,-19.45"/>
<polygon fill="black" stroke="black" points="66.36,-15.95 56.36,-19.45 66.36,-22.95 66.36,-15.95"/>
</g>
<!-- Node3 -->
<g id="node2" class="node">
<title>Node3</title>
<g id="a_node2"><a xlink:href="group__parts__3d__motion__bearing__linear__rod.html" target="_top" xlink:title="Linear rod ball and sled bearing.">
<polygon fill="white" stroke="black" points="401,-28.95 296,-28.95 296,-9.95 401,-9.95 401,-28.95"/>
<text text-anchor="middle" x="348.5" y="-16.95" font-family="Helvetica,sans-Serif" font-size="10.00">Linear rod bearing</text>
</a>
</g>
</g>
<!-- Node1&#45;&gt;Node3 -->
<g id="edge2" class="edge">
<title>Node1&#45;&gt;Node3</title>
<path fill="none" stroke="black" d="M153.47,-19.45C191.19,-19.45 252.05,-19.45 295.55,-19.45"/>
<polygon fill="black" stroke="black" points="153.02,-15.95 143.02,-19.45 153.02,-22.95 153.02,-15.95"/>
</g>
<!-- Node1&#45;&gt;Node3 -->
<g id="edge3" class="edge">
<title>Node1&#45;&gt;Node3</title>
<path fill="none" stroke="darkgreen" stroke-dasharray="5,2" d="M143.1,-9.95C148.87,-8.09 155.08,-6.41 161,-5.45 212.33,2.87 226.26,-0.29 278,-5.45 287.55,-6.41 297.74,-8.08 307.28,-9.94"/>
<text text-anchor="middle" x="219.5" y="-8.45" font-family="Helvetica,sans-Serif" font-size="10.00">bearing_linear_rod.scad</text>
</g>
</g>
</svg>
