<?xml version="1.0" encoding="UTF-8" standalone="no"?>
<!DOCTYPE svg PUBLIC "-//W3C//DTD SVG 1.1//EN"
 "http://www.w3.org/Graphics/SVG/1.1/DTD/svg11.dtd">
<!-- Generated by graphviz version 2.43.0 (0)
 -->
<!-- Title: Computer Pages: 1 -->
<svg width="396pt" height="84pt"
 viewBox="0.00 0.00 396.00 84.22" xmlns="http://www.w3.org/2000/svg" xmlns:xlink="http://www.w3.org/1999/xlink">
<g id="graph0" class="graph" transform="scale(1 1) rotate(0) translate(4 80.22)">
<title>Computer</title>
<polygon fill="white" stroke="transparent" points="-4,4 -4,-80.22 392,-80.22 392,4 -4,4"/>
<!-- Node2 -->
<g id="node1" class="node">
<title>Node2</title>
<g id="a_node1"><a xlink:href="group__parts__3d.html" target="_top" xlink:title="3d parts, part generators, and small assemblies.">
<polygon fill="white" stroke="black" points="56,-49.18 0,-49.18 0,-30.18 56,-30.18 56,-49.18"/>
<text text-anchor="middle" x="28" y="-37.18" font-family="Helvetica,sans-Serif" font-size="10.00">3d Parts</text>
</a>
</g>
</g>
<!-- Node1 -->
<g id="node4" class="node">
<title>Node1</title>
<g id="a_node4"><a xlink:title="Mechanical computer parts.">
<polygon fill="#bfbfbf" stroke="black" points="158,-49.18 93,-49.18 93,-30.18 158,-30.18 158,-49.18"/>
<text text-anchor="middle" x="125.5" y="-37.18" font-family="Helvetica,sans-Serif" font-size="10.00">Computer</text>
</a>
</g>
</g>
<!-- Node2&#45;&gt;Node1 -->
<g id="edge1" class="edge">
<title>Node2&#45;&gt;Node1</title>
<path fill="none" stroke="black" d="M66.18,-39.68C75.02,-39.68 84.37,-39.68 92.93,-39.68"/>
<polygon fill="black" stroke="black" points="66.11,-36.18 56.11,-39.68 66.11,-43.18 66.11,-36.18"/>
</g>
<!-- Node3 -->
<g id="node2" class="node">
<title>Node3</title>
<g id="a_node2"><a xlink:href="group__parts__3d__computer__pci__bracket.html" target="_top" xlink:title="PCI slot cover bracket generator.">
<polygon fill="white" stroke="black" points="377.5,-73.18 306.5,-73.18 306.5,-54.18 377.5,-54.18 377.5,-73.18"/>
<text text-anchor="middle" x="342" y="-61.18" font-family="Helvetica,sans-Serif" font-size="10.00">PCI bracket</text>
</a>
</g>
</g>
<!-- Node4 -->
<g id="node3" class="node">
<title>Node4</title>
<g id="a_node3"><a xlink:href="group__parts__3d__computer__pcie__expansion.html" target="_top" xlink:title="PCI Express expansion chassis and/or enclosure generator.">
<polygon fill="white" stroke="black" points="388,-25.18 296,-25.18 296,-6.18 388,-6.18 388,-25.18"/>
<text text-anchor="middle" x="342" y="-13.18" font-family="Helvetica,sans-Serif" font-size="10.00">PCIe Expansion</text>
</a>
</g>
</g>
<!-- Node1&#45;&gt;Node3 -->
<g id="edge2" class="edge">
<title>Node1&#45;&gt;Node3</title>
<path fill="none" stroke="black" d="M147.13,-55.07C155.62,-60.49 165.83,-65.92 176,-68.68 219.7,-80.53 272.31,-75.85 306.19,-70.53"/>
<polygon fill="black" stroke="black" points="148.92,-52.05 138.69,-49.31 144.98,-57.84 148.92,-52.05"/>
</g>
<!-- Node1&#45;&gt;Node3 -->
<g id="edge4" class="edge">
<title>Node1&#45;&gt;Node3</title>
<path fill="none" stroke="darkgreen" stroke-dasharray="5,2" d="M158.15,-42.82C188.81,-45.92 236.62,-50.86 278,-55.68 287.2,-56.75 297.14,-57.97 306.36,-59.14"/>
<text text-anchor="middle" x="227" y="-58.68" font-family="Helvetica,sans-Serif" font-size="10.00">pci_bracket.scad</text>
</g>
<!-- Node1&#45;&gt;Node4 -->
<g id="edge3" class="edge">
<title>Node1&#45;&gt;Node4</title>
<path fill="none" stroke="black" d="M168.49,-34.98C205.13,-30.88 258.16,-24.94 295.74,-20.74"/>
<polygon fill="black" stroke="black" points="167.7,-31.54 158.15,-36.13 168.48,-38.5 167.7,-31.54"/>
</g>
<!-- Node1&#45;&gt;Node4 -->
<g id="edge5" class="edge">
<title>Node1&#45;&gt;Node4</title>
<path fill="none" stroke="darkgreen" stroke-dasharray="5,2" d="M137.36,-29.99C146.81,-22.26 161.28,-12.02 176,-7.68 216.57,4.3 265.17,-0.18 299.07,-6.13"/>
<text text-anchor="middle" x="227" y="-10.68" font-family="Helvetica,sans-Serif" font-size="10.00">pcie_expansion.scad</text>
</g>
</g>
</svg>
