<?xml version="1.0" encoding="UTF-8" standalone="no"?>
<!DOCTYPE svg PUBLIC "-//W3C//DTD SVG 1.1//EN"
 "http://www.w3.org/Graphics/SVG/1.1/DTD/svg11.dtd">
<!-- Generated by graphviz version 2.43.0 (0)
 -->
<!-- Title: angle_ll Pages: 1 -->
<svg width="794pt" height="332pt"
 viewBox="0.00 0.00 794.00 332.00" xmlns="http://www.w3.org/2000/svg" xmlns:xlink="http://www.w3.org/1999/xlink">
<g id="graph0" class="graph" transform="scale(1 1) rotate(0) translate(4 328)">
<title>angle_ll</title>
<polygon fill="white" stroke="transparent" points="-4,4 -4,-328 790,-328 790,4 -4,4"/>
<!-- Node1 -->
<g id="node1" class="node">
<title>Node1</title>
<g id="a_node1"><a xlink:title="Compute the angle between two lines or vectors in a 3d or 2d&#45;space.">
<polygon fill="#bfbfbf" stroke="black" points="731,-190.5 731,-209.5 786,-209.5 786,-190.5 731,-190.5"/>
<text text-anchor="middle" x="758.5" y="-197.5" font-family="Helvetica,sans-Serif" font-size="10.00">angle_ll</text>
</a>
</g>
</g>
<!-- Node2 -->
<g id="node2" class="node">
<title>Node2</title>
<g id="a_node2"><a xlink:href="group__transforms__align.html#ga8f52a6a936d0f5e248f836d19df14a9f" target="_top" xlink:title="Orient a line or vector to a reference line or vector.">
<polygon fill="white" stroke="black" points="626.5,-247.5 626.5,-266.5 682.5,-266.5 682.5,-247.5 626.5,-247.5"/>
<text text-anchor="middle" x="654.5" y="-254.5" font-family="Helvetica,sans-Serif" font-size="10.00">orient_ll</text>
</a>
</g>
</g>
<!-- Node1&#45;&gt;Node2 -->
<g id="edge1" class="edge">
<title>Node1&#45;&gt;Node2</title>
<path fill="none" stroke="midnightblue" d="M731.38,-214.59C712.89,-224.93 688.6,-238.5 672.55,-247.47"/>
<polygon fill="midnightblue" stroke="midnightblue" points="733.18,-217.6 740.2,-209.67 729.76,-211.49 733.18,-217.6"/>
</g>
<!-- Node7 -->
<g id="node7" class="node">
<title>Node7</title>
<g id="a_node7"><a xlink:href="group__transforms__repeat.html#ga8da1e3a852a1b25ba93437a6fe46745f" target="_top" xlink:title="Radially repeat copies of child objects about a z&#45;axis radius.">
<polygon fill="white" stroke="black" points="614,-95.5 614,-114.5 695,-114.5 695,-95.5 614,-95.5"/>
<text text-anchor="middle" x="654.5" y="-102.5" font-family="Helvetica,sans-Serif" font-size="10.00">repeat_radial</text>
</a>
</g>
</g>
<!-- Node1&#45;&gt;Node7 -->
<g id="edge6" class="edge">
<title>Node1&#45;&gt;Node7</title>
<path fill="none" stroke="midnightblue" d="M739.5,-183.23C718.09,-163.3 683.1,-130.71 665.82,-114.61"/>
<polygon fill="midnightblue" stroke="midnightblue" points="737.27,-185.94 746.97,-190.19 742.04,-180.81 737.27,-185.94"/>
</g>
<!-- Node19 -->
<g id="node19" class="node">
<title>Node19</title>
<g id="a_node19"><a xlink:href="group__shapes__common__2d.html#ga418d0856a660b285e273037b014d31f7" target="_top" xlink:title="A rhombus.">
<polygon fill="white" stroke="black" points="332.5,-190.5 332.5,-209.5 391.5,-209.5 391.5,-190.5 332.5,-190.5"/>
<text text-anchor="middle" x="362" y="-197.5" font-family="Helvetica,sans-Serif" font-size="10.00">rhombus</text>
</a>
</g>
</g>
<!-- Node1&#45;&gt;Node19 -->
<g id="edge22" class="edge">
<title>Node1&#45;&gt;Node19</title>
<path fill="none" stroke="midnightblue" d="M720.36,-200C642.13,-200 461.87,-200 391.69,-200"/>
<polygon fill="midnightblue" stroke="midnightblue" points="720.69,-203.5 730.69,-200 720.69,-196.5 720.69,-203.5"/>
</g>
<!-- Node3 -->
<g id="node3" class="node">
<title>Node3</title>
<g id="a_node3"><a xlink:href="group__transforms__align.html#gac695554e76def13eeb5a15a349f5fa12" target="_top" xlink:title="Align a line or vector to a reference line or vector.">
<polygon fill="white" stroke="black" points="498.5,-304.5 498.5,-323.5 550.5,-323.5 550.5,-304.5 498.5,-304.5"/>
<text text-anchor="middle" x="524.5" y="-311.5" font-family="Helvetica,sans-Serif" font-size="10.00">align_ll</text>
</a>
</g>
</g>
<!-- Node2&#45;&gt;Node3 -->
<g id="edge2" class="edge">
<title>Node2&#45;&gt;Node3</title>
<path fill="none" stroke="midnightblue" d="M626.85,-271.39C612.56,-278.85 594.53,-287.88 578,-295 569.19,-298.8 559.34,-302.5 550.57,-305.61"/>
<polygon fill="midnightblue" stroke="midnightblue" points="628.88,-274.28 636.09,-266.51 625.61,-268.09 628.88,-274.28"/>
</g>
<!-- Node5 -->
<g id="node5" class="node">
<title>Node5</title>
<g id="a_node5"><a xlink:href="group__tools__common__polytope.html#ga530c86f9c90ce074aa7adc29834f0539" target="_top" xlink:title="Assemble a polytope skeletal frame using child objects.">
<polygon fill="white" stroke="black" points="477.5,-266.5 477.5,-285.5 571.5,-285.5 571.5,-266.5 477.5,-266.5"/>
<text text-anchor="middle" x="524.5" y="-273.5" font-family="Helvetica,sans-Serif" font-size="10.00">polytope_frame</text>
</a>
</g>
</g>
<!-- Node2&#45;&gt;Node5 -->
<g id="edge4" class="edge">
<title>Node2&#45;&gt;Node5</title>
<path fill="none" stroke="midnightblue" d="M616.14,-262.55C602.17,-264.62 586.15,-267 571.5,-269.17"/>
<polygon fill="midnightblue" stroke="midnightblue" points="616.98,-265.96 626.35,-261.03 615.95,-259.04 616.98,-265.96"/>
</g>
<!-- Node6 -->
<g id="node6" class="node">
<title>Node6</title>
<g id="a_node6"><a xlink:href="group__tools__common__polytope.html#ga00b574079f19251be7281151d11db8fa" target="_top" xlink:title="Label the vertices, paths, and edges of a polytope.">
<polygon fill="white" stroke="black" points="473.5,-228.5 473.5,-247.5 575.5,-247.5 575.5,-228.5 473.5,-228.5"/>
<text text-anchor="middle" x="524.5" y="-235.5" font-family="Helvetica,sans-Serif" font-size="10.00">polytope_number</text>
</a>
</g>
</g>
<!-- Node2&#45;&gt;Node6 -->
<g id="edge5" class="edge">
<title>Node2&#45;&gt;Node6</title>
<path fill="none" stroke="midnightblue" d="M616.16,-251.46C603.49,-249.58 589.11,-247.44 575.6,-245.44"/>
<polygon fill="midnightblue" stroke="midnightblue" points="615.95,-254.96 626.35,-252.97 616.98,-248.04 615.95,-254.96"/>
</g>
<!-- Node4 -->
<g id="node4" class="node">
<title>Node4</title>
<g id="a_node4"><a xlink:href="group__transforms__align.html#ga8a1b75b5a53478f7ce1ca287cc479364" target="_top" xlink:title="Align an objects Cartesian axis to reference line or vector.">
<polygon fill="white" stroke="black" points="334.5,-304.5 334.5,-323.5 389.5,-323.5 389.5,-304.5 334.5,-304.5"/>
<text text-anchor="middle" x="362" y="-311.5" font-family="Helvetica,sans-Serif" font-size="10.00">align_al</text>
</a>
</g>
</g>
<!-- Node3&#45;&gt;Node4 -->
<g id="edge3" class="edge">
<title>Node3&#45;&gt;Node4</title>
<path fill="none" stroke="midnightblue" d="M488.05,-314C458.29,-314 416.43,-314 389.5,-314"/>
<polygon fill="midnightblue" stroke="midnightblue" points="488.42,-317.5 498.42,-314 488.42,-310.5 488.42,-317.5"/>
</g>
<!-- Node8 -->
<g id="node8" class="node">
<title>Node8</title>
<g id="a_node8"><a xlink:href="group__parts__3d__motion__bearing__linear__rod.html#ga0064887f7c89f8915895c0243bec4a4c" target="_top" xlink:title="Transform 2d or 3d shape into a linear rod ball or sled bearing.">
<polygon fill="white" stroke="black" points="471,-114.5 471,-133.5 578,-133.5 578,-114.5 471,-114.5"/>
<text text-anchor="middle" x="524.5" y="-121.5" font-family="Helvetica,sans-Serif" font-size="10.00">bearing_linear_rod</text>
</a>
</g>
</g>
<!-- Node7&#45;&gt;Node8 -->
<g id="edge7" class="edge">
<title>Node7&#45;&gt;Node8</title>
<path fill="none" stroke="midnightblue" d="M603.78,-112.38C595.48,-113.61 586.83,-114.9 578.45,-116.14"/>
<polygon fill="midnightblue" stroke="midnightblue" points="604.32,-115.84 613.7,-110.91 603.3,-108.91 604.32,-115.84"/>
</g>
<!-- Node9 -->
<g id="node9" class="node">
<title>Node9</title>
<g id="a_node9"><a xlink:href="group__parts__3d__fastener__clamps.html#gad5d667c41776480785c62759c61a137e" target="_top" xlink:title="A clamp, bushing, and/or grip for wire, hose, and/or pipe wall penetrations.">
<polygon fill="white" stroke="black" points="159,-152.5 159,-171.5 222,-171.5 222,-152.5 159,-152.5"/>
<text text-anchor="middle" x="190.5" y="-159.5" font-family="Helvetica,sans-Serif" font-size="10.00">clamp_cg</text>
</a>
</g>
</g>
<!-- Node7&#45;&gt;Node9 -->
<g id="edge8" class="edge">
<title>Node7&#45;&gt;Node9</title>
<path fill="none" stroke="midnightblue" d="M630.18,-119.94C615.75,-128.35 596.51,-138.12 578,-143 449.37,-176.9 288.51,-169.73 222.22,-164.74"/>
<polygon fill="midnightblue" stroke="midnightblue" points="632.16,-122.83 638.91,-114.67 628.54,-116.84 632.16,-122.83"/>
</g>
<!-- Node12 -->
<g id="node12" class="node">
<title>Node12</title>
<g id="a_node12"><a xlink:href="group__models__3d__misc__omdl__logo.html#gab176f64dad7e83d4fb056be44b71f630" target="_top" xlink:title="Standard omdl logo.">
<polygon fill="white" stroke="black" points="328,-0.5 328,-19.5 396,-19.5 396,-0.5 328,-0.5"/>
<text text-anchor="middle" x="362" y="-7.5" font-family="Helvetica,sans-Serif" font-size="10.00">omdl_logo</text>
</a>
</g>
</g>
<!-- Node7&#45;&gt;Node12 -->
<g id="edge11" class="edge">
<title>Node7&#45;&gt;Node12</title>
<path fill="none" stroke="midnightblue" d="M641.42,-86.89C628.21,-68.76 605.25,-41.77 578,-29 518.63,-1.16 439.96,-2.51 396.12,-6.14"/>
<polygon fill="midnightblue" stroke="midnightblue" points="638.81,-89.26 647.41,-95.44 644.54,-85.24 638.81,-89.26"/>
</g>
<!-- Node13 -->
<g id="node13" class="node">
<title>Node13</title>
<g id="a_node13"><a xlink:href="group__shapes__common__2d.html#ga0e810e30a9ec109e004677036012c428" target="_top" xlink:title="A two&#45;dimensional star.">
<polygon fill="white" stroke="black" points="501,-38.5 501,-57.5 548,-57.5 548,-38.5 501,-38.5"/>
<text text-anchor="middle" x="524.5" y="-45.5" font-family="Helvetica,sans-Serif" font-size="10.00">star2d</text>
</a>
</g>
</g>
<!-- Node7&#45;&gt;Node13 -->
<g id="edge13" class="edge">
<title>Node7&#45;&gt;Node13</title>
<path fill="none" stroke="midnightblue" d="M626.85,-90.61C612.56,-83.15 594.53,-74.12 578,-67 568.39,-62.86 557.54,-58.83 548.21,-55.56"/>
<polygon fill="midnightblue" stroke="midnightblue" points="625.61,-93.91 636.09,-95.49 628.88,-87.72 625.61,-93.91"/>
</g>
<!-- Node17 -->
<g id="node17" class="node">
<title>Node17</title>
<g id="a_node17"><a xlink:href="group__shapes__common__3d.html#ga4ce7dbd0b00fa303b5a6fdb8c4c34ab2" target="_top" xlink:title="A three&#45;dimensional star.">
<polygon fill="white" stroke="black" points="501,-76.5 501,-95.5 548,-95.5 548,-76.5 501,-76.5"/>
<text text-anchor="middle" x="524.5" y="-83.5" font-family="Helvetica,sans-Serif" font-size="10.00">star3d</text>
</a>
</g>
</g>
<!-- Node7&#45;&gt;Node17 -->
<g id="edge19" class="edge">
<title>Node7&#45;&gt;Node17</title>
<path fill="none" stroke="midnightblue" d="M603.58,-97.59C584.42,-94.75 563.48,-91.64 548.12,-89.36"/>
<polygon fill="midnightblue" stroke="midnightblue" points="603.3,-101.09 613.7,-99.09 604.32,-94.16 603.3,-101.09"/>
</g>
<!-- Node10 -->
<g id="node10" class="node">
<title>Node10</title>
<g id="a_node10"><a xlink:href="group__parts__3d__computer__pcie__expansion.html#gab6fb1c9f8f6550633467f4ec0bd3f983" target="_top" xlink:title="Generate a PCI Express expansion open chassis or closed enclosure.">
<polygon fill="white" stroke="black" points="0,-152.5 0,-171.5 92,-171.5 92,-152.5 0,-152.5"/>
<text text-anchor="middle" x="46" y="-159.5" font-family="Helvetica,sans-Serif" font-size="10.00">pcie_expansion</text>
</a>
</g>
</g>
<!-- Node9&#45;&gt;Node10 -->
<g id="edge9" class="edge">
<title>Node9&#45;&gt;Node10</title>
<path fill="none" stroke="midnightblue" d="M148.9,-162C131.18,-162 110.34,-162 92.14,-162"/>
<polygon fill="midnightblue" stroke="midnightblue" points="148.93,-165.5 158.93,-162 148.93,-158.5 148.93,-165.5"/>
</g>
<!-- Node11 -->
<g id="node11" class="node">
<title>Node11</title>
<g id="a_node11"><a xlink:href="group__parts__3d__enclosure__power__strip.html#ga33509a1811b27fe7f3687957d4d32460" target="_top" xlink:title="A power strip generator for single gang electrical receptacles.">
<polygon fill="white" stroke="black" points="1,-76.5 1,-95.5 91,-95.5 91,-76.5 1,-76.5"/>
<text text-anchor="middle" x="46" y="-83.5" font-family="Helvetica,sans-Serif" font-size="10.00">power_strip_sg</text>
</a>
</g>
</g>
<!-- Node9&#45;&gt;Node11 -->
<g id="edge10" class="edge">
<title>Node9&#45;&gt;Node11</title>
<path fill="none" stroke="midnightblue" d="M162.4,-147.54C133.77,-132.28 89.45,-108.64 64.9,-95.55"/>
<polygon fill="midnightblue" stroke="midnightblue" points="160.98,-150.76 171.45,-152.37 164.28,-144.58 160.98,-150.76"/>
</g>
<!-- Node12&#45;&gt;Node11 -->
<g id="edge12" class="edge">
<title>Node12&#45;&gt;Node11</title>
<path fill="none" stroke="midnightblue" d="M317.8,-6.87C269.91,-4.9 191.11,-6.16 128,-29 99.22,-39.42 71.3,-62.91 56.96,-76.25"/>
<polygon fill="midnightblue" stroke="midnightblue" points="317.66,-10.37 327.82,-7.35 318,-3.37 317.66,-10.37"/>
</g>
<!-- Node14 -->
<g id="node14" class="node">
<title>Node14</title>
<g id="a_node14"><a xlink:href="group__shapes__select__common__2d.html#gadde46fda315aab438eda3f752fec2aed" target="_top" xlink:title="Select configure and construct one of the available 2d shapes.">
<polygon fill="white" stroke="black" points="289,-38.5 289,-57.5 435,-57.5 435,-38.5 289,-38.5"/>
<text text-anchor="middle" x="362" y="-45.5" font-family="Helvetica,sans-Serif" font-size="10.00">select_common_2d_shape</text>
</a>
</g>
</g>
<!-- Node13&#45;&gt;Node14 -->
<g id="edge14" class="edge">
<title>Node13&#45;&gt;Node14</title>
<path fill="none" stroke="midnightblue" d="M490.44,-48C474.44,-48 454.55,-48 435.28,-48"/>
<polygon fill="midnightblue" stroke="midnightblue" points="490.84,-51.5 500.84,-48 490.84,-44.5 490.84,-51.5"/>
</g>
<!-- Node15 -->
<g id="node15" class="node">
<title>Node15</title>
<g id="a_node15"><a xlink:href="group__parts__2d__enclosure__box__finger__joint.html#gacc1bfb220bc3cfed46dcaa3b84898020" target="_top" xlink:title="Generate a 2D box design using screw&#45;based finger joint (box&#45;joint).">
<polygon fill="white" stroke="black" points="137,-38.5 137,-57.5 244,-57.5 244,-38.5 137,-38.5"/>
<text text-anchor="middle" x="190.5" y="-45.5" font-family="Helvetica,sans-Serif" font-size="10.00">box2d_finger_joint</text>
</a>
</g>
</g>
<!-- Node14&#45;&gt;Node15 -->
<g id="edge15" class="edge">
<title>Node14&#45;&gt;Node15</title>
<path fill="none" stroke="midnightblue" d="M278.41,-48C266.75,-48 255.04,-48 244.15,-48"/>
<polygon fill="midnightblue" stroke="midnightblue" points="278.63,-51.5 288.63,-48 278.63,-44.5 278.63,-51.5"/>
</g>
<!-- Node16 -->
<g id="node16" class="node">
<title>Node16</title>
<g id="a_node16"><a xlink:href="group__parts__3d__enclosure__project__box__rectangle.html#ga24cdfe5fd4bb74b75409d9afdbe1f0c0" target="_top" xlink:title="A rectangular box maker for project boxes, enclosures and housings.">
<polygon fill="white" stroke="black" points="128,-76.5 128,-95.5 253,-95.5 253,-76.5 128,-76.5"/>
<text text-anchor="middle" x="190.5" y="-83.5" font-family="Helvetica,sans-Serif" font-size="10.00">project_box_rectangle</text>
</a>
</g>
</g>
<!-- Node14&#45;&gt;Node16 -->
<g id="edge16" class="edge">
<title>Node14&#45;&gt;Node16</title>
<path fill="none" stroke="midnightblue" d="M308.26,-59.82C284.36,-65.18 256.48,-71.43 233.96,-76.48"/>
<polygon fill="midnightblue" stroke="midnightblue" points="309.24,-63.19 318.23,-57.59 307.7,-56.36 309.24,-63.19"/>
</g>
<!-- Node16&#45;&gt;Node10 -->
<g id="edge17" class="edge">
<title>Node16&#45;&gt;Node10</title>
<path fill="none" stroke="midnightblue" d="M162.4,-100.46C133.77,-115.72 89.45,-139.36 64.9,-152.45"/>
<polygon fill="midnightblue" stroke="midnightblue" points="164.28,-103.42 171.45,-95.63 160.98,-97.24 164.28,-103.42"/>
</g>
<!-- Node16&#45;&gt;Node11 -->
<g id="edge18" class="edge">
<title>Node16&#45;&gt;Node11</title>
<path fill="none" stroke="midnightblue" d="M117.65,-86C108.61,-86 99.59,-86 91.16,-86"/>
<polygon fill="midnightblue" stroke="midnightblue" points="117.83,-89.5 127.83,-86 117.83,-82.5 117.83,-89.5"/>
</g>
<!-- Node18 -->
<g id="node18" class="node">
<title>Node18</title>
<g id="a_node18"><a xlink:href="group__shapes__select__common__3d.html#ga3fd7f214eff2f5935ad1bb56415a4aaf" target="_top" xlink:title="Select configure and construct one of the available 3d shapes.">
<polygon fill="white" stroke="black" points="289,-76.5 289,-95.5 435,-95.5 435,-76.5 289,-76.5"/>
<text text-anchor="middle" x="362" y="-83.5" font-family="Helvetica,sans-Serif" font-size="10.00">select_common_3d_shape</text>
</a>
</g>
</g>
<!-- Node17&#45;&gt;Node18 -->
<g id="edge20" class="edge">
<title>Node17&#45;&gt;Node18</title>
<path fill="none" stroke="midnightblue" d="M490.44,-86C474.44,-86 454.55,-86 435.28,-86"/>
<polygon fill="midnightblue" stroke="midnightblue" points="490.84,-89.5 500.84,-86 490.84,-82.5 490.84,-89.5"/>
</g>
<!-- Node18&#45;&gt;Node16 -->
<g id="edge21" class="edge">
<title>Node18&#45;&gt;Node16</title>
<path fill="none" stroke="midnightblue" d="M278.62,-86C270.07,-86 261.49,-86 253.22,-86"/>
<polygon fill="midnightblue" stroke="midnightblue" points="278.63,-89.5 288.63,-86 278.63,-82.5 278.63,-89.5"/>
</g>
<!-- Node19&#45;&gt;Node9 -->
<g id="edge23" class="edge">
<title>Node19&#45;&gt;Node9</title>
<path fill="none" stroke="midnightblue" d="M322.41,-191.35C292.02,-184.54 250.23,-175.17 222.12,-168.86"/>
<polygon fill="midnightblue" stroke="midnightblue" points="321.72,-194.78 332.25,-193.55 323.25,-187.95 321.72,-194.78"/>
</g>
<!-- Node20 -->
<g id="node20" class="node">
<title>Node20</title>
<g id="a_node20"><a xlink:href="group__parts__3d__fastener__clamps.html#gac715fdab9961aff45be668fb23556835" target="_top" xlink:title="A one piece zip tie clamp to secure wires or provide strain relief.">
<polygon fill="white" stroke="black" points="151.5,-190.5 151.5,-209.5 229.5,-209.5 229.5,-190.5 151.5,-190.5"/>
<text text-anchor="middle" x="190.5" y="-197.5" font-family="Helvetica,sans-Serif" font-size="10.00">clamp_zt_1p</text>
</a>
</g>
</g>
<!-- Node19&#45;&gt;Node20 -->
<g id="edge24" class="edge">
<title>Node19&#45;&gt;Node20</title>
<path fill="none" stroke="midnightblue" d="M322.11,-200C294.36,-200 257.23,-200 229.65,-200"/>
<polygon fill="midnightblue" stroke="midnightblue" points="322.25,-203.5 332.25,-200 322.25,-196.5 322.25,-203.5"/>
</g>
<!-- Node20&#45;&gt;Node10 -->
<g id="edge25" class="edge">
<title>Node20&#45;&gt;Node10</title>
<path fill="none" stroke="midnightblue" d="M143.85,-187.83C124.14,-182.57 101.43,-176.51 82.95,-171.59"/>
<polygon fill="midnightblue" stroke="midnightblue" points="142.98,-191.22 153.54,-190.41 144.78,-184.45 142.98,-191.22"/>
</g>
</g>
</svg>
