<?xml version="1.0" encoding="UTF-8" standalone="no"?>
<!DOCTYPE svg PUBLIC "-//W3C//DTD SVG 1.1//EN"
 "http://www.w3.org/Graphics/SVG/1.1/DTD/svg11.dtd">
<!-- Generated by graphviz version 2.43.0 (0)
 -->
<!-- Title: Clamps Pages: 1 -->
<svg width="216pt" height="35pt"
 viewBox="0.00 0.00 216.00 34.60" xmlns="http://www.w3.org/2000/svg" xmlns:xlink="http://www.w3.org/1999/xlink">
<g id="graph0" class="graph" transform="scale(1 1) rotate(0) translate(4 30.6)">
<title>Clamps</title>
<polygon fill="white" stroke="transparent" points="-4,4 -4,-30.6 212,-30.6 212,4 -4,4"/>
<!-- Node2 -->
<g id="node1" class="node">
<title>Node2</title>
<g id="a_node1"><a xlink:href="group__parts__3d__fastener.html" target="_top" xlink:title="Fasteners, connectors, joiners, latches, and hinges.">
<polygon fill="white" stroke="black" points="58,-26.6 0,-26.6 0,-7.6 58,-7.6 58,-26.6"/>
<text text-anchor="middle" x="29" y="-14.6" font-family="Helvetica,sans-Serif" font-size="10.00">Fastener</text>
</a>
</g>
</g>
<!-- Node1 -->
<g id="node2" class="node">
<title>Node1</title>
<g id="a_node2"><a xlink:title="Clamps, bushings, and grips for wires and hoses.">
<polygon fill="#bfbfbf" stroke="black" points="208,-26.6 155,-26.6 155,-7.6 208,-7.6 208,-26.6"/>
<text text-anchor="middle" x="181.5" y="-14.6" font-family="Helvetica,sans-Serif" font-size="10.00">Clamps</text>
</a>
</g>
</g>
<!-- Node2&#45;&gt;Node1 -->
<g id="edge1" class="edge">
<title>Node2&#45;&gt;Node1</title>
<path fill="none" stroke="black" d="M68.6,-17.1C95.69,-17.1 131.16,-17.1 154.83,-17.1"/>
<polygon fill="black" stroke="black" points="68.31,-13.6 58.31,-17.1 68.31,-20.6 68.31,-13.6"/>
</g>
<!-- Node1&#45;&gt;Node2 -->
<g id="edge2" class="edge">
<title>Node1&#45;&gt;Node2</title>
<path fill="none" stroke="darkgreen" stroke-dasharray="5,2" d="M155.52,-7.6C149.54,-5.73 143.11,-4.06 137,-3.1 110.22,1.1 102.82,0.89 76,-3.1 69.56,-4.06 62.77,-5.73 56.45,-7.6"/>
<text text-anchor="middle" x="106.5" y="-6.1" font-family="Helvetica,sans-Serif" font-size="10.00">clamps.scad</text>
</g>
</g>
</svg>
