<?xml version="1.0" encoding="UTF-8" standalone="no"?>
<!DOCTYPE svg PUBLIC "-//W3C//DTD SVG 1.1//EN"
 "http://www.w3.org/Graphics/SVG/1.1/DTD/svg11.dtd">
<!-- Generated by graphviz version 2.43.0 (0)
 -->
<!-- Title: extrude_rotate_trl Pages: 1 -->
<svg width="386pt" height="218pt"
 viewBox="0.00 0.00 386.00 218.00" xmlns="http://www.w3.org/2000/svg" xmlns:xlink="http://www.w3.org/1999/xlink">
<g id="graph0" class="graph" transform="scale(1 1) rotate(0) translate(4 214)">
<title>extrude_rotate_trl</title>
<polygon fill="white" stroke="transparent" points="-4,4 -4,-214 382,-214 382,4 -4,4"/>
<!-- Node1 -->
<g id="node1" class="node">
<title>Node1</title>
<g id="a_node1"><a xlink:title="Translate, rotate, and revolve a 2d shape about the z&#45;axis with linear elongation.">
<polygon fill="#bfbfbf" stroke="black" points="274,-95.5 274,-114.5 378,-114.5 378,-95.5 274,-95.5"/>
<text text-anchor="middle" x="326" y="-102.5" font-family="Helvetica,sans-Serif" font-size="10.00">extrude_rotate_trl</text>
</a>
</g>
</g>
<!-- Node2 -->
<g id="node2" class="node">
<title>Node2</title>
<g id="a_node2"><a xlink:href="group__parts__3d__fastener__clamps.html#gad5d667c41776480785c62759c61a137e" target="_top" xlink:title="A clamp, bushing, and/or grip for wire, hose, and/or pipe wall penetrations.">
<polygon fill="white" stroke="black" points="151.5,-152.5 151.5,-171.5 214.5,-171.5 214.5,-152.5 151.5,-152.5"/>
<text text-anchor="middle" x="183" y="-159.5" font-family="Helvetica,sans-Serif" font-size="10.00">clamp_cg</text>
</a>
</g>
</g>
<!-- Node1&#45;&gt;Node2 -->
<g id="edge1" class="edge">
<title>Node1&#45;&gt;Node2</title>
<path fill="none" stroke="midnightblue" d="M292,-118.34C266.14,-128.8 230.78,-143.09 207.68,-152.43"/>
<polygon fill="midnightblue" stroke="midnightblue" points="293.44,-121.53 301.4,-114.54 290.82,-115.04 293.44,-121.53"/>
</g>
<!-- Node4 -->
<g id="node4" class="node">
<title>Node4</title>
<g id="a_node4"><a xlink:href="group__parts__3d__enclosure__power__strip.html#ga33509a1811b27fe7f3687957d4d32460" target="_top" xlink:title="A power strip generator for single gang electrical receptacles.">
<polygon fill="white" stroke="black" points="1,-133.5 1,-152.5 91,-152.5 91,-133.5 1,-133.5"/>
<text text-anchor="middle" x="46" y="-140.5" font-family="Helvetica,sans-Serif" font-size="10.00">power_strip_sg</text>
</a>
</g>
</g>
<!-- Node1&#45;&gt;Node4 -->
<g id="edge6" class="edge">
<title>Node1&#45;&gt;Node4</title>
<path fill="none" stroke="midnightblue" d="M263.55,-113.4C211.34,-120.54 137.68,-130.6 91.14,-136.97"/>
<polygon fill="midnightblue" stroke="midnightblue" points="264.25,-116.84 273.69,-112.01 263.3,-109.9 264.25,-116.84"/>
</g>
<!-- Node5 -->
<g id="node5" class="node">
<title>Node5</title>
<g id="a_node5"><a xlink:href="group__parts__3d__fastener__clamps.html#gac715fdab9961aff45be668fb23556835" target="_top" xlink:title="A one piece zip tie clamp to secure wires or provide strain relief.">
<polygon fill="white" stroke="black" points="144,-190.5 144,-209.5 222,-209.5 222,-190.5 144,-190.5"/>
<text text-anchor="middle" x="183" y="-197.5" font-family="Helvetica,sans-Serif" font-size="10.00">clamp_zt_1p</text>
</a>
</g>
</g>
<!-- Node1&#45;&gt;Node5 -->
<g id="edge4" class="edge">
<title>Node1&#45;&gt;Node5</title>
<path fill="none" stroke="midnightblue" d="M309.12,-122.27C292.72,-139.23 265.69,-164.84 238,-181 231.65,-184.71 224.46,-187.86 217.44,-190.46"/>
<polygon fill="midnightblue" stroke="midnightblue" points="311.93,-124.39 316.27,-114.72 306.85,-119.58 311.93,-124.39"/>
</g>
<!-- Node6 -->
<g id="node6" class="node">
<title>Node6</title>
<g id="a_node6"><a xlink:href="group__shapes__revolved.html#ga58a3e713a904c96b69ddd8f87f7f3bb1" target="_top" xlink:title="An elliptical cross&#45;sectional profile revolved about the z&#45;axis.">
<polygon fill="white" stroke="black" points="135.5,-76.5 135.5,-95.5 230.5,-95.5 230.5,-76.5 135.5,-76.5"/>
<text text-anchor="middle" x="183" y="-83.5" font-family="Helvetica,sans-Serif" font-size="10.00">torus_ellipse_cs</text>
</a>
</g>
</g>
<!-- Node1&#45;&gt;Node6 -->
<g id="edge7" class="edge">
<title>Node1&#45;&gt;Node6</title>
<path fill="none" stroke="midnightblue" d="M263.69,-96.74C252.67,-95.25 241.35,-93.73 230.82,-92.31"/>
<polygon fill="midnightblue" stroke="midnightblue" points="263.32,-100.22 273.7,-98.09 264.25,-93.28 263.32,-100.22"/>
</g>
<!-- Node7 -->
<g id="node7" class="node">
<title>Node7</title>
<g id="a_node7"><a xlink:href="group__shapes__revolved.html#ga69b374bbebd7d87cfcd06b6bd3278404" target="_top" xlink:title="A trapezoidal cross&#45;sectional profile revolved about the z&#45;axis.">
<polygon fill="white" stroke="black" points="128,-38.5 128,-57.5 238,-57.5 238,-38.5 128,-38.5"/>
<text text-anchor="middle" x="183" y="-45.5" font-family="Helvetica,sans-Serif" font-size="10.00">torus_pg_trapezoid</text>
</a>
</g>
</g>
<!-- Node1&#45;&gt;Node7 -->
<g id="edge8" class="edge">
<title>Node1&#45;&gt;Node7</title>
<path fill="none" stroke="midnightblue" d="M294.85,-91.18C278.21,-83.72 257.1,-74.52 238,-67 229.77,-63.76 220.74,-60.48 212.45,-57.57"/>
<polygon fill="midnightblue" stroke="midnightblue" points="293.53,-94.42 304.09,-95.35 296.41,-88.04 293.53,-94.42"/>
</g>
<!-- Node8 -->
<g id="node8" class="node">
<title>Node8</title>
<g id="a_node8"><a xlink:href="group__shapes__revolved.html#gad587c003585db775fd441468954b7c43" target="_top" xlink:title="A rectangular cross&#45;sectional profile revolved about the z&#45;axis.">
<polygon fill="white" stroke="black" points="131.5,-0.5 131.5,-19.5 234.5,-19.5 234.5,-0.5 131.5,-0.5"/>
<text text-anchor="middle" x="183" y="-7.5" font-family="Helvetica,sans-Serif" font-size="10.00">torus_rectangle_c</text>
</a>
</g>
</g>
<!-- Node1&#45;&gt;Node8 -->
<g id="edge9" class="edge">
<title>Node1&#45;&gt;Node8</title>
<path fill="none" stroke="midnightblue" d="M309.12,-87.73C292.72,-70.77 265.69,-45.16 238,-29 231.65,-25.29 224.46,-22.14 217.44,-19.54"/>
<polygon fill="midnightblue" stroke="midnightblue" points="306.85,-90.42 316.27,-95.28 311.93,-85.61 306.85,-90.42"/>
</g>
<!-- Node3 -->
<g id="node3" class="node">
<title>Node3</title>
<g id="a_node3"><a xlink:href="group__parts__3d__computer__pcie__expansion.html#gab6fb1c9f8f6550633467f4ec0bd3f983" target="_top" xlink:title="Generate a PCI Express expansion open chassis or closed enclosure.">
<polygon fill="white" stroke="black" points="0,-171.5 0,-190.5 92,-190.5 92,-171.5 0,-171.5"/>
<text text-anchor="middle" x="46" y="-178.5" font-family="Helvetica,sans-Serif" font-size="10.00">pcie_expansion</text>
</a>
</g>
</g>
<!-- Node2&#45;&gt;Node3 -->
<g id="edge2" class="edge">
<title>Node2&#45;&gt;Node3</title>
<path fill="none" stroke="midnightblue" d="M141.07,-167.76C125.61,-169.94 107.94,-172.42 92.12,-174.65"/>
<polygon fill="midnightblue" stroke="midnightblue" points="141.95,-171.17 151.37,-166.31 140.98,-164.24 141.95,-171.17"/>
</g>
<!-- Node2&#45;&gt;Node4 -->
<g id="edge3" class="edge">
<title>Node2&#45;&gt;Node4</title>
<path fill="none" stroke="midnightblue" d="M141.33,-156.28C125.47,-154.04 107.25,-151.48 91.08,-149.2"/>
<polygon fill="midnightblue" stroke="midnightblue" points="140.98,-159.76 151.37,-157.69 141.95,-152.83 140.98,-159.76"/>
</g>
<!-- Node5&#45;&gt;Node3 -->
<g id="edge5" class="edge">
<title>Node5&#45;&gt;Node3</title>
<path fill="none" stroke="midnightblue" d="M133.59,-193.19C120.07,-191.28 105.43,-189.22 92.11,-187.35"/>
<polygon fill="midnightblue" stroke="midnightblue" points="133.29,-196.68 143.68,-194.61 134.26,-189.75 133.29,-196.68"/>
</g>
</g>
</svg>
