<?xml version="1.0" encoding="UTF-8" standalone="no"?>
<!DOCTYPE svg PUBLIC "-//W3C//DTD SVG 1.1//EN"
 "http://www.w3.org/Graphics/SVG/1.1/DTD/svg11.dtd">
<!-- Generated by graphviz version 2.43.0 (0)
 -->
<!-- Title: all_equal Pages: 1 -->
<svg width="293pt" height="85pt"
 viewBox="0.00 0.00 293.00 85.00" xmlns="http://www.w3.org/2000/svg" xmlns:xlink="http://www.w3.org/1999/xlink">
<g id="graph0" class="graph" transform="scale(1 1) rotate(0) translate(4 81)">
<title>all_equal</title>
<polygon fill="white" stroke="transparent" points="-4,4 -4,-81 289,-81 289,4 -4,4"/>
<!-- Node1 -->
<g id="node1" class="node">
<title>Node1</title>
<g id="a_node1"><a xlink:title="Test if all elements of an iterable value equal a comparison value.">
<polygon fill="#bfbfbf" stroke="black" points="224,-38.5 224,-57.5 285,-57.5 285,-38.5 224,-38.5"/>
<text text-anchor="middle" x="254.5" y="-45.5" font-family="Helvetica,sans-Serif" font-size="10.00">all_equal</text>
</a>
</g>
</g>
<!-- Node2 -->
<g id="node2" class="node">
<title>Node2</title>
<g id="a_node2"><a xlink:href="group__tools__2d__drafting.html#gac08f304cd201a44444b6364e039c9b74" target="_top" xlink:title="Draft an arc with configurable style and optional arrowheads.">
<polygon fill="white" stroke="black" points="127.5,-57.5 127.5,-76.5 186.5,-76.5 186.5,-57.5 127.5,-57.5"/>
<text text-anchor="middle" x="157" y="-64.5" font-family="Helvetica,sans-Serif" font-size="10.00">draft_arc</text>
</a>
</g>
</g>
<!-- Node1&#45;&gt;Node2 -->
<g id="edge1" class="edge">
<title>Node1&#45;&gt;Node2</title>
<path fill="none" stroke="midnightblue" d="M213.79,-55.9C204.7,-57.71 195.21,-59.6 186.69,-61.29"/>
<polygon fill="midnightblue" stroke="midnightblue" points="214.68,-59.29 223.81,-53.91 213.32,-52.43 214.68,-59.29"/>
</g>
<!-- Node3 -->
<g id="node3" class="node">
<title>Node3</title>
<g id="a_node3"><a xlink:href="group__tools__2d__drafting.html#ga060910368142d6371cf4f3f30be7561e" target="_top" xlink:title="Draft a line with configurable style and optional arrowheads.">
<polygon fill="white" stroke="black" points="126,-19.5 126,-38.5 188,-38.5 188,-19.5 126,-19.5"/>
<text text-anchor="middle" x="157" y="-26.5" font-family="Helvetica,sans-Serif" font-size="10.00">draft_line</text>
</a>
</g>
</g>
<!-- Node1&#45;&gt;Node3 -->
<g id="edge2" class="edge">
<title>Node1&#45;&gt;Node3</title>
<path fill="none" stroke="midnightblue" d="M213.89,-40.12C205.23,-38.4 196.21,-36.6 188,-34.97"/>
<polygon fill="midnightblue" stroke="midnightblue" points="213.32,-43.57 223.81,-42.09 214.68,-36.71 213.32,-43.57"/>
</g>
<!-- Node4 -->
<g id="node4" class="node">
<title>Node4</title>
<g id="a_node4"><a xlink:href="group__tools__2d__drafting.html#gada1e771ce89ef86b6241c43dc01bf62d" target="_top" xlink:title="Draft a polygon with configurable style.">
<polygon fill="white" stroke="black" points="3.5,-38.5 3.5,-57.5 86.5,-57.5 86.5,-38.5 3.5,-38.5"/>
<text text-anchor="middle" x="45" y="-45.5" font-family="Helvetica,sans-Serif" font-size="10.00">draft_polygon</text>
</a>
</g>
</g>
<!-- Node3&#45;&gt;Node4 -->
<g id="edge3" class="edge">
<title>Node3&#45;&gt;Node4</title>
<path fill="none" stroke="midnightblue" d="M115.94,-35.92C106.43,-37.56 96.28,-39.31 86.75,-40.96"/>
<polygon fill="midnightblue" stroke="midnightblue" points="116.68,-39.34 125.94,-34.19 115.49,-32.45 116.68,-39.34"/>
</g>
<!-- Node5 -->
<g id="node5" class="node">
<title>Node5</title>
<g id="a_node5"><a xlink:href="group__tools__2d__drafting.html#gad9f08bcb3c0095a0f328bef7b4463c2c" target="_top" xlink:title="Draft a rectangle with configurable style.">
<polygon fill="white" stroke="black" points="0,-0.5 0,-19.5 90,-19.5 90,-0.5 0,-0.5"/>
<text text-anchor="middle" x="45" y="-7.5" font-family="Helvetica,sans-Serif" font-size="10.00">draft_rectangle</text>
</a>
</g>
</g>
<!-- Node3&#45;&gt;Node5 -->
<g id="edge4" class="edge">
<title>Node3&#45;&gt;Node5</title>
<path fill="none" stroke="midnightblue" d="M115.97,-22.09C107.55,-20.63 98.61,-19.09 90.05,-17.61"/>
<polygon fill="midnightblue" stroke="midnightblue" points="115.49,-25.55 125.94,-23.81 116.68,-18.66 115.49,-25.55"/>
</g>
</g>
</svg>
