<?xml version="1.0" encoding="UTF-8" standalone="no"?>
<!DOCTYPE svg PUBLIC "-//W3C//DTD SVG 1.1//EN"
 "http://www.w3.org/Graphics/SVG/1.1/DTD/svg11.dtd">
<!-- Generated by graphviz version 2.43.0 (0)
 -->
<!-- Title: triangle_centroid Pages: 1 -->
<svg width="839pt" height="189pt"
 viewBox="0.00 0.00 839.00 189.07" xmlns="http://www.w3.org/2000/svg" xmlns:xlink="http://www.w3.org/1999/xlink">
<g id="graph0" class="graph" transform="scale(1 1) rotate(0) translate(4 185.07)">
<title>triangle_centroid</title>
<polygon fill="white" stroke="transparent" points="-4,4 -4,-185.07 835,-185.07 835,4 -4,4"/>
<!-- Node1 -->
<g id="node1" class="node">
<title>Node1</title>
<g id="a_node1"><a xlink:title="Compute the centroid of a triangle.">
<polygon fill="#bfbfbf" stroke="black" points="732,-99.5 732,-118.5 831,-118.5 831,-99.5 732,-99.5"/>
<text text-anchor="middle" x="781.5" y="-106.5" font-family="Helvetica,sans-Serif" font-size="10.00">triangle_centroid</text>
</a>
</g>
</g>
<!-- Node2 -->
<g id="node2" class="node">
<title>Node2</title>
<g id="a_node2"><a xlink:href="group__models__3d__misc__omdl__logo.html#gab176f64dad7e83d4fb056be44b71f630" target="_top" xlink:title="Standard omdl logo.">
<polygon fill="white" stroke="black" points="614.5,-146.5 614.5,-165.5 682.5,-165.5 682.5,-146.5 614.5,-146.5"/>
<text text-anchor="middle" x="648.5" y="-153.5" font-family="Helvetica,sans-Serif" font-size="10.00">omdl_logo</text>
</a>
</g>
</g>
<!-- Node1&#45;&gt;Node2 -->
<g id="edge1" class="edge">
<title>Node1&#45;&gt;Node2</title>
<path fill="none" stroke="midnightblue" d="M744.53,-121.91C723,-129.63 696.1,-139.28 676.42,-146.34"/>
<polygon fill="midnightblue" stroke="midnightblue" points="745.76,-125.18 753.99,-118.51 743.4,-118.59 745.76,-125.18"/>
</g>
<!-- Node4 -->
<g id="node4" class="node">
<title>Node4</title>
<g id="a_node4"><a xlink:href="group__shapes__polygon.html#gac7e2c70b3428b729efd86a675df794e6" target="_top" xlink:title="A polygon triangle specified by three coordinate points with vertex rounding.">
<polygon fill="white" stroke="black" points="601,-80.5 601,-99.5 696,-99.5 696,-80.5 601,-80.5"/>
<text text-anchor="middle" x="648.5" y="-87.5" font-family="Helvetica,sans-Serif" font-size="10.00">pg_triangle_ppp</text>
</a>
</g>
</g>
<!-- Node1&#45;&gt;Node4 -->
<g id="edge3" class="edge">
<title>Node1&#45;&gt;Node4</title>
<path fill="none" stroke="midnightblue" d="M721.76,-100.48C713.18,-99.24 704.44,-97.97 696.15,-96.77"/>
<polygon fill="midnightblue" stroke="midnightblue" points="721.32,-103.95 731.72,-101.93 722.33,-97.03 721.32,-103.95"/>
</g>
<!-- Node3 -->
<g id="node3" class="node">
<title>Node3</title>
<g id="a_node3"><a xlink:href="group__parts__3d__enclosure__power__strip.html#ga33509a1811b27fe7f3687957d4d32460" target="_top" xlink:title="A power strip generator for single gang electrical receptacles.">
<polygon fill="white" stroke="black" points="1,-76.5 1,-95.5 91,-95.5 91,-76.5 1,-76.5"/>
<text text-anchor="middle" x="46" y="-83.5" font-family="Helvetica,sans-Serif" font-size="10.00">power_strip_sg</text>
</a>
</g>
</g>
<!-- Node2&#45;&gt;Node3 -->
<g id="edge2" class="edge">
<title>Node2&#45;&gt;Node3</title>
<path fill="none" stroke="midnightblue" d="M604.35,-163.66C513.2,-177.99 295.68,-202.33 128,-143 99.15,-132.79 71.26,-109.22 56.94,-95.81"/>
<polygon fill="midnightblue" stroke="midnightblue" points="605,-167.1 614.31,-162.05 603.88,-160.19 605,-167.1"/>
</g>
<!-- Node5 -->
<g id="node5" class="node">
<title>Node5</title>
<g id="a_node5"><a xlink:href="group__shapes__polygon.html#gad85d14f73179499777da1e9297fbcae8" target="_top" xlink:title="A polygon triangle specified by angle&#45;angle&#45;size with vertex rounding.">
<polygon fill="white" stroke="black" points="471,-137.5 471,-156.5 565,-156.5 565,-137.5 471,-137.5"/>
<text text-anchor="middle" x="518" y="-144.5" font-family="Helvetica,sans-Serif" font-size="10.00">pg_triangle_aas</text>
</a>
</g>
</g>
<!-- Node4&#45;&gt;Node5 -->
<g id="edge4" class="edge">
<title>Node4&#45;&gt;Node5</title>
<path fill="none" stroke="midnightblue" d="M618.06,-103.91C602.37,-111.23 582.71,-120.27 565,-128 557.87,-131.11 550.07,-134.38 542.95,-137.32"/>
<polygon fill="midnightblue" stroke="midnightblue" points="619.69,-107.01 627.26,-99.6 616.72,-100.67 619.69,-107.01"/>
</g>
<!-- Node6 -->
<g id="node6" class="node">
<title>Node6</title>
<g id="a_node6"><a xlink:href="group__shapes__polygon.html#ga45e8a17aef3dd6755f833f25a8937cf7" target="_top" xlink:title="A polygon triangle specified by angle&#45;size&#45;angle with vertex rounding.">
<polygon fill="white" stroke="black" points="471,-99.5 471,-118.5 565,-118.5 565,-99.5 471,-99.5"/>
<text text-anchor="middle" x="518" y="-106.5" font-family="Helvetica,sans-Serif" font-size="10.00">pg_triangle_asa</text>
</a>
</g>
</g>
<!-- Node4&#45;&gt;Node6 -->
<g id="edge5" class="edge">
<title>Node4&#45;&gt;Node6</title>
<path fill="none" stroke="midnightblue" d="M590.78,-98.39C582.18,-99.66 573.41,-100.96 565.08,-102.19"/>
<polygon fill="midnightblue" stroke="midnightblue" points="591.36,-101.84 600.75,-96.91 590.34,-94.91 591.36,-101.84"/>
</g>
<!-- Node7 -->
<g id="node7" class="node">
<title>Node7</title>
<g id="a_node7"><a xlink:href="group__shapes__polygon.html#ga24be160074502dce7ff8a78361d4b074" target="_top" xlink:title="A polygon triangle specified by size&#45;angle&#45;size with vertex rounding.">
<polygon fill="white" stroke="black" points="315.5,-66.5 315.5,-85.5 408.5,-85.5 408.5,-66.5 315.5,-66.5"/>
<text text-anchor="middle" x="362" y="-73.5" font-family="Helvetica,sans-Serif" font-size="10.00">pg_triangle_sas</text>
</a>
</g>
</g>
<!-- Node4&#45;&gt;Node7 -->
<g id="edge6" class="edge">
<title>Node4&#45;&gt;Node7</title>
<path fill="none" stroke="midnightblue" d="M590.84,-87.21C537.4,-84.58 458.29,-80.69 408.74,-78.25"/>
<polygon fill="midnightblue" stroke="midnightblue" points="590.68,-90.71 600.84,-87.7 591.02,-83.72 590.68,-90.71"/>
</g>
<!-- Node12 -->
<g id="node12" class="node">
<title>Node12</title>
<g id="a_node12"><a xlink:href="group__shapes__polygon.html#gab9843df753e0537b490ac67cec6e31a9" target="_top" xlink:title="A polygon triangle specified by three side lengths with vertex rounding.">
<polygon fill="white" stroke="black" points="472,-23.5 472,-42.5 564,-42.5 564,-23.5 472,-23.5"/>
<text text-anchor="middle" x="518" y="-30.5" font-family="Helvetica,sans-Serif" font-size="10.00">pg_triangle_sss</text>
</a>
</g>
</g>
<!-- Node4&#45;&gt;Node12 -->
<g id="edge13" class="edge">
<title>Node4&#45;&gt;Node12</title>
<path fill="none" stroke="midnightblue" d="M616.8,-76.38C593.29,-65.95 561.45,-51.83 540.58,-42.57"/>
<polygon fill="midnightblue" stroke="midnightblue" points="615.43,-79.6 625.99,-80.46 618.27,-73.21 615.43,-79.6"/>
</g>
<!-- Node13 -->
<g id="node13" class="node">
<title>Node13</title>
<g id="a_node13"><a xlink:href="group__shapes__select__common__2d.html#gadde46fda315aab438eda3f752fec2aed" target="_top" xlink:title="Select configure and construct one of the available 2d shapes.">
<polygon fill="white" stroke="black" points="289,-19.5 289,-38.5 435,-38.5 435,-19.5 289,-19.5"/>
<text text-anchor="middle" x="362" y="-26.5" font-family="Helvetica,sans-Serif" font-size="10.00">select_common_2d_shape</text>
</a>
</g>
</g>
<!-- Node4&#45;&gt;Node13 -->
<g id="edge17" class="edge">
<title>Node4&#45;&gt;Node13</title>
<path fill="none" stroke="midnightblue" d="M634.76,-72.16C620.29,-53.59 594.78,-25.62 565,-14 506.53,8.83 431.39,-7.47 391.25,-19.43"/>
<polygon fill="midnightblue" stroke="midnightblue" points="632.15,-74.51 640.95,-80.41 637.74,-70.31 632.15,-74.51"/>
</g>
<!-- Node8 -->
<g id="node8" class="node">
<title>Node8</title>
<g id="a_node8"><a xlink:href="group__parts__3d__fastener__mounts.html#ga0cbac43259ec43fff7785057277bcef3" target="_top" xlink:title="A screw mount post with screw bore and optional fins.">
<polygon fill="white" stroke="black" points="136.5,-114.5 136.5,-133.5 244.5,-133.5 244.5,-114.5 136.5,-114.5"/>
<text text-anchor="middle" x="190.5" y="-121.5" font-family="Helvetica,sans-Serif" font-size="10.00">mount_screw_post</text>
</a>
</g>
</g>
<!-- Node7&#45;&gt;Node8 -->
<g id="edge7" class="edge">
<title>Node7&#45;&gt;Node8</title>
<path fill="none" stroke="midnightblue" d="M317.35,-88.36C288.69,-96.48 251.76,-106.93 225.33,-114.42"/>
<polygon fill="midnightblue" stroke="midnightblue" points="318.44,-91.69 327.11,-85.6 316.53,-84.96 318.44,-91.69"/>
</g>
<!-- Node9 -->
<g id="node9" class="node">
<title>Node9</title>
<g id="a_node9"><a xlink:href="group__parts__3d__fastener__mounts.html#gae1cc60f3ff242fb07c5a50d34be8c051" target="_top" xlink:title="A mount tab with screw hole and support brace.">
<polygon fill="white" stroke="black" points="139,-76.5 139,-95.5 242,-95.5 242,-76.5 139,-76.5"/>
<text text-anchor="middle" x="190.5" y="-83.5" font-family="Helvetica,sans-Serif" font-size="10.00">mount_screw_tab</text>
</a>
</g>
</g>
<!-- Node7&#45;&gt;Node9 -->
<g id="edge8" class="edge">
<title>Node7&#45;&gt;Node9</title>
<path fill="none" stroke="midnightblue" d="M305.09,-79.3C284.79,-80.5 261.99,-81.84 242.18,-83.01"/>
<polygon fill="midnightblue" stroke="midnightblue" points="305.35,-82.79 315.13,-78.71 304.94,-75.8 305.35,-82.79"/>
</g>
<!-- Node10 -->
<g id="node10" class="node">
<title>Node10</title>
<g id="a_node10"><a xlink:href="group__parts__3d__enclosure__project__box__rectangle.html#ga24cdfe5fd4bb74b75409d9afdbe1f0c0" target="_top" xlink:title="A rectangular box maker for project boxes, enclosures and housings.">
<polygon fill="white" stroke="black" points="128,-38.5 128,-57.5 253,-57.5 253,-38.5 128,-38.5"/>
<text text-anchor="middle" x="190.5" y="-45.5" font-family="Helvetica,sans-Serif" font-size="10.00">project_box_rectangle</text>
</a>
</g>
</g>
<!-- Node7&#45;&gt;Node10 -->
<g id="edge10" class="edge">
<title>Node7&#45;&gt;Node10</title>
<path fill="none" stroke="midnightblue" d="M305.11,-66.77C287.19,-63.81 267.3,-60.52 249.24,-57.54"/>
<polygon fill="midnightblue" stroke="midnightblue" points="304.69,-70.25 315.13,-68.42 305.84,-63.34 304.69,-70.25"/>
</g>
<!-- Node9&#45;&gt;Node3 -->
<g id="edge9" class="edge">
<title>Node9&#45;&gt;Node3</title>
<path fill="none" stroke="midnightblue" d="M128.5,-86C116.02,-86 103.1,-86 91.33,-86"/>
<polygon fill="midnightblue" stroke="midnightblue" points="128.86,-89.5 138.86,-86 128.86,-82.5 128.86,-89.5"/>
</g>
<!-- Node10&#45;&gt;Node3 -->
<g id="edge12" class="edge">
<title>Node10&#45;&gt;Node3</title>
<path fill="none" stroke="midnightblue" d="M143.85,-60.17C124.14,-65.43 101.43,-71.49 82.95,-76.41"/>
<polygon fill="midnightblue" stroke="midnightblue" points="144.78,-63.55 153.54,-57.59 142.98,-56.78 144.78,-63.55"/>
</g>
<!-- Node11 -->
<g id="node11" class="node">
<title>Node11</title>
<g id="a_node11"><a xlink:href="group__parts__3d__computer__pcie__expansion.html#gab6fb1c9f8f6550633467f4ec0bd3f983" target="_top" xlink:title="Generate a PCI Express expansion open chassis or closed enclosure.">
<polygon fill="white" stroke="black" points="0,-38.5 0,-57.5 92,-57.5 92,-38.5 0,-38.5"/>
<text text-anchor="middle" x="46" y="-45.5" font-family="Helvetica,sans-Serif" font-size="10.00">pcie_expansion</text>
</a>
</g>
</g>
<!-- Node10&#45;&gt;Node11 -->
<g id="edge11" class="edge">
<title>Node10&#45;&gt;Node11</title>
<path fill="none" stroke="midnightblue" d="M117.61,-48C108.89,-48 100.19,-48 92.01,-48"/>
<polygon fill="midnightblue" stroke="midnightblue" points="117.83,-51.5 127.83,-48 117.83,-44.5 117.83,-51.5"/>
</g>
<!-- Node12&#45;&gt;Node13 -->
<g id="edge14" class="edge">
<title>Node12&#45;&gt;Node13</title>
<path fill="none" stroke="midnightblue" d="M461.45,-31.56C452.93,-31.34 444.02,-31.1 435.2,-30.88"/>
<polygon fill="midnightblue" stroke="midnightblue" points="461.54,-35.06 471.63,-31.82 461.72,-28.06 461.54,-35.06"/>
</g>
<!-- Node13&#45;&gt;Node10 -->
<g id="edge16" class="edge">
<title>Node13&#45;&gt;Node10</title>
<path fill="none" stroke="midnightblue" d="M278.62,-38.23C270.07,-39.19 261.49,-40.15 253.22,-41.08"/>
<polygon fill="midnightblue" stroke="midnightblue" points="279.08,-41.71 288.63,-37.11 278.3,-34.75 279.08,-41.71"/>
</g>
<!-- Node14 -->
<g id="node14" class="node">
<title>Node14</title>
<g id="a_node14"><a xlink:href="group__parts__2d__enclosure__box__finger__joint.html#gacc1bfb220bc3cfed46dcaa3b84898020" target="_top" xlink:title="Generate a 2D box design using screw&#45;based finger joint (box&#45;joint).">
<polygon fill="white" stroke="black" points="137,-0.5 137,-19.5 244,-19.5 244,-0.5 137,-0.5"/>
<text text-anchor="middle" x="190.5" y="-7.5" font-family="Helvetica,sans-Serif" font-size="10.00">box2d_finger_joint</text>
</a>
</g>
</g>
<!-- Node13&#45;&gt;Node14 -->
<g id="edge15" class="edge">
<title>Node13&#45;&gt;Node14</title>
<path fill="none" stroke="midnightblue" d="M278.41,-19.74C266.75,-18.44 255.04,-17.12 244.15,-15.9"/>
<polygon fill="midnightblue" stroke="midnightblue" points="278.3,-23.25 288.63,-20.89 279.08,-16.29 278.3,-23.25"/>
</g>
</g>
</svg>
