<?xml version="1.0" encoding="UTF-8" standalone="no"?>
<!DOCTYPE svg PUBLIC "-//W3C//DTD SVG 1.1//EN"
 "http://www.w3.org/Graphics/SVG/1.1/DTD/svg11.dtd">
<!-- Generated by graphviz version 2.43.0 (0)
 -->
<!-- Title: defined_fle_or Pages: 1 -->
<svg width="401pt" height="66pt"
 viewBox="0.00 0.00 401.00 66.00" xmlns="http://www.w3.org/2000/svg" xmlns:xlink="http://www.w3.org/1999/xlink">
<g id="graph0" class="graph" transform="scale(1 1) rotate(0) translate(4 62)">
<title>defined_fle_or</title>
<polygon fill="white" stroke="transparent" points="-4,4 -4,-62 397,-62 397,4 -4,4"/>
<!-- Node1 -->
<g id="node1" class="node">
<title>Node1</title>
<g id="a_node1"><a xlink:title="Return the first defined specified element in a list of lists, otherwise returns the given default va...">
<polygon fill="#bfbfbf" stroke="black" points="308,-19.5 308,-38.5 393,-38.5 393,-19.5 308,-19.5"/>
<text text-anchor="middle" x="350.5" y="-26.5" font-family="Helvetica,sans-Serif" font-size="10.00">defined_fle_or</text>
</a>
</g>
</g>
<!-- Node2 -->
<g id="node2" class="node">
<title>Node2</title>
<g id="a_node2"><a xlink:href="group__models__2d__joint__box__screw.html#ga78ef0c1346c6e79260781ee9a9fff0bf" target="_top" xlink:title="Create 2d edge profiles for screw and nut box joint construction.">
<polygon fill="white" stroke="black" points="154,-38.5 154,-57.5 261,-57.5 261,-38.5 154,-38.5"/>
<text text-anchor="middle" x="207.5" y="-45.5" font-family="Helvetica,sans-Serif" font-size="10.00">joint2d_box_screw</text>
</a>
</g>
</g>
<!-- Node1&#45;&gt;Node2 -->
<g id="edge1" class="edge">
<title>Node1&#45;&gt;Node2</title>
<path fill="none" stroke="midnightblue" d="M297.69,-35.98C285.73,-37.59 273.01,-39.31 261.02,-40.92"/>
<polygon fill="midnightblue" stroke="midnightblue" points="298.51,-39.4 307.96,-34.6 297.58,-32.46 298.51,-39.4"/>
</g>
<!-- Node4 -->
<g id="node4" class="node">
<title>Node4</title>
<g id="a_node4"><a xlink:href="group__models__3d__joint__dovetail__screw.html#ga20f61ef0d29434a144ec653c6320f77f" target="_top" xlink:title="Construct a 3d dovetail joint with optional screw and nut fastener.">
<polygon fill="white" stroke="black" points="143,-0.5 143,-19.5 272,-19.5 272,-0.5 143,-0.5"/>
<text text-anchor="middle" x="207.5" y="-7.5" font-family="Helvetica,sans-Serif" font-size="10.00">joint3d_dovetail_screw</text>
</a>
</g>
</g>
<!-- Node1&#45;&gt;Node4 -->
<g id="edge3" class="edge">
<title>Node1&#45;&gt;Node4</title>
<path fill="none" stroke="midnightblue" d="M297.98,-22.06C289.61,-20.93 280.85,-19.75 272.23,-18.59"/>
<polygon fill="midnightblue" stroke="midnightblue" points="297.58,-25.54 307.96,-23.4 298.51,-18.6 297.58,-25.54"/>
</g>
<!-- Node3 -->
<g id="node3" class="node">
<title>Node3</title>
<g id="a_node3"><a xlink:href="group__parts__2d__enclosure__box__finger__joint.html#gacc1bfb220bc3cfed46dcaa3b84898020" target="_top" xlink:title="Generate a 2D box design using screw&#45;based finger joint (box&#45;joint).">
<polygon fill="white" stroke="black" points="0,-38.5 0,-57.5 107,-57.5 107,-38.5 0,-38.5"/>
<text text-anchor="middle" x="53.5" y="-45.5" font-family="Helvetica,sans-Serif" font-size="10.00">box2d_finger_joint</text>
</a>
</g>
</g>
<!-- Node2&#45;&gt;Node3 -->
<g id="edge2" class="edge">
<title>Node2&#45;&gt;Node3</title>
<path fill="none" stroke="midnightblue" d="M143.69,-48C131.54,-48 118.93,-48 107.14,-48"/>
<polygon fill="midnightblue" stroke="midnightblue" points="143.76,-51.5 153.76,-48 143.76,-44.5 143.76,-51.5"/>
</g>
</g>
</svg>
