<?xml version="1.0" encoding="UTF-8" standalone="no"?>
<!DOCTYPE svg PUBLIC "-//W3C//DTD SVG 1.1//EN"
 "http://www.w3.org/Graphics/SVG/1.1/DTD/svg11.dtd">
<!-- Generated by graphviz version 2.43.0 (0)
 -->
<!-- Title: index_sel Pages: 1 -->
<svg width="209pt" height="104pt"
 viewBox="0.00 0.00 209.00 104.00" xmlns="http://www.w3.org/2000/svg" xmlns:xlink="http://www.w3.org/1999/xlink">
<g id="graph0" class="graph" transform="scale(1 1) rotate(0) translate(4 100)">
<title>index_sel</title>
<polygon fill="white" stroke="transparent" points="-4,4 -4,-100 205,-100 205,4 -4,4"/>
<!-- Node1 -->
<g id="node1" class="node">
<title>Node1</title>
<g id="a_node1"><a xlink:title="Selected element indices of a given list according to a selection scheme.">
<polygon fill="#bfbfbf" stroke="black" points="138,-38.5 138,-57.5 201,-57.5 201,-38.5 138,-38.5"/>
<text text-anchor="middle" x="169.5" y="-45.5" font-family="Helvetica,sans-Serif" font-size="10.00">index_sel</text>
</a>
</g>
</g>
<!-- Node2 -->
<g id="node2" class="node">
<title>Node2</title>
<g id="a_node2"><a xlink:href="group__tools__2d__drafting.html#gada1e771ce89ef86b6241c43dc01bf62d" target="_top" xlink:title="Draft a polygon with configurable style.">
<polygon fill="white" stroke="black" points="9.5,-76.5 9.5,-95.5 92.5,-95.5 92.5,-76.5 9.5,-76.5"/>
<text text-anchor="middle" x="51" y="-83.5" font-family="Helvetica,sans-Serif" font-size="10.00">draft_polygon</text>
</a>
</g>
</g>
<!-- Node1&#45;&gt;Node2 -->
<g id="edge1" class="edge">
<title>Node1&#45;&gt;Node2</title>
<path fill="none" stroke="midnightblue" d="M129.18,-60.83C113.55,-65.92 95.87,-71.69 81.39,-76.41"/>
<polygon fill="midnightblue" stroke="midnightblue" points="130.68,-64.02 139.1,-57.59 128.51,-57.36 130.68,-64.02"/>
</g>
<!-- Node3 -->
<g id="node3" class="node">
<title>Node3</title>
<g id="a_node3"><a xlink:href="group__tools__common__polytope.html#ga530c86f9c90ce074aa7adc29834f0539" target="_top" xlink:title="Assemble a polytope skeletal frame using child objects.">
<polygon fill="white" stroke="black" points="4,-38.5 4,-57.5 98,-57.5 98,-38.5 4,-38.5"/>
<text text-anchor="middle" x="51" y="-45.5" font-family="Helvetica,sans-Serif" font-size="10.00">polytope_frame</text>
</a>
</g>
</g>
<!-- Node1&#45;&gt;Node3 -->
<g id="edge2" class="edge">
<title>Node1&#45;&gt;Node3</title>
<path fill="none" stroke="midnightblue" d="M127.84,-48C118.26,-48 108,-48 98.2,-48"/>
<polygon fill="midnightblue" stroke="midnightblue" points="127.89,-51.5 137.89,-48 127.89,-44.5 127.89,-51.5"/>
</g>
<!-- Node4 -->
<g id="node4" class="node">
<title>Node4</title>
<g id="a_node4"><a xlink:href="group__tools__common__polytope.html#ga00b574079f19251be7281151d11db8fa" target="_top" xlink:title="Label the vertices, paths, and edges of a polytope.">
<polygon fill="white" stroke="black" points="0,-0.5 0,-19.5 102,-19.5 102,-0.5 0,-0.5"/>
<text text-anchor="middle" x="51" y="-7.5" font-family="Helvetica,sans-Serif" font-size="10.00">polytope_number</text>
</a>
</g>
</g>
<!-- Node1&#45;&gt;Node4 -->
<g id="edge3" class="edge">
<title>Node1&#45;&gt;Node4</title>
<path fill="none" stroke="midnightblue" d="M129.18,-35.17C113.55,-30.08 95.87,-24.31 81.39,-19.59"/>
<polygon fill="midnightblue" stroke="midnightblue" points="128.51,-38.64 139.1,-38.41 130.68,-31.98 128.51,-38.64"/>
</g>
</g>
</svg>
