<?xml version="1.0" encoding="UTF-8" standalone="no"?>
<!DOCTYPE svg PUBLIC "-//W3C//DTD SVG 1.1//EN"
 "http://www.w3.org/Graphics/SVG/1.1/DTD/svg11.dtd">
<!-- Generated by graphviz version 2.43.0 (0)
 -->
<!-- Title: triangle2d_sss2ppp Pages: 1 -->
<svg width="755pt" height="474pt"
 viewBox="0.00 0.00 755.00 474.00" xmlns="http://www.w3.org/2000/svg" xmlns:xlink="http://www.w3.org/1999/xlink">
<g id="graph0" class="graph" transform="scale(1 1) rotate(0) translate(4 470)">
<title>triangle2d_sss2ppp</title>
<polygon fill="white" stroke="transparent" points="-4,4 -4,-470 751,-470 751,4 -4,4"/>
<!-- Node1 -->
<g id="node1" class="node">
<title>Node1</title>
<g id="a_node1"><a xlink:title="Compute a set of vertex coordinates for a triangle given its side lengths in 2D.">
<polygon fill="#bfbfbf" stroke="black" points="636,-152.5 636,-171.5 747,-171.5 747,-152.5 636,-152.5"/>
<text text-anchor="middle" x="691.5" y="-159.5" font-family="Helvetica,sans-Serif" font-size="10.00">triangle2d_sss2ppp</text>
</a>
</g>
</g>
<!-- Node2 -->
<g id="node2" class="node">
<title>Node2</title>
<g id="a_node2"><a xlink:href="group__shapes__common__3d.html#ga5075cfcc6967fb610e308f08da3fb059" target="_top" xlink:title="A cone.">
<polygon fill="white" stroke="black" points="515.5,-332.5 515.5,-351.5 555.5,-351.5 555.5,-332.5 515.5,-332.5"/>
<text text-anchor="middle" x="535.5" y="-339.5" font-family="Helvetica,sans-Serif" font-size="10.00">cone</text>
</a>
</g>
</g>
<!-- Node1&#45;&gt;Node2 -->
<g id="edge1" class="edge">
<title>Node1&#45;&gt;Node2</title>
<path fill="none" stroke="midnightblue" d="M675.37,-179.69C643.35,-217.11 569.63,-303.28 544.82,-332.27"/>
<polygon fill="midnightblue" stroke="midnightblue" points="678.38,-181.55 682.22,-171.68 673.06,-177 678.38,-181.55"/>
</g>
<!-- Node8 -->
<g id="node8" class="node">
<title>Node8</title>
<g id="a_node8"><a xlink:href="group__models__3d__misc__omdl__logo.html#gab176f64dad7e83d4fb056be44b71f630" target="_top" xlink:title="Standard omdl logo.">
<polygon fill="white" stroke="black" points="328,-446.5 328,-465.5 396,-465.5 396,-446.5 328,-446.5"/>
<text text-anchor="middle" x="362" y="-453.5" font-family="Helvetica,sans-Serif" font-size="10.00">omdl_logo</text>
</a>
</g>
</g>
<!-- Node1&#45;&gt;Node8 -->
<g id="edge18" class="edge">
<title>Node1&#45;&gt;Node8</title>
<path fill="none" stroke="midnightblue" d="M686.56,-181.57C677.75,-220.68 652.92,-309.15 600,-361 542.21,-417.62 446.37,-441.79 396.1,-451"/>
<polygon fill="midnightblue" stroke="midnightblue" points="690,-182.23 688.68,-171.72 683.16,-180.77 690,-182.23"/>
</g>
<!-- Node11 -->
<g id="node11" class="node">
<title>Node11</title>
<g id="a_node11"><a xlink:href="group__models__2d__joint__dovetail.html#gadccba989c93e8e44be057de39d99758a" target="_top" xlink:title="Create 2D edge profiles for dovetail joint construction.">
<polygon fill="white" stroke="black" points="314.5,-104.5 314.5,-123.5 409.5,-123.5 409.5,-104.5 314.5,-104.5"/>
<text text-anchor="middle" x="362" y="-111.5" font-family="Helvetica,sans-Serif" font-size="10.00">joint2d_dovetail</text>
</a>
</g>
</g>
<!-- Node1&#45;&gt;Node11 -->
<g id="edge15" class="edge">
<title>Node1&#45;&gt;Node11</title>
<path fill="none" stroke="midnightblue" d="M638.81,-150.36C626.16,-147.72 612.62,-145.09 600,-143 534.36,-132.11 457.87,-123.48 409.94,-118.55"/>
<polygon fill="midnightblue" stroke="midnightblue" points="638.23,-153.81 648.74,-152.46 639.68,-146.96 638.23,-153.81"/>
</g>
<!-- Node12 -->
<g id="node12" class="node">
<title>Node12</title>
<g id="a_node12"><a xlink:href="group__models__3d__joint__dovetail__screw.html#ga20f61ef0d29434a144ec653c6320f77f" target="_top" xlink:title="Construct a 3d dovetail joint with optional screw and nut fastener.">
<polygon fill="white" stroke="black" points="471,-76.5 471,-95.5 600,-95.5 600,-76.5 471,-76.5"/>
<text text-anchor="middle" x="535.5" y="-83.5" font-family="Helvetica,sans-Serif" font-size="10.00">joint3d_dovetail_screw</text>
</a>
</g>
</g>
<!-- Node1&#45;&gt;Node12 -->
<g id="edge17" class="edge">
<title>Node1&#45;&gt;Node12</title>
<path fill="none" stroke="midnightblue" d="M666.89,-147.04C648.94,-136.01 623.44,-121.08 600,-110 588.71,-104.66 575.88,-99.63 564.72,-95.57"/>
<polygon fill="midnightblue" stroke="midnightblue" points="665.19,-150.1 675.53,-152.4 668.88,-144.15 665.19,-150.1"/>
</g>
<!-- Node13 -->
<g id="node13" class="node">
<title>Node13</title>
<g id="a_node13"><a xlink:href="group__shapes__polygon.html#gad85d14f73179499777da1e9297fbcae8" target="_top" xlink:title="A polygon triangle specified by angle&#45;angle&#45;size with vertex rounding.">
<polygon fill="white" stroke="black" points="488.5,-38.5 488.5,-57.5 582.5,-57.5 582.5,-38.5 488.5,-38.5"/>
<text text-anchor="middle" x="535.5" y="-45.5" font-family="Helvetica,sans-Serif" font-size="10.00">pg_triangle_aas</text>
</a>
</g>
</g>
<!-- Node1&#45;&gt;Node13 -->
<g id="edge19" class="edge">
<title>Node1&#45;&gt;Node13</title>
<path fill="none" stroke="midnightblue" d="M678.07,-144.13C662.3,-122.76 633.13,-87.32 600,-67 593.72,-63.15 586.61,-60.04 579.48,-57.53"/>
<polygon fill="midnightblue" stroke="midnightblue" points="675.3,-146.27 683.98,-152.34 680.98,-142.18 675.3,-146.27"/>
</g>
<!-- Node14 -->
<g id="node14" class="node">
<title>Node14</title>
<g id="a_node14"><a xlink:href="group__shapes__polygon.html#ga45e8a17aef3dd6755f833f25a8937cf7" target="_top" xlink:title="A polygon triangle specified by angle&#45;size&#45;angle with vertex rounding.">
<polygon fill="white" stroke="black" points="488.5,-0.5 488.5,-19.5 582.5,-19.5 582.5,-0.5 488.5,-0.5"/>
<text text-anchor="middle" x="535.5" y="-7.5" font-family="Helvetica,sans-Serif" font-size="10.00">pg_triangle_asa</text>
</a>
</g>
</g>
<!-- Node1&#45;&gt;Node14 -->
<g id="edge20" class="edge">
<title>Node1&#45;&gt;Node14</title>
<path fill="none" stroke="midnightblue" d="M682.59,-142.89C669.63,-113.93 641.14,-59.12 600,-29 594.71,-25.13 588.62,-22.03 582.36,-19.57"/>
<polygon fill="midnightblue" stroke="midnightblue" points="679.48,-144.5 686.66,-152.29 685.9,-141.73 679.48,-144.5"/>
</g>
<!-- Node15 -->
<g id="node15" class="node">
<title>Node15</title>
<g id="a_node15"><a xlink:href="group__shapes__polygon.html#ga24be160074502dce7ff8a78361d4b074" target="_top" xlink:title="A polygon triangle specified by size&#45;angle&#45;size with vertex rounding.">
<polygon fill="white" stroke="black" points="315.5,-256.5 315.5,-275.5 408.5,-275.5 408.5,-256.5 315.5,-256.5"/>
<text text-anchor="middle" x="362" y="-263.5" font-family="Helvetica,sans-Serif" font-size="10.00">pg_triangle_sas</text>
</a>
</g>
</g>
<!-- Node1&#45;&gt;Node15 -->
<g id="edge21" class="edge">
<title>Node1&#45;&gt;Node15</title>
<path fill="none" stroke="midnightblue" d="M670.07,-177.96C652.46,-190.93 625.86,-208.71 600,-219 536.28,-244.37 457.28,-256.51 408.51,-261.96"/>
<polygon fill="midnightblue" stroke="midnightblue" points="672.52,-180.49 678.41,-171.68 668.31,-174.9 672.52,-180.49"/>
</g>
<!-- Node18 -->
<g id="node18" class="node">
<title>Node18</title>
<g id="a_node18"><a xlink:href="group__shapes__polygon.html#gab9843df753e0537b490ac67cec6e31a9" target="_top" xlink:title="A polygon triangle specified by three side lengths with vertex rounding.">
<polygon fill="white" stroke="black" points="489.5,-152.5 489.5,-171.5 581.5,-171.5 581.5,-152.5 489.5,-152.5"/>
<text text-anchor="middle" x="535.5" y="-159.5" font-family="Helvetica,sans-Serif" font-size="10.00">pg_triangle_sss</text>
</a>
</g>
</g>
<!-- Node1&#45;&gt;Node18 -->
<g id="edge26" class="edge">
<title>Node1&#45;&gt;Node18</title>
<path fill="none" stroke="midnightblue" d="M625.7,-162C610.97,-162 595.63,-162 581.9,-162"/>
<polygon fill="midnightblue" stroke="midnightblue" points="625.77,-165.5 635.77,-162 625.77,-158.5 625.77,-165.5"/>
</g>
<!-- Node21 -->
<g id="node21" class="node">
<title>Node21</title>
<g id="a_node21"><a xlink:href="group__shapes__common__2d.html#ga0e810e30a9ec109e004677036012c428" target="_top" xlink:title="A two&#45;dimensional star.">
<polygon fill="white" stroke="black" points="512,-190.5 512,-209.5 559,-209.5 559,-190.5 512,-190.5"/>
<text text-anchor="middle" x="535.5" y="-197.5" font-family="Helvetica,sans-Serif" font-size="10.00">star2d</text>
</a>
</g>
</g>
<!-- Node1&#45;&gt;Node21 -->
<g id="edge30" class="edge">
<title>Node1&#45;&gt;Node21</title>
<path fill="none" stroke="midnightblue" d="M641.73,-174.03C614.05,-180.86 580.72,-189.09 559.1,-194.42"/>
<polygon fill="midnightblue" stroke="midnightblue" points="642.77,-177.38 651.64,-171.59 641.09,-170.59 642.77,-177.38"/>
</g>
<!-- Node3 -->
<g id="node3" class="node">
<title>Node3</title>
<g id="a_node3"><a xlink:href="group__parts__3d__fastener__clamps.html#gad5d667c41776480785c62759c61a137e" target="_top" xlink:title="A clamp, bushing, and/or grip for wire, hose, and/or pipe wall penetrations.">
<polygon fill="white" stroke="black" points="159,-332.5 159,-351.5 222,-351.5 222,-332.5 159,-332.5"/>
<text text-anchor="middle" x="190.5" y="-339.5" font-family="Helvetica,sans-Serif" font-size="10.00">clamp_cg</text>
</a>
</g>
</g>
<!-- Node2&#45;&gt;Node3 -->
<g id="edge2" class="edge">
<title>Node2&#45;&gt;Node3</title>
<path fill="none" stroke="midnightblue" d="M504.78,-342C440.13,-342 287.34,-342 222,-342"/>
<polygon fill="midnightblue" stroke="midnightblue" points="505.08,-345.5 515.08,-342 505.08,-338.5 505.08,-345.5"/>
</g>
<!-- Node4 -->
<g id="node4" class="node">
<title>Node4</title>
<g id="a_node4"><a xlink:href="group__parts__3d__computer__pcie__expansion.html#gab6fb1c9f8f6550633467f4ec0bd3f983" target="_top" xlink:title="Generate a PCI Express expansion open chassis or closed enclosure.">
<polygon fill="white" stroke="black" points="0,-199.5 0,-218.5 92,-218.5 92,-199.5 0,-199.5"/>
<text text-anchor="middle" x="46" y="-206.5" font-family="Helvetica,sans-Serif" font-size="10.00">pcie_expansion</text>
</a>
</g>
</g>
<!-- Node2&#45;&gt;Node4 -->
<g id="edge9" class="edge">
<title>Node2&#45;&gt;Node4</title>
<path fill="none" stroke="midnightblue" d="M526.83,-322.58C513.48,-291.81 482.74,-232.91 435,-209 316.49,-149.66 150.96,-181.53 80.69,-199.46"/>
<polygon fill="midnightblue" stroke="midnightblue" points="523.75,-324.3 530.83,-332.18 530.22,-321.61 523.75,-324.3"/>
</g>
<!-- Node5 -->
<g id="node5" class="node">
<title>Node5</title>
<g id="a_node5"><a xlink:href="group__parts__3d__enclosure__power__strip.html#ga33509a1811b27fe7f3687957d4d32460" target="_top" xlink:title="A power strip generator for single gang electrical receptacles.">
<polygon fill="white" stroke="black" points="1,-332.5 1,-351.5 91,-351.5 91,-332.5 1,-332.5"/>
<text text-anchor="middle" x="46" y="-339.5" font-family="Helvetica,sans-Serif" font-size="10.00">power_strip_sg</text>
</a>
</g>
</g>
<!-- Node2&#45;&gt;Node5 -->
<g id="edge10" class="edge">
<title>Node2&#45;&gt;Node5</title>
<path fill="none" stroke="midnightblue" d="M505.34,-344.96C494.01,-347.08 481.3,-350.73 471,-357 450,-369.79 457.34,-388.73 435,-399 373.02,-427.51 193.04,-419.59 128,-399 98.49,-389.66 70.43,-365.27 56.38,-351.62"/>
<polygon fill="midnightblue" stroke="midnightblue" points="505.92,-348.41 515.26,-343.4 504.84,-341.49 505.92,-348.41"/>
</g>
<!-- Node6 -->
<g id="node6" class="node">
<title>Node6</title>
<g id="a_node6"><a xlink:href="group__parts__3d__fastener__hinges.html#ga7e350f2c55116094108b99dd8103fc04" target="_top" xlink:title="A print&#45;in&#45;place single&#45;fold hinge generator.">
<polygon fill="white" stroke="black" points="333,-370.5 333,-389.5 391,-389.5 391,-370.5 333,-370.5"/>
<text text-anchor="middle" x="362" y="-377.5" font-family="Helvetica,sans-Serif" font-size="10.00">hinge_sf</text>
</a>
</g>
</g>
<!-- Node2&#45;&gt;Node6 -->
<g id="edge5" class="edge">
<title>Node2&#45;&gt;Node6</title>
<path fill="none" stroke="midnightblue" d="M505.46,-348.43C473.57,-355.5 422.72,-366.77 391.18,-373.76"/>
<polygon fill="midnightblue" stroke="midnightblue" points="506.49,-351.79 515.49,-346.21 504.97,-344.96 506.49,-351.79"/>
</g>
<!-- Node2&#45;&gt;Node8 -->
<g id="edge7" class="edge">
<title>Node2&#45;&gt;Node8</title>
<path fill="none" stroke="midnightblue" d="M517.71,-358.76C494.38,-381.77 452.98,-421.5 435,-432 423.05,-438.98 408.79,-444.27 396.13,-448.08"/>
<polygon fill="midnightblue" stroke="midnightblue" points="520.24,-361.19 524.87,-351.66 515.31,-356.21 520.24,-361.19"/>
</g>
<!-- Node9 -->
<g id="node9" class="node">
<title>Node9</title>
<g id="a_node9"><a xlink:href="group__shapes__select__common__3d.html#ga3fd7f214eff2f5935ad1bb56415a4aaf" target="_top" xlink:title="Select configure and construct one of the available 3d shapes.">
<polygon fill="white" stroke="black" points="289,-218.5 289,-237.5 435,-237.5 435,-218.5 289,-218.5"/>
<text text-anchor="middle" x="362" y="-225.5" font-family="Helvetica,sans-Serif" font-size="10.00">select_common_3d_shape</text>
</a>
</g>
</g>
<!-- Node2&#45;&gt;Node9 -->
<g id="edge11" class="edge">
<title>Node2&#45;&gt;Node9</title>
<path fill="none" stroke="midnightblue" d="M520.78,-324.28C503.21,-302.79 470.72,-266.99 435,-247 428.12,-243.15 420.43,-240.05 412.71,-237.58"/>
<polygon fill="midnightblue" stroke="midnightblue" points="518.19,-326.64 527.17,-332.26 523.66,-322.27 518.19,-326.64"/>
</g>
<!-- Node3&#45;&gt;Node4 -->
<g id="edge3" class="edge">
<title>Node3&#45;&gt;Node4</title>
<path fill="none" stroke="midnightblue" d="M149.17,-333.69C141.71,-331.04 134.3,-327.55 128,-323 88.46,-294.39 61.08,-240.43 51.14,-218.56"/>
<polygon fill="midnightblue" stroke="midnightblue" points="148.32,-337.1 158.91,-336.73 150.4,-330.41 148.32,-337.1"/>
</g>
<!-- Node3&#45;&gt;Node5 -->
<g id="edge4" class="edge">
<title>Node3&#45;&gt;Node5</title>
<path fill="none" stroke="midnightblue" d="M148.73,-342C130.69,-342 109.44,-342 91.04,-342"/>
<polygon fill="midnightblue" stroke="midnightblue" points="148.93,-345.5 158.93,-342 148.93,-338.5 148.93,-345.5"/>
</g>
<!-- Node7 -->
<g id="node7" class="node">
<title>Node7</title>
<g id="a_node7"><a xlink:href="group__parts__3d__fastener__hinges.html#ga1ffc82e0bbac466d1dc4fbe6c214b765" target="_top" xlink:title="A print&#45;in&#45;place bi&#45;fold hinge generator.">
<polygon fill="white" stroke="black" points="161,-370.5 161,-389.5 220,-389.5 220,-370.5 161,-370.5"/>
<text text-anchor="middle" x="190.5" y="-377.5" font-family="Helvetica,sans-Serif" font-size="10.00">hinge_bf</text>
</a>
</g>
</g>
<!-- Node6&#45;&gt;Node7 -->
<g id="edge6" class="edge">
<title>Node6&#45;&gt;Node7</title>
<path fill="none" stroke="midnightblue" d="M322.59,-380C291.5,-380 248.41,-380 220.25,-380"/>
<polygon fill="midnightblue" stroke="midnightblue" points="322.63,-383.5 332.63,-380 322.63,-376.5 322.63,-383.5"/>
</g>
<!-- Node8&#45;&gt;Node5 -->
<g id="edge8" class="edge">
<title>Node8&#45;&gt;Node5</title>
<path fill="none" stroke="midnightblue" d="M317.43,-460.51C268.57,-463.6 188.28,-462.65 128,-432 91.46,-413.42 63.59,-370.93 52.38,-351.73"/>
<polygon fill="midnightblue" stroke="midnightblue" points="317.93,-463.99 327.66,-459.78 317.43,-457 317.93,-463.99"/>
</g>
<!-- Node10 -->
<g id="node10" class="node">
<title>Node10</title>
<g id="a_node10"><a xlink:href="group__parts__3d__enclosure__project__box__rectangle.html#ga24cdfe5fd4bb74b75409d9afdbe1f0c0" target="_top" xlink:title="A rectangular box maker for project boxes, enclosures and housings.">
<polygon fill="white" stroke="black" points="128,-218.5 128,-237.5 253,-237.5 253,-218.5 128,-218.5"/>
<text text-anchor="middle" x="190.5" y="-225.5" font-family="Helvetica,sans-Serif" font-size="10.00">project_box_rectangle</text>
</a>
</g>
</g>
<!-- Node9&#45;&gt;Node10 -->
<g id="edge12" class="edge">
<title>Node9&#45;&gt;Node10</title>
<path fill="none" stroke="midnightblue" d="M278.62,-228C270.07,-228 261.49,-228 253.22,-228"/>
<polygon fill="midnightblue" stroke="midnightblue" points="278.63,-231.5 288.63,-228 278.63,-224.5 278.63,-231.5"/>
</g>
<!-- Node10&#45;&gt;Node4 -->
<g id="edge13" class="edge">
<title>Node10&#45;&gt;Node4</title>
<path fill="none" stroke="midnightblue" d="M117.9,-218.45C109.08,-217.28 100.28,-216.1 92.01,-215"/>
<polygon fill="midnightblue" stroke="midnightblue" points="117.45,-221.92 127.83,-219.78 118.38,-214.99 117.45,-221.92"/>
</g>
<!-- Node10&#45;&gt;Node5 -->
<g id="edge14" class="edge">
<title>Node10&#45;&gt;Node5</title>
<path fill="none" stroke="midnightblue" d="M137.96,-241.45C134.48,-243.1 131.12,-244.94 128,-247 92.7,-270.24 64.18,-313.2 52.59,-332.35"/>
<polygon fill="midnightblue" stroke="midnightblue" points="139.49,-244.6 147.37,-237.51 136.79,-238.14 139.49,-244.6"/>
</g>
<!-- Node11&#45;&gt;Node4 -->
<g id="edge16" class="edge">
<title>Node11&#45;&gt;Node4</title>
<path fill="none" stroke="midnightblue" d="M304.07,-108.44C255.25,-106 184.11,-108.11 128,-133 94.51,-147.85 66.11,-182.52 53.7,-199.41"/>
<polygon fill="midnightblue" stroke="midnightblue" points="303.95,-111.94 314.14,-109.02 304.36,-104.95 303.95,-111.94"/>
</g>
<!-- Node15&#45;&gt;Node10 -->
<g id="edge25" class="edge">
<title>Node15&#45;&gt;Node10</title>
<path fill="none" stroke="midnightblue" d="M308.26,-254.18C284.36,-248.82 256.48,-242.57 233.96,-237.52"/>
<polygon fill="midnightblue" stroke="midnightblue" points="307.7,-257.64 318.23,-256.41 309.24,-250.81 307.7,-257.64"/>
</g>
<!-- Node16 -->
<g id="node16" class="node">
<title>Node16</title>
<g id="a_node16"><a xlink:href="group__parts__3d__fastener__mounts.html#ga0cbac43259ec43fff7785057277bcef3" target="_top" xlink:title="A screw mount post with screw bore and optional fins.">
<polygon fill="white" stroke="black" points="136.5,-256.5 136.5,-275.5 244.5,-275.5 244.5,-256.5 136.5,-256.5"/>
<text text-anchor="middle" x="190.5" y="-263.5" font-family="Helvetica,sans-Serif" font-size="10.00">mount_screw_post</text>
</a>
</g>
</g>
<!-- Node15&#45;&gt;Node16 -->
<g id="edge22" class="edge">
<title>Node15&#45;&gt;Node16</title>
<path fill="none" stroke="midnightblue" d="M304.91,-266C285.48,-266 263.79,-266 244.61,-266"/>
<polygon fill="midnightblue" stroke="midnightblue" points="305.13,-269.5 315.13,-266 305.13,-262.5 305.13,-269.5"/>
</g>
<!-- Node17 -->
<g id="node17" class="node">
<title>Node17</title>
<g id="a_node17"><a xlink:href="group__parts__3d__fastener__mounts.html#gae1cc60f3ff242fb07c5a50d34be8c051" target="_top" xlink:title="A mount tab with screw hole and support brace.">
<polygon fill="white" stroke="black" points="139,-294.5 139,-313.5 242,-313.5 242,-294.5 139,-294.5"/>
<text text-anchor="middle" x="190.5" y="-301.5" font-family="Helvetica,sans-Serif" font-size="10.00">mount_screw_tab</text>
</a>
</g>
</g>
<!-- Node15&#45;&gt;Node17 -->
<g id="edge23" class="edge">
<title>Node15&#45;&gt;Node17</title>
<path fill="none" stroke="midnightblue" d="M308.26,-277.82C284.36,-283.18 256.48,-289.43 233.96,-294.48"/>
<polygon fill="midnightblue" stroke="midnightblue" points="309.24,-281.19 318.23,-275.59 307.7,-274.36 309.24,-281.19"/>
</g>
<!-- Node17&#45;&gt;Node5 -->
<g id="edge24" class="edge">
<title>Node17&#45;&gt;Node5</title>
<path fill="none" stroke="midnightblue" d="M143.85,-316.17C124.14,-321.43 101.43,-327.49 82.95,-332.41"/>
<polygon fill="midnightblue" stroke="midnightblue" points="144.78,-319.55 153.54,-313.59 142.98,-312.78 144.78,-319.55"/>
</g>
<!-- Node19 -->
<g id="node19" class="node">
<title>Node19</title>
<g id="a_node19"><a xlink:href="group__shapes__select__common__2d.html#gadde46fda315aab438eda3f752fec2aed" target="_top" xlink:title="Select configure and construct one of the available 2d shapes.">
<polygon fill="white" stroke="black" points="289,-142.5 289,-161.5 435,-161.5 435,-142.5 289,-142.5"/>
<text text-anchor="middle" x="362" y="-149.5" font-family="Helvetica,sans-Serif" font-size="10.00">select_common_2d_shape</text>
</a>
</g>
</g>
<!-- Node18&#45;&gt;Node19 -->
<g id="edge27" class="edge">
<title>Node18&#45;&gt;Node19</title>
<path fill="none" stroke="midnightblue" d="M479.45,-158.79C465.39,-157.97 450.07,-157.08 435.28,-156.21"/>
<polygon fill="midnightblue" stroke="midnightblue" points="479.25,-162.28 489.44,-159.37 479.66,-155.3 479.25,-162.28"/>
</g>
<!-- Node19&#45;&gt;Node10 -->
<g id="edge29" class="edge">
<title>Node19&#45;&gt;Node10</title>
<path fill="none" stroke="midnightblue" d="M330.08,-165.86C296.09,-181.1 242.37,-205.19 212.79,-218.45"/>
<polygon fill="midnightblue" stroke="midnightblue" points="331.84,-168.91 339.53,-161.63 328.98,-162.52 331.84,-168.91"/>
</g>
<!-- Node20 -->
<g id="node20" class="node">
<title>Node20</title>
<g id="a_node20"><a xlink:href="group__parts__2d__enclosure__box__finger__joint.html#gacc1bfb220bc3cfed46dcaa3b84898020" target="_top" xlink:title="Generate a 2D box design using screw&#45;based finger joint (box&#45;joint).">
<polygon fill="white" stroke="black" points="137,-142.5 137,-161.5 244,-161.5 244,-142.5 137,-142.5"/>
<text text-anchor="middle" x="190.5" y="-149.5" font-family="Helvetica,sans-Serif" font-size="10.00">box2d_finger_joint</text>
</a>
</g>
</g>
<!-- Node19&#45;&gt;Node20 -->
<g id="edge28" class="edge">
<title>Node19&#45;&gt;Node20</title>
<path fill="none" stroke="midnightblue" d="M278.41,-152C266.75,-152 255.04,-152 244.15,-152"/>
<polygon fill="midnightblue" stroke="midnightblue" points="278.63,-155.5 288.63,-152 278.63,-148.5 278.63,-155.5"/>
</g>
<!-- Node21&#45;&gt;Node19 -->
<g id="edge31" class="edge">
<title>Node21&#45;&gt;Node19</title>
<path fill="none" stroke="midnightblue" d="M501.76,-190.84C471.77,-182.44 427.54,-170.06 397.12,-161.55"/>
<polygon fill="midnightblue" stroke="midnightblue" points="501.15,-194.3 511.73,-193.63 503.04,-187.56 501.15,-194.3"/>
</g>
</g>
</svg>
