<?xml version="1.0" encoding="UTF-8" standalone="no"?>
<!DOCTYPE svg PUBLIC "-//W3C//DTD SVG 1.1//EN"
 "http://www.w3.org/Graphics/SVG/1.1/DTD/svg11.dtd">
<!-- Generated by graphviz version 2.43.0 (0)
 -->
<!-- Title: Screws and Bolts Pages: 1 -->
<svg width="262pt" height="29pt"
 viewBox="0.00 0.00 262.00 28.50" xmlns="http://www.w3.org/2000/svg" xmlns:xlink="http://www.w3.org/1999/xlink">
<g id="graph0" class="graph" transform="scale(1 1) rotate(0) translate(4 24.5)">
<title>Screws and Bolts</title>
<polygon fill="white" stroke="transparent" points="-4,4 -4,-24.5 258,-24.5 258,4 -4,4"/>
<!-- Node1 -->
<g id="node1" class="node">
<title>Node1</title>
<g id="a_node1"><a xlink:title="Screws, bolts and fastener bores.">
<polygon fill="#bfbfbf" stroke="black" points="100,-19 0,-19 0,0 100,0 100,-19"/>
<text text-anchor="middle" x="50" y="-7" font-family="Helvetica,sans-Serif" font-size="10.00">Screws and Bolts</text>
</a>
</g>
</g>
<!-- Node2 -->
<g id="node2" class="node">
<title>Node2</title>
<g id="a_node2"><a xlink:href="group__models__3d__fastener.html" target="_top" xlink:title="Fasteners, connectors, latches, and hinges.">
<polygon fill="white" stroke="black" points="254,-19 196,-19 196,0 254,0 254,-19"/>
<text text-anchor="middle" x="225" y="-7" font-family="Helvetica,sans-Serif" font-size="10.00">Fastener</text>
</a>
</g>
</g>
<!-- Node1&#45;&gt;Node2 -->
<g id="edge2" class="edge">
<title>Node1&#45;&gt;Node2</title>
<path fill="none" stroke="darkgreen" stroke-dasharray="5,2" d="M100.11,-9.5C131.08,-9.5 169.96,-9.5 195.83,-9.5"/>
<text text-anchor="middle" x="148" y="-12.5" font-family="Helvetica,sans-Serif" font-size="10.00">screws.scad</text>
</g>
<!-- Node2&#45;&gt;Node1 -->
<g id="edge1" class="edge">
<title>Node2&#45;&gt;Node1</title>
<path fill="none" stroke="black" d="M185.73,-7.71C183.11,-7.63 180.52,-7.55 178,-7.5 151.34,-6.92 144.66,-7.1 118,-7.5 112.18,-7.59 106.08,-7.72 100.03,-7.87"/>
<polygon fill="black" stroke="black" points="185.67,-11.21 195.79,-8.08 185.92,-4.21 185.67,-11.21"/>
</g>
</g>
</svg>
