<?xml version="1.0" encoding="UTF-8" standalone="no"?>
<!DOCTYPE svg PUBLIC "-//W3C//DTD SVG 1.1//EN"
 "http://www.w3.org/Graphics/SVG/1.1/DTD/svg11.dtd">
<!-- Generated by graphviz version 2.43.0 (0)
 -->
<!-- Title: point_to_3d Pages: 1 -->
<svg width="403pt" height="104pt"
 viewBox="0.00 0.00 403.00 104.00" xmlns="http://www.w3.org/2000/svg" xmlns:xlink="http://www.w3.org/1999/xlink">
<g id="graph0" class="graph" transform="scale(1 1) rotate(0) translate(4 100)">
<title>point_to_3d</title>
<polygon fill="white" stroke="transparent" points="-4,4 -4,-100 399,-100 399,4 -4,4"/>
<!-- Node1 -->
<g id="node1" class="node">
<title>Node1</title>
<g id="a_node1"><a xlink:title="Return 3d point unchanged or add a zeroed third dimension to 2d point.">
<polygon fill="#bfbfbf" stroke="black" points="321,-38.5 321,-57.5 395,-57.5 395,-38.5 321,-38.5"/>
<text text-anchor="middle" x="358" y="-45.5" font-family="Helvetica,sans-Serif" font-size="10.00">point_to_3d</text>
</a>
</g>
</g>
<!-- Node2 -->
<g id="node2" class="node">
<title>Node2</title>
<g id="a_node2"><a xlink:href="group__transforms__align.html#gac695554e76def13eeb5a15a349f5fa12" target="_top" xlink:title="Align a line or vector to a reference line or vector.">
<polygon fill="white" stroke="black" points="116,-76.5 116,-95.5 168,-95.5 168,-76.5 116,-76.5"/>
<text text-anchor="middle" x="142" y="-83.5" font-family="Helvetica,sans-Serif" font-size="10.00">align_ll</text>
</a>
</g>
</g>
<!-- Node1&#45;&gt;Node2 -->
<g id="edge1" class="edge">
<title>Node1&#45;&gt;Node2</title>
<path fill="none" stroke="midnightblue" d="M314.45,-60.17C304.82,-62.66 294.6,-65.1 285,-67 244.38,-75.05 196.53,-80.66 168.04,-83.61"/>
<polygon fill="midnightblue" stroke="midnightblue" points="315.46,-63.52 324.23,-57.57 313.66,-56.76 315.46,-63.52"/>
</g>
<!-- Node4 -->
<g id="node4" class="node">
<title>Node4</title>
<g id="a_node4"><a xlink:href="group__transforms__align.html#ga8f52a6a936d0f5e248f836d19df14a9f" target="_top" xlink:title="Orient a line or vector to a reference line or vector.">
<polygon fill="white" stroke="black" points="229,-38.5 229,-57.5 285,-57.5 285,-38.5 229,-38.5"/>
<text text-anchor="middle" x="257" y="-45.5" font-family="Helvetica,sans-Serif" font-size="10.00">orient_ll</text>
</a>
</g>
</g>
<!-- Node1&#45;&gt;Node4 -->
<g id="edge3" class="edge">
<title>Node1&#45;&gt;Node4</title>
<path fill="none" stroke="midnightblue" d="M310.8,-48C302.02,-48 293.09,-48 285.15,-48"/>
<polygon fill="midnightblue" stroke="midnightblue" points="310.98,-51.5 320.98,-48 310.98,-44.5 310.98,-51.5"/>
</g>
<!-- Node5 -->
<g id="node5" class="node">
<title>Node5</title>
<g id="a_node5"><a xlink:href="group__tools__common__polytope.html#ga530c86f9c90ce074aa7adc29834f0539" target="_top" xlink:title="Assemble a polytope skeletal frame using child objects.">
<polygon fill="white" stroke="black" points="95,-0.5 95,-19.5 189,-19.5 189,-0.5 95,-0.5"/>
<text text-anchor="middle" x="142" y="-7.5" font-family="Helvetica,sans-Serif" font-size="10.00">polytope_frame</text>
</a>
</g>
</g>
<!-- Node1&#45;&gt;Node5 -->
<g id="edge7" class="edge">
<title>Node1&#45;&gt;Node5</title>
<path fill="none" stroke="midnightblue" d="M314.45,-35.83C304.82,-33.34 294.6,-30.9 285,-29 253.28,-22.72 217.16,-17.92 189.28,-14.71"/>
<polygon fill="midnightblue" stroke="midnightblue" points="313.66,-39.24 324.23,-38.43 315.46,-32.48 313.66,-39.24"/>
</g>
<!-- Node3 -->
<g id="node3" class="node">
<title>Node3</title>
<g id="a_node3"><a xlink:href="group__transforms__align.html#ga8a1b75b5a53478f7ce1ca287cc479364" target="_top" xlink:title="Align an objects Cartesian axis to reference line or vector.">
<polygon fill="white" stroke="black" points="0,-76.5 0,-95.5 55,-95.5 55,-76.5 0,-76.5"/>
<text text-anchor="middle" x="27.5" y="-83.5" font-family="Helvetica,sans-Serif" font-size="10.00">align_al</text>
</a>
</g>
</g>
<!-- Node2&#45;&gt;Node3 -->
<g id="edge2" class="edge">
<title>Node2&#45;&gt;Node3</title>
<path fill="none" stroke="midnightblue" d="M105.52,-86C89.24,-86 70.27,-86 55.23,-86"/>
<polygon fill="midnightblue" stroke="midnightblue" points="105.75,-89.5 115.75,-86 105.75,-82.5 105.75,-89.5"/>
</g>
<!-- Node4&#45;&gt;Node2 -->
<g id="edge4" class="edge">
<title>Node4&#45;&gt;Node2</title>
<path fill="none" stroke="midnightblue" d="M218.99,-60.45C202.39,-66.03 183.22,-72.47 168.3,-77.49"/>
<polygon fill="midnightblue" stroke="midnightblue" points="220.57,-63.61 228.93,-57.1 218.34,-56.97 220.57,-63.61"/>
</g>
<!-- Node4&#45;&gt;Node5 -->
<g id="edge5" class="edge">
<title>Node4&#45;&gt;Node5</title>
<path fill="none" stroke="midnightblue" d="M219.13,-35.6C203.63,-30.39 185.88,-24.42 171.42,-19.56"/>
<polygon fill="midnightblue" stroke="midnightblue" points="218.34,-39.03 228.93,-38.9 220.57,-32.39 218.34,-39.03"/>
</g>
<!-- Node6 -->
<g id="node6" class="node">
<title>Node6</title>
<g id="a_node6"><a xlink:href="group__tools__common__polytope.html#ga00b574079f19251be7281151d11db8fa" target="_top" xlink:title="Label the vertices, paths, and edges of a polytope.">
<polygon fill="white" stroke="black" points="91,-38.5 91,-57.5 193,-57.5 193,-38.5 91,-38.5"/>
<text text-anchor="middle" x="142" y="-45.5" font-family="Helvetica,sans-Serif" font-size="10.00">polytope_number</text>
</a>
</g>
</g>
<!-- Node4&#45;&gt;Node6 -->
<g id="edge6" class="edge">
<title>Node4&#45;&gt;Node6</title>
<path fill="none" stroke="midnightblue" d="M218.67,-48C210.54,-48 201.82,-48 193.29,-48"/>
<polygon fill="midnightblue" stroke="midnightblue" points="218.93,-51.5 228.93,-48 218.93,-44.5 218.93,-51.5"/>
</g>
</g>
</svg>
