<?xml version="1.0" encoding="UTF-8" standalone="no"?>
<!DOCTYPE svg PUBLIC "-//W3C//DTD SVG 1.1//EN"
 "http://www.w3.org/Graphics/SVG/1.1/DTD/svg11.dtd">
<!-- Generated by graphviz version 2.43.0 (0)
 -->
<!-- Title: Joint Pages: 1 -->
<svg width="331pt" height="83pt"
 viewBox="0.00 0.00 331.00 82.78" xmlns="http://www.w3.org/2000/svg" xmlns:xlink="http://www.w3.org/1999/xlink">
<g id="graph0" class="graph" transform="scale(1 1) rotate(0) translate(4 78.78)">
<title>Joint</title>
<polygon fill="white" stroke="transparent" points="-4,4 -4,-78.78 327,-78.78 327,4 -4,4"/>
<!-- Node3 -->
<g id="node1" class="node">
<title>Node3</title>
<g id="a_node1"><a xlink:href="group__models__2d__joint__dovetail.html" target="_top" xlink:title="Models for generating dovetailed joints in 2d.">
<polygon fill="white" stroke="black" points="320.5,-71.91 257.5,-71.91 257.5,-52.91 320.5,-52.91 320.5,-71.91"/>
<text text-anchor="middle" x="289" y="-59.91" font-family="Helvetica,sans-Serif" font-size="10.00">Dovetails</text>
</a>
</g>
</g>
<!-- Node1 -->
<g id="node2" class="node">
<title>Node1</title>
<g id="a_node2"><a xlink:title="Models for connecting 2d planar members.">
<polygon fill="#bfbfbf" stroke="black" points="142,-47.91 104,-47.91 104,-28.91 142,-28.91 142,-47.91"/>
<text text-anchor="middle" x="123" y="-35.91" font-family="Helvetica,sans-Serif" font-size="10.00">Joint</text>
</a>
</g>
</g>
<!-- Node1&#45;&gt;Node3 -->
<g id="edge2" class="edge">
<title>Node1&#45;&gt;Node3</title>
<path fill="none" stroke="black" d="M139.96,-55.12C145.75,-60.05 152.68,-64.83 160,-67.41 191.77,-78.62 230.77,-74.81 257.31,-69.83"/>
<polygon fill="black" stroke="black" points="142.07,-52.29 132.38,-48 137.28,-57.4 142.07,-52.29"/>
</g>
<!-- Node1&#45;&gt;Node3 -->
<g id="edge4" class="edge">
<title>Node1&#45;&gt;Node3</title>
<path fill="none" stroke="darkgreen" stroke-dasharray="5,2" d="M142.02,-40.88C164.33,-43.95 203.49,-49.41 237,-54.41 243.56,-55.39 250.59,-56.47 257.27,-57.51"/>
<text text-anchor="middle" x="198.5" y="-57.41" font-family="Helvetica,sans-Serif" font-size="10.00">dovetail.scad</text>
</g>
<!-- Node4 -->
<g id="node3" class="node">
<title>Node4</title>
<g id="a_node3"><a xlink:href="group__models__2d__joint__box__screw.html" target="_top" xlink:title="Models for generating 2d box joints fastened with screw and nut.">
<polygon fill="white" stroke="black" points="323,-23.91 255,-23.91 255,-4.91 323,-4.91 323,-23.91"/>
<text text-anchor="middle" x="289" y="-11.91" font-family="Helvetica,sans-Serif" font-size="10.00">Box Screw</text>
</a>
</g>
</g>
<!-- Node1&#45;&gt;Node4 -->
<g id="edge3" class="edge">
<title>Node1&#45;&gt;Node4</title>
<path fill="none" stroke="black" d="M152.27,-34.27C180.71,-30.11 224.58,-23.69 254.7,-19.28"/>
<polygon fill="black" stroke="black" points="151.57,-30.84 142.18,-35.75 152.58,-37.76 151.57,-30.84"/>
</g>
<!-- Node1&#45;&gt;Node4 -->
<g id="edge5" class="edge">
<title>Node1&#45;&gt;Node4</title>
<path fill="none" stroke="darkgreen" stroke-dasharray="5,2" d="M131.71,-28.78C138.31,-21.36 148.56,-11.66 160,-7.41 190.67,3.98 228.32,-0.02 254.83,-5.49"/>
<text text-anchor="middle" x="198.5" y="-10.41" font-family="Helvetica,sans-Serif" font-size="10.00">box_screw.scad</text>
</g>
<!-- Node2 -->
<g id="node4" class="node">
<title>Node2</title>
<g id="a_node4"><a xlink:href="group__models__2d.html" target="_top" xlink:title="2d black&#45;box models of design components.">
<polygon fill="white" stroke="black" points="67,-47.91 0,-47.91 0,-28.91 67,-28.91 67,-47.91"/>
<text text-anchor="middle" x="33.5" y="-35.91" font-family="Helvetica,sans-Serif" font-size="10.00">2d Models</text>
</a>
</g>
</g>
<!-- Node2&#45;&gt;Node1 -->
<g id="edge1" class="edge">
<title>Node2&#45;&gt;Node1</title>
<path fill="none" stroke="black" d="M77.18,-38.41C86.59,-38.41 96.07,-38.41 103.87,-38.41"/>
<polygon fill="black" stroke="black" points="77.08,-34.91 67.08,-38.41 77.08,-41.91 77.08,-34.91"/>
</g>
</g>
</svg>
