<?xml version="1.0" encoding="UTF-8" standalone="no"?>
<!DOCTYPE svg PUBLIC "-//W3C//DTD SVG 1.1//EN"
 "http://www.w3.org/Graphics/SVG/1.1/DTD/svg11.dtd">
<!-- Generated by graphviz version 2.43.0 (0)
 -->
<!-- Title: firstn Pages: 1 -->
<svg width="177pt" height="66pt"
 viewBox="0.00 0.00 177.00 66.00" xmlns="http://www.w3.org/2000/svg" xmlns:xlink="http://www.w3.org/1999/xlink">
<g id="graph0" class="graph" transform="scale(1 1) rotate(0) translate(4 62)">
<title>firstn</title>
<polygon fill="white" stroke="transparent" points="-4,4 -4,-62 173,-62 173,4 -4,4"/>
<!-- Node1 -->
<g id="node1" class="node">
<title>Node1</title>
<g id="a_node1"><a xlink:title="Return a list containing the first n elements of an iterable value.">
<polygon fill="#bfbfbf" stroke="black" points="128,-19.5 128,-38.5 169,-38.5 169,-19.5 128,-19.5"/>
<text text-anchor="middle" x="148.5" y="-26.5" font-family="Helvetica,sans-Serif" font-size="10.00">firstn</text>
</a>
</g>
</g>
<!-- Node2 -->
<g id="node2" class="node">
<title>Node2</title>
<g id="a_node2"><a xlink:href="group__tools__2d__drafting.html#gac08f304cd201a44444b6364e039c9b74" target="_top" xlink:title="Draft an arc with configurable style and optional arrowheads.">
<polygon fill="white" stroke="black" points="16.5,-38.5 16.5,-57.5 75.5,-57.5 75.5,-38.5 16.5,-38.5"/>
<text text-anchor="middle" x="46" y="-45.5" font-family="Helvetica,sans-Serif" font-size="10.00">draft_arc</text>
</a>
</g>
</g>
<!-- Node1&#45;&gt;Node2 -->
<g id="edge1" class="edge">
<title>Node1&#45;&gt;Node2</title>
<path fill="none" stroke="midnightblue" d="M117.56,-34.66C104.27,-37.17 88.7,-40.12 75.57,-42.6"/>
<polygon fill="midnightblue" stroke="midnightblue" points="118.47,-38.05 127.64,-32.75 117.17,-31.17 118.47,-38.05"/>
</g>
<!-- Node3 -->
<g id="node3" class="node">
<title>Node3</title>
<g id="a_node3"><a xlink:href="group__parts__3d__computer__pcie__expansion.html#gab6fb1c9f8f6550633467f4ec0bd3f983" target="_top" xlink:title="Generate a PCI Express expansion open chassis or closed enclosure.">
<polygon fill="white" stroke="black" points="0,-0.5 0,-19.5 92,-19.5 92,-0.5 0,-0.5"/>
<text text-anchor="middle" x="46" y="-7.5" font-family="Helvetica,sans-Serif" font-size="10.00">pcie_expansion</text>
</a>
</g>
</g>
<!-- Node1&#45;&gt;Node3 -->
<g id="edge2" class="edge">
<title>Node1&#45;&gt;Node3</title>
<path fill="none" stroke="midnightblue" d="M117.68,-23.36C109.67,-21.85 100.82,-20.18 92.18,-18.54"/>
<polygon fill="midnightblue" stroke="midnightblue" points="117.17,-26.83 127.64,-25.25 118.47,-19.95 117.17,-26.83"/>
</g>
</g>
</svg>
