<?xml version="1.0" encoding="UTF-8" standalone="no"?>
<!DOCTYPE svg PUBLIC "-//W3C//DTD SVG 1.1//EN"
 "http://www.w3.org/Graphics/SVG/1.1/DTD/svg11.dtd">
<!-- Generated by graphviz version 2.43.0 (0)
 -->
<!-- Title: pg_triangle_ppp Pages: 1 -->
<svg width="279pt" height="180pt"
 viewBox="0.00 0.00 279.00 180.00" xmlns="http://www.w3.org/2000/svg" xmlns:xlink="http://www.w3.org/1999/xlink">
<g id="graph0" class="graph" transform="scale(1 1) rotate(0) translate(4 176)">
<title>pg_triangle_ppp</title>
<polygon fill="white" stroke="transparent" points="-4,4 -4,-176 275,-176 275,4 -4,4"/>
<!-- Node1 -->
<g id="node1" class="node">
<title>Node1</title>
<g id="a_node1"><a xlink:title="A polygon triangle specified by three coordinate points with vertex rounding.">
<polygon fill="#bfbfbf" stroke="black" points="0,-76.5 0,-95.5 95,-95.5 95,-76.5 0,-76.5"/>
<text text-anchor="middle" x="47.5" y="-83.5" font-family="Helvetica,sans-Serif" font-size="10.00">pg_triangle_ppp</text>
</a>
</g>
</g>
<!-- Node2 -->
<g id="node2" class="node">
<title>Node2</title>
<g id="a_node2"><a xlink:href="group__math__polygon.html#ga7a0eff64929a142fc507615f83e3bd58" target="_top" xlink:title="Compute coordinates that round all of the vertices between each adjacent edges in 2D.">
<polygon fill="white" stroke="black" points="131,-152.5 131,-171.5 271,-171.5 271,-152.5 131,-152.5"/>
<text text-anchor="middle" x="201" y="-159.5" font-family="Helvetica,sans-Serif" font-size="10.00">polygon_round_eve_all_p</text>
</a>
</g>
</g>
<!-- Node1&#45;&gt;Node2 -->
<g id="edge1" class="edge">
<title>Node1&#45;&gt;Node2</title>
<path fill="none" stroke="midnightblue" d="M59.76,-95.64C74.98,-108.21 103.39,-130.12 131,-143 136,-145.33 141.33,-147.43 146.74,-149.3"/>
<polygon fill="midnightblue" stroke="midnightblue" points="145.91,-152.7 156.5,-152.42 148.05,-146.04 145.91,-152.7"/>
</g>
<!-- Node3 -->
<g id="node3" class="node">
<title>Node3</title>
<g id="a_node3"><a xlink:href="group__math__linear__algebra.html#gaeabe74699fd0a437bad9a1d442bfd111" target="_top" xlink:title="Translate all coordinates dimensions.">
<polygon fill="white" stroke="black" points="165.5,-114.5 165.5,-133.5 236.5,-133.5 236.5,-114.5 165.5,-114.5"/>
<text text-anchor="middle" x="201" y="-121.5" font-family="Helvetica,sans-Serif" font-size="10.00">translate_p</text>
</a>
</g>
</g>
<!-- Node1&#45;&gt;Node3 -->
<g id="edge2" class="edge">
<title>Node1&#45;&gt;Node3</title>
<path fill="none" stroke="midnightblue" d="M86.73,-95.59C107.71,-100.85 133.83,-107.4 155.69,-112.89"/>
<polygon fill="midnightblue" stroke="midnightblue" points="154.86,-116.29 165.41,-115.32 156.56,-109.5 154.86,-116.29"/>
</g>
<!-- Node4 -->
<g id="node4" class="node">
<title>Node4</title>
<g id="a_node4"><a xlink:href="group__math__triangle.html#gac0d11ca2c5035a9e53c1144f3774b0b4" target="_top" xlink:title="Compute the center coordinate of a triangle&#39;s incircle in 2D.">
<polygon fill="white" stroke="black" points="145.5,-76.5 145.5,-95.5 256.5,-95.5 256.5,-76.5 145.5,-76.5"/>
<text text-anchor="middle" x="201" y="-83.5" font-family="Helvetica,sans-Serif" font-size="10.00">triangle2d_incenter</text>
</a>
</g>
</g>
<!-- Node1&#45;&gt;Node4 -->
<g id="edge3" class="edge">
<title>Node1&#45;&gt;Node4</title>
<path fill="none" stroke="midnightblue" d="M95.19,-86C107.87,-86 121.83,-86 135.31,-86"/>
<polygon fill="midnightblue" stroke="midnightblue" points="135.5,-89.5 145.5,-86 135.5,-82.5 135.5,-89.5"/>
</g>
<!-- Node5 -->
<g id="node5" class="node">
<title>Node5</title>
<g id="a_node5"><a xlink:href="group__math__triangle.html#ga51e8d8c2004f859d216790f7966b7dfd" target="_top" xlink:title="Compute the centroid of a triangle.">
<polygon fill="white" stroke="black" points="151.5,-38.5 151.5,-57.5 250.5,-57.5 250.5,-38.5 151.5,-38.5"/>
<text text-anchor="middle" x="201" y="-45.5" font-family="Helvetica,sans-Serif" font-size="10.00">triangle_centroid</text>
</a>
</g>
</g>
<!-- Node1&#45;&gt;Node5 -->
<g id="edge4" class="edge">
<title>Node1&#45;&gt;Node5</title>
<path fill="none" stroke="midnightblue" d="M86.73,-76.41C106.63,-71.42 131.16,-65.27 152.29,-59.97"/>
<polygon fill="midnightblue" stroke="midnightblue" points="153.2,-63.35 162.05,-57.52 151.49,-56.56 153.2,-63.35"/>
</g>
<!-- Node6 -->
<g id="node6" class="node">
<title>Node6</title>
<g id="a_node6"><a xlink:href="group__math__triangle.html#ga5cf2801b07faec68a51ac3cd901bc4b0" target="_top" xlink:title="Compute the coordinate of a triangle&#39;s circumcenter.">
<polygon fill="white" stroke="black" points="139.5,-0.5 139.5,-19.5 262.5,-19.5 262.5,-0.5 139.5,-0.5"/>
<text text-anchor="middle" x="201" y="-7.5" font-family="Helvetica,sans-Serif" font-size="10.00">triangle_circumcenter</text>
</a>
</g>
</g>
<!-- Node1&#45;&gt;Node6 -->
<g id="edge5" class="edge">
<title>Node1&#45;&gt;Node6</title>
<path fill="none" stroke="midnightblue" d="M59.76,-76.36C74.98,-63.79 103.39,-41.88 131,-29 136,-26.67 141.33,-24.57 146.74,-22.7"/>
<polygon fill="midnightblue" stroke="midnightblue" points="148.05,-25.96 156.5,-19.58 145.91,-19.3 148.05,-25.96"/>
</g>
</g>
</svg>
