<?xml version="1.0" encoding="UTF-8" standalone="no"?>
<!DOCTYPE svg PUBLIC "-//W3C//DTD SVG 1.1//EN"
 "http://www.w3.org/Graphics/SVG/1.1/DTD/svg11.dtd">
<!-- Generated by graphviz version 2.43.0 (0)
 -->
<!-- Title: log_info Pages: 1 -->
<svg width="535pt" height="265pt"
 viewBox="0.00 0.00 535.00 264.92" xmlns="http://www.w3.org/2000/svg" xmlns:xlink="http://www.w3.org/1999/xlink">
<g id="graph0" class="graph" transform="scale(1 1) rotate(0) translate(4 260.92)">
<title>log_info</title>
<polygon fill="white" stroke="transparent" points="-4,4 -4,-260.92 531,-260.92 531,4 -4,4"/>
<!-- Node1 -->
<g id="node1" class="node">
<title>Node1</title>
<g id="a_node1"><a xlink:title="Output information message to console.">
<polygon fill="#bfbfbf" stroke="black" points="471,-133.5 471,-152.5 527,-152.5 527,-133.5 471,-133.5"/>
<text text-anchor="middle" x="499" y="-140.5" font-family="Helvetica,sans-Serif" font-size="10.00">log_info</text>
</a>
</g>
</g>
<!-- Node2 -->
<g id="node2" class="node">
<title>Node2</title>
<g id="a_node2"><a xlink:href="group__parts__2d__enclosure__box__finger__joint.html#gacc1bfb220bc3cfed46dcaa3b84898020" target="_top" xlink:title="Generate a 2D box design using screw&#45;based finger joint (box&#45;joint).">
<polygon fill="white" stroke="black" points="137,-209.5 137,-228.5 244,-228.5 244,-209.5 137,-209.5"/>
<text text-anchor="middle" x="190.5" y="-216.5" font-family="Helvetica,sans-Serif" font-size="10.00">box2d_finger_joint</text>
</a>
</g>
</g>
<!-- Node1&#45;&gt;Node2 -->
<g id="edge1" class="edge">
<title>Node1&#45;&gt;Node2</title>
<path fill="none" stroke="midnightblue" d="M491.63,-162.2C482.9,-185.02 464.81,-222 435,-238 362.33,-277 259.53,-245.77 214.33,-228.52"/>
<polygon fill="midnightblue" stroke="midnightblue" points="495,-163.16 495.08,-152.57 488.41,-160.8 495,-163.16"/>
</g>
<!-- Node3 -->
<g id="node3" class="node">
<title>Node3</title>
<g id="a_node3"><a xlink:href="group__transforms__layout.html#gad8eb4ce3a4707e71e80f4f5c8c3faa32" target="_top" xlink:title="A transform sequence to place a child shape.">
<polygon fill="white" stroke="black" points="320.5,-95.5 320.5,-114.5 403.5,-114.5 403.5,-95.5 320.5,-95.5"/>
<text text-anchor="middle" x="362" y="-102.5" font-family="Helvetica,sans-Serif" font-size="10.00">layout_grid_p</text>
</a>
</g>
</g>
<!-- Node1&#45;&gt;Node3 -->
<g id="edge2" class="edge">
<title>Node1&#45;&gt;Node3</title>
<path fill="none" stroke="midnightblue" d="M461.05,-131.62C452.52,-129.06 443.45,-126.39 435,-124 423.68,-120.8 411.31,-117.47 400.07,-114.52"/>
<polygon fill="midnightblue" stroke="midnightblue" points="460.19,-135.02 470.77,-134.56 462.21,-128.32 460.19,-135.02"/>
</g>
<!-- Node4 -->
<g id="node4" class="node">
<title>Node4</title>
<g id="a_node4"><a xlink:href="group__transforms__layout.html#ga36a7e290a310a680c8e9834c8e10bec3" target="_top" xlink:title="A transform sequence to replicate and place a child shape.">
<polygon fill="white" stroke="black" points="319,-171.5 319,-190.5 405,-190.5 405,-171.5 319,-171.5"/>
<text text-anchor="middle" x="362" y="-178.5" font-family="Helvetica,sans-Serif" font-size="10.00">layout_grid_rp</text>
</a>
</g>
</g>
<!-- Node1&#45;&gt;Node4 -->
<g id="edge3" class="edge">
<title>Node1&#45;&gt;Node4</title>
<path fill="none" stroke="midnightblue" d="M461.05,-154.38C452.52,-156.94 443.45,-159.61 435,-162 423.68,-165.2 411.31,-168.53 400.07,-171.48"/>
<polygon fill="midnightblue" stroke="midnightblue" points="462.21,-157.68 470.77,-151.44 460.19,-150.98 462.21,-157.68"/>
</g>
<!-- Node8 -->
<g id="node8" class="node">
<title>Node8</title>
<g id="a_node8"><a xlink:href="group__transforms__repeat.html#gad3a61508128c356ec1348225ec9b3ce0" target="_top" xlink:title="Repeat copies of child objects about a Cartesian grid.">
<polygon fill="white" stroke="black" points="326,-57.5 326,-76.5 398,-76.5 398,-57.5 326,-57.5"/>
<text text-anchor="middle" x="362" y="-64.5" font-family="Helvetica,sans-Serif" font-size="10.00">repeat_grid</text>
</a>
</g>
</g>
<!-- Node1&#45;&gt;Node8 -->
<g id="edge8" class="edge">
<title>Node1&#45;&gt;Node8</title>
<path fill="none" stroke="midnightblue" d="M483.19,-125.73C471.36,-112.98 453.72,-96.15 435,-86 423.75,-79.9 410.43,-75.68 398.33,-72.79"/>
<polygon fill="midnightblue" stroke="midnightblue" points="480.79,-128.3 490.07,-133.4 486,-123.62 480.79,-128.3"/>
</g>
<!-- Node9 -->
<g id="node9" class="node">
<title>Node9</title>
<g id="a_node9"><a xlink:href="group__shapes__select__common__2d.html#gadde46fda315aab438eda3f752fec2aed" target="_top" xlink:title="Select configure and construct one of the available 2d shapes.">
<polygon fill="white" stroke="black" points="289,-209.5 289,-228.5 435,-228.5 435,-209.5 289,-209.5"/>
<text text-anchor="middle" x="362" y="-216.5" font-family="Helvetica,sans-Serif" font-size="10.00">select_common_2d_shape</text>
</a>
</g>
</g>
<!-- Node1&#45;&gt;Node9 -->
<g id="edge9" class="edge">
<title>Node1&#45;&gt;Node9</title>
<path fill="none" stroke="midnightblue" d="M483.19,-160.27C471.36,-173.02 453.72,-189.85 435,-200 427.95,-203.82 420.1,-206.9 412.24,-209.38"/>
<polygon fill="midnightblue" stroke="midnightblue" points="486,-162.38 490.07,-152.6 480.79,-157.7 486,-162.38"/>
</g>
<!-- Node10 -->
<g id="node10" class="node">
<title>Node10</title>
<g id="a_node10"><a xlink:href="group__shapes__select__common__3d.html#ga3fd7f214eff2f5935ad1bb56415a4aaf" target="_top" xlink:title="Select configure and construct one of the available 3d shapes.">
<polygon fill="white" stroke="black" points="289,-133.5 289,-152.5 435,-152.5 435,-133.5 289,-133.5"/>
<text text-anchor="middle" x="362" y="-140.5" font-family="Helvetica,sans-Serif" font-size="10.00">select_common_3d_shape</text>
</a>
</g>
</g>
<!-- Node1&#45;&gt;Node10 -->
<g id="edge12" class="edge">
<title>Node1&#45;&gt;Node10</title>
<path fill="none" stroke="midnightblue" d="M460.67,-143C452.7,-143 444.03,-143 435.25,-143"/>
<polygon fill="midnightblue" stroke="midnightblue" points="460.68,-146.5 470.68,-143 460.68,-139.5 460.68,-146.5"/>
</g>
<!-- Node11 -->
<g id="node11" class="node">
<title>Node11</title>
<g id="a_node11"><a xlink:href="group__datatypes__table.html#ga8a4429649e8b06d9f492e1a0d2653656" target="_top" xlink:title="Perform basic format checks on a table and output errors to console.">
<polygon fill="white" stroke="black" points="324.5,-19.5 324.5,-38.5 399.5,-38.5 399.5,-19.5 324.5,-19.5"/>
<text text-anchor="middle" x="362" y="-26.5" font-family="Helvetica,sans-Serif" font-size="10.00">table_check</text>
</a>
</g>
</g>
<!-- Node1&#45;&gt;Node11 -->
<g id="edge14" class="edge">
<title>Node1&#45;&gt;Node11</title>
<path fill="none" stroke="midnightblue" d="M490.29,-123.74C480.62,-102.05 461.96,-67.31 435,-48 424.7,-40.62 411.74,-36.11 399.65,-33.35"/>
<polygon fill="midnightblue" stroke="midnightblue" points="487.19,-125.38 494.32,-133.22 493.63,-122.64 487.19,-125.38"/>
</g>
<!-- Node4&#45;&gt;Node2 -->
<g id="edge4" class="edge">
<title>Node4&#45;&gt;Node2</title>
<path fill="none" stroke="midnightblue" d="M308.65,-192.74C284.64,-198.12 256.54,-204.42 233.88,-209.5"/>
<polygon fill="midnightblue" stroke="midnightblue" points="309.67,-196.09 318.67,-190.49 308.14,-189.26 309.67,-196.09"/>
</g>
<!-- Node5 -->
<g id="node5" class="node">
<title>Node5</title>
<g id="a_node5"><a xlink:href="group__parts__3d__enclosure__project__box__rectangle.html#ga24cdfe5fd4bb74b75409d9afdbe1f0c0" target="_top" xlink:title="A rectangular box maker for project boxes, enclosures and housings.">
<polygon fill="white" stroke="black" points="128,-171.5 128,-190.5 253,-190.5 253,-171.5 128,-171.5"/>
<text text-anchor="middle" x="190.5" y="-178.5" font-family="Helvetica,sans-Serif" font-size="10.00">project_box_rectangle</text>
</a>
</g>
</g>
<!-- Node4&#45;&gt;Node5 -->
<g id="edge5" class="edge">
<title>Node4&#45;&gt;Node5</title>
<path fill="none" stroke="midnightblue" d="M308.61,-181C291.05,-181 271.31,-181 253.12,-181"/>
<polygon fill="midnightblue" stroke="midnightblue" points="308.67,-184.5 318.67,-181 308.67,-177.5 308.67,-184.5"/>
</g>
<!-- Node6 -->
<g id="node6" class="node">
<title>Node6</title>
<g id="a_node6"><a xlink:href="group__parts__3d__computer__pcie__expansion.html#gab6fb1c9f8f6550633467f4ec0bd3f983" target="_top" xlink:title="Generate a PCI Express expansion open chassis or closed enclosure.">
<polygon fill="white" stroke="black" points="0,-190.5 0,-209.5 92,-209.5 92,-190.5 0,-190.5"/>
<text text-anchor="middle" x="46" y="-197.5" font-family="Helvetica,sans-Serif" font-size="10.00">pcie_expansion</text>
</a>
</g>
</g>
<!-- Node5&#45;&gt;Node6 -->
<g id="edge6" class="edge">
<title>Node5&#45;&gt;Node6</title>
<path fill="none" stroke="midnightblue" d="M117.9,-190.55C109.08,-191.72 100.28,-192.9 92.01,-194"/>
<polygon fill="midnightblue" stroke="midnightblue" points="118.38,-194.01 127.83,-189.22 117.45,-187.08 118.38,-194.01"/>
</g>
<!-- Node7 -->
<g id="node7" class="node">
<title>Node7</title>
<g id="a_node7"><a xlink:href="group__parts__3d__enclosure__power__strip.html#ga33509a1811b27fe7f3687957d4d32460" target="_top" xlink:title="A power strip generator for single gang electrical receptacles.">
<polygon fill="white" stroke="black" points="1,-152.5 1,-171.5 91,-171.5 91,-152.5 1,-152.5"/>
<text text-anchor="middle" x="46" y="-159.5" font-family="Helvetica,sans-Serif" font-size="10.00">power_strip_sg</text>
</a>
</g>
</g>
<!-- Node5&#45;&gt;Node7 -->
<g id="edge7" class="edge">
<title>Node5&#45;&gt;Node7</title>
<path fill="none" stroke="midnightblue" d="M117.65,-171.42C108.61,-170.22 99.59,-169.01 91.16,-167.89"/>
<polygon fill="midnightblue" stroke="midnightblue" points="117.45,-174.92 127.83,-172.78 118.38,-167.99 117.45,-174.92"/>
</g>
<!-- Node9&#45;&gt;Node2 -->
<g id="edge10" class="edge">
<title>Node9&#45;&gt;Node2</title>
<path fill="none" stroke="midnightblue" d="M278.41,-219C266.75,-219 255.04,-219 244.15,-219"/>
<polygon fill="midnightblue" stroke="midnightblue" points="278.63,-222.5 288.63,-219 278.63,-215.5 278.63,-222.5"/>
</g>
<!-- Node9&#45;&gt;Node5 -->
<g id="edge11" class="edge">
<title>Node9&#45;&gt;Node5</title>
<path fill="none" stroke="midnightblue" d="M308.26,-207.18C284.36,-201.82 256.48,-195.57 233.96,-190.52"/>
<polygon fill="midnightblue" stroke="midnightblue" points="307.7,-210.64 318.23,-209.41 309.24,-203.81 307.7,-210.64"/>
</g>
<!-- Node10&#45;&gt;Node5 -->
<g id="edge13" class="edge">
<title>Node10&#45;&gt;Node5</title>
<path fill="none" stroke="midnightblue" d="M308.26,-154.82C284.36,-160.18 256.48,-166.43 233.96,-171.48"/>
<polygon fill="midnightblue" stroke="midnightblue" points="309.24,-158.19 318.23,-152.59 307.7,-151.36 309.24,-158.19"/>
</g>
<!-- Node12 -->
<g id="node12" class="node">
<title>Node12</title>
<g id="a_node12"><a xlink:href="group__datatypes__table.html#ga7a45ee72b36421f4e73cfba4488f14be" target="_top" xlink:title="Dump table getter functions to the console.">
<polygon fill="white" stroke="black" points="133.5,-38.5 133.5,-57.5 247.5,-57.5 247.5,-38.5 133.5,-38.5"/>
<text text-anchor="middle" x="190.5" y="-45.5" font-family="Helvetica,sans-Serif" font-size="10.00">table_dump_getters</text>
</a>
</g>
</g>
<!-- Node11&#45;&gt;Node12 -->
<g id="edge15" class="edge">
<title>Node11&#45;&gt;Node12</title>
<path fill="none" stroke="midnightblue" d="M314.13,-34.25C293.51,-36.57 269.13,-39.3 247.55,-41.72"/>
<polygon fill="midnightblue" stroke="midnightblue" points="314.67,-37.71 324.22,-33.12 313.89,-30.76 314.67,-37.71"/>
</g>
<!-- Node13 -->
<g id="node13" class="node">
<title>Node13</title>
<g id="a_node13"><a xlink:href="group__common__validation.html#ga19d0234700fba9de9fb0cba52a3d8e17" target="_top" xlink:title="Test data structure db and output the start of test to the test log.">
<polygon fill="white" stroke="black" points="133.5,-0.5 133.5,-19.5 247.5,-19.5 247.5,-0.5 133.5,-0.5"/>
<text text-anchor="middle" x="190.5" y="-7.5" font-family="Helvetica,sans-Serif" font-size="10.00">table_validate_start</text>
</a>
</g>
</g>
<!-- Node11&#45;&gt;Node13 -->
<g id="edge16" class="edge">
<title>Node11&#45;&gt;Node13</title>
<path fill="none" stroke="midnightblue" d="M314.13,-23.75C293.51,-21.43 269.13,-18.7 247.55,-16.28"/>
<polygon fill="midnightblue" stroke="midnightblue" points="313.89,-27.24 324.22,-24.88 314.67,-20.29 313.89,-27.24"/>
</g>
</g>
</svg>
