<?xml version="1.0" encoding="UTF-8" standalone="no"?>
<!DOCTYPE svg PUBLIC "-//W3C//DTD SVG 1.1//EN"
 "http://www.w3.org/Graphics/SVG/1.1/DTD/svg11.dtd">
<!-- Generated by graphviz version 2.43.0 (0)
 -->
<!-- Title: Rectangular Project Box Pages: 1 -->
<svg width="376pt" height="37pt"
 viewBox="0.00 0.00 376.00 36.86" xmlns="http://www.w3.org/2000/svg" xmlns:xlink="http://www.w3.org/1999/xlink">
<g id="graph0" class="graph" transform="scale(1 1) rotate(0) translate(4 32.86)">
<title>Rectangular Project Box</title>
<polygon fill="white" stroke="transparent" points="-4,4 -4,-32.86 372,-32.86 372,4 -4,4"/>
<!-- Node2 -->
<g id="node1" class="node">
<title>Node2</title>
<g id="a_node1"><a xlink:href="group__parts__3d__enclosure.html" target="_top" xlink:title="Project boxes, housings and enclosures.">
<polygon fill="white" stroke="black" points="64,-28.86 0,-28.86 0,-9.86 64,-9.86 64,-28.86"/>
<text text-anchor="middle" x="32" y="-16.86" font-family="Helvetica,sans-Serif" font-size="10.00">Enclosure</text>
</a>
</g>
</g>
<!-- Node1 -->
<g id="node2" class="node">
<title>Node1</title>
<g id="a_node2"><a xlink:title="Rectangular prism project box generator.">
<polygon fill="#bfbfbf" stroke="black" points="368,-28.86 234,-28.86 234,-9.86 368,-9.86 368,-28.86"/>
<text text-anchor="middle" x="301" y="-16.86" font-family="Helvetica,sans-Serif" font-size="10.00">Rectangular Project Box</text>
</a>
</g>
</g>
<!-- Node2&#45;&gt;Node1 -->
<g id="edge1" class="edge">
<title>Node2&#45;&gt;Node1</title>
<path fill="none" stroke="black" d="M74.16,-19.36C116.75,-19.36 183.92,-19.36 233.95,-19.36"/>
<polygon fill="black" stroke="black" points="74.15,-15.86 64.15,-19.36 74.15,-22.86 74.15,-15.86"/>
</g>
<!-- Node1&#45;&gt;Node2 -->
<g id="edge2" class="edge">
<title>Node1&#45;&gt;Node2</title>
<path fill="none" stroke="darkgreen" stroke-dasharray="5,2" d="M251.31,-9.84C239.78,-7.98 227.49,-6.31 216,-5.36 156.65,-0.45 140.98,2.9 82,-5.36 75.17,-6.32 67.95,-7.99 61.21,-9.85"/>
<text text-anchor="middle" x="149" y="-8.36" font-family="Helvetica,sans-Serif" font-size="10.00">project_box_rectangle.scad</text>
</g>
</g>
</svg>
