<?xml version="1.0" encoding="UTF-8" standalone="no"?>
<!DOCTYPE svg PUBLIC "-//W3C//DTD SVG 1.1//EN"
 "http://www.w3.org/Graphics/SVG/1.1/DTD/svg11.dtd">
<!-- Generated by graphviz version 2.43.0 (0)
 -->
<!-- Title: Common 3d Pages: 1 -->
<svg width="258pt" height="29pt"
 viewBox="0.00 0.00 258.00 28.50" xmlns="http://www.w3.org/2000/svg" xmlns:xlink="http://www.w3.org/1999/xlink">
<g id="graph0" class="graph" transform="scale(1 1) rotate(0) translate(4 24.5)">
<title>Common 3d</title>
<polygon fill="white" stroke="transparent" points="-4,4 -4,-24.5 254,-24.5 254,4 -4,4"/>
<!-- Node1 -->
<g id="node1" class="node">
<title>Node1</title>
<g id="a_node1"><a xlink:title="Common 3D shapes.">
<polygon fill="#bfbfbf" stroke="black" points="76,-19 0,-19 0,0 76,0 76,-19"/>
<text text-anchor="middle" x="38" y="-7" font-family="Helvetica,sans-Serif" font-size="10.00">Common 3d</text>
</a>
</g>
</g>
<!-- Node2 -->
<g id="node2" class="node">
<title>Node2</title>
<g id="a_node2"><a xlink:href="group__shapes.html" target="_top" xlink:title="Common geometric shapes and foundational constructs.">
<polygon fill="white" stroke="black" points="250,-19 198,-19 198,0 250,0 250,-19"/>
<text text-anchor="middle" x="224" y="-7" font-family="Helvetica,sans-Serif" font-size="10.00">Shapes</text>
</a>
</g>
</g>
<!-- Node1&#45;&gt;Node2 -->
<g id="edge2" class="edge">
<title>Node1&#45;&gt;Node2</title>
<path fill="none" stroke="darkgreen" stroke-dasharray="5,2" d="M76.24,-9.5C112.46,-9.5 166.51,-9.5 197.91,-9.5"/>
<text text-anchor="middle" x="137" y="-12.5" font-family="Helvetica,sans-Serif" font-size="10.00">common_3d.scad</text>
</g>
<!-- Node2&#45;&gt;Node1 -->
<g id="edge1" class="edge">
<title>Node2&#45;&gt;Node1</title>
<path fill="none" stroke="black" d="M187.83,-7.73C185.18,-7.64 182.55,-7.56 180,-7.5 141.79,-6.61 132.22,-6.81 94,-7.5 88.27,-7.6 82.2,-7.77 76.27,-7.96"/>
<polygon fill="black" stroke="black" points="187.86,-11.23 198,-8.14 188.14,-4.24 187.86,-11.23"/>
</g>
</g>
</svg>
