<?xml version="1.0" encoding="UTF-8" standalone="no"?>
<!DOCTYPE svg PUBLIC "-//W3C//DTD SVG 1.1//EN"
 "http://www.w3.org/Graphics/SVG/1.1/DTD/svg11.dtd">
<!-- Generated by graphviz version 2.43.0 (0)
 -->
<!-- Title: Layout Pages: 1 -->
<svg width="222pt" height="34pt"
 viewBox="0.00 0.00 222.00 34.35" xmlns="http://www.w3.org/2000/svg" xmlns:xlink="http://www.w3.org/1999/xlink">
<g id="graph0" class="graph" transform="scale(1 1) rotate(0) translate(4 30.35)">
<title>Layout</title>
<polygon fill="white" stroke="transparent" points="-4,4 -4,-30.35 218,-30.35 218,4 -4,4"/>
<!-- Node2 -->
<g id="node1" class="node">
<title>Node2</title>
<g id="a_node1"><a xlink:href="group__transforms.html" target="_top" xlink:title="Geometric transformation and shape replication.">
<polygon fill="white" stroke="black" points="71,-26.35 0,-26.35 0,-7.35 71,-7.35 71,-26.35"/>
<text text-anchor="middle" x="35.5" y="-14.35" font-family="Helvetica,sans-Serif" font-size="10.00">Transforms</text>
</a>
</g>
</g>
<!-- Node1 -->
<g id="node2" class="node">
<title>Node1</title>
<g id="a_node2"><a xlink:title="Ordered sequences of geometric transforms as a single composite operation.">
<polygon fill="#bfbfbf" stroke="black" points="214,-26.35 164,-26.35 164,-7.35 214,-7.35 214,-26.35"/>
<text text-anchor="middle" x="189" y="-14.35" font-family="Helvetica,sans-Serif" font-size="10.00">Layout</text>
</a>
</g>
</g>
<!-- Node2&#45;&gt;Node1 -->
<g id="edge1" class="edge">
<title>Node2&#45;&gt;Node1</title>
<path fill="none" stroke="black" d="M81.26,-16.85C108.27,-16.85 141.62,-16.85 163.79,-16.85"/>
<polygon fill="black" stroke="black" points="81.26,-13.35 71.26,-16.85 81.26,-20.35 81.26,-13.35"/>
</g>
<!-- Node1&#45;&gt;Node2 -->
<g id="edge2" class="edge">
<title>Node1&#45;&gt;Node2</title>
<path fill="none" stroke="darkgreen" stroke-dasharray="5,2" d="M163.9,-7.35C158.13,-5.49 151.92,-3.81 146,-2.85 120.99,1.21 114.12,0.44 89,-2.85 81.7,-3.81 73.98,-5.48 66.77,-7.35"/>
<text text-anchor="middle" x="117.5" y="-5.85" font-family="Helvetica,sans-Serif" font-size="10.00">layout.scad</text>
</g>
</g>
</svg>
