<?xml version="1.0" encoding="UTF-8" standalone="no"?>
<!DOCTYPE svg PUBLIC "-//W3C//DTD SVG 1.1//EN"
 "http://www.w3.org/Graphics/SVG/1.1/DTD/svg11.dtd">
<!-- Generated by graphviz version 2.43.0 (0)
 -->
<!-- Title: Repeat Pages: 1 -->
<svg width="224pt" height="34pt"
 viewBox="0.00 0.00 224.00 34.38" xmlns="http://www.w3.org/2000/svg" xmlns:xlink="http://www.w3.org/1999/xlink">
<g id="graph0" class="graph" transform="scale(1 1) rotate(0) translate(4 30.38)">
<title>Repeat</title>
<polygon fill="white" stroke="transparent" points="-4,4 -4,-30.38 220,-30.38 220,4 -4,4"/>
<!-- Node2 -->
<g id="node1" class="node">
<title>Node2</title>
<g id="a_node1"><a xlink:href="group__transforms.html" target="_top" xlink:title="Geometric transformation and shape replication.">
<polygon fill="white" stroke="black" points="71,-26.38 0,-26.38 0,-7.38 71,-7.38 71,-26.38"/>
<text text-anchor="middle" x="35.5" y="-14.38" font-family="Helvetica,sans-Serif" font-size="10.00">Transforms</text>
</a>
</g>
</g>
<!-- Node1 -->
<g id="node2" class="node">
<title>Node1</title>
<g id="a_node2"><a xlink:title="Shape repetition tools.">
<polygon fill="#bfbfbf" stroke="black" points="216,-26.38 165,-26.38 165,-7.38 216,-7.38 216,-26.38"/>
<text text-anchor="middle" x="190.5" y="-14.38" font-family="Helvetica,sans-Serif" font-size="10.00">Repeat</text>
</a>
</g>
</g>
<!-- Node2&#45;&gt;Node1 -->
<g id="edge1" class="edge">
<title>Node2&#45;&gt;Node1</title>
<path fill="none" stroke="black" d="M81.32,-16.88C108.61,-16.88 142.44,-16.88 164.92,-16.88"/>
<polygon fill="black" stroke="black" points="81.22,-13.38 71.22,-16.88 81.22,-20.38 81.22,-13.38"/>
</g>
<!-- Node1&#45;&gt;Node2 -->
<g id="edge2" class="edge">
<title>Node1&#45;&gt;Node2</title>
<path fill="none" stroke="darkgreen" stroke-dasharray="5,2" d="M165.11,-7.38C159.27,-5.51 152.98,-3.84 147,-2.88 121.55,1.2 114.56,0.47 89,-2.88 81.7,-3.84 73.98,-5.51 66.77,-7.37"/>
<text text-anchor="middle" x="118" y="-5.88" font-family="Helvetica,sans-Serif" font-size="10.00">repeat.scad</text>
</g>
</g>
</svg>
