<?xml version="1.0" encoding="UTF-8" standalone="no"?>
<!DOCTYPE svg PUBLIC "-//W3C//DTD SVG 1.1//EN"
 "http://www.w3.org/Graphics/SVG/1.1/DTD/svg11.dtd">
<!-- Generated by graphviz version 2.43.0 (0)
 -->
<!-- Title: List Inspection Pages: 1 -->
<svg width="257pt" height="29pt"
 viewBox="0.00 0.00 257.00 28.50" xmlns="http://www.w3.org/2000/svg" xmlns:xlink="http://www.w3.org/1999/xlink">
<g id="graph0" class="graph" transform="scale(1 1) rotate(0) translate(4 24.5)">
<title>List Inspection</title>
<polygon fill="white" stroke="transparent" points="-4,4 -4,-24.5 253,-24.5 253,4 -4,4"/>
<!-- Node1 -->
<g id="node1" class="node">
<title>Node1</title>
<g id="a_node1"><a xlink:title="List inspection operations.">
<polygon fill="#bfbfbf" stroke="black" points="87,-19 0,-19 0,0 87,0 87,-19"/>
<text text-anchor="middle" x="43.5" y="-7" font-family="Helvetica,sans-Serif" font-size="10.00">List Inspection</text>
</a>
</g>
</g>
<!-- Node2 -->
<g id="node2" class="node">
<title>Node2</title>
<g id="a_node2"><a xlink:href="group__datatypes.html" target="_top" xlink:title="Data type identification and operations.">
<polygon fill="white" stroke="black" points="249,-19 205,-19 205,0 249,0 249,-19"/>
<text text-anchor="middle" x="227" y="-7" font-family="Helvetica,sans-Serif" font-size="10.00">Types</text>
</a>
</g>
</g>
<!-- Node1&#45;&gt;Node2 -->
<g id="edge2" class="edge">
<title>Node1&#45;&gt;Node2</title>
<path fill="none" stroke="darkgreen" stroke-dasharray="5,2" d="M87.05,-9.5C123.94,-9.5 175.78,-9.5 204.58,-9.5"/>
<text text-anchor="middle" x="146" y="-12.5" font-family="Helvetica,sans-Serif" font-size="10.00">list_inspect.scad</text>
</g>
<!-- Node2&#45;&gt;Node1 -->
<g id="edge1" class="edge">
<title>Node2&#45;&gt;Node1</title>
<path fill="none" stroke="black" d="M194.85,-7.76C192.19,-7.65 189.55,-7.57 187,-7.5 150.57,-6.57 141.44,-6.9 105,-7.5 99.22,-7.6 93.13,-7.74 87.13,-7.91"/>
<polygon fill="black" stroke="black" points="194.81,-11.26 204.96,-8.22 195.13,-4.27 194.81,-11.26"/>
</g>
</g>
</svg>
