<?xml version="1.0" encoding="UTF-8" standalone="no"?>
<!DOCTYPE svg PUBLIC "-//W3C//DTD SVG 1.1//EN"
 "http://www.w3.org/Graphics/SVG/1.1/DTD/svg11.dtd">
<!-- Generated by graphviz version 2.43.0 (0)
 -->
<!-- Title: Transforms Pages: 1 -->
<svg width="247pt" height="268pt"
 viewBox="0.00 0.00 247.00 267.61" xmlns="http://www.w3.org/2000/svg" xmlns:xlink="http://www.w3.org/1999/xlink">
<g id="graph0" class="graph" transform="scale(1 1) rotate(0) translate(4 263.61)">
<title>Transforms</title>
<polygon fill="white" stroke="transparent" points="-4,4 -4,-263.61 243,-263.61 243,4 -4,4"/>
<!-- Node3 -->
<g id="node1" class="node">
<title>Node3</title>
<g id="a_node1"><a xlink:href="group__transforms__base__cs.html" target="_top" xlink:title="Conditional version of base transformations.">
<polygon fill="white" stroke="black" points="232.5,-252.78 178.5,-252.78 178.5,-233.78 232.5,-233.78 232.5,-252.78"/>
<text text-anchor="middle" x="205.5" y="-240.78" font-family="Helvetica,sans-Serif" font-size="10.00">Base cs</text>
</a>
</g>
</g>
<!-- Node1 -->
<g id="node2" class="node">
<title>Node1</title>
<g id="a_node2"><a xlink:title="Geometric transformation and shape replication.">
<polygon fill="#bfbfbf" stroke="black" points="71,-140.78 0,-140.78 0,-121.78 71,-121.78 71,-140.78"/>
<text text-anchor="middle" x="35.5" y="-128.78" font-family="Helvetica,sans-Serif" font-size="10.00">Transforms</text>
</a>
</g>
</g>
<!-- Node1&#45;&gt;Node3 -->
<g id="edge2" class="edge">
<title>Node1&#45;&gt;Node3</title>
<path fill="none" stroke="black" d="M38.86,-151.06C43.29,-178.37 55.65,-226.7 89,-248.28 115.62,-265.52 153.38,-259.57 178.38,-252.5"/>
<polygon fill="black" stroke="black" points="42.31,-150.5 37.44,-141.09 35.38,-151.49 42.31,-150.5"/>
</g>
<!-- Node1&#45;&gt;Node3 -->
<g id="edge7" class="edge">
<title>Node1&#45;&gt;Node3</title>
<path fill="none" stroke="darkgreen" stroke-dasharray="5,2" d="M40.45,-140.88C47.66,-157.19 64.48,-190.28 89,-208.28 103.27,-218.76 149.04,-230.66 178.49,-237.53"/>
<text text-anchor="middle" x="121.5" y="-233.28" font-family="Helvetica,sans-Serif" font-size="10.00">base_cs.scad</text>
</g>
<!-- Node2 -->
<g id="node3" class="node">
<title>Node2</title>
<g id="a_node3"><a xlink:href="group__transforms__align.html" target="_top" xlink:title="Shape alignment tools.">
<polygon fill="white" stroke="black" points="239,-204.78 172,-204.78 172,-185.78 239,-185.78 239,-204.78"/>
<text text-anchor="middle" x="205.5" y="-192.78" font-family="Helvetica,sans-Serif" font-size="10.00">Alignment</text>
</a>
</g>
</g>
<!-- Node1&#45;&gt;Node2 -->
<g id="edge1" class="edge">
<title>Node1&#45;&gt;Node2</title>
<path fill="none" stroke="black" d="M47.28,-149.42C56.48,-163.04 71.06,-180.76 89,-189.28 114.84,-201.56 147.7,-202.03 171.76,-200.03"/>
<polygon fill="black" stroke="black" points="50.12,-147.36 41.8,-140.81 44.22,-151.12 50.12,-147.36"/>
</g>
<!-- Node1&#45;&gt;Node2 -->
<g id="edge6" class="edge">
<title>Node1&#45;&gt;Node2</title>
<path fill="none" stroke="darkgreen" stroke-dasharray="5,2" d="M61.65,-140.86C93.41,-152.96 147.74,-173.66 179.45,-185.74"/>
<text text-anchor="middle" x="121.5" y="-177.28" font-family="Helvetica,sans-Serif" font-size="10.00">align.scad</text>
</g>
<!-- Node5 -->
<g id="node4" class="node">
<title>Node5</title>
<g id="a_node4"><a xlink:href="group__transforms__extrude.html" target="_top" xlink:title="Shape extrusion operations.">
<polygon fill="white" stroke="black" points="232.5,-140.78 178.5,-140.78 178.5,-121.78 232.5,-121.78 232.5,-140.78"/>
<text text-anchor="middle" x="205.5" y="-128.78" font-family="Helvetica,sans-Serif" font-size="10.00">Extrude</text>
</a>
</g>
</g>
<!-- Node1&#45;&gt;Node5 -->
<g id="edge4" class="edge">
<title>Node1&#45;&gt;Node5</title>
<path fill="none" stroke="black" d="M81.42,-131.28C112.35,-131.28 152.39,-131.28 178.26,-131.28"/>
<polygon fill="black" stroke="black" points="81.31,-127.78 71.31,-131.28 81.31,-134.78 81.31,-127.78"/>
</g>
<!-- Node1&#45;&gt;Node5 -->
<g id="edge8" class="edge">
<title>Node1&#45;&gt;Node5</title>
<path fill="none" stroke="darkgreen" stroke-dasharray="5,2" d="M66.77,-121.78C73.98,-119.91 81.7,-118.24 89,-117.28 117.64,-113.53 125.37,-113.39 154,-117.28 162.02,-118.37 170.57,-120.4 178.31,-122.58"/>
<text text-anchor="middle" x="121.5" y="-120.28" font-family="Helvetica,sans-Serif" font-size="10.00">extrude.scad</text>
</g>
<!-- Node6 -->
<g id="node5" class="node">
<title>Node6</title>
<g id="a_node5"><a xlink:href="group__transforms__repeat.html" target="_top" xlink:title="Shape repetition tools.">
<polygon fill="white" stroke="black" points="231,-81.78 180,-81.78 180,-62.78 231,-62.78 231,-81.78"/>
<text text-anchor="middle" x="205.5" y="-69.78" font-family="Helvetica,sans-Serif" font-size="10.00">Repeat</text>
</a>
</g>
</g>
<!-- Node1&#45;&gt;Node6 -->
<g id="edge5" class="edge">
<title>Node1&#45;&gt;Node6</title>
<path fill="none" stroke="black" d="M68.8,-117.99C75.45,-115.36 82.43,-112.67 89,-110.28 119.94,-99.02 156.06,-87.37 179.56,-79.99"/>
<polygon fill="black" stroke="black" points="67.36,-114.8 59.38,-121.77 69.96,-121.3 67.36,-114.8"/>
</g>
<!-- Node1&#45;&gt;Node6 -->
<g id="edge10" class="edge">
<title>Node1&#45;&gt;Node6</title>
<path fill="none" stroke="darkgreen" stroke-dasharray="5,2" d="M41.74,-121.63C49.8,-107.9 66.7,-83.29 89,-73.28 118.09,-60.23 155.6,-63 179.85,-66.98"/>
<text text-anchor="middle" x="121.5" y="-76.28" font-family="Helvetica,sans-Serif" font-size="10.00">repeat.scad</text>
</g>
<!-- Node4 -->
<g id="node6" class="node">
<title>Node4</title>
<g id="a_node6"><a xlink:href="group__transforms__layout.html" target="_top" xlink:title="Ordered sequences of geometric transforms as a single composite operation.">
<polygon fill="white" stroke="black" points="230.5,-22.78 180.5,-22.78 180.5,-3.78 230.5,-3.78 230.5,-22.78"/>
<text text-anchor="middle" x="205.5" y="-10.78" font-family="Helvetica,sans-Serif" font-size="10.00">Layout</text>
</a>
</g>
</g>
<!-- Node1&#45;&gt;Node4 -->
<g id="edge3" class="edge">
<title>Node1&#45;&gt;Node4</title>
<path fill="none" stroke="black" d="M46.19,-112.54C55.32,-96.49 70.38,-73.73 89,-59.28 116.63,-37.85 155.54,-25.12 180.39,-18.66"/>
<polygon fill="black" stroke="black" points="43,-111.09 41.29,-121.54 49.14,-114.43 43,-111.09"/>
</g>
<!-- Node1&#45;&gt;Node4 -->
<g id="edge9" class="edge">
<title>Node1&#45;&gt;Node4</title>
<path fill="none" stroke="darkgreen" stroke-dasharray="5,2" d="M37.34,-121.66C39.98,-98.07 50.41,-37.44 89,-12.28 116.21,5.46 155.24,0.34 180.23,-5.8"/>
<text text-anchor="middle" x="121.5" y="-15.28" font-family="Helvetica,sans-Serif" font-size="10.00">layout.scad</text>
</g>
</g>
</svg>
