<?xml version="1.0" encoding="UTF-8" standalone="no"?>
<!DOCTYPE svg PUBLIC "-//W3C//DTD SVG 1.1//EN"
 "http://www.w3.org/Graphics/SVG/1.1/DTD/svg11.dtd">
<!-- Generated by graphviz version 2.43.0 (0)
 -->
<!-- Title: Polytope Pages: 1 -->
<svg width="233pt" height="35pt"
 viewBox="0.00 0.00 233.00 34.83" xmlns="http://www.w3.org/2000/svg" xmlns:xlink="http://www.w3.org/1999/xlink">
<g id="graph0" class="graph" transform="scale(1 1) rotate(0) translate(4 30.83)">
<title>Polytope</title>
<polygon fill="white" stroke="transparent" points="-4,4 -4,-30.83 229,-30.83 229,4 -4,4"/>
<!-- Node2 -->
<g id="node1" class="node">
<title>Node2</title>
<g id="a_node1"><a xlink:href="group__tools__common.html" target="_top" xlink:title="Common design tools and workflow utilities.">
<polygon fill="white" stroke="black" points="61,-26.83 0,-26.83 0,-7.83 61,-7.83 61,-26.83"/>
<text text-anchor="middle" x="30.5" y="-14.83" font-family="Helvetica,sans-Serif" font-size="10.00">Common</text>
</a>
</g>
</g>
<!-- Node1 -->
<g id="node2" class="node">
<title>Node1</title>
<g id="a_node2"><a xlink:title="Polygon and polyhedron tools.">
<polygon fill="#bfbfbf" stroke="black" points="225,-26.83 166,-26.83 166,-7.83 225,-7.83 225,-26.83"/>
<text text-anchor="middle" x="195.5" y="-14.83" font-family="Helvetica,sans-Serif" font-size="10.00">Polytope</text>
</a>
</g>
</g>
<!-- Node2&#45;&gt;Node1 -->
<g id="edge1" class="edge">
<title>Node2&#45;&gt;Node1</title>
<path fill="none" stroke="black" d="M71.3,-17.33C100.52,-17.33 139.52,-17.33 165.75,-17.33"/>
<polygon fill="black" stroke="black" points="71.02,-13.83 61.02,-17.33 71.02,-20.83 71.02,-13.83"/>
</g>
<!-- Node1&#45;&gt;Node2 -->
<g id="edge2" class="edge">
<title>Node1&#45;&gt;Node2</title>
<path fill="none" stroke="darkgreen" stroke-dasharray="5,2" d="M167.76,-7.83C161.36,-5.96 154.51,-4.29 148,-3.33 117.66,1.14 109.35,1.05 79,-3.33 72.36,-4.29 65.36,-5.96 58.83,-7.83"/>
<text text-anchor="middle" x="113.5" y="-6.33" font-family="Helvetica,sans-Serif" font-size="10.00">polytope.scad</text>
</g>
</g>
</svg>
