<?xml version="1.0" encoding="UTF-8" standalone="no"?>
<!DOCTYPE svg PUBLIC "-//W3C//DTD SVG 1.1//EN"
 "http://www.w3.org/Graphics/SVG/1.1/DTD/svg11.dtd">
<!-- Generated by graphviz version 2.43.0 (0)
 -->
<!-- Title: Data Pages: 1 -->
<svg width="157pt" height="64pt"
 viewBox="0.00 0.00 157.00 64.00" xmlns="http://www.w3.org/2000/svg" xmlns:xlink="http://www.w3.org/1999/xlink">
<g id="graph0" class="graph" transform="scale(1 1) rotate(0) translate(4 60)">
<title>Data</title>
<polygon fill="white" stroke="transparent" points="-4,4 -4,-60 153,-60 153,4 -4,4"/>
<!-- Node1 -->
<g id="node1" class="node">
<title>Node1</title>
<g id="a_node1"><a xlink:title="Design data storage, specifications, and metadata.">
<polygon fill="#bfbfbf" stroke="black" points="40,-37 0,-37 0,-18 40,-18 40,-37"/>
<text text-anchor="middle" x="20" y="-25" font-family="Helvetica,sans-Serif" font-size="10.00">Data</text>
</a>
</g>
</g>
<!-- Node2 -->
<g id="node2" class="node">
<title>Node2</title>
<g id="a_node2"><a xlink:href="group__database__component.html" target="_top" xlink:title="Design component specifications.">
<polygon fill="white" stroke="black" points="149,-56 76,-56 76,-37 149,-37 149,-56"/>
<text text-anchor="middle" x="112.5" y="-44" font-family="Helvetica,sans-Serif" font-size="10.00">Component</text>
</a>
</g>
</g>
<!-- Node1&#45;&gt;Node2 -->
<g id="edge1" class="edge">
<title>Node1&#45;&gt;Node2</title>
<path fill="none" stroke="black" d="M50.07,-33.6C58.29,-35.33 67.33,-37.23 75.89,-39.02"/>
<polygon fill="black" stroke="black" points="50.7,-30.16 40.19,-31.53 49.26,-37.01 50.7,-30.16"/>
</g>
<!-- Node3 -->
<g id="node3" class="node">
<title>Node3</title>
<g id="a_node3"><a xlink:href="group__database__geometry.html" target="_top" xlink:title="Geometric shape specifications.">
<polygon fill="white" stroke="black" points="145,-19 80,-19 80,0 145,0 145,-19"/>
<text text-anchor="middle" x="112.5" y="-7" font-family="Helvetica,sans-Serif" font-size="10.00">Geometry</text>
</a>
</g>
</g>
<!-- Node1&#45;&gt;Node3 -->
<g id="edge2" class="edge">
<title>Node1&#45;&gt;Node3</title>
<path fill="none" stroke="black" d="M50.3,-21.67C59.75,-19.79 70.26,-17.7 79.87,-15.79"/>
<polygon fill="black" stroke="black" points="49.32,-18.3 40.19,-23.68 50.68,-25.16 49.32,-18.3"/>
</g>
</g>
</svg>
