<?xml version="1.0" encoding="UTF-8" standalone="no"?>
<!DOCTYPE svg PUBLIC "-//W3C//DTD SVG 1.1//EN"
 "http://www.w3.org/Graphics/SVG/1.1/DTD/svg11.dtd">
<!-- Generated by graphviz version 2.43.0 (0)
 -->
<!-- Title: Finger Joint Box Generator Pages: 1 -->
<svg width="357pt" height="29pt"
 viewBox="0.00 0.00 357.00 28.50" xmlns="http://www.w3.org/2000/svg" xmlns:xlink="http://www.w3.org/1999/xlink">
<g id="graph0" class="graph" transform="scale(1 1) rotate(0) translate(4 24.5)">
<title>Finger Joint Box Generator</title>
<polygon fill="white" stroke="transparent" points="-4,4 -4,-24.5 353,-24.5 353,4 -4,4"/>
<!-- Node1 -->
<g id="node1" class="node">
<title>Node1</title>
<g id="a_node1"><a xlink:title="Finger joint (box joint) box generator.">
<polygon fill="#bfbfbf" stroke="black" points="145,-19 0,-19 0,0 145,0 145,-19"/>
<text text-anchor="middle" x="72.5" y="-7" font-family="Helvetica,sans-Serif" font-size="10.00">Finger Joint Box Generator</text>
</a>
</g>
</g>
<!-- Node2 -->
<g id="node2" class="node">
<title>Node2</title>
<g id="a_node2"><a xlink:href="group__parts__2d__enclosure.html" target="_top" xlink:title="Project boxes, housings and enclosures.">
<polygon fill="white" stroke="black" points="349,-19 285,-19 285,0 349,0 349,-19"/>
<text text-anchor="middle" x="317" y="-7" font-family="Helvetica,sans-Serif" font-size="10.00">Enclosure</text>
</a>
</g>
</g>
<!-- Node1&#45;&gt;Node2 -->
<g id="edge2" class="edge">
<title>Node1&#45;&gt;Node2</title>
<path fill="none" stroke="darkgreen" stroke-dasharray="5,2" d="M145.27,-9.5C191.64,-9.5 249.66,-9.5 284.73,-9.5"/>
<text text-anchor="middle" x="215" y="-12.5" font-family="Helvetica,sans-Serif" font-size="10.00">box_finger_joint.scad</text>
</g>
<!-- Node2&#45;&gt;Node1 -->
<g id="edge1" class="edge">
<title>Node2&#45;&gt;Node1</title>
<path fill="none" stroke="black" d="M274.77,-7.7C272.14,-7.62 269.53,-7.55 267,-7.5 226.69,-6.68 181.66,-7.07 145.18,-7.71"/>
<polygon fill="black" stroke="black" points="274.79,-11.2 284.9,-8.04 275.02,-4.2 274.79,-11.2"/>
</g>
</g>
</svg>
