<?xml version="1.0" encoding="UTF-8" standalone="no"?>
<!DOCTYPE svg PUBLIC "-//W3C//DTD SVG 1.1//EN"
 "http://www.w3.org/Graphics/SVG/1.1/DTD/svg11.dtd">
<!-- Generated by graphviz version 2.43.0 (0)
 -->
<!-- Title: Linear rod bearing Pages: 1 -->
<svg width="316pt" height="29pt"
 viewBox="0.00 0.00 316.00 28.50" xmlns="http://www.w3.org/2000/svg" xmlns:xlink="http://www.w3.org/1999/xlink">
<g id="graph0" class="graph" transform="scale(1 1) rotate(0) translate(4 24.5)">
<title>Linear rod bearing</title>
<polygon fill="white" stroke="transparent" points="-4,4 -4,-24.5 312,-24.5 312,4 -4,4"/>
<!-- Node1 -->
<g id="node1" class="node">
<title>Node1</title>
<g id="a_node1"><a xlink:title="Linear rod ball and sled bearing.">
<polygon fill="#bfbfbf" stroke="black" points="105,-19 0,-19 0,0 105,0 105,-19"/>
<text text-anchor="middle" x="52.5" y="-7" font-family="Helvetica,sans-Serif" font-size="10.00">Linear rod bearing</text>
</a>
</g>
</g>
<!-- Node2 -->
<g id="node2" class="node">
<title>Node2</title>
<g id="a_node2"><a xlink:href="group__parts__3d__motion.html" target="_top" xlink:title="Parts that facilitate mechanical motion.">
<polygon fill="white" stroke="black" points="308,-19 258,-19 258,0 308,0 308,-19"/>
<text text-anchor="middle" x="283" y="-7" font-family="Helvetica,sans-Serif" font-size="10.00">Motion</text>
</a>
</g>
</g>
<!-- Node1&#45;&gt;Node2 -->
<g id="edge2" class="edge">
<title>Node1&#45;&gt;Node2</title>
<path fill="none" stroke="darkgreen" stroke-dasharray="5,2" d="M105.06,-9.5C152.85,-9.5 221.81,-9.5 257.91,-9.5"/>
<text text-anchor="middle" x="181.5" y="-12.5" font-family="Helvetica,sans-Serif" font-size="10.00">bearing_linear_rod.scad</text>
</g>
<!-- Node2&#45;&gt;Node1 -->
<g id="edge1" class="edge">
<title>Node2&#45;&gt;Node1</title>
<path fill="none" stroke="black" d="M247.37,-7.72C244.88,-7.63 242.4,-7.56 240,-7.5 188.01,-6.26 174.99,-6.75 123,-7.5 117.21,-7.58 111.14,-7.71 105.11,-7.85"/>
<polygon fill="black" stroke="black" points="247.44,-11.23 257.58,-8.14 247.73,-4.23 247.44,-11.23"/>
</g>
</g>
</svg>
