<?xml version="1.0" encoding="UTF-8" standalone="no"?>
<!DOCTYPE svg PUBLIC "-//W3C//DTD SVG 1.1//EN"
 "http://www.w3.org/Graphics/SVG/1.1/DTD/svg11.dtd">
<!-- Generated by graphviz version 2.43.0 (0)
 -->
<!-- Title: joint2d_dovetail Pages: 1 -->
<svg width="426pt" height="256pt"
 viewBox="0.00 0.00 426.00 256.00" xmlns="http://www.w3.org/2000/svg" xmlns:xlink="http://www.w3.org/1999/xlink">
<g id="graph0" class="graph" transform="scale(1 1) rotate(0) translate(4 252)">
<title>joint2d_dovetail</title>
<polygon fill="white" stroke="transparent" points="-4,4 -4,-252 422,-252 422,4 -4,4"/>
<!-- Node1 -->
<g id="node1" class="node">
<title>Node1</title>
<g id="a_node1"><a xlink:title="Create 2D edge profiles for dovetail joint construction.">
<polygon fill="#bfbfbf" stroke="black" points="0,-114.5 0,-133.5 95,-133.5 95,-114.5 0,-114.5"/>
<text text-anchor="middle" x="47.5" y="-121.5" font-family="Helvetica,sans-Serif" font-size="10.00">joint2d_dovetail</text>
</a>
</g>
</g>
<!-- Node2 -->
<g id="node2" class="node">
<title>Node2</title>
<g id="a_node2"><a xlink:href="group__datatypes__iterable__operate.html#ga3d37c2b0067d1661724bd89955c8f6ce" target="_top" xlink:title="Returns an element from an iterable if it exists, or a default value if not.">
<polygon fill="white" stroke="black" points="308.5,-190.5 308.5,-209.5 387.5,-209.5 387.5,-190.5 308.5,-190.5"/>
<text text-anchor="middle" x="348" y="-197.5" font-family="Helvetica,sans-Serif" font-size="10.00">defined_e_or</text>
</a>
</g>
</g>
<!-- Node1&#45;&gt;Node2 -->
<g id="edge1" class="edge">
<title>Node1&#45;&gt;Node2</title>
<path fill="none" stroke="midnightblue" d="M58.69,-133.72C73.35,-147.04 101.85,-170.49 131,-181 185.86,-200.79 253.43,-203.58 298.24,-202.71"/>
<polygon fill="midnightblue" stroke="midnightblue" points="298.37,-206.21 308.27,-202.44 298.19,-199.21 298.37,-206.21"/>
</g>
<!-- Node3 -->
<g id="node3" class="node">
<title>Node3</title>
<g id="a_node3"><a xlink:href="group__transforms__base__cs.html#gaa90356c8ee306403464fe2b03ad7849c" target="_top" xlink:title="Conditionally apply the difference intersection operation.">
<polygon fill="white" stroke="black" points="141.5,-228.5 141.5,-247.5 231.5,-247.5 231.5,-228.5 141.5,-228.5"/>
<text text-anchor="middle" x="186.5" y="-235.5" font-family="Helvetica,sans-Serif" font-size="10.00">intersection_cs</text>
</a>
</g>
</g>
<!-- Node1&#45;&gt;Node3 -->
<g id="edge2" class="edge">
<title>Node1&#45;&gt;Node3</title>
<path fill="none" stroke="midnightblue" d="M55.19,-133.62C68.05,-151.52 97.92,-190.29 131,-214 136.35,-217.83 142.41,-221.24 148.49,-224.21"/>
<polygon fill="midnightblue" stroke="midnightblue" points="147.42,-227.56 157.98,-228.49 150.3,-221.18 147.42,-227.56"/>
</g>
<!-- Node5 -->
<g id="node5" class="node">
<title>Node5</title>
<g id="a_node5"><a xlink:href="group__shapes__polygon.html#ga9c1bd914355d92f9d66ba0e5c2d9dbac" target="_top" xlink:title="A polygon rectangle with vertex rounding.">
<polygon fill="white" stroke="black" points="146.5,-152.5 146.5,-171.5 226.5,-171.5 226.5,-152.5 146.5,-152.5"/>
<text text-anchor="middle" x="186.5" y="-159.5" font-family="Helvetica,sans-Serif" font-size="10.00">pg_rectangle</text>
</a>
</g>
</g>
<!-- Node1&#45;&gt;Node5 -->
<g id="edge4" class="edge">
<title>Node1&#45;&gt;Node5</title>
<path fill="none" stroke="midnightblue" d="M83.07,-133.59C100.68,-138.47 122.28,-144.46 141.1,-149.68"/>
<polygon fill="midnightblue" stroke="midnightblue" points="140.37,-153.11 150.94,-152.41 142.24,-146.37 140.37,-153.11"/>
</g>
<!-- Node6 -->
<g id="node6" class="node">
<title>Node6</title>
<g id="a_node6"><a xlink:href="group__math__polygon.html#ga7a0eff64929a142fc507615f83e3bd58" target="_top" xlink:title="Compute coordinates that round all of the vertices between each adjacent edges in 2D.">
<polygon fill="white" stroke="black" points="278,-114.5 278,-133.5 418,-133.5 418,-114.5 278,-114.5"/>
<text text-anchor="middle" x="348" y="-121.5" font-family="Helvetica,sans-Serif" font-size="10.00">polygon_round_eve_all_p</text>
</a>
</g>
</g>
<!-- Node1&#45;&gt;Node6 -->
<g id="edge8" class="edge">
<title>Node1&#45;&gt;Node6</title>
<path fill="none" stroke="midnightblue" d="M95.14,-124C141.3,-124 212.82,-124 267.88,-124"/>
<polygon fill="midnightblue" stroke="midnightblue" points="267.96,-127.5 277.96,-124 267.96,-120.5 267.96,-127.5"/>
</g>
<!-- Node8 -->
<g id="node8" class="node">
<title>Node8</title>
<g id="a_node8"><a xlink:href="group__datatypes__list__operate.html#ga7b8e6f2bbfa72ae61e39377e5ca6b5be" target="_top" xlink:title="Select specified element from list or return a default.">
<polygon fill="white" stroke="black" points="157,-76.5 157,-95.5 216,-95.5 216,-76.5 157,-76.5"/>
<text text-anchor="middle" x="186.5" y="-83.5" font-family="Helvetica,sans-Serif" font-size="10.00">select_ci</text>
</a>
</g>
</g>
<!-- Node1&#45;&gt;Node8 -->
<g id="edge9" class="edge">
<title>Node1&#45;&gt;Node8</title>
<path fill="none" stroke="midnightblue" d="M83.07,-114.41C102.6,-108.99 127.05,-102.21 147.17,-96.63"/>
<polygon fill="midnightblue" stroke="midnightblue" points="148.25,-99.97 156.95,-93.92 146.38,-93.22 148.25,-99.97"/>
</g>
<!-- Node9 -->
<g id="node9" class="node">
<title>Node9</title>
<g id="a_node9"><a xlink:href="group__math__triangle.html#gaab9b812d15418fd05c9d93f3bfcc1989" target="_top" xlink:title="Compute a set of vertex coordinates for a triangle given its side lengths in 2D.">
<polygon fill="white" stroke="black" points="131,-38.5 131,-57.5 242,-57.5 242,-38.5 131,-38.5"/>
<text text-anchor="middle" x="186.5" y="-45.5" font-family="Helvetica,sans-Serif" font-size="10.00">triangle2d_sss2ppp</text>
</a>
</g>
</g>
<!-- Node1&#45;&gt;Node9 -->
<g id="edge10" class="edge">
<title>Node1&#45;&gt;Node9</title>
<path fill="none" stroke="midnightblue" d="M60.16,-114.42C75.59,-102.12 103.99,-80.72 131,-67 135.08,-64.93 139.44,-62.99 143.85,-61.2"/>
<polygon fill="midnightblue" stroke="midnightblue" points="145.38,-64.37 153.49,-57.55 142.9,-57.82 145.38,-64.37"/>
</g>
<!-- Node10 -->
<g id="node10" class="node">
<title>Node10</title>
<g id="a_node10"><a xlink:href="group__math__triangle.html#ga33761959a2184db852e773ca2330811b" target="_top" xlink:title="Compute the side lengths of a triangle given two sides and the included angle.">
<polygon fill="white" stroke="black" points="137.5,-0.5 137.5,-19.5 235.5,-19.5 235.5,-0.5 137.5,-0.5"/>
<text text-anchor="middle" x="186.5" y="-7.5" font-family="Helvetica,sans-Serif" font-size="10.00">triangle_sas2sss</text>
</a>
</g>
</g>
<!-- Node1&#45;&gt;Node10 -->
<g id="edge11" class="edge">
<title>Node1&#45;&gt;Node10</title>
<path fill="none" stroke="midnightblue" d="M54.31,-114.46C66.33,-95.51 95.74,-52.9 131,-29 133.91,-27.03 137.04,-25.24 140.29,-23.62"/>
<polygon fill="midnightblue" stroke="midnightblue" points="141.88,-26.75 149.62,-19.51 139.06,-20.34 141.88,-26.75"/>
</g>
<!-- Node4 -->
<g id="node4" class="node">
<title>Node4</title>
<g id="a_node4"><a xlink:href="group__datatypes__scalar__test.html#ga51d7fdb800c10f4b7479d23b89ab8d22" target="_top" xlink:title="Test if a value is defined.">
<polygon fill="white" stroke="black" points="315,-228.5 315,-247.5 381,-247.5 381,-228.5 315,-228.5"/>
<text text-anchor="middle" x="348" y="-235.5" font-family="Helvetica,sans-Serif" font-size="10.00">is_defined</text>
</a>
</g>
</g>
<!-- Node3&#45;&gt;Node4 -->
<g id="edge3" class="edge">
<title>Node3&#45;&gt;Node4</title>
<path fill="none" stroke="midnightblue" d="M231.51,-238C254.27,-238 281.94,-238 304.49,-238"/>
<polygon fill="midnightblue" stroke="midnightblue" points="304.77,-241.5 314.77,-238 304.77,-234.5 304.77,-241.5"/>
</g>
<!-- Node5&#45;&gt;Node2 -->
<g id="edge5" class="edge">
<title>Node5&#45;&gt;Node2</title>
<path fill="none" stroke="midnightblue" d="M226.52,-171.3C248.21,-176.46 275.4,-182.94 298.45,-188.43"/>
<polygon fill="midnightblue" stroke="midnightblue" points="297.85,-191.89 308.38,-190.8 299.47,-185.08 297.85,-191.89"/>
</g>
<!-- Node5&#45;&gt;Node6 -->
<g id="edge6" class="edge">
<title>Node5&#45;&gt;Node6</title>
<path fill="none" stroke="midnightblue" d="M226.52,-152.7C247.81,-147.63 274.39,-141.3 297.17,-135.87"/>
<polygon fill="midnightblue" stroke="midnightblue" points="298.08,-139.25 307,-133.53 296.46,-132.44 298.08,-139.25"/>
</g>
<!-- Node7 -->
<g id="node7" class="node">
<title>Node7</title>
<g id="a_node7"><a xlink:href="group__math__linear__algebra.html#gaeabe74699fd0a437bad9a1d442bfd111" target="_top" xlink:title="Translate all coordinates dimensions.">
<polygon fill="white" stroke="black" points="312.5,-152.5 312.5,-171.5 383.5,-171.5 383.5,-152.5 312.5,-152.5"/>
<text text-anchor="middle" x="348" y="-159.5" font-family="Helvetica,sans-Serif" font-size="10.00">translate_p</text>
</a>
</g>
</g>
<!-- Node5&#45;&gt;Node7 -->
<g id="edge7" class="edge">
<title>Node5&#45;&gt;Node7</title>
<path fill="none" stroke="midnightblue" d="M226.52,-162C249.41,-162 278.43,-162 302.25,-162"/>
<polygon fill="midnightblue" stroke="midnightblue" points="302.45,-165.5 312.45,-162 302.45,-158.5 302.45,-165.5"/>
</g>
</g>
</svg>
