<?xml version="1.0" encoding="UTF-8" standalone="no"?>
<!DOCTYPE svg PUBLIC "-//W3C//DTD SVG 1.1//EN"
 "http://www.w3.org/Graphics/SVG/1.1/DTD/svg11.dtd">
<!-- Generated by graphviz version 2.43.0 (0)
 -->
<!-- Title: second Pages: 1 -->
<svg width="729pt" height="812pt"
 viewBox="0.00 0.00 729.00 811.79" xmlns="http://www.w3.org/2000/svg" xmlns:xlink="http://www.w3.org/1999/xlink">
<g id="graph0" class="graph" transform="scale(1 1) rotate(0) translate(4 807.79)">
<title>second</title>
<polygon fill="white" stroke="transparent" points="-4,4 -4,-807.79 725,-807.79 725,4 -4,4"/>
<!-- Node1 -->
<g id="node1" class="node">
<title>Node1</title>
<g id="a_node1"><a xlink:title="Return the second element of an iterable value.">
<polygon fill="#bfbfbf" stroke="black" points="670,-323.5 670,-342.5 721,-342.5 721,-323.5 670,-323.5"/>
<text text-anchor="middle" x="695.5" y="-330.5" font-family="Helvetica,sans-Serif" font-size="10.00">second</text>
</a>
</g>
</g>
<!-- Node2 -->
<g id="node2" class="node">
<title>Node2</title>
<g id="a_node2"><a xlink:href="group__parts__2d__enclosure__box__finger__joint.html#gacc1bfb220bc3cfed46dcaa3b84898020" target="_top" xlink:title="Generate a 2D box design using screw&#45;based finger joint (box&#45;joint).">
<polygon fill="white" stroke="black" points="324.5,-646.5 324.5,-665.5 431.5,-665.5 431.5,-646.5 324.5,-646.5"/>
<text text-anchor="middle" x="378" y="-653.5" font-family="Helvetica,sans-Serif" font-size="10.00">box2d_finger_joint</text>
</a>
</g>
</g>
<!-- Node1&#45;&gt;Node2 -->
<g id="edge1" class="edge">
<title>Node1&#45;&gt;Node2</title>
<path fill="none" stroke="midnightblue" d="M693.93,-352.65C691.77,-392.8 681.59,-485.24 634,-542 582.12,-603.87 489.86,-633.48 431.69,-646.63"/>
<polygon fill="midnightblue" stroke="midnightblue" points="697.43,-352.72 694.36,-342.58 690.44,-352.42 697.43,-352.72"/>
</g>
<!-- Node3 -->
<g id="node3" class="node">
<title>Node3</title>
<g id="a_node3"><a xlink:href="group__parts__3d__fastener__catch__latch.html#ga26a9933aa6d33599daab1be8d632c430" target="_top" xlink:title="A catch latch generator with configurable profile.">
<polygon fill="white" stroke="black" points="170.5,-675.5 170.5,-694.5 242.5,-694.5 242.5,-675.5 170.5,-675.5"/>
<text text-anchor="middle" x="206.5" y="-682.5" font-family="Helvetica,sans-Serif" font-size="10.00">catch_latch</text>
</a>
</g>
</g>
<!-- Node1&#45;&gt;Node3 -->
<g id="edge2" class="edge">
<title>Node1&#45;&gt;Node3</title>
<path fill="none" stroke="midnightblue" d="M693.61,-353.1C690.34,-417.05 676.91,-614.19 634,-658 526.66,-767.58 314.52,-717.77 236.86,-694.55"/>
<polygon fill="midnightblue" stroke="midnightblue" points="697.12,-352.93 694.1,-342.78 690.13,-352.6 697.12,-352.93"/>
</g>
<!-- Node4 -->
<g id="node4" class="node">
<title>Node4</title>
<g id="a_node4"><a xlink:href="group__parts__3d__fastener__clamps.html#gac715fdab9961aff45be668fb23556835" target="_top" xlink:title="A one piece zip tie clamp to secure wires or provide strain relief.">
<polygon fill="white" stroke="black" points="167.5,-637.5 167.5,-656.5 245.5,-656.5 245.5,-637.5 167.5,-637.5"/>
<text text-anchor="middle" x="206.5" y="-644.5" font-family="Helvetica,sans-Serif" font-size="10.00">clamp_zt_1p</text>
</a>
</g>
</g>
<!-- Node1&#45;&gt;Node4 -->
<g id="edge3" class="edge">
<title>Node1&#45;&gt;Node4</title>
<path fill="none" stroke="midnightblue" d="M692.39,-352.76C686.13,-407.93 666.1,-562.06 634,-600 537.12,-714.48 453.51,-695.9 305,-675 298.35,-674.06 265.02,-664.31 239.16,-656.57"/>
<polygon fill="midnightblue" stroke="midnightblue" points="695.89,-352.89 693.51,-342.57 688.94,-352.12 695.89,-352.89"/>
</g>
<!-- Node5 -->
<g id="node5" class="node">
<title>Node5</title>
<g id="a_node5"><a xlink:href="group__parts__3d__computer__pcie__expansion.html#gab6fb1c9f8f6550633467f4ec0bd3f983" target="_top" xlink:title="Generate a PCI Express expansion open chassis or closed enclosure.">
<polygon fill="white" stroke="black" points="8,-637.5 8,-656.5 100,-656.5 100,-637.5 8,-637.5"/>
<text text-anchor="middle" x="54" y="-644.5" font-family="Helvetica,sans-Serif" font-size="10.00">pcie_expansion</text>
</a>
</g>
</g>
<!-- Node1&#45;&gt;Node5 -->
<g id="edge37" class="edge">
<title>Node1&#45;&gt;Node5</title>
<path fill="none" stroke="midnightblue" d="M694.21,-352.8C692.75,-422.37 684.16,-654.06 634,-704 479.51,-857.8 346.06,-807.81 144,-726 107.23,-711.11 75.55,-674.12 62.01,-656.55"/>
<polygon fill="midnightblue" stroke="midnightblue" points="697.71,-352.81 694.39,-342.75 690.71,-352.69 697.71,-352.81"/>
</g>
<!-- Node6 -->
<g id="node6" class="node">
<title>Node6</title>
<g id="a_node6"><a xlink:href="group__tools__2d__drafting.html#gada1e771ce89ef86b6241c43dc01bf62d" target="_top" xlink:title="Draft a polygon with configurable style.">
<polygon fill="white" stroke="black" points="519,-513.5 519,-532.5 602,-532.5 602,-513.5 519,-513.5"/>
<text text-anchor="middle" x="560.5" y="-520.5" font-family="Helvetica,sans-Serif" font-size="10.00">draft_polygon</text>
</a>
</g>
</g>
<!-- Node1&#45;&gt;Node6 -->
<g id="edge5" class="edge">
<title>Node1&#45;&gt;Node6</title>
<path fill="none" stroke="midnightblue" d="M693.31,-352.94C690.08,-388.61 678.13,-463.42 634,-504 625.28,-512.01 613.6,-516.73 602.17,-519.48"/>
<polygon fill="midnightblue" stroke="midnightblue" points="696.81,-353.06 694.08,-342.82 689.83,-352.53 696.81,-353.06"/>
</g>
<!-- Node7 -->
<g id="node7" class="node">
<title>Node7</title>
<g id="a_node7"><a xlink:href="group__parts__3d__enclosure__enclosure__stand__rectangle.html#gaa6bbb5648edd144f66059f9b31aa2865" target="_top" xlink:title="A stand maker for rectangular project boxes, housings, and enclosures.">
<polygon fill="white" stroke="black" points="487,-475.5 487,-494.5 634,-494.5 634,-475.5 487,-475.5"/>
<text text-anchor="middle" x="560.5" y="-482.5" font-family="Helvetica,sans-Serif" font-size="10.00">enclosure_stand_rectangle</text>
</a>
</g>
</g>
<!-- Node1&#45;&gt;Node7 -->
<g id="edge6" class="edge">
<title>Node1&#45;&gt;Node7</title>
<path fill="none" stroke="midnightblue" d="M691.09,-352.57C684.95,-381.71 669.27,-436.29 634,-466 629.42,-469.86 624.15,-472.94 618.58,-475.4"/>
<polygon fill="midnightblue" stroke="midnightblue" points="694.52,-353.23 692.99,-342.74 687.65,-351.89 694.52,-353.23"/>
</g>
<!-- Node8 -->
<g id="node8" class="node">
<title>Node8</title>
<g id="a_node8"><a xlink:href="group__transforms__extrude.html#gab2442cfaf1ad44d6e295ab0979d9e03d" target="_top" xlink:title="Linearly extrude a 2d shape with uniformly&#45;spaced profile scaling.">
<polygon fill="white" stroke="black" points="506,-437.5 506,-456.5 615,-456.5 615,-437.5 506,-437.5"/>
<text text-anchor="middle" x="560.5" y="-444.5" font-family="Helvetica,sans-Serif" font-size="10.00">extrude_linear_uss</text>
</a>
</g>
</g>
<!-- Node1&#45;&gt;Node8 -->
<g id="edge7" class="edge">
<title>Node1&#45;&gt;Node8</title>
<path fill="none" stroke="midnightblue" d="M682.01,-350.74C670.66,-366.04 652.84,-388.12 634,-404 617.77,-417.67 596.67,-429.65 581.42,-437.47"/>
<polygon fill="midnightblue" stroke="midnightblue" points="684.87,-352.76 687.91,-342.61 679.2,-348.65 684.87,-352.76"/>
</g>
<!-- Node12 -->
<g id="node12" class="node">
<title>Node12</title>
<g id="a_node12"><a xlink:href="group__parts__3d__enclosure__power__strip.html#ga33509a1811b27fe7f3687957d4d32460" target="_top" xlink:title="A power strip generator for single gang electrical receptacles.">
<polygon fill="white" stroke="black" points="9,-371.5 9,-390.5 99,-390.5 99,-371.5 9,-371.5"/>
<text text-anchor="middle" x="54" y="-378.5" font-family="Helvetica,sans-Serif" font-size="10.00">power_strip_sg</text>
</a>
</g>
</g>
<!-- Node1&#45;&gt;Node12 -->
<g id="edge43" class="edge">
<title>Node1&#45;&gt;Node12</title>
<path fill="none" stroke="midnightblue" d="M689.75,-313.52C682.47,-288.34 665.91,-245.44 634,-226 509.1,-149.9 450.89,-208.63 305,-219 232.9,-224.12 204.79,-202.9 144,-242 94.11,-274.09 66.71,-345.17 58.05,-371.2"/>
<polygon fill="midnightblue" stroke="midnightblue" points="686.43,-314.64 692.39,-323.4 693.19,-312.83 686.43,-314.64"/>
</g>
<!-- Node15 -->
<g id="node15" class="node">
<title>Node15</title>
<g id="a_node15"><a xlink:href="group__parts__3d__computer__pci__bracket.html#gaf56631cf80d8e5f0b77736b17b94ecd9" target="_top" xlink:title="PCI slot cover and adapter card bracket generator.">
<polygon fill="white" stroke="black" points="170.5,-371.5 170.5,-390.5 242.5,-390.5 242.5,-371.5 170.5,-371.5"/>
<text text-anchor="middle" x="206.5" y="-378.5" font-family="Helvetica,sans-Serif" font-size="10.00">pci_bracket</text>
</a>
</g>
</g>
<!-- Node1&#45;&gt;Node15 -->
<g id="edge36" class="edge">
<title>Node1&#45;&gt;Node15</title>
<path fill="none" stroke="midnightblue" d="M660.73,-319.91C591.49,-295.14 429.48,-247.95 305,-295 299.67,-297.02 242.05,-349.4 217.97,-371.4"/>
<polygon fill="midnightblue" stroke="midnightblue" points="659.66,-323.24 670.26,-323.38 662.06,-316.67 659.66,-323.24"/>
</g>
<!-- Node16 -->
<g id="node16" class="node">
<title>Node16</title>
<g id="a_node16"><a xlink:href="group__parts__3d__enclosure__project__box__rectangle.html#ga24cdfe5fd4bb74b75409d9afdbe1f0c0" target="_top" xlink:title="A rectangular box maker for project boxes, enclosures and housings.">
<polygon fill="white" stroke="black" points="144,-409.5 144,-428.5 269,-428.5 269,-409.5 144,-409.5"/>
<text text-anchor="middle" x="206.5" y="-416.5" font-family="Helvetica,sans-Serif" font-size="10.00">project_box_rectangle</text>
</a>
</g>
</g>
<!-- Node1&#45;&gt;Node16 -->
<g id="edge44" class="edge">
<title>Node1&#45;&gt;Node16</title>
<path fill="none" stroke="midnightblue" d="M674.59,-348.71C663.32,-356.75 648.6,-365.89 634,-371 509.68,-414.48 353.72,-420.8 269.07,-420.55"/>
<polygon fill="midnightblue" stroke="midnightblue" points="676.88,-351.37 682.82,-342.6 672.71,-345.75 676.88,-351.37"/>
</g>
<!-- Node18 -->
<g id="node18" class="node">
<title>Node18</title>
<g id="a_node18"><a xlink:href="group__parts__3d__fastener__hinges.html#ga7e350f2c55116094108b99dd8103fc04" target="_top" xlink:title="A print&#45;in&#45;place single&#45;fold hinge generator.">
<polygon fill="white" stroke="black" points="349,-304.5 349,-323.5 407,-323.5 407,-304.5 349,-304.5"/>
<text text-anchor="middle" x="378" y="-311.5" font-family="Helvetica,sans-Serif" font-size="10.00">hinge_sf</text>
</a>
</g>
</g>
<!-- Node1&#45;&gt;Node18 -->
<g id="edge34" class="edge">
<title>Node1&#45;&gt;Node18</title>
<path fill="none" stroke="midnightblue" d="M659.52,-330.89C596.47,-327.1 464.97,-319.18 407.22,-315.7"/>
<polygon fill="midnightblue" stroke="midnightblue" points="659.55,-334.4 669.74,-331.51 659.97,-327.41 659.55,-334.4"/>
</g>
<!-- Node21 -->
<g id="node21" class="node">
<title>Node21</title>
<g id="a_node21"><a xlink:href="group__parts__3d__fastener__mounts.html#gae1cc60f3ff242fb07c5a50d34be8c051" target="_top" xlink:title="A mount tab with screw hole and support brace.">
<polygon fill="white" stroke="black" points="326.5,-228.5 326.5,-247.5 429.5,-247.5 429.5,-228.5 326.5,-228.5"/>
<text text-anchor="middle" x="378" y="-235.5" font-family="Helvetica,sans-Serif" font-size="10.00">mount_screw_tab</text>
</a>
</g>
</g>
<!-- Node1&#45;&gt;Node21 -->
<g id="edge35" class="edge">
<title>Node1&#45;&gt;Node21</title>
<path fill="none" stroke="midnightblue" d="M684.34,-314.4C674.05,-297.57 656.46,-273.68 634,-262 569.49,-228.46 483.37,-227.97 429.55,-232"/>
<polygon fill="midnightblue" stroke="midnightblue" points="681.49,-316.46 689.54,-323.35 687.54,-312.95 681.49,-316.46"/>
</g>
<!-- Node22 -->
<g id="node22" class="node">
<title>Node22</title>
<g id="a_node22"><a xlink:href="group__shapes__polyhedron__db.html#gae2635420611b120f6f9332ae9fd3c3d1" target="_top" xlink:title="Construct a named polyhedron.">
<polygon fill="white" stroke="black" points="507.5,-342.5 507.5,-361.5 613.5,-361.5 613.5,-342.5 507.5,-342.5"/>
<text text-anchor="middle" x="560.5" y="-349.5" font-family="Helvetica,sans-Serif" font-size="10.00">ph_db_polyhedron</text>
</a>
</g>
</g>
<!-- Node1&#45;&gt;Node22 -->
<g id="edge38" class="edge">
<title>Node1&#45;&gt;Node22</title>
<path fill="none" stroke="midnightblue" d="M659.59,-337.99C645.54,-339.99 629.04,-342.35 613.62,-344.55"/>
<polygon fill="midnightblue" stroke="midnightblue" points="660.39,-341.41 669.8,-336.53 659.4,-334.48 660.39,-341.41"/>
</g>
<!-- Node24 -->
<g id="node24" class="node">
<title>Node24</title>
<g id="a_node24"><a xlink:href="group__tools__common__polytope.html#ga530c86f9c90ce074aa7adc29834f0539" target="_top" xlink:title="Assemble a polytope skeletal frame using child objects.">
<polygon fill="white" stroke="black" points="513.5,-152.5 513.5,-171.5 607.5,-171.5 607.5,-152.5 513.5,-152.5"/>
<text text-anchor="middle" x="560.5" y="-159.5" font-family="Helvetica,sans-Serif" font-size="10.00">polytope_frame</text>
</a>
</g>
</g>
<!-- Node1&#45;&gt;Node24 -->
<g id="edge41" class="edge">
<title>Node1&#45;&gt;Node24</title>
<path fill="none" stroke="midnightblue" d="M691.68,-313.06C686.21,-281.65 671.23,-220.68 634,-186 626.63,-179.13 617.24,-174.23 607.69,-170.72"/>
<polygon fill="midnightblue" stroke="midnightblue" points="688.27,-313.86 693.29,-323.18 695.18,-312.76 688.27,-313.86"/>
</g>
<!-- Node25 -->
<g id="node25" class="node">
<title>Node25</title>
<g id="a_node25"><a xlink:href="group__tools__common__polytope.html#ga00b574079f19251be7281151d11db8fa" target="_top" xlink:title="Label the vertices, paths, and edges of a polytope.">
<polygon fill="white" stroke="black" points="509.5,-114.5 509.5,-133.5 611.5,-133.5 611.5,-114.5 509.5,-114.5"/>
<text text-anchor="middle" x="560.5" y="-121.5" font-family="Helvetica,sans-Serif" font-size="10.00">polytope_number</text>
</a>
</g>
</g>
<!-- Node1&#45;&gt;Node25 -->
<g id="edge42" class="edge">
<title>Node1&#45;&gt;Node25</title>
<path fill="none" stroke="midnightblue" d="M694.14,-313.06C692.33,-274.46 682.69,-189.22 634,-143 627.77,-137.09 619.94,-132.96 611.74,-130.09"/>
<polygon fill="midnightblue" stroke="midnightblue" points="690.66,-313.58 694.49,-323.45 697.65,-313.34 690.66,-313.58"/>
</g>
<!-- Node26 -->
<g id="node26" class="node">
<title>Node26</title>
<g id="a_node26"><a xlink:href="group__datatypes__table.html#gab0c2216f9d2258132556413c9a4317e5" target="_top" xlink:title="Dump a table to the console.">
<polygon fill="white" stroke="black" points="523.5,-76.5 523.5,-95.5 597.5,-95.5 597.5,-76.5 523.5,-76.5"/>
<text text-anchor="middle" x="560.5" y="-83.5" font-family="Helvetica,sans-Serif" font-size="10.00">table_dump</text>
</a>
</g>
</g>
<!-- Node1&#45;&gt;Node26 -->
<g id="edge45" class="edge">
<title>Node1&#45;&gt;Node26</title>
<path fill="none" stroke="midnightblue" d="M691.84,-313.35C684.74,-263.63 663.8,-134.71 634,-105 624.42,-95.45 610.65,-90.52 597.69,-88.04"/>
<polygon fill="midnightblue" stroke="midnightblue" points="688.4,-314.02 693.25,-323.44 695.34,-313.05 688.4,-314.02"/>
</g>
<!-- Node27 -->
<g id="node27" class="node">
<title>Node27</title>
<g id="a_node27"><a xlink:href="group__datatypes__table.html#ga7a45ee72b36421f4e73cfba4488f14be" target="_top" xlink:title="Dump table getter functions to the console.">
<polygon fill="white" stroke="black" points="503.5,-38.5 503.5,-57.5 617.5,-57.5 617.5,-38.5 503.5,-38.5"/>
<text text-anchor="middle" x="560.5" y="-45.5" font-family="Helvetica,sans-Serif" font-size="10.00">table_dump_getters</text>
</a>
</g>
</g>
<!-- Node1&#45;&gt;Node27 -->
<g id="edge46" class="edge">
<title>Node1&#45;&gt;Node27</title>
<path fill="none" stroke="midnightblue" d="M692.62,-313.09C686.98,-257.54 668.44,-102.58 634,-67 629.38,-62.23 623.73,-58.61 617.64,-55.86"/>
<polygon fill="midnightblue" stroke="midnightblue" points="689.17,-313.75 693.63,-323.36 696.14,-313.06 689.17,-313.75"/>
</g>
<!-- Node28 -->
<g id="node28" class="node">
<title>Node28</title>
<g id="a_node28"><a xlink:href="group__datatypes__table.html#ga8d212217f9acb803e3107f488d5523e6" target="_top" xlink:title="Write formatted map entries to the console.">
<polygon fill="white" stroke="black" points="525,-0.5 525,-19.5 596,-19.5 596,-0.5 525,-0.5"/>
<text text-anchor="middle" x="560.5" y="-7.5" font-family="Helvetica,sans-Serif" font-size="10.00">table_write</text>
</a>
</g>
</g>
<!-- Node1&#45;&gt;Node28 -->
<g id="edge47" class="edge">
<title>Node1&#45;&gt;Node28</title>
<path fill="none" stroke="midnightblue" d="M693.24,-313.1C688.98,-252.3 673.17,-70.59 634,-29 624.28,-18.68 609.69,-13.7 596.14,-11.39"/>
<polygon fill="midnightblue" stroke="midnightblue" points="689.76,-313.53 693.92,-323.28 696.74,-313.07 689.76,-313.53"/>
</g>
<!-- Node4&#45;&gt;Node5 -->
<g id="edge4" class="edge">
<title>Node4&#45;&gt;Node5</title>
<path fill="none" stroke="midnightblue" d="M157.01,-647C138.79,-647 118.17,-647 100.25,-647"/>
<polygon fill="midnightblue" stroke="midnightblue" points="157.13,-650.5 167.13,-647 157.13,-643.5 157.13,-650.5"/>
</g>
<!-- Node8&#45;&gt;Node2 -->
<g id="edge8" class="edge">
<title>Node8&#45;&gt;Node2</title>
<path fill="none" stroke="midnightblue" d="M496.64,-458.34C493.12,-460.49 489.86,-463.02 487,-466 434.77,-520.51 501.42,-575.81 451,-632 445.37,-638.28 438.05,-642.91 430.25,-646.34"/>
<polygon fill="midnightblue" stroke="midnightblue" points="498.46,-461.34 505.85,-453.74 495.34,-455.07 498.46,-461.34"/>
</g>
<!-- Node8&#45;&gt;Node4 -->
<g id="edge9" class="edge">
<title>Node8&#45;&gt;Node4</title>
<path fill="none" stroke="midnightblue" d="M496.75,-459.05C493.25,-461.04 489.96,-463.34 487,-466 453.43,-496.19 484.11,-530.31 451,-561 401.39,-606.99 366.28,-575.36 305,-604 287.58,-612.14 286.37,-619.74 269,-628 261.33,-631.65 252.79,-634.8 244.58,-637.44"/>
<polygon fill="midnightblue" stroke="midnightblue" points="498.28,-462.2 505.81,-454.75 495.28,-455.88 498.28,-462.2"/>
</g>
<!-- Node8&#45;&gt;Node5 -->
<g id="edge31" class="edge">
<title>Node8&#45;&gt;Node5</title>
<path fill="none" stroke="midnightblue" d="M496.65,-458.63C493.15,-460.72 489.89,-463.15 487,-466 444.31,-508.1 493.32,-553.53 451,-596 403.43,-643.74 357.59,-594.84 305,-637 278.62,-658.14 298.01,-686.65 269,-704 221.32,-732.51 197.32,-719.61 144,-704 112.3,-694.72 81.18,-670.31 65.49,-656.63"/>
<polygon fill="midnightblue" stroke="midnightblue" points="498.33,-461.71 505.75,-454.15 495.24,-455.43 498.33,-461.71"/>
</g>
<!-- Node9 -->
<g id="node9" class="node">
<title>Node9</title>
<g id="a_node9"><a xlink:href="group__transforms__extrude.html#ga45661244067bf945b684550c3263ee45" target="_top" xlink:title="Linearly extrude a 2d shape with multi&#45;segment uniformly&#45;spaced profile scaling.">
<polygon fill="white" stroke="black" points="321.5,-532.5 321.5,-551.5 434.5,-551.5 434.5,-532.5 321.5,-532.5"/>
<text text-anchor="middle" x="378" y="-539.5" font-family="Helvetica,sans-Serif" font-size="10.00">extrude_linear_mss</text>
</a>
</g>
</g>
<!-- Node8&#45;&gt;Node9 -->
<g id="edge10" class="edge">
<title>Node8&#45;&gt;Node9</title>
<path fill="none" stroke="midnightblue" d="M496.65,-460.12C493.26,-461.85 490.01,-463.8 487,-466 462.82,-483.7 475.16,-505.28 451,-523 445.68,-526.9 439.63,-530 433.34,-532.46"/>
<polygon fill="midnightblue" stroke="midnightblue" points="498.15,-463.29 505.91,-456.07 495.34,-456.87 498.15,-463.29"/>
</g>
<!-- Node8&#45;&gt;Node12 -->
<g id="edge32" class="edge">
<title>Node8&#45;&gt;Node12</title>
<path fill="none" stroke="midnightblue" d="M517.76,-434.45C440.42,-411.24 281.55,-363.8 269,-362 214.01,-354.12 199.25,-356.17 144,-362 126.4,-363.86 107.17,-367.73 91.1,-371.49"/>
<polygon fill="midnightblue" stroke="midnightblue" points="517.08,-437.9 527.66,-437.42 519.09,-431.19 517.08,-437.9"/>
</g>
<!-- Node8&#45;&gt;Node16 -->
<g id="edge33" class="edge">
<title>Node8&#45;&gt;Node16</title>
<path fill="none" stroke="midnightblue" d="M495.63,-449.48C443.99,-450.58 369.53,-450.15 305,-442 283.09,-439.23 258.92,-433.55 240.13,-428.53"/>
<polygon fill="midnightblue" stroke="midnightblue" points="495.73,-452.97 505.64,-449.24 495.56,-445.98 495.73,-452.97"/>
</g>
<!-- Node8&#45;&gt;Node18 -->
<g id="edge26" class="edge">
<title>Node8&#45;&gt;Node18</title>
<path fill="none" stroke="midnightblue" d="M543.15,-429.9C528.45,-414.5 506.26,-391.26 487,-371 470.97,-354.14 471.01,-344.87 451,-333 437.66,-325.09 421,-320.42 407.07,-317.69"/>
<polygon fill="midnightblue" stroke="midnightblue" points="540.67,-432.36 550.1,-437.17 545.73,-427.52 540.67,-432.36"/>
</g>
<!-- Node20 -->
<g id="node20" class="node">
<title>Node20</title>
<g id="a_node20"><a xlink:href="group__models__3d__joint__dovetail__screw.html#ga20f61ef0d29434a144ec653c6320f77f" target="_top" xlink:title="Construct a 3d dovetail joint with optional screw and nut fastener.">
<polygon fill="white" stroke="black" points="313.5,-494.5 313.5,-513.5 442.5,-513.5 442.5,-494.5 313.5,-494.5"/>
<text text-anchor="middle" x="378" y="-501.5" font-family="Helvetica,sans-Serif" font-size="10.00">joint3d_dovetail_screw</text>
</a>
</g>
</g>
<!-- Node8&#45;&gt;Node20 -->
<g id="edge28" class="edge">
<title>Node8&#45;&gt;Node20</title>
<path fill="none" stroke="midnightblue" d="M510.05,-459.15C502.29,-461.29 494.4,-463.6 487,-466 470.67,-471.3 467.15,-474.17 451,-480 437.24,-484.96 421.88,-490.14 408.89,-494.4"/>
<polygon fill="midnightblue" stroke="midnightblue" points="511,-462.52 519.75,-456.54 509.19,-455.76 511,-462.52"/>
</g>
<!-- Node8&#45;&gt;Node21 -->
<g id="edge29" class="edge">
<title>Node8&#45;&gt;Node21</title>
<path fill="none" stroke="midnightblue" d="M540.7,-430.51C524.94,-415.98 502.57,-393.65 487,-371 465.83,-340.2 474.26,-324.25 451,-295 435.12,-275.03 410.97,-257.76 395.08,-247.61"/>
<polygon fill="midnightblue" stroke="midnightblue" points="538.51,-433.24 548.27,-437.35 543.2,-428.05 538.51,-433.24"/>
</g>
<!-- Node9&#45;&gt;Node3 -->
<g id="edge12" class="edge">
<title>Node9&#45;&gt;Node3</title>
<path fill="none" stroke="midnightblue" d="M355,-557.81C339.79,-569.45 319.71,-586.28 305,-604 284.64,-628.51 293.93,-646.16 269,-666 261.39,-672.05 251.85,-676.19 242.57,-679.01"/>
<polygon fill="midnightblue" stroke="midnightblue" points="357.41,-560.38 363.33,-551.59 353.22,-554.77 357.41,-560.38"/>
</g>
<!-- Node9&#45;&gt;Node4 -->
<g id="edge16" class="edge">
<title>Node9&#45;&gt;Node4</title>
<path fill="none" stroke="midnightblue" d="M322.48,-555.35C316.22,-558.24 310.22,-561.75 305,-566 280.29,-586.12 293.93,-608.16 269,-628 262.27,-633.36 254.02,-637.21 245.78,-639.98"/>
<polygon fill="midnightblue" stroke="midnightblue" points="323.86,-558.57 331.79,-551.53 321.21,-552.09 323.86,-558.57"/>
</g>
<!-- Node10 -->
<g id="node10" class="node">
<title>Node10</title>
<g id="a_node10"><a xlink:href="group__parts__3d__motion__bearing__linear__rod.html#ga0064887f7c89f8915895c0243bec4a4c" target="_top" xlink:title="Transform 2d or 3d shape into a linear rod ball or sled bearing.">
<polygon fill="white" stroke="black" points="153,-523.5 153,-542.5 260,-542.5 260,-523.5 153,-523.5"/>
<text text-anchor="middle" x="206.5" y="-530.5" font-family="Helvetica,sans-Serif" font-size="10.00">bearing_linear_rod</text>
</a>
</g>
</g>
<!-- Node9&#45;&gt;Node10 -->
<g id="edge11" class="edge">
<title>Node9&#45;&gt;Node10</title>
<path fill="none" stroke="midnightblue" d="M311.16,-538.5C294.28,-537.61 276.36,-536.66 260.25,-535.8"/>
<polygon fill="midnightblue" stroke="midnightblue" points="311.33,-542.02 321.5,-539.05 311.7,-535.03 311.33,-542.02"/>
</g>
<!-- Node11 -->
<g id="node11" class="node">
<title>Node11</title>
<g id="a_node11"><a xlink:href="group__parts__3d__fastener__clamps.html#gad5d667c41776480785c62759c61a137e" target="_top" xlink:title="A clamp, bushing, and/or grip for wire, hose, and/or pipe wall penetrations.">
<polygon fill="white" stroke="black" points="175,-485.5 175,-504.5 238,-504.5 238,-485.5 175,-485.5"/>
<text text-anchor="middle" x="206.5" y="-492.5" font-family="Helvetica,sans-Serif" font-size="10.00">clamp_cg</text>
</a>
</g>
</g>
<!-- Node9&#45;&gt;Node11 -->
<g id="edge13" class="edge">
<title>Node9&#45;&gt;Node11</title>
<path fill="none" stroke="midnightblue" d="M330.53,-529.9C322.03,-527.64 313.24,-525.27 305,-523 282.59,-516.83 257.37,-509.57 238.19,-504"/>
<polygon fill="midnightblue" stroke="midnightblue" points="329.77,-533.31 340.33,-532.49 331.56,-526.55 329.77,-533.31"/>
</g>
<!-- Node13 -->
<g id="node13" class="node">
<title>Node13</title>
<g id="a_node13"><a xlink:href="group__parts__3d__fastener__mounts.html#ga0cbac43259ec43fff7785057277bcef3" target="_top" xlink:title="A screw mount post with screw bore and optional fins.">
<polygon fill="white" stroke="black" points="0,-580.5 0,-599.5 108,-599.5 108,-580.5 0,-580.5"/>
<text text-anchor="middle" x="54" y="-587.5" font-family="Helvetica,sans-Serif" font-size="10.00">mount_screw_post</text>
</a>
</g>
</g>
<!-- Node9&#45;&gt;Node13 -->
<g id="edge17" class="edge">
<title>Node9&#45;&gt;Node13</title>
<path fill="none" stroke="midnightblue" d="M311.16,-551.81C251.21,-560.75 163.8,-573.78 108.17,-582.07"/>
<polygon fill="midnightblue" stroke="midnightblue" points="311.9,-555.24 321.28,-550.31 310.87,-548.32 311.9,-555.24"/>
</g>
<!-- Node14 -->
<g id="node14" class="node">
<title>Node14</title>
<g id="a_node14"><a xlink:href="group__models__3d__misc__omdl__logo.html#gab176f64dad7e83d4fb056be44b71f630" target="_top" xlink:title="Standard omdl logo.">
<polygon fill="white" stroke="black" points="172.5,-447.5 172.5,-466.5 240.5,-466.5 240.5,-447.5 172.5,-447.5"/>
<text text-anchor="middle" x="206.5" y="-454.5" font-family="Helvetica,sans-Serif" font-size="10.00">omdl_logo</text>
</a>
</g>
</g>
<!-- Node9&#45;&gt;Node14 -->
<g id="edge18" class="edge">
<title>Node9&#45;&gt;Node14</title>
<path fill="none" stroke="midnightblue" d="M314.81,-528.53C311.39,-526.89 308.09,-525.06 305,-523 283.1,-508.41 290.59,-491.04 269,-476 260.66,-470.19 250.47,-466.11 240.81,-463.26"/>
<polygon fill="midnightblue" stroke="midnightblue" points="313.54,-531.79 324.11,-532.41 316.23,-525.33 313.54,-531.79"/>
</g>
<!-- Node9&#45;&gt;Node15 -->
<g id="edge20" class="edge">
<title>Node9&#45;&gt;Node15</title>
<path fill="none" stroke="midnightblue" d="M312.33,-528.85C309.71,-527.13 307.24,-525.18 305,-523 264.19,-483.26 308.98,-440.58 269,-400 261.94,-392.84 252.24,-388.36 242.64,-385.57"/>
<polygon fill="midnightblue" stroke="midnightblue" points="310.71,-531.95 321.16,-533.65 314.05,-525.8 310.71,-531.95"/>
</g>
<!-- Node9&#45;&gt;Node16 -->
<g id="edge21" class="edge">
<title>Node9&#45;&gt;Node16</title>
<path fill="none" stroke="midnightblue" d="M312.21,-528.27C309.66,-526.69 307.24,-524.94 305,-523 274,-496.13 299.44,-465.51 269,-438 264.69,-434.1 259.59,-431.01 254.21,-428.54"/>
<polygon fill="midnightblue" stroke="midnightblue" points="310.8,-531.48 321.29,-532.96 314.02,-525.26 310.8,-531.48"/>
</g>
<!-- Node17 -->
<g id="node17" class="node">
<title>Node17</title>
<g id="a_node17"><a xlink:href="group__models__3d__fastener__screws.html#gaad990187680f7ac947e555483d854bfa" target="_top" xlink:title="Gapped fastener bore with engagement cylinders for self&#45;forming threads.">
<polygon fill="white" stroke="black" points="161.5,-599.5 161.5,-618.5 251.5,-618.5 251.5,-599.5 161.5,-599.5"/>
<text text-anchor="middle" x="206.5" y="-606.5" font-family="Helvetica,sans-Serif" font-size="10.00">screw_bore_tsf</text>
</a>
</g>
</g>
<!-- Node9&#45;&gt;Node17 -->
<g id="edge24" class="edge">
<title>Node9&#45;&gt;Node17</title>
<path fill="none" stroke="midnightblue" d="M334.97,-554.72C325.03,-558.08 314.54,-561.92 305,-566 288.36,-573.11 285.45,-577.48 269,-585 257.64,-590.19 244.8,-595.32 233.81,-599.49"/>
<polygon fill="midnightblue" stroke="midnightblue" points="336.28,-557.98 344.68,-551.53 334.09,-551.33 336.28,-557.98"/>
</g>
<!-- Node11&#45;&gt;Node5 -->
<g id="edge14" class="edge">
<title>Node11&#45;&gt;Node5</title>
<path fill="none" stroke="midnightblue" d="M165.08,-501.75C157.38,-504.53 149.9,-508.46 144,-514 111.09,-544.91 135.52,-573.21 108,-609 98.82,-620.94 84.87,-630.73 73.59,-637.38"/>
<polygon fill="midnightblue" stroke="midnightblue" points="166.28,-505.04 174.85,-498.8 164.26,-498.34 166.28,-505.04"/>
</g>
<!-- Node11&#45;&gt;Node12 -->
<g id="edge15" class="edge">
<title>Node11&#45;&gt;Node12</title>
<path fill="none" stroke="midnightblue" d="M164.93,-485.76C157.67,-483.2 150.38,-479.99 144,-476 106.63,-452.63 74.55,-409.74 61.39,-390.63"/>
<polygon fill="midnightblue" stroke="midnightblue" points="164.16,-489.18 174.75,-488.86 166.27,-482.51 164.16,-489.18"/>
</g>
<!-- Node14&#45;&gt;Node12 -->
<g id="edge19" class="edge">
<title>Node14&#45;&gt;Node12</title>
<path fill="none" stroke="midnightblue" d="M162.51,-445.35C156.2,-443.18 149.85,-440.72 144,-438 115.04,-424.56 84.33,-403.06 67.63,-390.66"/>
<polygon fill="midnightblue" stroke="midnightblue" points="161.74,-448.78 172.33,-448.54 163.9,-442.13 161.74,-448.78"/>
</g>
<!-- Node16&#45;&gt;Node5 -->
<g id="edge22" class="edge">
<title>Node16&#45;&gt;Node5</title>
<path fill="none" stroke="midnightblue" d="M147.91,-434.27C146.52,-435.42 145.22,-436.67 144,-438 91.67,-495.39 150.44,-543.96 108,-609 99.96,-621.33 86.42,-630.93 75.03,-637.4"/>
<polygon fill="midnightblue" stroke="midnightblue" points="150.13,-436.99 156.53,-428.55 146.26,-431.16 150.13,-436.99"/>
</g>
<!-- Node16&#45;&gt;Node12 -->
<g id="edge23" class="edge">
<title>Node16&#45;&gt;Node12</title>
<path fill="none" stroke="midnightblue" d="M157.82,-406.96C136.79,-401.65 112.43,-395.5 92.7,-390.52"/>
<polygon fill="midnightblue" stroke="midnightblue" points="156.97,-410.36 167.52,-409.41 158.68,-403.57 156.97,-410.36"/>
</g>
<!-- Node17&#45;&gt;Node13 -->
<g id="edge25" class="edge">
<title>Node17&#45;&gt;Node13</title>
<path fill="none" stroke="midnightblue" d="M151.16,-602.14C137.12,-600.37 122.03,-598.46 108.06,-596.7"/>
<polygon fill="midnightblue" stroke="midnightblue" points="150.8,-605.62 161.16,-603.4 151.68,-598.68 150.8,-605.62"/>
</g>
<!-- Node19 -->
<g id="node19" class="node">
<title>Node19</title>
<g id="a_node19"><a xlink:href="group__parts__3d__fastener__hinges.html#ga1ffc82e0bbac466d1dc4fbe6c214b765" target="_top" xlink:title="A print&#45;in&#45;place bi&#45;fold hinge generator.">
<polygon fill="white" stroke="black" points="177,-295.5 177,-314.5 236,-314.5 236,-295.5 177,-295.5"/>
<text text-anchor="middle" x="206.5" y="-302.5" font-family="Helvetica,sans-Serif" font-size="10.00">hinge_bf</text>
</a>
</g>
</g>
<!-- Node18&#45;&gt;Node19 -->
<g id="edge27" class="edge">
<title>Node18&#45;&gt;Node19</title>
<path fill="none" stroke="midnightblue" d="M338.59,-311.96C307.5,-310.31 264.41,-308.02 236.25,-306.53"/>
<polygon fill="midnightblue" stroke="midnightblue" points="338.46,-315.46 348.63,-312.49 338.83,-308.47 338.46,-315.46"/>
</g>
<!-- Node21&#45;&gt;Node12 -->
<g id="edge30" class="edge">
<title>Node21&#45;&gt;Node12</title>
<path fill="none" stroke="midnightblue" d="M316.03,-240.47C266.85,-244.76 197.32,-256.13 144,-286 105.35,-307.65 73.71,-351.83 61.01,-371.36"/>
<polygon fill="midnightblue" stroke="midnightblue" points="316.51,-243.95 326.2,-239.66 315.96,-236.97 316.51,-243.95"/>
</g>
<!-- Node23 -->
<g id="node23" class="node">
<title>Node23</title>
<g id="a_node23"><a xlink:href="group__shapes__select__common__3d.html#ga3fd7f214eff2f5935ad1bb56415a4aaf" target="_top" xlink:title="Select configure and construct one of the available 3d shapes.">
<polygon fill="white" stroke="black" points="305,-342.5 305,-361.5 451,-361.5 451,-342.5 305,-342.5"/>
<text text-anchor="middle" x="378" y="-349.5" font-family="Helvetica,sans-Serif" font-size="10.00">select_common_3d_shape</text>
</a>
</g>
</g>
<!-- Node22&#45;&gt;Node23 -->
<g id="edge39" class="edge">
<title>Node22&#45;&gt;Node23</title>
<path fill="none" stroke="midnightblue" d="M497.23,-352C482.4,-352 466.46,-352 451.23,-352"/>
<polygon fill="midnightblue" stroke="midnightblue" points="497.29,-355.5 507.29,-352 497.29,-348.5 497.29,-355.5"/>
</g>
<!-- Node23&#45;&gt;Node16 -->
<g id="edge40" class="edge">
<title>Node23&#45;&gt;Node16</title>
<path fill="none" stroke="midnightblue" d="M332.65,-364.72C323.33,-367.96 313.7,-371.75 305,-376 287.73,-384.45 286.37,-391.74 269,-400 261.33,-403.65 252.79,-406.8 244.58,-409.44"/>
<polygon fill="midnightblue" stroke="midnightblue" points="333.81,-368.02 342.2,-361.54 331.6,-361.38 333.81,-368.02"/>
</g>
</g>
</svg>
