<?xml version="1.0" encoding="UTF-8" standalone="no"?>
<!DOCTYPE svg PUBLIC "-//W3C//DTD SVG 1.1//EN"
 "http://www.w3.org/Graphics/SVG/1.1/DTD/svg11.dtd">
<!-- Generated by graphviz version 2.43.0 (0)
 -->
<!-- Title: draft_rectangle Pages: 1 -->
<svg width="329pt" height="104pt"
 viewBox="0.00 0.00 329.00 104.00" xmlns="http://www.w3.org/2000/svg" xmlns:xlink="http://www.w3.org/1999/xlink">
<g id="graph0" class="graph" transform="scale(1 1) rotate(0) translate(4 100)">
<title>draft_rectangle</title>
<polygon fill="white" stroke="transparent" points="-4,4 -4,-100 325,-100 325,4 -4,4"/>
<!-- Node1 -->
<g id="node1" class="node">
<title>Node1</title>
<g id="a_node1"><a xlink:title="Draft a rectangle with configurable style.">
<polygon fill="#bfbfbf" stroke="black" points="0,-38.5 0,-57.5 90,-57.5 90,-38.5 0,-38.5"/>
<text text-anchor="middle" x="45" y="-45.5" font-family="Helvetica,sans-Serif" font-size="10.00">draft_rectangle</text>
</a>
</g>
</g>
<!-- Node2 -->
<g id="node2" class="node">
<title>Node2</title>
<g id="a_node2"><a xlink:href="group__datatypes__iterable__operate.html#ga3d37c2b0067d1661724bd89955c8f6ce" target="_top" xlink:title="Returns an element from an iterable if it exists, or a default value if not.">
<polygon fill="white" stroke="black" points="242,-76.5 242,-95.5 321,-95.5 321,-76.5 242,-76.5"/>
<text text-anchor="middle" x="281.5" y="-83.5" font-family="Helvetica,sans-Serif" font-size="10.00">defined_e_or</text>
</a>
</g>
</g>
<!-- Node1&#45;&gt;Node2 -->
<g id="edge1" class="edge">
<title>Node1&#45;&gt;Node2</title>
<path fill="none" stroke="midnightblue" d="M82.46,-57.56C96.06,-60.89 111.67,-64.43 126,-67 161.25,-73.33 201.41,-78.2 231.94,-81.42"/>
<polygon fill="midnightblue" stroke="midnightblue" points="231.6,-84.91 241.91,-82.45 232.32,-77.94 231.6,-84.91"/>
</g>
<!-- Node3 -->
<g id="node3" class="node">
<title>Node3</title>
<g id="a_node3"><a xlink:href="group__tools__2d__drafting.html#ga060910368142d6371cf4f3f30be7561e" target="_top" xlink:title="Draft a line with configurable style and optional arrowheads.">
<polygon fill="white" stroke="black" points="135,-38.5 135,-57.5 197,-57.5 197,-38.5 135,-38.5"/>
<text text-anchor="middle" x="166" y="-45.5" font-family="Helvetica,sans-Serif" font-size="10.00">draft_line</text>
</a>
</g>
</g>
<!-- Node1&#45;&gt;Node3 -->
<g id="edge2" class="edge">
<title>Node1&#45;&gt;Node3</title>
<path fill="none" stroke="midnightblue" d="M90.31,-48C101.53,-48 113.52,-48 124.53,-48"/>
<polygon fill="midnightblue" stroke="midnightblue" points="124.74,-51.5 134.74,-48 124.74,-44.5 124.74,-51.5"/>
</g>
<!-- Node5 -->
<g id="node5" class="node">
<title>Node5</title>
<g id="a_node5"><a xlink:href="group__datatypes__iterable__operate.html#gadb933df06b10d64dda8823069bdc84b7" target="_top" xlink:title="Return a list of all n&#45;element sequential&#45;subsets of an iterable value.">
<polygon fill="white" stroke="black" points="126,-0.5 126,-19.5 206,-19.5 206,-0.5 126,-0.5"/>
<text text-anchor="middle" x="166" y="-7.5" font-family="Helvetica,sans-Serif" font-size="10.00">sequence_ns</text>
</a>
</g>
</g>
<!-- Node1&#45;&gt;Node5 -->
<g id="edge5" class="edge">
<title>Node1&#45;&gt;Node5</title>
<path fill="none" stroke="midnightblue" d="M76.03,-38.41C90.97,-33.64 109.22,-27.81 125.3,-22.68"/>
<polygon fill="midnightblue" stroke="midnightblue" points="126.52,-25.96 134.98,-19.59 124.39,-19.29 126.52,-25.96"/>
</g>
<!-- Node3&#45;&gt;Node2 -->
<g id="edge4" class="edge">
<title>Node3&#45;&gt;Node2</title>
<path fill="none" stroke="midnightblue" d="M195.64,-57.59C209.75,-62.31 226.97,-68.08 242.2,-73.18"/>
<polygon fill="midnightblue" stroke="midnightblue" points="241.27,-76.56 251.87,-76.41 243.5,-69.92 241.27,-76.56"/>
</g>
<!-- Node4 -->
<g id="node4" class="node">
<title>Node4</title>
<g id="a_node4"><a xlink:href="group__datatypes__iterable__test.html#ga4dfc58aa5f208e103e622684db817ce6" target="_top" xlink:title="Test if all elements of an iterable value equal a comparison value.">
<polygon fill="white" stroke="black" points="251,-38.5 251,-57.5 312,-57.5 312,-38.5 251,-38.5"/>
<text text-anchor="middle" x="281.5" y="-45.5" font-family="Helvetica,sans-Serif" font-size="10.00">all_equal</text>
</a>
</g>
</g>
<!-- Node3&#45;&gt;Node4 -->
<g id="edge3" class="edge">
<title>Node3&#45;&gt;Node4</title>
<path fill="none" stroke="midnightblue" d="M197.12,-48C210.44,-48 226.28,-48 240.57,-48"/>
<polygon fill="midnightblue" stroke="midnightblue" points="240.64,-51.5 250.64,-48 240.64,-44.5 240.64,-51.5"/>
</g>
</g>
</svg>
