<?xml version="1.0" encoding="UTF-8" standalone="no"?>
<!DOCTYPE svg PUBLIC "-//W3C//DTD SVG 1.1//EN"
 "http://www.w3.org/Graphics/SVG/1.1/DTD/svg11.dtd">
<!-- Generated by graphviz version 2.43.0 (0)
 -->
<!-- Title: enclosure_stand_rectangle Pages: 1 -->
<svg width="331pt" height="256pt"
 viewBox="0.00 0.00 331.00 256.00" xmlns="http://www.w3.org/2000/svg" xmlns:xlink="http://www.w3.org/1999/xlink">
<g id="graph0" class="graph" transform="scale(1 1) rotate(0) translate(4 252)">
<title>enclosure_stand_rectangle</title>
<polygon fill="white" stroke="transparent" points="-4,4 -4,-252 327,-252 327,4 -4,4"/>
<!-- Node1 -->
<g id="node1" class="node">
<title>Node1</title>
<g id="a_node1"><a xlink:title="A stand maker for rectangular project boxes, housings, and enclosures.">
<polygon fill="#bfbfbf" stroke="black" points="0,-114.5 0,-133.5 147,-133.5 147,-114.5 0,-114.5"/>
<text text-anchor="middle" x="73.5" y="-121.5" font-family="Helvetica,sans-Serif" font-size="10.00">enclosure_stand_rectangle</text>
</a>
</g>
</g>
<!-- Node2 -->
<g id="node2" class="node">
<title>Node2</title>
<g id="a_node2"><a xlink:href="group__datatypes__iterable__operate.html#ga5edb69d3d9e3650e943ff8d010a43f07" target="_top" xlink:title="Count all occurrences of a match value in an iterable value.">
<polygon fill="white" stroke="black" points="231,-228.5 231,-247.5 275,-247.5 275,-228.5 231,-228.5"/>
<text text-anchor="middle" x="253" y="-235.5" font-family="Helvetica,sans-Serif" font-size="10.00">count</text>
</a>
</g>
</g>
<!-- Node1&#45;&gt;Node2 -->
<g id="edge1" class="edge">
<title>Node1&#45;&gt;Node2</title>
<path fill="none" stroke="midnightblue" d="M82.72,-133.67C99.56,-152.85 140.01,-195.85 183,-219 194.71,-225.3 208.69,-229.66 220.99,-232.59"/>
<polygon fill="midnightblue" stroke="midnightblue" points="220.33,-236.03 230.85,-234.73 221.82,-229.19 220.33,-236.03"/>
</g>
<!-- Node3 -->
<g id="node3" class="node">
<title>Node3</title>
<g id="a_node3"><a xlink:href="group__datatypes__iterable__operate.html#ga3d37c2b0067d1661724bd89955c8f6ce" target="_top" xlink:title="Returns an element from an iterable if it exists, or a default value if not.">
<polygon fill="white" stroke="black" points="213.5,-190.5 213.5,-209.5 292.5,-209.5 292.5,-190.5 213.5,-190.5"/>
<text text-anchor="middle" x="253" y="-197.5" font-family="Helvetica,sans-Serif" font-size="10.00">defined_e_or</text>
</a>
</g>
</g>
<!-- Node1&#45;&gt;Node3 -->
<g id="edge2" class="edge">
<title>Node1&#45;&gt;Node3</title>
<path fill="none" stroke="midnightblue" d="M90.17,-133.61C110.82,-145.95 148.57,-167.4 183,-181 189.44,-183.55 196.36,-185.88 203.22,-187.98"/>
<polygon fill="midnightblue" stroke="midnightblue" points="202.62,-191.45 213.2,-190.89 204.57,-184.73 202.62,-191.45"/>
</g>
<!-- Node4 -->
<g id="node4" class="node">
<title>Node4</title>
<g id="a_node4"><a xlink:href="group__datatypes__iterable__operate.html#gaccab3e37e43cb1d882713b3f3d6d9e1b" target="_top" xlink:title="Return the first element of an iterable value.">
<polygon fill="white" stroke="black" points="235.5,-152.5 235.5,-171.5 270.5,-171.5 270.5,-152.5 235.5,-152.5"/>
<text text-anchor="middle" x="253" y="-159.5" font-family="Helvetica,sans-Serif" font-size="10.00">first</text>
</a>
</g>
</g>
<!-- Node1&#45;&gt;Node4 -->
<g id="edge3" class="edge">
<title>Node1&#45;&gt;Node4</title>
<path fill="none" stroke="midnightblue" d="M119.29,-133.59C152.8,-140.76 197.5,-150.33 225.52,-156.33"/>
<polygon fill="midnightblue" stroke="midnightblue" points="224.87,-159.77 235.38,-158.44 226.34,-152.93 224.87,-159.77"/>
</g>
<!-- Node5 -->
<g id="node5" class="node">
<title>Node5</title>
<g id="a_node5"><a xlink:href="group__math__polygon.html#ga7a0eff64929a142fc507615f83e3bd58" target="_top" xlink:title="Compute coordinates that round all of the vertices between each adjacent edges in 2D.">
<polygon fill="white" stroke="black" points="183,-114.5 183,-133.5 323,-133.5 323,-114.5 183,-114.5"/>
<text text-anchor="middle" x="253" y="-121.5" font-family="Helvetica,sans-Serif" font-size="10.00">polygon_round_eve_all_p</text>
</a>
</g>
</g>
<!-- Node1&#45;&gt;Node5 -->
<g id="edge4" class="edge">
<title>Node1&#45;&gt;Node5</title>
<path fill="none" stroke="midnightblue" d="M147.21,-124C155.58,-124 164.15,-124 172.6,-124"/>
<polygon fill="midnightblue" stroke="midnightblue" points="172.84,-127.5 182.84,-124 172.84,-120.5 172.84,-127.5"/>
</g>
<!-- Node6 -->
<g id="node6" class="node">
<title>Node6</title>
<g id="a_node6"><a xlink:href="group__datatypes__iterable__operate.html#ga894d4bec62cc9cf38d5e099de3028c54" target="_top" xlink:title="Return the second element of an iterable value.">
<polygon fill="white" stroke="black" points="227.5,-76.5 227.5,-95.5 278.5,-95.5 278.5,-76.5 227.5,-76.5"/>
<text text-anchor="middle" x="253" y="-83.5" font-family="Helvetica,sans-Serif" font-size="10.00">second</text>
</a>
</g>
</g>
<!-- Node1&#45;&gt;Node6 -->
<g id="edge5" class="edge">
<title>Node1&#45;&gt;Node6</title>
<path fill="none" stroke="midnightblue" d="M119.29,-114.41C149.71,-107.9 189.34,-99.41 217.35,-93.42"/>
<polygon fill="midnightblue" stroke="midnightblue" points="218.43,-96.77 227.47,-91.25 216.96,-89.92 218.43,-96.77"/>
</g>
<!-- Node7 -->
<g id="node7" class="node">
<title>Node7</title>
<g id="a_node7"><a xlink:href="group__datatypes__list__operate.html#ga7b8e6f2bbfa72ae61e39377e5ca6b5be" target="_top" xlink:title="Select specified element from list or return a default.">
<polygon fill="white" stroke="black" points="223.5,-38.5 223.5,-57.5 282.5,-57.5 282.5,-38.5 223.5,-38.5"/>
<text text-anchor="middle" x="253" y="-45.5" font-family="Helvetica,sans-Serif" font-size="10.00">select_ci</text>
</a>
</g>
</g>
<!-- Node1&#45;&gt;Node7 -->
<g id="edge6" class="edge">
<title>Node1&#45;&gt;Node7</title>
<path fill="none" stroke="midnightblue" d="M90.17,-114.39C110.82,-102.05 148.57,-80.6 183,-67 192.71,-63.17 203.47,-59.8 213.56,-57.01"/>
<polygon fill="midnightblue" stroke="midnightblue" points="214.58,-60.36 223.35,-54.42 212.79,-53.6 214.58,-60.36"/>
</g>
<!-- Node8 -->
<g id="node8" class="node">
<title>Node8</title>
<g id="a_node8"><a xlink:href="group__datatypes__iterable__operate.html#ga4a000b3543933067bb00c6950e9122b3" target="_top" xlink:title="Return the third element of an iterable value.">
<polygon fill="white" stroke="black" points="233.5,-0.5 233.5,-19.5 272.5,-19.5 272.5,-0.5 233.5,-0.5"/>
<text text-anchor="middle" x="253" y="-7.5" font-family="Helvetica,sans-Serif" font-size="10.00">third</text>
</a>
</g>
</g>
<!-- Node1&#45;&gt;Node8 -->
<g id="edge7" class="edge">
<title>Node1&#45;&gt;Node8</title>
<path fill="none" stroke="midnightblue" d="M82.72,-114.33C99.56,-95.15 140.01,-52.15 183,-29 195.39,-22.33 210.33,-17.84 223.13,-14.91"/>
<polygon fill="midnightblue" stroke="midnightblue" points="224.2,-18.26 233.28,-12.8 222.78,-11.41 224.2,-18.26"/>
</g>
</g>
</svg>
