<?xml version="1.0" encoding="UTF-8" standalone="no"?>
<!DOCTYPE svg PUBLIC "-//W3C//DTD SVG 1.1//EN"
 "http://www.w3.org/Graphics/SVG/1.1/DTD/svg11.dtd">
<!-- Generated by graphviz version 2.43.0 (0)
 -->
<!-- Title: List Operations Pages: 1 -->
<svg width="262pt" height="36pt"
 viewBox="0.00 0.00 262.00 35.74" xmlns="http://www.w3.org/2000/svg" xmlns:xlink="http://www.w3.org/1999/xlink">
<g id="graph0" class="graph" transform="scale(1 1) rotate(0) translate(4 31.74)">
<title>List Operations</title>
<polygon fill="white" stroke="transparent" points="-4,4 -4,-31.74 258,-31.74 258,4 -4,4"/>
<!-- Node2 -->
<g id="node1" class="node">
<title>Node2</title>
<g id="a_node1"><a xlink:href="group__datatypes.html" target="_top" xlink:title="Data type identification and operations.">
<polygon fill="white" stroke="black" points="44,-27.74 0,-27.74 0,-8.74 44,-8.74 44,-27.74"/>
<text text-anchor="middle" x="22" y="-15.74" font-family="Helvetica,sans-Serif" font-size="10.00">Types</text>
</a>
</g>
</g>
<!-- Node1 -->
<g id="node2" class="node">
<title>Node1</title>
<g id="a_node2"><a xlink:title="Operations for list data types.">
<polygon fill="#bfbfbf" stroke="black" points="254,-27.74 164,-27.74 164,-8.74 254,-8.74 254,-27.74"/>
<text text-anchor="middle" x="209" y="-15.74" font-family="Helvetica,sans-Serif" font-size="10.00">List Operations</text>
</a>
</g>
</g>
<!-- Node2&#45;&gt;Node1 -->
<g id="edge1" class="edge">
<title>Node2&#45;&gt;Node1</title>
<path fill="none" stroke="black" d="M54.55,-18.24C84.64,-18.24 130.23,-18.24 163.9,-18.24"/>
<polygon fill="black" stroke="black" points="54.22,-14.74 44.22,-18.24 54.22,-21.74 54.22,-14.74"/>
</g>
<!-- Node1&#45;&gt;Node2 -->
<g id="edge2" class="edge">
<title>Node1&#45;&gt;Node2</title>
<path fill="none" stroke="darkgreen" stroke-dasharray="5,2" d="M172.17,-8.73C163.65,-6.86 154.55,-5.19 146,-4.24 108.9,-0.1 98.78,2.17 62,-4.24 56.05,-5.27 49.8,-7.13 44.1,-9.17"/>
<text text-anchor="middle" x="104" y="-7.24" font-family="Helvetica,sans-Serif" font-size="10.00">list_operate.scad</text>
</g>
</g>
</svg>
