<?xml version="1.0" encoding="UTF-8" standalone="no"?>
<!DOCTYPE svg PUBLIC "-//W3C//DTD SVG 1.1//EN"
 "http://www.w3.org/Graphics/SVG/1.1/DTD/svg11.dtd">
<!-- Generated by graphviz version 2.43.0 (0)
 -->
<!-- Title: Common Pages: 1 -->
<svg width="311pt" height="35pt"
 viewBox="0.00 0.00 311.00 34.83" xmlns="http://www.w3.org/2000/svg" xmlns:xlink="http://www.w3.org/1999/xlink">
<g id="graph0" class="graph" transform="scale(1 1) rotate(0) translate(4 30.83)">
<title>Common</title>
<polygon fill="white" stroke="transparent" points="-4,4 -4,-30.83 307,-30.83 307,4 -4,4"/>
<!-- Node1 -->
<g id="node1" class="node">
<title>Node1</title>
<g id="a_node1"><a xlink:title="Common design tools and workflow utilities.">
<polygon fill="#bfbfbf" stroke="black" points="139,-26.83 78,-26.83 78,-7.83 139,-7.83 139,-26.83"/>
<text text-anchor="middle" x="108.5" y="-14.83" font-family="Helvetica,sans-Serif" font-size="10.00">Common</text>
</a>
</g>
</g>
<!-- Node3 -->
<g id="node2" class="node">
<title>Node3</title>
<g id="a_node2"><a xlink:href="group__tools__common__polytope.html" target="_top" xlink:title="Polygon and polyhedron tools.">
<polygon fill="white" stroke="black" points="303,-26.83 244,-26.83 244,-7.83 303,-7.83 303,-26.83"/>
<text text-anchor="middle" x="273.5" y="-14.83" font-family="Helvetica,sans-Serif" font-size="10.00">Polytope</text>
</a>
</g>
</g>
<!-- Node1&#45;&gt;Node3 -->
<g id="edge2" class="edge">
<title>Node1&#45;&gt;Node3</title>
<path fill="none" stroke="black" d="M149.3,-17.33C178.52,-17.33 217.52,-17.33 243.75,-17.33"/>
<polygon fill="black" stroke="black" points="149.02,-13.83 139.02,-17.33 149.02,-20.83 149.02,-13.83"/>
</g>
<!-- Node1&#45;&gt;Node3 -->
<g id="edge3" class="edge">
<title>Node1&#45;&gt;Node3</title>
<path fill="none" stroke="darkgreen" stroke-dasharray="5,2" d="M136.83,-7.83C143.36,-5.96 150.36,-4.29 157,-3.33 187.35,1.05 195.66,1.14 226,-3.33 232.51,-4.29 239.36,-5.96 245.76,-7.83"/>
<text text-anchor="middle" x="191.5" y="-6.33" font-family="Helvetica,sans-Serif" font-size="10.00">polytope.scad</text>
</g>
<!-- Node2 -->
<g id="node3" class="node">
<title>Node2</title>
<g id="a_node3"><a xlink:href="group__tools.html" target="_top" xlink:title="Design workflow tools and design utilities.">
<polygon fill="white" stroke="black" points="41,-26.83 0,-26.83 0,-7.83 41,-7.83 41,-26.83"/>
<text text-anchor="middle" x="20.5" y="-14.83" font-family="Helvetica,sans-Serif" font-size="10.00">Tools</text>
</a>
</g>
</g>
<!-- Node2&#45;&gt;Node1 -->
<g id="edge1" class="edge">
<title>Node2&#45;&gt;Node1</title>
<path fill="none" stroke="black" d="M51.09,-17.33C59.77,-17.33 69.25,-17.33 77.93,-17.33"/>
<polygon fill="black" stroke="black" points="51.01,-13.83 41.01,-17.33 51.01,-20.83 51.01,-13.83"/>
</g>
</g>
</svg>
