<?xml version="1.0" encoding="UTF-8" standalone="no"?>
<!DOCTYPE svg PUBLIC "-//W3C//DTD SVG 1.1//EN"
 "http://www.w3.org/Graphics/SVG/1.1/DTD/svg11.dtd">
<!-- Generated by graphviz version 2.43.0 (0)
 -->
<!-- Title: Button cell Pages: 1 -->
<svg width="224pt" height="34pt"
 viewBox="0.00 0.00 224.00 34.35" xmlns="http://www.w3.org/2000/svg" xmlns:xlink="http://www.w3.org/1999/xlink">
<g id="graph0" class="graph" transform="scale(1 1) rotate(0) translate(4 30.35)">
<title>Button cell</title>
<polygon fill="white" stroke="transparent" points="-4,4 -4,-30.35 220,-30.35 220,4 -4,4"/>
<!-- Node2 -->
<g id="node1" class="node">
<title>Node2</title>
<g id="a_node1"><a xlink:href="group__database__component__battery.html" target="_top" xlink:title="Electric battery specifications.">
<polygon fill="white" stroke="black" points="53,-26.35 0,-26.35 0,-7.35 53,-7.35 53,-26.35"/>
<text text-anchor="middle" x="26.5" y="-14.35" font-family="Helvetica,sans-Serif" font-size="10.00">Battery</text>
</a>
</g>
</g>
<!-- Node1 -->
<g id="node2" class="node">
<title>Node1</title>
<g id="a_node2"><a xlink:title="Button cell batteries data table.">
<polygon fill="#bfbfbf" stroke="black" points="216,-26.35 147,-26.35 147,-7.35 216,-7.35 216,-26.35"/>
<text text-anchor="middle" x="181.5" y="-14.35" font-family="Helvetica,sans-Serif" font-size="10.00">Button cell</text>
</a>
</g>
</g>
<!-- Node2&#45;&gt;Node1 -->
<g id="edge1" class="edge">
<title>Node2&#45;&gt;Node1</title>
<path fill="none" stroke="black" d="M63.35,-16.85C88.55,-16.85 122.04,-16.85 146.75,-16.85"/>
<polygon fill="black" stroke="black" points="63.11,-13.35 53.11,-16.85 63.11,-20.35 63.11,-13.35"/>
</g>
<!-- Node1&#45;&gt;Node2 -->
<g id="edge2" class="edge">
<title>Node1&#45;&gt;Node2</title>
<path fill="none" stroke="darkgreen" stroke-dasharray="5,2" d="M150.82,-7.35C143.74,-5.48 136.16,-3.81 129,-2.85 103.45,0.56 96.47,1.15 71,-2.85 64.89,-3.81 58.46,-5.49 52.48,-7.35"/>
<text text-anchor="middle" x="100" y="-5.85" font-family="Helvetica,sans-Serif" font-size="10.00">button.scad</text>
</g>
</g>
</svg>
