<?xml version="1.0" encoding="UTF-8" standalone="no"?>
<!DOCTYPE svg PUBLIC "-//W3C//DTD SVG 1.1//EN"
 "http://www.w3.org/Graphics/SVG/1.1/DTD/svg11.dtd">
<!-- Generated by graphviz version 2.43.0 (0)
 -->
<!-- Title: table_get_value Pages: 1 -->
<svg width="716pt" height="123pt"
 viewBox="0.00 0.00 716.00 123.00" xmlns="http://www.w3.org/2000/svg" xmlns:xlink="http://www.w3.org/1999/xlink">
<g id="graph0" class="graph" transform="scale(1 1) rotate(0) translate(4 119)">
<title>table_get_value</title>
<polygon fill="white" stroke="transparent" points="-4,4 -4,-119 712,-119 712,4 -4,4"/>
<!-- Node1 -->
<g id="node1" class="node">
<title>Node1</title>
<g id="a_node1"><a xlink:title="Get the table cell value for a specified row and column identifier.">
<polygon fill="#bfbfbf" stroke="black" points="613,-38.5 613,-57.5 708,-57.5 708,-38.5 613,-38.5"/>
<text text-anchor="middle" x="660.5" y="-45.5" font-family="Helvetica,sans-Serif" font-size="10.00">table_get_value</text>
</a>
</g>
</g>
<!-- Node2 -->
<g id="node2" class="node">
<title>Node2</title>
<g id="a_node2"><a xlink:href="group__shapes__polyhedron__db.html#gae2635420611b120f6f9332ae9fd3c3d1" target="_top" xlink:title="Construct a named polyhedron.">
<polygon fill="white" stroke="black" points="471,-76.5 471,-95.5 577,-95.5 577,-76.5 471,-76.5"/>
<text text-anchor="middle" x="524" y="-83.5" font-family="Helvetica,sans-Serif" font-size="10.00">ph_db_polyhedron</text>
</a>
</g>
</g>
<!-- Node1&#45;&gt;Node2 -->
<g id="edge1" class="edge">
<title>Node1&#45;&gt;Node2</title>
<path fill="none" stroke="midnightblue" d="M615.9,-60.32C597.42,-65.54 576.21,-71.53 558.93,-76.41"/>
<polygon fill="midnightblue" stroke="midnightblue" points="616.89,-63.68 625.56,-57.59 614.99,-56.94 616.89,-63.68"/>
</g>
<!-- Node7 -->
<g id="node7" class="node">
<title>Node7</title>
<g id="a_node7"><a xlink:href="group__datatypes__table.html#gab0c2216f9d2258132556413c9a4317e5" target="_top" xlink:title="Dump a table to the console.">
<polygon fill="white" stroke="black" points="487,-38.5 487,-57.5 561,-57.5 561,-38.5 487,-38.5"/>
<text text-anchor="middle" x="524" y="-45.5" font-family="Helvetica,sans-Serif" font-size="10.00">table_dump</text>
</a>
</g>
</g>
<!-- Node1&#45;&gt;Node7 -->
<g id="edge6" class="edge">
<title>Node1&#45;&gt;Node7</title>
<path fill="none" stroke="midnightblue" d="M602.78,-48C588.78,-48 574.15,-48 561.4,-48"/>
<polygon fill="midnightblue" stroke="midnightblue" points="602.84,-51.5 612.84,-48 602.84,-44.5 602.84,-51.5"/>
</g>
<!-- Node8 -->
<g id="node8" class="node">
<title>Node8</title>
<g id="a_node8"><a xlink:href="group__datatypes__table.html#ga8d212217f9acb803e3107f488d5523e6" target="_top" xlink:title="Write formatted map entries to the console.">
<polygon fill="white" stroke="black" points="488.5,-0.5 488.5,-19.5 559.5,-19.5 559.5,-0.5 488.5,-0.5"/>
<text text-anchor="middle" x="524" y="-7.5" font-family="Helvetica,sans-Serif" font-size="10.00">table_write</text>
</a>
</g>
</g>
<!-- Node1&#45;&gt;Node8 -->
<g id="edge7" class="edge">
<title>Node1&#45;&gt;Node8</title>
<path fill="none" stroke="midnightblue" d="M615.9,-35.68C597.42,-30.46 576.21,-24.47 558.93,-19.59"/>
<polygon fill="midnightblue" stroke="midnightblue" points="614.99,-39.06 625.56,-38.41 616.89,-32.32 614.99,-39.06"/>
</g>
<!-- Node3 -->
<g id="node3" class="node">
<title>Node3</title>
<g id="a_node3"><a xlink:href="group__shapes__select__common__3d.html#ga3fd7f214eff2f5935ad1bb56415a4aaf" target="_top" xlink:title="Select configure and construct one of the available 3d shapes.">
<polygon fill="white" stroke="black" points="289,-76.5 289,-95.5 435,-95.5 435,-76.5 289,-76.5"/>
<text text-anchor="middle" x="362" y="-83.5" font-family="Helvetica,sans-Serif" font-size="10.00">select_common_3d_shape</text>
</a>
</g>
</g>
<!-- Node2&#45;&gt;Node3 -->
<g id="edge2" class="edge">
<title>Node2&#45;&gt;Node3</title>
<path fill="none" stroke="midnightblue" d="M460.35,-86C452.12,-86 443.63,-86 435.26,-86"/>
<polygon fill="midnightblue" stroke="midnightblue" points="460.61,-89.5 470.61,-86 460.61,-82.5 460.61,-89.5"/>
</g>
<!-- Node4 -->
<g id="node4" class="node">
<title>Node4</title>
<g id="a_node4"><a xlink:href="group__parts__3d__enclosure__project__box__rectangle.html#ga24cdfe5fd4bb74b75409d9afdbe1f0c0" target="_top" xlink:title="A rectangular box maker for project boxes, enclosures and housings.">
<polygon fill="white" stroke="black" points="128,-76.5 128,-95.5 253,-95.5 253,-76.5 128,-76.5"/>
<text text-anchor="middle" x="190.5" y="-83.5" font-family="Helvetica,sans-Serif" font-size="10.00">project_box_rectangle</text>
</a>
</g>
</g>
<!-- Node3&#45;&gt;Node4 -->
<g id="edge3" class="edge">
<title>Node3&#45;&gt;Node4</title>
<path fill="none" stroke="midnightblue" d="M278.62,-86C270.07,-86 261.49,-86 253.22,-86"/>
<polygon fill="midnightblue" stroke="midnightblue" points="278.63,-89.5 288.63,-86 278.63,-82.5 278.63,-89.5"/>
</g>
<!-- Node5 -->
<g id="node5" class="node">
<title>Node5</title>
<g id="a_node5"><a xlink:href="group__parts__3d__computer__pcie__expansion.html#gab6fb1c9f8f6550633467f4ec0bd3f983" target="_top" xlink:title="Generate a PCI Express expansion open chassis or closed enclosure.">
<polygon fill="white" stroke="black" points="0,-95.5 0,-114.5 92,-114.5 92,-95.5 0,-95.5"/>
<text text-anchor="middle" x="46" y="-102.5" font-family="Helvetica,sans-Serif" font-size="10.00">pcie_expansion</text>
</a>
</g>
</g>
<!-- Node4&#45;&gt;Node5 -->
<g id="edge4" class="edge">
<title>Node4&#45;&gt;Node5</title>
<path fill="none" stroke="midnightblue" d="M117.9,-95.55C109.08,-96.72 100.28,-97.9 92.01,-99"/>
<polygon fill="midnightblue" stroke="midnightblue" points="118.38,-99.01 127.83,-94.22 117.45,-92.08 118.38,-99.01"/>
</g>
<!-- Node6 -->
<g id="node6" class="node">
<title>Node6</title>
<g id="a_node6"><a xlink:href="group__parts__3d__enclosure__power__strip.html#ga33509a1811b27fe7f3687957d4d32460" target="_top" xlink:title="A power strip generator for single gang electrical receptacles.">
<polygon fill="white" stroke="black" points="1,-57.5 1,-76.5 91,-76.5 91,-57.5 1,-57.5"/>
<text text-anchor="middle" x="46" y="-64.5" font-family="Helvetica,sans-Serif" font-size="10.00">power_strip_sg</text>
</a>
</g>
</g>
<!-- Node4&#45;&gt;Node6 -->
<g id="edge5" class="edge">
<title>Node4&#45;&gt;Node6</title>
<path fill="none" stroke="midnightblue" d="M117.65,-76.42C108.61,-75.22 99.59,-74.01 91.16,-72.89"/>
<polygon fill="midnightblue" stroke="midnightblue" points="117.45,-79.92 127.83,-77.78 118.38,-72.99 117.45,-79.92"/>
</g>
</g>
</svg>
