<?xml version="1.0" encoding="UTF-8" standalone="no"?>
<!DOCTYPE svg PUBLIC "-//W3C//DTD SVG 1.1//EN"
 "http://www.w3.org/Graphics/SVG/1.1/DTD/svg11.dtd">
<!-- Generated by graphviz version 2.43.0 (0)
 -->
<!-- Title: linear_lmxuu Pages: 1 -->
<svg width="205pt" height="104pt"
 viewBox="0.00 0.00 205.00 104.00" xmlns="http://www.w3.org/2000/svg" xmlns:xlink="http://www.w3.org/1999/xlink">
<g id="graph0" class="graph" transform="scale(1 1) rotate(0) translate(4 100)">
<title>linear_lmxuu</title>
<polygon fill="white" stroke="transparent" points="-4,4 -4,-100 201,-100 201,4 -4,4"/>
<!-- Node1 -->
<g id="node1" class="node">
<title>Node1</title>
<g id="a_node1"><a xlink:title="Linear motion bearing model.">
<polygon fill="#bfbfbf" stroke="black" points="0,-38.5 0,-57.5 80,-57.5 80,-38.5 0,-38.5"/>
<text text-anchor="middle" x="40" y="-45.5" font-family="Helvetica,sans-Serif" font-size="10.00">linear_lmxuu</text>
</a>
</g>
</g>
<!-- Node2 -->
<g id="node2" class="node">
<title>Node2</title>
<g id="a_node2"><a xlink:href="group__datatypes__table.html#ga311692917e3802691fe7a9e1ed8c41f7" target="_top" xlink:title="Test the existence of a table row identifier, table column identifier, or both.">
<polygon fill="white" stroke="black" points="116,-76.5 116,-95.5 197,-95.5 197,-76.5 116,-76.5"/>
<text text-anchor="middle" x="156.5" y="-83.5" font-family="Helvetica,sans-Serif" font-size="10.00">ctable_exists</text>
</a>
</g>
</g>
<!-- Node1&#45;&gt;Node2 -->
<g id="edge1" class="edge">
<title>Node1&#45;&gt;Node2</title>
<path fill="none" stroke="midnightblue" d="M69.89,-57.59C84.13,-62.31 101.5,-68.08 116.86,-73.18"/>
<polygon fill="midnightblue" stroke="midnightblue" points="116.02,-76.59 126.62,-76.41 118.23,-69.94 116.02,-76.59"/>
</g>
<!-- Node3 -->
<g id="node3" class="node">
<title>Node3</title>
<g id="a_node3"><a xlink:href="group__datatypes__table.html#gaee8b64344e9cf098ecb42613f0659d0d" target="_top" xlink:title="Get a row, a column, or a specific cell value from a table.">
<polygon fill="white" stroke="black" points="122.5,-38.5 122.5,-57.5 190.5,-57.5 190.5,-38.5 122.5,-38.5"/>
<text text-anchor="middle" x="156.5" y="-45.5" font-family="Helvetica,sans-Serif" font-size="10.00">ctable_get</text>
</a>
</g>
</g>
<!-- Node1&#45;&gt;Node3 -->
<g id="edge2" class="edge">
<title>Node1&#45;&gt;Node3</title>
<path fill="none" stroke="midnightblue" d="M80.08,-48C90.38,-48 101.56,-48 112.08,-48"/>
<polygon fill="midnightblue" stroke="midnightblue" points="112.31,-51.5 122.31,-48 112.31,-44.5 112.31,-51.5"/>
</g>
<!-- Node4 -->
<g id="node4" class="node">
<title>Node4</title>
<g id="a_node4"><a xlink:href="group__datatypes__list__operate.html#ga7b8e6f2bbfa72ae61e39377e5ca6b5be" target="_top" xlink:title="Select specified element from list or return a default.">
<polygon fill="white" stroke="black" points="127,-0.5 127,-19.5 186,-19.5 186,-0.5 127,-0.5"/>
<text text-anchor="middle" x="156.5" y="-7.5" font-family="Helvetica,sans-Serif" font-size="10.00">select_ci</text>
</a>
</g>
</g>
<!-- Node1&#45;&gt;Node4 -->
<g id="edge3" class="edge">
<title>Node1&#45;&gt;Node4</title>
<path fill="none" stroke="midnightblue" d="M69.89,-38.41C84.13,-33.69 101.5,-27.92 116.86,-22.82"/>
<polygon fill="midnightblue" stroke="midnightblue" points="118.23,-26.06 126.62,-19.59 116.02,-19.41 118.23,-26.06"/>
</g>
</g>
</svg>
