<?xml version="1.0" encoding="UTF-8" standalone="no"?>
<!DOCTYPE svg PUBLIC "-//W3C//DTD SVG 1.1//EN"
 "http://www.w3.org/Graphics/SVG/1.1/DTD/svg11.dtd">
<!-- Generated by graphviz version 2.43.0 (0)
 -->
<!-- Title: Fastener Pages: 1 -->
<svg width="348pt" height="216pt"
 viewBox="0.00 0.00 348.00 215.72" xmlns="http://www.w3.org/2000/svg" xmlns:xlink="http://www.w3.org/1999/xlink">
<g id="graph0" class="graph" transform="scale(1 1) rotate(0) translate(4 211.72)">
<title>Fastener</title>
<polygon fill="white" stroke="transparent" points="-4,4 -4,-211.72 344,-211.72 344,4 -4,4"/>
<!-- Node2 -->
<g id="node1" class="node">
<title>Node2</title>
<g id="a_node1"><a xlink:href="group__parts__3d.html" target="_top" xlink:title="3d parts, part generators, and small assemblies.">
<polygon fill="white" stroke="black" points="56,-116.42 0,-116.42 0,-97.42 56,-97.42 56,-116.42"/>
<text text-anchor="middle" x="28" y="-104.42" font-family="Helvetica,sans-Serif" font-size="10.00">3d Parts</text>
</a>
</g>
</g>
<!-- Node1 -->
<g id="node4" class="node">
<title>Node1</title>
<g id="a_node4"><a xlink:title="Fasteners, connectors, joiners, latches, and hinges.">
<polygon fill="#bfbfbf" stroke="black" points="151,-116.42 93,-116.42 93,-97.42 151,-97.42 151,-116.42"/>
<text text-anchor="middle" x="122" y="-104.42" font-family="Helvetica,sans-Serif" font-size="10.00">Fastener</text>
</a>
</g>
</g>
<!-- Node2&#45;&gt;Node1 -->
<g id="edge1" class="edge">
<title>Node2&#45;&gt;Node1</title>
<path fill="none" stroke="black" d="M66.23,-106.92C75.1,-106.92 84.42,-106.92 92.81,-106.92"/>
<polygon fill="black" stroke="black" points="66.11,-103.42 56.11,-106.92 66.11,-110.42 66.11,-103.42"/>
</g>
<!-- Node6 -->
<g id="node2" class="node">
<title>Node6</title>
<g id="a_node2"><a xlink:href="group__parts__3d__fastener__mounts.html" target="_top" xlink:title="Screw mounts tabs, mount slots, mount posts, etc.">
<polygon fill="white" stroke="black" points="331,-199.42 278,-199.42 278,-180.42 331,-180.42 331,-199.42"/>
<text text-anchor="middle" x="304.5" y="-187.42" font-family="Helvetica,sans-Serif" font-size="10.00">Mounts</text>
</a>
</g>
</g>
<!-- Node5 -->
<g id="node3" class="node">
<title>Node5</title>
<g id="a_node3"><a xlink:href="group__parts__3d__fastener__hinges.html" target="_top" xlink:title="Print&#45;in&#45;place hinge generators.">
<polygon fill="white" stroke="black" points="329.5,-151.42 279.5,-151.42 279.5,-132.42 329.5,-132.42 329.5,-151.42"/>
<text text-anchor="middle" x="304.5" y="-139.42" font-family="Helvetica,sans-Serif" font-size="10.00">Hinges</text>
</a>
</g>
</g>
<!-- Node1&#45;&gt;Node6 -->
<g id="edge5" class="edge">
<title>Node1&#45;&gt;Node6</title>
<path fill="none" stroke="black" d="M126.98,-126.39C132.44,-147.48 144.51,-180.09 169,-194.92 202.28,-215.08 249.16,-206.9 277.88,-198.72"/>
<polygon fill="black" stroke="black" points="130.37,-125.51 124.69,-116.57 123.55,-127.1 130.37,-125.51"/>
</g>
<!-- Node1&#45;&gt;Node6 -->
<g id="edge9" class="edge">
<title>Node1&#45;&gt;Node6</title>
<path fill="none" stroke="darkgreen" stroke-dasharray="5,2" d="M129.99,-116.72C138.15,-127.44 152.64,-144.36 169,-153.92 187.42,-164.69 244.37,-177.72 277.97,-184.78"/>
<text text-anchor="middle" x="210" y="-180.92" font-family="Helvetica,sans-Serif" font-size="10.00">mounts.scad</text>
</g>
<!-- Node1&#45;&gt;Node5 -->
<g id="edge4" class="edge">
<title>Node1&#45;&gt;Node5</title>
<path fill="none" stroke="black" d="M142.92,-122.65C150.63,-127.85 159.81,-133.04 169,-135.92 206.03,-147.52 251.59,-146.6 279.05,-144.52"/>
<polygon fill="black" stroke="black" points="144.79,-119.68 134.63,-116.67 140.7,-125.36 144.79,-119.68"/>
</g>
<!-- Node1&#45;&gt;Node5 -->
<g id="edge8" class="edge">
<title>Node1&#45;&gt;Node5</title>
<path fill="none" stroke="darkgreen" stroke-dasharray="5,2" d="M151.04,-108.62C177.19,-110.63 217.14,-114.79 251,-122.92 260.9,-125.3 271.51,-128.93 280.58,-132.37"/>
<text text-anchor="middle" x="210" y="-125.92" font-family="Helvetica,sans-Serif" font-size="10.00">hinges.scad</text>
</g>
<!-- Node3 -->
<g id="node5" class="node">
<title>Node3</title>
<g id="a_node5"><a xlink:href="group__parts__3d__fastener__catch__latch.html" target="_top" xlink:title="Catch latch generator.">
<polygon fill="white" stroke="black" points="340,-87.42 269,-87.42 269,-68.42 340,-68.42 340,-87.42"/>
<text text-anchor="middle" x="304.5" y="-75.42" font-family="Helvetica,sans-Serif" font-size="10.00">Catch latch</text>
</a>
</g>
</g>
<!-- Node1&#45;&gt;Node3 -->
<g id="edge2" class="edge">
<title>Node1&#45;&gt;Node3</title>
<path fill="none" stroke="black" d="M161.45,-100.75C193.23,-95.64 237.96,-88.45 268.7,-83.52"/>
<polygon fill="black" stroke="black" points="160.52,-97.35 151.2,-102.39 161.63,-104.26 160.52,-97.35"/>
</g>
<!-- Node1&#45;&gt;Node3 -->
<g id="edge6" class="edge">
<title>Node1&#45;&gt;Node3</title>
<path fill="none" stroke="darkgreen" stroke-dasharray="5,2" d="M131.73,-97.1C140.23,-88.32 154.04,-76.08 169,-70.92 201.49,-59.72 241.02,-63.69 268.79,-69.1"/>
<text text-anchor="middle" x="210" y="-73.92" font-family="Helvetica,sans-Serif" font-size="10.00">catch_latch.scad</text>
</g>
<!-- Node4 -->
<g id="node6" class="node">
<title>Node4</title>
<g id="a_node6"><a xlink:href="group__parts__3d__fastener__clamps.html" target="_top" xlink:title="Clamps, bushings, and grips for wires and hoses.">
<polygon fill="white" stroke="black" points="331,-28.42 278,-28.42 278,-9.42 331,-9.42 331,-28.42"/>
<text text-anchor="middle" x="304.5" y="-16.42" font-family="Helvetica,sans-Serif" font-size="10.00">Clamps</text>
</a>
</g>
</g>
<!-- Node1&#45;&gt;Node4 -->
<g id="edge3" class="edge">
<title>Node1&#45;&gt;Node4</title>
<path fill="none" stroke="black" d="M135.91,-89.46C144.31,-79.23 156.07,-66.81 169,-58.92 203.42,-37.92 249.55,-27.36 277.86,-22.51"/>
<polygon fill="black" stroke="black" points="133.11,-87.36 129.7,-97.39 138.62,-91.67 133.11,-87.36"/>
</g>
<!-- Node1&#45;&gt;Node4 -->
<g id="edge7" class="edge">
<title>Node1&#45;&gt;Node4</title>
<path fill="none" stroke="darkgreen" stroke-dasharray="5,2" d="M124.36,-97.27C127.76,-77.32 138.63,-31.87 169,-12.92 202.02,7.68 248.98,-1.06 277.78,-9.68"/>
<text text-anchor="middle" x="210" y="-15.92" font-family="Helvetica,sans-Serif" font-size="10.00">clamps.scad</text>
</g>
</g>
</svg>
