<?xml version="1.0" encoding="UTF-8" standalone="no"?>
<!DOCTYPE svg PUBLIC "-//W3C//DTD SVG 1.1//EN"
 "http://www.w3.org/Graphics/SVG/1.1/DTD/svg11.dtd">
<!-- Generated by graphviz version 2.43.0 (0)
 -->
<!-- Title: Maps Pages: 1 -->
<svg width="179pt" height="34pt"
 viewBox="0.00 0.00 179.00 34.27" xmlns="http://www.w3.org/2000/svg" xmlns:xlink="http://www.w3.org/1999/xlink">
<g id="graph0" class="graph" transform="scale(1 1) rotate(0) translate(4 30.27)">
<title>Maps</title>
<polygon fill="white" stroke="transparent" points="-4,4 -4,-30.27 175,-30.27 175,4 -4,4"/>
<!-- Node2 -->
<g id="node1" class="node">
<title>Node2</title>
<g id="a_node1"><a xlink:href="group__datatypes.html" target="_top" xlink:title="Data type identification and operations.">
<polygon fill="white" stroke="black" points="44,-26.27 0,-26.27 0,-7.27 44,-7.27 44,-26.27"/>
<text text-anchor="middle" x="22" y="-14.27" font-family="Helvetica,sans-Serif" font-size="10.00">Types</text>
</a>
</g>
</g>
<!-- Node1 -->
<g id="node2" class="node">
<title>Node1</title>
<g id="a_node2"><a xlink:title="Map data type and operations.">
<polygon fill="#bfbfbf" stroke="black" points="171,-26.27 128,-26.27 128,-7.27 171,-7.27 171,-26.27"/>
<text text-anchor="middle" x="149.5" y="-14.27" font-family="Helvetica,sans-Serif" font-size="10.00">Maps</text>
</a>
</g>
</g>
<!-- Node2&#45;&gt;Node1 -->
<g id="edge1" class="edge">
<title>Node2&#45;&gt;Node1</title>
<path fill="none" stroke="black" d="M54.28,-16.77C77.26,-16.77 107.85,-16.77 127.84,-16.77"/>
<polygon fill="black" stroke="black" points="54.01,-13.27 44.01,-16.77 54.01,-20.27 54.01,-13.27"/>
</g>
<!-- Node1&#45;&gt;Node2 -->
<g id="edge2" class="edge">
<title>Node1&#45;&gt;Node2</title>
<path fill="none" stroke="darkgreen" stroke-dasharray="5,2" d="M127.68,-7.7C122.05,-5.67 115.88,-3.8 110,-2.77 88.99,0.94 83.02,0.89 62,-2.77 56.05,-3.8 49.8,-5.66 44.1,-7.7"/>
<text text-anchor="middle" x="86" y="-5.77" font-family="Helvetica,sans-Serif" font-size="10.00">map.scad</text>
</g>
</g>
</svg>
