<?xml version="1.0" encoding="UTF-8" standalone="no"?>
<!DOCTYPE svg PUBLIC "-//W3C//DTD SVG 1.1//EN"
 "http://www.w3.org/Graphics/SVG/1.1/DTD/svg11.dtd">
<!-- Generated by graphviz version 2.43.0 (0)
 -->
<!-- Title: Scalar Operations Pages: 1 -->
<svg width="289pt" height="36pt"
 viewBox="0.00 0.00 289.00 36.33" xmlns="http://www.w3.org/2000/svg" xmlns:xlink="http://www.w3.org/1999/xlink">
<g id="graph0" class="graph" transform="scale(1 1) rotate(0) translate(4 32.33)">
<title>Scalar Operations</title>
<polygon fill="white" stroke="transparent" points="-4,4 -4,-32.33 285,-32.33 285,4 -4,4"/>
<!-- Node2 -->
<g id="node1" class="node">
<title>Node2</title>
<g id="a_node1"><a xlink:href="group__datatypes.html" target="_top" xlink:title="Data type identification and operations.">
<polygon fill="white" stroke="black" points="44,-28.33 0,-28.33 0,-9.33 44,-9.33 44,-28.33"/>
<text text-anchor="middle" x="22" y="-16.33" font-family="Helvetica,sans-Serif" font-size="10.00">Types</text>
</a>
</g>
</g>
<!-- Node1 -->
<g id="node2" class="node">
<title>Node1</title>
<g id="a_node2"><a xlink:title="Operations for scalar data types.">
<polygon fill="#bfbfbf" stroke="black" points="281,-28.33 178,-28.33 178,-9.33 281,-9.33 281,-28.33"/>
<text text-anchor="middle" x="229.5" y="-16.33" font-family="Helvetica,sans-Serif" font-size="10.00">Scalar Operations</text>
</a>
</g>
</g>
<!-- Node2&#45;&gt;Node1 -->
<g id="edge1" class="edge">
<title>Node2&#45;&gt;Node1</title>
<path fill="none" stroke="black" d="M54.57,-18.83C87.39,-18.83 139.26,-18.83 177.83,-18.83"/>
<polygon fill="black" stroke="black" points="54.22,-15.33 44.22,-18.83 54.22,-22.33 54.22,-15.33"/>
</g>
<!-- Node1&#45;&gt;Node2 -->
<g id="edge2" class="edge">
<title>Node1&#45;&gt;Node2</title>
<path fill="none" stroke="darkgreen" stroke-dasharray="5,2" d="M188.86,-9.32C179.46,-7.45 169.42,-5.78 160,-4.83 116.67,-0.45 104.91,2.64 62,-4.83 56.05,-5.87 49.8,-7.73 44.1,-9.77"/>
<text text-anchor="middle" x="111" y="-7.83" font-family="Helvetica,sans-Serif" font-size="10.00">scalar_operate.scad</text>
</g>
</g>
</svg>
