<?xml version="1.0" encoding="UTF-8" standalone="no"?>
<!DOCTYPE svg PUBLIC "-//W3C//DTD SVG 1.1//EN"
 "http://www.w3.org/Graphics/SVG/1.1/DTD/svg11.dtd">
<!-- Generated by graphviz version 2.43.0 (0)
 -->
<!-- Title: log_echo Pages: 1 -->
<svg width="211pt" height="104pt"
 viewBox="0.00 0.00 211.00 104.00" xmlns="http://www.w3.org/2000/svg" xmlns:xlink="http://www.w3.org/1999/xlink">
<g id="graph0" class="graph" transform="scale(1 1) rotate(0) translate(4 100)">
<title>log_echo</title>
<polygon fill="white" stroke="transparent" points="-4,4 -4,-100 207,-100 207,4 -4,4"/>
<!-- Node1 -->
<g id="node1" class="node">
<title>Node1</title>
<g id="a_node1"><a xlink:title="Output message to console.">
<polygon fill="#bfbfbf" stroke="black" points="143,-38.5 143,-57.5 203,-57.5 203,-38.5 143,-38.5"/>
<text text-anchor="middle" x="173" y="-45.5" font-family="Helvetica,sans-Serif" font-size="10.00">log_echo</text>
</a>
</g>
</g>
<!-- Node2 -->
<g id="node2" class="node">
<title>Node2</title>
<g id="a_node2"><a xlink:href="group__parts__2d__enclosure__box__finger__joint.html#gacc1bfb220bc3cfed46dcaa3b84898020" target="_top" xlink:title="Generate a 2D box design using screw&#45;based finger joint (box&#45;joint).">
<polygon fill="white" stroke="black" points="0,-76.5 0,-95.5 107,-95.5 107,-76.5 0,-76.5"/>
<text text-anchor="middle" x="53.5" y="-83.5" font-family="Helvetica,sans-Serif" font-size="10.00">box2d_finger_joint</text>
</a>
</g>
</g>
<!-- Node1&#45;&gt;Node2 -->
<g id="edge1" class="edge">
<title>Node1&#45;&gt;Node2</title>
<path fill="none" stroke="midnightblue" d="M133.31,-60.51C117.27,-65.7 98.96,-71.62 84.03,-76.45"/>
<polygon fill="midnightblue" stroke="midnightblue" points="134.52,-63.8 142.96,-57.39 132.36,-57.14 134.52,-63.8"/>
</g>
<!-- Node3 -->
<g id="node3" class="node">
<title>Node3</title>
<g id="a_node3"><a xlink:href="group__datatypes__table.html#gab0c2216f9d2258132556413c9a4317e5" target="_top" xlink:title="Dump a table to the console.">
<polygon fill="white" stroke="black" points="16.5,-38.5 16.5,-57.5 90.5,-57.5 90.5,-38.5 16.5,-38.5"/>
<text text-anchor="middle" x="53.5" y="-45.5" font-family="Helvetica,sans-Serif" font-size="10.00">table_dump</text>
</a>
</g>
</g>
<!-- Node1&#45;&gt;Node3 -->
<g id="edge2" class="edge">
<title>Node1&#45;&gt;Node3</title>
<path fill="none" stroke="midnightblue" d="M132.92,-48C119.33,-48 104.14,-48 90.78,-48"/>
<polygon fill="midnightblue" stroke="midnightblue" points="132.96,-51.5 142.96,-48 132.96,-44.5 132.96,-51.5"/>
</g>
<!-- Node4 -->
<g id="node4" class="node">
<title>Node4</title>
<g id="a_node4"><a xlink:href="group__datatypes__table.html#ga8d212217f9acb803e3107f488d5523e6" target="_top" xlink:title="Write formatted map entries to the console.">
<polygon fill="white" stroke="black" points="18,-0.5 18,-19.5 89,-19.5 89,-0.5 18,-0.5"/>
<text text-anchor="middle" x="53.5" y="-7.5" font-family="Helvetica,sans-Serif" font-size="10.00">table_write</text>
</a>
</g>
</g>
<!-- Node1&#45;&gt;Node4 -->
<g id="edge3" class="edge">
<title>Node1&#45;&gt;Node4</title>
<path fill="none" stroke="midnightblue" d="M133.31,-35.49C117.27,-30.3 98.96,-24.38 84.03,-19.55"/>
<polygon fill="midnightblue" stroke="midnightblue" points="132.36,-38.86 142.96,-38.61 134.52,-32.2 132.36,-38.86"/>
</g>
</g>
</svg>
