<?xml version="1.0" encoding="UTF-8" standalone="no"?>
<!DOCTYPE svg PUBLIC "-//W3C//DTD SVG 1.1//EN"
 "http://www.w3.org/Graphics/SVG/1.1/DTD/svg11.dtd">
<!-- Generated by graphviz version 2.43.0 (0)
 -->
<!-- Title: ellipsoid Pages: 1 -->
<svg width="645pt" height="104pt"
 viewBox="0.00 0.00 645.00 104.00" xmlns="http://www.w3.org/2000/svg" xmlns:xlink="http://www.w3.org/1999/xlink">
<g id="graph0" class="graph" transform="scale(1 1) rotate(0) translate(4 100)">
<title>ellipsoid</title>
<polygon fill="white" stroke="transparent" points="-4,4 -4,-100 641,-100 641,4 -4,4"/>
<!-- Node1 -->
<g id="node1" class="node">
<title>Node1</title>
<g id="a_node1"><a xlink:title="An ellipsoid.">
<polygon fill="#bfbfbf" stroke="black" points="579,-38.5 579,-57.5 637,-57.5 637,-38.5 579,-38.5"/>
<text text-anchor="middle" x="608" y="-45.5" font-family="Helvetica,sans-Serif" font-size="10.00">ellipsoid</text>
</a>
</g>
</g>
<!-- Node2 -->
<g id="node2" class="node">
<title>Node2</title>
<g id="a_node2"><a xlink:href="group__shapes__common__3d.html#ga3b0b3b2d184c8d771dbbf2463f5c4baf" target="_top" xlink:title="A sector of an ellipsoid.">
<polygon fill="white" stroke="black" points="473,-76.5 473,-95.5 541,-95.5 541,-76.5 473,-76.5"/>
<text text-anchor="middle" x="507" y="-83.5" font-family="Helvetica,sans-Serif" font-size="10.00">ellipsoid_s</text>
</a>
</g>
</g>
<!-- Node1&#45;&gt;Node2 -->
<g id="edge1" class="edge">
<title>Node1&#45;&gt;Node2</title>
<path fill="none" stroke="midnightblue" d="M572.44,-61.26C559.45,-66.25 544.93,-71.82 532.97,-76.41"/>
<polygon fill="midnightblue" stroke="midnightblue" points="573.94,-64.44 582.02,-57.59 571.43,-57.9 573.94,-64.44"/>
</g>
<!-- Node3 -->
<g id="node3" class="node">
<title>Node3</title>
<g id="a_node3"><a xlink:href="group__shapes__select__common__3d.html#ga3fd7f214eff2f5935ad1bb56415a4aaf" target="_top" xlink:title="Select configure and construct one of the available 3d shapes.">
<polygon fill="white" stroke="black" points="289,-57.5 289,-76.5 435,-76.5 435,-57.5 289,-57.5"/>
<text text-anchor="middle" x="362" y="-64.5" font-family="Helvetica,sans-Serif" font-size="10.00">select_common_3d_shape</text>
</a>
</g>
</g>
<!-- Node1&#45;&gt;Node3 -->
<g id="edge7" class="edge">
<title>Node1&#45;&gt;Node3</title>
<path fill="none" stroke="midnightblue" d="M568.52,-51C532.81,-53.78 478.73,-57.99 435.01,-61.39"/>
<polygon fill="midnightblue" stroke="midnightblue" points="568.83,-54.48 578.53,-50.22 568.29,-47.5 568.83,-54.48"/>
</g>
<!-- Node7 -->
<g id="node7" class="node">
<title>Node7</title>
<g id="a_node7"><a xlink:href="group__parts__3d__computer__pci__bracket.html#gaf56631cf80d8e5f0b77736b17b94ecd9" target="_top" xlink:title="PCI slot cover and adapter card bracket generator.">
<polygon fill="white" stroke="black" points="471,-0.5 471,-19.5 543,-19.5 543,-0.5 471,-0.5"/>
<text text-anchor="middle" x="507" y="-7.5" font-family="Helvetica,sans-Serif" font-size="10.00">pci_bracket</text>
</a>
</g>
</g>
<!-- Node1&#45;&gt;Node7 -->
<g id="edge6" class="edge">
<title>Node1&#45;&gt;Node7</title>
<path fill="none" stroke="midnightblue" d="M572.44,-34.74C559.45,-29.75 544.93,-24.18 532.97,-19.59"/>
<polygon fill="midnightblue" stroke="midnightblue" points="571.43,-38.1 582.02,-38.41 573.94,-31.56 571.43,-38.1"/>
</g>
<!-- Node2&#45;&gt;Node3 -->
<g id="edge2" class="edge">
<title>Node2&#45;&gt;Node3</title>
<path fill="none" stroke="midnightblue" d="M462.76,-80.25C453.86,-79.07 444.28,-77.8 434.68,-76.52"/>
<polygon fill="midnightblue" stroke="midnightblue" points="462.46,-83.75 472.83,-81.59 463.38,-76.81 462.46,-83.75"/>
</g>
<!-- Node4 -->
<g id="node4" class="node">
<title>Node4</title>
<g id="a_node4"><a xlink:href="group__parts__3d__enclosure__project__box__rectangle.html#ga24cdfe5fd4bb74b75409d9afdbe1f0c0" target="_top" xlink:title="A rectangular box maker for project boxes, enclosures and housings.">
<polygon fill="white" stroke="black" points="128,-57.5 128,-76.5 253,-76.5 253,-57.5 128,-57.5"/>
<text text-anchor="middle" x="190.5" y="-64.5" font-family="Helvetica,sans-Serif" font-size="10.00">project_box_rectangle</text>
</a>
</g>
</g>
<!-- Node3&#45;&gt;Node4 -->
<g id="edge3" class="edge">
<title>Node3&#45;&gt;Node4</title>
<path fill="none" stroke="midnightblue" d="M278.62,-67C270.07,-67 261.49,-67 253.22,-67"/>
<polygon fill="midnightblue" stroke="midnightblue" points="278.63,-70.5 288.63,-67 278.63,-63.5 278.63,-70.5"/>
</g>
<!-- Node5 -->
<g id="node5" class="node">
<title>Node5</title>
<g id="a_node5"><a xlink:href="group__parts__3d__computer__pcie__expansion.html#gab6fb1c9f8f6550633467f4ec0bd3f983" target="_top" xlink:title="Generate a PCI Express expansion open chassis or closed enclosure.">
<polygon fill="white" stroke="black" points="0,-76.5 0,-95.5 92,-95.5 92,-76.5 0,-76.5"/>
<text text-anchor="middle" x="46" y="-83.5" font-family="Helvetica,sans-Serif" font-size="10.00">pcie_expansion</text>
</a>
</g>
</g>
<!-- Node4&#45;&gt;Node5 -->
<g id="edge4" class="edge">
<title>Node4&#45;&gt;Node5</title>
<path fill="none" stroke="midnightblue" d="M117.9,-76.55C109.08,-77.72 100.28,-78.9 92.01,-80"/>
<polygon fill="midnightblue" stroke="midnightblue" points="118.38,-80.01 127.83,-75.22 117.45,-73.08 118.38,-80.01"/>
</g>
<!-- Node6 -->
<g id="node6" class="node">
<title>Node6</title>
<g id="a_node6"><a xlink:href="group__parts__3d__enclosure__power__strip.html#ga33509a1811b27fe7f3687957d4d32460" target="_top" xlink:title="A power strip generator for single gang electrical receptacles.">
<polygon fill="white" stroke="black" points="1,-38.5 1,-57.5 91,-57.5 91,-38.5 1,-38.5"/>
<text text-anchor="middle" x="46" y="-45.5" font-family="Helvetica,sans-Serif" font-size="10.00">power_strip_sg</text>
</a>
</g>
</g>
<!-- Node4&#45;&gt;Node6 -->
<g id="edge5" class="edge">
<title>Node4&#45;&gt;Node6</title>
<path fill="none" stroke="midnightblue" d="M117.65,-57.42C108.61,-56.22 99.59,-55.01 91.16,-53.89"/>
<polygon fill="midnightblue" stroke="midnightblue" points="117.45,-60.92 127.83,-58.78 118.38,-53.99 117.45,-60.92"/>
</g>
</g>
</svg>
