<?xml version="1.0" encoding="UTF-8" standalone="no"?>
<!DOCTYPE svg PUBLIC "-//W3C//DTD SVG 1.1//EN"
 "http://www.w3.org/Graphics/SVG/1.1/DTD/svg11.dtd">
<!-- Generated by graphviz version 2.43.0 (0)
 -->
<!-- Title: table_exists Pages: 1 -->
<svg width="705pt" height="85pt"
 viewBox="0.00 0.00 705.00 85.00" xmlns="http://www.w3.org/2000/svg" xmlns:xlink="http://www.w3.org/1999/xlink">
<g id="graph0" class="graph" transform="scale(1 1) rotate(0) translate(4 81)">
<title>table_exists</title>
<polygon fill="white" stroke="transparent" points="-4,4 -4,-81 701,-81 701,4 -4,4"/>
<!-- Node1 -->
<g id="node1" class="node">
<title>Node1</title>
<g id="a_node1"><a xlink:title="Test the existence of a table row identifier, table column identifier, or both.">
<polygon fill="#bfbfbf" stroke="black" points="621,-19.5 621,-38.5 697,-38.5 697,-19.5 621,-19.5"/>
<text text-anchor="middle" x="659" y="-26.5" font-family="Helvetica,sans-Serif" font-size="10.00">table_exists</text>
</a>
</g>
</g>
<!-- Node2 -->
<g id="node2" class="node">
<title>Node2</title>
<g id="a_node2"><a xlink:href="group__shapes__polyhedron__db.html#gae2635420611b120f6f9332ae9fd3c3d1" target="_top" xlink:title="Construct a named polyhedron.">
<polygon fill="white" stroke="black" points="475,-38.5 475,-57.5 581,-57.5 581,-38.5 475,-38.5"/>
<text text-anchor="middle" x="528" y="-45.5" font-family="Helvetica,sans-Serif" font-size="10.00">ph_db_polyhedron</text>
</a>
</g>
</g>
<!-- Node1&#45;&gt;Node2 -->
<g id="edge1" class="edge">
<title>Node1&#45;&gt;Node2</title>
<path fill="none" stroke="midnightblue" d="M610.54,-35.99C600.96,-37.4 590.83,-38.89 581.1,-40.33"/>
<polygon fill="midnightblue" stroke="midnightblue" points="611.3,-39.42 620.69,-34.5 610.28,-32.49 611.3,-39.42"/>
</g>
<!-- Node7 -->
<g id="node7" class="node">
<title>Node7</title>
<g id="a_node7"><a xlink:href="group__datatypes__table.html#ga7a45ee72b36421f4e73cfba4488f14be" target="_top" xlink:title="Dump table getter functions to the console.">
<polygon fill="white" stroke="black" points="471,-0.5 471,-19.5 585,-19.5 585,-0.5 471,-0.5"/>
<text text-anchor="middle" x="528" y="-7.5" font-family="Helvetica,sans-Serif" font-size="10.00">table_dump_getters</text>
</a>
</g>
</g>
<!-- Node1&#45;&gt;Node7 -->
<g id="edge6" class="edge">
<title>Node1&#45;&gt;Node7</title>
<path fill="none" stroke="midnightblue" d="M610.58,-22.02C602.4,-20.81 593.83,-19.55 585.43,-18.31"/>
<polygon fill="midnightblue" stroke="midnightblue" points="610.28,-25.51 620.69,-23.5 611.3,-18.58 610.28,-25.51"/>
</g>
<!-- Node3 -->
<g id="node3" class="node">
<title>Node3</title>
<g id="a_node3"><a xlink:href="group__shapes__select__common__3d.html#ga3fd7f214eff2f5935ad1bb56415a4aaf" target="_top" xlink:title="Select configure and construct one of the available 3d shapes.">
<polygon fill="white" stroke="black" points="289,-38.5 289,-57.5 435,-57.5 435,-38.5 289,-38.5"/>
<text text-anchor="middle" x="362" y="-45.5" font-family="Helvetica,sans-Serif" font-size="10.00">select_common_3d_shape</text>
</a>
</g>
</g>
<!-- Node2&#45;&gt;Node3 -->
<g id="edge2" class="edge">
<title>Node2&#45;&gt;Node3</title>
<path fill="none" stroke="midnightblue" d="M464.45,-48C454.88,-48 444.93,-48 435.18,-48"/>
<polygon fill="midnightblue" stroke="midnightblue" points="464.66,-51.5 474.66,-48 464.66,-44.5 464.66,-51.5"/>
</g>
<!-- Node4 -->
<g id="node4" class="node">
<title>Node4</title>
<g id="a_node4"><a xlink:href="group__parts__3d__enclosure__project__box__rectangle.html#ga24cdfe5fd4bb74b75409d9afdbe1f0c0" target="_top" xlink:title="A rectangular box maker for project boxes, enclosures and housings.">
<polygon fill="white" stroke="black" points="128,-38.5 128,-57.5 253,-57.5 253,-38.5 128,-38.5"/>
<text text-anchor="middle" x="190.5" y="-45.5" font-family="Helvetica,sans-Serif" font-size="10.00">project_box_rectangle</text>
</a>
</g>
</g>
<!-- Node3&#45;&gt;Node4 -->
<g id="edge3" class="edge">
<title>Node3&#45;&gt;Node4</title>
<path fill="none" stroke="midnightblue" d="M278.62,-48C270.07,-48 261.49,-48 253.22,-48"/>
<polygon fill="midnightblue" stroke="midnightblue" points="278.63,-51.5 288.63,-48 278.63,-44.5 278.63,-51.5"/>
</g>
<!-- Node5 -->
<g id="node5" class="node">
<title>Node5</title>
<g id="a_node5"><a xlink:href="group__parts__3d__computer__pcie__expansion.html#gab6fb1c9f8f6550633467f4ec0bd3f983" target="_top" xlink:title="Generate a PCI Express expansion open chassis or closed enclosure.">
<polygon fill="white" stroke="black" points="0,-57.5 0,-76.5 92,-76.5 92,-57.5 0,-57.5"/>
<text text-anchor="middle" x="46" y="-64.5" font-family="Helvetica,sans-Serif" font-size="10.00">pcie_expansion</text>
</a>
</g>
</g>
<!-- Node4&#45;&gt;Node5 -->
<g id="edge4" class="edge">
<title>Node4&#45;&gt;Node5</title>
<path fill="none" stroke="midnightblue" d="M117.9,-57.55C109.08,-58.72 100.28,-59.9 92.01,-61"/>
<polygon fill="midnightblue" stroke="midnightblue" points="118.38,-61.01 127.83,-56.22 117.45,-54.08 118.38,-61.01"/>
</g>
<!-- Node6 -->
<g id="node6" class="node">
<title>Node6</title>
<g id="a_node6"><a xlink:href="group__parts__3d__enclosure__power__strip.html#ga33509a1811b27fe7f3687957d4d32460" target="_top" xlink:title="A power strip generator for single gang electrical receptacles.">
<polygon fill="white" stroke="black" points="1,-19.5 1,-38.5 91,-38.5 91,-19.5 1,-19.5"/>
<text text-anchor="middle" x="46" y="-26.5" font-family="Helvetica,sans-Serif" font-size="10.00">power_strip_sg</text>
</a>
</g>
</g>
<!-- Node4&#45;&gt;Node6 -->
<g id="edge5" class="edge">
<title>Node4&#45;&gt;Node6</title>
<path fill="none" stroke="midnightblue" d="M117.65,-38.42C108.61,-37.22 99.59,-36.01 91.16,-34.89"/>
<polygon fill="midnightblue" stroke="midnightblue" points="117.45,-41.92 127.83,-39.78 118.38,-34.99 117.45,-41.92"/>
</g>
</g>
</svg>
