<?xml version="1.0" encoding="UTF-8" standalone="no"?>
<!DOCTYPE svg PUBLIC "-//W3C//DTD SVG 1.1//EN"
 "http://www.w3.org/Graphics/SVG/1.1/DTD/svg11.dtd">
<!-- Generated by graphviz version 2.43.0 (0)
 -->
<!-- Title: ph_db_polyhedron Pages: 1 -->
<svg width="245pt" height="294pt"
 viewBox="0.00 0.00 245.00 294.00" xmlns="http://www.w3.org/2000/svg" xmlns:xlink="http://www.w3.org/1999/xlink">
<g id="graph0" class="graph" transform="scale(1 1) rotate(0) translate(4 290)">
<title>ph_db_polyhedron</title>
<polygon fill="white" stroke="transparent" points="-4,4 -4,-290 241,-290 241,4 -4,4"/>
<!-- Node1 -->
<g id="node1" class="node">
<title>Node1</title>
<g id="a_node1"><a xlink:title="Construct a named polyhedron.">
<polygon fill="#bfbfbf" stroke="black" points="0,-133.5 0,-152.5 106,-152.5 106,-133.5 0,-133.5"/>
<text text-anchor="middle" x="53" y="-140.5" font-family="Helvetica,sans-Serif" font-size="10.00">ph_db_polyhedron</text>
</a>
</g>
</g>
<!-- Node2 -->
<g id="node2" class="node">
<title>Node2</title>
<g id="a_node2"><a xlink:href="group__datatypes__iterable__operate.html#ga3d37c2b0067d1661724bd89955c8f6ce" target="_top" xlink:title="Returns an element from an iterable if it exists, or a default value if not.">
<polygon fill="white" stroke="black" points="150,-266.5 150,-285.5 229,-285.5 229,-266.5 150,-266.5"/>
<text text-anchor="middle" x="189.5" y="-273.5" font-family="Helvetica,sans-Serif" font-size="10.00">defined_e_or</text>
</a>
</g>
</g>
<!-- Node1&#45;&gt;Node2 -->
<g id="edge1" class="edge">
<title>Node1&#45;&gt;Node2</title>
<path fill="none" stroke="midnightblue" d="M59.08,-152.63C70.88,-174.17 102.21,-226.71 142,-257 144.28,-258.73 146.73,-260.33 149.29,-261.81"/>
<polygon fill="midnightblue" stroke="midnightblue" points="147.72,-264.94 158.22,-266.34 150.89,-258.7 147.72,-264.94"/>
</g>
<!-- Node3 -->
<g id="node3" class="node">
<title>Node3</title>
<g id="a_node3"><a xlink:href="group__datatypes__iterable__operate.html#gaccab3e37e43cb1d882713b3f3d6d9e1b" target="_top" xlink:title="Return the first element of an iterable value.">
<polygon fill="white" stroke="black" points="172,-228.5 172,-247.5 207,-247.5 207,-228.5 172,-228.5"/>
<text text-anchor="middle" x="189.5" y="-235.5" font-family="Helvetica,sans-Serif" font-size="10.00">first</text>
</a>
</g>
</g>
<!-- Node1&#45;&gt;Node3 -->
<g id="edge2" class="edge">
<title>Node1&#45;&gt;Node3</title>
<path fill="none" stroke="midnightblue" d="M62.96,-152.54C78.04,-168.15 109.99,-199.37 142,-219 148.29,-222.86 155.51,-226.24 162.35,-229.05"/>
<polygon fill="midnightblue" stroke="midnightblue" points="161.36,-232.42 171.95,-232.72 163.86,-225.88 161.36,-232.42"/>
</g>
<!-- Node4 -->
<g id="node4" class="node">
<title>Node4</title>
<g id="a_node4"><a xlink:href="group__math__polytope.html#gac5d546b49b09d2da25a6a02da5ef2373" target="_top" xlink:title="Determine the bounding limits of a polytope.">
<polygon fill="white" stroke="black" points="143.5,-190.5 143.5,-209.5 235.5,-209.5 235.5,-190.5 143.5,-190.5"/>
<text text-anchor="middle" x="189.5" y="-197.5" font-family="Helvetica,sans-Serif" font-size="10.00">polytope_limits</text>
</a>
</g>
</g>
<!-- Node1&#45;&gt;Node4 -->
<g id="edge3" class="edge">
<title>Node1&#45;&gt;Node4</title>
<path fill="none" stroke="midnightblue" d="M76.01,-152.65C93.78,-160.4 119.45,-171.52 142,-181 146.28,-182.8 150.78,-184.67 155.24,-186.5"/>
<polygon fill="midnightblue" stroke="midnightblue" points="154.23,-189.87 164.81,-190.42 156.88,-183.39 154.23,-189.87"/>
</g>
<!-- Node5 -->
<g id="node5" class="node">
<title>Node5</title>
<g id="a_node5"><a xlink:href="group__math__linear__algebra.html#gac14f8e19291d8e58501461fc0c402310" target="_top" xlink:title="Scale all coordinates dimensions proportionately to fit inside a region.">
<polygon fill="white" stroke="black" points="161,-152.5 161,-171.5 218,-171.5 218,-152.5 161,-152.5"/>
<text text-anchor="middle" x="189.5" y="-159.5" font-family="Helvetica,sans-Serif" font-size="10.00">resize_p</text>
</a>
</g>
</g>
<!-- Node1&#45;&gt;Node5 -->
<g id="edge4" class="edge">
<title>Node1&#45;&gt;Node5</title>
<path fill="none" stroke="midnightblue" d="M106,-150.35C120.85,-152.44 136.74,-154.69 150.57,-156.64"/>
<polygon fill="midnightblue" stroke="midnightblue" points="150.3,-160.14 160.7,-158.07 151.28,-153.21 150.3,-160.14"/>
</g>
<!-- Node6 -->
<g id="node6" class="node">
<title>Node6</title>
<g id="a_node6"><a xlink:href="group__datatypes__iterable__operate.html#ga894d4bec62cc9cf38d5e099de3028c54" target="_top" xlink:title="Return the second element of an iterable value.">
<polygon fill="white" stroke="black" points="164,-114.5 164,-133.5 215,-133.5 215,-114.5 164,-114.5"/>
<text text-anchor="middle" x="189.5" y="-121.5" font-family="Helvetica,sans-Serif" font-size="10.00">second</text>
</a>
</g>
</g>
<!-- Node1&#45;&gt;Node6 -->
<g id="edge5" class="edge">
<title>Node1&#45;&gt;Node6</title>
<path fill="none" stroke="midnightblue" d="M106,-135.65C121.94,-133.4 139.09,-130.98 153.6,-128.93"/>
<polygon fill="midnightblue" stroke="midnightblue" points="154.23,-132.38 163.65,-127.51 153.26,-125.44 154.23,-132.38"/>
</g>
<!-- Node7 -->
<g id="node7" class="node">
<title>Node7</title>
<g id="a_node7"><a xlink:href="group__datatypes__table.html#ga67088801a97d5575ebef698f06e80096" target="_top" xlink:title="Test the existence of a table row identifier, table column identifier, or both.">
<polygon fill="white" stroke="black" points="151.5,-76.5 151.5,-95.5 227.5,-95.5 227.5,-76.5 151.5,-76.5"/>
<text text-anchor="middle" x="189.5" y="-83.5" font-family="Helvetica,sans-Serif" font-size="10.00">table_exists</text>
</a>
</g>
</g>
<!-- Node1&#45;&gt;Node7 -->
<g id="edge6" class="edge">
<title>Node1&#45;&gt;Node7</title>
<path fill="none" stroke="midnightblue" d="M76.01,-133.35C93.78,-125.6 119.45,-114.48 142,-105 146.28,-103.2 150.78,-101.33 155.24,-99.5"/>
<polygon fill="midnightblue" stroke="midnightblue" points="156.88,-102.61 164.81,-95.58 154.23,-96.13 156.88,-102.61"/>
</g>
<!-- Node8 -->
<g id="node8" class="node">
<title>Node8</title>
<g id="a_node8"><a xlink:href="group__datatypes__table.html#gaff59353c2a35021843d7a7f34d34eac9" target="_top" xlink:title="Get the table cell value for a specified row and column identifier.">
<polygon fill="white" stroke="black" points="142,-38.5 142,-57.5 237,-57.5 237,-38.5 142,-38.5"/>
<text text-anchor="middle" x="189.5" y="-45.5" font-family="Helvetica,sans-Serif" font-size="10.00">table_get_value</text>
</a>
</g>
</g>
<!-- Node1&#45;&gt;Node8 -->
<g id="edge7" class="edge">
<title>Node1&#45;&gt;Node8</title>
<path fill="none" stroke="midnightblue" d="M62.96,-133.46C78.04,-117.85 109.99,-86.63 142,-67 144.99,-65.17 148.19,-63.44 151.46,-61.83"/>
<polygon fill="midnightblue" stroke="midnightblue" points="153.07,-64.94 160.73,-57.63 150.18,-58.57 153.07,-64.94"/>
</g>
<!-- Node9 -->
<g id="node9" class="node">
<title>Node9</title>
<g id="a_node9"><a xlink:href="group__math__linear__algebra.html#gaeabe74699fd0a437bad9a1d442bfd111" target="_top" xlink:title="Translate all coordinates dimensions.">
<polygon fill="white" stroke="black" points="154,-0.5 154,-19.5 225,-19.5 225,-0.5 154,-0.5"/>
<text text-anchor="middle" x="189.5" y="-7.5" font-family="Helvetica,sans-Serif" font-size="10.00">translate_p</text>
</a>
</g>
</g>
<!-- Node1&#45;&gt;Node9 -->
<g id="edge8" class="edge">
<title>Node1&#45;&gt;Node9</title>
<path fill="none" stroke="midnightblue" d="M59.08,-133.37C70.88,-111.83 102.21,-59.29 142,-29 144.28,-27.27 146.73,-25.67 149.29,-24.19"/>
<polygon fill="midnightblue" stroke="midnightblue" points="150.89,-27.3 158.22,-19.66 147.72,-21.06 150.89,-27.3"/>
</g>
</g>
</svg>
