<?xml version="1.0" encoding="UTF-8" standalone="no"?>
<!DOCTYPE svg PUBLIC "-//W3C//DTD SVG 1.1//EN"
 "http://www.w3.org/Graphics/SVG/1.1/DTD/svg11.dtd">
<!-- Generated by graphviz version 2.43.0 (0)
 -->
<!-- Title: cone Pages: 1 -->
<svg width="519pt" height="209pt"
 viewBox="0.00 0.00 519.00 208.95" xmlns="http://www.w3.org/2000/svg" xmlns:xlink="http://www.w3.org/1999/xlink">
<g id="graph0" class="graph" transform="scale(1 1) rotate(0) translate(4 204.95)">
<title>cone</title>
<polygon fill="white" stroke="transparent" points="-4,4 -4,-204.95 515,-204.95 515,4 -4,4"/>
<!-- Node1 -->
<g id="node1" class="node">
<title>Node1</title>
<g id="a_node1"><a xlink:title="A cone.">
<polygon fill="#bfbfbf" stroke="black" points="471,-95.5 471,-114.5 511,-114.5 511,-95.5 471,-95.5"/>
<text text-anchor="middle" x="491" y="-102.5" font-family="Helvetica,sans-Serif" font-size="10.00">cone</text>
</a>
</g>
</g>
<!-- Node2 -->
<g id="node2" class="node">
<title>Node2</title>
<g id="a_node2"><a xlink:href="group__parts__3d__fastener__clamps.html#gad5d667c41776480785c62759c61a137e" target="_top" xlink:title="A clamp, bushing, and/or grip for wire, hose, and/or pipe wall penetrations.">
<polygon fill="white" stroke="black" points="159,-152.5 159,-171.5 222,-171.5 222,-152.5 159,-152.5"/>
<text text-anchor="middle" x="190.5" y="-159.5" font-family="Helvetica,sans-Serif" font-size="10.00">clamp_cg</text>
</a>
</g>
</g>
<!-- Node1&#45;&gt;Node2 -->
<g id="edge1" class="edge">
<title>Node1&#45;&gt;Node2</title>
<path fill="none" stroke="midnightblue" d="M471.89,-121.16C461.77,-129.2 448.5,-138.21 435,-143 362.08,-168.9 269.38,-167.53 222.16,-164.6"/>
<polygon fill="midnightblue" stroke="midnightblue" points="474.15,-123.84 479.59,-114.74 469.66,-118.46 474.15,-123.84"/>
</g>
<!-- Node3 -->
<g id="node3" class="node">
<title>Node3</title>
<g id="a_node3"><a xlink:href="group__parts__3d__computer__pcie__expansion.html#gab6fb1c9f8f6550633467f4ec0bd3f983" target="_top" xlink:title="Generate a PCI Express expansion open chassis or closed enclosure.">
<polygon fill="white" stroke="black" points="0,-152.5 0,-171.5 92,-171.5 92,-152.5 0,-152.5"/>
<text text-anchor="middle" x="46" y="-159.5" font-family="Helvetica,sans-Serif" font-size="10.00">pcie_expansion</text>
</a>
</g>
</g>
<!-- Node1&#45;&gt;Node3 -->
<g id="edge8" class="edge">
<title>Node1&#45;&gt;Node3</title>
<path fill="none" stroke="midnightblue" d="M479.41,-123.67C469.88,-138.52 454.4,-158.33 435,-168 314.7,-227.93 146.27,-190.81 77.78,-171.51"/>
<polygon fill="midnightblue" stroke="midnightblue" points="482.6,-125.16 484.8,-114.8 476.62,-121.53 482.6,-125.16"/>
</g>
<!-- Node4 -->
<g id="node4" class="node">
<title>Node4</title>
<g id="a_node4"><a xlink:href="group__parts__3d__enclosure__power__strip.html#ga33509a1811b27fe7f3687957d4d32460" target="_top" xlink:title="A power strip generator for single gang electrical receptacles.">
<polygon fill="white" stroke="black" points="1,-95.5 1,-114.5 91,-114.5 91,-95.5 1,-95.5"/>
<text text-anchor="middle" x="46" y="-102.5" font-family="Helvetica,sans-Serif" font-size="10.00">power_strip_sg</text>
</a>
</g>
</g>
<!-- Node1&#45;&gt;Node4 -->
<g id="edge9" class="edge">
<title>Node1&#45;&gt;Node4</title>
<path fill="none" stroke="midnightblue" d="M460.73,-105C384.86,-105 181.54,-105 91.25,-105"/>
<polygon fill="midnightblue" stroke="midnightblue" points="460.96,-108.5 470.96,-105 460.96,-101.5 460.96,-108.5"/>
</g>
<!-- Node5 -->
<g id="node5" class="node">
<title>Node5</title>
<g id="a_node5"><a xlink:href="group__parts__3d__fastener__hinges.html#ga7e350f2c55116094108b99dd8103fc04" target="_top" xlink:title="A print&#45;in&#45;place single&#45;fold hinge generator.">
<polygon fill="white" stroke="black" points="333,-0.5 333,-19.5 391,-19.5 391,-0.5 333,-0.5"/>
<text text-anchor="middle" x="362" y="-7.5" font-family="Helvetica,sans-Serif" font-size="10.00">hinge_sf</text>
</a>
</g>
</g>
<!-- Node1&#45;&gt;Node5 -->
<g id="edge4" class="edge">
<title>Node1&#45;&gt;Node5</title>
<path fill="none" stroke="midnightblue" d="M481.17,-86.23C472.03,-68.82 456.11,-43.48 435,-29 422.1,-20.15 405.31,-15.42 391.19,-12.9"/>
<polygon fill="midnightblue" stroke="midnightblue" points="478.17,-88.04 485.76,-95.43 484.43,-84.92 478.17,-88.04"/>
</g>
<!-- Node7 -->
<g id="node7" class="node">
<title>Node7</title>
<g id="a_node7"><a xlink:href="group__models__3d__misc__omdl__logo.html#gab176f64dad7e83d4fb056be44b71f630" target="_top" xlink:title="Standard omdl logo.">
<polygon fill="white" stroke="black" points="328,-38.5 328,-57.5 396,-57.5 396,-38.5 328,-38.5"/>
<text text-anchor="middle" x="362" y="-45.5" font-family="Helvetica,sans-Serif" font-size="10.00">omdl_logo</text>
</a>
</g>
</g>
<!-- Node1&#45;&gt;Node7 -->
<g id="edge6" class="edge">
<title>Node1&#45;&gt;Node7</title>
<path fill="none" stroke="midnightblue" d="M467.36,-89.89C457.66,-83.82 446.04,-77.08 435,-72 422.67,-66.33 408.61,-61.34 396.2,-57.39"/>
<polygon fill="midnightblue" stroke="midnightblue" points="465.69,-92.97 475.99,-95.43 469.47,-87.08 465.69,-92.97"/>
</g>
<!-- Node8 -->
<g id="node8" class="node">
<title>Node8</title>
<g id="a_node8"><a xlink:href="group__shapes__select__common__3d.html#ga3fd7f214eff2f5935ad1bb56415a4aaf" target="_top" xlink:title="Select configure and construct one of the available 3d shapes.">
<polygon fill="white" stroke="black" points="289,-114.5 289,-133.5 435,-133.5 435,-114.5 289,-114.5"/>
<text text-anchor="middle" x="362" y="-121.5" font-family="Helvetica,sans-Serif" font-size="10.00">select_common_3d_shape</text>
</a>
</g>
</g>
<!-- Node1&#45;&gt;Node8 -->
<g id="edge10" class="edge">
<title>Node1&#45;&gt;Node8</title>
<path fill="none" stroke="midnightblue" d="M460.96,-109.35C450.66,-110.89 438.62,-112.69 426.59,-114.49"/>
<polygon fill="midnightblue" stroke="midnightblue" points="461.61,-112.79 470.99,-107.84 460.58,-105.86 461.61,-112.79"/>
</g>
<!-- Node2&#45;&gt;Node3 -->
<g id="edge2" class="edge">
<title>Node2&#45;&gt;Node3</title>
<path fill="none" stroke="midnightblue" d="M148.9,-162C131.18,-162 110.34,-162 92.14,-162"/>
<polygon fill="midnightblue" stroke="midnightblue" points="148.93,-165.5 158.93,-162 148.93,-158.5 148.93,-165.5"/>
</g>
<!-- Node2&#45;&gt;Node4 -->
<g id="edge3" class="edge">
<title>Node2&#45;&gt;Node4</title>
<path fill="none" stroke="midnightblue" d="M149.3,-150.46C142.14,-148.16 134.81,-145.63 128,-143 105.98,-134.48 81.55,-122.68 65.34,-114.5"/>
<polygon fill="midnightblue" stroke="midnightblue" points="148.28,-153.81 158.87,-153.45 150.37,-147.13 148.28,-153.81"/>
</g>
<!-- Node6 -->
<g id="node6" class="node">
<title>Node6</title>
<g id="a_node6"><a xlink:href="group__parts__3d__fastener__hinges.html#ga1ffc82e0bbac466d1dc4fbe6c214b765" target="_top" xlink:title="A print&#45;in&#45;place bi&#45;fold hinge generator.">
<polygon fill="white" stroke="black" points="161,-0.5 161,-19.5 220,-19.5 220,-0.5 161,-0.5"/>
<text text-anchor="middle" x="190.5" y="-7.5" font-family="Helvetica,sans-Serif" font-size="10.00">hinge_bf</text>
</a>
</g>
</g>
<!-- Node5&#45;&gt;Node6 -->
<g id="edge5" class="edge">
<title>Node5&#45;&gt;Node6</title>
<path fill="none" stroke="midnightblue" d="M322.59,-10C291.5,-10 248.41,-10 220.25,-10"/>
<polygon fill="midnightblue" stroke="midnightblue" points="322.63,-13.5 332.63,-10 322.63,-6.5 322.63,-13.5"/>
</g>
<!-- Node7&#45;&gt;Node4 -->
<g id="edge7" class="edge">
<title>Node7&#45;&gt;Node4</title>
<path fill="none" stroke="midnightblue" d="M317.5,-48.81C270.21,-50.53 192.74,-55.83 128,-72 106.05,-77.48 82.21,-87.76 66.12,-95.4"/>
<polygon fill="midnightblue" stroke="midnightblue" points="317.81,-52.3 327.69,-48.47 317.58,-45.3 317.81,-52.3"/>
</g>
<!-- Node9 -->
<g id="node9" class="node">
<title>Node9</title>
<g id="a_node9"><a xlink:href="group__parts__3d__enclosure__project__box__rectangle.html#ga24cdfe5fd4bb74b75409d9afdbe1f0c0" target="_top" xlink:title="A rectangular box maker for project boxes, enclosures and housings.">
<polygon fill="white" stroke="black" points="128,-114.5 128,-133.5 253,-133.5 253,-114.5 128,-114.5"/>
<text text-anchor="middle" x="190.5" y="-121.5" font-family="Helvetica,sans-Serif" font-size="10.00">project_box_rectangle</text>
</a>
</g>
</g>
<!-- Node8&#45;&gt;Node9 -->
<g id="edge11" class="edge">
<title>Node8&#45;&gt;Node9</title>
<path fill="none" stroke="midnightblue" d="M278.62,-124C270.07,-124 261.49,-124 253.22,-124"/>
<polygon fill="midnightblue" stroke="midnightblue" points="278.63,-127.5 288.63,-124 278.63,-120.5 278.63,-127.5"/>
</g>
<!-- Node9&#45;&gt;Node3 -->
<g id="edge12" class="edge">
<title>Node9&#45;&gt;Node3</title>
<path fill="none" stroke="midnightblue" d="M143.85,-136.17C124.14,-141.43 101.43,-147.49 82.95,-152.41"/>
<polygon fill="midnightblue" stroke="midnightblue" points="144.78,-139.55 153.54,-133.59 142.98,-132.78 144.78,-139.55"/>
</g>
<!-- Node9&#45;&gt;Node4 -->
<g id="edge13" class="edge">
<title>Node9&#45;&gt;Node4</title>
<path fill="none" stroke="midnightblue" d="M117.65,-114.42C108.61,-113.22 99.59,-112.01 91.16,-110.89"/>
<polygon fill="midnightblue" stroke="midnightblue" points="117.45,-117.92 127.83,-115.78 118.38,-110.99 117.45,-117.92"/>
</g>
</g>
</svg>
