<?xml version="1.0" encoding="UTF-8" standalone="no"?>
<!DOCTYPE svg PUBLIC "-//W3C//DTD SVG 1.1//EN"
 "http://www.w3.org/Graphics/SVG/1.1/DTD/svg11.dtd">
<!-- Generated by graphviz version 2.43.0 (0)
 -->
<!-- Title: vol_to_origin Pages: 1 -->
<svg width="409pt" height="104pt"
 viewBox="0.00 0.00 409.00 104.00" xmlns="http://www.w3.org/2000/svg" xmlns:xlink="http://www.w3.org/1999/xlink">
<g id="graph0" class="graph" transform="scale(1 1) rotate(0) translate(4 100)">
<title>vol_to_origin</title>
<polygon fill="white" stroke="transparent" points="-4,4 -4,-100 405,-100 405,4 -4,4"/>
<!-- Node1 -->
<g id="node1" class="node">
<title>Node1</title>
<g id="a_node1"><a xlink:title="Convert line to vector by shifting it to the origin.">
<polygon fill="#bfbfbf" stroke="black" points="321,-38.5 321,-57.5 401,-57.5 401,-38.5 321,-38.5"/>
<text text-anchor="middle" x="361" y="-45.5" font-family="Helvetica,sans-Serif" font-size="10.00">vol_to_origin</text>
</a>
</g>
</g>
<!-- Node2 -->
<g id="node2" class="node">
<title>Node2</title>
<g id="a_node2"><a xlink:href="group__transforms__align.html#ga8f52a6a936d0f5e248f836d19df14a9f" target="_top" xlink:title="Orient a line or vector to a reference line or vector.">
<polygon fill="white" stroke="black" points="229,-38.5 229,-57.5 285,-57.5 285,-38.5 229,-38.5"/>
<text text-anchor="middle" x="257" y="-45.5" font-family="Helvetica,sans-Serif" font-size="10.00">orient_ll</text>
</a>
</g>
</g>
<!-- Node1&#45;&gt;Node2 -->
<g id="edge1" class="edge">
<title>Node1&#45;&gt;Node2</title>
<path fill="none" stroke="midnightblue" d="M310.65,-48C301.88,-48 293.05,-48 285.18,-48"/>
<polygon fill="midnightblue" stroke="midnightblue" points="310.86,-51.5 320.86,-48 310.86,-44.5 310.86,-51.5"/>
</g>
<!-- Node3 -->
<g id="node3" class="node">
<title>Node3</title>
<g id="a_node3"><a xlink:href="group__transforms__align.html#gac695554e76def13eeb5a15a349f5fa12" target="_top" xlink:title="Align a line or vector to a reference line or vector.">
<polygon fill="white" stroke="black" points="116,-76.5 116,-95.5 168,-95.5 168,-76.5 116,-76.5"/>
<text text-anchor="middle" x="142" y="-83.5" font-family="Helvetica,sans-Serif" font-size="10.00">align_ll</text>
</a>
</g>
</g>
<!-- Node2&#45;&gt;Node3 -->
<g id="edge2" class="edge">
<title>Node2&#45;&gt;Node3</title>
<path fill="none" stroke="midnightblue" d="M218.99,-60.45C202.39,-66.03 183.22,-72.47 168.3,-77.49"/>
<polygon fill="midnightblue" stroke="midnightblue" points="220.57,-63.61 228.93,-57.1 218.34,-56.97 220.57,-63.61"/>
</g>
<!-- Node5 -->
<g id="node5" class="node">
<title>Node5</title>
<g id="a_node5"><a xlink:href="group__tools__common__polytope.html#ga530c86f9c90ce074aa7adc29834f0539" target="_top" xlink:title="Assemble a polytope skeletal frame using child objects.">
<polygon fill="white" stroke="black" points="95,-38.5 95,-57.5 189,-57.5 189,-38.5 95,-38.5"/>
<text text-anchor="middle" x="142" y="-45.5" font-family="Helvetica,sans-Serif" font-size="10.00">polytope_frame</text>
</a>
</g>
</g>
<!-- Node2&#45;&gt;Node5 -->
<g id="edge4" class="edge">
<title>Node2&#45;&gt;Node5</title>
<path fill="none" stroke="midnightblue" d="M218.71,-48C209.29,-48 199.07,-48 189.27,-48"/>
<polygon fill="midnightblue" stroke="midnightblue" points="218.93,-51.5 228.93,-48 218.93,-44.5 218.93,-51.5"/>
</g>
<!-- Node6 -->
<g id="node6" class="node">
<title>Node6</title>
<g id="a_node6"><a xlink:href="group__tools__common__polytope.html#ga00b574079f19251be7281151d11db8fa" target="_top" xlink:title="Label the vertices, paths, and edges of a polytope.">
<polygon fill="white" stroke="black" points="91,-0.5 91,-19.5 193,-19.5 193,-0.5 91,-0.5"/>
<text text-anchor="middle" x="142" y="-7.5" font-family="Helvetica,sans-Serif" font-size="10.00">polytope_number</text>
</a>
</g>
</g>
<!-- Node2&#45;&gt;Node6 -->
<g id="edge5" class="edge">
<title>Node2&#45;&gt;Node6</title>
<path fill="none" stroke="midnightblue" d="M219.13,-35.6C203.63,-30.39 185.88,-24.42 171.42,-19.56"/>
<polygon fill="midnightblue" stroke="midnightblue" points="218.34,-39.03 228.93,-38.9 220.57,-32.39 218.34,-39.03"/>
</g>
<!-- Node4 -->
<g id="node4" class="node">
<title>Node4</title>
<g id="a_node4"><a xlink:href="group__transforms__align.html#ga8a1b75b5a53478f7ce1ca287cc479364" target="_top" xlink:title="Align an objects Cartesian axis to reference line or vector.">
<polygon fill="white" stroke="black" points="0,-76.5 0,-95.5 55,-95.5 55,-76.5 0,-76.5"/>
<text text-anchor="middle" x="27.5" y="-83.5" font-family="Helvetica,sans-Serif" font-size="10.00">align_al</text>
</a>
</g>
</g>
<!-- Node3&#45;&gt;Node4 -->
<g id="edge3" class="edge">
<title>Node3&#45;&gt;Node4</title>
<path fill="none" stroke="midnightblue" d="M105.52,-86C89.24,-86 70.27,-86 55.23,-86"/>
<polygon fill="midnightblue" stroke="midnightblue" points="105.75,-89.5 115.75,-86 105.75,-82.5 105.75,-89.5"/>
</g>
</g>
</svg>
