<?xml version="1.0" encoding="UTF-8" standalone="no"?>
<!DOCTYPE svg PUBLIC "-//W3C//DTD SVG 1.1//EN"
 "http://www.w3.org/Graphics/SVG/1.1/DTD/svg11.dtd">
<!-- Generated by graphviz version 2.43.0 (0)
 -->
<!-- Title: list_get_value Pages: 1 -->
<svg width="504pt" height="104pt"
 viewBox="0.00 0.00 504.00 104.00" xmlns="http://www.w3.org/2000/svg" xmlns:xlink="http://www.w3.org/1999/xlink">
<g id="graph0" class="graph" transform="scale(1 1) rotate(0) translate(4 100)">
<title>list_get_value</title>
<polygon fill="white" stroke="transparent" points="-4,4 -4,-100 500,-100 500,4 -4,4"/>
<!-- Node1 -->
<g id="node1" class="node">
<title>Node1</title>
<g id="a_node1"><a xlink:title="Return the value of an indexed list element with output defaults and list composition.">
<polygon fill="#bfbfbf" stroke="black" points="411,-57.5 411,-76.5 496,-76.5 496,-57.5 411,-57.5"/>
<text text-anchor="middle" x="453.5" y="-64.5" font-family="Helvetica,sans-Serif" font-size="10.00">list_get_value</text>
</a>
</g>
</g>
<!-- Node2 -->
<g id="node2" class="node">
<title>Node2</title>
<g id="a_node2"><a xlink:href="group__transforms__layout.html#gad8eb4ce3a4707e71e80f4f5c8c3faa32" target="_top" xlink:title="A transform sequence to place a child shape.">
<polygon fill="white" stroke="black" points="290.5,-76.5 290.5,-95.5 373.5,-95.5 373.5,-76.5 290.5,-76.5"/>
<text text-anchor="middle" x="332" y="-83.5" font-family="Helvetica,sans-Serif" font-size="10.00">layout_grid_p</text>
</a>
</g>
</g>
<!-- Node1&#45;&gt;Node2 -->
<g id="edge1" class="edge">
<title>Node1&#45;&gt;Node2</title>
<path fill="none" stroke="midnightblue" d="M400.68,-75.24C391.68,-76.67 382.42,-78.14 373.76,-79.52"/>
<polygon fill="midnightblue" stroke="midnightblue" points="401.38,-78.67 410.7,-73.65 400.28,-71.76 401.38,-78.67"/>
</g>
<!-- Node3 -->
<g id="node3" class="node">
<title>Node3</title>
<g id="a_node3"><a xlink:href="group__transforms__layout.html#ga36a7e290a310a680c8e9834c8e10bec3" target="_top" xlink:title="A transform sequence to replicate and place a child shape.">
<polygon fill="white" stroke="black" points="289,-38.5 289,-57.5 375,-57.5 375,-38.5 289,-38.5"/>
<text text-anchor="middle" x="332" y="-45.5" font-family="Helvetica,sans-Serif" font-size="10.00">layout_grid_rp</text>
</a>
</g>
</g>
<!-- Node1&#45;&gt;Node3 -->
<g id="edge2" class="edge">
<title>Node1&#45;&gt;Node3</title>
<path fill="none" stroke="midnightblue" d="M400.59,-58.75C392.17,-57.41 383.54,-56.03 375.38,-54.74"/>
<polygon fill="midnightblue" stroke="midnightblue" points="400.28,-62.24 410.7,-60.35 401.38,-55.33 400.28,-62.24"/>
</g>
<!-- Node4 -->
<g id="node4" class="node">
<title>Node4</title>
<g id="a_node4"><a xlink:href="group__parts__2d__enclosure__box__finger__joint.html#gacc1bfb220bc3cfed46dcaa3b84898020" target="_top" xlink:title="Generate a 2D box design using screw&#45;based finger joint (box&#45;joint).">
<polygon fill="white" stroke="black" points="137,-57.5 137,-76.5 244,-76.5 244,-57.5 137,-57.5"/>
<text text-anchor="middle" x="190.5" y="-64.5" font-family="Helvetica,sans-Serif" font-size="10.00">box2d_finger_joint</text>
</a>
</g>
</g>
<!-- Node3&#45;&gt;Node4 -->
<g id="edge3" class="edge">
<title>Node3&#45;&gt;Node4</title>
<path fill="none" stroke="midnightblue" d="M278.64,-55.13C267.38,-56.66 255.48,-58.29 244.21,-59.82"/>
<polygon fill="midnightblue" stroke="midnightblue" points="279.33,-58.57 288.77,-53.75 278.39,-51.63 279.33,-58.57"/>
</g>
<!-- Node5 -->
<g id="node5" class="node">
<title>Node5</title>
<g id="a_node5"><a xlink:href="group__parts__3d__enclosure__project__box__rectangle.html#ga24cdfe5fd4bb74b75409d9afdbe1f0c0" target="_top" xlink:title="A rectangular box maker for project boxes, enclosures and housings.">
<polygon fill="white" stroke="black" points="128,-19.5 128,-38.5 253,-38.5 253,-19.5 128,-19.5"/>
<text text-anchor="middle" x="190.5" y="-26.5" font-family="Helvetica,sans-Serif" font-size="10.00">project_box_rectangle</text>
</a>
</g>
</g>
<!-- Node3&#45;&gt;Node5 -->
<g id="edge4" class="edge">
<title>Node3&#45;&gt;Node5</title>
<path fill="none" stroke="midnightblue" d="M278.78,-40.89C270.42,-39.75 261.7,-38.56 253.15,-37.4"/>
<polygon fill="midnightblue" stroke="midnightblue" points="278.39,-44.37 288.77,-42.25 279.33,-37.43 278.39,-44.37"/>
</g>
<!-- Node6 -->
<g id="node6" class="node">
<title>Node6</title>
<g id="a_node6"><a xlink:href="group__parts__3d__computer__pcie__expansion.html#gab6fb1c9f8f6550633467f4ec0bd3f983" target="_top" xlink:title="Generate a PCI Express expansion open chassis or closed enclosure.">
<polygon fill="white" stroke="black" points="0,-38.5 0,-57.5 92,-57.5 92,-38.5 0,-38.5"/>
<text text-anchor="middle" x="46" y="-45.5" font-family="Helvetica,sans-Serif" font-size="10.00">pcie_expansion</text>
</a>
</g>
</g>
<!-- Node5&#45;&gt;Node6 -->
<g id="edge5" class="edge">
<title>Node5&#45;&gt;Node6</title>
<path fill="none" stroke="midnightblue" d="M117.9,-38.55C109.08,-39.72 100.28,-40.9 92.01,-42"/>
<polygon fill="midnightblue" stroke="midnightblue" points="118.38,-42.01 127.83,-37.22 117.45,-35.08 118.38,-42.01"/>
</g>
<!-- Node7 -->
<g id="node7" class="node">
<title>Node7</title>
<g id="a_node7"><a xlink:href="group__parts__3d__enclosure__power__strip.html#ga33509a1811b27fe7f3687957d4d32460" target="_top" xlink:title="A power strip generator for single gang electrical receptacles.">
<polygon fill="white" stroke="black" points="1,-0.5 1,-19.5 91,-19.5 91,-0.5 1,-0.5"/>
<text text-anchor="middle" x="46" y="-7.5" font-family="Helvetica,sans-Serif" font-size="10.00">power_strip_sg</text>
</a>
</g>
</g>
<!-- Node5&#45;&gt;Node7 -->
<g id="edge6" class="edge">
<title>Node5&#45;&gt;Node7</title>
<path fill="none" stroke="midnightblue" d="M117.65,-19.42C108.61,-18.22 99.59,-17.01 91.16,-15.89"/>
<polygon fill="midnightblue" stroke="midnightblue" points="117.45,-22.92 127.83,-20.78 118.38,-15.99 117.45,-22.92"/>
</g>
</g>
</svg>
