<?xml version="1.0" encoding="UTF-8" standalone="no"?>
<!DOCTYPE svg PUBLIC "-//W3C//DTD SVG 1.1//EN"
 "http://www.w3.org/Graphics/SVG/1.1/DTD/svg11.dtd">
<!-- Generated by graphviz version 2.43.0 (0)
 -->
<!-- Title: pg_rectangle Pages: 1 -->
<svg width="559pt" height="401pt"
 viewBox="0.00 0.00 559.00 401.05" xmlns="http://www.w3.org/2000/svg" xmlns:xlink="http://www.w3.org/1999/xlink">
<g id="graph0" class="graph" transform="scale(1 1) rotate(0) translate(4 397.05)">
<title>pg_rectangle</title>
<polygon fill="white" stroke="transparent" points="-4,4 -4,-397.05 555,-397.05 555,4 -4,4"/>
<!-- Node1 -->
<g id="node1" class="node">
<title>Node1</title>
<g id="a_node1"><a xlink:title="A polygon rectangle with vertex rounding.">
<polygon fill="#bfbfbf" stroke="black" points="471,-183.55 471,-202.55 551,-202.55 551,-183.55 471,-183.55"/>
<text text-anchor="middle" x="511" y="-190.55" font-family="Helvetica,sans-Serif" font-size="10.00">pg_rectangle</text>
</a>
</g>
</g>
<!-- Node2 -->
<g id="node2" class="node">
<title>Node2</title>
<g id="a_node2"><a xlink:href="group__parts__3d__fastener__catch__latch.html#ga26a9933aa6d33599daab1be8d632c430" target="_top" xlink:title="A catch latch generator with configurable profile.">
<polygon fill="white" stroke="black" points="326,-373.55 326,-392.55 398,-392.55 398,-373.55 326,-373.55"/>
<text text-anchor="middle" x="362" y="-380.55" font-family="Helvetica,sans-Serif" font-size="10.00">catch_latch</text>
</a>
</g>
</g>
<!-- Node1&#45;&gt;Node2 -->
<g id="edge1" class="edge">
<title>Node1&#45;&gt;Node2</title>
<path fill="none" stroke="midnightblue" d="M506.45,-212.71C499.21,-247.24 479.49,-318.91 435,-359.05 424.83,-368.23 411.04,-373.91 398.25,-377.42"/>
<polygon fill="midnightblue" stroke="midnightblue" points="509.89,-213.38 508.38,-202.89 503.02,-212.03 509.89,-213.38"/>
</g>
<!-- Node3 -->
<g id="node3" class="node">
<title>Node3</title>
<g id="a_node3"><a xlink:href="group__parts__3d__fastener__clamps.html#gac715fdab9961aff45be668fb23556835" target="_top" xlink:title="A one piece zip tie clamp to secure wires or provide strain relief.">
<polygon fill="white" stroke="black" points="151.5,-297.55 151.5,-316.55 229.5,-316.55 229.5,-297.55 151.5,-297.55"/>
<text text-anchor="middle" x="190.5" y="-304.55" font-family="Helvetica,sans-Serif" font-size="10.00">clamp_zt_1p</text>
</a>
</g>
</g>
<!-- Node1&#45;&gt;Node3 -->
<g id="edge2" class="edge">
<title>Node1&#45;&gt;Node3</title>
<path fill="none" stroke="midnightblue" d="M501.14,-211.99C489.47,-234.5 466.67,-271.15 435,-288.05 369.53,-322.99 279.78,-319.04 229.54,-313.04"/>
<polygon fill="midnightblue" stroke="midnightblue" points="504.41,-213.27 505.7,-202.76 498.13,-210.17 504.41,-213.27"/>
</g>
<!-- Node4 -->
<g id="node4" class="node">
<title>Node4</title>
<g id="a_node4"><a xlink:href="group__parts__3d__computer__pcie__expansion.html#gab6fb1c9f8f6550633467f4ec0bd3f983" target="_top" xlink:title="Generate a PCI Express expansion open chassis or closed enclosure.">
<polygon fill="white" stroke="black" points="0,-259.55 0,-278.55 92,-278.55 92,-259.55 0,-259.55"/>
<text text-anchor="middle" x="46" y="-266.55" font-family="Helvetica,sans-Serif" font-size="10.00">pcie_expansion</text>
</a>
</g>
</g>
<!-- Node1&#45;&gt;Node4 -->
<g id="edge14" class="edge">
<title>Node1&#45;&gt;Node4</title>
<path fill="none" stroke="midnightblue" d="M466.28,-205.1C456.07,-207.65 445.2,-210.14 435,-212.05 299.88,-237.43 263.34,-225.87 128,-250.05 113.5,-252.64 97.69,-256.18 83.92,-259.51"/>
<polygon fill="midnightblue" stroke="midnightblue" points="467.4,-208.43 476.22,-202.56 465.67,-201.65 467.4,-208.43"/>
</g>
<!-- Node5 -->
<g id="node5" class="node">
<title>Node5</title>
<g id="a_node5"><a xlink:href="group__parts__3d__fastener__hinges.html#ga7e350f2c55116094108b99dd8103fc04" target="_top" xlink:title="A print&#45;in&#45;place single&#45;fold hinge generator.">
<polygon fill="white" stroke="black" points="333,-259.55 333,-278.55 391,-278.55 391,-259.55 333,-259.55"/>
<text text-anchor="middle" x="362" y="-266.55" font-family="Helvetica,sans-Serif" font-size="10.00">hinge_sf</text>
</a>
</g>
</g>
<!-- Node1&#45;&gt;Node5 -->
<g id="edge4" class="edge">
<title>Node1&#45;&gt;Node5</title>
<path fill="none" stroke="midnightblue" d="M490.22,-209.1C475.64,-220.34 454.95,-235.07 435,-245.05 421.1,-252.01 404.71,-257.65 391.09,-261.71"/>
<polygon fill="midnightblue" stroke="midnightblue" points="492.75,-211.56 498.45,-202.63 488.43,-206.06 492.75,-211.56"/>
</g>
<!-- Node7 -->
<g id="node7" class="node">
<title>Node7</title>
<g id="a_node7"><a xlink:href="group__models__2d__joint__box__screw.html#ga78ef0c1346c6e79260781ee9a9fff0bf" target="_top" xlink:title="Create 2d edge profiles for screw and nut box joint construction.">
<polygon fill="white" stroke="black" points="308.5,-183.55 308.5,-202.55 415.5,-202.55 415.5,-183.55 308.5,-183.55"/>
<text text-anchor="middle" x="362" y="-190.55" font-family="Helvetica,sans-Serif" font-size="10.00">joint2d_box_screw</text>
</a>
</g>
</g>
<!-- Node1&#45;&gt;Node7 -->
<g id="edge6" class="edge">
<title>Node1&#45;&gt;Node7</title>
<path fill="none" stroke="midnightblue" d="M460.75,-193.05C446.29,-193.05 430.42,-193.05 415.75,-193.05"/>
<polygon fill="midnightblue" stroke="midnightblue" points="460.99,-196.55 470.99,-193.05 460.99,-189.55 460.99,-196.55"/>
</g>
<!-- Node9 -->
<g id="node9" class="node">
<title>Node9</title>
<g id="a_node9"><a xlink:href="group__models__2d__joint__dovetail.html#gadccba989c93e8e44be057de39d99758a" target="_top" xlink:title="Create 2D edge profiles for dovetail joint construction.">
<polygon fill="white" stroke="black" points="143,-335.55 143,-354.55 238,-354.55 238,-335.55 143,-335.55"/>
<text text-anchor="middle" x="190.5" y="-342.55" font-family="Helvetica,sans-Serif" font-size="10.00">joint2d_dovetail</text>
</a>
</g>
</g>
<!-- Node1&#45;&gt;Node9 -->
<g id="edge8" class="edge">
<title>Node1&#45;&gt;Node9</title>
<path fill="none" stroke="midnightblue" d="M504.13,-212.66C494.59,-240.74 472.9,-291.71 435,-316.05 375.36,-354.36 290.29,-355.1 238.11,-350.94"/>
<polygon fill="midnightblue" stroke="midnightblue" points="507.57,-213.39 507.29,-202.8 500.9,-211.25 507.57,-213.39"/>
</g>
<!-- Node10 -->
<g id="node10" class="node">
<title>Node10</title>
<g id="a_node10"><a xlink:href="group__models__3d__joint__dovetail__screw.html#ga20f61ef0d29434a144ec653c6320f77f" target="_top" xlink:title="Construct a 3d dovetail joint with optional screw and nut fastener.">
<polygon fill="white" stroke="black" points="297.5,-145.55 297.5,-164.55 426.5,-164.55 426.5,-145.55 297.5,-145.55"/>
<text text-anchor="middle" x="362" y="-152.55" font-family="Helvetica,sans-Serif" font-size="10.00">joint3d_dovetail_screw</text>
</a>
</g>
</g>
<!-- Node1&#45;&gt;Node10 -->
<g id="edge10" class="edge">
<title>Node1&#45;&gt;Node10</title>
<path fill="none" stroke="midnightblue" d="M463.15,-180.94C442.67,-175.65 419.01,-169.53 399.83,-164.57"/>
<polygon fill="midnightblue" stroke="midnightblue" points="462.35,-184.35 472.91,-183.46 464.1,-177.57 462.35,-184.35"/>
</g>
<!-- Node11 -->
<g id="node11" class="node">
<title>Node11</title>
<g id="a_node11"><a xlink:href="group__parts__3d__fastener__mounts.html#ga0cbac43259ec43fff7785057277bcef3" target="_top" xlink:title="A screw mount post with screw bore and optional fins.">
<polygon fill="white" stroke="black" points="308,-107.55 308,-126.55 416,-126.55 416,-107.55 308,-107.55"/>
<text text-anchor="middle" x="362" y="-114.55" font-family="Helvetica,sans-Serif" font-size="10.00">mount_screw_post</text>
</a>
</g>
</g>
<!-- Node1&#45;&gt;Node11 -->
<g id="edge11" class="edge">
<title>Node1&#45;&gt;Node11</title>
<path fill="none" stroke="midnightblue" d="M492.58,-176.62C478.17,-163.85 456.62,-146.6 435,-136.05 427.22,-132.25 418.57,-129.14 410.06,-126.62"/>
<polygon fill="midnightblue" stroke="midnightblue" points="490.43,-179.39 500.18,-183.53 495.14,-174.21 490.43,-179.39"/>
</g>
<!-- Node12 -->
<g id="node12" class="node">
<title>Node12</title>
<g id="a_node12"><a xlink:href="group__parts__3d__fastener__mounts.html#gae1cc60f3ff242fb07c5a50d34be8c051" target="_top" xlink:title="A mount tab with screw hole and support brace.">
<polygon fill="white" stroke="black" points="139,-3.55 139,-22.55 242,-22.55 242,-3.55 139,-3.55"/>
<text text-anchor="middle" x="190.5" y="-10.55" font-family="Helvetica,sans-Serif" font-size="10.00">mount_screw_tab</text>
</a>
</g>
</g>
<!-- Node1&#45;&gt;Node12 -->
<g id="edge12" class="edge">
<title>Node1&#45;&gt;Node12</title>
<path fill="none" stroke="midnightblue" d="M507.01,-173.31C500.63,-138.78 482.22,-67.97 435,-35.05 378.25,4.52 295.05,2.62 242.09,-3.98"/>
<polygon fill="midnightblue" stroke="midnightblue" points="503.62,-174.24 508.73,-183.52 510.52,-173.07 503.62,-174.24"/>
</g>
<!-- Node14 -->
<g id="node14" class="node">
<title>Node14</title>
<g id="a_node14"><a xlink:href="group__parts__3d__enclosure__project__box__rectangle.html#ga24cdfe5fd4bb74b75409d9afdbe1f0c0" target="_top" xlink:title="A rectangular box maker for project boxes, enclosures and housings.">
<polygon fill="white" stroke="black" points="128,-60.55 128,-79.55 253,-79.55 253,-60.55 128,-60.55"/>
<text text-anchor="middle" x="190.5" y="-67.55" font-family="Helvetica,sans-Serif" font-size="10.00">project_box_rectangle</text>
</a>
</g>
</g>
<!-- Node1&#45;&gt;Node14 -->
<g id="edge15" class="edge">
<title>Node1&#45;&gt;Node14</title>
<path fill="none" stroke="midnightblue" d="M505.58,-173.42C497.52,-142.82 477.2,-84.7 435,-60.05 365.4,-19.4 264.55,-44.79 217.5,-60.44"/>
<polygon fill="midnightblue" stroke="midnightblue" points="502.23,-174.46 508.02,-183.34 509.03,-172.79 502.23,-174.46"/>
</g>
<!-- Node15 -->
<g id="node15" class="node">
<title>Node15</title>
<g id="a_node15"><a xlink:href="group__shapes__select__common__2d.html#gadde46fda315aab438eda3f752fec2aed" target="_top" xlink:title="Select configure and construct one of the available 2d shapes.">
<polygon fill="white" stroke="black" points="289,-69.55 289,-88.55 435,-88.55 435,-69.55 289,-69.55"/>
<text text-anchor="middle" x="362" y="-76.55" font-family="Helvetica,sans-Serif" font-size="10.00">select_common_2d_shape</text>
</a>
</g>
</g>
<!-- Node1&#45;&gt;Node15 -->
<g id="edge18" class="edge">
<title>Node1&#45;&gt;Node15</title>
<path fill="none" stroke="midnightblue" d="M500.21,-174.38C487.9,-152.73 464.72,-117.53 435,-98.05 429.05,-94.15 422.34,-91.05 415.46,-88.59"/>
<polygon fill="midnightblue" stroke="midnightblue" points="497.21,-176.18 505.09,-183.27 503.35,-172.82 497.21,-176.18"/>
</g>
<!-- Node3&#45;&gt;Node4 -->
<g id="edge3" class="edge">
<title>Node3&#45;&gt;Node4</title>
<path fill="none" stroke="midnightblue" d="M143.85,-294.88C124.14,-289.62 101.43,-283.56 82.95,-278.64"/>
<polygon fill="midnightblue" stroke="midnightblue" points="142.98,-298.27 153.54,-297.46 144.78,-291.5 142.98,-298.27"/>
</g>
<!-- Node6 -->
<g id="node6" class="node">
<title>Node6</title>
<g id="a_node6"><a xlink:href="group__parts__3d__fastener__hinges.html#ga1ffc82e0bbac466d1dc4fbe6c214b765" target="_top" xlink:title="A print&#45;in&#45;place bi&#45;fold hinge generator.">
<polygon fill="white" stroke="black" points="161,-259.55 161,-278.55 220,-278.55 220,-259.55 161,-259.55"/>
<text text-anchor="middle" x="190.5" y="-266.55" font-family="Helvetica,sans-Serif" font-size="10.00">hinge_bf</text>
</a>
</g>
</g>
<!-- Node5&#45;&gt;Node6 -->
<g id="edge5" class="edge">
<title>Node5&#45;&gt;Node6</title>
<path fill="none" stroke="midnightblue" d="M322.59,-269.05C291.5,-269.05 248.41,-269.05 220.25,-269.05"/>
<polygon fill="midnightblue" stroke="midnightblue" points="322.63,-272.55 332.63,-269.05 322.63,-265.55 322.63,-272.55"/>
</g>
<!-- Node8 -->
<g id="node8" class="node">
<title>Node8</title>
<g id="a_node8"><a xlink:href="group__parts__2d__enclosure__box__finger__joint.html#gacc1bfb220bc3cfed46dcaa3b84898020" target="_top" xlink:title="Generate a 2D box design using screw&#45;based finger joint (box&#45;joint).">
<polygon fill="white" stroke="black" points="137,-136.55 137,-155.55 244,-155.55 244,-136.55 137,-136.55"/>
<text text-anchor="middle" x="190.5" y="-143.55" font-family="Helvetica,sans-Serif" font-size="10.00">box2d_finger_joint</text>
</a>
</g>
</g>
<!-- Node7&#45;&gt;Node8 -->
<g id="edge7" class="edge">
<title>Node7&#45;&gt;Node8</title>
<path fill="none" stroke="midnightblue" d="M314.53,-180.95C306.03,-178.69 297.24,-176.32 289,-174.05 267.27,-168.06 242.89,-161.06 223.95,-155.56"/>
<polygon fill="midnightblue" stroke="midnightblue" points="313.77,-184.36 324.33,-183.54 315.56,-177.6 313.77,-184.36"/>
</g>
<!-- Node9&#45;&gt;Node4 -->
<g id="edge9" class="edge">
<title>Node9&#45;&gt;Node4</title>
<path fill="none" stroke="midnightblue" d="M142.46,-332.21C137.49,-330.35 132.58,-328.3 128,-326.05 100.99,-312.79 73.06,-291.02 58.08,-278.58"/>
<polygon fill="midnightblue" stroke="midnightblue" points="141.43,-335.56 152.03,-335.53 143.73,-328.94 141.43,-335.56"/>
</g>
<!-- Node13 -->
<g id="node13" class="node">
<title>Node13</title>
<g id="a_node13"><a xlink:href="group__parts__3d__enclosure__power__strip.html#ga33509a1811b27fe7f3687957d4d32460" target="_top" xlink:title="A power strip generator for single gang electrical receptacles.">
<polygon fill="white" stroke="black" points="1,-32.55 1,-51.55 91,-51.55 91,-32.55 1,-32.55"/>
<text text-anchor="middle" x="46" y="-39.55" font-family="Helvetica,sans-Serif" font-size="10.00">power_strip_sg</text>
</a>
</g>
</g>
<!-- Node12&#45;&gt;Node13 -->
<g id="edge13" class="edge">
<title>Node12&#45;&gt;Node13</title>
<path fill="none" stroke="midnightblue" d="M132.56,-24.64C118.76,-27.45 104.21,-30.41 91.11,-33.07"/>
<polygon fill="midnightblue" stroke="midnightblue" points="133.34,-28.05 142.45,-22.63 131.95,-21.19 133.34,-28.05"/>
</g>
<!-- Node14&#45;&gt;Node4 -->
<g id="edge16" class="edge">
<title>Node14&#45;&gt;Node4</title>
<path fill="none" stroke="midnightblue" d="M169.32,-86.01C156.54,-96.75 140.18,-111.71 128,-127.05 92.01,-172.4 61.94,-235.65 51.21,-259.47"/>
<polygon fill="midnightblue" stroke="midnightblue" points="171.62,-88.65 177.13,-79.6 167.18,-83.24 171.62,-88.65"/>
</g>
<!-- Node14&#45;&gt;Node13 -->
<g id="edge17" class="edge">
<title>Node14&#45;&gt;Node13</title>
<path fill="none" stroke="midnightblue" d="M130.85,-58.53C117.57,-55.92 103.68,-53.19 91.12,-50.72"/>
<polygon fill="midnightblue" stroke="midnightblue" points="130.37,-62 140.86,-60.49 131.72,-55.13 130.37,-62"/>
</g>
<!-- Node15&#45;&gt;Node8 -->
<g id="edge19" class="edge">
<title>Node15&#45;&gt;Node8</title>
<path fill="none" stroke="midnightblue" d="M309.12,-91.41C302.28,-93.42 295.43,-95.65 289,-98.05 259.66,-109.02 227.38,-125.94 208.3,-136.49"/>
<polygon fill="midnightblue" stroke="midnightblue" points="310.38,-94.69 319.06,-88.61 308.48,-87.95 310.38,-94.69"/>
</g>
<!-- Node15&#45;&gt;Node14 -->
<g id="edge20" class="edge">
<title>Node15&#45;&gt;Node14</title>
<path fill="none" stroke="midnightblue" d="M278.62,-74.68C270.07,-74.22 261.49,-73.77 253.22,-73.33"/>
<polygon fill="midnightblue" stroke="midnightblue" points="278.45,-78.17 288.63,-75.21 278.82,-71.18 278.45,-78.17"/>
</g>
</g>
</svg>
