<?xml version="1.0" encoding="UTF-8" standalone="no"?>
<!DOCTYPE svg PUBLIC "-//W3C//DTD SVG 1.1//EN"
 "http://www.w3.org/Graphics/SVG/1.1/DTD/svg11.dtd">
<!-- Generated by graphviz version 2.43.0 (0)
 -->
<!-- Title: length Pages: 1 -->
<svg width="363pt" height="85pt"
 viewBox="0.00 0.00 363.00 85.00" xmlns="http://www.w3.org/2000/svg" xmlns:xlink="http://www.w3.org/1999/xlink">
<g id="graph0" class="graph" transform="scale(1 1) rotate(0) translate(4 81)">
<title>length</title>
<polygon fill="white" stroke="transparent" points="-4,4 -4,-81 359,-81 359,4 -4,4"/>
<!-- Node1 -->
<g id="node1" class="node">
<title>Node1</title>
<g id="a_node1"><a xlink:title="Convert a length value from one unit to another, with optional dimensional scaling.">
<polygon fill="#bfbfbf" stroke="black" points="308,-38.5 308,-57.5 355,-57.5 355,-38.5 308,-38.5"/>
<text text-anchor="middle" x="331.5" y="-45.5" font-family="Helvetica,sans-Serif" font-size="10.00">length</text>
</a>
</g>
</g>
<!-- Node2 -->
<g id="node2" class="node">
<title>Node2</title>
<g id="a_node2"><a xlink:href="group__parts__2d__enclosure__box__finger__joint.html#gacc1bfb220bc3cfed46dcaa3b84898020" target="_top" xlink:title="Generate a 2D box design using screw&#45;based finger joint (box&#45;joint).">
<polygon fill="white" stroke="black" points="0,-57.5 0,-76.5 107,-76.5 107,-57.5 0,-57.5"/>
<text text-anchor="middle" x="53.5" y="-64.5" font-family="Helvetica,sans-Serif" font-size="10.00">box2d_finger_joint</text>
</a>
</g>
</g>
<!-- Node1&#45;&gt;Node2 -->
<g id="edge1" class="edge">
<title>Node1&#45;&gt;Node2</title>
<path fill="none" stroke="midnightblue" d="M298.35,-60.44C289.9,-63.15 280.72,-65.62 272,-67 216.24,-75.83 151.43,-74.34 107.16,-71.58"/>
<polygon fill="midnightblue" stroke="midnightblue" points="299.52,-63.74 307.85,-57.19 297.25,-57.11 299.52,-63.74"/>
</g>
<!-- Node3 -->
<g id="node3" class="node">
<title>Node3</title>
<g id="a_node3"><a xlink:href="group__models__2d__joint__box__screw.html#ga78ef0c1346c6e79260781ee9a9fff0bf" target="_top" xlink:title="Create 2d edge profiles for screw and nut box joint construction.">
<polygon fill="white" stroke="black" points="154,-38.5 154,-57.5 261,-57.5 261,-38.5 154,-38.5"/>
<text text-anchor="middle" x="207.5" y="-45.5" font-family="Helvetica,sans-Serif" font-size="10.00">joint2d_box_screw</text>
</a>
</g>
</g>
<!-- Node1&#45;&gt;Node3 -->
<g id="edge2" class="edge">
<title>Node1&#45;&gt;Node3</title>
<path fill="none" stroke="midnightblue" d="M297.64,-48C286.41,-48 273.55,-48 261.16,-48"/>
<polygon fill="midnightblue" stroke="midnightblue" points="297.84,-51.5 307.84,-48 297.84,-44.5 297.84,-51.5"/>
</g>
<!-- Node4 -->
<g id="node4" class="node">
<title>Node4</title>
<g id="a_node4"><a xlink:href="group__models__3d__joint__dovetail__screw.html#ga20f61ef0d29434a144ec653c6320f77f" target="_top" xlink:title="Construct a 3d dovetail joint with optional screw and nut fastener.">
<polygon fill="white" stroke="black" points="143,-0.5 143,-19.5 272,-19.5 272,-0.5 143,-0.5"/>
<text text-anchor="middle" x="207.5" y="-7.5" font-family="Helvetica,sans-Serif" font-size="10.00">joint3d_dovetail_screw</text>
</a>
</g>
</g>
<!-- Node1&#45;&gt;Node4 -->
<g id="edge4" class="edge">
<title>Node1&#45;&gt;Node4</title>
<path fill="none" stroke="midnightblue" d="M298.17,-37.35C289.67,-34.59 280.5,-31.65 272,-29 261.89,-25.85 250.85,-22.51 240.85,-19.52"/>
<polygon fill="midnightblue" stroke="midnightblue" points="297.17,-40.7 307.76,-40.48 299.34,-34.05 297.17,-40.7"/>
</g>
<!-- Node3&#45;&gt;Node2 -->
<g id="edge3" class="edge">
<title>Node3&#45;&gt;Node2</title>
<path fill="none" stroke="midnightblue" d="M143.69,-55.85C131.54,-57.37 118.93,-58.95 107.14,-60.42"/>
<polygon fill="midnightblue" stroke="midnightblue" points="144.28,-59.31 153.76,-54.59 143.41,-52.36 144.28,-59.31"/>
</g>
</g>
</svg>
