<?xml version="1.0" encoding="UTF-8" standalone="no"?>
<!DOCTYPE svg PUBLIC "-//W3C//DTD SVG 1.1//EN"
 "http://www.w3.org/Graphics/SVG/1.1/DTD/svg11.dtd">
<!-- Generated by graphviz version 2.43.0 (0)
 -->
<!-- Title: joint2d_box_screw Pages: 1 -->
<svg width="417pt" height="256pt"
 viewBox="0.00 0.00 417.00 256.00" xmlns="http://www.w3.org/2000/svg" xmlns:xlink="http://www.w3.org/1999/xlink">
<g id="graph0" class="graph" transform="scale(1 1) rotate(0) translate(4 252)">
<title>joint2d_box_screw</title>
<polygon fill="white" stroke="transparent" points="-4,4 -4,-252 413,-252 413,4 -4,4"/>
<!-- Node1 -->
<g id="node1" class="node">
<title>Node1</title>
<g id="a_node1"><a xlink:title="Create 2d edge profiles for screw and nut box joint construction.">
<polygon fill="#bfbfbf" stroke="black" points="0,-114.5 0,-133.5 107,-133.5 107,-114.5 0,-114.5"/>
<text text-anchor="middle" x="53.5" y="-121.5" font-family="Helvetica,sans-Serif" font-size="10.00">joint2d_box_screw</text>
</a>
</g>
</g>
<!-- Node2 -->
<g id="node2" class="node">
<title>Node2</title>
<g id="a_node2"><a xlink:href="group__datatypes__binary.html#ga7ce4ed94d9b389ff817ea219918b8732" target="_top" xlink:title="Test if a binary bit position of an integer value equals a test bit.">
<polygon fill="white" stroke="black" points="148.5,-228.5 148.5,-247.5 227.5,-247.5 227.5,-228.5 148.5,-228.5"/>
<text text-anchor="middle" x="188" y="-235.5" font-family="Helvetica,sans-Serif" font-size="10.00">binary_bit_is</text>
</a>
</g>
</g>
<!-- Node1&#45;&gt;Node2 -->
<g id="edge1" class="edge">
<title>Node1&#45;&gt;Node2</title>
<path fill="none" stroke="midnightblue" d="M61.27,-133.58C74.87,-152.24 107.26,-193.8 143,-219 145.5,-220.77 148.2,-222.42 150.97,-223.95"/>
<polygon fill="midnightblue" stroke="midnightblue" points="149.48,-227.12 160,-228.43 152.6,-220.85 149.48,-227.12"/>
</g>
<!-- Node3 -->
<g id="node3" class="node">
<title>Node3</title>
<g id="a_node3"><a xlink:href="group__datatypes__iterable__operate.html#ga3d37c2b0067d1661724bd89955c8f6ce" target="_top" xlink:title="Returns an element from an iterable if it exists, or a default value if not.">
<polygon fill="white" stroke="black" points="299.5,-104.5 299.5,-123.5 378.5,-123.5 378.5,-104.5 299.5,-104.5"/>
<text text-anchor="middle" x="339" y="-111.5" font-family="Helvetica,sans-Serif" font-size="10.00">defined_e_or</text>
</a>
</g>
</g>
<!-- Node1&#45;&gt;Node3 -->
<g id="edge2" class="edge">
<title>Node1&#45;&gt;Node3</title>
<path fill="none" stroke="midnightblue" d="M107.16,-122.14C159.29,-120.3 238.46,-117.51 289.21,-115.72"/>
<polygon fill="midnightblue" stroke="midnightblue" points="289.4,-119.22 299.27,-115.37 289.15,-112.22 289.4,-119.22"/>
</g>
<!-- Node4 -->
<g id="node4" class="node">
<title>Node4</title>
<g id="a_node4"><a xlink:href="group__datatypes__iterable__operate.html#ga82ab786f1f69301a63c79e54e3a6d617" target="_top" xlink:title="Return the first defined specified element in a list of lists, otherwise returns the given default va...">
<polygon fill="white" stroke="black" points="145.5,-152.5 145.5,-171.5 230.5,-171.5 230.5,-152.5 145.5,-152.5"/>
<text text-anchor="middle" x="188" y="-159.5" font-family="Helvetica,sans-Serif" font-size="10.00">defined_fle_or</text>
</a>
</g>
</g>
<!-- Node1&#45;&gt;Node4 -->
<g id="edge3" class="edge">
<title>Node1&#45;&gt;Node4</title>
<path fill="none" stroke="midnightblue" d="M87.94,-133.59C104.88,-138.45 125.66,-144.41 143.81,-149.61"/>
<polygon fill="midnightblue" stroke="midnightblue" points="143,-153.02 153.58,-152.41 144.93,-146.29 143,-153.02"/>
</g>
<!-- Node5 -->
<g id="node5" class="node">
<title>Node5</title>
<g id="a_node5"><a xlink:href="group__transforms__base__cs.html#gaa90356c8ee306403464fe2b03ad7849c" target="_top" xlink:title="Conditionally apply the difference intersection operation.">
<polygon fill="white" stroke="black" points="143,-190.5 143,-209.5 233,-209.5 233,-190.5 143,-190.5"/>
<text text-anchor="middle" x="188" y="-197.5" font-family="Helvetica,sans-Serif" font-size="10.00">intersection_cs</text>
</a>
</g>
</g>
<!-- Node1&#45;&gt;Node5 -->
<g id="edge4" class="edge">
<title>Node1&#45;&gt;Node5</title>
<path fill="none" stroke="midnightblue" d="M67.87,-133.61C84.85,-145.56 115.26,-166.21 143,-181 146.35,-182.79 149.91,-184.54 153.5,-186.22"/>
<polygon fill="midnightblue" stroke="midnightblue" points="152.36,-189.55 162.91,-190.45 155.22,-183.16 152.36,-189.55"/>
</g>
<!-- Node7 -->
<g id="node7" class="node">
<title>Node7</title>
<g id="a_node7"><a xlink:href="group__units__length.html#ga4e8b3884a104d09e926928dcedd30d03" target="_top" xlink:title="Convert a length value from one unit to another, with optional dimensional scaling.">
<polygon fill="white" stroke="black" points="164.5,-76.5 164.5,-95.5 211.5,-95.5 211.5,-76.5 164.5,-76.5"/>
<text text-anchor="middle" x="188" y="-83.5" font-family="Helvetica,sans-Serif" font-size="10.00">length</text>
</a>
</g>
</g>
<!-- Node1&#45;&gt;Node7 -->
<g id="edge6" class="edge">
<title>Node1&#45;&gt;Node7</title>
<path fill="none" stroke="midnightblue" d="M87.94,-114.41C108.4,-108.54 134.45,-101.07 154.7,-95.26"/>
<polygon fill="midnightblue" stroke="midnightblue" points="155.76,-98.6 164.41,-92.48 153.83,-91.87 155.76,-98.6"/>
</g>
<!-- Node8 -->
<g id="node8" class="node">
<title>Node8</title>
<g id="a_node8"><a xlink:href="group__shapes__polygon.html#ga9c1bd914355d92f9d66ba0e5c2d9dbac" target="_top" xlink:title="A polygon rectangle with vertex rounding.">
<polygon fill="white" stroke="black" points="148,-38.5 148,-57.5 228,-57.5 228,-38.5 148,-38.5"/>
<text text-anchor="middle" x="188" y="-45.5" font-family="Helvetica,sans-Serif" font-size="10.00">pg_rectangle</text>
</a>
</g>
</g>
<!-- Node1&#45;&gt;Node8 -->
<g id="edge7" class="edge">
<title>Node1&#45;&gt;Node8</title>
<path fill="none" stroke="midnightblue" d="M67.87,-114.39C84.85,-102.44 115.26,-81.79 143,-67 146.35,-65.21 149.91,-63.46 153.5,-61.78"/>
<polygon fill="midnightblue" stroke="midnightblue" points="155.22,-64.84 162.91,-57.55 152.36,-58.45 155.22,-64.84"/>
</g>
<!-- Node11 -->
<g id="node11" class="node">
<title>Node11</title>
<g id="a_node11"><a xlink:href="group__datatypes__list__operate.html#ga7b8e6f2bbfa72ae61e39377e5ca6b5be" target="_top" xlink:title="Select specified element from list or return a default.">
<polygon fill="white" stroke="black" points="158.5,-0.5 158.5,-19.5 217.5,-19.5 217.5,-0.5 158.5,-0.5"/>
<text text-anchor="middle" x="188" y="-7.5" font-family="Helvetica,sans-Serif" font-size="10.00">select_ci</text>
</a>
</g>
</g>
<!-- Node1&#45;&gt;Node11 -->
<g id="edge11" class="edge">
<title>Node1&#45;&gt;Node11</title>
<path fill="none" stroke="midnightblue" d="M61.27,-114.42C74.87,-95.76 107.26,-54.2 143,-29 145.5,-27.23 148.2,-25.58 150.97,-24.05"/>
<polygon fill="midnightblue" stroke="midnightblue" points="152.6,-27.15 160,-19.57 149.48,-20.88 152.6,-27.15"/>
</g>
<!-- Node6 -->
<g id="node6" class="node">
<title>Node6</title>
<g id="a_node6"><a xlink:href="group__datatypes__scalar__test.html#ga51d7fdb800c10f4b7479d23b89ab8d22" target="_top" xlink:title="Test if a value is defined.">
<polygon fill="white" stroke="black" points="306,-190.5 306,-209.5 372,-209.5 372,-190.5 306,-190.5"/>
<text text-anchor="middle" x="339" y="-197.5" font-family="Helvetica,sans-Serif" font-size="10.00">is_defined</text>
</a>
</g>
</g>
<!-- Node5&#45;&gt;Node6 -->
<g id="edge5" class="edge">
<title>Node5&#45;&gt;Node6</title>
<path fill="none" stroke="midnightblue" d="M233.3,-200C253.08,-200 276.28,-200 295.8,-200"/>
<polygon fill="midnightblue" stroke="midnightblue" points="295.93,-203.5 305.93,-200 295.93,-196.5 295.93,-203.5"/>
</g>
<!-- Node8&#45;&gt;Node3 -->
<g id="edge8" class="edge">
<title>Node8&#45;&gt;Node3</title>
<path fill="none" stroke="midnightblue" d="M211.41,-57.61C218.34,-60.6 225.99,-63.92 233,-67 258.1,-78.03 286.47,-90.75 307.38,-100.17"/>
<polygon fill="midnightblue" stroke="midnightblue" points="306.16,-103.46 316.72,-104.38 309.04,-97.08 306.16,-103.46"/>
</g>
<!-- Node9 -->
<g id="node9" class="node">
<title>Node9</title>
<g id="a_node9"><a xlink:href="group__math__polygon.html#ga7a0eff64929a142fc507615f83e3bd58" target="_top" xlink:title="Compute coordinates that round all of the vertices between each adjacent edges in 2D.">
<polygon fill="white" stroke="black" points="269,-47.5 269,-66.5 409,-66.5 409,-47.5 269,-47.5"/>
<text text-anchor="middle" x="339" y="-54.5" font-family="Helvetica,sans-Serif" font-size="10.00">polygon_round_eve_all_p</text>
</a>
</g>
</g>
<!-- Node8&#45;&gt;Node9 -->
<g id="edge9" class="edge">
<title>Node8&#45;&gt;Node9</title>
<path fill="none" stroke="midnightblue" d="M228.15,-50.36C237.62,-50.94 248.09,-51.57 258.69,-52.21"/>
<polygon fill="midnightblue" stroke="midnightblue" points="258.67,-55.71 268.86,-52.82 259.09,-48.73 258.67,-55.71"/>
</g>
<!-- Node10 -->
<g id="node10" class="node">
<title>Node10</title>
<g id="a_node10"><a xlink:href="group__math__linear__algebra.html#gaeabe74699fd0a437bad9a1d442bfd111" target="_top" xlink:title="Translate all coordinates dimensions.">
<polygon fill="white" stroke="black" points="303.5,-9.5 303.5,-28.5 374.5,-28.5 374.5,-9.5 303.5,-9.5"/>
<text text-anchor="middle" x="339" y="-16.5" font-family="Helvetica,sans-Serif" font-size="10.00">translate_p</text>
</a>
</g>
</g>
<!-- Node8&#45;&gt;Node10 -->
<g id="edge10" class="edge">
<title>Node8&#45;&gt;Node10</title>
<path fill="none" stroke="midnightblue" d="M228.15,-40.38C248.23,-36.47 272.77,-31.7 293.56,-27.65"/>
<polygon fill="midnightblue" stroke="midnightblue" points="294.28,-31.08 303.43,-25.73 292.94,-24.2 294.28,-31.08"/>
</g>
</g>
</svg>
