<?xml version="1.0" encoding="UTF-8" standalone="no"?>
<!DOCTYPE svg PUBLIC "-//W3C//DTD SVG 1.1//EN"
 "http://www.w3.org/Graphics/SVG/1.1/DTD/svg11.dtd">
<!-- Generated by graphviz version 2.43.0 (0)
 -->
<!-- Title: Binary Numbers Pages: 1 -->
<svg width="238pt" height="34pt"
 viewBox="0.00 0.00 238.00 34.09" xmlns="http://www.w3.org/2000/svg" xmlns:xlink="http://www.w3.org/1999/xlink">
<g id="graph0" class="graph" transform="scale(1 1) rotate(0) translate(4 30.09)">
<title>Binary Numbers</title>
<polygon fill="white" stroke="transparent" points="-4,4 -4,-30.09 234,-30.09 234,4 -4,4"/>
<!-- Node2 -->
<g id="node1" class="node">
<title>Node2</title>
<g id="a_node1"><a xlink:href="group__datatypes.html" target="_top" xlink:title="Data type identification and operations.">
<polygon fill="white" stroke="black" points="44,-26.09 0,-26.09 0,-7.09 44,-7.09 44,-26.09"/>
<text text-anchor="middle" x="22" y="-14.09" font-family="Helvetica,sans-Serif" font-size="10.00">Types</text>
</a>
</g>
</g>
<!-- Node1 -->
<g id="node2" class="node">
<title>Node1</title>
<g id="a_node2"><a xlink:title="Base&#45;2 binary numbers tests and operations.">
<polygon fill="#bfbfbf" stroke="black" points="230,-26.09 135,-26.09 135,-7.09 230,-7.09 230,-26.09"/>
<text text-anchor="middle" x="182.5" y="-14.09" font-family="Helvetica,sans-Serif" font-size="10.00">Binary Numbers</text>
</a>
</g>
</g>
<!-- Node2&#45;&gt;Node1 -->
<g id="edge1" class="edge">
<title>Node2&#45;&gt;Node1</title>
<path fill="none" stroke="black" d="M54.28,-16.59C77.3,-16.59 108.98,-16.59 134.97,-16.59"/>
<polygon fill="black" stroke="black" points="54.05,-13.09 44.05,-16.59 54.05,-20.09 54.05,-13.09"/>
</g>
<!-- Node1&#45;&gt;Node2 -->
<g id="edge2" class="edge">
<title>Node1&#45;&gt;Node2</title>
<path fill="none" stroke="darkgreen" stroke-dasharray="5,2" d="M145.79,-7.03C121.96,-1.97 89.99,2.28 62,-2.59 56.05,-3.63 49.8,-5.49 44.1,-7.53"/>
<text text-anchor="middle" x="89.5" y="-5.59" font-family="Helvetica,sans-Serif" font-size="10.00">binary.scad</text>
</g>
</g>
</svg>
