<?xml version="1.0" encoding="UTF-8" standalone="no"?>
<!DOCTYPE svg PUBLIC "-//W3C//DTD SVG 1.1//EN"
 "http://www.w3.org/Graphics/SVG/1.1/DTD/svg11.dtd">
<!-- Generated by graphviz version 2.43.0 (0)
 -->
<!-- Title: translate_p Pages: 1 -->
<svg width="874pt" height="560pt"
 viewBox="0.00 0.00 874.00 560.34" xmlns="http://www.w3.org/2000/svg" xmlns:xlink="http://www.w3.org/1999/xlink">
<g id="graph0" class="graph" transform="scale(1 1) rotate(0) translate(4 556.34)">
<title>translate_p</title>
<polygon fill="white" stroke="transparent" points="-4,4 -4,-556.34 870,-556.34 870,4 -4,4"/>
<!-- Node1 -->
<g id="node1" class="node">
<title>Node1</title>
<g id="a_node1"><a xlink:title="Translate all coordinates dimensions.">
<polygon fill="#bfbfbf" stroke="black" points="795,-268.2 795,-287.2 866,-287.2 866,-268.2 795,-268.2"/>
<text text-anchor="middle" x="830.5" y="-275.2" font-family="Helvetica,sans-Serif" font-size="10.00">translate_p</text>
</a>
</g>
</g>
<!-- Node2 -->
<g id="node2" class="node">
<title>Node2</title>
<g id="a_node2"><a xlink:href="group__shapes__polygon.html#ga3587861a50ac45aeabace1df584094d1" target="_top" xlink:title="A n&#45;sided regular polygon with vertex rounding.">
<polygon fill="white" stroke="black" points="677,-268.2 677,-287.2 735,-287.2 735,-268.2 677,-268.2"/>
<text text-anchor="middle" x="706" y="-275.2" font-family="Helvetica,sans-Serif" font-size="10.00">pg_ngon</text>
</a>
</g>
</g>
<!-- Node1&#45;&gt;Node2 -->
<g id="edge1" class="edge">
<title>Node1&#45;&gt;Node2</title>
<path fill="none" stroke="midnightblue" d="M784.7,-277.7C768.18,-277.7 749.92,-277.7 735.26,-277.7"/>
<polygon fill="midnightblue" stroke="midnightblue" points="784.72,-281.2 794.72,-277.7 784.72,-274.2 784.72,-281.2"/>
</g>
<!-- Node8 -->
<g id="node8" class="node">
<title>Node8</title>
<g id="a_node8"><a xlink:href="group__shapes__polygon.html#ga9c1bd914355d92f9d66ba0e5c2d9dbac" target="_top" xlink:title="A polygon rectangle with vertex rounding.">
<polygon fill="white" stroke="black" points="504,-382.2 504,-401.2 584,-401.2 584,-382.2 504,-382.2"/>
<text text-anchor="middle" x="544" y="-389.2" font-family="Helvetica,sans-Serif" font-size="10.00">pg_rectangle</text>
</a>
</g>
</g>
<!-- Node1&#45;&gt;Node8 -->
<g id="edge7" class="edge">
<title>Node1&#45;&gt;Node8</title>
<path fill="none" stroke="midnightblue" d="M821.45,-296.56C810.76,-318.99 789.61,-355.56 759,-372.7 704.33,-403.32 629.25,-401.93 584.09,-397.37"/>
<polygon fill="midnightblue" stroke="midnightblue" points="824.67,-297.92 825.62,-287.37 818.3,-295.03 824.67,-297.92"/>
</g>
<!-- Node18 -->
<g id="node18" class="node">
<title>Node18</title>
<g id="a_node18"><a xlink:href="group__shapes__polygon.html#ga22a29774c22e5cc9f3101ed0a0ed307a" target="_top" xlink:title="A polygon rectangle with side rounding.">
<polygon fill="white" stroke="black" points="659,-344.2 659,-363.2 753,-363.2 753,-344.2 659,-344.2"/>
<text text-anchor="middle" x="706" y="-351.2" font-family="Helvetica,sans-Serif" font-size="10.00">pg_rectangle_rs</text>
</a>
</g>
</g>
<!-- Node1&#45;&gt;Node18 -->
<g id="edge24" class="edge">
<title>Node1&#45;&gt;Node18</title>
<path fill="none" stroke="midnightblue" d="M812.18,-294.45C798.59,-306.88 778.74,-323.53 759,-334.7 752.56,-338.35 745.29,-341.52 738.27,-344.17"/>
<polygon fill="midnightblue" stroke="midnightblue" points="814.86,-296.74 819.77,-287.35 810.08,-291.63 814.86,-296.74"/>
</g>
<!-- Node19 -->
<g id="node19" class="node">
<title>Node19</title>
<g id="a_node19"><a xlink:href="group__shapes__polygon.html#ga2ca38d6942a8955d3b483d1a60bf7ec3" target="_top" xlink:title="A polygon rhombus with vertex rounding.">
<polygon fill="white" stroke="black" points="667.5,-306.2 667.5,-325.2 744.5,-325.2 744.5,-306.2 667.5,-306.2"/>
<text text-anchor="middle" x="706" y="-313.2" font-family="Helvetica,sans-Serif" font-size="10.00">pg_rhombus</text>
</a>
</g>
</g>
<!-- Node1&#45;&gt;Node19 -->
<g id="edge26" class="edge">
<title>Node1&#45;&gt;Node19</title>
<path fill="none" stroke="midnightblue" d="M788.62,-290.38C772.07,-295.52 753.28,-301.35 737.9,-306.12"/>
<polygon fill="midnightblue" stroke="midnightblue" points="790.07,-293.6 798.59,-287.29 788,-286.91 790.07,-293.6"/>
</g>
<!-- Node20 -->
<g id="node20" class="node">
<title>Node20</title>
<g id="a_node20"><a xlink:href="group__shapes__polygon.html#ga155ae943a1aa91432b1992fd1de364c2" target="_top" xlink:title="A polygon trapezoid with individual vertex rounding and arc facets.">
<polygon fill="white" stroke="black" points="504,-40.2 504,-59.2 584,-59.2 584,-40.2 504,-40.2"/>
<text text-anchor="middle" x="544" y="-47.2" font-family="Helvetica,sans-Serif" font-size="10.00">pg_trapezoid</text>
</a>
</g>
</g>
<!-- Node1&#45;&gt;Node20 -->
<g id="edge28" class="edge">
<title>Node1&#45;&gt;Node20</title>
<path fill="none" stroke="midnightblue" d="M820.94,-258.77C809.39,-234.67 786.99,-192.72 759,-163.7 706.28,-109.06 686.21,-99.93 617,-68.7 606.75,-64.08 595.15,-60.4 584.3,-57.57"/>
<polygon fill="midnightblue" stroke="midnightblue" points="817.81,-260.33 825.21,-267.91 824.15,-257.37 817.81,-260.33"/>
</g>
<!-- Node22 -->
<g id="node22" class="node">
<title>Node22</title>
<g id="a_node22"><a xlink:href="group__shapes__polygon.html#gac7e2c70b3428b729efd86a675df794e6" target="_top" xlink:title="A polygon triangle specified by three coordinate points with vertex rounding.">
<polygon fill="white" stroke="black" points="658.5,-173.2 658.5,-192.2 753.5,-192.2 753.5,-173.2 658.5,-173.2"/>
<text text-anchor="middle" x="706" y="-180.2" font-family="Helvetica,sans-Serif" font-size="10.00">pg_triangle_ppp</text>
</a>
</g>
</g>
<!-- Node1&#45;&gt;Node22 -->
<g id="edge32" class="edge">
<title>Node1&#45;&gt;Node22</title>
<path fill="none" stroke="midnightblue" d="M808.89,-261.72C783.29,-241.86 740.42,-208.63 719.4,-192.32"/>
<polygon fill="midnightblue" stroke="midnightblue" points="806.8,-264.53 816.85,-267.9 811.09,-259 806.8,-264.53"/>
</g>
<!-- Node27 -->
<g id="node27" class="node">
<title>Node27</title>
<g id="a_node27"><a xlink:href="group__shapes__polyhedron__db.html#gae2635420611b120f6f9332ae9fd3c3d1" target="_top" xlink:title="Construct a named polyhedron.">
<polygon fill="white" stroke="black" points="653,-21.2 653,-40.2 759,-40.2 759,-21.2 653,-21.2"/>
<text text-anchor="middle" x="706" y="-28.2" font-family="Helvetica,sans-Serif" font-size="10.00">ph_db_polyhedron</text>
</a>
</g>
</g>
<!-- Node1&#45;&gt;Node27 -->
<g id="edge42" class="edge">
<title>Node1&#45;&gt;Node27</title>
<path fill="none" stroke="midnightblue" d="M824.38,-258.1C814.76,-223.25 791.98,-148.87 759,-92.7 747.05,-72.35 728.39,-52.01 716.97,-40.43"/>
<polygon fill="midnightblue" stroke="midnightblue" points="821.05,-259.21 827.03,-267.96 827.81,-257.39 821.05,-259.21"/>
</g>
<!-- Node3 -->
<g id="node3" class="node">
<title>Node3</title>
<g id="a_node3"><a xlink:href="group__shapes__select__common__2d.html#gadde46fda315aab438eda3f752fec2aed" target="_top" xlink:title="Select configure and construct one of the available 2d shapes.">
<polygon fill="white" stroke="black" points="289,-230.2 289,-249.2 435,-249.2 435,-230.2 289,-230.2"/>
<text text-anchor="middle" x="362" y="-237.2" font-family="Helvetica,sans-Serif" font-size="10.00">select_common_2d_shape</text>
</a>
</g>
</g>
<!-- Node2&#45;&gt;Node3 -->
<g id="edge2" class="edge">
<title>Node2&#45;&gt;Node3</title>
<path fill="none" stroke="midnightblue" d="M666.68,-274.09C620.31,-269.64 539.87,-261.7 471,-253.7 459.17,-252.33 446.62,-250.79 434.42,-249.24"/>
<polygon fill="midnightblue" stroke="midnightblue" points="666.59,-277.6 676.88,-275.06 667.26,-270.63 666.59,-277.6"/>
</g>
<!-- Node4 -->
<g id="node4" class="node">
<title>Node4</title>
<g id="a_node4"><a xlink:href="group__parts__2d__enclosure__box__finger__joint.html#gacc1bfb220bc3cfed46dcaa3b84898020" target="_top" xlink:title="Generate a 2D box design using screw&#45;based finger joint (box&#45;joint).">
<polygon fill="white" stroke="black" points="137,-249.2 137,-268.2 244,-268.2 244,-249.2 137,-249.2"/>
<text text-anchor="middle" x="190.5" y="-256.2" font-family="Helvetica,sans-Serif" font-size="10.00">box2d_finger_joint</text>
</a>
</g>
</g>
<!-- Node3&#45;&gt;Node4 -->
<g id="edge3" class="edge">
<title>Node3&#45;&gt;Node4</title>
<path fill="none" stroke="midnightblue" d="M278.41,-248.96C266.75,-250.27 255.04,-251.58 244.15,-252.8"/>
<polygon fill="midnightblue" stroke="midnightblue" points="279.08,-252.41 288.63,-247.82 278.3,-245.45 279.08,-252.41"/>
</g>
<!-- Node5 -->
<g id="node5" class="node">
<title>Node5</title>
<g id="a_node5"><a xlink:href="group__parts__3d__enclosure__project__box__rectangle.html#ga24cdfe5fd4bb74b75409d9afdbe1f0c0" target="_top" xlink:title="A rectangular box maker for project boxes, enclosures and housings.">
<polygon fill="white" stroke="black" points="128,-154.2 128,-173.2 253,-173.2 253,-154.2 128,-154.2"/>
<text text-anchor="middle" x="190.5" y="-161.2" font-family="Helvetica,sans-Serif" font-size="10.00">project_box_rectangle</text>
</a>
</g>
</g>
<!-- Node3&#45;&gt;Node5 -->
<g id="edge4" class="edge">
<title>Node3&#45;&gt;Node5</title>
<path fill="none" stroke="midnightblue" d="M307.21,-227.24C300.99,-225.29 294.8,-223.11 289,-220.7 257.31,-207.55 223.38,-185.74 205.09,-173.26"/>
<polygon fill="midnightblue" stroke="midnightblue" points="306.39,-230.64 316.97,-230.11 308.36,-223.93 306.39,-230.64"/>
</g>
<!-- Node6 -->
<g id="node6" class="node">
<title>Node6</title>
<g id="a_node6"><a xlink:href="group__parts__3d__computer__pcie__expansion.html#gab6fb1c9f8f6550633467f4ec0bd3f983" target="_top" xlink:title="Generate a PCI Express expansion open chassis or closed enclosure.">
<polygon fill="white" stroke="black" points="0,-458.2 0,-477.2 92,-477.2 92,-458.2 0,-458.2"/>
<text text-anchor="middle" x="46" y="-465.2" font-family="Helvetica,sans-Serif" font-size="10.00">pcie_expansion</text>
</a>
</g>
</g>
<!-- Node5&#45;&gt;Node6 -->
<g id="edge5" class="edge">
<title>Node5&#45;&gt;Node6</title>
<path fill="none" stroke="midnightblue" d="M173.05,-180.53C159.47,-195.16 140.46,-217.47 128,-239.7 83.84,-318.49 56.72,-425.76 49.17,-458.1"/>
<polygon fill="midnightblue" stroke="midnightblue" points="175.63,-182.9 179.97,-173.23 170.55,-178.08 175.63,-182.9"/>
</g>
<!-- Node7 -->
<g id="node7" class="node">
<title>Node7</title>
<g id="a_node7"><a xlink:href="group__parts__3d__enclosure__power__strip.html#ga33509a1811b27fe7f3687957d4d32460" target="_top" xlink:title="A power strip generator for single gang electrical receptacles.">
<polygon fill="white" stroke="black" points="1,-116.2 1,-135.2 91,-135.2 91,-116.2 1,-116.2"/>
<text text-anchor="middle" x="46" y="-123.2" font-family="Helvetica,sans-Serif" font-size="10.00">power_strip_sg</text>
</a>
</g>
</g>
<!-- Node5&#45;&gt;Node7 -->
<g id="edge6" class="edge">
<title>Node5&#45;&gt;Node7</title>
<path fill="none" stroke="midnightblue" d="M143.85,-151.53C124.14,-146.28 101.43,-140.22 82.95,-135.29"/>
<polygon fill="midnightblue" stroke="midnightblue" points="142.98,-154.92 153.54,-154.12 144.78,-148.16 142.98,-154.92"/>
</g>
<!-- Node8&#45;&gt;Node3 -->
<g id="edge23" class="edge">
<title>Node8&#45;&gt;Node3</title>
<path fill="none" stroke="midnightblue" d="M494.23,-382.23C485.68,-378.79 477.47,-374.1 471,-367.7 436.22,-333.32 469.78,-298.09 435,-263.7 428.63,-257.41 420.56,-252.76 412.15,-249.33"/>
<polygon fill="midnightblue" stroke="midnightblue" points="493.35,-385.63 503.95,-385.61 495.65,-379.02 493.35,-385.63"/>
</g>
<!-- Node8&#45;&gt;Node5 -->
<g id="edge22" class="edge">
<title>Node8&#45;&gt;Node5</title>
<path fill="none" stroke="midnightblue" d="M519.42,-376.37C504.83,-366.4 486.07,-352.7 471,-338.7 452.98,-321.98 455.85,-309.73 435,-296.7 378.13,-261.18 347.4,-291.64 289,-258.7 248.86,-236.07 213.3,-192.79 198.63,-173.46"/>
<polygon fill="midnightblue" stroke="midnightblue" points="517.64,-379.39 527.9,-382.06 521.55,-373.58 517.64,-379.39"/>
</g>
<!-- Node8&#45;&gt;Node6 -->
<g id="edge21" class="edge">
<title>Node8&#45;&gt;Node6</title>
<path fill="none" stroke="midnightblue" d="M531.22,-409.79C513.63,-435.12 477.93,-480.43 435,-501.7 312.4,-562.47 258.45,-566 128,-524.7 98.49,-515.36 70.43,-490.98 56.38,-477.32"/>
<polygon fill="midnightblue" stroke="midnightblue" points="534.16,-411.69 536.86,-401.45 528.36,-407.77 534.16,-411.69"/>
</g>
<!-- Node9 -->
<g id="node9" class="node">
<title>Node9</title>
<g id="a_node9"><a xlink:href="group__parts__3d__fastener__catch__latch.html#ga26a9933aa6d33599daab1be8d632c430" target="_top" xlink:title="A catch latch generator with configurable profile.">
<polygon fill="white" stroke="black" points="326,-382.2 326,-401.2 398,-401.2 398,-382.2 326,-382.2"/>
<text text-anchor="middle" x="362" y="-389.2" font-family="Helvetica,sans-Serif" font-size="10.00">catch_latch</text>
</a>
</g>
</g>
<!-- Node8&#45;&gt;Node9 -->
<g id="edge8" class="edge">
<title>Node8&#45;&gt;Node9</title>
<path fill="none" stroke="midnightblue" d="M493.58,-391.7C463.28,-391.7 425.22,-391.7 398.02,-391.7"/>
<polygon fill="midnightblue" stroke="midnightblue" points="493.94,-395.2 503.94,-391.7 493.94,-388.2 493.94,-395.2"/>
</g>
<!-- Node10 -->
<g id="node10" class="node">
<title>Node10</title>
<g id="a_node10"><a xlink:href="group__parts__3d__fastener__clamps.html#gac715fdab9961aff45be668fb23556835" target="_top" xlink:title="A one piece zip tie clamp to secure wires or provide strain relief.">
<polygon fill="white" stroke="black" points="151.5,-496.2 151.5,-515.2 229.5,-515.2 229.5,-496.2 151.5,-496.2"/>
<text text-anchor="middle" x="190.5" y="-503.2" font-family="Helvetica,sans-Serif" font-size="10.00">clamp_zt_1p</text>
</a>
</g>
</g>
<!-- Node8&#45;&gt;Node10 -->
<g id="edge9" class="edge">
<title>Node8&#45;&gt;Node10</title>
<path fill="none" stroke="midnightblue" d="M526.36,-408.59C506.5,-427.6 471.4,-457.78 435,-472.7 366.52,-500.78 279.01,-505.96 229.73,-506.38"/>
<polygon fill="midnightblue" stroke="midnightblue" points="528.96,-410.93 533.66,-401.43 524.07,-405.93 528.96,-410.93"/>
</g>
<!-- Node11 -->
<g id="node11" class="node">
<title>Node11</title>
<g id="a_node11"><a xlink:href="group__parts__3d__fastener__hinges.html#ga7e350f2c55116094108b99dd8103fc04" target="_top" xlink:title="A print&#45;in&#45;place single&#45;fold hinge generator.">
<polygon fill="white" stroke="black" points="333,-306.2 333,-325.2 391,-325.2 391,-306.2 333,-306.2"/>
<text text-anchor="middle" x="362" y="-313.2" font-family="Helvetica,sans-Serif" font-size="10.00">hinge_sf</text>
</a>
</g>
</g>
<!-- Node8&#45;&gt;Node11 -->
<g id="edge11" class="edge">
<title>Node8&#45;&gt;Node11</title>
<path fill="none" stroke="midnightblue" d="M494.78,-378.77C486.58,-375.7 478.35,-372.03 471,-367.7 452.29,-356.7 454.05,-345.11 435,-334.7 421.5,-327.33 404.99,-322.7 391.19,-319.87"/>
<polygon fill="midnightblue" stroke="midnightblue" points="493.74,-382.11 504.33,-382.1 496.04,-375.5 493.74,-382.11"/>
</g>
<!-- Node13 -->
<g id="node13" class="node">
<title>Node13</title>
<g id="a_node13"><a xlink:href="group__models__2d__joint__box__screw.html#ga78ef0c1346c6e79260781ee9a9fff0bf" target="_top" xlink:title="Create 2d edge profiles for screw and nut box joint construction.">
<polygon fill="white" stroke="black" points="308.5,-420.2 308.5,-439.2 415.5,-439.2 415.5,-420.2 308.5,-420.2"/>
<text text-anchor="middle" x="362" y="-427.2" font-family="Helvetica,sans-Serif" font-size="10.00">joint2d_box_screw</text>
</a>
</g>
</g>
<!-- Node8&#45;&gt;Node13 -->
<g id="edge13" class="edge">
<title>Node8&#45;&gt;Node13</title>
<path fill="none" stroke="midnightblue" d="M493.99,-402.05C467.17,-407.71 434.18,-414.68 408.01,-420.2"/>
<polygon fill="midnightblue" stroke="midnightblue" points="494.88,-405.44 503.94,-399.95 493.44,-398.59 494.88,-405.44"/>
</g>
<!-- Node14 -->
<g id="node14" class="node">
<title>Node14</title>
<g id="a_node14"><a xlink:href="group__models__2d__joint__dovetail.html#gadccba989c93e8e44be057de39d99758a" target="_top" xlink:title="Create 2D edge profiles for dovetail joint construction.">
<polygon fill="white" stroke="black" points="143,-458.2 143,-477.2 238,-477.2 238,-458.2 143,-458.2"/>
<text text-anchor="middle" x="190.5" y="-465.2" font-family="Helvetica,sans-Serif" font-size="10.00">joint2d_dovetail</text>
</a>
</g>
</g>
<!-- Node8&#45;&gt;Node14 -->
<g id="edge15" class="edge">
<title>Node8&#45;&gt;Node14</title>
<path fill="none" stroke="midnightblue" d="M520.95,-406.81C499.89,-420.37 466.75,-439.51 435,-448.7 368.61,-467.92 288.04,-470.37 238.27,-469.61"/>
<polygon fill="midnightblue" stroke="midnightblue" points="523.03,-409.63 529.46,-401.21 519.18,-403.78 523.03,-409.63"/>
</g>
<!-- Node15 -->
<g id="node15" class="node">
<title>Node15</title>
<g id="a_node15"><a xlink:href="group__models__3d__joint__dovetail__screw.html#ga20f61ef0d29434a144ec653c6320f77f" target="_top" xlink:title="Construct a 3d dovetail joint with optional screw and nut fastener.">
<polygon fill="white" stroke="black" points="297.5,-344.2 297.5,-363.2 426.5,-363.2 426.5,-344.2 297.5,-344.2"/>
<text text-anchor="middle" x="362" y="-351.2" font-family="Helvetica,sans-Serif" font-size="10.00">joint3d_dovetail_screw</text>
</a>
</g>
</g>
<!-- Node8&#45;&gt;Node15 -->
<g id="edge17" class="edge">
<title>Node8&#45;&gt;Node15</title>
<path fill="none" stroke="midnightblue" d="M493.99,-381.36C467.17,-375.7 434.18,-368.73 408.01,-363.21"/>
<polygon fill="midnightblue" stroke="midnightblue" points="493.44,-384.82 503.94,-383.46 494.88,-377.97 493.44,-384.82"/>
</g>
<!-- Node16 -->
<g id="node16" class="node">
<title>Node16</title>
<g id="a_node16"><a xlink:href="group__parts__3d__fastener__mounts.html#ga0cbac43259ec43fff7785057277bcef3" target="_top" xlink:title="A screw mount post with screw bore and optional fins.">
<polygon fill="white" stroke="black" points="308,-154.2 308,-173.2 416,-173.2 416,-154.2 308,-154.2"/>
<text text-anchor="middle" x="362" y="-161.2" font-family="Helvetica,sans-Serif" font-size="10.00">mount_screw_post</text>
</a>
</g>
</g>
<!-- Node8&#45;&gt;Node16 -->
<g id="edge18" class="edge">
<title>Node8&#45;&gt;Node16</title>
<path fill="none" stroke="midnightblue" d="M535.49,-372.63C516.83,-326.13 467.52,-208.78 435,-182.7 429.45,-178.26 422.97,-174.84 416.2,-172.22"/>
<polygon fill="midnightblue" stroke="midnightblue" points="532.32,-374.14 539.27,-382.14 538.83,-371.55 532.32,-374.14"/>
</g>
<!-- Node17 -->
<g id="node17" class="node">
<title>Node17</title>
<g id="a_node17"><a xlink:href="group__parts__3d__fastener__mounts.html#gae1cc60f3ff242fb07c5a50d34be8c051" target="_top" xlink:title="A mount tab with screw hole and support brace.">
<polygon fill="white" stroke="black" points="310.5,-192.2 310.5,-211.2 413.5,-211.2 413.5,-192.2 310.5,-192.2"/>
<text text-anchor="middle" x="362" y="-199.2" font-family="Helvetica,sans-Serif" font-size="10.00">mount_screw_tab</text>
</a>
</g>
</g>
<!-- Node8&#45;&gt;Node17 -->
<g id="edge19" class="edge">
<title>Node8&#45;&gt;Node17</title>
<path fill="none" stroke="midnightblue" d="M536.34,-372.53C522.98,-336.92 489.4,-260.6 435,-220.7 428.64,-216.04 421.22,-212.52 413.61,-209.86"/>
<polygon fill="midnightblue" stroke="midnightblue" points="533.15,-373.98 539.85,-382.19 539.73,-371.59 533.15,-373.98"/>
</g>
<!-- Node10&#45;&gt;Node6 -->
<g id="edge10" class="edge">
<title>Node10&#45;&gt;Node6</title>
<path fill="none" stroke="midnightblue" d="M143.85,-493.53C124.14,-488.28 101.43,-482.22 82.95,-477.29"/>
<polygon fill="midnightblue" stroke="midnightblue" points="142.98,-496.92 153.54,-496.12 144.78,-490.16 142.98,-496.92"/>
</g>
<!-- Node12 -->
<g id="node12" class="node">
<title>Node12</title>
<g id="a_node12"><a xlink:href="group__parts__3d__fastener__hinges.html#ga1ffc82e0bbac466d1dc4fbe6c214b765" target="_top" xlink:title="A print&#45;in&#45;place bi&#45;fold hinge generator.">
<polygon fill="white" stroke="black" points="161,-306.2 161,-325.2 220,-325.2 220,-306.2 161,-306.2"/>
<text text-anchor="middle" x="190.5" y="-313.2" font-family="Helvetica,sans-Serif" font-size="10.00">hinge_bf</text>
</a>
</g>
</g>
<!-- Node11&#45;&gt;Node12 -->
<g id="edge12" class="edge">
<title>Node11&#45;&gt;Node12</title>
<path fill="none" stroke="midnightblue" d="M322.59,-315.7C291.5,-315.7 248.41,-315.7 220.25,-315.7"/>
<polygon fill="midnightblue" stroke="midnightblue" points="322.63,-319.2 332.63,-315.7 322.63,-312.2 322.63,-319.2"/>
</g>
<!-- Node13&#45;&gt;Node4 -->
<g id="edge14" class="edge">
<title>Node13&#45;&gt;Node4</title>
<path fill="none" stroke="midnightblue" d="M298.88,-418.02C295.31,-415.95 291.97,-413.53 289,-410.7 250.54,-374.04 285.64,-338.63 253,-296.7 243.21,-284.13 227.99,-274.68 215.15,-268.35"/>
<polygon fill="midnightblue" stroke="midnightblue" points="297.62,-421.3 308.15,-422.47 300.65,-414.99 297.62,-421.3"/>
</g>
<!-- Node14&#45;&gt;Node6 -->
<g id="edge16" class="edge">
<title>Node14&#45;&gt;Node6</title>
<path fill="none" stroke="midnightblue" d="M132.74,-467.7C119.31,-467.7 105.16,-467.7 92.31,-467.7"/>
<polygon fill="midnightblue" stroke="midnightblue" points="132.84,-471.2 142.84,-467.7 132.84,-464.2 132.84,-471.2"/>
</g>
<!-- Node17&#45;&gt;Node7 -->
<g id="edge20" class="edge">
<title>Node17&#45;&gt;Node7</title>
<path fill="none" stroke="midnightblue" d="M300.7,-188.55C296.63,-186.83 292.69,-184.89 289,-182.7 268.99,-170.84 273.93,-154.87 253,-144.7 201.63,-119.75 134.61,-118.47 91.19,-121.07"/>
<polygon fill="midnightblue" stroke="midnightblue" points="299.77,-191.94 310.37,-192.18 302.23,-185.39 299.77,-191.94"/>
</g>
<!-- Node18&#45;&gt;Node3 -->
<g id="edge25" class="edge">
<title>Node18&#45;&gt;Node3</title>
<path fill="none" stroke="midnightblue" d="M648.76,-350.94C599.11,-346.37 526.25,-334.34 471,-302.7 450.53,-290.98 454.81,-276.5 435,-263.7 425.48,-257.56 414.23,-252.83 403.49,-249.26"/>
<polygon fill="midnightblue" stroke="midnightblue" points="648.73,-354.45 658.99,-351.81 649.32,-347.47 648.73,-354.45"/>
</g>
<!-- Node19&#45;&gt;Node3 -->
<g id="edge27" class="edge">
<title>Node19&#45;&gt;Node3</title>
<path fill="none" stroke="midnightblue" d="M657.36,-309.35C609.79,-302.55 534.77,-290.54 471,-274.7 463.16,-272.76 421.04,-258.94 391.78,-249.26"/>
<polygon fill="midnightblue" stroke="midnightblue" points="656.99,-312.83 667.38,-310.77 657.96,-305.9 656.99,-312.83"/>
</g>
<!-- Node20&#45;&gt;Node6 -->
<g id="edge30" class="edge">
<title>Node20&#45;&gt;Node6</title>
<path fill="none" stroke="midnightblue" d="M494.08,-59.48C387.19,-81.04 141.2,-131.77 128,-144.7 81.12,-190.62 53.69,-409.07 48.08,-457.98"/>
<polygon fill="midnightblue" stroke="midnightblue" points="494.87,-62.89 503.98,-57.49 493.49,-56.03 494.87,-62.89"/>
</g>
<!-- Node20&#45;&gt;Node16 -->
<g id="edge29" class="edge">
<title>Node20&#45;&gt;Node16</title>
<path fill="none" stroke="midnightblue" d="M494.23,-59.13C486.21,-61.64 478.18,-64.78 471,-68.7 451.95,-79.11 451.23,-87.29 435,-101.7 413.79,-120.55 388.58,-142.06 374.32,-154.15"/>
<polygon fill="midnightblue" stroke="midnightblue" points="495.28,-62.47 503.95,-56.37 493.37,-55.73 495.28,-62.47"/>
</g>
<!-- Node21 -->
<g id="node21" class="node">
<title>Node21</title>
<g id="a_node21"><a xlink:href="group__shapes__revolved.html#ga69b374bbebd7d87cfcd06b6bd3278404" target="_top" xlink:title="A trapezoidal cross&#45;sectional profile revolved about the z&#45;axis.">
<polygon fill="white" stroke="black" points="307,-40.2 307,-59.2 417,-59.2 417,-40.2 307,-40.2"/>
<text text-anchor="middle" x="362" y="-47.2" font-family="Helvetica,sans-Serif" font-size="10.00">torus_pg_trapezoid</text>
</a>
</g>
</g>
<!-- Node20&#45;&gt;Node21 -->
<g id="edge31" class="edge">
<title>Node20&#45;&gt;Node21</title>
<path fill="none" stroke="midnightblue" d="M493.73,-49.7C469.95,-49.7 441.37,-49.7 417,-49.7"/>
<polygon fill="midnightblue" stroke="midnightblue" points="493.94,-53.2 503.94,-49.7 493.94,-46.2 493.94,-53.2"/>
</g>
<!-- Node22&#45;&gt;Node3 -->
<g id="edge41" class="edge">
<title>Node22&#45;&gt;Node3</title>
<path fill="none" stroke="midnightblue" d="M678.43,-196.95C661.38,-205.38 638.48,-215.42 617,-220.7 556.88,-235.49 486.55,-239.79 435.16,-240.64"/>
<polygon fill="midnightblue" stroke="midnightblue" points="680.41,-199.87 687.74,-192.22 677.24,-193.63 680.41,-199.87"/>
</g>
<!-- Node23 -->
<g id="node23" class="node">
<title>Node23</title>
<g id="a_node23"><a xlink:href="group__shapes__polygon.html#gad85d14f73179499777da1e9297fbcae8" target="_top" xlink:title="A polygon triangle specified by angle&#45;angle&#45;size with vertex rounding.">
<polygon fill="white" stroke="black" points="497,-116.2 497,-135.2 591,-135.2 591,-116.2 497,-116.2"/>
<text text-anchor="middle" x="544" y="-123.2" font-family="Helvetica,sans-Serif" font-size="10.00">pg_triangle_aas</text>
</a>
</g>
</g>
<!-- Node22&#45;&gt;Node23 -->
<g id="edge33" class="edge">
<title>Node22&#45;&gt;Node23</title>
<path fill="none" stroke="midnightblue" d="M675.73,-168.75C658.81,-161.02 636.98,-151.61 617,-144.7 606.86,-141.2 595.72,-137.97 585.31,-135.2"/>
<polygon fill="midnightblue" stroke="midnightblue" points="674.52,-172.05 685.07,-173.08 677.46,-165.7 674.52,-172.05"/>
</g>
<!-- Node24 -->
<g id="node24" class="node">
<title>Node24</title>
<g id="a_node24"><a xlink:href="group__shapes__polygon.html#ga45e8a17aef3dd6755f833f25a8937cf7" target="_top" xlink:title="A polygon triangle specified by angle&#45;size&#45;angle with vertex rounding.">
<polygon fill="white" stroke="black" points="497,-154.2 497,-173.2 591,-173.2 591,-154.2 497,-154.2"/>
<text text-anchor="middle" x="544" y="-161.2" font-family="Helvetica,sans-Serif" font-size="10.00">pg_triangle_asa</text>
</a>
</g>
</g>
<!-- Node22&#45;&gt;Node24 -->
<g id="edge34" class="edge">
<title>Node22&#45;&gt;Node24</title>
<path fill="none" stroke="midnightblue" d="M648.14,-175.95C629.48,-173.74 608.99,-171.3 591.21,-169.19"/>
<polygon fill="midnightblue" stroke="midnightblue" points="647.95,-179.45 658.29,-177.16 648.77,-172.5 647.95,-179.45"/>
</g>
<!-- Node25 -->
<g id="node25" class="node">
<title>Node25</title>
<g id="a_node25"><a xlink:href="group__shapes__polygon.html#ga24be160074502dce7ff8a78361d4b074" target="_top" xlink:title="A polygon triangle specified by size&#45;angle&#45;size with vertex rounding.">
<polygon fill="white" stroke="black" points="497.5,-78.2 497.5,-97.2 590.5,-97.2 590.5,-78.2 497.5,-78.2"/>
<text text-anchor="middle" x="544" y="-85.2" font-family="Helvetica,sans-Serif" font-size="10.00">pg_triangle_sas</text>
</a>
</g>
</g>
<!-- Node22&#45;&gt;Node25 -->
<g id="edge35" class="edge">
<title>Node22&#45;&gt;Node25</title>
<path fill="none" stroke="midnightblue" d="M689.43,-165.24C673.04,-147.92 645.7,-121.83 617,-106.7 608.88,-102.42 599.73,-99.06 590.74,-96.42"/>
<polygon fill="midnightblue" stroke="midnightblue" points="687.19,-167.98 696.54,-172.95 692.33,-163.23 687.19,-167.98"/>
</g>
<!-- Node26 -->
<g id="node26" class="node">
<title>Node26</title>
<g id="a_node26"><a xlink:href="group__shapes__polygon.html#gab9843df753e0537b490ac67cec6e31a9" target="_top" xlink:title="A polygon triangle specified by three side lengths with vertex rounding.">
<polygon fill="white" stroke="black" points="498,-192.2 498,-211.2 590,-211.2 590,-192.2 498,-192.2"/>
<text text-anchor="middle" x="544" y="-199.2" font-family="Helvetica,sans-Serif" font-size="10.00">pg_triangle_sss</text>
</a>
</g>
</g>
<!-- Node22&#45;&gt;Node26 -->
<g id="edge39" class="edge">
<title>Node22&#45;&gt;Node26</title>
<path fill="none" stroke="midnightblue" d="M648.23,-189.45C629.16,-191.71 608.16,-194.2 590.11,-196.35"/>
<polygon fill="midnightblue" stroke="midnightblue" points="648.77,-192.91 658.29,-188.25 647.95,-185.95 648.77,-192.91"/>
</g>
<!-- Node25&#45;&gt;Node5 -->
<g id="edge38" class="edge">
<title>Node25&#45;&gt;Node5</title>
<path fill="none" stroke="midnightblue" d="M488.95,-99.39C419.37,-114.44 299.79,-140.29 235.48,-154.19"/>
<polygon fill="midnightblue" stroke="midnightblue" points="489.8,-102.79 498.84,-97.25 488.32,-95.95 489.8,-102.79"/>
</g>
<!-- Node25&#45;&gt;Node16 -->
<g id="edge36" class="edge">
<title>Node25&#45;&gt;Node16</title>
<path fill="none" stroke="midnightblue" d="M487.48,-99.4C481.76,-101.47 476.16,-103.89 471,-106.7 451.95,-117.11 453.71,-128.7 435,-139.7 424.78,-145.72 412.85,-150.47 401.67,-154.1"/>
<polygon fill="midnightblue" stroke="midnightblue" points="488.74,-102.67 497.16,-96.24 486.57,-96.01 488.74,-102.67"/>
</g>
<!-- Node25&#45;&gt;Node17 -->
<g id="edge37" class="edge">
<title>Node25&#45;&gt;Node17</title>
<path fill="none" stroke="midnightblue" d="M487.78,-96.81C481.72,-99.35 475.96,-102.58 471,-106.7 442.25,-130.59 463.75,-158.82 435,-182.7 428.83,-187.83 421.43,-191.58 413.75,-194.33"/>
<polygon fill="midnightblue" stroke="midnightblue" points="489.23,-100.01 497.48,-93.36 486.88,-93.41 489.23,-100.01"/>
</g>
<!-- Node26&#45;&gt;Node3 -->
<g id="edge40" class="edge">
<title>Node26&#45;&gt;Node3</title>
<path fill="none" stroke="midnightblue" d="M487.67,-213.39C462.14,-218.77 432.22,-225.09 408.09,-230.18"/>
<polygon fill="midnightblue" stroke="midnightblue" points="488.52,-216.78 497.58,-211.29 487.07,-209.93 488.52,-216.78"/>
</g>
<!-- Node28 -->
<g id="node28" class="node">
<title>Node28</title>
<g id="a_node28"><a xlink:href="group__shapes__select__common__3d.html#ga3fd7f214eff2f5935ad1bb56415a4aaf" target="_top" xlink:title="Select configure and construct one of the available 3d shapes.">
<polygon fill="white" stroke="black" points="471,-2.2 471,-21.2 617,-21.2 617,-2.2 471,-2.2"/>
<text text-anchor="middle" x="544" y="-9.2" font-family="Helvetica,sans-Serif" font-size="10.00">select_common_3d_shape</text>
</a>
</g>
</g>
<!-- Node27&#45;&gt;Node28 -->
<g id="edge43" class="edge">
<title>Node27&#45;&gt;Node28</title>
<path fill="none" stroke="midnightblue" d="M642.63,-23.3C634.31,-22.31 625.73,-21.29 617.26,-20.29"/>
<polygon fill="midnightblue" stroke="midnightblue" points="642.27,-26.78 652.61,-24.48 643.09,-19.83 642.27,-26.78"/>
</g>
<!-- Node28&#45;&gt;Node5 -->
<g id="edge44" class="edge">
<title>Node28&#45;&gt;Node5</title>
<path fill="none" stroke="midnightblue" d="M467.66,-1.41C414.48,2.21 343.31,-0.58 289,-30.7 237.17,-59.45 205.41,-128.67 195.15,-154.11"/>
<polygon fill="midnightblue" stroke="midnightblue" points="467.47,-4.91 477.71,-2.18 468.01,2.07 467.47,-4.91"/>
</g>
</g>
</svg>
