<?xml version="1.0" encoding="UTF-8" standalone="no"?>
<!DOCTYPE svg PUBLIC "-//W3C//DTD SVG 1.1//EN"
 "http://www.w3.org/Graphics/SVG/1.1/DTD/svg11.dtd">
<!-- Generated by graphviz version 2.43.0 (0)
 -->
<!-- Title: clamp_zt_1p Pages: 1 -->
<svg width="526pt" height="580pt"
 viewBox="0.00 0.00 526.00 579.98" xmlns="http://www.w3.org/2000/svg" xmlns:xlink="http://www.w3.org/1999/xlink">
<g id="graph0" class="graph" transform="scale(1 1) rotate(0) translate(4 575.98)">
<title>clamp_zt_1p</title>
<polygon fill="white" stroke="transparent" points="-4,4 -4,-575.98 522,-575.98 522,4 -4,4"/>
<!-- Node1 -->
<g id="node1" class="node">
<title>Node1</title>
<g id="a_node1"><a xlink:title="A one piece zip tie clamp to secure wires or provide strain relief.">
<polygon fill="#bfbfbf" stroke="black" points="0,-304.5 0,-323.5 78,-323.5 78,-304.5 0,-304.5"/>
<text text-anchor="middle" x="39" y="-311.5" font-family="Helvetica,sans-Serif" font-size="10.00">clamp_zt_1p</text>
</a>
</g>
</g>
<!-- Node2 -->
<g id="node2" class="node">
<title>Node2</title>
<g id="a_node2"><a xlink:href="group__datatypes__binary.html#ga7ce4ed94d9b389ff817ea219918b8732" target="_top" xlink:title="Test if a binary bit position of an integer value equals a test bit.">
<polygon fill="white" stroke="black" points="293.5,-304.5 293.5,-323.5 372.5,-323.5 372.5,-304.5 293.5,-304.5"/>
<text text-anchor="middle" x="333" y="-311.5" font-family="Helvetica,sans-Serif" font-size="10.00">binary_bit_is</text>
</a>
</g>
</g>
<!-- Node1&#45;&gt;Node2 -->
<g id="edge1" class="edge">
<title>Node1&#45;&gt;Node2</title>
<path fill="none" stroke="midnightblue" d="M78.17,-314C130.71,-314 225.34,-314 283.03,-314"/>
<polygon fill="midnightblue" stroke="midnightblue" points="283.35,-317.5 293.35,-314 283.35,-310.5 283.35,-317.5"/>
</g>
<!-- Node3 -->
<g id="node3" class="node">
<title>Node3</title>
<g id="a_node3"><a xlink:href="group__datatypes__binary.html#ga0a002009bcaa8d53f301c6966bdf1134" target="_top" xlink:title="Decode the binary bits of a bit window to an integer value.">
<polygon fill="white" stroke="black" points="134,-513.5 134,-532.5 207,-532.5 207,-513.5 134,-513.5"/>
<text text-anchor="middle" x="170.5" y="-520.5" font-family="Helvetica,sans-Serif" font-size="10.00">binary_iw2i</text>
</a>
</g>
</g>
<!-- Node1&#45;&gt;Node3 -->
<g id="edge2" class="edge">
<title>Node1&#45;&gt;Node3</title>
<path fill="none" stroke="midnightblue" d="M41.27,-323.86C45.67,-354.06 62.87,-446.43 114,-499 117.7,-502.81 122.11,-506.04 126.79,-508.79"/>
<polygon fill="midnightblue" stroke="midnightblue" points="125.54,-512.08 136.04,-513.49 128.71,-505.84 125.54,-512.08"/>
</g>
<!-- Node4 -->
<g id="node4" class="node">
<title>Node4</title>
<g id="a_node4"><a xlink:href="group__datatypes__iterable__operate.html#ga3d37c2b0067d1661724bd89955c8f6ce" target="_top" xlink:title="Returns an element from an iterable if it exists, or a default value if not.">
<polygon fill="white" stroke="black" points="439,-152.5 439,-171.5 518,-171.5 518,-152.5 439,-152.5"/>
<text text-anchor="middle" x="478.5" y="-159.5" font-family="Helvetica,sans-Serif" font-size="10.00">defined_e_or</text>
</a>
</g>
</g>
<!-- Node1&#45;&gt;Node4 -->
<g id="edge3" class="edge">
<title>Node1&#45;&gt;Node4</title>
<path fill="none" stroke="midnightblue" d="M45,-304.23C55.4,-284.78 81.13,-240.9 114,-215 170.61,-170.4 192.41,-165.52 263,-151 318.96,-139.49 384.77,-145.7 428.6,-152.54"/>
<polygon fill="midnightblue" stroke="midnightblue" points="428.26,-156.03 438.7,-154.19 429.39,-149.12 428.26,-156.03"/>
</g>
<!-- Node5 -->
<g id="node5" class="node">
<title>Node5</title>
<g id="a_node5"><a xlink:href="group__transforms__extrude.html#ga45661244067bf945b684550c3263ee45" target="_top" xlink:title="Linearly extrude a 2d shape with multi&#45;segment uniformly&#45;spaced profile scaling.">
<polygon fill="white" stroke="black" points="114,-380.5 114,-399.5 227,-399.5 227,-380.5 114,-380.5"/>
<text text-anchor="middle" x="170.5" y="-387.5" font-family="Helvetica,sans-Serif" font-size="10.00">extrude_linear_mss</text>
</a>
</g>
</g>
<!-- Node1&#45;&gt;Node5 -->
<g id="edge4" class="edge">
<title>Node1&#45;&gt;Node5</title>
<path fill="none" stroke="midnightblue" d="M52.06,-323.64C66.31,-334.75 90.98,-353.11 114,-366 120.61,-369.7 127.91,-373.22 134.98,-376.37"/>
<polygon fill="midnightblue" stroke="midnightblue" points="133.82,-379.69 144.39,-380.42 136.59,-373.26 133.82,-379.69"/>
</g>
<!-- Node6 -->
<g id="node6" class="node">
<title>Node6</title>
<g id="a_node6"><a xlink:href="group__transforms__extrude.html#gab2442cfaf1ad44d6e295ab0979d9e03d" target="_top" xlink:title="Linearly extrude a 2d shape with uniformly&#45;spaced profile scaling.">
<polygon fill="white" stroke="black" points="278.5,-342.5 278.5,-361.5 387.5,-361.5 387.5,-342.5 278.5,-342.5"/>
<text text-anchor="middle" x="333" y="-349.5" font-family="Helvetica,sans-Serif" font-size="10.00">extrude_linear_uss</text>
</a>
</g>
</g>
<!-- Node1&#45;&gt;Node6 -->
<g id="edge13" class="edge">
<title>Node1&#45;&gt;Node6</title>
<path fill="none" stroke="midnightblue" d="M78.31,-321.83C89.76,-324.01 102.36,-326.26 114,-328 165.6,-335.71 224.41,-342.04 267.94,-346.26"/>
<polygon fill="midnightblue" stroke="midnightblue" points="267.81,-349.77 278.1,-347.24 268.48,-342.8 267.81,-349.77"/>
</g>
<!-- Node7 -->
<g id="node7" class="node">
<title>Node7</title>
<g id="a_node7"><a xlink:href="group__datatypes__iterable__operate.html#gaccab3e37e43cb1d882713b3f3d6d9e1b" target="_top" xlink:title="Return the first element of an iterable value.">
<polygon fill="white" stroke="black" points="461,-456.5 461,-475.5 496,-475.5 496,-456.5 461,-456.5"/>
<text text-anchor="middle" x="478.5" y="-463.5" font-family="Helvetica,sans-Serif" font-size="10.00">first</text>
</a>
</g>
</g>
<!-- Node1&#45;&gt;Node7 -->
<g id="edge20" class="edge">
<title>Node1&#45;&gt;Node7</title>
<path fill="none" stroke="midnightblue" d="M39.57,-323.55C38.53,-359.65 40.28,-488.42 114,-542 222.64,-620.96 395.15,-521.1 455.66,-481.15"/>
<polygon fill="midnightblue" stroke="midnightblue" points="457.72,-483.99 464.07,-475.51 453.82,-478.17 457.72,-483.99"/>
</g>
<!-- Node9 -->
<g id="node9" class="node">
<title>Node9</title>
<g id="a_node9"><a xlink:href="group__datatypes__iterable__operate.html#ga894d4bec62cc9cf38d5e099de3028c54" target="_top" xlink:title="Return the second element of an iterable value.">
<polygon fill="white" stroke="black" points="453,-380.5 453,-399.5 504,-399.5 504,-380.5 453,-380.5"/>
<text text-anchor="middle" x="478.5" y="-387.5" font-family="Helvetica,sans-Serif" font-size="10.00">second</text>
</a>
</g>
</g>
<!-- Node1&#45;&gt;Node9 -->
<g id="edge29" class="edge">
<title>Node1&#45;&gt;Node9</title>
<path fill="none" stroke="midnightblue" d="M44.64,-323.51C54.55,-342.8 79.71,-386.57 114,-409 171.19,-446.42 195.19,-438.49 263,-447 324.74,-454.75 344.07,-466.96 403,-447 426.21,-439.14 447.87,-420.83 461.79,-407.07"/>
<polygon fill="midnightblue" stroke="midnightblue" points="464.58,-409.21 469.04,-399.6 459.56,-404.34 464.58,-409.21"/>
</g>
<!-- Node11 -->
<g id="node11" class="node">
<title>Node11</title>
<g id="a_node11"><a xlink:href="group__transforms__extrude.html#ga78405b5fa18461a302a2f24646499ece" target="_top" xlink:title="Translate, rotate, and revolve a 2d shape about the z&#45;axis with linear elongation.">
<polygon fill="white" stroke="black" points="118.5,-266.5 118.5,-285.5 222.5,-285.5 222.5,-266.5 118.5,-266.5"/>
<text text-anchor="middle" x="170.5" y="-273.5" font-family="Helvetica,sans-Serif" font-size="10.00">extrude_rotate_trl</text>
</a>
</g>
</g>
<!-- Node1&#45;&gt;Node11 -->
<g id="edge14" class="edge">
<title>Node1&#45;&gt;Node11</title>
<path fill="none" stroke="midnightblue" d="M72.68,-304.41C89.09,-299.6 109.18,-293.7 126.79,-288.53"/>
<polygon fill="midnightblue" stroke="midnightblue" points="128.22,-291.76 136.83,-285.59 126.25,-285.04 128.22,-291.76"/>
</g>
<!-- Node14 -->
<g id="node14" class="node">
<title>Node14</title>
<g id="a_node14"><a xlink:href="group__shapes__polygon.html#ga9c1bd914355d92f9d66ba0e5c2d9dbac" target="_top" xlink:title="A polygon rectangle with vertex rounding.">
<polygon fill="white" stroke="black" points="130.5,-76.5 130.5,-95.5 210.5,-95.5 210.5,-76.5 130.5,-76.5"/>
<text text-anchor="middle" x="170.5" y="-83.5" font-family="Helvetica,sans-Serif" font-size="10.00">pg_rectangle</text>
</a>
</g>
</g>
<!-- Node1&#45;&gt;Node14 -->
<g id="edge21" class="edge">
<title>Node1&#45;&gt;Node14</title>
<path fill="none" stroke="midnightblue" d="M40.86,-304.07C44.15,-271.81 58.73,-168.7 114,-110 117.6,-106.18 121.9,-102.94 126.51,-100.19"/>
<polygon fill="midnightblue" stroke="midnightblue" points="128.32,-103.19 135.61,-95.5 125.12,-96.97 128.32,-103.19"/>
</g>
<!-- Node17 -->
<g id="node17" class="node">
<title>Node17</title>
<g id="a_node17"><a xlink:href="group__shapes__common__2d.html#ga418d0856a660b285e273037b014d31f7" target="_top" xlink:title="A rhombus.">
<polygon fill="white" stroke="black" points="303.5,-190.5 303.5,-209.5 362.5,-209.5 362.5,-190.5 303.5,-190.5"/>
<text text-anchor="middle" x="333" y="-197.5" font-family="Helvetica,sans-Serif" font-size="10.00">rhombus</text>
</a>
</g>
</g>
<!-- Node1&#45;&gt;Node17 -->
<g id="edge25" class="edge">
<title>Node1&#45;&gt;Node17</title>
<path fill="none" stroke="midnightblue" d="M49.66,-304.46C63.01,-291.8 88.38,-269.57 114,-257 172.98,-228.07 248.38,-212.57 293.28,-205.33"/>
<polygon fill="midnightblue" stroke="midnightblue" points="293.86,-208.78 303.2,-203.78 292.78,-201.86 293.86,-208.78"/>
</g>
<!-- Node19 -->
<g id="node19" class="node">
<title>Node19</title>
<g id="a_node19"><a xlink:href="group__datatypes__list__operate.html#ga7b8e6f2bbfa72ae61e39377e5ca6b5be" target="_top" xlink:title="Select specified element from list or return a default.">
<polygon fill="white" stroke="black" points="141,-38.5 141,-57.5 200,-57.5 200,-38.5 141,-38.5"/>
<text text-anchor="middle" x="170.5" y="-45.5" font-family="Helvetica,sans-Serif" font-size="10.00">select_ci</text>
</a>
</g>
</g>
<!-- Node1&#45;&gt;Node19 -->
<g id="edge30" class="edge">
<title>Node1&#45;&gt;Node19</title>
<path fill="none" stroke="midnightblue" d="M39.93,-304.44C40.2,-268.18 46.03,-137.65 114,-67 118.79,-62.02 124.94,-58.34 131.4,-55.63"/>
<polygon fill="midnightblue" stroke="midnightblue" points="132.65,-58.9 140.94,-52.31 130.35,-52.29 132.65,-58.9"/>
</g>
<!-- Node5&#45;&gt;Node6 -->
<g id="edge5" class="edge">
<title>Node5&#45;&gt;Node6</title>
<path fill="none" stroke="midnightblue" d="M212,-380.41C233.18,-375.4 259.3,-369.21 281.76,-363.89"/>
<polygon fill="midnightblue" stroke="midnightblue" points="282.87,-367.23 291.79,-361.52 281.25,-360.42 282.87,-367.23"/>
</g>
<!-- Node5&#45;&gt;Node7 -->
<g id="edge10" class="edge">
<title>Node5&#45;&gt;Node7</title>
<path fill="none" stroke="midnightblue" d="M183.01,-399.71C199.51,-413 231.41,-436.43 263,-447 327.77,-468.66 409.32,-469.08 450.73,-467.55"/>
<polygon fill="midnightblue" stroke="midnightblue" points="450.99,-471.04 460.83,-467.1 450.68,-464.05 450.99,-471.04"/>
</g>
<!-- Node8 -->
<g id="node8" class="node">
<title>Node8</title>
<g id="a_node8"><a xlink:href="group__datatypes__scalar__test.html#ga258e8911375d30ff85a6e52df01dc1c5" target="_top" xlink:title="Test if a value is a single non&#45;iterable value.">
<polygon fill="white" stroke="black" points="449,-304.5 449,-323.5 508,-323.5 508,-304.5 449,-304.5"/>
<text text-anchor="middle" x="478.5" y="-311.5" font-family="Helvetica,sans-Serif" font-size="10.00">is_scalar</text>
</a>
</g>
</g>
<!-- Node5&#45;&gt;Node8 -->
<g id="edge11" class="edge">
<title>Node5&#45;&gt;Node8</title>
<path fill="none" stroke="midnightblue" d="M227.23,-394.06C275.38,-395.57 345.99,-392.95 403,-371 425.61,-362.29 447.11,-344.45 461.15,-331.04"/>
<polygon fill="midnightblue" stroke="midnightblue" points="463.86,-333.27 468.5,-323.75 458.93,-328.3 463.86,-333.27"/>
</g>
<!-- Node10 -->
<g id="node10" class="node">
<title>Node10</title>
<g id="a_node10"><a xlink:href="group__datatypes__list__operate.html#gae12565005038993506dc37249e32766d" target="_top" xlink:title="Compute the sum of a list of numbers.">
<polygon fill="white" stroke="black" points="314,-418.5 314,-437.5 352,-437.5 352,-418.5 314,-418.5"/>
<text text-anchor="middle" x="333" y="-425.5" font-family="Helvetica,sans-Serif" font-size="10.00">sum</text>
</a>
</g>
</g>
<!-- Node5&#45;&gt;Node10 -->
<g id="edge12" class="edge">
<title>Node5&#45;&gt;Node10</title>
<path fill="none" stroke="midnightblue" d="M212,-399.59C240.73,-406.39 278.55,-415.35 303.99,-421.37"/>
<polygon fill="midnightblue" stroke="midnightblue" points="303.21,-424.78 313.74,-423.68 304.82,-417.97 303.21,-424.78"/>
</g>
<!-- Node6&#45;&gt;Node4 -->
<g id="edge6" class="edge">
<title>Node6&#45;&gt;Node4</title>
<path fill="none" stroke="midnightblue" d="M387.75,-343.58C393.43,-340.92 398.69,-337.47 403,-333 451.2,-283.03 395.75,-235.31 439,-181 439.96,-179.8 441.01,-178.67 442.14,-177.6"/>
<polygon fill="midnightblue" stroke="midnightblue" points="444.44,-180.25 450.42,-171.5 440.29,-174.61 444.44,-180.25"/>
</g>
<!-- Node6&#45;&gt;Node7 -->
<g id="edge7" class="edge">
<title>Node6&#45;&gt;Node7</title>
<path fill="none" stroke="midnightblue" d="M346.23,-361.72C370.91,-381.32 426.86,-425.77 457.14,-449.82"/>
<polygon fill="midnightblue" stroke="midnightblue" points="455.29,-452.83 465.3,-456.31 459.64,-447.34 455.29,-452.83"/>
</g>
<!-- Node6&#45;&gt;Node8 -->
<g id="edge8" class="edge">
<title>Node6&#45;&gt;Node8</title>
<path fill="none" stroke="midnightblue" d="M370.21,-342.41C391.28,-336.83 417.83,-329.8 439.24,-324.13"/>
<polygon fill="midnightblue" stroke="midnightblue" points="440.22,-327.49 448.99,-321.55 438.43,-320.73 440.22,-327.49"/>
</g>
<!-- Node6&#45;&gt;Node9 -->
<g id="edge9" class="edge">
<title>Node6&#45;&gt;Node9</title>
<path fill="none" stroke="midnightblue" d="M370.21,-361.59C392.43,-367.47 420.73,-374.97 442.69,-380.78"/>
<polygon fill="midnightblue" stroke="midnightblue" points="442.03,-384.23 452.6,-383.41 443.83,-377.46 442.03,-384.23"/>
</g>
<!-- Node11&#45;&gt;Node2 -->
<g id="edge15" class="edge">
<title>Node11&#45;&gt;Node2</title>
<path fill="none" stroke="midnightblue" d="M212,-285.59C233.76,-290.74 260.74,-297.13 283.6,-302.54"/>
<polygon fill="midnightblue" stroke="midnightblue" points="282.91,-305.97 293.45,-304.87 284.52,-299.16 282.91,-305.97"/>
</g>
<!-- Node11&#45;&gt;Node4 -->
<g id="edge16" class="edge">
<title>Node11&#45;&gt;Node4</title>
<path fill="none" stroke="midnightblue" d="M177.36,-266.29C190.06,-246.23 222.31,-200.47 263,-181 315.56,-155.85 383.63,-154.28 428.84,-156.9"/>
<polygon fill="midnightblue" stroke="midnightblue" points="428.76,-160.41 438.97,-157.58 429.23,-153.42 428.76,-160.41"/>
</g>
<!-- Node11&#45;&gt;Node8 -->
<g id="edge19" class="edge">
<title>Node11&#45;&gt;Node8</title>
<path fill="none" stroke="midnightblue" d="M222.84,-277.74C269.95,-279.93 341.55,-284.72 403,-295 414.81,-296.98 427.49,-299.9 438.99,-302.87"/>
<polygon fill="midnightblue" stroke="midnightblue" points="438.16,-306.27 448.73,-305.46 439.97,-299.51 438.16,-306.27"/>
</g>
<!-- Node12 -->
<g id="node12" class="node">
<title>Node12</title>
<g id="a_node12"><a xlink:href="group__transforms__extrude.html#ga31947e37a3512d9814d47f8f8c960f84" target="_top" xlink:title="Translate, rotate, and revolve a 2d shape about the z&#45;axis.">
<polygon fill="white" stroke="black" points="282.5,-228.5 282.5,-247.5 383.5,-247.5 383.5,-228.5 282.5,-228.5"/>
<text text-anchor="middle" x="333" y="-235.5" font-family="Helvetica,sans-Serif" font-size="10.00">extrude_rotate_tr</text>
</a>
</g>
</g>
<!-- Node11&#45;&gt;Node12 -->
<g id="edge17" class="edge">
<title>Node11&#45;&gt;Node12</title>
<path fill="none" stroke="midnightblue" d="M212,-266.41C233.18,-261.4 259.3,-255.21 281.76,-249.89"/>
<polygon fill="midnightblue" stroke="midnightblue" points="282.87,-253.23 291.79,-247.52 281.25,-246.42 282.87,-253.23"/>
</g>
<!-- Node13 -->
<g id="node13" class="node">
<title>Node13</title>
<g id="a_node13"><a xlink:href="group__units__angle.html#ga06a917b77748dfb74e765bcd7c4c0219" target="_top" xlink:title="Convert an angle value from one unit to another.">
<polygon fill="white" stroke="black" points="456.5,-228.5 456.5,-247.5 500.5,-247.5 500.5,-228.5 456.5,-228.5"/>
<text text-anchor="middle" x="478.5" y="-235.5" font-family="Helvetica,sans-Serif" font-size="10.00">angle</text>
</a>
</g>
</g>
<!-- Node12&#45;&gt;Node13 -->
<g id="edge18" class="edge">
<title>Node12&#45;&gt;Node13</title>
<path fill="none" stroke="midnightblue" d="M383.79,-238C404.49,-238 427.9,-238 446.14,-238"/>
<polygon fill="midnightblue" stroke="midnightblue" points="446.23,-241.5 456.23,-238 446.23,-234.5 446.23,-241.5"/>
</g>
<!-- Node14&#45;&gt;Node4 -->
<g id="edge22" class="edge">
<title>Node14&#45;&gt;Node4</title>
<path fill="none" stroke="midnightblue" d="M210.53,-84.19C257.66,-83.32 338.62,-86.04 403,-110 424.5,-118 445.62,-133.7 459.85,-145.76"/>
<polygon fill="midnightblue" stroke="midnightblue" points="457.55,-148.4 467.38,-152.36 462.17,-143.14 457.55,-148.4"/>
</g>
<!-- Node15 -->
<g id="node15" class="node">
<title>Node15</title>
<g id="a_node15"><a xlink:href="group__math__polygon.html#ga7a0eff64929a142fc507615f83e3bd58" target="_top" xlink:title="Compute coordinates that round all of the vertices between each adjacent edges in 2D.">
<polygon fill="white" stroke="black" points="263,-38.5 263,-57.5 403,-57.5 403,-38.5 263,-38.5"/>
<text text-anchor="middle" x="333" y="-45.5" font-family="Helvetica,sans-Serif" font-size="10.00">polygon_round_eve_all_p</text>
</a>
</g>
</g>
<!-- Node14&#45;&gt;Node15 -->
<g id="edge23" class="edge">
<title>Node14&#45;&gt;Node15</title>
<path fill="none" stroke="midnightblue" d="M210.76,-76.7C232.19,-71.63 258.94,-65.3 281.85,-59.87"/>
<polygon fill="midnightblue" stroke="midnightblue" points="282.82,-63.24 291.75,-57.53 281.21,-56.43 282.82,-63.24"/>
</g>
<!-- Node16 -->
<g id="node16" class="node">
<title>Node16</title>
<g id="a_node16"><a xlink:href="group__math__linear__algebra.html#gaeabe74699fd0a437bad9a1d442bfd111" target="_top" xlink:title="Translate all coordinates dimensions.">
<polygon fill="white" stroke="black" points="297.5,-0.5 297.5,-19.5 368.5,-19.5 368.5,-0.5 297.5,-0.5"/>
<text text-anchor="middle" x="333" y="-7.5" font-family="Helvetica,sans-Serif" font-size="10.00">translate_p</text>
</a>
</g>
</g>
<!-- Node14&#45;&gt;Node16 -->
<g id="edge24" class="edge">
<title>Node14&#45;&gt;Node16</title>
<path fill="none" stroke="midnightblue" d="M207.61,-76.48C214.33,-73.93 221.09,-70.8 227,-67 246.57,-54.42 243.05,-40.97 263,-29 270.43,-24.54 278.93,-21.1 287.36,-18.46"/>
<polygon fill="midnightblue" stroke="midnightblue" points="288.49,-21.78 297.17,-15.71 286.6,-15.04 288.49,-21.78"/>
</g>
<!-- Node17&#45;&gt;Node4 -->
<g id="edge27" class="edge">
<title>Node17&#45;&gt;Node4</title>
<path fill="none" stroke="midnightblue" d="M362.69,-192.4C382.43,-187.18 409.06,-180.12 431.71,-174.13"/>
<polygon fill="midnightblue" stroke="midnightblue" points="432.69,-177.49 441.46,-171.54 430.9,-170.72 432.69,-177.49"/>
</g>
<!-- Node17&#45;&gt;Node8 -->
<g id="edge28" class="edge">
<title>Node17&#45;&gt;Node8</title>
<path fill="none" stroke="midnightblue" d="M362.57,-203.67C375.71,-206.36 391,-211.01 403,-219 418.55,-229.35 448.56,-271.34 465.36,-295.89"/>
<polygon fill="midnightblue" stroke="midnightblue" points="462.58,-298.03 471.09,-304.35 468.37,-294.1 462.58,-298.03"/>
</g>
<!-- Node18 -->
<g id="node18" class="node">
<title>Node18</title>
<g id="a_node18"><a xlink:href="group__datatypes__euclidean.html#ga3d5c07c70f271bcf9144f50ce8620a89" target="_top" xlink:title="Compute the angle between two lines or vectors in a 3d or 2d&#45;space.">
<polygon fill="white" stroke="black" points="451,-190.5 451,-209.5 506,-209.5 506,-190.5 451,-190.5"/>
<text text-anchor="middle" x="478.5" y="-197.5" font-family="Helvetica,sans-Serif" font-size="10.00">angle_ll</text>
</a>
</g>
</g>
<!-- Node17&#45;&gt;Node18 -->
<g id="edge26" class="edge">
<title>Node17&#45;&gt;Node18</title>
<path fill="none" stroke="midnightblue" d="M362.69,-200C385.07,-200 416.3,-200 440.54,-200"/>
<polygon fill="midnightblue" stroke="midnightblue" points="440.79,-203.5 450.79,-200 440.79,-196.5 440.79,-203.5"/>
</g>
</g>
</svg>
