<?xml version="1.0" encoding="UTF-8" standalone="no"?>
<!DOCTYPE svg PUBLIC "-//W3C//DTD SVG 1.1//EN"
 "http://www.w3.org/Graphics/SVG/1.1/DTD/svg11.dtd">
<!-- Generated by graphviz version 2.43.0 (0)
 -->
<!-- Title: align_ll Pages: 1 -->
<svg width="271pt" height="218pt"
 viewBox="0.00 0.00 271.00 218.00" xmlns="http://www.w3.org/2000/svg" xmlns:xlink="http://www.w3.org/1999/xlink">
<g id="graph0" class="graph" transform="scale(1 1) rotate(0) translate(4 214)">
<title>align_ll</title>
<polygon fill="white" stroke="transparent" points="-4,4 -4,-214 267,-214 267,4 -4,4"/>
<!-- Node1 -->
<g id="node1" class="node">
<title>Node1</title>
<g id="a_node1"><a xlink:title="Align a line or vector to a reference line or vector.">
<polygon fill="#bfbfbf" stroke="black" points="0,-95.5 0,-114.5 52,-114.5 52,-95.5 0,-95.5"/>
<text text-anchor="middle" x="26" y="-102.5" font-family="Helvetica,sans-Serif" font-size="10.00">align_ll</text>
</a>
</g>
</g>
<!-- Node2 -->
<g id="node2" class="node">
<title>Node2</title>
<g id="a_node2"><a xlink:href="group__datatypes__euclidean.html#ga8115b05f16bcc197e3e339a65f4d3e49" target="_top" xlink:title="Return the initial point of a line or vector.">
<polygon fill="white" stroke="black" points="93,-190.5 93,-209.5 142,-209.5 142,-190.5 93,-190.5"/>
<text text-anchor="middle" x="117.5" y="-197.5" font-family="Helvetica,sans-Serif" font-size="10.00">line_ip</text>
</a>
</g>
</g>
<!-- Node1&#45;&gt;Node2 -->
<g id="edge1" class="edge">
<title>Node1&#45;&gt;Node2</title>
<path fill="none" stroke="midnightblue" d="M33.31,-114.67C43.57,-129.91 65.04,-159.98 88,-181 89.27,-182.16 90.61,-183.3 92,-184.41"/>
<polygon fill="midnightblue" stroke="midnightblue" points="90.04,-187.31 100.18,-190.36 94.15,-181.65 90.04,-187.31"/>
</g>
<!-- Node3 -->
<g id="node3" class="node">
<title>Node3</title>
<g id="a_node3"><a xlink:href="group__datatypes__euclidean.html#ga299bce4158dc8d0a7a8e7d9967b8ea4e" target="_top" xlink:title="Return the terminal point of a line or vector.">
<polygon fill="white" stroke="black" points="92.5,-152.5 92.5,-171.5 142.5,-171.5 142.5,-152.5 92.5,-152.5"/>
<text text-anchor="middle" x="117.5" y="-159.5" font-family="Helvetica,sans-Serif" font-size="10.00">line_tp</text>
</a>
</g>
</g>
<!-- Node1&#45;&gt;Node3 -->
<g id="edge2" class="edge">
<title>Node1&#45;&gt;Node3</title>
<path fill="none" stroke="midnightblue" d="M42.18,-114.67C56.02,-123.48 76.7,-136.65 92.73,-146.86"/>
<polygon fill="midnightblue" stroke="midnightblue" points="91.23,-150.05 101.54,-152.47 94.99,-144.15 91.23,-150.05"/>
</g>
<!-- Node4 -->
<g id="node4" class="node">
<title>Node4</title>
<g id="a_node4"><a xlink:href="group__datatypes__list__operate.html#ga1088f9b09ff8ed12e2c844758f39c039" target="_top" xlink:title="Compute the mean/average of a list of numbers.">
<polygon fill="white" stroke="black" points="95.5,-114.5 95.5,-133.5 139.5,-133.5 139.5,-114.5 95.5,-114.5"/>
<text text-anchor="middle" x="117.5" y="-121.5" font-family="Helvetica,sans-Serif" font-size="10.00">mean</text>
</a>
</g>
</g>
<!-- Node1&#45;&gt;Node4 -->
<g id="edge3" class="edge">
<title>Node1&#45;&gt;Node4</title>
<path fill="none" stroke="midnightblue" d="M52.41,-110.39C62.67,-112.57 74.61,-115.11 85.38,-117.39"/>
<polygon fill="midnightblue" stroke="midnightblue" points="84.76,-120.84 95.26,-119.49 86.21,-113.99 84.76,-120.84"/>
</g>
<!-- Node5 -->
<g id="node5" class="node">
<title>Node5</title>
<g id="a_node5"><a xlink:href="group__transforms__align.html#ga8f52a6a936d0f5e248f836d19df14a9f" target="_top" xlink:title="Orient a line or vector to a reference line or vector.">
<polygon fill="white" stroke="black" points="89.5,-76.5 89.5,-95.5 145.5,-95.5 145.5,-76.5 89.5,-76.5"/>
<text text-anchor="middle" x="117.5" y="-83.5" font-family="Helvetica,sans-Serif" font-size="10.00">orient_ll</text>
</a>
</g>
</g>
<!-- Node1&#45;&gt;Node5 -->
<g id="edge4" class="edge">
<title>Node1&#45;&gt;Node5</title>
<path fill="none" stroke="midnightblue" d="M52.41,-99.61C60.82,-97.82 70.36,-95.8 79.46,-93.86"/>
<polygon fill="midnightblue" stroke="midnightblue" points="80.41,-97.24 89.46,-91.74 78.96,-90.39 80.41,-97.24"/>
</g>
<!-- Node7 -->
<g id="node7" class="node">
<title>Node7</title>
<g id="a_node7"><a xlink:href="group__datatypes__euclidean.html#ga78d67c74076bef2e80a95b1e9b6eb2d7" target="_top" xlink:title="Return 3d point unchanged or add a zeroed third dimension to 2d point.">
<polygon fill="white" stroke="black" points="186,-38.5 186,-57.5 260,-57.5 260,-38.5 186,-38.5"/>
<text text-anchor="middle" x="223" y="-45.5" font-family="Helvetica,sans-Serif" font-size="10.00">point_to_3d</text>
</a>
</g>
</g>
<!-- Node1&#45;&gt;Node7 -->
<g id="edge8" class="edge">
<title>Node1&#45;&gt;Node7</title>
<path fill="none" stroke="midnightblue" d="M39.28,-95.18C51.06,-86.31 69.71,-73.66 88,-67 116.07,-56.79 149.3,-52.03 175.65,-49.83"/>
<polygon fill="midnightblue" stroke="midnightblue" points="176.04,-53.31 185.75,-49.08 175.52,-46.33 176.04,-53.31"/>
</g>
<!-- Node9 -->
<g id="node9" class="node">
<title>Node9</title>
<g id="a_node9"><a xlink:href="group__datatypes__list__operate.html#ga7b8e6f2bbfa72ae61e39377e5ca6b5be" target="_top" xlink:title="Select specified element from list or return a default.">
<polygon fill="white" stroke="black" points="88,-0.5 88,-19.5 147,-19.5 147,-0.5 88,-0.5"/>
<text text-anchor="middle" x="117.5" y="-7.5" font-family="Helvetica,sans-Serif" font-size="10.00">select_ci</text>
</a>
</g>
</g>
<!-- Node1&#45;&gt;Node9 -->
<g id="edge9" class="edge">
<title>Node1&#45;&gt;Node9</title>
<path fill="none" stroke="midnightblue" d="M34.44,-95.38C45.5,-81.32 67.21,-54.58 88,-34 90.61,-31.42 93.46,-28.8 96.32,-26.29"/>
<polygon fill="midnightblue" stroke="midnightblue" points="98.82,-28.76 104.2,-19.63 94.3,-23.41 98.82,-28.76"/>
</g>
<!-- Node6 -->
<g id="node6" class="node">
<title>Node6</title>
<g id="a_node6"><a xlink:href="group__datatypes__euclidean.html#ga3d5c07c70f271bcf9144f50ce8620a89" target="_top" xlink:title="Compute the angle between two lines or vectors in a 3d or 2d&#45;space.">
<polygon fill="white" stroke="black" points="195.5,-114.5 195.5,-133.5 250.5,-133.5 250.5,-114.5 195.5,-114.5"/>
<text text-anchor="middle" x="223" y="-121.5" font-family="Helvetica,sans-Serif" font-size="10.00">angle_ll</text>
</a>
</g>
</g>
<!-- Node5&#45;&gt;Node6 -->
<g id="edge5" class="edge">
<title>Node5&#45;&gt;Node6</title>
<path fill="none" stroke="midnightblue" d="M144.62,-95.59C157.24,-100.22 172.59,-105.86 186.28,-110.89"/>
<polygon fill="midnightblue" stroke="midnightblue" points="185.3,-114.25 195.89,-114.41 187.71,-107.68 185.3,-114.25"/>
</g>
<!-- Node5&#45;&gt;Node7 -->
<g id="edge6" class="edge">
<title>Node5&#45;&gt;Node7</title>
<path fill="none" stroke="midnightblue" d="M144.62,-76.41C157.24,-71.78 172.59,-66.14 186.28,-61.11"/>
<polygon fill="midnightblue" stroke="midnightblue" points="187.71,-64.32 195.89,-57.59 185.3,-57.75 187.71,-64.32"/>
</g>
<!-- Node8 -->
<g id="node8" class="node">
<title>Node8</title>
<g id="a_node8"><a xlink:href="group__datatypes__euclidean.html#ga6ef2a81f304d31b9ec9753ca4875ad45" target="_top" xlink:title="Convert line to vector by shifting it to the origin.">
<polygon fill="white" stroke="black" points="183,-76.5 183,-95.5 263,-95.5 263,-76.5 183,-76.5"/>
<text text-anchor="middle" x="223" y="-83.5" font-family="Helvetica,sans-Serif" font-size="10.00">vol_to_origin</text>
</a>
</g>
</g>
<!-- Node5&#45;&gt;Node8 -->
<g id="edge7" class="edge">
<title>Node5&#45;&gt;Node8</title>
<path fill="none" stroke="midnightblue" d="M145.69,-86C154.05,-86 163.52,-86 172.87,-86"/>
<polygon fill="midnightblue" stroke="midnightblue" points="172.92,-89.5 182.92,-86 172.92,-82.5 172.92,-89.5"/>
</g>
</g>
</svg>
