<?xml version="1.0" encoding="UTF-8" standalone="no"?>
<!DOCTYPE svg PUBLIC "-//W3C//DTD SVG 1.1//EN"
 "http://www.w3.org/Graphics/SVG/1.1/DTD/svg11.dtd">
<!-- Generated by graphviz version 2.43.0 (0)
 -->
<!-- Title: Dovetails Pages: 1 -->
<svg width="211pt" height="29pt"
 viewBox="0.00 0.00 211.00 28.50" xmlns="http://www.w3.org/2000/svg" xmlns:xlink="http://www.w3.org/1999/xlink">
<g id="graph0" class="graph" transform="scale(1 1) rotate(0) translate(4 24.5)">
<title>Dovetails</title>
<polygon fill="white" stroke="transparent" points="-4,4 -4,-24.5 207,-24.5 207,4 -4,4"/>
<!-- Node1 -->
<g id="node1" class="node">
<title>Node1</title>
<g id="a_node1"><a xlink:title="Models for generating dovetailed joints in 2d.">
<polygon fill="#bfbfbf" stroke="black" points="63,-19 0,-19 0,0 63,0 63,-19"/>
<text text-anchor="middle" x="31.5" y="-7" font-family="Helvetica,sans-Serif" font-size="10.00">Dovetails</text>
</a>
</g>
</g>
<!-- Node2 -->
<g id="node2" class="node">
<title>Node2</title>
<g id="a_node2"><a xlink:href="group__models__2d__joint.html" target="_top" xlink:title="Models for connecting 2d planar members.">
<polygon fill="white" stroke="black" points="203,-19 165,-19 165,0 203,0 203,-19"/>
<text text-anchor="middle" x="184" y="-7" font-family="Helvetica,sans-Serif" font-size="10.00">Joint</text>
</a>
</g>
</g>
<!-- Node1&#45;&gt;Node2 -->
<g id="edge2" class="edge">
<title>Node1&#45;&gt;Node2</title>
<path fill="none" stroke="darkgreen" stroke-dasharray="5,2" d="M63.32,-9.5C93.93,-9.5 139.84,-9.5 164.97,-9.5"/>
<text text-anchor="middle" x="114" y="-12.5" font-family="Helvetica,sans-Serif" font-size="10.00">dovetail.scad</text>
</g>
<!-- Node2&#45;&gt;Node1 -->
<g id="edge1" class="edge">
<title>Node2&#45;&gt;Node1</title>
<path fill="none" stroke="black" d="M154.48,-7.77C151.95,-7.66 149.43,-7.57 147,-7.5 117.68,-6.69 110.33,-6.9 81,-7.5 75.19,-7.62 68.98,-7.82 63.02,-8.05"/>
<polygon fill="black" stroke="black" points="154.53,-11.28 164.69,-8.29 154.88,-4.29 154.53,-11.28"/>
</g>
</g>
</svg>
