<?xml version="1.0" encoding="UTF-8" standalone="no"?>
<!DOCTYPE svg PUBLIC "-//W3C//DTD SVG 1.1//EN"
 "http://www.w3.org/Graphics/SVG/1.1/DTD/svg11.dtd">
<!-- Generated by graphviz version 2.43.0 (0)
 -->
<!-- Title: binary_bit_is Pages: 1 -->
<svg width="723pt" height="566pt"
 viewBox="0.00 0.00 723.00 566.37" xmlns="http://www.w3.org/2000/svg" xmlns:xlink="http://www.w3.org/1999/xlink">
<g id="graph0" class="graph" transform="scale(1 1) rotate(0) translate(4 562.37)">
<title>binary_bit_is</title>
<polygon fill="white" stroke="transparent" points="-4,4 -4,-562.37 719,-562.37 719,4 -4,4"/>
<!-- Node1 -->
<g id="node1" class="node">
<title>Node1</title>
<g id="a_node1"><a xlink:title="Test if a binary bit position of an integer value equals a test bit.">
<polygon fill="#bfbfbf" stroke="black" points="636,-272.87 636,-291.87 715,-291.87 715,-272.87 636,-272.87"/>
<text text-anchor="middle" x="675.5" y="-279.87" font-family="Helvetica,sans-Serif" font-size="10.00">binary_bit_is</text>
</a>
</g>
</g>
<!-- Node2 -->
<g id="node2" class="node">
<title>Node2</title>
<g id="a_node2"><a xlink:href="group__parts__3d__motion__bearing__linear__rod.html#ga0064887f7c89f8915895c0243bec4a4c" target="_top" xlink:title="Transform 2d or 3d shape into a linear rod ball or sled bearing.">
<polygon fill="white" stroke="black" points="482,-538.87 482,-557.87 589,-557.87 589,-538.87 482,-538.87"/>
<text text-anchor="middle" x="535.5" y="-545.87" font-family="Helvetica,sans-Serif" font-size="10.00">bearing_linear_rod</text>
</a>
</g>
</g>
<!-- Node1&#45;&gt;Node2 -->
<g id="edge1" class="edge">
<title>Node1&#45;&gt;Node2</title>
<path fill="none" stroke="midnightblue" d="M674.5,-302.25C673.39,-348.75 664.01,-465.5 600,-529.37 596.09,-533.27 591.41,-536.37 586.4,-538.85"/>
<polygon fill="midnightblue" stroke="midnightblue" points="678,-302.06 674.63,-292.01 671,-301.97 678,-302.06"/>
</g>
<!-- Node3 -->
<g id="node3" class="node">
<title>Node3</title>
<g id="a_node3"><a xlink:href="group__parts__2d__enclosure__box__finger__joint.html#gacc1bfb220bc3cfed46dcaa3b84898020" target="_top" xlink:title="Generate a 2D box design using screw&#45;based finger joint (box&#45;joint).">
<polygon fill="white" stroke="black" points="308.5,-481.87 308.5,-500.87 415.5,-500.87 415.5,-481.87 308.5,-481.87"/>
<text text-anchor="middle" x="362" y="-488.87" font-family="Helvetica,sans-Serif" font-size="10.00">box2d_finger_joint</text>
</a>
</g>
</g>
<!-- Node1&#45;&gt;Node3 -->
<g id="edge2" class="edge">
<title>Node1&#45;&gt;Node3</title>
<path fill="none" stroke="midnightblue" d="M671.66,-302.18C665.48,-337.54 647.36,-411.29 600,-448.37 571.97,-470.31 476.4,-482.09 415.52,-487.51"/>
<polygon fill="midnightblue" stroke="midnightblue" points="675.14,-302.57 673.27,-292.14 668.23,-301.46 675.14,-302.57"/>
</g>
<!-- Node4 -->
<g id="node4" class="node">
<title>Node4</title>
<g id="a_node4"><a xlink:href="group__parts__3d__fastener__clamps.html#gad5d667c41776480785c62759c61a137e" target="_top" xlink:title="A clamp, bushing, and/or grip for wire, hose, and/or pipe wall penetrations.">
<polygon fill="white" stroke="black" points="159,-310.87 159,-329.87 222,-329.87 222,-310.87 159,-310.87"/>
<text text-anchor="middle" x="190.5" y="-317.87" font-family="Helvetica,sans-Serif" font-size="10.00">clamp_cg</text>
</a>
</g>
</g>
<!-- Node1&#45;&gt;Node4 -->
<g id="edge3" class="edge">
<title>Node1&#45;&gt;Node4</title>
<path fill="none" stroke="midnightblue" d="M625.54,-284.15C552.23,-287.11 409.64,-293.97 289,-306.37 266.55,-308.67 241.32,-312.32 222.16,-315.32"/>
<polygon fill="midnightblue" stroke="midnightblue" points="625.99,-287.64 635.84,-283.74 625.71,-280.64 625.99,-287.64"/>
</g>
<!-- Node5 -->
<g id="node5" class="node">
<title>Node5</title>
<g id="a_node5"><a xlink:href="group__parts__3d__computer__pcie__expansion.html#gab6fb1c9f8f6550633467f4ec0bd3f983" target="_top" xlink:title="Generate a PCI Express expansion open chassis or closed enclosure.">
<polygon fill="white" stroke="black" points="0,-367.87 0,-386.87 92,-386.87 92,-367.87 0,-367.87"/>
<text text-anchor="middle" x="46" y="-374.87" font-family="Helvetica,sans-Serif" font-size="10.00">pcie_expansion</text>
</a>
</g>
</g>
<!-- Node1&#45;&gt;Node5 -->
<g id="edge27" class="edge">
<title>Node1&#45;&gt;Node5</title>
<path fill="none" stroke="midnightblue" d="M669.31,-302.04C660.48,-331.17 639.53,-384.94 600,-409.37 510.76,-464.5 230.02,-439.78 128,-415.37 103.83,-409.58 78.23,-396.19 62.43,-386.95"/>
<polygon fill="midnightblue" stroke="midnightblue" points="672.74,-302.78 672.12,-292.2 666.01,-300.86 672.74,-302.78"/>
</g>
<!-- Node6 -->
<g id="node6" class="node">
<title>Node6</title>
<g id="a_node6"><a xlink:href="group__parts__3d__enclosure__power__strip.html#ga33509a1811b27fe7f3687957d4d32460" target="_top" xlink:title="A power strip generator for single gang electrical receptacles.">
<polygon fill="white" stroke="black" points="1,-177.87 1,-196.87 91,-196.87 91,-177.87 1,-177.87"/>
<text text-anchor="middle" x="46" y="-184.87" font-family="Helvetica,sans-Serif" font-size="10.00">power_strip_sg</text>
</a>
</g>
</g>
<!-- Node1&#45;&gt;Node6 -->
<g id="edge28" class="edge">
<title>Node1&#45;&gt;Node6</title>
<path fill="none" stroke="midnightblue" d="M647.66,-268.36C633.77,-261.66 616.34,-254.09 600,-249.37 416.47,-196.3 186.51,-188.22 91.36,-187.29"/>
<polygon fill="midnightblue" stroke="midnightblue" points="646.13,-271.51 656.65,-272.81 649.24,-265.23 646.13,-271.51"/>
</g>
<!-- Node7 -->
<g id="node7" class="node">
<title>Node7</title>
<g id="a_node7"><a xlink:href="group__parts__3d__fastener__clamps.html#gac715fdab9961aff45be668fb23556835" target="_top" xlink:title="A one piece zip tie clamp to secure wires or provide strain relief.">
<polygon fill="white" stroke="black" points="151.5,-386.87 151.5,-405.87 229.5,-405.87 229.5,-386.87 151.5,-386.87"/>
<text text-anchor="middle" x="190.5" y="-393.87" font-family="Helvetica,sans-Serif" font-size="10.00">clamp_zt_1p</text>
</a>
</g>
</g>
<!-- Node1&#45;&gt;Node7 -->
<g id="edge6" class="edge">
<title>Node1&#45;&gt;Node7</title>
<path fill="none" stroke="midnightblue" d="M665.82,-301.46C654.35,-324.14 631.82,-360.96 600,-377.37 477.27,-440.66 305.23,-418.74 229.65,-404.56"/>
<polygon fill="midnightblue" stroke="midnightblue" points="669.11,-302.69 670.3,-292.16 662.81,-299.65 669.11,-302.69"/>
</g>
<!-- Node8 -->
<g id="node8" class="node">
<title>Node8</title>
<g id="a_node8"><a xlink:href="group__shapes__common__3d.html#ga9041dbb11863f4e55466564aac6f0342" target="_top" xlink:title="A cuboid with edge, round, or chamfer corners.">
<polygon fill="white" stroke="black" points="511,-348.87 511,-367.87 560,-367.87 560,-348.87 511,-348.87"/>
<text text-anchor="middle" x="535.5" y="-355.87" font-family="Helvetica,sans-Serif" font-size="10.00">cuboid</text>
</a>
</g>
</g>
<!-- Node1&#45;&gt;Node8 -->
<g id="edge8" class="edge">
<title>Node1&#45;&gt;Node8</title>
<path fill="none" stroke="midnightblue" d="M654.23,-298.58C639.73,-309.66 619.41,-324.13 600,-334.37 587.28,-341.08 572.26,-346.84 560.03,-351.04"/>
<polygon fill="midnightblue" stroke="midnightblue" points="656.7,-301.09 662.45,-292.19 652.41,-295.57 656.7,-301.09"/>
</g>
<!-- Node10 -->
<g id="node10" class="node">
<title>Node10</title>
<g id="a_node10"><a xlink:href="group__parts__3d__enclosure__project__box__rectangle.html#ga24cdfe5fd4bb74b75409d9afdbe1f0c0" target="_top" xlink:title="A rectangular box maker for project boxes, enclosures and housings.">
<polygon fill="white" stroke="black" points="128,-348.87 128,-367.87 253,-367.87 253,-348.87 128,-348.87"/>
<text text-anchor="middle" x="190.5" y="-355.87" font-family="Helvetica,sans-Serif" font-size="10.00">project_box_rectangle</text>
</a>
</g>
</g>
<!-- Node1&#45;&gt;Node10 -->
<g id="edge29" class="edge">
<title>Node1&#45;&gt;Node10</title>
<path fill="none" stroke="midnightblue" d="M632.92,-294.66C622.26,-297.5 610.76,-300.29 600,-302.37 463.32,-328.7 426.52,-317.82 289,-339.37 271.96,-342.04 253.36,-345.52 237.01,-348.77"/>
<polygon fill="midnightblue" stroke="midnightblue" points="634.11,-297.97 642.83,-291.95 632.26,-291.21 634.11,-297.97"/>
</g>
<!-- Node11 -->
<g id="node11" class="node">
<title>Node11</title>
<g id="a_node11"><a xlink:href="group__transforms__extrude.html#ga78405b5fa18461a302a2f24646499ece" target="_top" xlink:title="Translate, rotate, and revolve a 2d shape about the z&#45;axis with linear elongation.">
<polygon fill="white" stroke="black" points="310,-234.87 310,-253.87 414,-253.87 414,-234.87 310,-234.87"/>
<text text-anchor="middle" x="362" y="-241.87" font-family="Helvetica,sans-Serif" font-size="10.00">extrude_rotate_trl</text>
</a>
</g>
</g>
<!-- Node1&#45;&gt;Node11 -->
<g id="edge13" class="edge">
<title>Node1&#45;&gt;Node11</title>
<path fill="none" stroke="midnightblue" d="M625.98,-272.63C617.35,-271.08 608.43,-269.58 600,-268.37 536.15,-259.15 462.11,-252.26 414.01,-248.27"/>
<polygon fill="midnightblue" stroke="midnightblue" points="625.47,-276.1 635.94,-274.48 626.74,-269.22 625.47,-276.1"/>
</g>
<!-- Node15 -->
<g id="node15" class="node">
<title>Node15</title>
<g id="a_node15"><a xlink:href="group__parts__3d__fastener__hinges.html#ga1ffc82e0bbac466d1dc4fbe6c214b765" target="_top" xlink:title="A print&#45;in&#45;place bi&#45;fold hinge generator.">
<polygon fill="white" stroke="black" points="332.5,-139.87 332.5,-158.87 391.5,-158.87 391.5,-139.87 332.5,-139.87"/>
<text text-anchor="middle" x="362" y="-146.87" font-family="Helvetica,sans-Serif" font-size="10.00">hinge_bf</text>
</a>
</g>
</g>
<!-- Node1&#45;&gt;Node15 -->
<g id="edge20" class="edge">
<title>Node1&#45;&gt;Node15</title>
<path fill="none" stroke="midnightblue" d="M670.15,-262.75C662.2,-232.15 642.1,-174.04 600,-149.37 533.97,-110.67 438.78,-128.21 391.66,-140.69"/>
<polygon fill="midnightblue" stroke="midnightblue" points="666.8,-263.76 672.55,-272.66 673.6,-262.12 666.8,-263.76"/>
</g>
<!-- Node16 -->
<g id="node16" class="node">
<title>Node16</title>
<g id="a_node16"><a xlink:href="group__parts__3d__fastener__hinges.html#ga7e350f2c55116094108b99dd8103fc04" target="_top" xlink:title="A print&#45;in&#45;place single&#45;fold hinge generator.">
<polygon fill="white" stroke="black" points="506.5,-158.87 506.5,-177.87 564.5,-177.87 564.5,-158.87 506.5,-158.87"/>
<text text-anchor="middle" x="535.5" y="-165.87" font-family="Helvetica,sans-Serif" font-size="10.00">hinge_sf</text>
</a>
</g>
</g>
<!-- Node1&#45;&gt;Node16 -->
<g id="edge21" class="edge">
<title>Node1&#45;&gt;Node16</title>
<path fill="none" stroke="midnightblue" d="M663.65,-264.3C650.76,-244.21 627.5,-212.01 600,-192.37 589.45,-184.83 576.24,-179.34 564.61,-175.53"/>
<polygon fill="midnightblue" stroke="midnightblue" points="660.71,-266.2 668.97,-272.83 666.65,-262.5 660.71,-266.2"/>
</g>
<!-- Node17 -->
<g id="node17" class="node">
<title>Node17</title>
<g id="a_node17"><a xlink:href="group__models__2d__joint__box__screw.html#ga78ef0c1346c6e79260781ee9a9fff0bf" target="_top" xlink:title="Create 2d edge profiles for screw and nut box joint construction.">
<polygon fill="white" stroke="black" points="482,-500.87 482,-519.87 589,-519.87 589,-500.87 482,-500.87"/>
<text text-anchor="middle" x="535.5" y="-507.87" font-family="Helvetica,sans-Serif" font-size="10.00">joint2d_box_screw</text>
</a>
</g>
</g>
<!-- Node1&#45;&gt;Node17 -->
<g id="edge23" class="edge">
<title>Node1&#45;&gt;Node17</title>
<path fill="none" stroke="midnightblue" d="M672.71,-302.01C668.04,-342.06 651.99,-433.79 600,-486.37 593.78,-492.65 585.76,-497.31 577.52,-500.77"/>
<polygon fill="midnightblue" stroke="midnightblue" points="676.2,-302.26 673.77,-291.95 669.24,-301.53 676.2,-302.26"/>
</g>
<!-- Node18 -->
<g id="node18" class="node">
<title>Node18</title>
<g id="a_node18"><a xlink:href="group__models__3d__joint__dovetail__screw.html#ga20f61ef0d29434a144ec653c6320f77f" target="_top" xlink:title="Construct a 3d dovetail joint with optional screw and nut fastener.">
<polygon fill="white" stroke="black" points="471,-82.87 471,-101.87 600,-101.87 600,-82.87 471,-82.87"/>
<text text-anchor="middle" x="535.5" y="-89.87" font-family="Helvetica,sans-Serif" font-size="10.00">joint3d_dovetail_screw</text>
</a>
</g>
</g>
<!-- Node1&#45;&gt;Node18 -->
<g id="edge25" class="edge">
<title>Node1&#45;&gt;Node18</title>
<path fill="none" stroke="midnightblue" d="M670.76,-262.44C663.29,-228.02 643.4,-157.22 600,-116.37 593.31,-110.07 584.8,-105.38 576.2,-101.9"/>
<polygon fill="midnightblue" stroke="midnightblue" points="667.4,-263.52 672.83,-272.62 674.26,-262.12 667.4,-263.52"/>
</g>
<!-- Node19 -->
<g id="node19" class="node">
<title>Node19</title>
<g id="a_node19"><a xlink:href="group__parts__3d__computer__pci__bracket.html#gaf56631cf80d8e5f0b77736b17b94ecd9" target="_top" xlink:title="PCI slot cover and adapter card bracket generator.">
<polygon fill="white" stroke="black" points="326,-82.87 326,-101.87 398,-101.87 398,-82.87 326,-82.87"/>
<text text-anchor="middle" x="362" y="-89.87" font-family="Helvetica,sans-Serif" font-size="10.00">pci_bracket</text>
</a>
</g>
</g>
<!-- Node1&#45;&gt;Node19 -->
<g id="edge26" class="edge">
<title>Node1&#45;&gt;Node19</title>
<path fill="none" stroke="midnightblue" d="M674.39,-262.6C672.94,-219.53 662.71,-117.59 600,-73.37 568.37,-51.07 455.94,-71.62 398.03,-84.22"/>
<polygon fill="midnightblue" stroke="midnightblue" points="670.89,-262.72 674.6,-272.65 677.89,-262.58 670.89,-262.72"/>
</g>
<!-- Node20 -->
<g id="node20" class="node">
<title>Node20</title>
<g id="a_node20"><a xlink:href="group__shapes__common__2d.html#ga8d313ecffdd059e84d007824ae89ff41" target="_top" xlink:title="A rectangle with corner rounds or chamfers.">
<polygon fill="white" stroke="black" points="504.5,-6.87 504.5,-25.87 566.5,-25.87 566.5,-6.87 504.5,-6.87"/>
<text text-anchor="middle" x="535.5" y="-13.87" font-family="Helvetica,sans-Serif" font-size="10.00">rectangle</text>
</a>
</g>
</g>
<!-- Node1&#45;&gt;Node20 -->
<g id="edge30" class="edge">
<title>Node1&#45;&gt;Node20</title>
<path fill="none" stroke="midnightblue" d="M674.04,-262.55C671.92,-217.19 660.48,-104.76 600,-40.37 591.21,-31 578.39,-25.26 566.57,-21.76"/>
<polygon fill="midnightblue" stroke="midnightblue" points="670.54,-262.7 674.4,-272.57 677.54,-262.45 670.54,-262.7"/>
</g>
<!-- Node4&#45;&gt;Node5 -->
<g id="edge4" class="edge">
<title>Node4&#45;&gt;Node5</title>
<path fill="none" stroke="midnightblue" d="M149.3,-331.9C142.14,-334.21 134.81,-336.73 128,-339.37 105.98,-347.89 81.55,-359.69 65.34,-367.87"/>
<polygon fill="midnightblue" stroke="midnightblue" points="150.37,-335.24 158.87,-328.91 148.28,-328.56 150.37,-335.24"/>
</g>
<!-- Node4&#45;&gt;Node6 -->
<g id="edge5" class="edge">
<title>Node4&#45;&gt;Node6</title>
<path fill="none" stroke="midnightblue" d="M149.17,-312.06C141.71,-309.4 134.3,-305.92 128,-301.37 88.46,-272.76 61.08,-218.8 51.14,-196.93"/>
<polygon fill="midnightblue" stroke="midnightblue" points="148.32,-315.46 158.91,-315.1 150.4,-308.78 148.32,-315.46"/>
</g>
<!-- Node7&#45;&gt;Node5 -->
<g id="edge7" class="edge">
<title>Node7&#45;&gt;Node5</title>
<path fill="none" stroke="midnightblue" d="M141.17,-389.92C125.31,-387.81 107.75,-385.47 92.13,-383.38"/>
<polygon fill="midnightblue" stroke="midnightblue" points="140.94,-393.42 151.31,-391.28 141.86,-386.48 140.94,-393.42"/>
</g>
<!-- Node9 -->
<g id="node9" class="node">
<title>Node9</title>
<g id="a_node9"><a xlink:href="group__shapes__select__common__3d.html#ga3fd7f214eff2f5935ad1bb56415a4aaf" target="_top" xlink:title="Select configure and construct one of the available 3d shapes.">
<polygon fill="white" stroke="black" points="289,-348.87 289,-367.87 435,-367.87 435,-348.87 289,-348.87"/>
<text text-anchor="middle" x="362" y="-355.87" font-family="Helvetica,sans-Serif" font-size="10.00">select_common_3d_shape</text>
</a>
</g>
</g>
<!-- Node8&#45;&gt;Node9 -->
<g id="edge9" class="edge">
<title>Node8&#45;&gt;Node9</title>
<path fill="none" stroke="midnightblue" d="M500.57,-358.37C481.86,-358.37 457.88,-358.37 435.2,-358.37"/>
<polygon fill="midnightblue" stroke="midnightblue" points="500.65,-361.87 510.65,-358.37 500.65,-354.87 500.65,-361.87"/>
</g>
<!-- Node9&#45;&gt;Node10 -->
<g id="edge10" class="edge">
<title>Node9&#45;&gt;Node10</title>
<path fill="none" stroke="midnightblue" d="M278.62,-358.37C270.07,-358.37 261.49,-358.37 253.22,-358.37"/>
<polygon fill="midnightblue" stroke="midnightblue" points="278.63,-361.87 288.63,-358.37 278.63,-354.87 278.63,-361.87"/>
</g>
<!-- Node10&#45;&gt;Node5 -->
<g id="edge11" class="edge">
<title>Node10&#45;&gt;Node5</title>
<path fill="none" stroke="midnightblue" d="M117.9,-367.91C109.08,-369.09 100.28,-370.26 92.01,-371.37"/>
<polygon fill="midnightblue" stroke="midnightblue" points="118.38,-371.38 127.83,-366.59 117.45,-364.44 118.38,-371.38"/>
</g>
<!-- Node10&#45;&gt;Node6 -->
<g id="edge12" class="edge">
<title>Node10&#45;&gt;Node6</title>
<path fill="none" stroke="midnightblue" d="M134.88,-344.21C132.46,-342.75 130.15,-341.14 128,-339.37 80.05,-299.76 56.55,-224.17 49.42,-197.22"/>
<polygon fill="midnightblue" stroke="midnightblue" points="133.56,-347.46 144.06,-348.86 136.72,-341.22 133.56,-347.46"/>
</g>
<!-- Node11&#45;&gt;Node4 -->
<g id="edge14" class="edge">
<title>Node11&#45;&gt;Node4</title>
<path fill="none" stroke="midnightblue" d="M312.78,-257.3C304.58,-260.37 296.35,-264.04 289,-268.37 270.29,-279.37 271.83,-290.57 253,-301.37 243.5,-306.82 232.26,-310.88 222.01,-313.82"/>
<polygon fill="midnightblue" stroke="midnightblue" points="314.04,-260.57 322.33,-253.97 311.74,-253.96 314.04,-260.57"/>
</g>
<!-- Node11&#45;&gt;Node6 -->
<g id="edge16" class="edge">
<title>Node11&#45;&gt;Node6</title>
<path fill="none" stroke="midnightblue" d="M299.91,-233.28C238.55,-222.14 145.5,-205.25 91.02,-195.36"/>
<polygon fill="midnightblue" stroke="midnightblue" points="299.39,-236.74 309.85,-235.08 300.64,-229.85 299.39,-236.74"/>
</g>
<!-- Node11&#45;&gt;Node7 -->
<g id="edge15" class="edge">
<title>Node11&#45;&gt;Node7</title>
<path fill="none" stroke="midnightblue" d="M347.42,-262.25C321.16,-296.62 264.99,-369.27 253,-377.37 245.96,-382.12 237.68,-385.73 229.52,-388.45"/>
<polygon fill="midnightblue" stroke="midnightblue" points="350.41,-264.1 353.68,-254.02 344.84,-259.85 350.41,-264.1"/>
</g>
<!-- Node12 -->
<g id="node12" class="node">
<title>Node12</title>
<g id="a_node12"><a xlink:href="group__shapes__revolved.html#ga58a3e713a904c96b69ddd8f87f7f3bb1" target="_top" xlink:title="An elliptical cross&#45;sectional profile revolved about the z&#45;axis.">
<polygon fill="white" stroke="black" points="143,-234.87 143,-253.87 238,-253.87 238,-234.87 143,-234.87"/>
<text text-anchor="middle" x="190.5" y="-241.87" font-family="Helvetica,sans-Serif" font-size="10.00">torus_ellipse_cs</text>
</a>
</g>
</g>
<!-- Node11&#45;&gt;Node12 -->
<g id="edge17" class="edge">
<title>Node11&#45;&gt;Node12</title>
<path fill="none" stroke="midnightblue" d="M299.58,-244.37C279.27,-244.37 257.03,-244.37 238.03,-244.37"/>
<polygon fill="midnightblue" stroke="midnightblue" points="299.68,-247.87 309.68,-244.37 299.68,-240.87 299.68,-247.87"/>
</g>
<!-- Node13 -->
<g id="node13" class="node">
<title>Node13</title>
<g id="a_node13"><a xlink:href="group__shapes__revolved.html#ga69b374bbebd7d87cfcd06b6bd3278404" target="_top" xlink:title="A trapezoidal cross&#45;sectional profile revolved about the z&#45;axis.">
<polygon fill="white" stroke="black" points="135.5,-272.87 135.5,-291.87 245.5,-291.87 245.5,-272.87 135.5,-272.87"/>
<text text-anchor="middle" x="190.5" y="-279.87" font-family="Helvetica,sans-Serif" font-size="10.00">torus_pg_trapezoid</text>
</a>
</g>
</g>
<!-- Node11&#45;&gt;Node13 -->
<g id="edge18" class="edge">
<title>Node11&#45;&gt;Node13</title>
<path fill="none" stroke="midnightblue" d="M308.26,-256.19C284.36,-261.55 256.48,-267.8 233.96,-272.85"/>
<polygon fill="midnightblue" stroke="midnightblue" points="309.24,-259.56 318.23,-253.96 307.7,-252.73 309.24,-259.56"/>
</g>
<!-- Node14 -->
<g id="node14" class="node">
<title>Node14</title>
<g id="a_node14"><a xlink:href="group__shapes__revolved.html#gad587c003585db775fd441468954b7c43" target="_top" xlink:title="A rectangular cross&#45;sectional profile revolved about the z&#45;axis.">
<polygon fill="white" stroke="black" points="139,-111.87 139,-130.87 242,-130.87 242,-111.87 139,-111.87"/>
<text text-anchor="middle" x="190.5" y="-118.87" font-family="Helvetica,sans-Serif" font-size="10.00">torus_rectangle_c</text>
</a>
</g>
</g>
<!-- Node11&#45;&gt;Node14 -->
<g id="edge19" class="edge">
<title>Node11&#45;&gt;Node14</title>
<path fill="none" stroke="midnightblue" d="M339.44,-228.72C303.86,-202.9 233.89,-152.13 204.74,-130.97"/>
<polygon fill="midnightblue" stroke="midnightblue" points="337.55,-231.68 347.7,-234.72 341.66,-226.01 337.55,-231.68"/>
</g>
<!-- Node16&#45;&gt;Node15 -->
<g id="edge22" class="edge">
<title>Node16&#45;&gt;Node15</title>
<path fill="none" stroke="midnightblue" d="M495.97,-164.1C464.33,-160.59 420.23,-155.71 391.65,-152.54"/>
<polygon fill="midnightblue" stroke="midnightblue" points="495.86,-167.61 506.18,-165.23 496.63,-160.65 495.86,-167.61"/>
</g>
<!-- Node17&#45;&gt;Node3 -->
<g id="edge24" class="edge">
<title>Node17&#45;&gt;Node3</title>
<path fill="none" stroke="midnightblue" d="M471.62,-503.4C453.24,-501.36 433.35,-499.16 415.68,-497.2"/>
<polygon fill="midnightblue" stroke="midnightblue" points="471.32,-506.89 481.64,-504.51 472.09,-499.93 471.32,-506.89"/>
</g>
<!-- Node20&#45;&gt;Node6 -->
<g id="edge32" class="edge">
<title>Node20&#45;&gt;Node6</title>
<path fill="none" stroke="midnightblue" d="M494.11,-9.27C416.29,2.15 243.08,16.37 128,-58.37 82.54,-87.9 57.94,-152.85 49.95,-177.56"/>
<polygon fill="midnightblue" stroke="midnightblue" points="494.03,-12.8 504.45,-10.85 495.09,-5.88 494.03,-12.8"/>
</g>
<!-- Node20&#45;&gt;Node19 -->
<g id="edge31" class="edge">
<title>Node20&#45;&gt;Node19</title>
<path fill="none" stroke="midnightblue" d="M494.88,-28.67C486.71,-31.94 478.36,-35.84 471,-40.37 452.51,-51.74 454.05,-62.96 435,-73.37 423.77,-79.5 410.46,-83.73 398.35,-86.62"/>
<polygon fill="midnightblue" stroke="midnightblue" points="496.19,-31.92 504.32,-25.13 493.73,-25.37 496.19,-31.92"/>
</g>
<!-- Node21 -->
<g id="node21" class="node">
<title>Node21</title>
<g id="a_node21"><a xlink:href="group__shapes__common__2d.html#gaf840c9cc7a1bcdb09f023aa6543d36d2" target="_top" xlink:title="A rectangle with a removed rectangular core.">
<polygon fill="white" stroke="black" points="325.5,-44.87 325.5,-63.87 398.5,-63.87 398.5,-44.87 325.5,-44.87"/>
<text text-anchor="middle" x="362" y="-51.87" font-family="Helvetica,sans-Serif" font-size="10.00">rectangle_c</text>
</a>
</g>
</g>
<!-- Node20&#45;&gt;Node21 -->
<g id="edge33" class="edge">
<title>Node20&#45;&gt;Node21</title>
<path fill="none" stroke="midnightblue" d="M494.41,-25.25C465.39,-31.68 426.52,-40.29 398.6,-46.48"/>
<polygon fill="midnightblue" stroke="midnightblue" points="495.23,-28.65 504.23,-23.07 493.71,-21.82 495.23,-28.65"/>
</g>
<!-- Node21&#45;&gt;Node6 -->
<g id="edge34" class="edge">
<title>Node21&#45;&gt;Node6</title>
<path fill="none" stroke="midnightblue" d="M315.16,-55.79C266.05,-59.08 187.18,-69.55 128,-102.37 93.77,-121.35 65.32,-159.67 53.24,-177.64"/>
<polygon fill="midnightblue" stroke="midnightblue" points="315.4,-59.28 325.18,-55.19 314.98,-52.3 315.4,-59.28"/>
</g>
<!-- Node21&#45;&gt;Node14 -->
<g id="edge35" class="edge">
<title>Node21&#45;&gt;Node14</title>
<path fill="none" stroke="midnightblue" d="M315.53,-64.89C306.63,-67.36 297.45,-70.21 289,-73.37 259.66,-84.33 227.38,-101.26 208.3,-111.81"/>
<polygon fill="midnightblue" stroke="midnightblue" points="316.64,-68.22 325.4,-62.26 314.84,-61.45 316.64,-68.22"/>
</g>
</g>
</svg>
