<?xml version="1.0" encoding="UTF-8" standalone="no"?>
<!DOCTYPE svg PUBLIC "-//W3C//DTD SVG 1.1//EN"
 "http://www.w3.org/Graphics/SVG/1.1/DTD/svg11.dtd">
<!-- Generated by graphviz version 2.43.0 (0)
 -->
<!-- Title: Rectangular Enclosure Stand Pages: 1 -->
<svg width="390pt" height="43pt"
 viewBox="0.00 0.00 390.00 43.13" xmlns="http://www.w3.org/2000/svg" xmlns:xlink="http://www.w3.org/1999/xlink">
<g id="graph0" class="graph" transform="scale(1 1) rotate(0) translate(4 39.13)">
<title>Rectangular Enclosure Stand</title>
<polygon fill="white" stroke="transparent" points="-4,4 -4,-39.13 386,-39.13 386,4 -4,4"/>
<!-- Node2 -->
<g id="node1" class="node">
<title>Node2</title>
<g id="a_node1"><a xlink:href="group__parts__3d__enclosure.html" target="_top" xlink:title="Project boxes, housings and enclosures.">
<polygon fill="white" stroke="black" points="64,-29.63 0,-29.63 0,-10.63 64,-10.63 64,-29.63"/>
<text text-anchor="middle" x="32" y="-17.63" font-family="Helvetica,sans-Serif" font-size="10.00">Enclosure</text>
</a>
</g>
</g>
<!-- Node1 -->
<g id="node2" class="node">
<title>Node1</title>
<g id="a_node2"><a xlink:title="Stand maker for rectangular prism enclosures.">
<polygon fill="#bfbfbf" stroke="black" points="382,-35.13 257,-35.13 257,-5.13 382,-5.13 382,-35.13"/>
<text text-anchor="start" x="265" y="-23.13" font-family="Helvetica,sans-Serif" font-size="10.00">Rectangular Enclosure</text>
<text text-anchor="middle" x="319.5" y="-12.13" font-family="Helvetica,sans-Serif" font-size="10.00"> Stand</text>
</a>
</g>
</g>
<!-- Node2&#45;&gt;Node1 -->
<g id="edge1" class="edge">
<title>Node2&#45;&gt;Node1</title>
<path fill="none" stroke="black" d="M74.11,-20.13C122.02,-20.13 201.67,-20.13 256.96,-20.13"/>
<polygon fill="black" stroke="black" points="74.1,-16.63 64.1,-20.13 74.1,-23.63 74.1,-16.63"/>
</g>
<!-- Node1&#45;&gt;Node2 -->
<g id="edge2" class="edge">
<title>Node1&#45;&gt;Node2</title>
<path fill="none" stroke="darkgreen" stroke-dasharray="5,2" d="M256.58,-8.15C250.65,-7.33 244.72,-6.63 239,-6.13 169.49,-0.06 151.1,3.55 82,-6.13 75.17,-7.09 67.95,-8.76 61.21,-10.63"/>
<text text-anchor="middle" x="160.5" y="-9.13" font-family="Helvetica,sans-Serif" font-size="10.00">enclosure_stand_rectangle.scad</text>
</g>
</g>
</svg>
