<?xml version="1.0" encoding="UTF-8" standalone="no"?>
<!DOCTYPE svg PUBLIC "-//W3C//DTD SVG 1.1//EN"
 "http://www.w3.org/Graphics/SVG/1.1/DTD/svg11.dtd">
<!-- Generated by graphviz version 2.43.0 (0)
 -->
<!-- Title: consts Pages: 1 -->
<svg width="194pt" height="104pt"
 viewBox="0.00 0.00 194.00 104.00" xmlns="http://www.w3.org/2000/svg" xmlns:xlink="http://www.w3.org/1999/xlink">
<g id="graph0" class="graph" transform="scale(1 1) rotate(0) translate(4 100)">
<title>consts</title>
<polygon fill="white" stroke="transparent" points="-4,4 -4,-100 190,-100 190,4 -4,4"/>
<!-- Node1 -->
<g id="node1" class="node">
<title>Node1</title>
<g id="a_node1"><a xlink:title="Create a list of constant or incrementing elements.">
<polygon fill="#bfbfbf" stroke="black" points="138,-38.5 138,-57.5 186,-57.5 186,-38.5 138,-38.5"/>
<text text-anchor="middle" x="162" y="-45.5" font-family="Helvetica,sans-Serif" font-size="10.00">consts</text>
</a>
</g>
</g>
<!-- Node2 -->
<g id="node2" class="node">
<title>Node2</title>
<g id="a_node2"><a xlink:href="group__tools__common__polytope.html#ga530c86f9c90ce074aa7adc29834f0539" target="_top" xlink:title="Assemble a polytope skeletal frame using child objects.">
<polygon fill="white" stroke="black" points="4,-76.5 4,-95.5 98,-95.5 98,-76.5 4,-76.5"/>
<text text-anchor="middle" x="51" y="-83.5" font-family="Helvetica,sans-Serif" font-size="10.00">polytope_frame</text>
</a>
</g>
</g>
<!-- Node1&#45;&gt;Node2 -->
<g id="edge1" class="edge">
<title>Node1&#45;&gt;Node2</title>
<path fill="none" stroke="midnightblue" d="M128.11,-59.46C112.53,-64.9 94.13,-71.31 79.32,-76.48"/>
<polygon fill="midnightblue" stroke="midnightblue" points="129.59,-62.66 137.88,-56.06 127.29,-56.05 129.59,-62.66"/>
</g>
<!-- Node3 -->
<g id="node3" class="node">
<title>Node3</title>
<g id="a_node3"><a xlink:href="group__tools__common__polytope.html#ga00b574079f19251be7281151d11db8fa" target="_top" xlink:title="Label the vertices, paths, and edges of a polytope.">
<polygon fill="white" stroke="black" points="0,-38.5 0,-57.5 102,-57.5 102,-38.5 0,-38.5"/>
<text text-anchor="middle" x="51" y="-45.5" font-family="Helvetica,sans-Serif" font-size="10.00">polytope_number</text>
</a>
</g>
</g>
<!-- Node1&#45;&gt;Node3 -->
<g id="edge2" class="edge">
<title>Node1&#45;&gt;Node3</title>
<path fill="none" stroke="midnightblue" d="M127.83,-48C119.81,-48 111.06,-48 102.44,-48"/>
<polygon fill="midnightblue" stroke="midnightblue" points="127.88,-51.5 137.88,-48 127.88,-44.5 127.88,-51.5"/>
</g>
<!-- Node4 -->
<g id="node4" class="node">
<title>Node4</title>
<g id="a_node4"><a xlink:href="group__datatypes__table.html#gab0c2216f9d2258132556413c9a4317e5" target="_top" xlink:title="Dump a table to the console.">
<polygon fill="white" stroke="black" points="14,-0.5 14,-19.5 88,-19.5 88,-0.5 14,-0.5"/>
<text text-anchor="middle" x="51" y="-7.5" font-family="Helvetica,sans-Serif" font-size="10.00">table_dump</text>
</a>
</g>
</g>
<!-- Node1&#45;&gt;Node4 -->
<g id="edge3" class="edge">
<title>Node1&#45;&gt;Node4</title>
<path fill="none" stroke="midnightblue" d="M128.11,-36.54C112.53,-31.1 94.13,-24.69 79.32,-19.52"/>
<polygon fill="midnightblue" stroke="midnightblue" points="127.29,-39.95 137.88,-39.94 129.59,-33.34 127.29,-39.95"/>
</g>
</g>
</svg>
