<?xml version="1.0" encoding="UTF-8" standalone="no"?>
<!DOCTYPE svg PUBLIC "-//W3C//DTD SVG 1.1//EN"
 "http://www.w3.org/Graphics/SVG/1.1/DTD/svg11.dtd">
<!-- Generated by graphviz version 2.43.0 (0)
 -->
<!-- Title: Turtle Pages: 1 -->
<svg width="223pt" height="29pt"
 viewBox="0.00 0.00 223.00 28.50" xmlns="http://www.w3.org/2000/svg" xmlns:xlink="http://www.w3.org/1999/xlink">
<g id="graph0" class="graph" transform="scale(1 1) rotate(0) translate(4 24.5)">
<title>Turtle</title>
<polygon fill="white" stroke="transparent" points="-4,4 -4,-24.5 219,-24.5 219,4 -4,4"/>
<!-- Node1 -->
<g id="node1" class="node">
<title>Node1</title>
<g id="a_node1"><a xlink:title="Turtle&#45;style step language to generate coordinate points for polygon construction....">
<polygon fill="#bfbfbf" stroke="black" points="44,-19 0,-19 0,0 44,0 44,-19"/>
<text text-anchor="middle" x="22" y="-7" font-family="Helvetica,sans-Serif" font-size="10.00">Turtle</text>
</a>
</g>
</g>
<!-- Node2 -->
<g id="node2" class="node">
<title>Node2</title>
<g id="a_node2"><a xlink:href="group__tools__2d.html" target="_top" xlink:title="2d design tools and workflow utilities.">
<polygon fill="white" stroke="black" points="215,-19 159,-19 159,0 215,0 215,-19"/>
<text text-anchor="middle" x="187" y="-7" font-family="Helvetica,sans-Serif" font-size="10.00">2d Tools</text>
</a>
</g>
</g>
<!-- Node1&#45;&gt;Node2 -->
<g id="edge2" class="edge">
<title>Node1&#45;&gt;Node2</title>
<path fill="none" stroke="darkgreen" stroke-dasharray="5,2" d="M44.31,-9.5C73.74,-9.5 126.82,-9.5 158.99,-9.5"/>
<text text-anchor="middle" x="101.5" y="-12.5" font-family="Helvetica,sans-Serif" font-size="10.00">turtle_path.scad</text>
</g>
<!-- Node2&#45;&gt;Node1 -->
<g id="edge1" class="edge">
<title>Node2&#45;&gt;Node1</title>
<path fill="none" stroke="black" d="M148.77,-7.72C146.14,-7.63 143.53,-7.56 141,-7.5 105.9,-6.72 97.1,-6.6 62,-7.5 56.17,-7.65 49.86,-7.92 44.04,-8.22"/>
<polygon fill="black" stroke="black" points="148.75,-11.22 158.88,-8.1 149.02,-4.22 148.75,-11.22"/>
</g>
</g>
</svg>
