<?xml version="1.0" encoding="UTF-8" standalone="no"?>
<!DOCTYPE svg PUBLIC "-//W3C//DTD SVG 1.1//EN"
 "http://www.w3.org/Graphics/SVG/1.1/DTD/svg11.dtd">
<!-- Generated by graphviz version 2.43.0 (0)
 -->
<!-- Title: PCI bracket Pages: 1 -->
<svg width="262pt" height="29pt"
 viewBox="0.00 0.00 262.00 28.50" xmlns="http://www.w3.org/2000/svg" xmlns:xlink="http://www.w3.org/1999/xlink">
<g id="graph0" class="graph" transform="scale(1 1) rotate(0) translate(4 24.5)">
<title>PCI bracket</title>
<polygon fill="white" stroke="transparent" points="-4,4 -4,-24.5 258,-24.5 258,4 -4,4"/>
<!-- Node1 -->
<g id="node1" class="node">
<title>Node1</title>
<g id="a_node1"><a xlink:title="PCI slot cover bracket generator.">
<polygon fill="#bfbfbf" stroke="black" points="71,-19 0,-19 0,0 71,0 71,-19"/>
<text text-anchor="middle" x="35.5" y="-7" font-family="Helvetica,sans-Serif" font-size="10.00">PCI bracket</text>
</a>
</g>
</g>
<!-- Node2 -->
<g id="node2" class="node">
<title>Node2</title>
<g id="a_node2"><a xlink:href="group__parts__3d__computer.html" target="_top" xlink:title="Mechanical computer parts.">
<polygon fill="white" stroke="black" points="254,-19 189,-19 189,0 254,0 254,-19"/>
<text text-anchor="middle" x="221.5" y="-7" font-family="Helvetica,sans-Serif" font-size="10.00">Computer</text>
</a>
</g>
</g>
<!-- Node1&#45;&gt;Node2 -->
<g id="edge2" class="edge">
<title>Node1&#45;&gt;Node2</title>
<path fill="none" stroke="darkgreen" stroke-dasharray="5,2" d="M71.11,-9.5C104.94,-9.5 156.02,-9.5 188.81,-9.5"/>
<text text-anchor="middle" x="130" y="-12.5" font-family="Helvetica,sans-Serif" font-size="10.00">pci_bracket.scad</text>
</g>
<!-- Node2&#45;&gt;Node1 -->
<g id="edge1" class="edge">
<title>Node2&#45;&gt;Node1</title>
<path fill="none" stroke="black" d="M178.73,-7.69C176.11,-7.62 173.52,-7.55 171,-7.5 134.56,-6.76 125.44,-6.81 89,-7.5 83.25,-7.61 77.16,-7.79 71.23,-7.99"/>
<polygon fill="black" stroke="black" points="178.71,-11.19 188.82,-8.03 178.94,-4.2 178.71,-11.19"/>
</g>
</g>
</svg>
