<?xml version="1.0" encoding="UTF-8" standalone="no"?>
<!DOCTYPE svg PUBLIC "-//W3C//DTD SVG 1.1//EN"
 "http://www.w3.org/Graphics/SVG/1.1/DTD/svg11.dtd">
<!-- Generated by graphviz version 2.43.0 (0)
 -->
<!-- Title: Tools Pages: 1 -->
<svg width="146pt" height="64pt"
 viewBox="0.00 0.00 146.00 64.00" xmlns="http://www.w3.org/2000/svg" xmlns:xlink="http://www.w3.org/1999/xlink">
<g id="graph0" class="graph" transform="scale(1 1) rotate(0) translate(4 60)">
<title>Tools</title>
<polygon fill="white" stroke="transparent" points="-4,4 -4,-60 142,-60 142,4 -4,4"/>
<!-- Node2 -->
<g id="node1" class="node">
<title>Node2</title>
<g id="a_node1"><a xlink:href="group__tools__common.html" target="_top" xlink:title="Common design tools and workflow utilities.">
<polygon fill="white" stroke="black" points="138,-56 77,-56 77,-37 138,-37 138,-56"/>
<text text-anchor="middle" x="107.5" y="-44" font-family="Helvetica,sans-Serif" font-size="10.00">Common</text>
</a>
</g>
</g>
<!-- Node3 -->
<g id="node2" class="node">
<title>Node3</title>
<g id="a_node2"><a xlink:href="group__tools__2d.html" target="_top" xlink:title="2d design tools and workflow utilities.">
<polygon fill="white" stroke="black" points="135.5,-19 79.5,-19 79.5,0 135.5,0 135.5,-19"/>
<text text-anchor="middle" x="107.5" y="-7" font-family="Helvetica,sans-Serif" font-size="10.00">2d Tools</text>
</a>
</g>
</g>
<!-- Node1 -->
<g id="node3" class="node">
<title>Node1</title>
<g id="a_node3"><a xlink:title="Design workflow tools and design utilities.">
<polygon fill="#bfbfbf" stroke="black" points="41,-37 0,-37 0,-18 41,-18 41,-37"/>
<text text-anchor="middle" x="20.5" y="-25" font-family="Helvetica,sans-Serif" font-size="10.00">Tools</text>
</a>
</g>
</g>
<!-- Node1&#45;&gt;Node2 -->
<g id="edge1" class="edge">
<title>Node1&#45;&gt;Node2</title>
<path fill="none" stroke="black" d="M51.25,-34.15C59.56,-36.01 68.59,-38.03 76.89,-39.88"/>
<polygon fill="black" stroke="black" points="51.74,-30.67 41.21,-31.91 50.21,-37.5 51.74,-30.67"/>
</g>
<!-- Node1&#45;&gt;Node3 -->
<g id="edge2" class="edge">
<title>Node1&#45;&gt;Node3</title>
<path fill="none" stroke="black" d="M51.14,-21.22C60.35,-19.27 70.46,-17.13 79.49,-15.22"/>
<polygon fill="black" stroke="black" points="50.27,-17.83 41.21,-23.33 51.72,-24.68 50.27,-17.83"/>
</g>
</g>
</svg>
