<?xml version="1.0" encoding="UTF-8" standalone="no"?>
<!DOCTYPE svg PUBLIC "-//W3C//DTD SVG 1.1//EN"
 "http://www.w3.org/Graphics/SVG/1.1/DTD/svg11.dtd">
<!-- Generated by graphviz version 2.43.0 (0)
 -->
<!-- Title: select_ci Pages: 1 -->
<svg width="577pt" height="810pt"
 viewBox="0.00 0.00 577.00 809.73" xmlns="http://www.w3.org/2000/svg" xmlns:xlink="http://www.w3.org/1999/xlink">
<g id="graph0" class="graph" transform="scale(1 1) rotate(0) translate(4 805.73)">
<title>select_ci</title>
<polygon fill="white" stroke="transparent" points="-4,4 -4,-805.73 573,-805.73 573,4 -4,4"/>
<!-- Node1 -->
<g id="node1" class="node">
<title>Node1</title>
<g id="a_node1"><a xlink:title="Select specified element from list or return a default.">
<polygon fill="#bfbfbf" stroke="black" points="510,-361.5 510,-380.5 569,-380.5 569,-361.5 510,-361.5"/>
<text text-anchor="middle" x="539.5" y="-368.5" font-family="Helvetica,sans-Serif" font-size="10.00">select_ci</text>
</a>
</g>
</g>
<!-- Node2 -->
<g id="node2" class="node">
<title>Node2</title>
<g id="a_node2"><a xlink:href="group__transforms__align.html#ga8a1b75b5a53478f7ce1ca287cc479364" target="_top" xlink:title="Align an objects Cartesian axis to reference line or vector.">
<polygon fill="white" stroke="black" points="199,-760.5 199,-779.5 254,-779.5 254,-760.5 199,-760.5"/>
<text text-anchor="middle" x="226.5" y="-767.5" font-family="Helvetica,sans-Serif" font-size="10.00">align_al</text>
</a>
</g>
</g>
<!-- Node1&#45;&gt;Node2 -->
<g id="edge1" class="edge">
<title>Node1&#45;&gt;Node2</title>
<path fill="none" stroke="midnightblue" d="M538.51,-390.68C538.1,-464.08 532.45,-720.24 474,-770 410.95,-823.68 302.38,-796.21 253.13,-779.6"/>
<polygon fill="midnightblue" stroke="midnightblue" points="542.01,-390.54 538.54,-380.53 535.01,-390.52 542.01,-390.54"/>
</g>
<!-- Node3 -->
<g id="node3" class="node">
<title>Node3</title>
<g id="a_node3"><a xlink:href="group__transforms__align.html#gac695554e76def13eeb5a15a349f5fa12" target="_top" xlink:title="Align a line or vector to a reference line or vector.">
<polygon fill="white" stroke="black" points="374.5,-741.5 374.5,-760.5 426.5,-760.5 426.5,-741.5 374.5,-741.5"/>
<text text-anchor="middle" x="400.5" y="-748.5" font-family="Helvetica,sans-Serif" font-size="10.00">align_ll</text>
</a>
</g>
</g>
<!-- Node1&#45;&gt;Node3 -->
<g id="edge2" class="edge">
<title>Node1&#45;&gt;Node3</title>
<path fill="none" stroke="midnightblue" d="M537.68,-390.98C534.5,-459.21 520.65,-681.49 474,-732 462.08,-744.9 442.57,-749.48 426.79,-750.93"/>
<polygon fill="midnightblue" stroke="midnightblue" points="541.19,-390.9 538.14,-380.75 534.2,-390.59 541.19,-390.9"/>
</g>
<!-- Node4 -->
<g id="node4" class="node">
<title>Node4</title>
<g id="a_node4"><a xlink:href="group__parts__3d__motion__bearing__linear__rod.html#ga0064887f7c89f8915895c0243bec4a4c" target="_top" xlink:title="Transform 2d or 3d shape into a linear rod ball or sled bearing.">
<polygon fill="white" stroke="black" points="347,-703.5 347,-722.5 454,-722.5 454,-703.5 347,-703.5"/>
<text text-anchor="middle" x="400.5" y="-710.5" font-family="Helvetica,sans-Serif" font-size="10.00">bearing_linear_rod</text>
</a>
</g>
</g>
<!-- Node1&#45;&gt;Node4 -->
<g id="edge4" class="edge">
<title>Node1&#45;&gt;Node4</title>
<path fill="none" stroke="midnightblue" d="M537.04,-390.9C532.07,-453.37 513.85,-644.07 474,-689 468.37,-695.35 461.02,-700.02 453.17,-703.46"/>
<polygon fill="midnightblue" stroke="midnightblue" points="540.54,-391.03 537.81,-380.79 533.56,-390.5 540.54,-391.03"/>
</g>
<!-- Node5 -->
<g id="node5" class="node">
<title>Node5</title>
<g id="a_node5"><a xlink:href="group__parts__3d__fastener__catch__latch.html#ga26a9933aa6d33599daab1be8d632c430" target="_top" xlink:title="A catch latch generator with configurable profile.">
<polygon fill="white" stroke="black" points="190.5,-627.5 190.5,-646.5 262.5,-646.5 262.5,-627.5 190.5,-627.5"/>
<text text-anchor="middle" x="226.5" y="-634.5" font-family="Helvetica,sans-Serif" font-size="10.00">catch_latch</text>
</a>
</g>
</g>
<!-- Node1&#45;&gt;Node5 -->
<g id="edge5" class="edge">
<title>Node1&#45;&gt;Node5</title>
<path fill="none" stroke="midnightblue" d="M535.81,-390.47C528.45,-440.88 506.31,-573.67 474,-602 414.85,-653.86 315.21,-649.67 262.55,-642.92"/>
<polygon fill="midnightblue" stroke="midnightblue" points="539.28,-390.92 537.23,-380.53 532.35,-389.94 539.28,-390.92"/>
</g>
<!-- Node6 -->
<g id="node6" class="node">
<title>Node6</title>
<g id="a_node6"><a xlink:href="group__parts__3d__fastener__clamps.html#gac715fdab9961aff45be668fb23556835" target="_top" xlink:title="A one piece zip tie clamp to secure wires or provide strain relief.">
<polygon fill="white" stroke="black" points="361.5,-266.5 361.5,-285.5 439.5,-285.5 439.5,-266.5 361.5,-266.5"/>
<text text-anchor="middle" x="400.5" y="-273.5" font-family="Helvetica,sans-Serif" font-size="10.00">clamp_zt_1p</text>
</a>
</g>
</g>
<!-- Node1&#45;&gt;Node6 -->
<g id="edge6" class="edge">
<title>Node1&#45;&gt;Node6</title>
<path fill="none" stroke="midnightblue" d="M526.14,-352.77C514.43,-336.78 495.47,-313.96 474,-300 463.66,-293.28 451.27,-288.27 439.67,-284.62"/>
<polygon fill="midnightblue" stroke="midnightblue" points="523.53,-355.13 532.16,-361.27 529.24,-351.09 523.53,-355.13"/>
</g>
<!-- Node7 -->
<g id="node7" class="node">
<title>Node7</title>
<g id="a_node7"><a xlink:href="group__parts__3d__computer__pcie__expansion.html#gab6fb1c9f8f6550633467f4ec0bd3f983" target="_top" xlink:title="Generate a PCI Express expansion open chassis or closed enclosure.">
<polygon fill="white" stroke="black" points="17,-247.5 17,-266.5 109,-266.5 109,-247.5 17,-247.5"/>
<text text-anchor="middle" x="63" y="-254.5" font-family="Helvetica,sans-Serif" font-size="10.00">pcie_expansion</text>
</a>
</g>
</g>
<!-- Node1&#45;&gt;Node7 -->
<g id="edge24" class="edge">
<title>Node1&#45;&gt;Node7</title>
<path fill="none" stroke="midnightblue" d="M536.82,-351.18C532.76,-317.27 519.1,-248.85 474,-219 346.44,-134.56 145.64,-217.85 83.19,-247.45"/>
<polygon fill="midnightblue" stroke="midnightblue" points="533.35,-351.67 537.86,-361.26 540.32,-350.95 533.35,-351.67"/>
</g>
<!-- Node8 -->
<g id="node8" class="node">
<title>Node8</title>
<g id="a_node8"><a xlink:href="group__parts__3d__enclosure__enclosure__stand__rectangle.html#gaa6bbb5648edd144f66059f9b31aa2865" target="_top" xlink:title="A stand maker for rectangular project boxes, housings, and enclosures.">
<polygon fill="white" stroke="black" points="327,-152.5 327,-171.5 474,-171.5 474,-152.5 327,-152.5"/>
<text text-anchor="middle" x="400.5" y="-159.5" font-family="Helvetica,sans-Serif" font-size="10.00">enclosure_stand_rectangle</text>
</a>
</g>
</g>
<!-- Node1&#45;&gt;Node8 -->
<g id="edge8" class="edge">
<title>Node1&#45;&gt;Node8</title>
<path fill="none" stroke="midnightblue" d="M537.21,-351.29C533.69,-313.84 520.79,-232.06 474,-186 467.57,-179.68 459.45,-175.02 450.98,-171.59"/>
<polygon fill="midnightblue" stroke="midnightblue" points="533.73,-351.71 538.02,-361.4 540.71,-351.15 533.73,-351.71"/>
</g>
<!-- Node9 -->
<g id="node9" class="node">
<title>Node9</title>
<g id="a_node9"><a xlink:href="group__parts__3d__fastener__hinges.html#ga1ffc82e0bbac466d1dc4fbe6c214b765" target="_top" xlink:title="A print&#45;in&#45;place bi&#45;fold hinge generator.">
<polygon fill="white" stroke="black" points="33.5,-627.5 33.5,-646.5 92.5,-646.5 92.5,-627.5 33.5,-627.5"/>
<text text-anchor="middle" x="63" y="-634.5" font-family="Helvetica,sans-Serif" font-size="10.00">hinge_bf</text>
</a>
</g>
</g>
<!-- Node1&#45;&gt;Node9 -->
<g id="edge9" class="edge">
<title>Node1&#45;&gt;Node9</title>
<path fill="none" stroke="midnightblue" d="M536.66,-390.56C530.99,-446.48 511.78,-605.13 474,-638 361.22,-736.1 157.57,-672.58 88.03,-646.59"/>
<polygon fill="midnightblue" stroke="midnightblue" points="540.15,-390.83 537.65,-380.54 533.19,-390.15 540.15,-390.83"/>
</g>
<!-- Node10 -->
<g id="node10" class="node">
<title>Node10</title>
<g id="a_node10"><a xlink:href="group__parts__3d__fastener__hinges.html#ga7e350f2c55116094108b99dd8103fc04" target="_top" xlink:title="A print&#45;in&#45;place single&#45;fold hinge generator.">
<polygon fill="white" stroke="black" points="197.5,-589.5 197.5,-608.5 255.5,-608.5 255.5,-589.5 197.5,-589.5"/>
<text text-anchor="middle" x="226.5" y="-596.5" font-family="Helvetica,sans-Serif" font-size="10.00">hinge_sf</text>
</a>
</g>
</g>
<!-- Node1&#45;&gt;Node10 -->
<g id="edge10" class="edge">
<title>Node1&#45;&gt;Node10</title>
<path fill="none" stroke="midnightblue" d="M538.45,-390.82C537.18,-431.04 528.14,-522.23 474,-567 410.81,-619.25 305.64,-611.57 255.61,-604.14"/>
<polygon fill="midnightblue" stroke="midnightblue" points="541.95,-390.76 538.63,-380.69 534.95,-390.63 541.95,-390.76"/>
</g>
<!-- Node11 -->
<g id="node11" class="node">
<title>Node11</title>
<g id="a_node11"><a xlink:href="group__models__2d__joint__box__screw.html#ga78ef0c1346c6e79260781ee9a9fff0bf" target="_top" xlink:title="Create 2d edge profiles for screw and nut box joint construction.">
<polygon fill="white" stroke="black" points="347,-114.5 347,-133.5 454,-133.5 454,-114.5 347,-114.5"/>
<text text-anchor="middle" x="400.5" y="-121.5" font-family="Helvetica,sans-Serif" font-size="10.00">joint2d_box_screw</text>
</a>
</g>
</g>
<!-- Node1&#45;&gt;Node11 -->
<g id="edge12" class="edge">
<title>Node1&#45;&gt;Node11</title>
<path fill="none" stroke="midnightblue" d="M539.02,-351.06C539.04,-306.96 532.63,-200.5 474,-143 468.43,-137.53 461.48,-133.59 454.12,-130.74"/>
<polygon fill="midnightblue" stroke="midnightblue" points="535.52,-351.05 538.9,-361.09 542.52,-351.13 535.52,-351.05"/>
</g>
<!-- Node13 -->
<g id="node13" class="node">
<title>Node13</title>
<g id="a_node13"><a xlink:href="group__models__2d__joint__dovetail.html#gadccba989c93e8e44be057de39d99758a" target="_top" xlink:title="Create 2D edge profiles for dovetail joint construction.">
<polygon fill="white" stroke="black" points="353,-228.5 353,-247.5 448,-247.5 448,-228.5 353,-228.5"/>
<text text-anchor="middle" x="400.5" y="-235.5" font-family="Helvetica,sans-Serif" font-size="10.00">joint2d_dovetail</text>
</a>
</g>
</g>
<!-- Node1&#45;&gt;Node13 -->
<g id="edge14" class="edge">
<title>Node1&#45;&gt;Node13</title>
<path fill="none" stroke="midnightblue" d="M532.81,-351.66C524.28,-326.08 505.69,-281.4 474,-257 466.47,-251.21 457.34,-247.17 448.14,-244.36"/>
<polygon fill="midnightblue" stroke="midnightblue" points="529.52,-352.85 535.86,-361.34 536.2,-350.75 529.52,-352.85"/>
</g>
<!-- Node14 -->
<g id="node14" class="node">
<title>Node14</title>
<g id="a_node14"><a xlink:href="group__models__3d__joint__dovetail__screw.html#ga20f61ef0d29434a144ec653c6320f77f" target="_top" xlink:title="Construct a 3d dovetail joint with optional screw and nut fastener.">
<polygon fill="white" stroke="black" points="162,-551.5 162,-570.5 291,-570.5 291,-551.5 162,-551.5"/>
<text text-anchor="middle" x="226.5" y="-558.5" font-family="Helvetica,sans-Serif" font-size="10.00">joint3d_dovetail_screw</text>
</a>
</g>
</g>
<!-- Node1&#45;&gt;Node14 -->
<g id="edge16" class="edge">
<title>Node1&#45;&gt;Node14</title>
<path fill="none" stroke="midnightblue" d="M537.04,-390.71C533.29,-425.83 520.07,-498.86 474,-534 420.6,-574.73 340.75,-575.84 286.51,-570.5"/>
<polygon fill="midnightblue" stroke="midnightblue" points="540.53,-391.01 537.95,-380.73 533.56,-390.37 540.53,-391.01"/>
</g>
<!-- Node15 -->
<g id="node15" class="node">
<title>Node15</title>
<g id="a_node15"><a xlink:href="group__models__3d__motion__bearing__linear__lmxuu.html#gaee2c61ec287975e6d54ade77e3c8010c" target="_top" xlink:title="Linear motion bearing model.">
<polygon fill="white" stroke="black" points="360.5,-76.5 360.5,-95.5 440.5,-95.5 440.5,-76.5 360.5,-76.5"/>
<text text-anchor="middle" x="400.5" y="-83.5" font-family="Helvetica,sans-Serif" font-size="10.00">linear_lmxuu</text>
</a>
</g>
</g>
<!-- Node1&#45;&gt;Node15 -->
<g id="edge17" class="edge">
<title>Node1&#45;&gt;Node15</title>
<path fill="none" stroke="midnightblue" d="M536.31,-351.08C529.79,-295.49 508.81,-140.46 474,-105 465.25,-96.09 452.87,-91.19 440.81,-88.54"/>
<polygon fill="midnightblue" stroke="midnightblue" points="532.87,-351.81 537.48,-361.35 539.82,-351.02 532.87,-351.81"/>
</g>
<!-- Node16 -->
<g id="node16" class="node">
<title>Node16</title>
<g id="a_node16"><a xlink:href="group__parts__3d__fastener__mounts.html#ga1a26f176e04863a2bf335960a52b39a8" target="_top" xlink:title="A screw mount slot with optional cover envelope.">
<polygon fill="white" stroke="black" points="174,-513.5 174,-532.5 279,-532.5 279,-513.5 174,-513.5"/>
<text text-anchor="middle" x="226.5" y="-520.5" font-family="Helvetica,sans-Serif" font-size="10.00">mount_screw_slot</text>
</a>
</g>
</g>
<!-- Node1&#45;&gt;Node16 -->
<g id="edge18" class="edge">
<title>Node1&#45;&gt;Node16</title>
<path fill="none" stroke="midnightblue" d="M535.19,-390.99C529.03,-421.16 512.74,-477.61 474,-504 415.29,-544 329.47,-540.22 276.13,-532.55"/>
<polygon fill="midnightblue" stroke="midnightblue" points="538.69,-391.3 537.08,-380.83 531.81,-390.02 538.69,-391.3"/>
</g>
<!-- Node19 -->
<g id="node19" class="node">
<title>Node19</title>
<g id="a_node19"><a xlink:href="group__models__3d__misc__omdl__logo.html#gab176f64dad7e83d4fb056be44b71f630" target="_top" xlink:title="Standard omdl logo.">
<polygon fill="white" stroke="black" points="192.5,-323.5 192.5,-342.5 260.5,-342.5 260.5,-323.5 192.5,-323.5"/>
<text text-anchor="middle" x="226.5" y="-330.5" font-family="Helvetica,sans-Serif" font-size="10.00">omdl_logo</text>
</a>
</g>
</g>
<!-- Node1&#45;&gt;Node19 -->
<g id="edge21" class="edge">
<title>Node1&#45;&gt;Node19</title>
<path fill="none" stroke="midnightblue" d="M499.7,-366.26C438.05,-358.73 318.78,-344.15 260.78,-337.07"/>
<polygon fill="midnightblue" stroke="midnightblue" points="499.45,-369.75 509.8,-367.49 500.3,-362.81 499.45,-369.75"/>
</g>
<!-- Node20 -->
<g id="node20" class="node">
<title>Node20</title>
<g id="a_node20"><a xlink:href="group__parts__3d__computer__pci__bracket.html#gaf56631cf80d8e5f0b77736b17b94ecd9" target="_top" xlink:title="PCI slot cover and adapter card bracket generator.">
<polygon fill="white" stroke="black" points="364.5,-38.5 364.5,-57.5 436.5,-57.5 436.5,-38.5 364.5,-38.5"/>
<text text-anchor="middle" x="400.5" y="-45.5" font-family="Helvetica,sans-Serif" font-size="10.00">pci_bracket</text>
</a>
</g>
</g>
<!-- Node1&#45;&gt;Node20 -->
<g id="edge23" class="edge">
<title>Node1&#45;&gt;Node20</title>
<path fill="none" stroke="midnightblue" d="M536.96,-351.09C531.86,-290.25 513.53,-108.44 474,-67 464.39,-56.93 450.15,-51.95 436.82,-49.58"/>
<polygon fill="midnightblue" stroke="midnightblue" points="533.49,-351.59 537.78,-361.27 540.47,-351.02 533.49,-351.59"/>
</g>
<!-- Node21 -->
<g id="node21" class="node">
<title>Node21</title>
<g id="a_node21"><a xlink:href="group__parts__3d__enclosure__project__box__rectangle.html#ga24cdfe5fd4bb74b75409d9afdbe1f0c0" target="_top" xlink:title="A rectangular box maker for project boxes, enclosures and housings.">
<polygon fill="white" stroke="black" points="164,-285.5 164,-304.5 289,-304.5 289,-285.5 164,-285.5"/>
<text text-anchor="middle" x="226.5" y="-292.5" font-family="Helvetica,sans-Serif" font-size="10.00">project_box_rectangle</text>
</a>
</g>
</g>
<!-- Node1&#45;&gt;Node21 -->
<g id="edge25" class="edge">
<title>Node1&#45;&gt;Node21</title>
<path fill="none" stroke="midnightblue" d="M512.17,-356.92C500.7,-351.28 486.96,-345.15 474,-341 412.54,-321.32 339.59,-309 289.08,-302.13"/>
<polygon fill="midnightblue" stroke="midnightblue" points="510.68,-360.1 521.19,-361.49 513.85,-353.85 510.68,-360.1"/>
</g>
<!-- Node22 -->
<g id="node22" class="node">
<title>Node22</title>
<g id="a_node22"><a xlink:href="group__models__3d__motion__bearing__radial__ball.html#ga3e39cd35457c1ceb70a6bb0e55022ee1" target="_top" xlink:title="Radial ball bearing model.">
<polygon fill="white" stroke="black" points="366.5,-0.5 366.5,-19.5 434.5,-19.5 434.5,-0.5 366.5,-0.5"/>
<text text-anchor="middle" x="400.5" y="-7.5" font-family="Helvetica,sans-Serif" font-size="10.00">radial_ball</text>
</a>
</g>
</g>
<!-- Node1&#45;&gt;Node22 -->
<g id="edge28" class="edge">
<title>Node1&#45;&gt;Node22</title>
<path fill="none" stroke="midnightblue" d="M537.48,-351.23C533.7,-285.61 518.31,-76.52 474,-29 463.97,-18.25 448.67,-13.28 434.71,-11.1"/>
<polygon fill="midnightblue" stroke="midnightblue" points="534,-351.64 538.04,-361.43 540.99,-351.25 534,-351.64"/>
</g>
<!-- Node23 -->
<g id="node23" class="node">
<title>Node23</title>
<g id="a_node23"><a xlink:href="group__models__3d__fastener__screws.html#ga57dcfe1241e15eaa58ccd08891504a93" target="_top" xlink:title="Flat and beveled&#45;head fastener bore with nut, nut slot, and bore tolerance.">
<polygon fill="white" stroke="black" points="364.5,-475.5 364.5,-494.5 436.5,-494.5 436.5,-475.5 364.5,-475.5"/>
<text text-anchor="middle" x="400.5" y="-482.5" font-family="Helvetica,sans-Serif" font-size="10.00">screw_bore</text>
</a>
</g>
</g>
<!-- Node1&#45;&gt;Node23 -->
<g id="edge29" class="edge">
<title>Node1&#45;&gt;Node23</title>
<path fill="none" stroke="midnightblue" d="M519.02,-387.21C490.1,-411.27 436.68,-455.72 413.15,-475.31"/>
<polygon fill="midnightblue" stroke="midnightblue" points="521.37,-389.81 526.82,-380.72 516.89,-384.43 521.37,-389.81"/>
</g>
<!-- Node27 -->
<g id="node27" class="node">
<title>Node27</title>
<g id="a_node27"><a xlink:href="group__models__3d__fastener__screws.html#gaad990187680f7ac947e555483d854bfa" target="_top" xlink:title="Gapped fastener bore with engagement cylinders for self&#45;forming threads.">
<polygon fill="white" stroke="black" points="355.5,-380.5 355.5,-399.5 445.5,-399.5 445.5,-380.5 355.5,-380.5"/>
<text text-anchor="middle" x="400.5" y="-387.5" font-family="Helvetica,sans-Serif" font-size="10.00">screw_bore_tsf</text>
</a>
</g>
</g>
<!-- Node1&#45;&gt;Node27 -->
<g id="edge41" class="edge">
<title>Node1&#45;&gt;Node27</title>
<path fill="none" stroke="midnightblue" d="M499.71,-376.38C482.84,-378.72 462.99,-381.47 445.56,-383.89"/>
<polygon fill="midnightblue" stroke="midnightblue" points="500.36,-379.82 509.78,-374.98 499.39,-372.89 500.36,-379.82"/>
</g>
<!-- Node3&#45;&gt;Node2 -->
<g id="edge3" class="edge">
<title>Node3&#45;&gt;Node2</title>
<path fill="none" stroke="midnightblue" d="M364.48,-754.87C331.85,-758.47 283.89,-763.77 254.24,-767.05"/>
<polygon fill="midnightblue" stroke="midnightblue" points="364.93,-758.34 374.49,-753.76 364.17,-751.38 364.93,-758.34"/>
</g>
<!-- Node6&#45;&gt;Node7 -->
<g id="edge7" class="edge">
<title>Node6&#45;&gt;Node7</title>
<path fill="none" stroke="midnightblue" d="M350.99,-273.25C286.14,-269.58 172.08,-263.12 109.05,-259.55"/>
<polygon fill="midnightblue" stroke="midnightblue" points="351.16,-276.77 361.34,-273.84 351.55,-269.78 351.16,-276.77"/>
</g>
<!-- Node10&#45;&gt;Node9 -->
<g id="edge11" class="edge">
<title>Node10&#45;&gt;Node9</title>
<path fill="none" stroke="midnightblue" d="M187.57,-607.93C158.51,-614.76 119.06,-624.04 92.62,-630.27"/>
<polygon fill="midnightblue" stroke="midnightblue" points="188.44,-611.32 197.37,-605.62 186.83,-604.5 188.44,-611.32"/>
</g>
<!-- Node12 -->
<g id="node12" class="node">
<title>Node12</title>
<g id="a_node12"><a xlink:href="group__parts__2d__enclosure__box__finger__joint.html#gacc1bfb220bc3cfed46dcaa3b84898020" target="_top" xlink:title="Generate a 2D box design using screw&#45;based finger joint (box&#45;joint).">
<polygon fill="white" stroke="black" points="173,-114.5 173,-133.5 280,-133.5 280,-114.5 173,-114.5"/>
<text text-anchor="middle" x="226.5" y="-121.5" font-family="Helvetica,sans-Serif" font-size="10.00">box2d_finger_joint</text>
</a>
</g>
</g>
<!-- Node11&#45;&gt;Node12 -->
<g id="edge13" class="edge">
<title>Node11&#45;&gt;Node12</title>
<path fill="none" stroke="midnightblue" d="M336.79,-124C318.15,-124 297.93,-124 280.01,-124"/>
<polygon fill="midnightblue" stroke="midnightblue" points="336.96,-127.5 346.96,-124 336.96,-120.5 336.96,-127.5"/>
</g>
<!-- Node13&#45;&gt;Node7 -->
<g id="edge15" class="edge">
<title>Node13&#45;&gt;Node7</title>
<path fill="none" stroke="midnightblue" d="M342.65,-241.22C276.79,-244.95 169.62,-251.02 109.18,-254.44"/>
<polygon fill="midnightblue" stroke="midnightblue" points="343.06,-244.7 352.85,-240.64 342.67,-237.71 343.06,-244.7"/>
</g>
<!-- Node17 -->
<g id="node17" class="node">
<title>Node17</title>
<g id="a_node17"><a xlink:href="group__parts__3d__fastener__mounts.html#gabc7cd409ab1e2e4b6b894de3cf06658f" target="_top" xlink:title="A multi&#45;directional screw mount slot with optional cover envelope.">
<polygon fill="white" stroke="black" points="0,-513.5 0,-532.5 126,-532.5 126,-513.5 0,-513.5"/>
<text text-anchor="middle" x="63" y="-520.5" font-family="Helvetica,sans-Serif" font-size="10.00">mount_screw_slot_md</text>
</a>
</g>
</g>
<!-- Node16&#45;&gt;Node17 -->
<g id="edge19" class="edge">
<title>Node16&#45;&gt;Node17</title>
<path fill="none" stroke="midnightblue" d="M163.76,-523C151.41,-523 138.43,-523 126.07,-523"/>
<polygon fill="midnightblue" stroke="midnightblue" points="163.96,-526.5 173.96,-523 163.96,-519.5 163.96,-526.5"/>
</g>
<!-- Node18 -->
<g id="node18" class="node">
<title>Node18</title>
<g id="a_node18"><a xlink:href="group__parts__3d__enclosure__power__strip.html#ga33509a1811b27fe7f3687957d4d32460" target="_top" xlink:title="A power strip generator for single gang electrical receptacles.">
<polygon fill="white" stroke="black" points="18,-418.5 18,-437.5 108,-437.5 108,-418.5 18,-418.5"/>
<text text-anchor="middle" x="63" y="-425.5" font-family="Helvetica,sans-Serif" font-size="10.00">power_strip_sg</text>
</a>
</g>
</g>
<!-- Node16&#45;&gt;Node18 -->
<g id="edge20" class="edge">
<title>Node16&#45;&gt;Node18</title>
<path fill="none" stroke="midnightblue" d="M185.76,-509.84C177.72,-506.66 169.45,-503.01 162,-499 128.15,-480.76 92.62,-452.32 75.1,-437.58"/>
<polygon fill="midnightblue" stroke="midnightblue" points="184.79,-513.21 195.38,-513.47 187.26,-506.66 184.79,-513.21"/>
</g>
<!-- Node19&#45;&gt;Node18 -->
<g id="edge22" class="edge">
<title>Node19&#45;&gt;Node18</title>
<path fill="none" stroke="midnightblue" d="M182.72,-343.43C175.62,-345.83 168.47,-348.67 162,-352 126.2,-370.42 90.41,-402.48 73.72,-418.43"/>
<polygon fill="midnightblue" stroke="midnightblue" points="183.8,-346.76 192.3,-340.44 181.71,-340.08 183.8,-346.76"/>
</g>
<!-- Node21&#45;&gt;Node7 -->
<g id="edge26" class="edge">
<title>Node21&#45;&gt;Node7</title>
<path fill="none" stroke="midnightblue" d="M174.94,-283.1C152.24,-277.76 125.82,-271.55 104.46,-266.52"/>
<polygon fill="midnightblue" stroke="midnightblue" points="174.21,-286.53 184.75,-285.41 175.81,-279.71 174.21,-286.53"/>
</g>
<!-- Node21&#45;&gt;Node18 -->
<g id="edge27" class="edge">
<title>Node21&#45;&gt;Node18</title>
<path fill="none" stroke="midnightblue" d="M172.12,-308.44C168.59,-310.09 165.18,-311.94 162,-314 118,-342.56 82.68,-396.55 69.53,-418.43"/>
<polygon fill="midnightblue" stroke="midnightblue" points="173.76,-311.55 181.68,-304.5 171.1,-305.07 173.76,-311.55"/>
</g>
<!-- Node23&#45;&gt;Node5 -->
<g id="edge30" class="edge">
<title>Node23&#45;&gt;Node5</title>
<path fill="none" stroke="midnightblue" d="M389.23,-503.71C372.46,-532.54 336.45,-587.66 291,-618 282.58,-623.62 272.44,-627.62 262.77,-630.46"/>
<polygon fill="midnightblue" stroke="midnightblue" points="392.46,-505.12 394.35,-494.69 386.37,-501.67 392.46,-505.12"/>
</g>
<!-- Node23&#45;&gt;Node10 -->
<g id="edge34" class="edge">
<title>Node23&#45;&gt;Node10</title>
<path fill="none" stroke="midnightblue" d="M384.35,-502.19C364.77,-523.38 328.72,-559.15 291,-580 280.12,-586.01 267.12,-590.33 255.72,-593.32"/>
<polygon fill="midnightblue" stroke="midnightblue" points="387.11,-504.35 391.23,-494.59 381.92,-499.65 387.11,-504.35"/>
</g>
<!-- Node23&#45;&gt;Node14 -->
<g id="edge35" class="edge">
<title>Node23&#45;&gt;Node14</title>
<path fill="none" stroke="midnightblue" d="M374.6,-499.85C353.02,-512.29 320.69,-529.89 291,-542 282.37,-545.52 272.84,-548.71 263.85,-551.44"/>
<polygon fill="midnightblue" stroke="midnightblue" points="376.55,-502.77 383.43,-494.71 373.03,-496.72 376.55,-502.77"/>
</g>
<!-- Node23&#45;&gt;Node16 -->
<g id="edge37" class="edge">
<title>Node23&#45;&gt;Node16</title>
<path fill="none" stroke="midnightblue" d="M354.34,-494.98C328.45,-500.7 296.14,-507.84 270.6,-513.48"/>
<polygon fill="midnightblue" stroke="midnightblue" points="355.27,-498.36 364.28,-492.78 353.76,-491.52 355.27,-498.36"/>
</g>
<!-- Node23&#45;&gt;Node18 -->
<g id="edge40" class="edge">
<title>Node23&#45;&gt;Node18</title>
<path fill="none" stroke="midnightblue" d="M354.3,-485.25C306.08,-484.63 227.74,-481.04 162,-466 133.89,-459.57 103.15,-446.6 83.73,-437.62"/>
<polygon fill="midnightblue" stroke="midnightblue" points="354.38,-488.75 364.41,-485.34 354.44,-481.75 354.38,-488.75"/>
</g>
<!-- Node24 -->
<g id="node24" class="node">
<title>Node24</title>
<g id="a_node24"><a xlink:href="group__parts__3d__fastener__clamps.html#gad5d667c41776480785c62759c61a137e" target="_top" xlink:title="A clamp, bushing, and/or grip for wire, hose, and/or pipe wall penetrations.">
<polygon fill="white" stroke="black" points="195,-399.5 195,-418.5 258,-418.5 258,-399.5 195,-399.5"/>
<text text-anchor="middle" x="226.5" y="-406.5" font-family="Helvetica,sans-Serif" font-size="10.00">clamp_cg</text>
</a>
</g>
</g>
<!-- Node23&#45;&gt;Node24 -->
<g id="edge31" class="edge">
<title>Node23&#45;&gt;Node24</title>
<path fill="none" stroke="midnightblue" d="M374.6,-470.15C353.02,-457.71 320.69,-440.11 291,-428 280.56,-423.74 268.8,-419.96 258.27,-416.91"/>
<polygon fill="midnightblue" stroke="midnightblue" points="373.03,-473.28 383.43,-475.29 376.55,-467.23 373.03,-473.28"/>
</g>
<!-- Node25 -->
<g id="node25" class="node">
<title>Node25</title>
<g id="a_node25"><a xlink:href="group__parts__3d__fastener__mounts.html#ga0cbac43259ec43fff7785057277bcef3" target="_top" xlink:title="A screw mount post with screw bore and optional fins.">
<polygon fill="white" stroke="black" points="172.5,-361.5 172.5,-380.5 280.5,-380.5 280.5,-361.5 172.5,-361.5"/>
<text text-anchor="middle" x="226.5" y="-368.5" font-family="Helvetica,sans-Serif" font-size="10.00">mount_screw_post</text>
</a>
</g>
</g>
<!-- Node23&#45;&gt;Node25 -->
<g id="edge36" class="edge">
<title>Node23&#45;&gt;Node25</title>
<path fill="none" stroke="midnightblue" d="M384.35,-467.81C364.77,-446.62 328.72,-410.85 291,-390 284.15,-386.21 276.46,-383.1 268.86,-380.57"/>
<polygon fill="midnightblue" stroke="midnightblue" points="381.92,-470.35 391.23,-475.41 387.11,-465.65 381.92,-470.35"/>
</g>
<!-- Node26 -->
<g id="node26" class="node">
<title>Node26</title>
<g id="a_node26"><a xlink:href="group__parts__3d__fastener__mounts.html#gae1cc60f3ff242fb07c5a50d34be8c051" target="_top" xlink:title="A mount tab with screw hole and support brace.">
<polygon fill="white" stroke="black" points="175,-437.5 175,-456.5 278,-456.5 278,-437.5 175,-437.5"/>
<text text-anchor="middle" x="226.5" y="-444.5" font-family="Helvetica,sans-Serif" font-size="10.00">mount_screw_tab</text>
</a>
</g>
</g>
<!-- Node23&#45;&gt;Node26 -->
<g id="edge38" class="edge">
<title>Node23&#45;&gt;Node26</title>
<path fill="none" stroke="midnightblue" d="M354.34,-475.02C328.45,-469.3 296.14,-462.16 270.6,-456.52"/>
<polygon fill="midnightblue" stroke="midnightblue" points="353.76,-478.48 364.28,-477.22 355.27,-471.64 353.76,-478.48"/>
</g>
<!-- Node24&#45;&gt;Node7 -->
<g id="edge32" class="edge">
<title>Node24&#45;&gt;Node7</title>
<path fill="none" stroke="midnightblue" d="M185.15,-401.19C177.04,-398.48 168.89,-394.85 162,-390 113.92,-356.16 80,-291.23 68.39,-266.7"/>
<polygon fill="midnightblue" stroke="midnightblue" points="184.37,-404.61 194.95,-404.06 186.34,-397.89 184.37,-404.61"/>
</g>
<!-- Node24&#45;&gt;Node18 -->
<g id="edge33" class="edge">
<title>Node24&#45;&gt;Node18</title>
<path fill="none" stroke="midnightblue" d="M184.79,-413.79C161.4,-416.54 132,-420 108.07,-422.82"/>
<polygon fill="midnightblue" stroke="midnightblue" points="185.22,-417.26 194.74,-412.62 184.4,-410.31 185.22,-417.26"/>
</g>
<!-- Node26&#45;&gt;Node18 -->
<g id="edge39" class="edge">
<title>Node26&#45;&gt;Node18</title>
<path fill="none" stroke="midnightblue" d="M164.87,-439.87C146.06,-437.65 125.68,-435.26 108.2,-433.2"/>
<polygon fill="midnightblue" stroke="midnightblue" points="164.5,-443.35 174.84,-441.04 165.32,-436.4 164.5,-443.35"/>
</g>
<!-- Node27&#45;&gt;Node25 -->
<g id="edge42" class="edge">
<title>Node27&#45;&gt;Node25</title>
<path fill="none" stroke="midnightblue" d="M345.03,-383.98C324.42,-381.71 301,-379.12 280.53,-376.86"/>
<polygon fill="midnightblue" stroke="midnightblue" points="344.88,-387.49 355.21,-385.11 345.65,-380.53 344.88,-387.49"/>
</g>
</g>
</svg>
