<?xml version="1.0" encoding="UTF-8" standalone="no"?>
<!DOCTYPE svg PUBLIC "-//W3C//DTD SVG 1.1//EN"
 "http://www.w3.org/Graphics/SVG/1.1/DTD/svg11.dtd">
<!-- Generated by graphviz version 2.43.0 (0)
 -->
<!-- Title: table_write Pages: 1 -->
<svg width="233pt" height="408pt"
 viewBox="0.00 0.00 233.00 408.00" xmlns="http://www.w3.org/2000/svg" xmlns:xlink="http://www.w3.org/1999/xlink">
<g id="graph0" class="graph" transform="scale(1 1) rotate(0) translate(4 404)">
<title>table_write</title>
<polygon fill="white" stroke="transparent" points="-4,4 -4,-404 229,-404 229,4 -4,4"/>
<!-- Node1 -->
<g id="node1" class="node">
<title>Node1</title>
<g id="a_node1"><a xlink:title="Write formatted map entries to the console.">
<polygon fill="#bfbfbf" stroke="black" points="0,-190.5 0,-209.5 71,-209.5 71,-190.5 0,-190.5"/>
<text text-anchor="middle" x="35.5" y="-197.5" font-family="Helvetica,sans-Serif" font-size="10.00">table_write</text>
</a>
</g>
</g>
<!-- Node2 -->
<g id="node2" class="node">
<title>Node2</title>
<g id="a_node2"><a xlink:href="group__datatypes__iterable__operate.html#gaccab3e37e43cb1d882713b3f3d6d9e1b" target="_top" xlink:title="Return the first element of an iterable value.">
<polygon fill="white" stroke="black" points="148.5,-380.5 148.5,-399.5 183.5,-399.5 183.5,-380.5 148.5,-380.5"/>
<text text-anchor="middle" x="166" y="-387.5" font-family="Helvetica,sans-Serif" font-size="10.00">first</text>
</a>
</g>
</g>
<!-- Node1&#45;&gt;Node2 -->
<g id="edge1" class="edge">
<title>Node1&#45;&gt;Node2</title>
<path fill="none" stroke="midnightblue" d="M37.67,-209.72C41.65,-238.63 57.34,-324.91 107,-371 115.59,-378.98 127.59,-383.61 138.45,-386.29"/>
<polygon fill="midnightblue" stroke="midnightblue" points="137.86,-389.75 148.36,-388.32 139.26,-382.89 137.86,-389.75"/>
</g>
<!-- Node3 -->
<g id="node3" class="node">
<title>Node3</title>
<g id="a_node3"><a xlink:href="group__datatypes__iterable__operate.html#ga00726e9fc8df22b5fde111e335b266f8" target="_top" xlink:title="Return a list containing all but the last n elements of an iterable value.">
<polygon fill="white" stroke="black" points="142.5,-342.5 142.5,-361.5 189.5,-361.5 189.5,-342.5 142.5,-342.5"/>
<text text-anchor="middle" x="166" y="-349.5" font-family="Helvetica,sans-Serif" font-size="10.00">headn</text>
</a>
</g>
</g>
<!-- Node1&#45;&gt;Node3 -->
<g id="edge2" class="edge">
<title>Node1&#45;&gt;Node3</title>
<path fill="none" stroke="midnightblue" d="M38.9,-209.62C45.47,-233.96 66.02,-298.49 107,-333 114.24,-339.1 123.5,-343.26 132.48,-346.08"/>
<polygon fill="midnightblue" stroke="midnightblue" points="131.81,-349.53 142.37,-348.74 133.62,-342.77 131.81,-349.53"/>
</g>
<!-- Node4 -->
<g id="node4" class="node">
<title>Node4</title>
<g id="a_node4"><a xlink:href="group__datatypes__scalar__test.html#gac47a7785d144083733c43327ea092e1d" target="_top" xlink:title="Test if a value is a number.">
<polygon fill="white" stroke="black" points="132,-304.5 132,-323.5 200,-323.5 200,-304.5 132,-304.5"/>
<text text-anchor="middle" x="166" y="-311.5" font-family="Helvetica,sans-Serif" font-size="10.00">is_number</text>
</a>
</g>
</g>
<!-- Node1&#45;&gt;Node4 -->
<g id="edge3" class="edge">
<title>Node1&#45;&gt;Node4</title>
<path fill="none" stroke="midnightblue" d="M41.07,-209.62C50.61,-228.72 74.51,-271.58 107,-295 111.57,-298.29 116.74,-301.03 122.06,-303.32"/>
<polygon fill="midnightblue" stroke="midnightblue" points="121.12,-306.7 131.72,-306.94 123.59,-300.15 121.12,-306.7"/>
</g>
<!-- Node5 -->
<g id="node5" class="node">
<title>Node5</title>
<g id="a_node5"><a xlink:href="group__datatypes__iterable__operate.html#ga4f04409e3fce7bf8226e4fde98f514c0" target="_top" xlink:title="Return the last element of an iterable value.">
<polygon fill="white" stroke="black" points="148.5,-266.5 148.5,-285.5 183.5,-285.5 183.5,-266.5 148.5,-266.5"/>
<text text-anchor="middle" x="166" y="-273.5" font-family="Helvetica,sans-Serif" font-size="10.00">last</text>
</a>
</g>
</g>
<!-- Node1&#45;&gt;Node5 -->
<g id="edge4" class="edge">
<title>Node1&#45;&gt;Node5</title>
<path fill="none" stroke="midnightblue" d="M46.16,-209.77C59.02,-222.28 82.94,-243.91 107,-257 116.84,-262.35 128.45,-266.53 138.69,-269.58"/>
<polygon fill="midnightblue" stroke="midnightblue" points="137.78,-272.96 148.35,-272.26 139.65,-266.22 137.78,-272.96"/>
</g>
<!-- Node6 -->
<g id="node6" class="node">
<title>Node6</title>
<g id="a_node6"><a xlink:href="group__common__console.html#ga2565219688decee9515f527f4553044a" target="_top" xlink:title="Output message to console.">
<polygon fill="white" stroke="black" points="136,-228.5 136,-247.5 196,-247.5 196,-228.5 136,-228.5"/>
<text text-anchor="middle" x="166" y="-235.5" font-family="Helvetica,sans-Serif" font-size="10.00">log_echo</text>
</a>
</g>
</g>
<!-- Node1&#45;&gt;Node6 -->
<g id="edge5" class="edge">
<title>Node1&#45;&gt;Node6</title>
<path fill="none" stroke="midnightblue" d="M68.93,-209.59C86.24,-214.71 107.68,-221.05 125.91,-226.44"/>
<polygon fill="midnightblue" stroke="midnightblue" points="125.08,-229.84 135.66,-229.32 127.06,-223.13 125.08,-229.84"/>
</g>
<!-- Node7 -->
<g id="node7" class="node">
<title>Node7</title>
<g id="a_node7"><a xlink:href="group__datatypes__iterable__operate.html#ga894d4bec62cc9cf38d5e099de3028c54" target="_top" xlink:title="Return the second element of an iterable value.">
<polygon fill="white" stroke="black" points="140.5,-190.5 140.5,-209.5 191.5,-209.5 191.5,-190.5 140.5,-190.5"/>
<text text-anchor="middle" x="166" y="-197.5" font-family="Helvetica,sans-Serif" font-size="10.00">second</text>
</a>
</g>
</g>
<!-- Node1&#45;&gt;Node7 -->
<g id="edge6" class="edge">
<title>Node1&#45;&gt;Node7</title>
<path fill="none" stroke="midnightblue" d="M71.27,-200C89.54,-200 111.87,-200 130.15,-200"/>
<polygon fill="midnightblue" stroke="midnightblue" points="130.38,-203.5 140.38,-200 130.38,-196.5 130.38,-203.5"/>
</g>
<!-- Node8 -->
<g id="node8" class="node">
<title>Node8</title>
<g id="a_node8"><a xlink:href="group__datatypes__list__operate.html#gab842ea235bf5fc40a14512083b49c8d2" target="_top" xlink:title="Convert a list of values to a concatenated string.">
<polygon fill="white" stroke="black" points="150,-152.5 150,-171.5 182,-171.5 182,-152.5 150,-152.5"/>
<text text-anchor="middle" x="166" y="-159.5" font-family="Helvetica,sans-Serif" font-size="10.00">strl</text>
</a>
</g>
</g>
<!-- Node1&#45;&gt;Node8 -->
<g id="edge7" class="edge">
<title>Node1&#45;&gt;Node8</title>
<path fill="none" stroke="midnightblue" d="M68.93,-190.41C90.96,-183.9 119.67,-175.4 139.95,-169.41"/>
<polygon fill="midnightblue" stroke="midnightblue" points="141.11,-172.71 149.71,-166.52 139.13,-166 141.11,-172.71"/>
</g>
<!-- Node9 -->
<g id="node9" class="node">
<title>Node9</title>
<g id="a_node9"><a xlink:href="group__datatypes__list__operate.html#gac68d885cc15339910c08a9094bcacfc7" target="_top" xlink:title="Convert a list of values to a concatenated HTML&#45;formatted string.">
<polygon fill="white" stroke="black" points="136,-114.5 136,-133.5 196,-133.5 196,-114.5 136,-114.5"/>
<text text-anchor="middle" x="166" y="-121.5" font-family="Helvetica,sans-Serif" font-size="10.00">strl_html</text>
</a>
</g>
</g>
<!-- Node1&#45;&gt;Node9 -->
<g id="edge8" class="edge">
<title>Node1&#45;&gt;Node9</title>
<path fill="none" stroke="midnightblue" d="M46.16,-190.23C59.02,-177.72 82.94,-156.09 107,-143 113,-139.73 119.66,-136.91 126.27,-134.51"/>
<polygon fill="midnightblue" stroke="midnightblue" points="127.46,-137.8 135.82,-131.29 125.23,-131.16 127.46,-137.8"/>
</g>
<!-- Node10 -->
<g id="node10" class="node">
<title>Node10</title>
<g id="a_node10"><a xlink:href="group__datatypes__table.html#ga81a0c09664cc9d9123fb2aa4a0a143c4" target="_top" xlink:title="Get the table row index that matches a table row identifier.">
<polygon fill="white" stroke="black" points="107,-76.5 107,-95.5 225,-95.5 225,-76.5 107,-76.5"/>
<text text-anchor="middle" x="166" y="-83.5" font-family="Helvetica,sans-Serif" font-size="10.00">table_get_row_index</text>
</a>
</g>
</g>
<!-- Node1&#45;&gt;Node10 -->
<g id="edge9" class="edge">
<title>Node1&#45;&gt;Node10</title>
<path fill="none" stroke="midnightblue" d="M41.07,-190.38C50.61,-171.28 74.51,-128.42 107,-105 109.66,-103.08 112.53,-101.35 115.52,-99.78"/>
<polygon fill="midnightblue" stroke="midnightblue" points="117.09,-102.91 124.74,-95.58 114.19,-96.54 117.09,-102.91"/>
</g>
<!-- Node11 -->
<g id="node11" class="node">
<title>Node11</title>
<g id="a_node11"><a xlink:href="group__datatypes__table.html#gaff59353c2a35021843d7a7f34d34eac9" target="_top" xlink:title="Get the table cell value for a specified row and column identifier.">
<polygon fill="white" stroke="black" points="118.5,-38.5 118.5,-57.5 213.5,-57.5 213.5,-38.5 118.5,-38.5"/>
<text text-anchor="middle" x="166" y="-45.5" font-family="Helvetica,sans-Serif" font-size="10.00">table_get_value</text>
</a>
</g>
</g>
<!-- Node1&#45;&gt;Node11 -->
<g id="edge10" class="edge">
<title>Node1&#45;&gt;Node11</title>
<path fill="none" stroke="midnightblue" d="M38.9,-190.38C45.47,-166.04 66.02,-101.51 107,-67 109.02,-65.3 111.2,-63.75 113.48,-62.33"/>
<polygon fill="midnightblue" stroke="midnightblue" points="115.46,-65.25 122.72,-57.54 112.23,-59.04 115.46,-65.25"/>
</g>
<!-- Node12 -->
<g id="node12" class="node">
<title>Node12</title>
<g id="a_node12"><a xlink:href="group__datatypes__iterable__operate.html#gafacf0ab6a646e99fcf55351ca693823f" target="_top" xlink:title="Return a list containing all but the first n elements of an iterable value.">
<polygon fill="white" stroke="black" points="147,-0.5 147,-19.5 185,-19.5 185,-0.5 147,-0.5"/>
<text text-anchor="middle" x="166" y="-7.5" font-family="Helvetica,sans-Serif" font-size="10.00">tailn</text>
</a>
</g>
</g>
<!-- Node1&#45;&gt;Node12 -->
<g id="edge11" class="edge">
<title>Node1&#45;&gt;Node12</title>
<path fill="none" stroke="midnightblue" d="M37.67,-190.28C41.65,-161.37 57.34,-75.09 107,-29 115.15,-21.43 126.38,-16.87 136.78,-14.13"/>
<polygon fill="midnightblue" stroke="midnightblue" points="137.74,-17.51 146.76,-11.95 136.25,-10.67 137.74,-17.51"/>
</g>
</g>
</svg>
