<?xml version="1.0" encoding="UTF-8" standalone="no"?>
<!DOCTYPE svg PUBLIC "-//W3C//DTD SVG 1.1//EN"
 "http://www.w3.org/Graphics/SVG/1.1/DTD/svg11.dtd">
<!-- Generated by graphviz version 2.43.0 (0)
 -->
<!-- Title: joint3d_dovetail_screw Pages: 1 -->
<svg width="460pt" height="446pt"
 viewBox="0.00 0.00 460.00 446.00" xmlns="http://www.w3.org/2000/svg" xmlns:xlink="http://www.w3.org/1999/xlink">
<g id="graph0" class="graph" transform="scale(1 1) rotate(0) translate(4 442)">
<title>joint3d_dovetail_screw</title>
<polygon fill="white" stroke="transparent" points="-4,4 -4,-442 456,-442 456,4 -4,4"/>
<!-- Node1 -->
<g id="node1" class="node">
<title>Node1</title>
<g id="a_node1"><a xlink:title="Construct a 3d dovetail joint with optional screw and nut fastener.">
<polygon fill="#bfbfbf" stroke="black" points="0,-190.5 0,-209.5 129,-209.5 129,-190.5 0,-190.5"/>
<text text-anchor="middle" x="64.5" y="-197.5" font-family="Helvetica,sans-Serif" font-size="10.00">joint3d_dovetail_screw</text>
</a>
</g>
</g>
<!-- Node2 -->
<g id="node2" class="node">
<title>Node2</title>
<g id="a_node2"><a xlink:href="group__datatypes__binary.html#ga7ce4ed94d9b389ff817ea219918b8732" target="_top" xlink:title="Test if a binary bit position of an integer value equals a test bit.">
<polygon fill="white" stroke="black" points="181,-380.5 181,-399.5 260,-399.5 260,-380.5 181,-380.5"/>
<text text-anchor="middle" x="220.5" y="-387.5" font-family="Helvetica,sans-Serif" font-size="10.00">binary_bit_is</text>
</a>
</g>
</g>
<!-- Node1&#45;&gt;Node2 -->
<g id="edge1" class="edge">
<title>Node1&#45;&gt;Node2</title>
<path fill="none" stroke="midnightblue" d="M68.46,-209.72C77.75,-238.62 109.09,-324.89 165,-371 167.14,-372.76 169.45,-374.37 171.87,-375.82"/>
<polygon fill="midnightblue" stroke="midnightblue" points="170.52,-379.06 181.02,-380.49 173.7,-372.83 170.52,-379.06"/>
</g>
<!-- Node3 -->
<g id="node3" class="node">
<title>Node3</title>
<g id="a_node3"><a xlink:href="group__datatypes__iterable__operate.html#ga3d37c2b0067d1661724bd89955c8f6ce" target="_top" xlink:title="Returns an element from an iterable if it exists, or a default value if not.">
<polygon fill="white" stroke="black" points="342.5,-304.5 342.5,-323.5 421.5,-323.5 421.5,-304.5 342.5,-304.5"/>
<text text-anchor="middle" x="382" y="-311.5" font-family="Helvetica,sans-Serif" font-size="10.00">defined_e_or</text>
</a>
</g>
</g>
<!-- Node1&#45;&gt;Node3 -->
<g id="edge2" class="edge">
<title>Node1&#45;&gt;Node3</title>
<path fill="none" stroke="midnightblue" d="M72.09,-209.72C86.32,-229.8 122.14,-275.6 165,-295 218.45,-319.19 286.88,-320.97 332.24,-318.66"/>
<polygon fill="midnightblue" stroke="midnightblue" points="332.63,-322.14 342.4,-318.05 332.21,-315.15 332.63,-322.14"/>
</g>
<!-- Node4 -->
<g id="node4" class="node">
<title>Node4</title>
<g id="a_node4"><a xlink:href="group__datatypes__iterable__operate.html#ga82ab786f1f69301a63c79e54e3a6d617" target="_top" xlink:title="Return the first defined specified element in a list of lists, otherwise returns the given default va...">
<polygon fill="white" stroke="black" points="178,-114.5 178,-133.5 263,-133.5 263,-114.5 178,-114.5"/>
<text text-anchor="middle" x="220.5" y="-121.5" font-family="Helvetica,sans-Serif" font-size="10.00">defined_fle_or</text>
</a>
</g>
</g>
<!-- Node1&#45;&gt;Node4 -->
<g id="edge3" class="edge">
<title>Node1&#45;&gt;Node4</title>
<path fill="none" stroke="midnightblue" d="M82.93,-190.44C102.66,-179.72 135.84,-162.02 165,-148 172.11,-144.58 179.82,-141.07 187.15,-137.82"/>
<polygon fill="midnightblue" stroke="midnightblue" points="189.05,-140.81 196.81,-133.59 186.24,-134.4 189.05,-140.81"/>
</g>
<!-- Node5 -->
<g id="node5" class="node">
<title>Node5</title>
<g id="a_node5"><a xlink:href="group__transforms__extrude.html#gab2442cfaf1ad44d6e295ab0979d9e03d" target="_top" xlink:title="Linearly extrude a 2d shape with uniformly&#45;spaced profile scaling.">
<polygon fill="white" stroke="black" points="166,-342.5 166,-361.5 275,-361.5 275,-342.5 166,-342.5"/>
<text text-anchor="middle" x="220.5" y="-349.5" font-family="Helvetica,sans-Serif" font-size="10.00">extrude_linear_uss</text>
</a>
</g>
</g>
<!-- Node1&#45;&gt;Node5 -->
<g id="edge4" class="edge">
<title>Node1&#45;&gt;Node5</title>
<path fill="none" stroke="midnightblue" d="M70.74,-209.67C83.78,-232.96 119.95,-292.86 165,-328 169.98,-331.88 175.68,-335.28 181.47,-338.19"/>
<polygon fill="midnightblue" stroke="midnightblue" points="180.03,-341.38 190.57,-342.39 182.96,-335.03 180.03,-341.38"/>
</g>
<!-- Node9 -->
<g id="node9" class="node">
<title>Node9</title>
<g id="a_node9"><a xlink:href="group__units__length.html#ga4e8b3884a104d09e926928dcedd30d03" target="_top" xlink:title="Convert a length value from one unit to another, with optional dimensional scaling.">
<polygon fill="white" stroke="black" points="197,-76.5 197,-95.5 244,-95.5 244,-76.5 197,-76.5"/>
<text text-anchor="middle" x="220.5" y="-83.5" font-family="Helvetica,sans-Serif" font-size="10.00">length</text>
</a>
</g>
</g>
<!-- Node1&#45;&gt;Node9 -->
<g id="edge9" class="edge">
<title>Node1&#45;&gt;Node9</title>
<path fill="none" stroke="midnightblue" d="M73.23,-190.24C88.71,-171.27 125.47,-129.17 165,-105 171.78,-100.86 179.58,-97.46 187.13,-94.74"/>
<polygon fill="midnightblue" stroke="midnightblue" points="188.39,-98.01 196.79,-91.55 186.2,-91.36 188.39,-98.01"/>
</g>
<!-- Node10 -->
<g id="node10" class="node">
<title>Node10</title>
<g id="a_node10"><a xlink:href="group__shapes__polygon.html#ga9c1bd914355d92f9d66ba0e5c2d9dbac" target="_top" xlink:title="A polygon rectangle with vertex rounding.">
<polygon fill="white" stroke="black" points="180.5,-266.5 180.5,-285.5 260.5,-285.5 260.5,-266.5 180.5,-266.5"/>
<text text-anchor="middle" x="220.5" y="-273.5" font-family="Helvetica,sans-Serif" font-size="10.00">pg_rectangle</text>
</a>
</g>
</g>
<!-- Node1&#45;&gt;Node10 -->
<g id="edge10" class="edge">
<title>Node1&#45;&gt;Node10</title>
<path fill="none" stroke="midnightblue" d="M82.93,-209.56C102.66,-220.28 135.84,-237.98 165,-252 172.11,-255.42 179.82,-258.93 187.15,-262.18"/>
<polygon fill="midnightblue" stroke="midnightblue" points="186.24,-265.6 196.81,-266.41 189.05,-259.19 186.24,-265.6"/>
</g>
<!-- Node11 -->
<g id="node11" class="node">
<title>Node11</title>
<g id="a_node11"><a xlink:href="group__math__polygon.html#ga7a0eff64929a142fc507615f83e3bd58" target="_top" xlink:title="Compute coordinates that round all of the vertices between each adjacent edges in 2D.">
<polygon fill="white" stroke="black" points="312,-228.5 312,-247.5 452,-247.5 452,-228.5 312,-228.5"/>
<text text-anchor="middle" x="382" y="-235.5" font-family="Helvetica,sans-Serif" font-size="10.00">polygon_round_eve_all_p</text>
</a>
</g>
</g>
<!-- Node1&#45;&gt;Node11 -->
<g id="edge14" class="edge">
<title>Node1&#45;&gt;Node11</title>
<path fill="none" stroke="midnightblue" d="M110.41,-209.57C127.45,-212.94 147.06,-216.5 165,-219 210.03,-225.26 260.64,-229.85 301.55,-232.94"/>
<polygon fill="midnightblue" stroke="midnightblue" points="301.5,-236.44 311.73,-233.69 302.02,-229.46 301.5,-236.44"/>
</g>
<!-- Node13 -->
<g id="node13" class="node">
<title>Node13</title>
<g id="a_node13"><a xlink:href="group__models__3d__fastener__screws.html#ga57dcfe1241e15eaa58ccd08891504a93" target="_top" xlink:title="Flat and beveled&#45;head fastener bore with nut, nut slot, and bore tolerance.">
<polygon fill="white" stroke="black" points="184.5,-190.5 184.5,-209.5 256.5,-209.5 256.5,-190.5 184.5,-190.5"/>
<text text-anchor="middle" x="220.5" y="-197.5" font-family="Helvetica,sans-Serif" font-size="10.00">screw_bore</text>
</a>
</g>
</g>
<!-- Node1&#45;&gt;Node13 -->
<g id="edge15" class="edge">
<title>Node1&#45;&gt;Node13</title>
<path fill="none" stroke="midnightblue" d="M129.03,-200C144.08,-200 159.84,-200 173.92,-200"/>
<polygon fill="midnightblue" stroke="midnightblue" points="174.31,-203.5 184.31,-200 174.31,-196.5 174.31,-203.5"/>
</g>
<!-- Node15 -->
<g id="node15" class="node">
<title>Node15</title>
<g id="a_node15"><a xlink:href="group__datatypes__list__operate.html#ga7b8e6f2bbfa72ae61e39377e5ca6b5be" target="_top" xlink:title="Select specified element from list or return a default.">
<polygon fill="white" stroke="black" points="352.5,-152.5 352.5,-171.5 411.5,-171.5 411.5,-152.5 352.5,-152.5"/>
<text text-anchor="middle" x="382" y="-159.5" font-family="Helvetica,sans-Serif" font-size="10.00">select_ci</text>
</a>
</g>
</g>
<!-- Node1&#45;&gt;Node15 -->
<g id="edge19" class="edge">
<title>Node1&#45;&gt;Node15</title>
<path fill="none" stroke="midnightblue" d="M110.41,-190.43C127.45,-187.06 147.06,-183.5 165,-181 226.66,-172.42 298.79,-167 342.13,-164.23"/>
<polygon fill="midnightblue" stroke="midnightblue" points="342.48,-167.72 352.25,-163.6 342.05,-160.73 342.48,-167.72"/>
</g>
<!-- Node16 -->
<g id="node16" class="node">
<title>Node16</title>
<g id="a_node16"><a xlink:href="group__math__triangle.html#gaab9b812d15418fd05c9d93f3bfcc1989" target="_top" xlink:title="Compute a set of vertex coordinates for a triangle given its side lengths in 2D.">
<polygon fill="white" stroke="black" points="165,-38.5 165,-57.5 276,-57.5 276,-38.5 165,-38.5"/>
<text text-anchor="middle" x="220.5" y="-45.5" font-family="Helvetica,sans-Serif" font-size="10.00">triangle2d_sss2ppp</text>
</a>
</g>
</g>
<!-- Node1&#45;&gt;Node16 -->
<g id="edge20" class="edge">
<title>Node1&#45;&gt;Node16</title>
<path fill="none" stroke="midnightblue" d="M70.09,-190.43C82.19,-166.2 117.3,-101.92 165,-67 167.63,-65.08 170.47,-63.33 173.42,-61.76"/>
<polygon fill="midnightblue" stroke="midnightblue" points="174.94,-64.91 182.53,-57.52 171.99,-58.57 174.94,-64.91"/>
</g>
<!-- Node17 -->
<g id="node17" class="node">
<title>Node17</title>
<g id="a_node17"><a xlink:href="group__math__triangle.html#ga33761959a2184db852e773ca2330811b" target="_top" xlink:title="Compute the side lengths of a triangle given two sides and the included angle.">
<polygon fill="white" stroke="black" points="171.5,-0.5 171.5,-19.5 269.5,-19.5 269.5,-0.5 171.5,-0.5"/>
<text text-anchor="middle" x="220.5" y="-7.5" font-family="Helvetica,sans-Serif" font-size="10.00">triangle_sas2sss</text>
</a>
</g>
</g>
<!-- Node1&#45;&gt;Node17 -->
<g id="edge21" class="edge">
<title>Node1&#45;&gt;Node17</title>
<path fill="none" stroke="midnightblue" d="M68.46,-190.28C77.75,-161.38 109.09,-75.11 165,-29 167.14,-27.24 169.45,-25.63 171.87,-24.18"/>
<polygon fill="midnightblue" stroke="midnightblue" points="173.7,-27.17 181.02,-19.51 170.52,-20.94 173.7,-27.17"/>
</g>
<!-- Node5&#45;&gt;Node3 -->
<g id="edge5" class="edge">
<title>Node5&#45;&gt;Node3</title>
<path fill="none" stroke="midnightblue" d="M261.75,-342.41C283.29,-337.28 309.98,-330.92 332.65,-325.52"/>
<polygon fill="midnightblue" stroke="midnightblue" points="333.5,-328.92 342.41,-323.19 331.88,-322.11 333.5,-328.92"/>
</g>
<!-- Node6 -->
<g id="node6" class="node">
<title>Node6</title>
<g id="a_node6"><a xlink:href="group__datatypes__iterable__operate.html#gaccab3e37e43cb1d882713b3f3d6d9e1b" target="_top" xlink:title="Return the first element of an iterable value.">
<polygon fill="white" stroke="black" points="364.5,-418.5 364.5,-437.5 399.5,-437.5 399.5,-418.5 364.5,-418.5"/>
<text text-anchor="middle" x="382" y="-425.5" font-family="Helvetica,sans-Serif" font-size="10.00">first</text>
</a>
</g>
</g>
<!-- Node5&#45;&gt;Node6 -->
<g id="edge6" class="edge">
<title>Node5&#45;&gt;Node6</title>
<path fill="none" stroke="midnightblue" d="M256.96,-361.59C263.56,-364.14 270.19,-367.25 276,-371 295.54,-383.63 292.05,-397.03 312,-409 324.86,-416.72 340.94,-421.38 354.34,-424.16"/>
<polygon fill="midnightblue" stroke="midnightblue" points="353.93,-427.64 364.39,-426 355.19,-420.76 353.93,-427.64"/>
</g>
<!-- Node7 -->
<g id="node7" class="node">
<title>Node7</title>
<g id="a_node7"><a xlink:href="group__datatypes__scalar__test.html#ga258e8911375d30ff85a6e52df01dc1c5" target="_top" xlink:title="Test if a value is a single non&#45;iterable value.">
<polygon fill="white" stroke="black" points="352.5,-380.5 352.5,-399.5 411.5,-399.5 411.5,-380.5 352.5,-380.5"/>
<text text-anchor="middle" x="382" y="-387.5" font-family="Helvetica,sans-Serif" font-size="10.00">is_scalar</text>
</a>
</g>
</g>
<!-- Node5&#45;&gt;Node7 -->
<g id="edge7" class="edge">
<title>Node5&#45;&gt;Node7</title>
<path fill="none" stroke="midnightblue" d="M261.75,-361.59C286.46,-367.48 317.94,-374.98 342.35,-380.79"/>
<polygon fill="midnightblue" stroke="midnightblue" points="341.8,-384.26 352.33,-383.17 343.42,-377.45 341.8,-384.26"/>
</g>
<!-- Node8 -->
<g id="node8" class="node">
<title>Node8</title>
<g id="a_node8"><a xlink:href="group__datatypes__iterable__operate.html#ga894d4bec62cc9cf38d5e099de3028c54" target="_top" xlink:title="Return the second element of an iterable value.">
<polygon fill="white" stroke="black" points="356.5,-342.5 356.5,-361.5 407.5,-361.5 407.5,-342.5 356.5,-342.5"/>
<text text-anchor="middle" x="382" y="-349.5" font-family="Helvetica,sans-Serif" font-size="10.00">second</text>
</a>
</g>
</g>
<!-- Node5&#45;&gt;Node8 -->
<g id="edge8" class="edge">
<title>Node5&#45;&gt;Node8</title>
<path fill="none" stroke="midnightblue" d="M275.05,-352C298.48,-352 325.3,-352 346.1,-352"/>
<polygon fill="midnightblue" stroke="midnightblue" points="346.37,-355.5 356.37,-352 346.37,-348.5 346.37,-355.5"/>
</g>
<!-- Node10&#45;&gt;Node3 -->
<g id="edge11" class="edge">
<title>Node10&#45;&gt;Node3</title>
<path fill="none" stroke="midnightblue" d="M260.52,-285.3C282.21,-290.46 309.4,-296.94 332.45,-302.43"/>
<polygon fill="midnightblue" stroke="midnightblue" points="331.85,-305.89 342.38,-304.8 333.47,-299.08 331.85,-305.89"/>
</g>
<!-- Node10&#45;&gt;Node11 -->
<g id="edge12" class="edge">
<title>Node10&#45;&gt;Node11</title>
<path fill="none" stroke="midnightblue" d="M260.52,-266.7C281.81,-261.63 308.39,-255.3 331.17,-249.87"/>
<polygon fill="midnightblue" stroke="midnightblue" points="332.08,-253.25 341,-247.53 330.46,-246.44 332.08,-253.25"/>
</g>
<!-- Node12 -->
<g id="node12" class="node">
<title>Node12</title>
<g id="a_node12"><a xlink:href="group__math__linear__algebra.html#gaeabe74699fd0a437bad9a1d442bfd111" target="_top" xlink:title="Translate all coordinates dimensions.">
<polygon fill="white" stroke="black" points="346.5,-266.5 346.5,-285.5 417.5,-285.5 417.5,-266.5 346.5,-266.5"/>
<text text-anchor="middle" x="382" y="-273.5" font-family="Helvetica,sans-Serif" font-size="10.00">translate_p</text>
</a>
</g>
</g>
<!-- Node10&#45;&gt;Node12 -->
<g id="edge13" class="edge">
<title>Node10&#45;&gt;Node12</title>
<path fill="none" stroke="midnightblue" d="M260.52,-276C283.41,-276 312.43,-276 336.25,-276"/>
<polygon fill="midnightblue" stroke="midnightblue" points="336.45,-279.5 346.45,-276 336.45,-272.5 336.45,-279.5"/>
</g>
<!-- Node13&#45;&gt;Node3 -->
<g id="edge16" class="edge">
<title>Node13&#45;&gt;Node3</title>
<path fill="none" stroke="midnightblue" d="M230.77,-209.67C241.63,-221 260.14,-240.34 276,-257 292.04,-273.85 292.05,-283.03 312,-295 318.3,-298.78 325.37,-301.83 332.52,-304.28"/>
<polygon fill="midnightblue" stroke="midnightblue" points="331.66,-307.68 342.25,-307.27 333.72,-300.99 331.66,-307.68"/>
</g>
<!-- Node14 -->
<g id="node14" class="node">
<title>Node14</title>
<g id="a_node14"><a xlink:href="group__datatypes__iterable__operate.html#gaa10da05023bd79eec85459298bc937c2" target="_top" xlink:title="Returns the list element or scalar numeric value if defined, otherwise returns the default value.">
<polygon fill="white" stroke="black" points="336.5,-190.5 336.5,-209.5 427.5,-209.5 427.5,-190.5 336.5,-190.5"/>
<text text-anchor="middle" x="382" y="-197.5" font-family="Helvetica,sans-Serif" font-size="10.00">defined_eon_or</text>
</a>
</g>
</g>
<!-- Node13&#45;&gt;Node14 -->
<g id="edge17" class="edge">
<title>Node13&#45;&gt;Node14</title>
<path fill="none" stroke="midnightblue" d="M256.5,-200C276.95,-200 303.21,-200 326.33,-200"/>
<polygon fill="midnightblue" stroke="midnightblue" points="326.36,-203.5 336.36,-200 326.36,-196.5 326.36,-203.5"/>
</g>
<!-- Node13&#45;&gt;Node15 -->
<g id="edge18" class="edge">
<title>Node13&#45;&gt;Node15</title>
<path fill="none" stroke="midnightblue" d="M256.5,-191.66C281.92,-185.6 316.31,-177.41 342.51,-171.17"/>
<polygon fill="midnightblue" stroke="midnightblue" points="343.55,-174.52 352.46,-168.8 341.92,-167.71 343.55,-174.52"/>
</g>
</g>
</svg>
