<?xml version="1.0" encoding="UTF-8" standalone="no"?>
<!DOCTYPE svg PUBLIC "-//W3C//DTD SVG 1.1//EN"
 "http://www.w3.org/Graphics/SVG/1.1/DTD/svg11.dtd">
<!-- Generated by graphviz version 2.43.0 (0)
 -->
<!-- Title: hinge_bf Pages: 1 -->
<svg width="495pt" height="712pt"
 viewBox="0.00 0.00 495.00 712.00" xmlns="http://www.w3.org/2000/svg" xmlns:xlink="http://www.w3.org/1999/xlink">
<g id="graph0" class="graph" transform="scale(1 1) rotate(0) translate(4 708)">
<title>hinge_bf</title>
<polygon fill="white" stroke="transparent" points="-4,4 -4,-708 491,-708 491,4 -4,4"/>
<!-- Node1 -->
<g id="node1" class="node">
<title>Node1</title>
<g id="a_node1"><a xlink:title="A print&#45;in&#45;place bi&#45;fold hinge generator.">
<polygon fill="#bfbfbf" stroke="black" points="0,-399.5 0,-418.5 59,-418.5 59,-399.5 0,-399.5"/>
<text text-anchor="middle" x="29.5" y="-406.5" font-family="Helvetica,sans-Serif" font-size="10.00">hinge_bf</text>
</a>
</g>
</g>
<!-- Node2 -->
<g id="node2" class="node">
<title>Node2</title>
<g id="a_node2"><a xlink:href="group__datatypes__binary.html#ga5b45b01721822e43a47a7f00e25688f5" target="_top" xlink:title="Base&#45;2 binary AND operation for integers.">
<polygon fill="white" stroke="black" points="95,-684.5 95,-703.5 166,-703.5 166,-684.5 95,-684.5"/>
<text text-anchor="middle" x="130.5" y="-691.5" font-family="Helvetica,sans-Serif" font-size="10.00">binary_and</text>
</a>
</g>
</g>
<!-- Node1&#45;&gt;Node2 -->
<g id="edge1" class="edge">
<title>Node1&#45;&gt;Node2</title>
<path fill="none" stroke="midnightblue" d="M30.52,-418.5C31.05,-454.65 37.06,-585.79 95,-670 97.05,-672.98 99.59,-675.7 102.37,-678.15"/>
<polygon fill="midnightblue" stroke="midnightblue" points="100.48,-681.12 110.57,-684.36 104.7,-675.53 100.48,-681.12"/>
</g>
<!-- Node3 -->
<g id="node3" class="node">
<title>Node3</title>
<g id="a_node3"><a xlink:href="group__datatypes__binary.html#ga7ce4ed94d9b389ff817ea219918b8732" target="_top" xlink:title="Test if a binary bit position of an integer value equals a test bit.">
<polygon fill="white" stroke="black" points="217,-570.5 217,-589.5 296,-589.5 296,-570.5 217,-570.5"/>
<text text-anchor="middle" x="256.5" y="-577.5" font-family="Helvetica,sans-Serif" font-size="10.00">binary_bit_is</text>
</a>
</g>
</g>
<!-- Node1&#45;&gt;Node3 -->
<g id="edge2" class="edge">
<title>Node1&#45;&gt;Node3</title>
<path fill="none" stroke="midnightblue" d="M39.76,-418.68C64.3,-443.91 133.78,-512.74 202,-556 207.89,-559.74 214.46,-563.19 220.93,-566.25"/>
<polygon fill="midnightblue" stroke="midnightblue" points="219.68,-569.52 230.23,-570.43 222.55,-563.14 219.68,-569.52"/>
</g>
<!-- Node4 -->
<g id="node4" class="node">
<title>Node4</title>
<g id="a_node4"><a xlink:href="group__datatypes__binary.html#gaa4aca09deee9a250a6bb55facb2357a8" target="_top" xlink:title="Base&#45;2 binary right&#45;shift operation for an integer.">
<polygon fill="white" stroke="black" points="95,-38.5 95,-57.5 166,-57.5 166,-38.5 95,-38.5"/>
<text text-anchor="middle" x="130.5" y="-45.5" font-family="Helvetica,sans-Serif" font-size="10.00">binary_ishr</text>
</a>
</g>
</g>
<!-- Node1&#45;&gt;Node4 -->
<g id="edge3" class="edge">
<title>Node1&#45;&gt;Node4</title>
<path fill="none" stroke="midnightblue" d="M31.38,-399.19C35.94,-349.82 58.17,-128.7 95,-72 96.97,-68.97 99.46,-66.22 102.21,-63.74"/>
<polygon fill="midnightblue" stroke="midnightblue" points="104.55,-66.36 110.39,-57.52 100.31,-60.79 104.55,-66.36"/>
</g>
<!-- Node5 -->
<g id="node5" class="node">
<title>Node5</title>
<g id="a_node5"><a xlink:href="group__datatypes__iterable__operate.html#ga3d37c2b0067d1661724bd89955c8f6ce" target="_top" xlink:title="Returns an element from an iterable if it exists, or a default value if not.">
<polygon fill="white" stroke="black" points="377.5,-266.5 377.5,-285.5 456.5,-285.5 456.5,-266.5 377.5,-266.5"/>
<text text-anchor="middle" x="417" y="-273.5" font-family="Helvetica,sans-Serif" font-size="10.00">defined_e_or</text>
</a>
</g>
</g>
<!-- Node1&#45;&gt;Node5 -->
<g id="edge4" class="edge">
<title>Node1&#45;&gt;Node5</title>
<path fill="none" stroke="midnightblue" d="M33.98,-399.28C47.96,-362.01 103.94,-227.96 202,-181 245.69,-160.07 265.79,-163.58 311,-181 351.1,-196.45 385.39,-235.09 403.11,-258.05"/>
<polygon fill="midnightblue" stroke="midnightblue" points="400.47,-260.37 409.27,-266.27 406.08,-256.17 400.47,-260.37"/>
</g>
<!-- Node6 -->
<g id="node6" class="node">
<title>Node6</title>
<g id="a_node6"><a xlink:href="group__datatypes__iterable__operate.html#gaa10da05023bd79eec85459298bc937c2" target="_top" xlink:title="Returns the list element or scalar numeric value if defined, otherwise returns the default value.">
<polygon fill="white" stroke="black" points="371.5,-494.5 371.5,-513.5 462.5,-513.5 462.5,-494.5 371.5,-494.5"/>
<text text-anchor="middle" x="417" y="-501.5" font-family="Helvetica,sans-Serif" font-size="10.00">defined_eon_or</text>
</a>
</g>
</g>
<!-- Node1&#45;&gt;Node6 -->
<g id="edge5" class="edge">
<title>Node1&#45;&gt;Node6</title>
<path fill="none" stroke="midnightblue" d="M34.89,-418.67C51.03,-452.8 110.95,-567.24 202,-599 247.74,-614.96 270.06,-624.91 311,-599 342.58,-579.01 318.38,-547.04 347,-523 351.34,-519.35 356.33,-516.4 361.59,-514.02"/>
<polygon fill="midnightblue" stroke="midnightblue" points="363.2,-517.15 371.28,-510.3 360.69,-510.61 363.2,-517.15"/>
</g>
<!-- Node7 -->
<g id="node7" class="node">
<title>Node7</title>
<g id="a_node7"><a xlink:href="group__parts__3d__fastener__hinges.html#ga7e350f2c55116094108b99dd8103fc04" target="_top" xlink:title="A print&#45;in&#45;place single&#45;fold hinge generator.">
<polygon fill="white" stroke="black" points="101.5,-323.5 101.5,-342.5 159.5,-342.5 159.5,-323.5 101.5,-323.5"/>
<text text-anchor="middle" x="130.5" y="-330.5" font-family="Helvetica,sans-Serif" font-size="10.00">hinge_sf</text>
</a>
</g>
</g>
<!-- Node1&#45;&gt;Node7 -->
<g id="edge6" class="edge">
<title>Node1&#45;&gt;Node7</title>
<path fill="none" stroke="midnightblue" d="M43.04,-399.37C59.63,-386.64 89.08,-364.03 108.95,-348.78"/>
<polygon fill="midnightblue" stroke="midnightblue" points="111.26,-351.41 117.06,-342.55 107,-345.86 111.26,-351.41"/>
</g>
<!-- Node22 -->
<g id="node22" class="node">
<title>Node22</title>
<g id="a_node22"><a xlink:href="group__datatypes__list__operate.html#ga7b8e6f2bbfa72ae61e39377e5ca6b5be" target="_top" xlink:title="Select specified element from list or return a default.">
<polygon fill="white" stroke="black" points="387.5,-532.5 387.5,-551.5 446.5,-551.5 446.5,-532.5 387.5,-532.5"/>
<text text-anchor="middle" x="417" y="-539.5" font-family="Helvetica,sans-Serif" font-size="10.00">select_ci</text>
</a>
</g>
</g>
<!-- Node1&#45;&gt;Node22 -->
<g id="edge36" class="edge">
<title>Node1&#45;&gt;Node22</title>
<path fill="none" stroke="midnightblue" d="M32.32,-418.73C37.61,-444.75 55.25,-516.94 95,-561 131.38,-601.32 149.41,-606.46 202,-620 248.91,-632.08 265.01,-635.21 311,-620 347.38,-607.97 381.42,-577.9 400.4,-558.81"/>
<polygon fill="midnightblue" stroke="midnightblue" points="402.92,-561.24 407.36,-551.62 397.89,-556.38 402.92,-561.24"/>
</g>
<!-- Node23 -->
<g id="node23" class="node">
<title>Node23</title>
<g id="a_node23"><a xlink:href="group__datatypes__list__operate.html#gab842ea235bf5fc40a14512083b49c8d2" target="_top" xlink:title="Convert a list of values to a concatenated string.">
<polygon fill="white" stroke="black" points="240.5,-0.5 240.5,-19.5 272.5,-19.5 272.5,-0.5 240.5,-0.5"/>
<text text-anchor="middle" x="256.5" y="-7.5" font-family="Helvetica,sans-Serif" font-size="10.00">strl</text>
</a>
</g>
</g>
<!-- Node1&#45;&gt;Node23 -->
<g id="edge37" class="edge">
<title>Node1&#45;&gt;Node23</title>
<path fill="none" stroke="midnightblue" d="M31.55,-399.35C36.67,-353.61 60.24,-158.75 95,-110 116.42,-79.96 137.28,-90.15 166,-67 184.11,-52.4 182.5,-41.69 202,-29 210.62,-23.39 221.09,-19.2 230.48,-16.2"/>
<polygon fill="midnightblue" stroke="midnightblue" points="231.47,-19.56 240.1,-13.41 229.52,-12.84 231.47,-19.56"/>
</g>
<!-- Node7&#45;&gt;Node3 -->
<g id="edge7" class="edge">
<title>Node7&#45;&gt;Node3</title>
<path fill="none" stroke="midnightblue" d="M134.03,-342.59C144.81,-383.13 186.98,-539.13 202,-556 205.3,-559.7 209.27,-562.86 213.55,-565.56"/>
<polygon fill="midnightblue" stroke="midnightblue" points="212.18,-568.79 222.65,-570.45 215.5,-562.63 212.18,-568.79"/>
</g>
<!-- Node7&#45;&gt;Node5 -->
<g id="edge13" class="edge">
<title>Node7&#45;&gt;Node5</title>
<path fill="none" stroke="midnightblue" d="M136.73,-323.45C146.76,-306.29 170.49,-270.75 202,-257 261.15,-231.19 338.1,-248.95 381.77,-263.17"/>
<polygon fill="midnightblue" stroke="midnightblue" points="380.75,-266.52 391.34,-266.41 382.99,-259.89 380.75,-266.52"/>
</g>
<!-- Node7&#45;&gt;Node6 -->
<g id="edge14" class="edge">
<title>Node7&#45;&gt;Node6</title>
<path fill="none" stroke="midnightblue" d="M134.66,-342.66C142.4,-364.74 164.44,-419.12 202,-447 227.07,-465.61 306.44,-483.55 361.14,-494.17"/>
<polygon fill="midnightblue" stroke="midnightblue" points="360.57,-497.63 371.05,-496.07 361.89,-490.75 360.57,-497.63"/>
</g>
<!-- Node8 -->
<g id="node8" class="node">
<title>Node8</title>
<g id="a_node8"><a xlink:href="group__shapes__common__3d.html#ga5075cfcc6967fb610e308f08da3fb059" target="_top" xlink:title="A cone.">
<polygon fill="white" stroke="black" points="236.5,-418.5 236.5,-437.5 276.5,-437.5 276.5,-418.5 236.5,-418.5"/>
<text text-anchor="middle" x="256.5" y="-425.5" font-family="Helvetica,sans-Serif" font-size="10.00">cone</text>
</a>
</g>
</g>
<!-- Node7&#45;&gt;Node8 -->
<g id="edge8" class="edge">
<title>Node7&#45;&gt;Node8</title>
<path fill="none" stroke="midnightblue" d="M137.98,-342.55C149.23,-358.47 173.89,-390.5 202,-409 209.43,-413.89 218.28,-417.7 226.62,-420.57"/>
<polygon fill="midnightblue" stroke="midnightblue" points="225.81,-423.99 236.4,-423.63 227.9,-417.31 225.81,-423.99"/>
</g>
<!-- Node12 -->
<g id="node12" class="node">
<title>Node12</title>
<g id="a_node12"><a xlink:href="group__transforms__extrude.html#gab2442cfaf1ad44d6e295ab0979d9e03d" target="_top" xlink:title="Linearly extrude a 2d shape with uniformly&#45;spaced profile scaling.">
<polygon fill="white" stroke="black" points="202,-76.5 202,-95.5 311,-95.5 311,-76.5 202,-76.5"/>
<text text-anchor="middle" x="256.5" y="-83.5" font-family="Helvetica,sans-Serif" font-size="10.00">extrude_linear_uss</text>
</a>
</g>
</g>
<!-- Node7&#45;&gt;Node12 -->
<g id="edge15" class="edge">
<title>Node7&#45;&gt;Node12</title>
<path fill="none" stroke="midnightblue" d="M133.93,-323.23C141.27,-294.76 165.01,-209.98 202,-148 211.94,-131.33 226.49,-114.81 237.91,-103.02"/>
<polygon fill="midnightblue" stroke="midnightblue" points="240.65,-105.23 245.22,-95.67 235.69,-100.3 240.65,-105.23"/>
</g>
<!-- Node13 -->
<g id="node13" class="node">
<title>Node13</title>
<g id="a_node13"><a xlink:href="group__datatypes__iterable__operate.html#gaccab3e37e43cb1d882713b3f3d6d9e1b" target="_top" xlink:title="Return the first element of an iterable value.">
<polygon fill="white" stroke="black" points="399.5,-133.5 399.5,-152.5 434.5,-152.5 434.5,-133.5 399.5,-133.5"/>
<text text-anchor="middle" x="417" y="-140.5" font-family="Helvetica,sans-Serif" font-size="10.00">first</text>
</a>
</g>
</g>
<!-- Node7&#45;&gt;Node13 -->
<g id="edge20" class="edge">
<title>Node7&#45;&gt;Node13</title>
<path fill="none" stroke="midnightblue" d="M132.89,-323.26C137.32,-295.93 153.83,-218.09 202,-181 257.54,-138.24 345.15,-137.53 389.05,-140.35"/>
<polygon fill="midnightblue" stroke="midnightblue" points="388.99,-143.86 399.22,-141.13 389.52,-136.88 388.99,-143.86"/>
</g>
<!-- Node15 -->
<g id="node15" class="node">
<title>Node15</title>
<g id="a_node15"><a xlink:href="group__datatypes__iterable__operate.html#ga894d4bec62cc9cf38d5e099de3028c54" target="_top" xlink:title="Return the second element of an iterable value.">
<polygon fill="white" stroke="black" points="391.5,-38.5 391.5,-57.5 442.5,-57.5 442.5,-38.5 391.5,-38.5"/>
<text text-anchor="middle" x="417" y="-45.5" font-family="Helvetica,sans-Serif" font-size="10.00">second</text>
</a>
</g>
</g>
<!-- Node7&#45;&gt;Node15 -->
<g id="edge32" class="edge">
<title>Node7&#45;&gt;Node15</title>
<path fill="none" stroke="midnightblue" d="M132.58,-323.48C137.69,-280.07 160.99,-101.55 202,-67 252.39,-24.55 335.13,-31.63 381.58,-40.11"/>
<polygon fill="midnightblue" stroke="midnightblue" points="380.98,-43.56 391.47,-42.03 382.32,-36.69 380.98,-43.56"/>
</g>
<!-- Node16 -->
<g id="node16" class="node">
<title>Node16</title>
<g id="a_node16"><a xlink:href="group__datatypes__scalar__test.html#ga51d7fdb800c10f4b7479d23b89ab8d22" target="_top" xlink:title="Test if a value is defined.">
<polygon fill="white" stroke="black" points="223.5,-342.5 223.5,-361.5 289.5,-361.5 289.5,-342.5 223.5,-342.5"/>
<text text-anchor="middle" x="256.5" y="-349.5" font-family="Helvetica,sans-Serif" font-size="10.00">is_defined</text>
</a>
</g>
</g>
<!-- Node7&#45;&gt;Node16 -->
<g id="edge21" class="edge">
<title>Node7&#45;&gt;Node16</title>
<path fill="none" stroke="midnightblue" d="M159.64,-337.31C175.41,-339.73 195.39,-342.79 213.03,-345.49"/>
<polygon fill="midnightblue" stroke="midnightblue" points="212.68,-348.98 223.09,-347.03 213.74,-342.06 212.68,-348.98"/>
</g>
<!-- Node17 -->
<g id="node17" class="node">
<title>Node17</title>
<g id="a_node17"><a xlink:href="group__datatypes__scalar__test.html#gac61c3ea156e546e556ae399e5d0f60ec" target="_top" xlink:title="Test if a numerical value is even.">
<polygon fill="white" stroke="black" points="229.5,-304.5 229.5,-323.5 283.5,-323.5 283.5,-304.5 229.5,-304.5"/>
<text text-anchor="middle" x="256.5" y="-311.5" font-family="Helvetica,sans-Serif" font-size="10.00">is_even</text>
</a>
</g>
</g>
<!-- Node7&#45;&gt;Node17 -->
<g id="edge22" class="edge">
<title>Node7&#45;&gt;Node17</title>
<path fill="none" stroke="midnightblue" d="M159.64,-328.69C177.24,-325.99 200.1,-322.49 219.08,-319.58"/>
<polygon fill="midnightblue" stroke="midnightblue" points="219.82,-323.01 229.17,-318.03 218.75,-316.09 219.82,-323.01"/>
</g>
<!-- Node18 -->
<g id="node18" class="node">
<title>Node18</title>
<g id="a_node18"><a xlink:href="group__datatypes__iterable__operate.html#ga4f04409e3fce7bf8226e4fde98f514c0" target="_top" xlink:title="Return the last element of an iterable value.">
<polygon fill="white" stroke="black" points="239,-266.5 239,-285.5 274,-285.5 274,-266.5 239,-266.5"/>
<text text-anchor="middle" x="256.5" y="-273.5" font-family="Helvetica,sans-Serif" font-size="10.00">last</text>
</a>
</g>
</g>
<!-- Node7&#45;&gt;Node18 -->
<g id="edge23" class="edge">
<title>Node7&#45;&gt;Node18</title>
<path fill="none" stroke="midnightblue" d="M147.67,-323.37C161.73,-315.21 182.81,-303.52 202,-295 210.68,-291.15 220.4,-287.51 229.15,-284.46"/>
<polygon fill="midnightblue" stroke="midnightblue" points="230.5,-287.7 238.85,-281.18 228.26,-281.06 230.5,-287.7"/>
</g>
<!-- Node19 -->
<g id="node19" class="node">
<title>Node19</title>
<g id="a_node19"><a xlink:href="group__shapes__polygon.html#ga9c1bd914355d92f9d66ba0e5c2d9dbac" target="_top" xlink:title="A polygon rectangle with vertex rounding.">
<polygon fill="white" stroke="black" points="216.5,-380.5 216.5,-399.5 296.5,-399.5 296.5,-380.5 216.5,-380.5"/>
<text text-anchor="middle" x="256.5" y="-387.5" font-family="Helvetica,sans-Serif" font-size="10.00">pg_rectangle</text>
</a>
</g>
</g>
<!-- Node7&#45;&gt;Node19 -->
<g id="edge24" class="edge">
<title>Node7&#45;&gt;Node19</title>
<path fill="none" stroke="midnightblue" d="M147.67,-342.63C161.73,-350.79 182.81,-362.48 202,-371 206.67,-373.07 211.63,-375.08 216.59,-376.97"/>
<polygon fill="midnightblue" stroke="midnightblue" points="215.43,-380.28 226.03,-380.44 217.85,-373.71 215.43,-380.28"/>
</g>
<!-- Node21 -->
<g id="node21" class="node">
<title>Node21</title>
<g id="a_node21"><a xlink:href="group__models__3d__fastener__screws.html#ga57dcfe1241e15eaa58ccd08891504a93" target="_top" xlink:title="Flat and beveled&#45;head fastener bore with nut, nut slot, and bore tolerance.">
<polygon fill="white" stroke="black" points="220.5,-494.5 220.5,-513.5 292.5,-513.5 292.5,-494.5 220.5,-494.5"/>
<text text-anchor="middle" x="256.5" y="-501.5" font-family="Helvetica,sans-Serif" font-size="10.00">screw_bore</text>
</a>
</g>
</g>
<!-- Node7&#45;&gt;Node21 -->
<g id="edge28" class="edge">
<title>Node7&#45;&gt;Node21</title>
<path fill="none" stroke="midnightblue" d="M133.65,-342.6C139.84,-368.23 160.05,-439.1 202,-480 205.92,-483.82 210.55,-487.09 215.42,-489.88"/>
<polygon fill="midnightblue" stroke="midnightblue" points="213.85,-493.01 224.35,-494.39 217,-486.76 213.85,-493.01"/>
</g>
<!-- Node7&#45;&gt;Node22 -->
<g id="edge33" class="edge">
<title>Node7&#45;&gt;Node22</title>
<path fill="none" stroke="midnightblue" d="M133.68,-342.78C141.83,-378.31 171.52,-499.73 202,-523 252.58,-561.61 330.78,-557.2 377.33,-549.96"/>
<polygon fill="midnightblue" stroke="midnightblue" points="378.04,-553.39 387.32,-548.28 376.88,-546.48 378.04,-553.39"/>
</g>
<!-- Node7&#45;&gt;Node23 -->
<g id="edge34" class="edge">
<title>Node7&#45;&gt;Node23</title>
<path fill="none" stroke="midnightblue" d="M132.63,-323.25C138.17,-277.05 163.71,-80.36 202,-34 209.2,-25.29 220.21,-19.62 230.38,-15.99"/>
<polygon fill="midnightblue" stroke="midnightblue" points="231.56,-19.29 240.09,-13.01 229.5,-12.6 231.56,-19.29"/>
</g>
<!-- Node24 -->
<g id="node24" class="node">
<title>Node24</title>
<g id="a_node24"><a xlink:href="group__datatypes__iterable__operate.html#ga4a000b3543933067bb00c6950e9122b3" target="_top" xlink:title="Return the third element of an iterable value.">
<polygon fill="white" stroke="black" points="237,-190.5 237,-209.5 276,-209.5 276,-190.5 237,-190.5"/>
<text text-anchor="middle" x="256.5" y="-197.5" font-family="Helvetica,sans-Serif" font-size="10.00">third</text>
</a>
</g>
</g>
<!-- Node7&#45;&gt;Node24 -->
<g id="edge35" class="edge">
<title>Node7&#45;&gt;Node24</title>
<path fill="none" stroke="midnightblue" d="M135.5,-323.23C144.48,-302.37 168.14,-253.06 202,-224 209.35,-217.69 218.63,-212.75 227.39,-209.04"/>
<polygon fill="midnightblue" stroke="midnightblue" points="228.86,-212.23 236.93,-205.37 226.34,-205.7 228.86,-212.23"/>
</g>
<!-- Node8&#45;&gt;Node5 -->
<g id="edge10" class="edge">
<title>Node8&#45;&gt;Node5</title>
<path fill="none" stroke="midnightblue" d="M276.71,-424.97C287.85,-422.36 301.49,-417.59 311,-409 338.73,-383.94 324.04,-362.5 347,-333 359.72,-316.65 377.91,-301.87 392.42,-291.46"/>
<polygon fill="midnightblue" stroke="midnightblue" points="394.68,-294.15 400.89,-285.57 390.69,-288.4 394.68,-294.15"/>
</g>
<!-- Node9 -->
<g id="node9" class="node">
<title>Node9</title>
<g id="a_node9"><a xlink:href="group__units__angle.html#ga06a917b77748dfb74e765bcd7c4c0219" target="_top" xlink:title="Convert an angle value from one unit to another.">
<polygon fill="white" stroke="black" points="395,-456.5 395,-475.5 439,-475.5 439,-456.5 395,-456.5"/>
<text text-anchor="middle" x="417" y="-463.5" font-family="Helvetica,sans-Serif" font-size="10.00">angle</text>
</a>
</g>
</g>
<!-- Node8&#45;&gt;Node9 -->
<g id="edge9" class="edge">
<title>Node8&#45;&gt;Node9</title>
<path fill="none" stroke="midnightblue" d="M276.62,-432.58C303.51,-439.03 352.82,-450.85 385,-458.57"/>
<polygon fill="midnightblue" stroke="midnightblue" points="384.25,-461.99 394.79,-460.92 385.89,-455.18 384.25,-461.99"/>
</g>
<!-- Node10 -->
<g id="node10" class="node">
<title>Node10</title>
<g id="a_node10"><a xlink:href="group__math__polygon.html#ga7a0eff64929a142fc507615f83e3bd58" target="_top" xlink:title="Compute coordinates that round all of the vertices between each adjacent edges in 2D.">
<polygon fill="white" stroke="black" points="347,-380.5 347,-399.5 487,-399.5 487,-380.5 347,-380.5"/>
<text text-anchor="middle" x="417" y="-387.5" font-family="Helvetica,sans-Serif" font-size="10.00">polygon_round_eve_all_p</text>
</a>
</g>
</g>
<!-- Node8&#45;&gt;Node10 -->
<g id="edge11" class="edge">
<title>Node8&#45;&gt;Node10</title>
<path fill="none" stroke="midnightblue" d="M276.62,-423.42C298.66,-418.13 335.77,-409.24 366.15,-401.95"/>
<polygon fill="midnightblue" stroke="midnightblue" points="367.26,-405.29 376.17,-399.55 365.62,-398.48 367.26,-405.29"/>
</g>
<!-- Node11 -->
<g id="node11" class="node">
<title>Node11</title>
<g id="a_node11"><a xlink:href="group__math__triangle.html#gaab9b812d15418fd05c9d93f3bfcc1989" target="_top" xlink:title="Compute a set of vertex coordinates for a triangle given its side lengths in 2D.">
<polygon fill="white" stroke="black" points="361.5,-418.5 361.5,-437.5 472.5,-437.5 472.5,-418.5 361.5,-418.5"/>
<text text-anchor="middle" x="417" y="-425.5" font-family="Helvetica,sans-Serif" font-size="10.00">triangle2d_sss2ppp</text>
</a>
</g>
</g>
<!-- Node8&#45;&gt;Node11 -->
<g id="edge12" class="edge">
<title>Node8&#45;&gt;Node11</title>
<path fill="none" stroke="midnightblue" d="M276.62,-428C295.16,-428 324.36,-428 351.26,-428"/>
<polygon fill="midnightblue" stroke="midnightblue" points="351.42,-431.5 361.42,-428 351.42,-424.5 351.42,-431.5"/>
</g>
<!-- Node12&#45;&gt;Node5 -->
<g id="edge16" class="edge">
<title>Node12&#45;&gt;Node5</title>
<path fill="none" stroke="midnightblue" d="M287.08,-95.62C295.41,-99.25 304.08,-104 311,-110 317.48,-115.62 378.7,-215.06 404.56,-257.28"/>
<polygon fill="midnightblue" stroke="midnightblue" points="401.71,-259.33 409.92,-266.04 407.68,-255.68 401.71,-259.33"/>
</g>
<!-- Node12&#45;&gt;Node13 -->
<g id="edge17" class="edge">
<title>Node12&#45;&gt;Node13</title>
<path fill="none" stroke="midnightblue" d="M284.03,-95.54C313.36,-106.09 360.31,-122.97 389.59,-133.5"/>
<polygon fill="midnightblue" stroke="midnightblue" points="388.55,-136.85 399.15,-136.94 390.92,-130.26 388.55,-136.85"/>
</g>
<!-- Node14 -->
<g id="node14" class="node">
<title>Node14</title>
<g id="a_node14"><a xlink:href="group__datatypes__scalar__test.html#ga258e8911375d30ff85a6e52df01dc1c5" target="_top" xlink:title="Test if a value is a single non&#45;iterable value.">
<polygon fill="white" stroke="black" points="387.5,-76.5 387.5,-95.5 446.5,-95.5 446.5,-76.5 387.5,-76.5"/>
<text text-anchor="middle" x="417" y="-83.5" font-family="Helvetica,sans-Serif" font-size="10.00">is_scalar</text>
</a>
</g>
</g>
<!-- Node12&#45;&gt;Node14 -->
<g id="edge18" class="edge">
<title>Node12&#45;&gt;Node14</title>
<path fill="none" stroke="midnightblue" d="M311.16,-86C332.78,-86 357.25,-86 377.1,-86"/>
<polygon fill="midnightblue" stroke="midnightblue" points="377.32,-89.5 387.32,-86 377.32,-82.5 377.32,-89.5"/>
</g>
<!-- Node12&#45;&gt;Node15 -->
<g id="edge19" class="edge">
<title>Node12&#45;&gt;Node15</title>
<path fill="none" stroke="midnightblue" d="M297.5,-76.41C323.33,-70.22 356.62,-62.24 381.33,-56.31"/>
<polygon fill="midnightblue" stroke="midnightblue" points="382.45,-59.64 391.35,-53.91 380.81,-52.84 382.45,-59.64"/>
</g>
<!-- Node19&#45;&gt;Node5 -->
<g id="edge25" class="edge">
<title>Node19&#45;&gt;Node5</title>
<path fill="none" stroke="midnightblue" d="M292.03,-380.44C298.6,-377.89 305.22,-374.76 311,-371 330.5,-358.31 330,-348.88 347,-333 362.61,-318.42 381.35,-303.06 395.36,-291.97"/>
<polygon fill="midnightblue" stroke="midnightblue" points="397.7,-294.58 403.4,-285.65 393.37,-289.07 397.7,-294.58"/>
</g>
<!-- Node19&#45;&gt;Node10 -->
<g id="edge26" class="edge">
<title>Node19&#45;&gt;Node10</title>
<path fill="none" stroke="midnightblue" d="M296.68,-390C308.85,-390 322.73,-390 336.62,-390"/>
<polygon fill="midnightblue" stroke="midnightblue" points="336.71,-393.5 346.71,-390 336.71,-386.5 336.71,-393.5"/>
</g>
<!-- Node20 -->
<g id="node20" class="node">
<title>Node20</title>
<g id="a_node20"><a xlink:href="group__math__linear__algebra.html#gaeabe74699fd0a437bad9a1d442bfd111" target="_top" xlink:title="Translate all coordinates dimensions.">
<polygon fill="white" stroke="black" points="381.5,-342.5 381.5,-361.5 452.5,-361.5 452.5,-342.5 381.5,-342.5"/>
<text text-anchor="middle" x="417" y="-349.5" font-family="Helvetica,sans-Serif" font-size="10.00">translate_p</text>
</a>
</g>
</g>
<!-- Node19&#45;&gt;Node20 -->
<g id="edge27" class="edge">
<title>Node19&#45;&gt;Node20</title>
<path fill="none" stroke="midnightblue" d="M296.68,-380.61C319.38,-375.16 348.03,-368.29 371.57,-362.65"/>
<polygon fill="midnightblue" stroke="midnightblue" points="372.4,-366.05 381.31,-360.32 370.77,-359.24 372.4,-366.05"/>
</g>
<!-- Node21&#45;&gt;Node5 -->
<g id="edge29" class="edge">
<title>Node21&#45;&gt;Node5</title>
<path fill="none" stroke="midnightblue" d="M269.35,-494.26C281.42,-483.76 299.89,-465.97 311,-447 337.85,-401.15 317.3,-377.06 347,-333 358.44,-316.04 376.36,-301.44 391.08,-291.27"/>
<polygon fill="midnightblue" stroke="midnightblue" points="393.34,-293.97 399.74,-285.53 389.47,-288.14 393.34,-293.97"/>
</g>
<!-- Node21&#45;&gt;Node6 -->
<g id="edge30" class="edge">
<title>Node21&#45;&gt;Node6</title>
<path fill="none" stroke="midnightblue" d="M292.68,-504C312.76,-504 338.39,-504 361.08,-504"/>
<polygon fill="midnightblue" stroke="midnightblue" points="361.26,-507.5 371.26,-504 361.26,-500.5 361.26,-507.5"/>
</g>
<!-- Node21&#45;&gt;Node22 -->
<g id="edge31" class="edge">
<title>Node21&#45;&gt;Node22</title>
<path fill="none" stroke="midnightblue" d="M292.68,-512.43C317.8,-518.46 351.58,-526.56 377.44,-532.75"/>
<polygon fill="midnightblue" stroke="midnightblue" points="376.73,-536.19 387.27,-535.11 378.37,-529.38 376.73,-536.19"/>
</g>
</g>
</svg>
