<?xml version="1.0" encoding="UTF-8" standalone="no"?>
<!DOCTYPE svg PUBLIC "-//W3C//DTD SVG 1.1//EN"
 "http://www.w3.org/Graphics/SVG/1.1/DTD/svg11.dtd">
<!-- Generated by graphviz version 2.43.0 (0)
 -->
<!-- Title: triangle_sas2sss Pages: 1 -->
<svg width="560pt" height="142pt"
 viewBox="0.00 0.00 560.00 142.00" xmlns="http://www.w3.org/2000/svg" xmlns:xlink="http://www.w3.org/1999/xlink">
<g id="graph0" class="graph" transform="scale(1 1) rotate(0) translate(4 138)">
<title>triangle_sas2sss</title>
<polygon fill="white" stroke="transparent" points="-4,4 -4,-138 556,-138 556,4 -4,4"/>
<!-- Node1 -->
<g id="node1" class="node">
<title>Node1</title>
<g id="a_node1"><a xlink:title="Compute the side lengths of a triangle given two sides and the included angle.">
<polygon fill="#bfbfbf" stroke="black" points="454,-76.5 454,-95.5 552,-95.5 552,-76.5 454,-76.5"/>
<text text-anchor="middle" x="503" y="-83.5" font-family="Helvetica,sans-Serif" font-size="10.00">triangle_sas2sss</text>
</a>
</g>
</g>
<!-- Node2 -->
<g id="node2" class="node">
<title>Node2</title>
<g id="a_node2"><a xlink:href="group__models__2d__joint__dovetail.html#gadccba989c93e8e44be057de39d99758a" target="_top" xlink:title="Create 2D edge profiles for dovetail joint construction.">
<polygon fill="white" stroke="black" points="306,-114.5 306,-133.5 401,-133.5 401,-114.5 306,-114.5"/>
<text text-anchor="middle" x="353.5" y="-121.5" font-family="Helvetica,sans-Serif" font-size="10.00">joint2d_dovetail</text>
</a>
</g>
</g>
<!-- Node1&#45;&gt;Node2 -->
<g id="edge1" class="edge">
<title>Node1&#45;&gt;Node2</title>
<path fill="none" stroke="midnightblue" d="M454.99,-98.11C434.44,-103.4 410.7,-109.52 391.45,-114.48"/>
<polygon fill="midnightblue" stroke="midnightblue" points="455.97,-101.47 464.78,-95.59 454.22,-94.69 455.97,-101.47"/>
</g>
<!-- Node4 -->
<g id="node4" class="node">
<title>Node4</title>
<g id="a_node4"><a xlink:href="group__models__3d__joint__dovetail__screw.html#ga20f61ef0d29434a144ec653c6320f77f" target="_top" xlink:title="Construct a 3d dovetail joint with optional screw and nut fastener.">
<polygon fill="white" stroke="black" points="289,-76.5 289,-95.5 418,-95.5 418,-76.5 289,-76.5"/>
<text text-anchor="middle" x="353.5" y="-83.5" font-family="Helvetica,sans-Serif" font-size="10.00">joint3d_dovetail_screw</text>
</a>
</g>
</g>
<!-- Node1&#45;&gt;Node4 -->
<g id="edge3" class="edge">
<title>Node1&#45;&gt;Node4</title>
<path fill="none" stroke="midnightblue" d="M443.67,-86C435.3,-86 426.66,-86 418.2,-86"/>
<polygon fill="midnightblue" stroke="midnightblue" points="443.7,-89.5 453.7,-86 443.7,-82.5 443.7,-89.5"/>
</g>
<!-- Node5 -->
<g id="node5" class="node">
<title>Node5</title>
<g id="a_node5"><a xlink:href="group__shapes__polygon.html#ga24be160074502dce7ff8a78361d4b074" target="_top" xlink:title="A polygon triangle specified by size&#45;angle&#45;size with vertex rounding.">
<polygon fill="white" stroke="black" points="307,-38.5 307,-57.5 400,-57.5 400,-38.5 307,-38.5"/>
<text text-anchor="middle" x="353.5" y="-45.5" font-family="Helvetica,sans-Serif" font-size="10.00">pg_triangle_sas</text>
</a>
</g>
</g>
<!-- Node1&#45;&gt;Node5 -->
<g id="edge4" class="edge">
<title>Node1&#45;&gt;Node5</title>
<path fill="none" stroke="midnightblue" d="M454.99,-73.89C434.44,-68.6 410.7,-62.48 391.45,-57.52"/>
<polygon fill="midnightblue" stroke="midnightblue" points="454.22,-77.31 464.78,-76.41 455.97,-70.53 454.22,-77.31"/>
</g>
<!-- Node3 -->
<g id="node3" class="node">
<title>Node3</title>
<g id="a_node3"><a xlink:href="group__parts__3d__computer__pcie__expansion.html#gab6fb1c9f8f6550633467f4ec0bd3f983" target="_top" xlink:title="Generate a PCI Express expansion open chassis or closed enclosure.">
<polygon fill="white" stroke="black" points="0,-85.5 0,-104.5 92,-104.5 92,-85.5 0,-85.5"/>
<text text-anchor="middle" x="46" y="-92.5" font-family="Helvetica,sans-Serif" font-size="10.00">pcie_expansion</text>
</a>
</g>
</g>
<!-- Node2&#45;&gt;Node3 -->
<g id="edge2" class="edge">
<title>Node2&#45;&gt;Node3</title>
<path fill="none" stroke="midnightblue" d="M295.34,-119.77C249.94,-116.27 184.85,-110.91 128,-105 116.44,-103.8 103.98,-102.34 92.38,-100.91"/>
<polygon fill="midnightblue" stroke="midnightblue" points="295.34,-123.28 305.58,-120.56 295.88,-116.3 295.34,-123.28"/>
</g>
<!-- Node6 -->
<g id="node6" class="node">
<title>Node6</title>
<g id="a_node6"><a xlink:href="group__parts__3d__fastener__mounts.html#ga0cbac43259ec43fff7785057277bcef3" target="_top" xlink:title="A screw mount post with screw bore and optional fins.">
<polygon fill="white" stroke="black" points="136.5,-76.5 136.5,-95.5 244.5,-95.5 244.5,-76.5 136.5,-76.5"/>
<text text-anchor="middle" x="190.5" y="-83.5" font-family="Helvetica,sans-Serif" font-size="10.00">mount_screw_post</text>
</a>
</g>
</g>
<!-- Node5&#45;&gt;Node6 -->
<g id="edge5" class="edge">
<title>Node5&#45;&gt;Node6</title>
<path fill="none" stroke="midnightblue" d="M302.1,-59.9C279.47,-65.24 253.13,-71.45 231.83,-76.48"/>
<polygon fill="midnightblue" stroke="midnightblue" points="302.94,-63.29 311.87,-57.59 301.34,-56.48 302.94,-63.29"/>
</g>
<!-- Node7 -->
<g id="node7" class="node">
<title>Node7</title>
<g id="a_node7"><a xlink:href="group__parts__3d__fastener__mounts.html#gae1cc60f3ff242fb07c5a50d34be8c051" target="_top" xlink:title="A mount tab with screw hole and support brace.">
<polygon fill="white" stroke="black" points="139,-0.5 139,-19.5 242,-19.5 242,-0.5 139,-0.5"/>
<text text-anchor="middle" x="190.5" y="-7.5" font-family="Helvetica,sans-Serif" font-size="10.00">mount_screw_tab</text>
</a>
</g>
</g>
<!-- Node5&#45;&gt;Node7 -->
<g id="edge6" class="edge">
<title>Node5&#45;&gt;Node7</title>
<path fill="none" stroke="midnightblue" d="M302.1,-36.1C279.47,-30.76 253.13,-24.55 231.83,-19.52"/>
<polygon fill="midnightblue" stroke="midnightblue" points="301.34,-39.52 311.87,-38.41 302.94,-32.71 301.34,-39.52"/>
</g>
<!-- Node9 -->
<g id="node9" class="node">
<title>Node9</title>
<g id="a_node9"><a xlink:href="group__parts__3d__enclosure__project__box__rectangle.html#ga24cdfe5fd4bb74b75409d9afdbe1f0c0" target="_top" xlink:title="A rectangular box maker for project boxes, enclosures and housings.">
<polygon fill="white" stroke="black" points="128,-38.5 128,-57.5 253,-57.5 253,-38.5 128,-38.5"/>
<text text-anchor="middle" x="190.5" y="-45.5" font-family="Helvetica,sans-Serif" font-size="10.00">project_box_rectangle</text>
</a>
</g>
</g>
<!-- Node5&#45;&gt;Node9 -->
<g id="edge8" class="edge">
<title>Node5&#45;&gt;Node9</title>
<path fill="none" stroke="midnightblue" d="M296.79,-48C282.74,-48 267.58,-48 253.25,-48"/>
<polygon fill="midnightblue" stroke="midnightblue" points="296.79,-51.5 306.79,-48 296.79,-44.5 296.79,-51.5"/>
</g>
<!-- Node8 -->
<g id="node8" class="node">
<title>Node8</title>
<g id="a_node8"><a xlink:href="group__parts__3d__enclosure__power__strip.html#ga33509a1811b27fe7f3687957d4d32460" target="_top" xlink:title="A power strip generator for single gang electrical receptacles.">
<polygon fill="white" stroke="black" points="1,-19.5 1,-38.5 91,-38.5 91,-19.5 1,-19.5"/>
<text text-anchor="middle" x="46" y="-26.5" font-family="Helvetica,sans-Serif" font-size="10.00">power_strip_sg</text>
</a>
</g>
</g>
<!-- Node7&#45;&gt;Node8 -->
<g id="edge7" class="edge">
<title>Node7&#45;&gt;Node8</title>
<path fill="none" stroke="midnightblue" d="M128.88,-18.08C116.27,-19.76 103.21,-21.5 91.33,-23.09"/>
<polygon fill="midnightblue" stroke="midnightblue" points="129.41,-21.54 138.86,-16.75 128.48,-14.6 129.41,-21.54"/>
</g>
<!-- Node9&#45;&gt;Node3 -->
<g id="edge9" class="edge">
<title>Node9&#45;&gt;Node3</title>
<path fill="none" stroke="midnightblue" d="M148.14,-60.57C141.39,-62.68 134.49,-64.88 128,-67 109.9,-72.92 89.65,-79.92 73.92,-85.44"/>
<polygon fill="midnightblue" stroke="midnightblue" points="149.32,-63.87 157.83,-57.56 147.25,-57.18 149.32,-63.87"/>
</g>
<!-- Node9&#45;&gt;Node8 -->
<g id="edge10" class="edge">
<title>Node9&#45;&gt;Node8</title>
<path fill="none" stroke="midnightblue" d="M117.65,-38.42C108.61,-37.22 99.59,-36.01 91.16,-34.89"/>
<polygon fill="midnightblue" stroke="midnightblue" points="117.45,-41.92 127.83,-39.78 118.38,-34.99 117.45,-41.92"/>
</g>
</g>
</svg>
