<?xml version="1.0" encoding="UTF-8" standalone="no"?>
<!DOCTYPE svg PUBLIC "-//W3C//DTD SVG 1.1//EN"
 "http://www.w3.org/Graphics/SVG/1.1/DTD/svg11.dtd">
<!-- Generated by graphviz version 2.43.0 (0)
 -->
<!-- Title: limit Pages: 1 -->
<svg width="336pt" height="66pt"
 viewBox="0.00 0.00 336.00 66.00" xmlns="http://www.w3.org/2000/svg" xmlns:xlink="http://www.w3.org/1999/xlink">
<g id="graph0" class="graph" transform="scale(1 1) rotate(0) translate(4 62)">
<title>limit</title>
<polygon fill="white" stroke="transparent" points="-4,4 -4,-62 332,-62 332,4 -4,4"/>
<!-- Node1 -->
<g id="node1" class="node">
<title>Node1</title>
<g id="a_node1"><a xlink:title="Limit a list of numbers between an upper and lower bounds.">
<polygon fill="#bfbfbf" stroke="black" points="289,-19.5 289,-38.5 328,-38.5 328,-19.5 289,-19.5"/>
<text text-anchor="middle" x="308.5" y="-26.5" font-family="Helvetica,sans-Serif" font-size="10.00">limit</text>
</a>
</g>
</g>
<!-- Node2 -->
<g id="node2" class="node">
<title>Node2</title>
<g id="a_node2"><a xlink:href="group__parts__3d__enclosure__power__strip.html#ga33509a1811b27fe7f3687957d4d32460" target="_top" xlink:title="A power strip generator for single gang electrical receptacles.">
<polygon fill="white" stroke="black" points="1,-38.5 1,-57.5 91,-57.5 91,-38.5 1,-38.5"/>
<text text-anchor="middle" x="46" y="-45.5" font-family="Helvetica,sans-Serif" font-size="10.00">power_strip_sg</text>
</a>
</g>
</g>
<!-- Node1&#45;&gt;Node2 -->
<g id="edge1" class="edge">
<title>Node1&#45;&gt;Node2</title>
<path fill="none" stroke="midnightblue" d="M278.71,-31.1C233.25,-34.42 144.54,-40.89 91.04,-44.79"/>
<polygon fill="midnightblue" stroke="midnightblue" points="279.05,-34.58 288.77,-30.37 278.54,-27.6 279.05,-34.58"/>
</g>
<!-- Node3 -->
<g id="node3" class="node">
<title>Node3</title>
<g id="a_node3"><a xlink:href="group__parts__3d__enclosure__project__box__rectangle.html#ga24cdfe5fd4bb74b75409d9afdbe1f0c0" target="_top" xlink:title="A rectangular box maker for project boxes, enclosures and housings.">
<polygon fill="white" stroke="black" points="128,-0.5 128,-19.5 253,-19.5 253,-0.5 128,-0.5"/>
<text text-anchor="middle" x="190.5" y="-7.5" font-family="Helvetica,sans-Serif" font-size="10.00">project_box_rectangle</text>
</a>
</g>
</g>
<!-- Node1&#45;&gt;Node3 -->
<g id="edge2" class="edge">
<title>Node1&#45;&gt;Node3</title>
<path fill="none" stroke="midnightblue" d="M278.76,-24.29C269.9,-22.84 259.82,-21.19 249.72,-19.54"/>
<polygon fill="midnightblue" stroke="midnightblue" points="278.43,-27.78 288.86,-25.95 279.56,-20.88 278.43,-27.78"/>
</g>
<!-- Node3&#45;&gt;Node2 -->
<g id="edge4" class="edge">
<title>Node3&#45;&gt;Node2</title>
<path fill="none" stroke="midnightblue" d="M143.85,-22.17C124.14,-27.43 101.43,-33.49 82.95,-38.41"/>
<polygon fill="midnightblue" stroke="midnightblue" points="144.78,-25.55 153.54,-19.59 142.98,-18.78 144.78,-25.55"/>
</g>
<!-- Node4 -->
<g id="node4" class="node">
<title>Node4</title>
<g id="a_node4"><a xlink:href="group__parts__3d__computer__pcie__expansion.html#gab6fb1c9f8f6550633467f4ec0bd3f983" target="_top" xlink:title="Generate a PCI Express expansion open chassis or closed enclosure.">
<polygon fill="white" stroke="black" points="0,-0.5 0,-19.5 92,-19.5 92,-0.5 0,-0.5"/>
<text text-anchor="middle" x="46" y="-7.5" font-family="Helvetica,sans-Serif" font-size="10.00">pcie_expansion</text>
</a>
</g>
</g>
<!-- Node3&#45;&gt;Node4 -->
<g id="edge3" class="edge">
<title>Node3&#45;&gt;Node4</title>
<path fill="none" stroke="midnightblue" d="M117.61,-10C108.89,-10 100.19,-10 92.01,-10"/>
<polygon fill="midnightblue" stroke="midnightblue" points="117.83,-13.5 127.83,-10 117.83,-6.5 117.83,-13.5"/>
</g>
</g>
</svg>
