<?xml version="1.0" encoding="UTF-8" standalone="no"?>
<!DOCTYPE svg PUBLIC "-//W3C//DTD SVG 1.1//EN"
 "http://www.w3.org/Graphics/SVG/1.1/DTD/svg11.dtd">
<!-- Generated by graphviz version 2.43.0 (0)
 -->
<!-- Title: table_dump Pages: 1 -->
<svg width="236pt" height="332pt"
 viewBox="0.00 0.00 236.00 332.00" xmlns="http://www.w3.org/2000/svg" xmlns:xlink="http://www.w3.org/1999/xlink">
<g id="graph0" class="graph" transform="scale(1 1) rotate(0) translate(4 328)">
<title>table_dump</title>
<polygon fill="white" stroke="transparent" points="-4,4 -4,-328 232,-328 232,4 -4,4"/>
<!-- Node1 -->
<g id="node1" class="node">
<title>Node1</title>
<g id="a_node1"><a xlink:title="Dump a table to the console.">
<polygon fill="#bfbfbf" stroke="black" points="0,-152.5 0,-171.5 74,-171.5 74,-152.5 0,-152.5"/>
<text text-anchor="middle" x="37" y="-159.5" font-family="Helvetica,sans-Serif" font-size="10.00">table_dump</text>
</a>
</g>
</g>
<!-- Node2 -->
<g id="node2" class="node">
<title>Node2</title>
<g id="a_node2"><a xlink:href="group__datatypes__list__operate.html#gab05ff3da4d68d30922daa197f505580d" target="_top" xlink:title="Create a list of constant or incrementing elements.">
<polygon fill="white" stroke="black" points="145,-304.5 145,-323.5 193,-323.5 193,-304.5 145,-304.5"/>
<text text-anchor="middle" x="169" y="-311.5" font-family="Helvetica,sans-Serif" font-size="10.00">consts</text>
</a>
</g>
</g>
<!-- Node1&#45;&gt;Node2 -->
<g id="edge1" class="edge">
<title>Node1&#45;&gt;Node2</title>
<path fill="none" stroke="midnightblue" d="M40.51,-171.63C47.37,-195.97 68.68,-260.51 110,-295 117.15,-300.97 126.23,-305.08 135.07,-307.9"/>
<polygon fill="midnightblue" stroke="midnightblue" points="134.27,-311.31 144.83,-310.58 136.11,-304.56 134.27,-311.31"/>
</g>
<!-- Node3 -->
<g id="node3" class="node">
<title>Node3</title>
<g id="a_node3"><a xlink:href="group__datatypes__iterable__operate.html#gaccab3e37e43cb1d882713b3f3d6d9e1b" target="_top" xlink:title="Return the first element of an iterable value.">
<polygon fill="white" stroke="black" points="151.5,-266.5 151.5,-285.5 186.5,-285.5 186.5,-266.5 151.5,-266.5"/>
<text text-anchor="middle" x="169" y="-273.5" font-family="Helvetica,sans-Serif" font-size="10.00">first</text>
</a>
</g>
</g>
<!-- Node1&#45;&gt;Node3 -->
<g id="edge2" class="edge">
<title>Node1&#45;&gt;Node3</title>
<path fill="none" stroke="midnightblue" d="M42.72,-171.62C52.57,-190.71 77.14,-233.57 110,-257 119.25,-263.6 130.93,-268 141.38,-270.89"/>
<polygon fill="midnightblue" stroke="midnightblue" points="140.74,-274.34 151.29,-273.3 142.4,-267.54 140.74,-274.34"/>
</g>
<!-- Node4 -->
<g id="node4" class="node">
<title>Node4</title>
<g id="a_node4"><a xlink:href="group__datatypes__scalar__test.html#gac47a7785d144083733c43327ea092e1d" target="_top" xlink:title="Test if a value is a number.">
<polygon fill="white" stroke="black" points="135,-228.5 135,-247.5 203,-247.5 203,-228.5 135,-228.5"/>
<text text-anchor="middle" x="169" y="-235.5" font-family="Helvetica,sans-Serif" font-size="10.00">is_number</text>
</a>
</g>
</g>
<!-- Node1&#45;&gt;Node4 -->
<g id="edge3" class="edge">
<title>Node1&#45;&gt;Node4</title>
<path fill="none" stroke="midnightblue" d="M47.91,-171.76C61.08,-184.26 85.56,-205.87 110,-219 114.84,-221.6 120.1,-223.93 125.41,-225.99"/>
<polygon fill="midnightblue" stroke="midnightblue" points="124.36,-229.33 134.95,-229.4 126.72,-222.74 124.36,-229.33"/>
</g>
<!-- Node5 -->
<g id="node5" class="node">
<title>Node5</title>
<g id="a_node5"><a xlink:href="group__common__console.html#ga2565219688decee9515f527f4553044a" target="_top" xlink:title="Output message to console.">
<polygon fill="white" stroke="black" points="139,-190.5 139,-209.5 199,-209.5 199,-190.5 139,-190.5"/>
<text text-anchor="middle" x="169" y="-197.5" font-family="Helvetica,sans-Serif" font-size="10.00">log_echo</text>
</a>
</g>
</g>
<!-- Node1&#45;&gt;Node5 -->
<g id="edge4" class="edge">
<title>Node1&#45;&gt;Node5</title>
<path fill="none" stroke="midnightblue" d="M70.8,-171.59C88.53,-176.77 110.53,-183.2 129.11,-188.63"/>
<polygon fill="midnightblue" stroke="midnightblue" points="128.17,-192.01 138.75,-191.45 130.14,-185.29 128.17,-192.01"/>
</g>
<!-- Node6 -->
<g id="node6" class="node">
<title>Node6</title>
<g id="a_node6"><a xlink:href="group__datatypes__iterable__operate.html#ga894d4bec62cc9cf38d5e099de3028c54" target="_top" xlink:title="Return the second element of an iterable value.">
<polygon fill="white" stroke="black" points="143.5,-152.5 143.5,-171.5 194.5,-171.5 194.5,-152.5 143.5,-152.5"/>
<text text-anchor="middle" x="169" y="-159.5" font-family="Helvetica,sans-Serif" font-size="10.00">second</text>
</a>
</g>
</g>
<!-- Node1&#45;&gt;Node6 -->
<g id="edge5" class="edge">
<title>Node1&#45;&gt;Node6</title>
<path fill="none" stroke="midnightblue" d="M74.21,-162C92.68,-162 115.02,-162 133.27,-162"/>
<polygon fill="midnightblue" stroke="midnightblue" points="133.48,-165.5 143.48,-162 133.48,-158.5 133.48,-165.5"/>
</g>
<!-- Node7 -->
<g id="node7" class="node">
<title>Node7</title>
<g id="a_node7"><a xlink:href="group__datatypes__list__operate.html#gab842ea235bf5fc40a14512083b49c8d2" target="_top" xlink:title="Convert a list of values to a concatenated string.">
<polygon fill="white" stroke="black" points="153,-114.5 153,-133.5 185,-133.5 185,-114.5 153,-114.5"/>
<text text-anchor="middle" x="169" y="-121.5" font-family="Helvetica,sans-Serif" font-size="10.00">strl</text>
</a>
</g>
</g>
<!-- Node1&#45;&gt;Node7 -->
<g id="edge6" class="edge">
<title>Node1&#45;&gt;Node7</title>
<path fill="none" stroke="midnightblue" d="M70.8,-152.41C93.22,-145.86 122.48,-137.31 143.01,-131.3"/>
<polygon fill="midnightblue" stroke="midnightblue" points="144.26,-134.59 152.87,-128.42 142.29,-127.87 144.26,-134.59"/>
</g>
<!-- Node8 -->
<g id="node8" class="node">
<title>Node8</title>
<g id="a_node8"><a xlink:href="group__datatypes__table.html#ga81a0c09664cc9d9123fb2aa4a0a143c4" target="_top" xlink:title="Get the table row index that matches a table row identifier.">
<polygon fill="white" stroke="black" points="110,-76.5 110,-95.5 228,-95.5 228,-76.5 110,-76.5"/>
<text text-anchor="middle" x="169" y="-83.5" font-family="Helvetica,sans-Serif" font-size="10.00">table_get_row_index</text>
</a>
</g>
</g>
<!-- Node1&#45;&gt;Node8 -->
<g id="edge7" class="edge">
<title>Node1&#45;&gt;Node8</title>
<path fill="none" stroke="midnightblue" d="M47.91,-152.24C61.08,-139.74 85.56,-118.13 110,-105 113.99,-102.85 118.27,-100.89 122.63,-99.12"/>
<polygon fill="midnightblue" stroke="midnightblue" points="124.08,-102.32 132.21,-95.53 121.62,-95.76 124.08,-102.32"/>
</g>
<!-- Node9 -->
<g id="node9" class="node">
<title>Node9</title>
<g id="a_node9"><a xlink:href="group__datatypes__table.html#ga4fb8609e20584a019b2a4028d692db82" target="_top" xlink:title="Get the size of a table.">
<polygon fill="white" stroke="black" points="125.5,-38.5 125.5,-57.5 212.5,-57.5 212.5,-38.5 125.5,-38.5"/>
<text text-anchor="middle" x="169" y="-45.5" font-family="Helvetica,sans-Serif" font-size="10.00">table_get_size</text>
</a>
</g>
</g>
<!-- Node1&#45;&gt;Node9 -->
<g id="edge8" class="edge">
<title>Node1&#45;&gt;Node9</title>
<path fill="none" stroke="midnightblue" d="M42.72,-152.38C52.57,-133.29 77.14,-90.43 110,-67 112.72,-65.06 115.64,-63.31 118.69,-61.74"/>
<polygon fill="midnightblue" stroke="midnightblue" points="120.4,-64.81 128.08,-57.51 117.52,-58.42 120.4,-64.81"/>
</g>
<!-- Node10 -->
<g id="node10" class="node">
<title>Node10</title>
<g id="a_node10"><a xlink:href="group__datatypes__table.html#gaff59353c2a35021843d7a7f34d34eac9" target="_top" xlink:title="Get the table cell value for a specified row and column identifier.">
<polygon fill="white" stroke="black" points="121.5,-0.5 121.5,-19.5 216.5,-19.5 216.5,-0.5 121.5,-0.5"/>
<text text-anchor="middle" x="169" y="-7.5" font-family="Helvetica,sans-Serif" font-size="10.00">table_get_value</text>
</a>
</g>
</g>
<!-- Node1&#45;&gt;Node10 -->
<g id="edge9" class="edge">
<title>Node1&#45;&gt;Node10</title>
<path fill="none" stroke="midnightblue" d="M40.51,-152.37C47.37,-128.03 68.68,-63.49 110,-29 112.03,-27.31 114.21,-25.76 116.5,-24.36"/>
<polygon fill="midnightblue" stroke="midnightblue" points="118.47,-27.28 125.75,-19.58 115.26,-21.06 118.47,-27.28"/>
</g>
</g>
</svg>
