<?xml version="1.0" encoding="UTF-8" standalone="no"?>
<!DOCTYPE svg PUBLIC "-//W3C//DTD SVG 1.1//EN"
 "http://www.w3.org/Graphics/SVG/1.1/DTD/svg11.dtd">
<!-- Generated by graphviz version 2.43.0 (0)
 -->
<!-- Title: ANSI B18.3.5M Pages: 1 -->
<svg width="381pt" height="29pt"
 viewBox="0.00 0.00 381.00 28.50" xmlns="http://www.w3.org/2000/svg" xmlns:xlink="http://www.w3.org/1999/xlink">
<g id="graph0" class="graph" transform="scale(1 1) rotate(0) translate(4 24.5)">
<title>ANSI B18.3.5M</title>
<polygon fill="white" stroke="transparent" points="-4,4 -4,-24.5 377,-24.5 377,4 -4,4"/>
<!-- Node1 -->
<g id="node1" class="node">
<title>Node1</title>
<g id="a_node1"><a xlink:title="[metric/screws] Flat head socket cap screws; ANSI B18.3.5M; ASME.">
<polygon fill="#bfbfbf" stroke="black" points="177,-19 88,-19 88,0 177,0 177,-19"/>
<text text-anchor="middle" x="132.5" y="-7" font-family="Helvetica,sans-Serif" font-size="10.00">ANSI B18.3.5M</text>
</a>
</g>
</g>
<!-- Node3 -->
<g id="node3" class="node">
<title>Node3</title>
<g id="a_node3"><a xlink:href="group__database__component__fastener.html" target="_top" xlink:title="Mechanical fastener specifications.">
<polygon fill="white" stroke="black" points="373,-19 315,-19 315,0 373,0 373,-19"/>
<text text-anchor="middle" x="344" y="-7" font-family="Helvetica,sans-Serif" font-size="10.00">Fastener</text>
</a>
</g>
</g>
<!-- Node1&#45;&gt;Node3 -->
<g id="edge2" class="edge">
<title>Node1&#45;&gt;Node3</title>
<path fill="none" stroke="darkgreen" stroke-dasharray="5,2" d="M177.16,-9.5C218.54,-9.5 279.45,-9.5 314.78,-9.5"/>
<text text-anchor="middle" x="246" y="-12.5" font-family="Helvetica,sans-Serif" font-size="10.00">ansi_b18_3_5m.scad</text>
</g>
<!-- Node2 -->
<g id="node2" class="node">
<title>Node2</title>
<g id="a_node2"><a xlink:href="group__database__component__fastener__Metric__Screws.html" target="_top" xlink:title=" ">
<polygon fill="white" stroke="black" points="51,-19 0,-19 0,0 51,0 51,-19"/>
<text text-anchor="middle" x="25.5" y="-7" font-family="Helvetica,sans-Serif" font-size="10.00">Screws</text>
</a>
</g>
</g>
<!-- Node2&#45;&gt;Node1 -->
<g id="edge1" class="edge">
<title>Node2&#45;&gt;Node1</title>
<path fill="none" stroke="black" d="M61.36,-9.5C69.79,-9.5 78.91,-9.5 87.7,-9.5"/>
<polygon fill="black" stroke="black" points="61.12,-6 51.12,-9.5 61.12,-13 61.12,-6"/>
</g>
</g>
</svg>
