<?xml version="1.0" encoding="UTF-8" standalone="no"?>
<!DOCTYPE svg PUBLIC "-//W3C//DTD SVG 1.1//EN"
 "http://www.w3.org/Graphics/SVG/1.1/DTD/svg11.dtd">
<!-- Generated by graphviz version 2.43.0 (0)
 -->
<!-- Title: select_common_3d_shape Pages: 1 -->
<svg width="603pt" height="788pt"
 viewBox="0.00 0.00 603.00 788.00" xmlns="http://www.w3.org/2000/svg" xmlns:xlink="http://www.w3.org/1999/xlink">
<g id="graph0" class="graph" transform="scale(1 1) rotate(0) translate(4 784)">
<title>select_common_3d_shape</title>
<polygon fill="white" stroke="transparent" points="-4,4 -4,-784 599,-784 599,4 -4,4"/>
<!-- Node1 -->
<g id="node1" class="node">
<title>Node1</title>
<g id="a_node1"><a xlink:title="Select configure and construct one of the available 3d shapes.">
<polygon fill="#bfbfbf" stroke="black" points="0,-313.5 0,-332.5 146,-332.5 146,-313.5 0,-313.5"/>
<text text-anchor="middle" x="73" y="-320.5" font-family="Helvetica,sans-Serif" font-size="10.00">select_common_3d_shape</text>
</a>
</g>
</g>
<!-- Node2 -->
<g id="node2" class="node">
<title>Node2</title>
<g id="a_node2"><a xlink:href="group__shapes__common__3d.html#ga5075cfcc6967fb610e308f08da3fb059" target="_top" xlink:title="A cone.">
<polygon fill="white" stroke="black" points="351.5,-722.5 351.5,-741.5 391.5,-741.5 391.5,-722.5 351.5,-722.5"/>
<text text-anchor="middle" x="371.5" y="-729.5" font-family="Helvetica,sans-Serif" font-size="10.00">cone</text>
</a>
</g>
</g>
<!-- Node1&#45;&gt;Node2 -->
<g id="edge1" class="edge">
<title>Node1&#45;&gt;Node2</title>
<path fill="none" stroke="midnightblue" d="M74.73,-332.76C78.34,-374.51 97.65,-540.37 182,-637 225.32,-686.63 300.75,-713.4 341.83,-724.95"/>
<polygon fill="midnightblue" stroke="midnightblue" points="340.93,-728.33 351.5,-727.56 342.76,-721.57 340.93,-728.33"/>
</g>
<!-- Node4 -->
<g id="node4" class="node">
<title>Node4</title>
<g id="a_node4"><a xlink:href="group__datatypes__iterable__operate.html#ga3d37c2b0067d1661724bd89955c8f6ce" target="_top" xlink:title="Returns an element from an iterable if it exists, or a default value if not.">
<polygon fill="white" stroke="black" points="485.5,-494.5 485.5,-513.5 564.5,-513.5 564.5,-494.5 485.5,-494.5"/>
<text text-anchor="middle" x="525" y="-501.5" font-family="Helvetica,sans-Serif" font-size="10.00">defined_e_or</text>
</a>
</g>
</g>
<!-- Node1&#45;&gt;Node4 -->
<g id="edge9" class="edge">
<title>Node1&#45;&gt;Node4</title>
<path fill="none" stroke="midnightblue" d="M83.92,-313.34C102.06,-296.14 142.33,-259.95 182,-238 225.79,-213.76 254.05,-236.77 288,-200 329.54,-155 275.37,-104.22 324,-67 357.53,-41.34 385.84,-40.86 419,-67 486.47,-120.18 515.56,-405.19 522.37,-483.87"/>
<polygon fill="midnightblue" stroke="midnightblue" points="518.92,-484.62 523.25,-494.29 525.9,-484.04 518.92,-484.62"/>
</g>
<!-- Node7 -->
<g id="node7" class="node">
<title>Node7</title>
<g id="a_node7"><a xlink:href="group__shapes__common__3d.html#ga9041dbb11863f4e55466564aac6f0342" target="_top" xlink:title="A cuboid with edge, round, or chamfer corners.">
<polygon fill="white" stroke="black" points="210.5,-418.5 210.5,-437.5 259.5,-437.5 259.5,-418.5 210.5,-418.5"/>
<text text-anchor="middle" x="235" y="-425.5" font-family="Helvetica,sans-Serif" font-size="10.00">cuboid</text>
</a>
</g>
</g>
<!-- Node1&#45;&gt;Node7 -->
<g id="edge6" class="edge">
<title>Node1&#45;&gt;Node7</title>
<path fill="none" stroke="midnightblue" d="M88.48,-332.5C116.18,-350.68 176.91,-390.54 210.5,-412.58"/>
<polygon fill="midnightblue" stroke="midnightblue" points="208.92,-415.73 219.2,-418.29 212.76,-409.88 208.92,-415.73"/>
</g>
<!-- Node9 -->
<g id="node9" class="node">
<title>Node9</title>
<g id="a_node9"><a xlink:href="group__datatypes__iterable__operate.html#gaa10da05023bd79eec85459298bc937c2" target="_top" xlink:title="Returns the list element or scalar numeric value if defined, otherwise returns the default value.">
<polygon fill="white" stroke="black" points="189.5,-171.5 189.5,-190.5 280.5,-190.5 280.5,-171.5 189.5,-171.5"/>
<text text-anchor="middle" x="235" y="-178.5" font-family="Helvetica,sans-Serif" font-size="10.00">defined_eon_or</text>
</a>
</g>
</g>
<!-- Node1&#45;&gt;Node9 -->
<g id="edge10" class="edge">
<title>Node1&#45;&gt;Node9</title>
<path fill="none" stroke="midnightblue" d="M80.8,-313.23C96.46,-291.36 137.15,-237.77 182,-205 187.16,-201.23 193.01,-197.84 198.88,-194.87"/>
<polygon fill="midnightblue" stroke="midnightblue" points="200.46,-198 208.02,-190.57 197.48,-191.66 200.46,-198"/>
</g>
<!-- Node10 -->
<g id="node10" class="node">
<title>Node10</title>
<g id="a_node10"><a xlink:href="group__shapes__common__3d.html#gae19b5c3317cb94e9e7b1bd443f3582e5" target="_top" xlink:title="An ellipsoid.">
<polygon fill="white" stroke="black" points="342.5,-532.5 342.5,-551.5 400.5,-551.5 400.5,-532.5 342.5,-532.5"/>
<text text-anchor="middle" x="371.5" y="-539.5" font-family="Helvetica,sans-Serif" font-size="10.00">ellipsoid</text>
</a>
</g>
</g>
<!-- Node1&#45;&gt;Node10 -->
<g id="edge11" class="edge">
<title>Node1&#45;&gt;Node10</title>
<path fill="none" stroke="midnightblue" d="M75.89,-332.66C82.95,-365.84 111.08,-475.72 182,-523 226.81,-552.88 291.42,-552.31 332.16,-548.02"/>
<polygon fill="midnightblue" stroke="midnightblue" points="332.71,-551.48 342.23,-546.83 331.89,-544.52 332.71,-551.48"/>
</g>
<!-- Node11 -->
<g id="node11" class="node">
<title>Node11</title>
<g id="a_node11"><a xlink:href="group__shapes__common__3d.html#ga3b0b3b2d184c8d771dbbf2463f5c4baf" target="_top" xlink:title="A sector of an ellipsoid.">
<polygon fill="white" stroke="black" points="201,-494.5 201,-513.5 269,-513.5 269,-494.5 201,-494.5"/>
<text text-anchor="middle" x="235" y="-501.5" font-family="Helvetica,sans-Serif" font-size="10.00">ellipsoid_s</text>
</a>
</g>
</g>
<!-- Node1&#45;&gt;Node11 -->
<g id="edge13" class="edge">
<title>Node1&#45;&gt;Node11</title>
<path fill="none" stroke="midnightblue" d="M82.33,-332.71C100.35,-353.7 144.39,-404.81 182,-447 194.05,-460.52 207.87,-475.65 218.24,-486.93"/>
<polygon fill="midnightblue" stroke="midnightblue" points="215.75,-489.39 225.1,-494.38 220.9,-484.65 215.75,-489.39"/>
</g>
<!-- Node12 -->
<g id="node12" class="node">
<title>Node12</title>
<g id="a_node12"><a xlink:href="group__common__console.html#gacb9540a228d2c15623784ff0b0653722" target="_top" xlink:title="Output information message to console.">
<polygon fill="white" stroke="black" points="207,-133.5 207,-152.5 263,-152.5 263,-133.5 207,-133.5"/>
<text text-anchor="middle" x="235" y="-140.5" font-family="Helvetica,sans-Serif" font-size="10.00">log_info</text>
</a>
</g>
</g>
<!-- Node1&#45;&gt;Node12 -->
<g id="edge16" class="edge">
<title>Node1&#45;&gt;Node12</title>
<path fill="none" stroke="midnightblue" d="M77.82,-313.5C89.34,-286.02 126.39,-205.62 182,-162 186.65,-158.35 192.07,-155.36 197.62,-152.92"/>
<polygon fill="midnightblue" stroke="midnightblue" points="198.89,-156.18 206.96,-149.31 196.37,-149.65 198.89,-156.18"/>
</g>
<!-- Node14 -->
<g id="node14" class="node">
<title>Node14</title>
<g id="a_node14"><a xlink:href="group__shapes__polyhedron__db.html#gacf51b9de6617181d62ba84d15c028376" target="_top" xlink:title="Get data table identifier name (or names).">
<polygon fill="white" stroke="black" points="194.5,-95.5 194.5,-114.5 275.5,-114.5 275.5,-95.5 194.5,-95.5"/>
<text text-anchor="middle" x="235" y="-102.5" font-family="Helvetica,sans-Serif" font-size="10.00">ph_db_get_id</text>
</a>
</g>
</g>
<!-- Node1&#45;&gt;Node14 -->
<g id="edge18" class="edge">
<title>Node1&#45;&gt;Node14</title>
<path fill="none" stroke="midnightblue" d="M76.62,-313.13C85.63,-281.09 118.31,-178.96 182,-124 183.94,-122.32 186.04,-120.79 188.25,-119.39"/>
<polygon fill="midnightblue" stroke="midnightblue" points="190.01,-122.42 197.18,-114.61 186.71,-116.25 190.01,-122.42"/>
</g>
<!-- Node15 -->
<g id="node15" class="node">
<title>Node15</title>
<g id="a_node15"><a xlink:href="group__shapes__polyhedron__db.html#ga842353f62d1e98a1bb5e434a2cbdc724" target="_top" xlink:title="Get the number of shape identifiers in data table.">
<polygon fill="white" stroke="black" points="189,-57.5 189,-76.5 281,-76.5 281,-57.5 189,-57.5"/>
<text text-anchor="middle" x="235" y="-64.5" font-family="Helvetica,sans-Serif" font-size="10.00">ph_db_get_size</text>
</a>
</g>
</g>
<!-- Node1&#45;&gt;Node15 -->
<g id="edge19" class="edge">
<title>Node1&#45;&gt;Node15</title>
<path fill="none" stroke="midnightblue" d="M75.65,-313.31C82.21,-277.74 109.66,-152.96 182,-86 183.69,-84.44 185.52,-83 187.45,-81.67"/>
<polygon fill="midnightblue" stroke="midnightblue" points="189.43,-84.57 196.41,-76.59 185.98,-78.48 189.43,-84.57"/>
</g>
<!-- Node16 -->
<g id="node16" class="node">
<title>Node16</title>
<g id="a_node16"><a xlink:href="group__shapes__polyhedron__db.html#gae2635420611b120f6f9332ae9fd3c3d1" target="_top" xlink:title="Construct a named polyhedron.">
<polygon fill="white" stroke="black" points="182,-247.5 182,-266.5 288,-266.5 288,-247.5 182,-247.5"/>
<text text-anchor="middle" x="235" y="-254.5" font-family="Helvetica,sans-Serif" font-size="10.00">ph_db_polyhedron</text>
</a>
</g>
</g>
<!-- Node1&#45;&gt;Node16 -->
<g id="edge20" class="edge">
<title>Node1&#45;&gt;Node16</title>
<path fill="none" stroke="midnightblue" d="M97.27,-313.4C124.72,-302.08 170.53,-283.18 201.48,-270.41"/>
<polygon fill="midnightblue" stroke="midnightblue" points="203.06,-273.55 210.97,-266.5 200.39,-267.08 203.06,-273.55"/>
</g>
<!-- Node24 -->
<g id="node24" class="node">
<title>Node24</title>
<g id="a_node24"><a xlink:href="group__shapes__common__3d.html#ga0099e0efcd16a2e5de1b52f8aed84682" target="_top" xlink:title="A pyramid with quadrilateral base.">
<polygon fill="white" stroke="black" points="337.5,-570.5 337.5,-589.5 405.5,-589.5 405.5,-570.5 337.5,-570.5"/>
<text text-anchor="middle" x="371.5" y="-577.5" font-family="Helvetica,sans-Serif" font-size="10.00">pyramid_q</text>
</a>
</g>
</g>
<!-- Node1&#45;&gt;Node24 -->
<g id="edge29" class="edge">
<title>Node1&#45;&gt;Node24</title>
<path fill="none" stroke="midnightblue" d="M75.4,-332.75C81.07,-368.47 105.82,-493.01 182,-550 223.95,-581.38 285.98,-585.45 327.29,-583.96"/>
<polygon fill="midnightblue" stroke="midnightblue" points="327.5,-587.46 337.32,-583.48 327.16,-580.46 327.5,-587.46"/>
</g>
<!-- Node25 -->
<g id="node25" class="node">
<title>Node25</title>
<g id="a_node25"><a xlink:href="group__shapes__common__3d.html#gad33c4146709a0535af00cc1c64d5174f" target="_top" xlink:title="A pyramid with trilateral base formed by four equilateral triangles.">
<polygon fill="white" stroke="black" points="202,-347.5 202,-366.5 268,-366.5 268,-347.5 202,-347.5"/>
<text text-anchor="middle" x="235" y="-354.5" font-family="Helvetica,sans-Serif" font-size="10.00">pyramid_t</text>
</a>
</g>
</g>
<!-- Node1&#45;&gt;Node25 -->
<g id="edge31" class="edge">
<title>Node1&#45;&gt;Node25</title>
<path fill="none" stroke="midnightblue" d="M118.99,-332.56C141.84,-337.42 169.43,-343.28 191.85,-348.04"/>
<polygon fill="midnightblue" stroke="midnightblue" points="191.25,-351.49 201.76,-350.15 192.71,-344.65 191.25,-351.49"/>
</g>
<!-- Node26 -->
<g id="node26" class="node">
<title>Node26</title>
<g id="a_node26"><a xlink:href="group__shapes__common__3d.html#ga4ce7dbd0b00fa303b5a6fdb8c4c34ab2" target="_top" xlink:title="A three&#45;dimensional star.">
<polygon fill="white" stroke="black" points="211.5,-608.5 211.5,-627.5 258.5,-627.5 258.5,-608.5 211.5,-608.5"/>
<text text-anchor="middle" x="235" y="-615.5" font-family="Helvetica,sans-Serif" font-size="10.00">star3d</text>
</a>
</g>
</g>
<!-- Node1&#45;&gt;Node26 -->
<g id="edge33" class="edge">
<title>Node1&#45;&gt;Node26</title>
<path fill="none" stroke="midnightblue" d="M75.22,-332.51C80.57,-370.47 105.16,-512.96 182,-594 187.58,-599.88 194.88,-604.46 202.24,-607.95"/>
<polygon fill="midnightblue" stroke="midnightblue" points="200.9,-611.18 211.47,-611.83 203.61,-604.73 200.9,-611.18"/>
</g>
<!-- Node30 -->
<g id="node30" class="node">
<title>Node30</title>
<g id="a_node30"><a xlink:href="group__datatypes__list__operate.html#gab842ea235bf5fc40a14512083b49c8d2" target="_top" xlink:title="Convert a list of values to a concatenated string.">
<polygon fill="white" stroke="black" points="219,-19.5 219,-38.5 251,-38.5 251,-19.5 219,-19.5"/>
<text text-anchor="middle" x="235" y="-26.5" font-family="Helvetica,sans-Serif" font-size="10.00">strl</text>
</a>
</g>
</g>
<!-- Node1&#45;&gt;Node30 -->
<g id="edge41" class="edge">
<title>Node1&#45;&gt;Node30</title>
<path fill="none" stroke="midnightblue" d="M74.96,-313.43C79.33,-274.6 100.89,-127.19 182,-48 189.27,-40.9 199.41,-36.42 208.8,-33.61"/>
<polygon fill="midnightblue" stroke="midnightblue" points="209.69,-37 218.54,-31.18 207.99,-30.21 209.69,-37"/>
</g>
<!-- Node3 -->
<g id="node3" class="node">
<title>Node3</title>
<g id="a_node3"><a xlink:href="group__units__angle.html#ga06a917b77748dfb74e765bcd7c4c0219" target="_top" xlink:title="Convert an angle value from one unit to another.">
<polygon fill="white" stroke="black" points="503,-684.5 503,-703.5 547,-703.5 547,-684.5 503,-684.5"/>
<text text-anchor="middle" x="525" y="-691.5" font-family="Helvetica,sans-Serif" font-size="10.00">angle</text>
</a>
</g>
</g>
<!-- Node2&#45;&gt;Node3 -->
<g id="edge2" class="edge">
<title>Node2&#45;&gt;Node3</title>
<path fill="none" stroke="midnightblue" d="M391.69,-727.19C417.04,-720.83 462.04,-709.54 492.44,-701.92"/>
<polygon fill="midnightblue" stroke="midnightblue" points="493.68,-705.21 502.53,-699.39 491.98,-698.42 493.68,-705.21"/>
</g>
<!-- Node2&#45;&gt;Node4 -->
<g id="edge3" class="edge">
<title>Node2&#45;&gt;Node4</title>
<path fill="none" stroke="midnightblue" d="M381.5,-722.46C391.49,-711.57 407.68,-692.92 419,-675 438.96,-643.4 435.94,-631.15 455,-599 471.87,-570.54 495.09,-539.99 509.82,-521.43"/>
<polygon fill="midnightblue" stroke="midnightblue" points="512.59,-523.56 516.12,-513.57 507.13,-519.18 512.59,-523.56"/>
</g>
<!-- Node5 -->
<g id="node5" class="node">
<title>Node5</title>
<g id="a_node5"><a xlink:href="group__math__polygon.html#ga7a0eff64929a142fc507615f83e3bd58" target="_top" xlink:title="Compute coordinates that round all of the vertices between each adjacent edges in 2D.">
<polygon fill="white" stroke="black" points="455,-760.5 455,-779.5 595,-779.5 595,-760.5 455,-760.5"/>
<text text-anchor="middle" x="525" y="-767.5" font-family="Helvetica,sans-Serif" font-size="10.00">polygon_round_eve_all_p</text>
</a>
</g>
</g>
<!-- Node2&#45;&gt;Node5 -->
<g id="edge4" class="edge">
<title>Node2&#45;&gt;Node5</title>
<path fill="none" stroke="midnightblue" d="M391.69,-736.81C412.84,-742.12 447.67,-750.85 476.28,-758.03"/>
<polygon fill="midnightblue" stroke="midnightblue" points="475.56,-761.46 486.11,-760.5 477.26,-754.67 475.56,-761.46"/>
</g>
<!-- Node6 -->
<g id="node6" class="node">
<title>Node6</title>
<g id="a_node6"><a xlink:href="group__math__triangle.html#gaab9b812d15418fd05c9d93f3bfcc1989" target="_top" xlink:title="Compute a set of vertex coordinates for a triangle given its side lengths in 2D.">
<polygon fill="white" stroke="black" points="469.5,-722.5 469.5,-741.5 580.5,-741.5 580.5,-722.5 469.5,-722.5"/>
<text text-anchor="middle" x="525" y="-729.5" font-family="Helvetica,sans-Serif" font-size="10.00">triangle2d_sss2ppp</text>
</a>
</g>
</g>
<!-- Node2&#45;&gt;Node6 -->
<g id="edge5" class="edge">
<title>Node2&#45;&gt;Node6</title>
<path fill="none" stroke="midnightblue" d="M391.69,-732C408.83,-732 434.96,-732 459.48,-732"/>
<polygon fill="midnightblue" stroke="midnightblue" points="459.5,-735.5 469.5,-732 459.5,-728.5 459.5,-735.5"/>
</g>
<!-- Node7&#45;&gt;Node4 -->
<g id="edge8" class="edge">
<title>Node7&#45;&gt;Node4</title>
<path fill="none" stroke="midnightblue" d="M259.57,-434.22C307.16,-446.78 415.5,-475.37 477.73,-491.79"/>
<polygon fill="midnightblue" stroke="midnightblue" points="477.11,-495.25 487.68,-494.41 478.9,-488.48 477.11,-495.25"/>
</g>
<!-- Node8 -->
<g id="node8" class="node">
<title>Node8</title>
<g id="a_node8"><a xlink:href="group__datatypes__binary.html#ga7ce4ed94d9b389ff817ea219918b8732" target="_top" xlink:title="Test if a binary bit position of an integer value equals a test bit.">
<polygon fill="white" stroke="black" points="332,-418.5 332,-437.5 411,-437.5 411,-418.5 332,-418.5"/>
<text text-anchor="middle" x="371.5" y="-425.5" font-family="Helvetica,sans-Serif" font-size="10.00">binary_bit_is</text>
</a>
</g>
</g>
<!-- Node7&#45;&gt;Node8 -->
<g id="edge7" class="edge">
<title>Node7&#45;&gt;Node8</title>
<path fill="none" stroke="midnightblue" d="M259.74,-428C276.91,-428 300.72,-428 321.87,-428"/>
<polygon fill="midnightblue" stroke="midnightblue" points="321.99,-431.5 331.99,-428 321.99,-424.5 321.99,-431.5"/>
</g>
<!-- Node10&#45;&gt;Node4 -->
<g id="edge12" class="edge">
<title>Node10&#45;&gt;Node4</title>
<path fill="none" stroke="midnightblue" d="M400.64,-534.94C421.77,-529.64 451.22,-522.25 476.05,-516.03"/>
<polygon fill="midnightblue" stroke="midnightblue" points="477.16,-519.36 486.01,-513.53 475.46,-512.57 477.16,-519.36"/>
</g>
<!-- Node11&#45;&gt;Node4 -->
<g id="edge14" class="edge">
<title>Node11&#45;&gt;Node4</title>
<path fill="none" stroke="midnightblue" d="M269.04,-504C319.63,-504 416.6,-504 475.28,-504"/>
<polygon fill="midnightblue" stroke="midnightblue" points="475.42,-507.5 485.42,-504 475.42,-500.5 475.42,-507.5"/>
</g>
<!-- Node11&#45;&gt;Node10 -->
<g id="edge15" class="edge">
<title>Node11&#45;&gt;Node10</title>
<path fill="none" stroke="midnightblue" d="M269.25,-513.39C288.41,-518.81 312.58,-525.64 332.5,-531.26"/>
<polygon fill="midnightblue" stroke="midnightblue" points="331.61,-534.65 342.18,-534 333.51,-527.91 331.61,-534.65"/>
</g>
<!-- Node13 -->
<g id="node13" class="node">
<title>Node13</title>
<g id="a_node13"><a xlink:href="group__common__console.html#ga4fb6c985031c9b551777b2e9ebd2fc34" target="_top" xlink:title="Format the function call stack as a string.">
<polygon fill="white" stroke="black" points="350,-0.5 350,-19.5 393,-19.5 393,-0.5 350,-0.5"/>
<text text-anchor="middle" x="371.5" y="-7.5" font-family="Helvetica,sans-Serif" font-size="10.00">stack</text>
</a>
</g>
</g>
<!-- Node12&#45;&gt;Node13 -->
<g id="edge17" class="edge">
<title>Node12&#45;&gt;Node13</title>
<path fill="none" stroke="midnightblue" d="M263.25,-137.72C272.03,-134.88 281.24,-130.56 288,-124 318.92,-94 295.03,-65.89 324,-34 328.57,-28.97 334.44,-24.83 340.46,-21.49"/>
<polygon fill="midnightblue" stroke="midnightblue" points="342.43,-24.42 349.88,-16.88 339.36,-18.13 342.43,-24.42"/>
</g>
<!-- Node16&#45;&gt;Node4 -->
<g id="edge21" class="edge">
<title>Node16&#45;&gt;Node4</title>
<path fill="none" stroke="midnightblue" d="M244.93,-266.6C259.95,-282.29 291.83,-313.64 324,-333 362.82,-356.37 382.62,-342.98 419,-370 462.51,-402.31 497.56,-457.09 513.95,-485.57"/>
<polygon fill="midnightblue" stroke="midnightblue" points="511,-487.46 518.95,-494.47 517.1,-484.03 511,-487.46"/>
</g>
<!-- Node17 -->
<g id="node17" class="node">
<title>Node17</title>
<g id="a_node17"><a xlink:href="group__datatypes__iterable__operate.html#gaccab3e37e43cb1d882713b3f3d6d9e1b" target="_top" xlink:title="Return the first element of an iterable value.">
<polygon fill="white" stroke="black" points="354,-114.5 354,-133.5 389,-133.5 389,-114.5 354,-114.5"/>
<text text-anchor="middle" x="371.5" y="-121.5" font-family="Helvetica,sans-Serif" font-size="10.00">first</text>
</a>
</g>
</g>
<!-- Node16&#45;&gt;Node17 -->
<g id="edge22" class="edge">
<title>Node16&#45;&gt;Node17</title>
<path fill="none" stroke="midnightblue" d="M266.82,-247.38C274.49,-243.83 282.18,-239.13 288,-233 317.66,-201.76 293.65,-173.58 324,-143 329.49,-137.47 336.82,-133.48 344.02,-130.64"/>
<polygon fill="midnightblue" stroke="midnightblue" points="345.23,-133.93 353.6,-127.43 343.01,-127.29 345.23,-133.93"/>
</g>
<!-- Node18 -->
<g id="node18" class="node">
<title>Node18</title>
<g id="a_node18"><a xlink:href="group__math__polytope.html#gac5d546b49b09d2da25a6a02da5ef2373" target="_top" xlink:title="Determine the bounding limits of a polytope.">
<polygon fill="white" stroke="black" points="325.5,-76.5 325.5,-95.5 417.5,-95.5 417.5,-76.5 325.5,-76.5"/>
<text text-anchor="middle" x="371.5" y="-83.5" font-family="Helvetica,sans-Serif" font-size="10.00">polytope_limits</text>
</a>
</g>
</g>
<!-- Node16&#45;&gt;Node18 -->
<g id="edge23" class="edge">
<title>Node16&#45;&gt;Node18</title>
<path fill="none" stroke="midnightblue" d="M268.08,-247.41C275.47,-243.89 282.71,-239.2 288,-233 326.35,-188.04 284.66,-149.09 324,-105 325.16,-103.7 326.42,-102.49 327.76,-101.36"/>
<polygon fill="midnightblue" stroke="midnightblue" points="329.77,-104.22 336.12,-95.74 325.87,-98.41 329.77,-104.22"/>
</g>
<!-- Node19 -->
<g id="node19" class="node">
<title>Node19</title>
<g id="a_node19"><a xlink:href="group__math__linear__algebra.html#gac14f8e19291d8e58501461fc0c402310" target="_top" xlink:title="Scale all coordinates dimensions proportionately to fit inside a region.">
<polygon fill="white" stroke="black" points="343,-304.5 343,-323.5 400,-323.5 400,-304.5 343,-304.5"/>
<text text-anchor="middle" x="371.5" y="-311.5" font-family="Helvetica,sans-Serif" font-size="10.00">resize_p</text>
</a>
</g>
</g>
<!-- Node16&#45;&gt;Node19 -->
<g id="edge24" class="edge">
<title>Node16&#45;&gt;Node19</title>
<path fill="none" stroke="midnightblue" d="M258.01,-266.65C275.78,-274.4 301.45,-285.52 324,-295 328.28,-296.8 332.78,-298.67 337.24,-300.5"/>
<polygon fill="midnightblue" stroke="midnightblue" points="336.23,-303.87 346.81,-304.42 338.88,-297.39 336.23,-303.87"/>
</g>
<!-- Node20 -->
<g id="node20" class="node">
<title>Node20</title>
<g id="a_node20"><a xlink:href="group__datatypes__iterable__operate.html#ga894d4bec62cc9cf38d5e099de3028c54" target="_top" xlink:title="Return the second element of an iterable value.">
<polygon fill="white" stroke="black" points="346,-266.5 346,-285.5 397,-285.5 397,-266.5 346,-266.5"/>
<text text-anchor="middle" x="371.5" y="-273.5" font-family="Helvetica,sans-Serif" font-size="10.00">second</text>
</a>
</g>
</g>
<!-- Node16&#45;&gt;Node20 -->
<g id="edge25" class="edge">
<title>Node16&#45;&gt;Node20</title>
<path fill="none" stroke="midnightblue" d="M288,-264.35C303.94,-266.6 321.09,-269.02 335.6,-271.07"/>
<polygon fill="midnightblue" stroke="midnightblue" points="335.26,-274.56 345.65,-272.49 336.23,-267.62 335.26,-274.56"/>
</g>
<!-- Node21 -->
<g id="node21" class="node">
<title>Node21</title>
<g id="a_node21"><a xlink:href="group__datatypes__table.html#ga67088801a97d5575ebef698f06e80096" target="_top" xlink:title="Test the existence of a table row identifier, table column identifier, or both.">
<polygon fill="white" stroke="black" points="333.5,-228.5 333.5,-247.5 409.5,-247.5 409.5,-228.5 333.5,-228.5"/>
<text text-anchor="middle" x="371.5" y="-235.5" font-family="Helvetica,sans-Serif" font-size="10.00">table_exists</text>
</a>
</g>
</g>
<!-- Node16&#45;&gt;Node21 -->
<g id="edge26" class="edge">
<title>Node16&#45;&gt;Node21</title>
<path fill="none" stroke="midnightblue" d="M288,-249.65C299.55,-248.02 311.73,-246.3 323.08,-244.7"/>
<polygon fill="midnightblue" stroke="midnightblue" points="323.81,-248.13 333.23,-243.27 322.84,-241.2 323.81,-248.13"/>
</g>
<!-- Node22 -->
<g id="node22" class="node">
<title>Node22</title>
<g id="a_node22"><a xlink:href="group__datatypes__table.html#gaff59353c2a35021843d7a7f34d34eac9" target="_top" xlink:title="Get the table cell value for a specified row and column identifier.">
<polygon fill="white" stroke="black" points="324,-190.5 324,-209.5 419,-209.5 419,-190.5 324,-190.5"/>
<text text-anchor="middle" x="371.5" y="-197.5" font-family="Helvetica,sans-Serif" font-size="10.00">table_get_value</text>
</a>
</g>
</g>
<!-- Node16&#45;&gt;Node22 -->
<g id="edge27" class="edge">
<title>Node16&#45;&gt;Node22</title>
<path fill="none" stroke="midnightblue" d="M258.01,-247.35C275.78,-239.6 301.45,-228.48 324,-219 328.28,-217.2 332.78,-215.33 337.24,-213.5"/>
<polygon fill="midnightblue" stroke="midnightblue" points="338.88,-216.61 346.81,-209.58 336.23,-210.13 338.88,-216.61"/>
</g>
<!-- Node23 -->
<g id="node23" class="node">
<title>Node23</title>
<g id="a_node23"><a xlink:href="group__math__linear__algebra.html#gaeabe74699fd0a437bad9a1d442bfd111" target="_top" xlink:title="Translate all coordinates dimensions.">
<polygon fill="white" stroke="black" points="336,-152.5 336,-171.5 407,-171.5 407,-152.5 336,-152.5"/>
<text text-anchor="middle" x="371.5" y="-159.5" font-family="Helvetica,sans-Serif" font-size="10.00">translate_p</text>
</a>
</g>
</g>
<!-- Node16&#45;&gt;Node23 -->
<g id="edge28" class="edge">
<title>Node16&#45;&gt;Node23</title>
<path fill="none" stroke="midnightblue" d="M263.79,-247.44C272.12,-243.74 280.92,-238.95 288,-233 309.52,-214.92 302.08,-198.6 324,-181 326.02,-179.38 328.2,-177.87 330.48,-176.48"/>
<polygon fill="midnightblue" stroke="midnightblue" points="332.37,-179.44 339.58,-171.68 329.1,-173.25 332.37,-179.44"/>
</g>
<!-- Node24&#45;&gt;Node4 -->
<g id="edge30" class="edge">
<title>Node24&#45;&gt;Node4</title>
<path fill="none" stroke="midnightblue" d="M397.33,-570.44C404.4,-567.56 412.07,-564.29 419,-561 446.79,-547.83 477.62,-530.79 498.64,-518.78"/>
<polygon fill="midnightblue" stroke="midnightblue" points="500.64,-521.67 507.56,-513.65 497.15,-515.6 500.64,-521.67"/>
</g>
<!-- Node25&#45;&gt;Node4 -->
<g id="edge32" class="edge">
<title>Node25&#45;&gt;Node4</title>
<path fill="none" stroke="midnightblue" d="M268.13,-361.56C306.07,-367.94 370.18,-381.94 419,-409 456.01,-429.52 490.73,-465.4 509.5,-486.7"/>
<polygon fill="midnightblue" stroke="midnightblue" points="506.91,-489.07 516.1,-494.35 512.21,-484.49 506.91,-489.07"/>
</g>
<!-- Node26&#45;&gt;Node3 -->
<g id="edge34" class="edge">
<title>Node26&#45;&gt;Node3</title>
<path fill="none" stroke="midnightblue" d="M247.01,-627.69C262.81,-640.96 293.4,-664.36 324,-675 381.03,-694.84 452.4,-696.53 492.62,-695.55"/>
<polygon fill="midnightblue" stroke="midnightblue" points="492.98,-699.04 502.87,-695.23 492.76,-692.05 492.98,-699.04"/>
</g>
<!-- Node26&#45;&gt;Node4 -->
<g id="edge35" class="edge">
<title>Node26&#45;&gt;Node4</title>
<path fill="none" stroke="midnightblue" d="M258.55,-620.02C294.27,-622.28 365.32,-622.94 419,-599 458.05,-581.59 492.5,-543.99 510.58,-521.67"/>
<polygon fill="midnightblue" stroke="midnightblue" points="513.44,-523.69 516.89,-513.67 507.95,-519.35 513.44,-523.69"/>
</g>
<!-- Node26&#45;&gt;Node24 -->
<g id="edge36" class="edge">
<title>Node26&#45;&gt;Node24</title>
<path fill="none" stroke="midnightblue" d="M258.51,-611.64C277.27,-606.34 304.54,-598.64 327.46,-592.16"/>
<polygon fill="midnightblue" stroke="midnightblue" points="328.65,-595.46 337.32,-589.37 326.74,-588.73 328.65,-595.46"/>
</g>
<!-- Node27 -->
<g id="node27" class="node">
<title>Node27</title>
<g id="a_node27"><a xlink:href="group__transforms__repeat.html#ga8da1e3a852a1b25ba93437a6fe46745f" target="_top" xlink:title="Radially repeat copies of child objects about a z&#45;axis radius.">
<polygon fill="white" stroke="black" points="331,-646.5 331,-665.5 412,-665.5 412,-646.5 331,-646.5"/>
<text text-anchor="middle" x="371.5" y="-653.5" font-family="Helvetica,sans-Serif" font-size="10.00">repeat_radial</text>
</a>
</g>
</g>
<!-- Node26&#45;&gt;Node27 -->
<g id="edge37" class="edge">
<title>Node26&#45;&gt;Node27</title>
<path fill="none" stroke="midnightblue" d="M258.51,-624.36C277.14,-629.62 304.16,-637.26 326.99,-643.71"/>
<polygon fill="midnightblue" stroke="midnightblue" points="326.23,-647.13 336.81,-646.48 328.13,-640.39 326.23,-647.13"/>
</g>
<!-- Node27&#45;&gt;Node3 -->
<g id="edge38" class="edge">
<title>Node27&#45;&gt;Node3</title>
<path fill="none" stroke="midnightblue" d="M410.73,-665.59C436.08,-671.95 468.93,-680.19 492.72,-686.15"/>
<polygon fill="midnightblue" stroke="midnightblue" points="492.08,-689.6 502.64,-688.64 493.79,-682.81 492.08,-689.6"/>
</g>
<!-- Node28 -->
<g id="node28" class="node">
<title>Node28</title>
<g id="a_node28"><a xlink:href="group__datatypes__euclidean.html#ga3d5c07c70f271bcf9144f50ce8620a89" target="_top" xlink:title="Compute the angle between two lines or vectors in a 3d or 2d&#45;space.">
<polygon fill="white" stroke="black" points="497.5,-608.5 497.5,-627.5 552.5,-627.5 552.5,-608.5 497.5,-608.5"/>
<text text-anchor="middle" x="525" y="-615.5" font-family="Helvetica,sans-Serif" font-size="10.00">angle_ll</text>
</a>
</g>
</g>
<!-- Node27&#45;&gt;Node28 -->
<g id="edge39" class="edge">
<title>Node27&#45;&gt;Node28</title>
<path fill="none" stroke="midnightblue" d="M410.73,-646.41C434.25,-640.51 464.22,-632.99 487.43,-627.17"/>
<polygon fill="midnightblue" stroke="midnightblue" points="488.39,-630.54 497.24,-624.71 486.69,-623.75 488.39,-630.54"/>
</g>
<!-- Node29 -->
<g id="node29" class="node">
<title>Node29</title>
<g id="a_node29"><a xlink:href="group__math__polygon.html#ga8c717f95615525c0b53693ba1f5fdb69" target="_top" xlink:title="Compute coordinates for an n&#45;sided regular polygon in 2D.">
<polygon fill="white" stroke="black" points="471.5,-646.5 471.5,-665.5 578.5,-665.5 578.5,-646.5 471.5,-646.5"/>
<text text-anchor="middle" x="525" y="-653.5" font-family="Helvetica,sans-Serif" font-size="10.00">polygon_regular_p</text>
</a>
</g>
</g>
<!-- Node27&#45;&gt;Node29 -->
<g id="edge40" class="edge">
<title>Node27&#45;&gt;Node29</title>
<path fill="none" stroke="midnightblue" d="M412.3,-656C427.26,-656 444.65,-656 461.19,-656"/>
<polygon fill="midnightblue" stroke="midnightblue" points="461.35,-659.5 471.35,-656 461.35,-652.5 461.35,-659.5"/>
</g>
</g>
</svg>
