<?xml version="1.0" encoding="UTF-8" standalone="no"?>
<!DOCTYPE svg PUBLIC "-//W3C//DTD SVG 1.1//EN"
 "http://www.w3.org/Graphics/SVG/1.1/DTD/svg11.dtd">
<!-- Generated by graphviz version 2.43.0 (0)
 -->
<!-- Title: Box Screw Pages: 1 -->
<svg width="227pt" height="36pt"
 viewBox="0.00 0.00 227.00 35.80" xmlns="http://www.w3.org/2000/svg" xmlns:xlink="http://www.w3.org/1999/xlink">
<g id="graph0" class="graph" transform="scale(1 1) rotate(0) translate(4 31.8)">
<title>Box Screw</title>
<polygon fill="white" stroke="transparent" points="-4,4 -4,-31.8 223,-31.8 223,4 -4,4"/>
<!-- Node2 -->
<g id="node1" class="node">
<title>Node2</title>
<g id="a_node1"><a xlink:href="group__models__2d__joint.html" target="_top" xlink:title="Models for connecting 2d planar members.">
<polygon fill="white" stroke="black" points="38,-27.8 0,-27.8 0,-8.8 38,-8.8 38,-27.8"/>
<text text-anchor="middle" x="19" y="-15.8" font-family="Helvetica,sans-Serif" font-size="10.00">Joint</text>
</a>
</g>
</g>
<!-- Node1 -->
<g id="node2" class="node">
<title>Node1</title>
<g id="a_node2"><a xlink:title="Models for generating 2d box joints fastened with screw and nut.">
<polygon fill="#bfbfbf" stroke="black" points="219,-27.8 151,-27.8 151,-8.8 219,-8.8 219,-27.8"/>
<text text-anchor="middle" x="185" y="-15.8" font-family="Helvetica,sans-Serif" font-size="10.00">Box Screw</text>
</a>
</g>
</g>
<!-- Node2&#45;&gt;Node1 -->
<g id="edge1" class="edge">
<title>Node2&#45;&gt;Node1</title>
<path fill="none" stroke="black" d="M48.27,-18.3C76.71,-18.3 120.58,-18.3 150.7,-18.3"/>
<polygon fill="black" stroke="black" points="48.18,-14.8 38.18,-18.3 48.18,-21.8 48.18,-14.8"/>
</g>
<!-- Node1&#45;&gt;Node2 -->
<g id="edge2" class="edge">
<title>Node1&#45;&gt;Node2</title>
<path fill="none" stroke="darkgreen" stroke-dasharray="5,2" d="M154.61,-8.79C147.6,-6.93 140.1,-5.25 133,-4.3 99.08,0.27 89.64,2.01 56,-4.3 50.07,-5.41 43.86,-7.47 38.3,-9.68"/>
<text text-anchor="middle" x="94.5" y="-7.3" font-family="Helvetica,sans-Serif" font-size="10.00">box_screw.scad</text>
</g>
</g>
</svg>
