<?xml version="1.0" encoding="UTF-8" standalone="no"?>
<!DOCTYPE svg PUBLIC "-//W3C//DTD SVG 1.1//EN"
 "http://www.w3.org/Graphics/SVG/1.1/DTD/svg11.dtd">
<!-- Generated by graphviz version 2.43.0 (0)
 -->
<!-- Title: Mounts Pages: 1 -->
<svg width="218pt" height="29pt"
 viewBox="0.00 0.00 218.00 28.50" xmlns="http://www.w3.org/2000/svg" xmlns:xlink="http://www.w3.org/1999/xlink">
<g id="graph0" class="graph" transform="scale(1 1) rotate(0) translate(4 24.5)">
<title>Mounts</title>
<polygon fill="white" stroke="transparent" points="-4,4 -4,-24.5 214,-24.5 214,4 -4,4"/>
<!-- Node1 -->
<g id="node1" class="node">
<title>Node1</title>
<g id="a_node1"><a xlink:title="Screw mounts tabs, mount slots, mount posts, etc.">
<polygon fill="#bfbfbf" stroke="black" points="53,-19 0,-19 0,0 53,0 53,-19"/>
<text text-anchor="middle" x="26.5" y="-7" font-family="Helvetica,sans-Serif" font-size="10.00">Mounts</text>
</a>
</g>
</g>
<!-- Node2 -->
<g id="node2" class="node">
<title>Node2</title>
<g id="a_node2"><a xlink:href="group__parts__3d__fastener.html" target="_top" xlink:title="Fasteners, connectors, joiners, latches, and hinges.">
<polygon fill="white" stroke="black" points="210,-19 152,-19 152,0 210,0 210,-19"/>
<text text-anchor="middle" x="181" y="-7" font-family="Helvetica,sans-Serif" font-size="10.00">Fastener</text>
</a>
</g>
</g>
<!-- Node1&#45;&gt;Node2 -->
<g id="edge2" class="edge">
<title>Node1&#45;&gt;Node2</title>
<path fill="none" stroke="darkgreen" stroke-dasharray="5,2" d="M53.03,-9.5C80.33,-9.5 123.51,-9.5 151.8,-9.5"/>
<text text-anchor="middle" x="102.5" y="-12.5" font-family="Helvetica,sans-Serif" font-size="10.00">mounts.scad</text>
</g>
<!-- Node2&#45;&gt;Node1 -->
<g id="edge1" class="edge">
<title>Node2&#45;&gt;Node1</title>
<path fill="none" stroke="black" d="M141.73,-7.71C139.11,-7.63 136.52,-7.55 134,-7.5 106.01,-6.89 98.99,-6.86 71,-7.5 65.26,-7.63 59.09,-7.86 53.26,-8.12"/>
<polygon fill="black" stroke="black" points="141.67,-11.21 151.79,-8.08 141.92,-4.21 141.67,-11.21"/>
</g>
</g>
</svg>
