<?xml version="1.0" encoding="UTF-8" standalone="no"?>
<!DOCTYPE svg PUBLIC "-//W3C//DTD SVG 1.1//EN"
 "http://www.w3.org/Graphics/SVG/1.1/DTD/svg11.dtd">
<!-- Generated by graphviz version 2.43.0 (0)
 -->
<!-- Title: log_warn Pages: 1 -->
<svg width="345pt" height="123pt"
 viewBox="0.00 0.00 345.00 123.00" xmlns="http://www.w3.org/2000/svg" xmlns:xlink="http://www.w3.org/1999/xlink">
<g id="graph0" class="graph" transform="scale(1 1) rotate(0) translate(4 119)">
<title>log_warn</title>
<polygon fill="white" stroke="transparent" points="-4,4 -4,-119 341,-119 341,4 -4,4"/>
<!-- Node1 -->
<g id="node1" class="node">
<title>Node1</title>
<g id="a_node1"><a xlink:title="Output warning message to console.">
<polygon fill="#bfbfbf" stroke="black" points="276,-57.5 276,-76.5 337,-76.5 337,-57.5 276,-57.5"/>
<text text-anchor="middle" x="306.5" y="-64.5" font-family="Helvetica,sans-Serif" font-size="10.00">log_warn</text>
</a>
</g>
</g>
<!-- Node2 -->
<g id="node2" class="node">
<title>Node2</title>
<g id="a_node2"><a xlink:href="group__parts__3d__enclosure__power__strip.html#ga33509a1811b27fe7f3687957d4d32460" target="_top" xlink:title="A power strip generator for single gang electrical receptacles.">
<polygon fill="white" stroke="black" points="150,-95.5 150,-114.5 240,-114.5 240,-95.5 150,-95.5"/>
<text text-anchor="middle" x="195" y="-102.5" font-family="Helvetica,sans-Serif" font-size="10.00">power_strip_sg</text>
</a>
</g>
</g>
<!-- Node1&#45;&gt;Node2 -->
<g id="edge1" class="edge">
<title>Node1&#45;&gt;Node2</title>
<path fill="none" stroke="midnightblue" d="M268.12,-79.97C253.53,-85.03 237.11,-90.73 223.62,-95.41"/>
<polygon fill="midnightblue" stroke="midnightblue" points="269.57,-83.17 277.87,-76.59 267.27,-76.56 269.57,-83.17"/>
</g>
<!-- Node3 -->
<g id="node3" class="node">
<title>Node3</title>
<g id="a_node3"><a xlink:href="group__transforms__repeat.html#gad3a61508128c356ec1348225ec9b3ce0" target="_top" xlink:title="Repeat copies of child objects about a Cartesian grid.">
<polygon fill="white" stroke="black" points="159,-57.5 159,-76.5 231,-76.5 231,-57.5 159,-57.5"/>
<text text-anchor="middle" x="195" y="-64.5" font-family="Helvetica,sans-Serif" font-size="10.00">repeat_grid</text>
</a>
</g>
</g>
<!-- Node1&#45;&gt;Node3 -->
<g id="edge2" class="edge">
<title>Node1&#45;&gt;Node3</title>
<path fill="none" stroke="midnightblue" d="M265.77,-67C254.43,-67 242.15,-67 231.1,-67"/>
<polygon fill="midnightblue" stroke="midnightblue" points="265.87,-70.5 275.87,-67 265.87,-63.5 265.87,-70.5"/>
</g>
<!-- Node4 -->
<g id="node4" class="node">
<title>Node4</title>
<g id="a_node4"><a xlink:href="group__datatypes__table.html#ga8a4429649e8b06d9f492e1a0d2653656" target="_top" xlink:title="Perform basic format checks on a table and output errors to console.">
<polygon fill="white" stroke="black" points="157.5,-19.5 157.5,-38.5 232.5,-38.5 232.5,-19.5 157.5,-19.5"/>
<text text-anchor="middle" x="195" y="-26.5" font-family="Helvetica,sans-Serif" font-size="10.00">table_check</text>
</a>
</g>
</g>
<!-- Node1&#45;&gt;Node4 -->
<g id="edge3" class="edge">
<title>Node1&#45;&gt;Node4</title>
<path fill="none" stroke="midnightblue" d="M268.12,-54.03C253.53,-48.97 237.11,-43.27 223.62,-38.59"/>
<polygon fill="midnightblue" stroke="midnightblue" points="267.27,-57.44 277.87,-57.41 269.57,-50.83 267.27,-57.44"/>
</g>
<!-- Node5 -->
<g id="node5" class="node">
<title>Node5</title>
<g id="a_node5"><a xlink:href="group__datatypes__table.html#ga7a45ee72b36421f4e73cfba4488f14be" target="_top" xlink:title="Dump table getter functions to the console.">
<polygon fill="white" stroke="black" points="0,-38.5 0,-57.5 114,-57.5 114,-38.5 0,-38.5"/>
<text text-anchor="middle" x="57" y="-45.5" font-family="Helvetica,sans-Serif" font-size="10.00">table_dump_getters</text>
</a>
</g>
</g>
<!-- Node4&#45;&gt;Node5 -->
<g id="edge4" class="edge">
<title>Node4&#45;&gt;Node5</title>
<path fill="none" stroke="midnightblue" d="M147.22,-35.54C136.52,-37.03 125.05,-38.63 114.01,-40.18"/>
<polygon fill="midnightblue" stroke="midnightblue" points="147.78,-38.99 157.2,-34.14 146.81,-32.06 147.78,-38.99"/>
</g>
<!-- Node6 -->
<g id="node6" class="node">
<title>Node6</title>
<g id="a_node6"><a xlink:href="group__common__validation.html#ga19d0234700fba9de9fb0cba52a3d8e17" target="_top" xlink:title="Test data structure db and output the start of test to the test log.">
<polygon fill="white" stroke="black" points="0,-0.5 0,-19.5 114,-19.5 114,-0.5 0,-0.5"/>
<text text-anchor="middle" x="57" y="-7.5" font-family="Helvetica,sans-Serif" font-size="10.00">table_validate_start</text>
</a>
</g>
</g>
<!-- Node4&#45;&gt;Node6 -->
<g id="edge5" class="edge">
<title>Node4&#45;&gt;Node6</title>
<path fill="none" stroke="midnightblue" d="M147.22,-22.46C136.52,-20.97 125.05,-19.37 114.01,-17.82"/>
<polygon fill="midnightblue" stroke="midnightblue" points="146.81,-25.94 157.2,-23.86 147.78,-19.01 146.81,-25.94"/>
</g>
</g>
</svg>
