<?xml version="1.0" encoding="UTF-8" standalone="no"?>
<!DOCTYPE svg PUBLIC "-//W3C//DTD SVG 1.1//EN"
 "http://www.w3.org/Graphics/SVG/1.1/DTD/svg11.dtd">
<!-- Generated by graphviz version 2.43.0 (0)
 -->
<!-- Title: 2d Tools Pages: 1 -->
<svg width="313pt" height="75pt"
 viewBox="0.00 0.00 313.00 75.00" xmlns="http://www.w3.org/2000/svg" xmlns:xlink="http://www.w3.org/1999/xlink">
<g id="graph0" class="graph" transform="scale(1 1) rotate(0) translate(4 71)">
<title>2d Tools</title>
<polygon fill="white" stroke="transparent" points="-4,4 -4,-71 309,-71 309,4 -4,4"/>
<!-- Node3 -->
<g id="node1" class="node">
<title>Node3</title>
<g id="a_node1"><a xlink:href="group__tools__2d__turtle__path.html" target="_top" xlink:title="Turtle&#45;style step language to generate coordinate points for polygon construction....">
<polygon fill="white" stroke="black" points="299,-67 255,-67 255,-48 299,-48 299,-67"/>
<text text-anchor="middle" x="277" y="-55" font-family="Helvetica,sans-Serif" font-size="10.00">Turtle</text>
</a>
</g>
</g>
<!-- Node1 -->
<g id="node2" class="node">
<title>Node1</title>
<g id="a_node2"><a xlink:title="2d design tools and workflow utilities.">
<polygon fill="#bfbfbf" stroke="black" points="134,-52 78,-52 78,-33 134,-33 134,-52"/>
<text text-anchor="middle" x="106" y="-40" font-family="Helvetica,sans-Serif" font-size="10.00">2d Tools</text>
</a>
</g>
</g>
<!-- Node1&#45;&gt;Node3 -->
<g id="edge2" class="edge">
<title>Node1&#45;&gt;Node3</title>
<path fill="none" stroke="black" d="M144.31,-53.17C146.9,-53.68 149.48,-54.14 152,-54.5 187.81,-59.63 230.02,-59.32 254.81,-58.5"/>
<polygon fill="black" stroke="black" points="144.92,-49.72 134.39,-50.91 143.36,-56.54 144.92,-49.72"/>
</g>
<!-- Node1&#45;&gt;Node3 -->
<g id="edge4" class="edge">
<title>Node1&#45;&gt;Node3</title>
<path fill="none" stroke="darkgreen" stroke-dasharray="5,2" d="M134.32,-39.51C159.6,-37.39 198.12,-35.83 231,-41.5 239.01,-42.88 247.48,-45.55 254.89,-48.32"/>
<text text-anchor="middle" x="191.5" y="-44.5" font-family="Helvetica,sans-Serif" font-size="10.00">turtle_path.scad</text>
</g>
<!-- Node4 -->
<g id="node3" class="node">
<title>Node4</title>
<g id="a_node3"><a xlink:href="group__tools__2d__drafting.html" target="_top" xlink:title="Drafting and drawing tools for graphical design documentation.">
<polygon fill="white" stroke="black" points="305,-19 249,-19 249,0 305,0 305,-19"/>
<text text-anchor="middle" x="277" y="-7" font-family="Helvetica,sans-Serif" font-size="10.00">Drafting</text>
</a>
</g>
</g>
<!-- Node1&#45;&gt;Node4 -->
<g id="edge3" class="edge">
<title>Node1&#45;&gt;Node4</title>
<path fill="none" stroke="black" d="M144.34,-35.21C175.99,-29.03 220.61,-20.32 248.91,-14.79"/>
<polygon fill="black" stroke="black" points="143.3,-31.85 134.15,-37.2 144.64,-38.72 143.3,-31.85"/>
</g>
<!-- Node2 -->
<g id="node4" class="node">
<title>Node2</title>
<g id="a_node4"><a xlink:href="group__tools.html" target="_top" xlink:title="Design workflow tools and design utilities.">
<polygon fill="white" stroke="black" points="41,-52 0,-52 0,-33 41,-33 41,-52"/>
<text text-anchor="middle" x="20.5" y="-40" font-family="Helvetica,sans-Serif" font-size="10.00">Tools</text>
</a>
</g>
</g>
<!-- Node2&#45;&gt;Node1 -->
<g id="edge1" class="edge">
<title>Node2&#45;&gt;Node1</title>
<path fill="none" stroke="black" d="M51.33,-42.5C59.95,-42.5 69.32,-42.5 77.77,-42.5"/>
<polygon fill="black" stroke="black" points="51.29,-39 41.29,-42.5 51.29,-46 51.29,-39"/>
</g>
</g>
</svg>
