<?xml version="1.0" encoding="UTF-8" standalone="no"?>
<!DOCTYPE svg PUBLIC "-//W3C//DTD SVG 1.1//EN"
 "http://www.w3.org/Graphics/SVG/1.1/DTD/svg11.dtd">
<!-- Generated by graphviz version 2.43.0 (0)
 -->
<!-- Title: Models Pages: 1 -->
<svg width="163pt" height="64pt"
 viewBox="0.00 0.00 163.00 64.00" xmlns="http://www.w3.org/2000/svg" xmlns:xlink="http://www.w3.org/1999/xlink">
<g id="graph0" class="graph" transform="scale(1 1) rotate(0) translate(4 60)">
<title>Models</title>
<polygon fill="white" stroke="transparent" points="-4,4 -4,-60 159,-60 159,4 -4,4"/>
<!-- Node1 -->
<g id="node1" class="node">
<title>Node1</title>
<g id="a_node1"><a xlink:title="Black&#45;box models representing design components.">
<polygon fill="#bfbfbf" stroke="black" points="52,-37 0,-37 0,-18 52,-18 52,-37"/>
<text text-anchor="middle" x="26" y="-25" font-family="Helvetica,sans-Serif" font-size="10.00">Models</text>
</a>
</g>
</g>
<!-- Node3 -->
<g id="node2" class="node">
<title>Node3</title>
<g id="a_node2"><a xlink:href="group__models__3d.html" target="_top" xlink:title="3d black&#45;box models of design components.">
<polygon fill="white" stroke="black" points="155,-56 88,-56 88,-37 155,-37 155,-56"/>
<text text-anchor="middle" x="121.5" y="-44" font-family="Helvetica,sans-Serif" font-size="10.00">3d Models</text>
</a>
</g>
</g>
<!-- Node1&#45;&gt;Node3 -->
<g id="edge2" class="edge">
<title>Node1&#45;&gt;Node3</title>
<path fill="none" stroke="black" d="M62.06,-34.63C70.56,-36.35 79.6,-38.19 87.97,-39.89"/>
<polygon fill="black" stroke="black" points="62.55,-31.15 52.06,-32.59 61.16,-38.01 62.55,-31.15"/>
</g>
<!-- Node2 -->
<g id="node3" class="node">
<title>Node2</title>
<g id="a_node3"><a xlink:href="group__models__2d.html" target="_top" xlink:title="2d black&#45;box models of design components.">
<polygon fill="white" stroke="black" points="155,-19 88,-19 88,0 155,0 155,-19"/>
<text text-anchor="middle" x="121.5" y="-7" font-family="Helvetica,sans-Serif" font-size="10.00">2d Models</text>
</a>
</g>
</g>
<!-- Node1&#45;&gt;Node2 -->
<g id="edge1" class="edge">
<title>Node1&#45;&gt;Node2</title>
<path fill="none" stroke="black" d="M62.06,-20.75C70.56,-19.11 79.6,-17.37 87.97,-15.76"/>
<polygon fill="black" stroke="black" points="61.21,-17.35 52.06,-22.68 62.54,-24.22 61.21,-17.35"/>
</g>
</g>
</svg>
