<?xml version="1.0" encoding="UTF-8" standalone="no"?>
<!DOCTYPE svg PUBLIC "-//W3C//DTD SVG 1.1//EN"
 "http://www.w3.org/Graphics/SVG/1.1/DTD/svg11.dtd">
<!-- Generated by graphviz version 2.43.0 (0)
 -->
<!-- Title: angle Pages: 1 -->
<svg width="803pt" height="470pt"
 viewBox="0.00 0.00 803.00 470.10" xmlns="http://www.w3.org/2000/svg" xmlns:xlink="http://www.w3.org/1999/xlink">
<g id="graph0" class="graph" transform="scale(1 1) rotate(0) translate(4 466.1)">
<title>angle</title>
<polygon fill="white" stroke="transparent" points="-4,4 -4,-466.1 799,-466.1 799,4 -4,4"/>
<!-- Node1 -->
<g id="node1" class="node">
<title>Node1</title>
<g id="a_node1"><a xlink:title="Convert an angle value from one unit to another.">
<polygon fill="#bfbfbf" stroke="black" points="751,-296.15 751,-315.15 795,-315.15 795,-296.15 751,-296.15"/>
<text text-anchor="middle" x="773" y="-303.15" font-family="Helvetica,sans-Serif" font-size="10.00">angle</text>
</a>
</g>
</g>
<!-- Node2 -->
<g id="node2" class="node">
<title>Node2</title>
<g id="a_node2"><a xlink:href="group__parts__3d__motion__bearing__linear__rod.html#ga0064887f7c89f8915895c0243bec4a4c" target="_top" xlink:title="Transform 2d or 3d shape into a linear rod ball or sled bearing.">
<polygon fill="white" stroke="black" points="308.5,-420.15 308.5,-439.15 415.5,-439.15 415.5,-420.15 308.5,-420.15"/>
<text text-anchor="middle" x="362" y="-427.15" font-family="Helvetica,sans-Serif" font-size="10.00">bearing_linear_rod</text>
</a>
</g>
</g>
<!-- Node1&#45;&gt;Node2 -->
<g id="edge1" class="edge">
<title>Node1&#45;&gt;Node2</title>
<path fill="none" stroke="midnightblue" d="M767.12,-325.21C759.95,-349.86 744.12,-391.76 715,-414.65 619.78,-489.49 461.29,-457.53 394.35,-439.21"/>
<polygon fill="midnightblue" stroke="midnightblue" points="770.59,-325.79 769.83,-315.23 763.84,-323.96 770.59,-325.79"/>
</g>
<!-- Node3 -->
<g id="node3" class="node">
<title>Node3</title>
<g id="a_node3"><a xlink:href="group__shapes__common__3d.html#ga5075cfcc6967fb610e308f08da3fb059" target="_top" xlink:title="A cone.">
<polygon fill="white" stroke="black" points="504.5,-116.15 504.5,-135.15 544.5,-135.15 544.5,-116.15 504.5,-116.15"/>
<text text-anchor="middle" x="524.5" y="-123.15" font-family="Helvetica,sans-Serif" font-size="10.00">cone</text>
</a>
</g>
</g>
<!-- Node1&#45;&gt;Node3 -->
<g id="edge2" class="edge">
<title>Node1&#45;&gt;Node3</title>
<path fill="none" stroke="midnightblue" d="M764.73,-286.3C755.88,-265.02 739.05,-231.01 715,-209.65 662.93,-163.41 581.31,-139.08 544.56,-129.96"/>
<polygon fill="midnightblue" stroke="midnightblue" points="761.59,-287.88 768.54,-295.88 768.1,-285.29 761.59,-287.88"/>
</g>
<!-- Node9 -->
<g id="node9" class="node">
<title>Node9</title>
<g id="a_node9"><a xlink:href="group__models__3d__misc__omdl__logo.html#gab176f64dad7e83d4fb056be44b71f630" target="_top" xlink:title="Standard omdl logo.">
<polygon fill="white" stroke="black" points="328,-2.15 328,-21.15 396,-21.15 396,-2.15 328,-2.15"/>
<text text-anchor="middle" x="362" y="-9.15" font-family="Helvetica,sans-Serif" font-size="10.00">omdl_logo</text>
</a>
</g>
</g>
<!-- Node1&#45;&gt;Node9 -->
<g id="edge29" class="edge">
<title>Node1&#45;&gt;Node9</title>
<path fill="none" stroke="midnightblue" d="M768.33,-286.13C761.78,-255.1 745.76,-193.64 715,-150.65 669.39,-86.92 650.02,-70.54 578,-39.65 517.63,-13.76 439.67,-10.15 396.14,-10.48"/>
<polygon fill="midnightblue" stroke="midnightblue" points="764.93,-286.98 770.33,-296.09 771.8,-285.6 764.93,-286.98"/>
</g>
<!-- Node12 -->
<g id="node12" class="node">
<title>Node12</title>
<g id="a_node12"><a xlink:href="group__transforms__extrude.html#ga31947e37a3512d9814d47f8f8c960f84" target="_top" xlink:title="Translate, rotate, and revolve a 2d shape about the z&#45;axis.">
<polygon fill="white" stroke="black" points="614,-354.15 614,-373.15 715,-373.15 715,-354.15 614,-354.15"/>
<text text-anchor="middle" x="664.5" y="-361.15" font-family="Helvetica,sans-Serif" font-size="10.00">extrude_rotate_tr</text>
</a>
</g>
</g>
<!-- Node1&#45;&gt;Node12 -->
<g id="edge16" class="edge">
<title>Node1&#45;&gt;Node12</title>
<path fill="none" stroke="midnightblue" d="M745.44,-320.11C725.97,-330.72 700.08,-344.82 683.11,-354.06"/>
<polygon fill="midnightblue" stroke="midnightblue" points="747.31,-323.08 754.41,-315.23 743.96,-316.94 747.31,-323.08"/>
</g>
<!-- Node19 -->
<g id="node19" class="node">
<title>Node19</title>
<g id="a_node19"><a xlink:href="group__transforms__extrude.html#ga2cbff19d3b793918b99aae3b56d37dfa" target="_top" xlink:title="Translate, rotate, scale, and revolve a 2d shape about the z&#45;axis.">
<polygon fill="white" stroke="black" points="471,-420.15 471,-439.15 578,-439.15 578,-420.15 471,-420.15"/>
<text text-anchor="middle" x="524.5" y="-427.15" font-family="Helvetica,sans-Serif" font-size="10.00">extrude_rotate_trs</text>
</a>
</g>
</g>
<!-- Node1&#45;&gt;Node19 -->
<g id="edge28" class="edge">
<title>Node1&#45;&gt;Node19</title>
<path fill="none" stroke="midnightblue" d="M762.79,-324.73C753.27,-342.43 736.74,-368.14 715,-382.65 673.97,-410.02 618.37,-421.46 578.01,-426.24"/>
<polygon fill="midnightblue" stroke="midnightblue" points="766.14,-325.89 767.58,-315.39 759.91,-322.7 766.14,-325.89"/>
</g>
<!-- Node20 -->
<g id="node20" class="node">
<title>Node20</title>
<g id="a_node20"><a xlink:href="group__transforms__repeat.html#ga8da1e3a852a1b25ba93437a6fe46745f" target="_top" xlink:title="Radially repeat copies of child objects about a z&#45;axis radius.">
<polygon fill="white" stroke="black" points="624,-258.15 624,-277.15 705,-277.15 705,-258.15 624,-258.15"/>
<text text-anchor="middle" x="664.5" y="-265.15" font-family="Helvetica,sans-Serif" font-size="10.00">repeat_radial</text>
</a>
</g>
</g>
<!-- Node1&#45;&gt;Node20 -->
<g id="edge30" class="edge">
<title>Node1&#45;&gt;Node20</title>
<path fill="none" stroke="midnightblue" d="M741.28,-294.69C725.75,-289.15 707.09,-282.49 692.17,-277.17"/>
<polygon fill="midnightblue" stroke="midnightblue" points="740.36,-298.08 750.96,-298.14 742.72,-291.49 740.36,-298.08"/>
</g>
<!-- Node21 -->
<g id="node21" class="node">
<title>Node21</title>
<g id="a_node21"><a xlink:href="group__shapes__common__2d.html#ga0e810e30a9ec109e004677036012c428" target="_top" xlink:title="A two&#45;dimensional star.">
<polygon fill="white" stroke="black" points="501,-306.15 501,-325.15 548,-325.15 548,-306.15 501,-306.15"/>
<text text-anchor="middle" x="524.5" y="-313.15" font-family="Helvetica,sans-Serif" font-size="10.00">star2d</text>
</a>
</g>
</g>
<!-- Node1&#45;&gt;Node21 -->
<g id="edge40" class="edge">
<title>Node1&#45;&gt;Node21</title>
<path fill="none" stroke="midnightblue" d="M740.71,-306.92C690.35,-308.96 592.51,-312.93 548.24,-314.73"/>
<polygon fill="midnightblue" stroke="midnightblue" points="741.13,-310.4 750.98,-306.5 740.85,-303.41 741.13,-310.4"/>
</g>
<!-- Node24 -->
<g id="node24" class="node">
<title>Node24</title>
<g id="a_node24"><a xlink:href="group__shapes__common__3d.html#ga4ce7dbd0b00fa303b5a6fdb8c4c34ab2" target="_top" xlink:title="A three&#45;dimensional star.">
<polygon fill="white" stroke="black" points="501,-192.15 501,-211.15 548,-211.15 548,-192.15 501,-192.15"/>
<text text-anchor="middle" x="524.5" y="-199.15" font-family="Helvetica,sans-Serif" font-size="10.00">star3d</text>
</a>
</g>
</g>
<!-- Node1&#45;&gt;Node24 -->
<g id="edge41" class="edge">
<title>Node1&#45;&gt;Node24</title>
<path fill="none" stroke="midnightblue" d="M758.67,-287.89C748.17,-275.13 732.42,-258.49 715,-248.65 660.26,-217.72 585.35,-206.94 548.24,-203.34"/>
<polygon fill="midnightblue" stroke="midnightblue" points="756.12,-290.3 765.06,-295.98 761.61,-285.96 756.12,-290.3"/>
</g>
<!-- Node4 -->
<g id="node4" class="node">
<title>Node4</title>
<g id="a_node4"><a xlink:href="group__parts__3d__fastener__clamps.html#gad5d667c41776480785c62759c61a137e" target="_top" xlink:title="A clamp, bushing, and/or grip for wire, hose, and/or pipe wall penetrations.">
<polygon fill="white" stroke="black" points="159,-154.15 159,-173.15 222,-173.15 222,-154.15 159,-154.15"/>
<text text-anchor="middle" x="190.5" y="-161.15" font-family="Helvetica,sans-Serif" font-size="10.00">clamp_cg</text>
</a>
</g>
</g>
<!-- Node3&#45;&gt;Node4 -->
<g id="edge3" class="edge">
<title>Node3&#45;&gt;Node4</title>
<path fill="none" stroke="midnightblue" d="M494.21,-130.73C477,-133.6 454.8,-137.11 435,-139.65 358.74,-149.43 268.59,-157.38 222.32,-161.2"/>
<polygon fill="midnightblue" stroke="midnightblue" points="494.93,-134.15 504.21,-129.04 493.77,-127.25 494.93,-134.15"/>
</g>
<!-- Node5 -->
<g id="node5" class="node">
<title>Node5</title>
<g id="a_node5"><a xlink:href="group__parts__3d__computer__pcie__expansion.html#gab6fb1c9f8f6550633467f4ec0bd3f983" target="_top" xlink:title="Generate a PCI Express expansion open chassis or closed enclosure.">
<polygon fill="white" stroke="black" points="0,-192.15 0,-211.15 92,-211.15 92,-192.15 0,-192.15"/>
<text text-anchor="middle" x="46" y="-199.15" font-family="Helvetica,sans-Serif" font-size="10.00">pcie_expansion</text>
</a>
</g>
</g>
<!-- Node3&#45;&gt;Node5 -->
<g id="edge10" class="edge">
<title>Node3&#45;&gt;Node5</title>
<path fill="none" stroke="midnightblue" d="M494.09,-124.27C413.9,-120.94 193.04,-114.8 128,-144.65 106.86,-154.35 111.12,-169.4 92,-182.65 86.7,-186.32 80.58,-189.49 74.6,-192.12"/>
<polygon fill="midnightblue" stroke="midnightblue" points="494.3,-127.78 504.45,-124.72 494.61,-120.79 494.3,-127.78"/>
</g>
<!-- Node6 -->
<g id="node6" class="node">
<title>Node6</title>
<g id="a_node6"><a xlink:href="group__parts__3d__enclosure__power__strip.html#ga33509a1811b27fe7f3687957d4d32460" target="_top" xlink:title="A power strip generator for single gang electrical receptacles.">
<polygon fill="white" stroke="black" points="1,-154.15 1,-173.15 91,-173.15 91,-154.15 1,-154.15"/>
<text text-anchor="middle" x="46" y="-161.15" font-family="Helvetica,sans-Serif" font-size="10.00">power_strip_sg</text>
</a>
</g>
</g>
<!-- Node3&#45;&gt;Node6 -->
<g id="edge11" class="edge">
<title>Node3&#45;&gt;Node6</title>
<path fill="none" stroke="midnightblue" d="M494.69,-118.55C428.35,-103.5 260.36,-72.82 128,-111.65 99.78,-119.93 72.08,-141.4 57.52,-154.01"/>
<polygon fill="midnightblue" stroke="midnightblue" points="493.91,-121.96 504.44,-120.82 495.5,-115.15 493.91,-121.96"/>
</g>
<!-- Node7 -->
<g id="node7" class="node">
<title>Node7</title>
<g id="a_node7"><a xlink:href="group__parts__3d__fastener__hinges.html#ga7e350f2c55116094108b99dd8103fc04" target="_top" xlink:title="A print&#45;in&#45;place single&#45;fold hinge generator.">
<polygon fill="white" stroke="black" points="333,-40.15 333,-59.15 391,-59.15 391,-40.15 333,-40.15"/>
<text text-anchor="middle" x="362" y="-47.15" font-family="Helvetica,sans-Serif" font-size="10.00">hinge_sf</text>
</a>
</g>
</g>
<!-- Node3&#45;&gt;Node7 -->
<g id="edge6" class="edge">
<title>Node3&#45;&gt;Node7</title>
<path fill="none" stroke="midnightblue" d="M499.23,-110.61C477.65,-97.39 447.63,-79.39 435,-73.65 420.96,-67.27 404.72,-61.71 391.22,-57.55"/>
<polygon fill="midnightblue" stroke="midnightblue" points="497.53,-113.68 507.88,-115.94 501.2,-107.72 497.53,-113.68"/>
</g>
<!-- Node3&#45;&gt;Node9 -->
<g id="edge8" class="edge">
<title>Node3&#45;&gt;Node9</title>
<path fill="none" stroke="midnightblue" d="M495.48,-111.48C486.97,-106.31 478.03,-99.93 471,-92.65 448.87,-69.73 460.34,-49.97 435,-30.65 423.9,-22.18 409.35,-17.48 396.24,-14.87"/>
<polygon fill="midnightblue" stroke="midnightblue" points="494.01,-114.67 504.43,-116.58 497.48,-108.59 494.01,-114.67"/>
</g>
<!-- Node10 -->
<g id="node10" class="node">
<title>Node10</title>
<g id="a_node10"><a xlink:href="group__shapes__select__common__3d.html#ga3fd7f214eff2f5935ad1bb56415a4aaf" target="_top" xlink:title="Select configure and construct one of the available 3d shapes.">
<polygon fill="white" stroke="black" points="289,-192.15 289,-211.15 435,-211.15 435,-192.15 289,-192.15"/>
<text text-anchor="middle" x="362" y="-199.15" font-family="Helvetica,sans-Serif" font-size="10.00">select_common_3d_shape</text>
</a>
</g>
</g>
<!-- Node3&#45;&gt;Node10 -->
<g id="edge12" class="edge">
<title>Node3&#45;&gt;Node10</title>
<path fill="none" stroke="midnightblue" d="M500.89,-140.72C483.41,-151.93 458.35,-167.04 435,-177.65 422.76,-183.21 408.85,-188.15 396.53,-192.08"/>
<polygon fill="midnightblue" stroke="midnightblue" points="502.81,-143.65 509.28,-135.27 498.99,-137.78 502.81,-143.65"/>
</g>
<!-- Node4&#45;&gt;Node5 -->
<g id="edge4" class="edge">
<title>Node4&#45;&gt;Node5</title>
<path fill="none" stroke="midnightblue" d="M149.08,-174.43C128.21,-179.99 102.97,-186.73 82.8,-192.1"/>
<polygon fill="midnightblue" stroke="midnightblue" points="150.17,-177.76 158.93,-171.8 148.37,-171 150.17,-177.76"/>
</g>
<!-- Node4&#45;&gt;Node6 -->
<g id="edge5" class="edge">
<title>Node4&#45;&gt;Node6</title>
<path fill="none" stroke="midnightblue" d="M148.73,-163.65C130.69,-163.65 109.44,-163.65 91.04,-163.65"/>
<polygon fill="midnightblue" stroke="midnightblue" points="148.93,-167.15 158.93,-163.65 148.93,-160.15 148.93,-167.15"/>
</g>
<!-- Node8 -->
<g id="node8" class="node">
<title>Node8</title>
<g id="a_node8"><a xlink:href="group__parts__3d__fastener__hinges.html#ga1ffc82e0bbac466d1dc4fbe6c214b765" target="_top" xlink:title="A print&#45;in&#45;place bi&#45;fold hinge generator.">
<polygon fill="white" stroke="black" points="161,-40.15 161,-59.15 220,-59.15 220,-40.15 161,-40.15"/>
<text text-anchor="middle" x="190.5" y="-47.15" font-family="Helvetica,sans-Serif" font-size="10.00">hinge_bf</text>
</a>
</g>
</g>
<!-- Node7&#45;&gt;Node8 -->
<g id="edge7" class="edge">
<title>Node7&#45;&gt;Node8</title>
<path fill="none" stroke="midnightblue" d="M322.59,-49.65C291.5,-49.65 248.41,-49.65 220.25,-49.65"/>
<polygon fill="midnightblue" stroke="midnightblue" points="322.63,-53.15 332.63,-49.65 322.63,-46.15 322.63,-53.15"/>
</g>
<!-- Node9&#45;&gt;Node6 -->
<g id="edge9" class="edge">
<title>Node9&#45;&gt;Node6</title>
<path fill="none" stroke="midnightblue" d="M317.53,-4.11C267.83,2.15 185.89,5.05 128,-30.65 80.37,-60.02 56.81,-128.85 49.53,-154.13"/>
<polygon fill="midnightblue" stroke="midnightblue" points="317.25,-7.6 327.63,-5.48 318.19,-0.67 317.25,-7.6"/>
</g>
<!-- Node11 -->
<g id="node11" class="node">
<title>Node11</title>
<g id="a_node11"><a xlink:href="group__parts__3d__enclosure__project__box__rectangle.html#ga24cdfe5fd4bb74b75409d9afdbe1f0c0" target="_top" xlink:title="A rectangular box maker for project boxes, enclosures and housings.">
<polygon fill="white" stroke="black" points="128,-192.15 128,-211.15 253,-211.15 253,-192.15 128,-192.15"/>
<text text-anchor="middle" x="190.5" y="-199.15" font-family="Helvetica,sans-Serif" font-size="10.00">project_box_rectangle</text>
</a>
</g>
</g>
<!-- Node10&#45;&gt;Node11 -->
<g id="edge13" class="edge">
<title>Node10&#45;&gt;Node11</title>
<path fill="none" stroke="midnightblue" d="M278.62,-201.65C270.07,-201.65 261.49,-201.65 253.22,-201.65"/>
<polygon fill="midnightblue" stroke="midnightblue" points="278.63,-205.15 288.63,-201.65 278.63,-198.15 278.63,-205.15"/>
</g>
<!-- Node11&#45;&gt;Node5 -->
<g id="edge14" class="edge">
<title>Node11&#45;&gt;Node5</title>
<path fill="none" stroke="midnightblue" d="M117.61,-201.65C108.89,-201.65 100.19,-201.65 92.01,-201.65"/>
<polygon fill="midnightblue" stroke="midnightblue" points="117.83,-205.15 127.83,-201.65 117.83,-198.15 117.83,-205.15"/>
</g>
<!-- Node11&#45;&gt;Node6 -->
<g id="edge15" class="edge">
<title>Node11&#45;&gt;Node6</title>
<path fill="none" stroke="midnightblue" d="M143.85,-189.48C124.14,-184.22 101.43,-178.16 82.95,-173.24"/>
<polygon fill="midnightblue" stroke="midnightblue" points="142.98,-192.87 153.54,-192.06 144.78,-186.1 142.98,-192.87"/>
</g>
<!-- Node13 -->
<g id="node13" class="node">
<title>Node13</title>
<g id="a_node13"><a xlink:href="group__parts__3d__fastener__catch__latch.html#ga26a9933aa6d33599daab1be8d632c430" target="_top" xlink:title="A catch latch generator with configurable profile.">
<polygon fill="white" stroke="black" points="488.5,-382.15 488.5,-401.15 560.5,-401.15 560.5,-382.15 488.5,-382.15"/>
<text text-anchor="middle" x="524.5" y="-389.15" font-family="Helvetica,sans-Serif" font-size="10.00">catch_latch</text>
</a>
</g>
</g>
<!-- Node12&#45;&gt;Node13 -->
<g id="edge17" class="edge">
<title>Node12&#45;&gt;Node13</title>
<path fill="none" stroke="midnightblue" d="M606.36,-375.24C590.85,-378.39 574.52,-381.7 560.63,-384.52"/>
<polygon fill="midnightblue" stroke="midnightblue" points="607.29,-378.63 616.39,-373.21 605.9,-371.77 607.29,-378.63"/>
</g>
<!-- Node14 -->
<g id="node14" class="node">
<title>Node14</title>
<g id="a_node14"><a xlink:href="group__transforms__extrude.html#ga78405b5fa18461a302a2f24646499ece" target="_top" xlink:title="Translate, rotate, and revolve a 2d shape about the z&#45;axis with linear elongation.">
<polygon fill="white" stroke="black" points="310,-344.15 310,-363.15 414,-363.15 414,-344.15 310,-344.15"/>
<text text-anchor="middle" x="362" y="-351.15" font-family="Helvetica,sans-Serif" font-size="10.00">extrude_rotate_trl</text>
</a>
</g>
</g>
<!-- Node12&#45;&gt;Node14 -->
<g id="edge18" class="edge">
<title>Node12&#45;&gt;Node14</title>
<path fill="none" stroke="midnightblue" d="M603.85,-361.66C548.42,-359.82 466.74,-357.1 414.2,-355.35"/>
<polygon fill="midnightblue" stroke="midnightblue" points="603.77,-365.16 613.88,-362 604,-358.17 603.77,-365.16"/>
</g>
<!-- Node12&#45;&gt;Node19 -->
<g id="edge26" class="edge">
<title>Node12&#45;&gt;Node19</title>
<path fill="none" stroke="midnightblue" d="M639.15,-378.36C622.32,-388.2 599.22,-401.05 578,-410.65 570.49,-414.05 562.18,-417.28 554.43,-420.09"/>
<polygon fill="midnightblue" stroke="midnightblue" points="640.98,-381.35 647.81,-373.24 637.42,-375.32 640.98,-381.35"/>
</g>
<!-- Node14&#45;&gt;Node4 -->
<g id="edge19" class="edge">
<title>Node14&#45;&gt;Node4</title>
<path fill="none" stroke="midnightblue" d="M335.12,-338.7C319.74,-328.61 300.95,-313.99 289,-296.65 258.84,-252.9 290.69,-220.1 253,-182.65 244.76,-174.46 233.06,-169.79 222.08,-167.13"/>
<polygon fill="midnightblue" stroke="midnightblue" points="333.38,-341.74 343.71,-344.1 337.11,-335.82 333.38,-341.74"/>
</g>
<!-- Node14&#45;&gt;Node6 -->
<g id="edge22" class="edge">
<title>Node14&#45;&gt;Node6</title>
<path fill="none" stroke="midnightblue" d="M336.21,-338.82C314.73,-326.4 282.55,-308.81 253,-296.65 199.3,-274.55 171.97,-296.58 128,-258.65 99.7,-234.24 118.99,-208.51 92,-182.65 88.08,-178.9 83.31,-175.83 78.36,-173.34"/>
<polygon fill="midnightblue" stroke="midnightblue" points="334.6,-341.94 345,-343.96 338.13,-335.89 334.6,-341.94"/>
</g>
<!-- Node15 -->
<g id="node15" class="node">
<title>Node15</title>
<g id="a_node15"><a xlink:href="group__parts__3d__fastener__clamps.html#gac715fdab9961aff45be668fb23556835" target="_top" xlink:title="A one piece zip tie clamp to secure wires or provide strain relief.">
<polygon fill="white" stroke="black" points="151.5,-382.15 151.5,-401.15 229.5,-401.15 229.5,-382.15 151.5,-382.15"/>
<text text-anchor="middle" x="190.5" y="-389.15" font-family="Helvetica,sans-Serif" font-size="10.00">clamp_zt_1p</text>
</a>
</g>
</g>
<!-- Node14&#45;&gt;Node15 -->
<g id="edge20" class="edge">
<title>Node14&#45;&gt;Node15</title>
<path fill="none" stroke="midnightblue" d="M308.35,-365.45C282.88,-371.16 252.86,-377.89 229.63,-383.1"/>
<polygon fill="midnightblue" stroke="midnightblue" points="309.24,-368.84 318.23,-363.24 307.7,-362.01 309.24,-368.84"/>
</g>
<!-- Node16 -->
<g id="node16" class="node">
<title>Node16</title>
<g id="a_node16"><a xlink:href="group__shapes__revolved.html#ga58a3e713a904c96b69ddd8f87f7f3bb1" target="_top" xlink:title="An elliptical cross&#45;sectional profile revolved about the z&#45;axis.">
<polygon fill="white" stroke="black" points="143,-344.15 143,-363.15 238,-363.15 238,-344.15 143,-344.15"/>
<text text-anchor="middle" x="190.5" y="-351.15" font-family="Helvetica,sans-Serif" font-size="10.00">torus_ellipse_cs</text>
</a>
</g>
</g>
<!-- Node14&#45;&gt;Node16 -->
<g id="edge23" class="edge">
<title>Node14&#45;&gt;Node16</title>
<path fill="none" stroke="midnightblue" d="M299.58,-353.65C279.27,-353.65 257.03,-353.65 238.03,-353.65"/>
<polygon fill="midnightblue" stroke="midnightblue" points="299.68,-357.15 309.68,-353.65 299.68,-350.15 299.68,-357.15"/>
</g>
<!-- Node17 -->
<g id="node17" class="node">
<title>Node17</title>
<g id="a_node17"><a xlink:href="group__shapes__revolved.html#ga69b374bbebd7d87cfcd06b6bd3278404" target="_top" xlink:title="A trapezoidal cross&#45;sectional profile revolved about the z&#45;axis.">
<polygon fill="white" stroke="black" points="135.5,-306.15 135.5,-325.15 245.5,-325.15 245.5,-306.15 135.5,-306.15"/>
<text text-anchor="middle" x="190.5" y="-313.15" font-family="Helvetica,sans-Serif" font-size="10.00">torus_pg_trapezoid</text>
</a>
</g>
</g>
<!-- Node14&#45;&gt;Node17 -->
<g id="edge24" class="edge">
<title>Node14&#45;&gt;Node17</title>
<path fill="none" stroke="midnightblue" d="M308.26,-341.83C284.36,-336.47 256.48,-330.22 233.96,-325.17"/>
<polygon fill="midnightblue" stroke="midnightblue" points="307.7,-345.29 318.23,-344.06 309.24,-338.46 307.7,-345.29"/>
</g>
<!-- Node18 -->
<g id="node18" class="node">
<title>Node18</title>
<g id="a_node18"><a xlink:href="group__shapes__revolved.html#gad587c003585db775fd441468954b7c43" target="_top" xlink:title="A rectangular cross&#45;sectional profile revolved about the z&#45;axis.">
<polygon fill="white" stroke="black" points="139,-420.15 139,-439.15 242,-439.15 242,-420.15 139,-420.15"/>
<text text-anchor="middle" x="190.5" y="-427.15" font-family="Helvetica,sans-Serif" font-size="10.00">torus_rectangle_c</text>
</a>
</g>
</g>
<!-- Node14&#45;&gt;Node18 -->
<g id="edge25" class="edge">
<title>Node14&#45;&gt;Node18</title>
<path fill="none" stroke="midnightblue" d="M336.2,-368.44C314.71,-380.84 282.52,-398.42 253,-410.65 244.53,-414.16 235.18,-417.37 226.38,-420.11"/>
<polygon fill="midnightblue" stroke="midnightblue" points="338.12,-371.38 344.99,-363.31 334.59,-365.33 338.12,-371.38"/>
</g>
<!-- Node15&#45;&gt;Node5 -->
<g id="edge21" class="edge">
<title>Node15&#45;&gt;Node5</title>
<path fill="none" stroke="midnightblue" d="M141.56,-381.29C136.66,-378.97 132.01,-376.13 128,-372.65 75.62,-327.26 54.56,-240.53 48.77,-211.44"/>
<polygon fill="midnightblue" stroke="midnightblue" points="140.62,-384.68 151.2,-385.15 143.22,-378.18 140.62,-384.68"/>
</g>
<!-- Node19&#45;&gt;Node2 -->
<g id="edge27" class="edge">
<title>Node19&#45;&gt;Node2</title>
<path fill="none" stroke="midnightblue" d="M460.78,-429.65C445.86,-429.65 430.09,-429.65 415.67,-429.65"/>
<polygon fill="midnightblue" stroke="midnightblue" points="460.95,-433.15 470.95,-429.65 460.95,-426.15 460.95,-433.15"/>
</g>
<!-- Node20&#45;&gt;Node2 -->
<g id="edge31" class="edge">
<title>Node20&#45;&gt;Node2</title>
<path fill="none" stroke="midnightblue" d="M613.63,-262.92C571.61,-261.59 511.98,-266.21 471,-296.65 441,-318.94 458.26,-343.39 435,-372.65 419.12,-392.62 394.97,-409.89 379.08,-420.04"/>
<polygon fill="midnightblue" stroke="midnightblue" points="613.49,-266.42 623.64,-263.36 613.8,-259.43 613.49,-266.42"/>
</g>
<!-- Node20&#45;&gt;Node4 -->
<g id="edge32" class="edge">
<title>Node20&#45;&gt;Node4</title>
<path fill="none" stroke="midnightblue" d="M613.88,-262.32C515.37,-251.61 303.33,-227.9 289,-220.65 268.24,-210.14 272.76,-194.93 253,-182.65 243.7,-176.87 232.51,-172.73 222.23,-169.82"/>
<polygon fill="midnightblue" stroke="midnightblue" points="613.58,-265.81 623.9,-263.41 614.33,-258.85 613.58,-265.81"/>
</g>
<!-- Node20&#45;&gt;Node9 -->
<g id="edge33" class="edge">
<title>Node20&#45;&gt;Node9</title>
<path fill="none" stroke="midnightblue" d="M657.47,-248.39C646.39,-215.67 620.01,-148.68 578,-106.65 526.5,-55.13 442.29,-29.27 396.02,-18.33"/>
<polygon fill="midnightblue" stroke="midnightblue" points="654.21,-249.67 660.64,-258.09 660.86,-247.5 654.21,-249.67"/>
</g>
<!-- Node20&#45;&gt;Node21 -->
<g id="edge34" class="edge">
<title>Node20&#45;&gt;Node21</title>
<path fill="none" stroke="midnightblue" d="M626.37,-280.56C601.38,-289.26 569.24,-300.44 548.03,-307.81"/>
<polygon fill="midnightblue" stroke="midnightblue" points="627.61,-283.84 635.91,-277.25 625.31,-277.23 627.61,-283.84"/>
</g>
<!-- Node20&#45;&gt;Node24 -->
<g id="edge38" class="edge">
<title>Node20&#45;&gt;Node24</title>
<path fill="none" stroke="midnightblue" d="M635.06,-253.43C618.47,-245.2 597.11,-234.71 578,-225.65 567.77,-220.8 556.34,-215.55 546.76,-211.21"/>
<polygon fill="midnightblue" stroke="midnightblue" points="633.71,-256.67 644.22,-257.99 636.82,-250.4 633.71,-256.67"/>
</g>
<!-- Node22 -->
<g id="node22" class="node">
<title>Node22</title>
<g id="a_node22"><a xlink:href="group__shapes__select__common__2d.html#gadde46fda315aab438eda3f752fec2aed" target="_top" xlink:title="Select configure and construct one of the available 2d shapes.">
<polygon fill="white" stroke="black" points="289,-268.15 289,-287.15 435,-287.15 435,-268.15 289,-268.15"/>
<text text-anchor="middle" x="362" y="-275.15" font-family="Helvetica,sans-Serif" font-size="10.00">select_common_2d_shape</text>
</a>
</g>
</g>
<!-- Node21&#45;&gt;Node22 -->
<g id="edge35" class="edge">
<title>Node21&#45;&gt;Node22</title>
<path fill="none" stroke="midnightblue" d="M490.98,-307.95C465.64,-301.95 430.31,-293.59 403.19,-287.16"/>
<polygon fill="midnightblue" stroke="midnightblue" points="490.31,-311.39 500.84,-310.29 491.92,-304.58 490.31,-311.39"/>
</g>
<!-- Node22&#45;&gt;Node11 -->
<g id="edge37" class="edge">
<title>Node22&#45;&gt;Node11</title>
<path fill="none" stroke="midnightblue" d="M312.78,-264.71C304.58,-261.64 296.35,-257.97 289,-253.65 270.29,-242.64 271.83,-231.45 253,-220.65 246.41,-216.87 238.98,-213.76 231.62,-211.22"/>
<polygon fill="midnightblue" stroke="midnightblue" points="311.74,-268.06 322.33,-268.05 314.04,-261.45 311.74,-268.06"/>
</g>
<!-- Node23 -->
<g id="node23" class="node">
<title>Node23</title>
<g id="a_node23"><a xlink:href="group__parts__2d__enclosure__box__finger__joint.html#gacc1bfb220bc3cfed46dcaa3b84898020" target="_top" xlink:title="Generate a 2D box design using screw&#45;based finger joint (box&#45;joint).">
<polygon fill="white" stroke="black" points="137,-230.15 137,-249.15 244,-249.15 244,-230.15 137,-230.15"/>
<text text-anchor="middle" x="190.5" y="-237.15" font-family="Helvetica,sans-Serif" font-size="10.00">box2d_finger_joint</text>
</a>
</g>
</g>
<!-- Node22&#45;&gt;Node23 -->
<g id="edge36" class="edge">
<title>Node22&#45;&gt;Node23</title>
<path fill="none" stroke="midnightblue" d="M308.26,-265.83C284.36,-260.47 256.48,-254.22 233.96,-249.17"/>
<polygon fill="midnightblue" stroke="midnightblue" points="307.7,-269.29 318.23,-268.06 309.24,-262.46 307.7,-269.29"/>
</g>
<!-- Node24&#45;&gt;Node10 -->
<g id="edge39" class="edge">
<title>Node24&#45;&gt;Node10</title>
<path fill="none" stroke="midnightblue" d="M490.44,-201.65C474.44,-201.65 454.55,-201.65 435.28,-201.65"/>
<polygon fill="midnightblue" stroke="midnightblue" points="490.84,-205.15 500.84,-201.65 490.84,-198.15 490.84,-205.15"/>
</g>
</g>
</svg>
