<?xml version="1.0" encoding="UTF-8" standalone="no"?>
<!DOCTYPE svg PUBLIC "-//W3C//DTD SVG 1.1//EN"
 "http://www.w3.org/Graphics/SVG/1.1/DTD/svg11.dtd">
<!-- Generated by graphviz version 2.43.0 (0)
 -->
<!-- Title: Euclidean Pages: 1 -->
<svg width="225pt" height="35pt"
 viewBox="0.00 0.00 225.00 35.41" xmlns="http://www.w3.org/2000/svg" xmlns:xlink="http://www.w3.org/1999/xlink">
<g id="graph0" class="graph" transform="scale(1 1) rotate(0) translate(4 31.41)">
<title>Euclidean</title>
<polygon fill="white" stroke="transparent" points="-4,4 -4,-31.41 221,-31.41 221,4 -4,4"/>
<!-- Node2 -->
<g id="node1" class="node">
<title>Node2</title>
<g id="a_node1"><a xlink:href="group__datatypes.html" target="_top" xlink:title="Data type identification and operations.">
<polygon fill="white" stroke="black" points="44,-27.41 0,-27.41 0,-8.41 44,-8.41 44,-27.41"/>
<text text-anchor="middle" x="22" y="-15.41" font-family="Helvetica,sans-Serif" font-size="10.00">Types</text>
</a>
</g>
</g>
<!-- Node1 -->
<g id="node2" class="node">
<title>Node1</title>
<g id="a_node2"><a xlink:title="Tests and operations for Euclidean 3d space.">
<polygon fill="#bfbfbf" stroke="black" points="217,-27.41 153,-27.41 153,-8.41 217,-8.41 217,-27.41"/>
<text text-anchor="middle" x="185" y="-15.41" font-family="Helvetica,sans-Serif" font-size="10.00">Euclidean</text>
</a>
</g>
</g>
<!-- Node2&#45;&gt;Node1 -->
<g id="edge1" class="edge">
<title>Node2&#45;&gt;Node1</title>
<path fill="none" stroke="black" d="M54.22,-17.91C82.62,-17.91 124.3,-17.91 152.72,-17.91"/>
<polygon fill="black" stroke="black" points="54.05,-14.41 44.05,-17.91 54.05,-21.41 54.05,-14.41"/>
</g>
<!-- Node1&#45;&gt;Node2 -->
<g id="edge2" class="edge">
<title>Node1&#45;&gt;Node2</title>
<path fill="none" stroke="darkgreen" stroke-dasharray="5,2" d="M155.79,-8.4C149.05,-6.54 141.83,-4.86 135,-3.91 102.87,0.59 93.96,1.66 62,-3.91 56.05,-4.94 49.8,-6.81 44.1,-8.84"/>
<text text-anchor="middle" x="98.5" y="-6.91" font-family="Helvetica,sans-Serif" font-size="10.00">euclidean.scad</text>
</g>
</g>
</svg>
