<?xml version="1.0" encoding="UTF-8" standalone="no"?>
<!DOCTYPE svg PUBLIC "-//W3C//DTD SVG 1.1//EN"
 "http://www.w3.org/Graphics/SVG/1.1/DTD/svg11.dtd">
<!-- Generated by graphviz version 2.43.0 (0)
 -->
<!-- Title: Tables Pages: 1 -->
<svg width="186pt" height="34pt"
 viewBox="0.00 0.00 186.00 34.38" xmlns="http://www.w3.org/2000/svg" xmlns:xlink="http://www.w3.org/1999/xlink">
<g id="graph0" class="graph" transform="scale(1 1) rotate(0) translate(4 30.38)">
<title>Tables</title>
<polygon fill="white" stroke="transparent" points="-4,4 -4,-30.38 182,-30.38 182,4 -4,4"/>
<!-- Node2 -->
<g id="node1" class="node">
<title>Node2</title>
<g id="a_node1"><a xlink:href="group__datatypes.html" target="_top" xlink:title="Data type identification and operations.">
<polygon fill="white" stroke="black" points="44,-26.38 0,-26.38 0,-7.38 44,-7.38 44,-26.38"/>
<text text-anchor="middle" x="22" y="-14.38" font-family="Helvetica,sans-Serif" font-size="10.00">Types</text>
</a>
</g>
</g>
<!-- Node1 -->
<g id="node2" class="node">
<title>Node1</title>
<g id="a_node2"><a xlink:title="Table data type and operations.">
<polygon fill="#bfbfbf" stroke="black" points="178,-26.38 131,-26.38 131,-7.38 178,-7.38 178,-26.38"/>
<text text-anchor="middle" x="154.5" y="-14.38" font-family="Helvetica,sans-Serif" font-size="10.00">Tables</text>
</a>
</g>
</g>
<!-- Node2&#45;&gt;Node1 -->
<g id="edge1" class="edge">
<title>Node2&#45;&gt;Node1</title>
<path fill="none" stroke="black" d="M54.46,-16.88C78.07,-16.88 109.82,-16.88 130.94,-16.88"/>
<polygon fill="black" stroke="black" points="54.26,-13.38 44.26,-16.88 54.26,-20.38 54.26,-13.38"/>
</g>
<!-- Node1&#45;&gt;Node2 -->
<g id="edge2" class="edge">
<title>Node1&#45;&gt;Node2</title>
<path fill="none" stroke="darkgreen" stroke-dasharray="5,2" d="M130.72,-7.53C125.03,-5.6 118.87,-3.87 113,-2.88 90.65,0.87 84.33,1 62,-2.88 56.05,-3.92 49.8,-5.78 44.1,-7.82"/>
<text text-anchor="middle" x="87.5" y="-5.88" font-family="Helvetica,sans-Serif" font-size="10.00">table.scad</text>
</g>
</g>
</svg>
