<?xml version="1.0" encoding="UTF-8" standalone="no"?>
<!DOCTYPE svg PUBLIC "-//W3C//DTD SVG 1.1//EN"
 "http://www.w3.org/Graphics/SVG/1.1/DTD/svg11.dtd">
<!-- Generated by graphviz version 2.43.0 (0)
 -->
<!-- Title: orient_ll Pages: 1 -->
<svg width="180pt" height="104pt"
 viewBox="0.00 0.00 180.00 104.00" xmlns="http://www.w3.org/2000/svg" xmlns:xlink="http://www.w3.org/1999/xlink">
<g id="graph0" class="graph" transform="scale(1 1) rotate(0) translate(4 100)">
<title>orient_ll</title>
<polygon fill="white" stroke="transparent" points="-4,4 -4,-100 176,-100 176,4 -4,4"/>
<!-- Node1 -->
<g id="node1" class="node">
<title>Node1</title>
<g id="a_node1"><a xlink:title="Orient a line or vector to a reference line or vector.">
<polygon fill="#bfbfbf" stroke="black" points="0,-38.5 0,-57.5 56,-57.5 56,-38.5 0,-38.5"/>
<text text-anchor="middle" x="28" y="-45.5" font-family="Helvetica,sans-Serif" font-size="10.00">orient_ll</text>
</a>
</g>
</g>
<!-- Node2 -->
<g id="node2" class="node">
<title>Node2</title>
<g id="a_node2"><a xlink:href="group__datatypes__euclidean.html#ga3d5c07c70f271bcf9144f50ce8620a89" target="_top" xlink:title="Compute the angle between two lines or vectors in a 3d or 2d&#45;space.">
<polygon fill="white" stroke="black" points="104.5,-76.5 104.5,-95.5 159.5,-95.5 159.5,-76.5 104.5,-76.5"/>
<text text-anchor="middle" x="132" y="-83.5" font-family="Helvetica,sans-Serif" font-size="10.00">angle_ll</text>
</a>
</g>
</g>
<!-- Node1&#45;&gt;Node2 -->
<g id="edge1" class="edge">
<title>Node1&#45;&gt;Node2</title>
<path fill="none" stroke="midnightblue" d="M54.74,-57.59C67.18,-62.22 82.31,-67.86 95.8,-72.89"/>
<polygon fill="midnightblue" stroke="midnightblue" points="94.68,-76.2 105.27,-76.41 97.12,-69.64 94.68,-76.2"/>
</g>
<!-- Node3 -->
<g id="node3" class="node">
<title>Node3</title>
<g id="a_node3"><a xlink:href="group__datatypes__euclidean.html#ga78d67c74076bef2e80a95b1e9b6eb2d7" target="_top" xlink:title="Return 3d point unchanged or add a zeroed third dimension to 2d point.">
<polygon fill="white" stroke="black" points="95,-38.5 95,-57.5 169,-57.5 169,-38.5 95,-38.5"/>
<text text-anchor="middle" x="132" y="-45.5" font-family="Helvetica,sans-Serif" font-size="10.00">point_to_3d</text>
</a>
</g>
</g>
<!-- Node1&#45;&gt;Node3 -->
<g id="edge2" class="edge">
<title>Node1&#45;&gt;Node3</title>
<path fill="none" stroke="midnightblue" d="M56.07,-48C64.91,-48 75.01,-48 84.85,-48"/>
<polygon fill="midnightblue" stroke="midnightblue" points="84.97,-51.5 94.97,-48 84.97,-44.5 84.97,-51.5"/>
</g>
<!-- Node4 -->
<g id="node4" class="node">
<title>Node4</title>
<g id="a_node4"><a xlink:href="group__datatypes__euclidean.html#ga6ef2a81f304d31b9ec9753ca4875ad45" target="_top" xlink:title="Convert line to vector by shifting it to the origin.">
<polygon fill="white" stroke="black" points="92,-0.5 92,-19.5 172,-19.5 172,-0.5 92,-0.5"/>
<text text-anchor="middle" x="132" y="-7.5" font-family="Helvetica,sans-Serif" font-size="10.00">vol_to_origin</text>
</a>
</g>
</g>
<!-- Node1&#45;&gt;Node4 -->
<g id="edge3" class="edge">
<title>Node1&#45;&gt;Node4</title>
<path fill="none" stroke="midnightblue" d="M54.74,-38.41C67.18,-33.78 82.31,-28.14 95.8,-23.11"/>
<polygon fill="midnightblue" stroke="midnightblue" points="97.12,-26.36 105.27,-19.59 94.68,-19.8 97.12,-26.36"/>
</g>
</g>
</svg>
