<?xml version="1.0" encoding="UTF-8" standalone="no"?>
<!DOCTYPE svg PUBLIC "-//W3C//DTD SVG 1.1//EN"
 "http://www.w3.org/Graphics/SVG/1.1/DTD/svg11.dtd">
<!-- Generated by graphviz version 2.43.0 (0)
 -->
<!-- Title: polygon_regular_p Pages: 1 -->
<svg width="846pt" height="256pt"
 viewBox="0.00 0.00 846.00 256.00" xmlns="http://www.w3.org/2000/svg" xmlns:xlink="http://www.w3.org/1999/xlink">
<g id="graph0" class="graph" transform="scale(1 1) rotate(0) translate(4 252)">
<title>polygon_regular_p</title>
<polygon fill="white" stroke="transparent" points="-4,4 -4,-252 842,-252 842,4 -4,4"/>
<!-- Node1 -->
<g id="node1" class="node">
<title>Node1</title>
<g id="a_node1"><a xlink:title="Compute coordinates for an n&#45;sided regular polygon in 2D.">
<polygon fill="#bfbfbf" stroke="black" points="731,-190.5 731,-209.5 838,-209.5 838,-190.5 731,-190.5"/>
<text text-anchor="middle" x="784.5" y="-197.5" font-family="Helvetica,sans-Serif" font-size="10.00">polygon_regular_p</text>
</a>
</g>
</g>
<!-- Node2 -->
<g id="node2" class="node">
<title>Node2</title>
<g id="a_node2"><a xlink:href="group__shapes__common__2d.html#gacadcce23cf1a0bd2ce3b2bafb9667187" target="_top" xlink:title="An n&#45;sided equiangular/equilateral regular polygon.">
<polygon fill="white" stroke="black" points="634,-228.5 634,-247.5 675,-247.5 675,-228.5 634,-228.5"/>
<text text-anchor="middle" x="654.5" y="-235.5" font-family="Helvetica,sans-Serif" font-size="10.00">ngon</text>
</a>
</g>
</g>
<!-- Node1&#45;&gt;Node2 -->
<g id="edge1" class="edge">
<title>Node1&#45;&gt;Node2</title>
<path fill="none" stroke="midnightblue" d="M741.57,-212.45C719.16,-219.1 692.65,-226.97 675.03,-232.2"/>
<polygon fill="midnightblue" stroke="midnightblue" points="742.61,-215.79 751.2,-209.59 740.62,-209.08 742.61,-215.79"/>
</g>
<!-- Node4 -->
<g id="node4" class="node">
<title>Node4</title>
<g id="a_node4"><a xlink:href="group__shapes__polygon.html#ga3587861a50ac45aeabace1df584094d1" target="_top" xlink:title="A n&#45;sided regular polygon with vertex rounding.">
<polygon fill="white" stroke="black" points="625.5,-190.5 625.5,-209.5 683.5,-209.5 683.5,-190.5 625.5,-190.5"/>
<text text-anchor="middle" x="654.5" y="-197.5" font-family="Helvetica,sans-Serif" font-size="10.00">pg_ngon</text>
</a>
</g>
</g>
<!-- Node1&#45;&gt;Node4 -->
<g id="edge3" class="edge">
<title>Node1&#45;&gt;Node4</title>
<path fill="none" stroke="midnightblue" d="M720.41,-200C707.52,-200 694.58,-200 683.68,-200"/>
<polygon fill="midnightblue" stroke="midnightblue" points="720.7,-203.5 730.7,-200 720.7,-196.5 720.7,-203.5"/>
</g>
<!-- Node10 -->
<g id="node10" class="node">
<title>Node10</title>
<g id="a_node10"><a xlink:href="group__transforms__repeat.html#ga8da1e3a852a1b25ba93437a6fe46745f" target="_top" xlink:title="Radially repeat copies of child objects about a z&#45;axis radius.">
<polygon fill="white" stroke="black" points="614,-95.5 614,-114.5 695,-114.5 695,-95.5 614,-95.5"/>
<text text-anchor="middle" x="654.5" y="-102.5" font-family="Helvetica,sans-Serif" font-size="10.00">repeat_radial</text>
</a>
</g>
</g>
<!-- Node1&#45;&gt;Node10 -->
<g id="edge9" class="edge">
<title>Node1&#45;&gt;Node10</title>
<path fill="none" stroke="midnightblue" d="M761.96,-184.01C735.21,-164.16 690.42,-130.92 668.45,-114.61"/>
<polygon fill="midnightblue" stroke="midnightblue" points="760.17,-187.04 770.28,-190.19 764.34,-181.42 760.17,-187.04"/>
</g>
<!-- Node3 -->
<g id="node3" class="node">
<title>Node3</title>
<g id="a_node3"><a xlink:href="group__parts__3d__computer__pci__bracket.html#gaf56631cf80d8e5f0b77736b17b94ecd9" target="_top" xlink:title="PCI slot cover and adapter card bracket generator.">
<polygon fill="white" stroke="black" points="488.5,-228.5 488.5,-247.5 560.5,-247.5 560.5,-228.5 488.5,-228.5"/>
<text text-anchor="middle" x="524.5" y="-235.5" font-family="Helvetica,sans-Serif" font-size="10.00">pci_bracket</text>
</a>
</g>
</g>
<!-- Node2&#45;&gt;Node3 -->
<g id="edge2" class="edge">
<title>Node2&#45;&gt;Node3</title>
<path fill="none" stroke="midnightblue" d="M623.7,-238C604.88,-238 580.49,-238 560.72,-238"/>
<polygon fill="midnightblue" stroke="midnightblue" points="623.78,-241.5 633.78,-238 623.78,-234.5 623.78,-241.5"/>
</g>
<!-- Node5 -->
<g id="node5" class="node">
<title>Node5</title>
<g id="a_node5"><a xlink:href="group__shapes__select__common__2d.html#gadde46fda315aab438eda3f752fec2aed" target="_top" xlink:title="Select configure and construct one of the available 2d shapes.">
<polygon fill="white" stroke="black" points="289,-152.5 289,-171.5 435,-171.5 435,-152.5 289,-152.5"/>
<text text-anchor="middle" x="362" y="-159.5" font-family="Helvetica,sans-Serif" font-size="10.00">select_common_2d_shape</text>
</a>
</g>
</g>
<!-- Node4&#45;&gt;Node5 -->
<g id="edge4" class="edge">
<title>Node4&#45;&gt;Node5</title>
<path fill="none" stroke="midnightblue" d="M614.95,-196.78C577.95,-193.5 520.53,-187.93 471,-181 451.96,-178.34 431.13,-174.82 412.89,-171.53"/>
<polygon fill="midnightblue" stroke="midnightblue" points="615.02,-200.3 625.29,-197.68 615.63,-193.33 615.02,-200.3"/>
</g>
<!-- Node6 -->
<g id="node6" class="node">
<title>Node6</title>
<g id="a_node6"><a xlink:href="group__parts__2d__enclosure__box__finger__joint.html#gacc1bfb220bc3cfed46dcaa3b84898020" target="_top" xlink:title="Generate a 2D box design using screw&#45;based finger joint (box&#45;joint).">
<polygon fill="white" stroke="black" points="137,-152.5 137,-171.5 244,-171.5 244,-152.5 137,-152.5"/>
<text text-anchor="middle" x="190.5" y="-159.5" font-family="Helvetica,sans-Serif" font-size="10.00">box2d_finger_joint</text>
</a>
</g>
</g>
<!-- Node5&#45;&gt;Node6 -->
<g id="edge5" class="edge">
<title>Node5&#45;&gt;Node6</title>
<path fill="none" stroke="midnightblue" d="M278.41,-162C266.75,-162 255.04,-162 244.15,-162"/>
<polygon fill="midnightblue" stroke="midnightblue" points="278.63,-165.5 288.63,-162 278.63,-158.5 278.63,-165.5"/>
</g>
<!-- Node7 -->
<g id="node7" class="node">
<title>Node7</title>
<g id="a_node7"><a xlink:href="group__parts__3d__enclosure__project__box__rectangle.html#ga24cdfe5fd4bb74b75409d9afdbe1f0c0" target="_top" xlink:title="A rectangular box maker for project boxes, enclosures and housings.">
<polygon fill="white" stroke="black" points="128,-114.5 128,-133.5 253,-133.5 253,-114.5 128,-114.5"/>
<text text-anchor="middle" x="190.5" y="-121.5" font-family="Helvetica,sans-Serif" font-size="10.00">project_box_rectangle</text>
</a>
</g>
</g>
<!-- Node5&#45;&gt;Node7 -->
<g id="edge6" class="edge">
<title>Node5&#45;&gt;Node7</title>
<path fill="none" stroke="midnightblue" d="M308.26,-150.18C284.36,-144.82 256.48,-138.57 233.96,-133.52"/>
<polygon fill="midnightblue" stroke="midnightblue" points="307.7,-153.64 318.23,-152.41 309.24,-146.81 307.7,-153.64"/>
</g>
<!-- Node8 -->
<g id="node8" class="node">
<title>Node8</title>
<g id="a_node8"><a xlink:href="group__parts__3d__computer__pcie__expansion.html#gab6fb1c9f8f6550633467f4ec0bd3f983" target="_top" xlink:title="Generate a PCI Express expansion open chassis or closed enclosure.">
<polygon fill="white" stroke="black" points="0,-114.5 0,-133.5 92,-133.5 92,-114.5 0,-114.5"/>
<text text-anchor="middle" x="46" y="-121.5" font-family="Helvetica,sans-Serif" font-size="10.00">pcie_expansion</text>
</a>
</g>
</g>
<!-- Node7&#45;&gt;Node8 -->
<g id="edge7" class="edge">
<title>Node7&#45;&gt;Node8</title>
<path fill="none" stroke="midnightblue" d="M117.61,-124C108.89,-124 100.19,-124 92.01,-124"/>
<polygon fill="midnightblue" stroke="midnightblue" points="117.83,-127.5 127.83,-124 117.83,-120.5 117.83,-127.5"/>
</g>
<!-- Node9 -->
<g id="node9" class="node">
<title>Node9</title>
<g id="a_node9"><a xlink:href="group__parts__3d__enclosure__power__strip.html#ga33509a1811b27fe7f3687957d4d32460" target="_top" xlink:title="A power strip generator for single gang electrical receptacles.">
<polygon fill="white" stroke="black" points="1,-76.5 1,-95.5 91,-95.5 91,-76.5 1,-76.5"/>
<text text-anchor="middle" x="46" y="-83.5" font-family="Helvetica,sans-Serif" font-size="10.00">power_strip_sg</text>
</a>
</g>
</g>
<!-- Node7&#45;&gt;Node9 -->
<g id="edge8" class="edge">
<title>Node7&#45;&gt;Node9</title>
<path fill="none" stroke="midnightblue" d="M143.85,-111.83C124.14,-106.57 101.43,-100.51 82.95,-95.59"/>
<polygon fill="midnightblue" stroke="midnightblue" points="142.98,-115.22 153.54,-114.41 144.78,-108.45 142.98,-115.22"/>
</g>
<!-- Node11 -->
<g id="node11" class="node">
<title>Node11</title>
<g id="a_node11"><a xlink:href="group__parts__3d__motion__bearing__linear__rod.html#ga0064887f7c89f8915895c0243bec4a4c" target="_top" xlink:title="Transform 2d or 3d shape into a linear rod ball or sled bearing.">
<polygon fill="white" stroke="black" points="471,-0.5 471,-19.5 578,-19.5 578,-0.5 471,-0.5"/>
<text text-anchor="middle" x="524.5" y="-7.5" font-family="Helvetica,sans-Serif" font-size="10.00">bearing_linear_rod</text>
</a>
</g>
</g>
<!-- Node10&#45;&gt;Node11 -->
<g id="edge10" class="edge">
<title>Node10&#45;&gt;Node11</title>
<path fill="none" stroke="midnightblue" d="M637.92,-87.4C623.52,-71.88 600.93,-49.41 578,-34 569.6,-28.35 559.65,-23.43 550.69,-19.53"/>
<polygon fill="midnightblue" stroke="midnightblue" points="635.72,-90.17 645.03,-95.21 640.89,-85.46 635.72,-90.17"/>
</g>
<!-- Node12 -->
<g id="node12" class="node">
<title>Node12</title>
<g id="a_node12"><a xlink:href="group__parts__3d__fastener__clamps.html#gad5d667c41776480785c62759c61a137e" target="_top" xlink:title="A clamp, bushing, and/or grip for wire, hose, and/or pipe wall penetrations.">
<polygon fill="white" stroke="black" points="159,-76.5 159,-95.5 222,-95.5 222,-76.5 159,-76.5"/>
<text text-anchor="middle" x="190.5" y="-83.5" font-family="Helvetica,sans-Serif" font-size="10.00">clamp_cg</text>
</a>
</g>
</g>
<!-- Node10&#45;&gt;Node12 -->
<g id="edge11" class="edge">
<title>Node10&#45;&gt;Node12</title>
<path fill="none" stroke="midnightblue" d="M603.68,-102.95C507.79,-99.01 300.12,-90.47 222.02,-87.26"/>
<polygon fill="midnightblue" stroke="midnightblue" points="603.57,-106.45 613.71,-103.36 603.86,-99.46 603.57,-106.45"/>
</g>
<!-- Node13 -->
<g id="node13" class="node">
<title>Node13</title>
<g id="a_node13"><a xlink:href="group__models__3d__misc__omdl__logo.html#gab176f64dad7e83d4fb056be44b71f630" target="_top" xlink:title="Standard omdl logo.">
<polygon fill="white" stroke="black" points="328,-38.5 328,-57.5 396,-57.5 396,-38.5 328,-38.5"/>
<text text-anchor="middle" x="362" y="-45.5" font-family="Helvetica,sans-Serif" font-size="10.00">omdl_logo</text>
</a>
</g>
</g>
<!-- Node10&#45;&gt;Node13 -->
<g id="edge14" class="edge">
<title>Node10&#45;&gt;Node13</title>
<path fill="none" stroke="midnightblue" d="M626.63,-90.89C612.52,-84.1 594.73,-76.48 578,-72 515.24,-55.19 439.11,-50.14 396.35,-48.63"/>
<polygon fill="midnightblue" stroke="midnightblue" points="625.23,-94.11 635.75,-95.41 628.34,-87.84 625.23,-94.11"/>
</g>
<!-- Node14 -->
<g id="node14" class="node">
<title>Node14</title>
<g id="a_node14"><a xlink:href="group__shapes__common__2d.html#ga0e810e30a9ec109e004677036012c428" target="_top" xlink:title="A two&#45;dimensional star.">
<polygon fill="white" stroke="black" points="501,-152.5 501,-171.5 548,-171.5 548,-152.5 501,-152.5"/>
<text text-anchor="middle" x="524.5" y="-159.5" font-family="Helvetica,sans-Serif" font-size="10.00">star2d</text>
</a>
</g>
</g>
<!-- Node10&#45;&gt;Node14 -->
<g id="edge16" class="edge">
<title>Node10&#45;&gt;Node14</title>
<path fill="none" stroke="midnightblue" d="M626.85,-119.39C612.56,-126.85 594.53,-135.88 578,-143 568.39,-147.14 557.54,-151.17 548.21,-154.44"/>
<polygon fill="midnightblue" stroke="midnightblue" points="628.88,-122.28 636.09,-114.51 625.61,-116.09 628.88,-122.28"/>
</g>
<!-- Node15 -->
<g id="node15" class="node">
<title>Node15</title>
<g id="a_node15"><a xlink:href="group__shapes__common__3d.html#ga4ce7dbd0b00fa303b5a6fdb8c4c34ab2" target="_top" xlink:title="A three&#45;dimensional star.">
<polygon fill="white" stroke="black" points="501,-114.5 501,-133.5 548,-133.5 548,-114.5 501,-114.5"/>
<text text-anchor="middle" x="524.5" y="-121.5" font-family="Helvetica,sans-Serif" font-size="10.00">star3d</text>
</a>
</g>
</g>
<!-- Node10&#45;&gt;Node15 -->
<g id="edge18" class="edge">
<title>Node10&#45;&gt;Node15</title>
<path fill="none" stroke="midnightblue" d="M603.58,-112.41C584.42,-115.25 563.48,-118.36 548.12,-120.64"/>
<polygon fill="midnightblue" stroke="midnightblue" points="604.32,-115.84 613.7,-110.91 603.3,-108.91 604.32,-115.84"/>
</g>
<!-- Node12&#45;&gt;Node8 -->
<g id="edge12" class="edge">
<title>Node12&#45;&gt;Node8</title>
<path fill="none" stroke="midnightblue" d="M149.08,-96.78C128.21,-102.34 102.97,-109.08 82.8,-114.45"/>
<polygon fill="midnightblue" stroke="midnightblue" points="150.17,-100.11 158.93,-94.15 148.37,-93.35 150.17,-100.11"/>
</g>
<!-- Node12&#45;&gt;Node9 -->
<g id="edge13" class="edge">
<title>Node12&#45;&gt;Node9</title>
<path fill="none" stroke="midnightblue" d="M148.73,-86C130.69,-86 109.44,-86 91.04,-86"/>
<polygon fill="midnightblue" stroke="midnightblue" points="148.93,-89.5 158.93,-86 148.93,-82.5 148.93,-89.5"/>
</g>
<!-- Node13&#45;&gt;Node9 -->
<g id="edge15" class="edge">
<title>Node13&#45;&gt;Node9</title>
<path fill="none" stroke="midnightblue" d="M317.51,-49.61C270.53,-51.8 193.6,-56.69 128,-67 113.02,-69.35 96.7,-72.97 82.66,-76.42"/>
<polygon fill="midnightblue" stroke="midnightblue" points="317.8,-53.1 327.63,-49.16 317.49,-46.11 317.8,-53.1"/>
</g>
<!-- Node14&#45;&gt;Node5 -->
<g id="edge17" class="edge">
<title>Node14&#45;&gt;Node5</title>
<path fill="none" stroke="midnightblue" d="M490.44,-162C474.44,-162 454.55,-162 435.28,-162"/>
<polygon fill="midnightblue" stroke="midnightblue" points="490.84,-165.5 500.84,-162 490.84,-158.5 490.84,-165.5"/>
</g>
<!-- Node16 -->
<g id="node16" class="node">
<title>Node16</title>
<g id="a_node16"><a xlink:href="group__shapes__select__common__3d.html#ga3fd7f214eff2f5935ad1bb56415a4aaf" target="_top" xlink:title="Select configure and construct one of the available 3d shapes.">
<polygon fill="white" stroke="black" points="289,-114.5 289,-133.5 435,-133.5 435,-114.5 289,-114.5"/>
<text text-anchor="middle" x="362" y="-121.5" font-family="Helvetica,sans-Serif" font-size="10.00">select_common_3d_shape</text>
</a>
</g>
</g>
<!-- Node15&#45;&gt;Node16 -->
<g id="edge19" class="edge">
<title>Node15&#45;&gt;Node16</title>
<path fill="none" stroke="midnightblue" d="M490.44,-124C474.44,-124 454.55,-124 435.28,-124"/>
<polygon fill="midnightblue" stroke="midnightblue" points="490.84,-127.5 500.84,-124 490.84,-120.5 490.84,-127.5"/>
</g>
<!-- Node16&#45;&gt;Node7 -->
<g id="edge20" class="edge">
<title>Node16&#45;&gt;Node7</title>
<path fill="none" stroke="midnightblue" d="M278.62,-124C270.07,-124 261.49,-124 253.22,-124"/>
<polygon fill="midnightblue" stroke="midnightblue" points="278.63,-127.5 288.63,-124 278.63,-120.5 278.63,-127.5"/>
</g>
</g>
</svg>
