<?xml version="1.0" encoding="UTF-8" standalone="no"?>
<!DOCTYPE svg PUBLIC "-//W3C//DTD SVG 1.1//EN"
 "http://www.w3.org/Graphics/SVG/1.1/DTD/svg11.dtd">
<!-- Generated by graphviz version 2.43.0 (0)
 -->
<!-- Title: Extrude Pages: 1 -->
<svg width="233pt" height="35pt"
 viewBox="0.00 0.00 233.00 34.61" xmlns="http://www.w3.org/2000/svg" xmlns:xlink="http://www.w3.org/1999/xlink">
<g id="graph0" class="graph" transform="scale(1 1) rotate(0) translate(4 30.61)">
<title>Extrude</title>
<polygon fill="white" stroke="transparent" points="-4,4 -4,-30.61 229,-30.61 229,4 -4,4"/>
<!-- Node2 -->
<g id="node1" class="node">
<title>Node2</title>
<g id="a_node1"><a xlink:href="group__transforms.html" target="_top" xlink:title="Geometric transformation and shape replication.">
<polygon fill="white" stroke="black" points="71,-26.61 0,-26.61 0,-7.61 71,-7.61 71,-26.61"/>
<text text-anchor="middle" x="35.5" y="-14.61" font-family="Helvetica,sans-Serif" font-size="10.00">Transforms</text>
</a>
</g>
</g>
<!-- Node1 -->
<g id="node2" class="node">
<title>Node1</title>
<g id="a_node2"><a xlink:title="Shape extrusion operations.">
<polygon fill="#bfbfbf" stroke="black" points="225,-26.61 171,-26.61 171,-7.61 225,-7.61 225,-26.61"/>
<text text-anchor="middle" x="198" y="-14.61" font-family="Helvetica,sans-Serif" font-size="10.00">Extrude</text>
</a>
</g>
</g>
<!-- Node2&#45;&gt;Node1 -->
<g id="edge1" class="edge">
<title>Node2&#45;&gt;Node1</title>
<path fill="none" stroke="black" d="M81.57,-17.11C110.42,-17.11 146.81,-17.11 170.94,-17.11"/>
<polygon fill="black" stroke="black" points="81.33,-13.61 71.33,-17.11 81.33,-20.61 81.33,-13.61"/>
</g>
<!-- Node1&#45;&gt;Node2 -->
<g id="edge2" class="edge">
<title>Node1&#45;&gt;Node2</title>
<path fill="none" stroke="darkgreen" stroke-dasharray="5,2" d="M171.73,-7.6C165.68,-5.74 159.18,-4.07 153,-3.11 124.89,1.26 117.2,0.59 89,-3.11 81.7,-4.06 73.98,-5.74 66.77,-7.6"/>
<text text-anchor="middle" x="121" y="-6.11" font-family="Helvetica,sans-Serif" font-size="10.00">extrude.scad</text>
</g>
</g>
</svg>
