<?xml version="1.0" encoding="UTF-8" standalone="no"?>
<!DOCTYPE svg PUBLIC "-//W3C//DTD SVG 1.1//EN"
 "http://www.w3.org/Graphics/SVG/1.1/DTD/svg11.dtd">
<!-- Generated by graphviz version 2.43.0 (0)
 -->
<!-- Title: extrude_rotate_tr Pages: 1 -->
<svg width="526pt" height="256pt"
 viewBox="0.00 0.00 526.00 256.00" xmlns="http://www.w3.org/2000/svg" xmlns:xlink="http://www.w3.org/1999/xlink">
<g id="graph0" class="graph" transform="scale(1 1) rotate(0) translate(4 252)">
<title>extrude_rotate_tr</title>
<polygon fill="white" stroke="transparent" points="-4,4 -4,-252 522,-252 522,4 -4,4"/>
<!-- Node1 -->
<g id="node1" class="node">
<title>Node1</title>
<g id="a_node1"><a xlink:title="Translate, rotate, and revolve a 2d shape about the z&#45;axis.">
<polygon fill="#bfbfbf" stroke="black" points="417,-114.5 417,-133.5 518,-133.5 518,-114.5 417,-114.5"/>
<text text-anchor="middle" x="467.5" y="-121.5" font-family="Helvetica,sans-Serif" font-size="10.00">extrude_rotate_tr</text>
</a>
</g>
</g>
<!-- Node2 -->
<g id="node2" class="node">
<title>Node2</title>
<g id="a_node2"><a xlink:href="group__parts__3d__fastener__catch__latch.html#ga26a9933aa6d33599daab1be8d632c430" target="_top" xlink:title="A catch latch generator with configurable profile.">
<polygon fill="white" stroke="black" points="291.5,-152.5 291.5,-171.5 363.5,-171.5 363.5,-152.5 291.5,-152.5"/>
<text text-anchor="middle" x="327.5" y="-159.5" font-family="Helvetica,sans-Serif" font-size="10.00">catch_latch</text>
</a>
</g>
</g>
<!-- Node1&#45;&gt;Node2 -->
<g id="edge1" class="edge">
<title>Node1&#45;&gt;Node2</title>
<path fill="none" stroke="midnightblue" d="M422.03,-136.25C403.01,-141.48 381.12,-147.51 363.31,-152.41"/>
<polygon fill="midnightblue" stroke="midnightblue" points="422.96,-139.62 431.68,-133.59 421.11,-132.87 422.96,-139.62"/>
</g>
<!-- Node3 -->
<g id="node3" class="node">
<title>Node3</title>
<g id="a_node3"><a xlink:href="group__transforms__extrude.html#ga78405b5fa18461a302a2f24646499ece" target="_top" xlink:title="Translate, rotate, and revolve a 2d shape about the z&#45;axis with linear elongation.">
<polygon fill="white" stroke="black" points="275.5,-114.5 275.5,-133.5 379.5,-133.5 379.5,-114.5 275.5,-114.5"/>
<text text-anchor="middle" x="327.5" y="-121.5" font-family="Helvetica,sans-Serif" font-size="10.00">extrude_rotate_trl</text>
</a>
</g>
</g>
<!-- Node1&#45;&gt;Node3 -->
<g id="edge2" class="edge">
<title>Node1&#45;&gt;Node3</title>
<path fill="none" stroke="midnightblue" d="M406.64,-124C397.64,-124 388.43,-124 379.64,-124"/>
<polygon fill="midnightblue" stroke="midnightblue" points="406.68,-127.5 416.68,-124 406.68,-120.5 406.68,-127.5"/>
</g>
<!-- Node11 -->
<g id="node11" class="node">
<title>Node11</title>
<g id="a_node11"><a xlink:href="group__transforms__extrude.html#ga2cbff19d3b793918b99aae3b56d37dfa" target="_top" xlink:title="Translate, rotate, scale, and revolve a 2d shape about the z&#45;axis.">
<polygon fill="white" stroke="black" points="274,-38.5 274,-57.5 381,-57.5 381,-38.5 274,-38.5"/>
<text text-anchor="middle" x="327.5" y="-45.5" font-family="Helvetica,sans-Serif" font-size="10.00">extrude_rotate_trs</text>
</a>
</g>
</g>
<!-- Node1&#45;&gt;Node11 -->
<g id="edge12" class="edge">
<title>Node1&#45;&gt;Node11</title>
<path fill="none" stroke="midnightblue" d="M440.25,-109.54C412.53,-94.28 369.61,-70.64 345.84,-57.55"/>
<polygon fill="midnightblue" stroke="midnightblue" points="438.57,-112.62 449.02,-114.37 441.95,-106.48 438.57,-112.62"/>
</g>
<!-- Node4 -->
<g id="node4" class="node">
<title>Node4</title>
<g id="a_node4"><a xlink:href="group__parts__3d__fastener__clamps.html#gad5d667c41776480785c62759c61a137e" target="_top" xlink:title="A clamp, bushing, and/or grip for wire, hose, and/or pipe wall penetrations.">
<polygon fill="white" stroke="black" points="151.5,-190.5 151.5,-209.5 214.5,-209.5 214.5,-190.5 151.5,-190.5"/>
<text text-anchor="middle" x="183" y="-197.5" font-family="Helvetica,sans-Serif" font-size="10.00">clamp_cg</text>
</a>
</g>
</g>
<!-- Node3&#45;&gt;Node4 -->
<g id="edge3" class="edge">
<title>Node3&#45;&gt;Node4</title>
<path fill="none" stroke="midnightblue" d="M284.66,-137.4C280.96,-139.1 277.36,-140.97 274,-143 255.43,-154.24 256.15,-164.1 238,-176 229.42,-181.62 219.3,-186.52 210.16,-190.39"/>
<polygon fill="midnightblue" stroke="midnightblue" points="286.06,-140.61 293.93,-133.52 283.35,-134.16 286.06,-140.61"/>
</g>
<!-- Node6 -->
<g id="node6" class="node">
<title>Node6</title>
<g id="a_node6"><a xlink:href="group__parts__3d__enclosure__power__strip.html#ga33509a1811b27fe7f3687957d4d32460" target="_top" xlink:title="A power strip generator for single gang electrical receptacles.">
<polygon fill="white" stroke="black" points="1,-171.5 1,-190.5 91,-190.5 91,-171.5 1,-171.5"/>
<text text-anchor="middle" x="46" y="-178.5" font-family="Helvetica,sans-Serif" font-size="10.00">power_strip_sg</text>
</a>
</g>
</g>
<!-- Node3&#45;&gt;Node6 -->
<g id="edge8" class="edge">
<title>Node3&#45;&gt;Node6</title>
<path fill="none" stroke="midnightblue" d="M272.93,-135.64C261.41,-138.1 249.31,-140.66 238,-143 187.67,-153.41 129.78,-164.85 91.04,-172.43"/>
<polygon fill="midnightblue" stroke="midnightblue" points="273.82,-139.03 282.86,-133.5 272.35,-132.18 273.82,-139.03"/>
</g>
<!-- Node7 -->
<g id="node7" class="node">
<title>Node7</title>
<g id="a_node7"><a xlink:href="group__parts__3d__fastener__clamps.html#gac715fdab9961aff45be668fb23556835" target="_top" xlink:title="A one piece zip tie clamp to secure wires or provide strain relief.">
<polygon fill="white" stroke="black" points="144,-228.5 144,-247.5 222,-247.5 222,-228.5 144,-228.5"/>
<text text-anchor="middle" x="183" y="-235.5" font-family="Helvetica,sans-Serif" font-size="10.00">clamp_zt_1p</text>
</a>
</g>
</g>
<!-- Node3&#45;&gt;Node7 -->
<g id="edge6" class="edge">
<title>Node3&#45;&gt;Node7</title>
<path fill="none" stroke="midnightblue" d="M279.53,-138.68C277.58,-140 275.72,-141.44 274,-143 246.34,-168.14 265.77,-193.98 238,-219 233.42,-223.12 227.89,-226.37 222.15,-228.91"/>
<polygon fill="midnightblue" stroke="midnightblue" points="281.58,-141.54 288.6,-133.6 278.16,-135.43 281.58,-141.54"/>
</g>
<!-- Node8 -->
<g id="node8" class="node">
<title>Node8</title>
<g id="a_node8"><a xlink:href="group__shapes__revolved.html#ga58a3e713a904c96b69ddd8f87f7f3bb1" target="_top" xlink:title="An elliptical cross&#45;sectional profile revolved about the z&#45;axis.">
<polygon fill="white" stroke="black" points="135.5,-114.5 135.5,-133.5 230.5,-133.5 230.5,-114.5 135.5,-114.5"/>
<text text-anchor="middle" x="183" y="-121.5" font-family="Helvetica,sans-Serif" font-size="10.00">torus_ellipse_cs</text>
</a>
</g>
</g>
<!-- Node3&#45;&gt;Node8 -->
<g id="edge9" class="edge">
<title>Node3&#45;&gt;Node8</title>
<path fill="none" stroke="midnightblue" d="M265.42,-124C253.86,-124 241.93,-124 230.89,-124"/>
<polygon fill="midnightblue" stroke="midnightblue" points="265.46,-127.5 275.46,-124 265.46,-120.5 265.46,-127.5"/>
</g>
<!-- Node9 -->
<g id="node9" class="node">
<title>Node9</title>
<g id="a_node9"><a xlink:href="group__shapes__revolved.html#ga69b374bbebd7d87cfcd06b6bd3278404" target="_top" xlink:title="A trapezoidal cross&#45;sectional profile revolved about the z&#45;axis.">
<polygon fill="white" stroke="black" points="128,-76.5 128,-95.5 238,-95.5 238,-76.5 128,-76.5"/>
<text text-anchor="middle" x="183" y="-83.5" font-family="Helvetica,sans-Serif" font-size="10.00">torus_pg_trapezoid</text>
</a>
</g>
</g>
<!-- Node3&#45;&gt;Node9 -->
<g id="edge10" class="edge">
<title>Node3&#45;&gt;Node9</title>
<path fill="none" stroke="midnightblue" d="M280.85,-111.83C261.14,-106.57 238.43,-100.51 219.95,-95.59"/>
<polygon fill="midnightblue" stroke="midnightblue" points="279.98,-115.22 290.54,-114.41 281.78,-108.45 279.98,-115.22"/>
</g>
<!-- Node10 -->
<g id="node10" class="node">
<title>Node10</title>
<g id="a_node10"><a xlink:href="group__shapes__revolved.html#gad587c003585db775fd441468954b7c43" target="_top" xlink:title="A rectangular cross&#45;sectional profile revolved about the z&#45;axis.">
<polygon fill="white" stroke="black" points="131.5,-38.5 131.5,-57.5 234.5,-57.5 234.5,-38.5 131.5,-38.5"/>
<text text-anchor="middle" x="183" y="-45.5" font-family="Helvetica,sans-Serif" font-size="10.00">torus_rectangle_c</text>
</a>
</g>
</g>
<!-- Node3&#45;&gt;Node10 -->
<g id="edge11" class="edge">
<title>Node3&#45;&gt;Node10</title>
<path fill="none" stroke="midnightblue" d="M305.27,-108.3C287.84,-95.93 262.18,-78.84 238,-67 230.77,-63.46 222.71,-60.26 215.07,-57.54"/>
<polygon fill="midnightblue" stroke="midnightblue" points="303.42,-111.29 313.58,-114.29 307.51,-105.61 303.42,-111.29"/>
</g>
<!-- Node5 -->
<g id="node5" class="node">
<title>Node5</title>
<g id="a_node5"><a xlink:href="group__parts__3d__computer__pcie__expansion.html#gab6fb1c9f8f6550633467f4ec0bd3f983" target="_top" xlink:title="Generate a PCI Express expansion open chassis or closed enclosure.">
<polygon fill="white" stroke="black" points="0,-218.5 0,-237.5 92,-237.5 92,-218.5 0,-218.5"/>
<text text-anchor="middle" x="46" y="-225.5" font-family="Helvetica,sans-Serif" font-size="10.00">pcie_expansion</text>
</a>
</g>
</g>
<!-- Node4&#45;&gt;Node5 -->
<g id="edge4" class="edge">
<title>Node4&#45;&gt;Node5</title>
<path fill="none" stroke="midnightblue" d="M141.51,-208.4C125.95,-211.63 108.09,-215.33 92.12,-218.64"/>
<polygon fill="midnightblue" stroke="midnightblue" points="142.29,-211.81 151.37,-206.35 140.86,-204.96 142.29,-211.81"/>
</g>
<!-- Node4&#45;&gt;Node6 -->
<g id="edge5" class="edge">
<title>Node4&#45;&gt;Node6</title>
<path fill="none" stroke="midnightblue" d="M141.33,-194.28C125.47,-192.04 107.25,-189.48 91.08,-187.2"/>
<polygon fill="midnightblue" stroke="midnightblue" points="140.98,-197.76 151.37,-195.69 141.95,-190.83 140.98,-197.76"/>
</g>
<!-- Node7&#45;&gt;Node5 -->
<g id="edge7" class="edge">
<title>Node7&#45;&gt;Node5</title>
<path fill="none" stroke="midnightblue" d="M133.59,-234.41C120.07,-233.41 105.43,-232.33 92.11,-231.34"/>
<polygon fill="midnightblue" stroke="midnightblue" points="133.44,-237.91 143.68,-235.16 133.96,-230.93 133.44,-237.91"/>
</g>
<!-- Node12 -->
<g id="node12" class="node">
<title>Node12</title>
<g id="a_node12"><a xlink:href="group__parts__3d__motion__bearing__linear__rod.html#ga0064887f7c89f8915895c0243bec4a4c" target="_top" xlink:title="Transform 2d or 3d shape into a linear rod ball or sled bearing.">
<polygon fill="white" stroke="black" points="129.5,-0.5 129.5,-19.5 236.5,-19.5 236.5,-0.5 129.5,-0.5"/>
<text text-anchor="middle" x="183" y="-7.5" font-family="Helvetica,sans-Serif" font-size="10.00">bearing_linear_rod</text>
</a>
</g>
</g>
<!-- Node11&#45;&gt;Node12 -->
<g id="edge13" class="edge">
<title>Node11&#45;&gt;Node12</title>
<path fill="none" stroke="midnightblue" d="M280.85,-35.83C261.14,-30.57 238.43,-24.51 219.95,-19.59"/>
<polygon fill="midnightblue" stroke="midnightblue" points="279.98,-39.22 290.54,-38.41 281.78,-32.45 279.98,-39.22"/>
</g>
</g>
</svg>
