<?xml version="1.0" encoding="UTF-8" standalone="no"?>
<!DOCTYPE svg PUBLIC "-//W3C//DTD SVG 1.1//EN"
 "http://www.w3.org/Graphics/SVG/1.1/DTD/svg11.dtd">
<!-- Generated by graphviz version 2.43.0 (0)
 -->
<!-- Title: 3d Models Pages: 1 -->
<svg width="285pt" height="138pt"
 viewBox="0.00 0.00 285.00 138.00" xmlns="http://www.w3.org/2000/svg" xmlns:xlink="http://www.w3.org/1999/xlink">
<g id="graph0" class="graph" transform="scale(1 1) rotate(0) translate(4 134)">
<title>3d Models</title>
<polygon fill="white" stroke="transparent" points="-4,4 -4,-134 281,-134 281,4 -4,4"/>
<!-- Node4 -->
<g id="node1" class="node">
<title>Node4</title>
<g id="a_node1"><a xlink:href="group__models__3d__joint.html" target="_top" xlink:title="Models for connecting 3d members.">
<polygon fill="white" stroke="black" points="253,-130 215,-130 215,-111 253,-111 253,-130"/>
<text text-anchor="middle" x="234" y="-118" font-family="Helvetica,sans-Serif" font-size="10.00">Joint</text>
</a>
</g>
</g>
<!-- Node3 -->
<g id="node2" class="node">
<title>Node3</title>
<g id="a_node2"><a xlink:href="group__models__3d__fastener.html" target="_top" xlink:title="Fasteners, connectors, latches, and hinges.">
<polygon fill="white" stroke="black" points="263,-93 205,-93 205,-74 263,-74 263,-93"/>
<text text-anchor="middle" x="234" y="-81" font-family="Helvetica,sans-Serif" font-size="10.00">Fastener</text>
</a>
</g>
</g>
<!-- Node2 -->
<g id="node3" class="node">
<title>Node2</title>
<g id="a_node3"><a xlink:href="group__models.html" target="_top" xlink:title="Black&#45;box models representing design components.">
<polygon fill="white" stroke="black" points="52,-74 0,-74 0,-55 52,-55 52,-74"/>
<text text-anchor="middle" x="26" y="-62" font-family="Helvetica,sans-Serif" font-size="10.00">Models</text>
</a>
</g>
</g>
<!-- Node1 -->
<g id="node4" class="node">
<title>Node1</title>
<g id="a_node4"><a xlink:title="3d black&#45;box models of design components.">
<polygon fill="#bfbfbf" stroke="black" points="155,-74 88,-74 88,-55 155,-55 155,-74"/>
<text text-anchor="middle" x="121.5" y="-62" font-family="Helvetica,sans-Serif" font-size="10.00">3d Models</text>
</a>
</g>
</g>
<!-- Node2&#45;&gt;Node1 -->
<g id="edge1" class="edge">
<title>Node2&#45;&gt;Node1</title>
<path fill="none" stroke="black" d="M62.06,-64.5C70.56,-64.5 79.6,-64.5 87.97,-64.5"/>
<polygon fill="black" stroke="black" points="62.06,-61 52.06,-64.5 62.06,-68 62.06,-61"/>
</g>
<!-- Node1&#45;&gt;Node4 -->
<g id="edge3" class="edge">
<title>Node1&#45;&gt;Node4</title>
<path fill="none" stroke="black" d="M147.32,-79.07C160.19,-86.42 176.26,-95.28 191,-102.5 198.69,-106.27 207.37,-110.06 214.83,-113.19"/>
<polygon fill="black" stroke="black" points="149,-75.99 138.59,-74.03 145.5,-82.06 149,-75.99"/>
</g>
<!-- Node1&#45;&gt;Node3 -->
<g id="edge2" class="edge">
<title>Node1&#45;&gt;Node3</title>
<path fill="none" stroke="black" d="M164.99,-71.81C178.32,-74.1 192.71,-76.57 204.79,-78.65"/>
<polygon fill="black" stroke="black" points="165.5,-68.34 155.06,-70.1 164.32,-75.24 165.5,-68.34"/>
</g>
<!-- Node6 -->
<g id="node5" class="node">
<title>Node6</title>
<g id="a_node5"><a xlink:href="group__models__3d__motion.html" target="_top" xlink:title="Building blocks for basic mechanical motion.">
<polygon fill="white" stroke="black" points="259,-56 209,-56 209,-37 259,-37 259,-56"/>
<text text-anchor="middle" x="234" y="-44" font-family="Helvetica,sans-Serif" font-size="10.00">Motion</text>
</a>
</g>
</g>
<!-- Node1&#45;&gt;Node6 -->
<g id="edge5" class="edge">
<title>Node1&#45;&gt;Node6</title>
<path fill="none" stroke="black" d="M165.04,-57.57C179.85,-55.16 195.94,-52.54 208.74,-50.45"/>
<polygon fill="black" stroke="black" points="164.36,-54.13 155.06,-59.2 165.49,-61.04 164.36,-54.13"/>
</g>
<!-- Node5 -->
<g id="node6" class="node">
<title>Node5</title>
<g id="a_node6"><a xlink:href="group__models__3d__misc.html" target="_top" xlink:title="Miscellaneous auxiliary design models.">
<polygon fill="white" stroke="black" points="277,-19 191,-19 191,0 277,0 277,-19"/>
<text text-anchor="middle" x="234" y="-7" font-family="Helvetica,sans-Serif" font-size="10.00">Miscellaneous</text>
</a>
</g>
</g>
<!-- Node1&#45;&gt;Node5 -->
<g id="edge4" class="edge">
<title>Node1&#45;&gt;Node5</title>
<path fill="none" stroke="black" d="M148.26,-49.87C160.98,-42.83 176.65,-34.43 191,-27.5 197,-24.6 203.58,-21.67 209.72,-19.03"/>
<polygon fill="black" stroke="black" points="146.2,-47.02 139.17,-54.95 149.61,-53.13 146.2,-47.02"/>
</g>
</g>
</svg>
