<?xml version="1.0" encoding="UTF-8" standalone="no"?>
<!DOCTYPE svg PUBLIC "-//W3C//DTD SVG 1.1//EN"
 "http://www.w3.org/Graphics/SVG/1.1/DTD/svg11.dtd">
<!-- Generated by graphviz version 2.43.0 (0)
 -->
<!-- Title: omdl_logo Pages: 1 -->
<svg width="516pt" height="484pt"
 viewBox="0.00 0.00 516.00 484.00" xmlns="http://www.w3.org/2000/svg" xmlns:xlink="http://www.w3.org/1999/xlink">
<g id="graph0" class="graph" transform="scale(1 1) rotate(0) translate(4 480)">
<title>omdl_logo</title>
<polygon fill="white" stroke="transparent" points="-4,4 -4,-480 512,-480 512,4 -4,4"/>
<!-- Node1 -->
<g id="node1" class="node">
<title>Node1</title>
<g id="a_node1"><a xlink:title="Standard omdl logo.">
<polygon fill="#bfbfbf" stroke="black" points="0,-171.5 0,-190.5 68,-190.5 68,-171.5 0,-171.5"/>
<text text-anchor="middle" x="34" y="-178.5" font-family="Helvetica,sans-Serif" font-size="10.00">omdl_logo</text>
</a>
</g>
</g>
<!-- Node2 -->
<g id="node2" class="node">
<title>Node2</title>
<g id="a_node2"><a xlink:href="group__units__angle.html#ga06a917b77748dfb74e765bcd7c4c0219" target="_top" xlink:title="Convert an angle value from one unit to another.">
<polygon fill="white" stroke="black" points="301,-304.5 301,-323.5 345,-323.5 345,-304.5 301,-304.5"/>
<text text-anchor="middle" x="323" y="-311.5" font-family="Helvetica,sans-Serif" font-size="10.00">angle</text>
</a>
</g>
</g>
<!-- Node1&#45;&gt;Node2 -->
<g id="edge1" class="edge">
<title>Node1&#45;&gt;Node2</title>
<path fill="none" stroke="midnightblue" d="M37.62,-190.78C44.3,-213.6 64.33,-270.31 104,-295 161.93,-331.05 245.87,-325.87 290.82,-319.57"/>
<polygon fill="midnightblue" stroke="midnightblue" points="291.48,-323.01 300.84,-318.05 290.43,-316.09 291.48,-323.01"/>
</g>
<!-- Node3 -->
<g id="node3" class="node">
<title>Node3</title>
<g id="a_node3"><a xlink:href="group__shapes__common__3d.html#ga5075cfcc6967fb610e308f08da3fb059" target="_top" xlink:title="A cone.">
<polygon fill="white" stroke="black" points="140.5,-266.5 140.5,-285.5 180.5,-285.5 180.5,-266.5 140.5,-266.5"/>
<text text-anchor="middle" x="160.5" y="-273.5" font-family="Helvetica,sans-Serif" font-size="10.00">cone</text>
</a>
</g>
</g>
<!-- Node1&#45;&gt;Node3 -->
<g id="edge2" class="edge">
<title>Node1&#45;&gt;Node3</title>
<path fill="none" stroke="midnightblue" d="M42.51,-190.91C54.24,-205.84 78.25,-234.24 104,-252 112.19,-257.65 121.91,-262.4 130.92,-266.15"/>
<polygon fill="midnightblue" stroke="midnightblue" points="129.72,-269.44 140.31,-269.82 132.27,-262.92 129.72,-269.44"/>
</g>
<!-- Node5 -->
<g id="node5" class="node">
<title>Node5</title>
<g id="a_node5"><a xlink:href="group__math__polygon.html#ga7a0eff64929a142fc507615f83e3bd58" target="_top" xlink:title="Compute coordinates that round all of the vertices between each adjacent edges in 2D.">
<polygon fill="white" stroke="black" points="253,-228.5 253,-247.5 393,-247.5 393,-228.5 253,-228.5"/>
<text text-anchor="middle" x="323" y="-235.5" font-family="Helvetica,sans-Serif" font-size="10.00">polygon_round_eve_all_p</text>
</a>
</g>
</g>
<!-- Node1&#45;&gt;Node5 -->
<g id="edge17" class="edge">
<title>Node1&#45;&gt;Node5</title>
<path fill="none" stroke="midnightblue" d="M60.26,-190.55C73.19,-195.15 89.28,-200.42 104,-204 149.39,-215.02 201,-223.26 242.61,-228.86"/>
<polygon fill="midnightblue" stroke="midnightblue" points="242.32,-232.35 252.69,-230.2 243.24,-225.41 242.32,-232.35"/>
</g>
<!-- Node6 -->
<g id="node6" class="node">
<title>Node6</title>
<g id="a_node6"><a xlink:href="group__math__triangle.html#gaab9b812d15418fd05c9d93f3bfcc1989" target="_top" xlink:title="Compute a set of vertex coordinates for a triangle given its side lengths in 2D.">
<polygon fill="white" stroke="black" points="267.5,-190.5 267.5,-209.5 378.5,-209.5 378.5,-190.5 267.5,-190.5"/>
<text text-anchor="middle" x="323" y="-197.5" font-family="Helvetica,sans-Serif" font-size="10.00">triangle2d_sss2ppp</text>
</a>
</g>
</g>
<!-- Node1&#45;&gt;Node6 -->
<g id="edge24" class="edge">
<title>Node1&#45;&gt;Node6</title>
<path fill="none" stroke="midnightblue" d="M68.2,-183.2C114.21,-186.24 198.29,-191.81 257.03,-195.7"/>
<polygon fill="midnightblue" stroke="midnightblue" points="257.11,-199.21 267.32,-196.38 257.57,-192.23 257.11,-199.21"/>
</g>
<!-- Node7 -->
<g id="node7" class="node">
<title>Node7</title>
<g id="a_node7"><a xlink:href="group__transforms__extrude.html#ga45661244067bf945b684550c3263ee45" target="_top" xlink:title="Linearly extrude a 2d shape with multi&#45;segment uniformly&#45;spaced profile scaling.">
<polygon fill="white" stroke="black" points="104,-380.5 104,-399.5 217,-399.5 217,-380.5 104,-380.5"/>
<text text-anchor="middle" x="160.5" y="-387.5" font-family="Helvetica,sans-Serif" font-size="10.00">extrude_linear_mss</text>
</a>
</g>
</g>
<!-- Node1&#45;&gt;Node7 -->
<g id="edge7" class="edge">
<title>Node1&#45;&gt;Node7</title>
<path fill="none" stroke="midnightblue" d="M38.46,-190.79C47.29,-215.17 72.27,-280.04 104,-328 114.99,-344.6 130.23,-361.3 141.96,-373.17"/>
<polygon fill="midnightblue" stroke="midnightblue" points="139.52,-375.68 149.08,-380.23 144.44,-370.71 139.52,-375.68"/>
</g>
<!-- Node13 -->
<g id="node13" class="node">
<title>Node13</title>
<g id="a_node13"><a xlink:href="group__datatypes__scalar__test.html#ga51d7fdb800c10f4b7479d23b89ab8d22" target="_top" xlink:title="Test if a value is defined.">
<polygon fill="white" stroke="black" points="127.5,-114.5 127.5,-133.5 193.5,-133.5 193.5,-114.5 127.5,-114.5"/>
<text text-anchor="middle" x="160.5" y="-121.5" font-family="Helvetica,sans-Serif" font-size="10.00">is_defined</text>
</a>
</g>
</g>
<!-- Node1&#45;&gt;Node13 -->
<g id="edge16" class="edge">
<title>Node1&#45;&gt;Node13</title>
<path fill="none" stroke="midnightblue" d="M50.5,-171.45C64.23,-163.23 84.99,-151.41 104,-143 108.77,-140.89 113.85,-138.86 118.92,-136.97"/>
<polygon fill="midnightblue" stroke="midnightblue" points="120.36,-140.18 128.6,-133.52 118,-133.59 120.36,-140.18"/>
</g>
<!-- Node14 -->
<g id="node14" class="node">
<title>Node14</title>
<g id="a_node14"><a xlink:href="group__transforms__repeat.html#ga8da1e3a852a1b25ba93437a6fe46745f" target="_top" xlink:title="Radially repeat copies of child objects about a z&#45;axis radius.">
<polygon fill="white" stroke="black" points="120,-152.5 120,-171.5 201,-171.5 201,-152.5 120,-152.5"/>
<text text-anchor="middle" x="160.5" y="-159.5" font-family="Helvetica,sans-Serif" font-size="10.00">repeat_radial</text>
</a>
</g>
</g>
<!-- Node1&#45;&gt;Node14 -->
<g id="edge18" class="edge">
<title>Node1&#45;&gt;Node14</title>
<path fill="none" stroke="midnightblue" d="M68.04,-175.96C80.79,-174.01 95.66,-171.74 109.66,-169.61"/>
<polygon fill="midnightblue" stroke="midnightblue" points="110.29,-173.05 119.65,-168.08 109.24,-166.13 110.29,-173.05"/>
</g>
<!-- Node17 -->
<g id="node17" class="node">
<title>Node17</title>
<g id="a_node17"><a xlink:href="group__datatypes__list__operate.html#ga7b8e6f2bbfa72ae61e39377e5ca6b5be" target="_top" xlink:title="Select specified element from list or return a default.">
<polygon fill="white" stroke="black" points="131,-76.5 131,-95.5 190,-95.5 190,-76.5 131,-76.5"/>
<text text-anchor="middle" x="160.5" y="-83.5" font-family="Helvetica,sans-Serif" font-size="10.00">select_ci</text>
</a>
</g>
</g>
<!-- Node1&#45;&gt;Node17 -->
<g id="edge22" class="edge">
<title>Node1&#45;&gt;Node17</title>
<path fill="none" stroke="midnightblue" d="M41.27,-171.4C52.17,-155.42 76.16,-123.31 104,-105 109.3,-101.51 115.32,-98.59 121.38,-96.18"/>
<polygon fill="midnightblue" stroke="midnightblue" points="122.62,-99.45 130.85,-92.78 120.25,-92.86 122.62,-99.45"/>
</g>
<!-- Node18 -->
<g id="node18" class="node">
<title>Node18</title>
<g id="a_node18"><a xlink:href="group__datatypes__iterable__operate.html#ga4a000b3543933067bb00c6950e9122b3" target="_top" xlink:title="Return the third element of an iterable value.">
<polygon fill="white" stroke="black" points="141,-38.5 141,-57.5 180,-57.5 180,-38.5 141,-38.5"/>
<text text-anchor="middle" x="160.5" y="-45.5" font-family="Helvetica,sans-Serif" font-size="10.00">third</text>
</a>
</g>
</g>
<!-- Node1&#45;&gt;Node18 -->
<g id="edge23" class="edge">
<title>Node1&#45;&gt;Node18</title>
<path fill="none" stroke="midnightblue" d="M38.29,-171.19C46.12,-149.28 67.97,-96.03 104,-67 111.8,-60.71 121.81,-56.45 131.17,-53.59"/>
<polygon fill="midnightblue" stroke="midnightblue" points="132.17,-56.94 140.94,-51 130.38,-50.18 132.17,-56.94"/>
</g>
<!-- Node19 -->
<g id="node19" class="node">
<title>Node19</title>
<g id="a_node19"><a xlink:href="group__math__triangle.html#ga51e8d8c2004f859d216790f7966b7dfd" target="_top" xlink:title="Compute the centroid of a triangle.">
<polygon fill="white" stroke="black" points="111,-0.5 111,-19.5 210,-19.5 210,-0.5 111,-0.5"/>
<text text-anchor="middle" x="160.5" y="-7.5" font-family="Helvetica,sans-Serif" font-size="10.00">triangle_centroid</text>
</a>
</g>
</g>
<!-- Node1&#45;&gt;Node19 -->
<g id="edge25" class="edge">
<title>Node1&#45;&gt;Node19</title>
<path fill="none" stroke="midnightblue" d="M36.66,-171.25C41.71,-144.54 59.37,-69.52 104,-29 105.75,-27.41 107.63,-25.96 109.61,-24.63"/>
<polygon fill="midnightblue" stroke="midnightblue" points="111.77,-27.43 118.82,-19.52 108.38,-21.31 111.77,-27.43"/>
</g>
<!-- Node3&#45;&gt;Node2 -->
<g id="edge3" class="edge">
<title>Node3&#45;&gt;Node2</title>
<path fill="none" stroke="midnightblue" d="M180.54,-280.51C207.82,-286.97 258.31,-298.92 291.01,-306.66"/>
<polygon fill="midnightblue" stroke="midnightblue" points="290.41,-310.12 300.95,-309.02 292.03,-303.31 290.41,-310.12"/>
</g>
<!-- Node4 -->
<g id="node4" class="node">
<title>Node4</title>
<g id="a_node4"><a xlink:href="group__datatypes__iterable__operate.html#ga3d37c2b0067d1661724bd89955c8f6ce" target="_top" xlink:title="Returns an element from an iterable if it exists, or a default value if not.">
<polygon fill="white" stroke="black" points="429,-304.5 429,-323.5 508,-323.5 508,-304.5 429,-304.5"/>
<text text-anchor="middle" x="468.5" y="-311.5" font-family="Helvetica,sans-Serif" font-size="10.00">defined_e_or</text>
</a>
</g>
</g>
<!-- Node3&#45;&gt;Node4 -->
<g id="edge4" class="edge">
<title>Node3&#45;&gt;Node4</title>
<path fill="none" stroke="midnightblue" d="M180.54,-276.48C220.28,-277.73 314.85,-281.92 393,-295 403.58,-296.77 414.85,-299.3 425.34,-301.94"/>
<polygon fill="midnightblue" stroke="midnightblue" points="424.56,-305.35 435.11,-304.48 426.32,-298.58 424.56,-305.35"/>
</g>
<!-- Node3&#45;&gt;Node5 -->
<g id="edge5" class="edge">
<title>Node3&#45;&gt;Node5</title>
<path fill="none" stroke="midnightblue" d="M180.54,-271.49C202.95,-266.19 241.02,-257.17 272.02,-249.83"/>
<polygon fill="midnightblue" stroke="midnightblue" points="272.89,-253.22 281.81,-247.51 271.28,-246.41 272.89,-253.22"/>
</g>
<!-- Node3&#45;&gt;Node6 -->
<g id="edge6" class="edge">
<title>Node3&#45;&gt;Node6</title>
<path fill="none" stroke="midnightblue" d="M174.17,-266.44C191.26,-253.95 223,-232.14 253,-219 258.4,-216.64 264.16,-214.5 269.97,-212.58"/>
<polygon fill="midnightblue" stroke="midnightblue" points="271.21,-215.86 279.73,-209.56 269.15,-209.17 271.21,-215.86"/>
</g>
<!-- Node8 -->
<g id="node8" class="node">
<title>Node8</title>
<g id="a_node8"><a xlink:href="group__transforms__extrude.html#gab2442cfaf1ad44d6e295ab0979d9e03d" target="_top" xlink:title="Linearly extrude a 2d shape with uniformly&#45;spaced profile scaling.">
<polygon fill="white" stroke="black" points="268.5,-418.5 268.5,-437.5 377.5,-437.5 377.5,-418.5 268.5,-418.5"/>
<text text-anchor="middle" x="323" y="-425.5" font-family="Helvetica,sans-Serif" font-size="10.00">extrude_linear_uss</text>
</a>
</g>
</g>
<!-- Node7&#45;&gt;Node8 -->
<g id="edge8" class="edge">
<title>Node7&#45;&gt;Node8</title>
<path fill="none" stroke="midnightblue" d="M202,-399.59C223.18,-404.6 249.3,-410.79 271.76,-416.11"/>
<polygon fill="midnightblue" stroke="midnightblue" points="271.25,-419.58 281.79,-418.48 272.87,-412.77 271.25,-419.58"/>
</g>
<!-- Node9 -->
<g id="node9" class="node">
<title>Node9</title>
<g id="a_node9"><a xlink:href="group__datatypes__iterable__operate.html#gaccab3e37e43cb1d882713b3f3d6d9e1b" target="_top" xlink:title="Return the first element of an iterable value.">
<polygon fill="white" stroke="black" points="451,-456.5 451,-475.5 486,-475.5 486,-456.5 451,-456.5"/>
<text text-anchor="middle" x="468.5" y="-463.5" font-family="Helvetica,sans-Serif" font-size="10.00">first</text>
</a>
</g>
</g>
<!-- Node7&#45;&gt;Node9 -->
<g id="edge13" class="edge">
<title>Node7&#45;&gt;Node9</title>
<path fill="none" stroke="midnightblue" d="M173.01,-399.71C189.51,-413 221.41,-436.43 253,-447 317.77,-468.66 399.32,-469.08 440.73,-467.55"/>
<polygon fill="midnightblue" stroke="midnightblue" points="440.99,-471.04 450.83,-467.1 440.68,-464.05 440.99,-471.04"/>
</g>
<!-- Node10 -->
<g id="node10" class="node">
<title>Node10</title>
<g id="a_node10"><a xlink:href="group__datatypes__scalar__test.html#ga258e8911375d30ff85a6e52df01dc1c5" target="_top" xlink:title="Test if a value is a single non&#45;iterable value.">
<polygon fill="white" stroke="black" points="439,-380.5 439,-399.5 498,-399.5 498,-380.5 439,-380.5"/>
<text text-anchor="middle" x="468.5" y="-387.5" font-family="Helvetica,sans-Serif" font-size="10.00">is_scalar</text>
</a>
</g>
</g>
<!-- Node7&#45;&gt;Node10 -->
<g id="edge14" class="edge">
<title>Node7&#45;&gt;Node10</title>
<path fill="none" stroke="midnightblue" d="M217.27,-390C278.52,-390 375.27,-390 428.75,-390"/>
<polygon fill="midnightblue" stroke="midnightblue" points="428.84,-393.5 438.84,-390 428.84,-386.5 428.84,-393.5"/>
</g>
<!-- Node12 -->
<g id="node12" class="node">
<title>Node12</title>
<g id="a_node12"><a xlink:href="group__datatypes__list__operate.html#gae12565005038993506dc37249e32766d" target="_top" xlink:title="Compute the sum of a list of numbers.">
<polygon fill="white" stroke="black" points="304,-342.5 304,-361.5 342,-361.5 342,-342.5 304,-342.5"/>
<text text-anchor="middle" x="323" y="-349.5" font-family="Helvetica,sans-Serif" font-size="10.00">sum</text>
</a>
</g>
</g>
<!-- Node7&#45;&gt;Node12 -->
<g id="edge15" class="edge">
<title>Node7&#45;&gt;Node12</title>
<path fill="none" stroke="midnightblue" d="M202,-380.41C230.73,-373.61 268.55,-364.65 293.99,-358.63"/>
<polygon fill="midnightblue" stroke="midnightblue" points="294.82,-362.03 303.74,-356.32 293.21,-355.22 294.82,-362.03"/>
</g>
<!-- Node8&#45;&gt;Node4 -->
<g id="edge9" class="edge">
<title>Node8&#45;&gt;Node4</title>
<path fill="none" stroke="midnightblue" d="M336.23,-418.28C360.91,-398.68 416.86,-354.23 447.14,-330.18"/>
<polygon fill="midnightblue" stroke="midnightblue" points="449.64,-332.66 455.3,-323.69 445.29,-327.17 449.64,-332.66"/>
</g>
<!-- Node8&#45;&gt;Node9 -->
<g id="edge10" class="edge">
<title>Node8&#45;&gt;Node9</title>
<path fill="none" stroke="midnightblue" d="M360.21,-437.59C385.3,-444.23 418.14,-452.93 440.85,-458.94"/>
<polygon fill="midnightblue" stroke="midnightblue" points="440.24,-462.4 450.8,-461.58 442.03,-455.63 440.24,-462.4"/>
</g>
<!-- Node8&#45;&gt;Node10 -->
<g id="edge11" class="edge">
<title>Node8&#45;&gt;Node10</title>
<path fill="none" stroke="midnightblue" d="M360.21,-418.41C381.28,-412.83 407.83,-405.8 429.24,-400.13"/>
<polygon fill="midnightblue" stroke="midnightblue" points="430.22,-403.49 438.99,-397.55 428.43,-396.73 430.22,-403.49"/>
</g>
<!-- Node11 -->
<g id="node11" class="node">
<title>Node11</title>
<g id="a_node11"><a xlink:href="group__datatypes__iterable__operate.html#ga894d4bec62cc9cf38d5e099de3028c54" target="_top" xlink:title="Return the second element of an iterable value.">
<polygon fill="white" stroke="black" points="443,-418.5 443,-437.5 494,-437.5 494,-418.5 443,-418.5"/>
<text text-anchor="middle" x="468.5" y="-425.5" font-family="Helvetica,sans-Serif" font-size="10.00">second</text>
</a>
</g>
</g>
<!-- Node8&#45;&gt;Node11 -->
<g id="edge12" class="edge">
<title>Node8&#45;&gt;Node11</title>
<path fill="none" stroke="midnightblue" d="M377.84,-428C396.11,-428 416.03,-428 432.45,-428"/>
<polygon fill="midnightblue" stroke="midnightblue" points="432.67,-431.5 442.67,-428 432.67,-424.5 432.67,-431.5"/>
</g>
<!-- Node14&#45;&gt;Node2 -->
<g id="edge19" class="edge">
<title>Node14&#45;&gt;Node2</title>
<path fill="none" stroke="midnightblue" d="M170,-171.51C185.77,-189.02 220.92,-227.27 253,-257 268.67,-271.52 287.41,-286.88 301.4,-297.99"/>
<polygon fill="midnightblue" stroke="midnightblue" points="299.41,-300.88 309.43,-304.32 303.74,-295.38 299.41,-300.88"/>
</g>
<!-- Node15 -->
<g id="node15" class="node">
<title>Node15</title>
<g id="a_node15"><a xlink:href="group__datatypes__euclidean.html#ga3d5c07c70f271bcf9144f50ce8620a89" target="_top" xlink:title="Compute the angle between two lines or vectors in a 3d or 2d&#45;space.">
<polygon fill="white" stroke="black" points="295.5,-152.5 295.5,-171.5 350.5,-171.5 350.5,-152.5 295.5,-152.5"/>
<text text-anchor="middle" x="323" y="-159.5" font-family="Helvetica,sans-Serif" font-size="10.00">angle_ll</text>
</a>
</g>
</g>
<!-- Node14&#45;&gt;Node15 -->
<g id="edge20" class="edge">
<title>Node14&#45;&gt;Node15</title>
<path fill="none" stroke="midnightblue" d="M201.17,-162C226.84,-162 260.02,-162 285.12,-162"/>
<polygon fill="midnightblue" stroke="midnightblue" points="285.33,-165.5 295.33,-162 285.33,-158.5 285.33,-165.5"/>
</g>
<!-- Node16 -->
<g id="node16" class="node">
<title>Node16</title>
<g id="a_node16"><a xlink:href="group__math__polygon.html#ga8c717f95615525c0b53693ba1f5fdb69" target="_top" xlink:title="Compute coordinates for an n&#45;sided regular polygon in 2D.">
<polygon fill="white" stroke="black" points="269.5,-114.5 269.5,-133.5 376.5,-133.5 376.5,-114.5 269.5,-114.5"/>
<text text-anchor="middle" x="323" y="-121.5" font-family="Helvetica,sans-Serif" font-size="10.00">polygon_regular_p</text>
</a>
</g>
</g>
<!-- Node14&#45;&gt;Node16 -->
<g id="edge21" class="edge">
<title>Node14&#45;&gt;Node16</title>
<path fill="none" stroke="midnightblue" d="M201.17,-152.61C222.52,-147.55 249.07,-141.27 271.84,-135.88"/>
<polygon fill="midnightblue" stroke="midnightblue" points="272.74,-139.26 281.67,-133.55 271.13,-132.45 272.74,-139.26"/>
</g>
</g>
</svg>
