<?xml version="1.0" encoding="UTF-8" standalone="no"?>
<!DOCTYPE svg PUBLIC "-//W3C//DTD SVG 1.1//EN"
 "http://www.w3.org/Graphics/SVG/1.1/DTD/svg11.dtd">
<!-- Generated by graphviz version 2.43.0 (0)
 -->
<!-- Title: Screws Pages: 1 -->
<svg width="267pt" height="175pt"
 viewBox="0.00 0.00 267.00 175.00" xmlns="http://www.w3.org/2000/svg" xmlns:xlink="http://www.w3.org/1999/xlink">
<g id="graph0" class="graph" transform="scale(1 1) rotate(0) translate(4 171)">
<title>Screws</title>
<polygon fill="white" stroke="transparent" points="-4,4 -4,-171 263,-171 263,4 -4,4"/>
<!-- Node3 -->
<g id="node1" class="node">
<title>Node3</title>
<g id="a_node1"><a xlink:href="group__database__component__fastener__ansi__b18__3__5m.html" target="_top" xlink:title="[metric/screws] Flat head socket cap screws; ANSI B18.3.5M; ASME.">
<polygon fill="white" stroke="black" points="259,-167 170,-167 170,-148 259,-148 259,-167"/>
<text text-anchor="middle" x="214.5" y="-155" font-family="Helvetica,sans-Serif" font-size="10.00">ANSI B18.3.5M</text>
</a>
</g>
</g>
<!-- Node7 -->
<g id="node2" class="node">
<title>Node7</title>
<g id="a_node2"><a xlink:href="group__database__component__fastener__iso__7380.html" target="_top" xlink:title="[metric/screws] Button head socket cap screws; ISO 7380; DIN EN ISO 7380&#45;1.">
<polygon fill="white" stroke="black" points="244.5,-130 184.5,-130 184.5,-111 244.5,-111 244.5,-130"/>
<text text-anchor="middle" x="214.5" y="-118" font-family="Helvetica,sans-Serif" font-size="10.00">ISO 7380</text>
</a>
</g>
</g>
<!-- Node2 -->
<g id="node3" class="node">
<title>Node2</title>
<g id="a_node3"><a xlink:href="group__database__component__fastener__Metric.html" target="_top" xlink:title=" ">
<polygon fill="white" stroke="black" points="47,-93 0,-93 0,-74 47,-74 47,-93"/>
<text text-anchor="middle" x="23.5" y="-81" font-family="Helvetica,sans-Serif" font-size="10.00">Metric</text>
</a>
</g>
</g>
<!-- Node1 -->
<g id="node4" class="node">
<title>Node1</title>
<g id="a_node4"><a xlink:title=" ">
<polygon fill="#bfbfbf" stroke="black" points="134,-93 83,-93 83,-74 134,-74 134,-93"/>
<text text-anchor="middle" x="108.5" y="-81" font-family="Helvetica,sans-Serif" font-size="10.00">Screws</text>
</a>
</g>
</g>
<!-- Node2&#45;&gt;Node1 -->
<g id="edge1" class="edge">
<title>Node2&#45;&gt;Node1</title>
<path fill="none" stroke="black" d="M57.22,-83.5C65.74,-83.5 74.78,-83.5 82.81,-83.5"/>
<polygon fill="black" stroke="black" points="57.18,-80 47.18,-83.5 57.18,-87 57.18,-80"/>
</g>
<!-- Node1&#45;&gt;Node3 -->
<g id="edge2" class="edge">
<title>Node1&#45;&gt;Node3</title>
<path fill="none" stroke="black" d="M125.18,-100.98C136.67,-113.02 153.16,-128.71 170,-139.5 174.96,-142.67 180.56,-145.49 186.07,-147.89"/>
<polygon fill="black" stroke="black" points="127.44,-98.28 118.07,-93.34 122.32,-103.05 127.44,-98.28"/>
</g>
<!-- Node1&#45;&gt;Node7 -->
<g id="edge6" class="edge">
<title>Node1&#45;&gt;Node7</title>
<path fill="none" stroke="black" d="M143.84,-95.72C157.7,-100.65 173.45,-106.25 186.47,-110.89"/>
<polygon fill="black" stroke="black" points="144.74,-92.32 134.15,-92.27 142.39,-98.92 144.74,-92.32"/>
</g>
<!-- Node4 -->
<g id="node5" class="node">
<title>Node4</title>
<g id="a_node5"><a xlink:href="group__database__component__fastener__iso__4762.html" target="_top" xlink:title="[metric/screws] Socket cap screws; ISO 4762; DIN 912.">
<polygon fill="white" stroke="black" points="244.5,-93 184.5,-93 184.5,-74 244.5,-74 244.5,-93"/>
<text text-anchor="middle" x="214.5" y="-81" font-family="Helvetica,sans-Serif" font-size="10.00">ISO 4762</text>
</a>
</g>
</g>
<!-- Node1&#45;&gt;Node4 -->
<g id="edge3" class="edge">
<title>Node1&#45;&gt;Node4</title>
<path fill="none" stroke="black" d="M144.53,-83.5C157.43,-83.5 171.89,-83.5 184.23,-83.5"/>
<polygon fill="black" stroke="black" points="144.15,-80 134.15,-83.5 144.15,-87 144.15,-80"/>
</g>
<!-- Node5 -->
<g id="node6" class="node">
<title>Node5</title>
<g id="a_node6"><a xlink:href="group__database__component__fastener__iso__7046__1p.html" target="_top" xlink:title="[metric/screws] Phillips flat head machine screws; ISO 7046&#45;1p; DIN 965.">
<polygon fill="white" stroke="black" points="252.5,-56 176.5,-56 176.5,-37 252.5,-37 252.5,-56"/>
<text text-anchor="middle" x="214.5" y="-44" font-family="Helvetica,sans-Serif" font-size="10.00">ISO 7046&#45;1p</text>
</a>
</g>
</g>
<!-- Node1&#45;&gt;Node5 -->
<g id="edge4" class="edge">
<title>Node1&#45;&gt;Node5</title>
<path fill="none" stroke="black" d="M143.84,-71.28C157.7,-66.35 173.45,-60.75 186.47,-56.11"/>
<polygon fill="black" stroke="black" points="142.39,-68.08 134.15,-74.73 144.74,-74.68 142.39,-68.08"/>
</g>
<!-- Node6 -->
<g id="node7" class="node">
<title>Node6</title>
<g id="a_node7"><a xlink:href="group__database__component__fastener__iso__7046__1s.html" target="_top" xlink:title="[metric/screws] Slotted flat head machine screws; ISO 7046&#45;1s; DIN 965.">
<polygon fill="white" stroke="black" points="252,-19 177,-19 177,0 252,0 252,-19"/>
<text text-anchor="middle" x="214.5" y="-7" font-family="Helvetica,sans-Serif" font-size="10.00">ISO 7046&#45;1s</text>
</a>
</g>
</g>
<!-- Node1&#45;&gt;Node6 -->
<g id="edge5" class="edge">
<title>Node1&#45;&gt;Node6</title>
<path fill="none" stroke="black" d="M125.18,-66.02C136.67,-53.98 153.16,-38.29 170,-27.5 174.96,-24.33 180.56,-21.51 186.07,-19.11"/>
<polygon fill="black" stroke="black" points="122.32,-63.95 118.07,-73.66 127.44,-68.72 122.32,-63.95"/>
</g>
</g>
</svg>
