<?xml version="1.0" encoding="UTF-8" standalone="no"?>
<!DOCTYPE svg PUBLIC "-//W3C//DTD SVG 1.1//EN"
 "http://www.w3.org/Graphics/SVG/1.1/DTD/svg11.dtd">
<!-- Generated by graphviz version 2.43.0 (0)
 -->
<!-- Title: 2d Parts Pages: 1 -->
<svg width="241pt" height="27pt"
 viewBox="0.00 0.00 241.00 27.00" xmlns="http://www.w3.org/2000/svg" xmlns:xlink="http://www.w3.org/1999/xlink">
<g id="graph0" class="graph" transform="scale(1 1) rotate(0) translate(4 23)">
<title>2d Parts</title>
<polygon fill="white" stroke="transparent" points="-4,4 -4,-23 237,-23 237,4 -4,4"/>
<!-- Node1 -->
<g id="node1" class="node">
<title>Node1</title>
<g id="a_node1"><a xlink:title="2d parts, part generators, and small assemblies.">
<polygon fill="#bfbfbf" stroke="black" points="133,-19 77,-19 77,0 133,0 133,-19"/>
<text text-anchor="middle" x="105" y="-7" font-family="Helvetica,sans-Serif" font-size="10.00">2d Parts</text>
</a>
</g>
</g>
<!-- Node3 -->
<g id="node3" class="node">
<title>Node3</title>
<g id="a_node3"><a xlink:href="group__parts__2d__enclosure.html" target="_top" xlink:title="Project boxes, housings and enclosures.">
<polygon fill="white" stroke="black" points="233,-19 169,-19 169,0 233,0 233,-19"/>
<text text-anchor="middle" x="201" y="-7" font-family="Helvetica,sans-Serif" font-size="10.00">Enclosure</text>
</a>
</g>
</g>
<!-- Node1&#45;&gt;Node3 -->
<g id="edge2" class="edge">
<title>Node1&#45;&gt;Node3</title>
<path fill="none" stroke="black" d="M143.25,-9.5C151.75,-9.5 160.69,-9.5 168.9,-9.5"/>
<polygon fill="black" stroke="black" points="143.19,-6 133.19,-9.5 143.19,-13 143.19,-6"/>
</g>
<!-- Node2 -->
<g id="node2" class="node">
<title>Node2</title>
<g id="a_node2"><a xlink:href="group__parts.html" target="_top" xlink:title="Parametric design parts, generators, and small assemblies.">
<polygon fill="white" stroke="black" points="41,-19 0,-19 0,0 41,0 41,-19"/>
<text text-anchor="middle" x="20.5" y="-7" font-family="Helvetica,sans-Serif" font-size="10.00">Parts</text>
</a>
</g>
</g>
<!-- Node2&#45;&gt;Node1 -->
<g id="edge1" class="edge">
<title>Node2&#45;&gt;Node1</title>
<path fill="none" stroke="black" d="M51.16,-9.5C59.52,-9.5 68.57,-9.5 76.79,-9.5"/>
<polygon fill="black" stroke="black" points="51.05,-6 41.05,-9.5 51.05,-13 51.05,-6"/>
</g>
</g>
</svg>
