<?xml version="1.0" encoding="UTF-8" standalone="no"?>
<!DOCTYPE svg PUBLIC "-//W3C//DTD SVG 1.1//EN"
 "http://www.w3.org/Graphics/SVG/1.1/DTD/svg11.dtd">
<!-- Generated by graphviz version 2.43.0 (0)
 -->
<!-- Title: pci_bracket Pages: 1 -->
<svg width="489pt" height="598pt"
 viewBox="0.00 0.00 489.00 598.36" xmlns="http://www.w3.org/2000/svg" xmlns:xlink="http://www.w3.org/1999/xlink">
<g id="graph0" class="graph" transform="scale(1 1) rotate(0) translate(4 594.36)">
<title>pci_bracket</title>
<polygon fill="white" stroke="transparent" points="-4,4 -4,-594.36 485,-594.36 485,4 -4,4"/>
<!-- Node1 -->
<g id="node1" class="node">
<title>Node1</title>
<g id="a_node1"><a xlink:title="PCI slot cover and adapter card bracket generator.">
<polygon fill="#bfbfbf" stroke="black" points="0,-304.5 0,-323.5 72,-323.5 72,-304.5 0,-304.5"/>
<text text-anchor="middle" x="36" y="-311.5" font-family="Helvetica,sans-Serif" font-size="10.00">pci_bracket</text>
</a>
</g>
</g>
<!-- Node2 -->
<g id="node2" class="node">
<title>Node2</title>
<g id="a_node2"><a xlink:href="group__datatypes__binary.html#ga7ce4ed94d9b389ff817ea219918b8732" target="_top" xlink:title="Test if a binary bit position of an integer value equals a test bit.">
<polygon fill="white" stroke="black" points="272,-304.5 272,-323.5 351,-323.5 351,-304.5 272,-304.5"/>
<text text-anchor="middle" x="311.5" y="-311.5" font-family="Helvetica,sans-Serif" font-size="10.00">binary_bit_is</text>
</a>
</g>
</g>
<!-- Node1&#45;&gt;Node2 -->
<g id="edge1" class="edge">
<title>Node1&#45;&gt;Node2</title>
<path fill="none" stroke="midnightblue" d="M72.2,-314C120.45,-314 207.34,-314 261.81,-314"/>
<polygon fill="midnightblue" stroke="midnightblue" points="261.92,-317.5 271.92,-314 261.92,-310.5 261.92,-317.5"/>
</g>
<!-- Node3 -->
<g id="node3" class="node">
<title>Node3</title>
<g id="a_node3"><a xlink:href="group__datatypes__iterable__operate.html#ga3d37c2b0067d1661724bd89955c8f6ce" target="_top" xlink:title="Returns an element from an iterable if it exists, or a default value if not.">
<polygon fill="white" stroke="black" points="402,-456.5 402,-475.5 481,-475.5 481,-456.5 402,-456.5"/>
<text text-anchor="middle" x="441.5" y="-463.5" font-family="Helvetica,sans-Serif" font-size="10.00">defined_e_or</text>
</a>
</g>
</g>
<!-- Node1&#45;&gt;Node3 -->
<g id="edge2" class="edge">
<title>Node1&#45;&gt;Node3</title>
<path fill="none" stroke="midnightblue" d="M37.73,-323.8C40.55,-353.7 53.43,-444.19 108,-485 200.01,-553.8 253.87,-526.03 366,-501 383.68,-497.05 402.11,-488.44 416.22,-480.74"/>
<polygon fill="midnightblue" stroke="midnightblue" points="418.27,-483.6 425.24,-475.63 414.81,-477.52 418.27,-483.6"/>
</g>
<!-- Node4 -->
<g id="node4" class="node">
<title>Node4</title>
<g id="a_node4"><a xlink:href="group__datatypes__scalar__operate.html#gac119300e8c83de0037f2d0a4d9f0ab5c" target="_top" xlink:title="Return given value, if defined, or a secondary value, if primary is not defined.">
<polygon fill="white" stroke="black" points="130.5,-38.5 130.5,-57.5 198.5,-57.5 198.5,-38.5 130.5,-38.5"/>
<text text-anchor="middle" x="164.5" y="-45.5" font-family="Helvetica,sans-Serif" font-size="10.00">defined_or</text>
</a>
</g>
</g>
<!-- Node1&#45;&gt;Node4 -->
<g id="edge3" class="edge">
<title>Node1&#45;&gt;Node4</title>
<path fill="none" stroke="midnightblue" d="M37.05,-304.31C37.74,-268.72 44.77,-143.51 108,-72 111.74,-67.77 116.35,-64.26 121.31,-61.36"/>
<polygon fill="midnightblue" stroke="midnightblue" points="123.13,-64.36 130.49,-56.75 119.99,-58.1 123.13,-64.36"/>
</g>
<!-- Node5 -->
<g id="node5" class="node">
<title>Node5</title>
<g id="a_node5"><a xlink:href="group__shapes__common__2d.html#gaab97b88ae14f45c662652a74efc92d59" target="_top" xlink:title="An ellipse.">
<polygon fill="white" stroke="black" points="287,-418.5 287,-437.5 336,-437.5 336,-418.5 287,-418.5"/>
<text text-anchor="middle" x="311.5" y="-425.5" font-family="Helvetica,sans-Serif" font-size="10.00">ellipse</text>
</a>
</g>
</g>
<!-- Node1&#45;&gt;Node5 -->
<g id="edge4" class="edge">
<title>Node1&#45;&gt;Node5</title>
<path fill="none" stroke="midnightblue" d="M46.66,-323.92C59.53,-336.6 83.55,-358.41 108,-371 163.56,-399.6 235.31,-415.43 276.79,-422.79"/>
<polygon fill="midnightblue" stroke="midnightblue" points="276.46,-426.28 286.91,-424.52 277.64,-419.38 276.46,-426.28"/>
</g>
<!-- Node6 -->
<g id="node6" class="node">
<title>Node6</title>
<g id="a_node6"><a xlink:href="group__shapes__common__3d.html#gae19b5c3317cb94e9e7b1bd443f3582e5" target="_top" xlink:title="An ellipsoid.">
<polygon fill="white" stroke="black" points="282.5,-570.5 282.5,-589.5 340.5,-589.5 340.5,-570.5 282.5,-570.5"/>
<text text-anchor="middle" x="311.5" y="-577.5" font-family="Helvetica,sans-Serif" font-size="10.00">ellipsoid</text>
</a>
</g>
</g>
<!-- Node1&#45;&gt;Node6 -->
<g id="edge6" class="edge">
<title>Node1&#45;&gt;Node6</title>
<path fill="none" stroke="midnightblue" d="M36.44,-323.57C34.87,-360.4 34.6,-493.96 108,-556 153.68,-594.61 227.27,-592.71 272.03,-586.95"/>
<polygon fill="midnightblue" stroke="midnightblue" points="272.8,-590.38 282.21,-585.51 271.82,-583.45 272.8,-590.38"/>
</g>
<!-- Node7 -->
<g id="node7" class="node">
<title>Node7</title>
<g id="a_node7"><a xlink:href="group__transforms__extrude.html#ga45661244067bf945b684550c3263ee45" target="_top" xlink:title="Linearly extrude a 2d shape with multi&#45;segment uniformly&#45;spaced profile scaling.">
<polygon fill="white" stroke="black" points="108,-228.5 108,-247.5 221,-247.5 221,-228.5 108,-228.5"/>
<text text-anchor="middle" x="164.5" y="-235.5" font-family="Helvetica,sans-Serif" font-size="10.00">extrude_linear_mss</text>
</a>
</g>
</g>
<!-- Node1&#45;&gt;Node7 -->
<g id="edge8" class="edge">
<title>Node1&#45;&gt;Node7</title>
<path fill="none" stroke="midnightblue" d="M53.02,-304.37C74.69,-291.35 113.55,-268.01 138.93,-252.76"/>
<polygon fill="midnightblue" stroke="midnightblue" points="140.84,-255.7 147.61,-247.55 137.23,-249.7 140.84,-255.7"/>
</g>
<!-- Node9 -->
<g id="node9" class="node">
<title>Node9</title>
<g id="a_node9"><a xlink:href="group__datatypes__iterable__operate.html#gaccab3e37e43cb1d882713b3f3d6d9e1b" target="_top" xlink:title="Return the first element of an iterable value.">
<polygon fill="white" stroke="black" points="424,-152.5 424,-171.5 459,-171.5 459,-152.5 424,-152.5"/>
<text text-anchor="middle" x="441.5" y="-159.5" font-family="Helvetica,sans-Serif" font-size="10.00">first</text>
</a>
</g>
</g>
<!-- Node1&#45;&gt;Node9 -->
<g id="edge17" class="edge">
<title>Node1&#45;&gt;Node9</title>
<path fill="none" stroke="midnightblue" d="M41.92,-304.29C51.93,-285.4 76.41,-243.45 108,-219 164.58,-175.2 186.79,-171.82 257,-158 311.83,-147.21 377.64,-153.08 413.67,-157.85"/>
<polygon fill="midnightblue" stroke="midnightblue" points="413.46,-161.35 423.85,-159.27 414.43,-154.42 413.46,-161.35"/>
</g>
<!-- Node11 -->
<g id="node11" class="node">
<title>Node11</title>
<g id="a_node11"><a xlink:href="group__datatypes__iterable__operate.html#ga894d4bec62cc9cf38d5e099de3028c54" target="_top" xlink:title="Return the second element of an iterable value.">
<polygon fill="white" stroke="black" points="416,-95.5 416,-114.5 467,-114.5 467,-95.5 416,-95.5"/>
<text text-anchor="middle" x="441.5" y="-102.5" font-family="Helvetica,sans-Serif" font-size="10.00">second</text>
</a>
</g>
</g>
<!-- Node1&#45;&gt;Node11 -->
<g id="edge25" class="edge">
<title>Node1&#45;&gt;Node11</title>
<path fill="none" stroke="midnightblue" d="M38.38,-304.18C42.81,-276.61 59.34,-198.12 108,-161 197.5,-92.73 340.15,-95.43 405.6,-101"/>
<polygon fill="midnightblue" stroke="midnightblue" points="405.52,-104.5 415.8,-101.94 406.16,-97.53 405.52,-104.5"/>
</g>
<!-- Node13 -->
<g id="node13" class="node">
<title>Node13</title>
<g id="a_node13"><a xlink:href="group__shapes__common__2d.html#gacadcce23cf1a0bd2ce3b2bafb9667187" target="_top" xlink:title="An n&#45;sided equiangular/equilateral regular polygon.">
<polygon fill="white" stroke="black" points="144,-456.5 144,-475.5 185,-475.5 185,-456.5 144,-456.5"/>
<text text-anchor="middle" x="164.5" y="-463.5" font-family="Helvetica,sans-Serif" font-size="10.00">ngon</text>
</a>
</g>
</g>
<!-- Node1&#45;&gt;Node13 -->
<g id="edge18" class="edge">
<title>Node1&#45;&gt;Node13</title>
<path fill="none" stroke="midnightblue" d="M41.93,-323.79C52.32,-343.85 78.01,-390.45 108,-423 117.42,-433.22 129.46,-442.87 139.92,-450.43"/>
<polygon fill="midnightblue" stroke="midnightblue" points="138.04,-453.39 148.24,-456.25 142.06,-447.65 138.04,-453.39"/>
</g>
<!-- Node15 -->
<g id="node15" class="node">
<title>Node15</title>
<g id="a_node15"><a xlink:href="group__shapes__common__2d.html#ga8d313ecffdd059e84d007824ae89ff41" target="_top" xlink:title="A rectangle with corner rounds or chamfers.">
<polygon fill="white" stroke="black" points="133.5,-342.5 133.5,-361.5 195.5,-361.5 195.5,-342.5 133.5,-342.5"/>
<text text-anchor="middle" x="164.5" y="-349.5" font-family="Helvetica,sans-Serif" font-size="10.00">rectangle</text>
</a>
</g>
</g>
<!-- Node1&#45;&gt;Node15 -->
<g id="edge21" class="edge">
<title>Node1&#45;&gt;Node15</title>
<path fill="none" stroke="midnightblue" d="M68.92,-323.59C85.44,-328.55 105.78,-334.66 123.35,-339.94"/>
<polygon fill="midnightblue" stroke="midnightblue" points="122.75,-343.41 133.33,-342.94 124.76,-336.71 122.75,-343.41"/>
</g>
<!-- Node16 -->
<g id="node16" class="node">
<title>Node16</title>
<g id="a_node16"><a xlink:href="group__datatypes__list__operate.html#ga7b8e6f2bbfa72ae61e39377e5ca6b5be" target="_top" xlink:title="Select specified element from list or return a default.">
<polygon fill="white" stroke="black" points="135,-0.5 135,-19.5 194,-19.5 194,-0.5 135,-0.5"/>
<text text-anchor="middle" x="164.5" y="-7.5" font-family="Helvetica,sans-Serif" font-size="10.00">select_ci</text>
</a>
</g>
</g>
<!-- Node1&#45;&gt;Node16 -->
<g id="edge26" class="edge">
<title>Node1&#45;&gt;Node16</title>
<path fill="none" stroke="midnightblue" d="M38.16,-304.33C43.76,-259.39 69.21,-71.26 108,-29 112.67,-23.91 118.77,-20.18 125.2,-17.45"/>
<polygon fill="midnightblue" stroke="midnightblue" points="126.46,-20.72 134.75,-14.13 124.15,-14.11 126.46,-20.72"/>
</g>
<!-- Node5&#45;&gt;Node3 -->
<g id="edge5" class="edge">
<title>Node5&#45;&gt;Node3</title>
<path fill="none" stroke="midnightblue" d="M336.28,-435.06C353.67,-440.22 377.74,-447.37 398.36,-453.49"/>
<polygon fill="midnightblue" stroke="midnightblue" points="397.58,-456.91 408.16,-456.4 399.57,-450.2 397.58,-456.91"/>
</g>
<!-- Node6&#45;&gt;Node3 -->
<g id="edge7" class="edge">
<title>Node6&#45;&gt;Node3</title>
<path fill="none" stroke="midnightblue" d="M340.23,-570.41C348.95,-566.67 358.3,-561.86 366,-556 392.75,-535.64 416.09,-503.92 429.23,-484.08"/>
<polygon fill="midnightblue" stroke="midnightblue" points="432.19,-485.94 434.67,-475.64 426.31,-482.15 432.19,-485.94"/>
</g>
<!-- Node8 -->
<g id="node8" class="node">
<title>Node8</title>
<g id="a_node8"><a xlink:href="group__transforms__extrude.html#gab2442cfaf1ad44d6e295ab0979d9e03d" target="_top" xlink:title="Linearly extrude a 2d shape with uniformly&#45;spaced profile scaling.">
<polygon fill="white" stroke="black" points="257,-190.5 257,-209.5 366,-209.5 366,-190.5 257,-190.5"/>
<text text-anchor="middle" x="311.5" y="-197.5" font-family="Helvetica,sans-Serif" font-size="10.00">extrude_linear_uss</text>
</a>
</g>
</g>
<!-- Node7&#45;&gt;Node8 -->
<g id="edge9" class="edge">
<title>Node7&#45;&gt;Node8</title>
<path fill="none" stroke="midnightblue" d="M202.09,-228.41C220.97,-223.46 244.19,-217.38 264.29,-212.11"/>
<polygon fill="midnightblue" stroke="midnightblue" points="265.39,-215.44 274.17,-209.52 263.61,-208.67 265.39,-215.44"/>
</g>
<!-- Node7&#45;&gt;Node9 -->
<g id="edge14" class="edge">
<title>Node7&#45;&gt;Node9</title>
<path fill="none" stroke="midnightblue" d="M177.03,-228.36C193.56,-215.14 225.49,-191.8 257,-181 310.27,-162.75 376.92,-160.6 413.45,-161.05"/>
<polygon fill="midnightblue" stroke="midnightblue" points="413.7,-164.56 423.77,-161.26 413.84,-157.56 413.7,-164.56"/>
</g>
<!-- Node10 -->
<g id="node10" class="node">
<title>Node10</title>
<g id="a_node10"><a xlink:href="group__datatypes__scalar__test.html#ga258e8911375d30ff85a6e52df01dc1c5" target="_top" xlink:title="Test if a value is a single non&#45;iterable value.">
<polygon fill="white" stroke="black" points="412,-266.5 412,-285.5 471,-285.5 471,-266.5 412,-266.5"/>
<text text-anchor="middle" x="441.5" y="-273.5" font-family="Helvetica,sans-Serif" font-size="10.00">is_scalar</text>
</a>
</g>
</g>
<!-- Node7&#45;&gt;Node10 -->
<g id="edge15" class="edge">
<title>Node7&#45;&gt;Node10</title>
<path fill="none" stroke="midnightblue" d="M206.79,-247.5C222.45,-250.86 240.49,-254.44 257,-257 306.55,-264.69 364.11,-270.08 401.37,-273.11"/>
<polygon fill="midnightblue" stroke="midnightblue" points="401.53,-276.63 411.78,-273.93 402.09,-269.65 401.53,-276.63"/>
</g>
<!-- Node12 -->
<g id="node12" class="node">
<title>Node12</title>
<g id="a_node12"><a xlink:href="group__datatypes__list__operate.html#gae12565005038993506dc37249e32766d" target="_top" xlink:title="Compute the sum of a list of numbers.">
<polygon fill="white" stroke="black" points="292.5,-228.5 292.5,-247.5 330.5,-247.5 330.5,-228.5 292.5,-228.5"/>
<text text-anchor="middle" x="311.5" y="-235.5" font-family="Helvetica,sans-Serif" font-size="10.00">sum</text>
</a>
</g>
</g>
<!-- Node7&#45;&gt;Node12 -->
<g id="edge16" class="edge">
<title>Node7&#45;&gt;Node12</title>
<path fill="none" stroke="midnightblue" d="M221.15,-238C242.05,-238 264.92,-238 282.3,-238"/>
<polygon fill="midnightblue" stroke="midnightblue" points="282.34,-241.5 292.34,-238 282.34,-234.5 282.34,-241.5"/>
</g>
<!-- Node8&#45;&gt;Node3 -->
<g id="edge10" class="edge">
<title>Node8&#45;&gt;Node3</title>
<path fill="none" stroke="midnightblue" d="M353,-209.62C357.83,-212.07 362.33,-215.15 366,-219 398.02,-252.61 427.03,-393.74 436.91,-446.23"/>
<polygon fill="midnightblue" stroke="midnightblue" points="433.51,-447.08 438.77,-456.27 440.39,-445.8 433.51,-447.08"/>
</g>
<!-- Node8&#45;&gt;Node9 -->
<g id="edge11" class="edge">
<title>Node8&#45;&gt;Node9</title>
<path fill="none" stroke="midnightblue" d="M344.8,-190.41C366.24,-184.05 394.04,-175.79 414.14,-169.82"/>
<polygon fill="midnightblue" stroke="midnightblue" points="415.29,-173.14 423.88,-166.93 413.3,-166.42 415.29,-173.14"/>
</g>
<!-- Node8&#45;&gt;Node10 -->
<g id="edge12" class="edge">
<title>Node8&#45;&gt;Node10</title>
<path fill="none" stroke="midnightblue" d="M344.61,-209.57C351.83,-212.22 359.33,-215.38 366,-219 386.82,-230.3 408.03,-247.16 422.47,-259.61"/>
<polygon fill="midnightblue" stroke="midnightblue" points="420.31,-262.38 430.13,-266.36 424.94,-257.13 420.31,-262.38"/>
</g>
<!-- Node8&#45;&gt;Node11 -->
<g id="edge13" class="edge">
<title>Node8&#45;&gt;Node11</title>
<path fill="none" stroke="midnightblue" d="M325.72,-190.19C347.87,-173.75 392.67,-140.5 419.28,-120.75"/>
<polygon fill="midnightblue" stroke="midnightblue" points="421.6,-123.38 427.55,-114.61 417.43,-117.76 421.6,-123.38"/>
</g>
<!-- Node13&#45;&gt;Node3 -->
<g id="edge19" class="edge">
<title>Node13&#45;&gt;Node3</title>
<path fill="none" stroke="midnightblue" d="M185.31,-471.34C203.72,-476.01 231.98,-482.43 257,-485 305.19,-489.95 317.93,-491.03 366,-485 377.36,-483.57 389.46,-480.97 400.55,-478.14"/>
<polygon fill="midnightblue" stroke="midnightblue" points="401.63,-481.47 410.38,-475.5 399.82,-474.71 401.63,-481.47"/>
</g>
<!-- Node14 -->
<g id="node14" class="node">
<title>Node14</title>
<g id="a_node14"><a xlink:href="group__math__polygon.html#ga8c717f95615525c0b53693ba1f5fdb69" target="_top" xlink:title="Compute coordinates for an n&#45;sided regular polygon in 2D.">
<polygon fill="white" stroke="black" points="258,-456.5 258,-475.5 365,-475.5 365,-456.5 258,-456.5"/>
<text text-anchor="middle" x="311.5" y="-463.5" font-family="Helvetica,sans-Serif" font-size="10.00">polygon_regular_p</text>
</a>
</g>
</g>
<!-- Node13&#45;&gt;Node14 -->
<g id="edge20" class="edge">
<title>Node13&#45;&gt;Node14</title>
<path fill="none" stroke="midnightblue" d="M185.06,-466C201.21,-466 225.08,-466 247.67,-466"/>
<polygon fill="midnightblue" stroke="midnightblue" points="247.93,-469.5 257.93,-466 247.93,-462.5 247.93,-469.5"/>
</g>
<!-- Node15&#45;&gt;Node2 -->
<g id="edge22" class="edge">
<title>Node15&#45;&gt;Node2</title>
<path fill="none" stroke="midnightblue" d="M195.54,-344.13C215.42,-338.92 241.86,-331.99 264.37,-326.09"/>
<polygon fill="midnightblue" stroke="midnightblue" points="265.29,-329.47 274.07,-323.55 263.51,-322.7 265.29,-329.47"/>
</g>
<!-- Node15&#45;&gt;Node3 -->
<g id="edge23" class="edge">
<title>Node15&#45;&gt;Node3</title>
<path fill="none" stroke="midnightblue" d="M195.69,-356.87C236.11,-364.21 309.3,-380.38 366,-409 387.15,-419.68 408.31,-436.62 422.65,-449.26"/>
<polygon fill="midnightblue" stroke="midnightblue" points="420.49,-452.03 430.25,-456.13 425.18,-446.83 420.49,-452.03"/>
</g>
<!-- Node15&#45;&gt;Node10 -->
<g id="edge24" class="edge">
<title>Node15&#45;&gt;Node10</title>
<path fill="none" stroke="midnightblue" d="M195.56,-354.19C235.84,-356.02 308.87,-355.41 366,-333 388.56,-324.15 410.06,-306.33 424.12,-292.96"/>
<polygon fill="midnightblue" stroke="midnightblue" points="426.82,-295.21 431.48,-285.7 421.9,-290.23 426.82,-295.21"/>
</g>
</g>
</svg>
