<?xml version="1.0" encoding="UTF-8" standalone="no"?>
<!DOCTYPE svg PUBLIC "-//W3C//DTD SVG 1.1//EN"
 "http://www.w3.org/Graphics/SVG/1.1/DTD/svg11.dtd">
<!-- Generated by graphviz version 2.43.0 (0)
 -->
<!-- Title: defined_or Pages: 1 -->
<svg width="688pt" height="580pt"
 viewBox="0.00 0.00 688.00 579.77" xmlns="http://www.w3.org/2000/svg" xmlns:xlink="http://www.w3.org/1999/xlink">
<g id="graph0" class="graph" transform="scale(1 1) rotate(0) translate(4 575.77)">
<title>defined_or</title>
<polygon fill="white" stroke="transparent" points="-4,4 -4,-575.77 684,-575.77 684,4 -4,4"/>
<!-- Node1 -->
<g id="node1" class="node">
<title>Node1</title>
<g id="a_node1"><a xlink:title="Return given value, if defined, or a secondary value, if primary is not defined.">
<polygon fill="#bfbfbf" stroke="black" points="612,-247.5 612,-266.5 680,-266.5 680,-247.5 612,-247.5"/>
<text text-anchor="middle" x="646" y="-254.5" font-family="Helvetica,sans-Serif" font-size="10.00">defined_or</text>
</a>
</g>
</g>
<!-- Node2 -->
<g id="node2" class="node">
<title>Node2</title>
<g id="a_node2"><a xlink:href="group__parts__2d__enclosure__box__finger__joint.html#gacc1bfb220bc3cfed46dcaa3b84898020" target="_top" xlink:title="Generate a 2D box design using screw&#45;based finger joint (box&#45;joint).">
<polygon fill="white" stroke="black" points="137,-456.5 137,-475.5 244,-475.5 244,-456.5 137,-456.5"/>
<text text-anchor="middle" x="190.5" y="-463.5" font-family="Helvetica,sans-Serif" font-size="10.00">box2d_finger_joint</text>
</a>
</g>
</g>
<!-- Node1&#45;&gt;Node2 -->
<g id="edge1" class="edge">
<title>Node1&#45;&gt;Node2</title>
<path fill="none" stroke="midnightblue" d="M645.55,-276.72C645.58,-320.69 638.79,-426.8 576,-476 466.15,-562.08 279.39,-500.94 214.51,-475.59"/>
<polygon fill="midnightblue" stroke="midnightblue" points="649.04,-276.45 645.41,-266.5 642.05,-276.55 649.04,-276.45"/>
</g>
<!-- Node3 -->
<g id="node3" class="node">
<title>Node3</title>
<g id="a_node3"><a xlink:href="group__parts__3d__fastener__catch__latch.html#ga26a9933aa6d33599daab1be8d632c430" target="_top" xlink:title="A catch latch generator with configurable profile.">
<polygon fill="white" stroke="black" points="487.5,-190.5 487.5,-209.5 559.5,-209.5 559.5,-190.5 487.5,-190.5"/>
<text text-anchor="middle" x="523.5" y="-197.5" font-family="Helvetica,sans-Serif" font-size="10.00">catch_latch</text>
</a>
</g>
</g>
<!-- Node1&#45;&gt;Node3 -->
<g id="edge2" class="edge">
<title>Node1&#45;&gt;Node3</title>
<path fill="none" stroke="midnightblue" d="M620.39,-242.27C607.43,-234.81 591.12,-225.9 576,-219 568.54,-215.6 560.29,-212.33 552.61,-209.5"/>
<polygon fill="midnightblue" stroke="midnightblue" points="618.78,-245.38 629.18,-247.4 622.3,-239.33 618.78,-245.38"/>
</g>
<!-- Node4 -->
<g id="node4" class="node">
<title>Node4</title>
<g id="a_node4"><a xlink:href="group__tools__2d__drafting.html#ga6273cb44e3132783d3714375c9fb1e4b" target="_top" xlink:title="Move one or more child objects to a sheet reference zone.">
<polygon fill="white" stroke="black" points="487.5,-152.5 487.5,-171.5 559.5,-171.5 559.5,-152.5 487.5,-152.5"/>
<text text-anchor="middle" x="523.5" y="-159.5" font-family="Helvetica,sans-Serif" font-size="10.00">draft_move</text>
</a>
</g>
</g>
<!-- Node1&#45;&gt;Node4 -->
<g id="edge3" class="edge">
<title>Node1&#45;&gt;Node4</title>
<path fill="none" stroke="midnightblue" d="M632.62,-238.97C620.1,-221.94 599.31,-196.73 576,-181 570.47,-177.27 564.11,-174.16 557.8,-171.61"/>
<polygon fill="midnightblue" stroke="midnightblue" points="630.03,-241.37 638.68,-247.47 635.73,-237.3 630.03,-241.37"/>
</g>
<!-- Node5 -->
<g id="node5" class="node">
<title>Node5</title>
<g id="a_node5"><a xlink:href="group__transforms__layout.html#gad8eb4ce3a4707e71e80f4f5c8c3faa32" target="_top" xlink:title="A transform sequence to place a child shape.">
<polygon fill="white" stroke="black" points="482,-114.5 482,-133.5 565,-133.5 565,-114.5 482,-114.5"/>
<text text-anchor="middle" x="523.5" y="-121.5" font-family="Helvetica,sans-Serif" font-size="10.00">layout_grid_p</text>
</a>
</g>
</g>
<!-- Node1&#45;&gt;Node5 -->
<g id="edge4" class="edge">
<title>Node1&#45;&gt;Node5</title>
<path fill="none" stroke="midnightblue" d="M638.03,-237.72C628,-212.58 607.22,-168.77 576,-143 571.37,-139.18 565.9,-136.09 560.28,-133.6"/>
<polygon fill="midnightblue" stroke="midnightblue" points="634.83,-239.15 641.66,-247.25 641.37,-236.66 634.83,-239.15"/>
</g>
<!-- Node6 -->
<g id="node6" class="node">
<title>Node6</title>
<g id="a_node6"><a xlink:href="group__transforms__layout.html#ga36a7e290a310a680c8e9834c8e10bec3" target="_top" xlink:title="A transform sequence to replicate and place a child shape.">
<polygon fill="white" stroke="black" points="319,-456.5 319,-475.5 405,-475.5 405,-456.5 319,-456.5"/>
<text text-anchor="middle" x="362" y="-463.5" font-family="Helvetica,sans-Serif" font-size="10.00">layout_grid_rp</text>
</a>
</g>
</g>
<!-- Node1&#45;&gt;Node6 -->
<g id="edge5" class="edge">
<title>Node1&#45;&gt;Node6</title>
<path fill="none" stroke="midnightblue" d="M644.38,-276.7C641.97,-316.25 630.43,-405.13 576,-447 527.15,-484.58 452.09,-481.41 405.36,-474.54"/>
<polygon fill="midnightblue" stroke="midnightblue" points="647.88,-276.67 644.86,-266.52 640.89,-276.34 647.88,-276.67"/>
</g>
<!-- Node7 -->
<g id="node7" class="node">
<title>Node7</title>
<g id="a_node7"><a xlink:href="group__parts__3d__enclosure__project__box__rectangle.html#ga24cdfe5fd4bb74b75409d9afdbe1f0c0" target="_top" xlink:title="A rectangular box maker for project boxes, enclosures and housings.">
<polygon fill="white" stroke="black" points="128,-418.5 128,-437.5 253,-437.5 253,-418.5 128,-418.5"/>
<text text-anchor="middle" x="190.5" y="-425.5" font-family="Helvetica,sans-Serif" font-size="10.00">project_box_rectangle</text>
</a>
</g>
</g>
<!-- Node1&#45;&gt;Node7 -->
<g id="edge23" class="edge">
<title>Node1&#45;&gt;Node7</title>
<path fill="none" stroke="midnightblue" d="M633.18,-275.34C620.96,-292.8 600.28,-318.52 576,-333 546.66,-350.51 331.12,-398.09 236.19,-418.5"/>
<polygon fill="midnightblue" stroke="midnightblue" points="636.38,-276.85 639.07,-266.6 630.58,-272.94 636.38,-276.85"/>
</g>
<!-- Node8 -->
<g id="node8" class="node">
<title>Node8</title>
<g id="a_node8"><a xlink:href="group__parts__3d__computer__pcie__expansion.html#gab6fb1c9f8f6550633467f4ec0bd3f983" target="_top" xlink:title="Generate a PCI Express expansion open chassis or closed enclosure.">
<polygon fill="white" stroke="black" points="0,-475.5 0,-494.5 92,-494.5 92,-475.5 0,-475.5"/>
<text text-anchor="middle" x="46" y="-482.5" font-family="Helvetica,sans-Serif" font-size="10.00">pcie_expansion</text>
</a>
</g>
</g>
<!-- Node1&#45;&gt;Node8 -->
<g id="edge16" class="edge">
<title>Node1&#45;&gt;Node8</title>
<path fill="none" stroke="midnightblue" d="M642.52,-276.61C635.26,-330.58 612.28,-479.34 576,-510 422.22,-639.99 144.41,-529.28 67.32,-494.56"/>
<polygon fill="midnightblue" stroke="midnightblue" points="646,-276.98 643.82,-266.61 639.06,-276.07 646,-276.98"/>
</g>
<!-- Node10 -->
<g id="node10" class="node">
<title>Node10</title>
<g id="a_node10"><a xlink:href="group__parts__3d__fastener__mounts.html#ga1a26f176e04863a2bf335960a52b39a8" target="_top" xlink:title="A screw mount slot with optional cover envelope.">
<polygon fill="white" stroke="black" points="471,-304.5 471,-323.5 576,-323.5 576,-304.5 471,-304.5"/>
<text text-anchor="middle" x="523.5" y="-311.5" font-family="Helvetica,sans-Serif" font-size="10.00">mount_screw_slot</text>
</a>
</g>
</g>
<!-- Node1&#45;&gt;Node10 -->
<g id="edge10" class="edge">
<title>Node1&#45;&gt;Node10</title>
<path fill="none" stroke="midnightblue" d="M615.78,-271.05C603.51,-276.93 589.08,-283.83 576,-290 565.83,-294.8 554.51,-300.09 545.07,-304.47"/>
<polygon fill="midnightblue" stroke="midnightblue" points="617.6,-274.07 625.1,-266.58 614.57,-267.75 617.6,-274.07"/>
</g>
<!-- Node12 -->
<g id="node12" class="node">
<title>Node12</title>
<g id="a_node12"><a xlink:href="group__parts__3d__fastener__mounts.html#gae1cc60f3ff242fb07c5a50d34be8c051" target="_top" xlink:title="A mount tab with screw hole and support brace.">
<polygon fill="white" stroke="black" points="139,-285.5 139,-304.5 242,-304.5 242,-285.5 139,-285.5"/>
<text text-anchor="middle" x="190.5" y="-292.5" font-family="Helvetica,sans-Serif" font-size="10.00">mount_screw_tab</text>
</a>
</g>
</g>
<!-- Node1&#45;&gt;Node12 -->
<g id="edge13" class="edge">
<title>Node1&#45;&gt;Node12</title>
<path fill="none" stroke="midnightblue" d="M601.65,-260.63C517.36,-267.7 331.79,-283.24 242.06,-290.76"/>
<polygon fill="midnightblue" stroke="midnightblue" points="601.98,-264.12 611.65,-259.79 601.4,-257.14 601.98,-264.12"/>
</g>
<!-- Node13 -->
<g id="node13" class="node">
<title>Node13</title>
<g id="a_node13"><a xlink:href="group__parts__3d__computer__pci__bracket.html#gaf56631cf80d8e5f0b77736b17b94ecd9" target="_top" xlink:title="PCI slot cover and adapter card bracket generator.">
<polygon fill="white" stroke="black" points="487.5,-76.5 487.5,-95.5 559.5,-95.5 559.5,-76.5 487.5,-76.5"/>
<text text-anchor="middle" x="523.5" y="-83.5" font-family="Helvetica,sans-Serif" font-size="10.00">pci_bracket</text>
</a>
</g>
</g>
<!-- Node1&#45;&gt;Node13 -->
<g id="edge15" class="edge">
<title>Node1&#45;&gt;Node13</title>
<path fill="none" stroke="midnightblue" d="M641.21,-237.39C634.03,-205.36 615.49,-141.72 576,-105 571.32,-100.65 565.57,-97.28 559.62,-94.67"/>
<polygon fill="midnightblue" stroke="midnightblue" points="637.81,-238.23 643.29,-247.3 644.66,-236.8 637.81,-238.23"/>
</g>
<!-- Node14 -->
<g id="node14" class="node">
<title>Node14</title>
<g id="a_node14"><a xlink:href="group__shapes__polygon.html#ga22a29774c22e5cc9f3101ed0a0ed307a" target="_top" xlink:title="A polygon rectangle with side rounding.">
<polygon fill="white" stroke="black" points="476.5,-418.5 476.5,-437.5 570.5,-437.5 570.5,-418.5 476.5,-418.5"/>
<text text-anchor="middle" x="523.5" y="-425.5" font-family="Helvetica,sans-Serif" font-size="10.00">pg_rectangle_rs</text>
</a>
</g>
</g>
<!-- Node1&#45;&gt;Node14 -->
<g id="edge17" class="edge">
<title>Node1&#45;&gt;Node14</title>
<path fill="none" stroke="midnightblue" d="M640.46,-276.47C632.38,-307.22 612.8,-367.3 576,-404 569.85,-410.13 561.85,-414.88 553.99,-418.48"/>
<polygon fill="midnightblue" stroke="midnightblue" points="643.91,-277.12 642.93,-266.57 637.11,-275.42 643.91,-277.12"/>
</g>
<!-- Node16 -->
<g id="node16" class="node">
<title>Node16</title>
<g id="a_node16"><a xlink:href="group__tools__common__polytope.html#ga530c86f9c90ce074aa7adc29834f0539" target="_top" xlink:title="Assemble a polytope skeletal frame using child objects.">
<polygon fill="white" stroke="black" points="476.5,-38.5 476.5,-57.5 570.5,-57.5 570.5,-38.5 476.5,-38.5"/>
<text text-anchor="middle" x="523.5" y="-45.5" font-family="Helvetica,sans-Serif" font-size="10.00">polytope_frame</text>
</a>
</g>
</g>
<!-- Node1&#45;&gt;Node16 -->
<g id="edge21" class="edge">
<title>Node1&#45;&gt;Node16</title>
<path fill="none" stroke="midnightblue" d="M643.2,-236.89C638.74,-198.65 623.78,-115.02 576,-67 572.17,-63.15 567.49,-60.07 562.53,-57.61"/>
<polygon fill="midnightblue" stroke="midnightblue" points="639.76,-237.62 644.28,-247.2 646.72,-236.9 639.76,-237.62"/>
</g>
<!-- Node17 -->
<g id="node17" class="node">
<title>Node17</title>
<g id="a_node17"><a xlink:href="group__tools__common__polytope.html#ga00b574079f19251be7281151d11db8fa" target="_top" xlink:title="Label the vertices, paths, and edges of a polytope.">
<polygon fill="white" stroke="black" points="472.5,-0.5 472.5,-19.5 574.5,-19.5 574.5,-0.5 472.5,-0.5"/>
<text text-anchor="middle" x="523.5" y="-7.5" font-family="Helvetica,sans-Serif" font-size="10.00">polytope_number</text>
</a>
</g>
</g>
<!-- Node1&#45;&gt;Node17 -->
<g id="edge22" class="edge">
<title>Node1&#45;&gt;Node17</title>
<path fill="none" stroke="midnightblue" d="M644.66,-237.16C642.85,-193.66 632.49,-88.96 576,-29 572.34,-25.12 567.82,-22.02 562.98,-19.56"/>
<polygon fill="midnightblue" stroke="midnightblue" points="641.17,-237.4 644.97,-247.29 648.16,-237.18 641.17,-237.4"/>
</g>
<!-- Node18 -->
<g id="node18" class="node">
<title>Node18</title>
<g id="a_node18"><a xlink:href="group__shapes__common__2d.html#gaf840c9cc7a1bcdb09f023aa6543d36d2" target="_top" xlink:title="A rectangle with a removed rectangular core.">
<polygon fill="white" stroke="black" points="487,-228.5 487,-247.5 560,-247.5 560,-228.5 487,-228.5"/>
<text text-anchor="middle" x="523.5" y="-235.5" font-family="Helvetica,sans-Serif" font-size="10.00">rectangle_c</text>
</a>
</g>
</g>
<!-- Node1&#45;&gt;Node18 -->
<g id="edge24" class="edge">
<title>Node1&#45;&gt;Node18</title>
<path fill="none" stroke="midnightblue" d="M601.64,-250.16C588.04,-248.02 573.18,-245.68 560.17,-243.62"/>
<polygon fill="midnightblue" stroke="midnightblue" points="601.33,-253.66 611.75,-251.76 602.42,-246.74 601.33,-253.66"/>
</g>
<!-- Node6&#45;&gt;Node2 -->
<g id="edge6" class="edge">
<title>Node6&#45;&gt;Node2</title>
<path fill="none" stroke="midnightblue" d="M308.58,-466C288.12,-466 264.7,-466 244.21,-466"/>
<polygon fill="midnightblue" stroke="midnightblue" points="308.67,-469.5 318.67,-466 308.67,-462.5 308.67,-469.5"/>
</g>
<!-- Node6&#45;&gt;Node7 -->
<g id="edge7" class="edge">
<title>Node6&#45;&gt;Node7</title>
<path fill="none" stroke="midnightblue" d="M308.65,-454.26C284.64,-448.88 256.54,-442.58 233.88,-437.5"/>
<polygon fill="midnightblue" stroke="midnightblue" points="308.14,-457.74 318.67,-456.51 309.67,-450.91 308.14,-457.74"/>
</g>
<!-- Node7&#45;&gt;Node8 -->
<g id="edge8" class="edge">
<title>Node7&#45;&gt;Node8</title>
<path fill="none" stroke="midnightblue" d="M146.16,-440.56C140.01,-442.58 133.81,-444.75 128,-447 105.98,-455.52 81.55,-467.32 65.34,-475.5"/>
<polygon fill="midnightblue" stroke="midnightblue" points="147.23,-443.89 155.7,-437.52 145.11,-437.22 147.23,-443.89"/>
</g>
<!-- Node9 -->
<g id="node9" class="node">
<title>Node9</title>
<g id="a_node9"><a xlink:href="group__parts__3d__enclosure__power__strip.html#ga33509a1811b27fe7f3687957d4d32460" target="_top" xlink:title="A power strip generator for single gang electrical receptacles.">
<polygon fill="white" stroke="black" points="1,-314.5 1,-333.5 91,-333.5 91,-314.5 1,-314.5"/>
<text text-anchor="middle" x="46" y="-321.5" font-family="Helvetica,sans-Serif" font-size="10.00">power_strip_sg</text>
</a>
</g>
</g>
<!-- Node7&#45;&gt;Node9 -->
<g id="edge9" class="edge">
<title>Node7&#45;&gt;Node9</title>
<path fill="none" stroke="midnightblue" d="M168.24,-412.48C138.35,-390.67 84.8,-351.59 60.12,-333.57"/>
<polygon fill="midnightblue" stroke="midnightblue" points="166.21,-415.33 176.35,-418.4 170.34,-409.68 166.21,-415.33"/>
</g>
<!-- Node10&#45;&gt;Node9 -->
<g id="edge12" class="edge">
<title>Node10&#45;&gt;Node9</title>
<path fill="none" stroke="midnightblue" d="M477.05,-325.8C463.61,-328.76 448.79,-331.52 435,-333 310.89,-346.32 163.23,-335.65 91.09,-328.73"/>
<polygon fill="midnightblue" stroke="midnightblue" points="478.06,-329.16 487.02,-323.51 476.49,-322.33 478.06,-329.16"/>
</g>
<!-- Node11 -->
<g id="node11" class="node">
<title>Node11</title>
<g id="a_node11"><a xlink:href="group__parts__3d__fastener__mounts.html#gabc7cd409ab1e2e4b6b894de3cf06658f" target="_top" xlink:title="A multi&#45;directional screw mount slot with optional cover envelope.">
<polygon fill="white" stroke="black" points="299,-304.5 299,-323.5 425,-323.5 425,-304.5 299,-304.5"/>
<text text-anchor="middle" x="362" y="-311.5" font-family="Helvetica,sans-Serif" font-size="10.00">mount_screw_slot_md</text>
</a>
</g>
</g>
<!-- Node10&#45;&gt;Node11 -->
<g id="edge11" class="edge">
<title>Node10&#45;&gt;Node11</title>
<path fill="none" stroke="midnightblue" d="M460.63,-314C448.97,-314 436.77,-314 425.1,-314"/>
<polygon fill="midnightblue" stroke="midnightblue" points="460.71,-317.5 470.71,-314 460.71,-310.5 460.71,-317.5"/>
</g>
<!-- Node12&#45;&gt;Node9 -->
<g id="edge14" class="edge">
<title>Node12&#45;&gt;Node9</title>
<path fill="none" stroke="midnightblue" d="M132.56,-306.59C118.76,-309.4 104.21,-312.36 91.11,-315.02"/>
<polygon fill="midnightblue" stroke="midnightblue" points="133.34,-310 142.45,-304.58 131.95,-303.14 133.34,-310"/>
</g>
<!-- Node15 -->
<g id="node15" class="node">
<title>Node15</title>
<g id="a_node15"><a xlink:href="group__shapes__select__common__2d.html#gadde46fda315aab438eda3f752fec2aed" target="_top" xlink:title="Select configure and construct one of the available 2d shapes.">
<polygon fill="white" stroke="black" points="289,-418.5 289,-437.5 435,-437.5 435,-418.5 289,-418.5"/>
<text text-anchor="middle" x="362" y="-425.5" font-family="Helvetica,sans-Serif" font-size="10.00">select_common_2d_shape</text>
</a>
</g>
</g>
<!-- Node14&#45;&gt;Node15 -->
<g id="edge18" class="edge">
<title>Node14&#45;&gt;Node15</title>
<path fill="none" stroke="midnightblue" d="M466.15,-428C456.13,-428 445.56,-428 435.17,-428"/>
<polygon fill="midnightblue" stroke="midnightblue" points="466.37,-431.5 476.37,-428 466.37,-424.5 466.37,-431.5"/>
</g>
<!-- Node15&#45;&gt;Node2 -->
<g id="edge19" class="edge">
<title>Node15&#45;&gt;Node2</title>
<path fill="none" stroke="midnightblue" d="M308.26,-439.82C284.36,-445.18 256.48,-451.43 233.96,-456.48"/>
<polygon fill="midnightblue" stroke="midnightblue" points="309.24,-443.19 318.23,-437.59 307.7,-436.36 309.24,-443.19"/>
</g>
<!-- Node15&#45;&gt;Node7 -->
<g id="edge20" class="edge">
<title>Node15&#45;&gt;Node7</title>
<path fill="none" stroke="midnightblue" d="M278.62,-428C270.07,-428 261.49,-428 253.22,-428"/>
<polygon fill="midnightblue" stroke="midnightblue" points="278.63,-431.5 288.63,-428 278.63,-424.5 278.63,-431.5"/>
</g>
<!-- Node18&#45;&gt;Node9 -->
<g id="edge25" class="edge">
<title>Node18&#45;&gt;Node9</title>
<path fill="none" stroke="midnightblue" d="M476.86,-236.05C402,-234.23 249.35,-236.39 128,-276 101.58,-284.62 74.53,-302.96 59.34,-314.31"/>
<polygon fill="midnightblue" stroke="midnightblue" points="476.8,-239.55 486.89,-236.33 476.99,-232.55 476.8,-239.55"/>
</g>
<!-- Node19 -->
<g id="node19" class="node">
<title>Node19</title>
<g id="a_node19"><a xlink:href="group__shapes__revolved.html#gad587c003585db775fd441468954b7c43" target="_top" xlink:title="A rectangular cross&#45;sectional profile revolved about the z&#45;axis.">
<polygon fill="white" stroke="black" points="310.5,-190.5 310.5,-209.5 413.5,-209.5 413.5,-190.5 310.5,-190.5"/>
<text text-anchor="middle" x="362" y="-197.5" font-family="Helvetica,sans-Serif" font-size="10.00">torus_rectangle_c</text>
</a>
</g>
</g>
<!-- Node18&#45;&gt;Node19 -->
<g id="edge26" class="edge">
<title>Node18&#45;&gt;Node19</title>
<path fill="none" stroke="midnightblue" d="M476.7,-227.09C453.38,-221.53 425.3,-214.84 402.88,-209.5"/>
<polygon fill="midnightblue" stroke="midnightblue" points="476.17,-230.56 486.71,-229.47 477.79,-223.75 476.17,-230.56"/>
</g>
</g>
</svg>
