<?xml version="1.0" encoding="UTF-8" standalone="no"?>
<!DOCTYPE svg PUBLIC "-//W3C//DTD SVG 1.1//EN"
 "http://www.w3.org/Graphics/SVG/1.1/DTD/svg11.dtd">
<!-- Generated by graphviz version 2.43.0 (0)
 -->
<!-- Title: draft_move Pages: 1 -->
<svg width="193pt" height="104pt"
 viewBox="0.00 0.00 193.00 104.00" xmlns="http://www.w3.org/2000/svg" xmlns:xlink="http://www.w3.org/1999/xlink">
<g id="graph0" class="graph" transform="scale(1 1) rotate(0) translate(4 100)">
<title>draft_move</title>
<polygon fill="white" stroke="transparent" points="-4,4 -4,-100 189,-100 189,4 -4,4"/>
<!-- Node1 -->
<g id="node1" class="node">
<title>Node1</title>
<g id="a_node1"><a xlink:title="Move one or more child objects to a sheet reference zone.">
<polygon fill="#bfbfbf" stroke="black" points="0,-38.5 0,-57.5 72,-57.5 72,-38.5 0,-38.5"/>
<text text-anchor="middle" x="36" y="-45.5" font-family="Helvetica,sans-Serif" font-size="10.00">draft_move</text>
</a>
</g>
</g>
<!-- Node2 -->
<g id="node2" class="node">
<title>Node2</title>
<g id="a_node2"><a xlink:href="group__datatypes__iterable__test.html#gadef3ae066ab37633089ab1f05e5e035d" target="_top" xlink:title="Test if all elements of an iterable value are numbers.">
<polygon fill="white" stroke="black" points="108,-76.5 108,-95.5 185,-95.5 185,-76.5 108,-76.5"/>
<text text-anchor="middle" x="146.5" y="-83.5" font-family="Helvetica,sans-Serif" font-size="10.00">all_numbers</text>
</a>
</g>
</g>
<!-- Node1&#45;&gt;Node2 -->
<g id="edge1" class="edge">
<title>Node1&#45;&gt;Node2</title>
<path fill="none" stroke="midnightblue" d="M64.38,-57.59C77.74,-62.27 94.02,-67.97 108.47,-73.03"/>
<polygon fill="midnightblue" stroke="midnightblue" points="107.53,-76.41 118.13,-76.41 109.85,-69.81 107.53,-76.41"/>
</g>
<!-- Node3 -->
<g id="node3" class="node">
<title>Node3</title>
<g id="a_node3"><a xlink:href="group__datatypes__iterable__test.html#gacbd9ce630dc959b3978a7eb41d636f66" target="_top" xlink:title="Test if all elements of an iterable value are strings.">
<polygon fill="white" stroke="black" points="113,-38.5 113,-57.5 180,-57.5 180,-38.5 113,-38.5"/>
<text text-anchor="middle" x="146.5" y="-45.5" font-family="Helvetica,sans-Serif" font-size="10.00">all_strings</text>
</a>
</g>
</g>
<!-- Node1&#45;&gt;Node3 -->
<g id="edge2" class="edge">
<title>Node1&#45;&gt;Node3</title>
<path fill="none" stroke="midnightblue" d="M72.23,-48C81.87,-48 92.43,-48 102.46,-48"/>
<polygon fill="midnightblue" stroke="midnightblue" points="102.66,-51.5 112.66,-48 102.66,-44.5 102.66,-51.5"/>
</g>
<!-- Node4 -->
<g id="node4" class="node">
<title>Node4</title>
<g id="a_node4"><a xlink:href="group__datatypes__scalar__operate.html#gac119300e8c83de0037f2d0a4d9f0ab5c" target="_top" xlink:title="Return given value, if defined, or a secondary value, if primary is not defined.">
<polygon fill="white" stroke="black" points="112.5,-0.5 112.5,-19.5 180.5,-19.5 180.5,-0.5 112.5,-0.5"/>
<text text-anchor="middle" x="146.5" y="-7.5" font-family="Helvetica,sans-Serif" font-size="10.00">defined_or</text>
</a>
</g>
</g>
<!-- Node1&#45;&gt;Node4 -->
<g id="edge3" class="edge">
<title>Node1&#45;&gt;Node4</title>
<path fill="none" stroke="midnightblue" d="M64.38,-38.41C77.74,-33.73 94.02,-28.03 108.47,-22.97"/>
<polygon fill="midnightblue" stroke="midnightblue" points="109.85,-26.19 118.13,-19.59 107.53,-19.59 109.85,-26.19"/>
</g>
</g>
</svg>
