<?xml version="1.0" encoding="UTF-8" standalone="no"?>
<!DOCTYPE svg PUBLIC "-//W3C//DTD SVG 1.1//EN"
 "http://www.w3.org/Graphics/SVG/1.1/DTD/svg11.dtd">
<!-- Generated by graphviz version 2.43.0 (0)
 -->
<!-- Title: first Pages: 1 -->
<svg width="713pt" height="895pt"
 viewBox="0.00 0.00 713.00 895.00" xmlns="http://www.w3.org/2000/svg" xmlns:xlink="http://www.w3.org/1999/xlink">
<g id="graph0" class="graph" transform="scale(1 1) rotate(0) translate(4 891)">
<title>first</title>
<polygon fill="white" stroke="transparent" points="-4,4 -4,-891 709,-891 709,4 -4,4"/>
<!-- Node1 -->
<g id="node1" class="node">
<title>Node1</title>
<g id="a_node1"><a xlink:title="Return the first element of an iterable value.">
<polygon fill="#bfbfbf" stroke="black" points="670,-465.5 670,-484.5 705,-484.5 705,-465.5 670,-465.5"/>
<text text-anchor="middle" x="687.5" y="-472.5" font-family="Helvetica,sans-Serif" font-size="10.00">first</text>
</a>
</g>
</g>
<!-- Node2 -->
<g id="node2" class="node">
<title>Node2</title>
<g id="a_node2"><a xlink:href="group__parts__2d__enclosure__box__finger__joint.html#gacc1bfb220bc3cfed46dcaa3b84898020" target="_top" xlink:title="Generate a 2D box design using screw&#45;based finger joint (box&#45;joint).">
<polygon fill="white" stroke="black" points="153,-342.5 153,-361.5 260,-361.5 260,-342.5 153,-342.5"/>
<text text-anchor="middle" x="206.5" y="-349.5" font-family="Helvetica,sans-Serif" font-size="10.00">box2d_finger_joint</text>
</a>
</g>
</g>
<!-- Node1&#45;&gt;Node2 -->
<g id="edge1" class="edge">
<title>Node1&#45;&gt;Node2</title>
<path fill="none" stroke="midnightblue" d="M670.44,-458.19C660.57,-448.5 647.3,-436.59 634,-428 559.28,-379.75 538.02,-365.4 451,-347 386.46,-333.36 310.16,-338.2 260.4,-344.06"/>
<polygon fill="midnightblue" stroke="midnightblue" points="668.03,-460.73 677.56,-465.37 673,-455.81 668.03,-460.73"/>
</g>
<!-- Node3 -->
<g id="node3" class="node">
<title>Node3</title>
<g id="a_node3"><a xlink:href="group__parts__3d__fastener__catch__latch.html#ga26a9933aa6d33599daab1be8d632c430" target="_top" xlink:title="A catch latch generator with configurable profile.">
<polygon fill="white" stroke="black" points="170.5,-836.5 170.5,-855.5 242.5,-855.5 242.5,-836.5 170.5,-836.5"/>
<text text-anchor="middle" x="206.5" y="-843.5" font-family="Helvetica,sans-Serif" font-size="10.00">catch_latch</text>
</a>
</g>
</g>
<!-- Node1&#45;&gt;Node3 -->
<g id="edge2" class="edge">
<title>Node1&#45;&gt;Node3</title>
<path fill="none" stroke="midnightblue" d="M686.4,-494.96C685.63,-560.2 679.57,-765.52 634,-809 578.41,-862.04 334.43,-853.54 242.61,-848.31"/>
<polygon fill="midnightblue" stroke="midnightblue" points="689.9,-494.81 686.49,-484.78 682.9,-494.75 689.9,-494.81"/>
</g>
<!-- Node4 -->
<g id="node4" class="node">
<title>Node4</title>
<g id="a_node4"><a xlink:href="group__parts__3d__fastener__clamps.html#gac715fdab9961aff45be668fb23556835" target="_top" xlink:title="A one piece zip tie clamp to secure wires or provide strain relief.">
<polygon fill="white" stroke="black" points="167.5,-570.5 167.5,-589.5 245.5,-589.5 245.5,-570.5 167.5,-570.5"/>
<text text-anchor="middle" x="206.5" y="-577.5" font-family="Helvetica,sans-Serif" font-size="10.00">clamp_zt_1p</text>
</a>
</g>
</g>
<!-- Node1&#45;&gt;Node4 -->
<g id="edge3" class="edge">
<title>Node1&#45;&gt;Node4</title>
<path fill="none" stroke="midnightblue" d="M686.09,-494.81C684.22,-527.51 675.2,-592.04 634,-621 622.2,-629.3 325.27,-623.2 305,-618 287.48,-613.51 285.71,-605.92 269,-599 260.53,-595.49 251.18,-592.28 242.38,-589.54"/>
<polygon fill="midnightblue" stroke="midnightblue" points="689.6,-494.81 686.5,-484.68 682.6,-494.53 689.6,-494.81"/>
</g>
<!-- Node5 -->
<g id="node5" class="node">
<title>Node5</title>
<g id="a_node5"><a xlink:href="group__parts__3d__computer__pcie__expansion.html#gab6fb1c9f8f6550633467f4ec0bd3f983" target="_top" xlink:title="Generate a PCI Express expansion open chassis or closed enclosure.">
<polygon fill="white" stroke="black" points="8,-570.5 8,-589.5 100,-589.5 100,-570.5 8,-570.5"/>
<text text-anchor="middle" x="54" y="-577.5" font-family="Helvetica,sans-Serif" font-size="10.00">pcie_expansion</text>
</a>
</g>
</g>
<!-- Node1&#45;&gt;Node5 -->
<g id="edge38" class="edge">
<title>Node1&#45;&gt;Node5</title>
<path fill="none" stroke="midnightblue" d="M686.68,-495.05C686.88,-564.49 683.68,-793.16 634,-842 569.87,-905.05 177.42,-890.58 144,-865 95.37,-827.78 126.09,-790.5 108,-732 91.16,-677.53 67.5,-613.35 58.59,-589.52"/>
<polygon fill="midnightblue" stroke="midnightblue" points="690.18,-494.64 686.62,-484.66 683.18,-494.68 690.18,-494.64"/>
</g>
<!-- Node6 -->
<g id="node6" class="node">
<title>Node6</title>
<g id="a_node6"><a xlink:href="group__tools__2d__drafting.html#gada1e771ce89ef86b6241c43dc01bf62d" target="_top" xlink:title="Draft a polygon with configurable style.">
<polygon fill="white" stroke="black" points="519,-722.5 519,-741.5 602,-741.5 602,-722.5 519,-722.5"/>
<text text-anchor="middle" x="560.5" y="-729.5" font-family="Helvetica,sans-Serif" font-size="10.00">draft_polygon</text>
</a>
</g>
</g>
<!-- Node1&#45;&gt;Node6 -->
<g id="edge5" class="edge">
<title>Node1&#45;&gt;Node6</title>
<path fill="none" stroke="midnightblue" d="M684.76,-494.8C679.85,-546.11 664.26,-681.53 634,-713 625.61,-721.72 613.75,-726.62 602.05,-729.31"/>
<polygon fill="midnightblue" stroke="midnightblue" points="688.26,-494.97 685.69,-484.69 681.29,-494.32 688.26,-494.97"/>
</g>
<!-- Node7 -->
<g id="node7" class="node">
<title>Node7</title>
<g id="a_node7"><a xlink:href="group__parts__3d__enclosure__enclosure__stand__rectangle.html#gaa6bbb5648edd144f66059f9b31aa2865" target="_top" xlink:title="A stand maker for rectangular project boxes, housings, and enclosures.">
<polygon fill="white" stroke="black" points="487,-684.5 487,-703.5 634,-703.5 634,-684.5 487,-684.5"/>
<text text-anchor="middle" x="560.5" y="-691.5" font-family="Helvetica,sans-Serif" font-size="10.00">enclosure_stand_rectangle</text>
</a>
</g>
</g>
<!-- Node1&#45;&gt;Node7 -->
<g id="edge6" class="edge">
<title>Node1&#45;&gt;Node7</title>
<path fill="none" stroke="midnightblue" d="M686.97,-495.11C686.77,-534.12 680.7,-620.58 634,-670 627.99,-676.36 620.26,-681.04 612.1,-684.47"/>
<polygon fill="midnightblue" stroke="midnightblue" points="690.47,-494.59 686.89,-484.62 683.47,-494.65 690.47,-494.59"/>
</g>
<!-- Node8 -->
<g id="node8" class="node">
<title>Node8</title>
<g id="a_node8"><a xlink:href="group__transforms__extrude.html#ga45661244067bf945b684550c3263ee45" target="_top" xlink:title="Linearly extrude a 2d shape with multi&#45;segment uniformly&#45;spaced profile scaling.">
<polygon fill="white" stroke="black" points="321.5,-722.5 321.5,-741.5 434.5,-741.5 434.5,-722.5 321.5,-722.5"/>
<text text-anchor="middle" x="378" y="-729.5" font-family="Helvetica,sans-Serif" font-size="10.00">extrude_linear_mss</text>
</a>
</g>
</g>
<!-- Node1&#45;&gt;Node8 -->
<g id="edge7" class="edge">
<title>Node1&#45;&gt;Node8</title>
<path fill="none" stroke="midnightblue" d="M685.86,-494.96C683.55,-552.76 673.55,-718.27 634,-751 564.75,-808.32 445.5,-763.07 398.68,-741.65"/>
<polygon fill="midnightblue" stroke="midnightblue" points="689.37,-494.74 686.24,-484.62 682.38,-494.49 689.37,-494.74"/>
</g>
<!-- Node11 -->
<g id="node11" class="node">
<title>Node11</title>
<g id="a_node11"><a xlink:href="group__parts__3d__enclosure__power__strip.html#ga33509a1811b27fe7f3687957d4d32460" target="_top" xlink:title="A power strip generator for single gang electrical receptacles.">
<polygon fill="white" stroke="black" points="9,-456.5 9,-475.5 99,-475.5 99,-456.5 9,-456.5"/>
<text text-anchor="middle" x="54" y="-463.5" font-family="Helvetica,sans-Serif" font-size="10.00">power_strip_sg</text>
</a>
</g>
</g>
<!-- Node1&#45;&gt;Node11 -->
<g id="edge48" class="edge">
<title>Node1&#45;&gt;Node11</title>
<path fill="none" stroke="midnightblue" d="M685.62,-455.03C682.73,-399.38 671.39,-244.62 634,-214 603.71,-189.2 218.59,-166.68 144,-220 62.53,-278.23 55.38,-418.66 54.96,-456.48"/>
<polygon fill="midnightblue" stroke="midnightblue" points="682.14,-455.5 686.12,-465.32 689.14,-455.17 682.14,-455.5"/>
</g>
<!-- Node14 -->
<g id="node14" class="node">
<title>Node14</title>
<g id="a_node14"><a xlink:href="group__parts__3d__computer__pci__bracket.html#gaf56631cf80d8e5f0b77736b17b94ecd9" target="_top" xlink:title="PCI slot cover and adapter card bracket generator.">
<polygon fill="white" stroke="black" points="170.5,-798.5 170.5,-817.5 242.5,-817.5 242.5,-798.5 170.5,-798.5"/>
<text text-anchor="middle" x="206.5" y="-805.5" font-family="Helvetica,sans-Serif" font-size="10.00">pci_bracket</text>
</a>
</g>
</g>
<!-- Node1&#45;&gt;Node14 -->
<g id="edge37" class="edge">
<title>Node1&#45;&gt;Node14</title>
<path fill="none" stroke="midnightblue" d="M686.12,-494.73C684.5,-555.81 676.15,-739.92 634,-778 577.13,-829.38 334.5,-817.39 242.79,-810.83"/>
<polygon fill="midnightblue" stroke="midnightblue" points="689.62,-494.61 686.36,-484.53 682.63,-494.44 689.62,-494.61"/>
</g>
<!-- Node15 -->
<g id="node15" class="node">
<title>Node15</title>
<g id="a_node15"><a xlink:href="group__parts__3d__enclosure__project__box__rectangle.html#ga24cdfe5fd4bb74b75409d9afdbe1f0c0" target="_top" xlink:title="A rectangular box maker for project boxes, enclosures and housings.">
<polygon fill="white" stroke="black" points="144,-532.5 144,-551.5 269,-551.5 269,-532.5 144,-532.5"/>
<text text-anchor="middle" x="206.5" y="-539.5" font-family="Helvetica,sans-Serif" font-size="10.00">project_box_rectangle</text>
</a>
</g>
</g>
<!-- Node1&#45;&gt;Node15 -->
<g id="edge49" class="edge">
<title>Node1&#45;&gt;Node15</title>
<path fill="none" stroke="midnightblue" d="M682.14,-494.65C675.83,-518.14 661.72,-556.7 634,-576 513.71,-659.76 439.65,-656.92 305,-599 283.63,-589.81 288.76,-573.28 269,-561 262.83,-557.17 255.83,-554.05 248.82,-551.54"/>
<polygon fill="midnightblue" stroke="midnightblue" points="685.59,-495.31 684.58,-484.76 678.79,-493.63 685.59,-495.31"/>
</g>
<!-- Node17 -->
<g id="node17" class="node">
<title>Node17</title>
<g id="a_node17"><a xlink:href="group__transforms__extrude.html#gab2442cfaf1ad44d6e295ab0979d9e03d" target="_top" xlink:title="Linearly extrude a 2d shape with uniformly&#45;spaced profile scaling.">
<polygon fill="white" stroke="black" points="506,-437.5 506,-456.5 615,-456.5 615,-437.5 506,-437.5"/>
<text text-anchor="middle" x="560.5" y="-444.5" font-family="Helvetica,sans-Serif" font-size="10.00">extrude_linear_uss</text>
</a>
</g>
</g>
<!-- Node1&#45;&gt;Node17 -->
<g id="edge23" class="edge">
<title>Node1&#45;&gt;Node17</title>
<path fill="none" stroke="midnightblue" d="M660.01,-469.07C643.76,-465.43 622.58,-460.68 604.02,-456.53"/>
<polygon fill="midnightblue" stroke="midnightblue" points="659.38,-472.51 669.9,-471.28 660.91,-465.68 659.38,-472.51"/>
</g>
<!-- Node18 -->
<g id="node18" class="node">
<title>Node18</title>
<g id="a_node18"><a xlink:href="group__parts__3d__fastener__hinges.html#ga7e350f2c55116094108b99dd8103fc04" target="_top" xlink:title="A print&#45;in&#45;place single&#45;fold hinge generator.">
<polygon fill="white" stroke="black" points="349,-266.5 349,-285.5 407,-285.5 407,-266.5 349,-266.5"/>
<text text-anchor="middle" x="378" y="-273.5" font-family="Helvetica,sans-Serif" font-size="10.00">hinge_sf</text>
</a>
</g>
</g>
<!-- Node1&#45;&gt;Node18 -->
<g id="edge35" class="edge">
<title>Node1&#45;&gt;Node18</title>
<path fill="none" stroke="midnightblue" d="M687.13,-455.01C687.09,-417.9 681.15,-338.65 634,-300 568.31,-246.16 458.7,-259.3 407.27,-269.44"/>
<polygon fill="midnightblue" stroke="midnightblue" points="683.62,-455.42 686.98,-465.47 690.62,-455.52 683.62,-455.42"/>
</g>
<!-- Node21 -->
<g id="node21" class="node">
<title>Node21</title>
<g id="a_node21"><a xlink:href="group__parts__3d__fastener__mounts.html#gae1cc60f3ff242fb07c5a50d34be8c051" target="_top" xlink:title="A mount tab with screw hole and support brace.">
<polygon fill="white" stroke="black" points="326.5,-228.5 326.5,-247.5 429.5,-247.5 429.5,-228.5 326.5,-228.5"/>
<text text-anchor="middle" x="378" y="-235.5" font-family="Helvetica,sans-Serif" font-size="10.00">mount_screw_tab</text>
</a>
</g>
</g>
<!-- Node1&#45;&gt;Node21 -->
<g id="edge36" class="edge">
<title>Node1&#45;&gt;Node21</title>
<path fill="none" stroke="midnightblue" d="M684.69,-455.19C679.79,-406.27 664.51,-281.86 634,-256 572.55,-203.92 470.05,-216.64 415.6,-228.45"/>
<polygon fill="midnightblue" stroke="midnightblue" points="681.23,-455.79 685.67,-465.4 688.2,-455.12 681.23,-455.79"/>
</g>
<!-- Node22 -->
<g id="node22" class="node">
<title>Node22</title>
<g id="a_node22"><a xlink:href="group__shapes__polygon.html#ga22a29774c22e5cc9f3101ed0a0ed307a" target="_top" xlink:title="A polygon rectangle with side rounding.">
<polygon fill="white" stroke="black" points="513.5,-485.5 513.5,-504.5 607.5,-504.5 607.5,-485.5 513.5,-485.5"/>
<text text-anchor="middle" x="560.5" y="-492.5" font-family="Helvetica,sans-Serif" font-size="10.00">pg_rectangle_rs</text>
</a>
</g>
</g>
<!-- Node1&#45;&gt;Node22 -->
<g id="edge39" class="edge">
<title>Node1&#45;&gt;Node22</title>
<path fill="none" stroke="midnightblue" d="M659.68,-479.29C644.5,-481.72 625.1,-484.82 607.55,-487.63"/>
<polygon fill="midnightblue" stroke="midnightblue" points="660.58,-482.69 669.9,-477.66 659.47,-475.78 660.58,-482.69"/>
</g>
<!-- Node24 -->
<g id="node24" class="node">
<title>Node24</title>
<g id="a_node24"><a xlink:href="group__shapes__polyhedron__db.html#gae2635420611b120f6f9332ae9fd3c3d1" target="_top" xlink:title="Construct a named polyhedron.">
<polygon fill="white" stroke="black" points="507.5,-547.5 507.5,-566.5 613.5,-566.5 613.5,-547.5 507.5,-547.5"/>
<text text-anchor="middle" x="560.5" y="-554.5" font-family="Helvetica,sans-Serif" font-size="10.00">ph_db_polyhedron</text>
</a>
</g>
</g>
<!-- Node1&#45;&gt;Node24 -->
<g id="edge43" class="edge">
<title>Node1&#45;&gt;Node24</title>
<path fill="none" stroke="midnightblue" d="M666.12,-490.91C656.54,-498.19 644.86,-506.78 634,-514 615.6,-526.24 593.68,-539 578.8,-547.41"/>
<polygon fill="midnightblue" stroke="midnightblue" points="668.44,-493.54 674.24,-484.67 664.18,-487.98 668.44,-493.54"/>
</g>
<!-- Node26 -->
<g id="node26" class="node">
<title>Node26</title>
<g id="a_node26"><a xlink:href="group__tools__common__polytope.html#ga530c86f9c90ce074aa7adc29834f0539" target="_top" xlink:title="Assemble a polytope skeletal frame using child objects.">
<polygon fill="white" stroke="black" points="513.5,-152.5 513.5,-171.5 607.5,-171.5 607.5,-152.5 513.5,-152.5"/>
<text text-anchor="middle" x="560.5" y="-159.5" font-family="Helvetica,sans-Serif" font-size="10.00">polytope_frame</text>
</a>
</g>
</g>
<!-- Node1&#45;&gt;Node26 -->
<g id="edge46" class="edge">
<title>Node1&#45;&gt;Node26</title>
<path fill="none" stroke="midnightblue" d="M685.47,-455.06C682.06,-396.5 669.28,-226.6 634,-186 627.13,-178.09 617.6,-172.78 607.7,-169.22"/>
<polygon fill="midnightblue" stroke="midnightblue" points="681.99,-455.43 686.03,-465.22 688.98,-455.04 681.99,-455.43"/>
</g>
<!-- Node27 -->
<g id="node27" class="node">
<title>Node27</title>
<g id="a_node27"><a xlink:href="group__tools__common__polytope.html#ga00b574079f19251be7281151d11db8fa" target="_top" xlink:title="Label the vertices, paths, and edges of a polytope.">
<polygon fill="white" stroke="black" points="509.5,-114.5 509.5,-133.5 611.5,-133.5 611.5,-114.5 509.5,-114.5"/>
<text text-anchor="middle" x="560.5" y="-121.5" font-family="Helvetica,sans-Serif" font-size="10.00">polytope_number</text>
</a>
</g>
</g>
<!-- Node1&#45;&gt;Node27 -->
<g id="edge47" class="edge">
<title>Node1&#45;&gt;Node27</title>
<path fill="none" stroke="midnightblue" d="M686.11,-455.02C684.45,-390.51 675.94,-189.33 634,-143 628.06,-136.44 620.16,-132.02 611.76,-129.08"/>
<polygon fill="midnightblue" stroke="midnightblue" points="682.62,-455.48 686.35,-465.4 689.62,-455.32 682.62,-455.48"/>
</g>
<!-- Node28 -->
<g id="node28" class="node">
<title>Node28</title>
<g id="a_node28"><a xlink:href="group__datatypes__table.html#ga8a4429649e8b06d9f492e1a0d2653656" target="_top" xlink:title="Perform basic format checks on a table and output errors to console.">
<polygon fill="white" stroke="black" points="523,-76.5 523,-95.5 598,-95.5 598,-76.5 523,-76.5"/>
<text text-anchor="middle" x="560.5" y="-83.5" font-family="Helvetica,sans-Serif" font-size="10.00">table_check</text>
</a>
</g>
</g>
<!-- Node1&#45;&gt;Node28 -->
<g id="edge50" class="edge">
<title>Node1&#45;&gt;Node28</title>
<path fill="none" stroke="midnightblue" d="M686.47,-455.02C685.96,-385.76 680.71,-157.44 634,-105 625,-94.9 611.35,-89.87 598.31,-87.45"/>
<polygon fill="midnightblue" stroke="midnightblue" points="682.97,-455.39 686.52,-465.37 689.97,-455.36 682.97,-455.39"/>
</g>
<!-- Node31 -->
<g id="node31" class="node">
<title>Node31</title>
<g id="a_node31"><a xlink:href="group__datatypes__table.html#gab0c2216f9d2258132556413c9a4317e5" target="_top" xlink:title="Dump a table to the console.">
<polygon fill="white" stroke="black" points="523.5,-38.5 523.5,-57.5 597.5,-57.5 597.5,-38.5 523.5,-38.5"/>
<text text-anchor="middle" x="560.5" y="-45.5" font-family="Helvetica,sans-Serif" font-size="10.00">table_dump</text>
</a>
</g>
</g>
<!-- Node1&#45;&gt;Node31 -->
<g id="edge53" class="edge">
<title>Node1&#45;&gt;Node31</title>
<path fill="none" stroke="midnightblue" d="M686.77,-454.89C687.34,-380.97 685.48,-125.55 634,-67 624.89,-56.64 610.9,-51.6 597.62,-49.26"/>
<polygon fill="midnightblue" stroke="midnightblue" points="683.27,-455.1 686.66,-465.14 690.27,-455.17 683.27,-455.1"/>
</g>
<!-- Node32 -->
<g id="node32" class="node">
<title>Node32</title>
<g id="a_node32"><a xlink:href="group__datatypes__table.html#ga8d212217f9acb803e3107f488d5523e6" target="_top" xlink:title="Write formatted map entries to the console.">
<polygon fill="white" stroke="black" points="525,-0.5 525,-19.5 596,-19.5 596,-0.5 525,-0.5"/>
<text text-anchor="middle" x="560.5" y="-7.5" font-family="Helvetica,sans-Serif" font-size="10.00">table_write</text>
</a>
</g>
</g>
<!-- Node1&#45;&gt;Node32 -->
<g id="edge54" class="edge">
<title>Node1&#45;&gt;Node32</title>
<path fill="none" stroke="midnightblue" d="M685.47,-455.28C681.03,-373.23 662.4,-61.66 634,-29 624.61,-18.2 609.9,-13.17 596.18,-10.95"/>
<polygon fill="midnightblue" stroke="midnightblue" points="681.98,-455.48 686.01,-465.28 688.97,-455.11 681.98,-455.48"/>
</g>
<!-- Node4&#45;&gt;Node5 -->
<g id="edge4" class="edge">
<title>Node4&#45;&gt;Node5</title>
<path fill="none" stroke="midnightblue" d="M157.01,-580C138.79,-580 118.17,-580 100.25,-580"/>
<polygon fill="midnightblue" stroke="midnightblue" points="157.13,-583.5 167.13,-580 157.13,-576.5 157.13,-583.5"/>
</g>
<!-- Node8&#45;&gt;Node3 -->
<g id="edge9" class="edge">
<title>Node8&#45;&gt;Node3</title>
<path fill="none" stroke="midnightblue" d="M361.9,-749.14C342.41,-770.28 306.51,-805.99 269,-827 260.91,-831.53 251.6,-835.12 242.71,-837.91"/>
<polygon fill="midnightblue" stroke="midnightblue" points="364.65,-751.32 368.76,-741.56 359.46,-746.62 364.65,-751.32"/>
</g>
<!-- Node8&#45;&gt;Node4 -->
<g id="edge13" class="edge">
<title>Node8&#45;&gt;Node4</title>
<path fill="none" stroke="midnightblue" d="M318.55,-718.04C313.58,-715.28 308.95,-711.97 305,-708 268.97,-671.87 305.42,-634.72 269,-599 262.62,-592.74 254.22,-588.54 245.69,-585.72"/>
<polygon fill="midnightblue" stroke="midnightblue" points="317.25,-721.3 327.78,-722.44 320.26,-714.98 317.25,-721.3"/>
</g>
<!-- Node9 -->
<g id="node9" class="node">
<title>Node9</title>
<g id="a_node9"><a xlink:href="group__parts__3d__motion__bearing__linear__rod.html#ga0064887f7c89f8915895c0243bec4a4c" target="_top" xlink:title="Transform 2d or 3d shape into a linear rod ball or sled bearing.">
<polygon fill="white" stroke="black" points="153,-684.5 153,-703.5 260,-703.5 260,-684.5 153,-684.5"/>
<text text-anchor="middle" x="206.5" y="-691.5" font-family="Helvetica,sans-Serif" font-size="10.00">bearing_linear_rod</text>
</a>
</g>
</g>
<!-- Node8&#45;&gt;Node9 -->
<g id="edge8" class="edge">
<title>Node8&#45;&gt;Node9</title>
<path fill="none" stroke="midnightblue" d="M324.26,-720.18C300.36,-714.82 272.48,-708.57 249.96,-703.52"/>
<polygon fill="midnightblue" stroke="midnightblue" points="323.7,-723.64 334.23,-722.41 325.24,-716.81 323.7,-723.64"/>
</g>
<!-- Node10 -->
<g id="node10" class="node">
<title>Node10</title>
<g id="a_node10"><a xlink:href="group__parts__3d__fastener__clamps.html#gad5d667c41776480785c62759c61a137e" target="_top" xlink:title="A clamp, bushing, and/or grip for wire, hose, and/or pipe wall penetrations.">
<polygon fill="white" stroke="black" points="175,-646.5 175,-665.5 238,-665.5 238,-646.5 175,-646.5"/>
<text text-anchor="middle" x="206.5" y="-653.5" font-family="Helvetica,sans-Serif" font-size="10.00">clamp_cg</text>
</a>
</g>
</g>
<!-- Node8&#45;&gt;Node10 -->
<g id="edge10" class="edge">
<title>Node8&#45;&gt;Node10</title>
<path fill="none" stroke="midnightblue" d="M328.78,-719.06C320.58,-715.99 312.35,-712.32 305,-708 286.29,-696.99 287.83,-685.8 269,-675 259.5,-669.55 248.26,-665.49 238.01,-662.55"/>
<polygon fill="midnightblue" stroke="midnightblue" points="327.74,-722.41 338.33,-722.4 330.04,-715.8 327.74,-722.41"/>
</g>
<!-- Node12 -->
<g id="node12" class="node">
<title>Node12</title>
<g id="a_node12"><a xlink:href="group__parts__3d__fastener__mounts.html#ga0cbac43259ec43fff7785057277bcef3" target="_top" xlink:title="A screw mount post with screw bore and optional fins.">
<polygon fill="white" stroke="black" points="0,-741.5 0,-760.5 108,-760.5 108,-741.5 0,-741.5"/>
<text text-anchor="middle" x="54" y="-748.5" font-family="Helvetica,sans-Serif" font-size="10.00">mount_screw_post</text>
</a>
</g>
</g>
<!-- Node8&#45;&gt;Node12 -->
<g id="edge14" class="edge">
<title>Node8&#45;&gt;Node12</title>
<path fill="none" stroke="midnightblue" d="M311.16,-735.88C251.21,-739.42 163.8,-744.58 108.17,-747.86"/>
<polygon fill="midnightblue" stroke="midnightblue" points="311.5,-739.37 321.28,-735.29 311.09,-732.38 311.5,-739.37"/>
</g>
<!-- Node13 -->
<g id="node13" class="node">
<title>Node13</title>
<g id="a_node13"><a xlink:href="group__models__3d__misc__omdl__logo.html#gab176f64dad7e83d4fb056be44b71f630" target="_top" xlink:title="Standard omdl logo.">
<polygon fill="white" stroke="black" points="172.5,-608.5 172.5,-627.5 240.5,-627.5 240.5,-608.5 172.5,-608.5"/>
<text text-anchor="middle" x="206.5" y="-615.5" font-family="Helvetica,sans-Serif" font-size="10.00">omdl_logo</text>
</a>
</g>
</g>
<!-- Node8&#45;&gt;Node13 -->
<g id="edge15" class="edge">
<title>Node8&#45;&gt;Node13</title>
<path fill="none" stroke="midnightblue" d="M321.1,-718.38C315.29,-715.54 309.78,-712.12 305,-708 278.21,-684.89 296.05,-659.81 269,-637 260.97,-630.23 250.54,-625.87 240.57,-623.06"/>
<polygon fill="midnightblue" stroke="midnightblue" points="319.82,-721.64 330.39,-722.37 322.58,-715.21 319.82,-721.64"/>
</g>
<!-- Node8&#45;&gt;Node14 -->
<g id="edge17" class="edge">
<title>Node8&#45;&gt;Node14</title>
<path fill="none" stroke="midnightblue" d="M352.2,-746.79C330.71,-759.19 298.52,-776.78 269,-789 260.53,-792.51 251.18,-795.72 242.38,-798.46"/>
<polygon fill="midnightblue" stroke="midnightblue" points="354.12,-749.73 360.99,-741.66 350.59,-743.68 354.12,-749.73"/>
</g>
<!-- Node8&#45;&gt;Node15 -->
<g id="edge18" class="edge">
<title>Node8&#45;&gt;Node15</title>
<path fill="none" stroke="midnightblue" d="M363.07,-714.42C347.89,-694.89 323.32,-662.11 305,-632 286.61,-601.78 296.05,-583.81 269,-561 264.39,-557.11 258.98,-554.02 253.33,-551.55"/>
<polygon fill="midnightblue" stroke="midnightblue" points="360.4,-716.7 369.32,-722.41 365.91,-712.38 360.4,-716.7"/>
</g>
<!-- Node16 -->
<g id="node16" class="node">
<title>Node16</title>
<g id="a_node16"><a xlink:href="group__models__3d__fastener__screws.html#gaad990187680f7ac947e555483d854bfa" target="_top" xlink:title="Gapped fastener bore with engagement cylinders for self&#45;forming threads.">
<polygon fill="white" stroke="black" points="161.5,-760.5 161.5,-779.5 251.5,-779.5 251.5,-760.5 161.5,-760.5"/>
<text text-anchor="middle" x="206.5" y="-767.5" font-family="Helvetica,sans-Serif" font-size="10.00">screw_bore_tsf</text>
</a>
</g>
</g>
<!-- Node8&#45;&gt;Node16 -->
<g id="edge21" class="edge">
<title>Node8&#45;&gt;Node16</title>
<path fill="none" stroke="midnightblue" d="M324.26,-743.82C300.36,-749.18 272.48,-755.43 249.96,-760.48"/>
<polygon fill="midnightblue" stroke="midnightblue" points="325.24,-747.19 334.23,-741.59 323.7,-740.36 325.24,-747.19"/>
</g>
<!-- Node10&#45;&gt;Node5 -->
<g id="edge11" class="edge">
<title>Node10&#45;&gt;Node5</title>
<path fill="none" stroke="midnightblue" d="M165.21,-645.27C158.02,-642.87 150.69,-640.11 144,-637 115.04,-623.56 84.33,-602.06 67.63,-589.66"/>
<polygon fill="midnightblue" stroke="midnightblue" points="164.27,-648.64 174.86,-648.31 166.37,-641.97 164.27,-648.64"/>
</g>
<!-- Node10&#45;&gt;Node11 -->
<g id="edge12" class="edge">
<title>Node10&#45;&gt;Node11</title>
<path fill="none" stroke="midnightblue" d="M165.19,-648.8C157.55,-646.05 150.06,-642.25 144,-637 115.75,-612.52 125.11,-594.23 108,-561 91.66,-529.27 70.56,-492.61 60.63,-475.59"/>
<polygon fill="midnightblue" stroke="midnightblue" points="164.28,-652.18 174.86,-651.75 166.32,-645.48 164.28,-652.18"/>
</g>
<!-- Node13&#45;&gt;Node11 -->
<g id="edge16" class="edge">
<title>Node13&#45;&gt;Node11</title>
<path fill="none" stroke="midnightblue" d="M162.59,-608.91C155.99,-606.37 149.54,-603.13 144,-599 120.61,-581.57 75.7,-503.24 60.32,-475.65"/>
<polygon fill="midnightblue" stroke="midnightblue" points="161.68,-612.3 172.27,-612.16 163.9,-605.66 161.68,-612.3"/>
</g>
<!-- Node15&#45;&gt;Node5 -->
<g id="edge19" class="edge">
<title>Node15&#45;&gt;Node5</title>
<path fill="none" stroke="midnightblue" d="M157.82,-554.04C136.79,-559.35 112.43,-565.5 92.7,-570.48"/>
<polygon fill="midnightblue" stroke="midnightblue" points="158.68,-557.43 167.52,-551.59 156.97,-550.64 158.68,-557.43"/>
</g>
<!-- Node15&#45;&gt;Node11 -->
<g id="edge20" class="edge">
<title>Node15&#45;&gt;Node11</title>
<path fill="none" stroke="midnightblue" d="M177.27,-527.74C147.05,-512.48 99.95,-488.7 73.91,-475.55"/>
<polygon fill="midnightblue" stroke="midnightblue" points="175.93,-530.99 186.44,-532.37 179.09,-524.74 175.93,-530.99"/>
</g>
<!-- Node16&#45;&gt;Node12 -->
<g id="edge22" class="edge">
<title>Node16&#45;&gt;Node12</title>
<path fill="none" stroke="midnightblue" d="M151.16,-763.14C137.12,-761.37 122.03,-759.46 108.06,-757.7"/>
<polygon fill="midnightblue" stroke="midnightblue" points="150.8,-766.62 161.16,-764.4 151.68,-759.68 150.8,-766.62"/>
</g>
<!-- Node17&#45;&gt;Node2 -->
<g id="edge24" class="edge">
<title>Node17&#45;&gt;Node2</title>
<path fill="none" stroke="midnightblue" d="M540.88,-430.72C520.4,-413.84 485.74,-388.24 451,-376 388.1,-353.83 310.77,-349.83 260.36,-350.05"/>
<polygon fill="midnightblue" stroke="midnightblue" points="538.85,-433.59 548.76,-437.36 543.37,-428.23 538.85,-433.59"/>
</g>
<!-- Node17&#45;&gt;Node4 -->
<g id="edge25" class="edge">
<title>Node17&#45;&gt;Node4</title>
<path fill="none" stroke="midnightblue" d="M508.16,-460.64C500.28,-464.56 492.83,-469.58 487,-476 448.7,-518.16 496.58,-564.85 451,-599 419.53,-622.58 305.81,-602.01 245.57,-588.89"/>
<polygon fill="midnightblue" stroke="midnightblue" points="509.8,-463.74 517.55,-456.52 506.99,-457.33 509.8,-463.74"/>
</g>
<!-- Node17&#45;&gt;Node5 -->
<g id="edge32" class="edge">
<title>Node17&#45;&gt;Node5</title>
<path fill="none" stroke="midnightblue" d="M495.76,-450.03C412.03,-455.91 261.81,-473.09 144,-523 114.26,-535.6 83.35,-557.81 66.93,-570.47"/>
<polygon fill="midnightblue" stroke="midnightblue" points="496.14,-453.51 505.89,-449.35 495.68,-446.53 496.14,-453.51"/>
</g>
<!-- Node17&#45;&gt;Node8 -->
<g id="edge26" class="edge">
<title>Node17&#45;&gt;Node8</title>
<path fill="none" stroke="midnightblue" d="M506.07,-460.95C498.83,-464.82 492.14,-469.74 487,-476 431.39,-543.81 494.7,-593.97 451,-670 437.68,-693.17 412.39,-711.84 395.61,-722.43"/>
<polygon fill="midnightblue" stroke="midnightblue" points="507.85,-463.98 515.45,-456.61 504.91,-457.63 507.85,-463.98"/>
</g>
<!-- Node17&#45;&gt;Node11 -->
<g id="edge33" class="edge">
<title>Node17&#45;&gt;Node11</title>
<path fill="none" stroke="midnightblue" d="M529.65,-433.48C508.25,-424.55 478.47,-413.67 451,-409 312.34,-385.42 145.26,-434.81 81.49,-456.48"/>
<polygon fill="midnightblue" stroke="midnightblue" points="528.28,-436.7 538.85,-437.41 531.03,-430.26 528.28,-436.7"/>
</g>
<!-- Node17&#45;&gt;Node15 -->
<g id="edge34" class="edge">
<title>Node17&#45;&gt;Node15</title>
<path fill="none" stroke="midnightblue" d="M515.62,-460.17C505.66,-464.31 495.51,-469.54 487,-476 466.03,-491.9 474.12,-510.44 451,-523 395.01,-553.41 320.87,-554.66 269.16,-550.52"/>
<polygon fill="midnightblue" stroke="midnightblue" points="516.99,-463.39 525.06,-456.52 514.47,-456.86 516.99,-463.39"/>
</g>
<!-- Node17&#45;&gt;Node18 -->
<g id="edge27" class="edge">
<title>Node17&#45;&gt;Node18</title>
<path fill="none" stroke="midnightblue" d="M543.31,-429.94C522.44,-408.14 484.8,-369.45 451,-338 430.35,-318.79 405.16,-297.58 390.71,-285.61"/>
<polygon fill="midnightblue" stroke="midnightblue" points="541.01,-432.6 550.45,-437.42 546.08,-427.77 541.01,-432.6"/>
</g>
<!-- Node20 -->
<g id="node20" class="node">
<title>Node20</title>
<g id="a_node20"><a xlink:href="group__models__3d__joint__dovetail__screw.html#ga20f61ef0d29434a144ec653c6320f77f" target="_top" xlink:title="Construct a 3d dovetail joint with optional screw and nut fastener.">
<polygon fill="white" stroke="black" points="313.5,-418.5 313.5,-437.5 442.5,-437.5 442.5,-418.5 313.5,-418.5"/>
<text text-anchor="middle" x="378" y="-425.5" font-family="Helvetica,sans-Serif" font-size="10.00">joint3d_dovetail_screw</text>
</a>
</g>
</g>
<!-- Node17&#45;&gt;Node20 -->
<g id="edge29" class="edge">
<title>Node17&#45;&gt;Node20</title>
<path fill="none" stroke="midnightblue" d="M495.86,-440.3C478.59,-438.48 459.91,-436.52 442.64,-434.7"/>
<polygon fill="midnightblue" stroke="midnightblue" points="495.52,-443.78 505.83,-441.35 496.25,-436.82 495.52,-443.78"/>
</g>
<!-- Node17&#45;&gt;Node21 -->
<g id="edge30" class="edge">
<title>Node17&#45;&gt;Node21</title>
<path fill="none" stroke="midnightblue" d="M553.92,-427.33C541.87,-388.54 509.68,-302.07 451,-257 444.75,-252.2 437.38,-248.6 429.8,-245.92"/>
<polygon fill="midnightblue" stroke="midnightblue" points="550.69,-428.75 556.9,-437.33 557.4,-426.75 550.69,-428.75"/>
</g>
<!-- Node19 -->
<g id="node19" class="node">
<title>Node19</title>
<g id="a_node19"><a xlink:href="group__parts__3d__fastener__hinges.html#ga1ffc82e0bbac466d1dc4fbe6c214b765" target="_top" xlink:title="A print&#45;in&#45;place bi&#45;fold hinge generator.">
<polygon fill="white" stroke="black" points="177,-266.5 177,-285.5 236,-285.5 236,-266.5 177,-266.5"/>
<text text-anchor="middle" x="206.5" y="-273.5" font-family="Helvetica,sans-Serif" font-size="10.00">hinge_bf</text>
</a>
</g>
</g>
<!-- Node18&#45;&gt;Node19 -->
<g id="edge28" class="edge">
<title>Node18&#45;&gt;Node19</title>
<path fill="none" stroke="midnightblue" d="M338.59,-276C307.5,-276 264.41,-276 236.25,-276"/>
<polygon fill="midnightblue" stroke="midnightblue" points="338.63,-279.5 348.63,-276 338.63,-272.5 338.63,-279.5"/>
</g>
<!-- Node21&#45;&gt;Node11 -->
<g id="edge31" class="edge">
<title>Node21&#45;&gt;Node11</title>
<path fill="none" stroke="midnightblue" d="M318.62,-227.11C267.72,-220.99 194.35,-220.69 144,-257 74.59,-307.06 58.9,-422.42 55.73,-456.41"/>
<polygon fill="midnightblue" stroke="midnightblue" points="318.43,-230.61 328.8,-228.45 319.34,-223.67 318.43,-230.61"/>
</g>
<!-- Node23 -->
<g id="node23" class="node">
<title>Node23</title>
<g id="a_node23"><a xlink:href="group__shapes__select__common__2d.html#gadde46fda315aab438eda3f752fec2aed" target="_top" xlink:title="Select configure and construct one of the available 2d shapes.">
<polygon fill="white" stroke="black" points="305,-494.5 305,-513.5 451,-513.5 451,-494.5 305,-494.5"/>
<text text-anchor="middle" x="378" y="-501.5" font-family="Helvetica,sans-Serif" font-size="10.00">select_common_2d_shape</text>
</a>
</g>
</g>
<!-- Node22&#45;&gt;Node23 -->
<g id="edge40" class="edge">
<title>Node22&#45;&gt;Node23</title>
<path fill="none" stroke="midnightblue" d="M503.46,-497.79C486.94,-498.62 468.63,-499.53 451.24,-500.4"/>
<polygon fill="midnightblue" stroke="midnightblue" points="503.67,-501.29 513.49,-497.29 503.32,-494.3 503.67,-501.29"/>
</g>
<!-- Node23&#45;&gt;Node2 -->
<g id="edge41" class="edge">
<title>Node23&#45;&gt;Node2</title>
<path fill="none" stroke="midnightblue" d="M355.84,-488.16C341.24,-477.02 321.56,-461.56 305,-447 271.09,-417.2 233.51,-378.99 216.61,-361.5"/>
<polygon fill="midnightblue" stroke="midnightblue" points="354.11,-491.25 364.2,-494.5 358.34,-485.67 354.11,-491.25"/>
</g>
<!-- Node23&#45;&gt;Node15 -->
<g id="edge42" class="edge">
<title>Node23&#45;&gt;Node15</title>
<path fill="none" stroke="midnightblue" d="M324.26,-515.82C300.36,-521.18 272.48,-527.43 249.96,-532.48"/>
<polygon fill="midnightblue" stroke="midnightblue" points="325.24,-519.19 334.23,-513.59 323.7,-512.36 325.24,-519.19"/>
</g>
<!-- Node25 -->
<g id="node25" class="node">
<title>Node25</title>
<g id="a_node25"><a xlink:href="group__shapes__select__common__3d.html#ga3fd7f214eff2f5935ad1bb56415a4aaf" target="_top" xlink:title="Select configure and construct one of the available 3d shapes.">
<polygon fill="white" stroke="black" points="305,-570.5 305,-589.5 451,-589.5 451,-570.5 305,-570.5"/>
<text text-anchor="middle" x="378" y="-577.5" font-family="Helvetica,sans-Serif" font-size="10.00">select_common_3d_shape</text>
</a>
</g>
</g>
<!-- Node24&#45;&gt;Node25 -->
<g id="edge44" class="edge">
<title>Node24&#45;&gt;Node25</title>
<path fill="none" stroke="midnightblue" d="M497.23,-564.93C482.4,-566.82 466.46,-568.86 451.23,-570.8"/>
<polygon fill="midnightblue" stroke="midnightblue" points="497.81,-568.39 507.29,-563.65 496.93,-561.44 497.81,-568.39"/>
</g>
<!-- Node25&#45;&gt;Node15 -->
<g id="edge45" class="edge">
<title>Node25&#45;&gt;Node15</title>
<path fill="none" stroke="midnightblue" d="M324.26,-568.18C300.36,-562.82 272.48,-556.57 249.96,-551.52"/>
<polygon fill="midnightblue" stroke="midnightblue" points="323.7,-571.64 334.23,-570.41 325.24,-564.81 323.7,-571.64"/>
</g>
<!-- Node29 -->
<g id="node29" class="node">
<title>Node29</title>
<g id="a_node29"><a xlink:href="group__datatypes__table.html#ga7a45ee72b36421f4e73cfba4488f14be" target="_top" xlink:title="Dump table getter functions to the console.">
<polygon fill="white" stroke="black" points="321,-95.5 321,-114.5 435,-114.5 435,-95.5 321,-95.5"/>
<text text-anchor="middle" x="378" y="-102.5" font-family="Helvetica,sans-Serif" font-size="10.00">table_dump_getters</text>
</a>
</g>
</g>
<!-- Node28&#45;&gt;Node29 -->
<g id="edge51" class="edge">
<title>Node28&#45;&gt;Node29</title>
<path fill="none" stroke="midnightblue" d="M512.8,-90.92C489.05,-93.42 459.99,-96.47 435.03,-99.1"/>
<polygon fill="midnightblue" stroke="midnightblue" points="513.39,-94.37 522.97,-89.84 512.66,-87.41 513.39,-94.37"/>
</g>
<!-- Node30 -->
<g id="node30" class="node">
<title>Node30</title>
<g id="a_node30"><a xlink:href="group__common__validation.html#ga19d0234700fba9de9fb0cba52a3d8e17" target="_top" xlink:title="Test data structure db and output the start of test to the test log.">
<polygon fill="white" stroke="black" points="321,-57.5 321,-76.5 435,-76.5 435,-57.5 321,-57.5"/>
<text text-anchor="middle" x="378" y="-64.5" font-family="Helvetica,sans-Serif" font-size="10.00">table_validate_start</text>
</a>
</g>
</g>
<!-- Node28&#45;&gt;Node30 -->
<g id="edge52" class="edge">
<title>Node28&#45;&gt;Node30</title>
<path fill="none" stroke="midnightblue" d="M512.8,-81.08C489.05,-78.58 459.99,-75.53 435.03,-72.9"/>
<polygon fill="midnightblue" stroke="midnightblue" points="512.66,-84.59 522.97,-82.16 513.39,-77.63 512.66,-84.59"/>
</g>
</g>
</svg>
