<?xml version="1.0" encoding="UTF-8" standalone="no"?>
<!DOCTYPE svg PUBLIC "-//W3C//DTD SVG 1.1//EN"
 "http://www.w3.org/Graphics/SVG/1.1/DTD/svg11.dtd">
<!-- Generated by graphviz version 2.43.0 (0)
 -->
<!-- Title: sum Pages: 1 -->
<svg width="500pt" height="324pt"
 viewBox="0.00 0.00 500.00 323.94" xmlns="http://www.w3.org/2000/svg" xmlns:xlink="http://www.w3.org/1999/xlink">
<g id="graph0" class="graph" transform="scale(1 1) rotate(0) translate(4 319.94)">
<title>sum</title>
<polygon fill="white" stroke="transparent" points="-4,4 -4,-319.94 496,-319.94 496,4 -4,4"/>
<!-- Node1 -->
<g id="node1" class="node">
<title>Node1</title>
<g id="a_node1"><a xlink:title="Compute the sum of a list of numbers.">
<polygon fill="#bfbfbf" stroke="black" points="454,-76.5 454,-95.5 492,-95.5 492,-76.5 454,-76.5"/>
<text text-anchor="middle" x="473" y="-83.5" font-family="Helvetica,sans-Serif" font-size="10.00">sum</text>
</a>
</g>
</g>
<!-- Node2 -->
<g id="node2" class="node">
<title>Node2</title>
<g id="a_node2"><a xlink:href="group__transforms__extrude.html#ga45661244067bf945b684550c3263ee45" target="_top" xlink:title="Linearly extrude a 2d shape with multi&#45;segment uniformly&#45;spaced profile scaling.">
<polygon fill="white" stroke="black" points="305,-133.5 305,-152.5 418,-152.5 418,-133.5 305,-133.5"/>
<text text-anchor="middle" x="361.5" y="-140.5" font-family="Helvetica,sans-Serif" font-size="10.00">extrude_linear_mss</text>
</a>
</g>
</g>
<!-- Node1&#45;&gt;Node2 -->
<g id="edge1" class="edge">
<title>Node1&#45;&gt;Node2</title>
<path fill="none" stroke="midnightblue" d="M445.02,-100.04C425.1,-110.41 398.52,-124.25 380.97,-133.38"/>
<polygon fill="midnightblue" stroke="midnightblue" points="446.66,-103.13 453.92,-95.41 443.43,-96.93 446.66,-103.13"/>
</g>
<!-- Node12 -->
<g id="node12" class="node">
<title>Node12</title>
<g id="a_node12"><a xlink:href="group__parts__3d__enclosure__project__box__rectangle.html#ga24cdfe5fd4bb74b75409d9afdbe1f0c0" target="_top" xlink:title="A rectangular box maker for project boxes, enclosures and housings.">
<polygon fill="white" stroke="black" points="144,-0.5 144,-19.5 269,-19.5 269,-0.5 144,-0.5"/>
<text text-anchor="middle" x="206.5" y="-7.5" font-family="Helvetica,sans-Serif" font-size="10.00">project_box_rectangle</text>
</a>
</g>
</g>
<!-- Node1&#45;&gt;Node12 -->
<g id="edge18" class="edge">
<title>Node1&#45;&gt;Node12</title>
<path fill="none" stroke="midnightblue" d="M444.18,-78.01C395.09,-63.9 293.32,-34.66 240.67,-19.53"/>
<polygon fill="midnightblue" stroke="midnightblue" points="443.24,-81.38 453.82,-80.78 445.18,-74.65 443.24,-81.38"/>
</g>
<!-- Node3 -->
<g id="node3" class="node">
<title>Node3</title>
<g id="a_node3"><a xlink:href="group__parts__3d__motion__bearing__linear__rod.html#ga0064887f7c89f8915895c0243bec4a4c" target="_top" xlink:title="Transform 2d or 3d shape into a linear rod ball or sled bearing.">
<polygon fill="white" stroke="black" points="153,-190.5 153,-209.5 260,-209.5 260,-190.5 153,-190.5"/>
<text text-anchor="middle" x="206.5" y="-197.5" font-family="Helvetica,sans-Serif" font-size="10.00">bearing_linear_rod</text>
</a>
</g>
</g>
<!-- Node2&#45;&gt;Node3 -->
<g id="edge2" class="edge">
<title>Node2&#45;&gt;Node3</title>
<path fill="none" stroke="midnightblue" d="M329.68,-156.65C312.07,-164.23 289.48,-173.6 269,-181 259.86,-184.3 249.82,-187.56 240.56,-190.41"/>
<polygon fill="midnightblue" stroke="midnightblue" points="331.13,-159.83 338.91,-152.64 328.34,-153.41 331.13,-159.83"/>
</g>
<!-- Node4 -->
<g id="node4" class="node">
<title>Node4</title>
<g id="a_node4"><a xlink:href="group__parts__3d__fastener__catch__latch.html#ga26a9933aa6d33599daab1be8d632c430" target="_top" xlink:title="A catch latch generator with configurable profile.">
<polygon fill="white" stroke="black" points="170.5,-152.5 170.5,-171.5 242.5,-171.5 242.5,-152.5 170.5,-152.5"/>
<text text-anchor="middle" x="206.5" y="-159.5" font-family="Helvetica,sans-Serif" font-size="10.00">catch_latch</text>
</a>
</g>
</g>
<!-- Node2&#45;&gt;Node4 -->
<g id="edge3" class="edge">
<title>Node2&#45;&gt;Node4</title>
<path fill="none" stroke="midnightblue" d="M294.51,-151.2C276.77,-153.4 258.26,-155.7 242.9,-157.6"/>
<polygon fill="midnightblue" stroke="midnightblue" points="295.34,-154.62 304.83,-149.91 294.48,-147.67 295.34,-154.62"/>
</g>
<!-- Node5 -->
<g id="node5" class="node">
<title>Node5</title>
<g id="a_node5"><a xlink:href="group__parts__3d__fastener__clamps.html#gad5d667c41776480785c62759c61a137e" target="_top" xlink:title="A clamp, bushing, and/or grip for wire, hose, and/or pipe wall penetrations.">
<polygon fill="white" stroke="black" points="175,-114.5 175,-133.5 238,-133.5 238,-114.5 175,-114.5"/>
<text text-anchor="middle" x="206.5" y="-121.5" font-family="Helvetica,sans-Serif" font-size="10.00">clamp_cg</text>
</a>
</g>
</g>
<!-- Node2&#45;&gt;Node5 -->
<g id="edge4" class="edge">
<title>Node2&#45;&gt;Node5</title>
<path fill="none" stroke="midnightblue" d="M294.64,-134.82C274.93,-132.37 254.27,-129.81 238.01,-127.79"/>
<polygon fill="midnightblue" stroke="midnightblue" points="294.48,-138.33 304.83,-136.09 295.34,-131.38 294.48,-138.33"/>
</g>
<!-- Node8 -->
<g id="node8" class="node">
<title>Node8</title>
<g id="a_node8"><a xlink:href="group__parts__3d__fastener__clamps.html#gac715fdab9961aff45be668fb23556835" target="_top" xlink:title="A one piece zip tie clamp to secure wires or provide strain relief.">
<polygon fill="white" stroke="black" points="167.5,-228.5 167.5,-247.5 245.5,-247.5 245.5,-228.5 167.5,-228.5"/>
<text text-anchor="middle" x="206.5" y="-235.5" font-family="Helvetica,sans-Serif" font-size="10.00">clamp_zt_1p</text>
</a>
</g>
</g>
<!-- Node2&#45;&gt;Node8 -->
<g id="edge7" class="edge">
<title>Node2&#45;&gt;Node8</title>
<path fill="none" stroke="midnightblue" d="M344.5,-159.72C327.3,-176.81 298.45,-203.05 269,-219 261.73,-222.94 253.52,-226.19 245.53,-228.82"/>
<polygon fill="midnightblue" stroke="midnightblue" points="347.01,-162.16 351.54,-152.58 342.03,-157.24 347.01,-162.16"/>
</g>
<!-- Node9 -->
<g id="node9" class="node">
<title>Node9</title>
<g id="a_node9"><a xlink:href="group__parts__3d__fastener__mounts.html#ga0cbac43259ec43fff7785057277bcef3" target="_top" xlink:title="A screw mount post with screw bore and optional fins.">
<polygon fill="white" stroke="black" points="0,-285.5 0,-304.5 108,-304.5 108,-285.5 0,-285.5"/>
<text text-anchor="middle" x="54" y="-292.5" font-family="Helvetica,sans-Serif" font-size="10.00">mount_screw_post</text>
</a>
</g>
</g>
<!-- Node2&#45;&gt;Node9 -->
<g id="edge9" class="edge">
<title>Node2&#45;&gt;Node9</title>
<path fill="none" stroke="midnightblue" d="M355.47,-162.63C345.53,-196.8 319.81,-266.28 269,-295 212.24,-327.08 132.73,-315.18 88.34,-304.52"/>
<polygon fill="midnightblue" stroke="midnightblue" points="358.88,-163.45 358.15,-152.88 352.13,-161.59 358.88,-163.45"/>
</g>
<!-- Node10 -->
<g id="node10" class="node">
<title>Node10</title>
<g id="a_node10"><a xlink:href="group__models__3d__misc__omdl__logo.html#gab176f64dad7e83d4fb056be44b71f630" target="_top" xlink:title="Standard omdl logo.">
<polygon fill="white" stroke="black" points="172.5,-38.5 172.5,-57.5 240.5,-57.5 240.5,-38.5 172.5,-38.5"/>
<text text-anchor="middle" x="206.5" y="-45.5" font-family="Helvetica,sans-Serif" font-size="10.00">omdl_logo</text>
</a>
</g>
</g>
<!-- Node2&#45;&gt;Node10 -->
<g id="edge10" class="edge">
<title>Node2&#45;&gt;Node10</title>
<path fill="none" stroke="midnightblue" d="M344.5,-126.28C327.3,-109.19 298.45,-82.95 269,-67 260.25,-62.26 250.16,-58.52 240.7,-55.66"/>
<polygon fill="midnightblue" stroke="midnightblue" points="342.03,-128.76 351.54,-133.42 347.01,-123.84 342.03,-128.76"/>
</g>
<!-- Node11 -->
<g id="node11" class="node">
<title>Node11</title>
<g id="a_node11"><a xlink:href="group__parts__3d__computer__pci__bracket.html#gaf56631cf80d8e5f0b77736b17b94ecd9" target="_top" xlink:title="PCI slot cover and adapter card bracket generator.">
<polygon fill="white" stroke="black" points="170.5,-76.5 170.5,-95.5 242.5,-95.5 242.5,-76.5 170.5,-76.5"/>
<text text-anchor="middle" x="206.5" y="-83.5" font-family="Helvetica,sans-Serif" font-size="10.00">pci_bracket</text>
</a>
</g>
</g>
<!-- Node2&#45;&gt;Node11 -->
<g id="edge12" class="edge">
<title>Node2&#45;&gt;Node11</title>
<path fill="none" stroke="midnightblue" d="M329.68,-129.35C312.07,-121.77 289.48,-112.4 269,-105 259.86,-101.7 249.82,-98.44 240.56,-95.59"/>
<polygon fill="midnightblue" stroke="midnightblue" points="328.34,-132.59 338.91,-133.36 331.13,-126.17 328.34,-132.59"/>
</g>
<!-- Node2&#45;&gt;Node12 -->
<g id="edge13" class="edge">
<title>Node2&#45;&gt;Node12</title>
<path fill="none" stroke="midnightblue" d="M343.9,-125.64C332.54,-113.48 317.36,-96.67 305,-81 287.59,-58.93 291.67,-45.62 269,-29 263.68,-25.1 257.55,-21.99 251.26,-19.51"/>
<polygon fill="midnightblue" stroke="midnightblue" points="341.66,-128.37 351.07,-133.24 346.75,-123.56 341.66,-128.37"/>
</g>
<!-- Node13 -->
<g id="node13" class="node">
<title>Node13</title>
<g id="a_node13"><a xlink:href="group__models__3d__fastener__screws.html#gaad990187680f7ac947e555483d854bfa" target="_top" xlink:title="Gapped fastener bore with engagement cylinders for self&#45;forming threads.">
<polygon fill="white" stroke="black" points="161.5,-266.5 161.5,-285.5 251.5,-285.5 251.5,-266.5 161.5,-266.5"/>
<text text-anchor="middle" x="206.5" y="-273.5" font-family="Helvetica,sans-Serif" font-size="10.00">screw_bore_tsf</text>
</a>
</g>
</g>
<!-- Node2&#45;&gt;Node13 -->
<g id="edge16" class="edge">
<title>Node2&#45;&gt;Node13</title>
<path fill="none" stroke="midnightblue" d="M350.46,-161.46C335.82,-186.69 306.24,-231.68 269,-257 263.36,-260.83 256.92,-263.92 250.38,-266.39"/>
<polygon fill="midnightblue" stroke="midnightblue" points="353.62,-162.98 355.49,-152.55 347.52,-159.54 353.62,-162.98"/>
</g>
<!-- Node6 -->
<g id="node6" class="node">
<title>Node6</title>
<g id="a_node6"><a xlink:href="group__parts__3d__computer__pcie__expansion.html#gab6fb1c9f8f6550633467f4ec0bd3f983" target="_top" xlink:title="Generate a PCI Express expansion open chassis or closed enclosure.">
<polygon fill="white" stroke="black" points="8,-114.5 8,-133.5 100,-133.5 100,-114.5 8,-114.5"/>
<text text-anchor="middle" x="54" y="-121.5" font-family="Helvetica,sans-Serif" font-size="10.00">pcie_expansion</text>
</a>
</g>
</g>
<!-- Node5&#45;&gt;Node6 -->
<g id="edge5" class="edge">
<title>Node5&#45;&gt;Node6</title>
<path fill="none" stroke="midnightblue" d="M164.65,-124C144.67,-124 120.57,-124 100.05,-124"/>
<polygon fill="midnightblue" stroke="midnightblue" points="164.68,-127.5 174.68,-124 164.68,-120.5 164.68,-127.5"/>
</g>
<!-- Node7 -->
<g id="node7" class="node">
<title>Node7</title>
<g id="a_node7"><a xlink:href="group__parts__3d__enclosure__power__strip.html#ga33509a1811b27fe7f3687957d4d32460" target="_top" xlink:title="A power strip generator for single gang electrical receptacles.">
<polygon fill="white" stroke="black" points="9,-38.5 9,-57.5 99,-57.5 99,-38.5 9,-38.5"/>
<text text-anchor="middle" x="54" y="-45.5" font-family="Helvetica,sans-Serif" font-size="10.00">power_strip_sg</text>
</a>
</g>
</g>
<!-- Node5&#45;&gt;Node7 -->
<g id="edge6" class="edge">
<title>Node5&#45;&gt;Node7</title>
<path fill="none" stroke="midnightblue" d="M165.21,-113.27C158.02,-110.87 150.69,-108.11 144,-105 115.04,-91.56 84.33,-70.06 67.63,-57.66"/>
<polygon fill="midnightblue" stroke="midnightblue" points="164.27,-116.64 174.86,-116.31 166.37,-109.97 164.27,-116.64"/>
</g>
<!-- Node8&#45;&gt;Node6 -->
<g id="edge8" class="edge">
<title>Node8&#45;&gt;Node6</title>
<path fill="none" stroke="midnightblue" d="M157.95,-226.08C153.07,-224.05 148.33,-221.71 144,-219 106.63,-195.63 74.55,-152.74 61.39,-133.63"/>
<polygon fill="midnightblue" stroke="midnightblue" points="156.81,-229.39 167.4,-229.6 159.25,-222.83 156.81,-229.39"/>
</g>
<!-- Node10&#45;&gt;Node7 -->
<g id="edge11" class="edge">
<title>Node10&#45;&gt;Node7</title>
<path fill="none" stroke="midnightblue" d="M162.46,-48C142.61,-48 119.07,-48 99.09,-48"/>
<polygon fill="midnightblue" stroke="midnightblue" points="162.47,-51.5 172.47,-48 162.47,-44.5 162.47,-51.5"/>
</g>
<!-- Node12&#45;&gt;Node6 -->
<g id="edge14" class="edge">
<title>Node12&#45;&gt;Node6</title>
<path fill="none" stroke="midnightblue" d="M154.72,-23.32C150.99,-25.01 147.37,-26.89 144,-29 142.77,-29.77 86.44,-90.22 64.04,-114.28"/>
<polygon fill="midnightblue" stroke="midnightblue" points="156.2,-26.5 164.17,-19.52 153.58,-20 156.2,-26.5"/>
</g>
<!-- Node12&#45;&gt;Node7 -->
<g id="edge15" class="edge">
<title>Node12&#45;&gt;Node7</title>
<path fill="none" stroke="midnightblue" d="M157.82,-22.04C136.79,-27.35 112.43,-33.5 92.7,-38.48"/>
<polygon fill="midnightblue" stroke="midnightblue" points="158.68,-25.43 167.52,-19.59 156.97,-18.64 158.68,-25.43"/>
</g>
<!-- Node13&#45;&gt;Node9 -->
<g id="edge17" class="edge">
<title>Node13&#45;&gt;Node9</title>
<path fill="none" stroke="midnightblue" d="M151.16,-282.86C137.12,-284.63 122.03,-286.54 108.06,-288.3"/>
<polygon fill="midnightblue" stroke="midnightblue" points="151.68,-286.32 161.16,-281.6 150.8,-279.38 151.68,-286.32"/>
</g>
</g>
</svg>
