<?xml version="1.0" encoding="UTF-8" standalone="no"?>
<!DOCTYPE svg PUBLIC "-//W3C//DTD SVG 1.1//EN"
 "http://www.w3.org/Graphics/SVG/1.1/DTD/svg11.dtd">
<!-- Generated by graphviz version 2.43.0 (0)
 -->
<!-- Title: get_fn Pages: 1 -->
<svg width="359pt" height="123pt"
 viewBox="0.00 0.00 359.00 123.00" xmlns="http://www.w3.org/2000/svg" xmlns:xlink="http://www.w3.org/1999/xlink">
<g id="graph0" class="graph" transform="scale(1 1) rotate(0) translate(4 119)">
<title>get_fn</title>
<polygon fill="white" stroke="transparent" points="-4,4 -4,-119 355,-119 355,4 -4,4"/>
<!-- Node1 -->
<g id="node1" class="node">
<title>Node1</title>
<g id="a_node1"><a xlink:title="Return facets number for the given arc radius.">
<polygon fill="#bfbfbf" stroke="black" points="304,-57.5 304,-76.5 351,-76.5 351,-57.5 304,-57.5"/>
<text text-anchor="middle" x="327.5" y="-64.5" font-family="Helvetica,sans-Serif" font-size="10.00">get_fn</text>
</a>
</g>
</g>
<!-- Node2 -->
<g id="node2" class="node">
<title>Node2</title>
<g id="a_node2"><a xlink:href="group__transforms__extrude.html#ga2cbff19d3b793918b99aae3b56d37dfa" target="_top" xlink:title="Translate, rotate, scale, and revolve a 2d shape about the z&#45;axis.">
<polygon fill="white" stroke="black" points="152,-95.5 152,-114.5 259,-114.5 259,-95.5 152,-95.5"/>
<text text-anchor="middle" x="205.5" y="-102.5" font-family="Helvetica,sans-Serif" font-size="10.00">extrude_rotate_trs</text>
</a>
</g>
</g>
<!-- Node1&#45;&gt;Node2 -->
<g id="edge1" class="edge">
<title>Node1&#45;&gt;Node2</title>
<path fill="none" stroke="midnightblue" d="M294.15,-77.6C285.65,-80.36 276.49,-83.31 268,-86 258.2,-89.11 247.5,-92.43 237.81,-95.42"/>
<polygon fill="midnightblue" stroke="midnightblue" points="295.32,-80.9 303.74,-74.48 293.15,-74.24 295.32,-80.9"/>
</g>
<!-- Node4 -->
<g id="node4" class="node">
<title>Node4</title>
<g id="a_node4"><a xlink:href="group__parts__3d__fastener__mounts.html#ga0cbac43259ec43fff7785057277bcef3" target="_top" xlink:title="A screw mount post with screw bore and optional fins.">
<polygon fill="white" stroke="black" points="151.5,-57.5 151.5,-76.5 259.5,-76.5 259.5,-57.5 151.5,-57.5"/>
<text text-anchor="middle" x="205.5" y="-64.5" font-family="Helvetica,sans-Serif" font-size="10.00">mount_screw_post</text>
</a>
</g>
</g>
<!-- Node1&#45;&gt;Node4 -->
<g id="edge3" class="edge">
<title>Node1&#45;&gt;Node4</title>
<path fill="none" stroke="midnightblue" d="M293.89,-67C283.31,-67 271.27,-67 259.59,-67"/>
<polygon fill="midnightblue" stroke="midnightblue" points="293.93,-70.5 303.93,-67 293.93,-63.5 293.93,-70.5"/>
</g>
<!-- Node5 -->
<g id="node5" class="node">
<title>Node5</title>
<g id="a_node5"><a xlink:href="group__parts__3d__enclosure__project__box__rectangle.html#ga24cdfe5fd4bb74b75409d9afdbe1f0c0" target="_top" xlink:title="A rectangular box maker for project boxes, enclosures and housings.">
<polygon fill="white" stroke="black" points="143,-19.5 143,-38.5 268,-38.5 268,-19.5 143,-19.5"/>
<text text-anchor="middle" x="205.5" y="-26.5" font-family="Helvetica,sans-Serif" font-size="10.00">project_box_rectangle</text>
</a>
</g>
</g>
<!-- Node1&#45;&gt;Node5 -->
<g id="edge4" class="edge">
<title>Node1&#45;&gt;Node5</title>
<path fill="none" stroke="midnightblue" d="M294.15,-56.4C285.65,-53.64 276.49,-50.69 268,-48 258.2,-44.89 247.5,-41.57 237.81,-38.58"/>
<polygon fill="midnightblue" stroke="midnightblue" points="293.15,-59.76 303.74,-59.52 295.32,-53.1 293.15,-59.76"/>
</g>
<!-- Node3 -->
<g id="node3" class="node">
<title>Node3</title>
<g id="a_node3"><a xlink:href="group__parts__3d__motion__bearing__linear__rod.html#ga0064887f7c89f8915895c0243bec4a4c" target="_top" xlink:title="Transform 2d or 3d shape into a linear rod ball or sled bearing.">
<polygon fill="white" stroke="black" points="0,-95.5 0,-114.5 107,-114.5 107,-95.5 0,-95.5"/>
<text text-anchor="middle" x="53.5" y="-102.5" font-family="Helvetica,sans-Serif" font-size="10.00">bearing_linear_rod</text>
</a>
</g>
</g>
<!-- Node2&#45;&gt;Node3 -->
<g id="edge2" class="edge">
<title>Node2&#45;&gt;Node3</title>
<path fill="none" stroke="midnightblue" d="M141.31,-105C129.94,-105 118.19,-105 107.16,-105"/>
<polygon fill="midnightblue" stroke="midnightblue" points="141.62,-108.5 151.62,-105 141.62,-101.5 141.62,-108.5"/>
</g>
<!-- Node6 -->
<g id="node6" class="node">
<title>Node6</title>
<g id="a_node6"><a xlink:href="group__parts__3d__computer__pcie__expansion.html#gab6fb1c9f8f6550633467f4ec0bd3f983" target="_top" xlink:title="Generate a PCI Express expansion open chassis or closed enclosure.">
<polygon fill="white" stroke="black" points="7.5,-38.5 7.5,-57.5 99.5,-57.5 99.5,-38.5 7.5,-38.5"/>
<text text-anchor="middle" x="53.5" y="-45.5" font-family="Helvetica,sans-Serif" font-size="10.00">pcie_expansion</text>
</a>
</g>
</g>
<!-- Node5&#45;&gt;Node6 -->
<g id="edge5" class="edge">
<title>Node5&#45;&gt;Node6</title>
<path fill="none" stroke="midnightblue" d="M132.44,-38.13C121.3,-39.54 110.07,-40.96 99.74,-42.27"/>
<polygon fill="midnightblue" stroke="midnightblue" points="133.14,-41.57 142.62,-36.84 132.26,-34.62 133.14,-41.57"/>
</g>
<!-- Node7 -->
<g id="node7" class="node">
<title>Node7</title>
<g id="a_node7"><a xlink:href="group__parts__3d__enclosure__power__strip.html#ga33509a1811b27fe7f3687957d4d32460" target="_top" xlink:title="A power strip generator for single gang electrical receptacles.">
<polygon fill="white" stroke="black" points="8.5,-0.5 8.5,-19.5 98.5,-19.5 98.5,-0.5 8.5,-0.5"/>
<text text-anchor="middle" x="53.5" y="-7.5" font-family="Helvetica,sans-Serif" font-size="10.00">power_strip_sg</text>
</a>
</g>
</g>
<!-- Node5&#45;&gt;Node7 -->
<g id="edge6" class="edge">
<title>Node5&#45;&gt;Node7</title>
<path fill="none" stroke="midnightblue" d="M132.56,-19.89C121.05,-18.43 109.45,-16.96 98.83,-15.62"/>
<polygon fill="midnightblue" stroke="midnightblue" points="132.26,-23.38 142.62,-21.16 133.14,-16.43 132.26,-23.38"/>
</g>
</g>
</svg>
