<?xml version="1.0" encoding="UTF-8" standalone="no"?>
<!DOCTYPE svg PUBLIC "-//W3C//DTD SVG 1.1//EN"
 "http://www.w3.org/Graphics/SVG/1.1/DTD/svg11.dtd">
<!-- Generated by graphviz version 2.43.0 (0)
 -->
<!-- Title: repeat_radial Pages: 1 -->
<svg width="703pt" height="180pt"
 viewBox="0.00 0.00 703.00 180.00" xmlns="http://www.w3.org/2000/svg" xmlns:xlink="http://www.w3.org/1999/xlink">
<g id="graph0" class="graph" transform="scale(1 1) rotate(0) translate(4 176)">
<title>repeat_radial</title>
<polygon fill="white" stroke="transparent" points="-4,4 -4,-176 699,-176 699,4 -4,4"/>
<!-- Node1 -->
<g id="node1" class="node">
<title>Node1</title>
<g id="a_node1"><a xlink:title="Radially repeat copies of child objects about a z&#45;axis radius.">
<polygon fill="#bfbfbf" stroke="black" points="614,-76.5 614,-95.5 695,-95.5 695,-76.5 614,-76.5"/>
<text text-anchor="middle" x="654.5" y="-83.5" font-family="Helvetica,sans-Serif" font-size="10.00">repeat_radial</text>
</a>
</g>
</g>
<!-- Node2 -->
<g id="node2" class="node">
<title>Node2</title>
<g id="a_node2"><a xlink:href="group__parts__3d__motion__bearing__linear__rod.html#ga0064887f7c89f8915895c0243bec4a4c" target="_top" xlink:title="Transform 2d or 3d shape into a linear rod ball or sled bearing.">
<polygon fill="white" stroke="black" points="471,-152.5 471,-171.5 578,-171.5 578,-152.5 471,-152.5"/>
<text text-anchor="middle" x="524.5" y="-159.5" font-family="Helvetica,sans-Serif" font-size="10.00">bearing_linear_rod</text>
</a>
</g>
</g>
<!-- Node1&#45;&gt;Node2 -->
<g id="edge1" class="edge">
<title>Node1&#45;&gt;Node2</title>
<path fill="none" stroke="midnightblue" d="M632.7,-101.79C617.88,-112.67 597.26,-127.08 578,-138 568.67,-143.29 557.97,-148.35 548.67,-152.45"/>
<polygon fill="midnightblue" stroke="midnightblue" points="635.18,-104.31 641.11,-95.53 631,-98.69 635.18,-104.31"/>
</g>
<!-- Node3 -->
<g id="node3" class="node">
<title>Node3</title>
<g id="a_node3"><a xlink:href="group__parts__3d__fastener__clamps.html#gad5d667c41776480785c62759c61a137e" target="_top" xlink:title="A clamp, bushing, and/or grip for wire, hose, and/or pipe wall penetrations.">
<polygon fill="white" stroke="black" points="159,-114.5 159,-133.5 222,-133.5 222,-114.5 159,-114.5"/>
<text text-anchor="middle" x="190.5" y="-121.5" font-family="Helvetica,sans-Serif" font-size="10.00">clamp_cg</text>
</a>
</g>
</g>
<!-- Node1&#45;&gt;Node3 -->
<g id="edge2" class="edge">
<title>Node1&#45;&gt;Node3</title>
<path fill="none" stroke="midnightblue" d="M611.74,-98.07C600.84,-100.79 589.05,-103.35 578,-105 446.6,-124.57 287.58,-125.24 222.02,-124.54"/>
<polygon fill="midnightblue" stroke="midnightblue" points="612.65,-101.45 621.45,-95.55 610.89,-94.67 612.65,-101.45"/>
</g>
<!-- Node6 -->
<g id="node6" class="node">
<title>Node6</title>
<g id="a_node6"><a xlink:href="group__models__3d__misc__omdl__logo.html#gab176f64dad7e83d4fb056be44b71f630" target="_top" xlink:title="Standard omdl logo.">
<polygon fill="white" stroke="black" points="328,-0.5 328,-19.5 396,-19.5 396,-0.5 328,-0.5"/>
<text text-anchor="middle" x="362" y="-7.5" font-family="Helvetica,sans-Serif" font-size="10.00">omdl_logo</text>
</a>
</g>
</g>
<!-- Node1&#45;&gt;Node6 -->
<g id="edge5" class="edge">
<title>Node1&#45;&gt;Node6</title>
<path fill="none" stroke="midnightblue" d="M636.87,-69C622.61,-55.61 600.81,-37.78 578,-29 517.15,-5.58 439.69,-5.22 396.32,-7.39"/>
<polygon fill="midnightblue" stroke="midnightblue" points="634.73,-71.81 644.34,-76.27 639.62,-66.79 634.73,-71.81"/>
</g>
<!-- Node7 -->
<g id="node7" class="node">
<title>Node7</title>
<g id="a_node7"><a xlink:href="group__shapes__common__2d.html#ga0e810e30a9ec109e004677036012c428" target="_top" xlink:title="A two&#45;dimensional star.">
<polygon fill="white" stroke="black" points="501,-76.5 501,-95.5 548,-95.5 548,-76.5 501,-76.5"/>
<text text-anchor="middle" x="524.5" y="-83.5" font-family="Helvetica,sans-Serif" font-size="10.00">star2d</text>
</a>
</g>
</g>
<!-- Node1&#45;&gt;Node7 -->
<g id="edge7" class="edge">
<title>Node1&#45;&gt;Node7</title>
<path fill="none" stroke="midnightblue" d="M603.58,-86C584.42,-86 563.48,-86 548.12,-86"/>
<polygon fill="midnightblue" stroke="midnightblue" points="603.7,-89.5 613.7,-86 603.7,-82.5 603.7,-89.5"/>
</g>
<!-- Node11 -->
<g id="node11" class="node">
<title>Node11</title>
<g id="a_node11"><a xlink:href="group__shapes__common__3d.html#ga4ce7dbd0b00fa303b5a6fdb8c4c34ab2" target="_top" xlink:title="A three&#45;dimensional star.">
<polygon fill="white" stroke="black" points="501,-38.5 501,-57.5 548,-57.5 548,-38.5 501,-38.5"/>
<text text-anchor="middle" x="524.5" y="-45.5" font-family="Helvetica,sans-Serif" font-size="10.00">star3d</text>
</a>
</g>
</g>
<!-- Node1&#45;&gt;Node11 -->
<g id="edge13" class="edge">
<title>Node1&#45;&gt;Node11</title>
<path fill="none" stroke="midnightblue" d="M611.48,-73.53C590.37,-67.26 565.62,-59.91 548.11,-54.71"/>
<polygon fill="midnightblue" stroke="midnightblue" points="610.62,-76.92 621.2,-76.41 612.61,-70.21 610.62,-76.92"/>
</g>
<!-- Node4 -->
<g id="node4" class="node">
<title>Node4</title>
<g id="a_node4"><a xlink:href="group__parts__3d__computer__pcie__expansion.html#gab6fb1c9f8f6550633467f4ec0bd3f983" target="_top" xlink:title="Generate a PCI Express expansion open chassis or closed enclosure.">
<polygon fill="white" stroke="black" points="0,-95.5 0,-114.5 92,-114.5 92,-95.5 0,-95.5"/>
<text text-anchor="middle" x="46" y="-102.5" font-family="Helvetica,sans-Serif" font-size="10.00">pcie_expansion</text>
</a>
</g>
</g>
<!-- Node3&#45;&gt;Node4 -->
<g id="edge3" class="edge">
<title>Node3&#45;&gt;Node4</title>
<path fill="none" stroke="midnightblue" d="M148.9,-118.59C131.18,-116.22 110.34,-113.45 92.14,-111.02"/>
<polygon fill="midnightblue" stroke="midnightblue" points="148.56,-122.07 158.93,-119.92 149.48,-115.13 148.56,-122.07"/>
</g>
<!-- Node5 -->
<g id="node5" class="node">
<title>Node5</title>
<g id="a_node5"><a xlink:href="group__parts__3d__enclosure__power__strip.html#ga33509a1811b27fe7f3687957d4d32460" target="_top" xlink:title="A power strip generator for single gang electrical receptacles.">
<polygon fill="white" stroke="black" points="1,-38.5 1,-57.5 91,-57.5 91,-38.5 1,-38.5"/>
<text text-anchor="middle" x="46" y="-45.5" font-family="Helvetica,sans-Serif" font-size="10.00">power_strip_sg</text>
</a>
</g>
</g>
<!-- Node3&#45;&gt;Node5 -->
<g id="edge4" class="edge">
<title>Node3&#45;&gt;Node5</title>
<path fill="none" stroke="midnightblue" d="M149.1,-113.51C141.92,-111.09 134.62,-108.25 128,-105 100.99,-91.74 73.06,-69.97 58.08,-57.52"/>
<polygon fill="midnightblue" stroke="midnightblue" points="148.15,-116.88 158.74,-116.55 150.26,-110.21 148.15,-116.88"/>
</g>
<!-- Node6&#45;&gt;Node5 -->
<g id="edge6" class="edge">
<title>Node6&#45;&gt;Node5</title>
<path fill="none" stroke="midnightblue" d="M317.51,-11.61C270.53,-13.8 193.6,-18.69 128,-29 113.02,-31.35 96.7,-34.97 82.66,-38.42"/>
<polygon fill="midnightblue" stroke="midnightblue" points="317.8,-15.1 327.63,-11.16 317.49,-8.11 317.8,-15.1"/>
</g>
<!-- Node8 -->
<g id="node8" class="node">
<title>Node8</title>
<g id="a_node8"><a xlink:href="group__shapes__select__common__2d.html#gadde46fda315aab438eda3f752fec2aed" target="_top" xlink:title="Select configure and construct one of the available 2d shapes.">
<polygon fill="white" stroke="black" points="289,-76.5 289,-95.5 435,-95.5 435,-76.5 289,-76.5"/>
<text text-anchor="middle" x="362" y="-83.5" font-family="Helvetica,sans-Serif" font-size="10.00">select_common_2d_shape</text>
</a>
</g>
</g>
<!-- Node7&#45;&gt;Node8 -->
<g id="edge8" class="edge">
<title>Node7&#45;&gt;Node8</title>
<path fill="none" stroke="midnightblue" d="M490.44,-86C474.44,-86 454.55,-86 435.28,-86"/>
<polygon fill="midnightblue" stroke="midnightblue" points="490.84,-89.5 500.84,-86 490.84,-82.5 490.84,-89.5"/>
</g>
<!-- Node9 -->
<g id="node9" class="node">
<title>Node9</title>
<g id="a_node9"><a xlink:href="group__parts__2d__enclosure__box__finger__joint.html#gacc1bfb220bc3cfed46dcaa3b84898020" target="_top" xlink:title="Generate a 2D box design using screw&#45;based finger joint (box&#45;joint).">
<polygon fill="white" stroke="black" points="137,-76.5 137,-95.5 244,-95.5 244,-76.5 137,-76.5"/>
<text text-anchor="middle" x="190.5" y="-83.5" font-family="Helvetica,sans-Serif" font-size="10.00">box2d_finger_joint</text>
</a>
</g>
</g>
<!-- Node8&#45;&gt;Node9 -->
<g id="edge9" class="edge">
<title>Node8&#45;&gt;Node9</title>
<path fill="none" stroke="midnightblue" d="M278.41,-86C266.75,-86 255.04,-86 244.15,-86"/>
<polygon fill="midnightblue" stroke="midnightblue" points="278.63,-89.5 288.63,-86 278.63,-82.5 278.63,-89.5"/>
</g>
<!-- Node10 -->
<g id="node10" class="node">
<title>Node10</title>
<g id="a_node10"><a xlink:href="group__parts__3d__enclosure__project__box__rectangle.html#ga24cdfe5fd4bb74b75409d9afdbe1f0c0" target="_top" xlink:title="A rectangular box maker for project boxes, enclosures and housings.">
<polygon fill="white" stroke="black" points="128,-38.5 128,-57.5 253,-57.5 253,-38.5 128,-38.5"/>
<text text-anchor="middle" x="190.5" y="-45.5" font-family="Helvetica,sans-Serif" font-size="10.00">project_box_rectangle</text>
</a>
</g>
</g>
<!-- Node8&#45;&gt;Node10 -->
<g id="edge10" class="edge">
<title>Node8&#45;&gt;Node10</title>
<path fill="none" stroke="midnightblue" d="M308.26,-74.18C284.36,-68.82 256.48,-62.57 233.96,-57.52"/>
<polygon fill="midnightblue" stroke="midnightblue" points="307.7,-77.64 318.23,-76.41 309.24,-70.81 307.7,-77.64"/>
</g>
<!-- Node10&#45;&gt;Node4 -->
<g id="edge11" class="edge">
<title>Node10&#45;&gt;Node4</title>
<path fill="none" stroke="midnightblue" d="M146.16,-60.56C140.01,-62.58 133.81,-64.75 128,-67 105.98,-75.52 81.55,-87.32 65.34,-95.5"/>
<polygon fill="midnightblue" stroke="midnightblue" points="147.23,-63.89 155.7,-57.52 145.11,-57.22 147.23,-63.89"/>
</g>
<!-- Node10&#45;&gt;Node5 -->
<g id="edge12" class="edge">
<title>Node10&#45;&gt;Node5</title>
<path fill="none" stroke="midnightblue" d="M117.65,-48C108.61,-48 99.59,-48 91.16,-48"/>
<polygon fill="midnightblue" stroke="midnightblue" points="117.83,-51.5 127.83,-48 117.83,-44.5 117.83,-51.5"/>
</g>
<!-- Node12 -->
<g id="node12" class="node">
<title>Node12</title>
<g id="a_node12"><a xlink:href="group__shapes__select__common__3d.html#ga3fd7f214eff2f5935ad1bb56415a4aaf" target="_top" xlink:title="Select configure and construct one of the available 3d shapes.">
<polygon fill="white" stroke="black" points="289,-38.5 289,-57.5 435,-57.5 435,-38.5 289,-38.5"/>
<text text-anchor="middle" x="362" y="-45.5" font-family="Helvetica,sans-Serif" font-size="10.00">select_common_3d_shape</text>
</a>
</g>
</g>
<!-- Node11&#45;&gt;Node12 -->
<g id="edge14" class="edge">
<title>Node11&#45;&gt;Node12</title>
<path fill="none" stroke="midnightblue" d="M490.44,-48C474.44,-48 454.55,-48 435.28,-48"/>
<polygon fill="midnightblue" stroke="midnightblue" points="490.84,-51.5 500.84,-48 490.84,-44.5 490.84,-51.5"/>
</g>
<!-- Node12&#45;&gt;Node10 -->
<g id="edge15" class="edge">
<title>Node12&#45;&gt;Node10</title>
<path fill="none" stroke="midnightblue" d="M278.62,-48C270.07,-48 261.49,-48 253.22,-48"/>
<polygon fill="midnightblue" stroke="midnightblue" points="278.63,-51.5 288.63,-48 278.63,-44.5 278.63,-51.5"/>
</g>
</g>
</svg>
