<?xml version="1.0" encoding="UTF-8" standalone="no"?>
<!DOCTYPE svg PUBLIC "-//W3C//DTD SVG 1.1//EN"
 "http://www.w3.org/Graphics/SVG/1.1/DTD/svg11.dtd">
<!-- Generated by graphviz version 2.43.0 (0)
 -->
<!-- Title: Shapes Pages: 1 -->
<svg width="326pt" height="417pt"
 viewBox="0.00 0.00 326.00 417.31" xmlns="http://www.w3.org/2000/svg" xmlns:xlink="http://www.w3.org/1999/xlink">
<g id="graph0" class="graph" transform="scale(1 1) rotate(0) translate(4 413.31)">
<title>Shapes</title>
<polygon fill="white" stroke="transparent" points="-4,4 -4,-413.31 322,-413.31 322,4 -4,4"/>
<!-- Node5 -->
<g id="node1" class="node">
<title>Node5</title>
<g id="a_node1"><a xlink:href="group__shapes__common__2d.html" target="_top" xlink:title="Common 2D shape.">
<polygon fill="white" stroke="black" points="301.5,-391.4 225.5,-391.4 225.5,-372.4 301.5,-372.4 301.5,-391.4"/>
<text text-anchor="middle" x="263.5" y="-379.4" font-family="Helvetica,sans-Serif" font-size="10.00">Common 2d</text>
</a>
</g>
</g>
<!-- Node6 -->
<g id="node2" class="node">
<title>Node6</title>
<g id="a_node2"><a xlink:href="group__shapes__common__3d.html" target="_top" xlink:title="Common 3D shapes.">
<polygon fill="white" stroke="black" points="301.5,-343.4 225.5,-343.4 225.5,-324.4 301.5,-324.4 301.5,-343.4"/>
<text text-anchor="middle" x="263.5" y="-331.4" font-family="Helvetica,sans-Serif" font-size="10.00">Common 3d</text>
</a>
</g>
</g>
<!-- Node8 -->
<g id="node3" class="node">
<title>Node8</title>
<g id="a_node3"><a xlink:href="group__shapes__revolved.html" target="_top" xlink:title="Select 2D shapes revolved about the z&#45;axis.">
<polygon fill="white" stroke="black" points="300.5,-279.4 226.5,-279.4 226.5,-260.4 300.5,-260.4 300.5,-279.4"/>
<text text-anchor="middle" x="263.5" y="-267.4" font-family="Helvetica,sans-Serif" font-size="10.00">Revolutions</text>
</a>
</g>
</g>
<!-- Node1 -->
<g id="node4" class="node">
<title>Node1</title>
<g id="a_node4"><a xlink:title="Common geometric shapes and foundational constructs.">
<polygon fill="#bfbfbf" stroke="black" points="52,-220.4 0,-220.4 0,-201.4 52,-201.4 52,-220.4"/>
<text text-anchor="middle" x="26" y="-208.4" font-family="Helvetica,sans-Serif" font-size="10.00">Shapes</text>
</a>
</g>
</g>
<!-- Node1&#45;&gt;Node5 -->
<g id="edge4" class="edge">
<title>Node1&#45;&gt;Node5</title>
<path fill="none" stroke="black" d="M28.8,-230.45C33.08,-272.15 45.41,-367.59 70,-386.9 118.91,-425.29 198.37,-405.26 238.16,-391.43"/>
<polygon fill="black" stroke="black" points="32.28,-230.05 27.82,-220.44 25.31,-230.73 32.28,-230.05"/>
</g>
<!-- Node1&#45;&gt;Node5 -->
<g id="edge8" class="edge">
<title>Node1&#45;&gt;Node5</title>
<path fill="none" stroke="darkgreen" stroke-dasharray="5,2" d="M26.69,-220.68C26.45,-246.7 29.67,-318.01 70,-352.9 75.83,-357.94 171.18,-370.53 225.45,-377.34"/>
<text text-anchor="middle" x="130.5" y="-374.9" font-family="Helvetica,sans-Serif" font-size="10.00">common_2d.scad</text>
</g>
<!-- Node1&#45;&gt;Node6 -->
<g id="edge5" class="edge">
<title>Node1&#45;&gt;Node6</title>
<path fill="none" stroke="black" d="M27.86,-230.76C30.21,-257.8 38.82,-305.41 70,-327.9 116.37,-361.34 186.68,-352.78 228.26,-343.41"/>
<polygon fill="black" stroke="black" points="31.34,-230.31 27.18,-220.56 24.35,-230.77 31.34,-230.31"/>
</g>
<!-- Node1&#45;&gt;Node6 -->
<g id="edge9" class="edge">
<title>Node1&#45;&gt;Node6</title>
<path fill="none" stroke="darkgreen" stroke-dasharray="5,2" d="M29.3,-220.55C33.89,-237.64 45.91,-273.08 70,-290.9 114.08,-323.49 137.59,-302.52 191,-314.9 203.26,-317.74 216.61,-321.19 228.42,-324.36"/>
<text text-anchor="middle" x="130.5" y="-317.9" font-family="Helvetica,sans-Serif" font-size="10.00">common_3d.scad</text>
</g>
<!-- Node1&#45;&gt;Node8 -->
<g id="edge7" class="edge">
<title>Node1&#45;&gt;Node8</title>
<path fill="none" stroke="black" d="M35.12,-229.56C42.17,-243.2 53.8,-260.69 70,-268.9 119.49,-293.97 185.74,-286.95 226.2,-278.91"/>
<polygon fill="black" stroke="black" points="38.26,-228.02 30.8,-220.5 31.94,-231.03 38.26,-228.02"/>
</g>
<!-- Node1&#45;&gt;Node8 -->
<g id="edge11" class="edge">
<title>Node1&#45;&gt;Node8</title>
<path fill="none" stroke="darkgreen" stroke-dasharray="5,2" d="M52.36,-219.55C58.13,-221.41 64.25,-223.29 70,-224.9 124.05,-239.98 187.58,-254.15 226.43,-262.42"/>
<text text-anchor="middle" x="130.5" y="-256.9" font-family="Helvetica,sans-Serif" font-size="10.00">revolved.scad</text>
</g>
<!-- Node2 -->
<g id="node5" class="node">
<title>Node2</title>
<g id="a_node5"><a xlink:href="group__shapes__polyhedron__db.html" target="_top" xlink:title="Sizable polyhedra generated from shape database.">
<polygon fill="white" stroke="black" points="309.5,-220.4 217.5,-220.4 217.5,-201.4 309.5,-201.4 309.5,-220.4"/>
<text text-anchor="middle" x="263.5" y="-208.4" font-family="Helvetica,sans-Serif" font-size="10.00">Polyhedrons db</text>
</a>
</g>
</g>
<!-- Node1&#45;&gt;Node2 -->
<g id="edge1" class="edge">
<title>Node1&#45;&gt;Node2</title>
<path fill="none" stroke="black" d="M62.35,-210.9C103.71,-210.9 172.26,-210.9 217.41,-210.9"/>
<polygon fill="black" stroke="black" points="62.2,-207.4 52.2,-210.9 62.2,-214.4 62.2,-207.4"/>
</g>
<!-- Node1&#45;&gt;Node2 -->
<g id="edge12" class="edge">
<title>Node1&#45;&gt;Node2</title>
<path fill="none" stroke="darkgreen" stroke-dasharray="5,2" d="M51.68,-201.39C57.6,-199.53 63.95,-197.86 70,-196.9 123.11,-188.47 137.47,-191.7 191,-196.9 200.82,-197.85 211.29,-199.52 221.11,-201.38"/>
<text text-anchor="middle" x="130.5" y="-199.9" font-family="Helvetica,sans-Serif" font-size="10.00">polyhedron_db.scad</text>
</g>
<!-- Node3 -->
<g id="node6" class="node">
<title>Node3</title>
<g id="a_node6"><a xlink:href="group__shapes__select__common__2d.html" target="_top" xlink:title="Selection and configuration for common 2D shapes.">
<polygon fill="white" stroke="black" points="318,-161.4 209,-161.4 209,-142.4 318,-142.4 318,-161.4"/>
<text text-anchor="middle" x="263.5" y="-149.4" font-family="Helvetica,sans-Serif" font-size="10.00">Select Common 2d</text>
</a>
</g>
</g>
<!-- Node1&#45;&gt;Node3 -->
<g id="edge2" class="edge">
<title>Node1&#45;&gt;Node3</title>
<path fill="none" stroke="black" d="M50.59,-195.91C56.72,-192.53 63.45,-189.24 70,-186.9 115.4,-170.61 169.66,-161.62 208.99,-156.85"/>
<polygon fill="black" stroke="black" points="48.42,-193.12 41.55,-201.19 51.95,-199.17 48.42,-193.12"/>
</g>
<!-- Node1&#45;&gt;Node3 -->
<g id="edge13" class="edge">
<title>Node1&#45;&gt;Node3</title>
<path fill="none" stroke="darkgreen" stroke-dasharray="5,2" d="M29.83,-201.37C34.96,-186.01 47.44,-156.22 70,-143.9 122.54,-115.18 195.72,-130.54 234.99,-142.37"/>
<text text-anchor="middle" x="130.5" y="-146.9" font-family="Helvetica,sans-Serif" font-size="10.00">select_common_2d.scad</text>
</g>
<!-- Node7 -->
<g id="node7" class="node">
<title>Node7</title>
<g id="a_node7"><a xlink:href="group__shapes__polygon.html" target="_top" xlink:title="Roundable polygons generated in 2D space.">
<polygon fill="white" stroke="black" points="294,-102.4 233,-102.4 233,-83.4 294,-83.4 294,-102.4"/>
<text text-anchor="middle" x="263.5" y="-90.4" font-family="Helvetica,sans-Serif" font-size="10.00">Polygons</text>
</a>
</g>
</g>
<!-- Node1&#45;&gt;Node7 -->
<g id="edge6" class="edge">
<title>Node1&#45;&gt;Node7</title>
<path fill="none" stroke="black" d="M30.93,-191.55C36.16,-171.08 47.5,-139.49 70,-122.9 95.32,-104.23 185.46,-96.85 232.87,-94.21"/>
<polygon fill="black" stroke="black" points="27.51,-190.83 28.67,-201.36 34.33,-192.4 27.51,-190.83"/>
</g>
<!-- Node1&#45;&gt;Node7 -->
<g id="edge10" class="edge">
<title>Node1&#45;&gt;Node7</title>
<path fill="none" stroke="darkgreen" stroke-dasharray="5,2" d="M26.77,-201.31C26.75,-176.53 30.55,-110.33 70,-81.9 121.19,-45 201.36,-68.4 240.08,-83.31"/>
<text text-anchor="middle" x="130.5" y="-84.9" font-family="Helvetica,sans-Serif" font-size="10.00">polygon.scad</text>
</g>
<!-- Node4 -->
<g id="node8" class="node">
<title>Node4</title>
<g id="a_node8"><a xlink:href="group__shapes__select__common__3d.html" target="_top" xlink:title="Selection and configuration for common 3D shapes.">
<polygon fill="white" stroke="black" points="318,-43.4 209,-43.4 209,-24.4 318,-24.4 318,-43.4"/>
<text text-anchor="middle" x="263.5" y="-31.4" font-family="Helvetica,sans-Serif" font-size="10.00">Select Common 3d</text>
</a>
</g>
</g>
<!-- Node1&#45;&gt;Node4 -->
<g id="edge3" class="edge">
<title>Node1&#45;&gt;Node4</title>
<path fill="none" stroke="black" d="M26.35,-191.3C26.45,-158.82 31.77,-94.12 70,-60.9 90.19,-43.35 159.17,-37.18 208.79,-35.03"/>
<polygon fill="black" stroke="black" points="22.86,-191.39 26.49,-201.34 29.85,-191.29 22.86,-191.39"/>
</g>
<!-- Node1&#45;&gt;Node4 -->
<g id="edge14" class="edge">
<title>Node1&#45;&gt;Node4</title>
<path fill="none" stroke="darkgreen" stroke-dasharray="5,2" d="M27.66,-201.1C30.27,-165.51 41.2,-43.91 70,-20.9 120.25,19.25 203.4,-8.14 241.84,-24.34"/>
<text text-anchor="middle" x="130.5" y="-23.9" font-family="Helvetica,sans-Serif" font-size="10.00">select_common_3d.scad</text>
</g>
</g>
</svg>
