<?xml version="1.0" encoding="UTF-8" standalone="no"?>
<!DOCTYPE svg PUBLIC "-//W3C//DTD SVG 1.1//EN"
 "http://www.w3.org/Graphics/SVG/1.1/DTD/svg11.dtd">
<!-- Generated by graphviz version 2.43.0 (0)
 -->
<!-- Title: Power Strip Pages: 1 -->
<svg width="263pt" height="35pt"
 viewBox="0.00 0.00 263.00 35.25" xmlns="http://www.w3.org/2000/svg" xmlns:xlink="http://www.w3.org/1999/xlink">
<g id="graph0" class="graph" transform="scale(1 1) rotate(0) translate(4 31.25)">
<title>Power Strip</title>
<polygon fill="white" stroke="transparent" points="-4,4 -4,-31.25 259,-31.25 259,4 -4,4"/>
<!-- Node2 -->
<g id="node1" class="node">
<title>Node2</title>
<g id="a_node1"><a xlink:href="group__parts__3d__enclosure.html" target="_top" xlink:title="Project boxes, housings and enclosures.">
<polygon fill="white" stroke="black" points="64,-27.25 0,-27.25 0,-8.25 64,-8.25 64,-27.25"/>
<text text-anchor="middle" x="32" y="-15.25" font-family="Helvetica,sans-Serif" font-size="10.00">Enclosure</text>
</a>
</g>
</g>
<!-- Node1 -->
<g id="node2" class="node">
<title>Node1</title>
<g id="a_node2"><a xlink:title="Electrical receptacle power strip generator.">
<polygon fill="#bfbfbf" stroke="black" points="255,-27.25 183,-27.25 183,-8.25 255,-8.25 255,-27.25"/>
<text text-anchor="middle" x="219" y="-15.25" font-family="Helvetica,sans-Serif" font-size="10.00">Power Strip</text>
</a>
</g>
</g>
<!-- Node2&#45;&gt;Node1 -->
<g id="edge1" class="edge">
<title>Node2&#45;&gt;Node1</title>
<path fill="none" stroke="black" d="M74.52,-17.75C107.17,-17.75 152.15,-17.75 182.99,-17.75"/>
<polygon fill="black" stroke="black" points="74.38,-14.25 64.38,-17.75 74.38,-21.25 74.38,-14.25"/>
</g>
<!-- Node1&#45;&gt;Node2 -->
<g id="edge2" class="edge">
<title>Node1&#45;&gt;Node2</title>
<path fill="none" stroke="darkgreen" stroke-dasharray="5,2" d="M187.44,-8.24C180.16,-6.37 172.36,-4.7 165,-3.75 128.42,1 118.53,1.37 82,-3.75 75.17,-4.7 67.95,-6.38 61.21,-8.24"/>
<text text-anchor="middle" x="123.5" y="-6.75" font-family="Helvetica,sans-Serif" font-size="10.00">power_strip.scad</text>
</g>
</g>
</svg>
