<?xml version="1.0" encoding="UTF-8" standalone="no"?>
<!DOCTYPE svg PUBLIC "-//W3C//DTD SVG 1.1//EN"
 "http://www.w3.org/Graphics/SVG/1.1/DTD/svg11.dtd">
<!-- Generated by graphviz version 2.43.0 (0)
 -->
<!-- Title: clamp_cg Pages: 1 -->
<svg width="539pt" height="674pt"
 viewBox="0.00 0.00 539.00 674.00" xmlns="http://www.w3.org/2000/svg" xmlns:xlink="http://www.w3.org/1999/xlink">
<g id="graph0" class="graph" transform="scale(1 1) rotate(0) translate(4 670)">
<title>clamp_cg</title>
<polygon fill="white" stroke="transparent" points="-4,4 -4,-670 535,-670 535,4 -4,4"/>
<!-- Node1 -->
<g id="node1" class="node">
<title>Node1</title>
<g id="a_node1"><a xlink:title="A clamp, bushing, and/or grip for wire, hose, and/or pipe wall penetrations.">
<polygon fill="#bfbfbf" stroke="black" points="0,-266.5 0,-285.5 63,-285.5 63,-266.5 0,-266.5"/>
<text text-anchor="middle" x="31.5" y="-273.5" font-family="Helvetica,sans-Serif" font-size="10.00">clamp_cg</text>
</a>
</g>
</g>
<!-- Node2 -->
<g id="node2" class="node">
<title>Node2</title>
<g id="a_node2"><a xlink:href="group__datatypes__binary.html#ga7ce4ed94d9b389ff817ea219918b8732" target="_top" xlink:title="Test if a binary bit position of an integer value equals a test bit.">
<polygon fill="white" stroke="black" points="278.5,-152.5 278.5,-171.5 357.5,-171.5 357.5,-152.5 278.5,-152.5"/>
<text text-anchor="middle" x="318" y="-159.5" font-family="Helvetica,sans-Serif" font-size="10.00">binary_bit_is</text>
</a>
</g>
</g>
<!-- Node1&#45;&gt;Node2 -->
<g id="edge1" class="edge">
<title>Node1&#45;&gt;Node2</title>
<path fill="none" stroke="midnightblue" d="M40.98,-266.42C52.75,-253.7 75.29,-231.41 99,-219 128.2,-203.72 213.42,-183.86 268.25,-172.07"/>
<polygon fill="midnightblue" stroke="midnightblue" points="269.07,-175.47 278.12,-169.96 267.61,-168.63 269.07,-175.47"/>
</g>
<!-- Node3 -->
<g id="node3" class="node">
<title>Node3</title>
<g id="a_node3"><a xlink:href="group__shapes__common__3d.html#ga5075cfcc6967fb610e308f08da3fb059" target="_top" xlink:title="A cone.">
<polygon fill="white" stroke="black" points="135.5,-418.5 135.5,-437.5 175.5,-437.5 175.5,-418.5 135.5,-418.5"/>
<text text-anchor="middle" x="155.5" y="-425.5" font-family="Helvetica,sans-Serif" font-size="10.00">cone</text>
</a>
</g>
</g>
<!-- Node1&#45;&gt;Node3 -->
<g id="edge2" class="edge">
<title>Node1&#45;&gt;Node3</title>
<path fill="none" stroke="midnightblue" d="M39.2,-285.68C50.89,-302.41 75.94,-337.67 99,-366 111.6,-381.48 126.76,-398.3 138.05,-410.51"/>
<polygon fill="midnightblue" stroke="midnightblue" points="135.79,-413.23 145.17,-418.16 140.91,-408.45 135.79,-413.23"/>
</g>
<!-- Node5 -->
<g id="node5" class="node">
<title>Node5</title>
<g id="a_node5"><a xlink:href="group__datatypes__iterable__operate.html#ga3d37c2b0067d1661724bd89955c8f6ce" target="_top" xlink:title="Returns an element from an iterable if it exists, or a default value if not.">
<polygon fill="white" stroke="black" points="438,-323.5 438,-342.5 517,-342.5 517,-323.5 438,-323.5"/>
<text text-anchor="middle" x="477.5" y="-330.5" font-family="Helvetica,sans-Serif" font-size="10.00">defined_e_or</text>
</a>
</g>
</g>
<!-- Node1&#45;&gt;Node5 -->
<g id="edge7" class="edge">
<title>Node1&#45;&gt;Node5</title>
<path fill="none" stroke="midnightblue" d="M61.69,-285.56C73.21,-289 86.62,-292.63 99,-295 215.69,-317.36 355.36,-327.08 427.69,-330.86"/>
<polygon fill="midnightblue" stroke="midnightblue" points="427.7,-334.37 437.86,-331.38 428.05,-327.38 427.7,-334.37"/>
</g>
<!-- Node6 -->
<g id="node6" class="node">
<title>Node6</title>
<g id="a_node6"><a xlink:href="group__math__polygon.html#ga7a0eff64929a142fc507615f83e3bd58" target="_top" xlink:title="Compute coordinates that round all of the vertices between each adjacent edges in 2D.">
<polygon fill="white" stroke="black" points="248,-494.5 248,-513.5 388,-513.5 388,-494.5 248,-494.5"/>
<text text-anchor="middle" x="318" y="-501.5" font-family="Helvetica,sans-Serif" font-size="10.00">polygon_round_eve_all_p</text>
</a>
</g>
</g>
<!-- Node1&#45;&gt;Node6 -->
<g id="edge24" class="edge">
<title>Node1&#45;&gt;Node6</title>
<path fill="none" stroke="midnightblue" d="M33.29,-285.85C36.18,-315.11 48.82,-402.29 99,-447 136.88,-480.75 192.33,-494.93 237.82,-500.71"/>
<polygon fill="midnightblue" stroke="midnightblue" points="237.63,-504.21 247.96,-501.89 238.43,-497.26 237.63,-504.21"/>
</g>
<!-- Node8 -->
<g id="node8" class="node">
<title>Node8</title>
<g id="a_node8"><a xlink:href="group__transforms__extrude.html#ga45661244067bf945b684550c3263ee45" target="_top" xlink:title="Linearly extrude a 2d shape with multi&#45;segment uniformly&#45;spaced profile scaling.">
<polygon fill="white" stroke="black" points="99,-570.5 99,-589.5 212,-589.5 212,-570.5 99,-570.5"/>
<text text-anchor="middle" x="155.5" y="-577.5" font-family="Helvetica,sans-Serif" font-size="10.00">extrude_linear_mss</text>
</a>
</g>
</g>
<!-- Node1&#45;&gt;Node8 -->
<g id="edge8" class="edge">
<title>Node1&#45;&gt;Node8</title>
<path fill="none" stroke="midnightblue" d="M34.28,-285.74C40.31,-317.57 61.76,-420.97 99,-499 110.15,-522.37 127.6,-546.52 139.96,-562.3"/>
<polygon fill="midnightblue" stroke="midnightblue" points="137.25,-564.51 146.22,-570.14 142.72,-560.15 137.25,-564.51"/>
</g>
<!-- Node14 -->
<g id="node14" class="node">
<title>Node14</title>
<g id="a_node14"><a xlink:href="group__transforms__extrude.html#ga78405b5fa18461a302a2f24646499ece" target="_top" xlink:title="Translate, rotate, and revolve a 2d shape about the z&#45;axis with linear elongation.">
<polygon fill="white" stroke="black" points="103.5,-266.5 103.5,-285.5 207.5,-285.5 207.5,-266.5 103.5,-266.5"/>
<text text-anchor="middle" x="155.5" y="-273.5" font-family="Helvetica,sans-Serif" font-size="10.00">extrude_rotate_trl</text>
</a>
</g>
</g>
<!-- Node1&#45;&gt;Node14 -->
<g id="edge17" class="edge">
<title>Node1&#45;&gt;Node14</title>
<path fill="none" stroke="midnightblue" d="M63.29,-276C72.39,-276 82.7,-276 93.03,-276"/>
<polygon fill="midnightblue" stroke="midnightblue" points="93.31,-279.5 103.31,-276 93.31,-272.5 93.31,-279.5"/>
</g>
<!-- Node16 -->
<g id="node16" class="node">
<title>Node16</title>
<g id="a_node16"><a xlink:href="group__datatypes__scalar__test.html#ga51d7fdb800c10f4b7479d23b89ab8d22" target="_top" xlink:title="Test if a value is defined.">
<polygon fill="white" stroke="black" points="122.5,-228.5 122.5,-247.5 188.5,-247.5 188.5,-228.5 122.5,-228.5"/>
<text text-anchor="middle" x="155.5" y="-235.5" font-family="Helvetica,sans-Serif" font-size="10.00">is_defined</text>
</a>
</g>
</g>
<!-- Node1&#45;&gt;Node16 -->
<g id="edge23" class="edge">
<title>Node1&#45;&gt;Node16</title>
<path fill="none" stroke="midnightblue" d="M63.29,-266.41C78.6,-261.64 97.32,-255.81 113.8,-250.68"/>
<polygon fill="midnightblue" stroke="midnightblue" points="115.22,-253.9 123.72,-247.59 113.14,-247.22 115.22,-253.9"/>
</g>
<!-- Node17 -->
<g id="node17" class="node">
<title>Node17</title>
<g id="a_node17"><a xlink:href="group__transforms__repeat.html#ga8da1e3a852a1b25ba93437a6fe46745f" target="_top" xlink:title="Radially repeat copies of child objects about a z&#45;axis radius.">
<polygon fill="white" stroke="black" points="277.5,-0.5 277.5,-19.5 358.5,-19.5 358.5,-0.5 277.5,-0.5"/>
<text text-anchor="middle" x="318" y="-7.5" font-family="Helvetica,sans-Serif" font-size="10.00">repeat_radial</text>
</a>
</g>
</g>
<!-- Node1&#45;&gt;Node17 -->
<g id="edge25" class="edge">
<title>Node1&#45;&gt;Node17</title>
<path fill="none" stroke="midnightblue" d="M33.11,-266.24C35.54,-235.47 47.12,-139.39 99,-86 143.72,-39.98 217.78,-21.79 266.98,-14.63"/>
<polygon fill="midnightblue" stroke="midnightblue" points="267.64,-18.07 277.08,-13.26 266.7,-11.13 267.64,-18.07"/>
</g>
<!-- Node20 -->
<g id="node20" class="node">
<title>Node20</title>
<g id="a_node20"><a xlink:href="group__datatypes__iterable__operate.html#gafb1f112a3ab162d589c49d1b2de21b9e" target="_top" xlink:title="Reverse the elements of an iterable value.">
<polygon fill="white" stroke="black" points="129,-152.5 129,-171.5 182,-171.5 182,-152.5 129,-152.5"/>
<text text-anchor="middle" x="155.5" y="-159.5" font-family="Helvetica,sans-Serif" font-size="10.00">reverse</text>
</a>
</g>
</g>
<!-- Node1&#45;&gt;Node20 -->
<g id="edge29" class="edge">
<title>Node1&#45;&gt;Node20</title>
<path fill="none" stroke="midnightblue" d="M37.41,-266.29C46.99,-248.23 69.79,-209.2 99,-186 105.05,-181.2 112.2,-177.17 119.33,-173.88"/>
<polygon fill="midnightblue" stroke="midnightblue" points="121.07,-176.94 128.92,-169.83 118.35,-170.49 121.07,-176.94"/>
</g>
<!-- Node21 -->
<g id="node21" class="node">
<title>Node21</title>
<g id="a_node21"><a xlink:href="group__shapes__common__2d.html#ga418d0856a660b285e273037b014d31f7" target="_top" xlink:title="A rhombus.">
<polygon fill="white" stroke="black" points="288.5,-342.5 288.5,-361.5 347.5,-361.5 347.5,-342.5 288.5,-342.5"/>
<text text-anchor="middle" x="318" y="-349.5" font-family="Helvetica,sans-Serif" font-size="10.00">rhombus</text>
</a>
</g>
</g>
<!-- Node1&#45;&gt;Node21 -->
<g id="edge30" class="edge">
<title>Node1&#45;&gt;Node21</title>
<path fill="none" stroke="midnightblue" d="M41.33,-285.63C53.15,-297.82 75.38,-318.38 99,-328 158.09,-352.06 233.23,-354.9 278.08,-354"/>
<polygon fill="midnightblue" stroke="midnightblue" points="278.37,-357.49 288.27,-353.72 278.17,-350.5 278.37,-357.49"/>
</g>
<!-- Node22 -->
<g id="node22" class="node">
<title>Node22</title>
<g id="a_node22"><a xlink:href="group__models__3d__fastener__screws.html#ga57dcfe1241e15eaa58ccd08891504a93" target="_top" xlink:title="Flat and beveled&#45;head fastener bore with nut, nut slot, and bore tolerance.">
<polygon fill="white" stroke="black" points="119.5,-95.5 119.5,-114.5 191.5,-114.5 191.5,-95.5 119.5,-95.5"/>
<text text-anchor="middle" x="155.5" y="-102.5" font-family="Helvetica,sans-Serif" font-size="10.00">screw_bore</text>
</a>
</g>
</g>
<!-- Node1&#45;&gt;Node22 -->
<g id="edge34" class="edge">
<title>Node1&#45;&gt;Node22</title>
<path fill="none" stroke="midnightblue" d="M35.44,-266.34C42.93,-242.99 64.56,-182.5 99,-143 106.87,-133.97 117.35,-126.07 127.08,-119.85"/>
<polygon fill="midnightblue" stroke="midnightblue" points="128.97,-122.8 135.71,-114.63 125.34,-116.82 128.97,-122.8"/>
</g>
<!-- Node4 -->
<g id="node4" class="node">
<title>Node4</title>
<g id="a_node4"><a xlink:href="group__units__angle.html#ga06a917b77748dfb74e765bcd7c4c0219" target="_top" xlink:title="Convert an angle value from one unit to another.">
<polygon fill="white" stroke="black" points="455.5,-190.5 455.5,-209.5 499.5,-209.5 499.5,-190.5 455.5,-190.5"/>
<text text-anchor="middle" x="477.5" y="-197.5" font-family="Helvetica,sans-Serif" font-size="10.00">angle</text>
</a>
</g>
</g>
<!-- Node3&#45;&gt;Node4 -->
<g id="edge3" class="edge">
<title>Node3&#45;&gt;Node4</title>
<path fill="none" stroke="midnightblue" d="M164.31,-418.25C179.24,-400.01 213.42,-360.15 248,-333 313.59,-281.5 401.16,-236.12 446.48,-214.1"/>
<polygon fill="midnightblue" stroke="midnightblue" points="448.26,-217.13 455.75,-209.64 445.22,-210.82 448.26,-217.13"/>
</g>
<!-- Node3&#45;&gt;Node5 -->
<g id="edge4" class="edge">
<title>Node3&#45;&gt;Node5</title>
<path fill="none" stroke="midnightblue" d="M175.71,-424.38C215.76,-416.6 310.88,-396.85 388,-371 408.28,-364.2 430.38,-354.71 447.43,-346.92"/>
<polygon fill="midnightblue" stroke="midnightblue" points="449.23,-349.94 456.83,-342.55 446.28,-343.59 449.23,-349.94"/>
</g>
<!-- Node3&#45;&gt;Node6 -->
<g id="edge5" class="edge">
<title>Node3&#45;&gt;Node6</title>
<path fill="none" stroke="midnightblue" d="M169.17,-437.56C186.26,-450.05 218,-471.86 248,-485 253.4,-487.36 259.16,-489.5 264.97,-491.42"/>
<polygon fill="midnightblue" stroke="midnightblue" points="264.15,-494.83 274.73,-494.44 266.21,-488.14 264.15,-494.83"/>
</g>
<!-- Node7 -->
<g id="node7" class="node">
<title>Node7</title>
<g id="a_node7"><a xlink:href="group__math__triangle.html#gaab9b812d15418fd05c9d93f3bfcc1989" target="_top" xlink:title="Compute a set of vertex coordinates for a triangle given its side lengths in 2D.">
<polygon fill="white" stroke="black" points="262.5,-456.5 262.5,-475.5 373.5,-475.5 373.5,-456.5 262.5,-456.5"/>
<text text-anchor="middle" x="318" y="-463.5" font-family="Helvetica,sans-Serif" font-size="10.00">triangle2d_sss2ppp</text>
</a>
</g>
</g>
<!-- Node3&#45;&gt;Node7 -->
<g id="edge6" class="edge">
<title>Node3&#45;&gt;Node7</title>
<path fill="none" stroke="midnightblue" d="M175.54,-432.51C197.95,-437.81 236.02,-446.83 267.02,-454.17"/>
<polygon fill="midnightblue" stroke="midnightblue" points="266.28,-457.59 276.81,-456.49 267.89,-450.78 266.28,-457.59"/>
</g>
<!-- Node9 -->
<g id="node9" class="node">
<title>Node9</title>
<g id="a_node9"><a xlink:href="group__transforms__extrude.html#gab2442cfaf1ad44d6e295ab0979d9e03d" target="_top" xlink:title="Linearly extrude a 2d shape with uniformly&#45;spaced profile scaling.">
<polygon fill="white" stroke="black" points="263.5,-608.5 263.5,-627.5 372.5,-627.5 372.5,-608.5 263.5,-608.5"/>
<text text-anchor="middle" x="318" y="-615.5" font-family="Helvetica,sans-Serif" font-size="10.00">extrude_linear_uss</text>
</a>
</g>
</g>
<!-- Node8&#45;&gt;Node9 -->
<g id="edge9" class="edge">
<title>Node8&#45;&gt;Node9</title>
<path fill="none" stroke="midnightblue" d="M197,-589.59C218.18,-594.6 244.3,-600.79 266.76,-606.11"/>
<polygon fill="midnightblue" stroke="midnightblue" points="266.25,-609.58 276.79,-608.48 267.87,-602.77 266.25,-609.58"/>
</g>
<!-- Node10 -->
<g id="node10" class="node">
<title>Node10</title>
<g id="a_node10"><a xlink:href="group__datatypes__iterable__operate.html#gaccab3e37e43cb1d882713b3f3d6d9e1b" target="_top" xlink:title="Return the first element of an iterable value.">
<polygon fill="white" stroke="black" points="460,-646.5 460,-665.5 495,-665.5 495,-646.5 460,-646.5"/>
<text text-anchor="middle" x="477.5" y="-653.5" font-family="Helvetica,sans-Serif" font-size="10.00">first</text>
</a>
</g>
</g>
<!-- Node8&#45;&gt;Node10 -->
<g id="edge14" class="edge">
<title>Node8&#45;&gt;Node10</title>
<path fill="none" stroke="midnightblue" d="M167.72,-589.51C184.14,-602.79 216.2,-626.46 248,-637 318.02,-660.21 406.39,-659.77 449.86,-657.76"/>
<polygon fill="midnightblue" stroke="midnightblue" points="450.11,-661.25 459.91,-657.23 449.74,-654.26 450.11,-661.25"/>
</g>
<!-- Node11 -->
<g id="node11" class="node">
<title>Node11</title>
<g id="a_node11"><a xlink:href="group__datatypes__scalar__test.html#ga258e8911375d30ff85a6e52df01dc1c5" target="_top" xlink:title="Test if a value is a single non&#45;iterable value.">
<polygon fill="white" stroke="black" points="448,-475.5 448,-494.5 507,-494.5 507,-475.5 448,-475.5"/>
<text text-anchor="middle" x="477.5" y="-482.5" font-family="Helvetica,sans-Serif" font-size="10.00">is_scalar</text>
</a>
</g>
</g>
<!-- Node8&#45;&gt;Node11 -->
<g id="edge15" class="edge">
<title>Node8&#45;&gt;Node11</title>
<path fill="none" stroke="midnightblue" d="M212.07,-584.84C260.43,-586.9 331.44,-584.63 388,-561 418.51,-548.25 446.11,-520.85 462.09,-502.67"/>
<polygon fill="midnightblue" stroke="midnightblue" points="465.15,-504.48 468.97,-494.59 459.82,-499.94 465.15,-504.48"/>
</g>
<!-- Node13 -->
<g id="node13" class="node">
<title>Node13</title>
<g id="a_node13"><a xlink:href="group__datatypes__list__operate.html#gae12565005038993506dc37249e32766d" target="_top" xlink:title="Compute the sum of a list of numbers.">
<polygon fill="white" stroke="black" points="299,-532.5 299,-551.5 337,-551.5 337,-532.5 299,-532.5"/>
<text text-anchor="middle" x="318" y="-539.5" font-family="Helvetica,sans-Serif" font-size="10.00">sum</text>
</a>
</g>
</g>
<!-- Node8&#45;&gt;Node13 -->
<g id="edge16" class="edge">
<title>Node8&#45;&gt;Node13</title>
<path fill="none" stroke="midnightblue" d="M197,-570.41C225.73,-563.61 263.55,-554.65 288.99,-548.63"/>
<polygon fill="midnightblue" stroke="midnightblue" points="289.82,-552.03 298.74,-546.32 288.21,-545.22 289.82,-552.03"/>
</g>
<!-- Node9&#45;&gt;Node5 -->
<g id="edge10" class="edge">
<title>Node9&#45;&gt;Node5</title>
<path fill="none" stroke="midnightblue" d="M334.73,-608.49C350.19,-598.43 373.53,-581.21 388,-561 414.28,-524.29 407.71,-508.11 424,-466 439.74,-425.3 458.62,-377.79 468.9,-352.01"/>
<polygon fill="midnightblue" stroke="midnightblue" points="472.18,-353.25 472.63,-342.66 465.68,-350.65 472.18,-353.25"/>
</g>
<!-- Node9&#45;&gt;Node10 -->
<g id="edge11" class="edge">
<title>Node9&#45;&gt;Node10</title>
<path fill="none" stroke="midnightblue" d="M358.74,-627.59C387.29,-634.48 424.98,-643.57 449.95,-649.59"/>
<polygon fill="midnightblue" stroke="midnightblue" points="449.26,-653.03 459.8,-651.97 450.9,-646.22 449.26,-653.03"/>
</g>
<!-- Node9&#45;&gt;Node11 -->
<g id="edge12" class="edge">
<title>Node9&#45;&gt;Node11</title>
<path fill="none" stroke="midnightblue" d="M358.42,-608.47C368.6,-604.92 379.17,-600.19 388,-594 422.9,-569.51 451.42,-527.61 465.99,-503.51"/>
<polygon fill="midnightblue" stroke="midnightblue" points="469.14,-505.06 471.2,-494.66 463.11,-501.51 469.14,-505.06"/>
</g>
<!-- Node12 -->
<g id="node12" class="node">
<title>Node12</title>
<g id="a_node12"><a xlink:href="group__datatypes__iterable__operate.html#ga894d4bec62cc9cf38d5e099de3028c54" target="_top" xlink:title="Return the second element of an iterable value.">
<polygon fill="white" stroke="black" points="452,-608.5 452,-627.5 503,-627.5 503,-608.5 452,-608.5"/>
<text text-anchor="middle" x="477.5" y="-615.5" font-family="Helvetica,sans-Serif" font-size="10.00">second</text>
</a>
</g>
</g>
<!-- Node9&#45;&gt;Node12 -->
<g id="edge13" class="edge">
<title>Node9&#45;&gt;Node12</title>
<path fill="none" stroke="midnightblue" d="M372.76,-618C395.53,-618 421.4,-618 441.61,-618"/>
<polygon fill="midnightblue" stroke="midnightblue" points="441.62,-621.5 451.62,-618 441.62,-614.5 441.62,-621.5"/>
</g>
<!-- Node14&#45;&gt;Node2 -->
<g id="edge18" class="edge">
<title>Node14&#45;&gt;Node2</title>
<path fill="none" stroke="midnightblue" d="M197.12,-266.42C202.52,-263.95 207.67,-260.87 212,-257 239.87,-232.1 219.38,-205.04 248,-181 254.02,-175.94 261.28,-172.23 268.8,-169.49"/>
<polygon fill="midnightblue" stroke="midnightblue" points="269.87,-172.83 278.39,-166.53 267.8,-166.14 269.87,-172.83"/>
</g>
<!-- Node14&#45;&gt;Node5 -->
<g id="edge19" class="edge">
<title>Node14&#45;&gt;Node5</title>
<path fill="none" stroke="midnightblue" d="M207.69,-277.59C255.02,-279.93 327.02,-285.72 388,-300 407.89,-304.66 429.37,-312.6 446.19,-319.52"/>
<polygon fill="midnightblue" stroke="midnightblue" points="444.94,-322.79 455.51,-323.44 447.65,-316.34 444.94,-322.79"/>
</g>
<!-- Node14&#45;&gt;Node11 -->
<g id="edge22" class="edge">
<title>Node14&#45;&gt;Node11</title>
<path fill="none" stroke="midnightblue" d="M163.93,-285.68C178.46,-304.13 212.38,-344.84 248,-371 281.97,-395.95 391.56,-446.74 445.68,-471.21"/>
<polygon fill="midnightblue" stroke="midnightblue" points="444.55,-474.54 455.11,-475.46 447.43,-468.16 444.55,-474.54"/>
</g>
<!-- Node15 -->
<g id="node15" class="node">
<title>Node15</title>
<g id="a_node15"><a xlink:href="group__transforms__extrude.html#ga31947e37a3512d9814d47f8f8c960f84" target="_top" xlink:title="Translate, rotate, and revolve a 2d shape about the z&#45;axis.">
<polygon fill="white" stroke="black" points="267.5,-190.5 267.5,-209.5 368.5,-209.5 368.5,-190.5 267.5,-190.5"/>
<text text-anchor="middle" x="318" y="-197.5" font-family="Helvetica,sans-Serif" font-size="10.00">extrude_rotate_tr</text>
</a>
</g>
</g>
<!-- Node14&#45;&gt;Node15 -->
<g id="edge20" class="edge">
<title>Node14&#45;&gt;Node15</title>
<path fill="none" stroke="midnightblue" d="M191.53,-266.47C198.55,-263.89 205.7,-260.74 212,-257 230.66,-245.92 229.36,-235.13 248,-224 255.12,-219.75 263.11,-216.1 271.05,-213.03"/>
<polygon fill="midnightblue" stroke="midnightblue" points="272.44,-216.25 280.66,-209.56 270.07,-209.66 272.44,-216.25"/>
</g>
<!-- Node15&#45;&gt;Node4 -->
<g id="edge21" class="edge">
<title>Node15&#45;&gt;Node4</title>
<path fill="none" stroke="midnightblue" d="M368.83,-200C393.93,-200 423.57,-200 445.39,-200"/>
<polygon fill="midnightblue" stroke="midnightblue" points="445.42,-203.5 455.42,-200 445.42,-196.5 445.42,-203.5"/>
</g>
<!-- Node17&#45;&gt;Node4 -->
<g id="edge26" class="edge">
<title>Node17&#45;&gt;Node4</title>
<path fill="none" stroke="midnightblue" d="M358.53,-15.01C368.94,-17.82 379.6,-22.19 388,-29 437.45,-69.07 462.3,-144.12 471.79,-179.96"/>
<polygon fill="midnightblue" stroke="midnightblue" points="468.51,-181.28 474.34,-190.12 475.3,-179.57 468.51,-181.28"/>
</g>
<!-- Node18 -->
<g id="node18" class="node">
<title>Node18</title>
<g id="a_node18"><a xlink:href="group__datatypes__euclidean.html#ga3d5c07c70f271bcf9144f50ce8620a89" target="_top" xlink:title="Compute the angle between two lines or vectors in a 3d or 2d&#45;space.">
<polygon fill="white" stroke="black" points="450,-247.5 450,-266.5 505,-266.5 505,-247.5 450,-247.5"/>
<text text-anchor="middle" x="477.5" y="-254.5" font-family="Helvetica,sans-Serif" font-size="10.00">angle_ll</text>
</a>
</g>
</g>
<!-- Node17&#45;&gt;Node18 -->
<g id="edge27" class="edge">
<title>Node17&#45;&gt;Node18</title>
<path fill="none" stroke="midnightblue" d="M358.85,-13.23C369.64,-15.99 380.42,-20.78 388,-29 446.25,-92.2 377.93,-146.45 424,-219 429.88,-228.26 438.9,-235.98 447.81,-241.99"/>
<polygon fill="midnightblue" stroke="midnightblue" points="446.22,-245.12 456.56,-247.42 449.91,-239.17 446.22,-245.12"/>
</g>
<!-- Node19 -->
<g id="node19" class="node">
<title>Node19</title>
<g id="a_node19"><a xlink:href="group__math__polygon.html#ga8c717f95615525c0b53693ba1f5fdb69" target="_top" xlink:title="Compute coordinates for an n&#45;sided regular polygon in 2D.">
<polygon fill="white" stroke="black" points="424,-0.5 424,-19.5 531,-19.5 531,-0.5 424,-0.5"/>
<text text-anchor="middle" x="477.5" y="-7.5" font-family="Helvetica,sans-Serif" font-size="10.00">polygon_regular_p</text>
</a>
</g>
</g>
<!-- Node17&#45;&gt;Node19 -->
<g id="edge28" class="edge">
<title>Node17&#45;&gt;Node19</title>
<path fill="none" stroke="midnightblue" d="M358.74,-10C375.43,-10 395.24,-10 413.81,-10"/>
<polygon fill="midnightblue" stroke="midnightblue" points="413.97,-13.5 423.97,-10 413.97,-6.5 413.97,-13.5"/>
</g>
<!-- Node21&#45;&gt;Node5 -->
<g id="edge32" class="edge">
<title>Node21&#45;&gt;Node5</title>
<path fill="none" stroke="midnightblue" d="M347.52,-348.56C369.83,-345.87 401.35,-342.07 427.66,-338.89"/>
<polygon fill="midnightblue" stroke="midnightblue" points="428.31,-342.34 437.82,-337.67 427.47,-335.39 428.31,-342.34"/>
</g>
<!-- Node21&#45;&gt;Node11 -->
<g id="edge33" class="edge">
<title>Node21&#45;&gt;Node11</title>
<path fill="none" stroke="midnightblue" d="M347.53,-358.1C360.66,-361.83 375.96,-367.55 388,-376 422.9,-400.49 451.42,-442.39 465.99,-466.49"/>
<polygon fill="midnightblue" stroke="midnightblue" points="463.11,-468.49 471.2,-475.34 469.14,-464.94 463.11,-468.49"/>
</g>
<!-- Node21&#45;&gt;Node18 -->
<g id="edge31" class="edge">
<title>Node21&#45;&gt;Node18</title>
<path fill="none" stroke="midnightblue" d="M334.97,-342.37C362.44,-325.8 418.85,-291.77 451.55,-272.05"/>
<polygon fill="midnightblue" stroke="midnightblue" points="453.73,-274.82 460.49,-266.66 450.12,-268.83 453.73,-274.82"/>
</g>
<!-- Node22&#45;&gt;Node5 -->
<g id="edge35" class="edge">
<title>Node22&#45;&gt;Node5</title>
<path fill="none" stroke="midnightblue" d="M191.73,-106.23C249.24,-108.96 359.74,-117.48 388,-143 433.45,-184.05 394.41,-222.39 424,-276 432.47,-291.35 445.93,-305.85 457.1,-316.38"/>
<polygon fill="midnightblue" stroke="midnightblue" points="454.97,-319.17 464.72,-323.31 459.67,-313.99 454.97,-319.17"/>
</g>
<!-- Node23 -->
<g id="node23" class="node">
<title>Node23</title>
<g id="a_node23"><a xlink:href="group__datatypes__iterable__operate.html#gaa10da05023bd79eec85459298bc937c2" target="_top" xlink:title="Returns the list element or scalar numeric value if defined, otherwise returns the default value.">
<polygon fill="white" stroke="black" points="272.5,-38.5 272.5,-57.5 363.5,-57.5 363.5,-38.5 272.5,-38.5"/>
<text text-anchor="middle" x="318" y="-45.5" font-family="Helvetica,sans-Serif" font-size="10.00">defined_eon_or</text>
</a>
</g>
</g>
<!-- Node22&#45;&gt;Node23 -->
<g id="edge36" class="edge">
<title>Node22&#45;&gt;Node23</title>
<path fill="none" stroke="midnightblue" d="M177.29,-95.49C195.65,-87.3 223.28,-75.5 248,-67 254.87,-64.64 262.19,-62.37 269.41,-60.26"/>
<polygon fill="midnightblue" stroke="midnightblue" points="270.47,-63.6 279.14,-57.51 268.56,-56.87 270.47,-63.6"/>
</g>
<!-- Node24 -->
<g id="node24" class="node">
<title>Node24</title>
<g id="a_node24"><a xlink:href="group__datatypes__list__operate.html#ga7b8e6f2bbfa72ae61e39377e5ca6b5be" target="_top" xlink:title="Select specified element from list or return a default.">
<polygon fill="white" stroke="black" points="288.5,-76.5 288.5,-95.5 347.5,-95.5 347.5,-76.5 288.5,-76.5"/>
<text text-anchor="middle" x="318" y="-83.5" font-family="Helvetica,sans-Serif" font-size="10.00">select_ci</text>
</a>
</g>
</g>
<!-- Node22&#45;&gt;Node24 -->
<g id="edge37" class="edge">
<title>Node22&#45;&gt;Node24</title>
<path fill="none" stroke="midnightblue" d="M191.72,-100.83C217.3,-97.8 251.91,-93.71 278.26,-90.59"/>
<polygon fill="midnightblue" stroke="midnightblue" points="278.76,-94.05 288.28,-89.4 277.94,-87.1 278.76,-94.05"/>
</g>
</g>
</svg>
