<?xml version="1.0" encoding="UTF-8" standalone="no"?>
<!DOCTYPE svg PUBLIC "-//W3C//DTD SVG 1.1//EN"
 "http://www.w3.org/Graphics/SVG/1.1/DTD/svg11.dtd">
<!-- Generated by graphviz version 2.43.0 (0)
 -->
<!-- Title: emt Pages: 1 -->
<svg width="360pt" height="29pt"
 viewBox="0.00 0.00 360.00 28.50" xmlns="http://www.w3.org/2000/svg" xmlns:xlink="http://www.w3.org/1999/xlink">
<g id="graph0" class="graph" transform="scale(1 1) rotate(0) translate(4 24.5)">
<title>emt</title>
<polygon fill="white" stroke="transparent" points="-4,4 -4,-24.5 356,-24.5 356,4 -4,4"/>
<!-- Node1 -->
<g id="node1" class="node">
<title>Node1</title>
<g id="a_node1"><a xlink:title="[utility_pipe] Electrical metalic conduit; emt; thin wall.">
<polygon fill="#bfbfbf" stroke="black" points="146,-19 110,-19 110,0 146,0 146,-19"/>
<text text-anchor="middle" x="128" y="-7" font-family="Helvetica,sans-Serif" font-size="10.00">emt</text>
</a>
</g>
</g>
<!-- Node3 -->
<g id="node3" class="node">
<title>Node3</title>
<g id="a_node3"><a xlink:href="group__database__component__structural.html" target="_top" xlink:title="Structural component specifications.">
<polygon fill="white" stroke="black" points="352,-19 288,-19 288,0 352,0 352,-19"/>
<text text-anchor="middle" x="320" y="-7" font-family="Helvetica,sans-Serif" font-size="10.00">Structural</text>
</a>
</g>
</g>
<!-- Node1&#45;&gt;Node3 -->
<g id="edge2" class="edge">
<title>Node1&#45;&gt;Node3</title>
<path fill="none" stroke="darkgreen" stroke-dasharray="5,2" d="M146.2,-9.5C178.26,-9.5 247.57,-9.5 288,-9.5"/>
<text text-anchor="middle" x="217" y="-12.5" font-family="Helvetica,sans-Serif" font-size="10.00">utility_pipe_emt.scad</text>
</g>
<!-- Node2 -->
<g id="node2" class="node">
<title>Node2</title>
<g id="a_node2"><a xlink:href="group__database__component__structural__Utility__Pipe.html" target="_top" xlink:title=" ">
<polygon fill="white" stroke="black" points="73,-19 0,-19 0,0 73,0 73,-19"/>
<text text-anchor="middle" x="36.5" y="-7" font-family="Helvetica,sans-Serif" font-size="10.00">Utility_Pipe</text>
</a>
</g>
</g>
<!-- Node2&#45;&gt;Node1 -->
<g id="edge1" class="edge">
<title>Node2&#45;&gt;Node1</title>
<path fill="none" stroke="black" d="M83.36,-9.5C92.85,-9.5 102.26,-9.5 109.91,-9.5"/>
<polygon fill="black" stroke="black" points="83.13,-6 73.13,-9.5 83.13,-13 83.13,-6"/>
</g>
</g>
</svg>
