<?xml version="1.0" encoding="UTF-8" standalone="no"?>
<!DOCTYPE svg PUBLIC "-//W3C//DTD SVG 1.1//EN"
 "http://www.w3.org/Graphics/SVG/1.1/DTD/svg11.dtd">
<!-- Generated by graphviz version 2.43.0 (0)
 -->
<!-- Title: screw_bore Pages: 1 -->
<svg width="407pt" height="294pt"
 viewBox="0.00 0.00 407.00 294.00" xmlns="http://www.w3.org/2000/svg" xmlns:xlink="http://www.w3.org/1999/xlink">
<g id="graph0" class="graph" transform="scale(1 1) rotate(0) translate(4 290)">
<title>screw_bore</title>
<polygon fill="white" stroke="transparent" points="-4,4 -4,-290 403,-290 403,4 -4,4"/>
<!-- Node1 -->
<g id="node1" class="node">
<title>Node1</title>
<g id="a_node1"><a xlink:title="Flat and beveled&#45;head fastener bore with nut, nut slot, and bore tolerance.">
<polygon fill="#bfbfbf" stroke="black" points="327,-133.5 327,-152.5 399,-152.5 399,-133.5 327,-133.5"/>
<text text-anchor="middle" x="363" y="-140.5" font-family="Helvetica,sans-Serif" font-size="10.00">screw_bore</text>
</a>
</g>
</g>
<!-- Node2 -->
<g id="node2" class="node">
<title>Node2</title>
<g id="a_node2"><a xlink:href="group__parts__3d__fastener__catch__latch.html#ga26a9933aa6d33599daab1be8d632c430" target="_top" xlink:title="A catch latch generator with configurable profile.">
<polygon fill="white" stroke="black" points="190.5,-266.5 190.5,-285.5 262.5,-285.5 262.5,-266.5 190.5,-266.5"/>
<text text-anchor="middle" x="226.5" y="-273.5" font-family="Helvetica,sans-Serif" font-size="10.00">catch_latch</text>
</a>
</g>
</g>
<!-- Node1&#45;&gt;Node2 -->
<g id="edge1" class="edge">
<title>Node1&#45;&gt;Node2</title>
<path fill="none" stroke="midnightblue" d="M355.07,-162.2C344.91,-187.61 323.59,-232.11 291,-257 282.77,-263.29 272.48,-267.5 262.59,-270.32"/>
<polygon fill="midnightblue" stroke="midnightblue" points="358.44,-163.18 358.73,-152.59 351.9,-160.68 358.44,-163.18"/>
</g>
<!-- Node3 -->
<g id="node3" class="node">
<title>Node3</title>
<g id="a_node3"><a xlink:href="group__parts__3d__fastener__clamps.html#gad5d667c41776480785c62759c61a137e" target="_top" xlink:title="A clamp, bushing, and/or grip for wire, hose, and/or pipe wall penetrations.">
<polygon fill="white" stroke="black" points="195,-190.5 195,-209.5 258,-209.5 258,-190.5 195,-190.5"/>
<text text-anchor="middle" x="226.5" y="-197.5" font-family="Helvetica,sans-Serif" font-size="10.00">clamp_cg</text>
</a>
</g>
</g>
<!-- Node1&#45;&gt;Node3 -->
<g id="edge2" class="edge">
<title>Node1&#45;&gt;Node3</title>
<path fill="none" stroke="midnightblue" d="M333.05,-157.05C320.26,-163.1 304.98,-170.12 291,-176 279.05,-181.03 265.65,-186.17 254.24,-190.39"/>
<polygon fill="midnightblue" stroke="midnightblue" points="334.76,-160.11 342.28,-152.64 331.75,-153.79 334.76,-160.11"/>
</g>
<!-- Node5 -->
<g id="node5" class="node">
<title>Node5</title>
<g id="a_node5"><a xlink:href="group__parts__3d__enclosure__power__strip.html#ga33509a1811b27fe7f3687957d4d32460" target="_top" xlink:title="A power strip generator for single gang electrical receptacles.">
<polygon fill="white" stroke="black" points="18,-95.5 18,-114.5 108,-114.5 108,-95.5 18,-95.5"/>
<text text-anchor="middle" x="63" y="-102.5" font-family="Helvetica,sans-Serif" font-size="10.00">power_strip_sg</text>
</a>
</g>
</g>
<!-- Node1&#45;&gt;Node5 -->
<g id="edge14" class="edge">
<title>Node1&#45;&gt;Node5</title>
<path fill="none" stroke="midnightblue" d="M316.78,-147.71C275.96,-150.85 214.43,-152.81 162,-143 133.12,-137.6 101.81,-123.96 82.54,-114.58"/>
<polygon fill="midnightblue" stroke="midnightblue" points="317.28,-151.18 326.96,-146.87 316.7,-144.2 317.28,-151.18"/>
</g>
<!-- Node6 -->
<g id="node6" class="node">
<title>Node6</title>
<g id="a_node6"><a xlink:href="group__parts__3d__fastener__hinges.html#ga7e350f2c55116094108b99dd8103fc04" target="_top" xlink:title="A print&#45;in&#45;place single&#45;fold hinge generator.">
<polygon fill="white" stroke="black" points="197.5,-228.5 197.5,-247.5 255.5,-247.5 255.5,-228.5 197.5,-228.5"/>
<text text-anchor="middle" x="226.5" y="-235.5" font-family="Helvetica,sans-Serif" font-size="10.00">hinge_sf</text>
</a>
</g>
</g>
<!-- Node1&#45;&gt;Node6 -->
<g id="edge5" class="edge">
<title>Node1&#45;&gt;Node6</title>
<path fill="none" stroke="midnightblue" d="M349.71,-160.87C336.94,-178.14 315.44,-203.85 291,-219 280.34,-225.61 267.25,-230.04 255.72,-232.94"/>
<polygon fill="midnightblue" stroke="midnightblue" points="352.58,-162.88 355.56,-152.71 346.89,-158.8 352.58,-162.88"/>
</g>
<!-- Node8 -->
<g id="node8" class="node">
<title>Node8</title>
<g id="a_node8"><a xlink:href="group__models__3d__joint__dovetail__screw.html#ga20f61ef0d29434a144ec653c6320f77f" target="_top" xlink:title="Construct a 3d dovetail joint with optional screw and nut fastener.">
<polygon fill="white" stroke="black" points="162,-114.5 162,-133.5 291,-133.5 291,-114.5 162,-114.5"/>
<text text-anchor="middle" x="226.5" y="-121.5" font-family="Helvetica,sans-Serif" font-size="10.00">joint3d_dovetail_screw</text>
</a>
</g>
</g>
<!-- Node1&#45;&gt;Node8 -->
<g id="edge7" class="edge">
<title>Node1&#45;&gt;Node8</title>
<path fill="none" stroke="midnightblue" d="M316.61,-136.59C308.45,-135.43 299.79,-134.21 291.22,-133"/>
<polygon fill="midnightblue" stroke="midnightblue" points="316.27,-140.07 326.66,-138.01 317.25,-133.14 316.27,-140.07"/>
</g>
<!-- Node9 -->
<g id="node9" class="node">
<title>Node9</title>
<g id="a_node9"><a xlink:href="group__parts__3d__fastener__mounts.html#ga0cbac43259ec43fff7785057277bcef3" target="_top" xlink:title="A screw mount post with screw bore and optional fins.">
<polygon fill="white" stroke="black" points="172.5,-76.5 172.5,-95.5 280.5,-95.5 280.5,-76.5 172.5,-76.5"/>
<text text-anchor="middle" x="226.5" y="-83.5" font-family="Helvetica,sans-Serif" font-size="10.00">mount_screw_post</text>
</a>
</g>
</g>
<!-- Node1&#45;&gt;Node9 -->
<g id="edge8" class="edge">
<title>Node1&#45;&gt;Node9</title>
<path fill="none" stroke="midnightblue" d="M337.72,-128.44C324.27,-120.78 307.07,-111.62 291,-105 282.38,-101.45 272.86,-98.24 263.87,-95.52"/>
<polygon fill="midnightblue" stroke="midnightblue" points="335.97,-131.47 346.37,-133.46 339.48,-125.41 335.97,-131.47"/>
</g>
<!-- Node10 -->
<g id="node10" class="node">
<title>Node10</title>
<g id="a_node10"><a xlink:href="group__parts__3d__fastener__mounts.html#ga1a26f176e04863a2bf335960a52b39a8" target="_top" xlink:title="A screw mount slot with optional cover envelope.">
<polygon fill="white" stroke="black" points="174,-0.5 174,-19.5 279,-19.5 279,-0.5 174,-0.5"/>
<text text-anchor="middle" x="226.5" y="-7.5" font-family="Helvetica,sans-Serif" font-size="10.00">mount_screw_slot</text>
</a>
</g>
</g>
<!-- Node1&#45;&gt;Node10 -->
<g id="edge9" class="edge">
<title>Node1&#45;&gt;Node10</title>
<path fill="none" stroke="midnightblue" d="M355.07,-123.8C344.91,-98.39 323.59,-53.89 291,-29 285.88,-25.09 279.96,-21.98 273.84,-19.51"/>
<polygon fill="midnightblue" stroke="midnightblue" points="351.9,-125.32 358.73,-133.41 358.44,-122.82 351.9,-125.32"/>
</g>
<!-- Node12 -->
<g id="node12" class="node">
<title>Node12</title>
<g id="a_node12"><a xlink:href="group__parts__3d__fastener__mounts.html#gae1cc60f3ff242fb07c5a50d34be8c051" target="_top" xlink:title="A mount tab with screw hole and support brace.">
<polygon fill="white" stroke="black" points="175,-38.5 175,-57.5 278,-57.5 278,-38.5 175,-38.5"/>
<text text-anchor="middle" x="226.5" y="-45.5" font-family="Helvetica,sans-Serif" font-size="10.00">mount_screw_tab</text>
</a>
</g>
</g>
<!-- Node1&#45;&gt;Node12 -->
<g id="edge12" class="edge">
<title>Node1&#45;&gt;Node12</title>
<path fill="none" stroke="midnightblue" d="M349.71,-125.13C336.94,-107.86 315.44,-82.15 291,-67 284.84,-63.18 277.86,-60.09 270.85,-57.6"/>
<polygon fill="midnightblue" stroke="midnightblue" points="346.89,-127.2 355.56,-133.29 352.58,-123.12 346.89,-127.2"/>
</g>
<!-- Node4 -->
<g id="node4" class="node">
<title>Node4</title>
<g id="a_node4"><a xlink:href="group__parts__3d__computer__pcie__expansion.html#gab6fb1c9f8f6550633467f4ec0bd3f983" target="_top" xlink:title="Generate a PCI Express expansion open chassis or closed enclosure.">
<polygon fill="white" stroke="black" points="17,-190.5 17,-209.5 109,-209.5 109,-190.5 17,-190.5"/>
<text text-anchor="middle" x="63" y="-197.5" font-family="Helvetica,sans-Serif" font-size="10.00">pcie_expansion</text>
</a>
</g>
</g>
<!-- Node3&#45;&gt;Node4 -->
<g id="edge3" class="edge">
<title>Node3&#45;&gt;Node4</title>
<path fill="none" stroke="midnightblue" d="M184.63,-200C161.67,-200 132.95,-200 109.3,-200"/>
<polygon fill="midnightblue" stroke="midnightblue" points="184.74,-203.5 194.74,-200 184.74,-196.5 184.74,-203.5"/>
</g>
<!-- Node3&#45;&gt;Node5 -->
<g id="edge4" class="edge">
<title>Node3&#45;&gt;Node5</title>
<path fill="none" stroke="midnightblue" d="M185.76,-186.84C177.72,-183.66 169.45,-180.01 162,-176 128.15,-157.76 92.62,-129.32 75.1,-114.58"/>
<polygon fill="midnightblue" stroke="midnightblue" points="184.79,-190.21 195.38,-190.47 187.26,-183.66 184.79,-190.21"/>
</g>
<!-- Node7 -->
<g id="node7" class="node">
<title>Node7</title>
<g id="a_node7"><a xlink:href="group__parts__3d__fastener__hinges.html#ga1ffc82e0bbac466d1dc4fbe6c214b765" target="_top" xlink:title="A print&#45;in&#45;place bi&#45;fold hinge generator.">
<polygon fill="white" stroke="black" points="33.5,-228.5 33.5,-247.5 92.5,-247.5 92.5,-228.5 33.5,-228.5"/>
<text text-anchor="middle" x="63" y="-235.5" font-family="Helvetica,sans-Serif" font-size="10.00">hinge_bf</text>
</a>
</g>
</g>
<!-- Node6&#45;&gt;Node7 -->
<g id="edge6" class="edge">
<title>Node6&#45;&gt;Node7</title>
<path fill="none" stroke="midnightblue" d="M187.18,-238C158.17,-238 118.94,-238 92.62,-238"/>
<polygon fill="midnightblue" stroke="midnightblue" points="187.37,-241.5 197.37,-238 187.37,-234.5 187.37,-241.5"/>
</g>
<!-- Node10&#45;&gt;Node5 -->
<g id="edge11" class="edge">
<title>Node10&#45;&gt;Node5</title>
<path fill="none" stroke="midnightblue" d="M175.63,-22.98C170.93,-24.78 166.31,-26.78 162,-29 126.2,-47.42 90.41,-79.48 73.72,-95.43"/>
<polygon fill="midnightblue" stroke="midnightblue" points="177.05,-26.19 185.33,-19.57 174.73,-19.58 177.05,-26.19"/>
</g>
<!-- Node11 -->
<g id="node11" class="node">
<title>Node11</title>
<g id="a_node11"><a xlink:href="group__parts__3d__fastener__mounts.html#gabc7cd409ab1e2e4b6b894de3cf06658f" target="_top" xlink:title="A multi&#45;directional screw mount slot with optional cover envelope.">
<polygon fill="white" stroke="black" points="0,-0.5 0,-19.5 126,-19.5 126,-0.5 0,-0.5"/>
<text text-anchor="middle" x="63" y="-7.5" font-family="Helvetica,sans-Serif" font-size="10.00">mount_screw_slot_md</text>
</a>
</g>
</g>
<!-- Node10&#45;&gt;Node11 -->
<g id="edge10" class="edge">
<title>Node10&#45;&gt;Node11</title>
<path fill="none" stroke="midnightblue" d="M163.76,-10C151.41,-10 138.43,-10 126.07,-10"/>
<polygon fill="midnightblue" stroke="midnightblue" points="163.96,-13.5 173.96,-10 163.96,-6.5 163.96,-13.5"/>
</g>
<!-- Node12&#45;&gt;Node5 -->
<g id="edge13" class="edge">
<title>Node12&#45;&gt;Node5</title>
<path fill="none" stroke="midnightblue" d="M182.02,-60.51C175.29,-62.59 168.44,-64.79 162,-67 136.11,-75.88 106.91,-87.4 87.17,-95.42"/>
<polygon fill="midnightblue" stroke="midnightblue" points="183.18,-63.82 191.73,-57.56 181.14,-57.12 183.18,-63.82"/>
</g>
</g>
</svg>
