<?xml version="1.0" encoding="UTF-8" standalone="no"?>
<!DOCTYPE svg PUBLIC "-//W3C//DTD SVG 1.1//EN"
 "http://www.w3.org/Graphics/SVG/1.1/DTD/svg11.dtd">
<!-- Generated by graphviz version 2.43.0 (0)
 -->
<!-- Title: Dovetail Screw Pages: 1 -->
<svg width="271pt" height="29pt"
 viewBox="0.00 0.00 271.00 28.50" xmlns="http://www.w3.org/2000/svg" xmlns:xlink="http://www.w3.org/1999/xlink">
<g id="graph0" class="graph" transform="scale(1 1) rotate(0) translate(4 24.5)">
<title>Dovetail Screw</title>
<polygon fill="white" stroke="transparent" points="-4,4 -4,-24.5 267,-24.5 267,4 -4,4"/>
<!-- Node1 -->
<g id="node1" class="node">
<title>Node1</title>
<g id="a_node1"><a xlink:title="Models for constructing 3d dovetail joints with optional screw and nut fastener.">
<polygon fill="#bfbfbf" stroke="black" points="90,-19 0,-19 0,0 90,0 90,-19"/>
<text text-anchor="middle" x="45" y="-7" font-family="Helvetica,sans-Serif" font-size="10.00">Dovetail Screw</text>
</a>
</g>
</g>
<!-- Node2 -->
<g id="node2" class="node">
<title>Node2</title>
<g id="a_node2"><a xlink:href="group__models__3d__joint.html" target="_top" xlink:title="Models for connecting 3d members.">
<polygon fill="white" stroke="black" points="263,-19 225,-19 225,0 263,0 263,-19"/>
<text text-anchor="middle" x="244" y="-7" font-family="Helvetica,sans-Serif" font-size="10.00">Joint</text>
</a>
</g>
</g>
<!-- Node1&#45;&gt;Node2 -->
<g id="edge2" class="edge">
<title>Node1&#45;&gt;Node2</title>
<path fill="none" stroke="darkgreen" stroke-dasharray="5,2" d="M90.21,-9.5C132.64,-9.5 194.61,-9.5 224.93,-9.5"/>
<text text-anchor="middle" x="157.5" y="-12.5" font-family="Helvetica,sans-Serif" font-size="10.00">dovetail_screw.scad</text>
</g>
<!-- Node2&#45;&gt;Node1 -->
<g id="edge1" class="edge">
<title>Node2&#45;&gt;Node1</title>
<path fill="none" stroke="black" d="M214.48,-7.77C211.95,-7.66 209.43,-7.57 207,-7.5 163.02,-6.28 151.99,-6.79 108,-7.5 102.19,-7.59 96.06,-7.74 90.03,-7.9"/>
<polygon fill="black" stroke="black" points="214.53,-11.28 224.69,-8.29 214.88,-4.29 214.53,-11.28"/>
</g>
</g>
</svg>
