<?xml version="1.0" encoding="UTF-8" standalone="no"?>
<!DOCTYPE svg PUBLIC "-//W3C//DTD SVG 1.1//EN"
 "http://www.w3.org/Graphics/SVG/1.1/DTD/svg11.dtd">
<!-- Generated by graphviz version 2.43.0 (0)
 -->
<!-- Title: stack Pages: 1 -->
<svg width="625pt" height="299pt"
 viewBox="0.00 0.00 625.00 299.29" xmlns="http://www.w3.org/2000/svg" xmlns:xlink="http://www.w3.org/1999/xlink">
<g id="graph0" class="graph" transform="scale(1 1) rotate(0) translate(4 295.29)">
<title>stack</title>
<polygon fill="white" stroke="transparent" points="-4,4 -4,-295.29 621,-295.29 621,4 -4,4"/>
<!-- Node1 -->
<g id="node1" class="node">
<title>Node1</title>
<g id="a_node1"><a xlink:title="Format the function call stack as a string.">
<polygon fill="#bfbfbf" stroke="black" points="574,-147.79 574,-166.79 617,-166.79 617,-147.79 574,-147.79"/>
<text text-anchor="middle" x="595.5" y="-154.79" font-family="Helvetica,sans-Serif" font-size="10.00">stack</text>
</a>
</g>
</g>
<!-- Node2 -->
<g id="node2" class="node">
<title>Node2</title>
<g id="a_node2"><a xlink:href="group__common__console.html#ga149f54a142f1c69163f45f45bd39797f" target="_top" xlink:title="Output diagnostic message to console.">
<polygon fill="white" stroke="black" points="471,-204.79 471,-223.79 538,-223.79 538,-204.79 471,-204.79"/>
<text text-anchor="middle" x="504.5" y="-211.79" font-family="Helvetica,sans-Serif" font-size="10.00">log_debug</text>
</a>
</g>
</g>
<!-- Node1&#45;&gt;Node2 -->
<g id="edge1" class="edge">
<title>Node1&#45;&gt;Node2</title>
<path fill="none" stroke="midnightblue" d="M572.3,-172.69C561.97,-179.73 549.46,-188.09 538,-195.29 533.02,-198.41 527.52,-201.69 522.49,-204.62"/>
<polygon fill="midnightblue" stroke="midnightblue" points="574.46,-175.45 580.73,-166.9 570.5,-169.68 574.46,-175.45"/>
</g>
<!-- Node3 -->
<g id="node3" class="node">
<title>Node3</title>
<g id="a_node3"><a xlink:href="group__common__console.html#ga22d6e9c8a9f751cc5716e4a69188408a" target="_top" xlink:title="Output error message to console.">
<polygon fill="white" stroke="black" points="474.5,-166.79 474.5,-185.79 534.5,-185.79 534.5,-166.79 474.5,-166.79"/>
<text text-anchor="middle" x="504.5" y="-173.79" font-family="Helvetica,sans-Serif" font-size="10.00">log_error</text>
</a>
</g>
</g>
<!-- Node1&#45;&gt;Node3 -->
<g id="edge2" class="edge">
<title>Node1&#45;&gt;Node3</title>
<path fill="none" stroke="midnightblue" d="M564.05,-163.79C554.59,-165.81 544.18,-168.03 534.8,-170.03"/>
<polygon fill="midnightblue" stroke="midnightblue" points="564.81,-167.2 573.86,-161.69 563.35,-160.36 564.81,-167.2"/>
</g>
<!-- Node4 -->
<g id="node4" class="node">
<title>Node4</title>
<g id="a_node4"><a xlink:href="group__common__console.html#gacb9540a228d2c15623784ff0b0653722" target="_top" xlink:title="Output information message to console.">
<polygon fill="white" stroke="black" points="476.5,-128.79 476.5,-147.79 532.5,-147.79 532.5,-128.79 476.5,-128.79"/>
<text text-anchor="middle" x="504.5" y="-135.79" font-family="Helvetica,sans-Serif" font-size="10.00">log_info</text>
</a>
</g>
</g>
<!-- Node1&#45;&gt;Node4 -->
<g id="edge3" class="edge">
<title>Node1&#45;&gt;Node4</title>
<path fill="none" stroke="midnightblue" d="M563.83,-150.74C553.74,-148.58 542.6,-146.2 532.78,-144.11"/>
<polygon fill="midnightblue" stroke="midnightblue" points="563.35,-154.21 573.86,-152.88 564.81,-147.37 563.35,-154.21"/>
</g>
<!-- Node17 -->
<g id="node17" class="node">
<title>Node17</title>
<g id="a_node17"><a xlink:href="group__common__console.html#ga1ece4e2cff9ae45c85429c226eb8362c" target="_top" xlink:title="Output warning message to console.">
<polygon fill="white" stroke="black" points="474,-71.79 474,-90.79 535,-90.79 535,-71.79 474,-71.79"/>
<text text-anchor="middle" x="504.5" y="-78.79" font-family="Helvetica,sans-Serif" font-size="10.00">log_warn</text>
</a>
</g>
</g>
<!-- Node1&#45;&gt;Node17 -->
<g id="edge20" class="edge">
<title>Node1&#45;&gt;Node17</title>
<path fill="none" stroke="midnightblue" d="M575.19,-140.79C557.31,-125.53 531.35,-103.36 516.68,-90.83"/>
<polygon fill="midnightblue" stroke="midnightblue" points="573.35,-143.83 583.23,-147.66 577.9,-138.5 573.35,-143.83"/>
</g>
<!-- Node5 -->
<g id="node5" class="node">
<title>Node5</title>
<g id="a_node5"><a xlink:href="group__parts__2d__enclosure__box__finger__joint.html#gacc1bfb220bc3cfed46dcaa3b84898020" target="_top" xlink:title="Generate a 2D box design using screw&#45;based finger joint (box&#45;joint).">
<polygon fill="white" stroke="black" points="137,-195.79 137,-214.79 244,-214.79 244,-195.79 137,-195.79"/>
<text text-anchor="middle" x="190.5" y="-202.79" font-family="Helvetica,sans-Serif" font-size="10.00">box2d_finger_joint</text>
</a>
</g>
</g>
<!-- Node4&#45;&gt;Node5 -->
<g id="edge4" class="edge">
<title>Node4&#45;&gt;Node5</title>
<path fill="none" stroke="midnightblue" d="M466.28,-134.72C422.78,-131.76 349.1,-130.49 289,-148.29 255.35,-158.25 221.09,-182.15 203.52,-195.62"/>
<polygon fill="midnightblue" stroke="midnightblue" points="466.17,-138.22 476.4,-135.48 466.69,-131.24 466.17,-138.22"/>
</g>
<!-- Node6 -->
<g id="node6" class="node">
<title>Node6</title>
<g id="a_node6"><a xlink:href="group__transforms__layout.html#gad8eb4ce3a4707e71e80f4f5c8c3faa32" target="_top" xlink:title="A transform sequence to place a child shape.">
<polygon fill="white" stroke="black" points="320.5,-157.79 320.5,-176.79 403.5,-176.79 403.5,-157.79 320.5,-157.79"/>
<text text-anchor="middle" x="362" y="-164.79" font-family="Helvetica,sans-Serif" font-size="10.00">layout_grid_p</text>
</a>
</g>
</g>
<!-- Node4&#45;&gt;Node6 -->
<g id="edge5" class="edge">
<title>Node4&#45;&gt;Node6</title>
<path fill="none" stroke="midnightblue" d="M466.45,-145.93C447.11,-149.92 423.41,-154.82 403.58,-158.91"/>
<polygon fill="midnightblue" stroke="midnightblue" points="467.32,-149.33 476.41,-143.88 465.91,-142.47 467.32,-149.33"/>
</g>
<!-- Node7 -->
<g id="node7" class="node">
<title>Node7</title>
<g id="a_node7"><a xlink:href="group__transforms__layout.html#ga36a7e290a310a680c8e9834c8e10bec3" target="_top" xlink:title="A transform sequence to replicate and place a child shape.">
<polygon fill="white" stroke="black" points="319,-233.79 319,-252.79 405,-252.79 405,-233.79 319,-233.79"/>
<text text-anchor="middle" x="362" y="-240.79" font-family="Helvetica,sans-Serif" font-size="10.00">layout_grid_rp</text>
</a>
</g>
</g>
<!-- Node4&#45;&gt;Node7 -->
<g id="edge6" class="edge">
<title>Node4&#45;&gt;Node7</title>
<path fill="none" stroke="midnightblue" d="M474.81,-153.76C473.47,-154.88 472.19,-156.06 471,-157.29 447.53,-181.61 461.54,-203.35 435,-224.29 426.47,-231.01 415.79,-235.37 405.28,-238.19"/>
<polygon fill="midnightblue" stroke="midnightblue" points="476.87,-156.59 483.01,-147.95 472.82,-150.88 476.87,-156.59"/>
</g>
<!-- Node11 -->
<g id="node11" class="node">
<title>Node11</title>
<g id="a_node11"><a xlink:href="group__transforms__repeat.html#gad3a61508128c356ec1348225ec9b3ce0" target="_top" xlink:title="Repeat copies of child objects about a Cartesian grid.">
<polygon fill="white" stroke="black" points="326,-81.79 326,-100.79 398,-100.79 398,-81.79 326,-81.79"/>
<text text-anchor="middle" x="362" y="-88.79" font-family="Helvetica,sans-Serif" font-size="10.00">repeat_grid</text>
</a>
</g>
</g>
<!-- Node4&#45;&gt;Node11 -->
<g id="edge11" class="edge">
<title>Node4&#45;&gt;Node11</title>
<path fill="none" stroke="midnightblue" d="M466.67,-125.9C456.42,-122.46 445.28,-118.72 435,-115.29 420.76,-110.52 404.92,-105.24 391.73,-100.85"/>
<polygon fill="midnightblue" stroke="midnightblue" points="465.58,-129.23 476.17,-129.09 467.81,-122.59 465.58,-129.23"/>
</g>
<!-- Node12 -->
<g id="node12" class="node">
<title>Node12</title>
<g id="a_node12"><a xlink:href="group__shapes__select__common__2d.html#gadde46fda315aab438eda3f752fec2aed" target="_top" xlink:title="Select configure and construct one of the available 2d shapes.">
<polygon fill="white" stroke="black" points="289,-195.79 289,-214.79 435,-214.79 435,-195.79 289,-195.79"/>
<text text-anchor="middle" x="362" y="-202.79" font-family="Helvetica,sans-Serif" font-size="10.00">select_common_2d_shape</text>
</a>
</g>
</g>
<!-- Node4&#45;&gt;Node12 -->
<g id="edge12" class="edge">
<title>Node4&#45;&gt;Node12</title>
<path fill="none" stroke="midnightblue" d="M477,-153.33C474.94,-154.63 472.92,-155.96 471,-157.29 454.08,-168.95 453.34,-177.02 435,-186.29 427.39,-190.14 418.91,-193.26 410.53,-195.78"/>
<polygon fill="midnightblue" stroke="midnightblue" points="479.26,-156.05 486,-147.88 475.63,-150.07 479.26,-156.05"/>
</g>
<!-- Node13 -->
<g id="node13" class="node">
<title>Node13</title>
<g id="a_node13"><a xlink:href="group__shapes__select__common__3d.html#ga3fd7f214eff2f5935ad1bb56415a4aaf" target="_top" xlink:title="Select configure and construct one of the available 3d shapes.">
<polygon fill="white" stroke="black" points="289,-271.79 289,-290.79 435,-290.79 435,-271.79 289,-271.79"/>
<text text-anchor="middle" x="362" y="-278.79" font-family="Helvetica,sans-Serif" font-size="10.00">select_common_3d_shape</text>
</a>
</g>
</g>
<!-- Node4&#45;&gt;Node13 -->
<g id="edge15" class="edge">
<title>Node4&#45;&gt;Node13</title>
<path fill="none" stroke="midnightblue" d="M473.71,-154.34C472.75,-155.28 471.84,-156.26 471,-157.29 439.75,-195.46 471.12,-228.69 435,-262.29 430.84,-266.16 425.97,-269.26 420.78,-271.75"/>
<polygon fill="midnightblue" stroke="midnightblue" points="476.14,-156.88 481.89,-147.98 471.85,-151.36 476.14,-156.88"/>
</g>
<!-- Node14 -->
<g id="node14" class="node">
<title>Node14</title>
<g id="a_node14"><a xlink:href="group__datatypes__table.html#ga8a4429649e8b06d9f492e1a0d2653656" target="_top" xlink:title="Perform basic format checks on a table and output errors to console.">
<polygon fill="white" stroke="black" points="324.5,-43.79 324.5,-62.79 399.5,-62.79 399.5,-43.79 324.5,-43.79"/>
<text text-anchor="middle" x="362" y="-50.79" font-family="Helvetica,sans-Serif" font-size="10.00">table_check</text>
</a>
</g>
</g>
<!-- Node4&#45;&gt;Node14 -->
<g id="edge17" class="edge">
<title>Node4&#45;&gt;Node14</title>
<path fill="none" stroke="midnightblue" d="M489.64,-120.59C476.96,-105.59 456.9,-84.6 435,-72.29 424.18,-66.2 411.35,-62.01 399.54,-59.14"/>
<polygon fill="midnightblue" stroke="midnightblue" points="487.16,-123.1 496.2,-128.62 492.58,-118.67 487.16,-123.1"/>
</g>
<!-- Node7&#45;&gt;Node5 -->
<g id="edge7" class="edge">
<title>Node7&#45;&gt;Node5</title>
<path fill="none" stroke="midnightblue" d="M308.65,-231.55C284.64,-226.17 256.54,-219.87 233.88,-214.79"/>
<polygon fill="midnightblue" stroke="midnightblue" points="308.14,-235.02 318.67,-233.79 309.67,-228.19 308.14,-235.02"/>
</g>
<!-- Node8 -->
<g id="node8" class="node">
<title>Node8</title>
<g id="a_node8"><a xlink:href="group__parts__3d__enclosure__project__box__rectangle.html#ga24cdfe5fd4bb74b75409d9afdbe1f0c0" target="_top" xlink:title="A rectangular box maker for project boxes, enclosures and housings.">
<polygon fill="white" stroke="black" points="128,-233.79 128,-252.79 253,-252.79 253,-233.79 128,-233.79"/>
<text text-anchor="middle" x="190.5" y="-240.79" font-family="Helvetica,sans-Serif" font-size="10.00">project_box_rectangle</text>
</a>
</g>
</g>
<!-- Node7&#45;&gt;Node8 -->
<g id="edge8" class="edge">
<title>Node7&#45;&gt;Node8</title>
<path fill="none" stroke="midnightblue" d="M308.61,-243.29C291.05,-243.29 271.31,-243.29 253.12,-243.29"/>
<polygon fill="midnightblue" stroke="midnightblue" points="308.67,-246.79 318.67,-243.29 308.67,-239.79 308.67,-246.79"/>
</g>
<!-- Node9 -->
<g id="node9" class="node">
<title>Node9</title>
<g id="a_node9"><a xlink:href="group__parts__3d__computer__pcie__expansion.html#gab6fb1c9f8f6550633467f4ec0bd3f983" target="_top" xlink:title="Generate a PCI Express expansion open chassis or closed enclosure.">
<polygon fill="white" stroke="black" points="0,-233.79 0,-252.79 92,-252.79 92,-233.79 0,-233.79"/>
<text text-anchor="middle" x="46" y="-240.79" font-family="Helvetica,sans-Serif" font-size="10.00">pcie_expansion</text>
</a>
</g>
</g>
<!-- Node8&#45;&gt;Node9 -->
<g id="edge9" class="edge">
<title>Node8&#45;&gt;Node9</title>
<path fill="none" stroke="midnightblue" d="M117.61,-243.29C108.89,-243.29 100.19,-243.29 92.01,-243.29"/>
<polygon fill="midnightblue" stroke="midnightblue" points="117.83,-246.79 127.83,-243.29 117.83,-239.79 117.83,-246.79"/>
</g>
<!-- Node10 -->
<g id="node10" class="node">
<title>Node10</title>
<g id="a_node10"><a xlink:href="group__parts__3d__enclosure__power__strip.html#ga33509a1811b27fe7f3687957d4d32460" target="_top" xlink:title="A power strip generator for single gang electrical receptacles.">
<polygon fill="white" stroke="black" points="1,-100.79 1,-119.79 91,-119.79 91,-100.79 1,-100.79"/>
<text text-anchor="middle" x="46" y="-107.79" font-family="Helvetica,sans-Serif" font-size="10.00">power_strip_sg</text>
</a>
</g>
</g>
<!-- Node8&#45;&gt;Node10 -->
<g id="edge10" class="edge">
<title>Node8&#45;&gt;Node10</title>
<path fill="none" stroke="midnightblue" d="M136.53,-229.52C133.54,-227.96 130.67,-226.22 128,-224.29 88.46,-195.68 61.08,-141.72 51.14,-119.85"/>
<polygon fill="midnightblue" stroke="midnightblue" points="135.23,-232.77 145.78,-233.71 138.12,-226.4 135.23,-232.77"/>
</g>
<!-- Node12&#45;&gt;Node5 -->
<g id="edge13" class="edge">
<title>Node12&#45;&gt;Node5</title>
<path fill="none" stroke="midnightblue" d="M278.41,-205.29C266.75,-205.29 255.04,-205.29 244.15,-205.29"/>
<polygon fill="midnightblue" stroke="midnightblue" points="278.63,-208.79 288.63,-205.29 278.63,-201.79 278.63,-208.79"/>
</g>
<!-- Node12&#45;&gt;Node8 -->
<g id="edge14" class="edge">
<title>Node12&#45;&gt;Node8</title>
<path fill="none" stroke="midnightblue" d="M308.26,-217.11C284.36,-222.47 256.48,-228.72 233.96,-233.77"/>
<polygon fill="midnightblue" stroke="midnightblue" points="309.24,-220.48 318.23,-214.87 307.7,-213.65 309.24,-220.48"/>
</g>
<!-- Node13&#45;&gt;Node8 -->
<g id="edge16" class="edge">
<title>Node13&#45;&gt;Node8</title>
<path fill="none" stroke="midnightblue" d="M308.26,-269.46C284.36,-264.1 256.48,-257.85 233.96,-252.81"/>
<polygon fill="midnightblue" stroke="midnightblue" points="307.7,-272.92 318.23,-271.7 309.24,-266.09 307.7,-272.92"/>
</g>
<!-- Node15 -->
<g id="node15" class="node">
<title>Node15</title>
<g id="a_node15"><a xlink:href="group__datatypes__table.html#ga7a45ee72b36421f4e73cfba4488f14be" target="_top" xlink:title="Dump table getter functions to the console.">
<polygon fill="white" stroke="black" points="133.5,-43.79 133.5,-62.79 247.5,-62.79 247.5,-43.79 133.5,-43.79"/>
<text text-anchor="middle" x="190.5" y="-50.79" font-family="Helvetica,sans-Serif" font-size="10.00">table_dump_getters</text>
</a>
</g>
</g>
<!-- Node14&#45;&gt;Node15 -->
<g id="edge18" class="edge">
<title>Node14&#45;&gt;Node15</title>
<path fill="none" stroke="midnightblue" d="M314.13,-53.29C293.51,-53.29 269.13,-53.29 247.55,-53.29"/>
<polygon fill="midnightblue" stroke="midnightblue" points="314.22,-56.79 324.22,-53.29 314.22,-49.79 314.22,-56.79"/>
</g>
<!-- Node16 -->
<g id="node16" class="node">
<title>Node16</title>
<g id="a_node16"><a xlink:href="group__common__validation.html#ga19d0234700fba9de9fb0cba52a3d8e17" target="_top" xlink:title="Test data structure db and output the start of test to the test log.">
<polygon fill="white" stroke="black" points="133.5,-81.79 133.5,-100.79 247.5,-100.79 247.5,-81.79 133.5,-81.79"/>
<text text-anchor="middle" x="190.5" y="-88.79" font-family="Helvetica,sans-Serif" font-size="10.00">table_validate_start</text>
</a>
</g>
</g>
<!-- Node14&#45;&gt;Node16 -->
<g id="edge19" class="edge">
<title>Node14&#45;&gt;Node16</title>
<path fill="none" stroke="midnightblue" d="M314.18,-63.78C289.05,-69.42 258.31,-76.31 233.88,-81.78"/>
<polygon fill="midnightblue" stroke="midnightblue" points="315.23,-67.13 324.22,-61.53 313.7,-60.3 315.23,-67.13"/>
</g>
<!-- Node17&#45;&gt;Node10 -->
<g id="edge21" class="edge">
<title>Node17&#45;&gt;Node10</title>
<path fill="none" stroke="midnightblue" d="M485.78,-64.64C472.82,-53.66 454.21,-40.24 435,-34.29 304.68,6.12 254.87,15.92 128,-34.29 93.75,-47.84 65.52,-83.47 53.39,-100.7"/>
<polygon fill="midnightblue" stroke="midnightblue" points="483.62,-67.4 493.43,-71.4 488.25,-62.15 483.62,-67.4"/>
</g>
<!-- Node17&#45;&gt;Node11 -->
<g id="edge22" class="edge">
<title>Node17&#45;&gt;Node11</title>
<path fill="none" stroke="midnightblue" d="M463.67,-84.12C443.06,-85.59 418.12,-87.36 398.22,-88.78"/>
<polygon fill="midnightblue" stroke="midnightblue" points="463.98,-87.61 473.7,-83.41 463.48,-80.63 463.98,-87.61"/>
</g>
<!-- Node17&#45;&gt;Node14 -->
<g id="edge23" class="edge">
<title>Node17&#45;&gt;Node14</title>
<path fill="none" stroke="midnightblue" d="M463.62,-73.34C443.55,-69.34 419.38,-64.52 399.75,-60.61"/>
<polygon fill="midnightblue" stroke="midnightblue" points="463.21,-76.83 473.7,-75.35 464.58,-69.96 463.21,-76.83"/>
</g>
</g>
</svg>
