<?xml version="1.0" encoding="UTF-8" standalone="no"?>
<!DOCTYPE svg PUBLIC "-//W3C//DTD SVG 1.1//EN"
 "http://www.w3.org/Graphics/SVG/1.1/DTD/svg11.dtd">
<!-- Generated by graphviz version 2.43.0 (0)
 -->
<!-- Title: strl Pages: 1 -->
<svg width="511pt" height="478pt"
 viewBox="0.00 0.00 511.00 478.14" xmlns="http://www.w3.org/2000/svg" xmlns:xlink="http://www.w3.org/1999/xlink">
<g id="graph0" class="graph" transform="scale(1 1) rotate(0) translate(4 474.14)">
<title>strl</title>
<polygon fill="white" stroke="transparent" points="-4,4 -4,-474.14 507,-474.14 507,4 -4,4"/>
<!-- Node1 -->
<g id="node1" class="node">
<title>Node1</title>
<g id="a_node1"><a xlink:title="Convert a list of values to a concatenated string.">
<polygon fill="#bfbfbf" stroke="black" points="471,-228.5 471,-247.5 503,-247.5 503,-228.5 471,-228.5"/>
<text text-anchor="middle" x="487" y="-235.5" font-family="Helvetica,sans-Serif" font-size="10.00">strl</text>
</a>
</g>
</g>
<!-- Node2 -->
<g id="node2" class="node">
<title>Node2</title>
<g id="a_node2"><a xlink:href="group__parts__2d__enclosure__box__finger__joint.html#gacc1bfb220bc3cfed46dcaa3b84898020" target="_top" xlink:title="Generate a 2D box design using screw&#45;based finger joint (box&#45;joint).">
<polygon fill="white" stroke="black" points="137,-380.5 137,-399.5 244,-399.5 244,-380.5 137,-380.5"/>
<text text-anchor="middle" x="190.5" y="-387.5" font-family="Helvetica,sans-Serif" font-size="10.00">box2d_finger_joint</text>
</a>
</g>
</g>
<!-- Node1&#45;&gt;Node2 -->
<g id="edge1" class="edge">
<title>Node1&#45;&gt;Node2</title>
<path fill="none" stroke="midnightblue" d="M483.06,-257.88C476.55,-298.93 459.52,-390.72 435,-409 367,-459.68 256.63,-419.57 211.6,-399.6"/>
<polygon fill="midnightblue" stroke="midnightblue" points="486.56,-258.17 484.62,-247.76 479.64,-257.11 486.56,-258.17"/>
</g>
<!-- Node3 -->
<g id="node3" class="node">
<title>Node3</title>
<g id="a_node3"><a xlink:href="group__parts__3d__fastener__catch__latch.html#ga26a9933aa6d33599daab1be8d632c430" target="_top" xlink:title="A catch latch generator with configurable profile.">
<polygon fill="white" stroke="black" points="326,-190.5 326,-209.5 398,-209.5 398,-190.5 326,-190.5"/>
<text text-anchor="middle" x="362" y="-197.5" font-family="Helvetica,sans-Serif" font-size="10.00">catch_latch</text>
</a>
</g>
</g>
<!-- Node1&#45;&gt;Node3 -->
<g id="edge2" class="edge">
<title>Node1&#45;&gt;Node3</title>
<path fill="none" stroke="midnightblue" d="M461.27,-230.36C441.82,-224.35 414.63,-215.95 393.78,-209.51"/>
<polygon fill="midnightblue" stroke="midnightblue" points="460.33,-233.73 470.92,-233.34 462.4,-227.04 460.33,-233.73"/>
</g>
<!-- Node4 -->
<g id="node4" class="node">
<title>Node4</title>
<g id="a_node4"><a xlink:href="group__parts__3d__fastener__hinges.html#ga1ffc82e0bbac466d1dc4fbe6c214b765" target="_top" xlink:title="A print&#45;in&#45;place bi&#45;fold hinge generator.">
<polygon fill="white" stroke="black" points="161,-133.5 161,-152.5 220,-152.5 220,-133.5 161,-133.5"/>
<text text-anchor="middle" x="190.5" y="-140.5" font-family="Helvetica,sans-Serif" font-size="10.00">hinge_bf</text>
</a>
</g>
</g>
<!-- Node1&#45;&gt;Node4 -->
<g id="edge3" class="edge">
<title>Node1&#45;&gt;Node4</title>
<path fill="none" stroke="midnightblue" d="M481.77,-218.29C475.73,-195.57 462.2,-159.27 435,-143 367.16,-102.42 268.5,-121.12 220.25,-134.16"/>
<polygon fill="midnightblue" stroke="midnightblue" points="478.42,-219.3 484.16,-228.2 485.22,-217.66 478.42,-219.3"/>
</g>
<!-- Node5 -->
<g id="node5" class="node">
<title>Node5</title>
<g id="a_node5"><a xlink:href="group__parts__3d__fastener__hinges.html#ga7e350f2c55116094108b99dd8103fc04" target="_top" xlink:title="A print&#45;in&#45;place single&#45;fold hinge generator.">
<polygon fill="white" stroke="black" points="333,-152.5 333,-171.5 391,-171.5 391,-152.5 333,-152.5"/>
<text text-anchor="middle" x="362" y="-159.5" font-family="Helvetica,sans-Serif" font-size="10.00">hinge_sf</text>
</a>
</g>
</g>
<!-- Node1&#45;&gt;Node5 -->
<g id="edge4" class="edge">
<title>Node1&#45;&gt;Node5</title>
<path fill="none" stroke="midnightblue" d="M474.16,-219.91C464.94,-207.22 451.04,-190.82 435,-181 421.77,-172.9 405.12,-168.22 391.17,-165.53"/>
<polygon fill="midnightblue" stroke="midnightblue" points="471.44,-222.13 480.01,-228.36 477.19,-218.14 471.44,-222.13"/>
</g>
<!-- Node6 -->
<g id="node6" class="node">
<title>Node6</title>
<g id="a_node6"><a xlink:href="group__transforms__layout.html#gad8eb4ce3a4707e71e80f4f5c8c3faa32" target="_top" xlink:title="A transform sequence to place a child shape.">
<polygon fill="white" stroke="black" points="320.5,-76.5 320.5,-95.5 403.5,-95.5 403.5,-76.5 320.5,-76.5"/>
<text text-anchor="middle" x="362" y="-83.5" font-family="Helvetica,sans-Serif" font-size="10.00">layout_grid_p</text>
</a>
</g>
</g>
<!-- Node1&#45;&gt;Node6 -->
<g id="edge6" class="edge">
<title>Node1&#45;&gt;Node6</title>
<path fill="none" stroke="midnightblue" d="M483.41,-218.34C478.7,-190.43 466.19,-139.44 435,-110 426.38,-101.86 414.92,-96.48 403.68,-92.92"/>
<polygon fill="midnightblue" stroke="midnightblue" points="479.98,-219.08 484.93,-228.45 486.9,-218.04 479.98,-219.08"/>
</g>
<!-- Node7 -->
<g id="node7" class="node">
<title>Node7</title>
<g id="a_node7"><a xlink:href="group__transforms__layout.html#ga36a7e290a310a680c8e9834c8e10bec3" target="_top" xlink:title="A transform sequence to replicate and place a child shape.">
<polygon fill="white" stroke="black" points="319,-380.5 319,-399.5 405,-399.5 405,-380.5 319,-380.5"/>
<text text-anchor="middle" x="362" y="-387.5" font-family="Helvetica,sans-Serif" font-size="10.00">layout_grid_rp</text>
</a>
</g>
</g>
<!-- Node1&#45;&gt;Node7 -->
<g id="edge7" class="edge">
<title>Node1&#45;&gt;Node7</title>
<path fill="none" stroke="midnightblue" d="M484.01,-257.87C480.01,-287.01 468.31,-341.11 435,-371 426.72,-378.43 415.88,-383.01 405.14,-385.82"/>
<polygon fill="midnightblue" stroke="midnightblue" points="487.51,-258.05 485.23,-247.7 480.56,-257.21 487.51,-258.05"/>
</g>
<!-- Node8 -->
<g id="node8" class="node">
<title>Node8</title>
<g id="a_node8"><a xlink:href="group__parts__3d__enclosure__project__box__rectangle.html#ga24cdfe5fd4bb74b75409d9afdbe1f0c0" target="_top" xlink:title="A rectangular box maker for project boxes, enclosures and housings.">
<polygon fill="white" stroke="black" points="128,-323.5 128,-342.5 253,-342.5 253,-323.5 128,-323.5"/>
<text text-anchor="middle" x="190.5" y="-330.5" font-family="Helvetica,sans-Serif" font-size="10.00">project_box_rectangle</text>
</a>
</g>
</g>
<!-- Node1&#45;&gt;Node8 -->
<g id="edge14" class="edge">
<title>Node1&#45;&gt;Node8</title>
<path fill="none" stroke="midnightblue" d="M474.76,-256.15C465.69,-269.15 451.71,-285.92 435,-295 378.61,-325.65 304.7,-333.43 253.17,-334.61"/>
<polygon fill="midnightblue" stroke="midnightblue" points="477.88,-257.78 480.47,-247.51 472.03,-253.92 477.88,-257.78"/>
</g>
<!-- Node9 -->
<g id="node9" class="node">
<title>Node9</title>
<g id="a_node9"><a xlink:href="group__parts__3d__computer__pcie__expansion.html#gab6fb1c9f8f6550633467f4ec0bd3f983" target="_top" xlink:title="Generate a PCI Express expansion open chassis or closed enclosure.">
<polygon fill="white" stroke="black" points="0,-356.5 0,-375.5 92,-375.5 92,-356.5 0,-356.5"/>
<text text-anchor="middle" x="46" y="-363.5" font-family="Helvetica,sans-Serif" font-size="10.00">pcie_expansion</text>
</a>
</g>
</g>
<!-- Node1&#45;&gt;Node9 -->
<g id="edge12" class="edge">
<title>Node1&#45;&gt;Node9</title>
<path fill="none" stroke="midnightblue" d="M483.91,-257.76C478.64,-303.25 463.2,-413.17 435,-435 316.52,-526.72 116.8,-411.02 61.55,-375.66"/>
<polygon fill="midnightblue" stroke="midnightblue" points="487.4,-258 485.03,-247.67 480.45,-257.22 487.4,-258"/>
</g>
<!-- Node10 -->
<g id="node10" class="node">
<title>Node10</title>
<g id="a_node10"><a xlink:href="group__parts__3d__enclosure__power__strip.html#ga33509a1811b27fe7f3687957d4d32460" target="_top" xlink:title="A power strip generator for single gang electrical receptacles.">
<polygon fill="white" stroke="black" points="1,-290.5 1,-309.5 91,-309.5 91,-290.5 1,-290.5"/>
<text text-anchor="middle" x="46" y="-297.5" font-family="Helvetica,sans-Serif" font-size="10.00">power_strip_sg</text>
</a>
</g>
</g>
<!-- Node1&#45;&gt;Node10 -->
<g id="edge13" class="edge">
<title>Node1&#45;&gt;Node10</title>
<path fill="none" stroke="midnightblue" d="M460.56,-239.8C422.95,-242.61 350.35,-248.6 289,-257 219.66,-266.49 139.85,-281.47 91.43,-291.01"/>
<polygon fill="midnightblue" stroke="midnightblue" points="460.91,-243.29 470.63,-239.06 460.4,-236.3 460.91,-243.29"/>
</g>
<!-- Node11 -->
<g id="node11" class="node">
<title>Node11</title>
<g id="a_node11"><a xlink:href="group__shapes__select__common__2d.html#gadde46fda315aab438eda3f752fec2aed" target="_top" xlink:title="Select configure and construct one of the available 2d shapes.">
<polygon fill="white" stroke="black" points="289,-342.5 289,-361.5 435,-361.5 435,-342.5 289,-342.5"/>
<text text-anchor="middle" x="362" y="-349.5" font-family="Helvetica,sans-Serif" font-size="10.00">select_common_2d_shape</text>
</a>
</g>
</g>
<!-- Node1&#45;&gt;Node11 -->
<g id="edge15" class="edge">
<title>Node1&#45;&gt;Node11</title>
<path fill="none" stroke="midnightblue" d="M479.83,-257.13C472.34,-277.48 457.79,-309.25 435,-328 427.37,-334.28 418.03,-338.94 408.64,-342.39"/>
<polygon fill="midnightblue" stroke="midnightblue" points="483.15,-258.26 483.12,-247.67 476.53,-255.97 483.15,-258.26"/>
</g>
<!-- Node12 -->
<g id="node12" class="node">
<title>Node12</title>
<g id="a_node12"><a xlink:href="group__shapes__select__common__3d.html#ga3fd7f214eff2f5935ad1bb56415a4aaf" target="_top" xlink:title="Select configure and construct one of the available 3d shapes.">
<polygon fill="white" stroke="black" points="289,-266.5 289,-285.5 435,-285.5 435,-266.5 289,-266.5"/>
<text text-anchor="middle" x="362" y="-273.5" font-family="Helvetica,sans-Serif" font-size="10.00">select_common_3d_shape</text>
</a>
</g>
</g>
<!-- Node1&#45;&gt;Node12 -->
<g id="edge18" class="edge">
<title>Node1&#45;&gt;Node12</title>
<path fill="none" stroke="midnightblue" d="M461.27,-245.64C441.82,-251.65 414.63,-260.05 393.78,-266.49"/>
<polygon fill="midnightblue" stroke="midnightblue" points="462.4,-248.96 470.92,-242.66 460.33,-242.27 462.4,-248.96"/>
</g>
<!-- Node13 -->
<g id="node13" class="node">
<title>Node13</title>
<g id="a_node13"><a xlink:href="group__datatypes__table.html#gab0c2216f9d2258132556413c9a4317e5" target="_top" xlink:title="Dump a table to the console.">
<polygon fill="white" stroke="black" points="325,-38.5 325,-57.5 399,-57.5 399,-38.5 325,-38.5"/>
<text text-anchor="middle" x="362" y="-45.5" font-family="Helvetica,sans-Serif" font-size="10.00">table_dump</text>
</a>
</g>
</g>
<!-- Node1&#45;&gt;Node13 -->
<g id="edge20" class="edge">
<title>Node1&#45;&gt;Node13</title>
<path fill="none" stroke="midnightblue" d="M486.02,-218.15C484.92,-182.62 477.37,-108.04 435,-67 425.44,-57.74 411.91,-52.85 399.16,-50.32"/>
<polygon fill="midnightblue" stroke="midnightblue" points="482.52,-218.28 486.18,-228.22 489.52,-218.17 482.52,-218.28"/>
</g>
<!-- Node14 -->
<g id="node14" class="node">
<title>Node14</title>
<g id="a_node14"><a xlink:href="group__datatypes__table.html#ga8d212217f9acb803e3107f488d5523e6" target="_top" xlink:title="Write formatted map entries to the console.">
<polygon fill="white" stroke="black" points="326.5,-0.5 326.5,-19.5 397.5,-19.5 397.5,-0.5 326.5,-0.5"/>
<text text-anchor="middle" x="362" y="-7.5" font-family="Helvetica,sans-Serif" font-size="10.00">table_write</text>
</a>
</g>
</g>
<!-- Node1&#45;&gt;Node14 -->
<g id="edge21" class="edge">
<title>Node1&#45;&gt;Node14</title>
<path fill="none" stroke="midnightblue" d="M483.74,-218.16C478.03,-171.37 461.53,-56.03 435,-29 425.22,-19.04 410.88,-14.1 397.56,-11.72"/>
<polygon fill="midnightblue" stroke="midnightblue" points="480.29,-218.73 484.94,-228.25 487.24,-217.91 480.29,-218.73"/>
</g>
<!-- Node5&#45;&gt;Node4 -->
<g id="edge5" class="edge">
<title>Node5&#45;&gt;Node4</title>
<path fill="none" stroke="midnightblue" d="M322.59,-157.69C291.5,-154.21 248.41,-149.38 220.25,-146.22"/>
<polygon fill="midnightblue" stroke="midnightblue" points="322.3,-161.18 332.63,-158.82 323.08,-154.23 322.3,-161.18"/>
</g>
<!-- Node7&#45;&gt;Node2 -->
<g id="edge8" class="edge">
<title>Node7&#45;&gt;Node2</title>
<path fill="none" stroke="midnightblue" d="M308.58,-390C288.12,-390 264.7,-390 244.21,-390"/>
<polygon fill="midnightblue" stroke="midnightblue" points="308.67,-393.5 318.67,-390 308.67,-386.5 308.67,-393.5"/>
</g>
<!-- Node7&#45;&gt;Node8 -->
<g id="edge9" class="edge">
<title>Node7&#45;&gt;Node8</title>
<path fill="none" stroke="midnightblue" d="M311.63,-377.77C304.01,-375.65 296.27,-373.37 289,-371 262.92,-362.51 233.68,-350.81 214.09,-342.65"/>
<polygon fill="midnightblue" stroke="midnightblue" points="310.96,-381.21 321.53,-380.45 312.79,-374.46 310.96,-381.21"/>
</g>
<!-- Node8&#45;&gt;Node9 -->
<g id="edge10" class="edge">
<title>Node8&#45;&gt;Node9</title>
<path fill="none" stroke="midnightblue" d="M138.26,-344.87C121.79,-348.68 103.77,-352.85 88.12,-356.48"/>
<polygon fill="midnightblue" stroke="midnightblue" points="139.33,-348.21 148.28,-342.54 137.75,-341.39 139.33,-348.21"/>
</g>
<!-- Node8&#45;&gt;Node10 -->
<g id="edge11" class="edge">
<title>Node8&#45;&gt;Node10</title>
<path fill="none" stroke="midnightblue" d="M138.26,-321.13C121.79,-317.32 103.77,-313.15 88.12,-309.52"/>
<polygon fill="midnightblue" stroke="midnightblue" points="137.75,-324.61 148.28,-323.46 139.33,-317.79 137.75,-324.61"/>
</g>
<!-- Node11&#45;&gt;Node2 -->
<g id="edge16" class="edge">
<title>Node11&#45;&gt;Node2</title>
<path fill="none" stroke="midnightblue" d="M308.26,-363.82C284.36,-369.18 256.48,-375.43 233.96,-380.48"/>
<polygon fill="midnightblue" stroke="midnightblue" points="309.24,-367.19 318.23,-361.59 307.7,-360.36 309.24,-367.19"/>
</g>
<!-- Node11&#45;&gt;Node8 -->
<g id="edge17" class="edge">
<title>Node11&#45;&gt;Node8</title>
<path fill="none" stroke="midnightblue" d="M278.62,-342.77C270.07,-341.81 261.49,-340.85 253.22,-339.92"/>
<polygon fill="midnightblue" stroke="midnightblue" points="278.3,-346.25 288.63,-343.89 279.08,-339.29 278.3,-346.25"/>
</g>
<!-- Node12&#45;&gt;Node8 -->
<g id="edge19" class="edge">
<title>Node12&#45;&gt;Node8</title>
<path fill="none" stroke="midnightblue" d="M322.61,-288.76C311.74,-292.38 299.9,-296.34 289,-300 265.62,-307.85 239.12,-316.83 219.65,-323.43"/>
<polygon fill="midnightblue" stroke="midnightblue" points="323.88,-292.03 332.26,-285.55 321.67,-285.39 323.88,-292.03"/>
</g>
</g>
</svg>
