<?xml version="1.0" encoding="UTF-8" standalone="no"?>
<!DOCTYPE svg PUBLIC "-//W3C//DTD SVG 1.1//EN"
 "http://www.w3.org/Graphics/SVG/1.1/DTD/svg11.dtd">
<!-- Generated by graphviz version 2.43.0 (0)
 -->
<!-- Title: layout_grid_rp Pages: 1 -->
<svg width="294pt" height="180pt"
 viewBox="0.00 0.00 294.00 180.00" xmlns="http://www.w3.org/2000/svg" xmlns:xlink="http://www.w3.org/1999/xlink">
<g id="graph0" class="graph" transform="scale(1 1) rotate(0) translate(4 176)">
<title>layout_grid_rp</title>
<polygon fill="white" stroke="transparent" points="-4,4 -4,-176 290,-176 290,4 -4,4"/>
<!-- Node1 -->
<g id="node1" class="node">
<title>Node1</title>
<g id="a_node1"><a xlink:title="A transform sequence to replicate and place a child shape.">
<polygon fill="#bfbfbf" stroke="black" points="0,-76.5 0,-95.5 86,-95.5 86,-76.5 0,-76.5"/>
<text text-anchor="middle" x="43" y="-83.5" font-family="Helvetica,sans-Serif" font-size="10.00">layout_grid_rp</text>
</a>
</g>
</g>
<!-- Node2 -->
<g id="node2" class="node">
<title>Node2</title>
<g id="a_node2"><a xlink:href="group__datatypes__iterable__operate.html#ga3d37c2b0067d1661724bd89955c8f6ce" target="_top" xlink:title="Returns an element from an iterable if it exists, or a default value if not.">
<polygon fill="white" stroke="black" points="125,-152.5 125,-171.5 204,-171.5 204,-152.5 125,-152.5"/>
<text text-anchor="middle" x="164.5" y="-159.5" font-family="Helvetica,sans-Serif" font-size="10.00">defined_e_or</text>
</a>
</g>
</g>
<!-- Node1&#45;&gt;Node2 -->
<g id="edge1" class="edge">
<title>Node1&#45;&gt;Node2</title>
<path fill="none" stroke="midnightblue" d="M55.64,-95.67C70.46,-107.7 97.11,-128.41 122,-143 124.87,-144.68 127.92,-146.33 131,-147.89"/>
<polygon fill="midnightblue" stroke="midnightblue" points="129.72,-151.16 140.25,-152.35 132.76,-144.86 129.72,-151.16"/>
</g>
<!-- Node3 -->
<g id="node3" class="node">
<title>Node3</title>
<g id="a_node3"><a xlink:href="group__datatypes__scalar__operate.html#gac119300e8c83de0037f2d0a4d9f0ab5c" target="_top" xlink:title="Return given value, if defined, or a secondary value, if primary is not defined.">
<polygon fill="white" stroke="black" points="130.5,-114.5 130.5,-133.5 198.5,-133.5 198.5,-114.5 130.5,-114.5"/>
<text text-anchor="middle" x="164.5" y="-121.5" font-family="Helvetica,sans-Serif" font-size="10.00">defined_or</text>
</a>
</g>
</g>
<!-- Node1&#45;&gt;Node3 -->
<g id="edge2" class="edge">
<title>Node1&#45;&gt;Node3</title>
<path fill="none" stroke="midnightblue" d="M74.15,-95.59C89.16,-100.36 107.49,-106.19 123.63,-111.32"/>
<polygon fill="midnightblue" stroke="midnightblue" points="122.76,-114.72 133.35,-114.41 124.89,-108.05 122.76,-114.72"/>
</g>
<!-- Node4 -->
<g id="node4" class="node">
<title>Node4</title>
<g id="a_node4"><a xlink:href="group__datatypes__list__inspect.html#ga375eb2baadaf7684ae16559a2513d313" target="_top" xlink:title="Return the value of an indexed list element with output defaults and list composition.">
<polygon fill="white" stroke="black" points="122,-76.5 122,-95.5 207,-95.5 207,-76.5 122,-76.5"/>
<text text-anchor="middle" x="164.5" y="-83.5" font-family="Helvetica,sans-Serif" font-size="10.00">list_get_value</text>
</a>
</g>
</g>
<!-- Node1&#45;&gt;Node4 -->
<g id="edge3" class="edge">
<title>Node1&#45;&gt;Node4</title>
<path fill="none" stroke="midnightblue" d="M86.13,-86C94.35,-86 103.05,-86 111.54,-86"/>
<polygon fill="midnightblue" stroke="midnightblue" points="111.75,-89.5 121.75,-86 111.75,-82.5 111.75,-89.5"/>
</g>
<!-- Node5 -->
<g id="node5" class="node">
<title>Node5</title>
<g id="a_node5"><a xlink:href="group__common__console.html#gacb9540a228d2c15623784ff0b0653722" target="_top" xlink:title="Output information message to console.">
<polygon fill="white" stroke="black" points="136.5,-38.5 136.5,-57.5 192.5,-57.5 192.5,-38.5 136.5,-38.5"/>
<text text-anchor="middle" x="164.5" y="-45.5" font-family="Helvetica,sans-Serif" font-size="10.00">log_info</text>
</a>
</g>
</g>
<!-- Node1&#45;&gt;Node5 -->
<g id="edge4" class="edge">
<title>Node1&#45;&gt;Node5</title>
<path fill="none" stroke="midnightblue" d="M74.15,-76.41C90.11,-71.34 109.83,-65.07 126.68,-59.71"/>
<polygon fill="midnightblue" stroke="midnightblue" points="127.75,-63.04 136.22,-56.68 125.62,-56.37 127.75,-63.04"/>
</g>
<!-- Node7 -->
<g id="node7" class="node">
<title>Node7</title>
<g id="a_node7"><a xlink:href="group__datatypes__list__operate.html#gab842ea235bf5fc40a14512083b49c8d2" target="_top" xlink:title="Convert a list of values to a concatenated string.">
<polygon fill="white" stroke="black" points="148.5,-0.5 148.5,-19.5 180.5,-19.5 180.5,-0.5 148.5,-0.5"/>
<text text-anchor="middle" x="164.5" y="-7.5" font-family="Helvetica,sans-Serif" font-size="10.00">strl</text>
</a>
</g>
</g>
<!-- Node1&#45;&gt;Node7 -->
<g id="edge6" class="edge">
<title>Node1&#45;&gt;Node7</title>
<path fill="none" stroke="midnightblue" d="M55.64,-76.33C70.46,-64.3 97.11,-43.59 122,-29 127.34,-25.87 133.29,-22.88 138.98,-20.23"/>
<polygon fill="midnightblue" stroke="midnightblue" points="140.44,-23.42 148.15,-16.15 137.59,-17.02 140.44,-23.42"/>
</g>
<!-- Node6 -->
<g id="node6" class="node">
<title>Node6</title>
<g id="a_node6"><a xlink:href="group__common__console.html#ga4fb6c985031c9b551777b2e9ebd2fc34" target="_top" xlink:title="Format the function call stack as a string.">
<polygon fill="white" stroke="black" points="243,-38.5 243,-57.5 286,-57.5 286,-38.5 243,-38.5"/>
<text text-anchor="middle" x="264.5" y="-45.5" font-family="Helvetica,sans-Serif" font-size="10.00">stack</text>
</a>
</g>
</g>
<!-- Node5&#45;&gt;Node6 -->
<g id="edge5" class="edge">
<title>Node5&#45;&gt;Node6</title>
<path fill="none" stroke="midnightblue" d="M192.54,-48C204.93,-48 219.69,-48 232.53,-48"/>
<polygon fill="midnightblue" stroke="midnightblue" points="232.77,-51.5 242.77,-48 232.77,-44.5 232.77,-51.5"/>
</g>
</g>
</svg>
