<?xml version="1.0" encoding="UTF-8" standalone="no"?>
<!DOCTYPE svg PUBLIC "-//W3C//DTD SVG 1.1//EN"
 "http://www.w3.org/Graphics/SVG/1.1/DTD/svg11.dtd">
<!-- Generated by graphviz version 2.43.0 (0)
 -->
<!-- Title: layout_grid_p Pages: 1 -->
<svg width="291pt" height="180pt"
 viewBox="0.00 0.00 291.00 180.00" xmlns="http://www.w3.org/2000/svg" xmlns:xlink="http://www.w3.org/1999/xlink">
<g id="graph0" class="graph" transform="scale(1 1) rotate(0) translate(4 176)">
<title>layout_grid_p</title>
<polygon fill="white" stroke="transparent" points="-4,4 -4,-176 287,-176 287,4 -4,4"/>
<!-- Node1 -->
<g id="node1" class="node">
<title>Node1</title>
<g id="a_node1"><a xlink:title="A transform sequence to place a child shape.">
<polygon fill="#bfbfbf" stroke="black" points="0,-76.5 0,-95.5 83,-95.5 83,-76.5 0,-76.5"/>
<text text-anchor="middle" x="41.5" y="-83.5" font-family="Helvetica,sans-Serif" font-size="10.00">layout_grid_p</text>
</a>
</g>
</g>
<!-- Node2 -->
<g id="node2" class="node">
<title>Node2</title>
<g id="a_node2"><a xlink:href="group__datatypes__iterable__operate.html#ga3d37c2b0067d1661724bd89955c8f6ce" target="_top" xlink:title="Returns an element from an iterable if it exists, or a default value if not.">
<polygon fill="white" stroke="black" points="122,-152.5 122,-171.5 201,-171.5 201,-152.5 122,-152.5"/>
<text text-anchor="middle" x="161.5" y="-159.5" font-family="Helvetica,sans-Serif" font-size="10.00">defined_e_or</text>
</a>
</g>
</g>
<!-- Node1&#45;&gt;Node2 -->
<g id="edge1" class="edge">
<title>Node1&#45;&gt;Node2</title>
<path fill="none" stroke="midnightblue" d="M53.89,-95.69C68.38,-107.74 94.49,-128.48 119,-143 121.86,-144.7 124.9,-146.35 127.99,-147.92"/>
<polygon fill="midnightblue" stroke="midnightblue" points="126.7,-151.19 137.23,-152.39 129.75,-144.89 126.7,-151.19"/>
</g>
<!-- Node3 -->
<g id="node3" class="node">
<title>Node3</title>
<g id="a_node3"><a xlink:href="group__datatypes__scalar__operate.html#gac119300e8c83de0037f2d0a4d9f0ab5c" target="_top" xlink:title="Return given value, if defined, or a secondary value, if primary is not defined.">
<polygon fill="white" stroke="black" points="127.5,-114.5 127.5,-133.5 195.5,-133.5 195.5,-114.5 127.5,-114.5"/>
<text text-anchor="middle" x="161.5" y="-121.5" font-family="Helvetica,sans-Serif" font-size="10.00">defined_or</text>
</a>
</g>
</g>
<!-- Node1&#45;&gt;Node3 -->
<g id="edge2" class="edge">
<title>Node1&#45;&gt;Node3</title>
<path fill="none" stroke="midnightblue" d="M72.28,-95.59C87.09,-100.36 105.19,-106.19 121.13,-111.32"/>
<polygon fill="midnightblue" stroke="midnightblue" points="120.14,-114.68 130.73,-114.41 122.29,-108.02 120.14,-114.68"/>
</g>
<!-- Node4 -->
<g id="node4" class="node">
<title>Node4</title>
<g id="a_node4"><a xlink:href="group__datatypes__list__inspect.html#ga375eb2baadaf7684ae16559a2513d313" target="_top" xlink:title="Return the value of an indexed list element with output defaults and list composition.">
<polygon fill="white" stroke="black" points="119,-76.5 119,-95.5 204,-95.5 204,-76.5 119,-76.5"/>
<text text-anchor="middle" x="161.5" y="-83.5" font-family="Helvetica,sans-Serif" font-size="10.00">list_get_value</text>
</a>
</g>
</g>
<!-- Node1&#45;&gt;Node4 -->
<g id="edge3" class="edge">
<title>Node1&#45;&gt;Node4</title>
<path fill="none" stroke="midnightblue" d="M83.11,-86C91.26,-86 99.93,-86 108.41,-86"/>
<polygon fill="midnightblue" stroke="midnightblue" points="108.61,-89.5 118.61,-86 108.61,-82.5 108.61,-89.5"/>
</g>
<!-- Node5 -->
<g id="node5" class="node">
<title>Node5</title>
<g id="a_node5"><a xlink:href="group__common__console.html#gacb9540a228d2c15623784ff0b0653722" target="_top" xlink:title="Output information message to console.">
<polygon fill="white" stroke="black" points="133.5,-38.5 133.5,-57.5 189.5,-57.5 189.5,-38.5 133.5,-38.5"/>
<text text-anchor="middle" x="161.5" y="-45.5" font-family="Helvetica,sans-Serif" font-size="10.00">log_info</text>
</a>
</g>
</g>
<!-- Node1&#45;&gt;Node5 -->
<g id="edge4" class="edge">
<title>Node1&#45;&gt;Node5</title>
<path fill="none" stroke="midnightblue" d="M72.28,-76.41C87.77,-71.42 106.86,-65.28 123.31,-59.98"/>
<polygon fill="midnightblue" stroke="midnightblue" points="124.71,-63.2 133.16,-56.8 122.57,-56.54 124.71,-63.2"/>
</g>
<!-- Node7 -->
<g id="node7" class="node">
<title>Node7</title>
<g id="a_node7"><a xlink:href="group__datatypes__list__operate.html#gab842ea235bf5fc40a14512083b49c8d2" target="_top" xlink:title="Convert a list of values to a concatenated string.">
<polygon fill="white" stroke="black" points="145.5,-0.5 145.5,-19.5 177.5,-19.5 177.5,-0.5 145.5,-0.5"/>
<text text-anchor="middle" x="161.5" y="-7.5" font-family="Helvetica,sans-Serif" font-size="10.00">strl</text>
</a>
</g>
</g>
<!-- Node1&#45;&gt;Node7 -->
<g id="edge6" class="edge">
<title>Node1&#45;&gt;Node7</title>
<path fill="none" stroke="midnightblue" d="M53.89,-76.31C68.38,-64.26 94.49,-43.52 119,-29 124.33,-25.84 130.27,-22.84 135.96,-20.2"/>
<polygon fill="midnightblue" stroke="midnightblue" points="137.41,-23.38 145.13,-16.12 134.57,-16.98 137.41,-23.38"/>
</g>
<!-- Node6 -->
<g id="node6" class="node">
<title>Node6</title>
<g id="a_node6"><a xlink:href="group__common__console.html#ga4fb6c985031c9b551777b2e9ebd2fc34" target="_top" xlink:title="Format the function call stack as a string.">
<polygon fill="white" stroke="black" points="240,-38.5 240,-57.5 283,-57.5 283,-38.5 240,-38.5"/>
<text text-anchor="middle" x="261.5" y="-45.5" font-family="Helvetica,sans-Serif" font-size="10.00">stack</text>
</a>
</g>
</g>
<!-- Node5&#45;&gt;Node6 -->
<g id="edge5" class="edge">
<title>Node5&#45;&gt;Node6</title>
<path fill="none" stroke="midnightblue" d="M189.54,-48C201.93,-48 216.69,-48 229.53,-48"/>
<polygon fill="midnightblue" stroke="midnightblue" points="229.77,-51.5 239.77,-48 229.77,-44.5 229.77,-51.5"/>
</g>
</g>
</svg>
