<?xml version="1.0" encoding="UTF-8" standalone="no"?>
<!DOCTYPE svg PUBLIC "-//W3C//DTD SVG 1.1//EN"
 "http://www.w3.org/Graphics/SVG/1.1/DTD/svg11.dtd">
<!-- Generated by graphviz version 2.43.0 (0)
 -->
<!-- Title: Enclosure Pages: 1 -->
<svg width="492pt" height="170pt"
 viewBox="0.00 0.00 492.00 169.67" xmlns="http://www.w3.org/2000/svg" xmlns:xlink="http://www.w3.org/1999/xlink">
<g id="graph0" class="graph" transform="scale(1 1) rotate(0) translate(4 165.67)">
<title>Enclosure</title>
<polygon fill="white" stroke="transparent" points="-4,4 -4,-165.67 488,-165.67 488,4 -4,4"/>
<!-- Node1 -->
<g id="node1" class="node">
<title>Node1</title>
<g id="a_node1"><a xlink:title="Project boxes, housings and enclosures.">
<polygon fill="#bfbfbf" stroke="black" points="157,-92.43 93,-92.43 93,-73.43 157,-73.43 157,-92.43"/>
<text text-anchor="middle" x="125" y="-80.43" font-family="Helvetica,sans-Serif" font-size="10.00">Enclosure</text>
</a>
</g>
</g>
<!-- Node5 -->
<g id="node3" class="node">
<title>Node5</title>
<g id="a_node3"><a xlink:href="group__parts__3d__enclosure__enclosure__stand__rectangle.html" target="_top" xlink:title="Stand maker for rectangular prism enclosures.">
<polygon fill="white" stroke="black" points="479.5,-156.93 354.5,-156.93 354.5,-126.93 479.5,-126.93 479.5,-156.93"/>
<text text-anchor="start" x="362.5" y="-144.93" font-family="Helvetica,sans-Serif" font-size="10.00">Rectangular Enclosure</text>
<text text-anchor="middle" x="417" y="-133.93" font-family="Helvetica,sans-Serif" font-size="10.00"> Stand</text>
</a>
</g>
</g>
<!-- Node1&#45;&gt;Node5 -->
<g id="edge4" class="edge">
<title>Node1&#45;&gt;Node5</title>
<path fill="none" stroke="black" d="M135.66,-101.27C144.03,-115.01 157.53,-132.77 175,-140.93 231.49,-167.3 303.86,-163.31 354.49,-155.37"/>
<polygon fill="black" stroke="black" points="138.7,-99.53 130.71,-92.57 132.62,-102.99 138.7,-99.53"/>
</g>
<!-- Node1&#45;&gt;Node5 -->
<g id="edge7" class="edge">
<title>Node1&#45;&gt;Node5</title>
<path fill="none" stroke="darkgreen" stroke-dasharray="5,2" d="M157.25,-92.33C163.12,-93.96 169.23,-95.57 175,-96.93 208.25,-104.76 294.53,-120.46 354.29,-131.08"/>
<text text-anchor="middle" x="253.5" y="-128.93" font-family="Helvetica,sans-Serif" font-size="10.00">enclosure_stand_rectangle.scad</text>
</g>
<!-- Node3 -->
<g id="node4" class="node">
<title>Node3</title>
<g id="a_node4"><a xlink:href="group__parts__3d__enclosure__power__strip.html" target="_top" xlink:title="Electrical receptacle power strip generator.">
<polygon fill="white" stroke="black" points="453,-86.43 381,-86.43 381,-67.43 453,-67.43 453,-86.43"/>
<text text-anchor="middle" x="417" y="-74.43" font-family="Helvetica,sans-Serif" font-size="10.00">Power Strip</text>
</a>
</g>
</g>
<!-- Node1&#45;&gt;Node3 -->
<g id="edge2" class="edge">
<title>Node1&#45;&gt;Node3</title>
<path fill="none" stroke="black" d="M167.09,-83.39C208.68,-83.7 274.83,-83.77 332,-81.93 348.06,-81.41 365.83,-80.41 380.87,-79.45"/>
<polygon fill="black" stroke="black" points="167.1,-79.89 157.07,-83.3 167.04,-86.89 167.1,-79.89"/>
</g>
<!-- Node1&#45;&gt;Node3 -->
<g id="edge5" class="edge">
<title>Node1&#45;&gt;Node3</title>
<path fill="none" stroke="darkgreen" stroke-dasharray="5,2" d="M154.21,-73.42C160.95,-71.56 168.17,-69.88 175,-68.93 247.55,-58.77 333.53,-66.23 380.68,-71.98"/>
<text text-anchor="middle" x="253.5" y="-71.93" font-family="Helvetica,sans-Serif" font-size="10.00">power_strip.scad</text>
</g>
<!-- Node4 -->
<g id="node5" class="node">
<title>Node4</title>
<g id="a_node5"><a xlink:href="group__parts__3d__enclosure__project__box__rectangle.html" target="_top" xlink:title="Rectangular prism project box generator.">
<polygon fill="white" stroke="black" points="484,-38.43 350,-38.43 350,-19.43 484,-19.43 484,-38.43"/>
<text text-anchor="middle" x="417" y="-26.43" font-family="Helvetica,sans-Serif" font-size="10.00">Rectangular Project Box</text>
</a>
</g>
</g>
<!-- Node1&#45;&gt;Node4 -->
<g id="edge3" class="edge">
<title>Node1&#45;&gt;Node4</title>
<path fill="none" stroke="black" d="M152.4,-68.7C159.56,-65.36 167.43,-62.13 175,-59.93 232.72,-43.12 300.85,-35.42 349.92,-31.89"/>
<polygon fill="black" stroke="black" points="150.6,-65.69 143.17,-73.25 153.69,-71.97 150.6,-65.69"/>
</g>
<!-- Node1&#45;&gt;Node4 -->
<g id="edge6" class="edge">
<title>Node1&#45;&gt;Node4</title>
<path fill="none" stroke="darkgreen" stroke-dasharray="5,2" d="M129.97,-73.29C136.7,-58.4 151.91,-30.33 175,-18.93 244.84,15.56 340.42,-5.35 387.46,-19.36"/>
<text text-anchor="middle" x="253.5" y="-21.93" font-family="Helvetica,sans-Serif" font-size="10.00">project_box_rectangle.scad</text>
</g>
<!-- Node2 -->
<g id="node2" class="node">
<title>Node2</title>
<g id="a_node2"><a xlink:href="group__parts__3d.html" target="_top" xlink:title="3d parts, part generators, and small assemblies.">
<polygon fill="white" stroke="black" points="56,-92.43 0,-92.43 0,-73.43 56,-73.43 56,-92.43"/>
<text text-anchor="middle" x="28" y="-80.43" font-family="Helvetica,sans-Serif" font-size="10.00">3d Parts</text>
</a>
</g>
</g>
<!-- Node2&#45;&gt;Node1 -->
<g id="edge1" class="edge">
<title>Node2&#45;&gt;Node1</title>
<path fill="none" stroke="black" d="M66.22,-82.93C75,-82.93 84.27,-82.93 92.75,-82.93"/>
<polygon fill="black" stroke="black" points="66.22,-79.43 56.22,-82.93 66.22,-86.43 66.22,-79.43"/>
</g>
</g>
</svg>
