<?xml version="1.0" encoding="UTF-8" standalone="no"?>
<!DOCTYPE svg PUBLIC "-//W3C//DTD SVG 1.1//EN"
 "http://www.w3.org/Graphics/SVG/1.1/DTD/svg11.dtd">
<!-- Generated by graphviz version 2.43.0 (0)
 -->
<!-- Title: count Pages: 1 -->
<svg width="235pt" height="104pt"
 viewBox="0.00 0.00 235.00 104.00" xmlns="http://www.w3.org/2000/svg" xmlns:xlink="http://www.w3.org/1999/xlink">
<g id="graph0" class="graph" transform="scale(1 1) rotate(0) translate(4 100)">
<title>count</title>
<polygon fill="white" stroke="transparent" points="-4,4 -4,-100 231,-100 231,4 -4,4"/>
<!-- Node1 -->
<g id="node1" class="node">
<title>Node1</title>
<g id="a_node1"><a xlink:title="Count all occurrences of a match value in an iterable value.">
<polygon fill="#bfbfbf" stroke="black" points="183,-38.5 183,-57.5 227,-57.5 227,-38.5 183,-38.5"/>
<text text-anchor="middle" x="205" y="-45.5" font-family="Helvetica,sans-Serif" font-size="10.00">count</text>
</a>
</g>
</g>
<!-- Node2 -->
<g id="node2" class="node">
<title>Node2</title>
<g id="a_node2"><a xlink:href="group__parts__3d__motion__bearing__linear__rod.html#ga0064887f7c89f8915895c0243bec4a4c" target="_top" xlink:title="Transform 2d or 3d shape into a linear rod ball or sled bearing.">
<polygon fill="white" stroke="black" points="20,-76.5 20,-95.5 127,-95.5 127,-76.5 20,-76.5"/>
<text text-anchor="middle" x="73.5" y="-83.5" font-family="Helvetica,sans-Serif" font-size="10.00">bearing_linear_rod</text>
</a>
</g>
</g>
<!-- Node1&#45;&gt;Node2 -->
<g id="edge1" class="edge">
<title>Node1&#45;&gt;Node2</title>
<path fill="none" stroke="midnightblue" d="M173.43,-58.6C164.91,-61.44 155.62,-64.44 147,-67 136.02,-70.26 124.03,-73.53 113.01,-76.41"/>
<polygon fill="midnightblue" stroke="midnightblue" points="174.64,-61.89 182.99,-55.37 172.4,-55.25 174.64,-61.89"/>
</g>
<!-- Node3 -->
<g id="node3" class="node">
<title>Node3</title>
<g id="a_node3"><a xlink:href="group__parts__2d__enclosure__box__finger__joint.html#gacc1bfb220bc3cfed46dcaa3b84898020" target="_top" xlink:title="Generate a 2D box design using screw&#45;based finger joint (box&#45;joint).">
<polygon fill="white" stroke="black" points="20,-38.5 20,-57.5 127,-57.5 127,-38.5 20,-38.5"/>
<text text-anchor="middle" x="73.5" y="-45.5" font-family="Helvetica,sans-Serif" font-size="10.00">box2d_finger_joint</text>
</a>
</g>
</g>
<!-- Node1&#45;&gt;Node3 -->
<g id="edge2" class="edge">
<title>Node1&#45;&gt;Node3</title>
<path fill="none" stroke="midnightblue" d="M172.61,-48C158.96,-48 142.59,-48 127.17,-48"/>
<polygon fill="midnightblue" stroke="midnightblue" points="172.91,-51.5 182.91,-48 172.91,-44.5 172.91,-51.5"/>
</g>
<!-- Node4 -->
<g id="node4" class="node">
<title>Node4</title>
<g id="a_node4"><a xlink:href="group__parts__3d__enclosure__enclosure__stand__rectangle.html#gaa6bbb5648edd144f66059f9b31aa2865" target="_top" xlink:title="A stand maker for rectangular project boxes, housings, and enclosures.">
<polygon fill="white" stroke="black" points="0,-0.5 0,-19.5 147,-19.5 147,-0.5 0,-0.5"/>
<text text-anchor="middle" x="73.5" y="-7.5" font-family="Helvetica,sans-Serif" font-size="10.00">enclosure_stand_rectangle</text>
</a>
</g>
</g>
<!-- Node1&#45;&gt;Node4 -->
<g id="edge3" class="edge">
<title>Node1&#45;&gt;Node4</title>
<path fill="none" stroke="midnightblue" d="M173.43,-37.4C164.91,-34.56 155.62,-31.56 147,-29 136.02,-25.74 124.03,-22.47 113.01,-19.59"/>
<polygon fill="midnightblue" stroke="midnightblue" points="172.4,-40.75 182.99,-40.63 174.64,-34.11 172.4,-40.75"/>
</g>
</g>
</svg>
