<?xml version="1.0" encoding="UTF-8" standalone="no"?>
<!DOCTYPE svg PUBLIC "-//W3C//DTD SVG 1.1//EN"
 "http://www.w3.org/Graphics/SVG/1.1/DTD/svg11.dtd">
<!-- Generated by graphviz version 2.43.0 (0)
 -->
<!-- Title: Structural Pages: 1 -->
<svg width="397pt" height="175pt"
 viewBox="0.00 0.00 397.00 175.00" xmlns="http://www.w3.org/2000/svg" xmlns:xlink="http://www.w3.org/1999/xlink">
<g id="graph0" class="graph" transform="scale(1 1) rotate(0) translate(4 171)">
<title>Structural</title>
<polygon fill="white" stroke="transparent" points="-4,4 -4,-171 393,-171 393,4 -4,4"/>
<!-- Node6 -->
<g id="node1" class="node">
<title>Node6</title>
<g id="a_node1"><a xlink:href="group__database__component__structural__utility__pipe__pvc.html" target="_top" xlink:title="[utility_pipe] Polyvinyl chloride pipe; pvc; sch40 sch80 sch120.">
<polygon fill="white" stroke="black" points="369.5,-167 335.5,-167 335.5,-148 369.5,-148 369.5,-167"/>
<text text-anchor="middle" x="352.5" y="-155" font-family="Helvetica,sans-Serif" font-size="10.00">pvc</text>
</a>
</g>
</g>
<!-- Node7 -->
<g id="node2" class="node">
<title>Node7</title>
<g id="a_node2"><a xlink:href="group__database__component__structural__utility__pipe__ip.html" target="_top" xlink:title="[utility_pipe] Iron pipe; ip; steel.">
<polygon fill="white" stroke="black" points="367,-130 338,-130 338,-111 367,-111 367,-130"/>
<text text-anchor="middle" x="352.5" y="-118" font-family="Helvetica,sans-Serif" font-size="10.00">ip</text>
</a>
</g>
</g>
<!-- Node5 -->
<g id="node3" class="node">
<title>Node5</title>
<g id="a_node3"><a xlink:href="group__database__component__structural__utility__pipe__rsc.html" target="_top" xlink:title="[utility_pipe] Rigid steel conduit; rsc; heavy wall.">
<polygon fill="white" stroke="black" points="368,-93 337,-93 337,-74 368,-74 368,-93"/>
<text text-anchor="middle" x="352.5" y="-81" font-family="Helvetica,sans-Serif" font-size="10.00">rsc</text>
</a>
</g>
</g>
<!-- Node4 -->
<g id="node4" class="node">
<title>Node4</title>
<g id="a_node4"><a xlink:href="group__database__component__structural__utility__pipe__emt.html" target="_top" xlink:title="[utility_pipe] Electrical metalic conduit; emt; thin wall.">
<polygon fill="white" stroke="black" points="370.5,-56 334.5,-56 334.5,-37 370.5,-37 370.5,-56"/>
<text text-anchor="middle" x="352.5" y="-44" font-family="Helvetica,sans-Serif" font-size="10.00">emt</text>
</a>
</g>
</g>
<!-- Node2 -->
<g id="node5" class="node">
<title>Node2</title>
<g id="a_node5"><a xlink:href="group__database__component.html" target="_top" xlink:title="Design component specifications.">
<polygon fill="white" stroke="black" points="73,-93 0,-93 0,-74 73,-74 73,-93"/>
<text text-anchor="middle" x="36.5" y="-81" font-family="Helvetica,sans-Serif" font-size="10.00">Component</text>
</a>
</g>
</g>
<!-- Node1 -->
<g id="node7" class="node">
<title>Node1</title>
<g id="a_node7"><a xlink:title="Structural component specifications.">
<polygon fill="#bfbfbf" stroke="black" points="174,-93 110,-93 110,-74 174,-74 174,-93"/>
<text text-anchor="middle" x="142" y="-81" font-family="Helvetica,sans-Serif" font-size="10.00">Structural</text>
</a>
</g>
</g>
<!-- Node2&#45;&gt;Node1 -->
<g id="edge1" class="edge">
<title>Node2&#45;&gt;Node1</title>
<path fill="none" stroke="black" d="M83.13,-83.5C92.14,-83.5 101.41,-83.5 109.81,-83.5"/>
<polygon fill="black" stroke="black" points="83.12,-80 73.12,-83.5 83.12,-87 83.12,-80"/>
</g>
<!-- Node3 -->
<g id="node6" class="node">
<title>Node3</title>
<g id="a_node6"><a xlink:href="group__database__component__structural__Utility__Pipe.html" target="_top" xlink:title=" ">
<polygon fill="white" stroke="black" points="389,-19 316,-19 316,0 389,0 389,-19"/>
<text text-anchor="middle" x="352.5" y="-7" font-family="Helvetica,sans-Serif" font-size="10.00">Utility_Pipe</text>
</a>
</g>
</g>
<!-- Node1&#45;&gt;Node6 -->
<g id="edge5" class="edge">
<title>Node1&#45;&gt;Node6</title>
<path fill="none" stroke="darkgreen" stroke-dasharray="5,2" d="M150.49,-93.35C159.22,-104.07 174.68,-120.84 192,-129.5 240.03,-153.52 305.17,-157.29 335.16,-157.65"/>
<text text-anchor="middle" x="245" y="-158.5" font-family="Helvetica,sans-Serif" font-size="10.00">utility_pipe_pvc.scad</text>
</g>
<!-- Node1&#45;&gt;Node7 -->
<g id="edge6" class="edge">
<title>Node1&#45;&gt;Node7</title>
<path fill="none" stroke="darkgreen" stroke-dasharray="5,2" d="M171.3,-93C178.03,-95.03 185.22,-97.01 192,-98.5 245.23,-110.24 309.91,-116.86 337.71,-119.35"/>
<text text-anchor="middle" x="245" y="-117.5" font-family="Helvetica,sans-Serif" font-size="10.00">utility_pipe_ip.scad</text>
</g>
<!-- Node1&#45;&gt;Node5 -->
<g id="edge4" class="edge">
<title>Node1&#45;&gt;Node5</title>
<path fill="none" stroke="darkgreen" stroke-dasharray="5,2" d="M174.21,-83.5C219.88,-83.5 303.13,-83.5 336.79,-83.5"/>
<text text-anchor="middle" x="245" y="-86.5" font-family="Helvetica,sans-Serif" font-size="10.00">utility_pipe_rsc.scad</text>
</g>
<!-- Node1&#45;&gt;Node4 -->
<g id="edge3" class="edge">
<title>Node1&#45;&gt;Node4</title>
<path fill="none" stroke="darkgreen" stroke-dasharray="5,2" d="M171.3,-74C178.03,-71.97 185.22,-69.99 192,-68.5 243.05,-57.24 304.62,-50.69 334.11,-47.98"/>
<text text-anchor="middle" x="245" y="-71.5" font-family="Helvetica,sans-Serif" font-size="10.00">utility_pipe_emt.scad</text>
</g>
<!-- Node1&#45;&gt;Node3 -->
<g id="edge2" class="edge">
<title>Node1&#45;&gt;Node3</title>
<path fill="none" stroke="black" d="M161.85,-67.46C170.55,-60.76 181.31,-53.4 192,-48.5 232.29,-30.02 282.48,-19.6 315.68,-14.27"/>
<polygon fill="black" stroke="black" points="159.52,-64.84 153.91,-73.83 163.9,-70.3 159.52,-64.84"/>
</g>
</g>
</svg>
