<?xml version="1.0" encoding="UTF-8" standalone="no"?>
<!DOCTYPE svg PUBLIC "-//W3C//DTD SVG 1.1//EN"
 "http://www.w3.org/Graphics/SVG/1.1/DTD/svg11.dtd">
<!-- Generated by graphviz version 2.43.0 (0)
 -->
<!-- Title: Types Pages: 1 -->
<svg width="304pt" height="593pt"
 viewBox="0.00 0.00 304.00 593.16" xmlns="http://www.w3.org/2000/svg" xmlns:xlink="http://www.w3.org/1999/xlink">
<g id="graph0" class="graph" transform="scale(1 1) rotate(0) translate(4 589.16)">
<title>Types</title>
<polygon fill="white" stroke="transparent" points="-4,4 -4,-589.16 300,-589.16 300,4 -4,4"/>
<!-- Node7 -->
<g id="node1" class="node">
<title>Node7</title>
<g id="a_node1"><a xlink:href="group__datatypes__list__inspect.html" target="_top" xlink:title="List inspection operations.">
<polygon fill="white" stroke="black" points="284.5,-567.75 197.5,-567.75 197.5,-548.75 284.5,-548.75 284.5,-567.75"/>
<text text-anchor="middle" x="241" y="-555.75" font-family="Helvetica,sans-Serif" font-size="10.00">List Inspection</text>
</a>
</g>
</g>
<!-- Node1 -->
<g id="node2" class="node">
<title>Node1</title>
<g id="a_node2"><a xlink:title="Data type identification and operations.">
<polygon fill="#bfbfbf" stroke="black" points="44,-307.75 0,-307.75 0,-288.75 44,-288.75 44,-307.75"/>
<text text-anchor="middle" x="22" y="-295.75" font-family="Helvetica,sans-Serif" font-size="10.00">Types</text>
</a>
</g>
</g>
<!-- Node1&#45;&gt;Node7 -->
<g id="edge6" class="edge">
<title>Node1&#45;&gt;Node7</title>
<path fill="none" stroke="black" d="M22.74,-318.1C22.49,-374.12 25.12,-531.4 62,-563.25 105.29,-600.63 178.97,-581.37 216.51,-567.82"/>
<polygon fill="black" stroke="black" points="26.24,-318.07 22.83,-308.04 19.24,-318.01 26.24,-318.07"/>
</g>
<!-- Node1&#45;&gt;Node7 -->
<g id="edge16" class="edge">
<title>Node1&#45;&gt;Node7</title>
<path fill="none" stroke="darkgreen" stroke-dasharray="5,2" d="M23.19,-307.97C24.19,-347.76 30.06,-497.49 62,-529.25 66.79,-534.01 145.94,-545.52 197.07,-552.53"/>
<text text-anchor="middle" x="115" y="-550.25" font-family="Helvetica,sans-Serif" font-size="10.00">list_inspect.scad</text>
</g>
<!-- Node10 -->
<g id="node3" class="node">
<title>Node10</title>
<g id="a_node3"><a xlink:href="group__datatypes__map.html" target="_top" xlink:title="Map data type and operations.">
<polygon fill="white" stroke="black" points="262.5,-519.75 219.5,-519.75 219.5,-500.75 262.5,-500.75 262.5,-519.75"/>
<text text-anchor="middle" x="241" y="-507.75" font-family="Helvetica,sans-Serif" font-size="10.00">Maps</text>
</a>
</g>
</g>
<!-- Node1&#45;&gt;Node10 -->
<g id="edge9" class="edge">
<title>Node1&#45;&gt;Node10</title>
<path fill="none" stroke="black" d="M23.71,-317.82C25.84,-364.49 33.92,-480.18 62,-504.25 106.49,-542.39 182.65,-527.35 219.21,-516.97"/>
<polygon fill="black" stroke="black" points="27.2,-317.63 23.29,-307.78 20.21,-317.92 27.2,-317.63"/>
</g>
<!-- Node1&#45;&gt;Node10 -->
<g id="edge19" class="edge">
<title>Node1&#45;&gt;Node10</title>
<path fill="none" stroke="darkgreen" stroke-dasharray="5,2" d="M23.84,-307.78C26.9,-340.32 38.52,-446.23 62,-469.25 96.35,-502.94 121.17,-480.22 168,-491.25 185.37,-495.34 204.93,-500.54 219.28,-504.47"/>
<text text-anchor="middle" x="115" y="-494.25" font-family="Helvetica,sans-Serif" font-size="10.00">map.scad</text>
</g>
<!-- Node9 -->
<g id="node4" class="node">
<title>Node9</title>
<g id="a_node4"><a xlink:href="group__datatypes__binary.html" target="_top" xlink:title="Base&#45;2 binary numbers tests and operations.">
<polygon fill="white" stroke="black" points="288.5,-455.75 193.5,-455.75 193.5,-436.75 288.5,-436.75 288.5,-455.75"/>
<text text-anchor="middle" x="241" y="-443.75" font-family="Helvetica,sans-Serif" font-size="10.00">Binary Numbers</text>
</a>
</g>
</g>
<!-- Node1&#45;&gt;Node9 -->
<g id="edge8" class="edge">
<title>Node1&#45;&gt;Node9</title>
<path fill="none" stroke="black" d="M25.32,-318.2C30.01,-354.65 41.93,-429.72 62,-445.25 105.02,-478.53 173.02,-466.53 211.32,-455.77"/>
<polygon fill="black" stroke="black" points="28.74,-317.34 24.05,-307.84 21.79,-318.19 28.74,-317.34"/>
</g>
<!-- Node1&#45;&gt;Node9 -->
<g id="edge18" class="edge">
<title>Node1&#45;&gt;Node9</title>
<path fill="none" stroke="darkgreen" stroke-dasharray="5,2" d="M23.37,-308C24.75,-329.73 31.26,-382.35 62,-409.25 64.51,-411.45 141.28,-426.87 193.17,-437.1"/>
<text text-anchor="middle" x="115" y="-433.25" font-family="Helvetica,sans-Serif" font-size="10.00">binary.scad</text>
</g>
<!-- Node8 -->
<g id="node5" class="node">
<title>Node8</title>
<g id="a_node5"><a xlink:href="group__datatypes__euclidean.html" target="_top" xlink:title="Tests and operations for Euclidean 3d space.">
<polygon fill="white" stroke="black" points="273,-396.75 209,-396.75 209,-377.75 273,-377.75 273,-396.75"/>
<text text-anchor="middle" x="241" y="-384.75" font-family="Helvetica,sans-Serif" font-size="10.00">Euclidean</text>
</a>
</g>
</g>
<!-- Node1&#45;&gt;Node8 -->
<g id="edge7" class="edge">
<title>Node1&#45;&gt;Node8</title>
<path fill="none" stroke="black" d="M25.51,-317.87C29.36,-338.84 38.89,-371.12 62,-386.25 106.21,-415.19 170.78,-405.92 208.78,-396.56"/>
<polygon fill="black" stroke="black" points="28.95,-317.16 23.94,-307.82 22.03,-318.24 28.95,-317.16"/>
</g>
<!-- Node1&#45;&gt;Node8 -->
<g id="edge17" class="edge">
<title>Node1&#45;&gt;Node8</title>
<path fill="none" stroke="darkgreen" stroke-dasharray="5,2" d="M28.23,-307.98C34.68,-319.02 46.69,-336.71 62,-346.25 74.38,-353.97 160.92,-371.77 208.62,-381.18"/>
<text text-anchor="middle" x="115" y="-375.25" font-family="Helvetica,sans-Serif" font-size="10.00">euclidean.scad</text>
</g>
<!-- Node6 -->
<g id="node6" class="node">
<title>Node6</title>
<g id="a_node6"><a xlink:href="group__datatypes__list__operate.html" target="_top" xlink:title="Operations for list data types.">
<polygon fill="white" stroke="black" points="286,-337.75 196,-337.75 196,-318.75 286,-318.75 286,-337.75"/>
<text text-anchor="middle" x="241" y="-325.75" font-family="Helvetica,sans-Serif" font-size="10.00">List Operations</text>
</a>
</g>
</g>
<!-- Node1&#45;&gt;Node6 -->
<g id="edge5" class="edge">
<title>Node1&#45;&gt;Node6</title>
<path fill="none" stroke="black" d="M40.07,-314.61C46.45,-319.67 54.08,-324.6 62,-327.25 105.82,-341.89 159.16,-339.77 195.96,-335.48"/>
<polygon fill="black" stroke="black" points="42.1,-311.73 32.25,-307.83 37.52,-317.02 42.1,-311.73"/>
</g>
<!-- Node1&#45;&gt;Node6 -->
<g id="edge15" class="edge">
<title>Node1&#45;&gt;Node6</title>
<path fill="none" stroke="darkgreen" stroke-dasharray="5,2" d="M44.2,-300.04C72.51,-302.55 124.18,-307.58 168,-314.25 177.06,-315.63 186.73,-317.34 195.93,-319.09"/>
<text text-anchor="middle" x="115" y="-317.25" font-family="Helvetica,sans-Serif" font-size="10.00">list_operate.scad</text>
</g>
<!-- Node3 -->
<g id="node7" class="node">
<title>Node3</title>
<g id="a_node7"><a xlink:href="group__datatypes__scalar__operate.html" target="_top" xlink:title="Operations for scalar data types.">
<polygon fill="white" stroke="black" points="292.5,-278.75 189.5,-278.75 189.5,-259.75 292.5,-259.75 292.5,-278.75"/>
<text text-anchor="middle" x="241" y="-266.75" font-family="Helvetica,sans-Serif" font-size="10.00">Scalar Operations</text>
</a>
</g>
</g>
<!-- Node1&#45;&gt;Node3 -->
<g id="edge2" class="edge">
<title>Node1&#45;&gt;Node3</title>
<path fill="none" stroke="black" d="M54.4,-294.05C89.74,-289.33 147.64,-281.59 189.39,-276.01"/>
<polygon fill="black" stroke="black" points="53.65,-290.62 44.2,-295.42 54.58,-297.56 53.65,-290.62"/>
</g>
<!-- Node1&#45;&gt;Node3 -->
<g id="edge12" class="edge">
<title>Node1&#45;&gt;Node3</title>
<path fill="none" stroke="darkgreen" stroke-dasharray="5,2" d="M30.47,-288.67C37.56,-280.42 49.05,-269.1 62,-264.25 107.02,-247.38 163.02,-252.85 200.05,-259.74"/>
<text text-anchor="middle" x="115" y="-267.25" font-family="Helvetica,sans-Serif" font-size="10.00">scalar_operate.scad</text>
</g>
<!-- Node4 -->
<g id="node8" class="node">
<title>Node4</title>
<g id="a_node8"><a xlink:href="group__datatypes__iterable__test.html" target="_top" xlink:title="Tests to differentiate iterable data types.">
<polygon fill="white" stroke="black" points="282,-219.75 200,-219.75 200,-200.75 282,-200.75 282,-219.75"/>
<text text-anchor="middle" x="241" y="-207.75" font-family="Helvetica,sans-Serif" font-size="10.00">Iterable Tests</text>
</a>
</g>
</g>
<!-- Node1&#45;&gt;Node4 -->
<g id="edge3" class="edge">
<title>Node1&#45;&gt;Node4</title>
<path fill="none" stroke="black" d="M33,-279.72C39.78,-268.91 49.73,-255.93 62,-248.25 104.18,-221.84 161.84,-213.54 199.96,-211.07"/>
<polygon fill="black" stroke="black" points="29.9,-278.08 27.88,-288.48 35.95,-281.61 29.9,-278.08"/>
</g>
<!-- Node1&#45;&gt;Node4 -->
<g id="edge13" class="edge">
<title>Node1&#45;&gt;Node4</title>
<path fill="none" stroke="darkgreen" stroke-dasharray="5,2" d="M23.44,-288.48C24.97,-267.8 31.77,-219.84 62,-199.25 109.35,-167.01 181.22,-187.11 217.45,-200.74"/>
<text text-anchor="middle" x="115" y="-202.25" font-family="Helvetica,sans-Serif" font-size="10.00">iterable_test.scad</text>
</g>
<!-- Node2 -->
<g id="node9" class="node">
<title>Node2</title>
<g id="a_node9"><a xlink:href="group__datatypes__scalar__test.html" target="_top" xlink:title="Tests to differentiate scalar data types.">
<polygon fill="white" stroke="black" points="278,-160.75 204,-160.75 204,-141.75 278,-141.75 278,-160.75"/>
<text text-anchor="middle" x="241" y="-148.75" font-family="Helvetica,sans-Serif" font-size="10.00">Scalar Tests</text>
</a>
</g>
</g>
<!-- Node1&#45;&gt;Node2 -->
<g id="edge1" class="edge">
<title>Node1&#45;&gt;Node2</title>
<path fill="none" stroke="black" d="M23.38,-278.47C25.06,-251.43 32.33,-203.42 62,-178.25 82.8,-160.61 157.95,-154.47 203.69,-152.35"/>
<polygon fill="black" stroke="black" points="19.88,-278.51 22.96,-288.65 26.87,-278.8 19.88,-278.51"/>
</g>
<!-- Node1&#45;&gt;Node2 -->
<g id="edge11" class="edge">
<title>Node1&#45;&gt;Node2</title>
<path fill="none" stroke="darkgreen" stroke-dasharray="5,2" d="M23.87,-288.33C26.9,-256.52 38.07,-158.02 62,-139.25 107.94,-103.22 182.73,-126.75 218.98,-141.67"/>
<text text-anchor="middle" x="115" y="-142.25" font-family="Helvetica,sans-Serif" font-size="10.00">scalar_test.scad</text>
</g>
<!-- Node5 -->
<g id="node10" class="node">
<title>Node5</title>
<g id="a_node10"><a xlink:href="group__datatypes__iterable__operate.html" target="_top" xlink:title="Operations for iterable data types.">
<polygon fill="white" stroke="black" points="296,-101.75 186,-101.75 186,-82.75 296,-82.75 296,-101.75"/>
<text text-anchor="middle" x="241" y="-89.75" font-family="Helvetica,sans-Serif" font-size="10.00">Iterable Operations</text>
</a>
</g>
</g>
<!-- Node1&#45;&gt;Node5 -->
<g id="edge4" class="edge">
<title>Node1&#45;&gt;Node5</title>
<path fill="none" stroke="black" d="M24.52,-278.66C28.18,-236.84 38.94,-140.88 62,-119.25 79.5,-102.84 140.01,-96.4 185.66,-93.88"/>
<polygon fill="black" stroke="black" points="21.02,-278.44 23.69,-288.7 28,-279.02 21.02,-278.44"/>
</g>
<!-- Node1&#45;&gt;Node5 -->
<g id="edge14" class="edge">
<title>Node1&#45;&gt;Node5</title>
<path fill="none" stroke="darkgreen" stroke-dasharray="5,2" d="M23.15,-288.63C23.99,-249.95 29.29,-106.65 62,-79.25 107.25,-41.35 183.72,-67.05 219.89,-82.69"/>
<text text-anchor="middle" x="115" y="-82.25" font-family="Helvetica,sans-Serif" font-size="10.00">iterable_operate.scad</text>
</g>
<!-- Node11 -->
<g id="node11" class="node">
<title>Node11</title>
<g id="a_node11"><a xlink:href="group__datatypes__table.html" target="_top" xlink:title="Table data type and operations.">
<polygon fill="white" stroke="black" points="264.5,-42.75 217.5,-42.75 217.5,-23.75 264.5,-23.75 264.5,-42.75"/>
<text text-anchor="middle" x="241" y="-30.75" font-family="Helvetica,sans-Serif" font-size="10.00">Tables</text>
</a>
</g>
</g>
<!-- Node1&#45;&gt;Node11 -->
<g id="edge10" class="edge">
<title>Node1&#45;&gt;Node11</title>
<path fill="none" stroke="black" d="M23.36,-278.32C24.74,-226.72 31.27,-90.62 62,-60.25 83.51,-38.99 174.2,-34.45 217.2,-33.49"/>
<polygon fill="black" stroke="black" points="19.86,-278.42 23.13,-288.5 26.86,-278.58 19.86,-278.42"/>
</g>
<!-- Node1&#45;&gt;Node11 -->
<g id="edge20" class="edge">
<title>Node1&#45;&gt;Node11</title>
<path fill="none" stroke="darkgreen" stroke-dasharray="5,2" d="M22.76,-288.59C21.85,-243.71 20.62,-56.23 62,-20.25 106.66,18.58 183.76,-7.77 220.04,-23.65"/>
<text text-anchor="middle" x="115" y="-23.25" font-family="Helvetica,sans-Serif" font-size="10.00">table.scad</text>
</g>
</g>
</svg>
