<?xml version="1.0" encoding="UTF-8" standalone="no"?>
<!DOCTYPE svg PUBLIC "-//W3C//DTD SVG 1.1//EN"
 "http://www.w3.org/Graphics/SVG/1.1/DTD/svg11.dtd">
<!-- Generated by graphviz version 2.43.0 (0)
 -->
<!-- Title: reverse Pages: 1 -->
<svg width="350pt" height="142pt"
 viewBox="0.00 0.00 350.00 142.00" xmlns="http://www.w3.org/2000/svg" xmlns:xlink="http://www.w3.org/1999/xlink">
<g id="graph0" class="graph" transform="scale(1 1) rotate(0) translate(4 138)">
<title>reverse</title>
<polygon fill="white" stroke="transparent" points="-4,4 -4,-138 346,-138 346,4 -4,4"/>
<!-- Node1 -->
<g id="node1" class="node">
<title>Node1</title>
<g id="a_node1"><a xlink:title="Reverse the elements of an iterable value.">
<polygon fill="#bfbfbf" stroke="black" points="289,-57.5 289,-76.5 342,-76.5 342,-57.5 289,-57.5"/>
<text text-anchor="middle" x="315.5" y="-64.5" font-family="Helvetica,sans-Serif" font-size="10.00">reverse</text>
</a>
</g>
</g>
<!-- Node2 -->
<g id="node2" class="node">
<title>Node2</title>
<g id="a_node2"><a xlink:href="group__parts__3d__fastener__catch__latch.html#ga26a9933aa6d33599daab1be8d632c430" target="_top" xlink:title="A catch latch generator with configurable profile.">
<polygon fill="white" stroke="black" points="154.5,-114.5 154.5,-133.5 226.5,-133.5 226.5,-114.5 154.5,-114.5"/>
<text text-anchor="middle" x="190.5" y="-121.5" font-family="Helvetica,sans-Serif" font-size="10.00">catch_latch</text>
</a>
</g>
</g>
<!-- Node1&#45;&gt;Node2 -->
<g id="edge1" class="edge">
<title>Node1&#45;&gt;Node2</title>
<path fill="none" stroke="midnightblue" d="M292.46,-82.51C281.07,-90.04 266.7,-98.77 253,-105 244.66,-108.79 235.35,-112.1 226.55,-114.85"/>
<polygon fill="midnightblue" stroke="midnightblue" points="294.57,-85.31 300.9,-76.81 290.65,-79.51 294.57,-85.31"/>
</g>
<!-- Node3 -->
<g id="node3" class="node">
<title>Node3</title>
<g id="a_node3"><a xlink:href="group__parts__3d__fastener__clamps.html#gad5d667c41776480785c62759c61a137e" target="_top" xlink:title="A clamp, bushing, and/or grip for wire, hose, and/or pipe wall penetrations.">
<polygon fill="white" stroke="black" points="159,-76.5 159,-95.5 222,-95.5 222,-76.5 159,-76.5"/>
<text text-anchor="middle" x="190.5" y="-83.5" font-family="Helvetica,sans-Serif" font-size="10.00">clamp_cg</text>
</a>
</g>
</g>
<!-- Node1&#45;&gt;Node3 -->
<g id="edge2" class="edge">
<title>Node1&#45;&gt;Node3</title>
<path fill="none" stroke="midnightblue" d="M278.62,-72.54C260.67,-75.32 239.18,-78.64 222.03,-81.28"/>
<polygon fill="midnightblue" stroke="midnightblue" points="279.37,-75.97 288.72,-70.98 278.3,-69.05 279.37,-75.97"/>
</g>
<!-- Node6 -->
<g id="node6" class="node">
<title>Node6</title>
<g id="a_node6"><a xlink:href="group__tools__2d__drafting.html#gac08f304cd201a44444b6364e039c9b74" target="_top" xlink:title="Draft an arc with configurable style and optional arrowheads.">
<polygon fill="white" stroke="black" points="161,-0.5 161,-19.5 220,-19.5 220,-0.5 161,-0.5"/>
<text text-anchor="middle" x="190.5" y="-7.5" font-family="Helvetica,sans-Serif" font-size="10.00">draft_arc</text>
</a>
</g>
</g>
<!-- Node1&#45;&gt;Node6 -->
<g id="edge5" class="edge">
<title>Node1&#45;&gt;Node6</title>
<path fill="none" stroke="midnightblue" d="M292.46,-51.49C281.07,-43.96 266.7,-35.23 253,-29 242.62,-24.28 230.75,-20.31 220.22,-17.23"/>
<polygon fill="midnightblue" stroke="midnightblue" points="290.65,-54.49 300.9,-57.19 294.57,-48.69 290.65,-54.49"/>
</g>
<!-- Node7 -->
<g id="node7" class="node">
<title>Node7</title>
<g id="a_node7"><a xlink:href="group__parts__3d__enclosure__project__box__rectangle.html#ga24cdfe5fd4bb74b75409d9afdbe1f0c0" target="_top" xlink:title="A rectangular box maker for project boxes, enclosures and housings.">
<polygon fill="white" stroke="black" points="128,-38.5 128,-57.5 253,-57.5 253,-38.5 128,-38.5"/>
<text text-anchor="middle" x="190.5" y="-45.5" font-family="Helvetica,sans-Serif" font-size="10.00">project_box_rectangle</text>
</a>
</g>
</g>
<!-- Node1&#45;&gt;Node7 -->
<g id="edge6" class="edge">
<title>Node1&#45;&gt;Node7</title>
<path fill="none" stroke="midnightblue" d="M278.66,-61.46C270.66,-60.23 261.95,-58.88 253.23,-57.54"/>
<polygon fill="midnightblue" stroke="midnightblue" points="278.3,-64.95 288.72,-63.02 279.37,-58.03 278.3,-64.95"/>
</g>
<!-- Node4 -->
<g id="node4" class="node">
<title>Node4</title>
<g id="a_node4"><a xlink:href="group__parts__3d__computer__pcie__expansion.html#gab6fb1c9f8f6550633467f4ec0bd3f983" target="_top" xlink:title="Generate a PCI Express expansion open chassis or closed enclosure.">
<polygon fill="white" stroke="black" points="0,-76.5 0,-95.5 92,-95.5 92,-76.5 0,-76.5"/>
<text text-anchor="middle" x="46" y="-83.5" font-family="Helvetica,sans-Serif" font-size="10.00">pcie_expansion</text>
</a>
</g>
</g>
<!-- Node3&#45;&gt;Node4 -->
<g id="edge3" class="edge">
<title>Node3&#45;&gt;Node4</title>
<path fill="none" stroke="midnightblue" d="M148.9,-86C131.18,-86 110.34,-86 92.14,-86"/>
<polygon fill="midnightblue" stroke="midnightblue" points="148.93,-89.5 158.93,-86 148.93,-82.5 148.93,-89.5"/>
</g>
<!-- Node5 -->
<g id="node5" class="node">
<title>Node5</title>
<g id="a_node5"><a xlink:href="group__parts__3d__enclosure__power__strip.html#ga33509a1811b27fe7f3687957d4d32460" target="_top" xlink:title="A power strip generator for single gang electrical receptacles.">
<polygon fill="white" stroke="black" points="1,-38.5 1,-57.5 91,-57.5 91,-38.5 1,-38.5"/>
<text text-anchor="middle" x="46" y="-45.5" font-family="Helvetica,sans-Serif" font-size="10.00">power_strip_sg</text>
</a>
</g>
</g>
<!-- Node3&#45;&gt;Node5 -->
<g id="edge4" class="edge">
<title>Node3&#45;&gt;Node5</title>
<path fill="none" stroke="midnightblue" d="M149.08,-75.22C128.21,-69.66 102.97,-62.92 82.8,-57.55"/>
<polygon fill="midnightblue" stroke="midnightblue" points="148.37,-78.65 158.93,-77.85 150.17,-71.89 148.37,-78.65"/>
</g>
<!-- Node7&#45;&gt;Node4 -->
<g id="edge7" class="edge">
<title>Node7&#45;&gt;Node4</title>
<path fill="none" stroke="midnightblue" d="M143.85,-60.17C124.14,-65.43 101.43,-71.49 82.95,-76.41"/>
<polygon fill="midnightblue" stroke="midnightblue" points="144.78,-63.55 153.54,-57.59 142.98,-56.78 144.78,-63.55"/>
</g>
<!-- Node7&#45;&gt;Node5 -->
<g id="edge8" class="edge">
<title>Node7&#45;&gt;Node5</title>
<path fill="none" stroke="midnightblue" d="M117.65,-48C108.61,-48 99.59,-48 91.16,-48"/>
<polygon fill="midnightblue" stroke="midnightblue" points="117.83,-51.5 127.83,-48 117.83,-44.5 117.83,-51.5"/>
</g>
</g>
</svg>
