<?xml version="1.0" encoding="UTF-8" standalone="no"?>
<!DOCTYPE svg PUBLIC "-//W3C//DTD SVG 1.1//EN"
 "http://www.w3.org/Graphics/SVG/1.1/DTD/svg11.dtd">
<!-- Generated by graphviz version 2.43.0 (0)
 -->
<!-- Title: extrude_linear_uss Pages: 1 -->
<svg width="587pt" height="560pt"
 viewBox="0.00 0.00 587.00 560.00" xmlns="http://www.w3.org/2000/svg" xmlns:xlink="http://www.w3.org/1999/xlink">
<g id="graph0" class="graph" transform="scale(1 1) rotate(0) translate(4 556)">
<title>extrude_linear_uss</title>
<polygon fill="white" stroke="transparent" points="-4,4 -4,-556 583,-556 583,4 -4,4"/>
<!-- Node1 -->
<g id="node1" class="node">
<title>Node1</title>
<g id="a_node1"><a xlink:title="Linearly extrude a 2d shape with uniformly&#45;spaced profile scaling.">
<polygon fill="#bfbfbf" stroke="black" points="470,-304.5 470,-323.5 579,-323.5 579,-304.5 470,-304.5"/>
<text text-anchor="middle" x="524.5" y="-311.5" font-family="Helvetica,sans-Serif" font-size="10.00">extrude_linear_uss</text>
</a>
</g>
</g>
<!-- Node2 -->
<g id="node2" class="node">
<title>Node2</title>
<g id="a_node2"><a xlink:href="group__parts__2d__enclosure__box__finger__joint.html#gacc1bfb220bc3cfed46dcaa3b84898020" target="_top" xlink:title="Generate a 2D box design using screw&#45;based finger joint (box&#45;joint).">
<polygon fill="white" stroke="black" points="316,-532.5 316,-551.5 423,-551.5 423,-532.5 316,-532.5"/>
<text text-anchor="middle" x="369.5" y="-539.5" font-family="Helvetica,sans-Serif" font-size="10.00">box2d_finger_joint</text>
</a>
</g>
</g>
<!-- Node1&#45;&gt;Node2 -->
<g id="edge1" class="edge">
<title>Node1&#45;&gt;Node2</title>
<path fill="none" stroke="midnightblue" d="M520.13,-333.7C512.26,-373.86 489.01,-465.79 434,-518 427.42,-524.25 419.05,-528.91 410.57,-532.37"/>
<polygon fill="midnightblue" stroke="midnightblue" points="523.62,-334.09 521.99,-323.62 516.73,-332.82 523.62,-334.09"/>
</g>
<!-- Node3 -->
<g id="node3" class="node">
<title>Node3</title>
<g id="a_node3"><a xlink:href="group__parts__3d__fastener__clamps.html#gac715fdab9961aff45be668fb23556835" target="_top" xlink:title="A one piece zip tie clamp to secure wires or provide strain relief.">
<polygon fill="white" stroke="black" points="167.5,-456.5 167.5,-475.5 245.5,-475.5 245.5,-456.5 167.5,-456.5"/>
<text text-anchor="middle" x="206.5" y="-463.5" font-family="Helvetica,sans-Serif" font-size="10.00">clamp_zt_1p</text>
</a>
</g>
</g>
<!-- Node1&#45;&gt;Node3 -->
<g id="edge2" class="edge">
<title>Node1&#45;&gt;Node3</title>
<path fill="none" stroke="midnightblue" d="M505.94,-330.68C488.72,-346.35 461.15,-369.64 434,-385 372.03,-420.07 292.14,-444.36 245.68,-456.67"/>
<polygon fill="midnightblue" stroke="midnightblue" points="508.56,-333.03 513.52,-323.67 503.81,-327.89 508.56,-333.03"/>
</g>
<!-- Node4 -->
<g id="node4" class="node">
<title>Node4</title>
<g id="a_node4"><a xlink:href="group__parts__3d__computer__pcie__expansion.html#gab6fb1c9f8f6550633467f4ec0bd3f983" target="_top" xlink:title="Generate a PCI Express expansion open chassis or closed enclosure.">
<polygon fill="white" stroke="black" points="8,-437.5 8,-456.5 100,-456.5 100,-437.5 8,-437.5"/>
<text text-anchor="middle" x="54" y="-444.5" font-family="Helvetica,sans-Serif" font-size="10.00">pcie_expansion</text>
</a>
</g>
</g>
<!-- Node1&#45;&gt;Node4 -->
<g id="edge25" class="edge">
<title>Node1&#45;&gt;Node4</title>
<path fill="none" stroke="midnightblue" d="M513.05,-332.46C498.35,-356.86 469.38,-399.71 434,-425 370.51,-470.37 345.85,-471.46 269,-485 214.29,-494.64 198.43,-496.13 144,-485 117.5,-479.58 89.13,-465.95 71.72,-456.58"/>
<polygon fill="midnightblue" stroke="midnightblue" points="516.08,-334.19 518.13,-323.8 510.05,-330.65 516.08,-334.19"/>
</g>
<!-- Node5 -->
<g id="node5" class="node">
<title>Node5</title>
<g id="a_node5"><a xlink:href="group__transforms__extrude.html#ga45661244067bf945b684550c3263ee45" target="_top" xlink:title="Linearly extrude a 2d shape with multi&#45;segment uniformly&#45;spaced profile scaling.">
<polygon fill="white" stroke="black" points="313,-304.5 313,-323.5 426,-323.5 426,-304.5 313,-304.5"/>
<text text-anchor="middle" x="369.5" y="-311.5" font-family="Helvetica,sans-Serif" font-size="10.00">extrude_linear_mss</text>
</a>
</g>
</g>
<!-- Node1&#45;&gt;Node5 -->
<g id="edge4" class="edge">
<title>Node1&#45;&gt;Node5</title>
<path fill="none" stroke="midnightblue" d="M459.83,-314C448.62,-314 437.03,-314 426.06,-314"/>
<polygon fill="midnightblue" stroke="midnightblue" points="459.99,-317.5 469.99,-314 459.99,-310.5 459.99,-317.5"/>
</g>
<!-- Node9 -->
<g id="node9" class="node">
<title>Node9</title>
<g id="a_node9"><a xlink:href="group__parts__3d__enclosure__power__strip.html#ga33509a1811b27fe7f3687957d4d32460" target="_top" xlink:title="A power strip generator for single gang electrical receptacles.">
<polygon fill="white" stroke="black" points="9,-152.5 9,-171.5 99,-171.5 99,-152.5 9,-152.5"/>
<text text-anchor="middle" x="54" y="-159.5" font-family="Helvetica,sans-Serif" font-size="10.00">power_strip_sg</text>
</a>
</g>
</g>
<!-- Node1&#45;&gt;Node9 -->
<g id="edge26" class="edge">
<title>Node1&#45;&gt;Node9</title>
<path fill="none" stroke="midnightblue" d="M506.79,-297.37C468.68,-260.76 370.73,-174 269,-143 205.31,-123.59 126.4,-140.49 84.45,-152.49"/>
<polygon fill="midnightblue" stroke="midnightblue" points="504.39,-299.92 514,-304.38 509.27,-294.9 504.39,-299.92"/>
</g>
<!-- Node13 -->
<g id="node13" class="node">
<title>Node13</title>
<g id="a_node13"><a xlink:href="group__parts__3d__enclosure__project__box__rectangle.html#ga24cdfe5fd4bb74b75409d9afdbe1f0c0" target="_top" xlink:title="A rectangular box maker for project boxes, enclosures and housings.">
<polygon fill="white" stroke="black" points="144,-418.5 144,-437.5 269,-437.5 269,-418.5 144,-418.5"/>
<text text-anchor="middle" x="206.5" y="-425.5" font-family="Helvetica,sans-Serif" font-size="10.00">project_box_rectangle</text>
</a>
</g>
</g>
<!-- Node1&#45;&gt;Node13 -->
<g id="edge27" class="edge">
<title>Node1&#45;&gt;Node13</title>
<path fill="none" stroke="midnightblue" d="M490.09,-327.17C441.66,-346.11 348.98,-381.74 269,-409 259.48,-412.24 249.05,-415.56 239.53,-418.49"/>
<polygon fill="midnightblue" stroke="midnightblue" points="491.42,-330.41 499.45,-323.5 488.87,-323.89 491.42,-330.41"/>
</g>
<!-- Node15 -->
<g id="node15" class="node">
<title>Node15</title>
<g id="a_node15"><a xlink:href="group__parts__3d__fastener__hinges.html#ga7e350f2c55116094108b99dd8103fc04" target="_top" xlink:title="A print&#45;in&#45;place single&#45;fold hinge generator.">
<polygon fill="white" stroke="black" points="340.5,-0.5 340.5,-19.5 398.5,-19.5 398.5,-0.5 340.5,-0.5"/>
<text text-anchor="middle" x="369.5" y="-7.5" font-family="Helvetica,sans-Serif" font-size="10.00">hinge_sf</text>
</a>
</g>
</g>
<!-- Node1&#45;&gt;Node15 -->
<g id="edge20" class="edge">
<title>Node1&#45;&gt;Node15</title>
<path fill="none" stroke="midnightblue" d="M523.29,-294.16C521.65,-242.75 510.03,-104 434,-29 424.66,-19.79 411.05,-15.01 398.82,-12.55"/>
<polygon fill="midnightblue" stroke="midnightblue" points="519.8,-294.34 523.52,-304.26 526.79,-294.19 519.8,-294.34"/>
</g>
<!-- Node17 -->
<g id="node17" class="node">
<title>Node17</title>
<g id="a_node17"><a xlink:href="group__models__3d__joint__dovetail__screw.html#ga20f61ef0d29434a144ec653c6320f77f" target="_top" xlink:title="Construct a 3d dovetail joint with optional screw and nut fastener.">
<polygon fill="white" stroke="black" points="305,-38.5 305,-57.5 434,-57.5 434,-38.5 305,-38.5"/>
<text text-anchor="middle" x="369.5" y="-45.5" font-family="Helvetica,sans-Serif" font-size="10.00">joint3d_dovetail_screw</text>
</a>
</g>
</g>
<!-- Node1&#45;&gt;Node17 -->
<g id="edge22" class="edge">
<title>Node1&#45;&gt;Node17</title>
<path fill="none" stroke="midnightblue" d="M522.19,-294.33C518.03,-247.85 501.08,-130.37 434,-67 429.9,-63.13 425.04,-60.04 419.87,-57.58"/>
<polygon fill="midnightblue" stroke="midnightblue" points="518.7,-294.62 522.98,-304.31 525.68,-294.07 518.7,-294.62"/>
</g>
<!-- Node18 -->
<g id="node18" class="node">
<title>Node18</title>
<g id="a_node18"><a xlink:href="group__parts__3d__fastener__mounts.html#gae1cc60f3ff242fb07c5a50d34be8c051" target="_top" xlink:title="A mount tab with screw hole and support brace.">
<polygon fill="white" stroke="black" points="318,-76.5 318,-95.5 421,-95.5 421,-76.5 318,-76.5"/>
<text text-anchor="middle" x="369.5" y="-83.5" font-family="Helvetica,sans-Serif" font-size="10.00">mount_screw_tab</text>
</a>
</g>
</g>
<!-- Node1&#45;&gt;Node18 -->
<g id="edge23" class="edge">
<title>Node1&#45;&gt;Node18</title>
<path fill="none" stroke="midnightblue" d="M520.13,-294.3C512.26,-254.14 489.01,-162.21 434,-110 427.42,-103.75 419.05,-99.09 410.57,-95.63"/>
<polygon fill="midnightblue" stroke="midnightblue" points="516.73,-295.18 521.99,-304.38 523.62,-293.91 516.73,-295.18"/>
</g>
<!-- Node3&#45;&gt;Node4 -->
<g id="edge3" class="edge">
<title>Node3&#45;&gt;Node4</title>
<path fill="none" stroke="midnightblue" d="M157.01,-459.88C138.79,-457.58 118.17,-454.97 100.25,-452.71"/>
<polygon fill="midnightblue" stroke="midnightblue" points="156.77,-463.38 167.13,-461.16 157.65,-456.43 156.77,-463.38"/>
</g>
<!-- Node5&#45;&gt;Node3 -->
<g id="edge10" class="edge">
<title>Node5&#45;&gt;Node3</title>
<path fill="none" stroke="midnightblue" d="M359.46,-332.68C344.58,-361.47 312.22,-416.53 269,-447 262.06,-451.89 253.82,-455.56 245.66,-458.29"/>
<polygon fill="midnightblue" stroke="midnightblue" points="362.62,-334.18 363.98,-323.68 356.36,-331.04 362.62,-334.18"/>
</g>
<!-- Node6 -->
<g id="node6" class="node">
<title>Node6</title>
<g id="a_node6"><a xlink:href="group__parts__3d__motion__bearing__linear__rod.html#ga0064887f7c89f8915895c0243bec4a4c" target="_top" xlink:title="Transform 2d or 3d shape into a linear rod ball or sled bearing.">
<polygon fill="white" stroke="black" points="153,-266.5 153,-285.5 260,-285.5 260,-266.5 153,-266.5"/>
<text text-anchor="middle" x="206.5" y="-273.5" font-family="Helvetica,sans-Serif" font-size="10.00">bearing_linear_rod</text>
</a>
</g>
</g>
<!-- Node5&#45;&gt;Node6 -->
<g id="edge5" class="edge">
<title>Node5&#45;&gt;Node6</title>
<path fill="none" stroke="midnightblue" d="M318.1,-302.1C295.47,-296.76 269.13,-290.55 247.83,-285.52"/>
<polygon fill="midnightblue" stroke="midnightblue" points="317.34,-305.52 327.87,-304.41 318.94,-298.71 317.34,-305.52"/>
</g>
<!-- Node7 -->
<g id="node7" class="node">
<title>Node7</title>
<g id="a_node7"><a xlink:href="group__parts__3d__fastener__catch__latch.html#ga26a9933aa6d33599daab1be8d632c430" target="_top" xlink:title="A catch latch generator with configurable profile.">
<polygon fill="white" stroke="black" points="170.5,-228.5 170.5,-247.5 242.5,-247.5 242.5,-228.5 170.5,-228.5"/>
<text text-anchor="middle" x="206.5" y="-235.5" font-family="Helvetica,sans-Serif" font-size="10.00">catch_latch</text>
</a>
</g>
</g>
<!-- Node5&#45;&gt;Node7 -->
<g id="edge6" class="edge">
<title>Node5&#45;&gt;Node7</title>
<path fill="none" stroke="midnightblue" d="M345.62,-298.95C325.92,-286.47 296.43,-268.92 269,-257 260.7,-253.39 251.49,-250.17 242.79,-247.44"/>
<polygon fill="midnightblue" stroke="midnightblue" points="343.89,-302 354.19,-304.45 347.67,-296.1 343.89,-302"/>
</g>
<!-- Node8 -->
<g id="node8" class="node">
<title>Node8</title>
<g id="a_node8"><a xlink:href="group__parts__3d__fastener__clamps.html#gad5d667c41776480785c62759c61a137e" target="_top" xlink:title="A clamp, bushing, and/or grip for wire, hose, and/or pipe wall penetrations.">
<polygon fill="white" stroke="black" points="175,-190.5 175,-209.5 238,-209.5 238,-190.5 175,-190.5"/>
<text text-anchor="middle" x="206.5" y="-197.5" font-family="Helvetica,sans-Serif" font-size="10.00">clamp_cg</text>
</a>
</g>
</g>
<!-- Node5&#45;&gt;Node8 -->
<g id="edge7" class="edge">
<title>Node5&#45;&gt;Node8</title>
<path fill="none" stroke="midnightblue" d="M354.64,-296.52C336.93,-275.28 304.3,-239.73 269,-219 259.56,-213.45 248.33,-209.37 238.07,-206.44"/>
<polygon fill="midnightblue" stroke="midnightblue" points="352.05,-298.87 361.08,-304.41 357.47,-294.45 352.05,-298.87"/>
</g>
<!-- Node10 -->
<g id="node10" class="node">
<title>Node10</title>
<g id="a_node10"><a xlink:href="group__parts__3d__fastener__mounts.html#ga0cbac43259ec43fff7785057277bcef3" target="_top" xlink:title="A screw mount post with screw bore and optional fins.">
<polygon fill="white" stroke="black" points="0,-361.5 0,-380.5 108,-380.5 108,-361.5 0,-361.5"/>
<text text-anchor="middle" x="54" y="-368.5" font-family="Helvetica,sans-Serif" font-size="10.00">mount_screw_post</text>
</a>
</g>
</g>
<!-- Node5&#45;&gt;Node10 -->
<g id="edge11" class="edge">
<title>Node5&#45;&gt;Node10</title>
<path fill="none" stroke="midnightblue" d="M302.54,-314.08C257.32,-315.47 196.29,-319.98 144,-333 118.24,-339.41 90.38,-352.38 72.82,-361.38"/>
<polygon fill="midnightblue" stroke="midnightblue" points="302.9,-317.58 312.8,-313.81 302.71,-310.58 302.9,-317.58"/>
</g>
<!-- Node11 -->
<g id="node11" class="node">
<title>Node11</title>
<g id="a_node11"><a xlink:href="group__models__3d__misc__omdl__logo.html#gab176f64dad7e83d4fb056be44b71f630" target="_top" xlink:title="Standard omdl logo.">
<polygon fill="white" stroke="black" points="172.5,-152.5 172.5,-171.5 240.5,-171.5 240.5,-152.5 172.5,-152.5"/>
<text text-anchor="middle" x="206.5" y="-159.5" font-family="Helvetica,sans-Serif" font-size="10.00">omdl_logo</text>
</a>
</g>
</g>
<!-- Node5&#45;&gt;Node11 -->
<g id="edge12" class="edge">
<title>Node5&#45;&gt;Node11</title>
<path fill="none" stroke="midnightblue" d="M359.46,-295.32C344.58,-266.53 312.22,-211.47 269,-181 260.6,-175.08 250.29,-170.96 240.54,-168.11"/>
<polygon fill="midnightblue" stroke="midnightblue" points="356.36,-296.96 363.98,-304.32 362.62,-293.82 356.36,-296.96"/>
</g>
<!-- Node12 -->
<g id="node12" class="node">
<title>Node12</title>
<g id="a_node12"><a xlink:href="group__parts__3d__computer__pci__bracket.html#gaf56631cf80d8e5f0b77736b17b94ecd9" target="_top" xlink:title="PCI slot cover and adapter card bracket generator.">
<polygon fill="white" stroke="black" points="170.5,-342.5 170.5,-361.5 242.5,-361.5 242.5,-342.5 170.5,-342.5"/>
<text text-anchor="middle" x="206.5" y="-349.5" font-family="Helvetica,sans-Serif" font-size="10.00">pci_bracket</text>
</a>
</g>
</g>
<!-- Node5&#45;&gt;Node12 -->
<g id="edge14" class="edge">
<title>Node5&#45;&gt;Node12</title>
<path fill="none" stroke="midnightblue" d="M318.03,-325.91C293.53,-331.69 264.71,-338.5 242.65,-343.7"/>
<polygon fill="midnightblue" stroke="midnightblue" points="318.94,-329.29 327.87,-323.59 317.34,-322.48 318.94,-329.29"/>
</g>
<!-- Node5&#45;&gt;Node13 -->
<g id="edge15" class="edge">
<title>Node5&#45;&gt;Node13</title>
<path fill="none" stroke="midnightblue" d="M342.01,-328.86C329.93,-336.37 315.93,-346.18 305,-357 285.02,-376.77 291.67,-392.38 269,-409 263.68,-412.9 257.55,-416.01 251.26,-418.49"/>
<polygon fill="midnightblue" stroke="midnightblue" points="344.01,-331.73 350.78,-323.58 340.4,-325.73 344.01,-331.73"/>
</g>
<!-- Node14 -->
<g id="node14" class="node">
<title>Node14</title>
<g id="a_node14"><a xlink:href="group__models__3d__fastener__screws.html#gaad990187680f7ac947e555483d854bfa" target="_top" xlink:title="Gapped fastener bore with engagement cylinders for self&#45;forming threads.">
<polygon fill="white" stroke="black" points="161.5,-380.5 161.5,-399.5 251.5,-399.5 251.5,-380.5 161.5,-380.5"/>
<text text-anchor="middle" x="206.5" y="-387.5" font-family="Helvetica,sans-Serif" font-size="10.00">screw_bore_tsf</text>
</a>
</g>
</g>
<!-- Node5&#45;&gt;Node14 -->
<g id="edge18" class="edge">
<title>Node5&#45;&gt;Node14</title>
<path fill="none" stroke="midnightblue" d="M345.62,-329.05C325.92,-341.53 296.43,-359.08 269,-371 260.8,-374.56 251.72,-377.75 243.11,-380.46"/>
<polygon fill="midnightblue" stroke="midnightblue" points="347.67,-331.9 354.19,-323.55 343.89,-326 347.67,-331.9"/>
</g>
<!-- Node8&#45;&gt;Node4 -->
<g id="edge8" class="edge">
<title>Node8&#45;&gt;Node4</title>
<path fill="none" stroke="midnightblue" d="M165.1,-205.82C157.19,-208.65 149.62,-212.84 144,-219 91.67,-276.39 143.75,-321.05 108,-390 97.92,-409.43 79.38,-427.1 67.11,-437.45"/>
<polygon fill="midnightblue" stroke="midnightblue" points="166.18,-209.15 174.8,-202.98 164.22,-202.43 166.18,-209.15"/>
</g>
<!-- Node8&#45;&gt;Node9 -->
<g id="edge9" class="edge">
<title>Node8&#45;&gt;Node9</title>
<path fill="none" stroke="midnightblue" d="M164.78,-189.72C142.33,-184.05 114.66,-177.06 92.71,-171.52"/>
<polygon fill="midnightblue" stroke="midnightblue" points="164.13,-193.16 174.68,-192.22 165.84,-186.38 164.13,-193.16"/>
</g>
<!-- Node11&#45;&gt;Node9 -->
<g id="edge13" class="edge">
<title>Node11&#45;&gt;Node9</title>
<path fill="none" stroke="midnightblue" d="M162.46,-162C142.61,-162 119.07,-162 99.09,-162"/>
<polygon fill="midnightblue" stroke="midnightblue" points="162.47,-165.5 172.47,-162 162.47,-158.5 162.47,-165.5"/>
</g>
<!-- Node13&#45;&gt;Node4 -->
<g id="edge16" class="edge">
<title>Node13&#45;&gt;Node4</title>
<path fill="none" stroke="midnightblue" d="M133.84,-437.05C122.38,-438.49 110.81,-439.95 100.2,-441.29"/>
<polygon fill="midnightblue" stroke="midnightblue" points="134.37,-440.51 143.85,-435.78 133.49,-433.56 134.37,-440.51"/>
</g>
<!-- Node13&#45;&gt;Node9 -->
<g id="edge17" class="edge">
<title>Node13&#45;&gt;Node9</title>
<path fill="none" stroke="midnightblue" d="M149.27,-413.33C147.41,-412.01 145.64,-410.57 144,-409 107.24,-373.9 66.99,-212.53 57.22,-171.51"/>
<polygon fill="midnightblue" stroke="midnightblue" points="147.57,-416.38 157.97,-418.39 151.09,-410.33 147.57,-416.38"/>
</g>
<!-- Node14&#45;&gt;Node10 -->
<g id="edge19" class="edge">
<title>Node14&#45;&gt;Node10</title>
<path fill="none" stroke="midnightblue" d="M151.16,-383.14C137.12,-381.37 122.03,-379.46 108.06,-377.7"/>
<polygon fill="midnightblue" stroke="midnightblue" points="150.8,-386.62 161.16,-384.4 151.68,-379.68 150.8,-386.62"/>
</g>
<!-- Node16 -->
<g id="node16" class="node">
<title>Node16</title>
<g id="a_node16"><a xlink:href="group__parts__3d__fastener__hinges.html#ga1ffc82e0bbac466d1dc4fbe6c214b765" target="_top" xlink:title="A print&#45;in&#45;place bi&#45;fold hinge generator.">
<polygon fill="white" stroke="black" points="177,-0.5 177,-19.5 236,-19.5 236,-0.5 177,-0.5"/>
<text text-anchor="middle" x="206.5" y="-7.5" font-family="Helvetica,sans-Serif" font-size="10.00">hinge_bf</text>
</a>
</g>
</g>
<!-- Node15&#45;&gt;Node16 -->
<g id="edge21" class="edge">
<title>Node15&#45;&gt;Node16</title>
<path fill="none" stroke="midnightblue" d="M330.3,-10C301.38,-10 262.27,-10 236.03,-10"/>
<polygon fill="midnightblue" stroke="midnightblue" points="330.46,-13.5 340.46,-10 330.46,-6.5 330.46,-13.5"/>
</g>
<!-- Node18&#45;&gt;Node9 -->
<g id="edge24" class="edge">
<title>Node18&#45;&gt;Node9</title>
<path fill="none" stroke="midnightblue" d="M307.63,-85.65C261.63,-87.01 197.49,-92.42 144,-110 114.42,-119.73 83.93,-140.25 67.44,-152.41"/>
<polygon fill="midnightblue" stroke="midnightblue" points="307.83,-89.15 317.74,-85.41 307.66,-82.15 307.83,-89.15"/>
</g>
</g>
</svg>
