<?xml version="1.0" encoding="UTF-8" standalone="no"?>
<!DOCTYPE svg PUBLIC "-//W3C//DTD SVG 1.1//EN"
 "http://www.w3.org/Graphics/SVG/1.1/DTD/svg11.dtd">
<!-- Generated by graphviz version 2.43.0 (0)
 -->
<!-- Title: Geometry Pages: 1 -->
<svg width="250pt" height="27pt"
 viewBox="0.00 0.00 250.00 27.00" xmlns="http://www.w3.org/2000/svg" xmlns:xlink="http://www.w3.org/1999/xlink">
<g id="graph0" class="graph" transform="scale(1 1) rotate(0) translate(4 23)">
<title>Geometry</title>
<polygon fill="white" stroke="transparent" points="-4,4 -4,-23 246,-23 246,4 -4,4"/>
<!-- Node2 -->
<g id="node1" class="node">
<title>Node2</title>
<g id="a_node1"><a xlink:href="group__database.html" target="_top" xlink:title="Design data storage, specifications, and metadata.">
<polygon fill="white" stroke="black" points="40,-19 0,-19 0,0 40,0 40,-19"/>
<text text-anchor="middle" x="20" y="-7" font-family="Helvetica,sans-Serif" font-size="10.00">Data</text>
</a>
</g>
</g>
<!-- Node1 -->
<g id="node3" class="node">
<title>Node1</title>
<g id="a_node3"><a xlink:title="Geometric shape specifications.">
<polygon fill="#bfbfbf" stroke="black" points="141,-19 76,-19 76,0 141,0 141,-19"/>
<text text-anchor="middle" x="108.5" y="-7" font-family="Helvetica,sans-Serif" font-size="10.00">Geometry</text>
</a>
</g>
</g>
<!-- Node2&#45;&gt;Node1 -->
<g id="edge1" class="edge">
<title>Node2&#45;&gt;Node1</title>
<path fill="none" stroke="black" d="M50.4,-9.5C58.58,-9.5 67.49,-9.5 75.79,-9.5"/>
<polygon fill="black" stroke="black" points="50.2,-6 40.2,-9.5 50.2,-13 50.2,-6"/>
</g>
<!-- Node3 -->
<g id="node2" class="node">
<title>Node3</title>
<g id="a_node2"><a xlink:href="group__database__geometry__polyhedra.html" target="_top" xlink:title="Tables of polyhedra vertices, faces, and edges.">
<polygon fill="white" stroke="black" points="242,-19 177,-19 177,0 242,0 242,-19"/>
<text text-anchor="middle" x="209.5" y="-7" font-family="Helvetica,sans-Serif" font-size="10.00">Polyhedra</text>
</a>
</g>
</g>
<!-- Node1&#45;&gt;Node3 -->
<g id="edge2" class="edge">
<title>Node1&#45;&gt;Node3</title>
<path fill="none" stroke="black" d="M151.31,-9.5C159.86,-9.5 168.74,-9.5 176.86,-9.5"/>
<polygon fill="black" stroke="black" points="151.1,-6 141.1,-9.5 151.1,-13 151.1,-6"/>
</g>
</g>
</svg>
