<?xml version="1.0" encoding="UTF-8" standalone="no"?>
<!DOCTYPE svg PUBLIC "-//W3C//DTD SVG 1.1//EN"
 "http://www.w3.org/Graphics/SVG/1.1/DTD/svg11.dtd">
<!-- Generated by graphviz version 2.43.0 (0)
 -->
<!-- Title: Component Pages: 1 -->
<svg width="257pt" height="138pt"
 viewBox="0.00 0.00 257.00 138.00" xmlns="http://www.w3.org/2000/svg" xmlns:xlink="http://www.w3.org/1999/xlink">
<g id="graph0" class="graph" transform="scale(1 1) rotate(0) translate(4 134)">
<title>Component</title>
<polygon fill="white" stroke="transparent" points="-4,4 -4,-134 253,-134 253,4 -4,4"/>
<!-- Node2 -->
<g id="node1" class="node">
<title>Node2</title>
<g id="a_node1"><a xlink:href="group__database.html" target="_top" xlink:title="Design data storage, specifications, and metadata.">
<polygon fill="white" stroke="black" points="40,-74 0,-74 0,-55 40,-55 40,-74"/>
<text text-anchor="middle" x="20" y="-62" font-family="Helvetica,sans-Serif" font-size="10.00">Data</text>
</a>
</g>
</g>
<!-- Node1 -->
<g id="node3" class="node">
<title>Node1</title>
<g id="a_node3"><a xlink:title="Design component specifications.">
<polygon fill="#bfbfbf" stroke="black" points="149,-74 76,-74 76,-55 149,-55 149,-74"/>
<text text-anchor="middle" x="112.5" y="-62" font-family="Helvetica,sans-Serif" font-size="10.00">Component</text>
</a>
</g>
</g>
<!-- Node2&#45;&gt;Node1 -->
<g id="edge1" class="edge">
<title>Node2&#45;&gt;Node1</title>
<path fill="none" stroke="black" d="M50.34,-64.5C58.49,-64.5 67.43,-64.5 75.89,-64.5"/>
<polygon fill="black" stroke="black" points="50.19,-61 40.19,-64.5 50.19,-68 50.19,-61"/>
</g>
<!-- Node3 -->
<g id="node2" class="node">
<title>Node3</title>
<g id="a_node2"><a xlink:href="group__database__component__battery.html" target="_top" xlink:title="Electric battery specifications.">
<polygon fill="white" stroke="black" points="243.5,-130 190.5,-130 190.5,-111 243.5,-111 243.5,-130"/>
<text text-anchor="middle" x="217" y="-118" font-family="Helvetica,sans-Serif" font-size="10.00">Battery</text>
</a>
</g>
</g>
<!-- Node1&#45;&gt;Node3 -->
<g id="edge2" class="edge">
<title>Node1&#45;&gt;Node3</title>
<path fill="none" stroke="black" d="M140.37,-79.18C158.67,-89.18 182.4,-102.14 198.35,-110.86"/>
<polygon fill="black" stroke="black" points="141.81,-75.98 131.35,-74.25 138.45,-82.12 141.81,-75.98"/>
</g>
<!-- Node4 -->
<g id="node4" class="node">
<title>Node4</title>
<g id="a_node4"><a xlink:href="group__database__component__fastener.html" target="_top" xlink:title="Mechanical fastener specifications.">
<polygon fill="white" stroke="black" points="246,-93 188,-93 188,-74 246,-74 246,-93"/>
<text text-anchor="middle" x="217" y="-81" font-family="Helvetica,sans-Serif" font-size="10.00">Fastener</text>
</a>
</g>
</g>
<!-- Node1&#45;&gt;Node4 -->
<g id="edge3" class="edge">
<title>Node1&#45;&gt;Node4</title>
<path fill="none" stroke="black" d="M159.12,-72.96C168.93,-74.78 179.02,-76.65 187.93,-78.3"/>
<polygon fill="black" stroke="black" points="159.53,-69.47 149.06,-71.09 158.26,-76.36 159.53,-69.47"/>
</g>
<!-- Node6 -->
<g id="node5" class="node">
<title>Node6</title>
<g id="a_node5"><a xlink:href="group__database__component__structural.html" target="_top" xlink:title="Structural component specifications.">
<polygon fill="white" stroke="black" points="249,-56 185,-56 185,-37 249,-37 249,-56"/>
<text text-anchor="middle" x="217" y="-44" font-family="Helvetica,sans-Serif" font-size="10.00">Structural</text>
</a>
</g>
</g>
<!-- Node1&#45;&gt;Node6 -->
<g id="edge5" class="edge">
<title>Node1&#45;&gt;Node6</title>
<path fill="none" stroke="black" d="M159.14,-56.49C167.86,-54.95 176.81,-53.38 184.94,-51.95"/>
<polygon fill="black" stroke="black" points="158.31,-53.08 149.06,-58.25 159.52,-59.97 158.31,-53.08"/>
</g>
<!-- Node5 -->
<g id="node6" class="node">
<title>Node5</title>
<g id="a_node6"><a xlink:href="group__database__component__motion.html" target="_top" xlink:title="Mechanical motion design component specifications.">
<polygon fill="white" stroke="black" points="242,-19 192,-19 192,0 242,0 242,-19"/>
<text text-anchor="middle" x="217" y="-7" font-family="Helvetica,sans-Serif" font-size="10.00">Motion</text>
</a>
</g>
</g>
<!-- Node1&#45;&gt;Node5 -->
<g id="edge4" class="edge">
<title>Node1&#45;&gt;Node5</title>
<path fill="none" stroke="black" d="M140.31,-50.12C158.49,-40.36 182.04,-27.72 198.01,-19.16"/>
<polygon fill="black" stroke="black" points="138.51,-47.11 131.35,-54.92 141.82,-53.28 138.51,-47.11"/>
</g>
</g>
</svg>
