<?xml version="1.0" encoding="UTF-8" standalone="no"?>
<!DOCTYPE svg PUBLIC "-//W3C//DTD SVG 1.1//EN"
 "http://www.w3.org/Graphics/SVG/1.1/DTD/svg11.dtd">
<!-- Generated by graphviz version 2.43.0 (0)
 -->
<!-- Title: polygon_centroid Pages: 1 -->
<svg width="371pt" height="104pt"
 viewBox="0.00 0.00 371.00 104.00" xmlns="http://www.w3.org/2000/svg" xmlns:xlink="http://www.w3.org/1999/xlink">
<g id="graph0" class="graph" transform="scale(1 1) rotate(0) translate(4 100)">
<title>polygon_centroid</title>
<polygon fill="white" stroke="transparent" points="-4,4 -4,-100 367,-100 367,4 -4,4"/>
<!-- Node1 -->
<g id="node1" class="node">
<title>Node1</title>
<g id="a_node1"><a xlink:title="Compute the center of mass of a polygon in a Euclidean 2d&#45;space.">
<polygon fill="#bfbfbf" stroke="black" points="262,-38.5 262,-57.5 363,-57.5 363,-38.5 262,-38.5"/>
<text text-anchor="middle" x="312.5" y="-45.5" font-family="Helvetica,sans-Serif" font-size="10.00">polygon_centroid</text>
</a>
</g>
</g>
<!-- Node2 -->
<g id="node2" class="node">
<title>Node2</title>
<g id="a_node2"><a xlink:href="group__shapes__polygon.html#ga155ae943a1aa91432b1992fd1de364c2" target="_top" xlink:title="A polygon trapezoid with individual vertex rounding and arc facets.">
<polygon fill="white" stroke="black" points="146,-38.5 146,-57.5 226,-57.5 226,-38.5 146,-38.5"/>
<text text-anchor="middle" x="186" y="-45.5" font-family="Helvetica,sans-Serif" font-size="10.00">pg_trapezoid</text>
</a>
</g>
</g>
<!-- Node1&#45;&gt;Node2 -->
<g id="edge1" class="edge">
<title>Node1&#45;&gt;Node2</title>
<path fill="none" stroke="midnightblue" d="M251.75,-48C243.02,-48 234.22,-48 226.04,-48"/>
<polygon fill="midnightblue" stroke="midnightblue" points="251.94,-51.5 261.94,-48 251.94,-44.5 251.94,-51.5"/>
</g>
<!-- Node3 -->
<g id="node3" class="node">
<title>Node3</title>
<g id="a_node3"><a xlink:href="group__parts__3d__fastener__mounts.html#ga0cbac43259ec43fff7785057277bcef3" target="_top" xlink:title="A screw mount post with screw bore and optional fins.">
<polygon fill="white" stroke="black" points="1,-76.5 1,-95.5 109,-95.5 109,-76.5 1,-76.5"/>
<text text-anchor="middle" x="55" y="-83.5" font-family="Helvetica,sans-Serif" font-size="10.00">mount_screw_post</text>
</a>
</g>
</g>
<!-- Node2&#45;&gt;Node3 -->
<g id="edge2" class="edge">
<title>Node2&#45;&gt;Node3</title>
<path fill="none" stroke="midnightblue" d="M142.45,-60.54C124.9,-65.7 104.89,-71.6 88.54,-76.41"/>
<polygon fill="midnightblue" stroke="midnightblue" points="143.84,-63.77 152.45,-57.59 141.87,-57.06 143.84,-63.77"/>
</g>
<!-- Node4 -->
<g id="node4" class="node">
<title>Node4</title>
<g id="a_node4"><a xlink:href="group__parts__3d__computer__pcie__expansion.html#gab6fb1c9f8f6550633467f4ec0bd3f983" target="_top" xlink:title="Generate a PCI Express expansion open chassis or closed enclosure.">
<polygon fill="white" stroke="black" points="9,-38.5 9,-57.5 101,-57.5 101,-38.5 9,-38.5"/>
<text text-anchor="middle" x="55" y="-45.5" font-family="Helvetica,sans-Serif" font-size="10.00">pcie_expansion</text>
</a>
</g>
</g>
<!-- Node2&#45;&gt;Node4 -->
<g id="edge3" class="edge">
<title>Node2&#45;&gt;Node4</title>
<path fill="none" stroke="midnightblue" d="M135.76,-48C124.43,-48 112.42,-48 101.26,-48"/>
<polygon fill="midnightblue" stroke="midnightblue" points="135.95,-51.5 145.95,-48 135.95,-44.5 135.95,-51.5"/>
</g>
<!-- Node5 -->
<g id="node5" class="node">
<title>Node5</title>
<g id="a_node5"><a xlink:href="group__shapes__revolved.html#ga69b374bbebd7d87cfcd06b6bd3278404" target="_top" xlink:title="A trapezoidal cross&#45;sectional profile revolved about the z&#45;axis.">
<polygon fill="white" stroke="black" points="0,-0.5 0,-19.5 110,-19.5 110,-0.5 0,-0.5"/>
<text text-anchor="middle" x="55" y="-7.5" font-family="Helvetica,sans-Serif" font-size="10.00">torus_pg_trapezoid</text>
</a>
</g>
</g>
<!-- Node2&#45;&gt;Node5 -->
<g id="edge4" class="edge">
<title>Node2&#45;&gt;Node5</title>
<path fill="none" stroke="midnightblue" d="M142.45,-35.46C124.9,-30.3 104.89,-24.4 88.54,-19.59"/>
<polygon fill="midnightblue" stroke="midnightblue" points="141.87,-38.94 152.45,-38.41 143.84,-32.23 141.87,-38.94"/>
</g>
</g>
</svg>
