<?xml version="1.0" encoding="UTF-8" standalone="no"?>
<!DOCTYPE svg PUBLIC "-//W3C//DTD SVG 1.1//EN"
 "http://www.w3.org/Graphics/SVG/1.1/DTD/svg11.dtd">
<!-- Generated by graphviz version 2.43.0 (0)
 -->
<!-- Title: align_al Pages: 1 -->
<svg width="362pt" height="218pt"
 viewBox="0.00 0.00 362.00 218.00" xmlns="http://www.w3.org/2000/svg" xmlns:xlink="http://www.w3.org/1999/xlink">
<g id="graph0" class="graph" transform="scale(1 1) rotate(0) translate(4 214)">
<title>align_al</title>
<polygon fill="white" stroke="transparent" points="-4,4 -4,-214 358,-214 358,4 -4,4"/>
<!-- Node1 -->
<g id="node1" class="node">
<title>Node1</title>
<g id="a_node1"><a xlink:title="Align an objects Cartesian axis to reference line or vector.">
<polygon fill="#bfbfbf" stroke="black" points="0,-38.5 0,-57.5 55,-57.5 55,-38.5 0,-38.5"/>
<text text-anchor="middle" x="27.5" y="-45.5" font-family="Helvetica,sans-Serif" font-size="10.00">align_al</text>
</a>
</g>
</g>
<!-- Node2 -->
<g id="node2" class="node">
<title>Node2</title>
<g id="a_node2"><a xlink:href="group__transforms__align.html#gac695554e76def13eeb5a15a349f5fa12" target="_top" xlink:title="Align a line or vector to a reference line or vector.">
<polygon fill="white" stroke="black" points="91,-76.5 91,-95.5 143,-95.5 143,-76.5 91,-76.5"/>
<text text-anchor="middle" x="117" y="-83.5" font-family="Helvetica,sans-Serif" font-size="10.00">align_ll</text>
</a>
</g>
</g>
<!-- Node1&#45;&gt;Node2 -->
<g id="edge1" class="edge">
<title>Node1&#45;&gt;Node2</title>
<path fill="none" stroke="midnightblue" d="M50.58,-57.59C60.84,-62.04 73.23,-67.42 84.45,-72.3"/>
<polygon fill="midnightblue" stroke="midnightblue" points="83.36,-75.64 93.93,-76.41 86.15,-69.22 83.36,-75.64"/>
</g>
<!-- Node10 -->
<g id="node10" class="node">
<title>Node10</title>
<g id="a_node10"><a xlink:href="group__datatypes__list__operate.html#ga7b8e6f2bbfa72ae61e39377e5ca6b5be" target="_top" xlink:title="Select specified element from list or return a default.">
<polygon fill="white" stroke="black" points="179,-0.5 179,-19.5 238,-19.5 238,-0.5 179,-0.5"/>
<text text-anchor="middle" x="208.5" y="-7.5" font-family="Helvetica,sans-Serif" font-size="10.00">select_ci</text>
</a>
</g>
</g>
<!-- Node1&#45;&gt;Node10 -->
<g id="edge11" class="edge">
<title>Node1&#45;&gt;Node10</title>
<path fill="none" stroke="midnightblue" d="M55.3,-42.31C85.35,-35.93 134.35,-25.53 168.62,-18.25"/>
<polygon fill="midnightblue" stroke="midnightblue" points="169.68,-21.61 178.74,-16.11 168.23,-14.76 169.68,-21.61"/>
</g>
<!-- Node3 -->
<g id="node3" class="node">
<title>Node3</title>
<g id="a_node3"><a xlink:href="group__datatypes__euclidean.html#ga8115b05f16bcc197e3e339a65f4d3e49" target="_top" xlink:title="Return the initial point of a line or vector.">
<polygon fill="white" stroke="black" points="184,-190.5 184,-209.5 233,-209.5 233,-190.5 184,-190.5"/>
<text text-anchor="middle" x="208.5" y="-197.5" font-family="Helvetica,sans-Serif" font-size="10.00">line_ip</text>
</a>
</g>
</g>
<!-- Node2&#45;&gt;Node3 -->
<g id="edge2" class="edge">
<title>Node2&#45;&gt;Node3</title>
<path fill="none" stroke="midnightblue" d="M122.45,-95.53C131.28,-113.73 152.48,-154.02 179,-181 180.07,-182.09 181.21,-183.15 182.39,-184.17"/>
<polygon fill="midnightblue" stroke="midnightblue" points="180.55,-187.17 190.64,-190.42 184.78,-181.59 180.55,-187.17"/>
</g>
<!-- Node4 -->
<g id="node4" class="node">
<title>Node4</title>
<g id="a_node4"><a xlink:href="group__datatypes__euclidean.html#ga299bce4158dc8d0a7a8e7d9967b8ea4e" target="_top" xlink:title="Return the terminal point of a line or vector.">
<polygon fill="white" stroke="black" points="183.5,-152.5 183.5,-171.5 233.5,-171.5 233.5,-152.5 183.5,-152.5"/>
<text text-anchor="middle" x="208.5" y="-159.5" font-family="Helvetica,sans-Serif" font-size="10.00">line_tp</text>
</a>
</g>
</g>
<!-- Node2&#45;&gt;Node4 -->
<g id="edge3" class="edge">
<title>Node2&#45;&gt;Node4</title>
<path fill="none" stroke="midnightblue" d="M127.49,-95.8C139.12,-107.59 159.68,-127.7 179,-143 180.54,-144.22 182.15,-145.44 183.8,-146.64"/>
<polygon fill="midnightblue" stroke="midnightblue" points="181.88,-149.56 192.09,-152.39 185.87,-143.81 181.88,-149.56"/>
</g>
<!-- Node5 -->
<g id="node5" class="node">
<title>Node5</title>
<g id="a_node5"><a xlink:href="group__datatypes__list__operate.html#ga1088f9b09ff8ed12e2c844758f39c039" target="_top" xlink:title="Compute the mean/average of a list of numbers.">
<polygon fill="white" stroke="black" points="186.5,-114.5 186.5,-133.5 230.5,-133.5 230.5,-114.5 186.5,-114.5"/>
<text text-anchor="middle" x="208.5" y="-121.5" font-family="Helvetica,sans-Serif" font-size="10.00">mean</text>
</a>
</g>
</g>
<!-- Node2&#45;&gt;Node5 -->
<g id="edge4" class="edge">
<title>Node2&#45;&gt;Node5</title>
<path fill="none" stroke="midnightblue" d="M140.58,-95.59C151.7,-100.31 165.25,-106.06 177.25,-111.16"/>
<polygon fill="midnightblue" stroke="midnightblue" points="175.89,-114.38 186.46,-115.07 178.62,-107.94 175.89,-114.38"/>
</g>
<!-- Node6 -->
<g id="node6" class="node">
<title>Node6</title>
<g id="a_node6"><a xlink:href="group__transforms__align.html#ga8f52a6a936d0f5e248f836d19df14a9f" target="_top" xlink:title="Orient a line or vector to a reference line or vector.">
<polygon fill="white" stroke="black" points="180.5,-76.5 180.5,-95.5 236.5,-95.5 236.5,-76.5 180.5,-76.5"/>
<text text-anchor="middle" x="208.5" y="-83.5" font-family="Helvetica,sans-Serif" font-size="10.00">orient_ll</text>
</a>
</g>
</g>
<!-- Node2&#45;&gt;Node6 -->
<g id="edge5" class="edge">
<title>Node2&#45;&gt;Node6</title>
<path fill="none" stroke="midnightblue" d="M143.41,-86C151.82,-86 161.36,-86 170.46,-86"/>
<polygon fill="midnightblue" stroke="midnightblue" points="170.46,-89.5 180.46,-86 170.46,-82.5 170.46,-89.5"/>
</g>
<!-- Node8 -->
<g id="node8" class="node">
<title>Node8</title>
<g id="a_node8"><a xlink:href="group__datatypes__euclidean.html#ga78d67c74076bef2e80a95b1e9b6eb2d7" target="_top" xlink:title="Return 3d point unchanged or add a zeroed third dimension to 2d point.">
<polygon fill="white" stroke="black" points="277,-38.5 277,-57.5 351,-57.5 351,-38.5 277,-38.5"/>
<text text-anchor="middle" x="314" y="-45.5" font-family="Helvetica,sans-Serif" font-size="10.00">point_to_3d</text>
</a>
</g>
</g>
<!-- Node2&#45;&gt;Node8 -->
<g id="edge9" class="edge">
<title>Node2&#45;&gt;Node8</title>
<path fill="none" stroke="midnightblue" d="M143.28,-77.12C154.16,-73.56 167.1,-69.68 179,-67 207.94,-60.49 240.92,-55.78 266.92,-52.68"/>
<polygon fill="midnightblue" stroke="midnightblue" points="267.35,-56.15 276.88,-51.52 266.55,-49.2 267.35,-56.15"/>
</g>
<!-- Node2&#45;&gt;Node10 -->
<g id="edge10" class="edge">
<title>Node2&#45;&gt;Node10</title>
<path fill="none" stroke="midnightblue" d="M129.23,-76.4C141.45,-65.94 161.59,-48.75 179,-34 181.99,-31.47 185.16,-28.79 188.26,-26.18"/>
<polygon fill="midnightblue" stroke="midnightblue" points="190.72,-28.68 196.11,-19.56 186.21,-23.32 190.72,-28.68"/>
</g>
<!-- Node7 -->
<g id="node7" class="node">
<title>Node7</title>
<g id="a_node7"><a xlink:href="group__datatypes__euclidean.html#ga3d5c07c70f271bcf9144f50ce8620a89" target="_top" xlink:title="Compute the angle between two lines or vectors in a 3d or 2d&#45;space.">
<polygon fill="white" stroke="black" points="286.5,-114.5 286.5,-133.5 341.5,-133.5 341.5,-114.5 286.5,-114.5"/>
<text text-anchor="middle" x="314" y="-121.5" font-family="Helvetica,sans-Serif" font-size="10.00">angle_ll</text>
</a>
</g>
</g>
<!-- Node6&#45;&gt;Node7 -->
<g id="edge6" class="edge">
<title>Node6&#45;&gt;Node7</title>
<path fill="none" stroke="midnightblue" d="M235.62,-95.59C248.24,-100.22 263.59,-105.86 277.28,-110.89"/>
<polygon fill="midnightblue" stroke="midnightblue" points="276.3,-114.25 286.89,-114.41 278.71,-107.68 276.3,-114.25"/>
</g>
<!-- Node6&#45;&gt;Node8 -->
<g id="edge7" class="edge">
<title>Node6&#45;&gt;Node8</title>
<path fill="none" stroke="midnightblue" d="M235.62,-76.41C248.24,-71.78 263.59,-66.14 277.28,-61.11"/>
<polygon fill="midnightblue" stroke="midnightblue" points="278.71,-64.32 286.89,-57.59 276.3,-57.75 278.71,-64.32"/>
</g>
<!-- Node9 -->
<g id="node9" class="node">
<title>Node9</title>
<g id="a_node9"><a xlink:href="group__datatypes__euclidean.html#ga6ef2a81f304d31b9ec9753ca4875ad45" target="_top" xlink:title="Convert line to vector by shifting it to the origin.">
<polygon fill="white" stroke="black" points="274,-76.5 274,-95.5 354,-95.5 354,-76.5 274,-76.5"/>
<text text-anchor="middle" x="314" y="-83.5" font-family="Helvetica,sans-Serif" font-size="10.00">vol_to_origin</text>
</a>
</g>
</g>
<!-- Node6&#45;&gt;Node9 -->
<g id="edge8" class="edge">
<title>Node6&#45;&gt;Node9</title>
<path fill="none" stroke="midnightblue" d="M236.69,-86C245.05,-86 254.52,-86 263.87,-86"/>
<polygon fill="midnightblue" stroke="midnightblue" points="263.92,-89.5 273.92,-86 263.92,-82.5 263.92,-89.5"/>
</g>
</g>
</svg>
