<?xml version="1.0" encoding="UTF-8" standalone="no"?>
<!DOCTYPE svg PUBLIC "-//W3C//DTD SVG 1.1//EN"
 "http://www.w3.org/Graphics/SVG/1.1/DTD/svg11.dtd">
<!-- Generated by graphviz version 2.43.0 (0)
 -->
<!-- Title: draft_polygon Pages: 1 -->
<svg width="368pt" height="237pt"
 viewBox="0.00 0.00 368.00 237.00" xmlns="http://www.w3.org/2000/svg" xmlns:xlink="http://www.w3.org/1999/xlink">
<g id="graph0" class="graph" transform="scale(1 1) rotate(0) translate(4 233)">
<title>draft_polygon</title>
<polygon fill="white" stroke="transparent" points="-4,4 -4,-233 364,-233 364,4 -4,4"/>
<!-- Node1 -->
<g id="node1" class="node">
<title>Node1</title>
<g id="a_node1"><a xlink:title="Draft a polygon with configurable style.">
<polygon fill="#bfbfbf" stroke="black" points="0,-95.5 0,-114.5 83,-114.5 83,-95.5 0,-95.5"/>
<text text-anchor="middle" x="41.5" y="-102.5" font-family="Helvetica,sans-Serif" font-size="10.00">draft_polygon</text>
</a>
</g>
</g>
<!-- Node2 -->
<g id="node2" class="node">
<title>Node2</title>
<g id="a_node2"><a xlink:href="group__tools__2d__drafting.html#ga060910368142d6371cf4f3f30be7561e" target="_top" xlink:title="Draft a line with configurable style and optional arrowheads.">
<polygon fill="white" stroke="black" points="151,-190.5 151,-209.5 213,-209.5 213,-190.5 151,-190.5"/>
<text text-anchor="middle" x="182" y="-197.5" font-family="Helvetica,sans-Serif" font-size="10.00">draft_line</text>
</a>
</g>
</g>
<!-- Node1&#45;&gt;Node2 -->
<g id="edge1" class="edge">
<title>Node1&#45;&gt;Node2</title>
<path fill="none" stroke="midnightblue" d="M49.63,-114.67C61.99,-130.75 88.97,-163.01 119,-181 125.79,-185.07 133.53,-188.33 141.18,-190.93"/>
<polygon fill="midnightblue" stroke="midnightblue" points="140.16,-194.28 150.75,-193.88 142.22,-187.59 140.16,-194.28"/>
</g>
<!-- Node5 -->
<g id="node5" class="node">
<title>Node5</title>
<g id="a_node5"><a xlink:href="group__datatypes__iterable__operate.html#gaccab3e37e43cb1d882713b3f3d6d9e1b" target="_top" xlink:title="Return the first element of an iterable value.">
<polygon fill="white" stroke="black" points="164.5,-152.5 164.5,-171.5 199.5,-171.5 199.5,-152.5 164.5,-152.5"/>
<text text-anchor="middle" x="182" y="-159.5" font-family="Helvetica,sans-Serif" font-size="10.00">first</text>
</a>
</g>
</g>
<!-- Node1&#45;&gt;Node5 -->
<g id="edge4" class="edge">
<title>Node1&#45;&gt;Node5</title>
<path fill="none" stroke="midnightblue" d="M59.75,-114.59C75.02,-122.82 98.06,-134.66 119,-143 130.41,-147.55 143.36,-151.67 154.46,-154.9"/>
<polygon fill="midnightblue" stroke="midnightblue" points="153.86,-158.37 164.43,-157.72 155.76,-151.63 153.86,-158.37"/>
</g>
<!-- Node6 -->
<g id="node6" class="node">
<title>Node6</title>
<g id="a_node6"><a xlink:href="group__datatypes__list__operate.html#ga82aaa9bc9dcda9231b41d6c40be67651" target="_top" xlink:title="Selected element indices of a given list according to a selection scheme.">
<polygon fill="white" stroke="black" points="150.5,-114.5 150.5,-133.5 213.5,-133.5 213.5,-114.5 150.5,-114.5"/>
<text text-anchor="middle" x="182" y="-121.5" font-family="Helvetica,sans-Serif" font-size="10.00">index_sel</text>
</a>
</g>
</g>
<!-- Node1&#45;&gt;Node6 -->
<g id="edge5" class="edge">
<title>Node1&#45;&gt;Node6</title>
<path fill="none" stroke="midnightblue" d="M83.31,-110.6C101.18,-113.05 122.12,-115.92 140.02,-118.38"/>
<polygon fill="midnightblue" stroke="midnightblue" points="139.77,-121.88 150.15,-119.77 140.72,-114.94 139.77,-121.88"/>
</g>
<!-- Node7 -->
<g id="node7" class="node">
<title>Node7</title>
<g id="a_node7"><a xlink:href="group__datatypes__scalar__test.html#ga51d7fdb800c10f4b7479d23b89ab8d22" target="_top" xlink:title="Test if a value is defined.">
<polygon fill="white" stroke="black" points="149,-76.5 149,-95.5 215,-95.5 215,-76.5 149,-76.5"/>
<text text-anchor="middle" x="182" y="-83.5" font-family="Helvetica,sans-Serif" font-size="10.00">is_defined</text>
</a>
</g>
</g>
<!-- Node1&#45;&gt;Node7 -->
<g id="edge6" class="edge">
<title>Node1&#45;&gt;Node7</title>
<path fill="none" stroke="midnightblue" d="M83.31,-99.4C100.78,-97 121.18,-94.21 138.81,-91.79"/>
<polygon fill="midnightblue" stroke="midnightblue" points="139.39,-95.24 148.82,-90.41 138.44,-88.31 139.39,-95.24"/>
</g>
<!-- Node8 -->
<g id="node8" class="node">
<title>Node8</title>
<g id="a_node8"><a xlink:href="group__math__polytope.html#ga3acbef4dac1e9b9c464566f80b52a4f6" target="_top" xlink:title="List the edge coordinate index pairs of a polytope.">
<polygon fill="white" stroke="black" points="119,-38.5 119,-57.5 245,-57.5 245,-38.5 119,-38.5"/>
<text text-anchor="middle" x="182" y="-45.5" font-family="Helvetica,sans-Serif" font-size="10.00">polytope_faces2edges</text>
</a>
</g>
</g>
<!-- Node1&#45;&gt;Node8 -->
<g id="edge7" class="edge">
<title>Node1&#45;&gt;Node8</title>
<path fill="none" stroke="midnightblue" d="M59.75,-95.41C75.02,-87.18 98.06,-75.34 119,-67 124.56,-64.78 130.49,-62.67 136.39,-60.71"/>
<polygon fill="midnightblue" stroke="midnightblue" points="137.76,-63.94 146.22,-57.56 135.63,-57.28 137.76,-63.94"/>
</g>
<!-- Node9 -->
<g id="node9" class="node">
<title>Node9</title>
<g id="a_node9"><a xlink:href="group__datatypes__iterable__operate.html#ga894d4bec62cc9cf38d5e099de3028c54" target="_top" xlink:title="Return the second element of an iterable value.">
<polygon fill="white" stroke="black" points="156.5,-0.5 156.5,-19.5 207.5,-19.5 207.5,-0.5 156.5,-0.5"/>
<text text-anchor="middle" x="182" y="-7.5" font-family="Helvetica,sans-Serif" font-size="10.00">second</text>
</a>
</g>
</g>
<!-- Node1&#45;&gt;Node9 -->
<g id="edge8" class="edge">
<title>Node1&#45;&gt;Node9</title>
<path fill="none" stroke="midnightblue" d="M49.63,-95.33C61.99,-79.25 88.97,-46.99 119,-29 127.37,-23.99 137.18,-20.19 146.49,-17.36"/>
<polygon fill="midnightblue" stroke="midnightblue" points="147.6,-20.69 156.31,-14.66 145.74,-13.94 147.6,-20.69"/>
</g>
<!-- Node3 -->
<g id="node3" class="node">
<title>Node3</title>
<g id="a_node3"><a xlink:href="group__datatypes__iterable__test.html#ga4dfc58aa5f208e103e622684db817ce6" target="_top" xlink:title="Test if all elements of an iterable value equal a comparison value.">
<polygon fill="white" stroke="black" points="290,-209.5 290,-228.5 351,-228.5 351,-209.5 290,-209.5"/>
<text text-anchor="middle" x="320.5" y="-216.5" font-family="Helvetica,sans-Serif" font-size="10.00">all_equal</text>
</a>
</g>
</g>
<!-- Node2&#45;&gt;Node3 -->
<g id="edge2" class="edge">
<title>Node2&#45;&gt;Node3</title>
<path fill="none" stroke="midnightblue" d="M213.29,-204.22C232.87,-206.94 258.55,-210.52 279.76,-213.47"/>
<polygon fill="midnightblue" stroke="midnightblue" points="279.37,-216.95 289.76,-214.86 280.34,-210.02 279.37,-216.95"/>
</g>
<!-- Node4 -->
<g id="node4" class="node">
<title>Node4</title>
<g id="a_node4"><a xlink:href="group__datatypes__iterable__operate.html#ga3d37c2b0067d1661724bd89955c8f6ce" target="_top" xlink:title="Returns an element from an iterable if it exists, or a default value if not.">
<polygon fill="white" stroke="black" points="281,-171.5 281,-190.5 360,-190.5 360,-171.5 281,-171.5"/>
<text text-anchor="middle" x="320.5" y="-178.5" font-family="Helvetica,sans-Serif" font-size="10.00">defined_e_or</text>
</a>
</g>
</g>
<!-- Node2&#45;&gt;Node4 -->
<g id="edge3" class="edge">
<title>Node2&#45;&gt;Node4</title>
<path fill="none" stroke="midnightblue" d="M213.29,-195.78C230.2,-193.43 251.67,-190.44 270.88,-187.77"/>
<polygon fill="midnightblue" stroke="midnightblue" points="271.55,-191.21 280.97,-186.36 270.58,-184.28 271.55,-191.21"/>
</g>
</g>
</svg>
