<?xml version="1.0" encoding="UTF-8" standalone="no"?>
<!DOCTYPE svg PUBLIC "-//W3C//DTD SVG 1.1//EN"
 "http://www.w3.org/Graphics/SVG/1.1/DTD/svg11.dtd">
<!-- Generated by graphviz version 2.43.0 (0)
 -->
<!-- Title: pg_rectangle_rs Pages: 1 -->
<svg width="262pt" height="294pt"
 viewBox="0.00 0.00 262.00 294.00" xmlns="http://www.w3.org/2000/svg" xmlns:xlink="http://www.w3.org/1999/xlink">
<g id="graph0" class="graph" transform="scale(1 1) rotate(0) translate(4 290)">
<title>pg_rectangle_rs</title>
<polygon fill="white" stroke="transparent" points="-4,4 -4,-290 258,-290 258,4 -4,4"/>
<!-- Node1 -->
<g id="node1" class="node">
<title>Node1</title>
<g id="a_node1"><a xlink:title="A polygon rectangle with side rounding.">
<polygon fill="#bfbfbf" stroke="black" points="0,-133.5 0,-152.5 94,-152.5 94,-133.5 0,-133.5"/>
<text text-anchor="middle" x="47" y="-140.5" font-family="Helvetica,sans-Serif" font-size="10.00">pg_rectangle_rs</text>
</a>
</g>
</g>
<!-- Node2 -->
<g id="node2" class="node">
<title>Node2</title>
<g id="a_node2"><a xlink:href="group__datatypes__iterable__operate.html#ga3d37c2b0067d1661724bd89955c8f6ce" target="_top" xlink:title="Returns an element from an iterable if it exists, or a default value if not.">
<polygon fill="white" stroke="black" points="152.5,-266.5 152.5,-285.5 231.5,-285.5 231.5,-266.5 152.5,-266.5"/>
<text text-anchor="middle" x="192" y="-273.5" font-family="Helvetica,sans-Serif" font-size="10.00">defined_e_or</text>
</a>
</g>
</g>
<!-- Node1&#45;&gt;Node2 -->
<g id="edge1" class="edge">
<title>Node1&#45;&gt;Node2</title>
<path fill="none" stroke="midnightblue" d="M52.22,-152.56C62.37,-174.41 90.25,-228.34 130,-257 133.95,-259.85 138.35,-262.28 142.91,-264.35"/>
<polygon fill="midnightblue" stroke="midnightblue" points="141.85,-267.7 152.44,-268.12 144.43,-261.19 141.85,-267.7"/>
</g>
<!-- Node3 -->
<g id="node3" class="node">
<title>Node3</title>
<g id="a_node3"><a xlink:href="group__datatypes__scalar__operate.html#gac119300e8c83de0037f2d0a4d9f0ab5c" target="_top" xlink:title="Return given value, if defined, or a secondary value, if primary is not defined.">
<polygon fill="white" stroke="black" points="158,-228.5 158,-247.5 226,-247.5 226,-228.5 158,-228.5"/>
<text text-anchor="middle" x="192" y="-235.5" font-family="Helvetica,sans-Serif" font-size="10.00">defined_or</text>
</a>
</g>
</g>
<!-- Node1&#45;&gt;Node3 -->
<g id="edge2" class="edge">
<title>Node1&#45;&gt;Node3</title>
<path fill="none" stroke="midnightblue" d="M55.81,-152.62C69.31,-168.65 98.59,-200.82 130,-219 135.61,-222.25 141.83,-225 148.1,-227.32"/>
<polygon fill="midnightblue" stroke="midnightblue" points="147.31,-230.74 157.9,-230.61 149.53,-224.11 147.31,-230.74"/>
</g>
<!-- Node4 -->
<g id="node4" class="node">
<title>Node4</title>
<g id="a_node4"><a xlink:href="group__datatypes__euclidean.html#gaef5b930729755b4420098776467ac210" target="_top" xlink:title="Compute the distance between two points.">
<polygon fill="white" stroke="black" points="154.5,-190.5 154.5,-209.5 229.5,-209.5 229.5,-190.5 154.5,-190.5"/>
<text text-anchor="middle" x="192" y="-197.5" font-family="Helvetica,sans-Serif" font-size="10.00">distance_pp</text>
</a>
</g>
</g>
<!-- Node1&#45;&gt;Node4 -->
<g id="edge3" class="edge">
<title>Node1&#45;&gt;Node4</title>
<path fill="none" stroke="midnightblue" d="M66.91,-152.63C83.34,-160.79 107.89,-172.48 130,-181 135.64,-183.17 141.63,-185.28 147.59,-187.25"/>
<polygon fill="midnightblue" stroke="midnightblue" points="146.89,-190.71 157.48,-190.43 149.03,-184.04 146.89,-190.71"/>
</g>
<!-- Node5 -->
<g id="node5" class="node">
<title>Node5</title>
<g id="a_node5"><a xlink:href="group__datatypes__iterable__operate.html#gaccab3e37e43cb1d882713b3f3d6d9e1b" target="_top" xlink:title="Return the first element of an iterable value.">
<polygon fill="white" stroke="black" points="174.5,-152.5 174.5,-171.5 209.5,-171.5 209.5,-152.5 174.5,-152.5"/>
<text text-anchor="middle" x="192" y="-159.5" font-family="Helvetica,sans-Serif" font-size="10.00">first</text>
</a>
</g>
</g>
<!-- Node1&#45;&gt;Node5 -->
<g id="edge4" class="edge">
<title>Node1&#45;&gt;Node5</title>
<path fill="none" stroke="midnightblue" d="M94.03,-149.12C117.18,-152.19 144.42,-155.81 164.13,-158.43"/>
<polygon fill="midnightblue" stroke="midnightblue" points="163.85,-161.92 174.23,-159.77 164.78,-154.98 163.85,-161.92"/>
</g>
<!-- Node6 -->
<g id="node6" class="node">
<title>Node6</title>
<g id="a_node6"><a xlink:href="group__datatypes__iterable__operate.html#ga4f04409e3fce7bf8226e4fde98f514c0" target="_top" xlink:title="Return the last element of an iterable value.">
<polygon fill="white" stroke="black" points="174.5,-114.5 174.5,-133.5 209.5,-133.5 209.5,-114.5 174.5,-114.5"/>
<text text-anchor="middle" x="192" y="-121.5" font-family="Helvetica,sans-Serif" font-size="10.00">last</text>
</a>
</g>
</g>
<!-- Node1&#45;&gt;Node6 -->
<g id="edge5" class="edge">
<title>Node1&#45;&gt;Node6</title>
<path fill="none" stroke="midnightblue" d="M94.03,-136.88C117.18,-133.81 144.42,-130.19 164.13,-127.57"/>
<polygon fill="midnightblue" stroke="midnightblue" points="164.78,-131.02 174.23,-126.23 163.85,-124.08 164.78,-131.02"/>
</g>
<!-- Node7 -->
<g id="node7" class="node">
<title>Node7</title>
<g id="a_node7"><a xlink:href="group__math__polygon.html#ga128d01889534a62bba46ad30ef83a67f" target="_top" xlink:title="Compute coordinates of an arc with constant radius between two vectors in 2D.">
<polygon fill="white" stroke="black" points="130,-76.5 130,-95.5 254,-95.5 254,-76.5 130,-76.5"/>
<text text-anchor="middle" x="192" y="-83.5" font-family="Helvetica,sans-Serif" font-size="10.00">polygon_arc_sweep_p</text>
</a>
</g>
</g>
<!-- Node1&#45;&gt;Node7 -->
<g id="edge6" class="edge">
<title>Node1&#45;&gt;Node7</title>
<path fill="none" stroke="midnightblue" d="M66.91,-133.37C83.34,-125.21 107.89,-113.52 130,-105 135.64,-102.83 141.63,-100.72 147.59,-98.75"/>
<polygon fill="midnightblue" stroke="midnightblue" points="149.03,-101.96 157.48,-95.57 146.89,-95.29 149.03,-101.96"/>
</g>
<!-- Node8 -->
<g id="node8" class="node">
<title>Node8</title>
<g id="a_node8"><a xlink:href="group__datatypes__iterable__operate.html#gafacf0ab6a646e99fcf55351ca693823f" target="_top" xlink:title="Return a list containing all but the first n elements of an iterable value.">
<polygon fill="white" stroke="black" points="173,-38.5 173,-57.5 211,-57.5 211,-38.5 173,-38.5"/>
<text text-anchor="middle" x="192" y="-45.5" font-family="Helvetica,sans-Serif" font-size="10.00">tailn</text>
</a>
</g>
</g>
<!-- Node1&#45;&gt;Node8 -->
<g id="edge7" class="edge">
<title>Node1&#45;&gt;Node8</title>
<path fill="none" stroke="midnightblue" d="M55.81,-133.38C69.31,-117.35 98.59,-85.18 130,-67 140.11,-61.15 152.23,-56.89 162.99,-53.91"/>
<polygon fill="midnightblue" stroke="midnightblue" points="163.95,-57.28 172.78,-51.44 162.23,-50.5 163.95,-57.28"/>
</g>
<!-- Node9 -->
<g id="node9" class="node">
<title>Node9</title>
<g id="a_node9"><a xlink:href="group__math__linear__algebra.html#gaeabe74699fd0a437bad9a1d442bfd111" target="_top" xlink:title="Translate all coordinates dimensions.">
<polygon fill="white" stroke="black" points="156.5,-0.5 156.5,-19.5 227.5,-19.5 227.5,-0.5 156.5,-0.5"/>
<text text-anchor="middle" x="192" y="-7.5" font-family="Helvetica,sans-Serif" font-size="10.00">translate_p</text>
</a>
</g>
</g>
<!-- Node1&#45;&gt;Node9 -->
<g id="edge8" class="edge">
<title>Node1&#45;&gt;Node9</title>
<path fill="none" stroke="midnightblue" d="M52.22,-133.44C62.37,-111.59 90.25,-57.66 130,-29 134.96,-25.43 140.61,-22.51 146.42,-20.14"/>
<polygon fill="midnightblue" stroke="midnightblue" points="148.02,-23.28 156.26,-16.63 145.67,-16.69 148.02,-23.28"/>
</g>
</g>
</svg>
