<?xml version="1.0" encoding="UTF-8" standalone="no"?>
<!DOCTYPE svg PUBLIC "-//W3C//DTD SVG 1.1//EN"
 "http://www.w3.org/Graphics/SVG/1.1/DTD/svg11.dtd">
<!-- Generated by graphviz version 2.43.0 (0)
 -->
<!-- Title: Select Common 3d Pages: 1 -->
<svg width="326pt" height="37pt"
 viewBox="0.00 0.00 326.00 37.01" xmlns="http://www.w3.org/2000/svg" xmlns:xlink="http://www.w3.org/1999/xlink">
<g id="graph0" class="graph" transform="scale(1 1) rotate(0) translate(4 33.01)">
<title>Select Common 3d</title>
<polygon fill="white" stroke="transparent" points="-4,4 -4,-33.01 322,-33.01 322,4 -4,4"/>
<!-- Node2 -->
<g id="node1" class="node">
<title>Node2</title>
<g id="a_node1"><a xlink:href="group__shapes.html" target="_top" xlink:title="Common geometric shapes and foundational constructs.">
<polygon fill="white" stroke="black" points="52,-29.01 0,-29.01 0,-10.01 52,-10.01 52,-29.01"/>
<text text-anchor="middle" x="26" y="-17.01" font-family="Helvetica,sans-Serif" font-size="10.00">Shapes</text>
</a>
</g>
</g>
<!-- Node1 -->
<g id="node2" class="node">
<title>Node1</title>
<g id="a_node2"><a xlink:title="Selection and configuration for common 3D shapes.">
<polygon fill="#bfbfbf" stroke="black" points="318,-29.01 209,-29.01 209,-10.01 318,-10.01 318,-29.01"/>
<text text-anchor="middle" x="263.5" y="-17.01" font-family="Helvetica,sans-Serif" font-size="10.00">Select Common 3d</text>
</a>
</g>
</g>
<!-- Node2&#45;&gt;Node1 -->
<g id="edge1" class="edge">
<title>Node2&#45;&gt;Node1</title>
<path fill="none" stroke="black" d="M62.48,-19.51C101.27,-19.51 163.88,-19.51 208.72,-19.51"/>
<polygon fill="black" stroke="black" points="62.2,-16.01 52.2,-19.51 62.2,-23.01 62.2,-16.01"/>
</g>
<!-- Node1&#45;&gt;Node2 -->
<g id="edge2" class="edge">
<title>Node1&#45;&gt;Node2</title>
<path fill="none" stroke="darkgreen" stroke-dasharray="5,2" d="M221.11,-10C211.29,-8.14 200.82,-6.46 191,-5.51 137.47,-0.32 123.11,2.92 70,-5.51 63.95,-6.47 57.6,-8.15 51.68,-10.01"/>
<text text-anchor="middle" x="130.5" y="-8.51" font-family="Helvetica,sans-Serif" font-size="10.00">select_common_3d.scad</text>
</g>
</g>
</svg>
