<?xml version="1.0" encoding="UTF-8" standalone="no"?>
<!DOCTYPE svg PUBLIC "-//W3C//DTD SVG 1.1//EN"
 "http://www.w3.org/Graphics/SVG/1.1/DTD/svg11.dtd">
<!-- Generated by graphviz version 2.43.0 (0)
 -->
<!-- Title: Iterable Operations Pages: 1 -->
<svg width="304pt" height="37pt"
 viewBox="0.00 0.00 304.00 36.67" xmlns="http://www.w3.org/2000/svg" xmlns:xlink="http://www.w3.org/1999/xlink">
<g id="graph0" class="graph" transform="scale(1 1) rotate(0) translate(4 32.67)">
<title>Iterable Operations</title>
<polygon fill="white" stroke="transparent" points="-4,4 -4,-32.67 300,-32.67 300,4 -4,4"/>
<!-- Node2 -->
<g id="node1" class="node">
<title>Node2</title>
<g id="a_node1"><a xlink:href="group__datatypes.html" target="_top" xlink:title="Data type identification and operations.">
<polygon fill="white" stroke="black" points="44,-28.67 0,-28.67 0,-9.67 44,-9.67 44,-28.67"/>
<text text-anchor="middle" x="22" y="-16.67" font-family="Helvetica,sans-Serif" font-size="10.00">Types</text>
</a>
</g>
</g>
<!-- Node1 -->
<g id="node2" class="node">
<title>Node1</title>
<g id="a_node2"><a xlink:title="Operations for iterable data types.">
<polygon fill="#bfbfbf" stroke="black" points="296,-28.67 186,-28.67 186,-9.67 296,-9.67 296,-28.67"/>
<text text-anchor="middle" x="241" y="-16.67" font-family="Helvetica,sans-Serif" font-size="10.00">Iterable Operations</text>
</a>
</g>
</g>
<!-- Node2&#45;&gt;Node1 -->
<g id="edge1" class="edge">
<title>Node2&#45;&gt;Node1</title>
<path fill="none" stroke="black" d="M54.57,-19.17C88.92,-19.17 144.46,-19.17 185.82,-19.17"/>
<polygon fill="black" stroke="black" points="54.2,-15.67 44.2,-19.17 54.2,-22.67 54.2,-15.67"/>
</g>
<!-- Node1&#45;&gt;Node2 -->
<g id="edge2" class="edge">
<title>Node1&#45;&gt;Node2</title>
<path fill="none" stroke="darkgreen" stroke-dasharray="5,2" d="M198.32,-9.66C188.43,-7.79 177.89,-6.12 168,-5.17 121.11,-0.65 108.41,2.91 62,-5.17 56.05,-6.2 49.8,-8.07 44.1,-10.1"/>
<text text-anchor="middle" x="115" y="-8.17" font-family="Helvetica,sans-Serif" font-size="10.00">iterable_operate.scad</text>
</g>
</g>
</svg>
