<?xml version="1.0" encoding="UTF-8" standalone="no"?>
<!DOCTYPE svg PUBLIC "-//W3C//DTD SVG 1.1//EN"
 "http://www.w3.org/Graphics/SVG/1.1/DTD/svg11.dtd">
<!-- Generated by graphviz version 2.43.0 (0)
 -->
<!-- Title: bearing_linear_rod Pages: 1 -->
<svg width="524pt" height="560pt"
 viewBox="0.00 0.00 524.00 560.00" xmlns="http://www.w3.org/2000/svg" xmlns:xlink="http://www.w3.org/1999/xlink">
<g id="graph0" class="graph" transform="scale(1 1) rotate(0) translate(4 556)">
<title>bearing_linear_rod</title>
<polygon fill="white" stroke="transparent" points="-4,4 -4,-556 520,-556 520,4 -4,4"/>
<!-- Node1 -->
<g id="node1" class="node">
<title>Node1</title>
<g id="a_node1"><a xlink:title="Transform 2d or 3d shape into a linear rod ball or sled bearing.">
<polygon fill="#bfbfbf" stroke="black" points="0,-323.5 0,-342.5 107,-342.5 107,-323.5 0,-323.5"/>
<text text-anchor="middle" x="53.5" y="-330.5" font-family="Helvetica,sans-Serif" font-size="10.00">bearing_linear_rod</text>
</a>
</g>
</g>
<!-- Node2 -->
<g id="node2" class="node">
<title>Node2</title>
<g id="a_node2"><a xlink:href="group__units__angle.html#ga06a917b77748dfb74e765bcd7c4c0219" target="_top" xlink:title="Convert an angle value from one unit to another.">
<polygon fill="white" stroke="black" points="454.5,-133.5 454.5,-152.5 498.5,-152.5 498.5,-133.5 454.5,-133.5"/>
<text text-anchor="middle" x="476.5" y="-140.5" font-family="Helvetica,sans-Serif" font-size="10.00">angle</text>
</a>
</g>
</g>
<!-- Node1&#45;&gt;Node2 -->
<g id="edge1" class="edge">
<title>Node1&#45;&gt;Node2</title>
<path fill="none" stroke="midnightblue" d="M59.99,-323.29C72.41,-302.04 104.58,-250.78 143,-219 200.28,-171.61 219.72,-160.37 292,-143 344.3,-130.43 407.43,-134.44 444.35,-138.63"/>
<polygon fill="midnightblue" stroke="midnightblue" points="444.14,-142.13 454.49,-139.86 444.98,-135.18 444.14,-142.13"/>
</g>
<!-- Node3 -->
<g id="node3" class="node">
<title>Node3</title>
<g id="a_node3"><a xlink:href="group__datatypes__binary.html#ga7ce4ed94d9b389ff817ea219918b8732" target="_top" xlink:title="Test if a binary bit position of an integer value equals a test bit.">
<polygon fill="white" stroke="black" points="160,-494.5 160,-513.5 239,-513.5 239,-494.5 160,-494.5"/>
<text text-anchor="middle" x="199.5" y="-501.5" font-family="Helvetica,sans-Serif" font-size="10.00">binary_bit_is</text>
</a>
</g>
</g>
<!-- Node1&#45;&gt;Node3 -->
<g id="edge2" class="edge">
<title>Node1&#45;&gt;Node3</title>
<path fill="none" stroke="midnightblue" d="M57.49,-342.78C66.16,-369.56 93.88,-444.73 143,-485 145.4,-486.97 148.02,-488.74 150.77,-490.33"/>
<polygon fill="midnightblue" stroke="midnightblue" points="149.37,-493.54 159.89,-494.82 152.47,-487.26 149.37,-493.54"/>
</g>
<!-- Node4 -->
<g id="node4" class="node">
<title>Node4</title>
<g id="a_node4"><a xlink:href="group__datatypes__iterable__operate.html#ga5edb69d3d9e3650e943ff8d010a43f07" target="_top" xlink:title="Count all occurrences of a match value in an iterable value.">
<polygon fill="white" stroke="black" points="177.5,-456.5 177.5,-475.5 221.5,-475.5 221.5,-456.5 177.5,-456.5"/>
<text text-anchor="middle" x="199.5" y="-463.5" font-family="Helvetica,sans-Serif" font-size="10.00">count</text>
</a>
</g>
</g>
<!-- Node1&#45;&gt;Node4 -->
<g id="edge3" class="edge">
<title>Node1&#45;&gt;Node4</title>
<path fill="none" stroke="midnightblue" d="M60.15,-342.76C72.63,-363.59 104.53,-412.85 143,-442 150.48,-447.67 159.5,-452.3 168.07,-455.93"/>
<polygon fill="midnightblue" stroke="midnightblue" points="166.87,-459.22 177.46,-459.61 169.42,-452.7 166.87,-459.22"/>
</g>
<!-- Node5 -->
<g id="node5" class="node">
<title>Node5</title>
<g id="a_node5"><a xlink:href="group__datatypes__iterable__operate.html#ga3d37c2b0067d1661724bd89955c8f6ce" target="_top" xlink:title="Returns an element from an iterable if it exists, or a default value if not.">
<polygon fill="white" stroke="black" points="437,-304.5 437,-323.5 516,-323.5 516,-304.5 437,-304.5"/>
<text text-anchor="middle" x="476.5" y="-311.5" font-family="Helvetica,sans-Serif" font-size="10.00">defined_e_or</text>
</a>
</g>
</g>
<!-- Node1&#45;&gt;Node5 -->
<g id="edge4" class="edge">
<title>Node1&#45;&gt;Node5</title>
<path fill="none" stroke="midnightblue" d="M107.39,-330.61C189.61,-326.9 346.88,-319.8 426.59,-316.21"/>
<polygon fill="midnightblue" stroke="midnightblue" points="427.02,-319.69 436.85,-315.74 426.7,-312.7 427.02,-319.69"/>
</g>
<!-- Node6 -->
<g id="node6" class="node">
<title>Node6</title>
<g id="a_node6"><a xlink:href="group__transforms__base__cs.html#ga3900ae7c9ca268f0224a65f56387059f" target="_top" xlink:title="Conditionally apply the difference boolean operation.">
<polygon fill="white" stroke="black" points="159,-532.5 159,-551.5 240,-551.5 240,-532.5 159,-532.5"/>
<text text-anchor="middle" x="199.5" y="-539.5" font-family="Helvetica,sans-Serif" font-size="10.00">difference_cs</text>
</a>
</g>
</g>
<!-- Node1&#45;&gt;Node6 -->
<g id="edge5" class="edge">
<title>Node1&#45;&gt;Node6</title>
<path fill="none" stroke="midnightblue" d="M56.27,-342.89C62.37,-374.06 85.37,-471.18 143,-523 145.17,-524.95 147.54,-526.7 150.05,-528.27"/>
<polygon fill="midnightblue" stroke="midnightblue" points="148.51,-531.41 158.99,-532.95 151.76,-525.21 148.51,-531.41"/>
</g>
<!-- Node7 -->
<g id="node7" class="node">
<title>Node7</title>
<g id="a_node7"><a xlink:href="group__datatypes__scalar__test.html#ga51d7fdb800c10f4b7479d23b89ab8d22" target="_top" xlink:title="Test if a value is defined.">
<polygon fill="white" stroke="black" points="313.5,-532.5 313.5,-551.5 379.5,-551.5 379.5,-532.5 313.5,-532.5"/>
<text text-anchor="middle" x="346.5" y="-539.5" font-family="Helvetica,sans-Serif" font-size="10.00">is_defined</text>
</a>
</g>
</g>
<!-- Node1&#45;&gt;Node7 -->
<g id="edge24" class="edge">
<title>Node1&#45;&gt;Node7</title>
<path fill="none" stroke="midnightblue" d="M63.15,-342.51C78.03,-358.36 110.08,-390.28 143,-409 189.06,-435.19 216.39,-411.81 256,-447 283.94,-471.82 264.27,-497.94 292,-523 295.56,-526.22 299.7,-528.9 304.07,-531.13"/>
<polygon fill="midnightblue" stroke="midnightblue" points="302.69,-534.35 313.26,-535.11 305.48,-527.92 302.69,-534.35"/>
</g>
<!-- Node8 -->
<g id="node8" class="node">
<title>Node8</title>
<g id="a_node8"><a xlink:href="group__transforms__extrude.html#ga45661244067bf945b684550c3263ee45" target="_top" xlink:title="Linearly extrude a 2d shape with multi&#45;segment uniformly&#45;spaced profile scaling.">
<polygon fill="white" stroke="black" points="143,-342.5 143,-361.5 256,-361.5 256,-342.5 143,-342.5"/>
<text text-anchor="middle" x="199.5" y="-349.5" font-family="Helvetica,sans-Serif" font-size="10.00">extrude_linear_mss</text>
</a>
</g>
</g>
<!-- Node1&#45;&gt;Node8 -->
<g id="edge7" class="edge">
<title>Node1&#45;&gt;Node8</title>
<path fill="none" stroke="midnightblue" d="M107.3,-339.97C115.61,-341.06 124.29,-342.21 132.84,-343.34"/>
<polygon fill="midnightblue" stroke="midnightblue" points="132.43,-346.81 142.8,-344.65 133.34,-339.87 132.43,-346.81"/>
</g>
<!-- Node14 -->
<g id="node14" class="node">
<title>Node14</title>
<g id="a_node14"><a xlink:href="group__transforms__extrude.html#ga2cbff19d3b793918b99aae3b56d37dfa" target="_top" xlink:title="Translate, rotate, scale, and revolve a 2d shape about the z&#45;axis.">
<polygon fill="white" stroke="black" points="146,-266.5 146,-285.5 253,-285.5 253,-266.5 146,-266.5"/>
<text text-anchor="middle" x="199.5" y="-273.5" font-family="Helvetica,sans-Serif" font-size="10.00">extrude_rotate_trs</text>
</a>
</g>
</g>
<!-- Node1&#45;&gt;Node14 -->
<g id="edge16" class="edge">
<title>Node1&#45;&gt;Node14</title>
<path fill="none" stroke="midnightblue" d="M78.6,-323.46C102.17,-314.13 138.28,-299.84 164.71,-289.38"/>
<polygon fill="midnightblue" stroke="midnightblue" points="166.31,-292.51 174.32,-285.57 163.73,-286 166.31,-292.51"/>
</g>
<!-- Node17 -->
<g id="node17" class="node">
<title>Node17</title>
<g id="a_node17"><a xlink:href="group__datatypes__scalar__test.html#ga30fa967b5bef4eeaf6afc6a9ae94d428" target="_top" xlink:title="Test if a numerical value is between an upper and lower bounds.">
<polygon fill="white" stroke="black" points="163.5,-228.5 163.5,-247.5 235.5,-247.5 235.5,-228.5 163.5,-228.5"/>
<text text-anchor="middle" x="199.5" y="-235.5" font-family="Helvetica,sans-Serif" font-size="10.00">is_between</text>
</a>
</g>
</g>
<!-- Node1&#45;&gt;Node17 -->
<g id="edge23" class="edge">
<title>Node1&#45;&gt;Node17</title>
<path fill="none" stroke="midnightblue" d="M63.4,-323.26C78.4,-307.35 110.3,-275.71 143,-257 146.63,-254.92 150.52,-253.02 154.5,-251.3"/>
<polygon fill="midnightblue" stroke="midnightblue" points="155.85,-254.53 163.86,-247.59 153.27,-248.02 155.85,-254.53"/>
</g>
<!-- Node18 -->
<g id="node18" class="node">
<title>Node18</title>
<g id="a_node18"><a xlink:href="group__transforms__repeat.html#ga8da1e3a852a1b25ba93437a6fe46745f" target="_top" xlink:title="Radially repeat copies of child objects about a z&#45;axis radius.">
<polygon fill="white" stroke="black" points="159,-38.5 159,-57.5 240,-57.5 240,-38.5 159,-38.5"/>
<text text-anchor="middle" x="199.5" y="-45.5" font-family="Helvetica,sans-Serif" font-size="10.00">repeat_radial</text>
</a>
</g>
</g>
<!-- Node1&#45;&gt;Node18 -->
<g id="edge25" class="edge">
<title>Node1&#45;&gt;Node18</title>
<path fill="none" stroke="midnightblue" d="M54.77,-323.47C56.39,-285.48 67.44,-143.21 143,-67 145.08,-64.9 147.41,-63.03 149.9,-61.37"/>
<polygon fill="midnightblue" stroke="midnightblue" points="151.75,-64.34 158.85,-56.47 148.39,-58.2 151.75,-64.34"/>
</g>
<!-- Node21 -->
<g id="node21" class="node">
<title>Node21</title>
<g id="a_node21"><a xlink:href="group__datatypes__list__operate.html#ga7b8e6f2bbfa72ae61e39377e5ca6b5be" target="_top" xlink:title="Select specified element from list or return a default.">
<polygon fill="white" stroke="black" points="170,-76.5 170,-95.5 229,-95.5 229,-76.5 170,-76.5"/>
<text text-anchor="middle" x="199.5" y="-83.5" font-family="Helvetica,sans-Serif" font-size="10.00">select_ci</text>
</a>
</g>
</g>
<!-- Node1&#45;&gt;Node21 -->
<g id="edge29" class="edge">
<title>Node1&#45;&gt;Node21</title>
<path fill="none" stroke="midnightblue" d="M55.72,-323.1C60.42,-288.94 80.35,-174.58 143,-110 147.91,-104.94 154.07,-100.88 160.48,-97.65"/>
<polygon fill="midnightblue" stroke="midnightblue" points="162.19,-100.72 169.93,-93.48 159.37,-94.31 162.19,-100.72"/>
</g>
<!-- Node22 -->
<g id="node22" class="node">
<title>Node22</title>
<g id="a_node22"><a xlink:href="group__transforms__base__cs.html#ga69935df4a2195011bf7f4a7499de1128" target="_top" xlink:title="Conditionally apply the union boolean operation.">
<polygon fill="white" stroke="black" points="170,-380.5 170,-399.5 229,-399.5 229,-380.5 170,-380.5"/>
<text text-anchor="middle" x="199.5" y="-387.5" font-family="Helvetica,sans-Serif" font-size="10.00">union_cs</text>
</a>
</g>
</g>
<!-- Node1&#45;&gt;Node22 -->
<g id="edge30" class="edge">
<title>Node1&#45;&gt;Node22</title>
<path fill="none" stroke="midnightblue" d="M75.42,-342.51C93.23,-350.49 119.59,-361.98 143,-371 148.54,-373.13 154.44,-375.28 160.24,-377.33"/>
<polygon fill="midnightblue" stroke="midnightblue" points="159.24,-380.68 169.83,-380.65 161.53,-374.07 159.24,-380.68"/>
</g>
<!-- Node6&#45;&gt;Node7 -->
<g id="edge6" class="edge">
<title>Node6&#45;&gt;Node7</title>
<path fill="none" stroke="midnightblue" d="M240.12,-542C259.69,-542 283.3,-542 303.22,-542"/>
<polygon fill="midnightblue" stroke="midnightblue" points="303.25,-545.5 313.25,-542 303.25,-538.5 303.25,-545.5"/>
</g>
<!-- Node9 -->
<g id="node9" class="node">
<title>Node9</title>
<g id="a_node9"><a xlink:href="group__transforms__extrude.html#gab2442cfaf1ad44d6e295ab0979d9e03d" target="_top" xlink:title="Linearly extrude a 2d shape with uniformly&#45;spaced profile scaling.">
<polygon fill="white" stroke="black" points="292,-380.5 292,-399.5 401,-399.5 401,-380.5 292,-380.5"/>
<text text-anchor="middle" x="346.5" y="-387.5" font-family="Helvetica,sans-Serif" font-size="10.00">extrude_linear_uss</text>
</a>
</g>
</g>
<!-- Node8&#45;&gt;Node9 -->
<g id="edge8" class="edge">
<title>Node8&#45;&gt;Node9</title>
<path fill="none" stroke="midnightblue" d="M237.09,-361.59C255.97,-366.54 279.19,-372.62 299.29,-377.89"/>
<polygon fill="midnightblue" stroke="midnightblue" points="298.61,-381.33 309.17,-380.48 300.39,-374.56 298.61,-381.33"/>
</g>
<!-- Node10 -->
<g id="node10" class="node">
<title>Node10</title>
<g id="a_node10"><a xlink:href="group__datatypes__iterable__operate.html#gaccab3e37e43cb1d882713b3f3d6d9e1b" target="_top" xlink:title="Return the first element of an iterable value.">
<polygon fill="white" stroke="black" points="459,-342.5 459,-361.5 494,-361.5 494,-342.5 459,-342.5"/>
<text text-anchor="middle" x="476.5" y="-349.5" font-family="Helvetica,sans-Serif" font-size="10.00">first</text>
</a>
</g>
</g>
<!-- Node8&#45;&gt;Node10 -->
<g id="edge13" class="edge">
<title>Node8&#45;&gt;Node10</title>
<path fill="none" stroke="midnightblue" d="M256.15,-352C314.6,-352 404.08,-352 448.52,-352"/>
<polygon fill="midnightblue" stroke="midnightblue" points="448.8,-355.5 458.8,-352 448.8,-348.5 448.8,-355.5"/>
</g>
<!-- Node11 -->
<g id="node11" class="node">
<title>Node11</title>
<g id="a_node11"><a xlink:href="group__datatypes__scalar__test.html#ga258e8911375d30ff85a6e52df01dc1c5" target="_top" xlink:title="Test if a value is a single non&#45;iterable value.">
<polygon fill="white" stroke="black" points="447,-418.5 447,-437.5 506,-437.5 506,-418.5 447,-418.5"/>
<text text-anchor="middle" x="476.5" y="-425.5" font-family="Helvetica,sans-Serif" font-size="10.00">is_scalar</text>
</a>
</g>
</g>
<!-- Node8&#45;&gt;Node11 -->
<g id="edge14" class="edge">
<title>Node8&#45;&gt;Node11</title>
<path fill="none" stroke="midnightblue" d="M240.74,-361.56C246.26,-364.03 251.54,-367.12 256,-371 282.7,-394.21 261.85,-423.48 292,-442 338.49,-470.55 404.59,-454.79 443.47,-441.12"/>
<polygon fill="midnightblue" stroke="midnightblue" points="445.02,-444.28 453.2,-437.54 442.61,-437.71 445.02,-444.28"/>
</g>
<!-- Node13 -->
<g id="node13" class="node">
<title>Node13</title>
<g id="a_node13"><a xlink:href="group__datatypes__list__operate.html#gae12565005038993506dc37249e32766d" target="_top" xlink:title="Compute the sum of a list of numbers.">
<polygon fill="white" stroke="black" points="327.5,-494.5 327.5,-513.5 365.5,-513.5 365.5,-494.5 327.5,-494.5"/>
<text text-anchor="middle" x="346.5" y="-501.5" font-family="Helvetica,sans-Serif" font-size="10.00">sum</text>
</a>
</g>
</g>
<!-- Node8&#45;&gt;Node13 -->
<g id="edge15" class="edge">
<title>Node8&#45;&gt;Node13</title>
<path fill="none" stroke="midnightblue" d="M242.41,-361.52C247.43,-363.98 252.13,-367.09 256,-371 291.88,-407.27 257.82,-442.12 292,-480 298.81,-487.55 308.45,-492.86 317.67,-496.53"/>
<polygon fill="midnightblue" stroke="midnightblue" points="316.77,-499.92 327.37,-499.9 319.07,-493.31 316.77,-499.92"/>
</g>
<!-- Node9&#45;&gt;Node5 -->
<g id="edge9" class="edge">
<title>Node9&#45;&gt;Node5</title>
<path fill="none" stroke="midnightblue" d="M361.47,-380.43C378.84,-368.69 409.55,-348.45 437,-333 439.86,-331.39 442.87,-329.77 445.9,-328.2"/>
<polygon fill="midnightblue" stroke="midnightblue" points="447.56,-331.28 454.9,-323.65 444.4,-325.04 447.56,-331.28"/>
</g>
<!-- Node9&#45;&gt;Node10 -->
<g id="edge10" class="edge">
<title>Node9&#45;&gt;Node10</title>
<path fill="none" stroke="midnightblue" d="M379.8,-380.41C401.24,-374.05 429.04,-365.79 449.14,-359.82"/>
<polygon fill="midnightblue" stroke="midnightblue" points="450.29,-363.14 458.88,-356.93 448.3,-356.42 450.29,-363.14"/>
</g>
<!-- Node9&#45;&gt;Node11 -->
<g id="edge11" class="edge">
<title>Node9&#45;&gt;Node11</title>
<path fill="none" stroke="midnightblue" d="M379.8,-399.59C397.17,-404.75 418.71,-411.14 436.96,-416.56"/>
<polygon fill="midnightblue" stroke="midnightblue" points="436.12,-419.96 446.7,-419.45 438.11,-413.25 436.12,-419.96"/>
</g>
<!-- Node12 -->
<g id="node12" class="node">
<title>Node12</title>
<g id="a_node12"><a xlink:href="group__datatypes__iterable__operate.html#ga894d4bec62cc9cf38d5e099de3028c54" target="_top" xlink:title="Return the second element of an iterable value.">
<polygon fill="white" stroke="black" points="451,-380.5 451,-399.5 502,-399.5 502,-380.5 451,-380.5"/>
<text text-anchor="middle" x="476.5" y="-387.5" font-family="Helvetica,sans-Serif" font-size="10.00">second</text>
</a>
</g>
</g>
<!-- Node9&#45;&gt;Node12 -->
<g id="edge12" class="edge">
<title>Node9&#45;&gt;Node12</title>
<path fill="none" stroke="midnightblue" d="M401.04,-390C414.39,-390 428.37,-390 440.56,-390"/>
<polygon fill="midnightblue" stroke="midnightblue" points="440.75,-393.5 450.75,-390 440.75,-386.5 440.75,-393.5"/>
</g>
<!-- Node14&#45;&gt;Node2 -->
<g id="edge17" class="edge">
<title>Node14&#45;&gt;Node2</title>
<path fill="none" stroke="midnightblue" d="M231.05,-266.45C239.25,-263.65 248.04,-260.41 256,-257 328.55,-225.95 410.05,-180.73 450.26,-157.69"/>
<polygon fill="midnightblue" stroke="midnightblue" points="452.19,-160.62 459.11,-152.59 448.7,-154.55 452.19,-160.62"/>
</g>
<!-- Node14&#45;&gt;Node5 -->
<g id="edge18" class="edge">
<title>Node14&#45;&gt;Node5</title>
<path fill="none" stroke="midnightblue" d="M227.92,-266.43C267.31,-254.21 341.72,-236.92 401,-257 424.21,-264.86 445.87,-283.17 459.79,-296.93"/>
<polygon fill="midnightblue" stroke="midnightblue" points="457.56,-299.66 467.04,-304.4 462.58,-294.79 457.56,-299.66"/>
</g>
<!-- Node14&#45;&gt;Node11 -->
<g id="edge22" class="edge">
<title>Node14&#45;&gt;Node11</title>
<path fill="none" stroke="midnightblue" d="M211.84,-285.59C223.93,-296.24 243.08,-314.4 256,-333 277.33,-363.69 261.49,-387.41 292,-409 334.36,-438.97 396.6,-438.62 436.59,-434.32"/>
<polygon fill="midnightblue" stroke="midnightblue" points="437.24,-437.76 446.75,-433.09 436.4,-430.81 437.24,-437.76"/>
</g>
<!-- Node15 -->
<g id="node15" class="node">
<title>Node15</title>
<g id="a_node15"><a xlink:href="group__transforms__extrude.html#ga31947e37a3512d9814d47f8f8c960f84" target="_top" xlink:title="Translate, rotate, and revolve a 2d shape about the z&#45;axis.">
<polygon fill="white" stroke="black" points="296,-152.5 296,-171.5 397,-171.5 397,-152.5 296,-152.5"/>
<text text-anchor="middle" x="346.5" y="-159.5" font-family="Helvetica,sans-Serif" font-size="10.00">extrude_rotate_tr</text>
</a>
</g>
</g>
<!-- Node14&#45;&gt;Node15 -->
<g id="edge19" class="edge">
<title>Node14&#45;&gt;Node15</title>
<path fill="none" stroke="midnightblue" d="M240.74,-266.44C246.26,-263.97 251.54,-260.88 256,-257 282.7,-233.79 266.39,-210.42 292,-186 296.01,-182.18 300.72,-178.9 305.67,-176.1"/>
<polygon fill="midnightblue" stroke="midnightblue" points="307.34,-179.18 314.72,-171.58 304.21,-172.92 307.34,-179.18"/>
</g>
<!-- Node16 -->
<g id="node16" class="node">
<title>Node16</title>
<g id="a_node16"><a xlink:href="group__math__utility.html#ga26fadb1879c636fcf701192f2216282a" target="_top" xlink:title="Return facets number for the given arc radius.">
<polygon fill="white" stroke="black" points="323,-266.5 323,-285.5 370,-285.5 370,-266.5 323,-266.5"/>
<text text-anchor="middle" x="346.5" y="-273.5" font-family="Helvetica,sans-Serif" font-size="10.00">get_fn</text>
</a>
</g>
</g>
<!-- Node14&#45;&gt;Node16 -->
<g id="edge21" class="edge">
<title>Node14&#45;&gt;Node16</title>
<path fill="none" stroke="midnightblue" d="M253.26,-276C273.11,-276 295.09,-276 312.62,-276"/>
<polygon fill="midnightblue" stroke="midnightblue" points="312.9,-279.5 322.9,-276 312.9,-272.5 312.9,-279.5"/>
</g>
<!-- Node15&#45;&gt;Node2 -->
<g id="edge20" class="edge">
<title>Node15&#45;&gt;Node2</title>
<path fill="none" stroke="midnightblue" d="M397.35,-154.6C413.13,-152.26 430.11,-149.74 444.2,-147.65"/>
<polygon fill="midnightblue" stroke="midnightblue" points="444.97,-151.07 454.34,-146.14 443.94,-144.15 444.97,-151.07"/>
</g>
<!-- Node18&#45;&gt;Node2 -->
<g id="edge26" class="edge">
<title>Node18&#45;&gt;Node2</title>
<path fill="none" stroke="midnightblue" d="M235.69,-57.53C276.06,-68.77 344.02,-88.65 401,-110 416.14,-115.67 432.6,-122.85 446.2,-129.07"/>
<polygon fill="midnightblue" stroke="midnightblue" points="444.98,-132.36 455.53,-133.39 447.92,-126.01 444.98,-132.36"/>
</g>
<!-- Node19 -->
<g id="node19" class="node">
<title>Node19</title>
<g id="a_node19"><a xlink:href="group__datatypes__euclidean.html#ga3d5c07c70f271bcf9144f50ce8620a89" target="_top" xlink:title="Compute the angle between two lines or vectors in a 3d or 2d&#45;space.">
<polygon fill="white" stroke="black" points="319,-38.5 319,-57.5 374,-57.5 374,-38.5 319,-38.5"/>
<text text-anchor="middle" x="346.5" y="-45.5" font-family="Helvetica,sans-Serif" font-size="10.00">angle_ll</text>
</a>
</g>
</g>
<!-- Node18&#45;&gt;Node19 -->
<g id="edge27" class="edge">
<title>Node18&#45;&gt;Node19</title>
<path fill="none" stroke="midnightblue" d="M240.12,-48C261.5,-48 287.71,-48 308.65,-48"/>
<polygon fill="midnightblue" stroke="midnightblue" points="308.76,-51.5 318.76,-48 308.76,-44.5 308.76,-51.5"/>
</g>
<!-- Node20 -->
<g id="node20" class="node">
<title>Node20</title>
<g id="a_node20"><a xlink:href="group__math__polygon.html#ga8c717f95615525c0b53693ba1f5fdb69" target="_top" xlink:title="Compute coordinates for an n&#45;sided regular polygon in 2D.">
<polygon fill="white" stroke="black" points="293,-0.5 293,-19.5 400,-19.5 400,-0.5 293,-0.5"/>
<text text-anchor="middle" x="346.5" y="-7.5" font-family="Helvetica,sans-Serif" font-size="10.00">polygon_regular_p</text>
</a>
</g>
</g>
<!-- Node18&#45;&gt;Node20 -->
<g id="edge28" class="edge">
<title>Node18&#45;&gt;Node20</title>
<path fill="none" stroke="midnightblue" d="M237.09,-38.41C255.97,-33.46 279.19,-27.38 299.29,-22.11"/>
<polygon fill="midnightblue" stroke="midnightblue" points="300.39,-25.44 309.17,-19.52 298.61,-18.67 300.39,-25.44"/>
</g>
<!-- Node22&#45;&gt;Node7 -->
<g id="edge31" class="edge">
<title>Node22&#45;&gt;Node7</title>
<path fill="none" stroke="midnightblue" d="M229.03,-397.14C238.7,-400.79 248.84,-406.18 256,-414 290.43,-451.65 256.33,-486.53 292,-523 295.44,-526.51 299.57,-529.38 303.99,-531.72"/>
<polygon fill="midnightblue" stroke="midnightblue" points="302.78,-535.01 313.34,-535.81 305.58,-528.6 302.78,-535.01"/>
</g>
</g>
</svg>
