<?xml version="1.0" encoding="UTF-8" standalone="no"?>
<!DOCTYPE svg PUBLIC "-//W3C//DTD SVG 1.1//EN"
 "http://www.w3.org/Graphics/SVG/1.1/DTD/svg11.dtd">
<!-- Generated by graphviz version 2.43.0 (0)
 -->
<!-- Title: third Pages: 1 -->
<svg width="358pt" height="289pt"
 viewBox="0.00 0.00 358.00 289.15" xmlns="http://www.w3.org/2000/svg" xmlns:xlink="http://www.w3.org/1999/xlink">
<g id="graph0" class="graph" transform="scale(1 1) rotate(0) translate(4 285.15)">
<title>third</title>
<polygon fill="white" stroke="transparent" points="-4,4 -4,-285.15 354,-285.15 354,4 -4,4"/>
<!-- Node1 -->
<g id="node1" class="node">
<title>Node1</title>
<g id="a_node1"><a xlink:title="Return the third element of an iterable value.">
<polygon fill="#bfbfbf" stroke="black" points="311,-128.65 311,-147.65 350,-147.65 350,-128.65 311,-128.65"/>
<text text-anchor="middle" x="330.5" y="-135.65" font-family="Helvetica,sans-Serif" font-size="10.00">third</text>
</a>
</g>
</g>
<!-- Node2 -->
<g id="node2" class="node">
<title>Node2</title>
<g id="a_node2"><a xlink:href="group__parts__3d__fastener__catch__latch.html#ga26a9933aa6d33599daab1be8d632c430" target="_top" xlink:title="A catch latch generator with configurable profile.">
<polygon fill="white" stroke="black" points="165.5,-261.65 165.5,-280.65 237.5,-280.65 237.5,-261.65 165.5,-261.65"/>
<text text-anchor="middle" x="201.5" y="-268.65" font-family="Helvetica,sans-Serif" font-size="10.00">catch_latch</text>
</a>
</g>
</g>
<!-- Node1&#45;&gt;Node2 -->
<g id="edge1" class="edge">
<title>Node1&#45;&gt;Node2</title>
<path fill="none" stroke="midnightblue" d="M325.48,-157.78C319.21,-183.35 304.61,-227.68 275,-252.15 264.57,-260.77 250.65,-265.52 237.79,-268.12"/>
<polygon fill="midnightblue" stroke="midnightblue" points="328.95,-158.31 327.74,-147.78 322.12,-156.76 328.95,-158.31"/>
</g>
<!-- Node3 -->
<g id="node3" class="node">
<title>Node3</title>
<g id="a_node3"><a xlink:href="group__parts__3d__enclosure__enclosure__stand__rectangle.html#gaa6bbb5648edd144f66059f9b31aa2865" target="_top" xlink:title="A stand maker for rectangular project boxes, housings, and enclosures.">
<polygon fill="white" stroke="black" points="128,-223.65 128,-242.65 275,-242.65 275,-223.65 128,-223.65"/>
<text text-anchor="middle" x="201.5" y="-230.65" font-family="Helvetica,sans-Serif" font-size="10.00">enclosure_stand_rectangle</text>
</a>
</g>
</g>
<!-- Node1&#45;&gt;Node3 -->
<g id="edge2" class="edge">
<title>Node1&#45;&gt;Node3</title>
<path fill="none" stroke="midnightblue" d="M320.8,-156.92C311.77,-174.34 296.02,-199.69 275,-214.15 269.32,-218.05 262.88,-221.16 256.25,-223.62"/>
<polygon fill="midnightblue" stroke="midnightblue" points="324.05,-158.24 325.33,-147.72 317.77,-155.15 324.05,-158.24"/>
</g>
<!-- Node4 -->
<g id="node4" class="node">
<title>Node4</title>
<g id="a_node4"><a xlink:href="group__parts__3d__fastener__hinges.html#ga7e350f2c55116094108b99dd8103fc04" target="_top" xlink:title="A print&#45;in&#45;place single&#45;fold hinge generator.">
<polygon fill="white" stroke="black" points="172.5,-185.65 172.5,-204.65 230.5,-204.65 230.5,-185.65 172.5,-185.65"/>
<text text-anchor="middle" x="201.5" y="-192.65" font-family="Helvetica,sans-Serif" font-size="10.00">hinge_sf</text>
</a>
</g>
</g>
<!-- Node1&#45;&gt;Node4 -->
<g id="edge3" class="edge">
<title>Node1&#45;&gt;Node4</title>
<path fill="none" stroke="midnightblue" d="M310.12,-154.18C300.14,-161.76 287.47,-170.39 275,-176.15 261.06,-182.58 244.57,-187.12 230.84,-190.15"/>
<polygon fill="midnightblue" stroke="midnightblue" points="312.42,-156.82 318.12,-147.89 308.09,-151.32 312.42,-156.82"/>
</g>
<!-- Node6 -->
<g id="node6" class="node">
<title>Node6</title>
<g id="a_node6"><a xlink:href="group__parts__3d__fastener__mounts.html#ga0cbac43259ec43fff7785057277bcef3" target="_top" xlink:title="A screw mount post with screw bore and optional fins.">
<polygon fill="white" stroke="black" points="147.5,-147.65 147.5,-166.65 255.5,-166.65 255.5,-147.65 147.5,-147.65"/>
<text text-anchor="middle" x="201.5" y="-154.65" font-family="Helvetica,sans-Serif" font-size="10.00">mount_screw_post</text>
</a>
</g>
</g>
<!-- Node1&#45;&gt;Node6 -->
<g id="edge5" class="edge">
<title>Node1&#45;&gt;Node6</title>
<path fill="none" stroke="midnightblue" d="M300.77,-142.44C287.43,-144.44 271.12,-146.88 255.66,-149.19"/>
<polygon fill="midnightblue" stroke="midnightblue" points="301.39,-145.89 310.76,-140.95 300.35,-138.97 301.39,-145.89"/>
</g>
<!-- Node7 -->
<g id="node7" class="node">
<title>Node7</title>
<g id="a_node7"><a xlink:href="group__models__3d__misc__omdl__logo.html#gab176f64dad7e83d4fb056be44b71f630" target="_top" xlink:title="Standard omdl logo.">
<polygon fill="white" stroke="black" points="167.5,-109.65 167.5,-128.65 235.5,-128.65 235.5,-109.65 167.5,-109.65"/>
<text text-anchor="middle" x="201.5" y="-116.65" font-family="Helvetica,sans-Serif" font-size="10.00">omdl_logo</text>
</a>
</g>
</g>
<!-- Node1&#45;&gt;Node7 -->
<g id="edge6" class="edge">
<title>Node1&#45;&gt;Node7</title>
<path fill="none" stroke="midnightblue" d="M300.72,-133.84C281.38,-130.95 255.82,-127.12 235.62,-124.1"/>
<polygon fill="midnightblue" stroke="midnightblue" points="300.35,-137.32 310.76,-135.34 301.39,-130.4 300.35,-137.32"/>
</g>
<!-- Node8 -->
<g id="node8" class="node">
<title>Node8</title>
<g id="a_node8"><a xlink:href="group__parts__3d__enclosure__power__strip.html#ga33509a1811b27fe7f3687957d4d32460" target="_top" xlink:title="A power strip generator for single gang electrical receptacles.">
<polygon fill="white" stroke="black" points="1,-71.65 1,-90.65 91,-90.65 91,-71.65 1,-71.65"/>
<text text-anchor="middle" x="46" y="-78.65" font-family="Helvetica,sans-Serif" font-size="10.00">power_strip_sg</text>
</a>
</g>
</g>
<!-- Node1&#45;&gt;Node8 -->
<g id="edge9" class="edge">
<title>Node1&#45;&gt;Node8</title>
<path fill="none" stroke="midnightblue" d="M311.27,-121.77C301.28,-113.8 288.26,-104.93 275,-100.15 214.09,-78.19 138.31,-76.49 91.29,-78.15"/>
<polygon fill="midnightblue" stroke="midnightblue" points="309.28,-124.68 319.19,-128.42 313.78,-119.31 309.28,-124.68"/>
</g>
<!-- Node9 -->
<g id="node9" class="node">
<title>Node9</title>
<g id="a_node9"><a xlink:href="group__parts__3d__computer__pcie__expansion.html#gab6fb1c9f8f6550633467f4ec0bd3f983" target="_top" xlink:title="Generate a PCI Express expansion open chassis or closed enclosure.">
<polygon fill="white" stroke="black" points="0,-14.65 0,-33.65 92,-33.65 92,-14.65 0,-14.65"/>
<text text-anchor="middle" x="46" y="-21.65" font-family="Helvetica,sans-Serif" font-size="10.00">pcie_expansion</text>
</a>
</g>
</g>
<!-- Node1&#45;&gt;Node9 -->
<g id="edge8" class="edge">
<title>Node1&#45;&gt;Node9</title>
<path fill="none" stroke="midnightblue" d="M326.57,-118.48C321.42,-91.75 307.96,-44.92 275,-24.15 213.89,14.38 124.04,-2.03 77.48,-14.62"/>
<polygon fill="midnightblue" stroke="midnightblue" points="323.16,-119.3 328.3,-128.56 330.06,-118.12 323.16,-119.3"/>
</g>
<!-- Node10 -->
<g id="node10" class="node">
<title>Node10</title>
<g id="a_node10"><a xlink:href="group__parts__3d__enclosure__project__box__rectangle.html#ga24cdfe5fd4bb74b75409d9afdbe1f0c0" target="_top" xlink:title="A rectangular box maker for project boxes, enclosures and housings.">
<polygon fill="white" stroke="black" points="139,-33.65 139,-52.65 264,-52.65 264,-33.65 139,-33.65"/>
<text text-anchor="middle" x="201.5" y="-40.65" font-family="Helvetica,sans-Serif" font-size="10.00">project_box_rectangle</text>
</a>
</g>
</g>
<!-- Node1&#45;&gt;Node10 -->
<g id="edge10" class="edge">
<title>Node1&#45;&gt;Node10</title>
<path fill="none" stroke="midnightblue" d="M319.43,-119.41C309.93,-103.4 294.3,-80.86 275,-67.15 266.25,-60.92 255.77,-56.24 245.55,-52.74"/>
<polygon fill="midnightblue" stroke="midnightblue" points="316.54,-121.42 324.52,-128.39 322.63,-117.96 316.54,-121.42"/>
</g>
<!-- Node5 -->
<g id="node5" class="node">
<title>Node5</title>
<g id="a_node5"><a xlink:href="group__parts__3d__fastener__hinges.html#ga1ffc82e0bbac466d1dc4fbe6c214b765" target="_top" xlink:title="A print&#45;in&#45;place bi&#45;fold hinge generator.">
<polygon fill="white" stroke="black" points="16.5,-185.65 16.5,-204.65 75.5,-204.65 75.5,-185.65 16.5,-185.65"/>
<text text-anchor="middle" x="46" y="-192.65" font-family="Helvetica,sans-Serif" font-size="10.00">hinge_bf</text>
</a>
</g>
</g>
<!-- Node4&#45;&gt;Node5 -->
<g id="edge4" class="edge">
<title>Node4&#45;&gt;Node5</title>
<path fill="none" stroke="midnightblue" d="M162.17,-195.15C135.37,-195.15 100.16,-195.15 75.76,-195.15"/>
<polygon fill="midnightblue" stroke="midnightblue" points="162.35,-198.65 172.35,-195.15 162.35,-191.65 162.35,-198.65"/>
</g>
<!-- Node7&#45;&gt;Node8 -->
<g id="edge7" class="edge">
<title>Node7&#45;&gt;Node8</title>
<path fill="none" stroke="midnightblue" d="M157.19,-108.42C134.6,-102.83 107.21,-96.05 85.38,-90.65"/>
<polygon fill="midnightblue" stroke="midnightblue" points="156.64,-111.89 167.19,-110.9 158.33,-105.1 156.64,-111.89"/>
</g>
<!-- Node10&#45;&gt;Node8 -->
<g id="edge12" class="edge">
<title>Node10&#45;&gt;Node8</title>
<path fill="none" stroke="midnightblue" d="M151.86,-55.19C130.42,-60.49 105.58,-66.64 85.46,-71.63"/>
<polygon fill="midnightblue" stroke="midnightblue" points="152.9,-58.54 161.77,-52.73 151.22,-51.74 152.9,-58.54"/>
</g>
<!-- Node10&#45;&gt;Node9 -->
<g id="edge11" class="edge">
<title>Node10&#45;&gt;Node9</title>
<path fill="none" stroke="midnightblue" d="M128.94,-34.29C116.37,-32.73 103.61,-31.15 92.02,-29.72"/>
<polygon fill="midnightblue" stroke="midnightblue" points="128.6,-37.77 138.95,-35.53 129.46,-30.83 128.6,-37.77"/>
</g>
</g>
</svg>
