<?xml version="1.0" encoding="UTF-8" standalone="no"?>
<!DOCTYPE svg PUBLIC "-//W3C//DTD SVG 1.1//EN"
 "http://www.w3.org/Graphics/SVG/1.1/DTD/svg11.dtd">
<!-- Generated by graphviz version 2.43.0 (0)
 -->
<!-- Title: ISO 4762 Pages: 1 -->
<svg width="320pt" height="29pt"
 viewBox="0.00 0.00 320.00 28.50" xmlns="http://www.w3.org/2000/svg" xmlns:xlink="http://www.w3.org/1999/xlink">
<g id="graph0" class="graph" transform="scale(1 1) rotate(0) translate(4 24.5)">
<title>ISO 4762</title>
<polygon fill="white" stroke="transparent" points="-4,4 -4,-24.5 316,-24.5 316,4 -4,4"/>
<!-- Node2 -->
<g id="node1" class="node">
<title>Node2</title>
<g id="a_node1"><a xlink:href="group__database__component__fastener__Metric__Screws.html" target="_top" xlink:title=" ">
<polygon fill="white" stroke="black" points="51,-19 0,-19 0,0 51,0 51,-19"/>
<text text-anchor="middle" x="25.5" y="-7" font-family="Helvetica,sans-Serif" font-size="10.00">Screws</text>
</a>
</g>
</g>
<!-- Node1 -->
<g id="node3" class="node">
<title>Node1</title>
<g id="a_node3"><a xlink:title="[metric/screws] Socket cap screws; ISO 4762; DIN 912.">
<polygon fill="#bfbfbf" stroke="black" points="148,-19 88,-19 88,0 148,0 148,-19"/>
<text text-anchor="middle" x="118" y="-7" font-family="Helvetica,sans-Serif" font-size="10.00">ISO 4762</text>
</a>
</g>
</g>
<!-- Node2&#45;&gt;Node1 -->
<g id="edge1" class="edge">
<title>Node2&#45;&gt;Node1</title>
<path fill="none" stroke="black" d="M61.48,-9.5C70.18,-9.5 79.42,-9.5 87.8,-9.5"/>
<polygon fill="black" stroke="black" points="61.23,-6 51.23,-9.5 61.23,-13 61.23,-6"/>
</g>
<!-- Node3 -->
<g id="node2" class="node">
<title>Node3</title>
<g id="a_node2"><a xlink:href="group__database__component__fastener.html" target="_top" xlink:title="Mechanical fastener specifications.">
<polygon fill="white" stroke="black" points="312,-19 254,-19 254,0 312,0 312,-19"/>
<text text-anchor="middle" x="283" y="-7" font-family="Helvetica,sans-Serif" font-size="10.00">Fastener</text>
</a>
</g>
</g>
<!-- Node1&#45;&gt;Node3 -->
<g id="edge2" class="edge">
<title>Node1&#45;&gt;Node3</title>
<path fill="none" stroke="darkgreen" stroke-dasharray="5,2" d="M148.14,-9.5C178.08,-9.5 224.38,-9.5 253.93,-9.5"/>
<text text-anchor="middle" x="201" y="-12.5" font-family="Helvetica,sans-Serif" font-size="10.00">iso_4762.scad</text>
</g>
</g>
</svg>
