<?xml version="1.0" encoding="UTF-8" standalone="no"?>
<!DOCTYPE svg PUBLIC "-//W3C//DTD SVG 1.1//EN"
 "http://www.w3.org/Graphics/SVG/1.1/DTD/svg11.dtd">
<!-- Generated by graphviz version 2.43.0 (0)
 -->
<!-- Title: 2d Models Pages: 1 -->
<svg width="237pt" height="27pt"
 viewBox="0.00 0.00 237.00 27.00" xmlns="http://www.w3.org/2000/svg" xmlns:xlink="http://www.w3.org/1999/xlink">
<g id="graph0" class="graph" transform="scale(1 1) rotate(0) translate(4 23)">
<title>2d Models</title>
<polygon fill="white" stroke="transparent" points="-4,4 -4,-23 233,-23 233,4 -4,4"/>
<!-- Node3 -->
<g id="node1" class="node">
<title>Node3</title>
<g id="a_node1"><a xlink:href="group__models__2d__joint.html" target="_top" xlink:title="Models for connecting 2d planar members.">
<polygon fill="white" stroke="black" points="229,-19 191,-19 191,0 229,0 229,-19"/>
<text text-anchor="middle" x="210" y="-7" font-family="Helvetica,sans-Serif" font-size="10.00">Joint</text>
</a>
</g>
</g>
<!-- Node2 -->
<g id="node2" class="node">
<title>Node2</title>
<g id="a_node2"><a xlink:href="group__models.html" target="_top" xlink:title="Black&#45;box models representing design components.">
<polygon fill="white" stroke="black" points="52,-19 0,-19 0,0 52,0 52,-19"/>
<text text-anchor="middle" x="26" y="-7" font-family="Helvetica,sans-Serif" font-size="10.00">Models</text>
</a>
</g>
</g>
<!-- Node1 -->
<g id="node3" class="node">
<title>Node1</title>
<g id="a_node3"><a xlink:title="2d black&#45;box models of design components.">
<polygon fill="#bfbfbf" stroke="black" points="155,-19 88,-19 88,0 155,0 155,-19"/>
<text text-anchor="middle" x="121.5" y="-7" font-family="Helvetica,sans-Serif" font-size="10.00">2d Models</text>
</a>
</g>
</g>
<!-- Node2&#45;&gt;Node1 -->
<g id="edge1" class="edge">
<title>Node2&#45;&gt;Node1</title>
<path fill="none" stroke="black" d="M62.06,-9.5C70.56,-9.5 79.6,-9.5 87.97,-9.5"/>
<polygon fill="black" stroke="black" points="62.06,-6 52.06,-9.5 62.06,-13 62.06,-6"/>
</g>
<!-- Node1&#45;&gt;Node3 -->
<g id="edge2" class="edge">
<title>Node1&#45;&gt;Node3</title>
<path fill="none" stroke="black" d="M165.27,-9.5C174.27,-9.5 183.3,-9.5 190.8,-9.5"/>
<polygon fill="black" stroke="black" points="165.2,-6 155.2,-9.5 165.2,-13 165.2,-6"/>
</g>
</g>
</svg>
