<?xml version="1.0" encoding="UTF-8" standalone="no"?>
<!DOCTYPE svg PUBLIC "-//W3C//DTD SVG 1.1//EN"
 "http://www.w3.org/Graphics/SVG/1.1/DTD/svg11.dtd">
<!-- Generated by graphviz version 2.43.0 (0)
 -->
<!-- Title: tailn Pages: 1 -->
<svg width="647pt" height="232pt"
 viewBox="0.00 0.00 647.00 231.75" xmlns="http://www.w3.org/2000/svg" xmlns:xlink="http://www.w3.org/1999/xlink">
<g id="graph0" class="graph" transform="scale(1 1) rotate(0) translate(4 227.75)">
<title>tailn</title>
<polygon fill="white" stroke="transparent" points="-4,4 -4,-227.75 643,-227.75 643,4 -4,4"/>
<!-- Node1 -->
<g id="node1" class="node">
<title>Node1</title>
<g id="a_node1"><a xlink:title="Return a list containing all but the first n elements of an iterable value.">
<polygon fill="#bfbfbf" stroke="black" points="601,-95.5 601,-114.5 639,-114.5 639,-95.5 601,-95.5"/>
<text text-anchor="middle" x="620" y="-102.5" font-family="Helvetica,sans-Serif" font-size="10.00">tailn</text>
</a>
</g>
</g>
<!-- Node2 -->
<g id="node2" class="node">
<title>Node2</title>
<g id="a_node2"><a xlink:href="group__parts__2d__enclosure__box__finger__joint.html#gacc1bfb220bc3cfed46dcaa3b84898020" target="_top" xlink:title="Generate a 2D box design using screw&#45;based finger joint (box&#45;joint).">
<polygon fill="white" stroke="black" points="137,-114.5 137,-133.5 244,-133.5 244,-114.5 137,-114.5"/>
<text text-anchor="middle" x="190.5" y="-121.5" font-family="Helvetica,sans-Serif" font-size="10.00">box2d_finger_joint</text>
</a>
</g>
</g>
<!-- Node1&#45;&gt;Node2 -->
<g id="edge1" class="edge">
<title>Node1&#45;&gt;Node2</title>
<path fill="none" stroke="midnightblue" d="M590.57,-106.26C519.86,-109.41 335.22,-117.61 244.03,-121.67"/>
<polygon fill="midnightblue" stroke="midnightblue" points="591.07,-109.74 600.9,-105.8 590.76,-102.75 591.07,-109.74"/>
</g>
<!-- Node3 -->
<g id="node3" class="node">
<title>Node3</title>
<g id="a_node3"><a xlink:href="group__parts__3d__fastener__catch__latch.html#ga26a9933aa6d33599daab1be8d632c430" target="_top" xlink:title="A catch latch generator with configurable profile.">
<polygon fill="white" stroke="black" points="482,-152.5 482,-171.5 554,-171.5 554,-152.5 482,-152.5"/>
<text text-anchor="middle" x="518" y="-159.5" font-family="Helvetica,sans-Serif" font-size="10.00">catch_latch</text>
</a>
</g>
</g>
<!-- Node1&#45;&gt;Node3 -->
<g id="edge2" class="edge">
<title>Node1&#45;&gt;Node3</title>
<path fill="none" stroke="midnightblue" d="M595.28,-119.97C585.93,-125.75 575.04,-132.32 565,-138 556.22,-142.97 546.32,-148.18 537.95,-152.48"/>
<polygon fill="midnightblue" stroke="midnightblue" points="597.39,-122.78 604.03,-114.52 593.69,-116.84 597.39,-122.78"/>
</g>
<!-- Node4 -->
<g id="node4" class="node">
<title>Node4</title>
<g id="a_node4"><a xlink:href="group__parts__3d__computer__pcie__expansion.html#gab6fb1c9f8f6550633467f4ec0bd3f983" target="_top" xlink:title="Generate a PCI Express expansion open chassis or closed enclosure.">
<polygon fill="white" stroke="black" points="0,-152.5 0,-171.5 92,-171.5 92,-152.5 0,-152.5"/>
<text text-anchor="middle" x="46" y="-159.5" font-family="Helvetica,sans-Serif" font-size="10.00">pcie_expansion</text>
</a>
</g>
</g>
<!-- Node1&#45;&gt;Node4 -->
<g id="edge3" class="edge">
<title>Node1&#45;&gt;Node4</title>
<path fill="none" stroke="midnightblue" d="M611.56,-124.18C603.27,-142.55 587.95,-169.15 565,-181 396.07,-268.2 153.21,-198.55 73.47,-171.53"/>
<polygon fill="midnightblue" stroke="midnightblue" points="614.88,-125.31 615.53,-114.74 608.43,-122.6 614.88,-125.31"/>
</g>
<!-- Node5 -->
<g id="node5" class="node">
<title>Node5</title>
<g id="a_node5"><a xlink:href="group__shapes__polygon.html#ga22a29774c22e5cc9f3101ed0a0ed307a" target="_top" xlink:title="A polygon rectangle with side rounding.">
<polygon fill="white" stroke="black" points="471,-76.5 471,-95.5 565,-95.5 565,-76.5 471,-76.5"/>
<text text-anchor="middle" x="518" y="-83.5" font-family="Helvetica,sans-Serif" font-size="10.00">pg_rectangle_rs</text>
</a>
</g>
</g>
<!-- Node1&#45;&gt;Node5 -->
<g id="edge4" class="edge">
<title>Node1&#45;&gt;Node5</title>
<path fill="none" stroke="midnightblue" d="M590.77,-99.64C582.77,-98.12 573.86,-96.42 565.1,-94.76"/>
<polygon fill="midnightblue" stroke="midnightblue" points="590.18,-103.09 600.66,-101.52 591.49,-96.21 590.18,-103.09"/>
</g>
<!-- Node7 -->
<g id="node7" class="node">
<title>Node7</title>
<g id="a_node7"><a xlink:href="group__parts__3d__enclosure__project__box__rectangle.html#ga24cdfe5fd4bb74b75409d9afdbe1f0c0" target="_top" xlink:title="A rectangular box maker for project boxes, enclosures and housings.">
<polygon fill="white" stroke="black" points="128,-76.5 128,-95.5 253,-95.5 253,-76.5 128,-76.5"/>
<text text-anchor="middle" x="190.5" y="-83.5" font-family="Helvetica,sans-Serif" font-size="10.00">project_box_rectangle</text>
</a>
</g>
</g>
<!-- Node1&#45;&gt;Node7 -->
<g id="edge10" class="edge">
<title>Node1&#45;&gt;Node7</title>
<path fill="none" stroke="midnightblue" d="M601.48,-88.48C591.59,-80.3 578.52,-71.28 565,-67 448.05,-29.98 411.1,-55.21 289,-67 269.77,-68.86 248.71,-72.72 231.09,-76.49"/>
<polygon fill="midnightblue" stroke="midnightblue" points="599.46,-91.36 609.29,-95.31 604.07,-86.09 599.46,-91.36"/>
</g>
<!-- Node9 -->
<g id="node9" class="node">
<title>Node9</title>
<g id="a_node9"><a xlink:href="group__datatypes__table.html#ga8d212217f9acb803e3107f488d5523e6" target="_top" xlink:title="Write formatted map entries to the console.">
<polygon fill="white" stroke="black" points="482.5,-0.5 482.5,-19.5 553.5,-19.5 553.5,-0.5 482.5,-0.5"/>
<text text-anchor="middle" x="518" y="-7.5" font-family="Helvetica,sans-Serif" font-size="10.00">table_write</text>
</a>
</g>
</g>
<!-- Node1&#45;&gt;Node9 -->
<g id="edge11" class="edge">
<title>Node1&#45;&gt;Node9</title>
<path fill="none" stroke="midnightblue" d="M608.17,-86.49C598.39,-70.99 582.84,-49.05 565,-34 558.25,-28.31 549.93,-23.46 542.23,-19.64"/>
<polygon fill="midnightblue" stroke="midnightblue" points="605.28,-88.47 613.47,-95.19 611.25,-84.83 605.28,-88.47"/>
</g>
<!-- Node6 -->
<g id="node6" class="node">
<title>Node6</title>
<g id="a_node6"><a xlink:href="group__shapes__select__common__2d.html#gadde46fda315aab438eda3f752fec2aed" target="_top" xlink:title="Select configure and construct one of the available 2d shapes.">
<polygon fill="white" stroke="black" points="289,-76.5 289,-95.5 435,-95.5 435,-76.5 289,-76.5"/>
<text text-anchor="middle" x="362" y="-83.5" font-family="Helvetica,sans-Serif" font-size="10.00">select_common_2d_shape</text>
</a>
</g>
</g>
<!-- Node5&#45;&gt;Node6 -->
<g id="edge5" class="edge">
<title>Node5&#45;&gt;Node6</title>
<path fill="none" stroke="midnightblue" d="M460.53,-86C452.25,-86 443.64,-86 435.1,-86"/>
<polygon fill="midnightblue" stroke="midnightblue" points="460.79,-89.5 470.79,-86 460.79,-82.5 460.79,-89.5"/>
</g>
<!-- Node6&#45;&gt;Node2 -->
<g id="edge6" class="edge">
<title>Node6&#45;&gt;Node2</title>
<path fill="none" stroke="midnightblue" d="M308.26,-97.82C284.36,-103.18 256.48,-109.43 233.96,-114.48"/>
<polygon fill="midnightblue" stroke="midnightblue" points="309.24,-101.19 318.23,-95.59 307.7,-94.36 309.24,-101.19"/>
</g>
<!-- Node6&#45;&gt;Node7 -->
<g id="edge7" class="edge">
<title>Node6&#45;&gt;Node7</title>
<path fill="none" stroke="midnightblue" d="M278.62,-86C270.07,-86 261.49,-86 253.22,-86"/>
<polygon fill="midnightblue" stroke="midnightblue" points="278.63,-89.5 288.63,-86 278.63,-82.5 278.63,-89.5"/>
</g>
<!-- Node7&#45;&gt;Node4 -->
<g id="edge8" class="edge">
<title>Node7&#45;&gt;Node4</title>
<path fill="none" stroke="midnightblue" d="M142.46,-98.84C137.49,-100.7 132.58,-102.75 128,-105 100.99,-118.26 73.06,-140.03 58.08,-152.48"/>
<polygon fill="midnightblue" stroke="midnightblue" points="143.73,-102.11 152.03,-95.52 141.43,-95.5 143.73,-102.11"/>
</g>
<!-- Node8 -->
<g id="node8" class="node">
<title>Node8</title>
<g id="a_node8"><a xlink:href="group__parts__3d__enclosure__power__strip.html#ga33509a1811b27fe7f3687957d4d32460" target="_top" xlink:title="A power strip generator for single gang electrical receptacles.">
<polygon fill="white" stroke="black" points="1,-76.5 1,-95.5 91,-95.5 91,-76.5 1,-76.5"/>
<text text-anchor="middle" x="46" y="-83.5" font-family="Helvetica,sans-Serif" font-size="10.00">power_strip_sg</text>
</a>
</g>
</g>
<!-- Node7&#45;&gt;Node8 -->
<g id="edge9" class="edge">
<title>Node7&#45;&gt;Node8</title>
<path fill="none" stroke="midnightblue" d="M117.65,-86C108.61,-86 99.59,-86 91.16,-86"/>
<polygon fill="midnightblue" stroke="midnightblue" points="117.83,-89.5 127.83,-86 117.83,-82.5 117.83,-89.5"/>
</g>
</g>
</svg>
