<?xml version="1.0" encoding="UTF-8" standalone="no"?>
<!DOCTYPE svg PUBLIC "-//W3C//DTD SVG 1.1//EN"
 "http://www.w3.org/Graphics/SVG/1.1/DTD/svg11.dtd">
<!-- Generated by graphviz version 2.43.0 (0)
 -->
<!-- Title: polygon_round_eve_all_p Pages: 1 -->
<svg width="932pt" height="877pt"
 viewBox="0.00 0.00 932.00 876.75" xmlns="http://www.w3.org/2000/svg" xmlns:xlink="http://www.w3.org/1999/xlink">
<g id="graph0" class="graph" transform="scale(1 1) rotate(0) translate(4 872.75)">
<title>polygon_round_eve_all_p</title>
<polygon fill="white" stroke="transparent" points="-4,4 -4,-872.75 928,-872.75 928,4 -4,4"/>
<!-- Node1 -->
<g id="node1" class="node">
<title>Node1</title>
<g id="a_node1"><a xlink:title="Compute coordinates that round all of the vertices between each adjacent edges in 2D.">
<polygon fill="#bfbfbf" stroke="black" points="784,-351.93 784,-370.93 924,-370.93 924,-351.93 784,-351.93"/>
<text text-anchor="middle" x="854" y="-358.93" font-family="Helvetica,sans-Serif" font-size="10.00">polygon_round_eve_all_p</text>
</a>
</g>
</g>
<!-- Node2 -->
<g id="node2" class="node">
<title>Node2</title>
<g id="a_node2"><a xlink:href="group__parts__2d__enclosure__box__finger__joint.html#gacc1bfb220bc3cfed46dcaa3b84898020" target="_top" xlink:title="Generate a 2D box design using screw&#45;based finger joint (box&#45;joint).">
<polygon fill="white" stroke="black" points="137,-218.93 137,-237.93 244,-237.93 244,-218.93 137,-218.93"/>
<text text-anchor="middle" x="190.5" y="-225.93" font-family="Helvetica,sans-Serif" font-size="10.00">box2d_finger_joint</text>
</a>
</g>
</g>
<!-- Node1&#45;&gt;Node2 -->
<g id="edge1" class="edge">
<title>Node1&#45;&gt;Node2</title>
<path fill="none" stroke="midnightblue" d="M848.96,-341.52C839.52,-300.89 811.79,-209.06 748,-171.43 659.85,-119.43 339.68,-191.68 229.25,-218.85"/>
<polygon fill="midnightblue" stroke="midnightblue" points="845.6,-342.52 851.15,-351.54 852.43,-341.02 845.6,-342.52"/>
</g>
<!-- Node3 -->
<g id="node3" class="node">
<title>Node3</title>
<g id="a_node3"><a xlink:href="group__parts__3d__fastener__catch__latch.html#ga26a9933aa6d33599daab1be8d632c430" target="_top" xlink:title="A catch latch generator with configurable profile.">
<polygon fill="white" stroke="black" points="326,-560.93 326,-579.93 398,-579.93 398,-560.93 326,-560.93"/>
<text text-anchor="middle" x="362" y="-567.93" font-family="Helvetica,sans-Serif" font-size="10.00">catch_latch</text>
</a>
</g>
</g>
<!-- Node1&#45;&gt;Node3 -->
<g id="edge2" class="edge">
<title>Node1&#45;&gt;Node3</title>
<path fill="none" stroke="midnightblue" d="M844.07,-380.3C828.82,-410.35 794.81,-468.69 748,-498.43 635.65,-569.82 470.01,-574.13 398.27,-572.21"/>
<polygon fill="midnightblue" stroke="midnightblue" points="847.23,-381.8 848.51,-371.28 840.95,-378.7 847.23,-381.8"/>
</g>
<!-- Node4 -->
<g id="node4" class="node">
<title>Node4</title>
<g id="a_node4"><a xlink:href="group__parts__3d__fastener__clamps.html#gad5d667c41776480785c62759c61a137e" target="_top" xlink:title="A clamp, bushing, and/or grip for wire, hose, and/or pipe wall penetrations.">
<polygon fill="white" stroke="black" points="159,-750.93 159,-769.93 222,-769.93 222,-750.93 159,-750.93"/>
<text text-anchor="middle" x="190.5" y="-757.93" font-family="Helvetica,sans-Serif" font-size="10.00">clamp_cg</text>
</a>
</g>
</g>
<!-- Node1&#45;&gt;Node4 -->
<g id="edge3" class="edge">
<title>Node1&#45;&gt;Node4</title>
<path fill="none" stroke="midnightblue" d="M850.94,-380.99C844.7,-430.56 821.71,-562.5 748,-637.43 600.9,-786.97 315.79,-773.19 222.13,-764.03"/>
<polygon fill="midnightblue" stroke="midnightblue" points="854.42,-381.31 852.1,-370.97 847.47,-380.5 854.42,-381.31"/>
</g>
<!-- Node5 -->
<g id="node5" class="node">
<title>Node5</title>
<g id="a_node5"><a xlink:href="group__parts__3d__computer__pcie__expansion.html#gab6fb1c9f8f6550633467f4ec0bd3f983" target="_top" xlink:title="Generate a PCI Express expansion open chassis or closed enclosure.">
<polygon fill="white" stroke="black" points="0,-408.93 0,-427.93 92,-427.93 92,-408.93 0,-408.93"/>
<text text-anchor="middle" x="46" y="-415.93" font-family="Helvetica,sans-Serif" font-size="10.00">pcie_expansion</text>
</a>
</g>
</g>
<!-- Node1&#45;&gt;Node5 -->
<g id="edge23" class="edge">
<title>Node1&#45;&gt;Node5</title>
<path fill="none" stroke="midnightblue" d="M851.4,-341.51C846.31,-292.38 825.84,-165.07 748,-105.43 666.56,-43.04 621.59,-76.43 519,-76.43 519,-76.43 519,-76.43 361,-76.43 254.28,-76.43 204.73,-60.26 128,-134.43 46.16,-213.54 45.35,-369.02 46.58,-408.92"/>
<polygon fill="midnightblue" stroke="midnightblue" points="847.94,-342.11 852.35,-351.75 854.91,-341.46 847.94,-342.11"/>
</g>
<!-- Node7 -->
<g id="node7" class="node">
<title>Node7</title>
<g id="a_node7"><a xlink:href="group__shapes__common__3d.html#ga5075cfcc6967fb610e308f08da3fb059" target="_top" xlink:title="A cone.">
<polygon fill="white" stroke="black" points="498,-674.93 498,-693.93 538,-693.93 538,-674.93 498,-674.93"/>
<text text-anchor="middle" x="518" y="-681.93" font-family="Helvetica,sans-Serif" font-size="10.00">cone</text>
</a>
</g>
</g>
<!-- Node1&#45;&gt;Node7 -->
<g id="edge6" class="edge">
<title>Node1&#45;&gt;Node7</title>
<path fill="none" stroke="midnightblue" d="M848.67,-381.31C838.43,-423.98 808.84,-525.29 748,-584.43 685.79,-644.91 581.01,-671.93 538.15,-680.85"/>
<polygon fill="midnightblue" stroke="midnightblue" points="852.13,-381.88 850.97,-371.35 845.31,-380.31 852.13,-381.88"/>
</g>
<!-- Node10 -->
<g id="node10" class="node">
<title>Node10</title>
<g id="a_node10"><a xlink:href="group__models__3d__misc__omdl__logo.html#gab176f64dad7e83d4fb056be44b71f630" target="_top" xlink:title="Standard omdl logo.">
<polygon fill="white" stroke="black" points="328,-826.93 328,-845.93 396,-845.93 396,-826.93 328,-826.93"/>
<text text-anchor="middle" x="362" y="-833.93" font-family="Helvetica,sans-Serif" font-size="10.00">omdl_logo</text>
</a>
</g>
</g>
<!-- Node1&#45;&gt;Node10 -->
<g id="edge22" class="edge">
<title>Node1&#45;&gt;Node10</title>
<path fill="none" stroke="midnightblue" d="M851.46,-381.07C844.83,-460.3 815.86,-755.02 748,-812.43 645.87,-898.83 468.72,-865.01 395.8,-845.98"/>
<polygon fill="midnightblue" stroke="midnightblue" points="854.96,-381.24 852.28,-370.99 847.98,-380.68 854.96,-381.24"/>
</g>
<!-- Node13 -->
<g id="node13" class="node">
<title>Node13</title>
<g id="a_node13"><a xlink:href="group__parts__3d__enclosure__enclosure__stand__rectangle.html#gaa6bbb5648edd144f66059f9b31aa2865" target="_top" xlink:title="A stand maker for rectangular project boxes, housings, and enclosures.">
<polygon fill="white" stroke="black" points="601,-389.93 601,-408.93 748,-408.93 748,-389.93 601,-389.93"/>
<text text-anchor="middle" x="674.5" y="-396.93" font-family="Helvetica,sans-Serif" font-size="10.00">enclosure_stand_rectangle</text>
</a>
</g>
</g>
<!-- Node1&#45;&gt;Node13 -->
<g id="edge18" class="edge">
<title>Node1&#45;&gt;Node13</title>
<path fill="none" stroke="midnightblue" d="M798.1,-373.18C773,-378.56 743.66,-384.84 719.97,-389.91"/>
<polygon fill="midnightblue" stroke="midnightblue" points="799.16,-376.54 808.21,-371.02 797.7,-369.69 799.16,-376.54"/>
</g>
<!-- Node14 -->
<g id="node14" class="node">
<title>Node14</title>
<g id="a_node14"><a xlink:href="group__models__2d__joint__dovetail.html#gadccba989c93e8e44be057de39d99758a" target="_top" xlink:title="Create 2D edge profiles for dovetail joint construction.">
<polygon fill="white" stroke="black" points="314.5,-104.93 314.5,-123.93 409.5,-123.93 409.5,-104.93 314.5,-104.93"/>
<text text-anchor="middle" x="362" y="-111.93" font-family="Helvetica,sans-Serif" font-size="10.00">joint2d_dovetail</text>
</a>
</g>
</g>
<!-- Node1&#45;&gt;Node14 -->
<g id="edge19" class="edge">
<title>Node1&#45;&gt;Node14</title>
<path fill="none" stroke="midnightblue" d="M850.39,-341.65C843.3,-296.63 819.15,-186.74 748,-138.43 694.12,-101.85 499.87,-107 409.65,-111.59"/>
<polygon fill="midnightblue" stroke="midnightblue" points="846.94,-342.22 851.85,-351.61 853.87,-341.21 846.94,-342.22"/>
</g>
<!-- Node15 -->
<g id="node15" class="node">
<title>Node15</title>
<g id="a_node15"><a xlink:href="group__models__3d__joint__dovetail__screw.html#ga20f61ef0d29434a144ec653c6320f77f" target="_top" xlink:title="Construct a 3d dovetail joint with optional screw and nut fastener.">
<polygon fill="white" stroke="black" points="297.5,-522.93 297.5,-541.93 426.5,-541.93 426.5,-522.93 297.5,-522.93"/>
<text text-anchor="middle" x="362" y="-529.93" font-family="Helvetica,sans-Serif" font-size="10.00">joint3d_dovetail_screw</text>
</a>
</g>
</g>
<!-- Node1&#45;&gt;Node15 -->
<g id="edge21" class="edge">
<title>Node1&#45;&gt;Node15</title>
<path fill="none" stroke="midnightblue" d="M838.81,-378.68C820.14,-400.31 785.29,-437.14 748,-458.43 646.04,-516.66 506.68,-530.01 426.62,-532.53"/>
<polygon fill="midnightblue" stroke="midnightblue" points="841.57,-380.84 845.36,-370.94 836.23,-376.32 841.57,-380.84"/>
</g>
<!-- Node16 -->
<g id="node16" class="node">
<title>Node16</title>
<g id="a_node16"><a xlink:href="group__shapes__polygon.html#ga3587861a50ac45aeabace1df584094d1" target="_top" xlink:title="A n&#45;sided regular polygon with vertex rounding.">
<polygon fill="white" stroke="black" points="645.5,-237.93 645.5,-256.93 703.5,-256.93 703.5,-237.93 645.5,-237.93"/>
<text text-anchor="middle" x="674.5" y="-244.93" font-family="Helvetica,sans-Serif" font-size="10.00">pg_ngon</text>
</a>
</g>
</g>
<!-- Node1&#45;&gt;Node16 -->
<g id="edge24" class="edge">
<title>Node1&#45;&gt;Node16</title>
<path fill="none" stroke="midnightblue" d="M832.74,-345.42C812.02,-329.38 778.63,-304.41 748,-285.43 730.85,-274.8 710.42,-264.28 695.62,-257"/>
<polygon fill="midnightblue" stroke="midnightblue" points="830.76,-348.32 840.8,-351.71 835.06,-342.8 830.76,-348.32"/>
</g>
<!-- Node18 -->
<g id="node18" class="node">
<title>Node18</title>
<g id="a_node18"><a xlink:href="group__shapes__polygon.html#ga9c1bd914355d92f9d66ba0e5c2d9dbac" target="_top" xlink:title="A polygon rectangle with vertex rounding.">
<polygon fill="white" stroke="black" points="478,-484.93 478,-503.93 558,-503.93 558,-484.93 478,-484.93"/>
<text text-anchor="middle" x="518" y="-491.93" font-family="Helvetica,sans-Serif" font-size="10.00">pg_rectangle</text>
</a>
</g>
</g>
<!-- Node1&#45;&gt;Node18 -->
<g id="edge28" class="edge">
<title>Node1&#45;&gt;Node18</title>
<path fill="none" stroke="midnightblue" d="M828.6,-376.29C807.7,-388.61 776.55,-406.06 748,-418.43 681.31,-447.33 599.83,-471.97 554.24,-484.84"/>
<polygon fill="midnightblue" stroke="midnightblue" points="830.63,-379.15 837.43,-371.02 827.05,-373.14 830.63,-379.15"/>
</g>
<!-- Node23 -->
<g id="node23" class="node">
<title>Node23</title>
<g id="a_node23"><a xlink:href="group__shapes__polygon.html#ga2ca38d6942a8955d3b483d1a60bf7ec3" target="_top" xlink:title="A polygon rhombus with vertex rounding.">
<polygon fill="white" stroke="black" points="636,-180.93 636,-199.93 713,-199.93 713,-180.93 636,-180.93"/>
<text text-anchor="middle" x="674.5" y="-187.93" font-family="Helvetica,sans-Serif" font-size="10.00">pg_rhombus</text>
</a>
</g>
</g>
<!-- Node1&#45;&gt;Node23 -->
<g id="edge43" class="edge">
<title>Node1&#45;&gt;Node23</title>
<path fill="none" stroke="midnightblue" d="M841.96,-342.9C824.73,-315.18 789.11,-262.55 748,-228.43 733.45,-216.36 714.45,-206.58 699.55,-199.96"/>
<polygon fill="midnightblue" stroke="midnightblue" points="839.07,-344.88 847.27,-351.59 845.05,-341.24 839.07,-344.88"/>
</g>
<!-- Node24 -->
<g id="node24" class="node">
<title>Node24</title>
<g id="a_node24"><a xlink:href="group__shapes__polygon.html#ga155ae943a1aa91432b1992fd1de364c2" target="_top" xlink:title="A polygon trapezoid with individual vertex rounding and arc facets.">
<polygon fill="white" stroke="black" points="478,-28.93 478,-47.93 558,-47.93 558,-28.93 478,-28.93"/>
<text text-anchor="middle" x="518" y="-35.93" font-family="Helvetica,sans-Serif" font-size="10.00">pg_trapezoid</text>
</a>
</g>
</g>
<!-- Node1&#45;&gt;Node24 -->
<g id="edge45" class="edge">
<title>Node1&#45;&gt;Node24</title>
<path fill="none" stroke="midnightblue" d="M852.8,-341.84C851.07,-287.39 838.07,-133.61 748,-62.43 693.58,-19.43 607.74,-23.69 558.07,-30.91"/>
<polygon fill="midnightblue" stroke="midnightblue" points="849.3,-341.96 853.02,-351.88 856.3,-341.81 849.3,-341.96"/>
</g>
<!-- Node26 -->
<g id="node26" class="node">
<title>Node26</title>
<g id="a_node26"><a xlink:href="group__shapes__polygon.html#gac7e2c70b3428b729efd86a675df794e6" target="_top" xlink:title="A polygon triangle specified by three coordinate points with vertex rounding.">
<polygon fill="white" stroke="black" points="627,-351.93 627,-370.93 722,-370.93 722,-351.93 627,-351.93"/>
<text text-anchor="middle" x="674.5" y="-358.93" font-family="Helvetica,sans-Serif" font-size="10.00">pg_triangle_ppp</text>
</a>
</g>
</g>
<!-- Node1&#45;&gt;Node26 -->
<g id="edge49" class="edge">
<title>Node1&#45;&gt;Node26</title>
<path fill="none" stroke="midnightblue" d="M773.61,-361.43C756.06,-361.43 738.01,-361.43 722.26,-361.43"/>
<polygon fill="midnightblue" stroke="midnightblue" points="773.87,-364.93 783.87,-361.43 773.87,-357.93 773.87,-364.93"/>
</g>
<!-- Node31 -->
<g id="node31" class="node">
<title>Node31</title>
<g id="a_node31"><a xlink:href="group__shapes__common__2d.html#ga0e810e30a9ec109e004677036012c428" target="_top" xlink:title="A two&#45;dimensional star.">
<polygon fill="white" stroke="black" points="651,-294.93 651,-313.93 698,-313.93 698,-294.93 651,-294.93"/>
<text text-anchor="middle" x="674.5" y="-301.93" font-family="Helvetica,sans-Serif" font-size="10.00">star2d</text>
</a>
</g>
</g>
<!-- Node1&#45;&gt;Node31 -->
<g id="edge59" class="edge">
<title>Node1&#45;&gt;Node31</title>
<path fill="none" stroke="midnightblue" d="M813.73,-348.82C778.29,-337.44 727.37,-321.09 698.25,-311.74"/>
<polygon fill="midnightblue" stroke="midnightblue" points="812.7,-352.17 823.29,-351.89 814.84,-345.5 812.7,-352.17"/>
</g>
<!-- Node4&#45;&gt;Node5 -->
<g id="edge4" class="edge">
<title>Node4&#45;&gt;Node5</title>
<path fill="none" stroke="midnightblue" d="M149.43,-751.13C141.43,-747.66 133.73,-742.91 128,-736.43 85.26,-688.1 54.74,-476.36 48.28,-428.2"/>
<polygon fill="midnightblue" stroke="midnightblue" points="148.28,-754.43 158.87,-754.64 150.72,-747.87 148.28,-754.43"/>
</g>
<!-- Node6 -->
<g id="node6" class="node">
<title>Node6</title>
<g id="a_node6"><a xlink:href="group__parts__3d__enclosure__power__strip.html#ga33509a1811b27fe7f3687957d4d32460" target="_top" xlink:title="A power strip generator for single gang electrical receptacles.">
<polygon fill="white" stroke="black" points="1,-674.93 1,-693.93 91,-693.93 91,-674.93 1,-674.93"/>
<text text-anchor="middle" x="46" y="-681.93" font-family="Helvetica,sans-Serif" font-size="10.00">power_strip_sg</text>
</a>
</g>
</g>
<!-- Node4&#45;&gt;Node6 -->
<g id="edge5" class="edge">
<title>Node4&#45;&gt;Node6</title>
<path fill="none" stroke="midnightblue" d="M151.88,-747.12C143.87,-743.91 135.55,-740.28 128,-736.43 102.99,-723.68 75.92,-705.27 60.27,-694.12"/>
<polygon fill="midnightblue" stroke="midnightblue" points="150.85,-750.47 161.43,-750.82 153.37,-743.95 150.85,-750.47"/>
</g>
<!-- Node7&#45;&gt;Node4 -->
<g id="edge7" class="edge">
<title>Node7&#45;&gt;Node4</title>
<path fill="none" stroke="midnightblue" d="M497.74,-700.34C481.93,-712.46 458.4,-728.37 435,-736.43 361.7,-761.68 269.16,-763.13 222.06,-761.88"/>
<polygon fill="midnightblue" stroke="midnightblue" points="500,-703.02 505.69,-694.08 495.67,-697.52 500,-703.02"/>
</g>
<!-- Node7&#45;&gt;Node5 -->
<g id="edge12" class="edge">
<title>Node7&#45;&gt;Node5</title>
<path fill="none" stroke="midnightblue" d="M487.9,-689.72C416.87,-700.85 232.78,-718.67 128,-627.43 64.61,-572.23 50.53,-461.39 47.67,-428.1"/>
<polygon fill="midnightblue" stroke="midnightblue" points="488.62,-693.15 497.92,-688.08 487.48,-686.25 488.62,-693.15"/>
</g>
<!-- Node7&#45;&gt;Node6 -->
<g id="edge13" class="edge">
<title>Node7&#45;&gt;Node6</title>
<path fill="none" stroke="midnightblue" d="M487.7,-684.43C407.92,-684.43 186.42,-684.43 91.32,-684.43"/>
<polygon fill="midnightblue" stroke="midnightblue" points="487.99,-687.93 497.99,-684.43 487.99,-680.93 487.99,-687.93"/>
</g>
<!-- Node8 -->
<g id="node8" class="node">
<title>Node8</title>
<g id="a_node8"><a xlink:href="group__parts__3d__fastener__hinges.html#ga7e350f2c55116094108b99dd8103fc04" target="_top" xlink:title="A print&#45;in&#45;place single&#45;fold hinge generator.">
<polygon fill="white" stroke="black" points="333,-598.93 333,-617.93 391,-617.93 391,-598.93 333,-598.93"/>
<text text-anchor="middle" x="362" y="-605.93" font-family="Helvetica,sans-Serif" font-size="10.00">hinge_sf</text>
</a>
</g>
</g>
<!-- Node7&#45;&gt;Node8 -->
<g id="edge8" class="edge">
<title>Node7&#45;&gt;Node8</title>
<path fill="none" stroke="midnightblue" d="M497.86,-668.21C481.95,-655.48 458.24,-638.17 435,-627.43 421.15,-621.03 404.77,-616.5 391.14,-613.47"/>
<polygon fill="midnightblue" stroke="midnightblue" points="495.88,-671.12 505.84,-674.75 500.32,-665.7 495.88,-671.12"/>
</g>
<!-- Node7&#45;&gt;Node10 -->
<g id="edge10" class="edge">
<title>Node7&#45;&gt;Node10</title>
<path fill="none" stroke="midnightblue" d="M502.44,-701.62C486.48,-720.16 459.84,-750.28 435,-774.43 414.89,-793.98 389.74,-814.91 375.11,-826.76"/>
<polygon fill="midnightblue" stroke="midnightblue" points="505.14,-703.85 508.98,-693.98 499.82,-699.3 505.14,-703.85"/>
</g>
<!-- Node11 -->
<g id="node11" class="node">
<title>Node11</title>
<g id="a_node11"><a xlink:href="group__shapes__select__common__3d.html#ga3fd7f214eff2f5935ad1bb56415a4aaf" target="_top" xlink:title="Select configure and construct one of the available 3d shapes.">
<polygon fill="white" stroke="black" points="289,-636.93 289,-655.93 435,-655.93 435,-636.93 289,-636.93"/>
<text text-anchor="middle" x="362" y="-643.93" font-family="Helvetica,sans-Serif" font-size="10.00">select_common_3d_shape</text>
</a>
</g>
</g>
<!-- Node7&#45;&gt;Node11 -->
<g id="edge14" class="edge">
<title>Node7&#45;&gt;Node11</title>
<path fill="none" stroke="midnightblue" d="M488.06,-677.29C463.65,-671.27 428.5,-662.6 401.68,-655.98"/>
<polygon fill="midnightblue" stroke="midnightblue" points="487.26,-680.7 497.81,-679.7 488.94,-673.9 487.26,-680.7"/>
</g>
<!-- Node9 -->
<g id="node9" class="node">
<title>Node9</title>
<g id="a_node9"><a xlink:href="group__parts__3d__fastener__hinges.html#ga1ffc82e0bbac466d1dc4fbe6c214b765" target="_top" xlink:title="A print&#45;in&#45;place bi&#45;fold hinge generator.">
<polygon fill="white" stroke="black" points="161,-598.93 161,-617.93 220,-617.93 220,-598.93 161,-598.93"/>
<text text-anchor="middle" x="190.5" y="-605.93" font-family="Helvetica,sans-Serif" font-size="10.00">hinge_bf</text>
</a>
</g>
</g>
<!-- Node8&#45;&gt;Node9 -->
<g id="edge9" class="edge">
<title>Node8&#45;&gt;Node9</title>
<path fill="none" stroke="midnightblue" d="M322.59,-608.43C291.5,-608.43 248.41,-608.43 220.25,-608.43"/>
<polygon fill="midnightblue" stroke="midnightblue" points="322.63,-611.93 332.63,-608.43 322.63,-604.93 322.63,-611.93"/>
</g>
<!-- Node10&#45;&gt;Node6 -->
<g id="edge11" class="edge">
<title>Node10&#45;&gt;Node6</title>
<path fill="none" stroke="midnightblue" d="M317.66,-833.8C268.43,-829.08 187.24,-815.95 128,-779.43 91.84,-757.14 63.57,-713.3 52.3,-693.97"/>
<polygon fill="midnightblue" stroke="midnightblue" points="317.4,-837.28 327.67,-834.68 318.01,-830.31 317.4,-837.28"/>
</g>
<!-- Node12 -->
<g id="node12" class="node">
<title>Node12</title>
<g id="a_node12"><a xlink:href="group__parts__3d__enclosure__project__box__rectangle.html#ga24cdfe5fd4bb74b75409d9afdbe1f0c0" target="_top" xlink:title="A rectangular box maker for project boxes, enclosures and housings.">
<polygon fill="white" stroke="black" points="128,-370.93 128,-389.93 253,-389.93 253,-370.93 128,-370.93"/>
<text text-anchor="middle" x="190.5" y="-377.93" font-family="Helvetica,sans-Serif" font-size="10.00">project_box_rectangle</text>
</a>
</g>
</g>
<!-- Node11&#45;&gt;Node12 -->
<g id="edge15" class="edge">
<title>Node11&#45;&gt;Node12</title>
<path fill="none" stroke="midnightblue" d="M292.86,-631.08C291.5,-629.95 290.21,-628.73 289,-627.43 230.41,-564.55 294.6,-512.64 253,-437.43 241.8,-417.18 220.78,-400.1 206.47,-390.06"/>
<polygon fill="midnightblue" stroke="midnightblue" points="291.01,-634.06 301.25,-636.76 294.93,-628.26 291.01,-634.06"/>
</g>
<!-- Node12&#45;&gt;Node5 -->
<g id="edge16" class="edge">
<title>Node12&#45;&gt;Node5</title>
<path fill="none" stroke="midnightblue" d="M143.85,-392.61C124.14,-397.86 101.43,-403.92 82.95,-408.85"/>
<polygon fill="midnightblue" stroke="midnightblue" points="144.78,-395.98 153.54,-390.02 142.98,-389.22 144.78,-395.98"/>
</g>
<!-- Node12&#45;&gt;Node6 -->
<g id="edge17" class="edge">
<title>Node12&#45;&gt;Node6</title>
<path fill="none" stroke="midnightblue" d="M140.33,-394.58C135.76,-397.31 131.53,-400.56 128,-404.43 52.58,-487.01 47.01,-635.68 46.9,-674.79"/>
<polygon fill="midnightblue" stroke="midnightblue" points="142.12,-397.6 149.44,-389.94 138.94,-391.36 142.12,-397.6"/>
</g>
<!-- Node14&#45;&gt;Node5 -->
<g id="edge20" class="edge">
<title>Node14&#45;&gt;Node5</title>
<path fill="none" stroke="midnightblue" d="M304.56,-123.84C252.17,-135.38 175.34,-159.88 128,-209.43 70.2,-269.93 52.35,-376.22 48.12,-408.72"/>
<polygon fill="midnightblue" stroke="midnightblue" points="305.31,-127.26 314.37,-121.77 303.86,-120.41 305.31,-127.26"/>
</g>
<!-- Node17 -->
<g id="node17" class="node">
<title>Node17</title>
<g id="a_node17"><a xlink:href="group__shapes__select__common__2d.html#gadde46fda315aab438eda3f752fec2aed" target="_top" xlink:title="Select configure and construct one of the available 2d shapes.">
<polygon fill="white" stroke="black" points="289,-218.93 289,-237.93 435,-237.93 435,-218.93 289,-218.93"/>
<text text-anchor="middle" x="362" y="-225.93" font-family="Helvetica,sans-Serif" font-size="10.00">select_common_2d_shape</text>
</a>
</g>
</g>
<!-- Node16&#45;&gt;Node17 -->
<g id="edge25" class="edge">
<title>Node16&#45;&gt;Node17</title>
<path fill="none" stroke="midnightblue" d="M635.39,-245.1C585.64,-242.06 497.57,-236.67 435.05,-232.84"/>
<polygon fill="midnightblue" stroke="midnightblue" points="635.2,-248.6 645.4,-245.71 635.63,-241.61 635.2,-248.6"/>
</g>
<!-- Node17&#45;&gt;Node2 -->
<g id="edge26" class="edge">
<title>Node17&#45;&gt;Node2</title>
<path fill="none" stroke="midnightblue" d="M278.41,-228.43C266.75,-228.43 255.04,-228.43 244.15,-228.43"/>
<polygon fill="midnightblue" stroke="midnightblue" points="278.63,-231.93 288.63,-228.43 278.63,-224.93 278.63,-231.93"/>
</g>
<!-- Node17&#45;&gt;Node12 -->
<g id="edge27" class="edge">
<title>Node17&#45;&gt;Node12</title>
<path fill="none" stroke="midnightblue" d="M298.27,-242.07C295.04,-243.66 291.92,-245.44 289,-247.43 240.5,-280.48 207.15,-345.89 195.79,-370.63"/>
<polygon fill="midnightblue" stroke="midnightblue" points="299.85,-245.2 307.66,-238.05 297.09,-238.77 299.85,-245.2"/>
</g>
<!-- Node18&#45;&gt;Node3 -->
<g id="edge29" class="edge">
<title>Node18&#45;&gt;Node3</title>
<path fill="none" stroke="midnightblue" d="M497.86,-510.65C481.95,-523.38 458.24,-540.7 435,-551.43 423.5,-556.74 410.25,-560.77 398.28,-563.72"/>
<polygon fill="midnightblue" stroke="midnightblue" points="500.32,-513.16 505.84,-504.12 495.88,-507.74 500.32,-513.16"/>
</g>
<!-- Node18&#45;&gt;Node5 -->
<g id="edge40" class="edge">
<title>Node18&#45;&gt;Node5</title>
<path fill="none" stroke="midnightblue" d="M467.68,-500.59C392.19,-508.14 244.5,-515.47 128,-475.43 99.05,-465.48 71.2,-441.81 56.91,-428.31"/>
<polygon fill="midnightblue" stroke="midnightblue" points="468.26,-504.05 477.84,-499.53 467.53,-497.09 468.26,-504.05"/>
</g>
<!-- Node18&#45;&gt;Node8 -->
<g id="edge32" class="edge">
<title>Node18&#45;&gt;Node8</title>
<path fill="none" stroke="midnightblue" d="M506.06,-512.8C492.22,-534.41 466.39,-569.83 435,-589.43 421.84,-597.65 405.2,-602.34 391.23,-605"/>
<polygon fill="midnightblue" stroke="midnightblue" points="509.09,-514.55 511.39,-504.21 503.14,-510.86 509.09,-514.55"/>
</g>
<!-- Node18&#45;&gt;Node12 -->
<g id="edge41" class="edge">
<title>Node18&#45;&gt;Node12</title>
<path fill="none" stroke="midnightblue" d="M484.12,-480.87C479.71,-479.04 475.24,-477.19 471,-475.43 454.99,-468.79 451.25,-466.48 435,-460.43 359.93,-432.51 270.04,-404.3 223.29,-390.01"/>
<polygon fill="midnightblue" stroke="midnightblue" points="483.01,-484.2 493.59,-484.78 485.69,-477.73 483.01,-484.2"/>
</g>
<!-- Node18&#45;&gt;Node14 -->
<g id="edge35" class="edge">
<title>Node18&#45;&gt;Node14</title>
<path fill="none" stroke="midnightblue" d="M474.02,-478.8C472.94,-477.75 471.92,-476.63 471,-475.43 398.16,-380.95 480.53,-319.7 435,-209.43 420.39,-174.04 389.3,-140.19 373.17,-124.13"/>
<polygon fill="midnightblue" stroke="midnightblue" points="471.94,-481.62 482.05,-484.78 476.12,-476 471.94,-481.62"/>
</g>
<!-- Node18&#45;&gt;Node15 -->
<g id="edge36" class="edge">
<title>Node18&#45;&gt;Node15</title>
<path fill="none" stroke="midnightblue" d="M468.21,-506.47C446.69,-511.78 421.77,-517.93 401.58,-522.91"/>
<polygon fill="midnightblue" stroke="midnightblue" points="469.27,-509.81 478.14,-504.02 467.59,-503.02 469.27,-509.81"/>
</g>
<!-- Node18&#45;&gt;Node17 -->
<g id="edge42" class="edge">
<title>Node18&#45;&gt;Node17</title>
<path fill="none" stroke="midnightblue" d="M474.05,-478.78C472.96,-477.73 471.94,-476.62 471,-475.43 407.47,-394.88 503.77,-323.56 435,-247.43 431.53,-243.59 427.39,-240.49 422.87,-237.99"/>
<polygon fill="midnightblue" stroke="midnightblue" points="472,-481.61 482.13,-484.72 476.15,-475.97 472,-481.61"/>
</g>
<!-- Node19 -->
<g id="node19" class="node">
<title>Node19</title>
<g id="a_node19"><a xlink:href="group__parts__3d__fastener__clamps.html#gac715fdab9961aff45be668fb23556835" target="_top" xlink:title="A one piece zip tie clamp to secure wires or provide strain relief.">
<polygon fill="white" stroke="black" points="151.5,-446.93 151.5,-465.93 229.5,-465.93 229.5,-446.93 151.5,-446.93"/>
<text text-anchor="middle" x="190.5" y="-453.93" font-family="Helvetica,sans-Serif" font-size="10.00">clamp_zt_1p</text>
</a>
</g>
</g>
<!-- Node18&#45;&gt;Node19 -->
<g id="edge30" class="edge">
<title>Node18&#45;&gt;Node19</title>
<path fill="none" stroke="midnightblue" d="M467.77,-485.44C456.99,-483.64 445.63,-481.86 435,-480.43 362.59,-470.69 277.56,-463.21 229.56,-459.34"/>
<polygon fill="midnightblue" stroke="midnightblue" points="467.43,-488.94 477.88,-487.17 468.61,-482.04 467.43,-488.94"/>
</g>
<!-- Node20 -->
<g id="node20" class="node">
<title>Node20</title>
<g id="a_node20"><a xlink:href="group__models__2d__joint__box__screw.html#ga78ef0c1346c6e79260781ee9a9fff0bf" target="_top" xlink:title="Create 2d edge profiles for screw and nut box joint construction.">
<polygon fill="white" stroke="black" points="308.5,-370.93 308.5,-389.93 415.5,-389.93 415.5,-370.93 308.5,-370.93"/>
<text text-anchor="middle" x="362" y="-377.93" font-family="Helvetica,sans-Serif" font-size="10.00">joint2d_box_screw</text>
</a>
</g>
</g>
<!-- Node18&#45;&gt;Node20 -->
<g id="edge33" class="edge">
<title>Node18&#45;&gt;Node20</title>
<path fill="none" stroke="midnightblue" d="M476.32,-479.67C474.44,-478.37 472.65,-476.96 471,-475.43 445.03,-451.4 461.79,-427.54 435,-404.43 427.72,-398.15 418.73,-393.5 409.61,-390.06"/>
<polygon fill="midnightblue" stroke="midnightblue" points="474.63,-482.74 485.04,-484.74 478.15,-476.69 474.63,-482.74"/>
</g>
<!-- Node21 -->
<g id="node21" class="node">
<title>Node21</title>
<g id="a_node21"><a xlink:href="group__parts__3d__fastener__mounts.html#ga0cbac43259ec43fff7785057277bcef3" target="_top" xlink:title="A screw mount post with screw bore and optional fins.">
<polygon fill="white" stroke="black" points="308,-256.93 308,-275.93 416,-275.93 416,-256.93 308,-256.93"/>
<text text-anchor="middle" x="362" y="-263.93" font-family="Helvetica,sans-Serif" font-size="10.00">mount_screw_post</text>
</a>
</g>
</g>
<!-- Node18&#45;&gt;Node21 -->
<g id="edge37" class="edge">
<title>Node18&#45;&gt;Node21</title>
<path fill="none" stroke="midnightblue" d="M474.29,-478.79C473.12,-477.74 472.02,-476.62 471,-475.43 425.97,-422.59 472.28,-382 435,-323.43 421.56,-302.32 397.52,-285.66 380.94,-275.94"/>
<polygon fill="midnightblue" stroke="midnightblue" points="472.64,-481.91 482.85,-484.76 476.65,-476.17 472.64,-481.91"/>
</g>
<!-- Node22 -->
<g id="node22" class="node">
<title>Node22</title>
<g id="a_node22"><a xlink:href="group__parts__3d__fastener__mounts.html#gae1cc60f3ff242fb07c5a50d34be8c051" target="_top" xlink:title="A mount tab with screw hole and support brace.">
<polygon fill="white" stroke="black" points="310.5,-332.93 310.5,-351.93 413.5,-351.93 413.5,-332.93 310.5,-332.93"/>
<text text-anchor="middle" x="362" y="-339.93" font-family="Helvetica,sans-Serif" font-size="10.00">mount_screw_tab</text>
</a>
</g>
</g>
<!-- Node18&#45;&gt;Node22 -->
<g id="edge38" class="edge">
<title>Node18&#45;&gt;Node22</title>
<path fill="none" stroke="midnightblue" d="M474.9,-479.11C473.51,-477.97 472.2,-476.75 471,-475.43 435.08,-436.28 473.46,-398.09 435,-361.43 429.01,-355.72 421.52,-351.68 413.64,-348.83"/>
<polygon fill="midnightblue" stroke="midnightblue" points="473.28,-482.23 483.56,-484.79 477.12,-476.38 473.28,-482.23"/>
</g>
<!-- Node19&#45;&gt;Node5 -->
<g id="edge31" class="edge">
<title>Node19&#45;&gt;Node5</title>
<path fill="none" stroke="midnightblue" d="M143.85,-444.26C124.14,-439 101.43,-432.95 82.95,-428.02"/>
<polygon fill="midnightblue" stroke="midnightblue" points="142.98,-447.65 153.54,-446.84 144.78,-440.88 142.98,-447.65"/>
</g>
<!-- Node20&#45;&gt;Node2 -->
<g id="edge34" class="edge">
<title>Node20&#45;&gt;Node2</title>
<path fill="none" stroke="midnightblue" d="M298.95,-367.13C295.47,-365.45 292.12,-363.56 289,-361.43 240.5,-328.38 207.15,-262.98 195.79,-238.23"/>
<polygon fill="midnightblue" stroke="midnightblue" points="297.83,-370.45 308.41,-371.09 300.54,-364 297.83,-370.45"/>
</g>
<!-- Node22&#45;&gt;Node6 -->
<g id="edge39" class="edge">
<title>Node22&#45;&gt;Node6</title>
<path fill="none" stroke="midnightblue" d="M300.7,-355.58C296.63,-357.3 292.69,-359.24 289,-361.43 268.99,-373.3 272.79,-387.2 253,-399.43 203.61,-429.97 169.5,-396.82 128,-437.43 57.36,-506.55 48.3,-638.17 47.16,-674.78"/>
<polygon fill="midnightblue" stroke="midnightblue" points="302.23,-358.75 310.37,-351.96 299.77,-352.19 302.23,-358.75"/>
</g>
<!-- Node23&#45;&gt;Node17 -->
<g id="edge44" class="edge">
<title>Node23&#45;&gt;Node17</title>
<path fill="none" stroke="midnightblue" d="M625.68,-196.28C574.86,-202.5 493.91,-212.41 435.29,-219.58"/>
<polygon fill="midnightblue" stroke="midnightblue" points="626.24,-199.74 635.74,-195.05 625.39,-192.79 626.24,-199.74"/>
</g>
<!-- Node24&#45;&gt;Node5 -->
<g id="edge47" class="edge">
<title>Node24&#45;&gt;Node5</title>
<path fill="none" stroke="midnightblue" d="M477.73,-25.93C398.63,-3.49 219.88,32.94 128,-62.43 77.76,-114.58 52.67,-357.26 47.86,-408.8"/>
<polygon fill="midnightblue" stroke="midnightblue" points="477.18,-29.42 487.76,-28.86 479.14,-22.7 477.18,-29.42"/>
</g>
<!-- Node24&#45;&gt;Node21 -->
<g id="edge46" class="edge">
<title>Node24&#45;&gt;Node21</title>
<path fill="none" stroke="midnightblue" d="M515.11,-58.21C510.07,-99.7 492.48,-196.26 435,-247.43 429.59,-252.25 423.11,-255.86 416.27,-258.58"/>
<polygon fill="midnightblue" stroke="midnightblue" points="518.62,-58.37 516.23,-48.04 511.66,-57.6 518.62,-58.37"/>
</g>
<!-- Node25 -->
<g id="node25" class="node">
<title>Node25</title>
<g id="a_node25"><a xlink:href="group__shapes__revolved.html#ga69b374bbebd7d87cfcd06b6bd3278404" target="_top" xlink:title="A trapezoidal cross&#45;sectional profile revolved about the z&#45;axis.">
<polygon fill="white" stroke="black" points="307,-28.93 307,-47.93 417,-47.93 417,-28.93 307,-28.93"/>
<text text-anchor="middle" x="362" y="-35.93" font-family="Helvetica,sans-Serif" font-size="10.00">torus_pg_trapezoid</text>
</a>
</g>
</g>
<!-- Node24&#45;&gt;Node25 -->
<g id="edge48" class="edge">
<title>Node24&#45;&gt;Node25</title>
<path fill="none" stroke="midnightblue" d="M467.46,-38.43C451.36,-38.43 433.41,-38.43 417,-38.43"/>
<polygon fill="midnightblue" stroke="midnightblue" points="467.74,-41.93 477.74,-38.43 467.74,-34.93 467.74,-41.93"/>
</g>
<!-- Node26&#45;&gt;Node17 -->
<g id="edge58" class="edge">
<title>Node26&#45;&gt;Node17</title>
<path fill="none" stroke="midnightblue" d="M636.61,-348.49C586.41,-330.57 499.55,-298.38 471,-280.43 452.62,-268.88 454.05,-257.84 435,-247.43 427.97,-243.59 420.12,-240.49 412.26,-238.01"/>
<polygon fill="midnightblue" stroke="midnightblue" points="635.54,-351.82 646.13,-351.87 637.88,-345.23 635.54,-351.82"/>
</g>
<!-- Node27 -->
<g id="node27" class="node">
<title>Node27</title>
<g id="a_node27"><a xlink:href="group__shapes__polygon.html#gad85d14f73179499777da1e9297fbcae8" target="_top" xlink:title="A polygon triangle specified by angle&#45;angle&#45;size with vertex rounding.">
<polygon fill="white" stroke="black" points="471,-408.93 471,-427.93 565,-427.93 565,-408.93 471,-408.93"/>
<text text-anchor="middle" x="518" y="-415.93" font-family="Helvetica,sans-Serif" font-size="10.00">pg_triangle_aas</text>
</a>
</g>
</g>
<!-- Node26&#45;&gt;Node27 -->
<g id="edge50" class="edge">
<title>Node26&#45;&gt;Node27</title>
<path fill="none" stroke="midnightblue" d="M620.67,-373.76C613.97,-375.76 607.27,-377.99 601,-380.43 584.14,-386.99 581.38,-391.75 565,-399.43 558.12,-402.66 550.53,-405.92 543.54,-408.8"/>
<polygon fill="midnightblue" stroke="midnightblue" points="621.77,-377.08 630.43,-370.98 619.85,-370.35 621.77,-377.08"/>
</g>
<!-- Node28 -->
<g id="node28" class="node">
<title>Node28</title>
<g id="a_node28"><a xlink:href="group__shapes__polygon.html#ga45e8a17aef3dd6755f833f25a8937cf7" target="_top" xlink:title="A polygon triangle specified by angle&#45;size&#45;angle with vertex rounding.">
<polygon fill="white" stroke="black" points="471,-446.93 471,-465.93 565,-465.93 565,-446.93 471,-446.93"/>
<text text-anchor="middle" x="518" y="-453.93" font-family="Helvetica,sans-Serif" font-size="10.00">pg_triangle_asa</text>
</a>
</g>
</g>
<!-- Node26&#45;&gt;Node28 -->
<g id="edge51" class="edge">
<title>Node26&#45;&gt;Node28</title>
<path fill="none" stroke="midnightblue" d="M616.98,-371.66C611.29,-374 605.84,-376.89 601,-380.43 576.82,-398.13 587.92,-418.14 565,-437.43 560.5,-441.22 555.15,-444.33 549.71,-446.86"/>
<polygon fill="midnightblue" stroke="midnightblue" points="618.45,-374.85 626.69,-368.19 616.1,-368.25 618.45,-374.85"/>
</g>
<!-- Node29 -->
<g id="node29" class="node">
<title>Node29</title>
<g id="a_node29"><a xlink:href="group__shapes__polygon.html#ga24be160074502dce7ff8a78361d4b074" target="_top" xlink:title="A polygon triangle specified by size&#45;angle&#45;size with vertex rounding.">
<polygon fill="white" stroke="black" points="471.5,-370.93 471.5,-389.93 564.5,-389.93 564.5,-370.93 471.5,-370.93"/>
<text text-anchor="middle" x="518" y="-377.93" font-family="Helvetica,sans-Serif" font-size="10.00">pg_triangle_sas</text>
</a>
</g>
</g>
<!-- Node26&#45;&gt;Node29 -->
<g id="edge52" class="edge">
<title>Node26&#45;&gt;Node29</title>
<path fill="none" stroke="midnightblue" d="M616.79,-368.41C599.59,-370.52 580.92,-372.82 564.55,-374.83"/>
<polygon fill="midnightblue" stroke="midnightblue" points="617.23,-371.88 626.73,-367.18 616.37,-364.93 617.23,-371.88"/>
</g>
<!-- Node30 -->
<g id="node30" class="node">
<title>Node30</title>
<g id="a_node30"><a xlink:href="group__shapes__polygon.html#gab9843df753e0537b490ac67cec6e31a9" target="_top" xlink:title="A polygon triangle specified by three side lengths with vertex rounding.">
<polygon fill="white" stroke="black" points="472,-332.93 472,-351.93 564,-351.93 564,-332.93 472,-332.93"/>
<text text-anchor="middle" x="518" y="-339.93" font-family="Helvetica,sans-Serif" font-size="10.00">pg_triangle_sss</text>
</a>
</g>
</g>
<!-- Node26&#45;&gt;Node30 -->
<g id="edge56" class="edge">
<title>Node26&#45;&gt;Node30</title>
<path fill="none" stroke="midnightblue" d="M616.7,-354.45C599.34,-352.31 580.49,-349.99 564.03,-347.97"/>
<polygon fill="midnightblue" stroke="midnightblue" points="616.37,-357.93 626.73,-355.68 617.23,-350.99 616.37,-357.93"/>
</g>
<!-- Node29&#45;&gt;Node12 -->
<g id="edge55" class="edge">
<title>Node29&#45;&gt;Node12</title>
<path fill="none" stroke="midnightblue" d="M479.12,-366.34C476.29,-364.82 473.55,-363.19 471,-361.43 451.83,-348.26 456.37,-332.62 435,-323.43 375.39,-297.79 351.63,-306.47 289,-323.43 254.93,-332.66 220.57,-357.09 203.17,-370.78"/>
<polygon fill="midnightblue" stroke="midnightblue" points="477.77,-369.57 488.3,-370.77 480.81,-363.27 477.77,-369.57"/>
</g>
<!-- Node29&#45;&gt;Node21 -->
<g id="edge53" class="edge">
<title>Node29&#45;&gt;Node21</title>
<path fill="none" stroke="midnightblue" d="M476.32,-365.67C474.44,-364.37 472.65,-362.96 471,-361.43 445.03,-337.4 461.79,-313.54 435,-290.43 427.72,-284.15 418.73,-279.5 409.61,-276.06"/>
<polygon fill="midnightblue" stroke="midnightblue" points="474.63,-368.74 485.04,-370.74 478.15,-362.69 474.63,-368.74"/>
</g>
<!-- Node29&#45;&gt;Node22 -->
<g id="edge54" class="edge">
<title>Node29&#45;&gt;Node22</title>
<path fill="none" stroke="midnightblue" d="M468.21,-368.39C446.69,-363.08 421.77,-356.93 401.58,-351.95"/>
<polygon fill="midnightblue" stroke="midnightblue" points="467.59,-371.85 478.14,-370.84 469.27,-365.05 467.59,-371.85"/>
</g>
<!-- Node30&#45;&gt;Node17 -->
<g id="edge57" class="edge">
<title>Node30&#45;&gt;Node17</title>
<path fill="none" stroke="midnightblue" d="M482.81,-327.74C478.54,-325.03 474.46,-321.93 471,-318.43 446.13,-293.27 462.52,-269.67 435,-247.43 430.17,-243.53 424.63,-240.43 418.8,-237.95"/>
<polygon fill="midnightblue" stroke="midnightblue" points="481.29,-330.9 491.73,-332.76 484.73,-324.8 481.29,-330.9"/>
</g>
<!-- Node31&#45;&gt;Node17 -->
<g id="edge60" class="edge">
<title>Node31&#45;&gt;Node17</title>
<path fill="none" stroke="midnightblue" d="M640.92,-296.46C583.36,-282.37 463.92,-253.13 402.04,-237.99"/>
<polygon fill="midnightblue" stroke="midnightblue" points="640.37,-299.93 650.92,-298.91 642.04,-293.13 640.37,-299.93"/>
</g>
</g>
</svg>
