<?xml version="1.0" encoding="UTF-8" standalone="no"?>
<!DOCTYPE svg PUBLIC "-//W3C//DTD SVG 1.1//EN"
 "http://www.w3.org/Graphics/SVG/1.1/DTD/svg11.dtd">
<!-- Generated by graphviz version 2.43.0 (0)
 -->
<!-- Title: Joint Pages: 1 -->
<svg width="375pt" height="37pt"
 viewBox="0.00 0.00 375.00 36.78" xmlns="http://www.w3.org/2000/svg" xmlns:xlink="http://www.w3.org/1999/xlink">
<g id="graph0" class="graph" transform="scale(1 1) rotate(0) translate(4 32.78)">
<title>Joint</title>
<polygon fill="white" stroke="transparent" points="-4,4 -4,-32.78 371,-32.78 371,4 -4,4"/>
<!-- Node3 -->
<g id="node1" class="node">
<title>Node3</title>
<g id="a_node1"><a xlink:href="group__models__3d__joint__dovetail__screw.html" target="_top" xlink:title="Models for constructing 3d dovetail joints with optional screw and nut fastener.">
<polygon fill="white" stroke="black" points="367,-28.78 277,-28.78 277,-9.78 367,-9.78 367,-28.78"/>
<text text-anchor="middle" x="322" y="-16.78" font-family="Helvetica,sans-Serif" font-size="10.00">Dovetail Screw</text>
</a>
</g>
</g>
<!-- Node1 -->
<g id="node2" class="node">
<title>Node1</title>
<g id="a_node2"><a xlink:title="Models for connecting 3d members.">
<polygon fill="#bfbfbf" stroke="black" points="142,-28.78 104,-28.78 104,-9.78 142,-9.78 142,-28.78"/>
<text text-anchor="middle" x="123" y="-16.78" font-family="Helvetica,sans-Serif" font-size="10.00">Joint</text>
</a>
</g>
</g>
<!-- Node1&#45;&gt;Node3 -->
<g id="edge2" class="edge">
<title>Node1&#45;&gt;Node3</title>
<path fill="none" stroke="black" d="M152.36,-19.28C184.94,-19.28 238.81,-19.28 276.88,-19.28"/>
<polygon fill="black" stroke="black" points="152.18,-15.78 142.18,-19.28 152.18,-22.78 152.18,-15.78"/>
</g>
<!-- Node1&#45;&gt;Node3 -->
<g id="edge3" class="edge">
<title>Node1&#45;&gt;Node3</title>
<path fill="none" stroke="darkgreen" stroke-dasharray="5,2" d="M142.3,-10.65C147.86,-8.45 154.07,-6.39 160,-5.28 203.25,2.84 215.27,-0.4 259,-5.28 267.55,-6.23 276.65,-7.9 285.17,-9.77"/>
<text text-anchor="middle" x="209.5" y="-8.28" font-family="Helvetica,sans-Serif" font-size="10.00">dovetail_screw.scad</text>
</g>
<!-- Node2 -->
<g id="node3" class="node">
<title>Node2</title>
<g id="a_node3"><a xlink:href="group__models__3d.html" target="_top" xlink:title="3d black&#45;box models of design components.">
<polygon fill="white" stroke="black" points="67,-28.78 0,-28.78 0,-9.78 67,-9.78 67,-28.78"/>
<text text-anchor="middle" x="33.5" y="-16.78" font-family="Helvetica,sans-Serif" font-size="10.00">3d Models</text>
</a>
</g>
</g>
<!-- Node2&#45;&gt;Node1 -->
<g id="edge1" class="edge">
<title>Node2&#45;&gt;Node1</title>
<path fill="none" stroke="black" d="M77.18,-19.28C86.59,-19.28 96.07,-19.28 103.87,-19.28"/>
<polygon fill="black" stroke="black" points="77.08,-15.78 67.08,-19.28 77.08,-22.78 77.08,-15.78"/>
</g>
</g>
</svg>
