<?xml version="1.0" encoding="UTF-8" standalone="no"?>
<!DOCTYPE svg PUBLIC "-//W3C//DTD SVG 1.1//EN"
 "http://www.w3.org/Graphics/SVG/1.1/DTD/svg11.dtd">
<!-- Generated by graphviz version 2.43.0 (0)
 -->
<!-- Title: PCIe Expansion Pages: 1 -->
<svg width="303pt" height="29pt"
 viewBox="0.00 0.00 303.00 28.50" xmlns="http://www.w3.org/2000/svg" xmlns:xlink="http://www.w3.org/1999/xlink">
<g id="graph0" class="graph" transform="scale(1 1) rotate(0) translate(4 24.5)">
<title>PCIe Expansion</title>
<polygon fill="white" stroke="transparent" points="-4,4 -4,-24.5 299,-24.5 299,4 -4,4"/>
<!-- Node1 -->
<g id="node1" class="node">
<title>Node1</title>
<g id="a_node1"><a xlink:title="PCI Express expansion chassis and/or enclosure generator.">
<polygon fill="#bfbfbf" stroke="black" points="92,-19 0,-19 0,0 92,0 92,-19"/>
<text text-anchor="middle" x="46" y="-7" font-family="Helvetica,sans-Serif" font-size="10.00">PCIe Expansion</text>
</a>
</g>
</g>
<!-- Node2 -->
<g id="node2" class="node">
<title>Node2</title>
<g id="a_node2"><a xlink:href="group__parts__3d__computer.html" target="_top" xlink:title="Mechanical computer parts.">
<polygon fill="white" stroke="black" points="295,-19 230,-19 230,0 295,0 295,-19"/>
<text text-anchor="middle" x="262.5" y="-7" font-family="Helvetica,sans-Serif" font-size="10.00">Computer</text>
</a>
</g>
</g>
<!-- Node1&#45;&gt;Node2 -->
<g id="edge2" class="edge">
<title>Node1&#45;&gt;Node2</title>
<path fill="none" stroke="darkgreen" stroke-dasharray="5,2" d="M92.23,-9.5C133.53,-9.5 193.52,-9.5 229.89,-9.5"/>
<text text-anchor="middle" x="161" y="-12.5" font-family="Helvetica,sans-Serif" font-size="10.00">pcie_expansion.scad</text>
</g>
<!-- Node2&#45;&gt;Node1 -->
<g id="edge1" class="edge">
<title>Node2&#45;&gt;Node1</title>
<path fill="none" stroke="black" d="M219.73,-7.69C217.11,-7.62 214.52,-7.55 212,-7.5 166.68,-6.58 155.33,-6.78 110,-7.5 104.2,-7.59 98.1,-7.73 92.08,-7.9"/>
<polygon fill="black" stroke="black" points="219.71,-11.19 229.82,-8.03 219.94,-4.2 219.71,-11.19"/>
</g>
</g>
</svg>
