<?xml version="1.0" encoding="UTF-8" standalone="no"?>
<!DOCTYPE svg PUBLIC "-//W3C//DTD SVG 1.1//EN"
 "http://www.w3.org/Graphics/SVG/1.1/DTD/svg11.dtd">
<!-- Generated by graphviz version 2.43.0 (0)
 -->
<!-- Title: extrude_linear_mss Pages: 1 -->
<svg width="426pt" height="332pt"
 viewBox="0.00 0.00 426.00 332.00" xmlns="http://www.w3.org/2000/svg" xmlns:xlink="http://www.w3.org/1999/xlink">
<g id="graph0" class="graph" transform="scale(1 1) rotate(0) translate(4 328)">
<title>extrude_linear_mss</title>
<polygon fill="white" stroke="transparent" points="-4,4 -4,-328 422,-328 422,4 -4,4"/>
<!-- Node1 -->
<g id="node1" class="node">
<title>Node1</title>
<g id="a_node1"><a xlink:title="Linearly extrude a 2d shape with multi&#45;segment uniformly&#45;spaced profile scaling.">
<polygon fill="#bfbfbf" stroke="black" points="305,-152.5 305,-171.5 418,-171.5 418,-152.5 305,-152.5"/>
<text text-anchor="middle" x="361.5" y="-159.5" font-family="Helvetica,sans-Serif" font-size="10.00">extrude_linear_mss</text>
</a>
</g>
</g>
<!-- Node2 -->
<g id="node2" class="node">
<title>Node2</title>
<g id="a_node2"><a xlink:href="group__parts__3d__motion__bearing__linear__rod.html#ga0064887f7c89f8915895c0243bec4a4c" target="_top" xlink:title="Transform 2d or 3d shape into a linear rod ball or sled bearing.">
<polygon fill="white" stroke="black" points="153,-304.5 153,-323.5 260,-323.5 260,-304.5 153,-304.5"/>
<text text-anchor="middle" x="206.5" y="-311.5" font-family="Helvetica,sans-Serif" font-size="10.00">bearing_linear_rod</text>
</a>
</g>
</g>
<!-- Node1&#45;&gt;Node2 -->
<g id="edge1" class="edge">
<title>Node1&#45;&gt;Node2</title>
<path fill="none" stroke="midnightblue" d="M352.41,-181.07C339.19,-209.96 310.23,-264.69 269,-295 263.78,-298.84 257.77,-301.91 251.59,-304.37"/>
<polygon fill="midnightblue" stroke="midnightblue" points="355.72,-182.24 356.56,-171.68 349.32,-179.41 355.72,-182.24"/>
</g>
<!-- Node3 -->
<g id="node3" class="node">
<title>Node3</title>
<g id="a_node3"><a xlink:href="group__parts__3d__fastener__catch__latch.html#ga26a9933aa6d33599daab1be8d632c430" target="_top" xlink:title="A catch latch generator with configurable profile.">
<polygon fill="white" stroke="black" points="170.5,-266.5 170.5,-285.5 242.5,-285.5 242.5,-266.5 170.5,-266.5"/>
<text text-anchor="middle" x="206.5" y="-273.5" font-family="Helvetica,sans-Serif" font-size="10.00">catch_latch</text>
</a>
</g>
</g>
<!-- Node1&#45;&gt;Node3 -->
<g id="edge2" class="edge">
<title>Node1&#45;&gt;Node3</title>
<path fill="none" stroke="midnightblue" d="M347.86,-179.82C331.84,-201.13 302.27,-236.51 269,-257 261.01,-261.92 251.64,-265.66 242.66,-268.46"/>
<polygon fill="midnightblue" stroke="midnightblue" points="350.78,-181.76 353.87,-171.62 345.13,-177.62 350.78,-181.76"/>
</g>
<!-- Node4 -->
<g id="node4" class="node">
<title>Node4</title>
<g id="a_node4"><a xlink:href="group__parts__3d__fastener__clamps.html#gad5d667c41776480785c62759c61a137e" target="_top" xlink:title="A clamp, bushing, and/or grip for wire, hose, and/or pipe wall penetrations.">
<polygon fill="white" stroke="black" points="175,-152.5 175,-171.5 238,-171.5 238,-152.5 175,-152.5"/>
<text text-anchor="middle" x="206.5" y="-159.5" font-family="Helvetica,sans-Serif" font-size="10.00">clamp_cg</text>
</a>
</g>
</g>
<!-- Node1&#45;&gt;Node4 -->
<g id="edge3" class="edge">
<title>Node1&#45;&gt;Node4</title>
<path fill="none" stroke="midnightblue" d="M294.64,-162C274.93,-162 254.27,-162 238.01,-162"/>
<polygon fill="midnightblue" stroke="midnightblue" points="294.83,-165.5 304.83,-162 294.83,-158.5 294.83,-165.5"/>
</g>
<!-- Node7 -->
<g id="node7" class="node">
<title>Node7</title>
<g id="a_node7"><a xlink:href="group__parts__3d__fastener__clamps.html#gac715fdab9961aff45be668fb23556835" target="_top" xlink:title="A one piece zip tie clamp to secure wires or provide strain relief.">
<polygon fill="white" stroke="black" points="167.5,-228.5 167.5,-247.5 245.5,-247.5 245.5,-228.5 167.5,-228.5"/>
<text text-anchor="middle" x="206.5" y="-235.5" font-family="Helvetica,sans-Serif" font-size="10.00">clamp_zt_1p</text>
</a>
</g>
</g>
<!-- Node1&#45;&gt;Node7 -->
<g id="edge6" class="edge">
<title>Node1&#45;&gt;Node7</title>
<path fill="none" stroke="midnightblue" d="M338.9,-177.69C320.9,-190.2 294.23,-207.48 269,-219 261.07,-222.62 252.26,-225.8 243.85,-228.47"/>
<polygon fill="midnightblue" stroke="midnightblue" points="341.32,-180.26 347.47,-171.63 337.28,-174.55 341.32,-180.26"/>
</g>
<!-- Node8 -->
<g id="node8" class="node">
<title>Node8</title>
<g id="a_node8"><a xlink:href="group__parts__3d__fastener__mounts.html#ga0cbac43259ec43fff7785057277bcef3" target="_top" xlink:title="A screw mount post with screw bore and optional fins.">
<polygon fill="white" stroke="black" points="0,-57.5 0,-76.5 108,-76.5 108,-57.5 0,-57.5"/>
<text text-anchor="middle" x="54" y="-64.5" font-family="Helvetica,sans-Serif" font-size="10.00">mount_screw_post</text>
</a>
</g>
</g>
<!-- Node1&#45;&gt;Node8 -->
<g id="edge8" class="edge">
<title>Node1&#45;&gt;Node8</title>
<path fill="none" stroke="midnightblue" d="M349.64,-143.81C334.77,-120.89 305.67,-82.59 269,-67 213.61,-43.45 142.63,-49.7 97.97,-57.47"/>
<polygon fill="midnightblue" stroke="midnightblue" points="346.69,-145.69 354.96,-152.31 352.62,-141.98 346.69,-145.69"/>
</g>
<!-- Node9 -->
<g id="node9" class="node">
<title>Node9</title>
<g id="a_node9"><a xlink:href="group__models__3d__misc__omdl__logo.html#gab176f64dad7e83d4fb056be44b71f630" target="_top" xlink:title="Standard omdl logo.">
<polygon fill="white" stroke="black" points="172.5,-114.5 172.5,-133.5 240.5,-133.5 240.5,-114.5 172.5,-114.5"/>
<text text-anchor="middle" x="206.5" y="-121.5" font-family="Helvetica,sans-Serif" font-size="10.00">omdl_logo</text>
</a>
</g>
</g>
<!-- Node1&#45;&gt;Node9 -->
<g id="edge9" class="edge">
<title>Node1&#45;&gt;Node9</title>
<path fill="none" stroke="midnightblue" d="M311.88,-149.92C288.65,-144.15 261.45,-137.4 240.65,-132.23"/>
<polygon fill="midnightblue" stroke="midnightblue" points="311.34,-153.4 321.89,-152.41 313.03,-146.6 311.34,-153.4"/>
</g>
<!-- Node10 -->
<g id="node10" class="node">
<title>Node10</title>
<g id="a_node10"><a xlink:href="group__parts__3d__computer__pci__bracket.html#gaf56631cf80d8e5f0b77736b17b94ecd9" target="_top" xlink:title="PCI slot cover and adapter card bracket generator.">
<polygon fill="white" stroke="black" points="170.5,-0.5 170.5,-19.5 242.5,-19.5 242.5,-0.5 170.5,-0.5"/>
<text text-anchor="middle" x="206.5" y="-7.5" font-family="Helvetica,sans-Serif" font-size="10.00">pci_bracket</text>
</a>
</g>
</g>
<!-- Node1&#45;&gt;Node10 -->
<g id="edge11" class="edge">
<title>Node1&#45;&gt;Node10</title>
<path fill="none" stroke="midnightblue" d="M351.54,-143.2C337.54,-115.66 307.98,-64.32 269,-34 261.13,-27.88 251.51,-23.14 242.23,-19.56"/>
<polygon fill="midnightblue" stroke="midnightblue" points="348.42,-144.78 355.99,-152.19 354.69,-141.68 348.42,-144.78"/>
</g>
<!-- Node11 -->
<g id="node11" class="node">
<title>Node11</title>
<g id="a_node11"><a xlink:href="group__parts__3d__enclosure__project__box__rectangle.html#ga24cdfe5fd4bb74b75409d9afdbe1f0c0" target="_top" xlink:title="A rectangular box maker for project boxes, enclosures and housings.">
<polygon fill="white" stroke="black" points="144,-190.5 144,-209.5 269,-209.5 269,-190.5 144,-190.5"/>
<text text-anchor="middle" x="206.5" y="-197.5" font-family="Helvetica,sans-Serif" font-size="10.00">project_box_rectangle</text>
</a>
</g>
</g>
<!-- Node1&#45;&gt;Node11 -->
<g id="edge12" class="edge">
<title>Node1&#45;&gt;Node11</title>
<path fill="none" stroke="midnightblue" d="M312.02,-174.04C290.65,-179.35 265.89,-185.5 245.83,-190.48"/>
<polygon fill="midnightblue" stroke="midnightblue" points="313.03,-177.4 321.89,-171.59 311.34,-170.6 313.03,-177.4"/>
</g>
<!-- Node12 -->
<g id="node12" class="node">
<title>Node12</title>
<g id="a_node12"><a xlink:href="group__models__3d__fastener__screws.html#gaad990187680f7ac947e555483d854bfa" target="_top" xlink:title="Gapped fastener bore with engagement cylinders for self&#45;forming threads.">
<polygon fill="white" stroke="black" points="161.5,-76.5 161.5,-95.5 251.5,-95.5 251.5,-76.5 161.5,-76.5"/>
<text text-anchor="middle" x="206.5" y="-83.5" font-family="Helvetica,sans-Serif" font-size="10.00">screw_bore_tsf</text>
</a>
</g>
</g>
<!-- Node1&#45;&gt;Node12 -->
<g id="edge15" class="edge">
<title>Node1&#45;&gt;Node12</title>
<path fill="none" stroke="midnightblue" d="M338.9,-146.31C320.9,-133.8 294.23,-116.52 269,-105 261.07,-101.38 252.26,-98.2 243.85,-95.53"/>
<polygon fill="midnightblue" stroke="midnightblue" points="337.28,-149.45 347.47,-152.37 341.32,-143.74 337.28,-149.45"/>
</g>
<!-- Node5 -->
<g id="node5" class="node">
<title>Node5</title>
<g id="a_node5"><a xlink:href="group__parts__3d__computer__pcie__expansion.html#gab6fb1c9f8f6550633467f4ec0bd3f983" target="_top" xlink:title="Generate a PCI Express expansion open chassis or closed enclosure.">
<polygon fill="white" stroke="black" points="8,-190.5 8,-209.5 100,-209.5 100,-190.5 8,-190.5"/>
<text text-anchor="middle" x="54" y="-197.5" font-family="Helvetica,sans-Serif" font-size="10.00">pcie_expansion</text>
</a>
</g>
</g>
<!-- Node4&#45;&gt;Node5 -->
<g id="edge4" class="edge">
<title>Node4&#45;&gt;Node5</title>
<path fill="none" stroke="midnightblue" d="M164.78,-172.28C142.33,-177.95 114.66,-184.94 92.71,-190.48"/>
<polygon fill="midnightblue" stroke="midnightblue" points="165.84,-175.62 174.68,-169.78 164.13,-168.84 165.84,-175.62"/>
</g>
<!-- Node6 -->
<g id="node6" class="node">
<title>Node6</title>
<g id="a_node6"><a xlink:href="group__parts__3d__enclosure__power__strip.html#ga33509a1811b27fe7f3687957d4d32460" target="_top" xlink:title="A power strip generator for single gang electrical receptacles.">
<polygon fill="white" stroke="black" points="9,-152.5 9,-171.5 99,-171.5 99,-152.5 9,-152.5"/>
<text text-anchor="middle" x="54" y="-159.5" font-family="Helvetica,sans-Serif" font-size="10.00">power_strip_sg</text>
</a>
</g>
</g>
<!-- Node4&#45;&gt;Node6 -->
<g id="edge5" class="edge">
<title>Node4&#45;&gt;Node6</title>
<path fill="none" stroke="midnightblue" d="M164.52,-162C144.29,-162 119.84,-162 99.19,-162"/>
<polygon fill="midnightblue" stroke="midnightblue" points="164.68,-165.5 174.68,-162 164.68,-158.5 164.68,-165.5"/>
</g>
<!-- Node7&#45;&gt;Node5 -->
<g id="edge7" class="edge">
<title>Node7&#45;&gt;Node5</title>
<path fill="none" stroke="midnightblue" d="M157.82,-225.96C136.79,-220.65 112.43,-214.5 92.7,-209.52"/>
<polygon fill="midnightblue" stroke="midnightblue" points="156.97,-229.36 167.52,-228.41 158.68,-222.57 156.97,-229.36"/>
</g>
<!-- Node9&#45;&gt;Node6 -->
<g id="edge10" class="edge">
<title>Node9&#45;&gt;Node6</title>
<path fill="none" stroke="midnightblue" d="M162.7,-134.81C140.65,-140.37 114,-147.1 92.72,-152.48"/>
<polygon fill="midnightblue" stroke="midnightblue" points="163.63,-138.18 172.47,-132.34 161.92,-131.39 163.63,-138.18"/>
</g>
<!-- Node11&#45;&gt;Node5 -->
<g id="edge13" class="edge">
<title>Node11&#45;&gt;Node5</title>
<path fill="none" stroke="midnightblue" d="M133.84,-200C122.38,-200 110.81,-200 100.2,-200"/>
<polygon fill="midnightblue" stroke="midnightblue" points="133.85,-203.5 143.85,-200 133.85,-196.5 133.85,-203.5"/>
</g>
<!-- Node11&#45;&gt;Node6 -->
<g id="edge14" class="edge">
<title>Node11&#45;&gt;Node6</title>
<path fill="none" stroke="midnightblue" d="M157.82,-187.96C136.79,-182.65 112.43,-176.5 92.7,-171.52"/>
<polygon fill="midnightblue" stroke="midnightblue" points="156.97,-191.36 167.52,-190.41 158.68,-184.57 156.97,-191.36"/>
</g>
<!-- Node12&#45;&gt;Node8 -->
<g id="edge16" class="edge">
<title>Node12&#45;&gt;Node8</title>
<path fill="none" stroke="midnightblue" d="M151.16,-79.14C137.12,-77.37 122.03,-75.46 108.06,-73.7"/>
<polygon fill="midnightblue" stroke="midnightblue" points="150.8,-82.62 161.16,-80.4 151.68,-75.68 150.8,-82.62"/>
</g>
</g>
</svg>
