<?xml version="1.0" encoding="UTF-8" standalone="no"?>
<!DOCTYPE svg PUBLIC "-//W3C//DTD SVG 1.1//EN"
 "http://www.w3.org/Graphics/SVG/1.1/DTD/svg11.dtd">
<!-- Generated by graphviz version 2.43.0 (0)
 -->
<!-- Title: select_common_2d_shape Pages: 1 -->
<svg width="637pt" height="838pt"
 viewBox="0.00 0.00 637.00 838.00" xmlns="http://www.w3.org/2000/svg" xmlns:xlink="http://www.w3.org/1999/xlink">
<g id="graph0" class="graph" transform="scale(1 1) rotate(0) translate(4 834)">
<title>select_common_2d_shape</title>
<polygon fill="white" stroke="transparent" points="-4,4 -4,-834 633,-834 633,4 -4,4"/>
<!-- Node1 -->
<g id="node1" class="node">
<title>Node1</title>
<g id="a_node1"><a xlink:title="Select configure and construct one of the available 2d shapes.">
<polygon fill="#bfbfbf" stroke="black" points="0,-342.5 0,-361.5 146,-361.5 146,-342.5 0,-342.5"/>
<text text-anchor="middle" x="73" y="-349.5" font-family="Helvetica,sans-Serif" font-size="10.00">select_common_2d_shape</text>
</a>
</g>
</g>
<!-- Node2 -->
<g id="node2" class="node">
<title>Node2</title>
<g id="a_node2"><a xlink:href="group__datatypes__iterable__operate.html#ga3d37c2b0067d1661724bd89955c8f6ce" target="_top" xlink:title="Returns an element from an iterable if it exists, or a default value if not.">
<polygon fill="white" stroke="black" points="351.5,-342.5 351.5,-361.5 430.5,-361.5 430.5,-342.5 351.5,-342.5"/>
<text text-anchor="middle" x="391" y="-349.5" font-family="Helvetica,sans-Serif" font-size="10.00">defined_e_or</text>
</a>
</g>
</g>
<!-- Node1&#45;&gt;Node2 -->
<g id="edge1" class="edge">
<title>Node1&#45;&gt;Node2</title>
<path fill="none" stroke="midnightblue" d="M146.1,-352C205.75,-352 288.86,-352 341.02,-352"/>
<polygon fill="midnightblue" stroke="midnightblue" points="341.35,-355.5 351.35,-352 341.35,-348.5 341.35,-355.5"/>
</g>
<!-- Node3 -->
<g id="node3" class="node">
<title>Node3</title>
<g id="a_node3"><a xlink:href="group__datatypes__iterable__operate.html#gaa10da05023bd79eec85459298bc937c2" target="_top" xlink:title="Returns the list element or scalar numeric value if defined, otherwise returns the default value.">
<polygon fill="white" stroke="black" points="192,-627.5 192,-646.5 283,-646.5 283,-627.5 192,-627.5"/>
<text text-anchor="middle" x="237.5" y="-634.5" font-family="Helvetica,sans-Serif" font-size="10.00">defined_eon_or</text>
</a>
</g>
</g>
<!-- Node1&#45;&gt;Node3 -->
<g id="edge2" class="edge">
<title>Node1&#45;&gt;Node3</title>
<path fill="none" stroke="midnightblue" d="M75.06,-361.56C79.79,-399.65 102.36,-542.26 182,-618 183.65,-619.57 185.44,-621.01 187.33,-622.34"/>
<polygon fill="midnightblue" stroke="midnightblue" points="185.72,-625.45 196.13,-627.41 189.21,-619.38 185.72,-625.45"/>
</g>
<!-- Node4 -->
<g id="node4" class="node">
<title>Node4</title>
<g id="a_node4"><a xlink:href="group__common__console.html#gacb9540a228d2c15623784ff0b0653722" target="_top" xlink:title="Output information message to console.">
<polygon fill="white" stroke="black" points="209.5,-747.5 209.5,-766.5 265.5,-766.5 265.5,-747.5 209.5,-747.5"/>
<text text-anchor="middle" x="237.5" y="-754.5" font-family="Helvetica,sans-Serif" font-size="10.00">log_info</text>
</a>
</g>
</g>
<!-- Node1&#45;&gt;Node4 -->
<g id="edge3" class="edge">
<title>Node1&#45;&gt;Node4</title>
<path fill="none" stroke="midnightblue" d="M76.84,-361.66C88.17,-399.82 131.97,-543.39 182,-656 195.28,-685.89 213.93,-718.97 225.61,-738.86"/>
<polygon fill="midnightblue" stroke="midnightblue" points="222.62,-740.68 230.73,-747.5 228.64,-737.11 222.62,-740.68"/>
</g>
<!-- Node6 -->
<g id="node6" class="node">
<title>Node6</title>
<g id="a_node6"><a xlink:href="group__shapes__polygon.html#ga27def935f8b9e4be2e0b6a632b680c4c" target="_top" xlink:title="A polygon edge round with constant radius between two vectors.">
<polygon fill="white" stroke="black" points="188.5,-589.5 188.5,-608.5 286.5,-608.5 286.5,-589.5 188.5,-589.5"/>
<text text-anchor="middle" x="237.5" y="-596.5" font-family="Helvetica,sans-Serif" font-size="10.00">pg_corner_round</text>
</a>
</g>
</g>
<!-- Node1&#45;&gt;Node6 -->
<g id="edge5" class="edge">
<title>Node1&#45;&gt;Node6</title>
<path fill="none" stroke="midnightblue" d="M75.83,-361.84C82.86,-396.82 111.3,-516.48 182,-580 183.89,-581.7 185.94,-583.25 188.11,-584.66"/>
<polygon fill="midnightblue" stroke="midnightblue" points="186.43,-587.73 196.88,-589.45 189.78,-581.59 186.43,-587.73"/>
</g>
<!-- Node8 -->
<g id="node8" class="node">
<title>Node8</title>
<g id="a_node8"><a xlink:href="group__shapes__polygon.html#ga9198015701fe49179f744884a6884443" target="_top" xlink:title="A polygon elliptical sector.">
<polygon fill="white" stroke="black" points="182,-551.5 182,-570.5 293,-570.5 293,-551.5 182,-551.5"/>
<text text-anchor="middle" x="237.5" y="-558.5" font-family="Helvetica,sans-Serif" font-size="10.00">pg_elliptical_sector</text>
</a>
</g>
</g>
<!-- Node1&#45;&gt;Node8 -->
<g id="edge7" class="edge">
<title>Node1&#45;&gt;Node8</title>
<path fill="none" stroke="midnightblue" d="M76.86,-361.9C86.38,-393.09 119.91,-490.27 182,-542 184.02,-543.68 186.2,-545.22 188.48,-546.63"/>
<polygon fill="midnightblue" stroke="midnightblue" points="187.21,-549.91 197.7,-551.41 190.44,-543.7 187.21,-549.91"/>
</g>
<!-- Node10 -->
<g id="node10" class="node">
<title>Node10</title>
<g id="a_node10"><a xlink:href="group__shapes__polygon.html#ga3587861a50ac45aeabace1df584094d1" target="_top" xlink:title="A n&#45;sided regular polygon with vertex rounding.">
<polygon fill="white" stroke="black" points="362,-228.5 362,-247.5 420,-247.5 420,-228.5 362,-228.5"/>
<text text-anchor="middle" x="391" y="-235.5" font-family="Helvetica,sans-Serif" font-size="10.00">pg_ngon</text>
</a>
</g>
</g>
<!-- Node1&#45;&gt;Node10 -->
<g id="edge9" class="edge">
<title>Node1&#45;&gt;Node10</title>
<path fill="none" stroke="midnightblue" d="M89.58,-342.38C110.13,-330.02 147.69,-308.56 182,-295 239.58,-272.23 309.56,-255.09 351.9,-245.81"/>
<polygon fill="midnightblue" stroke="midnightblue" points="352.75,-249.21 361.78,-243.68 351.27,-242.37 352.75,-249.21"/>
</g>
<!-- Node14 -->
<g id="node14" class="node">
<title>Node14</title>
<g id="a_node14"><a xlink:href="group__shapes__polygon.html#ga9c1bd914355d92f9d66ba0e5c2d9dbac" target="_top" xlink:title="A polygon rectangle with vertex rounding.">
<polygon fill="white" stroke="black" points="197.5,-304.5 197.5,-323.5 277.5,-323.5 277.5,-304.5 197.5,-304.5"/>
<text text-anchor="middle" x="237.5" y="-311.5" font-family="Helvetica,sans-Serif" font-size="10.00">pg_rectangle</text>
</a>
</g>
</g>
<!-- Node1&#45;&gt;Node14 -->
<g id="edge13" class="edge">
<title>Node1&#45;&gt;Node14</title>
<path fill="none" stroke="midnightblue" d="M115.01,-342.41C137.04,-337.26 164.35,-330.87 187.5,-325.46"/>
<polygon fill="midnightblue" stroke="midnightblue" points="188.53,-328.81 197.47,-323.13 186.93,-322 188.53,-328.81"/>
</g>
<!-- Node15 -->
<g id="node15" class="node">
<title>Node15</title>
<g id="a_node15"><a xlink:href="group__shapes__polygon.html#ga22a29774c22e5cc9f3101ed0a0ed307a" target="_top" xlink:title="A polygon rectangle with side rounding.">
<polygon fill="white" stroke="black" points="190.5,-513.5 190.5,-532.5 284.5,-532.5 284.5,-513.5 190.5,-513.5"/>
<text text-anchor="middle" x="237.5" y="-520.5" font-family="Helvetica,sans-Serif" font-size="10.00">pg_rectangle_rs</text>
</a>
</g>
</g>
<!-- Node1&#45;&gt;Node15 -->
<g id="edge17" class="edge">
<title>Node1&#45;&gt;Node15</title>
<path fill="none" stroke="midnightblue" d="M83.2,-361.68C109.68,-389.55 186.32,-470.2 220.14,-505.78"/>
<polygon fill="midnightblue" stroke="midnightblue" points="217.97,-508.58 227.4,-513.42 223.05,-503.76 217.97,-508.58"/>
</g>
<!-- Node22 -->
<g id="node22" class="node">
<title>Node22</title>
<g id="a_node22"><a xlink:href="group__shapes__polygon.html#ga2ca38d6942a8955d3b483d1a60bf7ec3" target="_top" xlink:title="A polygon rhombus with vertex rounding.">
<polygon fill="white" stroke="black" points="199,-380.5 199,-399.5 276,-399.5 276,-380.5 199,-380.5"/>
<text text-anchor="middle" x="237.5" y="-387.5" font-family="Helvetica,sans-Serif" font-size="10.00">pg_rhombus</text>
</a>
</g>
</g>
<!-- Node1&#45;&gt;Node22 -->
<g id="edge26" class="edge">
<title>Node1&#45;&gt;Node22</title>
<path fill="none" stroke="midnightblue" d="M115.01,-361.59C137.55,-366.86 165.62,-373.42 189.1,-378.92"/>
<polygon fill="midnightblue" stroke="midnightblue" points="188.31,-382.33 198.85,-381.2 189.91,-375.51 188.31,-382.33"/>
</g>
<!-- Node23 -->
<g id="node23" class="node">
<title>Node23</title>
<g id="a_node23"><a xlink:href="group__shapes__polygon.html#gac7e2c70b3428b729efd86a675df794e6" target="_top" xlink:title="A polygon triangle specified by three coordinate points with vertex rounding.">
<polygon fill="white" stroke="black" points="343.5,-38.5 343.5,-57.5 438.5,-57.5 438.5,-38.5 343.5,-38.5"/>
<text text-anchor="middle" x="391" y="-45.5" font-family="Helvetica,sans-Serif" font-size="10.00">pg_triangle_ppp</text>
</a>
</g>
</g>
<!-- Node1&#45;&gt;Node23 -->
<g id="edge30" class="edge">
<title>Node1&#45;&gt;Node23</title>
<path fill="none" stroke="midnightblue" d="M74.71,-342.34C78.15,-303.24 96.55,-155.51 182,-86 204.67,-67.56 279.62,-57.35 333.03,-52.28"/>
<polygon fill="midnightblue" stroke="midnightblue" points="333.43,-55.76 343.07,-51.36 332.79,-48.79 333.43,-55.76"/>
</g>
<!-- Node27 -->
<g id="node27" class="node">
<title>Node27</title>
<g id="a_node27"><a xlink:href="group__shapes__polygon.html#gab9843df753e0537b490ac67cec6e31a9" target="_top" xlink:title="A polygon triangle specified by three side lengths with vertex rounding.">
<polygon fill="white" stroke="black" points="191.5,-95.5 191.5,-114.5 283.5,-114.5 283.5,-95.5 191.5,-95.5"/>
<text text-anchor="middle" x="237.5" y="-102.5" font-family="Helvetica,sans-Serif" font-size="10.00">pg_triangle_sss</text>
</a>
</g>
</g>
<!-- Node1&#45;&gt;Node27 -->
<g id="edge36" class="edge">
<title>Node1&#45;&gt;Node27</title>
<path fill="none" stroke="midnightblue" d="M78.41,-342.4C91.82,-313.65 134.19,-226.22 182,-162 192.79,-147.51 206.94,-132.81 218.11,-121.97"/>
<polygon fill="midnightblue" stroke="midnightblue" points="220.8,-124.24 225.64,-114.82 215.98,-119.17 220.8,-124.24"/>
</g>
<!-- Node29 -->
<g id="node29" class="node">
<title>Node29</title>
<g id="a_node29"><a xlink:href="group__shapes__common__2d.html#ga0e810e30a9ec109e004677036012c428" target="_top" xlink:title="A two&#45;dimensional star.">
<polygon fill="white" stroke="black" points="214,-171.5 214,-190.5 261,-190.5 261,-171.5 214,-171.5"/>
<text text-anchor="middle" x="237.5" y="-178.5" font-family="Helvetica,sans-Serif" font-size="10.00">star2d</text>
</a>
</g>
</g>
<!-- Node1&#45;&gt;Node29 -->
<g id="edge39" class="edge">
<title>Node1&#45;&gt;Node29</title>
<path fill="none" stroke="midnightblue" d="M83.2,-342.32C109.68,-314.45 186.32,-233.8 220.14,-198.22"/>
<polygon fill="midnightblue" stroke="midnightblue" points="223.05,-200.24 227.4,-190.58 217.97,-195.42 223.05,-200.24"/>
</g>
<!-- Node33 -->
<g id="node33" class="node">
<title>Node33</title>
<g id="a_node33"><a xlink:href="group__datatypes__list__operate.html#gab842ea235bf5fc40a14512083b49c8d2" target="_top" xlink:title="Convert a list of values to a concatenated string.">
<polygon fill="white" stroke="black" points="221.5,-19.5 221.5,-38.5 253.5,-38.5 253.5,-19.5 221.5,-19.5"/>
<text text-anchor="middle" x="237.5" y="-26.5" font-family="Helvetica,sans-Serif" font-size="10.00">strl</text>
</a>
</g>
</g>
<!-- Node1&#45;&gt;Node33 -->
<g id="edge48" class="edge">
<title>Node1&#45;&gt;Node33</title>
<path fill="none" stroke="midnightblue" d="M74.78,-342.32C78.57,-301.64 98.36,-142.54 182,-53 189.83,-44.61 201.12,-38.99 211.39,-35.3"/>
<polygon fill="midnightblue" stroke="midnightblue" points="212.67,-38.57 221.16,-32.24 210.57,-31.89 212.67,-38.57"/>
</g>
<!-- Node5 -->
<g id="node5" class="node">
<title>Node5</title>
<g id="a_node5"><a xlink:href="group__common__console.html#ga4fb6c985031c9b551777b2e9ebd2fc34" target="_top" xlink:title="Format the function call stack as a string.">
<polygon fill="white" stroke="black" points="369.5,-810.5 369.5,-829.5 412.5,-829.5 412.5,-810.5 369.5,-810.5"/>
<text text-anchor="middle" x="391" y="-817.5" font-family="Helvetica,sans-Serif" font-size="10.00">stack</text>
</a>
</g>
</g>
<!-- Node4&#45;&gt;Node5 -->
<g id="edge4" class="edge">
<title>Node4&#45;&gt;Node5</title>
<path fill="none" stroke="midnightblue" d="M256.17,-766.58C274.16,-776.09 303.01,-790.7 329,-801 338.8,-804.88 349.72,-808.5 359.59,-811.51"/>
<polygon fill="midnightblue" stroke="midnightblue" points="358.82,-814.93 369.4,-814.42 360.81,-808.22 358.82,-814.93"/>
</g>
<!-- Node7 -->
<g id="node7" class="node">
<title>Node7</title>
<g id="a_node7"><a xlink:href="group__math__polygon.html#gab7d8e1caabca732f450429f46b7b1d97" target="_top" xlink:title="Compute coordinates for a constant radius vertex round between two edge vectors in 2D.">
<polygon fill="white" stroke="black" points="329.5,-772.5 329.5,-791.5 452.5,-791.5 452.5,-772.5 329.5,-772.5"/>
<text text-anchor="middle" x="391" y="-779.5" font-family="Helvetica,sans-Serif" font-size="10.00">polygon_round_eve_p</text>
</a>
</g>
</g>
<!-- Node6&#45;&gt;Node7 -->
<g id="edge6" class="edge">
<title>Node6&#45;&gt;Node7</title>
<path fill="none" stroke="midnightblue" d="M280.48,-608.63C285.16,-611.08 289.49,-614.15 293,-618 337.74,-667.06 283.44,-714.69 329,-763 330.37,-764.45 331.85,-765.79 333.41,-767.03"/>
<polygon fill="midnightblue" stroke="midnightblue" points="331.55,-770 341.86,-772.42 335.32,-764.1 331.55,-770"/>
</g>
<!-- Node9 -->
<g id="node9" class="node">
<title>Node9</title>
<g id="a_node9"><a xlink:href="group__math__polygon.html#ga3eeb47a296630dd28b303cf190b58af4" target="_top" xlink:title="Compute coordinates for an elliptical sector in 2D.">
<polygon fill="white" stroke="black" points="339.5,-723 339.5,-753 442.5,-753 442.5,-723 339.5,-723"/>
<text text-anchor="start" x="347.5" y="-741" font-family="Helvetica,sans-Serif" font-size="10.00">polygon_elliptical</text>
<text text-anchor="middle" x="391" y="-730" font-family="Helvetica,sans-Serif" font-size="10.00">_sector_p</text>
</a>
</g>
</g>
<!-- Node8&#45;&gt;Node9 -->
<g id="edge8" class="edge">
<title>Node8&#45;&gt;Node9</title>
<path fill="none" stroke="midnightblue" d="M280.1,-570.6C284.89,-573.05 289.36,-576.13 293,-580 333.49,-623.05 291.2,-662.57 329,-708 331.88,-711.46 335.26,-714.56 338.92,-717.32"/>
<polygon fill="midnightblue" stroke="midnightblue" points="337.03,-720.27 347.31,-722.85 340.88,-714.42 337.03,-720.27"/>
</g>
<!-- Node11 -->
<g id="node11" class="node">
<title>Node11</title>
<g id="a_node11"><a xlink:href="group__math__polygon.html#ga8c717f95615525c0b53693ba1f5fdb69" target="_top" xlink:title="Compute coordinates for an n&#45;sided regular polygon in 2D.">
<polygon fill="white" stroke="black" points="505.5,-190.5 505.5,-209.5 612.5,-209.5 612.5,-190.5 505.5,-190.5"/>
<text text-anchor="middle" x="559" y="-197.5" font-family="Helvetica,sans-Serif" font-size="10.00">polygon_regular_p</text>
</a>
</g>
</g>
<!-- Node10&#45;&gt;Node11 -->
<g id="edge10" class="edge">
<title>Node10&#45;&gt;Node11</title>
<path fill="none" stroke="midnightblue" d="M420.16,-231.55C443.74,-226.16 478.02,-218.31 506.49,-211.79"/>
<polygon fill="midnightblue" stroke="midnightblue" points="507.32,-215.19 516.29,-209.55 505.76,-208.37 507.32,-215.19"/>
</g>
<!-- Node12 -->
<g id="node12" class="node">
<title>Node12</title>
<g id="a_node12"><a xlink:href="group__math__polygon.html#ga7a0eff64929a142fc507615f83e3bd58" target="_top" xlink:title="Compute coordinates that round all of the vertices between each adjacent edges in 2D.">
<polygon fill="white" stroke="black" points="489,-228.5 489,-247.5 629,-247.5 629,-228.5 489,-228.5"/>
<text text-anchor="middle" x="559" y="-235.5" font-family="Helvetica,sans-Serif" font-size="10.00">polygon_round_eve_all_p</text>
</a>
</g>
</g>
<!-- Node10&#45;&gt;Node12 -->
<g id="edge11" class="edge">
<title>Node10&#45;&gt;Node12</title>
<path fill="none" stroke="midnightblue" d="M420.16,-238C436.38,-238 457.65,-238 478.61,-238"/>
<polygon fill="midnightblue" stroke="midnightblue" points="478.86,-241.5 488.86,-238 478.86,-234.5 478.86,-241.5"/>
</g>
<!-- Node13 -->
<g id="node13" class="node">
<title>Node13</title>
<g id="a_node13"><a xlink:href="group__math__linear__algebra.html#gaeabe74699fd0a437bad9a1d442bfd111" target="_top" xlink:title="Translate all coordinates dimensions.">
<polygon fill="white" stroke="black" points="523.5,-304.5 523.5,-323.5 594.5,-323.5 594.5,-304.5 523.5,-304.5"/>
<text text-anchor="middle" x="559" y="-311.5" font-family="Helvetica,sans-Serif" font-size="10.00">translate_p</text>
</a>
</g>
</g>
<!-- Node10&#45;&gt;Node13 -->
<g id="edge12" class="edge">
<title>Node10&#45;&gt;Node13</title>
<path fill="none" stroke="midnightblue" d="M413.02,-247.63C442.09,-260.93 494.7,-285.02 527.92,-300.23"/>
<polygon fill="midnightblue" stroke="midnightblue" points="526.6,-303.47 537.15,-304.45 529.51,-297.11 526.6,-303.47"/>
</g>
<!-- Node14&#45;&gt;Node2 -->
<g id="edge14" class="edge">
<title>Node14&#45;&gt;Node2</title>
<path fill="none" stroke="midnightblue" d="M276.73,-323.59C296.63,-328.58 321.16,-334.73 342.29,-340.03"/>
<polygon fill="midnightblue" stroke="midnightblue" points="341.49,-343.44 352.05,-342.48 343.2,-336.65 341.49,-343.44"/>
</g>
<!-- Node14&#45;&gt;Node12 -->
<g id="edge15" class="edge">
<title>Node14&#45;&gt;Node12</title>
<path fill="none" stroke="midnightblue" d="M277.68,-304.68C335.73,-290.87 444.55,-264.99 508.19,-249.85"/>
<polygon fill="midnightblue" stroke="midnightblue" points="509.08,-253.23 518,-247.51 507.46,-246.42 509.08,-253.23"/>
</g>
<!-- Node14&#45;&gt;Node13 -->
<g id="edge16" class="edge">
<title>Node14&#45;&gt;Node13</title>
<path fill="none" stroke="midnightblue" d="M277.68,-314C337.22,-314 450.19,-314 513.01,-314"/>
<polygon fill="midnightblue" stroke="midnightblue" points="513.39,-317.5 523.39,-314 513.39,-310.5 513.39,-317.5"/>
</g>
<!-- Node15&#45;&gt;Node2 -->
<g id="edge18" class="edge">
<title>Node15&#45;&gt;Node2</title>
<path fill="none" stroke="midnightblue" d="M247.08,-513.32C271.77,-485.45 343.22,-404.8 374.75,-369.22"/>
<polygon fill="midnightblue" stroke="midnightblue" points="377.5,-371.38 381.51,-361.58 372.26,-366.74 377.5,-371.38"/>
</g>
<!-- Node15&#45;&gt;Node13 -->
<g id="edge25" class="edge">
<title>Node15&#45;&gt;Node13</title>
<path fill="none" stroke="midnightblue" d="M280.13,-532.56C284.92,-535.02 289.38,-538.11 293,-542 334.74,-586.81 280.37,-637.78 329,-675 372.77,-708.49 408.92,-708.08 453,-675 509.62,-632.5 545.68,-402.82 555.37,-333.69"/>
<polygon fill="midnightblue" stroke="midnightblue" points="558.84,-334.09 556.74,-323.7 551.91,-333.13 558.84,-334.09"/>
</g>
<!-- Node16 -->
<g id="node16" class="node">
<title>Node16</title>
<g id="a_node16"><a xlink:href="group__datatypes__scalar__operate.html#gac119300e8c83de0037f2d0a4d9f0ab5c" target="_top" xlink:title="Return given value, if defined, or a secondary value, if primary is not defined.">
<polygon fill="white" stroke="black" points="357,-456.5 357,-475.5 425,-475.5 425,-456.5 357,-456.5"/>
<text text-anchor="middle" x="391" y="-463.5" font-family="Helvetica,sans-Serif" font-size="10.00">defined_or</text>
</a>
</g>
</g>
<!-- Node15&#45;&gt;Node16 -->
<g id="edge19" class="edge">
<title>Node15&#45;&gt;Node16</title>
<path fill="none" stroke="midnightblue" d="M259.85,-513.36C278.04,-505.3 304.99,-493.76 329,-485 334.95,-482.83 341.28,-480.68 347.52,-478.66"/>
<polygon fill="midnightblue" stroke="midnightblue" points="348.73,-481.95 357.2,-475.59 346.61,-475.27 348.73,-481.95"/>
</g>
<!-- Node17 -->
<g id="node17" class="node">
<title>Node17</title>
<g id="a_node17"><a xlink:href="group__datatypes__euclidean.html#gaef5b930729755b4420098776467ac210" target="_top" xlink:title="Compute the distance between two points.">
<polygon fill="white" stroke="black" points="353.5,-646.5 353.5,-665.5 428.5,-665.5 428.5,-646.5 353.5,-646.5"/>
<text text-anchor="middle" x="391" y="-653.5" font-family="Helvetica,sans-Serif" font-size="10.00">distance_pp</text>
</a>
</g>
</g>
<!-- Node15&#45;&gt;Node17 -->
<g id="edge20" class="edge">
<title>Node15&#45;&gt;Node17</title>
<path fill="none" stroke="midnightblue" d="M278.96,-532.5C284.11,-534.97 288.98,-538.09 293,-542 325.35,-573.5 296.13,-606.05 329,-637 333.29,-641.04 338.44,-644.23 343.89,-646.73"/>
<polygon fill="midnightblue" stroke="midnightblue" points="342.67,-650.01 353.26,-650.34 345.19,-643.48 342.67,-650.01"/>
</g>
<!-- Node18 -->
<g id="node18" class="node">
<title>Node18</title>
<g id="a_node18"><a xlink:href="group__datatypes__iterable__operate.html#gaccab3e37e43cb1d882713b3f3d6d9e1b" target="_top" xlink:title="Return the first element of an iterable value.">
<polygon fill="white" stroke="black" points="373.5,-608.5 373.5,-627.5 408.5,-627.5 408.5,-608.5 373.5,-608.5"/>
<text text-anchor="middle" x="391" y="-615.5" font-family="Helvetica,sans-Serif" font-size="10.00">first</text>
</a>
</g>
</g>
<!-- Node15&#45;&gt;Node18 -->
<g id="edge21" class="edge">
<title>Node15&#45;&gt;Node18</title>
<path fill="none" stroke="midnightblue" d="M276.58,-532.54C282.43,-535.03 288.14,-538.13 293,-542 316.46,-560.64 305.23,-580.75 329,-599 338.9,-606.6 351.89,-611.19 363.33,-613.95"/>
<polygon fill="midnightblue" stroke="midnightblue" points="362.77,-617.41 373.28,-616 364.19,-610.55 362.77,-617.41"/>
</g>
<!-- Node19 -->
<g id="node19" class="node">
<title>Node19</title>
<g id="a_node19"><a xlink:href="group__datatypes__iterable__operate.html#ga4f04409e3fce7bf8226e4fde98f514c0" target="_top" xlink:title="Return the last element of an iterable value.">
<polygon fill="white" stroke="black" points="373.5,-570.5 373.5,-589.5 408.5,-589.5 408.5,-570.5 373.5,-570.5"/>
<text text-anchor="middle" x="391" y="-577.5" font-family="Helvetica,sans-Serif" font-size="10.00">last</text>
</a>
</g>
</g>
<!-- Node15&#45;&gt;Node19 -->
<g id="edge22" class="edge">
<title>Node15&#45;&gt;Node19</title>
<path fill="none" stroke="midnightblue" d="M268.51,-532.56C276.56,-535.36 285.19,-538.6 293,-542 309.59,-549.22 312.29,-554.06 329,-561 340.1,-565.61 352.73,-569.72 363.61,-572.93"/>
<polygon fill="midnightblue" stroke="midnightblue" points="362.82,-576.35 373.4,-575.72 364.74,-569.61 362.82,-576.35"/>
</g>
<!-- Node20 -->
<g id="node20" class="node">
<title>Node20</title>
<g id="a_node20"><a xlink:href="group__math__polygon.html#ga128d01889534a62bba46ad30ef83a67f" target="_top" xlink:title="Compute coordinates of an arc with constant radius between two vectors in 2D.">
<polygon fill="white" stroke="black" points="329,-532.5 329,-551.5 453,-551.5 453,-532.5 329,-532.5"/>
<text text-anchor="middle" x="391" y="-539.5" font-family="Helvetica,sans-Serif" font-size="10.00">polygon_arc_sweep_p</text>
</a>
</g>
</g>
<!-- Node15&#45;&gt;Node20 -->
<g id="edge23" class="edge">
<title>Node15&#45;&gt;Node20</title>
<path fill="none" stroke="midnightblue" d="M284.78,-528.8C295.55,-530.15 307.26,-531.62 318.82,-533.07"/>
<polygon fill="midnightblue" stroke="midnightblue" points="318.57,-536.57 328.92,-534.34 319.44,-529.62 318.57,-536.57"/>
</g>
<!-- Node21 -->
<g id="node21" class="node">
<title>Node21</title>
<g id="a_node21"><a xlink:href="group__datatypes__iterable__operate.html#gafacf0ab6a646e99fcf55351ca693823f" target="_top" xlink:title="Return a list containing all but the first n elements of an iterable value.">
<polygon fill="white" stroke="black" points="372,-494.5 372,-513.5 410,-513.5 410,-494.5 372,-494.5"/>
<text text-anchor="middle" x="391" y="-501.5" font-family="Helvetica,sans-Serif" font-size="10.00">tailn</text>
</a>
</g>
</g>
<!-- Node15&#45;&gt;Node21 -->
<g id="edge24" class="edge">
<title>Node15&#45;&gt;Node21</title>
<path fill="none" stroke="midnightblue" d="M284.78,-517.2C309.94,-514.04 340.24,-510.24 361.85,-507.53"/>
<polygon fill="midnightblue" stroke="midnightblue" points="362.51,-510.98 371.99,-506.26 361.64,-504.03 362.51,-510.98"/>
</g>
<!-- Node22&#45;&gt;Node2 -->
<g id="edge27" class="edge">
<title>Node22&#45;&gt;Node2</title>
<path fill="none" stroke="midnightblue" d="M276.34,-380.51C296.31,-375.5 321.03,-369.3 342.3,-363.96"/>
<polygon fill="midnightblue" stroke="midnightblue" points="343.27,-367.33 352.12,-361.5 341.57,-360.54 343.27,-367.33"/>
</g>
<!-- Node22&#45;&gt;Node12 -->
<g id="edge28" class="edge">
<title>Node22&#45;&gt;Node12</title>
<path fill="none" stroke="midnightblue" d="M276.39,-397.19C322.46,-403.74 400.54,-407.54 453,-371 483.67,-349.64 466.04,-324.5 489,-295 501.72,-278.65 519.91,-263.87 534.42,-253.46"/>
<polygon fill="midnightblue" stroke="midnightblue" points="536.68,-256.15 542.89,-247.57 532.69,-250.4 536.68,-256.15"/>
</g>
<!-- Node22&#45;&gt;Node13 -->
<g id="edge29" class="edge">
<title>Node22&#45;&gt;Node13</title>
<path fill="none" stroke="midnightblue" d="M268.75,-399.53C311.33,-411.28 390.7,-427.05 453,-404 492.16,-389.51 526.57,-353.17 544.62,-331.36"/>
<polygon fill="midnightblue" stroke="midnightblue" points="547.37,-333.51 550.91,-323.52 541.92,-329.13 547.37,-333.51"/>
</g>
<!-- Node23&#45;&gt;Node12 -->
<g id="edge31" class="edge">
<title>Node23&#45;&gt;Node12</title>
<path fill="none" stroke="midnightblue" d="M438.67,-56.79C444.03,-59.37 448.99,-62.7 453,-67 500.36,-117.76 440.8,-169.03 489,-219 490.39,-220.44 491.88,-221.78 493.45,-223.02"/>
<polygon fill="midnightblue" stroke="midnightblue" points="491.58,-225.97 501.89,-228.41 495.35,-220.08 491.58,-225.97"/>
</g>
<!-- Node23&#45;&gt;Node13 -->
<g id="edge32" class="edge">
<title>Node23&#45;&gt;Node13</title>
<path fill="none" stroke="midnightblue" d="M438.56,-56.47C444,-59.1 449.01,-62.53 453,-67 510.19,-131.16 445.27,-183.01 489,-257 499.28,-274.39 516.91,-288.82 531.78,-298.81"/>
<polygon fill="midnightblue" stroke="midnightblue" points="530.28,-302 540.59,-304.44 534.05,-296.11 530.28,-302"/>
</g>
<!-- Node24 -->
<g id="node24" class="node">
<title>Node24</title>
<g id="a_node24"><a xlink:href="group__math__triangle.html#gac0d11ca2c5035a9e53c1144f3774b0b4" target="_top" xlink:title="Compute the center coordinate of a triangle&#39;s incircle in 2D.">
<polygon fill="white" stroke="black" points="503.5,-0.5 503.5,-19.5 614.5,-19.5 614.5,-0.5 503.5,-0.5"/>
<text text-anchor="middle" x="559" y="-7.5" font-family="Helvetica,sans-Serif" font-size="10.00">triangle2d_incenter</text>
</a>
</g>
</g>
<!-- Node23&#45;&gt;Node24 -->
<g id="edge33" class="edge">
<title>Node23&#45;&gt;Node24</title>
<path fill="none" stroke="midnightblue" d="M433.89,-38.41C455.89,-33.37 483.05,-27.16 506.35,-21.82"/>
<polygon fill="midnightblue" stroke="midnightblue" points="507.45,-25.16 516.41,-19.52 505.88,-18.34 507.45,-25.16"/>
</g>
<!-- Node25 -->
<g id="node25" class="node">
<title>Node25</title>
<g id="a_node25"><a xlink:href="group__math__triangle.html#ga51e8d8c2004f859d216790f7966b7dfd" target="_top" xlink:title="Compute the centroid of a triangle.">
<polygon fill="white" stroke="black" points="509.5,-76.5 509.5,-95.5 608.5,-95.5 608.5,-76.5 509.5,-76.5"/>
<text text-anchor="middle" x="559" y="-83.5" font-family="Helvetica,sans-Serif" font-size="10.00">triangle_centroid</text>
</a>
</g>
</g>
<!-- Node23&#45;&gt;Node25 -->
<g id="edge34" class="edge">
<title>Node23&#45;&gt;Node25</title>
<path fill="none" stroke="midnightblue" d="M433.89,-57.59C455.89,-62.63 483.05,-68.84 506.35,-74.18"/>
<polygon fill="midnightblue" stroke="midnightblue" points="505.88,-77.66 516.41,-76.48 507.45,-70.84 505.88,-77.66"/>
</g>
<!-- Node26 -->
<g id="node26" class="node">
<title>Node26</title>
<g id="a_node26"><a xlink:href="group__math__triangle.html#ga5cf2801b07faec68a51ac3cd901bc4b0" target="_top" xlink:title="Compute the coordinate of a triangle&#39;s circumcenter.">
<polygon fill="white" stroke="black" points="497.5,-38.5 497.5,-57.5 620.5,-57.5 620.5,-38.5 497.5,-38.5"/>
<text text-anchor="middle" x="559" y="-45.5" font-family="Helvetica,sans-Serif" font-size="10.00">triangle_circumcenter</text>
</a>
</g>
</g>
<!-- Node23&#45;&gt;Node26 -->
<g id="edge35" class="edge">
<title>Node23&#45;&gt;Node26</title>
<path fill="none" stroke="midnightblue" d="M438.68,-48C453.77,-48 470.85,-48 487.28,-48"/>
<polygon fill="midnightblue" stroke="midnightblue" points="487.4,-51.5 497.4,-48 487.4,-44.5 487.4,-51.5"/>
</g>
<!-- Node27&#45;&gt;Node23 -->
<g id="edge37" class="edge">
<title>Node27&#45;&gt;Node23</title>
<path fill="none" stroke="midnightblue" d="M259.85,-95.36C278.04,-87.3 304.99,-75.76 329,-67 334.95,-64.83 341.28,-62.68 347.52,-60.66"/>
<polygon fill="midnightblue" stroke="midnightblue" points="348.73,-63.95 357.2,-57.59 346.61,-57.27 348.73,-63.95"/>
</g>
<!-- Node28 -->
<g id="node28" class="node">
<title>Node28</title>
<g id="a_node28"><a xlink:href="group__math__triangle.html#gaab9b812d15418fd05c9d93f3bfcc1989" target="_top" xlink:title="Compute a set of vertex coordinates for a triangle given its side lengths in 2D.">
<polygon fill="white" stroke="black" points="335.5,-76.5 335.5,-95.5 446.5,-95.5 446.5,-76.5 335.5,-76.5"/>
<text text-anchor="middle" x="391" y="-83.5" font-family="Helvetica,sans-Serif" font-size="10.00">triangle2d_sss2ppp</text>
</a>
</g>
</g>
<!-- Node27&#45;&gt;Node28 -->
<g id="edge38" class="edge">
<title>Node27&#45;&gt;Node28</title>
<path fill="none" stroke="midnightblue" d="M283.54,-99.35C296.67,-97.7 311.28,-95.87 325.36,-94.11"/>
<polygon fill="midnightblue" stroke="midnightblue" points="326,-97.55 335.49,-92.84 325.13,-90.61 326,-97.55"/>
</g>
<!-- Node29&#45;&gt;Node2 -->
<g id="edge41" class="edge">
<title>Node29&#45;&gt;Node2</title>
<path fill="none" stroke="midnightblue" d="M247.08,-190.68C271.77,-218.55 343.22,-299.2 374.75,-334.78"/>
<polygon fill="midnightblue" stroke="midnightblue" points="372.26,-337.26 381.51,-342.42 377.5,-332.62 372.26,-337.26"/>
</g>
<!-- Node29&#45;&gt;Node12 -->
<g id="edge42" class="edge">
<title>Node29&#45;&gt;Node12</title>
<path fill="none" stroke="midnightblue" d="M261.05,-184.97C300.14,-191.85 383.01,-206.47 453,-219 466.79,-221.47 481.6,-224.14 495.62,-226.67"/>
<polygon fill="midnightblue" stroke="midnightblue" points="495.2,-230.15 505.67,-228.49 496.45,-223.27 495.2,-230.15"/>
</g>
<!-- Node29&#45;&gt;Node28 -->
<g id="edge47" class="edge">
<title>Node29&#45;&gt;Node28</title>
<path fill="none" stroke="midnightblue" d="M248.64,-171.4C264.67,-156.64 297.29,-128.16 329,-110 335.94,-106.02 343.68,-102.42 351.24,-99.29"/>
<polygon fill="midnightblue" stroke="midnightblue" points="352.63,-102.5 360.65,-95.57 350.07,-95.99 352.63,-102.5"/>
</g>
<!-- Node30 -->
<g id="node30" class="node">
<title>Node30</title>
<g id="a_node30"><a xlink:href="group__units__angle.html#ga06a917b77748dfb74e765bcd7c4c0219" target="_top" xlink:title="Convert an angle value from one unit to another.">
<polygon fill="white" stroke="black" points="537,-114.5 537,-133.5 581,-133.5 581,-114.5 537,-114.5"/>
<text text-anchor="middle" x="559" y="-121.5" font-family="Helvetica,sans-Serif" font-size="10.00">angle</text>
</a>
</g>
</g>
<!-- Node29&#45;&gt;Node30 -->
<g id="edge40" class="edge">
<title>Node29&#45;&gt;Node30</title>
<path fill="none" stroke="midnightblue" d="M256.64,-171.37C274.5,-162.38 302.85,-149.4 329,-143 398.09,-126.08 482.02,-123.51 526.61,-123.51"/>
<polygon fill="midnightblue" stroke="midnightblue" points="526.79,-127.01 536.81,-123.56 526.82,-120.01 526.79,-127.01"/>
</g>
<!-- Node31 -->
<g id="node31" class="node">
<title>Node31</title>
<g id="a_node31"><a xlink:href="group__transforms__repeat.html#ga8da1e3a852a1b25ba93437a6fe46745f" target="_top" xlink:title="Radially repeat copies of child objects about a z&#45;axis radius.">
<polygon fill="white" stroke="black" points="350.5,-152.5 350.5,-171.5 431.5,-171.5 431.5,-152.5 350.5,-152.5"/>
<text text-anchor="middle" x="391" y="-159.5" font-family="Helvetica,sans-Serif" font-size="10.00">repeat_radial</text>
</a>
</g>
</g>
<!-- Node29&#45;&gt;Node31 -->
<g id="edge43" class="edge">
<title>Node29&#45;&gt;Node31</title>
<path fill="none" stroke="midnightblue" d="M261.18,-178.16C282.04,-175.54 313.69,-171.57 340.4,-168.22"/>
<polygon fill="midnightblue" stroke="midnightblue" points="340.87,-171.69 350.36,-166.97 340,-164.74 340.87,-171.69"/>
</g>
<!-- Node31&#45;&gt;Node11 -->
<g id="edge46" class="edge">
<title>Node31&#45;&gt;Node11</title>
<path fill="none" stroke="midnightblue" d="M431.76,-171.1C454.09,-176.21 482.2,-182.65 506.23,-188.15"/>
<polygon fill="midnightblue" stroke="midnightblue" points="505.72,-191.62 516.25,-190.44 507.28,-184.8 505.72,-191.62"/>
</g>
<!-- Node31&#45;&gt;Node30 -->
<g id="edge44" class="edge">
<title>Node31&#45;&gt;Node30</title>
<path fill="none" stroke="midnightblue" d="M431.76,-152.9C460.89,-146.23 499.88,-137.31 526.78,-131.15"/>
<polygon fill="midnightblue" stroke="midnightblue" points="527.84,-134.5 536.8,-128.85 526.27,-127.67 527.84,-134.5"/>
</g>
<!-- Node32 -->
<g id="node32" class="node">
<title>Node32</title>
<g id="a_node32"><a xlink:href="group__datatypes__euclidean.html#ga3d5c07c70f271bcf9144f50ce8620a89" target="_top" xlink:title="Compute the angle between two lines or vectors in a 3d or 2d&#45;space.">
<polygon fill="white" stroke="black" points="531.5,-152.5 531.5,-171.5 586.5,-171.5 586.5,-152.5 531.5,-152.5"/>
<text text-anchor="middle" x="559" y="-159.5" font-family="Helvetica,sans-Serif" font-size="10.00">angle_ll</text>
</a>
</g>
</g>
<!-- Node31&#45;&gt;Node32 -->
<g id="edge45" class="edge">
<title>Node31&#45;&gt;Node32</title>
<path fill="none" stroke="midnightblue" d="M431.76,-162C458.86,-162 494.48,-162 520.98,-162"/>
<polygon fill="midnightblue" stroke="midnightblue" points="521.01,-165.5 531.01,-162 521.01,-158.5 521.01,-165.5"/>
</g>
</g>
</svg>
