<?xml version="1.0" encoding="UTF-8" standalone="no"?>
<!DOCTYPE svg PUBLIC "-//W3C//DTD SVG 1.1//EN"
 "http://www.w3.org/Graphics/SVG/1.1/DTD/svg11.dtd">
<!-- Generated by graphviz version 2.43.0 (0)
 -->
<!-- Title: is_defined Pages: 1 -->
<svg width="522pt" height="743pt"
 viewBox="0.00 0.00 522.00 742.89" xmlns="http://www.w3.org/2000/svg" xmlns:xlink="http://www.w3.org/1999/xlink">
<g id="graph0" class="graph" transform="scale(1 1) rotate(0) translate(4 738.89)">
<title>is_defined</title>
<polygon fill="white" stroke="transparent" points="-4,4 -4,-738.89 518,-738.89 518,4 -4,4"/>
<!-- Node1 -->
<g id="node1" class="node">
<title>Node1</title>
<g id="a_node1"><a xlink:title="Test if a value is defined.">
<polygon fill="#bfbfbf" stroke="black" points="448,-361.5 448,-380.5 514,-380.5 514,-361.5 448,-361.5"/>
<text text-anchor="middle" x="481" y="-368.5" font-family="Helvetica,sans-Serif" font-size="10.00">is_defined</text>
</a>
</g>
</g>
<!-- Node2 -->
<g id="node2" class="node">
<title>Node2</title>
<g id="a_node2"><a xlink:href="group__parts__3d__motion__bearing__linear__rod.html#ga0064887f7c89f8915895c0243bec4a4c" target="_top" xlink:title="Transform 2d or 3d shape into a linear rod ball or sled bearing.">
<polygon fill="white" stroke="black" points="152,-684.5 152,-703.5 259,-703.5 259,-684.5 152,-684.5"/>
<text text-anchor="middle" x="205.5" y="-691.5" font-family="Helvetica,sans-Serif" font-size="10.00">bearing_linear_rod</text>
</a>
</g>
</g>
<!-- Node1&#45;&gt;Node2 -->
<g id="edge1" class="edge">
<title>Node1&#45;&gt;Node2</title>
<path fill="none" stroke="midnightblue" d="M479.22,-390.83C476.14,-457.5 462.43,-671.61 412,-713 357.3,-757.89 264.69,-722.21 225.22,-703.56"/>
<polygon fill="midnightblue" stroke="midnightblue" points="482.72,-390.95 479.65,-380.81 475.72,-390.65 482.72,-390.95"/>
</g>
<!-- Node3 -->
<g id="node3" class="node">
<title>Node3</title>
<g id="a_node3"><a xlink:href="group__parts__3d__fastener__catch__latch.html#ga26a9933aa6d33599daab1be8d632c430" target="_top" xlink:title="A catch latch generator with configurable profile.">
<polygon fill="white" stroke="black" points="322,-304.5 322,-323.5 394,-323.5 394,-304.5 322,-304.5"/>
<text text-anchor="middle" x="358" y="-311.5" font-family="Helvetica,sans-Serif" font-size="10.00">catch_latch</text>
</a>
</g>
</g>
<!-- Node1&#45;&gt;Node3 -->
<g id="edge2" class="edge">
<title>Node1&#45;&gt;Node3</title>
<path fill="none" stroke="midnightblue" d="M451.52,-356.97C439.38,-351.04 425.03,-344.11 412,-338 401.67,-333.15 390.13,-327.91 380.46,-323.56"/>
<polygon fill="midnightblue" stroke="midnightblue" points="450.2,-360.22 460.72,-361.47 453.28,-353.93 450.2,-360.22"/>
</g>
<!-- Node4 -->
<g id="node4" class="node">
<title>Node4</title>
<g id="a_node4"><a xlink:href="group__parts__3d__fastener__clamps.html#gad5d667c41776480785c62759c61a137e" target="_top" xlink:title="A clamp, bushing, and/or grip for wire, hose, and/or pipe wall penetrations.">
<polygon fill="white" stroke="black" points="174,-494.5 174,-513.5 237,-513.5 237,-494.5 174,-494.5"/>
<text text-anchor="middle" x="205.5" y="-501.5" font-family="Helvetica,sans-Serif" font-size="10.00">clamp_cg</text>
</a>
</g>
</g>
<!-- Node1&#45;&gt;Node4 -->
<g id="edge3" class="edge">
<title>Node1&#45;&gt;Node4</title>
<path fill="none" stroke="midnightblue" d="M472.34,-390.02C462.14,-412.73 441.85,-450.02 412,-469 357.79,-503.47 279.96,-506.97 237.33,-505.87"/>
<polygon fill="midnightblue" stroke="midnightblue" points="475.6,-391.3 476.31,-380.73 469.16,-388.55 475.6,-391.3"/>
</g>
<!-- Node6 -->
<g id="node6" class="node">
<title>Node6</title>
<g id="a_node6"><a xlink:href="group__parts__3d__enclosure__power__strip.html#ga33509a1811b27fe7f3687957d4d32460" target="_top" xlink:title="A power strip generator for single gang electrical receptacles.">
<polygon fill="white" stroke="black" points="8.5,-437.5 8.5,-456.5 98.5,-456.5 98.5,-437.5 8.5,-437.5"/>
<text text-anchor="middle" x="53.5" y="-444.5" font-family="Helvetica,sans-Serif" font-size="10.00">power_strip_sg</text>
</a>
</g>
</g>
<!-- Node1&#45;&gt;Node6 -->
<g id="edge32" class="edge">
<title>Node1&#45;&gt;Node6</title>
<path fill="none" stroke="midnightblue" d="M458.11,-386.23C445.27,-394.38 428.39,-403.79 412,-409 354.67,-427.22 181,-439.55 98.69,-444.52"/>
<polygon fill="midnightblue" stroke="midnightblue" points="460.25,-389.01 466.69,-380.6 456.41,-383.16 460.25,-389.01"/>
</g>
<!-- Node7 -->
<g id="node7" class="node">
<title>Node7</title>
<g id="a_node7"><a xlink:href="group__transforms__base__cs.html#ga3900ae7c9ca268f0224a65f56387059f" target="_top" xlink:title="Conditionally apply the difference boolean operation.">
<polygon fill="white" stroke="black" points="317.5,-570.5 317.5,-589.5 398.5,-589.5 398.5,-570.5 317.5,-570.5"/>
<text text-anchor="middle" x="358" y="-577.5" font-family="Helvetica,sans-Serif" font-size="10.00">difference_cs</text>
</a>
</g>
</g>
<!-- Node1&#45;&gt;Node7 -->
<g id="edge6" class="edge">
<title>Node1&#45;&gt;Node7</title>
<path fill="none" stroke="midnightblue" d="M477.77,-390.81C472.64,-427.77 456.76,-507.85 412,-556 406.22,-562.21 398.53,-566.93 390.8,-570.47"/>
<polygon fill="midnightblue" stroke="midnightblue" points="481.25,-391.17 479.04,-380.81 474.31,-390.29 481.25,-391.17"/>
</g>
<!-- Node8 -->
<g id="node8" class="node">
<title>Node8</title>
<g id="a_node8"><a xlink:href="group__parts__3d__enclosure__project__box__rectangle.html#ga24cdfe5fd4bb74b75409d9afdbe1f0c0" target="_top" xlink:title="A rectangular box maker for project boxes, enclosures and housings.">
<polygon fill="white" stroke="black" points="143,-532.5 143,-551.5 268,-551.5 268,-532.5 143,-532.5"/>
<text text-anchor="middle" x="205.5" y="-539.5" font-family="Helvetica,sans-Serif" font-size="10.00">project_box_rectangle</text>
</a>
</g>
</g>
<!-- Node1&#45;&gt;Node8 -->
<g id="edge33" class="edge">
<title>Node1&#45;&gt;Node8</title>
<path fill="none" stroke="midnightblue" d="M475.28,-390.49C467.32,-419 448.41,-471.64 412,-499 370.77,-529.98 312.33,-539.85 268.31,-542.48"/>
<polygon fill="midnightblue" stroke="midnightblue" points="478.74,-391.09 477.89,-380.53 471.97,-389.32 478.74,-391.09"/>
</g>
<!-- Node9 -->
<g id="node9" class="node">
<title>Node9</title>
<g id="a_node9"><a xlink:href="group__tools__2d__drafting.html#gada1e771ce89ef86b6241c43dc01bf62d" target="_top" xlink:title="Draft a polygon with configurable style.">
<polygon fill="white" stroke="black" points="316.5,-266.5 316.5,-285.5 399.5,-285.5 399.5,-266.5 316.5,-266.5"/>
<text text-anchor="middle" x="358" y="-273.5" font-family="Helvetica,sans-Serif" font-size="10.00">draft_polygon</text>
</a>
</g>
</g>
<!-- Node1&#45;&gt;Node9 -->
<g id="edge11" class="edge">
<title>Node1&#45;&gt;Node9</title>
<path fill="none" stroke="midnightblue" d="M467.88,-352.91C455.61,-335.84 435.17,-310.6 412,-295 406.41,-291.23 399.98,-288.12 393.57,-285.57"/>
<polygon fill="midnightblue" stroke="midnightblue" points="465.24,-355.24 473.83,-361.44 470.98,-351.24 465.24,-355.24"/>
</g>
<!-- Node10 -->
<g id="node10" class="node">
<title>Node10</title>
<g id="a_node10"><a xlink:href="group__shapes__common__2d.html#ga523269669eaf509e3474b1953be20b80" target="_top" xlink:title="An ellipse with a removed elliptical core.">
<polygon fill="white" stroke="black" points="328.5,-228.5 328.5,-247.5 387.5,-247.5 387.5,-228.5 328.5,-228.5"/>
<text text-anchor="middle" x="358" y="-235.5" font-family="Helvetica,sans-Serif" font-size="10.00">ellipse_c</text>
</a>
</g>
</g>
<!-- Node1&#45;&gt;Node10 -->
<g id="edge12" class="edge">
<title>Node1&#45;&gt;Node10</title>
<path fill="none" stroke="midnightblue" d="M473.24,-351.68C463.48,-326.49 443.14,-282.63 412,-257 404.98,-251.22 396.07,-247.14 387.56,-244.27"/>
<polygon fill="midnightblue" stroke="midnightblue" points="470.02,-353.06 476.77,-361.23 476.58,-350.63 470.02,-353.06"/>
</g>
<!-- Node11 -->
<g id="node11" class="node">
<title>Node11</title>
<g id="a_node11"><a xlink:href="group__shapes__common__2d.html#gaeb0a5e3526b707be3bf6d889180fe0b5" target="_top" xlink:title="A sector of an ellipse with a removed elliptical core.">
<polygon fill="white" stroke="black" points="325.5,-190.5 325.5,-209.5 390.5,-209.5 390.5,-190.5 325.5,-190.5"/>
<text text-anchor="middle" x="358" y="-197.5" font-family="Helvetica,sans-Serif" font-size="10.00">ellipse_cs</text>
</a>
</g>
</g>
<!-- Node1&#45;&gt;Node11 -->
<g id="edge13" class="edge">
<title>Node1&#45;&gt;Node11</title>
<path fill="none" stroke="midnightblue" d="M476.38,-351.35C469.48,-319.27 451.46,-255.55 412,-219 406.05,-213.49 398.38,-209.55 390.74,-206.75"/>
<polygon fill="midnightblue" stroke="midnightblue" points="472.98,-352.17 478.38,-361.28 479.84,-350.79 472.98,-352.17"/>
</g>
<!-- Node13 -->
<g id="node13" class="node">
<title>Node13</title>
<g id="a_node13"><a xlink:href="group__parts__3d__fastener__hinges.html#ga7e350f2c55116094108b99dd8103fc04" target="_top" xlink:title="A print&#45;in&#45;place single&#45;fold hinge generator.">
<polygon fill="white" stroke="black" points="329,-152.5 329,-171.5 387,-171.5 387,-152.5 329,-152.5"/>
<text text-anchor="middle" x="358" y="-159.5" font-family="Helvetica,sans-Serif" font-size="10.00">hinge_sf</text>
</a>
</g>
</g>
<!-- Node1&#45;&gt;Node13 -->
<g id="edge15" class="edge">
<title>Node1&#45;&gt;Node13</title>
<path fill="none" stroke="midnightblue" d="M478.36,-350.85C474.18,-312.56 459.81,-228.83 412,-181 405.3,-174.29 396.06,-169.94 387.18,-167.12"/>
<polygon fill="midnightblue" stroke="midnightblue" points="474.91,-351.57 479.35,-361.19 481.88,-350.9 474.91,-351.57"/>
</g>
<!-- Node15 -->
<g id="node15" class="node">
<title>Node15</title>
<g id="a_node15"><a xlink:href="group__transforms__base__cs.html#gafa05aca176d441020de53da835e3dd60" target="_top" xlink:title="Conditionally apply the convex hull transformation.">
<polygon fill="white" stroke="black" points="180.5,-570.5 180.5,-589.5 230.5,-589.5 230.5,-570.5 180.5,-570.5"/>
<text text-anchor="middle" x="205.5" y="-577.5" font-family="Helvetica,sans-Serif" font-size="10.00">hull_cs</text>
</a>
</g>
</g>
<!-- Node1&#45;&gt;Node15 -->
<g id="edge17" class="edge">
<title>Node1&#45;&gt;Node15</title>
<path fill="none" stroke="midnightblue" d="M477.18,-390.5C469.45,-440.93 446.18,-573.53 412,-599 383.92,-619.93 278.88,-597.81 230.8,-586.19"/>
<polygon fill="midnightblue" stroke="midnightblue" points="480.65,-390.95 478.67,-380.55 473.73,-389.92 480.65,-390.95"/>
</g>
<!-- Node16 -->
<g id="node16" class="node">
<title>Node16</title>
<g id="a_node16"><a xlink:href="group__transforms__base__cs.html#gaa90356c8ee306403464fe2b03ad7849c" target="_top" xlink:title="Conditionally apply the difference intersection operation.">
<polygon fill="white" stroke="black" points="313,-646.5 313,-665.5 403,-665.5 403,-646.5 313,-646.5"/>
<text text-anchor="middle" x="358" y="-653.5" font-family="Helvetica,sans-Serif" font-size="10.00">intersection_cs</text>
</a>
</g>
</g>
<!-- Node1&#45;&gt;Node16 -->
<g id="edge19" class="edge">
<title>Node1&#45;&gt;Node16</title>
<path fill="none" stroke="midnightblue" d="M480.34,-390.74C480.11,-438.05 473.19,-559.39 412,-632 406.73,-638.26 399.49,-642.96 392.05,-646.46"/>
<polygon fill="midnightblue" stroke="midnightblue" points="483.84,-390.59 480.29,-380.61 476.84,-390.63 483.84,-390.59"/>
</g>
<!-- Node20 -->
<g id="node20" class="node">
<title>Node20</title>
<g id="a_node20"><a xlink:href="group__transforms__base__cs.html#ga6cbb2e4048fbe2f9e4e44431ae045520" target="_top" xlink:title="Conditionally apply the minkowski sum transformation.">
<polygon fill="white" stroke="black" points="315.5,-114.5 315.5,-133.5 400.5,-133.5 400.5,-114.5 315.5,-114.5"/>
<text text-anchor="middle" x="358" y="-121.5" font-family="Helvetica,sans-Serif" font-size="10.00">minkowski_cs</text>
</a>
</g>
</g>
<!-- Node1&#45;&gt;Node20 -->
<g id="edge24" class="edge">
<title>Node1&#45;&gt;Node20</title>
<path fill="none" stroke="midnightblue" d="M479.8,-351.13C478.28,-307.56 468.58,-202.74 412,-143 408.3,-139.1 403.75,-135.99 398.88,-133.53"/>
<polygon fill="midnightblue" stroke="midnightblue" points="476.3,-351.35 480.04,-361.27 483.3,-351.19 476.3,-351.35"/>
</g>
<!-- Node21 -->
<g id="node21" class="node">
<title>Node21</title>
<g id="a_node21"><a xlink:href="group__parts__3d__fastener__mounts.html#ga0cbac43259ec43fff7785057277bcef3" target="_top" xlink:title="A screw mount post with screw bore and optional fins.">
<polygon fill="white" stroke="black" points="304,-76.5 304,-95.5 412,-95.5 412,-76.5 304,-76.5"/>
<text text-anchor="middle" x="358" y="-83.5" font-family="Helvetica,sans-Serif" font-size="10.00">mount_screw_post</text>
</a>
</g>
</g>
<!-- Node1&#45;&gt;Node21 -->
<g id="edge25" class="edge">
<title>Node1&#45;&gt;Node21</title>
<path fill="none" stroke="midnightblue" d="M480.83,-351.2C481.76,-302.72 477.35,-176.79 412,-105 408.45,-101.1 404.03,-97.99 399.28,-95.53"/>
<polygon fill="midnightblue" stroke="midnightblue" points="477.33,-351.2 480.53,-361.3 484.32,-351.41 477.33,-351.2"/>
</g>
<!-- Node22 -->
<g id="node22" class="node">
<title>Node22</title>
<g id="a_node22"><a xlink:href="group__parts__3d__fastener__mounts.html#gae1cc60f3ff242fb07c5a50d34be8c051" target="_top" xlink:title="A mount tab with screw hole and support brace.">
<polygon fill="white" stroke="black" points="154,-304.5 154,-323.5 257,-323.5 257,-304.5 154,-304.5"/>
<text text-anchor="middle" x="205.5" y="-311.5" font-family="Helvetica,sans-Serif" font-size="10.00">mount_screw_tab</text>
</a>
</g>
</g>
<!-- Node1&#45;&gt;Node22 -->
<g id="edge26" class="edge">
<title>Node1&#45;&gt;Node22</title>
<path fill="none" stroke="midnightblue" d="M437.94,-362.23C387.7,-351.76 303.98,-334.31 252.19,-323.52"/>
<polygon fill="midnightblue" stroke="midnightblue" points="437.32,-365.68 447.82,-364.29 438.75,-358.83 437.32,-365.68"/>
</g>
<!-- Node23 -->
<g id="node23" class="node">
<title>Node23</title>
<g id="a_node23"><a xlink:href="group__models__3d__misc__omdl__logo.html#gab176f64dad7e83d4fb056be44b71f630" target="_top" xlink:title="Standard omdl logo.">
<polygon fill="white" stroke="black" points="171.5,-456.5 171.5,-475.5 239.5,-475.5 239.5,-456.5 171.5,-456.5"/>
<text text-anchor="middle" x="205.5" y="-463.5" font-family="Helvetica,sans-Serif" font-size="10.00">omdl_logo</text>
</a>
</g>
</g>
<!-- Node1&#45;&gt;Node23 -->
<g id="edge28" class="edge">
<title>Node1&#45;&gt;Node23</title>
<path fill="none" stroke="midnightblue" d="M468.3,-389.04C456.33,-405.83 436.11,-430.01 412,-442 356.36,-469.68 282.08,-470.91 239.75,-468.8"/>
<polygon fill="midnightblue" stroke="midnightblue" points="471.32,-390.83 474.07,-380.6 465.54,-386.88 471.32,-390.83"/>
</g>
<!-- Node24 -->
<g id="node24" class="node">
<title>Node24</title>
<g id="a_node24"><a xlink:href="group__tools__common__polytope.html#ga530c86f9c90ce074aa7adc29834f0539" target="_top" xlink:title="Assemble a polytope skeletal frame using child objects.">
<polygon fill="white" stroke="black" points="311,-38.5 311,-57.5 405,-57.5 405,-38.5 311,-38.5"/>
<text text-anchor="middle" x="358" y="-45.5" font-family="Helvetica,sans-Serif" font-size="10.00">polytope_frame</text>
</a>
</g>
</g>
<!-- Node1&#45;&gt;Node24 -->
<g id="edge30" class="edge">
<title>Node1&#45;&gt;Node24</title>
<path fill="none" stroke="midnightblue" d="M478.06,-351.23C471.74,-290.79 450,-110.04 412,-67 408.57,-63.12 404.29,-60.03 399.66,-57.57"/>
<polygon fill="midnightblue" stroke="midnightblue" points="474.59,-351.75 479.08,-361.34 481.55,-351.04 474.59,-351.75"/>
</g>
<!-- Node25 -->
<g id="node25" class="node">
<title>Node25</title>
<g id="a_node25"><a xlink:href="group__tools__common__polytope.html#ga00b574079f19251be7281151d11db8fa" target="_top" xlink:title="Label the vertices, paths, and edges of a polytope.">
<polygon fill="white" stroke="black" points="307,-0.5 307,-19.5 409,-19.5 409,-0.5 307,-0.5"/>
<text text-anchor="middle" x="358" y="-7.5" font-family="Helvetica,sans-Serif" font-size="10.00">polytope_number</text>
</a>
</g>
</g>
<!-- Node1&#45;&gt;Node25 -->
<g id="edge31" class="edge">
<title>Node1&#45;&gt;Node25</title>
<path fill="none" stroke="midnightblue" d="M478.6,-351.36C473.59,-286.18 454.51,-78.31 412,-29 408.68,-25.15 404.52,-22.08 400.01,-19.63"/>
<polygon fill="midnightblue" stroke="midnightblue" points="475.12,-351.78 479.35,-361.5 482.1,-351.27 475.12,-351.78"/>
</g>
<!-- Node26 -->
<g id="node26" class="node">
<title>Node26</title>
<g id="a_node26"><a xlink:href="group__shapes__common__2d.html#gaf840c9cc7a1bcdb09f023aa6543d36d2" target="_top" xlink:title="A rectangle with a removed rectangular core.">
<polygon fill="white" stroke="black" points="321.5,-380.5 321.5,-399.5 394.5,-399.5 394.5,-380.5 321.5,-380.5"/>
<text text-anchor="middle" x="358" y="-387.5" font-family="Helvetica,sans-Serif" font-size="10.00">rectangle_c</text>
</a>
</g>
</g>
<!-- Node1&#45;&gt;Node26 -->
<g id="edge34" class="edge">
<title>Node1&#45;&gt;Node26</title>
<path fill="none" stroke="midnightblue" d="M437.93,-377.61C423.82,-379.82 408.24,-382.27 394.67,-384.4"/>
<polygon fill="midnightblue" stroke="midnightblue" points="438.56,-381.05 447.89,-376.04 437.47,-374.14 438.56,-381.05"/>
</g>
<!-- Node28 -->
<g id="node28" class="node">
<title>Node28</title>
<g id="a_node28"><a xlink:href="group__transforms__base__cs.html#ga69935df4a2195011bf7f4a7499de1128" target="_top" xlink:title="Conditionally apply the union boolean operation.">
<polygon fill="white" stroke="black" points="328.5,-684.5 328.5,-703.5 387.5,-703.5 387.5,-684.5 328.5,-684.5"/>
<text text-anchor="middle" x="358" y="-691.5" font-family="Helvetica,sans-Serif" font-size="10.00">union_cs</text>
</a>
</g>
</g>
<!-- Node1&#45;&gt;Node28 -->
<g id="edge37" class="edge">
<title>Node1&#45;&gt;Node28</title>
<path fill="none" stroke="midnightblue" d="M478.06,-390.77C471.74,-451.21 450,-631.96 412,-675 405.72,-682.11 396.6,-686.56 387.68,-689.34"/>
<polygon fill="midnightblue" stroke="midnightblue" points="481.55,-390.96 479.08,-380.66 474.59,-390.25 481.55,-390.96"/>
</g>
<!-- Node5 -->
<g id="node5" class="node">
<title>Node5</title>
<g id="a_node5"><a xlink:href="group__parts__3d__computer__pcie__expansion.html#gab6fb1c9f8f6550633467f4ec0bd3f983" target="_top" xlink:title="Generate a PCI Express expansion open chassis or closed enclosure.">
<polygon fill="white" stroke="black" points="7.5,-551.5 7.5,-570.5 99.5,-570.5 99.5,-551.5 7.5,-551.5"/>
<text text-anchor="middle" x="53.5" y="-558.5" font-family="Helvetica,sans-Serif" font-size="10.00">pcie_expansion</text>
</a>
</g>
</g>
<!-- Node4&#45;&gt;Node5 -->
<g id="edge4" class="edge">
<title>Node4&#45;&gt;Node5</title>
<path fill="none" stroke="midnightblue" d="M164.37,-515.73C157.21,-518.01 149.85,-520.48 143,-523 119.3,-531.72 92.77,-543.37 74.99,-551.47"/>
<polygon fill="midnightblue" stroke="midnightblue" points="165.44,-519.06 173.94,-512.74 163.36,-512.37 165.44,-519.06"/>
</g>
<!-- Node4&#45;&gt;Node6 -->
<g id="edge5" class="edge">
<title>Node4&#45;&gt;Node6</title>
<path fill="none" stroke="midnightblue" d="M164.37,-492.27C157.21,-489.99 149.85,-487.52 143,-485 119.3,-476.28 92.77,-464.63 74.99,-456.53"/>
<polygon fill="midnightblue" stroke="midnightblue" points="163.36,-495.63 173.94,-495.26 165.44,-488.94 163.36,-495.63"/>
</g>
<!-- Node7&#45;&gt;Node2 -->
<g id="edge7" class="edge">
<title>Node7&#45;&gt;Node2</title>
<path fill="none" stroke="midnightblue" d="M340.84,-597.36C315.48,-624.59 269.11,-674.3 268,-675 261.84,-678.85 254.85,-681.97 247.83,-684.48"/>
<polygon fill="midnightblue" stroke="midnightblue" points="343.7,-599.42 347.96,-589.72 338.58,-594.65 343.7,-599.42"/>
</g>
<!-- Node7&#45;&gt;Node8 -->
<g id="edge8" class="edge">
<title>Node7&#45;&gt;Node8</title>
<path fill="none" stroke="midnightblue" d="M309.32,-567.96C288.29,-562.65 263.93,-556.5 244.2,-551.52"/>
<polygon fill="midnightblue" stroke="midnightblue" points="308.47,-571.36 319.02,-570.41 310.18,-564.57 308.47,-571.36"/>
</g>
<!-- Node8&#45;&gt;Node5 -->
<g id="edge9" class="edge">
<title>Node8&#45;&gt;Node5</title>
<path fill="none" stroke="midnightblue" d="M132.44,-551.13C121.3,-552.54 110.07,-553.96 99.74,-555.27"/>
<polygon fill="midnightblue" stroke="midnightblue" points="133.14,-554.57 142.62,-549.84 132.26,-547.62 133.14,-554.57"/>
</g>
<!-- Node8&#45;&gt;Node6 -->
<g id="edge10" class="edge">
<title>Node8&#45;&gt;Node6</title>
<path fill="none" stroke="midnightblue" d="M155.54,-528.92C151.2,-527.16 146.96,-525.19 143,-523 109.85,-504.69 77.91,-472.58 63.1,-456.6"/>
<polygon fill="midnightblue" stroke="midnightblue" points="154.53,-532.28 165.12,-532.47 156.96,-525.72 154.53,-532.28"/>
</g>
<!-- Node12 -->
<g id="node12" class="node">
<title>Node12</title>
<g id="a_node12"><a xlink:href="group__shapes__revolved.html#ga58a3e713a904c96b69ddd8f87f7f3bb1" target="_top" xlink:title="An elliptical cross&#45;sectional profile revolved about the z&#45;axis.">
<polygon fill="white" stroke="black" points="158,-190.5 158,-209.5 253,-209.5 253,-190.5 158,-190.5"/>
<text text-anchor="middle" x="205.5" y="-197.5" font-family="Helvetica,sans-Serif" font-size="10.00">torus_ellipse_cs</text>
</a>
</g>
</g>
<!-- Node11&#45;&gt;Node12 -->
<g id="edge14" class="edge">
<title>Node11&#45;&gt;Node12</title>
<path fill="none" stroke="midnightblue" d="M315.44,-200C296.12,-200 273.07,-200 253.16,-200"/>
<polygon fill="midnightblue" stroke="midnightblue" points="315.45,-203.5 325.45,-200 315.45,-196.5 315.45,-203.5"/>
</g>
<!-- Node14 -->
<g id="node14" class="node">
<title>Node14</title>
<g id="a_node14"><a xlink:href="group__parts__3d__fastener__hinges.html#ga1ffc82e0bbac466d1dc4fbe6c214b765" target="_top" xlink:title="A print&#45;in&#45;place bi&#45;fold hinge generator.">
<polygon fill="white" stroke="black" points="176,-152.5 176,-171.5 235,-171.5 235,-152.5 176,-152.5"/>
<text text-anchor="middle" x="205.5" y="-159.5" font-family="Helvetica,sans-Serif" font-size="10.00">hinge_bf</text>
</a>
</g>
</g>
<!-- Node13&#45;&gt;Node14 -->
<g id="edge16" class="edge">
<title>Node13&#45;&gt;Node14</title>
<path fill="none" stroke="midnightblue" d="M318.45,-162C292.48,-162 258.8,-162 235.19,-162"/>
<polygon fill="midnightblue" stroke="midnightblue" points="318.69,-165.5 328.69,-162 318.69,-158.5 318.69,-165.5"/>
</g>
<!-- Node15&#45;&gt;Node5 -->
<g id="edge18" class="edge">
<title>Node15&#45;&gt;Node5</title>
<path fill="none" stroke="midnightblue" d="M170.37,-575.68C149.44,-573.03 122.41,-569.6 99.72,-566.73"/>
<polygon fill="midnightblue" stroke="midnightblue" points="170.04,-579.16 180.4,-576.95 170.92,-572.22 170.04,-579.16"/>
</g>
<!-- Node17 -->
<g id="node17" class="node">
<title>Node17</title>
<g id="a_node17"><a xlink:href="group__models__2d__joint__box__screw.html#ga78ef0c1346c6e79260781ee9a9fff0bf" target="_top" xlink:title="Create 2d edge profiles for screw and nut box joint construction.">
<polygon fill="white" stroke="black" points="152,-646.5 152,-665.5 259,-665.5 259,-646.5 152,-646.5"/>
<text text-anchor="middle" x="205.5" y="-653.5" font-family="Helvetica,sans-Serif" font-size="10.00">joint2d_box_screw</text>
</a>
</g>
</g>
<!-- Node16&#45;&gt;Node17 -->
<g id="edge20" class="edge">
<title>Node16&#45;&gt;Node17</title>
<path fill="none" stroke="midnightblue" d="M302.55,-656C288.36,-656 273.1,-656 259.02,-656"/>
<polygon fill="midnightblue" stroke="midnightblue" points="302.66,-659.5 312.66,-656 302.66,-652.5 302.66,-659.5"/>
</g>
<!-- Node19 -->
<g id="node19" class="node">
<title>Node19</title>
<g id="a_node19"><a xlink:href="group__models__2d__joint__dovetail.html#gadccba989c93e8e44be057de39d99758a" target="_top" xlink:title="Create 2D edge profiles for dovetail joint construction.">
<polygon fill="white" stroke="black" points="158,-608.5 158,-627.5 253,-627.5 253,-608.5 158,-608.5"/>
<text text-anchor="middle" x="205.5" y="-615.5" font-family="Helvetica,sans-Serif" font-size="10.00">joint2d_dovetail</text>
</a>
</g>
</g>
<!-- Node16&#45;&gt;Node19 -->
<g id="edge22" class="edge">
<title>Node16&#45;&gt;Node19</title>
<path fill="none" stroke="midnightblue" d="M309.32,-643.96C288.29,-638.65 263.93,-632.5 244.2,-627.52"/>
<polygon fill="midnightblue" stroke="midnightblue" points="308.47,-647.36 319.02,-646.41 310.18,-640.57 308.47,-647.36"/>
</g>
<!-- Node18 -->
<g id="node18" class="node">
<title>Node18</title>
<g id="a_node18"><a xlink:href="group__parts__2d__enclosure__box__finger__joint.html#gacc1bfb220bc3cfed46dcaa3b84898020" target="_top" xlink:title="Generate a 2D box design using screw&#45;based finger joint (box&#45;joint).">
<polygon fill="white" stroke="black" points="0,-646.5 0,-665.5 107,-665.5 107,-646.5 0,-646.5"/>
<text text-anchor="middle" x="53.5" y="-653.5" font-family="Helvetica,sans-Serif" font-size="10.00">box2d_finger_joint</text>
</a>
</g>
</g>
<!-- Node17&#45;&gt;Node18 -->
<g id="edge21" class="edge">
<title>Node17&#45;&gt;Node18</title>
<path fill="none" stroke="midnightblue" d="M141.31,-656C129.94,-656 118.19,-656 107.16,-656"/>
<polygon fill="midnightblue" stroke="midnightblue" points="141.62,-659.5 151.62,-656 141.62,-652.5 141.62,-659.5"/>
</g>
<!-- Node19&#45;&gt;Node5 -->
<g id="edge23" class="edge">
<title>Node19&#45;&gt;Node5</title>
<path fill="none" stroke="midnightblue" d="M161.66,-605.4C155.36,-603.37 148.99,-601.2 143,-599 119.3,-590.28 92.77,-578.63 74.99,-570.53"/>
<polygon fill="midnightblue" stroke="midnightblue" points="160.82,-608.81 171.41,-608.48 162.93,-602.13 160.82,-608.81"/>
</g>
<!-- Node22&#45;&gt;Node6 -->
<g id="edge27" class="edge">
<title>Node22&#45;&gt;Node6</title>
<path fill="none" stroke="midnightblue" d="M152.23,-327.59C149,-329.21 145.89,-331 143,-333 101.58,-361.65 70.65,-415.59 59.26,-437.44"/>
<polygon fill="midnightblue" stroke="midnightblue" points="153.8,-330.73 161.57,-323.53 151,-324.31 153.8,-330.73"/>
</g>
<!-- Node23&#45;&gt;Node6 -->
<g id="edge29" class="edge">
<title>Node23&#45;&gt;Node6</title>
<path fill="none" stroke="midnightblue" d="M161.28,-460.53C141.58,-458.03 118.3,-455.08 98.52,-452.58"/>
<polygon fill="midnightblue" stroke="midnightblue" points="160.85,-464 171.21,-461.78 161.73,-457.05 160.85,-464"/>
</g>
<!-- Node26&#45;&gt;Node6 -->
<g id="edge35" class="edge">
<title>Node26&#45;&gt;Node6</title>
<path fill="none" stroke="midnightblue" d="M311.29,-391.88C267.58,-394.44 200.06,-400.38 143,-414 119.23,-419.67 93.15,-429.92 75.5,-437.5"/>
<polygon fill="midnightblue" stroke="midnightblue" points="311.53,-395.37 321.33,-391.33 311.15,-388.38 311.53,-395.37"/>
</g>
<!-- Node27 -->
<g id="node27" class="node">
<title>Node27</title>
<g id="a_node27"><a xlink:href="group__shapes__revolved.html#gad587c003585db775fd441468954b7c43" target="_top" xlink:title="A rectangular cross&#45;sectional profile revolved about the z&#45;axis.">
<polygon fill="white" stroke="black" points="154,-342.5 154,-361.5 257,-361.5 257,-342.5 154,-342.5"/>
<text text-anchor="middle" x="205.5" y="-349.5" font-family="Helvetica,sans-Serif" font-size="10.00">torus_rectangle_c</text>
</a>
</g>
</g>
<!-- Node26&#45;&gt;Node27 -->
<g id="edge36" class="edge">
<title>Node26&#45;&gt;Node27</title>
<path fill="none" stroke="midnightblue" d="M311.46,-378.5C289.98,-373.08 264.66,-366.69 244.28,-361.54"/>
<polygon fill="midnightblue" stroke="midnightblue" points="310.78,-381.94 321.33,-380.99 312.49,-375.15 310.78,-381.94"/>
</g>
<!-- Node28&#45;&gt;Node2 -->
<g id="edge38" class="edge">
<title>Node28&#45;&gt;Node2</title>
<path fill="none" stroke="midnightblue" d="M318.21,-694C300.22,-694 278.56,-694 259.12,-694"/>
<polygon fill="midnightblue" stroke="midnightblue" points="318.34,-697.5 328.34,-694 318.34,-690.5 318.34,-697.5"/>
</g>
</g>
</svg>
