<?xml version="1.0" encoding="UTF-8" standalone="no"?>
<!DOCTYPE svg PUBLIC "-//W3C//DTD SVG 1.1//EN"
 "http://www.w3.org/Graphics/SVG/1.1/DTD/svg11.dtd">
<!-- Generated by graphviz version 2.43.0 (0)
 -->
<!-- Title: Parts Pages: 1 -->
<svg width="141pt" height="64pt"
 viewBox="0.00 0.00 141.00 64.00" xmlns="http://www.w3.org/2000/svg" xmlns:xlink="http://www.w3.org/1999/xlink">
<g id="graph0" class="graph" transform="scale(1 1) rotate(0) translate(4 60)">
<title>Parts</title>
<polygon fill="white" stroke="transparent" points="-4,4 -4,-60 137,-60 137,4 -4,4"/>
<!-- Node2 -->
<g id="node1" class="node">
<title>Node2</title>
<g id="a_node1"><a xlink:href="group__parts__2d.html" target="_top" xlink:title="2d parts, part generators, and small assemblies.">
<polygon fill="white" stroke="black" points="133,-56 77,-56 77,-37 133,-37 133,-56"/>
<text text-anchor="middle" x="105" y="-44" font-family="Helvetica,sans-Serif" font-size="10.00">2d Parts</text>
</a>
</g>
</g>
<!-- Node3 -->
<g id="node2" class="node">
<title>Node3</title>
<g id="a_node2"><a xlink:href="group__parts__3d.html" target="_top" xlink:title="3d parts, part generators, and small assemblies.">
<polygon fill="white" stroke="black" points="133,-19 77,-19 77,0 133,0 133,-19"/>
<text text-anchor="middle" x="105" y="-7" font-family="Helvetica,sans-Serif" font-size="10.00">3d Parts</text>
</a>
</g>
</g>
<!-- Node1 -->
<g id="node3" class="node">
<title>Node1</title>
<g id="a_node3"><a xlink:title="Parametric design parts, generators, and small assemblies.">
<polygon fill="#bfbfbf" stroke="black" points="41,-37 0,-37 0,-18 41,-18 41,-37"/>
<text text-anchor="middle" x="20.5" y="-25" font-family="Helvetica,sans-Serif" font-size="10.00">Parts</text>
</a>
</g>
</g>
<!-- Node1&#45;&gt;Node2 -->
<g id="edge1" class="edge">
<title>Node1&#45;&gt;Node2</title>
<path fill="none" stroke="black" d="M50.88,-34.27C59.32,-36.21 68.48,-38.32 76.79,-40.23"/>
<polygon fill="black" stroke="black" points="51.58,-30.84 41.05,-32 50.01,-37.66 51.58,-30.84"/>
</g>
<!-- Node1&#45;&gt;Node3 -->
<g id="edge2" class="edge">
<title>Node1&#45;&gt;Node3</title>
<path fill="none" stroke="black" d="M50.88,-21.09C59.32,-19.25 68.48,-17.25 76.79,-15.44"/>
<polygon fill="black" stroke="black" points="50.08,-17.68 41.05,-23.23 51.57,-24.52 50.08,-17.68"/>
</g>
</g>
</svg>
