<?xml version="1.0" encoding="UTF-8" standalone="no"?>
<!DOCTYPE svg PUBLIC "-//W3C//DTD SVG 1.1//EN"
 "http://www.w3.org/Graphics/SVG/1.1/DTD/svg11.dtd">
<!-- Generated by graphviz version 2.43.0 (0)
 -->
<!-- Title: omdl&#45;base.scad Pages: 1 -->
<svg width="3725pt" height="95pt"
 viewBox="0.00 0.00 3724.50 95.00" xmlns="http://www.w3.org/2000/svg" xmlns:xlink="http://www.w3.org/1999/xlink">
<g id="graph0" class="graph" transform="scale(1 1) rotate(0) translate(4 91)">
<title>omdl&#45;base.scad</title>
<polygon fill="white" stroke="transparent" points="-4,4 -4,-91 3720.5,-91 3720.5,4 -4,4"/>
<!-- Node1 -->
<g id="node1" class="node">
<title>Node1</title>
<g id="a_node1"><a xlink:title="Include wrapper of base library components.">
<polygon fill="#bfbfbf" stroke="black" points="1881.5,-67.5 1881.5,-86.5 1975.5,-86.5 1975.5,-67.5 1881.5,-67.5"/>
<text text-anchor="middle" x="1928.5" y="-74.5" font-family="Helvetica,sans-Serif" font-size="10.00">omdl&#45;base.scad</text>
</a>
</g>
</g>
<!-- Node2 -->
<g id="node2" class="node">
<title>Node2</title>
<g id="a_node2"><a xlink:href="console_8scad.html" target="_top" xlink:title="Message logging functions.">
<polygon fill="white" stroke="black" points="0,-6 0,-25 125,-25 125,-6 0,-6"/>
<text text-anchor="middle" x="62.5" y="-13" font-family="Helvetica,sans-Serif" font-size="10.00">common/console.scad</text>
</a>
</g>
</g>
<!-- Node1&#45;&gt;Node2 -->
<g id="edge1" class="edge">
<title>Node1&#45;&gt;Node2</title>
<path fill="none" stroke="midnightblue" d="M1881.45,-75.94C1634.56,-75.48 486.6,-71.16 133.5,-31 125.24,-30.06 116.5,-28.64 108.1,-27.05"/>
<polygon fill="midnightblue" stroke="midnightblue" points="108.55,-23.57 98.06,-25.04 107.18,-30.43 108.55,-23.57"/>
</g>
<!-- Node3 -->
<g id="node3" class="node">
<title>Node3</title>
<g id="a_node3"><a xlink:href="constants_8scad.html" target="_top" xlink:title="Constant definitions.">
<polygon fill="white" stroke="black" points="143,-6 143,-25 278,-25 278,-6 143,-6"/>
<text text-anchor="middle" x="210.5" y="-13" font-family="Helvetica,sans-Serif" font-size="10.00">common/constants.scad</text>
</a>
</g>
</g>
<!-- Node1&#45;&gt;Node3 -->
<g id="edge2" class="edge">
<title>Node1&#45;&gt;Node3</title>
<path fill="none" stroke="midnightblue" d="M1881.29,-75.73C1647.02,-74.26 607.76,-65.82 286.5,-31 277.38,-30.01 267.72,-28.52 258.45,-26.86"/>
<polygon fill="midnightblue" stroke="midnightblue" points="259.07,-23.42 248.59,-25.01 257.78,-30.3 259.07,-23.42"/>
</g>
<!-- Node4 -->
<g id="node4" class="node">
<title>Node4</title>
<g id="a_node4"><a xlink:href="scalar__test_8scad.html" target="_top" xlink:title="Scalar data type tests.">
<polygon fill="white" stroke="black" points="296,-6 296,-25 443,-25 443,-6 296,-6"/>
<text text-anchor="middle" x="369.5" y="-13" font-family="Helvetica,sans-Serif" font-size="10.00">datatypes/scalar_test.scad</text>
</a>
</g>
</g>
<!-- Node1&#45;&gt;Node4 -->
<g id="edge3" class="edge">
<title>Node1&#45;&gt;Node4</title>
<path fill="none" stroke="midnightblue" d="M1881.43,-75.47C1662.16,-72.85 739.42,-60.29 452.5,-31 442.46,-29.98 431.8,-28.45 421.59,-26.77"/>
<polygon fill="midnightblue" stroke="midnightblue" points="422.01,-23.29 411.56,-25.05 420.83,-30.19 422.01,-23.29"/>
</g>
<!-- Node5 -->
<g id="node5" class="node">
<title>Node5</title>
<g id="a_node5"><a xlink:href="scalar__operate_8scad.html" target="_top" xlink:title="Scalar data type operations.">
<polygon fill="white" stroke="black" points="461.5,-6 461.5,-25 627.5,-25 627.5,-6 461.5,-6"/>
<text text-anchor="middle" x="544.5" y="-13" font-family="Helvetica,sans-Serif" font-size="10.00">datatypes/scalar_operate.scad</text>
</a>
</g>
</g>
<!-- Node1&#45;&gt;Node5 -->
<g id="edge4" class="edge">
<title>Node1&#45;&gt;Node5</title>
<path fill="none" stroke="midnightblue" d="M1881.44,-76.42C1712.55,-77.49 1121.32,-77.48 636.5,-31 625.17,-29.91 613.12,-28.33 601.59,-26.6"/>
<polygon fill="midnightblue" stroke="midnightblue" points="602.05,-23.13 591.64,-25.06 600.98,-30.05 602.05,-23.13"/>
</g>
<!-- Node6 -->
<g id="node6" class="node">
<title>Node6</title>
<g id="a_node6"><a xlink:href="iterable__test_8scad.html" target="_top" xlink:title="Iterable data type tests.">
<polygon fill="white" stroke="black" points="645.5,-0.5 645.5,-30.5 751.5,-30.5 751.5,-0.5 645.5,-0.5"/>
<text text-anchor="start" x="653.5" y="-18.5" font-family="Helvetica,sans-Serif" font-size="10.00">datatypes/iterable</text>
<text text-anchor="middle" x="698.5" y="-7.5" font-family="Helvetica,sans-Serif" font-size="10.00">_test.scad</text>
</a>
</g>
</g>
<!-- Node1&#45;&gt;Node6 -->
<g id="edge5" class="edge">
<title>Node1&#45;&gt;Node6</title>
<path fill="none" stroke="midnightblue" d="M1881.43,-75.39C1694.41,-72.77 1002.7,-61.32 761.91,-30.97"/>
<polygon fill="midnightblue" stroke="midnightblue" points="762.18,-27.48 751.81,-29.65 761.28,-34.42 762.18,-27.48"/>
</g>
<!-- Node7 -->
<g id="node7" class="node">
<title>Node7</title>
<g id="a_node7"><a xlink:href="iterable__operate_8scad.html" target="_top" xlink:title="Iterable data type operations.">
<polygon fill="white" stroke="black" points="769.5,-0.5 769.5,-30.5 875.5,-30.5 875.5,-0.5 769.5,-0.5"/>
<text text-anchor="start" x="777.5" y="-18.5" font-family="Helvetica,sans-Serif" font-size="10.00">datatypes/iterable</text>
<text text-anchor="middle" x="822.5" y="-7.5" font-family="Helvetica,sans-Serif" font-size="10.00">_operate.scad</text>
</a>
</g>
</g>
<!-- Node1&#45;&gt;Node7 -->
<g id="edge6" class="edge">
<title>Node1&#45;&gt;Node7</title>
<path fill="none" stroke="midnightblue" d="M1881.41,-75.14C1707.47,-71.78 1100.57,-58.43 885.75,-30.95"/>
<polygon fill="midnightblue" stroke="midnightblue" points="886.19,-27.48 875.82,-29.64 885.27,-34.42 886.19,-27.48"/>
</g>
<!-- Node8 -->
<g id="node8" class="node">
<title>Node8</title>
<g id="a_node8"><a xlink:href="list__operate_8scad.html" target="_top" xlink:title="List data type operations.">
<polygon fill="white" stroke="black" points="893.5,-6 893.5,-25 1045.5,-25 1045.5,-6 893.5,-6"/>
<text text-anchor="middle" x="969.5" y="-13" font-family="Helvetica,sans-Serif" font-size="10.00">datatypes/list_operate.scad</text>
</a>
</g>
</g>
<!-- Node1&#45;&gt;Node8 -->
<g id="edge7" class="edge">
<title>Node1&#45;&gt;Node8</title>
<path fill="none" stroke="midnightblue" d="M1881.45,-75.52C1750.18,-73.76 1368.99,-65.8 1054.5,-31 1044.46,-29.89 1033.8,-28.36 1023.55,-26.7"/>
<polygon fill="midnightblue" stroke="midnightblue" points="1023.92,-23.21 1013.48,-25.01 1022.76,-30.12 1023.92,-23.21"/>
</g>
<!-- Node9 -->
<g id="node9" class="node">
<title>Node9</title>
<g id="a_node9"><a xlink:href="list__inspect_8scad.html" target="_top" xlink:title="List data type inspection.">
<polygon fill="white" stroke="black" points="1064,-6 1064,-25 1213,-25 1213,-6 1064,-6"/>
<text text-anchor="middle" x="1138.5" y="-13" font-family="Helvetica,sans-Serif" font-size="10.00">datatypes/list_inspect.scad</text>
</a>
</g>
</g>
<!-- Node1&#45;&gt;Node9 -->
<g id="edge8" class="edge">
<title>Node1&#45;&gt;Node9</title>
<path fill="none" stroke="midnightblue" d="M1881.18,-74.78C1767.25,-71.44 1468.82,-60.38 1221.5,-31 1212.01,-29.87 1201.96,-28.38 1192.26,-26.77"/>
<polygon fill="midnightblue" stroke="midnightblue" points="1192.75,-23.31 1182.3,-25.08 1191.57,-30.21 1192.75,-23.31"/>
</g>
<!-- Node10 -->
<g id="node10" class="node">
<title>Node10</title>
<g id="a_node10"><a xlink:href="euclidean_8scad.html" target="_top" xlink:title="Tests and operations for Euclidean 3d space.">
<polygon fill="white" stroke="black" points="1231,-6 1231,-25 1372,-25 1372,-6 1231,-6"/>
<text text-anchor="middle" x="1301.5" y="-13" font-family="Helvetica,sans-Serif" font-size="10.00">datatypes/euclidean.scad</text>
</a>
</g>
</g>
<!-- Node1&#45;&gt;Node10 -->
<g id="edge9" class="edge">
<title>Node1&#45;&gt;Node10</title>
<path fill="none" stroke="midnightblue" d="M1881.42,-73.72C1786.4,-68.76 1565.03,-55.45 1380.5,-31 1371.76,-29.84 1362.52,-28.37 1353.56,-26.81"/>
<polygon fill="midnightblue" stroke="midnightblue" points="1354.07,-23.35 1343.61,-25.03 1352.83,-30.24 1354.07,-23.35"/>
</g>
<!-- Node11 -->
<g id="node11" class="node">
<title>Node11</title>
<g id="a_node11"><a xlink:href="binary_8scad.html" target="_top" xlink:title="Base&#45;2 binary numbers tests and operations.">
<polygon fill="white" stroke="black" points="1390,-6 1390,-25 1513,-25 1513,-6 1390,-6"/>
<text text-anchor="middle" x="1451.5" y="-13" font-family="Helvetica,sans-Serif" font-size="10.00">datatypes/binary.scad</text>
</a>
</g>
</g>
<!-- Node1&#45;&gt;Node11 -->
<g id="edge10" class="edge">
<title>Node1&#45;&gt;Node11</title>
<path fill="none" stroke="midnightblue" d="M1881.43,-72.18C1805.58,-65.72 1651.76,-51.32 1522.5,-31 1515.24,-29.86 1507.59,-28.48 1500.11,-27.04"/>
<polygon fill="midnightblue" stroke="midnightblue" points="1500.57,-23.56 1490.08,-25.04 1499.2,-30.43 1500.57,-23.56"/>
</g>
<!-- Node12 -->
<g id="node12" class="node">
<title>Node12</title>
<g id="a_node12"><a xlink:href="map_8scad.html" target="_top" xlink:title="Map data structure and operations.">
<polygon fill="white" stroke="black" points="1531.5,-6 1531.5,-25 1647.5,-25 1647.5,-6 1531.5,-6"/>
<text text-anchor="middle" x="1589.5" y="-13" font-family="Helvetica,sans-Serif" font-size="10.00">datatypes/map.scad</text>
</a>
</g>
</g>
<!-- Node1&#45;&gt;Node12 -->
<g id="edge11" class="edge">
<title>Node1&#45;&gt;Node12</title>
<path fill="none" stroke="midnightblue" d="M1881.2,-68.9C1826.84,-60.57 1735.02,-45.98 1656.5,-31 1650.29,-29.81 1643.76,-28.5 1637.33,-27.15"/>
<polygon fill="midnightblue" stroke="midnightblue" points="1637.86,-23.68 1627.35,-25.03 1636.4,-30.53 1637.86,-23.68"/>
</g>
<!-- Node13 -->
<g id="node13" class="node">
<title>Node13</title>
<g id="a_node13"><a xlink:href="table_8scad.html" target="_top" xlink:title="Table data structure and operations.">
<polygon fill="white" stroke="black" points="1666,-6 1666,-25 1785,-25 1785,-6 1666,-6"/>
<text text-anchor="middle" x="1725.5" y="-13" font-family="Helvetica,sans-Serif" font-size="10.00">datatypes/table.scad</text>
</a>
</g>
</g>
<!-- Node1&#45;&gt;Node13 -->
<g id="edge12" class="edge">
<title>Node1&#45;&gt;Node13</title>
<path fill="none" stroke="midnightblue" d="M1899.42,-67.48C1863.92,-57.07 1803.75,-39.44 1764.33,-27.88"/>
<polygon fill="midnightblue" stroke="midnightblue" points="1765.11,-24.46 1754.53,-25.01 1763.14,-31.18 1765.11,-24.46"/>
</g>
<!-- Node14 -->
<g id="node14" class="node">
<title>Node14</title>
<g id="a_node14"><a xlink:href="triangle_8scad.html" target="_top" xlink:title="Triangle shapes, conversions, properties, and tests functions.">
<polygon fill="white" stroke="black" points="1803.5,-6 1803.5,-25 1911.5,-25 1911.5,-6 1803.5,-6"/>
<text text-anchor="middle" x="1857.5" y="-13" font-family="Helvetica,sans-Serif" font-size="10.00">math/triangle.scad</text>
</a>
</g>
</g>
<!-- Node1&#45;&gt;Node14 -->
<g id="edge13" class="edge">
<title>Node1&#45;&gt;Node14</title>
<path fill="none" stroke="midnightblue" d="M1918.33,-67.48C1907.15,-58.11 1888.98,-42.88 1875.41,-31.51"/>
<polygon fill="midnightblue" stroke="midnightblue" points="1877.57,-28.75 1867.65,-25.01 1873.07,-34.11 1877.57,-28.75"/>
</g>
<!-- Node15 -->
<g id="node15" class="node">
<title>Node15</title>
<g id="a_node15"><a xlink:href="linear__algebra_8scad.html" target="_top" xlink:title="Linear algebra mathematical functions.">
<polygon fill="white" stroke="black" points="1929.5,-6 1929.5,-25 2069.5,-25 2069.5,-6 1929.5,-6"/>
<text text-anchor="middle" x="1999.5" y="-13" font-family="Helvetica,sans-Serif" font-size="10.00">math/linear_algebra.scad</text>
</a>
</g>
</g>
<!-- Node1&#45;&gt;Node15 -->
<g id="edge14" class="edge">
<title>Node1&#45;&gt;Node15</title>
<path fill="none" stroke="midnightblue" d="M1938.67,-67.48C1949.85,-58.11 1968.02,-42.88 1981.59,-31.51"/>
<polygon fill="midnightblue" stroke="midnightblue" points="1983.93,-34.11 1989.35,-25.01 1979.43,-28.75 1983.93,-34.11"/>
</g>
<!-- Node16 -->
<g id="node16" class="node">
<title>Node16</title>
<g id="a_node16"><a xlink:href="math_2polygon_8scad.html" target="_top" xlink:title="Polygon shapes, conversions, properties, and tests functions.">
<polygon fill="white" stroke="black" points="2087.5,-6 2087.5,-25 2197.5,-25 2197.5,-6 2087.5,-6"/>
<text text-anchor="middle" x="2142.5" y="-13" font-family="Helvetica,sans-Serif" font-size="10.00">math/polygon.scad</text>
</a>
</g>
</g>
<!-- Node1&#45;&gt;Node16 -->
<g id="edge15" class="edge">
<title>Node1&#45;&gt;Node16</title>
<path fill="none" stroke="midnightblue" d="M1959.16,-67.48C1996.74,-57.03 2060.54,-39.29 2102.1,-27.73"/>
<polygon fill="midnightblue" stroke="midnightblue" points="2103.2,-31.06 2111.9,-25.01 2101.32,-24.32 2103.2,-31.06"/>
</g>
<!-- Node17 -->
<g id="node17" class="node">
<title>Node17</title>
<g id="a_node17"><a xlink:href="polyhedron_8scad.html" target="_top" xlink:title="Polyhedron shapes, conversions, properties, and tests functions.">
<polygon fill="white" stroke="black" points="2216,-6 2216,-25 2341,-25 2341,-6 2216,-6"/>
<text text-anchor="middle" x="2278.5" y="-13" font-family="Helvetica,sans-Serif" font-size="10.00">math/polyhedron.scad</text>
</a>
</g>
</g>
<!-- Node1&#45;&gt;Node17 -->
<g id="edge16" class="edge">
<title>Node1&#45;&gt;Node17</title>
<path fill="none" stroke="midnightblue" d="M1975.82,-68.91C2031.21,-60.47 2125.68,-45.67 2206.5,-31 2213.24,-29.78 2220.33,-28.43 2227.32,-27.06"/>
<polygon fill="midnightblue" stroke="midnightblue" points="2228.3,-30.43 2237.43,-25.05 2226.94,-23.56 2228.3,-30.43"/>
</g>
<!-- Node18 -->
<g id="node18" class="node">
<title>Node18</title>
<g id="a_node18"><a xlink:href="math_2polytope_8scad.html" target="_top" xlink:title="Polytope shapes, conversions, properties, and tests functions.">
<polygon fill="white" stroke="black" points="2359,-6 2359,-25 2472,-25 2472,-6 2359,-6"/>
<text text-anchor="middle" x="2415.5" y="-13" font-family="Helvetica,sans-Serif" font-size="10.00">math/polytope.scad</text>
</a>
</g>
</g>
<!-- Node1&#45;&gt;Node18 -->
<g id="edge17" class="edge">
<title>Node1&#45;&gt;Node18</title>
<path fill="none" stroke="midnightblue" d="M1975.57,-72.73C2053.78,-66.91 2215.27,-53.22 2350.5,-31 2356.94,-29.94 2363.7,-28.65 2370.32,-27.27"/>
<polygon fill="midnightblue" stroke="midnightblue" points="2371.52,-30.59 2380.56,-25.06 2370.04,-23.75 2371.52,-30.59"/>
</g>
<!-- Node19 -->
<g id="node19" class="node">
<title>Node19</title>
<g id="a_node19"><a xlink:href="utility_8scad.html" target="_top" xlink:title="Miscellaneous mathematical utilities.">
<polygon fill="white" stroke="black" points="2490.5,-6 2490.5,-25 2588.5,-25 2588.5,-6 2490.5,-6"/>
<text text-anchor="middle" x="2539.5" y="-13" font-family="Helvetica,sans-Serif" font-size="10.00">math/utility.scad</text>
</a>
</g>
</g>
<!-- Node1&#45;&gt;Node19 -->
<g id="edge18" class="edge">
<title>Node1&#45;&gt;Node19</title>
<path fill="none" stroke="midnightblue" d="M1975.79,-74.76C2071.74,-71.67 2295.92,-61.54 2481.5,-31 2487.34,-30.04 2493.45,-28.79 2499.43,-27.42"/>
<polygon fill="midnightblue" stroke="midnightblue" points="2500.39,-30.79 2509.29,-25.05 2498.75,-23.99 2500.39,-30.79"/>
</g>
<!-- Node20 -->
<g id="node20" class="node">
<title>Node20</title>
<g id="a_node20"><a xlink:href="common__2d_8scad.html" target="_top" xlink:title="Common 2D shapes.">
<polygon fill="white" stroke="black" points="2606.5,-6 2606.5,-25 2746.5,-25 2746.5,-6 2606.5,-6"/>
<text text-anchor="middle" x="2676.5" y="-13" font-family="Helvetica,sans-Serif" font-size="10.00">shapes/common_2d.scad</text>
</a>
</g>
</g>
<!-- Node1&#45;&gt;Node20 -->
<g id="edge19" class="edge">
<title>Node1&#45;&gt;Node20</title>
<path fill="none" stroke="midnightblue" d="M1975.72,-74.68C2085.32,-71.21 2365.33,-60.02 2597.5,-31 2606.35,-29.89 2615.7,-28.44 2624.76,-26.87"/>
<polygon fill="midnightblue" stroke="midnightblue" points="2625.59,-30.28 2634.82,-25.07 2624.36,-23.39 2625.59,-30.28"/>
</g>
<!-- Node21 -->
<g id="node21" class="node">
<title>Node21</title>
<g id="a_node21"><a xlink:href="common__3d_8scad.html" target="_top" xlink:title="Common 3D shapes.">
<polygon fill="white" stroke="black" points="2764.5,-6 2764.5,-25 2904.5,-25 2904.5,-6 2764.5,-6"/>
<text text-anchor="middle" x="2834.5" y="-13" font-family="Helvetica,sans-Serif" font-size="10.00">shapes/common_3d.scad</text>
</a>
</g>
</g>
<!-- Node1&#45;&gt;Node21 -->
<g id="edge20" class="edge">
<title>Node1&#45;&gt;Node21</title>
<path fill="none" stroke="midnightblue" d="M1975.77,-75.53C2102.5,-73.81 2460.28,-65.98 2755.5,-31 2764.65,-29.92 2774.34,-28.42 2783.69,-26.81"/>
<polygon fill="midnightblue" stroke="midnightblue" points="2784.42,-30.23 2793.65,-25.02 2783.19,-23.34 2784.42,-30.23"/>
</g>
<!-- Node22 -->
<g id="node22" class="node">
<title>Node22</title>
<g id="a_node22"><a xlink:href="shapes_2polygon_8scad.html" target="_top" xlink:title="Roundable polygons generated in 2D space.">
<polygon fill="white" stroke="black" points="2923,-6 2923,-25 3042,-25 3042,-6 2923,-6"/>
<text text-anchor="middle" x="2982.5" y="-13" font-family="Helvetica,sans-Serif" font-size="10.00">shapes/polygon.scad</text>
</a>
</g>
</g>
<!-- Node1&#45;&gt;Node22 -->
<g id="edge21" class="edge">
<title>Node1&#45;&gt;Node22</title>
<path fill="none" stroke="midnightblue" d="M1975.64,-76.54C2117.86,-77.58 2554.97,-76.56 2913.5,-31 2921.27,-30.01 2929.47,-28.61 2937.39,-27.07"/>
<polygon fill="midnightblue" stroke="midnightblue" points="2938.13,-30.49 2947.23,-25.06 2936.73,-23.63 2938.13,-30.49"/>
</g>
<!-- Node23 -->
<g id="node23" class="node">
<title>Node23</title>
<g id="a_node23"><a xlink:href="align_8scad.html" target="_top" xlink:title="Shape alignment tools.">
<polygon fill="white" stroke="black" points="3060.5,-6 3060.5,-25 3182.5,-25 3182.5,-6 3060.5,-6"/>
<text text-anchor="middle" x="3121.5" y="-13" font-family="Helvetica,sans-Serif" font-size="10.00">transforms/align.scad</text>
</a>
</g>
</g>
<!-- Node1&#45;&gt;Node23 -->
<g id="edge22" class="edge">
<title>Node1&#45;&gt;Node23</title>
<path fill="none" stroke="midnightblue" d="M1975.61,-75.14C2160.68,-71.62 2838.22,-57.18 3051.5,-31 3059.56,-30.01 3068.07,-28.58 3076.27,-27"/>
<polygon fill="midnightblue" stroke="midnightblue" points="3076.97,-30.43 3086.08,-25.02 3075.58,-23.57 3076.97,-30.43"/>
</g>
<!-- Node24 -->
<g id="node24" class="node">
<title>Node24</title>
<g id="a_node24"><a xlink:href="repeat_8scad.html" target="_top" xlink:title="Shape repetition tools.">
<polygon fill="white" stroke="black" points="3200.5,-6 3200.5,-25 3330.5,-25 3330.5,-6 3200.5,-6"/>
<text text-anchor="middle" x="3265.5" y="-13" font-family="Helvetica,sans-Serif" font-size="10.00">transforms/repeat.scad</text>
</a>
</g>
</g>
<!-- Node1&#45;&gt;Node24 -->
<g id="edge23" class="edge">
<title>Node1&#45;&gt;Node24</title>
<path fill="none" stroke="midnightblue" d="M1975.6,-75.32C2174.83,-72.28 2949.14,-58.89 3191.5,-31 3200.1,-30.01 3209.19,-28.56 3217.95,-26.96"/>
<polygon fill="midnightblue" stroke="midnightblue" points="3218.87,-30.35 3228.03,-25.03 3217.55,-23.48 3218.87,-30.35"/>
</g>
<!-- Node25 -->
<g id="node25" class="node">
<title>Node25</title>
<g id="a_node25"><a xlink:href="extrude_8scad.html" target="_top" xlink:title="Shape extrusion operations.">
<polygon fill="white" stroke="black" points="3348.5,-6 3348.5,-25 3484.5,-25 3484.5,-6 3348.5,-6"/>
<text text-anchor="middle" x="3416.5" y="-13" font-family="Helvetica,sans-Serif" font-size="10.00">transforms/extrude.scad</text>
</a>
</g>
</g>
<!-- Node1&#45;&gt;Node25 -->
<g id="edge24" class="edge">
<title>Node1&#45;&gt;Node25</title>
<path fill="none" stroke="midnightblue" d="M1975.62,-75.47C2189.03,-72.95 3066.32,-60.9 3339.5,-31 3348.64,-30 3358.31,-28.52 3367.61,-26.88"/>
<polygon fill="midnightblue" stroke="midnightblue" points="3368.3,-30.31 3377.5,-25.05 3367.03,-23.43 3368.3,-30.31"/>
</g>
<!-- Node26 -->
<g id="node26" class="node">
<title>Node26</title>
<g id="a_node26"><a xlink:href="angle_8scad.html" target="_top" xlink:title="Angle units and conversions.">
<polygon fill="white" stroke="black" points="3502.5,-6 3502.5,-25 3598.5,-25 3598.5,-6 3502.5,-6"/>
<text text-anchor="middle" x="3550.5" y="-13" font-family="Helvetica,sans-Serif" font-size="10.00">units/angle.scad</text>
</a>
</g>
</g>
<!-- Node1&#45;&gt;Node26 -->
<g id="edge25" class="edge">
<title>Node1&#45;&gt;Node26</title>
<path fill="none" stroke="midnightblue" d="M1975.78,-76.04C2203.6,-76.04 3189.48,-73.51 3493.5,-31 3499.52,-30.16 3505.83,-28.92 3511.97,-27.52"/>
<polygon fill="midnightblue" stroke="midnightblue" points="3513.16,-30.83 3522.04,-25.05 3511.49,-24.03 3513.16,-30.83"/>
</g>
<!-- Node27 -->
<g id="node27" class="node">
<title>Node27</title>
<g id="a_node27"><a xlink:href="length_8scad.html" target="_top" xlink:title="Length units and conversions.">
<polygon fill="white" stroke="black" points="3616.5,-6 3616.5,-25 3716.5,-25 3716.5,-6 3616.5,-6"/>
<text text-anchor="middle" x="3666.5" y="-13" font-family="Helvetica,sans-Serif" font-size="10.00">units/length.scad</text>
</a>
</g>
</g>
<!-- Node1&#45;&gt;Node27 -->
<g id="edge26" class="edge">
<title>Node1&#45;&gt;Node27</title>
<path fill="none" stroke="midnightblue" d="M1975.63,-76.1C2213.04,-76.39 3279.5,-75.18 3607.5,-31 3613.88,-30.14 3620.57,-28.87 3627.06,-27.43"/>
<polygon fill="midnightblue" stroke="midnightblue" points="3628.11,-30.77 3637.03,-25.06 3626.49,-23.96 3628.11,-30.77"/>
</g>
</g>
</svg>
