<?xml version="1.0" standalone="no"?>
<!DOCTYPE svg PUBLIC "-//W3C//DTD SVG 1.1//EN" "http://www.w3.org/Graphics/SVG/1.1/DTD/svg11.dtd">
<svg width="40mm" height="42mm" viewBox="-20 -21 40 42" xmlns="http://www.w3.org/2000/svg" version="1.1">
<title>OpenSCAD Model</title>
<path d="
M -19.25,-19.8438 L -19.25,19.8438 L -19.05,20.0437 L 19.05,20.0437 L 19.25,19.8438 L 19.25,-19.8438
 L 19.05,-20.0437 L -19.05,-20.0437 z
M -18.85,-10.5188 L -18.85,-19.6438 L 18.85,-19.6438 L 18.85,-10.5188 z
M 13.0813,-11.8379 L 9.12406,-11.8379 L 9.12406,-13.9521 L 12.6464,-13.9521 L 12.6464,-14.6153 L 9.12406,-14.6153
 L 9.12406,-16.5616 L 12.9048,-16.5616 L 12.9048,-17.2334 L 8.30161,-17.2334 L 8.30161,-11.1661 L 13.0813,-11.1661
 z
M 7.4,-11.8379 L 4.33409,-11.8379 L 4.33409,-17.2334 L 3.51163,-17.2334 L 3.51163,-11.1661 L 7.4,-11.1661
 z
M 0.523822,-11.1766 L 0.808032,-11.2082 L 1.08264,-11.2608 L 1.34151,-11.3362 L 1.57834,-11.4359 L 1.79315,-11.5601
 L 1.98311,-11.7099 L 2.14531,-11.8864 L 2.27976,-12.0898 L 2.38022,-12.3216 L 2.44051,-12.5835 L 2.4606,-12.8756
 L 2.44959,-13.0692 L 2.41657,-13.2536 L 2.36154,-13.4289 L 2.28548,-13.5928 L 2.18932,-13.7428 L 2.07306,-13.8789
 L 1.93645,-14.0004 L 1.77927,-14.1067 L 1.6015,-14.1976 L 1.40416,-14.2717 L 1.18816,-14.3277 L 0.953494,-14.3655
 L 1.13791,-14.416 L 1.30655,-14.4813 L 1.4594,-14.5614 L 1.59626,-14.6547 L 1.71683,-14.7595 L 1.82115,-14.8757
 L 1.9092,-15.0023 L 1.98098,-15.138 L 2.03649,-15.2827 L 2.07596,-15.4353 L 2.09964,-15.5947 L 2.10753,-15.7607
 L 2.09151,-16.0068 L 2.04341,-16.2286 L 1.96326,-16.426 L 1.8525,-16.6004 L 1.71254,-16.7532 L 1.5434,-16.8846
 L 1.34629,-16.9944 L 1.12236,-17.0826 L 0.871631,-17.1494 L 0.595599,-17.196 L 0.295627,-17.224 L -0.0282715,-17.2334
 L -2.23298,-17.2334 L -2.23298,-11.1661 L 0.230029,-11.1661 z
M -1.41053,-14.654 L -1.41053,-16.5746 L -0.0282715,-16.5746 L 0.363086,-16.5511 L 0.687457,-16.4808 L 0.944858,-16.3636
 L 1.13147,-16.1918 L 1.24344,-15.9578 L 1.28076,-15.6616 L 1.27312,-15.5119 L 1.25014,-15.3726 L 1.21187,-15.2439
 L 1.15636,-15.1265 L 1.08171,-15.021 L 0.987903,-14.9274 L 0.874042,-14.8466 L 0.739124,-14.7791 L 0.583163,-14.7251
 L 0.404224,-14.6856 L 0.200412,-14.6619 L -0.0282715,-14.654 z
M -1.41053,-11.8249 L -1.41053,-14.0124 L 0.122409,-14.0124 L 0.344638,-14.0057 L 0.552051,-13.9856 L 0.744632,-13.9521
 L 0.920947,-13.9043 L 1.07955,-13.8411 L 1.22045,-13.7627 L 1.34223,-13.6684 L 1.44342,-13.5579 L 1.52404,-13.4311
 L 1.58263,-13.2866 L 1.61779,-13.123 L 1.6295,-12.9402 L 1.61756,-12.7369 L 1.58167,-12.5574 L 1.52188,-12.4019
 L 1.44078,-12.268 L 1.34104,-12.1532 L 1.2226,-12.0574 L 1.0867,-11.9799 L 0.934543,-11.9197 L 0.766101,-11.8766
 L 0.584064,-11.8479 L 0.391025,-11.8306 L 0.186984,-11.8249 z
M -7.13365,-12.9402 L -4.36918,-12.9402 L -3.67589,-11.1661 L -2.83616,-11.1661 L -5.27342,-17.2334 L -6.20788,-17.2334
 L -8.68388,-11.1661 L -7.83127,-11.1661 z
M -6.88391,-13.5818 L -6.10882,-15.5755 L -6.06601,-15.6908 L -6.02368,-15.8071 L -5.98182,-15.9243 L -5.9416,-16.0387
 L -5.90426,-16.1463 L -5.86981,-16.2472 L -5.83896,-16.3396 L -5.81241,-16.4214 L -5.79019,-16.4927 L -5.77247,-16.5501
 L -5.75953,-16.5903 L -5.75139,-16.6133 L -5.74543,-16.5906 L -5.73324,-16.5511 L -5.71481,-16.4949 L -5.6916,-16.425
 L -5.66505,-16.3446 L -5.63517,-16.2537 L -5.60193,-16.154 L -5.56534,-16.047 L -5.52539,-15.9329 L -5.48301,-15.8157
 L -5.43922,-15.6994 L -5.39401,-15.5842 L -4.61461,-13.5818 z
M -10.2224,-16.5616 L -8.1383,-16.5616 L -8.1383,-17.2334 L -13.1248,-17.2334 L -13.1248,-16.5616 L -11.0406,-16.5616
 L -11.0406,-11.1661 L -10.2224,-11.1661 z
M -18.85,-5.65625 L -18.85,-10.1188 L -6.40001,-10.1188 L -6.40001,-5.65625 z
M -11.4171,-9.435 L -11.8047,-9.435 L -11.8047,-6.23988 L -11.4171,-6.23988 z
M -8.90803,-6.56929 L -9.64651,-6.56929 L -9.64651,-9.27351 L -10.0039,-9.27351 L -10.7209,-8.78047 L -10.7209,-8.41446
 L -10.0362,-8.90318 L -10.0362,-6.56929 L -10.8092,-6.56929 L -10.8092,-6.23988 L -8.90803,-6.23988 z
M -12.8287,-6.27165 L -12.4987,-6.49611 L -12.2969,-6.87343 L -12.2296,-7.40683 L -12.2447,-7.68942 L -12.2899,-7.93431
 L -12.3666,-8.14156 L -12.4761,-8.31111 L -12.6199,-8.44299 L -12.7991,-8.53717 L -13.0147,-8.59369 L -13.2674,-8.61252
 L -14.0505,-8.3111 L -14.3116,-7.40683 L -14.2941,-7.11913 L -14.2416,-6.87181 L -14.156,-6.66377 L -14.0392,-6.49396
 L -13.892,-6.36261 L -13.7152,-6.27002 L -13.5107,-6.21513 L -13.2803,-6.19684 z
M -13.413,-6.49396 L -13.5311,-6.52625 L -13.6366,-6.5849 L -13.727,-6.6748 L -13.8011,-6.79832 L -13.8573,-6.95792
 L -13.8928,-7.15897 L -13.9047,-7.40683 L -13.8937,-7.64958 L -13.8605,-7.84821 L -13.8064,-8.00726 L -13.7324,-8.13132
 L -13.6396,-8.22229 L -13.529,-8.28203 L -13.4022,-8.31512 L -13.2609,-8.32617 L -13.122,-8.31567 L -12.9983,-8.28419
 L -12.8909,-8.22633 L -12.8013,-8.13672 L -12.7302,-8.01344 L -12.6786,-7.85464 L -12.647,-7.65443 L -12.6365,-7.40683
 L -12.6478,-7.15869 L -12.6818,-6.95683 L -12.7366,-6.79645 L -12.8109,-6.67264 L -12.904,-6.58304 L -13.0155,-6.52516
 L -13.143,-6.49368 L -13.2846,-6.48318 z
M -15.2629,-6.21217 L -15.0912,-6.25818 L -14.944,-6.3295 L -14.821,-6.42073 L -14.7216,-6.53 L -14.6455,-6.6554
 L -14.5922,-6.7916 L -14.5615,-6.93318 L -14.9534,-6.959 L -15.0123,-6.75662 L -15.1245,-6.6145 L -15.2804,-6.53055
 L -15.4701,-6.50255 L -15.6227,-6.51924 L -15.7489,-6.56929 L -15.8509,-6.64978 L -15.9309,-6.75771 L -15.9898,-6.8909
 L -16.0288,-7.04726 L -16.0506,-7.22328 L -16.0579,-7.41547 L -16.0506,-7.62698 L -16.0288,-7.80943 L -15.9898,-7.96312
 L -15.9309,-8.08826 L -15.8515,-8.18513 L -15.7511,-8.25403 L -15.6265,-8.29523 L -15.4744,-8.30896 L -15.2742,-8.28043
 L -15.1256,-8.19484 L -15.026,-8.06082 L -14.9727,-7.88696 L -14.5744,-7.9171 L -14.6126,-8.05865 L -14.6713,-8.19054
 L -14.7507,-8.30922 L -14.8511,-8.41122 L -14.9725,-8.49492 L -15.1148,-8.5587 L -15.2785,-8.59906 L -15.4636,-8.61252
 L -15.588,-8.60632 L -15.7112,-8.58775 L -15.831,-8.55547 L -15.9449,-8.50809 L -16.0517,-8.44405 L -16.1505,-8.36169
 L -16.239,-8.25943 L -16.3152,-8.13564 L -16.3773,-7.98976 L -16.4239,-7.82127 L -16.453,-7.62779 L -16.4626,-7.40683
 L -16.4492,-7.1579 L -16.4088,-6.92778 L -16.3386,-6.72162 L -16.2355,-6.54453 L -16.098,-6.39949 L -15.9244,-6.28941
 L -15.7123,-6.21999 L -15.4593,-6.19684 z
M -6.3,-5.65625 L -6.3,-10.1188 L 6.29999,-10.1188 L 6.29999,-5.65625 z
M 1.28287,-9.435 L 0.895328,-9.435 L 0.895328,-6.23988 L 1.28287,-6.23988 z
M 3.78553,-6.56929 L 2.20304,-6.56929 L 2.26493,-6.68961 L 2.34728,-6.80507 L 2.44605,-6.9173 L 2.55721,-7.02789
 L 2.67859,-7.13744 L 2.80803,-7.24643 L 2.94097,-7.3557 L 3.07283,-7.46603 L 3.20148,-7.57828 L 3.32473,-7.69318
 L 3.43805,-7.81158 L 3.53682,-7.93431 L 3.61917,-8.06244 L 3.68322,-8.19701 L 3.72441,-8.33856 L 3.73815,-8.48764
 L 3.722,-8.67821 L 3.67354,-8.84506 L 3.59468,-8.9877 L 3.48729,-9.10556 L 3.35193,-9.19815 L 3.18909,-9.26489
 L 3.00019,-9.30527 L 2.7865,-9.31874 L 2.56986,-9.30312 L 2.38065,-9.25629 L 2.21782,-9.18228 L 2.08029,-9.08511
 L 1.96888,-8.96751 L 1.88436,-8.83214 L 1.82624,-8.68304 L 1.79393,-8.52425 L 2.19011,-8.48764 L 2.21405,-8.60687
 L 2.25577,-8.71049 L 2.31365,-8.79851 L 2.38605,-8.8709 L 2.47136,-8.92741 L 2.56797,-8.96777 L 2.67374,-8.992
 L 2.7865,-9.00009 L 2.90573,-8.99174 L 3.01364,-8.96669 L 3.10865,-8.92497 L 3.18909,-8.86658 L 3.2537,-8.79204
 L 3.30107,-8.70186 L 3.33016,-8.5961 L 3.33985,-8.47472 L 3.31858,-8.29927 L 3.25478,-8.14316 L 3.15654,-7.99998
 L 3.03194,-7.86325 L 2.88579,-7.72978 L 2.72298,-7.59631 L 2.551,-7.45717 L 2.37741,-7.30672 L 2.20706,-7.14148
 L 2.04476,-6.95792 L 1.89864,-6.75043 L 1.77672,-6.51332 L 1.77672,-6.23988 L 3.78553,-6.23988 z
M -0.128705,-6.27165 L 0.201251,-6.49611 L 0.40311,-6.87343 L 0.470401,-7.40683 L 0.455325,-7.68942 L 0.410098,-7.93431
 L 0.333392,-8.14156 L 0.223849,-8.31111 L 0.0801422,-8.44299 L -0.0990875,-8.53717 L -0.314664,-8.59369 L -0.567365,-8.61252
 L -1.35054,-8.3111 L -1.6116,-7.40683 L -1.5941,-7.11913 L -1.54162,-6.87181 L -1.45604,-6.66377 L -1.33925,-6.49396
 L -1.19201,-6.36261 L -1.01521,-6.27002 L -0.810666,-6.21513 L -0.580289,-6.19684 z
M -0.712979,-6.49396 L -0.831113,-6.52625 L -0.936612,-6.5849 L -1.02705,-6.6748 L -1.10107,-6.79832 L -1.15732,-6.95792
 L -1.19285,-7.15897 L -1.20469,-7.40683 L -1.19366,-7.64958 L -1.16055,-7.84821 L -1.10644,-8.00726 L -1.03245,-8.13132
 L -0.939587,-8.22229 L -0.828992,-8.28203 L -0.702222,-8.31512 L -0.560925,-8.32617 L -0.42204,-8.31567 L -0.29826,-8.28419
 L -0.190869,-8.22633 L -0.101254,-8.13672 L -0.0301941,-8.01344 L 0.0214417,-7.85464 L 0.052951,-7.65443 L 0.0634491,-7.40683
 L 0.0521576,-7.15869 L 0.0182373,-6.95683 L -0.0366486,-6.79645 L -0.110928,-6.67264 L -0.204037,-6.58304 L -0.315472,-6.52516
 L -0.443036,-6.49368 L -0.584607,-6.48318 z
M -2.56288,-6.21217 L -2.39117,-6.25818 L -2.24395,-6.3295 L -2.12097,-6.42073 L -2.02165,-6.53 L -1.94549,-6.6554
 L -1.89219,-6.7916 L -1.86151,-6.93318 L -2.25337,-6.959 L -2.31231,-6.75662 L -2.42454,-6.6145 L -2.58036,-6.53055
 L -2.77011,-6.50255 L -2.9227,-6.51924 L -3.04893,-6.56929 L -3.15092,-6.64978 L -3.23086,-6.75771 L -3.28981,-6.8909
 L -3.32884,-7.04726 L -3.35063,-7.22328 L -3.35789,-7.41547 L -3.35063,-7.62698 L -3.32884,-7.80943 L -3.28981,-7.96312
 L -3.23086,-8.08826 L -3.15147,-8.18513 L -3.05108,-8.25403 L -2.92646,-8.29523 L -2.7744,-8.30896 L -2.57417,-8.28043
 L -2.42561,-8.19484 L -2.32603,-8.06082 L -2.27273,-7.88696 L -1.87443,-7.9171 L -1.91264,-8.05865 L -1.97131,-8.19054
 L -2.0507,-8.30922 L -2.1511,-8.41122 L -2.27247,-8.49492 L -2.41485,-8.5587 L -2.57847,-8.59906 L -2.76362,-8.61252
 L -2.88797,-8.60632 L -3.01124,-8.58775 L -3.13101,-8.55547 L -3.24485,-8.50809 L -3.3517,-8.44405 L -3.45047,-8.36169
 L -3.539,-8.25943 L -3.61516,-8.13564 L -3.67733,-7.98976 L -3.7239,-7.82127 L -3.75296,-7.62779 L -3.76265,-7.40683
 L -3.74919,-7.1579 L -3.70883,-6.92778 L -3.63858,-6.72162 L -3.5355,-6.54453 L -3.39796,-6.39949 L -3.22438,-6.28941
 L -3.01231,-6.21999 L -2.75934,-6.19684 z
M 6.4,-5.65625 L 6.4,-10.1188 L 18.85,-10.1188 L 18.85,-5.65625 z
M 13.9829,-9.435 L 13.5953,-9.435 L 13.5953,-6.23988 L 13.9829,-6.23988 z
M 15.7182,-6.21162 L 15.9246,-6.25601 L 16.1017,-6.32869 L 16.2476,-6.42825 L 16.3623,-6.55396 L 16.4457,-6.70493
 L 16.4966,-6.87987 L 16.5135,-7.07742 L 16.5025,-7.20767 L 16.4694,-7.33145 L 16.4142,-7.44557 L 16.3369,-7.54678
 L 16.2368,-7.63371 L 16.113,-7.70502 L 15.9656,-7.75751 L 15.7944,-7.7879 L 15.7944,-7.79651 L 15.9502,-7.83904
 L 16.0818,-7.89771 L 16.1908,-7.97092 L 16.2788,-8.05705 L 16.3461,-8.15555 L 16.3929,-8.26587 L 16.4204,-8.38644
 L 16.4296,-8.51566 L 16.4158,-8.67657 L 16.3746,-8.82782 L 16.3044,-8.96481 L 16.2035,-9.08296 L 16.0705,-9.18039
 L 15.9042,-9.2552 L 15.7034,-9.30286 L 15.4671,-9.31874 L 15.2809,-9.30663 L 15.1054,-9.27028 L 14.9448,-9.20946
 L 14.8029,-9.12386 L 14.6821,-9.01324 L 14.5844,-8.87735 L 14.5139,-8.71587 L 14.4746,-8.52856 L 14.8643,-8.49841
 L 14.9232,-8.71049 L 15.0484,-8.86874 L 15.2311,-8.96725 L 15.4628,-9.00009 L 15.7101,-8.96483 L 15.888,-8.85905
 L 15.9954,-8.69246 L 16.0312,-8.47472 L 16.0153,-8.33156 L 15.9677,-8.21637 L 15.8956,-8.12569 L 15.8062,-8.05597
 L 15.7031,-8.00591 L 15.5898,-7.97415 L 15.4736,-7.9572 L 15.3617,-7.95155 L 15.1506,-7.95155 L 15.1506,-7.61568
 L 15.3702,-7.61568 L 15.4852,-7.61084 L 15.6103,-7.59631 L 15.7357,-7.56752 L 15.8515,-7.51988 L 15.9532,-7.45152
 L 16.0366,-7.36053 L 16.0923,-7.24185 L 16.1109,-7.09035 L 16.0692,-6.84113 L 15.944,-6.66188 L 15.7457,-6.5537
 L 15.4844,-6.51764 L 15.3358,-6.52731 L 15.2088,-6.55637 L 15.1017,-6.60321 L 15.0128,-6.6662 L 14.9415,-6.74425
 L 14.8869,-6.83627 L 14.8479,-6.9407 L 14.8234,-7.05589 L 14.4229,-7.01929 L 14.4531,-6.86455 L 14.5047,-6.71465
 L 14.5828,-6.57524 L 14.692,-6.45198 L 14.8339,-6.3481 L 15.0096,-6.26682 L 15.2247,-6.21432 L 15.4844,-6.19684
 z
M 10.1371,-6.21217 L 10.3088,-6.25818 L 10.456,-6.3295 L 10.579,-6.42073 L 10.6783,-6.53 L 10.7545,-6.6554
 L 10.8078,-6.7916 L 10.8385,-6.93318 L 10.4466,-6.959 L 10.3877,-6.75662 L 10.2755,-6.6145 L 10.1196,-6.53055
 L 9.92989,-6.50255 L 9.7773,-6.51924 L 9.65107,-6.56929 L 9.54908,-6.64978 L 9.46913,-6.75771 L 9.41019,-6.8909
 L 9.37116,-7.04726 L 9.34937,-7.22328 L 9.34211,-7.41547 L 9.34937,-7.62698 L 9.37116,-7.80943 L 9.41019,-7.96312
 L 9.46913,-8.08826 L 9.54853,-8.18513 L 9.64891,-8.25403 L 9.77353,-8.29523 L 9.9256,-8.30896 L 10.1258,-8.28043
 L 10.2744,-8.19484 L 10.374,-8.06082 L 10.4273,-7.88696 L 10.8256,-7.9171 L 10.7874,-8.05865 L 10.7287,-8.19054
 L 10.6493,-8.30922 L 10.5489,-8.41122 L 10.4275,-8.49492 L 10.2851,-8.5587 L 10.1215,-8.59906 L 9.93637,-8.61252
 L 9.81203,-8.60632 L 9.68875,-8.58775 L 9.56899,-8.55547 L 9.45514,-8.50809 L 9.3483,-8.44405 L 9.24953,-8.36169
 L 9.161,-8.25943 L 9.08484,-8.13564 L 9.02266,-7.98976 L 8.97609,-7.82127 L 8.94704,-7.62779 L 8.93735,-7.40683
 L 8.95081,-7.1579 L 8.99117,-6.92778 L 9.06142,-6.72162 L 9.16449,-6.54453 L 9.30204,-6.39949 L 9.47562,-6.28941
 L 9.68769,-6.21999 L 9.94066,-6.19684 z
M 12.5713,-6.27165 L 12.9012,-6.49611 L 13.1031,-6.87343 L 13.1704,-7.40683 L 13.1553,-7.68942 L 13.1101,-7.93431
 L 13.0334,-8.14156 L 12.9238,-8.31111 L 12.7801,-8.44299 L 12.6009,-8.53717 L 12.3853,-8.59369 L 12.1326,-8.61252
 L 11.3495,-8.3111 L 11.0884,-7.40683 L 11.1059,-7.11913 L 11.1584,-6.87181 L 11.244,-6.66377 L 11.3608,-6.49396
 L 11.508,-6.36261 L 11.6848,-6.27002 L 11.8893,-6.21513 L 12.1197,-6.19684 z
M 11.987,-6.49396 L 11.8689,-6.52625 L 11.7634,-6.5849 L 11.6729,-6.6748 L 11.5989,-6.79832 L 11.5427,-6.95792
 L 11.5071,-7.15897 L 11.4953,-7.40683 L 11.5063,-7.64958 L 11.5394,-7.84821 L 11.5936,-8.00726 L 11.6675,-8.13132
 L 11.7604,-8.22229 L 11.871,-8.28203 L 11.9978,-8.31512 L 12.1391,-8.32617 L 12.278,-8.31567 L 12.4017,-8.28419
 L 12.5091,-8.22633 L 12.5987,-8.13672 L 12.6698,-8.01344 L 12.7214,-7.85464 L 12.7529,-7.65443 L 12.7634,-7.40683
 L 12.7522,-7.15869 L 12.7182,-6.95683 L 12.6633,-6.79645 L 12.5891,-6.67264 L 12.496,-6.58304 L 12.3845,-6.52516
 L 12.257,-6.49368 L 12.1154,-6.48318 z
M -18.85,0.743744 L -18.85,-5.45625 L -6.40001,-5.45625 L -6.40001,0.743744 z
M -15.009,-1.14105 L -14.8101,-1.2137 L -14.65,-1.34235 L -14.5248,-1.5345 L -14.5162,-1.5345 L -14.5157,-1.47826
 L -14.5141,-1.42148 L -14.5116,-1.36575 L -14.5087,-1.31273 L -14.5055,-1.26402 L -14.5022,-1.22122 L -14.4987,-1.18599
 L -14.4947,-1.15988 L -14.1244,-1.15988 L -14.1265,-1.18599 L -14.1287,-1.22554 L -14.1308,-1.27641 L -14.133,-1.33641
 L -14.1349,-1.40425 L -14.1362,-1.47853 L -14.137,-1.55766 L -14.1373,-1.64001 L -14.1373,-4.355 L -14.5248,-4.355
 L -14.5248,-3.38828 L -14.5246,-3.34172 L -14.5238,-3.29245 L -14.5227,-3.24295 L -14.5216,-3.19559 L -14.5208,-3.15549
 L -14.5205,-3.12776 L -14.5248,-3.12776 L -14.6497,-3.31021 L -14.8091,-3.43561 L -15.0077,-3.50829 L -15.2504,-3.53252
 L -15.8931,-3.22786 L -16.1073,-2.31393 L -16.0554,-1.78751 L -15.8995,-1.41396 L -15.6334,-1.19112 L -15.2504,-1.11684
 z
M -15.2886,-1.42902 L -15.4033,-1.46776 L -15.4975,-1.53426 L -15.5734,-1.63033 L -15.631,-1.75655 L -15.6703,-1.91344
 L -15.6929,-2.10291 L -15.7004,-2.32683 L -15.6921,-2.55801 L -15.667,-2.75204 L -15.6248,-2.9111 L -15.5647,-3.03731
 L -15.4872,-3.13205 L -15.3925,-3.19664 L -15.2795,-3.23378 L -15.1471,-3.24617 L -15.0052,-3.23459 L -14.8812,-3.19987
 L -14.7749,-3.13878 L -14.6863,-3.04808 L -14.6163,-2.92618 L -14.5658,-2.77144 L -14.5351,-2.58118 L -14.5248,-2.35268
 L -14.5351,-2.11423 L -14.5658,-1.9156 L -14.6161,-1.75386 L -14.6852,-1.62601 L -14.7735,-1.53047 L -14.8812,-1.46561
 L -15.0074,-1.42848 L -15.1513,-1.41611 z
M -12.4636,-1.13675 L -12.2633,-1.19649 L -12.0822,-1.30226 L -11.9264,-1.46024 L -11.7983,-1.67285 L -11.7003,-1.94252
 L -11.6382,-2.27544 L -11.6174,-2.6778 L -11.6379,-3.09682 L -11.6993,-3.43672 L -11.7961,-3.70667 L -11.9232,-3.91577
 L -12.0774,-4.06783 L -12.2558,-4.1666 L -12.4531,-4.2207 L -12.6638,-4.23874 L -12.8834,-4.2207 L -13.0858,-4.1666
 L -13.2667,-4.06783 L -13.4217,-3.91577 L -13.5484,-3.70667 L -13.6445,-3.43672 L -13.7051,-3.09682 L -13.7252,-2.6778
 L -13.7051,-2.27382 L -13.6445,-1.94037 L -13.5487,-1.67096 L -13.4228,-1.45917 L -13.2691,-1.30199 L -13.0901,-1.19649
 L -12.8909,-1.13675 L -12.6767,-1.11684 z
M -12.821,-1.44919 L -12.9523,-1.49681 L -13.0656,-1.5808 L -13.1601,-1.70567 L -13.2349,-1.87442 L -13.2893,-2.09
 L -13.3224,-2.35645 L -13.3334,-2.6778 L -13.3226,-3.00746 L -13.2903,-3.2774 L -13.2368,-3.49324 L -13.1622,-3.66063
 L -13.0672,-3.78308 L -12.9523,-3.86407 L -12.8177,-3.9093 L -12.6638,-3.92438 L -12.5171,-3.90958 L -12.3872,-3.86516
 L -12.2749,-3.78497 L -12.1815,-3.66278 L -12.1078,-3.49539 L -12.0545,-3.27953 L -12.0222,-3.00906 L -12.0114,-2.6778
 L -12.023,-2.35645 L -12.0577,-2.09 L -12.1137,-1.87442 L -12.1891,-1.70567 L -12.2835,-1.5808 L -12.3968,-1.49681
 L -12.5271,-1.44919 L -12.6724,-1.43332 z
M -10.0686,-1.13675 L -9.86834,-1.19649 L -9.68724,-1.30226 L -9.53141,-1.46024 L -9.4033,-1.67285 L -9.30536,-1.94252
 L -9.24319,-2.27544 L -9.22245,-2.6778 L -9.24292,-3.09682 L -9.30429,-3.43672 L -9.40115,-3.70667 L -9.52818,-3.91577
 L -9.6824,-4.06783 L -9.86082,-4.1666 L -10.0581,-4.2207 L -10.2688,-4.23874 L -10.4884,-4.2207 L -10.6908,-4.1666
 L -10.8717,-4.06783 L -11.0267,-3.91577 L -11.1535,-3.70667 L -11.2495,-3.43672 L -11.3101,-3.09682 L -11.3303,-2.6778
 L -11.3101,-2.27382 L -11.2495,-1.94037 L -11.1537,-1.67096 L -11.0278,-1.45917 L -10.8741,-1.30199 L -10.6952,-1.19649
 L -10.496,-1.13675 L -10.2817,-1.11684 z
M -10.426,-1.44919 L -10.5574,-1.49681 L -10.6707,-1.5808 L -10.7651,-1.70567 L -10.8399,-1.87442 L -10.8943,-2.09
 L -10.9274,-2.35645 L -10.9384,-2.6778 L -10.9277,-3.00746 L -10.8954,-3.2774 L -10.8418,-3.49324 L -10.7673,-3.66063
 L -10.6722,-3.78308 L -10.5573,-3.86407 L -10.4228,-3.9093 L -10.2688,-3.92438 L -10.1222,-3.90958 L -9.99217,-3.86516
 L -9.87994,-3.78497 L -9.78656,-3.66278 L -9.71281,-3.49539 L -9.65953,-3.27953 L -9.62722,-3.00906 L -9.61645,-2.6778
 L -9.62802,-2.35645 L -9.66273,-2.09 L -9.71872,-1.87442 L -9.79409,-1.70567 L -9.88855,-1.5808 L -10.0019,-1.49681
 L -10.1321,-1.44919 L -10.2774,-1.43332 z
M -6.3,0.743744 L -6.3,-5.45625 L 6.29999,-5.45625 L 6.29999,0.743744 z
M -2.30902,-1.14105 L -2.11013,-1.2137 L -1.94999,-1.34235 L -1.82483,-1.5345 L -1.81624,-1.5345 L -1.81569,-1.47826
 L -1.81407,-1.42148 L -1.81164,-1.36575 L -1.8087,-1.31273 L -1.80546,-1.26402 L -1.80223,-1.22122 L -1.79873,-1.18599
 L -1.79471,-1.15988 L -1.42437,-1.15988 L -1.42653,-1.18599 L -1.42869,-1.22554 L -1.43083,-1.27641 L -1.43298,-1.33641
 L -1.43486,-1.40425 L -1.43622,-1.47853 L -1.43702,-1.55766 L -1.4373,-1.64001 L -1.4373,-4.355 L -1.82483,-4.355
 L -1.82483,-3.38828 L -1.82457,-3.34172 L -1.82376,-3.29245 L -1.82267,-3.24295 L -1.82159,-3.19559 L -1.82078,-3.15549
 L -1.82052,-3.12776 L -1.82483,-3.12776 L -1.94972,-3.31021 L -2.10907,-3.43561 L -2.30766,-3.50829 L -2.55041,-3.53252
 L -3.1931,-3.22786 L -3.40732,-2.31393 L -3.35537,-1.78751 L -3.19955,-1.41396 L -2.93338,-1.19112 L -2.55041,-1.11684
 z
M -2.5886,-1.42902 L -2.70326,-1.46776 L -2.79747,-1.53426 L -2.87338,-1.63033 L -2.93097,-1.75655 L -2.97027,-1.91344
 L -2.99287,-2.10291 L -3.00041,-2.32683 L -2.99206,-2.55801 L -2.96704,-2.75204 L -2.92477,-2.9111 L -2.86474,-3.03731
 L -2.78723,-3.13205 L -2.6925,-3.19664 L -2.57946,-3.23378 L -2.44706,-3.24617 L -2.30523,-3.23459 L -2.18116,-3.19987
 L -2.07486,-3.13878 L -1.98631,-3.04808 L -1.91635,-2.92618 L -1.86577,-2.77144 L -1.83506,-2.58118 L -1.82483,-2.35268
 L -1.83506,-2.11423 L -1.86577,-1.9156 L -1.91607,-1.75386 L -1.98524,-1.62601 L -2.07351,-1.53047 L -2.18116,-1.46561
 L -2.30739,-1.42848 L -2.45135,-1.41611 z
M 0.236423,-1.13675 L 0.436664,-1.19649 L 0.61777,-1.30226 L 0.773593,-1.46024 L 0.901706,-1.67285 L 0.999652,-1.94252
 L 1.06183,-2.27544 L 1.08255,-2.6778 L 1.06209,-3.09682 L 1.00074,-3.43672 L 0.903857,-3.70667 L 0.776828,-3.91577
 L 0.622607,-4.06783 L 0.444186,-4.1666 L 0.246921,-4.2207 L 0.0361969,-4.23874 L -0.183423,-4.2207 L -0.385815,-4.1666
 L -0.566663,-4.06783 L -0.721692,-3.91577 L -0.848431,-3.70667 L -0.944516,-3.43672 L -1.00506,-3.09682 L -1.02525,-2.6778
 L -1.00506,-2.27382 L -0.944516,-1.94037 L -0.848706,-1.67096 L -0.722775,-1.45917 L -0.569089,-1.30199 L -0.390134,-1.19649
 L -0.190945,-1.13675 L 0.0232727,-1.11684 z
M -0.120984,-1.44919 L -0.252332,-1.49681 L -0.365628,-1.5808 L -0.46011,-1.70567 L -0.534909,-1.87442 L -0.589261,-2.09
 L -0.622357,-2.35645 L -0.633389,-2.6778 L -0.622632,-3.00746 L -0.590344,-3.2774 L -0.536786,-3.49324 L -0.462231,-3.66063
 L -0.367215,-3.78308 L -0.252301,-3.86407 L -0.117734,-3.9093 L 0.0361969,-3.92438 L 0.182864,-3.90958 L 0.312839,-3.86516
 L 0.425067,-3.78497 L 0.518451,-3.66278 L 0.592197,-3.49539 L 0.64548,-3.27953 L 0.677798,-3.00906 L 0.688571,-2.6778
 L 0.67699,-2.35645 L 0.642276,-2.09 L 0.586292,-1.87442 L 0.510928,-1.70567 L 0.416461,-1.5808 L 0.303149,-1.49681
 L 0.1729,-1.44919 L 0.0275604,-1.43332 z
M 3.43448,-1.48929 L 2.696,-1.48929 L 2.696,-4.19351 L 2.3386,-4.19351 L 1.62162,-3.70047 L 1.62162,-3.33446
 L 2.30628,-3.82318 L 2.30628,-1.48929 L 1.53336,-1.48929 L 1.53336,-1.15988 L 3.43448,-1.15988 z
M 6.4,0.743744 L 6.4,-5.45625 L 18.85,-5.45625 L 18.85,0.743744 z
M 10.391,-1.14105 L 10.5899,-1.2137 L 10.75,-1.34235 L 10.8752,-1.5345 L 10.8838,-1.5345 L 10.8843,-1.47826
 L 10.8859,-1.42148 L 10.8884,-1.36575 L 10.8913,-1.31273 L 10.8945,-1.26402 L 10.8978,-1.22122 L 10.9013,-1.18599
 L 10.9053,-1.15988 L 11.2756,-1.15988 L 11.2735,-1.18599 L 11.2713,-1.22554 L 11.2692,-1.27641 L 11.267,-1.33641
 L 11.2651,-1.40425 L 11.2638,-1.47853 L 11.263,-1.55766 L 11.2627,-1.64001 L 11.2627,-4.355 L 10.8752,-4.355
 L 10.8752,-3.38828 L 10.8754,-3.34172 L 10.8762,-3.29245 L 10.8773,-3.24295 L 10.8784,-3.19559 L 10.8792,-3.15549
 L 10.8795,-3.12776 L 10.8752,-3.12776 L 10.7503,-3.31021 L 10.5909,-3.43561 L 10.3923,-3.50829 L 10.1496,-3.53252
 L 9.5069,-3.22786 L 9.29268,-2.31393 L 9.34462,-1.78751 L 9.50045,-1.41396 L 9.76662,-1.19112 L 10.1496,-1.11684
 z
M 10.1114,-1.42902 L 9.99674,-1.46776 L 9.90253,-1.53426 L 9.82662,-1.63033 L 9.76903,-1.75655 L 9.72972,-1.91344
 L 9.70713,-2.10291 L 9.69959,-2.32683 L 9.70793,-2.55801 L 9.73296,-2.75204 L 9.77523,-2.9111 L 9.83525,-3.03731
 L 9.91277,-3.13205 L 10.0075,-3.19664 L 10.1205,-3.23378 L 10.2529,-3.24617 L 10.3948,-3.23459 L 10.5188,-3.19987
 L 10.6251,-3.13878 L 10.7137,-3.04808 L 10.7836,-2.92618 L 10.8342,-2.77144 L 10.8649,-2.58118 L 10.8752,-2.35268
 L 10.8649,-2.11423 L 10.8342,-1.9156 L 10.7839,-1.75386 L 10.7148,-1.62601 L 10.6265,-1.53047 L 10.5188,-1.46561
 L 10.3926,-1.42848 L 10.2486,-1.41611 z
M 12.9364,-1.13675 L 13.1367,-1.19649 L 13.3178,-1.30226 L 13.4736,-1.46024 L 13.6017,-1.67285 L 13.6997,-1.94252
 L 13.7618,-2.27544 L 13.7826,-2.6778 L 13.7621,-3.09682 L 13.7007,-3.43672 L 13.6039,-3.70667 L 13.4768,-3.91577
 L 13.3226,-4.06783 L 13.1442,-4.1666 L 12.9469,-4.2207 L 12.7362,-4.23874 L 12.5166,-4.2207 L 12.3142,-4.1666
 L 12.1333,-4.06783 L 11.9783,-3.91577 L 11.8516,-3.70667 L 11.7555,-3.43672 L 11.6949,-3.09682 L 11.6747,-2.6778
 L 11.6949,-2.27382 L 11.7555,-1.94037 L 11.8513,-1.67096 L 11.9772,-1.45917 L 12.1309,-1.30199 L 12.3099,-1.19649
 L 12.5091,-1.13675 L 12.7233,-1.11684 z
M 12.579,-1.44919 L 12.4477,-1.49681 L 12.3344,-1.5808 L 12.2399,-1.70567 L 12.1651,-1.87442 L 12.1107,-2.09
 L 12.0776,-2.35645 L 12.0666,-2.6778 L 12.0774,-3.00746 L 12.1097,-3.2774 L 12.1632,-3.49324 L 12.2378,-3.66063
 L 12.3328,-3.78308 L 12.4477,-3.86407 L 12.5823,-3.9093 L 12.7362,-3.92438 L 12.8829,-3.90958 L 13.0129,-3.86516
 L 13.1251,-3.78497 L 13.2185,-3.66278 L 13.2922,-3.49539 L 13.3455,-3.27953 L 13.3778,-3.00906 L 13.3886,-2.6778
 L 13.377,-2.35645 L 13.3423,-2.09 L 13.2863,-1.87442 L 13.2109,-1.70567 L 13.1165,-1.5808 L 13.0032,-1.49681
 L 12.8729,-1.44919 L 12.7276,-1.43332 z
M 16.1281,-1.48929 L 14.5456,-1.48929 L 14.6075,-1.6096 L 14.6898,-1.72507 L 14.7886,-1.8373 L 14.8997,-1.94789
 L 15.0211,-2.05743 L 15.1506,-2.16643 L 15.2835,-2.2757 L 15.4154,-2.38603 L 15.544,-2.49828 L 15.6673,-2.61317
 L 15.7806,-2.73158 L 15.8794,-2.85431 L 15.9617,-2.98244 L 16.0257,-3.117 L 16.0669,-3.25856 L 16.0807,-3.40764
 L 16.0645,-3.59821 L 16.0161,-3.76506 L 15.9372,-3.9077 L 15.8298,-4.02556 L 15.6945,-4.11815 L 15.5316,-4.18489
 L 15.3427,-4.22527 L 15.129,-4.23874 L 14.9124,-4.22311 L 14.7232,-4.17628 L 14.5604,-4.10228 L 14.4228,-4.00511
 L 14.3114,-3.88751 L 14.2269,-3.75214 L 14.1688,-3.60304 L 14.1365,-3.44424 L 14.5326,-3.40764 L 14.5566,-3.52687
 L 14.5983,-3.63049 L 14.6562,-3.71851 L 14.7286,-3.79089 L 14.8139,-3.84741 L 14.9105,-3.88777 L 15.0163,-3.912
 L 15.129,-3.92009 L 15.2483,-3.91174 L 15.3562,-3.88669 L 15.4512,-3.84497 L 15.5316,-3.78658 L 15.5962,-3.71204
 L 15.6436,-3.62186 L 15.6727,-3.5161 L 15.6824,-3.39471 L 15.6611,-3.21927 L 15.5973,-3.06316 L 15.4991,-2.91998
 L 15.3745,-2.78325 L 15.2283,-2.64978 L 15.0655,-2.51631 L 14.8935,-2.37717 L 14.7199,-2.22672 L 14.5496,-2.06148
 L 14.3873,-1.87791 L 14.2412,-1.67043 L 14.1193,-1.43332 L 14.1193,-1.15988 L 16.1281,-1.15988 z
M -18.85,7.09373 L -18.85,0.84375 L -6.40001,0.84375 L -6.40001,7.09373 z
M -15.009,5.20895 L -14.8101,5.13631 L -14.65,5.00766 L -14.5248,4.81551 L -14.5162,4.81551 L -14.5157,4.87175
 L -14.5141,4.92853 L -14.5116,4.98425 L -14.5087,5.03728 L -14.5055,5.08598 L -14.5022,5.12878 L -14.4987,5.16402
 L -14.4947,5.19012 L -14.1244,5.19012 L -14.1265,5.16402 L -14.1287,5.12447 L -14.1308,5.07359 L -14.133,5.0136
 L -14.1349,4.94576 L -14.1362,4.87148 L -14.137,4.79234 L -14.1373,4.70999 L -14.1373,1.99501 L -14.5248,1.99501
 L -14.5248,2.96173 L -14.5246,3.00829 L -14.5238,3.05756 L -14.5227,3.10706 L -14.5216,3.15442 L -14.5208,3.19452
 L -14.5205,3.22224 L -14.5248,3.22224 L -14.6497,3.03979 L -14.8091,2.9144 L -15.0077,2.84172 L -15.2504,2.81749
 L -15.8931,3.12215 L -16.1073,4.03607 L -16.0554,4.5625 L -15.8995,4.93605 L -15.6334,5.15889 L -15.2504,5.23317
 z
M -15.2886,4.92099 L -15.4033,4.88225 L -15.4975,4.81575 L -15.5734,4.71968 L -15.631,4.59346 L -15.6703,4.43657
 L -15.6929,4.2471 L -15.7004,4.02318 L -15.6921,3.79199 L -15.667,3.59796 L -15.6248,3.4389 L -15.5647,3.3127
 L -15.4872,3.21796 L -15.3925,3.15337 L -15.2795,3.11623 L -15.1471,3.10384 L -15.0052,3.11542 L -14.8812,3.15013
 L -14.7749,3.21123 L -14.6863,3.30193 L -14.6163,3.42383 L -14.5658,3.57857 L -14.5351,3.76883 L -14.5248,3.99733
 L -14.5351,4.23578 L -14.5658,4.4344 L -14.6161,4.59615 L -14.6852,4.724 L -14.7735,4.81953 L -14.8812,4.8844
 L -15.0074,4.92152 L -15.1513,4.9339 z
M -10.0686,5.21326 L -9.86834,5.15352 L -9.68724,5.04774 L -9.53141,4.88977 L -9.4033,4.67715 L -9.30536,4.40749
 L -9.24319,4.07457 L -9.22245,3.67221 L -9.24292,3.25319 L -9.30429,2.91328 L -9.40115,2.64334 L -9.52818,2.43423
 L -9.6824,2.28218 L -9.86082,2.18341 L -10.0581,2.1293 L -10.2688,2.11127 L -10.4884,2.1293 L -10.6908,2.18341
 L -10.8717,2.28218 L -11.0267,2.43423 L -11.1535,2.64334 L -11.2495,2.91328 L -11.3101,3.25319 L -11.3303,3.67221
 L -11.3101,4.07619 L -11.2495,4.40964 L -11.1537,4.67905 L -11.0278,4.89084 L -10.8741,5.04802 L -10.6952,5.15352
 L -10.496,5.21326 L -10.2817,5.23317 z
M -10.426,4.90082 L -10.5574,4.8532 L -10.6707,4.76921 L -10.7651,4.64433 L -10.8399,4.47559 L -10.8943,4.26001
 L -10.9274,3.99356 L -10.9384,3.67221 L -10.9277,3.34254 L -10.8954,3.0726 L -10.8418,2.85677 L -10.7673,2.68938
 L -10.6722,2.56693 L -10.5573,2.48593 L -10.4228,2.4407 L -10.2688,2.42563 L -10.1222,2.44043 L -9.99217,2.48485
 L -9.87994,2.56503 L -9.78656,2.68723 L -9.71281,2.85461 L -9.65953,3.07048 L -9.62722,3.34094 L -9.61645,3.67221
 L -9.62802,3.99356 L -9.66273,4.26001 L -9.71872,4.47559 L -9.79409,4.64433 L -9.88855,4.76921 L -10.0019,4.8532
 L -10.1321,4.90082 L -10.2774,4.91669 z
M -11.6605,4.86072 L -12.399,4.86072 L -12.399,2.15649 L -12.7564,2.15649 L -13.4733,2.64954 L -13.4733,3.01555
 L -12.7887,2.52682 L -12.7887,4.86072 L -13.5616,4.86072 L -13.5616,5.19012 L -11.6605,5.19012 z
M -6.3,7.09373 L -6.3,0.84375 L 6.29999,0.84375 L 6.29999,7.09373 z
M -2.30902,5.20895 L -2.11013,5.13631 L -1.94999,5.00766 L -1.82483,4.81551 L -1.81624,4.81551 L -1.81569,4.87175
 L -1.81407,4.92853 L -1.81164,4.98425 L -1.8087,5.03728 L -1.80546,5.08598 L -1.80223,5.12878 L -1.79873,5.16402
 L -1.79471,5.19012 L -1.42437,5.19012 L -1.42653,5.16402 L -1.42869,5.12447 L -1.43083,5.07359 L -1.43298,5.0136
 L -1.43486,4.94576 L -1.43622,4.87148 L -1.43702,4.79234 L -1.4373,4.70999 L -1.4373,1.99501 L -1.82483,1.99501
 L -1.82483,2.96173 L -1.82457,3.00829 L -1.82376,3.05756 L -1.82267,3.10706 L -1.82159,3.15442 L -1.82078,3.19452
 L -1.82052,3.22224 L -1.82483,3.22224 L -1.94972,3.03979 L -2.10907,2.9144 L -2.30766,2.84172 L -2.55041,2.81749
 L -3.1931,3.12215 L -3.40732,4.03607 L -3.35537,4.5625 L -3.19955,4.93605 L -2.93338,5.15889 L -2.55041,5.23317
 z
M -2.5886,4.92099 L -2.70326,4.88225 L -2.79747,4.81575 L -2.87338,4.71968 L -2.93097,4.59346 L -2.97027,4.43657
 L -2.99287,4.2471 L -3.00041,4.02318 L -2.99206,3.79199 L -2.96704,3.59796 L -2.92477,3.4389 L -2.86474,3.3127
 L -2.78723,3.21796 L -2.6925,3.15337 L -2.57946,3.11623 L -2.44706,3.10384 L -2.30523,3.11542 L -2.18116,3.15013
 L -2.07486,3.21123 L -1.98631,3.30193 L -1.91635,3.42383 L -1.86577,3.57857 L -1.83506,3.76883 L -1.82483,3.99733
 L -1.83506,4.23578 L -1.86577,4.4344 L -1.91607,4.59615 L -1.98524,4.724 L -2.07351,4.81953 L -2.18116,4.8844
 L -2.30739,4.92152 L -2.45135,4.9339 z
M 3.43448,4.86072 L 2.696,4.86072 L 2.696,2.15649 L 2.3386,2.15649 L 1.62162,2.64954 L 1.62162,3.01555
 L 2.30628,2.52682 L 2.30628,4.86072 L 1.53336,4.86072 L 1.53336,5.19012 L 3.43448,5.19012 z
M 1.03949,4.86072 L 0.301028,4.86072 L 0.301028,2.15649 L -0.0563782,2.15649 L -0.773343,2.64954 L -0.773343,3.01555
 L -0.0886963,2.52682 L -0.0886963,4.86072 L -0.861615,4.86072 L -0.861615,5.19012 L 1.03949,5.19012 z
M 6.4,7.09373 L 6.4,0.84375 L 18.85,0.84375 L 18.85,7.09373 z
M 10.391,5.20895 L 10.5899,5.13631 L 10.75,5.00766 L 10.8752,4.81551 L 10.8838,4.81551 L 10.8843,4.87175
 L 10.8859,4.92853 L 10.8884,4.98425 L 10.8913,5.03728 L 10.8945,5.08598 L 10.8978,5.12878 L 10.9013,5.16402
 L 10.9053,5.19012 L 11.2756,5.19012 L 11.2735,5.16402 L 11.2713,5.12447 L 11.2692,5.07359 L 11.267,5.0136
 L 11.2651,4.94576 L 11.2638,4.87148 L 11.263,4.79234 L 11.2627,4.70999 L 11.2627,1.99501 L 10.8752,1.99501
 L 10.8752,2.96173 L 10.8754,3.00829 L 10.8762,3.05756 L 10.8773,3.10706 L 10.8784,3.15442 L 10.8792,3.19452
 L 10.8795,3.22224 L 10.8752,3.22224 L 10.7503,3.03979 L 10.5909,2.9144 L 10.3923,2.84172 L 10.1496,2.81749
 L 9.5069,3.12215 L 9.29268,4.03607 L 9.34462,4.5625 L 9.50045,4.93605 L 9.76662,5.15889 L 10.1496,5.23317
 z
M 10.1114,4.92099 L 9.99674,4.88225 L 9.90253,4.81575 L 9.82662,4.71968 L 9.76903,4.59346 L 9.72972,4.43657
 L 9.70713,4.2471 L 9.69959,4.02318 L 9.70793,3.79199 L 9.73296,3.59796 L 9.77523,3.4389 L 9.83525,3.3127
 L 9.91277,3.21796 L 10.0075,3.15337 L 10.1205,3.11623 L 10.2529,3.10384 L 10.3948,3.11542 L 10.5188,3.15013
 L 10.6251,3.21123 L 10.7137,3.30193 L 10.7836,3.42383 L 10.8342,3.57857 L 10.8649,3.76883 L 10.8752,3.99733
 L 10.8649,4.23578 L 10.8342,4.4344 L 10.7839,4.59615 L 10.7148,4.724 L 10.6265,4.81953 L 10.5188,4.8844
 L 10.3926,4.92152 L 10.2486,4.9339 z
M 16.1281,4.86072 L 14.5456,4.86072 L 14.6075,4.7404 L 14.6898,4.62494 L 14.7886,4.51271 L 14.8997,4.40211
 L 15.0211,4.29257 L 15.1506,4.18358 L 15.2835,4.07431 L 15.4154,3.96397 L 15.544,3.85173 L 15.6673,3.73683
 L 15.7806,3.61842 L 15.8794,3.4957 L 15.9617,3.36757 L 16.0257,3.233 L 16.0669,3.09145 L 16.0807,2.94237
 L 16.0645,2.7518 L 16.0161,2.58495 L 15.9372,2.44231 L 15.8298,2.32445 L 15.6945,2.23186 L 15.5316,2.16512
 L 15.3427,2.12474 L 15.129,2.11127 L 14.9124,2.12689 L 14.7232,2.17372 L 14.5604,2.24773 L 14.4228,2.34489
 L 14.3114,2.46249 L 14.2269,2.59787 L 14.1688,2.74696 L 14.1365,2.90576 L 14.5326,2.94237 L 14.5566,2.82314
 L 14.5983,2.71951 L 14.6562,2.6315 L 14.7286,2.55911 L 14.8139,2.50259 L 14.9105,2.46223 L 15.0163,2.438
 L 15.129,2.42992 L 15.2483,2.43826 L 15.3562,2.46332 L 15.4512,2.50504 L 15.5316,2.56343 L 15.5962,2.63797
 L 15.6436,2.72815 L 15.6727,2.83391 L 15.6824,2.95529 L 15.6611,3.13074 L 15.5973,3.28685 L 15.4991,3.43002
 L 15.3745,3.56676 L 15.2283,3.70023 L 15.0655,3.83369 L 14.8935,3.97284 L 14.7199,4.12329 L 14.5496,4.28853
 L 14.3873,4.47209 L 14.2412,4.67958 L 14.1193,4.91669 L 14.1193,5.19012 L 16.1281,5.19012 z
M 13.7395,4.86072 L 13.001,4.86072 L 13.001,2.15649 L 12.6436,2.15649 L 11.9267,2.64954 L 11.9267,3.01555
 L 12.6113,2.52682 L 12.6113,4.86072 L 11.8384,4.86072 L 11.8384,5.19012 L 13.7395,5.19012 z
M -18.85,13.4437 L -18.85,7.19374 L -6.40001,7.19374 L -6.40001,13.4437 z
M -15.009,11.5589 L -14.8101,11.4863 L -14.65,11.3577 L -14.5248,11.1655 L -14.5162,11.1655 L -14.5157,11.2217
 L -14.5141,11.2785 L -14.5116,11.3342 L -14.5087,11.3873 L -14.5055,11.436 L -14.5022,11.4788 L -14.4987,11.514
 L -14.4947,11.5401 L -14.1244,11.5401 L -14.1265,11.514 L -14.1287,11.4745 L -14.1308,11.4236 L -14.133,11.3636
 L -14.1349,11.2957 L -14.1362,11.2215 L -14.137,11.1423 L -14.1373,11.06 L -14.1373,8.345 L -14.5248,8.345
 L -14.5248,9.31172 L -14.5246,9.35828 L -14.5238,9.40755 L -14.5227,9.45705 L -14.5216,9.50441 L -14.5208,9.54451
 L -14.5205,9.57224 L -14.5248,9.57224 L -14.6497,9.38979 L -14.8091,9.26439 L -15.0077,9.19171 L -15.2504,9.16748
 L -15.8931,9.47214 L -16.1073,10.3861 L -16.0554,10.9125 L -15.8995,11.286 L -15.6334,11.5089 L -15.2504,11.5832
 z
M -15.2886,11.271 L -15.4033,11.2322 L -15.4975,11.1657 L -15.5734,11.0697 L -15.631,10.9435 L -15.6703,10.7866
 L -15.6929,10.5971 L -15.7004,10.3732 L -15.6921,10.142 L -15.667,9.94795 L -15.6248,9.78889 L -15.5647,9.66269
 L -15.4872,9.56795 L -15.3925,9.50336 L -15.2795,9.46622 L -15.1471,9.45383 L -15.0052,9.46541 L -14.8812,9.50012
 L -14.7749,9.56122 L -14.6863,9.65192 L -14.6163,9.77382 L -14.5658,9.92856 L -14.5351,10.1188 L -14.5248,10.3473
 L -14.5351,10.5858 L -14.5658,10.7844 L -14.6161,10.9461 L -14.6852,11.074 L -14.7735,11.1695 L -14.8812,11.2344
 L -15.0074,11.2715 L -15.1513,11.2839 z
M -10.0686,11.5632 L -9.86834,11.5035 L -9.68724,11.3977 L -9.53141,11.2398 L -9.4033,11.0271 L -9.30536,10.7575
 L -9.24319,10.4246 L -9.22245,10.0222 L -9.24292,9.60318 L -9.30429,9.26328 L -9.40115,8.99333 L -9.52818,8.78423
 L -9.6824,8.63217 L -9.86082,8.5334 L -10.0581,8.47929 L -10.2688,8.46126 L -10.4884,8.47929 L -10.6908,8.5334
 L -10.8717,8.63217 L -11.0267,8.78423 L -11.1535,8.99333 L -11.2495,9.26328 L -11.3101,9.60318 L -11.3303,10.0222
 L -11.3101,10.4262 L -11.2495,10.7596 L -11.1537,11.029 L -11.0278,11.2408 L -10.8741,11.398 L -10.6952,11.5035
 L -10.496,11.5632 L -10.2817,11.5832 z
M -10.426,11.2508 L -10.5574,11.2032 L -10.6707,11.1192 L -10.7651,10.9943 L -10.8399,10.8256 L -10.8943,10.61
 L -10.9274,10.3436 L -10.9384,10.0222 L -10.9277,9.69254 L -10.8954,9.42259 L -10.8418,9.20676 L -10.7673,9.03937
 L -10.6722,8.91692 L -10.5573,8.83592 L -10.4228,8.7907 L -10.2688,8.77562 L -10.1222,8.79042 L -9.99217,8.83484
 L -9.87994,8.91502 L -9.78656,9.03722 L -9.71281,9.20461 L -9.65953,9.42047 L -9.62722,9.69093 L -9.61645,10.0222
 L -9.62802,10.3436 L -9.66273,10.61 L -9.71872,10.8256 L -9.79409,10.9943 L -9.88855,11.1192 L -10.0019,11.2032
 L -10.1321,11.2508 L -10.2774,11.2667 z
M -11.6669,11.2107 L -13.2494,11.2107 L -13.1875,11.0904 L -13.1052,10.9749 L -13.0064,10.8627 L -12.8952,10.7521
 L -12.7739,10.6426 L -12.6444,10.5336 L -12.5115,10.4243 L -12.3796,10.314 L -12.251,10.2017 L -12.1277,10.0868
 L -12.0144,9.96841 L -11.9156,9.84569 L -11.8333,9.71756 L -11.7692,9.58299 L -11.7281,9.44144 L -11.7143,9.29236
 L -11.7305,9.10179 L -11.7789,8.93494 L -11.8578,8.7923 L -11.9652,8.67444 L -12.1005,8.58185 L -12.2634,8.51511
 L -12.4523,8.47473 L -12.666,8.46126 L -12.8826,8.47688 L -13.0718,8.52371 L -13.2346,8.59772 L -13.3722,8.69489
 L -13.4836,8.81248 L -13.5681,8.94786 L -13.6262,9.09695 L -13.6585,9.25575 L -13.2623,9.29236 L -13.2384,9.17313
 L -13.1967,9.0695 L -13.1388,8.98149 L -13.0664,8.9091 L -12.9811,8.85258 L -12.8845,8.81223 L -12.7787,8.78799
 L -12.666,8.77991 L -12.5467,8.78825 L -12.4388,8.81331 L -12.3438,8.85503 L -12.2634,8.91342 L -12.1988,8.98796
 L -12.1514,9.07814 L -12.1223,9.1839 L -12.1126,9.30528 L -12.1339,9.48073 L -12.1977,9.63684 L -12.2959,9.78001
 L -12.4205,9.91675 L -12.5667,10.0502 L -12.7295,10.1837 L -12.9015,10.3228 L -13.075,10.4733 L -13.2454,10.6385
 L -13.4077,10.8221 L -13.5538,11.0296 L -13.6757,11.2667 L -13.6757,11.5401 L -11.6669,11.5401 z
M -6.3,13.4437 L -6.3,7.19374 L 6.29999,7.19374 L 6.29999,13.4437 z
M -2.30902,11.5589 L -2.11013,11.4863 L -1.94999,11.3577 L -1.82483,11.1655 L -1.81624,11.1655 L -1.81569,11.2217
 L -1.81407,11.2785 L -1.81164,11.3342 L -1.8087,11.3873 L -1.80546,11.436 L -1.80223,11.4788 L -1.79873,11.514
 L -1.79471,11.5401 L -1.42437,11.5401 L -1.42653,11.514 L -1.42869,11.4745 L -1.43083,11.4236 L -1.43298,11.3636
 L -1.43486,11.2957 L -1.43622,11.2215 L -1.43702,11.1423 L -1.4373,11.06 L -1.4373,8.345 L -1.82483,8.345
 L -1.82483,9.31172 L -1.82457,9.35828 L -1.82376,9.40755 L -1.82267,9.45705 L -1.82159,9.50441 L -1.82078,9.54451
 L -1.82052,9.57224 L -1.82483,9.57224 L -1.94972,9.38979 L -2.10907,9.26439 L -2.30766,9.19171 L -2.55041,9.16748
 L -3.1931,9.47214 L -3.40732,10.3861 L -3.35537,10.9125 L -3.19955,11.286 L -2.93338,11.5089 L -2.55041,11.5832
 z
M -2.5886,11.271 L -2.70326,11.2322 L -2.79747,11.1657 L -2.87338,11.0697 L -2.93097,10.9435 L -2.97027,10.7866
 L -2.99287,10.5971 L -3.00041,10.3732 L -2.99206,10.142 L -2.96704,9.94795 L -2.92477,9.78889 L -2.86474,9.66269
 L -2.78723,9.56795 L -2.6925,9.50336 L -2.57946,9.46622 L -2.44706,9.45383 L -2.30523,9.46541 L -2.18116,9.50012
 L -2.07486,9.56122 L -1.98631,9.65192 L -1.91635,9.77382 L -1.86577,9.92856 L -1.83506,10.1188 L -1.82483,10.3473
 L -1.83506,10.5858 L -1.86577,10.7844 L -1.91607,10.9461 L -1.98524,11.074 L -2.07351,11.1695 L -2.18116,11.2344
 L -2.30739,11.2715 L -2.45135,11.2839 z
M 1.03305,11.2107 L -0.54942,11.2107 L -0.487531,11.0904 L -0.405179,10.9749 L -0.306409,10.8627 L -0.195248,10.7521
 L -0.0738647,10.6426 L 0.0555603,10.5336 L 0.188495,10.4243 L 0.320361,10.314 L 0.449008,10.2017 L 0.572269,10.0868
 L 0.68558,9.96841 L 0.784351,9.84569 L 0.866702,9.71756 L 0.930759,9.58299 L 0.971942,9.44144 L 0.985675,9.29236
 L 0.969531,9.10179 L 0.921069,8.93494 L 0.842212,8.7923 L 0.734821,8.67444 L 0.59946,8.58185 L 0.436633,8.51511
 L 0.247714,8.47473 L 0.0340454,8.46126 L -0.182599,8.47688 L -0.371808,8.52371 L -0.534634,8.59772 L -0.672162,8.69489
 L -0.783582,8.81248 L -0.868085,8.94786 L -0.926205,9.09695 L -0.958508,9.25575 L -0.562344,9.29236 L -0.538403,9.17313
 L -0.496686,9.0695 L -0.438809,8.98149 L -0.366406,8.9091 L -0.281094,8.85258 L -0.184476,8.81223 L -0.078717,8.78799
 L 0.0340454,8.77991 L 0.153262,8.78825 L 0.261172,8.81331 L 0.356174,8.85503 L 0.436633,8.91342 L 0.501239,8.98796
 L 0.548618,9.07814 L 0.577686,9.1839 L 0.587375,9.30528 L 0.566119,9.48073 L 0.502322,9.63684 L 0.404071,9.78001
 L 0.279468,9.91675 L 0.133334,10.0502 L -0.0294769,10.1837 L -0.201459,10.3228 L -0.375043,10.4733 L -0.545392,10.6385
 L -0.707684,10.8221 L -0.853818,11.0296 L -0.97572,11.2667 L -0.97572,11.5401 L 1.03305,11.5401 z
M 3.43448,11.2107 L 2.696,11.2107 L 2.696,8.50648 L 2.3386,8.50648 L 1.62162,8.99953 L 1.62162,9.36554
 L 2.30628,8.87682 L 2.30628,11.2107 L 1.53336,11.2107 L 1.53336,11.5401 L 3.43448,11.5401 z
M 6.4,13.4437 L 6.4,7.19374 L 18.85,7.19374 L 18.85,13.4437 z
M 10.391,11.5589 L 10.5899,11.4863 L 10.75,11.3577 L 10.8752,11.1655 L 10.8838,11.1655 L 10.8843,11.2217
 L 10.8859,11.2785 L 10.8884,11.3342 L 10.8913,11.3873 L 10.8945,11.436 L 10.8978,11.4788 L 10.9013,11.514
 L 10.9053,11.5401 L 11.2756,11.5401 L 11.2735,11.514 L 11.2713,11.4745 L 11.2692,11.4236 L 11.267,11.3636
 L 11.2651,11.2957 L 11.2638,11.2215 L 11.263,11.1423 L 11.2627,11.06 L 11.2627,8.345 L 10.8752,8.345
 L 10.8752,9.31172 L 10.8754,9.35828 L 10.8762,9.40755 L 10.8773,9.45705 L 10.8784,9.50441 L 10.8792,9.54451
 L 10.8795,9.57224 L 10.8752,9.57224 L 10.7503,9.38979 L 10.5909,9.26439 L 10.3923,9.19171 L 10.1496,9.16748
 L 9.5069,9.47214 L 9.29268,10.3861 L 9.34462,10.9125 L 9.50045,11.286 L 9.76662,11.5089 L 10.1496,11.5832
 z
M 10.1114,11.271 L 9.99674,11.2322 L 9.90253,11.1657 L 9.82662,11.0697 L 9.76903,10.9435 L 9.72972,10.7866
 L 9.70713,10.5971 L 9.69959,10.3732 L 9.70793,10.142 L 9.73296,9.94795 L 9.77523,9.78889 L 9.83525,9.66269
 L 9.91277,9.56795 L 10.0075,9.50336 L 10.1205,9.46622 L 10.2529,9.45383 L 10.3948,9.46541 L 10.5188,9.50012
 L 10.6251,9.56122 L 10.7137,9.65192 L 10.7836,9.77382 L 10.8342,9.92856 L 10.8649,10.1188 L 10.8752,10.3473
 L 10.8649,10.5858 L 10.8342,10.7844 L 10.7839,10.9461 L 10.7148,11.074 L 10.6265,11.1695 L 10.5188,11.2344
 L 10.3926,11.2715 L 10.2486,11.2839 z
M 13.7331,11.2107 L 12.1506,11.2107 L 12.2125,11.0904 L 12.2948,10.9749 L 12.3936,10.8627 L 12.5047,10.7521
 L 12.6261,10.6426 L 12.7556,10.5336 L 12.8885,10.4243 L 13.0204,10.314 L 13.149,10.2017 L 13.2723,10.0868
 L 13.3856,9.96841 L 13.4844,9.84569 L 13.5667,9.71756 L 13.6308,9.58299 L 13.672,9.44144 L 13.6857,9.29236
 L 13.6695,9.10179 L 13.6211,8.93494 L 13.5422,8.7923 L 13.4348,8.67444 L 13.2995,8.58185 L 13.1366,8.51511
 L 12.9477,8.47473 L 12.734,8.46126 L 12.5174,8.47688 L 12.3282,8.52371 L 12.1654,8.59772 L 12.0278,8.69489
 L 11.9164,8.81248 L 11.8319,8.94786 L 11.7738,9.09695 L 11.7415,9.25575 L 12.1377,9.29236 L 12.1616,9.17313
 L 12.2033,9.0695 L 12.2612,8.98149 L 12.3336,8.9091 L 12.4189,8.85258 L 12.5155,8.81223 L 12.6213,8.78799
 L 12.734,8.77991 L 12.8533,8.78825 L 12.9612,8.81331 L 13.0562,8.85503 L 13.1366,8.91342 L 13.2013,8.98796
 L 13.2486,9.07814 L 13.2777,9.1839 L 13.2874,9.30528 L 13.2661,9.48073 L 13.2023,9.63684 L 13.1041,9.78001
 L 12.9795,9.91675 L 12.8333,10.0502 L 12.6705,10.1837 L 12.4985,10.3228 L 12.325,10.4733 L 12.1546,10.6385
 L 11.9923,10.8221 L 11.8462,11.0296 L 11.7243,11.2667 L 11.7243,11.5401 L 13.7331,11.5401 z
M 16.1281,11.2107 L 14.5456,11.2107 L 14.6075,11.0904 L 14.6898,10.9749 L 14.7886,10.8627 L 14.8997,10.7521
 L 15.0211,10.6426 L 15.1506,10.5336 L 15.2835,10.4243 L 15.4154,10.314 L 15.544,10.2017 L 15.6673,10.0868
 L 15.7806,9.96841 L 15.8794,9.84569 L 15.9617,9.71756 L 16.0257,9.58299 L 16.0669,9.44144 L 16.0807,9.29236
 L 16.0645,9.10179 L 16.0161,8.93494 L 15.9372,8.7923 L 15.8298,8.67444 L 15.6945,8.58185 L 15.5316,8.51511
 L 15.3427,8.47473 L 15.129,8.46126 L 14.9124,8.47688 L 14.7232,8.52371 L 14.5604,8.59772 L 14.4228,8.69489
 L 14.3114,8.81248 L 14.2269,8.94786 L 14.1688,9.09695 L 14.1365,9.25575 L 14.5326,9.29236 L 14.5566,9.17313
 L 14.5983,9.0695 L 14.6562,8.98149 L 14.7286,8.9091 L 14.8139,8.85258 L 14.9105,8.81223 L 15.0163,8.78799
 L 15.129,8.77991 L 15.2483,8.78825 L 15.3562,8.81331 L 15.4512,8.85503 L 15.5316,8.91342 L 15.5962,8.98796
 L 15.6436,9.07814 L 15.6727,9.1839 L 15.6824,9.30528 L 15.6611,9.48073 L 15.5973,9.63684 L 15.4991,9.78001
 L 15.3745,9.91675 L 15.2283,10.0502 L 15.0655,10.1837 L 14.8935,10.3228 L 14.7199,10.4733 L 14.5496,10.6385
 L 14.3873,10.8221 L 14.2412,11.0296 L 14.1193,11.2667 L 14.1193,11.5401 L 16.1281,11.5401 z
M -18.85,19.6437 L -18.85,13.5437 L -6.40001,13.5437 L -6.40001,19.6437 z
M -15.009,17.909 L -14.8101,17.8363 L -14.65,17.7077 L -14.5248,17.5155 L -14.5162,17.5155 L -14.5157,17.5717
 L -14.5141,17.6285 L -14.5116,17.6842 L -14.5087,17.7373 L -14.5055,17.786 L -14.5022,17.8288 L -14.4987,17.864
 L -14.4947,17.8901 L -14.1244,17.8901 L -14.1265,17.864 L -14.1287,17.8245 L -14.1308,17.7736 L -14.133,17.7136
 L -14.1349,17.6458 L -14.1362,17.5715 L -14.137,17.4923 L -14.1373,17.41 L -14.1373,14.695 L -14.5248,14.695
 L -14.5248,15.6617 L -14.5246,15.7083 L -14.5238,15.7576 L -14.5227,15.8071 L -14.5216,15.8544 L -14.5208,15.8945
 L -14.5205,15.9222 L -14.5248,15.9222 L -14.6497,15.7398 L -14.8091,15.6144 L -15.0077,15.5417 L -15.2504,15.5175
 L -15.8931,15.8221 L -16.1073,16.7361 L -16.0554,17.2625 L -15.8995,17.636 L -15.6334,17.8589 L -15.2504,17.9332
 z
M -15.2886,17.621 L -15.4033,17.5822 L -15.4975,17.5157 L -15.5734,17.4197 L -15.631,17.2935 L -15.6703,17.1366
 L -15.6929,16.9471 L -15.7004,16.7232 L -15.6921,16.492 L -15.667,16.298 L -15.6248,16.1389 L -15.5647,16.0127
 L -15.4872,15.918 L -15.3925,15.8534 L -15.2795,15.8162 L -15.1471,15.8038 L -15.0052,15.8154 L -14.8812,15.8501
 L -14.7749,15.9112 L -14.6863,16.0019 L -14.6163,16.1238 L -14.5658,16.2786 L -14.5351,16.4688 L -14.5248,16.6973
 L -14.5351,16.9358 L -14.5658,17.1344 L -14.6161,17.2961 L -14.6852,17.424 L -14.7735,17.5195 L -14.8812,17.5844
 L -15.0074,17.6215 L -15.1513,17.6339 z
M -12.4343,17.9184 L -12.2278,17.874 L -12.0507,17.8013 L -11.9049,17.7018 L -11.7902,17.576 L -11.7068,17.4251
 L -11.6559,17.2501 L -11.639,17.0526 L -11.65,16.9223 L -11.6831,16.7986 L -11.7383,16.6844 L -11.8155,16.5832
 L -11.9156,16.4963 L -12.0394,16.425 L -12.1869,16.3725 L -12.3581,16.3421 L -12.3581,16.3335 L -12.2023,16.291
 L -12.0706,16.2323 L -11.9616,16.1591 L -11.8736,16.073 L -11.8064,15.9745 L -11.7595,15.8641 L -11.7321,15.7436
 L -11.7229,15.6143 L -11.7366,15.4534 L -11.7778,15.3022 L -11.8481,15.1652 L -11.949,15.047 L -12.082,14.9496
 L -12.2483,14.8748 L -12.4491,14.8271 L -12.6854,14.8113 L -12.8716,14.8234 L -13.047,14.8597 L -13.2077,14.9205
 L -13.3495,15.0061 L -13.4704,15.1168 L -13.5681,15.2527 L -13.6386,15.4141 L -13.6779,15.6014 L -13.2882,15.6316
 L -13.2292,15.4195 L -13.1041,15.2613 L -12.9214,15.1628 L -12.6896,15.1299 L -12.4423,15.1652 L -12.2644,15.271
 L -12.1571,15.4375 L -12.1213,15.6553 L -12.1371,15.7984 L -12.1848,15.9136 L -12.2569,16.0043 L -12.3463,16.074
 L -12.4493,16.1241 L -12.5626,16.1559 L -12.6789,16.1728 L -12.7908,16.1785 L -13.0018,16.1785 L -13.0018,16.5143
 L -12.7822,16.5143 L -12.6673,16.5192 L -12.5422,16.5337 L -12.4167,16.5625 L -12.301,16.6101 L -12.1993,16.6785
 L -12.1159,16.7695 L -12.0602,16.8882 L -12.0416,17.0397 L -12.0833,17.2889 L -12.2085,17.4681 L -12.4068,17.5763
 L -12.6681,17.6124 L -12.8167,17.6027 L -12.9437,17.5736 L -13.0508,17.5268 L -13.1396,17.4638 L -13.2109,17.3858
 L -13.2656,17.2937 L -13.3046,17.1893 L -13.3291,17.0741 L -13.7296,17.1107 L -13.6994,17.2655 L -13.6477,17.4154
 L -13.5697,17.5548 L -13.4604,17.678 L -13.3186,17.7819 L -13.1429,17.8632 L -12.9278,17.9157 L -12.6681,17.9332
 z
M -10.0686,17.9133 L -9.86834,17.8535 L -9.68724,17.7477 L -9.53141,17.5898 L -9.4033,17.3772 L -9.30536,17.1075
 L -9.24319,16.7746 L -9.22245,16.3722 L -9.24292,15.9532 L -9.30429,15.6133 L -9.40115,15.3433 L -9.52818,15.1342
 L -9.6824,14.9822 L -9.86082,14.8834 L -10.0581,14.8293 L -10.2688,14.8113 L -10.4884,14.8293 L -10.6908,14.8834
 L -10.8717,14.9822 L -11.0267,15.1342 L -11.1535,15.3433 L -11.2495,15.6133 L -11.3101,15.9532 L -11.3303,16.3722
 L -11.3101,16.7762 L -11.2495,17.1096 L -11.1537,17.379 L -11.0278,17.5908 L -10.8741,17.748 L -10.6952,17.8535
 L -10.496,17.9133 L -10.2817,17.9332 z
M -10.426,17.6008 L -10.5574,17.5532 L -10.6707,17.4692 L -10.7651,17.3443 L -10.8399,17.1756 L -10.8943,16.96
 L -10.9274,16.6936 L -10.9384,16.3722 L -10.9277,16.0425 L -10.8954,15.7726 L -10.8418,15.5568 L -10.7673,15.3894
 L -10.6722,15.2669 L -10.5573,15.1859 L -10.4228,15.1407 L -10.2688,15.1256 L -10.1222,15.1404 L -9.99217,15.1848
 L -9.87994,15.265 L -9.78656,15.3872 L -9.71281,15.5546 L -9.65953,15.7705 L -9.62722,16.0409 L -9.61645,16.3722
 L -9.62802,16.6936 L -9.66273,16.96 L -9.71872,17.1756 L -9.79409,17.3443 L -9.88855,17.4692 L -10.0019,17.5532
 L -10.1321,17.6008 L -10.2774,17.6167 z
M -6.3,19.6437 L -6.3,13.5437 L 6.29999,13.5437 L 6.29999,19.6437 z
M -2.30902,17.909 L -2.11013,17.8363 L -1.94999,17.7077 L -1.82483,17.5155 L -1.81624,17.5155 L -1.81569,17.5717
 L -1.81407,17.6285 L -1.81164,17.6842 L -1.8087,17.7373 L -1.80546,17.786 L -1.80223,17.8288 L -1.79873,17.864
 L -1.79471,17.8901 L -1.42437,17.8901 L -1.42653,17.864 L -1.42869,17.8245 L -1.43083,17.7736 L -1.43298,17.7136
 L -1.43486,17.6458 L -1.43622,17.5715 L -1.43702,17.4923 L -1.4373,17.41 L -1.4373,14.695 L -1.82483,14.695
 L -1.82483,15.6617 L -1.82457,15.7083 L -1.82376,15.7576 L -1.82267,15.8071 L -1.82159,15.8544 L -1.82078,15.8945
 L -1.82052,15.9222 L -1.82483,15.9222 L -1.94972,15.7398 L -2.10907,15.6144 L -2.30766,15.5417 L -2.55041,15.5175
 L -3.1931,15.8221 L -3.40732,16.7361 L -3.35537,17.2625 L -3.19955,17.636 L -2.93338,17.8589 L -2.55041,17.9332
 z
M -2.5886,17.621 L -2.70326,17.5822 L -2.79747,17.5157 L -2.87338,17.4197 L -2.93097,17.2935 L -2.97027,17.1366
 L -2.99287,16.9471 L -3.00041,16.7232 L -2.99206,16.492 L -2.96704,16.298 L -2.92477,16.1389 L -2.86474,16.0127
 L -2.78723,15.918 L -2.6925,15.8534 L -2.57946,15.8162 L -2.44706,15.8038 L -2.30523,15.8154 L -2.18116,15.8501
 L -2.07486,15.9112 L -1.98631,16.0019 L -1.91635,16.1238 L -1.86577,16.2786 L -1.83506,16.4688 L -1.82483,16.6973
 L -1.83506,16.9358 L -1.86577,17.1344 L -1.91607,17.2961 L -1.98524,17.424 L -2.07351,17.5195 L -2.18116,17.5844
 L -2.30739,17.6215 L -2.45135,17.6339 z
M 0.265735,17.9184 L 0.472156,17.874 L 0.649265,17.8013 L 0.795123,17.7018 L 0.909778,17.576 L 0.993213,17.4251
 L 1.04407,17.2501 L 1.06102,17.0526 L 1.04999,16.9223 L 1.01689,16.7986 L 0.961719,16.6844 L 0.884464,16.5832
 L 0.784351,16.4963 L 0.660556,16.425 L 0.51308,16.3725 L 0.341922,16.3421 L 0.341922,16.3335 L 0.497745,16.291
 L 0.629352,16.2323 L 0.738361,16.1591 L 0.826358,16.073 L 0.893634,15.9745 L 0.940463,15.8641 L 0.967929,15.7436
 L 0.977069,15.6143 L 0.963351,15.4534 L 0.922153,15.3022 L 0.851917,15.1652 L 0.75098,15.047 L 0.61803,14.9496
 L 0.451709,14.8748 L 0.250934,14.8271 L 0.0146362,14.8113 L -0.171582,14.8234 L -0.347043,14.8597 L -0.507718,14.9205
 L -0.649548,15.0061 L -0.770383,15.1168 L -0.868085,15.2527 L -0.938596,15.4141 L -0.977887,15.6014 L -0.588177,15.6316
 L -0.529233,15.4195 L -0.404095,15.2613 L -0.221356,15.1628 L 0.0103485,15.1299 L 0.257663,15.1652 L 0.43555,15.271
 L 0.542941,15.4375 L 0.578738,15.6553 L 0.562854,15.7984 L 0.515216,15.9136 L 0.443088,16.0043 L 0.353732,16.074
 L 0.250659,16.1241 L 0.137347,16.1559 L 0.021106,16.1728 L -0.0908173,16.1785 L -0.301831,16.1785 L -0.301831,16.5143
 L -0.0822113,16.5143 L 0.0326874,16.5192 L 0.157825,16.5337 L 0.283252,16.5625 L 0.398975,16.6101 L 0.50069,16.6785
 L 0.584109,16.7695 L 0.639835,16.8882 L 0.658405,17.0397 L 0.616687,17.2889 L 0.491519,17.4681 L 0.293185,17.5763
 L 0.0318787,17.6124 L -0.116666,17.6027 L -0.243695,17.5736 L -0.350812,17.5268 L -0.439618,17.4638 L -0.510937,17.3858
 L -0.565579,17.2937 L -0.604596,17.1893 L -0.629071,17.0741 L -1.02957,17.1107 L -0.999417,17.2655 L -0.947751,17.4154
 L -0.869687,17.5548 L -0.760434,17.678 L -0.618604,17.7819 L -0.442868,17.8632 L -0.227811,17.9157 L 0.0318787,17.9332
 z
M 3.43448,17.5607 L 2.696,17.5607 L 2.696,14.8565 L 2.3386,14.8565 L 1.62162,15.3495 L 1.62162,15.7155
 L 2.30628,15.2268 L 2.30628,17.5607 L 1.53336,17.5607 L 1.53336,17.8901 L 3.43448,17.8901 z
M 6.4,19.6437 L 6.4,13.5437 L 18.85,13.5437 L 18.85,19.6437 z
M 10.391,17.909 L 10.5899,17.8363 L 10.75,17.7077 L 10.8752,17.5155 L 10.8838,17.5155 L 10.8843,17.5717
 L 10.8859,17.6285 L 10.8884,17.6842 L 10.8913,17.7373 L 10.8945,17.786 L 10.8978,17.8288 L 10.9013,17.864
 L 10.9053,17.8901 L 11.2756,17.8901 L 11.2735,17.864 L 11.2713,17.8245 L 11.2692,17.7736 L 11.267,17.7136
 L 11.2651,17.6458 L 11.2638,17.5715 L 11.263,17.4923 L 11.2627,17.41 L 11.2627,14.695 L 10.8752,14.695
 L 10.8752,15.6617 L 10.8754,15.7083 L 10.8762,15.7576 L 10.8773,15.8071 L 10.8784,15.8544 L 10.8792,15.8945
 L 10.8795,15.9222 L 10.8752,15.9222 L 10.7503,15.7398 L 10.5909,15.6144 L 10.3923,15.5417 L 10.1496,15.5175
 L 9.5069,15.8221 L 9.29268,16.7361 L 9.34462,17.2625 L 9.50045,17.636 L 9.76662,17.8589 L 10.1496,17.9332
 z
M 10.1114,17.621 L 9.99674,17.5822 L 9.90253,17.5157 L 9.82662,17.4197 L 9.76903,17.2935 L 9.72972,17.1366
 L 9.70713,16.9471 L 9.69959,16.7232 L 9.70793,16.492 L 9.73296,16.298 L 9.77523,16.1389 L 9.83525,16.0127
 L 9.91277,15.918 L 10.0075,15.8534 L 10.1205,15.8162 L 10.2529,15.8038 L 10.3948,15.8154 L 10.5188,15.8501
 L 10.6251,15.9112 L 10.7137,16.0019 L 10.7836,16.1238 L 10.8342,16.2786 L 10.8649,16.4688 L 10.8752,16.6973
 L 10.8649,16.9358 L 10.8342,17.1344 L 10.7839,17.2961 L 10.7148,17.424 L 10.6265,17.5195 L 10.5188,17.5844
 L 10.3926,17.6215 L 10.2486,17.6339 z
M 16.1281,17.5607 L 14.5456,17.5607 L 14.6075,17.4404 L 14.6898,17.3249 L 14.7886,17.2127 L 14.8997,17.1021
 L 15.0211,16.9926 L 15.1506,16.8836 L 15.2835,16.7743 L 15.4154,16.664 L 15.544,16.5517 L 15.6673,16.4368
 L 15.7806,16.3184 L 15.8794,16.1957 L 15.9617,16.0676 L 16.0257,15.933 L 16.0669,15.7914 L 16.0807,15.6424
 L 16.0645,15.4518 L 16.0161,15.2849 L 15.9372,15.1423 L 15.8298,15.0244 L 15.6945,14.9319 L 15.5316,14.8651
 L 15.3427,14.8247 L 15.129,14.8113 L 14.9124,14.8269 L 14.7232,14.8737 L 14.5604,14.9477 L 14.4228,15.0449
 L 14.3114,15.1625 L 14.2269,15.2979 L 14.1688,15.447 L 14.1365,15.6058 L 14.5326,15.6424 L 14.5566,15.5231
 L 14.5983,15.4195 L 14.6562,15.3315 L 14.7286,15.2591 L 14.8139,15.2026 L 14.9105,15.1622 L 15.0163,15.138
 L 15.129,15.1299 L 15.2483,15.1383 L 15.3562,15.1633 L 15.4512,15.205 L 15.5316,15.2634 L 15.5962,15.338
 L 15.6436,15.4281 L 15.6727,15.5339 L 15.6824,15.6553 L 15.6611,15.8307 L 15.5973,15.9868 L 15.4991,16.13
 L 15.3745,16.2668 L 15.2283,16.4002 L 15.0655,16.5337 L 14.8935,16.6728 L 14.7199,16.8233 L 14.5496,16.9885
 L 14.3873,17.1721 L 14.2412,17.3796 L 14.1193,17.6167 L 14.1193,17.8901 L 16.1281,17.8901 z
M 12.9657,17.9184 L 13.1722,17.874 L 13.3493,17.8013 L 13.4951,17.7018 L 13.6098,17.576 L 13.6932,17.4251
 L 13.7441,17.2501 L 13.761,17.0526 L 13.75,16.9223 L 13.7169,16.7986 L 13.6617,16.6844 L 13.5845,16.5832
 L 13.4844,16.4963 L 13.3606,16.425 L 13.2131,16.3725 L 13.0419,16.3421 L 13.0419,16.3335 L 13.1978,16.291
 L 13.3294,16.2323 L 13.4384,16.1591 L 13.5264,16.073 L 13.5936,15.9745 L 13.6405,15.8641 L 13.6679,15.7436
 L 13.6771,15.6143 L 13.6634,15.4534 L 13.6222,15.3022 L 13.5519,15.1652 L 13.451,15.047 L 13.318,14.9496
 L 13.1517,14.8748 L 12.9509,14.8271 L 12.7146,14.8113 L 12.5284,14.8234 L 12.353,14.8597 L 12.1923,14.9205
 L 12.0504,15.0061 L 11.9296,15.1168 L 11.8319,15.2527 L 11.7614,15.4141 L 11.7221,15.6014 L 12.1118,15.6316
 L 12.1708,15.4195 L 12.2959,15.2613 L 12.4786,15.1628 L 12.7103,15.1299 L 12.9577,15.1652 L 13.1356,15.271
 L 13.243,15.4375 L 13.2788,15.6553 L 13.2629,15.7984 L 13.2152,15.9136 L 13.1431,16.0043 L 13.0537,16.074
 L 12.9507,16.1241 L 12.8373,16.1559 L 12.7211,16.1728 L 12.6092,16.1785 L 12.3982,16.1785 L 12.3982,16.5143
 L 12.6178,16.5143 L 12.7327,16.5192 L 12.8578,16.5337 L 12.9833,16.5625 L 13.099,16.6101 L 13.2007,16.6785
 L 13.2841,16.7695 L 13.3398,16.8882 L 13.3584,17.0397 L 13.3167,17.2889 L 13.1915,17.4681 L 12.9932,17.5763
 L 12.7319,17.6124 L 12.5833,17.6027 L 12.4563,17.5736 L 12.3492,17.5268 L 12.2604,17.4638 L 12.1891,17.3858
 L 12.1344,17.2937 L 12.0954,17.1893 L 12.0709,17.0741 L 11.6704,17.1107 L 11.7006,17.2655 L 11.7522,17.4154
 L 11.8303,17.5548 L 11.9396,17.678 L 12.0814,17.7819 L 12.2571,17.8632 L 12.4722,17.9157 L 12.7319,17.9332
 z
" stroke="black" fill="lightgray" stroke-width="0.5"/>
</svg>
