<?xml version="1.0" standalone="no"?>
<!DOCTYPE svg PUBLIC "-//W3C//DTD SVG 1.1//EN" "http://www.w3.org/Graphics/SVG/1.1/DTD/svg11.dtd">
<svg width="118mm" height="79mm" viewBox="-11 -68 118 79" xmlns="http://www.w3.org/2000/svg" version="1.1">
<title>OpenSCAD Model</title>
<path d="
M -0.878281,-62.4826 L -0.722321,-62.516 L -0.579926,-62.5716 L -0.448441,-62.648 L -0.325241,-62.7441 L -0.210327,-62.8598
 L -0.103149,-62.9939 L -0.00312805,-63.1453 L 0.0897064,-63.3141 L 0.178436,-63.4988 L 0.266037,-63.6983 L 0.352509,-63.9125
 L 1.763,-67.5811 L 1.11876,-67.5811 L 0.399963,-65.4857 L 0.375473,-65.4138 L 0.347229,-65.3335 L 0.315201,-65.245
 L 0.281494,-65.1527 L 0.248138,-65.0611 L 0.215164,-64.9704 L 0.183517,-64.8828 L 0.154129,-64.8008 L 0.127014,-64.7246
 L 0.104218,-64.6592 L 0.0878296,-64.61 L 0.0778503,-64.5771 L 0.0695648,-64.6076 L 0.0537262,-64.6585 L 0.030365,-64.7297
 L 0.00193787,-64.8144 L -0.0291138,-64.9059 L -0.0628204,-65.0042 L -0.167984,-65.3094 L -0.200943,-65.4043 L -0.229752,-65.4857
 L -0.254425,-65.5535 L -1.02748,-67.5811 L -1.67848,-67.5811 L -0.223877,-63.9295 L -0.281525,-63.7837 L -0.403229,-63.5184
 L -0.53772,-63.306 L -0.685028,-63.1462 L -0.842865,-63.0351 L -1.009,-62.9684 L -1.18343,-62.9462 L -1.2245,-62.9467
 L -1.27084,-62.9484 L -1.32248,-62.9513 L -1.37483,-62.9552 L -1.42343,-62.9603 L -1.46828,-62.9665 L -1.46828,-62.5088
 L -1.39706,-62.4949 L -1.32812,-62.4847 L -1.26143,-62.4783 L -1.19398,-62.4745 L -1.12279,-62.4723 L -1.04782,-62.4715
 z
M 100.212,0.212128 L 100.3,-0 L 100.212,-0.212128 L 100,-0.299988 L 92.2726,-2.37054 L 92.0605,-2.28268
 L 91.9726,-2.07054 L 91.9726,-0.299988 L 0.299988,-0.299988 L 0.299988,-60 L 0.212128,-60.2121 L 0,-60.3
 L -0.212128,-60.2121 L -0.299988,-60 L -2.37054,-52.2726 L -2.28268,-52.0605 L -2.07054,-51.9726 L -0.299988,-51.9726
 L -0.299988,-0 L 0,0.299988 L 100,0.299988 z
M -1.69016,-52.5726 L -0.299988,-57.7608 L -0.299988,-52.5726 z
M 92.5726,-0.299988 L 92.5726,-1.69016 L 97.7608,-0.299988 z
M 105.034,0.286728 L 106.02,1.79218 L 106.702,1.79218 L 105.38,-0.099762 L 106.624,-1.87645 L 105.942,-1.87645
 L 105.034,-0.449005 L 104.118,-1.87645 L 103.444,-1.87645 L 104.688,-0.0930023 L 103.383,1.79218 L 104.04,1.79218
 z
M -8.7,-0 L -8.75,-0.0499878 L -10,-0.0499878 L -10.05,-0 L -10,0.0499878 L -8.75,0.0499878
 z
M -6.2,-0 L -6.25,-0.0499878 L -7.5,-0.0499878 L -7.54999,-0 L -7.5,0.0499878 L -6.25,0.0499878
 z
M -3.7,-0 L -3.75,-0.0499878 L -5,-0.0499878 L -5.04999,-0 L -5,0.0499878 L -3.75,0.0499878
 z
M -1.2,-0 L -1.25,-0.0499878 L -2.5,-0.0499878 L -2.54999,-0 L -2.5,0.0499878 L -1.25,0.0499878
 z
M 0.0499878,2.5 L 0.0499878,1.25 L 0,1.2 L -0.0499878,1.25 L -0.0499878,2.5 L 0,2.54999
 z
M 0.0499878,5 L 0.0499878,3.75 L 0,3.7 L -0.0499878,3.75 L -0.0499878,5 L 0,5.04999
 z
M 0.0499878,7.5 L 0.0499878,6.25 L 0,6.2 L -0.0499878,6.25 L -0.0499878,7.5 L 0,7.54999
 z
M 0.0499878,10 L 0.0499878,8.75 L 0,8.7 L -0.0499878,8.75 L -0.0499878,10 L 0,10.05
 z
" stroke="black" fill="lightgray" stroke-width="0.5"/>
</svg>
