<?xml version="1.0" standalone="no"?>
<!DOCTYPE svg PUBLIC "-//W3C//DTD SVG 1.1//EN" "http://www.w3.org/Graphics/SVG/1.1/DTD/svg11.dtd">
<svg width="102mm" height="32mm" viewBox="-51 -16 102 32" xmlns="http://www.w3.org/2000/svg" version="1.1">
<title>OpenSCAD Model</title>
<path d="
M -49.9,-6.25 L -49.9,-14.9 L -43.75,-14.9 L -43.65,-15 L -43.75,-15.1 L -50,-15.1
 L -50.1,-15 L -50.1,-6.25 L -50,-6.14999 z
M 43.65,-15 L 43.75,-14.9 L 49.9,-14.9 L 49.9,-6.25 L 50,-6.14999 L 50.1,-6.25
 L 50.1,-15 L 50,-15.1 L 43.75,-15.1 z
M -23.65,-15 L -23.75,-15.1 L -26.25,-15.1 L -26.35,-15 L -26.25,-14.9 L -23.75,-14.9
 z
M 1.34999,-15 L 1.25,-15.1 L -1.25,-15.1 L -1.34999,-15 L -1.25,-14.9 L 1.25,-14.9
 z
M 26.35,-15 L 26.25,-15.1 L 23.75,-15.1 L 23.65,-15 L 23.75,-14.9 L 26.25,-14.9
 z
M -49.9,1.25 L -49.9,-1.25 L -50,-1.34999 L -50.1,-1.25 L -50.1,1.25 L -50,1.34999
 z
M 50.1,1.25 L 50.1,-1.25 L 50,-1.34999 L 49.9,-1.25 L 49.9,1.25 L 50,1.34999
 z
M -43.65,15 L -43.75,14.9 L -49.9,14.9 L -49.9,6.25 L -50,6.14999 L -50.1,6.25
 L -50.1,15 L -50,15.1 L -43.75,15.1 z
M 50.1,15 L 50.1,6.25 L 50,6.14999 L 49.9,6.25 L 49.9,14.9 L 43.75,14.9
 L 43.65,15 L 43.75,15.1 L 50,15.1 z
M 26.35,15 L 26.25,14.9 L 23.75,14.9 L 23.65,15 L 23.75,15.1 L 26.25,15.1
 z
M 1.34999,15 L 1.25,14.9 L -1.25,14.9 L -1.34999,15 L -1.25,15.1 L 1.25,15.1
 z
M -23.65,15 L -23.75,14.9 L -26.25,14.9 L -26.35,15 L -26.25,15.1 L -23.75,15.1
 z
" stroke="black" fill="lightgray" stroke-width="0.5"/>
</svg>
