<?xml version="1.0" standalone="no"?>
<!DOCTYPE svg PUBLIC "-//W3C//DTD SVG 1.1//EN" "http://www.w3.org/Graphics/SVG/1.1/DTD/svg11.dtd">
<svg width="64mm" height="18mm" viewBox="-32 -46 64 18" xmlns="http://www.w3.org/2000/svg" version="1.1">
<title>OpenSCAD Model</title>
<path d="
M 31.9198,-31.8198 L 31.8198,-31.9198 L 30.1109,-33.5415 L 28.3194,-35.0716 L 26.4503,-36.5058 L 24.5087,-37.8402
 L 22.5,-39.0711 L 20.4296,-40.1953 L 18.3031,-41.2095 L 16.1266,-42.1111 L 13.9058,-42.8975 L 11.6469,-43.5667
 L 9.35602,-44.1166 L 7.03955,-44.546 L 4.70377,-44.8535 L 2.35512,-45.0383 L 0,-45.1 L -2.35512,-45.0383
 L -4.70377,-44.8535 L -7.03955,-44.546 L -9.35602,-44.1166 L -11.6469,-43.5667 L -13.9058,-42.8975 L -16.1266,-42.1111
 L -18.3031,-41.2095 L -20.4296,-40.1953 L -22.5,-39.0711 L -24.5087,-37.8402 L -26.4503,-36.5058 L -28.3194,-35.0716
 L -30.1109,-33.5415 L -31.8198,-31.9198 L -31.9198,-31.8198 L -31.8198,-31.7198 L -30.1109,-33.3415 L -28.3194,-34.8716
 L -26.4503,-36.3058 L -24.5087,-37.6402 L -22.5,-38.8711 L -20.4296,-39.9953 L -18.3031,-41.0095 L -16.1266,-41.9111
 L -13.9058,-42.6975 L -11.6469,-43.3667 L -9.35602,-43.9166 L -7.03955,-44.346 L -4.70377,-44.6535 L -2.35512,-44.8383
 L 0,-44.9 L 2.35512,-44.8383 L 4.70377,-44.6535 L 7.03955,-44.346 L 9.35602,-43.9166 L 11.6469,-43.3667
 L 13.9058,-42.6975 L 16.1266,-41.9111 L 18.3031,-41.0095 L 20.4296,-39.9953 L 22.5,-38.8711 L 24.5087,-37.6402
 L 26.4503,-36.3058 L 28.3194,-34.8716 L 30.1109,-33.3415 L 31.8198,-31.7198 z
M 0,-39.9 L 0.0999908,-40 L 0,-40.1 L -2.09343,-40.0452 L -2.19344,-39.9452 L -2.09343,-39.8452
 z
M 4.28113,-39.7809 L 4.18114,-39.8809 L 2.09343,-40.0452 L 1.99342,-39.9452 L 2.09343,-39.8452 L 4.18114,-39.6809
 z
M -4.18114,-39.6809 L -4.08113,-39.7809 L -4.18114,-39.8809 L -6.25737,-39.6075 L -6.35738,-39.5075 L -6.25737,-39.4075
 z
M 8.41646,-39.1259 L 8.31647,-39.2259 L 6.25737,-39.6075 L 6.15736,-39.5075 L 6.25737,-39.4075 L 8.31647,-39.0259
 z
M -8.31647,-39.0259 L -8.21646,-39.1259 L -8.31647,-39.2259 L -10.3528,-38.737 L -10.4528,-38.637 L -10.3528,-38.537
 z
M 12.4607,-38.0423 L 12.3607,-38.1423 L 10.3528,-38.737 L 10.2527,-38.637 L 10.3528,-38.537 L 12.3607,-37.9422
 z
M -12.3607,-37.9422 L -12.2607,-38.0423 L -12.3607,-38.1423 L -14.3347,-37.4432 L -14.4347,-37.3432 L -14.3347,-37.2432
 z
M 16.3695,-36.5418 L 16.2695,-36.6418 L 14.3347,-37.4432 L 14.2347,-37.3432 L 14.3347,-37.2432 L 16.2695,-36.4418
 z
M -16.2695,-36.4418 L -16.1695,-36.5418 L -16.2695,-36.6418 L -18.1596,-35.7402 L -18.2596,-35.6403 L -18.1596,-35.5403
 z
M 20.1,-34.641 L 20,-34.741 L 18.1596,-35.7402 L 18.0596,-35.6403 L 18.1596,-35.5403 L 20,-34.541
 z
M -20,-34.541 L -19.9,-34.641 L -20,-34.741 L -21.7856,-33.6468 L -21.8856,-33.5468 L -21.7856,-33.4468
 z
M 23.6114,-32.3607 L 23.5114,-32.4607 L 21.7856,-33.6468 L 21.6855,-33.5468 L 21.7856,-33.4468 L 23.5114,-32.2607
 z
M -23.5114,-32.2607 L -23.4114,-32.3607 L -23.5114,-32.4607 L -25.1728,-31.1858 L -25.2728,-31.0858 L -25.1728,-30.9858
 z
M 26.8652,-29.7258 L 26.7652,-29.8258 L 25.1728,-31.1858 L 25.0728,-31.0858 L 25.1728,-30.9858 L 26.7652,-29.6258
 z
M -26.7652,-29.6258 L -26.6652,-29.7258 L -26.7652,-29.8258 L -28.2843,-28.3843 L -28.3843,-28.2843 L -28.2843,-28.1843
 z
" stroke="black" fill="lightgray" stroke-width="0.5"/>
</svg>
