<?xml version="1.0" standalone="no"?>
<!DOCTYPE svg PUBLIC "-//W3C//DTD SVG 1.1//EN" "http://www.w3.org/Graphics/SVG/1.1/DTD/svg11.dtd">
<svg width="134mm" height="95mm" viewBox="-7 -78 134 95" xmlns="http://www.w3.org/2000/svg" version="1.1">
<title>OpenSCAD Model</title>
<path d="
M -0.878281,-72.4826 L -0.722321,-72.516 L -0.579926,-72.5716 L -0.448441,-72.648 L -0.325241,-72.7441 L -0.210327,-72.8598
 L -0.103149,-72.9939 L -0.00312805,-73.1453 L 0.0897064,-73.3141 L 0.178436,-73.4988 L 0.266037,-73.6983 L 0.352509,-73.9125
 L 1.763,-77.5811 L 1.11876,-77.5811 L 0.399963,-75.4857 L 0.375473,-75.4138 L 0.347229,-75.3335 L 0.315201,-75.245
 L 0.281494,-75.1527 L 0.248138,-75.0611 L 0.215164,-74.9704 L 0.183517,-74.8828 L 0.154129,-74.8008 L 0.127014,-74.7246
 L 0.104218,-74.6592 L 0.0878296,-74.61 L 0.0778503,-74.5771 L 0.0695648,-74.6076 L 0.0537262,-74.6585 L 0.030365,-74.7297
 L 0.00193787,-74.8144 L -0.0291138,-74.9059 L -0.0628204,-75.0042 L -0.167984,-75.3094 L -0.200943,-75.4043 L -0.229752,-75.4857
 L -0.254425,-75.5535 L -1.02748,-77.5811 L -1.67848,-77.5811 L -0.223877,-73.9295 L -0.281525,-73.7837 L -0.403229,-73.5184
 L -0.53772,-73.306 L -0.685028,-73.1462 L -0.842865,-73.0351 L -1.009,-72.9684 L -1.18343,-72.9462 L -1.2245,-72.9467
 L -1.27084,-72.9484 L -1.32248,-72.9513 L -1.37483,-72.9552 L -1.42343,-72.9603 L -1.46828,-72.9665 L -1.46828,-72.5088
 L -1.39706,-72.4949 L -1.32812,-72.4847 L -1.26143,-72.4783 L -1.19398,-72.4745 L -1.12279,-72.4723 L -1.04782,-72.4715
 z
M 0.0999908,-68.75 L 0.0999908,-70 L 0,-70.1 L -0.0999908,-70 L -0.0999908,-68.75 L 0,-68.65
 z
M 0.0999908,-66.25 L 0.0999908,-67.5 L 0,-67.6 L -0.0999908,-67.5 L -0.0999908,-66.25 L 0,-66.15
 z
M 0.0999908,-63.75 L 0.0999908,-65 L 0,-65.1 L -0.0999908,-65 L -0.0999908,-63.75 L 0,-63.65
 z
M 0.0999908,-61.25 L 0.0999908,-62.5 L 0,-62.6 L -0.0999908,-62.5 L -0.0999908,-61.25 L 0,-61.15
 z
M 0.0999908,-58.75 L 0.0999908,-60 L 0,-60.1 L -0.0999908,-60 L -0.0999908,-58.75 L 0,-58.65
 z
M 0.0999908,-56.25 L 0.0999908,-57.5 L 0,-57.6 L -0.0999908,-57.5 L -0.0999908,-56.25 L 0,-56.15
 z
M -2.25563,-2.1828 L -2.30563,-2.2328 L -6.23534,-5.95319 L -2.86168,-8.02603 L -2.8324,-8.09674 L -2.86168,-8.16745
 L -2.93239,-8.19673 L -4.72835,-7.59996 L -0.0999908,-12.4888 L -0.0999908,-11.25 L 0,-11.15 L 0.0999908,-11.25
 L 0.0999908,-12.5 L 0.00273132,-12.5973 L 40.2755,-55.1361 L 39.78,-53.3181 L 39.8093,-53.2474 L 39.88,-53.2181
 L 39.9507,-53.2474 L 41.8387,-56.7343 L 45.8194,-52.9657 L 45.8694,-53.0157 L 45.8194,-53.0657 L 41.8712,-56.8035
 L 41.8845,-56.8356 L 41.8552,-56.9063 L 41.7845,-56.9356 L 41.7478,-56.9204 L 41.2081,-57.4313 L 41.1581,-57.3813
 L 41.2081,-57.3313 L 41.6793,-56.8852 L 38.3057,-54.8123 L 38.2764,-54.7416 L 38.3057,-54.6709 L 38.3764,-54.6416
 L 40.1723,-55.2384 L -4.83147,-7.70229 L -4.336,-9.52023 L -4.36528,-9.59096 L -4.43599,-9.62024 L -4.5067,-9.59096
 L -6.39465,-6.104 L -6.9169,-6.59843 L -6.9669,-6.54843 L -6.9169,-6.49843 L -6.4272,-6.03482 L -6.44049,-6.00273
 L -6.41119,-5.93202 L -6.34048,-5.90273 L -6.30376,-5.91794 L -2.30563,-2.13281 z
M 87.3492,-4.55836 L 87.3972,-4.53847 L 87.468,-4.56776 L 87.4972,-4.63847 L 87.494,-4.64912 L 88.0697,-5.01015
 L 88.1197,-5.06015 L 88.0697,-5.11015 L 87.4682,-4.73296 L 86.3217,-8.46185 L 86.2925,-8.53256 L 86.2218,-8.56184
 L 86.151,-8.53256 L 86.1217,-8.46185 L 86.2465,-6.63304 L 56.8128,-53.5727 L 58.3812,-52.6773 L 58.4519,-52.648
 L 58.5226,-52.6773 L 58.5519,-52.748 L 58.5226,-52.8187 L 55.642,-55.4965 L 56.1947,-55.843 L 56.2447,-55.8931
 L 56.1947,-55.9431 L 55.5703,-55.5515 L 55.5222,-55.5714 L 55.4515,-55.5421 L 55.4222,-55.4714 L 55.4255,-55.4607
 L 50.8149,-52.5696 L 50.7649,-52.5196 L 50.8149,-52.4696 L 55.4513,-55.3769 L 56.5977,-51.648 L 56.627,-51.5773
 L 56.6977,-51.548 L 56.7684,-51.5773 L 56.7977,-51.648 L 56.6729,-53.4768 L 86.1067,-6.53712 L 84.5383,-7.43257
 L 84.4675,-7.46187 L 84.3968,-7.43257 L 84.3675,-7.36186 L 84.3968,-7.29115 L 87.2775,-4.61337 L 82.6899,-1.73671
 L 82.6399,-1.68671 L 82.6899,-1.63672 z
M 0.0999908,-53.75 L 0.0999908,-55 L 0,-55.1 L -0.0999908,-55 L -0.0999908,-53.75 L 0,-53.65
 z
M 0.0999908,-51.25 L 0.0999908,-52.5 L 0,-52.6 L -0.0999908,-52.5 L -0.0999908,-51.25 L 0,-51.15
 z
M 80.6667,-0 L 48.7917,-50.8329 L 48.125,-51.4996 L 47.4583,-50.8329 L -0.666656,-0 L 0,0.666656
 L 80,0.666656 z
M 1.29781,-0.666656 L 47.9896,-49.9857 L 78.9153,-0.666656 z
M 0.0999908,-48.75 L 0.0999908,-50 L 0,-50.1 L -0.0999908,-50 L -0.0999908,-48.75 L 0,-48.65
 z
M 0.0999908,-46.25 L 0.0999908,-47.5 L 0,-47.6 L -0.0999908,-47.5 L -0.0999908,-46.25 L 0,-46.15
 z
M 0.0999908,-43.75 L 0.0999908,-45 L 0,-45.1 L -0.0999908,-45 L -0.0999908,-43.75 L 0,-43.65
 z
M 0.0999908,-41.25 L 0.0999908,-42.5 L 0,-42.6 L -0.0999908,-42.5 L -0.0999908,-41.25 L 0,-41.15
 z
M 0.0999908,-38.75 L 0.0999908,-40 L 0,-40.1 L -0.0999908,-40 L -0.0999908,-38.75 L 0,-38.65
 z
M 15.5229,-34.1868 L 15.7033,-34.2129 L 15.8885,-34.2671 L 16.0785,-34.3495 L 16.2728,-34.4656 L 16.4708,-34.6214
 L 16.6725,-34.8166 L 16.8371,-35.0055 L 16.9735,-35.1947 L 17.0815,-35.3842 L 17.1611,-35.5724 L 17.212,-35.7577
 L 17.2342,-35.94 L 17.2281,-36.1191 L 17.1941,-36.2944 L 17.1323,-36.4661 L 17.0426,-36.6327 L 16.9251,-36.793
 L 16.7797,-36.9469 L 16.6743,-37.0361 L 16.5616,-37.111 L 16.4415,-37.1715 L 16.3156,-37.2162 L 16.1857,-37.2434
 L 16.0518,-37.2532 L 15.9141,-37.2445 L 15.773,-37.2163 L 15.6284,-37.1685 L 15.482,-37.0996 L 15.3354,-37.008
 L 15.1887,-36.8938 L 15.1788,-36.9031 L 15.2638,-37.0537 L 15.329,-37.1998 L 15.3743,-37.3414 L 15.4013,-37.4784
 L 15.4117,-37.6111 L 15.4054,-37.7392 L 15.3828,-37.8628 L 15.3444,-37.9816 L 15.2901,-38.0958 L 15.2213,-38.205
 L 15.1393,-38.3091 L 15.0441,-38.4081 L 14.9136,-38.5184 L 14.7747,-38.6101 L 14.6276,-38.6832 L 14.4738,-38.7347
 L 14.3147,-38.7616 L 14.1505,-38.7637 L 13.9814,-38.7396 L 13.8078,-38.6877 L 13.6295,-38.608 L 13.4485,-38.4976
 L 13.2666,-38.3539 L 13.0837,-38.1769 L 12.9541,-38.0277 L 12.8421,-37.8724 L 12.7475,-37.7108 L 12.6725,-37.545
 L 12.6191,-37.3768 L 12.5874,-37.2063 L 12.5785,-37.0345 L 12.5936,-36.8622 L 12.6327,-36.6895 L 12.6979,-36.5184
 L 12.7912,-36.3506 L 12.9127,-36.1864 L 13.3691,-36.5994 L 13.2352,-36.7954 L 13.1604,-36.9993 L 13.1449,-37.2108
 L 13.1875,-37.4229 L 13.287,-37.6283 L 13.4434,-37.827 L 13.6482,-38.0074 L 13.8554,-38.1186 L 14.0651,-38.1606
 L 14.2717,-38.1375 L 14.4699,-38.0533 L 14.6596,-37.9082 L 14.7647,-37.7935 L 14.8402,-37.676 L 14.8863,-37.5558
 L 14.9081,-37.4351 L 14.911,-37.3156 L 14.8949,-37.1975 L 14.8622,-37.0819 L 14.8153,-36.9699 L 14.7542,-36.8615
 L 14.6841,-36.7587 L 14.6104,-36.6636 L 14.533,-36.5761 L 14.3045,-36.3347 L 14.6886,-35.9711 L 14.9264,-36.2223
 L 15.0106,-36.3062 L 15.1046,-36.3908 L 15.2085,-36.4758 L 15.3197,-36.5542 L 15.4359,-36.6185 L 15.5569,-36.6689
 L 15.6818,-36.7021 L 15.8094,-36.7152 L 15.9396,-36.7081 L 16.0706,-36.6735 L 16.2004,-36.6044 L 16.3291,-36.5005
 L 16.5079,-36.291 L 16.611,-36.0727 L 16.6384,-35.8457 L 16.5944,-35.6158 L 16.4835,-35.3885 L 16.3057,-35.1639
 L 16.1909,-35.0526 L 16.0767,-34.9615 L 15.963,-34.8907 L 15.8498,-34.8386 L 15.7372,-34.8035 L 15.6253,-34.7855
 L 15.5141,-34.7837 L 15.4038,-34.7971 L 15.2944,-34.8257 L 15.1862,-34.8681 L 15.0796,-34.9232 L 14.9745,-34.9908
 L 14.5828,-34.4932 L 14.7205,-34.4012 L 14.8662,-34.3224 L 15.0197,-34.2569 L 15.1806,-34.2099 L 15.3484,-34.1865
 z
M 0.0999908,-36.25 L 0.0999908,-37.5 L 0,-37.6 L -0.0999908,-37.5 L -0.0999908,-36.25 L 0,-36.15
 z
M 74.3973,-32.4401 L 74.5461,-32.4678 L 74.6935,-32.5209 L 74.8397,-32.5994 L 74.943,-32.6716 L 75.0308,-32.7486
 L 75.103,-32.8306 L 75.1617,-32.9165 L 75.2087,-33.0053 L 75.244,-33.0971 L 75.2687,-33.1915 L 75.2834,-33.2881
 L 75.2883,-33.387 L 75.2854,-33.4874 L 75.2766,-33.5887 L 75.262,-33.6907 L 75.2424,-33.7929 L 75.2186,-33.8947
 L 75.1906,-33.9961 L 75.1604,-34.0963 L 75.1301,-34.1947 L 75.0996,-34.2912 L 75.0539,-34.4311 L 75.0117,-34.5633
 L 74.9729,-34.688 L 74.9405,-34.8049 L 74.9175,-34.9138 L 74.9039,-35.0149 L 74.9013,-35.1085 L 74.9112,-35.1947
 L 74.9337,-35.2738 L 74.9717,-35.3454 L 75.0282,-35.4095 L 75.1032,-35.4661 L 75.2463,-35.5301 L 75.3884,-35.5418
 L 75.5294,-35.5013 L 75.6709,-35.4068 L 75.8144,-35.2566 L 75.9599,-35.0508 L 76.0121,-34.9623 L 76.058,-34.8731
 L 76.0978,-34.7831 L 76.1296,-34.6934 L 76.1516,-34.6051 L 76.1638,-34.5183 L 76.1656,-34.4332 L 76.1564,-34.35
 L 76.1362,-34.2688 L 76.1031,-34.1907 L 76.0554,-34.1168 L 75.9931,-34.047 L 76.3423,-33.6177 L 76.5352,-33.8478
 L 76.6484,-34.0969 L 76.6821,-34.3651 L 76.6413,-34.6536 L 76.5308,-34.9639 L 76.3506,-35.2958 L 76.1026,-35.6363
 L 75.8438,-35.8842 L 75.5741,-36.0395 L 75.2976,-36.1007 L 75.0184,-36.0663 L 74.7363,-35.9364 L 74.6036,-35.8389
 L 74.5002,-35.7314 L 74.4262,-35.6139 L 74.3762,-35.4885 L 74.3445,-35.3572 L 74.331,-35.22 L 74.3336,-35.0787
 L 74.3499,-34.9348 L 74.3797,-34.7883 L 74.4178,-34.641 L 74.4589,-34.4946 L 74.5029,-34.3493 L 74.5494,-34.1967
 L 74.5935,-34.053 L 74.6353,-33.918 L 74.6706,-33.7918 L 74.6954,-33.6746 L 74.7097,-33.5664 L 74.7117,-33.4664
 L 74.6999,-33.3735 L 74.6741,-33.288 L 74.6312,-33.21 L 74.5679,-33.1396 L 74.4843,-33.077 L 74.3934,-33.0286
 L 74.3046,-32.999 L 74.2179,-32.988 L 74.1333,-32.9938 L 74.0508,-33.0148 L 73.9704,-33.0509 L 73.892,-33.1011
 L 73.8155,-33.1645 L 73.741,-33.2412 L 73.6681,-33.3291 L 73.5965,-33.4263 L 73.5262,-33.5327 L 73.3966,-33.7681
 L 73.3153,-33.9839 L 73.2822,-34.1802 L 73.298,-34.3604 L 73.3631,-34.5279 L 73.4774,-34.6827 L 73.1019,-35.0836
 L 72.9896,-34.956 L 72.9005,-34.8248 L 72.8346,-34.6898 L 72.7905,-34.5513 L 72.7669,-34.4091 L 72.7639,-34.2633
 L 72.7803,-34.1133 L 72.8153,-33.9585 L 72.869,-33.7989 L 72.9402,-33.6339 L 73.0281,-33.4629 L 73.1326,-33.2859
 L 73.2609,-33.0966 L 73.3934,-32.931 L 73.5303,-32.7889 L 73.6703,-32.6706 L 73.8122,-32.5762 L 73.9561,-32.5056
 L 74.1017,-32.4593 L 74.2487,-32.4374 z
M 13.2054,-31.5716 L 13.3473,-31.6051 L 13.4884,-31.6585 L 13.6295,-31.7311 L 13.7707,-31.8229 L 13.9126,-31.9332
 L 14.0562,-32.061 L 14.2014,-32.2065 L 14.3527,-32.378 L 14.4799,-32.5478 L 14.5833,-32.7158 L 14.6628,-32.881
 L 14.7188,-33.042 L 14.7511,-33.1989 L 14.7596,-33.3514 L 14.744,-33.4993 L 14.7042,-33.6425 L 14.6402,-33.7796
 L 14.552,-33.9091 L 14.4394,-34.031 L 14.3437,-34.113 L 14.2472,-34.1787 L 14.1497,-34.2281 L 14.0519,-34.2634
 L 13.9541,-34.2867 L 13.8564,-34.298 L 13.7589,-34.2983 L 13.6616,-34.2885 L 13.5647,-34.2685 L 13.4682,-34.2405
 L 13.3723,-34.2067 L 13.2772,-34.1671 L 13.1832,-34.1226 L 13.0905,-34.074 L 12.9994,-34.0216 L 12.9098,-33.9673
 L 12.8222,-33.9133 L 12.7364,-33.8597 L 12.6124,-33.7805 L 12.4949,-33.7065 L 12.3839,-33.6378 L 12.2788,-33.5772
 L 12.179,-33.5277 L 12.0845,-33.4893 L 11.9946,-33.4633 L 11.9086,-33.4514 L 11.8265,-33.4534 L 11.7476,-33.4723
 L 11.6714,-33.511 L 11.5979,-33.5695 L 11.5002,-33.692 L 11.4533,-33.8267 L 11.4573,-33.9733 L 11.5134,-34.134
 L 11.6229,-34.3105 L 11.7858,-34.5028 L 11.8584,-34.5754 L 11.9334,-34.6422 L 12.0106,-34.7032 L 12.0894,-34.7564
 L 12.1694,-34.7998 L 12.2504,-34.8333 L 12.3324,-34.8564 L 12.4152,-34.8682 L 12.4989,-34.8689 L 12.5828,-34.8564
 L 12.6663,-34.8287 L 12.7494,-34.7858 L 13.0778,-35.2313 L 12.8068,-35.3605 L 12.5373,-35.4079 L 12.2692,-35.3735
 L 12,-35.2618 L 11.7273,-35.0772 L 11.4509,-34.8199 L 11.1832,-34.4946 L 11.0079,-34.182 L 10.9249,-33.882
 L 10.9348,-33.599 L 11.0379,-33.3372 L 11.2342,-33.0966 L 11.3618,-32.9925 L 11.4917,-32.9193 L 11.624,-32.877
 L 11.758,-32.8599 L 11.8931,-32.862 L 12.0292,-32.8833 L 12.1654,-32.9212 L 12.3007,-32.9729 L 12.4351,-33.0384
 L 12.5681,-33.1121 L 12.6996,-33.1884 L 12.8293,-33.2674 L 12.9654,-33.3506 L 13.0935,-33.4292 L 13.2138,-33.5034
 L 13.3271,-33.5691 L 13.4344,-33.6224 L 13.5356,-33.6633 L 13.632,-33.6903 L 13.7248,-33.702 L 13.8141,-33.6985
 L 13.9004,-33.6765 L 13.9843,-33.6328 L 14.0659,-33.5675 L 14.1354,-33.4916 L 14.1863,-33.413 L 14.2186,-33.3318
 L 14.2341,-33.2484 L 14.2345,-33.1633 L 14.2196,-33.0764 L 14.1906,-32.9879 L 14.1483,-32.898 L 14.0927,-32.8067
 L 14.0258,-32.7141 L 13.9496,-32.6205 L 13.8641,-32.5258 L 13.6687,-32.3415 L 13.48,-32.2088 L 13.2982,-32.1278
 L 13.1198,-32.098 L 12.9413,-32.1191 L 12.7628,-32.1911 L 12.4685,-31.7273 L 12.6201,-31.6505 L 12.7695,-31.597
 L 12.9167,-31.5669 L 13.0618,-31.5589 z
M 0.0999908,-33.75 L 0.0999908,-35 L 0,-35.1 L -0.0999908,-35 L -0.0999908,-33.75 L 0,-33.65
 z
M 76.382,-29.208 L 75.7642,-30.1933 L 79.3722,-32.4557 L 79.0732,-32.9326 L 77.8155,-33.4767 L 77.3272,-33.1704
 L 78.552,-32.6659 L 75.4381,-30.7133 L 74.7915,-31.7445 L 74.352,-31.4689 L 75.9425,-28.9324 z
M 0.0999908,-31.25 L 0.0999908,-32.5 L 0,-32.6 L -0.0999908,-32.5 L -0.0999908,-31.25 L 0,-31.15
 z
M 0.0999908,-28.75 L 0.0999908,-30 L 0,-30.1 L -0.0999908,-30 L -0.0999908,-28.75 L 0,-28.65
 z
M 0.0999908,-26.25 L 0.0999908,-27.5 L 0,-27.6 L -0.0999908,-27.5 L -0.0999908,-26.25 L 0,-26.15
 z
M 0.0999908,-23.75 L 0.0999908,-25 L 0,-25.1 L -0.0999908,-25 L -0.0999908,-23.75 L 0,-23.65
 z
M 0.0999908,-21.25 L 0.0999908,-22.5 L 0,-22.6 L -0.0999908,-22.5 L -0.0999908,-21.25 L 0,-21.15
 z
M 0.0999908,-18.75 L 0.0999908,-20 L 0,-20.1 L -0.0999908,-20 L -0.0999908,-18.75 L 0,-18.65
 z
M 0.0999908,-16.25 L 0.0999908,-17.5 L 0,-17.6 L -0.0999908,-17.5 L -0.0999908,-16.25 L 0,-16.15
 z
M 0.0999908,-13.75 L 0.0999908,-15 L 0,-15.1 L -0.0999908,-15 L -0.0999908,-13.75 L 0,-13.65
 z
M 0.0999908,-8.75 L 0.0999908,-10 L 0,-10.1 L -0.0999908,-10 L -0.0999908,-8.75 L 0,-8.64999
 z
M 0.0999908,-6.25 L 0.0999908,-7.5 L 0,-7.59999 L -0.0999908,-7.5 L -0.0999908,-6.25 L 0,-6.14999
 z
M 0.0999908,-3.75 L 0.0999908,-5 L 0,-5.09999 L -0.0999908,-5 L -0.0999908,-3.75 L 0,-3.64999
 z
M 0.0999908,-1.25 L 0.0999908,-2.5 L 0,-2.59999 L -0.0999908,-2.5 L -0.0999908,-1.25 L 0,-1.14999
 z
M 125.034,0.286728 L 126.02,1.79218 L 126.702,1.79218 L 125.38,-0.099762 L 126.624,-1.87645 L 125.942,-1.87645
 L 125.034,-0.449005 L 124.118,-1.87645 L 123.444,-1.87645 L 124.688,-0.0930023 L 123.383,1.79218 L 124.04,1.79218
 z
M 90.1,-0 L 90,-0.0999908 L 88.75,-0.0999908 L 88.65,-0 L 88.75,0.0999908 L 90,0.0999908
 z
M 100.1,-0 L 100,-0.0999908 L 98.75,-0.0999908 L 98.65,-0 L 98.75,0.0999908 L 100,0.0999908
 z
M 102.6,-0 L 102.5,-0.0999908 L 101.25,-0.0999908 L 101.15,-0 L 101.25,0.0999908 L 102.5,0.0999908
 z
M 105.1,-0 L 105,-0.0999908 L 103.75,-0.0999908 L 103.65,-0 L 103.75,0.0999908 L 105,0.0999908
 z
M 107.6,-0 L 107.5,-0.0999908 L 106.25,-0.0999908 L 106.15,-0 L 106.25,0.0999908 L 107.5,0.0999908
 z
M 110.1,-0 L 110,-0.0999908 L 108.75,-0.0999908 L 108.65,-0 L 108.75,0.0999908 L 110,0.0999908
 z
M 112.6,-0 L 112.5,-0.0999908 L 111.25,-0.0999908 L 111.15,-0 L 111.25,0.0999908 L 112.5,0.0999908
 z
M 115.1,-0 L 115,-0.0999908 L 113.75,-0.0999908 L 113.65,-0 L 113.75,0.0999908 L 115,0.0999908
 z
M 117.6,-0 L 117.5,-0.0999908 L 116.25,-0.0999908 L 116.15,-0 L 116.25,0.0999908 L 117.5,0.0999908
 z
M 120.1,-0 L 120,-0.0999908 L 118.75,-0.0999908 L 118.65,-0 L 118.75,0.0999908 L 120,0.0999908
 z
M 82.6,-0 L 82.5,-0.0999908 L 81.25,-0.0999908 L 81.15,-0 L 81.25,0.0999908 L 82.5,0.0999908
 z
M 85.1,-0 L 85,-0.0999908 L 83.75,-0.0999908 L 83.65,-0 L 83.75,0.0999908 L 85,0.0999908
 z
M 87.6,-0 L 87.5,-0.0999908 L 86.25,-0.0999908 L 86.15,-0 L 86.25,0.0999908 L 87.5,0.0999908
 z
M 92.6,-0 L 92.5,-0.0999908 L 91.25,-0.0999908 L 91.15,-0 L 91.25,0.0999908 L 92.5,0.0999908
 z
M 97.6,-0 L 97.5,-0.0999908 L 96.25,-0.0999908 L 96.15,-0 L 96.25,0.0999908 L 97.5,0.0999908
 z
M 95.1,-0 L 95,-0.0999908 L 93.75,-0.0999908 L 93.65,-0 L 93.75,0.0999908 L 95,0.0999908
 z
M 79.95,8.84464 L 79.95,9.52499 L 80,9.575 L 80.05,9.52499 L 80.05,8.81053 L 80.0707,8.80196
 L 80.1,8.73125 L 80.0707,8.66054 L 80.05,8.65195 L 80.05,3.17499 L 80,3.125 L 79.95,3.17499
 L 79.95,8.61784 L 76.1363,7.59596 L 76.0656,7.62526 L 76.0363,7.69597 L 76.0656,7.76668 L 77.6789,8.63124
 L 2.32111,8.63124 L 3.9344,7.76668 L 3.9637,7.69597 L 3.9344,7.62526 L 3.86369,7.59596 L 0.0499878,8.61784
 L 0.0499878,3.17499 L 0,3.125 L -0.0499878,3.17499 L -0.0499878,8.65195 L -0.0707092,8.66054 L -0.0999908,8.73125
 L -0.0707092,8.80196 L -0.0499878,8.81053 L -0.0499878,9.52499 L 0,9.575 L 0.0499878,9.52499 L 0.0499878,8.84464
 L 3.86369,9.86652 L 3.9344,9.83723 L 3.9637,9.76653 L 3.9344,9.6958 L 2.32108,8.83124 L 77.6789,8.83124
 L 76.0656,9.6958 L 76.0363,9.76653 L 76.0656,9.83723 L 76.1363,9.86652 z
M 42.2621,15.594 L 42.6096,15.5064 L 42.8845,15.3604 L 43.0832,15.1586 L 43.2025,14.9038 L 43.2422,14.5958
 L 43.2301,14.4315 L 43.194,14.2869 L 43.1337,14.1618 L 43.054,14.0527 L 42.9596,13.9561 L 42.8506,13.8719
 L 42.7294,13.799 L 42.5989,13.7363 L 42.4589,13.6837 L 42.3139,13.6378 L 42.1681,13.5948 L 42.0215,13.5549
 L 41.8676,13.5133 L 41.7224,13.4743 L 41.5858,13.4379 L 41.4602,13.4008 L 41.3477,13.3596 L 41.2485,13.3142
 L 41.1626,13.2628 L 41.0903,13.2034 L 41.0315,13.1361 L 40.9882,13.0583 L 40.9622,12.9674 L 40.9535,12.8632
 L 40.9608,12.7606 L 40.9829,12.6696 L 41.0196,12.5903 L 41.0695,12.5217 L 41.1311,12.4629 L 41.2044,12.4139
 L 41.2886,12.3742 L 41.383,12.3431 L 41.4875,12.3207 L 41.6008,12.3056 L 41.7211,12.2966 L 41.8486,12.2936
 L 42.1169,12.3088 L 42.3429,12.3546 L 42.5268,12.4309 L 42.6711,12.54 L 42.7784,12.6841 L 42.8488,12.8632
 L 43.388,12.7581 L 43.3396,12.5952 L 43.2757,12.4499 L 43.1964,12.3224 L 43.1024,12.2114 L 42.9945,12.1159
 L 42.8726,12.0359 L 42.7368,11.9701 L 42.587,11.9176 L 42.4233,11.8782 L 42.2457,11.8509 L 42.0541,11.8345
 L 41.8486,11.8291 L 41.6201,11.8372 L 41.4093,11.8615 L 41.2163,11.902 L 41.0417,11.9577 L 40.8863,12.0278
 L 40.7501,12.1122 L 40.6335,12.2109 L 40.5368,12.3239 L 40.4602,12.4512 L 40.4046,12.5919 L 40.3713,12.7451
 L 40.3601,12.9107 L 40.3664,13.0365 L 40.385,13.1518 L 40.4161,13.2565 L 40.4577,13.3519 L 40.508,13.4389
 L 40.567,13.5176 L 40.6338,13.5886 L 40.7079,13.6525 L 40.789,13.7091 L 40.8757,13.76 L 40.9661,13.8064
 L 41.0603,13.8482 L 41.1573,13.8859 L 41.2562,13.9198 L 41.357,13.9499 L 41.458,13.9776 L 41.5574,14.0042
 L 41.6553,14.0296 L 41.7981,14.0652 L 41.9326,14.0996 L 42.0588,14.133 L 42.1751,14.1677 L 42.2796,14.2061
 L 42.3725,14.2483 L 42.4531,14.2957 L 42.5209,14.35 L 42.5759,14.411 L 42.6164,14.4813 L 42.6407,14.5632
 L 42.6488,14.6568 L 42.627,14.812 L 42.5614,14.9386 L 42.4522,15.0366 L 42.297,15.1063 L 42.0935,15.1481
 L 41.8418,15.162 L 41.7392,15.1592 L 41.6392,15.1507 L 41.5418,15.1366 L 41.4489,15.1159 L 41.3625,15.0876
 L 41.2824,15.0518 L 41.2093,15.0081 L 41.1438,14.9561 L 41.0857,14.8959 L 41.0371,14.8264 L 40.9998,14.7467
 L 40.9738,14.6568 L 40.4246,14.7247 L 40.5171,15.0102 L 40.668,15.2385 L 40.8772,15.4096 L 41.1434,15.5282
 L 41.4649,15.5994 L 41.8418,15.6232 z
M 38.4832,16.7345 L 38.6962,16.7018 L 38.8901,16.6471 L 39.0655,16.5735 L 39.2231,16.4836 L 39.3631,16.3776
 L 39.4848,16.2572 L 39.5876,16.1244 L 39.6716,15.9792 L 39.7372,15.8243 L 39.7846,15.6627 L 39.814,15.4943
 L 39.1901,15.4367 L 39.1681,15.5646 L 39.1337,15.6815 L 39.0867,15.7876 L 39.0285,15.8828 L 38.9601,15.9669
 L 38.8816,16.0402 L 38.794,16.1024 L 38.6985,16.1532 L 38.5951,16.1928 L 38.4853,16.221 L 38.3706,16.238
 L 38.2509,16.2437 L 38.1238,16.2378 L 38.0046,16.2203 L 37.8932,16.1911 L 37.791,16.1502 L 37.6989,16.0976
 L 37.6169,16.0334 L 37.5461,15.9579 L 37.4873,15.8714 L 37.4406,15.774 L 37.4067,15.6657 L 37.3863,15.5465
 L 37.3795,15.4163 L 37.3944,15.2287 L 37.4391,15.0547 L 37.5135,14.8942 L 37.612,14.7427 L 37.729,14.5958
 L 37.8644,14.4534 L 38.0149,14.3132 L 38.1771,14.1731 L 38.351,14.033 L 38.5312,13.8889 L 38.7127,13.7369
 L 38.8952,13.5769 L 39.0754,13.4066 L 39.2501,13.2236 L 39.419,13.0276 L 39.5767,12.815 L 39.7174,12.5816
 L 39.8411,12.3275 L 39.8411,11.8969 L 36.6777,11.8969 L 36.6777,12.4156 L 39.1698,12.4156 L 39.1084,12.5428
 L 39.0327,12.6666 L 38.9426,12.7869 L 38.8411,12.905 L 38.7309,13.022 L 38.612,13.1378 L 38.486,13.2529
 L 38.3544,13.3676 L 38.217,13.482 L 38.0773,13.5965 L 37.9383,13.7118 L 37.8,13.8278 L 37.664,13.9452
 L 37.5318,14.0644 L 37.4033,14.1855 L 37.2818,14.3091 L 37.1705,14.4357 L 37.0693,14.5653 L 36.9797,14.6987
 L 36.9028,14.8365 L 36.8388,14.979 L 36.7907,15.1263 L 36.7619,15.2788 L 36.7523,15.4367 L 36.7636,15.6409
 L 36.7975,15.8285 L 36.854,15.9995 L 36.9318,16.1536 L 37.0296,16.2904 L 37.1473,16.4098 L 37.2847,16.5115
 L 37.4412,16.5951 L 37.6169,16.6607 L 37.8109,16.7078 L 38.0223,16.736 L 38.2509,16.7455 z
" stroke="black" fill="lightgray" stroke-width="0.5"/>
</svg>
