solid OpenSCAD_Model
  facet normal 0 -1 0
    outer loop
      vertex -54.8577 -35.9112 75.5051
      vertex 54.8577 -35.9112 75.5051
      vertex -0 -35.9112 93.3294
    endloop
  endfacet
  facet normal 0 -1 0
    outer loop
      vertex -88.7616 -35.9112 28.8404
      vertex 54.8577 -35.9112 75.5051
      vertex -54.8577 -35.9112 75.5051
    endloop
  endfacet
  facet normal 0 -1 0
    outer loop
      vertex -88.7616 -35.9112 28.8404
      vertex 88.7616 -35.9112 28.8404
      vertex 54.8577 -35.9112 75.5051
    endloop
  endfacet
  facet normal 0 -1 0
    outer loop
      vertex -88.7616 -35.9112 -28.8404
      vertex 88.7616 -35.9112 28.8404
      vertex -88.7616 -35.9112 28.8404
    endloop
  endfacet
  facet normal 0 -1 0
    outer loop
      vertex -88.7616 -35.9112 -28.8404
      vertex 88.7616 -35.9112 -28.8404
      vertex 88.7616 -35.9112 28.8404
    endloop
  endfacet
  facet normal 0 -1 0
    outer loop
      vertex -54.8577 -35.9112 -75.5051
      vertex 88.7616 -35.9112 -28.8404
      vertex -88.7616 -35.9112 -28.8404
    endloop
  endfacet
  facet normal 0 -1 0
    outer loop
      vertex -54.8577 -35.9112 -75.5051
      vertex 54.8577 -35.9112 -75.5051
      vertex 88.7616 -35.9112 -28.8404
    endloop
  endfacet
  facet normal -0 -1 0
    outer loop
      vertex 54.8577 -35.9112 -75.5051
      vertex -54.8577 -35.9112 -75.5051
      vertex -9.62e-06 -35.9112 -93.3294
    endloop
  endfacet
  facet normal 0.585323 0.091443 0.805627
    outer loop
      vertex 28.8404 13.8326 88.7616
      vertex 54.8577 -35.9112 75.5051
      vertex 75.5051 13.8325 54.8577
    endloop
  endfacet
  facet normal 0.805627 -0.0914431 0.585323
    outer loop
      vertex 75.5051 13.8325 54.8577
      vertex 54.8577 -35.9112 75.5051
      vertex 88.7616 -35.9112 28.8404
    endloop
  endfacet
  facet normal 0.947072 0.0914443 0.307722
    outer loop
      vertex 75.5051 13.8325 54.8577
      vertex 88.7616 -35.9112 28.8404
      vertex 93.3294 13.8325 -3.247e-06
    endloop
  endfacet
  facet normal 0.99581 -0.091442 0
    outer loop
      vertex 93.3294 13.8325 -3.247e-06
      vertex 88.7616 -35.9112 28.8404
      vertex 88.7616 -35.9112 -28.8404
    endloop
  endfacet
  facet normal 0.947072 0.0914443 -0.307722
    outer loop
      vertex 93.3294 13.8325 -3.247e-06
      vertex 88.7616 -35.9112 -28.8404
      vertex 75.5051 13.8325 -54.8577
    endloop
  endfacet
  facet normal 0.805627 -0.0914431 -0.585323
    outer loop
      vertex 75.5051 13.8325 -54.8577
      vertex 88.7616 -35.9112 -28.8404
      vertex 54.8577 -35.9112 -75.5051
    endloop
  endfacet
  facet normal 0.585323 0.0914431 -0.805627
    outer loop
      vertex 75.5051 13.8325 -54.8577
      vertex 54.8577 -35.9112 -75.5051
      vertex 28.8404 13.8325 -88.7616
    endloop
  endfacet
  facet normal 0.307721 -0.0914443 -0.947072
    outer loop
      vertex 28.8404 13.8325 -88.7616
      vertex 54.8577 -35.9112 -75.5051
      vertex -9.62e-06 -35.9112 -93.3294
    endloop
  endfacet
  facet normal 1.58531e-07 0.0914419 -0.99581
    outer loop
      vertex 28.8404 13.8325 -88.7616
      vertex -9.62e-06 -35.9112 -93.3294
      vertex -28.8404 13.8326 -88.7616
    endloop
  endfacet
  facet normal -0.307722 -0.0914441 -0.947072
    outer loop
      vertex -28.8404 13.8326 -88.7616
      vertex -9.62e-06 -35.9112 -93.3294
      vertex -54.8577 -35.9112 -75.5051
    endloop
  endfacet
  facet normal 0 1 0
    outer loop
      vertex 46.6647 44.1572 15.1623
      vertex -46.6647 44.1572 15.1623
      vertex 2.1769e-05 44.1572 49.0662
    endloop
  endfacet
  facet normal 0 1 0
    outer loop
      vertex 46.6647 44.1572 15.1623
      vertex -28.8404 44.1572 -39.6954
      vertex -46.6647 44.1572 15.1623
    endloop
  endfacet
  facet normal 0 1 0
    outer loop
      vertex -28.8404 44.1572 -39.6954
      vertex 46.6647 44.1572 15.1623
      vertex 28.8404 44.1572 -39.6954
    endloop
  endfacet
  facet normal 0.500002 0.85065 -0.16246
    outer loop
      vertex 93.3294 13.8325 -3.247e-06
      vertex 28.8404 44.1572 -39.6954
      vertex 46.6647 44.1572 15.1623
    endloop
  endfacet
  facet normal 0.500002 0.85065 -0.16246
    outer loop
      vertex 28.8404 44.1572 -39.6954
      vertex 93.3294 13.8325 -3.247e-06
      vertex 75.5051 13.8325 -54.8577
    endloop
  endfacet
  facet normal 0.356823 0.794653 -0.491125
    outer loop
      vertex 28.8404 44.1572 -39.6954
      vertex 75.5051 13.8325 -54.8577
      vertex 28.8404 13.8325 -88.7616
    endloop
  endfacet
  facet normal 0 0.850651 -0.525731
    outer loop
      vertex 28.8404 44.1572 -39.6954
      vertex -28.8404 13.8326 -88.7616
      vertex -28.8404 44.1572 -39.6954
    endloop
  endfacet
  facet normal 1.47475e-06 0.85065 -0.525733
    outer loop
      vertex -28.8404 13.8326 -88.7616
      vertex 28.8404 44.1572 -39.6954
      vertex 28.8404 13.8325 -88.7616
    endloop
  endfacet
  facet normal -0.356821 0.794655 -0.491124
    outer loop
      vertex -28.8404 44.1572 -39.6954
      vertex -28.8404 13.8326 -88.7616
      vertex -75.5051 13.8327 -54.8577
    endloop
  endfacet
  facet normal -0.499999 0.850652 -0.162459
    outer loop
      vertex -28.8404 44.1572 -39.6954
      vertex -93.3295 13.8327 6.373e-06
      vertex -46.6647 44.1572 15.1623
    endloop
  endfacet
  facet normal -0.499999 0.850651 -0.16246
    outer loop
      vertex -93.3295 13.8327 6.373e-06
      vertex -28.8404 44.1572 -39.6954
      vertex -75.5051 13.8327 -54.8577
    endloop
  endfacet
  facet normal -0.577349 0.794656 0.187593
    outer loop
      vertex -46.6647 44.1572 15.1623
      vertex -93.3295 13.8327 6.373e-06
      vertex -75.5051 13.8327 54.8577
    endloop
  endfacet
  facet normal -0.309016 0.850652 0.425324
    outer loop
      vertex 2.1769e-05 44.1572 49.0662
      vertex -75.5051 13.8327 54.8577
      vertex -28.8404 13.8327 88.7616
    endloop
  endfacet
  facet normal -0.309016 0.850651 0.425325
    outer loop
      vertex -75.5051 13.8327 54.8577
      vertex 2.1769e-05 44.1572 49.0662
      vertex -46.6647 44.1572 15.1623
    endloop
  endfacet
  facet normal 1.37768e-06 0.794655 0.607062
    outer loop
      vertex 2.1769e-05 44.1572 49.0662
      vertex -28.8404 13.8327 88.7616
      vertex 28.8404 13.8326 88.7616
    endloop
  endfacet
  facet normal 0.309018 0.850651 0.425325
    outer loop
      vertex 75.5051 13.8325 54.8577
      vertex 2.1769e-05 44.1572 49.0662
      vertex 28.8404 13.8326 88.7616
    endloop
  endfacet
  facet normal 0.309018 0.85065 0.425326
    outer loop
      vertex 2.1769e-05 44.1572 49.0662
      vertex 75.5051 13.8325 54.8577
      vertex 46.6647 44.1572 15.1623
    endloop
  endfacet
  facet normal 0.577352 0.794653 0.187593
    outer loop
      vertex 46.6647 44.1572 15.1623
      vertex 75.5051 13.8325 54.8577
      vertex 93.3294 13.8325 -3.247e-06
    endloop
  endfacet
  facet normal -0.585323 0.0914428 -0.805627
    outer loop
      vertex -28.8404 13.8326 -88.7616
      vertex -54.8577 -35.9112 -75.5051
      vertex -75.5051 13.8327 -54.8577
    endloop
  endfacet
  facet normal -0.805627 -0.0914427 -0.585323
    outer loop
      vertex -54.8577 -35.9112 -75.5051
      vertex -88.7616 -35.9112 -28.8404
      vertex -75.5051 13.8327 -54.8577
    endloop
  endfacet
  facet normal -0.99581 -0.0914436 -0
    outer loop
      vertex -88.7616 -35.9112 28.8404
      vertex -93.3295 13.8327 6.373e-06
      vertex -88.7616 -35.9112 -28.8404
    endloop
  endfacet
  facet normal -0.947072 0.091443 -0.307723
    outer loop
      vertex -93.3295 13.8327 6.373e-06
      vertex -75.5051 13.8327 -54.8577
      vertex -88.7616 -35.9112 -28.8404
    endloop
  endfacet
  facet normal -0.947072 0.0914429 0.307723
    outer loop
      vertex -88.7616 -35.9112 28.8404
      vertex -75.5051 13.8327 54.8577
      vertex -93.3295 13.8327 6.373e-06
    endloop
  endfacet
  facet normal -0.805627 -0.0914427 0.585323
    outer loop
      vertex -75.5051 13.8327 54.8577
      vertex -88.7616 -35.9112 28.8404
      vertex -54.8577 -35.9112 75.5051
    endloop
  endfacet
  facet normal -0.585323 0.0914427 0.805627
    outer loop
      vertex -28.8404 13.8327 88.7616
      vertex -75.5051 13.8327 54.8577
      vertex -54.8577 -35.9112 75.5051
    endloop
  endfacet
  facet normal -0.307722 -0.0914439 0.947072
    outer loop
      vertex -0 -35.9112 93.3294
      vertex -28.8404 13.8327 88.7616
      vertex -54.8577 -35.9112 75.5051
    endloop
  endfacet
  facet normal 1.58531e-07 0.0914417 0.99581
    outer loop
      vertex 28.8404 13.8326 88.7616
      vertex -28.8404 13.8327 88.7616
      vertex -0 -35.9112 93.3294
    endloop
  endfacet
  facet normal 0.307722 -0.0914441 0.947072
    outer loop
      vertex 54.8577 -35.9112 75.5051
      vertex 28.8404 13.8326 88.7616
      vertex -0 -35.9112 93.3294
    endloop
  endfacet
endsolid OpenSCAD_Model
