<?xml version="1.0" encoding="UTF-8" standalone="no"?>
<!DOCTYPE svg PUBLIC "-//W3C//DTD SVG 1.1//EN"
 "http://www.w3.org/Graphics/SVG/1.1/DTD/svg11.dtd">
<!-- Generated by graphviz version 2.43.0 (0)
 -->
<!-- Title: triangle_circumcenter Pages: 1 -->
<svg width="679pt" height="142pt"
 viewBox="0.00 0.00 679.00 142.00" xmlns="http://www.w3.org/2000/svg" xmlns:xlink="http://www.w3.org/1999/xlink">
<g id="graph0" class="graph" transform="scale(1 1) rotate(0) translate(4 138)">
<title>triangle_circumcenter</title>
<polygon fill="white" stroke="transparent" points="-4,4 -4,-138 675,-138 675,4 -4,4"/>
<!-- Node1 -->
<g id="node1" class="node">
<title>Node1</title>
<g id="a_node1"><a xlink:title="Compute the coordinate of a triangle&#39;s circumcenter.">
<polygon fill="#bfbfbf" stroke="black" points="548,-57.5 548,-76.5 671,-76.5 671,-57.5 548,-57.5"/>
<text text-anchor="middle" x="609.5" y="-64.5" font-family="Helvetica,sans-Serif" font-size="10.00">triangle_circumcenter</text>
</a>
</g>
</g>
<!-- Node2 -->
<g id="node2" class="node">
<title>Node2</title>
<g id="a_node2"><a xlink:href="group__shapes__polygon.html#gac7e2c70b3428b729efd86a675df794e6" target="_top" xlink:title="A polygon triangle specified by three coordinate points with vertex rounding.">
<polygon fill="white" stroke="black" points="417,-57.5 417,-76.5 512,-76.5 512,-57.5 417,-57.5"/>
<text text-anchor="middle" x="464.5" y="-64.5" font-family="Helvetica,sans-Serif" font-size="10.00">pg_triangle_ppp</text>
</a>
</g>
</g>
<!-- Node1&#45;&gt;Node2 -->
<g id="edge1" class="edge">
<title>Node1&#45;&gt;Node2</title>
<path fill="none" stroke="midnightblue" d="M537.77,-67C529.14,-67 520.51,-67 512.35,-67"/>
<polygon fill="midnightblue" stroke="midnightblue" points="537.86,-70.5 547.86,-67 537.86,-63.5 537.86,-70.5"/>
</g>
<!-- Node3 -->
<g id="node3" class="node">
<title>Node3</title>
<g id="a_node3"><a xlink:href="group__shapes__polygon.html#gad85d14f73179499777da1e9297fbcae8" target="_top" xlink:title="A polygon triangle specified by angle&#45;angle&#45;size with vertex rounding.">
<polygon fill="white" stroke="black" points="287,-114.5 287,-133.5 381,-133.5 381,-114.5 287,-114.5"/>
<text text-anchor="middle" x="334" y="-121.5" font-family="Helvetica,sans-Serif" font-size="10.00">pg_triangle_aas</text>
</a>
</g>
</g>
<!-- Node2&#45;&gt;Node3 -->
<g id="edge2" class="edge">
<title>Node2&#45;&gt;Node3</title>
<path fill="none" stroke="midnightblue" d="M434.06,-80.91C418.37,-88.23 398.71,-97.27 381,-105 373.87,-108.11 366.07,-111.38 358.95,-114.32"/>
<polygon fill="midnightblue" stroke="midnightblue" points="435.69,-84.01 443.26,-76.6 432.72,-77.67 435.69,-84.01"/>
</g>
<!-- Node4 -->
<g id="node4" class="node">
<title>Node4</title>
<g id="a_node4"><a xlink:href="group__shapes__polygon.html#ga45e8a17aef3dd6755f833f25a8937cf7" target="_top" xlink:title="A polygon triangle specified by angle&#45;size&#45;angle with vertex rounding.">
<polygon fill="white" stroke="black" points="287,-76.5 287,-95.5 381,-95.5 381,-76.5 287,-76.5"/>
<text text-anchor="middle" x="334" y="-83.5" font-family="Helvetica,sans-Serif" font-size="10.00">pg_triangle_asa</text>
</a>
</g>
</g>
<!-- Node2&#45;&gt;Node4 -->
<g id="edge3" class="edge">
<title>Node2&#45;&gt;Node4</title>
<path fill="none" stroke="midnightblue" d="M406.78,-75.39C398.18,-76.66 389.41,-77.96 381.08,-79.19"/>
<polygon fill="midnightblue" stroke="midnightblue" points="407.36,-78.84 416.75,-73.91 406.34,-71.91 407.36,-78.84"/>
</g>
<!-- Node5 -->
<g id="node5" class="node">
<title>Node5</title>
<g id="a_node5"><a xlink:href="group__shapes__polygon.html#ga24be160074502dce7ff8a78361d4b074" target="_top" xlink:title="A polygon triangle specified by size&#45;angle&#45;size with vertex rounding.">
<polygon fill="white" stroke="black" points="287.5,-38.5 287.5,-57.5 380.5,-57.5 380.5,-38.5 287.5,-38.5"/>
<text text-anchor="middle" x="334" y="-45.5" font-family="Helvetica,sans-Serif" font-size="10.00">pg_triangle_sas</text>
</a>
</g>
</g>
<!-- Node2&#45;&gt;Node5 -->
<g id="edge4" class="edge">
<title>Node2&#45;&gt;Node5</title>
<path fill="none" stroke="midnightblue" d="M406.65,-58.59C397.95,-57.31 389.07,-55.99 380.65,-54.75"/>
<polygon fill="midnightblue" stroke="midnightblue" points="406.34,-62.09 416.75,-60.09 407.36,-55.16 406.34,-62.09"/>
</g>
<!-- Node10 -->
<g id="node10" class="node">
<title>Node10</title>
<g id="a_node10"><a xlink:href="group__shapes__polygon.html#gab9843df753e0537b490ac67cec6e31a9" target="_top" xlink:title="A polygon triangle specified by three side lengths with vertex rounding.">
<polygon fill="white" stroke="black" points="288,-0.5 288,-19.5 380,-19.5 380,-0.5 288,-0.5"/>
<text text-anchor="middle" x="334" y="-7.5" font-family="Helvetica,sans-Serif" font-size="10.00">pg_triangle_sss</text>
</a>
</g>
</g>
<!-- Node2&#45;&gt;Node10 -->
<g id="edge10" class="edge">
<title>Node2&#45;&gt;Node10</title>
<path fill="none" stroke="midnightblue" d="M434.06,-53.09C418.37,-45.77 398.71,-36.73 381,-29 373.87,-25.89 366.07,-22.62 358.95,-19.68"/>
<polygon fill="midnightblue" stroke="midnightblue" points="432.72,-56.33 443.26,-57.4 435.69,-49.99 432.72,-56.33"/>
</g>
<!-- Node6 -->
<g id="node6" class="node">
<title>Node6</title>
<g id="a_node6"><a xlink:href="group__parts__3d__enclosure__mounts.html#ga0cbac43259ec43fff7785057277bcef3" target="_top" xlink:title="A screw mount post with screw bore and optional fins.">
<polygon fill="white" stroke="black" points="134.5,-76.5 134.5,-95.5 242.5,-95.5 242.5,-76.5 134.5,-76.5"/>
<text text-anchor="middle" x="188.5" y="-83.5" font-family="Helvetica,sans-Serif" font-size="10.00">mount_screw_post</text>
</a>
</g>
</g>
<!-- Node5&#45;&gt;Node6 -->
<g id="edge5" class="edge">
<title>Node5&#45;&gt;Node6</title>
<path fill="none" stroke="midnightblue" d="M287.03,-60.17C267.18,-65.43 244.31,-71.49 225.7,-76.41"/>
<polygon fill="midnightblue" stroke="midnightblue" points="288.02,-63.53 296.79,-57.59 286.23,-56.77 288.02,-63.53"/>
</g>
<!-- Node7 -->
<g id="node7" class="node">
<title>Node7</title>
<g id="a_node7"><a xlink:href="group__parts__3d__enclosure__mounts.html#gae1cc60f3ff242fb07c5a50d34be8c051" target="_top" xlink:title="A mount tab with screw hole and support brace.">
<polygon fill="white" stroke="black" points="137,-38.5 137,-57.5 240,-57.5 240,-38.5 137,-38.5"/>
<text text-anchor="middle" x="188.5" y="-45.5" font-family="Helvetica,sans-Serif" font-size="10.00">mount_screw_tab</text>
</a>
</g>
</g>
<!-- Node5&#45;&gt;Node7 -->
<g id="edge6" class="edge">
<title>Node5&#45;&gt;Node7</title>
<path fill="none" stroke="midnightblue" d="M277.13,-48C264.93,-48 252.07,-48 240.09,-48"/>
<polygon fill="midnightblue" stroke="midnightblue" points="277.2,-51.5 287.2,-48 277.2,-44.5 277.2,-51.5"/>
</g>
<!-- Node9 -->
<g id="node9" class="node">
<title>Node9</title>
<g id="a_node9"><a xlink:href="group__parts__3d__enclosure__project__box__rectangle.html#ga6a5d093d732e65556c46252220f2c4b6" target="_top" xlink:title="A rectangular box maker for project boxes, enclosures and housings.">
<polygon fill="white" stroke="black" points="126,-0.5 126,-19.5 251,-19.5 251,-0.5 126,-0.5"/>
<text text-anchor="middle" x="188.5" y="-7.5" font-family="Helvetica,sans-Serif" font-size="10.00">project_box_rectangle</text>
</a>
</g>
</g>
<!-- Node5&#45;&gt;Node9 -->
<g id="edge8" class="edge">
<title>Node5&#45;&gt;Node9</title>
<path fill="none" stroke="midnightblue" d="M287.03,-35.83C267.18,-30.57 244.31,-24.51 225.7,-19.59"/>
<polygon fill="midnightblue" stroke="midnightblue" points="286.23,-39.23 296.79,-38.41 288.02,-32.47 286.23,-39.23"/>
</g>
<!-- Node8 -->
<g id="node8" class="node">
<title>Node8</title>
<g id="a_node8"><a xlink:href="group__parts__3d__enclosure__power__strip.html#ga191779dedf39e4fd769a8dc96b0f8c9e" target="_top" xlink:title="A power strip generator for single gang electrical receptacles.">
<polygon fill="white" stroke="black" points="0,-19.5 0,-38.5 90,-38.5 90,-19.5 0,-19.5"/>
<text text-anchor="middle" x="45" y="-26.5" font-family="Helvetica,sans-Serif" font-size="10.00">power_strip_sg</text>
</a>
</g>
</g>
<!-- Node7&#45;&gt;Node8 -->
<g id="edge7" class="edge">
<title>Node7&#45;&gt;Node8</title>
<path fill="none" stroke="midnightblue" d="M126.66,-39.83C114.42,-38.19 101.78,-36.49 90.24,-34.94"/>
<polygon fill="midnightblue" stroke="midnightblue" points="126.44,-43.33 136.81,-41.19 127.37,-36.39 126.44,-43.33"/>
</g>
<!-- Node9&#45;&gt;Node8 -->
<g id="edge9" class="edge">
<title>Node9&#45;&gt;Node8</title>
<path fill="none" stroke="midnightblue" d="M115.9,-19.61C107.07,-20.8 98.26,-21.98 90.01,-23.09"/>
<polygon fill="midnightblue" stroke="midnightblue" points="116.4,-23.08 125.85,-18.28 115.47,-16.14 116.4,-23.08"/>
</g>
</g>
</svg>
