<?xml version="1.0" encoding="UTF-8" standalone="no"?>
<!DOCTYPE svg PUBLIC "-//W3C//DTD SVG 1.1//EN"
 "http://www.w3.org/Graphics/SVG/1.1/DTD/svg11.dtd">
<!-- Generated by graphviz version 2.43.0 (0)
 -->
<!-- Title: pg_triangle_sss Pages: 1 -->
<svg width="423pt" height="180pt"
 viewBox="0.00 0.00 423.00 180.00" xmlns="http://www.w3.org/2000/svg" xmlns:xlink="http://www.w3.org/1999/xlink">
<g id="graph0" class="graph" transform="scale(1 1) rotate(0) translate(4 176)">
<title>pg_triangle_sss</title>
<polygon fill="white" stroke="transparent" points="-4,4 -4,-176 419,-176 419,4 -4,4"/>
<!-- Node1 -->
<g id="node1" class="node">
<title>Node1</title>
<g id="a_node1"><a xlink:title="A polygon triangle specified by three side lengths with vertex rounding.">
<polygon fill="#bfbfbf" stroke="black" points="0,-57.5 0,-76.5 92,-76.5 92,-57.5 0,-57.5"/>
<text text-anchor="middle" x="46" y="-64.5" font-family="Helvetica,sans-Serif" font-size="10.00">pg_triangle_sss</text>
</a>
</g>
</g>
<!-- Node2 -->
<g id="node2" class="node">
<title>Node2</title>
<g id="a_node2"><a xlink:href="group__shapes__polygon.html#gac7e2c70b3428b729efd86a675df794e6" target="_top" xlink:title="A polygon triangle specified by three coordinate points with vertex rounding.">
<polygon fill="white" stroke="black" points="136,-76.5 136,-95.5 231,-95.5 231,-76.5 136,-76.5"/>
<text text-anchor="middle" x="183.5" y="-83.5" font-family="Helvetica,sans-Serif" font-size="10.00">pg_triangle_ppp</text>
</a>
</g>
</g>
<!-- Node1&#45;&gt;Node2 -->
<g id="edge1" class="edge">
<title>Node1&#45;&gt;Node2</title>
<path fill="none" stroke="midnightblue" d="M92.12,-73.33C102.85,-74.83 114.43,-76.46 125.61,-78.02"/>
<polygon fill="midnightblue" stroke="midnightblue" points="125.33,-81.52 135.72,-79.44 126.31,-74.59 125.33,-81.52"/>
</g>
<!-- Node8 -->
<g id="node8" class="node">
<title>Node8</title>
<g id="a_node8"><a xlink:href="group__math__triangle.html#gaab9b812d15418fd05c9d93f3bfcc1989" target="_top" xlink:title="Compute a set of vertex coordinates for a triangle given its side lengths in 2D.">
<polygon fill="white" stroke="black" points="128,-38.5 128,-57.5 239,-57.5 239,-38.5 128,-38.5"/>
<text text-anchor="middle" x="183.5" y="-45.5" font-family="Helvetica,sans-Serif" font-size="10.00">triangle2d_sss2ppp</text>
</a>
</g>
</g>
<!-- Node1&#45;&gt;Node8 -->
<g id="edge7" class="edge">
<title>Node1&#45;&gt;Node8</title>
<path fill="none" stroke="midnightblue" d="M92.12,-60.67C100.31,-59.52 109,-58.31 117.62,-57.1"/>
<polygon fill="midnightblue" stroke="midnightblue" points="118.27,-60.54 127.69,-55.69 117.3,-53.61 118.27,-60.54"/>
</g>
<!-- Node3 -->
<g id="node3" class="node">
<title>Node3</title>
<g id="a_node3"><a xlink:href="group__math__polygon.html#ga7a0eff64929a142fc507615f83e3bd58" target="_top" xlink:title="Compute coordinates that round all of the vertices between each adjacent edges in 2D.">
<polygon fill="white" stroke="black" points="275,-152.5 275,-171.5 415,-171.5 415,-152.5 275,-152.5"/>
<text text-anchor="middle" x="345" y="-159.5" font-family="Helvetica,sans-Serif" font-size="10.00">polygon_round_eve_all_p</text>
</a>
</g>
</g>
<!-- Node2&#45;&gt;Node3 -->
<g id="edge2" class="edge">
<title>Node2&#45;&gt;Node3</title>
<path fill="none" stroke="midnightblue" d="M197.02,-95.57C213.89,-108.07 245.27,-129.89 275,-143 280.39,-145.38 286.15,-147.53 291.96,-149.45"/>
<polygon fill="midnightblue" stroke="midnightblue" points="291.13,-152.86 301.72,-152.47 293.2,-146.17 291.13,-152.86"/>
</g>
<!-- Node4 -->
<g id="node4" class="node">
<title>Node4</title>
<g id="a_node4"><a xlink:href="group__math__linear__algebra.html#gaeabe74699fd0a437bad9a1d442bfd111" target="_top" xlink:title="Translate all coordinates dimensions.">
<polygon fill="white" stroke="black" points="309.5,-114.5 309.5,-133.5 380.5,-133.5 380.5,-114.5 309.5,-114.5"/>
<text text-anchor="middle" x="345" y="-121.5" font-family="Helvetica,sans-Serif" font-size="10.00">translate_p</text>
</a>
</g>
</g>
<!-- Node2&#45;&gt;Node4 -->
<g id="edge3" class="edge">
<title>Node2&#45;&gt;Node4</title>
<path fill="none" stroke="midnightblue" d="M224.75,-95.59C247.5,-101.01 275.99,-107.8 299.41,-113.38"/>
<polygon fill="midnightblue" stroke="midnightblue" points="298.91,-116.85 309.45,-115.77 300.53,-110.05 298.91,-116.85"/>
</g>
<!-- Node5 -->
<g id="node5" class="node">
<title>Node5</title>
<g id="a_node5"><a xlink:href="group__math__triangle.html#gac0d11ca2c5035a9e53c1144f3774b0b4" target="_top" xlink:title="Compute the center coordinate of a triangle&#39;s incircle in 2D.">
<polygon fill="white" stroke="black" points="289.5,-76.5 289.5,-95.5 400.5,-95.5 400.5,-76.5 289.5,-76.5"/>
<text text-anchor="middle" x="345" y="-83.5" font-family="Helvetica,sans-Serif" font-size="10.00">triangle2d_incenter</text>
</a>
</g>
</g>
<!-- Node2&#45;&gt;Node5 -->
<g id="edge4" class="edge">
<title>Node2&#45;&gt;Node5</title>
<path fill="none" stroke="midnightblue" d="M231.06,-86C246.07,-86 262.99,-86 279.08,-86"/>
<polygon fill="midnightblue" stroke="midnightblue" points="279.5,-89.5 289.5,-86 279.5,-82.5 279.5,-89.5"/>
</g>
<!-- Node6 -->
<g id="node6" class="node">
<title>Node6</title>
<g id="a_node6"><a xlink:href="group__math__triangle.html#ga51e8d8c2004f859d216790f7966b7dfd" target="_top" xlink:title="Compute the centroid of a triangle.">
<polygon fill="white" stroke="black" points="295.5,-38.5 295.5,-57.5 394.5,-57.5 394.5,-38.5 295.5,-38.5"/>
<text text-anchor="middle" x="345" y="-45.5" font-family="Helvetica,sans-Serif" font-size="10.00">triangle_centroid</text>
</a>
</g>
</g>
<!-- Node2&#45;&gt;Node6 -->
<g id="edge5" class="edge">
<title>Node2&#45;&gt;Node6</title>
<path fill="none" stroke="midnightblue" d="M224.75,-76.41C245.8,-71.4 271.76,-65.21 294.07,-59.89"/>
<polygon fill="midnightblue" stroke="midnightblue" points="295.12,-63.24 304.04,-57.52 293.5,-56.43 295.12,-63.24"/>
</g>
<!-- Node7 -->
<g id="node7" class="node">
<title>Node7</title>
<g id="a_node7"><a xlink:href="group__math__triangle.html#ga5cf2801b07faec68a51ac3cd901bc4b0" target="_top" xlink:title="Compute the coordinate of a triangle&#39;s circumcenter.">
<polygon fill="white" stroke="black" points="283.5,-0.5 283.5,-19.5 406.5,-19.5 406.5,-0.5 283.5,-0.5"/>
<text text-anchor="middle" x="345" y="-7.5" font-family="Helvetica,sans-Serif" font-size="10.00">triangle_circumcenter</text>
</a>
</g>
</g>
<!-- Node2&#45;&gt;Node7 -->
<g id="edge6" class="edge">
<title>Node2&#45;&gt;Node7</title>
<path fill="none" stroke="midnightblue" d="M219.96,-76.41C226.56,-73.86 233.19,-70.75 239,-67 258.54,-54.37 255.05,-40.97 275,-29 278.6,-26.84 282.44,-24.92 286.41,-23.22"/>
<polygon fill="midnightblue" stroke="midnightblue" points="287.75,-26.45 295.83,-19.61 285.24,-19.92 287.75,-26.45"/>
</g>
</g>
</svg>
