<?xml version="1.0" encoding="UTF-8" standalone="no"?>
<!DOCTYPE svg PUBLIC "-//W3C//DTD SVG 1.1//EN"
 "http://www.w3.org/Graphics/SVG/1.1/DTD/svg11.dtd">
<!-- Generated by graphviz version 2.43.0 (0)
 -->
<!-- Title: select_ci Pages: 1 -->
<svg width="782pt" height="579pt"
 viewBox="0.00 0.00 782.00 579.00" xmlns="http://www.w3.org/2000/svg" xmlns:xlink="http://www.w3.org/1999/xlink">
<g id="graph0" class="graph" transform="scale(1 1) rotate(0) translate(4 575)">
<title>select_ci</title>
<polygon fill="white" stroke="transparent" points="-4,4 -4,-575 778,-575 778,4 -4,4"/>
<!-- Node1 -->
<g id="node1" class="node">
<title>Node1</title>
<g id="a_node1"><a xlink:title="Select specified element from list or return a default.">
<polygon fill="#bfbfbf" stroke="black" points="715,-247.5 715,-266.5 774,-266.5 774,-247.5 715,-247.5"/>
<text text-anchor="middle" x="744.5" y="-254.5" font-family="Helvetica,sans-Serif" font-size="10.00">select_ci</text>
</a>
</g>
</g>
<!-- Node2 -->
<g id="node2" class="node">
<title>Node2</title>
<g id="a_node2"><a xlink:href="group__tools__align.html#ga3f7b93a4934de605058ca07f0c22d688" target="_top" xlink:title="Align an objects Cartesian axis to reference line or vector.">
<polygon fill="white" stroke="black" points="421.5,-494.5 421.5,-513.5 476.5,-513.5 476.5,-494.5 421.5,-494.5"/>
<text text-anchor="middle" x="449" y="-501.5" font-family="Helvetica,sans-Serif" font-size="10.00">align_al</text>
</a>
</g>
</g>
<!-- Node1&#45;&gt;Node2 -->
<g id="edge1" class="edge">
<title>Node1&#45;&gt;Node2</title>
<path fill="none" stroke="midnightblue" d="M740.81,-276.67C733.53,-326.94 711.7,-458.07 679,-485 620.64,-533.06 523.2,-520.38 476.52,-510.55"/>
<polygon fill="midnightblue" stroke="midnightblue" points="744.29,-277.12 742.22,-266.73 737.35,-276.14 744.29,-277.12"/>
</g>
<!-- Node3 -->
<g id="node3" class="node">
<title>Node3</title>
<g id="a_node3"><a xlink:href="group__tools__align.html#ga7a21147611850c6cae7e95d23417099b" target="_top" xlink:title="Align a line or vector to a reference line or vector.">
<polygon fill="white" stroke="black" points="583,-456.5 583,-475.5 635,-475.5 635,-456.5 583,-456.5"/>
<text text-anchor="middle" x="609" y="-463.5" font-family="Helvetica,sans-Serif" font-size="10.00">align_ll</text>
</a>
</g>
</g>
<!-- Node1&#45;&gt;Node3 -->
<g id="edge2" class="edge">
<title>Node1&#45;&gt;Node3</title>
<path fill="none" stroke="midnightblue" d="M742.14,-276.65C738.52,-313.99 725.44,-395.59 679,-442 667.34,-453.65 649.73,-459.66 635.22,-462.75"/>
<polygon fill="midnightblue" stroke="midnightblue" points="745.64,-276.83 742.99,-266.57 738.66,-276.24 745.64,-276.83"/>
</g>
<!-- Node17 -->
<g id="node17" class="node">
<title>Node17</title>
<g id="a_node17"><a xlink:href="group__parts__3d__fastener__catch__latch.html#ga26a9933aa6d33599daab1be8d632c430" target="_top" xlink:title="A catch latch generator with configurable profile.">
<polygon fill="white" stroke="black" points="413,-380.5 413,-399.5 485,-399.5 485,-380.5 413,-380.5"/>
<text text-anchor="middle" x="449" y="-387.5" font-family="Helvetica,sans-Serif" font-size="10.00">catch_latch</text>
</a>
</g>
</g>
<!-- Node1&#45;&gt;Node17 -->
<g id="edge20" class="edge">
<title>Node1&#45;&gt;Node17</title>
<path fill="none" stroke="midnightblue" d="M735.59,-276.05C725.67,-297.43 706.55,-331.41 679,-349 618.92,-387.36 532.83,-392.32 485.15,-391.69"/>
<polygon fill="midnightblue" stroke="midnightblue" points="738.88,-277.26 739.72,-266.69 732.48,-274.43 738.88,-277.26"/>
</g>
<!-- Node18 -->
<g id="node18" class="node">
<title>Node18</title>
<g id="a_node18"><a xlink:href="group__parts__3d__fastener__hinges.html#ga1ffc82e0bbac466d1dc4fbe6c214b765" target="_top" xlink:title="A print&#45;in&#45;place bi&#45;fold hinge generator.">
<polygon fill="white" stroke="black" points="266.5,-361.5 266.5,-380.5 325.5,-380.5 325.5,-361.5 266.5,-361.5"/>
<text text-anchor="middle" x="296" y="-368.5" font-family="Helvetica,sans-Serif" font-size="10.00">hinge_bf</text>
</a>
</g>
</g>
<!-- Node1&#45;&gt;Node18 -->
<g id="edge21" class="edge">
<title>Node1&#45;&gt;Node18</title>
<path fill="none" stroke="midnightblue" d="M739.44,-276.44C732.42,-304.84 715.14,-357.08 679,-383 576,-456.87 519.59,-432.31 395,-409 366.12,-403.6 334.81,-389.96 315.54,-380.58"/>
<polygon fill="midnightblue" stroke="midnightblue" points="742.89,-277.04 741.71,-266.51 736.07,-275.48 742.89,-277.04"/>
</g>
<!-- Node19 -->
<g id="node19" class="node">
<title>Node19</title>
<g id="a_node19"><a xlink:href="group__parts__3d__fastener__hinges.html#ga7e350f2c55116094108b99dd8103fc04" target="_top" xlink:title="A print&#45;in&#45;place single&#45;fold hinge generator.">
<polygon fill="white" stroke="black" points="420,-342.5 420,-361.5 478,-361.5 478,-342.5 420,-342.5"/>
<text text-anchor="middle" x="449" y="-349.5" font-family="Helvetica,sans-Serif" font-size="10.00">hinge_sf</text>
</a>
</g>
</g>
<!-- Node1&#45;&gt;Node19 -->
<g id="edge22" class="edge">
<title>Node1&#45;&gt;Node19</title>
<path fill="none" stroke="midnightblue" d="M730.03,-275.1C718.25,-289.49 699.8,-308.84 679,-319 612.41,-351.53 522.86,-354.31 478.03,-353.33"/>
<polygon fill="midnightblue" stroke="midnightblue" points="733.04,-276.93 736.46,-266.9 727.53,-272.61 733.04,-276.93"/>
</g>
<!-- Node20 -->
<g id="node20" class="node">
<title>Node20</title>
<g id="a_node20"><a xlink:href="group__models__3d__motion__bearing__linear__lmxuu.html#gaee2c61ec287975e6d54ade77e3c8010c" target="_top" xlink:title="Linear motion bearing model.">
<polygon fill="white" stroke="black" points="569,-114.5 569,-133.5 649,-133.5 649,-114.5 569,-114.5"/>
<text text-anchor="middle" x="609" y="-121.5" font-family="Helvetica,sans-Serif" font-size="10.00">linear_lmxuu</text>
</a>
</g>
</g>
<!-- Node1&#45;&gt;Node20 -->
<g id="edge24" class="edge">
<title>Node1&#45;&gt;Node20</title>
<path fill="none" stroke="midnightblue" d="M737.77,-237.72C729.19,-212.2 710.54,-167.59 679,-143 670.38,-136.28 659.53,-131.93 649.01,-129.12"/>
<polygon fill="midnightblue" stroke="midnightblue" points="734.47,-238.9 740.84,-247.37 741.14,-236.78 734.47,-238.9"/>
</g>
<!-- Node21 -->
<g id="node21" class="node">
<title>Node21</title>
<g id="a_node21"><a xlink:href="group__parts__3d__motion__bearing__linear__rod.html#ga48399d5e708b4894494c69b2d1e88e26" target="_top" xlink:title="Transform 2d or 3d shape into a linear rod ball or sled bearing.">
<polygon fill="white" stroke="black" points="539,-76.5 539,-95.5 679,-95.5 679,-76.5 539,-76.5"/>
<text text-anchor="middle" x="609" y="-83.5" font-family="Helvetica,sans-Serif" font-size="10.00">make_bearing_linear_rod</text>
</a>
</g>
</g>
<!-- Node1&#45;&gt;Node21 -->
<g id="edge25" class="edge">
<title>Node1&#45;&gt;Node21</title>
<path fill="none" stroke="midnightblue" d="M740.67,-237.03C735,-204.49 719.13,-140.13 679,-105 674.61,-101.15 669.5,-98.08 664.09,-95.62"/>
<polygon fill="midnightblue" stroke="midnightblue" points="737.25,-237.79 742.28,-247.12 744.16,-236.69 737.25,-237.79"/>
</g>
<!-- Node22 -->
<g id="node22" class="node">
<title>Node22</title>
<g id="a_node22"><a xlink:href="group__parts__3d__enclosure__mounts.html#ga1a26f176e04863a2bf335960a52b39a8" target="_top" xlink:title="A screw mount slot with optional cover envelope.">
<polygon fill="white" stroke="black" points="396.5,-304.5 396.5,-323.5 501.5,-323.5 501.5,-304.5 396.5,-304.5"/>
<text text-anchor="middle" x="449" y="-311.5" font-family="Helvetica,sans-Serif" font-size="10.00">mount_screw_slot</text>
</a>
</g>
</g>
<!-- Node1&#45;&gt;Node22 -->
<g id="edge26" class="edge">
<title>Node1&#45;&gt;Node22</title>
<path fill="none" stroke="midnightblue" d="M722.54,-272.63C710.45,-280.77 694.6,-290.05 679,-295 620.26,-313.66 549.01,-316.72 501.75,-316.21"/>
<polygon fill="midnightblue" stroke="midnightblue" points="724.8,-275.32 730.98,-266.71 720.79,-269.58 724.8,-275.32"/>
</g>
<!-- Node25 -->
<g id="node25" class="node">
<title>Node25</title>
<g id="a_node25"><a xlink:href="group__models__3d__misc__omdl__logo.html#gab176f64dad7e83d4fb056be44b71f630" target="_top" xlink:title="Standard omdl logo.">
<polygon fill="white" stroke="black" points="415,-114.5 415,-133.5 483,-133.5 483,-114.5 415,-114.5"/>
<text text-anchor="middle" x="449" y="-121.5" font-family="Helvetica,sans-Serif" font-size="10.00">omdl_logo</text>
</a>
</g>
</g>
<!-- Node1&#45;&gt;Node25 -->
<g id="edge29" class="edge">
<title>Node1&#45;&gt;Node25</title>
<path fill="none" stroke="midnightblue" d="M721.21,-241.86C709.13,-234.18 693.7,-225.19 679,-219 619.58,-193.97 594.34,-214.08 539,-181 519.03,-169.06 522.48,-155.72 503,-143 496.94,-139.05 489.96,-135.79 483.09,-133.16"/>
<polygon fill="midnightblue" stroke="midnightblue" points="719.44,-244.88 729.73,-247.41 723.26,-239.02 719.44,-244.88"/>
</g>
<!-- Node26 -->
<g id="node26" class="node">
<title>Node26</title>
<g id="a_node26"><a xlink:href="group__parts__3d__computer__pci__bracket.html#gaf56631cf80d8e5f0b77736b17b94ecd9" target="_top" xlink:title="PCI slot cover and adapter card bracket generator.">
<polygon fill="white" stroke="black" points="573,-38.5 573,-57.5 645,-57.5 645,-38.5 573,-38.5"/>
<text text-anchor="middle" x="609" y="-45.5" font-family="Helvetica,sans-Serif" font-size="10.00">pci_bracket</text>
</a>
</g>
</g>
<!-- Node1&#45;&gt;Node26 -->
<g id="edge31" class="edge">
<title>Node1&#45;&gt;Node26</title>
<path fill="none" stroke="midnightblue" d="M742.63,-237.09C739.85,-198.52 728.15,-113.35 679,-67 669.87,-58.39 657.2,-53.62 645.21,-50.99"/>
<polygon fill="midnightblue" stroke="midnightblue" points="739.16,-237.69 743.24,-247.47 746.15,-237.28 739.16,-237.69"/>
</g>
<!-- Node27 -->
<g id="node27" class="node">
<title>Node27</title>
<g id="a_node27"><a xlink:href="group__parts__3d__enclosure__project__box__rectangle.html#ga6a5d093d732e65556c46252220f2c4b6" target="_top" xlink:title="A rectangular box maker for project boxes, enclosures and housings.">
<polygon fill="white" stroke="black" points="546.5,-152.5 546.5,-171.5 671.5,-171.5 671.5,-152.5 546.5,-152.5"/>
<text text-anchor="middle" x="609" y="-159.5" font-family="Helvetica,sans-Serif" font-size="10.00">project_box_rectangle</text>
</a>
</g>
</g>
<!-- Node1&#45;&gt;Node27 -->
<g id="edge32" class="edge">
<title>Node1&#45;&gt;Node27</title>
<path fill="none" stroke="midnightblue" d="M731.09,-238.84C719.34,-222.91 700.37,-200.12 679,-186 669.79,-179.92 658.88,-175.2 648.47,-171.61"/>
<polygon fill="midnightblue" stroke="midnightblue" points="728.48,-241.21 737.13,-247.32 734.18,-237.15 728.48,-241.21"/>
</g>
<!-- Node28 -->
<g id="node28" class="node">
<title>Node28</title>
<g id="a_node28"><a xlink:href="group__models__3d__motion__bearing__radial__ball.html#ga3e39cd35457c1ceb70a6bb0e55022ee1" target="_top" xlink:title="Radial ball bearing model.">
<polygon fill="white" stroke="black" points="575,-0.5 575,-19.5 643,-19.5 643,-0.5 575,-0.5"/>
<text text-anchor="middle" x="609" y="-7.5" font-family="Helvetica,sans-Serif" font-size="10.00">radial_ball</text>
</a>
</g>
</g>
<!-- Node1&#45;&gt;Node28 -->
<g id="edge34" class="edge">
<title>Node1&#45;&gt;Node28</title>
<path fill="none" stroke="midnightblue" d="M743.97,-237.12C743.88,-193.12 737.27,-86.86 679,-29 669.57,-19.63 655.96,-14.78 643.33,-12.3"/>
<polygon fill="midnightblue" stroke="midnightblue" points="740.47,-237.08 743.88,-247.12 747.47,-237.15 740.47,-237.08"/>
</g>
<!-- Node29 -->
<g id="node29" class="node">
<title>Node29</title>
<g id="a_node29"><a xlink:href="group__models__3d__fastener__screws.html#ga57dcfe1241e15eaa58ccd08891504a93" target="_top" xlink:title="Flat and beveled&#45;head fastener bore with nut, nut slot, and bore tolerance.">
<polygon fill="white" stroke="black" points="573,-266.5 573,-285.5 645,-285.5 645,-266.5 573,-266.5"/>
<text text-anchor="middle" x="609" y="-273.5" font-family="Helvetica,sans-Serif" font-size="10.00">screw_bore</text>
</a>
</g>
</g>
<!-- Node1&#45;&gt;Node29 -->
<g id="edge35" class="edge">
<title>Node1&#45;&gt;Node29</title>
<path fill="none" stroke="midnightblue" d="M704.84,-262.5C686.03,-265.18 663.58,-268.37 645.25,-270.98"/>
<polygon fill="midnightblue" stroke="midnightblue" points="705.45,-265.95 714.86,-261.08 704.47,-259.02 705.45,-265.95"/>
</g>
<!-- Node33 -->
<g id="node33" class="node">
<title>Node33</title>
<g id="a_node33"><a xlink:href="group__models__3d__fastener__screws.html#gaad990187680f7ac947e555483d854bfa" target="_top" xlink:title="Gapped fastener bore with engagement cylinders for self&#45;forming threads.">
<polygon fill="white" stroke="black" points="564,-228.5 564,-247.5 654,-247.5 654,-228.5 564,-228.5"/>
<text text-anchor="middle" x="609" y="-235.5" font-family="Helvetica,sans-Serif" font-size="10.00">screw_bore_tsf</text>
</a>
</g>
</g>
<!-- Node1&#45;&gt;Node33 -->
<g id="edge45" class="edge">
<title>Node1&#45;&gt;Node33</title>
<path fill="none" stroke="midnightblue" d="M704.85,-251.5C688.97,-249.24 670.5,-246.61 654.09,-244.28"/>
<polygon fill="midnightblue" stroke="midnightblue" points="704.47,-254.98 714.86,-252.92 705.45,-248.05 704.47,-254.98"/>
</g>
<!-- Node3&#45;&gt;Node2 -->
<g id="edge3" class="edge">
<title>Node3&#45;&gt;Node2</title>
<path fill="none" stroke="midnightblue" d="M573.22,-474.36C544.16,-481.35 503.33,-491.17 476.77,-497.56"/>
<polygon fill="midnightblue" stroke="midnightblue" points="574.06,-477.76 582.96,-472.02 572.42,-470.96 574.06,-477.76"/>
</g>
<!-- Node4 -->
<g id="node4" class="node">
<title>Node4</title>
<g id="a_node4"><a xlink:href="group__tools__drafting__primitive.html#ga4e7c5fa02dbc244702042067553a9225" target="_top" xlink:title="Draft a simple line from an initial to a terminal point.">
<polygon fill="white" stroke="black" points="409,-456.5 409,-475.5 489,-475.5 489,-456.5 409,-456.5"/>
<text text-anchor="middle" x="449" y="-463.5" font-family="Helvetica,sans-Serif" font-size="10.00">draft_line_pp</text>
</a>
</g>
</g>
<!-- Node3&#45;&gt;Node4 -->
<g id="edge4" class="edge">
<title>Node3&#45;&gt;Node4</title>
<path fill="none" stroke="midnightblue" d="M572.89,-466C548.06,-466 514.76,-466 489.08,-466"/>
<polygon fill="midnightblue" stroke="midnightblue" points="572.96,-469.5 582.96,-466 572.96,-462.5 572.96,-469.5"/>
</g>
<!-- Node5 -->
<g id="node5" class="node">
<title>Node5</title>
<g id="a_node5"><a xlink:href="group__tools__drafting__primitive.html#gaeb2a388d77f8e435b02c4235e7791eda" target="_top" xlink:title="Draft an arc with configurable style and optional arrowheads.">
<polygon fill="white" stroke="black" points="136.5,-494.5 136.5,-513.5 195.5,-513.5 195.5,-494.5 136.5,-494.5"/>
<text text-anchor="middle" x="166" y="-501.5" font-family="Helvetica,sans-Serif" font-size="10.00">draft_arc</text>
</a>
</g>
</g>
<!-- Node4&#45;&gt;Node5 -->
<g id="edge5" class="edge">
<title>Node4&#45;&gt;Node5</title>
<path fill="none" stroke="midnightblue" d="M398.68,-477.55C385.82,-480.29 371.93,-482.99 359,-485 301.41,-493.97 233.41,-499.52 195.75,-502.16"/>
<polygon fill="midnightblue" stroke="midnightblue" points="399.71,-480.91 408.74,-475.37 398.23,-474.07 399.71,-480.91"/>
</g>
<!-- Node7 -->
<g id="node7" class="node">
<title>Node7</title>
<g id="a_node7"><a xlink:href="group__tools__drafting__primitive.html#ga6f12ccd4c9de0a8ab887184911f39c8f" target="_top" xlink:title="Draft an arrowhead at the terminal point of a line.">
<polygon fill="white" stroke="black" points="260,-456.5 260,-475.5 332,-475.5 332,-456.5 260,-456.5"/>
<text text-anchor="middle" x="296" y="-463.5" font-family="Helvetica,sans-Serif" font-size="10.00">draft_arrow</text>
</a>
</g>
</g>
<!-- Node4&#45;&gt;Node7 -->
<g id="edge7" class="edge">
<title>Node4&#45;&gt;Node7</title>
<path fill="none" stroke="midnightblue" d="M398.69,-466C376.99,-466 352,-466 332.22,-466"/>
<polygon fill="midnightblue" stroke="midnightblue" points="398.72,-469.5 408.72,-466 398.72,-462.5 398.72,-469.5"/>
</g>
<!-- Node8 -->
<g id="node8" class="node">
<title>Node8</title>
<g id="a_node8"><a xlink:href="group__tools__drafting__primitive.html#ga060910368142d6371cf4f3f30be7561e" target="_top" xlink:title="Draft a line with configurable style and optional arrowheads.">
<polygon fill="white" stroke="black" points="135,-418.5 135,-437.5 197,-437.5 197,-418.5 135,-418.5"/>
<text text-anchor="middle" x="166" y="-425.5" font-family="Helvetica,sans-Serif" font-size="10.00">draft_line</text>
</a>
</g>
</g>
<!-- Node4&#45;&gt;Node8 -->
<g id="edge19" class="edge">
<title>Node4&#45;&gt;Node8</title>
<path fill="none" stroke="midnightblue" d="M398.68,-454.45C385.82,-451.71 371.93,-449.01 359,-447 302.07,-438.14 234.97,-432.61 197.06,-429.93"/>
<polygon fill="midnightblue" stroke="midnightblue" points="398.23,-457.93 408.74,-456.63 399.71,-451.09 398.23,-457.93"/>
</g>
<!-- Node6 -->
<g id="node6" class="node">
<title>Node6</title>
<g id="a_node6"><a xlink:href="group__tools__drafting__dimension.html#ga6b8e17d22ac4a95d25a90be8a74c0689" target="_top" xlink:title="Construct a angular dimension arc.">
<polygon fill="white" stroke="black" points="2,-551.5 2,-570.5 97,-570.5 97,-551.5 2,-551.5"/>
<text text-anchor="middle" x="49.5" y="-558.5" font-family="Helvetica,sans-Serif" font-size="10.00">draft_dim_angle</text>
</a>
</g>
</g>
<!-- Node5&#45;&gt;Node6 -->
<g id="edge6" class="edge">
<title>Node5&#45;&gt;Node6</title>
<path fill="none" stroke="midnightblue" d="M141.12,-518.9C128.78,-526.3 113.34,-535.11 99,-542 91.99,-545.37 84.22,-548.62 76.98,-551.45"/>
<polygon fill="midnightblue" stroke="midnightblue" points="143.16,-521.76 149.88,-513.57 139.52,-515.78 143.16,-521.76"/>
</g>
<!-- Node7&#45;&gt;Node5 -->
<g id="edge8" class="edge">
<title>Node7&#45;&gt;Node5</title>
<path fill="none" stroke="midnightblue" d="M252.93,-478.49C234.21,-484.05 212.64,-490.45 195.8,-495.45"/>
<polygon fill="midnightblue" stroke="midnightblue" points="254.11,-481.79 262.7,-475.59 252.12,-475.08 254.11,-481.79"/>
</g>
<!-- Node7&#45;&gt;Node8 -->
<g id="edge9" class="edge">
<title>Node7&#45;&gt;Node8</title>
<path fill="none" stroke="midnightblue" d="M252.89,-453.5C234.66,-448.09 213.73,-441.87 197.09,-436.93"/>
<polygon fill="midnightblue" stroke="midnightblue" points="252.12,-456.92 262.7,-456.41 254.11,-450.21 252.12,-456.92"/>
</g>
<!-- Node8&#45;&gt;Node6 -->
<g id="edge11" class="edge">
<title>Node8&#45;&gt;Node6</title>
<path fill="none" stroke="midnightblue" d="M155.15,-446.53C138.82,-476.99 107.14,-535.01 99,-542 94.54,-545.83 89.22,-548.94 83.76,-551.45"/>
<polygon fill="midnightblue" stroke="midnightblue" points="158.24,-448.17 159.86,-437.7 152.06,-444.88 158.24,-448.17"/>
</g>
<!-- Node9 -->
<g id="node9" class="node">
<title>Node9</title>
<g id="a_node9"><a xlink:href="group__tools__drafting__operation.html#ga4e20419a6d4623f21c05179fc8b6df95" target="_top" xlink:title="Construct drafting sheet axes.">
<polygon fill="white" stroke="black" points="16,-323.5 16,-342.5 83,-342.5 83,-323.5 16,-323.5"/>
<text text-anchor="middle" x="49.5" y="-330.5" font-family="Helvetica,sans-Serif" font-size="10.00">draft_axes</text>
</a>
</g>
</g>
<!-- Node8&#45;&gt;Node9 -->
<g id="edge10" class="edge">
<title>Node8&#45;&gt;Node9</title>
<path fill="none" stroke="midnightblue" d="M153.07,-409.77C141.15,-392.8 121.41,-367.81 99,-352 93.68,-348.25 87.52,-345.1 81.4,-342.52"/>
<polygon fill="midnightblue" stroke="midnightblue" points="150.33,-411.97 158.85,-418.26 156.11,-408.03 150.33,-411.97"/>
</g>
<!-- Node10 -->
<g id="node10" class="node">
<title>Node10</title>
<g id="a_node10"><a xlink:href="group__tools__drafting__dimension.html#ga4866c090b81b437e2f1f707d28ad8ec7" target="_top" xlink:title="Construct a center mark dimension cross.">
<polygon fill="white" stroke="black" points="0,-285.5 0,-304.5 99,-304.5 99,-285.5 0,-285.5"/>
<text text-anchor="middle" x="49.5" y="-292.5" font-family="Helvetica,sans-Serif" font-size="10.00">draft_dim_center</text>
</a>
</g>
</g>
<!-- Node8&#45;&gt;Node10 -->
<g id="edge12" class="edge">
<title>Node8&#45;&gt;Node10</title>
<path fill="none" stroke="midnightblue" d="M158.48,-408.82C149.05,-383.77 129.36,-340.08 99,-314 94.54,-310.17 89.22,-307.06 83.76,-304.55"/>
<polygon fill="midnightblue" stroke="midnightblue" points="155.21,-410.07 161.89,-418.3 161.8,-407.71 155.21,-410.07"/>
</g>
<!-- Node11 -->
<g id="node11" class="node">
<title>Node11</title>
<g id="a_node11"><a xlink:href="group__tools__drafting__dimension.html#ga5c4915c4c4464c5cdaefd501c2de261d" target="_top" xlink:title="Construct a dimension leader line at a point.">
<polygon fill="white" stroke="black" points="0,-247.5 0,-266.5 99,-266.5 99,-247.5 0,-247.5"/>
<text text-anchor="middle" x="49.5" y="-254.5" font-family="Helvetica,sans-Serif" font-size="10.00">draft_dim_leader</text>
</a>
</g>
</g>
<!-- Node8&#45;&gt;Node11 -->
<g id="edge13" class="edge">
<title>Node8&#45;&gt;Node11</title>
<path fill="none" stroke="midnightblue" d="M161.54,-408.48C154.92,-376.6 137.53,-313.16 99,-276 95.09,-272.23 90.36,-269.19 85.39,-266.73"/>
<polygon fill="midnightblue" stroke="midnightblue" points="158.11,-409.2 163.45,-418.35 164.99,-407.87 158.11,-409.2"/>
</g>
<!-- Node12 -->
<g id="node12" class="node">
<title>Node12</title>
<g id="a_node12"><a xlink:href="group__tools__drafting__dimension.html#ga27a35e94597435a74e22d76789e9be5e" target="_top" xlink:title="Construct a dimension line between two points.">
<polygon fill="white" stroke="black" points="6.5,-513.5 6.5,-532.5 92.5,-532.5 92.5,-513.5 6.5,-513.5"/>
<text text-anchor="middle" x="49.5" y="-520.5" font-family="Helvetica,sans-Serif" font-size="10.00">draft_dim_line</text>
</a>
</g>
</g>
<!-- Node8&#45;&gt;Node12 -->
<g id="edge14" class="edge">
<title>Node8&#45;&gt;Node12</title>
<path fill="none" stroke="midnightblue" d="M153.07,-446.23C141.15,-463.2 121.41,-488.19 99,-504 93.68,-507.75 87.52,-510.9 81.4,-513.48"/>
<polygon fill="midnightblue" stroke="midnightblue" points="156.11,-447.97 158.85,-437.74 150.33,-444.03 156.11,-447.97"/>
</g>
<!-- Node13 -->
<g id="node13" class="node">
<title>Node13</title>
<g id="a_node13"><a xlink:href="group__tools__drafting__dimension.html#gaef1a8150a8ef7be88e086fb3dbab64a9" target="_top" xlink:title="Construct a radial dimension line.">
<polygon fill="white" stroke="black" points="0.5,-475.5 0.5,-494.5 98.5,-494.5 98.5,-475.5 0.5,-475.5"/>
<text text-anchor="middle" x="49.5" y="-482.5" font-family="Helvetica,sans-Serif" font-size="10.00">draft_dim_radius</text>
</a>
</g>
</g>
<!-- Node8&#45;&gt;Node13 -->
<g id="edge15" class="edge">
<title>Node8&#45;&gt;Node13</title>
<path fill="none" stroke="midnightblue" d="M141.12,-442.9C128.78,-450.3 113.34,-459.11 99,-466 91.99,-469.37 84.22,-472.62 76.98,-475.45"/>
<polygon fill="midnightblue" stroke="midnightblue" points="143.16,-445.76 149.88,-437.57 139.52,-439.78 143.16,-445.76"/>
</g>
<!-- Node14 -->
<g id="node14" class="node">
<title>Node14</title>
<g id="a_node14"><a xlink:href="group__tools__drafting__primitive.html#gada1e771ce89ef86b6241c43dc01bf62d" target="_top" xlink:title="Draft a polygon with configurable style.">
<polygon fill="white" stroke="black" points="8,-437.5 8,-456.5 91,-456.5 91,-437.5 8,-437.5"/>
<text text-anchor="middle" x="49.5" y="-444.5" font-family="Helvetica,sans-Serif" font-size="10.00">draft_polygon</text>
</a>
</g>
</g>
<!-- Node8&#45;&gt;Node14 -->
<g id="edge16" class="edge">
<title>Node8&#45;&gt;Node14</title>
<path fill="none" stroke="midnightblue" d="M124.8,-434.67C113.89,-436.48 102.08,-438.44 91.15,-440.26"/>
<polygon fill="midnightblue" stroke="midnightblue" points="125.62,-438.08 134.92,-432.99 124.48,-431.18 125.62,-438.08"/>
</g>
<!-- Node15 -->
<g id="node15" class="node">
<title>Node15</title>
<g id="a_node15"><a xlink:href="group__tools__drafting__primitive.html#ga20eb57e9d25186784df7428089e3a2ae" target="_top" xlink:title="Draft a rectangle with configurable style.">
<polygon fill="white" stroke="black" points="4.5,-399.5 4.5,-418.5 94.5,-418.5 94.5,-399.5 4.5,-399.5"/>
<text text-anchor="middle" x="49.5" y="-406.5" font-family="Helvetica,sans-Serif" font-size="10.00">draft_rectangle</text>
</a>
</g>
</g>
<!-- Node8&#45;&gt;Node15 -->
<g id="edge17" class="edge">
<title>Node8&#45;&gt;Node15</title>
<path fill="none" stroke="midnightblue" d="M125,-421.36C115.18,-419.73 104.61,-417.98 94.6,-416.32"/>
<polygon fill="midnightblue" stroke="midnightblue" points="124.48,-424.82 134.92,-423.01 125.62,-417.92 124.48,-424.82"/>
</g>
<!-- Node16 -->
<g id="node16" class="node">
<title>Node16</title>
<g id="a_node16"><a xlink:href="group__tools__drafting__operation.html#ga49aac81a903cd453ea9cadc85e84e414" target="_top" xlink:title="Construct a drafting sheet ruler.">
<polygon fill="white" stroke="black" points="16,-361.5 16,-380.5 83,-380.5 83,-361.5 16,-361.5"/>
<text text-anchor="middle" x="49.5" y="-368.5" font-family="Helvetica,sans-Serif" font-size="10.00">draft_ruler</text>
</a>
</g>
</g>
<!-- Node8&#45;&gt;Node16 -->
<g id="edge18" class="edge">
<title>Node8&#45;&gt;Node16</title>
<path fill="none" stroke="midnightblue" d="M141.12,-413.1C128.78,-405.7 113.34,-396.89 99,-390 91.99,-386.63 84.22,-383.38 76.98,-380.55"/>
<polygon fill="midnightblue" stroke="midnightblue" points="139.52,-416.22 149.88,-418.43 143.16,-410.24 139.52,-416.22"/>
</g>
<!-- Node19&#45;&gt;Node18 -->
<g id="edge23" class="edge">
<title>Node19&#45;&gt;Node18</title>
<path fill="none" stroke="midnightblue" d="M409.99,-356.78C383.81,-360.08 349.57,-364.39 325.67,-367.39"/>
<polygon fill="midnightblue" stroke="midnightblue" points="410.47,-360.25 419.95,-355.53 409.59,-353.31 410.47,-360.25"/>
</g>
<!-- Node23 -->
<g id="node23" class="node">
<title>Node23</title>
<g id="a_node23"><a xlink:href="group__parts__3d__enclosure__mounts.html#gabc7cd409ab1e2e4b6b894de3cf06658f" target="_top" xlink:title="A multi&#45;directional screw mount slot with optional cover envelope.">
<polygon fill="white" stroke="black" points="233,-304.5 233,-323.5 359,-323.5 359,-304.5 233,-304.5"/>
<text text-anchor="middle" x="296" y="-311.5" font-family="Helvetica,sans-Serif" font-size="10.00">mount_screw_slot_md</text>
</a>
</g>
</g>
<!-- Node22&#45;&gt;Node23 -->
<g id="edge27" class="edge">
<title>Node22&#45;&gt;Node23</title>
<path fill="none" stroke="midnightblue" d="M386.4,-314C377.36,-314 368.05,-314 359.01,-314"/>
<polygon fill="midnightblue" stroke="midnightblue" points="386.46,-317.5 396.46,-314 386.46,-310.5 386.46,-317.5"/>
</g>
<!-- Node24 -->
<g id="node24" class="node">
<title>Node24</title>
<g id="a_node24"><a xlink:href="group__parts__3d__enclosure__power__strip.html#ga191779dedf39e4fd769a8dc96b0f8c9e" target="_top" xlink:title="A power strip generator for single gang electrical receptacles.">
<polygon fill="white" stroke="black" points="251,-209.5 251,-228.5 341,-228.5 341,-209.5 251,-209.5"/>
<text text-anchor="middle" x="296" y="-216.5" font-family="Helvetica,sans-Serif" font-size="10.00">power_strip_sg</text>
</a>
</g>
</g>
<!-- Node22&#45;&gt;Node24 -->
<g id="edge28" class="edge">
<title>Node22&#45;&gt;Node24</title>
<path fill="none" stroke="midnightblue" d="M406.72,-300.67C402.68,-298.93 398.71,-297.04 395,-295 359.89,-275.73 324.07,-244.34 307.1,-228.62"/>
<polygon fill="midnightblue" stroke="midnightblue" points="405.59,-303.98 416.18,-304.43 408.18,-297.48 405.59,-303.98"/>
</g>
<!-- Node25&#45;&gt;Node24 -->
<g id="edge30" class="edge">
<title>Node25&#45;&gt;Node24</title>
<path fill="none" stroke="midnightblue" d="M406.72,-137.33C402.68,-139.07 398.71,-140.96 395,-143 359.89,-162.27 324.07,-193.66 307.1,-209.38"/>
<polygon fill="midnightblue" stroke="midnightblue" points="408.18,-140.52 416.18,-133.57 405.59,-134.02 408.18,-140.52"/>
</g>
<!-- Node27&#45;&gt;Node24 -->
<g id="edge33" class="edge">
<title>Node27&#45;&gt;Node24</title>
<path fill="none" stroke="midnightblue" d="M550.41,-148.78C546.44,-147.08 542.6,-145.16 539,-143 519.05,-131.03 524.37,-114.19 503,-105 458.91,-86.03 438.62,-84.97 395,-105 346.85,-127.1 313.44,-185.84 301.67,-209.21"/>
<polygon fill="midnightblue" stroke="midnightblue" points="549.24,-152.08 559.83,-152.39 551.75,-145.55 549.24,-152.08"/>
</g>
<!-- Node29&#45;&gt;Node17 -->
<g id="edge36" class="edge">
<title>Node29&#45;&gt;Node17</title>
<path fill="none" stroke="midnightblue" d="M592.97,-293.22C573.9,-314.16 539.12,-349.36 503,-371 496.8,-374.72 489.75,-377.87 482.87,-380.48"/>
<polygon fill="midnightblue" stroke="midnightblue" points="595.64,-295.49 599.71,-285.7 590.43,-290.82 595.64,-295.49"/>
</g>
<!-- Node29&#45;&gt;Node19 -->
<g id="edge39" class="edge">
<title>Node29&#45;&gt;Node19</title>
<path fill="none" stroke="midnightblue" d="M583.15,-290.89C562.22,-303.1 531.24,-320.36 503,-333 495.06,-336.55 486.23,-339.93 478.1,-342.83"/>
<polygon fill="midnightblue" stroke="midnightblue" points="585.18,-293.76 592.02,-285.68 581.63,-287.73 585.18,-293.76"/>
</g>
<!-- Node29&#45;&gt;Node22 -->
<g id="edge41" class="edge">
<title>Node29&#45;&gt;Node22</title>
<path fill="none" stroke="midnightblue" d="M563.02,-286.82C539.91,-292.38 512,-299.09 489.69,-304.45"/>
<polygon fill="midnightblue" stroke="midnightblue" points="564.03,-290.17 572.93,-284.43 562.39,-283.37 564.03,-290.17"/>
</g>
<!-- Node29&#45;&gt;Node24 -->
<g id="edge44" class="edge">
<title>Node29&#45;&gt;Node24</title>
<path fill="none" stroke="midnightblue" d="M562.74,-267.7C503.4,-256.83 399.97,-237.87 341.18,-227.1"/>
<polygon fill="midnightblue" stroke="midnightblue" points="562.46,-271.21 572.93,-269.57 563.72,-264.33 562.46,-271.21"/>
</g>
<!-- Node30 -->
<g id="node30" class="node">
<title>Node30</title>
<g id="a_node30"><a xlink:href="group__parts__3d__enclosure__clamps.html#ga8fd874789132e42e5470328d18560f1a" target="_top" xlink:title="A clamp, bushing, and/or grip for wire/hose wall penetrations.">
<polygon fill="white" stroke="black" points="417.5,-190.5 417.5,-209.5 480.5,-209.5 480.5,-190.5 417.5,-190.5"/>
<text text-anchor="middle" x="449" y="-197.5" font-family="Helvetica,sans-Serif" font-size="10.00">clamp_cg</text>
</a>
</g>
</g>
<!-- Node29&#45;&gt;Node30 -->
<g id="edge37" class="edge">
<title>Node29&#45;&gt;Node30</title>
<path fill="none" stroke="midnightblue" d="M563.08,-266.96C554.8,-264.37 546.42,-261.11 539,-257 520.01,-246.49 521.11,-235.96 503,-224 494.49,-218.38 484.44,-213.46 475.4,-209.56"/>
<polygon fill="midnightblue" stroke="midnightblue" points="562.13,-270.33 572.71,-269.69 564.04,-263.59 562.13,-270.33"/>
</g>
<!-- Node31 -->
<g id="node31" class="node">
<title>Node31</title>
<g id="a_node31"><a xlink:href="group__parts__3d__enclosure__mounts.html#ga0cbac43259ec43fff7785057277bcef3" target="_top" xlink:title="A screw mount post with screw bore and optional fins.">
<polygon fill="white" stroke="black" points="395,-152.5 395,-171.5 503,-171.5 503,-152.5 395,-152.5"/>
<text text-anchor="middle" x="449" y="-159.5" font-family="Helvetica,sans-Serif" font-size="10.00">mount_screw_post</text>
</a>
</g>
</g>
<!-- Node29&#45;&gt;Node31 -->
<g id="edge40" class="edge">
<title>Node29&#45;&gt;Node31</title>
<path fill="none" stroke="midnightblue" d="M563.16,-269.66C554.46,-266.85 545.91,-262.81 539,-257 510.38,-232.96 530.69,-206.1 503,-181 498.73,-177.13 493.61,-174.03 488.26,-171.56"/>
<polygon fill="midnightblue" stroke="midnightblue" points="562.39,-273.08 572.96,-272.33 564.24,-266.32 562.39,-273.08"/>
</g>
<!-- Node32 -->
<g id="node32" class="node">
<title>Node32</title>
<g id="a_node32"><a xlink:href="group__parts__3d__enclosure__mounts.html#gae1cc60f3ff242fb07c5a50d34be8c051" target="_top" xlink:title="A mount tab with screw hole and support brace.">
<polygon fill="white" stroke="black" points="397.5,-266.5 397.5,-285.5 500.5,-285.5 500.5,-266.5 397.5,-266.5"/>
<text text-anchor="middle" x="449" y="-273.5" font-family="Helvetica,sans-Serif" font-size="10.00">mount_screw_tab</text>
</a>
</g>
</g>
<!-- Node29&#45;&gt;Node32 -->
<g id="edge42" class="edge">
<title>Node29&#45;&gt;Node32</title>
<path fill="none" stroke="midnightblue" d="M562.81,-276C543.37,-276 520.56,-276 500.56,-276"/>
<polygon fill="midnightblue" stroke="midnightblue" points="562.93,-279.5 572.93,-276 562.93,-272.5 562.93,-279.5"/>
</g>
<!-- Node30&#45;&gt;Node24 -->
<g id="edge38" class="edge">
<title>Node30&#45;&gt;Node24</title>
<path fill="none" stroke="midnightblue" d="M407.5,-205.1C387.05,-207.67 362.2,-210.8 341.25,-213.43"/>
<polygon fill="midnightblue" stroke="midnightblue" points="407.96,-208.57 417.44,-203.84 407.08,-201.62 407.96,-208.57"/>
</g>
<!-- Node32&#45;&gt;Node24 -->
<g id="edge43" class="edge">
<title>Node32&#45;&gt;Node24</title>
<path fill="none" stroke="midnightblue" d="M413.02,-262.8C385.3,-252.33 347.21,-237.95 322.36,-228.57"/>
<polygon fill="midnightblue" stroke="midnightblue" points="412.13,-266.2 422.73,-266.46 414.61,-259.65 412.13,-266.2"/>
</g>
<!-- Node33&#45;&gt;Node31 -->
<g id="edge46" class="edge">
<title>Node33&#45;&gt;Node31</title>
<path fill="none" stroke="midnightblue" d="M562.05,-224.97C554.11,-221.9 546.12,-218.25 539,-214 520.36,-202.87 521.58,-192.22 503,-181 496.89,-177.31 489.96,-174.18 483.16,-171.59"/>
<polygon fill="midnightblue" stroke="midnightblue" points="561.07,-228.34 571.66,-228.44 563.44,-221.75 561.07,-228.34"/>
</g>
</g>
</svg>
