<?xml version="1.0" encoding="UTF-8" standalone="no"?>
<!DOCTYPE svg PUBLIC "-//W3C//DTD SVG 1.1//EN"
 "http://www.w3.org/Graphics/SVG/1.1/DTD/svg11.dtd">
<!-- Generated by graphviz version 2.43.0 (0)
 -->
<!-- Title: Fastener Pages: 1 -->
<svg width="348pt" height="82pt"
 viewBox="0.00 0.00 348.00 81.90" xmlns="http://www.w3.org/2000/svg" xmlns:xlink="http://www.w3.org/1999/xlink">
<g id="graph0" class="graph" transform="scale(1 1) rotate(0) translate(4 77.9)">
<title>Fastener</title>
<polygon fill="white" stroke="transparent" points="-4,4 -4,-77.9 344,-77.9 344,4 -4,4"/>
<!-- Node2 -->
<g id="node1" class="node">
<title>Node2</title>
<g id="a_node1"><a xlink:href="group__parts__3d.html" target="_top" xlink:title="3d parts, part generators, and small assemblies.">
<polygon fill="white" stroke="black" points="56,-47.96 0,-47.96 0,-28.96 56,-28.96 56,-47.96"/>
<text text-anchor="middle" x="28" y="-35.96" font-family="Helvetica,sans-Serif" font-size="10.00">3d Parts</text>
</a>
</g>
</g>
<!-- Node1 -->
<g id="node3" class="node">
<title>Node1</title>
<g id="a_node3"><a xlink:title="Fasteners, connectors, joiners, latches, and hinges.">
<polygon fill="#bfbfbf" stroke="black" points="151,-47.96 93,-47.96 93,-28.96 151,-28.96 151,-47.96"/>
<text text-anchor="middle" x="122" y="-35.96" font-family="Helvetica,sans-Serif" font-size="10.00">Fastener</text>
</a>
</g>
</g>
<!-- Node2&#45;&gt;Node1 -->
<g id="edge1" class="edge">
<title>Node2&#45;&gt;Node1</title>
<path fill="none" stroke="black" d="M66.23,-38.46C75.1,-38.46 84.42,-38.46 92.81,-38.46"/>
<polygon fill="black" stroke="black" points="66.11,-34.96 56.11,-38.46 66.11,-41.96 66.11,-34.96"/>
</g>
<!-- Node4 -->
<g id="node2" class="node">
<title>Node4</title>
<g id="a_node2"><a xlink:href="group__parts__3d__fastener__hinges.html" target="_top" xlink:title="Print&#45;in&#45;place hinge generators.">
<polygon fill="white" stroke="black" points="329.5,-71.96 279.5,-71.96 279.5,-52.96 329.5,-52.96 329.5,-71.96"/>
<text text-anchor="middle" x="304.5" y="-59.96" font-family="Helvetica,sans-Serif" font-size="10.00">Hinges</text>
</a>
</g>
</g>
<!-- Node1&#45;&gt;Node4 -->
<g id="edge3" class="edge">
<title>Node1&#45;&gt;Node4</title>
<path fill="none" stroke="black" d="M142.28,-54.01C150.09,-59.37 159.51,-64.72 169,-67.46 206.26,-78.23 251.76,-72.93 279.13,-67.87"/>
<polygon fill="black" stroke="black" points="144.34,-51.19 134.21,-48.09 140.2,-56.83 144.34,-51.19"/>
</g>
<!-- Node1&#45;&gt;Node4 -->
<g id="edge5" class="edge">
<title>Node1&#45;&gt;Node4</title>
<path fill="none" stroke="darkgreen" stroke-dasharray="5,2" d="M151.25,-41.77C177.2,-44.86 216.73,-49.71 251,-54.46 260.32,-55.75 270.54,-57.28 279.47,-58.66"/>
<text text-anchor="middle" x="210" y="-57.46" font-family="Helvetica,sans-Serif" font-size="10.00">hinges.scad</text>
</g>
<!-- Node3 -->
<g id="node4" class="node">
<title>Node3</title>
<g id="a_node4"><a xlink:href="group__parts__3d__fastener__catch__latch.html" target="_top" xlink:title="Catch latch generator.">
<polygon fill="white" stroke="black" points="340,-23.96 269,-23.96 269,-4.96 340,-4.96 340,-23.96"/>
<text text-anchor="middle" x="304.5" y="-11.96" font-family="Helvetica,sans-Serif" font-size="10.00">Catch latch</text>
</a>
</g>
</g>
<!-- Node1&#45;&gt;Node3 -->
<g id="edge2" class="edge">
<title>Node1&#45;&gt;Node3</title>
<path fill="none" stroke="black" d="M161.45,-33.35C193.23,-29.12 237.96,-23.17 268.7,-19.09"/>
<polygon fill="black" stroke="black" points="160.65,-29.92 151.2,-34.71 161.58,-36.86 160.65,-29.92"/>
</g>
<!-- Node1&#45;&gt;Node3 -->
<g id="edge4" class="edge">
<title>Node1&#45;&gt;Node3</title>
<path fill="none" stroke="darkgreen" stroke-dasharray="5,2" d="M132.97,-28.79C141.68,-21.06 155.08,-10.83 169,-6.46 201.81,3.83 241.29,-0.34 268.96,-5.75"/>
<text text-anchor="middle" x="210" y="-9.46" font-family="Helvetica,sans-Serif" font-size="10.00">catch_latch.scad</text>
</g>
</g>
</svg>
