<?xml version="1.0" encoding="UTF-8" standalone="no"?>
<!DOCTYPE svg PUBLIC "-//W3C//DTD SVG 1.1//EN"
 "http://www.w3.org/Graphics/SVG/1.1/DTD/svg11.dtd">
<!-- Generated by graphviz version 2.43.0 (0)
 -->
<!-- Title: Common Pages: 1 -->
<svg width="296pt" height="149pt"
 viewBox="0.00 0.00 296.00 149.35" xmlns="http://www.w3.org/2000/svg" xmlns:xlink="http://www.w3.org/1999/xlink">
<g id="graph0" class="graph" transform="scale(1 1) rotate(0) translate(4 145.35)">
<title>Common</title>
<polygon fill="white" stroke="transparent" points="-4,4 -4,-145.35 292,-145.35 292,4 -4,4"/>
<!-- Node2 -->
<g id="node1" class="node">
<title>Node2</title>
<g id="a_node1"><a xlink:href="group__common__console.html" target="_top" xlink:title="Console message logging.">
<polygon fill="white" stroke="black" points="276,-134.27 184,-134.27 184,-115.27 276,-115.27 276,-134.27"/>
<text text-anchor="middle" x="230" y="-122.27" font-family="Helvetica,sans-Serif" font-size="10.00">Console Output</text>
</a>
</g>
</g>
<!-- Node3 -->
<g id="node2" class="node">
<title>Node3</title>
<g id="a_node2"><a xlink:href="group__common__constants.html" target="_top" xlink:title="Common mechanical design constants.">
<polygon fill="white" stroke="black" points="288,-86.27 172,-86.27 172,-67.27 288,-67.27 288,-86.27"/>
<text text-anchor="middle" x="230" y="-74.27" font-family="Helvetica,sans-Serif" font-size="10.00">Constant Definitions</text>
</a>
</g>
</g>
<!-- Node1 -->
<g id="node3" class="node">
<title>Node1</title>
<g id="a_node3"><a xlink:title="Rudimentary library components.">
<polygon fill="#bfbfbf" stroke="black" points="61,-81.27 0,-81.27 0,-62.27 61,-62.27 61,-81.27"/>
<text text-anchor="middle" x="30.5" y="-69.27" font-family="Helvetica,sans-Serif" font-size="10.00">Common</text>
</a>
</g>
</g>
<!-- Node1&#45;&gt;Node2 -->
<g id="edge1" class="edge">
<title>Node1&#45;&gt;Node2</title>
<path fill="none" stroke="black" d="M40.95,-90.51C49,-104.19 61.96,-121.7 79,-129.77 115.97,-147.28 164.01,-141.43 195.64,-134.29"/>
<polygon fill="black" stroke="black" points="43.85,-88.51 35.98,-81.42 37.71,-91.87 43.85,-88.51"/>
</g>
<!-- Node1&#45;&gt;Node2 -->
<g id="edge4" class="edge">
<title>Node1&#45;&gt;Node2</title>
<path fill="none" stroke="darkgreen" stroke-dasharray="5,2" d="M58.51,-81.3C65.17,-83.53 72.32,-85.82 79,-87.77 114.92,-98.23 156.24,-108.27 186.4,-115.25"/>
<text text-anchor="middle" x="116.5" y="-109.77" font-family="Helvetica,sans-Serif" font-size="10.00">console.scad</text>
</g>
<!-- Node1&#45;&gt;Node3 -->
<g id="edge2" class="edge">
<title>Node1&#45;&gt;Node3</title>
<path fill="none" stroke="black" d="M71.18,-72.77C100.04,-73.5 139.53,-74.5 171.79,-75.32"/>
<polygon fill="black" stroke="black" points="71.15,-69.27 61.07,-72.52 70.98,-76.27 71.15,-69.27"/>
</g>
<!-- Node1&#45;&gt;Node3 -->
<g id="edge5" class="edge">
<title>Node1&#45;&gt;Node3</title>
<path fill="none" stroke="darkgreen" stroke-dasharray="5,2" d="M58.83,-62.26C65.36,-60.4 72.36,-58.72 79,-57.77 111.99,-53.01 120.92,-53.64 154,-57.77 168.93,-59.63 185.15,-63.5 198.68,-67.26"/>
<text text-anchor="middle" x="116.5" y="-60.77" font-family="Helvetica,sans-Serif" font-size="10.00">constants.scad</text>
</g>
<!-- Node4 -->
<g id="node4" class="node">
<title>Node4</title>
<g id="a_node4"><a xlink:href="group__common__validation.html" target="_top" xlink:title="Run&#45;time test and validation functions.">
<polygon fill="white" stroke="black" points="287.5,-22.27 172.5,-22.27 172.5,-3.27 287.5,-3.27 287.5,-22.27"/>
<text text-anchor="middle" x="230" y="-10.27" font-family="Helvetica,sans-Serif" font-size="10.00">Validation Functions</text>
</a>
</g>
</g>
<!-- Node1&#45;&gt;Node4 -->
<g id="edge3" class="edge">
<title>Node1&#45;&gt;Node4</title>
<path fill="none" stroke="black" d="M59.56,-57.69C65.86,-54.83 72.59,-52.02 79,-49.77 112.15,-38.12 150.65,-28.71 180.35,-22.29"/>
<polygon fill="black" stroke="black" points="57.67,-54.71 50.11,-62.14 60.65,-61.05 57.67,-54.71"/>
</g>
<!-- Node1&#45;&gt;Node4 -->
<g id="edge6" class="edge">
<title>Node1&#45;&gt;Node4</title>
<path fill="none" stroke="darkgreen" stroke-dasharray="5,2" d="M35.98,-62.14C42.97,-48.44 57.86,-23.86 79,-13.77 111.19,1.61 151.89,0.82 182.77,-3.25"/>
<text text-anchor="middle" x="116.5" y="-16.77" font-family="Helvetica,sans-Serif" font-size="10.00">validation.scad</text>
</g>
</g>
</svg>
