<?xml version="1.0" encoding="UTF-8" standalone="no"?>
<!DOCTYPE svg PUBLIC "-//W3C//DTD SVG 1.1//EN"
 "http://www.w3.org/Graphics/SVG/1.1/DTD/svg11.dtd">
<!-- Generated by graphviz version 2.43.0 (0)
 -->
<!-- Title: ellipse_cs Pages: 1 -->
<svg width="379pt" height="142pt"
 viewBox="0.00 0.00 379.00 142.00" xmlns="http://www.w3.org/2000/svg" xmlns:xlink="http://www.w3.org/1999/xlink">
<g id="graph0" class="graph" transform="scale(1 1) rotate(0) translate(4 138)">
<title>ellipse_cs</title>
<polygon fill="white" stroke="transparent" points="-4,4 -4,-138 375,-138 375,4 -4,4"/>
<!-- Node1 -->
<g id="node1" class="node">
<title>Node1</title>
<g id="a_node1"><a xlink:title="A sector of an ellipse with a removed elliptical core.">
<polygon fill="#bfbfbf" stroke="black" points="0,-57.5 0,-76.5 65,-76.5 65,-57.5 0,-57.5"/>
<text text-anchor="middle" x="32.5" y="-64.5" font-family="Helvetica,sans-Serif" font-size="10.00">ellipse_cs</text>
</a>
</g>
</g>
<!-- Node2 -->
<g id="node2" class="node">
<title>Node2</title>
<g id="a_node2"><a xlink:href="group__datatypes__iterable__test.html#ga3fa2b76e04a4c8bba633d9e5e08004e8" target="_top" xlink:title="Test if no element of an iterable value has an undefined value.">
<polygon fill="white" stroke="black" points="101,-114.5 101,-133.5 171,-133.5 171,-114.5 101,-114.5"/>
<text text-anchor="middle" x="136" y="-121.5" font-family="Helvetica,sans-Serif" font-size="10.00">all_defined</text>
</a>
</g>
</g>
<!-- Node1&#45;&gt;Node2 -->
<g id="edge1" class="edge">
<title>Node1&#45;&gt;Node2</title>
<path fill="none" stroke="midnightblue" d="M50.72,-76.67C66.78,-85.69 90.96,-99.27 109.3,-109.57"/>
<polygon fill="midnightblue" stroke="midnightblue" points="107.6,-112.63 118.04,-114.47 111.03,-106.53 107.6,-112.63"/>
</g>
<!-- Node3 -->
<g id="node3" class="node">
<title>Node3</title>
<g id="a_node3"><a xlink:href="group__shapes__basic__2d.html#ga7d62c56f88b839dc7e879ff16f968ea2" target="_top" xlink:title="An ellipse.">
<polygon fill="white" stroke="black" points="207,-76.5 207,-95.5 256,-95.5 256,-76.5 207,-76.5"/>
<text text-anchor="middle" x="231.5" y="-83.5" font-family="Helvetica,sans-Serif" font-size="10.00">ellipse</text>
</a>
</g>
</g>
<!-- Node1&#45;&gt;Node3 -->
<g id="edge2" class="edge">
<title>Node1&#45;&gt;Node3</title>
<path fill="none" stroke="midnightblue" d="M65.15,-70.05C101.18,-73.53 159.82,-79.18 196.71,-82.74"/>
<polygon fill="midnightblue" stroke="midnightblue" points="196.67,-86.25 206.96,-83.73 197.35,-79.29 196.67,-86.25"/>
</g>
<!-- Node5 -->
<g id="node5" class="node">
<title>Node5</title>
<g id="a_node5"><a xlink:href="group__shapes__basic__2d.html#ga8925cd75276266667fbc1f0896482a7a" target="_top" xlink:title="An ellipse sector.">
<polygon fill="white" stroke="black" points="106.5,-38.5 106.5,-57.5 165.5,-57.5 165.5,-38.5 106.5,-38.5"/>
<text text-anchor="middle" x="136" y="-45.5" font-family="Helvetica,sans-Serif" font-size="10.00">ellipse_s</text>
</a>
</g>
</g>
<!-- Node1&#45;&gt;Node5 -->
<g id="edge4" class="edge">
<title>Node1&#45;&gt;Node5</title>
<path fill="none" stroke="midnightblue" d="M65.06,-61.09C74.92,-59.25 85.92,-57.19 96.22,-55.26"/>
<polygon fill="midnightblue" stroke="midnightblue" points="97.04,-58.67 106.22,-53.39 95.75,-51.79 97.04,-58.67"/>
</g>
<!-- Node6 -->
<g id="node6" class="node">
<title>Node6</title>
<g id="a_node6"><a xlink:href="group__datatypes__scalar__test.html#ga51d7fdb800c10f4b7479d23b89ab8d22" target="_top" xlink:title="Test if a value is defined.">
<polygon fill="white" stroke="black" points="103,-0.5 103,-19.5 169,-19.5 169,-0.5 103,-0.5"/>
<text text-anchor="middle" x="136" y="-7.5" font-family="Helvetica,sans-Serif" font-size="10.00">is_defined</text>
</a>
</g>
</g>
<!-- Node1&#45;&gt;Node6 -->
<g id="edge7" class="edge">
<title>Node1&#45;&gt;Node6</title>
<path fill="none" stroke="midnightblue" d="M50.41,-57.46C64.06,-49.76 83.76,-38.67 101,-29 103.54,-27.57 106.19,-26.09 108.85,-24.6"/>
<polygon fill="midnightblue" stroke="midnightblue" points="110.68,-27.59 117.7,-19.66 107.26,-21.48 110.68,-27.59"/>
</g>
<!-- Node4 -->
<g id="node4" class="node">
<title>Node4</title>
<g id="a_node4"><a xlink:href="group__datatypes__iterable__operate.html#ga3d37c2b0067d1661724bd89955c8f6ce" target="_top" xlink:title="Return an element of an iterable when it exists or a default value otherwise.">
<polygon fill="white" stroke="black" points="292,-57.5 292,-76.5 371,-76.5 371,-57.5 292,-57.5"/>
<text text-anchor="middle" x="331.5" y="-64.5" font-family="Helvetica,sans-Serif" font-size="10.00">defined_e_or</text>
</a>
</g>
</g>
<!-- Node3&#45;&gt;Node4 -->
<g id="edge3" class="edge">
<title>Node3&#45;&gt;Node4</title>
<path fill="none" stroke="midnightblue" d="M256.22,-81.4C263.96,-79.9 272.86,-78.18 281.74,-76.45"/>
<polygon fill="midnightblue" stroke="midnightblue" points="282.56,-79.86 291.71,-74.52 281.22,-72.99 282.56,-79.86"/>
</g>
<!-- Node5&#45;&gt;Node3 -->
<g id="edge6" class="edge">
<title>Node5&#45;&gt;Node3</title>
<path fill="none" stroke="midnightblue" d="M160.59,-57.59C171.78,-62.13 185.33,-67.64 197.51,-72.59"/>
<polygon fill="midnightblue" stroke="midnightblue" points="196.33,-75.89 206.91,-76.41 198.97,-69.41 196.33,-75.89"/>
</g>
<!-- Node5&#45;&gt;Node4 -->
<g id="edge5" class="edge">
<title>Node5&#45;&gt;Node4</title>
<path fill="none" stroke="midnightblue" d="M165.55,-50.8C196.11,-53.8 245.13,-58.62 281.81,-62.22"/>
<polygon fill="midnightblue" stroke="midnightblue" points="281.51,-65.71 291.8,-63.2 282.19,-58.74 281.51,-65.71"/>
</g>
</g>
</svg>
