<?xml version="1.0" encoding="UTF-8" standalone="no"?>
<!DOCTYPE svg PUBLIC "-//W3C//DTD SVG 1.1//EN"
 "http://www.w3.org/Graphics/SVG/1.1/DTD/svg11.dtd">
<!-- Generated by graphviz version 2.43.0 (0)
 -->
<!-- Title: log_info Pages: 1 -->
<svg width="325pt" height="123pt"
 viewBox="0.00 0.00 325.00 123.00" xmlns="http://www.w3.org/2000/svg" xmlns:xlink="http://www.w3.org/1999/xlink">
<g id="graph0" class="graph" transform="scale(1 1) rotate(0) translate(4 119)">
<title>log_info</title>
<polygon fill="white" stroke="transparent" points="-4,4 -4,-119 321,-119 321,4 -4,4"/>
<!-- Node1 -->
<g id="node1" class="node">
<title>Node1</title>
<g id="a_node1"><a xlink:title="Output information message to console.">
<polygon fill="#bfbfbf" stroke="black" points="261,-57.5 261,-76.5 317,-76.5 317,-57.5 261,-57.5"/>
<text text-anchor="middle" x="289" y="-64.5" font-family="Helvetica,sans-Serif" font-size="10.00">log_info</text>
</a>
</g>
</g>
<!-- Node2 -->
<g id="node2" class="node">
<title>Node2</title>
<g id="a_node2"><a xlink:href="group__datatypes__map.html#ga4a3d0704d80be0d9e8bae1fcb3ab7958" target="_top" xlink:title="Perform basic format checks on a map and output errors to console.">
<polygon fill="white" stroke="black" points="151.5,-95.5 151.5,-114.5 223.5,-114.5 223.5,-95.5 151.5,-95.5"/>
<text text-anchor="middle" x="187.5" y="-102.5" font-family="Helvetica,sans-Serif" font-size="10.00">map_check</text>
</a>
</g>
</g>
<!-- Node1&#45;&gt;Node2 -->
<g id="edge1" class="edge">
<title>Node1&#45;&gt;Node2</title>
<path fill="none" stroke="midnightblue" d="M253.27,-80.26C240.21,-85.25 225.62,-90.82 213.6,-95.41"/>
<polygon fill="midnightblue" stroke="midnightblue" points="254.8,-83.43 262.89,-76.59 252.3,-76.89 254.8,-83.43"/>
</g>
<!-- Node4 -->
<g id="node4" class="node">
<title>Node4</title>
<g id="a_node4"><a xlink:href="group__tools__repeat.html#gad3a61508128c356ec1348225ec9b3ce0" target="_top" xlink:title="Repeat copies of child objects about a Cartesian grid.">
<polygon fill="white" stroke="black" points="151.5,-57.5 151.5,-76.5 223.5,-76.5 223.5,-57.5 151.5,-57.5"/>
<text text-anchor="middle" x="187.5" y="-64.5" font-family="Helvetica,sans-Serif" font-size="10.00">repeat_grid</text>
</a>
</g>
</g>
<!-- Node1&#45;&gt;Node4 -->
<g id="edge3" class="edge">
<title>Node1&#45;&gt;Node4</title>
<path fill="none" stroke="midnightblue" d="M250.69,-67C241.78,-67 232.31,-67 223.51,-67"/>
<polygon fill="midnightblue" stroke="midnightblue" points="250.81,-70.5 260.81,-67 250.81,-63.5 250.81,-70.5"/>
</g>
<!-- Node5 -->
<g id="node5" class="node">
<title>Node5</title>
<g id="a_node5"><a xlink:href="group__datatypes__table.html#ga8a4429649e8b06d9f492e1a0d2653656" target="_top" xlink:title="Perform basic format checks on a table and output errors to console.">
<polygon fill="white" stroke="black" points="150,-19.5 150,-38.5 225,-38.5 225,-19.5 150,-19.5"/>
<text text-anchor="middle" x="187.5" y="-26.5" font-family="Helvetica,sans-Serif" font-size="10.00">table_check</text>
</a>
</g>
</g>
<!-- Node1&#45;&gt;Node5 -->
<g id="edge4" class="edge">
<title>Node1&#45;&gt;Node5</title>
<path fill="none" stroke="midnightblue" d="M253.27,-53.74C240.21,-48.75 225.62,-43.18 213.6,-38.59"/>
<polygon fill="midnightblue" stroke="midnightblue" points="252.3,-57.11 262.89,-57.41 254.8,-50.57 252.3,-57.11"/>
</g>
<!-- Node3 -->
<g id="node3" class="node">
<title>Node3</title>
<g id="a_node3"><a xlink:href="group__common__validation.html#ga3afe594ef417bc40429be81e044d29bc" target="_top" xlink:title="Test data structure db and output the start of test to the test log.">
<polygon fill="white" stroke="black" points="1.5,-95.5 1.5,-114.5 112.5,-114.5 112.5,-95.5 1.5,-95.5"/>
<text text-anchor="middle" x="57" y="-102.5" font-family="Helvetica,sans-Serif" font-size="10.00">map_validate_start</text>
</a>
</g>
</g>
<!-- Node2&#45;&gt;Node3 -->
<g id="edge2" class="edge">
<title>Node2&#45;&gt;Node3</title>
<path fill="none" stroke="midnightblue" d="M141.3,-105C132.11,-105 122.35,-105 112.87,-105"/>
<polygon fill="midnightblue" stroke="midnightblue" points="141.39,-108.5 151.39,-105 141.39,-101.5 141.39,-108.5"/>
</g>
<!-- Node6 -->
<g id="node6" class="node">
<title>Node6</title>
<g id="a_node6"><a xlink:href="group__datatypes__table.html#ga7a45ee72b36421f4e73cfba4488f14be" target="_top" xlink:title="Dump table getter functions to the console.">
<polygon fill="white" stroke="black" points="0,-38.5 0,-57.5 114,-57.5 114,-38.5 0,-38.5"/>
<text text-anchor="middle" x="57" y="-45.5" font-family="Helvetica,sans-Serif" font-size="10.00">table_dump_getters</text>
</a>
</g>
</g>
<!-- Node5&#45;&gt;Node6 -->
<g id="edge5" class="edge">
<title>Node5&#45;&gt;Node6</title>
<path fill="none" stroke="midnightblue" d="M139.6,-35.93C131.44,-37.14 122.87,-38.41 114.48,-39.65"/>
<polygon fill="midnightblue" stroke="midnightblue" points="140.3,-39.37 149.68,-34.44 139.27,-32.45 140.3,-39.37"/>
</g>
<!-- Node7 -->
<g id="node7" class="node">
<title>Node7</title>
<g id="a_node7"><a xlink:href="group__common__validation.html#ga19d0234700fba9de9fb0cba52a3d8e17" target="_top" xlink:title="Test data structure db and output the start of test to the test log.">
<polygon fill="white" stroke="black" points="0,-0.5 0,-19.5 114,-19.5 114,-0.5 0,-0.5"/>
<text text-anchor="middle" x="57" y="-7.5" font-family="Helvetica,sans-Serif" font-size="10.00">table_validate_start</text>
</a>
</g>
</g>
<!-- Node5&#45;&gt;Node7 -->
<g id="edge6" class="edge">
<title>Node5&#45;&gt;Node7</title>
<path fill="none" stroke="midnightblue" d="M139.6,-22.07C131.44,-20.86 122.87,-19.59 114.48,-18.35"/>
<polygon fill="midnightblue" stroke="midnightblue" points="139.27,-25.55 149.68,-23.56 140.3,-18.63 139.27,-25.55"/>
</g>
</g>
</svg>
