<?xml version="1.0" encoding="UTF-8" standalone="no"?>
<!DOCTYPE svg PUBLIC "-//W3C//DTD SVG 1.1//EN"
 "http://www.w3.org/Graphics/SVG/1.1/DTD/svg11.dtd">
<!-- Generated by graphviz version 2.43.0 (0)
 -->
<!-- Title: align_al Pages: 1 -->
<svg width="267pt" height="294pt"
 viewBox="0.00 0.00 267.00 294.00" xmlns="http://www.w3.org/2000/svg" xmlns:xlink="http://www.w3.org/1999/xlink">
<g id="graph0" class="graph" transform="scale(1 1) rotate(0) translate(4 290)">
<title>align_al</title>
<polygon fill="white" stroke="transparent" points="-4,4 -4,-290 263,-290 263,4 -4,4"/>
<!-- Node1 -->
<g id="node1" class="node">
<title>Node1</title>
<g id="a_node1"><a xlink:title="Align an objects Cartesian axis to reference line or vector.">
<polygon fill="#bfbfbf" stroke="black" points="0,-57.5 0,-76.5 55,-76.5 55,-57.5 0,-57.5"/>
<text text-anchor="middle" x="27.5" y="-64.5" font-family="Helvetica,sans-Serif" font-size="10.00">align_al</text>
</a>
</g>
</g>
<!-- Node2 -->
<g id="node2" class="node">
<title>Node2</title>
<g id="a_node2"><a xlink:href="group__tools__align.html#ga7a21147611850c6cae7e95d23417099b" target="_top" xlink:title="Align a line or vector to a reference line or vector.">
<polygon fill="white" stroke="black" points="91,-114.5 91,-133.5 143,-133.5 143,-114.5 91,-114.5"/>
<text text-anchor="middle" x="117" y="-121.5" font-family="Helvetica,sans-Serif" font-size="10.00">align_ll</text>
</a>
</g>
</g>
<!-- Node1&#45;&gt;Node2 -->
<g id="edge1" class="edge">
<title>Node1&#45;&gt;Node2</title>
<path fill="none" stroke="midnightblue" d="M43.34,-76.67C56.88,-85.48 77.09,-98.65 92.76,-108.86"/>
<polygon fill="midnightblue" stroke="midnightblue" points="91.09,-111.95 101.38,-114.47 94.91,-106.08 91.09,-111.95"/>
</g>
<!-- Node9 -->
<g id="node9" class="node">
<title>Node9</title>
<g id="a_node9"><a xlink:href="group__datatypes__list__operate.html#ga7b8e6f2bbfa72ae61e39377e5ca6b5be" target="_top" xlink:title="Select specified element from list or return a default.">
<polygon fill="white" stroke="black" points="189.5,-0.5 189.5,-19.5 248.5,-19.5 248.5,-0.5 189.5,-0.5"/>
<text text-anchor="middle" x="219" y="-7.5" font-family="Helvetica,sans-Serif" font-size="10.00">select_ci</text>
</a>
</g>
</g>
<!-- Node1&#45;&gt;Node9 -->
<g id="edge10" class="edge">
<title>Node1&#45;&gt;Node9</title>
<path fill="none" stroke="midnightblue" d="M55.25,-58.95C87.61,-49.22 142.33,-32.76 179.3,-21.64"/>
<polygon fill="midnightblue" stroke="midnightblue" points="180.65,-24.89 189.22,-18.66 178.63,-18.19 180.65,-24.89"/>
</g>
<!-- Node3 -->
<g id="node3" class="node">
<title>Node3</title>
<g id="a_node3"><a xlink:href="group__datatypes__euclidean.html#ga3d5c07c70f271bcf9144f50ce8620a89" target="_top" xlink:title="Compute the angle between two lines or vectors in a 3d or 2d&#45;space.">
<polygon fill="white" stroke="black" points="191.5,-266.5 191.5,-285.5 246.5,-285.5 246.5,-266.5 191.5,-266.5"/>
<text text-anchor="middle" x="219" y="-273.5" font-family="Helvetica,sans-Serif" font-size="10.00">angle_ll</text>
</a>
</g>
</g>
<!-- Node2&#45;&gt;Node3 -->
<g id="edge2" class="edge">
<title>Node2&#45;&gt;Node3</title>
<path fill="none" stroke="midnightblue" d="M120.05,-133.65C125.55,-157.48 142.79,-219.93 179,-257 180.38,-258.41 181.89,-259.74 183.48,-260.98"/>
<polygon fill="midnightblue" stroke="midnightblue" points="181.69,-263.98 191.99,-266.46 185.48,-258.1 181.69,-263.98"/>
</g>
<!-- Node4 -->
<g id="node4" class="node">
<title>Node4</title>
<g id="a_node4"><a xlink:href="group__datatypes__euclidean.html#ga882329ee346d5a7f9d0877afd115c3de" target="_top" xlink:title="Compute the cross product of two lines or vectors in a 3d or 2d&#45;space.">
<polygon fill="white" stroke="black" points="192.5,-228.5 192.5,-247.5 245.5,-247.5 245.5,-228.5 192.5,-228.5"/>
<text text-anchor="middle" x="219" y="-235.5" font-family="Helvetica,sans-Serif" font-size="10.00">cross_ll</text>
</a>
</g>
</g>
<!-- Node2&#45;&gt;Node4 -->
<g id="edge3" class="edge">
<title>Node2&#45;&gt;Node4</title>
<path fill="none" stroke="midnightblue" d="M122,-133.57C130.2,-152.21 150.58,-193.74 179,-219 180.69,-220.5 182.52,-221.92 184.44,-223.24"/>
<polygon fill="midnightblue" stroke="midnightblue" points="182.83,-226.35 193.21,-228.46 186.41,-220.34 182.83,-226.35"/>
</g>
<!-- Node5 -->
<g id="node5" class="node">
<title>Node5</title>
<g id="a_node5"><a xlink:href="group__datatypes__euclidean.html#ga8115b05f16bcc197e3e339a65f4d3e49" target="_top" xlink:title="Return the initial point of a line or vector.">
<polygon fill="white" stroke="black" points="194.5,-190.5 194.5,-209.5 243.5,-209.5 243.5,-190.5 194.5,-190.5"/>
<text text-anchor="middle" x="219" y="-197.5" font-family="Helvetica,sans-Serif" font-size="10.00">line_ip</text>
</a>
</g>
</g>
<!-- Node2&#45;&gt;Node5 -->
<g id="edge4" class="edge">
<title>Node2&#45;&gt;Node5</title>
<path fill="none" stroke="midnightblue" d="M126.76,-133.82C137.98,-146 158.46,-166.87 179,-181 181.39,-182.64 183.93,-184.22 186.54,-185.71"/>
<polygon fill="midnightblue" stroke="midnightblue" points="185.02,-188.86 195.49,-190.45 188.29,-182.68 185.02,-188.86"/>
</g>
<!-- Node6 -->
<g id="node6" class="node">
<title>Node6</title>
<g id="a_node6"><a xlink:href="group__datatypes__euclidean.html#ga299bce4158dc8d0a7a8e7d9967b8ea4e" target="_top" xlink:title="Return the terminal point of a line or vector.">
<polygon fill="white" stroke="black" points="194,-152.5 194,-171.5 244,-171.5 244,-152.5 194,-152.5"/>
<text text-anchor="middle" x="219" y="-159.5" font-family="Helvetica,sans-Serif" font-size="10.00">line_tp</text>
</a>
</g>
</g>
<!-- Node2&#45;&gt;Node6 -->
<g id="edge5" class="edge">
<title>Node2&#45;&gt;Node6</title>
<path fill="none" stroke="midnightblue" d="M143.23,-133.59C155.71,-138.33 170.94,-144.12 184.39,-149.23"/>
<polygon fill="midnightblue" stroke="midnightblue" points="183.22,-152.53 193.81,-152.81 185.7,-145.98 183.22,-152.53"/>
</g>
<!-- Node7 -->
<g id="node7" class="node">
<title>Node7</title>
<g id="a_node7"><a xlink:href="group__datatypes__list__operate.html#ga1088f9b09ff8ed12e2c844758f39c039" target="_top" xlink:title="Compute the mean/average of a list of numbers.">
<polygon fill="white" stroke="black" points="197,-114.5 197,-133.5 241,-133.5 241,-114.5 197,-114.5"/>
<text text-anchor="middle" x="219" y="-121.5" font-family="Helvetica,sans-Serif" font-size="10.00">mean</text>
</a>
</g>
</g>
<!-- Node2&#45;&gt;Node7 -->
<g id="edge6" class="edge">
<title>Node2&#45;&gt;Node7</title>
<path fill="none" stroke="midnightblue" d="M143.23,-124C156.42,-124 172.68,-124 186.67,-124"/>
<polygon fill="midnightblue" stroke="midnightblue" points="186.83,-127.5 196.83,-124 186.83,-120.5 186.83,-127.5"/>
</g>
<!-- Node8 -->
<g id="node8" class="node">
<title>Node8</title>
<g id="a_node8"><a xlink:href="group__datatypes__euclidean.html#ga78d67c74076bef2e80a95b1e9b6eb2d7" target="_top" xlink:title="Return 3d point unchanged or add a zeroed third dimension to 2d point.">
<polygon fill="white" stroke="black" points="182,-76.5 182,-95.5 256,-95.5 256,-76.5 182,-76.5"/>
<text text-anchor="middle" x="219" y="-83.5" font-family="Helvetica,sans-Serif" font-size="10.00">point_to_3d</text>
</a>
</g>
</g>
<!-- Node2&#45;&gt;Node8 -->
<g id="edge7" class="edge">
<title>Node2&#45;&gt;Node8</title>
<path fill="none" stroke="midnightblue" d="M143.23,-114.41C155.31,-109.82 169.97,-104.25 183.1,-99.26"/>
<polygon fill="midnightblue" stroke="midnightblue" points="184.67,-102.41 192.77,-95.59 182.18,-95.87 184.67,-102.41"/>
</g>
<!-- Node2&#45;&gt;Node9 -->
<g id="edge8" class="edge">
<title>Node2&#45;&gt;Node9</title>
<path fill="none" stroke="midnightblue" d="M122,-114.43C130.2,-95.79 150.58,-54.26 179,-29 180.69,-27.5 182.52,-26.08 184.44,-24.76"/>
<polygon fill="midnightblue" stroke="midnightblue" points="186.41,-27.66 193.21,-19.54 182.83,-21.65 186.41,-27.66"/>
</g>
<!-- Node10 -->
<g id="node10" class="node">
<title>Node10</title>
<g id="a_node10"><a xlink:href="group__datatypes__euclidean.html#ga6ef2a81f304d31b9ec9753ca4875ad45" target="_top" xlink:title="Convert line to vector by shifting it to the origin.">
<polygon fill="white" stroke="black" points="179,-38.5 179,-57.5 259,-57.5 259,-38.5 179,-38.5"/>
<text text-anchor="middle" x="219" y="-45.5" font-family="Helvetica,sans-Serif" font-size="10.00">vol_to_origin</text>
</a>
</g>
</g>
<!-- Node2&#45;&gt;Node10 -->
<g id="edge9" class="edge">
<title>Node2&#45;&gt;Node10</title>
<path fill="none" stroke="midnightblue" d="M126.76,-114.18C137.98,-102 158.46,-81.13 179,-67 181.39,-65.36 183.93,-63.78 186.54,-62.29"/>
<polygon fill="midnightblue" stroke="midnightblue" points="188.29,-65.32 195.49,-57.55 185.02,-59.14 188.29,-65.32"/>
</g>
</g>
</svg>
