<?xml version="1.0" encoding="UTF-8" standalone="no"?>
<!DOCTYPE svg PUBLIC "-//W3C//DTD SVG 1.1//EN"
 "http://www.w3.org/Graphics/SVG/1.1/DTD/svg11.dtd">
<!-- Generated by graphviz version 2.43.0 (0)
 -->
<!-- Title: polygon_round_eve_all_p Pages: 1 -->
<svg width="712pt" height="409pt"
 viewBox="0.00 0.00 712.00 408.52" xmlns="http://www.w3.org/2000/svg" xmlns:xlink="http://www.w3.org/1999/xlink">
<g id="graph0" class="graph" transform="scale(1 1) rotate(0) translate(4 404.52)">
<title>polygon_round_eve_all_p</title>
<polygon fill="white" stroke="transparent" points="-4,4 -4,-404.52 708,-404.52 708,4 -4,4"/>
<!-- Node1 -->
<g id="node1" class="node">
<title>Node1</title>
<g id="a_node1"><a xlink:title="Compute coordinates that round all of the vertices between each adjacent edges in 2D.">
<polygon fill="#bfbfbf" stroke="black" points="564,-209.5 564,-228.5 704,-228.5 704,-209.5 564,-209.5"/>
<text text-anchor="middle" x="634" y="-216.5" font-family="Helvetica,sans-Serif" font-size="10.00">polygon_round_eve_all_p</text>
</a>
</g>
</g>
<!-- Node2 -->
<g id="node2" class="node">
<title>Node2</title>
<g id="a_node2"><a xlink:href="group__parts__3d__fastener__catch__latch.html#ga26a9933aa6d33599daab1be8d632c430" target="_top" xlink:title="A catch latch generator with configurable profile.">
<polygon fill="white" stroke="black" points="152.5,-228.5 152.5,-247.5 224.5,-247.5 224.5,-228.5 152.5,-228.5"/>
<text text-anchor="middle" x="188.5" y="-235.5" font-family="Helvetica,sans-Serif" font-size="10.00">catch_latch</text>
</a>
</g>
</g>
<!-- Node1&#45;&gt;Node2 -->
<g id="edge1" class="edge">
<title>Node1&#45;&gt;Node2</title>
<path fill="none" stroke="midnightblue" d="M586.52,-230.87C568.36,-235.18 547.3,-239.78 528,-243 422.18,-260.69 393.8,-267.31 287,-257 266.23,-255 243.31,-250.64 224.92,-246.61"/>
<polygon fill="midnightblue" stroke="midnightblue" points="587.38,-234.26 596.28,-228.51 585.74,-227.46 587.38,-234.26"/>
</g>
<!-- Node3 -->
<g id="node3" class="node">
<title>Node3</title>
<g id="a_node3"><a xlink:href="group__parts__3d__enclosure__clamps.html#ga8fd874789132e42e5470328d18560f1a" target="_top" xlink:title="A clamp, bushing, and/or grip for wire/hose wall penetrations.">
<polygon fill="white" stroke="black" points="157,-304.5 157,-323.5 220,-323.5 220,-304.5 157,-304.5"/>
<text text-anchor="middle" x="188.5" y="-311.5" font-family="Helvetica,sans-Serif" font-size="10.00">clamp_cg</text>
</a>
</g>
</g>
<!-- Node1&#45;&gt;Node3 -->
<g id="edge2" class="edge">
<title>Node1&#45;&gt;Node3</title>
<path fill="none" stroke="midnightblue" d="M605.39,-233.17C584.62,-243.24 555.18,-256.31 528,-264 417.39,-295.3 280.6,-307.85 220.4,-312.11"/>
<polygon fill="midnightblue" stroke="midnightblue" points="607.15,-236.2 614.57,-228.64 604.05,-229.93 607.15,-236.2"/>
</g>
<!-- Node5 -->
<g id="node5" class="node">
<title>Node5</title>
<g id="a_node5"><a xlink:href="group__shapes__basic__3d.html#ga8a71b8cd52ae5ef7a2510ff579734108" target="_top" xlink:title="A cone.">
<polygon fill="white" stroke="black" points="322,-342.5 322,-361.5 362,-361.5 362,-342.5 322,-342.5"/>
<text text-anchor="middle" x="342" y="-349.5" font-family="Helvetica,sans-Serif" font-size="10.00">cone</text>
</a>
</g>
</g>
<!-- Node1&#45;&gt;Node5 -->
<g id="edge4" class="edge">
<title>Node1&#45;&gt;Node5</title>
<path fill="none" stroke="midnightblue" d="M621.4,-237.23C604.31,-262.37 569.83,-306.94 528,-328 472.75,-355.82 396.96,-355.49 362.04,-353.53"/>
<polygon fill="midnightblue" stroke="midnightblue" points="624.48,-238.91 627.07,-228.64 618.64,-235.06 624.48,-238.91"/>
</g>
<!-- Node8 -->
<g id="node8" class="node">
<title>Node8</title>
<g id="a_node8"><a xlink:href="group__models__3d__misc__omdl__logo.html#gab176f64dad7e83d4fb056be44b71f630" target="_top" xlink:title="Standard omdl logo.">
<polygon fill="white" stroke="black" points="154.5,-380.5 154.5,-399.5 222.5,-399.5 222.5,-380.5 154.5,-380.5"/>
<text text-anchor="middle" x="188.5" y="-387.5" font-family="Helvetica,sans-Serif" font-size="10.00">omdl_logo</text>
</a>
</g>
</g>
<!-- Node1&#45;&gt;Node8 -->
<g id="edge11" class="edge">
<title>Node1&#45;&gt;Node8</title>
<path fill="none" stroke="midnightblue" d="M624.49,-237.62C609.64,-267.76 575.94,-326.59 528,-354 428.98,-410.62 286.87,-402.33 222.92,-394.82"/>
<polygon fill="midnightblue" stroke="midnightblue" points="627.65,-239.12 628.8,-228.59 621.33,-236.11 627.65,-239.12"/>
</g>
<!-- Node9 -->
<g id="node9" class="node">
<title>Node9</title>
<g id="a_node9"><a xlink:href="group__shapes__polygon.html#ga1151092c15142c227983e6bd481872b3" target="_top" xlink:title="A n&#45;sided regular polygon with vertex rounding.">
<polygon fill="white" stroke="black" points="451.5,-114.5 451.5,-133.5 509.5,-133.5 509.5,-114.5 451.5,-114.5"/>
<text text-anchor="middle" x="480.5" y="-121.5" font-family="Helvetica,sans-Serif" font-size="10.00">pg_ngon</text>
</a>
</g>
</g>
<!-- Node1&#45;&gt;Node9 -->
<g id="edge12" class="edge">
<title>Node1&#45;&gt;Node9</title>
<path fill="none" stroke="midnightblue" d="M613.77,-202.91C593.4,-186.4 559.84,-160.69 528,-143 521.75,-139.53 514.73,-136.33 508.08,-133.59"/>
<polygon fill="midnightblue" stroke="midnightblue" points="611.7,-205.74 621.65,-209.37 616.13,-200.32 611.7,-205.74"/>
</g>
<!-- Node10 -->
<g id="node10" class="node">
<title>Node10</title>
<g id="a_node10"><a xlink:href="group__shapes__polygon.html#ga9c1bd914355d92f9d66ba0e5c2d9dbac" target="_top" xlink:title="A polygon rectangle with vertex rounding.">
<polygon fill="white" stroke="black" points="302,-228.5 302,-247.5 382,-247.5 382,-228.5 302,-228.5"/>
<text text-anchor="middle" x="342" y="-235.5" font-family="Helvetica,sans-Serif" font-size="10.00">pg_rectangle</text>
</a>
</g>
</g>
<!-- Node1&#45;&gt;Node10 -->
<g id="edge13" class="edge">
<title>Node1&#45;&gt;Node10</title>
<path fill="none" stroke="midnightblue" d="M553.71,-224.19C498.03,-227.84 425.96,-232.56 382.17,-235.43"/>
<polygon fill="midnightblue" stroke="midnightblue" points="554.16,-227.67 563.91,-223.53 553.7,-220.69 554.16,-227.67"/>
</g>
<!-- Node14 -->
<g id="node14" class="node">
<title>Node14</title>
<g id="a_node14"><a xlink:href="group__shapes__polygon.html#ga2ca38d6942a8955d3b483d1a60bf7ec3" target="_top" xlink:title="A polygon rhombus with vertex rounding.">
<polygon fill="white" stroke="black" points="442,-76.5 442,-95.5 519,-95.5 519,-76.5 442,-76.5"/>
<text text-anchor="middle" x="480.5" y="-83.5" font-family="Helvetica,sans-Serif" font-size="10.00">pg_rhombus</text>
</a>
</g>
</g>
<!-- Node1&#45;&gt;Node14 -->
<g id="edge21" class="edge">
<title>Node1&#45;&gt;Node14</title>
<path fill="none" stroke="midnightblue" d="M620.45,-201.04C602.47,-176.44 567.19,-132.23 528,-105 522.7,-101.32 516.58,-98.18 510.55,-95.57"/>
<polygon fill="midnightblue" stroke="midnightblue" points="617.8,-203.34 626.47,-209.43 623.49,-199.26 617.8,-203.34"/>
</g>
<!-- Node15 -->
<g id="node15" class="node">
<title>Node15</title>
<g id="a_node15"><a xlink:href="group__shapes__polygon.html#ga155ae943a1aa91432b1992fd1de364c2" target="_top" xlink:title="A polygon trapezoid with individual vertex rounding and arc facets.">
<polygon fill="white" stroke="black" points="440.5,-190.5 440.5,-209.5 520.5,-209.5 520.5,-190.5 440.5,-190.5"/>
<text text-anchor="middle" x="480.5" y="-197.5" font-family="Helvetica,sans-Serif" font-size="10.00">pg_trapezoid</text>
</a>
</g>
</g>
<!-- Node1&#45;&gt;Node15 -->
<g id="edge22" class="edge">
<title>Node1&#45;&gt;Node15</title>
<path fill="none" stroke="midnightblue" d="M553.8,-209.07C542.3,-207.62 530.91,-206.2 520.69,-204.91"/>
<polygon fill="midnightblue" stroke="midnightblue" points="553.54,-212.56 563.9,-210.33 554.41,-205.62 553.54,-212.56"/>
</g>
<!-- Node17 -->
<g id="node17" class="node">
<title>Node17</title>
<g id="a_node17"><a xlink:href="group__shapes__polygon.html#gac7e2c70b3428b729efd86a675df794e6" target="_top" xlink:title="A polygon triangle specified by three coordinate points with vertex rounding.">
<polygon fill="white" stroke="black" points="433,-152.5 433,-171.5 528,-171.5 528,-152.5 433,-152.5"/>
<text text-anchor="middle" x="480.5" y="-159.5" font-family="Helvetica,sans-Serif" font-size="10.00">pg_triangle_ppp</text>
</a>
</g>
</g>
<!-- Node1&#45;&gt;Node17 -->
<g id="edge25" class="edge">
<title>Node1&#45;&gt;Node17</title>
<path fill="none" stroke="midnightblue" d="M598.27,-205.93C570.43,-195.46 531.99,-180.99 506.94,-171.57"/>
<polygon fill="midnightblue" stroke="midnightblue" points="597.05,-209.21 607.64,-209.46 599.52,-202.66 597.05,-209.21"/>
</g>
<!-- Node22 -->
<g id="node22" class="node">
<title>Node22</title>
<g id="a_node22"><a xlink:href="group__shapes__basic__2d.html#ga7452bf5414a3677ec806a31aed6b61dd" target="_top" xlink:title="A two&#45;dimensional star.">
<polygon fill="white" stroke="black" points="457,-38.5 457,-57.5 504,-57.5 504,-38.5 457,-38.5"/>
<text text-anchor="middle" x="480.5" y="-45.5" font-family="Helvetica,sans-Serif" font-size="10.00">star2d</text>
</a>
</g>
</g>
<!-- Node1&#45;&gt;Node22 -->
<g id="edge33" class="edge">
<title>Node1&#45;&gt;Node22</title>
<path fill="none" stroke="midnightblue" d="M624.39,-199.95C609.18,-168.28 574.71,-104.55 528,-67 521.07,-61.43 512.28,-57.28 504.21,-54.3"/>
<polygon fill="midnightblue" stroke="midnightblue" points="621.39,-201.8 628.79,-209.38 627.73,-198.84 621.39,-201.8"/>
</g>
<!-- Node4 -->
<g id="node4" class="node">
<title>Node4</title>
<g id="a_node4"><a xlink:href="group__parts__3d__enclosure__power__strip.html#ga191779dedf39e4fd769a8dc96b0f8c9e" target="_top" xlink:title="A power strip generator for single gang electrical receptacles.">
<polygon fill="white" stroke="black" points="0,-304.5 0,-323.5 90,-323.5 90,-304.5 0,-304.5"/>
<text text-anchor="middle" x="45" y="-311.5" font-family="Helvetica,sans-Serif" font-size="10.00">power_strip_sg</text>
</a>
</g>
</g>
<!-- Node3&#45;&gt;Node4 -->
<g id="edge3" class="edge">
<title>Node3&#45;&gt;Node4</title>
<path fill="none" stroke="midnightblue" d="M146.75,-314C129.01,-314 108.17,-314 90.07,-314"/>
<polygon fill="midnightblue" stroke="midnightblue" points="146.8,-317.5 156.8,-314 146.8,-310.5 146.8,-317.5"/>
</g>
<!-- Node5&#45;&gt;Node3 -->
<g id="edge5" class="edge">
<title>Node5&#45;&gt;Node3</title>
<path fill="none" stroke="midnightblue" d="M312.03,-344.73C285.67,-338.12 246.89,-328.39 220.05,-321.66"/>
<polygon fill="midnightblue" stroke="midnightblue" points="311.26,-348.15 321.81,-347.19 312.96,-341.36 311.26,-348.15"/>
</g>
<!-- Node5&#45;&gt;Node4 -->
<g id="edge10" class="edge">
<title>Node5&#45;&gt;Node4</title>
<path fill="none" stroke="midnightblue" d="M311.68,-350.76C270.14,-348.69 191.87,-343.68 126,-333 111.2,-330.6 95.09,-326.98 81.22,-323.53"/>
<polygon fill="midnightblue" stroke="midnightblue" points="311.75,-354.26 321.9,-351.24 312.08,-347.27 311.75,-354.26"/>
</g>
<!-- Node6 -->
<g id="node6" class="node">
<title>Node6</title>
<g id="a_node6"><a xlink:href="group__parts__3d__fastener__hinges.html#ga7e350f2c55116094108b99dd8103fc04" target="_top" xlink:title="A print&#45;in&#45;place single&#45;fold hinge generator.">
<polygon fill="white" stroke="black" points="159.5,-266.5 159.5,-285.5 217.5,-285.5 217.5,-266.5 159.5,-266.5"/>
<text text-anchor="middle" x="188.5" y="-273.5" font-family="Helvetica,sans-Serif" font-size="10.00">hinge_sf</text>
</a>
</g>
</g>
<!-- Node5&#45;&gt;Node6 -->
<g id="edge6" class="edge">
<title>Node5&#45;&gt;Node6</title>
<path fill="none" stroke="midnightblue" d="M319.79,-336.29C302.11,-323.76 275.89,-306.48 251,-295 240.45,-290.13 228.32,-286.08 217.64,-282.99"/>
<polygon fill="midnightblue" stroke="midnightblue" points="318.05,-339.35 328.21,-342.35 322.14,-333.67 318.05,-339.35"/>
</g>
<!-- Node5&#45;&gt;Node8 -->
<g id="edge8" class="edge">
<title>Node5&#45;&gt;Node8</title>
<path fill="none" stroke="midnightblue" d="M311.98,-359.28C286.46,-365.68 249.32,-375 222.63,-381.69"/>
<polygon fill="midnightblue" stroke="midnightblue" points="312.96,-362.64 321.81,-356.81 311.26,-355.85 312.96,-362.64"/>
</g>
<!-- Node7 -->
<g id="node7" class="node">
<title>Node7</title>
<g id="a_node7"><a xlink:href="group__parts__3d__fastener__hinges.html#ga1ffc82e0bbac466d1dc4fbe6c214b765" target="_top" xlink:title="A print&#45;in&#45;place bi&#45;fold hinge generator.">
<polygon fill="white" stroke="black" points="15.5,-266.5 15.5,-285.5 74.5,-285.5 74.5,-266.5 15.5,-266.5"/>
<text text-anchor="middle" x="45" y="-273.5" font-family="Helvetica,sans-Serif" font-size="10.00">hinge_bf</text>
</a>
</g>
</g>
<!-- Node6&#45;&gt;Node7 -->
<g id="edge7" class="edge">
<title>Node6&#45;&gt;Node7</title>
<path fill="none" stroke="midnightblue" d="M148.92,-276C125.5,-276 96.1,-276 74.73,-276"/>
<polygon fill="midnightblue" stroke="midnightblue" points="149.21,-279.5 159.21,-276 149.21,-272.5 149.21,-279.5"/>
</g>
<!-- Node8&#45;&gt;Node4 -->
<g id="edge9" class="edge">
<title>Node8&#45;&gt;Node4</title>
<path fill="none" stroke="midnightblue" d="M149.87,-376.72C141.85,-373.51 133.54,-369.87 126,-366 101.09,-353.22 74.21,-334.65 58.81,-323.51"/>
<polygon fill="midnightblue" stroke="midnightblue" points="148.83,-380.07 159.42,-380.42 151.36,-373.55 148.83,-380.07"/>
</g>
<!-- Node10&#45;&gt;Node2 -->
<g id="edge14" class="edge">
<title>Node10&#45;&gt;Node2</title>
<path fill="none" stroke="midnightblue" d="M291.84,-238C269.88,-238 244.49,-238 224.5,-238"/>
<polygon fill="midnightblue" stroke="midnightblue" points="291.99,-241.5 301.98,-238 291.98,-234.5 291.99,-241.5"/>
</g>
<!-- Node10&#45;&gt;Node6 -->
<g id="edge15" class="edge">
<title>Node10&#45;&gt;Node6</title>
<path fill="none" stroke="midnightblue" d="M292.83,-250.08C268.06,-256.29 238.74,-263.65 217.67,-268.93"/>
<polygon fill="midnightblue" stroke="midnightblue" points="293.92,-253.42 302.77,-247.59 292.22,-246.63 293.92,-253.42"/>
</g>
<!-- Node11 -->
<g id="node11" class="node">
<title>Node11</title>
<g id="a_node11"><a xlink:href="group__parts__3d__enclosure__mounts.html#ga0cbac43259ec43fff7785057277bcef3" target="_top" xlink:title="A screw mount post with screw bore and optional fins.">
<polygon fill="white" stroke="black" points="134.5,-114.5 134.5,-133.5 242.5,-133.5 242.5,-114.5 134.5,-114.5"/>
<text text-anchor="middle" x="188.5" y="-121.5" font-family="Helvetica,sans-Serif" font-size="10.00">mount_screw_post</text>
</a>
</g>
</g>
<!-- Node10&#45;&gt;Node11 -->
<g id="edge16" class="edge">
<title>Node10&#45;&gt;Node11</title>
<path fill="none" stroke="midnightblue" d="M292.59,-223.33C290.62,-222.01 288.74,-220.57 287,-219 259.23,-193.98 279.25,-167.48 251,-143 246.52,-139.12 241.27,-136.03 235.74,-133.58"/>
<polygon fill="midnightblue" stroke="midnightblue" points="291.3,-226.62 301.74,-228.41 294.7,-220.5 291.3,-226.62"/>
</g>
<!-- Node12 -->
<g id="node12" class="node">
<title>Node12</title>
<g id="a_node12"><a xlink:href="group__parts__3d__enclosure__mounts.html#gae1cc60f3ff242fb07c5a50d34be8c051" target="_top" xlink:title="A mount tab with screw hole and support brace.">
<polygon fill="white" stroke="black" points="137,-190.5 137,-209.5 240,-209.5 240,-190.5 137,-190.5"/>
<text text-anchor="middle" x="188.5" y="-197.5" font-family="Helvetica,sans-Serif" font-size="10.00">mount_screw_tab</text>
</a>
</g>
</g>
<!-- Node10&#45;&gt;Node12 -->
<g id="edge17" class="edge">
<title>Node10&#45;&gt;Node12</title>
<path fill="none" stroke="midnightblue" d="M293,-225.96C271.83,-220.65 247.31,-214.5 227.45,-209.52"/>
<polygon fill="midnightblue" stroke="midnightblue" points="292.22,-229.37 302.77,-228.41 293.92,-222.58 292.22,-229.37"/>
</g>
<!-- Node13 -->
<g id="node13" class="node">
<title>Node13</title>
<g id="a_node13"><a xlink:href="group__parts__3d__enclosure__project__box__rectangle.html#ga6a5d093d732e65556c46252220f2c4b6" target="_top" xlink:title="A rectangular box maker for project boxes, enclosures and housings.">
<polygon fill="white" stroke="black" points="126,-152.5 126,-171.5 251,-171.5 251,-152.5 126,-152.5"/>
<text text-anchor="middle" x="188.5" y="-159.5" font-family="Helvetica,sans-Serif" font-size="10.00">project_box_rectangle</text>
</a>
</g>
</g>
<!-- Node10&#45;&gt;Node13 -->
<g id="edge19" class="edge">
<title>Node10&#45;&gt;Node13</title>
<path fill="none" stroke="midnightblue" d="M296.88,-224.49C293.44,-222.84 290.1,-221.01 287,-219 267.48,-206.34 270.76,-193.28 251,-181 244.83,-177.17 237.83,-174.05 230.82,-171.54"/>
<polygon fill="midnightblue" stroke="midnightblue" points="295.58,-227.74 306.15,-228.48 298.35,-221.31 295.58,-227.74"/>
</g>
<!-- Node12&#45;&gt;Node4 -->
<g id="edge18" class="edge">
<title>Node12&#45;&gt;Node4</title>
<path fill="none" stroke="midnightblue" d="M132.28,-214.35C130.07,-215.76 127.96,-217.3 126,-219 97.75,-243.48 116.88,-269.03 90,-295 86.05,-298.82 81.21,-301.93 76.21,-304.44"/>
<polygon fill="midnightblue" stroke="midnightblue" points="134.07,-217.36 141.26,-209.58 130.79,-211.18 134.07,-217.36"/>
</g>
<!-- Node13&#45;&gt;Node4 -->
<g id="edge20" class="edge">
<title>Node13&#45;&gt;Node4</title>
<path fill="none" stroke="midnightblue" d="M130.67,-176.98C129.02,-178.22 127.46,-179.55 126,-181 88.31,-218.45 125.61,-255.57 90,-295 86.54,-298.83 82.18,-301.92 77.55,-304.4"/>
<polygon fill="midnightblue" stroke="midnightblue" points="132.78,-179.79 139.52,-171.61 129.15,-173.81 132.78,-179.79"/>
</g>
<!-- Node15&#45;&gt;Node11 -->
<g id="edge23" class="edge">
<title>Node15&#45;&gt;Node11</title>
<path fill="none" stroke="midnightblue" d="M441.2,-185.93C438.35,-184.41 435.58,-182.77 433,-181 413.8,-167.86 417.93,-153.16 397,-143 348.51,-119.46 286.17,-116.89 242.53,-118.85"/>
<polygon fill="midnightblue" stroke="midnightblue" points="439.95,-189.21 450.49,-190.37 442.98,-182.9 439.95,-189.21"/>
</g>
<!-- Node16 -->
<g id="node16" class="node">
<title>Node16</title>
<g id="a_node16"><a xlink:href="group__shapes__revolved.html#ga69b374bbebd7d87cfcd06b6bd3278404" target="_top" xlink:title="A trapezoidal cross&#45;sectional profile revolved about the z&#45;axis.">
<polygon fill="white" stroke="black" points="287,-190.5 287,-209.5 397,-209.5 397,-190.5 287,-190.5"/>
<text text-anchor="middle" x="342" y="-197.5" font-family="Helvetica,sans-Serif" font-size="10.00">torus_pg_trapezoid</text>
</a>
</g>
</g>
<!-- Node15&#45;&gt;Node16 -->
<g id="edge24" class="edge">
<title>Node15&#45;&gt;Node16</title>
<path fill="none" stroke="midnightblue" d="M430.31,-200C419.54,-200 408.08,-200 397.13,-200"/>
<polygon fill="midnightblue" stroke="midnightblue" points="430.38,-203.5 440.38,-200 430.38,-196.5 430.38,-203.5"/>
</g>
<!-- Node18 -->
<g id="node18" class="node">
<title>Node18</title>
<g id="a_node18"><a xlink:href="group__shapes__polygon.html#gad85d14f73179499777da1e9297fbcae8" target="_top" xlink:title="A polygon triangle specified by angle&#45;angle&#45;size with vertex rounding.">
<polygon fill="white" stroke="black" points="295,-76.5 295,-95.5 389,-95.5 389,-76.5 295,-76.5"/>
<text text-anchor="middle" x="342" y="-83.5" font-family="Helvetica,sans-Serif" font-size="10.00">pg_triangle_aas</text>
</a>
</g>
</g>
<!-- Node17&#45;&gt;Node18 -->
<g id="edge26" class="edge">
<title>Node17&#45;&gt;Node18</title>
<path fill="none" stroke="midnightblue" d="M442.4,-148.26C439.14,-146.63 435.96,-144.88 433,-143 414.67,-131.38 415.15,-121.9 397,-110 388.42,-104.38 378.3,-99.48 369.16,-95.61"/>
<polygon fill="midnightblue" stroke="midnightblue" points="441.1,-151.52 451.65,-152.5 444.02,-145.15 441.1,-151.52"/>
</g>
<!-- Node19 -->
<g id="node19" class="node">
<title>Node19</title>
<g id="a_node19"><a xlink:href="group__shapes__polygon.html#ga45e8a17aef3dd6755f833f25a8937cf7" target="_top" xlink:title="A polygon triangle specified by angle&#45;size&#45;angle with vertex rounding.">
<polygon fill="white" stroke="black" points="295,-38.5 295,-57.5 389,-57.5 389,-38.5 295,-38.5"/>
<text text-anchor="middle" x="342" y="-45.5" font-family="Helvetica,sans-Serif" font-size="10.00">pg_triangle_asa</text>
</a>
</g>
</g>
<!-- Node17&#45;&gt;Node19 -->
<g id="edge27" class="edge">
<title>Node17&#45;&gt;Node19</title>
<path fill="none" stroke="midnightblue" d="M438.33,-147.32C436.44,-146 434.65,-144.56 433,-143 405.86,-117.3 424.77,-92.02 397,-67 392.72,-63.14 387.6,-60.06 382.26,-57.59"/>
<polygon fill="midnightblue" stroke="midnightblue" points="436.7,-150.43 447.1,-152.44 440.23,-144.38 436.7,-150.43"/>
</g>
<!-- Node20 -->
<g id="node20" class="node">
<title>Node20</title>
<g id="a_node20"><a xlink:href="group__shapes__polygon.html#ga24be160074502dce7ff8a78361d4b074" target="_top" xlink:title="A polygon triangle specified by size&#45;angle&#45;size with vertex rounding.">
<polygon fill="white" stroke="black" points="295.5,-152.5 295.5,-171.5 388.5,-171.5 388.5,-152.5 295.5,-152.5"/>
<text text-anchor="middle" x="342" y="-159.5" font-family="Helvetica,sans-Serif" font-size="10.00">pg_triangle_sas</text>
</a>
</g>
</g>
<!-- Node17&#45;&gt;Node20 -->
<g id="edge28" class="edge">
<title>Node17&#45;&gt;Node20</title>
<path fill="none" stroke="midnightblue" d="M422.72,-162C411.46,-162 399.77,-162 388.92,-162"/>
<polygon fill="midnightblue" stroke="midnightblue" points="422.91,-165.5 432.91,-162 422.91,-158.5 422.91,-165.5"/>
</g>
<!-- Node21 -->
<g id="node21" class="node">
<title>Node21</title>
<g id="a_node21"><a xlink:href="group__shapes__polygon.html#gab9843df753e0537b490ac67cec6e31a9" target="_top" xlink:title="A polygon triangle specified by three side lengths with vertex rounding.">
<polygon fill="white" stroke="black" points="296,-0.5 296,-19.5 388,-19.5 388,-0.5 296,-0.5"/>
<text text-anchor="middle" x="342" y="-7.5" font-family="Helvetica,sans-Serif" font-size="10.00">pg_triangle_sss</text>
</a>
</g>
</g>
<!-- Node17&#45;&gt;Node21 -->
<g id="edge32" class="edge">
<title>Node17&#45;&gt;Node21</title>
<path fill="none" stroke="midnightblue" d="M436.95,-146.71C435.54,-145.56 434.22,-144.32 433,-143 397,-103.92 433.96,-67.18 397,-29 393.27,-25.14 388.71,-22.07 383.83,-19.62"/>
<polygon fill="midnightblue" stroke="midnightblue" points="435.41,-149.88 445.7,-152.41 439.23,-144.02 435.41,-149.88"/>
</g>
<!-- Node20&#45;&gt;Node11 -->
<g id="edge29" class="edge">
<title>Node20&#45;&gt;Node11</title>
<path fill="none" stroke="midnightblue" d="M293,-149.96C271.83,-144.65 247.31,-138.5 227.45,-133.52"/>
<polygon fill="midnightblue" stroke="midnightblue" points="292.22,-153.37 302.77,-152.41 293.92,-146.58 292.22,-153.37"/>
</g>
<!-- Node20&#45;&gt;Node12 -->
<g id="edge30" class="edge">
<title>Node20&#45;&gt;Node12</title>
<path fill="none" stroke="midnightblue" d="M293,-174.04C271.83,-179.35 247.31,-185.5 227.45,-190.48"/>
<polygon fill="midnightblue" stroke="midnightblue" points="293.92,-177.42 302.77,-171.59 292.22,-170.63 293.92,-177.42"/>
</g>
<!-- Node20&#45;&gt;Node13 -->
<g id="edge31" class="edge">
<title>Node20&#45;&gt;Node13</title>
<path fill="none" stroke="midnightblue" d="M284.83,-162C273.85,-162 262.29,-162 251.15,-162"/>
<polygon fill="midnightblue" stroke="midnightblue" points="285.13,-165.5 295.13,-162 285.13,-158.5 285.13,-165.5"/>
</g>
</g>
</svg>
