<?xml version="1.0" encoding="UTF-8" standalone="no"?>
<!DOCTYPE svg PUBLIC "-//W3C//DTD SVG 1.1//EN"
 "http://www.w3.org/Graphics/SVG/1.1/DTD/svg11.dtd">
<!-- Generated by graphviz version 2.43.0 (0)
 -->
<!-- Title: hinge_sf Pages: 1 -->
<svg width="387pt" height="598pt"
 viewBox="0.00 0.00 387.00 598.00" xmlns="http://www.w3.org/2000/svg" xmlns:xlink="http://www.w3.org/1999/xlink">
<g id="graph0" class="graph" transform="scale(1 1) rotate(0) translate(4 594)">
<title>hinge_sf</title>
<polygon fill="white" stroke="transparent" points="-4,4 -4,-594 383,-594 383,4 -4,4"/>
<!-- Node1 -->
<g id="node1" class="node">
<title>Node1</title>
<g id="a_node1"><a xlink:title="A print&#45;in&#45;place single&#45;fold hinge generator.">
<polygon fill="#bfbfbf" stroke="black" points="0,-266.5 0,-285.5 58,-285.5 58,-266.5 0,-266.5"/>
<text text-anchor="middle" x="29" y="-273.5" font-family="Helvetica,sans-Serif" font-size="10.00">hinge_sf</text>
</a>
</g>
</g>
<!-- Node2 -->
<g id="node2" class="node">
<title>Node2</title>
<g id="a_node2"><a xlink:href="group__datatypes__binary.html#ga7ce4ed94d9b389ff817ea219918b8732" target="_top" xlink:title="Test if a binary bit position of an integer value equals a test bit.">
<polygon fill="white" stroke="black" points="109,-532.5 109,-551.5 188,-551.5 188,-532.5 109,-532.5"/>
<text text-anchor="middle" x="148.5" y="-539.5" font-family="Helvetica,sans-Serif" font-size="10.00">binary_bit_is</text>
</a>
</g>
</g>
<!-- Node1&#45;&gt;Node2 -->
<g id="edge1" class="edge">
<title>Node1&#45;&gt;Node2</title>
<path fill="none" stroke="midnightblue" d="M29.76,-285.64C29.39,-321.07 32.69,-445.77 94,-518 97.13,-521.69 100.94,-524.83 105.07,-527.51"/>
<polygon fill="midnightblue" stroke="midnightblue" points="103.43,-530.6 113.88,-532.37 106.82,-524.47 103.43,-530.6"/>
</g>
<!-- Node3 -->
<g id="node3" class="node">
<title>Node3</title>
<g id="a_node3"><a xlink:href="group__shapes__basic__3d.html#ga8a71b8cd52ae5ef7a2510ff579734108" target="_top" xlink:title="A cone.">
<polygon fill="white" stroke="black" points="128.5,-456.5 128.5,-475.5 168.5,-475.5 168.5,-456.5 128.5,-456.5"/>
<text text-anchor="middle" x="148.5" y="-463.5" font-family="Helvetica,sans-Serif" font-size="10.00">cone</text>
</a>
</g>
</g>
<!-- Node1&#45;&gt;Node3 -->
<g id="edge2" class="edge">
<title>Node1&#45;&gt;Node3</title>
<path fill="none" stroke="midnightblue" d="M30.82,-285.65C33.76,-314.35 46.31,-400.11 94,-447 100.69,-453.58 109.8,-457.89 118.61,-460.71"/>
<polygon fill="midnightblue" stroke="midnightblue" points="117.71,-464.1 128.28,-463.31 119.53,-457.34 117.71,-464.1"/>
</g>
<!-- Node5 -->
<g id="node5" class="node">
<title>Node5</title>
<g id="a_node5"><a xlink:href="group__datatypes__iterable__operate.html#ga3d37c2b0067d1661724bd89955c8f6ce" target="_top" xlink:title="Return an element of an iterable when it exists or a default value otherwise.">
<polygon fill="white" stroke="black" points="269.5,-380.5 269.5,-399.5 348.5,-399.5 348.5,-380.5 269.5,-380.5"/>
<text text-anchor="middle" x="309" y="-387.5" font-family="Helvetica,sans-Serif" font-size="10.00">defined_e_or</text>
</a>
</g>
</g>
<!-- Node1&#45;&gt;Node5 -->
<g id="edge8" class="edge">
<title>Node1&#45;&gt;Node5</title>
<path fill="none" stroke="midnightblue" d="M34.38,-285.54C43.03,-303.14 64.05,-340.52 94,-358 144.72,-387.6 213.29,-392.98 259,-392.69"/>
<polygon fill="midnightblue" stroke="midnightblue" points="259.31,-396.18 269.25,-392.52 259.19,-389.18 259.31,-396.18"/>
</g>
<!-- Node6 -->
<g id="node6" class="node">
<title>Node6</title>
<g id="a_node6"><a xlink:href="group__datatypes__scalar__test.html#ga51d7fdb800c10f4b7479d23b89ab8d22" target="_top" xlink:title="Test if a value is defined.">
<polygon fill="white" stroke="black" points="276,-570.5 276,-589.5 342,-589.5 342,-570.5 276,-570.5"/>
<text text-anchor="middle" x="309" y="-577.5" font-family="Helvetica,sans-Serif" font-size="10.00">is_defined</text>
</a>
</g>
</g>
<!-- Node1&#45;&gt;Node6 -->
<g id="edge16" class="edge">
<title>Node1&#45;&gt;Node6</title>
<path fill="none" stroke="midnightblue" d="M30.05,-285.84C30.74,-318.75 37.42,-426.21 94,-485 129.58,-521.97 159.92,-495.15 203,-523 222.54,-535.63 219.05,-549.03 239,-561 247.21,-565.93 256.74,-569.61 266.04,-572.36"/>
<polygon fill="midnightblue" stroke="midnightblue" points="265.41,-575.81 275.98,-574.97 267.2,-569.04 265.41,-575.81"/>
</g>
<!-- Node9 -->
<g id="node9" class="node">
<title>Node9</title>
<g id="a_node9"><a xlink:href="group__datatypes__iterable__operate.html#gaa10da05023bd79eec85459298bc937c2" target="_top" xlink:title="Return the list element or scalar numeric value, if either is defined, otherwise the default value.">
<polygon fill="white" stroke="black" points="263.5,-133.5 263.5,-152.5 354.5,-152.5 354.5,-133.5 263.5,-133.5"/>
<text text-anchor="middle" x="309" y="-140.5" font-family="Helvetica,sans-Serif" font-size="10.00">defined_eon_or</text>
</a>
</g>
</g>
<!-- Node1&#45;&gt;Node9 -->
<g id="edge9" class="edge">
<title>Node1&#45;&gt;Node9</title>
<path fill="none" stroke="midnightblue" d="M33.51,-266.29C41.17,-246.65 61.33,-202.26 94,-181 141.63,-150.01 207.29,-142.33 253.28,-141.26"/>
<polygon fill="midnightblue" stroke="midnightblue" points="253.4,-144.76 263.35,-141.12 253.31,-137.76 253.4,-144.76"/>
</g>
<!-- Node10 -->
<g id="node10" class="node">
<title>Node10</title>
<g id="a_node10"><a xlink:href="group__tools__extrude.html#gab2442cfaf1ad44d6e295ab0979d9e03d" target="_top" xlink:title="Linearly extrude a 2d shape with uniformly&#45;spaced profile scaling.">
<polygon fill="white" stroke="black" points="94,-304.5 94,-323.5 203,-323.5 203,-304.5 94,-304.5"/>
<text text-anchor="middle" x="148.5" y="-311.5" font-family="Helvetica,sans-Serif" font-size="10.00">extrude_linear_uss</text>
</a>
</g>
</g>
<!-- Node1&#45;&gt;Node10 -->
<g id="edge10" class="edge">
<title>Node1&#45;&gt;Node10</title>
<path fill="none" stroke="midnightblue" d="M58.14,-285.1C73.1,-289.94 91.73,-295.96 108.1,-301.26"/>
<polygon fill="midnightblue" stroke="midnightblue" points="107.35,-304.7 117.95,-304.44 109.51,-298.03 107.35,-304.7"/>
</g>
<!-- Node11 -->
<g id="node11" class="node">
<title>Node11</title>
<g id="a_node11"><a xlink:href="group__datatypes__iterable__operate.html#gaccab3e37e43cb1d882713b3f3d6d9e1b" target="_top" xlink:title="Return the first element of an iterable value.">
<polygon fill="white" stroke="black" points="291.5,-342.5 291.5,-361.5 326.5,-361.5 326.5,-342.5 291.5,-342.5"/>
<text text-anchor="middle" x="309" y="-349.5" font-family="Helvetica,sans-Serif" font-size="10.00">first</text>
</a>
</g>
</g>
<!-- Node1&#45;&gt;Node11 -->
<g id="edge15" class="edge">
<title>Node1&#45;&gt;Node11</title>
<path fill="none" stroke="midnightblue" d="M37.43,-285.72C48.24,-299.04 69.69,-322.49 94,-333 156.7,-360.11 239.21,-358.15 281.1,-354.85"/>
<polygon fill="midnightblue" stroke="midnightblue" points="281.66,-358.31 291.31,-353.95 281.04,-351.34 281.66,-358.31"/>
</g>
<!-- Node13 -->
<g id="node13" class="node">
<title>Node13</title>
<g id="a_node13"><a xlink:href="group__datatypes__iterable__operate.html#ga894d4bec62cc9cf38d5e099de3028c54" target="_top" xlink:title="Return the second element of an iterable value.">
<polygon fill="white" stroke="black" points="283.5,-266.5 283.5,-285.5 334.5,-285.5 334.5,-266.5 283.5,-266.5"/>
<text text-anchor="middle" x="309" y="-273.5" font-family="Helvetica,sans-Serif" font-size="10.00">second</text>
</a>
</g>
</g>
<!-- Node1&#45;&gt;Node13 -->
<g id="edge27" class="edge">
<title>Node1&#45;&gt;Node13</title>
<path fill="none" stroke="midnightblue" d="M58.19,-276C109.41,-276 217.61,-276 273.29,-276"/>
<polygon fill="midnightblue" stroke="midnightblue" points="273.37,-279.5 283.37,-276 273.37,-272.5 273.37,-279.5"/>
</g>
<!-- Node14 -->
<g id="node14" class="node">
<title>Node14</title>
<g id="a_node14"><a xlink:href="group__datatypes__scalar__test.html#gac61c3ea156e546e556ae399e5d0f60ec" target="_top" xlink:title="Test if a numerical value is even.">
<polygon fill="white" stroke="black" points="121.5,-228.5 121.5,-247.5 175.5,-247.5 175.5,-228.5 121.5,-228.5"/>
<text text-anchor="middle" x="148.5" y="-235.5" font-family="Helvetica,sans-Serif" font-size="10.00">is_even</text>
</a>
</g>
</g>
<!-- Node1&#45;&gt;Node14 -->
<g id="edge17" class="edge">
<title>Node1&#45;&gt;Node14</title>
<path fill="none" stroke="midnightblue" d="M58.14,-266.9C74.15,-261.72 94.36,-255.19 111.51,-249.64"/>
<polygon fill="midnightblue" stroke="midnightblue" points="112.76,-252.91 121.2,-246.51 110.6,-246.25 112.76,-252.91"/>
</g>
<!-- Node15 -->
<g id="node15" class="node">
<title>Node15</title>
<g id="a_node15"><a xlink:href="group__datatypes__iterable__operate.html#ga4f04409e3fce7bf8226e4fde98f514c0" target="_top" xlink:title="Return the last element of an iterable value.">
<polygon fill="white" stroke="black" points="131,-190.5 131,-209.5 166,-209.5 166,-190.5 131,-190.5"/>
<text text-anchor="middle" x="148.5" y="-197.5" font-family="Helvetica,sans-Serif" font-size="10.00">last</text>
</a>
</g>
</g>
<!-- Node1&#45;&gt;Node15 -->
<g id="edge18" class="edge">
<title>Node1&#45;&gt;Node15</title>
<path fill="none" stroke="midnightblue" d="M38.64,-266.26C50.16,-253.78 71.72,-232.19 94,-219 102.38,-214.04 112.26,-210.08 121.24,-207.08"/>
<polygon fill="midnightblue" stroke="midnightblue" points="122.34,-210.41 130.86,-204.11 120.27,-203.72 122.34,-210.41"/>
</g>
<!-- Node16 -->
<g id="node16" class="node">
<title>Node16</title>
<g id="a_node16"><a xlink:href="group__shapes__polygon.html#ga9c1bd914355d92f9d66ba0e5c2d9dbac" target="_top" xlink:title="A polygon rectangle with vertex rounding.">
<polygon fill="white" stroke="black" points="108.5,-418.5 108.5,-437.5 188.5,-437.5 188.5,-418.5 108.5,-418.5"/>
<text text-anchor="middle" x="148.5" y="-425.5" font-family="Helvetica,sans-Serif" font-size="10.00">pg_rectangle</text>
</a>
</g>
</g>
<!-- Node1&#45;&gt;Node16 -->
<g id="edge19" class="edge">
<title>Node1&#45;&gt;Node16</title>
<path fill="none" stroke="midnightblue" d="M32.41,-285.7C38.68,-309.06 57.6,-369.09 94,-404 98,-407.83 102.71,-411.12 107.65,-413.92"/>
<polygon fill="midnightblue" stroke="midnightblue" points="106.19,-417.1 116.69,-418.45 109.32,-410.84 106.19,-417.1"/>
</g>
<!-- Node18 -->
<g id="node18" class="node">
<title>Node18</title>
<g id="a_node18"><a xlink:href="group__models__3d__fastener__screws.html#ga57dcfe1241e15eaa58ccd08891504a93" target="_top" xlink:title="Flat and beveled&#45;head fastener bore with nut, nut slot, and bore tolerance.">
<polygon fill="white" stroke="black" points="112.5,-114.5 112.5,-133.5 184.5,-133.5 184.5,-114.5 112.5,-114.5"/>
<text text-anchor="middle" x="148.5" y="-121.5" font-family="Helvetica,sans-Serif" font-size="10.00">screw_bore</text>
</a>
</g>
</g>
<!-- Node1&#45;&gt;Node18 -->
<g id="edge23" class="edge">
<title>Node1&#45;&gt;Node18</title>
<path fill="none" stroke="midnightblue" d="M32.41,-266.3C38.68,-242.94 57.6,-182.91 94,-148 98,-144.17 102.71,-140.88 107.65,-138.08"/>
<polygon fill="midnightblue" stroke="midnightblue" points="109.32,-141.16 116.69,-133.55 106.19,-134.9 109.32,-141.16"/>
</g>
<!-- Node19 -->
<g id="node19" class="node">
<title>Node19</title>
<g id="a_node19"><a xlink:href="group__datatypes__list__operate.html#ga7b8e6f2bbfa72ae61e39377e5ca6b5be" target="_top" xlink:title="Select specified element from list or return a default.">
<polygon fill="white" stroke="black" points="279.5,-76.5 279.5,-95.5 338.5,-95.5 338.5,-76.5 279.5,-76.5"/>
<text text-anchor="middle" x="309" y="-83.5" font-family="Helvetica,sans-Serif" font-size="10.00">select_ci</text>
</a>
</g>
</g>
<!-- Node1&#45;&gt;Node19 -->
<g id="edge28" class="edge">
<title>Node1&#45;&gt;Node19</title>
<path fill="none" stroke="midnightblue" d="M30.28,-266.19C31.73,-236.26 40.53,-145.7 94,-105 144.63,-66.46 222.82,-70.85 269.35,-78.07"/>
<polygon fill="midnightblue" stroke="midnightblue" points="268.89,-81.54 279.33,-79.73 270.05,-74.63 268.89,-81.54"/>
</g>
<!-- Node20 -->
<g id="node20" class="node">
<title>Node20</title>
<g id="a_node20"><a xlink:href="group__datatypes__list__operate.html#gab842ea235bf5fc40a14512083b49c8d2" target="_top" xlink:title="Convert a list of values to a concatenated string.">
<polygon fill="white" stroke="black" points="132.5,-38.5 132.5,-57.5 164.5,-57.5 164.5,-38.5 132.5,-38.5"/>
<text text-anchor="middle" x="148.5" y="-45.5" font-family="Helvetica,sans-Serif" font-size="10.00">strl</text>
</a>
</g>
</g>
<!-- Node1&#45;&gt;Node20 -->
<g id="edge29" class="edge">
<title>Node1&#45;&gt;Node20</title>
<path fill="none" stroke="midnightblue" d="M30.34,-266.12C31.96,-234.04 41.23,-131.37 94,-72 101.51,-63.55 112.56,-57.92 122.68,-54.25"/>
<polygon fill="midnightblue" stroke="midnightblue" points="123.83,-57.55 132.31,-51.2 121.72,-50.88 123.83,-57.55"/>
</g>
<!-- Node21 -->
<g id="node21" class="node">
<title>Node21</title>
<g id="a_node21"><a xlink:href="group__datatypes__iterable__operate.html#ga4a000b3543933067bb00c6950e9122b3" target="_top" xlink:title="Return the third element of an iterable value.">
<polygon fill="white" stroke="black" points="129,-0.5 129,-19.5 168,-19.5 168,-0.5 129,-0.5"/>
<text text-anchor="middle" x="148.5" y="-7.5" font-family="Helvetica,sans-Serif" font-size="10.00">third</text>
</a>
</g>
</g>
<!-- Node1&#45;&gt;Node21 -->
<g id="edge30" class="edge">
<title>Node1&#45;&gt;Node21</title>
<path fill="none" stroke="midnightblue" d="M29.52,-266.5C28.22,-230.44 28.48,-100.54 94,-29 100.53,-21.87 109.91,-17.42 119,-14.63"/>
<polygon fill="midnightblue" stroke="midnightblue" points="120.11,-17.96 128.97,-12.15 118.42,-11.17 120.11,-17.96"/>
</g>
<!-- Node4 -->
<g id="node4" class="node">
<title>Node4</title>
<g id="a_node4"><a xlink:href="group__units__angle.html#ga06a917b77748dfb74e765bcd7c4c0219" target="_top" xlink:title="Convert an angle from some units to another.">
<polygon fill="white" stroke="black" points="287,-494.5 287,-513.5 331,-513.5 331,-494.5 287,-494.5"/>
<text text-anchor="middle" x="309" y="-501.5" font-family="Helvetica,sans-Serif" font-size="10.00">angle</text>
</a>
</g>
</g>
<!-- Node3&#45;&gt;Node4 -->
<g id="edge3" class="edge">
<title>Node3&#45;&gt;Node4</title>
<path fill="none" stroke="midnightblue" d="M168.62,-470.58C195.51,-477.03 244.82,-488.85 277,-496.57"/>
<polygon fill="midnightblue" stroke="midnightblue" points="276.25,-499.99 286.79,-498.92 277.89,-493.18 276.25,-499.99"/>
</g>
<!-- Node3&#45;&gt;Node5 -->
<g id="edge4" class="edge">
<title>Node3&#45;&gt;Node5</title>
<path fill="none" stroke="midnightblue" d="M168.57,-461.59C179.26,-458.56 192.51,-453.83 203,-447 222.5,-434.31 219.05,-420.97 239,-409 245.3,-405.22 252.37,-402.17 259.52,-399.72"/>
<polygon fill="midnightblue" stroke="midnightblue" points="260.72,-403.01 269.25,-396.73 258.66,-396.32 260.72,-403.01"/>
</g>
<!-- Node3&#45;&gt;Node6 -->
<g id="edge5" class="edge">
<title>Node3&#45;&gt;Node6</title>
<path fill="none" stroke="midnightblue" d="M168.66,-471.08C179.78,-474.82 193.42,-480.87 203,-490 228.61,-514.42 211.6,-538.61 239,-561 246.71,-567.3 256.36,-571.52 265.97,-574.34"/>
<polygon fill="midnightblue" stroke="midnightblue" points="265.35,-577.79 275.9,-576.81 267.04,-571 265.35,-577.79"/>
</g>
<!-- Node7 -->
<g id="node7" class="node">
<title>Node7</title>
<g id="a_node7"><a xlink:href="group__math__polygon.html#ga7a0eff64929a142fc507615f83e3bd58" target="_top" xlink:title="Compute coordinates that round all of the vertices between each adjacent edges in 2D.">
<polygon fill="white" stroke="black" points="239,-456.5 239,-475.5 379,-475.5 379,-456.5 239,-456.5"/>
<text text-anchor="middle" x="309" y="-463.5" font-family="Helvetica,sans-Serif" font-size="10.00">polygon_round_eve_all_p</text>
</a>
</g>
</g>
<!-- Node3&#45;&gt;Node7 -->
<g id="edge6" class="edge">
<title>Node3&#45;&gt;Node7</title>
<path fill="none" stroke="midnightblue" d="M168.62,-466C183.83,-466 206.2,-466 228.59,-466"/>
<polygon fill="midnightblue" stroke="midnightblue" points="228.86,-469.5 238.86,-466 228.86,-462.5 228.86,-469.5"/>
</g>
<!-- Node8 -->
<g id="node8" class="node">
<title>Node8</title>
<g id="a_node8"><a xlink:href="group__math__triangle.html#gaab9b812d15418fd05c9d93f3bfcc1989" target="_top" xlink:title="Compute a set of vertex coordinates for a triangle given its side lengths in 2D.">
<polygon fill="white" stroke="black" points="253.5,-532.5 253.5,-551.5 364.5,-551.5 364.5,-532.5 253.5,-532.5"/>
<text text-anchor="middle" x="309" y="-539.5" font-family="Helvetica,sans-Serif" font-size="10.00">triangle2d_sss2ppp</text>
</a>
</g>
</g>
<!-- Node3&#45;&gt;Node8 -->
<g id="edge7" class="edge">
<title>Node3&#45;&gt;Node8</title>
<path fill="none" stroke="midnightblue" d="M168.59,-472.83C179.16,-477.03 192.28,-482.95 203,-490 221.13,-501.93 220.01,-512.49 239,-523 243.13,-525.29 247.56,-527.31 252.1,-529.1"/>
<polygon fill="midnightblue" stroke="midnightblue" points="250.93,-532.4 261.52,-532.46 253.28,-525.81 250.93,-532.4"/>
</g>
<!-- Node10&#45;&gt;Node5 -->
<g id="edge11" class="edge">
<title>Node10&#45;&gt;Node5</title>
<path fill="none" stroke="midnightblue" d="M161.86,-323.58C178.53,-336.08 209.54,-357.92 239,-371 245.41,-373.85 252.35,-376.36 259.27,-378.55"/>
<polygon fill="midnightblue" stroke="midnightblue" points="258.75,-382.05 269.33,-381.53 260.73,-375.34 258.75,-382.05"/>
</g>
<!-- Node10&#45;&gt;Node11 -->
<g id="edge12" class="edge">
<title>Node10&#45;&gt;Node11</title>
<path fill="none" stroke="midnightblue" d="M189.5,-323.59C218.22,-330.48 256.16,-339.57 281.28,-345.59"/>
<polygon fill="midnightblue" stroke="midnightblue" points="280.66,-349.04 291.2,-347.97 282.29,-342.24 280.66,-349.04"/>
</g>
<!-- Node12 -->
<g id="node12" class="node">
<title>Node12</title>
<g id="a_node12"><a xlink:href="group__datatypes__scalar__test.html#ga258e8911375d30ff85a6e52df01dc1c5" target="_top" xlink:title="Test if a value is a single non&#45;iterable value.">
<polygon fill="white" stroke="black" points="279.5,-304.5 279.5,-323.5 338.5,-323.5 338.5,-304.5 279.5,-304.5"/>
<text text-anchor="middle" x="309" y="-311.5" font-family="Helvetica,sans-Serif" font-size="10.00">is_scalar</text>
</a>
</g>
</g>
<!-- Node10&#45;&gt;Node12 -->
<g id="edge13" class="edge">
<title>Node10&#45;&gt;Node12</title>
<path fill="none" stroke="midnightblue" d="M203.16,-314C224.78,-314 249.25,-314 269.1,-314"/>
<polygon fill="midnightblue" stroke="midnightblue" points="269.32,-317.5 279.32,-314 269.32,-310.5 269.32,-317.5"/>
</g>
<!-- Node10&#45;&gt;Node13 -->
<g id="edge14" class="edge">
<title>Node10&#45;&gt;Node13</title>
<path fill="none" stroke="midnightblue" d="M189.5,-304.41C215.33,-298.22 248.62,-290.24 273.33,-284.31"/>
<polygon fill="midnightblue" stroke="midnightblue" points="274.45,-287.64 283.35,-281.91 272.81,-280.84 274.45,-287.64"/>
</g>
<!-- Node16&#45;&gt;Node5 -->
<g id="edge20" class="edge">
<title>Node16&#45;&gt;Node5</title>
<path fill="none" stroke="midnightblue" d="M188.68,-418.61C210.08,-413.48 236.77,-407.08 259.48,-401.63"/>
<polygon fill="midnightblue" stroke="midnightblue" points="260.36,-405.02 269.27,-399.29 258.73,-398.21 260.36,-405.02"/>
</g>
<!-- Node16&#45;&gt;Node7 -->
<g id="edge21" class="edge">
<title>Node16&#45;&gt;Node7</title>
<path fill="none" stroke="midnightblue" d="M188.68,-437.39C209.67,-442.42 235.74,-448.68 258.16,-454.05"/>
<polygon fill="midnightblue" stroke="midnightblue" points="257.63,-457.52 268.17,-456.45 259.26,-450.72 257.63,-457.52"/>
</g>
<!-- Node17 -->
<g id="node17" class="node">
<title>Node17</title>
<g id="a_node17"><a xlink:href="group__math__linear__algebra.html#gaeabe74699fd0a437bad9a1d442bfd111" target="_top" xlink:title="Translate all coordinates dimensions.">
<polygon fill="white" stroke="black" points="273.5,-418.5 273.5,-437.5 344.5,-437.5 344.5,-418.5 273.5,-418.5"/>
<text text-anchor="middle" x="309" y="-425.5" font-family="Helvetica,sans-Serif" font-size="10.00">translate_p</text>
</a>
</g>
</g>
<!-- Node16&#45;&gt;Node17 -->
<g id="edge22" class="edge">
<title>Node16&#45;&gt;Node17</title>
<path fill="none" stroke="midnightblue" d="M188.68,-428C211.28,-428 239.78,-428 263.26,-428"/>
<polygon fill="midnightblue" stroke="midnightblue" points="263.31,-431.5 273.31,-428 263.31,-424.5 263.31,-431.5"/>
</g>
<!-- Node18&#45;&gt;Node5 -->
<g id="edge24" class="edge">
<title>Node18&#45;&gt;Node5</title>
<path fill="none" stroke="midnightblue" d="M162.27,-133.87C174.72,-144.22 193.16,-161.64 203,-181 241.96,-257.61 180.75,-307.8 239,-371 244.57,-377.04 251.86,-381.23 259.62,-384.12"/>
<polygon fill="midnightblue" stroke="midnightblue" points="258.64,-387.48 269.23,-387.03 260.68,-380.78 258.64,-387.48"/>
</g>
<!-- Node18&#45;&gt;Node9 -->
<g id="edge25" class="edge">
<title>Node18&#45;&gt;Node9</title>
<path fill="none" stroke="midnightblue" d="M184.68,-128.22C204.76,-130.62 230.39,-133.7 253.08,-136.42"/>
<polygon fill="midnightblue" stroke="midnightblue" points="252.92,-139.92 263.26,-137.64 253.75,-132.97 252.92,-139.92"/>
</g>
<!-- Node18&#45;&gt;Node19 -->
<g id="edge26" class="edge">
<title>Node18&#45;&gt;Node19</title>
<path fill="none" stroke="midnightblue" d="M184.68,-115.57C209.8,-109.54 243.58,-101.44 269.44,-95.25"/>
<polygon fill="midnightblue" stroke="midnightblue" points="270.37,-98.62 279.27,-92.89 268.73,-91.81 270.37,-98.62"/>
</g>
</g>
</svg>
