<?xml version="1.0" encoding="UTF-8" standalone="no"?>
<!DOCTYPE svg PUBLIC "-//W3C//DTD SVG 1.1//EN"
 "http://www.w3.org/Graphics/SVG/1.1/DTD/svg11.dtd">
<!-- Generated by graphviz version 2.43.0 (0)
 -->
<!-- Title: draft_title_block Pages: 1 -->
<svg width="537pt" height="180pt"
 viewBox="0.00 0.00 537.00 180.00" xmlns="http://www.w3.org/2000/svg" xmlns:xlink="http://www.w3.org/1999/xlink">
<g id="graph0" class="graph" transform="scale(1 1) rotate(0) translate(4 176)">
<title>draft_title_block</title>
<polygon fill="white" stroke="transparent" points="-4,4 -4,-176 533,-176 533,4 -4,4"/>
<!-- Node1 -->
<g id="node1" class="node">
<title>Node1</title>
<g id="a_node1"><a xlink:title="Construct a sheet title block.">
<polygon fill="#bfbfbf" stroke="black" points="0,-76.5 0,-95.5 95,-95.5 95,-76.5 0,-76.5"/>
<text text-anchor="middle" x="47.5" y="-83.5" font-family="Helvetica,sans-Serif" font-size="10.00">draft_title_block</text>
</a>
</g>
</g>
<!-- Node2 -->
<g id="node2" class="node">
<title>Node2</title>
<g id="a_node2"><a xlink:href="group__tools__drafting__operation.html#gabd9d0d4e3819d3bdec5e3649c8ad2c79" target="_top" xlink:title="Construct a text table that is populated by predefined zones.">
<polygon fill="white" stroke="black" points="131,-76.5 131,-95.5 205,-95.5 205,-76.5 131,-76.5"/>
<text text-anchor="middle" x="168" y="-83.5" font-family="Helvetica,sans-Serif" font-size="10.00">draft_ztable</text>
</a>
</g>
</g>
<!-- Node1&#45;&gt;Node2 -->
<g id="edge1" class="edge">
<title>Node1&#45;&gt;Node2</title>
<path fill="none" stroke="midnightblue" d="M95.33,-86C103.61,-86 112.23,-86 120.5,-86"/>
<polygon fill="midnightblue" stroke="midnightblue" points="120.74,-89.5 130.74,-86 120.74,-82.5 120.74,-89.5"/>
</g>
<!-- Node3 -->
<g id="node3" class="node">
<title>Node3</title>
<g id="a_node3"><a xlink:href="group__datatypes__iterable__operate.html#ga3d37c2b0067d1661724bd89955c8f6ce" target="_top" xlink:title="Return an element of an iterable when it exists or a default value otherwise.">
<polygon fill="white" stroke="black" points="280,-152.5 280,-171.5 359,-171.5 359,-152.5 280,-152.5"/>
<text text-anchor="middle" x="319.5" y="-159.5" font-family="Helvetica,sans-Serif" font-size="10.00">defined_e_or</text>
</a>
</g>
</g>
<!-- Node2&#45;&gt;Node3 -->
<g id="edge2" class="edge">
<title>Node2&#45;&gt;Node3</title>
<path fill="none" stroke="midnightblue" d="M178.32,-95.61C191.22,-108.35 215.8,-130.67 241,-143 250.05,-147.43 260.22,-150.88 270.13,-153.54"/>
<polygon fill="midnightblue" stroke="midnightblue" points="269.37,-156.96 279.92,-155.95 271.05,-150.16 269.37,-156.96"/>
</g>
<!-- Node4 -->
<g id="node4" class="node">
<title>Node4</title>
<g id="a_node4"><a xlink:href="group__tools__drafting__primitive.html#ga9e80066573c9e9b2b1cf6af71cf453b0" target="_top" xlink:title="Check if any identified layers are active.">
<polygon fill="white" stroke="black" points="253,-114.5 253,-133.5 386,-133.5 386,-114.5 253,-114.5"/>
<text text-anchor="middle" x="319.5" y="-121.5" font-family="Helvetica,sans-Serif" font-size="10.00">draft_layers_any_active</text>
</a>
</g>
</g>
<!-- Node2&#45;&gt;Node4 -->
<g id="edge3" class="edge">
<title>Node2&#45;&gt;Node4</title>
<path fill="none" stroke="midnightblue" d="M204.86,-95.6C216.39,-98.64 229.22,-102 241,-105 250.07,-107.31 259.75,-109.72 269.09,-112.02"/>
<polygon fill="midnightblue" stroke="midnightblue" points="268.49,-115.48 279.04,-114.47 270.16,-108.68 268.49,-115.48"/>
</g>
<!-- Node5 -->
<g id="node5" class="node">
<title>Node5</title>
<g id="a_node5"><a xlink:href="group__tools__drafting__primitive.html#ga9a4b6eb4b387537f7bc1cc6c4d8f4449" target="_top" xlink:title="Extrude 2D drafted constructions to 3D if configured.">
<polygon fill="white" stroke="black" points="241,-76.5 241,-95.5 398,-95.5 398,-76.5 241,-76.5"/>
<text text-anchor="middle" x="319.5" y="-83.5" font-family="Helvetica,sans-Serif" font-size="10.00">draft_make_3d_if_configured</text>
</a>
</g>
</g>
<!-- Node2&#45;&gt;Node5 -->
<g id="edge4" class="edge">
<title>Node2&#45;&gt;Node5</title>
<path fill="none" stroke="midnightblue" d="M205.19,-86C213.1,-86 221.81,-86 230.77,-86"/>
<polygon fill="midnightblue" stroke="midnightblue" points="230.97,-89.5 240.97,-86 230.97,-82.5 230.97,-89.5"/>
</g>
<!-- Node7 -->
<g id="node7" class="node">
<title>Node7</title>
<g id="a_node7"><a xlink:href="group__tools__drafting__primitive.html#ga38f380c0ebc432c475fc6217a41496df" target="_top" xlink:title="Get ztable zone coordinates given a zone index.">
<polygon fill="white" stroke="black" points="257.5,-38.5 257.5,-57.5 381.5,-57.5 381.5,-38.5 257.5,-38.5"/>
<text text-anchor="middle" x="319.5" y="-45.5" font-family="Helvetica,sans-Serif" font-size="10.00">draft_ztable_get_zone</text>
</a>
</g>
</g>
<!-- Node2&#45;&gt;Node7 -->
<g id="edge6" class="edge">
<title>Node2&#45;&gt;Node7</title>
<path fill="none" stroke="midnightblue" d="M204.86,-76.4C216.39,-73.36 229.22,-70 241,-67 250.07,-64.69 259.75,-62.28 269.09,-59.98"/>
<polygon fill="midnightblue" stroke="midnightblue" points="270.16,-63.32 279.04,-57.53 268.49,-56.52 270.16,-63.32"/>
</g>
<!-- Node8 -->
<g id="node8" class="node">
<title>Node8</title>
<g id="a_node8"><a xlink:href="group__datatypes__map.html#ga18d78aec6f24969b9ad51595533f78b2" target="_top" xlink:title="Get the map value associated with a key.">
<polygon fill="white" stroke="black" points="273.5,-0.5 273.5,-19.5 365.5,-19.5 365.5,-0.5 273.5,-0.5"/>
<text text-anchor="middle" x="319.5" y="-7.5" font-family="Helvetica,sans-Serif" font-size="10.00">map_get_value</text>
</a>
</g>
</g>
<!-- Node2&#45;&gt;Node8 -->
<g id="edge7" class="edge">
<title>Node2&#45;&gt;Node8</title>
<path fill="none" stroke="midnightblue" d="M178.32,-76.39C191.22,-63.65 215.8,-41.33 241,-29 248.09,-25.53 255.86,-22.67 263.65,-20.31"/>
<polygon fill="midnightblue" stroke="midnightblue" points="264.79,-23.62 273.5,-17.58 262.93,-16.88 264.79,-23.62"/>
</g>
<!-- Node6 -->
<g id="node6" class="node">
<title>Node6</title>
<g id="a_node6"><a xlink:href="group__tools__drafting__config.html#gabb4fa7092928ba8803b550ac6d733f64" target="_top" xlink:title="Get drafting configuration default helper function.">
<polygon fill="white" stroke="black" points="434,-76.5 434,-95.5 529,-95.5 529,-76.5 434,-76.5"/>
<text text-anchor="middle" x="481.5" y="-83.5" font-family="Helvetica,sans-Serif" font-size="10.00">draft_get_config</text>
</a>
</g>
</g>
<!-- Node5&#45;&gt;Node6 -->
<g id="edge5" class="edge">
<title>Node5&#45;&gt;Node6</title>
<path fill="none" stroke="midnightblue" d="M398.16,-86C406.67,-86 415.21,-86 423.41,-86"/>
<polygon fill="midnightblue" stroke="midnightblue" points="423.57,-89.5 433.57,-86 423.57,-82.5 423.57,-89.5"/>
</g>
</g>
</svg>
