<?xml version="1.0" encoding="UTF-8" standalone="no"?>
<!DOCTYPE svg PUBLIC "-//W3C//DTD SVG 1.1//EN"
 "http://www.w3.org/Graphics/SVG/1.1/DTD/svg11.dtd">
<!-- Generated by graphviz version 2.43.0 (0)
 -->
<!-- Title: Motion Pages: 1 -->
<svg width="422pt" height="175pt"
 viewBox="0.00 0.00 422.00 175.00" xmlns="http://www.w3.org/2000/svg" xmlns:xlink="http://www.w3.org/1999/xlink">
<g id="graph0" class="graph" transform="scale(1 1) rotate(0) translate(4 171)">
<title>Motion</title>
<polygon fill="white" stroke="transparent" points="-4,4 -4,-171 418,-171 418,4 -4,4"/>
<!-- Node4 -->
<g id="node1" class="node">
<title>Node4</title>
<g id="a_node1"><a xlink:href="group__database__component__motion__Motor.html" target="_top" xlink:title=" ">
<polygon fill="white" stroke="black" points="393.5,-167 348.5,-167 348.5,-148 393.5,-148 393.5,-167"/>
<text text-anchor="middle" x="371" y="-155" font-family="Helvetica,sans-Serif" font-size="10.00">Motor</text>
</a>
</g>
</g>
<!-- Node5 -->
<g id="node2" class="node">
<title>Node5</title>
<g id="a_node2"><a xlink:href="group__database__component__motion__bearing__linear__lmxuu.html" target="_top" xlink:title="[bearing] Linear motion bearing; linear_lmxuu; lm.">
<polygon fill="white" stroke="black" points="411,-130 331,-130 331,-111 411,-111 411,-130"/>
<text text-anchor="middle" x="371" y="-118" font-family="Helvetica,sans-Serif" font-size="10.00">linear_lmxuu</text>
</a>
</g>
</g>
<!-- Node3 -->
<g id="node3" class="node">
<title>Node3</title>
<g id="a_node3"><a xlink:href="group__database__component__motion__Bearing.html" target="_top" xlink:title=" ">
<polygon fill="white" stroke="black" points="398,-93 344,-93 344,-74 398,-74 398,-93"/>
<text text-anchor="middle" x="371" y="-81" font-family="Helvetica,sans-Serif" font-size="10.00">Bearing</text>
</a>
</g>
</g>
<!-- Node2 -->
<g id="node4" class="node">
<title>Node2</title>
<g id="a_node4"><a xlink:href="group__database__component.html" target="_top" xlink:title="Design component specifications.">
<polygon fill="white" stroke="black" points="73,-93 0,-93 0,-74 73,-74 73,-93"/>
<text text-anchor="middle" x="36.5" y="-81" font-family="Helvetica,sans-Serif" font-size="10.00">Component</text>
</a>
</g>
</g>
<!-- Node1 -->
<g id="node6" class="node">
<title>Node1</title>
<g id="a_node6"><a xlink:title="Mechanical motion design component specifications.">
<polygon fill="#bfbfbf" stroke="black" points="160,-93 110,-93 110,-74 160,-74 160,-93"/>
<text text-anchor="middle" x="135" y="-81" font-family="Helvetica,sans-Serif" font-size="10.00">Motion</text>
</a>
</g>
</g>
<!-- Node2&#45;&gt;Node1 -->
<g id="edge1" class="edge">
<title>Node2&#45;&gt;Node1</title>
<path fill="none" stroke="black" d="M83.39,-83.5C92.56,-83.5 101.84,-83.5 109.91,-83.5"/>
<polygon fill="black" stroke="black" points="83.16,-80 73.16,-83.5 83.16,-87 83.16,-80"/>
</g>
<!-- Node6 -->
<g id="node5" class="node">
<title>Node6</title>
<g id="a_node5"><a xlink:href="group__database__component__motion__bearing__radial__ball.html" target="_top" xlink:title="[bearing] Radial ball bearing; radial_ball; rbb.">
<polygon fill="white" stroke="black" points="405,-56 337,-56 337,-37 405,-37 405,-56"/>
<text text-anchor="middle" x="371" y="-44" font-family="Helvetica,sans-Serif" font-size="10.00">radial_ball</text>
</a>
</g>
</g>
<!-- Node1&#45;&gt;Node4 -->
<g id="edge3" class="edge">
<title>Node1&#45;&gt;Node4</title>
<path fill="none" stroke="black" d="M147.4,-101.59C154.83,-111.79 165.46,-123.8 178,-130.5 233.82,-160.32 311.2,-160.9 348.37,-159.11"/>
<polygon fill="black" stroke="black" points="150.25,-99.56 141.73,-93.27 144.47,-103.51 150.25,-99.56"/>
</g>
<!-- Node1&#45;&gt;Node5 -->
<g id="edge4" class="edge">
<title>Node1&#45;&gt;Node5</title>
<path fill="none" stroke="darkgreen" stroke-dasharray="5,2" d="M160.19,-92.49C165.97,-94.38 172.15,-96.19 178,-97.5 230.25,-109.21 291.92,-115.26 331,-118.15"/>
<text text-anchor="middle" x="244" y="-118.5" font-family="Helvetica,sans-Serif" font-size="10.00">bearing_linear_lmxuu.scad</text>
</g>
<!-- Node1&#45;&gt;Node3 -->
<g id="edge2" class="edge">
<title>Node1&#45;&gt;Node3</title>
<path fill="none" stroke="black" d="M170.2,-83.5C217.36,-83.5 301.35,-83.5 343.84,-83.5"/>
<polygon fill="black" stroke="black" points="170.16,-80 160.16,-83.5 170.16,-87 170.16,-80"/>
</g>
<!-- Node1&#45;&gt;Node6 -->
<g id="edge5" class="edge">
<title>Node1&#45;&gt;Node6</title>
<path fill="none" stroke="darkgreen" stroke-dasharray="5,2" d="M159.7,-73.97C165.6,-71.89 171.97,-69.9 178,-68.5 232.9,-55.73 298.43,-50.25 337,-47.98"/>
<text text-anchor="middle" x="244" y="-71.5" font-family="Helvetica,sans-Serif" font-size="10.00">bearing_radial_ball.scad</text>
</g>
<!-- Node7 -->
<g id="node7" class="node">
<title>Node7</title>
<g id="a_node7"><a xlink:href="group__database__component__motion__motor__nema__stepper.html" target="_top" xlink:title="[motor] Nema stepper motor; nema_stepper; stepper motor.">
<polygon fill="white" stroke="black" points="414,-19 328,-19 328,0 414,0 414,-19"/>
<text text-anchor="middle" x="371" y="-7" font-family="Helvetica,sans-Serif" font-size="10.00">nema_stepper</text>
</a>
</g>
</g>
<!-- Node1&#45;&gt;Node7 -->
<g id="edge6" class="edge">
<title>Node1&#45;&gt;Node7</title>
<path fill="none" stroke="darkgreen" stroke-dasharray="5,2" d="M141.42,-73.91C148.34,-62.66 161.42,-44.41 178,-35.5 224.81,-10.33 286.98,-6.33 327.71,-6.95"/>
<text text-anchor="middle" x="244" y="-38.5" font-family="Helvetica,sans-Serif" font-size="10.00">motor_nema_stepper.scad</text>
</g>
</g>
</svg>
