<?xml version="1.0" encoding="UTF-8" standalone="no"?>
<!DOCTYPE svg PUBLIC "-//W3C//DTD SVG 1.1//EN"
 "http://www.w3.org/Graphics/SVG/1.1/DTD/svg11.dtd">
<!-- Generated by graphviz version 2.43.0 (0)
 -->
<!-- Title: map_check Pages: 1 -->
<svg width="279pt" height="142pt"
 viewBox="0.00 0.00 279.00 142.00" xmlns="http://www.w3.org/2000/svg" xmlns:xlink="http://www.w3.org/1999/xlink">
<g id="graph0" class="graph" transform="scale(1 1) rotate(0) translate(4 138)">
<title>map_check</title>
<polygon fill="white" stroke="transparent" points="-4,4 -4,-138 275,-138 275,4 -4,4"/>
<!-- Node1 -->
<g id="node1" class="node">
<title>Node1</title>
<g id="a_node1"><a xlink:title="Perform basic format checks on a map and output errors to console.">
<polygon fill="#bfbfbf" stroke="black" points="0,-57.5 0,-76.5 72,-76.5 72,-57.5 0,-57.5"/>
<text text-anchor="middle" x="36" y="-64.5" font-family="Helvetica,sans-Serif" font-size="10.00">map_check</text>
</a>
</g>
</g>
<!-- Node2 -->
<g id="node2" class="node">
<title>Node2</title>
<g id="a_node2"><a xlink:href="group__datatypes__iterable__operate.html#gaccab3e37e43cb1d882713b3f3d6d9e1b" target="_top" xlink:title="Return the first element of an iterable value.">
<polygon fill="white" stroke="black" points="132.5,-114.5 132.5,-133.5 167.5,-133.5 167.5,-114.5 132.5,-114.5"/>
<text text-anchor="middle" x="150" y="-121.5" font-family="Helvetica,sans-Serif" font-size="10.00">first</text>
</a>
</g>
</g>
<!-- Node1&#45;&gt;Node2 -->
<g id="edge1" class="edge">
<title>Node1&#45;&gt;Node2</title>
<path fill="none" stroke="midnightblue" d="M54.36,-76.65C68.65,-84.51 89.48,-95.76 108,-105 112.79,-107.39 117.94,-109.86 122.92,-112.19"/>
<polygon fill="midnightblue" stroke="midnightblue" points="121.59,-115.43 132.14,-116.45 124.53,-109.08 121.59,-115.43"/>
</g>
<!-- Node3 -->
<g id="node3" class="node">
<title>Node3</title>
<g id="a_node3"><a xlink:href="group__common__console.html#gacb9540a228d2c15623784ff0b0653722" target="_top" xlink:title="Output information message to console.">
<polygon fill="white" stroke="black" points="122,-76.5 122,-95.5 178,-95.5 178,-76.5 122,-76.5"/>
<text text-anchor="middle" x="150" y="-83.5" font-family="Helvetica,sans-Serif" font-size="10.00">log_info</text>
</a>
</g>
</g>
<!-- Node1&#45;&gt;Node3 -->
<g id="edge2" class="edge">
<title>Node1&#45;&gt;Node3</title>
<path fill="none" stroke="midnightblue" d="M72.13,-72.96C84.79,-75.11 99.1,-77.53 111.92,-79.71"/>
<polygon fill="midnightblue" stroke="midnightblue" points="111.37,-83.17 121.81,-81.39 112.54,-76.26 111.37,-83.17"/>
</g>
<!-- Node5 -->
<g id="node5" class="node">
<title>Node5</title>
<g id="a_node5"><a xlink:href="group__common__console.html#ga1ece4e2cff9ae45c85429c226eb8362c" target="_top" xlink:title="Output warning message to console.">
<polygon fill="white" stroke="black" points="119.5,-38.5 119.5,-57.5 180.5,-57.5 180.5,-38.5 119.5,-38.5"/>
<text text-anchor="middle" x="150" y="-45.5" font-family="Helvetica,sans-Serif" font-size="10.00">log_warn</text>
</a>
</g>
</g>
<!-- Node1&#45;&gt;Node5 -->
<g id="edge4" class="edge">
<title>Node1&#45;&gt;Node5</title>
<path fill="none" stroke="midnightblue" d="M72.13,-61.04C83.96,-59.03 97.24,-56.78 109.39,-54.72"/>
<polygon fill="midnightblue" stroke="midnightblue" points="109.99,-58.17 119.27,-53.04 108.82,-51.27 109.99,-58.17"/>
</g>
<!-- Node6 -->
<g id="node6" class="node">
<title>Node6</title>
<g id="a_node6"><a xlink:href="group__datatypes__map.html#gaca8f75d5b124f26ea647d5ba147f7067" target="_top" xlink:title="Get the number of map entries.">
<polygon fill="white" stroke="black" points="108,-0.5 108,-19.5 192,-19.5 192,-0.5 108,-0.5"/>
<text text-anchor="middle" x="150" y="-7.5" font-family="Helvetica,sans-Serif" font-size="10.00">map_get_size</text>
</a>
</g>
</g>
<!-- Node1&#45;&gt;Node6 -->
<g id="edge6" class="edge">
<title>Node1&#45;&gt;Node6</title>
<path fill="none" stroke="midnightblue" d="M54.36,-57.35C68.65,-49.49 89.48,-38.24 108,-29 111.36,-27.33 114.89,-25.61 118.42,-23.94"/>
<polygon fill="midnightblue" stroke="midnightblue" points="120.04,-27.04 127.61,-19.63 117.07,-20.7 120.04,-27.04"/>
</g>
<!-- Node4 -->
<g id="node4" class="node">
<title>Node4</title>
<g id="a_node4"><a xlink:href="group__common__console.html#ga4fb6c985031c9b551777b2e9ebd2fc34" target="_top" xlink:title="Format the function call stack as a string.">
<polygon fill="white" stroke="black" points="228,-57.5 228,-76.5 271,-76.5 271,-57.5 228,-57.5"/>
<text text-anchor="middle" x="249.5" y="-64.5" font-family="Helvetica,sans-Serif" font-size="10.00">stack</text>
</a>
</g>
</g>
<!-- Node3&#45;&gt;Node4 -->
<g id="edge3" class="edge">
<title>Node3&#45;&gt;Node4</title>
<path fill="none" stroke="midnightblue" d="M178.16,-80.71C190.49,-78.31 205.12,-75.45 217.84,-72.98"/>
<polygon fill="midnightblue" stroke="midnightblue" points="218.83,-76.35 227.98,-71 217.49,-69.48 218.83,-76.35"/>
</g>
<!-- Node5&#45;&gt;Node4 -->
<g id="edge5" class="edge">
<title>Node5&#45;&gt;Node4</title>
<path fill="none" stroke="midnightblue" d="M180.52,-53.75C192.31,-56.05 205.89,-58.7 217.79,-61.02"/>
<polygon fill="midnightblue" stroke="midnightblue" points="217.26,-64.48 227.74,-62.95 218.59,-57.61 217.26,-64.48"/>
</g>
</g>
</svg>
