<?xml version="1.0" encoding="UTF-8" standalone="no"?>
<!DOCTYPE svg PUBLIC "-//W3C//DTD SVG 1.1//EN"
 "http://www.w3.org/Graphics/SVG/1.1/DTD/svg11.dtd">
<!-- Generated by graphviz version 2.43.0 (0)
 -->
<!-- Title: stack Pages: 1 -->
<svg width="430pt" height="180pt"
 viewBox="0.00 0.00 430.00 180.00" xmlns="http://www.w3.org/2000/svg" xmlns:xlink="http://www.w3.org/1999/xlink">
<g id="graph0" class="graph" transform="scale(1 1) rotate(0) translate(4 176)">
<title>stack</title>
<polygon fill="white" stroke="transparent" points="-4,4 -4,-176 426,-176 426,4 -4,4"/>
<!-- Node1 -->
<g id="node1" class="node">
<title>Node1</title>
<g id="a_node1"><a xlink:title="Format the function call stack as a string.">
<polygon fill="#bfbfbf" stroke="black" points="379,-95.5 379,-114.5 422,-114.5 422,-95.5 379,-95.5"/>
<text text-anchor="middle" x="400.5" y="-102.5" font-family="Helvetica,sans-Serif" font-size="10.00">stack</text>
</a>
</g>
</g>
<!-- Node2 -->
<g id="node2" class="node">
<title>Node2</title>
<g id="a_node2"><a xlink:href="group__common__console.html#ga149f54a142f1c69163f45f45bd39797f" target="_top" xlink:title="Output diagnostic message to console.">
<polygon fill="white" stroke="black" points="276,-152.5 276,-171.5 343,-171.5 343,-152.5 276,-152.5"/>
<text text-anchor="middle" x="309.5" y="-159.5" font-family="Helvetica,sans-Serif" font-size="10.00">log_debug</text>
</a>
</g>
</g>
<!-- Node1&#45;&gt;Node2 -->
<g id="edge1" class="edge">
<title>Node1&#45;&gt;Node2</title>
<path fill="none" stroke="midnightblue" d="M377.3,-120.4C366.97,-127.45 354.46,-135.81 343,-143 338.02,-146.13 332.52,-149.4 327.49,-152.34"/>
<polygon fill="midnightblue" stroke="midnightblue" points="379.46,-123.16 385.73,-114.62 375.5,-117.39 379.46,-123.16"/>
</g>
<!-- Node3 -->
<g id="node3" class="node">
<title>Node3</title>
<g id="a_node3"><a xlink:href="group__common__console.html#ga22d6e9c8a9f751cc5716e4a69188408a" target="_top" xlink:title="Output error message to console.">
<polygon fill="white" stroke="black" points="279.5,-114.5 279.5,-133.5 339.5,-133.5 339.5,-114.5 279.5,-114.5"/>
<text text-anchor="middle" x="309.5" y="-121.5" font-family="Helvetica,sans-Serif" font-size="10.00">log_error</text>
</a>
</g>
</g>
<!-- Node1&#45;&gt;Node3 -->
<g id="edge2" class="edge">
<title>Node1&#45;&gt;Node3</title>
<path fill="none" stroke="midnightblue" d="M369.05,-111.5C359.59,-113.52 349.18,-115.74 339.8,-117.75"/>
<polygon fill="midnightblue" stroke="midnightblue" points="369.81,-114.92 378.86,-109.41 368.35,-108.07 369.81,-114.92"/>
</g>
<!-- Node4 -->
<g id="node4" class="node">
<title>Node4</title>
<g id="a_node4"><a xlink:href="group__common__console.html#gacb9540a228d2c15623784ff0b0653722" target="_top" xlink:title="Output information message to console.">
<polygon fill="white" stroke="black" points="281.5,-76.5 281.5,-95.5 337.5,-95.5 337.5,-76.5 281.5,-76.5"/>
<text text-anchor="middle" x="309.5" y="-83.5" font-family="Helvetica,sans-Serif" font-size="10.00">log_info</text>
</a>
</g>
</g>
<!-- Node1&#45;&gt;Node4 -->
<g id="edge3" class="edge">
<title>Node1&#45;&gt;Node4</title>
<path fill="none" stroke="midnightblue" d="M368.83,-98.45C358.74,-96.3 347.6,-93.92 337.78,-91.82"/>
<polygon fill="midnightblue" stroke="midnightblue" points="368.35,-101.93 378.86,-100.59 369.81,-95.08 368.35,-101.93"/>
</g>
<!-- Node11 -->
<g id="node11" class="node">
<title>Node11</title>
<g id="a_node11"><a xlink:href="group__common__console.html#ga1ece4e2cff9ae45c85429c226eb8362c" target="_top" xlink:title="Output warning message to console.">
<polygon fill="white" stroke="black" points="279,-38.5 279,-57.5 340,-57.5 340,-38.5 279,-38.5"/>
<text text-anchor="middle" x="309.5" y="-45.5" font-family="Helvetica,sans-Serif" font-size="10.00">log_warn</text>
</a>
</g>
</g>
<!-- Node1&#45;&gt;Node11 -->
<g id="edge10" class="edge">
<title>Node1&#45;&gt;Node11</title>
<path fill="none" stroke="midnightblue" d="M377.3,-89.6C366.97,-82.55 354.46,-74.19 343,-67 338.02,-63.87 332.52,-60.6 327.49,-57.66"/>
<polygon fill="midnightblue" stroke="midnightblue" points="375.5,-92.61 385.73,-95.38 379.46,-86.84 375.5,-92.61"/>
</g>
<!-- Node5 -->
<g id="node5" class="node">
<title>Node5</title>
<g id="a_node5"><a xlink:href="group__datatypes__map.html#ga4a3d0704d80be0d9e8bae1fcb3ab7958" target="_top" xlink:title="Perform basic format checks on a map and output errors to console.">
<polygon fill="white" stroke="black" points="159,-38.5 159,-57.5 231,-57.5 231,-38.5 159,-38.5"/>
<text text-anchor="middle" x="195" y="-45.5" font-family="Helvetica,sans-Serif" font-size="10.00">map_check</text>
</a>
</g>
</g>
<!-- Node4&#45;&gt;Node5 -->
<g id="edge4" class="edge">
<title>Node4&#45;&gt;Node5</title>
<path fill="none" stroke="midnightblue" d="M271.51,-73.51C256.1,-68.3 238.49,-62.35 224.16,-57.51"/>
<polygon fill="midnightblue" stroke="midnightblue" points="270.67,-76.92 281.27,-76.8 272.91,-70.29 270.67,-76.92"/>
</g>
<!-- Node7 -->
<g id="node7" class="node">
<title>Node7</title>
<g id="a_node7"><a xlink:href="group__tools__repeat.html#gad3a61508128c356ec1348225ec9b3ce0" target="_top" xlink:title="Repeat copies of child objects about a Cartesian grid.">
<polygon fill="white" stroke="black" points="159,-76.5 159,-95.5 231,-95.5 231,-76.5 159,-76.5"/>
<text text-anchor="middle" x="195" y="-83.5" font-family="Helvetica,sans-Serif" font-size="10.00">repeat_grid</text>
</a>
</g>
</g>
<!-- Node4&#45;&gt;Node7 -->
<g id="edge6" class="edge">
<title>Node4&#45;&gt;Node7</title>
<path fill="none" stroke="midnightblue" d="M270.88,-86C258.03,-86 243.72,-86 231.08,-86"/>
<polygon fill="midnightblue" stroke="midnightblue" points="271.27,-89.5 281.27,-86 271.27,-82.5 271.27,-89.5"/>
</g>
<!-- Node8 -->
<g id="node8" class="node">
<title>Node8</title>
<g id="a_node8"><a xlink:href="group__datatypes__table.html#ga8a4429649e8b06d9f492e1a0d2653656" target="_top" xlink:title="Perform basic format checks on a table and output errors to console.">
<polygon fill="white" stroke="black" points="157.5,-114.5 157.5,-133.5 232.5,-133.5 232.5,-114.5 157.5,-114.5"/>
<text text-anchor="middle" x="195" y="-121.5" font-family="Helvetica,sans-Serif" font-size="10.00">table_check</text>
</a>
</g>
</g>
<!-- Node4&#45;&gt;Node8 -->
<g id="edge7" class="edge">
<title>Node4&#45;&gt;Node8</title>
<path fill="none" stroke="midnightblue" d="M271.51,-98.49C256.1,-103.7 238.49,-109.65 224.16,-114.49"/>
<polygon fill="midnightblue" stroke="midnightblue" points="272.91,-101.71 281.27,-95.2 270.67,-95.08 272.91,-101.71"/>
</g>
<!-- Node6 -->
<g id="node6" class="node">
<title>Node6</title>
<g id="a_node6"><a xlink:href="group__common__validation.html#ga3afe594ef417bc40429be81e044d29bc" target="_top" xlink:title="Test data structure db and output the start of test to the test log.">
<polygon fill="white" stroke="black" points="1.5,-38.5 1.5,-57.5 112.5,-57.5 112.5,-38.5 1.5,-38.5"/>
<text text-anchor="middle" x="57" y="-45.5" font-family="Helvetica,sans-Serif" font-size="10.00">map_validate_start</text>
</a>
</g>
</g>
<!-- Node5&#45;&gt;Node6 -->
<g id="edge5" class="edge">
<title>Node5&#45;&gt;Node6</title>
<path fill="none" stroke="midnightblue" d="M148.71,-48C137.17,-48 124.65,-48 112.7,-48"/>
<polygon fill="midnightblue" stroke="midnightblue" points="148.98,-51.5 158.98,-48 148.98,-44.5 148.98,-51.5"/>
</g>
<!-- Node9 -->
<g id="node9" class="node">
<title>Node9</title>
<g id="a_node9"><a xlink:href="group__datatypes__table.html#ga7a45ee72b36421f4e73cfba4488f14be" target="_top" xlink:title="Dump table getter functions to the console.">
<polygon fill="white" stroke="black" points="0,-133.5 0,-152.5 114,-152.5 114,-133.5 0,-133.5"/>
<text text-anchor="middle" x="57" y="-140.5" font-family="Helvetica,sans-Serif" font-size="10.00">table_dump_getters</text>
</a>
</g>
</g>
<!-- Node8&#45;&gt;Node9 -->
<g id="edge8" class="edge">
<title>Node8&#45;&gt;Node9</title>
<path fill="none" stroke="midnightblue" d="M147.22,-130.54C136.52,-132.03 125.05,-133.63 114.01,-135.18"/>
<polygon fill="midnightblue" stroke="midnightblue" points="147.78,-133.99 157.2,-129.14 146.81,-127.06 147.78,-133.99"/>
</g>
<!-- Node10 -->
<g id="node10" class="node">
<title>Node10</title>
<g id="a_node10"><a xlink:href="group__common__validation.html#ga19d0234700fba9de9fb0cba52a3d8e17" target="_top" xlink:title="Test data structure db and output the start of test to the test log.">
<polygon fill="white" stroke="black" points="0,-95.5 0,-114.5 114,-114.5 114,-95.5 0,-95.5"/>
<text text-anchor="middle" x="57" y="-102.5" font-family="Helvetica,sans-Serif" font-size="10.00">table_validate_start</text>
</a>
</g>
</g>
<!-- Node8&#45;&gt;Node10 -->
<g id="edge9" class="edge">
<title>Node8&#45;&gt;Node10</title>
<path fill="none" stroke="midnightblue" d="M147.22,-117.46C136.52,-115.97 125.05,-114.37 114.01,-112.82"/>
<polygon fill="midnightblue" stroke="midnightblue" points="146.81,-120.94 157.2,-118.86 147.78,-114.01 146.81,-120.94"/>
</g>
<!-- Node11&#45;&gt;Node5 -->
<g id="edge11" class="edge">
<title>Node11&#45;&gt;Node5</title>
<path fill="none" stroke="midnightblue" d="M268.61,-48C256.46,-48 243.2,-48 231.36,-48"/>
<polygon fill="midnightblue" stroke="midnightblue" points="268.94,-51.5 278.94,-48 268.94,-44.5 268.94,-51.5"/>
</g>
<!-- Node11&#45;&gt;Node7 -->
<g id="edge13" class="edge">
<title>Node11&#45;&gt;Node7</title>
<path fill="none" stroke="midnightblue" d="M270.53,-60.83C255.43,-65.92 238.37,-71.69 224.38,-76.41"/>
<polygon fill="midnightblue" stroke="midnightblue" points="271.76,-64.11 280.11,-57.59 269.52,-57.47 271.76,-64.11"/>
</g>
<!-- Node11&#45;&gt;Node8 -->
<g id="edge14" class="edge">
<title>Node11&#45;&gt;Node8</title>
<path fill="none" stroke="midnightblue" d="M281.52,-62.95C279.61,-64.26 277.75,-65.61 276,-67 257.78,-81.46 259.07,-91.67 240,-105 234.82,-108.62 228.83,-111.77 222.98,-114.4"/>
<polygon fill="midnightblue" stroke="midnightblue" points="283.44,-65.88 290.03,-57.58 279.7,-59.96 283.44,-65.88"/>
</g>
<!-- Node12 -->
<g id="node12" class="node">
<title>Node12</title>
<g id="a_node12"><a xlink:href="group__parts__3d__enclosure__power__strip.html#ga191779dedf39e4fd769a8dc96b0f8c9e" target="_top" xlink:title="A power strip generator for single gang electrical receptacles.">
<polygon fill="white" stroke="black" points="150,-0.5 150,-19.5 240,-19.5 240,-0.5 150,-0.5"/>
<text text-anchor="middle" x="195" y="-7.5" font-family="Helvetica,sans-Serif" font-size="10.00">power_strip_sg</text>
</a>
</g>
</g>
<!-- Node11&#45;&gt;Node12 -->
<g id="edge12" class="edge">
<title>Node11&#45;&gt;Node12</title>
<path fill="none" stroke="midnightblue" d="M270.53,-35.17C255.43,-30.08 238.37,-24.31 224.38,-19.59"/>
<polygon fill="midnightblue" stroke="midnightblue" points="269.52,-38.53 280.11,-38.41 271.76,-31.89 269.52,-38.53"/>
</g>
</g>
</svg>
