<?xml version="1.0" encoding="UTF-8" standalone="no"?>
<!DOCTYPE svg PUBLIC "-//W3C//DTD SVG 1.1//EN"
 "http://www.w3.org/Graphics/SVG/1.1/DTD/svg11.dtd">
<!-- Generated by graphviz version 2.43.0 (0)
 -->
<!-- Title: ellipsoid_s Pages: 1 -->
<svg width="285pt" height="47pt"
 viewBox="0.00 0.00 285.00 47.00" xmlns="http://www.w3.org/2000/svg" xmlns:xlink="http://www.w3.org/1999/xlink">
<g id="graph0" class="graph" transform="scale(1 1) rotate(0) translate(4 43)">
<title>ellipsoid_s</title>
<polygon fill="white" stroke="transparent" points="-4,4 -4,-43 281,-43 281,4 -4,4"/>
<!-- Node1 -->
<g id="node1" class="node">
<title>Node1</title>
<g id="a_node1"><a xlink:title="A sector of an ellipsoid.">
<polygon fill="#bfbfbf" stroke="black" points="0,-19.5 0,-38.5 68,-38.5 68,-19.5 0,-19.5"/>
<text text-anchor="middle" x="34" y="-26.5" font-family="Helvetica,sans-Serif" font-size="10.00">ellipsoid_s</text>
</a>
</g>
</g>
<!-- Node2 -->
<g id="node2" class="node">
<title>Node2</title>
<g id="a_node2"><a xlink:href="group__datatypes__iterable__operate.html#ga3d37c2b0067d1661724bd89955c8f6ce" target="_top" xlink:title="Return an element of an iterable when it exists or a default value otherwise.">
<polygon fill="white" stroke="black" points="198,-19.5 198,-38.5 277,-38.5 277,-19.5 198,-19.5"/>
<text text-anchor="middle" x="237.5" y="-26.5" font-family="Helvetica,sans-Serif" font-size="10.00">defined_e_or</text>
</a>
</g>
</g>
<!-- Node1&#45;&gt;Node2 -->
<g id="edge1" class="edge">
<title>Node1&#45;&gt;Node2</title>
<path fill="none" stroke="midnightblue" d="M68.27,-29C100.77,-29 150.58,-29 187.59,-29"/>
<polygon fill="midnightblue" stroke="midnightblue" points="187.66,-32.5 197.66,-29 187.66,-25.5 187.66,-32.5"/>
</g>
<!-- Node3 -->
<g id="node3" class="node">
<title>Node3</title>
<g id="a_node3"><a xlink:href="group__shapes__basic__3d.html#gae55c3490ba068ba5713b3de4302315de" target="_top" xlink:title="An ellipsoid.">
<polygon fill="white" stroke="black" points="104,-0.5 104,-19.5 162,-19.5 162,-0.5 104,-0.5"/>
<text text-anchor="middle" x="133" y="-7.5" font-family="Helvetica,sans-Serif" font-size="10.00">ellipsoid</text>
</a>
</g>
</g>
<!-- Node1&#45;&gt;Node3 -->
<g id="edge2" class="edge">
<title>Node1&#45;&gt;Node3</title>
<path fill="none" stroke="midnightblue" d="M68.11,-22.51C76.38,-20.89 85.32,-19.14 93.82,-17.48"/>
<polygon fill="midnightblue" stroke="midnightblue" points="94.74,-20.86 103.88,-15.51 93.4,-13.99 94.74,-20.86"/>
</g>
<!-- Node3&#45;&gt;Node2 -->
<g id="edge3" class="edge">
<title>Node3&#45;&gt;Node2</title>
<path fill="none" stroke="midnightblue" d="M162.01,-15.19C170.02,-16.68 178.99,-18.34 187.86,-19.98"/>
<polygon fill="midnightblue" stroke="midnightblue" points="187.3,-23.44 197.77,-21.82 188.57,-16.56 187.3,-23.44"/>
</g>
</g>
</svg>
