<?xml version="1.0" encoding="UTF-8" standalone="no"?>
<!DOCTYPE svg PUBLIC "-//W3C//DTD SVG 1.1//EN"
 "http://www.w3.org/Graphics/SVG/1.1/DTD/svg11.dtd">
<!-- Generated by graphviz version 2.43.0 (0)
 -->
<!-- Title: first Pages: 1 -->
<svg width="658pt" height="717pt"
 viewBox="0.00 0.00 658.00 716.94" xmlns="http://www.w3.org/2000/svg" xmlns:xlink="http://www.w3.org/1999/xlink">
<g id="graph0" class="graph" transform="scale(1 1) rotate(0) translate(4 712.94)">
<title>first</title>
<polygon fill="white" stroke="transparent" points="-4,4 -4,-712.94 654,-712.94 654,4 -4,4"/>
<!-- Node1 -->
<g id="node1" class="node">
<title>Node1</title>
<g id="a_node1"><a xlink:title="Return the first element of an iterable value.">
<polygon fill="#bfbfbf" stroke="black" points="615,-304.5 615,-323.5 650,-323.5 650,-304.5 615,-304.5"/>
<text text-anchor="middle" x="632.5" y="-311.5" font-family="Helvetica,sans-Serif" font-size="10.00">first</text>
</a>
</g>
</g>
<!-- Node2 -->
<g id="node2" class="node">
<title>Node2</title>
<g id="a_node2"><a xlink:href="group__parts__3d__fastener__catch__latch.html#ga26a9933aa6d33599daab1be8d632c430" target="_top" xlink:title="A catch latch generator with configurable profile.">
<polygon fill="white" stroke="black" points="178,-684.5 178,-703.5 250,-703.5 250,-684.5 178,-684.5"/>
<text text-anchor="middle" x="214" y="-691.5" font-family="Helvetica,sans-Serif" font-size="10.00">catch_latch</text>
</a>
</g>
</g>
<!-- Node1&#45;&gt;Node2 -->
<g id="edge1" class="edge">
<title>Node1&#45;&gt;Node2</title>
<path fill="none" stroke="midnightblue" d="M631.2,-334.04C629.81,-397.78 622.05,-594.2 579,-637 489.75,-725.73 322.68,-711.74 250.13,-700.51"/>
<polygon fill="midnightblue" stroke="midnightblue" points="634.7,-333.81 631.39,-323.75 627.71,-333.68 634.7,-333.81"/>
</g>
<!-- Node3 -->
<g id="node3" class="node">
<title>Node3</title>
<g id="a_node3"><a xlink:href="group__tools__drafting__operation.html#ga4e20419a6d4623f21c05179fc8b6df95" target="_top" xlink:title="Construct drafting sheet axes.">
<polygon fill="white" stroke="black" points="491,-608.5 491,-627.5 558,-627.5 558,-608.5 491,-608.5"/>
<text text-anchor="middle" x="524.5" y="-615.5" font-family="Helvetica,sans-Serif" font-size="10.00">draft_axes</text>
</a>
</g>
</g>
<!-- Node1&#45;&gt;Node3 -->
<g id="edge2" class="edge">
<title>Node1&#45;&gt;Node3</title>
<path fill="none" stroke="midnightblue" d="M630.39,-333.63C626.76,-391.29 613.42,-558.62 579,-599 573.63,-605.3 566.02,-609.51 558.23,-612.33"/>
<polygon fill="midnightblue" stroke="midnightblue" points="633.89,-333.82 630.99,-323.63 626.9,-333.4 633.89,-333.82"/>
</g>
<!-- Node4 -->
<g id="node4" class="node">
<title>Node4</title>
<g id="a_node4"><a xlink:href="group__tools__drafting__primitive.html#gada1e771ce89ef86b6241c43dc01bf62d" target="_top" xlink:title="Draft a polygon with configurable style.">
<polygon fill="white" stroke="black" points="483,-570.5 483,-589.5 566,-589.5 566,-570.5 483,-570.5"/>
<text text-anchor="middle" x="524.5" y="-577.5" font-family="Helvetica,sans-Serif" font-size="10.00">draft_polygon</text>
</a>
</g>
</g>
<!-- Node1&#45;&gt;Node4 -->
<g id="edge3" class="edge">
<title>Node1&#45;&gt;Node4</title>
<path fill="none" stroke="midnightblue" d="M629.5,-333.86C623.95,-385.35 606.94,-521.54 579,-556 573.93,-562.25 566.9,-566.92 559.6,-570.4"/>
<polygon fill="midnightblue" stroke="midnightblue" points="633,-334.02 630.56,-323.71 626.04,-333.29 633,-334.02"/>
</g>
<!-- Node5 -->
<g id="node5" class="node">
<title>Node5</title>
<g id="a_node5"><a xlink:href="group__tools__extrude.html#ga45661244067bf945b684550c3263ee45" target="_top" xlink:title="Linearly extrude a 2d shape with multi&#45;segment uniformly&#45;spaced profile scaling.">
<polygon fill="white" stroke="black" points="320.5,-494.5 320.5,-513.5 433.5,-513.5 433.5,-494.5 320.5,-494.5"/>
<text text-anchor="middle" x="377" y="-501.5" font-family="Helvetica,sans-Serif" font-size="10.00">extrude_linear_mss</text>
</a>
</g>
</g>
<!-- Node1&#45;&gt;Node5 -->
<g id="edge4" class="edge">
<title>Node1&#45;&gt;Node5</title>
<path fill="none" stroke="midnightblue" d="M630.34,-333.9C627.37,-365.74 616.77,-427.93 579,-461 539.27,-495.8 478.3,-504.73 433.92,-506.08"/>
<polygon fill="midnightblue" stroke="midnightblue" points="633.85,-333.89 631.13,-323.65 626.87,-333.35 633.85,-333.89"/>
</g>
<!-- Node7 -->
<g id="node7" class="node">
<title>Node7</title>
<g id="a_node7"><a xlink:href="group__parts__3d__enclosure__power__strip.html#ga191779dedf39e4fd769a8dc96b0f8c9e" target="_top" xlink:title="A power strip generator for single gang electrical receptacles.">
<polygon fill="white" stroke="black" points="9,-399.5 9,-418.5 99,-418.5 99,-399.5 9,-399.5"/>
<text text-anchor="middle" x="54" y="-406.5" font-family="Helvetica,sans-Serif" font-size="10.00">power_strip_sg</text>
</a>
</g>
</g>
<!-- Node1&#45;&gt;Node7 -->
<g id="edge33" class="edge">
<title>Node1&#45;&gt;Node7</title>
<path fill="none" stroke="midnightblue" d="M605.03,-304.7C528.72,-279.54 303.58,-217.13 144,-295 98.19,-317.35 69.07,-375.94 58.97,-399.24"/>
<polygon fill="midnightblue" stroke="midnightblue" points="604.19,-308.11 614.79,-307.98 606.42,-301.47 604.19,-308.11"/>
</g>
<!-- Node11 -->
<g id="node11" class="node">
<title>Node11</title>
<g id="a_node11"><a xlink:href="group__parts__3d__computer__pci__bracket.html#gaf56631cf80d8e5f0b77736b17b94ecd9" target="_top" xlink:title="PCI slot cover and adapter card bracket generator.">
<polygon fill="white" stroke="black" points="178,-646.5 178,-665.5 250,-665.5 250,-646.5 178,-646.5"/>
<text text-anchor="middle" x="214" y="-653.5" font-family="Helvetica,sans-Serif" font-size="10.00">pci_bracket</text>
</a>
</g>
</g>
<!-- Node1&#45;&gt;Node11 -->
<g id="edge30" class="edge">
<title>Node1&#45;&gt;Node11</title>
<path fill="none" stroke="midnightblue" d="M631.03,-333.81C629.14,-370.11 620.19,-447.88 579,-495 554.73,-522.77 317.77,-616.2 239.76,-646.46"/>
<polygon fill="midnightblue" stroke="midnightblue" points="634.54,-333.7 631.43,-323.57 627.54,-333.43 634.54,-333.7"/>
</g>
<!-- Node12 -->
<g id="node12" class="node">
<title>Node12</title>
<g id="a_node12"><a xlink:href="group__parts__3d__enclosure__project__box__rectangle.html#ga6a5d093d732e65556c46252220f2c4b6" target="_top" xlink:title="A rectangular box maker for project boxes, enclosures and housings.">
<polygon fill="white" stroke="black" points="151.5,-342.5 151.5,-361.5 276.5,-361.5 276.5,-342.5 151.5,-342.5"/>
<text text-anchor="middle" x="214" y="-349.5" font-family="Helvetica,sans-Serif" font-size="10.00">project_box_rectangle</text>
</a>
</g>
</g>
<!-- Node1&#45;&gt;Node12 -->
<g id="edge34" class="edge">
<title>Node1&#45;&gt;Node12</title>
<path fill="none" stroke="midnightblue" d="M604.85,-322.18C596.63,-324.41 587.51,-326.6 579,-328 473.7,-345.34 349.32,-350.25 276.6,-351.58"/>
<polygon fill="midnightblue" stroke="midnightblue" points="606,-325.49 614.66,-319.39 604.08,-318.76 606,-325.49"/>
</g>
<!-- Node14 -->
<g id="node14" class="node">
<title>Node14</title>
<g id="a_node14"><a xlink:href="group__tools__extrude.html#gab2442cfaf1ad44d6e295ab0979d9e03d" target="_top" xlink:title="Linearly extrude a 2d shape with uniformly&#45;spaced profile scaling.">
<polygon fill="white" stroke="black" points="470,-399.5 470,-418.5 579,-418.5 579,-399.5 470,-399.5"/>
<text text-anchor="middle" x="524.5" y="-406.5" font-family="Helvetica,sans-Serif" font-size="10.00">extrude_linear_uss</text>
</a>
</g>
</g>
<!-- Node1&#45;&gt;Node14 -->
<g id="edge17" class="edge">
<title>Node1&#45;&gt;Node14</title>
<path fill="none" stroke="midnightblue" d="M615.44,-330.78C605.25,-341.19 591.66,-354.7 579,-366 565.49,-378.06 549.16,-390.96 538.12,-399.45"/>
<polygon fill="midnightblue" stroke="midnightblue" points="618.04,-333.12 622.49,-323.5 613.01,-328.25 618.04,-333.12"/>
</g>
<!-- Node15 -->
<g id="node15" class="node">
<title>Node15</title>
<g id="a_node15"><a xlink:href="group__parts__3d__fastener__hinges.html#ga7e350f2c55116094108b99dd8103fc04" target="_top" xlink:title="A print&#45;in&#45;place single&#45;fold hinge generator.">
<polygon fill="white" stroke="black" points="348,-304.5 348,-323.5 406,-323.5 406,-304.5 348,-304.5"/>
<text text-anchor="middle" x="377" y="-311.5" font-family="Helvetica,sans-Serif" font-size="10.00">hinge_sf</text>
</a>
</g>
</g>
<!-- Node1&#45;&gt;Node15 -->
<g id="edge25" class="edge">
<title>Node1&#45;&gt;Node15</title>
<path fill="none" stroke="midnightblue" d="M604.59,-314C556.32,-314 455.48,-314 406.25,-314"/>
<polygon fill="midnightblue" stroke="midnightblue" points="604.87,-317.5 614.87,-314 604.87,-310.5 604.87,-317.5"/>
</g>
<!-- Node17 -->
<g id="node17" class="node">
<title>Node17</title>
<g id="a_node17"><a xlink:href="group__parts__3d__enclosure__mounts.html#gae1cc60f3ff242fb07c5a50d34be8c051" target="_top" xlink:title="A mount tab with screw hole and support brace.">
<polygon fill="white" stroke="black" points="325.5,-456.5 325.5,-475.5 428.5,-475.5 428.5,-456.5 325.5,-456.5"/>
<text text-anchor="middle" x="377" y="-463.5" font-family="Helvetica,sans-Serif" font-size="10.00">mount_screw_tab</text>
</a>
</g>
</g>
<!-- Node1&#45;&gt;Node17 -->
<g id="edge29" class="edge">
<title>Node1&#45;&gt;Node17</title>
<path fill="none" stroke="midnightblue" d="M628.09,-333.93C622.56,-359.83 609.07,-404.52 579,-428 536.18,-461.44 472.74,-468.49 428.63,-468.74"/>
<polygon fill="midnightblue" stroke="midnightblue" points="631.59,-334.27 630.05,-323.79 624.72,-332.95 631.59,-334.27"/>
</g>
<!-- Node18 -->
<g id="node18" class="node">
<title>Node18</title>
<g id="a_node18"><a xlink:href="group__datatypes__map.html#ga4a3d0704d80be0d9e8bae1fcb3ab7958" target="_top" xlink:title="Perform basic format checks on a map and output errors to console.">
<polygon fill="white" stroke="black" points="488.5,-228.5 488.5,-247.5 560.5,-247.5 560.5,-228.5 488.5,-228.5"/>
<text text-anchor="middle" x="524.5" y="-235.5" font-family="Helvetica,sans-Serif" font-size="10.00">map_check</text>
</a>
</g>
</g>
<!-- Node1&#45;&gt;Node18 -->
<g id="edge26" class="edge">
<title>Node1&#45;&gt;Node18</title>
<path fill="none" stroke="midnightblue" d="M616.73,-296.42C606.87,-285.49 593.16,-271.71 579,-262 570.69,-256.3 560.8,-251.42 551.81,-247.58"/>
<polygon fill="midnightblue" stroke="midnightblue" points="614.24,-298.89 623.45,-304.11 619.5,-294.28 614.24,-298.89"/>
</g>
<!-- Node20 -->
<g id="node20" class="node">
<title>Node20</title>
<g id="a_node20"><a xlink:href="group__datatypes__map.html#ga1ee3a7b76638ba11f1420da1dec59c8d" target="_top" xlink:title="Write formatted map entries to the console.">
<polygon fill="white" stroke="black" points="490.5,-190.5 490.5,-209.5 558.5,-209.5 558.5,-190.5 490.5,-190.5"/>
<text text-anchor="middle" x="524.5" y="-197.5" font-family="Helvetica,sans-Serif" font-size="10.00">map_write</text>
</a>
</g>
</g>
<!-- Node1&#45;&gt;Node20 -->
<g id="edge28" class="edge">
<title>Node1&#45;&gt;Node20</title>
<path fill="none" stroke="midnightblue" d="M625.55,-294.85C617.99,-273.51 602.97,-239.34 579,-219 573.14,-214.03 565.88,-210.32 558.62,-207.57"/>
<polygon fill="midnightblue" stroke="midnightblue" points="622.27,-296.06 628.75,-304.44 628.91,-293.84 622.27,-296.06"/>
</g>
<!-- Node21 -->
<g id="node21" class="node">
<title>Node21</title>
<g id="a_node21"><a xlink:href="group__tools__polytope.html#ga530c86f9c90ce074aa7adc29834f0539" target="_top" xlink:title="Assemble a polytope skeletal frame using child objects.">
<polygon fill="white" stroke="black" points="477.5,-152.5 477.5,-171.5 571.5,-171.5 571.5,-152.5 477.5,-152.5"/>
<text text-anchor="middle" x="524.5" y="-159.5" font-family="Helvetica,sans-Serif" font-size="10.00">polytope_frame</text>
</a>
</g>
</g>
<!-- Node1&#45;&gt;Node21 -->
<g id="edge31" class="edge">
<title>Node1&#45;&gt;Node21</title>
<path fill="none" stroke="midnightblue" d="M628.94,-294.47C624.18,-265.76 611.31,-212.21 579,-181 574.96,-177.1 570.07,-173.99 564.9,-171.52"/>
<polygon fill="midnightblue" stroke="midnightblue" points="625.5,-295.1 630.44,-304.48 632.42,-294.07 625.5,-295.1"/>
</g>
<!-- Node22 -->
<g id="node22" class="node">
<title>Node22</title>
<g id="a_node22"><a xlink:href="group__tools__polytope.html#ga00b574079f19251be7281151d11db8fa" target="_top" xlink:title="Label the vertices, paths, and edges of a polytope.">
<polygon fill="white" stroke="black" points="473.5,-114.5 473.5,-133.5 575.5,-133.5 575.5,-114.5 473.5,-114.5"/>
<text text-anchor="middle" x="524.5" y="-121.5" font-family="Helvetica,sans-Serif" font-size="10.00">polytope_number</text>
</a>
</g>
</g>
<!-- Node1&#45;&gt;Node22 -->
<g id="edge32" class="edge">
<title>Node1&#45;&gt;Node22</title>
<path fill="none" stroke="midnightblue" d="M630.95,-294.02C628.92,-258.84 619.72,-185.52 579,-143 575.25,-139.08 570.64,-135.97 565.72,-133.5"/>
<polygon fill="midnightblue" stroke="midnightblue" points="627.47,-294.55 631.4,-304.39 634.47,-294.25 627.47,-294.55"/>
</g>
<!-- Node23 -->
<g id="node23" class="node">
<title>Node23</title>
<g id="a_node23"><a xlink:href="group__datatypes__table.html#ga8a4429649e8b06d9f492e1a0d2653656" target="_top" xlink:title="Perform basic format checks on a table and output errors to console.">
<polygon fill="white" stroke="black" points="487,-76.5 487,-95.5 562,-95.5 562,-76.5 487,-76.5"/>
<text text-anchor="middle" x="524.5" y="-83.5" font-family="Helvetica,sans-Serif" font-size="10.00">table_check</text>
</a>
</g>
</g>
<!-- Node1&#45;&gt;Node23 -->
<g id="edge35" class="edge">
<title>Node1&#45;&gt;Node23</title>
<path fill="none" stroke="midnightblue" d="M632.32,-294.21C632.92,-253.45 628.46,-159.4 579,-105 574.43,-99.97 568.43,-96.27 562.11,-93.55"/>
<polygon fill="midnightblue" stroke="midnightblue" points="628.83,-294.12 632.06,-304.21 635.82,-294.31 628.83,-294.12"/>
</g>
<!-- Node26 -->
<g id="node26" class="node">
<title>Node26</title>
<g id="a_node26"><a xlink:href="group__datatypes__table.html#gaafc45abc1b8026ee1518fad87a042be3" target="_top" xlink:title="Dump a table to the console.">
<polygon fill="white" stroke="black" points="487.5,-38.5 487.5,-57.5 561.5,-57.5 561.5,-38.5 487.5,-38.5"/>
<text text-anchor="middle" x="524.5" y="-45.5" font-family="Helvetica,sans-Serif" font-size="10.00">table_dump</text>
</a>
</g>
</g>
<!-- Node1&#45;&gt;Node26 -->
<g id="edge38" class="edge">
<title>Node1&#45;&gt;Node26</title>
<path fill="none" stroke="midnightblue" d="M629.77,-294.29C624.82,-241.95 608.94,-101.18 579,-67 574.39,-61.74 568.22,-57.93 561.71,-55.18"/>
<polygon fill="midnightblue" stroke="midnightblue" points="626.29,-294.66 630.69,-304.3 633.26,-294.03 626.29,-294.66"/>
</g>
<!-- Node27 -->
<g id="node27" class="node">
<title>Node27</title>
<g id="a_node27"><a xlink:href="group__datatypes__table.html#ga8d212217f9acb803e3107f488d5523e6" target="_top" xlink:title="Write formatted map entries to the console.">
<polygon fill="white" stroke="black" points="489,-0.5 489,-19.5 560,-19.5 560,-0.5 489,-0.5"/>
<text text-anchor="middle" x="524.5" y="-7.5" font-family="Helvetica,sans-Serif" font-size="10.00">table_write</text>
</a>
</g>
</g>
<!-- Node1&#45;&gt;Node27 -->
<g id="edge39" class="edge">
<title>Node1&#45;&gt;Node27</title>
<path fill="none" stroke="midnightblue" d="M630.39,-294.37C626.76,-236.71 613.42,-69.38 579,-29 574.08,-23.22 567.28,-19.2 560.17,-16.41"/>
<polygon fill="midnightblue" stroke="midnightblue" points="626.9,-294.6 630.99,-304.37 633.89,-294.18 626.9,-294.6"/>
</g>
<!-- Node5&#45;&gt;Node2 -->
<g id="edge5" class="edge">
<title>Node5&#45;&gt;Node2</title>
<path fill="none" stroke="midnightblue" d="M370.99,-523.59C360.84,-559.26 334.41,-634.82 284,-675 274.38,-682.67 261.88,-687.25 250.17,-689.98"/>
<polygon fill="midnightblue" stroke="midnightblue" points="374.38,-524.45 373.63,-513.88 367.63,-522.62 374.38,-524.45"/>
</g>
<!-- Node6 -->
<g id="node6" class="node">
<title>Node6</title>
<g id="a_node6"><a xlink:href="group__parts__3d__enclosure__clamps.html#ga8fd874789132e42e5470328d18560f1a" target="_top" xlink:title="A clamp, bushing, and/or grip for wire/hose wall penetrations.">
<polygon fill="white" stroke="black" points="182.5,-494.5 182.5,-513.5 245.5,-513.5 245.5,-494.5 182.5,-494.5"/>
<text text-anchor="middle" x="214" y="-501.5" font-family="Helvetica,sans-Serif" font-size="10.00">clamp_cg</text>
</a>
</g>
</g>
<!-- Node5&#45;&gt;Node6 -->
<g id="edge6" class="edge">
<title>Node5&#45;&gt;Node6</title>
<path fill="none" stroke="midnightblue" d="M310.07,-504C287.85,-504 264.11,-504 245.9,-504"/>
<polygon fill="midnightblue" stroke="midnightblue" points="310.14,-507.5 320.14,-504 310.14,-500.5 310.14,-507.5"/>
</g>
<!-- Node8 -->
<g id="node8" class="node">
<title>Node8</title>
<g id="a_node8"><a xlink:href="group__parts__3d__motion__bearing__linear__rod.html#ga48399d5e708b4894494c69b2d1e88e26" target="_top" xlink:title="Transform 2d or 3d shape into a linear rod ball or sled bearing.">
<polygon fill="white" stroke="black" points="144,-456.5 144,-475.5 284,-475.5 284,-456.5 144,-456.5"/>
<text text-anchor="middle" x="214" y="-463.5" font-family="Helvetica,sans-Serif" font-size="10.00">make_bearing_linear_rod</text>
</a>
</g>
</g>
<!-- Node5&#45;&gt;Node8 -->
<g id="edge8" class="edge">
<title>Node5&#45;&gt;Node8</title>
<path fill="none" stroke="midnightblue" d="M325.6,-492.1C302.97,-486.76 276.63,-480.55 255.33,-475.52"/>
<polygon fill="midnightblue" stroke="midnightblue" points="324.84,-495.52 335.37,-494.41 326.44,-488.71 324.84,-495.52"/>
</g>
<!-- Node9 -->
<g id="node9" class="node">
<title>Node9</title>
<g id="a_node9"><a xlink:href="group__parts__3d__enclosure__mounts.html#ga0cbac43259ec43fff7785057277bcef3" target="_top" xlink:title="A screw mount post with screw bore and optional fins.">
<polygon fill="white" stroke="black" points="0,-589.5 0,-608.5 108,-608.5 108,-589.5 0,-589.5"/>
<text text-anchor="middle" x="54" y="-596.5" font-family="Helvetica,sans-Serif" font-size="10.00">mount_screw_post</text>
</a>
</g>
</g>
<!-- Node5&#45;&gt;Node9 -->
<g id="edge9" class="edge">
<title>Node5&#45;&gt;Node9</title>
<path fill="none" stroke="midnightblue" d="M333.96,-518.09C328.91,-520.87 324.1,-524.16 320,-528 294.19,-552.2 314.15,-580.48 284,-599 222.51,-636.76 133.1,-620.98 86.27,-608.59"/>
<polygon fill="midnightblue" stroke="midnightblue" points="335.74,-521.11 343.2,-513.59 332.68,-514.82 335.74,-521.11"/>
</g>
<!-- Node10 -->
<g id="node10" class="node">
<title>Node10</title>
<g id="a_node10"><a xlink:href="group__models__3d__misc__omdl__logo.html#gab176f64dad7e83d4fb056be44b71f630" target="_top" xlink:title="Standard omdl logo.">
<polygon fill="white" stroke="black" points="180,-532.5 180,-551.5 248,-551.5 248,-532.5 180,-532.5"/>
<text text-anchor="middle" x="214" y="-539.5" font-family="Helvetica,sans-Serif" font-size="10.00">omdl_logo</text>
</a>
</g>
</g>
<!-- Node5&#45;&gt;Node10 -->
<g id="edge10" class="edge">
<title>Node5&#45;&gt;Node10</title>
<path fill="none" stroke="midnightblue" d="M325.57,-515.9C300.28,-521.87 270.36,-528.93 248.03,-534.2"/>
<polygon fill="midnightblue" stroke="midnightblue" points="326.44,-519.29 335.37,-513.59 324.84,-512.48 326.44,-519.29"/>
</g>
<!-- Node5&#45;&gt;Node11 -->
<g id="edge12" class="edge">
<title>Node5&#45;&gt;Node11</title>
<path fill="none" stroke="midnightblue" d="M332.4,-518.2C327.82,-520.94 323.56,-524.18 320,-528 286.67,-563.8 318.56,-597.39 284,-632 274.95,-641.06 262.3,-646.71 250.3,-650.23"/>
<polygon fill="midnightblue" stroke="midnightblue" points="334.17,-521.22 341.45,-513.52 330.96,-515 334.17,-521.22"/>
</g>
<!-- Node5&#45;&gt;Node12 -->
<g id="edge13" class="edge">
<title>Node5&#45;&gt;Node12</title>
<path fill="none" stroke="midnightblue" d="M328.71,-490.24C325.66,-488.67 322.73,-486.92 320,-485 294.77,-467.18 240.28,-389.1 221.51,-361.61"/>
<polygon fill="midnightblue" stroke="midnightblue" points="327.55,-493.56 338.1,-494.48 330.43,-487.18 327.55,-493.56"/>
</g>
<!-- Node13 -->
<g id="node13" class="node">
<title>Node13</title>
<g id="a_node13"><a xlink:href="group__models__3d__fastener__screws.html#gaad990187680f7ac947e555483d854bfa" target="_top" xlink:title="Gapped fastener bore with engagement cylinders for self&#45;forming threads.">
<polygon fill="white" stroke="black" points="169,-570.5 169,-589.5 259,-589.5 259,-570.5 169,-570.5"/>
<text text-anchor="middle" x="214" y="-577.5" font-family="Helvetica,sans-Serif" font-size="10.00">screw_bore_tsf</text>
</a>
</g>
</g>
<!-- Node5&#45;&gt;Node13 -->
<g id="edge15" class="edge">
<title>Node5&#45;&gt;Node13</title>
<path fill="none" stroke="midnightblue" d="M339.09,-517.71C332.53,-520.73 325.91,-524.18 320,-528 301.77,-539.78 302.99,-550.49 284,-561 276.39,-565.21 267.78,-568.54 259.29,-571.15"/>
<polygon fill="midnightblue" stroke="midnightblue" points="340.79,-520.79 348.57,-513.6 338.01,-514.36 340.79,-520.79"/>
</g>
<!-- Node6&#45;&gt;Node7 -->
<g id="edge7" class="edge">
<title>Node6&#45;&gt;Node7</title>
<path fill="none" stroke="midnightblue" d="M172.51,-496.03C162.85,-493.27 152.8,-489.67 144,-485 110.43,-467.19 78.42,-434.85 63.6,-418.71"/>
<polygon fill="midnightblue" stroke="midnightblue" points="171.81,-499.46 182.37,-498.6 173.57,-492.69 171.81,-499.46"/>
</g>
<!-- Node10&#45;&gt;Node7 -->
<g id="edge11" class="edge">
<title>Node10&#45;&gt;Node7</title>
<path fill="none" stroke="midnightblue" d="M170.15,-534.76C161.04,-532.01 151.82,-528.22 144,-523 102.02,-494.99 71.09,-440.69 59.75,-418.65"/>
<polygon fill="midnightblue" stroke="midnightblue" points="169.37,-538.17 179.93,-537.36 171.17,-531.41 169.37,-538.17"/>
</g>
<!-- Node12&#45;&gt;Node7 -->
<g id="edge14" class="edge">
<title>Node12&#45;&gt;Node7</title>
<path fill="none" stroke="midnightblue" d="M175.58,-364.86C165.33,-368.43 154.22,-372.33 144,-376 122.44,-383.74 98.06,-392.81 80.27,-399.47"/>
<polygon fill="midnightblue" stroke="midnightblue" points="176.79,-368.15 185.09,-361.56 174.49,-361.53 176.79,-368.15"/>
</g>
<!-- Node13&#45;&gt;Node9 -->
<g id="edge16" class="edge">
<title>Node13&#45;&gt;Node9</title>
<path fill="none" stroke="midnightblue" d="M158.97,-586.5C142.51,-588.48 124.43,-590.65 108.04,-592.62"/>
<polygon fill="midnightblue" stroke="midnightblue" points="159.48,-589.96 168.99,-585.29 158.64,-583.01 159.48,-589.96"/>
</g>
<!-- Node14&#45;&gt;Node5 -->
<g id="edge18" class="edge">
<title>Node14&#45;&gt;Node5</title>
<path fill="none" stroke="midnightblue" d="M507.1,-426.31C490.19,-443.3 462.35,-468.94 434,-485 427.48,-488.69 420.12,-491.83 412.94,-494.42"/>
<polygon fill="midnightblue" stroke="midnightblue" points="510.01,-428.35 514.48,-418.75 505,-423.46 510.01,-428.35"/>
</g>
<!-- Node14&#45;&gt;Node7 -->
<g id="edge23" class="edge">
<title>Node14&#45;&gt;Node7</title>
<path fill="none" stroke="midnightblue" d="M459.54,-409C362.97,-409 182.39,-409 99.12,-409"/>
<polygon fill="midnightblue" stroke="midnightblue" points="459.76,-412.5 469.76,-409 459.76,-405.5 459.76,-412.5"/>
</g>
<!-- Node14&#45;&gt;Node12 -->
<g id="edge24" class="edge">
<title>Node14&#45;&gt;Node12</title>
<path fill="none" stroke="midnightblue" d="M461.86,-397.61C404.6,-387.03 320.32,-371.46 266.55,-361.52"/>
<polygon fill="midnightblue" stroke="midnightblue" points="461.39,-401.08 471.86,-399.46 462.67,-394.2 461.39,-401.08"/>
</g>
<!-- Node14&#45;&gt;Node15 -->
<g id="edge19" class="edge">
<title>Node14&#45;&gt;Node15</title>
<path fill="none" stroke="midnightblue" d="M500.11,-393.73C469.87,-373.98 418.09,-340.18 392.79,-323.66"/>
<polygon fill="midnightblue" stroke="midnightblue" points="498.46,-396.83 508.75,-399.37 502.29,-390.97 498.46,-396.83"/>
</g>
<!-- Node14&#45;&gt;Node17 -->
<g id="edge21" class="edge">
<title>Node14&#45;&gt;Node17</title>
<path fill="none" stroke="midnightblue" d="M489.8,-422.2C463.08,-432.67 426.38,-447.05 402.43,-456.43"/>
<polygon fill="midnightblue" stroke="midnightblue" points="491.11,-425.45 499.15,-418.54 488.56,-418.93 491.11,-425.45"/>
</g>
<!-- Node16 -->
<g id="node16" class="node">
<title>Node16</title>
<g id="a_node16"><a xlink:href="group__parts__3d__fastener__hinges.html#ga1ffc82e0bbac466d1dc4fbe6c214b765" target="_top" xlink:title="A print&#45;in&#45;place bi&#45;fold hinge generator.">
<polygon fill="white" stroke="black" points="184.5,-304.5 184.5,-323.5 243.5,-323.5 243.5,-304.5 184.5,-304.5"/>
<text text-anchor="middle" x="214" y="-311.5" font-family="Helvetica,sans-Serif" font-size="10.00">hinge_bf</text>
</a>
</g>
</g>
<!-- Node15&#45;&gt;Node16 -->
<g id="edge20" class="edge">
<title>Node15&#45;&gt;Node16</title>
<path fill="none" stroke="midnightblue" d="M337.8,-314C308.88,-314 269.77,-314 243.53,-314"/>
<polygon fill="midnightblue" stroke="midnightblue" points="337.96,-317.5 347.96,-314 337.96,-310.5 337.96,-317.5"/>
</g>
<!-- Node17&#45;&gt;Node7 -->
<g id="edge22" class="edge">
<title>Node17&#45;&gt;Node7</title>
<path fill="none" stroke="midnightblue" d="M321.48,-454.37C309.17,-451.85 296.15,-449.26 284,-447 220.01,-435.09 145.62,-423.08 99.42,-415.84"/>
<polygon fill="midnightblue" stroke="midnightblue" points="321.11,-457.87 331.61,-456.47 322.53,-451.02 321.11,-457.87"/>
</g>
<!-- Node19 -->
<g id="node19" class="node">
<title>Node19</title>
<g id="a_node19"><a xlink:href="group__common__validation.html#ga3afe594ef417bc40429be81e044d29bc" target="_top" xlink:title="Test data structure db and output the start of test to the test log.">
<polygon fill="white" stroke="black" points="321.5,-228.5 321.5,-247.5 432.5,-247.5 432.5,-228.5 321.5,-228.5"/>
<text text-anchor="middle" x="377" y="-235.5" font-family="Helvetica,sans-Serif" font-size="10.00">map_validate_start</text>
</a>
</g>
</g>
<!-- Node18&#45;&gt;Node19 -->
<g id="edge27" class="edge">
<title>Node18&#45;&gt;Node19</title>
<path fill="none" stroke="midnightblue" d="M478.15,-238C463.77,-238 447.73,-238 432.77,-238"/>
<polygon fill="midnightblue" stroke="midnightblue" points="478.28,-241.5 488.28,-238 478.28,-234.5 478.28,-241.5"/>
</g>
<!-- Node24 -->
<g id="node24" class="node">
<title>Node24</title>
<g id="a_node24"><a xlink:href="group__datatypes__table.html#ga7a45ee72b36421f4e73cfba4488f14be" target="_top" xlink:title="Dump table getter functions to the console.">
<polygon fill="white" stroke="black" points="320,-95.5 320,-114.5 434,-114.5 434,-95.5 320,-95.5"/>
<text text-anchor="middle" x="377" y="-102.5" font-family="Helvetica,sans-Serif" font-size="10.00">table_dump_getters</text>
</a>
</g>
</g>
<!-- Node23&#45;&gt;Node24 -->
<g id="edge36" class="edge">
<title>Node23&#45;&gt;Node24</title>
<path fill="none" stroke="midnightblue" d="M476.74,-92.11C463.22,-93.87 448.31,-95.82 434.26,-97.65"/>
<polygon fill="midnightblue" stroke="midnightblue" points="477.32,-95.56 486.78,-90.79 476.42,-88.62 477.32,-95.56"/>
</g>
<!-- Node25 -->
<g id="node25" class="node">
<title>Node25</title>
<g id="a_node25"><a xlink:href="group__common__validation.html#ga19d0234700fba9de9fb0cba52a3d8e17" target="_top" xlink:title="Test data structure db and output the start of test to the test log.">
<polygon fill="white" stroke="black" points="320,-57.5 320,-76.5 434,-76.5 434,-57.5 320,-57.5"/>
<text text-anchor="middle" x="377" y="-64.5" font-family="Helvetica,sans-Serif" font-size="10.00">table_validate_start</text>
</a>
</g>
</g>
<!-- Node23&#45;&gt;Node25 -->
<g id="edge37" class="edge">
<title>Node23&#45;&gt;Node25</title>
<path fill="none" stroke="midnightblue" d="M476.74,-79.89C463.22,-78.13 448.31,-76.18 434.26,-74.35"/>
<polygon fill="midnightblue" stroke="midnightblue" points="476.42,-83.38 486.78,-81.21 477.32,-76.44 476.42,-83.38"/>
</g>
</g>
</svg>
