<?xml version="1.0" encoding="UTF-8" standalone="no"?>
<!DOCTYPE svg PUBLIC "-//W3C//DTD SVG 1.1//EN"
 "http://www.w3.org/Graphics/SVG/1.1/DTD/svg11.dtd">
<!-- Generated by graphviz version 2.43.0 (0)
 -->
<!-- Title: mount_screw_slot_md Pages: 1 -->
<svg width="510pt" height="180pt"
 viewBox="0.00 0.00 510.00 180.00" xmlns="http://www.w3.org/2000/svg" xmlns:xlink="http://www.w3.org/1999/xlink">
<g id="graph0" class="graph" transform="scale(1 1) rotate(0) translate(4 176)">
<title>mount_screw_slot_md</title>
<polygon fill="white" stroke="transparent" points="-4,4 -4,-176 506,-176 506,4 -4,4"/>
<!-- Node1 -->
<g id="node1" class="node">
<title>Node1</title>
<g id="a_node1"><a xlink:title="A multi&#45;directional screw mount slot with optional cover envelope.">
<polygon fill="#bfbfbf" stroke="black" points="0,-76.5 0,-95.5 126,-95.5 126,-76.5 0,-76.5"/>
<text text-anchor="middle" x="63" y="-83.5" font-family="Helvetica,sans-Serif" font-size="10.00">mount_screw_slot_md</text>
</a>
</g>
</g>
<!-- Node2 -->
<g id="node2" class="node">
<title>Node2</title>
<g id="a_node2"><a xlink:href="group__datatypes__iterable__operate.html#ga3d37c2b0067d1661724bd89955c8f6ce" target="_top" xlink:title="Return an element of an iterable when it exists or a default value otherwise.">
<polygon fill="white" stroke="black" points="417,-152.5 417,-171.5 496,-171.5 496,-152.5 417,-152.5"/>
<text text-anchor="middle" x="456.5" y="-159.5" font-family="Helvetica,sans-Serif" font-size="10.00">defined_e_or</text>
</a>
</g>
</g>
<!-- Node1&#45;&gt;Node2 -->
<g id="edge1" class="edge">
<title>Node1&#45;&gt;Node2</title>
<path fill="none" stroke="midnightblue" d="M85.5,-95.58C126.7,-113.35 220.02,-150.8 303,-164 334.6,-169.03 343,-164.4 375,-164 385.17,-163.87 396.06,-163.66 406.44,-163.41"/>
<polygon fill="midnightblue" stroke="midnightblue" points="406.7,-166.91 416.61,-163.16 406.52,-159.91 406.7,-166.91"/>
</g>
<!-- Node3 -->
<g id="node3" class="node">
<title>Node3</title>
<g id="a_node3"><a xlink:href="group__datatypes__iterable__operate.html#gaa10da05023bd79eec85459298bc937c2" target="_top" xlink:title="Return the list element or scalar numeric value, if either is defined, otherwise the default value.">
<polygon fill="white" stroke="black" points="411,-0.5 411,-19.5 502,-19.5 502,-0.5 411,-0.5"/>
<text text-anchor="middle" x="456.5" y="-7.5" font-family="Helvetica,sans-Serif" font-size="10.00">defined_eon_or</text>
</a>
</g>
</g>
<!-- Node1&#45;&gt;Node3 -->
<g id="edge2" class="edge">
<title>Node1&#45;&gt;Node3</title>
<path fill="none" stroke="midnightblue" d="M86.18,-76.39C127.74,-58.97 220.61,-22.78 303,-10 335.18,-5.01 371.64,-4.81 400.84,-5.96"/>
<polygon fill="midnightblue" stroke="midnightblue" points="400.7,-9.45 410.85,-6.41 401.02,-2.46 400.7,-9.45"/>
</g>
<!-- Node4 -->
<g id="node4" class="node">
<title>Node4</title>
<g id="a_node4"><a xlink:href="group__parts__3d__enclosure__mounts.html#ga1a26f176e04863a2bf335960a52b39a8" target="_top" xlink:title="A screw mount slot with optional cover envelope.">
<polygon fill="white" stroke="black" points="162,-76.5 162,-95.5 267,-95.5 267,-76.5 162,-76.5"/>
<text text-anchor="middle" x="214.5" y="-83.5" font-family="Helvetica,sans-Serif" font-size="10.00">mount_screw_slot</text>
</a>
</g>
</g>
<!-- Node1&#45;&gt;Node4 -->
<g id="edge3" class="edge">
<title>Node1&#45;&gt;Node4</title>
<path fill="none" stroke="midnightblue" d="M126.1,-86C134.54,-86 143.21,-86 151.64,-86"/>
<polygon fill="midnightblue" stroke="midnightblue" points="151.79,-89.5 161.79,-86 151.79,-82.5 151.79,-89.5"/>
</g>
<!-- Node4&#45;&gt;Node2 -->
<g id="edge4" class="edge">
<title>Node4&#45;&gt;Node2</title>
<path fill="none" stroke="midnightblue" d="M226.48,-95.56C242.23,-108.69 272.69,-131.91 303,-143 336.32,-155.19 376.17,-159.84 406.77,-161.5"/>
<polygon fill="midnightblue" stroke="midnightblue" points="406.63,-164.99 416.78,-161.95 406.95,-158 406.63,-164.99"/>
</g>
<!-- Node4&#45;&gt;Node3 -->
<g id="edge5" class="edge">
<title>Node4&#45;&gt;Node3</title>
<path fill="none" stroke="midnightblue" d="M226.48,-76.44C242.23,-63.31 272.69,-40.09 303,-29 334.16,-17.6 371.02,-12.8 400.7,-10.86"/>
<polygon fill="midnightblue" stroke="midnightblue" points="401.09,-14.35 410.88,-10.3 400.7,-7.36 401.09,-14.35"/>
</g>
<!-- Node5 -->
<g id="node5" class="node">
<title>Node5</title>
<g id="a_node5"><a xlink:href="group__datatypes__scalar__operate.html#gac119300e8c83de0037f2d0a4d9f0ab5c" target="_top" xlink:title="Return given value, if defined, or a secondary value, if primary is not defined.">
<polygon fill="white" stroke="black" points="305,-38.5 305,-57.5 373,-57.5 373,-38.5 305,-38.5"/>
<text text-anchor="middle" x="339" y="-45.5" font-family="Helvetica,sans-Serif" font-size="10.00">defined_or</text>
</a>
</g>
</g>
<!-- Node4&#45;&gt;Node5 -->
<g id="edge6" class="edge">
<title>Node4&#45;&gt;Node5</title>
<path fill="none" stroke="midnightblue" d="M246.41,-76.41C261.79,-71.64 280.58,-65.81 297.13,-60.68"/>
<polygon fill="midnightblue" stroke="midnightblue" points="298.58,-63.89 307.1,-57.59 296.51,-57.21 298.58,-63.89"/>
</g>
<!-- Node6 -->
<g id="node6" class="node">
<title>Node6</title>
<g id="a_node6"><a xlink:href="group__models__3d__fastener__screws.html#ga57dcfe1241e15eaa58ccd08891504a93" target="_top" xlink:title="Flat and beveled&#45;head fastener bore with nut, nut slot, and bore tolerance.">
<polygon fill="white" stroke="black" points="303,-114.5 303,-133.5 375,-133.5 375,-114.5 303,-114.5"/>
<text text-anchor="middle" x="339" y="-121.5" font-family="Helvetica,sans-Serif" font-size="10.00">screw_bore</text>
</a>
</g>
</g>
<!-- Node4&#45;&gt;Node6 -->
<g id="edge7" class="edge">
<title>Node4&#45;&gt;Node6</title>
<path fill="none" stroke="midnightblue" d="M246.41,-95.59C261.79,-100.36 280.58,-106.19 297.13,-111.32"/>
<polygon fill="midnightblue" stroke="midnightblue" points="296.51,-114.79 307.1,-114.41 298.58,-108.11 296.51,-114.79"/>
</g>
<!-- Node7 -->
<g id="node7" class="node">
<title>Node7</title>
<g id="a_node7"><a xlink:href="group__datatypes__list__operate.html#ga7b8e6f2bbfa72ae61e39377e5ca6b5be" target="_top" xlink:title="Select specified element from list or return a default.">
<polygon fill="white" stroke="black" points="427,-95.5 427,-114.5 486,-114.5 486,-95.5 427,-95.5"/>
<text text-anchor="middle" x="456.5" y="-102.5" font-family="Helvetica,sans-Serif" font-size="10.00">select_ci</text>
</a>
</g>
</g>
<!-- Node4&#45;&gt;Node7 -->
<g id="edge11" class="edge">
<title>Node4&#45;&gt;Node7</title>
<path fill="none" stroke="midnightblue" d="M267.28,-90.1C312.16,-93.65 376.09,-98.71 416.68,-101.93"/>
<polygon fill="midnightblue" stroke="midnightblue" points="416.48,-105.42 426.73,-102.72 417.03,-98.44 416.48,-105.42"/>
</g>
<!-- Node6&#45;&gt;Node2 -->
<g id="edge8" class="edge">
<title>Node6&#45;&gt;Node2</title>
<path fill="none" stroke="midnightblue" d="M369.15,-133.59C383.51,-138.31 401.03,-144.08 416.53,-149.18"/>
<polygon fill="midnightblue" stroke="midnightblue" points="415.77,-152.61 426.36,-152.41 417.96,-145.96 415.77,-152.61"/>
</g>
<!-- Node6&#45;&gt;Node3 -->
<g id="edge9" class="edge">
<title>Node6&#45;&gt;Node3</title>
<path fill="none" stroke="midnightblue" d="M349.85,-114.28C369.54,-94.85 413.97,-50.99 438.48,-26.8"/>
<polygon fill="midnightblue" stroke="midnightblue" points="441.02,-29.21 445.68,-19.69 436.1,-24.23 441.02,-29.21"/>
</g>
<!-- Node6&#45;&gt;Node7 -->
<g id="edge10" class="edge">
<title>Node6&#45;&gt;Node7</title>
<path fill="none" stroke="midnightblue" d="M375.28,-118.2C388.39,-116.04 403.33,-113.58 416.74,-111.38"/>
<polygon fill="midnightblue" stroke="midnightblue" points="417.33,-114.83 426.63,-109.75 416.2,-107.92 417.33,-114.83"/>
</g>
</g>
</svg>
