<?xml version="1.0" encoding="UTF-8" standalone="no"?>
<!DOCTYPE svg PUBLIC "-//W3C//DTD SVG 1.1//EN"
 "http://www.w3.org/Graphics/SVG/1.1/DTD/svg11.dtd">
<!-- Generated by graphviz version 2.43.0 (0)
 -->
<!-- Title: screw_bore Pages: 1 -->
<svg width="207pt" height="104pt"
 viewBox="0.00 0.00 207.00 104.00" xmlns="http://www.w3.org/2000/svg" xmlns:xlink="http://www.w3.org/1999/xlink">
<g id="graph0" class="graph" transform="scale(1 1) rotate(0) translate(4 100)">
<title>screw_bore</title>
<polygon fill="white" stroke="transparent" points="-4,4 -4,-100 203,-100 203,4 -4,4"/>
<!-- Node1 -->
<g id="node1" class="node">
<title>Node1</title>
<g id="a_node1"><a xlink:title="Flat and beveled&#45;head fastener bore with nut, nut slot, and bore tolerance.">
<polygon fill="#bfbfbf" stroke="black" points="0,-38.5 0,-57.5 72,-57.5 72,-38.5 0,-38.5"/>
<text text-anchor="middle" x="36" y="-45.5" font-family="Helvetica,sans-Serif" font-size="10.00">screw_bore</text>
</a>
</g>
</g>
<!-- Node2 -->
<g id="node2" class="node">
<title>Node2</title>
<g id="a_node2"><a xlink:href="group__datatypes__iterable__operate.html#ga3d37c2b0067d1661724bd89955c8f6ce" target="_top" xlink:title="Return an element of an iterable when it exists or a default value otherwise.">
<polygon fill="white" stroke="black" points="114,-76.5 114,-95.5 193,-95.5 193,-76.5 114,-76.5"/>
<text text-anchor="middle" x="153.5" y="-83.5" font-family="Helvetica,sans-Serif" font-size="10.00">defined_e_or</text>
</a>
</g>
</g>
<!-- Node1&#45;&gt;Node2 -->
<g id="edge1" class="edge">
<title>Node1&#45;&gt;Node2</title>
<path fill="none" stroke="midnightblue" d="M66.15,-57.59C80.51,-62.31 98.03,-68.08 113.53,-73.18"/>
<polygon fill="midnightblue" stroke="midnightblue" points="112.77,-76.61 123.36,-76.41 114.96,-69.96 112.77,-76.61"/>
</g>
<!-- Node3 -->
<g id="node3" class="node">
<title>Node3</title>
<g id="a_node3"><a xlink:href="group__datatypes__iterable__operate.html#gaa10da05023bd79eec85459298bc937c2" target="_top" xlink:title="Return the list element or scalar numeric value, if either is defined, otherwise the default value.">
<polygon fill="white" stroke="black" points="108,-38.5 108,-57.5 199,-57.5 199,-38.5 108,-38.5"/>
<text text-anchor="middle" x="153.5" y="-45.5" font-family="Helvetica,sans-Serif" font-size="10.00">defined_eon_or</text>
</a>
</g>
</g>
<!-- Node1&#45;&gt;Node3 -->
<g id="edge2" class="edge">
<title>Node1&#45;&gt;Node3</title>
<path fill="none" stroke="midnightblue" d="M72.28,-48C80.29,-48 88.99,-48 97.6,-48"/>
<polygon fill="midnightblue" stroke="midnightblue" points="97.62,-51.5 107.62,-48 97.62,-44.5 97.62,-51.5"/>
</g>
<!-- Node4 -->
<g id="node4" class="node">
<title>Node4</title>
<g id="a_node4"><a xlink:href="group__datatypes__list__operate.html#ga7b8e6f2bbfa72ae61e39377e5ca6b5be" target="_top" xlink:title="Select specified element from list or return a default.">
<polygon fill="white" stroke="black" points="124,-0.5 124,-19.5 183,-19.5 183,-0.5 124,-0.5"/>
<text text-anchor="middle" x="153.5" y="-7.5" font-family="Helvetica,sans-Serif" font-size="10.00">select_ci</text>
</a>
</g>
</g>
<!-- Node1&#45;&gt;Node4 -->
<g id="edge3" class="edge">
<title>Node1&#45;&gt;Node4</title>
<path fill="none" stroke="midnightblue" d="M66.15,-38.41C80.62,-33.65 98.3,-27.83 113.88,-22.71"/>
<polygon fill="midnightblue" stroke="midnightblue" points="115.36,-25.9 123.76,-19.45 113.17,-19.25 115.36,-25.9"/>
</g>
</g>
</svg>
