<?xml version="1.0" encoding="UTF-8" standalone="no"?>
<!DOCTYPE svg PUBLIC "-//W3C//DTD SVG 1.1//EN"
 "http://www.w3.org/Graphics/SVG/1.1/DTD/svg11.dtd">
<!-- Generated by graphviz version 2.43.0 (0)
 -->
<!-- Title: extrude_linear_mss_eht Pages: 1 -->
<svg width="429pt" height="47pt"
 viewBox="0.00 0.00 429.00 47.00" xmlns="http://www.w3.org/2000/svg" xmlns:xlink="http://www.w3.org/1999/xlink">
<g id="graph0" class="graph" transform="scale(1 1) rotate(0) translate(4 43)">
<title>extrude_linear_mss_eht</title>
<polygon fill="white" stroke="transparent" points="-4,4 -4,-43 425,-43 425,4 -4,4"/>
<!-- Node1 -->
<g id="node1" class="node">
<title>Node1</title>
<g id="a_node1"><a xlink:title="Return the total extrusion height for extrude_linear_mss().">
<polygon fill="#bfbfbf" stroke="black" points="287,-19.5 287,-38.5 421,-38.5 421,-19.5 287,-19.5"/>
<text text-anchor="middle" x="354" y="-26.5" font-family="Helvetica,sans-Serif" font-size="10.00">extrude_linear_mss_eht</text>
</a>
</g>
</g>
<!-- Node2 -->
<g id="node2" class="node">
<title>Node2</title>
<g id="a_node2"><a xlink:href="group__parts__3d__enclosure__power__strip.html#ga191779dedf39e4fd769a8dc96b0f8c9e" target="_top" xlink:title="A power strip generator for single gang electrical receptacles.">
<polygon fill="white" stroke="black" points="0,-19.5 0,-38.5 90,-38.5 90,-19.5 0,-19.5"/>
<text text-anchor="middle" x="45" y="-26.5" font-family="Helvetica,sans-Serif" font-size="10.00">power_strip_sg</text>
</a>
</g>
</g>
<!-- Node1&#45;&gt;Node2 -->
<g id="edge1" class="edge">
<title>Node1&#45;&gt;Node2</title>
<path fill="none" stroke="midnightblue" d="M276.43,-29C217.78,-29 138.93,-29 90.33,-29"/>
<polygon fill="midnightblue" stroke="midnightblue" points="276.76,-32.5 286.76,-29 276.76,-25.5 276.76,-32.5"/>
</g>
<!-- Node3 -->
<g id="node3" class="node">
<title>Node3</title>
<g id="a_node3"><a xlink:href="group__parts__3d__enclosure__project__box__rectangle.html#ga6a5d093d732e65556c46252220f2c4b6" target="_top" xlink:title="A rectangular box maker for project boxes, enclosures and housings.">
<polygon fill="white" stroke="black" points="126,-0.5 126,-19.5 251,-19.5 251,-0.5 126,-0.5"/>
<text text-anchor="middle" x="188.5" y="-7.5" font-family="Helvetica,sans-Serif" font-size="10.00">project_box_rectangle</text>
</a>
</g>
</g>
<!-- Node1&#45;&gt;Node3 -->
<g id="edge2" class="edge">
<title>Node1&#45;&gt;Node3</title>
<path fill="none" stroke="midnightblue" d="M276.86,-20.15C268.2,-19.15 259.46,-18.13 251.02,-17.15"/>
<polygon fill="midnightblue" stroke="midnightblue" points="276.63,-23.65 286.97,-21.33 277.44,-16.7 276.63,-23.65"/>
</g>
<!-- Node3&#45;&gt;Node2 -->
<g id="edge3" class="edge">
<title>Node3&#45;&gt;Node2</title>
<path fill="none" stroke="midnightblue" d="M115.9,-19.61C107.07,-20.8 98.26,-21.98 90.01,-23.09"/>
<polygon fill="midnightblue" stroke="midnightblue" points="116.4,-23.08 125.85,-18.28 115.47,-16.14 116.4,-23.08"/>
</g>
</g>
</svg>
