<?xml version="1.0" encoding="UTF-8" standalone="no"?>
<!DOCTYPE svg PUBLIC "-//W3C//DTD SVG 1.1//EN"
 "http://www.w3.org/Graphics/SVG/1.1/DTD/svg11.dtd">
<!-- Generated by graphviz version 2.43.0 (0)
 -->
<!-- Title: cone Pages: 1 -->
<svg width="278pt" height="142pt"
 viewBox="0.00 0.00 278.00 142.00" xmlns="http://www.w3.org/2000/svg" xmlns:xlink="http://www.w3.org/1999/xlink">
<g id="graph0" class="graph" transform="scale(1 1) rotate(0) translate(4 138)">
<title>cone</title>
<polygon fill="white" stroke="transparent" points="-4,4 -4,-138 274,-138 274,4 -4,4"/>
<!-- Node1 -->
<g id="node1" class="node">
<title>Node1</title>
<g id="a_node1"><a xlink:title="A cone.">
<polygon fill="#bfbfbf" stroke="black" points="230,-57.5 230,-76.5 270,-76.5 270,-57.5 230,-57.5"/>
<text text-anchor="middle" x="250" y="-64.5" font-family="Helvetica,sans-Serif" font-size="10.00">cone</text>
</a>
</g>
</g>
<!-- Node2 -->
<g id="node2" class="node">
<title>Node2</title>
<g id="a_node2"><a xlink:href="group__parts__3d__enclosure__clamps.html#ga8fd874789132e42e5470328d18560f1a" target="_top" xlink:title="A clamp, bushing, and/or grip for wire/hose wall penetrations.">
<polygon fill="white" stroke="black" points="128.5,-114.5 128.5,-133.5 191.5,-133.5 191.5,-114.5 128.5,-114.5"/>
<text text-anchor="middle" x="160" y="-121.5" font-family="Helvetica,sans-Serif" font-size="10.00">clamp_cg</text>
</a>
</g>
</g>
<!-- Node1&#45;&gt;Node2 -->
<g id="edge1" class="edge">
<title>Node1&#45;&gt;Node2</title>
<path fill="none" stroke="midnightblue" d="M225.37,-82.31C209.56,-92.55 189.24,-105.71 175.71,-114.47"/>
<polygon fill="midnightblue" stroke="midnightblue" points="227.58,-85.04 234.07,-76.67 223.78,-79.17 227.58,-85.04"/>
</g>
<!-- Node3 -->
<g id="node3" class="node">
<title>Node3</title>
<g id="a_node3"><a xlink:href="group__parts__3d__enclosure__power__strip.html#ga191779dedf39e4fd769a8dc96b0f8c9e" target="_top" xlink:title="A power strip generator for single gang electrical receptacles.">
<polygon fill="white" stroke="black" points="0,-76.5 0,-95.5 90,-95.5 90,-76.5 0,-76.5"/>
<text text-anchor="middle" x="45" y="-83.5" font-family="Helvetica,sans-Serif" font-size="10.00">power_strip_sg</text>
</a>
</g>
</g>
<!-- Node1&#45;&gt;Node3 -->
<g id="edge7" class="edge">
<title>Node1&#45;&gt;Node3</title>
<path fill="none" stroke="midnightblue" d="M219.7,-69.74C185.72,-72.92 129.33,-78.2 90.05,-81.88"/>
<polygon fill="midnightblue" stroke="midnightblue" points="220.27,-73.2 229.9,-68.79 219.62,-66.23 220.27,-73.2"/>
</g>
<!-- Node4 -->
<g id="node4" class="node">
<title>Node4</title>
<g id="a_node4"><a xlink:href="group__parts__3d__fastener__hinges.html#ga7e350f2c55116094108b99dd8103fc04" target="_top" xlink:title="A print&#45;in&#45;place single&#45;fold hinge generator.">
<polygon fill="white" stroke="black" points="131,-0.5 131,-19.5 189,-19.5 189,-0.5 131,-0.5"/>
<text text-anchor="middle" x="160" y="-7.5" font-family="Helvetica,sans-Serif" font-size="10.00">hinge_sf</text>
</a>
</g>
</g>
<!-- Node1&#45;&gt;Node4 -->
<g id="edge3" class="edge">
<title>Node1&#45;&gt;Node4</title>
<path fill="none" stroke="midnightblue" d="M227.45,-51.51C217.42,-44.44 205.23,-36.1 194,-29 188.97,-25.82 183.4,-22.53 178.29,-19.6"/>
<polygon fill="midnightblue" stroke="midnightblue" points="225.46,-54.39 235.65,-57.32 229.51,-48.68 225.46,-54.39"/>
</g>
<!-- Node6 -->
<g id="node6" class="node">
<title>Node6</title>
<g id="a_node6"><a xlink:href="group__models__3d__misc__omdl__logo.html#gab176f64dad7e83d4fb056be44b71f630" target="_top" xlink:title="Standard omdl logo.">
<polygon fill="white" stroke="black" points="126,-38.5 126,-57.5 194,-57.5 194,-38.5 126,-38.5"/>
<text text-anchor="middle" x="160" y="-45.5" font-family="Helvetica,sans-Serif" font-size="10.00">omdl_logo</text>
</a>
</g>
</g>
<!-- Node1&#45;&gt;Node6 -->
<g id="edge5" class="edge">
<title>Node1&#45;&gt;Node6</title>
<path fill="none" stroke="midnightblue" d="M220,-60.74C211.76,-58.96 202.73,-57.01 194.26,-55.18"/>
<polygon fill="midnightblue" stroke="midnightblue" points="219.39,-64.19 229.91,-62.88 220.87,-57.35 219.39,-64.19"/>
</g>
<!-- Node2&#45;&gt;Node3 -->
<g id="edge2" class="edge">
<title>Node2&#45;&gt;Node3</title>
<path fill="none" stroke="midnightblue" d="M120.86,-111.17C105.7,-106.08 88.56,-100.31 74.51,-95.59"/>
<polygon fill="midnightblue" stroke="midnightblue" points="119.89,-114.54 130.49,-114.41 122.12,-107.91 119.89,-114.54"/>
</g>
<!-- Node5 -->
<g id="node5" class="node">
<title>Node5</title>
<g id="a_node5"><a xlink:href="group__parts__3d__fastener__hinges.html#ga1ffc82e0bbac466d1dc4fbe6c214b765" target="_top" xlink:title="A print&#45;in&#45;place bi&#45;fold hinge generator.">
<polygon fill="white" stroke="black" points="15.5,-0.5 15.5,-19.5 74.5,-19.5 74.5,-0.5 15.5,-0.5"/>
<text text-anchor="middle" x="45" y="-7.5" font-family="Helvetica,sans-Serif" font-size="10.00">hinge_bf</text>
</a>
</g>
</g>
<!-- Node4&#45;&gt;Node5 -->
<g id="edge4" class="edge">
<title>Node4&#45;&gt;Node5</title>
<path fill="none" stroke="midnightblue" d="M120.71,-10C105.64,-10 88.63,-10 74.65,-10"/>
<polygon fill="midnightblue" stroke="midnightblue" points="120.78,-13.5 130.78,-10 120.78,-6.5 120.78,-13.5"/>
</g>
<!-- Node6&#45;&gt;Node3 -->
<g id="edge6" class="edge">
<title>Node6&#45;&gt;Node3</title>
<path fill="none" stroke="midnightblue" d="M120.86,-60.83C105.7,-65.92 88.56,-71.69 74.51,-76.41"/>
<polygon fill="midnightblue" stroke="midnightblue" points="122.12,-64.09 130.49,-57.59 119.89,-57.46 122.12,-64.09"/>
</g>
</g>
</svg>
