<?xml version="1.0" encoding="UTF-8" standalone="no"?>
<!DOCTYPE svg PUBLIC "-//W3C//DTD SVG 1.1//EN"
 "http://www.w3.org/Graphics/SVG/1.1/DTD/svg11.dtd">
<!-- Generated by graphviz version 2.43.0 (0)
 -->
<!-- Title: defined_or Pages: 1 -->
<svg width="399pt" height="636pt"
 viewBox="0.00 0.00 399.00 636.00" xmlns="http://www.w3.org/2000/svg" xmlns:xlink="http://www.w3.org/1999/xlink">
<g id="graph0" class="graph" transform="scale(1 1) rotate(0) translate(4 632)">
<title>defined_or</title>
<polygon fill="white" stroke="transparent" points="-4,4 -4,-632 395,-632 395,4 -4,4"/>
<!-- Node1 -->
<g id="node1" class="node">
<title>Node1</title>
<g id="a_node1"><a xlink:title="Return given value, if defined, or a secondary value, if primary is not defined.">
<polygon fill="#bfbfbf" stroke="black" points="323,-304.5 323,-323.5 391,-323.5 391,-304.5 323,-304.5"/>
<text text-anchor="middle" x="357" y="-311.5" font-family="Helvetica,sans-Serif" font-size="10.00">defined_or</text>
</a>
</g>
</g>
<!-- Node2 -->
<g id="node2" class="node">
<title>Node2</title>
<g id="a_node2"><a xlink:href="group__parts__3d__fastener__catch__latch.html#ga26a9933aa6d33599daab1be8d632c430" target="_top" xlink:title="A catch latch generator with configurable profile.">
<polygon fill="white" stroke="black" points="188.5,-608.5 188.5,-627.5 260.5,-627.5 260.5,-608.5 188.5,-608.5"/>
<text text-anchor="middle" x="224.5" y="-615.5" font-family="Helvetica,sans-Serif" font-size="10.00">catch_latch</text>
</a>
</g>
</g>
<!-- Node1&#45;&gt;Node2 -->
<g id="edge1" class="edge">
<title>Node1&#45;&gt;Node2</title>
<path fill="none" stroke="midnightblue" d="M353.48,-334.02C345.9,-391.34 321.67,-554.48 287,-594 280.12,-601.84 270.36,-607.14 260.64,-610.71"/>
<polygon fill="midnightblue" stroke="midnightblue" points="356.99,-334.12 354.81,-323.76 350.05,-333.22 356.99,-334.12"/>
</g>
<!-- Node3 -->
<g id="node3" class="node">
<title>Node3</title>
<g id="a_node3"><a xlink:href="group__tools__drafting__dimension.html#ga6b8e17d22ac4a95d25a90be8a74c0689" target="_top" xlink:title="Construct a angular dimension arc.">
<polygon fill="white" stroke="black" points="15.5,-565.5 15.5,-584.5 110.5,-584.5 110.5,-565.5 15.5,-565.5"/>
<text text-anchor="middle" x="63" y="-572.5" font-family="Helvetica,sans-Serif" font-size="10.00">draft_dim_angle</text>
</a>
</g>
</g>
<!-- Node1&#45;&gt;Node3 -->
<g id="edge2" class="edge">
<title>Node1&#45;&gt;Node3</title>
<path fill="none" stroke="midnightblue" d="M353.1,-333.7C345.1,-385.33 320.98,-522.54 287,-551 238.05,-592.01 160.3,-590.33 110.73,-583.82"/>
<polygon fill="midnightblue" stroke="midnightblue" points="356.61,-333.95 354.64,-323.54 349.68,-332.9 356.61,-333.95"/>
</g>
<!-- Node4 -->
<g id="node4" class="node">
<title>Node4</title>
<g id="a_node4"><a xlink:href="group__tools__drafting__dimension.html#ga5c4915c4c4464c5cdaefd501c2de261d" target="_top" xlink:title="Construct a dimension leader line at a point.">
<polygon fill="white" stroke="black" points="13.5,-522.5 13.5,-541.5 112.5,-541.5 112.5,-522.5 13.5,-522.5"/>
<text text-anchor="middle" x="63" y="-529.5" font-family="Helvetica,sans-Serif" font-size="10.00">draft_dim_leader</text>
</a>
</g>
</g>
<!-- Node1&#45;&gt;Node4 -->
<g id="edge3" class="edge">
<title>Node1&#45;&gt;Node4</title>
<path fill="none" stroke="midnightblue" d="M356.29,-333.81C355.71,-376.55 347.64,-477.27 287,-523 231.93,-564.53 145.63,-552.66 98.15,-541.57"/>
<polygon fill="midnightblue" stroke="midnightblue" points="359.79,-333.6 356.29,-323.6 352.79,-333.6 359.79,-333.6"/>
</g>
<!-- Node5 -->
<g id="node5" class="node">
<title>Node5</title>
<g id="a_node5"><a xlink:href="group__tools__drafting__dimension.html#ga27a35e94597435a74e22d76789e9be5e" target="_top" xlink:title="Construct a dimension line between two points.">
<polygon fill="white" stroke="black" points="20,-475.5 20,-494.5 106,-494.5 106,-475.5 20,-475.5"/>
<text text-anchor="middle" x="63" y="-482.5" font-family="Helvetica,sans-Serif" font-size="10.00">draft_dim_line</text>
</a>
</g>
</g>
<!-- Node1&#45;&gt;Node5 -->
<g id="edge4" class="edge">
<title>Node1&#45;&gt;Node5</title>
<path fill="none" stroke="midnightblue" d="M351,-333.82C342.74,-362.27 323.41,-414.23 287,-441 233.59,-480.27 154.24,-486.95 106,-486.9"/>
<polygon fill="midnightblue" stroke="midnightblue" points="354.47,-334.41 353.72,-323.84 347.71,-332.57 354.47,-334.41"/>
</g>
<!-- Node6 -->
<g id="node6" class="node">
<title>Node6</title>
<g id="a_node6"><a xlink:href="group__tools__drafting__dimension.html#gaef1a8150a8ef7be88e086fb3dbab64a9" target="_top" xlink:title="Construct a radial dimension line.">
<polygon fill="white" stroke="black" points="14,-437.5 14,-456.5 112,-456.5 112,-437.5 14,-437.5"/>
<text text-anchor="middle" x="63" y="-444.5" font-family="Helvetica,sans-Serif" font-size="10.00">draft_dim_radius</text>
</a>
</g>
</g>
<!-- Node1&#45;&gt;Node6 -->
<g id="edge5" class="edge">
<title>Node1&#45;&gt;Node6</title>
<path fill="none" stroke="midnightblue" d="M347.69,-333.08C337.01,-355.16 316.3,-390.8 287,-409 233.62,-442.15 159.85,-448.71 112.04,-448.96"/>
<polygon fill="midnightblue" stroke="midnightblue" points="350.99,-334.28 352,-323.74 344.63,-331.35 350.99,-334.28"/>
</g>
<!-- Node7 -->
<g id="node7" class="node">
<title>Node7</title>
<g id="a_node7"><a xlink:href="group__tools__drafting__operation.html#ga6273cb44e3132783d3714375c9fb1e4b" target="_top" xlink:title="Move one or more child objects to sheet a reference zone.">
<polygon fill="white" stroke="black" points="188.5,-380.5 188.5,-399.5 260.5,-399.5 260.5,-380.5 188.5,-380.5"/>
<text text-anchor="middle" x="224.5" y="-387.5" font-family="Helvetica,sans-Serif" font-size="10.00">draft_move</text>
</a>
</g>
</g>
<!-- Node1&#45;&gt;Node7 -->
<g id="edge6" class="edge">
<title>Node1&#45;&gt;Node7</title>
<path fill="none" stroke="midnightblue" d="M339.27,-331.06C326.08,-343.64 306.7,-360.36 287,-371 278.84,-375.41 269.5,-378.95 260.62,-381.73"/>
<polygon fill="midnightblue" stroke="midnightblue" points="341.93,-333.35 346.62,-323.84 337.03,-328.35 341.93,-333.35"/>
</g>
<!-- Node8 -->
<g id="node8" class="node">
<title>Node8</title>
<g id="a_node8"><a xlink:href="group__tools__drafting__operation.html#gac1b780633ac5e2874a8a00177d98b305" target="_top" xlink:title="Construct a text note with optional heading and boarder.">
<polygon fill="white" stroke="black" points="191.5,-494.5 191.5,-513.5 257.5,-513.5 257.5,-494.5 191.5,-494.5"/>
<text text-anchor="middle" x="224.5" y="-501.5" font-family="Helvetica,sans-Serif" font-size="10.00">draft_note</text>
</a>
</g>
</g>
<!-- Node1&#45;&gt;Node8 -->
<g id="edge7" class="edge">
<title>Node1&#45;&gt;Node8</title>
<path fill="none" stroke="midnightblue" d="M352.93,-333.86C346.62,-368.17 329.09,-438.82 287,-480 278.97,-487.85 268.08,-493.21 257.69,-496.83"/>
<polygon fill="midnightblue" stroke="midnightblue" points="356.43,-334.16 354.65,-323.71 349.53,-332.98 356.43,-334.16"/>
</g>
<!-- Node9 -->
<g id="node9" class="node">
<title>Node9</title>
<g id="a_node9"><a xlink:href="group__tools__drafting__primitive.html#gaf5c23ddb3b38a362eaece312029bcedd" target="_top" xlink:title="Add text to table cell at a given a column and row.">
<polygon fill="white" stroke="black" points="177.5,-342.5 177.5,-361.5 271.5,-361.5 271.5,-342.5 177.5,-342.5"/>
<text text-anchor="middle" x="224.5" y="-349.5" font-family="Helvetica,sans-Serif" font-size="10.00">draft_table_text</text>
</a>
</g>
</g>
<!-- Node1&#45;&gt;Node9 -->
<g id="edge12" class="edge">
<title>Node1&#45;&gt;Node9</title>
<path fill="none" stroke="midnightblue" d="M313.45,-326.39C295.58,-331.59 275.11,-337.55 258.42,-342.41"/>
<polygon fill="midnightblue" stroke="midnightblue" points="314.45,-329.75 323.07,-323.59 312.49,-323.02 314.45,-329.75"/>
</g>
<!-- Node10 -->
<g id="node10" class="node">
<title>Node10</title>
<g id="a_node10"><a xlink:href="group__tools__drafting__primitive.html#gaace78d1d977ad068ab277e50a591fde8" target="_top" xlink:title="Add text to ztable at a given zone index.">
<polygon fill="white" stroke="black" points="175,-304.5 175,-323.5 274,-323.5 274,-304.5 175,-304.5"/>
<text text-anchor="middle" x="224.5" y="-311.5" font-family="Helvetica,sans-Serif" font-size="10.00">draft_ztable_text</text>
</a>
</g>
</g>
<!-- Node1&#45;&gt;Node10 -->
<g id="edge13" class="edge">
<title>Node1&#45;&gt;Node10</title>
<path fill="none" stroke="midnightblue" d="M312.38,-314C300.22,-314 286.93,-314 274.48,-314"/>
<polygon fill="midnightblue" stroke="midnightblue" points="312.73,-317.5 322.73,-314 312.73,-310.5 312.73,-317.5"/>
</g>
<!-- Node11 -->
<g id="node11" class="node">
<title>Node11</title>
<g id="a_node11"><a xlink:href="group__parts__3d__enclosure__mounts.html#ga1a26f176e04863a2bf335960a52b39a8" target="_top" xlink:title="A screw mount slot with optional cover envelope.">
<polygon fill="white" stroke="black" points="172,-266.5 172,-285.5 277,-285.5 277,-266.5 172,-266.5"/>
<text text-anchor="middle" x="224.5" y="-273.5" font-family="Helvetica,sans-Serif" font-size="10.00">mount_screw_slot</text>
</a>
</g>
</g>
<!-- Node1&#45;&gt;Node11 -->
<g id="edge14" class="edge">
<title>Node1&#45;&gt;Node11</title>
<path fill="none" stroke="midnightblue" d="M313.45,-301.61C295.58,-296.41 275.11,-290.45 258.42,-285.59"/>
<polygon fill="midnightblue" stroke="midnightblue" points="312.49,-304.98 323.07,-304.41 314.45,-298.25 312.49,-304.98"/>
</g>
<!-- Node14 -->
<g id="node14" class="node">
<title>Node14</title>
<g id="a_node14"><a xlink:href="group__parts__3d__enclosure__mounts.html#gae1cc60f3ff242fb07c5a50d34be8c051" target="_top" xlink:title="A mount tab with screw hole and support brace.">
<polygon fill="white" stroke="black" points="173,-190.5 173,-209.5 276,-209.5 276,-190.5 173,-190.5"/>
<text text-anchor="middle" x="224.5" y="-197.5" font-family="Helvetica,sans-Serif" font-size="10.00">mount_screw_tab</text>
</a>
</g>
</g>
<!-- Node1&#45;&gt;Node14 -->
<g id="edge17" class="edge">
<title>Node1&#45;&gt;Node14</title>
<path fill="none" stroke="midnightblue" d="M347.09,-295.24C335.95,-273.76 314.91,-238.97 287,-219 281.64,-215.16 275.48,-212.09 269.18,-209.62"/>
<polygon fill="midnightblue" stroke="midnightblue" points="344.03,-296.94 351.62,-304.33 350.29,-293.82 344.03,-296.94"/>
</g>
<!-- Node15 -->
<g id="node15" class="node">
<title>Node15</title>
<g id="a_node15"><a xlink:href="group__parts__3d__computer__pci__bracket.html#gaf56631cf80d8e5f0b77736b17b94ecd9" target="_top" xlink:title="PCI slot cover and adapter card bracket generator.">
<polygon fill="white" stroke="black" points="188.5,-114.5 188.5,-133.5 260.5,-133.5 260.5,-114.5 188.5,-114.5"/>
<text text-anchor="middle" x="224.5" y="-121.5" font-family="Helvetica,sans-Serif" font-size="10.00">pci_bracket</text>
</a>
</g>
</g>
<!-- Node1&#45;&gt;Node15 -->
<g id="edge19" class="edge">
<title>Node1&#45;&gt;Node15</title>
<path fill="none" stroke="midnightblue" d="M353.57,-294.19C348.16,-258.73 331.87,-184.25 287,-143 279.68,-136.27 270.01,-131.92 260.52,-129.11"/>
<polygon fill="midnightblue" stroke="midnightblue" points="350.12,-294.82 354.96,-304.24 357.06,-293.86 350.12,-294.82"/>
</g>
<!-- Node16 -->
<g id="node16" class="node">
<title>Node16</title>
<g id="a_node16"><a xlink:href="group__shapes__polygon.html#ga22a29774c22e5cc9f3101ed0a0ed307a" target="_top" xlink:title="A polygon rectangle with side rounding.">
<polygon fill="white" stroke="black" points="177.5,-76.5 177.5,-95.5 271.5,-95.5 271.5,-76.5 177.5,-76.5"/>
<text text-anchor="middle" x="224.5" y="-83.5" font-family="Helvetica,sans-Serif" font-size="10.00">pg_rectangle_rs</text>
</a>
</g>
</g>
<!-- Node1&#45;&gt;Node16 -->
<g id="edge20" class="edge">
<title>Node1&#45;&gt;Node16</title>
<path fill="none" stroke="midnightblue" d="M355.24,-293.91C352.57,-252.6 340.61,-157.59 287,-105 282.61,-100.7 277.27,-97.36 271.59,-94.79"/>
<polygon fill="midnightblue" stroke="midnightblue" points="351.75,-294.26 355.77,-304.06 358.74,-293.89 351.75,-294.26"/>
</g>
<!-- Node17 -->
<g id="node17" class="node">
<title>Node17</title>
<g id="a_node17"><a xlink:href="group__tools__polytope.html#ga530c86f9c90ce074aa7adc29834f0539" target="_top" xlink:title="Assemble a polytope skeletal frame using child objects.">
<polygon fill="white" stroke="black" points="177.5,-38.5 177.5,-57.5 271.5,-57.5 271.5,-38.5 177.5,-38.5"/>
<text text-anchor="middle" x="224.5" y="-45.5" font-family="Helvetica,sans-Serif" font-size="10.00">polytope_frame</text>
</a>
</g>
</g>
<!-- Node1&#45;&gt;Node17 -->
<g id="edge21" class="edge">
<title>Node1&#45;&gt;Node17</title>
<path fill="none" stroke="midnightblue" d="M356.46,-294.19C356.42,-247.85 349.69,-131.42 287,-67 282.71,-62.6 277.43,-59.21 271.78,-56.6"/>
<polygon fill="midnightblue" stroke="midnightblue" points="352.96,-294.36 356.35,-304.39 359.96,-294.43 352.96,-294.36"/>
</g>
<!-- Node18 -->
<g id="node18" class="node">
<title>Node18</title>
<g id="a_node18"><a xlink:href="group__tools__polytope.html#ga00b574079f19251be7281151d11db8fa" target="_top" xlink:title="Label the vertices, paths, and edges of a polytope.">
<polygon fill="white" stroke="black" points="173.5,-0.5 173.5,-19.5 275.5,-19.5 275.5,-0.5 173.5,-0.5"/>
<text text-anchor="middle" x="224.5" y="-7.5" font-family="Helvetica,sans-Serif" font-size="10.00">polytope_number</text>
</a>
</g>
</g>
<!-- Node1&#45;&gt;Node18 -->
<g id="edge22" class="edge">
<title>Node1&#45;&gt;Node18</title>
<path fill="none" stroke="midnightblue" d="M353.76,-294.25C346.79,-236.27 323.77,-68.13 287,-29 283.33,-25.09 278.87,-21.98 274.05,-19.51"/>
<polygon fill="midnightblue" stroke="midnightblue" points="350.29,-294.79 354.94,-304.31 357.25,-293.97 350.29,-294.79"/>
</g>
<!-- Node19 -->
<g id="node19" class="node">
<title>Node19</title>
<g id="a_node19"><a xlink:href="group__parts__3d__enclosure__project__box__rectangle.html#ga6a5d093d732e65556c46252220f2c4b6" target="_top" xlink:title="A rectangular box maker for project boxes, enclosures and housings.">
<polygon fill="white" stroke="black" points="162,-228.5 162,-247.5 287,-247.5 287,-228.5 162,-228.5"/>
<text text-anchor="middle" x="224.5" y="-235.5" font-family="Helvetica,sans-Serif" font-size="10.00">project_box_rectangle</text>
</a>
</g>
</g>
<!-- Node1&#45;&gt;Node19 -->
<g id="edge23" class="edge">
<title>Node1&#45;&gt;Node19</title>
<path fill="none" stroke="midnightblue" d="M339.27,-296.94C326.08,-284.36 306.7,-267.64 287,-257 280.02,-253.23 272.18,-250.09 264.49,-247.52"/>
<polygon fill="midnightblue" stroke="midnightblue" points="337.03,-299.65 346.62,-304.16 341.93,-294.65 337.03,-299.65"/>
</g>
<!-- Node20 -->
<g id="node20" class="node">
<title>Node20</title>
<g id="a_node20"><a xlink:href="group__shapes__basic__2d.html#ga803b8196745be0e3a338def3c58e3b2b" target="_top" xlink:title="A rectangle with a removed rectangular core.">
<polygon fill="white" stroke="black" points="188,-152.5 188,-171.5 261,-171.5 261,-152.5 188,-152.5"/>
<text text-anchor="middle" x="224.5" y="-159.5" font-family="Helvetica,sans-Serif" font-size="10.00">rectangle_c</text>
</a>
</g>
</g>
<!-- Node1&#45;&gt;Node20 -->
<g id="edge25" class="edge">
<title>Node1&#45;&gt;Node20</title>
<path fill="none" stroke="midnightblue" d="M351.11,-294.59C342.83,-265.64 323.29,-211.31 287,-181 279.62,-174.84 270.26,-170.67 261.08,-167.86"/>
<polygon fill="midnightblue" stroke="midnightblue" points="347.76,-295.6 353.75,-304.34 354.52,-293.77 347.76,-295.6"/>
</g>
<!-- Node8&#45;&gt;Node3 -->
<g id="edge8" class="edge">
<title>Node8&#45;&gt;Node3</title>
<path fill="none" stroke="midnightblue" d="M195.5,-518.23C176.16,-527.88 149.74,-540.7 126,-551 114.35,-556.05 101.27,-561.19 90.13,-565.42"/>
<polygon fill="midnightblue" stroke="midnightblue" points="197.28,-521.25 204.65,-513.64 194.14,-515 197.28,-521.25"/>
</g>
<!-- Node8&#45;&gt;Node4 -->
<g id="edge9" class="edge">
<title>Node8&#45;&gt;Node4</title>
<path fill="none" stroke="midnightblue" d="M181.26,-511.41C160.15,-515.12 134.51,-519.62 112.59,-523.47"/>
<polygon fill="midnightblue" stroke="midnightblue" points="181.98,-514.84 191.22,-509.67 180.77,-507.95 181.98,-514.84"/>
</g>
<!-- Node8&#45;&gt;Node5 -->
<g id="edge10" class="edge">
<title>Node8&#45;&gt;Node5</title>
<path fill="none" stroke="midnightblue" d="M181.01,-498.94C157.87,-496.18 129.32,-492.78 106.22,-490.03"/>
<polygon fill="midnightblue" stroke="midnightblue" points="180.88,-502.45 191.22,-500.16 181.71,-495.5 180.88,-502.45"/>
</g>
<!-- Node8&#45;&gt;Node6 -->
<g id="edge11" class="edge">
<title>Node8&#45;&gt;Node6</title>
<path fill="none" stroke="midnightblue" d="M191.11,-490.68C172.24,-483.09 147.92,-473.62 126,-466 116.54,-462.71 106.16,-459.41 96.65,-456.51"/>
<polygon fill="midnightblue" stroke="midnightblue" points="189.85,-493.95 200.43,-494.45 192.48,-487.46 189.85,-493.95"/>
</g>
<!-- Node12 -->
<g id="node12" class="node">
<title>Node12</title>
<g id="a_node12"><a xlink:href="group__parts__3d__enclosure__mounts.html#gabc7cd409ab1e2e4b6b894de3cf06658f" target="_top" xlink:title="A multi&#45;directional screw mount slot with optional cover envelope.">
<polygon fill="white" stroke="black" points="0,-266.5 0,-285.5 126,-285.5 126,-266.5 0,-266.5"/>
<text text-anchor="middle" x="63" y="-273.5" font-family="Helvetica,sans-Serif" font-size="10.00">mount_screw_slot_md</text>
</a>
</g>
</g>
<!-- Node11&#45;&gt;Node12 -->
<g id="edge15" class="edge">
<title>Node11&#45;&gt;Node12</title>
<path fill="none" stroke="midnightblue" d="M161.63,-276C149.97,-276 137.77,-276 126.1,-276"/>
<polygon fill="midnightblue" stroke="midnightblue" points="161.71,-279.5 171.71,-276 161.71,-272.5 161.71,-279.5"/>
</g>
<!-- Node13 -->
<g id="node13" class="node">
<title>Node13</title>
<g id="a_node13"><a xlink:href="group__parts__3d__enclosure__power__strip.html#ga191779dedf39e4fd769a8dc96b0f8c9e" target="_top" xlink:title="A power strip generator for single gang electrical receptacles.">
<polygon fill="white" stroke="black" points="18,-209.5 18,-228.5 108,-228.5 108,-209.5 18,-209.5"/>
<text text-anchor="middle" x="63" y="-216.5" font-family="Helvetica,sans-Serif" font-size="10.00">power_strip_sg</text>
</a>
</g>
</g>
<!-- Node11&#45;&gt;Node13 -->
<g id="edge16" class="edge">
<title>Node11&#45;&gt;Node13</title>
<path fill="none" stroke="midnightblue" d="M181.16,-263.35C174.72,-261.3 168.16,-259.14 162,-257 136.15,-248.01 106.95,-236.51 87.19,-228.52"/>
<polygon fill="midnightblue" stroke="midnightblue" points="180.53,-266.82 191.12,-266.46 182.62,-260.14 180.53,-266.82"/>
</g>
<!-- Node14&#45;&gt;Node13 -->
<g id="edge18" class="edge">
<title>Node14&#45;&gt;Node13</title>
<path fill="none" stroke="midnightblue" d="M162.45,-207.27C144.41,-209.42 125.01,-211.73 108.25,-213.73"/>
<polygon fill="midnightblue" stroke="midnightblue" points="163.08,-210.72 172.59,-206.06 162.25,-203.77 163.08,-210.72"/>
</g>
<!-- Node19&#45;&gt;Node13 -->
<g id="edge24" class="edge">
<title>Node19&#45;&gt;Node13</title>
<path fill="none" stroke="midnightblue" d="M151.66,-229.44C136.85,-227.68 121.68,-225.87 108.2,-224.27"/>
<polygon fill="midnightblue" stroke="midnightblue" points="151.49,-232.95 161.83,-230.65 152.32,-226 151.49,-232.95"/>
</g>
<!-- Node20&#45;&gt;Node13 -->
<g id="edge26" class="edge">
<title>Node20&#45;&gt;Node13</title>
<path fill="none" stroke="midnightblue" d="M181.16,-174.65C174.72,-176.7 168.16,-178.86 162,-181 136.15,-189.99 106.95,-201.49 87.19,-209.48"/>
<polygon fill="midnightblue" stroke="midnightblue" points="182.62,-177.86 191.12,-171.54 180.53,-171.18 182.62,-177.86"/>
</g>
<!-- Node21 -->
<g id="node21" class="node">
<title>Node21</title>
<g id="a_node21"><a xlink:href="group__shapes__revolved.html#gad587c003585db775fd441468954b7c43" target="_top" xlink:title="A rectangular cross&#45;sectional profile revolved about the z&#45;axis.">
<polygon fill="white" stroke="black" points="11.5,-152.5 11.5,-171.5 114.5,-171.5 114.5,-152.5 11.5,-152.5"/>
<text text-anchor="middle" x="63" y="-159.5" font-family="Helvetica,sans-Serif" font-size="10.00">torus_rectangle_c</text>
</a>
</g>
</g>
<!-- Node20&#45;&gt;Node21 -->
<g id="edge27" class="edge">
<title>Node20&#45;&gt;Node21</title>
<path fill="none" stroke="midnightblue" d="M177.49,-162C157.87,-162 134.91,-162 114.8,-162"/>
<polygon fill="midnightblue" stroke="midnightblue" points="177.71,-165.5 187.71,-162 177.71,-158.5 177.71,-165.5"/>
</g>
</g>
</svg>
