<?xml version="1.0" encoding="UTF-8" standalone="no"?>
<!DOCTYPE svg PUBLIC "-//W3C//DTD SVG 1.1//EN"
 "http://www.w3.org/Graphics/SVG/1.1/DTD/svg11.dtd">
<!-- Generated by graphviz version 2.43.0 (0)
 -->
<!-- Title: Tables Pages: 1 -->
<svg width="213pt" height="34pt"
 viewBox="0.00 0.00 213.00 34.11" xmlns="http://www.w3.org/2000/svg" xmlns:xlink="http://www.w3.org/1999/xlink">
<g id="graph0" class="graph" transform="scale(1 1) rotate(0) translate(4 30.11)">
<title>Tables</title>
<polygon fill="white" stroke="transparent" points="-4,4 -4,-30.11 209,-30.11 209,4 -4,4"/>
<!-- Node2 -->
<g id="node1" class="node">
<title>Node2</title>
<g id="a_node1"><a xlink:href="group__datatypes.html" target="_top" xlink:title="Data type identification and operations.">
<polygon fill="white" stroke="black" points="71,-26.11 0,-26.11 0,-7.11 71,-7.11 71,-26.11"/>
<text text-anchor="middle" x="35.5" y="-14.11" font-family="Helvetica,sans-Serif" font-size="10.00">Data Types</text>
</a>
</g>
</g>
<!-- Node1 -->
<g id="node2" class="node">
<title>Node1</title>
<g id="a_node2"><a xlink:title="Table data type and operations.">
<polygon fill="#bfbfbf" stroke="black" points="205,-26.11 158,-26.11 158,-7.11 205,-7.11 205,-26.11"/>
<text text-anchor="middle" x="181.5" y="-14.11" font-family="Helvetica,sans-Serif" font-size="10.00">Tables</text>
</a>
</g>
</g>
<!-- Node2&#45;&gt;Node1 -->
<g id="edge1" class="edge">
<title>Node2&#45;&gt;Node1</title>
<path fill="none" stroke="black" d="M81.47,-16.61C106.75,-16.61 137.23,-16.61 157.64,-16.61"/>
<polygon fill="black" stroke="black" points="81.36,-13.11 71.36,-16.61 81.36,-20.11 81.36,-13.11"/>
</g>
<!-- Node1&#45;&gt;Node2 -->
<g id="edge2" class="edge">
<title>Node1&#45;&gt;Node2</title>
<path fill="none" stroke="darkgreen" stroke-dasharray="5,2" d="M157.72,-7.26C152.03,-5.34 145.87,-3.6 140,-2.61 117.65,1.14 111.47,0.33 89,-2.61 81.7,-3.57 73.98,-5.24 66.77,-7.11"/>
<text text-anchor="middle" x="114.5" y="-5.61" font-family="Helvetica,sans-Serif" font-size="10.00">table.scad</text>
</g>
</g>
</svg>
