<?xml version="1.0" encoding="UTF-8" standalone="no"?>
<!DOCTYPE svg PUBLIC "-//W3C//DTD SVG 1.1//EN"
 "http://www.w3.org/Graphics/SVG/1.1/DTD/svg11.dtd">
<!-- Generated by graphviz version 2.43.0 (0)
 -->
<!-- Title: omdl_logo Pages: 1 -->
<svg width="516pt" height="484pt"
 viewBox="0.00 0.00 516.00 484.00" xmlns="http://www.w3.org/2000/svg" xmlns:xlink="http://www.w3.org/1999/xlink">
<g id="graph0" class="graph" transform="scale(1 1) rotate(0) translate(4 480)">
<title>omdl_logo</title>
<polygon fill="white" stroke="transparent" points="-4,4 -4,-480 512,-480 512,4 -4,4"/>
<!-- Node1 -->
<g id="node1" class="node">
<title>Node1</title>
<g id="a_node1"><a xlink:title="Standard omdl logo.">
<polygon fill="#bfbfbf" stroke="black" points="0,-171.5 0,-190.5 68,-190.5 68,-171.5 0,-171.5"/>
<text text-anchor="middle" x="34" y="-178.5" font-family="Helvetica,sans-Serif" font-size="10.00">omdl_logo</text>
</a>
</g>
</g>
<!-- Node2 -->
<g id="node2" class="node">
<title>Node2</title>
<g id="a_node2"><a xlink:href="group__units__angle.html#ga06a917b77748dfb74e765bcd7c4c0219" target="_top" xlink:title="Convert an angle from some units to another.">
<polygon fill="white" stroke="black" points="301,-152.5 301,-171.5 345,-171.5 345,-152.5 301,-152.5"/>
<text text-anchor="middle" x="323" y="-159.5" font-family="Helvetica,sans-Serif" font-size="10.00">angle</text>
</a>
</g>
</g>
<!-- Node1&#45;&gt;Node2 -->
<g id="edge1" class="edge">
<title>Node1&#45;&gt;Node2</title>
<path fill="none" stroke="midnightblue" d="M68.2,-178.8C124.09,-175.1 236.18,-167.68 290.73,-164.07"/>
<polygon fill="midnightblue" stroke="midnightblue" points="291.1,-167.55 300.84,-163.4 290.63,-160.57 291.1,-167.55"/>
</g>
<!-- Node3 -->
<g id="node3" class="node">
<title>Node3</title>
<g id="a_node3"><a xlink:href="group__shapes__basic__3d.html#ga8a71b8cd52ae5ef7a2510ff579734108" target="_top" xlink:title="A cone.">
<polygon fill="white" stroke="black" points="140.5,-228.5 140.5,-247.5 180.5,-247.5 180.5,-228.5 140.5,-228.5"/>
<text text-anchor="middle" x="160.5" y="-235.5" font-family="Helvetica,sans-Serif" font-size="10.00">cone</text>
</a>
</g>
</g>
<!-- Node1&#45;&gt;Node3 -->
<g id="edge2" class="edge">
<title>Node1&#45;&gt;Node3</title>
<path fill="none" stroke="midnightblue" d="M54.54,-190.59C68.3,-197.28 87.2,-206.35 104,-214 112.75,-217.98 122.34,-222.18 131.04,-225.94"/>
<polygon fill="midnightblue" stroke="midnightblue" points="129.84,-229.23 140.41,-229.96 132.6,-222.8 129.84,-229.23"/>
</g>
<!-- Node5 -->
<g id="node5" class="node">
<title>Node5</title>
<g id="a_node5"><a xlink:href="group__datatypes__scalar__test.html#ga51d7fdb800c10f4b7479d23b89ab8d22" target="_top" xlink:title="Test if a value is defined.">
<polygon fill="white" stroke="black" points="290,-304.5 290,-323.5 356,-323.5 356,-304.5 290,-304.5"/>
<text text-anchor="middle" x="323" y="-311.5" font-family="Helvetica,sans-Serif" font-size="10.00">is_defined</text>
</a>
</g>
</g>
<!-- Node1&#45;&gt;Node5 -->
<g id="edge17" class="edge">
<title>Node1&#45;&gt;Node5</title>
<path fill="none" stroke="midnightblue" d="M38.37,-190.56C46.24,-211.32 67.92,-260.45 104,-283 157.64,-316.53 233.03,-319.67 279.63,-317.69"/>
<polygon fill="midnightblue" stroke="midnightblue" points="279.88,-321.18 289.69,-317.16 279.52,-314.19 279.88,-321.18"/>
</g>
<!-- Node6 -->
<g id="node6" class="node">
<title>Node6</title>
<g id="a_node6"><a xlink:href="group__math__polygon.html#ga7a0eff64929a142fc507615f83e3bd58" target="_top" xlink:title="Compute coordinates that round all of the vertices between each adjacent edges in 2D.">
<polygon fill="white" stroke="black" points="253,-266.5 253,-285.5 393,-285.5 393,-266.5 253,-266.5"/>
<text text-anchor="middle" x="323" y="-273.5" font-family="Helvetica,sans-Serif" font-size="10.00">polygon_round_eve_all_p</text>
</a>
</g>
</g>
<!-- Node1&#45;&gt;Node6 -->
<g id="edge18" class="edge">
<title>Node1&#45;&gt;Node6</title>
<path fill="none" stroke="midnightblue" d="M40.34,-190.55C50.35,-207.38 73.66,-241.96 104,-257 146.54,-278.09 199.5,-283.12 242.57,-282.74"/>
<polygon fill="midnightblue" stroke="midnightblue" points="242.8,-286.23 252.73,-282.55 242.66,-279.24 242.8,-286.23"/>
</g>
<!-- Node7 -->
<g id="node7" class="node">
<title>Node7</title>
<g id="a_node7"><a xlink:href="group__math__triangle.html#gaab9b812d15418fd05c9d93f3bfcc1989" target="_top" xlink:title="Compute a set of vertex coordinates for a triangle given its side lengths in 2D.">
<polygon fill="white" stroke="black" points="267.5,-190.5 267.5,-209.5 378.5,-209.5 378.5,-190.5 267.5,-190.5"/>
<text text-anchor="middle" x="323" y="-197.5" font-family="Helvetica,sans-Serif" font-size="10.00">triangle2d_sss2ppp</text>
</a>
</g>
</g>
<!-- Node1&#45;&gt;Node7 -->
<g id="edge25" class="edge">
<title>Node1&#45;&gt;Node7</title>
<path fill="none" stroke="midnightblue" d="M68.34,-183.47C79.66,-184.3 92.38,-185.21 104,-186 155.49,-189.52 213.84,-193.25 257.21,-195.98"/>
<polygon fill="midnightblue" stroke="midnightblue" points="257.14,-199.48 267.34,-196.61 257.58,-192.5 257.14,-199.48"/>
</g>
<!-- Node8 -->
<g id="node8" class="node">
<title>Node8</title>
<g id="a_node8"><a xlink:href="group__tools__extrude.html#ga45661244067bf945b684550c3263ee45" target="_top" xlink:title="Linearly extrude a 2d shape with multi&#45;segment uniformly&#45;spaced profile scaling.">
<polygon fill="white" stroke="black" points="104,-380.5 104,-399.5 217,-399.5 217,-380.5 104,-380.5"/>
<text text-anchor="middle" x="160.5" y="-387.5" font-family="Helvetica,sans-Serif" font-size="10.00">extrude_linear_mss</text>
</a>
</g>
</g>
<!-- Node1&#45;&gt;Node8 -->
<g id="edge8" class="edge">
<title>Node1&#45;&gt;Node8</title>
<path fill="none" stroke="midnightblue" d="M38.46,-190.79C47.29,-215.17 72.27,-280.04 104,-328 114.99,-344.6 130.23,-361.3 141.96,-373.17"/>
<polygon fill="midnightblue" stroke="midnightblue" points="139.52,-375.68 149.08,-380.23 144.44,-370.71 139.52,-375.68"/>
</g>
<!-- Node14 -->
<g id="node14" class="node">
<title>Node14</title>
<g id="a_node14"><a xlink:href="group__tools__repeat.html#ga543a7c0b4c744d98e6197036da5681fe" target="_top" xlink:title="Radially repeat copies of child objects about a z&#45;axis radius.">
<polygon fill="white" stroke="black" points="120,-114.5 120,-133.5 201,-133.5 201,-114.5 120,-114.5"/>
<text text-anchor="middle" x="160.5" y="-121.5" font-family="Helvetica,sans-Serif" font-size="10.00">repeat_radial</text>
</a>
</g>
</g>
<!-- Node1&#45;&gt;Node14 -->
<g id="edge19" class="edge">
<title>Node1&#45;&gt;Node14</title>
<path fill="none" stroke="midnightblue" d="M54.54,-171.41C68.3,-164.72 87.2,-155.65 104,-148 111.52,-144.58 119.67,-140.99 127.35,-137.66"/>
<polygon fill="midnightblue" stroke="midnightblue" points="128.93,-140.79 136.73,-133.61 126.16,-134.36 128.93,-140.79"/>
</g>
<!-- Node17 -->
<g id="node17" class="node">
<title>Node17</title>
<g id="a_node17"><a xlink:href="group__datatypes__list__operate.html#ga7b8e6f2bbfa72ae61e39377e5ca6b5be" target="_top" xlink:title="Select specified element from list or return a default.">
<polygon fill="white" stroke="black" points="131,-76.5 131,-95.5 190,-95.5 190,-76.5 131,-76.5"/>
<text text-anchor="middle" x="160.5" y="-83.5" font-family="Helvetica,sans-Serif" font-size="10.00">select_ci</text>
</a>
</g>
</g>
<!-- Node1&#45;&gt;Node17 -->
<g id="edge23" class="edge">
<title>Node1&#45;&gt;Node17</title>
<path fill="none" stroke="midnightblue" d="M41.27,-171.4C52.17,-155.42 76.16,-123.31 104,-105 109.3,-101.51 115.32,-98.59 121.38,-96.18"/>
<polygon fill="midnightblue" stroke="midnightblue" points="122.62,-99.45 130.85,-92.78 120.25,-92.86 122.62,-99.45"/>
</g>
<!-- Node18 -->
<g id="node18" class="node">
<title>Node18</title>
<g id="a_node18"><a xlink:href="group__datatypes__iterable__operate.html#ga4a000b3543933067bb00c6950e9122b3" target="_top" xlink:title="Return the third element of an iterable value.">
<polygon fill="white" stroke="black" points="141,-38.5 141,-57.5 180,-57.5 180,-38.5 141,-38.5"/>
<text text-anchor="middle" x="160.5" y="-45.5" font-family="Helvetica,sans-Serif" font-size="10.00">third</text>
</a>
</g>
</g>
<!-- Node1&#45;&gt;Node18 -->
<g id="edge24" class="edge">
<title>Node1&#45;&gt;Node18</title>
<path fill="none" stroke="midnightblue" d="M38.29,-171.19C46.12,-149.28 67.97,-96.03 104,-67 111.8,-60.71 121.81,-56.45 131.17,-53.59"/>
<polygon fill="midnightblue" stroke="midnightblue" points="132.17,-56.94 140.94,-51 130.38,-50.18 132.17,-56.94"/>
</g>
<!-- Node19 -->
<g id="node19" class="node">
<title>Node19</title>
<g id="a_node19"><a xlink:href="group__math__triangle.html#ga51e8d8c2004f859d216790f7966b7dfd" target="_top" xlink:title="Compute the centroid of a triangle.">
<polygon fill="white" stroke="black" points="111,-0.5 111,-19.5 210,-19.5 210,-0.5 111,-0.5"/>
<text text-anchor="middle" x="160.5" y="-7.5" font-family="Helvetica,sans-Serif" font-size="10.00">triangle_centroid</text>
</a>
</g>
</g>
<!-- Node1&#45;&gt;Node19 -->
<g id="edge26" class="edge">
<title>Node1&#45;&gt;Node19</title>
<path fill="none" stroke="midnightblue" d="M36.66,-171.25C41.71,-144.54 59.37,-69.52 104,-29 105.75,-27.41 107.63,-25.96 109.61,-24.63"/>
<polygon fill="midnightblue" stroke="midnightblue" points="111.77,-27.43 118.82,-19.52 108.38,-21.31 111.77,-27.43"/>
</g>
<!-- Node3&#45;&gt;Node2 -->
<g id="edge3" class="edge">
<title>Node3&#45;&gt;Node2</title>
<path fill="none" stroke="midnightblue" d="M174.17,-228.44C191.26,-215.95 223,-194.14 253,-181 265.09,-175.7 279.03,-171.53 291.2,-168.46"/>
<polygon fill="midnightblue" stroke="midnightblue" points="292.02,-171.86 300.93,-166.14 290.39,-165.06 292.02,-171.86"/>
</g>
<!-- Node4 -->
<g id="node4" class="node">
<title>Node4</title>
<g id="a_node4"><a xlink:href="group__datatypes__iterable__operate.html#ga3d37c2b0067d1661724bd89955c8f6ce" target="_top" xlink:title="Return an element of an iterable when it exists or a default value otherwise.">
<polygon fill="white" stroke="black" points="429,-266.5 429,-285.5 508,-285.5 508,-266.5 429,-266.5"/>
<text text-anchor="middle" x="468.5" y="-273.5" font-family="Helvetica,sans-Serif" font-size="10.00">defined_e_or</text>
</a>
</g>
</g>
<!-- Node3&#45;&gt;Node4 -->
<g id="edge4" class="edge">
<title>Node3&#45;&gt;Node4</title>
<path fill="none" stroke="midnightblue" d="M180.54,-238.48C220.28,-239.73 314.85,-243.92 393,-257 403.58,-258.77 414.85,-261.3 425.34,-263.94"/>
<polygon fill="midnightblue" stroke="midnightblue" points="424.56,-267.35 435.11,-266.48 426.32,-260.58 424.56,-267.35"/>
</g>
<!-- Node3&#45;&gt;Node5 -->
<g id="edge5" class="edge">
<title>Node3&#45;&gt;Node5</title>
<path fill="none" stroke="midnightblue" d="M174.17,-247.56C191.26,-260.05 223,-281.86 253,-295 261.52,-298.73 270.97,-301.91 280.06,-304.53"/>
<polygon fill="midnightblue" stroke="midnightblue" points="279.17,-307.92 289.74,-307.17 281,-301.16 279.17,-307.92"/>
</g>
<!-- Node3&#45;&gt;Node6 -->
<g id="edge6" class="edge">
<title>Node3&#45;&gt;Node6</title>
<path fill="none" stroke="midnightblue" d="M180.54,-242.51C202.95,-247.81 241.02,-256.83 272.02,-264.17"/>
<polygon fill="midnightblue" stroke="midnightblue" points="271.28,-267.59 281.81,-266.49 272.89,-260.78 271.28,-267.59"/>
</g>
<!-- Node3&#45;&gt;Node7 -->
<g id="edge7" class="edge">
<title>Node3&#45;&gt;Node7</title>
<path fill="none" stroke="midnightblue" d="M180.54,-233.49C202.95,-228.19 241.02,-219.17 272.02,-211.83"/>
<polygon fill="midnightblue" stroke="midnightblue" points="272.89,-215.22 281.81,-209.51 271.28,-208.41 272.89,-215.22"/>
</g>
<!-- Node9 -->
<g id="node9" class="node">
<title>Node9</title>
<g id="a_node9"><a xlink:href="group__tools__extrude.html#gab2442cfaf1ad44d6e295ab0979d9e03d" target="_top" xlink:title="Linearly extrude a 2d shape with uniformly&#45;spaced profile scaling.">
<polygon fill="white" stroke="black" points="268.5,-380.5 268.5,-399.5 377.5,-399.5 377.5,-380.5 268.5,-380.5"/>
<text text-anchor="middle" x="323" y="-387.5" font-family="Helvetica,sans-Serif" font-size="10.00">extrude_linear_uss</text>
</a>
</g>
</g>
<!-- Node8&#45;&gt;Node9 -->
<g id="edge9" class="edge">
<title>Node8&#45;&gt;Node9</title>
<path fill="none" stroke="midnightblue" d="M217.18,-390C230.39,-390 244.57,-390 258.11,-390"/>
<polygon fill="midnightblue" stroke="midnightblue" points="258.31,-393.5 268.31,-390 258.31,-386.5 258.31,-393.5"/>
</g>
<!-- Node10 -->
<g id="node10" class="node">
<title>Node10</title>
<g id="a_node10"><a xlink:href="group__datatypes__iterable__operate.html#gaccab3e37e43cb1d882713b3f3d6d9e1b" target="_top" xlink:title="Return the first element of an iterable value.">
<polygon fill="white" stroke="black" points="451,-342.5 451,-361.5 486,-361.5 486,-342.5 451,-342.5"/>
<text text-anchor="middle" x="468.5" y="-349.5" font-family="Helvetica,sans-Serif" font-size="10.00">first</text>
</a>
</g>
</g>
<!-- Node8&#45;&gt;Node10 -->
<g id="edge14" class="edge">
<title>Node8&#45;&gt;Node10</title>
<path fill="none" stroke="midnightblue" d="M202.31,-380.47C218.08,-377.06 236.31,-373.46 253,-371 320.08,-361.1 399.78,-355.69 440.54,-353.38"/>
<polygon fill="midnightblue" stroke="midnightblue" points="440.94,-356.86 450.73,-352.82 440.56,-349.87 440.94,-356.86"/>
</g>
<!-- Node11 -->
<g id="node11" class="node">
<title>Node11</title>
<g id="a_node11"><a xlink:href="group__datatypes__scalar__test.html#ga258e8911375d30ff85a6e52df01dc1c5" target="_top" xlink:title="Test if a value is a single non&#45;iterable value.">
<polygon fill="white" stroke="black" points="439,-418.5 439,-437.5 498,-437.5 498,-418.5 439,-418.5"/>
<text text-anchor="middle" x="468.5" y="-425.5" font-family="Helvetica,sans-Serif" font-size="10.00">is_scalar</text>
</a>
</g>
</g>
<!-- Node8&#45;&gt;Node11 -->
<g id="edge15" class="edge">
<title>Node8&#45;&gt;Node11</title>
<path fill="none" stroke="midnightblue" d="M202.31,-399.53C218.08,-402.94 236.31,-406.54 253,-409 314.16,-418.03 385.81,-423.32 428.88,-425.94"/>
<polygon fill="midnightblue" stroke="midnightblue" points="428.74,-429.43 438.92,-426.53 429.15,-422.45 428.74,-429.43"/>
</g>
<!-- Node13 -->
<g id="node13" class="node">
<title>Node13</title>
<g id="a_node13"><a xlink:href="group__datatypes__list__operate.html#gae12565005038993506dc37249e32766d" target="_top" xlink:title="Compute the sum of a list of numbers.">
<polygon fill="white" stroke="black" points="304,-456.5 304,-475.5 342,-475.5 342,-456.5 304,-456.5"/>
<text text-anchor="middle" x="323" y="-463.5" font-family="Helvetica,sans-Serif" font-size="10.00">sum</text>
</a>
</g>
</g>
<!-- Node8&#45;&gt;Node13 -->
<g id="edge16" class="edge">
<title>Node8&#45;&gt;Node13</title>
<path fill="none" stroke="midnightblue" d="M176.28,-399.52C194.01,-410.67 224.88,-429.25 253,-442 266.22,-447.99 281.4,-453.42 294.16,-457.6"/>
<polygon fill="midnightblue" stroke="midnightblue" points="293.19,-460.96 303.78,-460.66 295.31,-454.29 293.19,-460.96"/>
</g>
<!-- Node9&#45;&gt;Node4 -->
<g id="edge10" class="edge">
<title>Node9&#45;&gt;Node4</title>
<path fill="none" stroke="midnightblue" d="M336.23,-380.28C360.91,-360.68 416.86,-316.23 447.14,-292.18"/>
<polygon fill="midnightblue" stroke="midnightblue" points="449.64,-294.66 455.3,-285.69 445.29,-289.17 449.64,-294.66"/>
</g>
<!-- Node9&#45;&gt;Node10 -->
<g id="edge11" class="edge">
<title>Node9&#45;&gt;Node10</title>
<path fill="none" stroke="midnightblue" d="M360.21,-380.41C385.3,-373.77 418.14,-365.07 440.85,-359.06"/>
<polygon fill="midnightblue" stroke="midnightblue" points="442.03,-362.37 450.8,-356.42 440.24,-355.6 442.03,-362.37"/>
</g>
<!-- Node9&#45;&gt;Node11 -->
<g id="edge12" class="edge">
<title>Node9&#45;&gt;Node11</title>
<path fill="none" stroke="midnightblue" d="M360.21,-399.59C381.28,-405.17 407.83,-412.2 429.24,-417.87"/>
<polygon fill="midnightblue" stroke="midnightblue" points="428.43,-421.27 438.99,-420.45 430.22,-414.51 428.43,-421.27"/>
</g>
<!-- Node12 -->
<g id="node12" class="node">
<title>Node12</title>
<g id="a_node12"><a xlink:href="group__datatypes__iterable__operate.html#ga894d4bec62cc9cf38d5e099de3028c54" target="_top" xlink:title="Return the second element of an iterable value.">
<polygon fill="white" stroke="black" points="443,-380.5 443,-399.5 494,-399.5 494,-380.5 443,-380.5"/>
<text text-anchor="middle" x="468.5" y="-387.5" font-family="Helvetica,sans-Serif" font-size="10.00">second</text>
</a>
</g>
</g>
<!-- Node9&#45;&gt;Node12 -->
<g id="edge13" class="edge">
<title>Node9&#45;&gt;Node12</title>
<path fill="none" stroke="midnightblue" d="M377.84,-390C396.11,-390 416.03,-390 432.45,-390"/>
<polygon fill="midnightblue" stroke="midnightblue" points="432.67,-393.5 442.67,-390 432.67,-386.5 432.67,-393.5"/>
</g>
<!-- Node14&#45;&gt;Node2 -->
<g id="edge20" class="edge">
<title>Node14&#45;&gt;Node2</title>
<path fill="none" stroke="midnightblue" d="M201.17,-133.39C228.91,-139.96 265.43,-148.61 291.03,-154.67"/>
<polygon fill="midnightblue" stroke="midnightblue" points="290.4,-158.12 300.94,-157.01 292.02,-151.3 290.4,-158.12"/>
</g>
<!-- Node15 -->
<g id="node15" class="node">
<title>Node15</title>
<g id="a_node15"><a xlink:href="group__datatypes__euclidean.html#ga3d5c07c70f271bcf9144f50ce8620a89" target="_top" xlink:title="Compute the angle between two lines or vectors in a 3d or 2d&#45;space.">
<polygon fill="white" stroke="black" points="295.5,-76.5 295.5,-95.5 350.5,-95.5 350.5,-76.5 295.5,-76.5"/>
<text text-anchor="middle" x="323" y="-83.5" font-family="Helvetica,sans-Serif" font-size="10.00">angle_ll</text>
</a>
</g>
</g>
<!-- Node14&#45;&gt;Node15 -->
<g id="edge21" class="edge">
<title>Node14&#45;&gt;Node15</title>
<path fill="none" stroke="midnightblue" d="M201.17,-114.61C226.96,-108.5 260.32,-100.6 285.45,-94.65"/>
<polygon fill="midnightblue" stroke="midnightblue" points="286.41,-98.02 295.33,-92.31 284.8,-91.21 286.41,-98.02"/>
</g>
<!-- Node16 -->
<g id="node16" class="node">
<title>Node16</title>
<g id="a_node16"><a xlink:href="group__math__polygon.html#ga6aea22d31f8f086c44c7241eee3ab4c2" target="_top" xlink:title="Compute coordinates for an n&#45;sided regular polygon in 2D.">
<polygon fill="white" stroke="black" points="269.5,-114.5 269.5,-133.5 376.5,-133.5 376.5,-114.5 269.5,-114.5"/>
<text text-anchor="middle" x="323" y="-121.5" font-family="Helvetica,sans-Serif" font-size="10.00">polygon_regular_p</text>
</a>
</g>
</g>
<!-- Node14&#45;&gt;Node16 -->
<g id="edge22" class="edge">
<title>Node14&#45;&gt;Node16</title>
<path fill="none" stroke="midnightblue" d="M201.17,-124C218.72,-124 239.79,-124 259.37,-124"/>
<polygon fill="midnightblue" stroke="midnightblue" points="259.46,-127.5 269.46,-124 259.46,-120.5 259.46,-127.5"/>
</g>
</g>
</svg>
