<?xml version="1.0" encoding="UTF-8" standalone="no"?>
<!DOCTYPE svg PUBLIC "-//W3C//DTD SVG 1.1//EN"
 "http://www.w3.org/Graphics/SVG/1.1/DTD/svg11.dtd">
<!-- Generated by graphviz version 2.43.0 (0)
 -->
<!-- Title: sum Pages: 1 -->
<svg width="515pt" height="294pt"
 viewBox="0.00 0.00 515.00 294.00" xmlns="http://www.w3.org/2000/svg" xmlns:xlink="http://www.w3.org/1999/xlink">
<g id="graph0" class="graph" transform="scale(1 1) rotate(0) translate(4 290)">
<title>sum</title>
<polygon fill="white" stroke="transparent" points="-4,4 -4,-290 511,-290 511,4 -4,4"/>
<!-- Node1 -->
<g id="node1" class="node">
<title>Node1</title>
<g id="a_node1"><a xlink:title="Compute the sum of a list of numbers.">
<polygon fill="#bfbfbf" stroke="black" points="469,-57.5 469,-76.5 507,-76.5 507,-57.5 469,-57.5"/>
<text text-anchor="middle" x="488" y="-64.5" font-family="Helvetica,sans-Serif" font-size="10.00">sum</text>
</a>
</g>
</g>
<!-- Node2 -->
<g id="node2" class="node">
<title>Node2</title>
<g id="a_node2"><a xlink:href="group__tools__extrude.html#ga45661244067bf945b684550c3263ee45" target="_top" xlink:title="Linearly extrude a 2d shape with multi&#45;segment uniformly&#45;spaced profile scaling.">
<polygon fill="white" stroke="black" points="320,-114.5 320,-133.5 433,-133.5 433,-114.5 320,-114.5"/>
<text text-anchor="middle" x="376.5" y="-121.5" font-family="Helvetica,sans-Serif" font-size="10.00">extrude_linear_mss</text>
</a>
</g>
</g>
<!-- Node1&#45;&gt;Node2 -->
<g id="edge1" class="edge">
<title>Node1&#45;&gt;Node2</title>
<path fill="none" stroke="midnightblue" d="M460.02,-81.04C440.1,-91.41 413.52,-105.25 395.97,-114.38"/>
<polygon fill="midnightblue" stroke="midnightblue" points="461.66,-84.13 468.92,-76.41 458.43,-77.93 461.66,-84.13"/>
</g>
<!-- Node10 -->
<g id="node10" class="node">
<title>Node10</title>
<g id="a_node10"><a xlink:href="group__parts__3d__enclosure__project__box__rectangle.html#ga6a5d093d732e65556c46252220f2c4b6" target="_top" xlink:title="A rectangular box maker for project boxes, enclosures and housings.">
<polygon fill="white" stroke="black" points="151.5,-0.5 151.5,-19.5 276.5,-19.5 276.5,-0.5 151.5,-0.5"/>
<text text-anchor="middle" x="214" y="-7.5" font-family="Helvetica,sans-Serif" font-size="10.00">project_box_rectangle</text>
</a>
</g>
</g>
<!-- Node1&#45;&gt;Node10 -->
<g id="edge14" class="edge">
<title>Node1&#45;&gt;Node10</title>
<path fill="none" stroke="midnightblue" d="M458.94,-61.12C412,-51.28 317.13,-31.4 260.53,-19.54"/>
<polygon fill="midnightblue" stroke="midnightblue" points="458.23,-64.55 468.73,-63.17 459.66,-57.69 458.23,-64.55"/>
</g>
<!-- Node3 -->
<g id="node3" class="node">
<title>Node3</title>
<g id="a_node3"><a xlink:href="group__parts__3d__fastener__catch__latch.html#ga26a9933aa6d33599daab1be8d632c430" target="_top" xlink:title="A catch latch generator with configurable profile.">
<polygon fill="white" stroke="black" points="178,-228.5 178,-247.5 250,-247.5 250,-228.5 178,-228.5"/>
<text text-anchor="middle" x="214" y="-235.5" font-family="Helvetica,sans-Serif" font-size="10.00">catch_latch</text>
</a>
</g>
</g>
<!-- Node2&#45;&gt;Node3 -->
<g id="edge2" class="edge">
<title>Node2&#45;&gt;Node3</title>
<path fill="none" stroke="midnightblue" d="M361.8,-141.55C345.31,-161.61 315.82,-194.23 284,-214 273.66,-220.43 261.37,-225.41 250.05,-229.12"/>
<polygon fill="midnightblue" stroke="midnightblue" points="364.7,-143.53 368.24,-133.55 359.24,-139.14 364.7,-143.53"/>
</g>
<!-- Node4 -->
<g id="node4" class="node">
<title>Node4</title>
<g id="a_node4"><a xlink:href="group__parts__3d__enclosure__clamps.html#ga8fd874789132e42e5470328d18560f1a" target="_top" xlink:title="A clamp, bushing, and/or grip for wire/hose wall penetrations.">
<polygon fill="white" stroke="black" points="182.5,-76.5 182.5,-95.5 245.5,-95.5 245.5,-76.5 182.5,-76.5"/>
<text text-anchor="middle" x="214" y="-83.5" font-family="Helvetica,sans-Serif" font-size="10.00">clamp_cg</text>
</a>
</g>
</g>
<!-- Node2&#45;&gt;Node4 -->
<g id="edge3" class="edge">
<title>Node2&#45;&gt;Node4</title>
<path fill="none" stroke="midnightblue" d="M325.26,-112.11C299.16,-105.93 268.1,-98.57 245.61,-93.25"/>
<polygon fill="midnightblue" stroke="midnightblue" points="324.46,-115.51 335,-114.41 326.07,-108.7 324.46,-115.51"/>
</g>
<!-- Node6 -->
<g id="node6" class="node">
<title>Node6</title>
<g id="a_node6"><a xlink:href="group__parts__3d__motion__bearing__linear__rod.html#ga48399d5e708b4894494c69b2d1e88e26" target="_top" xlink:title="Transform 2d or 3d shape into a linear rod ball or sled bearing.">
<polygon fill="white" stroke="black" points="144,-152.5 144,-171.5 284,-171.5 284,-152.5 144,-152.5"/>
<text text-anchor="middle" x="214" y="-159.5" font-family="Helvetica,sans-Serif" font-size="10.00">make_bearing_linear_rod</text>
</a>
</g>
</g>
<!-- Node2&#45;&gt;Node6 -->
<g id="edge5" class="edge">
<title>Node2&#45;&gt;Node6</title>
<path fill="none" stroke="midnightblue" d="M325.25,-135.9C302.69,-141.24 276.44,-147.45 255.21,-152.48"/>
<polygon fill="midnightblue" stroke="midnightblue" points="326.07,-139.3 335,-133.59 324.46,-132.49 326.07,-139.3"/>
</g>
<!-- Node7 -->
<g id="node7" class="node">
<title>Node7</title>
<g id="a_node7"><a xlink:href="group__parts__3d__enclosure__mounts.html#ga0cbac43259ec43fff7785057277bcef3" target="_top" xlink:title="A screw mount post with screw bore and optional fins.">
<polygon fill="white" stroke="black" points="0,-228.5 0,-247.5 108,-247.5 108,-228.5 0,-228.5"/>
<text text-anchor="middle" x="54" y="-235.5" font-family="Helvetica,sans-Serif" font-size="10.00">mount_screw_post</text>
</a>
</g>
</g>
<!-- Node2&#45;&gt;Node7 -->
<g id="edge6" class="edge">
<title>Node2&#45;&gt;Node7</title>
<path fill="none" stroke="midnightblue" d="M354.37,-139.84C336.47,-152.6 309.68,-170.13 284,-181 251.18,-194.9 157.18,-216.24 100.33,-228.48"/>
<polygon fill="midnightblue" stroke="midnightblue" points="356.84,-142.38 362.87,-133.67 352.73,-136.72 356.84,-142.38"/>
</g>
<!-- Node8 -->
<g id="node8" class="node">
<title>Node8</title>
<g id="a_node8"><a xlink:href="group__models__3d__misc__omdl__logo.html#gab176f64dad7e83d4fb056be44b71f630" target="_top" xlink:title="Standard omdl logo.">
<polygon fill="white" stroke="black" points="180,-114.5 180,-133.5 248,-133.5 248,-114.5 180,-114.5"/>
<text text-anchor="middle" x="214" y="-121.5" font-family="Helvetica,sans-Serif" font-size="10.00">omdl_logo</text>
</a>
</g>
</g>
<!-- Node2&#45;&gt;Node8 -->
<g id="edge7" class="edge">
<title>Node2&#45;&gt;Node8</title>
<path fill="none" stroke="midnightblue" d="M309.57,-124C288.41,-124 265.89,-124 248.13,-124"/>
<polygon fill="midnightblue" stroke="midnightblue" points="309.82,-127.5 319.82,-124 309.82,-120.5 309.82,-127.5"/>
</g>
<!-- Node9 -->
<g id="node9" class="node">
<title>Node9</title>
<g id="a_node9"><a xlink:href="group__parts__3d__computer__pci__bracket.html#gaf56631cf80d8e5f0b77736b17b94ecd9" target="_top" xlink:title="PCI slot cover and adapter card bracket generator.">
<polygon fill="white" stroke="black" points="178,-38.5 178,-57.5 250,-57.5 250,-38.5 178,-38.5"/>
<text text-anchor="middle" x="214" y="-45.5" font-family="Helvetica,sans-Serif" font-size="10.00">pci_bracket</text>
</a>
</g>
</g>
<!-- Node2&#45;&gt;Node9 -->
<g id="edge9" class="edge">
<title>Node2&#45;&gt;Node9</title>
<path fill="none" stroke="midnightblue" d="M354.3,-108.32C336.36,-95.67 309.55,-78.19 284,-67 273.3,-62.31 261.16,-58.51 250.07,-55.57"/>
<polygon fill="midnightblue" stroke="midnightblue" points="352.66,-111.45 362.83,-114.44 356.74,-105.76 352.66,-111.45"/>
</g>
<!-- Node2&#45;&gt;Node10 -->
<g id="edge10" class="edge">
<title>Node2&#45;&gt;Node10</title>
<path fill="none" stroke="midnightblue" d="M359.69,-106.61C335.97,-80.69 293.01,-34.36 284,-29 277.49,-25.13 270.16,-22.02 262.77,-19.54"/>
<polygon fill="midnightblue" stroke="midnightblue" points="357.32,-109.21 366.64,-114.23 362.49,-104.49 357.32,-109.21"/>
</g>
<!-- Node11 -->
<g id="node11" class="node">
<title>Node11</title>
<g id="a_node11"><a xlink:href="group__models__3d__fastener__screws.html#gaad990187680f7ac947e555483d854bfa" target="_top" xlink:title="Gapped fastener bore with engagement cylinders for self&#45;forming threads.">
<polygon fill="white" stroke="black" points="169,-266.5 169,-285.5 259,-285.5 259,-266.5 169,-266.5"/>
<text text-anchor="middle" x="214" y="-273.5" font-family="Helvetica,sans-Serif" font-size="10.00">screw_bore_tsf</text>
</a>
</g>
</g>
<!-- Node2&#45;&gt;Node11 -->
<g id="edge12" class="edge">
<title>Node2&#45;&gt;Node11</title>
<path fill="none" stroke="midnightblue" d="M367.53,-143.22C354.46,-172.33 325.69,-227.33 284,-257 276.61,-262.26 267.82,-266.06 259.04,-268.82"/>
<polygon fill="midnightblue" stroke="midnightblue" points="370.86,-144.33 371.63,-133.77 364.44,-141.55 370.86,-144.33"/>
</g>
<!-- Node5 -->
<g id="node5" class="node">
<title>Node5</title>
<g id="a_node5"><a xlink:href="group__parts__3d__enclosure__power__strip.html#ga191779dedf39e4fd769a8dc96b0f8c9e" target="_top" xlink:title="A power strip generator for single gang electrical receptacles.">
<polygon fill="white" stroke="black" points="9,-76.5 9,-95.5 99,-95.5 99,-76.5 9,-76.5"/>
<text text-anchor="middle" x="54" y="-83.5" font-family="Helvetica,sans-Serif" font-size="10.00">power_strip_sg</text>
</a>
</g>
</g>
<!-- Node4&#45;&gt;Node5 -->
<g id="edge4" class="edge">
<title>Node4&#45;&gt;Node5</title>
<path fill="none" stroke="midnightblue" d="M171.99,-86C149.67,-86 122.02,-86 99.21,-86"/>
<polygon fill="midnightblue" stroke="midnightblue" points="172.16,-89.5 182.16,-86 172.16,-82.5 172.16,-89.5"/>
</g>
<!-- Node8&#45;&gt;Node5 -->
<g id="edge8" class="edge">
<title>Node8&#45;&gt;Node5</title>
<path fill="none" stroke="midnightblue" d="M170.14,-113.69C146.57,-108.02 117.53,-101.04 94.5,-95.5"/>
<polygon fill="midnightblue" stroke="midnightblue" points="169.34,-117.1 179.88,-116.03 170.97,-110.29 169.34,-117.1"/>
</g>
<!-- Node10&#45;&gt;Node5 -->
<g id="edge11" class="edge">
<title>Node10&#45;&gt;Node5</title>
<path fill="none" stroke="midnightblue" d="M160.7,-22.59C154.98,-24.5 149.31,-26.64 144,-29 114.67,-42.07 83.85,-63.91 67.28,-76.42"/>
<polygon fill="midnightblue" stroke="midnightblue" points="161.83,-25.91 170.33,-19.59 159.74,-19.22 161.83,-25.91"/>
</g>
<!-- Node11&#45;&gt;Node7 -->
<g id="edge13" class="edge">
<title>Node11&#45;&gt;Node7</title>
<path fill="none" stroke="midnightblue" d="M163.24,-264.03C141.1,-258.71 115.39,-252.52 94.58,-247.52"/>
<polygon fill="midnightblue" stroke="midnightblue" points="162.59,-267.48 173.13,-266.41 164.23,-260.67 162.59,-267.48"/>
</g>
</g>
</svg>
