<?xml version="1.0" encoding="UTF-8" standalone="no"?>
<!DOCTYPE svg PUBLIC "-//W3C//DTD SVG 1.1//EN"
 "http://www.w3.org/Graphics/SVG/1.1/DTD/svg11.dtd">
<!-- Generated by graphviz version 2.43.0 (0)
 -->
<!-- Title: distance_pp Pages: 1 -->
<svg width="554pt" height="332pt"
 viewBox="0.00 0.00 554.00 332.00" xmlns="http://www.w3.org/2000/svg" xmlns:xlink="http://www.w3.org/1999/xlink">
<g id="graph0" class="graph" transform="scale(1 1) rotate(0) translate(4 328)">
<title>distance_pp</title>
<polygon fill="white" stroke="transparent" points="-4,4 -4,-328 550,-328 550,4 -4,4"/>
<!-- Node1 -->
<g id="node1" class="node">
<title>Node1</title>
<g id="a_node1"><a xlink:title="Compute the distance between two points.">
<polygon fill="#bfbfbf" stroke="black" points="471,-214.5 471,-233.5 546,-233.5 546,-214.5 471,-214.5"/>
<text text-anchor="middle" x="508.5" y="-221.5" font-family="Helvetica,sans-Serif" font-size="10.00">distance_pp</text>
</a>
</g>
</g>
<!-- Node2 -->
<g id="node2" class="node">
<title>Node2</title>
<g id="a_node2"><a xlink:href="group__tools__drafting__dimension.html#ga27a35e94597435a74e22d76789e9be5e" target="_top" xlink:title="Construct a dimension line between two points.">
<polygon fill="white" stroke="black" points="6.5,-304.5 6.5,-323.5 92.5,-323.5 92.5,-304.5 6.5,-304.5"/>
<text text-anchor="middle" x="49.5" y="-311.5" font-family="Helvetica,sans-Serif" font-size="10.00">draft_dim_line</text>
</a>
</g>
</g>
<!-- Node1&#45;&gt;Node2 -->
<g id="edge1" class="edge">
<title>Node1&#45;&gt;Node2</title>
<path fill="none" stroke="midnightblue" d="M475.79,-237.33C463.26,-242.19 448.62,-247.38 435,-251 312.74,-283.45 163.93,-302.11 92.6,-309.81"/>
<polygon fill="midnightblue" stroke="midnightblue" points="477.33,-240.48 485.33,-233.54 474.74,-233.98 477.33,-240.48"/>
</g>
<!-- Node3 -->
<g id="node3" class="node">
<title>Node3</title>
<g id="a_node3"><a xlink:href="group__tools__drafting__dimension.html#gaef1a8150a8ef7be88e086fb3dbab64a9" target="_top" xlink:title="Construct a radial dimension line.">
<polygon fill="white" stroke="black" points="0.5,-266.5 0.5,-285.5 98.5,-285.5 98.5,-266.5 0.5,-266.5"/>
<text text-anchor="middle" x="49.5" y="-273.5" font-family="Helvetica,sans-Serif" font-size="10.00">draft_dim_radius</text>
</a>
</g>
</g>
<!-- Node1&#45;&gt;Node3 -->
<g id="edge2" class="edge">
<title>Node1&#45;&gt;Node3</title>
<path fill="none" stroke="midnightblue" d="M460.75,-229.32C373.58,-239.24 187.09,-260.46 98.78,-270.51"/>
<polygon fill="midnightblue" stroke="midnightblue" points="461.33,-232.78 470.87,-228.17 460.54,-225.82 461.33,-232.78"/>
</g>
<!-- Node4 -->
<g id="node4" class="node">
<title>Node4</title>
<g id="a_node4"><a xlink:href="group__tools__drafting__primitive.html#ga4e7c5fa02dbc244702042067553a9225" target="_top" xlink:title="Draft a simple line from an initial to a terminal point.">
<polygon fill="white" stroke="black" points="348,-195.5 348,-214.5 428,-214.5 428,-195.5 348,-195.5"/>
<text text-anchor="middle" x="388" y="-202.5" font-family="Helvetica,sans-Serif" font-size="10.00">draft_line_pp</text>
</a>
</g>
</g>
<!-- Node1&#45;&gt;Node4 -->
<g id="edge3" class="edge">
<title>Node1&#45;&gt;Node4</title>
<path fill="none" stroke="midnightblue" d="M460.82,-216.51C449.98,-214.78 438.55,-212.94 428.07,-211.26"/>
<polygon fill="midnightblue" stroke="midnightblue" points="460.55,-220.02 470.98,-218.14 461.66,-213.11 460.55,-220.02"/>
</g>
<!-- Node15 -->
<g id="node15" class="node">
<title>Node15</title>
<g id="a_node15"><a xlink:href="group__tools__polytope.html#ga530c86f9c90ce074aa7adc29834f0539" target="_top" xlink:title="Assemble a polytope skeletal frame using child objects.">
<polygon fill="white" stroke="black" points="341,-157.5 341,-176.5 435,-176.5 435,-157.5 341,-157.5"/>
<text text-anchor="middle" x="388" y="-164.5" font-family="Helvetica,sans-Serif" font-size="10.00">polytope_frame</text>
</a>
</g>
</g>
<!-- Node1&#45;&gt;Node15 -->
<g id="edge19" class="edge">
<title>Node1&#45;&gt;Node15</title>
<path fill="none" stroke="midnightblue" d="M481.57,-209.68C467.87,-202.3 450.69,-193.33 435,-186 428.11,-182.78 420.52,-179.53 413.53,-176.65"/>
<polygon fill="midnightblue" stroke="midnightblue" points="479.98,-212.79 490.44,-214.49 483.32,-206.64 479.98,-212.79"/>
</g>
<!-- Node5 -->
<g id="node5" class="node">
<title>Node5</title>
<g id="a_node5"><a xlink:href="group__tools__drafting__primitive.html#gaeb2a388d77f8e435b02c4235e7791eda" target="_top" xlink:title="Draft an arc with configurable style and optional arrowheads.">
<polygon fill="white" stroke="black" points="136.5,-119.5 136.5,-138.5 195.5,-138.5 195.5,-119.5 136.5,-119.5"/>
<text text-anchor="middle" x="166" y="-126.5" font-family="Helvetica,sans-Serif" font-size="10.00">draft_arc</text>
</a>
</g>
</g>
<!-- Node4&#45;&gt;Node5 -->
<g id="edge4" class="edge">
<title>Node4&#45;&gt;Node5</title>
<path fill="none" stroke="midnightblue" d="M349.12,-190.9C346.29,-189.39 343.55,-187.75 341,-186 321.83,-172.82 325.69,-158.63 305,-148 270.37,-130.21 224.71,-127.28 195.6,-127.56"/>
<polygon fill="midnightblue" stroke="midnightblue" points="347.77,-194.14 358.3,-195.34 350.81,-187.84 347.77,-194.14"/>
</g>
<!-- Node7 -->
<g id="node7" class="node">
<title>Node7</title>
<g id="a_node7"><a xlink:href="group__tools__drafting__primitive.html#ga6f12ccd4c9de0a8ab887184911f39c8f" target="_top" xlink:title="Draft an arrowhead at the terminal point of a line.">
<polygon fill="white" stroke="black" points="233,-157.5 233,-176.5 305,-176.5 305,-157.5 233,-157.5"/>
<text text-anchor="middle" x="269" y="-164.5" font-family="Helvetica,sans-Serif" font-size="10.00">draft_arrow</text>
</a>
</g>
</g>
<!-- Node4&#45;&gt;Node7 -->
<g id="edge6" class="edge">
<title>Node4&#45;&gt;Node7</title>
<path fill="none" stroke="midnightblue" d="M347.96,-192.32C332.15,-187.19 314.2,-181.36 299.51,-176.59"/>
<polygon fill="midnightblue" stroke="midnightblue" points="346.88,-195.65 357.48,-195.41 349.05,-188.99 346.88,-195.65"/>
</g>
<!-- Node8 -->
<g id="node8" class="node">
<title>Node8</title>
<g id="a_node8"><a xlink:href="group__tools__drafting__primitive.html#ga060910368142d6371cf4f3f30be7561e" target="_top" xlink:title="Draft a line with configurable style and optional arrowheads.">
<polygon fill="white" stroke="black" points="135,-157.5 135,-176.5 197,-176.5 197,-157.5 135,-157.5"/>
<text text-anchor="middle" x="166" y="-164.5" font-family="Helvetica,sans-Serif" font-size="10.00">draft_line</text>
</a>
</g>
</g>
<!-- Node4&#45;&gt;Node8 -->
<g id="edge18" class="edge">
<title>Node4&#45;&gt;Node8</title>
<path fill="none" stroke="midnightblue" d="M337.47,-200.89C307.12,-197.88 267.59,-193.07 233,-186 220.85,-183.52 207.68,-179.92 196.32,-176.52"/>
<polygon fill="midnightblue" stroke="midnightblue" points="337.51,-204.41 347.8,-201.88 338.18,-197.44 337.51,-204.41"/>
</g>
<!-- Node6 -->
<g id="node6" class="node">
<title>Node6</title>
<g id="a_node6"><a xlink:href="group__tools__drafting__dimension.html#ga6b8e17d22ac4a95d25a90be8a74c0689" target="_top" xlink:title="Construct a angular dimension arc.">
<polygon fill="white" stroke="black" points="2,-0.5 2,-19.5 97,-19.5 97,-0.5 2,-0.5"/>
<text text-anchor="middle" x="49.5" y="-7.5" font-family="Helvetica,sans-Serif" font-size="10.00">draft_dim_angle</text>
</a>
</g>
</g>
<!-- Node5&#45;&gt;Node6 -->
<g id="edge5" class="edge">
<title>Node5&#45;&gt;Node6</title>
<path fill="none" stroke="midnightblue" d="M156.82,-109.94C146.38,-87.7 126.36,-51.14 99,-29 94.29,-25.19 88.72,-22.07 83.07,-19.54"/>
<polygon fill="midnightblue" stroke="midnightblue" points="153.75,-111.64 161.05,-119.32 160.13,-108.77 153.75,-111.64"/>
</g>
<!-- Node7&#45;&gt;Node5 -->
<g id="edge7" class="edge">
<title>Node7&#45;&gt;Node5</title>
<path fill="none" stroke="midnightblue" d="M233.13,-153.88C219.78,-148.86 204.8,-143.22 192.48,-138.59"/>
<polygon fill="midnightblue" stroke="midnightblue" points="231.92,-157.17 242.51,-157.41 234.39,-150.61 231.92,-157.17"/>
</g>
<!-- Node7&#45;&gt;Node8 -->
<g id="edge8" class="edge">
<title>Node7&#45;&gt;Node8</title>
<path fill="none" stroke="midnightblue" d="M222.93,-167C214.24,-167 205.34,-167 197.27,-167"/>
<polygon fill="midnightblue" stroke="midnightblue" points="222.96,-170.5 232.96,-167 222.96,-163.5 222.96,-170.5"/>
</g>
<!-- Node8&#45;&gt;Node2 -->
<g id="edge13" class="edge">
<title>Node8&#45;&gt;Node2</title>
<path fill="none" stroke="midnightblue" d="M159.73,-186.54C151.3,-214.27 132.27,-264.98 99,-295 94.77,-298.82 89.68,-301.91 84.42,-304.39"/>
<polygon fill="midnightblue" stroke="midnightblue" points="163.12,-187.39 162.53,-176.82 156.4,-185.45 163.12,-187.39"/>
</g>
<!-- Node8&#45;&gt;Node3 -->
<g id="edge14" class="edge">
<title>Node8&#45;&gt;Node3</title>
<path fill="none" stroke="midnightblue" d="M155.54,-185.6C144.46,-205.71 124.36,-237.49 99,-257 94.05,-260.8 88.25,-263.94 82.41,-266.49"/>
<polygon fill="midnightblue" stroke="midnightblue" points="158.76,-187 160.36,-176.53 152.58,-183.71 158.76,-187"/>
</g>
<!-- Node8&#45;&gt;Node6 -->
<g id="edge10" class="edge">
<title>Node8&#45;&gt;Node6</title>
<path fill="none" stroke="midnightblue" d="M137.53,-150.94C136.63,-150 135.78,-149.02 135,-148 101.56,-104.01 136.49,-69.6 99,-29 95.44,-25.15 91.01,-22.06 86.27,-19.6"/>
<polygon fill="midnightblue" stroke="midnightblue" points="135.33,-153.66 145.26,-157.35 139.79,-148.27 135.33,-153.66"/>
</g>
<!-- Node9 -->
<g id="node9" class="node">
<title>Node9</title>
<g id="a_node9"><a xlink:href="group__tools__drafting__operation.html#ga4e20419a6d4623f21c05179fc8b6df95" target="_top" xlink:title="Construct drafting sheet axes.">
<polygon fill="white" stroke="black" points="16,-38.5 16,-57.5 83,-57.5 83,-38.5 16,-38.5"/>
<text text-anchor="middle" x="49.5" y="-45.5" font-family="Helvetica,sans-Serif" font-size="10.00">draft_axes</text>
</a>
</g>
</g>
<!-- Node8&#45;&gt;Node9 -->
<g id="edge9" class="edge">
<title>Node8&#45;&gt;Node9</title>
<path fill="none" stroke="midnightblue" d="M138.18,-151.28C137.05,-150.23 135.98,-149.14 135,-148 109.25,-118.18 127.47,-94.23 99,-67 94.49,-62.69 88.89,-59.32 83.11,-56.7"/>
<polygon fill="midnightblue" stroke="midnightblue" points="136.16,-154.15 146.22,-157.5 140.45,-148.61 136.16,-154.15"/>
</g>
<!-- Node10 -->
<g id="node10" class="node">
<title>Node10</title>
<g id="a_node10"><a xlink:href="group__tools__drafting__dimension.html#ga4866c090b81b437e2f1f707d28ad8ec7" target="_top" xlink:title="Construct a center mark dimension cross.">
<polygon fill="white" stroke="black" points="0,-228.5 0,-247.5 99,-247.5 99,-228.5 0,-228.5"/>
<text text-anchor="middle" x="49.5" y="-235.5" font-family="Helvetica,sans-Serif" font-size="10.00">draft_dim_center</text>
</a>
</g>
</g>
<!-- Node8&#45;&gt;Node10 -->
<g id="edge11" class="edge">
<title>Node8&#45;&gt;Node10</title>
<path fill="none" stroke="midnightblue" d="M146.94,-183.63C134.23,-194.7 116.44,-209.01 99,-219 92.8,-222.55 85.81,-225.72 79.11,-228.41"/>
<polygon fill="midnightblue" stroke="midnightblue" points="149.36,-186.15 154.5,-176.89 144.71,-180.93 149.36,-186.15"/>
</g>
<!-- Node11 -->
<g id="node11" class="node">
<title>Node11</title>
<g id="a_node11"><a xlink:href="group__tools__drafting__dimension.html#ga5c4915c4c4464c5cdaefd501c2de261d" target="_top" xlink:title="Construct a dimension leader line at a point.">
<polygon fill="white" stroke="black" points="0,-190.5 0,-209.5 99,-209.5 99,-190.5 0,-190.5"/>
<text text-anchor="middle" x="49.5" y="-197.5" font-family="Helvetica,sans-Serif" font-size="10.00">draft_dim_leader</text>
</a>
</g>
</g>
<!-- Node8&#45;&gt;Node11 -->
<g id="edge12" class="edge">
<title>Node8&#45;&gt;Node11</title>
<path fill="none" stroke="midnightblue" d="M124.92,-178.55C111.42,-182.44 96.51,-186.74 83.6,-190.46"/>
<polygon fill="midnightblue" stroke="midnightblue" points="126.28,-181.8 134.92,-175.67 124.34,-175.08 126.28,-181.8"/>
</g>
<!-- Node12 -->
<g id="node12" class="node">
<title>Node12</title>
<g id="a_node12"><a xlink:href="group__tools__drafting__primitive.html#gada1e771ce89ef86b6241c43dc01bf62d" target="_top" xlink:title="Draft a polygon with configurable style.">
<polygon fill="white" stroke="black" points="8,-152.5 8,-171.5 91,-171.5 91,-152.5 8,-152.5"/>
<text text-anchor="middle" x="49.5" y="-159.5" font-family="Helvetica,sans-Serif" font-size="10.00">draft_polygon</text>
</a>
</g>
</g>
<!-- Node8&#45;&gt;Node12 -->
<g id="edge15" class="edge">
<title>Node8&#45;&gt;Node12</title>
<path fill="none" stroke="midnightblue" d="M124.8,-165.24C113.89,-164.77 102.08,-164.25 91.15,-163.77"/>
<polygon fill="midnightblue" stroke="midnightblue" points="124.77,-168.75 134.92,-165.69 125.08,-161.75 124.77,-168.75"/>
</g>
<!-- Node13 -->
<g id="node13" class="node">
<title>Node13</title>
<g id="a_node13"><a xlink:href="group__tools__drafting__primitive.html#ga20eb57e9d25186784df7428089e3a2ae" target="_top" xlink:title="Draft a rectangle with configurable style.">
<polygon fill="white" stroke="black" points="4.5,-114.5 4.5,-133.5 94.5,-133.5 94.5,-114.5 4.5,-114.5"/>
<text text-anchor="middle" x="49.5" y="-121.5" font-family="Helvetica,sans-Serif" font-size="10.00">draft_rectangle</text>
</a>
</g>
</g>
<!-- Node8&#45;&gt;Node13 -->
<g id="edge16" class="edge">
<title>Node8&#45;&gt;Node13</title>
<path fill="none" stroke="midnightblue" d="M129.76,-153.76C112.33,-147.22 91.69,-139.47 75.84,-133.52"/>
<polygon fill="midnightblue" stroke="midnightblue" points="129,-157.22 139.59,-157.46 131.46,-150.66 129,-157.22"/>
</g>
<!-- Node14 -->
<g id="node14" class="node">
<title>Node14</title>
<g id="a_node14"><a xlink:href="group__tools__drafting__operation.html#ga49aac81a903cd453ea9cadc85e84e414" target="_top" xlink:title="Construct a drafting sheet ruler.">
<polygon fill="white" stroke="black" points="16,-76.5 16,-95.5 83,-95.5 83,-76.5 16,-76.5"/>
<text text-anchor="middle" x="49.5" y="-83.5" font-family="Helvetica,sans-Serif" font-size="10.00">draft_ruler</text>
</a>
</g>
</g>
<!-- Node8&#45;&gt;Node14 -->
<g id="edge17" class="edge">
<title>Node8&#45;&gt;Node14</title>
<path fill="none" stroke="midnightblue" d="M139.22,-151.44C137.76,-150.32 136.34,-149.17 135,-148 116.25,-131.58 119.23,-119.55 99,-105 93.79,-101.25 87.74,-98.12 81.71,-95.55"/>
<polygon fill="midnightblue" stroke="midnightblue" points="137.63,-154.6 147.85,-157.41 141.62,-148.84 137.63,-154.6"/>
</g>
</g>
</svg>
