<?xml version="1.0" encoding="UTF-8" standalone="no"?>
<!DOCTYPE svg PUBLIC "-//W3C//DTD SVG 1.1//EN"
 "http://www.w3.org/Graphics/SVG/1.1/DTD/svg11.dtd">
<!-- Generated by graphviz version 2.43.0 (0)
 -->
<!-- Title: ellipse Pages: 1 -->
<svg width="397pt" height="142pt"
 viewBox="0.00 0.00 397.00 142.00" xmlns="http://www.w3.org/2000/svg" xmlns:xlink="http://www.w3.org/1999/xlink">
<g id="graph0" class="graph" transform="scale(1 1) rotate(0) translate(4 138)">
<title>ellipse</title>
<polygon fill="white" stroke="transparent" points="-4,4 -4,-138 393,-138 393,4 -4,4"/>
<!-- Node1 -->
<g id="node1" class="node">
<title>Node1</title>
<g id="a_node1"><a xlink:title="An ellipse.">
<polygon fill="#bfbfbf" stroke="black" points="340,-57.5 340,-76.5 389,-76.5 389,-57.5 340,-57.5"/>
<text text-anchor="middle" x="364.5" y="-64.5" font-family="Helvetica,sans-Serif" font-size="10.00">ellipse</text>
</a>
</g>
</g>
<!-- Node2 -->
<g id="node2" class="node">
<title>Node2</title>
<g id="a_node2"><a xlink:href="group__shapes__basic__2d.html#ga9f2b6ba2562760853dd998b0086736a3" target="_top" xlink:title="An ellipse with a removed elliptical core.">
<polygon fill="white" stroke="black" points="238.5,-114.5 238.5,-133.5 297.5,-133.5 297.5,-114.5 238.5,-114.5"/>
<text text-anchor="middle" x="268" y="-121.5" font-family="Helvetica,sans-Serif" font-size="10.00">ellipse_c</text>
</a>
</g>
</g>
<!-- Node1&#45;&gt;Node2 -->
<g id="edge1" class="edge">
<title>Node1&#45;&gt;Node2</title>
<path fill="none" stroke="midnightblue" d="M338.6,-82.02C321.55,-92.3 299.47,-105.62 284.79,-114.47"/>
<polygon fill="midnightblue" stroke="midnightblue" points="340.71,-84.83 347.47,-76.67 337.1,-78.84 340.71,-84.83"/>
</g>
<!-- Node3 -->
<g id="node3" class="node">
<title>Node3</title>
<g id="a_node3"><a xlink:href="group__shapes__basic__2d.html#ga3e186b32450bffe183da7422f0b19f95" target="_top" xlink:title="A sector of an ellipse with a removed elliptical core.">
<polygon fill="white" stroke="black" points="131,-57.5 131,-76.5 196,-76.5 196,-57.5 131,-57.5"/>
<text text-anchor="middle" x="163.5" y="-64.5" font-family="Helvetica,sans-Serif" font-size="10.00">ellipse_cs</text>
</a>
</g>
</g>
<!-- Node1&#45;&gt;Node3 -->
<g id="edge2" class="edge">
<title>Node1&#45;&gt;Node3</title>
<path fill="none" stroke="midnightblue" d="M329.53,-67C292.2,-67 232.71,-67 196.27,-67"/>
<polygon fill="midnightblue" stroke="midnightblue" points="329.89,-70.5 339.89,-67 329.89,-63.5 329.89,-70.5"/>
</g>
<!-- Node5 -->
<g id="node5" class="node">
<title>Node5</title>
<g id="a_node5"><a xlink:href="group__shapes__basic__2d.html#ga8925cd75276266667fbc1f0896482a7a" target="_top" xlink:title="An ellipse sector.">
<polygon fill="white" stroke="black" points="238.5,-38.5 238.5,-57.5 297.5,-57.5 297.5,-38.5 238.5,-38.5"/>
<text text-anchor="middle" x="268" y="-45.5" font-family="Helvetica,sans-Serif" font-size="10.00">ellipse_s</text>
</a>
</g>
</g>
<!-- Node1&#45;&gt;Node5 -->
<g id="edge4" class="edge">
<title>Node1&#45;&gt;Node5</title>
<path fill="none" stroke="midnightblue" d="M329.57,-60.18C319.08,-58.07 307.64,-55.77 297.55,-53.74"/>
<polygon fill="midnightblue" stroke="midnightblue" points="329.16,-63.67 339.65,-62.21 330.54,-56.8 329.16,-63.67"/>
</g>
<!-- Node6 -->
<g id="node6" class="node">
<title>Node6</title>
<g id="a_node6"><a xlink:href="group__parts__3d__computer__pci__bracket.html#gaf56631cf80d8e5f0b77736b17b94ecd9" target="_top" xlink:title="PCI slot cover and adapter card bracket generator.">
<polygon fill="white" stroke="black" points="232,-0.5 232,-19.5 304,-19.5 304,-0.5 232,-0.5"/>
<text text-anchor="middle" x="268" y="-7.5" font-family="Helvetica,sans-Serif" font-size="10.00">pci_bracket</text>
</a>
</g>
</g>
<!-- Node1&#45;&gt;Node6 -->
<g id="edge6" class="edge">
<title>Node1&#45;&gt;Node6</title>
<path fill="none" stroke="midnightblue" d="M340.46,-51.75C329.53,-44.65 316.21,-36.2 304,-29 298.64,-25.84 292.72,-22.55 287.3,-19.62"/>
<polygon fill="midnightblue" stroke="midnightblue" points="338.72,-54.79 349.01,-57.34 342.55,-48.93 338.72,-54.79"/>
</g>
<!-- Node4 -->
<g id="node4" class="node">
<title>Node4</title>
<g id="a_node4"><a xlink:href="group__shapes__revolved.html#ga58a3e713a904c96b69ddd8f87f7f3bb1" target="_top" xlink:title="An elliptical cross&#45;sectional profile revolved about the z&#45;axis.">
<polygon fill="white" stroke="black" points="0,-57.5 0,-76.5 95,-76.5 95,-57.5 0,-57.5"/>
<text text-anchor="middle" x="47.5" y="-64.5" font-family="Helvetica,sans-Serif" font-size="10.00">torus_ellipse_cs</text>
</a>
</g>
</g>
<!-- Node3&#45;&gt;Node4 -->
<g id="edge3" class="edge">
<title>Node3&#45;&gt;Node4</title>
<path fill="none" stroke="midnightblue" d="M120.52,-67C112.22,-67 103.45,-67 95,-67"/>
<polygon fill="midnightblue" stroke="midnightblue" points="120.74,-70.5 130.74,-67 120.74,-63.5 120.74,-70.5"/>
</g>
<!-- Node5&#45;&gt;Node3 -->
<g id="edge5" class="edge">
<title>Node5&#45;&gt;Node3</title>
<path fill="none" stroke="midnightblue" d="M228.52,-55.13C217.84,-57.11 206.38,-59.24 196.14,-61.14"/>
<polygon fill="midnightblue" stroke="midnightblue" points="229.25,-58.56 238.45,-53.29 227.98,-51.67 229.25,-58.56"/>
</g>
</g>
</svg>
