<?xml version="1.0" encoding="UTF-8" standalone="no"?>
<!DOCTYPE svg PUBLIC "-//W3C//DTD SVG 1.1//EN"
 "http://www.w3.org/Graphics/SVG/1.1/DTD/svg11.dtd">
<!-- Generated by graphviz version 2.43.0 (0)
 -->
<!-- Title: Coordinates Systems Pages: 1 -->
<svg width="284pt" height="29pt"
 viewBox="0.00 0.00 284.00 28.50" xmlns="http://www.w3.org/2000/svg" xmlns:xlink="http://www.w3.org/1999/xlink">
<g id="graph0" class="graph" transform="scale(1 1) rotate(0) translate(4 24.5)">
<title>Coordinates Systems</title>
<polygon fill="white" stroke="transparent" points="-4,4 -4,-24.5 280,-24.5 280,4 -4,4"/>
<!-- Node1 -->
<g id="node1" class="node">
<title>Node1</title>
<g id="a_node1"><a xlink:title="Coordinate systems and conversions.">
<polygon fill="#bfbfbf" stroke="black" points="120,-19 0,-19 0,0 120,0 120,-19"/>
<text text-anchor="middle" x="60" y="-7" font-family="Helvetica,sans-Serif" font-size="10.00">Coordinates Systems</text>
</a>
</g>
</g>
<!-- Node2 -->
<g id="node2" class="node">
<title>Node2</title>
<g id="a_node2"><a xlink:href="group__units.html" target="_top" xlink:title="Unit definitions and unit conversions.">
<polygon fill="white" stroke="black" points="276,-19 234,-19 234,0 276,0 276,-19"/>
<text text-anchor="middle" x="255" y="-7" font-family="Helvetica,sans-Serif" font-size="10.00">Units</text>
</a>
</g>
</g>
<!-- Node1&#45;&gt;Node2 -->
<g id="edge2" class="edge">
<title>Node1&#45;&gt;Node2</title>
<path fill="none" stroke="darkgreen" stroke-dasharray="5,2" d="M120.22,-9.5C159,-9.5 207.28,-9.5 233.94,-9.5"/>
<text text-anchor="middle" x="177" y="-12.5" font-family="Helvetica,sans-Serif" font-size="10.00">coordinate.scad</text>
</g>
<!-- Node2&#45;&gt;Node1 -->
<g id="edge1" class="edge">
<title>Node2&#45;&gt;Node1</title>
<path fill="none" stroke="black" d="M223.83,-7.77C221.18,-7.66 218.54,-7.57 216,-7.5 184.39,-6.67 149.14,-7.02 120.26,-7.65"/>
<polygon fill="black" stroke="black" points="223.74,-11.27 233.89,-8.24 224.07,-4.27 223.74,-11.27"/>
</g>
</g>
</svg>
