<?xml version="1.0" encoding="UTF-8" standalone="no"?>
<!DOCTYPE svg PUBLIC "-//W3C//DTD SVG 1.1//EN"
 "http://www.w3.org/Graphics/SVG/1.1/DTD/svg11.dtd">
<!-- Generated by graphviz version 2.43.0 (0)
 -->
<!-- Title: angle Pages: 1 -->
<svg width="634pt" height="484pt"
 viewBox="0.00 0.00 634.00 484.00" xmlns="http://www.w3.org/2000/svg" xmlns:xlink="http://www.w3.org/1999/xlink">
<g id="graph0" class="graph" transform="scale(1 1) rotate(0) translate(4 480)">
<title>angle</title>
<polygon fill="white" stroke="transparent" points="-4,4 -4,-480 630,-480 630,4 -4,4"/>
<!-- Node1 -->
<g id="node1" class="node">
<title>Node1</title>
<g id="a_node1"><a xlink:title="Convert an angle from some units to another.">
<polygon fill="#bfbfbf" stroke="black" points="582,-152.5 582,-171.5 626,-171.5 626,-152.5 582,-152.5"/>
<text text-anchor="middle" x="604" y="-159.5" font-family="Helvetica,sans-Serif" font-size="10.00">angle</text>
</a>
</g>
</g>
<!-- Node2 -->
<g id="node2" class="node">
<title>Node2</title>
<g id="a_node2"><a xlink:href="group__shapes__basic__3d.html#ga8a71b8cd52ae5ef7a2510ff579734108" target="_top" xlink:title="A cone.">
<polygon fill="white" stroke="black" points="475.5,-380.5 475.5,-399.5 515.5,-399.5 515.5,-380.5 475.5,-380.5"/>
<text text-anchor="middle" x="495.5" y="-387.5" font-family="Helvetica,sans-Serif" font-size="10.00">cone</text>
</a>
</g>
</g>
<!-- Node1&#45;&gt;Node2 -->
<g id="edge1" class="edge">
<title>Node1&#45;&gt;Node2</title>
<path fill="none" stroke="midnightblue" d="M598.56,-181.73C590.85,-213.79 573.16,-278.55 546,-328 534.86,-348.28 517.02,-368.65 506.08,-380.25"/>
<polygon fill="midnightblue" stroke="midnightblue" points="602.01,-182.37 600.87,-171.84 595.19,-180.78 602.01,-182.37"/>
</g>
<!-- Node7 -->
<g id="node7" class="node">
<title>Node7</title>
<g id="a_node7"><a xlink:href="group__models__3d__misc__omdl__logo.html#gab176f64dad7e83d4fb056be44b71f630" target="_top" xlink:title="Standard omdl logo.">
<polygon fill="white" stroke="black" points="321.5,-342.5 321.5,-361.5 389.5,-361.5 389.5,-342.5 321.5,-342.5"/>
<text text-anchor="middle" x="355.5" y="-349.5" font-family="Helvetica,sans-Serif" font-size="10.00">omdl_logo</text>
</a>
</g>
</g>
<!-- Node1&#45;&gt;Node7 -->
<g id="edge22" class="edge">
<title>Node1&#45;&gt;Node7</title>
<path fill="none" stroke="midnightblue" d="M595.18,-181.08C585.92,-201.81 568.83,-234.93 546,-257 500.22,-301.25 429.78,-329.08 388.91,-342.47"/>
<polygon fill="midnightblue" stroke="midnightblue" points="598.46,-182.31 599.19,-171.74 592.03,-179.55 598.46,-182.31"/>
</g>
<!-- Node8 -->
<g id="node8" class="node">
<title>Node8</title>
<g id="a_node8"><a xlink:href="group__tools__drafting__dimension.html#ga6b8e17d22ac4a95d25a90be8a74c0689" target="_top" xlink:title="Construct a angular dimension arc.">
<polygon fill="white" stroke="black" points="448,-0.5 448,-19.5 543,-19.5 543,-0.5 448,-0.5"/>
<text text-anchor="middle" x="495.5" y="-7.5" font-family="Helvetica,sans-Serif" font-size="10.00">draft_dim_angle</text>
</a>
</g>
</g>
<!-- Node1&#45;&gt;Node8 -->
<g id="edge9" class="edge">
<title>Node1&#45;&gt;Node8</title>
<path fill="none" stroke="midnightblue" d="M598.79,-142.45C591.98,-115.08 576.19,-65.18 546,-34 540.09,-27.89 532.3,-23.13 524.66,-19.52"/>
<polygon fill="midnightblue" stroke="midnightblue" points="595.42,-143.43 601.1,-152.38 602.24,-141.84 595.42,-143.43"/>
</g>
<!-- Node9 -->
<g id="node9" class="node">
<title>Node9</title>
<g id="a_node9"><a xlink:href="group__tools__extrude.html#ga31947e37a3512d9814d47f8f8c960f84" target="_top" xlink:title="Translate, rotate, and revolve a 2d shape about the z&#45;axis.">
<polygon fill="white" stroke="black" points="445,-228.5 445,-247.5 546,-247.5 546,-228.5 445,-228.5"/>
<text text-anchor="middle" x="495.5" y="-235.5" font-family="Helvetica,sans-Serif" font-size="10.00">extrude_rotate_tr</text>
</a>
</g>
</g>
<!-- Node1&#45;&gt;Node9 -->
<g id="edge10" class="edge">
<title>Node1&#45;&gt;Node9</title>
<path fill="none" stroke="midnightblue" d="M586.91,-179.03C576.04,-189.91 560.99,-203.84 546,-214 537.86,-219.52 528.25,-224.48 519.68,-228.44"/>
<polygon fill="midnightblue" stroke="midnightblue" points="589.55,-181.34 594.03,-171.73 584.54,-176.45 589.55,-181.34"/>
</g>
<!-- Node15 -->
<g id="node15" class="node">
<title>Node15</title>
<g id="a_node15"><a xlink:href="group__tools__extrude.html#ga2cbff19d3b793918b99aae3b56d37dfa" target="_top" xlink:title="Translate, rotate, scale, and revolve a 2d shape about the z&#45;axis.">
<polygon fill="white" stroke="black" points="302,-190.5 302,-209.5 409,-209.5 409,-190.5 302,-190.5"/>
<text text-anchor="middle" x="355.5" y="-197.5" font-family="Helvetica,sans-Serif" font-size="10.00">extrude_rotate_trs</text>
</a>
</g>
</g>
<!-- Node1&#45;&gt;Node15 -->
<g id="edge20" class="edge">
<title>Node1&#45;&gt;Node15</title>
<path fill="none" stroke="midnightblue" d="M572.44,-173.57C563.98,-176.39 554.72,-179.13 546,-181 500.41,-190.76 447.56,-195.53 409.27,-197.85"/>
<polygon fill="midnightblue" stroke="midnightblue" points="573.63,-176.86 581.93,-170.27 571.33,-170.25 573.63,-176.86"/>
</g>
<!-- Node16 -->
<g id="node16" class="node">
<title>Node16</title>
<g id="a_node16"><a xlink:href="group__parts__3d__motion__bearing__linear__rod.html#ga48399d5e708b4894494c69b2d1e88e26" target="_top" xlink:title="Transform 2d or 3d shape into a linear rod ball or sled bearing.">
<polygon fill="white" stroke="black" points="126,-133.5 126,-152.5 266,-152.5 266,-133.5 126,-133.5"/>
<text text-anchor="middle" x="196" y="-140.5" font-family="Helvetica,sans-Serif" font-size="10.00">make_bearing_linear_rod</text>
</a>
</g>
</g>
<!-- Node1&#45;&gt;Node16 -->
<g id="edge21" class="edge">
<title>Node1&#45;&gt;Node16</title>
<path fill="none" stroke="midnightblue" d="M592.39,-143.77C582.41,-128.32 566.03,-106.84 546,-95 492.5,-63.38 470.83,-73.25 409,-67 361.69,-62.21 347.24,-52.35 302,-67 261.11,-80.25 222.79,-116.03 205.96,-133.35"/>
<polygon fill="midnightblue" stroke="midnightblue" points="589.53,-145.8 597.75,-152.47 595.49,-142.12 589.53,-145.8"/>
</g>
<!-- Node17 -->
<g id="node17" class="node">
<title>Node17</title>
<g id="a_node17"><a xlink:href="group__tools__repeat.html#ga543a7c0b4c744d98e6197036da5681fe" target="_top" xlink:title="Radially repeat copies of child objects about a z&#45;axis radius.">
<polygon fill="white" stroke="black" points="455,-152.5 455,-171.5 536,-171.5 536,-152.5 455,-152.5"/>
<text text-anchor="middle" x="495.5" y="-159.5" font-family="Helvetica,sans-Serif" font-size="10.00">repeat_radial</text>
</a>
</g>
</g>
<!-- Node1&#45;&gt;Node17 -->
<g id="edge23" class="edge">
<title>Node1&#45;&gt;Node17</title>
<path fill="none" stroke="midnightblue" d="M571.8,-162C560.61,-162 547.84,-162 536.03,-162"/>
<polygon fill="midnightblue" stroke="midnightblue" points="571.96,-165.5 581.96,-162 571.96,-158.5 571.96,-165.5"/>
</g>
<!-- Node18 -->
<g id="node18" class="node">
<title>Node18</title>
<g id="a_node18"><a xlink:href="group__shapes__basic__2d.html#ga7452bf5414a3677ec806a31aed6b61dd" target="_top" xlink:title="A two&#45;dimensional star.">
<polygon fill="white" stroke="black" points="332,-114.5 332,-133.5 379,-133.5 379,-114.5 332,-114.5"/>
<text text-anchor="middle" x="355.5" y="-121.5" font-family="Helvetica,sans-Serif" font-size="10.00">star2d</text>
</a>
</g>
</g>
<!-- Node1&#45;&gt;Node18 -->
<g id="edge29" class="edge">
<title>Node1&#45;&gt;Node18</title>
<path fill="none" stroke="midnightblue" d="M572.44,-150.43C563.98,-147.61 554.72,-144.87 546,-143 486.67,-130.3 415.03,-126.05 379.21,-124.65"/>
<polygon fill="midnightblue" stroke="midnightblue" points="571.33,-153.75 581.93,-153.73 573.63,-147.14 571.33,-153.75"/>
</g>
<!-- Node19 -->
<g id="node19" class="node">
<title>Node19</title>
<g id="a_node19"><a xlink:href="group__shapes__basic__3d.html#gab99dacd3036b965579d68b1d3b7ee2d8" target="_top" xlink:title="A three&#45;dimensional star.">
<polygon fill="white" stroke="black" points="332,-76.5 332,-95.5 379,-95.5 379,-76.5 332,-76.5"/>
<text text-anchor="middle" x="355.5" y="-83.5" font-family="Helvetica,sans-Serif" font-size="10.00">star3d</text>
</a>
</g>
</g>
<!-- Node1&#45;&gt;Node19 -->
<g id="edge30" class="edge">
<title>Node1&#45;&gt;Node19</title>
<path fill="none" stroke="midnightblue" d="M582.21,-146.34C571.81,-139.19 558.75,-131.18 546,-126 488.52,-102.66 415.46,-92.19 379.14,-88.16"/>
<polygon fill="midnightblue" stroke="midnightblue" points="580.41,-149.36 590.58,-152.32 584.47,-143.66 580.41,-149.36"/>
</g>
<!-- Node3 -->
<g id="node3" class="node">
<title>Node3</title>
<g id="a_node3"><a xlink:href="group__parts__3d__enclosure__clamps.html#ga8fd874789132e42e5470328d18560f1a" target="_top" xlink:title="A clamp, bushing, and/or grip for wire/hose wall penetrations.">
<polygon fill="white" stroke="black" points="164.5,-323.5 164.5,-342.5 227.5,-342.5 227.5,-323.5 164.5,-323.5"/>
<text text-anchor="middle" x="196" y="-330.5" font-family="Helvetica,sans-Serif" font-size="10.00">clamp_cg</text>
</a>
</g>
</g>
<!-- Node2&#45;&gt;Node3 -->
<g id="edge2" class="edge">
<title>Node2&#45;&gt;Node3</title>
<path fill="none" stroke="midnightblue" d="M465.04,-389.36C426.95,-388.02 358.79,-383.87 302,-371 272.32,-364.27 239.55,-351.51 218.65,-342.64"/>
<polygon fill="midnightblue" stroke="midnightblue" points="465.29,-392.87 475.4,-389.68 465.51,-385.87 465.29,-392.87"/>
</g>
<!-- Node4 -->
<g id="node4" class="node">
<title>Node4</title>
<g id="a_node4"><a xlink:href="group__parts__3d__enclosure__power__strip.html#ga191779dedf39e4fd769a8dc96b0f8c9e" target="_top" xlink:title="A power strip generator for single gang electrical receptacles.">
<polygon fill="white" stroke="black" points="0,-342.5 0,-361.5 90,-361.5 90,-342.5 0,-342.5"/>
<text text-anchor="middle" x="45" y="-349.5" font-family="Helvetica,sans-Serif" font-size="10.00">power_strip_sg</text>
</a>
</g>
</g>
<!-- Node2&#45;&gt;Node4 -->
<g id="edge8" class="edge">
<title>Node2&#45;&gt;Node4</title>
<path fill="none" stroke="midnightblue" d="M465.35,-390.85C448.82,-391.29 427.76,-391.78 409,-392 361.45,-392.56 349.43,-395.48 302,-392 223.14,-386.21 204.06,-378.59 126,-366 114.45,-364.14 101.98,-362.01 90.4,-359.99"/>
<polygon fill="midnightblue" stroke="midnightblue" points="465.59,-394.35 475.49,-390.57 465.39,-387.35 465.59,-394.35"/>
</g>
<!-- Node5 -->
<g id="node5" class="node">
<title>Node5</title>
<g id="a_node5"><a xlink:href="group__parts__3d__fastener__hinges.html#ga7e350f2c55116094108b99dd8103fc04" target="_top" xlink:title="A print&#45;in&#45;place single&#45;fold hinge generator.">
<polygon fill="white" stroke="black" points="326.5,-456.5 326.5,-475.5 384.5,-475.5 384.5,-456.5 326.5,-456.5"/>
<text text-anchor="middle" x="355.5" y="-463.5" font-family="Helvetica,sans-Serif" font-size="10.00">hinge_sf</text>
</a>
</g>
</g>
<!-- Node2&#45;&gt;Node5 -->
<g id="edge4" class="edge">
<title>Node2&#45;&gt;Node5</title>
<path fill="none" stroke="midnightblue" d="M471.31,-405.13C454.35,-415.93 430.63,-430.53 409,-442 399.35,-447.12 388.4,-452.23 379.01,-456.41"/>
<polygon fill="midnightblue" stroke="midnightblue" points="473.46,-407.91 479.98,-399.56 469.67,-402.02 473.46,-407.91"/>
</g>
<!-- Node2&#45;&gt;Node7 -->
<g id="edge6" class="edge">
<title>Node2&#45;&gt;Node7</title>
<path fill="none" stroke="midnightblue" d="M465.47,-382.01C443.29,-375.9 412.71,-367.48 389.58,-361.11"/>
<polygon fill="midnightblue" stroke="midnightblue" points="464.74,-385.44 475.31,-384.72 466.6,-378.69 464.74,-385.44"/>
</g>
<!-- Node3&#45;&gt;Node4 -->
<g id="edge3" class="edge">
<title>Node3&#45;&gt;Node4</title>
<path fill="none" stroke="midnightblue" d="M154.47,-338.17C134.52,-340.71 110.44,-343.78 90.03,-346.38"/>
<polygon fill="midnightblue" stroke="midnightblue" points="155.01,-341.63 164.49,-336.89 154.13,-334.68 155.01,-341.63"/>
</g>
<!-- Node6 -->
<g id="node6" class="node">
<title>Node6</title>
<g id="a_node6"><a xlink:href="group__parts__3d__fastener__hinges.html#ga1ffc82e0bbac466d1dc4fbe6c214b765" target="_top" xlink:title="A print&#45;in&#45;place bi&#45;fold hinge generator.">
<polygon fill="white" stroke="black" points="166.5,-456.5 166.5,-475.5 225.5,-475.5 225.5,-456.5 166.5,-456.5"/>
<text text-anchor="middle" x="196" y="-463.5" font-family="Helvetica,sans-Serif" font-size="10.00">hinge_bf</text>
</a>
</g>
</g>
<!-- Node5&#45;&gt;Node6 -->
<g id="edge5" class="edge">
<title>Node5&#45;&gt;Node6</title>
<path fill="none" stroke="midnightblue" d="M316.15,-466C288.25,-466 251.07,-466 225.71,-466"/>
<polygon fill="midnightblue" stroke="midnightblue" points="316.34,-469.5 326.34,-466 316.34,-462.5 316.34,-469.5"/>
</g>
<!-- Node7&#45;&gt;Node4 -->
<g id="edge7" class="edge">
<title>Node7&#45;&gt;Node4</title>
<path fill="none" stroke="midnightblue" d="M311.47,-352C253.05,-352 149.15,-352 90.15,-352"/>
<polygon fill="midnightblue" stroke="midnightblue" points="311.49,-355.5 321.49,-352 311.49,-348.5 311.49,-355.5"/>
</g>
<!-- Node10 -->
<g id="node10" class="node">
<title>Node10</title>
<g id="a_node10"><a xlink:href="group__parts__3d__fastener__catch__latch.html#ga26a9933aa6d33599daab1be8d632c430" target="_top" xlink:title="A catch latch generator with configurable profile.">
<polygon fill="white" stroke="black" points="319.5,-304.5 319.5,-323.5 391.5,-323.5 391.5,-304.5 319.5,-304.5"/>
<text text-anchor="middle" x="355.5" y="-311.5" font-family="Helvetica,sans-Serif" font-size="10.00">catch_latch</text>
</a>
</g>
</g>
<!-- Node9&#45;&gt;Node10 -->
<g id="edge11" class="edge">
<title>Node9&#45;&gt;Node10</title>
<path fill="none" stroke="midnightblue" d="M471.31,-253.13C454.35,-263.93 430.63,-278.53 409,-290 399.35,-295.12 388.4,-300.23 379.01,-304.41"/>
<polygon fill="midnightblue" stroke="midnightblue" points="473.46,-255.91 479.98,-247.56 469.67,-250.02 473.46,-255.91"/>
</g>
<!-- Node11 -->
<g id="node11" class="node">
<title>Node11</title>
<g id="a_node11"><a xlink:href="group__tools__extrude.html#ga78405b5fa18461a302a2f24646499ece" target="_top" xlink:title="Translate, rotate, and revolve a 2d shape about the z&#45;axis with linear elongation.">
<polygon fill="white" stroke="black" points="303.5,-228.5 303.5,-247.5 407.5,-247.5 407.5,-228.5 303.5,-228.5"/>
<text text-anchor="middle" x="355.5" y="-235.5" font-family="Helvetica,sans-Serif" font-size="10.00">extrude_rotate_trl</text>
</a>
</g>
</g>
<!-- Node9&#45;&gt;Node11 -->
<g id="edge12" class="edge">
<title>Node9&#45;&gt;Node11</title>
<path fill="none" stroke="midnightblue" d="M434.64,-238C425.64,-238 416.43,-238 407.64,-238"/>
<polygon fill="midnightblue" stroke="midnightblue" points="434.68,-241.5 444.68,-238 434.68,-234.5 434.68,-241.5"/>
</g>
<!-- Node9&#45;&gt;Node15 -->
<g id="edge18" class="edge">
<title>Node9&#45;&gt;Node15</title>
<path fill="none" stroke="midnightblue" d="M450.03,-225.75C431.01,-220.52 409.12,-214.49 391.31,-209.59"/>
<polygon fill="midnightblue" stroke="midnightblue" points="449.11,-229.13 459.68,-228.41 450.96,-222.38 449.11,-229.13"/>
</g>
<!-- Node11&#45;&gt;Node3 -->
<g id="edge13" class="edge">
<title>Node11&#45;&gt;Node3</title>
<path fill="none" stroke="midnightblue" d="M317.63,-252.04C312.12,-254.92 306.72,-258.24 302,-262 281.42,-278.4 287.32,-293.58 266,-309 254.69,-317.17 240.36,-322.75 227.7,-326.46"/>
<polygon fill="midnightblue" stroke="midnightblue" points="319.37,-255.09 326.89,-247.61 316.36,-248.77 319.37,-255.09"/>
</g>
<!-- Node11&#45;&gt;Node4 -->
<g id="edge14" class="edge">
<title>Node11&#45;&gt;Node4</title>
<path fill="none" stroke="midnightblue" d="M325.03,-251.89C308.01,-259.6 286.06,-269.01 266,-276 205.12,-297.22 186.47,-291.64 126,-314 103.94,-322.16 79.67,-334.14 63.71,-342.46"/>
<polygon fill="midnightblue" stroke="midnightblue" points="326.8,-254.93 334.43,-247.58 323.88,-248.56 326.8,-254.93"/>
</g>
<!-- Node12 -->
<g id="node12" class="node">
<title>Node12</title>
<g id="a_node12"><a xlink:href="group__shapes__revolved.html#ga58a3e713a904c96b69ddd8f87f7f3bb1" target="_top" xlink:title="An elliptical cross&#45;sectional profile revolved about the z&#45;axis.">
<polygon fill="white" stroke="black" points="148.5,-247.5 148.5,-266.5 243.5,-266.5 243.5,-247.5 148.5,-247.5"/>
<text text-anchor="middle" x="196" y="-254.5" font-family="Helvetica,sans-Serif" font-size="10.00">torus_ellipse_cs</text>
</a>
</g>
</g>
<!-- Node11&#45;&gt;Node12 -->
<g id="edge15" class="edge">
<title>Node11&#45;&gt;Node12</title>
<path fill="none" stroke="midnightblue" d="M293.26,-245.39C276.76,-247.38 259.18,-249.5 243.62,-251.38"/>
<polygon fill="midnightblue" stroke="midnightblue" points="293.86,-248.84 303.36,-244.17 293.02,-241.89 293.86,-248.84"/>
</g>
<!-- Node13 -->
<g id="node13" class="node">
<title>Node13</title>
<g id="a_node13"><a xlink:href="group__shapes__revolved.html#ga69b374bbebd7d87cfcd06b6bd3278404" target="_top" xlink:title="A trapezoidal cross&#45;sectional profile revolved about the z&#45;axis.">
<polygon fill="white" stroke="black" points="141,-209.5 141,-228.5 251,-228.5 251,-209.5 141,-209.5"/>
<text text-anchor="middle" x="196" y="-216.5" font-family="Helvetica,sans-Serif" font-size="10.00">torus_pg_trapezoid</text>
</a>
</g>
</g>
<!-- Node11&#45;&gt;Node13 -->
<g id="edge16" class="edge">
<title>Node11&#45;&gt;Node13</title>
<path fill="none" stroke="midnightblue" d="M293.38,-230.63C279.45,-228.95 264.75,-227.17 251.13,-225.53"/>
<polygon fill="midnightblue" stroke="midnightblue" points="293.02,-234.11 303.36,-231.83 293.86,-227.16 293.02,-234.11"/>
</g>
<!-- Node14 -->
<g id="node14" class="node">
<title>Node14</title>
<g id="a_node14"><a xlink:href="group__shapes__revolved.html#gad587c003585db775fd441468954b7c43" target="_top" xlink:title="A rectangular cross&#45;sectional profile revolved about the z&#45;axis.">
<polygon fill="white" stroke="black" points="144.5,-171.5 144.5,-190.5 247.5,-190.5 247.5,-171.5 144.5,-171.5"/>
<text text-anchor="middle" x="196" y="-178.5" font-family="Helvetica,sans-Serif" font-size="10.00">torus_rectangle_c</text>
</a>
</g>
</g>
<!-- Node11&#45;&gt;Node14 -->
<g id="edge17" class="edge">
<title>Node11&#45;&gt;Node14</title>
<path fill="none" stroke="midnightblue" d="M316.14,-224.82C311.34,-222.96 306.53,-221 302,-219 285.45,-211.68 282.82,-206.66 266,-200 256.87,-196.39 246.81,-193.19 237.26,-190.5"/>
<polygon fill="midnightblue" stroke="midnightblue" points="315.29,-228.23 325.88,-228.45 317.74,-221.68 315.29,-228.23"/>
</g>
<!-- Node15&#45;&gt;Node16 -->
<g id="edge19" class="edge">
<title>Node15&#45;&gt;Node16</title>
<path fill="none" stroke="midnightblue" d="M325.02,-186.14C308,-178.44 286.05,-169.03 266,-162 256.15,-158.55 245.34,-155.32 235.25,-152.53"/>
<polygon fill="midnightblue" stroke="midnightblue" points="323.88,-189.46 334.42,-190.44 326.79,-183.1 323.88,-189.46"/>
</g>
<!-- Node17&#45;&gt;Node3 -->
<g id="edge24" class="edge">
<title>Node17&#45;&gt;Node3</title>
<path fill="none" stroke="midnightblue" d="M479.05,-179.61C455.59,-206.29 413.24,-254.16 409,-257 367.06,-285.06 349.3,-277.41 302,-295 285.91,-300.98 282.11,-303.07 266,-309 252.67,-313.91 237.8,-319.12 225.28,-323.42"/>
<polygon fill="midnightblue" stroke="midnightblue" points="481.96,-181.6 485.93,-171.78 476.7,-176.98 481.96,-181.6"/>
</g>
<!-- Node17&#45;&gt;Node7 -->
<g id="edge26" class="edge">
<title>Node17&#45;&gt;Node7</title>
<path fill="none" stroke="midnightblue" d="M476.85,-178.55C466.34,-189.23 453.45,-203.91 445,-219 419.04,-265.36 445.79,-294.66 409,-333 403.77,-338.46 396.85,-342.35 389.76,-345.13"/>
<polygon fill="midnightblue" stroke="midnightblue" points="479.31,-181.04 483.99,-171.53 474.4,-176.05 479.31,-181.04"/>
</g>
<!-- Node17&#45;&gt;Node16 -->
<g id="edge25" class="edge">
<title>Node17&#45;&gt;Node16</title>
<path fill="none" stroke="midnightblue" d="M444.97,-158.84C396.06,-155.71 320.84,-150.91 266.06,-147.41"/>
<polygon fill="midnightblue" stroke="midnightblue" points="444.79,-162.33 454.99,-159.48 445.24,-155.35 444.79,-162.33"/>
</g>
<!-- Node17&#45;&gt;Node18 -->
<g id="edge27" class="edge">
<title>Node17&#45;&gt;Node18</title>
<path fill="none" stroke="midnightblue" d="M449.87,-149.71C426.28,-143.21 398.32,-135.52 379.19,-130.25"/>
<polygon fill="midnightblue" stroke="midnightblue" points="449.11,-153.13 459.68,-152.41 450.96,-146.38 449.11,-153.13"/>
</g>
<!-- Node17&#45;&gt;Node19 -->
<g id="edge28" class="edge">
<title>Node17&#45;&gt;Node19</title>
<path fill="none" stroke="midnightblue" d="M474.04,-146.31C457.23,-133.94 432.46,-116.85 409,-105 399.57,-100.24 388.65,-96.09 379.22,-92.89"/>
<polygon fill="midnightblue" stroke="midnightblue" points="471.95,-149.11 482.05,-152.3 476.14,-143.51 471.95,-149.11"/>
</g>
</g>
</svg>
