<?xml version="1.0" encoding="UTF-8" standalone="no"?>
<!DOCTYPE svg PUBLIC "-//W3C//DTD SVG 1.1//EN"
 "http://www.w3.org/Graphics/SVG/1.1/DTD/svg11.dtd">
<!-- Generated by graphviz version 2.43.0 (0)
 -->
<!-- Title: triangle_centroid Pages: 1 -->
<svg width="655pt" height="163pt"
 viewBox="0.00 0.00 655.00 162.59" xmlns="http://www.w3.org/2000/svg" xmlns:xlink="http://www.w3.org/1999/xlink">
<g id="graph0" class="graph" transform="scale(1 1) rotate(0) translate(4 158.59)">
<title>triangle_centroid</title>
<polygon fill="white" stroke="transparent" points="-4,4 -4,-158.59 651,-158.59 651,4 -4,4"/>
<!-- Node1 -->
<g id="node1" class="node">
<title>Node1</title>
<g id="a_node1"><a xlink:title="Compute the centroid of a triangle.">
<polygon fill="#bfbfbf" stroke="black" points="548,-95.5 548,-114.5 647,-114.5 647,-95.5 548,-95.5"/>
<text text-anchor="middle" x="597.5" y="-102.5" font-family="Helvetica,sans-Serif" font-size="10.00">triangle_centroid</text>
</a>
</g>
</g>
<!-- Node2 -->
<g id="node2" class="node">
<title>Node2</title>
<g id="a_node2"><a xlink:href="group__models__3d__misc__omdl__logo.html#gab176f64dad7e83d4fb056be44b71f630" target="_top" xlink:title="Standard omdl logo.">
<polygon fill="white" stroke="black" points="430.5,-133.5 430.5,-152.5 498.5,-152.5 498.5,-133.5 430.5,-133.5"/>
<text text-anchor="middle" x="464.5" y="-140.5" font-family="Helvetica,sans-Serif" font-size="10.00">omdl_logo</text>
</a>
</g>
</g>
<!-- Node1&#45;&gt;Node2 -->
<g id="edge1" class="edge">
<title>Node1&#45;&gt;Node2</title>
<path fill="none" stroke="midnightblue" d="M553.79,-117.39C535.85,-122.59 515.3,-128.55 498.55,-133.41"/>
<polygon fill="midnightblue" stroke="midnightblue" points="554.81,-120.74 563.44,-114.59 552.86,-114.01 554.81,-120.74"/>
</g>
<!-- Node4 -->
<g id="node4" class="node">
<title>Node4</title>
<g id="a_node4"><a xlink:href="group__shapes__polygon.html#gac7e2c70b3428b729efd86a675df794e6" target="_top" xlink:title="A polygon triangle specified by three coordinate points with vertex rounding.">
<polygon fill="white" stroke="black" points="417,-76.5 417,-95.5 512,-95.5 512,-76.5 417,-76.5"/>
<text text-anchor="middle" x="464.5" y="-83.5" font-family="Helvetica,sans-Serif" font-size="10.00">pg_triangle_ppp</text>
</a>
</g>
</g>
<!-- Node1&#45;&gt;Node4 -->
<g id="edge3" class="edge">
<title>Node1&#45;&gt;Node4</title>
<path fill="none" stroke="midnightblue" d="M537.76,-96.48C529.18,-95.24 520.44,-93.97 512.15,-92.77"/>
<polygon fill="midnightblue" stroke="midnightblue" points="537.32,-99.95 547.72,-97.93 538.33,-93.03 537.32,-99.95"/>
</g>
<!-- Node3 -->
<g id="node3" class="node">
<title>Node3</title>
<g id="a_node3"><a xlink:href="group__parts__3d__enclosure__power__strip.html#ga191779dedf39e4fd769a8dc96b0f8c9e" target="_top" xlink:title="A power strip generator for single gang electrical receptacles.">
<polygon fill="white" stroke="black" points="0,-57.5 0,-76.5 90,-76.5 90,-57.5 0,-57.5"/>
<text text-anchor="middle" x="45" y="-64.5" font-family="Helvetica,sans-Serif" font-size="10.00">power_strip_sg</text>
</a>
</g>
</g>
<!-- Node2&#45;&gt;Node3 -->
<g id="edge2" class="edge">
<title>Node2&#45;&gt;Node3</title>
<path fill="none" stroke="midnightblue" d="M420.45,-148.76C354.55,-155.81 225.79,-162.5 126,-124 97.68,-113.07 70.07,-89.78 55.87,-76.61"/>
<polygon fill="midnightblue" stroke="midnightblue" points="420.93,-152.23 430.48,-147.64 420.15,-145.28 420.93,-152.23"/>
</g>
<!-- Node5 -->
<g id="node5" class="node">
<title>Node5</title>
<g id="a_node5"><a xlink:href="group__shapes__polygon.html#gad85d14f73179499777da1e9297fbcae8" target="_top" xlink:title="A polygon triangle specified by angle&#45;angle&#45;size with vertex rounding.">
<polygon fill="white" stroke="black" points="287,-114.5 287,-133.5 381,-133.5 381,-114.5 287,-114.5"/>
<text text-anchor="middle" x="334" y="-121.5" font-family="Helvetica,sans-Serif" font-size="10.00">pg_triangle_aas</text>
</a>
</g>
</g>
<!-- Node4&#45;&gt;Node5 -->
<g id="edge4" class="edge">
<title>Node4&#45;&gt;Node5</title>
<path fill="none" stroke="midnightblue" d="M421.11,-98.54C403.63,-103.7 383.7,-109.6 367.42,-114.41"/>
<polygon fill="midnightblue" stroke="midnightblue" points="422.48,-101.78 431.07,-95.59 420.49,-95.07 422.48,-101.78"/>
</g>
<!-- Node6 -->
<g id="node6" class="node">
<title>Node6</title>
<g id="a_node6"><a xlink:href="group__shapes__polygon.html#ga45e8a17aef3dd6755f833f25a8937cf7" target="_top" xlink:title="A polygon triangle specified by angle&#45;size&#45;angle with vertex rounding.">
<polygon fill="white" stroke="black" points="287,-76.5 287,-95.5 381,-95.5 381,-76.5 287,-76.5"/>
<text text-anchor="middle" x="334" y="-83.5" font-family="Helvetica,sans-Serif" font-size="10.00">pg_triangle_asa</text>
</a>
</g>
</g>
<!-- Node4&#45;&gt;Node6 -->
<g id="edge5" class="edge">
<title>Node4&#45;&gt;Node6</title>
<path fill="none" stroke="midnightblue" d="M406.5,-86C397.99,-86 389.32,-86 381.08,-86"/>
<polygon fill="midnightblue" stroke="midnightblue" points="406.75,-89.5 416.75,-86 406.75,-82.5 406.75,-89.5"/>
</g>
<!-- Node7 -->
<g id="node7" class="node">
<title>Node7</title>
<g id="a_node7"><a xlink:href="group__shapes__polygon.html#ga24be160074502dce7ff8a78361d4b074" target="_top" xlink:title="A polygon triangle specified by size&#45;angle&#45;size with vertex rounding.">
<polygon fill="white" stroke="black" points="287.5,-38.5 287.5,-57.5 380.5,-57.5 380.5,-38.5 287.5,-38.5"/>
<text text-anchor="middle" x="334" y="-45.5" font-family="Helvetica,sans-Serif" font-size="10.00">pg_triangle_sas</text>
</a>
</g>
</g>
<!-- Node4&#45;&gt;Node7 -->
<g id="edge6" class="edge">
<title>Node4&#45;&gt;Node7</title>
<path fill="none" stroke="midnightblue" d="M421.11,-73.46C403.63,-68.3 383.7,-62.4 367.42,-57.59"/>
<polygon fill="midnightblue" stroke="midnightblue" points="420.49,-76.93 431.07,-76.41 422.48,-70.22 420.49,-76.93"/>
</g>
<!-- Node11 -->
<g id="node11" class="node">
<title>Node11</title>
<g id="a_node11"><a xlink:href="group__shapes__polygon.html#gab9843df753e0537b490ac67cec6e31a9" target="_top" xlink:title="A polygon triangle specified by three side lengths with vertex rounding.">
<polygon fill="white" stroke="black" points="288,-0.5 288,-19.5 380,-19.5 380,-0.5 288,-0.5"/>
<text text-anchor="middle" x="334" y="-7.5" font-family="Helvetica,sans-Serif" font-size="10.00">pg_triangle_sss</text>
</a>
</g>
</g>
<!-- Node4&#45;&gt;Node11 -->
<g id="edge12" class="edge">
<title>Node4&#45;&gt;Node11</title>
<path fill="none" stroke="midnightblue" d="M443.25,-70.19C427.01,-57.97 403.32,-41.14 381,-29 374.62,-25.53 367.48,-22.29 360.76,-19.51"/>
<polygon fill="midnightblue" stroke="midnightblue" points="441.38,-73.16 451.45,-76.45 445.62,-67.6 441.38,-73.16"/>
</g>
<!-- Node8 -->
<g id="node8" class="node">
<title>Node8</title>
<g id="a_node8"><a xlink:href="group__parts__3d__enclosure__mounts.html#ga0cbac43259ec43fff7785057277bcef3" target="_top" xlink:title="A screw mount post with screw bore and optional fins.">
<polygon fill="white" stroke="black" points="134.5,-95.5 134.5,-114.5 242.5,-114.5 242.5,-95.5 134.5,-95.5"/>
<text text-anchor="middle" x="188.5" y="-102.5" font-family="Helvetica,sans-Serif" font-size="10.00">mount_screw_post</text>
</a>
</g>
</g>
<!-- Node7&#45;&gt;Node8 -->
<g id="edge7" class="edge">
<title>Node7&#45;&gt;Node8</title>
<path fill="none" stroke="midnightblue" d="M299.05,-61.6C294.97,-63.36 290.87,-65.18 287,-67 270.62,-74.68 267.71,-79.08 251,-86 242.53,-89.51 233.18,-92.72 224.38,-95.46"/>
<polygon fill="midnightblue" stroke="midnightblue" points="300.61,-64.74 308.46,-57.64 297.89,-58.29 300.61,-64.74"/>
</g>
<!-- Node9 -->
<g id="node9" class="node">
<title>Node9</title>
<g id="a_node9"><a xlink:href="group__parts__3d__enclosure__mounts.html#gae1cc60f3ff242fb07c5a50d34be8c051" target="_top" xlink:title="A mount tab with screw hole and support brace.">
<polygon fill="white" stroke="black" points="137,-57.5 137,-76.5 240,-76.5 240,-57.5 137,-57.5"/>
<text text-anchor="middle" x="188.5" y="-64.5" font-family="Helvetica,sans-Serif" font-size="10.00">mount_screw_tab</text>
</a>
</g>
</g>
<!-- Node7&#45;&gt;Node9 -->
<g id="edge8" class="edge">
<title>Node7&#45;&gt;Node9</title>
<path fill="none" stroke="midnightblue" d="M277.13,-55.4C264.93,-57.01 252.07,-58.72 240.09,-60.3"/>
<polygon fill="midnightblue" stroke="midnightblue" points="277.75,-58.85 287.2,-54.06 276.83,-51.91 277.75,-58.85"/>
</g>
<!-- Node10 -->
<g id="node10" class="node">
<title>Node10</title>
<g id="a_node10"><a xlink:href="group__parts__3d__enclosure__project__box__rectangle.html#ga6a5d093d732e65556c46252220f2c4b6" target="_top" xlink:title="A rectangular box maker for project boxes, enclosures and housings.">
<polygon fill="white" stroke="black" points="126,-19.5 126,-38.5 251,-38.5 251,-19.5 126,-19.5"/>
<text text-anchor="middle" x="188.5" y="-26.5" font-family="Helvetica,sans-Serif" font-size="10.00">project_box_rectangle</text>
</a>
</g>
</g>
<!-- Node7&#45;&gt;Node10 -->
<g id="edge10" class="edge">
<title>Node7&#45;&gt;Node10</title>
<path fill="none" stroke="midnightblue" d="M277.02,-40.59C268.52,-39.46 259.71,-38.3 251.1,-37.16"/>
<polygon fill="midnightblue" stroke="midnightblue" points="276.83,-44.09 287.2,-41.94 277.75,-37.15 276.83,-44.09"/>
</g>
<!-- Node9&#45;&gt;Node3 -->
<g id="edge9" class="edge">
<title>Node9&#45;&gt;Node3</title>
<path fill="none" stroke="midnightblue" d="M126.66,-67C114.42,-67 101.78,-67 90.24,-67"/>
<polygon fill="midnightblue" stroke="midnightblue" points="126.81,-70.5 136.81,-67 126.81,-63.5 126.81,-70.5"/>
</g>
<!-- Node10&#45;&gt;Node3 -->
<g id="edge11" class="edge">
<title>Node10&#45;&gt;Node3</title>
<path fill="none" stroke="midnightblue" d="M141.9,-41.25C122.39,-46.48 99.96,-52.51 81.7,-57.41"/>
<polygon fill="midnightblue" stroke="midnightblue" points="143.04,-44.56 151.79,-38.59 141.23,-37.8 143.04,-44.56"/>
</g>
</g>
</svg>
