<?xml version="1.0" encoding="UTF-8" standalone="no"?>
<!DOCTYPE svg PUBLIC "-//W3C//DTD SVG 1.1//EN"
 "http://www.w3.org/Graphics/SVG/1.1/DTD/svg11.dtd">
<!-- Generated by graphviz version 2.43.0 (0)
 -->
<!-- Title: Iterable Operations Pages: 1 -->
<svg width="331pt" height="36pt"
 viewBox="0.00 0.00 331.00 35.69" xmlns="http://www.w3.org/2000/svg" xmlns:xlink="http://www.w3.org/1999/xlink">
<g id="graph0" class="graph" transform="scale(1 1) rotate(0) translate(4 31.69)">
<title>Iterable Operations</title>
<polygon fill="white" stroke="transparent" points="-4,4 -4,-31.69 327,-31.69 327,4 -4,4"/>
<!-- Node2 -->
<g id="node1" class="node">
<title>Node2</title>
<g id="a_node1"><a xlink:href="group__datatypes.html" target="_top" xlink:title="Data type identification and operations.">
<polygon fill="white" stroke="black" points="71,-27.69 0,-27.69 0,-8.69 71,-8.69 71,-27.69"/>
<text text-anchor="middle" x="35.5" y="-15.69" font-family="Helvetica,sans-Serif" font-size="10.00">Data Types</text>
</a>
</g>
</g>
<!-- Node1 -->
<g id="node2" class="node">
<title>Node1</title>
<g id="a_node2"><a xlink:title="Operations for iterable data types.">
<polygon fill="#bfbfbf" stroke="black" points="323,-27.69 213,-27.69 213,-8.69 323,-8.69 323,-27.69"/>
<text text-anchor="middle" x="268" y="-15.69" font-family="Helvetica,sans-Serif" font-size="10.00">Iterable Operations</text>
</a>
</g>
</g>
<!-- Node2&#45;&gt;Node1 -->
<g id="edge1" class="edge">
<title>Node2&#45;&gt;Node1</title>
<path fill="none" stroke="black" d="M81.17,-18.19C118.84,-18.19 172.86,-18.19 212.96,-18.19"/>
<polygon fill="black" stroke="black" points="81.01,-14.69 71.01,-18.19 81.01,-21.69 81.01,-14.69"/>
</g>
<!-- Node1&#45;&gt;Node2 -->
<g id="edge2" class="edge">
<title>Node1&#45;&gt;Node2</title>
<path fill="none" stroke="darkgreen" stroke-dasharray="5,2" d="M225.32,-8.68C215.43,-6.81 204.89,-5.14 195,-4.19 148.11,0.33 135.71,1.93 89,-4.19 81.7,-5.15 73.98,-6.82 66.77,-8.68"/>
<text text-anchor="middle" x="142" y="-7.19" font-family="Helvetica,sans-Serif" font-size="10.00">iterable_operate.scad</text>
</g>
</g>
</svg>
