<?xml version="1.0" encoding="UTF-8" standalone="no"?>
<!DOCTYPE svg PUBLIC "-//W3C//DTD SVG 1.1//EN"
 "http://www.w3.org/Graphics/SVG/1.1/DTD/svg11.dtd">
<!-- Generated by graphviz version 2.43.0 (0)
 -->
<!-- Title: Binary Numbers Pages: 1 -->
<svg width="265pt" height="34pt"
 viewBox="0.00 0.00 265.00 33.74" xmlns="http://www.w3.org/2000/svg" xmlns:xlink="http://www.w3.org/1999/xlink">
<g id="graph0" class="graph" transform="scale(1 1) rotate(0) translate(4 29.74)">
<title>Binary Numbers</title>
<polygon fill="white" stroke="transparent" points="-4,4 -4,-29.74 261,-29.74 261,4 -4,4"/>
<!-- Node2 -->
<g id="node1" class="node">
<title>Node2</title>
<g id="a_node1"><a xlink:href="group__datatypes.html" target="_top" xlink:title="Data type identification and operations.">
<polygon fill="white" stroke="black" points="71,-25.74 0,-25.74 0,-6.74 71,-6.74 71,-25.74"/>
<text text-anchor="middle" x="35.5" y="-13.74" font-family="Helvetica,sans-Serif" font-size="10.00">Data Types</text>
</a>
</g>
</g>
<!-- Node1 -->
<g id="node2" class="node">
<title>Node1</title>
<g id="a_node2"><a xlink:title="Base&#45;2 binary numbers tests and operations.">
<polygon fill="#bfbfbf" stroke="black" points="257,-25.74 162,-25.74 162,-6.74 257,-6.74 257,-25.74"/>
<text text-anchor="middle" x="209.5" y="-13.74" font-family="Helvetica,sans-Serif" font-size="10.00">Binary Numbers</text>
</a>
</g>
</g>
<!-- Node2&#45;&gt;Node1 -->
<g id="edge1" class="edge">
<title>Node2&#45;&gt;Node1</title>
<path fill="none" stroke="black" d="M81.49,-16.24C106.16,-16.24 136.72,-16.24 161.68,-16.24"/>
<polygon fill="black" stroke="black" points="81.31,-12.74 71.31,-16.24 81.31,-19.74 81.31,-12.74"/>
</g>
<!-- Node1&#45;&gt;Node2 -->
<g id="edge2" class="edge">
<title>Node1&#45;&gt;Node2</title>
<path fill="none" stroke="darkgreen" stroke-dasharray="5,2" d="M171.2,-6.73C162.35,-4.87 152.89,-3.19 144,-2.24 119.7,0.37 113.24,0.94 89,-2.24 81.7,-3.2 73.98,-4.87 66.77,-6.73"/>
<text text-anchor="middle" x="116.5" y="-5.24" font-family="Helvetica,sans-Serif" font-size="10.00">binary.scad</text>
</g>
</g>
</svg>
