<?xml version="1.0" encoding="UTF-8" standalone="no"?>
<!DOCTYPE svg PUBLIC "-//W3C//DTD SVG 1.1//EN"
 "http://www.w3.org/Graphics/SVG/1.1/DTD/svg11.dtd">
<!-- Generated by graphviz version 2.43.0 (0)
 -->
<!-- Title: Repeat Pages: 1 -->
<svg width="194pt" height="29pt"
 viewBox="0.00 0.00 194.00 28.50" xmlns="http://www.w3.org/2000/svg" xmlns:xlink="http://www.w3.org/1999/xlink">
<g id="graph0" class="graph" transform="scale(1 1) rotate(0) translate(4 24.5)">
<title>Repeat</title>
<polygon fill="white" stroke="transparent" points="-4,4 -4,-24.5 190,-24.5 190,4 -4,4"/>
<!-- Node1 -->
<g id="node1" class="node">
<title>Node1</title>
<g id="a_node1"><a xlink:title="Shape repetition tools.">
<polygon fill="#bfbfbf" stroke="black" points="51,-19 0,-19 0,0 51,0 51,-19"/>
<text text-anchor="middle" x="25.5" y="-7" font-family="Helvetica,sans-Serif" font-size="10.00">Repeat</text>
</a>
</g>
</g>
<!-- Node2 -->
<g id="node2" class="node">
<title>Node2</title>
<g id="a_node2"><a xlink:href="group__tools.html" target="_top" xlink:title="Tools and design components.">
<polygon fill="white" stroke="black" points="186,-19 145,-19 145,0 186,0 186,-19"/>
<text text-anchor="middle" x="165.5" y="-7" font-family="Helvetica,sans-Serif" font-size="10.00">Tools</text>
</a>
</g>
</g>
<!-- Node1&#45;&gt;Node2 -->
<g id="edge2" class="edge">
<title>Node1&#45;&gt;Node2</title>
<path fill="none" stroke="darkgreen" stroke-dasharray="5,2" d="M51.17,-9.5C78,-9.5 120.32,-9.5 144.95,-9.5"/>
<text text-anchor="middle" x="98" y="-12.5" font-family="Helvetica,sans-Serif" font-size="10.00">repeat.scad</text>
</g>
<!-- Node2&#45;&gt;Node1 -->
<g id="edge1" class="edge">
<title>Node2&#45;&gt;Node1</title>
<path fill="none" stroke="black" d="M134.44,-7.76C131.93,-7.65 129.42,-7.56 127,-7.5 101.23,-6.81 94.77,-6.89 69,-7.5 63.24,-7.64 57.04,-7.87 51.21,-8.14"/>
<polygon fill="black" stroke="black" points="134.5,-11.26 144.66,-8.24 134.84,-4.27 134.5,-11.26"/>
</g>
</g>
</svg>
