<?xml version="1.0" encoding="UTF-8" standalone="no"?>
<!DOCTYPE svg PUBLIC "-//W3C//DTD SVG 1.1//EN"
 "http://www.w3.org/Graphics/SVG/1.1/DTD/svg11.dtd">
<!-- Generated by graphviz version 2.43.0 (0)
 -->
<!-- Title: Database Pages: 1 -->
<svg width="180pt" height="64pt"
 viewBox="0.00 0.00 180.00 64.00" xmlns="http://www.w3.org/2000/svg" xmlns:xlink="http://www.w3.org/1999/xlink">
<g id="graph0" class="graph" transform="scale(1 1) rotate(0) translate(4 60)">
<title>Database</title>
<polygon fill="white" stroke="transparent" points="-4,4 -4,-60 176,-60 176,4 -4,4"/>
<!-- Node1 -->
<g id="node1" class="node">
<title>Node1</title>
<g id="a_node1"><a xlink:title="Design data and specifications.">
<polygon fill="#bfbfbf" stroke="black" points="63,-37 0,-37 0,-18 63,-18 63,-37"/>
<text text-anchor="middle" x="31.5" y="-25" font-family="Helvetica,sans-Serif" font-size="10.00">Database</text>
</a>
</g>
</g>
<!-- Node2 -->
<g id="node2" class="node">
<title>Node2</title>
<g id="a_node2"><a xlink:href="group__database__component.html" target="_top" xlink:title="Design component specifications.">
<polygon fill="white" stroke="black" points="172,-56 99,-56 99,-37 172,-37 172,-56"/>
<text text-anchor="middle" x="135.5" y="-44" font-family="Helvetica,sans-Serif" font-size="10.00">Component</text>
</a>
</g>
</g>
<!-- Node1&#45;&gt;Node2 -->
<g id="edge1" class="edge">
<title>Node1&#45;&gt;Node2</title>
<path fill="none" stroke="black" d="M73.21,-35.08C81.7,-36.67 90.6,-38.32 98.9,-39.87"/>
<polygon fill="black" stroke="black" points="73.58,-31.59 63.1,-33.2 72.29,-38.47 73.58,-31.59"/>
</g>
<!-- Node3 -->
<g id="node3" class="node">
<title>Node3</title>
<g id="a_node3"><a xlink:href="group__database__geometry.html" target="_top" xlink:title="Geometric shape specifications.">
<polygon fill="white" stroke="black" points="168,-19 103,-19 103,0 168,0 168,-19"/>
<text text-anchor="middle" x="135.5" y="-7" font-family="Helvetica,sans-Serif" font-size="10.00">Geometry</text>
</a>
</g>
</g>
<!-- Node1&#45;&gt;Node3 -->
<g id="edge2" class="edge">
<title>Node1&#45;&gt;Node3</title>
<path fill="none" stroke="black" d="M73.14,-20.33C83.03,-18.58 93.46,-16.74 102.86,-15.08"/>
<polygon fill="black" stroke="black" points="72.34,-16.91 63.1,-22.1 73.56,-23.81 72.34,-16.91"/>
</g>
</g>
</svg>
