<?xml version="1.0" encoding="UTF-8" standalone="no"?>
<!DOCTYPE svg PUBLIC "-//W3C//DTD SVG 1.1//EN"
 "http://www.w3.org/Graphics/SVG/1.1/DTD/svg11.dtd">
<!-- Generated by graphviz version 2.43.0 (0)
 -->
<!-- Title: clamp_cg Pages: 1 -->
<svg width="539pt" height="712pt"
 viewBox="0.00 0.00 539.00 712.00" xmlns="http://www.w3.org/2000/svg" xmlns:xlink="http://www.w3.org/1999/xlink">
<g id="graph0" class="graph" transform="scale(1 1) rotate(0) translate(4 708)">
<title>clamp_cg</title>
<polygon fill="white" stroke="transparent" points="-4,4 -4,-708 535,-708 535,4 -4,4"/>
<!-- Node1 -->
<g id="node1" class="node">
<title>Node1</title>
<g id="a_node1"><a xlink:title="A clamp, bushing, and/or grip for wire/hose wall penetrations.">
<polygon fill="#bfbfbf" stroke="black" points="0,-285.5 0,-304.5 63,-304.5 63,-285.5 0,-285.5"/>
<text text-anchor="middle" x="31.5" y="-292.5" font-family="Helvetica,sans-Serif" font-size="10.00">clamp_cg</text>
</a>
</g>
</g>
<!-- Node2 -->
<g id="node2" class="node">
<title>Node2</title>
<g id="a_node2"><a xlink:href="group__datatypes__binary.html#ga7ce4ed94d9b389ff817ea219918b8732" target="_top" xlink:title="Test if a binary bit position of an integer value equals a test bit.">
<polygon fill="white" stroke="black" points="278.5,-342.5 278.5,-361.5 357.5,-361.5 357.5,-342.5 278.5,-342.5"/>
<text text-anchor="middle" x="318" y="-349.5" font-family="Helvetica,sans-Serif" font-size="10.00">binary_bit_is</text>
</a>
</g>
</g>
<!-- Node1&#45;&gt;Node2 -->
<g id="edge1" class="edge">
<title>Node1&#45;&gt;Node2</title>
<path fill="none" stroke="midnightblue" d="M63.11,-304.48C74.34,-307.76 87.18,-311.29 99,-314 156.67,-327.23 223.85,-338.29 268.22,-345.01"/>
<polygon fill="midnightblue" stroke="midnightblue" points="267.75,-348.48 278.16,-346.5 268.79,-341.55 267.75,-348.48"/>
</g>
<!-- Node3 -->
<g id="node3" class="node">
<title>Node3</title>
<g id="a_node3"><a xlink:href="group__shapes__basic__3d.html#ga8a71b8cd52ae5ef7a2510ff579734108" target="_top" xlink:title="A cone.">
<polygon fill="white" stroke="black" points="135.5,-437.5 135.5,-456.5 175.5,-456.5 175.5,-437.5 135.5,-437.5"/>
<text text-anchor="middle" x="155.5" y="-444.5" font-family="Helvetica,sans-Serif" font-size="10.00">cone</text>
</a>
</g>
</g>
<!-- Node1&#45;&gt;Node3 -->
<g id="edge2" class="edge">
<title>Node1&#45;&gt;Node3</title>
<path fill="none" stroke="midnightblue" d="M40.13,-304.51C60.16,-329.46 114.45,-397.11 140.37,-429.39"/>
<polygon fill="midnightblue" stroke="midnightblue" points="137.88,-431.89 146.87,-437.5 143.34,-427.51 137.88,-431.89"/>
</g>
<!-- Node5 -->
<g id="node5" class="node">
<title>Node5</title>
<g id="a_node5"><a xlink:href="group__datatypes__iterable__operate.html#ga3d37c2b0067d1661724bd89955c8f6ce" target="_top" xlink:title="Return an element of an iterable when it exists or a default value otherwise.">
<polygon fill="white" stroke="black" points="438,-247.5 438,-266.5 517,-266.5 517,-247.5 438,-247.5"/>
<text text-anchor="middle" x="477.5" y="-254.5" font-family="Helvetica,sans-Serif" font-size="10.00">defined_e_or</text>
</a>
</g>
</g>
<!-- Node1&#45;&gt;Node5 -->
<g id="edge8" class="edge">
<title>Node1&#45;&gt;Node5</title>
<path fill="none" stroke="midnightblue" d="M61.34,-285.41C72.92,-281.92 86.48,-278.27 99,-276 215.47,-254.89 355.23,-254.09 427.63,-255.47"/>
<polygon fill="midnightblue" stroke="midnightblue" points="427.74,-258.97 437.81,-255.68 427.89,-251.97 427.74,-258.97"/>
</g>
<!-- Node6 -->
<g id="node6" class="node">
<title>Node6</title>
<g id="a_node6"><a xlink:href="group__datatypes__scalar__test.html#ga51d7fdb800c10f4b7479d23b89ab8d22" target="_top" xlink:title="Test if a value is defined.">
<polygon fill="white" stroke="black" points="285,-532.5 285,-551.5 351,-551.5 351,-532.5 285,-532.5"/>
<text text-anchor="middle" x="318" y="-539.5" font-family="Helvetica,sans-Serif" font-size="10.00">is_defined</text>
</a>
</g>
</g>
<!-- Node1&#45;&gt;Node6 -->
<g id="edge24" class="edge">
<title>Node1&#45;&gt;Node6</title>
<path fill="none" stroke="midnightblue" d="M32.43,-304.53C32.73,-337.33 38.44,-446.48 99,-500 147.57,-542.92 226.39,-547.58 274.77,-545.72"/>
<polygon fill="midnightblue" stroke="midnightblue" points="275.09,-549.21 284.9,-545.22 274.74,-542.22 275.09,-549.21"/>
</g>
<!-- Node7 -->
<g id="node7" class="node">
<title>Node7</title>
<g id="a_node7"><a xlink:href="group__math__polygon.html#ga7a0eff64929a142fc507615f83e3bd58" target="_top" xlink:title="Compute coordinates that round all of the vertices between each adjacent edges in 2D.">
<polygon fill="white" stroke="black" points="248,-494.5 248,-513.5 388,-513.5 388,-494.5 248,-494.5"/>
<text text-anchor="middle" x="318" y="-501.5" font-family="Helvetica,sans-Serif" font-size="10.00">polygon_round_eve_all_p</text>
</a>
</g>
</g>
<!-- Node1&#45;&gt;Node7 -->
<g id="edge25" class="edge">
<title>Node1&#45;&gt;Node7</title>
<path fill="none" stroke="midnightblue" d="M33.09,-304.63C35.44,-334.02 46.76,-423.21 99,-466 137.41,-497.46 192.59,-506.84 237.82,-508.42"/>
<polygon fill="midnightblue" stroke="midnightblue" points="237.83,-511.92 247.9,-508.65 237.99,-504.92 237.83,-511.92"/>
</g>
<!-- Node9 -->
<g id="node9" class="node">
<title>Node9</title>
<g id="a_node9"><a xlink:href="group__tools__extrude.html#ga45661244067bf945b684550c3263ee45" target="_top" xlink:title="Linearly extrude a 2d shape with multi&#45;segment uniformly&#45;spaced profile scaling.">
<polygon fill="white" stroke="black" points="99,-608.5 99,-627.5 212,-627.5 212,-608.5 99,-608.5"/>
<text text-anchor="middle" x="155.5" y="-615.5" font-family="Helvetica,sans-Serif" font-size="10.00">extrude_linear_mss</text>
</a>
</g>
</g>
<!-- Node1&#45;&gt;Node9 -->
<g id="edge9" class="edge">
<title>Node1&#45;&gt;Node9</title>
<path fill="none" stroke="midnightblue" d="M33.29,-304.6C36.54,-340.03 51.04,-466.05 99,-556 108.25,-573.36 123.37,-589.79 135.49,-601.37"/>
<polygon fill="midnightblue" stroke="midnightblue" points="133.21,-604.03 142.93,-608.25 137.96,-598.89 133.21,-604.03"/>
</g>
<!-- Node15 -->
<g id="node15" class="node">
<title>Node15</title>
<g id="a_node15"><a xlink:href="group__tools__extrude.html#ga78405b5fa18461a302a2f24646499ece" target="_top" xlink:title="Translate, rotate, and revolve a 2d shape about the z&#45;axis with linear elongation.">
<polygon fill="white" stroke="black" points="103.5,-285.5 103.5,-304.5 207.5,-304.5 207.5,-285.5 103.5,-285.5"/>
<text text-anchor="middle" x="155.5" y="-292.5" font-family="Helvetica,sans-Serif" font-size="10.00">extrude_rotate_trl</text>
</a>
</g>
</g>
<!-- Node1&#45;&gt;Node15 -->
<g id="edge18" class="edge">
<title>Node1&#45;&gt;Node15</title>
<path fill="none" stroke="midnightblue" d="M63.29,-295C72.39,-295 82.7,-295 93.03,-295"/>
<polygon fill="midnightblue" stroke="midnightblue" points="93.31,-298.5 103.31,-295 93.31,-291.5 93.31,-298.5"/>
</g>
<!-- Node17 -->
<g id="node17" class="node">
<title>Node17</title>
<g id="a_node17"><a xlink:href="group__tools__repeat.html#ga543a7c0b4c744d98e6197036da5681fe" target="_top" xlink:title="Radially repeat copies of child objects about a z&#45;axis radius.">
<polygon fill="white" stroke="black" points="277.5,-76.5 277.5,-95.5 358.5,-95.5 358.5,-76.5 277.5,-76.5"/>
<text text-anchor="middle" x="318" y="-83.5" font-family="Helvetica,sans-Serif" font-size="10.00">repeat_radial</text>
</a>
</g>
</g>
<!-- Node1&#45;&gt;Node17 -->
<g id="edge26" class="edge">
<title>Node1&#45;&gt;Node17</title>
<path fill="none" stroke="midnightblue" d="M33.77,-285.47C37.87,-258.67 53.23,-182.11 99,-143 146.24,-102.63 218.79,-90.42 267.05,-86.96"/>
<polygon fill="midnightblue" stroke="midnightblue" points="267.49,-90.44 277.26,-86.33 267.07,-83.45 267.49,-90.44"/>
</g>
<!-- Node20 -->
<g id="node20" class="node">
<title>Node20</title>
<g id="a_node20"><a xlink:href="group__datatypes__iterable__operate.html#gafb1f112a3ab162d589c49d1b2de21b9e" target="_top" xlink:title="Reverse the elements of an iterable value.">
<polygon fill="white" stroke="black" points="129,-152.5 129,-171.5 182,-171.5 182,-152.5 129,-152.5"/>
<text text-anchor="middle" x="155.5" y="-159.5" font-family="Helvetica,sans-Serif" font-size="10.00">reverse</text>
</a>
</g>
</g>
<!-- Node1&#45;&gt;Node20 -->
<g id="edge30" class="edge">
<title>Node1&#45;&gt;Node20</title>
<path fill="none" stroke="midnightblue" d="M35.97,-285.5C43.99,-264.75 65.71,-214.94 99,-186 104.88,-180.89 112.02,-176.72 119.19,-173.38"/>
<polygon fill="midnightblue" stroke="midnightblue" points="121,-176.42 128.88,-169.33 118.3,-169.96 121,-176.42"/>
</g>
<!-- Node21 -->
<g id="node21" class="node">
<title>Node21</title>
<g id="a_node21"><a xlink:href="group__shapes__basic__2d.html#ga89c8cb6f39cf9b045091f8b0434b25d0" target="_top" xlink:title="A rhombus.">
<polygon fill="white" stroke="black" points="288.5,-152.5 288.5,-171.5 347.5,-171.5 347.5,-152.5 288.5,-152.5"/>
<text text-anchor="middle" x="318" y="-159.5" font-family="Helvetica,sans-Serif" font-size="10.00">rhombus</text>
</a>
</g>
</g>
<!-- Node1&#45;&gt;Node21 -->
<g id="edge31" class="edge">
<title>Node1&#45;&gt;Node21</title>
<path fill="none" stroke="midnightblue" d="M39.03,-285.16C49.74,-269.81 72.5,-240.23 99,-224 129.1,-205.56 224.11,-182.51 278.24,-170.37"/>
<polygon fill="midnightblue" stroke="midnightblue" points="279.17,-173.75 288.17,-168.17 277.65,-166.92 279.17,-173.75"/>
</g>
<!-- Node22 -->
<g id="node22" class="node">
<title>Node22</title>
<g id="a_node22"><a xlink:href="group__models__3d__fastener__screws.html#ga57dcfe1241e15eaa58ccd08891504a93" target="_top" xlink:title="Flat and beveled&#45;head fastener bore with nut, nut slot, and bore tolerance.">
<polygon fill="white" stroke="black" points="119.5,-48.5 119.5,-67.5 191.5,-67.5 191.5,-48.5 119.5,-48.5"/>
<text text-anchor="middle" x="155.5" y="-55.5" font-family="Helvetica,sans-Serif" font-size="10.00">screw_bore</text>
</a>
</g>
</g>
<!-- Node1&#45;&gt;Node22 -->
<g id="edge35" class="edge">
<title>Node1&#45;&gt;Node22</title>
<path fill="none" stroke="midnightblue" d="M33.83,-285.22C38.3,-255.15 55.09,-162.39 99,-101 106.87,-90 118.34,-80.46 128.81,-73.18"/>
<polygon fill="midnightblue" stroke="midnightblue" points="130.84,-76.03 137.28,-67.61 127,-70.18 130.84,-76.03"/>
</g>
<!-- Node4 -->
<g id="node4" class="node">
<title>Node4</title>
<g id="a_node4"><a xlink:href="group__units__angle.html#ga06a917b77748dfb74e765bcd7c4c0219" target="_top" xlink:title="Convert an angle from some units to another.">
<polygon fill="white" stroke="black" points="455.5,-190.5 455.5,-209.5 499.5,-209.5 499.5,-190.5 455.5,-190.5"/>
<text text-anchor="middle" x="477.5" y="-197.5" font-family="Helvetica,sans-Serif" font-size="10.00">angle</text>
</a>
</g>
</g>
<!-- Node3&#45;&gt;Node4 -->
<g id="edge3" class="edge">
<title>Node3&#45;&gt;Node4</title>
<path fill="none" stroke="midnightblue" d="M173.93,-437.47C192,-427.91 221.32,-413.3 248,-404 308.37,-382.96 342.06,-415.45 388,-371 432.01,-328.42 389.2,-288.39 424,-238 430.4,-228.74 439.81,-220.91 448.9,-214.81"/>
<polygon fill="midnightblue" stroke="midnightblue" points="450.78,-217.77 457.42,-209.51 447.08,-211.83 450.78,-217.77"/>
</g>
<!-- Node3&#45;&gt;Node5 -->
<g id="edge4" class="edge">
<title>Node3&#45;&gt;Node5</title>
<path fill="none" stroke="midnightblue" d="M175.58,-445.47C224.58,-441.22 353.4,-427.99 388,-404 433.75,-372.28 459.86,-308.54 470.63,-276.43"/>
<polygon fill="midnightblue" stroke="midnightblue" points="473.99,-277.43 473.7,-266.84 467.32,-275.3 473.99,-277.43"/>
</g>
<!-- Node3&#45;&gt;Node6 -->
<g id="edge5" class="edge">
<title>Node3&#45;&gt;Node6</title>
<path fill="none" stroke="midnightblue" d="M165.4,-456.69C180.72,-472.82 213.76,-505.14 248,-523 256.33,-527.35 265.76,-530.78 274.92,-533.47"/>
<polygon fill="midnightblue" stroke="midnightblue" points="274.11,-536.88 284.68,-536.1 275.93,-530.12 274.11,-536.88"/>
</g>
<!-- Node3&#45;&gt;Node7 -->
<g id="edge6" class="edge">
<title>Node3&#45;&gt;Node7</title>
<path fill="none" stroke="midnightblue" d="M175.51,-455.71C193.83,-463.92 222.46,-476.22 248,-485 254.87,-487.36 262.19,-489.63 269.41,-491.74"/>
<polygon fill="midnightblue" stroke="midnightblue" points="268.56,-495.13 279.14,-494.49 270.47,-488.4 268.56,-495.13"/>
</g>
<!-- Node8 -->
<g id="node8" class="node">
<title>Node8</title>
<g id="a_node8"><a xlink:href="group__math__triangle.html#gaab9b812d15418fd05c9d93f3bfcc1989" target="_top" xlink:title="Compute a set of vertex coordinates for a triangle given its side lengths in 2D.">
<polygon fill="white" stroke="black" points="262.5,-456.5 262.5,-475.5 373.5,-475.5 373.5,-456.5 262.5,-456.5"/>
<text text-anchor="middle" x="318" y="-463.5" font-family="Helvetica,sans-Serif" font-size="10.00">triangle2d_sss2ppp</text>
</a>
</g>
</g>
<!-- Node3&#45;&gt;Node8 -->
<g id="edge7" class="edge">
<title>Node3&#45;&gt;Node8</title>
<path fill="none" stroke="midnightblue" d="M175.54,-449.25C194.47,-451.5 224.6,-455.06 252.19,-458.33"/>
<polygon fill="midnightblue" stroke="midnightblue" points="251.87,-461.81 262.21,-459.51 252.69,-454.86 251.87,-461.81"/>
</g>
<!-- Node10 -->
<g id="node10" class="node">
<title>Node10</title>
<g id="a_node10"><a xlink:href="group__tools__extrude.html#gab2442cfaf1ad44d6e295ab0979d9e03d" target="_top" xlink:title="Linearly extrude a 2d shape with uniformly&#45;spaced profile scaling.">
<polygon fill="white" stroke="black" points="263.5,-646.5 263.5,-665.5 372.5,-665.5 372.5,-646.5 263.5,-646.5"/>
<text text-anchor="middle" x="318" y="-653.5" font-family="Helvetica,sans-Serif" font-size="10.00">extrude_linear_uss</text>
</a>
</g>
</g>
<!-- Node9&#45;&gt;Node10 -->
<g id="edge10" class="edge">
<title>Node9&#45;&gt;Node10</title>
<path fill="none" stroke="midnightblue" d="M197,-627.59C218.18,-632.6 244.3,-638.79 266.76,-644.11"/>
<polygon fill="midnightblue" stroke="midnightblue" points="266.25,-647.58 276.79,-646.48 267.87,-640.77 266.25,-647.58"/>
</g>
<!-- Node11 -->
<g id="node11" class="node">
<title>Node11</title>
<g id="a_node11"><a xlink:href="group__datatypes__iterable__operate.html#gaccab3e37e43cb1d882713b3f3d6d9e1b" target="_top" xlink:title="Return the first element of an iterable value.">
<polygon fill="white" stroke="black" points="460,-684.5 460,-703.5 495,-703.5 495,-684.5 460,-684.5"/>
<text text-anchor="middle" x="477.5" y="-691.5" font-family="Helvetica,sans-Serif" font-size="10.00">first</text>
</a>
</g>
</g>
<!-- Node9&#45;&gt;Node11 -->
<g id="edge15" class="edge">
<title>Node9&#45;&gt;Node11</title>
<path fill="none" stroke="midnightblue" d="M167.72,-627.51C184.14,-640.79 216.2,-664.46 248,-675 318.02,-698.21 406.39,-697.77 449.86,-695.76"/>
<polygon fill="midnightblue" stroke="midnightblue" points="450.11,-699.25 459.91,-695.23 449.74,-692.26 450.11,-699.25"/>
</g>
<!-- Node12 -->
<g id="node12" class="node">
<title>Node12</title>
<g id="a_node12"><a xlink:href="group__datatypes__scalar__test.html#ga258e8911375d30ff85a6e52df01dc1c5" target="_top" xlink:title="Test if a value is a single non&#45;iterable value.">
<polygon fill="white" stroke="black" points="448,-456.5 448,-475.5 507,-475.5 507,-456.5 448,-456.5"/>
<text text-anchor="middle" x="477.5" y="-463.5" font-family="Helvetica,sans-Serif" font-size="10.00">is_scalar</text>
</a>
</g>
</g>
<!-- Node9&#45;&gt;Node12 -->
<g id="edge16" class="edge">
<title>Node9&#45;&gt;Node12</title>
<path fill="none" stroke="midnightblue" d="M212.47,-626.42C262.07,-631.01 334.68,-630.44 388,-599 432.05,-573.03 458.55,-515.49 469.93,-485.32"/>
<polygon fill="midnightblue" stroke="midnightblue" points="473.36,-486.14 473.45,-475.55 466.77,-483.77 473.36,-486.14"/>
</g>
<!-- Node14 -->
<g id="node14" class="node">
<title>Node14</title>
<g id="a_node14"><a xlink:href="group__datatypes__list__operate.html#gae12565005038993506dc37249e32766d" target="_top" xlink:title="Compute the sum of a list of numbers.">
<polygon fill="white" stroke="black" points="299,-570.5 299,-589.5 337,-589.5 337,-570.5 299,-570.5"/>
<text text-anchor="middle" x="318" y="-577.5" font-family="Helvetica,sans-Serif" font-size="10.00">sum</text>
</a>
</g>
</g>
<!-- Node9&#45;&gt;Node14 -->
<g id="edge17" class="edge">
<title>Node9&#45;&gt;Node14</title>
<path fill="none" stroke="midnightblue" d="M197,-608.41C225.73,-601.61 263.55,-592.65 288.99,-586.63"/>
<polygon fill="midnightblue" stroke="midnightblue" points="289.82,-590.03 298.74,-584.32 288.21,-583.22 289.82,-590.03"/>
</g>
<!-- Node10&#45;&gt;Node5 -->
<g id="edge11" class="edge">
<title>Node10&#45;&gt;Node5</title>
<path fill="none" stroke="midnightblue" d="M336.2,-646.31C352.08,-636.46 375.12,-619.71 388,-599 424.67,-540.05 406.75,-514.25 424,-447 440.03,-384.48 460.94,-310.96 470.83,-276.58"/>
<polygon fill="midnightblue" stroke="midnightblue" points="474.23,-277.43 473.64,-266.86 467.5,-275.49 474.23,-277.43"/>
</g>
<!-- Node10&#45;&gt;Node11 -->
<g id="edge12" class="edge">
<title>Node10&#45;&gt;Node11</title>
<path fill="none" stroke="midnightblue" d="M358.74,-665.59C387.29,-672.48 424.98,-681.57 449.95,-687.59"/>
<polygon fill="midnightblue" stroke="midnightblue" points="449.26,-691.03 459.8,-689.97 450.9,-684.22 449.26,-691.03"/>
</g>
<!-- Node10&#45;&gt;Node12 -->
<g id="edge13" class="edge">
<title>Node10&#45;&gt;Node12</title>
<path fill="none" stroke="midnightblue" d="M362.51,-646.39C371.62,-642.93 380.68,-638.27 388,-632 435.02,-591.76 460.92,-520.14 471.2,-485.64"/>
<polygon fill="midnightblue" stroke="midnightblue" points="474.63,-486.41 474,-475.83 467.89,-484.49 474.63,-486.41"/>
</g>
<!-- Node13 -->
<g id="node13" class="node">
<title>Node13</title>
<g id="a_node13"><a xlink:href="group__datatypes__iterable__operate.html#ga894d4bec62cc9cf38d5e099de3028c54" target="_top" xlink:title="Return the second element of an iterable value.">
<polygon fill="white" stroke="black" points="452,-646.5 452,-665.5 503,-665.5 503,-646.5 452,-646.5"/>
<text text-anchor="middle" x="477.5" y="-653.5" font-family="Helvetica,sans-Serif" font-size="10.00">second</text>
</a>
</g>
</g>
<!-- Node10&#45;&gt;Node13 -->
<g id="edge14" class="edge">
<title>Node10&#45;&gt;Node13</title>
<path fill="none" stroke="midnightblue" d="M372.76,-656C395.53,-656 421.4,-656 441.61,-656"/>
<polygon fill="midnightblue" stroke="midnightblue" points="441.62,-659.5 451.62,-656 441.62,-652.5 441.62,-659.5"/>
</g>
<!-- Node15&#45;&gt;Node2 -->
<g id="edge19" class="edge">
<title>Node15&#45;&gt;Node2</title>
<path fill="none" stroke="midnightblue" d="M182.9,-304.61C201.16,-311.24 226.03,-320.22 248,-328 258.33,-331.66 269.54,-335.58 279.87,-339.17"/>
<polygon fill="midnightblue" stroke="midnightblue" points="278.85,-342.52 289.44,-342.5 281.14,-335.91 278.85,-342.52"/>
</g>
<!-- Node15&#45;&gt;Node5 -->
<g id="edge20" class="edge">
<title>Node15&#45;&gt;Node5</title>
<path fill="none" stroke="midnightblue" d="M207.56,-288.94C267.98,-281.76 367.89,-269.9 427.43,-262.83"/>
<polygon fill="midnightblue" stroke="midnightblue" points="428.18,-266.26 437.7,-261.61 427.36,-259.31 428.18,-266.26"/>
</g>
<!-- Node15&#45;&gt;Node12 -->
<g id="edge23" class="edge">
<title>Node15&#45;&gt;Node12</title>
<path fill="none" stroke="midnightblue" d="M207.59,-292.11C257.47,-291.73 333.59,-297.88 388,-333 430.75,-360.6 457.68,-416.95 469.51,-446.67"/>
<polygon fill="midnightblue" stroke="midnightblue" points="466.35,-448.21 473.18,-456.31 472.89,-445.72 466.35,-448.21"/>
</g>
<!-- Node16 -->
<g id="node16" class="node">
<title>Node16</title>
<g id="a_node16"><a xlink:href="group__tools__extrude.html#ga31947e37a3512d9814d47f8f8c960f84" target="_top" xlink:title="Translate, rotate, and revolve a 2d shape about the z&#45;axis.">
<polygon fill="white" stroke="black" points="267.5,-190.5 267.5,-209.5 368.5,-209.5 368.5,-190.5 267.5,-190.5"/>
<text text-anchor="middle" x="318" y="-197.5" font-family="Helvetica,sans-Serif" font-size="10.00">extrude_rotate_tr</text>
</a>
</g>
</g>
<!-- Node15&#45;&gt;Node16 -->
<g id="edge21" class="edge">
<title>Node15&#45;&gt;Node16</title>
<path fill="none" stroke="midnightblue" d="M172.77,-285.37C200.89,-268.72 258.75,-234.48 292,-214.8"/>
<polygon fill="midnightblue" stroke="midnightblue" points="293.86,-217.76 300.68,-209.66 290.3,-211.74 293.86,-217.76"/>
</g>
<!-- Node16&#45;&gt;Node4 -->
<g id="edge22" class="edge">
<title>Node16&#45;&gt;Node4</title>
<path fill="none" stroke="midnightblue" d="M368.83,-200C393.93,-200 423.57,-200 445.39,-200"/>
<polygon fill="midnightblue" stroke="midnightblue" points="445.42,-203.5 455.42,-200 445.42,-196.5 445.42,-203.5"/>
</g>
<!-- Node17&#45;&gt;Node4 -->
<g id="edge27" class="edge">
<title>Node17&#45;&gt;Node4</title>
<path fill="none" stroke="midnightblue" d="M358.74,-95.09C368.93,-98.64 379.42,-103.48 388,-110 410.38,-127.01 404.33,-141.92 424,-162 432.23,-170.41 442.5,-178.29 451.77,-184.67"/>
<polygon fill="midnightblue" stroke="midnightblue" points="449.98,-187.68 460.24,-190.29 453.85,-181.85 449.98,-187.68"/>
</g>
<!-- Node18 -->
<g id="node18" class="node">
<title>Node18</title>
<g id="a_node18"><a xlink:href="group__datatypes__euclidean.html#ga3d5c07c70f271bcf9144f50ce8620a89" target="_top" xlink:title="Compute the angle between two lines or vectors in a 3d or 2d&#45;space.">
<polygon fill="white" stroke="black" points="450,-133.5 450,-152.5 505,-152.5 505,-133.5 450,-133.5"/>
<text text-anchor="middle" x="477.5" y="-140.5" font-family="Helvetica,sans-Serif" font-size="10.00">angle_ll</text>
</a>
</g>
</g>
<!-- Node17&#45;&gt;Node18 -->
<g id="edge28" class="edge">
<title>Node17&#45;&gt;Node18</title>
<path fill="none" stroke="midnightblue" d="M346.92,-95.55C359.49,-99.9 374.52,-105.14 388,-110 405.76,-116.4 425.44,-123.71 441.72,-129.83"/>
<polygon fill="midnightblue" stroke="midnightblue" points="440.79,-133.22 451.38,-133.46 443.25,-126.66 440.79,-133.22"/>
</g>
<!-- Node19 -->
<g id="node19" class="node">
<title>Node19</title>
<g id="a_node19"><a xlink:href="group__math__polygon.html#ga6aea22d31f8f086c44c7241eee3ab4c2" target="_top" xlink:title="Compute coordinates for an n&#45;sided regular polygon in 2D.">
<polygon fill="white" stroke="black" points="424,-76.5 424,-95.5 531,-95.5 531,-76.5 424,-76.5"/>
<text text-anchor="middle" x="477.5" y="-83.5" font-family="Helvetica,sans-Serif" font-size="10.00">polygon_regular_p</text>
</a>
</g>
</g>
<!-- Node17&#45;&gt;Node19 -->
<g id="edge29" class="edge">
<title>Node17&#45;&gt;Node19</title>
<path fill="none" stroke="midnightblue" d="M358.74,-86C375.43,-86 395.24,-86 413.81,-86"/>
<polygon fill="midnightblue" stroke="midnightblue" points="413.97,-89.5 423.97,-86 413.97,-82.5 413.97,-89.5"/>
</g>
<!-- Node21&#45;&gt;Node5 -->
<g id="edge33" class="edge">
<title>Node21&#45;&gt;Node5</title>
<path fill="none" stroke="midnightblue" d="M347.59,-166.25C360.58,-169.07 375.75,-173.65 388,-181 407.95,-192.97 406.5,-203.67 424,-219 433.11,-226.98 443.83,-234.96 453.21,-241.54"/>
<polygon fill="midnightblue" stroke="midnightblue" points="451.47,-244.59 461.69,-247.37 455.43,-238.82 451.47,-244.59"/>
</g>
<!-- Node21&#45;&gt;Node12 -->
<g id="edge34" class="edge">
<title>Node21&#45;&gt;Node12</title>
<path fill="none" stroke="midnightblue" d="M347.66,-163.61C361.46,-165.81 377.29,-170.63 388,-181 397.96,-190.65 453.18,-383.58 470.97,-446.41"/>
<polygon fill="midnightblue" stroke="midnightblue" points="467.67,-447.58 473.76,-456.25 474.41,-445.68 467.67,-447.58"/>
</g>
<!-- Node21&#45;&gt;Node18 -->
<g id="edge32" class="edge">
<title>Node21&#45;&gt;Node18</title>
<path fill="none" stroke="midnightblue" d="M347.52,-158.56C373.3,-155.45 411.41,-150.85 439.53,-147.46"/>
<polygon fill="midnightblue" stroke="midnightblue" points="440.26,-150.9 449.77,-146.23 439.42,-143.95 440.26,-150.9"/>
</g>
<!-- Node22&#45;&gt;Node5 -->
<g id="edge36" class="edge">
<title>Node22&#45;&gt;Node5</title>
<path fill="none" stroke="midnightblue" d="M172.55,-67.56C190.46,-77.9 220.53,-94.35 248,-105 308.12,-128.3 338.55,-101.63 388,-143 416.66,-166.98 400.11,-190.25 424,-219 431.3,-227.79 441.07,-235.58 450.2,-241.79"/>
<polygon fill="midnightblue" stroke="midnightblue" points="448.36,-244.76 458.66,-247.24 452.15,-238.88 448.36,-244.76"/>
</g>
<!-- Node23 -->
<g id="node23" class="node">
<title>Node23</title>
<g id="a_node23"><a xlink:href="group__datatypes__iterable__operate.html#gaa10da05023bd79eec85459298bc937c2" target="_top" xlink:title="Return the list element or scalar numeric value, if either is defined, otherwise the default value.">
<polygon fill="white" stroke="black" points="272.5,-0.5 272.5,-19.5 363.5,-19.5 363.5,-0.5 272.5,-0.5"/>
<text text-anchor="middle" x="318" y="-7.5" font-family="Helvetica,sans-Serif" font-size="10.00">defined_eon_or</text>
</a>
</g>
</g>
<!-- Node22&#45;&gt;Node23 -->
<g id="edge37" class="edge">
<title>Node22&#45;&gt;Node23</title>
<path fill="none" stroke="midnightblue" d="M185.67,-48.44C203.6,-42.65 227.07,-35.2 248,-29 255.62,-26.74 263.75,-24.43 271.64,-22.22"/>
<polygon fill="midnightblue" stroke="midnightblue" points="272.76,-25.54 281.47,-19.5 270.9,-18.8 272.76,-25.54"/>
</g>
<!-- Node24 -->
<g id="node24" class="node">
<title>Node24</title>
<g id="a_node24"><a xlink:href="group__datatypes__list__operate.html#ga7b8e6f2bbfa72ae61e39377e5ca6b5be" target="_top" xlink:title="Select specified element from list or return a default.">
<polygon fill="white" stroke="black" points="288.5,-38.5 288.5,-57.5 347.5,-57.5 347.5,-38.5 288.5,-38.5"/>
<text text-anchor="middle" x="318" y="-45.5" font-family="Helvetica,sans-Serif" font-size="10.00">select_ci</text>
</a>
</g>
</g>
<!-- Node22&#45;&gt;Node24 -->
<g id="edge38" class="edge">
<title>Node22&#45;&gt;Node24</title>
<path fill="none" stroke="midnightblue" d="M191.72,-55.81C217.3,-54.21 251.91,-52.06 278.26,-50.41"/>
<polygon fill="midnightblue" stroke="midnightblue" points="278.52,-53.9 288.28,-49.79 278.09,-46.92 278.52,-53.9"/>
</g>
</g>
</svg>
