<?xml version="1.0" encoding="UTF-8" standalone="no"?>
<!DOCTYPE svg PUBLIC "-//W3C//DTD SVG 1.1//EN"
 "http://www.w3.org/Graphics/SVG/1.1/DTD/svg11.dtd">
<!-- Generated by graphviz version 2.43.0 (0)
 -->
<!-- Title: draft_ztable_get_zone Pages: 1 -->
<svg width="398pt" height="66pt"
 viewBox="0.00 0.00 398.00 66.00" xmlns="http://www.w3.org/2000/svg" xmlns:xlink="http://www.w3.org/1999/xlink">
<g id="graph0" class="graph" transform="scale(1 1) rotate(0) translate(4 62)">
<title>draft_ztable_get_zone</title>
<polygon fill="white" stroke="transparent" points="-4,4 -4,-62 394,-62 394,4 -4,4"/>
<!-- Node1 -->
<g id="node1" class="node">
<title>Node1</title>
<g id="a_node1"><a xlink:title="Get ztable zone coordinates given a zone index.">
<polygon fill="#bfbfbf" stroke="black" points="266,-19.5 266,-38.5 390,-38.5 390,-19.5 266,-19.5"/>
<text text-anchor="middle" x="328" y="-26.5" font-family="Helvetica,sans-Serif" font-size="10.00">draft_ztable_get_zone</text>
</a>
</g>
</g>
<!-- Node2 -->
<g id="node2" class="node">
<title>Node2</title>
<g id="a_node2"><a xlink:href="group__tools__drafting__operation.html#gabd9d0d4e3819d3bdec5e3649c8ad2c79" target="_top" xlink:title="Construct a text table that is populated by predefined zones.">
<polygon fill="white" stroke="black" points="143.5,-38.5 143.5,-57.5 217.5,-57.5 217.5,-38.5 143.5,-38.5"/>
<text text-anchor="middle" x="180.5" y="-45.5" font-family="Helvetica,sans-Serif" font-size="10.00">draft_ztable</text>
</a>
</g>
</g>
<!-- Node1&#45;&gt;Node2 -->
<g id="edge1" class="edge">
<title>Node1&#45;&gt;Node2</title>
<path fill="none" stroke="midnightblue" d="M255.71,-38.31C242.57,-40.03 229.36,-41.75 217.81,-43.26"/>
<polygon fill="midnightblue" stroke="midnightblue" points="256.25,-41.77 265.72,-37 255.35,-34.83 256.25,-41.77"/>
</g>
<!-- Node4 -->
<g id="node4" class="node">
<title>Node4</title>
<g id="a_node4"><a xlink:href="group__tools__drafting__primitive.html#gaace78d1d977ad068ab277e50a591fde8" target="_top" xlink:title="Add text to ztable at a given zone index.">
<polygon fill="white" stroke="black" points="131,-0.5 131,-19.5 230,-19.5 230,-0.5 131,-0.5"/>
<text text-anchor="middle" x="180.5" y="-7.5" font-family="Helvetica,sans-Serif" font-size="10.00">draft_ztable_text</text>
</a>
</g>
</g>
<!-- Node1&#45;&gt;Node4 -->
<g id="edge3" class="edge">
<title>Node1&#45;&gt;Node4</title>
<path fill="none" stroke="midnightblue" d="M255.69,-19.69C247.11,-18.57 238.5,-17.44 230.35,-16.38"/>
<polygon fill="midnightblue" stroke="midnightblue" points="255.35,-23.17 265.72,-21 256.25,-16.23 255.35,-23.17"/>
</g>
<!-- Node3 -->
<g id="node3" class="node">
<title>Node3</title>
<g id="a_node3"><a xlink:href="group__tools__drafting__operation.html#ga172b76b2027c863e672bc7a84dabea5e" target="_top" xlink:title="Construct a sheet title block.">
<polygon fill="white" stroke="black" points="0,-38.5 0,-57.5 95,-57.5 95,-38.5 0,-38.5"/>
<text text-anchor="middle" x="47.5" y="-45.5" font-family="Helvetica,sans-Serif" font-size="10.00">draft_title_block</text>
</a>
</g>
</g>
<!-- Node2&#45;&gt;Node3 -->
<g id="edge2" class="edge">
<title>Node2&#45;&gt;Node3</title>
<path fill="none" stroke="midnightblue" d="M133.29,-48C120.99,-48 107.68,-48 95.33,-48"/>
<polygon fill="midnightblue" stroke="midnightblue" points="133.36,-51.5 143.36,-48 133.36,-44.5 133.36,-51.5"/>
</g>
</g>
</svg>
