<?xml version="1.0" encoding="UTF-8" standalone="no"?>
<!DOCTYPE svg PUBLIC "-//W3C//DTD SVG 1.1//EN"
 "http://www.w3.org/Graphics/SVG/1.1/DTD/svg11.dtd">
<!-- Generated by graphviz version 2.43.0 (0)
 -->
<!-- Title: table_get_size Pages: 1 -->
<svg width="356pt" height="85pt"
 viewBox="0.00 0.00 356.00 85.00" xmlns="http://www.w3.org/2000/svg" xmlns:xlink="http://www.w3.org/1999/xlink">
<g id="graph0" class="graph" transform="scale(1 1) rotate(0) translate(4 81)">
<title>table_get_size</title>
<polygon fill="white" stroke="transparent" points="-4,4 -4,-81 352,-81 352,4 -4,4"/>
<!-- Node1 -->
<g id="node1" class="node">
<title>Node1</title>
<g id="a_node1"><a xlink:title="Get the size of a table.">
<polygon fill="#bfbfbf" stroke="black" points="261,-19.5 261,-38.5 348,-38.5 348,-19.5 261,-19.5"/>
<text text-anchor="middle" x="304.5" y="-26.5" font-family="Helvetica,sans-Serif" font-size="10.00">table_get_size</text>
</a>
</g>
</g>
<!-- Node2 -->
<g id="node2" class="node">
<title>Node2</title>
<g id="a_node2"><a xlink:href="group__datatypes__table.html#ga8a4429649e8b06d9f492e1a0d2653656" target="_top" xlink:title="Perform basic format checks on a table and output errors to console.">
<polygon fill="white" stroke="black" points="150,-38.5 150,-57.5 225,-57.5 225,-38.5 150,-38.5"/>
<text text-anchor="middle" x="187.5" y="-45.5" font-family="Helvetica,sans-Serif" font-size="10.00">table_check</text>
</a>
</g>
</g>
<!-- Node1&#45;&gt;Node2 -->
<g id="edge1" class="edge">
<title>Node1&#45;&gt;Node2</title>
<path fill="none" stroke="midnightblue" d="M250.71,-37.72C242.13,-39.14 233.41,-40.58 225.32,-41.92"/>
<polygon fill="midnightblue" stroke="midnightblue" points="251.38,-41.16 260.68,-36.07 250.24,-34.25 251.38,-41.16"/>
</g>
<!-- Node5 -->
<g id="node5" class="node">
<title>Node5</title>
<g id="a_node5"><a xlink:href="group__datatypes__table.html#gaafc45abc1b8026ee1518fad87a042be3" target="_top" xlink:title="Dump a table to the console.">
<polygon fill="white" stroke="black" points="150.5,-0.5 150.5,-19.5 224.5,-19.5 224.5,-0.5 150.5,-0.5"/>
<text text-anchor="middle" x="187.5" y="-7.5" font-family="Helvetica,sans-Serif" font-size="10.00">table_dump</text>
</a>
</g>
</g>
<!-- Node1&#45;&gt;Node5 -->
<g id="edge4" class="edge">
<title>Node1&#45;&gt;Node5</title>
<path fill="none" stroke="midnightblue" d="M250.78,-20.29C241.91,-18.82 232.9,-17.33 224.58,-15.96"/>
<polygon fill="midnightblue" stroke="midnightblue" points="250.24,-23.75 260.68,-21.93 251.38,-16.84 250.24,-23.75"/>
</g>
<!-- Node3 -->
<g id="node3" class="node">
<title>Node3</title>
<g id="a_node3"><a xlink:href="group__datatypes__table.html#ga7a45ee72b36421f4e73cfba4488f14be" target="_top" xlink:title="Dump table getter functions to the console.">
<polygon fill="white" stroke="black" points="0,-57.5 0,-76.5 114,-76.5 114,-57.5 0,-57.5"/>
<text text-anchor="middle" x="57" y="-64.5" font-family="Helvetica,sans-Serif" font-size="10.00">table_dump_getters</text>
</a>
</g>
</g>
<!-- Node2&#45;&gt;Node3 -->
<g id="edge2" class="edge">
<title>Node2&#45;&gt;Node3</title>
<path fill="none" stroke="midnightblue" d="M139.6,-54.93C131.44,-56.14 122.87,-57.41 114.48,-58.65"/>
<polygon fill="midnightblue" stroke="midnightblue" points="140.3,-58.37 149.68,-53.44 139.27,-51.45 140.3,-58.37"/>
</g>
<!-- Node4 -->
<g id="node4" class="node">
<title>Node4</title>
<g id="a_node4"><a xlink:href="group__common__validation.html#ga19d0234700fba9de9fb0cba52a3d8e17" target="_top" xlink:title="Test data structure db and output the start of test to the test log.">
<polygon fill="white" stroke="black" points="0,-19.5 0,-38.5 114,-38.5 114,-19.5 0,-19.5"/>
<text text-anchor="middle" x="57" y="-26.5" font-family="Helvetica,sans-Serif" font-size="10.00">table_validate_start</text>
</a>
</g>
</g>
<!-- Node2&#45;&gt;Node4 -->
<g id="edge3" class="edge">
<title>Node2&#45;&gt;Node4</title>
<path fill="none" stroke="midnightblue" d="M139.6,-41.07C131.44,-39.86 122.87,-38.59 114.48,-37.35"/>
<polygon fill="midnightblue" stroke="midnightblue" points="139.27,-44.55 149.68,-42.56 140.3,-37.63 139.27,-44.55"/>
</g>
</g>
</svg>
