<?xml version="1.0" encoding="UTF-8" standalone="no"?>
<!DOCTYPE svg PUBLIC "-//W3C//DTD SVG 1.1//EN"
 "http://www.w3.org/Graphics/SVG/1.1/DTD/svg11.dtd">
<!-- Generated by graphviz version 2.43.0 (0)
 -->
<!-- Title: cone Pages: 1 -->
<svg width="224pt" height="180pt"
 viewBox="0.00 0.00 224.00 180.00" xmlns="http://www.w3.org/2000/svg" xmlns:xlink="http://www.w3.org/1999/xlink">
<g id="graph0" class="graph" transform="scale(1 1) rotate(0) translate(4 176)">
<title>cone</title>
<polygon fill="white" stroke="transparent" points="-4,4 -4,-176 220,-176 220,4 -4,4"/>
<!-- Node1 -->
<g id="node1" class="node">
<title>Node1</title>
<g id="a_node1"><a xlink:title="A cone.">
<polygon fill="#bfbfbf" stroke="black" points="0,-76.5 0,-95.5 40,-95.5 40,-76.5 0,-76.5"/>
<text text-anchor="middle" x="20" y="-83.5" font-family="Helvetica,sans-Serif" font-size="10.00">cone</text>
</a>
</g>
</g>
<!-- Node2 -->
<g id="node2" class="node">
<title>Node2</title>
<g id="a_node2"><a xlink:href="group__units__angle.html#ga06a917b77748dfb74e765bcd7c4c0219" target="_top" xlink:title="Convert an angle from some units to another.">
<polygon fill="white" stroke="black" points="124,-152.5 124,-171.5 168,-171.5 168,-152.5 124,-152.5"/>
<text text-anchor="middle" x="146" y="-159.5" font-family="Helvetica,sans-Serif" font-size="10.00">angle</text>
</a>
</g>
</g>
<!-- Node1&#45;&gt;Node2 -->
<g id="edge1" class="edge">
<title>Node1&#45;&gt;Node2</title>
<path fill="none" stroke="midnightblue" d="M27.66,-95.6C37,-108.33 55.19,-130.64 76,-143 87.52,-149.84 101.57,-154.29 113.98,-157.15"/>
<polygon fill="midnightblue" stroke="midnightblue" points="113.43,-160.61 123.93,-159.19 114.84,-153.75 113.43,-160.61"/>
</g>
<!-- Node3 -->
<g id="node3" class="node">
<title>Node3</title>
<g id="a_node3"><a xlink:href="group__datatypes__iterable__operate.html#ga3d37c2b0067d1661724bd89955c8f6ce" target="_top" xlink:title="Return an element of an iterable when it exists or a default value otherwise.">
<polygon fill="white" stroke="black" points="106.5,-114.5 106.5,-133.5 185.5,-133.5 185.5,-114.5 106.5,-114.5"/>
<text text-anchor="middle" x="146" y="-121.5" font-family="Helvetica,sans-Serif" font-size="10.00">defined_e_or</text>
</a>
</g>
</g>
<!-- Node1&#45;&gt;Node3 -->
<g id="edge2" class="edge">
<title>Node1&#45;&gt;Node3</title>
<path fill="none" stroke="midnightblue" d="M40.25,-92.99C50.76,-96.72 64.04,-101.29 76,-105 83.34,-107.28 91.17,-109.56 98.81,-111.72"/>
<polygon fill="midnightblue" stroke="midnightblue" points="98.13,-115.16 108.7,-114.47 100.01,-108.42 98.13,-115.16"/>
</g>
<!-- Node4 -->
<g id="node4" class="node">
<title>Node4</title>
<g id="a_node4"><a xlink:href="group__datatypes__scalar__test.html#ga51d7fdb800c10f4b7479d23b89ab8d22" target="_top" xlink:title="Test if a value is defined.">
<polygon fill="white" stroke="black" points="113,-76.5 113,-95.5 179,-95.5 179,-76.5 113,-76.5"/>
<text text-anchor="middle" x="146" y="-83.5" font-family="Helvetica,sans-Serif" font-size="10.00">is_defined</text>
</a>
</g>
</g>
<!-- Node1&#45;&gt;Node4 -->
<g id="edge3" class="edge">
<title>Node1&#45;&gt;Node4</title>
<path fill="none" stroke="midnightblue" d="M40.1,-86C56.68,-86 81.29,-86 102.51,-86"/>
<polygon fill="midnightblue" stroke="midnightblue" points="102.6,-89.5 112.6,-86 102.6,-82.5 102.6,-89.5"/>
</g>
<!-- Node5 -->
<g id="node5" class="node">
<title>Node5</title>
<g id="a_node5"><a xlink:href="group__math__polygon.html#ga7a0eff64929a142fc507615f83e3bd58" target="_top" xlink:title="Compute coordinates that round all of the vertices between each adjacent edges in 2D.">
<polygon fill="white" stroke="black" points="76,-38.5 76,-57.5 216,-57.5 216,-38.5 76,-38.5"/>
<text text-anchor="middle" x="146" y="-45.5" font-family="Helvetica,sans-Serif" font-size="10.00">polygon_round_eve_all_p</text>
</a>
</g>
</g>
<!-- Node1&#45;&gt;Node5 -->
<g id="edge4" class="edge">
<title>Node1&#45;&gt;Node5</title>
<path fill="none" stroke="midnightblue" d="M40.25,-79.01C50.76,-75.28 64.04,-70.71 76,-67 83.34,-64.72 91.17,-62.44 98.81,-60.28"/>
<polygon fill="midnightblue" stroke="midnightblue" points="100.01,-63.58 108.7,-57.53 98.13,-56.84 100.01,-63.58"/>
</g>
<!-- Node6 -->
<g id="node6" class="node">
<title>Node6</title>
<g id="a_node6"><a xlink:href="group__math__triangle.html#gaab9b812d15418fd05c9d93f3bfcc1989" target="_top" xlink:title="Compute a set of vertex coordinates for a triangle given its side lengths in 2D.">
<polygon fill="white" stroke="black" points="90.5,-0.5 90.5,-19.5 201.5,-19.5 201.5,-0.5 90.5,-0.5"/>
<text text-anchor="middle" x="146" y="-7.5" font-family="Helvetica,sans-Serif" font-size="10.00">triangle2d_sss2ppp</text>
</a>
</g>
</g>
<!-- Node1&#45;&gt;Node6 -->
<g id="edge5" class="edge">
<title>Node1&#45;&gt;Node6</title>
<path fill="none" stroke="midnightblue" d="M27.66,-76.4C37,-63.67 55.19,-41.36 76,-29 79.67,-26.82 83.59,-24.89 87.63,-23.17"/>
<polygon fill="midnightblue" stroke="midnightblue" points="89.11,-26.35 97.23,-19.54 86.64,-19.8 89.11,-26.35"/>
</g>
</g>
</svg>
