<?xml version="1.0" encoding="UTF-8" standalone="no"?>
<!DOCTYPE svg PUBLIC "-//W3C//DTD SVG 1.1//EN"
 "http://www.w3.org/Graphics/SVG/1.1/DTD/svg11.dtd">
<!-- Generated by graphviz version 2.43.0 (0)
 -->
<!-- Title: ph_db_polyhedron Pages: 1 -->
<svg width="245pt" height="256pt"
 viewBox="0.00 0.00 245.00 256.00" xmlns="http://www.w3.org/2000/svg" xmlns:xlink="http://www.w3.org/1999/xlink">
<g id="graph0" class="graph" transform="scale(1 1) rotate(0) translate(4 252)">
<title>ph_db_polyhedron</title>
<polygon fill="white" stroke="transparent" points="-4,4 -4,-252 241,-252 241,4 -4,4"/>
<!-- Node1 -->
<g id="node1" class="node">
<title>Node1</title>
<g id="a_node1"><a xlink:title="Construct a named polyhedron.">
<polygon fill="#bfbfbf" stroke="black" points="0,-114.5 0,-133.5 106,-133.5 106,-114.5 0,-114.5"/>
<text text-anchor="middle" x="53" y="-121.5" font-family="Helvetica,sans-Serif" font-size="10.00">ph_db_polyhedron</text>
</a>
</g>
</g>
<!-- Node2 -->
<g id="node2" class="node">
<title>Node2</title>
<g id="a_node2"><a xlink:href="group__datatypes__iterable__operate.html#ga3d37c2b0067d1661724bd89955c8f6ce" target="_top" xlink:title="Return an element of an iterable when it exists or a default value otherwise.">
<polygon fill="white" stroke="black" points="150,-228.5 150,-247.5 229,-247.5 229,-228.5 150,-228.5"/>
<text text-anchor="middle" x="189.5" y="-235.5" font-family="Helvetica,sans-Serif" font-size="10.00">defined_e_or</text>
</a>
</g>
</g>
<!-- Node1&#45;&gt;Node2 -->
<g id="edge1" class="edge">
<title>Node1&#45;&gt;Node2</title>
<path fill="none" stroke="midnightblue" d="M60.68,-133.65C74.1,-152.41 106.15,-194.17 142,-219 144.57,-220.78 147.33,-222.43 150.18,-223.96"/>
<polygon fill="midnightblue" stroke="midnightblue" points="148.92,-227.24 159.45,-228.42 151.96,-220.93 148.92,-227.24"/>
</g>
<!-- Node3 -->
<g id="node3" class="node">
<title>Node3</title>
<g id="a_node3"><a xlink:href="group__math__polytope.html#gac5d546b49b09d2da25a6a02da5ef2373" target="_top" xlink:title="Determine the bounding limits of a polytope.">
<polygon fill="white" stroke="black" points="143.5,-190.5 143.5,-209.5 235.5,-209.5 235.5,-190.5 143.5,-190.5"/>
<text text-anchor="middle" x="189.5" y="-197.5" font-family="Helvetica,sans-Serif" font-size="10.00">polytope_limits</text>
</a>
</g>
</g>
<!-- Node1&#45;&gt;Node3 -->
<g id="edge2" class="edge">
<title>Node1&#45;&gt;Node3</title>
<path fill="none" stroke="midnightblue" d="M67.24,-133.7C84.06,-145.76 114.25,-166.51 142,-181 145.55,-182.85 149.32,-184.66 153.13,-186.36"/>
<polygon fill="midnightblue" stroke="midnightblue" points="151.96,-189.67 162.53,-190.39 154.71,-183.23 151.96,-189.67"/>
</g>
<!-- Node4 -->
<g id="node4" class="node">
<title>Node4</title>
<g id="a_node4"><a xlink:href="group__math__linear__algebra.html#gae678bfcdff4ec62e54ab86c569128126" target="_top" xlink:title="Scale all coordinates dimensions proportionately to fit inside a region.">
<polygon fill="white" stroke="black" points="161,-152.5 161,-171.5 218,-171.5 218,-152.5 161,-152.5"/>
<text text-anchor="middle" x="189.5" y="-159.5" font-family="Helvetica,sans-Serif" font-size="10.00">resize_p</text>
</a>
</g>
</g>
<!-- Node1&#45;&gt;Node4 -->
<g id="edge3" class="edge">
<title>Node1&#45;&gt;Node4</title>
<path fill="none" stroke="midnightblue" d="M87.94,-133.59C107.25,-139.04 131.45,-145.88 151.28,-151.48"/>
<polygon fill="midnightblue" stroke="midnightblue" points="150.33,-154.85 160.91,-154.2 152.23,-148.12 150.33,-154.85"/>
</g>
<!-- Node5 -->
<g id="node5" class="node">
<title>Node5</title>
<g id="a_node5"><a xlink:href="group__math__linear__algebra.html#ga79b1895195be5aab9c47a481ec43d79a" target="_top" xlink:title="Rotate all coordinates about one or more axes in 2D or 3D.">
<polygon fill="white" stroke="black" points="161,-114.5 161,-133.5 218,-133.5 218,-114.5 161,-114.5"/>
<text text-anchor="middle" x="189.5" y="-121.5" font-family="Helvetica,sans-Serif" font-size="10.00">rotate_p</text>
</a>
</g>
</g>
<!-- Node1&#45;&gt;Node5 -->
<g id="edge4" class="edge">
<title>Node1&#45;&gt;Node5</title>
<path fill="none" stroke="midnightblue" d="M106,-124C120.85,-124 136.74,-124 150.57,-124"/>
<polygon fill="midnightblue" stroke="midnightblue" points="150.7,-127.5 160.7,-124 150.7,-120.5 150.7,-127.5"/>
</g>
<!-- Node6 -->
<g id="node6" class="node">
<title>Node6</title>
<g id="a_node6"><a xlink:href="group__datatypes__table.html#ga67088801a97d5575ebef698f06e80096" target="_top" xlink:title="Test the existence of a table row identifier, table column identifier, or both.">
<polygon fill="white" stroke="black" points="151.5,-76.5 151.5,-95.5 227.5,-95.5 227.5,-76.5 151.5,-76.5"/>
<text text-anchor="middle" x="189.5" y="-83.5" font-family="Helvetica,sans-Serif" font-size="10.00">table_exists</text>
</a>
</g>
</g>
<!-- Node1&#45;&gt;Node6 -->
<g id="edge5" class="edge">
<title>Node1&#45;&gt;Node6</title>
<path fill="none" stroke="midnightblue" d="M87.94,-114.41C105.22,-109.53 126.43,-103.54 144.91,-98.32"/>
<polygon fill="midnightblue" stroke="midnightblue" points="145.9,-101.67 154.57,-95.59 144,-94.94 145.9,-101.67"/>
</g>
<!-- Node7 -->
<g id="node7" class="node">
<title>Node7</title>
<g id="a_node7"><a xlink:href="group__datatypes__table.html#gaff59353c2a35021843d7a7f34d34eac9" target="_top" xlink:title="Get the table cell value for a specified row and column identifier.">
<polygon fill="white" stroke="black" points="142,-38.5 142,-57.5 237,-57.5 237,-38.5 142,-38.5"/>
<text text-anchor="middle" x="189.5" y="-45.5" font-family="Helvetica,sans-Serif" font-size="10.00">table_get_value</text>
</a>
</g>
</g>
<!-- Node1&#45;&gt;Node7 -->
<g id="edge6" class="edge">
<title>Node1&#45;&gt;Node7</title>
<path fill="none" stroke="midnightblue" d="M67.24,-114.3C84.06,-102.24 114.25,-81.49 142,-67 145.55,-65.15 149.32,-63.34 153.13,-61.64"/>
<polygon fill="midnightblue" stroke="midnightblue" points="154.71,-64.77 162.53,-57.61 151.96,-58.33 154.71,-64.77"/>
</g>
<!-- Node8 -->
<g id="node8" class="node">
<title>Node8</title>
<g id="a_node8"><a xlink:href="group__math__linear__algebra.html#gaeabe74699fd0a437bad9a1d442bfd111" target="_top" xlink:title="Translate all coordinates dimensions.">
<polygon fill="white" stroke="black" points="154,-0.5 154,-19.5 225,-19.5 225,-0.5 154,-0.5"/>
<text text-anchor="middle" x="189.5" y="-7.5" font-family="Helvetica,sans-Serif" font-size="10.00">translate_p</text>
</a>
</g>
</g>
<!-- Node1&#45;&gt;Node8 -->
<g id="edge7" class="edge">
<title>Node1&#45;&gt;Node8</title>
<path fill="none" stroke="midnightblue" d="M60.68,-114.35C74.1,-95.59 106.15,-53.83 142,-29 144.57,-27.22 147.33,-25.57 150.18,-24.04"/>
<polygon fill="midnightblue" stroke="midnightblue" points="151.96,-27.07 159.45,-19.58 148.92,-20.76 151.96,-27.07"/>
</g>
</g>
</svg>
