<?xml version="1.0" encoding="UTF-8" standalone="no"?>
<!DOCTYPE svg PUBLIC "-//W3C//DTD SVG 1.1//EN"
 "http://www.w3.org/Graphics/SVG/1.1/DTD/svg11.dtd">
<!-- Generated by graphviz version 2.43.0 (0)
 -->
<!-- Title: merge_s Pages: 1 -->
<svg width="363pt" height="370pt"
 viewBox="0.00 0.00 363.00 370.00" xmlns="http://www.w3.org/2000/svg" xmlns:xlink="http://www.w3.org/1999/xlink">
<g id="graph0" class="graph" transform="scale(1 1) rotate(0) translate(4 366)">
<title>merge_s</title>
<polygon fill="white" stroke="transparent" points="-4,4 -4,-366 359,-366 359,4 -4,4"/>
<!-- Node1 -->
<g id="node1" class="node">
<title>Node1</title>
<g id="a_node1"><a xlink:title="Serially merge the elements of a list.">
<polygon fill="#bfbfbf" stroke="black" points="296,-95.5 296,-114.5 355,-114.5 355,-95.5 296,-95.5"/>
<text text-anchor="middle" x="325.5" y="-102.5" font-family="Helvetica,sans-Serif" font-size="10.00">merge_s</text>
</a>
</g>
</g>
<!-- Node2 -->
<g id="node2" class="node">
<title>Node2</title>
<g id="a_node2"><a xlink:href="group__tools__drafting__primitive.html#ga060910368142d6371cf4f3f30be7561e" target="_top" xlink:title="Draft a line with configurable style and optional arrowheads.">
<polygon fill="white" stroke="black" points="166.5,-171.5 166.5,-190.5 228.5,-190.5 228.5,-171.5 166.5,-171.5"/>
<text text-anchor="middle" x="197.5" y="-178.5" font-family="Helvetica,sans-Serif" font-size="10.00">draft_line</text>
</a>
</g>
</g>
<!-- Node1&#45;&gt;Node2 -->
<g id="edge1" class="edge">
<title>Node1&#45;&gt;Node2</title>
<path fill="none" stroke="midnightblue" d="M299.87,-119.86C274.54,-135.13 235.85,-158.47 214.33,-171.45"/>
<polygon fill="midnightblue" stroke="midnightblue" points="301.79,-122.79 308.54,-114.63 298.17,-116.79 301.79,-122.79"/>
</g>
<!-- Node12 -->
<g id="node12" class="node">
<title>Node12</title>
<g id="a_node12"><a xlink:href="group__parts__3d__enclosure__project__box__rectangle.html#ga6a5d093d732e65556c46252220f2c4b6" target="_top" xlink:title="A rectangular box maker for project boxes, enclosures and housings.">
<polygon fill="white" stroke="black" points="135,-76.5 135,-95.5 260,-95.5 260,-76.5 135,-76.5"/>
<text text-anchor="middle" x="197.5" y="-83.5" font-family="Helvetica,sans-Serif" font-size="10.00">project_box_rectangle</text>
</a>
</g>
</g>
<!-- Node1&#45;&gt;Node12 -->
<g id="edge11" class="edge">
<title>Node1&#45;&gt;Node12</title>
<path fill="none" stroke="midnightblue" d="M285.95,-99.19C277.78,-97.95 268.95,-96.62 260.16,-95.3"/>
<polygon fill="midnightblue" stroke="midnightblue" points="285.5,-102.66 295.91,-100.69 286.54,-95.74 285.5,-102.66"/>
</g>
<!-- Node3 -->
<g id="node3" class="node">
<title>Node3</title>
<g id="a_node3"><a xlink:href="group__tools__drafting__operation.html#ga4e20419a6d4623f21c05179fc8b6df95" target="_top" xlink:title="Construct drafting sheet axes.">
<polygon fill="white" stroke="black" points="16,-342.5 16,-361.5 83,-361.5 83,-342.5 16,-342.5"/>
<text text-anchor="middle" x="49.5" y="-349.5" font-family="Helvetica,sans-Serif" font-size="10.00">draft_axes</text>
</a>
</g>
</g>
<!-- Node2&#45;&gt;Node3 -->
<g id="edge2" class="edge">
<title>Node2&#45;&gt;Node3</title>
<path fill="none" stroke="midnightblue" d="M188.92,-200.14C175.42,-231.94 144.3,-295.85 99,-333 94.32,-336.84 88.76,-339.97 83.11,-342.51"/>
<polygon fill="midnightblue" stroke="midnightblue" points="192.25,-201.25 192.82,-190.67 185.78,-198.58 192.25,-201.25"/>
</g>
<!-- Node4 -->
<g id="node4" class="node">
<title>Node4</title>
<g id="a_node4"><a xlink:href="group__tools__drafting__dimension.html#ga6b8e17d22ac4a95d25a90be8a74c0689" target="_top" xlink:title="Construct a angular dimension arc.">
<polygon fill="white" stroke="black" points="2,-304.5 2,-323.5 97,-323.5 97,-304.5 2,-304.5"/>
<text text-anchor="middle" x="49.5" y="-311.5" font-family="Helvetica,sans-Serif" font-size="10.00">draft_dim_angle</text>
</a>
</g>
</g>
<!-- Node2&#45;&gt;Node4 -->
<g id="edge3" class="edge">
<title>Node2&#45;&gt;Node4</title>
<path fill="none" stroke="midnightblue" d="M185.2,-199.09C168.92,-223.84 136.63,-268.23 99,-295 93.77,-298.72 87.71,-301.84 81.68,-304.4"/>
<polygon fill="midnightblue" stroke="midnightblue" points="188.17,-200.95 190.64,-190.64 182.28,-197.16 188.17,-200.95"/>
</g>
<!-- Node5 -->
<g id="node5" class="node">
<title>Node5</title>
<g id="a_node5"><a xlink:href="group__tools__drafting__dimension.html#ga4866c090b81b437e2f1f707d28ad8ec7" target="_top" xlink:title="Construct a center mark dimension cross.">
<polygon fill="white" stroke="black" points="0,-266.5 0,-285.5 99,-285.5 99,-266.5 0,-266.5"/>
<text text-anchor="middle" x="49.5" y="-273.5" font-family="Helvetica,sans-Serif" font-size="10.00">draft_dim_center</text>
</a>
</g>
</g>
<!-- Node2&#45;&gt;Node5 -->
<g id="edge4" class="edge">
<title>Node2&#45;&gt;Node5</title>
<path fill="none" stroke="midnightblue" d="M178.95,-197.25C160.24,-213.92 129.22,-239.79 99,-257 92.71,-260.58 85.62,-263.78 78.84,-266.48"/>
<polygon fill="midnightblue" stroke="midnightblue" points="181.33,-199.81 186.4,-190.51 176.63,-194.62 181.33,-199.81"/>
</g>
<!-- Node6 -->
<g id="node6" class="node">
<title>Node6</title>
<g id="a_node6"><a xlink:href="group__tools__drafting__dimension.html#ga5c4915c4c4464c5cdaefd501c2de261d" target="_top" xlink:title="Construct a dimension leader line at a point.">
<polygon fill="white" stroke="black" points="0,-228.5 0,-247.5 99,-247.5 99,-228.5 0,-228.5"/>
<text text-anchor="middle" x="49.5" y="-235.5" font-family="Helvetica,sans-Serif" font-size="10.00">draft_dim_leader</text>
</a>
</g>
</g>
<!-- Node2&#45;&gt;Node6 -->
<g id="edge5" class="edge">
<title>Node2&#45;&gt;Node6</title>
<path fill="none" stroke="midnightblue" d="M162.68,-194.2C135.87,-204.67 99.05,-219.05 75.02,-228.43"/>
<polygon fill="midnightblue" stroke="midnightblue" points="164.02,-197.44 172.06,-190.54 161.47,-190.92 164.02,-197.44"/>
</g>
<!-- Node7 -->
<g id="node7" class="node">
<title>Node7</title>
<g id="a_node7"><a xlink:href="group__tools__drafting__dimension.html#ga27a35e94597435a74e22d76789e9be5e" target="_top" xlink:title="Construct a dimension line between two points.">
<polygon fill="white" stroke="black" points="6.5,-190.5 6.5,-209.5 92.5,-209.5 92.5,-190.5 6.5,-190.5"/>
<text text-anchor="middle" x="49.5" y="-197.5" font-family="Helvetica,sans-Serif" font-size="10.00">draft_dim_line</text>
</a>
</g>
</g>
<!-- Node2&#45;&gt;Node7 -->
<g id="edge6" class="edge">
<title>Node2&#45;&gt;Node7</title>
<path fill="none" stroke="midnightblue" d="M156.31,-186.23C136.52,-188.81 112.66,-191.91 92.61,-194.52"/>
<polygon fill="midnightblue" stroke="midnightblue" points="156.78,-189.7 166.25,-184.94 155.88,-182.76 156.78,-189.7"/>
</g>
<!-- Node8 -->
<g id="node8" class="node">
<title>Node8</title>
<g id="a_node8"><a xlink:href="group__tools__drafting__dimension.html#gaef1a8150a8ef7be88e086fb3dbab64a9" target="_top" xlink:title="Construct a radial dimension line.">
<polygon fill="white" stroke="black" points="0.5,-152.5 0.5,-171.5 98.5,-171.5 98.5,-152.5 0.5,-152.5"/>
<text text-anchor="middle" x="49.5" y="-159.5" font-family="Helvetica,sans-Serif" font-size="10.00">draft_dim_radius</text>
</a>
</g>
</g>
<!-- Node2&#45;&gt;Node8 -->
<g id="edge7" class="edge">
<title>Node2&#45;&gt;Node8</title>
<path fill="none" stroke="midnightblue" d="M156.16,-175.75C138.32,-173.43 117.19,-170.68 98.53,-168.25"/>
<polygon fill="midnightblue" stroke="midnightblue" points="155.88,-179.24 166.25,-177.06 156.78,-172.3 155.88,-179.24"/>
</g>
<!-- Node9 -->
<g id="node9" class="node">
<title>Node9</title>
<g id="a_node9"><a xlink:href="group__tools__drafting__primitive.html#gada1e771ce89ef86b6241c43dc01bf62d" target="_top" xlink:title="Draft a polygon with configurable style.">
<polygon fill="white" stroke="black" points="8,-114.5 8,-133.5 91,-133.5 91,-114.5 8,-114.5"/>
<text text-anchor="middle" x="49.5" y="-121.5" font-family="Helvetica,sans-Serif" font-size="10.00">draft_polygon</text>
</a>
</g>
</g>
<!-- Node2&#45;&gt;Node9 -->
<g id="edge8" class="edge">
<title>Node2&#45;&gt;Node9</title>
<path fill="none" stroke="midnightblue" d="M162.68,-167.8C135.87,-157.33 99.05,-142.95 75.02,-133.57"/>
<polygon fill="midnightblue" stroke="midnightblue" points="161.47,-171.08 172.06,-171.46 164.02,-164.56 161.47,-171.08"/>
</g>
<!-- Node10 -->
<g id="node10" class="node">
<title>Node10</title>
<g id="a_node10"><a xlink:href="group__tools__drafting__primitive.html#ga20eb57e9d25186784df7428089e3a2ae" target="_top" xlink:title="Draft a rectangle with configurable style.">
<polygon fill="white" stroke="black" points="4.5,-76.5 4.5,-95.5 94.5,-95.5 94.5,-76.5 4.5,-76.5"/>
<text text-anchor="middle" x="49.5" y="-83.5" font-family="Helvetica,sans-Serif" font-size="10.00">draft_rectangle</text>
</a>
</g>
</g>
<!-- Node2&#45;&gt;Node10 -->
<g id="edge9" class="edge">
<title>Node2&#45;&gt;Node10</title>
<path fill="none" stroke="midnightblue" d="M178.95,-164.75C160.24,-148.08 129.22,-122.21 99,-105 92.71,-101.42 85.62,-98.22 78.84,-95.52"/>
<polygon fill="midnightblue" stroke="midnightblue" points="176.63,-167.38 186.4,-171.49 181.33,-162.19 176.63,-167.38"/>
</g>
<!-- Node11 -->
<g id="node11" class="node">
<title>Node11</title>
<g id="a_node11"><a xlink:href="group__tools__drafting__operation.html#ga49aac81a903cd453ea9cadc85e84e414" target="_top" xlink:title="Construct a drafting sheet ruler.">
<polygon fill="white" stroke="black" points="16,-38.5 16,-57.5 83,-57.5 83,-38.5 16,-38.5"/>
<text text-anchor="middle" x="49.5" y="-45.5" font-family="Helvetica,sans-Serif" font-size="10.00">draft_ruler</text>
</a>
</g>
</g>
<!-- Node2&#45;&gt;Node11 -->
<g id="edge10" class="edge">
<title>Node2&#45;&gt;Node11</title>
<path fill="none" stroke="midnightblue" d="M182.14,-163.28C157.55,-133.06 109.04,-74.14 99,-67 93.77,-63.28 87.71,-60.16 81.68,-57.6"/>
<polygon fill="midnightblue" stroke="midnightblue" points="179.64,-165.75 188.67,-171.31 185.08,-161.34 179.64,-165.75"/>
</g>
<!-- Node13 -->
<g id="node13" class="node">
<title>Node13</title>
<g id="a_node13"><a xlink:href="group__parts__3d__enclosure__power__strip.html#ga191779dedf39e4fd769a8dc96b0f8c9e" target="_top" xlink:title="A power strip generator for single gang electrical receptacles.">
<polygon fill="white" stroke="black" points="4.5,-0.5 4.5,-19.5 94.5,-19.5 94.5,-0.5 4.5,-0.5"/>
<text text-anchor="middle" x="49.5" y="-7.5" font-family="Helvetica,sans-Serif" font-size="10.00">power_strip_sg</text>
</a>
</g>
</g>
<!-- Node12&#45;&gt;Node13 -->
<g id="edge12" class="edge">
<title>Node12&#45;&gt;Node13</title>
<path fill="none" stroke="midnightblue" d="M173.22,-71C153.81,-58.84 125.2,-41.7 99,-29 92,-25.61 84.23,-22.35 77,-19.52"/>
<polygon fill="midnightblue" stroke="midnightblue" points="171.38,-73.98 181.7,-76.37 175.12,-68.06 171.38,-73.98"/>
</g>
</g>
</svg>
