<?xml version="1.0" encoding="UTF-8" standalone="no"?>
<!DOCTYPE svg PUBLIC "-//W3C//DTD SVG 1.1//EN"
 "http://www.w3.org/Graphics/SVG/1.1/DTD/svg11.dtd">
<!-- Generated by graphviz version 2.43.0 (0)
 -->
<!-- Title: pg_rectangle_rs Pages: 1 -->
<svg width="236pt" height="142pt"
 viewBox="0.00 0.00 236.00 142.00" xmlns="http://www.w3.org/2000/svg" xmlns:xlink="http://www.w3.org/1999/xlink">
<g id="graph0" class="graph" transform="scale(1 1) rotate(0) translate(4 138)">
<title>pg_rectangle_rs</title>
<polygon fill="white" stroke="transparent" points="-4,4 -4,-138 232,-138 232,4 -4,4"/>
<!-- Node1 -->
<g id="node1" class="node">
<title>Node1</title>
<g id="a_node1"><a xlink:title="A polygon rectangle with side rounding.">
<polygon fill="#bfbfbf" stroke="black" points="0,-57.5 0,-76.5 94,-76.5 94,-57.5 0,-57.5"/>
<text text-anchor="middle" x="47" y="-64.5" font-family="Helvetica,sans-Serif" font-size="10.00">pg_rectangle_rs</text>
</a>
</g>
</g>
<!-- Node2 -->
<g id="node2" class="node">
<title>Node2</title>
<g id="a_node2"><a xlink:href="group__datatypes__iterable__operate.html#ga3d37c2b0067d1661724bd89955c8f6ce" target="_top" xlink:title="Return an element of an iterable when it exists or a default value otherwise.">
<polygon fill="white" stroke="black" points="139.5,-114.5 139.5,-133.5 218.5,-133.5 218.5,-114.5 139.5,-114.5"/>
<text text-anchor="middle" x="179" y="-121.5" font-family="Helvetica,sans-Serif" font-size="10.00">defined_e_or</text>
</a>
</g>
</g>
<!-- Node1&#45;&gt;Node2 -->
<g id="edge1" class="edge">
<title>Node1&#45;&gt;Node2</title>
<path fill="none" stroke="midnightblue" d="M67.74,-76.53C84.26,-84.42 108.52,-95.78 130,-105 134.4,-106.89 139.06,-108.82 143.67,-110.69"/>
<polygon fill="midnightblue" stroke="midnightblue" points="142.39,-113.95 152.98,-114.41 144.99,-107.45 142.39,-113.95"/>
</g>
<!-- Node3 -->
<g id="node3" class="node">
<title>Node3</title>
<g id="a_node3"><a xlink:href="group__datatypes__scalar__operate.html#gac119300e8c83de0037f2d0a4d9f0ab5c" target="_top" xlink:title="Return given value, if defined, or a secondary value, if primary is not defined.">
<polygon fill="white" stroke="black" points="145,-76.5 145,-95.5 213,-95.5 213,-76.5 145,-76.5"/>
<text text-anchor="middle" x="179" y="-83.5" font-family="Helvetica,sans-Serif" font-size="10.00">defined_or</text>
</a>
</g>
</g>
<!-- Node1&#45;&gt;Node3 -->
<g id="edge2" class="edge">
<title>Node1&#45;&gt;Node3</title>
<path fill="none" stroke="midnightblue" d="M94.2,-73.75C107.33,-75.67 121.58,-77.75 134.54,-79.65"/>
<polygon fill="midnightblue" stroke="midnightblue" points="134.21,-83.14 144.61,-81.12 135.22,-76.21 134.21,-83.14"/>
</g>
<!-- Node4 -->
<g id="node4" class="node">
<title>Node4</title>
<g id="a_node4"><a xlink:href="group__math__polygon.html#gae2a83d17ce24b669422f4f666c1c3c08" target="_top" xlink:title="Generate list of coordinate points from simple operation step notation.">
<polygon fill="white" stroke="black" points="130,-38.5 130,-57.5 228,-57.5 228,-38.5 130,-38.5"/>
<text text-anchor="middle" x="179" y="-45.5" font-family="Helvetica,sans-Serif" font-size="10.00">polygon_turtle_p</text>
</a>
</g>
</g>
<!-- Node1&#45;&gt;Node4 -->
<g id="edge3" class="edge">
<title>Node1&#45;&gt;Node4</title>
<path fill="none" stroke="midnightblue" d="M94.2,-60.25C102.49,-59.04 111.22,-57.76 119.8,-56.51"/>
<polygon fill="midnightblue" stroke="midnightblue" points="120.36,-59.96 129.75,-55.05 119.35,-53.03 120.36,-59.96"/>
</g>
<!-- Node5 -->
<g id="node5" class="node">
<title>Node5</title>
<g id="a_node5"><a xlink:href="group__math__linear__algebra.html#gaeabe74699fd0a437bad9a1d442bfd111" target="_top" xlink:title="Translate all coordinates dimensions.">
<polygon fill="white" stroke="black" points="143.5,-0.5 143.5,-19.5 214.5,-19.5 214.5,-0.5 143.5,-0.5"/>
<text text-anchor="middle" x="179" y="-7.5" font-family="Helvetica,sans-Serif" font-size="10.00">translate_p</text>
</a>
</g>
</g>
<!-- Node1&#45;&gt;Node5 -->
<g id="edge4" class="edge">
<title>Node1&#45;&gt;Node5</title>
<path fill="none" stroke="midnightblue" d="M67.74,-57.47C84.26,-49.58 108.52,-38.22 130,-29 134.4,-27.11 139.06,-25.18 143.67,-23.31"/>
<polygon fill="midnightblue" stroke="midnightblue" points="144.99,-26.55 152.98,-19.59 142.39,-20.05 144.99,-26.55"/>
</g>
</g>
</svg>
