<?xml version="1.0" encoding="UTF-8" standalone="no"?>
<!DOCTYPE svg PUBLIC "-//W3C//DTD SVG 1.1//EN"
 "http://www.w3.org/Graphics/SVG/1.1/DTD/svg11.dtd">
<!-- Generated by graphviz version 2.43.0 (0)
 -->
<!-- Title: translate_p Pages: 1 -->
<svg width="654pt" height="294pt"
 viewBox="0.00 0.00 654.00 294.00" xmlns="http://www.w3.org/2000/svg" xmlns:xlink="http://www.w3.org/1999/xlink">
<g id="graph0" class="graph" transform="scale(1 1) rotate(0) translate(4 290)">
<title>translate_p</title>
<polygon fill="white" stroke="transparent" points="-4,4 -4,-290 650,-290 650,4 -4,4"/>
<!-- Node1 -->
<g id="node1" class="node">
<title>Node1</title>
<g id="a_node1"><a xlink:title="Translate all coordinates dimensions.">
<polygon fill="#bfbfbf" stroke="black" points="575,-152.5 575,-171.5 646,-171.5 646,-152.5 575,-152.5"/>
<text text-anchor="middle" x="610.5" y="-159.5" font-family="Helvetica,sans-Serif" font-size="10.00">translate_p</text>
</a>
</g>
</g>
<!-- Node2 -->
<g id="node2" class="node">
<title>Node2</title>
<g id="a_node2"><a xlink:href="group__shapes__polygon.html#ga1151092c15142c227983e6bd481872b3" target="_top" xlink:title="A n&#45;sided regular polygon with vertex rounding.">
<polygon fill="white" stroke="black" points="457,-266.5 457,-285.5 515,-285.5 515,-266.5 457,-266.5"/>
<text text-anchor="middle" x="486" y="-273.5" font-family="Helvetica,sans-Serif" font-size="10.00">pg_ngon</text>
</a>
</g>
</g>
<!-- Node1&#45;&gt;Node2 -->
<g id="edge1" class="edge">
<title>Node1&#45;&gt;Node2</title>
<path fill="none" stroke="midnightblue" d="M598.84,-180.33C586.55,-200.17 564.68,-231.68 539,-252 531.59,-257.86 522.52,-262.68 514.04,-266.42"/>
<polygon fill="midnightblue" stroke="midnightblue" points="601.92,-182 604.09,-171.63 595.93,-178.39 601.92,-182"/>
</g>
<!-- Node3 -->
<g id="node3" class="node">
<title>Node3</title>
<g id="a_node3"><a xlink:href="group__shapes__polygon.html#ga9c1bd914355d92f9d66ba0e5c2d9dbac" target="_top" xlink:title="A polygon rectangle with vertex rounding.">
<polygon fill="white" stroke="black" points="302,-228.5 302,-247.5 382,-247.5 382,-228.5 302,-228.5"/>
<text text-anchor="middle" x="342" y="-235.5" font-family="Helvetica,sans-Serif" font-size="10.00">pg_rectangle</text>
</a>
</g>
</g>
<!-- Node1&#45;&gt;Node3 -->
<g id="edge2" class="edge">
<title>Node1&#45;&gt;Node3</title>
<path fill="none" stroke="midnightblue" d="M594.17,-178.95C580.97,-192.32 560.68,-210.13 539,-219 487.74,-239.97 422.87,-242.01 382.14,-240.68"/>
<polygon fill="midnightblue" stroke="midnightblue" points="596.72,-181.35 601.08,-171.7 591.65,-176.53 596.72,-181.35"/>
</g>
<!-- Node11 -->
<g id="node11" class="node">
<title>Node11</title>
<g id="a_node11"><a xlink:href="group__shapes__polygon.html#ga22a29774c22e5cc9f3101ed0a0ed307a" target="_top" xlink:title="A polygon rectangle with side rounding.">
<polygon fill="white" stroke="black" points="439,-190.5 439,-209.5 533,-209.5 533,-190.5 439,-190.5"/>
<text text-anchor="middle" x="486" y="-197.5" font-family="Helvetica,sans-Serif" font-size="10.00">pg_rectangle_rs</text>
</a>
</g>
</g>
<!-- Node1&#45;&gt;Node11 -->
<g id="edge11" class="edge">
<title>Node1&#45;&gt;Node11</title>
<path fill="none" stroke="midnightblue" d="M568.62,-174.68C552.07,-179.81 533.28,-185.64 517.9,-190.41"/>
<polygon fill="midnightblue" stroke="midnightblue" points="570.07,-177.89 578.59,-171.59 568,-171.21 570.07,-177.89"/>
</g>
<!-- Node12 -->
<g id="node12" class="node">
<title>Node12</title>
<g id="a_node12"><a xlink:href="group__shapes__polygon.html#ga2ca38d6942a8955d3b483d1a60bf7ec3" target="_top" xlink:title="A polygon rhombus with vertex rounding.">
<polygon fill="white" stroke="black" points="447.5,-152.5 447.5,-171.5 524.5,-171.5 524.5,-152.5 447.5,-152.5"/>
<text text-anchor="middle" x="486" y="-159.5" font-family="Helvetica,sans-Serif" font-size="10.00">pg_rhombus</text>
</a>
</g>
</g>
<!-- Node1&#45;&gt;Node12 -->
<g id="edge12" class="edge">
<title>Node1&#45;&gt;Node12</title>
<path fill="none" stroke="midnightblue" d="M564.55,-162C551.52,-162 537.42,-162 524.87,-162"/>
<polygon fill="midnightblue" stroke="midnightblue" points="564.72,-165.5 574.72,-162 564.72,-158.5 564.72,-165.5"/>
</g>
<!-- Node13 -->
<g id="node13" class="node">
<title>Node13</title>
<g id="a_node13"><a xlink:href="group__shapes__polygon.html#ga155ae943a1aa91432b1992fd1de364c2" target="_top" xlink:title="A polygon trapezoid with individual vertex rounding and arc facets.">
<polygon fill="white" stroke="black" points="446,-114.5 446,-133.5 526,-133.5 526,-114.5 446,-114.5"/>
<text text-anchor="middle" x="486" y="-121.5" font-family="Helvetica,sans-Serif" font-size="10.00">pg_trapezoid</text>
</a>
</g>
</g>
<!-- Node1&#45;&gt;Node13 -->
<g id="edge13" class="edge">
<title>Node1&#45;&gt;Node13</title>
<path fill="none" stroke="midnightblue" d="M568.62,-149.32C552.07,-144.19 533.28,-138.36 517.9,-133.59"/>
<polygon fill="midnightblue" stroke="midnightblue" points="568,-152.79 578.59,-152.41 570.07,-146.11 568,-152.79"/>
</g>
<!-- Node15 -->
<g id="node15" class="node">
<title>Node15</title>
<g id="a_node15"><a xlink:href="group__shapes__polygon.html#gac7e2c70b3428b729efd86a675df794e6" target="_top" xlink:title="A polygon triangle specified by three coordinate points with vertex rounding.">
<polygon fill="white" stroke="black" points="438.5,-76.5 438.5,-95.5 533.5,-95.5 533.5,-76.5 438.5,-76.5"/>
<text text-anchor="middle" x="486" y="-83.5" font-family="Helvetica,sans-Serif" font-size="10.00">pg_triangle_ppp</text>
</a>
</g>
</g>
<!-- Node1&#45;&gt;Node15 -->
<g id="edge16" class="edge">
<title>Node1&#45;&gt;Node15</title>
<path fill="none" stroke="midnightblue" d="M592.18,-145.25C578.59,-132.83 558.74,-116.17 539,-105 532.56,-101.35 525.29,-98.18 518.27,-95.53"/>
<polygon fill="midnightblue" stroke="midnightblue" points="590.08,-148.08 599.77,-152.35 594.86,-142.97 590.08,-148.08"/>
</g>
<!-- Node20 -->
<g id="node20" class="node">
<title>Node20</title>
<g id="a_node20"><a xlink:href="group__shapes__polyhedron__db.html#gaae64c8fb78026896742050d14a5e8911" target="_top" xlink:title="Construct a named polyhedron.">
<polygon fill="white" stroke="black" points="433,-38.5 433,-57.5 539,-57.5 539,-38.5 433,-38.5"/>
<text text-anchor="middle" x="486" y="-45.5" font-family="Helvetica,sans-Serif" font-size="10.00">ph_db_polyhedron</text>
</a>
</g>
</g>
<!-- Node1&#45;&gt;Node20 -->
<g id="edge24" class="edge">
<title>Node1&#45;&gt;Node20</title>
<path fill="none" stroke="midnightblue" d="M600.11,-143.49C588.46,-122.24 566.7,-87.68 539,-67 533.92,-63.2 528,-60.1 522.01,-57.59"/>
<polygon fill="midnightblue" stroke="midnightblue" points="597.09,-145.27 604.87,-152.47 603.28,-141.99 597.09,-145.27"/>
</g>
<!-- Node4 -->
<g id="node4" class="node">
<title>Node4</title>
<g id="a_node4"><a xlink:href="group__parts__3d__fastener__catch__latch.html#ga26a9933aa6d33599daab1be8d632c430" target="_top" xlink:title="A catch latch generator with configurable profile.">
<polygon fill="white" stroke="black" points="152.5,-228.5 152.5,-247.5 224.5,-247.5 224.5,-228.5 152.5,-228.5"/>
<text text-anchor="middle" x="188.5" y="-235.5" font-family="Helvetica,sans-Serif" font-size="10.00">catch_latch</text>
</a>
</g>
</g>
<!-- Node3&#45;&gt;Node4 -->
<g id="edge3" class="edge">
<title>Node3&#45;&gt;Node4</title>
<path fill="none" stroke="midnightblue" d="M291.84,-238C269.88,-238 244.49,-238 224.5,-238"/>
<polygon fill="midnightblue" stroke="midnightblue" points="291.99,-241.5 301.98,-238 291.98,-234.5 291.99,-241.5"/>
</g>
<!-- Node5 -->
<g id="node5" class="node">
<title>Node5</title>
<g id="a_node5"><a xlink:href="group__parts__3d__fastener__hinges.html#ga7e350f2c55116094108b99dd8103fc04" target="_top" xlink:title="A print&#45;in&#45;place single&#45;fold hinge generator.">
<polygon fill="white" stroke="black" points="159.5,-266.5 159.5,-285.5 217.5,-285.5 217.5,-266.5 159.5,-266.5"/>
<text text-anchor="middle" x="188.5" y="-273.5" font-family="Helvetica,sans-Serif" font-size="10.00">hinge_sf</text>
</a>
</g>
</g>
<!-- Node3&#45;&gt;Node5 -->
<g id="edge4" class="edge">
<title>Node3&#45;&gt;Node5</title>
<path fill="none" stroke="midnightblue" d="M292.83,-250.08C268.06,-256.29 238.74,-263.65 217.67,-268.93"/>
<polygon fill="midnightblue" stroke="midnightblue" points="293.92,-253.42 302.77,-247.59 292.22,-246.63 293.92,-253.42"/>
</g>
<!-- Node7 -->
<g id="node7" class="node">
<title>Node7</title>
<g id="a_node7"><a xlink:href="group__parts__3d__enclosure__mounts.html#ga0cbac43259ec43fff7785057277bcef3" target="_top" xlink:title="A screw mount post with screw bore and optional fins.">
<polygon fill="white" stroke="black" points="134.5,-114.5 134.5,-133.5 242.5,-133.5 242.5,-114.5 134.5,-114.5"/>
<text text-anchor="middle" x="188.5" y="-121.5" font-family="Helvetica,sans-Serif" font-size="10.00">mount_screw_post</text>
</a>
</g>
</g>
<!-- Node3&#45;&gt;Node7 -->
<g id="edge6" class="edge">
<title>Node3&#45;&gt;Node7</title>
<path fill="none" stroke="midnightblue" d="M292.59,-223.33C290.62,-222.01 288.74,-220.57 287,-219 259.23,-193.98 279.25,-167.48 251,-143 246.52,-139.12 241.27,-136.03 235.74,-133.58"/>
<polygon fill="midnightblue" stroke="midnightblue" points="291.3,-226.62 301.74,-228.41 294.7,-220.5 291.3,-226.62"/>
</g>
<!-- Node8 -->
<g id="node8" class="node">
<title>Node8</title>
<g id="a_node8"><a xlink:href="group__parts__3d__enclosure__mounts.html#gae1cc60f3ff242fb07c5a50d34be8c051" target="_top" xlink:title="A mount tab with screw hole and support brace.">
<polygon fill="white" stroke="black" points="137,-190.5 137,-209.5 240,-209.5 240,-190.5 137,-190.5"/>
<text text-anchor="middle" x="188.5" y="-197.5" font-family="Helvetica,sans-Serif" font-size="10.00">mount_screw_tab</text>
</a>
</g>
</g>
<!-- Node3&#45;&gt;Node8 -->
<g id="edge7" class="edge">
<title>Node3&#45;&gt;Node8</title>
<path fill="none" stroke="midnightblue" d="M293,-225.96C271.83,-220.65 247.31,-214.5 227.45,-209.52"/>
<polygon fill="midnightblue" stroke="midnightblue" points="292.22,-229.37 302.77,-228.41 293.92,-222.58 292.22,-229.37"/>
</g>
<!-- Node10 -->
<g id="node10" class="node">
<title>Node10</title>
<g id="a_node10"><a xlink:href="group__parts__3d__enclosure__project__box__rectangle.html#ga6a5d093d732e65556c46252220f2c4b6" target="_top" xlink:title="A rectangular box maker for project boxes, enclosures and housings.">
<polygon fill="white" stroke="black" points="126,-152.5 126,-171.5 251,-171.5 251,-152.5 126,-152.5"/>
<text text-anchor="middle" x="188.5" y="-159.5" font-family="Helvetica,sans-Serif" font-size="10.00">project_box_rectangle</text>
</a>
</g>
</g>
<!-- Node3&#45;&gt;Node10 -->
<g id="edge9" class="edge">
<title>Node3&#45;&gt;Node10</title>
<path fill="none" stroke="midnightblue" d="M296.88,-224.49C293.44,-222.84 290.1,-221.01 287,-219 267.48,-206.34 270.76,-193.28 251,-181 244.83,-177.17 237.83,-174.05 230.82,-171.54"/>
<polygon fill="midnightblue" stroke="midnightblue" points="295.58,-227.74 306.15,-228.48 298.35,-221.31 295.58,-227.74"/>
</g>
<!-- Node6 -->
<g id="node6" class="node">
<title>Node6</title>
<g id="a_node6"><a xlink:href="group__parts__3d__fastener__hinges.html#ga1ffc82e0bbac466d1dc4fbe6c214b765" target="_top" xlink:title="A print&#45;in&#45;place bi&#45;fold hinge generator.">
<polygon fill="white" stroke="black" points="15.5,-266.5 15.5,-285.5 74.5,-285.5 74.5,-266.5 15.5,-266.5"/>
<text text-anchor="middle" x="45" y="-273.5" font-family="Helvetica,sans-Serif" font-size="10.00">hinge_bf</text>
</a>
</g>
</g>
<!-- Node5&#45;&gt;Node6 -->
<g id="edge5" class="edge">
<title>Node5&#45;&gt;Node6</title>
<path fill="none" stroke="midnightblue" d="M148.92,-276C125.5,-276 96.1,-276 74.73,-276"/>
<polygon fill="midnightblue" stroke="midnightblue" points="149.21,-279.5 159.21,-276 149.21,-272.5 149.21,-279.5"/>
</g>
<!-- Node9 -->
<g id="node9" class="node">
<title>Node9</title>
<g id="a_node9"><a xlink:href="group__parts__3d__enclosure__power__strip.html#ga191779dedf39e4fd769a8dc96b0f8c9e" target="_top" xlink:title="A power strip generator for single gang electrical receptacles.">
<polygon fill="white" stroke="black" points="0,-171.5 0,-190.5 90,-190.5 90,-171.5 0,-171.5"/>
<text text-anchor="middle" x="45" y="-178.5" font-family="Helvetica,sans-Serif" font-size="10.00">power_strip_sg</text>
</a>
</g>
</g>
<!-- Node8&#45;&gt;Node9 -->
<g id="edge8" class="edge">
<title>Node8&#45;&gt;Node9</title>
<path fill="none" stroke="midnightblue" d="M126.66,-191.83C114.42,-190.19 101.78,-188.49 90.24,-186.94"/>
<polygon fill="midnightblue" stroke="midnightblue" points="126.44,-195.33 136.81,-193.19 127.37,-188.39 126.44,-195.33"/>
</g>
<!-- Node10&#45;&gt;Node9 -->
<g id="edge10" class="edge">
<title>Node10&#45;&gt;Node9</title>
<path fill="none" stroke="midnightblue" d="M115.9,-171.61C107.07,-172.8 98.26,-173.98 90.01,-175.09"/>
<polygon fill="midnightblue" stroke="midnightblue" points="116.4,-175.08 125.85,-170.28 115.47,-168.14 116.4,-175.08"/>
</g>
<!-- Node13&#45;&gt;Node7 -->
<g id="edge14" class="edge">
<title>Node13&#45;&gt;Node7</title>
<path fill="none" stroke="midnightblue" d="M435.52,-124C382.13,-124 297.43,-124 242.66,-124"/>
<polygon fill="midnightblue" stroke="midnightblue" points="435.76,-127.5 445.76,-124 435.76,-120.5 435.76,-127.5"/>
</g>
<!-- Node14 -->
<g id="node14" class="node">
<title>Node14</title>
<g id="a_node14"><a xlink:href="group__shapes__revolved.html#ga69b374bbebd7d87cfcd06b6bd3278404" target="_top" xlink:title="A trapezoidal cross&#45;sectional profile revolved about the z&#45;axis.">
<polygon fill="white" stroke="black" points="287,-190.5 287,-209.5 397,-209.5 397,-190.5 287,-190.5"/>
<text text-anchor="middle" x="342" y="-197.5" font-family="Helvetica,sans-Serif" font-size="10.00">torus_pg_trapezoid</text>
</a>
</g>
</g>
<!-- Node13&#45;&gt;Node14 -->
<g id="edge15" class="edge">
<title>Node13&#45;&gt;Node14</title>
<path fill="none" stroke="midnightblue" d="M442.37,-137.69C439.1,-139.3 435.94,-141.07 433,-143 413.56,-155.78 416.52,-168.34 397,-181 391.16,-184.79 384.48,-187.92 377.85,-190.48"/>
<polygon fill="midnightblue" stroke="midnightblue" points="443.98,-140.8 451.72,-133.55 441.15,-134.4 443.98,-140.8"/>
</g>
<!-- Node16 -->
<g id="node16" class="node">
<title>Node16</title>
<g id="a_node16"><a xlink:href="group__shapes__polygon.html#gad85d14f73179499777da1e9297fbcae8" target="_top" xlink:title="A polygon triangle specified by angle&#45;angle&#45;size with vertex rounding.">
<polygon fill="white" stroke="black" points="295,-0.5 295,-19.5 389,-19.5 389,-0.5 295,-0.5"/>
<text text-anchor="middle" x="342" y="-7.5" font-family="Helvetica,sans-Serif" font-size="10.00">pg_triangle_aas</text>
</a>
</g>
</g>
<!-- Node15&#45;&gt;Node16 -->
<g id="edge17" class="edge">
<title>Node15&#45;&gt;Node16</title>
<path fill="none" stroke="midnightblue" d="M442.37,-72.31C439.1,-70.7 435.94,-68.93 433,-67 413.56,-54.22 416.52,-41.66 397,-29 391.16,-25.21 384.48,-22.08 377.85,-19.52"/>
<polygon fill="midnightblue" stroke="midnightblue" points="441.15,-75.6 451.72,-76.45 443.98,-69.2 441.15,-75.6"/>
</g>
<!-- Node17 -->
<g id="node17" class="node">
<title>Node17</title>
<g id="a_node17"><a xlink:href="group__shapes__polygon.html#ga45e8a17aef3dd6755f833f25a8937cf7" target="_top" xlink:title="A polygon triangle specified by angle&#45;size&#45;angle with vertex rounding.">
<polygon fill="white" stroke="black" points="295,-76.5 295,-95.5 389,-95.5 389,-76.5 295,-76.5"/>
<text text-anchor="middle" x="342" y="-83.5" font-family="Helvetica,sans-Serif" font-size="10.00">pg_triangle_asa</text>
</a>
</g>
</g>
<!-- Node15&#45;&gt;Node17 -->
<g id="edge18" class="edge">
<title>Node15&#45;&gt;Node17</title>
<path fill="none" stroke="midnightblue" d="M427.99,-86C415.16,-86 401.69,-86 389.36,-86"/>
<polygon fill="midnightblue" stroke="midnightblue" points="428.11,-89.5 438.11,-86 428.11,-82.5 428.11,-89.5"/>
</g>
<!-- Node18 -->
<g id="node18" class="node">
<title>Node18</title>
<g id="a_node18"><a xlink:href="group__shapes__polygon.html#ga24be160074502dce7ff8a78361d4b074" target="_top" xlink:title="A polygon triangle specified by size&#45;angle&#45;size with vertex rounding.">
<polygon fill="white" stroke="black" points="295.5,-152.5 295.5,-171.5 388.5,-171.5 388.5,-152.5 295.5,-152.5"/>
<text text-anchor="middle" x="342" y="-159.5" font-family="Helvetica,sans-Serif" font-size="10.00">pg_triangle_sas</text>
</a>
</g>
</g>
<!-- Node15&#45;&gt;Node18 -->
<g id="edge19" class="edge">
<title>Node15&#45;&gt;Node18</title>
<path fill="none" stroke="midnightblue" d="M445.83,-99.28C441.45,-101.07 437.09,-102.99 433,-105 404.29,-119.13 373.28,-140.19 356.19,-152.37"/>
<polygon fill="midnightblue" stroke="midnightblue" points="447.33,-102.45 455.39,-95.58 444.8,-95.93 447.33,-102.45"/>
</g>
<!-- Node19 -->
<g id="node19" class="node">
<title>Node19</title>
<g id="a_node19"><a xlink:href="group__shapes__polygon.html#gab9843df753e0537b490ac67cec6e31a9" target="_top" xlink:title="A polygon triangle specified by three side lengths with vertex rounding.">
<polygon fill="white" stroke="black" points="296,-38.5 296,-57.5 388,-57.5 388,-38.5 296,-38.5"/>
<text text-anchor="middle" x="342" y="-45.5" font-family="Helvetica,sans-Serif" font-size="10.00">pg_triangle_sss</text>
</a>
</g>
</g>
<!-- Node15&#45;&gt;Node19 -->
<g id="edge23" class="edge">
<title>Node15&#45;&gt;Node19</title>
<path fill="none" stroke="midnightblue" d="M439.51,-73.83C419.87,-68.57 397.23,-62.51 378.82,-57.59"/>
<polygon fill="midnightblue" stroke="midnightblue" points="438.6,-77.21 449.17,-76.41 440.41,-70.44 438.6,-77.21"/>
</g>
<!-- Node18&#45;&gt;Node7 -->
<g id="edge20" class="edge">
<title>Node18&#45;&gt;Node7</title>
<path fill="none" stroke="midnightblue" d="M293,-149.96C271.83,-144.65 247.31,-138.5 227.45,-133.52"/>
<polygon fill="midnightblue" stroke="midnightblue" points="292.22,-153.37 302.77,-152.41 293.92,-146.58 292.22,-153.37"/>
</g>
<!-- Node18&#45;&gt;Node8 -->
<g id="edge21" class="edge">
<title>Node18&#45;&gt;Node8</title>
<path fill="none" stroke="midnightblue" d="M293,-174.04C271.83,-179.35 247.31,-185.5 227.45,-190.48"/>
<polygon fill="midnightblue" stroke="midnightblue" points="293.92,-177.42 302.77,-171.59 292.22,-170.63 293.92,-177.42"/>
</g>
<!-- Node18&#45;&gt;Node10 -->
<g id="edge22" class="edge">
<title>Node18&#45;&gt;Node10</title>
<path fill="none" stroke="midnightblue" d="M284.83,-162C273.85,-162 262.29,-162 251.15,-162"/>
<polygon fill="midnightblue" stroke="midnightblue" points="285.13,-165.5 295.13,-162 285.13,-158.5 285.13,-165.5"/>
</g>
</g>
</svg>
