<?xml version="1.0" encoding="UTF-8" standalone="no"?>
<!DOCTYPE svg PUBLIC "-//W3C//DTD SVG 1.1//EN"
 "http://www.w3.org/Graphics/SVG/1.1/DTD/svg11.dtd">
<!-- Generated by graphviz version 2.43.0 (0)
 -->
<!-- Title: screw_bore Pages: 1 -->
<svg width="386pt" height="256pt"
 viewBox="0.00 0.00 386.00 256.00" xmlns="http://www.w3.org/2000/svg" xmlns:xlink="http://www.w3.org/1999/xlink">
<g id="graph0" class="graph" transform="scale(1 1) rotate(0) translate(4 252)">
<title>screw_bore</title>
<polygon fill="white" stroke="transparent" points="-4,4 -4,-252 382,-252 382,4 -4,4"/>
<!-- Node1 -->
<g id="node1" class="node">
<title>Node1</title>
<g id="a_node1"><a xlink:title="Flat and beveled&#45;head fastener bore with nut, nut slot, and bore tolerance.">
<polygon fill="#bfbfbf" stroke="black" points="306,-114.5 306,-133.5 378,-133.5 378,-114.5 306,-114.5"/>
<text text-anchor="middle" x="342" y="-121.5" font-family="Helvetica,sans-Serif" font-size="10.00">screw_bore</text>
</a>
</g>
</g>
<!-- Node2 -->
<g id="node2" class="node">
<title>Node2</title>
<g id="a_node2"><a xlink:href="group__parts__3d__fastener__catch__latch.html#ga26a9933aa6d33599daab1be8d632c430" target="_top" xlink:title="A catch latch generator with configurable profile.">
<polygon fill="white" stroke="black" points="180,-228.5 180,-247.5 252,-247.5 252,-228.5 180,-228.5"/>
<text text-anchor="middle" x="216" y="-235.5" font-family="Helvetica,sans-Serif" font-size="10.00">catch_latch</text>
</a>
</g>
</g>
<!-- Node1&#45;&gt;Node2 -->
<g id="edge1" class="edge">
<title>Node1&#45;&gt;Node2</title>
<path fill="none" stroke="midnightblue" d="M331.53,-142.54C319.79,-163.81 297.87,-198.39 270,-219 264.66,-222.95 258.41,-226.14 252.12,-228.7"/>
<polygon fill="midnightblue" stroke="midnightblue" points="334.71,-144.02 336.33,-133.55 328.53,-140.72 334.71,-144.02"/>
</g>
<!-- Node3 -->
<g id="node3" class="node">
<title>Node3</title>
<g id="a_node3"><a xlink:href="group__parts__3d__enclosure__clamps.html#ga8fd874789132e42e5470328d18560f1a" target="_top" xlink:title="A clamp, bushing, and/or grip for wire/hose wall penetrations.">
<polygon fill="white" stroke="black" points="184.5,-152.5 184.5,-171.5 247.5,-171.5 247.5,-152.5 184.5,-152.5"/>
<text text-anchor="middle" x="216" y="-159.5" font-family="Helvetica,sans-Serif" font-size="10.00">clamp_cg</text>
</a>
</g>
</g>
<!-- Node1&#45;&gt;Node3 -->
<g id="edge2" class="edge">
<title>Node1&#45;&gt;Node3</title>
<path fill="none" stroke="midnightblue" d="M300.02,-136.56C283.01,-141.77 263.62,-147.71 247.85,-152.55"/>
<polygon fill="midnightblue" stroke="midnightblue" points="301.17,-139.87 309.71,-133.59 299.12,-133.17 301.17,-139.87"/>
</g>
<!-- Node4 -->
<g id="node4" class="node">
<title>Node4</title>
<g id="a_node4"><a xlink:href="group__parts__3d__enclosure__power__strip.html#ga191779dedf39e4fd769a8dc96b0f8c9e" target="_top" xlink:title="A power strip generator for single gang electrical receptacles.">
<polygon fill="white" stroke="black" points="18,-76.5 18,-95.5 108,-95.5 108,-76.5 18,-76.5"/>
<text text-anchor="middle" x="63" y="-83.5" font-family="Helvetica,sans-Serif" font-size="10.00">power_strip_sg</text>
</a>
</g>
</g>
<!-- Node1&#45;&gt;Node4 -->
<g id="edge12" class="edge">
<title>Node1&#45;&gt;Node4</title>
<path fill="none" stroke="midnightblue" d="M295.65,-120.27C259.38,-117.02 207.29,-111.78 162,-105 144.35,-102.36 125.03,-98.76 108.26,-95.42"/>
<polygon fill="midnightblue" stroke="midnightblue" points="295.63,-123.78 305.9,-121.17 296.25,-116.81 295.63,-123.78"/>
</g>
<!-- Node5 -->
<g id="node5" class="node">
<title>Node5</title>
<g id="a_node5"><a xlink:href="group__parts__3d__fastener__hinges.html#ga7e350f2c55116094108b99dd8103fc04" target="_top" xlink:title="A print&#45;in&#45;place single&#45;fold hinge generator.">
<polygon fill="white" stroke="black" points="187,-190.5 187,-209.5 245,-209.5 245,-190.5 187,-190.5"/>
<text text-anchor="middle" x="216" y="-197.5" font-family="Helvetica,sans-Serif" font-size="10.00">hinge_sf</text>
</a>
</g>
</g>
<!-- Node1&#45;&gt;Node5 -->
<g id="edge4" class="edge">
<title>Node1&#45;&gt;Node5</title>
<path fill="none" stroke="midnightblue" d="M323.55,-140.78C309.87,-153.21 289.87,-169.87 270,-181 262.32,-185.3 253.49,-188.92 245.27,-191.81"/>
<polygon fill="midnightblue" stroke="midnightblue" points="326.26,-143.04 331.2,-133.66 321.49,-137.91 326.26,-143.04"/>
</g>
<!-- Node7 -->
<g id="node7" class="node">
<title>Node7</title>
<g id="a_node7"><a xlink:href="group__parts__3d__enclosure__mounts.html#ga0cbac43259ec43fff7785057277bcef3" target="_top" xlink:title="A screw mount post with screw bore and optional fins.">
<polygon fill="white" stroke="black" points="162,-76.5 162,-95.5 270,-95.5 270,-76.5 162,-76.5"/>
<text text-anchor="middle" x="216" y="-83.5" font-family="Helvetica,sans-Serif" font-size="10.00">mount_screw_post</text>
</a>
</g>
</g>
<!-- Node1&#45;&gt;Node7 -->
<g id="edge6" class="edge">
<title>Node1&#45;&gt;Node7</title>
<path fill="none" stroke="midnightblue" d="M300.1,-111.46C283.23,-106.3 263.99,-100.4 248.28,-95.59"/>
<polygon fill="midnightblue" stroke="midnightblue" points="299.12,-114.83 309.71,-114.41 301.17,-108.13 299.12,-114.83"/>
</g>
<!-- Node8 -->
<g id="node8" class="node">
<title>Node8</title>
<g id="a_node8"><a xlink:href="group__parts__3d__enclosure__mounts.html#ga1a26f176e04863a2bf335960a52b39a8" target="_top" xlink:title="A screw mount slot with optional cover envelope.">
<polygon fill="white" stroke="black" points="163.5,-0.5 163.5,-19.5 268.5,-19.5 268.5,-0.5 163.5,-0.5"/>
<text text-anchor="middle" x="216" y="-7.5" font-family="Helvetica,sans-Serif" font-size="10.00">mount_screw_slot</text>
</a>
</g>
</g>
<!-- Node1&#45;&gt;Node8 -->
<g id="edge7" class="edge">
<title>Node1&#45;&gt;Node8</title>
<path fill="none" stroke="midnightblue" d="M331.53,-105.46C319.79,-84.19 297.87,-49.61 270,-29 264.81,-25.16 258.78,-22.04 252.68,-19.52"/>
<polygon fill="midnightblue" stroke="midnightblue" points="328.53,-107.28 336.33,-114.45 334.71,-103.98 328.53,-107.28"/>
</g>
<!-- Node10 -->
<g id="node10" class="node">
<title>Node10</title>
<g id="a_node10"><a xlink:href="group__parts__3d__enclosure__mounts.html#gae1cc60f3ff242fb07c5a50d34be8c051" target="_top" xlink:title="A mount tab with screw hole and support brace.">
<polygon fill="white" stroke="black" points="164.5,-38.5 164.5,-57.5 267.5,-57.5 267.5,-38.5 164.5,-38.5"/>
<text text-anchor="middle" x="216" y="-45.5" font-family="Helvetica,sans-Serif" font-size="10.00">mount_screw_tab</text>
</a>
</g>
</g>
<!-- Node1&#45;&gt;Node10 -->
<g id="edge10" class="edge">
<title>Node1&#45;&gt;Node10</title>
<path fill="none" stroke="midnightblue" d="M323.55,-107.22C309.87,-94.79 289.87,-78.13 270,-67 263.52,-63.37 256.21,-60.22 249.15,-57.59"/>
<polygon fill="midnightblue" stroke="midnightblue" points="321.49,-110.09 331.2,-114.34 326.26,-104.96 321.49,-110.09"/>
</g>
<!-- Node3&#45;&gt;Node4 -->
<g id="edge3" class="edge">
<title>Node3&#45;&gt;Node4</title>
<path fill="none" stroke="midnightblue" d="M183.74,-148.24C176.56,-144.97 168.98,-141.43 162,-138 133.3,-123.91 100.62,-106.23 81.18,-95.54"/>
<polygon fill="midnightblue" stroke="midnightblue" points="182.64,-151.58 193.2,-152.5 185.52,-145.2 182.64,-151.58"/>
</g>
<!-- Node6 -->
<g id="node6" class="node">
<title>Node6</title>
<g id="a_node6"><a xlink:href="group__parts__3d__fastener__hinges.html#ga1ffc82e0bbac466d1dc4fbe6c214b765" target="_top" xlink:title="A print&#45;in&#45;place bi&#45;fold hinge generator.">
<polygon fill="white" stroke="black" points="33.5,-190.5 33.5,-209.5 92.5,-209.5 92.5,-190.5 33.5,-190.5"/>
<text text-anchor="middle" x="63" y="-197.5" font-family="Helvetica,sans-Serif" font-size="10.00">hinge_bf</text>
</a>
</g>
</g>
<!-- Node5&#45;&gt;Node6 -->
<g id="edge5" class="edge">
<title>Node5&#45;&gt;Node6</title>
<path fill="none" stroke="midnightblue" d="M176.65,-200C150.51,-200 116.46,-200 92.67,-200"/>
<polygon fill="midnightblue" stroke="midnightblue" points="176.95,-203.5 186.95,-200 176.95,-196.5 176.95,-203.5"/>
</g>
<!-- Node8&#45;&gt;Node4 -->
<g id="edge9" class="edge">
<title>Node8&#45;&gt;Node4</title>
<path fill="none" stroke="midnightblue" d="M175.85,-23.12C171.13,-24.97 166.42,-26.94 162,-29 131.13,-43.37 97.23,-64.35 78.49,-76.44"/>
<polygon fill="midnightblue" stroke="midnightblue" points="177.32,-26.3 185.46,-19.51 174.86,-19.75 177.32,-26.3"/>
</g>
<!-- Node9 -->
<g id="node9" class="node">
<title>Node9</title>
<g id="a_node9"><a xlink:href="group__parts__3d__enclosure__mounts.html#gabc7cd409ab1e2e4b6b894de3cf06658f" target="_top" xlink:title="A multi&#45;directional screw mount slot with optional cover envelope.">
<polygon fill="white" stroke="black" points="0,-0.5 0,-19.5 126,-19.5 126,-0.5 0,-0.5"/>
<text text-anchor="middle" x="63" y="-7.5" font-family="Helvetica,sans-Serif" font-size="10.00">mount_screw_slot_md</text>
</a>
</g>
</g>
<!-- Node8&#45;&gt;Node9 -->
<g id="edge8" class="edge">
<title>Node8&#45;&gt;Node9</title>
<path fill="none" stroke="midnightblue" d="M153.4,-10C144.36,-10 135.05,-10 126.01,-10"/>
<polygon fill="midnightblue" stroke="midnightblue" points="153.46,-13.5 163.46,-10 153.46,-6.5 153.46,-13.5"/>
</g>
<!-- Node10&#45;&gt;Node4 -->
<g id="edge11" class="edge">
<title>Node10&#45;&gt;Node4</title>
<path fill="none" stroke="midnightblue" d="M167.16,-60.04C146.06,-65.35 121.62,-71.5 101.83,-76.48"/>
<polygon fill="midnightblue" stroke="midnightblue" points="168.05,-63.42 176.9,-57.59 166.34,-56.64 168.05,-63.42"/>
</g>
</g>
</svg>
