<?xml version="1.0" encoding="UTF-8" standalone="no"?>
<!DOCTYPE svg PUBLIC "-//W3C//DTD SVG 1.1//EN"
 "http://www.w3.org/Graphics/SVG/1.1/DTD/svg11.dtd">
<!-- Generated by graphviz version 2.43.0 (0)
 -->
<!-- Title: draft_get_config Pages: 1 -->
<svg width="672pt" height="461pt"
 viewBox="0.00 0.00 672.00 461.20" xmlns="http://www.w3.org/2000/svg" xmlns:xlink="http://www.w3.org/1999/xlink">
<g id="graph0" class="graph" transform="scale(1 1) rotate(0) translate(4 457.2)">
<title>draft_get_config</title>
<polygon fill="white" stroke="transparent" points="-4,4 -4,-457.2 668,-457.2 668,4 -4,4"/>
<!-- Node1 -->
<g id="node1" class="node">
<title>Node1</title>
<g id="a_node1"><a xlink:title="Get drafting configuration default helper function.">
<polygon fill="#bfbfbf" stroke="black" points="569,-304.5 569,-323.5 664,-323.5 664,-304.5 569,-304.5"/>
<text text-anchor="middle" x="616.5" y="-311.5" font-family="Helvetica,sans-Serif" font-size="10.00">draft_get_config</text>
</a>
</g>
</g>
<!-- Node2 -->
<g id="node2" class="node">
<title>Node2</title>
<g id="a_node2"><a xlink:href="group__tools__drafting__primitive.html#ga6f12ccd4c9de0a8ab887184911f39c8f" target="_top" xlink:title="Draft an arrowhead at the terminal point of a line.">
<polygon fill="white" stroke="black" points="267,-418.5 267,-437.5 339,-437.5 339,-418.5 267,-418.5"/>
<text text-anchor="middle" x="303" y="-425.5" font-family="Helvetica,sans-Serif" font-size="10.00">draft_arrow</text>
</a>
</g>
</g>
<!-- Node1&#45;&gt;Node2 -->
<g id="edge1" class="edge">
<title>Node1&#45;&gt;Node2</title>
<path fill="none" stroke="midnightblue" d="M601.88,-331.48C586.99,-349.26 561.42,-376.12 533,-390 469.63,-420.96 385.89,-427.35 339.24,-428.29"/>
<polygon fill="midnightblue" stroke="midnightblue" points="604.71,-333.54 608.3,-323.57 599.28,-329.13 604.71,-333.54"/>
</g>
<!-- Node5 -->
<g id="node5" class="node">
<title>Node5</title>
<g id="a_node5"><a xlink:href="group__tools__drafting__primitive.html#ga060910368142d6371cf4f3f30be7561e" target="_top" xlink:title="Draft a line with configurable style and optional arrowheads.">
<polygon fill="white" stroke="black" points="151.5,-190.5 151.5,-209.5 213.5,-209.5 213.5,-190.5 151.5,-190.5"/>
<text text-anchor="middle" x="182.5" y="-197.5" font-family="Helvetica,sans-Serif" font-size="10.00">draft_line</text>
</a>
</g>
</g>
<!-- Node1&#45;&gt;Node5 -->
<g id="edge14" class="edge">
<title>Node1&#45;&gt;Node5</title>
<path fill="none" stroke="midnightblue" d="M569.63,-301.9C480.92,-278.49 288.04,-227.59 213.63,-207.95"/>
<polygon fill="midnightblue" stroke="midnightblue" points="568.85,-305.31 579.41,-304.48 570.64,-298.54 568.85,-305.31"/>
</g>
<!-- Node14 -->
<g id="node14" class="node">
<title>Node14</title>
<g id="a_node14"><a xlink:href="group__tools__drafting__primitive.html#ga4e7c5fa02dbc244702042067553a9225" target="_top" xlink:title="Draft a simple line from an initial to a terminal point.">
<polygon fill="white" stroke="black" points="414.5,-361.5 414.5,-380.5 494.5,-380.5 494.5,-361.5 414.5,-361.5"/>
<text text-anchor="middle" x="454.5" y="-368.5" font-family="Helvetica,sans-Serif" font-size="10.00">draft_line_pp</text>
</a>
</g>
</g>
<!-- Node1&#45;&gt;Node14 -->
<g id="edge15" class="edge">
<title>Node1&#45;&gt;Node14</title>
<path fill="none" stroke="midnightblue" d="M579.21,-326.93C549.77,-337.42 508.93,-351.96 482.37,-361.43"/>
<polygon fill="midnightblue" stroke="midnightblue" points="580.47,-330.19 588.72,-323.54 578.12,-323.6 580.47,-330.19"/>
</g>
<!-- Node15 -->
<g id="node15" class="node">
<title>Node15</title>
<g id="a_node15"><a xlink:href="group__tools__drafting__primitive.html#ga9a4b6eb4b387537f7bc1cc6c4d8f4449" target="_top" xlink:title="Extrude 2D drafted constructions to 3D if configured.">
<polygon fill="white" stroke="black" points="376,-171.5 376,-190.5 533,-190.5 533,-171.5 376,-171.5"/>
<text text-anchor="middle" x="454.5" y="-178.5" font-family="Helvetica,sans-Serif" font-size="10.00">draft_make_3d_if_configured</text>
</a>
</g>
</g>
<!-- Node1&#45;&gt;Node15 -->
<g id="edge19" class="edge">
<title>Node1&#45;&gt;Node15</title>
<path fill="none" stroke="midnightblue" d="M602.22,-296.4C587,-277.02 560.57,-245.74 533,-224 515.6,-210.28 493.25,-198.39 477.03,-190.61"/>
<polygon fill="midnightblue" stroke="midnightblue" points="599.51,-298.61 608.39,-304.39 605.05,-294.33 599.51,-298.61"/>
</g>
<!-- Node16 -->
<g id="node16" class="node">
<title>Node16</title>
<g id="a_node16"><a xlink:href="group__tools__drafting__operation.html#gaae4b7ed59444eb6f6c0ae47bd36e1e9b" target="_top" xlink:title="Construct a text table that is populated by rows and columns.">
<polygon fill="white" stroke="black" points="268.5,-304.5 268.5,-323.5 337.5,-323.5 337.5,-304.5 268.5,-304.5"/>
<text text-anchor="middle" x="303" y="-311.5" font-family="Helvetica,sans-Serif" font-size="10.00">draft_table</text>
</a>
</g>
</g>
<!-- Node1&#45;&gt;Node16 -->
<g id="edge35" class="edge">
<title>Node1&#45;&gt;Node16</title>
<path fill="none" stroke="midnightblue" d="M558.83,-314C494.15,-314 390.49,-314 337.52,-314"/>
<polygon fill="midnightblue" stroke="midnightblue" points="558.87,-317.5 568.87,-314 558.87,-310.5 558.87,-317.5"/>
</g>
<!-- Node3 -->
<g id="node3" class="node">
<title>Node3</title>
<g id="a_node3"><a xlink:href="group__tools__drafting__primitive.html#gaeb2a388d77f8e435b02c4235e7791eda" target="_top" xlink:title="Draft an arc with configurable style and optional arrowheads.">
<polygon fill="white" stroke="black" points="153,-418.5 153,-437.5 212,-437.5 212,-418.5 153,-418.5"/>
<text text-anchor="middle" x="182.5" y="-425.5" font-family="Helvetica,sans-Serif" font-size="10.00">draft_arc</text>
</a>
</g>
</g>
<!-- Node2&#45;&gt;Node3 -->
<g id="edge2" class="edge">
<title>Node2&#45;&gt;Node3</title>
<path fill="none" stroke="midnightblue" d="M256.64,-428C241.65,-428 225.4,-428 212.03,-428"/>
<polygon fill="midnightblue" stroke="midnightblue" points="256.77,-431.5 266.77,-428 256.77,-424.5 256.77,-431.5"/>
</g>
<!-- Node2&#45;&gt;Node5 -->
<g id="edge4" class="edge">
<title>Node2&#45;&gt;Node5</title>
<path fill="none" stroke="midnightblue" d="M290.93,-409.65C283.64,-397.4 274,-380.88 266,-366 249.76,-335.82 203.43,-240.94 188.33,-209.92"/>
<polygon fill="midnightblue" stroke="midnightblue" points="288.05,-411.66 296.19,-418.44 294.06,-408.07 288.05,-411.66"/>
</g>
<!-- Node4 -->
<g id="node4" class="node">
<title>Node4</title>
<g id="a_node4"><a xlink:href="group__tools__drafting__dimension.html#ga6b8e17d22ac4a95d25a90be8a74c0689" target="_top" xlink:title="Construct a angular dimension arc.">
<polygon fill="white" stroke="black" points="2,-342.5 2,-361.5 97,-361.5 97,-342.5 2,-342.5"/>
<text text-anchor="middle" x="49.5" y="-349.5" font-family="Helvetica,sans-Serif" font-size="10.00">draft_dim_angle</text>
</a>
</g>
</g>
<!-- Node3&#45;&gt;Node4 -->
<g id="edge3" class="edge">
<title>Node3&#45;&gt;Node4</title>
<path fill="none" stroke="midnightblue" d="M152.84,-413.64C146.9,-410.54 140.71,-407.22 135,-404 110.1,-389.94 81.96,-372.25 65.26,-361.55"/>
<polygon fill="midnightblue" stroke="midnightblue" points="151.38,-416.82 161.87,-418.28 154.58,-410.59 151.38,-416.82"/>
</g>
<!-- Node5&#45;&gt;Node4 -->
<g id="edge6" class="edge">
<title>Node5&#45;&gt;Node4</title>
<path fill="none" stroke="midnightblue" d="M166.68,-217.2C138.99,-249.32 80.28,-317.44 58.69,-342.5"/>
<polygon fill="midnightblue" stroke="midnightblue" points="169.43,-219.37 173.31,-209.51 164.13,-214.8 169.43,-219.37"/>
</g>
<!-- Node6 -->
<g id="node6" class="node">
<title>Node6</title>
<g id="a_node6"><a xlink:href="group__tools__drafting__operation.html#ga4e20419a6d4623f21c05179fc8b6df95" target="_top" xlink:title="Construct drafting sheet axes.">
<polygon fill="white" stroke="black" points="16,-38.5 16,-57.5 83,-57.5 83,-38.5 16,-38.5"/>
<text text-anchor="middle" x="49.5" y="-45.5" font-family="Helvetica,sans-Serif" font-size="10.00">draft_axes</text>
</a>
</g>
</g>
<!-- Node5&#45;&gt;Node6 -->
<g id="edge5" class="edge">
<title>Node5&#45;&gt;Node6</title>
<path fill="none" stroke="midnightblue" d="M142.18,-187.11C139.55,-185.33 137.12,-183.3 135,-181 99,-141.92 135.28,-105.82 99,-67 94.68,-62.38 89.09,-58.86 83.26,-56.19"/>
<polygon fill="midnightblue" stroke="midnightblue" points="140.6,-190.24 151.04,-192.04 144,-184.12 140.6,-190.24"/>
</g>
<!-- Node7 -->
<g id="node7" class="node">
<title>Node7</title>
<g id="a_node7"><a xlink:href="group__tools__drafting__dimension.html#ga4866c090b81b437e2f1f707d28ad8ec7" target="_top" xlink:title="Construct a center mark dimension cross.">
<polygon fill="white" stroke="black" points="0,-0.5 0,-19.5 99,-19.5 99,-0.5 0,-0.5"/>
<text text-anchor="middle" x="49.5" y="-7.5" font-family="Helvetica,sans-Serif" font-size="10.00">draft_dim_center</text>
</a>
</g>
</g>
<!-- Node5&#45;&gt;Node7 -->
<g id="edge7" class="edge">
<title>Node5&#45;&gt;Node7</title>
<path fill="none" stroke="midnightblue" d="M142.46,-187.61C139.69,-185.71 137.15,-183.52 135,-181 89.87,-128.25 144.52,-81.42 99,-29 95.68,-25.18 91.49,-22.12 86.97,-19.67"/>
<polygon fill="midnightblue" stroke="midnightblue" points="140.81,-190.7 151.25,-192.5 144.21,-184.58 140.81,-190.7"/>
</g>
<!-- Node8 -->
<g id="node8" class="node">
<title>Node8</title>
<g id="a_node8"><a xlink:href="group__tools__drafting__dimension.html#ga5c4915c4c4464c5cdaefd501c2de261d" target="_top" xlink:title="Construct a dimension leader line at a point.">
<polygon fill="white" stroke="black" points="0,-228.5 0,-247.5 99,-247.5 99,-228.5 0,-228.5"/>
<text text-anchor="middle" x="49.5" y="-235.5" font-family="Helvetica,sans-Serif" font-size="10.00">draft_dim_leader</text>
</a>
</g>
</g>
<!-- Node5&#45;&gt;Node8 -->
<g id="edge8" class="edge">
<title>Node5&#45;&gt;Node8</title>
<path fill="none" stroke="midnightblue" d="M141.79,-211.52C123.2,-216.91 101.31,-223.26 83.63,-228.39"/>
<polygon fill="midnightblue" stroke="midnightblue" points="142.82,-214.87 151.45,-208.72 140.87,-208.14 142.82,-214.87"/>
</g>
<!-- Node9 -->
<g id="node9" class="node">
<title>Node9</title>
<g id="a_node9"><a xlink:href="group__tools__drafting__dimension.html#ga27a35e94597435a74e22d76789e9be5e" target="_top" xlink:title="Construct a dimension line between two points.">
<polygon fill="white" stroke="black" points="6.5,-152.5 6.5,-171.5 92.5,-171.5 92.5,-152.5 6.5,-152.5"/>
<text text-anchor="middle" x="49.5" y="-159.5" font-family="Helvetica,sans-Serif" font-size="10.00">draft_dim_line</text>
</a>
</g>
</g>
<!-- Node5&#45;&gt;Node9 -->
<g id="edge9" class="edge">
<title>Node5&#45;&gt;Node9</title>
<path fill="none" stroke="midnightblue" d="M141.79,-188.48C123.2,-183.09 101.31,-176.74 83.63,-171.61"/>
<polygon fill="midnightblue" stroke="midnightblue" points="140.87,-191.86 151.45,-191.28 142.82,-185.13 140.87,-191.86"/>
</g>
<!-- Node10 -->
<g id="node10" class="node">
<title>Node10</title>
<g id="a_node10"><a xlink:href="group__tools__drafting__dimension.html#gaef1a8150a8ef7be88e086fb3dbab64a9" target="_top" xlink:title="Construct a radial dimension line.">
<polygon fill="white" stroke="black" points="0.5,-266.5 0.5,-285.5 98.5,-285.5 98.5,-266.5 0.5,-266.5"/>
<text text-anchor="middle" x="49.5" y="-273.5" font-family="Helvetica,sans-Serif" font-size="10.00">draft_dim_radius</text>
</a>
</g>
</g>
<!-- Node5&#45;&gt;Node10 -->
<g id="edge10" class="edge">
<title>Node5&#45;&gt;Node10</title>
<path fill="none" stroke="midnightblue" d="M161.31,-215.92C145.11,-228.21 121.43,-245.06 99,-257 92.45,-260.48 85.12,-263.68 78.19,-266.43"/>
<polygon fill="midnightblue" stroke="midnightblue" points="163.7,-218.5 169.49,-209.63 159.43,-212.95 163.7,-218.5"/>
</g>
<!-- Node11 -->
<g id="node11" class="node">
<title>Node11</title>
<g id="a_node11"><a xlink:href="group__tools__drafting__primitive.html#gada1e771ce89ef86b6241c43dc01bf62d" target="_top" xlink:title="Draft a polygon with configurable style.">
<polygon fill="white" stroke="black" points="8,-190.5 8,-209.5 91,-209.5 91,-190.5 8,-190.5"/>
<text text-anchor="middle" x="49.5" y="-197.5" font-family="Helvetica,sans-Serif" font-size="10.00">draft_polygon</text>
</a>
</g>
</g>
<!-- Node5&#45;&gt;Node11 -->
<g id="edge11" class="edge">
<title>Node5&#45;&gt;Node11</title>
<path fill="none" stroke="midnightblue" d="M141.4,-200C125.52,-200 107.28,-200 91.33,-200"/>
<polygon fill="midnightblue" stroke="midnightblue" points="141.45,-203.5 151.45,-200 141.45,-196.5 141.45,-203.5"/>
</g>
<!-- Node12 -->
<g id="node12" class="node">
<title>Node12</title>
<g id="a_node12"><a xlink:href="group__tools__drafting__primitive.html#ga20eb57e9d25186784df7428089e3a2ae" target="_top" xlink:title="Draft a rectangle with configurable style.">
<polygon fill="white" stroke="black" points="4.5,-114.5 4.5,-133.5 94.5,-133.5 94.5,-114.5 4.5,-114.5"/>
<text text-anchor="middle" x="49.5" y="-121.5" font-family="Helvetica,sans-Serif" font-size="10.00">draft_rectangle</text>
</a>
</g>
</g>
<!-- Node5&#45;&gt;Node12 -->
<g id="edge12" class="edge">
<title>Node5&#45;&gt;Node12</title>
<path fill="none" stroke="midnightblue" d="M143.2,-185.93C140.35,-184.41 137.58,-182.77 135,-181 115.8,-167.86 118.29,-156 99,-143 93.53,-139.31 87.23,-136.18 81.03,-133.59"/>
<polygon fill="midnightblue" stroke="midnightblue" points="141.95,-189.21 152.49,-190.37 144.98,-182.9 141.95,-189.21"/>
</g>
<!-- Node13 -->
<g id="node13" class="node">
<title>Node13</title>
<g id="a_node13"><a xlink:href="group__tools__drafting__operation.html#ga49aac81a903cd453ea9cadc85e84e414" target="_top" xlink:title="Construct a drafting sheet ruler.">
<polygon fill="white" stroke="black" points="16,-76.5 16,-95.5 83,-95.5 83,-76.5 16,-76.5"/>
<text text-anchor="middle" x="49.5" y="-83.5" font-family="Helvetica,sans-Serif" font-size="10.00">draft_ruler</text>
</a>
</g>
</g>
<!-- Node5&#45;&gt;Node13 -->
<g id="edge13" class="edge">
<title>Node5&#45;&gt;Node13</title>
<path fill="none" stroke="midnightblue" d="M142.04,-186.48C139.52,-184.84 137.14,-183.02 135,-181 107.86,-155.3 126.32,-130.5 99,-105 94.44,-100.74 88.81,-97.4 83.03,-94.79"/>
<polygon fill="midnightblue" stroke="midnightblue" points="140.57,-189.66 151.03,-191.35 143.91,-183.51 140.57,-189.66"/>
</g>
<!-- Node14&#45;&gt;Node2 -->
<g id="edge17" class="edge">
<title>Node14&#45;&gt;Node2</title>
<path fill="none" stroke="midnightblue" d="M418.87,-384.2C391.42,-394.67 353.71,-409.05 329.1,-418.43"/>
<polygon fill="midnightblue" stroke="midnightblue" points="420.38,-387.37 428.48,-380.54 417.89,-380.83 420.38,-387.37"/>
</g>
<!-- Node14&#45;&gt;Node3 -->
<g id="edge16" class="edge">
<title>Node14&#45;&gt;Node3</title>
<path fill="none" stroke="midnightblue" d="M436.23,-387.46C415.36,-406.09 378.26,-435.37 340,-447 295.48,-460.53 241.08,-447.71 209.55,-437.57"/>
<polygon fill="midnightblue" stroke="midnightblue" points="438.63,-390 443.65,-380.66 433.91,-384.84 438.63,-390"/>
</g>
<!-- Node14&#45;&gt;Node5 -->
<g id="edge18" class="edge">
<title>Node14&#45;&gt;Node5</title>
<path fill="none" stroke="midnightblue" d="M404.3,-371.46C363.85,-369.55 306.76,-361.35 266,-333 242.58,-316.71 202.07,-237.65 188.27,-209.76"/>
<polygon fill="midnightblue" stroke="midnightblue" points="404.35,-374.97 414.47,-371.83 404.6,-367.97 404.35,-374.97"/>
</g>
<!-- Node15&#45;&gt;Node4 -->
<g id="edge21" class="edge">
<title>Node15&#45;&gt;Node4</title>
<path fill="none" stroke="midnightblue" d="M445.8,-199.98C430.99,-233.65 395.08,-303.09 340,-333 263.09,-374.76 157.22,-368.59 97.13,-360.31"/>
<polygon fill="midnightblue" stroke="midnightblue" points="449.02,-201.34 449.71,-190.76 442.58,-198.6 449.02,-201.34"/>
</g>
<!-- Node15&#45;&gt;Node6 -->
<g id="edge20" class="edge">
<title>Node15&#45;&gt;Node6</title>
<path fill="none" stroke="midnightblue" d="M433.63,-164.96C411.91,-148.24 375.45,-122.49 340,-108 251.39,-71.79 138.24,-56.49 83.33,-50.86"/>
<polygon fill="midnightblue" stroke="midnightblue" points="431.7,-167.9 441.73,-171.31 436.02,-162.39 431.7,-167.9"/>
</g>
<!-- Node15&#45;&gt;Node7 -->
<g id="edge22" class="edge">
<title>Node15&#45;&gt;Node7</title>
<path fill="none" stroke="midnightblue" d="M438.77,-163.39C418.76,-140.65 380.79,-101.44 340,-80 261.73,-38.86 158.86,-21.45 99.17,-14.42"/>
<polygon fill="midnightblue" stroke="midnightblue" points="436.34,-165.94 445.52,-171.23 441.64,-161.37 436.34,-165.94"/>
</g>
<!-- Node15&#45;&gt;Node8 -->
<g id="edge23" class="edge">
<title>Node15&#45;&gt;Node8</title>
<path fill="none" stroke="midnightblue" d="M393.18,-192.31C348.29,-200.48 285.46,-211.36 230,-219 185.92,-225.07 135.51,-230.26 99.36,-233.67"/>
<polygon fill="midnightblue" stroke="midnightblue" points="393.84,-195.75 403.04,-190.51 392.58,-188.87 393.84,-195.75"/>
</g>
<!-- Node15&#45;&gt;Node9 -->
<g id="edge24" class="edge">
<title>Node15&#45;&gt;Node9</title>
<path fill="none" stroke="midnightblue" d="M422.51,-167.59C400.08,-158.64 368.76,-147.69 340,-143 250.08,-128.35 225.55,-132.94 135,-143 118.26,-144.86 100,-148.73 84.74,-152.49"/>
<polygon fill="midnightblue" stroke="midnightblue" points="421.27,-170.87 431.85,-171.41 423.92,-164.39 421.27,-170.87"/>
</g>
<!-- Node15&#45;&gt;Node10 -->
<g id="edge25" class="edge">
<title>Node15&#45;&gt;Node10</title>
<path fill="none" stroke="midnightblue" d="M420.09,-194.27C397.7,-202.8 367.41,-213.61 340,-221 256.27,-243.57 156.51,-260.36 98.64,-269.14"/>
<polygon fill="midnightblue" stroke="midnightblue" points="421.41,-197.52 429.48,-190.66 418.89,-190.99 421.41,-197.52"/>
</g>
<!-- Node15&#45;&gt;Node13 -->
<g id="edge26" class="edge">
<title>Node15&#45;&gt;Node13</title>
<path fill="none" stroke="midnightblue" d="M427.05,-166.63C404.54,-155.01 371,-139.14 340,-130 249.3,-103.27 137.57,-92.16 83.25,-88.08"/>
<polygon fill="midnightblue" stroke="midnightblue" points="425.51,-169.77 435.99,-171.32 428.76,-163.58 425.51,-169.77"/>
</g>
<!-- Node15&#45;&gt;Node16 -->
<g id="edge27" class="edge">
<title>Node15&#45;&gt;Node16</title>
<path fill="none" stroke="midnightblue" d="M437.64,-198.01C416.43,-220.32 377.18,-260.14 340,-290 333.67,-295.08 326.28,-300.14 319.84,-304.3"/>
<polygon fill="midnightblue" stroke="midnightblue" points="440.28,-200.31 444.6,-190.63 435.19,-195.5 440.28,-200.31"/>
</g>
<!-- Node18 -->
<g id="node18" class="node">
<title>Node18</title>
<g id="a_node18"><a xlink:href="group__tools__drafting__operation.html#gabd9d0d4e3819d3bdec5e3649c8ad2c79" target="_top" xlink:title="Construct a text table that is populated by predefined zones.">
<polygon fill="white" stroke="black" points="266,-152.5 266,-171.5 340,-171.5 340,-152.5 266,-152.5"/>
<text text-anchor="middle" x="303" y="-159.5" font-family="Helvetica,sans-Serif" font-size="10.00">draft_ztable</text>
</a>
</g>
</g>
<!-- Node15&#45;&gt;Node18 -->
<g id="edge33" class="edge">
<title>Node15&#45;&gt;Node18</title>
<path fill="none" stroke="midnightblue" d="M368.11,-170.15C358.38,-168.91 348.89,-167.7 340.33,-166.62"/>
<polygon fill="midnightblue" stroke="midnightblue" points="367.95,-173.66 378.31,-171.44 368.83,-166.71 367.95,-173.66"/>
</g>
<!-- Node17 -->
<g id="node17" class="node">
<title>Node17</title>
<g id="a_node17"><a xlink:href="group__tools__drafting__operation.html#gac1b780633ac5e2874a8a00177d98b305" target="_top" xlink:title="Construct a text note with optional heading and boarder.">
<polygon fill="white" stroke="black" points="149.5,-304.5 149.5,-323.5 215.5,-323.5 215.5,-304.5 149.5,-304.5"/>
<text text-anchor="middle" x="182.5" y="-311.5" font-family="Helvetica,sans-Serif" font-size="10.00">draft_note</text>
</a>
</g>
</g>
<!-- Node16&#45;&gt;Node17 -->
<g id="edge28" class="edge">
<title>Node16&#45;&gt;Node17</title>
<path fill="none" stroke="midnightblue" d="M258.33,-314C244.18,-314 228.74,-314 215.59,-314"/>
<polygon fill="midnightblue" stroke="midnightblue" points="258.36,-317.5 268.36,-314 258.36,-310.5 258.36,-317.5"/>
</g>
<!-- Node17&#45;&gt;Node4 -->
<g id="edge29" class="edge">
<title>Node17&#45;&gt;Node4</title>
<path fill="none" stroke="midnightblue" d="M139.71,-326.12C121.56,-331.39 100.62,-337.46 83.58,-342.4"/>
<polygon fill="midnightblue" stroke="midnightblue" points="140.82,-329.44 149.45,-323.3 138.87,-322.72 140.82,-329.44"/>
</g>
<!-- Node17&#45;&gt;Node8 -->
<g id="edge30" class="edge">
<title>Node17&#45;&gt;Node8</title>
<path fill="none" stroke="midnightblue" d="M161.31,-298.08C145.11,-285.79 121.43,-268.94 99,-257 92.45,-253.52 85.12,-250.32 78.19,-247.57"/>
<polygon fill="midnightblue" stroke="midnightblue" points="159.43,-301.05 169.49,-304.37 163.7,-295.5 159.43,-301.05"/>
</g>
<!-- Node17&#45;&gt;Node9 -->
<g id="edge31" class="edge">
<title>Node17&#45;&gt;Node9</title>
<path fill="none" stroke="midnightblue" d="M174.12,-294.49C162.35,-265.86 136.77,-212.46 99,-181 94.41,-177.18 88.97,-174.07 83.41,-171.55"/>
<polygon fill="midnightblue" stroke="midnightblue" points="171.01,-296.15 177.94,-304.16 177.51,-293.57 171.01,-296.15"/>
</g>
<!-- Node17&#45;&gt;Node10 -->
<g id="edge32" class="edge">
<title>Node17&#45;&gt;Node10</title>
<path fill="none" stroke="midnightblue" d="M139.71,-301.88C121.56,-296.61 100.62,-290.54 83.58,-285.6"/>
<polygon fill="midnightblue" stroke="midnightblue" points="138.87,-305.28 149.45,-304.7 140.82,-298.56 138.87,-305.28"/>
</g>
<!-- Node19 -->
<g id="node19" class="node">
<title>Node19</title>
<g id="a_node19"><a xlink:href="group__tools__drafting__operation.html#ga172b76b2027c863e672bc7a84dabea5e" target="_top" xlink:title="Construct a sheet title block.">
<polygon fill="white" stroke="black" points="135,-152.5 135,-171.5 230,-171.5 230,-152.5 135,-152.5"/>
<text text-anchor="middle" x="182.5" y="-159.5" font-family="Helvetica,sans-Serif" font-size="10.00">draft_title_block</text>
</a>
</g>
</g>
<!-- Node18&#45;&gt;Node19 -->
<g id="edge34" class="edge">
<title>Node18&#45;&gt;Node19</title>
<path fill="none" stroke="midnightblue" d="M255.57,-162C247.3,-162 238.69,-162 230.41,-162"/>
<polygon fill="midnightblue" stroke="midnightblue" points="255.8,-165.5 265.8,-162 255.8,-158.5 255.8,-165.5"/>
</g>
</g>
</svg>
