<?xml version="1.0" encoding="UTF-8" standalone="no"?>
<!DOCTYPE svg PUBLIC "-//W3C//DTD SVG 1.1//EN"
 "http://www.w3.org/Graphics/SVG/1.1/DTD/svg11.dtd">
<!-- Generated by graphviz version 2.43.0 (0)
 -->
<!-- Title: defined_eon_or Pages: 1 -->
<svg width="531pt" height="340pt"
 viewBox="0.00 0.00 531.00 340.25" xmlns="http://www.w3.org/2000/svg" xmlns:xlink="http://www.w3.org/1999/xlink">
<g id="graph0" class="graph" transform="scale(1 1) rotate(0) translate(4 336.25)">
<title>defined_eon_or</title>
<polygon fill="white" stroke="transparent" points="-4,4 -4,-336.25 527,-336.25 527,4 -4,4"/>
<!-- Node1 -->
<g id="node1" class="node">
<title>Node1</title>
<g id="a_node1"><a xlink:title="Return the list element or scalar numeric value, if either is defined, otherwise the default value.">
<polygon fill="#bfbfbf" stroke="black" points="432,-228.5 432,-247.5 523,-247.5 523,-228.5 432,-228.5"/>
<text text-anchor="middle" x="477.5" y="-235.5" font-family="Helvetica,sans-Serif" font-size="10.00">defined_eon_or</text>
</a>
</g>
</g>
<!-- Node2 -->
<g id="node2" class="node">
<title>Node2</title>
<g id="a_node2"><a xlink:href="group__parts__3d__fastener__hinges.html#ga1ffc82e0bbac466d1dc4fbe6c214b765" target="_top" xlink:title="A print&#45;in&#45;place bi&#45;fold hinge generator.">
<polygon fill="white" stroke="black" points="33.5,-285.5 33.5,-304.5 92.5,-304.5 92.5,-285.5 33.5,-285.5"/>
<text text-anchor="middle" x="63" y="-292.5" font-family="Helvetica,sans-Serif" font-size="10.00">hinge_bf</text>
</a>
</g>
</g>
<!-- Node1&#45;&gt;Node2 -->
<g id="edge1" class="edge">
<title>Node1&#45;&gt;Node2</title>
<path fill="none" stroke="midnightblue" d="M463.84,-255.66C449.67,-273.74 424.88,-300.74 396,-312 290.6,-353.08 151.98,-321.29 92.79,-304.13"/>
<polygon fill="midnightblue" stroke="midnightblue" points="466.68,-257.7 469.91,-247.61 461.09,-253.48 466.68,-257.7"/>
</g>
<!-- Node3 -->
<g id="node3" class="node">
<title>Node3</title>
<g id="a_node3"><a xlink:href="group__parts__3d__fastener__hinges.html#ga7e350f2c55116094108b99dd8103fc04" target="_top" xlink:title="A print&#45;in&#45;place single&#45;fold hinge generator.">
<polygon fill="white" stroke="black" points="187,-190.5 187,-209.5 245,-209.5 245,-190.5 187,-190.5"/>
<text text-anchor="middle" x="216" y="-197.5" font-family="Helvetica,sans-Serif" font-size="10.00">hinge_sf</text>
</a>
</g>
</g>
<!-- Node1&#45;&gt;Node3 -->
<g id="edge2" class="edge">
<title>Node1&#45;&gt;Node3</title>
<path fill="none" stroke="midnightblue" d="M421.84,-228.2C413.2,-226.74 404.36,-225.29 396,-224 342.85,-215.82 280.58,-207.83 245.26,-203.44"/>
<polygon fill="midnightblue" stroke="midnightblue" points="421.39,-231.67 431.84,-229.91 422.58,-224.77 421.39,-231.67"/>
</g>
<!-- Node4 -->
<g id="node4" class="node">
<title>Node4</title>
<g id="a_node4"><a xlink:href="group__parts__3d__enclosure__mounts.html#ga0cbac43259ec43fff7785057277bcef3" target="_top" xlink:title="A screw mount post with screw bore and optional fins.">
<polygon fill="white" stroke="black" points="162,-266.5 162,-285.5 270,-285.5 270,-266.5 162,-266.5"/>
<text text-anchor="middle" x="216" y="-273.5" font-family="Helvetica,sans-Serif" font-size="10.00">mount_screw_post</text>
</a>
</g>
</g>
<!-- Node1&#45;&gt;Node4 -->
<g id="edge4" class="edge">
<title>Node1&#45;&gt;Node4</title>
<path fill="none" stroke="midnightblue" d="M459.68,-254.7C444.49,-268.52 420.78,-287.11 396,-295 344.03,-311.54 279.74,-296.7 244.07,-285.58"/>
<polygon fill="midnightblue" stroke="midnightblue" points="462.32,-257.03 467.19,-247.62 457.52,-251.93 462.32,-257.03"/>
</g>
<!-- Node5 -->
<g id="node5" class="node">
<title>Node5</title>
<g id="a_node5"><a xlink:href="group__parts__3d__enclosure__mounts.html#ga1a26f176e04863a2bf335960a52b39a8" target="_top" xlink:title="A screw mount slot with optional cover envelope.">
<polygon fill="white" stroke="black" points="163.5,-152.5 163.5,-171.5 268.5,-171.5 268.5,-152.5 163.5,-152.5"/>
<text text-anchor="middle" x="216" y="-159.5" font-family="Helvetica,sans-Serif" font-size="10.00">mount_screw_slot</text>
</a>
</g>
</g>
<!-- Node1&#45;&gt;Node5 -->
<g id="edge5" class="edge">
<title>Node1&#45;&gt;Node5</title>
<path fill="none" stroke="midnightblue" d="M444.28,-224.56C429.69,-218.75 412.12,-212.11 396,-207 350.64,-192.62 297.67,-179.78 261.19,-171.54"/>
<polygon fill="midnightblue" stroke="midnightblue" points="443.28,-227.93 453.86,-228.43 445.9,-221.44 443.28,-227.93"/>
</g>
<!-- Node6 -->
<g id="node6" class="node">
<title>Node6</title>
<g id="a_node6"><a xlink:href="group__parts__3d__enclosure__mounts.html#gabc7cd409ab1e2e4b6b894de3cf06658f" target="_top" xlink:title="A multi&#45;directional screw mount slot with optional cover envelope.">
<polygon fill="white" stroke="black" points="0,-190.5 0,-209.5 126,-209.5 126,-190.5 0,-190.5"/>
<text text-anchor="middle" x="63" y="-197.5" font-family="Helvetica,sans-Serif" font-size="10.00">mount_screw_slot_md</text>
</a>
</g>
</g>
<!-- Node1&#45;&gt;Node6 -->
<g id="edge8" class="edge">
<title>Node1&#45;&gt;Node6</title>
<path fill="none" stroke="midnightblue" d="M421.7,-236.87C358.79,-235.06 252.6,-230.47 162,-219 143.77,-216.69 123.84,-213.04 106.74,-209.55"/>
<polygon fill="midnightblue" stroke="midnightblue" points="421.71,-240.37 431.8,-237.14 421.9,-233.37 421.71,-240.37"/>
</g>
<!-- Node8 -->
<g id="node8" class="node">
<title>Node8</title>
<g id="a_node8"><a xlink:href="group__models__3d__fastener__screws.html#ga57dcfe1241e15eaa58ccd08891504a93" target="_top" xlink:title="Flat and beveled&#45;head fastener bore with nut, nut slot, and bore tolerance.">
<polygon fill="white" stroke="black" points="315,-114.5 315,-133.5 387,-133.5 387,-114.5 315,-114.5"/>
<text text-anchor="middle" x="351" y="-121.5" font-family="Helvetica,sans-Serif" font-size="10.00">screw_bore</text>
</a>
</g>
</g>
<!-- Node1&#45;&gt;Node8 -->
<g id="edge9" class="edge">
<title>Node1&#45;&gt;Node8</title>
<path fill="none" stroke="midnightblue" d="M463.46,-220.07C448.68,-200.62 423.09,-169.47 396,-148 389.04,-142.49 380.65,-137.56 373.06,-133.62"/>
<polygon fill="midnightblue" stroke="midnightblue" points="460.85,-222.43 469.64,-228.35 466.46,-218.24 460.85,-222.43"/>
</g>
<!-- Node12 -->
<g id="node12" class="node">
<title>Node12</title>
<g id="a_node12"><a xlink:href="group__models__3d__fastener__screws.html#gaad990187680f7ac947e555483d854bfa" target="_top" xlink:title="Gapped fastener bore with engagement cylinders for self&#45;forming threads.">
<polygon fill="white" stroke="black" points="306,-266.5 306,-285.5 396,-285.5 396,-266.5 306,-266.5"/>
<text text-anchor="middle" x="351" y="-273.5" font-family="Helvetica,sans-Serif" font-size="10.00">screw_bore_tsf</text>
</a>
</g>
</g>
<!-- Node1&#45;&gt;Node12 -->
<g id="edge19" class="edge">
<title>Node1&#45;&gt;Node12</title>
<path fill="none" stroke="midnightblue" d="M435.43,-250.54C418.49,-255.7 399.18,-261.6 383.41,-266.41"/>
<polygon fill="midnightblue" stroke="midnightblue" points="436.54,-253.86 445.08,-247.59 434.5,-247.16 436.54,-253.86"/>
</g>
<!-- Node3&#45;&gt;Node2 -->
<g id="edge3" class="edge">
<title>Node3&#45;&gt;Node2</title>
<path fill="none" stroke="midnightblue" d="M191.13,-215.02C159.8,-234.73 105.72,-268.75 79.35,-285.34"/>
<polygon fill="midnightblue" stroke="midnightblue" points="193.09,-217.92 199.69,-209.63 189.36,-211.99 193.09,-217.92"/>
</g>
<!-- Node5&#45;&gt;Node6 -->
<g id="edge6" class="edge">
<title>Node5&#45;&gt;Node6</title>
<path fill="none" stroke="midnightblue" d="M167.16,-174.04C146.06,-179.35 121.62,-185.5 101.83,-190.48"/>
<polygon fill="midnightblue" stroke="midnightblue" points="168.05,-177.42 176.9,-171.59 166.34,-170.64 168.05,-177.42"/>
</g>
<!-- Node7 -->
<g id="node7" class="node">
<title>Node7</title>
<g id="a_node7"><a xlink:href="group__parts__3d__enclosure__power__strip.html#ga191779dedf39e4fd769a8dc96b0f8c9e" target="_top" xlink:title="A power strip generator for single gang electrical receptacles.">
<polygon fill="white" stroke="black" points="18,-76.5 18,-95.5 108,-95.5 108,-76.5 18,-76.5"/>
<text text-anchor="middle" x="63" y="-83.5" font-family="Helvetica,sans-Serif" font-size="10.00">power_strip_sg</text>
</a>
</g>
</g>
<!-- Node5&#45;&gt;Node7 -->
<g id="edge7" class="edge">
<title>Node5&#45;&gt;Node7</title>
<path fill="none" stroke="midnightblue" d="M175.85,-148.88C171.13,-147.03 166.42,-145.06 162,-143 131.13,-128.63 97.23,-107.65 78.49,-95.56"/>
<polygon fill="midnightblue" stroke="midnightblue" points="174.86,-152.25 185.46,-152.49 177.32,-145.7 174.86,-152.25"/>
</g>
<!-- Node8&#45;&gt;Node3 -->
<g id="edge13" class="edge">
<title>Node8&#45;&gt;Node3</title>
<path fill="none" stroke="midnightblue" d="M330.86,-139.93C315.24,-152.36 292.19,-169.4 270,-181 262.2,-185.08 253.34,-188.63 245.12,-191.53"/>
<polygon fill="midnightblue" stroke="midnightblue" points="333.16,-142.58 338.73,-133.57 328.75,-137.14 333.16,-142.58"/>
</g>
<!-- Node8&#45;&gt;Node4 -->
<g id="edge14" class="edge">
<title>Node8&#45;&gt;Node4</title>
<path fill="none" stroke="midnightblue" d="M335.73,-141.46C319.92,-160.68 293.55,-192.4 270,-219 254.95,-236 236.83,-255.24 226.15,-266.45"/>
<polygon fill="midnightblue" stroke="midnightblue" points="338.57,-143.52 342.2,-133.57 333.16,-139.08 338.57,-143.52"/>
</g>
<!-- Node8&#45;&gt;Node5 -->
<g id="edge15" class="edge">
<title>Node8&#45;&gt;Node5</title>
<path fill="none" stroke="midnightblue" d="M306.63,-136.39C288.42,-141.59 267.56,-147.55 250.55,-152.41"/>
<polygon fill="midnightblue" stroke="midnightblue" points="307.78,-139.7 316.44,-133.59 305.86,-132.97 307.78,-139.7"/>
</g>
<!-- Node8&#45;&gt;Node7 -->
<g id="edge18" class="edge">
<title>Node8&#45;&gt;Node7</title>
<path fill="none" stroke="midnightblue" d="M333.31,-107.3C318.22,-93.48 294.67,-74.89 270,-67 208.94,-47.47 132.88,-64.41 92.42,-76.46"/>
<polygon fill="midnightblue" stroke="midnightblue" points="331.1,-110.03 340.76,-114.38 335.93,-104.96 331.1,-110.03"/>
</g>
<!-- Node9 -->
<g id="node9" class="node">
<title>Node9</title>
<g id="a_node9"><a xlink:href="group__parts__3d__fastener__catch__latch.html#ga26a9933aa6d33599daab1be8d632c430" target="_top" xlink:title="A catch latch generator with configurable profile.">
<polygon fill="white" stroke="black" points="180,-76.5 180,-95.5 252,-95.5 252,-76.5 180,-76.5"/>
<text text-anchor="middle" x="216" y="-83.5" font-family="Helvetica,sans-Serif" font-size="10.00">catch_latch</text>
</a>
</g>
</g>
<!-- Node8&#45;&gt;Node9 -->
<g id="edge10" class="edge">
<title>Node8&#45;&gt;Node9</title>
<path fill="none" stroke="midnightblue" d="M306.63,-111.61C288.42,-106.41 267.56,-100.45 250.55,-95.59"/>
<polygon fill="midnightblue" stroke="midnightblue" points="305.86,-115.03 316.44,-114.41 307.78,-108.3 305.86,-115.03"/>
</g>
<!-- Node10 -->
<g id="node10" class="node">
<title>Node10</title>
<g id="a_node10"><a xlink:href="group__parts__3d__enclosure__clamps.html#ga8fd874789132e42e5470328d18560f1a" target="_top" xlink:title="A clamp, bushing, and/or grip for wire/hose wall penetrations.">
<polygon fill="white" stroke="black" points="184.5,-0.5 184.5,-19.5 247.5,-19.5 247.5,-0.5 184.5,-0.5"/>
<text text-anchor="middle" x="216" y="-7.5" font-family="Helvetica,sans-Serif" font-size="10.00">clamp_cg</text>
</a>
</g>
</g>
<!-- Node8&#45;&gt;Node10 -->
<g id="edge11" class="edge">
<title>Node8&#45;&gt;Node10</title>
<path fill="none" stroke="midnightblue" d="M337.59,-105.99C323.21,-86.21 297.9,-54.55 270,-34 262.11,-28.19 252.59,-23.34 243.81,-19.55"/>
<polygon fill="midnightblue" stroke="midnightblue" points="334.92,-108.27 343.56,-114.4 340.62,-104.22 334.92,-108.27"/>
</g>
<!-- Node11 -->
<g id="node11" class="node">
<title>Node11</title>
<g id="a_node11"><a xlink:href="group__parts__3d__enclosure__mounts.html#gae1cc60f3ff242fb07c5a50d34be8c051" target="_top" xlink:title="A mount tab with screw hole and support brace.">
<polygon fill="white" stroke="black" points="164.5,-114.5 164.5,-133.5 267.5,-133.5 267.5,-114.5 164.5,-114.5"/>
<text text-anchor="middle" x="216" y="-121.5" font-family="Helvetica,sans-Serif" font-size="10.00">mount_screw_tab</text>
</a>
</g>
</g>
<!-- Node8&#45;&gt;Node11 -->
<g id="edge16" class="edge">
<title>Node8&#45;&gt;Node11</title>
<path fill="none" stroke="midnightblue" d="M304.58,-124C292.72,-124 279.85,-124 267.73,-124"/>
<polygon fill="midnightblue" stroke="midnightblue" points="304.71,-127.5 314.71,-124 304.71,-120.5 304.71,-127.5"/>
</g>
<!-- Node10&#45;&gt;Node7 -->
<g id="edge12" class="edge">
<title>Node10&#45;&gt;Node7</title>
<path fill="none" stroke="midnightblue" d="M183.74,-23.76C176.56,-27.03 168.98,-30.57 162,-34 133.3,-48.09 100.62,-65.77 81.18,-76.46"/>
<polygon fill="midnightblue" stroke="midnightblue" points="185.52,-26.8 193.2,-19.5 182.64,-20.42 185.52,-26.8"/>
</g>
<!-- Node11&#45;&gt;Node7 -->
<g id="edge17" class="edge">
<title>Node11&#45;&gt;Node7</title>
<path fill="none" stroke="midnightblue" d="M167.16,-111.96C146.06,-106.65 121.62,-100.5 101.83,-95.52"/>
<polygon fill="midnightblue" stroke="midnightblue" points="166.34,-115.36 176.9,-114.41 168.05,-108.58 166.34,-115.36"/>
</g>
<!-- Node12&#45;&gt;Node4 -->
<g id="edge20" class="edge">
<title>Node12&#45;&gt;Node4</title>
<path fill="none" stroke="midnightblue" d="M295.68,-276C287.31,-276 278.68,-276 270.33,-276"/>
<polygon fill="midnightblue" stroke="midnightblue" points="295.71,-279.5 305.71,-276 295.71,-272.5 295.71,-279.5"/>
</g>
</g>
</svg>
