<?xml version="1.0" encoding="UTF-8" standalone="no"?>
<!DOCTYPE svg PUBLIC "-//W3C//DTD SVG 1.1//EN"
 "http://www.w3.org/Graphics/SVG/1.1/DTD/svg11.dtd">
<!-- Generated by graphviz version 2.43.0 (0)
 -->
<!-- Title: mount_screw_slot Pages: 1 -->
<svg width="275pt" height="66pt"
 viewBox="0.00 0.00 275.00 66.00" xmlns="http://www.w3.org/2000/svg" xmlns:xlink="http://www.w3.org/1999/xlink">
<g id="graph0" class="graph" transform="scale(1 1) rotate(0) translate(4 62)">
<title>mount_screw_slot</title>
<polygon fill="white" stroke="transparent" points="-4,4 -4,-62 271,-62 271,4 -4,4"/>
<!-- Node1 -->
<g id="node1" class="node">
<title>Node1</title>
<g id="a_node1"><a xlink:title="A screw mount slot with optional cover envelope.">
<polygon fill="#bfbfbf" stroke="black" points="162,-19.5 162,-38.5 267,-38.5 267,-19.5 162,-19.5"/>
<text text-anchor="middle" x="214.5" y="-26.5" font-family="Helvetica,sans-Serif" font-size="10.00">mount_screw_slot</text>
</a>
</g>
</g>
<!-- Node2 -->
<g id="node2" class="node">
<title>Node2</title>
<g id="a_node2"><a xlink:href="group__parts__3d__enclosure__mounts.html#gabc7cd409ab1e2e4b6b894de3cf06658f" target="_top" xlink:title="A multi&#45;directional screw mount slot with optional cover envelope.">
<polygon fill="white" stroke="black" points="0,-38.5 0,-57.5 126,-57.5 126,-38.5 0,-38.5"/>
<text text-anchor="middle" x="63" y="-45.5" font-family="Helvetica,sans-Serif" font-size="10.00">mount_screw_slot_md</text>
</a>
</g>
</g>
<!-- Node1&#45;&gt;Node2 -->
<g id="edge1" class="edge">
<title>Node1&#45;&gt;Node2</title>
<path fill="none" stroke="midnightblue" d="M151.52,-36.88C143.11,-37.95 134.48,-39.04 126.07,-40.11"/>
<polygon fill="midnightblue" stroke="midnightblue" points="152.15,-40.32 161.63,-35.59 151.27,-33.38 152.15,-40.32"/>
</g>
<!-- Node3 -->
<g id="node3" class="node">
<title>Node3</title>
<g id="a_node3"><a xlink:href="group__parts__3d__enclosure__power__strip.html#ga191779dedf39e4fd769a8dc96b0f8c9e" target="_top" xlink:title="A power strip generator for single gang electrical receptacles.">
<polygon fill="white" stroke="black" points="18,-0.5 18,-19.5 108,-19.5 108,-0.5 18,-0.5"/>
<text text-anchor="middle" x="63" y="-7.5" font-family="Helvetica,sans-Serif" font-size="10.00">power_strip_sg</text>
</a>
</g>
</g>
<!-- Node1&#45;&gt;Node3 -->
<g id="edge2" class="edge">
<title>Node1&#45;&gt;Node3</title>
<path fill="none" stroke="midnightblue" d="M151.7,-21.15C137.15,-19.3 121.92,-17.36 108.32,-15.63"/>
<polygon fill="midnightblue" stroke="midnightblue" points="151.27,-24.62 161.63,-22.41 152.15,-17.68 151.27,-24.62"/>
</g>
</g>
</svg>
