<?xml version="1.0" encoding="UTF-8" standalone="no"?>
<!DOCTYPE svg PUBLIC "-//W3C//DTD SVG 1.1//EN"
 "http://www.w3.org/Graphics/SVG/1.1/DTD/svg11.dtd">
<!-- Generated by graphviz version 2.43.0 (0)
 -->
<!-- Title: hinge_bf Pages: 1 -->
<svg width="495pt" height="712pt"
 viewBox="0.00 0.00 495.00 712.00" xmlns="http://www.w3.org/2000/svg" xmlns:xlink="http://www.w3.org/1999/xlink">
<g id="graph0" class="graph" transform="scale(1 1) rotate(0) translate(4 708)">
<title>hinge_bf</title>
<polygon fill="white" stroke="transparent" points="-4,4 -4,-708 491,-708 491,4 -4,4"/>
<!-- Node1 -->
<g id="node1" class="node">
<title>Node1</title>
<g id="a_node1"><a xlink:title="A print&#45;in&#45;place bi&#45;fold hinge generator.">
<polygon fill="#bfbfbf" stroke="black" points="0,-304.5 0,-323.5 59,-323.5 59,-304.5 0,-304.5"/>
<text text-anchor="middle" x="29.5" y="-311.5" font-family="Helvetica,sans-Serif" font-size="10.00">hinge_bf</text>
</a>
</g>
</g>
<!-- Node2 -->
<g id="node2" class="node">
<title>Node2</title>
<g id="a_node2"><a xlink:href="group__datatypes__binary.html#ga09df58c7ea95d9eaa3447a880fd1b52c" target="_top" xlink:title="Base&#45;2 binary AND operation for integers.">
<polygon fill="white" stroke="black" points="95,-608.5 95,-627.5 166,-627.5 166,-608.5 95,-608.5"/>
<text text-anchor="middle" x="130.5" y="-615.5" font-family="Helvetica,sans-Serif" font-size="10.00">binary_and</text>
</a>
</g>
</g>
<!-- Node1&#45;&gt;Node2 -->
<g id="edge1" class="edge">
<title>Node1&#45;&gt;Node2</title>
<path fill="none" stroke="midnightblue" d="M30.32,-323.66C30.07,-361.65 33.51,-503.1 95,-594 97.02,-596.99 99.55,-599.72 102.32,-602.18"/>
<polygon fill="midnightblue" stroke="midnightblue" points="100.43,-605.14 110.51,-608.39 104.66,-599.56 100.43,-605.14"/>
</g>
<!-- Node3 -->
<g id="node3" class="node">
<title>Node3</title>
<g id="a_node3"><a xlink:href="group__datatypes__binary.html#ga7ce4ed94d9b389ff817ea219918b8732" target="_top" xlink:title="Test if a binary bit position of an integer value equals a test bit.">
<polygon fill="white" stroke="black" points="217,-684.5 217,-703.5 296,-703.5 296,-684.5 217,-684.5"/>
<text text-anchor="middle" x="256.5" y="-691.5" font-family="Helvetica,sans-Serif" font-size="10.00">binary_bit_is</text>
</a>
</g>
</g>
<!-- Node1&#45;&gt;Node3 -->
<g id="edge2" class="edge">
<title>Node1&#45;&gt;Node3</title>
<path fill="none" stroke="midnightblue" d="M30.59,-323.88C31.41,-359.12 38.4,-480.51 95,-556 117.13,-585.52 140.68,-572.17 166,-599 189.47,-623.87 177.58,-643.06 202,-667 207.04,-671.94 213.17,-676.16 219.45,-679.7"/>
<polygon fill="midnightblue" stroke="midnightblue" points="218.16,-682.97 228.66,-684.38 221.34,-676.73 218.16,-682.97"/>
</g>
<!-- Node4 -->
<g id="node4" class="node">
<title>Node4</title>
<g id="a_node4"><a xlink:href="group__datatypes__binary.html#gaa4aca09deee9a250a6bb55facb2357a8" target="_top" xlink:title="Base&#45;2 binary right&#45;shift operation for an integer.">
<polygon fill="white" stroke="black" points="95,-0.5 95,-19.5 166,-19.5 166,-0.5 95,-0.5"/>
<text text-anchor="middle" x="130.5" y="-7.5" font-family="Helvetica,sans-Serif" font-size="10.00">binary_ishr</text>
</a>
</g>
</g>
<!-- Node1&#45;&gt;Node4 -->
<g id="edge3" class="edge">
<title>Node1&#45;&gt;Node4</title>
<path fill="none" stroke="midnightblue" d="M30.32,-304.34C30.07,-266.35 33.51,-124.9 95,-34 97.02,-31.01 99.55,-28.28 102.32,-25.82"/>
<polygon fill="midnightblue" stroke="midnightblue" points="104.66,-28.44 110.51,-19.61 100.43,-22.86 104.66,-28.44"/>
</g>
<!-- Node5 -->
<g id="node5" class="node">
<title>Node5</title>
<g id="a_node5"><a xlink:href="group__datatypes__iterable__operate.html#ga3d37c2b0067d1661724bd89955c8f6ce" target="_top" xlink:title="Return an element of an iterable when it exists or a default value otherwise.">
<polygon fill="white" stroke="black" points="377.5,-437.5 377.5,-456.5 456.5,-456.5 456.5,-437.5 377.5,-437.5"/>
<text text-anchor="middle" x="417" y="-444.5" font-family="Helvetica,sans-Serif" font-size="10.00">defined_e_or</text>
</a>
</g>
</g>
<!-- Node1&#45;&gt;Node5 -->
<g id="edge4" class="edge">
<title>Node1&#45;&gt;Node5</title>
<path fill="none" stroke="midnightblue" d="M34.6,-323.56C50.18,-358.45 109.5,-479.25 202,-523 245.79,-543.71 264.91,-537.93 311,-523 346.78,-511.41 380.59,-482.56 399.76,-463.93"/>
<polygon fill="midnightblue" stroke="midnightblue" points="402.44,-466.19 407.04,-456.65 397.49,-461.25 402.44,-466.19"/>
</g>
<!-- Node6 -->
<g id="node6" class="node">
<title>Node6</title>
<g id="a_node6"><a xlink:href="group__datatypes__iterable__operate.html#gaa10da05023bd79eec85459298bc937c2" target="_top" xlink:title="Return the list element or scalar numeric value, if either is defined, otherwise the default value.">
<polygon fill="white" stroke="black" points="371.5,-152.5 371.5,-171.5 462.5,-171.5 462.5,-152.5 371.5,-152.5"/>
<text text-anchor="middle" x="417" y="-159.5" font-family="Helvetica,sans-Serif" font-size="10.00">defined_eon_or</text>
</a>
</g>
</g>
<!-- Node1&#45;&gt;Node6 -->
<g id="edge5" class="edge">
<title>Node1&#45;&gt;Node6</title>
<path fill="none" stroke="midnightblue" d="M30.5,-304.29C31.03,-271.84 37.33,-166.21 95,-112 165.49,-45.74 219.05,-54.9 311,-85 346.9,-96.75 380.68,-125.98 399.8,-144.85"/>
<polygon fill="midnightblue" stroke="midnightblue" points="397.56,-147.56 407.07,-152.23 402.54,-142.65 397.56,-147.56"/>
</g>
<!-- Node7 -->
<g id="node7" class="node">
<title>Node7</title>
<g id="a_node7"><a xlink:href="group__parts__3d__fastener__hinges.html#ga7e350f2c55116094108b99dd8103fc04" target="_top" xlink:title="A print&#45;in&#45;place single&#45;fold hinge generator.">
<polygon fill="white" stroke="black" points="101.5,-361.5 101.5,-380.5 159.5,-380.5 159.5,-361.5 101.5,-361.5"/>
<text text-anchor="middle" x="130.5" y="-368.5" font-family="Helvetica,sans-Serif" font-size="10.00">hinge_sf</text>
</a>
</g>
</g>
<!-- Node1&#45;&gt;Node7 -->
<g id="edge6" class="edge">
<title>Node1&#45;&gt;Node7</title>
<path fill="none" stroke="midnightblue" d="M47.29,-323.67C62.89,-332.65 86.33,-346.14 104.19,-356.43"/>
<polygon fill="midnightblue" stroke="midnightblue" points="102.54,-359.52 112.95,-361.47 106.03,-353.45 102.54,-359.52"/>
</g>
<!-- Node22 -->
<g id="node22" class="node">
<title>Node22</title>
<g id="a_node22"><a xlink:href="group__datatypes__list__operate.html#ga7b8e6f2bbfa72ae61e39377e5ca6b5be" target="_top" xlink:title="Select specified element from list or return a default.">
<polygon fill="white" stroke="black" points="387.5,-190.5 387.5,-209.5 446.5,-209.5 446.5,-190.5 387.5,-190.5"/>
<text text-anchor="middle" x="417" y="-197.5" font-family="Helvetica,sans-Serif" font-size="10.00">select_ci</text>
</a>
</g>
</g>
<!-- Node1&#45;&gt;Node22 -->
<g id="edge37" class="edge">
<title>Node1&#45;&gt;Node22</title>
<path fill="none" stroke="midnightblue" d="M32.77,-304.23C38.96,-279.41 58.15,-212.94 95,-171 131.88,-129.03 148.25,-120.25 202,-105 248.61,-91.78 270.06,-79.09 311,-105 342.58,-124.99 318.38,-156.96 347,-181 355.51,-188.15 366.49,-192.62 377.18,-195.41"/>
<polygon fill="midnightblue" stroke="midnightblue" points="376.74,-198.9 387.25,-197.61 378.23,-192.06 376.74,-198.9"/>
</g>
<!-- Node23 -->
<g id="node23" class="node">
<title>Node23</title>
<g id="a_node23"><a xlink:href="group__datatypes__list__operate.html#gab842ea235bf5fc40a14512083b49c8d2" target="_top" xlink:title="Convert a list of values to a concatenated string.">
<polygon fill="white" stroke="black" points="240.5,-114.5 240.5,-133.5 272.5,-133.5 272.5,-114.5 240.5,-114.5"/>
<text text-anchor="middle" x="256.5" y="-121.5" font-family="Helvetica,sans-Serif" font-size="10.00">strl</text>
</a>
</g>
</g>
<!-- Node1&#45;&gt;Node23 -->
<g id="edge38" class="edge">
<title>Node1&#45;&gt;Node23</title>
<path fill="none" stroke="midnightblue" d="M38.47,-304.18C61.36,-276.48 130.3,-196.57 202,-148 210.79,-142.05 221.3,-136.96 230.66,-133.02"/>
<polygon fill="midnightblue" stroke="midnightblue" points="232.24,-136.16 240.24,-129.22 229.66,-129.66 232.24,-136.16"/>
</g>
<!-- Node7&#45;&gt;Node3 -->
<g id="edge7" class="edge">
<title>Node7&#45;&gt;Node3</title>
<path fill="none" stroke="midnightblue" d="M133.27,-380.74C142.2,-429.62 182.73,-646.66 202,-670 205.08,-673.73 208.86,-676.9 212.97,-679.59"/>
<polygon fill="midnightblue" stroke="midnightblue" points="211.32,-682.68 221.76,-684.47 214.72,-676.56 211.32,-682.68"/>
</g>
<!-- Node7&#45;&gt;Node5 -->
<g id="edge14" class="edge">
<title>Node7&#45;&gt;Node5</title>
<path fill="none" stroke="midnightblue" d="M159.78,-375.73C195.4,-381.98 258.31,-393.97 311,-409 335.51,-415.99 362.54,-425.83 383.04,-433.74"/>
<polygon fill="midnightblue" stroke="midnightblue" points="381.95,-437.07 392.54,-437.45 384.5,-430.55 381.95,-437.07"/>
</g>
<!-- Node7&#45;&gt;Node6 -->
<g id="edge15" class="edge">
<title>Node7&#45;&gt;Node6</title>
<path fill="none" stroke="midnightblue" d="M131.82,-361.21C133.43,-329.54 143.18,-229.31 202,-184 247.07,-149.28 314.27,-148.09 361.31,-152.82"/>
<polygon fill="midnightblue" stroke="midnightblue" points="360.99,-156.31 371.32,-153.95 361.77,-149.35 360.99,-156.31"/>
</g>
<!-- Node8 -->
<g id="node8" class="node">
<title>Node8</title>
<g id="a_node8"><a xlink:href="group__shapes__basic__3d.html#ga8a71b8cd52ae5ef7a2510ff579734108" target="_top" xlink:title="A cone.">
<polygon fill="white" stroke="black" points="236.5,-608.5 236.5,-627.5 276.5,-627.5 276.5,-608.5 236.5,-608.5"/>
<text text-anchor="middle" x="256.5" y="-615.5" font-family="Helvetica,sans-Serif" font-size="10.00">cone</text>
</a>
</g>
</g>
<!-- Node7&#45;&gt;Node8 -->
<g id="edge8" class="edge">
<title>Node7&#45;&gt;Node8</title>
<path fill="none" stroke="midnightblue" d="M131.58,-380.75C132.38,-415.41 139.75,-534.12 202,-599 208.54,-605.82 217.69,-610.2 226.58,-613"/>
<polygon fill="midnightblue" stroke="midnightblue" points="225.78,-616.41 236.34,-615.55 227.55,-609.64 225.78,-616.41"/>
</g>
<!-- Node10 -->
<g id="node10" class="node">
<title>Node10</title>
<g id="a_node10"><a xlink:href="group__datatypes__scalar__test.html#ga51d7fdb800c10f4b7479d23b89ab8d22" target="_top" xlink:title="Test if a value is defined.">
<polygon fill="white" stroke="black" points="384,-684.5 384,-703.5 450,-703.5 450,-684.5 384,-684.5"/>
<text text-anchor="middle" x="417" y="-691.5" font-family="Helvetica,sans-Serif" font-size="10.00">is_defined</text>
</a>
</g>
</g>
<!-- Node7&#45;&gt;Node10 -->
<g id="edge22" class="edge">
<title>Node7&#45;&gt;Node10</title>
<path fill="none" stroke="midnightblue" d="M132.76,-380.66C138.57,-423.88 164.19,-599.14 202,-637 214.21,-649.22 314.73,-672.37 373.56,-685.09"/>
<polygon fill="midnightblue" stroke="midnightblue" points="373.17,-688.58 383.68,-687.26 374.64,-681.74 373.17,-688.58"/>
</g>
<!-- Node13 -->
<g id="node13" class="node">
<title>Node13</title>
<g id="a_node13"><a xlink:href="group__tools__extrude.html#gab2442cfaf1ad44d6e295ab0979d9e03d" target="_top" xlink:title="Linearly extrude a 2d shape with uniformly&#45;spaced profile scaling.">
<polygon fill="white" stroke="black" points="202,-342.5 202,-361.5 311,-361.5 311,-342.5 202,-342.5"/>
<text text-anchor="middle" x="256.5" y="-349.5" font-family="Helvetica,sans-Serif" font-size="10.00">extrude_linear_uss</text>
</a>
</g>
</g>
<!-- Node7&#45;&gt;Node13 -->
<g id="edge16" class="edge">
<title>Node7&#45;&gt;Node13</title>
<path fill="none" stroke="midnightblue" d="M159.64,-366.69C169.16,-365.23 180.21,-363.54 191.36,-361.83"/>
<polygon fill="midnightblue" stroke="midnightblue" points="192.23,-365.24 201.58,-360.26 191.17,-358.32 192.23,-365.24"/>
</g>
<!-- Node14 -->
<g id="node14" class="node">
<title>Node14</title>
<g id="a_node14"><a xlink:href="group__datatypes__iterable__operate.html#gaccab3e37e43cb1d882713b3f3d6d9e1b" target="_top" xlink:title="Return the first element of an iterable value.">
<polygon fill="white" stroke="black" points="399.5,-304.5 399.5,-323.5 434.5,-323.5 434.5,-304.5 399.5,-304.5"/>
<text text-anchor="middle" x="417" y="-311.5" font-family="Helvetica,sans-Serif" font-size="10.00">first</text>
</a>
</g>
</g>
<!-- Node7&#45;&gt;Node14 -->
<g id="edge21" class="edge">
<title>Node7&#45;&gt;Node14</title>
<path fill="none" stroke="midnightblue" d="M145.33,-361.33C159.03,-352.31 180.96,-339.31 202,-333 267.26,-313.42 348.35,-312.11 389.45,-312.96"/>
<polygon fill="midnightblue" stroke="midnightblue" points="389.38,-316.46 399.47,-313.23 389.57,-309.47 389.38,-316.46"/>
</g>
<!-- Node16 -->
<g id="node16" class="node">
<title>Node16</title>
<g id="a_node16"><a xlink:href="group__datatypes__iterable__operate.html#ga894d4bec62cc9cf38d5e099de3028c54" target="_top" xlink:title="Return the second element of an iterable value.">
<polygon fill="white" stroke="black" points="391.5,-266.5 391.5,-285.5 442.5,-285.5 442.5,-266.5 391.5,-266.5"/>
<text text-anchor="middle" x="417" y="-273.5" font-family="Helvetica,sans-Serif" font-size="10.00">second</text>
</a>
</g>
</g>
<!-- Node7&#45;&gt;Node16 -->
<g id="edge33" class="edge">
<title>Node7&#45;&gt;Node16</title>
<path fill="none" stroke="midnightblue" d="M139.51,-361.49C151.56,-347.88 175.75,-323.15 202,-311 260.86,-283.75 337.42,-277.32 381.2,-276.04"/>
<polygon fill="midnightblue" stroke="midnightblue" points="381.41,-279.53 391.33,-275.82 381.26,-272.54 381.41,-279.53"/>
</g>
<!-- Node17 -->
<g id="node17" class="node">
<title>Node17</title>
<g id="a_node17"><a xlink:href="group__datatypes__scalar__test.html#gac61c3ea156e546e556ae399e5d0f60ec" target="_top" xlink:title="Test if a numerical value is even.">
<polygon fill="white" stroke="black" points="229.5,-494.5 229.5,-513.5 283.5,-513.5 283.5,-494.5 229.5,-494.5"/>
<text text-anchor="middle" x="256.5" y="-501.5" font-family="Helvetica,sans-Serif" font-size="10.00">is_even</text>
</a>
</g>
</g>
<!-- Node7&#45;&gt;Node17 -->
<g id="edge23" class="edge">
<title>Node7&#45;&gt;Node17</title>
<path fill="none" stroke="midnightblue" d="M134.95,-380.78C143.13,-402.63 165.78,-455.77 202,-485 207.18,-489.18 213.36,-492.48 219.64,-495.07"/>
<polygon fill="midnightblue" stroke="midnightblue" points="218.88,-498.52 229.48,-498.59 221.24,-491.93 218.88,-498.52"/>
</g>
<!-- Node18 -->
<g id="node18" class="node">
<title>Node18</title>
<g id="a_node18"><a xlink:href="group__datatypes__iterable__operate.html#ga4f04409e3fce7bf8226e4fde98f514c0" target="_top" xlink:title="Return the last element of an iterable value.">
<polygon fill="white" stroke="black" points="239,-456.5 239,-475.5 274,-475.5 274,-456.5 239,-456.5"/>
<text text-anchor="middle" x="256.5" y="-463.5" font-family="Helvetica,sans-Serif" font-size="10.00">last</text>
</a>
</g>
</g>
<!-- Node7&#45;&gt;Node18 -->
<g id="edge24" class="edge">
<title>Node7&#45;&gt;Node18</title>
<path fill="none" stroke="midnightblue" d="M137.98,-380.55C149.23,-396.47 173.89,-428.5 202,-447 210.14,-452.35 219.96,-456.41 228.96,-459.36"/>
<polygon fill="midnightblue" stroke="midnightblue" points="228.05,-462.74 238.64,-462.25 230.05,-456.04 228.05,-462.74"/>
</g>
<!-- Node19 -->
<g id="node19" class="node">
<title>Node19</title>
<g id="a_node19"><a xlink:href="group__shapes__polygon.html#ga9c1bd914355d92f9d66ba0e5c2d9dbac" target="_top" xlink:title="A polygon rectangle with vertex rounding.">
<polygon fill="white" stroke="black" points="216.5,-570.5 216.5,-589.5 296.5,-589.5 296.5,-570.5 216.5,-570.5"/>
<text text-anchor="middle" x="256.5" y="-577.5" font-family="Helvetica,sans-Serif" font-size="10.00">pg_rectangle</text>
</a>
</g>
</g>
<!-- Node7&#45;&gt;Node19 -->
<g id="edge25" class="edge">
<title>Node7&#45;&gt;Node19</title>
<path fill="none" stroke="midnightblue" d="M134.81,-380.81C143.49,-405.84 168.62,-473.58 202,-523 212.02,-537.84 225.93,-552.53 237.05,-563.28"/>
<polygon fill="midnightblue" stroke="midnightblue" points="234.89,-566.04 244.56,-570.35 239.69,-560.95 234.89,-566.04"/>
</g>
<!-- Node21 -->
<g id="node21" class="node">
<title>Node21</title>
<g id="a_node21"><a xlink:href="group__models__3d__fastener__screws.html#ga57dcfe1241e15eaa58ccd08891504a93" target="_top" xlink:title="Flat and beveled&#45;head fastener bore with nut, nut slot, and bore tolerance.">
<polygon fill="white" stroke="black" points="220.5,-228.5 220.5,-247.5 292.5,-247.5 292.5,-228.5 220.5,-228.5"/>
<text text-anchor="middle" x="256.5" y="-235.5" font-family="Helvetica,sans-Serif" font-size="10.00">screw_bore</text>
</a>
</g>
</g>
<!-- Node7&#45;&gt;Node21 -->
<g id="edge29" class="edge">
<title>Node7&#45;&gt;Node21</title>
<path fill="none" stroke="midnightblue" d="M135.5,-361.23C144.48,-340.37 168.14,-291.06 202,-262 206.5,-258.14 211.73,-254.79 217.12,-251.92"/>
<polygon fill="midnightblue" stroke="midnightblue" points="218.74,-255.02 226.24,-247.54 215.71,-248.71 218.74,-255.02"/>
</g>
<!-- Node7&#45;&gt;Node22 -->
<g id="edge34" class="edge">
<title>Node7&#45;&gt;Node22</title>
<path fill="none" stroke="midnightblue" d="M132.67,-361.44C136.6,-333.9 152.02,-254.12 202,-219 253.92,-182.52 331.35,-186.13 377.45,-192.66"/>
<polygon fill="midnightblue" stroke="midnightblue" points="376.93,-196.13 387.34,-194.18 377.99,-189.21 376.93,-196.13"/>
</g>
<!-- Node7&#45;&gt;Node23 -->
<g id="edge35" class="edge">
<title>Node7&#45;&gt;Node23</title>
<path fill="none" stroke="midnightblue" d="M134.34,-361.26C146.56,-319.39 194.47,-156.45 202,-148 209.52,-139.56 220.57,-133.93 230.69,-130.26"/>
<polygon fill="midnightblue" stroke="midnightblue" points="231.84,-133.56 240.32,-127.2 229.73,-126.89 231.84,-133.56"/>
</g>
<!-- Node24 -->
<g id="node24" class="node">
<title>Node24</title>
<g id="a_node24"><a xlink:href="group__datatypes__iterable__operate.html#ga4a000b3543933067bb00c6950e9122b3" target="_top" xlink:title="Return the third element of an iterable value.">
<polygon fill="white" stroke="black" points="237,-418.5 237,-437.5 276,-437.5 276,-418.5 237,-418.5"/>
<text text-anchor="middle" x="256.5" y="-425.5" font-family="Helvetica,sans-Serif" font-size="10.00">third</text>
</a>
</g>
</g>
<!-- Node7&#45;&gt;Node24 -->
<g id="edge36" class="edge">
<title>Node7&#45;&gt;Node24</title>
<path fill="none" stroke="midnightblue" d="M151.82,-380.62C165.88,-387.25 185.05,-396.23 202,-404 210.25,-407.78 219.24,-411.84 227.45,-415.52"/>
<polygon fill="midnightblue" stroke="midnightblue" points="226.09,-418.75 236.65,-419.63 228.95,-412.36 226.09,-418.75"/>
</g>
<!-- Node8&#45;&gt;Node5 -->
<g id="edge10" class="edge">
<title>Node8&#45;&gt;Node5</title>
<path fill="none" stroke="midnightblue" d="M276.71,-614.97C287.85,-612.36 301.49,-607.59 311,-599 338.73,-573.94 326.21,-554.06 347,-523 361.89,-500.76 383.05,-478.45 398.01,-463.82"/>
<polygon fill="midnightblue" stroke="midnightblue" points="400.81,-465.98 405.6,-456.52 395.96,-460.93 400.81,-465.98"/>
</g>
<!-- Node9 -->
<g id="node9" class="node">
<title>Node9</title>
<g id="a_node9"><a xlink:href="group__units__angle.html#ga06a917b77748dfb74e765bcd7c4c0219" target="_top" xlink:title="Convert an angle from some units to another.">
<polygon fill="white" stroke="black" points="395,-608.5 395,-627.5 439,-627.5 439,-608.5 395,-608.5"/>
<text text-anchor="middle" x="417" y="-615.5" font-family="Helvetica,sans-Serif" font-size="10.00">angle</text>
</a>
</g>
</g>
<!-- Node8&#45;&gt;Node9 -->
<g id="edge9" class="edge">
<title>Node8&#45;&gt;Node9</title>
<path fill="none" stroke="midnightblue" d="M276.62,-618C303.4,-618 352.4,-618 384.58,-618"/>
<polygon fill="midnightblue" stroke="midnightblue" points="384.79,-621.5 394.79,-618 384.79,-614.5 384.79,-621.5"/>
</g>
<!-- Node8&#45;&gt;Node10 -->
<g id="edge11" class="edge">
<title>Node8&#45;&gt;Node10</title>
<path fill="none" stroke="midnightblue" d="M276.59,-624.83C287.16,-629.03 300.28,-634.95 311,-642 329.13,-653.93 328.01,-664.49 347,-675 355.3,-679.59 364.79,-683.14 374.02,-685.85"/>
<polygon fill="midnightblue" stroke="midnightblue" points="373.3,-689.28 383.87,-688.48 375.11,-682.52 373.3,-689.28"/>
</g>
<!-- Node11 -->
<g id="node11" class="node">
<title>Node11</title>
<g id="a_node11"><a xlink:href="group__math__polygon.html#ga7a0eff64929a142fc507615f83e3bd58" target="_top" xlink:title="Compute coordinates that round all of the vertices between each adjacent edges in 2D.">
<polygon fill="white" stroke="black" points="347,-570.5 347,-589.5 487,-589.5 487,-570.5 347,-570.5"/>
<text text-anchor="middle" x="417" y="-577.5" font-family="Helvetica,sans-Serif" font-size="10.00">polygon_round_eve_all_p</text>
</a>
</g>
</g>
<!-- Node8&#45;&gt;Node11 -->
<g id="edge12" class="edge">
<title>Node8&#45;&gt;Node11</title>
<path fill="none" stroke="midnightblue" d="M276.62,-613.42C298.66,-608.13 335.77,-599.24 366.15,-591.95"/>
<polygon fill="midnightblue" stroke="midnightblue" points="367.26,-595.29 376.17,-589.55 365.62,-588.48 367.26,-595.29"/>
</g>
<!-- Node12 -->
<g id="node12" class="node">
<title>Node12</title>
<g id="a_node12"><a xlink:href="group__math__triangle.html#gaab9b812d15418fd05c9d93f3bfcc1989" target="_top" xlink:title="Compute a set of vertex coordinates for a triangle given its side lengths in 2D.">
<polygon fill="white" stroke="black" points="361.5,-646.5 361.5,-665.5 472.5,-665.5 472.5,-646.5 361.5,-646.5"/>
<text text-anchor="middle" x="417" y="-653.5" font-family="Helvetica,sans-Serif" font-size="10.00">triangle2d_sss2ppp</text>
</a>
</g>
</g>
<!-- Node8&#45;&gt;Node12 -->
<g id="edge13" class="edge">
<title>Node8&#45;&gt;Node12</title>
<path fill="none" stroke="midnightblue" d="M276.62,-622.58C298.66,-627.87 335.77,-636.76 366.15,-644.05"/>
<polygon fill="midnightblue" stroke="midnightblue" points="365.62,-647.52 376.17,-646.45 367.26,-640.71 365.62,-647.52"/>
</g>
<!-- Node13&#45;&gt;Node5 -->
<g id="edge17" class="edge">
<title>Node13&#45;&gt;Node5</title>
<path fill="none" stroke="midnightblue" d="M281.1,-361.54C290.58,-365.64 301.48,-370.7 311,-376 341.45,-392.96 374.41,-416.11 395.12,-431.3"/>
<polygon fill="midnightblue" stroke="midnightblue" points="393.08,-434.14 403.2,-437.28 397.25,-428.52 393.08,-434.14"/>
</g>
<!-- Node13&#45;&gt;Node14 -->
<g id="edge18" class="edge">
<title>Node13&#45;&gt;Node14</title>
<path fill="none" stroke="midnightblue" d="M297.5,-342.41C326.22,-335.52 364.16,-326.43 389.28,-320.41"/>
<polygon fill="midnightblue" stroke="midnightblue" points="390.29,-323.76 399.2,-318.03 388.66,-316.96 390.29,-323.76"/>
</g>
<!-- Node15 -->
<g id="node15" class="node">
<title>Node15</title>
<g id="a_node15"><a xlink:href="group__datatypes__scalar__test.html#ga258e8911375d30ff85a6e52df01dc1c5" target="_top" xlink:title="Test if a value is a single non&#45;iterable value.">
<polygon fill="white" stroke="black" points="387.5,-342.5 387.5,-361.5 446.5,-361.5 446.5,-342.5 387.5,-342.5"/>
<text text-anchor="middle" x="417" y="-349.5" font-family="Helvetica,sans-Serif" font-size="10.00">is_scalar</text>
</a>
</g>
</g>
<!-- Node13&#45;&gt;Node15 -->
<g id="edge19" class="edge">
<title>Node13&#45;&gt;Node15</title>
<path fill="none" stroke="midnightblue" d="M311.16,-352C332.78,-352 357.25,-352 377.1,-352"/>
<polygon fill="midnightblue" stroke="midnightblue" points="377.32,-355.5 387.32,-352 377.32,-348.5 377.32,-355.5"/>
</g>
<!-- Node13&#45;&gt;Node16 -->
<g id="edge20" class="edge">
<title>Node13&#45;&gt;Node16</title>
<path fill="none" stroke="midnightblue" d="M269.86,-342.42C286.53,-329.92 317.54,-308.08 347,-295 357.87,-290.17 370.25,-286.3 381.5,-283.34"/>
<polygon fill="midnightblue" stroke="midnightblue" points="382.57,-286.68 391.44,-280.88 380.89,-279.89 382.57,-286.68"/>
</g>
<!-- Node19&#45;&gt;Node5 -->
<g id="edge26" class="edge">
<title>Node19&#45;&gt;Node5</title>
<path fill="none" stroke="midnightblue" d="M284.16,-570.42C293.09,-566.6 302.84,-561.74 311,-556 330.87,-542.03 376.8,-491.39 400.79,-464.33"/>
<polygon fill="midnightblue" stroke="midnightblue" points="403.48,-466.57 407.48,-456.76 398.23,-461.94 403.48,-466.57"/>
</g>
<!-- Node19&#45;&gt;Node11 -->
<g id="edge27" class="edge">
<title>Node19&#45;&gt;Node11</title>
<path fill="none" stroke="midnightblue" d="M296.68,-580C308.85,-580 322.73,-580 336.62,-580"/>
<polygon fill="midnightblue" stroke="midnightblue" points="336.71,-583.5 346.71,-580 336.71,-576.5 336.71,-583.5"/>
</g>
<!-- Node20 -->
<g id="node20" class="node">
<title>Node20</title>
<g id="a_node20"><a xlink:href="group__math__linear__algebra.html#gaeabe74699fd0a437bad9a1d442bfd111" target="_top" xlink:title="Translate all coordinates dimensions.">
<polygon fill="white" stroke="black" points="381.5,-532.5 381.5,-551.5 452.5,-551.5 452.5,-532.5 381.5,-532.5"/>
<text text-anchor="middle" x="417" y="-539.5" font-family="Helvetica,sans-Serif" font-size="10.00">translate_p</text>
</a>
</g>
</g>
<!-- Node19&#45;&gt;Node20 -->
<g id="edge28" class="edge">
<title>Node19&#45;&gt;Node20</title>
<path fill="none" stroke="midnightblue" d="M296.68,-570.61C319.38,-565.16 348.03,-558.29 371.57,-552.65"/>
<polygon fill="midnightblue" stroke="midnightblue" points="372.4,-556.05 381.31,-550.32 370.77,-549.24 372.4,-556.05"/>
</g>
<!-- Node21&#45;&gt;Node5 -->
<g id="edge30" class="edge">
<title>Node21&#45;&gt;Node5</title>
<path fill="none" stroke="midnightblue" d="M263.34,-247.68C277,-270.09 312.49,-326.97 347,-371 363.51,-392.07 384.4,-414.57 398.84,-429.58"/>
<polygon fill="midnightblue" stroke="midnightblue" points="396.66,-432.35 406.14,-437.09 401.68,-427.48 396.66,-432.35"/>
</g>
<!-- Node21&#45;&gt;Node6 -->
<g id="edge31" class="edge">
<title>Node21&#45;&gt;Node6</title>
<path fill="none" stroke="midnightblue" d="M269.86,-228.42C286.53,-215.92 317.54,-194.08 347,-181 352.31,-178.64 357.98,-176.51 363.71,-174.6"/>
<polygon fill="midnightblue" stroke="midnightblue" points="364.83,-177.92 373.34,-171.6 362.75,-171.24 364.83,-177.92"/>
</g>
<!-- Node21&#45;&gt;Node22 -->
<g id="edge32" class="edge">
<title>Node21&#45;&gt;Node22</title>
<path fill="none" stroke="midnightblue" d="M292.68,-229.57C317.8,-223.54 351.58,-215.44 377.44,-209.25"/>
<polygon fill="midnightblue" stroke="midnightblue" points="378.37,-212.62 387.27,-206.89 376.73,-205.81 378.37,-212.62"/>
</g>
</g>
</svg>
