<?xml version="1.0" encoding="UTF-8" standalone="no"?>
<!DOCTYPE svg PUBLIC "-//W3C//DTD SVG 1.1//EN"
 "http://www.w3.org/Graphics/SVG/1.1/DTD/svg11.dtd">
<!-- Generated by graphviz version 2.43.0 (0)
 -->
<!-- Title: polytope_limits Pages: 1 -->
<svg width="269pt" height="104pt"
 viewBox="0.00 0.00 269.00 104.00" xmlns="http://www.w3.org/2000/svg" xmlns:xlink="http://www.w3.org/1999/xlink">
<g id="graph0" class="graph" transform="scale(1 1) rotate(0) translate(4 100)">
<title>polytope_limits</title>
<polygon fill="white" stroke="transparent" points="-4,4 -4,-100 265,-100 265,4 -4,4"/>
<!-- Node1 -->
<g id="node1" class="node">
<title>Node1</title>
<g id="a_node1"><a xlink:title="Determine the bounding limits of a polytope.">
<polygon fill="#bfbfbf" stroke="black" points="169,-38.5 169,-57.5 261,-57.5 261,-38.5 169,-38.5"/>
<text text-anchor="middle" x="215" y="-45.5" font-family="Helvetica,sans-Serif" font-size="10.00">polytope_limits</text>
</a>
</g>
</g>
<!-- Node2 -->
<g id="node2" class="node">
<title>Node2</title>
<g id="a_node2"><a xlink:href="group__shapes__polyhedron__db.html#gaae64c8fb78026896742050d14a5e8911" target="_top" xlink:title="Construct a named polyhedron.">
<polygon fill="white" stroke="black" points="13.5,-76.5 13.5,-95.5 119.5,-95.5 119.5,-76.5 13.5,-76.5"/>
<text text-anchor="middle" x="66.5" y="-83.5" font-family="Helvetica,sans-Serif" font-size="10.00">ph_db_polyhedron</text>
</a>
</g>
</g>
<!-- Node1&#45;&gt;Node2 -->
<g id="edge1" class="edge">
<title>Node1&#45;&gt;Node2</title>
<path fill="none" stroke="midnightblue" d="M167.3,-60.11C146.9,-65.4 123.32,-71.52 104.2,-76.48"/>
<polygon fill="midnightblue" stroke="midnightblue" points="168.23,-63.49 177.03,-57.59 166.47,-56.71 168.23,-63.49"/>
</g>
<!-- Node3 -->
<g id="node3" class="node">
<title>Node3</title>
<g id="a_node3"><a xlink:href="group__tools__polytope.html#ga47427d4c37f872812532c329d6d5a8c4" target="_top" xlink:title="The 3d or 2d bounding box shape for a polytope.">
<polygon fill="white" stroke="black" points="0,-38.5 0,-57.5 133,-57.5 133,-38.5 0,-38.5"/>
<text text-anchor="middle" x="66.5" y="-45.5" font-family="Helvetica,sans-Serif" font-size="10.00">polytope_bounding_box</text>
</a>
</g>
</g>
<!-- Node1&#45;&gt;Node3 -->
<g id="edge2" class="edge">
<title>Node1&#45;&gt;Node3</title>
<path fill="none" stroke="midnightblue" d="M158.57,-48C150.3,-48 141.7,-48 133.24,-48"/>
<polygon fill="midnightblue" stroke="midnightblue" points="158.85,-51.5 168.85,-48 158.85,-44.5 158.85,-51.5"/>
</g>
<!-- Node4 -->
<g id="node4" class="node">
<title>Node4</title>
<g id="a_node4"><a xlink:href="group__tools__polytope.html#ga00b574079f19251be7281151d11db8fa" target="_top" xlink:title="Label the vertices, paths, and edges of a polytope.">
<polygon fill="white" stroke="black" points="15.5,-0.5 15.5,-19.5 117.5,-19.5 117.5,-0.5 15.5,-0.5"/>
<text text-anchor="middle" x="66.5" y="-7.5" font-family="Helvetica,sans-Serif" font-size="10.00">polytope_number</text>
</a>
</g>
</g>
<!-- Node1&#45;&gt;Node4 -->
<g id="edge3" class="edge">
<title>Node1&#45;&gt;Node4</title>
<path fill="none" stroke="midnightblue" d="M167.3,-35.89C146.9,-30.6 123.32,-24.48 104.2,-19.52"/>
<polygon fill="midnightblue" stroke="midnightblue" points="166.47,-39.29 177.03,-38.41 168.23,-32.51 166.47,-39.29"/>
</g>
</g>
</svg>
