<?xml version="1.0" encoding="UTF-8" standalone="no"?>
<!DOCTYPE svg PUBLIC "-//W3C//DTD SVG 1.1//EN"
 "http://www.w3.org/Graphics/SVG/1.1/DTD/svg11.dtd">
<!-- Generated by graphviz version 2.43.0 (0)
 -->
<!-- Title: Utilities Pages: 1 -->
<svg width="193pt" height="34pt"
 viewBox="0.00 0.00 193.00 34.49" xmlns="http://www.w3.org/2000/svg" xmlns:xlink="http://www.w3.org/1999/xlink">
<g id="graph0" class="graph" transform="scale(1 1) rotate(0) translate(4 30.49)">
<title>Utilities</title>
<polygon fill="white" stroke="transparent" points="-4,4 -4,-30.49 189,-30.49 189,4 -4,4"/>
<!-- Node2 -->
<g id="node1" class="node">
<title>Node2</title>
<g id="a_node1"><a xlink:href="group__math.html" target="_top" xlink:title="Mathematical functions and operations.">
<polygon fill="white" stroke="black" points="41,-26.49 0,-26.49 0,-7.49 41,-7.49 41,-26.49"/>
<text text-anchor="middle" x="20.5" y="-14.49" font-family="Helvetica,sans-Serif" font-size="10.00">Math</text>
</a>
</g>
</g>
<!-- Node1 -->
<g id="node2" class="node">
<title>Node1</title>
<g id="a_node2"><a xlink:title="Miscellaneous mathematical utilities.">
<polygon fill="#bfbfbf" stroke="black" points="185,-26.49 130,-26.49 130,-7.49 185,-7.49 185,-26.49"/>
<text text-anchor="middle" x="157.5" y="-14.49" font-family="Helvetica,sans-Serif" font-size="10.00">Utilities</text>
</a>
</g>
</g>
<!-- Node2&#45;&gt;Node1 -->
<g id="edge1" class="edge">
<title>Node2&#45;&gt;Node1</title>
<path fill="none" stroke="black" d="M51.22,-16.99C74.72,-16.99 107.22,-16.99 129.87,-16.99"/>
<polygon fill="black" stroke="black" points="51.13,-13.49 41.13,-16.99 51.13,-20.49 51.13,-13.49"/>
</g>
<!-- Node1&#45;&gt;Node2 -->
<g id="edge2" class="edge">
<title>Node1&#45;&gt;Node2</title>
<path fill="none" stroke="darkgreen" stroke-dasharray="5,2" d="M130.93,-7.48C124.81,-5.62 118.24,-3.95 112,-2.99 88.72,0.59 82.18,1.2 59,-2.99 53.12,-4.05 46.96,-5.98 41.37,-8.07"/>
<text text-anchor="middle" x="85.5" y="-5.99" font-family="Helvetica,sans-Serif" font-size="10.00">utility.scad</text>
</g>
</g>
</svg>
