<?xml version="1.0" encoding="UTF-8" standalone="no"?>
<!DOCTYPE svg PUBLIC "-//W3C//DTD SVG 1.1//EN"
 "http://www.w3.org/Graphics/SVG/1.1/DTD/svg11.dtd">
<!-- Generated by graphviz version 2.43.0 (0)
 -->
<!-- Title: Drafting Pages: 1 -->
<svg width="247pt" height="138pt"
 viewBox="0.00 0.00 247.00 138.00" xmlns="http://www.w3.org/2000/svg" xmlns:xlink="http://www.w3.org/1999/xlink">
<g id="graph0" class="graph" transform="scale(1 1) rotate(0) translate(4 134)">
<title>Drafting</title>
<polygon fill="white" stroke="transparent" points="-4,4 -4,-134 243,-134 243,4 -4,4"/>
<!-- Node6 -->
<g id="node1" class="node">
<title>Node6</title>
<g id="a_node1"><a xlink:href="group__tools__drafting__primitive.html" target="_top" xlink:title="Drafting base functions and primitives.">
<polygon fill="white" stroke="black" points="237,-130 171,-130 171,-111 237,-111 237,-130"/>
<text text-anchor="middle" x="204" y="-118" font-family="Helvetica,sans-Serif" font-size="10.00">Primitives</text>
</a>
</g>
</g>
<!-- Node5 -->
<g id="node2" class="node">
<title>Node5</title>
<g id="a_node2"><a xlink:href="group__tools__drafting__operation.html" target="_top" xlink:title="Drafting tools and general operations.">
<polygon fill="white" stroke="black" points="239,-93 169,-93 169,-74 239,-74 239,-93"/>
<text text-anchor="middle" x="204" y="-81" font-family="Helvetica,sans-Serif" font-size="10.00">Operations</text>
</a>
</g>
</g>
<!-- Node1 -->
<g id="node3" class="node">
<title>Node1</title>
<g id="a_node3"><a xlink:title="Drafting and drawing tools.">
<polygon fill="#bfbfbf" stroke="black" points="133,-74 77,-74 77,-55 133,-55 133,-74"/>
<text text-anchor="middle" x="105" y="-62" font-family="Helvetica,sans-Serif" font-size="10.00">Drafting</text>
</a>
</g>
</g>
<!-- Node1&#45;&gt;Node6 -->
<g id="edge5" class="edge">
<title>Node1&#45;&gt;Node6</title>
<path fill="none" stroke="black" d="M130.11,-79.48C141.77,-86.6 156.02,-95.16 169,-102.5 174,-105.33 179.48,-108.29 184.55,-110.97"/>
<polygon fill="black" stroke="black" points="131.74,-76.37 121.39,-74.11 128.08,-82.33 131.74,-76.37"/>
</g>
<!-- Node1&#45;&gt;Node5 -->
<g id="edge4" class="edge">
<title>Node1&#45;&gt;Node5</title>
<path fill="none" stroke="black" d="M143.04,-71.76C151.52,-73.42 160.5,-75.17 168.85,-76.81"/>
<polygon fill="black" stroke="black" points="143.51,-68.28 133.02,-69.79 142.16,-75.15 143.51,-68.28"/>
</g>
<!-- Node3 -->
<g id="node4" class="node">
<title>Node3</title>
<g id="a_node4"><a xlink:href="group__tools__drafting__config.html" target="_top" xlink:title="Drafting defaults and configurations.">
<polygon fill="white" stroke="black" points="227.5,-56 180.5,-56 180.5,-37 227.5,-37 227.5,-56"/>
<text text-anchor="middle" x="204" y="-44" font-family="Helvetica,sans-Serif" font-size="10.00">Config</text>
</a>
</g>
</g>
<!-- Node1&#45;&gt;Node3 -->
<g id="edge2" class="edge">
<title>Node1&#45;&gt;Node3</title>
<path fill="none" stroke="black" d="M143.21,-57.59C155.74,-55.27 169.33,-52.75 180.39,-50.7"/>
<polygon fill="black" stroke="black" points="142.21,-54.22 133.02,-59.49 143.49,-61.1 142.21,-54.22"/>
</g>
<!-- Node4 -->
<g id="node5" class="node">
<title>Node4</title>
<g id="a_node5"><a xlink:href="group__tools__drafting__dimension.html" target="_top" xlink:title="Drafting dimension operations.">
<polygon fill="white" stroke="black" points="238.5,-19 169.5,-19 169.5,0 238.5,0 238.5,-19"/>
<text text-anchor="middle" x="204" y="-7" font-family="Helvetica,sans-Serif" font-size="10.00">Dimension</text>
</a>
</g>
</g>
<!-- Node1&#45;&gt;Node4 -->
<g id="edge3" class="edge">
<title>Node1&#45;&gt;Node4</title>
<path fill="none" stroke="black" d="M130.63,-49.7C142.21,-42.83 156.24,-34.62 169,-27.5 174.02,-24.7 179.5,-21.75 184.57,-19.07"/>
<polygon fill="black" stroke="black" points="128.74,-46.75 121.94,-54.87 132.32,-52.76 128.74,-46.75"/>
</g>
<!-- Node2 -->
<g id="node6" class="node">
<title>Node2</title>
<g id="a_node6"><a xlink:href="group__tools.html" target="_top" xlink:title="Tools and design components.">
<polygon fill="white" stroke="black" points="41,-74 0,-74 0,-55 41,-55 41,-74"/>
<text text-anchor="middle" x="20.5" y="-62" font-family="Helvetica,sans-Serif" font-size="10.00">Tools</text>
</a>
</g>
</g>
<!-- Node2&#45;&gt;Node1 -->
<g id="edge1" class="edge">
<title>Node2&#45;&gt;Node1</title>
<path fill="none" stroke="black" d="M51.16,-64.5C59.52,-64.5 68.57,-64.5 76.79,-64.5"/>
<polygon fill="black" stroke="black" points="51.05,-61 41.05,-64.5 51.05,-68 51.05,-61"/>
</g>
</g>
</svg>
