<?xml version="1.0" encoding="UTF-8" standalone="no"?>
<!DOCTYPE svg PUBLIC "-//W3C//DTD SVG 1.1//EN"
 "http://www.w3.org/Graphics/SVG/1.1/DTD/svg11.dtd">
<!-- Generated by graphviz version 2.43.0 (0)
 -->
<!-- Title: Euclidean Pages: 1 -->
<svg width="252pt" height="35pt"
 viewBox="0.00 0.00 252.00 34.80" xmlns="http://www.w3.org/2000/svg" xmlns:xlink="http://www.w3.org/1999/xlink">
<g id="graph0" class="graph" transform="scale(1 1) rotate(0) translate(4 30.8)">
<title>Euclidean</title>
<polygon fill="white" stroke="transparent" points="-4,4 -4,-30.8 248,-30.8 248,4 -4,4"/>
<!-- Node2 -->
<g id="node1" class="node">
<title>Node2</title>
<g id="a_node1"><a xlink:href="group__datatypes.html" target="_top" xlink:title="Data type identification and operations.">
<polygon fill="white" stroke="black" points="71,-26.8 0,-26.8 0,-7.8 71,-7.8 71,-26.8"/>
<text text-anchor="middle" x="35.5" y="-14.8" font-family="Helvetica,sans-Serif" font-size="10.00">Data Types</text>
</a>
</g>
</g>
<!-- Node1 -->
<g id="node2" class="node">
<title>Node1</title>
<g id="a_node2"><a xlink:title="Tests and operations for Euclidean 3d space.">
<polygon fill="#bfbfbf" stroke="black" points="244,-26.8 180,-26.8 180,-7.8 244,-7.8 244,-26.8"/>
<text text-anchor="middle" x="212" y="-14.8" font-family="Helvetica,sans-Serif" font-size="10.00">Euclidean</text>
</a>
</g>
</g>
<!-- Node2&#45;&gt;Node1 -->
<g id="edge1" class="edge">
<title>Node2&#45;&gt;Node1</title>
<path fill="none" stroke="black" d="M81.48,-17.3C112.38,-17.3 152.6,-17.3 179.97,-17.3"/>
<polygon fill="black" stroke="black" points="81.39,-13.8 71.39,-17.3 81.39,-20.8 81.39,-13.8"/>
</g>
<!-- Node1&#45;&gt;Node2 -->
<g id="edge2" class="edge">
<title>Node1&#45;&gt;Node2</title>
<path fill="none" stroke="darkgreen" stroke-dasharray="5,2" d="M182.79,-7.8C176.05,-5.93 168.83,-4.26 162,-3.3 129.87,1.2 121.17,0.91 89,-3.3 81.7,-4.26 73.98,-5.93 66.77,-7.8"/>
<text text-anchor="middle" x="125.5" y="-6.3" font-family="Helvetica,sans-Serif" font-size="10.00">euclidean.scad</text>
</g>
</g>
</svg>
