<?xml version="1.0" encoding="UTF-8" standalone="no"?>
<!DOCTYPE svg PUBLIC "-//W3C//DTD SVG 1.1//EN"
 "http://www.w3.org/Graphics/SVG/1.1/DTD/svg11.dtd">
<!-- Generated by graphviz version 2.43.0 (0)
 -->
<!-- Title: draft_table_get_cell Pages: 1 -->
<svg width="488pt" height="142pt"
 viewBox="0.00 0.00 488.00 142.00" xmlns="http://www.w3.org/2000/svg" xmlns:xlink="http://www.w3.org/1999/xlink">
<g id="graph0" class="graph" transform="scale(1 1) rotate(0) translate(4 138)">
<title>draft_table_get_cell</title>
<polygon fill="white" stroke="transparent" points="-4,4 -4,-138 484,-138 484,4 -4,4"/>
<!-- Node1 -->
<g id="node1" class="node">
<title>Node1</title>
<g id="a_node1"><a xlink:title="Get table cell coordinates given a column and row.">
<polygon fill="#bfbfbf" stroke="black" points="367,-38.5 367,-57.5 480,-57.5 480,-38.5 367,-38.5"/>
<text text-anchor="middle" x="423.5" y="-45.5" font-family="Helvetica,sans-Serif" font-size="10.00">draft_table_get_cell</text>
</a>
</g>
</g>
<!-- Node2 -->
<g id="node2" class="node">
<title>Node2</title>
<g id="a_node2"><a xlink:href="group__tools__drafting__operation.html#gaae4b7ed59444eb6f6c0ae47bd36e1e9b" target="_top" xlink:title="Construct a text table that is populated by rows and columns.">
<polygon fill="white" stroke="black" points="249.5,-57.5 249.5,-76.5 318.5,-76.5 318.5,-57.5 249.5,-57.5"/>
<text text-anchor="middle" x="284" y="-64.5" font-family="Helvetica,sans-Serif" font-size="10.00">draft_table</text>
</a>
</g>
</g>
<!-- Node1&#45;&gt;Node2 -->
<g id="edge1" class="edge">
<title>Node1&#45;&gt;Node2</title>
<path fill="none" stroke="midnightblue" d="M356.88,-57.07C343.61,-58.9 330.17,-60.76 318.57,-62.36"/>
<polygon fill="midnightblue" stroke="midnightblue" points="357.54,-60.51 366.97,-55.67 356.58,-53.58 357.54,-60.51"/>
</g>
<!-- Node8 -->
<g id="node8" class="node">
<title>Node8</title>
<g id="a_node8"><a xlink:href="group__tools__drafting__primitive.html#gaf5c23ddb3b38a362eaece312029bcedd" target="_top" xlink:title="Add text to table cell at a given a column and row.">
<polygon fill="white" stroke="black" points="237,-19.5 237,-38.5 331,-38.5 331,-19.5 237,-19.5"/>
<text text-anchor="middle" x="284" y="-26.5" font-family="Helvetica,sans-Serif" font-size="10.00">draft_table_text</text>
</a>
</g>
</g>
<!-- Node1&#45;&gt;Node8 -->
<g id="edge7" class="edge">
<title>Node1&#45;&gt;Node8</title>
<path fill="none" stroke="midnightblue" d="M356.81,-38.92C348.1,-37.72 339.33,-36.51 331.05,-35.36"/>
<polygon fill="midnightblue" stroke="midnightblue" points="356.58,-42.42 366.97,-40.33 357.54,-35.49 356.58,-42.42"/>
</g>
<!-- Node3 -->
<g id="node3" class="node">
<title>Node3</title>
<g id="a_node3"><a xlink:href="group__tools__drafting__operation.html#gac1b780633ac5e2874a8a00177d98b305" target="_top" xlink:title="Construct a text note with optional heading and boarder.">
<polygon fill="white" stroke="black" points="135,-57.5 135,-76.5 201,-76.5 201,-57.5 135,-57.5"/>
<text text-anchor="middle" x="168" y="-64.5" font-family="Helvetica,sans-Serif" font-size="10.00">draft_note</text>
</a>
</g>
</g>
<!-- Node2&#45;&gt;Node3 -->
<g id="edge2" class="edge">
<title>Node2&#45;&gt;Node3</title>
<path fill="none" stroke="midnightblue" d="M239.08,-67C226.46,-67 212.94,-67 201.17,-67"/>
<polygon fill="midnightblue" stroke="midnightblue" points="239.41,-70.5 249.41,-67 239.41,-63.5 239.41,-70.5"/>
</g>
<!-- Node4 -->
<g id="node4" class="node">
<title>Node4</title>
<g id="a_node4"><a xlink:href="group__tools__drafting__dimension.html#ga6b8e17d22ac4a95d25a90be8a74c0689" target="_top" xlink:title="Construct a angular dimension arc.">
<polygon fill="white" stroke="black" points="2,-114.5 2,-133.5 97,-133.5 97,-114.5 2,-114.5"/>
<text text-anchor="middle" x="49.5" y="-121.5" font-family="Helvetica,sans-Serif" font-size="10.00">draft_dim_angle</text>
</a>
</g>
</g>
<!-- Node3&#45;&gt;Node4 -->
<g id="edge3" class="edge">
<title>Node3&#45;&gt;Node4</title>
<path fill="none" stroke="midnightblue" d="M142.72,-81.63C129.93,-89.06 113.86,-97.98 99,-105 91.89,-108.36 84.01,-111.63 76.7,-114.49"/>
<polygon fill="midnightblue" stroke="midnightblue" points="144.54,-84.62 151.38,-76.53 140.99,-78.59 144.54,-84.62"/>
</g>
<!-- Node5 -->
<g id="node5" class="node">
<title>Node5</title>
<g id="a_node5"><a xlink:href="group__tools__drafting__dimension.html#ga5c4915c4c4464c5cdaefd501c2de261d" target="_top" xlink:title="Construct a dimension leader line at a point.">
<polygon fill="white" stroke="black" points="0,-76.5 0,-95.5 99,-95.5 99,-76.5 0,-76.5"/>
<text text-anchor="middle" x="49.5" y="-83.5" font-family="Helvetica,sans-Serif" font-size="10.00">draft_dim_leader</text>
</a>
</g>
</g>
<!-- Node3&#45;&gt;Node5 -->
<g id="edge4" class="edge">
<title>Node3&#45;&gt;Node5</title>
<path fill="none" stroke="midnightblue" d="M124.93,-73.86C116.56,-75.23 107.7,-76.67 99.13,-78.07"/>
<polygon fill="midnightblue" stroke="midnightblue" points="125.55,-77.31 134.86,-72.24 124.42,-70.4 125.55,-77.31"/>
</g>
<!-- Node6 -->
<g id="node6" class="node">
<title>Node6</title>
<g id="a_node6"><a xlink:href="group__tools__drafting__dimension.html#ga27a35e94597435a74e22d76789e9be5e" target="_top" xlink:title="Construct a dimension line between two points.">
<polygon fill="white" stroke="black" points="6.5,-38.5 6.5,-57.5 92.5,-57.5 92.5,-38.5 6.5,-38.5"/>
<text text-anchor="middle" x="49.5" y="-45.5" font-family="Helvetica,sans-Serif" font-size="10.00">draft_dim_line</text>
</a>
</g>
</g>
<!-- Node3&#45;&gt;Node6 -->
<g id="edge5" class="edge">
<title>Node3&#45;&gt;Node6</title>
<path fill="none" stroke="midnightblue" d="M124.7,-60.1C114.24,-58.39 103.03,-56.57 92.58,-54.86"/>
<polygon fill="midnightblue" stroke="midnightblue" points="124.42,-63.6 134.86,-61.76 125.55,-56.69 124.42,-63.6"/>
</g>
<!-- Node7 -->
<g id="node7" class="node">
<title>Node7</title>
<g id="a_node7"><a xlink:href="group__tools__drafting__dimension.html#gaef1a8150a8ef7be88e086fb3dbab64a9" target="_top" xlink:title="Construct a radial dimension line.">
<polygon fill="white" stroke="black" points="0.5,-0.5 0.5,-19.5 98.5,-19.5 98.5,-0.5 0.5,-0.5"/>
<text text-anchor="middle" x="49.5" y="-7.5" font-family="Helvetica,sans-Serif" font-size="10.00">draft_dim_radius</text>
</a>
</g>
</g>
<!-- Node3&#45;&gt;Node7 -->
<g id="edge6" class="edge">
<title>Node3&#45;&gt;Node7</title>
<path fill="none" stroke="midnightblue" d="M142.72,-52.37C129.93,-44.94 113.86,-36.02 99,-29 91.89,-25.64 84.01,-22.37 76.7,-19.51"/>
<polygon fill="midnightblue" stroke="midnightblue" points="140.99,-55.41 151.38,-57.47 144.54,-49.38 140.99,-55.41"/>
</g>
</g>
</svg>
