<?xml version="1.0" encoding="UTF-8" standalone="no"?>
<!DOCTYPE svg PUBLIC "-//W3C//DTD SVG 1.1//EN"
 "http://www.w3.org/Graphics/SVG/1.1/DTD/svg11.dtd">
<!-- Generated by graphviz version 2.43.0 (0)
 -->
<!-- Title: draft_line Pages: 1 -->
<svg width="583pt" height="674pt"
 viewBox="0.00 0.00 583.00 674.00" xmlns="http://www.w3.org/2000/svg" xmlns:xlink="http://www.w3.org/1999/xlink">
<g id="graph0" class="graph" transform="scale(1 1) rotate(0) translate(4 670)">
<title>draft_line</title>
<polygon fill="white" stroke="transparent" points="-4,4 -4,-670 579,-670 579,4 -4,4"/>
<!-- Node1 -->
<g id="node1" class="node">
<title>Node1</title>
<g id="a_node1"><a xlink:title="Draft a line with configurable style and optional arrowheads.">
<polygon fill="#bfbfbf" stroke="black" points="0,-228.5 0,-247.5 62,-247.5 62,-228.5 0,-228.5"/>
<text text-anchor="middle" x="31" y="-235.5" font-family="Helvetica,sans-Serif" font-size="10.00">draft_line</text>
</a>
</g>
</g>
<!-- Node2 -->
<g id="node2" class="node">
<title>Node2</title>
<g id="a_node2"><a xlink:href="group__datatypes__iterable__test.html#ga4dfc58aa5f208e103e622684db817ce6" target="_top" xlink:title="Test if all elements of an iterable value equal a comparison value.">
<polygon fill="white" stroke="black" points="121,-646.5 121,-665.5 182,-665.5 182,-646.5 121,-646.5"/>
<text text-anchor="middle" x="151.5" y="-653.5" font-family="Helvetica,sans-Serif" font-size="10.00">all_equal</text>
</a>
</g>
</g>
<!-- Node1&#45;&gt;Node2 -->
<g id="edge1" class="edge">
<title>Node1&#45;&gt;Node2</title>
<path fill="none" stroke="midnightblue" d="M32.42,-247.76C34.93,-302.27 49.58,-568.84 98,-632 101.67,-636.79 106.52,-640.65 111.79,-643.76"/>
<polygon fill="midnightblue" stroke="midnightblue" points="110.41,-646.99 120.92,-648.31 113.53,-640.72 110.41,-646.99"/>
</g>
<!-- Node3 -->
<g id="node3" class="node">
<title>Node3</title>
<g id="a_node3"><a xlink:href="group__datatypes__euclidean.html#ga3d5c07c70f271bcf9144f50ce8620a89" target="_top" xlink:title="Compute the angle between two lines or vectors in a 3d or 2d&#45;space.">
<polygon fill="white" stroke="black" points="507.5,-570.5 507.5,-589.5 562.5,-589.5 562.5,-570.5 507.5,-570.5"/>
<text text-anchor="middle" x="535" y="-577.5" font-family="Helvetica,sans-Serif" font-size="10.00">angle_ll</text>
</a>
</g>
</g>
<!-- Node1&#45;&gt;Node3 -->
<g id="edge2" class="edge">
<title>Node1&#45;&gt;Node3</title>
<path fill="none" stroke="midnightblue" d="M31.74,-247.66C31.18,-285.62 33.74,-426.71 98,-514 141.83,-573.54 169.71,-579.41 241,-599 330.54,-623.6 441.01,-603.57 497.28,-589.97"/>
<polygon fill="midnightblue" stroke="midnightblue" points="498.28,-593.33 507.14,-587.52 496.59,-586.54 498.28,-593.33"/>
</g>
<!-- Node4 -->
<g id="node4" class="node">
<title>Node4</title>
<g id="a_node4"><a xlink:href="group__datatypes__iterable__operate.html#ga3d37c2b0067d1661724bd89955c8f6ce" target="_top" xlink:title="Return an element of an iterable when it exists or a default value otherwise.">
<polygon fill="white" stroke="black" points="245,-570.5 245,-589.5 324,-589.5 324,-570.5 245,-570.5"/>
<text text-anchor="middle" x="284.5" y="-577.5" font-family="Helvetica,sans-Serif" font-size="10.00">defined_e_or</text>
</a>
</g>
</g>
<!-- Node1&#45;&gt;Node4 -->
<g id="edge3" class="edge">
<title>Node1&#45;&gt;Node4</title>
<path fill="none" stroke="midnightblue" d="M32.67,-247.74C35.36,-280.42 47.77,-387.96 98,-457 137.23,-510.92 207.86,-548.03 249.73,-566.5"/>
<polygon fill="midnightblue" stroke="midnightblue" points="248.39,-569.74 258.96,-570.48 251.16,-563.31 248.39,-569.74"/>
</g>
<!-- Node5 -->
<g id="node5" class="node">
<title>Node5</title>
<g id="a_node5"><a xlink:href="group__tools__drafting__primitive.html#ga6f12ccd4c9de0a8ab887184911f39c8f" target="_top" xlink:title="Draft an arrowhead at the terminal point of a line.">
<polygon fill="white" stroke="black" points="115.5,-380.5 115.5,-399.5 187.5,-399.5 187.5,-380.5 115.5,-380.5"/>
<text text-anchor="middle" x="151.5" y="-387.5" font-family="Helvetica,sans-Serif" font-size="10.00">draft_arrow</text>
</a>
</g>
</g>
<!-- Node1&#45;&gt;Node5 -->
<g id="edge4" class="edge">
<title>Node1&#45;&gt;Node5</title>
<path fill="none" stroke="midnightblue" d="M39.41,-247.51C58.86,-272.46 111.6,-340.11 136.77,-372.39"/>
<polygon fill="midnightblue" stroke="midnightblue" points="134.18,-374.76 143.09,-380.5 139.7,-370.46 134.18,-374.76"/>
</g>
<!-- Node7 -->
<g id="node7" class="node">
<title>Node7</title>
<g id="a_node7"><a xlink:href="group__tools__drafting__config.html#gabb4fa7092928ba8803b550ac6d733f64" target="_top" xlink:title="Get drafting configuration default helper function.">
<polygon fill="white" stroke="black" points="364,-342.5 364,-361.5 459,-361.5 459,-342.5 364,-342.5"/>
<text text-anchor="middle" x="411.5" y="-349.5" font-family="Helvetica,sans-Serif" font-size="10.00">draft_get_config</text>
</a>
</g>
</g>
<!-- Node1&#45;&gt;Node7 -->
<g id="edge27" class="edge">
<title>Node1&#45;&gt;Node7</title>
<path fill="none" stroke="midnightblue" d="M55.38,-228.48C107.96,-208.69 238.01,-168.92 328,-219 371.77,-243.36 395.29,-301.61 405.02,-332.31"/>
<polygon fill="midnightblue" stroke="midnightblue" points="401.77,-333.67 407.99,-342.25 408.48,-331.67 401.77,-333.67"/>
</g>
<!-- Node8 -->
<g id="node8" class="node">
<title>Node8</title>
<g id="a_node8"><a xlink:href="group__tools__drafting__primitive.html#ga4e7c5fa02dbc244702042067553a9225" target="_top" xlink:title="Draft a simple line from an initial to a terminal point.">
<polygon fill="white" stroke="black" points="244.5,-494.5 244.5,-513.5 324.5,-513.5 324.5,-494.5 244.5,-494.5"/>
<text text-anchor="middle" x="284.5" y="-501.5" font-family="Helvetica,sans-Serif" font-size="10.00">draft_line_pp</text>
</a>
</g>
</g>
<!-- Node1&#45;&gt;Node8 -->
<g id="edge28" class="edge">
<title>Node1&#45;&gt;Node8</title>
<path fill="none" stroke="midnightblue" d="M33.33,-247.74C37.66,-275.96 53.67,-358.99 98,-409 135.55,-451.36 196.49,-477.43 238.2,-491.29"/>
<polygon fill="midnightblue" stroke="midnightblue" points="237.25,-494.66 247.84,-494.4 239.4,-488 237.25,-494.66"/>
</g>
<!-- Node11 -->
<g id="node11" class="node">
<title>Node11</title>
<g id="a_node11"><a xlink:href="group__datatypes__euclidean.html#ga8115b05f16bcc197e3e339a65f4d3e49" target="_top" xlink:title="Return the initial point of a line or vector.">
<polygon fill="white" stroke="black" points="510.5,-342.5 510.5,-361.5 559.5,-361.5 559.5,-342.5 510.5,-342.5"/>
<text text-anchor="middle" x="535" y="-349.5" font-family="Helvetica,sans-Serif" font-size="10.00">line_ip</text>
</a>
</g>
</g>
<!-- Node1&#45;&gt;Node11 -->
<g id="edge30" class="edge">
<title>Node1&#45;&gt;Node11</title>
<path fill="none" stroke="midnightblue" d="M41.63,-228.12C53.59,-216.62 75.22,-198.28 98,-191 195.37,-159.87 232.06,-155.72 328,-191 419.44,-224.62 413.45,-279.69 495,-333 497.56,-334.68 500.3,-336.3 503.09,-337.85"/>
<polygon fill="midnightblue" stroke="midnightblue" points="501.52,-340.98 512.01,-342.48 504.75,-334.77 501.52,-340.98"/>
</g>
<!-- Node12 -->
<g id="node12" class="node">
<title>Node12</title>
<g id="a_node12"><a xlink:href="group__datatypes__euclidean.html#ga299bce4158dc8d0a7a8e7d9967b8ea4e" target="_top" xlink:title="Return the terminal point of a line or vector.">
<polygon fill="white" stroke="black" points="510,-304.5 510,-323.5 560,-323.5 560,-304.5 510,-304.5"/>
<text text-anchor="middle" x="535" y="-311.5" font-family="Helvetica,sans-Serif" font-size="10.00">line_tp</text>
</a>
</g>
</g>
<!-- Node1&#45;&gt;Node12 -->
<g id="edge31" class="edge">
<title>Node1&#45;&gt;Node12</title>
<path fill="none" stroke="midnightblue" d="M35.59,-228.31C43.43,-208.8 64.12,-165.17 98,-148 169.56,-111.74 391.6,-104.49 459,-148 509.83,-180.81 526.57,-257.28 531.79,-293.84"/>
<polygon fill="midnightblue" stroke="midnightblue" points="528.37,-294.72 533.11,-304.2 535.32,-293.83 528.37,-294.72"/>
</g>
<!-- Node20 -->
<g id="node20" class="node">
<title>Node20</title>
<g id="a_node20"><a xlink:href="group__datatypes__euclidean.html#gaa686049dfa9296b441a12e225aa1537d" target="_top" xlink:title="Construct a 2 dimensional directed line.">
<polygon fill="white" stroke="black" points="248.5,-266.5 248.5,-285.5 320.5,-285.5 320.5,-266.5 248.5,-266.5"/>
<text text-anchor="middle" x="284.5" y="-273.5" font-family="Helvetica,sans-Serif" font-size="10.00">line2d_new</text>
</a>
</g>
</g>
<!-- Node1&#45;&gt;Node20 -->
<g id="edge29" class="edge">
<title>Node1&#45;&gt;Node20</title>
<path fill="none" stroke="midnightblue" d="M62.13,-244.92C73.35,-247.36 86.22,-249.99 98,-252 145.55,-260.11 200.37,-266.88 238.02,-271.15"/>
<polygon fill="midnightblue" stroke="midnightblue" points="237.83,-274.65 248.16,-272.28 238.61,-267.69 237.83,-274.65"/>
</g>
<!-- Node22 -->
<g id="node22" class="node">
<title>Node22</title>
<g id="a_node22"><a xlink:href="group__datatypes__iterable__operate.html#gadb933df06b10d64dda8823069bdc84b7" target="_top" xlink:title="Return a list of all n&#45;element sequential&#45;subsets of an iterable value.">
<polygon fill="white" stroke="black" points="244.5,-228.5 244.5,-247.5 324.5,-247.5 324.5,-228.5 244.5,-228.5"/>
<text text-anchor="middle" x="284.5" y="-235.5" font-family="Helvetica,sans-Serif" font-size="10.00">sequence_ns</text>
</a>
</g>
</g>
<!-- Node1&#45;&gt;Node22 -->
<g id="edge35" class="edge">
<title>Node1&#45;&gt;Node22</title>
<path fill="none" stroke="midnightblue" d="M62.34,-238C104.99,-238 183.19,-238 234.24,-238"/>
<polygon fill="midnightblue" stroke="midnightblue" points="234.39,-241.5 244.39,-238 234.39,-234.5 234.39,-241.5"/>
</g>
<!-- Node23 -->
<g id="node23" class="node">
<title>Node23</title>
<g id="a_node23"><a xlink:href="group__datatypes__list__operate.html#gac9437fd7e3cb8797fa5e901b2ab6e58a" target="_top" xlink:title="Serially merge the elements of a list.">
<polygon fill="white" stroke="black" points="122,-76.5 122,-95.5 181,-95.5 181,-76.5 122,-76.5"/>
<text text-anchor="middle" x="151.5" y="-83.5" font-family="Helvetica,sans-Serif" font-size="10.00">merge_s</text>
</a>
</g>
</g>
<!-- Node1&#45;&gt;Node23 -->
<g id="edge32" class="edge">
<title>Node1&#45;&gt;Node23</title>
<path fill="none" stroke="midnightblue" d="M34.59,-228.32C41.29,-204.99 61.27,-145.03 98,-110 102.32,-105.88 107.47,-102.38 112.84,-99.43"/>
<polygon fill="midnightblue" stroke="midnightblue" points="114.5,-102.51 121.95,-94.98 111.43,-96.22 114.5,-102.51"/>
</g>
<!-- Node24 -->
<g id="node24" class="node">
<title>Node24</title>
<g id="a_node24"><a xlink:href="group__math__polygon.html#gad35e17240bf9f3e0de4481ec467d599f" target="_top" xlink:title="Compute coordinates along a line in 2D.">
<polygon fill="white" stroke="black" points="106.5,-38.5 106.5,-57.5 196.5,-57.5 196.5,-38.5 106.5,-38.5"/>
<text text-anchor="middle" x="151.5" y="-45.5" font-family="Helvetica,sans-Serif" font-size="10.00">polygon_line_p</text>
</a>
</g>
</g>
<!-- Node1&#45;&gt;Node24 -->
<g id="edge33" class="edge">
<title>Node1&#45;&gt;Node24</title>
<path fill="none" stroke="midnightblue" d="M32.95,-228.36C36.3,-199.68 50.02,-113.97 98,-67 99.48,-65.55 101.08,-64.21 102.77,-62.97"/>
<polygon fill="midnightblue" stroke="midnightblue" points="105.01,-65.71 111.81,-57.59 101.42,-59.7 105.01,-65.71"/>
</g>
<!-- Node25 -->
<g id="node25" class="node">
<title>Node25</title>
<g id="a_node25"><a xlink:href="group__math__polygon.html#ga6aea22d31f8f086c44c7241eee3ab4c2" target="_top" xlink:title="Compute coordinates for an n&#45;sided regular polygon in 2D.">
<polygon fill="white" stroke="black" points="98,-0.5 98,-19.5 205,-19.5 205,-0.5 98,-0.5"/>
<text text-anchor="middle" x="151.5" y="-7.5" font-family="Helvetica,sans-Serif" font-size="10.00">polygon_regular_p</text>
</a>
</g>
</g>
<!-- Node1&#45;&gt;Node25 -->
<g id="edge34" class="edge">
<title>Node1&#45;&gt;Node25</title>
<path fill="none" stroke="midnightblue" d="M32.18,-228.18C33.31,-195.32 41.36,-88.03 98,-29 99.38,-27.56 100.89,-26.22 102.48,-24.99"/>
<polygon fill="midnightblue" stroke="midnightblue" points="104.43,-27.9 111.05,-19.63 100.72,-21.96 104.43,-27.9"/>
</g>
<!-- Node5&#45;&gt;Node3 -->
<g id="edge5" class="edge">
<title>Node5&#45;&gt;Node3</title>
<path fill="none" stroke="midnightblue" d="M161.77,-399.72C172.87,-411.66 191.64,-432.82 205,-453 224.31,-482.17 213.02,-502 241,-523 281.11,-553.11 428.07,-570.27 497.37,-576.86"/>
<polygon fill="midnightblue" stroke="midnightblue" points="497.13,-580.35 507.41,-577.79 497.77,-573.38 497.13,-580.35"/>
</g>
<!-- Node5&#45;&gt;Node4 -->
<g id="edge7" class="edge">
<title>Node5&#45;&gt;Node4</title>
<path fill="none" stroke="midnightblue" d="M155.53,-399.79C164.51,-427.42 193.32,-507.15 241,-556 244.37,-559.46 248.35,-562.56 252.5,-565.31"/>
<polygon fill="midnightblue" stroke="midnightblue" points="250.72,-568.32 261.11,-570.42 254.29,-562.3 250.72,-568.32"/>
</g>
<!-- Node6 -->
<g id="node6" class="node">
<title>Node6</title>
<g id="a_node6"><a xlink:href="group__datatypes__binary.html#ga7ce4ed94d9b389ff817ea219918b8732" target="_top" xlink:title="Test if a binary bit position of an integer value equals a test bit.">
<polygon fill="white" stroke="black" points="245,-380.5 245,-399.5 324,-399.5 324,-380.5 245,-380.5"/>
<text text-anchor="middle" x="284.5" y="-387.5" font-family="Helvetica,sans-Serif" font-size="10.00">binary_bit_is</text>
</a>
</g>
</g>
<!-- Node5&#45;&gt;Node6 -->
<g id="edge6" class="edge">
<title>Node5&#45;&gt;Node6</title>
<path fill="none" stroke="midnightblue" d="M187.61,-390C202.03,-390 218.98,-390 234.58,-390"/>
<polygon fill="midnightblue" stroke="midnightblue" points="234.61,-393.5 244.61,-390 234.61,-386.5 234.61,-393.5"/>
</g>
<!-- Node5&#45;&gt;Node7 -->
<g id="edge8" class="edge">
<title>Node5&#45;&gt;Node7</title>
<path fill="none" stroke="midnightblue" d="M187.66,-381.61C203.83,-377.96 223.32,-373.88 241,-371 278.32,-364.92 320.57,-360.18 353.56,-356.95"/>
<polygon fill="midnightblue" stroke="midnightblue" points="354.31,-360.4 363.93,-355.96 353.64,-353.43 354.31,-360.4"/>
</g>
<!-- Node5&#45;&gt;Node8 -->
<g id="edge9" class="edge">
<title>Node5&#45;&gt;Node8</title>
<path fill="none" stroke="midnightblue" d="M160.72,-399.77C178.96,-421.28 222.66,-471.89 241,-485 243.34,-486.67 245.86,-488.25 248.45,-489.72"/>
<polygon fill="midnightblue" stroke="midnightblue" points="246.93,-492.88 257.42,-494.33 250.12,-486.65 246.93,-492.88"/>
</g>
<!-- Node5&#45;&gt;Node12 -->
<g id="edge24" class="edge">
<title>Node5&#45;&gt;Node12</title>
<path fill="none" stroke="midnightblue" d="M173.19,-380.45C190.87,-372.63 217.16,-361.77 241,-355 332.25,-329.08 444.34,-319.22 499.7,-315.74"/>
<polygon fill="midnightblue" stroke="midnightblue" points="500.22,-319.21 509.99,-315.12 499.8,-312.22 500.22,-319.21"/>
</g>
<!-- Node18 -->
<g id="node18" class="node">
<title>Node18</title>
<g id="a_node18"><a xlink:href="group__tools__operation__cs.html#gafa05aca176d441020de53da835e3dd60" target="_top" xlink:title="Conditionally apply the convex hull transformation.">
<polygon fill="white" stroke="black" points="259.5,-456.5 259.5,-475.5 309.5,-475.5 309.5,-456.5 259.5,-456.5"/>
<text text-anchor="middle" x="284.5" y="-463.5" font-family="Helvetica,sans-Serif" font-size="10.00">hull_cs</text>
</a>
</g>
</g>
<!-- Node5&#45;&gt;Node18 -->
<g id="edge21" class="edge">
<title>Node5&#45;&gt;Node18</title>
<path fill="none" stroke="midnightblue" d="M165.9,-399.55C182.91,-411.45 213.36,-432.03 241,-447 244.25,-448.76 247.69,-450.49 251.15,-452.16"/>
<polygon fill="midnightblue" stroke="midnightblue" points="249.71,-455.35 260.25,-456.37 252.65,-448.99 249.71,-455.35"/>
</g>
<!-- Node5&#45;&gt;Node20 -->
<g id="edge23" class="edge">
<title>Node5&#45;&gt;Node20</title>
<path fill="none" stroke="midnightblue" d="M160.29,-380.46C174.87,-363.03 207.78,-325.46 241,-300 245.26,-296.73 250.02,-293.61 254.76,-290.77"/>
<polygon fill="midnightblue" stroke="midnightblue" points="256.78,-293.65 263.74,-285.67 253.32,-287.56 256.78,-293.65"/>
</g>
<!-- Node21 -->
<g id="node21" class="node">
<title>Node21</title>
<g id="a_node21"><a xlink:href="group__math__polygon.html#ga0e085cf8ec515dccdeff907f84fdae55" target="_top" xlink:title="Compute coordinates of an arc with constant radius between two vectors in 2D.">
<polygon fill="white" stroke="black" points="241,-418.5 241,-437.5 328,-437.5 328,-418.5 241,-418.5"/>
<text text-anchor="middle" x="284.5" y="-425.5" font-family="Helvetica,sans-Serif" font-size="10.00">polygon_arc_p</text>
</a>
</g>
</g>
<!-- Node5&#45;&gt;Node21 -->
<g id="edge25" class="edge">
<title>Node5&#45;&gt;Node21</title>
<path fill="none" stroke="midnightblue" d="M185.56,-399.59C202.31,-404.45 222.86,-410.41 240.8,-415.61"/>
<polygon fill="midnightblue" stroke="midnightblue" points="239.87,-418.99 250.45,-418.41 241.82,-412.27 239.87,-418.99"/>
</g>
<!-- Node5&#45;&gt;Node22 -->
<g id="edge26" class="edge">
<title>Node5&#45;&gt;Node22</title>
<path fill="none" stroke="midnightblue" d="M156.62,-380.29C167.25,-356.3 197.8,-293.54 241,-257 242.94,-255.36 245.05,-253.83 247.26,-252.41"/>
<polygon fill="midnightblue" stroke="midnightblue" points="249.04,-255.43 256.08,-247.51 245.64,-249.31 249.04,-255.43"/>
</g>
<!-- Node8&#45;&gt;Node7 -->
<g id="edge20" class="edge">
<title>Node8&#45;&gt;Node7</title>
<path fill="none" stroke="midnightblue" d="M314.68,-494.3C319.52,-491.8 324.19,-488.73 328,-485 354.72,-458.86 344.04,-440.6 364,-409 373.02,-394.72 385.14,-379.98 394.74,-369.06"/>
<polygon fill="midnightblue" stroke="midnightblue" points="397.42,-371.31 401.5,-361.54 392.21,-366.64 397.42,-371.31"/>
</g>
<!-- Node9 -->
<g id="node9" class="node">
<title>Node9</title>
<g id="a_node9"><a xlink:href="group__tools__align.html#ga7a21147611850c6cae7e95d23417099b" target="_top" xlink:title="Align a line or vector to a reference line or vector.">
<polygon fill="white" stroke="black" points="385.5,-456.5 385.5,-475.5 437.5,-475.5 437.5,-456.5 385.5,-456.5"/>
<text text-anchor="middle" x="411.5" y="-463.5" font-family="Helvetica,sans-Serif" font-size="10.00">align_ll</text>
</a>
</g>
</g>
<!-- Node8&#45;&gt;Node9 -->
<g id="edge10" class="edge">
<title>Node8&#45;&gt;Node9</title>
<path fill="none" stroke="midnightblue" d="M317.04,-494.41C334.86,-488.99 357.17,-482.21 375.53,-476.63"/>
<polygon fill="midnightblue" stroke="midnightblue" points="376.71,-479.93 385.26,-473.67 374.68,-473.23 376.71,-479.93"/>
</g>
<!-- Node17 -->
<g id="node17" class="node">
<title>Node17</title>
<g id="a_node17"><a xlink:href="group__datatypes__euclidean.html#gaef5b930729755b4420098776467ac210" target="_top" xlink:title="Compute the distance between two points.">
<polygon fill="white" stroke="black" points="374,-494.5 374,-513.5 449,-513.5 449,-494.5 374,-494.5"/>
<text text-anchor="middle" x="411.5" y="-501.5" font-family="Helvetica,sans-Serif" font-size="10.00">distance_pp</text>
</a>
</g>
</g>
<!-- Node8&#45;&gt;Node17 -->
<g id="edge19" class="edge">
<title>Node8&#45;&gt;Node17</title>
<path fill="none" stroke="midnightblue" d="M324.71,-504C337.14,-504 351,-504 363.9,-504"/>
<polygon fill="midnightblue" stroke="midnightblue" points="363.99,-507.5 373.99,-504 363.99,-500.5 363.99,-507.5"/>
</g>
<!-- Node9&#45;&gt;Node3 -->
<g id="edge11" class="edge">
<title>Node9&#45;&gt;Node3</title>
<path fill="none" stroke="midnightblue" d="M437.65,-472.42C445.2,-475.3 453.05,-479.36 459,-485 486.14,-510.7 468.72,-534.43 495,-561 496.39,-562.41 497.91,-563.72 499.51,-564.95"/>
<polygon fill="midnightblue" stroke="midnightblue" points="497.72,-567.97 508.02,-570.42 501.5,-562.07 497.72,-567.97"/>
</g>
<!-- Node10 -->
<g id="node10" class="node">
<title>Node10</title>
<g id="a_node10"><a xlink:href="group__datatypes__euclidean.html#ga882329ee346d5a7f9d0877afd115c3de" target="_top" xlink:title="Compute the cross product of two lines or vectors in a 3d or 2d&#45;space.">
<polygon fill="white" stroke="black" points="508.5,-456.5 508.5,-475.5 561.5,-475.5 561.5,-456.5 508.5,-456.5"/>
<text text-anchor="middle" x="535" y="-463.5" font-family="Helvetica,sans-Serif" font-size="10.00">cross_ll</text>
</a>
</g>
</g>
<!-- Node9&#45;&gt;Node10 -->
<g id="edge12" class="edge">
<title>Node9&#45;&gt;Node10</title>
<path fill="none" stroke="midnightblue" d="M437.67,-466C455.23,-466 478.91,-466 498.4,-466"/>
<polygon fill="midnightblue" stroke="midnightblue" points="498.44,-469.5 508.44,-466 498.44,-462.5 498.44,-469.5"/>
</g>
<!-- Node9&#45;&gt;Node11 -->
<g id="edge13" class="edge">
<title>Node9&#45;&gt;Node11</title>
<path fill="none" stroke="midnightblue" d="M437.65,-459.58C445.2,-456.7 453.05,-452.64 459,-447 486.14,-421.3 468.72,-397.57 495,-371 497.04,-368.94 499.34,-367.07 501.78,-365.38"/>
<polygon fill="midnightblue" stroke="midnightblue" points="503.59,-368.38 510.46,-360.32 500.06,-362.34 503.59,-368.38"/>
</g>
<!-- Node9&#45;&gt;Node12 -->
<g id="edge14" class="edge">
<title>Node9&#45;&gt;Node12</title>
<path fill="none" stroke="midnightblue" d="M437.64,-460.23C445.37,-457.37 453.33,-453.16 459,-447 495,-407.92 460.3,-373.24 495,-333 496.72,-331 498.7,-329.2 500.84,-327.57"/>
<polygon fill="midnightblue" stroke="midnightblue" points="502.97,-330.37 509.63,-322.12 499.28,-324.42 502.97,-330.37"/>
</g>
<!-- Node13 -->
<g id="node13" class="node">
<title>Node13</title>
<g id="a_node13"><a xlink:href="group__datatypes__list__operate.html#ga1088f9b09ff8ed12e2c844758f39c039" target="_top" xlink:title="Compute the mean/average of a list of numbers.">
<polygon fill="white" stroke="black" points="513,-418.5 513,-437.5 557,-437.5 557,-418.5 513,-418.5"/>
<text text-anchor="middle" x="535" y="-425.5" font-family="Helvetica,sans-Serif" font-size="10.00">mean</text>
</a>
</g>
</g>
<!-- Node9&#45;&gt;Node13 -->
<g id="edge15" class="edge">
<title>Node9&#45;&gt;Node13</title>
<path fill="none" stroke="midnightblue" d="M437.67,-458.13C456.7,-452.18 482.92,-443.98 503.2,-437.63"/>
<polygon fill="midnightblue" stroke="midnightblue" points="504.41,-440.92 512.91,-434.6 502.32,-434.24 504.41,-440.92"/>
</g>
<!-- Node14 -->
<g id="node14" class="node">
<title>Node14</title>
<g id="a_node14"><a xlink:href="group__datatypes__euclidean.html#ga78d67c74076bef2e80a95b1e9b6eb2d7" target="_top" xlink:title="Return 3d point unchanged or add a zeroed third dimension to 2d point.">
<polygon fill="white" stroke="black" points="498,-380.5 498,-399.5 572,-399.5 572,-380.5 498,-380.5"/>
<text text-anchor="middle" x="535" y="-387.5" font-family="Helvetica,sans-Serif" font-size="10.00">point_to_3d</text>
</a>
</g>
</g>
<!-- Node9&#45;&gt;Node14 -->
<g id="edge16" class="edge">
<title>Node9&#45;&gt;Node14</title>
<path fill="none" stroke="midnightblue" d="M437.63,-457.99C444.85,-455.1 452.52,-451.43 459,-447 478.2,-433.86 476.24,-422.76 495,-409 497.2,-407.39 499.56,-405.85 501.99,-404.4"/>
<polygon fill="midnightblue" stroke="midnightblue" points="503.82,-407.39 510.93,-399.54 500.48,-401.24 503.82,-407.39"/>
</g>
<!-- Node15 -->
<g id="node15" class="node">
<title>Node15</title>
<g id="a_node15"><a xlink:href="group__datatypes__list__operate.html#ga7b8e6f2bbfa72ae61e39377e5ca6b5be" target="_top" xlink:title="Select specified element from list or return a default.">
<polygon fill="white" stroke="black" points="505.5,-532.5 505.5,-551.5 564.5,-551.5 564.5,-532.5 505.5,-532.5"/>
<text text-anchor="middle" x="535" y="-539.5" font-family="Helvetica,sans-Serif" font-size="10.00">select_ci</text>
</a>
</g>
</g>
<!-- Node9&#45;&gt;Node15 -->
<g id="edge17" class="edge">
<title>Node9&#45;&gt;Node15</title>
<path fill="none" stroke="midnightblue" d="M437.63,-474.01C444.85,-476.9 452.52,-480.57 459,-485 478.2,-498.14 476.24,-509.24 495,-523 497.2,-524.61 499.56,-526.15 501.99,-527.6"/>
<polygon fill="midnightblue" stroke="midnightblue" points="500.48,-530.76 510.93,-532.46 503.82,-524.61 500.48,-530.76"/>
</g>
<!-- Node16 -->
<g id="node16" class="node">
<title>Node16</title>
<g id="a_node16"><a xlink:href="group__datatypes__euclidean.html#ga6ef2a81f304d31b9ec9753ca4875ad45" target="_top" xlink:title="Convert line to vector by shifting it to the origin.">
<polygon fill="white" stroke="black" points="495,-494.5 495,-513.5 575,-513.5 575,-494.5 495,-494.5"/>
<text text-anchor="middle" x="535" y="-501.5" font-family="Helvetica,sans-Serif" font-size="10.00">vol_to_origin</text>
</a>
</g>
</g>
<!-- Node9&#45;&gt;Node16 -->
<g id="edge18" class="edge">
<title>Node9&#45;&gt;Node16</title>
<path fill="none" stroke="midnightblue" d="M437.67,-473.87C453.82,-478.92 475.14,-485.59 493.61,-491.37"/>
<polygon fill="midnightblue" stroke="midnightblue" points="492.67,-494.74 503.25,-494.38 494.76,-488.06 492.67,-494.74"/>
</g>
<!-- Node19 -->
<g id="node19" class="node">
<title>Node19</title>
<g id="a_node19"><a xlink:href="group__datatypes__scalar__test.html#ga51d7fdb800c10f4b7479d23b89ab8d22" target="_top" xlink:title="Test if a value is defined.">
<polygon fill="white" stroke="black" points="378.5,-418.5 378.5,-437.5 444.5,-437.5 444.5,-418.5 378.5,-418.5"/>
<text text-anchor="middle" x="411.5" y="-425.5" font-family="Helvetica,sans-Serif" font-size="10.00">is_defined</text>
</a>
</g>
</g>
<!-- Node18&#45;&gt;Node19 -->
<g id="edge22" class="edge">
<title>Node18&#45;&gt;Node19</title>
<path fill="none" stroke="midnightblue" d="M309.6,-458.67C326.47,-453.54 349.44,-446.56 369.2,-440.55"/>
<polygon fill="midnightblue" stroke="midnightblue" points="370.35,-443.86 378.9,-437.61 368.31,-437.17 370.35,-443.86"/>
</g>
</g>
</svg>
