<?xml version="1.0" encoding="UTF-8" standalone="no"?>
<!DOCTYPE svg PUBLIC "-//W3C//DTD SVG 1.1//EN"
 "http://www.w3.org/Graphics/SVG/1.1/DTD/svg11.dtd">
<!-- Generated by graphviz version 2.43.0 (0)
 -->
<!-- Title: draft_dim_line Pages: 1 -->
<svg width="808pt" height="1158pt"
 viewBox="0.00 0.00 808.00 1158.00" xmlns="http://www.w3.org/2000/svg" xmlns:xlink="http://www.w3.org/1999/xlink">
<g id="graph0" class="graph" transform="scale(1 1) rotate(0) translate(4 1154)">
<title>draft_dim_line</title>
<polygon fill="white" stroke="transparent" points="-4,4 -4,-1154 804,-1154 804,4 -4,4"/>
<!-- Node1 -->
<g id="node1" class="node">
<title>Node1</title>
<g id="a_node1"><a xlink:title="Construct a dimension line between two points.">
<polygon fill="#bfbfbf" stroke="black" points="0,-323.5 0,-342.5 86,-342.5 86,-323.5 0,-323.5"/>
<text text-anchor="middle" x="43" y="-330.5" font-family="Helvetica,sans-Serif" font-size="10.00">draft_dim_line</text>
</a>
</g>
</g>
<!-- Node2 -->
<g id="node2" class="node">
<title>Node2</title>
<g id="a_node2"><a xlink:href="group__datatypes__euclidean.html#ga3d5c07c70f271bcf9144f50ce8620a89" target="_top" xlink:title="Compute the angle between two lines or vectors in a 3d or 2d&#45;space.">
<polygon fill="white" stroke="black" points="732.5,-665.5 732.5,-684.5 787.5,-684.5 787.5,-665.5 732.5,-665.5"/>
<text text-anchor="middle" x="760" y="-672.5" font-family="Helvetica,sans-Serif" font-size="10.00">angle_ll</text>
</a>
</g>
</g>
<!-- Node1&#45;&gt;Node2 -->
<g id="edge1" class="edge">
<title>Node1&#45;&gt;Node2</title>
<path fill="none" stroke="midnightblue" d="M53.58,-342.85C67.39,-356.4 94.26,-380.54 122,-393 197.74,-427.01 222.47,-428 305.5,-428 305.5,-428 305.5,-428 475.5,-428 614.37,-428 718.2,-598.55 749.34,-656.21"/>
<polygon fill="midnightblue" stroke="midnightblue" points="746.39,-658.11 754.15,-665.32 752.57,-654.84 746.39,-658.11"/>
</g>
<!-- Node3 -->
<g id="node3" class="node">
<title>Node3</title>
<g id="a_node3"><a xlink:href="group__datatypes__iterable__operate.html#ga3d37c2b0067d1661724bd89955c8f6ce" target="_top" xlink:title="Return an element of an iterable when it exists or a default value otherwise.">
<polygon fill="white" stroke="black" points="435,-922.5 435,-941.5 514,-941.5 514,-922.5 435,-922.5"/>
<text text-anchor="middle" x="474.5" y="-929.5" font-family="Helvetica,sans-Serif" font-size="10.00">defined_e_or</text>
</a>
</g>
</g>
<!-- Node1&#45;&gt;Node3 -->
<g id="edge2" class="edge">
<title>Node1&#45;&gt;Node3</title>
<path fill="none" stroke="midnightblue" d="M44.84,-342.83C50.1,-402.93 79.58,-721.06 122,-808 159.65,-885.17 174.35,-915.55 253,-950 314,-976.72 393.52,-958.99 438.49,-944.76"/>
<polygon fill="midnightblue" stroke="midnightblue" points="439.67,-948.06 448.08,-941.61 437.48,-941.41 439.67,-948.06"/>
</g>
<!-- Node4 -->
<g id="node4" class="node">
<title>Node4</title>
<g id="a_node4"><a xlink:href="group__datatypes__scalar__operate.html#gac119300e8c83de0037f2d0a4d9f0ab5c" target="_top" xlink:title="Return given value, if defined, or a secondary value, if primary is not defined.">
<polygon fill="white" stroke="black" points="272.5,-190.5 272.5,-209.5 340.5,-209.5 340.5,-190.5 272.5,-190.5"/>
<text text-anchor="middle" x="306.5" y="-197.5" font-family="Helvetica,sans-Serif" font-size="10.00">defined_or</text>
</a>
</g>
</g>
<!-- Node1&#45;&gt;Node4 -->
<g id="edge3" class="edge">
<title>Node1&#45;&gt;Node4</title>
<path fill="none" stroke="midnightblue" d="M86.17,-331.86C123.98,-328.84 179.15,-319.22 217,-290 243.45,-269.58 228.55,-246.78 253,-224 257.08,-220.2 261.86,-216.92 266.85,-214.11"/>
<polygon fill="midnightblue" stroke="midnightblue" points="268.58,-217.16 275.96,-209.55 265.45,-210.9 268.58,-217.16"/>
</g>
<!-- Node5 -->
<g id="node5" class="node">
<title>Node5</title>
<g id="a_node5"><a xlink:href="group__datatypes__euclidean.html#gaef5b930729755b4420098776467ac210" target="_top" xlink:title="Compute the distance between two points.">
<polygon fill="white" stroke="black" points="599,-1026.5 599,-1045.5 674,-1045.5 674,-1026.5 599,-1026.5"/>
<text text-anchor="middle" x="636.5" y="-1033.5" font-family="Helvetica,sans-Serif" font-size="10.00">distance_pp</text>
</a>
</g>
</g>
<!-- Node1&#45;&gt;Node5 -->
<g id="edge4" class="edge">
<title>Node1&#45;&gt;Node5</title>
<path fill="none" stroke="midnightblue" d="M44.31,-342.79C46.55,-408.69 61.93,-787.77 122,-883 221.9,-1041.38 482.19,-1045.28 588.86,-1039.72"/>
<polygon fill="midnightblue" stroke="midnightblue" points="589.22,-1043.21 599,-1039.14 588.81,-1036.22 589.22,-1043.21"/>
</g>
<!-- Node6 -->
<g id="node6" class="node">
<title>Node6</title>
<g id="a_node6"><a xlink:href="group__tools__drafting__primitive.html#ga9e80066573c9e9b2b1cf6af71cf453b0" target="_top" xlink:title="Check if any identified layers are active.">
<polygon fill="white" stroke="black" points="408,-152.5 408,-171.5 541,-171.5 541,-152.5 408,-152.5"/>
<text text-anchor="middle" x="474.5" y="-159.5" font-family="Helvetica,sans-Serif" font-size="10.00">draft_layers_any_active</text>
</a>
</g>
</g>
<!-- Node1&#45;&gt;Node6 -->
<g id="edge5" class="edge">
<title>Node1&#45;&gt;Node6</title>
<path fill="none" stroke="midnightblue" d="M59.44,-323.47C74.89,-314.17 99.54,-300 122,-290 162.83,-271.81 183.73,-286.85 217,-257 244.82,-232.04 222.31,-202.33 253,-181 297.98,-149.75 361.23,-147.41 408.46,-151.47"/>
<polygon fill="midnightblue" stroke="midnightblue" points="408.29,-154.97 418.59,-152.46 408.97,-148.01 408.29,-154.97"/>
</g>
<!-- Node7 -->
<g id="node7" class="node">
<title>Node7</title>
<g id="a_node7"><a xlink:href="group__tools__drafting__primitive.html#ga060910368142d6371cf4f3f30be7561e" target="_top" xlink:title="Draft a line with configurable style and optional arrowheads.">
<polygon fill="white" stroke="black" points="138.5,-779.5 138.5,-798.5 200.5,-798.5 200.5,-779.5 138.5,-779.5"/>
<text text-anchor="middle" x="169.5" y="-786.5" font-family="Helvetica,sans-Serif" font-size="10.00">draft_line</text>
</a>
</g>
</g>
<!-- Node1&#45;&gt;Node7 -->
<g id="edge6" class="edge">
<title>Node1&#45;&gt;Node7</title>
<path fill="none" stroke="midnightblue" d="M46.6,-342.52C62.01,-398.96 141.41,-689.79 163.05,-769.04"/>
<polygon fill="midnightblue" stroke="midnightblue" points="159.8,-770.42 165.81,-779.14 166.55,-768.57 159.8,-770.42"/>
</g>
<!-- Node16 -->
<g id="node16" class="node">
<title>Node16</title>
<g id="a_node16"><a xlink:href="group__datatypes__euclidean.html#ga299bce4158dc8d0a7a8e7d9967b8ea4e" target="_top" xlink:title="Return the terminal point of a line or vector.">
<polygon fill="white" stroke="black" points="735,-1026.5 735,-1045.5 785,-1045.5 785,-1026.5 735,-1026.5"/>
<text text-anchor="middle" x="760" y="-1033.5" font-family="Helvetica,sans-Serif" font-size="10.00">line_tp</text>
</a>
</g>
</g>
<!-- Node1&#45;&gt;Node16 -->
<g id="edge62" class="edge">
<title>Node1&#45;&gt;Node16</title>
<path fill="none" stroke="midnightblue" d="M44.48,-342.7C48,-411.46 71.07,-825.53 122,-939 172.89,-1052.38 181.22,-1150 305.5,-1150 305.5,-1150 305.5,-1150 475.5,-1150 580.19,-1150 691.94,-1082.26 737.66,-1051.21"/>
<polygon fill="midnightblue" stroke="midnightblue" points="739.66,-1054.08 745.9,-1045.52 735.68,-1048.32 739.66,-1054.08"/>
</g>
<!-- Node22 -->
<g id="node22" class="node">
<title>Node22</title>
<g id="a_node22"><a xlink:href="group__datatypes__scalar__test.html#ga51d7fdb800c10f4b7479d23b89ab8d22" target="_top" xlink:title="Test if a value is defined.">
<polygon fill="white" stroke="black" points="603.5,-380.5 603.5,-399.5 669.5,-399.5 669.5,-380.5 603.5,-380.5"/>
<text text-anchor="middle" x="636.5" y="-387.5" font-family="Helvetica,sans-Serif" font-size="10.00">is_defined</text>
</a>
</g>
</g>
<!-- Node1&#45;&gt;Node22 -->
<g id="edge57" class="edge">
<title>Node1&#45;&gt;Node22</title>
<path fill="none" stroke="midnightblue" d="M58.82,-342.56C74,-351.77 98.62,-365.15 122,-371 292.27,-413.6 504.13,-401.94 593.08,-394.26"/>
<polygon fill="midnightblue" stroke="midnightblue" points="593.66,-397.73 603.3,-393.35 593.03,-390.75 593.66,-397.73"/>
</g>
<!-- Node23 -->
<g id="node23" class="node">
<title>Node23</title>
<g id="a_node23"><a xlink:href="group__datatypes__euclidean.html#gaa686049dfa9296b441a12e225aa1537d" target="_top" xlink:title="Construct a 2 dimensional directed line.">
<polygon fill="white" stroke="black" points="438.5,-494.5 438.5,-513.5 510.5,-513.5 510.5,-494.5 438.5,-494.5"/>
<text text-anchor="middle" x="474.5" y="-501.5" font-family="Helvetica,sans-Serif" font-size="10.00">line2d_new</text>
</a>
</g>
</g>
<!-- Node1&#45;&gt;Node23 -->
<g id="edge61" class="edge">
<title>Node1&#45;&gt;Node23</title>
<path fill="none" stroke="midnightblue" d="M46.31,-342.7C53.01,-368.46 74.99,-438.82 122,-471 170.63,-504.28 344.5,-506.18 428.04,-505.07"/>
<polygon fill="midnightblue" stroke="midnightblue" points="428.31,-508.57 438.25,-504.91 428.2,-501.57 428.31,-508.57"/>
</g>
<!-- Node29 -->
<g id="node29" class="node">
<title>Node29</title>
<g id="a_node29"><a xlink:href="group__tools__drafting__primitive.html#ga9a4b6eb4b387537f7bc1cc6c4d8f4449" target="_top" xlink:title="Extrude 2D drafted constructions to 3D if configured.">
<polygon fill="white" stroke="black" points="396,-456.5 396,-475.5 553,-475.5 553,-456.5 396,-456.5"/>
<text text-anchor="middle" x="474.5" y="-463.5" font-family="Helvetica,sans-Serif" font-size="10.00">draft_make_3d_if_configured</text>
</a>
</g>
</g>
<!-- Node1&#45;&gt;Node29 -->
<g id="edge42" class="edge">
<title>Node1&#45;&gt;Node29</title>
<path fill="none" stroke="midnightblue" d="M47.6,-342.78C56.36,-365.01 81.16,-419.21 122,-442 212.55,-492.52 337.32,-486.66 411.27,-476.93"/>
<polygon fill="midnightblue" stroke="midnightblue" points="411.93,-480.37 421.36,-475.54 410.98,-473.44 411.93,-480.37"/>
</g>
<!-- Node30 -->
<g id="node30" class="node">
<title>Node30</title>
<g id="a_node30"><a xlink:href="group__tools__drafting__operation.html#gac1b780633ac5e2874a8a00177d98b305" target="_top" xlink:title="Construct a text note with optional heading and boarder.">
<polygon fill="white" stroke="black" points="136.5,-342.5 136.5,-361.5 202.5,-361.5 202.5,-342.5 136.5,-342.5"/>
<text text-anchor="middle" x="169.5" y="-349.5" font-family="Helvetica,sans-Serif" font-size="10.00">draft_note</text>
</a>
</g>
</g>
<!-- Node1&#45;&gt;Node30 -->
<g id="edge44" class="edge">
<title>Node1&#45;&gt;Node30</title>
<path fill="none" stroke="midnightblue" d="M86.15,-339.43C99.06,-341.4 113.27,-343.57 126.19,-345.54"/>
<polygon fill="midnightblue" stroke="midnightblue" points="125.82,-349.03 136.24,-347.08 126.88,-342.11 125.82,-349.03"/>
</g>
<!-- Node36 -->
<g id="node36" class="node">
<title>Node36</title>
<g id="a_node36"><a xlink:href="group__datatypes__iterable__test.html#gaba1e87e102e1f9231ba30b43c8caa947" target="_top" xlink:title="Test if an iterable value is empty.">
<polygon fill="white" stroke="black" points="138.5,-228.5 138.5,-247.5 200.5,-247.5 200.5,-228.5 138.5,-228.5"/>
<text text-anchor="middle" x="169.5" y="-235.5" font-family="Helvetica,sans-Serif" font-size="10.00">is_empty</text>
</a>
</g>
</g>
<!-- Node1&#45;&gt;Node36 -->
<g id="edge58" class="edge">
<title>Node1&#45;&gt;Node36</title>
<path fill="none" stroke="midnightblue" d="M52.92,-323.4C66.76,-308.88 94.64,-281.02 122,-262 126.97,-258.55 132.5,-255.26 137.97,-252.3"/>
<polygon fill="midnightblue" stroke="midnightblue" points="139.72,-255.33 146.99,-247.63 136.5,-249.12 139.72,-255.33"/>
</g>
<!-- Node37 -->
<g id="node37" class="node">
<title>Node37</title>
<g id="a_node37"><a xlink:href="group__datatypes__scalar__test.html#gac47a7785d144083733c43327ea092e1d" target="_top" xlink:title="Test if a value is a number.">
<polygon fill="white" stroke="black" points="135.5,-190.5 135.5,-209.5 203.5,-209.5 203.5,-190.5 135.5,-190.5"/>
<text text-anchor="middle" x="169.5" y="-197.5" font-family="Helvetica,sans-Serif" font-size="10.00">is_number</text>
</a>
</g>
</g>
<!-- Node1&#45;&gt;Node37 -->
<g id="edge59" class="edge">
<title>Node1&#45;&gt;Node37</title>
<path fill="none" stroke="midnightblue" d="M48.21,-323.35C58.07,-301.76 84.69,-249.13 122,-219 124.02,-217.37 126.2,-215.86 128.47,-214.47"/>
<polygon fill="midnightblue" stroke="midnightblue" points="130.36,-217.43 137.56,-209.66 127.09,-211.24 130.36,-217.43"/>
</g>
<!-- Node38 -->
<g id="node38" class="node">
<title>Node38</title>
<g id="a_node38"><a xlink:href="group__units__length.html#ga4e8b3884a104d09e926928dcedd30d03" target="_top" xlink:title="Convert a value from from one units to another with dimensions.">
<polygon fill="white" stroke="black" points="146,-152.5 146,-171.5 193,-171.5 193,-152.5 146,-152.5"/>
<text text-anchor="middle" x="169.5" y="-159.5" font-family="Helvetica,sans-Serif" font-size="10.00">length</text>
</a>
</g>
</g>
<!-- Node1&#45;&gt;Node38 -->
<g id="edge60" class="edge">
<title>Node1&#45;&gt;Node38</title>
<path fill="none" stroke="midnightblue" d="M46.4,-323.37C53.46,-296.98 76.54,-222.7 122,-181 126.18,-177.17 131.23,-174.06 136.45,-171.55"/>
<polygon fill="midnightblue" stroke="midnightblue" points="137.95,-174.71 145.86,-167.66 135.28,-168.24 137.95,-174.71"/>
</g>
<!-- Node39 -->
<g id="node39" class="node">
<title>Node39</title>
<g id="a_node39"><a xlink:href="group__datatypes__euclidean.html#gaafe92daa5d9dc4ece8d7a688dc203ddc" target="_top" xlink:title="Compute the coordinates of the closest point on a line to a given point.">
<polygon fill="white" stroke="black" points="122,-114.5 122,-133.5 217,-133.5 217,-114.5 122,-114.5"/>
<text text-anchor="middle" x="169.5" y="-121.5" font-family="Helvetica,sans-Serif" font-size="10.00">point_closest_pl</text>
</a>
</g>
</g>
<!-- Node1&#45;&gt;Node39 -->
<g id="edge63" class="edge">
<title>Node1&#45;&gt;Node39</title>
<path fill="none" stroke="midnightblue" d="M45.31,-323.26C49.95,-292.56 68.25,-196.66 122,-143 123.43,-141.57 124.99,-140.24 126.64,-139.01"/>
<polygon fill="midnightblue" stroke="midnightblue" points="128.75,-141.82 135.45,-133.62 125.1,-135.85 128.75,-141.82"/>
</g>
<!-- Node40 -->
<g id="node40" class="node">
<title>Node40</title>
<g id="a_node40"><a xlink:href="group__datatypes__list__operate.html#ga0af5678e346d62c1163afbfb604ab62a" target="_top" xlink:title="Round a list of numbers to a fixed number of decimal point digits.">
<polygon fill="white" stroke="black" points="141.5,-76.5 141.5,-95.5 197.5,-95.5 197.5,-76.5 141.5,-76.5"/>
<text text-anchor="middle" x="169.5" y="-83.5" font-family="Helvetica,sans-Serif" font-size="10.00">round_d</text>
</a>
</g>
</g>
<!-- Node1&#45;&gt;Node40 -->
<g id="edge64" class="edge">
<title>Node1&#45;&gt;Node40</title>
<path fill="none" stroke="midnightblue" d="M44.54,-323.34C46.97,-288.94 59.7,-171.04 122,-105 124.81,-102.02 128.16,-99.49 131.76,-97.35"/>
<polygon fill="midnightblue" stroke="midnightblue" points="133.6,-100.34 141.03,-92.79 130.51,-94.06 133.6,-100.34"/>
</g>
<!-- Node41 -->
<g id="node41" class="node">
<title>Node41</title>
<g id="a_node41"><a xlink:href="group__datatypes__list__operate.html#gab8c413e8ab85026e681a97cee974aae1" target="_top" xlink:title="Round a list of numbers to a fixed number of significant figures.">
<polygon fill="white" stroke="black" points="142,-38.5 142,-57.5 197,-57.5 197,-38.5 142,-38.5"/>
<text text-anchor="middle" x="169.5" y="-45.5" font-family="Helvetica,sans-Serif" font-size="10.00">round_s</text>
</a>
</g>
</g>
<!-- Node1&#45;&gt;Node41 -->
<g id="edge65" class="edge">
<title>Node1&#45;&gt;Node41</title>
<path fill="none" stroke="midnightblue" d="M43.99,-323.36C44.45,-285.56 51.07,-145.61 122,-67 125.04,-63.63 128.76,-60.85 132.77,-58.55"/>
<polygon fill="midnightblue" stroke="midnightblue" points="134.29,-61.7 141.83,-54.26 131.3,-55.37 134.29,-61.7"/>
</g>
<!-- Node42 -->
<g id="node42" class="node">
<title>Node42</title>
<g id="a_node42"><a xlink:href="group__datatypes__iterable__operate.html#ga894d4bec62cc9cf38d5e099de3028c54" target="_top" xlink:title="Return the second element of an iterable value.">
<polygon fill="white" stroke="black" points="144,-0.5 144,-19.5 195,-19.5 195,-0.5 144,-0.5"/>
<text text-anchor="middle" x="169.5" y="-7.5" font-family="Helvetica,sans-Serif" font-size="10.00">second</text>
</a>
</g>
</g>
<!-- Node1&#45;&gt;Node42 -->
<g id="edge66" class="edge">
<title>Node1&#45;&gt;Node42</title>
<path fill="none" stroke="midnightblue" d="M43.56,-323.44C42.23,-282.56 42.33,-120.38 122,-29 125.42,-25.07 129.78,-21.95 134.45,-19.46"/>
<polygon fill="midnightblue" stroke="midnightblue" points="135.9,-22.64 143.64,-15.42 133.08,-16.23 135.9,-22.64"/>
</g>
<!-- Node7&#45;&gt;Node2 -->
<g id="edge8" class="edge">
<title>Node7&#45;&gt;Node2</title>
<path fill="none" stroke="midnightblue" d="M185.91,-779.43C201.96,-770.07 228.2,-756.44 253,-751 299.45,-740.82 312.97,-743.97 360,-751 376.55,-753.47 379.45,-759.53 396,-762 522.69,-780.92 567.99,-805.32 684,-751 711.16,-738.28 733.95,-711.28 747.04,-693.13"/>
<polygon fill="midnightblue" stroke="midnightblue" points="750.16,-694.78 752.98,-684.57 744.4,-690.8 750.16,-694.78"/>
</g>
<!-- Node7&#45;&gt;Node3 -->
<g id="edge9" class="edge">
<title>Node7&#45;&gt;Node3</title>
<path fill="none" stroke="midnightblue" d="M173.02,-798.79C180.27,-824.74 203.92,-895.29 253,-924 305.37,-954.63 377.34,-950.42 424.61,-942.76"/>
<polygon fill="midnightblue" stroke="midnightblue" points="425.34,-946.19 434.6,-941.03 424.15,-939.29 425.34,-946.19"/>
</g>
<!-- Node8 -->
<g id="node8" class="node">
<title>Node8</title>
<g id="a_node8"><a xlink:href="group__datatypes__iterable__test.html#ga4dfc58aa5f208e103e622684db817ce6" target="_top" xlink:title="Test if all elements of an iterable value equal a comparison value.">
<polygon fill="white" stroke="black" points="276,-760.5 276,-779.5 337,-779.5 337,-760.5 276,-760.5"/>
<text text-anchor="middle" x="306.5" y="-767.5" font-family="Helvetica,sans-Serif" font-size="10.00">all_equal</text>
</a>
</g>
</g>
<!-- Node7&#45;&gt;Node8 -->
<g id="edge7" class="edge">
<title>Node7&#45;&gt;Node8</title>
<path fill="none" stroke="midnightblue" d="M200.8,-784.74C219.95,-782.04 244.91,-778.53 265.66,-775.61"/>
<polygon fill="midnightblue" stroke="midnightblue" points="266.35,-779.04 275.77,-774.18 265.38,-772.11 266.35,-779.04"/>
</g>
<!-- Node9 -->
<g id="node9" class="node">
<title>Node9</title>
<g id="a_node9"><a xlink:href="group__tools__drafting__primitive.html#ga6f12ccd4c9de0a8ab887184911f39c8f" target="_top" xlink:title="Draft an arrowhead at the terminal point of a line.">
<polygon fill="white" stroke="black" points="270.5,-608.5 270.5,-627.5 342.5,-627.5 342.5,-608.5 270.5,-608.5"/>
<text text-anchor="middle" x="306.5" y="-615.5" font-family="Helvetica,sans-Serif" font-size="10.00">draft_arrow</text>
</a>
</g>
</g>
<!-- Node7&#45;&gt;Node9 -->
<g id="edge10" class="edge">
<title>Node7&#45;&gt;Node9</title>
<path fill="none" stroke="midnightblue" d="M177.61,-779.24C191.68,-760 224.22,-715.94 253,-680 265.32,-664.61 279.84,-647.55 290.48,-635.23"/>
<polygon fill="midnightblue" stroke="midnightblue" points="293.24,-637.38 297.15,-627.53 287.95,-632.79 293.24,-637.38"/>
</g>
<!-- Node11 -->
<g id="node11" class="node">
<title>Node11</title>
<g id="a_node11"><a xlink:href="group__tools__drafting__config.html#gabb4fa7092928ba8803b550ac6d733f64" target="_top" xlink:title="Get drafting configuration default helper function.">
<polygon fill="white" stroke="black" points="589,-722.5 589,-741.5 684,-741.5 684,-722.5 589,-722.5"/>
<text text-anchor="middle" x="636.5" y="-729.5" font-family="Helvetica,sans-Serif" font-size="10.00">draft_get_config</text>
</a>
</g>
</g>
<!-- Node7&#45;&gt;Node11 -->
<g id="edge33" class="edge">
<title>Node7&#45;&gt;Node11</title>
<path fill="none" stroke="midnightblue" d="M177.82,-779.25C190.81,-762.86 219.69,-730.36 253,-718 297.59,-701.46 314.62,-703.79 360,-718 378.59,-723.82 377.41,-737.18 396,-743 462.59,-763.85 483.38,-747.62 553,-743 561.39,-742.44 570.24,-741.57 578.89,-740.55"/>
<polygon fill="midnightblue" stroke="midnightblue" points="579.43,-744.01 588.92,-739.31 578.57,-737.07 579.43,-744.01"/>
</g>
<!-- Node12 -->
<g id="node12" class="node">
<title>Node12</title>
<g id="a_node12"><a xlink:href="group__tools__drafting__primitive.html#ga4e7c5fa02dbc244702042067553a9225" target="_top" xlink:title="Draft a simple line from an initial to a terminal point.">
<polygon fill="white" stroke="black" points="434.5,-874.5 434.5,-893.5 514.5,-893.5 514.5,-874.5 434.5,-874.5"/>
<text text-anchor="middle" x="474.5" y="-881.5" font-family="Helvetica,sans-Serif" font-size="10.00">draft_line_pp</text>
</a>
</g>
</g>
<!-- Node7&#45;&gt;Node12 -->
<g id="edge34" class="edge">
<title>Node7&#45;&gt;Node12</title>
<path fill="none" stroke="midnightblue" d="M173.96,-798.74C182.84,-821.98 208.83,-880.44 253,-903 313.76,-934.03 396.32,-912.87 441.2,-897"/>
<polygon fill="midnightblue" stroke="midnightblue" points="442.53,-900.24 450.71,-893.51 440.12,-893.66 442.53,-900.24"/>
</g>
<!-- Node15 -->
<g id="node15" class="node">
<title>Node15</title>
<g id="a_node15"><a xlink:href="group__datatypes__euclidean.html#ga8115b05f16bcc197e3e339a65f4d3e49" target="_top" xlink:title="Return the initial point of a line or vector.">
<polygon fill="white" stroke="black" points="735.5,-950.5 735.5,-969.5 784.5,-969.5 784.5,-950.5 735.5,-950.5"/>
<text text-anchor="middle" x="760" y="-957.5" font-family="Helvetica,sans-Serif" font-size="10.00">line_ip</text>
</a>
</g>
</g>
<!-- Node7&#45;&gt;Node15 -->
<g id="edge36" class="edge">
<title>Node7&#45;&gt;Node15</title>
<path fill="none" stroke="midnightblue" d="M171.97,-798.51C177.01,-827.46 196.53,-914.72 253,-950 406.23,-1045.75 639.79,-994.12 725.75,-970.11"/>
<polygon fill="midnightblue" stroke="midnightblue" points="726.83,-973.44 735.49,-967.33 724.91,-966.71 726.83,-973.44"/>
</g>
<!-- Node7&#45;&gt;Node16 -->
<g id="edge37" class="edge">
<title>Node7&#45;&gt;Node16</title>
<path fill="none" stroke="midnightblue" d="M171.48,-798.55C175.3,-830.45 192.1,-934.09 253,-985 267.98,-997.53 559.88,-1052.16 589,-1055 631.02,-1059.1 642.1,-1060.22 684,-1055 697.67,-1053.3 712.43,-1049.91 725.21,-1046.46"/>
<polygon fill="midnightblue" stroke="midnightblue" points="726.29,-1049.79 734.97,-1043.71 724.4,-1043.05 726.29,-1049.79"/>
</g>
<!-- Node7&#45;&gt;Node23 -->
<g id="edge35" class="edge">
<title>Node7&#45;&gt;Node23</title>
<path fill="none" stroke="midnightblue" d="M170.83,-779.3C172.6,-743.74 183.71,-619.32 253,-557 278.49,-534.07 371.35,-517.81 428.12,-509.76"/>
<polygon fill="midnightblue" stroke="midnightblue" points="428.85,-513.19 438.27,-508.35 427.89,-506.26 428.85,-513.19"/>
</g>
<!-- Node25 -->
<g id="node25" class="node">
<title>Node25</title>
<g id="a_node25"><a xlink:href="group__datatypes__iterable__operate.html#gadb933df06b10d64dda8823069bdc84b7" target="_top" xlink:title="Return a list of all n&#45;element sequential&#45;subsets of an iterable value.">
<polygon fill="white" stroke="black" points="434.5,-532.5 434.5,-551.5 514.5,-551.5 514.5,-532.5 434.5,-532.5"/>
<text text-anchor="middle" x="474.5" y="-539.5" font-family="Helvetica,sans-Serif" font-size="10.00">sequence_ns</text>
</a>
</g>
</g>
<!-- Node7&#45;&gt;Node25 -->
<g id="edge41" class="edge">
<title>Node7&#45;&gt;Node25</title>
<path fill="none" stroke="midnightblue" d="M171.72,-779.39C176.21,-748.24 194.66,-649.19 253,-599 278.47,-577.09 367.27,-559.15 424.12,-549.57"/>
<polygon fill="midnightblue" stroke="midnightblue" points="425.04,-552.96 434.33,-547.88 423.9,-546.06 425.04,-552.96"/>
</g>
<!-- Node26 -->
<g id="node26" class="node">
<title>Node26</title>
<g id="a_node26"><a xlink:href="group__datatypes__list__operate.html#gac9437fd7e3cb8797fa5e901b2ab6e58a" target="_top" xlink:title="Serially merge the elements of a list.">
<polygon fill="white" stroke="black" points="277,-874.5 277,-893.5 336,-893.5 336,-874.5 277,-874.5"/>
<text text-anchor="middle" x="306.5" y="-881.5" font-family="Helvetica,sans-Serif" font-size="10.00">merge_s</text>
</a>
</g>
</g>
<!-- Node7&#45;&gt;Node26 -->
<g id="edge38" class="edge">
<title>Node7&#45;&gt;Node26</title>
<path fill="none" stroke="midnightblue" d="M178.69,-798.72C192.52,-814.6 222.04,-846.2 253,-865 257.44,-867.7 262.33,-870.1 267.27,-872.21"/>
<polygon fill="midnightblue" stroke="midnightblue" points="266.18,-875.54 276.77,-875.91 268.72,-869.02 266.18,-875.54"/>
</g>
<!-- Node27 -->
<g id="node27" class="node">
<title>Node27</title>
<g id="a_node27"><a xlink:href="group__math__polygon.html#gad35e17240bf9f3e0de4481ec467d599f" target="_top" xlink:title="Compute coordinates along a line in 2D.">
<polygon fill="white" stroke="black" points="261.5,-836.5 261.5,-855.5 351.5,-855.5 351.5,-836.5 261.5,-836.5"/>
<text text-anchor="middle" x="306.5" y="-843.5" font-family="Helvetica,sans-Serif" font-size="10.00">polygon_line_p</text>
</a>
</g>
</g>
<!-- Node7&#45;&gt;Node27 -->
<g id="edge39" class="edge">
<title>Node7&#45;&gt;Node27</title>
<path fill="none" stroke="midnightblue" d="M189.96,-798.53C206.55,-806.52 231.12,-818.02 253,-827 257.86,-829 263.02,-831 268.13,-832.92"/>
<polygon fill="midnightblue" stroke="midnightblue" points="267.22,-836.31 277.81,-836.47 269.63,-829.74 267.22,-836.31"/>
</g>
<!-- Node28 -->
<g id="node28" class="node">
<title>Node28</title>
<g id="a_node28"><a xlink:href="group__math__polygon.html#ga6aea22d31f8f086c44c7241eee3ab4c2" target="_top" xlink:title="Compute coordinates for an n&#45;sided regular polygon in 2D.">
<polygon fill="white" stroke="black" points="253,-798.5 253,-817.5 360,-817.5 360,-798.5 253,-798.5"/>
<text text-anchor="middle" x="306.5" y="-805.5" font-family="Helvetica,sans-Serif" font-size="10.00">polygon_regular_p</text>
</a>
</g>
</g>
<!-- Node7&#45;&gt;Node28 -->
<g id="edge40" class="edge">
<title>Node7&#45;&gt;Node28</title>
<path fill="none" stroke="midnightblue" d="M200.8,-793.26C213.24,-795.02 228.14,-797.11 242.74,-799.17"/>
<polygon fill="midnightblue" stroke="midnightblue" points="242.37,-802.65 252.76,-800.58 243.35,-795.72 242.37,-802.65"/>
</g>
<!-- Node9&#45;&gt;Node2 -->
<g id="edge11" class="edge">
<title>Node9&#45;&gt;Node2</title>
<path fill="none" stroke="midnightblue" d="M342.58,-619.55C390.33,-621.93 478.39,-627.26 553,-637 612.84,-644.81 681.66,-658.46 722.67,-667.1"/>
<polygon fill="midnightblue" stroke="midnightblue" points="721.97,-670.53 732.48,-669.18 723.42,-663.68 721.97,-670.53"/>
</g>
<!-- Node9&#45;&gt;Node3 -->
<g id="edge13" class="edge">
<title>Node9&#45;&gt;Node3</title>
<path fill="none" stroke="midnightblue" d="M341.58,-627.58C348.64,-631.05 355.33,-635.73 360,-642 429.89,-735.96 322.83,-811.57 396,-903 403.36,-912.2 413.95,-918.48 424.96,-922.76"/>
<polygon fill="midnightblue" stroke="midnightblue" points="424.06,-926.16 434.66,-926.04 426.31,-919.53 424.06,-926.16"/>
</g>
<!-- Node10 -->
<g id="node10" class="node">
<title>Node10</title>
<g id="a_node10"><a xlink:href="group__datatypes__binary.html#ga7ce4ed94d9b389ff817ea219918b8732" target="_top" xlink:title="Test if a binary bit position of an integer value equals a test bit.">
<polygon fill="white" stroke="black" points="435,-684.5 435,-703.5 514,-703.5 514,-684.5 435,-684.5"/>
<text text-anchor="middle" x="474.5" y="-691.5" font-family="Helvetica,sans-Serif" font-size="10.00">binary_bit_is</text>
</a>
</g>
</g>
<!-- Node9&#45;&gt;Node10 -->
<g id="edge12" class="edge">
<title>Node9&#45;&gt;Node10</title>
<path fill="none" stroke="midnightblue" d="M332.65,-627.59C341.61,-631.49 351.56,-636.41 360,-642 378.09,-653.99 376.86,-664.76 396,-675 404.89,-679.75 414.98,-683.34 424.88,-686.04"/>
<polygon fill="midnightblue" stroke="midnightblue" points="424.11,-689.45 434.66,-688.45 425.79,-682.66 424.11,-689.45"/>
</g>
<!-- Node9&#45;&gt;Node11 -->
<g id="edge14" class="edge">
<title>Node9&#45;&gt;Node11</title>
<path fill="none" stroke="midnightblue" d="M337.44,-627.55C345.45,-631.15 353.64,-635.89 360,-642 385.52,-666.51 366.61,-693.31 396,-713 449.93,-749.13 526.8,-748.36 578.79,-742.19"/>
<polygon fill="midnightblue" stroke="midnightblue" points="579.37,-745.65 588.84,-740.9 578.47,-738.7 579.37,-745.65"/>
</g>
<!-- Node9&#45;&gt;Node12 -->
<g id="edge15" class="edge">
<title>Node9&#45;&gt;Node12</title>
<path fill="none" stroke="midnightblue" d="M340.27,-627.57C347.64,-631.07 354.8,-635.77 360,-642 401.7,-692 367.46,-725.48 396,-784 411.77,-816.33 439.08,-848.22 456.71,-867"/>
<polygon fill="midnightblue" stroke="midnightblue" points="454.39,-869.64 463.83,-874.44 459.44,-864.79 454.39,-869.64"/>
</g>
<!-- Node9&#45;&gt;Node16 -->
<g id="edge30" class="edge">
<title>Node9&#45;&gt;Node16</title>
<path fill="none" stroke="midnightblue" d="M342.53,-622.87C348.95,-625.1 355.15,-628.33 360,-633 397.06,-668.68 366.39,-700.93 396,-743 446.86,-815.27 487.54,-805.64 553,-865 570.23,-880.63 571.79,-887.34 589,-903 639.17,-948.64 703.37,-996.22 736.69,-1020.19"/>
<polygon fill="midnightblue" stroke="midnightblue" points="735.06,-1023.33 745.23,-1026.3 739.13,-1017.64 735.06,-1023.33"/>
</g>
<!-- Node21 -->
<g id="node21" class="node">
<title>Node21</title>
<g id="a_node21"><a xlink:href="group__tools__operation__cs.html#gafa05aca176d441020de53da835e3dd60" target="_top" xlink:title="Conditionally apply the convex hull transformation.">
<polygon fill="white" stroke="black" points="449.5,-570.5 449.5,-589.5 499.5,-589.5 499.5,-570.5 449.5,-570.5"/>
<text text-anchor="middle" x="474.5" y="-577.5" font-family="Helvetica,sans-Serif" font-size="10.00">hull_cs</text>
</a>
</g>
</g>
<!-- Node9&#45;&gt;Node21 -->
<g id="edge27" class="edge">
<title>Node9&#45;&gt;Node21</title>
<path fill="none" stroke="midnightblue" d="M342.7,-609.94C371.18,-603.42 411.05,-594.29 439.27,-587.84"/>
<polygon fill="midnightblue" stroke="midnightblue" points="440.13,-591.23 449.1,-585.59 438.57,-584.41 440.13,-591.23"/>
</g>
<!-- Node9&#45;&gt;Node23 -->
<g id="edge29" class="edge">
<title>Node9&#45;&gt;Node23</title>
<path fill="none" stroke="midnightblue" d="M315.29,-608.32C333.05,-586.49 376.46,-534.46 396,-523 405.79,-517.26 417.25,-513.24 428.31,-510.44"/>
<polygon fill="midnightblue" stroke="midnightblue" points="429.31,-513.8 438.29,-508.19 427.77,-506.98 429.31,-513.8"/>
</g>
<!-- Node24 -->
<g id="node24" class="node">
<title>Node24</title>
<g id="a_node24"><a xlink:href="group__math__polygon.html#ga0e085cf8ec515dccdeff907f84fdae55" target="_top" xlink:title="Compute coordinates of an arc with constant radius between two vectors in 2D.">
<polygon fill="white" stroke="black" points="431,-646.5 431,-665.5 518,-665.5 518,-646.5 431,-646.5"/>
<text text-anchor="middle" x="474.5" y="-653.5" font-family="Helvetica,sans-Serif" font-size="10.00">polygon_arc_p</text>
</a>
</g>
</g>
<!-- Node9&#45;&gt;Node24 -->
<g id="edge31" class="edge">
<title>Node9&#45;&gt;Node24</title>
<path fill="none" stroke="midnightblue" d="M342.7,-626.06C365.73,-631.33 396.19,-638.3 421.92,-644.19"/>
<polygon fill="midnightblue" stroke="midnightblue" points="421.36,-647.66 431.89,-646.48 422.93,-640.83 421.36,-647.66"/>
</g>
<!-- Node9&#45;&gt;Node25 -->
<g id="edge32" class="edge">
<title>Node9&#45;&gt;Node25</title>
<path fill="none" stroke="midnightblue" d="M332.65,-608.41C341.61,-604.51 351.56,-599.59 360,-594 378.09,-582.01 376.86,-571.24 396,-561 404.7,-556.34 414.57,-552.81 424.27,-550.13"/>
<polygon fill="midnightblue" stroke="midnightblue" points="425.41,-553.45 434.26,-547.64 423.71,-546.66 425.41,-553.45"/>
</g>
<!-- Node12&#45;&gt;Node5 -->
<g id="edge25" class="edge">
<title>Node12&#45;&gt;Node5</title>
<path fill="none" stroke="midnightblue" d="M514.7,-891.56C528.29,-895.87 542.69,-902.59 553,-913 585.95,-946.26 558.07,-976.85 589,-1012 592.05,-1015.47 595.73,-1018.51 599.66,-1021.15"/>
<polygon fill="midnightblue" stroke="midnightblue" points="598.13,-1024.31 608.53,-1026.31 601.65,-1018.26 598.13,-1024.31"/>
</g>
<!-- Node12&#45;&gt;Node11 -->
<g id="edge26" class="edge">
<title>Node12&#45;&gt;Node11</title>
<path fill="none" stroke="midnightblue" d="M488.62,-874.48C504.45,-862.78 531.6,-842.01 553,-822 578.38,-798.27 605.08,-768.04 621,-749.35"/>
<polygon fill="midnightblue" stroke="midnightblue" points="623.73,-751.54 627.52,-741.65 618.39,-747.02 623.73,-751.54"/>
</g>
<!-- Node13 -->
<g id="node13" class="node">
<title>Node13</title>
<g id="a_node13"><a xlink:href="group__tools__align.html#ga7a21147611850c6cae7e95d23417099b" target="_top" xlink:title="Align a line or vector to a reference line or vector.">
<polygon fill="white" stroke="black" points="610.5,-874.5 610.5,-893.5 662.5,-893.5 662.5,-874.5 610.5,-874.5"/>
<text text-anchor="middle" x="636.5" y="-881.5" font-family="Helvetica,sans-Serif" font-size="10.00">align_ll</text>
</a>
</g>
</g>
<!-- Node12&#45;&gt;Node13 -->
<g id="edge16" class="edge">
<title>Node12&#45;&gt;Node13</title>
<path fill="none" stroke="midnightblue" d="M514.64,-884C540.71,-884 574.68,-884 599.97,-884"/>
<polygon fill="midnightblue" stroke="midnightblue" points="600.23,-887.5 610.23,-884 600.23,-880.5 600.23,-887.5"/>
</g>
<!-- Node13&#45;&gt;Node2 -->
<g id="edge17" class="edge">
<title>Node13&#45;&gt;Node2</title>
<path fill="none" stroke="midnightblue" d="M662.65,-875.37C670.38,-871.67 678.34,-866.63 684,-860 717.13,-821.2 700.29,-798.06 720,-751 728.46,-730.8 740.13,-708.62 748.5,-693.46"/>
<polygon fill="midnightblue" stroke="midnightblue" points="751.63,-695.04 753.46,-684.61 745.52,-691.63 751.63,-695.04"/>
</g>
<!-- Node14 -->
<g id="node14" class="node">
<title>Node14</title>
<g id="a_node14"><a xlink:href="group__datatypes__euclidean.html#ga882329ee346d5a7f9d0877afd115c3de" target="_top" xlink:title="Compute the cross product of two lines or vectors in a 3d or 2d&#45;space.">
<polygon fill="white" stroke="black" points="733.5,-798.5 733.5,-817.5 786.5,-817.5 786.5,-798.5 733.5,-798.5"/>
<text text-anchor="middle" x="760" y="-805.5" font-family="Helvetica,sans-Serif" font-size="10.00">cross_ll</text>
</a>
</g>
</g>
<!-- Node13&#45;&gt;Node14 -->
<g id="edge18" class="edge">
<title>Node13&#45;&gt;Node14</title>
<path fill="none" stroke="midnightblue" d="M659.02,-874.38C667.12,-870.38 676.25,-865.41 684,-860 701.8,-847.58 702.06,-839.21 720,-827 722.39,-825.37 724.95,-823.8 727.56,-822.31"/>
<polygon fill="midnightblue" stroke="midnightblue" points="729.31,-825.35 736.52,-817.58 726.04,-819.16 729.31,-825.35"/>
</g>
<!-- Node13&#45;&gt;Node15 -->
<g id="edge19" class="edge">
<title>Node13&#45;&gt;Node15</title>
<path fill="none" stroke="midnightblue" d="M649.97,-893.5C665.79,-905.35 694.15,-925.89 720,-941 722.71,-942.58 725.57,-944.15 728.46,-945.68"/>
<polygon fill="midnightblue" stroke="midnightblue" points="727.14,-948.93 737.64,-950.32 730.3,-942.68 727.14,-948.93"/>
</g>
<!-- Node13&#45;&gt;Node16 -->
<g id="edge20" class="edge">
<title>Node13&#45;&gt;Node16</title>
<path fill="none" stroke="midnightblue" d="M645.1,-893.51C665.04,-918.46 719.12,-986.11 744.92,-1018.39"/>
<polygon fill="midnightblue" stroke="midnightblue" points="742.42,-1020.87 751.4,-1026.5 747.89,-1016.5 742.42,-1020.87"/>
</g>
<!-- Node17 -->
<g id="node17" class="node">
<title>Node17</title>
<g id="a_node17"><a xlink:href="group__datatypes__list__operate.html#ga1088f9b09ff8ed12e2c844758f39c039" target="_top" xlink:title="Compute the mean/average of a list of numbers.">
<polygon fill="white" stroke="black" points="738,-760.5 738,-779.5 782,-779.5 782,-760.5 738,-760.5"/>
<text text-anchor="middle" x="760" y="-767.5" font-family="Helvetica,sans-Serif" font-size="10.00">mean</text>
</a>
</g>
</g>
<!-- Node13&#45;&gt;Node17 -->
<g id="edge21" class="edge">
<title>Node13&#45;&gt;Node17</title>
<path fill="none" stroke="midnightblue" d="M662.57,-874.61C670.12,-870.91 677.98,-866.06 684,-860 708.93,-834.89 694.78,-813.82 720,-789 722.68,-786.36 725.8,-784.03 729.08,-781.99"/>
<polygon fill="midnightblue" stroke="midnightblue" points="730.81,-785.03 737.98,-777.23 727.51,-778.86 730.81,-785.03"/>
</g>
<!-- Node18 -->
<g id="node18" class="node">
<title>Node18</title>
<g id="a_node18"><a xlink:href="group__datatypes__euclidean.html#ga78d67c74076bef2e80a95b1e9b6eb2d7" target="_top" xlink:title="Return 3d point unchanged or add a zeroed third dimension to 2d point.">
<polygon fill="white" stroke="black" points="723,-912.5 723,-931.5 797,-931.5 797,-912.5 723,-912.5"/>
<text text-anchor="middle" x="760" y="-919.5" font-family="Helvetica,sans-Serif" font-size="10.00">point_to_3d</text>
</a>
</g>
</g>
<!-- Node13&#45;&gt;Node18 -->
<g id="edge22" class="edge">
<title>Node13&#45;&gt;Node18</title>
<path fill="none" stroke="midnightblue" d="M662.67,-891.87C678.82,-896.92 700.14,-903.59 718.61,-909.37"/>
<polygon fill="midnightblue" stroke="midnightblue" points="717.67,-912.74 728.25,-912.38 719.76,-906.06 717.67,-912.74"/>
</g>
<!-- Node19 -->
<g id="node19" class="node">
<title>Node19</title>
<g id="a_node19"><a xlink:href="group__datatypes__list__operate.html#ga7b8e6f2bbfa72ae61e39377e5ca6b5be" target="_top" xlink:title="Select specified element from list or return a default.">
<polygon fill="white" stroke="black" points="730.5,-874.5 730.5,-893.5 789.5,-893.5 789.5,-874.5 730.5,-874.5"/>
<text text-anchor="middle" x="760" y="-881.5" font-family="Helvetica,sans-Serif" font-size="10.00">select_ci</text>
</a>
</g>
</g>
<!-- Node13&#45;&gt;Node19 -->
<g id="edge23" class="edge">
<title>Node13&#45;&gt;Node19</title>
<path fill="none" stroke="midnightblue" d="M662.67,-884C679.33,-884 701.5,-884 720.36,-884"/>
<polygon fill="midnightblue" stroke="midnightblue" points="720.45,-887.5 730.45,-884 720.45,-880.5 720.45,-887.5"/>
</g>
<!-- Node20 -->
<g id="node20" class="node">
<title>Node20</title>
<g id="a_node20"><a xlink:href="group__datatypes__euclidean.html#ga6ef2a81f304d31b9ec9753ca4875ad45" target="_top" xlink:title="Convert line to vector by shifting it to the origin.">
<polygon fill="white" stroke="black" points="720,-836.5 720,-855.5 800,-855.5 800,-836.5 720,-836.5"/>
<text text-anchor="middle" x="760" y="-843.5" font-family="Helvetica,sans-Serif" font-size="10.00">vol_to_origin</text>
</a>
</g>
</g>
<!-- Node13&#45;&gt;Node20 -->
<g id="edge24" class="edge">
<title>Node13&#45;&gt;Node20</title>
<path fill="none" stroke="midnightblue" d="M662.67,-876.13C678.82,-871.08 700.14,-864.41 718.61,-858.63"/>
<polygon fill="midnightblue" stroke="midnightblue" points="719.76,-861.94 728.25,-855.62 717.67,-855.26 719.76,-861.94"/>
</g>
<!-- Node21&#45;&gt;Node22 -->
<g id="edge28" class="edge">
<title>Node21&#45;&gt;Node22</title>
<path fill="none" stroke="midnightblue" d="M499.53,-579.35C516.16,-577.75 537.93,-573.21 553,-561 602,-521.31 623.83,-445.45 631.74,-409.64"/>
<polygon fill="midnightblue" stroke="midnightblue" points="635.24,-410.02 633.84,-399.52 628.38,-408.6 635.24,-410.02"/>
</g>
<!-- Node29&#45;&gt;Node11 -->
<g id="edge43" class="edge">
<title>Node29&#45;&gt;Node11</title>
<path fill="none" stroke="midnightblue" d="M538.83,-475.55C544,-478.05 548.82,-481.15 553,-485 620.43,-547.12 632.8,-665.8 635.03,-712.47"/>
<polygon fill="midnightblue" stroke="midnightblue" points="631.53,-712.61 635.4,-722.47 638.53,-712.35 631.53,-712.61"/>
</g>
<!-- Node30&#45;&gt;Node3 -->
<g id="edge46" class="edge">
<title>Node30&#45;&gt;Node3</title>
<path fill="none" stroke="midnightblue" d="M171.64,-361.74C176.39,-399.46 197.04,-538.75 253,-637 287.39,-697.38 327.1,-689.79 360,-751 392.87,-812.15 350.08,-850.93 396,-903 403.72,-911.75 414.34,-917.87 425.24,-922.14"/>
<polygon fill="midnightblue" stroke="midnightblue" points="424.24,-925.5 434.83,-925.44 426.51,-918.88 424.24,-925.5"/>
</g>
<!-- Node30&#45;&gt;Node4 -->
<g id="edge47" class="edge">
<title>Node30&#45;&gt;Node4</title>
<path fill="none" stroke="midnightblue" d="M197.53,-342.37C204.64,-338.77 211.77,-334.04 217,-328 249.02,-291.03 220.1,-260.2 253,-224 256.45,-220.2 260.62,-216.97 265.08,-214.22"/>
<polygon fill="midnightblue" stroke="midnightblue" points="266.74,-217.3 273.92,-209.51 263.44,-211.12 266.74,-217.3"/>
</g>
<!-- Node30&#45;&gt;Node6 -->
<g id="edge48" class="edge">
<title>Node30&#45;&gt;Node6</title>
<path fill="none" stroke="midnightblue" d="M189.72,-342.46C198.77,-337.3 209.26,-330.28 217,-322 239.55,-297.88 227.81,-278.35 253,-257 291.5,-224.37 317.7,-246.52 360,-219 379.5,-206.31 375.89,-192.69 396,-181 399.88,-178.75 404.01,-176.76 408.28,-175.01"/>
<polygon fill="midnightblue" stroke="midnightblue" points="409.59,-178.25 417.78,-171.53 407.19,-171.68 409.59,-178.25"/>
</g>
<!-- Node30&#45;&gt;Node22 -->
<g id="edge56" class="edge">
<title>Node30&#45;&gt;Node22</title>
<path fill="none" stroke="midnightblue" d="M202.59,-352.87C268.46,-354.91 423.62,-361.01 553,-376 566.21,-377.53 580.52,-379.76 593.45,-381.98"/>
<polygon fill="midnightblue" stroke="midnightblue" points="593.03,-385.46 603.49,-383.76 594.25,-378.57 593.03,-385.46"/>
</g>
<!-- Node31 -->
<g id="node31" class="node">
<title>Node31</title>
<g id="a_node31"><a xlink:href="group__datatypes__list__operate.html#gab05ff3da4d68d30922daa197f505580d" target="_top" xlink:title="Create a list of constant or incrementing elements.">
<polygon fill="white" stroke="black" points="282.5,-266.5 282.5,-285.5 330.5,-285.5 330.5,-266.5 282.5,-266.5"/>
<text text-anchor="middle" x="306.5" y="-273.5" font-family="Helvetica,sans-Serif" font-size="10.00">consts</text>
</a>
</g>
</g>
<!-- Node30&#45;&gt;Node31 -->
<g id="edge45" class="edge">
<title>Node30&#45;&gt;Node31</title>
<path fill="none" stroke="midnightblue" d="M192.02,-342.38C200.12,-338.38 209.25,-333.41 217,-328 234.8,-315.58 234.43,-306.24 253,-295 259.07,-291.32 265.97,-288.19 272.72,-285.6"/>
<polygon fill="midnightblue" stroke="midnightblue" points="274.12,-288.82 282.39,-282.19 271.79,-282.22 274.12,-288.82"/>
</g>
<!-- Node32 -->
<g id="node32" class="node">
<title>Node32</title>
<g id="a_node32"><a xlink:href="group__tools__drafting__operation.html#gaae4b7ed59444eb6f6c0ae47bd36e1e9b" target="_top" xlink:title="Construct a text table that is populated by rows and columns.">
<polygon fill="white" stroke="black" points="272,-304.5 272,-323.5 341,-323.5 341,-304.5 272,-304.5"/>
<text text-anchor="middle" x="306.5" y="-311.5" font-family="Helvetica,sans-Serif" font-size="10.00">draft_table</text>
</a>
</g>
</g>
<!-- Node30&#45;&gt;Node32 -->
<g id="edge49" class="edge">
<title>Node30&#45;&gt;Node32</title>
<path fill="none" stroke="midnightblue" d="M202.84,-342.9C220.51,-337.92 242.63,-331.7 261.82,-326.3"/>
<polygon fill="midnightblue" stroke="midnightblue" points="262.87,-329.64 271.54,-323.56 260.97,-322.9 262.87,-329.64"/>
</g>
<!-- Node32&#45;&gt;Node6 -->
<g id="edge51" class="edge">
<title>Node32&#45;&gt;Node6</title>
<path fill="none" stroke="midnightblue" d="M341.03,-307.02C348.02,-304.25 354.83,-300.39 360,-295 396.79,-256.66 357.22,-217.32 396,-181 397.52,-179.58 399.12,-178.26 400.8,-177.04"/>
<polygon fill="midnightblue" stroke="midnightblue" points="402.96,-179.82 409.72,-171.66 399.35,-173.82 402.96,-179.82"/>
</g>
<!-- Node32&#45;&gt;Node11 -->
<g id="edge50" class="edge">
<title>Node32&#45;&gt;Node11</title>
<path fill="none" stroke="midnightblue" d="M341.13,-323.03C394.15,-339.01 496.9,-377.35 553,-447 619.25,-529.25 632.3,-662.56 634.87,-712.39"/>
<polygon fill="midnightblue" stroke="midnightblue" points="631.38,-712.61 635.3,-722.45 638.37,-712.31 631.38,-712.61"/>
</g>
<!-- Node32&#45;&gt;Node29 -->
<g id="edge52" class="edge">
<title>Node32&#45;&gt;Node29</title>
<path fill="none" stroke="midnightblue" d="M317.88,-323.51C345.48,-348.78 420.91,-417.85 455.61,-449.62"/>
<polygon fill="midnightblue" stroke="midnightblue" points="453.38,-452.32 463.12,-456.5 458.11,-447.16 453.38,-452.32"/>
</g>
<!-- Node33 -->
<g id="node33" class="node">
<title>Node33</title>
<g id="a_node33"><a xlink:href="group__tools__drafting__primitive.html#ga86b6eb63073241bfdfb18ba221fd3ec2" target="_top" xlink:title="Get table cell coordinates given a column and row.">
<polygon fill="white" stroke="black" points="418,-190.5 418,-209.5 531,-209.5 531,-190.5 418,-190.5"/>
<text text-anchor="middle" x="474.5" y="-197.5" font-family="Helvetica,sans-Serif" font-size="10.00">draft_table_get_cell</text>
</a>
</g>
</g>
<!-- Node32&#45;&gt;Node33 -->
<g id="edge53" class="edge">
<title>Node32&#45;&gt;Node33</title>
<path fill="none" stroke="midnightblue" d="M341.05,-306.27C347.89,-303.55 354.62,-299.89 360,-295 387.66,-269.86 367.04,-242.63 396,-219 399.76,-215.93 403.94,-213.35 408.36,-211.17"/>
<polygon fill="midnightblue" stroke="midnightblue" points="409.83,-214.35 417.7,-207.26 407.13,-207.89 409.83,-214.35"/>
</g>
<!-- Node34 -->
<g id="node34" class="node">
<title>Node34</title>
<g id="a_node34"><a xlink:href="group__datatypes__map.html#ga87e9b731478958b17b012e11d8ce818f" target="_top" xlink:title="Get the the first value associated with an existing key in one of two maps.">
<polygon fill="white" stroke="black" points="417.5,-266.5 417.5,-285.5 531.5,-285.5 531.5,-266.5 417.5,-266.5"/>
<text text-anchor="middle" x="474.5" y="-273.5" font-family="Helvetica,sans-Serif" font-size="10.00">map_get_firstof2_or</text>
</a>
</g>
</g>
<!-- Node32&#45;&gt;Node34 -->
<g id="edge54" class="edge">
<title>Node32&#45;&gt;Node34</title>
<path fill="none" stroke="midnightblue" d="M341.09,-306.31C364.28,-301 395.55,-293.84 421.88,-287.82"/>
<polygon fill="midnightblue" stroke="midnightblue" points="422.74,-291.21 431.7,-285.57 421.18,-284.39 422.74,-291.21"/>
</g>
<!-- Node35 -->
<g id="node35" class="node">
<title>Node35</title>
<g id="a_node35"><a xlink:href="group__datatypes__map.html#ga18d78aec6f24969b9ad51595533f78b2" target="_top" xlink:title="Get the map value associated with a key.">
<polygon fill="white" stroke="black" points="428.5,-228.5 428.5,-247.5 520.5,-247.5 520.5,-228.5 428.5,-228.5"/>
<text text-anchor="middle" x="474.5" y="-235.5" font-family="Helvetica,sans-Serif" font-size="10.00">map_get_value</text>
</a>
</g>
</g>
<!-- Node32&#45;&gt;Node35 -->
<g id="edge55" class="edge">
<title>Node32&#45;&gt;Node35</title>
<path fill="none" stroke="midnightblue" d="M341.11,-304.48C347.64,-301.91 354.24,-298.77 360,-295 379.46,-282.25 375.89,-268.69 396,-257 402.98,-252.94 410.8,-249.75 418.72,-247.23"/>
<polygon fill="midnightblue" stroke="midnightblue" points="419.71,-250.59 428.37,-244.49 417.8,-243.86 419.71,-250.59"/>
</g>
</g>
</svg>
