<?xml version="1.0" encoding="UTF-8" standalone="no"?>
<!DOCTYPE svg PUBLIC "-//W3C//DTD SVG 1.1//EN"
 "http://www.w3.org/Graphics/SVG/1.1/DTD/svg11.dtd">
<!-- Generated by graphviz version 2.43.0 (0)
 -->
<!-- Title: binary_bit_is Pages: 1 -->
<svg width="548pt" height="588pt"
 viewBox="0.00 0.00 548.00 588.18" xmlns="http://www.w3.org/2000/svg" xmlns:xlink="http://www.w3.org/1999/xlink">
<g id="graph0" class="graph" transform="scale(1 1) rotate(0) translate(4 584.18)">
<title>binary_bit_is</title>
<polygon fill="white" stroke="transparent" points="-4,4 -4,-584.18 544,-584.18 544,4 -4,4"/>
<!-- Node1 -->
<g id="node1" class="node">
<title>Node1</title>
<g id="a_node1"><a xlink:title="Test if a binary bit position of an integer value equals a test bit.">
<polygon fill="#bfbfbf" stroke="black" points="461,-247.5 461,-266.5 540,-266.5 540,-247.5 461,-247.5"/>
<text text-anchor="middle" x="500.5" y="-254.5" font-family="Helvetica,sans-Serif" font-size="10.00">binary_bit_is</text>
</a>
</g>
</g>
<!-- Node2 -->
<g id="node2" class="node">
<title>Node2</title>
<g id="a_node2"><a xlink:href="group__parts__3d__enclosure__clamps.html#ga8fd874789132e42e5470328d18560f1a" target="_top" xlink:title="A clamp, bushing, and/or grip for wire/hose wall penetrations.">
<polygon fill="white" stroke="black" points="162.5,-484.5 162.5,-503.5 225.5,-503.5 225.5,-484.5 162.5,-484.5"/>
<text text-anchor="middle" x="194" y="-491.5" font-family="Helvetica,sans-Serif" font-size="10.00">clamp_cg</text>
</a>
</g>
</g>
<!-- Node1&#45;&gt;Node2 -->
<g id="edge1" class="edge">
<title>Node1&#45;&gt;Node2</title>
<path fill="none" stroke="midnightblue" d="M495.75,-276.53C488.28,-310.21 468.37,-379.32 425,-418 367.25,-469.5 273.7,-486.23 225.64,-491.57"/>
<polygon fill="midnightblue" stroke="midnightblue" points="499.21,-277.06 497.82,-266.56 492.36,-275.63 499.21,-277.06"/>
</g>
<!-- Node3 -->
<g id="node3" class="node">
<title>Node3</title>
<g id="a_node3"><a xlink:href="group__parts__3d__enclosure__power__strip.html#ga191779dedf39e4fd769a8dc96b0f8c9e" target="_top" xlink:title="A power strip generator for single gang electrical receptacles.">
<polygon fill="white" stroke="black" points="6.5,-465.5 6.5,-484.5 96.5,-484.5 96.5,-465.5 6.5,-465.5"/>
<text text-anchor="middle" x="51.5" y="-472.5" font-family="Helvetica,sans-Serif" font-size="10.00">power_strip_sg</text>
</a>
</g>
</g>
<!-- Node1&#45;&gt;Node3 -->
<g id="edge28" class="edge">
<title>Node1&#45;&gt;Node3</title>
<path fill="none" stroke="midnightblue" d="M497.34,-276.58C490.49,-334.76 467.16,-504.59 425,-537 324.21,-614.48 260.13,-570.59 139,-532 108.33,-522.23 78.26,-498.25 62.94,-484.72"/>
<polygon fill="midnightblue" stroke="midnightblue" points="500.84,-276.84 498.49,-266.5 493.88,-276.04 500.84,-276.84"/>
</g>
<!-- Node4 -->
<g id="node4" class="node">
<title>Node4</title>
<g id="a_node4"><a xlink:href="group__shapes__basic__3d.html#gaf1d71183e9f3fb9a5e48b8c9a67085d6" target="_top" xlink:title="A cuboid with edge, round, or chamfer corners.">
<polygon fill="white" stroke="black" points="330.5,-209.5 330.5,-228.5 379.5,-228.5 379.5,-209.5 330.5,-209.5"/>
<text text-anchor="middle" x="355" y="-216.5" font-family="Helvetica,sans-Serif" font-size="10.00">cuboid</text>
</a>
</g>
</g>
<!-- Node1&#45;&gt;Node4 -->
<g id="edge3" class="edge">
<title>Node1&#45;&gt;Node4</title>
<path fill="none" stroke="midnightblue" d="M453.42,-244.8C428.82,-238.28 399.58,-230.54 379.6,-225.25"/>
<polygon fill="midnightblue" stroke="midnightblue" points="452.73,-248.23 463.29,-247.41 454.52,-241.47 452.73,-248.23"/>
</g>
<!-- Node5 -->
<g id="node5" class="node">
<title>Node5</title>
<g id="a_node5"><a xlink:href="group__tools__drafting__primitive.html#ga6f12ccd4c9de0a8ab887184911f39c8f" target="_top" xlink:title="Draft an arrowhead at the terminal point of a line.">
<polygon fill="white" stroke="black" points="319,-171.5 319,-190.5 391,-190.5 391,-171.5 319,-171.5"/>
<text text-anchor="middle" x="355" y="-178.5" font-family="Helvetica,sans-Serif" font-size="10.00">draft_arrow</text>
</a>
</g>
</g>
<!-- Node1&#45;&gt;Node5 -->
<g id="edge4" class="edge">
<title>Node1&#45;&gt;Node5</title>
<path fill="none" stroke="midnightblue" d="M481.69,-240.19C467.37,-227.5 446.22,-210.54 425,-200 414.43,-194.75 402.2,-190.78 391,-187.86"/>
<polygon fill="midnightblue" stroke="midnightblue" points="479.52,-242.95 489.28,-247.08 484.23,-237.77 479.52,-242.95"/>
</g>
<!-- Node17 -->
<g id="node17" class="node">
<title>Node17</title>
<g id="a_node17"><a xlink:href="group__tools__extrude.html#ga78405b5fa18461a302a2f24646499ece" target="_top" xlink:title="Translate, rotate, and revolve a 2d shape about the z&#45;axis with linear elongation.">
<polygon fill="white" stroke="black" points="303,-389.5 303,-408.5 407,-408.5 407,-389.5 303,-389.5"/>
<text text-anchor="middle" x="355" y="-396.5" font-family="Helvetica,sans-Serif" font-size="10.00">extrude_rotate_trl</text>
</a>
</g>
</g>
<!-- Node1&#45;&gt;Node17 -->
<g id="edge17" class="edge">
<title>Node1&#45;&gt;Node17</title>
<path fill="none" stroke="midnightblue" d="M482.33,-273.99C452.04,-303.96 390.07,-365.29 365.93,-389.17"/>
<polygon fill="midnightblue" stroke="midnightblue" points="484.99,-276.28 489.64,-266.76 480.07,-271.31 484.99,-276.28"/>
</g>
<!-- Node21 -->
<g id="node21" class="node">
<title>Node21</title>
<g id="a_node21"><a xlink:href="group__parts__3d__fastener__hinges.html#ga1ffc82e0bbac466d1dc4fbe6c214b765" target="_top" xlink:title="A print&#45;in&#45;place bi&#45;fold hinge generator.">
<polygon fill="white" stroke="black" points="164.5,-95.5 164.5,-114.5 223.5,-114.5 223.5,-95.5 164.5,-95.5"/>
<text text-anchor="middle" x="194" y="-102.5" font-family="Helvetica,sans-Serif" font-size="10.00">hinge_bf</text>
</a>
</g>
</g>
<!-- Node1&#45;&gt;Node21 -->
<g id="edge23" class="edge">
<title>Node1&#45;&gt;Node21</title>
<path fill="none" stroke="midnightblue" d="M494.78,-237.34C486.41,-207.19 465.85,-150.26 425,-124 362.65,-83.92 270.3,-91.85 223.87,-99.32"/>
<polygon fill="midnightblue" stroke="midnightblue" points="491.43,-238.34 497.33,-247.14 498.2,-236.58 491.43,-238.34"/>
</g>
<!-- Node22 -->
<g id="node22" class="node">
<title>Node22</title>
<g id="a_node22"><a xlink:href="group__parts__3d__fastener__hinges.html#ga7e350f2c55116094108b99dd8103fc04" target="_top" xlink:title="A print&#45;in&#45;place single&#45;fold hinge generator.">
<polygon fill="white" stroke="black" points="326,-133.5 326,-152.5 384,-152.5 384,-133.5 326,-133.5"/>
<text text-anchor="middle" x="355" y="-140.5" font-family="Helvetica,sans-Serif" font-size="10.00">hinge_sf</text>
</a>
</g>
</g>
<!-- Node1&#45;&gt;Node22 -->
<g id="edge24" class="edge">
<title>Node1&#45;&gt;Node22</title>
<path fill="none" stroke="midnightblue" d="M489.77,-238.38C477.54,-216.78 454.51,-181.64 425,-162 412.9,-153.95 397.45,-149.28 384.23,-146.6"/>
<polygon fill="midnightblue" stroke="midnightblue" points="486.75,-240.15 494.62,-247.25 492.9,-236.79 486.75,-240.15"/>
</g>
<!-- Node23 -->
<g id="node23" class="node">
<title>Node23</title>
<g id="a_node23"><a xlink:href="group__parts__3d__motion__bearing__linear__rod.html#ga48399d5e708b4894494c69b2d1e88e26" target="_top" xlink:title="Transform 2d or 3d shape into a linear rod ball or sled bearing.">
<polygon fill="white" stroke="black" points="285,-57.5 285,-76.5 425,-76.5 425,-57.5 285,-57.5"/>
<text text-anchor="middle" x="355" y="-64.5" font-family="Helvetica,sans-Serif" font-size="10.00">make_bearing_linear_rod</text>
</a>
</g>
</g>
<!-- Node1&#45;&gt;Node23 -->
<g id="edge26" class="edge">
<title>Node1&#45;&gt;Node23</title>
<path fill="none" stroke="midnightblue" d="M495.87,-236.95C488.58,-202.35 468.94,-131.27 425,-91 418.08,-84.66 409.4,-79.98 400.55,-76.53"/>
<polygon fill="midnightblue" stroke="midnightblue" points="492.52,-238.05 497.89,-247.19 499.39,-236.7 492.52,-238.05"/>
</g>
<!-- Node24 -->
<g id="node24" class="node">
<title>Node24</title>
<g id="a_node24"><a xlink:href="group__parts__3d__computer__pci__bracket.html#gaf56631cf80d8e5f0b77736b17b94ecd9" target="_top" xlink:title="PCI slot cover and adapter card bracket generator.">
<polygon fill="white" stroke="black" points="158,-218.5 158,-237.5 230,-237.5 230,-218.5 158,-218.5"/>
<text text-anchor="middle" x="194" y="-225.5" font-family="Helvetica,sans-Serif" font-size="10.00">pci_bracket</text>
</a>
</g>
</g>
<!-- Node1&#45;&gt;Node24 -->
<g id="edge27" class="edge">
<title>Node1&#45;&gt;Node24</title>
<path fill="none" stroke="midnightblue" d="M450.7,-252.99C407.21,-249.34 341.83,-243.67 285,-238 266.85,-236.19 246.67,-233.97 230.03,-232.08"/>
<polygon fill="midnightblue" stroke="midnightblue" points="450.47,-256.48 460.73,-253.83 451.05,-249.51 450.47,-256.48"/>
</g>
<!-- Node25 -->
<g id="node25" class="node">
<title>Node25</title>
<g id="a_node25"><a xlink:href="group__parts__3d__enclosure__project__box__rectangle.html#ga6a5d093d732e65556c46252220f2c4b6" target="_top" xlink:title="A rectangular box maker for project boxes, enclosures and housings.">
<polygon fill="white" stroke="black" points="292.5,-508.5 292.5,-527.5 417.5,-527.5 417.5,-508.5 292.5,-508.5"/>
<text text-anchor="middle" x="355" y="-515.5" font-family="Helvetica,sans-Serif" font-size="10.00">project_box_rectangle</text>
</a>
</g>
</g>
<!-- Node1&#45;&gt;Node25 -->
<g id="edge29" class="edge">
<title>Node1&#45;&gt;Node25</title>
<path fill="none" stroke="midnightblue" d="M496.38,-276.77C489.38,-316.1 469.43,-405.54 425,-466 411.5,-484.37 389.71,-499.26 374.23,-508.32"/>
<polygon fill="midnightblue" stroke="midnightblue" points="499.87,-277.11 498.08,-266.67 492.97,-275.94 499.87,-277.11"/>
</g>
<!-- Node26 -->
<g id="node26" class="node">
<title>Node26</title>
<g id="a_node26"><a xlink:href="group__shapes__basic__2d.html#ga9f679c29426c44ee83b4a13b5dd47138" target="_top" xlink:title="A rectangle with corner rounds or chamfers.">
<polygon fill="white" stroke="black" points="324,-285.5 324,-304.5 386,-304.5 386,-285.5 324,-285.5"/>
<text text-anchor="middle" x="355" y="-292.5" font-family="Helvetica,sans-Serif" font-size="10.00">rectangle</text>
</a>
</g>
</g>
<!-- Node1&#45;&gt;Node26 -->
<g id="edge31" class="edge">
<title>Node1&#45;&gt;Node26</title>
<path fill="none" stroke="midnightblue" d="M453.5,-269.18C431.53,-275 405.86,-281.8 386.38,-286.96"/>
<polygon fill="midnightblue" stroke="midnightblue" points="454.52,-272.53 463.29,-266.59 452.73,-265.77 454.52,-272.53"/>
</g>
<!-- Node2&#45;&gt;Node3 -->
<g id="edge2" class="edge">
<title>Node2&#45;&gt;Node3</title>
<path fill="none" stroke="midnightblue" d="M151.79,-488.43C134.44,-486.08 114.23,-483.35 96.59,-480.96"/>
<polygon fill="midnightblue" stroke="midnightblue" points="151.79,-491.96 162.17,-489.83 152.73,-485.02 151.79,-491.96"/>
</g>
<!-- Node6 -->
<g id="node6" class="node">
<title>Node6</title>
<g id="a_node6"><a xlink:href="group__tools__drafting__primitive.html#gaeb2a388d77f8e435b02c4235e7791eda" target="_top" xlink:title="Draft an arc with configurable style and optional arrowheads.">
<polygon fill="white" stroke="black" points="164.5,-133.5 164.5,-152.5 223.5,-152.5 223.5,-133.5 164.5,-133.5"/>
<text text-anchor="middle" x="194" y="-140.5" font-family="Helvetica,sans-Serif" font-size="10.00">draft_arc</text>
</a>
</g>
</g>
<!-- Node5&#45;&gt;Node6 -->
<g id="edge5" class="edge">
<title>Node5&#45;&gt;Node6</title>
<path fill="none" stroke="midnightblue" d="M308.95,-170.23C281.52,-163.68 247.3,-155.5 223.56,-149.83"/>
<polygon fill="midnightblue" stroke="midnightblue" points="308.17,-173.65 318.71,-172.57 309.8,-166.84 308.17,-173.65"/>
</g>
<!-- Node8 -->
<g id="node8" class="node">
<title>Node8</title>
<g id="a_node8"><a xlink:href="group__tools__drafting__primitive.html#ga060910368142d6371cf4f3f30be7561e" target="_top" xlink:title="Draft a line with configurable style and optional arrowheads.">
<polygon fill="white" stroke="black" points="163,-171.5 163,-190.5 225,-190.5 225,-171.5 163,-171.5"/>
<text text-anchor="middle" x="194" y="-178.5" font-family="Helvetica,sans-Serif" font-size="10.00">draft_line</text>
</a>
</g>
</g>
<!-- Node5&#45;&gt;Node8 -->
<g id="edge7" class="edge">
<title>Node5&#45;&gt;Node8</title>
<path fill="none" stroke="midnightblue" d="M308.43,-181C281.68,-181 248.62,-181 225.11,-181"/>
<polygon fill="midnightblue" stroke="midnightblue" points="308.71,-184.5 318.71,-181 308.71,-177.5 308.71,-184.5"/>
</g>
<!-- Node7 -->
<g id="node7" class="node">
<title>Node7</title>
<g id="a_node7"><a xlink:href="group__tools__drafting__dimension.html#ga6b8e17d22ac4a95d25a90be8a74c0689" target="_top" xlink:title="Construct a angular dimension arc.">
<polygon fill="white" stroke="black" points="4,-0.5 4,-19.5 99,-19.5 99,-0.5 4,-0.5"/>
<text text-anchor="middle" x="51.5" y="-7.5" font-family="Helvetica,sans-Serif" font-size="10.00">draft_dim_angle</text>
</a>
</g>
</g>
<!-- Node6&#45;&gt;Node7 -->
<g id="edge6" class="edge">
<title>Node6&#45;&gt;Node7</title>
<path fill="none" stroke="midnightblue" d="M154.6,-134.24C148.87,-131.65 143.42,-128.31 139,-124 106.69,-92.46 134.97,-60.89 103,-29 99.09,-25.1 94.3,-21.98 89.24,-19.5"/>
<polygon fill="midnightblue" stroke="midnightblue" points="153.77,-137.66 164.37,-137.91 156.24,-131.11 153.77,-137.66"/>
</g>
<!-- Node8&#45;&gt;Node7 -->
<g id="edge9" class="edge">
<title>Node8&#45;&gt;Node7</title>
<path fill="none" stroke="midnightblue" d="M153.53,-172.27C148.11,-169.69 143.03,-166.34 139,-162 97.33,-117.13 144.19,-74.32 103,-29 99.47,-25.12 95.07,-22.02 90.35,-19.56"/>
<polygon fill="midnightblue" stroke="midnightblue" points="152.26,-175.53 162.85,-175.94 154.83,-169.02 152.26,-175.53"/>
</g>
<!-- Node9 -->
<g id="node9" class="node">
<title>Node9</title>
<g id="a_node9"><a xlink:href="group__tools__drafting__operation.html#ga4e20419a6d4623f21c05179fc8b6df95" target="_top" xlink:title="Construct drafting sheet axes.">
<polygon fill="white" stroke="black" points="18,-304.5 18,-323.5 85,-323.5 85,-304.5 18,-304.5"/>
<text text-anchor="middle" x="51.5" y="-311.5" font-family="Helvetica,sans-Serif" font-size="10.00">draft_axes</text>
</a>
</g>
</g>
<!-- Node8&#45;&gt;Node9 -->
<g id="edge8" class="edge">
<title>Node8&#45;&gt;Node9</title>
<path fill="none" stroke="midnightblue" d="M156.87,-195.23C150.34,-198.99 144.02,-203.55 139,-209 110.92,-239.47 132.83,-266.24 103,-295 98.01,-299.81 91.68,-303.43 85.21,-306.14"/>
<polygon fill="midnightblue" stroke="midnightblue" points="158.54,-198.31 165.81,-190.61 155.32,-192.1 158.54,-198.31"/>
</g>
<!-- Node10 -->
<g id="node10" class="node">
<title>Node10</title>
<g id="a_node10"><a xlink:href="group__tools__drafting__dimension.html#ga4866c090b81b437e2f1f707d28ad8ec7" target="_top" xlink:title="Construct a center mark dimension cross.">
<polygon fill="white" stroke="black" points="2,-266.5 2,-285.5 101,-285.5 101,-266.5 2,-266.5"/>
<text text-anchor="middle" x="51.5" y="-273.5" font-family="Helvetica,sans-Serif" font-size="10.00">draft_dim_center</text>
</a>
</g>
</g>
<!-- Node8&#45;&gt;Node10 -->
<g id="edge10" class="edge">
<title>Node8&#45;&gt;Node10</title>
<path fill="none" stroke="midnightblue" d="M159.91,-195.16C152.63,-199.08 145.23,-203.72 139,-209 118.65,-226.24 124.33,-241 103,-257 97.9,-260.82 91.95,-263.95 85.96,-266.49"/>
<polygon fill="midnightblue" stroke="midnightblue" points="161.62,-198.22 168.99,-190.61 158.48,-191.97 161.62,-198.22"/>
</g>
<!-- Node11 -->
<g id="node11" class="node">
<title>Node11</title>
<g id="a_node11"><a xlink:href="group__tools__drafting__dimension.html#ga5c4915c4c4464c5cdaefd501c2de261d" target="_top" xlink:title="Construct a dimension leader line at a point.">
<polygon fill="white" stroke="black" points="2,-228.5 2,-247.5 101,-247.5 101,-228.5 2,-228.5"/>
<text text-anchor="middle" x="51.5" y="-235.5" font-family="Helvetica,sans-Serif" font-size="10.00">draft_dim_leader</text>
</a>
</g>
</g>
<!-- Node8&#45;&gt;Node11 -->
<g id="edge11" class="edge">
<title>Node8&#45;&gt;Node11</title>
<path fill="none" stroke="midnightblue" d="M161.35,-194.72C144.16,-202.09 122.49,-211.22 103,-219 95.08,-222.16 86.41,-225.47 78.53,-228.43"/>
<polygon fill="midnightblue" stroke="midnightblue" points="163.1,-197.78 170.91,-190.62 160.34,-191.35 163.1,-197.78"/>
</g>
<!-- Node12 -->
<g id="node12" class="node">
<title>Node12</title>
<g id="a_node12"><a xlink:href="group__tools__drafting__dimension.html#ga27a35e94597435a74e22d76789e9be5e" target="_top" xlink:title="Construct a dimension line between two points.">
<polygon fill="white" stroke="black" points="8.5,-190.5 8.5,-209.5 94.5,-209.5 94.5,-190.5 8.5,-190.5"/>
<text text-anchor="middle" x="51.5" y="-197.5" font-family="Helvetica,sans-Serif" font-size="10.00">draft_dim_line</text>
</a>
</g>
</g>
<!-- Node8&#45;&gt;Node12 -->
<g id="edge12" class="edge">
<title>Node8&#45;&gt;Node12</title>
<path fill="none" stroke="midnightblue" d="M152.84,-186.43C134.61,-188.9 113.04,-191.81 94.58,-194.31"/>
<polygon fill="midnightblue" stroke="midnightblue" points="153.42,-189.88 162.86,-185.08 152.48,-182.95 153.42,-189.88"/>
</g>
<!-- Node13 -->
<g id="node13" class="node">
<title>Node13</title>
<g id="a_node13"><a xlink:href="group__tools__drafting__dimension.html#gaef1a8150a8ef7be88e086fb3dbab64a9" target="_top" xlink:title="Construct a radial dimension line.">
<polygon fill="white" stroke="black" points="2.5,-152.5 2.5,-171.5 100.5,-171.5 100.5,-152.5 2.5,-152.5"/>
<text text-anchor="middle" x="51.5" y="-159.5" font-family="Helvetica,sans-Serif" font-size="10.00">draft_dim_radius</text>
</a>
</g>
</g>
<!-- Node8&#45;&gt;Node13 -->
<g id="edge13" class="edge">
<title>Node8&#45;&gt;Node13</title>
<path fill="none" stroke="midnightblue" d="M152.61,-175.54C136.36,-173.34 117.5,-170.79 100.55,-168.5"/>
<polygon fill="midnightblue" stroke="midnightblue" points="152.48,-179.05 162.86,-176.92 153.42,-172.12 152.48,-179.05"/>
</g>
<!-- Node14 -->
<g id="node14" class="node">
<title>Node14</title>
<g id="a_node14"><a xlink:href="group__tools__drafting__primitive.html#gada1e771ce89ef86b6241c43dc01bf62d" target="_top" xlink:title="Draft a polygon with configurable style.">
<polygon fill="white" stroke="black" points="10,-114.5 10,-133.5 93,-133.5 93,-114.5 10,-114.5"/>
<text text-anchor="middle" x="51.5" y="-121.5" font-family="Helvetica,sans-Serif" font-size="10.00">draft_polygon</text>
</a>
</g>
</g>
<!-- Node8&#45;&gt;Node14 -->
<g id="edge14" class="edge">
<title>Node8&#45;&gt;Node14</title>
<path fill="none" stroke="midnightblue" d="M153.74,-167.95C148.74,-166.07 143.72,-164.06 139,-162 122.42,-154.76 119.5,-150.42 103,-143 95.57,-139.66 87.35,-136.39 79.75,-133.54"/>
<polygon fill="midnightblue" stroke="midnightblue" points="152.67,-171.29 163.27,-171.42 155.07,-164.71 152.67,-171.29"/>
</g>
<!-- Node15 -->
<g id="node15" class="node">
<title>Node15</title>
<g id="a_node15"><a xlink:href="group__tools__drafting__primitive.html#ga20eb57e9d25186784df7428089e3a2ae" target="_top" xlink:title="Draft a rectangle with configurable style.">
<polygon fill="white" stroke="black" points="6.5,-76.5 6.5,-95.5 96.5,-95.5 96.5,-76.5 6.5,-76.5"/>
<text text-anchor="middle" x="51.5" y="-83.5" font-family="Helvetica,sans-Serif" font-size="10.00">draft_rectangle</text>
</a>
</g>
</g>
<!-- Node8&#45;&gt;Node15 -->
<g id="edge15" class="edge">
<title>Node8&#45;&gt;Node15</title>
<path fill="none" stroke="midnightblue" d="M153.49,-170.63C148.32,-168.29 143.32,-165.45 139,-162 115.57,-143.33 126.23,-123.93 103,-105 98.28,-101.15 92.7,-98.04 87,-95.52"/>
<polygon fill="midnightblue" stroke="midnightblue" points="152.29,-173.92 162.87,-174.33 154.85,-167.41 152.29,-173.92"/>
</g>
<!-- Node16 -->
<g id="node16" class="node">
<title>Node16</title>
<g id="a_node16"><a xlink:href="group__tools__drafting__operation.html#ga49aac81a903cd453ea9cadc85e84e414" target="_top" xlink:title="Construct a drafting sheet ruler.">
<polygon fill="white" stroke="black" points="18,-38.5 18,-57.5 85,-57.5 85,-38.5 18,-38.5"/>
<text text-anchor="middle" x="51.5" y="-45.5" font-family="Helvetica,sans-Serif" font-size="10.00">draft_ruler</text>
</a>
</g>
</g>
<!-- Node8&#45;&gt;Node16 -->
<g id="edge16" class="edge">
<title>Node8&#45;&gt;Node16</title>
<path fill="none" stroke="midnightblue" d="M153.32,-171.65C148.07,-169.15 143.09,-165.99 139,-162 106.69,-130.46 134.97,-98.89 103,-67 98.03,-62.04 91.63,-58.35 85.08,-55.62"/>
<polygon fill="midnightblue" stroke="midnightblue" points="152.38,-175.04 162.96,-175.46 154.95,-168.53 152.38,-175.04"/>
</g>
<!-- Node17&#45;&gt;Node2 -->
<g id="edge18" class="edge">
<title>Node17&#45;&gt;Node2</title>
<path fill="none" stroke="midnightblue" d="M325.73,-413.22C312.91,-420.11 297.79,-428.86 285,-438 267.58,-450.45 266.99,-458.4 249,-470 240.29,-475.61 230.05,-480.53 220.84,-484.43"/>
<polygon fill="midnightblue" stroke="midnightblue" points="327.38,-416.31 334.59,-408.55 324.12,-410.11 327.38,-416.31"/>
</g>
<!-- Node17&#45;&gt;Node3 -->
<g id="edge19" class="edge">
<title>Node17&#45;&gt;Node3</title>
<path fill="none" stroke="midnightblue" d="M321.48,-412.26C300.96,-420.25 273.73,-430.18 249,-437 197.42,-451.23 136.79,-462.09 96.66,-468.49"/>
<polygon fill="midnightblue" stroke="midnightblue" points="322.97,-415.44 330.98,-408.51 320.4,-408.92 322.97,-415.44"/>
</g>
<!-- Node18 -->
<g id="node18" class="node">
<title>Node18</title>
<g id="a_node18"><a xlink:href="group__shapes__revolved.html#ga58a3e713a904c96b69ddd8f87f7f3bb1" target="_top" xlink:title="An elliptical cross&#45;sectional profile revolved about the z&#45;axis.">
<polygon fill="white" stroke="black" points="146.5,-408.5 146.5,-427.5 241.5,-427.5 241.5,-408.5 146.5,-408.5"/>
<text text-anchor="middle" x="194" y="-415.5" font-family="Helvetica,sans-Serif" font-size="10.00">torus_ellipse_cs</text>
</a>
</g>
</g>
<!-- Node17&#45;&gt;Node18 -->
<g id="edge20" class="edge">
<title>Node17&#45;&gt;Node18</title>
<path fill="none" stroke="midnightblue" d="M292.45,-406.35C275.52,-408.38 257.44,-410.54 241.51,-412.44"/>
<polygon fill="midnightblue" stroke="midnightblue" points="293.3,-409.78 302.82,-405.12 292.47,-402.83 293.3,-409.78"/>
</g>
<!-- Node19 -->
<g id="node19" class="node">
<title>Node19</title>
<g id="a_node19"><a xlink:href="group__shapes__revolved.html#ga69b374bbebd7d87cfcd06b6bd3278404" target="_top" xlink:title="A trapezoidal cross&#45;sectional profile revolved about the z&#45;axis.">
<polygon fill="white" stroke="black" points="139,-370.5 139,-389.5 249,-389.5 249,-370.5 139,-370.5"/>
<text text-anchor="middle" x="194" y="-377.5" font-family="Helvetica,sans-Serif" font-size="10.00">torus_pg_trapezoid</text>
</a>
</g>
</g>
<!-- Node17&#45;&gt;Node19 -->
<g id="edge21" class="edge">
<title>Node17&#45;&gt;Node19</title>
<path fill="none" stroke="midnightblue" d="M292.56,-391.66C278.23,-389.95 263.08,-388.14 249.1,-386.47"/>
<polygon fill="midnightblue" stroke="midnightblue" points="292.47,-395.17 302.82,-392.88 293.3,-388.22 292.47,-395.17"/>
</g>
<!-- Node20 -->
<g id="node20" class="node">
<title>Node20</title>
<g id="a_node20"><a xlink:href="group__shapes__revolved.html#gad587c003585db775fd441468954b7c43" target="_top" xlink:title="A rectangular cross&#45;sectional profile revolved about the z&#45;axis.">
<polygon fill="white" stroke="black" points="0,-342.5 0,-361.5 103,-361.5 103,-342.5 0,-342.5"/>
<text text-anchor="middle" x="51.5" y="-349.5" font-family="Helvetica,sans-Serif" font-size="10.00">torus_rectangle_c</text>
</a>
</g>
</g>
<!-- Node17&#45;&gt;Node20 -->
<g id="edge22" class="edge">
<title>Node17&#45;&gt;Node20</title>
<path fill="none" stroke="midnightblue" d="M324.03,-385.41C303.4,-376.74 275.1,-366.2 249,-361 200.1,-351.27 143.06,-349.71 103.08,-350.17"/>
<polygon fill="midnightblue" stroke="midnightblue" points="322.65,-388.63 333.22,-389.36 325.41,-382.2 322.65,-388.63"/>
</g>
<!-- Node22&#45;&gt;Node21 -->
<g id="edge25" class="edge">
<title>Node22&#45;&gt;Node21</title>
<path fill="none" stroke="midnightblue" d="M315.97,-133.91C287.58,-127.13 249.4,-118 223.58,-111.83"/>
<polygon fill="midnightblue" stroke="midnightblue" points="315.4,-137.37 325.94,-136.29 317.03,-130.57 315.4,-137.37"/>
</g>
<!-- Node25&#45;&gt;Node3 -->
<g id="edge30" class="edge">
<title>Node25&#45;&gt;Node3</title>
<path fill="none" stroke="midnightblue" d="M281.9,-523.26C239.75,-524.62 185.8,-523.4 139,-513 113.38,-507.31 86,-493.89 69.06,-484.62"/>
<polygon fill="midnightblue" stroke="midnightblue" points="282.21,-526.75 292.07,-522.87 281.94,-519.76 282.21,-526.75"/>
</g>
<!-- Node26&#45;&gt;Node3 -->
<g id="edge33" class="edge">
<title>Node26&#45;&gt;Node3</title>
<path fill="none" stroke="midnightblue" d="M313.49,-299.85C267.65,-306.95 192.45,-323.66 139,-361 98.06,-389.6 68.09,-443.57 57.09,-465.44"/>
<polygon fill="midnightblue" stroke="midnightblue" points="314.25,-303.27 323.64,-298.35 313.24,-296.34 314.25,-303.27"/>
</g>
<!-- Node26&#45;&gt;Node24 -->
<g id="edge32" class="edge">
<title>Node26&#45;&gt;Node24</title>
<path fill="none" stroke="midnightblue" d="M314.25,-283.1C304.48,-279.66 294.2,-275.57 285,-271 267.78,-262.44 266.2,-255.59 249,-247 241.89,-243.45 233.95,-240.26 226.39,-237.56"/>
<polygon fill="midnightblue" stroke="midnightblue" points="313.18,-286.43 323.78,-286.32 315.43,-279.8 313.18,-286.43"/>
</g>
<!-- Node27 -->
<g id="node27" class="node">
<title>Node27</title>
<g id="a_node27"><a xlink:href="group__shapes__basic__2d.html#ga803b8196745be0e3a338def3c58e3b2b" target="_top" xlink:title="A rectangle with a removed rectangular core.">
<polygon fill="white" stroke="black" points="157.5,-256.5 157.5,-275.5 230.5,-275.5 230.5,-256.5 157.5,-256.5"/>
<text text-anchor="middle" x="194" y="-263.5" font-family="Helvetica,sans-Serif" font-size="10.00">rectangle_c</text>
</a>
</g>
</g>
<!-- Node26&#45;&gt;Node27 -->
<g id="edge34" class="edge">
<title>Node26&#45;&gt;Node27</title>
<path fill="none" stroke="midnightblue" d="M313.61,-287.63C288.06,-282.97 255.33,-277 230.73,-272.52"/>
<polygon fill="midnightblue" stroke="midnightblue" points="313.25,-291.13 323.72,-289.48 314.51,-284.24 313.25,-291.13"/>
</g>
<!-- Node27&#45;&gt;Node3 -->
<g id="edge35" class="edge">
<title>Node27&#45;&gt;Node3</title>
<path fill="none" stroke="midnightblue" d="M151.91,-280.28C147.21,-283.02 142.76,-286.24 139,-290 111.14,-317.86 119.61,-335.28 103,-371 86.76,-405.95 66.47,-446.97 57.34,-465.3"/>
<polygon fill="midnightblue" stroke="midnightblue" points="153.84,-283.22 161.16,-275.57 150.66,-276.99 153.84,-283.22"/>
</g>
<!-- Node27&#45;&gt;Node20 -->
<g id="edge36" class="edge">
<title>Node27&#45;&gt;Node20</title>
<path fill="none" stroke="midnightblue" d="M155.82,-279.81C149.93,-282.75 144.11,-286.15 139,-290 119.1,-305 123.33,-318.58 103,-333 97.65,-336.79 91.45,-339.93 85.27,-342.49"/>
<polygon fill="midnightblue" stroke="midnightblue" points="157.4,-282.94 165.02,-275.58 154.48,-276.58 157.4,-282.94"/>
</g>
</g>
</svg>
