<?xml version="1.0" encoding="UTF-8" standalone="no"?>
<!DOCTYPE svg PUBLIC "-//W3C//DTD SVG 1.1//EN"
 "http://www.w3.org/Graphics/SVG/1.1/DTD/svg11.dtd">
<!-- Generated by graphviz version 2.43.0 (0)
 -->
<!-- Title: mount_screw_post Pages: 1 -->
<svg width="741pt" height="598pt"
 viewBox="0.00 0.00 741.00 598.00" xmlns="http://www.w3.org/2000/svg" xmlns:xlink="http://www.w3.org/1999/xlink">
<g id="graph0" class="graph" transform="scale(1 1) rotate(0) translate(4 594)">
<title>mount_screw_post</title>
<polygon fill="white" stroke="transparent" points="-4,4 -4,-594 737,-594 737,4 -4,4"/>
<!-- Node1 -->
<g id="node1" class="node">
<title>Node1</title>
<g id="a_node1"><a xlink:title="A screw mount post with screw bore and optional fins.">
<polygon fill="#bfbfbf" stroke="black" points="0,-209.5 0,-228.5 108,-228.5 108,-209.5 0,-209.5"/>
<text text-anchor="middle" x="54" y="-216.5" font-family="Helvetica,sans-Serif" font-size="10.00">mount_screw_post</text>
</a>
</g>
</g>
<!-- Node2 -->
<g id="node2" class="node">
<title>Node2</title>
<g id="a_node2"><a xlink:href="group__datatypes__iterable__operate.html#ga3d37c2b0067d1661724bd89955c8f6ce" target="_top" xlink:title="Return an element of an iterable when it exists or a default value otherwise.">
<polygon fill="white" stroke="black" points="654,-380.5 654,-399.5 733,-399.5 733,-380.5 654,-380.5"/>
<text text-anchor="middle" x="693.5" y="-387.5" font-family="Helvetica,sans-Serif" font-size="10.00">defined_e_or</text>
</a>
</g>
</g>
<!-- Node1&#45;&gt;Node2 -->
<g id="edge1" class="edge">
<title>Node1&#45;&gt;Node2</title>
<path fill="none" stroke="midnightblue" d="M57.35,-228.61C64.67,-256.28 89.9,-336.4 144,-371 305.25,-474.14 551.19,-427.11 649.61,-402.08"/>
<polygon fill="midnightblue" stroke="midnightblue" points="650.69,-405.41 659.49,-399.51 648.93,-398.64 650.69,-405.41"/>
</g>
<!-- Node3 -->
<g id="node3" class="node">
<title>Node3</title>
<g id="a_node3"><a xlink:href="group__datatypes__iterable__operate.html#gaa10da05023bd79eec85459298bc937c2" target="_top" xlink:title="Return the list element or scalar numeric value, if either is defined, otherwise the default value.">
<polygon fill="white" stroke="black" points="340,-266.5 340,-285.5 431,-285.5 431,-266.5 340,-266.5"/>
<text text-anchor="middle" x="385.5" y="-273.5" font-family="Helvetica,sans-Serif" font-size="10.00">defined_eon_or</text>
</a>
</g>
</g>
<!-- Node1&#45;&gt;Node3 -->
<g id="edge2" class="edge">
<title>Node1&#45;&gt;Node3</title>
<path fill="none" stroke="midnightblue" d="M88.18,-228.52C104.83,-233.06 125.37,-238.29 144,-242 207.32,-254.62 280.93,-264.3 329.87,-270.05"/>
<polygon fill="midnightblue" stroke="midnightblue" points="329.58,-273.54 339.92,-271.22 330.39,-266.59 329.58,-273.54"/>
</g>
<!-- Node4 -->
<g id="node4" class="node">
<title>Node4</title>
<g id="a_node4"><a xlink:href="group__tools__extrude.html#ga45661244067bf945b684550c3263ee45" target="_top" xlink:title="Linearly extrude a 2d shape with multi&#45;segment uniformly&#45;spaced profile scaling.">
<polygon fill="white" stroke="black" points="329,-475.5 329,-494.5 442,-494.5 442,-475.5 329,-475.5"/>
<text text-anchor="middle" x="385.5" y="-482.5" font-family="Helvetica,sans-Serif" font-size="10.00">extrude_linear_mss</text>
</a>
</g>
</g>
<!-- Node1&#45;&gt;Node4 -->
<g id="edge3" class="edge">
<title>Node1&#45;&gt;Node4</title>
<path fill="none" stroke="midnightblue" d="M55.69,-228.97C58.69,-264.35 73.89,-384.84 144,-442 192.77,-481.76 265.79,-489.88 318.57,-489.68"/>
<polygon fill="midnightblue" stroke="midnightblue" points="318.89,-493.17 328.84,-489.53 318.79,-486.17 318.89,-493.17"/>
</g>
<!-- Node10 -->
<g id="node10" class="node">
<title>Node10</title>
<g id="a_node10"><a xlink:href="group__math__utility.html#gaf9e83459b8955e67df8371e48c5c6194" target="_top" xlink:title="Return facets number for the given arc radius.">
<polygon fill="white" stroke="black" points="195,-114.5 195,-133.5 242,-133.5 242,-114.5 195,-114.5"/>
<text text-anchor="middle" x="218.5" y="-121.5" font-family="Helvetica,sans-Serif" font-size="10.00">get_fn</text>
</a>
</g>
</g>
<!-- Node1&#45;&gt;Node10 -->
<g id="edge12" class="edge">
<title>Node1&#45;&gt;Node10</title>
<path fill="none" stroke="midnightblue" d="M63.33,-209.49C78,-193.36 110.12,-160.63 144,-143 156.55,-136.47 171.49,-132.08 184.62,-129.17"/>
<polygon fill="midnightblue" stroke="midnightblue" points="185.56,-132.56 194.67,-127.16 184.18,-125.69 185.56,-132.56"/>
</g>
<!-- Node11 -->
<g id="node11" class="node">
<title>Node11</title>
<g id="a_node11"><a xlink:href="group__datatypes__scalar__test.html#ga51d7fdb800c10f4b7479d23b89ab8d22" target="_top" xlink:title="Test if a value is defined.">
<polygon fill="white" stroke="black" points="185.5,-76.5 185.5,-95.5 251.5,-95.5 251.5,-76.5 185.5,-76.5"/>
<text text-anchor="middle" x="218.5" y="-83.5" font-family="Helvetica,sans-Serif" font-size="10.00">is_defined</text>
</a>
</g>
</g>
<!-- Node1&#45;&gt;Node11 -->
<g id="edge13" class="edge">
<title>Node1&#45;&gt;Node11</title>
<path fill="none" stroke="midnightblue" d="M59.71,-209.31C71,-187.17 101.8,-132.68 144,-105 153.37,-98.86 164.61,-94.7 175.46,-91.88"/>
<polygon fill="midnightblue" stroke="midnightblue" points="176.27,-95.29 185.25,-89.66 174.72,-88.46 176.27,-95.29"/>
</g>
<!-- Node12 -->
<g id="node12" class="node">
<title>Node12</title>
<g id="a_node12"><a xlink:href="group__shapes__polygon.html#ga9c1bd914355d92f9d66ba0e5c2d9dbac" target="_top" xlink:title="A polygon rectangle with vertex rounding.">
<polygon fill="white" stroke="black" points="345.5,-190.5 345.5,-209.5 425.5,-209.5 425.5,-190.5 345.5,-190.5"/>
<text text-anchor="middle" x="385.5" y="-197.5" font-family="Helvetica,sans-Serif" font-size="10.00">pg_rectangle</text>
</a>
</g>
</g>
<!-- Node1&#45;&gt;Node12 -->
<g id="edge14" class="edge">
<title>Node1&#45;&gt;Node12</title>
<path fill="none" stroke="midnightblue" d="M108.31,-215.93C170.98,-212.31 274.16,-206.36 335.09,-202.85"/>
<polygon fill="midnightblue" stroke="midnightblue" points="335.45,-206.33 345.23,-202.26 335.04,-199.35 335.45,-206.33"/>
</g>
<!-- Node15 -->
<g id="node15" class="node">
<title>Node15</title>
<g id="a_node15"><a xlink:href="group__shapes__polygon.html#ga155ae943a1aa91432b1992fd1de364c2" target="_top" xlink:title="A polygon trapezoid with individual vertex rounding and arc facets.">
<polygon fill="white" stroke="black" points="345.5,-228.5 345.5,-247.5 425.5,-247.5 425.5,-228.5 345.5,-228.5"/>
<text text-anchor="middle" x="385.5" y="-235.5" font-family="Helvetica,sans-Serif" font-size="10.00">pg_trapezoid</text>
</a>
</g>
</g>
<!-- Node1&#45;&gt;Node15 -->
<g id="edge18" class="edge">
<title>Node1&#45;&gt;Node15</title>
<path fill="none" stroke="midnightblue" d="M108.31,-222.07C170.98,-225.69 274.16,-231.64 335.09,-235.15"/>
<polygon fill="midnightblue" stroke="midnightblue" points="335.04,-238.65 345.23,-235.74 335.45,-231.67 335.04,-238.65"/>
</g>
<!-- Node18 -->
<g id="node18" class="node">
<title>Node18</title>
<g id="a_node18"><a xlink:href="group__shapes__polygon.html#ga24be160074502dce7ff8a78361d4b074" target="_top" xlink:title="A polygon triangle specified by size&#45;angle&#45;size with vertex rounding.">
<polygon fill="white" stroke="black" points="172,-152.5 172,-171.5 265,-171.5 265,-152.5 172,-152.5"/>
<text text-anchor="middle" x="218.5" y="-159.5" font-family="Helvetica,sans-Serif" font-size="10.00">pg_triangle_sas</text>
</a>
</g>
</g>
<!-- Node1&#45;&gt;Node18 -->
<g id="edge23" class="edge">
<title>Node1&#45;&gt;Node18</title>
<path fill="none" stroke="midnightblue" d="M79.84,-209.49C97.64,-202.75 122.21,-193.59 144,-186 154.87,-182.21 166.7,-178.27 177.64,-174.7"/>
<polygon fill="midnightblue" stroke="midnightblue" points="178.94,-177.96 187.37,-171.54 176.78,-171.3 178.94,-177.96"/>
</g>
<!-- Node25 -->
<g id="node25" class="node">
<title>Node25</title>
<g id="a_node25"><a xlink:href="group__math__polygon.html#ga14f9e097061ed4d570b7aae27a01e43e" target="_top" xlink:title="Compute the perimeter of an n&#45;sided regular polygon in 2D.">
<polygon fill="white" stroke="black" points="144,-38.5 144,-57.5 293,-57.5 293,-38.5 144,-38.5"/>
<text text-anchor="middle" x="218.5" y="-45.5" font-family="Helvetica,sans-Serif" font-size="10.00">polygon_regular_perimeter</text>
</a>
</g>
</g>
<!-- Node1&#45;&gt;Node25 -->
<g id="edge32" class="edge">
<title>Node1&#45;&gt;Node25</title>
<path fill="none" stroke="midnightblue" d="M57.74,-209.41C65.96,-182.46 93.01,-105.53 144,-67 146.5,-65.11 149.16,-63.41 151.94,-61.88"/>
<polygon fill="midnightblue" stroke="midnightblue" points="153.6,-64.97 161.15,-57.54 150.62,-58.64 153.6,-64.97"/>
</g>
<!-- Node26 -->
<g id="node26" class="node">
<title>Node26</title>
<g id="a_node26"><a xlink:href="group__models__3d__fastener__screws.html#ga57dcfe1241e15eaa58ccd08891504a93" target="_top" xlink:title="Flat and beveled&#45;head fastener bore with nut, nut slot, and bore tolerance.">
<polygon fill="white" stroke="black" points="182.5,-304.5 182.5,-323.5 254.5,-323.5 254.5,-304.5 182.5,-304.5"/>
<text text-anchor="middle" x="218.5" y="-311.5" font-family="Helvetica,sans-Serif" font-size="10.00">screw_bore</text>
</a>
</g>
</g>
<!-- Node1&#45;&gt;Node26 -->
<g id="edge33" class="edge">
<title>Node1&#45;&gt;Node26</title>
<path fill="none" stroke="midnightblue" d="M64.56,-228.59C80.02,-243.61 111.99,-272.74 144,-290 152.95,-294.83 163.04,-298.9 172.81,-302.24"/>
<polygon fill="midnightblue" stroke="midnightblue" points="171.83,-305.6 182.42,-305.34 173.98,-298.94 171.83,-305.6"/>
</g>
<!-- Node28 -->
<g id="node28" class="node">
<title>Node28</title>
<g id="a_node28"><a xlink:href="group__models__3d__fastener__screws.html#gaad990187680f7ac947e555483d854bfa" target="_top" xlink:title="Gapped fastener bore with engagement cylinders for self&#45;forming threads.">
<polygon fill="white" stroke="black" points="173.5,-342.5 173.5,-361.5 263.5,-361.5 263.5,-342.5 173.5,-342.5"/>
<text text-anchor="middle" x="218.5" y="-349.5" font-family="Helvetica,sans-Serif" font-size="10.00">screw_bore_tsf</text>
</a>
</g>
</g>
<!-- Node1&#45;&gt;Node28 -->
<g id="edge37" class="edge">
<title>Node1&#45;&gt;Node28</title>
<path fill="none" stroke="midnightblue" d="M59.71,-228.69C71,-250.83 101.8,-305.32 144,-333 149.85,-336.84 156.43,-339.9 163.2,-342.34"/>
<polygon fill="midnightblue" stroke="midnightblue" points="162.57,-345.82 173.16,-345.5 164.69,-339.14 162.57,-345.82"/>
</g>
<!-- Node29 -->
<g id="node29" class="node">
<title>Node29</title>
<g id="a_node29"><a xlink:href="group__datatypes__iterable__operate.html#ga4a000b3543933067bb00c6950e9122b3" target="_top" xlink:title="Return the third element of an iterable value.">
<polygon fill="white" stroke="black" points="199,-0.5 199,-19.5 238,-19.5 238,-0.5 199,-0.5"/>
<text text-anchor="middle" x="218.5" y="-7.5" font-family="Helvetica,sans-Serif" font-size="10.00">third</text>
</a>
</g>
</g>
<!-- Node1&#45;&gt;Node29 -->
<g id="edge42" class="edge">
<title>Node1&#45;&gt;Node29</title>
<path fill="none" stroke="midnightblue" d="M56.56,-209.36C62.13,-178.11 84.02,-78.79 144,-29 156.49,-18.64 173.96,-13.85 188.74,-11.67"/>
<polygon fill="midnightblue" stroke="midnightblue" points="189.38,-15.12 198.91,-10.5 188.58,-8.16 189.38,-15.12"/>
</g>
<!-- Node5 -->
<g id="node5" class="node">
<title>Node5</title>
<g id="a_node5"><a xlink:href="group__tools__extrude.html#gab2442cfaf1ad44d6e295ab0979d9e03d" target="_top" xlink:title="Linearly extrude a 2d shape with uniformly&#45;spaced profile scaling.">
<polygon fill="white" stroke="black" points="493.5,-532.5 493.5,-551.5 602.5,-551.5 602.5,-532.5 493.5,-532.5"/>
<text text-anchor="middle" x="548" y="-539.5" font-family="Helvetica,sans-Serif" font-size="10.00">extrude_linear_uss</text>
</a>
</g>
</g>
<!-- Node4&#45;&gt;Node5 -->
<g id="edge4" class="edge">
<title>Node4&#45;&gt;Node5</title>
<path fill="none" stroke="midnightblue" d="M412.9,-494.61C431.16,-501.24 456.03,-510.22 478,-518 488.33,-521.66 499.54,-525.58 509.87,-529.17"/>
<polygon fill="midnightblue" stroke="midnightblue" points="508.85,-532.52 519.44,-532.5 511.14,-525.91 508.85,-532.52"/>
</g>
<!-- Node6 -->
<g id="node6" class="node">
<title>Node6</title>
<g id="a_node6"><a xlink:href="group__datatypes__iterable__operate.html#gaccab3e37e43cb1d882713b3f3d6d9e1b" target="_top" xlink:title="Return the first element of an iterable value.">
<polygon fill="white" stroke="black" points="676,-570.5 676,-589.5 711,-589.5 711,-570.5 676,-570.5"/>
<text text-anchor="middle" x="693.5" y="-577.5" font-family="Helvetica,sans-Serif" font-size="10.00">first</text>
</a>
</g>
</g>
<!-- Node4&#45;&gt;Node6 -->
<g id="edge9" class="edge">
<title>Node4&#45;&gt;Node6</title>
<path fill="none" stroke="midnightblue" d="M394.38,-494.57C408.89,-511.43 441.72,-546.06 478,-561 541.31,-587.08 623.81,-585.57 665.65,-582.6"/>
<polygon fill="midnightblue" stroke="midnightblue" points="666.15,-586.07 675.84,-581.78 665.6,-579.09 666.15,-586.07"/>
</g>
<!-- Node7 -->
<g id="node7" class="node">
<title>Node7</title>
<g id="a_node7"><a xlink:href="group__datatypes__scalar__test.html#ga258e8911375d30ff85a6e52df01dc1c5" target="_top" xlink:title="Test if a value is a single non&#45;iterable value.">
<polygon fill="white" stroke="black" points="664,-494.5 664,-513.5 723,-513.5 723,-494.5 664,-494.5"/>
<text text-anchor="middle" x="693.5" y="-501.5" font-family="Helvetica,sans-Serif" font-size="10.00">is_scalar</text>
</a>
</g>
</g>
<!-- Node4&#45;&gt;Node7 -->
<g id="edge10" class="edge">
<title>Node4&#45;&gt;Node7</title>
<path fill="none" stroke="midnightblue" d="M442.27,-488.46C503.52,-492.27 600.27,-498.27 653.75,-501.59"/>
<polygon fill="midnightblue" stroke="midnightblue" points="653.65,-505.09 663.84,-502.22 654.08,-498.11 653.65,-505.09"/>
</g>
<!-- Node9 -->
<g id="node9" class="node">
<title>Node9</title>
<g id="a_node9"><a xlink:href="group__datatypes__list__operate.html#gae12565005038993506dc37249e32766d" target="_top" xlink:title="Compute the sum of a list of numbers.">
<polygon fill="white" stroke="black" points="529,-456.5 529,-475.5 567,-475.5 567,-456.5 529,-456.5"/>
<text text-anchor="middle" x="548" y="-463.5" font-family="Helvetica,sans-Serif" font-size="10.00">sum</text>
</a>
</g>
</g>
<!-- Node4&#45;&gt;Node9 -->
<g id="edge11" class="edge">
<title>Node4&#45;&gt;Node9</title>
<path fill="none" stroke="midnightblue" d="M442.18,-478.41C467.94,-475.36 497.42,-471.87 518.55,-469.37"/>
<polygon fill="midnightblue" stroke="midnightblue" points="519.25,-472.81 528.77,-468.16 518.43,-465.86 519.25,-472.81"/>
</g>
<!-- Node5&#45;&gt;Node2 -->
<g id="edge5" class="edge">
<title>Node5&#45;&gt;Node2</title>
<path fill="none" stroke="midnightblue" d="M562.17,-532.47C576.61,-521.73 600.1,-503.36 618,-485 642.13,-460.25 666.08,-427.97 680.07,-408.13"/>
<polygon fill="midnightblue" stroke="midnightblue" points="683.09,-409.93 685.94,-399.72 677.35,-405.92 683.09,-409.93"/>
</g>
<!-- Node5&#45;&gt;Node6 -->
<g id="edge6" class="edge">
<title>Node5&#45;&gt;Node6</title>
<path fill="none" stroke="midnightblue" d="M585.21,-551.59C610.3,-558.23 643.14,-566.93 665.85,-572.94"/>
<polygon fill="midnightblue" stroke="midnightblue" points="665.24,-576.4 675.8,-575.58 667.03,-569.63 665.24,-576.4"/>
</g>
<!-- Node5&#45;&gt;Node7 -->
<g id="edge7" class="edge">
<title>Node5&#45;&gt;Node7</title>
<path fill="none" stroke="midnightblue" d="M585.21,-532.41C606.28,-526.83 632.83,-519.8 654.24,-514.13"/>
<polygon fill="midnightblue" stroke="midnightblue" points="655.22,-517.49 663.99,-511.55 653.43,-510.73 655.22,-517.49"/>
</g>
<!-- Node8 -->
<g id="node8" class="node">
<title>Node8</title>
<g id="a_node8"><a xlink:href="group__datatypes__iterable__operate.html#ga894d4bec62cc9cf38d5e099de3028c54" target="_top" xlink:title="Return the second element of an iterable value.">
<polygon fill="white" stroke="black" points="668,-532.5 668,-551.5 719,-551.5 719,-532.5 668,-532.5"/>
<text text-anchor="middle" x="693.5" y="-539.5" font-family="Helvetica,sans-Serif" font-size="10.00">second</text>
</a>
</g>
</g>
<!-- Node5&#45;&gt;Node8 -->
<g id="edge8" class="edge">
<title>Node5&#45;&gt;Node8</title>
<path fill="none" stroke="midnightblue" d="M602.84,-542C621.11,-542 641.03,-542 657.45,-542"/>
<polygon fill="midnightblue" stroke="midnightblue" points="657.67,-545.5 667.67,-542 657.67,-538.5 657.67,-545.5"/>
</g>
<!-- Node12&#45;&gt;Node2 -->
<g id="edge15" class="edge">
<title>Node12&#45;&gt;Node2</title>
<path fill="none" stroke="midnightblue" d="M425.83,-190.85C483.65,-178.38 588.01,-159.85 618,-181 680.71,-225.22 690.94,-327.17 692.39,-370.23"/>
<polygon fill="midnightblue" stroke="midnightblue" points="688.89,-370.36 692.6,-380.28 695.89,-370.21 688.89,-370.36"/>
</g>
<!-- Node13 -->
<g id="node13" class="node">
<title>Node13</title>
<g id="a_node13"><a xlink:href="group__math__polygon.html#ga7a0eff64929a142fc507615f83e3bd58" target="_top" xlink:title="Compute coordinates that round all of the vertices between each adjacent edges in 2D.">
<polygon fill="white" stroke="black" points="478,-228.5 478,-247.5 618,-247.5 618,-228.5 478,-228.5"/>
<text text-anchor="middle" x="548" y="-235.5" font-family="Helvetica,sans-Serif" font-size="10.00">polygon_round_eve_all_p</text>
</a>
</g>
</g>
<!-- Node12&#45;&gt;Node13 -->
<g id="edge16" class="edge">
<title>Node12&#45;&gt;Node13</title>
<path fill="none" stroke="midnightblue" d="M425.76,-209.3C447.19,-214.37 473.94,-220.7 496.85,-226.13"/>
<polygon fill="midnightblue" stroke="midnightblue" points="496.21,-229.57 506.75,-228.47 497.82,-222.76 496.21,-229.57"/>
</g>
<!-- Node14 -->
<g id="node14" class="node">
<title>Node14</title>
<g id="a_node14"><a xlink:href="group__math__linear__algebra.html#gaeabe74699fd0a437bad9a1d442bfd111" target="_top" xlink:title="Translate all coordinates dimensions.">
<polygon fill="white" stroke="black" points="512.5,-190.5 512.5,-209.5 583.5,-209.5 583.5,-190.5 512.5,-190.5"/>
<text text-anchor="middle" x="548" y="-197.5" font-family="Helvetica,sans-Serif" font-size="10.00">translate_p</text>
</a>
</g>
</g>
<!-- Node12&#45;&gt;Node14 -->
<g id="edge17" class="edge">
<title>Node12&#45;&gt;Node14</title>
<path fill="none" stroke="midnightblue" d="M425.76,-200C448.8,-200 478,-200 501.97,-200"/>
<polygon fill="midnightblue" stroke="midnightblue" points="502.23,-203.5 512.23,-200 502.23,-196.5 502.23,-203.5"/>
</g>
<!-- Node15&#45;&gt;Node13 -->
<g id="edge20" class="edge">
<title>Node15&#45;&gt;Node13</title>
<path fill="none" stroke="midnightblue" d="M425.76,-238C438.51,-238 453.13,-238 467.72,-238"/>
<polygon fill="midnightblue" stroke="midnightblue" points="467.79,-241.5 477.79,-238 467.79,-234.5 467.79,-241.5"/>
</g>
<!-- Node15&#45;&gt;Node14 -->
<g id="edge22" class="edge">
<title>Node15&#45;&gt;Node14</title>
<path fill="none" stroke="midnightblue" d="M425.76,-228.7C448.91,-223.22 478.27,-216.27 502.3,-210.58"/>
<polygon fill="midnightblue" stroke="midnightblue" points="503.31,-213.94 512.23,-208.23 501.7,-207.13 503.31,-213.94"/>
</g>
<!-- Node16 -->
<g id="node16" class="node">
<title>Node16</title>
<g id="a_node16"><a xlink:href="group__math__polygon.html#gadd2e4f80e8c8f0aafa04f9a70a7c617e" target="_top" xlink:title="Compute the center of mass of a polygon in a Euclidean 2d&#45;space.">
<polygon fill="white" stroke="black" points="497.5,-266.5 497.5,-285.5 598.5,-285.5 598.5,-266.5 497.5,-266.5"/>
<text text-anchor="middle" x="548" y="-273.5" font-family="Helvetica,sans-Serif" font-size="10.00">polygon_centroid</text>
</a>
</g>
</g>
<!-- Node15&#45;&gt;Node16 -->
<g id="edge19" class="edge">
<title>Node15&#45;&gt;Node16</title>
<path fill="none" stroke="midnightblue" d="M425.76,-247.3C447.19,-252.37 473.94,-258.7 496.85,-264.13"/>
<polygon fill="midnightblue" stroke="midnightblue" points="496.21,-267.57 506.75,-266.47 497.82,-260.76 496.21,-267.57"/>
</g>
<!-- Node17 -->
<g id="node17" class="node">
<title>Node17</title>
<g id="a_node17"><a xlink:href="group__math__polygon.html#ga45b00b87d541c116f7d4a403f5fcd2f5" target="_top" xlink:title="Compute the coordinates for a rounded trapezoid in 2D space.">
<polygon fill="white" stroke="black" points="489,-304.5 489,-323.5 607,-323.5 607,-304.5 489,-304.5"/>
<text text-anchor="middle" x="548" y="-311.5" font-family="Helvetica,sans-Serif" font-size="10.00">polygon_trapezoid_p</text>
</a>
</g>
</g>
<!-- Node15&#45;&gt;Node17 -->
<g id="edge21" class="edge">
<title>Node15&#45;&gt;Node17</title>
<path fill="none" stroke="midnightblue" d="M422.61,-247.52C429.33,-250.07 436.09,-253.2 442,-257 461.57,-269.58 458.05,-283.03 478,-295 481.6,-297.16 485.44,-299.08 489.41,-300.78"/>
<polygon fill="midnightblue" stroke="midnightblue" points="488.24,-304.08 498.83,-304.39 490.75,-297.55 488.24,-304.08"/>
</g>
<!-- Node19 -->
<g id="node19" class="node">
<title>Node19</title>
<g id="a_node19"><a xlink:href="group__shapes__polygon.html#gac7e2c70b3428b729efd86a675df794e6" target="_top" xlink:title="A polygon triangle specified by three coordinate points with vertex rounding.">
<polygon fill="white" stroke="black" points="338,-114.5 338,-133.5 433,-133.5 433,-114.5 338,-114.5"/>
<text text-anchor="middle" x="385.5" y="-121.5" font-family="Helvetica,sans-Serif" font-size="10.00">pg_triangle_ppp</text>
</a>
</g>
</g>
<!-- Node18&#45;&gt;Node19 -->
<g id="edge24" class="edge">
<title>Node18&#45;&gt;Node19</title>
<path fill="none" stroke="midnightblue" d="M261.14,-152.41C283.01,-147.37 310.01,-141.16 333.16,-135.82"/>
<polygon fill="midnightblue" stroke="midnightblue" points="334.2,-139.18 343.16,-133.52 332.63,-132.35 334.2,-139.18"/>
</g>
<!-- Node23 -->
<g id="node23" class="node">
<title>Node23</title>
<g id="a_node23"><a xlink:href="group__math__triangle.html#gaab9b812d15418fd05c9d93f3bfcc1989" target="_top" xlink:title="Compute a set of vertex coordinates for a triangle given its side lengths in 2D.">
<polygon fill="white" stroke="black" points="330,-152.5 330,-171.5 441,-171.5 441,-152.5 330,-152.5"/>
<text text-anchor="middle" x="385.5" y="-159.5" font-family="Helvetica,sans-Serif" font-size="10.00">triangle2d_sss2ppp</text>
</a>
</g>
</g>
<!-- Node18&#45;&gt;Node23 -->
<g id="edge30" class="edge">
<title>Node18&#45;&gt;Node23</title>
<path fill="none" stroke="midnightblue" d="M265.02,-162C281.93,-162 301.44,-162 319.73,-162"/>
<polygon fill="midnightblue" stroke="midnightblue" points="319.74,-165.5 329.74,-162 319.74,-158.5 319.74,-165.5"/>
</g>
<!-- Node24 -->
<g id="node24" class="node">
<title>Node24</title>
<g id="a_node24"><a xlink:href="group__math__triangle.html#ga33761959a2184db852e773ca2330811b" target="_top" xlink:title="Compute the side lengths of a triangle given two sides and the included angle.">
<polygon fill="white" stroke="black" points="336.5,-76.5 336.5,-95.5 434.5,-95.5 434.5,-76.5 336.5,-76.5"/>
<text text-anchor="middle" x="385.5" y="-83.5" font-family="Helvetica,sans-Serif" font-size="10.00">triangle_sas2sss</text>
</a>
</g>
</g>
<!-- Node18&#45;&gt;Node24 -->
<g id="edge31" class="edge">
<title>Node18&#45;&gt;Node24</title>
<path fill="none" stroke="midnightblue" d="M265,-154.47C274.65,-151.73 284.48,-148.02 293,-143 313.04,-131.19 309.43,-117.58 329,-105 332.14,-102.98 335.52,-101.15 339,-99.5"/>
<polygon fill="midnightblue" stroke="midnightblue" points="340.54,-102.65 348.39,-95.52 337.81,-96.2 340.54,-102.65"/>
</g>
<!-- Node19&#45;&gt;Node13 -->
<g id="edge25" class="edge">
<title>Node19&#45;&gt;Node13</title>
<path fill="none" stroke="midnightblue" d="M427.12,-133.58C432.52,-136.05 437.67,-139.13 442,-143 469.87,-167.9 449.38,-194.96 478,-219 480,-220.68 482.13,-222.21 484.37,-223.6"/>
<polygon fill="midnightblue" stroke="midnightblue" points="482.93,-226.8 493.41,-228.35 486.18,-220.6 482.93,-226.8"/>
</g>
<!-- Node19&#45;&gt;Node14 -->
<g id="edge26" class="edge">
<title>Node19&#45;&gt;Node14</title>
<path fill="none" stroke="midnightblue" d="M417.39,-133.55C425.5,-136.33 434.17,-139.56 442,-143 470.49,-155.51 501.65,-172.93 522.57,-185.21"/>
<polygon fill="midnightblue" stroke="midnightblue" points="521.02,-188.37 531.41,-190.46 524.59,-182.35 521.02,-188.37"/>
</g>
<!-- Node20 -->
<g id="node20" class="node">
<title>Node20</title>
<g id="a_node20"><a xlink:href="group__math__triangle.html#gac0d11ca2c5035a9e53c1144f3774b0b4" target="_top" xlink:title="Compute the center coordinate of a triangle&#39;s incircle in 2D.">
<polygon fill="white" stroke="black" points="492.5,-76.5 492.5,-95.5 603.5,-95.5 603.5,-76.5 492.5,-76.5"/>
<text text-anchor="middle" x="548" y="-83.5" font-family="Helvetica,sans-Serif" font-size="10.00">triangle2d_incenter</text>
</a>
</g>
</g>
<!-- Node19&#45;&gt;Node20 -->
<g id="edge27" class="edge">
<title>Node19&#45;&gt;Node20</title>
<path fill="none" stroke="midnightblue" d="M427,-114.41C448.18,-109.4 474.3,-103.21 496.76,-97.89"/>
<polygon fill="midnightblue" stroke="midnightblue" points="497.87,-101.23 506.79,-95.52 496.25,-94.42 497.87,-101.23"/>
</g>
<!-- Node21 -->
<g id="node21" class="node">
<title>Node21</title>
<g id="a_node21"><a xlink:href="group__math__triangle.html#ga51e8d8c2004f859d216790f7966b7dfd" target="_top" xlink:title="Compute the centroid of a triangle.">
<polygon fill="white" stroke="black" points="498.5,-38.5 498.5,-57.5 597.5,-57.5 597.5,-38.5 498.5,-38.5"/>
<text text-anchor="middle" x="548" y="-45.5" font-family="Helvetica,sans-Serif" font-size="10.00">triangle_centroid</text>
</a>
</g>
</g>
<!-- Node19&#45;&gt;Node21 -->
<g id="edge28" class="edge">
<title>Node19&#45;&gt;Node21</title>
<path fill="none" stroke="midnightblue" d="M422.61,-114.48C429.33,-111.93 436.09,-108.8 442,-105 461.57,-92.42 458.05,-78.97 478,-67 481.6,-64.84 485.44,-62.92 489.41,-61.22"/>
<polygon fill="midnightblue" stroke="midnightblue" points="490.75,-64.45 498.83,-57.61 488.24,-57.92 490.75,-64.45"/>
</g>
<!-- Node22 -->
<g id="node22" class="node">
<title>Node22</title>
<g id="a_node22"><a xlink:href="group__math__triangle.html#ga5cf2801b07faec68a51ac3cd901bc4b0" target="_top" xlink:title="Compute the coordinate of a triangle&#39;s circumcenter.">
<polygon fill="white" stroke="black" points="486.5,-114.5 486.5,-133.5 609.5,-133.5 609.5,-114.5 486.5,-114.5"/>
<text text-anchor="middle" x="548" y="-121.5" font-family="Helvetica,sans-Serif" font-size="10.00">triangle_circumcenter</text>
</a>
</g>
</g>
<!-- Node19&#45;&gt;Node22 -->
<g id="edge29" class="edge">
<title>Node19&#45;&gt;Node22</title>
<path fill="none" stroke="midnightblue" d="M433.35,-124C446.68,-124 461.51,-124 475.93,-124"/>
<polygon fill="midnightblue" stroke="midnightblue" points="476.33,-127.5 486.33,-124 476.33,-120.5 476.33,-127.5"/>
</g>
<!-- Node26&#45;&gt;Node2 -->
<g id="edge34" class="edge">
<title>Node26&#45;&gt;Node2</title>
<path fill="none" stroke="midnightblue" d="M254.75,-315.5C298.77,-317.72 376.3,-322.77 442,-333 514.77,-344.33 597.88,-364.76 647.72,-377.83"/>
<polygon fill="midnightblue" stroke="midnightblue" points="646.97,-381.26 657.53,-380.43 648.76,-374.49 646.97,-381.26"/>
</g>
<!-- Node26&#45;&gt;Node3 -->
<g id="edge35" class="edge">
<title>Node26&#45;&gt;Node3</title>
<path fill="none" stroke="midnightblue" d="M254.9,-305.85C277.72,-300.59 307.77,-293.67 333.19,-287.82"/>
<polygon fill="midnightblue" stroke="midnightblue" points="334.08,-291.2 343.04,-285.55 332.51,-284.38 334.08,-291.2"/>
</g>
<!-- Node27 -->
<g id="node27" class="node">
<title>Node27</title>
<g id="a_node27"><a xlink:href="group__datatypes__list__operate.html#ga7b8e6f2bbfa72ae61e39377e5ca6b5be" target="_top" xlink:title="Select specified element from list or return a default.">
<polygon fill="white" stroke="black" points="356,-342.5 356,-361.5 415,-361.5 415,-342.5 356,-342.5"/>
<text text-anchor="middle" x="385.5" y="-349.5" font-family="Helvetica,sans-Serif" font-size="10.00">select_ci</text>
</a>
</g>
</g>
<!-- Node26&#45;&gt;Node27 -->
<g id="edge36" class="edge">
<title>Node26&#45;&gt;Node27</title>
<path fill="none" stroke="midnightblue" d="M254.9,-322.15C281.6,-328.3 318.2,-336.73 345.7,-343.06"/>
<polygon fill="midnightblue" stroke="midnightblue" points="345.22,-346.54 355.75,-345.38 346.79,-339.72 345.22,-346.54"/>
</g>
<!-- Node28&#45;&gt;Node2 -->
<g id="edge38" class="edge">
<title>Node28&#45;&gt;Node2</title>
<path fill="none" stroke="midnightblue" d="M263.55,-360.88C283.46,-364.58 307.33,-368.56 329,-371 441.15,-383.61 573.72,-387.88 643.64,-389.3"/>
<polygon fill="midnightblue" stroke="midnightblue" points="643.84,-392.8 653.91,-389.5 643.98,-385.8 643.84,-392.8"/>
</g>
<!-- Node28&#45;&gt;Node3 -->
<g id="edge39" class="edge">
<title>Node28&#45;&gt;Node3</title>
<path fill="none" stroke="midnightblue" d="M263.76,-342.88C273.58,-340.23 283.79,-336.95 293,-333 318.63,-322.01 345.43,-304.5 363.35,-291.78"/>
<polygon fill="midnightblue" stroke="midnightblue" points="365.8,-294.33 371.86,-285.63 361.7,-288.66 365.8,-294.33"/>
</g>
<!-- Node28&#45;&gt;Node4 -->
<g id="edge40" class="edge">
<title>Node28&#45;&gt;Node4</title>
<path fill="none" stroke="midnightblue" d="M231.37,-361.57C259.3,-384.08 329.44,-440.62 364.25,-468.68"/>
<polygon fill="midnightblue" stroke="midnightblue" points="362.31,-471.61 372.3,-475.16 366.71,-466.16 362.31,-471.61"/>
</g>
<!-- Node28&#45;&gt;Node27 -->
<g id="edge41" class="edge">
<title>Node28&#45;&gt;Node27</title>
<path fill="none" stroke="midnightblue" d="M263.72,-352C289.28,-352 321.13,-352 345.71,-352"/>
<polygon fill="midnightblue" stroke="midnightblue" points="345.76,-355.5 355.76,-352 345.76,-348.5 345.76,-355.5"/>
</g>
</g>
</svg>
