<?xml version="1.0" encoding="UTF-8" standalone="no"?>
<!DOCTYPE svg PUBLIC "-//W3C//DTD SVG 1.1//EN"
 "http://www.w3.org/Graphics/SVG/1.1/DTD/svg11.dtd">
<!-- Generated by graphviz version 2.43.0 (0)
 -->
<!-- Title: binary_iw2i Pages: 1 -->
<svg width="368pt" height="28pt"
 viewBox="0.00 0.00 368.00 28.00" xmlns="http://www.w3.org/2000/svg" xmlns:xlink="http://www.w3.org/1999/xlink">
<g id="graph0" class="graph" transform="scale(1 1) rotate(0) translate(4 24)">
<title>binary_iw2i</title>
<polygon fill="white" stroke="transparent" points="-4,4 -4,-24 364,-24 364,4 -4,4"/>
<!-- Node1 -->
<g id="node1" class="node">
<title>Node1</title>
<g id="a_node1"><a xlink:title="Decode the binary bits of a bit window to an integer value.">
<polygon fill="#bfbfbf" stroke="black" points="287,-0.5 287,-19.5 360,-19.5 360,-0.5 287,-0.5"/>
<text text-anchor="middle" x="323.5" y="-7.5" font-family="Helvetica,sans-Serif" font-size="10.00">binary_iw2i</text>
</a>
</g>
</g>
<!-- Node2 -->
<g id="node2" class="node">
<title>Node2</title>
<g id="a_node2"><a xlink:href="group__parts__3d__enclosure__project__box__rectangle.html#ga6a5d093d732e65556c46252220f2c4b6" target="_top" xlink:title="A rectangular box maker for project boxes, enclosures and housings.">
<polygon fill="white" stroke="black" points="126,-0.5 126,-19.5 251,-19.5 251,-0.5 126,-0.5"/>
<text text-anchor="middle" x="188.5" y="-7.5" font-family="Helvetica,sans-Serif" font-size="10.00">project_box_rectangle</text>
</a>
</g>
</g>
<!-- Node1&#45;&gt;Node2 -->
<g id="edge1" class="edge">
<title>Node1&#45;&gt;Node2</title>
<path fill="none" stroke="midnightblue" d="M276.72,-10C268.48,-10 259.77,-10 251.17,-10"/>
<polygon fill="midnightblue" stroke="midnightblue" points="276.86,-13.5 286.86,-10 276.86,-6.5 276.86,-13.5"/>
</g>
<!-- Node3 -->
<g id="node3" class="node">
<title>Node3</title>
<g id="a_node3"><a xlink:href="group__parts__3d__enclosure__power__strip.html#ga191779dedf39e4fd769a8dc96b0f8c9e" target="_top" xlink:title="A power strip generator for single gang electrical receptacles.">
<polygon fill="white" stroke="black" points="0,-0.5 0,-19.5 90,-19.5 90,-0.5 0,-0.5"/>
<text text-anchor="middle" x="45" y="-7.5" font-family="Helvetica,sans-Serif" font-size="10.00">power_strip_sg</text>
</a>
</g>
</g>
<!-- Node2&#45;&gt;Node3 -->
<g id="edge2" class="edge">
<title>Node2&#45;&gt;Node3</title>
<path fill="none" stroke="midnightblue" d="M115.61,-10C106.88,-10 98.17,-10 90.01,-10"/>
<polygon fill="midnightblue" stroke="midnightblue" points="115.85,-13.5 125.85,-10 115.85,-6.5 115.85,-13.5"/>
</g>
</g>
</svg>
