<?xml version="1.0" encoding="UTF-8" standalone="no"?>
<!DOCTYPE svg PUBLIC "-//W3C//DTD SVG 1.1//EN"
 "http://www.w3.org/Graphics/SVG/1.1/DTD/svg11.dtd">
<!-- Generated by graphviz version 2.43.0 (0)
 -->
<!-- Title: radial_ball Pages: 1 -->
<svg width="372pt" height="29pt"
 viewBox="0.00 0.00 372.00 28.50" xmlns="http://www.w3.org/2000/svg" xmlns:xlink="http://www.w3.org/1999/xlink">
<g id="graph0" class="graph" transform="scale(1 1) rotate(0) translate(4 24.5)">
<title>radial_ball</title>
<polygon fill="white" stroke="transparent" points="-4,4 -4,-24.5 368,-24.5 368,4 -4,4"/>
<!-- Node2 -->
<g id="node1" class="node">
<title>Node2</title>
<g id="a_node1"><a xlink:href="group__database__component__motion__Bearing.html" target="_top" xlink:title=" ">
<polygon fill="white" stroke="black" points="54,-19 0,-19 0,0 54,0 54,-19"/>
<text text-anchor="middle" x="27" y="-7" font-family="Helvetica,sans-Serif" font-size="10.00">Bearing</text>
</a>
</g>
</g>
<!-- Node1 -->
<g id="node2" class="node">
<title>Node1</title>
<g id="a_node2"><a xlink:title="[bearing] Radial ball bearing; radial_ball; rbb.">
<polygon fill="#bfbfbf" stroke="black" points="159,-19 91,-19 91,0 159,0 159,-19"/>
<text text-anchor="middle" x="125" y="-7" font-family="Helvetica,sans-Serif" font-size="10.00">radial_ball</text>
</a>
</g>
</g>
<!-- Node2&#45;&gt;Node1 -->
<g id="edge1" class="edge">
<title>Node2&#45;&gt;Node1</title>
<path fill="none" stroke="black" d="M64.48,-9.5C73.18,-9.5 82.4,-9.5 90.93,-9.5"/>
<polygon fill="black" stroke="black" points="64.23,-6 54.23,-9.5 64.23,-13 64.23,-6"/>
</g>
<!-- Node3 -->
<g id="node3" class="node">
<title>Node3</title>
<g id="a_node3"><a xlink:href="group__database__component__motion.html" target="_top" xlink:title="Mechanical motion design component specifications.">
<polygon fill="white" stroke="black" points="364,-19 314,-19 314,0 364,0 364,-19"/>
<text text-anchor="middle" x="339" y="-7" font-family="Helvetica,sans-Serif" font-size="10.00">Motion</text>
</a>
</g>
</g>
<!-- Node1&#45;&gt;Node3 -->
<g id="edge2" class="edge">
<title>Node1&#45;&gt;Node3</title>
<path fill="none" stroke="darkgreen" stroke-dasharray="5,2" d="M159.12,-9.5C202.1,-9.5 276.04,-9.5 313.99,-9.5"/>
<text text-anchor="middle" x="236.5" y="-12.5" font-family="Helvetica,sans-Serif" font-size="10.00">bearing_radial_ball.scad</text>
</g>
</g>
</svg>
