<?xml version="1.0" encoding="UTF-8" standalone="no"?>
<!DOCTYPE svg PUBLIC "-//W3C//DTD SVG 1.1//EN"
 "http://www.w3.org/Graphics/SVG/1.1/DTD/svg11.dtd">
<!-- Generated by graphviz version 2.43.0 (0)
 -->
<!-- Title: nema_stepper Pages: 1 -->
<svg width="392pt" height="29pt"
 viewBox="0.00 0.00 392.00 28.50" xmlns="http://www.w3.org/2000/svg" xmlns:xlink="http://www.w3.org/1999/xlink">
<g id="graph0" class="graph" transform="scale(1 1) rotate(0) translate(4 24.5)">
<title>nema_stepper</title>
<polygon fill="white" stroke="transparent" points="-4,4 -4,-24.5 388,-24.5 388,4 -4,4"/>
<!-- Node2 -->
<g id="node1" class="node">
<title>Node2</title>
<g id="a_node1"><a xlink:href="group__database__component__motion__Motor.html" target="_top" xlink:title=" ">
<polygon fill="white" stroke="black" points="45,-19 0,-19 0,0 45,0 45,-19"/>
<text text-anchor="middle" x="22.5" y="-7" font-family="Helvetica,sans-Serif" font-size="10.00">Motor</text>
</a>
</g>
</g>
<!-- Node1 -->
<g id="node3" class="node">
<title>Node1</title>
<g id="a_node3"><a xlink:title="[motor] Nema stepper motor; nema_stepper; stepper motor.">
<polygon fill="#bfbfbf" stroke="black" points="168,-19 82,-19 82,0 168,0 168,-19"/>
<text text-anchor="middle" x="125" y="-7" font-family="Helvetica,sans-Serif" font-size="10.00">nema_stepper</text>
</a>
</g>
</g>
<!-- Node2&#45;&gt;Node1 -->
<g id="edge1" class="edge">
<title>Node2&#45;&gt;Node1</title>
<path fill="none" stroke="black" d="M55.47,-9.5C63.89,-9.5 73.11,-9.5 81.98,-9.5"/>
<polygon fill="black" stroke="black" points="55.31,-6 45.31,-9.5 55.31,-13 55.31,-6"/>
</g>
<!-- Node3 -->
<g id="node2" class="node">
<title>Node3</title>
<g id="a_node2"><a xlink:href="group__database__component__motion.html" target="_top" xlink:title="Mechanical motion design component specifications.">
<polygon fill="white" stroke="black" points="384,-19 334,-19 334,0 384,0 384,-19"/>
<text text-anchor="middle" x="359" y="-7" font-family="Helvetica,sans-Serif" font-size="10.00">Motion</text>
</a>
</g>
</g>
<!-- Node1&#45;&gt;Node3 -->
<g id="edge2" class="edge">
<title>Node1&#45;&gt;Node3</title>
<path fill="none" stroke="darkgreen" stroke-dasharray="5,2" d="M168.01,-9.5C216.46,-9.5 294.45,-9.5 333.73,-9.5"/>
<text text-anchor="middle" x="251" y="-12.5" font-family="Helvetica,sans-Serif" font-size="10.00">motor_nema_stepper.scad</text>
</g>
</g>
</svg>
