<?xml version="1.0" encoding="UTF-8" standalone="no"?>
<!DOCTYPE svg PUBLIC "-//W3C//DTD SVG 1.1//EN"
 "http://www.w3.org/Graphics/SVG/1.1/DTD/svg11.dtd">
<!-- Generated by graphviz version 2.43.0 (0)
 -->
<!-- Title: Nuts Pages: 1 -->
<svg width="237pt" height="249pt"
 viewBox="0.00 0.00 237.00 249.00" xmlns="http://www.w3.org/2000/svg" xmlns:xlink="http://www.w3.org/1999/xlink">
<g id="graph0" class="graph" transform="scale(1 1) rotate(0) translate(4 245)">
<title>Nuts</title>
<polygon fill="white" stroke="transparent" points="-4,4 -4,-245 233,-245 233,4 -4,4"/>
<!-- Node3 -->
<g id="node1" class="node">
<title>Node3</title>
<g id="a_node1"><a xlink:href="group__database__component__fastener__din__982__hp.html" target="_top" xlink:title="[metric/nuts] Hexagon nylon insert stop nuts, heavy pattern; DIN 982 hp; ISO 7040.">
<polygon fill="white" stroke="black" points="229,-241 158,-241 158,-222 229,-222 229,-241"/>
<text text-anchor="middle" x="193.5" y="-229" font-family="Helvetica,sans-Serif" font-size="10.00">DIN 982 hp</text>
</a>
</g>
</g>
<!-- Node4 -->
<g id="node2" class="node">
<title>Node4</title>
<g id="a_node2"><a xlink:href="group__database__component__fastener__din__982__rp.html" target="_top" xlink:title="[metric/nuts] Hexagon nylon insert stop nuts, regular pattern; DIN 982 rp; ISO 7040.">
<polygon fill="white" stroke="black" points="227.5,-204 159.5,-204 159.5,-185 227.5,-185 227.5,-204"/>
<text text-anchor="middle" x="193.5" y="-192" font-family="Helvetica,sans-Serif" font-size="10.00">DIN 982 rp</text>
</a>
</g>
</g>
<!-- Node9 -->
<g id="node3" class="node">
<title>Node9</title>
<g id="a_node3"><a xlink:href="group__database__component__fastener__iso__4161.html" target="_top" xlink:title="[metric/nuts] Hexagon flange nut, style 1; ISO 4161.">
<polygon fill="white" stroke="black" points="223.5,-167 163.5,-167 163.5,-148 223.5,-148 223.5,-167"/>
<text text-anchor="middle" x="193.5" y="-155" font-family="Helvetica,sans-Serif" font-size="10.00">ISO 4161</text>
</a>
</g>
</g>
<!-- Node5 -->
<g id="node4" class="node">
<title>Node5</title>
<g id="a_node4"><a xlink:href="group__database__component__fastener__din__985.html" target="_top" xlink:title="[metric/nuts] Hexagon nylon insert stop nuts, regular pattern; DIN 985; ISO 10511.">
<polygon fill="white" stroke="black" points="221.5,-130 165.5,-130 165.5,-111 221.5,-111 221.5,-130"/>
<text text-anchor="middle" x="193.5" y="-118" font-family="Helvetica,sans-Serif" font-size="10.00">DIN 985</text>
</a>
</g>
</g>
<!-- Node1 -->
<g id="node5" class="node">
<title>Node1</title>
<g id="a_node5"><a xlink:title=" ">
<polygon fill="#bfbfbf" stroke="black" points="122,-130 83,-130 83,-111 122,-111 122,-130"/>
<text text-anchor="middle" x="102.5" y="-118" font-family="Helvetica,sans-Serif" font-size="10.00">Nuts</text>
</a>
</g>
</g>
<!-- Node1&#45;&gt;Node3 -->
<g id="edge2" class="edge">
<title>Node1&#45;&gt;Node3</title>
<path fill="none" stroke="black" d="M110.89,-139.57C119.59,-159.98 135.72,-192.29 158,-213.5 161.43,-216.76 165.56,-219.58 169.75,-221.97"/>
<polygon fill="black" stroke="black" points="114.04,-138.04 107.02,-130.1 107.56,-140.68 114.04,-138.04"/>
</g>
<!-- Node1&#45;&gt;Node4 -->
<g id="edge3" class="edge">
<title>Node1&#45;&gt;Node4</title>
<path fill="none" stroke="black" d="M117.9,-138C128.23,-149.83 142.94,-165.29 158,-176.5 162.12,-179.57 166.83,-182.4 171.42,-184.86"/>
<polygon fill="black" stroke="black" points="120.35,-135.48 111.21,-130.13 115.02,-140.01 120.35,-135.48"/>
</g>
<!-- Node1&#45;&gt;Node9 -->
<g id="edge8" class="edge">
<title>Node1&#45;&gt;Node9</title>
<path fill="none" stroke="black" d="M131.67,-132.21C143.88,-137.29 157.99,-143.15 169.54,-147.96"/>
<polygon fill="black" stroke="black" points="132.95,-128.95 122.37,-128.35 130.26,-135.42 132.95,-128.95"/>
</g>
<!-- Node1&#45;&gt;Node5 -->
<g id="edge4" class="edge">
<title>Node1&#45;&gt;Node5</title>
<path fill="none" stroke="black" d="M132.7,-120.5C143.16,-120.5 154.91,-120.5 165.21,-120.5"/>
<polygon fill="black" stroke="black" points="132.37,-117 122.37,-120.5 132.37,-124 132.37,-117"/>
</g>
<!-- Node6 -->
<g id="node6" class="node">
<title>Node6</title>
<g id="a_node6"><a xlink:href="group__database__component__fastener__iso__4032.html" target="_top" xlink:title="[metric/nuts] Hexagon nuts style 1; ISO 4032; DIN EN ISO.">
<polygon fill="white" stroke="black" points="223.5,-93 163.5,-93 163.5,-74 223.5,-74 223.5,-93"/>
<text text-anchor="middle" x="193.5" y="-81" font-family="Helvetica,sans-Serif" font-size="10.00">ISO 4032</text>
</a>
</g>
</g>
<!-- Node1&#45;&gt;Node6 -->
<g id="edge5" class="edge">
<title>Node1&#45;&gt;Node6</title>
<path fill="none" stroke="black" d="M131.67,-108.79C143.88,-103.71 157.99,-97.85 169.54,-93.04"/>
<polygon fill="black" stroke="black" points="130.26,-105.58 122.37,-112.65 132.95,-112.05 130.26,-105.58"/>
</g>
<!-- Node7 -->
<g id="node7" class="node">
<title>Node7</title>
<g id="a_node7"><a xlink:href="group__database__component__fastener__iso__4033.html" target="_top" xlink:title="[metric/nuts] Hexagon nuts style 2; ISO 4033; DIN EN ISO.">
<polygon fill="white" stroke="black" points="223.5,-56 163.5,-56 163.5,-37 223.5,-37 223.5,-56"/>
<text text-anchor="middle" x="193.5" y="-44" font-family="Helvetica,sans-Serif" font-size="10.00">ISO 4033</text>
</a>
</g>
</g>
<!-- Node1&#45;&gt;Node7 -->
<g id="edge6" class="edge">
<title>Node1&#45;&gt;Node7</title>
<path fill="none" stroke="black" d="M117.9,-103C128.23,-91.17 142.94,-75.71 158,-64.5 162.12,-61.43 166.83,-58.6 171.42,-56.14"/>
<polygon fill="black" stroke="black" points="115.02,-100.99 111.21,-110.87 120.35,-105.52 115.02,-100.99"/>
</g>
<!-- Node8 -->
<g id="node8" class="node">
<title>Node8</title>
<g id="a_node8"><a xlink:href="group__database__component__fastener__iso__4035.html" target="_top" xlink:title="[metric/nuts] Hexagon jam nut; ISO 4035; DIN 439 B, CSN 021403, UNI 5589, EU 24035.">
<polygon fill="white" stroke="black" points="223.5,-19 163.5,-19 163.5,0 223.5,0 223.5,-19"/>
<text text-anchor="middle" x="193.5" y="-7" font-family="Helvetica,sans-Serif" font-size="10.00">ISO 4035</text>
</a>
</g>
</g>
<!-- Node1&#45;&gt;Node8 -->
<g id="edge7" class="edge">
<title>Node1&#45;&gt;Node8</title>
<path fill="none" stroke="black" d="M110.89,-101.43C119.59,-81.02 135.72,-48.71 158,-27.5 161.43,-24.24 165.56,-21.42 169.75,-19.03"/>
<polygon fill="black" stroke="black" points="107.56,-100.32 107.02,-110.9 114.04,-102.96 107.56,-100.32"/>
</g>
<!-- Node2 -->
<g id="node9" class="node">
<title>Node2</title>
<g id="a_node9"><a xlink:href="group__database__component__fastener__Metric.html" target="_top" xlink:title=" ">
<polygon fill="white" stroke="black" points="47,-130 0,-130 0,-111 47,-111 47,-130"/>
<text text-anchor="middle" x="23.5" y="-118" font-family="Helvetica,sans-Serif" font-size="10.00">Metric</text>
</a>
</g>
</g>
<!-- Node2&#45;&gt;Node1 -->
<g id="edge1" class="edge">
<title>Node2&#45;&gt;Node1</title>
<path fill="none" stroke="black" d="M57.47,-120.5C66.16,-120.5 75.23,-120.5 82.86,-120.5"/>
<polygon fill="black" stroke="black" points="57.19,-117 47.19,-120.5 57.19,-124 57.19,-117"/>
</g>
</g>
</svg>
