<?xml version="1.0" encoding="UTF-8" standalone="no"?>
<!DOCTYPE svg PUBLIC "-//W3C//DTD SVG 1.1//EN"
 "http://www.w3.org/Graphics/SVG/1.1/DTD/svg11.dtd">
<!-- Generated by graphviz version 2.43.0 (0)
 -->
<!-- Title: Catch latch Pages: 1 -->
<svg width="255pt" height="35pt"
 viewBox="0.00 0.00 255.00 35.37" xmlns="http://www.w3.org/2000/svg" xmlns:xlink="http://www.w3.org/1999/xlink">
<g id="graph0" class="graph" transform="scale(1 1) rotate(0) translate(4 31.37)">
<title>Catch latch</title>
<polygon fill="white" stroke="transparent" points="-4,4 -4,-31.37 251,-31.37 251,4 -4,4"/>
<!-- Node2 -->
<g id="node1" class="node">
<title>Node2</title>
<g id="a_node1"><a xlink:href="group__parts__3d__fastener.html" target="_top" xlink:title="Fasteners, connectors, joiners, latches, and hinges.">
<polygon fill="white" stroke="black" points="58,-27.37 0,-27.37 0,-8.37 58,-8.37 58,-27.37"/>
<text text-anchor="middle" x="29" y="-15.37" font-family="Helvetica,sans-Serif" font-size="10.00">Fastener</text>
</a>
</g>
</g>
<!-- Node1 -->
<g id="node2" class="node">
<title>Node1</title>
<g id="a_node2"><a xlink:title="Catch latch generator.">
<polygon fill="#bfbfbf" stroke="black" points="247,-27.37 176,-27.37 176,-8.37 247,-8.37 247,-27.37"/>
<text text-anchor="middle" x="211.5" y="-15.37" font-family="Helvetica,sans-Serif" font-size="10.00">Catch latch</text>
</a>
</g>
</g>
<!-- Node2&#45;&gt;Node1 -->
<g id="edge1" class="edge">
<title>Node2&#45;&gt;Node1</title>
<path fill="none" stroke="black" d="M68.45,-17.87C100.23,-17.87 144.96,-17.87 175.7,-17.87"/>
<polygon fill="black" stroke="black" points="68.2,-14.37 58.2,-17.87 68.2,-21.37 68.2,-14.37"/>
</g>
<!-- Node1&#45;&gt;Node2 -->
<g id="edge2" class="edge">
<title>Node1&#45;&gt;Node2</title>
<path fill="none" stroke="darkgreen" stroke-dasharray="5,2" d="M180.23,-8.36C173.02,-6.49 165.3,-4.82 158,-3.87 121.86,0.87 112.05,1.5 76,-3.87 69.56,-4.82 62.77,-6.5 56.45,-8.36"/>
<text text-anchor="middle" x="117" y="-6.87" font-family="Helvetica,sans-Serif" font-size="10.00">catch_latch.scad</text>
</g>
</g>
</svg>
