<?xml version="1.0" encoding="UTF-8" standalone="no"?>
<!DOCTYPE svg PUBLIC "-//W3C//DTD SVG 1.1//EN"
 "http://www.w3.org/Graphics/SVG/1.1/DTD/svg11.dtd">
<!-- Generated by graphviz version 2.43.0 (0)
 -->
<!-- Title: map_dump Pages: 1 -->
<svg width="207pt" height="256pt"
 viewBox="0.00 0.00 207.00 256.00" xmlns="http://www.w3.org/2000/svg" xmlns:xlink="http://www.w3.org/1999/xlink">
<g id="graph0" class="graph" transform="scale(1 1) rotate(0) translate(4 252)">
<title>map_dump</title>
<polygon fill="white" stroke="transparent" points="-4,4 -4,-252 203,-252 203,4 -4,4"/>
<!-- Node1 -->
<g id="node1" class="node">
<title>Node1</title>
<g id="a_node1"><a xlink:title="Dump each map entry to the console.">
<polygon fill="#bfbfbf" stroke="black" points="0,-114.5 0,-133.5 71,-133.5 71,-114.5 0,-114.5"/>
<text text-anchor="middle" x="35.5" y="-121.5" font-family="Helvetica,sans-Serif" font-size="10.00">map_dump</text>
</a>
</g>
</g>
<!-- Node2 -->
<g id="node2" class="node">
<title>Node2</title>
<g id="a_node2"><a xlink:href="group__datatypes__list__operate.html#gab05ff3da4d68d30922daa197f505580d" target="_top" xlink:title="Create a list of constant or incrementing elements.">
<polygon fill="white" stroke="black" points="129,-228.5 129,-247.5 177,-247.5 177,-228.5 129,-228.5"/>
<text text-anchor="middle" x="153" y="-235.5" font-family="Helvetica,sans-Serif" font-size="10.00">consts</text>
</a>
</g>
</g>
<!-- Node1&#45;&gt;Node2 -->
<g id="edge1" class="edge">
<title>Node1&#45;&gt;Node2</title>
<path fill="none" stroke="midnightblue" d="M41.39,-133.69C51.34,-152.52 75.67,-194.38 107,-219 110.8,-221.99 115.14,-224.58 119.59,-226.82"/>
<polygon fill="midnightblue" stroke="midnightblue" points="118.18,-230.02 128.74,-230.91 121.04,-223.63 118.18,-230.02"/>
</g>
<!-- Node3 -->
<g id="node3" class="node">
<title>Node3</title>
<g id="a_node3"><a xlink:href="group__common__console.html#ga2565219688decee9515f527f4553044a" target="_top" xlink:title="Output message to console.">
<polygon fill="white" stroke="black" points="123,-190.5 123,-209.5 183,-209.5 183,-190.5 123,-190.5"/>
<text text-anchor="middle" x="153" y="-197.5" font-family="Helvetica,sans-Serif" font-size="10.00">log_echo</text>
</a>
</g>
</g>
<!-- Node1&#45;&gt;Node3 -->
<g id="edge2" class="edge">
<title>Node1&#45;&gt;Node3</title>
<path fill="none" stroke="midnightblue" d="M46.79,-133.89C59.93,-146.14 83.78,-167.09 107,-181 110,-182.8 113.2,-184.51 116.46,-186.12"/>
<polygon fill="midnightblue" stroke="midnightblue" points="115.14,-189.36 125.69,-190.35 118.06,-183 115.14,-189.36"/>
</g>
<!-- Node4 -->
<g id="node4" class="node">
<title>Node4</title>
<g id="a_node4"><a xlink:href="group__datatypes__map.html#ga7a66b27f62b89dfcd3c00087846de7c2" target="_top" xlink:title="Return the index of a map key.">
<polygon fill="white" stroke="black" points="107,-152.5 107,-171.5 199,-171.5 199,-152.5 107,-152.5"/>
<text text-anchor="middle" x="153" y="-159.5" font-family="Helvetica,sans-Serif" font-size="10.00">map_get_index</text>
</a>
</g>
</g>
<!-- Node1&#45;&gt;Node4 -->
<g id="edge3" class="edge">
<title>Node1&#45;&gt;Node4</title>
<path fill="none" stroke="midnightblue" d="M65.65,-133.59C80.01,-138.31 97.53,-144.08 113.03,-149.18"/>
<polygon fill="midnightblue" stroke="midnightblue" points="112.27,-152.61 122.86,-152.41 114.46,-145.96 112.27,-152.61"/>
</g>
<!-- Node5 -->
<g id="node5" class="node">
<title>Node5</title>
<g id="a_node5"><a xlink:href="group__datatypes__map.html#ga26256126d8c69481f34865669ef43896" target="_top" xlink:title="Get a list of all map keys.">
<polygon fill="white" stroke="black" points="109.5,-114.5 109.5,-133.5 196.5,-133.5 196.5,-114.5 109.5,-114.5"/>
<text text-anchor="middle" x="153" y="-121.5" font-family="Helvetica,sans-Serif" font-size="10.00">map_get_keys</text>
</a>
</g>
</g>
<!-- Node1&#45;&gt;Node5 -->
<g id="edge4" class="edge">
<title>Node1&#45;&gt;Node5</title>
<path fill="none" stroke="midnightblue" d="M71.15,-124C79.94,-124 89.57,-124 99.04,-124"/>
<polygon fill="midnightblue" stroke="midnightblue" points="99.19,-127.5 109.19,-124 99.19,-120.5 99.19,-127.5"/>
</g>
<!-- Node6 -->
<g id="node6" class="node">
<title>Node6</title>
<g id="a_node6"><a xlink:href="group__datatypes__map.html#gaca8f75d5b124f26ea647d5ba147f7067" target="_top" xlink:title="Get the number of map entries.">
<polygon fill="white" stroke="black" points="111,-76.5 111,-95.5 195,-95.5 195,-76.5 111,-76.5"/>
<text text-anchor="middle" x="153" y="-83.5" font-family="Helvetica,sans-Serif" font-size="10.00">map_get_size</text>
</a>
</g>
</g>
<!-- Node1&#45;&gt;Node6 -->
<g id="edge5" class="edge">
<title>Node1&#45;&gt;Node6</title>
<path fill="none" stroke="midnightblue" d="M65.65,-114.41C80.01,-109.69 97.53,-103.92 113.03,-98.82"/>
<polygon fill="midnightblue" stroke="midnightblue" points="114.46,-102.04 122.86,-95.59 112.27,-95.39 114.46,-102.04"/>
</g>
<!-- Node7 -->
<g id="node7" class="node">
<title>Node7</title>
<g id="a_node7"><a xlink:href="group__datatypes__map.html#ga18d78aec6f24969b9ad51595533f78b2" target="_top" xlink:title="Get the map value associated with a key.">
<polygon fill="white" stroke="black" points="107,-38.5 107,-57.5 199,-57.5 199,-38.5 107,-38.5"/>
<text text-anchor="middle" x="153" y="-45.5" font-family="Helvetica,sans-Serif" font-size="10.00">map_get_value</text>
</a>
</g>
</g>
<!-- Node1&#45;&gt;Node7 -->
<g id="edge6" class="edge">
<title>Node1&#45;&gt;Node7</title>
<path fill="none" stroke="midnightblue" d="M46.79,-114.11C59.93,-101.86 83.78,-80.91 107,-67 110,-65.2 113.2,-63.49 116.46,-61.88"/>
<polygon fill="midnightblue" stroke="midnightblue" points="118.06,-65 125.69,-57.65 115.14,-58.64 118.06,-65"/>
</g>
<!-- Node8 -->
<g id="node8" class="node">
<title>Node8</title>
<g id="a_node8"><a xlink:href="group__datatypes__list__operate.html#ga9b27b6cbb7a25f477c049a63cf43691c" target="_top" xlink:title="Sort the elements of an iterable value using quick sort.">
<polygon fill="white" stroke="black" points="129.5,-0.5 129.5,-19.5 176.5,-19.5 176.5,-0.5 129.5,-0.5"/>
<text text-anchor="middle" x="153" y="-7.5" font-family="Helvetica,sans-Serif" font-size="10.00">sort_q</text>
</a>
</g>
</g>
<!-- Node1&#45;&gt;Node8 -->
<g id="edge7" class="edge">
<title>Node1&#45;&gt;Node8</title>
<path fill="none" stroke="midnightblue" d="M41.39,-114.31C51.34,-95.48 75.67,-53.62 107,-29 110.88,-25.95 115.32,-23.31 119.87,-21.04"/>
<polygon fill="midnightblue" stroke="midnightblue" points="121.47,-24.16 129.2,-16.91 118.64,-17.76 121.47,-24.16"/>
</g>
</g>
</svg>
