<?xml version="1.0" encoding="UTF-8" standalone="no"?>
<!DOCTYPE svg PUBLIC "-//W3C//DTD SVG 1.1//EN"
 "http://www.w3.org/Graphics/SVG/1.1/DTD/svg11.dtd">
<!-- Generated by graphviz version 2.43.0 (0)
 -->
<!-- Title: Angle Units Pages: 1 -->
<svg width="212pt" height="34pt"
 viewBox="0.00 0.00 212.00 34.32" xmlns="http://www.w3.org/2000/svg" xmlns:xlink="http://www.w3.org/1999/xlink">
<g id="graph0" class="graph" transform="scale(1 1) rotate(0) translate(4 30.32)">
<title>Angle Units</title>
<polygon fill="white" stroke="transparent" points="-4,4 -4,-30.32 208,-30.32 208,4 -4,4"/>
<!-- Node2 -->
<g id="node1" class="node">
<title>Node2</title>
<g id="a_node1"><a xlink:href="group__units.html" target="_top" xlink:title="Unit definitions and unit conversions.">
<polygon fill="white" stroke="black" points="42,-26.32 0,-26.32 0,-7.32 42,-7.32 42,-26.32"/>
<text text-anchor="middle" x="21" y="-14.32" font-family="Helvetica,sans-Serif" font-size="10.00">Units</text>
</a>
</g>
</g>
<!-- Node1 -->
<g id="node2" class="node">
<title>Node1</title>
<g id="a_node2"><a xlink:title="Angle units and conversions.">
<polygon fill="#bfbfbf" stroke="black" points="204,-26.32 131,-26.32 131,-7.32 204,-7.32 204,-26.32"/>
<text text-anchor="middle" x="167.5" y="-14.32" font-family="Helvetica,sans-Serif" font-size="10.00">Angle Units</text>
</a>
</g>
</g>
<!-- Node2&#45;&gt;Node1 -->
<g id="edge1" class="edge">
<title>Node2&#45;&gt;Node1</title>
<path fill="none" stroke="black" d="M52.25,-16.82C75.12,-16.82 106.6,-16.82 130.73,-16.82"/>
<polygon fill="black" stroke="black" points="52.09,-13.32 42.09,-16.82 52.09,-20.32 52.09,-13.32"/>
</g>
<!-- Node1&#45;&gt;Node2 -->
<g id="edge2" class="edge">
<title>Node1&#45;&gt;Node2</title>
<path fill="none" stroke="darkgreen" stroke-dasharray="5,2" d="M135.65,-7.31C128.3,-5.45 120.43,-3.78 113,-2.82 89.64,0.19 83.19,1.32 60,-2.82 54.05,-3.88 47.81,-5.81 42.14,-7.9"/>
<text text-anchor="middle" x="86.5" y="-5.82" font-family="Helvetica,sans-Serif" font-size="10.00">angle.scad</text>
</g>
</g>
</svg>
