<?xml version="1.0" encoding="UTF-8" standalone="no"?>
<!DOCTYPE svg PUBLIC "-//W3C//DTD SVG 1.1//EN"
 "http://www.w3.org/Graphics/SVG/1.1/DTD/svg11.dtd">
<!-- Generated by graphviz version 2.43.0 (0)
 -->
<!-- Title: draft_layers_any_active Pages: 1 -->
<svg width="542pt" height="408pt"
 viewBox="0.00 0.00 542.00 408.00" xmlns="http://www.w3.org/2000/svg" xmlns:xlink="http://www.w3.org/1999/xlink">
<g id="graph0" class="graph" transform="scale(1 1) rotate(0) translate(4 404)">
<title>draft_layers_any_active</title>
<polygon fill="white" stroke="transparent" points="-4,4 -4,-404 538,-404 538,4 -4,4"/>
<!-- Node1 -->
<g id="node1" class="node">
<title>Node1</title>
<g id="a_node1"><a xlink:title="Check if any identified layers are active.">
<polygon fill="#bfbfbf" stroke="black" points="401,-190.5 401,-209.5 534,-209.5 534,-190.5 401,-190.5"/>
<text text-anchor="middle" x="467.5" y="-197.5" font-family="Helvetica,sans-Serif" font-size="10.00">draft_layers_any_active</text>
</a>
</g>
</g>
<!-- Node2 -->
<g id="node2" class="node">
<title>Node2</title>
<g id="a_node2"><a xlink:href="group__tools__drafting__operation.html#ga4e20419a6d4623f21c05179fc8b6df95" target="_top" xlink:title="Construct drafting sheet axes.">
<polygon fill="white" stroke="black" points="282,-380.5 282,-399.5 349,-399.5 349,-380.5 282,-380.5"/>
<text text-anchor="middle" x="315.5" y="-387.5" font-family="Helvetica,sans-Serif" font-size="10.00">draft_axes</text>
</a>
</g>
</g>
<!-- Node1&#45;&gt;Node2 -->
<g id="edge1" class="edge">
<title>Node1&#45;&gt;Node2</title>
<path fill="none" stroke="midnightblue" d="M459.07,-219.04C445.16,-252.6 412.24,-322.8 365,-366 358.48,-371.96 350.21,-376.78 342.36,-380.49"/>
<polygon fill="midnightblue" stroke="midnightblue" points="462.42,-220.1 462.92,-209.52 455.93,-217.48 462.42,-220.1"/>
</g>
<!-- Node3 -->
<g id="node3" class="node">
<title>Node3</title>
<g id="a_node3"><a xlink:href="group__tools__drafting__dimension.html#ga6b8e17d22ac4a95d25a90be8a74c0689" target="_top" xlink:title="Construct a angular dimension arc.">
<polygon fill="white" stroke="black" points="2,-318.5 2,-337.5 97,-337.5 97,-318.5 2,-318.5"/>
<text text-anchor="middle" x="49.5" y="-325.5" font-family="Helvetica,sans-Serif" font-size="10.00">draft_dim_angle</text>
</a>
</g>
</g>
<!-- Node1&#45;&gt;Node3 -->
<g id="edge2" class="edge">
<title>Node1&#45;&gt;Node3</title>
<path fill="none" stroke="midnightblue" d="M454.13,-218.12C437.1,-241.4 404.07,-280.97 365,-299 277.13,-339.56 160.93,-337.98 97.23,-333.08"/>
<polygon fill="midnightblue" stroke="midnightblue" points="457.11,-219.98 460.05,-209.8 451.4,-215.92 457.11,-219.98"/>
</g>
<!-- Node4 -->
<g id="node4" class="node">
<title>Node4</title>
<g id="a_node4"><a xlink:href="group__tools__drafting__dimension.html#ga4866c090b81b437e2f1f707d28ad8ec7" target="_top" xlink:title="Construct a center mark dimension cross.">
<polygon fill="white" stroke="black" points="266,-114.5 266,-133.5 365,-133.5 365,-114.5 266,-114.5"/>
<text text-anchor="middle" x="315.5" y="-121.5" font-family="Helvetica,sans-Serif" font-size="10.00">draft_dim_center</text>
</a>
</g>
</g>
<!-- Node1&#45;&gt;Node4 -->
<g id="edge3" class="edge">
<title>Node1&#45;&gt;Node4</title>
<path fill="none" stroke="midnightblue" d="M438.8,-185.68C418.42,-175.17 390.04,-160.61 365,-148 355.43,-143.18 344.77,-137.9 335.88,-133.51"/>
<polygon fill="midnightblue" stroke="midnightblue" points="437.34,-188.86 447.83,-190.34 440.55,-182.64 437.34,-188.86"/>
</g>
<!-- Node5 -->
<g id="node5" class="node">
<title>Node5</title>
<g id="a_node5"><a xlink:href="group__tools__drafting__dimension.html#ga5c4915c4c4464c5cdaefd501c2de261d" target="_top" xlink:title="Construct a dimension leader line at a point.">
<polygon fill="white" stroke="black" points="0,-261.5 0,-280.5 99,-280.5 99,-261.5 0,-261.5"/>
<text text-anchor="middle" x="49.5" y="-268.5" font-family="Helvetica,sans-Serif" font-size="10.00">draft_dim_leader</text>
</a>
</g>
</g>
<!-- Node1&#45;&gt;Node5 -->
<g id="edge4" class="edge">
<title>Node1&#45;&gt;Node5</title>
<path fill="none" stroke="midnightblue" d="M450.54,-216.98C432,-235.39 399.5,-263.8 365,-276 271.81,-308.95 153.18,-292.81 91.67,-280.52"/>
<polygon fill="midnightblue" stroke="midnightblue" points="453.11,-219.36 457.6,-209.77 448.1,-214.46 453.11,-219.36"/>
</g>
<!-- Node6 -->
<g id="node6" class="node">
<title>Node6</title>
<g id="a_node6"><a xlink:href="group__tools__drafting__dimension.html#ga27a35e94597435a74e22d76789e9be5e" target="_top" xlink:title="Construct a dimension line between two points.">
<polygon fill="white" stroke="black" points="6.5,-209.5 6.5,-228.5 92.5,-228.5 92.5,-209.5 6.5,-209.5"/>
<text text-anchor="middle" x="49.5" y="-216.5" font-family="Helvetica,sans-Serif" font-size="10.00">draft_dim_line</text>
</a>
</g>
</g>
<!-- Node1&#45;&gt;Node6 -->
<g id="edge5" class="edge">
<title>Node1&#45;&gt;Node6</title>
<path fill="none" stroke="midnightblue" d="M390.45,-203.47C302.97,-207.47 162.46,-213.89 92.67,-217.07"/>
<polygon fill="midnightblue" stroke="midnightblue" points="390.75,-206.96 400.58,-203.01 390.43,-199.97 390.75,-206.96"/>
</g>
<!-- Node7 -->
<g id="node7" class="node">
<title>Node7</title>
<g id="a_node7"><a xlink:href="group__tools__drafting__dimension.html#gaef1a8150a8ef7be88e086fb3dbab64a9" target="_top" xlink:title="Construct a radial dimension line.">
<polygon fill="white" stroke="black" points="0.5,-152.5 0.5,-171.5 98.5,-171.5 98.5,-152.5 0.5,-152.5"/>
<text text-anchor="middle" x="49.5" y="-159.5" font-family="Helvetica,sans-Serif" font-size="10.00">draft_dim_radius</text>
</a>
</g>
</g>
<!-- Node1&#45;&gt;Node7 -->
<g id="edge6" class="edge">
<title>Node1&#45;&gt;Node7</title>
<path fill="none" stroke="midnightblue" d="M390.47,-193.05C305.4,-185.28 170.18,-172.93 98.6,-166.39"/>
<polygon fill="midnightblue" stroke="midnightblue" points="390.31,-196.55 400.58,-193.98 390.94,-189.58 390.31,-196.55"/>
</g>
<!-- Node8 -->
<g id="node8" class="node">
<title>Node8</title>
<g id="a_node8"><a xlink:href="group__tools__drafting__operation.html#gaf50d5299d6618b9fcbaf87f665153586" target="_top" xlink:title="Assign one or more layers to child objects.">
<polygon fill="white" stroke="black" points="271,-76.5 271,-95.5 360,-95.5 360,-76.5 271,-76.5"/>
<text text-anchor="middle" x="315.5" y="-83.5" font-family="Helvetica,sans-Serif" font-size="10.00">draft_in_layers</text>
</a>
</g>
</g>
<!-- Node1&#45;&gt;Node8 -->
<g id="edge7" class="edge">
<title>Node1&#45;&gt;Node8</title>
<path fill="none" stroke="midnightblue" d="M451.75,-182.64C433.27,-161.81 399.8,-126.96 365,-105 359.19,-101.33 352.55,-98.17 346.09,-95.53"/>
<polygon fill="midnightblue" stroke="midnightblue" points="449.28,-185.14 458.49,-190.38 454.56,-180.54 449.28,-185.14"/>
</g>
<!-- Node9 -->
<g id="node9" class="node">
<title>Node9</title>
<g id="a_node9"><a xlink:href="group__tools__drafting__operation.html#gac1b780633ac5e2874a8a00177d98b305" target="_top" xlink:title="Construct a text note with optional heading and boarder.">
<polygon fill="white" stroke="black" points="149.5,-252.5 149.5,-271.5 215.5,-271.5 215.5,-252.5 149.5,-252.5"/>
<text text-anchor="middle" x="182.5" y="-259.5" font-family="Helvetica,sans-Serif" font-size="10.00">draft_note</text>
</a>
</g>
</g>
<!-- Node1&#45;&gt;Node9 -->
<g id="edge8" class="edge">
<title>Node1&#45;&gt;Node9</title>
<path fill="none" stroke="midnightblue" d="M446.08,-215.43C426.47,-229.25 395.41,-248.6 365,-257 314.26,-271.02 252.48,-268.88 215.66,-265.69"/>
<polygon fill="midnightblue" stroke="midnightblue" points="448.19,-218.22 454.25,-209.53 444.09,-212.55 448.19,-218.22"/>
</g>
<!-- Node10 -->
<g id="node10" class="node">
<title>Node10</title>
<g id="a_node10"><a xlink:href="group__tools__drafting__operation.html#ga49aac81a903cd453ea9cadc85e84e414" target="_top" xlink:title="Construct a drafting sheet ruler.">
<polygon fill="white" stroke="black" points="282,-38.5 282,-57.5 349,-57.5 349,-38.5 282,-38.5"/>
<text text-anchor="middle" x="315.5" y="-45.5" font-family="Helvetica,sans-Serif" font-size="10.00">draft_ruler</text>
</a>
</g>
</g>
<!-- Node1&#45;&gt;Node10 -->
<g id="edge13" class="edge">
<title>Node1&#45;&gt;Node10</title>
<path fill="none" stroke="midnightblue" d="M456.67,-181.29C440.88,-152.91 407.32,-98.92 365,-67 360.02,-63.24 354.2,-60.13 348.35,-57.59"/>
<polygon fill="midnightblue" stroke="midnightblue" points="453.65,-183.06 461.49,-190.18 459.8,-179.72 453.65,-183.06"/>
</g>
<!-- Node11 -->
<g id="node11" class="node">
<title>Node11</title>
<g id="a_node11"><a xlink:href="group__tools__drafting__operation.html#gaae4b7ed59444eb6f6c0ae47bd36e1e9b" target="_top" xlink:title="Construct a text table that is populated by rows and columns.">
<polygon fill="white" stroke="black" points="281,-228.5 281,-247.5 350,-247.5 350,-228.5 281,-228.5"/>
<text text-anchor="middle" x="315.5" y="-235.5" font-family="Helvetica,sans-Serif" font-size="10.00">draft_table</text>
</a>
</g>
</g>
<!-- Node1&#45;&gt;Node11 -->
<g id="edge14" class="edge">
<title>Node1&#45;&gt;Node11</title>
<path fill="none" stroke="midnightblue" d="M418.71,-212.11C396.43,-217.75 370.44,-224.34 350.24,-229.45"/>
<polygon fill="midnightblue" stroke="midnightblue" points="419.81,-215.44 428.65,-209.59 418.1,-208.65 419.81,-215.44"/>
</g>
<!-- Node12 -->
<g id="node12" class="node">
<title>Node12</title>
<g id="a_node12"><a xlink:href="group__tools__drafting__operation.html#gabd9d0d4e3819d3bdec5e3649c8ad2c79" target="_top" xlink:title="Construct a text table that is populated by predefined zones.">
<polygon fill="white" stroke="black" points="278.5,-0.5 278.5,-19.5 352.5,-19.5 352.5,-0.5 278.5,-0.5"/>
<text text-anchor="middle" x="315.5" y="-7.5" font-family="Helvetica,sans-Serif" font-size="10.00">draft_ztable</text>
</a>
</g>
</g>
<!-- Node1&#45;&gt;Node12 -->
<g id="edge16" class="edge">
<title>Node1&#45;&gt;Node12</title>
<path fill="none" stroke="midnightblue" d="M459.96,-180.9C447.09,-146.04 415.31,-71.74 365,-29 360.52,-25.19 355.19,-22.1 349.73,-19.59"/>
<polygon fill="midnightblue" stroke="midnightblue" points="456.68,-182.14 463.34,-190.38 463.27,-179.78 456.68,-182.14"/>
</g>
<!-- Node9&#45;&gt;Node3 -->
<g id="edge9" class="edge">
<title>Node9&#45;&gt;Node3</title>
<path fill="none" stroke="midnightblue" d="M153.36,-276.18C128.06,-288.92 91.6,-307.29 69.57,-318.39"/>
<polygon fill="midnightblue" stroke="midnightblue" points="155.1,-279.22 162.45,-271.6 151.95,-272.97 155.1,-279.22"/>
</g>
<!-- Node9&#45;&gt;Node5 -->
<g id="edge10" class="edge">
<title>Node9&#45;&gt;Node5</title>
<path fill="none" stroke="midnightblue" d="M139.48,-264.89C126.61,-265.77 112.34,-266.75 99.08,-267.66"/>
<polygon fill="midnightblue" stroke="midnightblue" points="139.72,-268.38 149.45,-264.2 139.24,-261.4 139.72,-268.38"/>
</g>
<!-- Node9&#45;&gt;Node6 -->
<g id="edge11" class="edge">
<title>Node9&#45;&gt;Node6</title>
<path fill="none" stroke="midnightblue" d="M142.85,-249.31C122.57,-242.66 98.13,-234.63 79.49,-228.52"/>
<polygon fill="midnightblue" stroke="midnightblue" points="141.83,-252.66 152.43,-252.46 144.02,-246.01 141.83,-252.66"/>
</g>
<!-- Node9&#45;&gt;Node7 -->
<g id="edge12" class="edge">
<title>Node9&#45;&gt;Node7</title>
<path fill="none" stroke="midnightblue" d="M160.8,-246.2C133.39,-225.27 85.87,-189 63.22,-171.71"/>
<polygon fill="midnightblue" stroke="midnightblue" points="158.87,-249.13 168.94,-252.41 163.11,-243.56 158.87,-249.13"/>
</g>
<!-- Node11&#45;&gt;Node9 -->
<g id="edge15" class="edge">
<title>Node11&#45;&gt;Node9</title>
<path fill="none" stroke="midnightblue" d="M270.79,-246.01C252.81,-249.3 232.35,-253.05 215.77,-256.09"/>
<polygon fill="midnightblue" stroke="midnightblue" points="271.56,-249.43 280.76,-244.18 270.3,-242.54 271.56,-249.43"/>
</g>
<!-- Node13 -->
<g id="node13" class="node">
<title>Node13</title>
<g id="a_node13"><a xlink:href="group__tools__drafting__operation.html#ga172b76b2027c863e672bc7a84dabea5e" target="_top" xlink:title="Construct a sheet title block.">
<polygon fill="white" stroke="black" points="135,-0.5 135,-19.5 230,-19.5 230,-0.5 135,-0.5"/>
<text text-anchor="middle" x="182.5" y="-7.5" font-family="Helvetica,sans-Serif" font-size="10.00">draft_title_block</text>
</a>
</g>
</g>
<!-- Node12&#45;&gt;Node13 -->
<g id="edge17" class="edge">
<title>Node12&#45;&gt;Node13</title>
<path fill="none" stroke="midnightblue" d="M268.29,-10C255.99,-10 242.68,-10 230.33,-10"/>
<polygon fill="midnightblue" stroke="midnightblue" points="268.36,-13.5 278.36,-10 268.36,-6.5 268.36,-13.5"/>
</g>
</g>
</svg>
