<?xml version="1.0" encoding="UTF-8" standalone="no"?>
<!DOCTYPE svg PUBLIC "-//W3C//DTD SVG 1.1//EN"
 "http://www.w3.org/Graphics/SVG/1.1/DTD/svg11.dtd">
<!-- Generated by graphviz version 2.43.0 (0)
 -->
<!-- Title: Linear Algebra Pages: 1 -->
<svg width="268pt" height="37pt"
 viewBox="0.00 0.00 268.00 36.50" xmlns="http://www.w3.org/2000/svg" xmlns:xlink="http://www.w3.org/1999/xlink">
<g id="graph0" class="graph" transform="scale(1 1) rotate(0) translate(4 32.5)">
<title>Linear Algebra</title>
<polygon fill="white" stroke="transparent" points="-4,4 -4,-32.5 264,-32.5 264,4 -4,4"/>
<!-- Node2 -->
<g id="node1" class="node">
<title>Node2</title>
<g id="a_node1"><a xlink:href="group__math.html" target="_top" xlink:title="Mathematical functions and operations.">
<polygon fill="white" stroke="black" points="41,-28.5 0,-28.5 0,-9.5 41,-9.5 41,-28.5"/>
<text text-anchor="middle" x="20.5" y="-16.5" font-family="Helvetica,sans-Serif" font-size="10.00">Math</text>
</a>
</g>
</g>
<!-- Node1 -->
<g id="node2" class="node">
<title>Node1</title>
<g id="a_node2"><a xlink:title="Euclidean linear algebra functions.">
<polygon fill="#bfbfbf" stroke="black" points="260,-28.5 173,-28.5 173,-9.5 260,-9.5 260,-28.5"/>
<text text-anchor="middle" x="216.5" y="-16.5" font-family="Helvetica,sans-Serif" font-size="10.00">Linear Algebra</text>
</a>
</g>
</g>
<!-- Node2&#45;&gt;Node1 -->
<g id="edge1" class="edge">
<title>Node2&#45;&gt;Node1</title>
<path fill="none" stroke="black" d="M51.39,-19C83.91,-19 136.17,-19 172.96,-19"/>
<polygon fill="black" stroke="black" points="51.17,-15.5 41.17,-19 51.17,-22.5 51.17,-15.5"/>
</g>
<!-- Node1&#45;&gt;Node2 -->
<g id="edge2" class="edge">
<title>Node1&#45;&gt;Node2</title>
<path fill="none" stroke="darkgreen" stroke-dasharray="5,2" d="M180.54,-9.49C172.24,-7.63 163.35,-5.96 155,-5 112.61,-0.16 100.99,2.58 59,-5 53.12,-6.06 46.96,-7.99 41.37,-10.08"/>
<text text-anchor="middle" x="107" y="-8" font-family="Helvetica,sans-Serif" font-size="10.00">linear_algebra.scad</text>
</g>
</g>
</svg>
