<?xml version="1.0" encoding="UTF-8" standalone="no"?>
<!DOCTYPE svg PUBLIC "-//W3C//DTD SVG 1.1//EN"
 "http://www.w3.org/Graphics/SVG/1.1/DTD/svg11.dtd">
<!-- Generated by graphviz version 2.43.0 (0)
 -->
<!-- Title: second Pages: 1 -->
<svg width="678pt" height="615pt"
 viewBox="0.00 0.00 678.00 614.71" xmlns="http://www.w3.org/2000/svg" xmlns:xlink="http://www.w3.org/1999/xlink">
<g id="graph0" class="graph" transform="scale(1 1) rotate(0) translate(4 610.71)">
<title>second</title>
<polygon fill="white" stroke="transparent" points="-4,4 -4,-610.71 674,-610.71 674,4 -4,4"/>
<!-- Node1 -->
<g id="node1" class="node">
<title>Node1</title>
<g id="a_node1"><a xlink:title="Return the second element of an iterable value.">
<polygon fill="#bfbfbf" stroke="black" points="619,-285.5 619,-304.5 670,-304.5 670,-285.5 619,-285.5"/>
<text text-anchor="middle" x="644.5" y="-292.5" font-family="Helvetica,sans-Serif" font-size="10.00">second</text>
</a>
</g>
</g>
<!-- Node2 -->
<g id="node2" class="node">
<title>Node2</title>
<g id="a_node2"><a xlink:href="group__parts__3d__fastener__catch__latch.html#ga26a9933aa6d33599daab1be8d632c430" target="_top" xlink:title="A catch latch generator with configurable profile.">
<polygon fill="white" stroke="black" points="178,-551.5 178,-570.5 250,-570.5 250,-551.5 178,-551.5"/>
<text text-anchor="middle" x="214" y="-558.5" font-family="Helvetica,sans-Serif" font-size="10.00">catch_latch</text>
</a>
</g>
</g>
<!-- Node1&#45;&gt;Node2 -->
<g id="edge1" class="edge">
<title>Node1&#45;&gt;Node2</title>
<path fill="none" stroke="midnightblue" d="M642.11,-314.65C637.68,-370.81 621.87,-529.98 583,-561 480.38,-642.9 305.38,-593.31 240.33,-570.56"/>
<polygon fill="midnightblue" stroke="midnightblue" points="645.61,-314.82 642.86,-304.58 638.63,-314.29 645.61,-314.82"/>
</g>
<!-- Node3 -->
<g id="node3" class="node">
<title>Node3</title>
<g id="a_node3"><a xlink:href="group__tools__drafting__operation.html#ga4e20419a6d4623f21c05179fc8b6df95" target="_top" xlink:title="Construct drafting sheet axes.">
<polygon fill="white" stroke="black" points="492.5,-532.5 492.5,-551.5 559.5,-551.5 559.5,-532.5 492.5,-532.5"/>
<text text-anchor="middle" x="526" y="-539.5" font-family="Helvetica,sans-Serif" font-size="10.00">draft_axes</text>
</a>
</g>
</g>
<!-- Node1&#45;&gt;Node3 -->
<g id="edge2" class="edge">
<title>Node1&#45;&gt;Node3</title>
<path fill="none" stroke="midnightblue" d="M644.11,-314.89C644.35,-358.5 638.7,-463.4 583,-523 576.83,-529.6 568.29,-533.91 559.73,-536.72"/>
<polygon fill="midnightblue" stroke="midnightblue" points="647.61,-314.68 643.94,-304.74 640.61,-314.8 647.61,-314.68"/>
</g>
<!-- Node4 -->
<g id="node4" class="node">
<title>Node4</title>
<g id="a_node4"><a xlink:href="group__tools__drafting__dimension.html#ga6b8e17d22ac4a95d25a90be8a74c0689" target="_top" xlink:title="Construct a angular dimension arc.">
<polygon fill="white" stroke="black" points="478.5,-494.5 478.5,-513.5 573.5,-513.5 573.5,-494.5 478.5,-494.5"/>
<text text-anchor="middle" x="526" y="-501.5" font-family="Helvetica,sans-Serif" font-size="10.00">draft_dim_angle</text>
</a>
</g>
</g>
<!-- Node1&#45;&gt;Node4 -->
<g id="edge3" class="edge">
<title>Node1&#45;&gt;Node4</title>
<path fill="none" stroke="midnightblue" d="M642.81,-315.17C640.42,-353.51 629.8,-437.31 583,-485 579.19,-488.88 574.56,-491.97 569.6,-494.43"/>
<polygon fill="midnightblue" stroke="midnightblue" points="646.33,-314.99 643.32,-304.83 639.34,-314.64 646.33,-314.99"/>
</g>
<!-- Node5 -->
<g id="node5" class="node">
<title>Node5</title>
<g id="a_node5"><a xlink:href="group__tools__drafting__dimension.html#ga27a35e94597435a74e22d76789e9be5e" target="_top" xlink:title="Construct a dimension line between two points.">
<polygon fill="white" stroke="black" points="483,-456.5 483,-475.5 569,-475.5 569,-456.5 483,-456.5"/>
<text text-anchor="middle" x="526" y="-463.5" font-family="Helvetica,sans-Serif" font-size="10.00">draft_dim_line</text>
</a>
</g>
</g>
<!-- Node1&#45;&gt;Node5 -->
<g id="edge4" class="edge">
<title>Node1&#45;&gt;Node5</title>
<path fill="none" stroke="midnightblue" d="M641,-314.69C635.9,-346.82 621.32,-410.61 583,-447 578.91,-450.89 573.99,-453.98 568.78,-456.45"/>
<polygon fill="midnightblue" stroke="midnightblue" points="644.47,-315.13 642.43,-304.74 637.54,-314.14 644.47,-315.13"/>
</g>
<!-- Node6 -->
<g id="node6" class="node">
<title>Node6</title>
<g id="a_node6"><a xlink:href="group__tools__drafting__dimension.html#gaef1a8150a8ef7be88e086fb3dbab64a9" target="_top" xlink:title="Construct a radial dimension line.">
<polygon fill="white" stroke="black" points="477,-418.5 477,-437.5 575,-437.5 575,-418.5 477,-418.5"/>
<text text-anchor="middle" x="526" y="-425.5" font-family="Helvetica,sans-Serif" font-size="10.00">draft_dim_radius</text>
</a>
</g>
</g>
<!-- Node1&#45;&gt;Node6 -->
<g id="edge5" class="edge">
<title>Node1&#45;&gt;Node6</title>
<path fill="none" stroke="midnightblue" d="M638.02,-314.72C630.01,-340.04 612.73,-383.7 583,-409 578.46,-412.86 573.11,-415.94 567.54,-418.41"/>
<polygon fill="midnightblue" stroke="midnightblue" points="641.48,-315.39 640.98,-304.81 634.77,-313.39 641.48,-315.39"/>
</g>
<!-- Node7 -->
<g id="node7" class="node">
<title>Node7</title>
<g id="a_node7"><a xlink:href="group__tools__drafting__primitive.html#gada1e771ce89ef86b6241c43dc01bf62d" target="_top" xlink:title="Draft a polygon with configurable style.">
<polygon fill="white" stroke="black" points="484.5,-380.5 484.5,-399.5 567.5,-399.5 567.5,-380.5 484.5,-380.5"/>
<text text-anchor="middle" x="526" y="-387.5" font-family="Helvetica,sans-Serif" font-size="10.00">draft_polygon</text>
</a>
</g>
</g>
<!-- Node1&#45;&gt;Node7 -->
<g id="edge6" class="edge">
<title>Node1&#45;&gt;Node7</title>
<path fill="none" stroke="midnightblue" d="M631.68,-313.1C620.66,-328.82 602.94,-351.31 583,-366 575,-371.9 565.32,-376.7 556.28,-380.42"/>
<polygon fill="midnightblue" stroke="midnightblue" points="634.64,-314.98 637.37,-304.74 628.85,-311.04 634.64,-314.98"/>
</g>
<!-- Node8 -->
<g id="node8" class="node">
<title>Node8</title>
<g id="a_node8"><a xlink:href="group__tools__extrude.html#gab2442cfaf1ad44d6e295ab0979d9e03d" target="_top" xlink:title="Linearly extrude a 2d shape with uniformly&#45;spaced profile scaling.">
<polygon fill="white" stroke="black" points="471.5,-228.5 471.5,-247.5 580.5,-247.5 580.5,-228.5 471.5,-228.5"/>
<text text-anchor="middle" x="526" y="-235.5" font-family="Helvetica,sans-Serif" font-size="10.00">extrude_linear_uss</text>
</a>
</g>
</g>
<!-- Node1&#45;&gt;Node8 -->
<g id="edge7" class="edge">
<title>Node1&#45;&gt;Node8</title>
<path fill="none" stroke="midnightblue" d="M618.18,-280.5C607.45,-274.53 594.74,-267.7 583,-262 572.53,-256.92 560.72,-251.77 550.65,-247.55"/>
<polygon fill="midnightblue" stroke="midnightblue" points="616.6,-283.62 627.03,-285.47 620.03,-277.52 616.6,-283.62"/>
</g>
<!-- Node11 -->
<g id="node11" class="node">
<title>Node11</title>
<g id="a_node11"><a xlink:href="group__parts__3d__enclosure__power__strip.html#ga191779dedf39e4fd769a8dc96b0f8c9e" target="_top" xlink:title="A power strip generator for single gang electrical receptacles.">
<polygon fill="white" stroke="black" points="9,-247.5 9,-266.5 99,-266.5 99,-247.5 9,-247.5"/>
<text text-anchor="middle" x="54" y="-254.5" font-family="Helvetica,sans-Serif" font-size="10.00">power_strip_sg</text>
</a>
</g>
</g>
<!-- Node1&#45;&gt;Node11 -->
<g id="edge32" class="edge">
<title>Node1&#45;&gt;Node11</title>
<path fill="none" stroke="midnightblue" d="M623.33,-310.9C611.99,-319.26 597.27,-329.17 583,-336 535.2,-358.9 516.45,-347.39 469,-371 451.33,-379.79 449.51,-386.19 433,-397 368.65,-439.11 358.19,-464.73 284,-485 223.98,-501.4 195.2,-520.35 144,-485 106.84,-459.35 124.36,-432.08 108,-390 89.99,-343.66 67.77,-288.55 58.91,-266.66"/>
<polygon fill="midnightblue" stroke="midnightblue" points="625.78,-313.44 631.64,-304.62 621.55,-307.86 625.78,-313.44"/>
</g>
<!-- Node15 -->
<g id="node15" class="node">
<title>Node15</title>
<g id="a_node15"><a xlink:href="group__parts__3d__computer__pci__bracket.html#gaf56631cf80d8e5f0b77736b17b94ecd9" target="_top" xlink:title="PCI slot cover and adapter card bracket generator.">
<polygon fill="white" stroke="black" points="178,-456.5 178,-475.5 250,-475.5 250,-456.5 178,-456.5"/>
<text text-anchor="middle" x="214" y="-463.5" font-family="Helvetica,sans-Serif" font-size="10.00">pci_bracket</text>
</a>
</g>
</g>
<!-- Node1&#45;&gt;Node15 -->
<g id="edge29" class="edge">
<title>Node1&#45;&gt;Node15</title>
<path fill="none" stroke="midnightblue" d="M609.03,-300.99C573.3,-307.77 516.17,-320.24 469,-338 382.31,-370.64 367.15,-393.17 284,-434 268.12,-441.8 249.96,-450.2 236.25,-456.44"/>
<polygon fill="midnightblue" stroke="midnightblue" points="609.77,-304.41 618.96,-299.14 608.49,-297.53 609.77,-304.41"/>
</g>
<!-- Node16 -->
<g id="node16" class="node">
<title>Node16</title>
<g id="a_node16"><a xlink:href="group__parts__3d__enclosure__project__box__rectangle.html#ga6a5d093d732e65556c46252220f2c4b6" target="_top" xlink:title="A rectangular box maker for project boxes, enclosures and housings.">
<polygon fill="white" stroke="black" points="151.5,-228.5 151.5,-247.5 276.5,-247.5 276.5,-228.5 151.5,-228.5"/>
<text text-anchor="middle" x="214" y="-235.5" font-family="Helvetica,sans-Serif" font-size="10.00">project_box_rectangle</text>
</a>
</g>
</g>
<!-- Node1&#45;&gt;Node16 -->
<g id="edge33" class="edge">
<title>Node1&#45;&gt;Node16</title>
<path fill="none" stroke="midnightblue" d="M608.8,-290.39C549.57,-282.53 425.17,-266 320,-252 305.96,-250.13 290.87,-248.12 276.63,-246.22"/>
<polygon fill="midnightblue" stroke="midnightblue" points="608.37,-293.87 618.74,-291.71 609.29,-286.93 608.37,-293.87"/>
</g>
<!-- Node18 -->
<g id="node18" class="node">
<title>Node18</title>
<g id="a_node18"><a xlink:href="group__parts__3d__fastener__hinges.html#ga7e350f2c55116094108b99dd8103fc04" target="_top" xlink:title="A print&#45;in&#45;place single&#45;fold hinge generator.">
<polygon fill="white" stroke="black" points="347.5,-114.5 347.5,-133.5 405.5,-133.5 405.5,-114.5 347.5,-114.5"/>
<text text-anchor="middle" x="376.5" y="-121.5" font-family="Helvetica,sans-Serif" font-size="10.00">hinge_sf</text>
</a>
</g>
</g>
<!-- Node1&#45;&gt;Node18 -->
<g id="edge27" class="edge">
<title>Node1&#45;&gt;Node18</title>
<path fill="none" stroke="midnightblue" d="M638.77,-275.57C631.37,-249.42 614.55,-203.27 583,-178 569.07,-166.85 458.79,-141.7 405.77,-130.09"/>
<polygon fill="midnightblue" stroke="midnightblue" points="635.43,-276.66 641.37,-285.43 642.2,-274.87 635.43,-276.66"/>
</g>
<!-- Node20 -->
<g id="node20" class="node">
<title>Node20</title>
<g id="a_node20"><a xlink:href="group__parts__3d__enclosure__mounts.html#gae1cc60f3ff242fb07c5a50d34be8c051" target="_top" xlink:title="A mount tab with screw hole and support brace.">
<polygon fill="white" stroke="black" points="325,-152.5 325,-171.5 428,-171.5 428,-152.5 325,-152.5"/>
<text text-anchor="middle" x="376.5" y="-159.5" font-family="Helvetica,sans-Serif" font-size="10.00">mount_screw_tab</text>
</a>
</g>
</g>
<!-- Node1&#45;&gt;Node20 -->
<g id="edge28" class="edge">
<title>Node1&#45;&gt;Node20</title>
<path fill="none" stroke="midnightblue" d="M633.58,-276.78C623.2,-259.41 605.31,-233.76 583,-219 557.14,-201.89 477.14,-182.77 424.93,-171.59"/>
<polygon fill="midnightblue" stroke="midnightblue" points="630.55,-278.53 638.56,-285.46 636.62,-275.05 630.55,-278.53"/>
</g>
<!-- Node21 -->
<g id="node21" class="node">
<title>Node21</title>
<g id="a_node21"><a xlink:href="group__tools__polytope.html#ga530c86f9c90ce074aa7adc29834f0539" target="_top" xlink:title="Assemble a polytope skeletal frame using child objects.">
<polygon fill="white" stroke="black" points="479,-114.5 479,-133.5 573,-133.5 573,-114.5 479,-114.5"/>
<text text-anchor="middle" x="526" y="-121.5" font-family="Helvetica,sans-Serif" font-size="10.00">polytope_frame</text>
</a>
</g>
</g>
<!-- Node1&#45;&gt;Node21 -->
<g id="edge30" class="edge">
<title>Node1&#45;&gt;Node21</title>
<path fill="none" stroke="midnightblue" d="M640.33,-275.42C634.37,-244.52 618.72,-184.24 583,-148 576.84,-141.75 568.78,-137.03 560.71,-133.5"/>
<polygon fill="midnightblue" stroke="midnightblue" points="636.9,-276.15 642.11,-285.38 643.79,-274.92 636.9,-276.15"/>
</g>
<!-- Node22 -->
<g id="node22" class="node">
<title>Node22</title>
<g id="a_node22"><a xlink:href="group__tools__polytope.html#ga00b574079f19251be7281151d11db8fa" target="_top" xlink:title="Label the vertices, paths, and edges of a polytope.">
<polygon fill="white" stroke="black" points="475,-76.5 475,-95.5 577,-95.5 577,-76.5 475,-76.5"/>
<text text-anchor="middle" x="526" y="-83.5" font-family="Helvetica,sans-Serif" font-size="10.00">polytope_number</text>
</a>
</g>
</g>
<!-- Node1&#45;&gt;Node22 -->
<g id="edge31" class="edge">
<title>Node1&#45;&gt;Node22</title>
<path fill="none" stroke="midnightblue" d="M642.81,-274.83C640.42,-236.49 629.8,-152.69 583,-105 579.19,-101.12 574.56,-98.03 569.6,-95.57"/>
<polygon fill="midnightblue" stroke="midnightblue" points="639.34,-275.36 643.32,-285.17 646.33,-275.01 639.34,-275.36"/>
</g>
<!-- Node23 -->
<g id="node23" class="node">
<title>Node23</title>
<g id="a_node23"><a xlink:href="group__datatypes__table.html#ga7a45ee72b36421f4e73cfba4488f14be" target="_top" xlink:title="Dump table getter functions to the console.">
<polygon fill="white" stroke="black" points="469,-38.5 469,-57.5 583,-57.5 583,-38.5 469,-38.5"/>
<text text-anchor="middle" x="526" y="-45.5" font-family="Helvetica,sans-Serif" font-size="10.00">table_dump_getters</text>
</a>
</g>
</g>
<!-- Node1&#45;&gt;Node23 -->
<g id="edge34" class="edge">
<title>Node1&#45;&gt;Node23</title>
<path fill="none" stroke="midnightblue" d="M644.11,-275.11C644.35,-231.5 638.7,-126.6 583,-67 579.35,-63.1 574.88,-60 570.06,-57.54"/>
<polygon fill="midnightblue" stroke="midnightblue" points="640.61,-275.2 643.94,-285.26 647.61,-275.32 640.61,-275.2"/>
</g>
<!-- Node24 -->
<g id="node24" class="node">
<title>Node24</title>
<g id="a_node24"><a xlink:href="group__datatypes__table.html#ga8d212217f9acb803e3107f488d5523e6" target="_top" xlink:title="Write formatted map entries to the console.">
<polygon fill="white" stroke="black" points="490.5,-0.5 490.5,-19.5 561.5,-19.5 561.5,-0.5 490.5,-0.5"/>
<text text-anchor="middle" x="526" y="-7.5" font-family="Helvetica,sans-Serif" font-size="10.00">table_write</text>
</a>
</g>
</g>
<!-- Node1&#45;&gt;Node24 -->
<g id="edge35" class="edge">
<title>Node1&#45;&gt;Node24</title>
<path fill="none" stroke="midnightblue" d="M641.49,-275.21C635.52,-219.98 616.16,-65.78 583,-29 577.36,-22.75 569.59,-18.55 561.63,-15.73"/>
<polygon fill="midnightblue" stroke="midnightblue" points="638.04,-275.84 642.57,-285.42 645,-275.11 638.04,-275.84"/>
</g>
<!-- Node9 -->
<g id="node9" class="node">
<title>Node9</title>
<g id="a_node9"><a xlink:href="group__tools__extrude.html#ga45661244067bf945b684550c3263ee45" target="_top" xlink:title="Linearly extrude a 2d shape with multi&#45;segment uniformly&#45;spaced profile scaling.">
<polygon fill="white" stroke="black" points="320,-304.5 320,-323.5 433,-323.5 433,-304.5 320,-304.5"/>
<text text-anchor="middle" x="376.5" y="-311.5" font-family="Helvetica,sans-Serif" font-size="10.00">extrude_linear_mss</text>
</a>
</g>
</g>
<!-- Node8&#45;&gt;Node9 -->
<g id="edge8" class="edge">
<title>Node8&#45;&gt;Node9</title>
<path fill="none" stroke="midnightblue" d="M497.33,-252.26C467.71,-267.52 421.55,-291.3 396.03,-304.45"/>
<polygon fill="midnightblue" stroke="midnightblue" points="499.03,-255.32 506.32,-247.63 495.83,-249.09 499.03,-255.32"/>
</g>
<!-- Node8&#45;&gt;Node11 -->
<g id="edge25" class="edge">
<title>Node8&#45;&gt;Node11</title>
<path fill="none" stroke="midnightblue" d="M469.45,-226.63C394.67,-213.28 257.87,-195.71 144,-219 117.5,-224.42 89.13,-238.05 71.72,-247.42"/>
<polygon fill="midnightblue" stroke="midnightblue" points="469.11,-230.13 479.58,-228.49 470.37,-223.25 469.11,-230.13"/>
</g>
<!-- Node8&#45;&gt;Node16 -->
<g id="edge26" class="edge">
<title>Node8&#45;&gt;Node16</title>
<path fill="none" stroke="midnightblue" d="M461.21,-238C407.18,-238 330.21,-238 276.77,-238"/>
<polygon fill="midnightblue" stroke="midnightblue" points="461.36,-241.5 471.36,-238 461.36,-234.5 461.36,-241.5"/>
</g>
<!-- Node8&#45;&gt;Node18 -->
<g id="edge21" class="edge">
<title>Node8&#45;&gt;Node18</title>
<path fill="none" stroke="midnightblue" d="M509.06,-220.68C485.15,-194.84 441.88,-148.64 433,-143 424.75,-137.76 414.88,-133.78 405.77,-130.85"/>
<polygon fill="midnightblue" stroke="midnightblue" points="506.71,-223.3 516.07,-228.27 511.86,-218.55 506.71,-223.3"/>
</g>
<!-- Node8&#45;&gt;Node20 -->
<g id="edge23" class="edge">
<title>Node8&#45;&gt;Node20</title>
<path fill="none" stroke="midnightblue" d="M489.61,-224.47C482.62,-221.34 475.45,-217.81 469,-214 451.54,-203.7 450.44,-196.33 433,-186 423.7,-180.49 412.89,-175.53 403.31,-171.57"/>
<polygon fill="midnightblue" stroke="midnightblue" points="488.39,-227.75 498.96,-228.46 491.14,-221.31 488.39,-227.75"/>
</g>
<!-- Node9&#45;&gt;Node2 -->
<g id="edge9" class="edge">
<title>Node9&#45;&gt;Node2</title>
<path fill="none" stroke="midnightblue" d="M367.21,-333C352.62,-365.52 320.42,-433.36 284,-485 265.72,-510.92 239.5,-537.54 225.22,-551.35"/>
<polygon fill="midnightblue" stroke="midnightblue" points="370.46,-334.3 371.31,-323.74 364.06,-331.47 370.46,-334.3"/>
</g>
<!-- Node10 -->
<g id="node10" class="node">
<title>Node10</title>
<g id="a_node10"><a xlink:href="group__parts__3d__enclosure__clamps.html#ga8fd874789132e42e5470328d18560f1a" target="_top" xlink:title="A clamp, bushing, and/or grip for wire/hose wall penetrations.">
<polygon fill="white" stroke="black" points="182.5,-342.5 182.5,-361.5 245.5,-361.5 245.5,-342.5 182.5,-342.5"/>
<text text-anchor="middle" x="214" y="-349.5" font-family="Helvetica,sans-Serif" font-size="10.00">clamp_cg</text>
</a>
</g>
</g>
<!-- Node9&#45;&gt;Node10 -->
<g id="edge10" class="edge">
<title>Node9&#45;&gt;Node10</title>
<path fill="none" stroke="midnightblue" d="M325.26,-325.89C299.16,-332.07 268.1,-339.43 245.61,-344.75"/>
<polygon fill="midnightblue" stroke="midnightblue" points="326.07,-329.3 335,-323.59 324.46,-322.49 326.07,-329.3"/>
</g>
<!-- Node12 -->
<g id="node12" class="node">
<title>Node12</title>
<g id="a_node12"><a xlink:href="group__parts__3d__motion__bearing__linear__rod.html#ga48399d5e708b4894494c69b2d1e88e26" target="_top" xlink:title="Transform 2d or 3d shape into a linear rod ball or sled bearing.">
<polygon fill="white" stroke="black" points="144,-304.5 144,-323.5 284,-323.5 284,-304.5 144,-304.5"/>
<text text-anchor="middle" x="214" y="-311.5" font-family="Helvetica,sans-Serif" font-size="10.00">make_bearing_linear_rod</text>
</a>
</g>
</g>
<!-- Node9&#45;&gt;Node12 -->
<g id="edge12" class="edge">
<title>Node9&#45;&gt;Node12</title>
<path fill="none" stroke="midnightblue" d="M309.68,-314C301.27,-314 292.63,-314 284.16,-314"/>
<polygon fill="midnightblue" stroke="midnightblue" points="309.82,-317.5 319.82,-314 309.82,-310.5 309.82,-317.5"/>
</g>
<!-- Node13 -->
<g id="node13" class="node">
<title>Node13</title>
<g id="a_node13"><a xlink:href="group__parts__3d__enclosure__mounts.html#ga0cbac43259ec43fff7785057277bcef3" target="_top" xlink:title="A screw mount post with screw bore and optional fins.">
<polygon fill="white" stroke="black" points="0,-399.5 0,-418.5 108,-418.5 108,-399.5 0,-399.5"/>
<text text-anchor="middle" x="54" y="-406.5" font-family="Helvetica,sans-Serif" font-size="10.00">mount_screw_post</text>
</a>
</g>
</g>
<!-- Node9&#45;&gt;Node13 -->
<g id="edge13" class="edge">
<title>Node9&#45;&gt;Node13</title>
<path fill="none" stroke="midnightblue" d="M334.01,-328.03C328.94,-330.83 324.11,-334.13 320,-338 294.23,-362.24 314.15,-390.48 284,-409 222.51,-446.76 133.1,-430.98 86.27,-418.59"/>
<polygon fill="midnightblue" stroke="midnightblue" points="335.83,-331.04 343.28,-323.51 332.76,-324.75 335.83,-331.04"/>
</g>
<!-- Node14 -->
<g id="node14" class="node">
<title>Node14</title>
<g id="a_node14"><a xlink:href="group__models__3d__misc__omdl__logo.html#gab176f64dad7e83d4fb056be44b71f630" target="_top" xlink:title="Standard omdl logo.">
<polygon fill="white" stroke="black" points="180,-266.5 180,-285.5 248,-285.5 248,-266.5 180,-266.5"/>
<text text-anchor="middle" x="214" y="-273.5" font-family="Helvetica,sans-Serif" font-size="10.00">omdl_logo</text>
</a>
</g>
</g>
<!-- Node9&#45;&gt;Node14 -->
<g id="edge14" class="edge">
<title>Node9&#45;&gt;Node14</title>
<path fill="none" stroke="midnightblue" d="M325.27,-302.11C300.14,-296.16 270.44,-289.12 248.19,-283.86"/>
<polygon fill="midnightblue" stroke="midnightblue" points="324.46,-305.51 335,-304.41 326.07,-298.7 324.46,-305.51"/>
</g>
<!-- Node9&#45;&gt;Node15 -->
<g id="edge16" class="edge">
<title>Node9&#45;&gt;Node15</title>
<path fill="none" stroke="midnightblue" d="M332.28,-328.24C327.75,-330.98 323.52,-334.2 320,-338 286.73,-373.86 318.56,-407.39 284,-442 274.95,-451.06 262.3,-456.71 250.3,-460.23"/>
<polygon fill="midnightblue" stroke="midnightblue" points="334,-331.29 341.26,-323.57 330.77,-325.08 334,-331.29"/>
</g>
<!-- Node9&#45;&gt;Node16 -->
<g id="edge17" class="edge">
<title>Node9&#45;&gt;Node16</title>
<path fill="none" stroke="midnightblue" d="M339.12,-300.35C332.55,-297.31 325.92,-293.84 320,-290 301.79,-278.2 302.99,-267.51 284,-257 277.04,-253.15 269.25,-250.04 261.48,-247.54"/>
<polygon fill="midnightblue" stroke="midnightblue" points="338.04,-303.7 348.6,-304.49 340.84,-297.28 338.04,-303.7"/>
</g>
<!-- Node17 -->
<g id="node17" class="node">
<title>Node17</title>
<g id="a_node17"><a xlink:href="group__models__3d__fastener__screws.html#gaad990187680f7ac947e555483d854bfa" target="_top" xlink:title="Gapped fastener bore with engagement cylinders for self&#45;forming threads.">
<polygon fill="white" stroke="black" points="169,-380.5 169,-399.5 259,-399.5 259,-380.5 169,-380.5"/>
<text text-anchor="middle" x="214" y="-387.5" font-family="Helvetica,sans-Serif" font-size="10.00">screw_bore_tsf</text>
</a>
</g>
</g>
<!-- Node9&#45;&gt;Node17 -->
<g id="edge19" class="edge">
<title>Node9&#45;&gt;Node17</title>
<path fill="none" stroke="midnightblue" d="M339.12,-327.65C332.55,-330.69 325.92,-334.16 320,-338 301.79,-349.8 302.99,-360.49 284,-371 276.39,-375.21 267.78,-378.54 259.29,-381.15"/>
<polygon fill="midnightblue" stroke="midnightblue" points="340.84,-330.72 348.6,-323.51 338.04,-324.3 340.84,-330.72"/>
</g>
<!-- Node10&#45;&gt;Node11 -->
<g id="edge11" class="edge">
<title>Node10&#45;&gt;Node11</title>
<path fill="none" stroke="midnightblue" d="M172.51,-344.03C162.85,-341.27 152.8,-337.67 144,-333 110.43,-315.19 78.42,-282.85 63.6,-266.71"/>
<polygon fill="midnightblue" stroke="midnightblue" points="171.81,-347.46 182.37,-346.6 173.57,-340.69 171.81,-347.46"/>
</g>
<!-- Node14&#45;&gt;Node11 -->
<g id="edge15" class="edge">
<title>Node14&#45;&gt;Node11</title>
<path fill="none" stroke="midnightblue" d="M169.84,-270.81C147.89,-268.17 121.26,-264.97 99.17,-262.31"/>
<polygon fill="midnightblue" stroke="midnightblue" points="169.53,-274.3 179.88,-272.02 170.37,-267.35 169.53,-274.3"/>
</g>
<!-- Node16&#45;&gt;Node11 -->
<g id="edge18" class="edge">
<title>Node16&#45;&gt;Node11</title>
<path fill="none" stroke="midnightblue" d="M141.51,-246.6C127.03,-248.34 112.21,-250.12 99.02,-251.71"/>
<polygon fill="midnightblue" stroke="midnightblue" points="141.95,-250.07 151.46,-245.4 141.11,-243.12 141.95,-250.07"/>
</g>
<!-- Node17&#45;&gt;Node13 -->
<g id="edge20" class="edge">
<title>Node17&#45;&gt;Node13</title>
<path fill="none" stroke="midnightblue" d="M158.97,-396.5C142.51,-398.48 124.43,-400.65 108.04,-402.62"/>
<polygon fill="midnightblue" stroke="midnightblue" points="159.48,-399.96 168.99,-395.29 158.64,-393.01 159.48,-399.96"/>
</g>
<!-- Node19 -->
<g id="node19" class="node">
<title>Node19</title>
<g id="a_node19"><a xlink:href="group__parts__3d__fastener__hinges.html#ga1ffc82e0bbac466d1dc4fbe6c214b765" target="_top" xlink:title="A print&#45;in&#45;place bi&#45;fold hinge generator.">
<polygon fill="white" stroke="black" points="184.5,-114.5 184.5,-133.5 243.5,-133.5 243.5,-114.5 184.5,-114.5"/>
<text text-anchor="middle" x="214" y="-121.5" font-family="Helvetica,sans-Serif" font-size="10.00">hinge_bf</text>
</a>
</g>
</g>
<!-- Node18&#45;&gt;Node19 -->
<g id="edge22" class="edge">
<title>Node18&#45;&gt;Node19</title>
<path fill="none" stroke="midnightblue" d="M337.07,-124C308.32,-124 269.63,-124 243.58,-124"/>
<polygon fill="midnightblue" stroke="midnightblue" points="337.18,-127.5 347.18,-124 337.18,-120.5 337.18,-127.5"/>
</g>
<!-- Node20&#45;&gt;Node11 -->
<g id="edge24" class="edge">
<title>Node20&#45;&gt;Node11</title>
<path fill="none" stroke="midnightblue" d="M314.51,-159.11C266.47,-158.98 198.7,-163.62 144,-186 109.79,-200 78.07,-231.43 63.46,-247.36"/>
<polygon fill="midnightblue" stroke="midnightblue" points="314.72,-162.62 324.76,-159.21 314.79,-155.62 314.72,-162.62"/>
</g>
</g>
</svg>
