<?xml version="1.0" encoding="UTF-8" standalone="no"?>
<!DOCTYPE svg PUBLIC "-//W3C//DTD SVG 1.1//EN"
 "http://www.w3.org/Graphics/SVG/1.1/DTD/svg11.dtd">
<!-- Generated by graphviz version 2.43.0 (0)
 -->
<!-- Title: 3d Models Pages: 1 -->
<svg width="285pt" height="101pt"
 viewBox="0.00 0.00 285.00 101.00" xmlns="http://www.w3.org/2000/svg" xmlns:xlink="http://www.w3.org/1999/xlink">
<g id="graph0" class="graph" transform="scale(1 1) rotate(0) translate(4 97)">
<title>3d Models</title>
<polygon fill="white" stroke="transparent" points="-4,4 -4,-97 281,-97 281,4 -4,4"/>
<!-- Node3 -->
<g id="node1" class="node">
<title>Node3</title>
<g id="a_node1"><a xlink:href="group__models__3d__fastener.html" target="_top" xlink:title="Fasteners, connectors, latches, and hinges.">
<polygon fill="white" stroke="black" points="263,-93 205,-93 205,-74 263,-74 263,-93"/>
<text text-anchor="middle" x="234" y="-81" font-family="Helvetica,sans-Serif" font-size="10.00">Fastener</text>
</a>
</g>
</g>
<!-- Node2 -->
<g id="node2" class="node">
<title>Node2</title>
<g id="a_node2"><a xlink:href="group__models.html" target="_top" xlink:title="Black&#45;box models of commodity components.">
<polygon fill="white" stroke="black" points="52,-56 0,-56 0,-37 52,-37 52,-56"/>
<text text-anchor="middle" x="26" y="-44" font-family="Helvetica,sans-Serif" font-size="10.00">Models</text>
</a>
</g>
</g>
<!-- Node1 -->
<g id="node3" class="node">
<title>Node1</title>
<g id="a_node3"><a xlink:title="3d black&#45;box models of commodity components.">
<polygon fill="#bfbfbf" stroke="black" points="155,-56 88,-56 88,-37 155,-37 155,-56"/>
<text text-anchor="middle" x="121.5" y="-44" font-family="Helvetica,sans-Serif" font-size="10.00">3d Models</text>
</a>
</g>
</g>
<!-- Node2&#45;&gt;Node1 -->
<g id="edge1" class="edge">
<title>Node2&#45;&gt;Node1</title>
<path fill="none" stroke="black" d="M62.06,-46.5C70.56,-46.5 79.6,-46.5 87.97,-46.5"/>
<polygon fill="black" stroke="black" points="62.06,-43 52.06,-46.5 62.06,-50 62.06,-43"/>
</g>
<!-- Node1&#45;&gt;Node3 -->
<g id="edge2" class="edge">
<title>Node1&#45;&gt;Node3</title>
<path fill="none" stroke="black" d="M160.62,-59.27C175.07,-64.1 191.25,-69.52 204.64,-74"/>
<polygon fill="black" stroke="black" points="161.55,-55.88 150.96,-56.03 159.33,-62.52 161.55,-55.88"/>
</g>
<!-- Node5 -->
<g id="node4" class="node">
<title>Node5</title>
<g id="a_node4"><a xlink:href="group__models__3d__motion.html" target="_top" xlink:title="Building blocks for basic mechanical motion.">
<polygon fill="white" stroke="black" points="259,-56 209,-56 209,-37 259,-37 259,-56"/>
<text text-anchor="middle" x="234" y="-44" font-family="Helvetica,sans-Serif" font-size="10.00">Motion</text>
</a>
</g>
</g>
<!-- Node1&#45;&gt;Node5 -->
<g id="edge4" class="edge">
<title>Node1&#45;&gt;Node5</title>
<path fill="none" stroke="black" d="M165.47,-46.5C180.15,-46.5 196.06,-46.5 208.74,-46.5"/>
<polygon fill="black" stroke="black" points="165.06,-43 155.06,-46.5 165.06,-50 165.06,-43"/>
</g>
<!-- Node4 -->
<g id="node5" class="node">
<title>Node4</title>
<g id="a_node5"><a xlink:href="group__models__3d__misc.html" target="_top" xlink:title="Miscellaneous auxiliary design models.">
<polygon fill="white" stroke="black" points="277,-19 191,-19 191,0 277,0 277,-19"/>
<text text-anchor="middle" x="234" y="-7" font-family="Helvetica,sans-Serif" font-size="10.00">Miscellaneous</text>
</a>
</g>
</g>
<!-- Node1&#45;&gt;Node4 -->
<g id="edge3" class="edge">
<title>Node1&#45;&gt;Node4</title>
<path fill="none" stroke="black" d="M160.55,-33.76C174.87,-28.96 190.92,-23.59 204.26,-19.12"/>
<polygon fill="black" stroke="black" points="159.33,-30.48 150.96,-36.97 161.55,-37.12 159.33,-30.48"/>
</g>
</g>
</svg>
