<?xml version="1.0" encoding="UTF-8" standalone="no"?>
<!DOCTYPE svg PUBLIC "-//W3C//DTD SVG 1.1//EN"
 "http://www.w3.org/Graphics/SVG/1.1/DTD/svg11.dtd">
<!-- Generated by graphviz version 2.43.0 (0)
 -->
<!-- Title: mount_screw_slot Pages: 1 -->
<svg width="348pt" height="170pt"
 viewBox="0.00 0.00 348.00 170.00" xmlns="http://www.w3.org/2000/svg" xmlns:xlink="http://www.w3.org/1999/xlink">
<g id="graph0" class="graph" transform="scale(1 1) rotate(0) translate(4 166)">
<title>mount_screw_slot</title>
<polygon fill="white" stroke="transparent" points="-4,4 -4,-166 344,-166 344,4 -4,4"/>
<!-- Node1 -->
<g id="node1" class="node">
<title>Node1</title>
<g id="a_node1"><a xlink:title="A screw mount slot with optional cover envelope.">
<polygon fill="#bfbfbf" stroke="black" points="0,-76.5 0,-95.5 105,-95.5 105,-76.5 0,-76.5"/>
<text text-anchor="middle" x="52.5" y="-83.5" font-family="Helvetica,sans-Serif" font-size="10.00">mount_screw_slot</text>
</a>
</g>
</g>
<!-- Node2 -->
<g id="node2" class="node">
<title>Node2</title>
<g id="a_node2"><a xlink:href="group__datatypes__iterable__operate.html#ga3d37c2b0067d1661724bd89955c8f6ce" target="_top" xlink:title="Return an element of an iterable when it exists or a default value otherwise.">
<polygon fill="white" stroke="black" points="255,-142.5 255,-161.5 334,-161.5 334,-142.5 255,-142.5"/>
<text text-anchor="middle" x="294.5" y="-149.5" font-family="Helvetica,sans-Serif" font-size="10.00">defined_e_or</text>
</a>
</g>
</g>
<!-- Node1&#45;&gt;Node2 -->
<g id="edge1" class="edge">
<title>Node1&#45;&gt;Node2</title>
<path fill="none" stroke="midnightblue" d="M75.09,-95.53C92.59,-102.98 118.03,-113.18 141,-120 175.25,-130.17 214.75,-138.37 244.97,-143.92"/>
<polygon fill="midnightblue" stroke="midnightblue" points="244.37,-147.36 254.84,-145.69 245.62,-140.48 244.37,-147.36"/>
</g>
<!-- Node3 -->
<g id="node3" class="node">
<title>Node3</title>
<g id="a_node3"><a xlink:href="group__datatypes__iterable__operate.html#gaa10da05023bd79eec85459298bc937c2" target="_top" xlink:title="Return the list element or scalar numeric value, if either is defined, otherwise the default value.">
<polygon fill="white" stroke="black" points="249,-95.5 249,-114.5 340,-114.5 340,-95.5 249,-95.5"/>
<text text-anchor="middle" x="294.5" y="-102.5" font-family="Helvetica,sans-Serif" font-size="10.00">defined_eon_or</text>
</a>
</g>
</g>
<!-- Node1&#45;&gt;Node3 -->
<g id="edge2" class="edge">
<title>Node1&#45;&gt;Node3</title>
<path fill="none" stroke="midnightblue" d="M88.98,-95.51C104.78,-99.27 123.69,-103.14 141,-105 173.24,-108.46 209.53,-108.61 238.62,-107.82"/>
<polygon fill="midnightblue" stroke="midnightblue" points="239.11,-111.31 248.99,-107.5 238.88,-104.31 239.11,-111.31"/>
</g>
<!-- Node4 -->
<g id="node4" class="node">
<title>Node4</title>
<g id="a_node4"><a xlink:href="group__datatypes__scalar__operate.html#gac119300e8c83de0037f2d0a4d9f0ab5c" target="_top" xlink:title="Return given value, if defined, or a secondary value, if primary is not defined.">
<polygon fill="white" stroke="black" points="143,-0.5 143,-19.5 211,-19.5 211,-0.5 143,-0.5"/>
<text text-anchor="middle" x="177" y="-7.5" font-family="Helvetica,sans-Serif" font-size="10.00">defined_or</text>
</a>
</g>
</g>
<!-- Node1&#45;&gt;Node4 -->
<g id="edge3" class="edge">
<title>Node1&#45;&gt;Node4</title>
<path fill="none" stroke="midnightblue" d="M69.01,-76.37C89.91,-63.41 127.3,-40.21 151.88,-24.96"/>
<polygon fill="midnightblue" stroke="midnightblue" points="153.96,-27.79 160.61,-19.55 150.27,-21.85 153.96,-27.79"/>
</g>
<!-- Node5 -->
<g id="node5" class="node">
<title>Node5</title>
<g id="a_node5"><a xlink:href="group__models__3d__fastener__screws.html#ga57dcfe1241e15eaa58ccd08891504a93" target="_top" xlink:title="Flat and beveled&#45;head fastener bore with nut, nut slot, and bore tolerance.">
<polygon fill="white" stroke="black" points="141,-76.5 141,-95.5 213,-95.5 213,-76.5 141,-76.5"/>
<text text-anchor="middle" x="177" y="-83.5" font-family="Helvetica,sans-Serif" font-size="10.00">screw_bore</text>
</a>
</g>
</g>
<!-- Node1&#45;&gt;Node5 -->
<g id="edge4" class="edge">
<title>Node1&#45;&gt;Node5</title>
<path fill="none" stroke="midnightblue" d="M105.1,-86C113.56,-86 122.27,-86 130.56,-86"/>
<polygon fill="midnightblue" stroke="midnightblue" points="130.8,-89.5 140.8,-86 130.8,-82.5 130.8,-89.5"/>
</g>
<!-- Node6 -->
<g id="node6" class="node">
<title>Node6</title>
<g id="a_node6"><a xlink:href="group__datatypes__list__operate.html#ga7b8e6f2bbfa72ae61e39377e5ca6b5be" target="_top" xlink:title="Select specified element from list or return a default.">
<polygon fill="white" stroke="black" points="265,-57.5 265,-76.5 324,-76.5 324,-57.5 265,-57.5"/>
<text text-anchor="middle" x="294.5" y="-64.5" font-family="Helvetica,sans-Serif" font-size="10.00">select_ci</text>
</a>
</g>
</g>
<!-- Node1&#45;&gt;Node6 -->
<g id="edge8" class="edge">
<title>Node1&#45;&gt;Node6</title>
<path fill="none" stroke="midnightblue" d="M88.98,-76.49C104.78,-72.73 123.69,-68.86 141,-67 179.38,-62.88 223.51,-63.45 254.39,-64.71"/>
<polygon fill="midnightblue" stroke="midnightblue" points="254.59,-68.22 264.73,-65.18 254.9,-61.23 254.59,-68.22"/>
</g>
<!-- Node5&#45;&gt;Node2 -->
<g id="edge5" class="edge">
<title>Node5&#45;&gt;Node2</title>
<path fill="none" stroke="midnightblue" d="M195.04,-95.74C214.26,-106.72 245.71,-124.69 267.89,-137.37"/>
<polygon fill="midnightblue" stroke="midnightblue" points="266.34,-140.51 276.76,-142.44 269.82,-134.44 266.34,-140.51"/>
</g>
<!-- Node5&#45;&gt;Node3 -->
<g id="edge6" class="edge">
<title>Node5&#45;&gt;Node3</title>
<path fill="none" stroke="midnightblue" d="M213.28,-91.8C221.29,-93.12 229.99,-94.55 238.6,-95.97"/>
<polygon fill="midnightblue" stroke="midnightblue" points="238.18,-99.45 248.62,-97.62 239.32,-92.54 238.18,-99.45"/>
</g>
<!-- Node5&#45;&gt;Node6 -->
<g id="edge7" class="edge">
<title>Node5&#45;&gt;Node6</title>
<path fill="none" stroke="midnightblue" d="M213.28,-80.2C226.39,-78.04 241.33,-75.58 254.74,-73.38"/>
<polygon fill="midnightblue" stroke="midnightblue" points="255.33,-76.83 264.63,-71.75 254.2,-69.92 255.33,-76.83"/>
</g>
</g>
</svg>
