<?xml version="1.0" encoding="UTF-8" standalone="no"?>
<!DOCTYPE svg PUBLIC "-//W3C//DTD SVG 1.1//EN"
 "http://www.w3.org/Graphics/SVG/1.1/DTD/svg11.dtd">
<!-- Generated by graphviz version 2.43.0 (0)
 -->
<!-- Title: Alignment Pages: 1 -->
<svg width="202pt" height="29pt"
 viewBox="0.00 0.00 202.00 28.50" xmlns="http://www.w3.org/2000/svg" xmlns:xlink="http://www.w3.org/1999/xlink">
<g id="graph0" class="graph" transform="scale(1 1) rotate(0) translate(4 24.5)">
<title>Alignment</title>
<polygon fill="white" stroke="transparent" points="-4,4 -4,-24.5 198,-24.5 198,4 -4,4"/>
<!-- Node1 -->
<g id="node1" class="node">
<title>Node1</title>
<g id="a_node1"><a xlink:title="Shape alignment tools.">
<polygon fill="#bfbfbf" stroke="black" points="67,-19 0,-19 0,0 67,0 67,-19"/>
<text text-anchor="middle" x="33.5" y="-7" font-family="Helvetica,sans-Serif" font-size="10.00">Alignment</text>
</a>
</g>
</g>
<!-- Node2 -->
<g id="node2" class="node">
<title>Node2</title>
<g id="a_node2"><a xlink:href="group__tools.html" target="_top" xlink:title="Tools and design components.">
<polygon fill="white" stroke="black" points="194,-19 153,-19 153,0 194,0 194,-19"/>
<text text-anchor="middle" x="173.5" y="-7" font-family="Helvetica,sans-Serif" font-size="10.00">Tools</text>
</a>
</g>
</g>
<!-- Node1&#45;&gt;Node2 -->
<g id="edge2" class="edge">
<title>Node1&#45;&gt;Node2</title>
<path fill="none" stroke="darkgreen" stroke-dasharray="5,2" d="M67.2,-9.5C93.83,-9.5 130.52,-9.5 152.82,-9.5"/>
<text text-anchor="middle" x="110" y="-12.5" font-family="Helvetica,sans-Serif" font-size="10.00">align.scad</text>
</g>
<!-- Node2&#45;&gt;Node1 -->
<g id="edge1" class="edge">
<title>Node2&#45;&gt;Node1</title>
<path fill="none" stroke="black" d="M142.44,-7.76C139.93,-7.65 137.42,-7.56 135,-7.5 112.79,-6.91 107.22,-7.06 85,-7.5 79.21,-7.61 73.05,-7.8 67.09,-8.02"/>
<polygon fill="black" stroke="black" points="142.5,-11.26 152.66,-8.24 142.84,-4.27 142.5,-11.26"/>
</g>
</g>
</svg>
