<?xml version="1.0" encoding="UTF-8" standalone="no"?>
<!DOCTYPE svg PUBLIC "-//W3C//DTD SVG 1.1//EN"
 "http://www.w3.org/Graphics/SVG/1.1/DTD/svg11.dtd">
<!-- Generated by graphviz version 2.43.0 (0)
 -->
<!-- Title: catch_latch Pages: 1 -->
<svg width="520pt" height="744pt"
 viewBox="0.00 0.00 520.00 744.05" xmlns="http://www.w3.org/2000/svg" xmlns:xlink="http://www.w3.org/1999/xlink">
<g id="graph0" class="graph" transform="scale(1 1) rotate(0) translate(4 740.05)">
<title>catch_latch</title>
<polygon fill="white" stroke="transparent" points="-4,4 -4,-740.05 516,-740.05 516,4 -4,4"/>
<!-- Node1 -->
<g id="node1" class="node">
<title>Node1</title>
<g id="a_node1"><a xlink:title="A catch latch generator with configurable profile.">
<polygon fill="#bfbfbf" stroke="black" points="0,-285.5 0,-304.5 72,-304.5 72,-285.5 0,-285.5"/>
<text text-anchor="middle" x="36" y="-292.5" font-family="Helvetica,sans-Serif" font-size="10.00">catch_latch</text>
</a>
</g>
</g>
<!-- Node2 -->
<g id="node2" class="node">
<title>Node2</title>
<g id="a_node2"><a xlink:href="group__datatypes__iterable__operate.html#ga3d37c2b0067d1661724bd89955c8f6ce" target="_top" xlink:title="Return an element of an iterable when it exists or a default value otherwise.">
<polygon fill="white" stroke="black" points="433,-399.5 433,-418.5 512,-418.5 512,-399.5 433,-399.5"/>
<text text-anchor="middle" x="472.5" y="-406.5" font-family="Helvetica,sans-Serif" font-size="10.00">defined_e_or</text>
</a>
</g>
</g>
<!-- Node1&#45;&gt;Node2 -->
<g id="edge1" class="edge">
<title>Node1&#45;&gt;Node2</title>
<path fill="none" stroke="midnightblue" d="M42.6,-304.5C53.05,-321.25 77.29,-355.71 108,-371 162.11,-397.93 336.98,-405.82 422.92,-408.1"/>
<polygon fill="midnightblue" stroke="midnightblue" points="422.86,-411.6 432.95,-408.35 423.04,-404.6 422.86,-411.6"/>
</g>
<!-- Node3 -->
<g id="node3" class="node">
<title>Node3</title>
<g id="a_node3"><a xlink:href="group__datatypes__scalar__operate.html#gac119300e8c83de0037f2d0a4d9f0ab5c" target="_top" xlink:title="Return given value, if defined, or a secondary value, if primary is not defined.">
<polygon fill="white" stroke="black" points="130.5,-266.5 130.5,-285.5 198.5,-285.5 198.5,-266.5 130.5,-266.5"/>
<text text-anchor="middle" x="164.5" y="-273.5" font-family="Helvetica,sans-Serif" font-size="10.00">defined_or</text>
</a>
</g>
</g>
<!-- Node1&#45;&gt;Node3 -->
<g id="edge2" class="edge">
<title>Node1&#45;&gt;Node3</title>
<path fill="none" stroke="midnightblue" d="M72.24,-289.71C87.11,-287.47 104.57,-284.85 120.22,-282.5"/>
<polygon fill="midnightblue" stroke="midnightblue" points="120.82,-285.95 130.19,-281 119.78,-279.03 120.82,-285.95"/>
</g>
<!-- Node4 -->
<g id="node4" class="node">
<title>Node4</title>
<g id="a_node4"><a xlink:href="group__tools__extrude.html#ga45661244067bf945b684550c3263ee45" target="_top" xlink:title="Linearly extrude a 2d shape with multi&#45;segment uniformly&#45;spaced profile scaling.">
<polygon fill="white" stroke="black" points="108,-608.5 108,-627.5 221,-627.5 221,-608.5 108,-608.5"/>
<text text-anchor="middle" x="164.5" y="-615.5" font-family="Helvetica,sans-Serif" font-size="10.00">extrude_linear_mss</text>
</a>
</g>
</g>
<!-- Node1&#45;&gt;Node4 -->
<g id="edge3" class="edge">
<title>Node1&#45;&gt;Node4</title>
<path fill="none" stroke="midnightblue" d="M38,-304.6C42,-340.03 59.11,-466.06 108,-556 117.39,-573.28 132.5,-589.72 144.58,-601.33"/>
<polygon fill="midnightblue" stroke="midnightblue" points="142.28,-603.97 151.99,-608.21 147.05,-598.84 142.28,-603.97"/>
</g>
<!-- Node6 -->
<g id="node6" class="node">
<title>Node6</title>
<g id="a_node6"><a xlink:href="group__datatypes__iterable__operate.html#gaccab3e37e43cb1d882713b3f3d6d9e1b" target="_top" xlink:title="Return the first element of an iterable value.">
<polygon fill="white" stroke="black" points="455,-646.5 455,-665.5 490,-665.5 490,-646.5 455,-646.5"/>
<text text-anchor="middle" x="472.5" y="-653.5" font-family="Helvetica,sans-Serif" font-size="10.00">first</text>
</a>
</g>
</g>
<!-- Node1&#45;&gt;Node6 -->
<g id="edge14" class="edge">
<title>Node1&#45;&gt;Node6</title>
<path fill="none" stroke="midnightblue" d="M37.89,-304.73C42.61,-354.7 66.15,-582.17 108,-637 188.58,-742.58 271.21,-755.6 397,-713 420.21,-705.14 441.87,-686.83 455.79,-673.07"/>
<polygon fill="midnightblue" stroke="midnightblue" points="458.58,-675.21 463.04,-665.6 453.56,-670.34 458.58,-675.21"/>
</g>
<!-- Node8 -->
<g id="node8" class="node">
<title>Node8</title>
<g id="a_node8"><a xlink:href="group__datatypes__iterable__operate.html#ga894d4bec62cc9cf38d5e099de3028c54" target="_top" xlink:title="Return the second element of an iterable value.">
<polygon fill="white" stroke="black" points="447,-542.5 447,-561.5 498,-561.5 498,-542.5 447,-542.5"/>
<text text-anchor="middle" x="472.5" y="-549.5" font-family="Helvetica,sans-Serif" font-size="10.00">second</text>
</a>
</g>
</g>
<!-- Node1&#45;&gt;Node8 -->
<g id="edge27" class="edge">
<title>Node1&#45;&gt;Node8</title>
<path fill="none" stroke="midnightblue" d="M37.34,-304.6C39.02,-336.63 48.98,-440.75 108,-492 156.88,-534.44 355.71,-547.28 436.81,-550.79"/>
<polygon fill="midnightblue" stroke="midnightblue" points="436.86,-554.3 447,-551.21 437.15,-547.3 436.86,-554.3"/>
</g>
<!-- Node10 -->
<g id="node10" class="node">
<title>Node10</title>
<g id="a_node10"><a xlink:href="group__tools__extrude.html#ga31947e37a3512d9814d47f8f8c960f84" target="_top" xlink:title="Translate, rotate, and revolve a 2d shape about the z&#45;axis.">
<polygon fill="white" stroke="black" points="114,-228.5 114,-247.5 215,-247.5 215,-228.5 114,-228.5"/>
<text text-anchor="middle" x="164.5" y="-235.5" font-family="Helvetica,sans-Serif" font-size="10.00">extrude_rotate_tr</text>
</a>
</g>
</g>
<!-- Node1&#45;&gt;Node10 -->
<g id="edge12" class="edge">
<title>Node1&#45;&gt;Node10</title>
<path fill="none" stroke="midnightblue" d="M52.99,-285.48C67.14,-277.29 88.52,-265.48 108,-257 112.78,-254.92 117.87,-252.91 122.95,-251.03"/>
<polygon fill="midnightblue" stroke="midnightblue" points="124.38,-254.23 132.63,-247.58 122.03,-247.64 124.38,-254.23"/>
</g>
<!-- Node12 -->
<g id="node12" class="node">
<title>Node12</title>
<g id="a_node12"><a xlink:href="group__datatypes__iterable__operate.html#ga00726e9fc8df22b5fde111e335b266f8" target="_top" xlink:title="Return a list containing all but the last n elements of an iterable value.">
<polygon fill="white" stroke="black" points="141,-190.5 141,-209.5 188,-209.5 188,-190.5 141,-190.5"/>
<text text-anchor="middle" x="164.5" y="-197.5" font-family="Helvetica,sans-Serif" font-size="10.00">headn</text>
</a>
</g>
</g>
<!-- Node1&#45;&gt;Node12 -->
<g id="edge15" class="edge">
<title>Node1&#45;&gt;Node12</title>
<path fill="none" stroke="midnightblue" d="M43.52,-285.41C54.84,-269.45 79.66,-237.35 108,-219 114.97,-214.49 123.14,-210.92 131.02,-208.15"/>
<polygon fill="midnightblue" stroke="midnightblue" points="132.28,-211.43 140.76,-205.07 130.17,-204.75 132.28,-211.43"/>
</g>
<!-- Node13 -->
<g id="node13" class="node">
<title>Node13</title>
<g id="a_node13"><a xlink:href="group__datatypes__scalar__test.html#ga51d7fdb800c10f4b7479d23b89ab8d22" target="_top" xlink:title="Test if a value is defined.">
<polygon fill="white" stroke="black" points="131.5,-152.5 131.5,-171.5 197.5,-171.5 197.5,-152.5 131.5,-152.5"/>
<text text-anchor="middle" x="164.5" y="-159.5" font-family="Helvetica,sans-Serif" font-size="10.00">is_defined</text>
</a>
</g>
</g>
<!-- Node1&#45;&gt;Node13 -->
<g id="edge16" class="edge">
<title>Node1&#45;&gt;Node13</title>
<path fill="none" stroke="midnightblue" d="M40.47,-285.19C48.7,-263.28 71.5,-210.02 108,-181 112.13,-177.72 116.86,-174.98 121.78,-172.71"/>
<polygon fill="midnightblue" stroke="midnightblue" points="123.37,-175.85 131.36,-168.89 120.78,-169.35 123.37,-175.85"/>
</g>
<!-- Node14 -->
<g id="node14" class="node">
<title>Node14</title>
<g id="a_node14"><a xlink:href="group__shapes__polygon.html#ga9c1bd914355d92f9d66ba0e5c2d9dbac" target="_top" xlink:title="A polygon rectangle with vertex rounding.">
<polygon fill="white" stroke="black" points="124.5,-428.5 124.5,-447.5 204.5,-447.5 204.5,-428.5 124.5,-428.5"/>
<text text-anchor="middle" x="164.5" y="-435.5" font-family="Helvetica,sans-Serif" font-size="10.00">pg_rectangle</text>
</a>
</g>
</g>
<!-- Node1&#45;&gt;Node14 -->
<g id="edge17" class="edge">
<title>Node1&#45;&gt;Node14</title>
<path fill="none" stroke="midnightblue" d="M41.49,-304.76C51.25,-325.15 76.11,-372.98 108,-404 115.72,-411.5 125.37,-418.13 134.46,-423.49"/>
<polygon fill="midnightblue" stroke="midnightblue" points="132.83,-426.59 143.26,-428.42 136.25,-420.48 132.83,-426.59"/>
</g>
<!-- Node15 -->
<g id="node15" class="node">
<title>Node15</title>
<g id="a_node15"><a xlink:href="group__math__polygon.html#ga7a0eff64929a142fc507615f83e3bd58" target="_top" xlink:title="Compute coordinates that round all of the vertices between each adjacent edges in 2D.">
<polygon fill="white" stroke="black" points="257,-494.5 257,-513.5 397,-513.5 397,-494.5 257,-494.5"/>
<text text-anchor="middle" x="327" y="-501.5" font-family="Helvetica,sans-Serif" font-size="10.00">polygon_round_eve_all_p</text>
</a>
</g>
</g>
<!-- Node1&#45;&gt;Node15 -->
<g id="edge21" class="edge">
<title>Node1&#45;&gt;Node15</title>
<path fill="none" stroke="midnightblue" d="M38.22,-304.86C42.28,-333.33 58.06,-416.2 108,-457 146.68,-488.6 201.72,-500.29 246.83,-504.11"/>
<polygon fill="midnightblue" stroke="midnightblue" points="246.65,-507.6 256.88,-504.84 247.16,-500.62 246.65,-507.6"/>
</g>
<!-- Node17 -->
<g id="node17" class="node">
<title>Node17</title>
<g id="a_node17"><a xlink:href="group__datatypes__iterable__operate.html#gafb1f112a3ab162d589c49d1b2de21b9e" target="_top" xlink:title="Reverse the elements of an iterable value.">
<polygon fill="white" stroke="black" points="138,-114.5 138,-133.5 191,-133.5 191,-114.5 138,-114.5"/>
<text text-anchor="middle" x="164.5" y="-121.5" font-family="Helvetica,sans-Serif" font-size="10.00">reverse</text>
</a>
</g>
</g>
<!-- Node1&#45;&gt;Node17 -->
<g id="edge22" class="edge">
<title>Node1&#45;&gt;Node17</title>
<path fill="none" stroke="midnightblue" d="M38.8,-285.24C44.23,-258.52 62.93,-183.48 108,-143 113.68,-137.9 120.79,-134.16 128,-131.42"/>
<polygon fill="midnightblue" stroke="midnightblue" points="129.34,-134.66 137.79,-128.26 127.19,-128 129.34,-134.66"/>
</g>
<!-- Node18 -->
<g id="node18" class="node">
<title>Node18</title>
<g id="a_node18"><a xlink:href="group__models__3d__fastener__screws.html#ga57dcfe1241e15eaa58ccd08891504a93" target="_top" xlink:title="Flat and beveled&#45;head fastener bore with nut, nut slot, and bore tolerance.">
<polygon fill="white" stroke="black" points="128.5,-342.5 128.5,-361.5 200.5,-361.5 200.5,-342.5 128.5,-342.5"/>
<text text-anchor="middle" x="164.5" y="-349.5" font-family="Helvetica,sans-Serif" font-size="10.00">screw_bore</text>
</a>
</g>
</g>
<!-- Node1&#45;&gt;Node18 -->
<g id="edge23" class="edge">
<title>Node1&#45;&gt;Node18</title>
<path fill="none" stroke="midnightblue" d="M57.13,-304.53C71.31,-311.2 90.76,-320.27 108,-328 115.69,-331.45 124.03,-335.1 131.84,-338.48"/>
<polygon fill="midnightblue" stroke="midnightblue" points="130.46,-341.7 141.03,-342.44 133.23,-335.27 130.46,-341.7"/>
</g>
<!-- Node20 -->
<g id="node20" class="node">
<title>Node20</title>
<g id="a_node20"><a xlink:href="group__datatypes__list__operate.html#ga7b8e6f2bbfa72ae61e39377e5ca6b5be" target="_top" xlink:title="Select specified element from list or return a default.">
<polygon fill="white" stroke="black" points="297.5,-266.5 297.5,-285.5 356.5,-285.5 356.5,-266.5 297.5,-266.5"/>
<text text-anchor="middle" x="327" y="-273.5" font-family="Helvetica,sans-Serif" font-size="10.00">select_ci</text>
</a>
</g>
</g>
<!-- Node1&#45;&gt;Node20 -->
<g id="edge28" class="edge">
<title>Node1&#45;&gt;Node20</title>
<path fill="none" stroke="midnightblue" d="M72.01,-296.86C109.09,-298.39 169.3,-299.64 221,-295 243.15,-293.01 267.63,-288.71 287.37,-284.7"/>
<polygon fill="midnightblue" stroke="midnightblue" points="288.15,-288.11 297.22,-282.64 286.72,-281.26 288.15,-288.11"/>
</g>
<!-- Node21 -->
<g id="node21" class="node">
<title>Node21</title>
<g id="a_node21"><a xlink:href="group__datatypes__list__operate.html#gab842ea235bf5fc40a14512083b49c8d2" target="_top" xlink:title="Convert a list of values to a concatenated string.">
<polygon fill="white" stroke="black" points="148.5,-76.5 148.5,-95.5 180.5,-95.5 180.5,-76.5 148.5,-76.5"/>
<text text-anchor="middle" x="164.5" y="-83.5" font-family="Helvetica,sans-Serif" font-size="10.00">strl</text>
</a>
</g>
</g>
<!-- Node1&#45;&gt;Node21 -->
<g id="edge29" class="edge">
<title>Node1&#45;&gt;Node21</title>
<path fill="none" stroke="midnightblue" d="M37.79,-285.15C40.79,-254.1 54.23,-157.3 108,-105 116.21,-97.01 127.93,-92.38 138.48,-89.69"/>
<polygon fill="midnightblue" stroke="midnightblue" points="139.4,-93.07 148.47,-87.6 137.96,-86.22 139.4,-93.07"/>
</g>
<!-- Node22 -->
<g id="node22" class="node">
<title>Node22</title>
<g id="a_node22"><a xlink:href="group__datatypes__iterable__operate.html#gafacf0ab6a646e99fcf55351ca693823f" target="_top" xlink:title="Return a list containing all but the first n elements of an iterable value.">
<polygon fill="white" stroke="black" points="145.5,-38.5 145.5,-57.5 183.5,-57.5 183.5,-38.5 145.5,-38.5"/>
<text text-anchor="middle" x="164.5" y="-45.5" font-family="Helvetica,sans-Serif" font-size="10.00">tailn</text>
</a>
</g>
</g>
<!-- Node1&#45;&gt;Node22 -->
<g id="edge30" class="edge">
<title>Node1&#45;&gt;Node22</title>
<path fill="none" stroke="midnightblue" d="M37.07,-285.23C37.88,-250.47 45.28,-131.5 108,-67 115.27,-59.52 125.61,-54.99 135.39,-52.24"/>
<polygon fill="midnightblue" stroke="midnightblue" points="136.28,-55.62 145.24,-49.97 134.71,-48.8 136.28,-55.62"/>
</g>
<!-- Node23 -->
<g id="node23" class="node">
<title>Node23</title>
<g id="a_node23"><a xlink:href="group__datatypes__iterable__operate.html#ga4a000b3543933067bb00c6950e9122b3" target="_top" xlink:title="Return the third element of an iterable value.">
<polygon fill="white" stroke="black" points="145,-0.5 145,-19.5 184,-19.5 184,-0.5 145,-0.5"/>
<text text-anchor="middle" x="164.5" y="-7.5" font-family="Helvetica,sans-Serif" font-size="10.00">third</text>
</a>
</g>
</g>
<!-- Node1&#45;&gt;Node23 -->
<g id="edge31" class="edge">
<title>Node1&#45;&gt;Node23</title>
<path fill="none" stroke="midnightblue" d="M36.56,-285.26C35.39,-247.07 36.25,-105.88 108,-29 115.07,-21.43 125.27,-16.88 135.01,-14.14"/>
<polygon fill="midnightblue" stroke="midnightblue" points="135.88,-17.53 144.84,-11.89 134.31,-10.71 135.88,-17.53"/>
</g>
<!-- Node5 -->
<g id="node5" class="node">
<title>Node5</title>
<g id="a_node5"><a xlink:href="group__tools__extrude.html#gab2442cfaf1ad44d6e295ab0979d9e03d" target="_top" xlink:title="Linearly extrude a 2d shape with uniformly&#45;spaced profile scaling.">
<polygon fill="white" stroke="black" points="272.5,-570.5 272.5,-589.5 381.5,-589.5 381.5,-570.5 272.5,-570.5"/>
<text text-anchor="middle" x="327" y="-577.5" font-family="Helvetica,sans-Serif" font-size="10.00">extrude_linear_uss</text>
</a>
</g>
</g>
<!-- Node4&#45;&gt;Node5 -->
<g id="edge4" class="edge">
<title>Node4&#45;&gt;Node5</title>
<path fill="none" stroke="midnightblue" d="M206,-608.41C227.18,-603.4 253.3,-597.21 275.76,-591.89"/>
<polygon fill="midnightblue" stroke="midnightblue" points="276.87,-595.23 285.79,-589.52 275.25,-588.42 276.87,-595.23"/>
</g>
<!-- Node4&#45;&gt;Node6 -->
<g id="edge9" class="edge">
<title>Node4&#45;&gt;Node6</title>
<path fill="none" stroke="midnightblue" d="M221.27,-624.93C287.44,-633.14 395.03,-646.5 444.75,-652.68"/>
<polygon fill="midnightblue" stroke="midnightblue" points="444.36,-656.16 454.72,-653.92 445.23,-649.21 444.36,-656.16"/>
</g>
<!-- Node7 -->
<g id="node7" class="node">
<title>Node7</title>
<g id="a_node7"><a xlink:href="group__datatypes__scalar__test.html#ga258e8911375d30ff85a6e52df01dc1c5" target="_top" xlink:title="Test if a value is a single non&#45;iterable value.">
<polygon fill="white" stroke="black" points="443,-599.5 443,-618.5 502,-618.5 502,-599.5 443,-599.5"/>
<text text-anchor="middle" x="472.5" y="-606.5" font-family="Helvetica,sans-Serif" font-size="10.00">is_scalar</text>
</a>
</g>
</g>
<!-- Node4&#45;&gt;Node7 -->
<g id="edge10" class="edge">
<title>Node4&#45;&gt;Node7</title>
<path fill="none" stroke="midnightblue" d="M221.27,-616.36C282.52,-614.56 379.27,-611.71 432.75,-610.14"/>
<polygon fill="midnightblue" stroke="midnightblue" points="432.95,-613.64 442.84,-609.84 432.74,-606.64 432.95,-613.64"/>
</g>
<!-- Node9 -->
<g id="node9" class="node">
<title>Node9</title>
<g id="a_node9"><a xlink:href="group__datatypes__list__operate.html#gae12565005038993506dc37249e32766d" target="_top" xlink:title="Compute the sum of a list of numbers.">
<polygon fill="white" stroke="black" points="308,-684.5 308,-703.5 346,-703.5 346,-684.5 308,-684.5"/>
<text text-anchor="middle" x="327" y="-691.5" font-family="Helvetica,sans-Serif" font-size="10.00">sum</text>
</a>
</g>
</g>
<!-- Node4&#45;&gt;Node9 -->
<g id="edge11" class="edge">
<title>Node4&#45;&gt;Node9</title>
<path fill="none" stroke="midnightblue" d="M180.28,-627.52C198.01,-638.67 228.88,-657.25 257,-670 270.22,-675.99 285.4,-681.42 298.16,-685.6"/>
<polygon fill="midnightblue" stroke="midnightblue" points="297.19,-688.96 307.78,-688.66 299.31,-682.29 297.19,-688.96"/>
</g>
<!-- Node5&#45;&gt;Node2 -->
<g id="edge5" class="edge">
<title>Node5&#45;&gt;Node2</title>
<path fill="none" stroke="midnightblue" d="M342.02,-570.37C356.76,-559.83 380.12,-541.88 397,-523 424.3,-492.47 448.77,-451.05 461.74,-427.46"/>
<polygon fill="midnightblue" stroke="midnightblue" points="464.89,-428.99 466.57,-418.53 458.73,-425.66 464.89,-428.99"/>
</g>
<!-- Node5&#45;&gt;Node6 -->
<g id="edge6" class="edge">
<title>Node5&#45;&gt;Node6</title>
<path fill="none" stroke="midnightblue" d="M346.17,-589.63C371.38,-602.97 417.08,-627.18 445.78,-642.38"/>
<polygon fill="midnightblue" stroke="midnightblue" points="444.33,-645.57 454.81,-647.16 447.61,-639.39 444.33,-645.57"/>
</g>
<!-- Node5&#45;&gt;Node7 -->
<g id="edge7" class="edge">
<title>Node5&#45;&gt;Node7</title>
<path fill="none" stroke="midnightblue" d="M375.38,-589.58C393.95,-593.33 414.98,-597.58 432.62,-601.14"/>
<polygon fill="midnightblue" stroke="midnightblue" points="432.08,-604.61 442.58,-603.16 433.47,-597.74 432.08,-604.61"/>
</g>
<!-- Node5&#45;&gt;Node8 -->
<g id="edge8" class="edge">
<title>Node5&#45;&gt;Node8</title>
<path fill="none" stroke="midnightblue" d="M376.98,-570.44C396.67,-566.6 418.9,-562.26 436.86,-558.76"/>
<polygon fill="midnightblue" stroke="midnightblue" points="437.74,-562.15 446.88,-556.8 436.4,-555.28 437.74,-562.15"/>
</g>
<!-- Node11 -->
<g id="node11" class="node">
<title>Node11</title>
<g id="a_node11"><a xlink:href="group__units__angle.html#ga06a917b77748dfb74e765bcd7c4c0219" target="_top" xlink:title="Convert an angle from some units to another.">
<polygon fill="white" stroke="black" points="305,-228.5 305,-247.5 349,-247.5 349,-228.5 305,-228.5"/>
<text text-anchor="middle" x="327" y="-235.5" font-family="Helvetica,sans-Serif" font-size="10.00">angle</text>
</a>
</g>
</g>
<!-- Node10&#45;&gt;Node11 -->
<g id="edge13" class="edge">
<title>Node10&#45;&gt;Node11</title>
<path fill="none" stroke="midnightblue" d="M215.4,-238C241.3,-238 272.14,-238 294.67,-238"/>
<polygon fill="midnightblue" stroke="midnightblue" points="294.69,-241.5 304.69,-238 294.69,-234.5 294.69,-241.5"/>
</g>
<!-- Node14&#45;&gt;Node2 -->
<g id="edge18" class="edge">
<title>Node14&#45;&gt;Node2</title>
<path fill="none" stroke="midnightblue" d="M204.57,-434.3C260.16,-429.03 362.05,-419.37 422.59,-413.64"/>
<polygon fill="midnightblue" stroke="midnightblue" points="423.04,-417.11 432.67,-412.68 422.38,-410.14 423.04,-417.11"/>
</g>
<!-- Node14&#45;&gt;Node15 -->
<g id="edge19" class="edge">
<title>Node14&#45;&gt;Node15</title>
<path fill="none" stroke="midnightblue" d="M181.56,-447.54C199.47,-457.87 229.54,-474.3 257,-485 263,-487.34 269.4,-489.51 275.79,-491.48"/>
<polygon fill="midnightblue" stroke="midnightblue" points="275.19,-494.96 285.77,-494.42 277.17,-488.24 275.19,-494.96"/>
</g>
<!-- Node16 -->
<g id="node16" class="node">
<title>Node16</title>
<g id="a_node16"><a xlink:href="group__math__linear__algebra.html#gaeabe74699fd0a437bad9a1d442bfd111" target="_top" xlink:title="Translate all coordinates dimensions.">
<polygon fill="white" stroke="black" points="291.5,-456.5 291.5,-475.5 362.5,-475.5 362.5,-456.5 291.5,-456.5"/>
<text text-anchor="middle" x="327" y="-463.5" font-family="Helvetica,sans-Serif" font-size="10.00">translate_p</text>
</a>
</g>
</g>
<!-- Node14&#45;&gt;Node16 -->
<g id="edge20" class="edge">
<title>Node14&#45;&gt;Node16</title>
<path fill="none" stroke="midnightblue" d="M204.76,-444.85C227.91,-448.89 257.27,-454.01 281.3,-458.2"/>
<polygon fill="midnightblue" stroke="midnightblue" points="280.78,-461.66 291.23,-459.94 281.99,-454.77 280.78,-461.66"/>
</g>
<!-- Node18&#45;&gt;Node2 -->
<g id="edge24" class="edge">
<title>Node18&#45;&gt;Node2</title>
<path fill="none" stroke="midnightblue" d="M200.63,-352.24C246.53,-353.33 329.06,-357.92 397,-376 413.55,-380.4 431.11,-388.02 445.02,-394.83"/>
<polygon fill="midnightblue" stroke="midnightblue" points="443.5,-397.99 454.01,-399.37 446.66,-391.74 443.5,-397.99"/>
</g>
<!-- Node19 -->
<g id="node19" class="node">
<title>Node19</title>
<g id="a_node19"><a xlink:href="group__datatypes__iterable__operate.html#gaa10da05023bd79eec85459298bc937c2" target="_top" xlink:title="Return the list element or scalar numeric value, if either is defined, otherwise the default value.">
<polygon fill="white" stroke="black" points="281.5,-304.5 281.5,-323.5 372.5,-323.5 372.5,-304.5 281.5,-304.5"/>
<text text-anchor="middle" x="327" y="-311.5" font-family="Helvetica,sans-Serif" font-size="10.00">defined_eon_or</text>
</a>
</g>
</g>
<!-- Node18&#45;&gt;Node19 -->
<g id="edge25" class="edge">
<title>Node18&#45;&gt;Node19</title>
<path fill="none" stroke="midnightblue" d="M200.72,-343.66C222.78,-338.44 251.55,-331.63 275.96,-325.85"/>
<polygon fill="midnightblue" stroke="midnightblue" points="276.85,-329.23 285.77,-323.52 275.23,-322.42 276.85,-329.23"/>
</g>
<!-- Node18&#45;&gt;Node20 -->
<g id="edge26" class="edge">
<title>Node18&#45;&gt;Node20</title>
<path fill="none" stroke="midnightblue" d="M192.4,-342.49C201.79,-338.62 212.19,-333.71 221,-328 239.21,-316.2 238.01,-305.51 257,-295 266.3,-289.86 277.08,-286.03 287.32,-283.21"/>
<polygon fill="midnightblue" stroke="midnightblue" points="288.45,-286.54 297.3,-280.72 286.75,-279.75 288.45,-286.54"/>
</g>
</g>
</svg>
