<?xml version="1.0" encoding="UTF-8" standalone="no"?>
<!DOCTYPE svg PUBLIC "-//W3C//DTD SVG 1.1//EN"
 "http://www.w3.org/Graphics/SVG/1.1/DTD/svg11.dtd">
<!-- Generated by graphviz version 2.43.0 (0)
 -->
<!-- Title: Power Strip Maker Pages: 1 -->
<svg width="296pt" height="35pt"
 viewBox="0.00 0.00 296.00 34.97" xmlns="http://www.w3.org/2000/svg" xmlns:xlink="http://www.w3.org/1999/xlink">
<g id="graph0" class="graph" transform="scale(1 1) rotate(0) translate(4 30.97)">
<title>Power Strip Maker</title>
<polygon fill="white" stroke="transparent" points="-4,4 -4,-30.97 292,-30.97 292,4 -4,4"/>
<!-- Node2 -->
<g id="node1" class="node">
<title>Node2</title>
<g id="a_node1"><a xlink:href="group__parts__3d__enclosure.html" target="_top" xlink:title="Project boxes, housings and enclosures.">
<polygon fill="white" stroke="black" points="64,-26.97 0,-26.97 0,-7.97 64,-7.97 64,-26.97"/>
<text text-anchor="middle" x="32" y="-14.97" font-family="Helvetica,sans-Serif" font-size="10.00">Enclosure</text>
</a>
</g>
</g>
<!-- Node1 -->
<g id="node2" class="node">
<title>Node1</title>
<g id="a_node2"><a xlink:title="Electrical receptacle power strip generator.">
<polygon fill="#bfbfbf" stroke="black" points="288,-26.97 183,-26.97 183,-7.97 288,-7.97 288,-26.97"/>
<text text-anchor="middle" x="235.5" y="-14.97" font-family="Helvetica,sans-Serif" font-size="10.00">Power Strip Maker</text>
</a>
</g>
</g>
<!-- Node2&#45;&gt;Node1 -->
<g id="edge1" class="edge">
<title>Node2&#45;&gt;Node1</title>
<path fill="none" stroke="black" d="M74.19,-17.47C105.54,-17.47 148.92,-17.47 182.64,-17.47"/>
<polygon fill="black" stroke="black" points="74.04,-13.97 64.04,-17.47 74.04,-20.97 74.04,-13.97"/>
</g>
<!-- Node1&#45;&gt;Node2 -->
<g id="edge2" class="edge">
<title>Node1&#45;&gt;Node2</title>
<path fill="none" stroke="darkgreen" stroke-dasharray="5,2" d="M194.28,-7.96C184.74,-6.1 174.55,-4.43 165,-3.47 128.29,0.19 118.53,1.64 82,-3.47 75.17,-4.43 67.95,-6.1 61.21,-7.97"/>
<text text-anchor="middle" x="123.5" y="-6.47" font-family="Helvetica,sans-Serif" font-size="10.00">power_strip.scad</text>
</g>
</g>
</svg>
