<?xml version="1.0" standalone="no"?>
<!DOCTYPE svg PUBLIC "-//W3C//DTD SVG 1.1//EN" "http://www.w3.org/Graphics/SVG/1.1/DTD/svg11.dtd">
<svg width="100mm" height="18mm" viewBox="-50 -9 100 18" xmlns="http://www.w3.org/2000/svg" version="1.1">
<title>OpenSCAD Model</title>
<path d="
M -9.425,-7.48125 L -9.425,-8.63126 L -8.27499,-8.63126 L -8.175,-8.73125 L -8.27499,-8.83124 L -9.52499,-8.83124
 L -9.62498,-8.73125 L -9.62498,-7.48125 L -9.52499,-7.38126 z
M 9.62498,-7.48125 L 9.62498,-8.73125 L 9.52498,-8.83124 L 8.27498,-8.83124 L 8.17499,-8.73125 L 8.27498,-8.63126
 L 9.42499,-8.63126 L 9.42499,-7.48125 L 9.52498,-7.38126 z
M -30.375,8.73123 L -30.375,-8.73125 L -30.475,-8.83124 L -49.525,-8.83124 L -49.625,-8.73125 L -49.625,8.73123
 L -49.525,8.83124 L -30.475,8.83124 z
M -49.425,-4.06876 L -49.425,-8.63126 L -30.575,-8.63126 L -30.575,-4.06876 z
M -43.097,-4.69386 L -42.7983,-4.77783 L -42.5399,-4.91347 L -42.3246,-5.09647 L -42.1537,-5.32416 L -42.0285,-5.59384
 L -41.9518,-5.90065 L -41.9263,-6.23975 L -41.951,-6.57454 L -42.0253,-6.87703 L -42.1472,-7.1424 L -42.3149,-7.36575
 L -42.5281,-7.54501 L -42.7865,-7.67796 L -43.0876,-7.76033 L -43.4291,-7.78778 L -43.7723,-7.76059 L -44.074,-7.67903
 L -44.3326,-7.54716 L -44.5465,-7.369 L -44.715,-7.14644 L -44.8372,-6.88135 L -44.9115,-6.57777 L -44.9362,-6.23975
 L -44.9126,-5.91089 L -44.8415,-5.60892 L -44.7236,-5.34006 L -44.5595,-5.11047 L -44.3485,-4.92369 L -44.0901,-4.7832
 L -43.7849,-4.69521 L -43.4334,-4.66588 z
M -43.6829,-5.02248 L -43.9017,-5.09111 L -44.0885,-5.20091 L -44.2419,-5.34731 L -44.3619,-5.52762 L -44.4486,-5.73915
 L -44.5011,-5.97789 L -44.5186,-6.23975 L -44.5016,-6.50079 L -44.4508,-6.73708 L -44.3657,-6.94485 L -44.2462,-7.12033
 L -44.0925,-7.26135 L -43.9049,-7.36575 L -43.6837,-7.43036 L -43.4291,-7.45189 L -43.1799,-7.43036 L -42.9619,-7.36575
 L -42.7759,-7.26135 L -42.6228,-7.12033 L -42.5028,-6.94485 L -42.4161,-6.73708 L -42.3636,-6.50079 L -42.3461,-6.23975
 L -42.362,-5.98085 L -42.4097,-5.7424 L -42.4904,-5.53004 L -42.6056,-5.34946 L -42.7563,-5.20279 L -42.9436,-5.09219
 L -43.1689,-5.02275 L -43.4334,-4.9996 z
M -47.5273,-6.72418 L -47.5281,-6.80518 L -47.5305,-6.89748 L -47.534,-6.99303 L -47.538,-7.08372 L -47.544,-7.18761
 L -47.5488,-7.29257 L -45.9254,-4.70894 L -45.4302,-4.70894 L -45.4302,-7.74257 L -45.8006,-7.74257 L -45.8006,-5.75316
 L -45.7995,-5.65385 L -45.7962,-5.5497 L -45.7919,-5.44716 L -45.7876,-5.35269 L -45.7747,-5.14169 L -47.4153,-7.74257
 L -47.8933,-7.74257 L -47.8933,-4.70894 L -47.5273,-4.70894 z
M -40.2453,-7.40668 L -39.2032,-7.40668 L -39.2032,-7.74257 L -41.6964,-7.74257 L -41.6964,-7.40668 L -40.6543,-7.40668
 L -40.6543,-4.70894 L -40.2453,-4.70894 z
M -36.4134,-5.04482 L -38.392,-5.04482 L -38.392,-6.10196 L -36.6308,-6.10196 L -36.6308,-6.43352 L -38.392,-6.43352
 L -38.392,-7.40668 L -36.5016,-7.40668 L -36.5016,-7.74257 L -38.8032,-7.74257 L -38.8032,-4.70894 L -36.4134,-4.70894
 z
M -49.425,8.63123 L -49.425,-3.86876 L -30.575,-3.86876 L -30.575,8.63123 z
M -36.4401,0.0188293 L -37.1786,0.0188293 L -37.1786,-2.68538 L -37.536,-2.68538 L -38.253,-2.19234 L -38.253,-1.82632
 L -37.5683,-2.31505 L -37.5683,0.0188293 L -38.3413,0.0188293 L -38.3413,0.348236 L -36.4401,0.348236 z
M -42.5508,0.379181 L -42.452,0.368683 L -42.3613,0.352264 L -42.2723,0.330994 L -42.2723,0.0446472 L -42.3323,0.056488
 L -42.3875,0.0661926 L -42.441,0.0726471 L -42.4962,0.0747986 L -42.6116,0.0578461 L -42.6867,0.00698853 L -42.7279,-0.0858459
 L -42.7416,-0.228775 L -42.7416,-1.6993 L -42.311,-1.6993 L -42.311,-1.98132 L -42.7416,-1.98132 L -42.7416,-2.50238
 L -43,-2.50238 L -43.1141,-1.98132 L -43.3983,-1.98132 L -43.3983,-1.6993 L -43.1292,-1.6993 L -43.1292,-0.144791
 L -43.0129,0.250809 L -42.6641,0.382675 z
M -40.8085,0.378647 L -40.6269,0.340714 L -40.4759,0.283112 L -40.3524,0.211517 L -40.2536,0.128098 L -40.1769,0.0349884
 L -40.1185,-0.0627136 L -40.0746,-0.159882 L -40.4148,-0.256744 L -40.4931,-0.115189 L -40.6204,-0.000518799 L -40.7972,0.0753479
 L -41.0241,0.100647 L -41.184,0.0852966 L -41.3191,0.0392761 L -41.4308,-0.0344543 L -41.5204,-0.13295 L -41.5888,-0.254593
 L -41.6367,-0.397781 L -41.6649,-0.559006 L -41.6743,-0.734741 L -40.0122,-0.734741 L -40.0122,-0.786407 L -40.0248,-1.03992
 L -40.0628,-1.27512 L -40.1306,-1.48639 L -40.2329,-1.66805 L -40.3718,-1.81689 L -40.5494,-1.92964 L -40.7703,-2.0007
 L -41.0392,-2.02438 L -41.248,-2.0085 L -41.444,-1.96085 L -41.6216,-1.8777 L -41.7755,-1.75523 L -41.9026,-1.59189
 L -41.9995,-1.38602 L -42.0608,-1.13383 L -42.0813,-0.831619 L -42.0137,-0.299271 L -41.8111,0.0834045 L -41.4792,0.314316
 L -41.0241,0.391281 z
M -41.67,-1.03186 L -41.648,-1.22426 L -41.599,-1.37955 L -41.5296,-1.50201 L -41.4461,-1.59595 L -41.3517,-1.6635
 L -41.2491,-1.70682 L -41.145,-1.73022 L -41.0456,-1.73802 L -40.7889,-1.69577 L -40.6,-1.56903 L -40.4756,-1.35022
 L -40.4127,-1.03186 z
M -47.5617,-1.00169 L -47.5509,-1.16612 L -47.5187,-1.31064 L -47.4667,-1.43446 L -47.397,-1.53673 L -47.3104,-1.61746
 L -47.2076,-1.67665 L -47.09,-1.713 L -46.9589,-1.72511 L -46.8343,-1.71785 L -46.7317,-1.69606 L -46.6491,-1.65677
 L -46.5843,-1.59703 L -46.5361,-1.51602 L -46.5035,-1.41293 L -46.485,-1.28484 L -46.4788,-1.12871 L -46.4788,0.348236
 L -46.0891,0.348236 L -46.0891,-1.20409 L -46.0995,-1.40459 L -46.131,-1.57547 L -46.1851,-1.71732 L -46.2635,-1.83061
 L -46.3663,-1.91675 L -46.4938,-1.97701 L -46.6472,-2.01254 L -46.8275,-2.02438 L -46.9691,-2.01659 L -47.0924,-1.99318
 L -47.2,-1.95551 L -47.2948,-1.90491 L -47.3777,-1.84166 L -47.4498,-1.76604 L -47.5138,-1.67937 L -47.5725,-1.58302
 L -47.579,-1.58302 L -47.5795,-1.6312 L -47.5811,-1.68958 L -47.5835,-1.75256 L -47.5865,-1.81445 L -47.5894,-1.87233
 L -47.5919,-1.9232 L -47.594,-1.96141 L -47.5962,-1.98132 L -47.9622,-1.98132 L -47.9601,-1.95709 L -47.9579,-1.91457
 L -47.9557,-1.85779 L -47.9536,-1.79077 L -47.9517,-1.71651 L -47.9504,-1.63792 L -47.9496,-1.55907 L -47.9493,-1.48396
 L -47.9493,0.348236 L -47.5617,0.348236 z
M -44.192,0.316467 L -43.862,0.0920105 L -43.6601,-0.285294 L -43.5928,-0.818695 L -43.6079,-1.10129 L -43.6532,-1.34618
 L -43.7299,-1.55342 L -43.8394,-1.72298 L -43.9831,-1.85486 L -44.1624,-1.94904 L -44.3779,-2.00554 L -44.6306,-2.02438
 L -45.4138,-1.72296 L -45.6749,-0.818695 L -45.6574,-0.530991 L -45.6049,-0.283676 L -45.5193,-0.0756378 L -45.4025,0.094162
 L -45.2553,0.22551 L -45.0785,0.3181 L -44.8739,0.372986 L -44.6436,0.391281 z
M -44.7762,0.094162 L -44.8944,0.0618744 L -44.9999,0.0032196 L -45.0903,-0.0866699 L -45.1643,-0.21019 L -45.2206,-0.369781
 L -45.2561,-0.570831 L -45.268,-0.818695 L -45.2569,-1.06145 L -45.2238,-1.26007 L -45.1697,-1.41913 L -45.0957,-1.54318
 L -45.0029,-1.63416 L -44.8923,-1.69389 L -44.7655,-1.72699 L -44.6242,-1.73802 L -44.4853,-1.72754 L -44.3615,-1.69606
 L -44.2541,-1.6382 L -44.1645,-1.54858 L -44.0935,-1.42531 L -44.0418,-1.26651 L -44.0103,-1.0663 L -43.9998,-0.818695
 L -44.0111,-0.570557 L -44.045,-0.368698 L -44.0999,-0.208298 L -44.1742,-0.0845032 L -44.2673,0.00508118 L -44.3787,0.0629578
 L -44.5063,0.0944366 L -44.6479,0.104935 z
M -36.4466,3.85164 L -38.0291,3.85164 L -37.9672,3.73132 L -37.8848,3.61588 L -37.7861,3.50365 L -37.6749,3.39305
 L -37.5535,3.28351 L -37.4241,3.17451 L -37.2911,3.06523 L -37.1593,2.9549 L -37.0306,2.84267 L -36.9074,2.72775
 L -36.7941,2.60936 L -36.6953,2.48663 L -36.6129,2.35851 L -36.5489,2.22394 L -36.5077,2.08238 L -36.494,1.93329
 L -36.5101,1.74274 L -36.5586,1.57588 L -36.6374,1.43324 L -36.7448,1.31537 L -36.8802,1.22279 L -37.043,1.15605
 L -37.2319,1.11566 L -37.4456,1.1022 L -37.6622,1.11781 L -37.8515,1.16466 L -38.0143,1.23866 L -38.1518,1.33582
 L -38.2632,1.45343 L -38.3477,1.58881 L -38.4059,1.7379 L -38.4382,1.89668 L -38.042,1.93329 L -38.0181,1.81407
 L -37.9763,1.71043 L -37.9185,1.62244 L -37.8461,1.55003 L -37.7607,1.49353 L -37.6641,1.45317 L -37.5584,1.42892
 L -37.4456,1.42085 L -37.3264,1.4292 L -37.2185,1.45425 L -37.1235,1.49596 L -37.043,1.55435 L -36.9784,1.62891
 L -36.931,1.71907 L -36.9019,1.82483 L -36.8923,1.94621 L -36.9135,2.12167 L -36.9773,2.27779 L -37.0756,2.42096
 L -37.2002,2.55769 L -37.3463,2.69116 L -37.5091,2.82463 L -37.6811,2.96376 L -37.8547,3.11421 L -38.025,3.27946
 L -38.1873,3.46303 L -38.3335,3.67052 L -38.4554,3.90762 L -38.4554,4.18105 L -36.4466,4.18105 z
M -42.5508,4.21201 L -42.452,4.20149 L -42.3613,4.18507 L -42.2723,4.1638 L -42.2723,3.87746 L -42.3323,3.88931
 L -42.3875,3.89902 L -42.441,3.90547 L -42.4962,3.90762 L -42.6116,3.89067 L -42.6867,3.8398 L -42.7279,3.74695
 L -42.7416,3.60402 L -42.7416,2.13351 L -42.311,2.13351 L -42.311,1.85147 L -42.7416,1.85147 L -42.7416,1.33043
 L -43,1.33043 L -43.1141,1.85147 L -43.3983,1.85147 L -43.3983,2.13351 L -43.1292,2.13351 L -43.1292,3.688
 L -43.0129,4.08363 L -42.6641,4.2155 z
M -40.8085,4.21146 L -40.6269,4.17352 L -40.4759,4.11592 L -40.3524,4.04434 L -40.2536,3.96091 L -40.1769,3.8678
 L -40.1185,3.7701 L -40.0746,3.67293 L -40.4148,3.57605 L -40.4931,3.71761 L -40.6204,3.83228 L -40.7972,3.90817
 L -41.0241,3.93347 L -41.184,3.91812 L -41.3191,3.87209 L -41.4308,3.79834 L -41.5204,3.69984 L -41.5888,3.5782
 L -41.6367,3.43503 L -41.6649,3.2738 L -41.6743,3.09805 L -40.0122,3.09805 L -40.0122,3.0464 L -40.0248,2.79289
 L -40.0628,2.55769 L -40.1306,2.34641 L -40.2329,2.16475 L -40.3718,2.01591 L -40.5494,1.90317 L -40.7703,1.83211
 L -41.0392,1.80843 L -41.248,1.82431 L -41.444,1.87195 L -41.6216,1.95511 L -41.7755,2.07756 L -41.9026,2.24091
 L -41.9995,2.44679 L -42.0608,2.69894 L -42.0813,3.00119 L -42.0137,3.53352 L -41.8111,3.91623 L -41.4792,4.14714
 L -41.0241,4.22411 z
M -41.67,2.80095 L -41.648,2.60855 L -41.599,2.45326 L -41.5296,2.33078 L -41.4461,2.23686 L -41.3517,2.16931
 L -41.2491,2.12598 L -41.145,2.10257 L -41.0456,2.09477 L -40.7889,2.13702 L -40.6,2.26378 L -40.4756,2.48257
 L -40.4127,2.80095 z
M -44.192,4.14929 L -43.862,3.92484 L -43.6601,3.54752 L -43.5928,3.01411 L -43.6079,2.73152 L -43.6532,2.48663
 L -43.7299,2.27939 L -43.8394,2.10982 L -43.9831,1.97795 L -44.1624,1.88376 L -44.3779,1.82726 L -44.6306,1.80843
 L -45.4138,2.10985 L -45.6749,3.01411 L -45.6574,3.3018 L -45.6049,3.54913 L -45.5193,3.75717 L -45.4025,3.92699
 L -45.2553,4.05833 L -45.0785,4.15092 L -44.8739,4.20581 L -44.6436,4.22411 z
M -44.7762,3.92699 L -44.8944,3.8947 L -44.9999,3.83603 L -45.0903,3.74614 L -45.1643,3.6226 L -45.2206,3.46303
 L -45.2561,3.26198 L -45.268,3.01411 L -45.2569,2.77135 L -45.2238,2.57274 L -45.1697,2.41368 L -45.0957,2.28963
 L -45.0029,2.19865 L -44.8923,2.1389 L -44.7655,2.1058 L -44.6242,2.09477 L -44.4853,2.10527 L -44.3615,2.13675
 L -44.2541,2.19461 L -44.1645,2.28423 L -44.0935,2.4075 L -44.0418,2.5663 L -44.0103,2.76649 L -43.9998,3.01411
 L -44.0111,3.26225 L -44.045,3.46411 L -44.0999,3.6245 L -44.1742,3.74829 L -44.2673,3.83791 L -44.3787,3.89578
 L -44.5063,3.92726 L -44.6479,3.93774 z
M -47.5617,2.8311 L -47.5509,2.66667 L -47.5187,2.52216 L -47.4667,2.39835 L -47.397,2.29607 L -47.3104,2.21533
 L -47.2076,2.15614 L -47.09,2.11981 L -46.9589,2.1077 L -46.8343,2.11496 L -46.7317,2.13675 L -46.6491,2.17603
 L -46.5843,2.23578 L -46.5361,2.31679 L -46.5035,2.41986 L -46.485,2.54797 L -46.4788,2.70407 L -46.4788,4.18105
 L -46.0891,4.18105 L -46.0891,2.62871 L -46.0995,2.42822 L -46.131,2.25734 L -46.1851,2.11549 L -46.2635,2.0022
 L -46.3663,1.91606 L -46.4938,1.85579 L -46.6472,1.82027 L -46.8275,1.80843 L -46.9691,1.81622 L -47.0924,1.83963
 L -47.2,1.8773 L -47.2948,1.9279 L -47.3777,1.99113 L -47.4498,2.06677 L -47.5138,2.15343 L -47.5725,2.24977
 L -47.579,2.24977 L -47.5795,2.20161 L -47.5811,2.14322 L -47.5835,2.08025 L -47.5865,2.01836 L -47.5894,1.96048
 L -47.5919,1.90961 L -47.594,1.87138 L -47.5962,1.85147 L -47.9622,1.85147 L -47.9601,1.8757 L -47.9579,1.91824
 L -47.9557,1.97502 L -47.9536,2.04204 L -47.9517,2.1163 L -47.9504,2.19489 L -47.9496,2.27374 L -47.9493,2.34883
 L -47.9493,4.18105 L -47.5617,4.18105 z
M -37.2139,8.0193 L -37.0075,7.97491 L -36.8304,7.90225 L -36.6845,7.80267 L -36.5699,7.67697 L -36.4864,7.526
 L -36.4356,7.35106 L -36.4186,7.15352 L -36.4296,7.02327 L -36.4627,6.89949 L -36.5179,6.78535 L -36.5952,6.68416
 L -36.6953,6.59723 L -36.8191,6.52591 L -36.9666,6.47343 L -37.1377,6.44302 L -37.1377,6.43442 L -36.9819,6.39191
 L -36.8503,6.33324 L -36.7413,6.26001 L -36.6533,6.17389 L -36.586,6.07539 L -36.5392,5.96506 L -36.5117,5.84448
 L -36.5026,5.71529 L -36.5163,5.55437 L -36.5575,5.40312 L -36.6277,5.26611 L -36.7287,5.14798 L -36.8616,5.05055
 L -37.0279,4.97574 L -37.2287,4.92809 L -37.465,4.9122 L -37.6512,4.92432 L -37.8267,4.96065 L -37.9874,5.02148
 L -38.1292,5.10709 L -38.25,5.21768 L -38.3477,5.35359 L -38.4182,5.51506 L -38.4575,5.70236 L -38.0678,5.73253
 L -38.0089,5.52043 L -37.8837,5.3622 L -37.701,5.26369 L -37.4693,5.23085 L -37.222,5.2661 L -37.0441,5.37187
 L -36.9367,5.53848 L -36.9009,5.75621 L -36.9168,5.89938 L -36.9644,6.01456 L -37.0365,6.10526 L -37.1259,6.17496
 L -37.229,6.22502 L -37.3423,6.25679 L -37.4585,6.27374 L -37.5705,6.27939 L -37.7815,6.27939 L -37.7815,6.61526
 L -37.5619,6.61526 L -37.447,6.6201 L -37.3218,6.63463 L -37.1964,6.66342 L -37.0807,6.71104 L -36.9789,6.77942
 L -36.8955,6.87041 L -36.8398,6.98907 L -36.8212,7.14059 L -36.8629,7.3898 L -36.9881,7.56906 L -37.1864,7.67725
 L -37.4478,7.7133 L -37.5963,7.70361 L -37.7233,7.67456 L -37.8305,7.62773 L -37.9193,7.56474 L -37.9906,7.48669
 L -38.0452,7.39465 L -38.0842,7.29024 L -38.1087,7.17505 L -38.5092,7.21165 L -38.4791,7.36639 L -38.4274,7.5163
 L -38.3493,7.6557 L -38.2401,7.77896 L -38.0983,7.88284 L -37.9225,7.96413 L -37.7075,8.0166 L -37.4478,8.0341
 z
M -42.5508,8.022 L -42.452,8.01149 L -42.3613,7.99507 L -42.2723,7.9738 L -42.2723,7.68745 L -42.3323,7.69931
 L -42.3875,7.70901 L -42.441,7.71547 L -42.4962,7.71762 L -42.6116,7.70067 L -42.6867,7.6498 L -42.7279,7.55695
 L -42.7416,7.41402 L -42.7416,5.94351 L -42.311,5.94351 L -42.311,5.66147 L -42.7416,5.66147 L -42.7416,5.14043
 L -43,5.14043 L -43.1141,5.66147 L -43.3983,5.66147 L -43.3983,5.94351 L -43.1292,5.94351 L -43.1292,7.498
 L -43.0129,7.89363 L -42.6641,8.0255 z
M -47.5617,6.6411 L -47.5509,6.47667 L -47.5187,6.33215 L -47.4667,6.20834 L -47.397,6.10606 L -47.3104,6.02533
 L -47.2076,5.96614 L -47.09,5.92981 L -46.9589,5.91769 L -46.8343,5.92496 L -46.7317,5.94675 L -46.6491,5.98602
 L -46.5843,6.04578 L -46.5361,6.12679 L -46.5035,6.22986 L -46.485,6.35797 L -46.4788,6.51407 L -46.4788,7.99104
 L -46.0891,7.99104 L -46.0891,6.43871 L -46.0995,6.23822 L -46.131,6.06734 L -46.1851,5.92549 L -46.2635,5.81219
 L -46.3663,5.72606 L -46.4938,5.66579 L -46.6472,5.63026 L -46.8275,5.61842 L -46.9691,5.62622 L -47.0924,5.64963
 L -47.2,5.6873 L -47.2948,5.7379 L -47.3777,5.80113 L -47.4498,5.87677 L -47.5138,5.96342 L -47.5725,6.05977
 L -47.579,6.05977 L -47.5795,6.01161 L -47.5811,5.95322 L -47.5835,5.89024 L -47.5865,5.82835 L -47.5894,5.77048
 L -47.5919,5.7196 L -47.594,5.68138 L -47.5962,5.66147 L -47.9622,5.66147 L -47.9601,5.6857 L -47.9579,5.72824
 L -47.9557,5.78502 L -47.9536,5.85204 L -47.9517,5.9263 L -47.9504,6.00488 L -47.9496,6.08374 L -47.9493,6.15883
 L -47.9493,7.99104 L -47.5617,7.99104 z
M -44.192,7.95929 L -43.862,7.73483 L -43.6601,7.35751 L -43.5928,6.82411 L -43.6079,6.54152 L -43.6532,6.29663
 L -43.7299,6.08939 L -43.8394,5.91982 L -43.9831,5.78795 L -44.1624,5.69376 L -44.3779,5.63725 L -44.6306,5.61842
 L -45.4138,5.91985 L -45.6749,6.82411 L -45.6574,7.1118 L -45.6049,7.35913 L -45.5193,7.56717 L -45.4025,7.73698
 L -45.2553,7.86833 L -45.0785,7.96092 L -44.8739,8.01581 L -44.6436,8.0341 z
M -44.7762,7.73698 L -44.8944,7.7047 L -44.9999,7.64603 L -45.0903,7.55614 L -45.1643,7.4326 L -45.2206,7.27303
 L -45.2561,7.07198 L -45.268,6.82411 L -45.2569,6.58134 L -45.2238,6.38274 L -45.1697,6.22368 L -45.0957,6.09962
 L -45.0029,6.00865 L -44.8923,5.9489 L -44.7655,5.9158 L -44.6242,5.90477 L -44.4853,5.91527 L -44.3615,5.94675
 L -44.2541,6.00461 L -44.1645,6.09422 L -44.0935,6.2175 L -44.0418,6.3763 L -44.0103,6.57649 L -43.9998,6.82411
 L -44.0111,7.07225 L -44.045,7.27411 L -44.0999,7.43449 L -44.1742,7.55829 L -44.2673,7.6479 L -44.3787,7.70578
 L -44.5063,7.73726 L -44.6479,7.74774 z
M -40.8085,8.02145 L -40.6269,7.98352 L -40.4759,7.92592 L -40.3524,7.85434 L -40.2536,7.7709 L -40.1769,7.6778
 L -40.1185,7.58009 L -40.0746,7.48293 L -40.4148,7.38605 L -40.4931,7.5276 L -40.6204,7.64227 L -40.7972,7.71817
 L -41.0241,7.74347 L -41.184,7.72812 L -41.3191,7.68208 L -41.4308,7.60834 L -41.5204,7.50984 L -41.5888,7.3882
 L -41.6367,7.24503 L -41.6649,7.0838 L -41.6743,6.90805 L -40.0122,6.90805 L -40.0122,6.8564 L -40.0248,6.60289
 L -40.0628,6.36769 L -40.1306,6.1564 L -40.2329,5.97475 L -40.3718,5.82591 L -40.5494,5.71317 L -40.7703,5.64211
 L -41.0392,5.61842 L -41.248,5.63431 L -41.444,5.68195 L -41.6216,5.76511 L -41.7755,5.88756 L -41.9026,6.0509
 L -41.9995,6.25679 L -42.0608,6.50894 L -42.0813,6.81119 L -42.0137,7.34352 L -41.8111,7.72623 L -41.4792,7.95714
 L -41.0241,8.0341 z
M -41.67,6.61095 L -41.648,6.41855 L -41.599,6.26326 L -41.5296,6.14078 L -41.4461,6.04686 L -41.3517,5.97931
 L -41.2491,5.93597 L -41.145,5.91257 L -41.0456,5.90477 L -40.7889,5.94702 L -40.6,6.07378 L -40.4756,6.29257
 L -40.4127,6.61095 z
M 36.825,-8.73125 L 36.725,-8.83124 L 35.475,-8.83124 L 35.375,-8.73125 L 35.475,-8.63126 L 36.725,-8.63126
 z
M 30.575,-4.98125 L 30.575,-8.63126 L 34.225,-8.63126 L 34.325,-8.73125 L 34.225,-8.83124 L 30.475,-8.83124
 L 30.375,-8.73125 L 30.375,-4.98125 L 30.475,-4.88126 z
M 49.625,-4.98125 L 49.625,-8.73125 L 49.525,-8.83124 L 49.425,-8.73125 L 49.425,-4.98125 L 49.525,-4.88126
 z
M 49.325,-8.73125 L 49.225,-8.83124 L 45.475,-8.83124 L 45.375,-8.73125 L 45.475,-8.63126 L 49.225,-8.63126
 z
M 41.825,-8.73125 L 41.725,-8.83124 L 37.975,-8.83124 L 37.875,-8.73125 L 37.975,-8.63126 L 41.725,-8.63126
 z
M 44.325,-8.73125 L 44.225,-8.83124 L 42.975,-8.83124 L 42.875,-8.73125 L 42.975,-8.63126 L 44.225,-8.63126
 z
M 41.4506,-4.69386 L 41.7493,-4.77783 L 42.0077,-4.91347 L 42.223,-5.09647 L 42.3939,-5.32416 L 42.5191,-5.59384
 L 42.5958,-5.90065 L 42.6214,-6.23975 L 42.5966,-6.57454 L 42.5223,-6.87703 L 42.4004,-7.1424 L 42.2327,-7.36575
 L 42.0196,-7.54501 L 41.7612,-7.67796 L 41.4601,-7.76033 L 41.1185,-7.78778 L 40.7754,-7.76059 L 40.4737,-7.67903
 L 40.215,-7.54716 L 40.0011,-7.369 L 39.8326,-7.14644 L 39.7104,-6.88135 L 39.6362,-6.57777 L 39.6114,-6.23975
 L 39.6351,-5.91089 L 39.7061,-5.60892 L 39.824,-5.34006 L 39.9882,-5.11047 L 40.1992,-4.92369 L 40.4575,-4.7832
 L 40.7627,-4.69521 L 41.1142,-4.66588 z
M 40.8647,-5.02248 L 40.6459,-5.09111 L 40.4591,-5.20091 L 40.3057,-5.34731 L 40.1857,-5.52762 L 40.099,-5.73915
 L 40.0466,-5.97789 L 40.0291,-6.23975 L 40.046,-6.50079 L 40.0969,-6.73708 L 40.1819,-6.94485 L 40.3015,-7.12033
 L 40.4551,-7.26135 L 40.6427,-7.36575 L 40.8639,-7.43036 L 41.1185,-7.45189 L 41.3678,-7.43036 L 41.5857,-7.36575
 L 41.7717,-7.26135 L 41.9248,-7.12033 L 42.0449,-6.94485 L 42.1315,-6.73708 L 42.184,-6.50079 L 42.2015,-6.23975
 L 42.1856,-5.98085 L 42.138,-5.7424 L 42.0572,-5.53004 L 41.942,-5.34946 L 41.7913,-5.20279 L 41.604,-5.09219
 L 41.3788,-5.02275 L 41.1142,-4.9996 z
M -0.823181,-4.69386 L -0.52446,-4.77783 L -0.266083,-4.91347 L -0.0507812,-5.09647 L 0.120102,-5.32416 L 0.245255,-5.59384
 L 0.32196,-5.90065 L 0.347519,-6.23975 L 0.322754,-6.57454 L 0.248459,-6.87703 L 0.126556,-7.1424 L -0.0410919,-7.36575
 L -0.254242,-7.54501 L -0.512619,-7.67796 L -0.813751,-7.76033 L -1.15527,-7.78778 L -1.49843,-7.76059 L -1.80014,-7.67903
 L -2.05876,-7.54716 L -2.27271,-7.369 L -2.44118,-7.14644 L -2.56339,-6.88135 L -2.63765,-6.57777 L -2.66241,-6.23975
 L -2.63873,-5.91089 L -2.5677,-5.60892 L -2.44981,-5.34006 L -2.28563,-5.11047 L -2.07463,-4.92369 L -1.81627,-4.7832
 L -1.51106,-4.69521 L -1.15959,-4.66588 z
M -1.40907,-5.02248 L -1.6279,-5.09111 L -1.81467,-5.20091 L -1.96806,-5.34731 L -2.0881,-5.52762 L -2.17476,-5.73915
 L -2.22725,-5.97789 L -2.24474,-6.23975 L -2.22778,-6.50079 L -2.17693,-6.73708 L -2.09186,-6.94485 L -1.97235,-7.12033
 L -1.81868,-7.26135 L -1.6311,-7.36575 L -1.40988,-7.43036 L -1.15527,-7.45189 L -0.906052,-7.43036 L -0.688065,-7.36575
 L -0.502106,-7.26135 L -0.348969,-7.12033 L -0.228943,-6.94485 L -0.142288,-6.73708 L -0.089798,-6.50079 L -0.0723114,-6.23975
 L -0.0881958,-5.98085 L -0.135834,-5.7424 L -0.216568,-5.53004 L -0.331772,-5.34946 L -0.482468,-5.20279 L -0.669785,-5.09219
 L -0.895035,-5.02275 L -1.15959,-4.9996 z
M -5.25343,-6.72418 L -5.25424,-6.80518 L -5.25667,-6.89748 L -5.26018,-6.99303 L -5.26421,-7.08372 L -5.27013,-7.18761
 L -5.27496,-7.29257 L -3.65158,-4.70894 L -3.15639,-4.70894 L -3.15639,-7.74257 L -3.52672,-7.74257 L -3.52672,-5.75316
 L -3.52563,-5.65385 L -3.5224,-5.5497 L -3.51808,-5.44716 L -3.51379,-5.35269 L -3.50087,-5.14169 L -5.14148,-7.74257
 L -5.61945,-7.74257 L -5.61945,-4.70894 L -5.25343,-4.70894 z
M 2.02853,-7.40668 L 3.0706,-7.40668 L 3.0706,-7.74257 L 0.577362,-7.74257 L 0.577362,-7.40668 L 1.61946,-7.40668
 L 1.61946,-4.70894 L 2.02853,-4.70894 z
M 5.86043,-5.04482 L 3.88179,-5.04482 L 3.88179,-6.10196 L 5.64297,-6.10196 L 5.64297,-6.43352 L 3.88179,-6.43352
 L 3.88179,-7.40668 L 5.77216,-7.40668 L 5.77216,-7.74257 L 3.47057,-7.74257 L 3.47057,-4.70894 L 5.86043,-4.70894
 z
M 48.1343,-5.04482 L 46.1556,-5.04482 L 46.1556,-6.10196 L 47.9168,-6.10196 L 47.9168,-6.43352 L 46.1556,-6.43352
 L 46.1556,-7.40668 L 48.046,-7.40668 L 48.046,-7.74257 L 45.7444,-7.74257 L 45.7444,-4.70894 L 48.1343,-4.70894
 z
M 44.3024,-7.40668 L 45.3444,-7.40668 L 45.3444,-7.74257 L 42.8512,-7.74257 L 42.8512,-7.40668 L 43.8933,-7.40668
 L 43.8933,-4.70894 L 44.3024,-4.70894 z
M 37.0204,-6.72418 L 37.0196,-6.80518 L 37.0171,-6.89748 L 37.0136,-6.99303 L 37.0096,-7.08372 L 37.0037,-7.18761
 L 36.9988,-7.29257 L 38.6222,-4.70894 L 39.1174,-4.70894 L 39.1174,-7.74257 L 38.7471,-7.74257 L 38.7471,-5.75316
 L 38.7482,-5.65385 L 38.7514,-5.5497 L 38.7557,-5.44716 L 38.76,-5.35269 L 38.7729,-5.14169 L 37.1323,-7.74257
 L 36.6544,-7.74257 L 36.6544,-4.70894 L 37.0204,-4.70894 z
M -8.175,-3.96875 L -8.27499,-4.06876 L -9.52499,-4.06876 L -9.62498,-3.96875 L -9.52499,-3.86876 L -8.27499,-3.86876
 z
M 34.325,-3.96875 L 34.225,-4.06876 L 30.475,-4.06876 L 30.375,-3.96875 L 30.475,-3.86876 L 34.225,-3.86876
 z
M 49.325,-3.96875 L 49.225,-4.06876 L 45.475,-4.06876 L 45.375,-3.96875 L 45.475,-3.86876 L 49.225,-3.86876
 z
M 44.325,-3.96875 L 44.225,-4.06876 L 42.975,-4.06876 L 42.875,-3.96875 L 42.975,-3.86876 L 44.225,-3.86876
 z
M 41.825,-3.96875 L 41.725,-4.06876 L 37.975,-4.06876 L 37.875,-3.96875 L 37.975,-3.86876 L 41.725,-3.86876
 z
M 36.825,-3.96875 L 36.725,-4.06876 L 35.475,-4.06876 L 35.375,-3.96875 L 35.475,-3.86876 L 36.725,-3.86876
 z
M 9.62498,-3.96875 L 9.52498,-4.06876 L 8.27498,-4.06876 L 8.17499,-3.96875 L 8.27498,-3.86876 L 9.52498,-3.86876
 z
M 49.625,-2.48125 L 49.625,-3.73125 L 49.525,-3.83125 L 49.425,-3.73125 L 49.425,-2.48125 L 49.525,-2.38126
 z
M 30.575,-2.48125 L 30.575,-3.73125 L 30.475,-3.83125 L 30.375,-3.73125 L 30.375,-2.48125 L 30.475,-2.38126
 z
M 48.097,0.0188293 L 47.3586,0.0188293 L 47.3586,-2.68538 L 47.0011,-2.68538 L 46.2842,-2.19234 L 46.2842,-1.82632
 L 46.9688,-2.31505 L 46.9688,0.0188293 L 46.1959,0.0188293 L 46.1959,0.348236 L 48.097,0.348236 z
M 5.82843,0.0188293 L 5.08995,0.0188293 L 5.08995,-2.68538 L 4.73254,-2.68538 L 4.01556,-2.19234 L 4.01556,-1.82632
 L 4.70023,-2.31505 L 4.70023,0.0188293 L 3.92731,0.0188293 L 3.92731,0.348236 L 5.82843,0.348236 z
M -0.282211,0.379181 L -0.183426,0.368683 L -0.0927429,0.352264 L -0.00366211,0.330994 L -0.00366211,0.0446472 L -0.0636749,0.056488
 L -0.118851,0.0661926 L -0.172394,0.0726471 L -0.22757,0.0747986 L -0.343033,0.0578461 L -0.418121,0.00698853 L -0.459305,-0.0858459
 L -0.473022,-0.228775 L -0.473022,-1.6993 L -0.0424042,-1.6993 L -0.0424042,-1.98132 L -0.473022,-1.98132 L -0.473022,-2.50238
 L -0.731369,-2.50238 L -0.84552,-1.98132 L -1.12971,-1.98132 L -1.12971,-1.6993 L -0.860565,-1.6993 L -0.860565,-0.144791
 L -0.744308,0.250809 L -0.395523,0.382675 z
M 41.9864,0.379181 L 42.0851,0.368683 L 42.1758,0.352264 L 42.2649,0.330994 L 42.2649,0.0446472 L 42.2049,0.056488
 L 42.1497,0.0661926 L 42.0962,0.0726471 L 42.041,0.0747986 L 41.9255,0.0578461 L 41.8504,0.00698853 L 41.8093,-0.0858459
 L 41.7955,-0.228775 L 41.7955,-1.6993 L 42.2262,-1.6993 L 42.2262,-1.98132 L 41.7955,-1.98132 L 41.7955,-2.50238
 L 41.5372,-2.50238 L 41.423,-1.98132 L 41.1389,-1.98132 L 41.1389,-1.6993 L 41.408,-1.6993 L 41.408,-0.144791
 L 41.5243,0.250809 L 41.873,0.382675 z
M -5.29312,-1.00169 L -5.28236,-1.16612 L -5.25008,-1.31064 L -5.19814,-1.43446 L -5.12843,-1.53673 L -5.04178,-1.61746
 L -4.93898,-1.67665 L -4.82137,-1.713 L -4.69029,-1.72511 L -4.56569,-1.71785 L -4.46315,-1.69606 L -4.38052,-1.65677
 L -4.31567,-1.59703 L -4.26749,-1.51602 L -4.23492,-1.41293 L -4.21635,-1.28484 L -4.21016,-1.12871 L -4.21016,0.348236
 L -3.82047,0.348236 L -3.82047,-1.20409 L -3.83096,-1.40459 L -3.86244,-1.57547 L -3.91653,-1.71732 L -3.99487,-1.83061
 L -4.09767,-1.91675 L -4.22525,-1.97701 L -4.37863,-2.01254 L -4.55894,-2.02438 L -4.7005,-2.01659 L -4.82376,-1.99318
 L -4.93143,-1.95551 L -5.02617,-1.90491 L -5.10905,-1.84166 L -5.18117,-1.76604 L -5.24522,-1.67937 L -5.30389,-1.58302
 L -5.31036,-1.58302 L -5.3109,-1.6312 L -5.31253,-1.68958 L -5.31493,-1.75256 L -5.31789,-1.81445 L -5.32086,-1.87233
 L -5.32329,-1.9232 L -5.32544,-1.96141 L -5.32758,-1.98132 L -5.69359,-1.98132 L -5.69145,-1.95709 L -5.6893,-1.91457
 L -5.68715,-1.85779 L -5.68498,-1.79077 L -5.68311,-1.71651 L -5.68178,-1.63792 L -5.68097,-1.55907 L -5.68069,-1.48396
 L -5.68069,0.348236 L -5.29312,0.348236 z
M 43.7286,0.378647 L 43.9103,0.340714 L 44.0612,0.283112 L 44.1848,0.211517 L 44.2836,0.128098 L 44.3603,0.0349884
 L 44.4187,-0.0627136 L 44.4625,-0.159882 L 44.1224,-0.256744 L 44.044,-0.115189 L 43.9167,-0.000518799 L 43.7399,0.0753479
 L 43.513,0.100647 L 43.3532,0.0852966 L 43.218,0.0392761 L 43.1064,-0.0344543 L 43.0168,-0.13295 L 42.9484,-0.254593
 L 42.9005,-0.397781 L 42.8722,-0.559006 L 42.8628,-0.734741 L 44.525,-0.734741 L 44.525,-0.786407 L 44.5123,-1.03992
 L 44.4744,-1.27512 L 44.4065,-1.48639 L 44.3043,-1.66805 L 44.1654,-1.81689 L 43.9878,-1.92964 L 43.7668,-2.0007
 L 43.498,-2.02438 L 43.2891,-2.0085 L 43.0932,-1.96085 L 42.9156,-1.8777 L 42.7616,-1.75523 L 42.6346,-1.59189
 L 42.5377,-1.38602 L 42.4763,-1.13383 L 42.4559,-0.831619 L 42.5234,-0.299271 L 42.7261,0.0834045 L 43.0579,0.314316
 L 43.513,0.391281 z
M 42.8671,-1.03186 L 42.8892,-1.22426 L 42.9381,-1.37955 L 43.0076,-1.50201 L 43.091,-1.59595 L 43.1855,-1.6635
 L 43.288,-1.70682 L 43.3922,-1.73022 L 43.4915,-1.73802 L 43.7482,-1.69577 L 43.9372,-1.56903 L 44.0615,-1.35022
 L 44.1245,-1.03186 z
M 40.3452,0.316467 L 40.6752,0.0920105 L 40.877,-0.285294 L 40.9443,-0.818695 L 40.9292,-1.10129 L 40.884,-1.34618
 L 40.8073,-1.55342 L 40.6978,-1.72298 L 40.554,-1.85486 L 40.3748,-1.94904 L 40.1592,-2.00554 L 39.9065,-2.02438
 L 39.1234,-1.72296 L 38.8623,-0.818695 L 38.8798,-0.530991 L 38.9323,-0.283676 L 39.0179,-0.0756378 L 39.1346,0.094162
 L 39.2819,0.22551 L 39.4587,0.3181 L 39.6632,0.372986 L 39.8936,0.391281 z
M 39.7609,0.094162 L 39.6428,0.0618744 L 39.5373,0.0032196 L 39.4469,-0.0866699 L 39.3728,-0.21019 L 39.3166,-0.369781
 L 39.2811,-0.570831 L 39.2692,-0.818695 L 39.2802,-1.06145 L 39.3133,-1.26007 L 39.3674,-1.41913 L 39.4415,-1.54318
 L 39.5343,-1.63416 L 39.6449,-1.69389 L 39.7717,-1.72699 L 39.913,-1.73802 L 40.0518,-1.72754 L 40.1756,-1.69606
 L 40.283,-1.6382 L 40.3727,-1.54858 L 40.4437,-1.42531 L 40.4954,-1.26651 L 40.5269,-1.0663 L 40.5374,-0.818695
 L 40.5261,-0.570557 L 40.4922,-0.368698 L 40.4373,-0.208298 L 40.363,-0.0845032 L 40.2699,0.00508118 L 40.1584,0.0629578
 L 40.0309,0.0944366 L 39.8893,0.104935 z
M 36.9754,-1.00169 L 36.9862,-1.16612 L 37.0185,-1.31064 L 37.0704,-1.43446 L 37.1401,-1.53673 L 37.2268,-1.61746
 L 37.3296,-1.67665 L 37.4472,-1.713 L 37.5783,-1.72511 L 37.7029,-1.71785 L 37.8054,-1.69606 L 37.888,-1.65677
 L 37.9529,-1.59703 L 38.0011,-1.51602 L 38.0336,-1.41293 L 38.0522,-1.28484 L 38.0584,-1.12871 L 38.0584,0.348236
 L 38.4481,0.348236 L 38.4481,-1.20409 L 38.4376,-1.40459 L 38.4061,-1.57547 L 38.352,-1.71732 L 38.2737,-1.83061
 L 38.1709,-1.91675 L 38.0433,-1.97701 L 37.8899,-2.01254 L 37.7096,-2.02438 L 37.5681,-2.01659 L 37.4448,-1.99318
 L 37.3371,-1.95551 L 37.2424,-1.90491 L 37.1595,-1.84166 L 37.0874,-1.76604 L 37.0233,-1.67937 L 36.9647,-1.58302
 L 36.9582,-1.58302 L 36.9577,-1.6312 L 36.956,-1.68958 L 36.9536,-1.75256 L 36.9507,-1.81445 L 36.9477,-1.87233
 L 36.9453,-1.9232 L 36.9431,-1.96141 L 36.941,-1.98132 L 36.575,-1.98132 L 36.5771,-1.95709 L 36.5793,-1.91457
 L 36.5814,-1.85779 L 36.5836,-1.79077 L 36.5855,-1.71651 L 36.5868,-1.63792 L 36.5876,-1.55907 L 36.5879,-1.48396
 L 36.5879,0.348236 L 36.9754,0.348236 z
M -1.92337,0.316467 L -1.5934,0.0920105 L -1.39154,-0.285294 L -1.32426,-0.818695 L -1.33934,-1.10129 L -1.38455,-1.34618
 L -1.46126,-1.55342 L -1.5708,-1.72298 L -1.71451,-1.85486 L -1.89375,-1.94904 L -2.10933,-2.00554 L -2.36205,-2.02438
 L -3.1452,-1.72296 L -3.40627,-0.818695 L -3.38878,-0.530991 L -3.33629,-0.283676 L -3.2507,-0.0756378 L -3.13391,0.094162
 L -2.98669,0.22551 L -2.80988,0.3181 L -2.60535,0.372986 L -2.37497,0.391281 z
M -2.50764,0.094162 L -2.62579,0.0618744 L -2.73128,0.0032196 L -2.82172,-0.0866699 L -2.89574,-0.21019 L -2.95198,-0.369781
 L -2.98752,-0.570831 L -2.99936,-0.818695 L -2.98833,-1.06145 L -2.95523,-1.26007 L -2.90112,-1.41913 L -2.82712,-1.54318
 L -2.73427,-1.63416 L -2.62366,-1.69389 L -2.49689,-1.72699 L -2.35559,-1.73802 L -2.21671,-1.72754 L -2.09293,-1.69606
 L -1.98553,-1.6382 L -1.89592,-1.54858 L -1.82487,-1.42531 L -1.77321,-1.26651 L -1.7417,-1.0663 L -1.7312,-0.818695
 L -1.74251,-0.570557 L -1.77641,-0.368698 L -1.83131,-0.208298 L -1.90561,-0.0845032 L -1.9987,0.00508118 L -2.11014,0.0629578
 L -2.2377,0.0944366 L -2.37929,0.104935 z
M 1.46001,0.378647 L 1.64168,0.340714 L 1.79266,0.283112 L 1.91618,0.211517 L 2.01497,0.128098 L 2.09166,0.0349884
 L 2.15007,-0.0627136 L 2.19394,-0.159882 L 1.85376,-0.256744 L 1.77544,-0.115189 L 1.64812,-0.000518799 L 1.47131,0.0753479
 L 1.24445,0.100647 L 1.08458,0.0852966 L 0.949463,0.0392761 L 0.837784,-0.0344543 L 0.748169,-0.13295 L 0.67981,-0.254593
 L 0.631897,-0.397781 L 0.603638,-0.559006 L 0.594208,-0.734741 L 2.25639,-0.734741 L 2.25639,-0.786407 L 2.24373,-1.03992
 L 2.20578,-1.27512 L 2.13794,-1.48639 L 2.03566,-1.66805 L 1.8968,-1.81689 L 1.71918,-1.92964 L 1.49821,-2.0007
 L 1.22937,-2.02438 L 1.02052,-2.0085 L 0.824585,-1.96085 L 0.646973,-1.8777 L 0.493027,-1.75523 L 0.365982,-1.59189
 L 0.269089,-1.38602 L 0.207748,-1.13383 L 0.187302,-0.831619 L 0.254852,-0.299271 L 0.457489,0.0834045 L 0.789352,0.314316
 L 1.24445,0.391281 z
M 0.598526,-1.03186 L 0.62059,-1.22426 L 0.669556,-1.37955 L 0.738998,-1.50201 L 0.822433,-1.59595 L 0.916916,-1.6635
 L 1.01944,-1.70682 L 1.1236,-1.73022 L 1.22293,-1.73802 L 1.47966,-1.69577 L 1.66856,-1.56903 L 1.79292,-1.35022
 L 1.8559,-1.03186 z
M 49.625,2.51874 L 49.625,-1.23125 L 49.525,-1.33125 L 49.425,-1.23125 L 49.425,2.51874 L 49.525,2.61873
 z
M 30.575,2.51874 L 30.575,-1.23125 L 30.475,-1.33125 L 30.375,-1.23125 L 30.375,2.51874 L 30.475,2.61873
 z
M 48.0906,3.85164 L 46.5081,3.85164 L 46.57,3.73132 L 46.6523,3.61588 L 46.7511,3.50365 L 46.8623,3.39305
 L 46.9836,3.28351 L 47.1131,3.17451 L 47.246,3.06523 L 47.3779,2.9549 L 47.5065,2.84267 L 47.6298,2.72775
 L 47.7431,2.60936 L 47.8419,2.48663 L 47.9242,2.35851 L 47.9883,2.22394 L 48.0295,2.08238 L 48.0432,1.93329
 L 48.0271,1.74274 L 47.9786,1.57588 L 47.8997,1.43324 L 47.7923,1.31537 L 47.657,1.22279 L 47.4942,1.15605
 L 47.3052,1.11566 L 47.0916,1.1022 L 46.8749,1.11781 L 46.6857,1.16466 L 46.5229,1.23866 L 46.3853,1.33582
 L 46.2739,1.45343 L 46.1894,1.58881 L 46.1313,1.7379 L 46.099,1.89668 L 46.4952,1.93329 L 46.5191,1.81407
 L 46.5608,1.71043 L 46.6187,1.62244 L 46.6911,1.55003 L 46.7764,1.49353 L 46.873,1.45317 L 46.9788,1.42892
 L 47.0916,1.42085 L 47.2108,1.4292 L 47.3187,1.45425 L 47.4137,1.49596 L 47.4942,1.55435 L 47.5588,1.62891
 L 47.6061,1.71907 L 47.6352,1.82483 L 47.6449,1.94621 L 47.6236,2.12167 L 47.5598,2.27779 L 47.4616,2.42096
 L 47.337,2.55769 L 47.1909,2.69116 L 47.028,2.82463 L 46.8561,2.96376 L 46.6825,3.11421 L 46.5121,3.27946
 L 46.3498,3.46303 L 46.2037,3.67052 L 46.0818,3.90762 L 46.0818,4.18105 L 48.0906,4.18105 z
M 5.82198,3.85164 L 4.2395,3.85164 L 4.30139,3.73132 L 4.38374,3.61588 L 4.48251,3.50365 L 4.59367,3.39305
 L 4.71504,3.28351 L 4.8445,3.17451 L 4.97743,3.06523 L 5.10928,2.9549 L 5.23795,2.84267 L 5.36119,2.72775
 L 5.4745,2.60936 L 5.57329,2.48663 L 5.65564,2.35851 L 5.71968,2.22394 L 5.76088,2.08238 L 5.77461,1.93329
 L 5.75845,1.74274 L 5.70999,1.57588 L 5.63115,1.43324 L 5.52376,1.31537 L 5.38838,1.22279 L 5.22556,1.15605
 L 5.03665,1.11566 L 4.82297,1.1022 L 4.60631,1.11781 L 4.41711,1.16466 L 4.25427,1.23866 L 4.11674,1.33582
 L 4.00534,1.45343 L 3.92082,1.58881 L 3.8627,1.7379 L 3.8304,1.89668 L 4.22658,1.93329 L 4.25052,1.81407
 L 4.29224,1.71043 L 4.35011,1.62244 L 4.4225,1.55003 L 4.50781,1.49353 L 4.60443,1.45317 L 4.71021,1.42892
 L 4.82297,1.42085 L 4.94218,1.4292 L 5.05011,1.45425 L 5.1451,1.49596 L 5.22556,1.55435 L 5.29016,1.62891
 L 5.33754,1.71907 L 5.36661,1.82483 L 5.37631,1.94621 L 5.35504,2.12167 L 5.29124,2.27779 L 5.19301,2.42096
 L 5.06839,2.55769 L 4.92226,2.69116 L 4.75943,2.82463 L 4.58746,2.96376 L 4.41386,3.11421 L 4.24352,3.27946
 L 4.08122,3.46303 L 3.93509,3.67052 L 3.81319,3.90762 L 3.81319,4.18105 L 5.82198,4.18105 z
M 41.9864,4.21201 L 42.0851,4.20149 L 42.1758,4.18507 L 42.2649,4.1638 L 42.2649,3.87746 L 42.2049,3.88931
 L 42.1497,3.89902 L 42.0962,3.90547 L 42.041,3.90762 L 41.9255,3.89067 L 41.8504,3.8398 L 41.8093,3.74695
 L 41.7955,3.60402 L 41.7955,2.13351 L 42.2262,2.13351 L 42.2262,1.85147 L 41.7955,1.85147 L 41.7955,1.33043
 L 41.5372,1.33043 L 41.423,1.85147 L 41.1389,1.85147 L 41.1389,2.13351 L 41.408,2.13351 L 41.408,3.688
 L 41.5243,4.08363 L 41.873,4.2155 z
M -0.282211,4.21201 L -0.183426,4.20149 L -0.0927429,4.18507 L -0.00366211,4.1638 L -0.00366211,3.87746 L -0.0636749,3.88931
 L -0.118851,3.89902 L -0.172394,3.90547 L -0.22757,3.90762 L -0.343033,3.89067 L -0.418121,3.8398 L -0.459305,3.74695
 L -0.473022,3.60402 L -0.473022,2.13351 L -0.0424042,2.13351 L -0.0424042,1.85147 L -0.473022,1.85147 L -0.473022,1.33043
 L -0.731369,1.33043 L -0.84552,1.85147 L -1.12971,1.85147 L -1.12971,2.13351 L -0.860565,2.13351 L -0.860565,3.688
 L -0.744308,4.08363 L -0.395523,4.2155 z
M 43.7286,4.21146 L 43.9103,4.17352 L 44.0612,4.11592 L 44.1848,4.04434 L 44.2836,3.96091 L 44.3603,3.8678
 L 44.4187,3.7701 L 44.4625,3.67293 L 44.1224,3.57605 L 44.044,3.71761 L 43.9167,3.83228 L 43.7399,3.90817
 L 43.513,3.93347 L 43.3532,3.91812 L 43.218,3.87209 L 43.1064,3.79834 L 43.0168,3.69984 L 42.9484,3.5782
 L 42.9005,3.43503 L 42.8722,3.2738 L 42.8628,3.09805 L 44.525,3.09805 L 44.525,3.0464 L 44.5123,2.79289
 L 44.4744,2.55769 L 44.4065,2.34641 L 44.3043,2.16475 L 44.1654,2.01591 L 43.9878,1.90317 L 43.7668,1.83211
 L 43.498,1.80843 L 43.2891,1.82431 L 43.0932,1.87195 L 42.9156,1.95511 L 42.7616,2.07756 L 42.6346,2.24091
 L 42.5377,2.44679 L 42.4763,2.69894 L 42.4559,3.00119 L 42.5234,3.53352 L 42.7261,3.91623 L 43.0579,4.14714
 L 43.513,4.22411 z
M 42.8671,2.80095 L 42.8892,2.60855 L 42.9381,2.45326 L 43.0076,2.33078 L 43.091,2.23686 L 43.1855,2.16931
 L 43.288,2.12598 L 43.3922,2.10257 L 43.4915,2.09477 L 43.7482,2.13702 L 43.9372,2.26378 L 44.0615,2.48257
 L 44.1245,2.80095 z
M -5.29312,2.8311 L -5.28236,2.66667 L -5.25008,2.52216 L -5.19814,2.39835 L -5.12843,2.29607 L -5.04178,2.21533
 L -4.93898,2.15614 L -4.82137,2.11981 L -4.69029,2.1077 L -4.56569,2.11496 L -4.46315,2.13675 L -4.38052,2.17603
 L -4.31567,2.23578 L -4.26749,2.31679 L -4.23492,2.41986 L -4.21635,2.54797 L -4.21016,2.70407 L -4.21016,4.18105
 L -3.82047,4.18105 L -3.82047,2.62871 L -3.83096,2.42822 L -3.86244,2.25734 L -3.91653,2.11549 L -3.99487,2.0022
 L -4.09767,1.91606 L -4.22525,1.85579 L -4.37863,1.82027 L -4.55894,1.80843 L -4.7005,1.81622 L -4.82376,1.83963
 L -4.93143,1.8773 L -5.02617,1.9279 L -5.10905,1.99113 L -5.18117,2.06677 L -5.24522,2.15343 L -5.30389,2.24977
 L -5.31036,2.24977 L -5.3109,2.20161 L -5.31253,2.14322 L -5.31493,2.08025 L -5.31789,2.01836 L -5.32086,1.96048
 L -5.32329,1.90961 L -5.32544,1.87138 L -5.32758,1.85147 L -5.69359,1.85147 L -5.69145,1.8757 L -5.6893,1.91824
 L -5.68715,1.97502 L -5.68498,2.04204 L -5.68311,2.1163 L -5.68178,2.19489 L -5.68097,2.27374 L -5.68069,2.34883
 L -5.68069,4.18105 L -5.29312,4.18105 z
M 36.9754,2.8311 L 36.9862,2.66667 L 37.0185,2.52216 L 37.0704,2.39835 L 37.1401,2.29607 L 37.2268,2.21533
 L 37.3296,2.15614 L 37.4472,2.11981 L 37.5783,2.1077 L 37.7029,2.11496 L 37.8054,2.13675 L 37.888,2.17603
 L 37.9529,2.23578 L 38.0011,2.31679 L 38.0336,2.41986 L 38.0522,2.54797 L 38.0584,2.70407 L 38.0584,4.18105
 L 38.4481,4.18105 L 38.4481,2.62871 L 38.4376,2.42822 L 38.4061,2.25734 L 38.352,2.11549 L 38.2737,2.0022
 L 38.1709,1.91606 L 38.0433,1.85579 L 37.8899,1.82027 L 37.7096,1.80843 L 37.5681,1.81622 L 37.4448,1.83963
 L 37.3371,1.8773 L 37.2424,1.9279 L 37.1595,1.99113 L 37.0874,2.06677 L 37.0233,2.15343 L 36.9647,2.24977
 L 36.9582,2.24977 L 36.9577,2.20161 L 36.956,2.14322 L 36.9536,2.08025 L 36.9507,2.01836 L 36.9477,1.96048
 L 36.9453,1.90961 L 36.9431,1.87138 L 36.941,1.85147 L 36.575,1.85147 L 36.5771,1.8757 L 36.5793,1.91824
 L 36.5814,1.97502 L 36.5836,2.04204 L 36.5855,2.1163 L 36.5868,2.19489 L 36.5876,2.27374 L 36.5879,2.34883
 L 36.5879,4.18105 L 36.9754,4.18105 z
M 1.46001,4.21146 L 1.64168,4.17352 L 1.79266,4.11592 L 1.91618,4.04434 L 2.01497,3.96091 L 2.09166,3.8678
 L 2.15007,3.7701 L 2.19394,3.67293 L 1.85376,3.57605 L 1.77544,3.71761 L 1.64812,3.83228 L 1.47131,3.90817
 L 1.24445,3.93347 L 1.08458,3.91812 L 0.949463,3.87209 L 0.837784,3.79834 L 0.748169,3.69984 L 0.67981,3.5782
 L 0.631897,3.43503 L 0.603638,3.2738 L 0.594208,3.09805 L 2.25639,3.09805 L 2.25639,3.0464 L 2.24373,2.79289
 L 2.20578,2.55769 L 2.13794,2.34641 L 2.03566,2.16475 L 1.8968,2.01591 L 1.71918,1.90317 L 1.49821,1.83211
 L 1.22937,1.80843 L 1.02052,1.82431 L 0.824585,1.87195 L 0.646973,1.95511 L 0.493027,2.07756 L 0.365982,2.24091
 L 0.269089,2.44679 L 0.207748,2.69894 L 0.187302,3.00119 L 0.254852,3.53352 L 0.457489,3.91623 L 0.789352,4.14714
 L 1.24445,4.22411 z
M 0.598526,2.80095 L 0.62059,2.60855 L 0.669556,2.45326 L 0.738998,2.33078 L 0.822433,2.23686 L 0.916916,2.16931
 L 1.01944,2.12598 L 1.1236,2.10257 L 1.22293,2.09477 L 1.47966,2.13702 L 1.66856,2.26378 L 1.79292,2.48257
 L 1.8559,2.80095 z
M -1.92337,4.14929 L -1.5934,3.92484 L -1.39154,3.54752 L -1.32426,3.01411 L -1.33934,2.73152 L -1.38455,2.48663
 L -1.46126,2.27939 L -1.5708,2.10982 L -1.71451,1.97795 L -1.89375,1.88376 L -2.10933,1.82726 L -2.36205,1.80843
 L -3.1452,2.10985 L -3.40627,3.01411 L -3.38878,3.3018 L -3.33629,3.54913 L -3.2507,3.75717 L -3.13391,3.92699
 L -2.98669,4.05833 L -2.80988,4.15092 L -2.60535,4.20581 L -2.37497,4.22411 z
M -2.50764,3.92699 L -2.62579,3.8947 L -2.73128,3.83603 L -2.82172,3.74614 L -2.89574,3.6226 L -2.95198,3.46303
 L -2.98752,3.26198 L -2.99936,3.01411 L -2.98833,2.77135 L -2.95523,2.57274 L -2.90112,2.41368 L -2.82712,2.28963
 L -2.73427,2.19865 L -2.62366,2.1389 L -2.49689,2.1058 L -2.35559,2.09477 L -2.21671,2.10527 L -2.09293,2.13675
 L -1.98553,2.19461 L -1.89592,2.28423 L -1.82487,2.4075 L -1.77321,2.5663 L -1.7417,2.76649 L -1.7312,3.01411
 L -1.74251,3.26225 L -1.77641,3.46411 L -1.83131,3.6245 L -1.90561,3.74829 L -1.9987,3.83791 L -2.11014,3.89578
 L -2.2377,3.92726 L -2.37929,3.93774 z
M 40.3452,4.14929 L 40.6752,3.92484 L 40.877,3.54752 L 40.9443,3.01411 L 40.9292,2.73152 L 40.884,2.48663
 L 40.8073,2.27939 L 40.6978,2.10982 L 40.554,1.97795 L 40.3748,1.88376 L 40.1592,1.82726 L 39.9065,1.80843
 L 39.1234,2.10985 L 38.8623,3.01411 L 38.8798,3.3018 L 38.9323,3.54913 L 39.0179,3.75717 L 39.1346,3.92699
 L 39.2819,4.05833 L 39.4587,4.15092 L 39.6632,4.20581 L 39.8936,4.22411 z
M 39.7609,3.92699 L 39.6428,3.8947 L 39.5373,3.83603 L 39.4469,3.74614 L 39.3728,3.6226 L 39.3166,3.46303
 L 39.2811,3.26198 L 39.2692,3.01411 L 39.2802,2.77135 L 39.3133,2.57274 L 39.3674,2.41368 L 39.4415,2.28963
 L 39.5343,2.19865 L 39.6449,2.1389 L 39.7717,2.1058 L 39.913,2.09477 L 40.0518,2.10527 L 40.1756,2.13675
 L 40.283,2.19461 L 40.3727,2.28423 L 40.4437,2.4075 L 40.4954,2.5663 L 40.5269,2.76649 L 40.5374,3.01411
 L 40.5261,3.26225 L 40.4922,3.46411 L 40.4373,3.6245 L 40.363,3.74829 L 40.2699,3.83791 L 40.1584,3.89578
 L 40.0309,3.92726 L 39.8893,3.93774 z
M 30.575,5.01874 L 30.575,3.76874 L 30.475,3.66873 L 30.375,3.76874 L 30.375,5.01874 L 30.475,5.11873
 z
M 49.625,5.01874 L 49.625,3.76874 L 49.525,3.66873 L 49.425,3.76874 L 49.425,5.01874 L 49.525,5.11873
 z
M 5.05467,8.0193 L 5.26109,7.97491 L 5.43819,7.90225 L 5.58405,7.80267 L 5.6987,7.67697 L 5.78214,7.526
 L 5.83299,7.35106 L 5.84996,7.15352 L 5.83891,7.02327 L 5.80582,6.89949 L 5.75064,6.78535 L 5.67339,6.68416
 L 5.57329,6.59723 L 5.44949,6.52591 L 5.30202,6.47343 L 5.13084,6.44302 L 5.13084,6.43442 L 5.28667,6.39191
 L 5.41827,6.33324 L 5.52728,6.26001 L 5.6153,6.17389 L 5.68257,6.07539 L 5.7294,5.96506 L 5.75685,5.84448
 L 5.76601,5.71529 L 5.75227,5.55437 L 5.71107,5.40312 L 5.64084,5.26611 L 5.53992,5.14798 L 5.40697,5.05055
 L 5.24065,4.97574 L 5.03987,4.92809 L 4.80357,4.9122 L 4.61734,4.92432 L 4.44188,4.96065 L 4.2812,5.02148
 L 4.13936,5.10709 L 4.01852,5.21768 L 3.92082,5.35359 L 3.85033,5.51506 L 3.81104,5.70236 L 4.20073,5.73253
 L 4.25967,5.52043 L 4.38481,5.3622 L 4.56755,5.26369 L 4.79929,5.23085 L 5.0466,5.2661 L 5.22447,5.37187
 L 5.33188,5.53848 L 5.36768,5.75621 L 5.35179,5.89938 L 5.30414,6.01456 L 5.23203,6.10526 L 5.14265,6.17496
 L 5.0396,6.22502 L 4.92628,6.25679 L 4.81004,6.27374 L 4.69809,6.27939 L 4.48709,6.27939 L 4.48709,6.61526
 L 4.7067,6.61526 L 4.82161,6.6201 L 4.94676,6.63463 L 5.07217,6.66342 L 5.1879,6.71104 L 5.28963,6.77942
 L 5.37303,6.87041 L 5.42876,6.98907 L 5.44733,7.14059 L 5.40561,7.3898 L 5.28046,7.56906 L 5.08212,7.67725
 L 4.82082,7.7133 L 4.67226,7.70361 L 4.54521,7.67456 L 4.4381,7.62773 L 4.34929,7.56474 L 4.27797,7.48669
 L 4.22334,7.39465 L 4.18431,7.29024 L 4.15984,7.17505 L 3.75934,7.21165 L 3.78949,7.36639 L 3.84116,7.5163
 L 3.91922,7.6557 L 4.02849,7.77896 L 4.17032,7.88284 L 4.34605,7.96413 L 4.5611,8.0166 L 4.82082,8.0341
 z
M 47.3233,8.0193 L 47.5297,7.97491 L 47.7068,7.90225 L 47.8526,7.80267 L 47.9673,7.67697 L 48.0507,7.526
 L 48.1016,7.35106 L 48.1185,7.15352 L 48.1075,7.02327 L 48.0744,6.89949 L 48.0192,6.78535 L 47.942,6.68416
 L 47.8419,6.59723 L 47.7181,6.52591 L 47.5706,6.47343 L 47.3994,6.44302 L 47.3994,6.43442 L 47.5553,6.39191
 L 47.6869,6.33324 L 47.7959,6.26001 L 47.8839,6.17389 L 47.9512,6.07539 L 47.998,5.96506 L 48.0255,5.84448
 L 48.0346,5.71529 L 48.0209,5.55437 L 47.9797,5.40312 L 47.9094,5.26611 L 47.8085,5.14798 L 47.6756,5.05055
 L 47.5092,4.97574 L 47.3085,4.92809 L 47.0722,4.9122 L 46.8859,4.92432 L 46.7105,4.96065 L 46.5498,5.02148
 L 46.408,5.10709 L 46.2871,5.21768 L 46.1894,5.35359 L 46.1189,5.51506 L 46.0796,5.70236 L 46.4693,5.73253
 L 46.5283,5.52043 L 46.6534,5.3622 L 46.8362,5.26369 L 47.0679,5.23085 L 47.3152,5.2661 L 47.4931,5.37187
 L 47.6005,5.53848 L 47.6363,5.75621 L 47.6204,5.89938 L 47.5727,6.01456 L 47.5006,6.10526 L 47.4113,6.17496
 L 47.3082,6.22502 L 47.1949,6.25679 L 47.0786,6.27374 L 46.9667,6.27939 L 46.7557,6.27939 L 46.7557,6.61526
 L 46.9753,6.61526 L 47.0902,6.6201 L 47.2154,6.63463 L 47.3408,6.66342 L 47.4565,6.71104 L 47.5582,6.77942
 L 47.6416,6.87041 L 47.6974,6.98907 L 47.7159,7.14059 L 47.6742,7.3898 L 47.549,7.56906 L 47.3507,7.67725
 L 47.0894,7.7133 L 46.9408,7.70361 L 46.8138,7.67456 L 46.7067,7.62773 L 46.6179,7.56474 L 46.5466,7.48669
 L 46.4919,7.39465 L 46.4529,7.29024 L 46.4284,7.17505 L 46.0279,7.21165 L 46.0581,7.36639 L 46.1098,7.5163
 L 46.1878,7.6557 L 46.2971,7.77896 L 46.4389,7.88284 L 46.6146,7.96413 L 46.8297,8.0166 L 47.0894,8.0341
 z
M 41.9864,8.022 L 42.0851,8.01149 L 42.1758,7.99507 L 42.2649,7.9738 L 42.2649,7.68745 L 42.2049,7.69931
 L 42.1497,7.70901 L 42.0962,7.71547 L 42.041,7.71762 L 41.9255,7.70067 L 41.8504,7.6498 L 41.8093,7.55695
 L 41.7955,7.41402 L 41.7955,5.94351 L 42.2262,5.94351 L 42.2262,5.66147 L 41.7955,5.66147 L 41.7955,5.14043
 L 41.5372,5.14043 L 41.423,5.66147 L 41.1389,5.66147 L 41.1389,5.94351 L 41.408,5.94351 L 41.408,7.498
 L 41.5243,7.89363 L 41.873,8.0255 z
M -0.282211,8.022 L -0.183426,8.01149 L -0.0927429,7.99507 L -0.00366211,7.9738 L -0.00366211,7.68745 L -0.0636749,7.69931
 L -0.118851,7.70901 L -0.172394,7.71547 L -0.22757,7.71762 L -0.343033,7.70067 L -0.418121,7.6498 L -0.459305,7.55695
 L -0.473022,7.41402 L -0.473022,5.94351 L -0.0424042,5.94351 L -0.0424042,5.66147 L -0.473022,5.66147 L -0.473022,5.14043
 L -0.731369,5.14043 L -0.84552,5.66147 L -1.12971,5.66147 L -1.12971,5.94351 L -0.860565,5.94351 L -0.860565,7.498
 L -0.744308,7.89363 L -0.395523,8.0255 z
M 36.9754,6.6411 L 36.9862,6.47667 L 37.0185,6.33215 L 37.0704,6.20834 L 37.1401,6.10606 L 37.2268,6.02533
 L 37.3296,5.96614 L 37.4472,5.92981 L 37.5783,5.91769 L 37.7029,5.92496 L 37.8054,5.94675 L 37.888,5.98602
 L 37.9529,6.04578 L 38.0011,6.12679 L 38.0336,6.22986 L 38.0522,6.35797 L 38.0584,6.51407 L 38.0584,7.99104
 L 38.4481,7.99104 L 38.4481,6.43871 L 38.4376,6.23822 L 38.4061,6.06734 L 38.352,5.92549 L 38.2737,5.81219
 L 38.1709,5.72606 L 38.0433,5.66579 L 37.8899,5.63026 L 37.7096,5.61842 L 37.5681,5.62622 L 37.4448,5.64963
 L 37.3371,5.6873 L 37.2424,5.7379 L 37.1595,5.80113 L 37.0874,5.87677 L 37.0233,5.96342 L 36.9647,6.05977
 L 36.9582,6.05977 L 36.9577,6.01161 L 36.956,5.95322 L 36.9536,5.89024 L 36.9507,5.82835 L 36.9477,5.77048
 L 36.9453,5.7196 L 36.9431,5.68138 L 36.941,5.66147 L 36.575,5.66147 L 36.5771,5.6857 L 36.5793,5.72824
 L 36.5814,5.78502 L 36.5836,5.85204 L 36.5855,5.9263 L 36.5868,6.00488 L 36.5876,6.08374 L 36.5879,6.15883
 L 36.5879,7.99104 L 36.9754,7.99104 z
M 1.46001,8.02145 L 1.64168,7.98352 L 1.79266,7.92592 L 1.91618,7.85434 L 2.01497,7.7709 L 2.09166,7.6778
 L 2.15007,7.58009 L 2.19394,7.48293 L 1.85376,7.38605 L 1.77544,7.5276 L 1.64812,7.64227 L 1.47131,7.71817
 L 1.24445,7.74347 L 1.08458,7.72812 L 0.949463,7.68208 L 0.837784,7.60834 L 0.748169,7.50984 L 0.67981,7.3882
 L 0.631897,7.24503 L 0.603638,7.0838 L 0.594208,6.90805 L 2.25639,6.90805 L 2.25639,6.8564 L 2.24373,6.60289
 L 2.20578,6.36769 L 2.13794,6.1564 L 2.03566,5.97475 L 1.8968,5.82591 L 1.71918,5.71317 L 1.49821,5.64211
 L 1.22937,5.61842 L 1.02052,5.63431 L 0.824585,5.68195 L 0.646973,5.76511 L 0.493027,5.88756 L 0.365982,6.0509
 L 0.269089,6.25679 L 0.207748,6.50894 L 0.187302,6.81119 L 0.254852,7.34352 L 0.457489,7.72623 L 0.789352,7.95714
 L 1.24445,8.0341 z
M 0.598526,6.61095 L 0.62059,6.41855 L 0.669556,6.26326 L 0.738998,6.14078 L 0.822433,6.04686 L 0.916916,5.97931
 L 1.01944,5.93597 L 1.1236,5.91257 L 1.22293,5.90477 L 1.47966,5.94702 L 1.66856,6.07378 L 1.79292,6.29257
 L 1.8559,6.61095 z
M 40.3452,7.95929 L 40.6752,7.73483 L 40.877,7.35751 L 40.9443,6.82411 L 40.9292,6.54152 L 40.884,6.29663
 L 40.8073,6.08939 L 40.6978,5.91982 L 40.554,5.78795 L 40.3748,5.69376 L 40.1592,5.63725 L 39.9065,5.61842
 L 39.1234,5.91985 L 38.8623,6.82411 L 38.8798,7.1118 L 38.9323,7.35913 L 39.0179,7.56717 L 39.1346,7.73698
 L 39.2819,7.86833 L 39.4587,7.96092 L 39.6632,8.01581 L 39.8936,8.0341 z
M 39.7609,7.73698 L 39.6428,7.7047 L 39.5373,7.64603 L 39.4469,7.55614 L 39.3728,7.4326 L 39.3166,7.27303
 L 39.2811,7.07198 L 39.2692,6.82411 L 39.2802,6.58134 L 39.3133,6.38274 L 39.3674,6.22368 L 39.4415,6.09962
 L 39.5343,6.00865 L 39.6449,5.9489 L 39.7717,5.9158 L 39.913,5.90477 L 40.0518,5.91527 L 40.1756,5.94675
 L 40.283,6.00461 L 40.3727,6.09422 L 40.4437,6.2175 L 40.4954,6.3763 L 40.5269,6.57649 L 40.5374,6.82411
 L 40.5261,7.07225 L 40.4922,7.27411 L 40.4373,7.43449 L 40.363,7.55829 L 40.2699,7.6479 L 40.1584,7.70578
 L 40.0309,7.73726 L 39.8893,7.74774 z
M -5.29312,6.6411 L -5.28236,6.47667 L -5.25008,6.33215 L -5.19814,6.20834 L -5.12843,6.10606 L -5.04178,6.02533
 L -4.93898,5.96614 L -4.82137,5.92981 L -4.69029,5.91769 L -4.56569,5.92496 L -4.46315,5.94675 L -4.38052,5.98602
 L -4.31567,6.04578 L -4.26749,6.12679 L -4.23492,6.22986 L -4.21635,6.35797 L -4.21016,6.51407 L -4.21016,7.99104
 L -3.82047,7.99104 L -3.82047,6.43871 L -3.83096,6.23822 L -3.86244,6.06734 L -3.91653,5.92549 L -3.99487,5.81219
 L -4.09767,5.72606 L -4.22525,5.66579 L -4.37863,5.63026 L -4.55894,5.61842 L -4.7005,5.62622 L -4.82376,5.64963
 L -4.93143,5.6873 L -5.02617,5.7379 L -5.10905,5.80113 L -5.18117,5.87677 L -5.24522,5.96342 L -5.30389,6.05977
 L -5.31036,6.05977 L -5.3109,6.01161 L -5.31253,5.95322 L -5.31493,5.89024 L -5.31789,5.82835 L -5.32086,5.77048
 L -5.32329,5.7196 L -5.32544,5.68138 L -5.32758,5.66147 L -5.69359,5.66147 L -5.69145,5.6857 L -5.6893,5.72824
 L -5.68715,5.78502 L -5.68498,5.85204 L -5.68311,5.9263 L -5.68178,6.00488 L -5.68097,6.08374 L -5.68069,6.15883
 L -5.68069,7.99104 L -5.29312,7.99104 z
M -1.92337,7.95929 L -1.5934,7.73483 L -1.39154,7.35751 L -1.32426,6.82411 L -1.33934,6.54152 L -1.38455,6.29663
 L -1.46126,6.08939 L -1.5708,5.91982 L -1.71451,5.78795 L -1.89375,5.69376 L -2.10933,5.63725 L -2.36205,5.61842
 L -3.1452,5.91985 L -3.40627,6.82411 L -3.38878,7.1118 L -3.33629,7.35913 L -3.2507,7.56717 L -3.13391,7.73698
 L -2.98669,7.86833 L -2.80988,7.96092 L -2.60535,8.01581 L -2.37497,8.0341 z
M -2.50764,7.73698 L -2.62579,7.7047 L -2.73128,7.64603 L -2.82172,7.55614 L -2.89574,7.4326 L -2.95198,7.27303
 L -2.98752,7.07198 L -2.99936,6.82411 L -2.98833,6.58134 L -2.95523,6.38274 L -2.90112,6.22368 L -2.82712,6.09962
 L -2.73427,6.00865 L -2.62366,5.9489 L -2.49689,5.9158 L -2.35559,5.90477 L -2.21671,5.91527 L -2.09293,5.94675
 L -1.98553,6.00461 L -1.89592,6.09422 L -1.82487,6.2175 L -1.77321,6.3763 L -1.7417,6.57649 L -1.7312,6.82411
 L -1.74251,7.07225 L -1.77641,7.27411 L -1.83131,7.43449 L -1.90561,7.55829 L -1.9987,7.6479 L -2.11014,7.70578
 L -2.2377,7.73726 L -2.37929,7.74774 z
M 43.7286,8.02145 L 43.9103,7.98352 L 44.0612,7.92592 L 44.1848,7.85434 L 44.2836,7.7709 L 44.3603,7.6778
 L 44.4187,7.58009 L 44.4625,7.48293 L 44.1224,7.38605 L 44.044,7.5276 L 43.9167,7.64227 L 43.7399,7.71817
 L 43.513,7.74347 L 43.3532,7.72812 L 43.218,7.68208 L 43.1064,7.60834 L 43.0168,7.50984 L 42.9484,7.3882
 L 42.9005,7.24503 L 42.8722,7.0838 L 42.8628,6.90805 L 44.525,6.90805 L 44.525,6.8564 L 44.5123,6.60289
 L 44.4744,6.36769 L 44.4065,6.1564 L 44.3043,5.97475 L 44.1654,5.82591 L 43.9878,5.71317 L 43.7668,5.64211
 L 43.498,5.61842 L 43.2891,5.63431 L 43.0932,5.68195 L 42.9156,5.76511 L 42.7616,5.88756 L 42.6346,6.0509
 L 42.5377,6.25679 L 42.4763,6.50894 L 42.4559,6.81119 L 42.5234,7.34352 L 42.7261,7.72623 L 43.0579,7.95714
 L 43.513,8.0341 z
M 42.8671,6.61095 L 42.8892,6.41855 L 42.9381,6.26326 L 43.0076,6.14078 L 43.091,6.04686 L 43.1855,5.97931
 L 43.288,5.93597 L 43.3922,5.91257 L 43.4915,5.90477 L 43.7482,5.94702 L 43.9372,6.07378 L 44.0615,6.29257
 L 44.1245,6.61095 z
M 49.625,7.51874 L 49.625,6.26874 L 49.525,6.16873 L 49.425,6.26874 L 49.425,7.51874 L 49.525,7.61873
 z
M 30.575,7.51874 L 30.575,6.26874 L 30.475,6.16873 L 30.375,6.26874 L 30.375,7.51874 L 30.475,7.61873
 z
M 9.62498,8.73123 L 9.62498,7.48123 L 9.52498,7.38123 L 9.42499,7.48123 L 9.42499,8.63123 L 8.27498,8.63123
 L 8.17499,8.73123 L 8.27498,8.83124 L 9.52498,8.83124 z
M -8.175,8.73123 L -8.27499,8.63123 L -9.425,8.63123 L -9.425,7.48123 L -9.52499,7.38123 L -9.62498,7.48123
 L -9.62498,8.73123 L -9.52499,8.83124 L -8.27499,8.83124 z
M 34.325,8.73123 L 34.225,8.63123 L 30.475,8.63123 L 30.375,8.73123 L 30.475,8.83124 L 34.225,8.83124
 z
M 36.825,8.73123 L 36.725,8.63123 L 35.475,8.63123 L 35.375,8.73123 L 35.475,8.83124 L 36.725,8.83124
 z
M 41.825,8.73123 L 41.725,8.63123 L 37.975,8.63123 L 37.875,8.73123 L 37.975,8.83124 L 41.725,8.83124
 z
M 44.325,8.73123 L 44.225,8.63123 L 42.975,8.63123 L 42.875,8.73123 L 42.975,8.83124 L 44.225,8.83124
 z
M 49.325,8.73123 L 49.225,8.63123 L 45.475,8.63123 L 45.375,8.73123 L 45.475,8.83124 L 49.225,8.83124
 z
" stroke="black" fill="lightgray" stroke-width="0.5"/>
</svg>
