<?xml version="1.0" standalone="no"?>
<!DOCTYPE svg PUBLIC "-//W3C//DTD SVG 1.1//EN" "http://www.w3.org/Graphics/SVG/1.1/DTD/svg11.dtd">
<svg width="140mm" height="66mm" viewBox="-1 -65 140 66" xmlns="http://www.w3.org/2000/svg" version="1.1">
<title>OpenSCAD Model</title>
<path d="
M 1.63593,-61.3608 L 1.68059,-61.363 L 1.7402,-61.3653 L 1.81056,-61.3676 L 1.88852,-61.3695 L 1.97102,-61.3709
 L 2.05382,-61.3718 L 2.13266,-61.3721 L 4.05624,-61.3721 L 4.05624,-61.7767 L 2.63898,-61.7767 L 2.46635,-61.7866
 L 2.31462,-61.8162 L 2.18463,-61.8643 L 2.07726,-61.9293 L 1.99249,-62.0104 L 1.93036,-62.1067 L 1.89221,-62.2169
 L 1.87949,-62.3395 L 1.88712,-62.4543 L 1.90999,-62.5498 L 1.95123,-62.6275 L 2.01396,-62.6888 L 2.09901,-62.7343
 L 2.20723,-62.7645 L 2.34172,-62.7814 L 2.50562,-62.7871 L 4.05624,-62.7871 L 4.05624,-63.1895 L 2.63898,-63.1895
 L 2.46266,-63.1994 L 2.30896,-63.229 L 2.17842,-63.277 L 2.07162,-63.342 L 1.98825,-63.4231 L 1.92809,-63.5195
 L 1.89165,-63.6297 L 1.87949,-63.7523 L 1.88712,-63.867 L 1.90999,-63.9625 L 1.95123,-64.0402 L 2.01396,-64.1015
 L 2.09901,-64.147 L 2.20723,-64.1773 L 2.34172,-64.1942 L 2.50562,-64.1999 L 4.05624,-64.1999 L 4.05624,-64.6022
 L 2.4265,-64.6022 L 2.216,-64.592 L 2.03659,-64.5615 L 1.88768,-64.5095 L 1.76872,-64.4349 L 1.6783,-64.3369
 L 1.61502,-64.2145 L 1.57773,-64.0673 L 1.56529,-63.8947 L 1.57349,-63.7579 L 1.59805,-63.637 L 1.6376,-63.5296
 L 1.69072,-63.4336 L 1.75713,-63.3488 L 1.83652,-63.2753 L 1.92751,-63.2109 L 2.02866,-63.1533 L 2.02866,-63.1465
 L 1.81958,-63.0586 L 1.67606,-62.9216 L 1.59299,-62.7309 L 1.56529,-62.4819 L 1.57349,-62.346 L 1.59805,-62.2276
 L 1.6376,-62.1242 L 1.69072,-62.0333 L 1.75713,-61.9539 L 1.83652,-61.8852 L 1.92751,-61.8242 L 2.02866,-61.7677
 L 2.02866,-61.7609 L 1.97809,-61.7603 L 1.91679,-61.7586 L 1.85066,-61.7561 L 1.78569,-61.753 L 1.72493,-61.7498
 L 1.67152,-61.7473 L 1.63139,-61.745 L 1.61049,-61.7428 L 1.61049,-61.3585 z
M 77.7108,-60.4582 L 77.7479,-60.4606 L 77.7986,-60.463 L 77.8598,-60.4654 L 77.9285,-60.4678 L 78.0049,-60.4702
 L 78.0866,-60.4724 L 78.1715,-60.4742 L 78.2596,-60.4755 L 78.3479,-60.4765 L 78.4335,-60.4771 L 78.5162,-60.4773
 L 81.5699,-60.4773 L 81.5699,-61.1233 L 79.32,-61.1233 L 79.1336,-61.1313 L 78.962,-61.1552 L 78.8051,-61.195
 L 78.6635,-61.2495 L 78.5379,-61.317 L 78.4283,-61.3978 L 78.3346,-61.4911 L 78.2569,-61.5963 L 78.1951,-61.7135
 L 78.1502,-61.8417 L 78.1233,-61.9799 L 78.1143,-62.128 L 78.1197,-62.2706 L 78.1358,-62.3967 L 78.1628,-62.5066
 L 78.2026,-62.6017 L 78.2576,-62.6836 L 78.3278,-62.7524 L 78.4137,-62.8088 L 78.516,-62.8537 L 78.6346,-62.8869
 L 78.7718,-62.9099 L 78.9297,-62.9236 L 79.1083,-62.9282 L 81.5699,-62.9282 L 81.5699,-63.5777 L 78.9827,-63.5777
 L 78.7544,-63.5699 L 78.5481,-63.5466 L 78.3637,-63.5078 L 78.2008,-63.4521 L 78.0591,-63.3786 L 77.9385,-63.287
 L 77.838,-63.1774 L 77.7567,-63.0494 L 77.6945,-62.9031 L 77.6506,-62.7377 L 77.6243,-62.5523 L 77.6155,-62.3469
 L 77.6213,-62.1862 L 77.6387,-62.0391 L 77.6676,-61.9056 L 77.707,-61.7836 L 77.7561,-61.6711 L 77.8147,-61.5682
 L 77.8826,-61.4741 L 77.9598,-61.388 L 78.0461,-61.3099 L 78.1406,-61.2377 L 78.2423,-61.1695 L 78.3511,-61.1053
 L 78.3511,-61.0946 L 78.2995,-61.0942 L 78.2403,-61.093 L 78.1735,-61.091 L 78.1033,-61.0884 L 78.034,-61.0854
 L 77.9654,-61.082 L 77.8998,-61.0786 L 77.8394,-61.0756 L 77.7842,-61.073 L 77.7383,-61.0706 L 77.706,-61.0683
 L 77.6873,-61.0659 L 77.6873,-60.4559 z
M 1.63593,-57.5946 L 1.68059,-57.5969 L 1.7402,-57.5992 L 1.81056,-57.6014 L 1.88852,-57.6034 L 1.97102,-57.6048
 L 2.05382,-57.6056 L 2.13266,-57.6059 L 4.05624,-57.6059 L 4.05624,-58.0106 L 2.63898,-58.0106 L 2.46635,-58.0204
 L 2.31462,-58.0501 L 2.18463,-58.0981 L 2.07726,-58.1631 L 1.99249,-58.2442 L 1.93036,-58.3406 L 1.89221,-58.4508
 L 1.87949,-58.5734 L 1.88712,-58.6881 L 1.90999,-58.7836 L 1.95123,-58.8613 L 2.01396,-58.9226 L 2.09901,-58.9681
 L 2.20723,-58.9984 L 2.34172,-59.0153 L 2.50562,-59.021 L 4.05624,-59.021 L 4.05624,-59.4233 L 2.63898,-59.4233
 L 2.46266,-59.4332 L 2.30896,-59.4629 L 2.17842,-59.5109 L 2.07162,-59.5759 L 1.98825,-59.657 L 1.92809,-59.7533
 L 1.89165,-59.8635 L 1.87949,-59.9862 L 1.88712,-60.1009 L 1.90999,-60.1964 L 1.95123,-60.2741 L 2.01396,-60.3354
 L 2.09901,-60.3809 L 2.20723,-60.4111 L 2.34172,-60.4281 L 2.50562,-60.4337 L 4.05624,-60.4337 L 4.05624,-60.8361
 L 2.4265,-60.8361 L 2.216,-60.8259 L 2.03659,-60.7953 L 1.88768,-60.7434 L 1.76872,-60.6688 L 1.6783,-60.5707
 L 1.61502,-60.4484 L 1.57773,-60.3012 L 1.56529,-60.1286 L 1.57349,-59.9918 L 1.59805,-59.8708 L 1.6376,-59.7635
 L 1.69072,-59.6674 L 1.75713,-59.5827 L 1.83652,-59.5092 L 1.92751,-59.4448 L 2.02866,-59.3871 L 2.02866,-59.3804
 L 1.81958,-59.2925 L 1.67606,-59.1554 L 1.59299,-58.9647 L 1.56529,-58.7158 L 1.57349,-58.5799 L 1.59805,-58.4615
 L 1.6376,-58.3581 L 1.69072,-58.2671 L 1.75713,-58.1877 L 1.83652,-58.119 L 1.92751,-58.058 L 2.02866,-58.0015
 L 2.02866,-57.9947 L 1.97809,-57.9942 L 1.91679,-57.9924 L 1.85066,-57.9899 L 1.78569,-57.9868 L 1.72493,-57.9837
 L 1.67152,-57.9812 L 1.63139,-57.9789 L 1.61049,-57.9767 L 1.61049,-57.5924 z
M 76.862,-59.5108 L 76.2447,-59.5108 L 76.2447,-58.8648 L 76.862,-58.8648 z
M 81.5699,-59.5108 L 77.6873,-59.5108 L 77.6873,-58.8648 L 81.5699,-58.8648 z
M 81.5699,-56.1051 L 81.0209,-56.1051 L 81.0209,-53.4676 L 80.8863,-53.5326 L 80.7553,-53.6127 L 80.628,-53.708
 L 80.503,-53.8155 L 80.3792,-53.9321 L 80.2566,-54.0579 L 80.1348,-54.1913 L 80.0134,-54.3306 L 79.8924,-54.476
 L 79.7711,-54.6239 L 79.6491,-54.771 L 79.5263,-54.9173 L 79.4021,-55.0612 L 79.2759,-55.2012 L 79.1478,-55.3371
 L 79.017,-55.4657 L 78.883,-55.5835 L 78.7459,-55.6906 L 78.6047,-55.7855 L 78.4588,-55.8668 L 78.3081,-55.9346
 L 78.1522,-55.9855 L 77.9907,-56.016 L 77.8237,-56.0261 L 77.6075,-56.0142 L 77.409,-55.9783 L 77.228,-55.9185
 L 77.0649,-55.8361 L 76.9202,-55.7327 L 76.7938,-55.608 L 76.6861,-55.4627 L 76.5976,-55.2971 L 76.5283,-55.1111
 L 76.4784,-54.9057 L 76.4485,-54.6821 L 76.4385,-54.4401 L 76.4501,-54.1943 L 76.4848,-53.9688 L 76.5426,-53.7636
 L 76.6205,-53.578 L 76.7156,-53.4112 L 76.8279,-53.263 L 76.9552,-53.1343 L 77.0958,-53.0254 L 77.2495,-52.9365
 L 77.4134,-52.8671 L 77.5844,-52.8169 L 77.7626,-52.7858 L 77.8237,-53.4461 L 77.6883,-53.4694 L 77.5645,-53.5059
 L 77.4522,-53.5555 L 77.3515,-53.6171 L 77.2624,-53.6895 L 77.1849,-53.7726 L 77.1191,-53.8653 L 77.0653,-53.9664
 L 77.0235,-54.0759 L 76.9935,-54.1921 L 76.9756,-54.3135 L 76.9696,-54.4401 L 76.9758,-54.5746 L 76.9943,-54.7008
 L 77.0253,-54.8186 L 77.0685,-54.9269 L 77.1241,-55.0244 L 77.1921,-55.1111 L 77.272,-55.186 L 77.3635,-55.2482
 L 77.4666,-55.2977 L 77.5812,-55.3336 L 77.7074,-55.3551 L 77.8452,-55.3623 L 78.0437,-55.3466 L 78.2279,-55.2993
 L 78.3978,-55.2205 L 78.5581,-55.1163 L 78.7136,-54.9925 L 78.8643,-54.8491 L 79.0126,-54.6898 L 79.1609,-54.5182
 L 79.3092,-54.3342 L 79.4617,-54.1434 L 79.6226,-53.9514 L 79.7919,-53.7582 L 79.9721,-53.5675 L 80.1659,-53.3827
 L 80.3732,-53.2038 L 80.5983,-53.037 L 80.8453,-52.8881 L 81.1142,-52.7571 L 81.5699,-52.7571 z
M 2.88676,-53.7164 L 3.23685,-53.78 L 3.51967,-53.8806 L 3.74203,-54.0128 L 3.90704,-54.1741 L 4.01781,-54.362
 L 4.08054,-54.5712 L 4.10144,-54.7961 L 4.08054,-55.0199 L 4.01781,-55.2301 L 3.90677,-55.4202 L 3.74091,-55.5838
 L 3.51768,-55.7183 L 3.23457,-55.8212 L 2.88506,-55.8864 L 2.46266,-55.9082 L 2.02272,-55.8867 L 1.66586,-55.8223
 L 1.38246,-55.7206 L 1.16292,-55.5872 L 1.0033,-55.4253 L 0.899597,-55.238 L 0.842789,-55.0309 L 0.823853,-54.8096
 L 0.842789,-54.5791 L 0.899597,-54.3666 L 1.0033,-54.1767 L 1.16292,-54.0139 L 1.38246,-53.8809 L 1.66586,-53.78
 L 2.02272,-53.7164 L 2.46266,-53.6953 z
M 2.11653,-54.118 L 1.83313,-54.1518 L 1.60652,-54.2081 L 1.43079,-54.2863 L 1.30223,-54.3861 L 1.21719,-54.5067
 L 1.16972,-54.648 L 1.15388,-54.8096 L 1.16943,-54.9636 L 1.21606,-55.1001 L 1.30025,-55.2179 L 1.42853,-55.3159
 L 1.60426,-55.3934 L 1.83089,-55.4493 L 2.11485,-55.4832 L 2.46266,-55.4946 L 2.80002,-55.4824 L 3.07974,-55.446
 L 3.30606,-55.3872 L 3.48325,-55.308 L 3.61435,-55.2089 L 3.70251,-55.0899 L 3.7525,-54.9532 L 3.76918,-54.8006
 L 3.7525,-54.6446 L 3.70251,-54.5067 L 3.61435,-54.3878 L 3.48325,-54.2886 L 3.30606,-54.2101 L 3.07974,-54.153
 L 2.80002,-54.1182 L 2.46266,-54.1066 z
M 3.49736,-51.228 L 3.64034,-51.2927 L 3.76945,-51.3817 L 3.88107,-51.4973 L 3.97289,-51.6405 L 4.04268,-51.8126
 L 4.08675,-52.0152 L 4.10144,-52.25 L 4.08167,-52.5114 L 4.02234,-52.7394 L 3.92711,-52.9335 L 3.79968,-53.0931
 L 3.6423,-53.218 L 3.45724,-53.3079 L 3.24814,-53.3621 L 3.01871,-53.3802 L 2.80849,-53.3621 L 2.61638,-53.3079
 L 2.44601,-53.2203 L 2.30106,-53.1022 L 2.18379,-52.9547 L 2.0965,-52.7789 L 2.04224,-52.5772 L 2.02415,-52.3517
 L 2.03914,-52.1432 L 2.08406,-51.9652 L 2.14989,-51.816 L 2.22758,-51.6939 L 1.21716,-51.755 L 1.21716,-53.1949
 L 0.871323,-53.1949 L 0.871323,-51.3843 L 2.5847,-51.278 L 2.5847,-51.6759 L 2.54036,-51.7298 L 2.49773,-51.7878
 L 2.45844,-51.851 L 2.42426,-51.9211 L 2.396,-51.9977 L 2.37453,-52.0805 L 2.36095,-52.1703 L 2.35643,-52.2681
 L 2.36885,-52.4221 L 2.40616,-52.5585 L 2.46579,-52.6764 L 2.54518,-52.7744 L 2.64293,-52.8524 L 2.75764,-52.9101
 L 2.88675,-52.9457 L 3.02774,-52.9575 L 3.19614,-52.9451 L 3.34421,-52.9078 L 3.47137,-52.8476 L 3.57704,-52.7665
 L 3.66039,-52.6656 L 3.72058,-52.5461 L 3.75702,-52.4099 L 3.76918,-52.2591 L 3.75928,-52.1084 L 3.72961,-51.9821
 L 3.68327,-51.877 L 3.62338,-51.79 L 3.55215,-51.7202 L 3.47191,-51.6668 L 3.38573,-51.6267 L 3.29674,-51.5968
 L 3.34421,-51.1854 z
M 83.0375,-50.8 L 82.9375,-50.9 L 75,-50.9 L 74.9,-50.8 L 75,-50.7 L 82.9375,-50.7
 z
M 5.09999,-50 L 5,-50.1 L 0,-50.1 L -0.0999908,-50 L 0,-49.9 L 5,-49.9
 z
M 79.0187,-49.2125 L 78.9688,-49.2625 L 75,-49.2625 L 74.95,-49.2125 L 75,-49.1625 L 78.9688,-49.1625
 z
M 2.54999,-49 L 2.5,-49.05 L 0,-49.05 L -0.0499878,-49 L 0,-48.95 L 2.5,-48.95
 z
M 2.54999,-48 L 2.5,-48.05 L 0,-48.05 L -0.0499878,-48 L 0,-47.95 L 2.5,-47.95
 z
M 79.0187,-47.625 L 78.9688,-47.675 L 75,-47.675 L 74.95,-47.625 L 75,-47.575 L 78.9688,-47.575
 z
M 2.54999,-47 L 2.5,-47.05 L 0,-47.05 L -0.0499878,-47 L 0,-46.95 L 2.5,-46.95
 z
M 79.0187,-46.0375 L 78.9688,-46.0875 L 75,-46.0875 L 74.95,-46.0375 L 75,-45.9875 L 78.9688,-45.9875
 z
M 2.54999,-46 L 2.5,-46.05 L 0,-46.05 L -0.0499878,-46 L 0,-45.95 L 2.5,-45.95
 z
M 3.38333,-45 L 3.33333,-45.05 L 0,-45.05 L -0.0499878,-45 L 0,-44.95 L 3.33333,-44.95
 z
M 79.0187,-44.45 L 78.9688,-44.5 L 75,-44.5 L 74.95,-44.45 L 75,-44.4 L 78.9688,-44.4
 z
M 2.54999,-44 L 2.5,-44.05 L 0,-44.05 L -0.0499878,-44 L 0,-43.95 L 2.5,-43.95
 z
M 2.54999,-43 L 2.5,-43.05 L 0,-43.05 L -0.0499878,-43 L 0,-42.95 L 2.5,-42.95
 z
M 79.0187,-42.8625 L 78.9688,-42.9125 L 75,-42.9125 L 74.95,-42.8625 L 75,-42.8125 L 78.9688,-42.8125
 z
M 2.54999,-42 L 2.5,-42.05 L 0,-42.05 L -0.0499878,-42 L 0,-41.95 L 2.5,-41.95
 z
M 79.0187,-41.275 L 78.9688,-41.325 L 75,-41.325 L 74.95,-41.275 L 75,-41.225 L 78.9688,-41.225
 z
M 2.54999,-41 L 2.5,-41.05 L 0,-41.05 L -0.0499878,-41 L 0,-40.95 L 2.5,-40.95
 z
M 5.09999,-40 L 5,-40.1 L 0,-40.1 L -0.0999908,-40 L 0,-39.9 L 5,-39.9
 z
M 79.0187,-39.6875 L 78.9688,-39.7375 L 75,-39.7375 L 74.95,-39.6875 L 75,-39.6375 L 78.9688,-39.6375
 z
M 2.54999,-39 L 2.5,-39.05 L 0,-39.05 L -0.0499878,-39 L 0,-38.95 L 2.5,-38.95
 z
M 80.3417,-38.1 L 80.2917,-38.15 L 75,-38.15 L 74.95,-38.1 L 75,-38.05 L 80.2917,-38.05
 z
M 2.54999,-38 L 2.5,-38.05 L 0,-38.05 L -0.0499878,-38 L 0,-37.95 L 2.5,-37.95
 z
M 2.54999,-37 L 2.5,-37.05 L 0,-37.05 L -0.0499878,-37 L 0,-36.95 L 2.5,-36.95
 z
M 79.0187,-36.5125 L 78.9688,-36.5625 L 75,-36.5625 L 74.95,-36.5125 L 75,-36.4625 L 78.9688,-36.4625
 z
M 2.54999,-36 L 2.5,-36.05 L 0,-36.05 L -0.0499878,-36 L 0,-35.95 L 2.5,-35.95
 z
M 3.38333,-35 L 3.33333,-35.05 L 0,-35.05 L -0.0499878,-35 L 0,-34.95 L 3.33333,-34.95
 z
M 79.0187,-34.925 L 78.9688,-34.975 L 75,-34.975 L 74.95,-34.925 L 75,-34.875 L 78.9688,-34.875
 z
M 2.54999,-34 L 2.5,-34.05 L 0,-34.05 L -0.0499878,-34 L 0,-33.95 L 2.5,-33.95
 z
M 79.0187,-33.3375 L 78.9688,-33.3875 L 75,-33.3875 L 74.95,-33.3375 L 75,-33.2875 L 78.9688,-33.2875
 z
M 2.54999,-33 L 2.5,-33.05 L 0,-33.05 L -0.0499878,-33 L 0,-32.95 L 2.5,-32.95
 z
M 2.54999,-32 L 2.5,-32.05 L 0,-32.05 L -0.0499878,-32 L 0,-31.95 L 2.5,-31.95
 z
M 79.0187,-31.75 L 78.9688,-31.8 L 75,-31.8 L 74.95,-31.75 L 75,-31.7 L 78.9688,-31.7
 z
M 2.54999,-31 L 2.5,-31.05 L 0,-31.05 L -0.0499878,-31 L 0,-30.95 L 2.5,-30.95
 z
M 79.0187,-30.1625 L 78.9688,-30.2125 L 75,-30.2125 L 74.95,-30.1625 L 75,-30.1125 L 78.9688,-30.1125
 z
M 5.09999,-30 L 5,-30.1 L 0,-30.1 L -0.0999908,-30 L 0,-29.9 L 5,-29.9
 z
M 2.54999,-29 L 2.5,-29.05 L 0,-29.05 L -0.0499878,-29 L 0,-28.95 L 2.5,-28.95
 z
M 79.0187,-28.575 L 78.9688,-28.625 L 75,-28.625 L 74.95,-28.575 L 75,-28.525 L 78.9688,-28.525
 z
M 2.54999,-28 L 2.5,-28.05 L 0,-28.05 L -0.0499878,-28 L 0,-27.95 L 2.5,-27.95
 z
M 2.54999,-27 L 2.5,-27.05 L 0,-27.05 L -0.0499878,-27 L 0,-26.95 L 2.5,-26.95
 z
M 79.0187,-26.9875 L 78.9688,-27.0375 L 75,-27.0375 L 74.95,-26.9875 L 75,-26.9375 L 78.9688,-26.9375
 z
M 2.54999,-26 L 2.5,-26.05 L 0,-26.05 L -0.0499878,-26 L 0,-25.95 L 2.5,-25.95
 z
M 83.0375,-25.4 L 82.9375,-25.5 L 75,-25.5 L 74.9,-25.4 L 75,-25.3 L 82.9375,-25.3
 z
M 3.38333,-25 L 3.33333,-25.05 L 0,-25.05 L -0.0499878,-25 L 0,-24.95 L 3.33333,-24.95
 z
M 2.54999,-24 L 2.5,-24.05 L 0,-24.05 L -0.0499878,-24 L 0,-23.95 L 2.5,-23.95
 z
M 79.0187,-23.8125 L 78.9688,-23.8625 L 75,-23.8625 L 74.95,-23.8125 L 75,-23.7625 L 78.9688,-23.7625
 z
M 2.54999,-23 L 2.5,-23.05 L 0,-23.05 L -0.0499878,-23 L 0,-22.95 L 2.5,-22.95
 z
M 79.0187,-22.225 L 78.9688,-22.275 L 75,-22.275 L 74.95,-22.225 L 75,-22.175 L 78.9688,-22.175
 z
M 2.54999,-22 L 2.5,-22.05 L 0,-22.05 L -0.0499878,-22 L 0,-21.95 L 2.5,-21.95
 z
M 2.54999,-21 L 2.5,-21.05 L 0,-21.05 L -0.0499878,-21 L 0,-20.95 L 2.5,-20.95
 z
M 79.0187,-20.6375 L 78.9688,-20.6875 L 75,-20.6875 L 74.95,-20.6375 L 75,-20.5875 L 78.9688,-20.5875
 z
M 5.09999,-20 L 5,-20.1 L 0,-20.1 L -0.0999908,-20 L 0,-19.9 L 5,-19.9
 z
M 79.0187,-19.05 L 78.9688,-19.1 L 75,-19.1 L 74.95,-19.05 L 75,-19 L 78.9688,-19
 z
M 2.54999,-19 L 2.5,-19.05 L 0,-19.05 L -0.0499878,-19 L 0,-18.95 L 2.5,-18.95
 z
M 2.54999,-18 L 2.5,-18.05 L 0,-18.05 L -0.0499878,-18 L 0,-17.95 L 2.5,-17.95
 z
M 79.0187,-17.4625 L 78.9688,-17.5125 L 75,-17.5125 L 74.95,-17.4625 L 75,-17.4125 L 78.9688,-17.4125
 z
M 2.54999,-17 L 2.5,-17.05 L 0,-17.05 L -0.0499878,-17 L 0,-16.95 L 2.5,-16.95
 z
M 2.54999,-16 L 2.5,-16.05 L 0,-16.05 L -0.0499878,-16 L 0,-15.95 L 2.5,-15.95
 z
M 79.0187,-15.875 L 78.9688,-15.925 L 75,-15.925 L 74.95,-15.875 L 75,-15.825 L 78.9688,-15.825
 z
M 3.38333,-15 L 3.33333,-15.05 L 0,-15.05 L -0.0499878,-15 L 0,-14.95 L 3.33333,-14.95
 z
M 79.0187,-14.2875 L 78.9688,-14.3375 L 75,-14.3375 L 74.95,-14.2875 L 75,-14.2375 L 78.9688,-14.2375
 z
M 2.54999,-14 L 2.5,-14.05 L 0,-14.05 L -0.0499878,-14 L 0,-13.95 L 2.5,-13.95
 z
M 2.54999,-13 L 2.5,-13.05 L 0,-13.05 L -0.0499878,-13 L 0,-12.95 L 2.5,-12.95
 z
M 80.3417,-12.7 L 80.2917,-12.75 L 75,-12.75 L 74.95,-12.7 L 75,-12.65 L 80.2917,-12.65
 z
M 2.54999,-12 L 2.5,-12.05 L 0,-12.05 L -0.0499878,-12 L 0,-11.95 L 2.5,-11.95
 z
M 2.54999,-11 L 2.5,-11.05 L 0,-11.05 L -0.0499878,-11 L 0,-10.95 L 2.5,-10.95
 z
M 5.09999,-10 L 5,-10.1 L 0,-10.1 L -0.0999908,-10 L 0,-9.89999 L 5,-9.89999
 z
M 2.54999,-9 L 2.5,-9.04999 L 0,-9.04999 L -0.0499878,-9 L 0,-8.95 L 2.5,-8.95
 z
M 2.54999,-8 L 2.5,-8.04999 L 0,-8.04999 L -0.0499878,-8 L 0,-7.95 L 2.5,-7.95
 z
M 100.5,-0 L 100.5,-7.9375 L 100.4,-8.03749 L 100.3,-7.9375 L 100.3,-0 L 100.4,0.0999908
 z
M 125.9,-0 L 125.9,-7.9375 L 125.8,-8.03749 L 125.7,-7.9375 L 125.7,-0 L 125.8,0.0999908
 z
M 2.54999,-7 L 2.5,-7.04999 L 0,-7.04999 L -0.0499878,-7 L 0,-6.95 L 2.5,-6.95
 z
M 134.511,-6.69278 L 133.865,-6.69278 L 133.865,-6.07555 L 134.511,-6.07555 z
M 131.105,-1.91658 L 128.468,-1.91658 L 128.533,-2.05116 L 128.613,-2.18216 L 128.708,-2.30954 L 128.815,-2.43452
 L 128.932,-2.55832 L 129.058,-2.68091 L 129.191,-2.80273 L 129.331,-2.92413 L 129.476,-3.04514 L 129.624,-3.16635
 L 129.771,-3.28836 L 129.917,-3.41116 L 130.061,-3.53537 L 130.201,-3.66156 L 130.337,-3.78973 L 130.466,-3.9205
 L 130.584,-4.05446 L 130.691,-4.19162 L 130.785,-4.33278 L 130.867,-4.47873 L 130.935,-4.62944 L 130.985,-4.78534
 L 131.016,-4.94681 L 131.026,-5.11385 L 131.014,-5.32996 L 130.978,-5.52852 L 130.918,-5.70953 L 130.836,-5.87262
 L 130.733,-6.01733 L 130.608,-6.14371 L 130.463,-6.25137 L 130.297,-6.33987 L 130.111,-6.40924 L 129.906,-6.45911
 L 129.682,-6.48901 L 129.44,-6.49899 L 129.194,-6.48743 L 128.969,-6.45273 L 128.764,-6.39491 L 128.578,-6.31697
 L 128.411,-6.22188 L 128.263,-6.10963 L 128.134,-5.98225 L 128.025,-5.84171 L 127.936,-5.68799 L 127.867,-5.52414
 L 127.817,-5.35309 L 127.786,-5.17487 L 128.446,-5.11385 L 128.469,-5.24921 L 128.506,-5.37302 L 128.556,-5.48528
 L 128.617,-5.58595 L 128.689,-5.67506 L 128.773,-5.75261 L 128.865,-5.81837 L 128.966,-5.87219 L 129.076,-5.91405
 L 129.192,-5.94398 L 129.313,-5.96193 L 129.44,-5.96793 L 129.575,-5.96173 L 129.701,-5.94318 L 129.819,-5.91225
 L 129.927,-5.869 L 130.024,-5.81339 L 130.111,-5.74541 L 130.186,-5.66547 L 130.248,-5.57396 L 130.298,-5.47087
 L 130.334,-5.35626 L 130.355,-5.23007 L 130.362,-5.09232 L 130.347,-4.89377 L 130.299,-4.70956 L 130.221,-4.5397
 L 130.116,-4.37943 L 129.992,-4.22392 L 129.849,-4.07318 L 129.69,-3.9249 L 129.518,-3.77658 L 129.334,-3.62828
 L 129.143,-3.47578 L 128.951,-3.3149 L 128.758,-3.14563 L 128.567,-2.96541 L 128.383,-2.77164 L 128.204,-2.56429
 L 128.037,-2.33922 L 127.888,-2.09222 L 127.757,-1.82329 L 127.757,-1.36757 L 131.105,-1.36757 z
M 2.54999,-6 L 2.5,-6.04999 L 0,-6.04999 L -0.0499878,-6 L 0,-5.95 L 2.5,-5.95
 z
M 113.15,-0 L 113.15,-5.29166 L 113.1,-5.34166 L 113.05,-5.29166 L 113.05,-0 L 113.1,0.0499878
 z
M 87.75,-0 L 87.75,-5.29166 L 87.7,-5.34166 L 87.65,-5.29166 L 87.65,-0 L 87.7,0.0499878
 z
M 136.123,-3.61748 L 136.131,-3.80388 L 136.155,-3.97551 L 136.195,-4.1324 L 136.249,-4.27397 L 136.317,-4.39957
 L 136.398,-4.50922 L 136.491,-4.60291 L 136.596,-4.68065 L 136.714,-4.74242 L 136.842,-4.78729 L 136.98,-4.81421
 L 137.128,-4.82318 L 137.271,-4.81779 L 137.397,-4.80165 L 137.507,-4.77475 L 137.602,-4.73489 L 137.684,-4.67989
 L 137.752,-4.60971 L 137.809,-4.52379 L 137.854,-4.42151 L 137.887,-4.3029 L 137.91,-4.16574 L 137.924,-4.00783
 L 137.928,-3.82921 L 137.928,-1.36757 L 138.578,-1.36757 L 138.578,-3.95483 L 138.57,-4.18306 L 138.547,-4.38939
 L 138.508,-4.57378 L 138.452,-4.73666 L 138.379,-4.87842 L 138.287,-4.99902 L 138.177,-5.0995 L 138.049,-5.18083
 L 137.903,-5.24301 L 137.738,-5.28688 L 137.552,-5.3132 L 137.347,-5.32196 L 137.186,-5.31619 L 137.039,-5.29884
 L 136.906,-5.26994 L 136.784,-5.23048 L 136.671,-5.18144 L 136.568,-5.12285 L 136.474,-5.05486 L 136.388,-4.97771
 L 136.31,-4.89139 L 136.238,-4.79689 L 136.17,-4.69522 L 136.105,-4.58638 L 136.095,-4.58638 L 136.094,-4.638
 L 136.093,-4.69719 L 136.091,-4.76396 L 136.088,-4.83415 L 136.085,-4.90352 L 136.082,-4.97208 L 136.079,-5.03767
 L 136.076,-5.0981 L 136.073,-5.15332 L 136.071,-5.19917 L 136.068,-5.23148 L 136.066,-5.25021 L 135.456,-5.25021
 L 135.458,-5.22667 L 135.461,-5.18958 L 135.463,-5.13893 L 135.465,-5.07774 L 135.468,-5.00897 L 135.47,-4.9326
 L 135.472,-4.85089 L 135.474,-4.76598 L 135.476,-4.67787 L 135.477,-4.58955 L 135.477,-4.50401 L 135.477,-4.42128
 L 135.477,-1.36757 L 136.123,-1.36757 z
M 134.511,-5.25021 L 133.865,-5.25021 L 133.865,-1.36757 L 134.511,-1.36757 z
M 10.1,-0 L 10.1,-5 L 10,-5.09999 L 9.89999,-5 L 9.89999,-0 L 10,0.0999908
 z
M 50.1,-0 L 50.1,-5 L 50,-5.09999 L 49.9,-5 L 49.9,-0 L 50,0.0999908
 z
M 40.1,-0 L 40.1,-5 L 40,-5.09999 L 39.9,-5 L 39.9,-0 L 40,0.0999908
 z
M 20.1,-0 L 20.1,-5 L 20,-5.09999 L 19.9,-5 L 19.9,-0 L 20,0.0999908
 z
M 30.1,-0 L 30.1,-5 L 30,-5.09999 L 29.9,-5 L 29.9,-0 L 30,0.0999908
 z
M 3.38333,-5 L 3.33333,-5.04999 L 0,-5.04999 L -0.0499878,-5 L 0,-4.95 L 3.33333,-4.95
 z
M 55.0199,-0.919464 L 55.2301,-0.982193 L 55.4202,-1.09323 L 55.5838,-1.25909 L 55.7183,-1.48232 L 55.8212,-1.76543
 L 55.8864,-2.11494 L 55.9082,-2.53734 L 55.8867,-2.97728 L 55.8223,-3.33414 L 55.7206,-3.61754 L 55.5872,-3.83708
 L 55.4253,-3.9967 L 55.238,-4.1004 L 55.0309,-4.15721 L 54.8096,-4.17615 L 54.5791,-4.15721 L 54.3666,-4.1004
 L 54.1767,-3.9967 L 54.0139,-3.83708 L 53.8809,-3.61754 L 53.78,-3.33414 L 53.7164,-2.97728 L 53.6953,-2.53734
 L 53.7164,-2.11324 L 53.78,-1.76315 L 53.8806,-1.48033 L 54.0128,-1.25797 L 54.1741,-1.09296 L 54.362,-0.982193
 L 54.5712,-0.919464 L 54.7961,-0.89856 z
M 54.6446,-1.2475 L 54.5067,-1.29749 L 54.3878,-1.38565 L 54.2886,-1.51675 L 54.2101,-1.69394 L 54.153,-1.92026
 L 54.1182,-2.19998 L 54.1066,-2.53734 L 54.118,-2.88347 L 54.1518,-3.16687 L 54.2081,-3.39348 L 54.2863,-3.56921
 L 54.3861,-3.69777 L 54.5067,-3.78281 L 54.648,-3.83028 L 54.8096,-3.84612 L 54.9636,-3.83057 L 55.1001,-3.78394
 L 55.2179,-3.69975 L 55.3159,-3.57147 L 55.3934,-3.39574 L 55.4493,-3.16911 L 55.4832,-2.88515 L 55.4946,-2.53734
 L 55.4824,-2.19998 L 55.446,-1.92026 L 55.3872,-1.69394 L 55.308,-1.51675 L 55.2089,-1.38565 L 55.0899,-1.29749
 L 54.9532,-1.2475 L 54.8006,-1.23082 z
M 52.5114,-0.918335 L 52.7394,-0.977661 L 52.9335,-1.07289 L 53.0931,-1.20032 L 53.218,-1.3577 L 53.3079,-1.54276
 L 53.3621,-1.75186 L 53.3802,-1.98129 L 53.3621,-2.19151 L 53.3079,-2.38362 L 53.2203,-2.55399 L 53.1022,-2.69894
 L 52.9547,-2.81621 L 52.7789,-2.9035 L 52.5772,-2.95776 L 52.3517,-2.97585 L 52.1432,-2.96086 L 51.9652,-2.91594
 L 51.816,-2.85011 L 51.6939,-2.77242 L 51.755,-3.78284 L 53.1949,-3.78284 L 53.1949,-4.12868 L 51.3843,-4.12868
 L 51.278,-2.4153 L 51.6759,-2.4153 L 51.7298,-2.45964 L 51.7878,-2.50227 L 51.851,-2.54156 L 51.9211,-2.57574
 L 51.9977,-2.604 L 52.0805,-2.62547 L 52.1703,-2.63905 L 52.2681,-2.64357 L 52.4221,-2.63115 L 52.5585,-2.59384
 L 52.6764,-2.53421 L 52.7744,-2.45482 L 52.8524,-2.35707 L 52.9101,-2.24236 L 52.9457,-2.11325 L 52.9575,-1.97226
 L 52.9451,-1.80386 L 52.9078,-1.65579 L 52.8476,-1.52863 L 52.7665,-1.42296 L 52.6656,-1.33961 L 52.5461,-1.27942
 L 52.4099,-1.24298 L 52.2591,-1.23082 L 52.1084,-1.24072 L 51.9821,-1.27039 L 51.877,-1.31673 L 51.79,-1.37662
 L 51.7202,-1.44785 L 51.6668,-1.52809 L 51.6267,-1.61427 L 51.5968,-1.70326 L 51.1854,-1.65579 L 51.228,-1.50264
 L 51.2927,-1.35966 L 51.3817,-1.23055 L 51.4973,-1.11893 L 51.6405,-1.02711 L 51.8126,-0.957321 L 52.0152,-0.913254
 L 52.25,-0.89856 z
M 117.912,-0 L 117.912,-3.96875 L 117.862,-4.01874 L 117.812,-3.96875 L 117.812,-0 L 117.862,0.0499878
 z
M 116.325,-0 L 116.325,-3.96875 L 116.275,-4.01874 L 116.225,-3.96875 L 116.225,-0 L 116.275,0.0499878
 z
M 97.275,-0 L 97.275,-3.96875 L 97.225,-4.01874 L 97.175,-3.96875 L 97.175,-0 L 97.225,0.0499878
 z
M 119.5,-0 L 119.5,-3.96875 L 119.45,-4.01874 L 119.4,-3.96875 L 119.4,-0 L 119.45,0.0499878
 z
M 108.387,-0 L 108.387,-3.96875 L 108.337,-4.01874 L 108.287,-3.96875 L 108.287,-0 L 108.337,0.0499878
 z
M 121.087,-0 L 121.087,-3.96875 L 121.037,-4.01874 L 120.987,-3.96875 L 120.987,-0 L 121.037,0.0499878
 z
M 95.6875,-0 L 95.6875,-3.96875 L 95.6375,-4.01874 L 95.5875,-3.96875 L 95.5875,-0 L 95.6375,0.0499878
 z
M 122.675,-0 L 122.675,-3.96875 L 122.625,-4.01874 L 122.575,-3.96875 L 122.575,-0 L 122.625,0.0499878
 z
M 106.8,-0 L 106.8,-3.96875 L 106.75,-4.01874 L 106.7,-3.96875 L 106.7,-0 L 106.75,0.0499878
 z
M 124.262,-0 L 124.262,-3.96875 L 124.212,-4.01874 L 124.162,-3.96875 L 124.162,-0 L 124.212,0.0499878
 z
M 94.1,-0 L 94.1,-3.96875 L 94.05,-4.01874 L 94,-3.96875 L 94,-0 L 94.05,0.0499878
 z
M 114.737,-0 L 114.737,-3.96875 L 114.688,-4.01874 L 114.637,-3.96875 L 114.637,-0 L 114.688,0.0499878
 z
M 98.8625,-0 L 98.8625,-3.96875 L 98.8125,-4.01874 L 98.7625,-3.96875 L 98.7625,-0 L 98.8125,0.0499878
 z
M 109.975,-0 L 109.975,-3.96875 L 109.925,-4.01874 L 109.875,-3.96875 L 109.875,-0 L 109.925,0.0499878
 z
M 111.562,-0 L 111.562,-3.96875 L 111.512,-4.01874 L 111.462,-3.96875 L 111.462,-0 L 111.512,0.0499878
 z
M 105.212,-0 L 105.212,-3.96875 L 105.162,-4.01874 L 105.112,-3.96875 L 105.112,-0 L 105.162,0.0499878
 z
M 92.5125,-0 L 92.5125,-3.96875 L 92.4625,-4.01874 L 92.4125,-3.96875 L 92.4125,-0 L 92.4625,0.0499878
 z
M 103.625,-0 L 103.625,-3.96875 L 103.575,-4.01874 L 103.525,-3.96875 L 103.525,-0 L 103.575,0.0499878
 z
M 90.925,-0 L 90.925,-3.96875 L 90.875,-4.01874 L 90.825,-3.96875 L 90.825,-0 L 90.875,0.0499878
 z
M 102.037,-0 L 102.037,-3.96875 L 101.987,-4.01874 L 101.937,-3.96875 L 101.937,-0 L 101.987,0.0499878
 z
M 89.3375,-0 L 89.3375,-3.96875 L 89.2875,-4.01874 L 89.2375,-3.96875 L 89.2375,-0 L 89.2875,0.0499878
 z
M 61.7767,-2.36102 L 61.7866,-2.53365 L 61.8162,-2.68538 L 61.8643,-2.81537 L 61.9293,-2.92274 L 62.0104,-3.00751
 L 62.1067,-3.06964 L 62.2169,-3.10779 L 62.3395,-3.12051 L 62.4543,-3.11288 L 62.5498,-3.09001 L 62.6275,-3.04877
 L 62.6888,-2.98604 L 62.7343,-2.90099 L 62.7645,-2.79277 L 62.7814,-2.65828 L 62.7871,-2.49438 L 62.7871,-0.943756
 L 63.1895,-0.943756 L 63.1895,-2.36102 L 63.1994,-2.53734 L 63.229,-2.69104 L 63.277,-2.82158 L 63.342,-2.92838
 L 63.4231,-3.01175 L 63.5195,-3.07191 L 63.6297,-3.10835 L 63.7523,-3.12051 L 63.867,-3.11288 L 63.9625,-3.09001
 L 64.0402,-3.04877 L 64.1015,-2.98604 L 64.147,-2.90099 L 64.1773,-2.79277 L 64.1942,-2.65828 L 64.1999,-2.49438
 L 64.1999,-0.943756 L 64.6022,-0.943756 L 64.6022,-2.5735 L 64.592,-2.784 L 64.5615,-2.96341 L 64.5095,-3.11232
 L 64.4349,-3.23128 L 64.3369,-3.3217 L 64.2145,-3.38498 L 64.0673,-3.42227 L 63.8947,-3.43471 L 63.7579,-3.42651
 L 63.637,-3.40195 L 63.5296,-3.3624 L 63.4336,-3.30928 L 63.3488,-3.24287 L 63.2753,-3.16348 L 63.2109,-3.07249
 L 63.1533,-2.97134 L 63.1465,-2.97134 L 63.0586,-3.18042 L 62.9216,-3.32394 L 62.7309,-3.40701 L 62.4819,-3.43471
 L 62.346,-3.42651 L 62.2276,-3.40195 L 62.1242,-3.3624 L 62.0333,-3.30928 L 61.9539,-3.24287 L 61.8852,-3.16348
 L 61.8242,-3.07249 L 61.7677,-2.97134 L 61.7609,-2.97134 L 61.7603,-3.02191 L 61.7586,-3.08321 L 61.7561,-3.14934
 L 61.753,-3.21431 L 61.7498,-3.27507 L 61.7473,-3.32848 L 61.745,-3.36861 L 61.7428,-3.38951 L 61.3585,-3.38951
 L 61.3608,-3.36407 L 61.363,-3.31941 L 61.3653,-3.2598 L 61.3676,-3.18944 L 61.3695,-3.11148 L 61.3709,-3.02898
 L 61.3718,-2.94618 L 61.3721,-2.86734 L 61.3721,-0.943756 L 61.7767,-0.943756 z
M 58.0106,-2.36102 L 58.0204,-2.53365 L 58.0501,-2.68538 L 58.0981,-2.81537 L 58.1631,-2.92274 L 58.2442,-3.00751
 L 58.3406,-3.06964 L 58.4508,-3.10779 L 58.5734,-3.12051 L 58.6881,-3.11288 L 58.7836,-3.09001 L 58.8613,-3.04877
 L 58.9226,-2.98604 L 58.9681,-2.90099 L 58.9984,-2.79277 L 59.0153,-2.65828 L 59.021,-2.49438 L 59.021,-0.943756
 L 59.4233,-0.943756 L 59.4233,-2.36102 L 59.4332,-2.53734 L 59.4629,-2.69104 L 59.5109,-2.82158 L 59.5759,-2.92838
 L 59.657,-3.01175 L 59.7533,-3.07191 L 59.8635,-3.10835 L 59.9862,-3.12051 L 60.1009,-3.11288 L 60.1964,-3.09001
 L 60.2741,-3.04877 L 60.3354,-2.98604 L 60.3809,-2.90099 L 60.4111,-2.79277 L 60.4281,-2.65828 L 60.4337,-2.49438
 L 60.4337,-0.943756 L 60.8361,-0.943756 L 60.8361,-2.5735 L 60.8259,-2.784 L 60.7953,-2.96341 L 60.7434,-3.11232
 L 60.6688,-3.23128 L 60.5707,-3.3217 L 60.4484,-3.38498 L 60.3012,-3.42227 L 60.1286,-3.43471 L 59.9918,-3.42651
 L 59.8708,-3.40195 L 59.7635,-3.3624 L 59.6674,-3.30928 L 59.5827,-3.24287 L 59.5092,-3.16348 L 59.4448,-3.07249
 L 59.3871,-2.97134 L 59.3804,-2.97134 L 59.2925,-3.18042 L 59.1554,-3.32394 L 58.9647,-3.40701 L 58.7158,-3.43471
 L 58.5799,-3.42651 L 58.4615,-3.40195 L 58.3581,-3.3624 L 58.2671,-3.30928 L 58.1877,-3.24287 L 58.119,-3.16348
 L 58.058,-3.07249 L 58.0015,-2.97134 L 57.9947,-2.97134 L 57.9942,-3.02191 L 57.9924,-3.08321 L 57.9899,-3.14934
 L 57.9868,-3.21431 L 57.9837,-3.27507 L 57.9812,-3.32848 L 57.9789,-3.36861 L 57.9767,-3.38951 L 57.5924,-3.38951
 L 57.5946,-3.36407 L 57.5969,-3.31941 L 57.5992,-3.2598 L 57.6014,-3.18944 L 57.6034,-3.11148 L 57.6048,-3.02898
 L 57.6056,-2.94618 L 57.6059,-2.86734 L 57.6059,-0.943756 L 58.0106,-0.943756 z
M 45.05,-0 L 45.05,-3.33333 L 45,-3.38333 L 44.95,-3.33333 L 44.95,-0 L 45,0.0499878
 z
M 35.05,-0 L 35.05,-3.33333 L 35,-3.38333 L 34.95,-3.33333 L 34.95,-0 L 35,0.0499878
 z
M 5.04999,-0 L 5.04999,-3.33333 L 5,-3.38333 L 4.95,-3.33333 L 4.95,-0 L 5,0.0499878
 z
M 25.05,-0 L 25.05,-3.33333 L 25,-3.38333 L 24.95,-3.33333 L 24.95,-0 L 25,0.0499878
 z
M 15.05,-0 L 15.05,-3.33333 L 15,-3.38333 L 14.95,-3.33333 L 14.95,-0 L 15,0.0499878
 z
M 19.05,-0 L 19.05,-2.5 L 19,-2.54999 L 18.95,-2.5 L 18.95,-0 L 19,0.0499878
 z
M 24.05,-0 L 24.05,-2.5 L 24,-2.54999 L 23.95,-2.5 L 23.95,-0 L 24,0.0499878
 z
M 23.05,-0 L 23.05,-2.5 L 23,-2.54999 L 22.95,-2.5 L 22.95,-0 L 23,0.0499878
 z
M 48.05,-0 L 48.05,-2.5 L 48,-2.54999 L 47.95,-2.5 L 47.95,-0 L 48,0.0499878
 z
M 9.04999,-0 L 9.04999,-2.5 L 9,-2.54999 L 8.95,-2.5 L 8.95,-0 L 9,0.0499878
 z
M 22.05,-0 L 22.05,-2.5 L 22,-2.54999 L 21.95,-2.5 L 21.95,-0 L 22,0.0499878
 z
M 8.04999,-0 L 8.04999,-2.5 L 8,-2.54999 L 7.95,-2.5 L 7.95,-0 L 8,0.0499878
 z
M 21.05,-0 L 21.05,-2.5 L 21,-2.54999 L 20.95,-2.5 L 20.95,-0 L 21,0.0499878
 z
M 7.04999,-0 L 7.04999,-2.5 L 7,-2.54999 L 6.95,-2.5 L 6.95,-0 L 7,0.0499878
 z
M 41.05,-0 L 41.05,-2.5 L 41,-2.54999 L 40.95,-2.5 L 40.95,-0 L 41,0.0499878
 z
M 26.05,-0 L 26.05,-2.5 L 26,-2.54999 L 25.95,-2.5 L 25.95,-0 L 26,0.0499878
 z
M 47.05,-0 L 47.05,-2.5 L 47,-2.54999 L 46.95,-2.5 L 46.95,-0 L 47,0.0499878
 z
M 11.05,-0 L 11.05,-2.5 L 11,-2.54999 L 10.95,-2.5 L 10.95,-0 L 11,0.0499878
 z
M 46.05,-0 L 46.05,-2.5 L 46,-2.54999 L 45.95,-2.5 L 45.95,-0 L 46,0.0499878
 z
M 27.05,-0 L 27.05,-2.5 L 27,-2.54999 L 26.95,-2.5 L 26.95,-0 L 27,0.0499878
 z
M 12.05,-0 L 12.05,-2.5 L 12,-2.54999 L 11.95,-2.5 L 11.95,-0 L 12,0.0499878
 z
M 44.05,-0 L 44.05,-2.5 L 44,-2.54999 L 43.95,-2.5 L 43.95,-0 L 44,0.0499878
 z
M 28.05,-0 L 28.05,-2.5 L 28,-2.54999 L 27.95,-2.5 L 27.95,-0 L 28,0.0499878
 z
M 43.05,-0 L 43.05,-2.5 L 43,-2.54999 L 42.95,-2.5 L 42.95,-0 L 43,0.0499878
 z
M 13.05,-0 L 13.05,-2.5 L 13,-2.54999 L 12.95,-2.5 L 12.95,-0 L 13,0.0499878
 z
M 49.05,-0 L 49.05,-2.5 L 49,-2.54999 L 48.95,-2.5 L 48.95,-0 L 49,0.0499878
 z
M 29.05,-0 L 29.05,-2.5 L 29,-2.54999 L 28.95,-2.5 L 28.95,-0 L 29,0.0499878
 z
M 34.05,-0 L 34.05,-2.5 L 34,-2.54999 L 33.95,-2.5 L 33.95,-0 L 34,0.0499878
 z
M 14.05,-0 L 14.05,-2.5 L 14,-2.54999 L 13.95,-2.5 L 13.95,-0 L 14,0.0499878
 z
M 31.05,-0 L 31.05,-2.5 L 31,-2.54999 L 30.95,-2.5 L 30.95,-0 L 31,0.0499878
 z
M 32.05,-0 L 32.05,-2.5 L 32,-2.54999 L 31.95,-2.5 L 31.95,-0 L 32,0.0499878
 z
M 39.05,-0 L 39.05,-2.5 L 39,-2.54999 L 38.95,-2.5 L 38.95,-0 L 39,0.0499878
 z
M 38.05,-0 L 38.05,-2.5 L 38,-2.54999 L 37.95,-2.5 L 37.95,-0 L 38,0.0499878
 z
M 33.05,-0 L 33.05,-2.5 L 33,-2.54999 L 32.95,-2.5 L 32.95,-0 L 33,0.0499878
 z
M 37.05,-0 L 37.05,-2.5 L 37,-2.54999 L 36.95,-2.5 L 36.95,-0 L 37,0.0499878
 z
M 16.05,-0 L 16.05,-2.5 L 16,-2.54999 L 15.95,-2.5 L 15.95,-0 L 16,0.0499878
 z
M 36.05,-0 L 36.05,-2.5 L 36,-2.54999 L 35.95,-2.5 L 35.95,-0 L 36,0.0499878
 z
M 17.05,-0 L 17.05,-2.5 L 17,-2.54999 L 16.95,-2.5 L 16.95,-0 L 17,0.0499878
 z
M 42.05,-0 L 42.05,-2.5 L 42,-2.54999 L 41.95,-2.5 L 41.95,-0 L 42,0.0499878
 z
M 18.05,-0 L 18.05,-2.5 L 18,-2.54999 L 17.95,-2.5 L 17.95,-0 L 18,0.0499878
 z
M 6.04999,-0 L 6.04999,-2.5 L 6,-2.54999 L 5.95,-2.5 L 5.95,-0 L 6,0.0499878
 z
" stroke="black" fill="lightgray" stroke-width="0.5"/>
</svg>
