<?xml version="1.0" standalone="no"?>
<!DOCTYPE svg PUBLIC "-//W3C//DTD SVG 1.1//EN" "http://www.w3.org/Graphics/SVG/1.1/DTD/svg11.dtd">
<svg width="146mm" height="88mm" viewBox="-19 -78 146 88" xmlns="http://www.w3.org/2000/svg" version="1.1">
<title>OpenSCAD Model</title>
<path d="
M -0.878281,-72.4826 L -0.722321,-72.516 L -0.579926,-72.5716 L -0.448441,-72.648 L -0.325241,-72.7441 L -0.210327,-72.8598
 L -0.103149,-72.9939 L -0.00312805,-73.1453 L 0.0897064,-73.3141 L 0.178436,-73.4988 L 0.266037,-73.6983 L 0.352509,-73.9125
 L 1.763,-77.5811 L 1.11876,-77.5811 L 0.399963,-75.4857 L 0.375473,-75.4138 L 0.347229,-75.3335 L 0.315201,-75.245
 L 0.281494,-75.1527 L 0.248138,-75.0611 L 0.215164,-74.9704 L 0.183517,-74.8828 L 0.154129,-74.8008 L 0.127014,-74.7246
 L 0.104218,-74.6592 L 0.0878296,-74.61 L 0.0778503,-74.5771 L 0.0695648,-74.6076 L 0.0537262,-74.6585 L 0.030365,-74.7297
 L 0.00193787,-74.8144 L -0.0291138,-74.9059 L -0.0628204,-75.0042 L -0.167984,-75.3094 L -0.200943,-75.4043 L -0.229752,-75.4857
 L -0.254425,-75.5535 L -1.02748,-77.5811 L -1.67848,-77.5811 L -0.223877,-73.9295 L -0.281525,-73.7837 L -0.403229,-73.5184
 L -0.53772,-73.306 L -0.685028,-73.1462 L -0.842865,-73.0351 L -1.009,-72.9684 L -1.18343,-72.9462 L -1.2245,-72.9467
 L -1.27084,-72.9484 L -1.32248,-72.9513 L -1.37483,-72.9552 L -1.42343,-72.9603 L -1.46828,-72.9665 L -1.46828,-72.5088
 L -1.39706,-72.4949 L -1.32812,-72.4847 L -1.26143,-72.4783 L -1.19398,-72.4745 L -1.12279,-72.4723 L -1.04782,-72.4715
 z
M 0.0999908,-68.75 L 0.0999908,-70 L 0,-70.1 L -0.0999908,-70 L -0.0999908,-68.75 L 0,-68.65
 z
M 52.9875,-69.4144 L 52.4752,-69.4963 L 52.0819,-67.0354 L 51.966,-67.1161 L 51.8557,-67.2104 L 51.7511,-67.3183
 L 51.6505,-67.4372 L 51.5524,-67.5645 L 51.4568,-67.7001 L 51.363,-67.8428 L 51.2705,-67.9909 L 51.1793,-68.1445
 L 51.0882,-68.3006 L 50.9963,-68.4561 L 50.9036,-68.6109 L 50.8091,-68.7637 L 50.7123,-68.9131 L 50.613,-69.0591
 L 50.5102,-69.1986 L 50.4027,-69.3285 L 50.2907,-69.4488 L 50.1732,-69.5584 L 50.0491,-69.6561 L 49.9186,-69.7418
 L 49.7807,-69.8125 L 49.6346,-69.865 L 49.4803,-69.8994 L 49.2769,-69.9205 L 49.0862,-69.9166 L 48.9084,-69.8878
 L 48.744,-69.8353 L 48.5935,-69.7604 L 48.457,-69.6629 L 48.3349,-69.5434 L 48.2276,-69.402 L 48.1352,-69.2388
 L 48.058,-69.0547 L 47.9967,-68.8504 L 47.9514,-68.6261 L 47.9255,-68.3951 L 47.9242,-68.1795 L 47.9476,-67.9795
 L 47.9926,-67.7947 L 48.0565,-67.6248 L 48.1391,-67.4699 L 48.2387,-67.3307 L 48.3537,-67.2082 L 48.4838,-67.1023
 L 48.6264,-67.0132 L 48.7785,-66.9408 L 48.9401,-66.8852 L 49.0955,-67.4921 L 48.9727,-67.5341 L 48.8626,-67.5866
 L 48.7653,-67.6496 L 48.6805,-67.7221 L 48.6082,-67.8029 L 48.5482,-67.8921 L 48.5007,-67.9884 L 48.4655,-68.0907
 L 48.4428,-68.1991 L 48.4322,-68.312 L 48.4336,-68.4279 L 48.4469,-68.5469 L 48.4727,-68.6716 L 48.5088,-68.7865
 L 48.5553,-68.8919 L 48.6118,-68.9864 L 48.6782,-69.069 L 48.7545,-69.1398 L 48.8403,-69.1978 L 48.935,-69.2422
 L 49.0385,-69.273 L 49.1508,-69.2894 L 49.2718,-69.2907 L 49.4014,-69.2768 L 49.5843,-69.2325 L 49.7491,-69.161
 L 49.8958,-69.0621 L 50.0298,-68.941 L 50.1565,-68.8022 L 50.2757,-68.646 L 50.3904,-68.4753 L 50.5031,-68.293
 L 50.614,-68.0992 L 50.7279,-67.8985 L 50.8493,-67.6953 L 50.9785,-67.4899 L 51.1182,-67.285 L 51.2714,-67.0837
 L 51.4382,-66.8859 L 51.6233,-66.6966 L 51.8316,-66.5209 L 52.063,-66.3586 L 52.4882,-66.2906 z
M 0.0999908,-66.25 L 0.0999908,-67.5 L 0,-67.6 L -0.0999908,-67.5 L -0.0999908,-66.25 L 0,-66.15
 z
M 52.1119,-63.9366 L 52.2259,-64.6498 L 48.8195,-66.5814 L 48.7172,-65.942 L 50.9493,-64.7405 L 50.999,-64.7133
 L 51.0554,-64.6831 L 51.1186,-64.6499 L 51.1858,-64.6154 L 51.2541,-64.581 L 51.3236,-64.5468 L 51.5291,-64.447
 L 51.5923,-64.4165 L 51.6481,-64.3898 L 51.6965,-64.367 L 51.6435,-64.3608 L 51.5823,-64.3539 L 51.513,-64.3465
 L 51.4386,-64.3384 L 51.3623,-64.3294 L 51.2838,-64.3196 L 51.2053,-64.3095 L 51.1288,-64.2994 L 51.0541,-64.2894
 L 50.9841,-64.2798 L 50.9214,-64.271 L 50.8661,-64.2628 L 48.3817,-63.8427 L 48.2789,-63.1999 z
M 0.0999908,-63.75 L 0.0999908,-65 L 0,-65.1 L -0.0999908,-65 L -0.0999908,-63.75 L 0,-63.65
 z
M 0.0999908,-61.25 L 0.0999908,-62.5 L 0,-62.6 L -0.0999908,-62.5 L -0.0999908,-61.25 L 0,-61.15
 z
M 48.321,-51.546 L 49.9531,-55.1979 L 49.9824,-55.2686 L 49.9531,-55.3393 L 49.8824,-55.3686 L 49.8117,-55.3393
 L 48.7149,-53.8979 L 49.9286,-61.4914 L 49.8286,-61.5914 L 49.7286,-61.4914 L 48.5183,-53.9194 L 47.9378,-55.5954
 L 47.9085,-55.6661 L 47.8378,-55.6954 L 47.7671,-55.6661 L 47.7378,-55.5954 L 48.1503,-51.6167 L 48.1796,-51.546
 L 48.2503,-51.5167 z
M 48.0232,-54.7714 L 48.4552,-53.5243 L 48.2716,-52.3757 z
M 48.6487,-53.4835 L 49.4572,-54.5462 L 48.4629,-52.3214 z
M 0.0999908,-58.75 L 0.0999908,-60 L 0,-60.1 L -0.0999908,-60 L -0.0999908,-58.75 L 0,-58.65
 z
M 0.0999908,-56.25 L 0.0999908,-57.5 L 0,-57.6 L -0.0999908,-57.5 L -0.0999908,-56.25 L 0,-56.15
 z
M 87.3492,-4.55836 L 87.3972,-4.53847 L 87.468,-4.56776 L 87.4972,-4.63847 L 87.494,-4.64912 L 88.0697,-5.01015
 L 88.1197,-5.06015 L 88.0697,-5.11015 L 87.4682,-4.73296 L 86.3217,-8.46185 L 86.2925,-8.53256 L 86.2218,-8.56184
 L 86.151,-8.53256 L 86.1217,-8.46185 L 86.2465,-6.63304 L 56.8128,-53.5727 L 58.3812,-52.6773 L 58.4519,-52.648
 L 58.5226,-52.6773 L 58.5519,-52.748 L 58.5226,-52.8187 L 55.642,-55.4965 L 56.1947,-55.843 L 56.2447,-55.8931
 L 56.1947,-55.9431 L 55.5703,-55.5515 L 55.5222,-55.5714 L 55.4515,-55.5421 L 55.4222,-55.4714 L 55.4255,-55.4607
 L 50.8149,-52.5696 L 50.7649,-52.5196 L 50.8149,-52.4696 L 55.4513,-55.3769 L 56.5977,-51.648 L 56.627,-51.5773
 L 56.6977,-51.548 L 56.7684,-51.5773 L 56.7977,-51.648 L 56.6729,-53.4768 L 86.1067,-6.53712 L 84.5383,-7.43257
 L 84.4675,-7.46187 L 84.3968,-7.43257 L 84.3675,-7.36186 L 84.3968,-7.29115 L 87.2775,-4.61337 L 82.6899,-1.73671
 L 82.6399,-1.68671 L 82.6899,-1.63672 z
M 0.0999908,-53.75 L 0.0999908,-55 L 0,-55.1 L -0.0999908,-55 L -0.0999908,-53.75 L 0,-53.65
 z
M 0.0999908,-51.25 L 0.0999908,-52.5 L 0,-52.6 L -0.0999908,-52.5 L -0.0999908,-51.25 L 0,-51.15
 z
M 80.6667,-0 L 48.7917,-50.8329 L 48.125,-51.4996 L 47.4583,-50.8329 L -0.666656,-0 L 0,0.666656
 L 80,0.666656 z
M 47.0683,-31.7557 L 46.227,-31.8207 L 45.3894,-31.9225 L 44.557,-32.061 L 43.7316,-32.2359 L 42.9146,-32.4469
 L 42.1076,-32.6936 L 41.3123,-32.9755 L 40.5301,-33.2921 L 39.7626,-33.6427 L 39.0113,-34.0267 L 38.2775,-34.4433
 L 37.5627,-34.8918 L 36.8683,-35.3712 L 36.1957,-35.8806 L 35.5461,-36.4191 L 35.3305,-36.6143 L 47.9896,-49.9857
 L 57.7976,-34.3443 L 57.6038,-34.2286 L 56.8609,-33.8284 L 56.1012,-33.4612 L 55.3261,-33.1277 L 54.5371,-32.8286
 L 53.7357,-32.5645 L 52.9235,-32.3357 L 52.102,-32.1429 L 51.2729,-31.9864 L 50.4376,-31.8664 L 49.5979,-31.7832
 L 48.7554,-31.737 L 47.9117,-31.7278 z
M 19.2932,-0.666656 L 19.2781,-1.04015 L 19.2428,-1.55928 L 19.1936,-2.07726 L 19.1303,-2.5937 L 19.0531,-3.10826
 L 18.9619,-3.62053 L 18.8569,-4.13014 L 18.7381,-4.63672 L 18.6057,-5.13991 L 18.4597,-5.63931 L 18.3002,-6.13458
 L 18.1273,-6.62534 L 17.9412,-7.11125 L 17.7421,-7.59193 L 17.5299,-8.06705 L 17.305,-8.53624 L 17.0675,-8.99916
 L 16.8175,-9.45547 L 16.5552,-9.90486 L 16.2808,-10.347 L 15.9946,-10.7815 L 15.6967,-11.2081 L 15.3874,-11.6265
 L 15.0668,-12.0363 L 14.7353,-12.4373 L 14.393,-12.8292 L 14.0403,-13.2117 L 13.6773,-13.5845 L 13.6003,-13.6614
 L 35.2286,-36.5067 L 35.5461,-36.2191 L 36.1957,-35.6806 L 36.8683,-35.1712 L 37.5627,-34.6918 L 38.2775,-34.2433
 L 39.0113,-33.8267 L 39.7626,-33.4427 L 40.5301,-33.0921 L 41.3123,-32.7755 L 42.1076,-32.4936 L 42.9146,-32.2469
 L 43.7316,-32.0359 L 44.557,-31.861 L 45.3894,-31.7225 L 46.227,-31.6207 L 47.0683,-31.5557 L 47.9117,-31.5278
 L 48.7554,-31.537 L 49.5979,-31.5832 L 50.4376,-31.6664 L 51.2729,-31.7864 L 52.102,-31.9429 L 52.9235,-32.1357
 L 53.7357,-32.3644 L 54.5371,-32.6286 L 55.3261,-32.9277 L 56.1012,-33.2612 L 56.8609,-33.6284 L 57.6038,-34.0286
 L 57.8888,-34.1988 L 78.9153,-0.666656 z
M 43.9525,-23.9368 L 44.1508,-23.972 L 44.3326,-24.028 L 44.4984,-24.1018 L 44.6481,-24.1935 L 44.7811,-24.3013
 L 44.8966,-24.4232 L 44.9946,-24.5595 L 45.0751,-24.7071 L 45.1383,-24.8632 L 45.1842,-25.0279 L 44.569,-25.1469
 L 44.5345,-25.0218 L 44.4886,-24.9088 L 44.4315,-24.8079 L 44.3641,-24.719 L 44.2878,-24.642 L 44.2023,-24.5768
 L 44.109,-24.5236 L 44.009,-24.4825 L 43.9022,-24.4533 L 43.7901,-24.436 L 43.6743,-24.4305 L 43.5547,-24.4367
 L 43.4287,-24.455 L 43.3118,-24.4843 L 43.2039,-24.5244 L 43.1062,-24.5751 L 43.0197,-24.6365 L 42.9445,-24.7085
 L 42.8815,-24.7907 L 42.8316,-24.8826 L 42.7947,-24.9841 L 42.7717,-25.0952 L 42.7632,-25.2159 L 42.7693,-25.3461
 L 42.8026,-25.5313 L 42.8643,-25.7001 L 42.9542,-25.8524 L 43.0672,-25.9934 L 43.1981,-26.1281 L 43.347,-26.2564
 L 43.5106,-26.381 L 43.6858,-26.5044 L 43.8727,-26.6266 L 44.0663,-26.7522 L 44.2619,-26.8856 L 44.4593,-27.0267
 L 44.6555,-27.1783 L 44.8474,-27.3433 L 45.0349,-27.5215 L 45.2128,-27.7176 L 45.3758,-27.9359 L 45.5241,-28.1765
 L 45.5666,-28.605 L 42.4187,-28.9176 L 42.3674,-28.4014 L 44.8473,-28.1552 L 44.7737,-28.0347 L 44.6861,-27.919
 L 44.5846,-27.8081 L 44.4719,-27.7006 L 44.3507,-27.5951 L 44.2209,-27.4916 L 44.0842,-27.3895 L 43.9418,-27.2884
 L 43.7939,-27.1882 L 43.6435,-27.088 L 43.4938,-26.987 L 43.3447,-26.8852 L 43.1978,-26.7819 L 43.0544,-26.6763
 L 42.9146,-26.5685 L 42.7815,-26.4576 L 42.6582,-26.3426 L 42.5447,-26.2236 L 42.4423,-26.0997 L 42.3522,-25.9701
 L 42.2744,-25.8347 L 42.212,-25.6929 L 42.1683,-25.5439 L 42.1431,-25.3878 L 42.1342,-25.1835 L 42.1494,-24.9934
 L 42.1887,-24.8177 L 42.2509,-24.6566 L 42.3347,-24.5109 L 42.4401,-24.3804 L 42.5667,-24.2656 L 42.7142,-24.1669
 L 42.8826,-24.0844 L 43.071,-24.0183 L 43.2785,-23.9693 L 43.5051,-23.9373 L 43.7373,-23.9252 z
M 47.8276,-24.6582 L 48.0181,-24.68 L 48.1882,-24.7186 L 48.34,-24.7722 L 48.4737,-24.8409 L 48.5899,-24.9235
 L 48.6897,-25.0186 L 48.7729,-25.1264 L 48.8414,-25.2451 L 48.8973,-25.373 L 48.9404,-25.5101 L 48.3118,-25.6304
 L 48.2827,-25.5241 L 48.2452,-25.4319 L 48.1992,-25.3537 L 48.145,-25.2883 L 48.0828,-25.2343 L 48.0127,-25.1917
 L 47.9349,-25.1596 L 47.8498,-25.1374 L 47.7573,-25.125 L 47.6577,-25.1207 L 47.5512,-25.1228 L 47.4377,-25.1312
 L 47.3113,-25.1489 L 47.1975,-25.1755 L 47.0964,-25.2111 L 47.0075,-25.2565 L 46.9308,-25.3124 L 46.866,-25.3788
 L 46.8135,-25.4567 L 46.7737,-25.547 L 46.7464,-25.6496 L 46.7314,-25.7654 L 46.7283,-25.8952 L 46.7373,-26.039
 L 46.7571,-26.238 L 47.5783,-26.1701 L 47.7738,-26.1601 L 47.9681,-26.1602 L 48.161,-26.1701 L 48.3472,-26.1948
 L 48.5214,-26.2388 L 48.6835,-26.3022 L 48.8313,-26.3873 L 48.9625,-26.4964 L 49.0772,-26.6294 L 49.1698,-26.7904
 L 49.2349,-26.9833 L 49.2726,-27.208 L 49.273,-27.5245 L 49.2071,-27.799 L 49.075,-28.0317 L 48.8762,-28.2143
 L 48.6103,-28.3383 L 48.2772,-28.404 L 48.1122,-28.4143 L 47.9592,-28.4113 L 47.818,-28.3951 L 47.6871,-28.3666
 L 47.5645,-28.3271 L 47.4502,-28.2766 L 47.344,-28.2154 L 47.2455,-28.144 L 47.1546,-28.0623 L 47.0693,-27.9716
 L 46.9874,-27.873 L 46.9089,-27.7664 L 46.8887,-27.7684 L 46.8901,-27.8859 L 46.8838,-27.9938 L 46.8697,-28.0923
 L 46.8472,-28.1816 L 46.8154,-28.262 L 46.7744,-28.3335 L 46.7232,-28.3957 L 46.6609,-28.4485 L 46.5874,-28.4918
 L 46.5023,-28.5257 L 46.4054,-28.5507 L 46.2966,-28.5666 L 46.2127,-28.5734 L 46.1319,-28.5769 L 46.0541,-28.5771
 L 45.9775,-28.5741 L 45.9003,-28.5681 L 45.8224,-28.5592 L 45.7848,-28.1813 L 45.8173,-28.1845 L 45.8505,-28.1869
 L 45.8843,-28.1885 L 45.9184,-28.1889 L 45.9524,-28.1878 L 45.9862,-28.1852 L 46.1031,-28.1582 L 46.1886,-28.1037
 L 46.2426,-28.0217 L 46.2714,-27.9119 L 46.2816,-27.774 L 46.2731,-27.6081 L 46.1169,-26.0358 L 46.1191,-25.6651
 L 46.2047,-25.3495 L 46.3738,-25.0887 L 46.6259,-24.8866 L 46.9608,-24.7472 L 47.3783,-24.6703 L 47.6143,-24.655
 z
M 47.6118,-26.6012 L 47.4653,-26.6106 L 46.7993,-26.6631 L 46.8291,-26.9634 L 46.849,-27.0837 L 46.885,-27.2062
 L 46.9372,-27.3309 L 47.0051,-27.4525 L 47.0885,-27.5658 L 47.1873,-27.6707 L 47.3014,-27.764 L 47.4308,-27.8426
 L 47.5753,-27.9064 L 47.7343,-27.9503 L 47.907,-27.9689 L 48.0936,-27.9623 L 48.2746,-27.9261 L 48.4216,-27.857
 L 48.5347,-27.7549 L 48.6116,-27.6231 L 48.6498,-27.4648 L 48.6494,-27.2801 L 48.6242,-27.1274 L 48.5812,-26.9977
 L 48.5205,-26.8909 L 48.4446,-26.8038 L 48.3564,-26.733 L 48.2558,-26.6787 L 48.1442,-26.6392 L 48.0229,-26.6132
 L 47.892,-26.6006 L 47.7541,-26.5978 z
M 20.9861,-8.93271 L 20.9675,-8.95958 L 20.9494,-8.98743 L 20.9316,-9.01627 L 20.9148,-9.04591 L 20.8993,-9.07617
 L 20.8852,-9.10703 L 20.8522,-9.2224 L 20.8585,-9.32356 L 20.9041,-9.41049 L 20.9862,-9.48891 L 21.102,-9.56453
 L 21.2513,-9.63741 L 22.7026,-10.262 L 23.0259,-10.4433 L 23.2607,-10.6711 L 23.407,-10.9453 L 23.4617,-11.2637
 L 23.4216,-11.6242 L 23.2868,-12.0267 L 23.1859,-12.2407 L 23.0798,-12.4257 L 22.9685,-12.5819 L 22.8524,-12.712
 L 22.732,-12.8189 L 22.6072,-12.9026 L 22.4787,-12.9644 L 22.3471,-13.0056 L 22.2126,-13.0262 L 22.0755,-13.0287
 L 21.9365,-13.0157 L 21.7957,-12.987 L 21.9947,-12.3788 L 22.1018,-12.4048 L 22.2007,-12.4166 L 22.2914,-12.4142
 L 22.3748,-12.3984 L 22.4522,-12.3702 L 22.5234,-12.3295 L 22.5891,-12.2769 L 22.6498,-12.2132 L 22.7054,-12.1383
 L 22.7574,-12.0532 L 22.8072,-11.959 L 22.8547,-11.8556 L 22.9005,-11.7364 L 22.9323,-11.624 L 22.95,-11.5182
 L 22.9534,-11.4186 L 22.9416,-11.3243 L 22.9148,-11.2355 L 22.8721,-11.1519 L 22.8124,-11.0733 L 22.7358,-10.9997
 L 22.6417,-10.9305 L 22.5296,-10.865 L 22.3995,-10.8033 L 22.2158,-10.7242 L 21.8776,-11.4757 L 21.7917,-11.6516
 L 21.6976,-11.8215 L 21.5955,-11.9855 L 21.4837,-12.1365 L 21.3609,-12.2676 L 21.2269,-12.3787 L 21.081,-12.4668
 L 20.922,-12.5289 L 20.7501,-12.5648 L 20.5643,-12.5679 L 20.3641,-12.5316 L 20.1492,-12.4557 L 19.8721,-12.3028
 L 19.6638,-12.1123 L 19.5241,-11.884 L 19.4606,-11.6217 L 19.4808,-11.3289 L 19.5846,-11.0057 L 19.6555,-10.8564
 L 19.7321,-10.7239 L 19.8147,-10.6083 L 19.903,-10.5074 L 19.9969,-10.4193 L 20.0965,-10.3438 L 20.2014,-10.2805
 L 20.3116,-10.2289 L 20.427,-10.1889 L 20.5477,-10.1582 L 20.6737,-10.1342 L 20.8049,-10.1171 L 20.8129,-10.0984
 L 20.7095,-10.0428 L 20.6181,-9.98505 L 20.5387,-9.92508 L 20.4715,-9.86209 L 20.4165,-9.79538 L 20.3739,-9.72491
 L 20.3442,-9.64999 L 20.3282,-9.5699 L 20.3259,-9.48463 L 20.3373,-9.39378 L 20.3624,-9.29691 L 20.4012,-9.194
 L 20.4358,-9.11728 L 20.4719,-9.04485 L 20.5094,-8.97672 L 20.5491,-8.91113 L 20.5917,-8.84645 L 20.6373,-8.78261
 z
M 21.033,-10.3533 L 20.8936,-10.3714 L 20.7539,-10.4071 L 20.617,-10.4618 L 20.4856,-10.5369 L 20.3598,-10.6325
 L 20.2445,-10.7503 L 20.1445,-10.8925 L 20.06,-11.0589 L 20.004,-11.2348 L 19.9933,-11.3969 L 20.0279,-11.5453
 L 20.106,-11.6763 L 20.226,-11.7864 L 20.3878,-11.8755 L 20.5336,-11.9274 L 20.668,-11.9526 L 20.7908,-11.9511
 L 20.9037,-11.9269 L 21.0084,-11.884 L 21.1046,-11.8223 L 21.1932,-11.7437 L 21.2747,-11.6502 L 21.349,-11.5417
 L 21.4183,-11.4224 L 21.4842,-11.2963 L 21.5469,-11.1636 L 21.8234,-10.5554 L 21.5462,-10.4361 L 21.4313,-10.3952
 L 21.3067,-10.3675 L 21.1723,-10.3527 z
M 22.4519,-5.82658 L 21.9922,-6.89482 L 25.904,-8.57819 L 25.6815,-9.0952 L 24.522,-9.82542 L 23.9925,-9.59758
 L 25.1257,-8.91142 L 21.7496,-7.45859 L 21.2685,-8.57664 L 20.792,-8.3716 L 21.9754,-5.62152 z
M 1.29781,-0.666656 L 13.5021,-13.5576 L 13.5276,-13.5328 L 13.8403,-13.2117 L 14.193,-12.8292 L 14.5353,-12.4373
 L 14.8669,-12.0363 L 15.1874,-11.6265 L 15.4967,-11.2081 L 15.7946,-10.7815 L 16.0808,-10.347 L 16.3552,-9.90486
 L 16.6175,-9.45547 L 16.8675,-8.99916 L 17.105,-8.53624 L 17.3299,-8.06705 L 17.5421,-7.59193 L 17.7412,-7.11125
 L 17.9273,-6.62534 L 18.1002,-6.13458 L 18.2597,-5.63931 L 18.4057,-5.13991 L 18.5381,-4.63672 L 18.6569,-4.13014
 L 18.7619,-3.62053 L 18.8531,-3.10826 L 18.9303,-2.5937 L 18.9936,-2.07726 L 19.0428,-1.55928 L 19.078,-1.04015
 L 19.0932,-0.666656 z
M 0.0999908,-48.75 L 0.0999908,-50 L 0,-50.1 L -0.0999908,-50 L -0.0999908,-48.75 L 0,-48.65
 z
M 0.0999908,-46.25 L 0.0999908,-47.5 L 0,-47.6 L -0.0999908,-47.5 L -0.0999908,-46.25 L 0,-46.15
 z
M 0.0999908,-43.75 L 0.0999908,-45 L 0,-45.1 L -0.0999908,-45 L -0.0999908,-43.75 L 0,-43.65
 z
M 0.0999908,-41.25 L 0.0999908,-42.5 L 0,-42.6 L -0.0999908,-42.5 L -0.0999908,-41.25 L 0,-41.15
 z
M 0.0999908,-38.75 L 0.0999908,-40 L 0,-40.1 L -0.0999908,-40 L -0.0999908,-38.75 L 0,-38.65
 z
M 0.0999908,-36.25 L 0.0999908,-37.5 L 0,-37.6 L -0.0999908,-37.5 L -0.0999908,-36.25 L 0,-36.15
 z
M 74.3973,-32.4401 L 74.5461,-32.4678 L 74.6935,-32.5209 L 74.8397,-32.5994 L 74.943,-32.6716 L 75.0308,-32.7486
 L 75.103,-32.8306 L 75.1617,-32.9165 L 75.2087,-33.0053 L 75.244,-33.0971 L 75.2687,-33.1915 L 75.2834,-33.2881
 L 75.2883,-33.387 L 75.2854,-33.4874 L 75.2766,-33.5887 L 75.262,-33.6907 L 75.2424,-33.7929 L 75.2186,-33.8947
 L 75.1906,-33.9961 L 75.1604,-34.0963 L 75.1301,-34.1947 L 75.0996,-34.2912 L 75.0539,-34.4311 L 75.0117,-34.5633
 L 74.9729,-34.688 L 74.9405,-34.8049 L 74.9175,-34.9138 L 74.9039,-35.0149 L 74.9013,-35.1085 L 74.9112,-35.1947
 L 74.9337,-35.2738 L 74.9717,-35.3454 L 75.0282,-35.4095 L 75.1032,-35.4661 L 75.2463,-35.5301 L 75.3884,-35.5418
 L 75.5294,-35.5013 L 75.6709,-35.4068 L 75.8144,-35.2566 L 75.9599,-35.0508 L 76.0121,-34.9623 L 76.058,-34.8731
 L 76.0978,-34.7831 L 76.1296,-34.6934 L 76.1516,-34.6051 L 76.1638,-34.5183 L 76.1656,-34.4332 L 76.1564,-34.35
 L 76.1362,-34.2688 L 76.1031,-34.1907 L 76.0554,-34.1168 L 75.9931,-34.047 L 76.3423,-33.6177 L 76.5352,-33.8478
 L 76.6484,-34.0969 L 76.6821,-34.3651 L 76.6413,-34.6536 L 76.5308,-34.9639 L 76.3506,-35.2958 L 76.1026,-35.6363
 L 75.8438,-35.8842 L 75.5741,-36.0395 L 75.2976,-36.1007 L 75.0184,-36.0663 L 74.7363,-35.9364 L 74.6036,-35.8389
 L 74.5002,-35.7314 L 74.4262,-35.6139 L 74.3762,-35.4885 L 74.3445,-35.3572 L 74.331,-35.22 L 74.3336,-35.0787
 L 74.3499,-34.9348 L 74.3797,-34.7883 L 74.4178,-34.641 L 74.4589,-34.4946 L 74.5029,-34.3493 L 74.5494,-34.1967
 L 74.5935,-34.053 L 74.6353,-33.918 L 74.6706,-33.7918 L 74.6954,-33.6746 L 74.7097,-33.5664 L 74.7117,-33.4664
 L 74.6999,-33.3735 L 74.6741,-33.288 L 74.6312,-33.21 L 74.5679,-33.1396 L 74.4843,-33.077 L 74.3934,-33.0286
 L 74.3046,-32.999 L 74.2179,-32.988 L 74.1333,-32.9938 L 74.0508,-33.0148 L 73.9704,-33.0509 L 73.892,-33.1011
 L 73.8155,-33.1645 L 73.741,-33.2412 L 73.6681,-33.3291 L 73.5965,-33.4263 L 73.5262,-33.5327 L 73.3966,-33.7681
 L 73.3153,-33.9839 L 73.2822,-34.1802 L 73.298,-34.3604 L 73.3631,-34.5279 L 73.4774,-34.6827 L 73.1019,-35.0836
 L 72.9896,-34.956 L 72.9005,-34.8248 L 72.8346,-34.6898 L 72.7905,-34.5513 L 72.7669,-34.4091 L 72.7639,-34.2633
 L 72.7803,-34.1133 L 72.8153,-33.9585 L 72.869,-33.7989 L 72.9402,-33.6339 L 73.0281,-33.4629 L 73.1326,-33.2859
 L 73.2609,-33.0966 L 73.3934,-32.931 L 73.5303,-32.7889 L 73.6703,-32.6706 L 73.8122,-32.5762 L 73.9561,-32.5056
 L 74.1017,-32.4593 L 74.2487,-32.4374 z
M 0.0999908,-33.75 L 0.0999908,-35 L 0,-35.1 L -0.0999908,-35 L -0.0999908,-33.75 L 0,-33.65
 z
M 76.382,-29.208 L 75.7642,-30.1933 L 79.3722,-32.4557 L 79.0732,-32.9326 L 77.8155,-33.4767 L 77.3272,-33.1704
 L 78.552,-32.6659 L 75.4381,-30.7133 L 74.7915,-31.7445 L 74.352,-31.4689 L 75.9425,-28.9324 z
M 0.0999908,-31.25 L 0.0999908,-32.5 L 0,-32.6 L -0.0999908,-32.5 L -0.0999908,-31.25 L 0,-31.15
 z
M 0.0999908,-28.75 L 0.0999908,-30 L 0,-30.1 L -0.0999908,-30 L -0.0999908,-28.75 L 0,-28.65
 z
M 0.0999908,-26.25 L 0.0999908,-27.5 L 0,-27.6 L -0.0999908,-27.5 L -0.0999908,-26.25 L 0,-26.15
 z
M 0.0999908,-23.75 L 0.0999908,-25 L 0,-25.1 L -0.0999908,-25 L -0.0999908,-23.75 L 0,-23.65
 z
M 0.0999908,-21.25 L 0.0999908,-22.5 L 0,-22.6 L -0.0999908,-22.5 L -0.0999908,-21.25 L 0,-21.15
 z
M 0.0999908,-18.75 L 0.0999908,-20 L 0,-20.1 L -0.0999908,-20 L -0.0999908,-18.75 L 0,-18.65
 z
M 0.0999908,-16.25 L 0.0999908,-17.5 L 0,-17.6 L -0.0999908,-17.5 L -0.0999908,-16.25 L 0,-16.15
 z
M 0.0999908,-13.75 L 0.0999908,-15 L 0,-15.1 L -0.0999908,-15 L -0.0999908,-13.75 L 0,-13.65
 z
M 0.0999908,-11.25 L 0.0999908,-12.5 L 0,-12.6 L -0.0999908,-12.5 L -0.0999908,-11.25 L 0,-11.15
 z
M 0.0999908,-8.75 L 0.0999908,-10 L 0,-10.1 L -0.0999908,-10 L -0.0999908,-8.75 L 0,-8.64999
 z
M 0.0999908,-6.25 L 0.0999908,-7.5 L 0,-7.59999 L -0.0999908,-7.5 L -0.0999908,-6.25 L 0,-6.14999
 z
M 0.0999908,-3.75 L 0.0999908,-5 L 0,-5.09999 L -0.0999908,-5 L -0.0999908,-3.75 L 0,-3.64999
 z
M 0.0999908,-1.25 L 0.0999908,-2.5 L 0,-2.59999 L -0.0999908,-2.5 L -0.0999908,-1.25 L 0,-1.14999
 z
M 125.034,0.286728 L 126.02,1.79218 L 126.702,1.79218 L 125.38,-0.099762 L 126.624,-1.87645 L 125.942,-1.87645
 L 125.034,-0.449005 L 124.118,-1.87645 L 123.444,-1.87645 L 124.688,-0.0930023 L 123.383,1.79218 L 124.04,1.79218
 z
M 95.1,-0 L 95,-0.0999908 L 93.75,-0.0999908 L 93.65,-0 L 93.75,0.0999908 L 95,0.0999908
 z
M 100.1,-0 L 100,-0.0999908 L 98.75,-0.0999908 L 98.65,-0 L 98.75,0.0999908 L 100,0.0999908
 z
M 102.6,-0 L 102.5,-0.0999908 L 101.25,-0.0999908 L 101.15,-0 L 101.25,0.0999908 L 102.5,0.0999908
 z
M 105.1,-0 L 105,-0.0999908 L 103.75,-0.0999908 L 103.65,-0 L 103.75,0.0999908 L 105,0.0999908
 z
M 107.6,-0 L 107.5,-0.0999908 L 106.25,-0.0999908 L 106.15,-0 L 106.25,0.0999908 L 107.5,0.0999908
 z
M 110.1,-0 L 110,-0.0999908 L 108.75,-0.0999908 L 108.65,-0 L 108.75,0.0999908 L 110,0.0999908
 z
M 112.6,-0 L 112.5,-0.0999908 L 111.25,-0.0999908 L 111.15,-0 L 111.25,0.0999908 L 112.5,0.0999908
 z
M 115.1,-0 L 115,-0.0999908 L 113.75,-0.0999908 L 113.65,-0 L 113.75,0.0999908 L 115,0.0999908
 z
M 117.6,-0 L 117.5,-0.0999908 L 116.25,-0.0999908 L 116.15,-0 L 116.25,0.0999908 L 117.5,0.0999908
 z
M 120.1,-0 L 120,-0.0999908 L 118.75,-0.0999908 L 118.65,-0 L 118.75,0.0999908 L 120,0.0999908
 z
M 90.1,-0 L 90,-0.0999908 L 88.75,-0.0999908 L 88.65,-0 L 88.75,0.0999908 L 90,0.0999908
 z
M 85.1,-0 L 85,-0.0999908 L 83.75,-0.0999908 L 83.65,-0 L 83.75,0.0999908 L 85,0.0999908
 z
M 92.6,-0 L 92.5,-0.0999908 L 91.25,-0.0999908 L 91.15,-0 L 91.25,0.0999908 L 92.5,0.0999908
 z
M 97.6,-0 L 97.5,-0.0999908 L 96.25,-0.0999908 L 96.15,-0 L 96.25,0.0999908 L 97.5,0.0999908
 z
M 87.6,-0 L 87.5,-0.0999908 L 86.25,-0.0999908 L 86.15,-0 L 86.25,0.0999908 L 87.5,0.0999908
 z
M 82.6,-0 L 82.5,-0.0999908 L 81.25,-0.0999908 L 81.15,-0 L 81.25,0.0999908 L 82.5,0.0999908
 z
M -2.85652,1.23331 L -4.0181,2.60916 L -4.04738,2.67987 L -4.0181,2.7506 L -3.94739,2.77988 L -3.87668,2.7506
 L -0.667084,0.363419 L -0.637802,0.292709 L -0.667084,0.222 L -0.737793,0.192719 L -4.71097,0.655258 L -4.78168,0.684555
 L -4.81096,0.755264 L -4.78168,0.825974 L -4.71097,0.85527 L -2.92448,1.06027 L -10.033,3.88052 L -10.133,3.98051
 L -10.033,4.08052 z
M -3.84576,0.754547 L -1.45128,0.475784 L -2.53348,0.905136 z
M -2.46434,1.07773 L -1.3813,0.648026 L -3.31711,2.0878 z
M 89.9269,4.46507 L 89.8269,4.36507 L 82.8661,1.20227 L 84.6685,1.08411 L 84.7392,1.05482 L 84.7685,0.984116
 L 84.7392,0.913406 L 84.6685,0.884109 L 80.7226,0.228348 L 80.6519,0.257629 L 80.6227,0.328339 L 80.6519,0.399048
 L 83.7413,2.93991 L 83.812,2.96919 L 83.8827,2.93991 L 83.912,2.8692 L 83.8827,2.79848 L 82.7895,1.36746
 L 89.8269,4.56506 z
M 81.4265,0.545319 L 83.8055,0.940689 L 82.4869,1.02715 z
M 81.3521,0.717209 L 82.4107,1.19821 L 83.2115,2.24649 z
M -13.278,7.243 L -13.3854,4.71037 L -13.3874,4.65381 L -13.3903,4.58987 L -13.394,4.51859 L -13.3986,4.44319
 L -13.4039,4.3669 L -13.41,4.28966 L -13.4292,4.06203 L -13.4353,3.99211 L -13.4409,3.9305 L -13.446,3.87721
 L -13.4136,3.91966 L -13.3764,3.96877 L -13.3347,4.02451 L -13.2897,4.08427 L -13.243,4.14537 L -13.1945,4.20779
 L -13.1457,4.2701 L -13.0979,4.33078 L -13.0511,4.38986 L -13.0071,4.44514 L -12.9675,4.49448 L -12.9322,4.53784
 L -11.3019,6.459 L -10.6968,6.21892 L -13.2883,3.30026 L -13.9596,3.56659 L -13.8799,7.48181 z
M 95.0167,4.80844 L 94.4271,4.54054 L 92.6776,6.37483 L 92.6382,6.4155 L 92.5941,6.46193 L 92.5454,6.51408
 L 92.4943,6.56969 L 92.443,6.62646 L 92.3916,6.68442 L 92.2904,6.79977 L 92.241,6.85614 L 92.1948,6.90904
 L 92.1543,6.95581 L 92.1195,6.99646 L 92.1276,6.94365 L 92.1372,6.88284 L 92.1483,6.81406 L 92.1602,6.7402
 L 92.1718,6.66417 L 92.1831,6.58597 L 92.1941,6.50757 L 92.2047,6.43105 L 92.2148,6.35641 L 92.2241,6.28635
 L 92.2321,6.2236 L 92.2389,6.16812 L 92.4917,3.66112 L 91.899,3.39182 L 91.5945,7.28307 L 92.252,7.58182
 z
M -15.0881,9.15396 L -14.3249,8.01585 L -14.5374,7.48007 L -15.2558,8.59309 L -16.6112,5.17671 L -15.4798,4.72784
 L -15.6711,4.24565 L -18.454,5.34975 L -18.2627,5.83192 L -17.1817,5.40306 L -15.6112,9.36153 z
M 96.2469,9.19113 L 96.4265,9.15276 L 96.5938,9.08868 L 96.7486,8.99948 L 96.8907,8.88513 L 97.0191,8.74605
 L 97.1324,8.58276 L 97.2306,8.39525 L 97.2806,8.26654 L 97.3147,8.13556 L 97.3329,8.00229 L 97.3341,7.86877
 L 97.3176,7.73711 L 97.2833,7.60728 L 97.2302,7.47993 L 97.1576,7.3557 L 97.0653,7.23456 L 96.9525,7.11853
 L 96.8183,7.00972 L 96.6625,6.90813 L 96.6681,6.89578 L 96.8382,6.92714 L 96.9975,6.94121 L 97.1461,6.93796
 L 97.2845,6.91888 L 97.4133,6.88551 L 97.5324,6.83783 L 97.6419,6.77626 L 97.7417,6.70125 L 97.832,6.61278
 L 97.9129,6.51215 L 97.9846,6.40073 L 98.0472,6.27852 L 98.1091,6.11917 L 98.1506,5.95805 L 98.1718,5.79515
 L 98.1704,5.63292 L 98.1441,5.47382 L 98.0926,5.31786 L 98.0148,5.16579 L 97.9092,5.01848 L 97.7758,4.87593
 L 97.6125,4.74069 L 97.4174,4.61543 L 97.1905,4.50011 L 97.0073,4.42618 L 96.8239,4.37079 L 96.6404,4.33395
 L 96.4592,4.317 L 96.2828,4.3213 L 96.1113,4.34682 L 95.9459,4.39435 L 95.7879,4.46471 L 95.6373,4.55788
 L 95.4967,4.67523 L 95.3685,4.81807 L 95.2527,4.9864 L 95.7918,5.28352 L 95.9336,5.09303 L 96.102,4.95602
 L 96.297,4.87248 L 96.5114,4.84367 L 96.738,4.8709 L 96.9768,4.95416 L 97.214,5.08907 L 97.3866,5.24879
 L 97.4945,5.43338 L 97.5399,5.63629 L 97.5249,5.85106 L 97.4494,6.07768 L 97.3751,6.2144 L 97.2887,6.32407
 L 97.19,6.40671 L 97.083,6.46667 L 96.971,6.50826 L 96.854,6.53148 L 96.7341,6.53824 L 96.6129,6.53035
 L 96.4905,6.50783 L 96.3705,6.47505 L 96.2566,6.43629 L 96.1486,6.3916 L 95.8461,6.25414 L 95.6273,6.73569
 L 95.9422,6.87875 L 96.049,6.931 L 96.1595,6.99239 L 96.2737,7.06291 L 96.384,7.14259 L 96.4827,7.23148
 L 96.5697,7.32957 L 96.6418,7.43681 L 96.6956,7.55318 L 96.7313,7.67865 L 96.7413,7.81374 L 96.7181,7.95901
 L 96.6618,8.11444 L 96.5219,8.3517 L 96.3491,8.52023 L 96.1434,8.62003 L 95.9117,8.65334 L 95.6607,8.62247
 L 95.3904,8.5274 L 95.2478,8.45514 L 95.1245,8.3768 L 95.0206,8.29233 L 94.9344,8.20227 L 94.8646,8.10725
 L 94.8112,8.00723 L 94.7732,7.90268 L 94.75,7.79404 L 94.7414,7.68132 L 94.7464,7.56523 L 94.7637,7.44649
 L 94.7934,7.32507 L 94.1954,7.11667 L 94.1532,7.27689 L 94.1262,7.44025 L 94.1142,7.60674 L 94.1221,7.7742
 L 94.1546,7.94041 L 94.2117,8.10538 L 94.2951,8.26741 L 94.4066,8.42487 L 94.5464,8.57773 L 94.7195,8.72365
 L 94.9312,8.86017 L 95.1815,8.98734 L 95.4136,9.08147 L 95.6369,9.1488 L 95.8513,9.1893 L 96.0551,9.20332
 z
" stroke="black" fill="lightgray" stroke-width="0.5"/>
</svg>
