<?xml version="1.0" standalone="no"?>
<!DOCTYPE svg PUBLIC "-//W3C//DTD SVG 1.1//EN" "http://www.w3.org/Graphics/SVG/1.1/DTD/svg11.dtd">
<svg width="102mm" height="24mm" viewBox="-1 -28 102 24" xmlns="http://www.w3.org/2000/svg" version="1.1">
<title>OpenSCAD Model</title>
<path d="
M 52.5,-24.9 L 100,-24.9 L 100.1,-25 L 100,-25.1 L 52.5,-25.1 L 49.2388,-22.921
 L 51.0567,-27.3097 L 50.9567,-27.4097 L 47.5,-25.1 L 0,-25.1 L -0.0999908,-25 L 0,-24.9
 L 47.5,-24.9 L 50.7612,-27.079 L 48.9433,-22.6903 L 49.0433,-22.5903 z
M 50.725,-20 L 50.625,-20.1 L 49.375,-20.1 L 49.275,-20 L 49.375,-19.9 L 50.625,-19.9
 z
M 100.1,-20 L 100,-20.1 L 98.75,-20.1 L 98.65,-20 L 98.75,-19.9 L 100,-19.9
 z
M 1.34999,-20 L 1.25,-20.1 L 0,-20.1 L -0.0999908,-20 L 0,-19.9 L 1.25,-19.9
 z
M 63.85,-15 L 63.75,-15.1 L 60,-15.1 L 59.9,-15 L 60,-14.9 L 63.75,-14.9
 z
M 78.85,-15 L 78.75,-15.1 L 75,-15.1 L 74.9,-15 L 75,-14.9 L 78.75,-14.9
 z
M 56.35,-15 L 56.25,-15.1 L 52.5,-15.1 L 52.4,-15 L 52.5,-14.9 L 56.25,-14.9
 z
M 18.85,-15 L 18.75,-15.1 L 15,-15.1 L 14.9,-15 L 15,-14.9 L 18.75,-14.9
 z
M 48.85,-15 L 48.75,-15.1 L 45,-15.1 L 44.9,-15 L 45,-14.9 L 48.75,-14.9
 z
M 43.85,-15 L 43.75,-15.1 L 42.5,-15.1 L 42.4,-15 L 42.5,-14.9 L 43.75,-14.9
 z
M 41.35,-15 L 41.25,-15.1 L 37.5,-15.1 L 37.4,-15 L 37.5,-14.9 L 41.25,-14.9
 z
M 36.35,-15 L 36.25,-15.1 L 35,-15.1 L 34.9,-15 L 35,-14.9 L 36.25,-14.9
 z
M 33.85,-15 L 33.75,-15.1 L 30,-15.1 L 29.9,-15 L 30,-14.9 L 33.75,-14.9
 z
M 28.85,-15 L 28.75,-15.1 L 27.5,-15.1 L 27.4,-15 L 27.5,-14.9 L 28.75,-14.9
 z
M 3.84999,-15 L 3.75,-15.1 L 0,-15.1 L -0.0999908,-15 L 0,-14.9 L 3.75,-14.9
 z
M 26.35,-15 L 26.25,-15.1 L 22.5,-15.1 L 22.4,-15 L 22.5,-14.9 L 26.25,-14.9
 z
M 21.35,-15 L 21.25,-15.1 L 20,-15.1 L 19.9,-15 L 20,-14.9 L 21.25,-14.9
 z
M 11.35,-15 L 11.25,-15.1 L 7.5,-15.1 L 7.39999,-15 L 7.5,-14.9 L 11.25,-14.9
 z
M 71.35,-15 L 71.25,-15.1 L 67.5,-15.1 L 67.4,-15 L 67.5,-14.9 L 71.25,-14.9
 z
M 86.35,-15 L 86.25,-15.1 L 82.5,-15.1 L 82.4,-15 L 82.5,-14.9 L 86.25,-14.9
 z
M 93.85,-15 L 93.75,-15.1 L 90,-15.1 L 89.9,-15 L 90,-14.9 L 93.75,-14.9
 z
M 100.1,-15 L 100,-15.1 L 97.5,-15.1 L 97.4,-15 L 97.5,-14.9 L 100,-14.9
 z
M 58.85,-15 L 58.75,-15.1 L 57.5,-15.1 L 57.4,-15 L 57.5,-14.9 L 58.75,-14.9
 z
M 66.35,-15 L 66.25,-15.1 L 65,-15.1 L 64.9,-15 L 65,-14.9 L 66.25,-14.9
 z
M 73.85,-15 L 73.75,-15.1 L 72.5,-15.1 L 72.4,-15 L 72.5,-14.9 L 73.75,-14.9
 z
M 51.35,-15 L 51.25,-15.1 L 50,-15.1 L 49.9,-15 L 50,-14.9 L 51.25,-14.9
 z
M 81.35,-15 L 81.25,-15.1 L 80,-15.1 L 79.9,-15 L 80,-14.9 L 81.25,-14.9
 z
M 88.85,-15 L 88.75,-15.1 L 87.5,-15.1 L 87.4,-15 L 87.5,-14.9 L 88.75,-14.9
 z
M 96.35,-15 L 96.25,-15.1 L 95,-15.1 L 94.9,-15 L 95,-14.9 L 96.25,-14.9
 z
M 6.34999,-15 L 6.25,-15.1 L 5,-15.1 L 4.89999,-15 L 5,-14.9 L 6.25,-14.9
 z
M 13.85,-15 L 13.75,-15.1 L 12.5,-15.1 L 12.4,-15 L 12.5,-14.9 L 13.75,-14.9
 z
M 40.1,-10 L 40,-10.1 L 38.75,-10.1 L 38.65,-10 L 38.75,-9.90001 L 40,-9.90001
 z
M 42.6,-10 L 42.5,-10.1 L 41.25,-10.1 L 41.15,-10 L 41.25,-9.90001 L 42.5,-9.90001
 z
M 45.1,-10 L 45,-10.1 L 43.75,-10.1 L 43.65,-10 L 43.75,-9.90001 L 45,-9.90001
 z
M 47.6,-10 L 47.5,-10.1 L 46.25,-10.1 L 46.15,-10 L 46.25,-9.90001 L 47.5,-9.90001
 z
M 37.6,-10 L 37.5,-10.1 L 36.25,-10.1 L 36.15,-10 L 36.25,-9.90001 L 37.5,-9.90001
 z
M 70.1,-10 L 70,-10.1 L 68.75,-10.1 L 68.65,-10 L 68.75,-9.90001 L 70,-9.90001
 z
M 92.6,-10 L 92.5,-10.1 L 91.25,-10.1 L 91.15,-10 L 91.25,-9.90001 L 92.5,-9.90001
 z
M 90.1,-10 L 90,-10.1 L 88.75,-10.1 L 88.65,-10 L 88.75,-9.90001 L 90,-9.90001
 z
M 87.6,-10 L 87.5,-10.1 L 86.25,-10.1 L 86.15,-10 L 86.25,-9.90001 L 87.5,-9.90001
 z
M 85.1,-10 L 85,-10.1 L 83.75,-10.1 L 83.65,-10 L 83.75,-9.90001 L 85,-9.90001
 z
M 82.6,-10 L 82.5,-10.1 L 81.25,-10.1 L 81.15,-10 L 81.25,-9.90001 L 82.5,-9.90001
 z
M 80.1,-10 L 80,-10.1 L 78.75,-10.1 L 78.65,-10 L 78.75,-9.90001 L 80,-9.90001
 z
M 50.1,-10 L 50,-10.1 L 48.75,-10.1 L 48.65,-10 L 48.75,-9.90001 L 50,-9.90001
 z
M 75.1,-10 L 75,-10.1 L 73.75,-10.1 L 73.65,-10 L 73.75,-9.90001 L 75,-9.90001
 z
M 72.6,-10 L 72.5,-10.1 L 71.25,-10.1 L 71.15,-10 L 71.25,-9.90001 L 72.5,-9.90001
 z
M 95.1,-10 L 95,-10.1 L 93.75,-10.1 L 93.65,-10 L 93.75,-9.90001 L 95,-9.90001
 z
M 67.6,-10 L 67.5,-10.1 L 66.25,-10.1 L 66.15,-10 L 66.25,-9.90001 L 67.5,-9.90001
 z
M 65.1,-10 L 65,-10.1 L 63.75,-10.1 L 63.65,-10 L 63.75,-9.90001 L 65,-9.90001
 z
M 62.6,-10 L 62.5,-10.1 L 61.25,-10.1 L 61.15,-10 L 61.25,-9.90001 L 62.5,-9.90001
 z
M 60.1,-10 L 60,-10.1 L 58.75,-10.1 L 58.65,-10 L 58.75,-9.90001 L 60,-9.90001
 z
M 57.6,-10 L 57.5,-10.1 L 56.25,-10.1 L 56.15,-10 L 56.25,-9.90001 L 57.5,-9.90001
 z
M 55.1,-10 L 55,-10.1 L 53.75,-10.1 L 53.65,-10 L 53.75,-9.90001 L 55,-9.90001
 z
M 52.6,-10 L 52.5,-10.1 L 51.25,-10.1 L 51.15,-10 L 51.25,-9.90001 L 52.5,-9.90001
 z
M 77.6,-10 L 77.5,-10.1 L 76.25,-10.1 L 76.15,-10 L 76.25,-9.90001 L 77.5,-9.90001
 z
M 15.1,-10 L 15,-10.1 L 13.75,-10.1 L 13.65,-10 L 13.75,-9.90001 L 15,-9.90001
 z
M 35.1,-10 L 35,-10.1 L 33.75,-10.1 L 33.65,-10 L 33.75,-9.90001 L 35,-9.90001
 z
M 32.6,-10 L 32.5,-10.1 L 31.25,-10.1 L 31.15,-10 L 31.25,-9.90001 L 32.5,-9.90001
 z
M 30.1,-10 L 30,-10.1 L 28.75,-10.1 L 28.65,-10 L 28.75,-9.90001 L 30,-9.90001
 z
M 27.6,-10 L 27.5,-10.1 L 26.25,-10.1 L 26.15,-10 L 26.25,-9.90001 L 27.5,-9.90001
 z
M 0.0999908,-10 L 0,-10.1 L -0.0999908,-10 L 0,-9.90001 z
M 22.6,-10 L 22.5,-10.1 L 21.25,-10.1 L 21.15,-10 L 21.25,-9.90001 L 22.5,-9.90001
 z
M 20.1,-10 L 20,-10.1 L 18.75,-10.1 L 18.65,-10 L 18.75,-9.90001 L 20,-9.90001
 z
M 17.6,-10 L 17.5,-10.1 L 16.25,-10.1 L 16.15,-10 L 16.25,-9.90001 L 17.5,-9.90001
 z
M 12.6,-10 L 12.5,-10.1 L 11.25,-10.1 L 11.15,-10 L 11.25,-9.90001 L 12.5,-9.90001
 z
M 10.1,-10 L 10,-10.1 L 8.75,-10.1 L 8.64999,-10 L 8.75,-9.90001 L 10,-9.90001
 z
M 7.59999,-10 L 7.5,-10.1 L 6.25,-10.1 L 6.14999,-10 L 6.25,-9.90001 L 7.5,-9.90001
 z
M 5.09999,-10 L 5,-10.1 L 3.75,-10.1 L 3.64999,-10 L 3.75,-9.90001 L 5,-9.90001
 z
M 2.59999,-10 L 2.5,-10.1 L 1.25,-10.1 L 1.14999,-10 L 1.25,-9.90001 L 2.5,-9.90001
 z
M 25.1,-10 L 25,-10.1 L 23.75,-10.1 L 23.65,-10 L 23.75,-9.90001 L 25,-9.90001
 z
M 100.1,-10 L 100,-10.1 L 98.75,-10.1 L 98.65,-10 L 98.75,-9.90001 L 100,-9.90001
 z
M 97.6,-10 L 97.5,-10.1 L 96.25,-10.1 L 96.15,-10 L 96.25,-9.90001 L 97.5,-9.90001
 z
M 100.1,-5 L 100,-5.09999 L 0,-5.09999 L -0.0999908,-5 L 0,-4.89999 L 100,-4.89999
 z
" stroke="black" fill="lightgray" stroke-width="0.5"/>
</svg>
