<?xml version="1.0" standalone="no"?>
<!DOCTYPE svg PUBLIC "-//W3C//DTD SVG 1.1//EN" "http://www.w3.org/Graphics/SVG/1.1/DTD/svg11.dtd">
<svg width="107mm" height="44mm" viewBox="17 -52 107 44" xmlns="http://www.w3.org/2000/svg" version="1.1">
<title>OpenSCAD Model</title>
<path d="
M 122.014,-48.9865 L 122.433,-50 L 122.014,-51.0135 L 121,-51.4333 L 119.986,-51.0135 L 119.567,-50
 L 119.986,-48.9865 L 121,-48.5667 z
M 120.128,-49.1279 L 119.767,-50 L 120.128,-50.8721 L 121,-51.2333 L 121.872,-50.8721 L 122.233,-50
 L 121.872,-49.1279 L 121,-48.7667 z
M 102.014,-48.9865 L 102.433,-50 L 102.014,-51.0135 L 101,-51.4333 L 99.9865,-51.0135 L 99.5667,-50
 L 99.9865,-48.9865 L 101,-48.5667 z
M 100.128,-49.1279 L 99.7667,-50 L 100.128,-50.8721 L 101,-51.2333 L 101.872,-50.8721 L 102.233,-50
 L 101.872,-49.1279 L 101,-48.7667 z
M 82.0135,-48.9865 L 82.4333,-50 L 82.0135,-51.0135 L 81,-51.4333 L 79.9865,-51.0135 L 79.5667,-50
 L 79.9865,-48.9865 L 81,-48.5667 z
M 80.1279,-49.1279 L 79.7667,-50 L 80.1279,-50.8721 L 81,-51.2333 L 81.8721,-50.8721 L 82.2333,-50
 L 81.8721,-49.1279 L 81,-48.7667 z
M 62.0135,-48.9865 L 62.4333,-50 L 62.0135,-51.0135 L 61,-51.4333 L 59.9865,-51.0135 L 59.5667,-50
 L 59.9865,-48.9865 L 61,-48.5667 z
M 42.0135,-48.9865 L 42.4333,-50 L 42.0135,-51.0135 L 41,-51.4333 L 39.9865,-51.0135 L 39.5667,-50
 L 39.9865,-48.9865 L 41,-48.5667 z
M 22.0135,-48.9865 L 22.4333,-50 L 22.0135,-51.0135 L 21,-51.4333 L 19.9865,-51.0135 L 19.5667,-50
 L 19.9865,-48.9865 L 21,-48.5667 z
M 123.38,-38.596 L 123.409,-38.6667 L 123.38,-38.7374 L 121.193,-40 L 123.38,-41.2626 L 123.409,-41.3333
 L 123.38,-41.404 L 123.309,-41.4333 L 123.239,-41.404 L 121,-40.1115 L 118.761,-41.404 L 118.691,-41.4333
 L 118.62,-41.404 L 118.591,-41.3333 L 118.62,-41.2626 L 120.807,-40 L 118.62,-38.7374 L 118.591,-38.6667
 L 118.62,-38.596 L 118.691,-38.5667 L 118.761,-38.596 L 121,-39.8885 L 123.239,-38.596 L 123.309,-38.5667
 z
M 23.3801,-38.596 L 23.4094,-38.6667 L 23.3801,-38.7374 L 18.7613,-41.404 L 18.6906,-41.4333 L 18.6199,-41.404
 L 18.5906,-41.3333 L 18.6199,-41.2626 L 23.2387,-38.596 L 23.3094,-38.5667 z
M 38.7613,-38.596 L 43.3801,-41.2626 L 43.4094,-41.3333 L 43.3801,-41.404 L 43.3094,-41.4333 L 43.2387,-41.404
 L 38.6199,-38.7374 L 38.5906,-38.6667 L 38.6199,-38.596 L 38.6906,-38.5667 z
M 63.3801,-38.596 L 63.4094,-38.6667 L 63.3801,-38.7374 L 61.1932,-40 L 63.3801,-41.2626 L 63.4094,-41.3333
 L 63.3801,-41.404 L 63.3094,-41.4333 L 63.2387,-41.404 L 61,-40.1115 L 58.7613,-41.404 L 58.6906,-41.4333
 L 58.6199,-41.404 L 58.5906,-41.3333 L 58.6199,-41.2626 L 60.8068,-40 L 58.6199,-38.7374 L 58.5906,-38.6667
 L 58.6199,-38.596 L 58.6906,-38.5667 L 58.7613,-38.596 L 61,-39.8885 L 63.2387,-38.596 L 63.3094,-38.5667
 z
M 83.3801,-38.596 L 83.4094,-38.6667 L 83.3801,-38.7374 L 78.7613,-41.404 L 78.6906,-41.4333 L 78.6199,-41.404
 L 78.5906,-41.3333 L 78.6199,-41.2626 L 83.2387,-38.596 L 83.3094,-38.5667 z
M 98.7613,-38.596 L 103.38,-41.2626 L 103.409,-41.3333 L 103.38,-41.404 L 103.309,-41.4333 L 103.239,-41.404
 L 98.6199,-38.7374 L 98.5906,-38.6667 L 98.6199,-38.596 L 98.6906,-38.5667 z
M 61.0707,-29.9293 L 61.1,-30 L 61.0707,-30.0707 L 61,-30.1 L 57.1363,-31.1353 L 57.0656,-31.106
 L 57.0363,-31.0353 L 57.0656,-30.9646 L 57.1363,-30.9353 L 61,-29.9 z
M 121.071,-29.9293 L 121.1,-30 L 121.071,-30.0707 L 121,-30.1 L 117.136,-31.1353 L 117.066,-31.106
 L 117.036,-31.0353 L 117.066,-30.9646 L 117.136,-30.9353 L 121,-29.9 z
M 81,-29.9 L 81.0707,-29.9293 L 81.1,-30 L 81.0707,-30.0707 L 81,-30.1 L 77.1363,-31.1353
 L 77.0656,-31.106 L 77.0363,-31.0353 L 77.0656,-30.9646 L 77.1363,-30.9353 L 80.6268,-30 L 77.1363,-29.0647
 L 77.0656,-29.0354 L 77.0363,-28.9647 L 77.0656,-28.894 L 77.1363,-28.8647 z
M 21,-29.9 L 21.0707,-29.9293 L 21.1,-30 L 21.0707,-30.0707 L 21,-30.1 L 17.1363,-31.1353
 L 17.0656,-31.106 L 17.0363,-31.0353 L 17.0656,-30.9646 L 17.1363,-30.9353 L 20.6268,-30 L 17.1363,-29.0647
 L 17.0656,-29.0354 L 17.0363,-28.9647 L 17.0656,-28.894 L 17.1363,-28.8647 z
M 41,-29.9 L 41.0707,-29.9293 L 41.1,-30 L 41.0707,-30.0707 L 41,-30.1 L 37.1363,-29.0647
 L 37.0656,-29.0354 L 37.0363,-28.9647 L 37.0656,-28.894 L 37.1363,-28.8647 z
M 101,-29.9 L 101.071,-29.9293 L 101.1,-30 L 101.071,-30.0707 L 101,-30.1 L 97.1363,-29.0647
 L 97.0656,-29.0354 L 97.0363,-28.9647 L 97.0656,-28.894 L 97.1363,-28.8647 z
M 61.0707,-19.9293 L 61.1,-20 L 61.0707,-20.0707 L 61,-20.1 L 57.1363,-21.1353 L 57.0656,-21.106
 L 57.0363,-21.0353 L 57.0656,-20.9646 L 58.9975,-19.9293 L 59.0682,-19.9 L 61,-19.9 z
M 21,-19.9 L 21.0707,-19.9293 L 21.1,-20 L 21.0707,-20.0707 L 21,-20.1 L 17.1363,-21.1353
 L 17.0656,-21.106 L 17.0363,-21.0353 L 17.0656,-20.9646 L 18.8655,-20 L 17.0656,-19.0354 L 17.0363,-18.9647
 L 17.0656,-18.894 L 17.1363,-18.8647 z
M 81,-19.9 L 81.0707,-19.9293 L 81.1,-20 L 81.0707,-20.0707 L 81,-20.1 L 77.1363,-21.1353
 L 77.0656,-21.106 L 77.0363,-21.0353 L 77.0656,-20.9646 L 78.8655,-20 L 77.0656,-19.0354 L 77.0363,-18.9647
 L 77.0656,-18.894 L 77.1363,-18.8647 z
M 79.0842,-20.1 L 77.9148,-20.7267 L 80.2537,-20.1 z
M 79.0842,-19.9 L 80.2537,-19.9 L 77.9148,-19.2733 z
M 121.071,-19.9293 L 121.1,-20 L 121.071,-20.0707 L 121,-20.1 L 117.136,-21.1353 L 117.066,-21.106
 L 117.036,-21.0353 L 117.066,-20.9646 L 118.997,-19.9293 L 119.068,-19.9 L 121,-19.9 z
M 119.084,-20.1 L 117.915,-20.7267 L 120.254,-20.1 z
M 101,-19.9 L 101.071,-19.9293 L 101.1,-20 L 101.071,-20.0707 L 101,-20.1 L 99.0682,-20.1
 L 98.9975,-20.0707 L 97.0656,-19.0354 L 97.0363,-18.9647 L 97.0656,-18.894 L 97.1363,-18.8647 z
M 99.0842,-19.9 L 100.254,-19.9 L 97.9148,-19.2733 z
M 41,-19.9 L 41.0707,-19.9293 L 41.1,-20 L 41.0707,-20.0707 L 41,-20.1 L 39.0682,-20.1
 L 38.9975,-20.0707 L 37.0656,-19.0354 L 37.0363,-18.9647 L 37.0656,-18.894 L 37.1363,-18.8647 z
M 21,-9.90001 L 21.0707,-9.92929 L 21.1,-10 L 21.0707,-10.0707 L 21,-10.1 L 17.1363,-11.1353
 L 17.0656,-11.106 L 17.0363,-11.0353 L 17.0363,-8.96474 L 17.0656,-8.89403 L 17.1363,-8.86473 z
M 121.071,-9.92929 L 121.1,-10 L 121.071,-10.0707 L 121,-10.1 L 117.136,-11.1353 L 117.066,-11.106
 L 117.036,-11.0353 L 117.036,-10 L 117.066,-9.92929 L 117.136,-9.90001 L 121,-9.90001 z
M 117.236,-10.1 L 117.236,-10.9085 L 120.254,-10.1 z
M 61.0707,-9.92929 L 61.1,-10 L 61.0707,-10.0707 L 61,-10.1 L 57.1363,-11.1353 L 57.0656,-11.106
 L 57.0363,-11.0353 L 57.0363,-10 L 57.0656,-9.92929 L 57.1363,-9.90001 L 61,-9.90001 z
M 81,-9.90001 L 81.0707,-9.92929 L 81.1,-10 L 81.0707,-10.0707 L 81,-10.1 L 77.1363,-11.1353
 L 77.0656,-11.106 L 77.0363,-11.0353 L 77.0363,-8.96474 L 77.0656,-8.89403 L 77.1363,-8.86473 z
M 77.2363,-10.1 L 77.2363,-10.9085 L 80.2536,-10.1 z
M 77.2363,-9.90001 L 80.2536,-9.90001 L 77.2363,-9.09152 z
M 101,-9.90001 L 101.071,-9.92929 L 101.1,-10 L 101.071,-10.0707 L 101,-10.1 L 97.1363,-10.1
 L 97.0656,-10.0707 L 97.0363,-10 L 97.0363,-8.96474 L 97.0656,-8.89403 L 97.1363,-8.86473 z
M 97.2363,-9.90001 L 100.254,-9.90001 L 97.2363,-9.09152 z
M 41,-9.90001 L 41.0707,-9.92929 L 41.1,-10 L 41.0707,-10.0707 L 41,-10.1 L 37.1363,-10.1
 L 37.0656,-10.0707 L 37.0363,-10 L 37.0363,-8.96474 L 37.0656,-8.89403 L 37.1363,-8.86473 z
" stroke="black" fill="lightgray" stroke-width="0.5"/>
</svg>
