<?xml version="1.0" standalone="no"?>
<!DOCTYPE svg PUBLIC "-//W3C//DTD SVG 1.1//EN" "http://www.w3.org/Graphics/SVG/1.1/DTD/svg11.dtd">
<svg width="146mm" height="88mm" viewBox="-19 -78 146 88" xmlns="http://www.w3.org/2000/svg" version="1.1">
<title>OpenSCAD Model</title>
<path d="
M -0.878281,-72.4826 L -0.722321,-72.516 L -0.579926,-72.5716 L -0.448441,-72.648 L -0.325241,-72.7441 L -0.210327,-72.8598
 L -0.103149,-72.9939 L -0.00312805,-73.1453 L 0.0897064,-73.3141 L 0.178436,-73.4988 L 0.266037,-73.6983 L 0.352509,-73.9125
 L 1.763,-77.5811 L 1.11876,-77.5811 L 0.399963,-75.4857 L 0.375473,-75.4138 L 0.347229,-75.3335 L 0.315201,-75.245
 L 0.281494,-75.1527 L 0.248138,-75.0611 L 0.215164,-74.9704 L 0.183517,-74.8828 L 0.154129,-74.8008 L 0.127014,-74.7246
 L 0.104218,-74.6592 L 0.0878296,-74.61 L 0.0778503,-74.5771 L 0.0695648,-74.6076 L 0.0537262,-74.6585 L 0.030365,-74.7297
 L 0.00193787,-74.8144 L -0.0291138,-74.9059 L -0.0628204,-75.0042 L -0.167984,-75.3094 L -0.200943,-75.4043 L -0.229752,-75.4857
 L -0.254425,-75.5535 L -1.02748,-77.5811 L -1.67848,-77.5811 L -0.223877,-73.9295 L -0.281525,-73.7837 L -0.403229,-73.5184
 L -0.53772,-73.306 L -0.685028,-73.1462 L -0.842865,-73.0351 L -1.009,-72.9684 L -1.18343,-72.9462 L -1.2245,-72.9467
 L -1.27084,-72.9484 L -1.32248,-72.9513 L -1.37483,-72.9552 L -1.42343,-72.9603 L -1.46828,-72.9665 L -1.46828,-72.5088
 L -1.39706,-72.4949 L -1.32812,-72.4847 L -1.26143,-72.4783 L -1.19398,-72.4745 L -1.12279,-72.4723 L -1.04782,-72.4715
 z
M 0.0999908,-68.75 L 0.0999908,-70 L 0,-70.1 L -0.0999908,-70 L -0.0999908,-68.75 L 0,-68.65
 z
M 52.9875,-69.4144 L 52.4752,-69.4963 L 52.0819,-67.0354 L 51.966,-67.1161 L 51.8557,-67.2104 L 51.7511,-67.3183
 L 51.6505,-67.4372 L 51.5524,-67.5645 L 51.4568,-67.7001 L 51.363,-67.8428 L 51.2705,-67.9909 L 51.1793,-68.1445
 L 51.0882,-68.3006 L 50.9963,-68.4561 L 50.9036,-68.6109 L 50.8091,-68.7637 L 50.7123,-68.9131 L 50.613,-69.0591
 L 50.5102,-69.1986 L 50.4027,-69.3285 L 50.2907,-69.4488 L 50.1732,-69.5584 L 50.0491,-69.6561 L 49.9186,-69.7418
 L 49.7807,-69.8125 L 49.6346,-69.865 L 49.4803,-69.8994 L 49.2769,-69.9205 L 49.0862,-69.9166 L 48.9084,-69.8878
 L 48.744,-69.8353 L 48.5935,-69.7604 L 48.457,-69.6629 L 48.3349,-69.5434 L 48.2276,-69.402 L 48.1352,-69.2388
 L 48.058,-69.0547 L 47.9967,-68.8504 L 47.9514,-68.6261 L 47.9255,-68.3951 L 47.9242,-68.1795 L 47.9476,-67.9795
 L 47.9926,-67.7947 L 48.0565,-67.6248 L 48.1391,-67.4699 L 48.2387,-67.3307 L 48.3537,-67.2082 L 48.4838,-67.1023
 L 48.6264,-67.0132 L 48.7785,-66.9408 L 48.9401,-66.8852 L 49.0955,-67.4921 L 48.9727,-67.5341 L 48.8626,-67.5866
 L 48.7653,-67.6496 L 48.6805,-67.7221 L 48.6082,-67.8029 L 48.5482,-67.8921 L 48.5007,-67.9884 L 48.4655,-68.0907
 L 48.4428,-68.1991 L 48.4322,-68.312 L 48.4336,-68.4279 L 48.4469,-68.5469 L 48.4727,-68.6716 L 48.5088,-68.7865
 L 48.5553,-68.8919 L 48.6118,-68.9864 L 48.6782,-69.069 L 48.7545,-69.1398 L 48.8403,-69.1978 L 48.935,-69.2422
 L 49.0385,-69.273 L 49.1508,-69.2894 L 49.2718,-69.2907 L 49.4014,-69.2768 L 49.5843,-69.2325 L 49.7491,-69.161
 L 49.8958,-69.0621 L 50.0298,-68.941 L 50.1565,-68.8022 L 50.2757,-68.646 L 50.3904,-68.4753 L 50.5031,-68.293
 L 50.614,-68.0992 L 50.7279,-67.8985 L 50.8493,-67.6953 L 50.9785,-67.4899 L 51.1182,-67.285 L 51.2714,-67.0837
 L 51.4382,-66.8859 L 51.6233,-66.6966 L 51.8316,-66.5209 L 52.063,-66.3586 L 52.4882,-66.2906 z
M 0.0999908,-66.25 L 0.0999908,-67.5 L 0,-67.6 L -0.0999908,-67.5 L -0.0999908,-66.25 L 0,-66.15
 z
M 52.1119,-63.9366 L 52.2259,-64.6498 L 48.8195,-66.5814 L 48.7172,-65.942 L 50.9493,-64.7405 L 50.999,-64.7133
 L 51.0554,-64.6831 L 51.1186,-64.6499 L 51.1858,-64.6154 L 51.2541,-64.581 L 51.3236,-64.5468 L 51.5291,-64.447
 L 51.5923,-64.4165 L 51.6481,-64.3898 L 51.6965,-64.367 L 51.6435,-64.3608 L 51.5823,-64.3539 L 51.513,-64.3465
 L 51.4386,-64.3384 L 51.3623,-64.3294 L 51.2838,-64.3196 L 51.2053,-64.3095 L 51.1288,-64.2994 L 51.0541,-64.2894
 L 50.9841,-64.2798 L 50.9214,-64.271 L 50.8661,-64.2628 L 48.3817,-63.8427 L 48.2789,-63.1999 z
M 0.0999908,-63.75 L 0.0999908,-65 L 0,-65.1 L -0.0999908,-65 L -0.0999908,-63.75 L 0,-63.65
 z
M 0.0999908,-61.25 L 0.0999908,-62.5 L 0,-62.6 L -0.0999908,-62.5 L -0.0999908,-61.25 L 0,-61.15
 z
M 48.321,-51.546 L 49.9531,-55.1979 L 49.9824,-55.2686 L 49.9531,-55.3393 L 49.8824,-55.3686 L 49.8117,-55.3393
 L 48.7149,-53.8979 L 49.9286,-61.4914 L 49.8286,-61.5914 L 49.7286,-61.4914 L 48.5183,-53.9194 L 47.9378,-55.5954
 L 47.9085,-55.6661 L 47.8378,-55.6954 L 47.7671,-55.6661 L 47.7378,-55.5954 L 48.1503,-51.6167 L 48.1796,-51.546
 L 48.2503,-51.5167 z
M 48.0232,-54.7714 L 48.4552,-53.5243 L 48.2716,-52.3757 z
M 48.6487,-53.4835 L 49.4572,-54.5462 L 48.4629,-52.3214 z
M 0.0999908,-58.75 L 0.0999908,-60 L 0,-60.1 L -0.0999908,-60 L -0.0999908,-58.75 L 0,-58.65
 z
M 0.0999908,-56.25 L 0.0999908,-57.5 L 0,-57.6 L -0.0999908,-57.5 L -0.0999908,-56.25 L 0,-56.15
 z
M 0.0999908,-53.75 L 0.0999908,-55 L 0,-55.1 L -0.0999908,-55 L -0.0999908,-53.75 L 0,-53.65
 z
M 0.0999908,-51.25 L 0.0999908,-52.5 L 0,-52.6 L -0.0999908,-52.5 L -0.0999908,-51.25 L 0,-51.15
 z
M 80.6667,-0 L 48.7917,-50.8329 L 48.125,-51.4996 L 47.4583,-50.8329 L -0.666656,-0 L 0,0.666656
 L 80,0.666656 z
M 1.29781,-0.666656 L 47.9896,-49.9857 L 78.9153,-0.666656 z
M 0.0999908,-48.75 L 0.0999908,-50 L 0,-50.1 L -0.0999908,-50 L -0.0999908,-48.75 L 0,-48.65
 z
M 0.0999908,-46.25 L 0.0999908,-47.5 L 0,-47.6 L -0.0999908,-47.5 L -0.0999908,-46.25 L 0,-46.15
 z
M 0.0999908,-43.75 L 0.0999908,-45 L 0,-45.1 L -0.0999908,-45 L -0.0999908,-43.75 L 0,-43.65
 z
M 0.0999908,-41.25 L 0.0999908,-42.5 L 0,-42.6 L -0.0999908,-42.5 L -0.0999908,-41.25 L 0,-41.15
 z
M 0.0999908,-38.75 L 0.0999908,-40 L 0,-40.1 L -0.0999908,-40 L -0.0999908,-38.75 L 0,-38.65
 z
M 0.0999908,-36.25 L 0.0999908,-37.5 L 0,-37.6 L -0.0999908,-37.5 L -0.0999908,-36.25 L 0,-36.15
 z
M 0.0999908,-33.75 L 0.0999908,-35 L 0,-35.1 L -0.0999908,-35 L -0.0999908,-33.75 L 0,-33.65
 z
M 0.0999908,-31.25 L 0.0999908,-32.5 L 0,-32.6 L -0.0999908,-32.5 L -0.0999908,-31.25 L 0,-31.15
 z
M 0.0999908,-28.75 L 0.0999908,-30 L 0,-30.1 L -0.0999908,-30 L -0.0999908,-28.75 L 0,-28.65
 z
M 0.0999908,-26.25 L 0.0999908,-27.5 L 0,-27.6 L -0.0999908,-27.5 L -0.0999908,-26.25 L 0,-26.15
 z
M 0.0999908,-23.75 L 0.0999908,-25 L 0,-25.1 L -0.0999908,-25 L -0.0999908,-23.75 L 0,-23.65
 z
M 0.0999908,-21.25 L 0.0999908,-22.5 L 0,-22.6 L -0.0999908,-22.5 L -0.0999908,-21.25 L 0,-21.15
 z
M 0.0999908,-18.75 L 0.0999908,-20 L 0,-20.1 L -0.0999908,-20 L -0.0999908,-18.75 L 0,-18.65
 z
M 0.0999908,-16.25 L 0.0999908,-17.5 L 0,-17.6 L -0.0999908,-17.5 L -0.0999908,-16.25 L 0,-16.15
 z
M 0.0999908,-13.75 L 0.0999908,-15 L 0,-15.1 L -0.0999908,-15 L -0.0999908,-13.75 L 0,-13.65
 z
M 0.0999908,-11.25 L 0.0999908,-12.5 L 0,-12.6 L -0.0999908,-12.5 L -0.0999908,-11.25 L 0,-11.15
 z
M 0.0999908,-8.75 L 0.0999908,-10 L 0,-10.1 L -0.0999908,-10 L -0.0999908,-8.75 L 0,-8.64999
 z
M 0.0999908,-6.25 L 0.0999908,-7.5 L 0,-7.59999 L -0.0999908,-7.5 L -0.0999908,-6.25 L 0,-6.14999
 z
M 0.0999908,-3.75 L 0.0999908,-5 L 0,-5.09999 L -0.0999908,-5 L -0.0999908,-3.75 L 0,-3.64999
 z
M 0.0999908,-1.25 L 0.0999908,-2.5 L 0,-2.59999 L -0.0999908,-2.5 L -0.0999908,-1.25 L 0,-1.14999
 z
M 125.034,0.286728 L 126.02,1.79218 L 126.702,1.79218 L 125.38,-0.099762 L 126.624,-1.87645 L 125.942,-1.87645
 L 125.034,-0.449005 L 124.118,-1.87645 L 123.444,-1.87645 L 124.688,-0.0930023 L 123.383,1.79218 L 124.04,1.79218
 z
M 97.6,-0 L 97.5,-0.0999908 L 96.25,-0.0999908 L 96.15,-0 L 96.25,0.0999908 L 97.5,0.0999908
 z
M 87.6,-0 L 87.5,-0.0999908 L 86.25,-0.0999908 L 86.15,-0 L 86.25,0.0999908 L 87.5,0.0999908
 z
M 85.1,-0 L 85,-0.0999908 L 83.75,-0.0999908 L 83.65,-0 L 83.75,0.0999908 L 85,0.0999908
 z
M 82.6,-0 L 82.5,-0.0999908 L 81.25,-0.0999908 L 81.15,-0 L 81.25,0.0999908 L 82.5,0.0999908
 z
M 90.1,-0 L 90,-0.0999908 L 88.75,-0.0999908 L 88.65,-0 L 88.75,0.0999908 L 90,0.0999908
 z
M 120.1,-0 L 120,-0.0999908 L 118.75,-0.0999908 L 118.65,-0 L 118.75,0.0999908 L 120,0.0999908
 z
M 117.6,-0 L 117.5,-0.0999908 L 116.25,-0.0999908 L 116.15,-0 L 116.25,0.0999908 L 117.5,0.0999908
 z
M 115.1,-0 L 115,-0.0999908 L 113.75,-0.0999908 L 113.65,-0 L 113.75,0.0999908 L 115,0.0999908
 z
M 112.6,-0 L 112.5,-0.0999908 L 111.25,-0.0999908 L 111.15,-0 L 111.25,0.0999908 L 112.5,0.0999908
 z
M 110.1,-0 L 110,-0.0999908 L 108.75,-0.0999908 L 108.65,-0 L 108.75,0.0999908 L 110,0.0999908
 z
M 107.6,-0 L 107.5,-0.0999908 L 106.25,-0.0999908 L 106.15,-0 L 106.25,0.0999908 L 107.5,0.0999908
 z
M 105.1,-0 L 105,-0.0999908 L 103.75,-0.0999908 L 103.65,-0 L 103.75,0.0999908 L 105,0.0999908
 z
M 102.6,-0 L 102.5,-0.0999908 L 101.25,-0.0999908 L 101.15,-0 L 101.25,0.0999908 L 102.5,0.0999908
 z
M 100.1,-0 L 100,-0.0999908 L 98.75,-0.0999908 L 98.65,-0 L 98.75,0.0999908 L 100,0.0999908
 z
M 92.6,-0 L 92.5,-0.0999908 L 91.25,-0.0999908 L 91.15,-0 L 91.25,0.0999908 L 92.5,0.0999908
 z
M 95.1,-0 L 95,-0.0999908 L 93.75,-0.0999908 L 93.65,-0 L 93.75,0.0999908 L 95,0.0999908
 z
M -2.85652,1.23331 L -4.0181,2.60916 L -4.04738,2.67987 L -4.0181,2.7506 L -3.94739,2.77988 L -3.87668,2.7506
 L -0.667084,0.363419 L -0.637802,0.292709 L -0.667084,0.222 L -0.737793,0.192719 L -4.71097,0.655258 L -4.78168,0.684555
 L -4.81096,0.755264 L -4.78168,0.825974 L -4.71097,0.85527 L -2.92448,1.06027 L -10.033,3.88052 L -10.133,3.98051
 L -10.033,4.08052 z
M -3.84576,0.754547 L -1.45128,0.475784 L -2.53348,0.905136 z
M -2.46434,1.07773 L -1.3813,0.648026 L -3.31711,2.0878 z
M 89.9269,4.46507 L 89.8269,4.36507 L 82.8661,1.20227 L 84.6685,1.08411 L 84.7392,1.05482 L 84.7685,0.984116
 L 84.7392,0.913406 L 84.6685,0.884109 L 80.7226,0.228348 L 80.6519,0.257629 L 80.6227,0.328339 L 80.6519,0.399048
 L 83.7413,2.93991 L 83.812,2.96919 L 83.8827,2.93991 L 83.912,2.8692 L 83.8827,2.79848 L 82.7895,1.36746
 L 89.8269,4.56506 z
M 81.4265,0.545319 L 83.8055,0.940689 L 82.4869,1.02715 z
M 81.3521,0.717209 L 82.4107,1.19821 L 83.2115,2.24649 z
M -13.278,7.243 L -13.3854,4.71037 L -13.3874,4.65381 L -13.3903,4.58987 L -13.394,4.51859 L -13.3986,4.44319
 L -13.4039,4.3669 L -13.41,4.28966 L -13.4292,4.06203 L -13.4353,3.99211 L -13.4409,3.9305 L -13.446,3.87721
 L -13.4136,3.91966 L -13.3764,3.96877 L -13.3347,4.02451 L -13.2897,4.08427 L -13.243,4.14537 L -13.1945,4.20779
 L -13.1457,4.2701 L -13.0979,4.33078 L -13.0511,4.38986 L -13.0071,4.44514 L -12.9675,4.49448 L -12.9322,4.53784
 L -11.3019,6.459 L -10.6968,6.21892 L -13.2883,3.30026 L -13.9596,3.56659 L -13.8799,7.48181 z
M 95.0167,4.80844 L 94.4271,4.54054 L 92.6776,6.37483 L 92.6382,6.4155 L 92.5941,6.46193 L 92.5454,6.51408
 L 92.4943,6.56969 L 92.443,6.62646 L 92.3916,6.68442 L 92.2904,6.79977 L 92.241,6.85614 L 92.1948,6.90904
 L 92.1543,6.95581 L 92.1195,6.99646 L 92.1276,6.94365 L 92.1372,6.88284 L 92.1483,6.81406 L 92.1602,6.7402
 L 92.1718,6.66417 L 92.1831,6.58597 L 92.1941,6.50757 L 92.2047,6.43105 L 92.2148,6.35641 L 92.2241,6.28635
 L 92.2321,6.2236 L 92.2389,6.16812 L 92.4917,3.66112 L 91.899,3.39182 L 91.5945,7.28307 L 92.252,7.58182
 z
M -15.0881,9.15396 L -14.3249,8.01585 L -14.5374,7.48007 L -15.2558,8.59309 L -16.6112,5.17671 L -15.4798,4.72784
 L -15.6711,4.24565 L -18.454,5.34975 L -18.2627,5.83192 L -17.1817,5.40306 L -15.6112,9.36153 z
M 96.2469,9.19113 L 96.4265,9.15276 L 96.5938,9.08868 L 96.7486,8.99948 L 96.8907,8.88513 L 97.0191,8.74605
 L 97.1324,8.58276 L 97.2306,8.39525 L 97.2806,8.26654 L 97.3147,8.13556 L 97.3329,8.00229 L 97.3341,7.86877
 L 97.3176,7.73711 L 97.2833,7.60728 L 97.2302,7.47993 L 97.1576,7.3557 L 97.0653,7.23456 L 96.9525,7.11853
 L 96.8183,7.00972 L 96.6625,6.90813 L 96.6681,6.89578 L 96.8382,6.92714 L 96.9975,6.94121 L 97.1461,6.93796
 L 97.2845,6.91888 L 97.4133,6.88551 L 97.5324,6.83783 L 97.6419,6.77626 L 97.7417,6.70125 L 97.832,6.61278
 L 97.9129,6.51215 L 97.9846,6.40073 L 98.0472,6.27852 L 98.1091,6.11917 L 98.1506,5.95805 L 98.1718,5.79515
 L 98.1704,5.63292 L 98.1441,5.47382 L 98.0926,5.31786 L 98.0148,5.16579 L 97.9092,5.01848 L 97.7758,4.87593
 L 97.6125,4.74069 L 97.4174,4.61543 L 97.1905,4.50011 L 97.0073,4.42618 L 96.8239,4.37079 L 96.6404,4.33395
 L 96.4592,4.317 L 96.2828,4.3213 L 96.1113,4.34682 L 95.9459,4.39435 L 95.7879,4.46471 L 95.6373,4.55788
 L 95.4967,4.67523 L 95.3685,4.81807 L 95.2527,4.9864 L 95.7918,5.28352 L 95.9336,5.09303 L 96.102,4.95602
 L 96.297,4.87248 L 96.5114,4.84367 L 96.738,4.8709 L 96.9768,4.95416 L 97.214,5.08907 L 97.3866,5.24879
 L 97.4945,5.43338 L 97.5399,5.63629 L 97.5249,5.85106 L 97.4494,6.07768 L 97.3751,6.2144 L 97.2887,6.32407
 L 97.19,6.40671 L 97.083,6.46667 L 96.971,6.50826 L 96.854,6.53148 L 96.7341,6.53824 L 96.6129,6.53035
 L 96.4905,6.50783 L 96.3705,6.47505 L 96.2566,6.43629 L 96.1486,6.3916 L 95.8461,6.25414 L 95.6273,6.73569
 L 95.9422,6.87875 L 96.049,6.931 L 96.1595,6.99239 L 96.2737,7.06291 L 96.384,7.14259 L 96.4827,7.23148
 L 96.5697,7.32957 L 96.6418,7.43681 L 96.6956,7.55318 L 96.7313,7.67865 L 96.7413,7.81374 L 96.7181,7.95901
 L 96.6618,8.11444 L 96.5219,8.3517 L 96.3491,8.52023 L 96.1434,8.62003 L 95.9117,8.65334 L 95.6607,8.62247
 L 95.3904,8.5274 L 95.2478,8.45514 L 95.1245,8.3768 L 95.0206,8.29233 L 94.9344,8.20227 L 94.8646,8.10725
 L 94.8112,8.00723 L 94.7732,7.90268 L 94.75,7.79404 L 94.7414,7.68132 L 94.7464,7.56523 L 94.7637,7.44649
 L 94.7934,7.32507 L 94.1954,7.11667 L 94.1532,7.27689 L 94.1262,7.44025 L 94.1142,7.60674 L 94.1221,7.7742
 L 94.1546,7.94041 L 94.2117,8.10538 L 94.2951,8.26741 L 94.4066,8.42487 L 94.5464,8.57773 L 94.7195,8.72365
 L 94.9312,8.86017 L 95.1815,8.98734 L 95.4136,9.08147 L 95.6369,9.1488 L 95.8513,9.1893 L 96.0551,9.20332
 z
" stroke="black" fill="lightgray" stroke-width="0.5"/>
</svg>
