<?xml version="1.0" encoding="UTF-8" standalone="no"?>
<!DOCTYPE svg PUBLIC "-//W3C//DTD SVG 1.1//EN"
 "http://www.w3.org/Graphics/SVG/1.1/DTD/svg11.dtd">
<!-- Generated by graphviz version 2.43.0 (0)
 -->
<!-- Title: ctable_get Pages: 1 -->
<svg width="180pt" height="66pt"
 viewBox="0.00 0.00 180.00 66.00" xmlns="http://www.w3.org/2000/svg" xmlns:xlink="http://www.w3.org/1999/xlink">
<g id="graph0" class="graph" transform="scale(1 1) rotate(0) translate(4 62)">
<title>ctable_get</title>
<polygon fill="white" stroke="transparent" points="-4,4 -4,-62 176,-62 176,4 -4,4"/>
<!-- Node1 -->
<g id="node1" class="node">
<title>Node1</title>
<g id="a_node1"><a xlink:title="Get a row, a column, or a specific cell value from a table.">
<polygon fill="#bfbfbf" stroke="black" points="104,-19.5 104,-38.5 172,-38.5 172,-19.5 104,-19.5"/>
<text text-anchor="middle" x="138" y="-26.5" font-family="Helvetica,sans-Serif" font-size="10.00">ctable_get</text>
</a>
</g>
</g>
<!-- Node2 -->
<g id="node2" class="node">
<title>Node2</title>
<g id="a_node2"><a xlink:href="group__models__3d__bearing__lmxuu.html#gaf396e2f094a50d28a1a3fcc294a1149a" target="_top" xlink:title="Linear motion bearing model.">
<polygon fill="white" stroke="black" points="10.5,-38.5 10.5,-57.5 57.5,-57.5 57.5,-38.5 10.5,-38.5"/>
<text text-anchor="middle" x="34" y="-45.5" font-family="Helvetica,sans-Serif" font-size="10.00">lmxuu</text>
</a>
</g>
</g>
<!-- Node1&#45;&gt;Node2 -->
<g id="edge1" class="edge">
<title>Node1&#45;&gt;Node2</title>
<path fill="none" stroke="midnightblue" d="M94.05,-37C81.54,-39.33 68.37,-41.78 57.64,-43.78"/>
<polygon fill="midnightblue" stroke="midnightblue" points="94.69,-40.44 103.88,-35.17 93.41,-33.56 94.69,-40.44"/>
</g>
<!-- Node3 -->
<g id="node3" class="node">
<title>Node3</title>
<g id="a_node3"><a xlink:href="group__models__3d__bearing__radial__ball.html#ga5493ed8f39baf9941e12118edf0bb7a8" target="_top" xlink:title="Radial ball bearing model.">
<polygon fill="white" stroke="black" points="0,-0.5 0,-19.5 68,-19.5 68,-0.5 0,-0.5"/>
<text text-anchor="middle" x="34" y="-7.5" font-family="Helvetica,sans-Serif" font-size="10.00">radial_ball</text>
</a>
</g>
</g>
<!-- Node1&#45;&gt;Node3 -->
<g id="edge2" class="edge">
<title>Node1&#45;&gt;Node3</title>
<path fill="none" stroke="midnightblue" d="M94,-20.99C85.41,-19.39 76.5,-17.73 68.3,-16.2"/>
<polygon fill="midnightblue" stroke="midnightblue" points="93.41,-24.44 103.88,-22.83 94.69,-17.56 93.41,-24.44"/>
</g>
</g>
</svg>
