<?xml version="1.0" encoding="UTF-8" standalone="no"?>
<!DOCTYPE svg PUBLIC "-//W3C//DTD SVG 1.1//EN"
 "http://www.w3.org/Graphics/SVG/1.1/DTD/svg11.dtd">
<!-- Generated by graphviz version 2.43.0 (0)
 -->
<!-- Title: project_box_rectangle Pages: 1 -->
<svg width="641pt" height="864pt"
 viewBox="0.00 0.00 641.00 864.00" xmlns="http://www.w3.org/2000/svg" xmlns:xlink="http://www.w3.org/1999/xlink">
<g id="graph0" class="graph" transform="scale(1 1) rotate(0) translate(4 860)">
<title>project_box_rectangle</title>
<polygon fill="white" stroke="transparent" points="-4,4 -4,-860 637,-860 637,4 -4,4"/>
<!-- Node1 -->
<g id="node1" class="node">
<title>Node1</title>
<g id="a_node1"><a xlink:title="A rectangular box maker for project boxes, enclosures and housings.">
<polygon fill="#bfbfbf" stroke="black" points="0,-399.5 0,-418.5 125,-418.5 125,-399.5 0,-399.5"/>
<text text-anchor="middle" x="62.5" y="-406.5" font-family="Helvetica,sans-Serif" font-size="10.00">project_box_rectangle</text>
</a>
</g>
</g>
<!-- Node2 -->
<g id="node2" class="node">
<title>Node2</title>
<g id="a_node2"><a xlink:href="group__datatypes__binary.html#ga7ce4ed94d9b389ff817ea219918b8732" target="_top" xlink:title="Test if a binary bit position of an integer value equals a test bit.">
<polygon fill="white" stroke="black" points="196,-836.5 196,-855.5 275,-855.5 275,-836.5 196,-836.5"/>
<text text-anchor="middle" x="235.5" y="-843.5" font-family="Helvetica,sans-Serif" font-size="10.00">binary_bit_is</text>
</a>
</g>
</g>
<!-- Node1&#45;&gt;Node2 -->
<g id="edge1" class="edge">
<title>Node1&#45;&gt;Node2</title>
<path fill="none" stroke="midnightblue" d="M64.42,-418.79C70,-475.88 101,-765.55 161,-827 167.77,-833.93 176.7,-838.45 186.01,-841.36"/>
<polygon fill="midnightblue" stroke="midnightblue" points="185.2,-844.77 195.76,-843.86 186.94,-837.99 185.2,-844.77"/>
</g>
<!-- Node3 -->
<g id="node3" class="node">
<title>Node3</title>
<g id="a_node3"><a xlink:href="group__datatypes__binary.html#ga0a002009bcaa8d53f301c6966bdf1134" target="_top" xlink:title="Decode the binary bits of a bit window to an integer value.">
<polygon fill="white" stroke="black" points="199,-798.5 199,-817.5 272,-817.5 272,-798.5 199,-798.5"/>
<text text-anchor="middle" x="235.5" y="-805.5" font-family="Helvetica,sans-Serif" font-size="10.00">binary_iw2i</text>
</a>
</g>
</g>
<!-- Node1&#45;&gt;Node3 -->
<g id="edge2" class="edge">
<title>Node1&#45;&gt;Node3</title>
<path fill="none" stroke="midnightblue" d="M64.76,-418.76C71.85,-472.1 108.23,-727.89 161,-784 168.46,-791.93 178.56,-797.24 188.89,-800.8"/>
<polygon fill="midnightblue" stroke="midnightblue" points="188.21,-804.25 198.79,-803.71 190.18,-797.53 188.21,-804.25"/>
</g>
<!-- Node4 -->
<g id="node4" class="node">
<title>Node4</title>
<g id="a_node4"><a xlink:href="group__datatypes__iterable__operate.html#ga3d37c2b0067d1661724bd89955c8f6ce" target="_top" xlink:title="Return an element of an iterable when it exists or a default value otherwise.">
<polygon fill="white" stroke="black" points="523.5,-646.5 523.5,-665.5 602.5,-665.5 602.5,-646.5 523.5,-646.5"/>
<text text-anchor="middle" x="563" y="-653.5" font-family="Helvetica,sans-Serif" font-size="10.00">defined_e_or</text>
</a>
</g>
</g>
<!-- Node1&#45;&gt;Node4 -->
<g id="edge3" class="edge">
<title>Node1&#45;&gt;Node4</title>
<path fill="none" stroke="midnightblue" d="M63.66,-418.67C64.89,-457.76 75.27,-604.97 161,-667 267.62,-744.14 325.92,-686.76 457,-675 475.51,-673.34 495.63,-670.06 513.27,-666.69"/>
<polygon fill="midnightblue" stroke="midnightblue" points="514.2,-670.08 523.33,-664.71 512.84,-663.21 514.2,-670.08"/>
</g>
<!-- Node5 -->
<g id="node5" class="node">
<title>Node5</title>
<g id="a_node5"><a xlink:href="group__datatypes__scalar__operate.html#gac119300e8c83de0037f2d0a4d9f0ab5c" target="_top" xlink:title="Return given value, if defined, or a secondary value, if primary is not defined.">
<polygon fill="white" stroke="black" points="201.5,-380.5 201.5,-399.5 269.5,-399.5 269.5,-380.5 201.5,-380.5"/>
<text text-anchor="middle" x="235.5" y="-387.5" font-family="Helvetica,sans-Serif" font-size="10.00">defined_or</text>
</a>
</g>
</g>
<!-- Node1&#45;&gt;Node5 -->
<g id="edge4" class="edge">
<title>Node1&#45;&gt;Node5</title>
<path fill="none" stroke="midnightblue" d="M125.23,-402.14C147.07,-399.71 171.15,-397.04 191.13,-394.82"/>
<polygon fill="midnightblue" stroke="midnightblue" points="191.62,-398.29 201.17,-393.7 190.85,-391.33 191.62,-398.29"/>
</g>
<!-- Node6 -->
<g id="node6" class="node">
<title>Node6</title>
<g id="a_node6"><a xlink:href="group__tools__operation__cs.html#ga3900ae7c9ca268f0224a65f56387059f" target="_top" xlink:title="Conditionally apply the difference boolean operation.">
<polygon fill="white" stroke="black" points="195,-304.5 195,-323.5 276,-323.5 276,-304.5 195,-304.5"/>
<text text-anchor="middle" x="235.5" y="-311.5" font-family="Helvetica,sans-Serif" font-size="10.00">difference_cs</text>
</a>
</g>
</g>
<!-- Node1&#45;&gt;Node6 -->
<g id="edge5" class="edge">
<title>Node1&#45;&gt;Node6</title>
<path fill="none" stroke="midnightblue" d="M74.16,-399.47C91.33,-384.54 126.69,-355.54 161,-338 169.43,-333.69 178.79,-329.94 187.93,-326.76"/>
<polygon fill="midnightblue" stroke="midnightblue" points="189.3,-329.99 197.7,-323.53 187.11,-323.34 189.3,-329.99"/>
</g>
<!-- Node7 -->
<g id="node7" class="node">
<title>Node7</title>
<g id="a_node7"><a xlink:href="group__datatypes__scalar__test.html#ga51d7fdb800c10f4b7479d23b89ab8d22" target="_top" xlink:title="Test if a value is defined.">
<polygon fill="white" stroke="black" points="368.5,-304.5 368.5,-323.5 434.5,-323.5 434.5,-304.5 368.5,-304.5"/>
<text text-anchor="middle" x="401.5" y="-311.5" font-family="Helvetica,sans-Serif" font-size="10.00">is_defined</text>
</a>
</g>
</g>
<!-- Node1&#45;&gt;Node7 -->
<g id="edge19" class="edge">
<title>Node1&#45;&gt;Node7</title>
<path fill="none" stroke="midnightblue" d="M85.65,-399.36C105.21,-391.08 134.64,-379.23 161,-371 197.47,-359.61 299.79,-336.33 358.21,-323.32"/>
<polygon fill="midnightblue" stroke="midnightblue" points="359.24,-326.68 368.24,-321.1 357.72,-319.85 359.24,-326.68"/>
</g>
<!-- Node8 -->
<g id="node8" class="node">
<title>Node8</title>
<g id="a_node8"><a xlink:href="group__tools__extrude.html#ga45661244067bf945b684550c3263ee45" target="_top" xlink:title="Linearly extrude a 2d shape with multi&#45;segment uniformly&#45;spaced profile scaling.">
<polygon fill="white" stroke="black" points="179,-608.5 179,-627.5 292,-627.5 292,-608.5 179,-608.5"/>
<text text-anchor="middle" x="235.5" y="-615.5" font-family="Helvetica,sans-Serif" font-size="10.00">extrude_linear_mss</text>
</a>
</g>
</g>
<!-- Node1&#45;&gt;Node8 -->
<g id="edge7" class="edge">
<title>Node1&#45;&gt;Node8</title>
<path fill="none" stroke="midnightblue" d="M65.83,-418.69C73.65,-449.18 101.89,-544.14 161,-594 165.92,-598.15 171.57,-601.58 177.5,-604.43"/>
<polygon fill="midnightblue" stroke="midnightblue" points="176.43,-607.77 187,-608.43 179.15,-601.32 176.43,-607.77"/>
</g>
<!-- Node9 -->
<g id="node9" class="node">
<title>Node9</title>
<g id="a_node9"><a xlink:href="group__tools__extrude.html#gab2442cfaf1ad44d6e295ab0979d9e03d" target="_top" xlink:title="Linearly extrude a 2d shape with uniformly&#45;spaced profile scaling.">
<polygon fill="white" stroke="black" points="347,-646.5 347,-665.5 456,-665.5 456,-646.5 347,-646.5"/>
<text text-anchor="middle" x="401.5" y="-653.5" font-family="Helvetica,sans-Serif" font-size="10.00">extrude_linear_uss</text>
</a>
</g>
</g>
<!-- Node1&#45;&gt;Node9 -->
<g id="edge16" class="edge">
<title>Node1&#45;&gt;Node9</title>
<path fill="none" stroke="midnightblue" d="M64.27,-418.96C67.67,-455.41 84.78,-582.25 161,-637 213.88,-674.98 291.31,-673.71 343.7,-666.93"/>
<polygon fill="midnightblue" stroke="midnightblue" points="344.41,-670.37 353.83,-665.51 343.44,-663.44 344.41,-670.37"/>
</g>
<!-- Node10 -->
<g id="node10" class="node">
<title>Node10</title>
<g id="a_node10"><a xlink:href="group__datatypes__iterable__operate.html#gaccab3e37e43cb1d882713b3f3d6d9e1b" target="_top" xlink:title="Return the first element of an iterable value.">
<polygon fill="white" stroke="black" points="545.5,-608.5 545.5,-627.5 580.5,-627.5 580.5,-608.5 545.5,-608.5"/>
<text text-anchor="middle" x="563" y="-615.5" font-family="Helvetica,sans-Serif" font-size="10.00">first</text>
</a>
</g>
</g>
<!-- Node1&#45;&gt;Node10 -->
<g id="edge17" class="edge">
<title>Node1&#45;&gt;Node10</title>
<path fill="none" stroke="midnightblue" d="M70.64,-418.51C85.31,-437.32 120.89,-479.27 161,-500 280.32,-561.68 330.84,-514.91 457,-561 461.15,-562.52 506.37,-587.31 536.1,-603.69"/>
<polygon fill="midnightblue" stroke="midnightblue" points="534.69,-606.91 545.13,-608.68 538.07,-600.78 534.69,-606.91"/>
</g>
<!-- Node11 -->
<g id="node11" class="node">
<title>Node11</title>
<g id="a_node11"><a xlink:href="group__datatypes__scalar__test.html#ga258e8911375d30ff85a6e52df01dc1c5" target="_top" xlink:title="Test if a value is a single non&#45;iterable value.">
<polygon fill="white" stroke="black" points="533.5,-684.5 533.5,-703.5 592.5,-703.5 592.5,-684.5 533.5,-684.5"/>
<text text-anchor="middle" x="563" y="-691.5" font-family="Helvetica,sans-Serif" font-size="10.00">is_scalar</text>
</a>
</g>
</g>
<!-- Node1&#45;&gt;Node11 -->
<g id="edge20" class="edge">
<title>Node1&#45;&gt;Node11</title>
<path fill="none" stroke="midnightblue" d="M63.14,-418.52C62.14,-460.54 64.34,-630.45 161,-700 273,-780.59 451.91,-732.81 527.01,-707.11"/>
<polygon fill="midnightblue" stroke="midnightblue" points="528.62,-710.26 536.9,-703.65 526.31,-703.65 528.62,-710.26"/>
</g>
<!-- Node12 -->
<g id="node12" class="node">
<title>Node12</title>
<g id="a_node12"><a xlink:href="group__datatypes__iterable__operate.html#ga894d4bec62cc9cf38d5e099de3028c54" target="_top" xlink:title="Return the second element of an iterable value.">
<polygon fill="white" stroke="black" points="537.5,-551.5 537.5,-570.5 588.5,-570.5 588.5,-551.5 537.5,-551.5"/>
<text text-anchor="middle" x="563" y="-558.5" font-family="Helvetica,sans-Serif" font-size="10.00">second</text>
</a>
</g>
</g>
<!-- Node1&#45;&gt;Node12 -->
<g id="edge37" class="edge">
<title>Node1&#45;&gt;Node12</title>
<path fill="none" stroke="midnightblue" d="M75.97,-418.71C93.8,-432.11 128.07,-456.07 161,-469 285.86,-518.03 327.05,-494.73 457,-528 480.75,-534.08 507.08,-542.36 527.42,-549.1"/>
<polygon fill="midnightblue" stroke="midnightblue" points="526.59,-552.51 537.18,-552.37 528.81,-545.87 526.59,-552.51"/>
</g>
<!-- Node13 -->
<g id="node13" class="node">
<title>Node13</title>
<g id="a_node13"><a xlink:href="group__datatypes__list__operate.html#gae12565005038993506dc37249e32766d" target="_top" xlink:title="Compute the sum of a list of numbers.">
<polygon fill="white" stroke="black" points="382.5,-570.5 382.5,-589.5 420.5,-589.5 420.5,-570.5 382.5,-570.5"/>
<text text-anchor="middle" x="401.5" y="-577.5" font-family="Helvetica,sans-Serif" font-size="10.00">sum</text>
</a>
</g>
</g>
<!-- Node1&#45;&gt;Node13 -->
<g id="edge41" class="edge">
<title>Node1&#45;&gt;Node13</title>
<path fill="none" stroke="midnightblue" d="M66.61,-418.7C75.89,-445.89 106.19,-522.96 161,-556 227.9,-596.33 324.81,-590.56 372.22,-584.51"/>
<polygon fill="midnightblue" stroke="midnightblue" points="372.93,-587.94 382.36,-583.11 371.98,-581.01 372.93,-587.94"/>
</g>
<!-- Node14 -->
<g id="node14" class="node">
<title>Node14</title>
<g id="a_node14"><a xlink:href="group__math__utility.html#gaf9e83459b8955e67df8371e48c5c6194" target="_top" xlink:title="Return facets number for the given arc radius.">
<polygon fill="white" stroke="black" points="212,-266.5 212,-285.5 259,-285.5 259,-266.5 212,-266.5"/>
<text text-anchor="middle" x="235.5" y="-273.5" font-family="Helvetica,sans-Serif" font-size="10.00">get_fn</text>
</a>
</g>
</g>
<!-- Node1&#45;&gt;Node14 -->
<g id="edge18" class="edge">
<title>Node1&#45;&gt;Node14</title>
<path fill="none" stroke="midnightblue" d="M68.92,-399.31C81.81,-377.19 116.6,-322.72 161,-295 173.17,-287.4 188.29,-282.83 201.64,-280.08"/>
<polygon fill="midnightblue" stroke="midnightblue" points="202.65,-283.46 211.88,-278.25 201.42,-276.57 202.65,-283.46"/>
</g>
<!-- Node15 -->
<g id="node15" class="node">
<title>Node15</title>
<g id="a_node15"><a xlink:href="group__datatypes__list__operate.html#gac9437fd7e3cb8797fa5e901b2ab6e58a" target="_top" xlink:title="Serially merge the elements of a list.">
<polygon fill="white" stroke="black" points="206,-228.5 206,-247.5 265,-247.5 265,-228.5 206,-228.5"/>
<text text-anchor="middle" x="235.5" y="-235.5" font-family="Helvetica,sans-Serif" font-size="10.00">merge_s</text>
</a>
</g>
</g>
<!-- Node1&#45;&gt;Node15 -->
<g id="edge21" class="edge">
<title>Node1&#45;&gt;Node15</title>
<path fill="none" stroke="midnightblue" d="M66.79,-399.4C76.53,-372.42 107.93,-295.43 161,-257 171.17,-249.63 183.96,-245.12 196,-242.35"/>
<polygon fill="midnightblue" stroke="midnightblue" points="196.73,-245.78 205.87,-240.42 195.39,-238.91 196.73,-245.78"/>
</g>
<!-- Node16 -->
<g id="node16" class="node">
<title>Node16</title>
<g id="a_node16"><a xlink:href="group__shapes__polygon.html#ga9c1bd914355d92f9d66ba0e5c2d9dbac" target="_top" xlink:title="A polygon rectangle with vertex rounding.">
<polygon fill="white" stroke="black" points="361.5,-456.5 361.5,-475.5 441.5,-475.5 441.5,-456.5 361.5,-456.5"/>
<text text-anchor="middle" x="401.5" y="-463.5" font-family="Helvetica,sans-Serif" font-size="10.00">pg_rectangle</text>
</a>
</g>
</g>
<!-- Node1&#45;&gt;Node16 -->
<g id="edge22" class="edge">
<title>Node1&#45;&gt;Node16</title>
<path fill="none" stroke="midnightblue" d="M83.12,-418.62C102.44,-427.61 133.02,-440.58 161,-447 225.58,-461.81 302.23,-465.55 351.1,-466.27"/>
<polygon fill="midnightblue" stroke="midnightblue" points="351.36,-469.77 361.4,-466.38 351.43,-462.77 351.36,-469.77"/>
</g>
<!-- Node19 -->
<g id="node19" class="node">
<title>Node19</title>
<g id="a_node19"><a xlink:href="group__shapes__polygon.html#ga24be160074502dce7ff8a78361d4b074" target="_top" xlink:title="A polygon triangle specified by size&#45;angle&#45;size with vertex rounding.">
<polygon fill="white" stroke="black" points="189,-418.5 189,-437.5 282,-437.5 282,-418.5 189,-418.5"/>
<text text-anchor="middle" x="235.5" y="-425.5" font-family="Helvetica,sans-Serif" font-size="10.00">pg_triangle_sas</text>
</a>
</g>
</g>
<!-- Node1&#45;&gt;Node19 -->
<g id="edge26" class="edge">
<title>Node1&#45;&gt;Node19</title>
<path fill="none" stroke="midnightblue" d="M125.23,-415.86C142.66,-417.8 161.52,-419.89 178.59,-421.79"/>
<polygon fill="midnightblue" stroke="midnightblue" points="178.63,-425.31 188.96,-422.94 179.4,-418.36 178.63,-425.31"/>
</g>
<!-- Node26 -->
<g id="node26" class="node">
<title>Node26</title>
<g id="a_node26"><a xlink:href="group__math__polygon.html#ga14f9e097061ed4d570b7aae27a01e43e" target="_top" xlink:title="Compute the perimeter of an n&#45;sided regular polygon in 2D.">
<polygon fill="white" stroke="black" points="161,-190.5 161,-209.5 310,-209.5 310,-190.5 161,-190.5"/>
<text text-anchor="middle" x="235.5" y="-197.5" font-family="Helvetica,sans-Serif" font-size="10.00">polygon_regular_perimeter</text>
</a>
</g>
</g>
<!-- Node1&#45;&gt;Node26 -->
<g id="edge35" class="edge">
<title>Node1&#45;&gt;Node26</title>
<path fill="none" stroke="midnightblue" d="M65.51,-399.34C72.54,-368.04 99.05,-268.57 161,-219 163.27,-217.19 165.69,-215.54 168.22,-214.06"/>
<polygon fill="midnightblue" stroke="midnightblue" points="169.81,-217.17 177.19,-209.58 166.68,-210.91 169.81,-217.17"/>
</g>
<!-- Node27 -->
<g id="node27" class="node">
<title>Node27</title>
<g id="a_node27"><a xlink:href="group__datatypes__iterable__operate.html#gafb1f112a3ab162d589c49d1b2de21b9e" target="_top" xlink:title="Reverse the elements of an iterable value.">
<polygon fill="white" stroke="black" points="209,-152.5 209,-171.5 262,-171.5 262,-152.5 209,-152.5"/>
<text text-anchor="middle" x="235.5" y="-159.5" font-family="Helvetica,sans-Serif" font-size="10.00">reverse</text>
</a>
</g>
</g>
<!-- Node1&#45;&gt;Node27 -->
<g id="edge36" class="edge">
<title>Node1&#45;&gt;Node27</title>
<path fill="none" stroke="midnightblue" d="M64.6,-399.46C69.16,-364.49 89.82,-242.16 161,-181 171.41,-172.05 185.52,-167.24 198.59,-164.68"/>
<polygon fill="midnightblue" stroke="midnightblue" points="199.43,-168.09 208.76,-163.07 198.34,-161.18 199.43,-168.09"/>
</g>
<!-- Node28 -->
<g id="node28" class="node">
<title>Node28</title>
<g id="a_node28"><a xlink:href="group__datatypes__list__operate.html#ga7b8e6f2bbfa72ae61e39377e5ca6b5be" target="_top" xlink:title="Select specified element from list or return a default.">
<polygon fill="white" stroke="black" points="206,-114.5 206,-133.5 265,-133.5 265,-114.5 206,-114.5"/>
<text text-anchor="middle" x="235.5" y="-121.5" font-family="Helvetica,sans-Serif" font-size="10.00">select_ci</text>
</a>
</g>
</g>
<!-- Node1&#45;&gt;Node28 -->
<g id="edge38" class="edge">
<title>Node1&#45;&gt;Node28</title>
<path fill="none" stroke="midnightblue" d="M63.97,-399.27C66.38,-360.54 80.63,-215.82 161,-143 170.46,-134.43 183.29,-129.62 195.58,-126.96"/>
<polygon fill="midnightblue" stroke="midnightblue" points="196.44,-130.36 205.69,-125.19 195.23,-123.47 196.44,-130.36"/>
</g>
<!-- Node29 -->
<g id="node29" class="node">
<title>Node29</title>
<g id="a_node29"><a xlink:href="group__datatypes__iterable__operate.html#ga77aa841ef714d4120518e009d8d95c38" target="_top" xlink:title="Shift the elements of an iterable value.">
<polygon fill="white" stroke="black" points="216.5,-76.5 216.5,-95.5 254.5,-95.5 254.5,-76.5 216.5,-76.5"/>
<text text-anchor="middle" x="235.5" y="-83.5" font-family="Helvetica,sans-Serif" font-size="10.00">shift</text>
</a>
</g>
</g>
<!-- Node1&#45;&gt;Node29 -->
<g id="edge39" class="edge">
<title>Node1&#45;&gt;Node29</title>
<path fill="none" stroke="midnightblue" d="M63.46,-399.38C63.85,-357.55 71.13,-189.85 161,-105 173.03,-93.64 190.93,-88.85 206.06,-86.92"/>
<polygon fill="midnightblue" stroke="midnightblue" points="206.82,-90.37 216.46,-85.97 206.18,-83.4 206.82,-90.37"/>
</g>
<!-- Node30 -->
<g id="node30" class="node">
<title>Node30</title>
<g id="a_node30"><a xlink:href="group__datatypes__list__operate.html#gab842ea235bf5fc40a14512083b49c8d2" target="_top" xlink:title="Convert a list of values to a concatenated string.">
<polygon fill="white" stroke="black" points="219.5,-38.5 219.5,-57.5 251.5,-57.5 251.5,-38.5 219.5,-38.5"/>
<text text-anchor="middle" x="235.5" y="-45.5" font-family="Helvetica,sans-Serif" font-size="10.00">strl</text>
</a>
</g>
</g>
<!-- Node1&#45;&gt;Node30 -->
<g id="edge40" class="edge">
<title>Node1&#45;&gt;Node30</title>
<path fill="none" stroke="midnightblue" d="M63.07,-399.44C61.6,-354.68 61.56,-164.01 161,-67 173.72,-54.59 193.44,-49.98 209.25,-48.4"/>
<polygon fill="midnightblue" stroke="midnightblue" points="209.69,-51.88 219.44,-47.73 209.23,-44.89 209.69,-51.88"/>
</g>
<!-- Node31 -->
<g id="node31" class="node">
<title>Node31</title>
<g id="a_node31"><a xlink:href="group__datatypes__iterable__operate.html#ga4a000b3543933067bb00c6950e9122b3" target="_top" xlink:title="Return the third element of an iterable value.">
<polygon fill="white" stroke="black" points="216,-0.5 216,-19.5 255,-19.5 255,-0.5 216,-0.5"/>
<text text-anchor="middle" x="235.5" y="-7.5" font-family="Helvetica,sans-Serif" font-size="10.00">third</text>
</a>
</g>
</g>
<!-- Node1&#45;&gt;Node31 -->
<g id="edge42" class="edge">
<title>Node1&#45;&gt;Node31</title>
<path fill="none" stroke="midnightblue" d="M64.64,-399.41C71.21,-345.85 105.79,-84.31 161,-29 172.73,-17.25 190.7,-12.47 205.94,-10.63"/>
<polygon fill="midnightblue" stroke="midnightblue" points="206.28,-14.12 215.94,-9.79 205.69,-7.14 206.28,-14.12"/>
</g>
<!-- Node6&#45;&gt;Node7 -->
<g id="edge6" class="edge">
<title>Node6&#45;&gt;Node7</title>
<path fill="none" stroke="midnightblue" d="M276.2,-314C301.03,-314 332.98,-314 358.27,-314"/>
<polygon fill="midnightblue" stroke="midnightblue" points="358.31,-317.5 368.31,-314 358.31,-310.5 358.31,-317.5"/>
</g>
<!-- Node8&#45;&gt;Node9 -->
<g id="edge8" class="edge">
<title>Node8&#45;&gt;Node9</title>
<path fill="none" stroke="midnightblue" d="M277.88,-627.59C299.62,-632.63 326.46,-638.84 349.47,-644.18"/>
<polygon fill="midnightblue" stroke="midnightblue" points="348.88,-647.63 359.41,-646.48 350.46,-640.81 348.88,-647.63"/>
</g>
<!-- Node8&#45;&gt;Node10 -->
<g id="edge13" class="edge">
<title>Node8&#45;&gt;Node10</title>
<path fill="none" stroke="midnightblue" d="M292.09,-618C362.77,-618 482.02,-618 535.11,-618"/>
<polygon fill="midnightblue" stroke="midnightblue" points="535.39,-621.5 545.39,-618 535.39,-614.5 535.39,-621.5"/>
</g>
<!-- Node8&#45;&gt;Node11 -->
<g id="edge14" class="edge">
<title>Node8&#45;&gt;Node11</title>
<path fill="none" stroke="midnightblue" d="M250.6,-627.67C270.74,-640.93 309.38,-664.32 346,-675 406.09,-692.53 479.26,-695.3 523.15,-695.09"/>
<polygon fill="midnightblue" stroke="midnightblue" points="523.43,-698.59 533.39,-694.99 523.36,-691.59 523.43,-698.59"/>
</g>
<!-- Node8&#45;&gt;Node13 -->
<g id="edge15" class="edge">
<title>Node8&#45;&gt;Node13</title>
<path fill="none" stroke="midnightblue" d="M277.88,-608.41C307.41,-601.57 346.33,-592.55 372.32,-586.53"/>
<polygon fill="midnightblue" stroke="midnightblue" points="373.32,-589.89 382.27,-584.22 371.74,-583.07 373.32,-589.89"/>
</g>
<!-- Node9&#45;&gt;Node4 -->
<g id="edge9" class="edge">
<title>Node9&#45;&gt;Node4</title>
<path fill="none" stroke="midnightblue" d="M456.05,-656C474.6,-656 495.27,-656 513.4,-656"/>
<polygon fill="midnightblue" stroke="midnightblue" points="513.46,-659.5 523.46,-656 513.46,-652.5 513.46,-659.5"/>
</g>
<!-- Node9&#45;&gt;Node10 -->
<g id="edge10" class="edge">
<title>Node9&#45;&gt;Node10</title>
<path fill="none" stroke="midnightblue" d="M442.75,-646.41C471.82,-639.49 510.26,-630.33 535.53,-624.31"/>
<polygon fill="midnightblue" stroke="midnightblue" points="536.58,-627.65 545.49,-621.93 534.96,-620.85 536.58,-627.65"/>
</g>
<!-- Node9&#45;&gt;Node11 -->
<g id="edge11" class="edge">
<title>Node9&#45;&gt;Node11</title>
<path fill="none" stroke="midnightblue" d="M442.75,-665.59C467.46,-671.48 498.94,-678.98 523.35,-684.79"/>
<polygon fill="midnightblue" stroke="midnightblue" points="522.8,-688.26 533.33,-687.17 524.42,-681.45 522.8,-688.26"/>
</g>
<!-- Node9&#45;&gt;Node12 -->
<g id="edge12" class="edge">
<title>Node9&#45;&gt;Node12</title>
<path fill="none" stroke="midnightblue" d="M417.07,-646.45C434.82,-634.91 465.81,-615.03 493,-599 506.75,-590.9 522.29,-582.29 535.15,-575.31"/>
<polygon fill="midnightblue" stroke="midnightblue" points="536.83,-578.38 543.97,-570.56 533.5,-572.22 536.83,-578.38"/>
</g>
<!-- Node16&#45;&gt;Node4 -->
<g id="edge23" class="edge">
<title>Node16&#45;&gt;Node4</title>
<path fill="none" stroke="midnightblue" d="M408.32,-475.57C418.58,-492.55 440.35,-529.15 457,-561 474.31,-594.12 464.38,-612.96 493,-637 499.02,-642.06 506.28,-645.77 513.8,-648.51"/>
<polygon fill="midnightblue" stroke="midnightblue" points="512.8,-651.86 523.39,-651.47 514.87,-645.17 512.8,-651.86"/>
</g>
<!-- Node17 -->
<g id="node17" class="node">
<title>Node17</title>
<g id="a_node17"><a xlink:href="group__math__polygon.html#ga7a0eff64929a142fc507615f83e3bd58" target="_top" xlink:title="Compute coordinates that round all of the vertices between each adjacent edges in 2D.">
<polygon fill="white" stroke="black" points="493,-456.5 493,-475.5 633,-475.5 633,-456.5 493,-456.5"/>
<text text-anchor="middle" x="563" y="-463.5" font-family="Helvetica,sans-Serif" font-size="10.00">polygon_round_eve_all_p</text>
</a>
</g>
</g>
<!-- Node16&#45;&gt;Node17 -->
<g id="edge24" class="edge">
<title>Node16&#45;&gt;Node17</title>
<path fill="none" stroke="midnightblue" d="M441.52,-466C453.99,-466 468.27,-466 482.54,-466"/>
<polygon fill="midnightblue" stroke="midnightblue" points="482.9,-469.5 492.9,-466 482.9,-462.5 482.9,-469.5"/>
</g>
<!-- Node18 -->
<g id="node18" class="node">
<title>Node18</title>
<g id="a_node18"><a xlink:href="group__math__linear__algebra.html#gaeabe74699fd0a437bad9a1d442bfd111" target="_top" xlink:title="Translate all coordinates dimensions.">
<polygon fill="white" stroke="black" points="527.5,-494.5 527.5,-513.5 598.5,-513.5 598.5,-494.5 527.5,-494.5"/>
<text text-anchor="middle" x="563" y="-501.5" font-family="Helvetica,sans-Serif" font-size="10.00">translate_p</text>
</a>
</g>
</g>
<!-- Node16&#45;&gt;Node18 -->
<g id="edge25" class="edge">
<title>Node16&#45;&gt;Node18</title>
<path fill="none" stroke="midnightblue" d="M441.52,-475.3C464.52,-480.78 493.69,-487.73 517.57,-493.42"/>
<polygon fill="midnightblue" stroke="midnightblue" points="516.91,-496.86 527.45,-495.77 518.53,-490.05 516.91,-496.86"/>
</g>
<!-- Node20 -->
<g id="node20" class="node">
<title>Node20</title>
<g id="a_node20"><a xlink:href="group__shapes__polygon.html#gac7e2c70b3428b729efd86a675df794e6" target="_top" xlink:title="A polygon triangle specified by three coordinate points with vertex rounding.">
<polygon fill="white" stroke="black" points="354,-418.5 354,-437.5 449,-437.5 449,-418.5 354,-418.5"/>
<text text-anchor="middle" x="401.5" y="-425.5" font-family="Helvetica,sans-Serif" font-size="10.00">pg_triangle_ppp</text>
</a>
</g>
</g>
<!-- Node19&#45;&gt;Node20 -->
<g id="edge27" class="edge">
<title>Node19&#45;&gt;Node20</title>
<path fill="none" stroke="midnightblue" d="M282.18,-428C301.23,-428 323.55,-428 343.65,-428"/>
<polygon fill="midnightblue" stroke="midnightblue" points="343.92,-431.5 353.92,-428 343.92,-424.5 343.92,-431.5"/>
</g>
<!-- Node24 -->
<g id="node24" class="node">
<title>Node24</title>
<g id="a_node24"><a xlink:href="group__math__triangle.html#gaab9b812d15418fd05c9d93f3bfcc1989" target="_top" xlink:title="Compute a set of vertex coordinates for a triangle given its side lengths in 2D.">
<polygon fill="white" stroke="black" points="346,-380.5 346,-399.5 457,-399.5 457,-380.5 346,-380.5"/>
<text text-anchor="middle" x="401.5" y="-387.5" font-family="Helvetica,sans-Serif" font-size="10.00">triangle2d_sss2ppp</text>
</a>
</g>
</g>
<!-- Node19&#45;&gt;Node24 -->
<g id="edge33" class="edge">
<title>Node19&#45;&gt;Node24</title>
<path fill="none" stroke="midnightblue" d="M277.88,-418.41C299.62,-413.37 326.46,-407.16 349.47,-401.82"/>
<polygon fill="midnightblue" stroke="midnightblue" points="350.46,-405.19 359.41,-399.52 348.88,-398.37 350.46,-405.19"/>
</g>
<!-- Node25 -->
<g id="node25" class="node">
<title>Node25</title>
<g id="a_node25"><a xlink:href="group__math__triangle.html#ga33761959a2184db852e773ca2330811b" target="_top" xlink:title="Compute the side lengths of a triangle given two sides and the included angle.">
<polygon fill="white" stroke="black" points="352.5,-342.5 352.5,-361.5 450.5,-361.5 450.5,-342.5 352.5,-342.5"/>
<text text-anchor="middle" x="401.5" y="-349.5" font-family="Helvetica,sans-Serif" font-size="10.00">triangle_sas2sss</text>
</a>
</g>
</g>
<!-- Node19&#45;&gt;Node25 -->
<g id="edge34" class="edge">
<title>Node19&#45;&gt;Node25</title>
<path fill="none" stroke="midnightblue" d="M282,-420.47C291.65,-417.73 301.48,-414.02 310,-409 330.04,-397.19 326.46,-383.63 346,-371 349.08,-369.01 352.4,-367.19 355.83,-365.55"/>
<polygon fill="midnightblue" stroke="midnightblue" points="357.23,-368.76 365.04,-361.59 354.47,-362.32 357.23,-368.76"/>
</g>
<!-- Node20&#45;&gt;Node17 -->
<g id="edge28" class="edge">
<title>Node20&#45;&gt;Node17</title>
<path fill="none" stroke="midnightblue" d="M442.75,-437.59C463.8,-442.6 489.76,-448.79 512.07,-454.11"/>
<polygon fill="midnightblue" stroke="midnightblue" points="511.5,-457.57 522.04,-456.48 513.12,-450.76 511.5,-457.57"/>
</g>
<!-- Node20&#45;&gt;Node18 -->
<g id="edge29" class="edge">
<title>Node20&#45;&gt;Node18</title>
<path fill="none" stroke="midnightblue" d="M437.96,-437.59C444.56,-440.14 451.19,-443.25 457,-447 476.54,-459.63 473.05,-473.03 493,-485 500.43,-489.46 508.93,-492.9 517.36,-495.54"/>
<polygon fill="midnightblue" stroke="midnightblue" points="516.6,-498.96 527.17,-498.29 518.49,-492.22 516.6,-498.96"/>
</g>
<!-- Node21 -->
<g id="node21" class="node">
<title>Node21</title>
<g id="a_node21"><a xlink:href="group__math__triangle.html#gac0d11ca2c5035a9e53c1144f3774b0b4" target="_top" xlink:title="Compute the center coordinate of a triangle&#39;s incircle in 2D.">
<polygon fill="white" stroke="black" points="507.5,-418.5 507.5,-437.5 618.5,-437.5 618.5,-418.5 507.5,-418.5"/>
<text text-anchor="middle" x="563" y="-425.5" font-family="Helvetica,sans-Serif" font-size="10.00">triangle2d_incenter</text>
</a>
</g>
</g>
<!-- Node20&#45;&gt;Node21 -->
<g id="edge30" class="edge">
<title>Node20&#45;&gt;Node21</title>
<path fill="none" stroke="midnightblue" d="M449.06,-428C464.07,-428 480.99,-428 497.08,-428"/>
<polygon fill="midnightblue" stroke="midnightblue" points="497.5,-431.5 507.5,-428 497.5,-424.5 497.5,-431.5"/>
</g>
<!-- Node22 -->
<g id="node22" class="node">
<title>Node22</title>
<g id="a_node22"><a xlink:href="group__math__triangle.html#ga51e8d8c2004f859d216790f7966b7dfd" target="_top" xlink:title="Compute the centroid of a triangle.">
<polygon fill="white" stroke="black" points="513.5,-380.5 513.5,-399.5 612.5,-399.5 612.5,-380.5 513.5,-380.5"/>
<text text-anchor="middle" x="563" y="-387.5" font-family="Helvetica,sans-Serif" font-size="10.00">triangle_centroid</text>
</a>
</g>
</g>
<!-- Node20&#45;&gt;Node22 -->
<g id="edge31" class="edge">
<title>Node20&#45;&gt;Node22</title>
<path fill="none" stroke="midnightblue" d="M442.75,-418.41C463.8,-413.4 489.76,-407.21 512.07,-401.89"/>
<polygon fill="midnightblue" stroke="midnightblue" points="513.12,-405.24 522.04,-399.52 511.5,-398.43 513.12,-405.24"/>
</g>
<!-- Node23 -->
<g id="node23" class="node">
<title>Node23</title>
<g id="a_node23"><a xlink:href="group__math__triangle.html#ga5cf2801b07faec68a51ac3cd901bc4b0" target="_top" xlink:title="Compute the coordinate of a triangle&#39;s circumcenter.">
<polygon fill="white" stroke="black" points="501.5,-342.5 501.5,-361.5 624.5,-361.5 624.5,-342.5 501.5,-342.5"/>
<text text-anchor="middle" x="563" y="-349.5" font-family="Helvetica,sans-Serif" font-size="10.00">triangle_circumcenter</text>
</a>
</g>
</g>
<!-- Node20&#45;&gt;Node23 -->
<g id="edge32" class="edge">
<title>Node20&#45;&gt;Node23</title>
<path fill="none" stroke="midnightblue" d="M437.96,-418.41C444.56,-415.86 451.19,-412.75 457,-409 476.54,-396.37 473.05,-382.97 493,-371 496.6,-368.84 500.44,-366.92 504.41,-365.22"/>
<polygon fill="midnightblue" stroke="midnightblue" points="505.75,-368.45 513.83,-361.61 503.24,-361.92 505.75,-368.45"/>
</g>
</g>
</svg>
