<?xml version="1.0" encoding="UTF-8" standalone="no"?>
<!DOCTYPE svg PUBLIC "-//W3C//DTD SVG 1.1//EN"
 "http://www.w3.org/Graphics/SVG/1.1/DTD/svg11.dtd">
<!-- Generated by graphviz version 2.43.0 (0)
 -->
<!-- Title: Computer Pages: 1 -->
<svg width="355pt" height="35pt"
 viewBox="0.00 0.00 355.00 35.19" xmlns="http://www.w3.org/2000/svg" xmlns:xlink="http://www.w3.org/1999/xlink">
<g id="graph0" class="graph" transform="scale(1 1) rotate(0) translate(4 31.19)">
<title>Computer</title>
<polygon fill="white" stroke="transparent" points="-4,4 -4,-31.19 351,-31.19 351,4 -4,4"/>
<!-- Node2 -->
<g id="node1" class="node">
<title>Node2</title>
<g id="a_node1"><a xlink:href="group__parts__3d.html" target="_top" xlink:title="3d parts, part generators, and small assemblies.">
<polygon fill="white" stroke="black" points="56,-27.19 0,-27.19 0,-8.19 56,-8.19 56,-27.19"/>
<text text-anchor="middle" x="28" y="-15.19" font-family="Helvetica,sans-Serif" font-size="10.00">3d Parts</text>
</a>
</g>
</g>
<!-- Node1 -->
<g id="node3" class="node">
<title>Node1</title>
<g id="a_node3"><a xlink:title="Mechanical computer parts.">
<polygon fill="#bfbfbf" stroke="black" points="158,-27.19 93,-27.19 93,-8.19 158,-8.19 158,-27.19"/>
<text text-anchor="middle" x="125.5" y="-15.19" font-family="Helvetica,sans-Serif" font-size="10.00">Computer</text>
</a>
</g>
</g>
<!-- Node2&#45;&gt;Node1 -->
<g id="edge1" class="edge">
<title>Node2&#45;&gt;Node1</title>
<path fill="none" stroke="black" d="M66.18,-17.69C75.02,-17.69 84.37,-17.69 92.93,-17.69"/>
<polygon fill="black" stroke="black" points="66.11,-14.19 56.11,-17.69 66.11,-21.19 66.11,-14.19"/>
</g>
<!-- Node3 -->
<g id="node2" class="node">
<title>Node3</title>
<g id="a_node2"><a xlink:href="group__parts__3d__computer__pci__bracket.html" target="_top" xlink:title="PCI slot cover bracket generator.">
<polygon fill="white" stroke="black" points="347,-27.19 276,-27.19 276,-8.19 347,-8.19 347,-27.19"/>
<text text-anchor="middle" x="311.5" y="-15.19" font-family="Helvetica,sans-Serif" font-size="10.00">PCI bracket</text>
</a>
</g>
</g>
<!-- Node1&#45;&gt;Node3 -->
<g id="edge2" class="edge">
<title>Node1&#45;&gt;Node3</title>
<path fill="none" stroke="black" d="M168.22,-17.69C200.72,-17.69 245.3,-17.69 275.84,-17.69"/>
<polygon fill="black" stroke="black" points="168.13,-14.19 158.13,-17.69 168.13,-21.19 168.13,-14.19"/>
</g>
<!-- Node1&#45;&gt;Node3 -->
<g id="edge3" class="edge">
<title>Node1&#45;&gt;Node3</title>
<path fill="none" stroke="darkgreen" stroke-dasharray="5,2" d="M155.01,-8.18C161.81,-6.32 169.1,-4.64 176,-3.69 212.1,1.32 221.86,1.05 258,-3.69 265.3,-4.64 273.02,-6.32 280.23,-8.18"/>
<text text-anchor="middle" x="217" y="-6.69" font-family="Helvetica,sans-Serif" font-size="10.00">pci_bracket.scad</text>
</g>
</g>
</svg>
