<?xml version="1.0" encoding="UTF-8" standalone="no"?>
<!DOCTYPE svg PUBLIC "-//W3C//DTD SVG 1.1//EN"
 "http://www.w3.org/Graphics/SVG/1.1/DTD/svg11.dtd">
<!-- Generated by graphviz version 2.43.0 (0)
 -->
<!-- Title: List Comparision Pages: 1 -->
<svg width="302pt" height="35pt"
 viewBox="0.00 0.00 302.00 35.10" xmlns="http://www.w3.org/2000/svg" xmlns:xlink="http://www.w3.org/1999/xlink">
<g id="graph0" class="graph" transform="scale(1 1) rotate(0) translate(4 31.1)">
<title>List Comparision</title>
<polygon fill="white" stroke="transparent" points="-4,4 -4,-31.1 298,-31.1 298,4 -4,4"/>
<!-- Node2 -->
<g id="node1" class="node">
<title>Node2</title>
<g id="a_node1"><a xlink:href="group__datatypes.html" target="_top" xlink:title="Data type identification and operations.">
<polygon fill="white" stroke="black" points="71,-27.1 0,-27.1 0,-8.1 71,-8.1 71,-27.1"/>
<text text-anchor="middle" x="35.5" y="-15.1" font-family="Helvetica,sans-Serif" font-size="10.00">Data Types</text>
</a>
</g>
</g>
<!-- Node1 -->
<g id="node2" class="node">
<title>Node1</title>
<g id="a_node2"><a xlink:title="List comparision operations.">
<polygon fill="#bfbfbf" stroke="black" points="294,-27.1 196,-27.1 196,-8.1 294,-8.1 294,-27.1"/>
<text text-anchor="middle" x="245" y="-15.1" font-family="Helvetica,sans-Serif" font-size="10.00">List Comparision</text>
</a>
</g>
</g>
<!-- Node2&#45;&gt;Node1 -->
<g id="edge1" class="edge">
<title>Node2&#45;&gt;Node1</title>
<path fill="none" stroke="black" d="M81.29,-17.6C115.08,-17.6 161.37,-17.6 195.93,-17.6"/>
<polygon fill="black" stroke="black" points="81.23,-14.1 71.23,-17.6 81.23,-21.1 81.23,-14.1"/>
</g>
<!-- Node1&#45;&gt;Node2 -->
<g id="edge2" class="edge">
<title>Node1&#45;&gt;Node2</title>
<path fill="none" stroke="darkgreen" stroke-dasharray="5,2" d="M205.83,-8.09C196.76,-6.23 187.09,-4.55 178,-3.6 138.66,0.53 128.22,1.54 89,-3.6 81.7,-4.56 73.98,-6.23 66.77,-8.1"/>
<text text-anchor="middle" x="133.5" y="-6.6" font-family="Helvetica,sans-Serif" font-size="10.00">list_compare.scad</text>
</g>
</g>
</svg>
