<?xml version="1.0" encoding="UTF-8" standalone="no"?>
<!DOCTYPE svg PUBLIC "-//W3C//DTD SVG 1.1//EN"
 "http://www.w3.org/Graphics/SVG/1.1/DTD/svg11.dtd">
<!-- Generated by graphviz version 2.43.0 (0)
 -->
<!-- Title: Enclosure Pages: 1 -->
<svg width="468pt" height="37pt"
 viewBox="0.00 0.00 468.00 36.87" xmlns="http://www.w3.org/2000/svg" xmlns:xlink="http://www.w3.org/1999/xlink">
<g id="graph0" class="graph" transform="scale(1 1) rotate(0) translate(4 32.87)">
<title>Enclosure</title>
<polygon fill="white" stroke="transparent" points="-4,4 -4,-32.87 464,-32.87 464,4 -4,4"/>
<!-- Node1 -->
<g id="node1" class="node">
<title>Node1</title>
<g id="a_node1"><a xlink:title="Project boxes, housings and enclosures.">
<polygon fill="#bfbfbf" stroke="black" points="157,-28.87 93,-28.87 93,-9.87 157,-9.87 157,-28.87"/>
<text text-anchor="middle" x="125" y="-16.87" font-family="Helvetica,sans-Serif" font-size="10.00">Enclosure</text>
</a>
</g>
</g>
<!-- Node3 -->
<g id="node3" class="node">
<title>Node3</title>
<g id="a_node3"><a xlink:href="group__parts__3d__enclosure__project__box__rectangle.html" target="_top" xlink:title="Rectangular prism project box generator.">
<polygon fill="white" stroke="black" points="460,-28.87 327,-28.87 327,-9.87 460,-9.87 460,-28.87"/>
<text text-anchor="middle" x="393.5" y="-16.87" font-family="Helvetica,sans-Serif" font-size="10.00">Rectangular project box</text>
</a>
</g>
</g>
<!-- Node1&#45;&gt;Node3 -->
<g id="edge2" class="edge">
<title>Node1&#45;&gt;Node3</title>
<path fill="none" stroke="black" d="M167.1,-19.37C209.69,-19.37 276.88,-19.37 326.84,-19.37"/>
<polygon fill="black" stroke="black" points="167.09,-15.87 157.09,-19.37 167.09,-22.87 167.09,-15.87"/>
</g>
<!-- Node1&#45;&gt;Node3 -->
<g id="edge3" class="edge">
<title>Node1&#45;&gt;Node3</title>
<path fill="none" stroke="darkgreen" stroke-dasharray="5,2" d="M154.21,-9.86C160.95,-8 168.17,-6.32 175,-5.37 233.98,2.89 249.65,-0.42 309,-5.37 320.43,-6.32 332.64,-7.99 344.1,-9.85"/>
<text text-anchor="middle" x="242" y="-8.37" font-family="Helvetica,sans-Serif" font-size="10.00">project_box_rectangle.scad</text>
</g>
<!-- Node2 -->
<g id="node2" class="node">
<title>Node2</title>
<g id="a_node2"><a xlink:href="group__parts__3d.html" target="_top" xlink:title="3d parts, part generators, and small assemblies.">
<polygon fill="white" stroke="black" points="56,-28.87 0,-28.87 0,-9.87 56,-9.87 56,-28.87"/>
<text text-anchor="middle" x="28" y="-16.87" font-family="Helvetica,sans-Serif" font-size="10.00">3d Parts</text>
</a>
</g>
</g>
<!-- Node2&#45;&gt;Node1 -->
<g id="edge1" class="edge">
<title>Node2&#45;&gt;Node1</title>
<path fill="none" stroke="black" d="M66.22,-19.37C75,-19.37 84.27,-19.37 92.75,-19.37"/>
<polygon fill="black" stroke="black" points="66.22,-15.87 56.22,-19.37 66.22,-22.87 66.22,-15.87"/>
</g>
</g>
</svg>
