<?xml version="1.0" encoding="UTF-8" standalone="no"?>
<!DOCTYPE svg PUBLIC "-//W3C//DTD SVG 1.1//EN"
 "http://www.w3.org/Graphics/SVG/1.1/DTD/svg11.dtd">
<!-- Generated by graphviz version 2.43.0 (0)
 -->
<!-- Title: polygon_regular_p Pages: 1 -->
<svg width="408pt" height="484pt"
 viewBox="0.00 0.00 408.00 484.00" xmlns="http://www.w3.org/2000/svg" xmlns:xlink="http://www.w3.org/1999/xlink">
<g id="graph0" class="graph" transform="scale(1 1) rotate(0) translate(4 480)">
<title>polygon_regular_p</title>
<polygon fill="white" stroke="transparent" points="-4,4 -4,-480 404,-480 404,4 -4,4"/>
<!-- Node1 -->
<g id="node1" class="node">
<title>Node1</title>
<g id="a_node1"><a xlink:title="Compute coordinates for an n&#45;sided regular polygon in 2D.">
<polygon fill="#bfbfbf" stroke="black" points="293,-95.5 293,-114.5 400,-114.5 400,-95.5 293,-95.5"/>
<text text-anchor="middle" x="346.5" y="-102.5" font-family="Helvetica,sans-Serif" font-size="10.00">polygon_regular_p</text>
</a>
</g>
</g>
<!-- Node2 -->
<g id="node2" class="node">
<title>Node2</title>
<g id="a_node2"><a xlink:href="group__tools__drafting__primitive.html#ga060910368142d6371cf4f3f30be7561e" target="_top" xlink:title="Draft a line with configurable style and optional arrowheads.">
<polygon fill="white" stroke="black" points="185.5,-285.5 185.5,-304.5 247.5,-304.5 247.5,-285.5 185.5,-285.5"/>
<text text-anchor="middle" x="216.5" y="-292.5" font-family="Helvetica,sans-Serif" font-size="10.00">draft_line</text>
</a>
</g>
</g>
<!-- Node1&#45;&gt;Node2 -->
<g id="edge1" class="edge">
<title>Node1&#45;&gt;Node2</title>
<path fill="none" stroke="midnightblue" d="M333.33,-123.06C306.83,-162.4 244.64,-254.72 224.16,-285.11"/>
<polygon fill="midnightblue" stroke="midnightblue" points="336.29,-124.93 338.98,-114.68 330.49,-121.02 336.29,-124.93"/>
</g>
<!-- Node12 -->
<g id="node12" class="node">
<title>Node12</title>
<g id="a_node12"><a xlink:href="group__shapes__basic__2d.html#ga523675020d361e525669de448e17cfd7" target="_top" xlink:title="An n&#45;sided equiangular/equilateral regular polygon.">
<polygon fill="white" stroke="black" points="196,-114.5 196,-133.5 237,-133.5 237,-114.5 196,-114.5"/>
<text text-anchor="middle" x="216.5" y="-121.5" font-family="Helvetica,sans-Serif" font-size="10.00">ngon</text>
</a>
</g>
</g>
<!-- Node1&#45;&gt;Node12 -->
<g id="edge11" class="edge">
<title>Node1&#45;&gt;Node12</title>
<path fill="none" stroke="midnightblue" d="M282.45,-114.36C265.92,-116.81 249.3,-119.28 237.01,-121.1"/>
<polygon fill="midnightblue" stroke="midnightblue" points="283.32,-117.77 292.7,-112.84 282.29,-110.84 283.32,-117.77"/>
</g>
<!-- Node14 -->
<g id="node14" class="node">
<title>Node14</title>
<g id="a_node14"><a xlink:href="group__shapes__polygon.html#ga1151092c15142c227983e6bd481872b3" target="_top" xlink:title="A n&#45;sided regular polygon with vertex rounding.">
<polygon fill="white" stroke="black" points="187.5,-76.5 187.5,-95.5 245.5,-95.5 245.5,-76.5 187.5,-76.5"/>
<text text-anchor="middle" x="216.5" y="-83.5" font-family="Helvetica,sans-Serif" font-size="10.00">pg_ngon</text>
</a>
</g>
</g>
<!-- Node1&#45;&gt;Node14 -->
<g id="edge13" class="edge">
<title>Node1&#45;&gt;Node14</title>
<path fill="none" stroke="midnightblue" d="M282.79,-95.69C269.78,-93.76 256.69,-91.82 245.68,-90.18"/>
<polygon fill="midnightblue" stroke="midnightblue" points="282.29,-99.16 292.7,-97.16 283.32,-92.23 282.29,-99.16"/>
</g>
<!-- Node15 -->
<g id="node15" class="node">
<title>Node15</title>
<g id="a_node15"><a xlink:href="group__tools__repeat.html#ga543a7c0b4c744d98e6197036da5681fe" target="_top" xlink:title="Distribute copies of a 2d or 3d shape equally about a z&#45;axis radius.">
<polygon fill="white" stroke="black" points="176,-38.5 176,-57.5 257,-57.5 257,-38.5 176,-38.5"/>
<text text-anchor="middle" x="216.5" y="-45.5" font-family="Helvetica,sans-Serif" font-size="10.00">repeat_radial</text>
</a>
</g>
</g>
<!-- Node1&#45;&gt;Node15 -->
<g id="edge14" class="edge">
<title>Node1&#45;&gt;Node15</title>
<path fill="none" stroke="midnightblue" d="M314.92,-91.38C291.5,-80.95 259.79,-66.83 238.99,-57.57"/>
<polygon fill="midnightblue" stroke="midnightblue" points="313.52,-94.59 324.08,-95.46 316.36,-88.19 313.52,-94.59"/>
</g>
<!-- Node3 -->
<g id="node3" class="node">
<title>Node3</title>
<g id="a_node3"><a xlink:href="group__tools__drafting__operation.html#ga4e20419a6d4623f21c05179fc8b6df95" target="_top" xlink:title="Construct drafting sheet axes.">
<polygon fill="white" stroke="black" points="36.5,-456.5 36.5,-475.5 103.5,-475.5 103.5,-456.5 36.5,-456.5"/>
<text text-anchor="middle" x="70" y="-463.5" font-family="Helvetica,sans-Serif" font-size="10.00">draft_axes</text>
</a>
</g>
</g>
<!-- Node2&#45;&gt;Node3 -->
<g id="edge2" class="edge">
<title>Node2&#45;&gt;Node3</title>
<path fill="none" stroke="midnightblue" d="M211.26,-314.56C203.2,-347.04 182.51,-411.97 140,-447 129.84,-455.38 116.26,-460.07 103.84,-462.7"/>
<polygon fill="midnightblue" stroke="midnightblue" points="214.74,-315.06 213.61,-304.53 207.92,-313.47 214.74,-315.06"/>
</g>
<!-- Node4 -->
<g id="node4" class="node">
<title>Node4</title>
<g id="a_node4"><a xlink:href="group__tools__drafting__dimension.html#ga6b8e17d22ac4a95d25a90be8a74c0689" target="_top" xlink:title="Construct a angular dimension arc.">
<polygon fill="white" stroke="black" points="22.5,-418.5 22.5,-437.5 117.5,-437.5 117.5,-418.5 22.5,-418.5"/>
<text text-anchor="middle" x="70" y="-425.5" font-family="Helvetica,sans-Serif" font-size="10.00">draft_dim_angle</text>
</a>
</g>
</g>
<!-- Node2&#45;&gt;Node4 -->
<g id="edge3" class="edge">
<title>Node2&#45;&gt;Node4</title>
<path fill="none" stroke="midnightblue" d="M208.02,-313.97C197,-339.46 173.95,-384.39 140,-409 133.36,-413.81 125.56,-417.41 117.63,-420.09"/>
<polygon fill="midnightblue" stroke="midnightblue" points="211.29,-315.22 211.89,-304.65 204.83,-312.54 211.29,-315.22"/>
</g>
<!-- Node5 -->
<g id="node5" class="node">
<title>Node5</title>
<g id="a_node5"><a xlink:href="group__tools__drafting__dimension.html#ga4866c090b81b437e2f1f707d28ad8ec7" target="_top" xlink:title="Construct a center mark dimension cross.">
<polygon fill="white" stroke="black" points="20.5,-380.5 20.5,-399.5 119.5,-399.5 119.5,-380.5 20.5,-380.5"/>
<text text-anchor="middle" x="70" y="-387.5" font-family="Helvetica,sans-Serif" font-size="10.00">draft_dim_center</text>
</a>
</g>
</g>
<!-- Node2&#45;&gt;Node5 -->
<g id="edge4" class="edge">
<title>Node2&#45;&gt;Node5</title>
<path fill="none" stroke="midnightblue" d="M202.48,-312.68C188.79,-330.02 165.71,-355.98 140,-371 133.35,-374.89 125.87,-378 118.36,-380.5"/>
<polygon fill="midnightblue" stroke="midnightblue" points="205.44,-314.57 208.74,-304.51 199.88,-310.32 205.44,-314.57"/>
</g>
<!-- Node6 -->
<g id="node6" class="node">
<title>Node6</title>
<g id="a_node6"><a xlink:href="group__tools__drafting__dimension.html#ga5c4915c4c4464c5cdaefd501c2de261d" target="_top" xlink:title="Construct a dimension leader line at a point.">
<polygon fill="white" stroke="black" points="20.5,-342.5 20.5,-361.5 119.5,-361.5 119.5,-342.5 20.5,-342.5"/>
<text text-anchor="middle" x="70" y="-349.5" font-family="Helvetica,sans-Serif" font-size="10.00">draft_dim_leader</text>
</a>
</g>
</g>
<!-- Node2&#45;&gt;Node6 -->
<g id="edge5" class="edge">
<title>Node2&#45;&gt;Node6</title>
<path fill="none" stroke="midnightblue" d="M190.05,-309.4C175.67,-317.12 157.19,-326.38 140,-333 130.72,-336.57 120.51,-339.77 110.84,-342.47"/>
<polygon fill="midnightblue" stroke="midnightblue" points="191.75,-312.45 198.84,-304.59 188.39,-306.31 191.75,-312.45"/>
</g>
<!-- Node7 -->
<g id="node7" class="node">
<title>Node7</title>
<g id="a_node7"><a xlink:href="group__tools__drafting__dimension.html#ga27a35e94597435a74e22d76789e9be5e" target="_top" xlink:title="Construct a dimension line between two points.">
<polygon fill="white" stroke="black" points="27,-304.5 27,-323.5 113,-323.5 113,-304.5 27,-304.5"/>
<text text-anchor="middle" x="70" y="-311.5" font-family="Helvetica,sans-Serif" font-size="10.00">draft_dim_line</text>
</a>
</g>
</g>
<!-- Node2&#45;&gt;Node7 -->
<g id="edge6" class="edge">
<title>Node2&#45;&gt;Node7</title>
<path fill="none" stroke="midnightblue" d="M175.18,-300.3C155.82,-302.85 132.62,-305.9 113.03,-308.47"/>
<polygon fill="midnightblue" stroke="midnightblue" points="175.75,-303.76 185.21,-298.98 174.84,-296.82 175.75,-303.76"/>
</g>
<!-- Node8 -->
<g id="node8" class="node">
<title>Node8</title>
<g id="a_node8"><a xlink:href="group__tools__drafting__dimension.html#gaef1a8150a8ef7be88e086fb3dbab64a9" target="_top" xlink:title="Construct a radial dimension line.">
<polygon fill="white" stroke="black" points="21,-266.5 21,-285.5 119,-285.5 119,-266.5 21,-266.5"/>
<text text-anchor="middle" x="70" y="-273.5" font-family="Helvetica,sans-Serif" font-size="10.00">draft_dim_radius</text>
</a>
</g>
</g>
<!-- Node2&#45;&gt;Node8 -->
<g id="edge7" class="edge">
<title>Node2&#45;&gt;Node8</title>
<path fill="none" stroke="midnightblue" d="M174.87,-289.66C157.56,-287.38 137.23,-284.71 119.17,-282.33"/>
<polygon fill="midnightblue" stroke="midnightblue" points="174.84,-293.18 185.21,-291.02 175.75,-286.24 174.84,-293.18"/>
</g>
<!-- Node9 -->
<g id="node9" class="node">
<title>Node9</title>
<g id="a_node9"><a xlink:href="group__tools__drafting__primitive.html#gada1e771ce89ef86b6241c43dc01bf62d" target="_top" xlink:title="Draft a polygon with configurable style.">
<polygon fill="white" stroke="black" points="28.5,-228.5 28.5,-247.5 111.5,-247.5 111.5,-228.5 28.5,-228.5"/>
<text text-anchor="middle" x="70" y="-235.5" font-family="Helvetica,sans-Serif" font-size="10.00">draft_polygon</text>
</a>
</g>
</g>
<!-- Node2&#45;&gt;Node9 -->
<g id="edge8" class="edge">
<title>Node2&#45;&gt;Node9</title>
<path fill="none" stroke="midnightblue" d="M190.05,-280.6C175.67,-272.88 157.19,-263.62 140,-257 130.72,-253.43 120.51,-250.23 110.84,-247.53"/>
<polygon fill="midnightblue" stroke="midnightblue" points="188.39,-283.69 198.84,-285.41 191.75,-277.55 188.39,-283.69"/>
</g>
<!-- Node10 -->
<g id="node10" class="node">
<title>Node10</title>
<g id="a_node10"><a xlink:href="group__tools__drafting__primitive.html#ga20eb57e9d25186784df7428089e3a2ae" target="_top" xlink:title="Draft a rectangle with configurable style.">
<polygon fill="white" stroke="black" points="25,-190.5 25,-209.5 115,-209.5 115,-190.5 25,-190.5"/>
<text text-anchor="middle" x="70" y="-197.5" font-family="Helvetica,sans-Serif" font-size="10.00">draft_rectangle</text>
</a>
</g>
</g>
<!-- Node2&#45;&gt;Node10 -->
<g id="edge9" class="edge">
<title>Node2&#45;&gt;Node10</title>
<path fill="none" stroke="midnightblue" d="M202.48,-277.32C188.79,-259.98 165.71,-234.02 140,-219 132.38,-214.55 123.68,-211.11 115.09,-208.45"/>
<polygon fill="midnightblue" stroke="midnightblue" points="199.88,-279.68 208.74,-285.49 205.44,-275.43 199.88,-279.68"/>
</g>
<!-- Node11 -->
<g id="node11" class="node">
<title>Node11</title>
<g id="a_node11"><a xlink:href="group__tools__drafting__operation.html#ga49aac81a903cd453ea9cadc85e84e414" target="_top" xlink:title="Construct a drafting sheet ruler.">
<polygon fill="white" stroke="black" points="36.5,-152.5 36.5,-171.5 103.5,-171.5 103.5,-152.5 36.5,-152.5"/>
<text text-anchor="middle" x="70" y="-159.5" font-family="Helvetica,sans-Serif" font-size="10.00">draft_ruler</text>
</a>
</g>
</g>
<!-- Node2&#45;&gt;Node11 -->
<g id="edge10" class="edge">
<title>Node2&#45;&gt;Node11</title>
<path fill="none" stroke="midnightblue" d="M208.02,-276.03C197,-250.54 173.95,-205.61 140,-181 129.44,-173.34 115.93,-168.77 103.67,-166.04"/>
<polygon fill="midnightblue" stroke="midnightblue" points="204.83,-277.46 211.89,-285.35 211.29,-274.78 204.83,-277.46"/>
</g>
<!-- Node13 -->
<g id="node13" class="node">
<title>Node13</title>
<g id="a_node13"><a xlink:href="group__parts__3d__computer__pci__bracket.html#gaf56631cf80d8e5f0b77736b17b94ecd9" target="_top" xlink:title="PCI slot cover and adapter card bracket generator.">
<polygon fill="white" stroke="black" points="34,-114.5 34,-133.5 106,-133.5 106,-114.5 34,-114.5"/>
<text text-anchor="middle" x="70" y="-121.5" font-family="Helvetica,sans-Serif" font-size="10.00">pci_bracket</text>
</a>
</g>
</g>
<!-- Node12&#45;&gt;Node13 -->
<g id="edge12" class="edge">
<title>Node12&#45;&gt;Node13</title>
<path fill="none" stroke="midnightblue" d="M185.46,-124C162.35,-124 130.36,-124 106.08,-124"/>
<polygon fill="midnightblue" stroke="midnightblue" points="185.71,-127.5 195.71,-124 185.71,-120.5 185.71,-127.5"/>
</g>
<!-- Node16 -->
<g id="node16" class="node">
<title>Node16</title>
<g id="a_node16"><a xlink:href="group__parts__3d__bearing__bearing__linear__rod.html#ga48399d5e708b4894494c69b2d1e88e26" target="_top" xlink:title="Transform 2d or 3d shape into a linear rod ball or sled bearing.">
<polygon fill="white" stroke="black" points="0,-76.5 0,-95.5 140,-95.5 140,-76.5 0,-76.5"/>
<text text-anchor="middle" x="70" y="-83.5" font-family="Helvetica,sans-Serif" font-size="10.00">make_bearing_linear_rod</text>
</a>
</g>
</g>
<!-- Node15&#45;&gt;Node16 -->
<g id="edge15" class="edge">
<title>Node15&#45;&gt;Node16</title>
<path fill="none" stroke="midnightblue" d="M169.17,-60.18C149.11,-65.46 125.97,-71.54 107.2,-76.48"/>
<polygon fill="midnightblue" stroke="midnightblue" points="170.26,-63.52 179.04,-57.59 168.48,-56.75 170.26,-63.52"/>
</g>
<!-- Node17 -->
<g id="node17" class="node">
<title>Node17</title>
<g id="a_node17"><a xlink:href="group__shapes__basic__2d.html#ga7452bf5414a3677ec806a31aed6b61dd" target="_top" xlink:title="A two&#45;dimensional star.">
<polygon fill="white" stroke="black" points="46.5,-38.5 46.5,-57.5 93.5,-57.5 93.5,-38.5 46.5,-38.5"/>
<text text-anchor="middle" x="70" y="-45.5" font-family="Helvetica,sans-Serif" font-size="10.00">star2d</text>
</a>
</g>
</g>
<!-- Node15&#45;&gt;Node17 -->
<g id="edge16" class="edge">
<title>Node15&#45;&gt;Node17</title>
<path fill="none" stroke="midnightblue" d="M165.43,-48C141,-48 112.83,-48 93.66,-48"/>
<polygon fill="midnightblue" stroke="midnightblue" points="165.63,-51.5 175.63,-48 165.63,-44.5 165.63,-51.5"/>
</g>
<!-- Node18 -->
<g id="node18" class="node">
<title>Node18</title>
<g id="a_node18"><a xlink:href="group__shapes__basic__3d.html#gab99dacd3036b965579d68b1d3b7ee2d8" target="_top" xlink:title="A three&#45;dimensional star.">
<polygon fill="white" stroke="black" points="46.5,-0.5 46.5,-19.5 93.5,-19.5 93.5,-0.5 46.5,-0.5"/>
<text text-anchor="middle" x="70" y="-7.5" font-family="Helvetica,sans-Serif" font-size="10.00">star3d</text>
</a>
</g>
</g>
<!-- Node15&#45;&gt;Node18 -->
<g id="edge17" class="edge">
<title>Node15&#45;&gt;Node18</title>
<path fill="none" stroke="midnightblue" d="M169.3,-35.85C144.13,-29.23 114.09,-21.33 93.9,-16.02"/>
<polygon fill="midnightblue" stroke="midnightblue" points="168.48,-39.25 179.04,-38.41 170.26,-32.48 168.48,-39.25"/>
</g>
</g>
</svg>
