<?xml version="1.0" encoding="UTF-8" standalone="no"?>
<!DOCTYPE svg PUBLIC "-//W3C//DTD SVG 1.1//EN"
 "http://www.w3.org/Graphics/SVG/1.1/DTD/svg11.dtd">
<!-- Generated by graphviz version 2.43.0 (0)
 -->
<!-- Title: draft_line_pp Pages: 1 -->
<svg width="429pt" height="332pt"
 viewBox="0.00 0.00 429.00 332.00" xmlns="http://www.w3.org/2000/svg" xmlns:xlink="http://www.w3.org/1999/xlink">
<g id="graph0" class="graph" transform="scale(1 1) rotate(0) translate(4 328)">
<title>draft_line_pp</title>
<polygon fill="white" stroke="transparent" points="-4,4 -4,-328 425,-328 425,4 -4,4"/>
<!-- Node1 -->
<g id="node1" class="node">
<title>Node1</title>
<g id="a_node1"><a xlink:title="Draft a simple line from an initial to a terminal point.">
<polygon fill="#bfbfbf" stroke="black" points="341,-209.5 341,-228.5 421,-228.5 421,-209.5 341,-209.5"/>
<text text-anchor="middle" x="381" y="-216.5" font-family="Helvetica,sans-Serif" font-size="10.00">draft_line_pp</text>
</a>
</g>
</g>
<!-- Node2 -->
<g id="node2" class="node">
<title>Node2</title>
<g id="a_node2"><a xlink:href="group__tools__drafting__primitive.html#gaeb2a388d77f8e435b02c4235e7791eda" target="_top" xlink:title="Draft an arc with configurable style and optional arrowheads.">
<polygon fill="white" stroke="black" points="136.5,-247.5 136.5,-266.5 195.5,-266.5 195.5,-247.5 136.5,-247.5"/>
<text text-anchor="middle" x="166" y="-254.5" font-family="Helvetica,sans-Serif" font-size="10.00">draft_arc</text>
</a>
</g>
</g>
<!-- Node1&#45;&gt;Node2 -->
<g id="edge1" class="edge">
<title>Node1&#45;&gt;Node2</title>
<path fill="none" stroke="midnightblue" d="M335.97,-231.03C325.84,-233.55 315.09,-236.03 305,-238 267.49,-245.31 223.72,-250.83 195.7,-253.99"/>
<polygon fill="midnightblue" stroke="midnightblue" points="337.01,-234.37 345.83,-228.51 335.28,-227.59 337.01,-234.37"/>
</g>
<!-- Node4 -->
<g id="node4" class="node">
<title>Node4</title>
<g id="a_node4"><a xlink:href="group__tools__drafting__primitive.html#ga6f12ccd4c9de0a8ab887184911f39c8f" target="_top" xlink:title="Draft an arrowhead at the terminal point of a line.">
<polygon fill="white" stroke="black" points="233,-209.5 233,-228.5 305,-228.5 305,-209.5 233,-209.5"/>
<text text-anchor="middle" x="269" y="-216.5" font-family="Helvetica,sans-Serif" font-size="10.00">draft_arrow</text>
</a>
</g>
</g>
<!-- Node1&#45;&gt;Node4 -->
<g id="edge3" class="edge">
<title>Node1&#45;&gt;Node4</title>
<path fill="none" stroke="midnightblue" d="M330.64,-219C322.1,-219 313.37,-219 305.3,-219"/>
<polygon fill="midnightblue" stroke="midnightblue" points="330.91,-222.5 340.91,-219 330.91,-215.5 330.91,-222.5"/>
</g>
<!-- Node5 -->
<g id="node5" class="node">
<title>Node5</title>
<g id="a_node5"><a xlink:href="group__tools__drafting__primitive.html#ga060910368142d6371cf4f3f30be7561e" target="_top" xlink:title="Draft a line with configurable style and optional arrowheads.">
<polygon fill="white" stroke="black" points="135,-171.5 135,-190.5 197,-190.5 197,-171.5 135,-171.5"/>
<text text-anchor="middle" x="166" y="-178.5" font-family="Helvetica,sans-Serif" font-size="10.00">draft_line</text>
</a>
</g>
</g>
<!-- Node1&#45;&gt;Node5 -->
<g id="edge15" class="edge">
<title>Node1&#45;&gt;Node5</title>
<path fill="none" stroke="midnightblue" d="M335.97,-206.97C325.84,-204.45 315.09,-201.97 305,-200 268.09,-192.81 225.1,-187.34 197.04,-184.16"/>
<polygon fill="midnightblue" stroke="midnightblue" points="335.28,-210.41 345.83,-209.49 337.01,-203.63 335.28,-210.41"/>
</g>
<!-- Node3 -->
<g id="node3" class="node">
<title>Node3</title>
<g id="a_node3"><a xlink:href="group__tools__drafting__dimension.html#ga6b8e17d22ac4a95d25a90be8a74c0689" target="_top" xlink:title="Construct a angular dimension arc.">
<polygon fill="white" stroke="black" points="2,-304.5 2,-323.5 97,-323.5 97,-304.5 2,-304.5"/>
<text text-anchor="middle" x="49.5" y="-311.5" font-family="Helvetica,sans-Serif" font-size="10.00">draft_dim_angle</text>
</a>
</g>
</g>
<!-- Node2&#45;&gt;Node3 -->
<g id="edge2" class="edge">
<title>Node2&#45;&gt;Node3</title>
<path fill="none" stroke="midnightblue" d="M141.12,-271.9C128.78,-279.3 113.34,-288.11 99,-295 91.99,-298.37 84.22,-301.62 76.98,-304.45"/>
<polygon fill="midnightblue" stroke="midnightblue" points="143.16,-274.76 149.88,-266.57 139.52,-268.78 143.16,-274.76"/>
</g>
<!-- Node4&#45;&gt;Node2 -->
<g id="edge4" class="edge">
<title>Node4&#45;&gt;Node2</title>
<path fill="none" stroke="midnightblue" d="M233.13,-232.12C219.78,-237.14 204.8,-242.78 192.48,-247.41"/>
<polygon fill="midnightblue" stroke="midnightblue" points="234.39,-235.39 242.51,-228.59 231.92,-228.83 234.39,-235.39"/>
</g>
<!-- Node4&#45;&gt;Node5 -->
<g id="edge5" class="edge">
<title>Node4&#45;&gt;Node5</title>
<path fill="none" stroke="midnightblue" d="M233.13,-205.88C219.78,-200.86 204.8,-195.22 192.48,-190.59"/>
<polygon fill="midnightblue" stroke="midnightblue" points="231.92,-209.17 242.51,-209.41 234.39,-202.61 231.92,-209.17"/>
</g>
<!-- Node5&#45;&gt;Node3 -->
<g id="edge7" class="edge">
<title>Node5&#45;&gt;Node3</title>
<path fill="none" stroke="midnightblue" d="M155.15,-199.53C138.82,-229.99 107.14,-288.01 99,-295 94.54,-298.83 89.22,-301.94 83.76,-304.45"/>
<polygon fill="midnightblue" stroke="midnightblue" points="158.24,-201.17 159.86,-190.7 152.06,-197.88 158.24,-201.17"/>
</g>
<!-- Node6 -->
<g id="node6" class="node">
<title>Node6</title>
<g id="a_node6"><a xlink:href="group__tools__drafting__operation.html#ga4e20419a6d4623f21c05179fc8b6df95" target="_top" xlink:title="Construct drafting sheet axes.">
<polygon fill="white" stroke="black" points="16,-266.5 16,-285.5 83,-285.5 83,-266.5 16,-266.5"/>
<text text-anchor="middle" x="49.5" y="-273.5" font-family="Helvetica,sans-Serif" font-size="10.00">draft_axes</text>
</a>
</g>
</g>
<!-- Node5&#45;&gt;Node6 -->
<g id="edge6" class="edge">
<title>Node5&#45;&gt;Node6</title>
<path fill="none" stroke="midnightblue" d="M153.07,-199.23C141.15,-216.2 121.41,-241.19 99,-257 93.68,-260.75 87.52,-263.9 81.4,-266.48"/>
<polygon fill="midnightblue" stroke="midnightblue" points="156.11,-200.97 158.85,-190.74 150.33,-197.03 156.11,-200.97"/>
</g>
<!-- Node7 -->
<g id="node7" class="node">
<title>Node7</title>
<g id="a_node7"><a xlink:href="group__tools__drafting__dimension.html#ga4866c090b81b437e2f1f707d28ad8ec7" target="_top" xlink:title="Construct a center mark dimension cross.">
<polygon fill="white" stroke="black" points="0,-228.5 0,-247.5 99,-247.5 99,-228.5 0,-228.5"/>
<text text-anchor="middle" x="49.5" y="-235.5" font-family="Helvetica,sans-Serif" font-size="10.00">draft_dim_center</text>
</a>
</g>
</g>
<!-- Node5&#45;&gt;Node7 -->
<g id="edge8" class="edge">
<title>Node5&#45;&gt;Node7</title>
<path fill="none" stroke="midnightblue" d="M141.12,-195.9C128.78,-203.3 113.34,-212.11 99,-219 91.99,-222.37 84.22,-225.62 76.98,-228.45"/>
<polygon fill="midnightblue" stroke="midnightblue" points="143.16,-198.76 149.88,-190.57 139.52,-192.78 143.16,-198.76"/>
</g>
<!-- Node8 -->
<g id="node8" class="node">
<title>Node8</title>
<g id="a_node8"><a xlink:href="group__tools__drafting__dimension.html#ga5c4915c4c4464c5cdaefd501c2de261d" target="_top" xlink:title="Construct a dimension leader line at a point.">
<polygon fill="white" stroke="black" points="0,-190.5 0,-209.5 99,-209.5 99,-190.5 0,-190.5"/>
<text text-anchor="middle" x="49.5" y="-197.5" font-family="Helvetica,sans-Serif" font-size="10.00">draft_dim_leader</text>
</a>
</g>
</g>
<!-- Node5&#45;&gt;Node8 -->
<g id="edge9" class="edge">
<title>Node5&#45;&gt;Node8</title>
<path fill="none" stroke="midnightblue" d="M124.85,-187.66C116.63,-189.03 107.9,-190.47 99.42,-191.88"/>
<polygon fill="midnightblue" stroke="midnightblue" points="125.62,-191.08 134.92,-185.99 124.48,-184.18 125.62,-191.08"/>
</g>
<!-- Node9 -->
<g id="node9" class="node">
<title>Node9</title>
<g id="a_node9"><a xlink:href="group__tools__drafting__dimension.html#ga27a35e94597435a74e22d76789e9be5e" target="_top" xlink:title="Construct a dimension line between two points.">
<polygon fill="white" stroke="black" points="6.5,-152.5 6.5,-171.5 92.5,-171.5 92.5,-152.5 6.5,-152.5"/>
<text text-anchor="middle" x="49.5" y="-159.5" font-family="Helvetica,sans-Serif" font-size="10.00">draft_dim_line</text>
</a>
</g>
</g>
<!-- Node5&#45;&gt;Node9 -->
<g id="edge10" class="edge">
<title>Node5&#45;&gt;Node9</title>
<path fill="none" stroke="midnightblue" d="M124.89,-174.34C114.53,-172.62 103.34,-170.77 92.87,-169.03"/>
<polygon fill="midnightblue" stroke="midnightblue" points="124.48,-177.82 134.92,-176.01 125.62,-170.92 124.48,-177.82"/>
</g>
<!-- Node10 -->
<g id="node10" class="node">
<title>Node10</title>
<g id="a_node10"><a xlink:href="group__tools__drafting__dimension.html#gaef1a8150a8ef7be88e086fb3dbab64a9" target="_top" xlink:title="Construct a radial dimension line.">
<polygon fill="white" stroke="black" points="0.5,-114.5 0.5,-133.5 98.5,-133.5 98.5,-114.5 0.5,-114.5"/>
<text text-anchor="middle" x="49.5" y="-121.5" font-family="Helvetica,sans-Serif" font-size="10.00">draft_dim_radius</text>
</a>
</g>
</g>
<!-- Node5&#45;&gt;Node10 -->
<g id="edge11" class="edge">
<title>Node5&#45;&gt;Node10</title>
<path fill="none" stroke="midnightblue" d="M141.12,-166.1C128.78,-158.7 113.34,-149.89 99,-143 91.99,-139.63 84.22,-136.38 76.98,-133.55"/>
<polygon fill="midnightblue" stroke="midnightblue" points="139.52,-169.22 149.88,-171.43 143.16,-163.24 139.52,-169.22"/>
</g>
<!-- Node11 -->
<g id="node11" class="node">
<title>Node11</title>
<g id="a_node11"><a xlink:href="group__tools__drafting__primitive.html#gada1e771ce89ef86b6241c43dc01bf62d" target="_top" xlink:title="Draft a polygon with configurable style.">
<polygon fill="white" stroke="black" points="8,-76.5 8,-95.5 91,-95.5 91,-76.5 8,-76.5"/>
<text text-anchor="middle" x="49.5" y="-83.5" font-family="Helvetica,sans-Serif" font-size="10.00">draft_polygon</text>
</a>
</g>
</g>
<!-- Node5&#45;&gt;Node11 -->
<g id="edge12" class="edge">
<title>Node5&#45;&gt;Node11</title>
<path fill="none" stroke="midnightblue" d="M153.07,-162.77C141.15,-145.8 121.41,-120.81 99,-105 93.68,-101.25 87.52,-98.1 81.4,-95.52"/>
<polygon fill="midnightblue" stroke="midnightblue" points="150.33,-164.97 158.85,-171.26 156.11,-161.03 150.33,-164.97"/>
</g>
<!-- Node12 -->
<g id="node12" class="node">
<title>Node12</title>
<g id="a_node12"><a xlink:href="group__tools__drafting__primitive.html#ga20eb57e9d25186784df7428089e3a2ae" target="_top" xlink:title="Draft a rectangle with configurable style.">
<polygon fill="white" stroke="black" points="4.5,-38.5 4.5,-57.5 94.5,-57.5 94.5,-38.5 4.5,-38.5"/>
<text text-anchor="middle" x="49.5" y="-45.5" font-family="Helvetica,sans-Serif" font-size="10.00">draft_rectangle</text>
</a>
</g>
</g>
<!-- Node5&#45;&gt;Node12 -->
<g id="edge13" class="edge">
<title>Node5&#45;&gt;Node12</title>
<path fill="none" stroke="midnightblue" d="M158.48,-161.82C149.05,-136.77 129.36,-93.08 99,-67 94.54,-63.17 89.22,-60.06 83.76,-57.55"/>
<polygon fill="midnightblue" stroke="midnightblue" points="155.21,-163.07 161.89,-171.3 161.8,-160.71 155.21,-163.07"/>
</g>
<!-- Node13 -->
<g id="node13" class="node">
<title>Node13</title>
<g id="a_node13"><a xlink:href="group__tools__drafting__operation.html#ga49aac81a903cd453ea9cadc85e84e414" target="_top" xlink:title="Construct a drafting sheet ruler.">
<polygon fill="white" stroke="black" points="16,-0.5 16,-19.5 83,-19.5 83,-0.5 16,-0.5"/>
<text text-anchor="middle" x="49.5" y="-7.5" font-family="Helvetica,sans-Serif" font-size="10.00">draft_ruler</text>
</a>
</g>
</g>
<!-- Node5&#45;&gt;Node13 -->
<g id="edge14" class="edge">
<title>Node5&#45;&gt;Node13</title>
<path fill="none" stroke="midnightblue" d="M161.54,-161.48C154.92,-129.6 137.53,-66.16 99,-29 94.51,-24.67 88.91,-21.29 83.14,-18.67"/>
<polygon fill="midnightblue" stroke="midnightblue" points="158.11,-162.2 163.45,-171.35 164.99,-160.87 158.11,-162.2"/>
</g>
</g>
</svg>
