<?xml version="1.0" encoding="UTF-8" standalone="no"?>
<!DOCTYPE svg PUBLIC "-//W3C//DTD SVG 1.1//EN"
 "http://www.w3.org/Graphics/SVG/1.1/DTD/svg11.dtd">
<!-- Generated by graphviz version 2.43.0 (0)
 -->
<!-- Title: pg_triangle_aas Pages: 1 -->
<svg width="425pt" height="180pt"
 viewBox="0.00 0.00 425.00 180.00" xmlns="http://www.w3.org/2000/svg" xmlns:xlink="http://www.w3.org/1999/xlink">
<g id="graph0" class="graph" transform="scale(1 1) rotate(0) translate(4 176)">
<title>pg_triangle_aas</title>
<polygon fill="white" stroke="transparent" points="-4,4 -4,-176 421,-176 421,4 -4,4"/>
<!-- Node1 -->
<g id="node1" class="node">
<title>Node1</title>
<g id="a_node1"><a xlink:title="A polygon triangle specified by angle&#45;angle&#45;size with vertex rounding.">
<polygon fill="#bfbfbf" stroke="black" points="0,-38.5 0,-57.5 94,-57.5 94,-38.5 0,-38.5"/>
<text text-anchor="middle" x="47" y="-45.5" font-family="Helvetica,sans-Serif" font-size="10.00">pg_triangle_aas</text>
</a>
</g>
</g>
<!-- Node2 -->
<g id="node2" class="node">
<title>Node2</title>
<g id="a_node2"><a xlink:href="group__shapes__polygon.html#gac7e2c70b3428b729efd86a675df794e6" target="_top" xlink:title="A polygon triangle specified by three coordinate points with vertex rounding.">
<polygon fill="white" stroke="black" points="138,-76.5 138,-95.5 233,-95.5 233,-76.5 138,-76.5"/>
<text text-anchor="middle" x="185.5" y="-83.5" font-family="Helvetica,sans-Serif" font-size="10.00">pg_triangle_ppp</text>
</a>
</g>
</g>
<!-- Node1&#45;&gt;Node2 -->
<g id="edge1" class="edge">
<title>Node1&#45;&gt;Node2</title>
<path fill="none" stroke="midnightblue" d="M82.44,-57.59C99.98,-62.47 121.51,-68.46 140.26,-73.68"/>
<polygon fill="midnightblue" stroke="midnightblue" points="139.49,-77.1 150.07,-76.41 141.37,-70.36 139.49,-77.1"/>
</g>
<!-- Node8 -->
<g id="node8" class="node">
<title>Node8</title>
<g id="a_node8"><a xlink:href="group__math__triangle.html#gaab9b812d15418fd05c9d93f3bfcc1989" target="_top" xlink:title="Compute a set of vertex coordinates for a triangle given its side lengths in 2D.">
<polygon fill="white" stroke="black" points="130,-38.5 130,-57.5 241,-57.5 241,-38.5 130,-38.5"/>
<text text-anchor="middle" x="185.5" y="-45.5" font-family="Helvetica,sans-Serif" font-size="10.00">triangle2d_sss2ppp</text>
</a>
</g>
</g>
<!-- Node1&#45;&gt;Node8 -->
<g id="edge7" class="edge">
<title>Node1&#45;&gt;Node8</title>
<path fill="none" stroke="midnightblue" d="M94.21,-48C102.44,-48 111.15,-48 119.78,-48"/>
<polygon fill="midnightblue" stroke="midnightblue" points="119.84,-51.5 129.84,-48 119.84,-44.5 119.84,-51.5"/>
</g>
<!-- Node9 -->
<g id="node9" class="node">
<title>Node9</title>
<g id="a_node9"><a xlink:href="group__math__triangle.html#ga59cbd483bc1979572345a226fe0506e3" target="_top" xlink:title="Compute the side lengths of a triangle given a side, one adjacent and the opposite angle.">
<polygon fill="white" stroke="black" points="136.5,-0.5 136.5,-19.5 234.5,-19.5 234.5,-0.5 136.5,-0.5"/>
<text text-anchor="middle" x="185.5" y="-7.5" font-family="Helvetica,sans-Serif" font-size="10.00">triangle_aas2sss</text>
</a>
</g>
</g>
<!-- Node1&#45;&gt;Node9 -->
<g id="edge8" class="edge">
<title>Node1&#45;&gt;Node9</title>
<path fill="none" stroke="midnightblue" d="M82.44,-38.41C99.98,-33.53 121.51,-27.54 140.26,-22.32"/>
<polygon fill="midnightblue" stroke="midnightblue" points="141.37,-25.64 150.07,-19.59 139.49,-18.9 141.37,-25.64"/>
</g>
<!-- Node3 -->
<g id="node3" class="node">
<title>Node3</title>
<g id="a_node3"><a xlink:href="group__math__polygon.html#ga7a0eff64929a142fc507615f83e3bd58" target="_top" xlink:title="Compute coordinates that round all of the vertices between each adjacent edges in 2D.">
<polygon fill="white" stroke="black" points="277,-152.5 277,-171.5 417,-171.5 417,-152.5 277,-152.5"/>
<text text-anchor="middle" x="347" y="-159.5" font-family="Helvetica,sans-Serif" font-size="10.00">polygon_round_eve_all_p</text>
</a>
</g>
</g>
<!-- Node2&#45;&gt;Node3 -->
<g id="edge2" class="edge">
<title>Node2&#45;&gt;Node3</title>
<path fill="none" stroke="midnightblue" d="M199.02,-95.57C215.89,-108.07 247.27,-129.89 277,-143 282.39,-145.38 288.15,-147.53 293.96,-149.45"/>
<polygon fill="midnightblue" stroke="midnightblue" points="293.13,-152.86 303.72,-152.47 295.2,-146.17 293.13,-152.86"/>
</g>
<!-- Node4 -->
<g id="node4" class="node">
<title>Node4</title>
<g id="a_node4"><a xlink:href="group__math__linear__algebra.html#gaeabe74699fd0a437bad9a1d442bfd111" target="_top" xlink:title="Translate all coordinates dimensions.">
<polygon fill="white" stroke="black" points="311.5,-114.5 311.5,-133.5 382.5,-133.5 382.5,-114.5 311.5,-114.5"/>
<text text-anchor="middle" x="347" y="-121.5" font-family="Helvetica,sans-Serif" font-size="10.00">translate_p</text>
</a>
</g>
</g>
<!-- Node2&#45;&gt;Node4 -->
<g id="edge3" class="edge">
<title>Node2&#45;&gt;Node4</title>
<path fill="none" stroke="midnightblue" d="M226.75,-95.59C249.5,-101.01 277.99,-107.8 301.41,-113.38"/>
<polygon fill="midnightblue" stroke="midnightblue" points="300.91,-116.85 311.45,-115.77 302.53,-110.05 300.91,-116.85"/>
</g>
<!-- Node5 -->
<g id="node5" class="node">
<title>Node5</title>
<g id="a_node5"><a xlink:href="group__math__triangle.html#gac0d11ca2c5035a9e53c1144f3774b0b4" target="_top" xlink:title="Compute the center coordinate of a triangle&#39;s incircle in 2D.">
<polygon fill="white" stroke="black" points="291.5,-76.5 291.5,-95.5 402.5,-95.5 402.5,-76.5 291.5,-76.5"/>
<text text-anchor="middle" x="347" y="-83.5" font-family="Helvetica,sans-Serif" font-size="10.00">triangle2d_incenter</text>
</a>
</g>
</g>
<!-- Node2&#45;&gt;Node5 -->
<g id="edge4" class="edge">
<title>Node2&#45;&gt;Node5</title>
<path fill="none" stroke="midnightblue" d="M233.06,-86C248.07,-86 264.99,-86 281.08,-86"/>
<polygon fill="midnightblue" stroke="midnightblue" points="281.5,-89.5 291.5,-86 281.5,-82.5 281.5,-89.5"/>
</g>
<!-- Node6 -->
<g id="node6" class="node">
<title>Node6</title>
<g id="a_node6"><a xlink:href="group__math__triangle.html#ga51e8d8c2004f859d216790f7966b7dfd" target="_top" xlink:title="Compute the centroid of a triangle.">
<polygon fill="white" stroke="black" points="297.5,-38.5 297.5,-57.5 396.5,-57.5 396.5,-38.5 297.5,-38.5"/>
<text text-anchor="middle" x="347" y="-45.5" font-family="Helvetica,sans-Serif" font-size="10.00">triangle_centroid</text>
</a>
</g>
</g>
<!-- Node2&#45;&gt;Node6 -->
<g id="edge5" class="edge">
<title>Node2&#45;&gt;Node6</title>
<path fill="none" stroke="midnightblue" d="M226.75,-76.41C247.8,-71.4 273.76,-65.21 296.07,-59.89"/>
<polygon fill="midnightblue" stroke="midnightblue" points="297.12,-63.24 306.04,-57.52 295.5,-56.43 297.12,-63.24"/>
</g>
<!-- Node7 -->
<g id="node7" class="node">
<title>Node7</title>
<g id="a_node7"><a xlink:href="group__math__triangle.html#ga5cf2801b07faec68a51ac3cd901bc4b0" target="_top" xlink:title="Compute the coordinate of a triangle&#39;s circumcenter.">
<polygon fill="white" stroke="black" points="285.5,-0.5 285.5,-19.5 408.5,-19.5 408.5,-0.5 285.5,-0.5"/>
<text text-anchor="middle" x="347" y="-7.5" font-family="Helvetica,sans-Serif" font-size="10.00">triangle_circumcenter</text>
</a>
</g>
</g>
<!-- Node2&#45;&gt;Node7 -->
<g id="edge6" class="edge">
<title>Node2&#45;&gt;Node7</title>
<path fill="none" stroke="midnightblue" d="M221.96,-76.41C228.56,-73.86 235.19,-70.75 241,-67 260.54,-54.37 257.05,-40.97 277,-29 280.6,-26.84 284.44,-24.92 288.41,-23.22"/>
<polygon fill="midnightblue" stroke="midnightblue" points="289.75,-26.45 297.83,-19.61 287.24,-19.92 289.75,-26.45"/>
</g>
</g>
</svg>
