<?xml version="1.0" encoding="UTF-8" standalone="no"?>
<!DOCTYPE svg PUBLIC "-//W3C//DTD SVG 1.1//EN"
 "http://www.w3.org/Graphics/SVG/1.1/DTD/svg11.dtd">
<!-- Generated by graphviz version 2.43.0 (0)
 -->
<!-- Title: ISO 8677 Pages: 1 -->
<svg width="310pt" height="29pt"
 viewBox="0.00 0.00 310.00 28.50" xmlns="http://www.w3.org/2000/svg" xmlns:xlink="http://www.w3.org/1999/xlink">
<g id="graph0" class="graph" transform="scale(1 1) rotate(0) translate(4 24.5)">
<title>ISO 8677</title>
<polygon fill="white" stroke="transparent" points="-4,4 -4,-24.5 306,-24.5 306,4 -4,4"/>
<!-- Node2 -->
<g id="node1" class="node">
<title>Node2</title>
<g id="a_node1"><a xlink:href="group__database__component__fastener__Metric__Bolts.html" target="_top" xlink:title=" ">
<polygon fill="white" stroke="black" points="41,-19 0,-19 0,0 41,0 41,-19"/>
<text text-anchor="middle" x="20.5" y="-7" font-family="Helvetica,sans-Serif" font-size="10.00">Bolts</text>
</a>
</g>
</g>
<!-- Node1 -->
<g id="node2" class="node">
<title>Node1</title>
<g id="a_node2"><a xlink:title="[metric/bolts] Carriage bolts; ISO 8677; DIN 603.">
<polygon fill="#bfbfbf" stroke="black" points="138,-19 78,-19 78,0 138,0 138,-19"/>
<text text-anchor="middle" x="108" y="-7" font-family="Helvetica,sans-Serif" font-size="10.00">ISO 8677</text>
</a>
</g>
</g>
<!-- Node2&#45;&gt;Node1 -->
<g id="edge1" class="edge">
<title>Node2&#45;&gt;Node1</title>
<path fill="none" stroke="black" d="M51.34,-9.5C59.94,-9.5 69.31,-9.5 77.87,-9.5"/>
<polygon fill="black" stroke="black" points="51.33,-6 41.33,-9.5 51.33,-13 51.33,-6"/>
</g>
<!-- Node3 -->
<g id="node3" class="node">
<title>Node3</title>
<g id="a_node3"><a xlink:href="group__database__component__fastener.html" target="_top" xlink:title="Mechanical fastener specifications.">
<polygon fill="white" stroke="black" points="302,-19 244,-19 244,0 302,0 302,-19"/>
<text text-anchor="middle" x="273" y="-7" font-family="Helvetica,sans-Serif" font-size="10.00">Fastener</text>
</a>
</g>
</g>
<!-- Node1&#45;&gt;Node3 -->
<g id="edge2" class="edge">
<title>Node1&#45;&gt;Node3</title>
<path fill="none" stroke="darkgreen" stroke-dasharray="5,2" d="M138.14,-9.5C168.08,-9.5 214.38,-9.5 243.93,-9.5"/>
<text text-anchor="middle" x="191" y="-12.5" font-family="Helvetica,sans-Serif" font-size="10.00">iso_8677.scad</text>
</g>
</g>
</svg>
