<?xml version="1.0" encoding="UTF-8" standalone="no"?>
<!DOCTYPE svg PUBLIC "-//W3C//DTD SVG 1.1//EN"
 "http://www.w3.org/Graphics/SVG/1.1/DTD/svg11.dtd">
<!-- Generated by graphviz version 2.43.0 (0)
 -->
<!-- Title: draft_dim_leader Pages: 1 -->
<svg width="794pt" height="1006pt"
 viewBox="0.00 0.00 794.00 1006.00" xmlns="http://www.w3.org/2000/svg" xmlns:xlink="http://www.w3.org/1999/xlink">
<g id="graph0" class="graph" transform="scale(1 1) rotate(0) translate(4 1002)">
<title>draft_dim_leader</title>
<polygon fill="white" stroke="transparent" points="-4,4 -4,-1002 790,-1002 790,4 -4,4"/>
<!-- Node1 -->
<g id="node1" class="node">
<title>Node1</title>
<g id="a_node1"><a xlink:title="Construct a dimension leader line at a point.">
<polygon fill="#bfbfbf" stroke="black" points="0,-323.5 0,-342.5 99,-342.5 99,-323.5 0,-323.5"/>
<text text-anchor="middle" x="49.5" y="-330.5" font-family="Helvetica,sans-Serif" font-size="10.00">draft_dim_leader</text>
</a>
</g>
</g>
<!-- Node2 -->
<g id="node2" class="node">
<title>Node2</title>
<g id="a_node2"><a xlink:href="group__datatypes__euclidean.html#ga3d5c07c70f271bcf9144f50ce8620a89" target="_top" xlink:title="Compute the angle between two lines or vectors in a 3d or 2d&#45;space.">
<polygon fill="white" stroke="black" points="718.5,-921.5 718.5,-940.5 773.5,-940.5 773.5,-921.5 718.5,-921.5"/>
<text text-anchor="middle" x="746" y="-928.5" font-family="Helvetica,sans-Serif" font-size="10.00">angle_ll</text>
</a>
</g>
</g>
<!-- Node1&#45;&gt;Node2 -->
<g id="edge1" class="edge">
<title>Node1&#45;&gt;Node2</title>
<path fill="none" stroke="midnightblue" d="M51.77,-342.66C62.82,-424.43 145.52,-998 291.5,-998 291.5,-998 291.5,-998 461.5,-998 555.46,-998 579.82,-989.4 670,-963 685.85,-958.36 702.83,-951.3 716.62,-944.99"/>
<polygon fill="midnightblue" stroke="midnightblue" points="718.47,-947.99 726.04,-940.58 715.5,-941.66 718.47,-947.99"/>
</g>
<!-- Node3 -->
<g id="node3" class="node">
<title>Node3</title>
<g id="a_node3"><a xlink:href="group__datatypes__scalar__operate.html#gac119300e8c83de0037f2d0a4d9f0ab5c" target="_top" xlink:title="Return given value, if defined, or a secondary value, if primary is not defined.">
<polygon fill="white" stroke="black" points="258.5,-266.5 258.5,-285.5 326.5,-285.5 326.5,-266.5 258.5,-266.5"/>
<text text-anchor="middle" x="292.5" y="-273.5" font-family="Helvetica,sans-Serif" font-size="10.00">defined_or</text>
</a>
</g>
</g>
<!-- Node1&#45;&gt;Node3 -->
<g id="edge2" class="edge">
<title>Node1&#45;&gt;Node3</title>
<path fill="none" stroke="midnightblue" d="M71.25,-323.41C88.1,-315.99 112.64,-306 135,-300 172.57,-289.92 216.42,-283.65 248.13,-280.06"/>
<polygon fill="midnightblue" stroke="midnightblue" points="248.83,-283.5 258.39,-278.94 248.07,-276.54 248.83,-283.5"/>
</g>
<!-- Node4 -->
<g id="node4" class="node">
<title>Node4</title>
<g id="a_node4"><a xlink:href="group__tools__drafting__primitive.html#ga9e80066573c9e9b2b1cf6af71cf453b0" target="_top" xlink:title="Check if any identified layers are active.">
<polygon fill="white" stroke="black" points="394,-266.5 394,-285.5 527,-285.5 527,-266.5 394,-266.5"/>
<text text-anchor="middle" x="460.5" y="-273.5" font-family="Helvetica,sans-Serif" font-size="10.00">draft_layers_any_active</text>
</a>
</g>
</g>
<!-- Node1&#45;&gt;Node4 -->
<g id="edge3" class="edge">
<title>Node1&#45;&gt;Node4</title>
<path fill="none" stroke="midnightblue" d="M99.21,-327.31C157.85,-320.33 259.27,-307.83 346,-295 362.04,-292.63 379.32,-289.85 395.43,-287.16"/>
<polygon fill="midnightblue" stroke="midnightblue" points="396.02,-290.61 405.3,-285.5 394.86,-283.71 396.02,-290.61"/>
</g>
<!-- Node5 -->
<g id="node5" class="node">
<title>Node5</title>
<g id="a_node5"><a xlink:href="group__tools__drafting__primitive.html#ga060910368142d6371cf4f3f30be7561e" target="_top" xlink:title="Draft a line with configurable style and optional arrowheads.">
<polygon fill="white" stroke="black" points="138,-703.5 138,-722.5 200,-722.5 200,-703.5 138,-703.5"/>
<text text-anchor="middle" x="169" y="-710.5" font-family="Helvetica,sans-Serif" font-size="10.00">draft_line</text>
</a>
</g>
</g>
<!-- Node1&#45;&gt;Node5 -->
<g id="edge4" class="edge">
<title>Node1&#45;&gt;Node5</title>
<path fill="none" stroke="midnightblue" d="M53.52,-342.78C69.14,-393.28 140.77,-624.94 162.03,-693.7"/>
<polygon fill="midnightblue" stroke="midnightblue" points="158.7,-694.77 165,-703.29 165.39,-692.7 158.7,-694.77"/>
</g>
<!-- Node15 -->
<g id="node15" class="node">
<title>Node15</title>
<g id="a_node15"><a xlink:href="group__datatypes__euclidean.html#ga299bce4158dc8d0a7a8e7d9967b8ea4e" target="_top" xlink:title="Return the terminal point of a line or vector.">
<polygon fill="white" stroke="black" points="721,-494.5 721,-513.5 771,-513.5 771,-494.5 721,-494.5"/>
<text text-anchor="middle" x="746" y="-501.5" font-family="Helvetica,sans-Serif" font-size="10.00">line_tp</text>
</a>
</g>
</g>
<!-- Node1&#45;&gt;Node15 -->
<g id="edge58" class="edge">
<title>Node1&#45;&gt;Node15</title>
<path fill="none" stroke="midnightblue" d="M99.34,-339.12C147.96,-344.67 224.77,-352 291.5,-352 291.5,-352 291.5,-352 461.5,-352 560.91,-352 587.95,-376.86 670,-433 692.72,-448.55 715.17,-470.99 729.5,-486.46"/>
<polygon fill="midnightblue" stroke="midnightblue" points="727.26,-489.2 736.57,-494.25 732.44,-484.5 727.26,-489.2"/>
</g>
<!-- Node22 -->
<g id="node22" class="node">
<title>Node22</title>
<g id="a_node22"><a xlink:href="group__datatypes__scalar__test.html#ga51d7fdb800c10f4b7479d23b89ab8d22" target="_top" xlink:title="Test if a value is defined.">
<polygon fill="white" stroke="black" points="589.5,-76.5 589.5,-95.5 655.5,-95.5 655.5,-76.5 589.5,-76.5"/>
<text text-anchor="middle" x="622.5" y="-83.5" font-family="Helvetica,sans-Serif" font-size="10.00">is_defined</text>
</a>
</g>
</g>
<!-- Node1&#45;&gt;Node22 -->
<g id="edge55" class="edge">
<title>Node1&#45;&gt;Node22</title>
<path fill="none" stroke="midnightblue" d="M53.47,-323.24C66.69,-281.77 124.69,-119.85 239,-67 355.48,-13.14 513.74,-51.3 584.58,-73.33"/>
<polygon fill="midnightblue" stroke="midnightblue" points="583.79,-76.75 594.38,-76.45 585.91,-70.08 583.79,-76.75"/>
</g>
<!-- Node23 -->
<g id="node23" class="node">
<title>Node23</title>
<g id="a_node23"><a xlink:href="group__datatypes__euclidean.html#gaa686049dfa9296b441a12e225aa1537d" target="_top" xlink:title="Construct a 2 dimensional directed line.">
<polygon fill="white" stroke="black" points="424.5,-494.5 424.5,-513.5 496.5,-513.5 496.5,-494.5 424.5,-494.5"/>
<text text-anchor="middle" x="460.5" y="-501.5" font-family="Helvetica,sans-Serif" font-size="10.00">line2d_new</text>
</a>
</g>
</g>
<!-- Node1&#45;&gt;Node23 -->
<g id="edge57" class="edge">
<title>Node1&#45;&gt;Node23</title>
<path fill="none" stroke="midnightblue" d="M64.44,-342.58C80.85,-353.63 109.18,-371.94 135,-385 240.69,-438.44 269.3,-448.58 382,-485 392.39,-488.36 403.73,-491.45 414.44,-494.12"/>
<polygon fill="midnightblue" stroke="midnightblue" points="413.94,-497.6 424.48,-496.54 415.58,-490.79 413.94,-497.6"/>
</g>
<!-- Node29 -->
<g id="node29" class="node">
<title>Node29</title>
<g id="a_node29"><a xlink:href="group__tools__drafting__primitive.html#ga9a4b6eb4b387537f7bc1cc6c4d8f4449" target="_top" xlink:title="Extrude 2D drafted constructions to 3D if configured.">
<polygon fill="white" stroke="black" points="382,-380.5 382,-399.5 539,-399.5 539,-380.5 382,-380.5"/>
<text text-anchor="middle" x="460.5" y="-387.5" font-family="Helvetica,sans-Serif" font-size="10.00">draft_make_3d_if_configured</text>
</a>
</g>
</g>
<!-- Node1&#45;&gt;Node29 -->
<g id="edge40" class="edge">
<title>Node1&#45;&gt;Node29</title>
<path fill="none" stroke="midnightblue" d="M70.12,-342.6C86.91,-350.34 111.96,-360.77 135,-366 213.7,-383.85 305.62,-389.25 371.49,-390.54"/>
<polygon fill="midnightblue" stroke="midnightblue" points="371.78,-394.05 381.83,-390.71 371.89,-387.05 371.78,-394.05"/>
</g>
<!-- Node30 -->
<g id="node30" class="node">
<title>Node30</title>
<g id="a_node30"><a xlink:href="group__tools__drafting__operation.html#gac1b780633ac5e2874a8a00177d98b305" target="_top" xlink:title="Construct a text note with optional heading and boarder.">
<polygon fill="white" stroke="black" points="136,-190.5 136,-209.5 202,-209.5 202,-190.5 136,-190.5"/>
<text text-anchor="middle" x="169" y="-197.5" font-family="Helvetica,sans-Serif" font-size="10.00">draft_note</text>
</a>
</g>
</g>
<!-- Node1&#45;&gt;Node30 -->
<g id="edge42" class="edge">
<title>Node1&#45;&gt;Node30</title>
<path fill="none" stroke="midnightblue" d="M58.95,-323.43C78.59,-301.21 127.53,-245.81 152.62,-217.4"/>
<polygon fill="midnightblue" stroke="midnightblue" points="155.31,-219.65 159.31,-209.84 150.07,-215.01 155.31,-219.65"/>
</g>
<!-- Node36 -->
<g id="node36" class="node">
<title>Node36</title>
<g id="a_node36"><a xlink:href="group__datatypes__scalar__test.html#gac47a7785d144083733c43327ea092e1d" target="_top" xlink:title="Test if a value is a number.">
<polygon fill="white" stroke="black" points="135,-0.5 135,-19.5 203,-19.5 203,-0.5 135,-0.5"/>
<text text-anchor="middle" x="169" y="-7.5" font-family="Helvetica,sans-Serif" font-size="10.00">is_number</text>
</a>
</g>
</g>
<!-- Node1&#45;&gt;Node36 -->
<g id="edge56" class="edge">
<title>Node1&#45;&gt;Node36</title>
<path fill="none" stroke="midnightblue" d="M50.98,-323.25C53.39,-283.57 66.83,-131.8 135,-34 137.05,-31.06 139.57,-28.35 142.31,-25.89"/>
<polygon fill="midnightblue" stroke="midnightblue" points="144.6,-28.54 150.34,-19.63 140.3,-23.01 144.6,-28.54"/>
</g>
<!-- Node5&#45;&gt;Node2 -->
<g id="edge6" class="edge">
<title>Node5&#45;&gt;Node2</title>
<path fill="none" stroke="midnightblue" d="M171.38,-722.55C177.32,-762.27 202.14,-913.64 239,-941 312.93,-995.87 604.87,-954.21 708.38,-937.29"/>
<polygon fill="midnightblue" stroke="midnightblue" points="709.06,-940.72 718.36,-935.64 707.92,-933.81 709.06,-940.72"/>
</g>
<!-- Node6 -->
<g id="node6" class="node">
<title>Node6</title>
<g id="a_node6"><a xlink:href="group__datatypes__iterable__test.html#ga4dfc58aa5f208e103e622684db817ce6" target="_top" xlink:title="Test if all elements of an iterable value equal a comparison value.">
<polygon fill="white" stroke="black" points="262,-912.5 262,-931.5 323,-931.5 323,-912.5 262,-912.5"/>
<text text-anchor="middle" x="292.5" y="-919.5" font-family="Helvetica,sans-Serif" font-size="10.00">all_equal</text>
</a>
</g>
</g>
<!-- Node5&#45;&gt;Node6 -->
<g id="edge5" class="edge">
<title>Node5&#45;&gt;Node6</title>
<path fill="none" stroke="midnightblue" d="M171.03,-722.8C174.66,-752.84 189.49,-844.8 239,-898 242.88,-902.17 247.63,-905.68 252.67,-908.6"/>
<polygon fill="midnightblue" stroke="midnightblue" points="251.42,-911.89 261.93,-913.26 254.57,-905.64 251.42,-911.89"/>
</g>
<!-- Node7 -->
<g id="node7" class="node">
<title>Node7</title>
<g id="a_node7"><a xlink:href="group__datatypes__iterable__operate.html#ga3d37c2b0067d1661724bd89955c8f6ce" target="_top" xlink:title="Return an element of an iterable when it exists or a default value otherwise.">
<polygon fill="white" stroke="black" points="421,-456.5 421,-475.5 500,-475.5 500,-456.5 421,-456.5"/>
<text text-anchor="middle" x="460.5" y="-463.5" font-family="Helvetica,sans-Serif" font-size="10.00">defined_e_or</text>
</a>
</g>
</g>
<!-- Node5&#45;&gt;Node7 -->
<g id="edge7" class="edge">
<title>Node5&#45;&gt;Node7</title>
<path fill="none" stroke="midnightblue" d="M170.84,-703.16C173.95,-673.05 187.42,-581.22 239,-532 285.69,-487.44 361.23,-472.84 410.64,-468.13"/>
<polygon fill="midnightblue" stroke="midnightblue" points="411.1,-471.6 420.76,-467.26 410.5,-464.62 411.1,-471.6"/>
</g>
<!-- Node8 -->
<g id="node8" class="node">
<title>Node8</title>
<g id="a_node8"><a xlink:href="group__tools__drafting__primitive.html#ga6f12ccd4c9de0a8ab887184911f39c8f" target="_top" xlink:title="Draft an arrowhead at the terminal point of a line.">
<polygon fill="white" stroke="black" points="256.5,-608.5 256.5,-627.5 328.5,-627.5 328.5,-608.5 256.5,-608.5"/>
<text text-anchor="middle" x="292.5" y="-615.5" font-family="Helvetica,sans-Serif" font-size="10.00">draft_arrow</text>
</a>
</g>
</g>
<!-- Node5&#45;&gt;Node8 -->
<g id="edge8" class="edge">
<title>Node5&#45;&gt;Node8</title>
<path fill="none" stroke="midnightblue" d="M177.55,-703.15C189.35,-688.31 213.44,-660.03 239,-642 244.32,-638.25 250.32,-634.85 256.32,-631.88"/>
<polygon fill="midnightblue" stroke="midnightblue" points="258.03,-634.94 265.63,-627.56 255.09,-628.59 258.03,-634.94"/>
</g>
<!-- Node10 -->
<g id="node10" class="node">
<title>Node10</title>
<g id="a_node10"><a xlink:href="group__tools__drafting__config.html#gabb4fa7092928ba8803b550ac6d733f64" target="_top" xlink:title="Get drafting configuration default helper function.">
<polygon fill="white" stroke="black" points="575,-608.5 575,-627.5 670,-627.5 670,-608.5 575,-608.5"/>
<text text-anchor="middle" x="622.5" y="-615.5" font-family="Helvetica,sans-Serif" font-size="10.00">draft_get_config</text>
</a>
</g>
</g>
<!-- Node5&#45;&gt;Node10 -->
<g id="edge31" class="edge">
<title>Node5&#45;&gt;Node10</title>
<path fill="none" stroke="midnightblue" d="M182.89,-703.28C196.15,-693.93 217.81,-680.45 239,-675 285.06,-663.16 302.31,-656.21 346,-675 367.37,-684.19 360.63,-703.81 382,-713 446.1,-740.57 475.51,-741.95 539,-713 573.28,-697.37 598.82,-659.68 611.83,-636.75"/>
<polygon fill="midnightblue" stroke="midnightblue" points="615.07,-638.11 616.77,-627.66 608.92,-634.77 615.07,-638.11"/>
</g>
<!-- Node11 -->
<g id="node11" class="node">
<title>Node11</title>
<g id="a_node11"><a xlink:href="group__tools__drafting__primitive.html#ga4e7c5fa02dbc244702042067553a9225" target="_top" xlink:title="Draft a simple line from an initial to a terminal point.">
<polygon fill="white" stroke="black" points="420.5,-760.5 420.5,-779.5 500.5,-779.5 500.5,-760.5 420.5,-760.5"/>
<text text-anchor="middle" x="460.5" y="-767.5" font-family="Helvetica,sans-Serif" font-size="10.00">draft_line_pp</text>
</a>
</g>
</g>
<!-- Node5&#45;&gt;Node11 -->
<g id="edge32" class="edge">
<title>Node5&#45;&gt;Node11</title>
<path fill="none" stroke="midnightblue" d="M175.07,-722.55C184.79,-739.7 207.88,-775.22 239,-789 300.24,-816.12 380.32,-797.49 425.18,-782.85"/>
<polygon fill="midnightblue" stroke="midnightblue" points="426.39,-786.14 434.74,-779.62 424.14,-779.51 426.39,-786.14"/>
</g>
<!-- Node14 -->
<g id="node14" class="node">
<title>Node14</title>
<g id="a_node14"><a xlink:href="group__datatypes__euclidean.html#ga8115b05f16bcc197e3e339a65f4d3e49" target="_top" xlink:title="Return the initial point of a line or vector.">
<polygon fill="white" stroke="black" points="721.5,-855.5 721.5,-874.5 770.5,-874.5 770.5,-855.5 721.5,-855.5"/>
<text text-anchor="middle" x="746" y="-862.5" font-family="Helvetica,sans-Serif" font-size="10.00">line_ip</text>
</a>
</g>
</g>
<!-- Node5&#45;&gt;Node14 -->
<g id="edge34" class="edge">
<title>Node5&#45;&gt;Node14</title>
<path fill="none" stroke="midnightblue" d="M172.15,-722.54C178.11,-746.6 197.23,-809.98 239,-840 386.22,-945.79 624.4,-897.43 711.63,-874.57"/>
<polygon fill="midnightblue" stroke="midnightblue" points="712.75,-877.89 721.5,-871.92 710.93,-871.13 712.75,-877.89"/>
</g>
<!-- Node5&#45;&gt;Node15 -->
<g id="edge35" class="edge">
<title>Node5&#45;&gt;Node15</title>
<path fill="none" stroke="midnightblue" d="M169.54,-703.01C168.42,-666.38 169.8,-538.31 239,-475 376.07,-349.59 631.24,-450.78 716.46,-490.09"/>
<polygon fill="midnightblue" stroke="midnightblue" points="715.22,-493.37 725.76,-494.45 718.2,-487.04 715.22,-493.37"/>
</g>
<!-- Node5&#45;&gt;Node23 -->
<g id="edge33" class="edge">
<title>Node5&#45;&gt;Node23</title>
<path fill="none" stroke="midnightblue" d="M173.76,-703.27C182.41,-681.97 205.55,-630.63 239,-599 288.9,-551.81 365.92,-526.01 414.47,-513.61"/>
<polygon fill="midnightblue" stroke="midnightblue" points="415.51,-516.96 424.38,-511.17 413.83,-510.17 415.51,-516.96"/>
</g>
<!-- Node25 -->
<g id="node25" class="node">
<title>Node25</title>
<g id="a_node25"><a xlink:href="group__datatypes__iterable__operate.html#gadb933df06b10d64dda8823069bdc84b7" target="_top" xlink:title="Return a list of all n&#45;element sequential&#45;subsets of an iterable value.">
<polygon fill="white" stroke="black" points="420.5,-836.5 420.5,-855.5 500.5,-855.5 500.5,-836.5 420.5,-836.5"/>
<text text-anchor="middle" x="460.5" y="-843.5" font-family="Helvetica,sans-Serif" font-size="10.00">sequence_ns</text>
</a>
</g>
</g>
<!-- Node5&#45;&gt;Node25 -->
<g id="edge39" class="edge">
<title>Node5&#45;&gt;Node25</title>
<path fill="none" stroke="midnightblue" d="M173.84,-722.54C182.32,-742.3 204.68,-787.63 239,-809 291.03,-841.4 362.77,-847.91 410.11,-848.14"/>
<polygon fill="midnightblue" stroke="midnightblue" points="410.13,-851.64 420.12,-848.09 410.1,-844.64 410.13,-851.64"/>
</g>
<!-- Node26 -->
<g id="node26" class="node">
<title>Node26</title>
<g id="a_node26"><a xlink:href="group__datatypes__list__operate.html#gac9437fd7e3cb8797fa5e901b2ab6e58a" target="_top" xlink:title="Serially merge the elements of a list.">
<polygon fill="white" stroke="black" points="263,-760.5 263,-779.5 322,-779.5 322,-760.5 263,-760.5"/>
<text text-anchor="middle" x="292.5" y="-767.5" font-family="Helvetica,sans-Serif" font-size="10.00">merge_s</text>
</a>
</g>
</g>
<!-- Node5&#45;&gt;Node26 -->
<g id="edge36" class="edge">
<title>Node5&#45;&gt;Node26</title>
<path fill="none" stroke="midnightblue" d="M185.81,-722.63C199.56,-730.79 220.19,-742.48 239,-751 243.51,-753.04 248.31,-755.03 253.1,-756.89"/>
<polygon fill="midnightblue" stroke="midnightblue" points="252.25,-760.31 262.84,-760.54 254.7,-753.76 252.25,-760.31"/>
</g>
<!-- Node27 -->
<g id="node27" class="node">
<title>Node27</title>
<g id="a_node27"><a xlink:href="group__math__polygon.html#gad35e17240bf9f3e0de4481ec467d599f" target="_top" xlink:title="Compute coordinates along a line in 2D.">
<polygon fill="white" stroke="black" points="247.5,-722.5 247.5,-741.5 337.5,-741.5 337.5,-722.5 247.5,-722.5"/>
<text text-anchor="middle" x="292.5" y="-729.5" font-family="Helvetica,sans-Serif" font-size="10.00">polygon_line_p</text>
</a>
</g>
</g>
<!-- Node5&#45;&gt;Node27 -->
<g id="edge37" class="edge">
<title>Node5&#45;&gt;Node27</title>
<path fill="none" stroke="midnightblue" d="M200.03,-717.7C211.23,-719.45 224.33,-721.5 237.05,-723.48"/>
<polygon fill="midnightblue" stroke="midnightblue" points="236.7,-726.97 247.12,-725.06 237.78,-720.06 236.7,-726.97"/>
</g>
<!-- Node28 -->
<g id="node28" class="node">
<title>Node28</title>
<g id="a_node28"><a xlink:href="group__math__polygon.html#ga6aea22d31f8f086c44c7241eee3ab4c2" target="_top" xlink:title="Compute coordinates for an n&#45;sided regular polygon in 2D.">
<polygon fill="white" stroke="black" points="239,-684.5 239,-703.5 346,-703.5 346,-684.5 239,-684.5"/>
<text text-anchor="middle" x="292.5" y="-691.5" font-family="Helvetica,sans-Serif" font-size="10.00">polygon_regular_p</text>
</a>
</g>
</g>
<!-- Node5&#45;&gt;Node28 -->
<g id="edge38" class="edge">
<title>Node5&#45;&gt;Node28</title>
<path fill="none" stroke="midnightblue" d="M200.03,-708.3C208.78,-706.94 218.69,-705.39 228.66,-703.83"/>
<polygon fill="midnightblue" stroke="midnightblue" points="229.29,-707.27 238.63,-702.27 228.2,-700.36 229.29,-707.27"/>
</g>
<!-- Node8&#45;&gt;Node2 -->
<g id="edge9" class="edge">
<title>Node8&#45;&gt;Node2</title>
<path fill="none" stroke="midnightblue" d="M305.12,-627.78C316.95,-638.32 335.07,-656.14 346,-675 372.64,-720.97 343.17,-752.74 382,-789 434.47,-838 471.62,-802.21 539,-827 607.46,-852.18 682.74,-894.15 720.51,-916.29"/>
<polygon fill="midnightblue" stroke="midnightblue" points="718.89,-919.4 729.28,-921.47 722.45,-913.37 718.89,-919.4"/>
</g>
<!-- Node8&#45;&gt;Node7 -->
<g id="edge11" class="edge">
<title>Node8&#45;&gt;Node7</title>
<path fill="none" stroke="midnightblue" d="M297.1,-608.16C306.71,-583.3 335.46,-517.67 382,-485 390.59,-478.97 400.89,-474.84 411.13,-472.02"/>
<polygon fill="midnightblue" stroke="midnightblue" points="411.95,-475.42 420.87,-469.7 410.33,-468.62 411.95,-475.42"/>
</g>
<!-- Node9 -->
<g id="node9" class="node">
<title>Node9</title>
<g id="a_node9"><a xlink:href="group__datatypes__binary.html#ga7ce4ed94d9b389ff817ea219918b8732" target="_top" xlink:title="Test if a binary bit position of an integer value equals a test bit.">
<polygon fill="white" stroke="black" points="421,-646.5 421,-665.5 500,-665.5 500,-646.5 421,-646.5"/>
<text text-anchor="middle" x="460.5" y="-653.5" font-family="Helvetica,sans-Serif" font-size="10.00">binary_bit_is</text>
</a>
</g>
</g>
<!-- Node8&#45;&gt;Node9 -->
<g id="edge10" class="edge">
<title>Node8&#45;&gt;Node9</title>
<path fill="none" stroke="midnightblue" d="M328.7,-626.06C352.67,-631.55 384.7,-638.88 411.07,-644.91"/>
<polygon fill="midnightblue" stroke="midnightblue" points="410.34,-648.34 420.87,-647.16 411.9,-641.51 410.34,-648.34"/>
</g>
<!-- Node8&#45;&gt;Node10 -->
<g id="edge12" class="edge">
<title>Node8&#45;&gt;Node10</title>
<path fill="none" stroke="midnightblue" d="M328.6,-618C385.11,-618 496.79,-618 564.73,-618"/>
<polygon fill="midnightblue" stroke="midnightblue" points="564.84,-621.5 574.84,-618 564.84,-614.5 564.84,-621.5"/>
</g>
<!-- Node8&#45;&gt;Node11 -->
<g id="edge13" class="edge">
<title>Node8&#45;&gt;Node11</title>
<path fill="none" stroke="midnightblue" d="M302.44,-627.69C324.06,-651.12 377.71,-709.18 382,-713 399.21,-728.32 420.37,-743.68 436.23,-754.59"/>
<polygon fill="midnightblue" stroke="midnightblue" points="434.65,-757.74 444.89,-760.46 438.58,-751.95 434.65,-757.74"/>
</g>
<!-- Node8&#45;&gt;Node15 -->
<g id="edge28" class="edge">
<title>Node8&#45;&gt;Node15</title>
<path fill="none" stroke="midnightblue" d="M328.57,-610.34C376.32,-599.8 464.37,-579.98 539,-561 600,-545.49 670.61,-525.51 711.31,-513.79"/>
<polygon fill="midnightblue" stroke="midnightblue" points="712.35,-517.13 720.98,-511 710.41,-510.41 712.35,-517.13"/>
</g>
<!-- Node21 -->
<g id="node21" class="node">
<title>Node21</title>
<g id="a_node21"><a xlink:href="group__tools__operation__cs.html#gafa05aca176d441020de53da835e3dd60" target="_top" xlink:title="Conditionally apply the convex hull transformation.">
<polygon fill="white" stroke="black" points="435.5,-532.5 435.5,-551.5 485.5,-551.5 485.5,-532.5 435.5,-532.5"/>
<text text-anchor="middle" x="460.5" y="-539.5" font-family="Helvetica,sans-Serif" font-size="10.00">hull_cs</text>
</a>
</g>
</g>
<!-- Node8&#45;&gt;Node21 -->
<g id="edge25" class="edge">
<title>Node8&#45;&gt;Node21</title>
<path fill="none" stroke="midnightblue" d="M307.37,-608.48C324.35,-597.15 354.29,-578.24 382,-566 395.76,-559.93 411.52,-554.74 425.23,-550.76"/>
<polygon fill="midnightblue" stroke="midnightblue" points="426.55,-554.03 435.24,-547.96 424.66,-547.29 426.55,-554.03"/>
</g>
<!-- Node8&#45;&gt;Node23 -->
<g id="edge27" class="edge">
<title>Node8&#45;&gt;Node23</title>
<path fill="none" stroke="midnightblue" d="M307.34,-608.34C318.48,-600.19 334.18,-587.82 346,-575 365.06,-554.34 358.85,-538.94 382,-523 391.62,-516.38 403.31,-512.06 414.66,-509.24"/>
<polygon fill="midnightblue" stroke="midnightblue" points="415.45,-512.65 424.49,-507.13 413.98,-505.81 415.45,-512.65"/>
</g>
<!-- Node24 -->
<g id="node24" class="node">
<title>Node24</title>
<g id="a_node24"><a xlink:href="group__math__polygon.html#ga0e085cf8ec515dccdeff907f84fdae55" target="_top" xlink:title="Compute coordinates of an arc with constant radius between two vectors in 2D.">
<polygon fill="white" stroke="black" points="417,-684.5 417,-703.5 504,-703.5 504,-684.5 417,-684.5"/>
<text text-anchor="middle" x="460.5" y="-691.5" font-family="Helvetica,sans-Serif" font-size="10.00">polygon_arc_p</text>
</a>
</g>
</g>
<!-- Node8&#45;&gt;Node24 -->
<g id="edge29" class="edge">
<title>Node8&#45;&gt;Node24</title>
<path fill="none" stroke="midnightblue" d="M318.65,-627.59C327.61,-631.49 337.56,-636.41 346,-642 364.09,-653.99 362.86,-664.76 382,-675 389.72,-679.13 398.35,-682.38 406.98,-684.93"/>
<polygon fill="midnightblue" stroke="midnightblue" points="406.1,-688.32 416.66,-687.52 407.91,-681.56 406.1,-688.32"/>
</g>
<!-- Node8&#45;&gt;Node25 -->
<g id="edge30" class="edge">
<title>Node8&#45;&gt;Node25</title>
<path fill="none" stroke="midnightblue" d="M305.37,-627.64C317.41,-638.07 335.7,-655.79 346,-675 377.79,-734.28 335.89,-773.03 382,-822 389.61,-830.09 399.89,-835.47 410.47,-839.05"/>
<polygon fill="midnightblue" stroke="midnightblue" points="409.62,-842.44 420.2,-841.85 411.56,-835.72 409.62,-842.44"/>
</g>
<!-- Node11&#45;&gt;Node10 -->
<g id="edge24" class="edge">
<title>Node11&#45;&gt;Node10</title>
<path fill="none" stroke="midnightblue" d="M500.66,-763.5C513.79,-759.93 527.89,-754.43 539,-746 577.09,-717.08 602.54,-665.12 614.2,-637.12"/>
<polygon fill="midnightblue" stroke="midnightblue" points="617.52,-638.25 617.99,-627.66 611.02,-635.64 617.52,-638.25"/>
</g>
<!-- Node12 -->
<g id="node12" class="node">
<title>Node12</title>
<g id="a_node12"><a xlink:href="group__tools__align.html#ga7a21147611850c6cae7e95d23417099b" target="_top" xlink:title="Align a line or vector to a reference line or vector.">
<polygon fill="white" stroke="black" points="596.5,-722.5 596.5,-741.5 648.5,-741.5 648.5,-722.5 596.5,-722.5"/>
<text text-anchor="middle" x="622.5" y="-729.5" font-family="Helvetica,sans-Serif" font-size="10.00">align_ll</text>
</a>
</g>
</g>
<!-- Node11&#45;&gt;Node12 -->
<g id="edge14" class="edge">
<title>Node11&#45;&gt;Node12</title>
<path fill="none" stroke="midnightblue" d="M500.64,-760.7C526.82,-754.49 560.99,-746.37 586.31,-740.36"/>
<polygon fill="midnightblue" stroke="midnightblue" points="587.31,-743.72 596.23,-738 585.69,-736.91 587.31,-743.72"/>
</g>
<!-- Node20 -->
<g id="node20" class="node">
<title>Node20</title>
<g id="a_node20"><a xlink:href="group__datatypes__euclidean.html#gaef5b930729755b4420098776467ac210" target="_top" xlink:title="Compute the distance between two points.">
<polygon fill="white" stroke="black" points="585,-760.5 585,-779.5 660,-779.5 660,-760.5 585,-760.5"/>
<text text-anchor="middle" x="622.5" y="-767.5" font-family="Helvetica,sans-Serif" font-size="10.00">distance_pp</text>
</a>
</g>
</g>
<!-- Node11&#45;&gt;Node20 -->
<g id="edge23" class="edge">
<title>Node11&#45;&gt;Node20</title>
<path fill="none" stroke="midnightblue" d="M500.64,-770C523.04,-770 551.29,-770 574.84,-770"/>
<polygon fill="midnightblue" stroke="midnightblue" points="574.96,-773.5 584.96,-770 574.96,-766.5 574.96,-773.5"/>
</g>
<!-- Node12&#45;&gt;Node2 -->
<g id="edge15" class="edge">
<title>Node12&#45;&gt;Node2</title>
<path fill="none" stroke="midnightblue" d="M648.79,-737.64C656.53,-740.49 664.46,-744.73 670,-751 710.55,-796.89 677.8,-829.64 706,-884 711.7,-894.98 720.31,-905.72 727.99,-914.15"/>
<polygon fill="midnightblue" stroke="midnightblue" points="725.51,-916.63 734.94,-921.46 730.58,-911.81 725.51,-916.63"/>
</g>
<!-- Node13 -->
<g id="node13" class="node">
<title>Node13</title>
<g id="a_node13"><a xlink:href="group__datatypes__euclidean.html#ga882329ee346d5a7f9d0877afd115c3de" target="_top" xlink:title="Compute the cross product of two lines or vectors in a 3d or 2d&#45;space.">
<polygon fill="white" stroke="black" points="719.5,-760.5 719.5,-779.5 772.5,-779.5 772.5,-760.5 719.5,-760.5"/>
<text text-anchor="middle" x="746" y="-767.5" font-family="Helvetica,sans-Serif" font-size="10.00">cross_ll</text>
</a>
</g>
</g>
<!-- Node12&#45;&gt;Node13 -->
<g id="edge16" class="edge">
<title>Node12&#45;&gt;Node13</title>
<path fill="none" stroke="midnightblue" d="M648.67,-739.87C666.31,-745.39 690.13,-752.84 709.67,-758.95"/>
<polygon fill="midnightblue" stroke="midnightblue" points="708.85,-762.36 719.44,-762.01 710.94,-755.68 708.85,-762.36"/>
</g>
<!-- Node12&#45;&gt;Node14 -->
<g id="edge17" class="edge">
<title>Node12&#45;&gt;Node14</title>
<path fill="none" stroke="midnightblue" d="M648.65,-738.42C656.2,-741.3 664.05,-745.36 670,-751 697.14,-776.7 684.27,-796.59 706,-827 711.53,-834.74 718.74,-842.27 725.45,-848.55"/>
<polygon fill="midnightblue" stroke="midnightblue" points="723.19,-851.23 732.97,-855.3 727.87,-846.01 723.19,-851.23"/>
</g>
<!-- Node12&#45;&gt;Node15 -->
<g id="edge18" class="edge">
<title>Node12&#45;&gt;Node15</title>
<path fill="none" stroke="midnightblue" d="M628.57,-722.49C646.98,-687.95 710.54,-568.66 735.16,-522.47"/>
<polygon fill="midnightblue" stroke="midnightblue" points="738.3,-524.02 739.91,-513.55 732.12,-520.73 738.3,-524.02"/>
</g>
<!-- Node16 -->
<g id="node16" class="node">
<title>Node16</title>
<g id="a_node16"><a xlink:href="group__datatypes__list__operate.html#ga1088f9b09ff8ed12e2c844758f39c039" target="_top" xlink:title="Compute the mean/average of a list of numbers.">
<polygon fill="white" stroke="black" points="724,-722.5 724,-741.5 768,-741.5 768,-722.5 724,-722.5"/>
<text text-anchor="middle" x="746" y="-729.5" font-family="Helvetica,sans-Serif" font-size="10.00">mean</text>
</a>
</g>
</g>
<!-- Node12&#45;&gt;Node16 -->
<g id="edge19" class="edge">
<title>Node12&#45;&gt;Node16</title>
<path fill="none" stroke="midnightblue" d="M648.67,-732C667.53,-732 693.44,-732 713.64,-732"/>
<polygon fill="midnightblue" stroke="midnightblue" points="713.91,-735.5 723.91,-732 713.91,-728.5 713.91,-735.5"/>
</g>
<!-- Node17 -->
<g id="node17" class="node">
<title>Node17</title>
<g id="a_node17"><a xlink:href="group__datatypes__euclidean.html#ga78d67c74076bef2e80a95b1e9b6eb2d7" target="_top" xlink:title="Return 3d point unchanged or add a zeroed third dimension to 2d point.">
<polygon fill="white" stroke="black" points="709,-684.5 709,-703.5 783,-703.5 783,-684.5 709,-684.5"/>
<text text-anchor="middle" x="746" y="-691.5" font-family="Helvetica,sans-Serif" font-size="10.00">point_to_3d</text>
</a>
</g>
</g>
<!-- Node12&#45;&gt;Node17 -->
<g id="edge20" class="edge">
<title>Node12&#45;&gt;Node17</title>
<path fill="none" stroke="midnightblue" d="M648.67,-724.13C664.82,-719.08 686.14,-712.41 704.61,-706.63"/>
<polygon fill="midnightblue" stroke="midnightblue" points="705.76,-709.94 714.25,-703.62 703.67,-703.26 705.76,-709.94"/>
</g>
<!-- Node18 -->
<g id="node18" class="node">
<title>Node18</title>
<g id="a_node18"><a xlink:href="group__datatypes__list__operate.html#ga7b8e6f2bbfa72ae61e39377e5ca6b5be" target="_top" xlink:title="Select specified element from list or return a default.">
<polygon fill="white" stroke="black" points="716.5,-646.5 716.5,-665.5 775.5,-665.5 775.5,-646.5 716.5,-646.5"/>
<text text-anchor="middle" x="746" y="-653.5" font-family="Helvetica,sans-Serif" font-size="10.00">select_ci</text>
</a>
</g>
</g>
<!-- Node12&#45;&gt;Node18 -->
<g id="edge21" class="edge">
<title>Node12&#45;&gt;Node18</title>
<path fill="none" stroke="midnightblue" d="M635.97,-722.5C651.79,-710.65 680.15,-690.11 706,-675 708.71,-673.42 711.57,-671.85 714.46,-670.32"/>
<polygon fill="midnightblue" stroke="midnightblue" points="716.3,-673.32 723.64,-665.68 713.14,-667.07 716.3,-673.32"/>
</g>
<!-- Node19 -->
<g id="node19" class="node">
<title>Node19</title>
<g id="a_node19"><a xlink:href="group__datatypes__euclidean.html#ga6ef2a81f304d31b9ec9753ca4875ad45" target="_top" xlink:title="Convert line to vector by shifting it to the origin.">
<polygon fill="white" stroke="black" points="706,-798.5 706,-817.5 786,-817.5 786,-798.5 706,-798.5"/>
<text text-anchor="middle" x="746" y="-805.5" font-family="Helvetica,sans-Serif" font-size="10.00">vol_to_origin</text>
</a>
</g>
</g>
<!-- Node12&#45;&gt;Node19 -->
<g id="edge22" class="edge">
<title>Node12&#45;&gt;Node19</title>
<path fill="none" stroke="midnightblue" d="M648.63,-740.01C655.85,-742.9 663.52,-746.57 670,-751 689.2,-764.14 687.24,-775.24 706,-789 708.2,-790.61 710.56,-792.15 712.99,-793.6"/>
<polygon fill="midnightblue" stroke="midnightblue" points="711.48,-796.76 721.93,-798.46 714.82,-790.61 711.48,-796.76"/>
</g>
<!-- Node21&#45;&gt;Node22 -->
<g id="edge26" class="edge">
<title>Node21&#45;&gt;Node22</title>
<path fill="none" stroke="midnightblue" d="M485.51,-542.57C502.79,-541.62 525.37,-537.38 539,-523 597.34,-461.43 616.31,-183.63 620.51,-106.13"/>
<polygon fill="midnightblue" stroke="midnightblue" points="624.03,-106 621.05,-95.84 617.03,-105.64 624.03,-106"/>
</g>
<!-- Node29&#45;&gt;Node10 -->
<g id="edge41" class="edge">
<title>Node29&#45;&gt;Node10</title>
<path fill="none" stroke="midnightblue" d="M479.14,-399.55C496.25,-409.53 522.03,-426.57 539,-447 578.72,-494.82 604.69,-564.99 615.61,-598.62"/>
<polygon fill="midnightblue" stroke="midnightblue" points="612.28,-599.7 618.63,-608.18 618.96,-597.59 612.28,-599.7"/>
</g>
<!-- Node30&#45;&gt;Node3 -->
<g id="edge45" class="edge">
<title>Node30&#45;&gt;Node3</title>
<path fill="none" stroke="midnightblue" d="M181.18,-209.64C194.4,-220.74 217.35,-239.1 239,-252 245.07,-255.62 251.79,-259.07 258.33,-262.16"/>
<polygon fill="midnightblue" stroke="midnightblue" points="257.14,-265.46 267.69,-266.42 260.04,-259.09 257.14,-265.46"/>
</g>
<!-- Node30&#45;&gt;Node4 -->
<g id="edge46" class="edge">
<title>Node30&#45;&gt;Node4</title>
<path fill="none" stroke="midnightblue" d="M202.14,-199.45C238.46,-199.92 298.67,-204.09 346,-224 364.68,-231.86 364.03,-242.63 382,-252 390.53,-256.45 400.02,-260.23 409.36,-263.38"/>
<polygon fill="midnightblue" stroke="midnightblue" points="408.39,-266.75 418.98,-266.45 410.51,-260.08 408.39,-266.75"/>
</g>
<!-- Node30&#45;&gt;Node7 -->
<g id="edge44" class="edge">
<title>Node30&#45;&gt;Node7</title>
<path fill="none" stroke="midnightblue" d="M196.79,-209.57C209.54,-214.06 225.02,-219.41 239,-224 286.29,-239.51 312,-220.66 346,-257 393.43,-307.7 343.69,-351.1 382,-409 394.05,-427.22 414.02,-441.7 430.67,-451.5"/>
<polygon fill="midnightblue" stroke="midnightblue" points="429.07,-454.62 439.5,-456.47 432.5,-448.52 429.07,-454.62"/>
</g>
<!-- Node30&#45;&gt;Node22 -->
<g id="edge54" class="edge">
<title>Node30&#45;&gt;Node22</title>
<path fill="none" stroke="midnightblue" d="M173.68,-190.23C181.86,-170.07 203.68,-124.12 239,-105 349.57,-45.15 505.5,-63.35 579.45,-76.95"/>
<polygon fill="midnightblue" stroke="midnightblue" points="578.84,-80.4 589.32,-78.83 580.15,-73.53 578.84,-80.4"/>
</g>
<!-- Node31 -->
<g id="node31" class="node">
<title>Node31</title>
<g id="a_node31"><a xlink:href="group__datatypes__list__operate.html#gab05ff3da4d68d30922daa197f505580d" target="_top" xlink:title="Create a list of constant or incrementing elements.">
<polygon fill="white" stroke="black" points="268.5,-152.5 268.5,-171.5 316.5,-171.5 316.5,-152.5 268.5,-152.5"/>
<text text-anchor="middle" x="292.5" y="-159.5" font-family="Helvetica,sans-Serif" font-size="10.00">consts</text>
</a>
</g>
</g>
<!-- Node30&#45;&gt;Node31 -->
<g id="edge43" class="edge">
<title>Node30&#45;&gt;Node31</title>
<path fill="none" stroke="midnightblue" d="M200.66,-190.41C218.25,-184.91 240.35,-178 258.35,-172.37"/>
<polygon fill="midnightblue" stroke="midnightblue" points="259.64,-175.63 268.14,-169.31 257.55,-168.95 259.64,-175.63"/>
</g>
<!-- Node32 -->
<g id="node32" class="node">
<title>Node32</title>
<g id="a_node32"><a xlink:href="group__tools__drafting__operation.html#gaae4b7ed59444eb6f6c0ae47bd36e1e9b" target="_top" xlink:title="Construct a text table that is populated by rows and columns.">
<polygon fill="white" stroke="black" points="258,-114.5 258,-133.5 327,-133.5 327,-114.5 258,-114.5"/>
<text text-anchor="middle" x="292.5" y="-121.5" font-family="Helvetica,sans-Serif" font-size="10.00">draft_table</text>
</a>
</g>
</g>
<!-- Node30&#45;&gt;Node32 -->
<g id="edge47" class="edge">
<title>Node30&#45;&gt;Node32</title>
<path fill="none" stroke="midnightblue" d="M179.48,-190.33C192.08,-177.92 215.52,-156.41 239,-143 242.5,-141 246.24,-139.15 250.07,-137.46"/>
<polygon fill="midnightblue" stroke="midnightblue" points="251.69,-140.57 259.62,-133.55 249.04,-134.09 251.69,-140.57"/>
</g>
<!-- Node32&#45;&gt;Node4 -->
<g id="edge49" class="edge">
<title>Node32&#45;&gt;Node4</title>
<path fill="none" stroke="midnightblue" d="M327.25,-131.14C334.15,-133.9 340.86,-137.72 346,-143 381.56,-179.58 345.59,-216.26 382,-252 386.02,-255.95 390.68,-259.25 395.67,-262"/>
<polygon fill="midnightblue" stroke="midnightblue" points="394.43,-265.29 404.97,-266.41 397.43,-258.96 394.43,-265.29"/>
</g>
<!-- Node32&#45;&gt;Node10 -->
<g id="edge48" class="edge">
<title>Node32&#45;&gt;Node10</title>
<path fill="none" stroke="midnightblue" d="M327.05,-131.73C333.89,-134.45 340.62,-138.11 346,-143 373.66,-168.14 353.01,-195.41 382,-219 437.69,-264.31 488.56,-205.91 539,-257 587.78,-306.41 612.98,-529.45 619.66,-597.94"/>
<polygon fill="midnightblue" stroke="midnightblue" points="616.21,-598.58 620.63,-608.21 623.17,-597.92 616.21,-598.58"/>
</g>
<!-- Node32&#45;&gt;Node29 -->
<g id="edge50" class="edge">
<title>Node32&#45;&gt;Node29</title>
<path fill="none" stroke="midnightblue" d="M327.05,-130.6C334.13,-133.39 340.97,-137.36 346,-143 392.2,-194.82 351.28,-232.74 382,-295 397.11,-325.62 423.72,-355.17 441.48,-372.97"/>
<polygon fill="midnightblue" stroke="midnightblue" points="439.35,-375.78 448.94,-380.28 444.25,-370.78 439.35,-375.78"/>
</g>
<!-- Node33 -->
<g id="node33" class="node">
<title>Node33</title>
<g id="a_node33"><a xlink:href="group__tools__drafting__primitive.html#ga86b6eb63073241bfdfb18ba221fd3ec2" target="_top" xlink:title="Get table cell coordinates given a column and row.">
<polygon fill="white" stroke="black" points="404,-152.5 404,-171.5 517,-171.5 517,-152.5 404,-152.5"/>
<text text-anchor="middle" x="460.5" y="-159.5" font-family="Helvetica,sans-Serif" font-size="10.00">draft_table_get_cell</text>
</a>
</g>
</g>
<!-- Node32&#45;&gt;Node33 -->
<g id="edge51" class="edge">
<title>Node32&#45;&gt;Node33</title>
<path fill="none" stroke="midnightblue" d="M327.09,-131.69C350.28,-137 381.55,-144.16 407.88,-150.18"/>
<polygon fill="midnightblue" stroke="midnightblue" points="407.18,-153.61 417.7,-152.43 408.74,-146.79 407.18,-153.61"/>
</g>
<!-- Node34 -->
<g id="node34" class="node">
<title>Node34</title>
<g id="a_node34"><a xlink:href="group__datatypes__map.html#ga87e9b731478958b17b012e11d8ce818f" target="_top" xlink:title="Get the the first value associated with an existing key in one of two maps.">
<polygon fill="white" stroke="black" points="403.5,-114.5 403.5,-133.5 517.5,-133.5 517.5,-114.5 403.5,-114.5"/>
<text text-anchor="middle" x="460.5" y="-121.5" font-family="Helvetica,sans-Serif" font-size="10.00">map_get_firstof2_or</text>
</a>
</g>
</g>
<!-- Node32&#45;&gt;Node34 -->
<g id="edge52" class="edge">
<title>Node32&#45;&gt;Node34</title>
<path fill="none" stroke="midnightblue" d="M327.09,-124C346.07,-124 370.47,-124 393.14,-124"/>
<polygon fill="midnightblue" stroke="midnightblue" points="393.4,-127.5 403.4,-124 393.4,-120.5 393.4,-127.5"/>
</g>
<!-- Node35 -->
<g id="node35" class="node">
<title>Node35</title>
<g id="a_node35"><a xlink:href="group__datatypes__map.html#ga18d78aec6f24969b9ad51595533f78b2" target="_top" xlink:title="Get the map value associated with a key.">
<polygon fill="white" stroke="black" points="414.5,-190.5 414.5,-209.5 506.5,-209.5 506.5,-190.5 414.5,-190.5"/>
<text text-anchor="middle" x="460.5" y="-197.5" font-family="Helvetica,sans-Serif" font-size="10.00">map_get_value</text>
</a>
</g>
</g>
<!-- Node32&#45;&gt;Node35 -->
<g id="edge53" class="edge">
<title>Node32&#45;&gt;Node35</title>
<path fill="none" stroke="midnightblue" d="M327.11,-133.52C333.64,-136.09 340.24,-139.23 346,-143 365.46,-155.75 361.89,-169.31 382,-181 388.98,-185.06 396.8,-188.25 404.72,-190.77"/>
<polygon fill="midnightblue" stroke="midnightblue" points="403.8,-194.14 414.37,-193.51 405.71,-187.41 403.8,-194.14"/>
</g>
</g>
</svg>
