<?xml version="1.0" encoding="UTF-8" standalone="no"?>
<!DOCTYPE svg PUBLIC "-//W3C//DTD SVG 1.1//EN"
 "http://www.w3.org/Graphics/SVG/1.1/DTD/svg11.dtd">
<!-- Generated by graphviz version 2.43.0 (0)
 -->
<!-- Title: first Pages: 1 -->
<svg width="514pt" height="484pt"
 viewBox="0.00 0.00 514.00 484.00" xmlns="http://www.w3.org/2000/svg" xmlns:xlink="http://www.w3.org/1999/xlink">
<g id="graph0" class="graph" transform="scale(1 1) rotate(0) translate(4 480)">
<title>first</title>
<polygon fill="white" stroke="transparent" points="-4,4 -4,-480 510,-480 510,4 -4,4"/>
<!-- Node1 -->
<g id="node1" class="node">
<title>Node1</title>
<g id="a_node1"><a xlink:title="Return the first element of an iterable value.">
<polygon fill="#bfbfbf" stroke="black" points="471,-228.5 471,-247.5 506,-247.5 506,-228.5 471,-228.5"/>
<text text-anchor="middle" x="488.5" y="-235.5" font-family="Helvetica,sans-Serif" font-size="10.00">first</text>
</a>
</g>
</g>
<!-- Node2 -->
<g id="node2" class="node">
<title>Node2</title>
<g id="a_node2"><a xlink:href="group__tools__drafting__operation.html#ga4e20419a6d4623f21c05179fc8b6df95" target="_top" xlink:title="Construct drafting sheet axes.">
<polygon fill="white" stroke="black" points="347,-456.5 347,-475.5 414,-475.5 414,-456.5 347,-456.5"/>
<text text-anchor="middle" x="380.5" y="-463.5" font-family="Helvetica,sans-Serif" font-size="10.00">draft_axes</text>
</a>
</g>
</g>
<!-- Node1&#45;&gt;Node2 -->
<g id="edge1" class="edge">
<title>Node1&#45;&gt;Node2</title>
<path fill="none" stroke="midnightblue" d="M488.32,-257.79C488.92,-298.55 484.46,-392.6 435,-447 429.5,-453.05 421.94,-457.18 414.24,-459.99"/>
<polygon fill="midnightblue" stroke="midnightblue" points="491.82,-257.69 488.06,-247.79 484.83,-257.88 491.82,-257.69"/>
</g>
<!-- Node3 -->
<g id="node3" class="node">
<title>Node3</title>
<g id="a_node3"><a xlink:href="group__tools__drafting__primitive.html#gada1e771ce89ef86b6241c43dc01bf62d" target="_top" xlink:title="Draft a polygon with configurable style.">
<polygon fill="white" stroke="black" points="339,-418.5 339,-437.5 422,-437.5 422,-418.5 339,-418.5"/>
<text text-anchor="middle" x="380.5" y="-425.5" font-family="Helvetica,sans-Serif" font-size="10.00">draft_polygon</text>
</a>
</g>
</g>
<!-- Node1&#45;&gt;Node3 -->
<g id="edge2" class="edge">
<title>Node1&#45;&gt;Node3</title>
<path fill="none" stroke="midnightblue" d="M486.39,-257.57C483.47,-291.44 472.93,-361.42 435,-404 429.45,-410.23 421.96,-414.94 414.35,-418.45"/>
<polygon fill="midnightblue" stroke="midnightblue" points="489.88,-257.79 487.11,-247.56 482.9,-257.28 489.88,-257.79"/>
</g>
<!-- Node4 -->
<g id="node4" class="node">
<title>Node4</title>
<g id="a_node4"><a xlink:href="group__tools__extrude.html#ga45661244067bf945b684550c3263ee45" target="_top" xlink:title="Linearly extrude a 2d shape with multi&#45;segment uniformly&#45;spaced profile scaling.">
<polygon fill="white" stroke="black" points="176.5,-342.5 176.5,-361.5 289.5,-361.5 289.5,-342.5 176.5,-342.5"/>
<text text-anchor="middle" x="233" y="-349.5" font-family="Helvetica,sans-Serif" font-size="10.00">extrude_linear_mss</text>
</a>
</g>
</g>
<!-- Node1&#45;&gt;Node4 -->
<g id="edge3" class="edge">
<title>Node1&#45;&gt;Node4</title>
<path fill="none" stroke="midnightblue" d="M482.7,-257.29C476.03,-279.61 461.68,-315.51 435,-333 392.2,-361.05 332.84,-363.28 289.73,-360.03"/>
<polygon fill="midnightblue" stroke="midnightblue" points="486.09,-258.14 485.37,-247.57 479.34,-256.28 486.09,-258.14"/>
</g>
<!-- Node6 -->
<g id="node6" class="node">
<title>Node6</title>
<g id="a_node6"><a xlink:href="group__parts__3d__computer__pci__bracket.html#gaf56631cf80d8e5f0b77736b17b94ecd9" target="_top" xlink:title="PCI slot cover and adapter card bracket generator.">
<polygon fill="white" stroke="black" points="34,-380.5 34,-399.5 106,-399.5 106,-380.5 34,-380.5"/>
<text text-anchor="middle" x="70" y="-387.5" font-family="Helvetica,sans-Serif" font-size="10.00">pci_bracket</text>
</a>
</g>
</g>
<!-- Node1&#45;&gt;Node6 -->
<g id="edge13" class="edge">
<title>Node1&#45;&gt;Node6</title>
<path fill="none" stroke="midnightblue" d="M485.29,-257.96C481.01,-286.1 468.8,-336.7 435,-361 334.64,-433.17 175.97,-412.22 106.06,-398.14"/>
<polygon fill="midnightblue" stroke="midnightblue" points="488.8,-258.11 486.64,-247.74 481.86,-257.19 488.8,-258.11"/>
</g>
<!-- Node7 -->
<g id="node7" class="node">
<title>Node7</title>
<g id="a_node7"><a xlink:href="group__parts__3d__enclosure__project__box__rectangle.html#ga6a5d093d732e65556c46252220f2c4b6" target="_top" xlink:title="A rectangular box maker for project boxes, enclosures and housings.">
<polygon fill="white" stroke="black" points="7.5,-304.5 7.5,-323.5 132.5,-323.5 132.5,-304.5 7.5,-304.5"/>
<text text-anchor="middle" x="70" y="-311.5" font-family="Helvetica,sans-Serif" font-size="10.00">project_box_rectangle</text>
</a>
</g>
</g>
<!-- Node1&#45;&gt;Node7 -->
<g id="edge16" class="edge">
<title>Node1&#45;&gt;Node7</title>
<path fill="none" stroke="midnightblue" d="M461.22,-248.63C452.93,-251.68 443.68,-254.77 435,-257 330.45,-283.84 205.57,-300.06 132.59,-308"/>
<polygon fill="midnightblue" stroke="midnightblue" points="462.64,-251.83 470.74,-245 460.14,-245.29 462.64,-251.83"/>
</g>
<!-- Node8 -->
<g id="node8" class="node">
<title>Node8</title>
<g id="a_node8"><a xlink:href="group__tools__extrude.html#gab2442cfaf1ad44d6e295ab0979d9e03d" target="_top" xlink:title="Linearly extrude a 2d shape with uniformly&#45;spaced profile scaling.">
<polygon fill="white" stroke="black" points="326,-304.5 326,-323.5 435,-323.5 435,-304.5 326,-304.5"/>
<text text-anchor="middle" x="380.5" y="-311.5" font-family="Helvetica,sans-Serif" font-size="10.00">extrude_linear_uss</text>
</a>
</g>
</g>
<!-- Node1&#45;&gt;Node8 -->
<g id="edge7" class="edge">
<title>Node1&#45;&gt;Node8</title>
<path fill="none" stroke="midnightblue" d="M472.73,-255.58C462.87,-266.51 449.16,-280.29 435,-290 426.69,-295.7 416.8,-300.58 407.81,-304.42"/>
<polygon fill="midnightblue" stroke="midnightblue" points="475.5,-257.72 479.45,-247.89 470.24,-253.11 475.5,-257.72"/>
</g>
<!-- Node9 -->
<g id="node9" class="node">
<title>Node9</title>
<g id="a_node9"><a xlink:href="group__datatypes__map.html#ga4a3d0704d80be0d9e8bae1fcb3ab7958" target="_top" xlink:title="Perform basic format checks on a map and output errors to console.">
<polygon fill="white" stroke="black" points="344.5,-228.5 344.5,-247.5 416.5,-247.5 416.5,-228.5 344.5,-228.5"/>
<text text-anchor="middle" x="380.5" y="-235.5" font-family="Helvetica,sans-Serif" font-size="10.00">map_check</text>
</a>
</g>
</g>
<!-- Node1&#45;&gt;Node9 -->
<g id="edge10" class="edge">
<title>Node1&#45;&gt;Node9</title>
<path fill="none" stroke="midnightblue" d="M460.56,-238C447.27,-238 431.07,-238 416.8,-238"/>
<polygon fill="midnightblue" stroke="midnightblue" points="460.94,-241.5 470.94,-238 460.94,-234.5 460.94,-241.5"/>
</g>
<!-- Node11 -->
<g id="node11" class="node">
<title>Node11</title>
<g id="a_node11"><a xlink:href="group__datatypes__map.html#ga1ee3a7b76638ba11f1420da1dec59c8d" target="_top" xlink:title="Write formatted map entries to the console.">
<polygon fill="white" stroke="black" points="346.5,-190.5 346.5,-209.5 414.5,-209.5 414.5,-190.5 346.5,-190.5"/>
<text text-anchor="middle" x="380.5" y="-197.5" font-family="Helvetica,sans-Serif" font-size="10.00">map_write</text>
</a>
</g>
</g>
<!-- Node1&#45;&gt;Node11 -->
<g id="edge12" class="edge">
<title>Node1&#45;&gt;Node11</title>
<path fill="none" stroke="midnightblue" d="M461.3,-228.48C452.9,-225.44 443.56,-222.07 435,-219 426.37,-215.91 416.95,-212.55 408.45,-209.54"/>
<polygon fill="midnightblue" stroke="midnightblue" points="460.36,-231.87 470.96,-231.98 462.75,-225.29 460.36,-231.87"/>
</g>
<!-- Node12 -->
<g id="node12" class="node">
<title>Node12</title>
<g id="a_node12"><a xlink:href="group__tools__polytope.html#ga530c86f9c90ce074aa7adc29834f0539" target="_top" xlink:title="Assemble a polytope skeletal frame using child objects.">
<polygon fill="white" stroke="black" points="333.5,-152.5 333.5,-171.5 427.5,-171.5 427.5,-152.5 333.5,-152.5"/>
<text text-anchor="middle" x="380.5" y="-159.5" font-family="Helvetica,sans-Serif" font-size="10.00">polytope_frame</text>
</a>
</g>
</g>
<!-- Node1&#45;&gt;Node12 -->
<g id="edge14" class="edge">
<title>Node1&#45;&gt;Node12</title>
<path fill="none" stroke="midnightblue" d="M474.61,-219.9C464.95,-207.46 450.72,-191.38 435,-181 429.33,-177.25 422.82,-174.14 416.35,-171.6"/>
<polygon fill="midnightblue" stroke="midnightblue" points="472.01,-222.26 480.8,-228.17 477.62,-218.07 472.01,-222.26"/>
</g>
<!-- Node13 -->
<g id="node13" class="node">
<title>Node13</title>
<g id="a_node13"><a xlink:href="group__tools__polytope.html#ga00b574079f19251be7281151d11db8fa" target="_top" xlink:title="Label the vertices, paths, and edges of a polytope.">
<polygon fill="white" stroke="black" points="329.5,-114.5 329.5,-133.5 431.5,-133.5 431.5,-114.5 329.5,-114.5"/>
<text text-anchor="middle" x="380.5" y="-121.5" font-family="Helvetica,sans-Serif" font-size="10.00">polytope_number</text>
</a>
</g>
</g>
<!-- Node1&#45;&gt;Node13 -->
<g id="edge15" class="edge">
<title>Node1&#45;&gt;Node13</title>
<path fill="none" stroke="midnightblue" d="M481.55,-218.85C473.99,-197.51 458.97,-163.34 435,-143 430.42,-139.11 424.98,-136 419.35,-133.51"/>
<polygon fill="midnightblue" stroke="midnightblue" points="478.27,-220.06 484.75,-228.44 484.91,-217.84 478.27,-220.06"/>
</g>
<!-- Node14 -->
<g id="node14" class="node">
<title>Node14</title>
<g id="a_node14"><a xlink:href="group__datatypes__table.html#ga8a4429649e8b06d9f492e1a0d2653656" target="_top" xlink:title="Perform basic format checks on a table and output errors to console.">
<polygon fill="white" stroke="black" points="343,-76.5 343,-95.5 418,-95.5 418,-76.5 343,-76.5"/>
<text text-anchor="middle" x="380.5" y="-83.5" font-family="Helvetica,sans-Serif" font-size="10.00">table_check</text>
</a>
</g>
</g>
<!-- Node1&#45;&gt;Node14 -->
<g id="edge17" class="edge">
<title>Node1&#45;&gt;Node14</title>
<path fill="none" stroke="midnightblue" d="M484.94,-218.47C480.18,-189.76 467.31,-136.21 435,-105 430.25,-100.41 424.32,-96.92 418.16,-94.27"/>
<polygon fill="midnightblue" stroke="midnightblue" points="481.5,-219.1 486.44,-228.48 488.42,-218.07 481.5,-219.1"/>
</g>
<!-- Node17 -->
<g id="node17" class="node">
<title>Node17</title>
<g id="a_node17"><a xlink:href="group__datatypes__table.html#gaafc45abc1b8026ee1518fad87a042be3" target="_top" xlink:title="Dump a table to the console.">
<polygon fill="white" stroke="black" points="343.5,-38.5 343.5,-57.5 417.5,-57.5 417.5,-38.5 343.5,-38.5"/>
<text text-anchor="middle" x="380.5" y="-45.5" font-family="Helvetica,sans-Serif" font-size="10.00">table_dump</text>
</a>
</g>
</g>
<!-- Node1&#45;&gt;Node17 -->
<g id="edge20" class="edge">
<title>Node1&#45;&gt;Node17</title>
<path fill="none" stroke="midnightblue" d="M486.95,-218.02C484.92,-182.84 475.72,-109.52 435,-67 430.23,-62.02 424.07,-58.34 417.63,-55.62"/>
<polygon fill="midnightblue" stroke="midnightblue" points="483.47,-218.55 487.4,-228.39 490.47,-218.25 483.47,-218.55"/>
</g>
<!-- Node18 -->
<g id="node18" class="node">
<title>Node18</title>
<g id="a_node18"><a xlink:href="group__datatypes__table.html#ga8d212217f9acb803e3107f488d5523e6" target="_top" xlink:title="Write formatted map entries to the console.">
<polygon fill="white" stroke="black" points="345,-0.5 345,-19.5 416,-19.5 416,-0.5 345,-0.5"/>
<text text-anchor="middle" x="380.5" y="-7.5" font-family="Helvetica,sans-Serif" font-size="10.00">table_write</text>
</a>
</g>
</g>
<!-- Node1&#45;&gt;Node18 -->
<g id="edge21" class="edge">
<title>Node1&#45;&gt;Node18</title>
<path fill="none" stroke="midnightblue" d="M488.32,-218.21C488.92,-177.45 484.46,-83.4 435,-29 429.96,-23.46 423.2,-19.53 416.18,-16.75"/>
<polygon fill="midnightblue" stroke="midnightblue" points="484.83,-218.12 488.06,-228.21 491.82,-218.31 484.83,-218.12"/>
</g>
<!-- Node5 -->
<g id="node5" class="node">
<title>Node5</title>
<g id="a_node5"><a xlink:href="group__parts__3d__bearing__bearing__linear__rod.html#ga48399d5e708b4894494c69b2d1e88e26" target="_top" xlink:title="Transform 2d or 3d shape into a linear rod ball or sled bearing.">
<polygon fill="white" stroke="black" points="0,-342.5 0,-361.5 140,-361.5 140,-342.5 0,-342.5"/>
<text text-anchor="middle" x="70" y="-349.5" font-family="Helvetica,sans-Serif" font-size="10.00">make_bearing_linear_rod</text>
</a>
</g>
</g>
<!-- Node4&#45;&gt;Node5 -->
<g id="edge4" class="edge">
<title>Node4&#45;&gt;Node5</title>
<path fill="none" stroke="midnightblue" d="M165.9,-352C157.39,-352 148.65,-352 140.1,-352"/>
<polygon fill="midnightblue" stroke="midnightblue" points="166.14,-355.5 176.14,-352 166.14,-348.5 166.14,-355.5"/>
</g>
<!-- Node4&#45;&gt;Node6 -->
<g id="edge5" class="edge">
<title>Node4&#45;&gt;Node6</title>
<path fill="none" stroke="midnightblue" d="M181.53,-363.91C157.03,-369.69 128.21,-376.5 106.15,-381.7"/>
<polygon fill="midnightblue" stroke="midnightblue" points="182.44,-367.29 191.37,-361.59 180.84,-360.48 182.44,-367.29"/>
</g>
<!-- Node4&#45;&gt;Node7 -->
<g id="edge6" class="edge">
<title>Node4&#45;&gt;Node7</title>
<path fill="none" stroke="midnightblue" d="M181.6,-340.1C158.97,-334.76 132.63,-328.55 111.33,-323.52"/>
<polygon fill="midnightblue" stroke="midnightblue" points="180.84,-343.52 191.37,-342.41 182.44,-336.71 180.84,-343.52"/>
</g>
<!-- Node8&#45;&gt;Node4 -->
<g id="edge8" class="edge">
<title>Node8&#45;&gt;Node4</title>
<path fill="none" stroke="midnightblue" d="M332.85,-326.18C312.65,-331.46 289.35,-337.54 270.45,-342.48"/>
<polygon fill="midnightblue" stroke="midnightblue" points="333.99,-329.5 342.78,-323.59 332.22,-322.73 333.99,-329.5"/>
</g>
<!-- Node8&#45;&gt;Node7 -->
<g id="edge9" class="edge">
<title>Node8&#45;&gt;Node7</title>
<path fill="none" stroke="midnightblue" d="M315.67,-314C261.97,-314 185.66,-314 132.6,-314"/>
<polygon fill="midnightblue" stroke="midnightblue" points="315.76,-317.5 325.76,-314 315.76,-310.5 315.76,-317.5"/>
</g>
<!-- Node10 -->
<g id="node10" class="node">
<title>Node10</title>
<g id="a_node10"><a xlink:href="group__common__validation.html#ga3afe594ef417bc40429be81e044d29bc" target="_top" xlink:title="Test data structure db and output the start of test to the test log.">
<polygon fill="white" stroke="black" points="177.5,-228.5 177.5,-247.5 288.5,-247.5 288.5,-228.5 177.5,-228.5"/>
<text text-anchor="middle" x="233" y="-235.5" font-family="Helvetica,sans-Serif" font-size="10.00">map_validate_start</text>
</a>
</g>
</g>
<!-- Node9&#45;&gt;Node10 -->
<g id="edge11" class="edge">
<title>Node9&#45;&gt;Node10</title>
<path fill="none" stroke="midnightblue" d="M334.15,-238C319.77,-238 303.73,-238 288.77,-238"/>
<polygon fill="midnightblue" stroke="midnightblue" points="334.28,-241.5 344.28,-238 334.28,-234.5 334.28,-241.5"/>
</g>
<!-- Node15 -->
<g id="node15" class="node">
<title>Node15</title>
<g id="a_node15"><a xlink:href="group__datatypes__table.html#ga7a45ee72b36421f4e73cfba4488f14be" target="_top" xlink:title="Dump table getter functions to the console.">
<polygon fill="white" stroke="black" points="176,-57.5 176,-76.5 290,-76.5 290,-57.5 176,-57.5"/>
<text text-anchor="middle" x="233" y="-64.5" font-family="Helvetica,sans-Serif" font-size="10.00">table_dump_getters</text>
</a>
</g>
</g>
<!-- Node14&#45;&gt;Node15 -->
<g id="edge18" class="edge">
<title>Node14&#45;&gt;Node15</title>
<path fill="none" stroke="midnightblue" d="M332.74,-79.89C319.22,-78.13 304.31,-76.18 290.26,-74.35"/>
<polygon fill="midnightblue" stroke="midnightblue" points="332.42,-83.38 342.78,-81.21 333.32,-76.44 332.42,-83.38"/>
</g>
<!-- Node16 -->
<g id="node16" class="node">
<title>Node16</title>
<g id="a_node16"><a xlink:href="group__common__validation.html#ga19d0234700fba9de9fb0cba52a3d8e17" target="_top" xlink:title="Test data structure db and output the start of test to the test log.">
<polygon fill="white" stroke="black" points="176,-95.5 176,-114.5 290,-114.5 290,-95.5 176,-95.5"/>
<text text-anchor="middle" x="233" y="-102.5" font-family="Helvetica,sans-Serif" font-size="10.00">table_validate_start</text>
</a>
</g>
</g>
<!-- Node14&#45;&gt;Node16 -->
<g id="edge19" class="edge">
<title>Node14&#45;&gt;Node16</title>
<path fill="none" stroke="midnightblue" d="M332.74,-92.11C319.22,-93.87 304.31,-95.82 290.26,-97.65"/>
<polygon fill="midnightblue" stroke="midnightblue" points="333.32,-95.56 342.78,-90.79 332.42,-88.62 333.32,-95.56"/>
</g>
</g>
</svg>
