<?xml version="1.0" encoding="UTF-8" standalone="no"?>
<!DOCTYPE svg PUBLIC "-//W3C//DTD SVG 1.1//EN"
 "http://www.w3.org/Graphics/SVG/1.1/DTD/svg11.dtd">
<!-- Generated by graphviz version 2.43.0 (0)
 -->
<!-- Title: translate_p Pages: 1 -->
<svg width="528pt" height="284pt"
 viewBox="0.00 0.00 528.00 284.00" xmlns="http://www.w3.org/2000/svg" xmlns:xlink="http://www.w3.org/1999/xlink">
<g id="graph0" class="graph" transform="scale(1 1) rotate(0) translate(4 280)">
<title>translate_p</title>
<polygon fill="white" stroke="transparent" points="-4,4 -4,-280 524,-280 524,4 -4,4"/>
<!-- Node1 -->
<g id="node1" class="node">
<title>Node1</title>
<g id="a_node1"><a xlink:title="Translate all coordinates dimensions.">
<polygon fill="#bfbfbf" stroke="black" points="449,-142.5 449,-161.5 520,-161.5 520,-142.5 449,-142.5"/>
<text text-anchor="middle" x="484.5" y="-149.5" font-family="Helvetica,sans-Serif" font-size="10.00">translate_p</text>
</a>
</g>
</g>
<!-- Node2 -->
<g id="node2" class="node">
<title>Node2</title>
<g id="a_node2"><a xlink:href="group__shapes__polygon.html#ga1151092c15142c227983e6bd481872b3" target="_top" xlink:title="A n&#45;sided regular polygon with vertex rounding.">
<polygon fill="white" stroke="black" points="331,-256.5 331,-275.5 389,-275.5 389,-256.5 331,-256.5"/>
<text text-anchor="middle" x="360" y="-263.5" font-family="Helvetica,sans-Serif" font-size="10.00">pg_ngon</text>
</a>
</g>
</g>
<!-- Node1&#45;&gt;Node2 -->
<g id="edge1" class="edge">
<title>Node1&#45;&gt;Node2</title>
<path fill="none" stroke="midnightblue" d="M472.84,-170.33C460.55,-190.17 438.68,-221.68 413,-242 405.59,-247.86 396.52,-252.68 388.04,-256.42"/>
<polygon fill="midnightblue" stroke="midnightblue" points="475.92,-172 478.09,-161.63 469.93,-168.39 475.92,-172"/>
</g>
<!-- Node3 -->
<g id="node3" class="node">
<title>Node3</title>
<g id="a_node3"><a xlink:href="group__shapes__polygon.html#ga9c1bd914355d92f9d66ba0e5c2d9dbac" target="_top" xlink:title="A polygon rectangle with vertex rounding.">
<polygon fill="white" stroke="black" points="176,-209.5 176,-228.5 256,-228.5 256,-209.5 176,-209.5"/>
<text text-anchor="middle" x="216" y="-216.5" font-family="Helvetica,sans-Serif" font-size="10.00">pg_rectangle</text>
</a>
</g>
</g>
<!-- Node1&#45;&gt;Node3 -->
<g id="edge2" class="edge">
<title>Node1&#45;&gt;Node3</title>
<path fill="none" stroke="midnightblue" d="M468.27,-169.21C455.14,-182.73 434.87,-200.63 413,-209 361.45,-228.73 296.65,-227.49 256.02,-223.92"/>
<polygon fill="midnightblue" stroke="midnightblue" points="470.87,-171.56 475.14,-161.86 465.76,-166.78 470.87,-171.56"/>
</g>
<!-- Node5 -->
<g id="node5" class="node">
<title>Node5</title>
<g id="a_node5"><a xlink:href="group__shapes__polygon.html#ga22a29774c22e5cc9f3101ed0a0ed307a" target="_top" xlink:title="A polygon rectangle with side rounding.">
<polygon fill="white" stroke="black" points="313,-180.5 313,-199.5 407,-199.5 407,-180.5 313,-180.5"/>
<text text-anchor="middle" x="360" y="-187.5" font-family="Helvetica,sans-Serif" font-size="10.00">pg_rectangle_rs</text>
</a>
</g>
</g>
<!-- Node1&#45;&gt;Node5 -->
<g id="edge4" class="edge">
<title>Node1&#45;&gt;Node5</title>
<path fill="none" stroke="midnightblue" d="M442.62,-164.68C426.07,-169.81 407.28,-175.64 391.9,-180.41"/>
<polygon fill="midnightblue" stroke="midnightblue" points="444.07,-167.89 452.59,-161.59 442,-161.21 444.07,-167.89"/>
</g>
<!-- Node6 -->
<g id="node6" class="node">
<title>Node6</title>
<g id="a_node6"><a xlink:href="group__shapes__polygon.html#ga2ca38d6942a8955d3b483d1a60bf7ec3" target="_top" xlink:title="A polygon rhombus with vertex rounding.">
<polygon fill="white" stroke="black" points="321.5,-142.5 321.5,-161.5 398.5,-161.5 398.5,-142.5 321.5,-142.5"/>
<text text-anchor="middle" x="360" y="-149.5" font-family="Helvetica,sans-Serif" font-size="10.00">pg_rhombus</text>
</a>
</g>
</g>
<!-- Node1&#45;&gt;Node6 -->
<g id="edge5" class="edge">
<title>Node1&#45;&gt;Node6</title>
<path fill="none" stroke="midnightblue" d="M438.55,-152C425.52,-152 411.42,-152 398.87,-152"/>
<polygon fill="midnightblue" stroke="midnightblue" points="438.72,-155.5 448.72,-152 438.72,-148.5 438.72,-155.5"/>
</g>
<!-- Node7 -->
<g id="node7" class="node">
<title>Node7</title>
<g id="a_node7"><a xlink:href="group__shapes__polygon.html#ga155ae943a1aa91432b1992fd1de364c2" target="_top" xlink:title="A polygon trapezoid with individual vertex rounding and arc facets.">
<polygon fill="white" stroke="black" points="320,-104.5 320,-123.5 400,-123.5 400,-104.5 320,-104.5"/>
<text text-anchor="middle" x="360" y="-111.5" font-family="Helvetica,sans-Serif" font-size="10.00">pg_trapezoid</text>
</a>
</g>
</g>
<!-- Node1&#45;&gt;Node7 -->
<g id="edge6" class="edge">
<title>Node1&#45;&gt;Node7</title>
<path fill="none" stroke="midnightblue" d="M442.62,-139.32C426.07,-134.19 407.28,-128.36 391.9,-123.59"/>
<polygon fill="midnightblue" stroke="midnightblue" points="442,-142.79 452.59,-142.41 444.07,-136.11 442,-142.79"/>
</g>
<!-- Node9 -->
<g id="node9" class="node">
<title>Node9</title>
<g id="a_node9"><a xlink:href="group__shapes__polygon.html#gac7e2c70b3428b729efd86a675df794e6" target="_top" xlink:title="A polygon triangle specified by three coordinate points with vertex rounding.">
<polygon fill="white" stroke="black" points="312.5,-66.5 312.5,-85.5 407.5,-85.5 407.5,-66.5 312.5,-66.5"/>
<text text-anchor="middle" x="360" y="-73.5" font-family="Helvetica,sans-Serif" font-size="10.00">pg_triangle_ppp</text>
</a>
</g>
</g>
<!-- Node1&#45;&gt;Node9 -->
<g id="edge8" class="edge">
<title>Node1&#45;&gt;Node9</title>
<path fill="none" stroke="midnightblue" d="M466.18,-135.25C452.59,-122.83 432.74,-106.17 413,-95 406.56,-91.35 399.29,-88.18 392.27,-85.53"/>
<polygon fill="midnightblue" stroke="midnightblue" points="464.08,-138.08 473.77,-142.35 468.86,-132.97 464.08,-138.08"/>
</g>
<!-- Node14 -->
<g id="node14" class="node">
<title>Node14</title>
<g id="a_node14"><a xlink:href="group__shapes__polyhedron__db.html#gaae64c8fb78026896742050d14a5e8911" target="_top" xlink:title="Construct a named polyhedron.">
<polygon fill="white" stroke="black" points="307,-28.5 307,-47.5 413,-47.5 413,-28.5 307,-28.5"/>
<text text-anchor="middle" x="360" y="-35.5" font-family="Helvetica,sans-Serif" font-size="10.00">ph_db_polyhedron</text>
</a>
</g>
</g>
<!-- Node1&#45;&gt;Node14 -->
<g id="edge14" class="edge">
<title>Node1&#45;&gt;Node14</title>
<path fill="none" stroke="midnightblue" d="M474.11,-133.49C462.46,-112.24 440.7,-77.68 413,-57 407.92,-53.2 402,-50.1 396.01,-47.59"/>
<polygon fill="midnightblue" stroke="midnightblue" points="471.09,-135.27 478.87,-142.47 477.28,-131.99 471.09,-135.27"/>
</g>
<!-- Node4 -->
<g id="node4" class="node">
<title>Node4</title>
<g id="a_node4"><a xlink:href="group__parts__3d__enclosure__project__box__rectangle.html#ga6a5d093d732e65556c46252220f2c4b6" target="_top" xlink:title="A rectangular box maker for project boxes, enclosures and housings.">
<polygon fill="white" stroke="black" points="0,-123.5 0,-142.5 125,-142.5 125,-123.5 0,-123.5"/>
<text text-anchor="middle" x="62.5" y="-130.5" font-family="Helvetica,sans-Serif" font-size="10.00">project_box_rectangle</text>
</a>
</g>
</g>
<!-- Node3&#45;&gt;Node4 -->
<g id="edge3" class="edge">
<title>Node3&#45;&gt;Node4</title>
<path fill="none" stroke="midnightblue" d="M189.27,-204.39C158.19,-186.75 106.81,-157.58 80.37,-142.57"/>
<polygon fill="midnightblue" stroke="midnightblue" points="187.78,-207.58 198.21,-209.47 191.24,-201.49 187.78,-207.58"/>
</g>
<!-- Node8 -->
<g id="node8" class="node">
<title>Node8</title>
<g id="a_node8"><a xlink:href="group__shapes__revolved.html#ga69b374bbebd7d87cfcd06b6bd3278404" target="_top" xlink:title="A trapezoidal cross&#45;sectional profile revolved about the z&#45;axis.">
<polygon fill="white" stroke="black" points="161,-152.5 161,-171.5 271,-171.5 271,-152.5 161,-152.5"/>
<text text-anchor="middle" x="216" y="-159.5" font-family="Helvetica,sans-Serif" font-size="10.00">torus_pg_trapezoid</text>
</a>
</g>
</g>
<!-- Node7&#45;&gt;Node8 -->
<g id="edge7" class="edge">
<title>Node7&#45;&gt;Node8</title>
<path fill="none" stroke="midnightblue" d="M320.85,-126.9C297.08,-134.93 267,-145.1 245.35,-152.42"/>
<polygon fill="midnightblue" stroke="midnightblue" points="322.25,-130.12 330.61,-123.6 320.01,-123.48 322.25,-130.12"/>
</g>
<!-- Node10 -->
<g id="node10" class="node">
<title>Node10</title>
<g id="a_node10"><a xlink:href="group__shapes__polygon.html#gad85d14f73179499777da1e9297fbcae8" target="_top" xlink:title="A polygon triangle specified by angle&#45;angle&#45;size with vertex rounding.">
<polygon fill="white" stroke="black" points="169,-114.5 169,-133.5 263,-133.5 263,-114.5 169,-114.5"/>
<text text-anchor="middle" x="216" y="-121.5" font-family="Helvetica,sans-Serif" font-size="10.00">pg_triangle_aas</text>
</a>
</g>
</g>
<!-- Node9&#45;&gt;Node10 -->
<g id="edge9" class="edge">
<title>Node9&#45;&gt;Node10</title>
<path fill="none" stroke="midnightblue" d="M320.85,-88.9C297.08,-96.93 267,-107.1 245.35,-114.42"/>
<polygon fill="midnightblue" stroke="midnightblue" points="322.25,-92.12 330.61,-85.6 320.01,-85.48 322.25,-92.12"/>
</g>
<!-- Node11 -->
<g id="node11" class="node">
<title>Node11</title>
<g id="a_node11"><a xlink:href="group__shapes__polygon.html#ga45e8a17aef3dd6755f833f25a8937cf7" target="_top" xlink:title="A polygon triangle specified by angle&#45;size&#45;angle with vertex rounding.">
<polygon fill="white" stroke="black" points="169,-76.5 169,-95.5 263,-95.5 263,-76.5 169,-76.5"/>
<text text-anchor="middle" x="216" y="-83.5" font-family="Helvetica,sans-Serif" font-size="10.00">pg_triangle_asa</text>
</a>
</g>
</g>
<!-- Node9&#45;&gt;Node11 -->
<g id="edge10" class="edge">
<title>Node9&#45;&gt;Node11</title>
<path fill="none" stroke="midnightblue" d="M301.99,-80.01C289.16,-80.92 275.69,-81.87 263.36,-82.74"/>
<polygon fill="midnightblue" stroke="midnightblue" points="302.38,-83.5 312.11,-79.3 301.89,-76.51 302.38,-83.5"/>
</g>
<!-- Node12 -->
<g id="node12" class="node">
<title>Node12</title>
<g id="a_node12"><a xlink:href="group__shapes__polygon.html#ga24be160074502dce7ff8a78361d4b074" target="_top" xlink:title="A polygon triangle specified by size&#45;angle&#45;size with vertex rounding.">
<polygon fill="white" stroke="black" points="169.5,-38.5 169.5,-57.5 262.5,-57.5 262.5,-38.5 169.5,-38.5"/>
<text text-anchor="middle" x="216" y="-45.5" font-family="Helvetica,sans-Serif" font-size="10.00">pg_triangle_sas</text>
</a>
</g>
</g>
<!-- Node9&#45;&gt;Node12 -->
<g id="edge11" class="edge">
<title>Node9&#45;&gt;Node12</title>
<path fill="none" stroke="midnightblue" d="M302.27,-64.81C289.18,-62.23 275.43,-59.52 262.87,-57.05"/>
<polygon fill="midnightblue" stroke="midnightblue" points="301.62,-68.25 312.11,-66.75 302.98,-61.39 301.62,-68.25"/>
</g>
<!-- Node13 -->
<g id="node13" class="node">
<title>Node13</title>
<g id="a_node13"><a xlink:href="group__shapes__polygon.html#gab9843df753e0537b490ac67cec6e31a9" target="_top" xlink:title="A polygon triangle specified by three side lengths with vertex rounding.">
<polygon fill="white" stroke="black" points="170,-0.5 170,-19.5 262,-19.5 262,-0.5 170,-0.5"/>
<text text-anchor="middle" x="216" y="-7.5" font-family="Helvetica,sans-Serif" font-size="10.00">pg_triangle_sss</text>
</a>
</g>
</g>
<!-- Node9&#45;&gt;Node13 -->
<g id="edge13" class="edge">
<title>Node9&#45;&gt;Node13</title>
<path fill="none" stroke="midnightblue" d="M318.66,-62.69C314.64,-60.94 310.69,-59.04 307,-57 289.27,-47.18 288.79,-38.71 271,-29 264.37,-25.38 256.92,-22.24 249.72,-19.6"/>
<polygon fill="midnightblue" stroke="midnightblue" points="317.47,-65.99 328.05,-66.48 320.09,-59.49 317.47,-65.99"/>
</g>
<!-- Node12&#45;&gt;Node4 -->
<g id="edge12" class="edge">
<title>Node12&#45;&gt;Node4</title>
<path fill="none" stroke="midnightblue" d="M173.92,-61.2C169.49,-62.99 165.1,-64.93 161,-67 128.14,-83.55 93.29,-109.46 75.49,-123.38"/>
<polygon fill="midnightblue" stroke="midnightblue" points="175.49,-64.35 183.59,-57.52 173,-57.8 175.49,-64.35"/>
</g>
</g>
</svg>
