<?xml version="1.0" encoding="UTF-8" standalone="no"?>
<!DOCTYPE svg PUBLIC "-//W3C//DTD SVG 1.1//EN"
 "http://www.w3.org/Graphics/SVG/1.1/DTD/svg11.dtd">
<!-- Generated by graphviz version 2.43.0 (0)
 -->
<!-- Title: map_get_size Pages: 1 -->
<svg width="347pt" height="104pt"
 viewBox="0.00 0.00 347.00 104.00" xmlns="http://www.w3.org/2000/svg" xmlns:xlink="http://www.w3.org/1999/xlink">
<g id="graph0" class="graph" transform="scale(1 1) rotate(0) translate(4 100)">
<title>map_get_size</title>
<polygon fill="white" stroke="transparent" points="-4,4 -4,-100 343,-100 343,4 -4,4"/>
<!-- Node1 -->
<g id="node1" class="node">
<title>Node1</title>
<g id="a_node1"><a xlink:title="Get the number of map entries.">
<polygon fill="#bfbfbf" stroke="black" points="255,-38.5 255,-57.5 339,-57.5 339,-38.5 255,-38.5"/>
<text text-anchor="middle" x="297" y="-45.5" font-family="Helvetica,sans-Serif" font-size="10.00">map_get_size</text>
</a>
</g>
</g>
<!-- Node2 -->
<g id="node2" class="node">
<title>Node2</title>
<g id="a_node2"><a xlink:href="group__datatypes__map.html#ga4a3d0704d80be0d9e8bae1fcb3ab7958" target="_top" xlink:title="Perform basic format checks on a map and output errors to console.">
<polygon fill="white" stroke="black" points="147,-76.5 147,-95.5 219,-95.5 219,-76.5 147,-76.5"/>
<text text-anchor="middle" x="183" y="-83.5" font-family="Helvetica,sans-Serif" font-size="10.00">map_check</text>
</a>
</g>
</g>
<!-- Node1&#45;&gt;Node2 -->
<g id="edge1" class="edge">
<title>Node1&#45;&gt;Node2</title>
<path fill="none" stroke="midnightblue" d="M258.2,-60.83C243.17,-65.92 226.18,-71.69 212.25,-76.41"/>
<polygon fill="midnightblue" stroke="midnightblue" points="259.39,-64.12 267.74,-57.59 257.14,-57.49 259.39,-64.12"/>
</g>
<!-- Node4 -->
<g id="node4" class="node">
<title>Node4</title>
<g id="a_node4"><a xlink:href="group__datatypes__map.html#ga680cb75c8d9f3769064128e9c3d5800e" target="_top" xlink:title="Dump each map entry to the console.">
<polygon fill="white" stroke="black" points="147.5,-38.5 147.5,-57.5 218.5,-57.5 218.5,-38.5 147.5,-38.5"/>
<text text-anchor="middle" x="183" y="-45.5" font-family="Helvetica,sans-Serif" font-size="10.00">map_dump</text>
</a>
</g>
</g>
<!-- Node1&#45;&gt;Node4 -->
<g id="edge3" class="edge">
<title>Node1&#45;&gt;Node4</title>
<path fill="none" stroke="midnightblue" d="M244.75,-48C235.96,-48 227.03,-48 218.8,-48"/>
<polygon fill="midnightblue" stroke="midnightblue" points="244.93,-51.5 254.93,-48 244.93,-44.5 244.93,-51.5"/>
</g>
<!-- Node5 -->
<g id="node5" class="node">
<title>Node5</title>
<g id="a_node5"><a xlink:href="group__datatypes__map.html#ga1ee3a7b76638ba11f1420da1dec59c8d" target="_top" xlink:title="Write formatted map entries to the console.">
<polygon fill="white" stroke="black" points="149,-0.5 149,-19.5 217,-19.5 217,-0.5 149,-0.5"/>
<text text-anchor="middle" x="183" y="-7.5" font-family="Helvetica,sans-Serif" font-size="10.00">map_write</text>
</a>
</g>
</g>
<!-- Node1&#45;&gt;Node5 -->
<g id="edge4" class="edge">
<title>Node1&#45;&gt;Node5</title>
<path fill="none" stroke="midnightblue" d="M258.2,-35.17C243.17,-30.08 226.18,-24.31 212.25,-19.59"/>
<polygon fill="midnightblue" stroke="midnightblue" points="257.14,-38.51 267.74,-38.41 259.39,-31.88 257.14,-38.51"/>
</g>
<!-- Node3 -->
<g id="node3" class="node">
<title>Node3</title>
<g id="a_node3"><a xlink:href="group__common__validation.html#ga3afe594ef417bc40429be81e044d29bc" target="_top" xlink:title="Test data structure db and output the start of test to the test log.">
<polygon fill="white" stroke="black" points="0,-76.5 0,-95.5 111,-95.5 111,-76.5 0,-76.5"/>
<text text-anchor="middle" x="55.5" y="-83.5" font-family="Helvetica,sans-Serif" font-size="10.00">map_validate_start</text>
</a>
</g>
</g>
<!-- Node2&#45;&gt;Node3 -->
<g id="edge2" class="edge">
<title>Node2&#45;&gt;Node3</title>
<path fill="none" stroke="midnightblue" d="M136.57,-86C128.34,-86 119.69,-86 111.23,-86"/>
<polygon fill="midnightblue" stroke="midnightblue" points="136.71,-89.5 146.71,-86 136.71,-82.5 136.71,-89.5"/>
</g>
</g>
</svg>
