<?xml version="1.0" encoding="UTF-8" standalone="no"?>
<!DOCTYPE svg PUBLIC "-//W3C//DTD SVG 1.1//EN"
 "http://www.w3.org/Graphics/SVG/1.1/DTD/svg11.dtd">
<!-- Generated by graphviz version 2.43.0 (0)
 -->
<!-- Title: Basic 3d Pages: 1 -->
<svg width="223pt" height="35pt"
 viewBox="0.00 0.00 223.00 35.03" xmlns="http://www.w3.org/2000/svg" xmlns:xlink="http://www.w3.org/1999/xlink">
<g id="graph0" class="graph" transform="scale(1 1) rotate(0) translate(4 31.03)">
<title>Basic 3d</title>
<polygon fill="white" stroke="transparent" points="-4,4 -4,-31.03 219,-31.03 219,4 -4,4"/>
<!-- Node2 -->
<g id="node1" class="node">
<title>Node2</title>
<g id="a_node1"><a xlink:href="group__shapes.html" target="_top" xlink:title="Geometric shapes and basic constructs.">
<polygon fill="white" stroke="black" points="52,-27.03 0,-27.03 0,-8.03 52,-8.03 52,-27.03"/>
<text text-anchor="middle" x="26" y="-15.03" font-family="Helvetica,sans-Serif" font-size="10.00">Shapes</text>
</a>
</g>
</g>
<!-- Node1 -->
<g id="node2" class="node">
<title>Node1</title>
<g id="a_node2"><a xlink:title="Basic 3D shapes.">
<polygon fill="#bfbfbf" stroke="black" points="215,-27.03 157,-27.03 157,-8.03 215,-8.03 215,-27.03"/>
<text text-anchor="middle" x="186" y="-15.03" font-family="Helvetica,sans-Serif" font-size="10.00">Basic 3d</text>
</a>
</g>
</g>
<!-- Node2&#45;&gt;Node1 -->
<g id="edge1" class="edge">
<title>Node2&#45;&gt;Node1</title>
<path fill="none" stroke="black" d="M62.38,-17.53C90.91,-17.53 130.49,-17.53 156.88,-17.53"/>
<polygon fill="black" stroke="black" points="62.04,-14.03 52.04,-17.53 62.04,-21.03 62.04,-14.03"/>
</g>
<!-- Node1&#45;&gt;Node2 -->
<g id="edge2" class="edge">
<title>Node1&#45;&gt;Node2</title>
<path fill="none" stroke="darkgreen" stroke-dasharray="5,2" d="M158.55,-8.03C152.23,-6.16 145.44,-4.49 139,-3.53 108.67,0.98 100.29,1.27 70,-3.53 63.95,-4.49 57.6,-6.17 51.68,-8.03"/>
<text text-anchor="middle" x="104.5" y="-6.53" font-family="Helvetica,sans-Serif" font-size="10.00">basic_3d.scad</text>
</g>
</g>
</svg>
