<?xml version="1.0" encoding="UTF-8" standalone="no"?>
<!DOCTYPE svg PUBLIC "-//W3C//DTD SVG 1.1//EN"
 "http://www.w3.org/Graphics/SVG/1.1/DTD/svg11.dtd">
<!-- Generated by graphviz version 2.43.0 (0)
 -->
<!-- Title: Cylindrical Pages: 1 -->
<svg width="241pt" height="29pt"
 viewBox="0.00 0.00 241.00 28.50" xmlns="http://www.w3.org/2000/svg" xmlns:xlink="http://www.w3.org/1999/xlink">
<g id="graph0" class="graph" transform="scale(1 1) rotate(0) translate(4 24.5)">
<title>Cylindrical</title>
<polygon fill="white" stroke="transparent" points="-4,4 -4,-24.5 237,-24.5 237,4 -4,4"/>
<!-- Node1 -->
<g id="node1" class="node">
<title>Node1</title>
<g id="a_node1"><a xlink:title="Cylindrical batteries data table.">
<polygon fill="#bfbfbf" stroke="black" points="68,-19 0,-19 0,0 68,0 68,-19"/>
<text text-anchor="middle" x="34" y="-7" font-family="Helvetica,sans-Serif" font-size="10.00">Cylindrical</text>
</a>
</g>
</g>
<!-- Node2 -->
<g id="node2" class="node">
<title>Node2</title>
<g id="a_node2"><a xlink:href="group__database__component__battery.html" target="_top" xlink:title="Electric battery specifications.">
<polygon fill="white" stroke="black" points="233,-19 180,-19 180,0 233,0 233,-19"/>
<text text-anchor="middle" x="206.5" y="-7" font-family="Helvetica,sans-Serif" font-size="10.00">Battery</text>
</a>
</g>
</g>
<!-- Node1&#45;&gt;Node2 -->
<g id="edge2" class="edge">
<title>Node1&#45;&gt;Node2</title>
<path fill="none" stroke="darkgreen" stroke-dasharray="5,2" d="M68.28,-9.5C100.94,-9.5 150.05,-9.5 179.81,-9.5"/>
<text text-anchor="middle" x="124" y="-12.5" font-family="Helvetica,sans-Serif" font-size="10.00">cylindrical.scad</text>
</g>
<!-- Node2&#45;&gt;Node1 -->
<g id="edge1" class="edge">
<title>Node2&#45;&gt;Node1</title>
<path fill="none" stroke="black" d="M169.72,-7.72C167.11,-7.63 164.51,-7.56 162,-7.5 128.23,-6.72 119.77,-6.84 86,-7.5 80.24,-7.61 74.12,-7.8 68.19,-8.01"/>
<polygon fill="black" stroke="black" points="169.61,-11.22 179.74,-8.12 169.89,-4.23 169.61,-11.22"/>
</g>
</g>
</svg>
