<?xml version="1.0" encoding="UTF-8" standalone="no"?>
<!DOCTYPE svg PUBLIC "-//W3C//DTD SVG 1.1//EN"
 "http://www.w3.org/Graphics/SVG/1.1/DTD/svg11.dtd">
<!-- Generated by graphviz version 2.43.0 (0)
 -->
<!-- Title: defined_or Pages: 1 -->
<svg width="376pt" height="560pt"
 viewBox="0.00 0.00 376.00 560.00" xmlns="http://www.w3.org/2000/svg" xmlns:xlink="http://www.w3.org/1999/xlink">
<g id="graph0" class="graph" transform="scale(1 1) rotate(0) translate(4 556)">
<title>defined_or</title>
<polygon fill="white" stroke="transparent" points="-4,4 -4,-556 372,-556 372,4 -4,4"/>
<!-- Node1 -->
<g id="node1" class="node">
<title>Node1</title>
<g id="a_node1"><a xlink:title="Return given value, if defined, or a secondary value, if primary is not defined.">
<polygon fill="#bfbfbf" stroke="black" points="300,-266.5 300,-285.5 368,-285.5 368,-266.5 300,-266.5"/>
<text text-anchor="middle" x="334" y="-273.5" font-family="Helvetica,sans-Serif" font-size="10.00">defined_or</text>
</a>
</g>
</g>
<!-- Node2 -->
<g id="node2" class="node">
<title>Node2</title>
<g id="a_node2"><a xlink:href="group__shapes__basic__3d.html#ga66f0c4a748f33cc1fff3343655b17f45" target="_top" xlink:title="A cone.">
<polygon fill="white" stroke="black" points="181.5,-532.5 181.5,-551.5 221.5,-551.5 221.5,-532.5 181.5,-532.5"/>
<text text-anchor="middle" x="201.5" y="-539.5" font-family="Helvetica,sans-Serif" font-size="10.00">cone</text>
</a>
</g>
</g>
<!-- Node1&#45;&gt;Node2 -->
<g id="edge1" class="edge">
<title>Node1&#45;&gt;Node2</title>
<path fill="none" stroke="midnightblue" d="M332.99,-296.03C331.89,-341.42 322.96,-453.2 264,-518 253.05,-530.04 235.32,-536.11 221.71,-539.12"/>
<polygon fill="midnightblue" stroke="midnightblue" points="336.49,-295.8 333.13,-285.76 329.49,-295.71 336.49,-295.8"/>
</g>
<!-- Node3 -->
<g id="node3" class="node">
<title>Node3</title>
<g id="a_node3"><a xlink:href="group__tools__drafting__dimension.html#ga6b8e17d22ac4a95d25a90be8a74c0689" target="_top" xlink:title="Construct a angular dimension arc.">
<polygon fill="white" stroke="black" points="4,-489.5 4,-508.5 99,-508.5 99,-489.5 4,-489.5"/>
<text text-anchor="middle" x="51.5" y="-496.5" font-family="Helvetica,sans-Serif" font-size="10.00">draft_dim_angle</text>
</a>
</g>
</g>
<!-- Node1&#45;&gt;Node3 -->
<g id="edge2" class="edge">
<title>Node1&#45;&gt;Node3</title>
<path fill="none" stroke="midnightblue" d="M332.59,-295.84C330.58,-336.5 319.78,-429.21 264,-474 217.58,-511.27 145.9,-511.55 99.08,-506.63"/>
<polygon fill="midnightblue" stroke="midnightblue" points="336.09,-295.96 332.95,-285.84 329.09,-295.7 336.09,-295.96"/>
</g>
<!-- Node4 -->
<g id="node4" class="node">
<title>Node4</title>
<g id="a_node4"><a xlink:href="group__tools__drafting__dimension.html#ga5c4915c4c4464c5cdaefd501c2de261d" target="_top" xlink:title="Construct a dimension leader line at a point.">
<polygon fill="white" stroke="black" points="2,-446.5 2,-465.5 101,-465.5 101,-446.5 2,-446.5"/>
<text text-anchor="middle" x="51.5" y="-453.5" font-family="Helvetica,sans-Serif" font-size="10.00">draft_dim_leader</text>
</a>
</g>
</g>
<!-- Node1&#45;&gt;Node4 -->
<g id="edge3" class="edge">
<title>Node1&#45;&gt;Node4</title>
<path fill="none" stroke="midnightblue" d="M331.64,-295.96C327.94,-332.92 314.26,-411.51 264,-447 212.37,-483.47 134.64,-474.99 89.19,-465.51"/>
<polygon fill="midnightblue" stroke="midnightblue" points="335.17,-295.78 332.53,-285.52 328.2,-295.19 335.17,-295.78"/>
</g>
<!-- Node5 -->
<g id="node5" class="node">
<title>Node5</title>
<g id="a_node5"><a xlink:href="group__tools__drafting__dimension.html#ga27a35e94597435a74e22d76789e9be5e" target="_top" xlink:title="Construct a dimension line between two points.">
<polygon fill="white" stroke="black" points="8.5,-399.5 8.5,-418.5 94.5,-418.5 94.5,-399.5 8.5,-399.5"/>
<text text-anchor="middle" x="51.5" y="-406.5" font-family="Helvetica,sans-Serif" font-size="10.00">draft_dim_line</text>
</a>
</g>
</g>
<!-- Node1&#45;&gt;Node5 -->
<g id="edge4" class="edge">
<title>Node1&#45;&gt;Node5</title>
<path fill="none" stroke="midnightblue" d="M323.45,-294.47C312.07,-314.57 291.14,-346.09 264,-363 211.7,-395.59 139.61,-405.3 94.55,-408.07"/>
<polygon fill="midnightblue" stroke="midnightblue" points="326.56,-296.1 328.26,-285.64 320.41,-292.75 326.56,-296.1"/>
</g>
<!-- Node6 -->
<g id="node6" class="node">
<title>Node6</title>
<g id="a_node6"><a xlink:href="group__tools__drafting__dimension.html#gaef1a8150a8ef7be88e086fb3dbab64a9" target="_top" xlink:title="Construct a radial dimension line.">
<polygon fill="white" stroke="black" points="2.5,-361.5 2.5,-380.5 100.5,-380.5 100.5,-361.5 2.5,-361.5"/>
<text text-anchor="middle" x="51.5" y="-368.5" font-family="Helvetica,sans-Serif" font-size="10.00">draft_dim_radius</text>
</a>
</g>
</g>
<!-- Node1&#45;&gt;Node6 -->
<g id="edge5" class="edge">
<title>Node1&#45;&gt;Node6</title>
<path fill="none" stroke="midnightblue" d="M317.06,-293.31C304.06,-306.32 284.55,-323.47 264,-333 211.54,-357.32 145.07,-366.12 100.79,-369.28"/>
<polygon fill="midnightblue" stroke="midnightblue" points="319.84,-295.48 324.27,-285.85 314.8,-290.61 319.84,-295.48"/>
</g>
<!-- Node7 -->
<g id="node7" class="node">
<title>Node7</title>
<g id="a_node7"><a xlink:href="group__tools__drafting__operation.html#ga6273cb44e3132783d3714375c9fb1e4b" target="_top" xlink:title="Move one or more child objects to sheet a reference zone.">
<polygon fill="white" stroke="black" points="165.5,-304.5 165.5,-323.5 237.5,-323.5 237.5,-304.5 165.5,-304.5"/>
<text text-anchor="middle" x="201.5" y="-311.5" font-family="Helvetica,sans-Serif" font-size="10.00">draft_move</text>
</a>
</g>
</g>
<!-- Node1&#45;&gt;Node7 -->
<g id="edge6" class="edge">
<title>Node1&#45;&gt;Node7</title>
<path fill="none" stroke="midnightblue" d="M290.45,-288.39C272.58,-293.59 252.11,-299.55 235.42,-304.41"/>
<polygon fill="midnightblue" stroke="midnightblue" points="291.45,-291.75 300.07,-285.59 289.49,-285.02 291.45,-291.75"/>
</g>
<!-- Node8 -->
<g id="node8" class="node">
<title>Node8</title>
<g id="a_node8"><a xlink:href="group__tools__drafting__operation.html#gac1b780633ac5e2874a8a00177d98b305" target="_top" xlink:title="Construct a text note with optional heading and boarder.">
<polygon fill="white" stroke="black" points="168.5,-418.5 168.5,-437.5 234.5,-437.5 234.5,-418.5 168.5,-418.5"/>
<text text-anchor="middle" x="201.5" y="-425.5" font-family="Helvetica,sans-Serif" font-size="10.00">draft_note</text>
</a>
</g>
</g>
<!-- Node1&#45;&gt;Node8 -->
<g id="edge7" class="edge">
<title>Node1&#45;&gt;Node8</title>
<path fill="none" stroke="midnightblue" d="M327.25,-295.55C318.14,-323.29 297.89,-374.02 264,-404 255.67,-411.37 244.83,-416.6 234.57,-420.25"/>
<polygon fill="midnightblue" stroke="midnightblue" points="330.64,-296.41 330.29,-285.82 323.96,-294.32 330.64,-296.41"/>
</g>
<!-- Node9 -->
<g id="node9" class="node">
<title>Node9</title>
<g id="a_node9"><a xlink:href="group__tools__drafting__primitive.html#gaf5c23ddb3b38a362eaece312029bcedd" target="_top" xlink:title="Add text to table cell at a given a column and row.">
<polygon fill="white" stroke="black" points="154.5,-266.5 154.5,-285.5 248.5,-285.5 248.5,-266.5 154.5,-266.5"/>
<text text-anchor="middle" x="201.5" y="-273.5" font-family="Helvetica,sans-Serif" font-size="10.00">draft_table_text</text>
</a>
</g>
</g>
<!-- Node1&#45;&gt;Node9 -->
<g id="edge12" class="edge">
<title>Node1&#45;&gt;Node9</title>
<path fill="none" stroke="midnightblue" d="M289.51,-276C276.34,-276 261.83,-276 248.51,-276"/>
<polygon fill="midnightblue" stroke="midnightblue" points="289.73,-279.5 299.73,-276 289.73,-272.5 289.73,-279.5"/>
</g>
<!-- Node10 -->
<g id="node10" class="node">
<title>Node10</title>
<g id="a_node10"><a xlink:href="group__tools__drafting__primitive.html#gaace78d1d977ad068ab277e50a591fde8" target="_top" xlink:title="Add text to ztable at a given zone index.">
<polygon fill="white" stroke="black" points="152,-228.5 152,-247.5 251,-247.5 251,-228.5 152,-228.5"/>
<text text-anchor="middle" x="201.5" y="-235.5" font-family="Helvetica,sans-Serif" font-size="10.00">draft_ztable_text</text>
</a>
</g>
</g>
<!-- Node1&#45;&gt;Node10 -->
<g id="edge13" class="edge">
<title>Node1&#45;&gt;Node10</title>
<path fill="none" stroke="midnightblue" d="M290.45,-263.61C272.58,-258.41 252.11,-252.45 235.42,-247.59"/>
<polygon fill="midnightblue" stroke="midnightblue" points="289.49,-266.98 300.07,-266.41 291.45,-260.25 289.49,-266.98"/>
</g>
<!-- Node11 -->
<g id="node11" class="node">
<title>Node11</title>
<g id="a_node11"><a xlink:href="group__parts__3d__computer__pci__bracket.html#gaf56631cf80d8e5f0b77736b17b94ecd9" target="_top" xlink:title="PCI slot cover and adapter card bracket generator.">
<polygon fill="white" stroke="black" points="165.5,-190.5 165.5,-209.5 237.5,-209.5 237.5,-190.5 165.5,-190.5"/>
<text text-anchor="middle" x="201.5" y="-197.5" font-family="Helvetica,sans-Serif" font-size="10.00">pci_bracket</text>
</a>
</g>
</g>
<!-- Node1&#45;&gt;Node11 -->
<g id="edge14" class="edge">
<title>Node1&#45;&gt;Node11</title>
<path fill="none" stroke="midnightblue" d="M316.27,-258.94C303.08,-246.36 283.7,-229.64 264,-219 255.84,-214.59 246.5,-211.05 237.62,-208.27"/>
<polygon fill="midnightblue" stroke="midnightblue" points="314.03,-261.65 323.62,-266.16 318.93,-256.65 314.03,-261.65"/>
</g>
<!-- Node12 -->
<g id="node12" class="node">
<title>Node12</title>
<g id="a_node12"><a xlink:href="group__shapes__polygon.html#ga22a29774c22e5cc9f3101ed0a0ed307a" target="_top" xlink:title="A polygon rectangle with side rounding.">
<polygon fill="white" stroke="black" points="154.5,-152.5 154.5,-171.5 248.5,-171.5 248.5,-152.5 154.5,-152.5"/>
<text text-anchor="middle" x="201.5" y="-159.5" font-family="Helvetica,sans-Serif" font-size="10.00">pg_rectangle_rs</text>
</a>
</g>
</g>
<!-- Node1&#45;&gt;Node12 -->
<g id="edge15" class="edge">
<title>Node1&#45;&gt;Node12</title>
<path fill="none" stroke="midnightblue" d="M324.09,-257.24C312.95,-235.76 291.91,-200.97 264,-181 258.64,-177.16 252.48,-174.09 246.18,-171.62"/>
<polygon fill="midnightblue" stroke="midnightblue" points="321.03,-258.94 328.62,-266.33 327.29,-255.82 321.03,-258.94"/>
</g>
<!-- Node13 -->
<g id="node13" class="node">
<title>Node13</title>
<g id="a_node13"><a xlink:href="group__tools__polytope.html#ga530c86f9c90ce074aa7adc29834f0539" target="_top" xlink:title="Assemble a polytope skeletal frame using child objects.">
<polygon fill="white" stroke="black" points="154.5,-114.5 154.5,-133.5 248.5,-133.5 248.5,-114.5 154.5,-114.5"/>
<text text-anchor="middle" x="201.5" y="-121.5" font-family="Helvetica,sans-Serif" font-size="10.00">polytope_frame</text>
</a>
</g>
</g>
<!-- Node1&#45;&gt;Node13 -->
<g id="edge16" class="edge">
<title>Node1&#45;&gt;Node13</title>
<path fill="none" stroke="midnightblue" d="M328.11,-256.59C319.83,-227.64 300.29,-173.31 264,-143 259.37,-139.13 253.95,-136.05 248.29,-133.59"/>
<polygon fill="midnightblue" stroke="midnightblue" points="324.76,-257.6 330.75,-266.34 331.52,-255.77 324.76,-257.6"/>
</g>
<!-- Node14 -->
<g id="node14" class="node">
<title>Node14</title>
<g id="a_node14"><a xlink:href="group__tools__polytope.html#ga00b574079f19251be7281151d11db8fa" target="_top" xlink:title="Label the vertices, paths, and edges of a polytope.">
<polygon fill="white" stroke="black" points="150.5,-76.5 150.5,-95.5 252.5,-95.5 252.5,-76.5 150.5,-76.5"/>
<text text-anchor="middle" x="201.5" y="-83.5" font-family="Helvetica,sans-Serif" font-size="10.00">polytope_number</text>
</a>
</g>
</g>
<!-- Node1&#45;&gt;Node14 -->
<g id="edge17" class="edge">
<title>Node1&#45;&gt;Node14</title>
<path fill="none" stroke="midnightblue" d="M330.57,-256.19C325.16,-220.73 308.87,-146.25 264,-105 259.8,-101.14 254.84,-98.07 249.58,-95.62"/>
<polygon fill="midnightblue" stroke="midnightblue" points="327.12,-256.82 331.96,-266.24 334.06,-255.86 327.12,-256.82"/>
</g>
<!-- Node15 -->
<g id="node15" class="node">
<title>Node15</title>
<g id="a_node15"><a xlink:href="group__parts__3d__enclosure__project__box__rectangle.html#ga6a5d093d732e65556c46252220f2c4b6" target="_top" xlink:title="A rectangular box maker for project boxes, enclosures and housings.">
<polygon fill="white" stroke="black" points="139,-38.5 139,-57.5 264,-57.5 264,-38.5 139,-38.5"/>
<text text-anchor="middle" x="201.5" y="-45.5" font-family="Helvetica,sans-Serif" font-size="10.00">project_box_rectangle</text>
</a>
</g>
</g>
<!-- Node1&#45;&gt;Node15 -->
<g id="edge18" class="edge">
<title>Node1&#45;&gt;Node15</title>
<path fill="none" stroke="midnightblue" d="M332.24,-255.91C329.57,-214.6 317.61,-119.59 264,-67 260.01,-63.09 255.23,-59.98 250.13,-57.51"/>
<polygon fill="midnightblue" stroke="midnightblue" points="328.75,-256.26 332.77,-266.06 335.74,-255.89 328.75,-256.26"/>
</g>
<!-- Node16 -->
<g id="node16" class="node">
<title>Node16</title>
<g id="a_node16"><a xlink:href="group__shapes__basic__2d.html#ga803b8196745be0e3a338def3c58e3b2b" target="_top" xlink:title="A rectangle with a removed rectangular core.">
<polygon fill="white" stroke="black" points="165,-0.5 165,-19.5 238,-19.5 238,-0.5 165,-0.5"/>
<text text-anchor="middle" x="201.5" y="-7.5" font-family="Helvetica,sans-Serif" font-size="10.00">rectangle_c</text>
</a>
</g>
</g>
<!-- Node1&#45;&gt;Node16 -->
<g id="edge19" class="edge">
<title>Node1&#45;&gt;Node16</title>
<path fill="none" stroke="midnightblue" d="M333.46,-256.19C333.42,-209.85 326.69,-93.42 264,-29 257.06,-21.87 247.52,-17.4 238.01,-14.61"/>
<polygon fill="midnightblue" stroke="midnightblue" points="329.96,-256.36 333.35,-266.39 336.96,-256.43 329.96,-256.36"/>
</g>
<!-- Node8&#45;&gt;Node3 -->
<g id="edge8" class="edge">
<title>Node8&#45;&gt;Node3</title>
<path fill="none" stroke="midnightblue" d="M171.52,-442.02C152.14,-451.39 126.05,-463.96 103,-475 93.02,-479.78 81.91,-485.06 72.66,-489.45"/>
<polygon fill="midnightblue" stroke="midnightblue" points="173.24,-445.08 180.72,-437.57 170.19,-438.77 173.24,-445.08"/>
</g>
<!-- Node8&#45;&gt;Node4 -->
<g id="edge9" class="edge">
<title>Node8&#45;&gt;Node4</title>
<path fill="none" stroke="midnightblue" d="M158.54,-435.94C140.67,-439.32 119.7,-443.29 101.16,-446.79"/>
<polygon fill="midnightblue" stroke="midnightblue" points="159.21,-439.37 168.39,-434.08 157.91,-432.5 159.21,-439.37"/>
</g>
<!-- Node8&#45;&gt;Node5 -->
<g id="edge10" class="edge">
<title>Node8&#45;&gt;Node5</title>
<path fill="none" stroke="midnightblue" d="M158.34,-422.59C138.39,-420.03 114.62,-416.98 94.67,-414.41"/>
<polygon fill="midnightblue" stroke="midnightblue" points="158.02,-426.08 168.39,-423.88 158.91,-419.13 158.02,-426.08"/>
</g>
<!-- Node8&#45;&gt;Node6 -->
<g id="edge11" class="edge">
<title>Node8&#45;&gt;Node6</title>
<path fill="none" stroke="midnightblue" d="M166.78,-414.74C148.02,-407.4 124.24,-398.13 103,-390 94.86,-386.88 85.98,-383.52 77.95,-380.51"/>
<polygon fill="midnightblue" stroke="midnightblue" points="165.5,-418 176.09,-418.39 168.06,-411.49 165.5,-418"/>
</g>
<!-- Node17 -->
<g id="node17" class="node">
<title>Node17</title>
<g id="a_node17"><a xlink:href="group__shapes__revolved.html#gad587c003585db775fd441468954b7c43" target="_top" xlink:title="A rectangular cross&#45;sectional profile revolved about the z&#45;axis.">
<polygon fill="white" stroke="black" points="0,-0.5 0,-19.5 103,-19.5 103,-0.5 0,-0.5"/>
<text text-anchor="middle" x="51.5" y="-7.5" font-family="Helvetica,sans-Serif" font-size="10.00">torus_rectangle_c</text>
</a>
</g>
</g>
<!-- Node16&#45;&gt;Node17 -->
<g id="edge20" class="edge">
<title>Node16&#45;&gt;Node17</title>
<path fill="none" stroke="midnightblue" d="M154.33,-10C138.07,-10 119.71,-10 103.1,-10"/>
<polygon fill="midnightblue" stroke="midnightblue" points="154.67,-13.5 164.67,-10 154.67,-6.5 154.67,-13.5"/>
</g>
</g>
</svg>
