<?xml version="1.0" encoding="UTF-8" standalone="no"?>
<!DOCTYPE svg PUBLIC "-//W3C//DTD SVG 1.1//EN"
 "http://www.w3.org/Graphics/SVG/1.1/DTD/svg11.dtd">
<!-- Generated by graphviz version 2.43.0 (0)
 -->
<!-- Title: binary_bit_is Pages: 1 -->
<svg width="548pt" height="370pt"
 viewBox="0.00 0.00 548.00 370.00" xmlns="http://www.w3.org/2000/svg" xmlns:xlink="http://www.w3.org/1999/xlink">
<g id="graph0" class="graph" transform="scale(1 1) rotate(0) translate(4 366)">
<title>binary_bit_is</title>
<polygon fill="white" stroke="transparent" points="-4,4 -4,-366 544,-366 544,4 -4,4"/>
<!-- Node1 -->
<g id="node1" class="node">
<title>Node1</title>
<g id="a_node1"><a xlink:title="Test if a binary bit position of an integer value equals a test bit.">
<polygon fill="#bfbfbf" stroke="black" points="461,-114.5 461,-133.5 540,-133.5 540,-114.5 461,-114.5"/>
<text text-anchor="middle" x="500.5" y="-121.5" font-family="Helvetica,sans-Serif" font-size="10.00">binary_bit_is</text>
</a>
</g>
</g>
<!-- Node2 -->
<g id="node2" class="node">
<title>Node2</title>
<g id="a_node2"><a xlink:href="group__shapes__basic__3d.html#gaf1d71183e9f3fb9a5e48b8c9a67085d6" target="_top" xlink:title="A cuboid with edge, round, or chamfer corners.">
<polygon fill="white" stroke="black" points="330.5,-228.5 330.5,-247.5 379.5,-247.5 379.5,-228.5 330.5,-228.5"/>
<text text-anchor="middle" x="355" y="-235.5" font-family="Helvetica,sans-Serif" font-size="10.00">cuboid</text>
</a>
</g>
</g>
<!-- Node1&#45;&gt;Node2 -->
<g id="edge1" class="edge">
<title>Node1&#45;&gt;Node2</title>
<path fill="none" stroke="midnightblue" d="M489.77,-142.62C477.54,-164.22 454.51,-199.36 425,-219 411.45,-228.02 393.7,-232.78 379.6,-235.28"/>
<polygon fill="midnightblue" stroke="midnightblue" points="492.9,-144.21 494.62,-133.75 486.75,-140.85 492.9,-144.21"/>
</g>
<!-- Node3 -->
<g id="node3" class="node">
<title>Node3</title>
<g id="a_node3"><a xlink:href="group__tools__drafting__primitive.html#ga6f12ccd4c9de0a8ab887184911f39c8f" target="_top" xlink:title="Draft an arrowhead at the terminal point of a line.">
<polygon fill="white" stroke="black" points="319,-190.5 319,-209.5 391,-209.5 391,-190.5 319,-190.5"/>
<text text-anchor="middle" x="355" y="-197.5" font-family="Helvetica,sans-Serif" font-size="10.00">draft_arrow</text>
</a>
</g>
</g>
<!-- Node1&#45;&gt;Node3 -->
<g id="edge2" class="edge">
<title>Node1&#45;&gt;Node3</title>
<path fill="none" stroke="midnightblue" d="M481.69,-140.81C467.37,-153.5 446.22,-170.46 425,-181 414.43,-186.25 402.2,-190.22 391,-193.14"/>
<polygon fill="midnightblue" stroke="midnightblue" points="484.23,-143.23 489.28,-133.92 479.52,-138.05 484.23,-143.23"/>
</g>
<!-- Node15 -->
<g id="node15" class="node">
<title>Node15</title>
<g id="a_node15"><a xlink:href="group__tools__extrude.html#ga78405b5fa18461a302a2f24646499ece" target="_top" xlink:title="Translate, rotate, and revolve a 2d shape about the z&#45;axis with linear elongation.">
<polygon fill="white" stroke="black" points="303,-152.5 303,-171.5 407,-171.5 407,-152.5 303,-152.5"/>
<text text-anchor="middle" x="355" y="-159.5" font-family="Helvetica,sans-Serif" font-size="10.00">extrude_rotate_trl</text>
</a>
</g>
</g>
<!-- Node1&#45;&gt;Node15 -->
<g id="edge15" class="edge">
<title>Node1&#45;&gt;Node15</title>
<path fill="none" stroke="midnightblue" d="M453.53,-136.17C433.68,-141.43 410.81,-147.49 392.2,-152.41"/>
<polygon fill="midnightblue" stroke="midnightblue" points="454.52,-139.53 463.29,-133.59 452.73,-132.77 454.52,-139.53"/>
</g>
<!-- Node19 -->
<g id="node19" class="node">
<title>Node19</title>
<g id="a_node19"><a xlink:href="group__parts__3d__bearing__bearing__linear__rod.html#ga48399d5e708b4894494c69b2d1e88e26" target="_top" xlink:title="Transform 2d or 3d shape into a linear rod ball or sled bearing.">
<polygon fill="white" stroke="black" points="285,-114.5 285,-133.5 425,-133.5 425,-114.5 285,-114.5"/>
<text text-anchor="middle" x="355" y="-121.5" font-family="Helvetica,sans-Serif" font-size="10.00">make_bearing_linear_rod</text>
</a>
</g>
</g>
<!-- Node1&#45;&gt;Node19 -->
<g id="edge19" class="edge">
<title>Node1&#45;&gt;Node19</title>
<path fill="none" stroke="midnightblue" d="M450.52,-124C442.29,-124 433.62,-124 425,-124"/>
<polygon fill="midnightblue" stroke="midnightblue" points="450.67,-127.5 460.67,-124 450.67,-120.5 450.67,-127.5"/>
</g>
<!-- Node20 -->
<g id="node20" class="node">
<title>Node20</title>
<g id="a_node20"><a xlink:href="group__parts__3d__computer__pci__bracket.html#gaf56631cf80d8e5f0b77736b17b94ecd9" target="_top" xlink:title="PCI slot cover and adapter card bracket generator.">
<polygon fill="white" stroke="black" points="158,-38.5 158,-57.5 230,-57.5 230,-38.5 158,-38.5"/>
<text text-anchor="middle" x="194" y="-45.5" font-family="Helvetica,sans-Serif" font-size="10.00">pci_bracket</text>
</a>
</g>
</g>
<!-- Node1&#45;&gt;Node20 -->
<g id="edge20" class="edge">
<title>Node1&#45;&gt;Node20</title>
<path fill="none" stroke="midnightblue" d="M452.63,-111.99C443.47,-109.66 433.94,-107.25 425,-105 355.98,-87.65 275.21,-67.72 230.09,-56.62"/>
<polygon fill="midnightblue" stroke="midnightblue" points="451.82,-115.4 462.38,-114.48 453.55,-108.62 451.82,-115.4"/>
</g>
<!-- Node21 -->
<g id="node21" class="node">
<title>Node21</title>
<g id="a_node21"><a xlink:href="group__parts__3d__enclosure__project__box__rectangle.html#ga6a5d093d732e65556c46252220f2c4b6" target="_top" xlink:title="A rectangular box maker for project boxes, enclosures and housings.">
<polygon fill="white" stroke="black" points="292.5,-38.5 292.5,-57.5 417.5,-57.5 417.5,-38.5 292.5,-38.5"/>
<text text-anchor="middle" x="355" y="-45.5" font-family="Helvetica,sans-Serif" font-size="10.00">project_box_rectangle</text>
</a>
</g>
</g>
<!-- Node1&#45;&gt;Node21 -->
<g id="edge21" class="edge">
<title>Node1&#45;&gt;Node21</title>
<path fill="none" stroke="midnightblue" d="M479.83,-108.02C465.33,-96.81 444.78,-82.1 425,-72 413.82,-66.29 400.96,-61.41 389.41,-57.57"/>
<polygon fill="midnightblue" stroke="midnightblue" points="477.99,-111.02 488.01,-114.47 482.32,-105.53 477.99,-111.02"/>
</g>
<!-- Node22 -->
<g id="node22" class="node">
<title>Node22</title>
<g id="a_node22"><a xlink:href="group__shapes__basic__2d.html#ga9f679c29426c44ee83b4a13b5dd47138" target="_top" xlink:title="A rectangle with corner rounds or chamfers.">
<polygon fill="white" stroke="black" points="324,-0.5 324,-19.5 386,-19.5 386,-0.5 324,-0.5"/>
<text text-anchor="middle" x="355" y="-7.5" font-family="Helvetica,sans-Serif" font-size="10.00">rectangle</text>
</a>
</g>
</g>
<!-- Node1&#45;&gt;Node22 -->
<g id="edge22" class="edge">
<title>Node1&#45;&gt;Node22</title>
<path fill="none" stroke="midnightblue" d="M489.77,-105.38C477.54,-83.78 454.51,-48.64 425,-29 413.52,-21.36 399.02,-16.77 386.28,-14.03"/>
<polygon fill="midnightblue" stroke="midnightblue" points="486.75,-107.15 494.62,-114.25 492.9,-103.79 486.75,-107.15"/>
</g>
<!-- Node4 -->
<g id="node4" class="node">
<title>Node4</title>
<g id="a_node4"><a xlink:href="group__tools__drafting__primitive.html#gaeb2a388d77f8e435b02c4235e7791eda" target="_top" xlink:title="Draft an arc with configurable style and optional arrowheads.">
<polygon fill="white" stroke="black" points="164.5,-285.5 164.5,-304.5 223.5,-304.5 223.5,-285.5 164.5,-285.5"/>
<text text-anchor="middle" x="194" y="-292.5" font-family="Helvetica,sans-Serif" font-size="10.00">draft_arc</text>
</a>
</g>
</g>
<!-- Node3&#45;&gt;Node4 -->
<g id="edge3" class="edge">
<title>Node3&#45;&gt;Node4</title>
<path fill="none" stroke="midnightblue" d="M309.21,-209.29C300.92,-211.85 292.51,-215.04 285,-219 251.17,-236.83 218.74,-269.16 203.72,-285.3"/>
<polygon fill="midnightblue" stroke="midnightblue" points="310.17,-212.65 318.84,-206.56 308.27,-205.92 310.17,-212.65"/>
</g>
<!-- Node6 -->
<g id="node6" class="node">
<title>Node6</title>
<g id="a_node6"><a xlink:href="group__tools__drafting__primitive.html#ga060910368142d6371cf4f3f30be7561e" target="_top" xlink:title="Draft a line with configurable style and optional arrowheads.">
<polygon fill="white" stroke="black" points="163,-190.5 163,-209.5 225,-209.5 225,-190.5 163,-190.5"/>
<text text-anchor="middle" x="194" y="-197.5" font-family="Helvetica,sans-Serif" font-size="10.00">draft_line</text>
</a>
</g>
</g>
<!-- Node3&#45;&gt;Node6 -->
<g id="edge5" class="edge">
<title>Node3&#45;&gt;Node6</title>
<path fill="none" stroke="midnightblue" d="M308.43,-200C281.68,-200 248.62,-200 225.11,-200"/>
<polygon fill="midnightblue" stroke="midnightblue" points="308.71,-203.5 318.71,-200 308.71,-196.5 308.71,-203.5"/>
</g>
<!-- Node5 -->
<g id="node5" class="node">
<title>Node5</title>
<g id="a_node5"><a xlink:href="group__tools__drafting__dimension.html#ga6b8e17d22ac4a95d25a90be8a74c0689" target="_top" xlink:title="Construct a angular dimension arc.">
<polygon fill="white" stroke="black" points="4,-342.5 4,-361.5 99,-361.5 99,-342.5 4,-342.5"/>
<text text-anchor="middle" x="51.5" y="-349.5" font-family="Helvetica,sans-Serif" font-size="10.00">draft_dim_angle</text>
</a>
</g>
</g>
<!-- Node4&#45;&gt;Node5 -->
<g id="edge4" class="edge">
<title>Node4&#45;&gt;Node5</title>
<path fill="none" stroke="midnightblue" d="M161.35,-308.72C144.16,-316.09 122.49,-325.22 103,-333 95.08,-336.16 86.41,-339.47 78.53,-342.43"/>
<polygon fill="midnightblue" stroke="midnightblue" points="163.1,-311.78 170.91,-304.62 160.34,-305.35 163.1,-311.78"/>
</g>
<!-- Node6&#45;&gt;Node5 -->
<g id="edge7" class="edge">
<title>Node6&#45;&gt;Node5</title>
<path fill="none" stroke="midnightblue" d="M179.64,-218.21C168.53,-233.49 152.43,-255.96 139,-276 122.32,-300.89 126.23,-314.07 103,-333 98.28,-336.85 92.7,-339.96 87,-342.48"/>
<polygon fill="midnightblue" stroke="midnightblue" points="182.77,-219.86 185.84,-209.72 177.11,-215.73 182.77,-219.86"/>
</g>
<!-- Node7 -->
<g id="node7" class="node">
<title>Node7</title>
<g id="a_node7"><a xlink:href="group__tools__drafting__operation.html#ga4e20419a6d4623f21c05179fc8b6df95" target="_top" xlink:title="Construct drafting sheet axes.">
<polygon fill="white" stroke="black" points="18,-304.5 18,-323.5 85,-323.5 85,-304.5 18,-304.5"/>
<text text-anchor="middle" x="51.5" y="-311.5" font-family="Helvetica,sans-Serif" font-size="10.00">draft_axes</text>
</a>
</g>
</g>
<!-- Node6&#45;&gt;Node7 -->
<g id="edge6" class="edge">
<title>Node6&#45;&gt;Node7</title>
<path fill="none" stroke="midnightblue" d="M180.18,-217.82C164.22,-238.86 135.13,-273.67 103,-295 97.38,-298.73 90.93,-301.87 84.56,-304.45"/>
<polygon fill="midnightblue" stroke="midnightblue" points="183.03,-219.84 186.18,-209.73 177.41,-215.67 183.03,-219.84"/>
</g>
<!-- Node8 -->
<g id="node8" class="node">
<title>Node8</title>
<g id="a_node8"><a xlink:href="group__tools__drafting__dimension.html#ga4866c090b81b437e2f1f707d28ad8ec7" target="_top" xlink:title="Construct a center mark dimension cross.">
<polygon fill="white" stroke="black" points="2,-266.5 2,-285.5 101,-285.5 101,-266.5 2,-266.5"/>
<text text-anchor="middle" x="51.5" y="-273.5" font-family="Helvetica,sans-Serif" font-size="10.00">draft_dim_center</text>
</a>
</g>
</g>
<!-- Node6&#45;&gt;Node8 -->
<g id="edge8" class="edge">
<title>Node6&#45;&gt;Node8</title>
<path fill="none" stroke="midnightblue" d="M171.3,-215.53C153.51,-227.81 127.39,-244.85 103,-257 96.04,-260.47 88.29,-263.68 80.98,-266.45"/>
<polygon fill="midnightblue" stroke="midnightblue" points="173.6,-218.19 179.78,-209.59 169.58,-212.45 173.6,-218.19"/>
</g>
<!-- Node9 -->
<g id="node9" class="node">
<title>Node9</title>
<g id="a_node9"><a xlink:href="group__tools__drafting__dimension.html#ga5c4915c4c4464c5cdaefd501c2de261d" target="_top" xlink:title="Construct a dimension leader line at a point.">
<polygon fill="white" stroke="black" points="2,-228.5 2,-247.5 101,-247.5 101,-228.5 2,-228.5"/>
<text text-anchor="middle" x="51.5" y="-235.5" font-family="Helvetica,sans-Serif" font-size="10.00">draft_dim_leader</text>
</a>
</g>
</g>
<!-- Node6&#45;&gt;Node9 -->
<g id="edge9" class="edge">
<title>Node6&#45;&gt;Node9</title>
<path fill="none" stroke="midnightblue" d="M153.14,-210.78C132.57,-216.34 107.68,-223.08 87.8,-228.45"/>
<polygon fill="midnightblue" stroke="midnightblue" points="154.12,-214.14 162.86,-208.15 152.29,-207.38 154.12,-214.14"/>
</g>
<!-- Node10 -->
<g id="node10" class="node">
<title>Node10</title>
<g id="a_node10"><a xlink:href="group__tools__drafting__dimension.html#ga27a35e94597435a74e22d76789e9be5e" target="_top" xlink:title="Construct a dimension line between two points.">
<polygon fill="white" stroke="black" points="8.5,-190.5 8.5,-209.5 94.5,-209.5 94.5,-190.5 8.5,-190.5"/>
<text text-anchor="middle" x="51.5" y="-197.5" font-family="Helvetica,sans-Serif" font-size="10.00">draft_dim_line</text>
</a>
</g>
</g>
<!-- Node6&#45;&gt;Node10 -->
<g id="edge10" class="edge">
<title>Node6&#45;&gt;Node10</title>
<path fill="none" stroke="midnightblue" d="M152.84,-200C134.61,-200 113.04,-200 94.58,-200"/>
<polygon fill="midnightblue" stroke="midnightblue" points="152.86,-203.5 162.86,-200 152.86,-196.5 152.86,-203.5"/>
</g>
<!-- Node11 -->
<g id="node11" class="node">
<title>Node11</title>
<g id="a_node11"><a xlink:href="group__tools__drafting__dimension.html#gaef1a8150a8ef7be88e086fb3dbab64a9" target="_top" xlink:title="Construct a radial dimension line.">
<polygon fill="white" stroke="black" points="2.5,-152.5 2.5,-171.5 100.5,-171.5 100.5,-152.5 2.5,-152.5"/>
<text text-anchor="middle" x="51.5" y="-159.5" font-family="Helvetica,sans-Serif" font-size="10.00">draft_dim_radius</text>
</a>
</g>
</g>
<!-- Node6&#45;&gt;Node11 -->
<g id="edge11" class="edge">
<title>Node6&#45;&gt;Node11</title>
<path fill="none" stroke="midnightblue" d="M153.14,-189.22C132.57,-183.66 107.68,-176.92 87.8,-171.55"/>
<polygon fill="midnightblue" stroke="midnightblue" points="152.29,-192.62 162.86,-191.85 154.12,-185.86 152.29,-192.62"/>
</g>
<!-- Node12 -->
<g id="node12" class="node">
<title>Node12</title>
<g id="a_node12"><a xlink:href="group__tools__drafting__primitive.html#gada1e771ce89ef86b6241c43dc01bf62d" target="_top" xlink:title="Draft a polygon with configurable style.">
<polygon fill="white" stroke="black" points="10,-114.5 10,-133.5 93,-133.5 93,-114.5 10,-114.5"/>
<text text-anchor="middle" x="51.5" y="-121.5" font-family="Helvetica,sans-Serif" font-size="10.00">draft_polygon</text>
</a>
</g>
</g>
<!-- Node6&#45;&gt;Node12 -->
<g id="edge12" class="edge">
<title>Node6&#45;&gt;Node12</title>
<path fill="none" stroke="midnightblue" d="M153.33,-188.51C148.33,-186.36 143.42,-183.87 139,-181 119.48,-168.34 122.38,-155.87 103,-143 97.38,-139.27 90.93,-136.13 84.56,-133.55"/>
<polygon fill="midnightblue" stroke="midnightblue" points="152.37,-191.9 162.96,-192.24 154.89,-185.37 152.37,-191.9"/>
</g>
<!-- Node13 -->
<g id="node13" class="node">
<title>Node13</title>
<g id="a_node13"><a xlink:href="group__tools__drafting__primitive.html#ga20eb57e9d25186784df7428089e3a2ae" target="_top" xlink:title="Draft a rectangle with configurable style.">
<polygon fill="white" stroke="black" points="6.5,-76.5 6.5,-95.5 96.5,-95.5 96.5,-76.5 6.5,-76.5"/>
<text text-anchor="middle" x="51.5" y="-83.5" font-family="Helvetica,sans-Serif" font-size="10.00">draft_rectangle</text>
</a>
</g>
</g>
<!-- Node6&#45;&gt;Node13 -->
<g id="edge13" class="edge">
<title>Node6&#45;&gt;Node13</title>
<path fill="none" stroke="midnightblue" d="M153.43,-190.26C148.2,-187.82 143.2,-184.78 139,-181 111.23,-155.98 130.5,-130.32 103,-105 98.8,-101.13 93.73,-98.02 88.45,-95.54"/>
<polygon fill="midnightblue" stroke="midnightblue" points="152.41,-193.62 162.99,-194.04 154.98,-187.11 152.41,-193.62"/>
</g>
<!-- Node14 -->
<g id="node14" class="node">
<title>Node14</title>
<g id="a_node14"><a xlink:href="group__tools__drafting__operation.html#ga49aac81a903cd453ea9cadc85e84e414" target="_top" xlink:title="Construct a drafting sheet ruler.">
<polygon fill="white" stroke="black" points="18,-38.5 18,-57.5 85,-57.5 85,-38.5 18,-38.5"/>
<text text-anchor="middle" x="51.5" y="-45.5" font-family="Helvetica,sans-Serif" font-size="10.00">draft_ruler</text>
</a>
</g>
</g>
<!-- Node6&#45;&gt;Node14 -->
<g id="edge14" class="edge">
<title>Node6&#45;&gt;Node14</title>
<path fill="none" stroke="midnightblue" d="M153.12,-190.85C147.89,-188.33 142.97,-185.11 139,-181 102.04,-142.82 139.54,-105.57 103,-67 98.1,-61.83 91.66,-58.06 85.03,-55.31"/>
<polygon fill="midnightblue" stroke="midnightblue" points="152.15,-194.23 162.74,-194.69 154.75,-187.73 152.15,-194.23"/>
</g>
<!-- Node16 -->
<g id="node16" class="node">
<title>Node16</title>
<g id="a_node16"><a xlink:href="group__shapes__revolved.html#ga58a3e713a904c96b69ddd8f87f7f3bb1" target="_top" xlink:title="An elliptical cross&#45;sectional profile revolved about the z&#45;axis.">
<polygon fill="white" stroke="black" points="146.5,-152.5 146.5,-171.5 241.5,-171.5 241.5,-152.5 146.5,-152.5"/>
<text text-anchor="middle" x="194" y="-159.5" font-family="Helvetica,sans-Serif" font-size="10.00">torus_ellipse_cs</text>
</a>
</g>
</g>
<!-- Node15&#45;&gt;Node16 -->
<g id="edge16" class="edge">
<title>Node15&#45;&gt;Node16</title>
<path fill="none" stroke="midnightblue" d="M292.45,-162C275.52,-162 257.44,-162 241.51,-162"/>
<polygon fill="midnightblue" stroke="midnightblue" points="292.82,-165.5 302.82,-162 292.82,-158.5 292.82,-165.5"/>
</g>
<!-- Node17 -->
<g id="node17" class="node">
<title>Node17</title>
<g id="a_node17"><a xlink:href="group__shapes__revolved.html#ga69b374bbebd7d87cfcd06b6bd3278404" target="_top" xlink:title="A trapezoidal cross&#45;sectional profile revolved about the z&#45;axis.">
<polygon fill="white" stroke="black" points="139,-114.5 139,-133.5 249,-133.5 249,-114.5 139,-114.5"/>
<text text-anchor="middle" x="194" y="-121.5" font-family="Helvetica,sans-Serif" font-size="10.00">torus_pg_trapezoid</text>
</a>
</g>
</g>
<!-- Node15&#45;&gt;Node17 -->
<g id="edge17" class="edge">
<title>Node15&#45;&gt;Node17</title>
<path fill="none" stroke="midnightblue" d="M303.92,-150.03C281.64,-144.71 255.77,-138.52 234.83,-133.52"/>
<polygon fill="midnightblue" stroke="midnightblue" points="303.34,-153.49 313.88,-152.41 304.97,-146.68 303.34,-153.49"/>
</g>
<!-- Node18 -->
<g id="node18" class="node">
<title>Node18</title>
<g id="a_node18"><a xlink:href="group__shapes__revolved.html#gad587c003585db775fd441468954b7c43" target="_top" xlink:title="A rectangular cross&#45;sectional profile revolved about the z&#45;axis.">
<polygon fill="white" stroke="black" points="0,-0.5 0,-19.5 103,-19.5 103,-0.5 0,-0.5"/>
<text text-anchor="middle" x="51.5" y="-7.5" font-family="Helvetica,sans-Serif" font-size="10.00">torus_rectangle_c</text>
</a>
</g>
</g>
<!-- Node15&#45;&gt;Node18 -->
<g id="edge18" class="edge">
<title>Node15&#45;&gt;Node18</title>
<path fill="none" stroke="midnightblue" d="M296.41,-148.78C292.44,-147.08 288.6,-145.16 285,-143 265.05,-131.03 268.55,-117.6 249,-105 205.52,-76.98 182.48,-95.02 139,-67 119.45,-54.4 122.38,-41.87 103,-29 97.38,-25.27 90.93,-22.13 84.56,-19.55"/>
<polygon fill="midnightblue" stroke="midnightblue" points="295.24,-152.08 305.83,-152.39 297.75,-145.55 295.24,-152.08"/>
</g>
<!-- Node22&#45;&gt;Node20 -->
<g id="edge23" class="edge">
<title>Node22&#45;&gt;Node20</title>
<path fill="none" stroke="midnightblue" d="M313.88,-19.59C288.09,-25.75 254.91,-33.68 230.16,-39.6"/>
<polygon fill="midnightblue" stroke="midnightblue" points="314.81,-22.97 323.72,-17.24 313.18,-16.16 314.81,-22.97"/>
</g>
<!-- Node23 -->
<g id="node23" class="node">
<title>Node23</title>
<g id="a_node23"><a xlink:href="group__shapes__basic__2d.html#ga803b8196745be0e3a338def3c58e3b2b" target="_top" xlink:title="A rectangle with a removed rectangular core.">
<polygon fill="white" stroke="black" points="157.5,-0.5 157.5,-19.5 230.5,-19.5 230.5,-0.5 157.5,-0.5"/>
<text text-anchor="middle" x="194" y="-7.5" font-family="Helvetica,sans-Serif" font-size="10.00">rectangle_c</text>
</a>
</g>
</g>
<!-- Node22&#45;&gt;Node23 -->
<g id="edge24" class="edge">
<title>Node22&#45;&gt;Node23</title>
<path fill="none" stroke="midnightblue" d="M313.61,-10C288.06,-10 255.33,-10 230.73,-10"/>
<polygon fill="midnightblue" stroke="midnightblue" points="313.72,-13.5 323.72,-10 313.72,-6.5 313.72,-13.5"/>
</g>
<!-- Node23&#45;&gt;Node18 -->
<g id="edge25" class="edge">
<title>Node23&#45;&gt;Node18</title>
<path fill="none" stroke="midnightblue" d="M146.81,-10C132.81,-10 117.36,-10 103.09,-10"/>
<polygon fill="midnightblue" stroke="midnightblue" points="147.18,-13.5 157.18,-10 147.18,-6.5 147.18,-13.5"/>
</g>
</g>
</svg>
