<?xml version="1.0" encoding="UTF-8" standalone="no"?>
<!DOCTYPE svg PUBLIC "-//W3C//DTD SVG 1.1//EN"
 "http://www.w3.org/Graphics/SVG/1.1/DTD/svg11.dtd">
<!-- Generated by graphviz version 2.43.0 (0)
 -->
<!-- Title: torus_pg_trapezoid Pages: 1 -->
<svg width="514pt" height="294pt"
 viewBox="0.00 0.00 514.00 294.00" xmlns="http://www.w3.org/2000/svg" xmlns:xlink="http://www.w3.org/1999/xlink">
<g id="graph0" class="graph" transform="scale(1 1) rotate(0) translate(4 290)">
<title>torus_pg_trapezoid</title>
<polygon fill="white" stroke="transparent" points="-4,4 -4,-290 510,-290 510,4 -4,4"/>
<!-- Node1 -->
<g id="node1" class="node">
<title>Node1</title>
<g id="a_node1"><a xlink:title="A trapezoidal cross&#45;sectional profile revolved about the z&#45;axis.">
<polygon fill="#bfbfbf" stroke="black" points="0,-133.5 0,-152.5 110,-152.5 110,-133.5 0,-133.5"/>
<text text-anchor="middle" x="55" y="-140.5" font-family="Helvetica,sans-Serif" font-size="10.00">torus_pg_trapezoid</text>
</a>
</g>
</g>
<!-- Node2 -->
<g id="node2" class="node">
<title>Node2</title>
<g id="a_node2"><a xlink:href="group__tools__extrude.html#ga78405b5fa18461a302a2f24646499ece" target="_top" xlink:title="Translate, rotate, and revolve a 2d shape about the z&#45;axis with linear elongation.">
<polygon fill="white" stroke="black" points="146,-190.5 146,-209.5 250,-209.5 250,-190.5 146,-190.5"/>
<text text-anchor="middle" x="198" y="-197.5" font-family="Helvetica,sans-Serif" font-size="10.00">extrude_rotate_trl</text>
</a>
</g>
</g>
<!-- Node1&#45;&gt;Node2 -->
<g id="edge1" class="edge">
<title>Node1&#45;&gt;Node2</title>
<path fill="none" stroke="midnightblue" d="M79.6,-152.54C102.68,-161.87 138.03,-176.16 163.91,-186.62"/>
<polygon fill="midnightblue" stroke="midnightblue" points="162.74,-189.93 173.32,-190.43 165.36,-183.44 162.74,-189.93"/>
</g>
<!-- Node8 -->
<g id="node8" class="node">
<title>Node8</title>
<g id="a_node8"><a xlink:href="group__shapes__polygon.html#ga155ae943a1aa91432b1992fd1de364c2" target="_top" xlink:title="A polygon trapezoid with individual vertex rounding and arc facets.">
<polygon fill="white" stroke="black" points="158,-76.5 158,-95.5 238,-95.5 238,-76.5 158,-76.5"/>
<text text-anchor="middle" x="198" y="-83.5" font-family="Helvetica,sans-Serif" font-size="10.00">pg_trapezoid</text>
</a>
</g>
</g>
<!-- Node1&#45;&gt;Node8 -->
<g id="edge7" class="edge">
<title>Node1&#45;&gt;Node8</title>
<path fill="none" stroke="midnightblue" d="M79.6,-133.46C102.68,-124.13 138.03,-109.84 163.91,-99.38"/>
<polygon fill="midnightblue" stroke="midnightblue" points="165.36,-102.56 173.32,-95.57 162.74,-96.07 165.36,-102.56"/>
</g>
<!-- Node3 -->
<g id="node3" class="node">
<title>Node3</title>
<g id="a_node3"><a xlink:href="group__datatypes__binary.html#ga7ce4ed94d9b389ff817ea219918b8732" target="_top" xlink:title="Test if a binary bit position of an integer value equals a test bit.">
<polygon fill="white" stroke="black" points="316.5,-266.5 316.5,-285.5 395.5,-285.5 395.5,-266.5 316.5,-266.5"/>
<text text-anchor="middle" x="356" y="-273.5" font-family="Helvetica,sans-Serif" font-size="10.00">binary_bit_is</text>
</a>
</g>
</g>
<!-- Node2&#45;&gt;Node3 -->
<g id="edge2" class="edge">
<title>Node2&#45;&gt;Node3</title>
<path fill="none" stroke="midnightblue" d="M210.97,-209.6C227.12,-222.13 257.2,-243.99 286,-257 292.39,-259.89 299.32,-262.42 306.23,-264.63"/>
<polygon fill="midnightblue" stroke="midnightblue" points="305.71,-268.12 316.29,-267.61 307.7,-261.41 305.71,-268.12"/>
</g>
<!-- Node4 -->
<g id="node4" class="node">
<title>Node4</title>
<g id="a_node4"><a xlink:href="group__datatypes__iterable__operate.html#ga3d37c2b0067d1661724bd89955c8f6ce" target="_top" xlink:title="Return an element of an iterable when it exists or a default value otherwise.">
<polygon fill="white" stroke="black" points="316.5,-228.5 316.5,-247.5 395.5,-247.5 395.5,-228.5 316.5,-228.5"/>
<text text-anchor="middle" x="356" y="-235.5" font-family="Helvetica,sans-Serif" font-size="10.00">defined_e_or</text>
</a>
</g>
</g>
<!-- Node2&#45;&gt;Node4 -->
<g id="edge3" class="edge">
<title>Node2&#45;&gt;Node4</title>
<path fill="none" stroke="midnightblue" d="M238.37,-209.59C259.11,-214.64 284.73,-220.88 306.67,-226.23"/>
<polygon fill="midnightblue" stroke="midnightblue" points="305.91,-229.65 316.46,-228.61 307.57,-222.84 305.91,-229.65"/>
</g>
<!-- Node5 -->
<g id="node5" class="node">
<title>Node5</title>
<g id="a_node5"><a xlink:href="group__tools__extrude.html#ga31947e37a3512d9814d47f8f8c960f84" target="_top" xlink:title="Translate, rotate, and revolve a 2d shape about the z&#45;axis.">
<polygon fill="white" stroke="black" points="305.5,-190.5 305.5,-209.5 406.5,-209.5 406.5,-190.5 305.5,-190.5"/>
<text text-anchor="middle" x="356" y="-197.5" font-family="Helvetica,sans-Serif" font-size="10.00">extrude_rotate_tr</text>
</a>
</g>
</g>
<!-- Node2&#45;&gt;Node5 -->
<g id="edge4" class="edge">
<title>Node2&#45;&gt;Node5</title>
<path fill="none" stroke="midnightblue" d="M250.08,-200C264.52,-200 280.36,-200 295.26,-200"/>
<polygon fill="midnightblue" stroke="midnightblue" points="295.4,-203.5 305.4,-200 295.4,-196.5 295.4,-203.5"/>
</g>
<!-- Node7 -->
<g id="node7" class="node">
<title>Node7</title>
<g id="a_node7"><a xlink:href="group__datatypes__scalar__test.html#ga258e8911375d30ff85a6e52df01dc1c5" target="_top" xlink:title="Test if a value is a single non&#45;iterable value.">
<polygon fill="white" stroke="black" points="326.5,-152.5 326.5,-171.5 385.5,-171.5 385.5,-152.5 326.5,-152.5"/>
<text text-anchor="middle" x="356" y="-159.5" font-family="Helvetica,sans-Serif" font-size="10.00">is_scalar</text>
</a>
</g>
</g>
<!-- Node2&#45;&gt;Node7 -->
<g id="edge6" class="edge">
<title>Node2&#45;&gt;Node7</title>
<path fill="none" stroke="midnightblue" d="M238.37,-190.41C262.37,-184.56 292.92,-177.12 316.73,-171.32"/>
<polygon fill="midnightblue" stroke="midnightblue" points="317.59,-174.72 326.48,-168.95 315.93,-167.91 317.59,-174.72"/>
</g>
<!-- Node6 -->
<g id="node6" class="node">
<title>Node6</title>
<g id="a_node6"><a xlink:href="group__units__angle.html#ga06a917b77748dfb74e765bcd7c4c0219" target="_top" xlink:title="Convert an angle from some units to another.">
<polygon fill="white" stroke="black" points="462,-190.5 462,-209.5 506,-209.5 506,-190.5 462,-190.5"/>
<text text-anchor="middle" x="484" y="-197.5" font-family="Helvetica,sans-Serif" font-size="10.00">angle</text>
</a>
</g>
</g>
<!-- Node5&#45;&gt;Node6 -->
<g id="edge5" class="edge">
<title>Node5&#45;&gt;Node6</title>
<path fill="none" stroke="midnightblue" d="M406.8,-200C421.89,-200 438.03,-200 451.56,-200"/>
<polygon fill="midnightblue" stroke="midnightblue" points="451.78,-203.5 461.78,-200 451.78,-196.5 451.78,-203.5"/>
</g>
<!-- Node9 -->
<g id="node9" class="node">
<title>Node9</title>
<g id="a_node9"><a xlink:href="group__math__polygon.html#gadd2e4f80e8c8f0aafa04f9a70a7c617e" target="_top" xlink:title="Compute the center of mass of a polygon in a Euclidean 2d&#45;space.">
<polygon fill="white" stroke="black" points="305.5,-114.5 305.5,-133.5 406.5,-133.5 406.5,-114.5 305.5,-114.5"/>
<text text-anchor="middle" x="356" y="-121.5" font-family="Helvetica,sans-Serif" font-size="10.00">polygon_centroid</text>
</a>
</g>
</g>
<!-- Node8&#45;&gt;Node9 -->
<g id="edge8" class="edge">
<title>Node8&#45;&gt;Node9</title>
<path fill="none" stroke="midnightblue" d="M238.37,-95.59C258.95,-100.6 284.34,-106.79 306.17,-112.11"/>
<polygon fill="midnightblue" stroke="midnightblue" points="305.37,-115.51 315.92,-114.48 307.03,-108.71 305.37,-115.51"/>
</g>
<!-- Node10 -->
<g id="node10" class="node">
<title>Node10</title>
<g id="a_node10"><a xlink:href="group__math__polygon.html#ga7a0eff64929a142fc507615f83e3bd58" target="_top" xlink:title="Compute coordinates that round all of the vertices between each adjacent edges in 2D.">
<polygon fill="white" stroke="black" points="286,-76.5 286,-95.5 426,-95.5 426,-76.5 286,-76.5"/>
<text text-anchor="middle" x="356" y="-83.5" font-family="Helvetica,sans-Serif" font-size="10.00">polygon_round_eve_all_p</text>
</a>
</g>
</g>
<!-- Node8&#45;&gt;Node10 -->
<g id="edge9" class="edge">
<title>Node8&#45;&gt;Node10</title>
<path fill="none" stroke="midnightblue" d="M238.37,-86C249.76,-86 262.63,-86 275.55,-86"/>
<polygon fill="midnightblue" stroke="midnightblue" points="275.89,-89.5 285.89,-86 275.89,-82.5 275.89,-89.5"/>
</g>
<!-- Node11 -->
<g id="node11" class="node">
<title>Node11</title>
<g id="a_node11"><a xlink:href="group__math__polygon.html#ga45b00b87d541c116f7d4a403f5fcd2f5" target="_top" xlink:title="Compute the coordinates for a rounded trapezoid in 2D space.">
<polygon fill="white" stroke="black" points="297,-38.5 297,-57.5 415,-57.5 415,-38.5 297,-38.5"/>
<text text-anchor="middle" x="356" y="-45.5" font-family="Helvetica,sans-Serif" font-size="10.00">polygon_trapezoid_p</text>
</a>
</g>
</g>
<!-- Node8&#45;&gt;Node11 -->
<g id="edge10" class="edge">
<title>Node8&#45;&gt;Node11</title>
<path fill="none" stroke="midnightblue" d="M238.37,-76.41C258.95,-71.4 284.34,-65.21 306.17,-59.89"/>
<polygon fill="midnightblue" stroke="midnightblue" points="307.03,-63.29 315.92,-57.52 305.37,-56.49 307.03,-63.29"/>
</g>
<!-- Node12 -->
<g id="node12" class="node">
<title>Node12</title>
<g id="a_node12"><a xlink:href="group__math__linear__algebra.html#gaeabe74699fd0a437bad9a1d442bfd111" target="_top" xlink:title="Translate all coordinates dimensions.">
<polygon fill="white" stroke="black" points="320.5,-0.5 320.5,-19.5 391.5,-19.5 391.5,-0.5 320.5,-0.5"/>
<text text-anchor="middle" x="356" y="-7.5" font-family="Helvetica,sans-Serif" font-size="10.00">translate_p</text>
</a>
</g>
</g>
<!-- Node8&#45;&gt;Node12 -->
<g id="edge11" class="edge">
<title>Node8&#45;&gt;Node12</title>
<path fill="none" stroke="midnightblue" d="M210.97,-76.4C227.12,-63.87 257.2,-42.01 286,-29 293.73,-25.51 302.25,-22.53 310.58,-20.03"/>
<polygon fill="midnightblue" stroke="midnightblue" points="311.54,-23.4 320.22,-17.33 309.64,-16.66 311.54,-23.4"/>
</g>
</g>
</svg>
