<?xml version="1.0" encoding="UTF-8" standalone="no"?>
<!DOCTYPE svg PUBLIC "-//W3C//DTD SVG 1.1//EN"
 "http://www.w3.org/Graphics/SVG/1.1/DTD/svg11.dtd">
<!-- Generated by graphviz version 2.43.0 (0)
 -->
<!-- Title: Polytope Pages: 1 -->
<svg width="213pt" height="29pt"
 viewBox="0.00 0.00 213.00 28.50" xmlns="http://www.w3.org/2000/svg" xmlns:xlink="http://www.w3.org/1999/xlink">
<g id="graph0" class="graph" transform="scale(1 1) rotate(0) translate(4 24.5)">
<title>Polytope</title>
<polygon fill="white" stroke="transparent" points="-4,4 -4,-24.5 209,-24.5 209,4 -4,4"/>
<!-- Node1 -->
<g id="node1" class="node">
<title>Node1</title>
<g id="a_node1"><a xlink:title="Polygon and polyhedron tools.">
<polygon fill="#bfbfbf" stroke="black" points="59,-19 0,-19 0,0 59,0 59,-19"/>
<text text-anchor="middle" x="29.5" y="-7" font-family="Helvetica,sans-Serif" font-size="10.00">Polytope</text>
</a>
</g>
</g>
<!-- Node2 -->
<g id="node2" class="node">
<title>Node2</title>
<g id="a_node2"><a xlink:href="group__tools.html" target="_top" xlink:title="Tools and design components.">
<polygon fill="white" stroke="black" points="205,-19 164,-19 164,0 205,0 205,-19"/>
<text text-anchor="middle" x="184.5" y="-7" font-family="Helvetica,sans-Serif" font-size="10.00">Tools</text>
</a>
</g>
</g>
<!-- Node1&#45;&gt;Node2 -->
<g id="edge2" class="edge">
<title>Node1&#45;&gt;Node2</title>
<path fill="none" stroke="darkgreen" stroke-dasharray="5,2" d="M59.28,-9.5C89.75,-9.5 137.04,-9.5 163.62,-9.5"/>
<text text-anchor="middle" x="111.5" y="-12.5" font-family="Helvetica,sans-Serif" font-size="10.00">polytope.scad</text>
</g>
<!-- Node2&#45;&gt;Node1 -->
<g id="edge1" class="edge">
<title>Node2&#45;&gt;Node1</title>
<path fill="none" stroke="black" d="M153.44,-7.76C150.93,-7.65 148.42,-7.56 146,-7.5 115.34,-6.68 107.66,-6.84 77,-7.5 71.18,-7.63 64.96,-7.84 59.02,-8.08"/>
<polygon fill="black" stroke="black" points="153.5,-11.26 163.66,-8.24 153.84,-4.27 153.5,-11.26"/>
</g>
</g>
</svg>
