<?xml version="1.0" encoding="UTF-8" standalone="no"?>
<!DOCTYPE svg PUBLIC "-//W3C//DTD SVG 1.1//EN"
 "http://www.w3.org/Graphics/SVG/1.1/DTD/svg11.dtd">
<!-- Generated by graphviz version 2.43.0 (0)
 -->
<!-- Title: stack Pages: 1 -->
<svg width="415pt" height="180pt"
 viewBox="0.00 0.00 415.00 180.00" xmlns="http://www.w3.org/2000/svg" xmlns:xlink="http://www.w3.org/1999/xlink">
<g id="graph0" class="graph" transform="scale(1 1) rotate(0) translate(4 176)">
<title>stack</title>
<polygon fill="white" stroke="transparent" points="-4,4 -4,-176 411,-176 411,4 -4,4"/>
<!-- Node1 -->
<g id="node1" class="node">
<title>Node1</title>
<g id="a_node1"><a xlink:title="Format the function call stack as a string.">
<polygon fill="#bfbfbf" stroke="black" points="364,-95.5 364,-114.5 407,-114.5 407,-95.5 364,-95.5"/>
<text text-anchor="middle" x="385.5" y="-102.5" font-family="Helvetica,sans-Serif" font-size="10.00">stack</text>
</a>
</g>
</g>
<!-- Node2 -->
<g id="node2" class="node">
<title>Node2</title>
<g id="a_node2"><a xlink:href="group__common__console.html#ga149f54a142f1c69163f45f45bd39797f" target="_top" xlink:title="Output diagnostic message to console.">
<polygon fill="white" stroke="black" points="261,-152.5 261,-171.5 328,-171.5 328,-152.5 261,-152.5"/>
<text text-anchor="middle" x="294.5" y="-159.5" font-family="Helvetica,sans-Serif" font-size="10.00">log_debug</text>
</a>
</g>
</g>
<!-- Node1&#45;&gt;Node2 -->
<g id="edge1" class="edge">
<title>Node1&#45;&gt;Node2</title>
<path fill="none" stroke="midnightblue" d="M362.3,-120.4C351.97,-127.45 339.46,-135.81 328,-143 323.02,-146.13 317.52,-149.4 312.49,-152.34"/>
<polygon fill="midnightblue" stroke="midnightblue" points="364.46,-123.16 370.73,-114.62 360.5,-117.39 364.46,-123.16"/>
</g>
<!-- Node3 -->
<g id="node3" class="node">
<title>Node3</title>
<g id="a_node3"><a xlink:href="group__common__console.html#ga22d6e9c8a9f751cc5716e4a69188408a" target="_top" xlink:title="Output error message to console.">
<polygon fill="white" stroke="black" points="264.5,-114.5 264.5,-133.5 324.5,-133.5 324.5,-114.5 264.5,-114.5"/>
<text text-anchor="middle" x="294.5" y="-121.5" font-family="Helvetica,sans-Serif" font-size="10.00">log_error</text>
</a>
</g>
</g>
<!-- Node1&#45;&gt;Node3 -->
<g id="edge2" class="edge">
<title>Node1&#45;&gt;Node3</title>
<path fill="none" stroke="midnightblue" d="M354.05,-111.5C344.59,-113.52 334.18,-115.74 324.8,-117.75"/>
<polygon fill="midnightblue" stroke="midnightblue" points="354.81,-114.92 363.86,-109.41 353.35,-108.07 354.81,-114.92"/>
</g>
<!-- Node4 -->
<g id="node4" class="node">
<title>Node4</title>
<g id="a_node4"><a xlink:href="group__common__console.html#gacb9540a228d2c15623784ff0b0653722" target="_top" xlink:title="Output information message to console.">
<polygon fill="white" stroke="black" points="266.5,-76.5 266.5,-95.5 322.5,-95.5 322.5,-76.5 266.5,-76.5"/>
<text text-anchor="middle" x="294.5" y="-83.5" font-family="Helvetica,sans-Serif" font-size="10.00">log_info</text>
</a>
</g>
</g>
<!-- Node1&#45;&gt;Node4 -->
<g id="edge3" class="edge">
<title>Node1&#45;&gt;Node4</title>
<path fill="none" stroke="midnightblue" d="M353.83,-98.45C343.74,-96.3 332.6,-93.92 322.78,-91.82"/>
<polygon fill="midnightblue" stroke="midnightblue" points="353.35,-101.93 363.86,-100.59 354.81,-95.08 353.35,-101.93"/>
</g>
<!-- Node11 -->
<g id="node11" class="node">
<title>Node11</title>
<g id="a_node11"><a xlink:href="group__common__console.html#ga1ece4e2cff9ae45c85429c226eb8362c" target="_top" xlink:title="Output warning message to console.">
<polygon fill="white" stroke="black" points="264,-38.5 264,-57.5 325,-57.5 325,-38.5 264,-38.5"/>
<text text-anchor="middle" x="294.5" y="-45.5" font-family="Helvetica,sans-Serif" font-size="10.00">log_warn</text>
</a>
</g>
</g>
<!-- Node1&#45;&gt;Node11 -->
<g id="edge10" class="edge">
<title>Node1&#45;&gt;Node11</title>
<path fill="none" stroke="midnightblue" d="M362.3,-89.6C351.97,-82.55 339.46,-74.19 328,-67 323.02,-63.87 317.52,-60.6 312.49,-57.66"/>
<polygon fill="midnightblue" stroke="midnightblue" points="360.5,-92.61 370.73,-95.38 364.46,-86.84 360.5,-92.61"/>
</g>
<!-- Node5 -->
<g id="node5" class="node">
<title>Node5</title>
<g id="a_node5"><a xlink:href="group__datatypes__map.html#ga4a3d0704d80be0d9e8bae1fcb3ab7958" target="_top" xlink:title="Perform basic format checks on a map and output errors to console.">
<polygon fill="white" stroke="black" points="151.5,-95.5 151.5,-114.5 223.5,-114.5 223.5,-95.5 151.5,-95.5"/>
<text text-anchor="middle" x="187.5" y="-102.5" font-family="Helvetica,sans-Serif" font-size="10.00">map_check</text>
</a>
</g>
</g>
<!-- Node4&#45;&gt;Node5 -->
<g id="edge4" class="edge">
<title>Node4&#45;&gt;Node5</title>
<path fill="none" stroke="midnightblue" d="M256.59,-92.68C245.93,-94.61 234.33,-96.71 223.77,-98.62"/>
<polygon fill="midnightblue" stroke="midnightblue" points="257.24,-96.12 266.46,-90.89 256,-89.23 257.24,-96.12"/>
</g>
<!-- Node7 -->
<g id="node7" class="node">
<title>Node7</title>
<g id="a_node7"><a xlink:href="group__tools__repeat.html#gad3a61508128c356ec1348225ec9b3ce0" target="_top" xlink:title="Distribute copies of 2d or 3d shapes about Cartesian grid.">
<polygon fill="white" stroke="black" points="151.5,-57.5 151.5,-76.5 223.5,-76.5 223.5,-57.5 151.5,-57.5"/>
<text text-anchor="middle" x="187.5" y="-64.5" font-family="Helvetica,sans-Serif" font-size="10.00">repeat_grid</text>
</a>
</g>
</g>
<!-- Node4&#45;&gt;Node7 -->
<g id="edge6" class="edge">
<title>Node4&#45;&gt;Node7</title>
<path fill="none" stroke="midnightblue" d="M256.59,-79.32C245.93,-77.39 234.33,-75.29 223.77,-73.38"/>
<polygon fill="midnightblue" stroke="midnightblue" points="256,-82.77 266.46,-81.11 257.24,-75.88 256,-82.77"/>
</g>
<!-- Node8 -->
<g id="node8" class="node">
<title>Node8</title>
<g id="a_node8"><a xlink:href="group__datatypes__table.html#ga8a4429649e8b06d9f492e1a0d2653656" target="_top" xlink:title="Perform basic format checks on a table and output errors to console.">
<polygon fill="white" stroke="black" points="150,-19.5 150,-38.5 225,-38.5 225,-19.5 150,-19.5"/>
<text text-anchor="middle" x="187.5" y="-26.5" font-family="Helvetica,sans-Serif" font-size="10.00">table_check</text>
</a>
</g>
</g>
<!-- Node4&#45;&gt;Node8 -->
<g id="edge7" class="edge">
<title>Node4&#45;&gt;Node8</title>
<path fill="none" stroke="midnightblue" d="M267.66,-71.45C254.87,-64.31 239.17,-55.62 225,-48 219.21,-44.89 212.87,-41.56 207.12,-38.57"/>
<polygon fill="midnightblue" stroke="midnightblue" points="265.96,-74.51 276.4,-76.35 269.38,-68.41 265.96,-74.51"/>
</g>
<!-- Node6 -->
<g id="node6" class="node">
<title>Node6</title>
<g id="a_node6"><a xlink:href="group__common__validation.html#ga3afe594ef417bc40429be81e044d29bc" target="_top" xlink:title="Test data structure db and output the start of test to the test log.">
<polygon fill="white" stroke="black" points="1.5,-95.5 1.5,-114.5 112.5,-114.5 112.5,-95.5 1.5,-95.5"/>
<text text-anchor="middle" x="57" y="-102.5" font-family="Helvetica,sans-Serif" font-size="10.00">map_validate_start</text>
</a>
</g>
</g>
<!-- Node5&#45;&gt;Node6 -->
<g id="edge5" class="edge">
<title>Node5&#45;&gt;Node6</title>
<path fill="none" stroke="midnightblue" d="M141.3,-105C132.11,-105 122.35,-105 112.87,-105"/>
<polygon fill="midnightblue" stroke="midnightblue" points="141.39,-108.5 151.39,-105 141.39,-101.5 141.39,-108.5"/>
</g>
<!-- Node9 -->
<g id="node9" class="node">
<title>Node9</title>
<g id="a_node9"><a xlink:href="group__datatypes__table.html#ga7a45ee72b36421f4e73cfba4488f14be" target="_top" xlink:title="Dump table getter functions to the console.">
<polygon fill="white" stroke="black" points="0,-0.5 0,-19.5 114,-19.5 114,-0.5 0,-0.5"/>
<text text-anchor="middle" x="57" y="-7.5" font-family="Helvetica,sans-Serif" font-size="10.00">table_dump_getters</text>
</a>
</g>
</g>
<!-- Node8&#45;&gt;Node9 -->
<g id="edge8" class="edge">
<title>Node8&#45;&gt;Node9</title>
<path fill="none" stroke="midnightblue" d="M139.6,-22.07C131.44,-20.86 122.87,-19.59 114.48,-18.35"/>
<polygon fill="midnightblue" stroke="midnightblue" points="139.27,-25.55 149.68,-23.56 140.3,-18.63 139.27,-25.55"/>
</g>
<!-- Node10 -->
<g id="node10" class="node">
<title>Node10</title>
<g id="a_node10"><a xlink:href="group__common__validation.html#ga19d0234700fba9de9fb0cba52a3d8e17" target="_top" xlink:title="Test data structure db and output the start of test to the test log.">
<polygon fill="white" stroke="black" points="0,-38.5 0,-57.5 114,-57.5 114,-38.5 0,-38.5"/>
<text text-anchor="middle" x="57" y="-45.5" font-family="Helvetica,sans-Serif" font-size="10.00">table_validate_start</text>
</a>
</g>
</g>
<!-- Node8&#45;&gt;Node10 -->
<g id="edge9" class="edge">
<title>Node8&#45;&gt;Node10</title>
<path fill="none" stroke="midnightblue" d="M139.6,-35.93C131.44,-37.14 122.87,-38.41 114.48,-39.65"/>
<polygon fill="midnightblue" stroke="midnightblue" points="140.3,-39.37 149.68,-34.44 139.27,-32.45 140.3,-39.37"/>
</g>
<!-- Node11&#45;&gt;Node5 -->
<g id="edge11" class="edge">
<title>Node11&#45;&gt;Node5</title>
<path fill="none" stroke="midnightblue" d="M267.66,-62.55C254.87,-69.69 239.17,-78.38 225,-86 219.21,-89.11 212.87,-92.44 207.12,-95.43"/>
<polygon fill="midnightblue" stroke="midnightblue" points="269.38,-65.59 276.4,-57.65 265.96,-59.49 269.38,-65.59"/>
</g>
<!-- Node11&#45;&gt;Node7 -->
<g id="edge12" class="edge">
<title>Node11&#45;&gt;Node7</title>
<path fill="none" stroke="midnightblue" d="M253.94,-55.16C244.03,-56.95 233.45,-58.87 223.76,-60.62"/>
<polygon fill="midnightblue" stroke="midnightblue" points="254.76,-58.57 263.97,-53.34 253.51,-51.68 254.76,-58.57"/>
</g>
<!-- Node11&#45;&gt;Node8 -->
<g id="edge13" class="edge">
<title>Node11&#45;&gt;Node8</title>
<path fill="none" stroke="midnightblue" d="M254.04,-40.86C244.62,-39.15 234.59,-37.34 225.29,-35.66"/>
<polygon fill="midnightblue" stroke="midnightblue" points="253.51,-44.32 263.97,-42.66 254.76,-37.43 253.51,-44.32"/>
</g>
</g>
</svg>
