<?xml version="1.0" encoding="UTF-8" standalone="no"?>
<!DOCTYPE svg PUBLIC "-//W3C//DTD SVG 1.1//EN"
 "http://www.w3.org/Graphics/SVG/1.1/DTD/svg11.dtd">
<!-- Generated by graphviz version 2.43.0 (0)
 -->
<!-- Title: cone Pages: 1 -->
<svg width="224pt" height="218pt"
 viewBox="0.00 0.00 224.00 218.00" xmlns="http://www.w3.org/2000/svg" xmlns:xlink="http://www.w3.org/1999/xlink">
<g id="graph0" class="graph" transform="scale(1 1) rotate(0) translate(4 214)">
<title>cone</title>
<polygon fill="white" stroke="transparent" points="-4,4 -4,-214 220,-214 220,4 -4,4"/>
<!-- Node1 -->
<g id="node1" class="node">
<title>Node1</title>
<g id="a_node1"><a xlink:title="A cone.">
<polygon fill="#bfbfbf" stroke="black" points="0,-95.5 0,-114.5 40,-114.5 40,-95.5 0,-95.5"/>
<text text-anchor="middle" x="20" y="-102.5" font-family="Helvetica,sans-Serif" font-size="10.00">cone</text>
</a>
</g>
</g>
<!-- Node2 -->
<g id="node2" class="node">
<title>Node2</title>
<g id="a_node2"><a xlink:href="group__units__angle.html#ga06a917b77748dfb74e765bcd7c4c0219" target="_top" xlink:title="Convert an angle from some units to another.">
<polygon fill="white" stroke="black" points="124,-190.5 124,-209.5 168,-209.5 168,-190.5 124,-190.5"/>
<text text-anchor="middle" x="146" y="-197.5" font-family="Helvetica,sans-Serif" font-size="10.00">angle</text>
</a>
</g>
</g>
<!-- Node1&#45;&gt;Node2 -->
<g id="edge1" class="edge">
<title>Node1&#45;&gt;Node2</title>
<path fill="none" stroke="midnightblue" d="M25.26,-114.54C32.97,-130.74 50.84,-163.55 76,-181 87.09,-188.69 101.18,-193.28 113.74,-196.01"/>
<polygon fill="midnightblue" stroke="midnightblue" points="113.36,-199.49 123.83,-197.89 114.64,-192.61 113.36,-199.49"/>
</g>
<!-- Node3 -->
<g id="node3" class="node">
<title>Node3</title>
<g id="a_node3"><a xlink:href="group__datatypes__iterable__test.html#ga6dc7861bf5a7777bfb33876493107d75" target="_top" xlink:title="Test if at least one element of an iterable value has an undefined value.">
<polygon fill="white" stroke="black" points="102,-152.5 102,-171.5 190,-171.5 190,-152.5 102,-152.5"/>
<text text-anchor="middle" x="146" y="-159.5" font-family="Helvetica,sans-Serif" font-size="10.00">any_undefined</text>
</a>
</g>
</g>
<!-- Node1&#45;&gt;Node3 -->
<g id="edge2" class="edge">
<title>Node1&#45;&gt;Node3</title>
<path fill="none" stroke="midnightblue" d="M32.52,-114.69C43.19,-123.23 59.8,-135.44 76,-143 81.07,-145.36 86.48,-147.48 91.97,-149.37"/>
<polygon fill="midnightblue" stroke="midnightblue" points="91.28,-152.83 101.87,-152.53 93.4,-146.16 91.28,-152.83"/>
</g>
<!-- Node4 -->
<g id="node4" class="node">
<title>Node4</title>
<g id="a_node4"><a xlink:href="group__datatypes__scalar__operate.html#gac119300e8c83de0037f2d0a4d9f0ab5c" target="_top" xlink:title="Return given value, if defined, or a secondary value, if primary is not defined.">
<polygon fill="white" stroke="black" points="112,-114.5 112,-133.5 180,-133.5 180,-114.5 112,-114.5"/>
<text text-anchor="middle" x="146" y="-121.5" font-family="Helvetica,sans-Serif" font-size="10.00">defined_or</text>
</a>
</g>
</g>
<!-- Node1&#45;&gt;Node4 -->
<g id="edge3" class="edge">
<title>Node1&#45;&gt;Node4</title>
<path fill="none" stroke="midnightblue" d="M40.1,-107.93C56.45,-110.43 80.6,-114.13 101.61,-117.35"/>
<polygon fill="midnightblue" stroke="midnightblue" points="101.21,-120.83 111.62,-118.89 102.27,-113.91 101.21,-120.83"/>
</g>
<!-- Node5 -->
<g id="node5" class="node">
<title>Node5</title>
<g id="a_node5"><a xlink:href="group__datatypes__scalar__test.html#ga51d7fdb800c10f4b7479d23b89ab8d22" target="_top" xlink:title="Test if a value is defined.">
<polygon fill="white" stroke="black" points="113,-76.5 113,-95.5 179,-95.5 179,-76.5 113,-76.5"/>
<text text-anchor="middle" x="146" y="-83.5" font-family="Helvetica,sans-Serif" font-size="10.00">is_defined</text>
</a>
</g>
</g>
<!-- Node1&#45;&gt;Node5 -->
<g id="edge4" class="edge">
<title>Node1&#45;&gt;Node5</title>
<path fill="none" stroke="midnightblue" d="M40.1,-102.07C56.68,-99.53 81.29,-95.76 102.51,-92.51"/>
<polygon fill="midnightblue" stroke="midnightblue" points="103.25,-95.94 112.6,-90.96 102.19,-89.02 103.25,-95.94"/>
</g>
<!-- Node6 -->
<g id="node6" class="node">
<title>Node6</title>
<g id="a_node6"><a xlink:href="group__math__polygon.html#ga7a0eff64929a142fc507615f83e3bd58" target="_top" xlink:title="Compute coordinates that round all of the vertices between each adjacent edges in 2D.">
<polygon fill="white" stroke="black" points="76,-38.5 76,-57.5 216,-57.5 216,-38.5 76,-38.5"/>
<text text-anchor="middle" x="146" y="-45.5" font-family="Helvetica,sans-Serif" font-size="10.00">polygon_round_eve_all_p</text>
</a>
</g>
</g>
<!-- Node1&#45;&gt;Node6 -->
<g id="edge5" class="edge">
<title>Node1&#45;&gt;Node6</title>
<path fill="none" stroke="midnightblue" d="M32.52,-95.31C43.19,-86.77 59.8,-74.56 76,-67 81,-64.67 86.33,-62.57 91.74,-60.7"/>
<polygon fill="midnightblue" stroke="midnightblue" points="93.05,-63.96 101.5,-57.58 90.91,-57.3 93.05,-63.96"/>
</g>
<!-- Node7 -->
<g id="node7" class="node">
<title>Node7</title>
<g id="a_node7"><a xlink:href="group__math__triangle.html#gaab9b812d15418fd05c9d93f3bfcc1989" target="_top" xlink:title="Compute a set of vertex coordinates for a triangle given its side lengths in 2D.">
<polygon fill="white" stroke="black" points="90.5,-0.5 90.5,-19.5 201.5,-19.5 201.5,-0.5 90.5,-0.5"/>
<text text-anchor="middle" x="146" y="-7.5" font-family="Helvetica,sans-Serif" font-size="10.00">triangle2d_sss2ppp</text>
</a>
</g>
</g>
<!-- Node1&#45;&gt;Node7 -->
<g id="edge6" class="edge">
<title>Node1&#45;&gt;Node7</title>
<path fill="none" stroke="midnightblue" d="M25.26,-95.46C32.97,-79.26 50.84,-46.45 76,-29 78.9,-26.99 82,-25.19 85.22,-23.59"/>
<polygon fill="midnightblue" stroke="midnightblue" points="86.78,-26.73 94.57,-19.54 84,-20.3 86.78,-26.73"/>
</g>
</g>
</svg>
