<?xml version="1.0" encoding="UTF-8" standalone="no"?>
<!DOCTYPE svg PUBLIC "-//W3C//DTD SVG 1.1//EN"
 "http://www.w3.org/Graphics/SVG/1.1/DTD/svg11.dtd">
<!-- Generated by graphviz version 2.43.0 (0)
 -->
<!-- Title: Rectangular project box Pages: 1 -->
<svg width="375pt" height="37pt"
 viewBox="0.00 0.00 375.00 36.87" xmlns="http://www.w3.org/2000/svg" xmlns:xlink="http://www.w3.org/1999/xlink">
<g id="graph0" class="graph" transform="scale(1 1) rotate(0) translate(4 32.87)">
<title>Rectangular project box</title>
<polygon fill="white" stroke="transparent" points="-4,4 -4,-32.87 371,-32.87 371,4 -4,4"/>
<!-- Node2 -->
<g id="node1" class="node">
<title>Node2</title>
<g id="a_node1"><a xlink:href="group__parts__3d__enclosure.html" target="_top" xlink:title="Project boxes, housings and enclosures.">
<polygon fill="white" stroke="black" points="64,-28.87 0,-28.87 0,-9.87 64,-9.87 64,-28.87"/>
<text text-anchor="middle" x="32" y="-16.87" font-family="Helvetica,sans-Serif" font-size="10.00">Enclosure</text>
</a>
</g>
</g>
<!-- Node1 -->
<g id="node2" class="node">
<title>Node1</title>
<g id="a_node2"><a xlink:title="Rectangular prism project box generator.">
<polygon fill="#bfbfbf" stroke="black" points="367,-28.87 234,-28.87 234,-9.87 367,-9.87 367,-28.87"/>
<text text-anchor="middle" x="300.5" y="-16.87" font-family="Helvetica,sans-Serif" font-size="10.00">Rectangular project box</text>
</a>
</g>
</g>
<!-- Node2&#45;&gt;Node1 -->
<g id="edge1" class="edge">
<title>Node2&#45;&gt;Node1</title>
<path fill="none" stroke="black" d="M74.1,-19.37C116.69,-19.37 183.88,-19.37 233.84,-19.37"/>
<polygon fill="black" stroke="black" points="74.09,-15.87 64.09,-19.37 74.09,-22.87 74.09,-15.87"/>
</g>
<!-- Node1&#45;&gt;Node2 -->
<g id="edge2" class="edge">
<title>Node1&#45;&gt;Node2</title>
<path fill="none" stroke="darkgreen" stroke-dasharray="5,2" d="M251.1,-9.85C239.64,-7.99 227.43,-6.32 216,-5.37 156.65,-0.42 140.98,2.89 82,-5.37 75.17,-6.32 67.95,-8 61.21,-9.86"/>
<text text-anchor="middle" x="149" y="-8.37" font-family="Helvetica,sans-Serif" font-size="10.00">project_box_rectangle.scad</text>
</g>
</g>
</svg>
