<?xml version="1.0" encoding="UTF-8" standalone="no"?>
<!DOCTYPE svg PUBLIC "-//W3C//DTD SVG 1.1//EN"
 "http://www.w3.org/Graphics/SVG/1.1/DTD/svg11.dtd">
<!-- Generated by graphviz version 2.43.0 (0)
 -->
<!-- Title: 3d Models Pages: 1 -->
<svg width="253pt" height="27pt"
 viewBox="0.00 0.00 253.00 27.00" xmlns="http://www.w3.org/2000/svg" xmlns:xlink="http://www.w3.org/1999/xlink">
<g id="graph0" class="graph" transform="scale(1 1) rotate(0) translate(4 23)">
<title>3d Models</title>
<polygon fill="white" stroke="transparent" points="-4,4 -4,-23 249,-23 249,4 -4,4"/>
<!-- Node3 -->
<g id="node1" class="node">
<title>Node3</title>
<g id="a_node1"><a xlink:href="group__models__3d__bearing.html" target="_top" xlink:title="Linear and radial bearings.">
<polygon fill="white" stroke="black" points="245,-19 191,-19 191,0 245,0 245,-19"/>
<text text-anchor="middle" x="218" y="-7" font-family="Helvetica,sans-Serif" font-size="10.00">Bearing</text>
</a>
</g>
</g>
<!-- Node2 -->
<g id="node2" class="node">
<title>Node2</title>
<g id="a_node2"><a xlink:href="group__models.html" target="_top" xlink:title="Black&#45;box models of commodity components.">
<polygon fill="white" stroke="black" points="52,-19 0,-19 0,0 52,0 52,-19"/>
<text text-anchor="middle" x="26" y="-7" font-family="Helvetica,sans-Serif" font-size="10.00">Models</text>
</a>
</g>
</g>
<!-- Node1 -->
<g id="node3" class="node">
<title>Node1</title>
<g id="a_node3"><a xlink:title="3d black&#45;box models of commodity components.">
<polygon fill="#bfbfbf" stroke="black" points="155,-19 88,-19 88,0 155,0 155,-19"/>
<text text-anchor="middle" x="121.5" y="-7" font-family="Helvetica,sans-Serif" font-size="10.00">3d Models</text>
</a>
</g>
</g>
<!-- Node2&#45;&gt;Node1 -->
<g id="edge1" class="edge">
<title>Node2&#45;&gt;Node1</title>
<path fill="none" stroke="black" d="M62.06,-9.5C70.56,-9.5 79.6,-9.5 87.97,-9.5"/>
<polygon fill="black" stroke="black" points="62.06,-6 52.06,-9.5 62.06,-13 62.06,-6"/>
</g>
<!-- Node1&#45;&gt;Node3 -->
<g id="edge2" class="edge">
<title>Node1&#45;&gt;Node3</title>
<path fill="none" stroke="black" d="M165.18,-9.5C173.98,-9.5 182.99,-9.5 190.98,-9.5"/>
<polygon fill="black" stroke="black" points="165.02,-6 155.02,-9.5 165.02,-13 165.02,-6"/>
</g>
</g>
</svg>
