<?xml version="1.0" encoding="UTF-8" standalone="no"?>
<!DOCTYPE svg PUBLIC "-//W3C//DTD SVG 1.1//EN"
 "http://www.w3.org/Graphics/SVG/1.1/DTD/svg11.dtd">
<!-- Generated by graphviz version 2.43.0 (0)
 -->
<!-- Title: ellipsoid Pages: 1 -->
<svg width="174pt" height="66pt"
 viewBox="0.00 0.00 174.00 66.00" xmlns="http://www.w3.org/2000/svg" xmlns:xlink="http://www.w3.org/1999/xlink">
<g id="graph0" class="graph" transform="scale(1 1) rotate(0) translate(4 62)">
<title>ellipsoid</title>
<polygon fill="white" stroke="transparent" points="-4,4 -4,-62 170,-62 170,4 -4,4"/>
<!-- Node1 -->
<g id="node1" class="node">
<title>Node1</title>
<g id="a_node1"><a xlink:title="An ellipsoid.">
<polygon fill="#bfbfbf" stroke="black" points="108,-19.5 108,-38.5 166,-38.5 166,-19.5 108,-19.5"/>
<text text-anchor="middle" x="137" y="-26.5" font-family="Helvetica,sans-Serif" font-size="10.00">ellipsoid</text>
</a>
</g>
</g>
<!-- Node2 -->
<g id="node2" class="node">
<title>Node2</title>
<g id="a_node2"><a xlink:href="group__shapes__basic__3d.html#ga842bd62179b57e3d01ea32b64614f543" target="_top" xlink:title="A sector of an ellipsoid.">
<polygon fill="white" stroke="black" points="2,-38.5 2,-57.5 70,-57.5 70,-38.5 2,-38.5"/>
<text text-anchor="middle" x="36" y="-45.5" font-family="Helvetica,sans-Serif" font-size="10.00">ellipsoid_s</text>
</a>
</g>
</g>
<!-- Node1&#45;&gt;Node2 -->
<g id="edge1" class="edge">
<title>Node1&#45;&gt;Node2</title>
<path fill="none" stroke="midnightblue" d="M97.86,-36.32C88.7,-38.08 78.99,-39.94 70.08,-41.65"/>
<polygon fill="midnightblue" stroke="midnightblue" points="98.73,-39.72 107.9,-34.39 97.41,-32.84 98.73,-39.72"/>
</g>
<!-- Node3 -->
<g id="node3" class="node">
<title>Node3</title>
<g id="a_node3"><a xlink:href="group__parts__3d__computer__pci__bracket.html#gaf56631cf80d8e5f0b77736b17b94ecd9" target="_top" xlink:title="PCI slot cover and adapter card bracket generator.">
<polygon fill="white" stroke="black" points="0,-0.5 0,-19.5 72,-19.5 72,-0.5 0,-0.5"/>
<text text-anchor="middle" x="36" y="-7.5" font-family="Helvetica,sans-Serif" font-size="10.00">pci_bracket</text>
</a>
</g>
</g>
<!-- Node1&#45;&gt;Node3 -->
<g id="edge2" class="edge">
<title>Node1&#45;&gt;Node3</title>
<path fill="none" stroke="midnightblue" d="M97.9,-21.69C89.47,-20.07 80.56,-18.36 72.24,-16.76"/>
<polygon fill="midnightblue" stroke="midnightblue" points="97.41,-25.16 107.9,-23.61 98.73,-18.28 97.41,-25.16"/>
</g>
</g>
</svg>
