<?xml version="1.0" encoding="UTF-8" standalone="no"?>
<!DOCTYPE svg PUBLIC "-//W3C//DTD SVG 1.1//EN"
 "http://www.w3.org/Graphics/SVG/1.1/DTD/svg11.dtd">
<!-- Generated by graphviz version 2.43.0 (0)
 -->
<!-- Title: Metric Pages: 1 -->
<svg width="243pt" height="138pt"
 viewBox="0.00 0.00 243.00 138.00" xmlns="http://www.w3.org/2000/svg" xmlns:xlink="http://www.w3.org/1999/xlink">
<g id="graph0" class="graph" transform="scale(1 1) rotate(0) translate(4 134)">
<title>Metric</title>
<polygon fill="white" stroke="transparent" points="-4,4 -4,-134 239,-134 239,4 -4,4"/>
<!-- Node6 -->
<g id="node1" class="node">
<title>Node6</title>
<g id="a_node1"><a xlink:href="group__database__component__fastener__Metric__Washers.html" target="_top" xlink:title=" ">
<polygon fill="white" stroke="black" points="235,-130 177,-130 177,-111 235,-111 235,-130"/>
<text text-anchor="middle" x="206" y="-118" font-family="Helvetica,sans-Serif" font-size="10.00">Washers</text>
</a>
</g>
</g>
<!-- Node3 -->
<g id="node2" class="node">
<title>Node3</title>
<g id="a_node2"><a xlink:href="group__database__component__fastener__Metric__Bolts.html" target="_top" xlink:title=" ">
<polygon fill="white" stroke="black" points="226.5,-93 185.5,-93 185.5,-74 226.5,-74 226.5,-93"/>
<text text-anchor="middle" x="206" y="-81" font-family="Helvetica,sans-Serif" font-size="10.00">Bolts</text>
</a>
</g>
</g>
<!-- Node4 -->
<g id="node3" class="node">
<title>Node4</title>
<g id="a_node3"><a xlink:href="group__database__component__fastener__Metric__Nuts.html" target="_top" xlink:title=" ">
<polygon fill="white" stroke="black" points="225.5,-56 186.5,-56 186.5,-37 225.5,-37 225.5,-56"/>
<text text-anchor="middle" x="206" y="-44" font-family="Helvetica,sans-Serif" font-size="10.00">Nuts</text>
</a>
</g>
</g>
<!-- Node1 -->
<g id="node4" class="node">
<title>Node1</title>
<g id="a_node4"><a xlink:title=" ">
<polygon fill="#bfbfbf" stroke="black" points="141,-74 94,-74 94,-55 141,-55 141,-74"/>
<text text-anchor="middle" x="117.5" y="-62" font-family="Helvetica,sans-Serif" font-size="10.00">Metric</text>
</a>
</g>
</g>
<!-- Node1&#45;&gt;Node6 -->
<g id="edge5" class="edge">
<title>Node1&#45;&gt;Node6</title>
<path fill="none" stroke="black" d="M141.81,-79.68C152.52,-86.64 165.4,-95 177,-102.5 181.27,-105.26 185.91,-108.25 190.17,-110.98"/>
<polygon fill="black" stroke="black" points="143.69,-76.72 133.39,-74.2 139.87,-82.59 143.69,-76.72"/>
</g>
<!-- Node1&#45;&gt;Node3 -->
<g id="edge2" class="edge">
<title>Node1&#45;&gt;Node3</title>
<path fill="none" stroke="black" d="M151.01,-71.64C162.57,-74.18 175.21,-76.96 185.36,-79.19"/>
<polygon fill="black" stroke="black" points="151.74,-68.22 141.23,-69.49 150.24,-75.06 151.74,-68.22"/>
</g>
<!-- Node1&#45;&gt;Node4 -->
<g id="edge3" class="edge">
<title>Node1&#45;&gt;Node4</title>
<path fill="none" stroke="black" d="M151.31,-57.67C163.22,-55.19 176.26,-52.48 186.5,-50.35"/>
<polygon fill="black" stroke="black" points="150.3,-54.31 141.23,-59.77 151.73,-61.16 150.3,-54.31"/>
</g>
<!-- Node5 -->
<g id="node5" class="node">
<title>Node5</title>
<g id="a_node5"><a xlink:href="group__database__component__fastener__Metric__Screws.html" target="_top" xlink:title=" ">
<polygon fill="white" stroke="black" points="231.5,-19 180.5,-19 180.5,0 231.5,0 231.5,-19"/>
<text text-anchor="middle" x="206" y="-7" font-family="Helvetica,sans-Serif" font-size="10.00">Screws</text>
</a>
</g>
</g>
<!-- Node1&#45;&gt;Node5 -->
<g id="edge4" class="edge">
<title>Node1&#45;&gt;Node5</title>
<path fill="none" stroke="black" d="M142.4,-49.3C157.56,-39.67 176.71,-27.49 189.82,-19.16"/>
<polygon fill="black" stroke="black" points="140.13,-46.6 133.57,-54.92 143.88,-52.51 140.13,-46.6"/>
</g>
<!-- Node2 -->
<g id="node6" class="node">
<title>Node2</title>
<g id="a_node6"><a xlink:href="group__database__component__fastener.html" target="_top" xlink:title="Mechanical fastener specifications.">
<polygon fill="white" stroke="black" points="58,-74 0,-74 0,-55 58,-55 58,-74"/>
<text text-anchor="middle" x="29" y="-62" font-family="Helvetica,sans-Serif" font-size="10.00">Fastener</text>
</a>
</g>
</g>
<!-- Node2&#45;&gt;Node1 -->
<g id="edge1" class="edge">
<title>Node2&#45;&gt;Node1</title>
<path fill="none" stroke="black" d="M68.35,-64.5C77.07,-64.5 86.05,-64.5 93.87,-64.5"/>
<polygon fill="black" stroke="black" points="68.32,-61 58.32,-64.5 68.32,-68 68.32,-61"/>
</g>
</g>
</svg>
