<?xml version="1.0" encoding="UTF-8" standalone="no"?>
<!DOCTYPE svg PUBLIC "-//W3C//DTD SVG 1.1//EN"
 "http://www.w3.org/Graphics/SVG/1.1/DTD/svg11.dtd">
<!-- Generated by graphviz version 2.43.0 (0)
 -->
<!-- Title: rectangle_c Pages: 1 -->
<svg width="302pt" height="199pt"
 viewBox="0.00 0.00 302.00 199.00" xmlns="http://www.w3.org/2000/svg" xmlns:xlink="http://www.w3.org/1999/xlink">
<g id="graph0" class="graph" transform="scale(1 1) rotate(0) translate(4 195)">
<title>rectangle_c</title>
<polygon fill="white" stroke="transparent" points="-4,4 -4,-195 298,-195 298,4 -4,4"/>
<!-- Node1 -->
<g id="node1" class="node">
<title>Node1</title>
<g id="a_node1"><a xlink:title="A rectangle with a removed rectangular core.">
<polygon fill="#bfbfbf" stroke="black" points="0,-95.5 0,-114.5 73,-114.5 73,-95.5 0,-95.5"/>
<text text-anchor="middle" x="36.5" y="-102.5" font-family="Helvetica,sans-Serif" font-size="10.00">rectangle_c</text>
</a>
</g>
</g>
<!-- Node2 -->
<g id="node2" class="node">
<title>Node2</title>
<g id="a_node2"><a xlink:href="group__datatypes__iterable__test.html#ga3fa2b76e04a4c8bba633d9e5e08004e8" target="_top" xlink:title="Test if no element of an iterable value has an undefined value.">
<polygon fill="white" stroke="black" points="109,-171.5 109,-190.5 179,-190.5 179,-171.5 109,-171.5"/>
<text text-anchor="middle" x="144" y="-178.5" font-family="Helvetica,sans-Serif" font-size="10.00">all_defined</text>
</a>
</g>
</g>
<!-- Node1&#45;&gt;Node2 -->
<g id="edge1" class="edge">
<title>Node1&#45;&gt;Node2</title>
<path fill="none" stroke="midnightblue" d="M50.64,-114.64C64.95,-125.12 88.54,-142.34 109,-157 112.87,-159.77 117,-162.71 121,-165.54"/>
<polygon fill="midnightblue" stroke="midnightblue" points="119.21,-168.56 129.4,-171.47 123.25,-162.84 119.21,-168.56"/>
</g>
<!-- Node3 -->
<g id="node3" class="node">
<title>Node3</title>
<g id="a_node3"><a xlink:href="group__datatypes__iterable__operate.html#ga3d37c2b0067d1661724bd89955c8f6ce" target="_top" xlink:title="Return an element of an iterable when it exists or a default value otherwise.">
<polygon fill="white" stroke="black" points="215,-104.5 215,-123.5 294,-123.5 294,-104.5 215,-104.5"/>
<text text-anchor="middle" x="254.5" y="-111.5" font-family="Helvetica,sans-Serif" font-size="10.00">defined_e_or</text>
</a>
</g>
</g>
<!-- Node1&#45;&gt;Node3 -->
<g id="edge2" class="edge">
<title>Node1&#45;&gt;Node3</title>
<path fill="none" stroke="midnightblue" d="M66.38,-114.5C79.27,-118.27 94.74,-122.14 109,-124 140.76,-128.15 176.68,-125.69 204.76,-122.18"/>
<polygon fill="midnightblue" stroke="midnightblue" points="205.29,-125.64 214.73,-120.85 204.36,-118.7 205.29,-125.64"/>
</g>
<!-- Node4 -->
<g id="node4" class="node">
<title>Node4</title>
<g id="a_node4"><a xlink:href="group__datatypes__scalar__operate.html#gac119300e8c83de0037f2d0a4d9f0ab5c" target="_top" xlink:title="Return given value, if defined, or a secondary value, if primary is not defined.">
<polygon fill="white" stroke="black" points="110,-95.5 110,-114.5 178,-114.5 178,-95.5 110,-95.5"/>
<text text-anchor="middle" x="144" y="-102.5" font-family="Helvetica,sans-Serif" font-size="10.00">defined_or</text>
</a>
</g>
</g>
<!-- Node1&#45;&gt;Node4 -->
<g id="edge3" class="edge">
<title>Node1&#45;&gt;Node4</title>
<path fill="none" stroke="midnightblue" d="M73.22,-105C81.72,-105 90.89,-105 99.7,-105"/>
<polygon fill="midnightblue" stroke="midnightblue" points="99.81,-108.5 109.81,-105 99.81,-101.5 99.81,-108.5"/>
</g>
<!-- Node5 -->
<g id="node5" class="node">
<title>Node5</title>
<g id="a_node5"><a xlink:href="group__datatypes__scalar__test.html#ga51d7fdb800c10f4b7479d23b89ab8d22" target="_top" xlink:title="Test if a value is defined.">
<polygon fill="white" stroke="black" points="111,-57.5 111,-76.5 177,-76.5 177,-57.5 111,-57.5"/>
<text text-anchor="middle" x="144" y="-64.5" font-family="Helvetica,sans-Serif" font-size="10.00">is_defined</text>
</a>
</g>
</g>
<!-- Node1&#45;&gt;Node5 -->
<g id="edge4" class="edge">
<title>Node1&#45;&gt;Node5</title>
<path fill="none" stroke="midnightblue" d="M64.12,-95.41C76.99,-90.78 92.64,-85.14 106.59,-80.11"/>
<polygon fill="midnightblue" stroke="midnightblue" points="108.16,-83.27 116.39,-76.59 105.79,-76.68 108.16,-83.27"/>
</g>
<!-- Node6 -->
<g id="node6" class="node">
<title>Node6</title>
<g id="a_node6"><a xlink:href="group__shapes__basic__2d.html#ga9f679c29426c44ee83b4a13b5dd47138" target="_top" xlink:title="A rectangle with corner rounds or chamfers.">
<polygon fill="white" stroke="black" points="113,-19.5 113,-38.5 175,-38.5 175,-19.5 113,-19.5"/>
<text text-anchor="middle" x="144" y="-26.5" font-family="Helvetica,sans-Serif" font-size="10.00">rectangle</text>
</a>
</g>
</g>
<!-- Node1&#45;&gt;Node6 -->
<g id="edge5" class="edge">
<title>Node1&#45;&gt;Node6</title>
<path fill="none" stroke="midnightblue" d="M48.7,-95.12C62.42,-83.24 86.59,-63.04 109,-48 111.16,-46.55 113.44,-45.1 115.76,-43.7"/>
<polygon fill="midnightblue" stroke="midnightblue" points="117.78,-46.57 124.67,-38.52 114.27,-40.51 117.78,-46.57"/>
</g>
<!-- Node6&#45;&gt;Node3 -->
<g id="edge7" class="edge">
<title>Node6&#45;&gt;Node3</title>
<path fill="none" stroke="midnightblue" d="M163.79,-38.55C168.86,-41.39 174.26,-44.63 179,-48 200.16,-63.02 222.14,-83.13 236.68,-97.19"/>
<polygon fill="midnightblue" stroke="midnightblue" points="234.36,-99.81 243.95,-104.31 239.26,-94.81 234.36,-99.81"/>
</g>
<!-- Node7 -->
<g id="node7" class="node">
<title>Node7</title>
<g id="a_node7"><a xlink:href="group__datatypes__binary.html#ga7ce4ed94d9b389ff817ea219918b8732" target="_top" xlink:title="Test if a binary bit position of an integer value equals a test bit.">
<polygon fill="white" stroke="black" points="215,-38.5 215,-57.5 294,-57.5 294,-38.5 215,-38.5"/>
<text text-anchor="middle" x="254.5" y="-45.5" font-family="Helvetica,sans-Serif" font-size="10.00">binary_bit_is</text>
</a>
</g>
</g>
<!-- Node6&#45;&gt;Node7 -->
<g id="edge6" class="edge">
<title>Node6&#45;&gt;Node7</title>
<path fill="none" stroke="midnightblue" d="M175.22,-34.29C184.44,-35.91 194.82,-37.72 204.93,-39.49"/>
<polygon fill="midnightblue" stroke="midnightblue" points="204.44,-42.96 214.9,-41.24 205.65,-36.07 204.44,-42.96"/>
</g>
<!-- Node8 -->
<g id="node8" class="node">
<title>Node8</title>
<g id="a_node8"><a xlink:href="group__datatypes__scalar__test.html#ga258e8911375d30ff85a6e52df01dc1c5" target="_top" xlink:title="Test if a value is a single non&#45;iterable value.">
<polygon fill="white" stroke="black" points="225,-0.5 225,-19.5 284,-19.5 284,-0.5 225,-0.5"/>
<text text-anchor="middle" x="254.5" y="-7.5" font-family="Helvetica,sans-Serif" font-size="10.00">is_scalar</text>
</a>
</g>
</g>
<!-- Node6&#45;&gt;Node8 -->
<g id="edge8" class="edge">
<title>Node6&#45;&gt;Node8</title>
<path fill="none" stroke="midnightblue" d="M175.22,-23.71C187.49,-21.56 201.82,-19.05 214.84,-16.77"/>
<polygon fill="midnightblue" stroke="midnightblue" points="215.68,-20.18 224.93,-15 214.48,-13.28 215.68,-20.18"/>
</g>
</g>
</svg>
