<?xml version="1.0" encoding="UTF-8" standalone="no"?>
<!DOCTYPE svg PUBLIC "-//W3C//DTD SVG 1.1//EN"
 "http://www.w3.org/Graphics/SVG/1.1/DTD/svg11.dtd">
<!-- Generated by graphviz version 2.43.0 (0)
 -->
<!-- Title: polytope_number Pages: 1 -->
<svg width="398pt" height="560pt"
 viewBox="0.00 0.00 398.00 560.00" xmlns="http://www.w3.org/2000/svg" xmlns:xlink="http://www.w3.org/1999/xlink">
<g id="graph0" class="graph" transform="scale(1 1) rotate(0) translate(4 556)">
<title>polytope_number</title>
<polygon fill="white" stroke="transparent" points="-4,4 -4,-556 394,-556 394,4 -4,4"/>
<!-- Node1 -->
<g id="node1" class="node">
<title>Node1</title>
<g id="a_node1"><a xlink:title="Label the vertices, paths, and edges of a polytope.">
<polygon fill="#bfbfbf" stroke="black" points="0,-266.5 0,-285.5 102,-285.5 102,-266.5 0,-266.5"/>
<text text-anchor="middle" x="51" y="-273.5" font-family="Helvetica,sans-Serif" font-size="10.00">polytope_number</text>
</a>
</g>
</g>
<!-- Node2 -->
<g id="node2" class="node">
<title>Node2</title>
<g id="a_node2"><a xlink:href="group__datatypes__list__operate.html#gab05ff3da4d68d30922daa197f505580d" target="_top" xlink:title="Create a list of constant or incrementing elements.">
<polygon fill="white" stroke="black" points="182,-532.5 182,-551.5 230,-551.5 230,-532.5 182,-532.5"/>
<text text-anchor="middle" x="206" y="-539.5" font-family="Helvetica,sans-Serif" font-size="10.00">consts</text>
</a>
</g>
</g>
<!-- Node1&#45;&gt;Node2 -->
<g id="edge1" class="edge">
<title>Node1&#45;&gt;Node2</title>
<path fill="none" stroke="midnightblue" d="M52.34,-285.71C54.15,-322.52 65.65,-454.78 138,-523 147.12,-531.6 159.83,-536.35 171.74,-538.96"/>
<polygon fill="midnightblue" stroke="midnightblue" points="171.43,-542.45 181.89,-540.74 172.64,-535.56 171.43,-542.45"/>
</g>
<!-- Node3 -->
<g id="node3" class="node">
<title>Node3</title>
<g id="a_node3"><a xlink:href="group__datatypes__scalar__operate.html#gac119300e8c83de0037f2d0a4d9f0ab5c" target="_top" xlink:title="Return given value, if defined, or a secondary value, if primary is not defined.">
<polygon fill="white" stroke="black" points="172,-494.5 172,-513.5 240,-513.5 240,-494.5 172,-494.5"/>
<text text-anchor="middle" x="206" y="-501.5" font-family="Helvetica,sans-Serif" font-size="10.00">defined_or</text>
</a>
</g>
</g>
<!-- Node1&#45;&gt;Node3 -->
<g id="edge2" class="edge">
<title>Node1&#45;&gt;Node3</title>
<path fill="none" stroke="midnightblue" d="M53.01,-285.58C57.01,-318.58 74.75,-428.58 138,-485 144.75,-491.02 153.28,-495.15 161.97,-497.97"/>
<polygon fill="midnightblue" stroke="midnightblue" points="161.2,-501.39 171.77,-500.64 163.04,-494.63 161.2,-501.39"/>
</g>
<!-- Node4 -->
<g id="node4" class="node">
<title>Node4</title>
<g id="a_node4"><a xlink:href="group__datatypes__iterable__operate.html#gaccab3e37e43cb1d882713b3f3d6d9e1b" target="_top" xlink:title="Return the first element of an iterable value.">
<polygon fill="white" stroke="black" points="188.5,-456.5 188.5,-475.5 223.5,-475.5 223.5,-456.5 188.5,-456.5"/>
<text text-anchor="middle" x="206" y="-463.5" font-family="Helvetica,sans-Serif" font-size="10.00">first</text>
</a>
</g>
</g>
<!-- Node1&#45;&gt;Node4 -->
<g id="edge3" class="edge">
<title>Node1&#45;&gt;Node4</title>
<path fill="none" stroke="midnightblue" d="M54.03,-285.85C60.57,-315.13 83.95,-402.34 138,-447 149.33,-456.36 165,-461.11 178.33,-463.53"/>
<polygon fill="midnightblue" stroke="midnightblue" points="178,-467.02 188.4,-465 179.02,-460.09 178,-467.02"/>
</g>
<!-- Node5 -->
<g id="node5" class="node">
<title>Node5</title>
<g id="a_node5"><a xlink:href="group__datatypes__list__operate.html#ga079004ba232355ddd3a1b2e48fa668ba" target="_top" xlink:title="Create a element selection index list for a given list of values.">
<polygon fill="white" stroke="black" points="172.5,-418.5 172.5,-437.5 239.5,-437.5 239.5,-418.5 172.5,-418.5"/>
<text text-anchor="middle" x="206" y="-425.5" font-family="Helvetica,sans-Serif" font-size="10.00">index_gen</text>
</a>
</g>
</g>
<!-- Node1&#45;&gt;Node5 -->
<g id="edge4" class="edge">
<title>Node1&#45;&gt;Node5</title>
<path fill="none" stroke="midnightblue" d="M55.48,-285.74C64.79,-310.36 92.67,-375.49 138,-409 145.21,-414.33 153.85,-418.16 162.51,-420.92"/>
<polygon fill="midnightblue" stroke="midnightblue" points="161.63,-424.31 172.2,-423.6 163.5,-417.56 161.63,-424.31"/>
</g>
<!-- Node6 -->
<g id="node6" class="node">
<title>Node6</title>
<g id="a_node6"><a xlink:href="group__datatypes__scalar__test.html#ga51d7fdb800c10f4b7479d23b89ab8d22" target="_top" xlink:title="Test if a value is defined.">
<polygon fill="white" stroke="black" points="173,-380.5 173,-399.5 239,-399.5 239,-380.5 173,-380.5"/>
<text text-anchor="middle" x="206" y="-387.5" font-family="Helvetica,sans-Serif" font-size="10.00">is_defined</text>
</a>
</g>
</g>
<!-- Node1&#45;&gt;Node6 -->
<g id="edge5" class="edge">
<title>Node1&#45;&gt;Node6</title>
<path fill="none" stroke="midnightblue" d="M58.04,-285.71C70.54,-304.97 101.15,-348.11 138,-371 145.61,-375.73 154.43,-379.31 163.12,-382.01"/>
<polygon fill="midnightblue" stroke="midnightblue" points="162.24,-385.4 172.81,-384.71 164.11,-378.66 162.24,-385.4"/>
</g>
<!-- Node7 -->
<g id="node7" class="node">
<title>Node7</title>
<g id="a_node7"><a xlink:href="group__datatypes__scalar__test.html#ga068402d4bbb2bbd22b955ad1e14f104b" target="_top" xlink:title="Test if a numerical value is &#39;nan&#39; (not a number).">
<polygon fill="white" stroke="black" points="182,-342.5 182,-361.5 230,-361.5 230,-342.5 182,-342.5"/>
<text text-anchor="middle" x="206" y="-349.5" font-family="Helvetica,sans-Serif" font-size="10.00">is_nan</text>
</a>
</g>
</g>
<!-- Node1&#45;&gt;Node7 -->
<g id="edge6" class="edge">
<title>Node1&#45;&gt;Node7</title>
<path fill="none" stroke="midnightblue" d="M63.83,-285.58C79.79,-298.08 109.52,-319.91 138,-333 148.68,-337.91 160.92,-341.83 171.98,-344.81"/>
<polygon fill="midnightblue" stroke="midnightblue" points="171.18,-348.21 181.74,-347.27 172.9,-341.43 171.18,-348.21"/>
</g>
<!-- Node8 -->
<g id="node8" class="node">
<title>Node8</title>
<g id="a_node8"><a xlink:href="group__datatypes__list__operate.html#ga1088f9b09ff8ed12e2c844758f39c039" target="_top" xlink:title="Compute the mean/average of a list of numbers.">
<polygon fill="white" stroke="black" points="184,-304.5 184,-323.5 228,-323.5 228,-304.5 184,-304.5"/>
<text text-anchor="middle" x="206" y="-311.5" font-family="Helvetica,sans-Serif" font-size="10.00">mean</text>
</a>
</g>
</g>
<!-- Node1&#45;&gt;Node8 -->
<g id="edge7" class="edge">
<title>Node1&#45;&gt;Node8</title>
<path fill="none" stroke="midnightblue" d="M90.61,-285.59C116.36,-291.99 149.79,-300.29 173.85,-306.26"/>
<polygon fill="midnightblue" stroke="midnightblue" points="173.31,-309.73 183.86,-308.75 175,-302.94 173.31,-309.73"/>
</g>
<!-- Node9 -->
<g id="node9" class="node">
<title>Node9</title>
<g id="a_node9"><a xlink:href="group__tools__align.html#ga8f52a6a936d0f5e248f836d19df14a9f" target="_top" xlink:title="Orient a line or vector to a reference line or vector.">
<polygon fill="white" stroke="black" points="178,-266.5 178,-285.5 234,-285.5 234,-266.5 178,-266.5"/>
<text text-anchor="middle" x="206" y="-273.5" font-family="Helvetica,sans-Serif" font-size="10.00">orient_ll</text>
</a>
</g>
</g>
<!-- Node1&#45;&gt;Node9 -->
<g id="edge8" class="edge">
<title>Node1&#45;&gt;Node9</title>
<path fill="none" stroke="midnightblue" d="M102.1,-276C123.52,-276 148.09,-276 167.85,-276"/>
<polygon fill="midnightblue" stroke="midnightblue" points="167.99,-279.5 177.99,-276 167.99,-272.5 167.99,-279.5"/>
</g>
<!-- Node12 -->
<g id="node12" class="node">
<title>Node12</title>
<g id="a_node12"><a xlink:href="group__math__polytope.html#ga2c22180d5f971cc3da7025f0022c7def" target="_top" xlink:title="Get a normal vector for a polytope edge.">
<polygon fill="white" stroke="black" points="142,-228.5 142,-247.5 270,-247.5 270,-228.5 142,-228.5"/>
<text text-anchor="middle" x="206" y="-235.5" font-family="Helvetica,sans-Serif" font-size="10.00">polytope_edge_normal</text>
</a>
</g>
</g>
<!-- Node1&#45;&gt;Node12 -->
<g id="edge11" class="edge">
<title>Node1&#45;&gt;Node12</title>
<path fill="none" stroke="midnightblue" d="M90.61,-266.41C110.71,-261.42 135.48,-255.27 156.82,-249.97"/>
<polygon fill="midnightblue" stroke="midnightblue" points="157.81,-253.33 166.67,-247.52 156.12,-246.53 157.81,-253.33"/>
</g>
<!-- Node13 -->
<g id="node13" class="node">
<title>Node13</title>
<g id="a_node13"><a xlink:href="group__math__polytope.html#gaadf45c7557a63b989a950158a40dffc3" target="_top" xlink:title="Get the mean coordinate of all vertices of a polytope face.">
<polygon fill="white" stroke="black" points="146.5,-190.5 146.5,-209.5 265.5,-209.5 265.5,-190.5 146.5,-190.5"/>
<text text-anchor="middle" x="206" y="-197.5" font-family="Helvetica,sans-Serif" font-size="10.00">polytope_face_mean</text>
</a>
</g>
</g>
<!-- Node1&#45;&gt;Node13 -->
<g id="edge12" class="edge">
<title>Node1&#45;&gt;Node13</title>
<path fill="none" stroke="midnightblue" d="M63.83,-266.42C79.79,-253.92 109.52,-232.09 138,-219 143.01,-216.7 148.37,-214.61 153.78,-212.74"/>
<polygon fill="midnightblue" stroke="midnightblue" points="155.09,-215.99 163.53,-209.6 152.94,-209.33 155.09,-215.99"/>
</g>
<!-- Node14 -->
<g id="node14" class="node">
<title>Node14</title>
<g id="a_node14"><a xlink:href="group__math__polytope.html#ga596f64c7d6f8be6485a1ff9f482e3733" target="_top" xlink:title="Get the normal vector of a polytope face.">
<polygon fill="white" stroke="black" points="143.5,-152.5 143.5,-171.5 268.5,-171.5 268.5,-152.5 143.5,-152.5"/>
<text text-anchor="middle" x="206" y="-159.5" font-family="Helvetica,sans-Serif" font-size="10.00">polytope_face_normal</text>
</a>
</g>
</g>
<!-- Node1&#45;&gt;Node14 -->
<g id="edge13" class="edge">
<title>Node1&#45;&gt;Node14</title>
<path fill="none" stroke="midnightblue" d="M58.04,-266.29C70.54,-247.03 101.15,-203.89 138,-181 141.43,-178.87 145.1,-176.98 148.89,-175.29"/>
<polygon fill="midnightblue" stroke="midnightblue" points="150.48,-178.42 158.51,-171.51 147.92,-171.91 150.48,-178.42"/>
</g>
<!-- Node15 -->
<g id="node15" class="node">
<title>Node15</title>
<g id="a_node15"><a xlink:href="group__math__polytope.html#ga3acbef4dac1e9b9c464566f80b52a4f6" target="_top" xlink:title="List the edge coordinate index pairs of a polytope.">
<polygon fill="white" stroke="black" points="143,-114.5 143,-133.5 269,-133.5 269,-114.5 143,-114.5"/>
<text text-anchor="middle" x="206" y="-121.5" font-family="Helvetica,sans-Serif" font-size="10.00">polytope_faces2edges</text>
</a>
</g>
</g>
<!-- Node1&#45;&gt;Node15 -->
<g id="edge14" class="edge">
<title>Node1&#45;&gt;Node15</title>
<path fill="none" stroke="midnightblue" d="M55.48,-266.26C64.79,-241.64 92.67,-176.51 138,-143 140.63,-141.06 143.44,-139.32 146.38,-137.75"/>
<polygon fill="midnightblue" stroke="midnightblue" points="147.86,-140.92 155.49,-133.57 144.94,-134.56 147.86,-140.92"/>
</g>
<!-- Node16 -->
<g id="node16" class="node">
<title>Node16</title>
<g id="a_node16"><a xlink:href="group__math__polytope.html#gac5d546b49b09d2da25a6a02da5ef2373" target="_top" xlink:title="Determine the bounding limits of a polytope.">
<polygon fill="white" stroke="black" points="160,-76.5 160,-95.5 252,-95.5 252,-76.5 160,-76.5"/>
<text text-anchor="middle" x="206" y="-83.5" font-family="Helvetica,sans-Serif" font-size="10.00">polytope_limits</text>
</a>
</g>
</g>
<!-- Node1&#45;&gt;Node16 -->
<g id="edge15" class="edge">
<title>Node1&#45;&gt;Node16</title>
<path fill="none" stroke="midnightblue" d="M54.03,-266.15C60.57,-236.87 83.95,-149.66 138,-105 141.76,-101.89 146.01,-99.29 150.48,-97.11"/>
<polygon fill="midnightblue" stroke="midnightblue" points="152.02,-100.27 159.92,-93.22 149.35,-93.8 152.02,-100.27"/>
</g>
<!-- Node17 -->
<g id="node17" class="node">
<title>Node17</title>
<g id="a_node17"><a xlink:href="group__math__polytope.html#gaceb7ea29cd4faeceef8de899526ff4fa" target="_top" xlink:title="Get a normal vector for a polytope vertex.">
<polygon fill="white" stroke="black" points="138,-38.5 138,-57.5 274,-57.5 274,-38.5 138,-38.5"/>
<text text-anchor="middle" x="206" y="-45.5" font-family="Helvetica,sans-Serif" font-size="10.00">polytope_vertex_normal</text>
</a>
</g>
</g>
<!-- Node1&#45;&gt;Node17 -->
<g id="edge16" class="edge">
<title>Node1&#45;&gt;Node17</title>
<path fill="none" stroke="midnightblue" d="M53.01,-266.42C57.01,-233.42 74.75,-123.42 138,-67 139.76,-65.43 141.64,-63.99 143.61,-62.67"/>
<polygon fill="midnightblue" stroke="midnightblue" points="145.71,-65.51 152.76,-57.6 142.32,-59.38 145.71,-65.51"/>
</g>
<!-- Node18 -->
<g id="node18" class="node">
<title>Node18</title>
<g id="a_node18"><a xlink:href="group__datatypes__iterable__operate.html#ga894d4bec62cc9cf38d5e099de3028c54" target="_top" xlink:title="Return the second element of an iterable value.">
<polygon fill="white" stroke="black" points="180.5,-0.5 180.5,-19.5 231.5,-19.5 231.5,-0.5 180.5,-0.5"/>
<text text-anchor="middle" x="206" y="-7.5" font-family="Helvetica,sans-Serif" font-size="10.00">second</text>
</a>
</g>
</g>
<!-- Node1&#45;&gt;Node18 -->
<g id="edge17" class="edge">
<title>Node1&#45;&gt;Node18</title>
<path fill="none" stroke="midnightblue" d="M52.34,-266.29C54.15,-229.48 65.65,-97.22 138,-29 146.78,-20.72 158.89,-16.01 170.4,-13.35"/>
<polygon fill="midnightblue" stroke="midnightblue" points="171.09,-16.78 180.27,-11.49 169.8,-9.9 171.09,-16.78"/>
</g>
<!-- Node10 -->
<g id="node10" class="node">
<title>Node10</title>
<g id="a_node10"><a xlink:href="group__datatypes__euclidean.html#ga3d5c07c70f271bcf9144f50ce8620a89" target="_top" xlink:title="Compute the angle between two lines or vectors in a 3d or 2d&#45;space.">
<polygon fill="white" stroke="black" points="322.5,-285.5 322.5,-304.5 377.5,-304.5 377.5,-285.5 322.5,-285.5"/>
<text text-anchor="middle" x="350" y="-292.5" font-family="Helvetica,sans-Serif" font-size="10.00">angle_ll</text>
</a>
</g>
</g>
<!-- Node9&#45;&gt;Node10 -->
<g id="edge9" class="edge">
<title>Node9&#45;&gt;Node10</title>
<path fill="none" stroke="midnightblue" d="M234.04,-279.62C256.15,-282.58 287.64,-286.79 312.07,-290.06"/>
<polygon fill="midnightblue" stroke="midnightblue" points="311.68,-293.54 322.06,-291.39 312.61,-286.6 311.68,-293.54"/>
</g>
<!-- Node11 -->
<g id="node11" class="node">
<title>Node11</title>
<g id="a_node11"><a xlink:href="group__datatypes__euclidean.html#ga6ef2a81f304d31b9ec9753ca4875ad45" target="_top" xlink:title="Convert line to vector by shifting it to the origin.">
<polygon fill="white" stroke="black" points="310,-247.5 310,-266.5 390,-266.5 390,-247.5 310,-247.5"/>
<text text-anchor="middle" x="350" y="-254.5" font-family="Helvetica,sans-Serif" font-size="10.00">vol_to_origin</text>
</a>
</g>
</g>
<!-- Node9&#45;&gt;Node11 -->
<g id="edge10" class="edge">
<title>Node9&#45;&gt;Node11</title>
<path fill="none" stroke="midnightblue" d="M234.04,-272.38C252.59,-269.9 277.74,-266.54 299.78,-263.59"/>
<polygon fill="midnightblue" stroke="midnightblue" points="300.54,-267.02 309.98,-262.22 299.61,-260.08 300.54,-267.02"/>
</g>
</g>
</svg>
