<?xml version="1.0" encoding="UTF-8" standalone="no"?>
<!DOCTYPE svg PUBLIC "-//W3C//DTD SVG 1.1//EN"
 "http://www.w3.org/Graphics/SVG/1.1/DTD/svg11.dtd">
<!-- Generated by graphviz version 2.43.0 (0)
 -->
<!-- Title: List Operations Pages: 1 -->
<svg width="289pt" height="35pt"
 viewBox="0.00 0.00 289.00 34.96" xmlns="http://www.w3.org/2000/svg" xmlns:xlink="http://www.w3.org/1999/xlink">
<g id="graph0" class="graph" transform="scale(1 1) rotate(0) translate(4 30.96)">
<title>List Operations</title>
<polygon fill="white" stroke="transparent" points="-4,4 -4,-30.96 285,-30.96 285,4 -4,4"/>
<!-- Node2 -->
<g id="node1" class="node">
<title>Node2</title>
<g id="a_node1"><a xlink:href="group__datatypes.html" target="_top" xlink:title="Data type identification and operations.">
<polygon fill="white" stroke="black" points="71,-26.96 0,-26.96 0,-7.96 71,-7.96 71,-26.96"/>
<text text-anchor="middle" x="35.5" y="-14.96" font-family="Helvetica,sans-Serif" font-size="10.00">Data Types</text>
</a>
</g>
</g>
<!-- Node1 -->
<g id="node2" class="node">
<title>Node1</title>
<g id="a_node2"><a xlink:title="Operations for list data types.">
<polygon fill="#bfbfbf" stroke="black" points="281,-26.96 191,-26.96 191,-7.96 281,-7.96 281,-26.96"/>
<text text-anchor="middle" x="236" y="-14.96" font-family="Helvetica,sans-Serif" font-size="10.00">List Operations</text>
</a>
</g>
</g>
<!-- Node2&#45;&gt;Node1 -->
<g id="edge1" class="edge">
<title>Node2&#45;&gt;Node1</title>
<path fill="none" stroke="black" d="M81.27,-17.46C113.98,-17.46 158.14,-17.46 190.74,-17.46"/>
<polygon fill="black" stroke="black" points="81.08,-13.96 71.08,-17.46 81.08,-20.96 81.08,-13.96"/>
</g>
<!-- Node1&#45;&gt;Node2 -->
<g id="edge2" class="edge">
<title>Node1&#45;&gt;Node2</title>
<path fill="none" stroke="darkgreen" stroke-dasharray="5,2" d="M199.17,-7.95C190.65,-6.09 181.55,-4.41 173,-3.46 135.9,0.68 126.02,1.39 89,-3.46 81.7,-4.42 73.98,-6.09 66.77,-7.95"/>
<text text-anchor="middle" x="131" y="-6.46" font-family="Helvetica,sans-Serif" font-size="10.00">list_operate.scad</text>
</g>
</g>
</svg>
