<?xml version="1.0" encoding="UTF-8" standalone="no"?>
<!DOCTYPE svg PUBLIC "-//W3C//DTD SVG 1.1//EN"
 "http://www.w3.org/Graphics/SVG/1.1/DTD/svg11.dtd">
<!-- Generated by graphviz version 2.43.0 (0)
 -->
<!-- Title: sum Pages: 1 -->
<svg width="371pt" height="104pt"
 viewBox="0.00 0.00 371.00 104.00" xmlns="http://www.w3.org/2000/svg" xmlns:xlink="http://www.w3.org/1999/xlink">
<g id="graph0" class="graph" transform="scale(1 1) rotate(0) translate(4 100)">
<title>sum</title>
<polygon fill="white" stroke="transparent" points="-4,4 -4,-100 367,-100 367,4 -4,4"/>
<!-- Node1 -->
<g id="node1" class="node">
<title>Node1</title>
<g id="a_node1"><a xlink:title="Compute the sum of a list of numbers.">
<polygon fill="#bfbfbf" stroke="black" points="325,-19.5 325,-38.5 363,-38.5 363,-19.5 325,-19.5"/>
<text text-anchor="middle" x="344" y="-26.5" font-family="Helvetica,sans-Serif" font-size="10.00">sum</text>
</a>
</g>
</g>
<!-- Node2 -->
<g id="node2" class="node">
<title>Node2</title>
<g id="a_node2"><a xlink:href="group__tools__extrude.html#ga45661244067bf945b684550c3263ee45" target="_top" xlink:title="Linearly extrude a 2d shape with multi&#45;segment uniformly&#45;spaced profile scaling.">
<polygon fill="white" stroke="black" points="176,-38.5 176,-57.5 289,-57.5 289,-38.5 176,-38.5"/>
<text text-anchor="middle" x="232.5" y="-45.5" font-family="Helvetica,sans-Serif" font-size="10.00">extrude_linear_mss</text>
</a>
</g>
</g>
<!-- Node1&#45;&gt;Node2 -->
<g id="edge1" class="edge">
<title>Node1&#45;&gt;Node2</title>
<path fill="none" stroke="midnightblue" d="M314.93,-33.87C306.82,-35.28 297.67,-36.87 288.51,-38.46"/>
<polygon fill="midnightblue" stroke="midnightblue" points="315.66,-37.3 324.92,-32.14 314.47,-30.4 315.66,-37.3"/>
</g>
<!-- Node5 -->
<g id="node5" class="node">
<title>Node5</title>
<g id="a_node5"><a xlink:href="group__parts__3d__enclosure__project__box__rectangle.html#ga6a5d093d732e65556c46252220f2c4b6" target="_top" xlink:title="A rectangular box maker for project boxes, enclosures and housings.">
<polygon fill="white" stroke="black" points="7.5,-0.5 7.5,-19.5 132.5,-19.5 132.5,-0.5 7.5,-0.5"/>
<text text-anchor="middle" x="70" y="-7.5" font-family="Helvetica,sans-Serif" font-size="10.00">project_box_rectangle</text>
</a>
</g>
</g>
<!-- Node1&#45;&gt;Node5 -->
<g id="edge5" class="edge">
<title>Node1&#45;&gt;Node5</title>
<path fill="none" stroke="midnightblue" d="M314.74,-27.03C271.95,-24.04 189.67,-18.29 132.61,-14.3"/>
<polygon fill="midnightblue" stroke="midnightblue" points="314.51,-30.52 324.73,-27.72 315,-23.54 314.51,-30.52"/>
</g>
<!-- Node3 -->
<g id="node3" class="node">
<title>Node3</title>
<g id="a_node3"><a xlink:href="group__parts__3d__bearing__bearing__linear__rod.html#ga48399d5e708b4894494c69b2d1e88e26" target="_top" xlink:title="Transform 2d or 3d shape into a linear rod ball or sled bearing.">
<polygon fill="white" stroke="black" points="0,-76.5 0,-95.5 140,-95.5 140,-76.5 0,-76.5"/>
<text text-anchor="middle" x="70" y="-83.5" font-family="Helvetica,sans-Serif" font-size="10.00">make_bearing_linear_rod</text>
</a>
</g>
</g>
<!-- Node2&#45;&gt;Node3 -->
<g id="edge2" class="edge">
<title>Node2&#45;&gt;Node3</title>
<path fill="none" stroke="midnightblue" d="M181.25,-59.9C158.69,-65.24 132.44,-71.45 111.21,-76.48"/>
<polygon fill="midnightblue" stroke="midnightblue" points="182.07,-63.3 191,-57.59 180.46,-56.49 182.07,-63.3"/>
</g>
<!-- Node4 -->
<g id="node4" class="node">
<title>Node4</title>
<g id="a_node4"><a xlink:href="group__parts__3d__computer__pci__bracket.html#gaf56631cf80d8e5f0b77736b17b94ecd9" target="_top" xlink:title="PCI slot cover and adapter card bracket generator.">
<polygon fill="white" stroke="black" points="34,-38.5 34,-57.5 106,-57.5 106,-38.5 34,-38.5"/>
<text text-anchor="middle" x="70" y="-45.5" font-family="Helvetica,sans-Serif" font-size="10.00">pci_bracket</text>
</a>
</g>
</g>
<!-- Node2&#45;&gt;Node4 -->
<g id="edge3" class="edge">
<title>Node2&#45;&gt;Node4</title>
<path fill="none" stroke="midnightblue" d="M165.6,-48C145.18,-48 123.48,-48 106.02,-48"/>
<polygon fill="midnightblue" stroke="midnightblue" points="165.82,-51.5 175.82,-48 165.82,-44.5 165.82,-51.5"/>
</g>
<!-- Node2&#45;&gt;Node5 -->
<g id="edge4" class="edge">
<title>Node2&#45;&gt;Node5</title>
<path fill="none" stroke="midnightblue" d="M181.25,-36.1C158.69,-30.76 132.44,-24.55 111.21,-19.52"/>
<polygon fill="midnightblue" stroke="midnightblue" points="180.46,-39.51 191,-38.41 182.07,-32.7 180.46,-39.51"/>
</g>
</g>
</svg>
