<?xml version="1.0" encoding="UTF-8" standalone="no"?>
<!DOCTYPE svg PUBLIC "-//W3C//DTD SVG 1.1//EN"
 "http://www.w3.org/Graphics/SVG/1.1/DTD/svg11.dtd">
<!-- Generated by graphviz version 2.43.0 (0)
 -->
<!-- Title: Fastener Pages: 1 -->
<svg width="403pt" height="859pt"
 viewBox="0.00 0.00 403.00 858.53" xmlns="http://www.w3.org/2000/svg" xmlns:xlink="http://www.w3.org/1999/xlink">
<g id="graph0" class="graph" transform="scale(1 1) rotate(0) translate(4 854.53)">
<title>Fastener</title>
<polygon fill="white" stroke="transparent" points="-4,4 -4,-854.53 399,-854.53 399,4 -4,4"/>
<!-- Node7 -->
<g id="node1" class="node">
<title>Node7</title>
<g id="a_node1"><a xlink:href="group__database__component__fastener__din__982__hp.html" target="_top" xlink:title="[metric/nuts] Hexagon nylon insert stop nuts, heavy pattern; DIN 982 hp; ISO 7040.">
<polygon fill="white" stroke="black" points="386,-842.03 315,-842.03 315,-823.03 386,-823.03 386,-842.03"/>
<text text-anchor="middle" x="350.5" y="-830.03" font-family="Helvetica,sans-Serif" font-size="10.00">DIN 982 hp</text>
</a>
</g>
</g>
<!-- Node10 -->
<g id="node2" class="node">
<title>Node10</title>
<g id="a_node2"><a xlink:href="group__database__component__fastener__iso__4014a.html" target="_top" xlink:title="[metric/bolts] Hexagon head bolt a; ISO 4014a; DIN 931.">
<polygon fill="white" stroke="black" points="383.5,-805.03 317.5,-805.03 317.5,-786.03 383.5,-786.03 383.5,-805.03"/>
<text text-anchor="middle" x="350.5" y="-793.03" font-family="Helvetica,sans-Serif" font-size="10.00">ISO 4014a</text>
</a>
</g>
</g>
<!-- Node11 -->
<g id="node3" class="node">
<title>Node11</title>
<g id="a_node3"><a xlink:href="group__database__component__fastener__iso__4014b.html" target="_top" xlink:title="[metric/bolts] Hexagon head bolt b; ISO 4014b; DIN 931.">
<polygon fill="white" stroke="black" points="383.5,-768.03 317.5,-768.03 317.5,-749.03 383.5,-749.03 383.5,-768.03"/>
<text text-anchor="middle" x="350.5" y="-756.03" font-family="Helvetica,sans-Serif" font-size="10.00">ISO 4014b</text>
</a>
</g>
</g>
<!-- Node5 -->
<g id="node4" class="node">
<title>Node5</title>
<g id="a_node4"><a xlink:href="group__database__component__fastener__ansi__b18__3__5m.html" target="_top" xlink:title="[metric/screws] Flat head socket cap screws; ANSI B18.3.5M; ASME.">
<polygon fill="white" stroke="black" points="395,-731.03 306,-731.03 306,-712.03 395,-712.03 395,-731.03"/>
<text text-anchor="middle" x="350.5" y="-719.03" font-family="Helvetica,sans-Serif" font-size="10.00">ANSI B18.3.5M</text>
</a>
</g>
</g>
<!-- Node19 -->
<g id="node5" class="node">
<title>Node19</title>
<g id="a_node5"><a xlink:href="group__database__component__fastener__iso__7089.html" target="_top" xlink:title="[metric/washers] Standard flat washer; ISO 7089; DIN 125 A.">
<polygon fill="white" stroke="black" points="380.5,-694.03 320.5,-694.03 320.5,-675.03 380.5,-675.03 380.5,-694.03"/>
<text text-anchor="middle" x="350.5" y="-682.03" font-family="Helvetica,sans-Serif" font-size="10.00">ISO 7089</text>
</a>
</g>
</g>
<!-- Node8 -->
<g id="node6" class="node">
<title>Node8</title>
<g id="a_node6"><a xlink:href="group__database__component__fastener__din__982__rp.html" target="_top" xlink:title="[metric/nuts] Hexagon nylon insert stop nuts, regular pattern; DIN 982 rp; ISO 7040.">
<polygon fill="white" stroke="black" points="384.5,-657.03 316.5,-657.03 316.5,-638.03 384.5,-638.03 384.5,-657.03"/>
<text text-anchor="middle" x="350.5" y="-645.03" font-family="Helvetica,sans-Serif" font-size="10.00">DIN 982 rp</text>
</a>
</g>
</g>
<!-- Node15 -->
<g id="node7" class="node">
<title>Node15</title>
<g id="a_node7"><a xlink:href="group__database__component__fastener__iso__4161.html" target="_top" xlink:title="[metric/nuts] Hexagon flange nut, style 1; ISO 4161.">
<polygon fill="white" stroke="black" points="380.5,-620.03 320.5,-620.03 320.5,-601.03 380.5,-601.03 380.5,-620.03"/>
<text text-anchor="middle" x="350.5" y="-608.03" font-family="Helvetica,sans-Serif" font-size="10.00">ISO 4161</text>
</a>
</g>
</g>
<!-- Node9 -->
<g id="node8" class="node">
<title>Node9</title>
<g id="a_node8"><a xlink:href="group__database__component__fastener__din__985.html" target="_top" xlink:title="[metric/nuts] Hexagon nylon insert stop nuts, regular pattern; DIN 985; ISO 10511.">
<polygon fill="white" stroke="black" points="378.5,-583.03 322.5,-583.03 322.5,-564.03 378.5,-564.03 378.5,-583.03"/>
<text text-anchor="middle" x="350.5" y="-571.03" font-family="Helvetica,sans-Serif" font-size="10.00">DIN 985</text>
</a>
</g>
</g>
<!-- Node20 -->
<g id="node9" class="node">
<title>Node20</title>
<g id="a_node9"><a xlink:href="group__database__component__fastener__iso__7091.html" target="_top" xlink:title="[metric/washers] Standard flat washer, wider inner diameter; ISO 7091; DIN 126.">
<polygon fill="white" stroke="black" points="380.5,-546.03 320.5,-546.03 320.5,-527.03 380.5,-527.03 380.5,-546.03"/>
<text text-anchor="middle" x="350.5" y="-534.03" font-family="Helvetica,sans-Serif" font-size="10.00">ISO 7091</text>
</a>
</g>
</g>
<!-- Node21 -->
<g id="node10" class="node">
<title>Node21</title>
<g id="a_node10"><a xlink:href="group__database__component__fastener__iso__7092.html" target="_top" xlink:title="[metric/washers] Standard flat washer, small outer diameter; ISO 7092; DIN 433.">
<polygon fill="white" stroke="black" points="380.5,-509.03 320.5,-509.03 320.5,-490.03 380.5,-490.03 380.5,-509.03"/>
<text text-anchor="middle" x="350.5" y="-497.03" font-family="Helvetica,sans-Serif" font-size="10.00">ISO 7092</text>
</a>
</g>
</g>
<!-- Node22 -->
<g id="node11" class="node">
<title>Node22</title>
<g id="a_node11"><a xlink:href="group__database__component__fastener__iso__7093.html" target="_top" xlink:title="[metric/washers] Standard flat washer, wider outer diameter; ISO 7093; DIN 9021.">
<polygon fill="white" stroke="black" points="380.5,-472.03 320.5,-472.03 320.5,-453.03 380.5,-453.03 380.5,-472.03"/>
<text text-anchor="middle" x="350.5" y="-460.03" font-family="Helvetica,sans-Serif" font-size="10.00">ISO 7093</text>
</a>
</g>
</g>
<!-- Node12 -->
<g id="node12" class="node">
<title>Node12</title>
<g id="a_node12"><a xlink:href="group__database__component__fastener__iso__4032.html" target="_top" xlink:title="[metric/nuts] Hexagon nuts style 1; ISO 4032; DIN EN ISO.">
<polygon fill="white" stroke="black" points="380.5,-435.03 320.5,-435.03 320.5,-416.03 380.5,-416.03 380.5,-435.03"/>
<text text-anchor="middle" x="350.5" y="-423.03" font-family="Helvetica,sans-Serif" font-size="10.00">ISO 4032</text>
</a>
</g>
</g>
<!-- Node13 -->
<g id="node13" class="node">
<title>Node13</title>
<g id="a_node13"><a xlink:href="group__database__component__fastener__iso__4033.html" target="_top" xlink:title="[metric/nuts] Hexagon nuts style 2; ISO 4033; DIN EN ISO.">
<polygon fill="white" stroke="black" points="380.5,-398.03 320.5,-398.03 320.5,-379.03 380.5,-379.03 380.5,-398.03"/>
<text text-anchor="middle" x="350.5" y="-386.03" font-family="Helvetica,sans-Serif" font-size="10.00">ISO 4033</text>
</a>
</g>
</g>
<!-- Node14 -->
<g id="node14" class="node">
<title>Node14</title>
<g id="a_node14"><a xlink:href="group__database__component__fastener__iso__4035.html" target="_top" xlink:title="[metric/nuts] Hexagon jam nut; ISO 4035; DIN 439 B, CSN 021403, UNI 5589, EU 24035.">
<polygon fill="white" stroke="black" points="380.5,-361.03 320.5,-361.03 320.5,-342.03 380.5,-342.03 380.5,-361.03"/>
<text text-anchor="middle" x="350.5" y="-349.03" font-family="Helvetica,sans-Serif" font-size="10.00">ISO 4035</text>
</a>
</g>
</g>
<!-- Node3 -->
<g id="node15" class="node">
<title>Node3</title>
<g id="a_node15"><a xlink:href="group__database__component__fastener__Imperial.html" target="_top" xlink:title=" ">
<polygon fill="white" stroke="black" points="379,-324.03 322,-324.03 322,-305.03 379,-305.03 379,-324.03"/>
<text text-anchor="middle" x="350.5" y="-312.03" font-family="Helvetica,sans-Serif" font-size="10.00">Imperial</text>
</a>
</g>
</g>
<!-- Node23 -->
<g id="node16" class="node">
<title>Node23</title>
<g id="a_node16"><a xlink:href="group__database__component__fastener__iso__7380.html" target="_top" xlink:title="[metric/screws] Button head socket cap screws; ISO 7380; DIN EN ISO 7380&#45;1.">
<polygon fill="white" stroke="black" points="380.5,-287.03 320.5,-287.03 320.5,-268.03 380.5,-268.03 380.5,-287.03"/>
<text text-anchor="middle" x="350.5" y="-275.03" font-family="Helvetica,sans-Serif" font-size="10.00">ISO 7380</text>
</a>
</g>
</g>
<!-- Node4 -->
<g id="node17" class="node">
<title>Node4</title>
<g id="a_node17"><a xlink:href="group__database__component__fastener__Metric.html" target="_top" xlink:title=" ">
<polygon fill="white" stroke="black" points="374,-250.03 327,-250.03 327,-231.03 374,-231.03 374,-250.03"/>
<text text-anchor="middle" x="350.5" y="-238.03" font-family="Helvetica,sans-Serif" font-size="10.00">Metric</text>
</a>
</g>
</g>
<!-- Node6 -->
<g id="node18" class="node">
<title>Node6</title>
<g id="a_node18"><a xlink:href="group__database__component__fastener__din__125a.html" target="_top" xlink:title="[metric/washers] Flat washers; DIN 125A; ISO 7089.">
<polygon fill="white" stroke="black" points="381.5,-213.03 319.5,-213.03 319.5,-194.03 381.5,-194.03 381.5,-213.03"/>
<text text-anchor="middle" x="350.5" y="-201.03" font-family="Helvetica,sans-Serif" font-size="10.00">DIN 125A</text>
</a>
</g>
</g>
<!-- Node2 -->
<g id="node19" class="node">
<title>Node2</title>
<g id="a_node19"><a xlink:href="group__database__component.html" target="_top" xlink:title="Design component specifications.">
<polygon fill="white" stroke="black" points="73,-435.03 0,-435.03 0,-416.03 73,-416.03 73,-435.03"/>
<text text-anchor="middle" x="36.5" y="-423.03" font-family="Helvetica,sans-Serif" font-size="10.00">Component</text>
</a>
</g>
</g>
<!-- Node1 -->
<g id="node22" class="node">
<title>Node1</title>
<g id="a_node22"><a xlink:title="Mechanical fastener specifications.">
<polygon fill="#bfbfbf" stroke="black" points="168,-435.03 110,-435.03 110,-416.03 168,-416.03 168,-435.03"/>
<text text-anchor="middle" x="139" y="-423.03" font-family="Helvetica,sans-Serif" font-size="10.00">Fastener</text>
</a>
</g>
</g>
<!-- Node2&#45;&gt;Node1 -->
<g id="edge1" class="edge">
<title>Node2&#45;&gt;Node1</title>
<path fill="none" stroke="black" d="M83.33,-425.53C92.42,-425.53 101.7,-425.53 109.98,-425.53"/>
<polygon fill="black" stroke="black" points="83.22,-422.03 73.22,-425.53 83.22,-429.03 83.22,-422.03"/>
</g>
<!-- Node24 -->
<g id="node20" class="node">
<title>Node24</title>
<g id="a_node20"><a xlink:href="group__database__component__fastener__iso__8677.html" target="_top" xlink:title="[metric/bolts] Carriage bolts; ISO 8677; DIN 603.">
<polygon fill="white" stroke="black" points="380.5,-176.03 320.5,-176.03 320.5,-157.03 380.5,-157.03 380.5,-176.03"/>
<text text-anchor="middle" x="350.5" y="-164.03" font-family="Helvetica,sans-Serif" font-size="10.00">ISO 8677</text>
</a>
</g>
</g>
<!-- Node25 -->
<g id="node21" class="node">
<title>Node25</title>
<g id="a_node21"><a xlink:href="group__database__component__fastener__iso__8678.html" target="_top" xlink:title="[metric/bolts] Carriage bolts, short neck; ISO 8678; DIN 603.">
<polygon fill="white" stroke="black" points="380.5,-139.03 320.5,-139.03 320.5,-120.03 380.5,-120.03 380.5,-139.03"/>
<text text-anchor="middle" x="350.5" y="-127.03" font-family="Helvetica,sans-Serif" font-size="10.00">ISO 8678</text>
</a>
</g>
</g>
<!-- Node1&#45;&gt;Node7 -->
<g id="edge6" class="edge">
<title>Node1&#45;&gt;Node7</title>
<path fill="none" stroke="darkgreen" stroke-dasharray="5,2" d="M140.48,-435.32C143.37,-492.33 159.22,-779.88 186,-807.53 218.96,-841.56 277.36,-842.11 314.71,-838.2"/>
<text text-anchor="middle" x="237" y="-842.53" font-family="Helvetica,sans-Serif" font-size="10.00">din_982_hp.scad</text>
</g>
<!-- Node1&#45;&gt;Node10 -->
<g id="edge9" class="edge">
<title>Node1&#45;&gt;Node10</title>
<path fill="none" stroke="darkgreen" stroke-dasharray="5,2" d="M139.8,-435.24C138.96,-486.11 137.76,-721.35 186,-770.53 203.8,-788.67 275.14,-793.68 317.48,-795.04"/>
<text text-anchor="middle" x="237" y="-795.53" font-family="Helvetica,sans-Serif" font-size="10.00">iso_4014a.scad</text>
</g>
<!-- Node1&#45;&gt;Node11 -->
<g id="edge10" class="edge">
<title>Node1&#45;&gt;Node11</title>
<path fill="none" stroke="darkgreen" stroke-dasharray="5,2" d="M139.97,-435.13C140.03,-482.43 142.78,-690.16 186,-733.53 203.89,-751.48 274.83,-756.56 317.17,-757.99"/>
<text text-anchor="middle" x="237" y="-758.53" font-family="Helvetica,sans-Serif" font-size="10.00">iso_4014b.scad</text>
</g>
<!-- Node1&#45;&gt;Node5 -->
<g id="edge4" class="edge">
<title>Node1&#45;&gt;Node5</title>
<path fill="none" stroke="darkgreen" stroke-dasharray="5,2" d="M140.18,-435.12C141.23,-478.87 147.81,-658.96 186,-696.53 202.53,-712.79 263.27,-718.48 305.87,-720.47"/>
<text text-anchor="middle" x="237" y="-721.53" font-family="Helvetica,sans-Serif" font-size="10.00">ansi_b18_3_5m.scad</text>
</g>
<!-- Node1&#45;&gt;Node19 -->
<g id="edge18" class="edge">
<title>Node1&#45;&gt;Node19</title>
<path fill="none" stroke="darkgreen" stroke-dasharray="5,2" d="M140.46,-435.13C142.59,-475.11 152.82,-627.73 186,-659.53 204.76,-677.51 278.73,-682.56 320.45,-683.98"/>
<text text-anchor="middle" x="237" y="-684.53" font-family="Helvetica,sans-Serif" font-size="10.00">iso_7089.scad</text>
</g>
<!-- Node1&#45;&gt;Node8 -->
<g id="edge7" class="edge">
<title>Node1&#45;&gt;Node8</title>
<path fill="none" stroke="darkgreen" stroke-dasharray="5,2" d="M140.84,-435.05C144.18,-470.81 157.77,-596.41 186,-622.53 204.44,-639.59 274.07,-645.01 316.29,-646.73"/>
<text text-anchor="middle" x="237" y="-647.53" font-family="Helvetica,sans-Serif" font-size="10.00">din_982_rp.scad</text>
</g>
<!-- Node1&#45;&gt;Node15 -->
<g id="edge14" class="edge">
<title>Node1&#45;&gt;Node15</title>
<path fill="none" stroke="darkgreen" stroke-dasharray="5,2" d="M139.47,-435.36C138.54,-463.74 140.07,-546.32 186,-586.53 205.48,-603.58 278.77,-608.52 320.31,-609.95"/>
<text text-anchor="middle" x="237" y="-610.53" font-family="Helvetica,sans-Serif" font-size="10.00">iso_4161.scad</text>
</g>
<!-- Node1&#45;&gt;Node9 -->
<g id="edge8" class="edge">
<title>Node1&#45;&gt;Node9</title>
<path fill="none" stroke="darkgreen" stroke-dasharray="5,2" d="M140.34,-435.33C141.75,-459.42 148.98,-521.76 186,-551.53 206.42,-567.95 281.2,-572.14 322.18,-573.19"/>
<text text-anchor="middle" x="237" y="-574.53" font-family="Helvetica,sans-Serif" font-size="10.00">din_985.scad</text>
</g>
<!-- Node1&#45;&gt;Node20 -->
<g id="edge19" class="edge">
<title>Node1&#45;&gt;Node20</title>
<path fill="none" stroke="darkgreen" stroke-dasharray="5,2" d="M142.14,-435.16C146.72,-453.36 159.32,-492.66 186,-511.53 225.97,-539.8 285.22,-541.51 320.34,-539.49"/>
<text text-anchor="middle" x="237" y="-542.53" font-family="Helvetica,sans-Serif" font-size="10.00">iso_7091.scad</text>
</g>
<!-- Node1&#45;&gt;Node21 -->
<g id="edge20" class="edge">
<title>Node1&#45;&gt;Node21</title>
<path fill="none" stroke="darkgreen" stroke-dasharray="5,2" d="M146.88,-435.39C154.95,-446.13 169.35,-462.91 186,-471.53 229.1,-493.83 286.29,-498.9 320.36,-499.77"/>
<text text-anchor="middle" x="237" y="-499.53" font-family="Helvetica,sans-Serif" font-size="10.00">iso_7092.scad</text>
</g>
<!-- Node1&#45;&gt;Node22 -->
<g id="edge21" class="edge">
<title>Node1&#45;&gt;Node22</title>
<path fill="none" stroke="darkgreen" stroke-dasharray="5,2" d="M166.53,-435.08C172.85,-437.11 179.61,-439.07 186,-440.53 232.35,-451.11 287.34,-457.22 320.27,-460.21"/>
<text text-anchor="middle" x="237" y="-459.53" font-family="Helvetica,sans-Serif" font-size="10.00">iso_7093.scad</text>
</g>
<!-- Node1&#45;&gt;Node12 -->
<g id="edge11" class="edge">
<title>Node1&#45;&gt;Node12</title>
<path fill="none" stroke="darkgreen" stroke-dasharray="5,2" d="M168.25,-425.53C208.02,-425.53 280.11,-425.53 320.35,-425.53"/>
<text text-anchor="middle" x="237" y="-428.53" font-family="Helvetica,sans-Serif" font-size="10.00">iso_4032.scad</text>
</g>
<!-- Node1&#45;&gt;Node13 -->
<g id="edge12" class="edge">
<title>Node1&#45;&gt;Node13</title>
<path fill="none" stroke="darkgreen" stroke-dasharray="5,2" d="M166.53,-415.97C172.85,-413.95 179.61,-411.99 186,-410.53 232.35,-399.95 287.34,-393.84 320.27,-390.85"/>
<text text-anchor="middle" x="237" y="-413.53" font-family="Helvetica,sans-Serif" font-size="10.00">iso_4033.scad</text>
</g>
<!-- Node1&#45;&gt;Node14 -->
<g id="edge13" class="edge">
<title>Node1&#45;&gt;Node14</title>
<path fill="none" stroke="darkgreen" stroke-dasharray="5,2" d="M146.88,-415.66C154.95,-404.93 169.35,-388.14 186,-379.53 229.1,-357.23 286.29,-352.15 320.36,-351.29"/>
<text text-anchor="middle" x="237" y="-382.53" font-family="Helvetica,sans-Serif" font-size="10.00">iso_4035.scad</text>
</g>
<!-- Node1&#45;&gt;Node3 -->
<g id="edge2" class="edge">
<title>Node1&#45;&gt;Node3</title>
<path fill="none" stroke="black" d="M146.73,-406.36C153.8,-389.08 166.63,-364.32 186,-350.53 226.84,-321.45 286.88,-315.21 321.7,-314.24"/>
<polygon fill="black" stroke="black" points="143.35,-405.4 143.06,-415.99 149.89,-407.89 143.35,-405.4"/>
</g>
<!-- Node1&#45;&gt;Node23 -->
<g id="edge22" class="edge">
<title>Node1&#45;&gt;Node23</title>
<path fill="none" stroke="darkgreen" stroke-dasharray="5,2" d="M140.45,-416C142.13,-392.55 149.9,-331.86 186,-302.53 224.22,-271.47 284.61,-270.81 320.31,-273.75"/>
<text text-anchor="middle" x="237" y="-305.53" font-family="Helvetica,sans-Serif" font-size="10.00">iso_7380.scad</text>
</g>
<!-- Node1&#45;&gt;Node4 -->
<g id="edge3" class="edge">
<title>Node1&#45;&gt;Node4</title>
<path fill="none" stroke="black" d="M139.65,-405.29C140.24,-371.71 146.66,-304.72 186,-269.53 225.32,-234.36 291.97,-234.65 326.79,-237.68"/>
<polygon fill="black" stroke="black" points="136.15,-405.66 139.63,-415.66 143.15,-405.67 136.15,-405.66"/>
</g>
<!-- Node1&#45;&gt;Node6 -->
<g id="edge5" class="edge">
<title>Node1&#45;&gt;Node6</title>
<path fill="none" stroke="darkgreen" stroke-dasharray="5,2" d="M140.74,-415.94C143.77,-379.33 156.49,-249.03 186,-222.53 222.35,-189.88 283.09,-192.37 319.42,-197.62"/>
<text text-anchor="middle" x="237" y="-225.53" font-family="Helvetica,sans-Serif" font-size="10.00">din_125a.scad</text>
</g>
<!-- Node1&#45;&gt;Node24 -->
<g id="edge23" class="edge">
<title>Node1&#45;&gt;Node24</title>
<path fill="none" stroke="darkgreen" stroke-dasharray="5,2" d="M140.3,-415.93C141.81,-374.55 149.99,-211.93 186,-179.53 222.52,-146.68 284.06,-152.19 320.32,-159.29"/>
<text text-anchor="middle" x="237" y="-182.53" font-family="Helvetica,sans-Serif" font-size="10.00">iso_8677.scad</text>
</g>
<!-- Node1&#45;&gt;Node25 -->
<g id="edge24" class="edge">
<title>Node1&#45;&gt;Node25</title>
<path fill="none" stroke="darkgreen" stroke-dasharray="5,2" d="M140.01,-415.94C140.3,-370.51 143.98,-177.6 186,-139.53 222.35,-106.59 283.95,-113.5 320.27,-121.51"/>
<text text-anchor="middle" x="237" y="-142.53" font-family="Helvetica,sans-Serif" font-size="10.00">iso_8678.scad</text>
</g>
<!-- Node16 -->
<g id="node23" class="node">
<title>Node16</title>
<g id="a_node23"><a xlink:href="group__database__component__fastener__iso__4762.html" target="_top" xlink:title="[metric/screws] Socket cap screws; ISO 4762; DIN 912.">
<polygon fill="white" stroke="black" points="380.5,-102.03 320.5,-102.03 320.5,-83.03 380.5,-83.03 380.5,-102.03"/>
<text text-anchor="middle" x="350.5" y="-90.03" font-family="Helvetica,sans-Serif" font-size="10.00">ISO 4762</text>
</a>
</g>
</g>
<!-- Node1&#45;&gt;Node16 -->
<g id="edge15" class="edge">
<title>Node1&#45;&gt;Node16</title>
<path fill="none" stroke="darkgreen" stroke-dasharray="5,2" d="M139.8,-415.97C139.01,-366.92 138.11,-144.22 186,-100.53 222.22,-67.49 283.86,-75.34 320.22,-83.98"/>
<text text-anchor="middle" x="237" y="-103.53" font-family="Helvetica,sans-Serif" font-size="10.00">iso_4762.scad</text>
</g>
<!-- Node17 -->
<g id="node24" class="node">
<title>Node17</title>
<g id="a_node24"><a xlink:href="group__database__component__fastener__iso__7046__1p.html" target="_top" xlink:title="[metric/screws] Phillips flat head machine screws; ISO 7046&#45;1p; DIN 965.">
<polygon fill="white" stroke="black" points="388.5,-65.03 312.5,-65.03 312.5,-46.03 388.5,-46.03 388.5,-65.03"/>
<text text-anchor="middle" x="350.5" y="-53.03" font-family="Helvetica,sans-Serif" font-size="10.00">ISO 7046&#45;1p</text>
</a>
</g>
</g>
<!-- Node1&#45;&gt;Node17 -->
<g id="edge16" class="edge">
<title>Node1&#45;&gt;Node17</title>
<path fill="none" stroke="darkgreen" stroke-dasharray="5,2" d="M140.49,-415.79C143.38,-360.37 158.97,-86.25 186,-61.53 221.53,-29.03 281.68,-36.94 318.28,-45.99"/>
<text text-anchor="middle" x="237" y="-64.53" font-family="Helvetica,sans-Serif" font-size="10.00">iso_7046_1p.scad</text>
</g>
<!-- Node18 -->
<g id="node25" class="node">
<title>Node18</title>
<g id="a_node25"><a xlink:href="group__database__component__fastener__iso__7046__1s.html" target="_top" xlink:title="[metric/screws] Slotted flat head machine screws; ISO 7046&#45;1s; DIN 965.">
<polygon fill="white" stroke="black" points="388,-28.03 313,-28.03 313,-9.03 388,-9.03 388,-28.03"/>
<text text-anchor="middle" x="350.5" y="-16.03" font-family="Helvetica,sans-Serif" font-size="10.00">ISO 7046&#45;1s</text>
</a>
</g>
</g>
<!-- Node1&#45;&gt;Node18 -->
<g id="edge17" class="edge">
<title>Node1&#45;&gt;Node18</title>
<path fill="none" stroke="darkgreen" stroke-dasharray="5,2" d="M140.36,-415.94C142.66,-357.53 156.08,-51.05 186,-23.53 221.84,9.45 283.04,0.48 319.53,-9.03"/>
<text text-anchor="middle" x="237" y="-26.53" font-family="Helvetica,sans-Serif" font-size="10.00">iso_7046_1s.scad</text>
</g>
</g>
</svg>
