<?xml version="1.0" encoding="UTF-8" standalone="no"?>
<!DOCTYPE svg PUBLIC "-//W3C//DTD SVG 1.1//EN"
 "http://www.w3.org/Graphics/SVG/1.1/DTD/svg11.dtd">
<!-- Generated by graphviz version 2.43.0 (0)
 -->
<!-- Title: polygon_round_eve_all_p Pages: 1 -->
<svg width="586pt" height="294pt"
 viewBox="0.00 0.00 586.00 294.00" xmlns="http://www.w3.org/2000/svg" xmlns:xlink="http://www.w3.org/1999/xlink">
<g id="graph0" class="graph" transform="scale(1 1) rotate(0) translate(4 290)">
<title>polygon_round_eve_all_p</title>
<polygon fill="white" stroke="transparent" points="-4,4 -4,-290 582,-290 582,4 -4,4"/>
<!-- Node1 -->
<g id="node1" class="node">
<title>Node1</title>
<g id="a_node1"><a xlink:title="Compute coordinates that round all of the vertices between each adjacent edges in 2D.">
<polygon fill="#bfbfbf" stroke="black" points="438,-152.5 438,-171.5 578,-171.5 578,-152.5 438,-152.5"/>
<text text-anchor="middle" x="508" y="-159.5" font-family="Helvetica,sans-Serif" font-size="10.00">polygon_round_eve_all_p</text>
</a>
</g>
</g>
<!-- Node2 -->
<g id="node2" class="node">
<title>Node2</title>
<g id="a_node2"><a xlink:href="group__shapes__basic__3d.html#ga66f0c4a748f33cc1fff3343655b17f45" target="_top" xlink:title="A cone.">
<polygon fill="white" stroke="black" points="334.5,-266.5 334.5,-285.5 374.5,-285.5 374.5,-266.5 334.5,-266.5"/>
<text text-anchor="middle" x="354.5" y="-273.5" font-family="Helvetica,sans-Serif" font-size="10.00">cone</text>
</a>
</g>
</g>
<!-- Node1&#45;&gt;Node2 -->
<g id="edge1" class="edge">
<title>Node1&#45;&gt;Node2</title>
<path fill="none" stroke="midnightblue" d="M491.82,-178.96C472.58,-199.64 437.63,-234.58 402,-257 393.59,-262.29 383.44,-266.64 374.78,-269.84"/>
<polygon fill="midnightblue" stroke="midnightblue" points="494.44,-181.29 498.61,-171.55 489.27,-176.56 494.44,-181.29"/>
</g>
<!-- Node3 -->
<g id="node3" class="node">
<title>Node3</title>
<g id="a_node3"><a xlink:href="group__shapes__polygon.html#ga1151092c15142c227983e6bd481872b3" target="_top" xlink:title="A n&#45;sided regular polygon with vertex rounding.">
<polygon fill="white" stroke="black" points="325.5,-228.5 325.5,-247.5 383.5,-247.5 383.5,-228.5 325.5,-228.5"/>
<text text-anchor="middle" x="354.5" y="-235.5" font-family="Helvetica,sans-Serif" font-size="10.00">pg_ngon</text>
</a>
</g>
</g>
<!-- Node1&#45;&gt;Node3 -->
<g id="edge2" class="edge">
<title>Node1&#45;&gt;Node3</title>
<path fill="none" stroke="midnightblue" d="M478.58,-176.26C448.16,-191.52 400.74,-215.3 374.53,-228.45"/>
<polygon fill="midnightblue" stroke="midnightblue" points="480.44,-179.24 487.81,-171.63 477.3,-172.98 480.44,-179.24"/>
</g>
<!-- Node4 -->
<g id="node4" class="node">
<title>Node4</title>
<g id="a_node4"><a xlink:href="group__shapes__polygon.html#ga9c1bd914355d92f9d66ba0e5c2d9dbac" target="_top" xlink:title="A polygon rectangle with vertex rounding.">
<polygon fill="white" stroke="black" points="176,-190.5 176,-209.5 256,-209.5 256,-190.5 176,-190.5"/>
<text text-anchor="middle" x="216" y="-197.5" font-family="Helvetica,sans-Serif" font-size="10.00">pg_rectangle</text>
</a>
</g>
</g>
<!-- Node1&#45;&gt;Node4 -->
<g id="edge3" class="edge">
<title>Node1&#45;&gt;Node4</title>
<path fill="none" stroke="midnightblue" d="M448.52,-173.4C433.4,-176.12 417.13,-178.86 402,-181 351.81,-188.11 293.6,-193.64 256.08,-196.86"/>
<polygon fill="midnightblue" stroke="midnightblue" points="449.57,-176.77 458.77,-171.53 448.31,-169.88 449.57,-176.77"/>
</g>
<!-- Node6 -->
<g id="node6" class="node">
<title>Node6</title>
<g id="a_node6"><a xlink:href="group__shapes__polygon.html#ga2ca38d6942a8955d3b483d1a60bf7ec3" target="_top" xlink:title="A polygon rhombus with vertex rounding.">
<polygon fill="white" stroke="black" points="316,-152.5 316,-171.5 393,-171.5 393,-152.5 316,-152.5"/>
<text text-anchor="middle" x="354.5" y="-159.5" font-family="Helvetica,sans-Serif" font-size="10.00">pg_rhombus</text>
</a>
</g>
</g>
<!-- Node1&#45;&gt;Node6 -->
<g id="edge5" class="edge">
<title>Node1&#45;&gt;Node6</title>
<path fill="none" stroke="midnightblue" d="M427.73,-162C415.63,-162 403.65,-162 393.03,-162"/>
<polygon fill="midnightblue" stroke="midnightblue" points="427.9,-165.5 437.9,-162 427.9,-158.5 427.9,-165.5"/>
</g>
<!-- Node7 -->
<g id="node7" class="node">
<title>Node7</title>
<g id="a_node7"><a xlink:href="group__shapes__polygon.html#ga155ae943a1aa91432b1992fd1de364c2" target="_top" xlink:title="A polygon trapezoid with individual vertex rounding and arc facets.">
<polygon fill="white" stroke="black" points="314.5,-114.5 314.5,-133.5 394.5,-133.5 394.5,-114.5 314.5,-114.5"/>
<text text-anchor="middle" x="354.5" y="-121.5" font-family="Helvetica,sans-Serif" font-size="10.00">pg_trapezoid</text>
</a>
</g>
</g>
<!-- Node1&#45;&gt;Node7 -->
<g id="edge6" class="edge">
<title>Node1&#45;&gt;Node7</title>
<path fill="none" stroke="midnightblue" d="M459,-149.96C437.83,-144.65 413.31,-138.5 393.45,-133.52"/>
<polygon fill="midnightblue" stroke="midnightblue" points="458.22,-153.37 468.77,-152.41 459.92,-146.58 458.22,-153.37"/>
</g>
<!-- Node9 -->
<g id="node9" class="node">
<title>Node9</title>
<g id="a_node9"><a xlink:href="group__shapes__polygon.html#gac7e2c70b3428b729efd86a675df794e6" target="_top" xlink:title="A polygon triangle specified by three coordinate points with vertex rounding.">
<polygon fill="white" stroke="black" points="307,-76.5 307,-95.5 402,-95.5 402,-76.5 307,-76.5"/>
<text text-anchor="middle" x="354.5" y="-83.5" font-family="Helvetica,sans-Serif" font-size="10.00">pg_triangle_ppp</text>
</a>
</g>
</g>
<!-- Node1&#45;&gt;Node9 -->
<g id="edge8" class="edge">
<title>Node1&#45;&gt;Node9</title>
<path fill="none" stroke="midnightblue" d="M481.64,-147.22C460.62,-135.21 429.79,-118.17 402,-105 395.07,-101.71 387.4,-98.44 380.33,-95.56"/>
<polygon fill="midnightblue" stroke="midnightblue" points="480.15,-150.4 490.56,-152.35 483.64,-144.33 480.15,-150.4"/>
</g>
<!-- Node14 -->
<g id="node14" class="node">
<title>Node14</title>
<g id="a_node14"><a xlink:href="group__shapes__basic__2d.html#ga7452bf5414a3677ec806a31aed6b61dd" target="_top" xlink:title="A two&#45;dimensional star.">
<polygon fill="white" stroke="black" points="331,-38.5 331,-57.5 378,-57.5 378,-38.5 331,-38.5"/>
<text text-anchor="middle" x="354.5" y="-45.5" font-family="Helvetica,sans-Serif" font-size="10.00">star2d</text>
</a>
</g>
</g>
<!-- Node1&#45;&gt;Node14 -->
<g id="edge14" class="edge">
<title>Node1&#45;&gt;Node14</title>
<path fill="none" stroke="midnightblue" d="M491.82,-145.04C472.58,-124.36 437.63,-89.42 402,-67 394.62,-62.36 385.91,-58.44 378.03,-55.39"/>
<polygon fill="midnightblue" stroke="midnightblue" points="489.27,-147.44 498.61,-152.45 494.44,-142.71 489.27,-147.44"/>
</g>
<!-- Node5 -->
<g id="node5" class="node">
<title>Node5</title>
<g id="a_node5"><a xlink:href="group__parts__3d__enclosure__project__box__rectangle.html#ga6a5d093d732e65556c46252220f2c4b6" target="_top" xlink:title="A rectangular box maker for project boxes, enclosures and housings.">
<polygon fill="white" stroke="black" points="0,-114.5 0,-133.5 125,-133.5 125,-114.5 0,-114.5"/>
<text text-anchor="middle" x="62.5" y="-121.5" font-family="Helvetica,sans-Serif" font-size="10.00">project_box_rectangle</text>
</a>
</g>
</g>
<!-- Node4&#45;&gt;Node5 -->
<g id="edge4" class="edge">
<title>Node4&#45;&gt;Node5</title>
<path fill="none" stroke="midnightblue" d="M174.93,-186.87C170.18,-185.03 165.44,-183.06 161,-181 130.22,-166.75 96.51,-145.73 77.89,-133.59"/>
<polygon fill="midnightblue" stroke="midnightblue" points="174.01,-190.26 184.6,-190.45 176.44,-183.69 174.01,-190.26"/>
</g>
<!-- Node8 -->
<g id="node8" class="node">
<title>Node8</title>
<g id="a_node8"><a xlink:href="group__shapes__revolved.html#ga69b374bbebd7d87cfcd06b6bd3278404" target="_top" xlink:title="A trapezoidal cross&#45;sectional profile revolved about the z&#45;axis.">
<polygon fill="white" stroke="black" points="161,-152.5 161,-171.5 271,-171.5 271,-152.5 161,-152.5"/>
<text text-anchor="middle" x="216" y="-159.5" font-family="Helvetica,sans-Serif" font-size="10.00">torus_pg_trapezoid</text>
</a>
</g>
</g>
<!-- Node7&#45;&gt;Node8 -->
<g id="edge7" class="edge">
<title>Node7&#45;&gt;Node8</title>
<path fill="none" stroke="midnightblue" d="M309.25,-136.32C290.5,-141.54 268.97,-147.53 251.43,-152.41"/>
<polygon fill="midnightblue" stroke="midnightblue" points="310.36,-139.64 319.06,-133.59 308.48,-132.9 310.36,-139.64"/>
</g>
<!-- Node10 -->
<g id="node10" class="node">
<title>Node10</title>
<g id="a_node10"><a xlink:href="group__shapes__polygon.html#gad85d14f73179499777da1e9297fbcae8" target="_top" xlink:title="A polygon triangle specified by angle&#45;angle&#45;size with vertex rounding.">
<polygon fill="white" stroke="black" points="169,-114.5 169,-133.5 263,-133.5 263,-114.5 169,-114.5"/>
<text text-anchor="middle" x="216" y="-121.5" font-family="Helvetica,sans-Serif" font-size="10.00">pg_triangle_aas</text>
</a>
</g>
</g>
<!-- Node9&#45;&gt;Node10 -->
<g id="edge9" class="edge">
<title>Node9&#45;&gt;Node10</title>
<path fill="none" stroke="midnightblue" d="M309.25,-98.32C290.5,-103.54 268.97,-109.53 251.43,-114.41"/>
<polygon fill="midnightblue" stroke="midnightblue" points="310.36,-101.64 319.06,-95.59 308.48,-94.9 310.36,-101.64"/>
</g>
<!-- Node11 -->
<g id="node11" class="node">
<title>Node11</title>
<g id="a_node11"><a xlink:href="group__shapes__polygon.html#ga45e8a17aef3dd6755f833f25a8937cf7" target="_top" xlink:title="A polygon triangle specified by angle&#45;size&#45;angle with vertex rounding.">
<polygon fill="white" stroke="black" points="169,-76.5 169,-95.5 263,-95.5 263,-76.5 169,-76.5"/>
<text text-anchor="middle" x="216" y="-83.5" font-family="Helvetica,sans-Serif" font-size="10.00">pg_triangle_asa</text>
</a>
</g>
</g>
<!-- Node9&#45;&gt;Node11 -->
<g id="edge10" class="edge">
<title>Node9&#45;&gt;Node11</title>
<path fill="none" stroke="midnightblue" d="M296.83,-86C285.7,-86 274.14,-86 263.38,-86"/>
<polygon fill="midnightblue" stroke="midnightblue" points="296.91,-89.5 306.91,-86 296.91,-82.5 296.91,-89.5"/>
</g>
<!-- Node12 -->
<g id="node12" class="node">
<title>Node12</title>
<g id="a_node12"><a xlink:href="group__shapes__polygon.html#ga24be160074502dce7ff8a78361d4b074" target="_top" xlink:title="A polygon triangle specified by size&#45;angle&#45;size with vertex rounding.">
<polygon fill="white" stroke="black" points="169.5,-38.5 169.5,-57.5 262.5,-57.5 262.5,-38.5 169.5,-38.5"/>
<text text-anchor="middle" x="216" y="-45.5" font-family="Helvetica,sans-Serif" font-size="10.00">pg_triangle_sas</text>
</a>
</g>
</g>
<!-- Node9&#45;&gt;Node12 -->
<g id="edge11" class="edge">
<title>Node9&#45;&gt;Node12</title>
<path fill="none" stroke="midnightblue" d="M309.25,-73.68C290.5,-68.46 268.97,-62.47 251.43,-57.59"/>
<polygon fill="midnightblue" stroke="midnightblue" points="308.48,-77.1 319.06,-76.41 310.36,-70.36 308.48,-77.1"/>
</g>
<!-- Node13 -->
<g id="node13" class="node">
<title>Node13</title>
<g id="a_node13"><a xlink:href="group__shapes__polygon.html#gab9843df753e0537b490ac67cec6e31a9" target="_top" xlink:title="A polygon triangle specified by three side lengths with vertex rounding.">
<polygon fill="white" stroke="black" points="170,-0.5 170,-19.5 262,-19.5 262,-0.5 170,-0.5"/>
<text text-anchor="middle" x="216" y="-7.5" font-family="Helvetica,sans-Serif" font-size="10.00">pg_triangle_sss</text>
</a>
</g>
</g>
<!-- Node9&#45;&gt;Node13 -->
<g id="edge13" class="edge">
<title>Node9&#45;&gt;Node13</title>
<path fill="none" stroke="midnightblue" d="M315.2,-71.93C312.35,-70.41 309.58,-68.77 307,-67 287.8,-53.86 290.52,-41.66 271,-29 265.16,-25.21 258.48,-22.08 251.85,-19.52"/>
<polygon fill="midnightblue" stroke="midnightblue" points="313.95,-75.21 324.49,-76.37 316.98,-68.9 313.95,-75.21"/>
</g>
<!-- Node12&#45;&gt;Node5 -->
<g id="edge12" class="edge">
<title>Node12&#45;&gt;Node5</title>
<path fill="none" stroke="midnightblue" d="M174.93,-61.13C170.18,-62.97 165.44,-64.94 161,-67 130.22,-81.25 96.51,-102.27 77.89,-114.41"/>
<polygon fill="midnightblue" stroke="midnightblue" points="176.44,-64.31 184.6,-57.55 174.01,-57.74 176.44,-64.31"/>
</g>
</g>
</svg>
