<?xml version="1.0" encoding="UTF-8" standalone="no"?>
<!DOCTYPE svg PUBLIC "-//W3C//DTD SVG 1.1//EN"
 "http://www.w3.org/Graphics/SVG/1.1/DTD/svg11.dtd">
<!-- Generated by graphviz version 2.43.0 (0)
 -->
<!-- Title: Conditional Operations Pages: 1 -->
<svg width="301pt" height="29pt"
 viewBox="0.00 0.00 301.00 28.50" xmlns="http://www.w3.org/2000/svg" xmlns:xlink="http://www.w3.org/1999/xlink">
<g id="graph0" class="graph" transform="scale(1 1) rotate(0) translate(4 24.5)">
<title>Conditional Operations</title>
<polygon fill="white" stroke="transparent" points="-4,4 -4,-24.5 297,-24.5 297,4 -4,4"/>
<!-- Node1 -->
<g id="node1" class="node">
<title>Node1</title>
<g id="a_node1"><a xlink:title="Conditional transformations and operations.">
<polygon fill="#bfbfbf" stroke="black" points="128,-19 0,-19 0,0 128,0 128,-19"/>
<text text-anchor="middle" x="64" y="-7" font-family="Helvetica,sans-Serif" font-size="10.00">Conditional Operations</text>
</a>
</g>
</g>
<!-- Node2 -->
<g id="node2" class="node">
<title>Node2</title>
<g id="a_node2"><a xlink:href="group__tools.html" target="_top" xlink:title="Tools and design components.">
<polygon fill="white" stroke="black" points="293,-19 252,-19 252,0 293,0 293,-19"/>
<text text-anchor="middle" x="272.5" y="-7" font-family="Helvetica,sans-Serif" font-size="10.00">Tools</text>
</a>
</g>
</g>
<!-- Node1&#45;&gt;Node2 -->
<g id="edge2" class="edge">
<title>Node1&#45;&gt;Node2</title>
<path fill="none" stroke="darkgreen" stroke-dasharray="5,2" d="M128.08,-9.5C170.54,-9.5 223.74,-9.5 251.9,-9.5"/>
<text text-anchor="middle" x="190" y="-12.5" font-family="Helvetica,sans-Serif" font-size="10.00">operation_cs.scad</text>
</g>
<!-- Node2&#45;&gt;Node1 -->
<g id="edge1" class="edge">
<title>Node2&#45;&gt;Node1</title>
<path fill="none" stroke="black" d="M241.44,-7.76C238.93,-7.65 236.42,-7.56 234,-7.5 198.95,-6.57 159.8,-6.94 128.01,-7.6"/>
<polygon fill="black" stroke="black" points="241.5,-11.26 251.66,-8.24 241.84,-4.27 241.5,-11.26"/>
</g>
</g>
</svg>
