<?xml version="1.0" encoding="UTF-8" standalone="no"?>
<!DOCTYPE svg PUBLIC "-//W3C//DTD SVG 1.1//EN"
 "http://www.w3.org/Graphics/SVG/1.1/DTD/svg11.dtd">
<!-- Generated by graphviz version 2.43.0 (0)
 -->
<!-- Title: Constant Definitions Pages: 1 -->
<svg width="297pt" height="148pt"
 viewBox="0.00 0.00 297.00 148.00" xmlns="http://www.w3.org/2000/svg" xmlns:xlink="http://www.w3.org/1999/xlink">
<g id="graph0" class="graph" transform="scale(1 1) rotate(0) translate(4 144)">
<title>Constant Definitions</title>
<polygon fill="white" stroke="transparent" points="-4,4 -4,-144 293,-144 293,4 -4,4"/>
<!-- Node3 -->
<g id="node1" class="node">
<title>Node3</title>
<g id="a_node1"><a xlink:href="group__common__constants__euclidean.html" target="_top" xlink:title="Euclidean space axis mapping.">
<polygon fill="white" stroke="black" points="289,-140 225,-140 225,-121 289,-121 289,-140"/>
<text text-anchor="middle" x="257" y="-128" font-family="Helvetica,sans-Serif" font-size="10.00">Euclidean</text>
</a>
</g>
</g>
<!-- Node1 -->
<g id="node2" class="node">
<title>Node1</title>
<g id="a_node2"><a xlink:title="Common mechanical design constants.">
<polygon fill="#bfbfbf" stroke="black" points="116,-81 0,-81 0,-62 116,-62 116,-81"/>
<text text-anchor="middle" x="58" y="-69" font-family="Helvetica,sans-Serif" font-size="10.00">Constant Definitions</text>
</a>
</g>
</g>
<!-- Node1&#45;&gt;Node3 -->
<g id="edge2" class="edge">
<title>Node1&#45;&gt;Node3</title>
<path fill="none" stroke="black" d="M89.63,-84.94C103.08,-90.53 119.15,-96.79 134,-101.5 164.4,-111.14 199.96,-119.24 224.82,-124.41"/>
<polygon fill="black" stroke="black" points="90.93,-81.69 80.36,-81.02 88.2,-88.14 90.93,-81.69"/>
</g>
<!-- Node2 -->
<g id="node3" class="node">
<title>Node2</title>
<g id="a_node3"><a xlink:href="group__common.html" target="_top" xlink:title="Rudimentary library components.">
<polygon fill="white" stroke="black" points="287.5,-98 226.5,-98 226.5,-79 287.5,-79 287.5,-98"/>
<text text-anchor="middle" x="257" y="-86" font-family="Helvetica,sans-Serif" font-size="10.00">Common</text>
</a>
</g>
</g>
<!-- Node1&#45;&gt;Node2 -->
<g id="edge5" class="edge">
<title>Node1&#45;&gt;Node2</title>
<path fill="none" stroke="darkgreen" stroke-dasharray="5,2" d="M116.26,-80.48C122.24,-81.24 128.24,-81.94 134,-82.5 165.45,-85.57 201.62,-87.1 226.36,-87.84"/>
<text text-anchor="middle" x="170.5" y="-89.5" font-family="Helvetica,sans-Serif" font-size="10.00">constants.scad</text>
</g>
<!-- Node5 -->
<g id="node4" class="node">
<title>Node5</title>
<g id="a_node4"><a xlink:href="group__common__constants__system.html" target="_top" xlink:title="System and program limits.">
<polygon fill="white" stroke="black" points="283.5,-56 230.5,-56 230.5,-37 283.5,-37 283.5,-56"/>
<text text-anchor="middle" x="257" y="-44" font-family="Helvetica,sans-Serif" font-size="10.00">System</text>
</a>
</g>
</g>
<!-- Node1&#45;&gt;Node5 -->
<g id="edge4" class="edge">
<title>Node1&#45;&gt;Node5</title>
<path fill="none" stroke="black" d="M126.17,-62.98C162,-58.43 204,-53.1 230.31,-49.76"/>
<polygon fill="black" stroke="black" points="125.72,-59.5 116.25,-64.24 126.61,-66.45 125.72,-59.5"/>
</g>
<!-- Node4 -->
<g id="node5" class="node">
<title>Node4</title>
<g id="a_node5"><a xlink:href="group__common__constants__general.html" target="_top" xlink:title="General mathematical constants.">
<polygon fill="white" stroke="black" points="284.5,-19 229.5,-19 229.5,0 284.5,0 284.5,-19"/>
<text text-anchor="middle" x="257" y="-7" font-family="Helvetica,sans-Serif" font-size="10.00">General</text>
</a>
</g>
</g>
<!-- Node1&#45;&gt;Node4 -->
<g id="edge3" class="edge">
<title>Node1&#45;&gt;Node4</title>
<path fill="none" stroke="black" d="M99.29,-58.82C138.18,-46.58 195.95,-28.4 229.41,-17.87"/>
<polygon fill="black" stroke="black" points="97.84,-55.61 89.35,-61.95 99.94,-62.28 97.84,-55.61"/>
</g>
<!-- Node2&#45;&gt;Node1 -->
<g id="edge1" class="edge">
<title>Node2&#45;&gt;Node1</title>
<path fill="none" stroke="black" d="M216.23,-85.07C187.51,-82.59 148.32,-79.21 116.25,-76.44"/>
<polygon fill="black" stroke="black" points="216.03,-88.56 226.3,-85.94 216.63,-81.59 216.03,-88.56"/>
</g>
</g>
</svg>
