<?xml version="1.0" encoding="UTF-8" standalone="no"?>
<!DOCTYPE svg PUBLIC "-//W3C//DTD SVG 1.1//EN"
 "http://www.w3.org/Graphics/SVG/1.1/DTD/svg11.dtd">
<!-- Generated by graphviz version 2.43.0 (0)
 -->
<!-- Title: lmxuu Pages: 1 -->
<svg width="202pt" height="29pt"
 viewBox="0.00 0.00 202.00 28.50" xmlns="http://www.w3.org/2000/svg" xmlns:xlink="http://www.w3.org/1999/xlink">
<g id="graph0" class="graph" transform="scale(1 1) rotate(0) translate(4 24.5)">
<title>lmxuu</title>
<polygon fill="white" stroke="transparent" points="-4,4 -4,-24.5 198,-24.5 198,4 -4,4"/>
<!-- Node1 -->
<g id="node1" class="node">
<title>Node1</title>
<g id="a_node1"><a xlink:title="Linear motion bearing model.">
<polygon fill="#bfbfbf" stroke="black" points="47,-19 0,-19 0,0 47,0 47,-19"/>
<text text-anchor="middle" x="23.5" y="-7" font-family="Helvetica,sans-Serif" font-size="10.00">lmxuu</text>
</a>
</g>
</g>
<!-- Node2 -->
<g id="node2" class="node">
<title>Node2</title>
<g id="a_node2"><a xlink:href="group__models__3d__bearing.html" target="_top" xlink:title="Linear and radial bearings.">
<polygon fill="white" stroke="black" points="194,-19 140,-19 140,0 194,0 194,-19"/>
<text text-anchor="middle" x="167" y="-7" font-family="Helvetica,sans-Serif" font-size="10.00">Bearing</text>
</a>
</g>
</g>
<!-- Node1&#45;&gt;Node2 -->
<g id="edge2" class="edge">
<title>Node1&#45;&gt;Node2</title>
<path fill="none" stroke="darkgreen" stroke-dasharray="5,2" d="M47.23,-9.5C72.55,-9.5 113.38,-9.5 139.96,-9.5"/>
<text text-anchor="middle" x="93.5" y="-12.5" font-family="Helvetica,sans-Serif" font-size="10.00">lmxuu.scad</text>
</g>
<!-- Node2&#45;&gt;Node1 -->
<g id="edge1" class="edge">
<title>Node2&#45;&gt;Node1</title>
<path fill="none" stroke="black" d="M129.81,-7.72C127.17,-7.63 124.54,-7.56 122,-7.5 96.67,-6.92 90.33,-6.88 65,-7.5 59.23,-7.64 53,-7.9 47.2,-8.18"/>
<polygon fill="black" stroke="black" points="129.82,-11.23 139.95,-8.12 130.09,-4.23 129.82,-11.23"/>
</g>
</g>
</svg>
