<?xml version="1.0" encoding="UTF-8" standalone="no"?>
<!DOCTYPE svg PUBLIC "-//W3C//DTD SVG 1.1//EN"
 "http://www.w3.org/Graphics/SVG/1.1/DTD/svg11.dtd">
<!-- Generated by graphviz version 2.43.0 (0)
 -->
<!-- Title: rsc Pages: 1 -->
<svg width="349pt" height="29pt"
 viewBox="0.00 0.00 349.00 28.50" xmlns="http://www.w3.org/2000/svg" xmlns:xlink="http://www.w3.org/1999/xlink">
<g id="graph0" class="graph" transform="scale(1 1) rotate(0) translate(4 24.5)">
<title>rsc</title>
<polygon fill="white" stroke="transparent" points="-4,4 -4,-24.5 345,-24.5 345,4 -4,4"/>
<!-- Node1 -->
<g id="node1" class="node">
<title>Node1</title>
<g id="a_node1"><a xlink:title="[utility_pipe] Rigid steel conduit; rsc; heavy wall.">
<polygon fill="#bfbfbf" stroke="black" points="141,-19 110,-19 110,0 141,0 141,-19"/>
<text text-anchor="middle" x="125.5" y="-7" font-family="Helvetica,sans-Serif" font-size="10.00">rsc</text>
</a>
</g>
</g>
<!-- Node3 -->
<g id="node3" class="node">
<title>Node3</title>
<g id="a_node3"><a xlink:href="group__database__component__structural.html" target="_top" xlink:title="Structural component specifications.">
<polygon fill="white" stroke="black" points="341,-19 277,-19 277,0 341,0 341,-19"/>
<text text-anchor="middle" x="309" y="-7" font-family="Helvetica,sans-Serif" font-size="10.00">Structural</text>
</a>
</g>
</g>
<!-- Node1&#45;&gt;Node3 -->
<g id="edge2" class="edge">
<title>Node1&#45;&gt;Node3</title>
<path fill="none" stroke="darkgreen" stroke-dasharray="5,2" d="M141.05,-9.5C170.4,-9.5 237.31,-9.5 276.94,-9.5"/>
<text text-anchor="middle" x="209" y="-12.5" font-family="Helvetica,sans-Serif" font-size="10.00">utility_pipe_rsc.scad</text>
</g>
<!-- Node2 -->
<g id="node2" class="node">
<title>Node2</title>
<g id="a_node2"><a xlink:href="group__database__component__structural__Utility__Pipe.html" target="_top" xlink:title=" ">
<polygon fill="white" stroke="black" points="73,-19 0,-19 0,0 73,0 73,-19"/>
<text text-anchor="middle" x="36.5" y="-7" font-family="Helvetica,sans-Serif" font-size="10.00">Utility_Pipe</text>
</a>
</g>
</g>
<!-- Node2&#45;&gt;Node1 -->
<g id="edge1" class="edge">
<title>Node2&#45;&gt;Node1</title>
<path fill="none" stroke="black" d="M83.42,-9.5C92.92,-9.5 102.27,-9.5 109.64,-9.5"/>
<polygon fill="black" stroke="black" points="83.14,-6 73.14,-9.5 83.14,-13 83.14,-6"/>
</g>
</g>
</svg>
