<?xml version="1.0" encoding="UTF-8" standalone="no"?>
<!DOCTYPE svg PUBLIC "-//W3C//DTD SVG 1.1//EN"
 "http://www.w3.org/Graphics/SVG/1.1/DTD/svg11.dtd">
<!-- Generated by graphviz version 2.43.0 (0)
 -->
<!-- Title: Bearing Pages: 1 -->
<svg width="413pt" height="37pt"
 viewBox="0.00 0.00 413.00 36.78" xmlns="http://www.w3.org/2000/svg" xmlns:xlink="http://www.w3.org/1999/xlink">
<g id="graph0" class="graph" transform="scale(1 1) rotate(0) translate(4 32.78)">
<title>Bearing</title>
<polygon fill="white" stroke="transparent" points="-4,4 -4,-32.78 409,-32.78 409,4 -4,4"/>
<!-- Node2 -->
<g id="node1" class="node">
<title>Node2</title>
<g id="a_node1"><a xlink:href="group__parts__3d.html" target="_top" xlink:title="3d parts, part generators, and small assemblies.">
<polygon fill="white" stroke="black" points="56,-28.78 0,-28.78 0,-9.78 56,-9.78 56,-28.78"/>
<text text-anchor="middle" x="28" y="-16.78" font-family="Helvetica,sans-Serif" font-size="10.00">3d Parts</text>
</a>
</g>
</g>
<!-- Node1 -->
<g id="node3" class="node">
<title>Node1</title>
<g id="a_node3"><a xlink:title="Mechanical motion bearings.">
<polygon fill="#bfbfbf" stroke="black" points="147,-28.78 93,-28.78 93,-9.78 147,-9.78 147,-28.78"/>
<text text-anchor="middle" x="120" y="-16.78" font-family="Helvetica,sans-Serif" font-size="10.00">Bearing</text>
</a>
</g>
</g>
<!-- Node2&#45;&gt;Node1 -->
<g id="edge1" class="edge">
<title>Node2&#45;&gt;Node1</title>
<path fill="none" stroke="black" d="M66.25,-19.28C75.22,-19.28 84.61,-19.28 92.94,-19.28"/>
<polygon fill="black" stroke="black" points="66,-15.78 56,-19.28 66,-22.78 66,-15.78"/>
</g>
<!-- Node3 -->
<g id="node2" class="node">
<title>Node3</title>
<g id="a_node2"><a xlink:href="group__parts__3d__bearing__bearing__linear__rod.html" target="_top" xlink:title="Linear rod ball and sled bearing.">
<polygon fill="white" stroke="black" points="405,-28.78 300,-28.78 300,-9.78 405,-9.78 405,-28.78"/>
<text text-anchor="middle" x="352.5" y="-16.78" font-family="Helvetica,sans-Serif" font-size="10.00">Linear rod bearing</text>
</a>
</g>
</g>
<!-- Node1&#45;&gt;Node3 -->
<g id="edge2" class="edge">
<title>Node1&#45;&gt;Node3</title>
<path fill="none" stroke="black" d="M157.64,-19.28C195.99,-19.28 256.54,-19.28 299.76,-19.28"/>
<polygon fill="black" stroke="black" points="157.44,-15.78 147.44,-19.28 157.44,-22.78 157.44,-15.78"/>
</g>
<!-- Node1&#45;&gt;Node3 -->
<g id="edge3" class="edge">
<title>Node1&#45;&gt;Node3</title>
<path fill="none" stroke="darkgreen" stroke-dasharray="5,2" d="M146.27,-9.78C152.32,-7.91 158.82,-6.24 165,-5.28 216.38,2.7 230.26,-0.12 282,-5.28 291.55,-6.23 301.74,-7.9 311.28,-9.77"/>
<text text-anchor="middle" x="223.5" y="-8.28" font-family="Helvetica,sans-Serif" font-size="10.00">bearing_linear_rod.scad</text>
</g>
</g>
</svg>
