<?xml version="1.0" encoding="UTF-8" standalone="no"?>
<!DOCTYPE svg PUBLIC "-//W3C//DTD SVG 1.1//EN"
 "http://www.w3.org/Graphics/SVG/1.1/DTD/svg11.dtd">
<!-- Generated by graphviz version 2.43.0 (0)
 -->
<!-- Title: Polytopes Pages: 1 -->
<svg width="219pt" height="35pt"
 viewBox="0.00 0.00 219.00 35.28" xmlns="http://www.w3.org/2000/svg" xmlns:xlink="http://www.w3.org/1999/xlink">
<g id="graph0" class="graph" transform="scale(1 1) rotate(0) translate(4 31.28)">
<title>Polytopes</title>
<polygon fill="white" stroke="transparent" points="-4,4 -4,-31.28 215,-31.28 215,4 -4,4"/>
<!-- Node2 -->
<g id="node1" class="node">
<title>Node2</title>
<g id="a_node1"><a xlink:href="group__math.html" target="_top" xlink:title="Mathematical functions and operations.">
<polygon fill="white" stroke="black" points="41,-27.28 0,-27.28 0,-8.28 41,-8.28 41,-27.28"/>
<text text-anchor="middle" x="20.5" y="-15.28" font-family="Helvetica,sans-Serif" font-size="10.00">Math</text>
</a>
</g>
</g>
<!-- Node1 -->
<g id="node2" class="node">
<title>Node1</title>
<g id="a_node2"><a xlink:title="Polytope mathematical functions.">
<polygon fill="#bfbfbf" stroke="black" points="211,-27.28 146,-27.28 146,-8.28 211,-8.28 211,-27.28"/>
<text text-anchor="middle" x="178.5" y="-15.28" font-family="Helvetica,sans-Serif" font-size="10.00">Polytopes</text>
</a>
</g>
</g>
<!-- Node2&#45;&gt;Node1 -->
<g id="edge1" class="edge">
<title>Node2&#45;&gt;Node1</title>
<path fill="none" stroke="black" d="M51.3,-17.78C78.35,-17.78 118.11,-17.78 145.75,-17.78"/>
<polygon fill="black" stroke="black" points="51.26,-14.28 41.26,-17.78 51.26,-21.28 51.26,-14.28"/>
</g>
<!-- Node1&#45;&gt;Node2 -->
<g id="edge2" class="edge">
<title>Node1&#45;&gt;Node2</title>
<path fill="none" stroke="darkgreen" stroke-dasharray="5,2" d="M148.99,-8.27C142.19,-6.41 134.9,-4.74 128,-3.78 97.62,0.43 89.18,1.67 59,-3.78 53.12,-4.84 46.96,-6.77 41.37,-8.86"/>
<text text-anchor="middle" x="93.5" y="-6.78" font-family="Helvetica,sans-Serif" font-size="10.00">polytope.scad</text>
</g>
</g>
</svg>
