<?xml version="1.0" encoding="UTF-8" standalone="no"?>
<!DOCTYPE svg PUBLIC "-//W3C//DTD SVG 1.1//EN"
 "http://www.w3.org/Graphics/SVG/1.1/DTD/svg11.dtd">
<!-- Generated by graphviz version 2.43.0 (0)
 -->
<!-- Title: Radial Pages: 1 -->
<svg width="216pt" height="27pt"
 viewBox="0.00 0.00 216.00 27.00" xmlns="http://www.w3.org/2000/svg" xmlns:xlink="http://www.w3.org/1999/xlink">
<g id="graph0" class="graph" transform="scale(1 1) rotate(0) translate(4 23)">
<title>Radial</title>
<polygon fill="white" stroke="transparent" points="-4,4 -4,-23 212,-23 212,4 -4,4"/>
<!-- Node2 -->
<g id="node1" class="node">
<title>Node2</title>
<g id="a_node1"><a xlink:href="group__database__component__bearing.html" target="_top" xlink:title="Mechanical bearing specifications.">
<polygon fill="white" stroke="black" points="54,-19 0,-19 0,0 54,0 54,-19"/>
<text text-anchor="middle" x="27" y="-7" font-family="Helvetica,sans-Serif" font-size="10.00">Bearing</text>
</a>
</g>
</g>
<!-- Node1 -->
<g id="node3" class="node">
<title>Node1</title>
<g id="a_node3"><a xlink:title=" ">
<polygon fill="#bfbfbf" stroke="black" points="137,-19 90,-19 90,0 137,0 137,-19"/>
<text text-anchor="middle" x="113.5" y="-7" font-family="Helvetica,sans-Serif" font-size="10.00">Radial</text>
</a>
</g>
</g>
<!-- Node2&#45;&gt;Node1 -->
<g id="edge1" class="edge">
<title>Node2&#45;&gt;Node1</title>
<path fill="none" stroke="black" d="M64.55,-9.5C73.18,-9.5 82.14,-9.5 89.95,-9.5"/>
<polygon fill="black" stroke="black" points="64.27,-6 54.27,-9.5 64.27,-13 64.27,-6"/>
</g>
<!-- Node3 -->
<g id="node2" class="node">
<title>Node3</title>
<g id="a_node2"><a xlink:href="group__database__component__bearing__radial__ball.html" target="_top" xlink:title="[radial] Radial ball bearing; ball; rbb.">
<polygon fill="white" stroke="black" points="208,-19 173,-19 173,0 208,0 208,-19"/>
<text text-anchor="middle" x="190.5" y="-7" font-family="Helvetica,sans-Serif" font-size="10.00">ball</text>
</a>
</g>
</g>
<!-- Node1&#45;&gt;Node3 -->
<g id="edge2" class="edge">
<title>Node1&#45;&gt;Node3</title>
<path fill="none" stroke="black" d="M147.18,-9.5C156.09,-9.5 165.38,-9.5 172.97,-9.5"/>
<polygon fill="black" stroke="black" points="147,-6 137,-9.5 147,-13 147,-6"/>
</g>
</g>
</svg>
