<?xml version="1.0" encoding="UTF-8" standalone="no"?>
<!DOCTYPE svg PUBLIC "-//W3C//DTD SVG 1.1//EN"
 "http://www.w3.org/Graphics/SVG/1.1/DTD/svg11.dtd">
<!-- Generated by graphviz version 2.43.0 (0)
 -->
<!-- Title: angle Pages: 1 -->
<svg width="508pt" height="294pt"
 viewBox="0.00 0.00 508.00 294.00" xmlns="http://www.w3.org/2000/svg" xmlns:xlink="http://www.w3.org/1999/xlink">
<g id="graph0" class="graph" transform="scale(1 1) rotate(0) translate(4 290)">
<title>angle</title>
<polygon fill="white" stroke="transparent" points="-4,4 -4,-290 504,-290 504,4 -4,4"/>
<!-- Node1 -->
<g id="node1" class="node">
<title>Node1</title>
<g id="a_node1"><a xlink:title="Convert an angle from some units to another.">
<polygon fill="#bfbfbf" stroke="black" points="456,-133.5 456,-152.5 500,-152.5 500,-133.5 456,-133.5"/>
<text text-anchor="middle" x="478" y="-140.5" font-family="Helvetica,sans-Serif" font-size="10.00">angle</text>
</a>
</g>
</g>
<!-- Node2 -->
<g id="node2" class="node">
<title>Node2</title>
<g id="a_node2"><a xlink:href="group__shapes__basic__3d.html#ga66f0c4a748f33cc1fff3343655b17f45" target="_top" xlink:title="A cone.">
<polygon fill="white" stroke="black" points="349.5,-266.5 349.5,-285.5 389.5,-285.5 389.5,-266.5 349.5,-266.5"/>
<text text-anchor="middle" x="369.5" y="-273.5" font-family="Helvetica,sans-Serif" font-size="10.00">cone</text>
</a>
</g>
</g>
<!-- Node1&#45;&gt;Node2 -->
<g id="edge1" class="edge">
<title>Node1&#45;&gt;Node2</title>
<path fill="none" stroke="midnightblue" d="M472.01,-162.54C464.64,-187.65 448.55,-231.1 420,-257 411.55,-264.67 399.67,-269.37 389.67,-272.17"/>
<polygon fill="midnightblue" stroke="midnightblue" points="475.43,-163.28 474.72,-152.71 468.68,-161.42 475.43,-163.28"/>
</g>
<!-- Node3 -->
<g id="node3" class="node">
<title>Node3</title>
<g id="a_node3"><a xlink:href="group__tools__drafting__dimension.html#ga6b8e17d22ac4a95d25a90be8a74c0689" target="_top" xlink:title="Construct a angular dimension arc.">
<polygon fill="white" stroke="black" points="322,-228.5 322,-247.5 417,-247.5 417,-228.5 322,-228.5"/>
<text text-anchor="middle" x="369.5" y="-235.5" font-family="Helvetica,sans-Serif" font-size="10.00">draft_dim_angle</text>
</a>
</g>
</g>
<!-- Node1&#45;&gt;Node3 -->
<g id="edge2" class="edge">
<title>Node1&#45;&gt;Node3</title>
<path fill="none" stroke="midnightblue" d="M467.16,-161.53C457.27,-178.56 440.57,-203.46 420,-219 415.01,-222.77 409.17,-225.88 403.3,-228.41"/>
<polygon fill="midnightblue" stroke="midnightblue" points="470.36,-162.97 472.17,-152.54 464.25,-159.57 470.36,-162.97"/>
</g>
<!-- Node4 -->
<g id="node4" class="node">
<title>Node4</title>
<g id="a_node4"><a xlink:href="group__tools__extrude.html#ga31947e37a3512d9814d47f8f8c960f84" target="_top" xlink:title="Translate, rotate, and revolve a 2d shape about the z&#45;axis.">
<polygon fill="white" stroke="black" points="319,-190.5 319,-209.5 420,-209.5 420,-190.5 319,-190.5"/>
<text text-anchor="middle" x="369.5" y="-197.5" font-family="Helvetica,sans-Serif" font-size="10.00">extrude_rotate_tr</text>
</a>
</g>
</g>
<!-- Node1&#45;&gt;Node4 -->
<g id="edge3" class="edge">
<title>Node1&#45;&gt;Node4</title>
<path fill="none" stroke="midnightblue" d="M452.58,-157.66C442.58,-163.53 430.83,-170.25 420,-176 410.72,-180.93 400.28,-186.05 391.38,-190.29"/>
<polygon fill="midnightblue" stroke="midnightblue" points="454.38,-160.67 461.21,-152.56 450.82,-154.64 454.38,-160.67"/>
</g>
<!-- Node9 -->
<g id="node9" class="node">
<title>Node9</title>
<g id="a_node9"><a xlink:href="group__tools__extrude.html#ga2cbff19d3b793918b99aae3b56d37dfa" target="_top" xlink:title="Translate, rotate, scale, and revolve a 2d shape about the z&#45;axis.">
<polygon fill="white" stroke="black" points="176,-152.5 176,-171.5 283,-171.5 283,-152.5 176,-152.5"/>
<text text-anchor="middle" x="229.5" y="-159.5" font-family="Helvetica,sans-Serif" font-size="10.00">extrude_rotate_trs</text>
</a>
</g>
</g>
<!-- Node1&#45;&gt;Node9 -->
<g id="edge10" class="edge">
<title>Node1&#45;&gt;Node9</title>
<path fill="none" stroke="midnightblue" d="M445.81,-145.4C404.92,-148.56 332.57,-154.13 283.13,-157.94"/>
<polygon fill="midnightblue" stroke="midnightblue" points="446.28,-148.88 455.98,-144.62 445.74,-141.9 446.28,-148.88"/>
</g>
<!-- Node10 -->
<g id="node10" class="node">
<title>Node10</title>
<g id="a_node10"><a xlink:href="group__parts__3d__bearing__bearing__linear__rod.html#ga48399d5e708b4894494c69b2d1e88e26" target="_top" xlink:title="Transform 2d or 3d shape into a linear rod ball or sled bearing.">
<polygon fill="white" stroke="black" points="0,-114.5 0,-133.5 140,-133.5 140,-114.5 0,-114.5"/>
<text text-anchor="middle" x="70" y="-121.5" font-family="Helvetica,sans-Serif" font-size="10.00">make_bearing_linear_rod</text>
</a>
</g>
</g>
<!-- Node1&#45;&gt;Node10 -->
<g id="edge11" class="edge">
<title>Node1&#45;&gt;Node10</title>
<path fill="none" stroke="midnightblue" d="M445.7,-141.54C380.63,-138.49 229.38,-131.41 140.21,-127.24"/>
<polygon fill="midnightblue" stroke="midnightblue" points="445.59,-145.03 455.74,-142.01 445.92,-138.04 445.59,-145.03"/>
</g>
<!-- Node11 -->
<g id="node11" class="node">
<title>Node11</title>
<g id="a_node11"><a xlink:href="group__tools__repeat.html#ga543a7c0b4c744d98e6197036da5681fe" target="_top" xlink:title="Distribute copies of a 2d or 3d shape equally about a z&#45;axis radius.">
<polygon fill="white" stroke="black" points="329,-38.5 329,-57.5 410,-57.5 410,-38.5 329,-38.5"/>
<text text-anchor="middle" x="369.5" y="-45.5" font-family="Helvetica,sans-Serif" font-size="10.00">repeat_radial</text>
</a>
</g>
</g>
<!-- Node1&#45;&gt;Node11 -->
<g id="edge12" class="edge">
<title>Node1&#45;&gt;Node11</title>
<path fill="none" stroke="midnightblue" d="M465.46,-124.39C455.08,-108.82 438.63,-86.85 420,-72 412.76,-66.23 403.89,-61.38 395.68,-57.59"/>
<polygon fill="midnightblue" stroke="midnightblue" points="462.74,-126.62 471.1,-133.13 468.62,-122.83 462.74,-126.62"/>
</g>
<!-- Node12 -->
<g id="node12" class="node">
<title>Node12</title>
<g id="a_node12"><a xlink:href="group__shapes__basic__2d.html#ga7452bf5414a3677ec806a31aed6b61dd" target="_top" xlink:title="A two&#45;dimensional star.">
<polygon fill="white" stroke="black" points="206,-76.5 206,-95.5 253,-95.5 253,-76.5 206,-76.5"/>
<text text-anchor="middle" x="229.5" y="-83.5" font-family="Helvetica,sans-Serif" font-size="10.00">star2d</text>
</a>
</g>
</g>
<!-- Node1&#45;&gt;Node12 -->
<g id="edge16" class="edge">
<title>Node1&#45;&gt;Node12</title>
<path fill="none" stroke="midnightblue" d="M455.06,-127.53C444.85,-121.08 432.28,-114.14 420,-110 362.03,-90.44 289.19,-86.61 253.02,-85.99"/>
<polygon fill="midnightblue" stroke="midnightblue" points="453.41,-130.64 463.69,-133.22 457.27,-124.8 453.41,-130.64"/>
</g>
<!-- Node13 -->
<g id="node13" class="node">
<title>Node13</title>
<g id="a_node13"><a xlink:href="group__shapes__basic__3d.html#gab99dacd3036b965579d68b1d3b7ee2d8" target="_top" xlink:title="A three&#45;dimensional star.">
<polygon fill="white" stroke="black" points="206,-0.5 206,-19.5 253,-19.5 253,-0.5 206,-0.5"/>
<text text-anchor="middle" x="229.5" y="-7.5" font-family="Helvetica,sans-Serif" font-size="10.00">star3d</text>
</a>
</g>
</g>
<!-- Node1&#45;&gt;Node13 -->
<g id="edge17" class="edge">
<title>Node1&#45;&gt;Node13</title>
<path fill="none" stroke="midnightblue" d="M473.25,-123.37C467.11,-97.09 452.2,-51.2 420,-29 369.09,6.09 291.44,0.06 253.28,-5.75"/>
<polygon fill="midnightblue" stroke="midnightblue" points="469.86,-124.26 475.37,-133.31 476.71,-122.8 469.86,-124.26"/>
</g>
<!-- Node5 -->
<g id="node5" class="node">
<title>Node5</title>
<g id="a_node5"><a xlink:href="group__tools__extrude.html#ga78405b5fa18461a302a2f24646499ece" target="_top" xlink:title="Translate, rotate, and revolve a 2d shape about the z&#45;axis with linear elongation.">
<polygon fill="white" stroke="black" points="177.5,-190.5 177.5,-209.5 281.5,-209.5 281.5,-190.5 177.5,-190.5"/>
<text text-anchor="middle" x="229.5" y="-197.5" font-family="Helvetica,sans-Serif" font-size="10.00">extrude_rotate_trl</text>
</a>
</g>
</g>
<!-- Node4&#45;&gt;Node5 -->
<g id="edge4" class="edge">
<title>Node4&#45;&gt;Node5</title>
<path fill="none" stroke="midnightblue" d="M308.64,-200C299.64,-200 290.43,-200 281.64,-200"/>
<polygon fill="midnightblue" stroke="midnightblue" points="308.68,-203.5 318.68,-200 308.68,-196.5 308.68,-203.5"/>
</g>
<!-- Node4&#45;&gt;Node9 -->
<g id="edge8" class="edge">
<title>Node4&#45;&gt;Node9</title>
<path fill="none" stroke="midnightblue" d="M324.03,-187.75C305.01,-182.52 283.12,-176.49 265.31,-171.59"/>
<polygon fill="midnightblue" stroke="midnightblue" points="323.11,-191.13 333.68,-190.41 324.96,-184.38 323.11,-191.13"/>
</g>
<!-- Node6 -->
<g id="node6" class="node">
<title>Node6</title>
<g id="a_node6"><a xlink:href="group__shapes__revolved.html#ga58a3e713a904c96b69ddd8f87f7f3bb1" target="_top" xlink:title="An elliptical cross&#45;sectional profile revolved about the z&#45;axis.">
<polygon fill="white" stroke="black" points="22.5,-190.5 22.5,-209.5 117.5,-209.5 117.5,-190.5 22.5,-190.5"/>
<text text-anchor="middle" x="70" y="-197.5" font-family="Helvetica,sans-Serif" font-size="10.00">torus_ellipse_cs</text>
</a>
</g>
</g>
<!-- Node5&#45;&gt;Node6 -->
<g id="edge5" class="edge">
<title>Node5&#45;&gt;Node6</title>
<path fill="none" stroke="midnightblue" d="M167.26,-200C150.76,-200 133.18,-200 117.62,-200"/>
<polygon fill="midnightblue" stroke="midnightblue" points="167.36,-203.5 177.36,-200 167.36,-196.5 167.36,-203.5"/>
</g>
<!-- Node7 -->
<g id="node7" class="node">
<title>Node7</title>
<g id="a_node7"><a xlink:href="group__shapes__revolved.html#ga69b374bbebd7d87cfcd06b6bd3278404" target="_top" xlink:title="A trapezoidal cross&#45;sectional profile revolved about the z&#45;axis.">
<polygon fill="white" stroke="black" points="15,-152.5 15,-171.5 125,-171.5 125,-152.5 15,-152.5"/>
<text text-anchor="middle" x="70" y="-159.5" font-family="Helvetica,sans-Serif" font-size="10.00">torus_pg_trapezoid</text>
</a>
</g>
</g>
<!-- Node5&#45;&gt;Node7 -->
<g id="edge6" class="edge">
<title>Node5&#45;&gt;Node7</title>
<path fill="none" stroke="midnightblue" d="M178.9,-188.03C156.82,-182.71 131.2,-176.52 110.46,-171.52"/>
<polygon fill="midnightblue" stroke="midnightblue" points="178.21,-191.47 188.76,-190.41 179.86,-184.66 178.21,-191.47"/>
</g>
<!-- Node8 -->
<g id="node8" class="node">
<title>Node8</title>
<g id="a_node8"><a xlink:href="group__shapes__revolved.html#gad587c003585db775fd441468954b7c43" target="_top" xlink:title="A rectangular cross&#45;sectional profile revolved about the z&#45;axis.">
<polygon fill="white" stroke="black" points="18.5,-228.5 18.5,-247.5 121.5,-247.5 121.5,-228.5 18.5,-228.5"/>
<text text-anchor="middle" x="70" y="-235.5" font-family="Helvetica,sans-Serif" font-size="10.00">torus_rectangle_c</text>
</a>
</g>
</g>
<!-- Node5&#45;&gt;Node8 -->
<g id="edge7" class="edge">
<title>Node5&#45;&gt;Node8</title>
<path fill="none" stroke="midnightblue" d="M178.9,-211.97C156.82,-217.29 131.2,-223.48 110.46,-228.48"/>
<polygon fill="midnightblue" stroke="midnightblue" points="179.86,-215.34 188.76,-209.59 178.21,-208.53 179.86,-215.34"/>
</g>
<!-- Node9&#45;&gt;Node10 -->
<g id="edge9" class="edge">
<title>Node9&#45;&gt;Node10</title>
<path fill="none" stroke="midnightblue" d="M178.9,-150.03C156.82,-144.71 131.2,-138.52 110.46,-133.52"/>
<polygon fill="midnightblue" stroke="midnightblue" points="178.21,-153.47 188.76,-152.41 179.86,-146.66 178.21,-153.47"/>
</g>
<!-- Node11&#45;&gt;Node10 -->
<g id="edge13" class="edge">
<title>Node11&#45;&gt;Node10</title>
<path fill="none" stroke="midnightblue" d="M318.72,-47.53C279.21,-48.43 223.01,-52.57 176,-67 140.71,-77.84 103.73,-101.16 84.47,-114.37"/>
<polygon fill="midnightblue" stroke="midnightblue" points="318.95,-51.03 328.89,-47.36 318.83,-44.03 318.95,-51.03"/>
</g>
<!-- Node11&#45;&gt;Node12 -->
<g id="edge14" class="edge">
<title>Node11&#45;&gt;Node12</title>
<path fill="none" stroke="midnightblue" d="M323.87,-60.29C300.28,-66.79 272.32,-74.48 253.19,-79.75"/>
<polygon fill="midnightblue" stroke="midnightblue" points="324.96,-63.62 333.68,-57.59 323.11,-56.87 324.96,-63.62"/>
</g>
<!-- Node11&#45;&gt;Node13 -->
<g id="edge15" class="edge">
<title>Node11&#45;&gt;Node13</title>
<path fill="none" stroke="midnightblue" d="M323.87,-35.71C300.28,-29.21 272.32,-21.52 253.19,-16.25"/>
<polygon fill="midnightblue" stroke="midnightblue" points="323.11,-39.13 333.68,-38.41 324.96,-32.38 323.11,-39.13"/>
</g>
</g>
</svg>
