<?xml version="1.0" encoding="UTF-8" standalone="no"?>
<!DOCTYPE svg PUBLIC "-//W3C//DTD SVG 1.1//EN"
 "http://www.w3.org/Graphics/SVG/1.1/DTD/svg11.dtd">
<!-- Generated by graphviz version 2.43.0 (0)
 -->
<!-- Title: extrude_rotate_tr Pages: 1 -->
<svg width="428pt" height="142pt"
 viewBox="0.00 0.00 428.00 142.00" xmlns="http://www.w3.org/2000/svg" xmlns:xlink="http://www.w3.org/1999/xlink">
<g id="graph0" class="graph" transform="scale(1 1) rotate(0) translate(4 138)">
<title>extrude_rotate_tr</title>
<polygon fill="white" stroke="transparent" points="-4,4 -4,-138 424,-138 424,4 -4,4"/>
<!-- Node1 -->
<g id="node1" class="node">
<title>Node1</title>
<g id="a_node1"><a xlink:title="Translate, rotate, and revolve a 2d shape about the z&#45;axis.">
<polygon fill="#bfbfbf" stroke="black" points="319,-38.5 319,-57.5 420,-57.5 420,-38.5 319,-38.5"/>
<text text-anchor="middle" x="369.5" y="-45.5" font-family="Helvetica,sans-Serif" font-size="10.00">extrude_rotate_tr</text>
</a>
</g>
</g>
<!-- Node2 -->
<g id="node2" class="node">
<title>Node2</title>
<g id="a_node2"><a xlink:href="group__tools__extrude.html#ga78405b5fa18461a302a2f24646499ece" target="_top" xlink:title="Translate, rotate, and revolve a 2d shape about the z&#45;axis with linear elongation.">
<polygon fill="white" stroke="black" points="177.5,-66.5 177.5,-85.5 281.5,-85.5 281.5,-66.5 177.5,-66.5"/>
<text text-anchor="middle" x="229.5" y="-73.5" font-family="Helvetica,sans-Serif" font-size="10.00">extrude_rotate_trl</text>
</a>
</g>
</g>
<!-- Node1&#45;&gt;Node2 -->
<g id="edge1" class="edge">
<title>Node1&#45;&gt;Node2</title>
<path fill="none" stroke="midnightblue" d="M311.55,-59.55C300.19,-61.86 288.37,-64.26 277.39,-66.49"/>
<polygon fill="midnightblue" stroke="midnightblue" points="312.29,-62.98 321.39,-57.56 310.9,-56.12 312.29,-62.98"/>
</g>
<!-- Node6 -->
<g id="node6" class="node">
<title>Node6</title>
<g id="a_node6"><a xlink:href="group__tools__extrude.html#ga2cbff19d3b793918b99aae3b56d37dfa" target="_top" xlink:title="Translate, rotate, scale, and revolve a 2d shape about the z&#45;axis.">
<polygon fill="white" stroke="black" points="176,-19.5 176,-38.5 283,-38.5 283,-19.5 176,-19.5"/>
<text text-anchor="middle" x="229.5" y="-26.5" font-family="Helvetica,sans-Serif" font-size="10.00">extrude_rotate_trs</text>
</a>
</g>
</g>
<!-- Node1&#45;&gt;Node6 -->
<g id="edge5" class="edge">
<title>Node1&#45;&gt;Node6</title>
<path fill="none" stroke="midnightblue" d="M308.75,-39.77C300.2,-38.6 291.45,-37.39 283.04,-36.23"/>
<polygon fill="midnightblue" stroke="midnightblue" points="308.29,-43.24 318.68,-41.14 309.25,-36.31 308.29,-43.24"/>
</g>
<!-- Node3 -->
<g id="node3" class="node">
<title>Node3</title>
<g id="a_node3"><a xlink:href="group__shapes__revolved.html#ga58a3e713a904c96b69ddd8f87f7f3bb1" target="_top" xlink:title="An elliptical cross&#45;sectional profile revolved about the z&#45;axis.">
<polygon fill="white" stroke="black" points="22.5,-114.5 22.5,-133.5 117.5,-133.5 117.5,-114.5 22.5,-114.5"/>
<text text-anchor="middle" x="70" y="-121.5" font-family="Helvetica,sans-Serif" font-size="10.00">torus_ellipse_cs</text>
</a>
</g>
</g>
<!-- Node2&#45;&gt;Node3 -->
<g id="edge2" class="edge">
<title>Node2&#45;&gt;Node3</title>
<path fill="none" stroke="midnightblue" d="M190.49,-88.9C174.9,-94.07 156.64,-99.99 140,-105 129.29,-108.23 117.59,-111.53 106.91,-114.46"/>
<polygon fill="midnightblue" stroke="midnightblue" points="191.93,-92.11 200.31,-85.62 189.72,-85.47 191.93,-92.11"/>
</g>
<!-- Node4 -->
<g id="node4" class="node">
<title>Node4</title>
<g id="a_node4"><a xlink:href="group__shapes__revolved.html#ga69b374bbebd7d87cfcd06b6bd3278404" target="_top" xlink:title="A trapezoidal cross&#45;sectional profile revolved about the z&#45;axis.">
<polygon fill="white" stroke="black" points="15,-76.5 15,-95.5 125,-95.5 125,-76.5 15,-76.5"/>
<text text-anchor="middle" x="70" y="-83.5" font-family="Helvetica,sans-Serif" font-size="10.00">torus_pg_trapezoid</text>
</a>
</g>
</g>
<!-- Node2&#45;&gt;Node4 -->
<g id="edge3" class="edge">
<title>Node2&#45;&gt;Node4</title>
<path fill="none" stroke="midnightblue" d="M166.98,-79.91C153.17,-80.78 138.61,-81.71 125.13,-82.56"/>
<polygon fill="midnightblue" stroke="midnightblue" points="167.61,-83.37 177.36,-79.25 167.16,-76.39 167.61,-83.37"/>
</g>
<!-- Node5 -->
<g id="node5" class="node">
<title>Node5</title>
<g id="a_node5"><a xlink:href="group__shapes__revolved.html#gad587c003585db775fd441468954b7c43" target="_top" xlink:title="A rectangular cross&#45;sectional profile revolved about the z&#45;axis.">
<polygon fill="white" stroke="black" points="18.5,-38.5 18.5,-57.5 121.5,-57.5 121.5,-38.5 18.5,-38.5"/>
<text text-anchor="middle" x="70" y="-45.5" font-family="Helvetica,sans-Serif" font-size="10.00">torus_rectangle_c</text>
</a>
</g>
</g>
<!-- Node2&#45;&gt;Node5 -->
<g id="edge4" class="edge">
<title>Node2&#45;&gt;Node5</title>
<path fill="none" stroke="midnightblue" d="M167.11,-65.09C152.05,-62.41 136.1,-59.57 121.61,-57"/>
<polygon fill="midnightblue" stroke="midnightblue" points="166.91,-68.6 177.36,-66.91 168.13,-61.71 166.91,-68.6"/>
</g>
<!-- Node7 -->
<g id="node7" class="node">
<title>Node7</title>
<g id="a_node7"><a xlink:href="group__parts__3d__bearing__bearing__linear__rod.html#ga48399d5e708b4894494c69b2d1e88e26" target="_top" xlink:title="Transform 2d or 3d shape into a linear rod ball or sled bearing.">
<polygon fill="white" stroke="black" points="0,-0.5 0,-19.5 140,-19.5 140,-0.5 0,-0.5"/>
<text text-anchor="middle" x="70" y="-7.5" font-family="Helvetica,sans-Serif" font-size="10.00">make_bearing_linear_rod</text>
</a>
</g>
</g>
<!-- Node6&#45;&gt;Node7 -->
<g id="edge6" class="edge">
<title>Node6&#45;&gt;Node7</title>
<path fill="none" stroke="midnightblue" d="M165.6,-21.41C157.26,-20.41 148.68,-19.37 140.25,-18.35"/>
<polygon fill="midnightblue" stroke="midnightblue" points="165.27,-24.9 175.62,-22.62 166.11,-17.95 165.27,-24.9"/>
</g>
</g>
</svg>
