<?xml version="1.0" encoding="UTF-8" standalone="no"?>
<!DOCTYPE svg PUBLIC "-//W3C//DTD SVG 1.1//EN"
 "http://www.w3.org/Graphics/SVG/1.1/DTD/svg11.dtd">
<!-- Generated by graphviz version 2.43.0 (0)
 -->
<!-- Title: triangle2d_sss2ppp Pages: 1 -->
<svg width="410pt" height="218pt"
 viewBox="0.00 0.00 410.00 218.00" xmlns="http://www.w3.org/2000/svg" xmlns:xlink="http://www.w3.org/1999/xlink">
<g id="graph0" class="graph" transform="scale(1 1) rotate(0) translate(4 214)">
<title>triangle2d_sss2ppp</title>
<polygon fill="white" stroke="transparent" points="-4,4 -4,-214 406,-214 406,4 -4,4"/>
<!-- Node1 -->
<g id="node1" class="node">
<title>Node1</title>
<g id="a_node1"><a xlink:title="Compute a set of vertex coordinates for a triangle given its side lengths in 2D.">
<polygon fill="#bfbfbf" stroke="black" points="291,-95.5 291,-114.5 402,-114.5 402,-95.5 291,-95.5"/>
<text text-anchor="middle" x="346.5" y="-102.5" font-family="Helvetica,sans-Serif" font-size="10.00">triangle2d_sss2ppp</text>
</a>
</g>
</g>
<!-- Node2 -->
<g id="node2" class="node">
<title>Node2</title>
<g id="a_node2"><a xlink:href="group__shapes__basic__3d.html#ga66f0c4a748f33cc1fff3343655b17f45" target="_top" xlink:title="A cone.">
<polygon fill="white" stroke="black" points="188,-190.5 188,-209.5 228,-209.5 228,-190.5 188,-190.5"/>
<text text-anchor="middle" x="208" y="-197.5" font-family="Helvetica,sans-Serif" font-size="10.00">cone</text>
</a>
</g>
</g>
<!-- Node1&#45;&gt;Node2 -->
<g id="edge1" class="edge">
<title>Node1&#45;&gt;Node2</title>
<path fill="none" stroke="midnightblue" d="M328.66,-121.91C311.35,-138.6 283.04,-164 255,-181 246.73,-186.02 236.89,-190.28 228.44,-193.49"/>
<polygon fill="midnightblue" stroke="midnightblue" points="331.53,-124 336.22,-114.5 326.63,-119 331.53,-124"/>
</g>
<!-- Node3 -->
<g id="node3" class="node">
<title>Node3</title>
<g id="a_node3"><a xlink:href="group__shapes__polygon.html#gad85d14f73179499777da1e9297fbcae8" target="_top" xlink:title="A polygon triangle specified by angle&#45;angle&#45;size with vertex rounding.">
<polygon fill="white" stroke="black" points="161,-152.5 161,-171.5 255,-171.5 255,-152.5 161,-152.5"/>
<text text-anchor="middle" x="208" y="-159.5" font-family="Helvetica,sans-Serif" font-size="10.00">pg_triangle_aas</text>
</a>
</g>
</g>
<!-- Node1&#45;&gt;Node3 -->
<g id="edge2" class="edge">
<title>Node1&#45;&gt;Node3</title>
<path fill="none" stroke="midnightblue" d="M313.22,-118.61C295.96,-125.87 274.33,-134.95 255,-143 247.66,-146.06 239.66,-149.37 232.41,-152.36"/>
<polygon fill="midnightblue" stroke="midnightblue" points="314.97,-121.67 322.83,-114.56 312.25,-115.22 314.97,-121.67"/>
</g>
<!-- Node4 -->
<g id="node4" class="node">
<title>Node4</title>
<g id="a_node4"><a xlink:href="group__shapes__polygon.html#ga45e8a17aef3dd6755f833f25a8937cf7" target="_top" xlink:title="A polygon triangle specified by angle&#45;size&#45;angle with vertex rounding.">
<polygon fill="white" stroke="black" points="161,-114.5 161,-133.5 255,-133.5 255,-114.5 161,-114.5"/>
<text text-anchor="middle" x="208" y="-121.5" font-family="Helvetica,sans-Serif" font-size="10.00">pg_triangle_asa</text>
</a>
</g>
</g>
<!-- Node1&#45;&gt;Node4 -->
<g id="edge3" class="edge">
<title>Node1&#45;&gt;Node4</title>
<path fill="none" stroke="midnightblue" d="M280.78,-114.01C272.22,-115.2 263.58,-116.4 255.41,-117.54"/>
<polygon fill="midnightblue" stroke="midnightblue" points="281.34,-117.46 290.77,-112.62 280.38,-110.53 281.34,-117.46"/>
</g>
<!-- Node5 -->
<g id="node5" class="node">
<title>Node5</title>
<g id="a_node5"><a xlink:href="group__shapes__polygon.html#ga24be160074502dce7ff8a78361d4b074" target="_top" xlink:title="A polygon triangle specified by size&#45;angle&#45;size with vertex rounding.">
<polygon fill="white" stroke="black" points="161.5,-76.5 161.5,-95.5 254.5,-95.5 254.5,-76.5 161.5,-76.5"/>
<text text-anchor="middle" x="208" y="-83.5" font-family="Helvetica,sans-Serif" font-size="10.00">pg_triangle_sas</text>
</a>
</g>
</g>
<!-- Node1&#45;&gt;Node5 -->
<g id="edge4" class="edge">
<title>Node1&#45;&gt;Node5</title>
<path fill="none" stroke="midnightblue" d="M280.81,-96C271.94,-94.76 262.98,-93.51 254.54,-92.34"/>
<polygon fill="midnightblue" stroke="midnightblue" points="280.38,-99.47 290.77,-97.38 281.34,-92.54 280.38,-99.47"/>
</g>
<!-- Node7 -->
<g id="node7" class="node">
<title>Node7</title>
<g id="a_node7"><a xlink:href="group__shapes__polygon.html#gab9843df753e0537b490ac67cec6e31a9" target="_top" xlink:title="A polygon triangle specified by three side lengths with vertex rounding.">
<polygon fill="white" stroke="black" points="162,-38.5 162,-57.5 254,-57.5 254,-38.5 162,-38.5"/>
<text text-anchor="middle" x="208" y="-45.5" font-family="Helvetica,sans-Serif" font-size="10.00">pg_triangle_sss</text>
</a>
</g>
</g>
<!-- Node1&#45;&gt;Node7 -->
<g id="edge6" class="edge">
<title>Node1&#45;&gt;Node7</title>
<path fill="none" stroke="midnightblue" d="M313.22,-91.39C295.96,-84.13 274.33,-75.05 255,-67 247.66,-63.94 239.66,-60.63 232.41,-57.64"/>
<polygon fill="midnightblue" stroke="midnightblue" points="312.25,-94.78 322.83,-95.44 314.97,-88.33 312.25,-94.78"/>
</g>
<!-- Node8 -->
<g id="node8" class="node">
<title>Node8</title>
<g id="a_node8"><a xlink:href="group__shapes__basic__2d.html#ga7452bf5414a3677ec806a31aed6b61dd" target="_top" xlink:title="A two&#45;dimensional star.">
<polygon fill="white" stroke="black" points="184.5,-0.5 184.5,-19.5 231.5,-19.5 231.5,-0.5 184.5,-0.5"/>
<text text-anchor="middle" x="208" y="-7.5" font-family="Helvetica,sans-Serif" font-size="10.00">star2d</text>
</a>
</g>
</g>
<!-- Node1&#45;&gt;Node8 -->
<g id="edge7" class="edge">
<title>Node1&#45;&gt;Node8</title>
<path fill="none" stroke="midnightblue" d="M328.66,-88.09C311.35,-71.4 283.04,-46 255,-29 247.76,-24.61 239.32,-20.8 231.66,-17.76"/>
<polygon fill="midnightblue" stroke="midnightblue" points="326.63,-91 336.22,-95.5 331.53,-86 326.63,-91"/>
</g>
<!-- Node6 -->
<g id="node6" class="node">
<title>Node6</title>
<g id="a_node6"><a xlink:href="group__parts__3d__enclosure__project__box__rectangle.html#ga6a5d093d732e65556c46252220f2c4b6" target="_top" xlink:title="A rectangular box maker for project boxes, enclosures and housings.">
<polygon fill="white" stroke="black" points="0,-76.5 0,-95.5 125,-95.5 125,-76.5 0,-76.5"/>
<text text-anchor="middle" x="62.5" y="-83.5" font-family="Helvetica,sans-Serif" font-size="10.00">project_box_rectangle</text>
</a>
</g>
</g>
<!-- Node5&#45;&gt;Node6 -->
<g id="edge5" class="edge">
<title>Node5&#45;&gt;Node6</title>
<path fill="none" stroke="midnightblue" d="M151.02,-86C142.52,-86 133.71,-86 125.1,-86"/>
<polygon fill="midnightblue" stroke="midnightblue" points="151.2,-89.5 161.2,-86 151.2,-82.5 151.2,-89.5"/>
</g>
</g>
</svg>
