<?xml version="1.0" encoding="UTF-8" standalone="no"?>
<!DOCTYPE svg PUBLIC "-//W3C//DTD SVG 1.1//EN"
 "http://www.w3.org/Graphics/SVG/1.1/DTD/svg11.dtd">
<!-- Generated by graphviz version 2.43.0 (0)
 -->
<!-- Title: Bolts Pages: 1 -->
<svg width="234pt" height="138pt"
 viewBox="0.00 0.00 234.00 138.00" xmlns="http://www.w3.org/2000/svg" xmlns:xlink="http://www.w3.org/1999/xlink">
<g id="graph0" class="graph" transform="scale(1 1) rotate(0) translate(4 134)">
<title>Bolts</title>
<polygon fill="white" stroke="transparent" points="-4,4 -4,-134 230,-134 230,4 -4,4"/>
<!-- Node1 -->
<g id="node1" class="node">
<title>Node1</title>
<g id="a_node1"><a xlink:title=" ">
<polygon fill="#bfbfbf" stroke="black" points="124,-74 83,-74 83,-55 124,-55 124,-74"/>
<text text-anchor="middle" x="103.5" y="-62" font-family="Helvetica,sans-Serif" font-size="10.00">Bolts</text>
</a>
</g>
</g>
<!-- Node3 -->
<g id="node2" class="node">
<title>Node3</title>
<g id="a_node2"><a xlink:href="group__database__component__fastener__iso__4014a.html" target="_top" xlink:title="[metric/bolts] Hexagon head bolt a; ISO 4014a; DIN 931.">
<polygon fill="white" stroke="black" points="226,-130 160,-130 160,-111 226,-111 226,-130"/>
<text text-anchor="middle" x="193" y="-118" font-family="Helvetica,sans-Serif" font-size="10.00">ISO 4014a</text>
</a>
</g>
</g>
<!-- Node1&#45;&gt;Node3 -->
<g id="edge2" class="edge">
<title>Node1&#45;&gt;Node3</title>
<path fill="none" stroke="black" d="M126.23,-80.03C136.35,-87.1 148.65,-95.44 160,-102.5 164.55,-105.33 169.55,-108.24 174.23,-110.87"/>
<polygon fill="black" stroke="black" points="128.15,-77.11 117.96,-74.21 124.12,-82.83 128.15,-77.11"/>
</g>
<!-- Node4 -->
<g id="node3" class="node">
<title>Node4</title>
<g id="a_node3"><a xlink:href="group__database__component__fastener__iso__4014b.html" target="_top" xlink:title="[metric/bolts] Hexagon head bolt b; ISO 4014b; DIN 931.">
<polygon fill="white" stroke="black" points="226,-93 160,-93 160,-74 226,-74 226,-93"/>
<text text-anchor="middle" x="193" y="-81" font-family="Helvetica,sans-Serif" font-size="10.00">ISO 4014b</text>
</a>
</g>
</g>
<!-- Node1&#45;&gt;Node4 -->
<g id="edge3" class="edge">
<title>Node1&#45;&gt;Node4</title>
<path fill="none" stroke="black" d="M134.29,-70.97C142.53,-72.76 151.5,-74.71 159.87,-76.52"/>
<polygon fill="black" stroke="black" points="134.87,-67.51 124.36,-68.81 133.38,-74.35 134.87,-67.51"/>
</g>
<!-- Node5 -->
<g id="node5" class="node">
<title>Node5</title>
<g id="a_node5"><a xlink:href="group__database__component__fastener__iso__8677.html" target="_top" xlink:title="[metric/bolts] Carriage bolts; ISO 8677; DIN 603.">
<polygon fill="white" stroke="black" points="223,-56 163,-56 163,-37 223,-37 223,-56"/>
<text text-anchor="middle" x="193" y="-44" font-family="Helvetica,sans-Serif" font-size="10.00">ISO 8677</text>
</a>
</g>
</g>
<!-- Node1&#45;&gt;Node5 -->
<g id="edge4" class="edge">
<title>Node1&#45;&gt;Node5</title>
<path fill="none" stroke="black" d="M134.3,-58.37C143.55,-56.47 153.73,-54.37 162.93,-52.48"/>
<polygon fill="black" stroke="black" points="133.44,-54.97 124.36,-60.42 134.86,-61.83 133.44,-54.97"/>
</g>
<!-- Node6 -->
<g id="node6" class="node">
<title>Node6</title>
<g id="a_node6"><a xlink:href="group__database__component__fastener__iso__8678.html" target="_top" xlink:title="[metric/bolts] Carriage bolts, short neck; ISO 8678; DIN 603.">
<polygon fill="white" stroke="black" points="223,-19 163,-19 163,0 223,0 223,-19"/>
<text text-anchor="middle" x="193" y="-7" font-family="Helvetica,sans-Serif" font-size="10.00">ISO 8678</text>
</a>
</g>
</g>
<!-- Node1&#45;&gt;Node6 -->
<g id="edge5" class="edge">
<title>Node1&#45;&gt;Node6</title>
<path fill="none" stroke="black" d="M126.99,-48.95C136.99,-42.18 148.97,-34.27 160,-27.5 164.56,-24.7 169.58,-21.8 174.26,-19.17"/>
<polygon fill="black" stroke="black" points="124.74,-46.25 118.45,-54.77 128.69,-52.03 124.74,-46.25"/>
</g>
<!-- Node2 -->
<g id="node4" class="node">
<title>Node2</title>
<g id="a_node4"><a xlink:href="group__database__component__fastener__Metric.html" target="_top" xlink:title=" ">
<polygon fill="white" stroke="black" points="47,-74 0,-74 0,-55 47,-55 47,-74"/>
<text text-anchor="middle" x="23.5" y="-62" font-family="Helvetica,sans-Serif" font-size="10.00">Metric</text>
</a>
</g>
</g>
<!-- Node2&#45;&gt;Node1 -->
<g id="edge1" class="edge">
<title>Node2&#45;&gt;Node1</title>
<path fill="none" stroke="black" d="M57.34,-64.5C66.04,-64.5 75.16,-64.5 82.9,-64.5"/>
<polygon fill="black" stroke="black" points="57.06,-61 47.06,-64.5 57.06,-68 57.06,-61"/>
</g>
</g>
</svg>
