<?xml version="1.0" encoding="UTF-8" standalone="no"?>
<!DOCTYPE svg PUBLIC "-//W3C//DTD SVG 1.1//EN"
 "http://www.w3.org/Graphics/SVG/1.1/DTD/svg11.dtd">
<!-- Generated by graphviz version 2.43.0 (0)
 -->
<!-- Title: Length Units Pages: 1 -->
<svg width="221pt" height="34pt"
 viewBox="0.00 0.00 221.00 34.50" xmlns="http://www.w3.org/2000/svg" xmlns:xlink="http://www.w3.org/1999/xlink">
<g id="graph0" class="graph" transform="scale(1 1) rotate(0) translate(4 30.5)">
<title>Length Units</title>
<polygon fill="white" stroke="transparent" points="-4,4 -4,-30.5 217,-30.5 217,4 -4,4"/>
<!-- Node2 -->
<g id="node1" class="node">
<title>Node2</title>
<g id="a_node1"><a xlink:href="group__units.html" target="_top" xlink:title="Unit definitions and unit conversions.">
<polygon fill="white" stroke="black" points="42,-26.5 0,-26.5 0,-7.5 42,-7.5 42,-26.5"/>
<text text-anchor="middle" x="21" y="-14.5" font-family="Helvetica,sans-Serif" font-size="10.00">Units</text>
</a>
</g>
</g>
<!-- Node1 -->
<g id="node2" class="node">
<title>Node1</title>
<g id="a_node2"><a xlink:title="Length units and conversions.">
<polygon fill="#bfbfbf" stroke="black" points="213,-26.5 135,-26.5 135,-7.5 213,-7.5 213,-26.5"/>
<text text-anchor="middle" x="174" y="-14.5" font-family="Helvetica,sans-Serif" font-size="10.00">Length Units</text>
</a>
</g>
</g>
<!-- Node2&#45;&gt;Node1 -->
<g id="edge1" class="edge">
<title>Node2&#45;&gt;Node1</title>
<path fill="none" stroke="black" d="M52.24,-17C76,-17 109.23,-17 134.82,-17"/>
<polygon fill="black" stroke="black" points="52.05,-13.5 42.05,-17 52.05,-20.5 52.05,-13.5"/>
</g>
<!-- Node1&#45;&gt;Node2 -->
<g id="edge2" class="edge">
<title>Node1&#45;&gt;Node2</title>
<path fill="none" stroke="darkgreen" stroke-dasharray="5,2" d="M140.68,-7.49C132.99,-5.63 124.76,-3.95 117,-3 91.86,0.1 84.94,1.45 60,-3 54.05,-4.06 47.81,-5.99 42.14,-8.08"/>
<text text-anchor="middle" x="88.5" y="-6" font-family="Helvetica,sans-Serif" font-size="10.00">length.scad</text>
</g>
</g>
</svg>
