<?xml version="1.0" encoding="UTF-8" standalone="no"?>
<!DOCTYPE svg PUBLIC "-//W3C//DTD SVG 1.1//EN"
 "http://www.w3.org/Graphics/SVG/1.1/DTD/svg11.dtd">
<!-- Generated by graphviz version 2.43.0 (0)
 -->
<!-- Title: Component Pages: 1 -->
<svg width="280pt" height="138pt"
 viewBox="0.00 0.00 280.00 138.00" xmlns="http://www.w3.org/2000/svg" xmlns:xlink="http://www.w3.org/1999/xlink">
<g id="graph0" class="graph" transform="scale(1 1) rotate(0) translate(4 134)">
<title>Component</title>
<polygon fill="white" stroke="transparent" points="-4,4 -4,-134 276,-134 276,4 -4,4"/>
<!-- Node4 -->
<g id="node1" class="node">
<title>Node4</title>
<g id="a_node1"><a xlink:href="group__database__component__bearing.html" target="_top" xlink:title="Mechanical bearing specifications.">
<polygon fill="white" stroke="black" points="267,-130 213,-130 213,-111 267,-111 267,-130"/>
<text text-anchor="middle" x="240" y="-118" font-family="Helvetica,sans-Serif" font-size="10.00">Bearing</text>
</a>
</g>
</g>
<!-- Node2 -->
<g id="node2" class="node">
<title>Node2</title>
<g id="a_node2"><a xlink:href="group__database.html" target="_top" xlink:title="Design data and specifications.">
<polygon fill="white" stroke="black" points="63,-74 0,-74 0,-55 63,-55 63,-74"/>
<text text-anchor="middle" x="31.5" y="-62" font-family="Helvetica,sans-Serif" font-size="10.00">Database</text>
</a>
</g>
</g>
<!-- Node1 -->
<g id="node4" class="node">
<title>Node1</title>
<g id="a_node4"><a xlink:title="Design component specifications.">
<polygon fill="#bfbfbf" stroke="black" points="172,-74 99,-74 99,-55 172,-55 172,-74"/>
<text text-anchor="middle" x="135.5" y="-62" font-family="Helvetica,sans-Serif" font-size="10.00">Component</text>
</a>
</g>
</g>
<!-- Node2&#45;&gt;Node1 -->
<g id="edge1" class="edge">
<title>Node2&#45;&gt;Node1</title>
<path fill="none" stroke="black" d="M73.21,-64.5C81.7,-64.5 90.6,-64.5 98.9,-64.5"/>
<polygon fill="black" stroke="black" points="73.1,-61 63.1,-64.5 73.1,-68 73.1,-61"/>
</g>
<!-- Node3 -->
<g id="node3" class="node">
<title>Node3</title>
<g id="a_node3"><a xlink:href="group__database__component__battery.html" target="_top" xlink:title="Electric battery specifications.">
<polygon fill="white" stroke="black" points="266.5,-93 213.5,-93 213.5,-74 266.5,-74 266.5,-93"/>
<text text-anchor="middle" x="240" y="-81" font-family="Helvetica,sans-Serif" font-size="10.00">Battery</text>
</a>
</g>
</g>
<!-- Node1&#45;&gt;Node4 -->
<g id="edge3" class="edge">
<title>Node1&#45;&gt;Node4</title>
<path fill="none" stroke="black" d="M163.37,-79.18C181.67,-89.18 205.4,-102.14 221.35,-110.86"/>
<polygon fill="black" stroke="black" points="164.81,-75.98 154.35,-74.25 161.45,-82.12 164.81,-75.98"/>
</g>
<!-- Node1&#45;&gt;Node3 -->
<g id="edge2" class="edge">
<title>Node1&#45;&gt;Node3</title>
<path fill="none" stroke="black" d="M182.12,-72.96C192.77,-74.93 203.75,-76.97 213.19,-78.72"/>
<polygon fill="black" stroke="black" points="182.53,-69.47 172.06,-71.09 181.26,-76.36 182.53,-69.47"/>
</g>
<!-- Node5 -->
<g id="node5" class="node">
<title>Node5</title>
<g id="a_node5"><a xlink:href="group__database__component__fastener.html" target="_top" xlink:title="Mechanical fastener specifications.">
<polygon fill="white" stroke="black" points="269,-56 211,-56 211,-37 269,-37 269,-56"/>
<text text-anchor="middle" x="240" y="-44" font-family="Helvetica,sans-Serif" font-size="10.00">Fastener</text>
</a>
</g>
</g>
<!-- Node1&#45;&gt;Node5 -->
<g id="edge4" class="edge">
<title>Node1&#45;&gt;Node5</title>
<path fill="none" stroke="black" d="M182.12,-56.49C191.93,-54.77 202.02,-52.99 210.93,-51.43"/>
<polygon fill="black" stroke="black" points="181.31,-53.08 172.06,-58.25 182.52,-59.97 181.31,-53.08"/>
</g>
<!-- Node6 -->
<g id="node6" class="node">
<title>Node6</title>
<g id="a_node6"><a xlink:href="group__database__component__structural.html" target="_top" xlink:title="Structural component specifications.">
<polygon fill="white" stroke="black" points="272,-19 208,-19 208,0 272,0 272,-19"/>
<text text-anchor="middle" x="240" y="-7" font-family="Helvetica,sans-Serif" font-size="10.00">Structural</text>
</a>
</g>
</g>
<!-- Node1&#45;&gt;Node6 -->
<g id="edge5" class="edge">
<title>Node1&#45;&gt;Node6</title>
<path fill="none" stroke="black" d="M163.31,-50.12C181.49,-40.36 205.04,-27.72 221.01,-19.16"/>
<polygon fill="black" stroke="black" points="161.51,-47.11 154.35,-54.92 164.82,-53.28 161.51,-47.11"/>
</g>
</g>
</svg>
