<?xml version="1.0" encoding="UTF-8" standalone="no"?>
<!DOCTYPE svg PUBLIC "-//W3C//DTD SVG 1.1//EN"
 "http://www.w3.org/Graphics/SVG/1.1/DTD/svg11.dtd">
<!-- Generated by graphviz version 2.43.0 (0)
 -->
<!-- Title: triangle2d_incenter Pages: 1 -->
<svg width="541pt" height="142pt"
 viewBox="0.00 0.00 541.00 142.00" xmlns="http://www.w3.org/2000/svg" xmlns:xlink="http://www.w3.org/1999/xlink">
<g id="graph0" class="graph" transform="scale(1 1) rotate(0) translate(4 138)">
<title>triangle2d_incenter</title>
<polygon fill="white" stroke="transparent" points="-4,4 -4,-138 537,-138 537,4 -4,4"/>
<!-- Node1 -->
<g id="node1" class="node">
<title>Node1</title>
<g id="a_node1"><a xlink:title="Compute the center coordinate of a triangle&#39;s incircle in 2D.">
<polygon fill="#bfbfbf" stroke="black" points="422,-57.5 422,-76.5 533,-76.5 533,-57.5 422,-57.5"/>
<text text-anchor="middle" x="477.5" y="-64.5" font-family="Helvetica,sans-Serif" font-size="10.00">triangle2d_incenter</text>
</a>
</g>
</g>
<!-- Node2 -->
<g id="node2" class="node">
<title>Node2</title>
<g id="a_node2"><a xlink:href="group__shapes__polygon.html#gac7e2c70b3428b729efd86a675df794e6" target="_top" xlink:title="A polygon triangle specified by three coordinate points with vertex rounding.">
<polygon fill="white" stroke="black" points="291,-57.5 291,-76.5 386,-76.5 386,-57.5 291,-57.5"/>
<text text-anchor="middle" x="338.5" y="-64.5" font-family="Helvetica,sans-Serif" font-size="10.00">pg_triangle_ppp</text>
</a>
</g>
</g>
<!-- Node1&#45;&gt;Node2 -->
<g id="edge1" class="edge">
<title>Node1&#45;&gt;Node2</title>
<path fill="none" stroke="midnightblue" d="M411.91,-67C403.29,-67 394.58,-67 386.34,-67"/>
<polygon fill="midnightblue" stroke="midnightblue" points="411.96,-70.5 421.96,-67 411.96,-63.5 411.96,-70.5"/>
</g>
<!-- Node3 -->
<g id="node3" class="node">
<title>Node3</title>
<g id="a_node3"><a xlink:href="group__shapes__polygon.html#gad85d14f73179499777da1e9297fbcae8" target="_top" xlink:title="A polygon triangle specified by angle&#45;angle&#45;size with vertex rounding.">
<polygon fill="white" stroke="black" points="161,-114.5 161,-133.5 255,-133.5 255,-114.5 161,-114.5"/>
<text text-anchor="middle" x="208" y="-121.5" font-family="Helvetica,sans-Serif" font-size="10.00">pg_triangle_aas</text>
</a>
</g>
</g>
<!-- Node2&#45;&gt;Node3 -->
<g id="edge2" class="edge">
<title>Node2&#45;&gt;Node3</title>
<path fill="none" stroke="midnightblue" d="M308.06,-80.91C292.37,-88.23 272.71,-97.27 255,-105 247.87,-108.11 240.07,-111.38 232.95,-114.32"/>
<polygon fill="midnightblue" stroke="midnightblue" points="309.69,-84.01 317.26,-76.6 306.72,-77.67 309.69,-84.01"/>
</g>
<!-- Node4 -->
<g id="node4" class="node">
<title>Node4</title>
<g id="a_node4"><a xlink:href="group__shapes__polygon.html#ga45e8a17aef3dd6755f833f25a8937cf7" target="_top" xlink:title="A polygon triangle specified by angle&#45;size&#45;angle with vertex rounding.">
<polygon fill="white" stroke="black" points="161,-76.5 161,-95.5 255,-95.5 255,-76.5 161,-76.5"/>
<text text-anchor="middle" x="208" y="-83.5" font-family="Helvetica,sans-Serif" font-size="10.00">pg_triangle_asa</text>
</a>
</g>
</g>
<!-- Node2&#45;&gt;Node4 -->
<g id="edge3" class="edge">
<title>Node2&#45;&gt;Node4</title>
<path fill="none" stroke="midnightblue" d="M280.78,-75.39C272.18,-76.66 263.41,-77.96 255.08,-79.19"/>
<polygon fill="midnightblue" stroke="midnightblue" points="281.36,-78.84 290.75,-73.91 280.34,-71.91 281.36,-78.84"/>
</g>
<!-- Node5 -->
<g id="node5" class="node">
<title>Node5</title>
<g id="a_node5"><a xlink:href="group__shapes__polygon.html#ga24be160074502dce7ff8a78361d4b074" target="_top" xlink:title="A polygon triangle specified by size&#45;angle&#45;size with vertex rounding.">
<polygon fill="white" stroke="black" points="161.5,-38.5 161.5,-57.5 254.5,-57.5 254.5,-38.5 161.5,-38.5"/>
<text text-anchor="middle" x="208" y="-45.5" font-family="Helvetica,sans-Serif" font-size="10.00">pg_triangle_sas</text>
</a>
</g>
</g>
<!-- Node2&#45;&gt;Node5 -->
<g id="edge4" class="edge">
<title>Node2&#45;&gt;Node5</title>
<path fill="none" stroke="midnightblue" d="M280.65,-58.59C271.95,-57.31 263.07,-55.99 254.65,-54.75"/>
<polygon fill="midnightblue" stroke="midnightblue" points="280.34,-62.09 290.75,-60.09 281.36,-55.16 280.34,-62.09"/>
</g>
<!-- Node7 -->
<g id="node7" class="node">
<title>Node7</title>
<g id="a_node7"><a xlink:href="group__shapes__polygon.html#gab9843df753e0537b490ac67cec6e31a9" target="_top" xlink:title="A polygon triangle specified by three side lengths with vertex rounding.">
<polygon fill="white" stroke="black" points="162,-0.5 162,-19.5 254,-19.5 254,-0.5 162,-0.5"/>
<text text-anchor="middle" x="208" y="-7.5" font-family="Helvetica,sans-Serif" font-size="10.00">pg_triangle_sss</text>
</a>
</g>
</g>
<!-- Node2&#45;&gt;Node7 -->
<g id="edge6" class="edge">
<title>Node2&#45;&gt;Node7</title>
<path fill="none" stroke="midnightblue" d="M308.06,-53.09C292.37,-45.77 272.71,-36.73 255,-29 247.87,-25.89 240.07,-22.62 232.95,-19.68"/>
<polygon fill="midnightblue" stroke="midnightblue" points="306.72,-56.33 317.26,-57.4 309.69,-49.99 306.72,-56.33"/>
</g>
<!-- Node6 -->
<g id="node6" class="node">
<title>Node6</title>
<g id="a_node6"><a xlink:href="group__parts__3d__enclosure__project__box__rectangle.html#ga6a5d093d732e65556c46252220f2c4b6" target="_top" xlink:title="A rectangular box maker for project boxes, enclosures and housings.">
<polygon fill="white" stroke="black" points="0,-38.5 0,-57.5 125,-57.5 125,-38.5 0,-38.5"/>
<text text-anchor="middle" x="62.5" y="-45.5" font-family="Helvetica,sans-Serif" font-size="10.00">project_box_rectangle</text>
</a>
</g>
</g>
<!-- Node5&#45;&gt;Node6 -->
<g id="edge5" class="edge">
<title>Node5&#45;&gt;Node6</title>
<path fill="none" stroke="midnightblue" d="M151.02,-48C142.52,-48 133.71,-48 125.1,-48"/>
<polygon fill="midnightblue" stroke="midnightblue" points="151.2,-51.5 161.2,-48 151.2,-44.5 151.2,-51.5"/>
</g>
</g>
</svg>
