<?xml version="1.0" encoding="UTF-8" standalone="no"?>
<!DOCTYPE svg PUBLIC "-//W3C//DTD SVG 1.1//EN"
 "http://www.w3.org/Graphics/SVG/1.1/DTD/svg11.dtd">
<!-- Generated by graphviz version 2.43.0 (0)
 -->
<!-- Title: defined_e_or Pages: 1 -->
<svg width="688pt" height="1358pt"
 viewBox="0.00 0.00 688.00 1358.00" xmlns="http://www.w3.org/2000/svg" xmlns:xlink="http://www.w3.org/1999/xlink">
<g id="graph0" class="graph" transform="scale(1 1) rotate(0) translate(4 1354)">
<title>defined_e_or</title>
<polygon fill="white" stroke="transparent" points="-4,4 -4,-1354 684,-1354 684,4 -4,4"/>
<!-- Node1 -->
<g id="node1" class="node">
<title>Node1</title>
<g id="a_node1"><a xlink:title="Return an element of an iterable when it exists or a default value otherwise.">
<polygon fill="#bfbfbf" stroke="black" points="601,-627.5 601,-646.5 680,-646.5 680,-627.5 601,-627.5"/>
<text text-anchor="middle" x="640.5" y="-634.5" font-family="Helvetica,sans-Serif" font-size="10.00">defined_e_or</text>
</a>
</g>
</g>
<!-- Node2 -->
<g id="node2" class="node">
<title>Node2</title>
<g id="a_node2"><a xlink:href="group__shapes__basic__3d.html#gaf1d71183e9f3fb9a5e48b8c9a67085d6" target="_top" xlink:title="A cuboid with edge, round, or chamfer corners.">
<polygon fill="white" stroke="black" points="486,-1330.5 486,-1349.5 535,-1349.5 535,-1330.5 486,-1330.5"/>
<text text-anchor="middle" x="510.5" y="-1337.5" font-family="Helvetica,sans-Serif" font-size="10.00">cuboid</text>
</a>
</g>
</g>
<!-- Node1&#45;&gt;Node2 -->
<g id="edge1" class="edge">
<title>Node1&#45;&gt;Node2</title>
<path fill="none" stroke="midnightblue" d="M639.9,-656.96C641.52,-757.42 644.21,-1207.17 565,-1316 557.93,-1325.71 546.01,-1331.57 535.22,-1335.06"/>
<polygon fill="midnightblue" stroke="midnightblue" points="643.39,-656.65 639.71,-646.71 636.39,-656.77 643.39,-656.65"/>
</g>
<!-- Node3 -->
<g id="node3" class="node">
<title>Node3</title>
<g id="a_node3"><a xlink:href="group__tools__drafting__primitive.html#gaeb2a388d77f8e435b02c4235e7791eda" target="_top" xlink:title="Draft an arc with configurable style and optional arrowheads.">
<polygon fill="white" stroke="black" points="334,-1216.5 334,-1235.5 393,-1235.5 393,-1216.5 334,-1216.5"/>
<text text-anchor="middle" x="363.5" y="-1223.5" font-family="Helvetica,sans-Serif" font-size="10.00">draft_arc</text>
</a>
</g>
</g>
<!-- Node1&#45;&gt;Node3 -->
<g id="edge2" class="edge">
<title>Node1&#45;&gt;Node3</title>
<path fill="none" stroke="midnightblue" d="M638.59,-657.08C633.82,-757.84 610.2,-1205 565,-1245 513.16,-1290.88 421.57,-1254.42 382.73,-1235.55"/>
<polygon fill="midnightblue" stroke="midnightblue" points="642.1,-656.94 639.07,-646.79 635.11,-656.62 642.1,-656.94"/>
</g>
<!-- Node4 -->
<g id="node4" class="node">
<title>Node4</title>
<g id="a_node4"><a xlink:href="group__tools__drafting__dimension.html#ga6b8e17d22ac4a95d25a90be8a74c0689" target="_top" xlink:title="Construct a angular dimension arc.">
<polygon fill="white" stroke="black" points="153.5,-1216.5 153.5,-1235.5 248.5,-1235.5 248.5,-1216.5 153.5,-1216.5"/>
<text text-anchor="middle" x="201" y="-1223.5" font-family="Helvetica,sans-Serif" font-size="10.00">draft_dim_angle</text>
</a>
</g>
</g>
<!-- Node1&#45;&gt;Node4 -->
<g id="edge17" class="edge">
<title>Node1&#45;&gt;Node4</title>
<path fill="none" stroke="midnightblue" d="M638.7,-656.93C634.35,-759.87 612.08,-1228.14 565,-1270 462.53,-1361.12 274.55,-1267.15 218.31,-1235.56"/>
<polygon fill="midnightblue" stroke="midnightblue" points="642.2,-656.84 639.12,-646.7 635.21,-656.55 642.2,-656.84"/>
</g>
<!-- Node5 -->
<g id="node5" class="node">
<title>Node5</title>
<g id="a_node5"><a xlink:href="group__tools__drafting__primitive.html#ga6f12ccd4c9de0a8ab887184911f39c8f" target="_top" xlink:title="Draft an arrowhead at the terminal point of a line.">
<polygon fill="white" stroke="black" points="474.5,-1216.5 474.5,-1235.5 546.5,-1235.5 546.5,-1216.5 474.5,-1216.5"/>
<text text-anchor="middle" x="510.5" y="-1223.5" font-family="Helvetica,sans-Serif" font-size="10.00">draft_arrow</text>
</a>
</g>
</g>
<!-- Node1&#45;&gt;Node5 -->
<g id="edge4" class="edge">
<title>Node1&#45;&gt;Node5</title>
<path fill="none" stroke="midnightblue" d="M639.4,-656.9C638.6,-746.64 631.24,-1113.06 565,-1202 560.32,-1208.29 553.61,-1212.96 546.52,-1216.43"/>
<polygon fill="midnightblue" stroke="midnightblue" points="642.9,-656.77 639.48,-646.74 635.9,-656.72 642.9,-656.77"/>
</g>
<!-- Node6 -->
<g id="node6" class="node">
<title>Node6</title>
<g id="a_node6"><a xlink:href="group__tools__drafting__primitive.html#ga060910368142d6371cf4f3f30be7561e" target="_top" xlink:title="Draft a line with configurable style and optional arrowheads.">
<polygon fill="white" stroke="black" points="332.5,-1064.5 332.5,-1083.5 394.5,-1083.5 394.5,-1064.5 332.5,-1064.5"/>
<text text-anchor="middle" x="363.5" y="-1071.5" font-family="Helvetica,sans-Serif" font-size="10.00">draft_line</text>
</a>
</g>
</g>
<!-- Node1&#45;&gt;Node6 -->
<g id="edge21" class="edge">
<title>Node1&#45;&gt;Node6</title>
<path fill="none" stroke="midnightblue" d="M638.91,-657.17C636.28,-732.43 623.01,-995.34 565,-1050 518.95,-1093.4 438.16,-1087.53 394.51,-1080.29"/>
<polygon fill="midnightblue" stroke="midnightblue" points="642.42,-656.87 639.25,-646.76 635.43,-656.64 642.42,-656.87"/>
</g>
<!-- Node7 -->
<g id="node7" class="node">
<title>Node7</title>
<g id="a_node7"><a xlink:href="group__tools__drafting__operation.html#ga4e20419a6d4623f21c05179fc8b6df95" target="_top" xlink:title="Construct drafting sheet axes.">
<polygon fill="white" stroke="black" points="167.5,-1178.5 167.5,-1197.5 234.5,-1197.5 234.5,-1178.5 167.5,-1178.5"/>
<text text-anchor="middle" x="201" y="-1185.5" font-family="Helvetica,sans-Serif" font-size="10.00">draft_axes</text>
</a>
</g>
</g>
<!-- Node1&#45;&gt;Node7 -->
<g id="edge16" class="edge">
<title>Node1&#45;&gt;Node7</title>
<path fill="none" stroke="midnightblue" d="M639.59,-656.87C639.56,-741.87 634.9,-1073.77 565,-1144 519.21,-1190.01 314.94,-1190.59 234.6,-1188.96"/>
<polygon fill="midnightblue" stroke="midnightblue" points="643.09,-656.76 639.57,-646.76 636.09,-656.77 643.09,-656.76"/>
</g>
<!-- Node8 -->
<g id="node8" class="node">
<title>Node8</title>
<g id="a_node8"><a xlink:href="group__tools__drafting__dimension.html#ga4866c090b81b437e2f1f707d28ad8ec7" target="_top" xlink:title="Construct a center mark dimension cross.">
<polygon fill="white" stroke="black" points="151.5,-1140.5 151.5,-1159.5 250.5,-1159.5 250.5,-1140.5 151.5,-1140.5"/>
<text text-anchor="middle" x="201" y="-1147.5" font-family="Helvetica,sans-Serif" font-size="10.00">draft_dim_center</text>
</a>
</g>
</g>
<!-- Node1&#45;&gt;Node8 -->
<g id="edge18" class="edge">
<title>Node1&#45;&gt;Node8</title>
<path fill="none" stroke="midnightblue" d="M639.45,-657.03C638.81,-739.27 631.91,-1049.6 565,-1114 521.2,-1156.16 338.91,-1155.33 250.51,-1152.28"/>
<polygon fill="midnightblue" stroke="midnightblue" points="642.95,-656.63 639.51,-646.61 635.95,-656.59 642.95,-656.63"/>
</g>
<!-- Node10 -->
<g id="node10" class="node">
<title>Node10</title>
<g id="a_node10"><a xlink:href="group__tools__drafting__dimension.html#ga27a35e94597435a74e22d76789e9be5e" target="_top" xlink:title="Construct a dimension line between two points.">
<polygon fill="white" stroke="black" points="158,-1064.5 158,-1083.5 244,-1083.5 244,-1064.5 158,-1064.5"/>
<text text-anchor="middle" x="201" y="-1071.5" font-family="Helvetica,sans-Serif" font-size="10.00">draft_dim_line</text>
</a>
</g>
</g>
<!-- Node1&#45;&gt;Node10 -->
<g id="edge19" class="edge">
<title>Node1&#45;&gt;Node10</title>
<path fill="none" stroke="midnightblue" d="M638.08,-656.62C632.84,-723.59 612.37,-941.7 565,-990 553.65,-1001.57 337.41,-1046.54 244.19,-1065.5"/>
<polygon fill="midnightblue" stroke="midnightblue" points="641.58,-656.81 638.84,-646.58 634.6,-656.28 641.58,-656.81"/>
</g>
<!-- Node11 -->
<g id="node11" class="node">
<title>Node11</title>
<g id="a_node11"><a xlink:href="group__tools__drafting__dimension.html#gaef1a8150a8ef7be88e086fb3dbab64a9" target="_top" xlink:title="Construct a radial dimension line.">
<polygon fill="white" stroke="black" points="152,-1026.5 152,-1045.5 250,-1045.5 250,-1026.5 152,-1026.5"/>
<text text-anchor="middle" x="201" y="-1033.5" font-family="Helvetica,sans-Serif" font-size="10.00">draft_dim_radius</text>
</a>
</g>
</g>
<!-- Node1&#45;&gt;Node11 -->
<g id="edge20" class="edge">
<title>Node1&#45;&gt;Node11</title>
<path fill="none" stroke="midnightblue" d="M637.68,-657.08C631.48,-720.98 609.09,-917.88 565,-961 542.57,-982.93 343.69,-1014.97 250.19,-1028.99"/>
<polygon fill="midnightblue" stroke="midnightblue" points="641.2,-657.05 638.65,-646.77 634.23,-656.4 641.2,-657.05"/>
</g>
<!-- Node13 -->
<g id="node13" class="node">
<title>Node13</title>
<g id="a_node13"><a xlink:href="group__tools__drafting__primitive.html#ga20eb57e9d25186784df7428089e3a2ae" target="_top" xlink:title="Draft a rectangle with configurable style.">
<polygon fill="white" stroke="black" points="156,-950.5 156,-969.5 246,-969.5 246,-950.5 156,-950.5"/>
<text text-anchor="middle" x="201" y="-957.5" font-family="Helvetica,sans-Serif" font-size="10.00">draft_rectangle</text>
</a>
</g>
</g>
<!-- Node1&#45;&gt;Node13 -->
<g id="edge27" class="edge">
<title>Node1&#45;&gt;Node13</title>
<path fill="none" stroke="midnightblue" d="M637.21,-656.69C629.97,-715.23 605.67,-886.38 565,-922 474.43,-1001.32 318.35,-983.83 243.88,-969.54"/>
<polygon fill="midnightblue" stroke="midnightblue" points="640.71,-656.9 638.43,-646.55 633.76,-656.06 640.71,-656.9"/>
</g>
<!-- Node14 -->
<g id="node14" class="node">
<title>Node14</title>
<g id="a_node14"><a xlink:href="group__tools__drafting__operation.html#ga49aac81a903cd453ea9cadc85e84e414" target="_top" xlink:title="Construct a drafting sheet ruler.">
<polygon fill="white" stroke="black" points="167.5,-912.5 167.5,-931.5 234.5,-931.5 234.5,-912.5 167.5,-912.5"/>
<text text-anchor="middle" x="201" y="-919.5" font-family="Helvetica,sans-Serif" font-size="10.00">draft_ruler</text>
</a>
</g>
</g>
<!-- Node1&#45;&gt;Node14 -->
<g id="edge28" class="edge">
<title>Node1&#45;&gt;Node14</title>
<path fill="none" stroke="midnightblue" d="M636.71,-656.61C628.52,-711.28 602.68,-863.35 565,-894 514.98,-934.68 314.17,-928.31 234.66,-924.04"/>
<polygon fill="midnightblue" stroke="midnightblue" points="640.21,-656.91 638.19,-646.5 633.28,-655.89 640.21,-656.91"/>
</g>
<!-- Node15 -->
<g id="node15" class="node">
<title>Node15</title>
<g id="a_node15"><a xlink:href="group__tools__drafting__operation.html#gac1b780633ac5e2874a8a00177d98b305" target="_top" xlink:title="Construct a text note with optional heading and boarder.">
<polygon fill="white" stroke="black" points="330.5,-1102.5 330.5,-1121.5 396.5,-1121.5 396.5,-1102.5 330.5,-1102.5"/>
<text text-anchor="middle" x="363.5" y="-1109.5" font-family="Helvetica,sans-Serif" font-size="10.00">draft_note</text>
</a>
</g>
</g>
<!-- Node1&#45;&gt;Node15 -->
<g id="edge22" class="edge">
<title>Node1&#45;&gt;Node15</title>
<path fill="none" stroke="midnightblue" d="M639.13,-657.08C637.25,-735.6 626.24,-1020.54 565,-1081 520.38,-1125.05 440.88,-1122.83 396.57,-1117.39"/>
<polygon fill="midnightblue" stroke="midnightblue" points="642.64,-656.75 639.35,-646.68 635.64,-656.6 642.64,-656.75"/>
</g>
<!-- Node16 -->
<g id="node16" class="node">
<title>Node16</title>
<g id="a_node16"><a xlink:href="group__tools__drafting__operation.html#gabd9d0d4e3819d3bdec5e3649c8ad2c79" target="_top" xlink:title="Construct a text table that is populated by predefined zones.">
<polygon fill="white" stroke="black" points="473.5,-865.5 473.5,-884.5 547.5,-884.5 547.5,-865.5 473.5,-865.5"/>
<text text-anchor="middle" x="510.5" y="-872.5" font-family="Helvetica,sans-Serif" font-size="10.00">draft_ztable</text>
</a>
</g>
</g>
<!-- Node1&#45;&gt;Node16 -->
<g id="edge29" class="edge">
<title>Node1&#45;&gt;Node16</title>
<path fill="none" stroke="midnightblue" d="M635.55,-656.85C627.41,-694.08 605.98,-775.71 565,-832 554.9,-845.87 539.23,-857.74 527.46,-865.48"/>
<polygon fill="midnightblue" stroke="midnightblue" points="639.04,-657.3 637.66,-646.8 632.18,-655.87 639.04,-657.3"/>
</g>
<!-- Node18 -->
<g id="node18" class="node">
<title>Node18</title>
<g id="a_node18"><a xlink:href="group__shapes__basic__2d.html#ga7d62c56f88b839dc7e879ff16f968ea2" target="_top" xlink:title="An ellipse.">
<polygon fill="white" stroke="black" points="486,-760.5 486,-779.5 535,-779.5 535,-760.5 486,-760.5"/>
<text text-anchor="middle" x="510.5" y="-767.5" font-family="Helvetica,sans-Serif" font-size="10.00">ellipse</text>
</a>
</g>
</g>
<!-- Node1&#45;&gt;Node18 -->
<g id="edge31" class="edge">
<title>Node1&#45;&gt;Node18</title>
<path fill="none" stroke="midnightblue" d="M626.32,-655.01C612.14,-673.86 588.46,-703.87 565,-727 552.27,-739.55 536.09,-752.15 524.87,-760.44"/>
<polygon fill="midnightblue" stroke="midnightblue" points="629.32,-656.85 632.47,-646.74 623.7,-652.67 629.32,-656.85"/>
</g>
<!-- Node22 -->
<g id="node22" class="node">
<title>Node22</title>
<g id="a_node22"><a xlink:href="group__shapes__basic__2d.html#ga8925cd75276266667fbc1f0896482a7a" target="_top" xlink:title="An ellipse sector.">
<polygon fill="white" stroke="black" points="334,-836.5 334,-855.5 393,-855.5 393,-836.5 334,-836.5"/>
<text text-anchor="middle" x="363.5" y="-843.5" font-family="Helvetica,sans-Serif" font-size="10.00">ellipse_s</text>
</a>
</g>
</g>
<!-- Node1&#45;&gt;Node22 -->
<g id="edge38" class="edge">
<title>Node1&#45;&gt;Node22</title>
<path fill="none" stroke="midnightblue" d="M635.37,-656.52C627.48,-688.93 607.16,-753.77 565,-789 514.73,-831 435.32,-842.1 393.1,-845"/>
<polygon fill="midnightblue" stroke="midnightblue" points="638.84,-657.04 637.65,-646.51 632.01,-655.48 638.84,-657.04"/>
</g>
<!-- Node23 -->
<g id="node23" class="node">
<title>Node23</title>
<g id="a_node23"><a xlink:href="group__parts__3d__computer__pci__bracket.html#gaf56631cf80d8e5f0b77736b17b94ecd9" target="_top" xlink:title="PCI slot cover and adapter card bracket generator.">
<polygon fill="white" stroke="black" points="165,-570.5 165,-589.5 237,-589.5 237,-570.5 165,-570.5"/>
<text text-anchor="middle" x="201" y="-577.5" font-family="Helvetica,sans-Serif" font-size="10.00">pci_bracket</text>
</a>
</g>
</g>
<!-- Node1&#45;&gt;Node23 -->
<g id="edge56" class="edge">
<title>Node1&#45;&gt;Node23</title>
<path fill="none" stroke="midnightblue" d="M616.51,-622.08C602.28,-613.68 583.29,-603.9 565,-599 448.12,-567.66 302.68,-572.61 237.03,-577.07"/>
<polygon fill="midnightblue" stroke="midnightblue" points="614.76,-625.11 625.12,-627.34 618.41,-619.14 614.76,-625.11"/>
</g>
<!-- Node24 -->
<g id="node24" class="node">
<title>Node24</title>
<g id="a_node24"><a xlink:href="group__shapes__basic__3d.html#gae55c3490ba068ba5713b3de4302315de" target="_top" xlink:title="An ellipsoid.">
<polygon fill="white" stroke="black" points="481.5,-532.5 481.5,-551.5 539.5,-551.5 539.5,-532.5 481.5,-532.5"/>
<text text-anchor="middle" x="510.5" y="-539.5" font-family="Helvetica,sans-Serif" font-size="10.00">ellipsoid</text>
</a>
</g>
</g>
<!-- Node1&#45;&gt;Node24 -->
<g id="edge39" class="edge">
<title>Node1&#45;&gt;Node24</title>
<path fill="none" stroke="midnightblue" d="M624.2,-619.34C610.03,-603.79 587.78,-581.3 565,-566 556.55,-560.32 546.54,-555.42 537.47,-551.55"/>
<polygon fill="midnightblue" stroke="midnightblue" points="621.92,-622.05 631.19,-627.18 627.14,-617.39 621.92,-622.05"/>
</g>
<!-- Node25 -->
<g id="node25" class="node">
<title>Node25</title>
<g id="a_node25"><a xlink:href="group__shapes__basic__3d.html#ga842bd62179b57e3d01ea32b64614f543" target="_top" xlink:title="A sector of an ellipsoid.">
<polygon fill="white" stroke="black" points="329.5,-494.5 329.5,-513.5 397.5,-513.5 397.5,-494.5 329.5,-494.5"/>
<text text-anchor="middle" x="363.5" y="-501.5" font-family="Helvetica,sans-Serif" font-size="10.00">ellipsoid_s</text>
</a>
</g>
</g>
<!-- Node1&#45;&gt;Node25 -->
<g id="edge42" class="edge">
<title>Node1&#45;&gt;Node25</title>
<path fill="none" stroke="midnightblue" d="M632.92,-617.55C622.86,-591.13 600.93,-544.7 565,-523 513.22,-491.73 439.86,-494.05 397.73,-498.84"/>
<polygon fill="midnightblue" stroke="midnightblue" points="629.72,-619 636.41,-627.22 636.31,-616.62 629.72,-619"/>
</g>
<!-- Node26 -->
<g id="node26" class="node">
<title>Node26</title>
<g id="a_node26"><a xlink:href="group__tools__extrude.html#gab2442cfaf1ad44d6e295ab0979d9e03d" target="_top" xlink:title="Linearly extrude a 2d shape with uniformly&#45;spaced profile scaling.">
<polygon fill="white" stroke="black" points="456,-380.5 456,-399.5 565,-399.5 565,-380.5 456,-380.5"/>
<text text-anchor="middle" x="510.5" y="-387.5" font-family="Helvetica,sans-Serif" font-size="10.00">extrude_linear_uss</text>
</a>
</g>
</g>
<!-- Node1&#45;&gt;Node26 -->
<g id="edge43" class="edge">
<title>Node1&#45;&gt;Node26</title>
<path fill="none" stroke="midnightblue" d="M638.1,-616.98C634.12,-574.41 619.2,-473.87 565,-414 559.4,-407.81 551.89,-403.13 544.28,-399.61"/>
<polygon fill="midnightblue" stroke="midnightblue" points="634.63,-617.48 638.95,-627.16 641.61,-616.9 634.63,-617.48"/>
</g>
<!-- Node28 -->
<g id="node28" class="node">
<title>Node28</title>
<g id="a_node28"><a xlink:href="group__parts__3d__bearing__bearing__linear__rod.html#ga48399d5e708b4894494c69b2d1e88e26" target="_top" xlink:title="Transform 2d or 3d shape into a linear rod ball or sled bearing.">
<polygon fill="white" stroke="black" points="131,-418.5 131,-437.5 271,-437.5 271,-418.5 131,-418.5"/>
<text text-anchor="middle" x="201" y="-425.5" font-family="Helvetica,sans-Serif" font-size="10.00">make_bearing_linear_rod</text>
</a>
</g>
</g>
<!-- Node1&#45;&gt;Node28 -->
<g id="edge55" class="edge">
<title>Node1&#45;&gt;Node28</title>
<path fill="none" stroke="midnightblue" d="M637.89,-617.08C633.6,-578.67 618.3,-494.75 565,-456 519.69,-423.06 363.1,-422.31 271.05,-424.97"/>
<polygon fill="midnightblue" stroke="midnightblue" points="634.44,-617.82 638.89,-627.44 641.41,-617.14 634.44,-617.82"/>
</g>
<!-- Node29 -->
<g id="node29" class="node">
<title>Node29</title>
<g id="a_node29"><a xlink:href="group__parts__3d__enclosure__project__box__rectangle.html#ga6a5d093d732e65556c46252220f2c4b6" target="_top" xlink:title="A rectangular box maker for project boxes, enclosures and housings.">
<polygon fill="white" stroke="black" points="138.5,-323.5 138.5,-342.5 263.5,-342.5 263.5,-323.5 138.5,-323.5"/>
<text text-anchor="middle" x="201" y="-330.5" font-family="Helvetica,sans-Serif" font-size="10.00">project_box_rectangle</text>
</a>
</g>
</g>
<!-- Node1&#45;&gt;Node29 -->
<g id="edge62" class="edge">
<title>Node1&#45;&gt;Node29</title>
<path fill="none" stroke="midnightblue" d="M637.42,-617.08C630.58,-555.41 606.78,-369.25 565,-328 517.97,-281.57 485.68,-302.38 420,-295 370.09,-289.39 356.47,-286.32 307,-295 276.26,-300.39 242.65,-314.03 221.95,-323.41"/>
<polygon fill="midnightblue" stroke="midnightblue" points="633.98,-617.82 638.53,-627.39 640.94,-617.07 633.98,-617.82"/>
</g>
<!-- Node30 -->
<g id="node30" class="node">
<title>Node30</title>
<g id="a_node30"><a xlink:href="group__tools__extrude.html#ga78405b5fa18461a302a2f24646499ece" target="_top" xlink:title="Translate, rotate, and revolve a 2d shape about the z&#45;axis with linear elongation.">
<polygon fill="white" stroke="black" points="311.5,-722.5 311.5,-741.5 415.5,-741.5 415.5,-722.5 311.5,-722.5"/>
<text text-anchor="middle" x="363.5" y="-729.5" font-family="Helvetica,sans-Serif" font-size="10.00">extrude_rotate_trl</text>
</a>
</g>
</g>
<!-- Node1&#45;&gt;Node30 -->
<g id="edge49" class="edge">
<title>Node1&#45;&gt;Node30</title>
<path fill="none" stroke="midnightblue" d="M602.35,-649.84C546.41,-669.16 441.82,-705.29 392.11,-722.46"/>
<polygon fill="midnightblue" stroke="midnightblue" points="603.56,-653.12 611.87,-646.54 601.28,-646.5 603.56,-653.12"/>
</g>
<!-- Node33 -->
<g id="node33" class="node">
<title>Node33</title>
<g id="a_node33"><a xlink:href="group__tools__extrude.html#ga2cbff19d3b793918b99aae3b56d37dfa" target="_top" xlink:title="Translate, rotate, scale, and revolve a 2d shape about the z&#45;axis.">
<polygon fill="white" stroke="black" points="310,-456.5 310,-475.5 417,-475.5 417,-456.5 310,-456.5"/>
<text text-anchor="middle" x="363.5" y="-463.5" font-family="Helvetica,sans-Serif" font-size="10.00">extrude_rotate_trs</text>
</a>
</g>
</g>
<!-- Node1&#45;&gt;Node33 -->
<g id="edge53" class="edge">
<title>Node1&#45;&gt;Node33</title>
<path fill="none" stroke="midnightblue" d="M635.5,-617.23C627.9,-585.14 608.08,-522.28 565,-492 521.92,-461.73 460.49,-458 417,-460.11"/>
<polygon fill="midnightblue" stroke="midnightblue" points="632.13,-618.18 637.7,-627.19 638.97,-616.67 632.13,-618.18"/>
</g>
<!-- Node34 -->
<g id="node34" class="node">
<title>Node34</title>
<g id="a_node34"><a xlink:href="group__shapes__polygon.html#ga9c1bd914355d92f9d66ba0e5c2d9dbac" target="_top" xlink:title="A polygon rectangle with vertex rounding.">
<polygon fill="white" stroke="black" points="323.5,-304.5 323.5,-323.5 403.5,-323.5 403.5,-304.5 323.5,-304.5"/>
<text text-anchor="middle" x="363.5" y="-311.5" font-family="Helvetica,sans-Serif" font-size="10.00">pg_rectangle</text>
</a>
</g>
</g>
<!-- Node1&#45;&gt;Node34 -->
<g id="edge57" class="edge">
<title>Node1&#45;&gt;Node34</title>
<path fill="none" stroke="midnightblue" d="M640.07,-617.21C640.37,-568.24 634.09,-440.36 565,-371 542.4,-348.31 455.2,-329.75 403.54,-320.45"/>
<polygon fill="midnightblue" stroke="midnightblue" points="636.57,-617.34 639.9,-627.4 643.57,-617.45 636.57,-617.34"/>
</g>
<!-- Node35 -->
<g id="node35" class="node">
<title>Node35</title>
<g id="a_node35"><a xlink:href="group__shapes__polygon.html#ga22a29774c22e5cc9f3101ed0a0ed307a" target="_top" xlink:title="A polygon rectangle with side rounding.">
<polygon fill="white" stroke="black" points="463.5,-266.5 463.5,-285.5 557.5,-285.5 557.5,-266.5 463.5,-266.5"/>
<text text-anchor="middle" x="510.5" y="-273.5" font-family="Helvetica,sans-Serif" font-size="10.00">pg_rectangle_rs</text>
</a>
</g>
</g>
<!-- Node1&#45;&gt;Node35 -->
<g id="edge59" class="edge">
<title>Node1&#45;&gt;Node35</title>
<path fill="none" stroke="midnightblue" d="M637.47,-617.33C630.49,-552.97 605.6,-349.86 565,-300 559.92,-293.76 552.88,-289.09 545.58,-285.61"/>
<polygon fill="midnightblue" stroke="midnightblue" points="634,-617.79 638.54,-627.36 640.96,-617.05 634,-617.79"/>
</g>
<!-- Node36 -->
<g id="node36" class="node">
<title>Node36</title>
<g id="a_node36"><a xlink:href="group__shapes__polygon.html#ga2ca38d6942a8955d3b483d1a60bf7ec3" target="_top" xlink:title="A polygon rhombus with vertex rounding.">
<polygon fill="white" stroke="black" points="472,-228.5 472,-247.5 549,-247.5 549,-228.5 472,-228.5"/>
<text text-anchor="middle" x="510.5" y="-235.5" font-family="Helvetica,sans-Serif" font-size="10.00">pg_rhombus</text>
</a>
</g>
</g>
<!-- Node1&#45;&gt;Node36 -->
<g id="edge60" class="edge">
<title>Node1&#45;&gt;Node36</title>
<path fill="none" stroke="midnightblue" d="M638.15,-617C633.03,-546.7 612.62,-312.22 565,-257 560.75,-252.07 555.14,-248.42 549.15,-245.72"/>
<polygon fill="midnightblue" stroke="midnightblue" points="634.67,-617.43 638.87,-627.16 641.65,-616.93 634.67,-617.43"/>
</g>
<!-- Node37 -->
<g id="node37" class="node">
<title>Node37</title>
<g id="a_node37"><a xlink:href="group__shapes__polyhedron__db.html#gaae64c8fb78026896742050d14a5e8911" target="_top" xlink:title="Construct a named polyhedron.">
<polygon fill="white" stroke="black" points="457.5,-190.5 457.5,-209.5 563.5,-209.5 563.5,-190.5 457.5,-190.5"/>
<text text-anchor="middle" x="510.5" y="-197.5" font-family="Helvetica,sans-Serif" font-size="10.00">ph_db_polyhedron</text>
</a>
</g>
</g>
<!-- Node1&#45;&gt;Node37 -->
<g id="edge61" class="edge">
<title>Node1&#45;&gt;Node37</title>
<path fill="none" stroke="midnightblue" d="M638.54,-616.98C634.57,-542.21 617.13,-280.52 565,-219 561.69,-215.09 557.51,-211.98 552.96,-209.52"/>
<polygon fill="midnightblue" stroke="midnightblue" points="635.06,-617.5 639.06,-627.31 642.05,-617.15 635.06,-617.5"/>
</g>
<!-- Node38 -->
<g id="node38" class="node">
<title>Node38</title>
<g id="a_node38"><a xlink:href="group__shapes__basic__3d.html#gaaf63049f5c83cbb3b1f349b0a7a350e9" target="_top" xlink:title="A pyramid with quadrilateral base.">
<polygon fill="white" stroke="black" points="476.5,-114.5 476.5,-133.5 544.5,-133.5 544.5,-114.5 476.5,-114.5"/>
<text text-anchor="middle" x="510.5" y="-121.5" font-family="Helvetica,sans-Serif" font-size="10.00">pyramid_q</text>
</a>
</g>
</g>
<!-- Node1&#45;&gt;Node38 -->
<g id="edge63" class="edge">
<title>Node1&#45;&gt;Node38</title>
<path fill="none" stroke="midnightblue" d="M638.95,-616.99C636.3,-534.77 622.6,-223.74 565,-148 559.89,-141.27 552.46,-136.39 544.77,-132.85"/>
<polygon fill="midnightblue" stroke="midnightblue" points="635.46,-617.51 639.26,-627.4 642.46,-617.3 635.46,-617.51"/>
</g>
<!-- Node39 -->
<g id="node39" class="node">
<title>Node39</title>
<g id="a_node39"><a xlink:href="group__shapes__basic__3d.html#gab99dacd3036b965579d68b1d3b7ee2d8" target="_top" xlink:title="A three&#45;dimensional star.">
<polygon fill="white" stroke="black" points="340,-133.5 340,-152.5 387,-152.5 387,-133.5 340,-133.5"/>
<text text-anchor="middle" x="363.5" y="-140.5" font-family="Helvetica,sans-Serif" font-size="10.00">star3d</text>
</a>
</g>
</g>
<!-- Node1&#45;&gt;Node39 -->
<g id="edge73" class="edge">
<title>Node1&#45;&gt;Node39</title>
<path fill="none" stroke="midnightblue" d="M639.18,-617.45C637.45,-538.52 626.91,-244.5 565,-181 540.58,-155.95 434.5,-146.93 387.3,-144.12"/>
<polygon fill="midnightblue" stroke="midnightblue" points="635.68,-617.55 639.37,-627.48 642.68,-617.42 635.68,-617.55"/>
</g>
<!-- Node40 -->
<g id="node40" class="node">
<title>Node40</title>
<g id="a_node40"><a xlink:href="group__shapes__basic__2d.html#ga9f679c29426c44ee83b4a13b5dd47138" target="_top" xlink:title="A rectangle with corner rounds or chamfers.">
<polygon fill="white" stroke="black" points="479.5,-608.5 479.5,-627.5 541.5,-627.5 541.5,-608.5 479.5,-608.5"/>
<text text-anchor="middle" x="510.5" y="-615.5" font-family="Helvetica,sans-Serif" font-size="10.00">rectangle</text>
</a>
</g>
</g>
<!-- Node1&#45;&gt;Node40 -->
<g id="edge65" class="edge">
<title>Node1&#45;&gt;Node40</title>
<path fill="none" stroke="midnightblue" d="M590.69,-629.75C574.17,-627.3 556.21,-624.64 541.58,-622.47"/>
<polygon fill="midnightblue" stroke="midnightblue" points="590.34,-633.24 600.75,-631.25 591.37,-626.32 590.34,-633.24"/>
</g>
<!-- Node41 -->
<g id="node41" class="node">
<title>Node41</title>
<g id="a_node41"><a xlink:href="group__shapes__basic__2d.html#ga803b8196745be0e3a338def3c58e3b2b" target="_top" xlink:title="A rectangle with a removed rectangular core.">
<polygon fill="white" stroke="black" points="327,-646.5 327,-665.5 400,-665.5 400,-646.5 327,-646.5"/>
<text text-anchor="middle" x="363.5" y="-653.5" font-family="Helvetica,sans-Serif" font-size="10.00">rectangle_c</text>
</a>
</g>
</g>
<!-- Node1&#45;&gt;Node41 -->
<g id="edge69" class="edge">
<title>Node1&#45;&gt;Node41</title>
<path fill="none" stroke="midnightblue" d="M590.83,-640.36C536.19,-644.14 448.8,-650.18 400.15,-653.54"/>
<polygon fill="midnightblue" stroke="midnightblue" points="591.24,-643.84 600.97,-639.66 590.76,-636.86 591.24,-643.84"/>
</g>
<!-- Node42 -->
<g id="node42" class="node">
<title>Node42</title>
<g id="a_node42"><a xlink:href="group__tools__repeat.html#gad3a61508128c356ec1348225ec9b3ce0" target="_top" xlink:title="Distribute copies of 2d or 3d shapes about Cartesian grid.">
<polygon fill="white" stroke="black" points="474.5,-76.5 474.5,-95.5 546.5,-95.5 546.5,-76.5 474.5,-76.5"/>
<text text-anchor="middle" x="510.5" y="-83.5" font-family="Helvetica,sans-Serif" font-size="10.00">repeat_grid</text>
</a>
</g>
</g>
<!-- Node1&#45;&gt;Node42 -->
<g id="edge70" class="edge">
<title>Node1&#45;&gt;Node42</title>
<path fill="none" stroke="midnightblue" d="M639.39,-617.32C638.51,-530.9 630.87,-185.74 565,-105 560.26,-99.2 553.63,-95.16 546.63,-92.36"/>
<polygon fill="midnightblue" stroke="midnightblue" points="635.89,-617.38 639.47,-627.35 642.89,-617.32 635.89,-617.38"/>
</g>
<!-- Node43 -->
<g id="node43" class="node">
<title>Node43</title>
<g id="a_node43"><a xlink:href="group__shapes__basic__2d.html#ga89c8cb6f39cf9b045091f8b0434b25d0" target="_top" xlink:title="A rhombus.">
<polygon fill="white" stroke="black" points="481,-38.5 481,-57.5 540,-57.5 540,-38.5 481,-38.5"/>
<text text-anchor="middle" x="510.5" y="-45.5" font-family="Helvetica,sans-Serif" font-size="10.00">rhombus</text>
</a>
</g>
</g>
<!-- Node1&#45;&gt;Node43 -->
<g id="edge71" class="edge">
<title>Node1&#45;&gt;Node43</title>
<path fill="none" stroke="midnightblue" d="M639.59,-617.07C639.62,-526.47 635.39,-154.09 565,-67 558.87,-59.41 549.48,-54.85 540.26,-52.11"/>
<polygon fill="midnightblue" stroke="midnightblue" points="636.09,-617.1 639.57,-627.11 643.09,-617.11 636.09,-617.1"/>
</g>
<!-- Node44 -->
<g id="node44" class="node">
<title>Node44</title>
<g id="a_node44"><a xlink:href="group__shapes__basic__2d.html#ga7452bf5414a3677ec806a31aed6b61dd" target="_top" xlink:title="A two&#45;dimensional star.">
<polygon fill="white" stroke="black" points="487,-0.5 487,-19.5 534,-19.5 534,-0.5 487,-0.5"/>
<text text-anchor="middle" x="510.5" y="-7.5" font-family="Helvetica,sans-Serif" font-size="10.00">star2d</text>
</a>
</g>
</g>
<!-- Node1&#45;&gt;Node44 -->
<g id="edge72" class="edge">
<title>Node1&#45;&gt;Node44</title>
<path fill="none" stroke="midnightblue" d="M639.77,-617.26C640.68,-523.37 640.03,-122.59 565,-29 557.54,-19.69 545.18,-14.94 534.22,-12.52"/>
<polygon fill="midnightblue" stroke="midnightblue" points="636.27,-617.33 639.66,-627.37 643.27,-617.41 636.27,-617.33"/>
</g>
<!-- Node3&#45;&gt;Node4 -->
<g id="edge3" class="edge">
<title>Node3&#45;&gt;Node4</title>
<path fill="none" stroke="midnightblue" d="M323.58,-1226C301.02,-1226 272.46,-1226 248.69,-1226"/>
<polygon fill="midnightblue" stroke="midnightblue" points="323.81,-1229.5 333.81,-1226 323.81,-1222.5 323.81,-1229.5"/>
</g>
<!-- Node5&#45;&gt;Node3 -->
<g id="edge5" class="edge">
<title>Node5&#45;&gt;Node3</title>
<path fill="none" stroke="midnightblue" d="M464.13,-1226C441.03,-1226 413.64,-1226 393.43,-1226"/>
<polygon fill="midnightblue" stroke="midnightblue" points="464.4,-1229.5 474.4,-1226 464.4,-1222.5 464.4,-1229.5"/>
</g>
<!-- Node5&#45;&gt;Node6 -->
<g id="edge6" class="edge">
<title>Node5&#45;&gt;Node6</title>
<path fill="none" stroke="midnightblue" d="M501.59,-1207.09C488.65,-1178.39 460.32,-1123.92 420,-1093 412.65,-1087.36 403.51,-1083.33 394.78,-1080.48"/>
<polygon fill="midnightblue" stroke="midnightblue" points="498.44,-1208.63 505.65,-1216.4 504.86,-1205.84 498.44,-1208.63"/>
</g>
<!-- Node6&#45;&gt;Node4 -->
<g id="edge8" class="edge">
<title>Node6&#45;&gt;Node4</title>
<path fill="none" stroke="midnightblue" d="M322.89,-1082.37C317,-1085 311.44,-1088.46 307,-1093 269.88,-1131.02 309.26,-1170.13 271,-1207 264.83,-1212.95 256.97,-1217.07 248.78,-1219.92"/>
<polygon fill="midnightblue" stroke="midnightblue" points="324.12,-1085.64 332.28,-1078.88 321.68,-1079.08 324.12,-1085.64"/>
</g>
<!-- Node6&#45;&gt;Node7 -->
<g id="edge7" class="edge">
<title>Node6&#45;&gt;Node7</title>
<path fill="none" stroke="midnightblue" d="M322.61,-1083.25C316.95,-1085.77 311.52,-1088.96 307,-1093 279.13,-1117.9 299.62,-1144.96 271,-1169 260.82,-1177.55 247.09,-1182.27 234.57,-1184.87"/>
<polygon fill="midnightblue" stroke="midnightblue" points="324.12,-1086.42 332.24,-1079.62 321.65,-1079.87 324.12,-1086.42"/>
</g>
<!-- Node6&#45;&gt;Node8 -->
<g id="edge9" class="edge">
<title>Node6&#45;&gt;Node8</title>
<path fill="none" stroke="midnightblue" d="M323.07,-1084.83C317.47,-1087.12 311.94,-1089.83 307,-1093 287.43,-1105.58 290.95,-1119.03 271,-1131 264.61,-1134.84 257.42,-1137.92 250.17,-1140.39"/>
<polygon fill="midnightblue" stroke="midnightblue" points="324.31,-1088.1 332.48,-1081.36 321.89,-1081.53 324.31,-1088.1"/>
</g>
<!-- Node9 -->
<g id="node9" class="node">
<title>Node9</title>
<g id="a_node9"><a xlink:href="group__tools__drafting__dimension.html#ga5c4915c4c4464c5cdaefd501c2de261d" target="_top" xlink:title="Construct a dimension leader line at a point.">
<polygon fill="white" stroke="black" points="151.5,-1102.5 151.5,-1121.5 250.5,-1121.5 250.5,-1102.5 151.5,-1102.5"/>
<text text-anchor="middle" x="201" y="-1109.5" font-family="Helvetica,sans-Serif" font-size="10.00">draft_dim_leader</text>
</a>
</g>
</g>
<!-- Node6&#45;&gt;Node9 -->
<g id="edge10" class="edge">
<title>Node6&#45;&gt;Node9</title>
<path fill="none" stroke="midnightblue" d="M322.29,-1083.52C297.87,-1089.3 266.8,-1096.66 242.36,-1102.44"/>
<polygon fill="midnightblue" stroke="midnightblue" points="323.39,-1086.86 332.31,-1081.15 321.77,-1080.05 323.39,-1086.86"/>
</g>
<!-- Node6&#45;&gt;Node10 -->
<g id="edge11" class="edge">
<title>Node6&#45;&gt;Node10</title>
<path fill="none" stroke="midnightblue" d="M322.2,-1074C298.39,-1074 268.29,-1074 244.17,-1074"/>
<polygon fill="midnightblue" stroke="midnightblue" points="322.31,-1077.5 332.31,-1074 322.31,-1070.5 322.31,-1077.5"/>
</g>
<!-- Node6&#45;&gt;Node11 -->
<g id="edge12" class="edge">
<title>Node6&#45;&gt;Node11</title>
<path fill="none" stroke="midnightblue" d="M322.29,-1064.48C297.87,-1058.7 266.8,-1051.34 242.36,-1045.56"/>
<polygon fill="midnightblue" stroke="midnightblue" points="321.77,-1067.95 332.31,-1066.85 323.39,-1061.14 321.77,-1067.95"/>
</g>
<!-- Node12 -->
<g id="node12" class="node">
<title>Node12</title>
<g id="a_node12"><a xlink:href="group__tools__drafting__primitive.html#gada1e771ce89ef86b6241c43dc01bf62d" target="_top" xlink:title="Draft a polygon with configurable style.">
<polygon fill="white" stroke="black" points="159.5,-988.5 159.5,-1007.5 242.5,-1007.5 242.5,-988.5 159.5,-988.5"/>
<text text-anchor="middle" x="201" y="-995.5" font-family="Helvetica,sans-Serif" font-size="10.00">draft_polygon</text>
</a>
</g>
</g>
<!-- Node6&#45;&gt;Node12 -->
<g id="edge13" class="edge">
<title>Node6&#45;&gt;Node12</title>
<path fill="none" stroke="midnightblue" d="M341.3,-1058.32C323.36,-1045.67 296.55,-1028.19 271,-1017 262.12,-1013.11 252.25,-1009.83 242.81,-1007.14"/>
<polygon fill="midnightblue" stroke="midnightblue" points="339.66,-1061.45 349.83,-1064.44 343.74,-1055.76 339.66,-1061.45"/>
</g>
<!-- Node6&#45;&gt;Node13 -->
<g id="edge14" class="edge">
<title>Node6&#45;&gt;Node13</title>
<path fill="none" stroke="midnightblue" d="M349.96,-1056.01C334.05,-1034.52 304.58,-998.97 271,-979 263.42,-974.49 254.73,-971.02 246.14,-968.36"/>
<polygon fill="midnightblue" stroke="midnightblue" points="347.24,-1058.22 355.93,-1064.28 352.91,-1054.12 347.24,-1058.22"/>
</g>
<!-- Node6&#45;&gt;Node14 -->
<g id="edge15" class="edge">
<title>Node6&#45;&gt;Node14</title>
<path fill="none" stroke="midnightblue" d="M354.53,-1054.78C341.46,-1025.67 312.69,-970.67 271,-941 260.37,-933.44 246.85,-928.88 234.6,-926.14"/>
<polygon fill="midnightblue" stroke="midnightblue" points="351.44,-1056.45 358.63,-1064.23 357.86,-1053.67 351.44,-1056.45"/>
</g>
<!-- Node15&#45;&gt;Node4 -->
<g id="edge23" class="edge">
<title>Node15&#45;&gt;Node4</title>
<path fill="none" stroke="midnightblue" d="M349.96,-1129.99C334.05,-1151.48 304.58,-1187.03 271,-1207 264.16,-1211.06 256.43,-1214.28 248.68,-1216.83"/>
<polygon fill="midnightblue" stroke="midnightblue" points="352.91,-1131.88 355.93,-1121.72 347.24,-1127.78 352.91,-1131.88"/>
</g>
<!-- Node15&#45;&gt;Node9 -->
<g id="edge24" class="edge">
<title>Node15&#45;&gt;Node9</title>
<path fill="none" stroke="midnightblue" d="M320.35,-1112C299.01,-1112 273,-1112 250.8,-1112"/>
<polygon fill="midnightblue" stroke="midnightblue" points="320.41,-1115.5 330.41,-1112 320.41,-1108.5 320.41,-1115.5"/>
</g>
<!-- Node15&#45;&gt;Node10 -->
<g id="edge25" class="edge">
<title>Node15&#45;&gt;Node10</title>
<path fill="none" stroke="midnightblue" d="M320.46,-1102.05C296.32,-1096.33 266.15,-1089.19 242.31,-1083.54"/>
<polygon fill="midnightblue" stroke="midnightblue" points="319.87,-1105.5 330.41,-1104.4 321.48,-1098.69 319.87,-1105.5"/>
</g>
<!-- Node15&#45;&gt;Node11 -->
<g id="edge26" class="edge">
<title>Node15&#45;&gt;Node11</title>
<path fill="none" stroke="midnightblue" d="M321.01,-1100.31C316.12,-1098.21 311.33,-1095.78 307,-1093 287.43,-1080.42 290.95,-1066.97 271,-1055 264.61,-1051.16 257.42,-1048.08 250.17,-1045.61"/>
<polygon fill="midnightblue" stroke="midnightblue" points="319.87,-1103.62 330.46,-1103.96 322.39,-1097.09 319.87,-1103.62"/>
</g>
<!-- Node17 -->
<g id="node17" class="node">
<title>Node17</title>
<g id="a_node17"><a xlink:href="group__tools__drafting__operation.html#ga172b76b2027c863e672bc7a84dabea5e" target="_top" xlink:title="Construct a sheet title block.">
<polygon fill="white" stroke="black" points="316,-874.5 316,-893.5 411,-893.5 411,-874.5 316,-874.5"/>
<text text-anchor="middle" x="363.5" y="-881.5" font-family="Helvetica,sans-Serif" font-size="10.00">draft_title_block</text>
</a>
</g>
</g>
<!-- Node16&#45;&gt;Node17 -->
<g id="edge30" class="edge">
<title>Node16&#45;&gt;Node17</title>
<path fill="none" stroke="midnightblue" d="M463.25,-877.87C446.62,-878.9 427.87,-880.07 411.2,-881.1"/>
<polygon fill="midnightblue" stroke="midnightblue" points="463.52,-881.36 473.28,-877.25 463.09,-874.37 463.52,-881.36"/>
</g>
<!-- Node19 -->
<g id="node19" class="node">
<title>Node19</title>
<g id="a_node19"><a xlink:href="group__shapes__basic__2d.html#ga9f2b6ba2562760853dd998b0086736a3" target="_top" xlink:title="An ellipse with a removed elliptical core.">
<polygon fill="white" stroke="black" points="334,-760.5 334,-779.5 393,-779.5 393,-760.5 334,-760.5"/>
<text text-anchor="middle" x="363.5" y="-767.5" font-family="Helvetica,sans-Serif" font-size="10.00">ellipse_c</text>
</a>
</g>
</g>
<!-- Node18&#45;&gt;Node19 -->
<g id="edge32" class="edge">
<title>Node18&#45;&gt;Node19</title>
<path fill="none" stroke="midnightblue" d="M475.73,-770C450.65,-770 416.84,-770 393.1,-770"/>
<polygon fill="midnightblue" stroke="midnightblue" points="475.88,-773.5 485.88,-770 475.88,-766.5 475.88,-773.5"/>
</g>
<!-- Node20 -->
<g id="node20" class="node">
<title>Node20</title>
<g id="a_node20"><a xlink:href="group__shapes__basic__2d.html#ga3e186b32450bffe183da7422f0b19f95" target="_top" xlink:title="A sector of an ellipse with a removed elliptical core.">
<polygon fill="white" stroke="black" points="168.5,-798.5 168.5,-817.5 233.5,-817.5 233.5,-798.5 168.5,-798.5"/>
<text text-anchor="middle" x="201" y="-805.5" font-family="Helvetica,sans-Serif" font-size="10.00">ellipse_cs</text>
</a>
</g>
</g>
<!-- Node18&#45;&gt;Node20 -->
<g id="edge33" class="edge">
<title>Node18&#45;&gt;Node20</title>
<path fill="none" stroke="midnightblue" d="M475.86,-778.16C459.15,-781.95 438.6,-786.23 420,-789 354.06,-798.84 276.07,-804.12 233.55,-806.46"/>
<polygon fill="midnightblue" stroke="midnightblue" points="476.76,-781.54 485.71,-775.88 475.18,-774.72 476.76,-781.54"/>
</g>
<!-- Node18&#45;&gt;Node22 -->
<g id="edge35" class="edge">
<title>Node18&#45;&gt;Node22</title>
<path fill="none" stroke="midnightblue" d="M485.7,-784.87C467.9,-795.72 442.82,-810.49 420,-822 409.78,-827.15 398.21,-832.27 388.28,-836.45"/>
<polygon fill="midnightblue" stroke="midnightblue" points="487.6,-787.8 494.28,-779.58 483.93,-781.84 487.6,-787.8"/>
</g>
<!-- Node18&#45;&gt;Node23 -->
<g id="edge37" class="edge">
<title>Node18&#45;&gt;Node23</title>
<path fill="none" stroke="midnightblue" d="M488.35,-754.44C470.73,-742.01 444.63,-724.77 420,-713 372.19,-690.16 352.72,-701.78 307,-675 265.85,-650.89 226.77,-608.77 210.25,-589.78"/>
<polygon fill="midnightblue" stroke="midnightblue" points="486.57,-757.48 496.74,-760.46 490.65,-751.79 486.57,-757.48"/>
</g>
<!-- Node21 -->
<g id="node21" class="node">
<title>Node21</title>
<g id="a_node21"><a xlink:href="group__shapes__revolved.html#ga58a3e713a904c96b69ddd8f87f7f3bb1" target="_top" xlink:title="An elliptical cross&#45;sectional profile revolved about the z&#45;axis.">
<polygon fill="white" stroke="black" points="0,-779.5 0,-798.5 95,-798.5 95,-779.5 0,-779.5"/>
<text text-anchor="middle" x="47.5" y="-786.5" font-family="Helvetica,sans-Serif" font-size="10.00">torus_ellipse_cs</text>
</a>
</g>
</g>
<!-- Node20&#45;&gt;Node21 -->
<g id="edge34" class="edge">
<title>Node20&#45;&gt;Node21</title>
<path fill="none" stroke="midnightblue" d="M158.12,-802.75C138.59,-800.3 115.27,-797.37 95.18,-794.85"/>
<polygon fill="midnightblue" stroke="midnightblue" points="157.88,-806.25 168.24,-804.02 158.75,-799.3 157.88,-806.25"/>
</g>
<!-- Node22&#45;&gt;Node20 -->
<g id="edge36" class="edge">
<title>Node22&#45;&gt;Node20</title>
<path fill="none" stroke="midnightblue" d="M323.72,-836.82C296.15,-830.29 259.58,-821.63 233.75,-815.52"/>
<polygon fill="midnightblue" stroke="midnightblue" points="323.27,-840.31 333.81,-839.21 324.88,-833.5 323.27,-840.31"/>
</g>
<!-- Node24&#45;&gt;Node23 -->
<g id="edge41" class="edge">
<title>Node24&#45;&gt;Node23</title>
<path fill="none" stroke="midnightblue" d="M471.28,-546.36C430.55,-551.05 364.19,-558.8 307,-566 283.83,-568.92 257.8,-572.39 237.46,-575.14"/>
<polygon fill="midnightblue" stroke="midnightblue" points="471.78,-549.83 481.31,-545.21 470.98,-542.87 471.78,-549.83"/>
</g>
<!-- Node24&#45;&gt;Node25 -->
<g id="edge40" class="edge">
<title>Node24&#45;&gt;Node25</title>
<path fill="none" stroke="midnightblue" d="M471.45,-532.03C448.49,-526.01 419.54,-518.42 397.55,-512.66"/>
<polygon fill="midnightblue" stroke="midnightblue" points="470.64,-535.43 481.2,-534.58 472.41,-528.66 470.64,-535.43"/>
</g>
<!-- Node27 -->
<g id="node27" class="node">
<title>Node27</title>
<g id="a_node27"><a xlink:href="group__tools__extrude.html#ga45661244067bf945b684550c3263ee45" target="_top" xlink:title="Linearly extrude a 2d shape with multi&#45;segment uniformly&#45;spaced profile scaling.">
<polygon fill="white" stroke="black" points="307,-380.5 307,-399.5 420,-399.5 420,-380.5 307,-380.5"/>
<text text-anchor="middle" x="363.5" y="-387.5" font-family="Helvetica,sans-Serif" font-size="10.00">extrude_linear_mss</text>
</a>
</g>
</g>
<!-- Node26&#45;&gt;Node27 -->
<g id="edge44" class="edge">
<title>Node26&#45;&gt;Node27</title>
<path fill="none" stroke="midnightblue" d="M445.7,-390C437.23,-390 428.61,-390 420.29,-390"/>
<polygon fill="midnightblue" stroke="midnightblue" points="445.92,-393.5 455.92,-390 445.92,-386.5 445.92,-393.5"/>
</g>
<!-- Node26&#45;&gt;Node29 -->
<g id="edge48" class="edge">
<title>Node26&#45;&gt;Node29</title>
<path fill="none" stroke="midnightblue" d="M456.46,-378.4C444.48,-375.88 431.82,-373.28 420,-371 365.87,-360.54 303.93,-349.87 259.94,-342.51"/>
<polygon fill="midnightblue" stroke="midnightblue" points="455.81,-381.85 466.32,-380.5 457.26,-375 455.81,-381.85"/>
</g>
<!-- Node27&#45;&gt;Node23 -->
<g id="edge46" class="edge">
<title>Node27&#45;&gt;Node23</title>
<path fill="none" stroke="midnightblue" d="M344.91,-407.12C333.75,-418.22 319.17,-433.13 307,-447 268,-491.45 225.51,-548.09 209.06,-570.38"/>
<polygon fill="midnightblue" stroke="midnightblue" points="347.69,-409.3 352.35,-399.79 342.77,-404.32 347.69,-409.3"/>
</g>
<!-- Node27&#45;&gt;Node28 -->
<g id="edge45" class="edge">
<title>Node27&#45;&gt;Node28</title>
<path fill="none" stroke="midnightblue" d="M312.25,-401.9C289.69,-407.24 263.44,-413.45 242.21,-418.48"/>
<polygon fill="midnightblue" stroke="midnightblue" points="313.07,-405.3 322,-399.59 311.46,-398.49 313.07,-405.3"/>
</g>
<!-- Node27&#45;&gt;Node29 -->
<g id="edge47" class="edge">
<title>Node27&#45;&gt;Node29</title>
<path fill="none" stroke="midnightblue" d="M326.1,-377.07C296.56,-366.58 255.6,-352.04 228.95,-342.57"/>
<polygon fill="midnightblue" stroke="midnightblue" points="325.04,-380.41 335.64,-380.46 327.38,-373.81 325.04,-380.41"/>
</g>
<!-- Node30&#45;&gt;Node21 -->
<g id="edge50" class="edge">
<title>Node30&#45;&gt;Node21</title>
<path fill="none" stroke="midnightblue" d="M307.89,-743.67C295.76,-746.17 282.96,-748.74 271,-751 210.35,-762.47 140.11,-774.21 95.04,-781.55"/>
<polygon fill="midnightblue" stroke="midnightblue" points="308.81,-747.06 317.89,-741.6 307.38,-740.2 308.81,-747.06"/>
</g>
<!-- Node31 -->
<g id="node31" class="node">
<title>Node31</title>
<g id="a_node31"><a xlink:href="group__shapes__revolved.html#ga69b374bbebd7d87cfcd06b6bd3278404" target="_top" xlink:title="A trapezoidal cross&#45;sectional profile revolved about the z&#45;axis.">
<polygon fill="white" stroke="black" points="146,-722.5 146,-741.5 256,-741.5 256,-722.5 146,-722.5"/>
<text text-anchor="middle" x="201" y="-729.5" font-family="Helvetica,sans-Serif" font-size="10.00">torus_pg_trapezoid</text>
</a>
</g>
</g>
<!-- Node30&#45;&gt;Node31 -->
<g id="edge51" class="edge">
<title>Node30&#45;&gt;Node31</title>
<path fill="none" stroke="midnightblue" d="M301.17,-732C286.32,-732 270.55,-732 256.06,-732"/>
<polygon fill="midnightblue" stroke="midnightblue" points="301.28,-735.5 311.28,-732 301.28,-728.5 301.28,-735.5"/>
</g>
<!-- Node32 -->
<g id="node32" class="node">
<title>Node32</title>
<g id="a_node32"><a xlink:href="group__shapes__revolved.html#gad587c003585db775fd441468954b7c43" target="_top" xlink:title="A rectangular cross&#45;sectional profile revolved about the z&#45;axis.">
<polygon fill="white" stroke="black" points="149.5,-665.5 149.5,-684.5 252.5,-684.5 252.5,-665.5 149.5,-665.5"/>
<text text-anchor="middle" x="201" y="-672.5" font-family="Helvetica,sans-Serif" font-size="10.00">torus_rectangle_c</text>
</a>
</g>
</g>
<!-- Node30&#45;&gt;Node32 -->
<g id="edge52" class="edge">
<title>Node30&#45;&gt;Node32</title>
<path fill="none" stroke="midnightblue" d="M326.1,-719.07C296.56,-708.58 255.6,-694.04 228.95,-684.57"/>
<polygon fill="midnightblue" stroke="midnightblue" points="325.04,-722.41 335.64,-722.46 327.38,-715.81 325.04,-722.41"/>
</g>
<!-- Node33&#45;&gt;Node28 -->
<g id="edge54" class="edge">
<title>Node33&#45;&gt;Node28</title>
<path fill="none" stroke="midnightblue" d="M312.25,-454.1C289.69,-448.76 263.44,-442.55 242.21,-437.52"/>
<polygon fill="midnightblue" stroke="midnightblue" points="311.46,-457.51 322,-456.41 313.07,-450.7 311.46,-457.51"/>
</g>
<!-- Node34&#45;&gt;Node29 -->
<g id="edge58" class="edge">
<title>Node34&#45;&gt;Node29</title>
<path fill="none" stroke="midnightblue" d="M313.25,-319.83C297.6,-321.68 280.1,-323.75 263.68,-325.7"/>
<polygon fill="midnightblue" stroke="midnightblue" points="313.72,-323.3 323.24,-318.65 312.9,-316.35 313.72,-323.3"/>
</g>
<!-- Node38&#45;&gt;Node39 -->
<g id="edge64" class="edge">
<title>Node38&#45;&gt;Node39</title>
<path fill="none" stroke="midnightblue" d="M466.25,-129.67C440.3,-133.07 408.33,-137.26 387.23,-140.02"/>
<polygon fill="midnightblue" stroke="midnightblue" points="466.77,-133.13 476.23,-128.36 465.86,-126.19 466.77,-133.13"/>
</g>
<!-- Node40&#45;&gt;Node23 -->
<g id="edge66" class="edge">
<title>Node40&#45;&gt;Node23</title>
<path fill="none" stroke="midnightblue" d="M469.19,-613.4C428.31,-608.69 363.22,-601.08 307,-594 283.83,-591.08 257.8,-587.61 237.46,-584.86"/>
<polygon fill="midnightblue" stroke="midnightblue" points="468.96,-616.89 479.29,-614.56 469.76,-609.94 468.96,-616.89"/>
</g>
<!-- Node40&#45;&gt;Node41 -->
<g id="edge67" class="edge">
<title>Node40&#45;&gt;Node41</title>
<path fill="none" stroke="midnightblue" d="M469.54,-628.47C447.81,-634.17 421.16,-641.15 400.14,-646.66"/>
<polygon fill="midnightblue" stroke="midnightblue" points="470.67,-631.79 479.46,-625.87 468.9,-625.02 470.67,-631.79"/>
</g>
<!-- Node41&#45;&gt;Node32 -->
<g id="edge68" class="edge">
<title>Node41&#45;&gt;Node32</title>
<path fill="none" stroke="midnightblue" d="M316.78,-661.41C296.79,-663.78 273.27,-666.56 252.74,-668.99"/>
<polygon fill="midnightblue" stroke="midnightblue" points="317.36,-664.87 326.88,-660.22 316.54,-657.92 317.36,-664.87"/>
</g>
</g>
</svg>
