<?xml version="1.0" encoding="UTF-8" standalone="no"?>
<!DOCTYPE svg PUBLIC "-//W3C//DTD SVG 1.1//EN"
 "http://www.w3.org/Graphics/SVG/1.1/DTD/svg11.dtd">
<!-- Generated by graphviz version 2.43.0 (0)
 -->
<!-- Title: angle_ll Pages: 1 -->
<svg width="697pt" height="522pt"
 viewBox="0.00 0.00 697.00 522.00" xmlns="http://www.w3.org/2000/svg" xmlns:xlink="http://www.w3.org/1999/xlink">
<g id="graph0" class="graph" transform="scale(1 1) rotate(0) translate(4 518)">
<title>angle_ll</title>
<polygon fill="white" stroke="transparent" points="-4,4 -4,-518 693,-518 693,4 -4,4"/>
<!-- Node1 -->
<g id="node1" class="node">
<title>Node1</title>
<g id="a_node1"><a xlink:title="Compute the angle between two lines or vectors in a 3d or 2d&#45;space.">
<polygon fill="#bfbfbf" stroke="black" points="634,-266.5 634,-285.5 689,-285.5 689,-266.5 634,-266.5"/>
<text text-anchor="middle" x="661.5" y="-273.5" font-family="Helvetica,sans-Serif" font-size="10.00">angle_ll</text>
</a>
</g>
</g>
<!-- Node2 -->
<g id="node2" class="node">
<title>Node2</title>
<g id="a_node2"><a xlink:href="group__tools__align.html#ga7a21147611850c6cae7e95d23417099b" target="_top" xlink:title="Align a line or vector to a reference line or vector.">
<polygon fill="white" stroke="black" points="531.5,-418.5 531.5,-437.5 583.5,-437.5 583.5,-418.5 531.5,-418.5"/>
<text text-anchor="middle" x="557.5" y="-425.5" font-family="Helvetica,sans-Serif" font-size="10.00">align_ll</text>
</a>
</g>
</g>
<!-- Node1&#45;&gt;Node2 -->
<g id="edge1" class="edge">
<title>Node1&#45;&gt;Node2</title>
<path fill="none" stroke="midnightblue" d="M654.82,-295.56C646.2,-322.55 627.59,-371.56 598,-404 592.7,-409.81 585.67,-414.69 579.01,-418.5"/>
<polygon fill="midnightblue" stroke="midnightblue" points="658.24,-296.34 657.82,-285.76 651.55,-294.29 658.24,-296.34"/>
</g>
<!-- Node6 -->
<g id="node6" class="node">
<title>Node6</title>
<g id="a_node6"><a xlink:href="group__tools__drafting__dimension.html#ga6b8e17d22ac4a95d25a90be8a74c0689" target="_top" xlink:title="Construct a angular dimension arc.">
<polygon fill="white" stroke="black" points="2,-494.5 2,-513.5 97,-513.5 97,-494.5 2,-494.5"/>
<text text-anchor="middle" x="49.5" y="-501.5" font-family="Helvetica,sans-Serif" font-size="10.00">draft_dim_angle</text>
</a>
</g>
</g>
<!-- Node1&#45;&gt;Node6 -->
<g id="edge20" class="edge">
<title>Node1&#45;&gt;Node6</title>
<path fill="none" stroke="midnightblue" d="M658.83,-295.7C654.77,-331 641.32,-405.23 598,-447 535.76,-507.02 498.46,-504 412,-504 412,-504 412,-504 268,-504 209.09,-504 141.21,-504 97.17,-504"/>
<polygon fill="midnightblue" stroke="midnightblue" points="662.31,-296 659.84,-285.7 655.35,-295.3 662.31,-296"/>
</g>
<!-- Node7 -->
<g id="node7" class="node">
<title>Node7</title>
<g id="a_node7"><a xlink:href="group__tools__drafting__primitive.html#ga6f12ccd4c9de0a8ab887184911f39c8f" target="_top" xlink:title="Draft an arrowhead at the terminal point of a line.">
<polygon fill="white" stroke="black" points="233,-380.5 233,-399.5 305,-399.5 305,-380.5 233,-380.5"/>
<text text-anchor="middle" x="269" y="-387.5" font-family="Helvetica,sans-Serif" font-size="10.00">draft_arrow</text>
</a>
</g>
</g>
<!-- Node1&#45;&gt;Node7 -->
<g id="edge19" class="edge">
<title>Node1&#45;&gt;Node7</title>
<path fill="none" stroke="midnightblue" d="M653.19,-295.14C643.91,-316.52 625.69,-350.2 598,-366 503.77,-419.76 368.74,-406.94 305.37,-396.76"/>
<polygon fill="midnightblue" stroke="midnightblue" points="656.48,-296.34 657.03,-285.76 650,-293.69 656.48,-296.34"/>
</g>
<!-- Node8 -->
<g id="node8" class="node">
<title>Node8</title>
<g id="a_node8"><a xlink:href="group__tools__drafting__primitive.html#ga060910368142d6371cf4f3f30be7561e" target="_top" xlink:title="Draft a line with configurable style and optional arrowheads.">
<polygon fill="white" stroke="black" points="135,-361.5 135,-380.5 197,-380.5 197,-361.5 135,-361.5"/>
<text text-anchor="middle" x="166" y="-368.5" font-family="Helvetica,sans-Serif" font-size="10.00">draft_line</text>
</a>
</g>
</g>
<!-- Node1&#45;&gt;Node8 -->
<g id="edge25" class="edge">
<title>Node1&#45;&gt;Node8</title>
<path fill="none" stroke="midnightblue" d="M645.2,-293.3C633.54,-305.24 616.41,-320.29 598,-328 525.35,-358.43 282.96,-367.85 197.3,-370.27"/>
<polygon fill="midnightblue" stroke="midnightblue" points="648.07,-295.36 652.34,-285.67 642.96,-290.58 648.07,-295.36"/>
</g>
<!-- Node10 -->
<g id="node10" class="node">
<title>Node10</title>
<g id="a_node10"><a xlink:href="group__tools__drafting__dimension.html#ga4866c090b81b437e2f1f707d28ad8ec7" target="_top" xlink:title="Construct a center mark dimension cross.">
<polygon fill="white" stroke="black" points="0,-304.5 0,-323.5 99,-323.5 99,-304.5 0,-304.5"/>
<text text-anchor="middle" x="49.5" y="-311.5" font-family="Helvetica,sans-Serif" font-size="10.00">draft_dim_center</text>
</a>
</g>
</g>
<!-- Node1&#45;&gt;Node10 -->
<g id="edge21" class="edge">
<title>Node1&#45;&gt;Node10</title>
<path fill="none" stroke="midnightblue" d="M623.9,-285.16C575.67,-296.4 488.03,-314 412,-314 412,-314 412,-314 268,-314 210.04,-314 143.39,-314 99.31,-314"/>
<polygon fill="midnightblue" stroke="midnightblue" points="624.94,-288.51 633.86,-282.79 623.32,-281.7 624.94,-288.51"/>
</g>
<!-- Node11 -->
<g id="node11" class="node">
<title>Node11</title>
<g id="a_node11"><a xlink:href="group__tools__drafting__dimension.html#ga5c4915c4c4464c5cdaefd501c2de261d" target="_top" xlink:title="Construct a dimension leader line at a point.">
<polygon fill="white" stroke="black" points="0,-266.5 0,-285.5 99,-285.5 99,-266.5 0,-266.5"/>
<text text-anchor="middle" x="49.5" y="-273.5" font-family="Helvetica,sans-Serif" font-size="10.00">draft_dim_leader</text>
</a>
</g>
</g>
<!-- Node1&#45;&gt;Node11 -->
<g id="edge22" class="edge">
<title>Node1&#45;&gt;Node11</title>
<path fill="none" stroke="midnightblue" d="M623.63,-276C575.11,-276 487.16,-276 412,-276 412,-276 412,-276 268,-276 210.04,-276 143.39,-276 99.31,-276"/>
<polygon fill="midnightblue" stroke="midnightblue" points="623.66,-279.5 633.66,-276 623.66,-272.5 623.66,-279.5"/>
</g>
<!-- Node12 -->
<g id="node12" class="node">
<title>Node12</title>
<g id="a_node12"><a xlink:href="group__tools__drafting__dimension.html#ga27a35e94597435a74e22d76789e9be5e" target="_top" xlink:title="Construct a dimension line between two points.">
<polygon fill="white" stroke="black" points="6.5,-228.5 6.5,-247.5 92.5,-247.5 92.5,-228.5 6.5,-228.5"/>
<text text-anchor="middle" x="49.5" y="-235.5" font-family="Helvetica,sans-Serif" font-size="10.00">draft_dim_line</text>
</a>
</g>
</g>
<!-- Node1&#45;&gt;Node12 -->
<g id="edge23" class="edge">
<title>Node1&#45;&gt;Node12</title>
<path fill="none" stroke="midnightblue" d="M623.9,-266.84C575.67,-255.6 488.03,-238 412,-238 412,-238 412,-238 268,-238 207.02,-238 136.42,-238 92.6,-238"/>
<polygon fill="midnightblue" stroke="midnightblue" points="623.32,-270.3 633.86,-269.21 624.94,-263.49 623.32,-270.3"/>
</g>
<!-- Node13 -->
<g id="node13" class="node">
<title>Node13</title>
<g id="a_node13"><a xlink:href="group__tools__drafting__dimension.html#gaef1a8150a8ef7be88e086fb3dbab64a9" target="_top" xlink:title="Construct a radial dimension line.">
<polygon fill="white" stroke="black" points="0.5,-190.5 0.5,-209.5 98.5,-209.5 98.5,-190.5 0.5,-190.5"/>
<text text-anchor="middle" x="49.5" y="-197.5" font-family="Helvetica,sans-Serif" font-size="10.00">draft_dim_radius</text>
</a>
</g>
</g>
<!-- Node1&#45;&gt;Node13 -->
<g id="edge24" class="edge">
<title>Node1&#45;&gt;Node13</title>
<path fill="none" stroke="midnightblue" d="M636.26,-261.32C624.95,-254.97 611.12,-247.88 598,-243 518.49,-213.39 496.85,-200 412,-200 412,-200 412,-200 268,-200 209.85,-200 142.95,-200 98.88,-200"/>
<polygon fill="midnightblue" stroke="midnightblue" points="634.69,-264.45 645.1,-266.42 638.19,-258.39 634.69,-264.45"/>
</g>
<!-- Node17 -->
<g id="node17" class="node">
<title>Node17</title>
<g id="a_node17"><a xlink:href="group__tools__align.html#ga8f52a6a936d0f5e248f836d19df14a9f" target="_top" xlink:title="Orient a line or vector to a reference line or vector.">
<polygon fill="white" stroke="black" points="529.5,-152.5 529.5,-171.5 585.5,-171.5 585.5,-152.5 529.5,-152.5"/>
<text text-anchor="middle" x="557.5" y="-159.5" font-family="Helvetica,sans-Serif" font-size="10.00">orient_ll</text>
</a>
</g>
</g>
<!-- Node1&#45;&gt;Node17 -->
<g id="edge26" class="edge">
<title>Node1&#45;&gt;Node17</title>
<path fill="none" stroke="midnightblue" d="M650.77,-257.55C639.84,-238.07 620.64,-207.3 598,-186 592.04,-180.39 584.56,-175.44 577.71,-171.52"/>
<polygon fill="midnightblue" stroke="midnightblue" points="647.71,-259.26 655.58,-266.36 653.86,-255.9 647.71,-259.26"/>
</g>
<!-- Node20 -->
<g id="node20" class="node">
<title>Node20</title>
<g id="a_node20"><a xlink:href="group__tools__repeat.html#ga543a7c0b4c744d98e6197036da5681fe" target="_top" xlink:title="Distribute copies of a 2d or 3d shape equally about a z&#45;axis radius.">
<polygon fill="white" stroke="black" points="517,-76.5 517,-95.5 598,-95.5 598,-76.5 517,-76.5"/>
<text text-anchor="middle" x="557.5" y="-83.5" font-family="Helvetica,sans-Serif" font-size="10.00">repeat_radial</text>
</a>
</g>
</g>
<!-- Node1&#45;&gt;Node20 -->
<g id="edge29" class="edge">
<title>Node1&#45;&gt;Node20</title>
<path fill="none" stroke="midnightblue" d="M652.69,-256.85C641.71,-230.54 620.5,-182.05 598,-143 588.02,-125.68 574.38,-106.86 566.01,-95.76"/>
<polygon fill="midnightblue" stroke="midnightblue" points="649.58,-258.47 656.63,-266.37 656.05,-255.8 649.58,-258.47"/>
</g>
<!-- Node24 -->
<g id="node24" class="node">
<title>Node24</title>
<g id="a_node24"><a xlink:href="group__shapes__basic__2d.html#ga89c8cb6f39cf9b045091f8b0434b25d0" target="_top" xlink:title="A rhombus.">
<polygon fill="white" stroke="black" points="528,-38.5 528,-57.5 587,-57.5 587,-38.5 528,-38.5"/>
<text text-anchor="middle" x="557.5" y="-45.5" font-family="Helvetica,sans-Serif" font-size="10.00">rhombus</text>
</a>
</g>
</g>
<!-- Node1&#45;&gt;Node24 -->
<g id="edge33" class="edge">
<title>Node1&#45;&gt;Node24</title>
<path fill="none" stroke="midnightblue" d="M659.75,-256.31C657.24,-216.08 646.21,-123.49 598,-67 594.74,-63.18 590.53,-60.07 586.09,-57.55"/>
<polygon fill="midnightblue" stroke="midnightblue" points="656.26,-256.59 660.27,-266.4 663.26,-256.23 656.26,-256.59"/>
</g>
<!-- Node3 -->
<g id="node3" class="node">
<title>Node3</title>
<g id="a_node3"><a xlink:href="group__tools__align.html#ga3f7b93a4934de605058ca07f0c22d688" target="_top" xlink:title="Align an objects Cartesian axis to reference line or vector.">
<polygon fill="white" stroke="black" points="383.5,-456.5 383.5,-475.5 438.5,-475.5 438.5,-456.5 383.5,-456.5"/>
<text text-anchor="middle" x="411" y="-463.5" font-family="Helvetica,sans-Serif" font-size="10.00">align_al</text>
</a>
</g>
</g>
<!-- Node2&#45;&gt;Node3 -->
<g id="edge2" class="edge">
<title>Node2&#45;&gt;Node3</title>
<path fill="none" stroke="midnightblue" d="M521.35,-437.24C495.93,-443.93 462.11,-452.82 438.84,-458.94"/>
<polygon fill="midnightblue" stroke="midnightblue" points="522.55,-440.55 531.33,-434.62 520.77,-433.78 522.55,-440.55"/>
</g>
<!-- Node4 -->
<g id="node4" class="node">
<title>Node4</title>
<g id="a_node4"><a xlink:href="group__tools__drafting__primitive.html#ga4e7c5fa02dbc244702042067553a9225" target="_top" xlink:title="Draft a simple line from an initial to a terminal point.">
<polygon fill="white" stroke="black" points="371,-418.5 371,-437.5 451,-437.5 451,-418.5 371,-418.5"/>
<text text-anchor="middle" x="411" y="-425.5" font-family="Helvetica,sans-Serif" font-size="10.00">draft_line_pp</text>
</a>
</g>
</g>
<!-- Node2&#45;&gt;Node4 -->
<g id="edge3" class="edge">
<title>Node2&#45;&gt;Node4</title>
<path fill="none" stroke="midnightblue" d="M521.12,-428C499.89,-428 472.87,-428 451.02,-428"/>
<polygon fill="midnightblue" stroke="midnightblue" points="521.33,-431.5 531.33,-428 521.33,-424.5 521.33,-431.5"/>
</g>
<!-- Node5 -->
<g id="node5" class="node">
<title>Node5</title>
<g id="a_node5"><a xlink:href="group__tools__drafting__primitive.html#gaeb2a388d77f8e435b02c4235e7791eda" target="_top" xlink:title="Draft an arc with configurable style and optional arrowheads.">
<polygon fill="white" stroke="black" points="136.5,-456.5 136.5,-475.5 195.5,-475.5 195.5,-456.5 136.5,-456.5"/>
<text text-anchor="middle" x="166" y="-463.5" font-family="Helvetica,sans-Serif" font-size="10.00">draft_arc</text>
</a>
</g>
</g>
<!-- Node4&#45;&gt;Node5 -->
<g id="edge4" class="edge">
<title>Node4&#45;&gt;Node5</title>
<path fill="none" stroke="midnightblue" d="M360.78,-435.7C311.16,-443.46 236.3,-455.16 195.67,-461.52"/>
<polygon fill="midnightblue" stroke="midnightblue" points="361.62,-439.11 370.96,-434.11 360.54,-432.19 361.62,-439.11"/>
</g>
<!-- Node4&#45;&gt;Node7 -->
<g id="edge6" class="edge">
<title>Node4&#45;&gt;Node7</title>
<path fill="none" stroke="midnightblue" d="M364.88,-415.75C345.59,-410.52 323.39,-404.49 305.32,-399.59"/>
<polygon fill="midnightblue" stroke="midnightblue" points="364.1,-419.17 374.67,-418.41 365.94,-412.41 364.1,-419.17"/>
</g>
<!-- Node4&#45;&gt;Node8 -->
<g id="edge18" class="edge">
<title>Node4&#45;&gt;Node8</title>
<path fill="none" stroke="midnightblue" d="M360.43,-428.12C324.3,-426.91 274.59,-422.54 233,-409 213.14,-402.53 192.65,-389.57 179.88,-380.6"/>
<polygon fill="midnightblue" stroke="midnightblue" points="360.62,-431.63 370.71,-428.39 360.81,-424.63 360.62,-431.63"/>
</g>
<!-- Node5&#45;&gt;Node6 -->
<g id="edge5" class="edge">
<title>Node5&#45;&gt;Node6</title>
<path fill="none" stroke="midnightblue" d="M126.57,-478.76C111.06,-483.9 93.48,-489.74 79.13,-494.5"/>
<polygon fill="midnightblue" stroke="midnightblue" points="128.01,-481.96 136.4,-475.49 125.81,-475.32 128.01,-481.96"/>
</g>
<!-- Node7&#45;&gt;Node5 -->
<g id="edge7" class="edge">
<title>Node7&#45;&gt;Node5</title>
<path fill="none" stroke="midnightblue" d="M247.18,-405.67C226.87,-420.95 196.63,-443.7 179.69,-456.45"/>
<polygon fill="midnightblue" stroke="midnightblue" points="249.32,-408.43 255.21,-399.63 245.11,-402.84 249.32,-408.43"/>
</g>
<!-- Node7&#45;&gt;Node8 -->
<g id="edge8" class="edge">
<title>Node7&#45;&gt;Node8</title>
<path fill="none" stroke="midnightblue" d="M222.93,-381.52C214.24,-379.89 205.34,-378.21 197.27,-376.69"/>
<polygon fill="midnightblue" stroke="midnightblue" points="222.48,-385 232.96,-383.41 223.78,-378.12 222.48,-385"/>
</g>
<!-- Node8&#45;&gt;Node6 -->
<g id="edge10" class="edge">
<title>Node8&#45;&gt;Node6</title>
<path fill="none" stroke="midnightblue" d="M158.48,-390.18C149.05,-415.23 129.36,-458.92 99,-485 94.54,-488.83 89.22,-491.94 83.76,-494.45"/>
<polygon fill="midnightblue" stroke="midnightblue" points="161.8,-391.29 161.89,-380.7 155.21,-388.93 161.8,-391.29"/>
</g>
<!-- Node9 -->
<g id="node9" class="node">
<title>Node9</title>
<g id="a_node9"><a xlink:href="group__tools__drafting__operation.html#ga4e20419a6d4623f21c05179fc8b6df95" target="_top" xlink:title="Construct drafting sheet axes.">
<polygon fill="white" stroke="black" points="16,-380.5 16,-399.5 83,-399.5 83,-380.5 16,-380.5"/>
<text text-anchor="middle" x="49.5" y="-387.5" font-family="Helvetica,sans-Serif" font-size="10.00">draft_axes</text>
</a>
</g>
</g>
<!-- Node8&#45;&gt;Node9 -->
<g id="edge9" class="edge">
<title>Node8&#45;&gt;Node9</title>
<path fill="none" stroke="midnightblue" d="M124.83,-377.67C111.21,-379.93 96.17,-382.42 83.2,-384.57"/>
<polygon fill="midnightblue" stroke="midnightblue" points="125.62,-381.08 134.92,-375.99 124.48,-374.18 125.62,-381.08"/>
</g>
<!-- Node8&#45;&gt;Node10 -->
<g id="edge11" class="edge">
<title>Node8&#45;&gt;Node10</title>
<path fill="none" stroke="midnightblue" d="M141.12,-356.1C128.78,-348.7 113.34,-339.89 99,-333 91.99,-329.63 84.22,-326.38 76.98,-323.55"/>
<polygon fill="midnightblue" stroke="midnightblue" points="139.52,-359.22 149.88,-361.43 143.16,-353.24 139.52,-359.22"/>
</g>
<!-- Node8&#45;&gt;Node11 -->
<g id="edge12" class="edge">
<title>Node8&#45;&gt;Node11</title>
<path fill="none" stroke="midnightblue" d="M153.07,-352.77C141.15,-335.8 121.41,-310.81 99,-295 93.68,-291.25 87.52,-288.1 81.4,-285.52"/>
<polygon fill="midnightblue" stroke="midnightblue" points="150.33,-354.97 158.85,-361.26 156.11,-351.03 150.33,-354.97"/>
</g>
<!-- Node8&#45;&gt;Node12 -->
<g id="edge13" class="edge">
<title>Node8&#45;&gt;Node12</title>
<path fill="none" stroke="midnightblue" d="M158.48,-351.82C149.05,-326.77 129.36,-283.08 99,-257 94.54,-253.17 89.22,-250.06 83.76,-247.55"/>
<polygon fill="midnightblue" stroke="midnightblue" points="155.21,-353.07 161.89,-361.3 161.8,-350.71 155.21,-353.07"/>
</g>
<!-- Node8&#45;&gt;Node13 -->
<g id="edge14" class="edge">
<title>Node8&#45;&gt;Node13</title>
<path fill="none" stroke="midnightblue" d="M161.54,-351.48C154.92,-319.6 137.53,-256.16 99,-219 95.09,-215.23 90.36,-212.19 85.39,-209.73"/>
<polygon fill="midnightblue" stroke="midnightblue" points="158.11,-352.2 163.45,-361.35 164.99,-350.87 158.11,-352.2"/>
</g>
<!-- Node14 -->
<g id="node14" class="node">
<title>Node14</title>
<g id="a_node14"><a xlink:href="group__tools__drafting__primitive.html#gada1e771ce89ef86b6241c43dc01bf62d" target="_top" xlink:title="Draft a polygon with configurable style.">
<polygon fill="white" stroke="black" points="8,-342.5 8,-361.5 91,-361.5 91,-342.5 8,-342.5"/>
<text text-anchor="middle" x="49.5" y="-349.5" font-family="Helvetica,sans-Serif" font-size="10.00">draft_polygon</text>
</a>
</g>
</g>
<!-- Node8&#45;&gt;Node14 -->
<g id="edge15" class="edge">
<title>Node8&#45;&gt;Node14</title>
<path fill="none" stroke="midnightblue" d="M124.8,-364.33C113.89,-362.52 102.08,-360.56 91.15,-358.74"/>
<polygon fill="midnightblue" stroke="midnightblue" points="124.48,-367.82 134.92,-366.01 125.62,-360.92 124.48,-367.82"/>
</g>
<!-- Node15 -->
<g id="node15" class="node">
<title>Node15</title>
<g id="a_node15"><a xlink:href="group__tools__drafting__primitive.html#ga20eb57e9d25186784df7428089e3a2ae" target="_top" xlink:title="Draft a rectangle with configurable style.">
<polygon fill="white" stroke="black" points="4.5,-456.5 4.5,-475.5 94.5,-475.5 94.5,-456.5 4.5,-456.5"/>
<text text-anchor="middle" x="49.5" y="-463.5" font-family="Helvetica,sans-Serif" font-size="10.00">draft_rectangle</text>
</a>
</g>
</g>
<!-- Node8&#45;&gt;Node15 -->
<g id="edge16" class="edge">
<title>Node8&#45;&gt;Node15</title>
<path fill="none" stroke="midnightblue" d="M153.07,-389.23C141.15,-406.2 121.41,-431.19 99,-447 93.68,-450.75 87.52,-453.9 81.4,-456.48"/>
<polygon fill="midnightblue" stroke="midnightblue" points="156.11,-390.97 158.85,-380.74 150.33,-387.03 156.11,-390.97"/>
</g>
<!-- Node16 -->
<g id="node16" class="node">
<title>Node16</title>
<g id="a_node16"><a xlink:href="group__tools__drafting__operation.html#ga49aac81a903cd453ea9cadc85e84e414" target="_top" xlink:title="Construct a drafting sheet ruler.">
<polygon fill="white" stroke="black" points="16,-418.5 16,-437.5 83,-437.5 83,-418.5 16,-418.5"/>
<text text-anchor="middle" x="49.5" y="-425.5" font-family="Helvetica,sans-Serif" font-size="10.00">draft_ruler</text>
</a>
</g>
</g>
<!-- Node8&#45;&gt;Node16 -->
<g id="edge17" class="edge">
<title>Node8&#45;&gt;Node16</title>
<path fill="none" stroke="midnightblue" d="M141.12,-385.9C128.78,-393.3 113.34,-402.11 99,-409 91.99,-412.37 84.22,-415.62 76.98,-418.45"/>
<polygon fill="midnightblue" stroke="midnightblue" points="143.16,-388.76 149.88,-380.57 139.52,-382.78 143.16,-388.76"/>
</g>
<!-- Node18 -->
<g id="node18" class="node">
<title>Node18</title>
<g id="a_node18"><a xlink:href="group__tools__polytope.html#ga530c86f9c90ce074aa7adc29834f0539" target="_top" xlink:title="Assemble a polytope skeletal frame using child objects.">
<polygon fill="white" stroke="black" points="364,-152.5 364,-171.5 458,-171.5 458,-152.5 364,-152.5"/>
<text text-anchor="middle" x="411" y="-159.5" font-family="Helvetica,sans-Serif" font-size="10.00">polytope_frame</text>
</a>
</g>
</g>
<!-- Node17&#45;&gt;Node18 -->
<g id="edge27" class="edge">
<title>Node17&#45;&gt;Node18</title>
<path fill="none" stroke="midnightblue" d="M519.15,-162C500.52,-162 477.81,-162 458.1,-162"/>
<polygon fill="midnightblue" stroke="midnightblue" points="519.32,-165.5 529.32,-162 519.32,-158.5 519.32,-165.5"/>
</g>
<!-- Node19 -->
<g id="node19" class="node">
<title>Node19</title>
<g id="a_node19"><a xlink:href="group__tools__polytope.html#ga00b574079f19251be7281151d11db8fa" target="_top" xlink:title="Label the vertices, paths, and edges of a polytope.">
<polygon fill="white" stroke="black" points="360,-114.5 360,-133.5 462,-133.5 462,-114.5 360,-114.5"/>
<text text-anchor="middle" x="411" y="-121.5" font-family="Helvetica,sans-Serif" font-size="10.00">polytope_number</text>
</a>
</g>
</g>
<!-- Node17&#45;&gt;Node19 -->
<g id="edge28" class="edge">
<title>Node17&#45;&gt;Node19</title>
<path fill="none" stroke="midnightblue" d="M519.41,-152.25C497.57,-146.5 470.05,-139.27 448.34,-133.56"/>
<polygon fill="midnightblue" stroke="midnightblue" points="518.76,-155.69 529.32,-154.85 520.54,-148.92 518.76,-155.69"/>
</g>
<!-- Node21 -->
<g id="node21" class="node">
<title>Node21</title>
<g id="a_node21"><a xlink:href="group__parts__3d__bearing__bearing__linear__rod.html#ga48399d5e708b4894494c69b2d1e88e26" target="_top" xlink:title="Transform 2d or 3d shape into a linear rod ball or sled bearing.">
<polygon fill="white" stroke="black" points="341,-76.5 341,-95.5 481,-95.5 481,-76.5 341,-76.5"/>
<text text-anchor="middle" x="411" y="-83.5" font-family="Helvetica,sans-Serif" font-size="10.00">make_bearing_linear_rod</text>
</a>
</g>
</g>
<!-- Node20&#45;&gt;Node21 -->
<g id="edge30" class="edge">
<title>Node20&#45;&gt;Node21</title>
<path fill="none" stroke="midnightblue" d="M506.51,-86C498.32,-86 489.69,-86 481.13,-86"/>
<polygon fill="midnightblue" stroke="midnightblue" points="506.63,-89.5 516.63,-86 506.63,-82.5 506.63,-89.5"/>
</g>
<!-- Node22 -->
<g id="node22" class="node">
<title>Node22</title>
<g id="a_node22"><a xlink:href="group__shapes__basic__2d.html#ga7452bf5414a3677ec806a31aed6b61dd" target="_top" xlink:title="A two&#45;dimensional star.">
<polygon fill="white" stroke="black" points="387.5,-38.5 387.5,-57.5 434.5,-57.5 434.5,-38.5 387.5,-38.5"/>
<text text-anchor="middle" x="411" y="-45.5" font-family="Helvetica,sans-Serif" font-size="10.00">star2d</text>
</a>
</g>
</g>
<!-- Node20&#45;&gt;Node22 -->
<g id="edge31" class="edge">
<title>Node20&#45;&gt;Node22</title>
<path fill="none" stroke="midnightblue" d="M510.3,-73.85C485.13,-67.23 455.09,-59.33 434.9,-54.02"/>
<polygon fill="midnightblue" stroke="midnightblue" points="509.48,-77.25 520.04,-76.41 511.26,-70.48 509.48,-77.25"/>
</g>
<!-- Node23 -->
<g id="node23" class="node">
<title>Node23</title>
<g id="a_node23"><a xlink:href="group__shapes__basic__3d.html#gab99dacd3036b965579d68b1d3b7ee2d8" target="_top" xlink:title="A three&#45;dimensional star.">
<polygon fill="white" stroke="black" points="387.5,-0.5 387.5,-19.5 434.5,-19.5 434.5,-0.5 387.5,-0.5"/>
<text text-anchor="middle" x="411" y="-7.5" font-family="Helvetica,sans-Serif" font-size="10.00">star3d</text>
</a>
</g>
</g>
<!-- Node20&#45;&gt;Node23 -->
<g id="edge32" class="edge">
<title>Node20&#45;&gt;Node23</title>
<path fill="none" stroke="midnightblue" d="M524.08,-71.63C521.62,-70.17 519.23,-68.63 517,-67 498.21,-53.29 500.95,-40.97 481,-29 466.83,-20.5 448.76,-15.7 434.67,-13.05"/>
<polygon fill="midnightblue" stroke="midnightblue" points="522.67,-74.85 533.13,-76.5 525.98,-68.68 522.67,-74.85"/>
</g>
</g>
</svg>
