<?xml version="1.0" encoding="UTF-8" standalone="no"?>
<!DOCTYPE svg PUBLIC "-//W3C//DTD SVG 1.1//EN"
 "http://www.w3.org/Graphics/SVG/1.1/DTD/svg11.dtd">
<!-- Generated by graphviz version 2.43.0 (0)
 -->
<!-- Title: repeat_radial Pages: 1 -->
<svg width="265pt" height="104pt"
 viewBox="0.00 0.00 265.00 104.00" xmlns="http://www.w3.org/2000/svg" xmlns:xlink="http://www.w3.org/1999/xlink">
<g id="graph0" class="graph" transform="scale(1 1) rotate(0) translate(4 100)">
<title>repeat_radial</title>
<polygon fill="white" stroke="transparent" points="-4,4 -4,-100 261,-100 261,4 -4,4"/>
<!-- Node1 -->
<g id="node1" class="node">
<title>Node1</title>
<g id="a_node1"><a xlink:title="Distribute copies of a 2d or 3d shape equally about a z&#45;axis radius.">
<polygon fill="#bfbfbf" stroke="black" points="176,-38.5 176,-57.5 257,-57.5 257,-38.5 176,-38.5"/>
<text text-anchor="middle" x="216.5" y="-45.5" font-family="Helvetica,sans-Serif" font-size="10.00">repeat_radial</text>
</a>
</g>
</g>
<!-- Node2 -->
<g id="node2" class="node">
<title>Node2</title>
<g id="a_node2"><a xlink:href="group__parts__3d__bearing__bearing__linear__rod.html#ga48399d5e708b4894494c69b2d1e88e26" target="_top" xlink:title="Transform 2d or 3d shape into a linear rod ball or sled bearing.">
<polygon fill="white" stroke="black" points="0,-76.5 0,-95.5 140,-95.5 140,-76.5 0,-76.5"/>
<text text-anchor="middle" x="70" y="-83.5" font-family="Helvetica,sans-Serif" font-size="10.00">make_bearing_linear_rod</text>
</a>
</g>
</g>
<!-- Node1&#45;&gt;Node2 -->
<g id="edge1" class="edge">
<title>Node1&#45;&gt;Node2</title>
<path fill="none" stroke="midnightblue" d="M169.17,-60.18C149.11,-65.46 125.97,-71.54 107.2,-76.48"/>
<polygon fill="midnightblue" stroke="midnightblue" points="170.26,-63.52 179.04,-57.59 168.48,-56.75 170.26,-63.52"/>
</g>
<!-- Node3 -->
<g id="node3" class="node">
<title>Node3</title>
<g id="a_node3"><a xlink:href="group__shapes__basic__2d.html#ga7452bf5414a3677ec806a31aed6b61dd" target="_top" xlink:title="A two&#45;dimensional star.">
<polygon fill="white" stroke="black" points="46.5,-38.5 46.5,-57.5 93.5,-57.5 93.5,-38.5 46.5,-38.5"/>
<text text-anchor="middle" x="70" y="-45.5" font-family="Helvetica,sans-Serif" font-size="10.00">star2d</text>
</a>
</g>
</g>
<!-- Node1&#45;&gt;Node3 -->
<g id="edge2" class="edge">
<title>Node1&#45;&gt;Node3</title>
<path fill="none" stroke="midnightblue" d="M165.43,-48C141,-48 112.83,-48 93.66,-48"/>
<polygon fill="midnightblue" stroke="midnightblue" points="165.63,-51.5 175.63,-48 165.63,-44.5 165.63,-51.5"/>
</g>
<!-- Node4 -->
<g id="node4" class="node">
<title>Node4</title>
<g id="a_node4"><a xlink:href="group__shapes__basic__3d.html#gab99dacd3036b965579d68b1d3b7ee2d8" target="_top" xlink:title="A three&#45;dimensional star.">
<polygon fill="white" stroke="black" points="46.5,-0.5 46.5,-19.5 93.5,-19.5 93.5,-0.5 46.5,-0.5"/>
<text text-anchor="middle" x="70" y="-7.5" font-family="Helvetica,sans-Serif" font-size="10.00">star3d</text>
</a>
</g>
</g>
<!-- Node1&#45;&gt;Node4 -->
<g id="edge3" class="edge">
<title>Node1&#45;&gt;Node4</title>
<path fill="none" stroke="midnightblue" d="M169.3,-35.85C144.13,-29.23 114.09,-21.33 93.9,-16.02"/>
<polygon fill="midnightblue" stroke="midnightblue" points="168.48,-39.25 179.04,-38.41 170.26,-32.48 168.48,-39.25"/>
</g>
</g>
</svg>
