<?xml version="1.0" encoding="UTF-8" standalone="no"?>
<!DOCTYPE svg PUBLIC "-//W3C//DTD SVG 1.1//EN"
 "http://www.w3.org/Graphics/SVG/1.1/DTD/svg11.dtd">
<!-- Generated by graphviz version 2.43.0 (0)
 -->
<!-- Title: map_get_value Pages: 1 -->
<svg width="476pt" height="199pt"
 viewBox="0.00 0.00 476.00 199.00" xmlns="http://www.w3.org/2000/svg" xmlns:xlink="http://www.w3.org/1999/xlink">
<g id="graph0" class="graph" transform="scale(1 1) rotate(0) translate(4 195)">
<title>map_get_value</title>
<polygon fill="white" stroke="transparent" points="-4,4 -4,-195 472,-195 472,4 -4,4"/>
<!-- Node1 -->
<g id="node1" class="node">
<title>Node1</title>
<g id="a_node1"><a xlink:title="Get the map value associated with a key.">
<polygon fill="#bfbfbf" stroke="black" points="376,-57.5 376,-76.5 468,-76.5 468,-57.5 376,-57.5"/>
<text text-anchor="middle" x="422" y="-64.5" font-family="Helvetica,sans-Serif" font-size="10.00">map_get_value</text>
</a>
</g>
</g>
<!-- Node2 -->
<g id="node2" class="node">
<title>Node2</title>
<g id="a_node2"><a xlink:href="group__tools__drafting__operation.html#gaae4b7ed59444eb6f6c0ae47bd36e1e9b" target="_top" xlink:title="Construct a text table that is populated by rows and columns.">
<polygon fill="white" stroke="black" points="268.5,-114.5 268.5,-133.5 337.5,-133.5 337.5,-114.5 268.5,-114.5"/>
<text text-anchor="middle" x="303" y="-121.5" font-family="Helvetica,sans-Serif" font-size="10.00">draft_table</text>
</a>
</g>
</g>
<!-- Node1&#45;&gt;Node2 -->
<g id="edge1" class="edge">
<title>Node1&#45;&gt;Node2</title>
<path fill="none" stroke="midnightblue" d="M392.19,-81.04C370.87,-91.42 342.4,-105.29 323.65,-114.43"/>
<polygon fill="midnightblue" stroke="midnightblue" points="393.96,-84.07 401.42,-76.54 390.89,-77.77 393.96,-84.07"/>
</g>
<!-- Node8 -->
<g id="node8" class="node">
<title>Node8</title>
<g id="a_node8"><a xlink:href="group__tools__drafting__operation.html#gabd9d0d4e3819d3bdec5e3649c8ad2c79" target="_top" xlink:title="Construct a text table that is populated by predefined zones.">
<polygon fill="white" stroke="black" points="266,-76.5 266,-95.5 340,-95.5 340,-76.5 266,-76.5"/>
<text text-anchor="middle" x="303" y="-83.5" font-family="Helvetica,sans-Serif" font-size="10.00">draft_ztable</text>
</a>
</g>
</g>
<!-- Node1&#45;&gt;Node8 -->
<g id="edge7" class="edge">
<title>Node1&#45;&gt;Node8</title>
<path fill="none" stroke="midnightblue" d="M365.65,-75.99C356.95,-77.4 348.16,-78.83 340.05,-80.15"/>
<polygon fill="midnightblue" stroke="midnightblue" points="366.46,-79.4 375.76,-74.35 365.33,-72.49 366.46,-79.4"/>
</g>
<!-- Node10 -->
<g id="node10" class="node">
<title>Node10</title>
<g id="a_node10"><a xlink:href="group__datatypes__map.html#ga680cb75c8d9f3769064128e9c3d5800e" target="_top" xlink:title="Dump each map entry to the console.">
<polygon fill="white" stroke="black" points="267.5,-38.5 267.5,-57.5 338.5,-57.5 338.5,-38.5 267.5,-38.5"/>
<text text-anchor="middle" x="303" y="-45.5" font-family="Helvetica,sans-Serif" font-size="10.00">map_dump</text>
</a>
</g>
</g>
<!-- Node1&#45;&gt;Node10 -->
<g id="edge9" class="edge">
<title>Node1&#45;&gt;Node10</title>
<path fill="none" stroke="midnightblue" d="M365.79,-58.03C356.53,-56.53 347.15,-55.01 338.59,-53.62"/>
<polygon fill="midnightblue" stroke="midnightblue" points="365.33,-61.51 375.76,-59.65 366.46,-54.6 365.33,-61.51"/>
</g>
<!-- Node11 -->
<g id="node11" class="node">
<title>Node11</title>
<g id="a_node11"><a xlink:href="group__datatypes__map.html#ga1ee3a7b76638ba11f1420da1dec59c8d" target="_top" xlink:title="Write formatted map entries to the console.">
<polygon fill="white" stroke="black" points="269,-0.5 269,-19.5 337,-19.5 337,-0.5 269,-0.5"/>
<text text-anchor="middle" x="303" y="-7.5" font-family="Helvetica,sans-Serif" font-size="10.00">map_write</text>
</a>
</g>
</g>
<!-- Node1&#45;&gt;Node11 -->
<g id="edge10" class="edge">
<title>Node1&#45;&gt;Node11</title>
<path fill="none" stroke="midnightblue" d="M392.19,-52.96C370.87,-42.58 342.4,-28.71 323.65,-19.57"/>
<polygon fill="midnightblue" stroke="midnightblue" points="390.89,-56.23 401.42,-57.46 393.96,-49.93 390.89,-56.23"/>
</g>
<!-- Node3 -->
<g id="node3" class="node">
<title>Node3</title>
<g id="a_node3"><a xlink:href="group__tools__drafting__operation.html#gac1b780633ac5e2874a8a00177d98b305" target="_top" xlink:title="Construct a text note with optional heading and boarder.">
<polygon fill="white" stroke="black" points="149.5,-114.5 149.5,-133.5 215.5,-133.5 215.5,-114.5 149.5,-114.5"/>
<text text-anchor="middle" x="182.5" y="-121.5" font-family="Helvetica,sans-Serif" font-size="10.00">draft_note</text>
</a>
</g>
</g>
<!-- Node2&#45;&gt;Node3 -->
<g id="edge2" class="edge">
<title>Node2&#45;&gt;Node3</title>
<path fill="none" stroke="midnightblue" d="M258.33,-124C244.18,-124 228.74,-124 215.59,-124"/>
<polygon fill="midnightblue" stroke="midnightblue" points="258.36,-127.5 268.36,-124 258.36,-120.5 258.36,-127.5"/>
</g>
<!-- Node4 -->
<g id="node4" class="node">
<title>Node4</title>
<g id="a_node4"><a xlink:href="group__tools__drafting__dimension.html#ga6b8e17d22ac4a95d25a90be8a74c0689" target="_top" xlink:title="Construct a angular dimension arc.">
<polygon fill="white" stroke="black" points="2,-171.5 2,-190.5 97,-190.5 97,-171.5 2,-171.5"/>
<text text-anchor="middle" x="49.5" y="-178.5" font-family="Helvetica,sans-Serif" font-size="10.00">draft_dim_angle</text>
</a>
</g>
</g>
<!-- Node3&#45;&gt;Node4 -->
<g id="edge3" class="edge">
<title>Node3&#45;&gt;Node4</title>
<path fill="none" stroke="midnightblue" d="M152.43,-137.89C136.71,-145.28 116.9,-154.38 99,-162 91.51,-165.19 83.29,-168.48 75.79,-171.42"/>
<polygon fill="midnightblue" stroke="midnightblue" points="154.09,-140.98 161.64,-133.54 151.1,-134.65 154.09,-140.98"/>
</g>
<!-- Node5 -->
<g id="node5" class="node">
<title>Node5</title>
<g id="a_node5"><a xlink:href="group__tools__drafting__dimension.html#ga5c4915c4c4464c5cdaefd501c2de261d" target="_top" xlink:title="Construct a dimension leader line at a point.">
<polygon fill="white" stroke="black" points="0,-133.5 0,-152.5 99,-152.5 99,-133.5 0,-133.5"/>
<text text-anchor="middle" x="49.5" y="-140.5" font-family="Helvetica,sans-Serif" font-size="10.00">draft_dim_leader</text>
</a>
</g>
</g>
<!-- Node3&#45;&gt;Node5 -->
<g id="edge4" class="edge">
<title>Node3&#45;&gt;Node5</title>
<path fill="none" stroke="midnightblue" d="M139.48,-130.09C126.61,-131.96 112.34,-134.03 99.08,-135.95"/>
<polygon fill="midnightblue" stroke="midnightblue" points="140.06,-133.55 149.45,-128.65 139.05,-126.62 140.06,-133.55"/>
</g>
<!-- Node6 -->
<g id="node6" class="node">
<title>Node6</title>
<g id="a_node6"><a xlink:href="group__tools__drafting__dimension.html#ga27a35e94597435a74e22d76789e9be5e" target="_top" xlink:title="Construct a dimension line between two points.">
<polygon fill="white" stroke="black" points="6.5,-95.5 6.5,-114.5 92.5,-114.5 92.5,-95.5 6.5,-95.5"/>
<text text-anchor="middle" x="49.5" y="-102.5" font-family="Helvetica,sans-Serif" font-size="10.00">draft_dim_line</text>
</a>
</g>
</g>
<!-- Node3&#45;&gt;Node6 -->
<g id="edge5" class="edge">
<title>Node3&#45;&gt;Node6</title>
<path fill="none" stroke="midnightblue" d="M139.43,-117.9C124.45,-115.73 107.59,-113.28 92.61,-111.11"/>
<polygon fill="midnightblue" stroke="midnightblue" points="139.05,-121.38 149.45,-119.35 140.06,-114.45 139.05,-121.38"/>
</g>
<!-- Node7 -->
<g id="node7" class="node">
<title>Node7</title>
<g id="a_node7"><a xlink:href="group__tools__drafting__dimension.html#gaef1a8150a8ef7be88e086fb3dbab64a9" target="_top" xlink:title="Construct a radial dimension line.">
<polygon fill="white" stroke="black" points="0.5,-57.5 0.5,-76.5 98.5,-76.5 98.5,-57.5 0.5,-57.5"/>
<text text-anchor="middle" x="49.5" y="-64.5" font-family="Helvetica,sans-Serif" font-size="10.00">draft_dim_radius</text>
</a>
</g>
</g>
<!-- Node3&#45;&gt;Node7 -->
<g id="edge6" class="edge">
<title>Node3&#45;&gt;Node7</title>
<path fill="none" stroke="midnightblue" d="M147.18,-110.42C143.05,-108.66 138.91,-106.83 135,-105 118.61,-97.35 115.45,-93.53 99,-86 91.76,-82.69 83.77,-79.41 76.4,-76.53"/>
<polygon fill="midnightblue" stroke="midnightblue" points="146.11,-113.77 156.69,-114.39 148.81,-107.31 146.11,-113.77"/>
</g>
<!-- Node9 -->
<g id="node9" class="node">
<title>Node9</title>
<g id="a_node9"><a xlink:href="group__tools__drafting__operation.html#ga172b76b2027c863e672bc7a84dabea5e" target="_top" xlink:title="Construct a sheet title block.">
<polygon fill="white" stroke="black" points="135,-76.5 135,-95.5 230,-95.5 230,-76.5 135,-76.5"/>
<text text-anchor="middle" x="182.5" y="-83.5" font-family="Helvetica,sans-Serif" font-size="10.00">draft_title_block</text>
</a>
</g>
</g>
<!-- Node8&#45;&gt;Node9 -->
<g id="edge8" class="edge">
<title>Node8&#45;&gt;Node9</title>
<path fill="none" stroke="midnightblue" d="M255.57,-86C247.3,-86 238.69,-86 230.41,-86"/>
<polygon fill="midnightblue" stroke="midnightblue" points="255.8,-89.5 265.8,-86 255.8,-82.5 255.8,-89.5"/>
</g>
</g>
</svg>
