<?xml version="1.0" encoding="UTF-8" standalone="no"?>
<!DOCTYPE svg PUBLIC "-//W3C//DTD SVG 1.1//EN"
 "http://www.w3.org/Graphics/SVG/1.1/DTD/svg11.dtd">
<!-- Generated by graphviz version 2.43.0 (0)
 -->
<!-- Title: second Pages: 1 -->
<svg width="534pt" height="446pt"
 viewBox="0.00 0.00 534.00 446.00" xmlns="http://www.w3.org/2000/svg" xmlns:xlink="http://www.w3.org/1999/xlink">
<g id="graph0" class="graph" transform="scale(1 1) rotate(0) translate(4 442)">
<title>second</title>
<polygon fill="white" stroke="transparent" points="-4,4 -4,-442 530,-442 530,4 -4,4"/>
<!-- Node1 -->
<g id="node1" class="node">
<title>Node1</title>
<g id="a_node1"><a xlink:title="Return the second element of an iterable value.">
<polygon fill="#bfbfbf" stroke="black" points="475,-209.5 475,-228.5 526,-228.5 526,-209.5 475,-209.5"/>
<text text-anchor="middle" x="500.5" y="-216.5" font-family="Helvetica,sans-Serif" font-size="10.00">second</text>
</a>
</g>
</g>
<!-- Node2 -->
<g id="node2" class="node">
<title>Node2</title>
<g id="a_node2"><a xlink:href="group__tools__drafting__operation.html#ga4e20419a6d4623f21c05179fc8b6df95" target="_top" xlink:title="Construct drafting sheet axes.">
<polygon fill="white" stroke="black" points="348.5,-418.5 348.5,-437.5 415.5,-437.5 415.5,-418.5 348.5,-418.5"/>
<text text-anchor="middle" x="382" y="-425.5" font-family="Helvetica,sans-Serif" font-size="10.00">draft_axes</text>
</a>
</g>
</g>
<!-- Node1&#45;&gt;Node2 -->
<g id="edge1" class="edge">
<title>Node1&#45;&gt;Node2</title>
<path fill="none" stroke="midnightblue" d="M498.81,-239.17C496.42,-277.51 485.8,-361.31 439,-409 432.67,-415.45 424.08,-419.71 415.52,-422.52"/>
<polygon fill="midnightblue" stroke="midnightblue" points="502.33,-238.99 499.32,-228.83 495.34,-238.64 502.33,-238.99"/>
</g>
<!-- Node3 -->
<g id="node3" class="node">
<title>Node3</title>
<g id="a_node3"><a xlink:href="group__tools__drafting__dimension.html#ga6b8e17d22ac4a95d25a90be8a74c0689" target="_top" xlink:title="Construct a angular dimension arc.">
<polygon fill="white" stroke="black" points="334.5,-380.5 334.5,-399.5 429.5,-399.5 429.5,-380.5 334.5,-380.5"/>
<text text-anchor="middle" x="382" y="-387.5" font-family="Helvetica,sans-Serif" font-size="10.00">draft_dim_angle</text>
</a>
</g>
</g>
<!-- Node1&#45;&gt;Node3 -->
<g id="edge2" class="edge">
<title>Node1&#45;&gt;Node3</title>
<path fill="none" stroke="midnightblue" d="M497,-238.69C491.9,-270.82 477.32,-334.61 439,-371 434.91,-374.89 429.99,-377.98 424.78,-380.45"/>
<polygon fill="midnightblue" stroke="midnightblue" points="500.47,-239.13 498.43,-228.74 493.54,-238.14 500.47,-239.13"/>
</g>
<!-- Node4 -->
<g id="node4" class="node">
<title>Node4</title>
<g id="a_node4"><a xlink:href="group__tools__drafting__dimension.html#ga27a35e94597435a74e22d76789e9be5e" target="_top" xlink:title="Construct a dimension line between two points.">
<polygon fill="white" stroke="black" points="339,-342.5 339,-361.5 425,-361.5 425,-342.5 339,-342.5"/>
<text text-anchor="middle" x="382" y="-349.5" font-family="Helvetica,sans-Serif" font-size="10.00">draft_dim_line</text>
</a>
</g>
</g>
<!-- Node1&#45;&gt;Node4 -->
<g id="edge3" class="edge">
<title>Node1&#45;&gt;Node4</title>
<path fill="none" stroke="midnightblue" d="M494.02,-238.72C486.01,-264.04 468.73,-307.7 439,-333 434.46,-336.86 429.11,-339.94 423.54,-342.41"/>
<polygon fill="midnightblue" stroke="midnightblue" points="497.48,-239.39 496.98,-228.81 490.77,-237.39 497.48,-239.39"/>
</g>
<!-- Node5 -->
<g id="node5" class="node">
<title>Node5</title>
<g id="a_node5"><a xlink:href="group__tools__drafting__dimension.html#gaef1a8150a8ef7be88e086fb3dbab64a9" target="_top" xlink:title="Construct a radial dimension line.">
<polygon fill="white" stroke="black" points="333,-304.5 333,-323.5 431,-323.5 431,-304.5 333,-304.5"/>
<text text-anchor="middle" x="382" y="-311.5" font-family="Helvetica,sans-Serif" font-size="10.00">draft_dim_radius</text>
</a>
</g>
</g>
<!-- Node1&#45;&gt;Node5 -->
<g id="edge4" class="edge">
<title>Node1&#45;&gt;Node5</title>
<path fill="none" stroke="midnightblue" d="M488.93,-237.7C478.35,-254.85 460.57,-279.84 439,-295 433.54,-298.84 427.24,-301.95 420.89,-304.46"/>
<polygon fill="midnightblue" stroke="midnightblue" points="492.22,-239.02 494.31,-228.63 486.2,-235.45 492.22,-239.02"/>
</g>
<!-- Node6 -->
<g id="node6" class="node">
<title>Node6</title>
<g id="a_node6"><a xlink:href="group__tools__drafting__primitive.html#gada1e771ce89ef86b6241c43dc01bf62d" target="_top" xlink:title="Draft a polygon with configurable style.">
<polygon fill="white" stroke="black" points="340.5,-266.5 340.5,-285.5 423.5,-285.5 423.5,-266.5 340.5,-266.5"/>
<text text-anchor="middle" x="382" y="-273.5" font-family="Helvetica,sans-Serif" font-size="10.00">draft_polygon</text>
</a>
</g>
</g>
<!-- Node1&#45;&gt;Node6 -->
<g id="edge5" class="edge">
<title>Node1&#45;&gt;Node6</title>
<path fill="none" stroke="midnightblue" d="M474.18,-233.5C463.45,-239.47 450.74,-246.3 439,-252 428.53,-257.08 416.72,-262.23 406.65,-266.45"/>
<polygon fill="midnightblue" stroke="midnightblue" points="476.03,-236.48 483.03,-228.53 472.6,-230.38 476.03,-236.48"/>
</g>
<!-- Node7 -->
<g id="node7" class="node">
<title>Node7</title>
<g id="a_node7"><a xlink:href="group__tools__extrude.html#gab2442cfaf1ad44d6e295ab0979d9e03d" target="_top" xlink:title="Linearly extrude a 2d shape with uniformly&#45;spaced profile scaling.">
<polygon fill="white" stroke="black" points="327.5,-190.5 327.5,-209.5 436.5,-209.5 436.5,-190.5 327.5,-190.5"/>
<text text-anchor="middle" x="382" y="-197.5" font-family="Helvetica,sans-Serif" font-size="10.00">extrude_linear_uss</text>
</a>
</g>
</g>
<!-- Node1&#45;&gt;Node7 -->
<g id="edge6" class="edge">
<title>Node1&#45;&gt;Node7</title>
<path fill="none" stroke="midnightblue" d="M464.92,-213.36C456.11,-211.92 446.43,-210.35 436.91,-208.79"/>
<polygon fill="midnightblue" stroke="midnightblue" points="464.36,-216.82 474.79,-214.97 465.49,-209.91 464.36,-216.82"/>
</g>
<!-- Node10 -->
<g id="node10" class="node">
<title>Node10</title>
<g id="a_node10"><a xlink:href="group__parts__3d__computer__pci__bracket.html#gaf56631cf80d8e5f0b77736b17b94ecd9" target="_top" xlink:title="PCI slot cover and adapter card bracket generator.">
<polygon fill="white" stroke="black" points="34,-247.5 34,-266.5 106,-266.5 106,-247.5 34,-247.5"/>
<text text-anchor="middle" x="70" y="-254.5" font-family="Helvetica,sans-Serif" font-size="10.00">pci_bracket</text>
</a>
</g>
</g>
<!-- Node1&#45;&gt;Node10 -->
<g id="edge12" class="edge">
<title>Node1&#45;&gt;Node10</title>
<path fill="none" stroke="midnightblue" d="M464.69,-222.18C422.95,-225.97 350.87,-232.51 289,-238 224.48,-243.72 149.2,-250.25 106.12,-253.97"/>
<polygon fill="midnightblue" stroke="midnightblue" points="465.23,-225.64 474.87,-221.25 464.6,-218.67 465.23,-225.64"/>
</g>
<!-- Node11 -->
<g id="node11" class="node">
<title>Node11</title>
<g id="a_node11"><a xlink:href="group__parts__3d__enclosure__project__box__rectangle.html#ga6a5d093d732e65556c46252220f2c4b6" target="_top" xlink:title="A rectangular box maker for project boxes, enclosures and housings.">
<polygon fill="white" stroke="black" points="7.5,-171.5 7.5,-190.5 132.5,-190.5 132.5,-171.5 7.5,-171.5"/>
<text text-anchor="middle" x="70" y="-178.5" font-family="Helvetica,sans-Serif" font-size="10.00">project_box_rectangle</text>
</a>
</g>
</g>
<!-- Node1&#45;&gt;Node11 -->
<g id="edge15" class="edge">
<title>Node1&#45;&gt;Node11</title>
<path fill="none" stroke="midnightblue" d="M480.23,-202.95C468.97,-194.64 454.05,-185.33 439,-181 332.33,-150.28 200.94,-161.26 127.52,-171.49"/>
<polygon fill="midnightblue" stroke="midnightblue" points="478.36,-205.93 488.4,-209.29 482.65,-200.4 478.36,-205.93"/>
</g>
<!-- Node12 -->
<g id="node12" class="node">
<title>Node12</title>
<g id="a_node12"><a xlink:href="group__tools__polytope.html#ga530c86f9c90ce074aa7adc29834f0539" target="_top" xlink:title="Assemble a polytope skeletal frame using child objects.">
<polygon fill="white" stroke="black" points="335,-114.5 335,-133.5 429,-133.5 429,-114.5 335,-114.5"/>
<text text-anchor="middle" x="382" y="-121.5" font-family="Helvetica,sans-Serif" font-size="10.00">polytope_frame</text>
</a>
</g>
</g>
<!-- Node1&#45;&gt;Node12 -->
<g id="edge13" class="edge">
<title>Node1&#45;&gt;Node12</title>
<path fill="none" stroke="midnightblue" d="M487.68,-200.9C476.66,-185.18 458.94,-162.69 439,-148 431,-142.1 421.32,-137.3 412.28,-133.58"/>
<polygon fill="midnightblue" stroke="midnightblue" points="484.85,-202.96 493.37,-209.26 490.64,-199.02 484.85,-202.96"/>
</g>
<!-- Node13 -->
<g id="node13" class="node">
<title>Node13</title>
<g id="a_node13"><a xlink:href="group__tools__polytope.html#ga00b574079f19251be7281151d11db8fa" target="_top" xlink:title="Label the vertices, paths, and edges of a polytope.">
<polygon fill="white" stroke="black" points="331,-76.5 331,-95.5 433,-95.5 433,-76.5 331,-76.5"/>
<text text-anchor="middle" x="382" y="-83.5" font-family="Helvetica,sans-Serif" font-size="10.00">polytope_number</text>
</a>
</g>
</g>
<!-- Node1&#45;&gt;Node13 -->
<g id="edge14" class="edge">
<title>Node1&#45;&gt;Node13</title>
<path fill="none" stroke="midnightblue" d="M494.02,-199.28C486.01,-173.96 468.73,-130.3 439,-105 434.46,-101.14 429.11,-98.06 423.54,-95.59"/>
<polygon fill="midnightblue" stroke="midnightblue" points="490.77,-200.61 496.98,-209.19 497.48,-198.61 490.77,-200.61"/>
</g>
<!-- Node14 -->
<g id="node14" class="node">
<title>Node14</title>
<g id="a_node14"><a xlink:href="group__datatypes__table.html#ga7a45ee72b36421f4e73cfba4488f14be" target="_top" xlink:title="Dump table getter functions to the console.">
<polygon fill="white" stroke="black" points="325,-38.5 325,-57.5 439,-57.5 439,-38.5 325,-38.5"/>
<text text-anchor="middle" x="382" y="-45.5" font-family="Helvetica,sans-Serif" font-size="10.00">table_dump_getters</text>
</a>
</g>
</g>
<!-- Node1&#45;&gt;Node14 -->
<g id="edge16" class="edge">
<title>Node1&#45;&gt;Node14</title>
<path fill="none" stroke="midnightblue" d="M497,-199.31C491.9,-167.18 477.32,-103.39 439,-67 434.91,-63.11 429.99,-60.02 424.78,-57.55"/>
<polygon fill="midnightblue" stroke="midnightblue" points="493.54,-199.86 498.43,-209.26 500.47,-198.87 493.54,-199.86"/>
</g>
<!-- Node15 -->
<g id="node15" class="node">
<title>Node15</title>
<g id="a_node15"><a xlink:href="group__datatypes__table.html#ga8d212217f9acb803e3107f488d5523e6" target="_top" xlink:title="Write formatted map entries to the console.">
<polygon fill="white" stroke="black" points="346.5,-0.5 346.5,-19.5 417.5,-19.5 417.5,-0.5 346.5,-0.5"/>
<text text-anchor="middle" x="382" y="-7.5" font-family="Helvetica,sans-Serif" font-size="10.00">table_write</text>
</a>
</g>
</g>
<!-- Node1&#45;&gt;Node15 -->
<g id="edge17" class="edge">
<title>Node1&#45;&gt;Node15</title>
<path fill="none" stroke="midnightblue" d="M498.81,-198.83C496.42,-160.49 485.8,-76.69 439,-29 433.18,-23.06 425.43,-18.98 417.56,-16.18"/>
<polygon fill="midnightblue" stroke="midnightblue" points="495.34,-199.36 499.32,-209.17 502.33,-199.01 495.34,-199.36"/>
</g>
<!-- Node8 -->
<g id="node8" class="node">
<title>Node8</title>
<g id="a_node8"><a xlink:href="group__tools__extrude.html#ga45661244067bf945b684550c3263ee45" target="_top" xlink:title="Linearly extrude a 2d shape with multi&#45;segment uniformly&#45;spaced profile scaling.">
<polygon fill="white" stroke="black" points="176,-209.5 176,-228.5 289,-228.5 289,-209.5 176,-209.5"/>
<text text-anchor="middle" x="232.5" y="-216.5" font-family="Helvetica,sans-Serif" font-size="10.00">extrude_linear_mss</text>
</a>
</g>
</g>
<!-- Node7&#45;&gt;Node8 -->
<g id="edge7" class="edge">
<title>Node7&#45;&gt;Node8</title>
<path fill="none" stroke="midnightblue" d="M317.34,-208.2C308.03,-209.4 298.5,-210.63 289.36,-211.8"/>
<polygon fill="midnightblue" stroke="midnightblue" points="317.86,-211.66 327.33,-206.91 316.97,-204.72 317.86,-211.66"/>
</g>
<!-- Node7&#45;&gt;Node11 -->
<g id="edge11" class="edge">
<title>Node7&#45;&gt;Node11</title>
<path fill="none" stroke="midnightblue" d="M317.21,-196.09C263.18,-192.78 186.21,-188.06 132.77,-184.79"/>
<polygon fill="midnightblue" stroke="midnightblue" points="317.16,-199.59 327.36,-196.71 317.59,-192.61 317.16,-199.59"/>
</g>
<!-- Node9 -->
<g id="node9" class="node">
<title>Node9</title>
<g id="a_node9"><a xlink:href="group__parts__3d__bearing__bearing__linear__rod.html#ga48399d5e708b4894494c69b2d1e88e26" target="_top" xlink:title="Transform 2d or 3d shape into a linear rod ball or sled bearing.">
<polygon fill="white" stroke="black" points="0,-209.5 0,-228.5 140,-228.5 140,-209.5 0,-209.5"/>
<text text-anchor="middle" x="70" y="-216.5" font-family="Helvetica,sans-Serif" font-size="10.00">make_bearing_linear_rod</text>
</a>
</g>
</g>
<!-- Node8&#45;&gt;Node9 -->
<g id="edge8" class="edge">
<title>Node8&#45;&gt;Node9</title>
<path fill="none" stroke="midnightblue" d="M165.68,-219C157.27,-219 148.63,-219 140.16,-219"/>
<polygon fill="midnightblue" stroke="midnightblue" points="165.82,-222.5 175.82,-219 165.82,-215.5 165.82,-222.5"/>
</g>
<!-- Node8&#45;&gt;Node10 -->
<g id="edge9" class="edge">
<title>Node8&#45;&gt;Node10</title>
<path fill="none" stroke="midnightblue" d="M181.18,-230.91C156.77,-236.69 128.04,-243.5 106.04,-248.7"/>
<polygon fill="midnightblue" stroke="midnightblue" points="182.07,-234.3 191,-228.59 180.46,-227.49 182.07,-234.3"/>
</g>
<!-- Node8&#45;&gt;Node11 -->
<g id="edge10" class="edge">
<title>Node8&#45;&gt;Node11</title>
<path fill="none" stroke="midnightblue" d="M181.25,-207.1C158.69,-201.76 132.44,-195.55 111.21,-190.52"/>
<polygon fill="midnightblue" stroke="midnightblue" points="180.46,-210.51 191,-209.41 182.07,-203.7 180.46,-210.51"/>
</g>
</g>
</svg>
