<?xml version="1.0" encoding="UTF-8" standalone="no"?>
<!DOCTYPE svg PUBLIC "-//W3C//DTD SVG 1.1//EN"
 "http://www.w3.org/Graphics/SVG/1.1/DTD/svg11.dtd">
<!-- Generated by graphviz version 2.43.0 (0)
 -->
<!-- Title: Polygons Pages: 1 -->
<svg width="211pt" height="35pt"
 viewBox="0.00 0.00 211.00 35.10" xmlns="http://www.w3.org/2000/svg" xmlns:xlink="http://www.w3.org/1999/xlink">
<g id="graph0" class="graph" transform="scale(1 1) rotate(0) translate(4 31.1)">
<title>Polygons</title>
<polygon fill="white" stroke="transparent" points="-4,4 -4,-31.1 207,-31.1 207,4 -4,4"/>
<!-- Node2 -->
<g id="node1" class="node">
<title>Node2</title>
<g id="a_node1"><a xlink:href="group__math.html" target="_top" xlink:title="Mathematical functions and operations.">
<polygon fill="white" stroke="black" points="41,-27.1 0,-27.1 0,-8.1 41,-8.1 41,-27.1"/>
<text text-anchor="middle" x="20.5" y="-15.1" font-family="Helvetica,sans-Serif" font-size="10.00">Math</text>
</a>
</g>
</g>
<!-- Node1 -->
<g id="node2" class="node">
<title>Node1</title>
<g id="a_node2"><a xlink:title="Polygon mathematical functions; 2&#45;polytope.">
<polygon fill="#bfbfbf" stroke="black" points="203,-27.1 142,-27.1 142,-8.1 203,-8.1 203,-27.1"/>
<text text-anchor="middle" x="172.5" y="-15.1" font-family="Helvetica,sans-Serif" font-size="10.00">Polygons</text>
</a>
</g>
</g>
<!-- Node2&#45;&gt;Node1 -->
<g id="edge1" class="edge">
<title>Node2&#45;&gt;Node1</title>
<path fill="none" stroke="black" d="M51.23,-17.6C77.48,-17.6 115.56,-17.6 141.8,-17.6"/>
<polygon fill="black" stroke="black" points="51.11,-14.1 41.11,-17.6 51.11,-21.1 51.11,-14.1"/>
</g>
<!-- Node1&#45;&gt;Node2 -->
<g id="edge2" class="edge">
<title>Node1&#45;&gt;Node2</title>
<path fill="none" stroke="darkgreen" stroke-dasharray="5,2" d="M144.17,-8.09C137.64,-6.23 130.64,-4.56 124,-3.6 95.41,0.53 87.43,1.54 59,-3.6 53.12,-4.66 46.96,-6.59 41.37,-8.68"/>
<text text-anchor="middle" x="91.5" y="-6.6" font-family="Helvetica,sans-Serif" font-size="10.00">polygon.scad</text>
</g>
</g>
</svg>
