<?xml version="1.0" encoding="UTF-8" standalone="no"?>
<!DOCTYPE svg PUBLIC "-//W3C//DTD SVG 1.1//EN"
 "http://www.w3.org/Graphics/SVG/1.1/DTD/svg11.dtd">
<!-- Generated by graphviz version 2.43.0 (0)
 -->
<!-- Title: star3d Pages: 1 -->
<svg width="315pt" height="161pt"
 viewBox="0.00 0.00 315.00 161.03" xmlns="http://www.w3.org/2000/svg" xmlns:xlink="http://www.w3.org/1999/xlink">
<g id="graph0" class="graph" transform="scale(1 1) rotate(0) translate(4 157.03)">
<title>star3d</title>
<polygon fill="white" stroke="transparent" points="-4,4 -4,-157.03 311,-157.03 311,4 -4,4"/>
<!-- Node1 -->
<g id="node1" class="node">
<title>Node1</title>
<g id="a_node1"><a xlink:title="A three&#45;dimensional star.">
<polygon fill="#bfbfbf" stroke="black" points="0,-95.5 0,-114.5 47,-114.5 47,-95.5 0,-95.5"/>
<text text-anchor="middle" x="23.5" y="-102.5" font-family="Helvetica,sans-Serif" font-size="10.00">star3d</text>
</a>
</g>
</g>
<!-- Node2 -->
<g id="node2" class="node">
<title>Node2</title>
<g id="a_node2"><a xlink:href="group__units__angle.html#ga06a917b77748dfb74e765bcd7c4c0219" target="_top" xlink:title="Convert an angle from some units to another.">
<polygon fill="white" stroke="black" points="231.5,-76.5 231.5,-95.5 275.5,-95.5 275.5,-76.5 231.5,-76.5"/>
<text text-anchor="middle" x="253.5" y="-83.5" font-family="Helvetica,sans-Serif" font-size="10.00">angle</text>
</a>
</g>
</g>
<!-- Node1&#45;&gt;Node2 -->
<g id="edge1" class="edge">
<title>Node1&#45;&gt;Node2</title>
<path fill="none" stroke="midnightblue" d="M47.2,-103.11C88.16,-99.7 174.51,-92.5 221.1,-88.62"/>
<polygon fill="midnightblue" stroke="midnightblue" points="221.55,-92.09 231.23,-87.77 220.97,-85.12 221.55,-92.09"/>
</g>
<!-- Node3 -->
<g id="node3" class="node">
<title>Node3</title>
<g id="a_node3"><a xlink:href="group__datatypes__iterable__operate.html#ga3d37c2b0067d1661724bd89955c8f6ce" target="_top" xlink:title="Return an element of an iterable when it exists or a default value otherwise.">
<polygon fill="white" stroke="black" points="214,-133.5 214,-152.5 293,-152.5 293,-133.5 214,-133.5"/>
<text text-anchor="middle" x="253.5" y="-140.5" font-family="Helvetica,sans-Serif" font-size="10.00">defined_e_or</text>
</a>
</g>
</g>
<!-- Node1&#45;&gt;Node3 -->
<g id="edge2" class="edge">
<title>Node1&#45;&gt;Node3</title>
<path fill="none" stroke="midnightblue" d="M35.17,-114.7C46.21,-124.03 64.42,-137.5 83,-143 122.38,-154.67 169.2,-153.61 203.64,-150.24"/>
<polygon fill="midnightblue" stroke="midnightblue" points="204.34,-153.68 213.91,-149.13 203.59,-146.73 204.34,-153.68"/>
</g>
<!-- Node4 -->
<g id="node4" class="node">
<title>Node4</title>
<g id="a_node4"><a xlink:href="group__shapes__basic__3d.html#gaaf63049f5c83cbb3b1f349b0a7a350e9" target="_top" xlink:title="A pyramid with quadrilateral base.">
<polygon fill="white" stroke="black" points="89.5,-114.5 89.5,-133.5 157.5,-133.5 157.5,-114.5 89.5,-114.5"/>
<text text-anchor="middle" x="123.5" y="-121.5" font-family="Helvetica,sans-Serif" font-size="10.00">pyramid_q</text>
</a>
</g>
</g>
<!-- Node1&#45;&gt;Node4 -->
<g id="edge3" class="edge">
<title>Node1&#45;&gt;Node4</title>
<path fill="none" stroke="midnightblue" d="M47.23,-109.41C56.84,-111.27 68.36,-113.5 79.47,-115.66"/>
<polygon fill="midnightblue" stroke="midnightblue" points="79.01,-119.13 89.49,-117.6 80.34,-112.26 79.01,-119.13"/>
</g>
<!-- Node5 -->
<g id="node5" class="node">
<title>Node5</title>
<g id="a_node5"><a xlink:href="group__tools__repeat.html#ga543a7c0b4c744d98e6197036da5681fe" target="_top" xlink:title="Distribute copies of a 2d or 3d shape equally about a z&#45;axis radius.">
<polygon fill="white" stroke="black" points="83,-38.5 83,-57.5 164,-57.5 164,-38.5 83,-38.5"/>
<text text-anchor="middle" x="123.5" y="-45.5" font-family="Helvetica,sans-Serif" font-size="10.00">repeat_radial</text>
</a>
</g>
</g>
<!-- Node1&#45;&gt;Node5 -->
<g id="edge5" class="edge">
<title>Node1&#45;&gt;Node5</title>
<path fill="none" stroke="midnightblue" d="M41.12,-95.33C56.56,-86.35 79.76,-72.86 97.45,-62.57"/>
<polygon fill="midnightblue" stroke="midnightblue" points="99.24,-65.58 106.12,-57.53 95.72,-59.53 99.24,-65.58"/>
</g>
<!-- Node4&#45;&gt;Node3 -->
<g id="edge4" class="edge">
<title>Node4&#45;&gt;Node3</title>
<path fill="none" stroke="midnightblue" d="M157.8,-128.94C171.89,-131.03 188.6,-133.51 204.02,-135.8"/>
<polygon fill="midnightblue" stroke="midnightblue" points="203.52,-139.27 213.93,-137.27 204.55,-132.34 203.52,-139.27"/>
</g>
<!-- Node5&#45;&gt;Node2 -->
<g id="edge6" class="edge">
<title>Node5&#45;&gt;Node2</title>
<path fill="none" stroke="midnightblue" d="M156.8,-57.59C176.73,-63.51 202.14,-71.05 221.77,-76.88"/>
<polygon fill="midnightblue" stroke="midnightblue" points="220.87,-80.26 231.45,-79.75 222.86,-73.55 220.87,-80.26"/>
</g>
<!-- Node6 -->
<g id="node6" class="node">
<title>Node6</title>
<g id="a_node6"><a xlink:href="group__datatypes__euclidean.html#ga3d5c07c70f271bcf9144f50ce8620a89" target="_top" xlink:title="Compute the angle between two lines or vectors in a 3d or 2d&#45;space.">
<polygon fill="white" stroke="black" points="226,-38.5 226,-57.5 281,-57.5 281,-38.5 226,-38.5"/>
<text text-anchor="middle" x="253.5" y="-45.5" font-family="Helvetica,sans-Serif" font-size="10.00">angle_ll</text>
</a>
</g>
</g>
<!-- Node5&#45;&gt;Node6 -->
<g id="edge7" class="edge">
<title>Node5&#45;&gt;Node6</title>
<path fill="none" stroke="midnightblue" d="M164.3,-48C180.67,-48 199.53,-48 215.59,-48"/>
<polygon fill="midnightblue" stroke="midnightblue" points="215.69,-51.5 225.69,-48 215.69,-44.5 215.69,-51.5"/>
</g>
<!-- Node7 -->
<g id="node7" class="node">
<title>Node7</title>
<g id="a_node7"><a xlink:href="group__math__polygon.html#ga6aea22d31f8f086c44c7241eee3ab4c2" target="_top" xlink:title="Compute coordinates for an n&#45;sided regular polygon in 2D.">
<polygon fill="white" stroke="black" points="200,-0.5 200,-19.5 307,-19.5 307,-0.5 200,-0.5"/>
<text text-anchor="middle" x="253.5" y="-7.5" font-family="Helvetica,sans-Serif" font-size="10.00">polygon_regular_p</text>
</a>
</g>
</g>
<!-- Node5&#45;&gt;Node7 -->
<g id="edge8" class="edge">
<title>Node5&#45;&gt;Node7</title>
<path fill="none" stroke="midnightblue" d="M156.8,-38.41C173.02,-33.6 192.88,-27.7 210.29,-22.53"/>
<polygon fill="midnightblue" stroke="midnightblue" points="211.62,-25.79 220.21,-19.59 209.63,-19.08 211.62,-25.79"/>
</g>
</g>
</svg>
