<?xml version="1.0" encoding="UTF-8" standalone="no"?>
<!DOCTYPE svg PUBLIC "-//W3C//DTD SVG 1.1//EN"
 "http://www.w3.org/Graphics/SVG/1.1/DTD/svg11.dtd">
<!-- Generated by graphviz version 2.43.0 (0)
 -->
<!-- Title: 3d Parts Pages: 1 -->
<svg width="242pt" height="101pt"
 viewBox="0.00 0.00 242.00 101.00" xmlns="http://www.w3.org/2000/svg" xmlns:xlink="http://www.w3.org/1999/xlink">
<g id="graph0" class="graph" transform="scale(1 1) rotate(0) translate(4 97)">
<title>3d Parts</title>
<polygon fill="white" stroke="transparent" points="-4,4 -4,-97 238,-97 238,4 -4,4"/>
<!-- Node5 -->
<g id="node1" class="node">
<title>Node5</title>
<g id="a_node1"><a xlink:href="group__parts__3d__enclosure.html" target="_top" xlink:title="Project boxes, housings and enclosures.">
<polygon fill="white" stroke="black" points="233.5,-93 169.5,-93 169.5,-74 233.5,-74 233.5,-93"/>
<text text-anchor="middle" x="201.5" y="-81" font-family="Helvetica,sans-Serif" font-size="10.00">Enclosure</text>
</a>
</g>
</g>
<!-- Node1 -->
<g id="node2" class="node">
<title>Node1</title>
<g id="a_node2"><a xlink:title="3d parts, part generators, and small assemblies.">
<polygon fill="#bfbfbf" stroke="black" points="133,-56 77,-56 77,-37 133,-37 133,-56"/>
<text text-anchor="middle" x="105" y="-44" font-family="Helvetica,sans-Serif" font-size="10.00">3d Parts</text>
</a>
</g>
</g>
<!-- Node1&#45;&gt;Node5 -->
<g id="edge4" class="edge">
<title>Node1&#45;&gt;Node5</title>
<path fill="none" stroke="black" d="M139.96,-59.8C151.84,-64.45 164.95,-69.58 175.92,-73.88"/>
<polygon fill="black" stroke="black" points="140.92,-56.42 130.34,-56.03 138.37,-62.93 140.92,-56.42"/>
</g>
<!-- Node3 -->
<g id="node4" class="node">
<title>Node3</title>
<g id="a_node4"><a xlink:href="group__parts__3d__bearing.html" target="_top" xlink:title="Mechanical motion bearings.">
<polygon fill="white" stroke="black" points="228.5,-56 174.5,-56 174.5,-37 228.5,-37 228.5,-56"/>
<text text-anchor="middle" x="201.5" y="-44" font-family="Helvetica,sans-Serif" font-size="10.00">Bearing</text>
</a>
</g>
</g>
<!-- Node1&#45;&gt;Node3 -->
<g id="edge2" class="edge">
<title>Node1&#45;&gt;Node3</title>
<path fill="none" stroke="black" d="M143.2,-46.5C153.64,-46.5 164.75,-46.5 174.39,-46.5"/>
<polygon fill="black" stroke="black" points="143.08,-43 133.08,-46.5 143.08,-50 143.08,-43"/>
</g>
<!-- Node4 -->
<g id="node5" class="node">
<title>Node4</title>
<g id="a_node5"><a xlink:href="group__parts__3d__computer.html" target="_top" xlink:title="Mechanical computer parts.">
<polygon fill="white" stroke="black" points="234,-19 169,-19 169,0 234,0 234,-19"/>
<text text-anchor="middle" x="201.5" y="-7" font-family="Helvetica,sans-Serif" font-size="10.00">Computer</text>
</a>
</g>
</g>
<!-- Node1&#45;&gt;Node4 -->
<g id="edge3" class="edge">
<title>Node1&#45;&gt;Node4</title>
<path fill="none" stroke="black" d="M139.96,-33.2C151.84,-28.55 164.95,-23.42 175.92,-19.12"/>
<polygon fill="black" stroke="black" points="138.37,-30.07 130.34,-36.97 140.92,-36.58 138.37,-30.07"/>
</g>
<!-- Node2 -->
<g id="node3" class="node">
<title>Node2</title>
<g id="a_node3"><a xlink:href="group__parts.html" target="_top" xlink:title="Design parts, generators, and small assemblies.">
<polygon fill="white" stroke="black" points="41,-56 0,-56 0,-37 41,-37 41,-56"/>
<text text-anchor="middle" x="20.5" y="-44" font-family="Helvetica,sans-Serif" font-size="10.00">Parts</text>
</a>
</g>
</g>
<!-- Node2&#45;&gt;Node1 -->
<g id="edge1" class="edge">
<title>Node2&#45;&gt;Node1</title>
<path fill="none" stroke="black" d="M51.16,-46.5C59.52,-46.5 68.57,-46.5 76.79,-46.5"/>
<polygon fill="black" stroke="black" points="51.05,-43 41.05,-46.5 51.05,-50 51.05,-43"/>
</g>
</g>
</svg>
