<?xml version="1.0" encoding="UTF-8" standalone="no"?>
<!DOCTYPE svg PUBLIC "-//W3C//DTD SVG 1.1//EN"
 "http://www.w3.org/Graphics/SVG/1.1/DTD/svg11.dtd">
<!-- Generated by graphviz version 2.43.0 (0)
 -->
<!-- Title: get_fn Pages: 1 -->
<svg width="392pt" height="66pt"
 viewBox="0.00 0.00 392.00 66.00" xmlns="http://www.w3.org/2000/svg" xmlns:xlink="http://www.w3.org/1999/xlink">
<g id="graph0" class="graph" transform="scale(1 1) rotate(0) translate(4 62)">
<title>get_fn</title>
<polygon fill="white" stroke="transparent" points="-4,4 -4,-62 388,-62 388,4 -4,4"/>
<!-- Node1 -->
<g id="node1" class="node">
<title>Node1</title>
<g id="a_node1"><a xlink:title="Return facets number for the given arc radius.">
<polygon fill="#bfbfbf" stroke="black" points="337,-19.5 337,-38.5 384,-38.5 384,-19.5 337,-19.5"/>
<text text-anchor="middle" x="360.5" y="-26.5" font-family="Helvetica,sans-Serif" font-size="10.00">get_fn</text>
</a>
</g>
</g>
<!-- Node2 -->
<g id="node2" class="node">
<title>Node2</title>
<g id="a_node2"><a xlink:href="group__tools__extrude.html#ga2cbff19d3b793918b99aae3b56d37dfa" target="_top" xlink:title="Translate, rotate, scale, and revolve a 2d shape about the z&#45;axis.">
<polygon fill="white" stroke="black" points="185,-38.5 185,-57.5 292,-57.5 292,-38.5 185,-38.5"/>
<text text-anchor="middle" x="238.5" y="-45.5" font-family="Helvetica,sans-Serif" font-size="10.00">extrude_rotate_trs</text>
</a>
</g>
</g>
<!-- Node1&#45;&gt;Node2 -->
<g id="edge1" class="edge">
<title>Node1&#45;&gt;Node2</title>
<path fill="none" stroke="midnightblue" d="M326.78,-34.18C316.07,-35.88 303.88,-37.81 292.09,-39.67"/>
<polygon fill="midnightblue" stroke="midnightblue" points="327.6,-37.59 336.93,-32.57 326.5,-30.68 327.6,-37.59"/>
</g>
<!-- Node4 -->
<g id="node4" class="node">
<title>Node4</title>
<g id="a_node4"><a xlink:href="group__parts__3d__enclosure__project__box__rectangle.html#ga6a5d093d732e65556c46252220f2c4b6" target="_top" xlink:title="A rectangular box maker for project boxes, enclosures and housings.">
<polygon fill="white" stroke="black" points="176,-0.5 176,-19.5 301,-19.5 301,-0.5 176,-0.5"/>
<text text-anchor="middle" x="238.5" y="-7.5" font-family="Helvetica,sans-Serif" font-size="10.00">project_box_rectangle</text>
</a>
</g>
</g>
<!-- Node1&#45;&gt;Node4 -->
<g id="edge3" class="edge">
<title>Node1&#45;&gt;Node4</title>
<path fill="none" stroke="midnightblue" d="M326.81,-23.82C318.38,-22.49 309.04,-21.01 299.69,-19.53"/>
<polygon fill="midnightblue" stroke="midnightblue" points="326.5,-27.32 336.93,-25.43 327.6,-20.41 326.5,-27.32"/>
</g>
<!-- Node3 -->
<g id="node3" class="node">
<title>Node3</title>
<g id="a_node3"><a xlink:href="group__parts__3d__bearing__bearing__linear__rod.html#ga48399d5e708b4894494c69b2d1e88e26" target="_top" xlink:title="Transform 2d or 3d shape into a linear rod ball or sled bearing.">
<polygon fill="white" stroke="black" points="0,-38.5 0,-57.5 140,-57.5 140,-38.5 0,-38.5"/>
<text text-anchor="middle" x="70" y="-45.5" font-family="Helvetica,sans-Serif" font-size="10.00">make_bearing_linear_rod</text>
</a>
</g>
</g>
<!-- Node2&#45;&gt;Node3 -->
<g id="edge2" class="edge">
<title>Node2&#45;&gt;Node3</title>
<path fill="none" stroke="midnightblue" d="M174.64,-48C163.36,-48 151.55,-48 140.1,-48"/>
<polygon fill="midnightblue" stroke="midnightblue" points="174.82,-51.5 184.82,-48 174.82,-44.5 174.82,-51.5"/>
</g>
</g>
</svg>
