<?xml version="1.0" encoding="UTF-8" standalone="no"?>
<!DOCTYPE svg PUBLIC "-//W3C//DTD SVG 1.1//EN"
 "http://www.w3.org/Graphics/SVG/1.1/DTD/svg11.dtd">
<!-- Generated by graphviz version 2.43.0 (0)
 -->
<!-- Title: map_get_keys Pages: 1 -->
<svg width="202pt" height="66pt"
 viewBox="0.00 0.00 202.00 66.00" xmlns="http://www.w3.org/2000/svg" xmlns:xlink="http://www.w3.org/1999/xlink">
<g id="graph0" class="graph" transform="scale(1 1) rotate(0) translate(4 62)">
<title>map_get_keys</title>
<polygon fill="white" stroke="transparent" points="-4,4 -4,-62 198,-62 198,4 -4,4"/>
<!-- Node1 -->
<g id="node1" class="node">
<title>Node1</title>
<g id="a_node1"><a xlink:title="Get a list of all map keys.">
<polygon fill="#bfbfbf" stroke="black" points="107,-19.5 107,-38.5 194,-38.5 194,-19.5 107,-19.5"/>
<text text-anchor="middle" x="150.5" y="-26.5" font-family="Helvetica,sans-Serif" font-size="10.00">map_get_keys</text>
</a>
</g>
</g>
<!-- Node2 -->
<g id="node2" class="node">
<title>Node2</title>
<g id="a_node2"><a xlink:href="group__datatypes__map.html#ga680cb75c8d9f3769064128e9c3d5800e" target="_top" xlink:title="Dump each map entry to the console.">
<polygon fill="white" stroke="black" points="0,-38.5 0,-57.5 71,-57.5 71,-38.5 0,-38.5"/>
<text text-anchor="middle" x="35.5" y="-45.5" font-family="Helvetica,sans-Serif" font-size="10.00">map_dump</text>
</a>
</g>
</g>
<!-- Node1&#45;&gt;Node2 -->
<g id="edge1" class="edge">
<title>Node1&#45;&gt;Node2</title>
<path fill="none" stroke="midnightblue" d="M96.71,-37.88C88.05,-39.33 79.27,-40.81 71.2,-42.17"/>
<polygon fill="midnightblue" stroke="midnightblue" points="97.5,-41.29 106.78,-36.18 96.34,-34.39 97.5,-41.29"/>
</g>
<!-- Node3 -->
<g id="node3" class="node">
<title>Node3</title>
<g id="a_node3"><a xlink:href="group__datatypes__map.html#ga1ee3a7b76638ba11f1420da1dec59c8d" target="_top" xlink:title="Write formatted map entries to the console.">
<polygon fill="white" stroke="black" points="1.5,-0.5 1.5,-19.5 69.5,-19.5 69.5,-0.5 1.5,-0.5"/>
<text text-anchor="middle" x="35.5" y="-7.5" font-family="Helvetica,sans-Serif" font-size="10.00">map_write</text>
</a>
</g>
</g>
<!-- Node1&#45;&gt;Node3 -->
<g id="edge2" class="edge">
<title>Node1&#45;&gt;Node3</title>
<path fill="none" stroke="midnightblue" d="M96.87,-20.15C87.64,-18.6 78.28,-17.03 69.77,-15.59"/>
<polygon fill="midnightblue" stroke="midnightblue" points="96.34,-23.61 106.78,-21.82 97.5,-16.71 96.34,-23.61"/>
</g>
</g>
</svg>
