solid OpenSCAD_Model
  facet normal 0 0.1547 -0.987961
    outer loop
      vertex 44.5293 15.9363 -77.1272
      vertex -0 -60.2624 -89.0588
      vertex -44.5295 15.9363 -77.1272
    endloop
  endfacet
  facet normal -0.493981 -0.154701 -0.8556
    outer loop
      vertex -44.5295 15.9363 -77.1272
      vertex -0 -60.2624 -89.0588
      vertex -77.1272 -60.2624 -44.5294
    endloop
  endfacet
  facet normal -0.855601 0.154701 -0.493979
    outer loop
      vertex -44.5295 15.9363 -77.1272
      vertex -77.1272 -60.2624 -44.5294
      vertex -89.0588 15.9362 0.000126041
    endloop
  endfacet
  facet normal -0.987961 -0.1547 -1.73706e-07
    outer loop
      vertex -89.0588 15.9362 0.000126041
      vertex -77.1272 -60.2624 -44.5294
      vertex -77.1272 -60.2625 44.5294
    endloop
  endfacet
  facet normal -0.855599 0.154701 0.493982
    outer loop
      vertex -89.0588 15.9362 0.000126041
      vertex -77.1272 -60.2625 44.5294
      vertex -44.5293 15.9361 77.1273
    endloop
  endfacet
  facet normal -0.49398 -0.154702 0.8556
    outer loop
      vertex -44.5293 15.9361 77.1273
      vertex -77.1272 -60.2625 44.5294
      vertex 7.3025e-05 -60.2625 89.0588
    endloop
  endfacet
  facet normal 1.45585e-12 1 1.29656e-06
    outer loop
      vertex 1.693e-06 88.6525 -51.4181
      vertex -44.5294 88.6524 25.7092
      vertex 44.5294 88.6524 25.7091
    endloop
  endfacet
  facet normal -0.816496 0.333333 0.471406
    outer loop
      vertex -44.5294 88.6524 25.7092
      vertex -89.0588 15.9362 0.000126041
      vertex -44.5293 15.9361 77.1273
    endloop
  endfacet
  facet normal 0.816497 0.333333 0.471404
    outer loop
      vertex 44.5294 88.6524 25.7091
      vertex 44.5295 15.9361 77.1271
      vertex 89.0588 15.9362 -6.507e-05
    endloop
  endfacet
  facet normal 0 0.333334 -0.942809
    outer loop
      vertex 1.693e-06 88.6525 -51.4181
      vertex 44.5293 15.9363 -77.1272
      vertex -44.5295 15.9363 -77.1272
    endloop
  endfacet
  facet normal 2.21867e-06 0.1547 0.987961
    outer loop
      vertex -44.5293 15.9361 77.1273
      vertex 7.3025e-05 -60.2625 89.0588
      vertex 44.5295 15.9361 77.1271
    endloop
  endfacet
  facet normal 0.493982 -0.154701 0.855599
    outer loop
      vertex 44.5295 15.9361 77.1271
      vertex 7.3025e-05 -60.2625 89.0588
      vertex 77.1272 -60.2625 44.5293
    endloop
  endfacet
  facet normal 0.8556 0.1547 0.49398
    outer loop
      vertex 44.5295 15.9361 77.1271
      vertex 77.1272 -60.2625 44.5293
      vertex 89.0588 15.9362 -6.507e-05
    endloop
  endfacet
  facet normal 0.987961 -0.154701 -1.28304e-06
    outer loop
      vertex 89.0588 15.9362 -6.507e-05
      vertex 77.1272 -60.2625 44.5293
      vertex 77.1271 -60.2624 -44.5295
    endloop
  endfacet
  facet normal 0.855599 0.154701 -0.493982
    outer loop
      vertex 89.0588 15.9362 -6.507e-05
      vertex 77.1271 -60.2624 -44.5295
      vertex 44.5293 15.9363 -77.1272
    endloop
  endfacet
  facet normal 0.49398 -0.1547 -0.8556
    outer loop
      vertex 44.5293 15.9363 -77.1272
      vertex 77.1271 -60.2624 -44.5295
      vertex -0 -60.2624 -89.0588
    endloop
  endfacet
  facet normal -0.707107 0.577351 -0.408246
    outer loop
      vertex -89.0588 15.9362 0.000126041
      vertex 1.693e-06 88.6525 -51.4181
      vertex -44.5295 15.9363 -77.1272
    endloop
  endfacet
  facet normal -0.707107 0.57735 -0.408247
    outer loop
      vertex 1.693e-06 88.6525 -51.4181
      vertex -89.0588 15.9362 0.000126041
      vertex -44.5294 88.6524 25.7092
    endloop
  endfacet
  facet normal 1.83361e-06 0.577349 0.816498
    outer loop
      vertex 44.5294 88.6524 25.7091
      vertex -44.5293 15.9361 77.1273
      vertex 44.5295 15.9361 77.1271
    endloop
  endfacet
  facet normal 9.16807e-07 0.57735 0.816497
    outer loop
      vertex -44.5293 15.9361 77.1273
      vertex 44.5294 88.6524 25.7091
      vertex -44.5294 88.6524 25.7092
    endloop
  endfacet
  facet normal 0.707107 0.577351 -0.408248
    outer loop
      vertex 89.0588 15.9362 -6.507e-05
      vertex 1.693e-06 88.6525 -51.4181
      vertex 44.5294 88.6524 25.7091
    endloop
  endfacet
  facet normal 0.707107 0.57735 -0.408249
    outer loop
      vertex 1.693e-06 88.6525 -51.4181
      vertex 89.0588 15.9362 -6.507e-05
      vertex 44.5293 15.9363 -77.1272
    endloop
  endfacet
  facet normal 0 -1 0
    outer loop
      vertex -77.1272 -60.2625 44.5294
      vertex 77.1272 -60.2625 44.5293
      vertex 7.3025e-05 -60.2625 89.0588
    endloop
  endfacet
  facet normal -7.27923e-13 -1 -1.12285e-06
    outer loop
      vertex -77.1272 -60.2624 -44.5294
      vertex 77.1272 -60.2625 44.5293
      vertex -77.1272 -60.2625 44.5294
    endloop
  endfacet
  facet normal -7.27924e-13 -1 -1.12285e-06
    outer loop
      vertex -77.1272 -60.2624 -44.5294
      vertex 77.1271 -60.2624 -44.5295
      vertex 77.1272 -60.2625 44.5293
    endloop
  endfacet
  facet normal -0 -1 0
    outer loop
      vertex 77.1271 -60.2624 -44.5295
      vertex -77.1272 -60.2624 -44.5294
      vertex -0 -60.2624 -89.0588
    endloop
  endfacet
endsolid OpenSCAD_Model
