solid OpenSCAD_Model
  facet normal -0.947072 0.0914425 -0.307721
    outer loop
      vertex -77.4182 -4.95073 -56.2477
      vertex -91.0105 -55.9548 -29.5711
      vertex -95.6941 -4.95066 0
    endloop
  endfacet
  facet normal -0.99581 -0.0914432 1.54616e-07
    outer loop
      vertex -95.6941 -4.95066 0
      vertex -91.0105 -55.9548 -29.5711
      vertex -91.0105 -55.9547 29.5712
    endloop
  endfacet
  facet normal -0.947072 0.0914434 0.307721
    outer loop
      vertex -95.6941 -4.95066 0
      vertex -91.0105 -55.9547 29.5712
      vertex -77.4182 -4.95062 56.2476
    endloop
  endfacet
  facet normal -0.805628 -0.0914427 0.585322
    outer loop
      vertex -77.4182 -4.95062 56.2476
      vertex -91.0105 -55.9547 29.5712
      vertex -56.2476 -55.9547 77.4183
    endloop
  endfacet
  facet normal -0.585322 0.0914453 0.805628
    outer loop
      vertex -77.4182 -4.95062 56.2476
      vertex -56.2476 -55.9547 77.4183
      vertex -29.5711 -4.95049 91.0105
    endloop
  endfacet
  facet normal -0.307721 -0.0914409 0.947072
    outer loop
      vertex -29.5711 -4.95049 91.0105
      vertex -56.2476 -55.9547 77.4183
      vertex 2.46e-07 -55.9545 95.6942
    endloop
  endfacet
  facet normal -1.7456e-06 0.0914443 0.99581
    outer loop
      vertex -29.5711 -4.95049 91.0105
      vertex 2.46e-07 -55.9545 95.6942
      vertex 29.5711 -4.95045 91.0106
    endloop
  endfacet
  facet normal 0.307722 -0.0914429 0.947072
    outer loop
      vertex 29.5711 -4.95045 91.0106
      vertex 2.46e-07 -55.9545 95.6942
      vertex 56.2476 -55.9545 77.4183
    endloop
  endfacet
  facet normal 0.585323 0.0914446 0.805627
    outer loop
      vertex 29.5711 -4.95045 91.0106
      vertex 56.2476 -55.9545 77.4183
      vertex 77.4182 -4.95041 56.2476
    endloop
  endfacet
  facet normal 0.805628 -0.0914426 0.585322
    outer loop
      vertex 77.4182 -4.95041 56.2476
      vertex 56.2476 -55.9545 77.4183
      vertex 91.0105 -55.9545 29.5712
    endloop
  endfacet
  facet normal -0 0.794655 0.607061
    outer loop
      vertex -29.5712 76.4518 40.7011
      vertex -0.000111921 45.3589 81.4023
      vertex 29.571 76.4518 40.7011
    endloop
  endfacet
  facet normal -1.7877e-06 0.187593 0.982247
    outer loop
      vertex -0.000111921 45.3589 81.4023
      vertex -29.5711 -4.95049 91.0105
      vertex 29.5711 -4.95045 91.0106
    endloop
  endfacet
  facet normal 0.577348 0.794656 0.187591
    outer loop
      vertex 29.571 76.4518 40.7011
      vertex 77.4181 45.359 25.1547
      vertex 47.847 76.4517 -15.5465
    endloop
  endfacet
  facet normal 0.934172 0.187594 0.30353
    outer loop
      vertex 77.4181 45.359 25.1547
      vertex 77.4182 -4.95041 56.2476
      vertex 95.6941 -4.9505 6.4329e-05
    endloop
  endfacet
  facet normal 0.356823 0.794654 -0.491124
    outer loop
      vertex 47.847 76.4517 -15.5465
      vertex 47.8471 45.3587 -65.8559
      vertex -7.0745e-05 76.4517 -50.3095
    endloop
  endfacet
  facet normal 0.577351 0.18759 -0.794654
    outer loop
      vertex 47.8471 45.3587 -65.8559
      vertex 77.4182 -4.95061 -56.2475
      vertex 29.5711 -4.95065 -91.0105
    endloop
  endfacet
  facet normal -0.356824 0.794653 -0.491124
    outer loop
      vertex -7.0745e-05 76.4517 -50.3095
      vertex -47.8471 45.3587 -65.8559
      vertex -47.8471 76.4517 -15.5465
    endloop
  endfacet
  facet normal -0.577349 0.187592 -0.794656
    outer loop
      vertex -47.8471 45.3587 -65.8559
      vertex -29.5711 -4.95072 -91.0105
      vertex -77.4182 -4.95073 -56.2477
    endloop
  endfacet
  facet normal -0.577352 0.794654 0.187591
    outer loop
      vertex -47.8471 76.4517 -15.5465
      vertex -77.4182 45.3588 25.1546
      vertex -29.5712 76.4518 40.7011
    endloop
  endfacet
  facet normal -0.934173 0.187592 0.30353
    outer loop
      vertex -77.4182 45.3588 25.1546
      vertex -95.6941 -4.95066 0
      vertex -77.4182 -4.95062 56.2476
    endloop
  endfacet
  facet normal 0.947072 0.0914433 0.307722
    outer loop
      vertex 77.4182 -4.95041 56.2476
      vertex 91.0105 -55.9545 29.5712
      vertex 95.6941 -4.9505 6.4329e-05
    endloop
  endfacet
  facet normal 0.99581 -0.0914424 1.68376e-06
    outer loop
      vertex 95.6941 -4.9505 6.4329e-05
      vertex 91.0105 -55.9545 29.5712
      vertex 91.0106 -55.9545 -29.571
    endloop
  endfacet
  facet normal 0.947072 0.0914448 -0.307722
    outer loop
      vertex 95.6941 -4.9505 6.4329e-05
      vertex 91.0106 -55.9545 -29.571
      vertex 77.4182 -4.95061 -56.2475
    endloop
  endfacet
  facet normal 0.805628 -0.0914429 -0.585322
    outer loop
      vertex 77.4182 -4.95061 -56.2475
      vertex 91.0106 -55.9545 -29.571
      vertex 56.2477 -55.9548 -77.418
    endloop
  endfacet
  facet normal 0.585323 0.0914424 -0.805627
    outer loop
      vertex 77.4182 -4.95061 -56.2475
      vertex 56.2477 -55.9548 -77.418
      vertex 29.5711 -4.95065 -91.0105
    endloop
  endfacet
  facet normal 0.307724 -0.0914441 -0.947071
    outer loop
      vertex 29.5711 -4.95065 -91.0105
      vertex 56.2477 -55.9548 -77.418
      vertex 5.2303e-05 -55.9548 -95.6941
    endloop
  endfacet
  facet normal -1.08231e-07 0.0914432 -0.99581
    outer loop
      vertex 29.5711 -4.95065 -91.0105
      vertex 5.2303e-05 -55.9548 -95.6941
      vertex -29.5711 -4.95072 -91.0105
    endloop
  endfacet
  facet normal -0.307723 -0.0914442 -0.947071
    outer loop
      vertex -29.5711 -4.95072 -91.0105
      vertex 5.2303e-05 -55.9548 -95.6941
      vertex -56.2475 -55.9548 -77.4181
    endloop
  endfacet
  facet normal -0.585321 0.0914403 -0.805629
    outer loop
      vertex -29.5711 -4.95072 -91.0105
      vertex -56.2475 -55.9548 -77.4181
      vertex -77.4182 -4.95073 -56.2477
    endloop
  endfacet
  facet normal -0.805626 -0.0914463 -0.585324
    outer loop
      vertex -77.4182 -4.95073 -56.2477
      vertex -56.2475 -55.9548 -77.4181
      vertex -91.0105 -55.9548 -29.5711
    endloop
  endfacet
  facet normal 0 1 -1.77785e-06
    outer loop
      vertex 47.847 76.4517 -15.5465
      vertex -29.5712 76.4518 40.7011
      vertex 29.571 76.4518 40.7011
    endloop
  endfacet
  facet normal 0 1 -1.77785e-06
    outer loop
      vertex 47.847 76.4517 -15.5465
      vertex -47.8471 76.4517 -15.5465
      vertex -29.5712 76.4518 40.7011
    endloop
  endfacet
  facet normal -0 1 0
    outer loop
      vertex -47.8471 76.4517 -15.5465
      vertex 47.847 76.4517 -15.5465
      vertex -7.0745e-05 76.4517 -50.3095
    endloop
  endfacet
  facet normal -0.525733 0.447213 0.723606
    outer loop
      vertex -77.4182 45.3588 25.1546
      vertex -0.000111921 45.3589 81.4023
      vertex -29.5712 76.4518 40.7011
    endloop
  endfacet
  facet normal -0.525733 0.447213 0.723606
    outer loop
      vertex -0.000111921 45.3589 81.4023
      vertex -77.4182 45.3588 25.1546
      vertex -29.5711 -4.95049 91.0105
    endloop
  endfacet
  facet normal -0.525731 0.447214 0.723606
    outer loop
      vertex -29.5711 -4.95049 91.0105
      vertex -77.4182 45.3588 25.1546
      vertex -77.4182 -4.95062 56.2476
    endloop
  endfacet
  facet normal 0.525731 0.447214 0.723606
    outer loop
      vertex 77.4181 45.359 25.1547
      vertex 29.5711 -4.95045 91.0106
      vertex 77.4182 -4.95041 56.2476
    endloop
  endfacet
  facet normal 0.52573 0.447216 0.723606
    outer loop
      vertex -0.000111921 45.3589 81.4023
      vertex 77.4181 45.359 25.1547
      vertex 29.571 76.4518 40.7011
    endloop
  endfacet
  facet normal 0.52573 0.447215 0.723607
    outer loop
      vertex 77.4181 45.359 25.1547
      vertex -0.000111921 45.3589 81.4023
      vertex 29.5711 -4.95045 91.0106
    endloop
  endfacet
  facet normal 0.85065 0.447214 -0.276395
    outer loop
      vertex 95.6941 -4.9505 6.4329e-05
      vertex 47.847 76.4517 -15.5465
      vertex 77.4181 45.359 25.1547
    endloop
  endfacet
  facet normal 0.850651 0.447214 -0.276393
    outer loop
      vertex 47.847 76.4517 -15.5465
      vertex 95.6941 -4.9505 6.4329e-05
      vertex 47.8471 45.3587 -65.8559
    endloop
  endfacet
  facet normal 0.850651 0.447213 -0.276393
    outer loop
      vertex 47.8471 45.3587 -65.8559
      vertex 95.6941 -4.9505 6.4329e-05
      vertex 77.4182 -4.95061 -56.2475
    endloop
  endfacet
  facet normal 8.11324e-07 0.447212 -0.894428
    outer loop
      vertex 29.5711 -4.95065 -91.0105
      vertex -7.0745e-05 76.4517 -50.3095
      vertex 47.8471 45.3587 -65.8559
    endloop
  endfacet
  facet normal -5.29315e-07 0.447212 -0.894428
    outer loop
      vertex -29.5711 -4.95072 -91.0105
      vertex -7.0745e-05 76.4517 -50.3095
      vertex 29.5711 -4.95065 -91.0105
    endloop
  endfacet
  facet normal -4.8419e-07 0.447212 -0.894428
    outer loop
      vertex -7.0745e-05 76.4517 -50.3095
      vertex -29.5711 -4.95072 -91.0105
      vertex -47.8471 45.3587 -65.8559
    endloop
  endfacet
  facet normal -0.850651 0.447213 -0.276393
    outer loop
      vertex -95.6941 -4.95066 0
      vertex -47.8471 76.4517 -15.5465
      vertex -47.8471 45.3587 -65.8559
    endloop
  endfacet
  facet normal -0.850651 0.447212 -0.276395
    outer loop
      vertex -47.8471 76.4517 -15.5465
      vertex -95.6941 -4.95066 0
      vertex -77.4182 45.3588 25.1546
    endloop
  endfacet
  facet normal -0.850651 0.447213 -0.276393
    outer loop
      vertex -95.6941 -4.95066 0
      vertex -47.8471 45.3587 -65.8559
      vertex -77.4182 -4.95073 -56.2477
    endloop
  endfacet
  facet normal 1.77785e-06 -1 5.47169e-06
    outer loop
      vertex -56.2476 -55.9547 77.4183
      vertex 56.2476 -55.9545 77.4183
      vertex 2.46e-07 -55.9545 95.6942
    endloop
  endfacet
  facet normal 1.77785e-06 -1 1.29168e-06
    outer loop
      vertex -56.2476 -55.9547 77.4183
      vertex 91.0105 -55.9545 29.5712
      vertex 56.2476 -55.9545 77.4183
    endloop
  endfacet
  facet normal 1.09877e-06 -1 -7.98305e-07
    outer loop
      vertex -91.0105 -55.9547 29.5712
      vertex 91.0105 -55.9545 29.5712
      vertex -56.2476 -55.9547 77.4183
    endloop
  endfacet
  facet normal 1.09877e-06 -1 1.85785e-12
    outer loop
      vertex -91.0105 -55.9547 29.5712
      vertex 91.0106 -55.9545 -29.571
      vertex 91.0105 -55.9545 29.5712
    endloop
  endfacet
  facet normal 1.64816e-06 -1 1.69084e-06
    outer loop
      vertex -91.0105 -55.9548 -29.5711
      vertex 91.0106 -55.9545 -29.571
      vertex -91.0105 -55.9547 29.5712
    endloop
  endfacet
  facet normal 1.64816e-06 -1 5.07253e-06
    outer loop
      vertex -91.0105 -55.9548 -29.5711
      vertex 56.2477 -55.9548 -77.418
      vertex 91.0106 -55.9545 -29.571
    endloop
  endfacet
  facet normal 0 -1 0
    outer loop
      vertex -56.2475 -55.9548 -77.4181
      vertex 56.2477 -55.9548 -77.418
      vertex -91.0105 -55.9548 -29.5711
    endloop
  endfacet
  facet normal 0 -1 0
    outer loop
      vertex 56.2477 -55.9548 -77.418
      vertex -56.2475 -55.9548 -77.4181
      vertex 5.2303e-05 -55.9548 -95.6941
    endloop
  endfacet
endsolid OpenSCAD_Model
