<?xml version="1.0" standalone="no"?>
<!DOCTYPE svg PUBLIC "-//W3C//DTD SVG 1.1//EN" "http://www.w3.org/Graphics/SVG/1.1/DTD/svg11.dtd">
<svg width="54mm" height="54mm" viewBox="-3 -51 54 54" xmlns="http://www.w3.org/2000/svg" version="1.1">
<title>OpenSCAD Model</title>
<path d="
M 2.7168,-49.9315 L 2.61679,-50.0315 L 0,-50.1 L -0.0999908,-50 L 0,-49.9 L 2.61679,-49.8315
 z
M 7.92172,-49.3844 L 7.82172,-49.4844 L 5.22641,-49.8261 L 5.12642,-49.7261 L 5.22641,-49.6261 L 7.82172,-49.2844
 z
M 13.0409,-48.2963 L 12.9409,-48.3963 L 10.3956,-49.0074 L 10.2956,-48.9074 L 10.3956,-48.8074 L 12.9409,-48.1963
 z
M 18.0184,-46.679 L 17.9184,-46.779 L 15.4508,-47.6528 L 15.3508,-47.5528 L 15.4508,-47.4528 L 17.9184,-46.579
 z
M 22.7995,-44.5503 L 22.6995,-44.6503 L 20.3368,-45.7773 L 20.2368,-45.6773 L 20.3368,-45.5773 L 22.6995,-44.4503
 z
M 27.3319,-41.9335 L 27.2319,-42.0335 L 25,-43.4013 L 24.9,-43.3013 L 25,-43.2013 L 27.2319,-41.8335
 z
M 31.566,-38.8573 L 31.466,-38.9573 L 29.3893,-40.5508 L 29.2893,-40.4508 L 29.3893,-40.3508 L 31.466,-38.7573
 z
M -0.058197,2.08524 L -0.0289154,2.01453 L 0.640137,-0.482391 L 3.13705,-1.15144 L 3.20776,-1.18073 L 3.23706,-1.25145
 L 3.20776,-1.32216 L 3.13705,-1.35144 L 0.834473,-0.734467 L 33.8027,-33.7027 L 33.2553,-31.8912 L 33.2846,-31.8205
 L 33.3553,-31.7912 L 33.426,-31.8205 L 35.426,-35.2846 L 35.4553,-35.3553 L 35.426,-35.426 L 35.3553,-35.4553
 L 33.4565,-37.2572 L 33.3565,-37.1572 L 33.4565,-37.0572 L 35.2167,-35.3868 L 31.8205,-33.426 L 31.7912,-33.3553
 L 31.8205,-33.2846 L 31.8912,-33.2553 L 33.7027,-33.8027 L 0.734467,-0.834473 L 1.35144,-3.13705 L 1.32216,-3.20776
 L 1.25145,-3.23706 L 1.18073,-3.20776 L 1.15144,-3.13705 L 0.482391,-0.640137 L -2.01453,0.0289154 L -2.08524,0.058197
 L -2.11453,0.128906 L -2.08524,0.199615 L -2.01453,0.228912 L 0.424667,-0.424667 L -0.228912,2.01453 L -0.199615,2.08524
 L -0.128906,2.11453 z
M 38.9573,-31.466 L 37.2572,-33.4565 L 37.1572,-33.5565 L 37.0572,-33.4565 L 38.7573,-31.466 L 38.8573,-31.366
 z
M 42.0335,-27.2319 L 40.5508,-29.3893 L 40.4508,-29.4893 L 40.3508,-29.3893 L 41.8335,-27.2319 L 41.9335,-27.1319
 z
M 44.6503,-22.6995 L 43.4013,-25 L 43.3013,-25.1 L 43.2013,-25 L 44.4503,-22.6995 L 44.5503,-22.5995
 z
M 18.6265,-20.0641 L 18.1492,-20.5413 L 18.0944,-20.6028 L 18.0533,-20.6639 L 18.0257,-20.7238 L 18.0114,-20.7819
 L 18.0102,-20.8377 L 18.0217,-20.8911 L 18.046,-20.9411 L 18.083,-20.9866 L 18.1242,-21.0227 L 18.1641,-21.0472
 L 18.2041,-21.0594 L 18.2459,-21.059 L 18.2899,-21.0456 L 18.3365,-21.0194 L 18.3875,-20.9798 L 18.4446,-20.9265
 L 18.9668,-20.4043 L 19.1023,-20.5398 L 18.625,-21.0171 L 18.5689,-21.0798 L 18.5272,-21.1415 L 18.4994,-21.2017
 L 18.4853,-21.2595 L 18.4845,-21.3149 L 18.4967,-21.3676 L 18.5216,-21.417 L 18.5588,-21.4624 L 18.6,-21.4985
 L 18.6398,-21.5229 L 18.6799,-21.5352 L 18.7216,-21.5347 L 18.7656,-21.5214 L 18.8122,-21.4951 L 18.8632,-21.4556
 L 18.9203,-21.4023 L 19.4425,-20.8801 L 19.578,-21.0156 L 19.0292,-21.5644 L 18.9549,-21.6319 L 18.8842,-21.682
 L 18.8165,-21.7146 L 18.7513,-21.7296 L 18.6879,-21.727 L 18.6254,-21.7071 L 18.5632,-21.6701 L 18.5009,-21.6162
 L 18.4576,-21.5674 L 18.4252,-21.5184 L 18.4023,-21.4689 L 18.3879,-21.4186 L 18.3817,-21.3677 L 18.3837,-21.3163
 L 18.3926,-21.2639 L 18.4073,-21.2104 L 18.405,-21.2082 L 18.305,-21.249 L 18.2105,-21.2512 L 18.1183,-21.2149
 L 18.0251,-21.1404 L 17.9821,-21.0919 L 17.9505,-21.0437 L 17.929,-20.9956 L 17.9163,-20.9471 L 17.9119,-20.898
 L 17.9155,-20.8481 L 17.9256,-20.7969 L 17.9407,-20.7438 L 17.9384,-20.7415 L 17.9211,-20.7584 L 17.8999,-20.7784
 L 17.8768,-20.7999 L 17.8539,-20.8207 L 17.8324,-20.8401 L 17.8135,-20.8572 L 17.7993,-20.87 L 17.7915,-20.8763
 L 17.662,-20.7469 L 17.6714,-20.739 L 17.6872,-20.7248 L 17.708,-20.7055 L 17.7325,-20.6825 L 17.7594,-20.657
 L 17.7876,-20.6296 L 17.8158,-20.602 L 17.8425,-20.5756 L 18.4902,-19.9278 z
M 17.8599,-19.3325 L 17.9594,-19.3829 L 18.057,-19.4642 L 18.1211,-19.539 L 18.1655,-19.616 L 18.1924,-19.6933
 L 18.2036,-19.769 L 18.2001,-19.8428 L 18.1826,-19.914 L 18.1534,-19.981 L 18.1141,-20.0419 L 17.9665,-19.9125
 L 18.0172,-19.8201 L 18.0277,-19.7302 L 18.0023,-19.6454 L 17.9451,-19.5684 L 17.8853,-19.5204 L 17.823,-19.4935
 L 17.7585,-19.4859 L 17.692,-19.4958 L 17.6241,-19.522 L 17.555,-19.5635 L 17.4851,-19.618 L 17.4146,-19.6834
 L 17.3424,-19.7608 L 17.2856,-19.833 L 17.245,-19.9011 L 17.2216,-19.9662 L 17.2154,-20.0285 L 17.2266,-20.0883
 L 17.2561,-20.147 L 17.305,-20.2056 L 17.3859,-20.2663 L 17.4686,-20.2886 L 17.5512,-20.2764 L 17.6315,-20.2337
 L 17.7617,-20.3852 L 17.6982,-20.4218 L 17.6308,-20.4476 L 17.5607,-20.4615 L 17.4892,-20.4621 L 17.4167,-20.4488
 L 17.3438,-20.421 L 17.2717,-20.3774 L 17.2015,-20.3167 L 17.1597,-20.2706 L 17.1227,-20.2204 L 17.0917,-20.1667
 L 17.0682,-20.1096 L 17.0531,-20.0492 L 17.0473,-19.9852 L 17.0522,-19.9177 L 17.069,-19.847 L 17.0986,-19.7735
 L 17.1417,-19.6975 L 17.1998,-19.6188 L 17.2745,-19.5372 L 17.3673,-19.454 L 17.4629,-19.3869 L 17.5606,-19.3389
 L 17.6597,-19.3127 L 17.7596,-19.31 z
M 46.779,-17.9184 L 45.7773,-20.3368 L 45.6773,-20.4368 L 45.5773,-20.3368 L 46.579,-17.9184 L 46.679,-17.8184
 z
M 16.4596,-18.0151 L 16.5387,-18.0325 L 16.6202,-18.0669 L 16.7033,-18.1203 L 16.7873,-18.1944 L 16.8686,-18.2891
 L 16.9255,-18.3858 L 16.9588,-18.4833 L 16.9696,-18.58 L 16.9587,-18.675 L 16.9266,-18.7676 L 16.8745,-18.8563
 L 16.8033,-18.9397 L 16.7264,-19.0044 L 16.6434,-19.0508 L 16.5566,-19.0787 L 16.468,-19.0877 L 16.3788,-19.0775
 L 16.2902,-19.0477 L 16.204,-18.998 L 16.122,-18.9282 L 16.0568,-18.8529 L 16.012,-18.7779 L 15.9839,-18.7055
 L 15.969,-18.6382 L 15.6493,-18.999 L 16.1342,-19.4839 L 16.0177,-19.6004 L 15.408,-18.9906 L 15.9492,-18.3779
 L 16.0832,-18.5118 L 16.0864,-18.545 L 16.0916,-18.5788 L 16.0996,-18.6134 L 16.1117,-18.6485 L 16.128,-18.6838
 L 16.1486,-18.7189 L 16.1743,-18.7537 L 16.2057,-18.7882 L 16.2618,-18.8358 L 16.3203,-18.8692 L 16.3801,-18.8888
 L 16.4398,-18.8951 L 16.499,-18.8884 L 16.557,-18.8692 L 16.6125,-18.8378 L 16.664,-18.7943 L 16.7165,-18.7334
 L 16.7538,-18.6709 L 16.7764,-18.6078 L 16.7846,-18.5449 L 16.7787,-18.4829 L 16.7587,-18.4224 L 16.7252,-18.3642
 L 16.6785,-18.3094 L 16.6244,-18.262 L 16.5719,-18.2294 L 16.5209,-18.2096 L 16.4714,-18.2005 L 16.4239,-18.201
 L 16.3789,-18.21 L 16.3364,-18.2255 L 16.2963,-18.2454 L 16.1738,-18.0909 L 16.2397,-18.0537 L 16.3096,-18.0273
 L 16.3831,-18.0138 z
M 15.1019,-16.5394 L 14.6566,-16.9847 L 14.9907,-17.3189 L 15.7147,-17.1522 L 15.8821,-17.3197 L 15.1156,-17.4773
 L 15.1633,-17.5581 L 15.1925,-17.6379 L 15.205,-17.7155 L 15.2031,-17.7901 L 15.1876,-17.861 L 15.1593,-17.9275
 L 15.1206,-17.9885 L 15.0737,-18.0428 L 14.9995,-18.1045 L 14.92,-18.1464 L 14.8364,-18.1682 L 14.7502,-18.17
 L 14.6617,-18.1513 L 14.5713,-18.1121 L 14.48,-18.0522 L 14.3886,-17.9713 L 13.8839,-17.4666 L 14.9565,-16.394
 z
M 14.1458,-17.4955 L 14.4906,-17.8404 L 14.5484,-17.8922 L 14.606,-17.9321 L 14.663,-17.9595 L 14.7194,-17.9739
 L 14.7745,-17.9752 L 14.8279,-17.9629 L 14.8794,-17.9364 L 14.9291,-17.8952 L 14.9674,-17.8498 L 14.9957,-17.8004
 L 15.0126,-17.7477 L 15.017,-17.6923 L 15.0081,-17.6344 L 14.985,-17.5743 L 14.9469,-17.5127 L 14.8925,-17.4506
 L 14.5416,-17.0997 z
M 48.3963,-12.9409 L 47.6528,-15.4508 L 47.5528,-15.5508 L 47.4528,-15.4508 L 48.1963,-12.9409 L 48.2963,-12.8409
 z
M 49.4844,-7.82172 L 49.0074,-10.3956 L 48.9074,-10.4956 L 48.8074,-10.3956 L 49.2844,-7.82172 L 49.3844,-7.72171
 z
M 50.0315,-2.61679 L 49.8261,-5.22641 L 49.7261,-5.32642 L 49.6261,-5.22641 L 49.8315,-2.61679 L 49.9315,-2.51678
 z
" stroke="black" fill="lightgray" stroke-width="0.5"/>
</svg>
