<?xml version="1.0" encoding="UTF-8" standalone="no"?>
<!DOCTYPE svg PUBLIC "-//W3C//DTD SVG 1.1//EN"
 "http://www.w3.org/Graphics/SVG/1.1/DTD/svg11.dtd">
<!-- Generated by graphviz version 2.43.0 (0)
 -->
<!-- Title: consts Pages: 1 -->
<svg width="329pt" height="275pt"
 viewBox="0.00 0.00 329.00 275.00" xmlns="http://www.w3.org/2000/svg" xmlns:xlink="http://www.w3.org/1999/xlink">
<g id="graph0" class="graph" transform="scale(1 1) rotate(0) translate(4 271)">
<title>consts</title>
<polygon fill="white" stroke="transparent" points="-4,4 -4,-271 325,-271 325,4 -4,4"/>
<!-- Node1 -->
<g id="node1" class="node">
<title>Node1</title>
<g id="a_node1"><a xlink:title="Create a list of constant or incrementing elements.">
<polygon fill="#bfbfbf" stroke="black" points="273,-95.5 273,-114.5 321,-114.5 321,-95.5 273,-95.5"/>
<text text-anchor="middle" x="297" y="-102.5" font-family="Helvetica,sans-Serif" font-size="10.00">consts</text>
</a>
</g>
</g>
<!-- Node2 -->
<g id="node2" class="node">
<title>Node2</title>
<g id="a_node2"><a xlink:href="group__tools__drafting__operation.html#gac1b780633ac5e2874a8a00177d98b305" target="_top" xlink:title="Construct a text note with optional heading and boarder.">
<polygon fill="white" stroke="black" points="153,-190.5 153,-209.5 219,-209.5 219,-190.5 153,-190.5"/>
<text text-anchor="middle" x="186" y="-197.5" font-family="Helvetica,sans-Serif" font-size="10.00">draft_note</text>
</a>
</g>
</g>
<!-- Node1&#45;&gt;Node2 -->
<g id="edge1" class="edge">
<title>Node1&#45;&gt;Node2</title>
<path fill="none" stroke="midnightblue" d="M285.68,-123.53C275.35,-140.57 257.99,-165.47 237,-181 231.62,-184.98 225.32,-188.22 219.03,-190.83"/>
<polygon fill="midnightblue" stroke="midnightblue" points="288.91,-124.94 290.92,-114.54 282.86,-121.41 288.91,-124.94"/>
</g>
<!-- Node7 -->
<g id="node7" class="node">
<title>Node7</title>
<g id="a_node7"><a xlink:href="group__tools__drafting__primitive.html#gada1e771ce89ef86b6241c43dc01bf62d" target="_top" xlink:title="Draft a polygon with configurable style.">
<polygon fill="white" stroke="black" points="144.5,-152.5 144.5,-171.5 227.5,-171.5 227.5,-152.5 144.5,-152.5"/>
<text text-anchor="middle" x="186" y="-159.5" font-family="Helvetica,sans-Serif" font-size="10.00">draft_polygon</text>
</a>
</g>
</g>
<!-- Node1&#45;&gt;Node7 -->
<g id="edge6" class="edge">
<title>Node1&#45;&gt;Node7</title>
<path fill="none" stroke="midnightblue" d="M274.44,-120.43C263.54,-127.83 249.91,-136.48 237,-143 230.12,-146.47 222.45,-149.69 215.21,-152.46"/>
<polygon fill="midnightblue" stroke="midnightblue" points="276.66,-123.16 282.88,-114.59 272.67,-117.4 276.66,-123.16"/>
</g>
<!-- Node8 -->
<g id="node8" class="node">
<title>Node8</title>
<g id="a_node8"><a xlink:href="group__datatypes__map.html#ga680cb75c8d9f3769064128e9c3d5800e" target="_top" xlink:title="Dump each map entry to the console.">
<polygon fill="white" stroke="black" points="150.5,-114.5 150.5,-133.5 221.5,-133.5 221.5,-114.5 150.5,-114.5"/>
<text text-anchor="middle" x="186" y="-121.5" font-family="Helvetica,sans-Serif" font-size="10.00">map_dump</text>
</a>
</g>
</g>
<!-- Node1&#45;&gt;Node8 -->
<g id="edge7" class="edge">
<title>Node1&#45;&gt;Node8</title>
<path fill="none" stroke="midnightblue" d="M262.91,-110.77C249.87,-113.04 234.88,-115.65 221.68,-117.95"/>
<polygon fill="midnightblue" stroke="midnightblue" points="263.63,-114.19 272.88,-109.03 262.43,-107.3 263.63,-114.19"/>
</g>
<!-- Node9 -->
<g id="node9" class="node">
<title>Node9</title>
<g id="a_node9"><a xlink:href="group__tools__polytope.html#ga530c86f9c90ce074aa7adc29834f0539" target="_top" xlink:title="Assemble a polytope skeletal frame using child objects.">
<polygon fill="white" stroke="black" points="139,-76.5 139,-95.5 233,-95.5 233,-76.5 139,-76.5"/>
<text text-anchor="middle" x="186" y="-83.5" font-family="Helvetica,sans-Serif" font-size="10.00">polytope_frame</text>
</a>
</g>
</g>
<!-- Node1&#45;&gt;Node9 -->
<g id="edge8" class="edge">
<title>Node1&#45;&gt;Node9</title>
<path fill="none" stroke="midnightblue" d="M262.89,-99.23C253.6,-97.61 243.33,-95.82 233.42,-94.09"/>
<polygon fill="midnightblue" stroke="midnightblue" points="262.43,-102.7 272.88,-100.97 263.63,-95.81 262.43,-102.7"/>
</g>
<!-- Node10 -->
<g id="node10" class="node">
<title>Node10</title>
<g id="a_node10"><a xlink:href="group__tools__polytope.html#ga00b574079f19251be7281151d11db8fa" target="_top" xlink:title="Label the vertices, paths, and edges of a polytope.">
<polygon fill="white" stroke="black" points="135,-38.5 135,-57.5 237,-57.5 237,-38.5 135,-38.5"/>
<text text-anchor="middle" x="186" y="-45.5" font-family="Helvetica,sans-Serif" font-size="10.00">polytope_number</text>
</a>
</g>
</g>
<!-- Node1&#45;&gt;Node10 -->
<g id="edge9" class="edge">
<title>Node1&#45;&gt;Node10</title>
<path fill="none" stroke="midnightblue" d="M274.44,-89.57C263.54,-82.17 249.91,-73.52 237,-67 230.12,-63.53 222.45,-60.31 215.21,-57.54"/>
<polygon fill="midnightblue" stroke="midnightblue" points="272.67,-92.6 282.88,-95.41 276.66,-86.84 272.67,-92.6"/>
</g>
<!-- Node11 -->
<g id="node11" class="node">
<title>Node11</title>
<g id="a_node11"><a xlink:href="group__datatypes__table.html#gaafc45abc1b8026ee1518fad87a042be3" target="_top" xlink:title="Dump a table to the console.">
<polygon fill="white" stroke="black" points="149,-0.5 149,-19.5 223,-19.5 223,-0.5 149,-0.5"/>
<text text-anchor="middle" x="186" y="-7.5" font-family="Helvetica,sans-Serif" font-size="10.00">table_dump</text>
</a>
</g>
</g>
<!-- Node1&#45;&gt;Node11 -->
<g id="edge10" class="edge">
<title>Node1&#45;&gt;Node11</title>
<path fill="none" stroke="midnightblue" d="M285.68,-86.47C275.35,-69.43 257.99,-44.53 237,-29 231.85,-25.19 225.84,-22.05 219.82,-19.5"/>
<polygon fill="midnightblue" stroke="midnightblue" points="282.86,-88.59 290.92,-95.46 288.91,-85.06 282.86,-88.59"/>
</g>
<!-- Node3 -->
<g id="node3" class="node">
<title>Node3</title>
<g id="a_node3"><a xlink:href="group__tools__drafting__dimension.html#ga6b8e17d22ac4a95d25a90be8a74c0689" target="_top" xlink:title="Construct a angular dimension arc.">
<polygon fill="white" stroke="black" points="2,-247.5 2,-266.5 97,-266.5 97,-247.5 2,-247.5"/>
<text text-anchor="middle" x="49.5" y="-254.5" font-family="Helvetica,sans-Serif" font-size="10.00">draft_dim_angle</text>
</a>
</g>
</g>
<!-- Node2&#45;&gt;Node3 -->
<g id="edge2" class="edge">
<title>Node2&#45;&gt;Node3</title>
<path fill="none" stroke="midnightblue" d="M154.78,-213.73C138.35,-221.1 117.64,-230.23 99,-238 91.49,-241.13 83.26,-244.41 75.75,-247.34"/>
<polygon fill="midnightblue" stroke="midnightblue" points="156.22,-216.92 163.9,-209.62 153.35,-210.54 156.22,-216.92"/>
</g>
<!-- Node4 -->
<g id="node4" class="node">
<title>Node4</title>
<g id="a_node4"><a xlink:href="group__tools__drafting__dimension.html#ga5c4915c4c4464c5cdaefd501c2de261d" target="_top" xlink:title="Construct a dimension leader line at a point.">
<polygon fill="white" stroke="black" points="0,-209.5 0,-228.5 99,-228.5 99,-209.5 0,-209.5"/>
<text text-anchor="middle" x="49.5" y="-216.5" font-family="Helvetica,sans-Serif" font-size="10.00">draft_dim_leader</text>
</a>
</g>
</g>
<!-- Node2&#45;&gt;Node4 -->
<g id="edge3" class="edge">
<title>Node2&#45;&gt;Node4</title>
<path fill="none" stroke="midnightblue" d="M142.57,-205.99C128.73,-207.95 113.27,-210.13 99.02,-212.15"/>
<polygon fill="midnightblue" stroke="midnightblue" points="143.37,-209.42 152.78,-204.55 142.39,-202.48 143.37,-209.42"/>
</g>
<!-- Node5 -->
<g id="node5" class="node">
<title>Node5</title>
<g id="a_node5"><a xlink:href="group__tools__drafting__dimension.html#ga27a35e94597435a74e22d76789e9be5e" target="_top" xlink:title="Construct a dimension line between two points.">
<polygon fill="white" stroke="black" points="6.5,-171.5 6.5,-190.5 92.5,-190.5 92.5,-171.5 6.5,-171.5"/>
<text text-anchor="middle" x="49.5" y="-178.5" font-family="Helvetica,sans-Serif" font-size="10.00">draft_dim_line</text>
</a>
</g>
</g>
<!-- Node2&#45;&gt;Node5 -->
<g id="edge4" class="edge">
<title>Node2&#45;&gt;Node5</title>
<path fill="none" stroke="midnightblue" d="M142.66,-194.02C126.7,-191.76 108.57,-189.2 92.64,-186.95"/>
<polygon fill="midnightblue" stroke="midnightblue" points="142.39,-197.52 152.78,-195.45 143.37,-190.58 142.39,-197.52"/>
</g>
<!-- Node6 -->
<g id="node6" class="node">
<title>Node6</title>
<g id="a_node6"><a xlink:href="group__tools__drafting__dimension.html#gaef1a8150a8ef7be88e086fb3dbab64a9" target="_top" xlink:title="Construct a radial dimension line.">
<polygon fill="white" stroke="black" points="0.5,-133.5 0.5,-152.5 98.5,-152.5 98.5,-133.5 0.5,-133.5"/>
<text text-anchor="middle" x="49.5" y="-140.5" font-family="Helvetica,sans-Serif" font-size="10.00">draft_dim_radius</text>
</a>
</g>
</g>
<!-- Node2&#45;&gt;Node6 -->
<g id="edge5" class="edge">
<title>Node2&#45;&gt;Node6</title>
<path fill="none" stroke="midnightblue" d="M148.64,-186.78C144.01,-184.93 139.37,-182.98 135,-181 118.51,-173.55 115.45,-169.53 99,-162 91.76,-158.69 83.77,-155.41 76.4,-152.53"/>
<polygon fill="midnightblue" stroke="midnightblue" points="147.44,-190.07 158.02,-190.44 149.98,-183.55 147.44,-190.07"/>
</g>
</g>
</svg>
