<?xml version="1.0" encoding="UTF-8" standalone="no"?>
<!DOCTYPE svg PUBLIC "-//W3C//DTD SVG 1.1//EN"
 "http://www.w3.org/Graphics/SVG/1.1/DTD/svg11.dtd">
<!-- Generated by graphviz version 2.43.0 (0)
 -->
<!-- Title: angle_ll Pages: 1 -->
<svg width="715pt" height="598pt"
 viewBox="0.00 0.00 715.00 598.00" xmlns="http://www.w3.org/2000/svg" xmlns:xlink="http://www.w3.org/1999/xlink">
<g id="graph0" class="graph" transform="scale(1 1) rotate(0) translate(4 594)">
<title>angle_ll</title>
<polygon fill="white" stroke="transparent" points="-4,4 -4,-594 711,-594 711,4 -4,4"/>
<!-- Node1 -->
<g id="node1" class="node">
<title>Node1</title>
<g id="a_node1"><a xlink:title="Compute the angle between two lines or vectors in a 3d or 2d&#45;space.">
<polygon fill="#bfbfbf" stroke="black" points="652,-342.5 652,-361.5 707,-361.5 707,-342.5 652,-342.5"/>
<text text-anchor="middle" x="679.5" y="-349.5" font-family="Helvetica,sans-Serif" font-size="10.00">angle_ll</text>
</a>
</g>
</g>
<!-- Node2 -->
<g id="node2" class="node">
<title>Node2</title>
<g id="a_node2"><a xlink:href="group__tools__align.html#ga7a21147611850c6cae7e95d23417099b" target="_top" xlink:title="Align a line or vector to a reference line or vector.">
<polygon fill="white" stroke="black" points="549.5,-494.5 549.5,-513.5 601.5,-513.5 601.5,-494.5 549.5,-494.5"/>
<text text-anchor="middle" x="575.5" y="-501.5" font-family="Helvetica,sans-Serif" font-size="10.00">align_ll</text>
</a>
</g>
</g>
<!-- Node1&#45;&gt;Node2 -->
<g id="edge1" class="edge">
<title>Node1&#45;&gt;Node2</title>
<path fill="none" stroke="midnightblue" d="M672.82,-371.56C664.2,-398.55 645.59,-447.56 616,-480 610.7,-485.81 603.67,-490.69 597.01,-494.5"/>
<polygon fill="midnightblue" stroke="midnightblue" points="676.24,-372.34 675.82,-361.76 669.55,-370.29 676.24,-372.34"/>
</g>
<!-- Node6 -->
<g id="node6" class="node">
<title>Node6</title>
<g id="a_node6"><a xlink:href="group__tools__drafting__dimension.html#ga6b8e17d22ac4a95d25a90be8a74c0689" target="_top" xlink:title="Construct a angular dimension arc.">
<polygon fill="white" stroke="black" points="2,-570.5 2,-589.5 97,-589.5 97,-570.5 2,-570.5"/>
<text text-anchor="middle" x="49.5" y="-577.5" font-family="Helvetica,sans-Serif" font-size="10.00">draft_dim_angle</text>
</a>
</g>
</g>
<!-- Node1&#45;&gt;Node6 -->
<g id="edge20" class="edge">
<title>Node1&#45;&gt;Node6</title>
<path fill="none" stroke="midnightblue" d="M676.83,-371.7C672.77,-407 659.32,-481.23 616,-523 553.76,-583.02 516.46,-580 430,-580 430,-580 430,-580 277,-580 214.87,-580 143.15,-580 97.35,-580"/>
<polygon fill="midnightblue" stroke="midnightblue" points="680.31,-372 677.84,-361.7 673.35,-371.3 680.31,-372"/>
</g>
<!-- Node7 -->
<g id="node7" class="node">
<title>Node7</title>
<g id="a_node7"><a xlink:href="group__tools__drafting__primitive.html#ga6f12ccd4c9de0a8ab887184911f39c8f" target="_top" xlink:title="Draft an arrowhead at the terminal point of a line.">
<polygon fill="white" stroke="black" points="242,-456.5 242,-475.5 314,-475.5 314,-456.5 242,-456.5"/>
<text text-anchor="middle" x="278" y="-463.5" font-family="Helvetica,sans-Serif" font-size="10.00">draft_arrow</text>
</a>
</g>
</g>
<!-- Node1&#45;&gt;Node7 -->
<g id="edge19" class="edge">
<title>Node1&#45;&gt;Node7</title>
<path fill="none" stroke="midnightblue" d="M671.2,-371.15C661.92,-392.54 643.71,-426.23 616,-442 518.51,-497.49 378.6,-483.47 314.06,-472.82"/>
<polygon fill="midnightblue" stroke="midnightblue" points="674.49,-372.35 675.04,-361.77 668.01,-369.7 674.49,-372.35"/>
</g>
<!-- Node8 -->
<g id="node8" class="node">
<title>Node8</title>
<g id="a_node8"><a xlink:href="group__tools__drafting__primitive.html#ga060910368142d6371cf4f3f30be7561e" target="_top" xlink:title="Draft a line with configurable style and optional arrowheads.">
<polygon fill="white" stroke="black" points="135,-437.5 135,-456.5 197,-456.5 197,-437.5 135,-437.5"/>
<text text-anchor="middle" x="166" y="-444.5" font-family="Helvetica,sans-Serif" font-size="10.00">draft_line</text>
</a>
</g>
</g>
<!-- Node1&#45;&gt;Node8 -->
<g id="edge25" class="edge">
<title>Node1&#45;&gt;Node8</title>
<path fill="none" stroke="midnightblue" d="M663.21,-369.32C651.56,-381.27 634.42,-396.33 616,-404 539.92,-435.69 285.38,-444.34 197.3,-446.41"/>
<polygon fill="midnightblue" stroke="midnightblue" points="666.08,-371.38 670.35,-361.68 660.97,-366.6 666.08,-371.38"/>
</g>
<!-- Node10 -->
<g id="node10" class="node">
<title>Node10</title>
<g id="a_node10"><a xlink:href="group__tools__drafting__dimension.html#ga4866c090b81b437e2f1f707d28ad8ec7" target="_top" xlink:title="Construct a center mark dimension cross.">
<polygon fill="white" stroke="black" points="0,-380.5 0,-399.5 99,-399.5 99,-380.5 0,-380.5"/>
<text text-anchor="middle" x="49.5" y="-387.5" font-family="Helvetica,sans-Serif" font-size="10.00">draft_dim_center</text>
</a>
</g>
</g>
<!-- Node1&#45;&gt;Node10 -->
<g id="edge21" class="edge">
<title>Node1&#45;&gt;Node10</title>
<path fill="none" stroke="midnightblue" d="M641.9,-361.16C593.67,-372.4 506.03,-390 430,-390 430,-390 430,-390 277,-390 215.66,-390 144.97,-390 99.1,-390"/>
<polygon fill="midnightblue" stroke="midnightblue" points="642.94,-364.51 651.86,-358.79 641.32,-357.7 642.94,-364.51"/>
</g>
<!-- Node11 -->
<g id="node11" class="node">
<title>Node11</title>
<g id="a_node11"><a xlink:href="group__tools__drafting__dimension.html#ga5c4915c4c4464c5cdaefd501c2de261d" target="_top" xlink:title="Construct a dimension leader line at a point.">
<polygon fill="white" stroke="black" points="0,-342.5 0,-361.5 99,-361.5 99,-342.5 0,-342.5"/>
<text text-anchor="middle" x="49.5" y="-349.5" font-family="Helvetica,sans-Serif" font-size="10.00">draft_dim_leader</text>
</a>
</g>
</g>
<!-- Node1&#45;&gt;Node11 -->
<g id="edge22" class="edge">
<title>Node1&#45;&gt;Node11</title>
<path fill="none" stroke="midnightblue" d="M641.63,-352C593.11,-352 505.16,-352 430,-352 430,-352 430,-352 277,-352 215.66,-352 144.97,-352 99.1,-352"/>
<polygon fill="midnightblue" stroke="midnightblue" points="641.66,-355.5 651.66,-352 641.66,-348.5 641.66,-355.5"/>
</g>
<!-- Node12 -->
<g id="node12" class="node">
<title>Node12</title>
<g id="a_node12"><a xlink:href="group__tools__drafting__dimension.html#ga27a35e94597435a74e22d76789e9be5e" target="_top" xlink:title="Construct a dimension line between two points.">
<polygon fill="white" stroke="black" points="6.5,-304.5 6.5,-323.5 92.5,-323.5 92.5,-304.5 6.5,-304.5"/>
<text text-anchor="middle" x="49.5" y="-311.5" font-family="Helvetica,sans-Serif" font-size="10.00">draft_dim_line</text>
</a>
</g>
</g>
<!-- Node1&#45;&gt;Node12 -->
<g id="edge23" class="edge">
<title>Node1&#45;&gt;Node12</title>
<path fill="none" stroke="midnightblue" d="M641.9,-342.84C593.67,-331.6 506.03,-314 430,-314 430,-314 430,-314 277,-314 212.71,-314 138.15,-314 92.66,-314"/>
<polygon fill="midnightblue" stroke="midnightblue" points="641.32,-346.3 651.86,-345.21 642.94,-339.49 641.32,-346.3"/>
</g>
<!-- Node13 -->
<g id="node13" class="node">
<title>Node13</title>
<g id="a_node13"><a xlink:href="group__tools__drafting__dimension.html#gaef1a8150a8ef7be88e086fb3dbab64a9" target="_top" xlink:title="Construct a radial dimension line.">
<polygon fill="white" stroke="black" points="0.5,-266.5 0.5,-285.5 98.5,-285.5 98.5,-266.5 0.5,-266.5"/>
<text text-anchor="middle" x="49.5" y="-273.5" font-family="Helvetica,sans-Serif" font-size="10.00">draft_dim_radius</text>
</a>
</g>
</g>
<!-- Node1&#45;&gt;Node13 -->
<g id="edge24" class="edge">
<title>Node1&#45;&gt;Node13</title>
<path fill="none" stroke="midnightblue" d="M654.26,-337.32C642.95,-330.97 629.12,-323.88 616,-319 536.49,-289.39 514.85,-276 430,-276 430,-276 430,-276 277,-276 215.46,-276 144.51,-276 98.66,-276"/>
<polygon fill="midnightblue" stroke="midnightblue" points="652.69,-340.45 663.1,-342.42 656.19,-334.39 652.69,-340.45"/>
</g>
<!-- Node17 -->
<g id="node17" class="node">
<title>Node17</title>
<g id="a_node17"><a xlink:href="group__tools__align.html#ga8f52a6a936d0f5e248f836d19df14a9f" target="_top" xlink:title="Orient a line or vector to a reference line or vector.">
<polygon fill="white" stroke="black" points="547.5,-228.5 547.5,-247.5 603.5,-247.5 603.5,-228.5 547.5,-228.5"/>
<text text-anchor="middle" x="575.5" y="-235.5" font-family="Helvetica,sans-Serif" font-size="10.00">orient_ll</text>
</a>
</g>
</g>
<!-- Node1&#45;&gt;Node17 -->
<g id="edge26" class="edge">
<title>Node1&#45;&gt;Node17</title>
<path fill="none" stroke="midnightblue" d="M668.77,-333.55C657.84,-314.07 638.64,-283.3 616,-262 610.04,-256.39 602.56,-251.44 595.71,-247.52"/>
<polygon fill="midnightblue" stroke="midnightblue" points="665.71,-335.26 673.58,-342.36 671.86,-331.9 665.71,-335.26"/>
</g>
<!-- Node20 -->
<g id="node20" class="node">
<title>Node20</title>
<g id="a_node20"><a xlink:href="group__tools__repeat.html#ga543a7c0b4c744d98e6197036da5681fe" target="_top" xlink:title="Radially repeat copies of child objects about a z&#45;axis radius.">
<polygon fill="white" stroke="black" points="535,-95.5 535,-114.5 616,-114.5 616,-95.5 535,-95.5"/>
<text text-anchor="middle" x="575.5" y="-102.5" font-family="Helvetica,sans-Serif" font-size="10.00">repeat_radial</text>
</a>
</g>
</g>
<!-- Node1&#45;&gt;Node20 -->
<g id="edge29" class="edge">
<title>Node1&#45;&gt;Node20</title>
<path fill="none" stroke="midnightblue" d="M673.97,-332.12C665.48,-296.71 645.32,-220.91 616,-162 607.09,-144.11 593.13,-125.45 584.41,-114.55"/>
<polygon fill="midnightblue" stroke="midnightblue" points="670.63,-333.19 676.32,-342.12 677.44,-331.59 670.63,-333.19"/>
</g>
<!-- Node27 -->
<g id="node27" class="node">
<title>Node27</title>
<g id="a_node27"><a xlink:href="group__shapes__basic__2d.html#ga89c8cb6f39cf9b045091f8b0434b25d0" target="_top" xlink:title="A rhombus.">
<polygon fill="white" stroke="black" points="546,-171.5 546,-190.5 605,-190.5 605,-171.5 546,-171.5"/>
<text text-anchor="middle" x="575.5" y="-178.5" font-family="Helvetica,sans-Serif" font-size="10.00">rhombus</text>
</a>
</g>
</g>
<!-- Node1&#45;&gt;Node27 -->
<g id="edge37" class="edge">
<title>Node1&#45;&gt;Node27</title>
<path fill="none" stroke="midnightblue" d="M671.92,-332.55C662.24,-305.53 642.39,-255.81 616,-219 608.24,-208.17 597.15,-197.82 588.7,-190.67"/>
<polygon fill="midnightblue" stroke="midnightblue" points="668.74,-334.05 675.34,-342.33 675.35,-331.74 668.74,-334.05"/>
</g>
<!-- Node3 -->
<g id="node3" class="node">
<title>Node3</title>
<g id="a_node3"><a xlink:href="group__tools__align.html#ga3f7b93a4934de605058ca07f0c22d688" target="_top" xlink:title="Align an objects Cartesian axis to reference line or vector.">
<polygon fill="white" stroke="black" points="401.5,-532.5 401.5,-551.5 456.5,-551.5 456.5,-532.5 401.5,-532.5"/>
<text text-anchor="middle" x="429" y="-539.5" font-family="Helvetica,sans-Serif" font-size="10.00">align_al</text>
</a>
</g>
</g>
<!-- Node2&#45;&gt;Node3 -->
<g id="edge2" class="edge">
<title>Node2&#45;&gt;Node3</title>
<path fill="none" stroke="midnightblue" d="M539.35,-513.24C513.93,-519.93 480.11,-528.82 456.84,-534.94"/>
<polygon fill="midnightblue" stroke="midnightblue" points="540.55,-516.55 549.33,-510.62 538.77,-509.78 540.55,-516.55"/>
</g>
<!-- Node4 -->
<g id="node4" class="node">
<title>Node4</title>
<g id="a_node4"><a xlink:href="group__tools__drafting__primitive.html#ga4e7c5fa02dbc244702042067553a9225" target="_top" xlink:title="Draft a simple line from an initial to a terminal point.">
<polygon fill="white" stroke="black" points="389,-494.5 389,-513.5 469,-513.5 469,-494.5 389,-494.5"/>
<text text-anchor="middle" x="429" y="-501.5" font-family="Helvetica,sans-Serif" font-size="10.00">draft_line_pp</text>
</a>
</g>
</g>
<!-- Node2&#45;&gt;Node4 -->
<g id="edge3" class="edge">
<title>Node2&#45;&gt;Node4</title>
<path fill="none" stroke="midnightblue" d="M539.12,-504C517.89,-504 490.87,-504 469.02,-504"/>
<polygon fill="midnightblue" stroke="midnightblue" points="539.33,-507.5 549.33,-504 539.33,-500.5 539.33,-507.5"/>
</g>
<!-- Node5 -->
<g id="node5" class="node">
<title>Node5</title>
<g id="a_node5"><a xlink:href="group__tools__drafting__primitive.html#gaeb2a388d77f8e435b02c4235e7791eda" target="_top" xlink:title="Draft an arc with configurable style and optional arrowheads.">
<polygon fill="white" stroke="black" points="136.5,-532.5 136.5,-551.5 195.5,-551.5 195.5,-532.5 136.5,-532.5"/>
<text text-anchor="middle" x="166" y="-539.5" font-family="Helvetica,sans-Serif" font-size="10.00">draft_arc</text>
</a>
</g>
</g>
<!-- Node4&#45;&gt;Node5 -->
<g id="edge4" class="edge">
<title>Node4&#45;&gt;Node5</title>
<path fill="none" stroke="midnightblue" d="M378.89,-511.15C324.91,-519.01 240,-531.37 195.84,-537.8"/>
<polygon fill="midnightblue" stroke="midnightblue" points="379.53,-514.59 388.93,-509.69 378.53,-507.67 379.53,-514.59"/>
</g>
<!-- Node4&#45;&gt;Node7 -->
<g id="edge6" class="edge">
<title>Node4&#45;&gt;Node7</title>
<path fill="none" stroke="midnightblue" d="M380.45,-491.87C358.89,-486.37 333.84,-479.99 314.03,-474.93"/>
<polygon fill="midnightblue" stroke="midnightblue" points="379.85,-495.33 390.4,-494.41 381.58,-488.55 379.85,-495.33"/>
</g>
<!-- Node4&#45;&gt;Node8 -->
<g id="edge18" class="edge">
<title>Node4&#45;&gt;Node8</title>
<path fill="none" stroke="midnightblue" d="M378.85,-504.9C338.71,-504.3 280.98,-500.36 233,-485 213.1,-478.63 192.63,-465.65 179.86,-456.64"/>
<polygon fill="midnightblue" stroke="midnightblue" points="378.89,-508.4 388.92,-504.99 378.95,-501.4 378.89,-508.4"/>
</g>
<!-- Node5&#45;&gt;Node6 -->
<g id="edge5" class="edge">
<title>Node5&#45;&gt;Node6</title>
<path fill="none" stroke="midnightblue" d="M126.57,-554.76C111.06,-559.9 93.48,-565.74 79.13,-570.5"/>
<polygon fill="midnightblue" stroke="midnightblue" points="128.01,-557.96 136.4,-551.49 125.81,-551.32 128.01,-557.96"/>
</g>
<!-- Node7&#45;&gt;Node5 -->
<g id="edge7" class="edge">
<title>Node7&#45;&gt;Node5</title>
<path fill="none" stroke="midnightblue" d="M254.62,-481.46C232.5,-496.75 199.36,-519.64 180.82,-532.45"/>
<polygon fill="midnightblue" stroke="midnightblue" points="256.83,-484.19 263.07,-475.63 252.85,-478.43 256.83,-484.19"/>
</g>
<!-- Node7&#45;&gt;Node8 -->
<g id="edge8" class="edge">
<title>Node7&#45;&gt;Node8</title>
<path fill="none" stroke="midnightblue" d="M231.88,-458.21C220.25,-456.2 208.01,-454.08 197.33,-452.24"/>
<polygon fill="midnightblue" stroke="midnightblue" points="231.44,-461.68 241.89,-459.94 232.63,-454.78 231.44,-461.68"/>
</g>
<!-- Node8&#45;&gt;Node6 -->
<g id="edge10" class="edge">
<title>Node8&#45;&gt;Node6</title>
<path fill="none" stroke="midnightblue" d="M158.48,-466.18C149.05,-491.23 129.36,-534.92 99,-561 94.54,-564.83 89.22,-567.94 83.76,-570.45"/>
<polygon fill="midnightblue" stroke="midnightblue" points="161.8,-467.29 161.89,-456.7 155.21,-464.93 161.8,-467.29"/>
</g>
<!-- Node9 -->
<g id="node9" class="node">
<title>Node9</title>
<g id="a_node9"><a xlink:href="group__tools__drafting__operation.html#ga4e20419a6d4623f21c05179fc8b6df95" target="_top" xlink:title="Construct drafting sheet axes.">
<polygon fill="white" stroke="black" points="16,-456.5 16,-475.5 83,-475.5 83,-456.5 16,-456.5"/>
<text text-anchor="middle" x="49.5" y="-463.5" font-family="Helvetica,sans-Serif" font-size="10.00">draft_axes</text>
</a>
</g>
</g>
<!-- Node8&#45;&gt;Node9 -->
<g id="edge9" class="edge">
<title>Node8&#45;&gt;Node9</title>
<path fill="none" stroke="midnightblue" d="M124.83,-453.67C111.21,-455.93 96.17,-458.42 83.2,-460.57"/>
<polygon fill="midnightblue" stroke="midnightblue" points="125.62,-457.08 134.92,-451.99 124.48,-450.18 125.62,-457.08"/>
</g>
<!-- Node8&#45;&gt;Node10 -->
<g id="edge11" class="edge">
<title>Node8&#45;&gt;Node10</title>
<path fill="none" stroke="midnightblue" d="M141.12,-432.1C128.78,-424.7 113.34,-415.89 99,-409 91.99,-405.63 84.22,-402.38 76.98,-399.55"/>
<polygon fill="midnightblue" stroke="midnightblue" points="139.52,-435.22 149.88,-437.43 143.16,-429.24 139.52,-435.22"/>
</g>
<!-- Node8&#45;&gt;Node11 -->
<g id="edge12" class="edge">
<title>Node8&#45;&gt;Node11</title>
<path fill="none" stroke="midnightblue" d="M153.07,-428.77C141.15,-411.8 121.41,-386.81 99,-371 93.68,-367.25 87.52,-364.1 81.4,-361.52"/>
<polygon fill="midnightblue" stroke="midnightblue" points="150.33,-430.97 158.85,-437.26 156.11,-427.03 150.33,-430.97"/>
</g>
<!-- Node8&#45;&gt;Node12 -->
<g id="edge13" class="edge">
<title>Node8&#45;&gt;Node12</title>
<path fill="none" stroke="midnightblue" d="M158.48,-427.82C149.05,-402.77 129.36,-359.08 99,-333 94.54,-329.17 89.22,-326.06 83.76,-323.55"/>
<polygon fill="midnightblue" stroke="midnightblue" points="155.21,-429.07 161.89,-437.3 161.8,-426.71 155.21,-429.07"/>
</g>
<!-- Node8&#45;&gt;Node13 -->
<g id="edge14" class="edge">
<title>Node8&#45;&gt;Node13</title>
<path fill="none" stroke="midnightblue" d="M161.54,-427.48C154.92,-395.6 137.53,-332.16 99,-295 95.09,-291.23 90.36,-288.19 85.39,-285.73"/>
<polygon fill="midnightblue" stroke="midnightblue" points="158.11,-428.2 163.45,-437.35 164.99,-426.87 158.11,-428.2"/>
</g>
<!-- Node14 -->
<g id="node14" class="node">
<title>Node14</title>
<g id="a_node14"><a xlink:href="group__tools__drafting__primitive.html#gada1e771ce89ef86b6241c43dc01bf62d" target="_top" xlink:title="Draft a polygon with configurable style.">
<polygon fill="white" stroke="black" points="8,-418.5 8,-437.5 91,-437.5 91,-418.5 8,-418.5"/>
<text text-anchor="middle" x="49.5" y="-425.5" font-family="Helvetica,sans-Serif" font-size="10.00">draft_polygon</text>
</a>
</g>
</g>
<!-- Node8&#45;&gt;Node14 -->
<g id="edge15" class="edge">
<title>Node8&#45;&gt;Node14</title>
<path fill="none" stroke="midnightblue" d="M124.8,-440.33C113.89,-438.52 102.08,-436.56 91.15,-434.74"/>
<polygon fill="midnightblue" stroke="midnightblue" points="124.48,-443.82 134.92,-442.01 125.62,-436.92 124.48,-443.82"/>
</g>
<!-- Node15 -->
<g id="node15" class="node">
<title>Node15</title>
<g id="a_node15"><a xlink:href="group__tools__drafting__primitive.html#ga20eb57e9d25186784df7428089e3a2ae" target="_top" xlink:title="Draft a rectangle with configurable style.">
<polygon fill="white" stroke="black" points="4.5,-532.5 4.5,-551.5 94.5,-551.5 94.5,-532.5 4.5,-532.5"/>
<text text-anchor="middle" x="49.5" y="-539.5" font-family="Helvetica,sans-Serif" font-size="10.00">draft_rectangle</text>
</a>
</g>
</g>
<!-- Node8&#45;&gt;Node15 -->
<g id="edge16" class="edge">
<title>Node8&#45;&gt;Node15</title>
<path fill="none" stroke="midnightblue" d="M153.07,-465.23C141.15,-482.2 121.41,-507.19 99,-523 93.68,-526.75 87.52,-529.9 81.4,-532.48"/>
<polygon fill="midnightblue" stroke="midnightblue" points="156.11,-466.97 158.85,-456.74 150.33,-463.03 156.11,-466.97"/>
</g>
<!-- Node16 -->
<g id="node16" class="node">
<title>Node16</title>
<g id="a_node16"><a xlink:href="group__tools__drafting__operation.html#ga49aac81a903cd453ea9cadc85e84e414" target="_top" xlink:title="Construct a drafting sheet ruler.">
<polygon fill="white" stroke="black" points="16,-494.5 16,-513.5 83,-513.5 83,-494.5 16,-494.5"/>
<text text-anchor="middle" x="49.5" y="-501.5" font-family="Helvetica,sans-Serif" font-size="10.00">draft_ruler</text>
</a>
</g>
</g>
<!-- Node8&#45;&gt;Node16 -->
<g id="edge17" class="edge">
<title>Node8&#45;&gt;Node16</title>
<path fill="none" stroke="midnightblue" d="M141.12,-461.9C128.78,-469.3 113.34,-478.11 99,-485 91.99,-488.37 84.22,-491.62 76.98,-494.45"/>
<polygon fill="midnightblue" stroke="midnightblue" points="143.16,-464.76 149.88,-456.57 139.52,-458.78 143.16,-464.76"/>
</g>
<!-- Node18 -->
<g id="node18" class="node">
<title>Node18</title>
<g id="a_node18"><a xlink:href="group__tools__polytope.html#ga530c86f9c90ce074aa7adc29834f0539" target="_top" xlink:title="Assemble a polytope skeletal frame using child objects.">
<polygon fill="white" stroke="black" points="382,-228.5 382,-247.5 476,-247.5 476,-228.5 382,-228.5"/>
<text text-anchor="middle" x="429" y="-235.5" font-family="Helvetica,sans-Serif" font-size="10.00">polytope_frame</text>
</a>
</g>
</g>
<!-- Node17&#45;&gt;Node18 -->
<g id="edge27" class="edge">
<title>Node17&#45;&gt;Node18</title>
<path fill="none" stroke="midnightblue" d="M537.15,-238C518.52,-238 495.81,-238 476.1,-238"/>
<polygon fill="midnightblue" stroke="midnightblue" points="537.32,-241.5 547.32,-238 537.32,-234.5 537.32,-241.5"/>
</g>
<!-- Node19 -->
<g id="node19" class="node">
<title>Node19</title>
<g id="a_node19"><a xlink:href="group__tools__polytope.html#ga00b574079f19251be7281151d11db8fa" target="_top" xlink:title="Label the vertices, paths, and edges of a polytope.">
<polygon fill="white" stroke="black" points="378,-190.5 378,-209.5 480,-209.5 480,-190.5 378,-190.5"/>
<text text-anchor="middle" x="429" y="-197.5" font-family="Helvetica,sans-Serif" font-size="10.00">polytope_number</text>
</a>
</g>
</g>
<!-- Node17&#45;&gt;Node19 -->
<g id="edge28" class="edge">
<title>Node17&#45;&gt;Node19</title>
<path fill="none" stroke="midnightblue" d="M537.41,-228.25C515.57,-222.5 488.05,-215.27 466.34,-209.56"/>
<polygon fill="midnightblue" stroke="midnightblue" points="536.76,-231.69 547.32,-230.85 538.54,-224.92 536.76,-231.69"/>
</g>
<!-- Node21 -->
<g id="node21" class="node">
<title>Node21</title>
<g id="a_node21"><a xlink:href="group__parts__3d__enclosure__clamps.html#ga8fd874789132e42e5470328d18560f1a" target="_top" xlink:title="A clamp, bushing, and/or grip for wire/hose wall penetrations.">
<polygon fill="white" stroke="black" points="397.5,-152.5 397.5,-171.5 460.5,-171.5 460.5,-152.5 397.5,-152.5"/>
<text text-anchor="middle" x="429" y="-159.5" font-family="Helvetica,sans-Serif" font-size="10.00">clamp_cg</text>
</a>
</g>
</g>
<!-- Node20&#45;&gt;Node21 -->
<g id="edge30" class="edge">
<title>Node20&#45;&gt;Node21</title>
<path fill="none" stroke="midnightblue" d="M549.05,-119.4C534.67,-127.12 516.19,-136.38 499,-143 486.71,-147.73 472.77,-151.8 460.65,-154.95"/>
<polygon fill="midnightblue" stroke="midnightblue" points="550.75,-122.45 557.84,-114.59 547.39,-116.31 550.75,-122.45"/>
</g>
<!-- Node23 -->
<g id="node23" class="node">
<title>Node23</title>
<g id="a_node23"><a xlink:href="group__parts__3d__motion__bearing__linear__rod.html#ga48399d5e708b4894494c69b2d1e88e26" target="_top" xlink:title="Transform 2d or 3d shape into a linear rod ball or sled bearing.">
<polygon fill="white" stroke="black" points="359,-76.5 359,-95.5 499,-95.5 499,-76.5 359,-76.5"/>
<text text-anchor="middle" x="429" y="-83.5" font-family="Helvetica,sans-Serif" font-size="10.00">make_bearing_linear_rod</text>
</a>
</g>
</g>
<!-- Node20&#45;&gt;Node23 -->
<g id="edge32" class="edge">
<title>Node20&#45;&gt;Node23</title>
<path fill="none" stroke="midnightblue" d="M524.51,-98.43C516.32,-97.35 507.69,-96.22 499.13,-95.09"/>
<polygon fill="midnightblue" stroke="midnightblue" points="524.26,-101.92 534.63,-99.76 525.17,-94.98 524.26,-101.92"/>
</g>
<!-- Node24 -->
<g id="node24" class="node">
<title>Node24</title>
<g id="a_node24"><a xlink:href="group__models__3d__misc__omdl__logo.html#gab176f64dad7e83d4fb056be44b71f630" target="_top" xlink:title="Standard omdl logo.">
<polygon fill="white" stroke="black" points="395,-114.5 395,-133.5 463,-133.5 463,-114.5 395,-114.5"/>
<text text-anchor="middle" x="429" y="-121.5" font-family="Helvetica,sans-Serif" font-size="10.00">omdl_logo</text>
</a>
</g>
</g>
<!-- Node20&#45;&gt;Node24 -->
<g id="edge33" class="edge">
<title>Node20&#45;&gt;Node24</title>
<path fill="none" stroke="midnightblue" d="M524.63,-111.56C504.39,-114.22 481.56,-117.22 463.39,-119.61"/>
<polygon fill="midnightblue" stroke="midnightblue" points="525.17,-115.02 534.63,-110.24 524.26,-108.08 525.17,-115.02"/>
</g>
<!-- Node25 -->
<g id="node25" class="node">
<title>Node25</title>
<g id="a_node25"><a xlink:href="group__shapes__basic__2d.html#ga7452bf5414a3677ec806a31aed6b61dd" target="_top" xlink:title="A two&#45;dimensional star.">
<polygon fill="white" stroke="black" points="405.5,-38.5 405.5,-57.5 452.5,-57.5 452.5,-38.5 405.5,-38.5"/>
<text text-anchor="middle" x="429" y="-45.5" font-family="Helvetica,sans-Serif" font-size="10.00">star2d</text>
</a>
</g>
</g>
<!-- Node20&#45;&gt;Node25 -->
<g id="edge35" class="edge">
<title>Node20&#45;&gt;Node25</title>
<path fill="none" stroke="midnightblue" d="M549.05,-90.6C534.67,-82.88 516.19,-73.62 499,-67 483.93,-61.2 466.37,-56.39 452.74,-53.06"/>
<polygon fill="midnightblue" stroke="midnightblue" points="547.39,-93.69 557.84,-95.41 550.75,-87.55 547.39,-93.69"/>
</g>
<!-- Node26 -->
<g id="node26" class="node">
<title>Node26</title>
<g id="a_node26"><a xlink:href="group__shapes__basic__3d.html#gab99dacd3036b965579d68b1d3b7ee2d8" target="_top" xlink:title="A three&#45;dimensional star.">
<polygon fill="white" stroke="black" points="405.5,-0.5 405.5,-19.5 452.5,-19.5 452.5,-0.5 405.5,-0.5"/>
<text text-anchor="middle" x="429" y="-7.5" font-family="Helvetica,sans-Serif" font-size="10.00">star3d</text>
</a>
</g>
</g>
<!-- Node20&#45;&gt;Node26 -->
<g id="edge36" class="edge">
<title>Node20&#45;&gt;Node26</title>
<path fill="none" stroke="midnightblue" d="M561.48,-87.32C547.79,-69.98 524.71,-44.02 499,-29 484.73,-20.66 466.66,-15.86 452.6,-13.17"/>
<polygon fill="midnightblue" stroke="midnightblue" points="558.88,-89.68 567.74,-95.49 564.44,-85.43 558.88,-89.68"/>
</g>
<!-- Node22 -->
<g id="node22" class="node">
<title>Node22</title>
<g id="a_node22"><a xlink:href="group__parts__3d__enclosure__power__strip.html#ga191779dedf39e4fd769a8dc96b0f8c9e" target="_top" xlink:title="A power strip generator for single gang electrical receptacles.">
<polygon fill="white" stroke="black" points="233,-133.5 233,-152.5 323,-152.5 323,-133.5 233,-133.5"/>
<text text-anchor="middle" x="278" y="-140.5" font-family="Helvetica,sans-Serif" font-size="10.00">power_strip_sg</text>
</a>
</g>
</g>
<!-- Node21&#45;&gt;Node22 -->
<g id="edge31" class="edge">
<title>Node21&#45;&gt;Node22</title>
<path fill="none" stroke="midnightblue" d="M387.47,-156.83C367.52,-154.29 343.44,-151.22 323.03,-148.62"/>
<polygon fill="midnightblue" stroke="midnightblue" points="387.13,-160.32 397.49,-158.11 388.01,-153.37 387.13,-160.32"/>
</g>
<!-- Node24&#45;&gt;Node22 -->
<g id="edge34" class="edge">
<title>Node24&#45;&gt;Node22</title>
<path fill="none" stroke="midnightblue" d="M384.84,-129.5C365.42,-131.98 342.52,-134.9 323,-137.39"/>
<polygon fill="midnightblue" stroke="midnightblue" points="385.46,-132.95 394.93,-128.22 384.57,-126.01 385.46,-132.95"/>
</g>
<!-- Node27&#45;&gt;Node21 -->
<g id="edge38" class="edge">
<title>Node27&#45;&gt;Node21</title>
<path fill="none" stroke="midnightblue" d="M535.95,-175.93C512.4,-172.83 482.7,-168.93 460.74,-166.04"/>
<polygon fill="midnightblue" stroke="midnightblue" points="535.58,-179.41 545.95,-177.25 536.49,-172.47 535.58,-179.41"/>
</g>
</g>
</svg>
