<?xml version="1.0" encoding="UTF-8" standalone="no"?>
<!DOCTYPE svg PUBLIC "-//W3C//DTD SVG 1.1//EN"
 "http://www.w3.org/Graphics/SVG/1.1/DTD/svg11.dtd">
<!-- Generated by graphviz version 2.43.0 (0)
 -->
<!-- Title: table_check Pages: 1 -->
<svg width="316pt" height="180pt"
 viewBox="0.00 0.00 316.00 180.00" xmlns="http://www.w3.org/2000/svg" xmlns:xlink="http://www.w3.org/1999/xlink">
<g id="graph0" class="graph" transform="scale(1 1) rotate(0) translate(4 176)">
<title>table_check</title>
<polygon fill="white" stroke="transparent" points="-4,4 -4,-176 312,-176 312,4 -4,4"/>
<!-- Node1 -->
<g id="node1" class="node">
<title>Node1</title>
<g id="a_node1"><a xlink:title="Perform basic format checks on a table and output errors to console.">
<polygon fill="#bfbfbf" stroke="black" points="0,-76.5 0,-95.5 75,-95.5 75,-76.5 0,-76.5"/>
<text text-anchor="middle" x="37.5" y="-83.5" font-family="Helvetica,sans-Serif" font-size="10.00">table_check</text>
</a>
</g>
</g>
<!-- Node2 -->
<g id="node2" class="node">
<title>Node2</title>
<g id="a_node2"><a xlink:href="group__datatypes__iterable__operate.html#gaccab3e37e43cb1d882713b3f3d6d9e1b" target="_top" xlink:title="Return the first element of an iterable value.">
<polygon fill="white" stroke="black" points="152.5,-152.5 152.5,-171.5 187.5,-171.5 187.5,-152.5 152.5,-152.5"/>
<text text-anchor="middle" x="170" y="-159.5" font-family="Helvetica,sans-Serif" font-size="10.00">first</text>
</a>
</g>
</g>
<!-- Node1&#45;&gt;Node2 -->
<g id="edge1" class="edge">
<title>Node1&#45;&gt;Node2</title>
<path fill="none" stroke="midnightblue" d="M48.49,-95.75C61.77,-108.25 86.44,-129.85 111,-143 120.88,-148.29 132.49,-152.45 142.72,-155.51"/>
<polygon fill="midnightblue" stroke="midnightblue" points="141.8,-158.89 152.38,-158.21 143.69,-152.15 141.8,-158.89"/>
</g>
<!-- Node3 -->
<g id="node3" class="node">
<title>Node3</title>
<g id="a_node3"><a xlink:href="group__common__console.html#gacb9540a228d2c15623784ff0b0653722" target="_top" xlink:title="Output information message to console.">
<polygon fill="white" stroke="black" points="142,-114.5 142,-133.5 198,-133.5 198,-114.5 142,-114.5"/>
<text text-anchor="middle" x="170" y="-121.5" font-family="Helvetica,sans-Serif" font-size="10.00">log_info</text>
</a>
</g>
</g>
<!-- Node1&#45;&gt;Node3 -->
<g id="edge2" class="edge">
<title>Node1&#45;&gt;Node3</title>
<path fill="none" stroke="midnightblue" d="M71.43,-95.59C89.86,-100.96 112.9,-107.66 131.96,-113.21"/>
<polygon fill="midnightblue" stroke="midnightblue" points="131.22,-116.64 141.8,-116.08 133.18,-109.92 131.22,-116.64"/>
</g>
<!-- Node5 -->
<g id="node5" class="node">
<title>Node5</title>
<g id="a_node5"><a xlink:href="group__common__console.html#ga1ece4e2cff9ae45c85429c226eb8362c" target="_top" xlink:title="Output warning message to console.">
<polygon fill="white" stroke="black" points="139.5,-76.5 139.5,-95.5 200.5,-95.5 200.5,-76.5 139.5,-76.5"/>
<text text-anchor="middle" x="170" y="-83.5" font-family="Helvetica,sans-Serif" font-size="10.00">log_warn</text>
</a>
</g>
</g>
<!-- Node1&#45;&gt;Node5 -->
<g id="edge4" class="edge">
<title>Node1&#45;&gt;Node5</title>
<path fill="none" stroke="midnightblue" d="M75.2,-86C91.93,-86 111.78,-86 128.9,-86"/>
<polygon fill="midnightblue" stroke="midnightblue" points="129.16,-89.5 139.16,-86 129.16,-82.5 129.16,-89.5"/>
</g>
<!-- Node6 -->
<g id="node6" class="node">
<title>Node6</title>
<g id="a_node6"><a xlink:href="group__datatypes__table.html#ga81a0c09664cc9d9123fb2aa4a0a143c4" target="_top" xlink:title="Get the table row index that matches a table row identifier.">
<polygon fill="white" stroke="black" points="111,-38.5 111,-57.5 229,-57.5 229,-38.5 111,-38.5"/>
<text text-anchor="middle" x="170" y="-45.5" font-family="Helvetica,sans-Serif" font-size="10.00">table_get_row_index</text>
</a>
</g>
</g>
<!-- Node1&#45;&gt;Node6 -->
<g id="edge6" class="edge">
<title>Node1&#45;&gt;Node6</title>
<path fill="none" stroke="midnightblue" d="M71.43,-76.41C88.12,-71.55 108.59,-65.59 126.46,-60.39"/>
<polygon fill="midnightblue" stroke="midnightblue" points="127.46,-63.74 136.08,-57.59 125.5,-57.02 127.46,-63.74"/>
</g>
<!-- Node7 -->
<g id="node7" class="node">
<title>Node7</title>
<g id="a_node7"><a xlink:href="group__datatypes__table.html#ga4fb8609e20584a019b2a4028d692db82" target="_top" xlink:title="Get the size of a table.">
<polygon fill="white" stroke="black" points="126.5,-0.5 126.5,-19.5 213.5,-19.5 213.5,-0.5 126.5,-0.5"/>
<text text-anchor="middle" x="170" y="-7.5" font-family="Helvetica,sans-Serif" font-size="10.00">table_get_size</text>
</a>
</g>
</g>
<!-- Node1&#45;&gt;Node7 -->
<g id="edge7" class="edge">
<title>Node1&#45;&gt;Node7</title>
<path fill="none" stroke="midnightblue" d="M48.49,-76.25C61.77,-63.75 86.44,-42.15 111,-29 115,-26.86 119.28,-24.91 123.64,-23.13"/>
<polygon fill="midnightblue" stroke="midnightblue" points="125.08,-26.33 133.22,-19.54 122.63,-19.77 125.08,-26.33"/>
</g>
<!-- Node4 -->
<g id="node4" class="node">
<title>Node4</title>
<g id="a_node4"><a xlink:href="group__common__console.html#ga4fb6c985031c9b551777b2e9ebd2fc34" target="_top" xlink:title="Format the function call stack as a string.">
<polygon fill="white" stroke="black" points="265,-95.5 265,-114.5 308,-114.5 308,-95.5 265,-95.5"/>
<text text-anchor="middle" x="286.5" y="-102.5" font-family="Helvetica,sans-Serif" font-size="10.00">stack</text>
</a>
</g>
</g>
<!-- Node3&#45;&gt;Node4 -->
<g id="edge3" class="edge">
<title>Node3&#45;&gt;Node4</title>
<path fill="none" stroke="midnightblue" d="M198.13,-119.5C215,-116.7 236.75,-113.09 254.32,-110.17"/>
<polygon fill="midnightblue" stroke="midnightblue" points="255.35,-113.55 264.64,-108.46 254.21,-106.65 255.35,-113.55"/>
</g>
<!-- Node5&#45;&gt;Node4 -->
<g id="edge5" class="edge">
<title>Node5&#45;&gt;Node4</title>
<path fill="none" stroke="midnightblue" d="M200.78,-90.94C217.47,-93.71 238.22,-97.16 255.02,-99.94"/>
<polygon fill="midnightblue" stroke="midnightblue" points="254.45,-103.4 264.89,-101.58 255.6,-96.49 254.45,-103.4"/>
</g>
</g>
</svg>
