<?xml version="1.0" encoding="UTF-8" standalone="no"?>
<!DOCTYPE svg PUBLIC "-//W3C//DTD SVG 1.1//EN"
 "http://www.w3.org/Graphics/SVG/1.1/DTD/svg11.dtd">
<!-- Generated by graphviz version 2.43.0 (0)
 -->
<!-- Title: Radial Ball Pages: 1 -->
<svg width="282pt" height="29pt"
 viewBox="0.00 0.00 282.00 28.50" xmlns="http://www.w3.org/2000/svg" xmlns:xlink="http://www.w3.org/1999/xlink">
<g id="graph0" class="graph" transform="scale(1 1) rotate(0) translate(4 24.5)">
<title>Radial Ball</title>
<polygon fill="white" stroke="transparent" points="-4,4 -4,-24.5 278,-24.5 278,4 -4,4"/>
<!-- Node1 -->
<g id="node1" class="node">
<title>Node1</title>
<g id="a_node1"><a xlink:title="Rotary motion radial ball bearing model.">
<polygon fill="#bfbfbf" stroke="black" points="69,-19 0,-19 0,0 69,0 69,-19"/>
<text text-anchor="middle" x="34.5" y="-7" font-family="Helvetica,sans-Serif" font-size="10.00">Radial Ball</text>
</a>
</g>
</g>
<!-- Node2 -->
<g id="node2" class="node">
<title>Node2</title>
<g id="a_node2"><a xlink:href="group__models__3d__motion.html" target="_top" xlink:title="Building blocks for basic mechanical motion.">
<polygon fill="white" stroke="black" points="274,-19 224,-19 224,0 274,0 274,-19"/>
<text text-anchor="middle" x="249" y="-7" font-family="Helvetica,sans-Serif" font-size="10.00">Motion</text>
</a>
</g>
</g>
<!-- Node1&#45;&gt;Node2 -->
<g id="edge2" class="edge">
<title>Node1&#45;&gt;Node2</title>
<path fill="none" stroke="darkgreen" stroke-dasharray="5,2" d="M69.17,-9.5C112.24,-9.5 185.78,-9.5 223.74,-9.5"/>
<text text-anchor="middle" x="146.5" y="-12.5" font-family="Helvetica,sans-Serif" font-size="10.00">bearing_radial_ball.scad</text>
</g>
<!-- Node2&#45;&gt;Node1 -->
<g id="edge1" class="edge">
<title>Node2&#45;&gt;Node1</title>
<path fill="none" stroke="black" d="M213.37,-7.72C210.88,-7.63 208.4,-7.56 206,-7.5 153.13,-6.24 139.88,-6.47 87,-7.5 81.19,-7.61 75,-7.8 69.01,-8.01"/>
<polygon fill="black" stroke="black" points="213.44,-11.23 223.58,-8.14 213.73,-4.23 213.44,-11.23"/>
</g>
</g>
</svg>
