<?xml version="1.0" encoding="UTF-8" standalone="no"?>
<!DOCTYPE svg PUBLIC "-//W3C//DTD SVG 1.1//EN"
 "http://www.w3.org/Graphics/SVG/1.1/DTD/svg11.dtd">
<!-- Generated by graphviz version 2.43.0 (0)
 -->
<!-- Title: draft_table Pages: 1 -->
<svg width="401pt" height="205pt"
 viewBox="0.00 0.00 401.00 204.80" xmlns="http://www.w3.org/2000/svg" xmlns:xlink="http://www.w3.org/1999/xlink">
<g id="graph0" class="graph" transform="scale(1 1) rotate(0) translate(4 200.8)">
<title>draft_table</title>
<polygon fill="white" stroke="transparent" points="-4,4 -4,-200.8 397,-200.8 397,4 -4,4"/>
<!-- Node1 -->
<g id="node1" class="node">
<title>Node1</title>
<g id="a_node1"><a xlink:title="Construct a text table that is populated by rows and columns.">
<polygon fill="#bfbfbf" stroke="black" points="0,-95.5 0,-114.5 69,-114.5 69,-95.5 0,-95.5"/>
<text text-anchor="middle" x="34.5" y="-102.5" font-family="Helvetica,sans-Serif" font-size="10.00">draft_table</text>
</a>
</g>
</g>
<!-- Node2 -->
<g id="node2" class="node">
<title>Node2</title>
<g id="a_node2"><a xlink:href="group__tools__drafting__config.html#gabb4fa7092928ba8803b550ac6d733f64" target="_top" xlink:title="Get drafting configuration default helper function.">
<polygon fill="white" stroke="black" points="298,-152.5 298,-171.5 393,-171.5 393,-152.5 298,-152.5"/>
<text text-anchor="middle" x="345.5" y="-159.5" font-family="Helvetica,sans-Serif" font-size="10.00">draft_get_config</text>
</a>
</g>
</g>
<!-- Node1&#45;&gt;Node2 -->
<g id="edge1" class="edge">
<title>Node1&#45;&gt;Node2</title>
<path fill="none" stroke="midnightblue" d="M40.62,-114.55C50.44,-131.7 73.75,-167.23 105,-181 172.71,-210.83 261.57,-190.2 309.77,-174.72"/>
<polygon fill="midnightblue" stroke="midnightblue" points="311.03,-177.99 319.41,-171.51 308.82,-171.34 311.03,-177.99"/>
</g>
<!-- Node3 -->
<g id="node3" class="node">
<title>Node3</title>
<g id="a_node3"><a xlink:href="group__tools__drafting__primitive.html#ga9e80066573c9e9b2b1cf6af71cf453b0" target="_top" xlink:title="Check if any identified layers are active.">
<polygon fill="white" stroke="black" points="117,-152.5 117,-171.5 250,-171.5 250,-152.5 117,-152.5"/>
<text text-anchor="middle" x="183.5" y="-159.5" font-family="Helvetica,sans-Serif" font-size="10.00">draft_layers_any_active</text>
</a>
</g>
</g>
<!-- Node1&#45;&gt;Node3 -->
<g id="edge2" class="edge">
<title>Node1&#45;&gt;Node3</title>
<path fill="none" stroke="midnightblue" d="M50.41,-114.64C64.12,-123.14 85.26,-135.33 105,-143 111.42,-145.49 118.27,-147.73 125.14,-149.73"/>
<polygon fill="midnightblue" stroke="midnightblue" points="124.6,-153.21 135.17,-152.47 126.45,-146.46 124.6,-153.21"/>
</g>
<!-- Node4 -->
<g id="node4" class="node">
<title>Node4</title>
<g id="a_node4"><a xlink:href="group__tools__drafting__primitive.html#ga9a4b6eb4b387537f7bc1cc6c4d8f4449" target="_top" xlink:title="Extrude 2D drafted constructions to 3D if configured.">
<polygon fill="white" stroke="black" points="105,-114.5 105,-133.5 262,-133.5 262,-114.5 105,-114.5"/>
<text text-anchor="middle" x="183.5" y="-121.5" font-family="Helvetica,sans-Serif" font-size="10.00">draft_make_3d_if_configured</text>
</a>
</g>
</g>
<!-- Node1&#45;&gt;Node4 -->
<g id="edge3" class="edge">
<title>Node1&#45;&gt;Node4</title>
<path fill="none" stroke="midnightblue" d="M69.22,-109.36C78.22,-110.52 88.35,-111.83 98.76,-113.18"/>
<polygon fill="midnightblue" stroke="midnightblue" points="98.43,-116.66 108.79,-114.47 99.33,-109.72 98.43,-116.66"/>
</g>
<!-- Node5 -->
<g id="node5" class="node">
<title>Node5</title>
<g id="a_node5"><a xlink:href="group__tools__drafting__primitive.html#ga86b6eb63073241bfdfb18ba221fd3ec2" target="_top" xlink:title="Get table cell coordinates given a column and row.">
<polygon fill="white" stroke="black" points="127,-76.5 127,-95.5 240,-95.5 240,-76.5 127,-76.5"/>
<text text-anchor="middle" x="183.5" y="-83.5" font-family="Helvetica,sans-Serif" font-size="10.00">draft_table_get_cell</text>
</a>
</g>
</g>
<!-- Node1&#45;&gt;Node5 -->
<g id="edge5" class="edge">
<title>Node1&#45;&gt;Node5</title>
<path fill="none" stroke="midnightblue" d="M69.22,-100.64C83.33,-98.82 100.24,-96.63 116.64,-94.51"/>
<polygon fill="midnightblue" stroke="midnightblue" points="117.28,-97.96 126.75,-93.21 116.38,-91.02 117.28,-97.96"/>
</g>
<!-- Node6 -->
<g id="node6" class="node">
<title>Node6</title>
<g id="a_node6"><a xlink:href="group__datatypes__map.html#ga87e9b731478958b17b012e11d8ce818f" target="_top" xlink:title="Get the the first value associated with an existing key in one of two maps.">
<polygon fill="white" stroke="black" points="126.5,-38.5 126.5,-57.5 240.5,-57.5 240.5,-38.5 126.5,-38.5"/>
<text text-anchor="middle" x="183.5" y="-45.5" font-family="Helvetica,sans-Serif" font-size="10.00">map_get_firstof2_or</text>
</a>
</g>
</g>
<!-- Node1&#45;&gt;Node6 -->
<g id="edge6" class="edge">
<title>Node1&#45;&gt;Node6</title>
<path fill="none" stroke="midnightblue" d="M50.41,-95.36C64.12,-86.86 85.26,-74.67 105,-67 111.42,-64.51 118.27,-62.27 125.14,-60.27"/>
<polygon fill="midnightblue" stroke="midnightblue" points="126.45,-63.54 135.17,-57.53 124.6,-56.79 126.45,-63.54"/>
</g>
<!-- Node7 -->
<g id="node7" class="node">
<title>Node7</title>
<g id="a_node7"><a xlink:href="group__datatypes__map.html#ga18d78aec6f24969b9ad51595533f78b2" target="_top" xlink:title="Get the map value associated with a key.">
<polygon fill="white" stroke="black" points="137.5,-0.5 137.5,-19.5 229.5,-19.5 229.5,-0.5 137.5,-0.5"/>
<text text-anchor="middle" x="183.5" y="-7.5" font-family="Helvetica,sans-Serif" font-size="10.00">map_get_value</text>
</a>
</g>
</g>
<!-- Node1&#45;&gt;Node7 -->
<g id="edge7" class="edge">
<title>Node1&#45;&gt;Node7</title>
<path fill="none" stroke="midnightblue" d="M41.49,-95.39C52.16,-79.1 76.09,-46.14 105,-29 111.95,-24.88 119.75,-21.65 127.66,-19.12"/>
<polygon fill="midnightblue" stroke="midnightblue" points="128.65,-22.48 137.3,-16.37 126.73,-15.75 128.65,-22.48"/>
</g>
<!-- Node4&#45;&gt;Node2 -->
<g id="edge4" class="edge">
<title>Node4&#45;&gt;Node2</title>
<path fill="none" stroke="midnightblue" d="M224.87,-133.59C245.99,-138.6 272.03,-144.79 294.42,-150.11"/>
<polygon fill="midnightblue" stroke="midnightblue" points="293.88,-153.57 304.42,-152.48 295.49,-146.76 293.88,-153.57"/>
</g>
</g>
</svg>
