<?xml version="1.0" encoding="UTF-8" standalone="no"?>
<!DOCTYPE svg PUBLIC "-//W3C//DTD SVG 1.1//EN"
 "http://www.w3.org/Graphics/SVG/1.1/DTD/svg11.dtd">
<!-- Generated by graphviz version 2.43.0 (0)
 -->
<!-- Title: draft_line_pp Pages: 1 -->
<svg width="335pt" height="294pt"
 viewBox="0.00 0.00 335.00 294.00" xmlns="http://www.w3.org/2000/svg" xmlns:xlink="http://www.w3.org/1999/xlink">
<g id="graph0" class="graph" transform="scale(1 1) rotate(0) translate(4 290)">
<title>draft_line_pp</title>
<polygon fill="white" stroke="transparent" points="-4,4 -4,-290 331,-290 331,4 -4,4"/>
<!-- Node1 -->
<g id="node1" class="node">
<title>Node1</title>
<g id="a_node1"><a xlink:title="Draft a simple line from an initial to a terminal point.">
<polygon fill="#bfbfbf" stroke="black" points="0,-95.5 0,-114.5 80,-114.5 80,-95.5 0,-95.5"/>
<text text-anchor="middle" x="40" y="-102.5" font-family="Helvetica,sans-Serif" font-size="10.00">draft_line_pp</text>
</a>
</g>
</g>
<!-- Node2 -->
<g id="node2" class="node">
<title>Node2</title>
<g id="a_node2"><a xlink:href="group__tools__align.html#ga7a21147611850c6cae7e95d23417099b" target="_top" xlink:title="Align a line or vector to a reference line or vector.">
<polygon fill="white" stroke="black" points="137.5,-133.5 137.5,-152.5 189.5,-152.5 189.5,-133.5 137.5,-133.5"/>
<text text-anchor="middle" x="163.5" y="-140.5" font-family="Helvetica,sans-Serif" font-size="10.00">align_ll</text>
</a>
</g>
</g>
<!-- Node1&#45;&gt;Node2 -->
<g id="edge1" class="edge">
<title>Node1&#45;&gt;Node2</title>
<path fill="none" stroke="midnightblue" d="M71.66,-114.59C88.58,-119.88 109.68,-126.48 127.28,-131.98"/>
<polygon fill="midnightblue" stroke="midnightblue" points="126.59,-135.44 137.18,-135.08 128.68,-128.75 126.59,-135.44"/>
</g>
<!-- Node11 -->
<g id="node11" class="node">
<title>Node11</title>
<g id="a_node11"><a xlink:href="group__datatypes__euclidean.html#gaef5b930729755b4420098776467ac210" target="_top" xlink:title="Compute the distance between two points.">
<polygon fill="white" stroke="black" points="126,-95.5 126,-114.5 201,-114.5 201,-95.5 126,-95.5"/>
<text text-anchor="middle" x="163.5" y="-102.5" font-family="Helvetica,sans-Serif" font-size="10.00">distance_pp</text>
</a>
</g>
</g>
<!-- Node1&#45;&gt;Node11 -->
<g id="edge10" class="edge">
<title>Node1&#45;&gt;Node11</title>
<path fill="none" stroke="midnightblue" d="M80.11,-105C91.49,-105 104.03,-105 115.82,-105"/>
<polygon fill="midnightblue" stroke="midnightblue" points="115.94,-108.5 125.94,-105 115.94,-101.5 115.94,-108.5"/>
</g>
<!-- Node12 -->
<g id="node12" class="node">
<title>Node12</title>
<g id="a_node12"><a xlink:href="group__tools__drafting__config.html#gabb4fa7092928ba8803b550ac6d733f64" target="_top" xlink:title="Get drafting configuration default helper function.">
<polygon fill="white" stroke="black" points="116,-57.5 116,-76.5 211,-76.5 211,-57.5 116,-57.5"/>
<text text-anchor="middle" x="163.5" y="-64.5" font-family="Helvetica,sans-Serif" font-size="10.00">draft_get_config</text>
</a>
</g>
</g>
<!-- Node1&#45;&gt;Node12 -->
<g id="edge11" class="edge">
<title>Node1&#45;&gt;Node12</title>
<path fill="none" stroke="midnightblue" d="M71.66,-95.41C86.91,-90.64 105.55,-84.81 121.97,-79.68"/>
<polygon fill="midnightblue" stroke="midnightblue" points="123.35,-82.91 131.85,-76.59 121.26,-76.23 123.35,-82.91"/>
</g>
<!-- Node3 -->
<g id="node3" class="node">
<title>Node3</title>
<g id="a_node3"><a xlink:href="group__datatypes__euclidean.html#ga3d5c07c70f271bcf9144f50ce8620a89" target="_top" xlink:title="Compute the angle between two lines or vectors in a 3d or 2d&#45;space.">
<polygon fill="white" stroke="black" points="259.5,-266.5 259.5,-285.5 314.5,-285.5 314.5,-266.5 259.5,-266.5"/>
<text text-anchor="middle" x="287" y="-273.5" font-family="Helvetica,sans-Serif" font-size="10.00">angle_ll</text>
</a>
</g>
</g>
<!-- Node2&#45;&gt;Node3 -->
<g id="edge2" class="edge">
<title>Node2&#45;&gt;Node3</title>
<path fill="none" stroke="midnightblue" d="M169.41,-152.79C180.57,-174.19 209.78,-225.72 247,-257 248.78,-258.5 250.7,-259.91 252.7,-261.23"/>
<polygon fill="midnightblue" stroke="midnightblue" points="251.36,-264.51 261.77,-266.49 254.87,-258.45 251.36,-264.51"/>
</g>
<!-- Node4 -->
<g id="node4" class="node">
<title>Node4</title>
<g id="a_node4"><a xlink:href="group__datatypes__euclidean.html#ga882329ee346d5a7f9d0877afd115c3de" target="_top" xlink:title="Compute the cross product of two lines or vectors in a 3d or 2d&#45;space.">
<polygon fill="white" stroke="black" points="260.5,-228.5 260.5,-247.5 313.5,-247.5 313.5,-228.5 260.5,-228.5"/>
<text text-anchor="middle" x="287" y="-235.5" font-family="Helvetica,sans-Serif" font-size="10.00">cross_ll</text>
</a>
</g>
</g>
<!-- Node2&#45;&gt;Node4 -->
<g id="edge3" class="edge">
<title>Node2&#45;&gt;Node4</title>
<path fill="none" stroke="midnightblue" d="M173.38,-152.86C187.73,-168.38 217.4,-198.8 247,-219 249.39,-220.63 251.94,-222.2 254.55,-223.69"/>
<polygon fill="midnightblue" stroke="midnightblue" points="253.03,-226.85 263.51,-228.42 256.3,-220.66 253.03,-226.85"/>
</g>
<!-- Node5 -->
<g id="node5" class="node">
<title>Node5</title>
<g id="a_node5"><a xlink:href="group__datatypes__euclidean.html#ga8115b05f16bcc197e3e339a65f4d3e49" target="_top" xlink:title="Return the initial point of a line or vector.">
<polygon fill="white" stroke="black" points="262.5,-190.5 262.5,-209.5 311.5,-209.5 311.5,-190.5 262.5,-190.5"/>
<text text-anchor="middle" x="287" y="-197.5" font-family="Helvetica,sans-Serif" font-size="10.00">line_ip</text>
</a>
</g>
</g>
<!-- Node2&#45;&gt;Node5 -->
<g id="edge4" class="edge">
<title>Node2&#45;&gt;Node5</title>
<path fill="none" stroke="midnightblue" d="M184.84,-152.54C204.37,-161.71 234.12,-175.66 256.3,-186.07"/>
<polygon fill="midnightblue" stroke="midnightblue" points="255.06,-189.35 265.6,-190.43 258.03,-183.01 255.06,-189.35"/>
</g>
<!-- Node6 -->
<g id="node6" class="node">
<title>Node6</title>
<g id="a_node6"><a xlink:href="group__datatypes__euclidean.html#ga299bce4158dc8d0a7a8e7d9967b8ea4e" target="_top" xlink:title="Return the terminal point of a line or vector.">
<polygon fill="white" stroke="black" points="262,-152.5 262,-171.5 312,-171.5 312,-152.5 262,-152.5"/>
<text text-anchor="middle" x="287" y="-159.5" font-family="Helvetica,sans-Serif" font-size="10.00">line_tp</text>
</a>
</g>
</g>
<!-- Node2&#45;&gt;Node6 -->
<g id="edge5" class="edge">
<title>Node2&#45;&gt;Node6</title>
<path fill="none" stroke="midnightblue" d="M189.67,-146.94C207.59,-149.74 231.87,-153.53 251.57,-156.62"/>
<polygon fill="midnightblue" stroke="midnightblue" points="251.27,-160.11 261.69,-158.2 252.35,-153.19 251.27,-160.11"/>
</g>
<!-- Node7 -->
<g id="node7" class="node">
<title>Node7</title>
<g id="a_node7"><a xlink:href="group__datatypes__list__operate.html#ga1088f9b09ff8ed12e2c844758f39c039" target="_top" xlink:title="Compute the mean/average of a list of numbers.">
<polygon fill="white" stroke="black" points="265,-114.5 265,-133.5 309,-133.5 309,-114.5 265,-114.5"/>
<text text-anchor="middle" x="287" y="-121.5" font-family="Helvetica,sans-Serif" font-size="10.00">mean</text>
</a>
</g>
</g>
<!-- Node2&#45;&gt;Node7 -->
<g id="edge6" class="edge">
<title>Node2&#45;&gt;Node7</title>
<path fill="none" stroke="midnightblue" d="M189.67,-139.06C208.62,-136.1 234.68,-132.03 254.92,-128.86"/>
<polygon fill="midnightblue" stroke="midnightblue" points="255.57,-132.3 264.91,-127.3 254.49,-125.39 255.57,-132.3"/>
</g>
<!-- Node8 -->
<g id="node8" class="node">
<title>Node8</title>
<g id="a_node8"><a xlink:href="group__datatypes__euclidean.html#ga78d67c74076bef2e80a95b1e9b6eb2d7" target="_top" xlink:title="Return 3d point unchanged or add a zeroed third dimension to 2d point.">
<polygon fill="white" stroke="black" points="250,-76.5 250,-95.5 324,-95.5 324,-76.5 250,-76.5"/>
<text text-anchor="middle" x="287" y="-83.5" font-family="Helvetica,sans-Serif" font-size="10.00">point_to_3d</text>
</a>
</g>
</g>
<!-- Node2&#45;&gt;Node8 -->
<g id="edge7" class="edge">
<title>Node2&#45;&gt;Node8</title>
<path fill="none" stroke="midnightblue" d="M189.31,-133.39C196.38,-130.51 204.05,-127.25 211,-124 227.39,-116.35 230.87,-113.19 247,-105 250.19,-103.38 253.53,-101.71 256.87,-100.07"/>
<polygon fill="midnightblue" stroke="midnightblue" points="258.66,-103.09 266.1,-95.54 255.58,-96.8 258.66,-103.09"/>
</g>
<!-- Node9 -->
<g id="node9" class="node">
<title>Node9</title>
<g id="a_node9"><a xlink:href="group__datatypes__list__operate.html#ga7b8e6f2bbfa72ae61e39377e5ca6b5be" target="_top" xlink:title="Select specified element from list or return a default.">
<polygon fill="white" stroke="black" points="257.5,-38.5 257.5,-57.5 316.5,-57.5 316.5,-38.5 257.5,-38.5"/>
<text text-anchor="middle" x="287" y="-45.5" font-family="Helvetica,sans-Serif" font-size="10.00">select_ci</text>
</a>
</g>
</g>
<!-- Node2&#45;&gt;Node9 -->
<g id="edge8" class="edge">
<title>Node2&#45;&gt;Node9</title>
<path fill="none" stroke="midnightblue" d="M189.73,-135.94C197.12,-133.06 204.85,-129.15 211,-124 233.96,-104.75 224.68,-86.99 247,-67 248.69,-65.49 250.51,-64.07 252.43,-62.75"/>
<polygon fill="midnightblue" stroke="midnightblue" points="254.39,-65.65 261.19,-57.52 250.81,-59.64 254.39,-65.65"/>
</g>
<!-- Node10 -->
<g id="node10" class="node">
<title>Node10</title>
<g id="a_node10"><a xlink:href="group__datatypes__euclidean.html#ga6ef2a81f304d31b9ec9753ca4875ad45" target="_top" xlink:title="Convert line to vector by shifting it to the origin.">
<polygon fill="white" stroke="black" points="247,-0.5 247,-19.5 327,-19.5 327,-0.5 247,-0.5"/>
<text text-anchor="middle" x="287" y="-7.5" font-family="Helvetica,sans-Serif" font-size="10.00">vol_to_origin</text>
</a>
</g>
</g>
<!-- Node2&#45;&gt;Node10 -->
<g id="edge9" class="edge">
<title>Node2&#45;&gt;Node10</title>
<path fill="none" stroke="midnightblue" d="M189.92,-136.86C197.49,-133.99 205.28,-129.87 211,-124 242.51,-91.67 216.56,-62.35 247,-29 248.19,-27.7 249.48,-26.48 250.86,-25.33"/>
<polygon fill="midnightblue" stroke="midnightblue" points="253.06,-28.07 259.38,-19.57 249.13,-22.27 253.06,-28.07"/>
</g>
</g>
</svg>
