<?xml version="1.0" encoding="UTF-8" standalone="no"?>
<!DOCTYPE svg PUBLIC "-//W3C//DTD SVG 1.1//EN"
 "http://www.w3.org/Graphics/SVG/1.1/DTD/svg11.dtd">
<!-- Generated by graphviz version 2.43.0 (0)
 -->
<!-- Title: extrude_rotate_trs Pages: 1 -->
<svg width="332pt" height="159pt"
 viewBox="0.00 0.00 332.00 158.79" xmlns="http://www.w3.org/2000/svg" xmlns:xlink="http://www.w3.org/1999/xlink">
<g id="graph0" class="graph" transform="scale(1 1) rotate(0) translate(4 154.79)">
<title>extrude_rotate_trs</title>
<polygon fill="white" stroke="transparent" points="-4,4 -4,-154.79 328,-154.79 328,4 -4,4"/>
<!-- Node1 -->
<g id="node1" class="node">
<title>Node1</title>
<g id="a_node1"><a xlink:title="Translate, rotate, scale, and revolve a 2d shape about the z&#45;axis.">
<polygon fill="#bfbfbf" stroke="black" points="0,-76.5 0,-95.5 107,-95.5 107,-76.5 0,-76.5"/>
<text text-anchor="middle" x="53.5" y="-83.5" font-family="Helvetica,sans-Serif" font-size="10.00">extrude_rotate_trs</text>
</a>
</g>
</g>
<!-- Node2 -->
<g id="node2" class="node">
<title>Node2</title>
<g id="a_node2"><a xlink:href="group__units__angle.html#ga06a917b77748dfb74e765bcd7c4c0219" target="_top" xlink:title="Convert an angle from some units to another.">
<polygon fill="white" stroke="black" points="280,-114.5 280,-133.5 324,-133.5 324,-114.5 280,-114.5"/>
<text text-anchor="middle" x="302" y="-121.5" font-family="Helvetica,sans-Serif" font-size="10.00">angle</text>
</a>
</g>
</g>
<!-- Node1&#45;&gt;Node2 -->
<g id="edge1" class="edge">
<title>Node1&#45;&gt;Node2</title>
<path fill="none" stroke="midnightblue" d="M64.92,-95.63C80.51,-109.31 111.44,-133.72 143,-143 186.06,-155.67 199.69,-150.19 244,-143 252.64,-141.6 261.74,-139.07 270.06,-136.32"/>
<polygon fill="midnightblue" stroke="midnightblue" points="271.49,-139.52 279.76,-132.89 269.16,-132.92 271.49,-139.52"/>
</g>
<!-- Node3 -->
<g id="node3" class="node">
<title>Node3</title>
<g id="a_node3"><a xlink:href="group__datatypes__iterable__operate.html#ga3d37c2b0067d1661724bd89955c8f6ce" target="_top" xlink:title="Return an element of an iterable when it exists or a default value otherwise.">
<polygon fill="white" stroke="black" points="154,-114.5 154,-133.5 233,-133.5 233,-114.5 154,-114.5"/>
<text text-anchor="middle" x="193.5" y="-121.5" font-family="Helvetica,sans-Serif" font-size="10.00">defined_e_or</text>
</a>
</g>
</g>
<!-- Node1&#45;&gt;Node3 -->
<g id="edge2" class="edge">
<title>Node1&#45;&gt;Node3</title>
<path fill="none" stroke="midnightblue" d="M89.32,-95.59C107.14,-100.49 129.02,-106.52 148.04,-111.76"/>
<polygon fill="midnightblue" stroke="midnightblue" points="147.12,-115.13 157.69,-114.41 148.98,-108.38 147.12,-115.13"/>
</g>
<!-- Node4 -->
<g id="node4" class="node">
<title>Node4</title>
<g id="a_node4"><a xlink:href="group__tools__extrude.html#ga31947e37a3512d9814d47f8f8c960f84" target="_top" xlink:title="Translate, rotate, and revolve a 2d shape about the z&#45;axis.">
<polygon fill="white" stroke="black" points="143,-76.5 143,-95.5 244,-95.5 244,-76.5 143,-76.5"/>
<text text-anchor="middle" x="193.5" y="-83.5" font-family="Helvetica,sans-Serif" font-size="10.00">extrude_rotate_tr</text>
</a>
</g>
</g>
<!-- Node1&#45;&gt;Node4 -->
<g id="edge3" class="edge">
<title>Node1&#45;&gt;Node4</title>
<path fill="none" stroke="midnightblue" d="M107.07,-86C115.4,-86 124.08,-86 132.58,-86"/>
<polygon fill="midnightblue" stroke="midnightblue" points="132.81,-89.5 142.81,-86 132.81,-82.5 132.81,-89.5"/>
</g>
<!-- Node5 -->
<g id="node5" class="node">
<title>Node5</title>
<g id="a_node5"><a xlink:href="group__math__utility.html#gaf9e83459b8955e67df8371e48c5c6194" target="_top" xlink:title="Return facets number for the given arc radius.">
<polygon fill="white" stroke="black" points="170,-38.5 170,-57.5 217,-57.5 217,-38.5 170,-38.5"/>
<text text-anchor="middle" x="193.5" y="-45.5" font-family="Helvetica,sans-Serif" font-size="10.00">get_fn</text>
</a>
</g>
</g>
<!-- Node1&#45;&gt;Node5 -->
<g id="edge5" class="edge">
<title>Node1&#45;&gt;Node5</title>
<path fill="none" stroke="midnightblue" d="M89.32,-76.41C111.01,-70.44 138.71,-62.81 159.96,-56.96"/>
<polygon fill="midnightblue" stroke="midnightblue" points="161.1,-60.28 169.81,-54.25 159.24,-53.53 161.1,-60.28"/>
</g>
<!-- Node6 -->
<g id="node6" class="node">
<title>Node6</title>
<g id="a_node6"><a xlink:href="group__datatypes__scalar__test.html#ga258e8911375d30ff85a6e52df01dc1c5" target="_top" xlink:title="Test if a value is a single non&#45;iterable value.">
<polygon fill="white" stroke="black" points="164,-0.5 164,-19.5 223,-19.5 223,-0.5 164,-0.5"/>
<text text-anchor="middle" x="193.5" y="-7.5" font-family="Helvetica,sans-Serif" font-size="10.00">is_scalar</text>
</a>
</g>
</g>
<!-- Node1&#45;&gt;Node6 -->
<g id="edge6" class="edge">
<title>Node1&#45;&gt;Node6</title>
<path fill="none" stroke="midnightblue" d="M67.48,-76.42C84.3,-64.3 114.8,-43.3 143,-29 146.83,-27.06 150.91,-25.19 155.03,-23.44"/>
<polygon fill="midnightblue" stroke="midnightblue" points="156.62,-26.57 164.57,-19.57 153.99,-20.08 156.62,-26.57"/>
</g>
<!-- Node4&#45;&gt;Node2 -->
<g id="edge4" class="edge">
<title>Node4&#45;&gt;Node2</title>
<path fill="none" stroke="midnightblue" d="M221.37,-95.59C236.24,-100.89 254.76,-107.5 270.21,-113.01"/>
<polygon fill="midnightblue" stroke="midnightblue" points="269.25,-116.39 279.84,-116.45 271.6,-109.79 269.25,-116.39"/>
</g>
</g>
</svg>
