<?xml version="1.0" encoding="UTF-8" standalone="no"?>
<!DOCTYPE svg PUBLIC "-//W3C//DTD SVG 1.1//EN"
 "http://www.w3.org/Graphics/SVG/1.1/DTD/svg11.dtd">
<!-- Generated by graphviz version 2.43.0 (0)
 -->
<!-- Title: Polygons Pages: 1 -->
<svg width="222pt" height="35pt"
 viewBox="0.00 0.00 222.00 34.80" xmlns="http://www.w3.org/2000/svg" xmlns:xlink="http://www.w3.org/1999/xlink">
<g id="graph0" class="graph" transform="scale(1 1) rotate(0) translate(4 30.8)">
<title>Polygons</title>
<polygon fill="white" stroke="transparent" points="-4,4 -4,-30.8 218,-30.8 218,4 -4,4"/>
<!-- Node2 -->
<g id="node1" class="node">
<title>Node2</title>
<g id="a_node1"><a xlink:href="group__shapes.html" target="_top" xlink:title="Geometric shapes and basic constructs.">
<polygon fill="white" stroke="black" points="52,-26.8 0,-26.8 0,-7.8 52,-7.8 52,-26.8"/>
<text text-anchor="middle" x="26" y="-14.8" font-family="Helvetica,sans-Serif" font-size="10.00">Shapes</text>
</a>
</g>
</g>
<!-- Node1 -->
<g id="node2" class="node">
<title>Node1</title>
<g id="a_node2"><a xlink:title="Roundable polygons generated in 2D space.">
<polygon fill="#bfbfbf" stroke="black" points="214,-26.8 153,-26.8 153,-7.8 214,-7.8 214,-26.8"/>
<text text-anchor="middle" x="183.5" y="-14.8" font-family="Helvetica,sans-Serif" font-size="10.00">Polygons</text>
</a>
</g>
</g>
<!-- Node2&#45;&gt;Node1 -->
<g id="edge1" class="edge">
<title>Node2&#45;&gt;Node1</title>
<path fill="none" stroke="black" d="M62.64,-17.3C89.97,-17.3 127.24,-17.3 152.93,-17.3"/>
<polygon fill="black" stroke="black" points="62.33,-13.8 52.33,-17.3 62.33,-20.8 62.33,-13.8"/>
</g>
<!-- Node1&#45;&gt;Node2 -->
<g id="edge2" class="edge">
<title>Node1&#45;&gt;Node2</title>
<path fill="none" stroke="darkgreen" stroke-dasharray="5,2" d="M155.17,-7.79C148.64,-5.93 141.64,-4.25 135,-3.3 106.41,0.83 98.53,1.23 70,-3.3 63.95,-4.26 57.6,-5.93 51.68,-7.79"/>
<text text-anchor="middle" x="102.5" y="-6.3" font-family="Helvetica,sans-Serif" font-size="10.00">polygon.scad</text>
</g>
</g>
</svg>
