<?xml version="1.0" encoding="UTF-8" standalone="no"?>
<!DOCTYPE svg PUBLIC "-//W3C//DTD SVG 1.1//EN"
 "http://www.w3.org/Graphics/SVG/1.1/DTD/svg11.dtd">
<!-- Generated by graphviz version 2.43.0 (0)
 -->
<!-- Title: screw_bore Pages: 1 -->
<svg width="350pt" height="256pt"
 viewBox="0.00 0.00 350.00 256.00" xmlns="http://www.w3.org/2000/svg" xmlns:xlink="http://www.w3.org/1999/xlink">
<g id="graph0" class="graph" transform="scale(1 1) rotate(0) translate(4 252)">
<title>screw_bore</title>
<polygon fill="white" stroke="transparent" points="-4,4 -4,-252 346,-252 346,4 -4,4"/>
<!-- Node1 -->
<g id="node1" class="node">
<title>Node1</title>
<g id="a_node1"><a xlink:title="Flat and beveled&#45;head fastener bore with nut, nut slot, and bore tolerance.">
<polygon fill="#bfbfbf" stroke="black" points="270,-114.5 270,-133.5 342,-133.5 342,-114.5 270,-114.5"/>
<text text-anchor="middle" x="306" y="-121.5" font-family="Helvetica,sans-Serif" font-size="10.00">screw_bore</text>
</a>
</g>
</g>
<!-- Node2 -->
<g id="node2" class="node">
<title>Node2</title>
<g id="a_node2"><a xlink:href="group__parts__3d__fastener__catch__latch.html#ga26a9933aa6d33599daab1be8d632c430" target="_top" xlink:title="A catch latch generator with configurable profile.">
<polygon fill="white" stroke="black" points="144,-228.5 144,-247.5 216,-247.5 216,-228.5 144,-228.5"/>
<text text-anchor="middle" x="180" y="-235.5" font-family="Helvetica,sans-Serif" font-size="10.00">catch_latch</text>
</a>
</g>
</g>
<!-- Node1&#45;&gt;Node2 -->
<g id="edge1" class="edge">
<title>Node1&#45;&gt;Node2</title>
<path fill="none" stroke="midnightblue" d="M295.53,-142.54C283.79,-163.81 261.87,-198.39 234,-219 228.66,-222.95 222.41,-226.14 216.12,-228.7"/>
<polygon fill="midnightblue" stroke="midnightblue" points="298.71,-144.02 300.33,-133.55 292.53,-140.72 298.71,-144.02"/>
</g>
<!-- Node3 -->
<g id="node3" class="node">
<title>Node3</title>
<g id="a_node3"><a xlink:href="group__parts__3d__enclosure__clamps.html#ga8fd874789132e42e5470328d18560f1a" target="_top" xlink:title="A clamp, bushing, and/or grip for wire/hose wall penetrations.">
<polygon fill="white" stroke="black" points="148.5,-152.5 148.5,-171.5 211.5,-171.5 211.5,-152.5 148.5,-152.5"/>
<text text-anchor="middle" x="180" y="-159.5" font-family="Helvetica,sans-Serif" font-size="10.00">clamp_cg</text>
</a>
</g>
</g>
<!-- Node1&#45;&gt;Node3 -->
<g id="edge2" class="edge">
<title>Node1&#45;&gt;Node3</title>
<path fill="none" stroke="midnightblue" d="M264.02,-136.56C247.01,-141.77 227.62,-147.71 211.85,-152.55"/>
<polygon fill="midnightblue" stroke="midnightblue" points="265.17,-139.87 273.71,-133.59 263.12,-133.17 265.17,-139.87"/>
</g>
<!-- Node4 -->
<g id="node4" class="node">
<title>Node4</title>
<g id="a_node4"><a xlink:href="group__parts__3d__enclosure__power__strip.html#ga191779dedf39e4fd769a8dc96b0f8c9e" target="_top" xlink:title="A power strip generator for single gang electrical receptacles.">
<polygon fill="white" stroke="black" points="0,-76.5 0,-95.5 90,-95.5 90,-76.5 0,-76.5"/>
<text text-anchor="middle" x="45" y="-83.5" font-family="Helvetica,sans-Serif" font-size="10.00">power_strip_sg</text>
</a>
</g>
</g>
<!-- Node1&#45;&gt;Node4 -->
<g id="edge11" class="edge">
<title>Node1&#45;&gt;Node4</title>
<path fill="none" stroke="midnightblue" d="M259.56,-120.79C223.25,-117.83 171.14,-112.72 126,-105 111.51,-102.52 95.73,-98.96 82.04,-95.59"/>
<polygon fill="midnightblue" stroke="midnightblue" points="259.59,-124.3 269.83,-121.6 260.14,-117.32 259.59,-124.3"/>
</g>
<!-- Node5 -->
<g id="node5" class="node">
<title>Node5</title>
<g id="a_node5"><a xlink:href="group__parts__3d__fastener__hinges.html#ga7e350f2c55116094108b99dd8103fc04" target="_top" xlink:title="A print&#45;in&#45;place single&#45;fold hinge generator.">
<polygon fill="white" stroke="black" points="151,-190.5 151,-209.5 209,-209.5 209,-190.5 151,-190.5"/>
<text text-anchor="middle" x="180" y="-197.5" font-family="Helvetica,sans-Serif" font-size="10.00">hinge_sf</text>
</a>
</g>
</g>
<!-- Node1&#45;&gt;Node5 -->
<g id="edge4" class="edge">
<title>Node1&#45;&gt;Node5</title>
<path fill="none" stroke="midnightblue" d="M287.55,-140.78C273.87,-153.21 253.87,-169.87 234,-181 226.32,-185.3 217.49,-188.92 209.27,-191.81"/>
<polygon fill="midnightblue" stroke="midnightblue" points="290.26,-143.04 295.2,-133.66 285.49,-137.91 290.26,-143.04"/>
</g>
<!-- Node7 -->
<g id="node7" class="node">
<title>Node7</title>
<g id="a_node7"><a xlink:href="group__parts__3d__enclosure__mounts.html#ga0cbac43259ec43fff7785057277bcef3" target="_top" xlink:title="A screw mount post with screw bore and optional fins.">
<polygon fill="white" stroke="black" points="126,-76.5 126,-95.5 234,-95.5 234,-76.5 126,-76.5"/>
<text text-anchor="middle" x="180" y="-83.5" font-family="Helvetica,sans-Serif" font-size="10.00">mount_screw_post</text>
</a>
</g>
</g>
<!-- Node1&#45;&gt;Node7 -->
<g id="edge6" class="edge">
<title>Node1&#45;&gt;Node7</title>
<path fill="none" stroke="midnightblue" d="M264.1,-111.46C247.23,-106.3 227.99,-100.4 212.28,-95.59"/>
<polygon fill="midnightblue" stroke="midnightblue" points="263.12,-114.83 273.71,-114.41 265.17,-108.13 263.12,-114.83"/>
</g>
<!-- Node8 -->
<g id="node8" class="node">
<title>Node8</title>
<g id="a_node8"><a xlink:href="group__parts__3d__enclosure__mounts.html#ga1a26f176e04863a2bf335960a52b39a8" target="_top" xlink:title="A screw mount slot with optional cover envelope.">
<polygon fill="white" stroke="black" points="127.5,-38.5 127.5,-57.5 232.5,-57.5 232.5,-38.5 127.5,-38.5"/>
<text text-anchor="middle" x="180" y="-45.5" font-family="Helvetica,sans-Serif" font-size="10.00">mount_screw_slot</text>
</a>
</g>
</g>
<!-- Node1&#45;&gt;Node8 -->
<g id="edge7" class="edge">
<title>Node1&#45;&gt;Node8</title>
<path fill="none" stroke="midnightblue" d="M287.55,-107.22C273.87,-94.79 253.87,-78.13 234,-67 227.52,-63.37 220.21,-60.22 213.15,-57.59"/>
<polygon fill="midnightblue" stroke="midnightblue" points="285.49,-110.09 295.2,-114.34 290.26,-104.96 285.49,-110.09"/>
</g>
<!-- Node9 -->
<g id="node9" class="node">
<title>Node9</title>
<g id="a_node9"><a xlink:href="group__parts__3d__enclosure__mounts.html#gae1cc60f3ff242fb07c5a50d34be8c051" target="_top" xlink:title="A mount tab with screw hole and support brace.">
<polygon fill="white" stroke="black" points="128.5,-0.5 128.5,-19.5 231.5,-19.5 231.5,-0.5 128.5,-0.5"/>
<text text-anchor="middle" x="180" y="-7.5" font-family="Helvetica,sans-Serif" font-size="10.00">mount_screw_tab</text>
</a>
</g>
</g>
<!-- Node1&#45;&gt;Node9 -->
<g id="edge9" class="edge">
<title>Node1&#45;&gt;Node9</title>
<path fill="none" stroke="midnightblue" d="M295.53,-105.46C283.79,-84.19 261.87,-49.61 234,-29 228.81,-25.16 222.78,-22.04 216.68,-19.52"/>
<polygon fill="midnightblue" stroke="midnightblue" points="292.53,-107.28 300.33,-114.45 298.71,-103.98 292.53,-107.28"/>
</g>
<!-- Node3&#45;&gt;Node4 -->
<g id="edge3" class="edge">
<title>Node3&#45;&gt;Node4</title>
<path fill="none" stroke="midnightblue" d="M146.74,-148.33C139.8,-145.13 132.58,-141.6 126,-138 101.73,-124.72 75.08,-106.64 59.49,-95.67"/>
<polygon fill="midnightblue" stroke="midnightblue" points="145.38,-151.56 155.93,-152.46 148.25,-145.17 145.38,-151.56"/>
</g>
<!-- Node6 -->
<g id="node6" class="node">
<title>Node6</title>
<g id="a_node6"><a xlink:href="group__parts__3d__fastener__hinges.html#ga1ffc82e0bbac466d1dc4fbe6c214b765" target="_top" xlink:title="A print&#45;in&#45;place bi&#45;fold hinge generator.">
<polygon fill="white" stroke="black" points="15.5,-190.5 15.5,-209.5 74.5,-209.5 74.5,-190.5 15.5,-190.5"/>
<text text-anchor="middle" x="45" y="-197.5" font-family="Helvetica,sans-Serif" font-size="10.00">hinge_bf</text>
</a>
</g>
</g>
<!-- Node5&#45;&gt;Node6 -->
<g id="edge5" class="edge">
<title>Node5&#45;&gt;Node6</title>
<path fill="none" stroke="midnightblue" d="M140.57,-200C119.53,-200 93.89,-200 74.62,-200"/>
<polygon fill="midnightblue" stroke="midnightblue" points="140.79,-203.5 150.79,-200 140.79,-196.5 140.79,-203.5"/>
</g>
<!-- Node8&#45;&gt;Node4 -->
<g id="edge8" class="edge">
<title>Node8&#45;&gt;Node4</title>
<path fill="none" stroke="midnightblue" d="M135.63,-60.39C117.42,-65.59 96.56,-71.55 79.55,-76.41"/>
<polygon fill="midnightblue" stroke="midnightblue" points="136.78,-63.7 145.44,-57.59 134.86,-56.97 136.78,-63.7"/>
</g>
<!-- Node9&#45;&gt;Node4 -->
<g id="edge10" class="edge">
<title>Node9&#45;&gt;Node4</title>
<path fill="none" stroke="midnightblue" d="M138.47,-23.21C134.19,-25 129.96,-26.93 126,-29 99.7,-42.75 72.2,-64.14 57.27,-76.43"/>
<polygon fill="midnightblue" stroke="midnightblue" points="139.8,-26.45 147.84,-19.56 137.25,-19.93 139.8,-26.45"/>
</g>
</g>
</svg>
