<?xml version="1.0" encoding="UTF-8" standalone="no"?>
<!DOCTYPE svg PUBLIC "-//W3C//DTD SVG 1.1//EN"
 "http://www.w3.org/Graphics/SVG/1.1/DTD/svg11.dtd">
<!-- Generated by graphviz version 2.43.0 (0)
 -->
<!-- Title: third Pages: 1 -->
<svg width="334pt" height="294pt"
 viewBox="0.00 0.00 334.00 294.00" xmlns="http://www.w3.org/2000/svg" xmlns:xlink="http://www.w3.org/1999/xlink">
<g id="graph0" class="graph" transform="scale(1 1) rotate(0) translate(4 290)">
<title>third</title>
<polygon fill="white" stroke="transparent" points="-4,4 -4,-290 330,-290 330,4 -4,4"/>
<!-- Node1 -->
<g id="node1" class="node">
<title>Node1</title>
<g id="a_node1"><a xlink:title="Return the third element of an iterable value.">
<polygon fill="#bfbfbf" stroke="black" points="287,-133.5 287,-152.5 326,-152.5 326,-133.5 287,-133.5"/>
<text text-anchor="middle" x="306.5" y="-140.5" font-family="Helvetica,sans-Serif" font-size="10.00">third</text>
</a>
</g>
</g>
<!-- Node2 -->
<g id="node2" class="node">
<title>Node2</title>
<g id="a_node2"><a xlink:href="group__parts__3d__fastener__catch__latch.html#ga26a9933aa6d33599daab1be8d632c430" target="_top" xlink:title="A catch latch generator with configurable profile.">
<polygon fill="white" stroke="black" points="152.5,-266.5 152.5,-285.5 224.5,-285.5 224.5,-266.5 152.5,-266.5"/>
<text text-anchor="middle" x="188.5" y="-273.5" font-family="Helvetica,sans-Serif" font-size="10.00">catch_latch</text>
</a>
</g>
</g>
<!-- Node1&#45;&gt;Node2 -->
<g id="edge1" class="edge">
<title>Node1&#45;&gt;Node2</title>
<path fill="none" stroke="midnightblue" d="M301.32,-162.44C294.87,-187.81 280.07,-231.9 251,-257 243.56,-263.43 233.96,-267.68 224.58,-270.5"/>
<polygon fill="midnightblue" stroke="midnightblue" points="304.77,-163.07 303.66,-152.53 297.96,-161.47 304.77,-163.07"/>
</g>
<!-- Node3 -->
<g id="node3" class="node">
<title>Node3</title>
<g id="a_node3"><a xlink:href="group__tools__drafting__operation.html#ga4e20419a6d4623f21c05179fc8b6df95" target="_top" xlink:title="Construct drafting sheet axes.">
<polygon fill="white" stroke="black" points="155,-228.5 155,-247.5 222,-247.5 222,-228.5 155,-228.5"/>
<text text-anchor="middle" x="188.5" y="-235.5" font-family="Helvetica,sans-Serif" font-size="10.00">draft_axes</text>
</a>
</g>
</g>
<!-- Node1&#45;&gt;Node3 -->
<g id="edge2" class="edge">
<title>Node1&#45;&gt;Node3</title>
<path fill="none" stroke="midnightblue" d="M296.51,-161.85C287.36,-179.11 271.6,-204.17 251,-219 242.57,-225.07 232.14,-229.24 222.29,-232.09"/>
<polygon fill="midnightblue" stroke="midnightblue" points="299.74,-163.22 301.13,-152.72 293.49,-160.07 299.74,-163.22"/>
</g>
<!-- Node4 -->
<g id="node4" class="node">
<title>Node4</title>
<g id="a_node4"><a xlink:href="group__tools__drafting__dimension.html#ga6b8e17d22ac4a95d25a90be8a74c0689" target="_top" xlink:title="Construct a angular dimension arc.">
<polygon fill="white" stroke="black" points="141,-190.5 141,-209.5 236,-209.5 236,-190.5 141,-190.5"/>
<text text-anchor="middle" x="188.5" y="-197.5" font-family="Helvetica,sans-Serif" font-size="10.00">draft_dim_angle</text>
</a>
</g>
</g>
<!-- Node1&#45;&gt;Node4 -->
<g id="edge3" class="edge">
<title>Node1&#45;&gt;Node4</title>
<path fill="none" stroke="midnightblue" d="M286.01,-158.81C276,-166.33 263.35,-174.97 251,-181 243.47,-184.68 235.07,-187.83 226.96,-190.45"/>
<polygon fill="midnightblue" stroke="midnightblue" points="288.28,-161.47 294.04,-152.58 283.99,-155.94 288.28,-161.47"/>
</g>
<!-- Node5 -->
<g id="node5" class="node">
<title>Node5</title>
<g id="a_node5"><a xlink:href="group__parts__3d__fastener__hinges.html#ga7e350f2c55116094108b99dd8103fc04" target="_top" xlink:title="A print&#45;in&#45;place single&#45;fold hinge generator.">
<polygon fill="white" stroke="black" points="159.5,-152.5 159.5,-171.5 217.5,-171.5 217.5,-152.5 159.5,-152.5"/>
<text text-anchor="middle" x="188.5" y="-159.5" font-family="Helvetica,sans-Serif" font-size="10.00">hinge_sf</text>
</a>
</g>
</g>
<!-- Node1&#45;&gt;Node5 -->
<g id="edge4" class="edge">
<title>Node1&#45;&gt;Node5</title>
<path fill="none" stroke="midnightblue" d="M276.9,-147.68C258.84,-150.64 235.6,-154.45 217.62,-157.39"/>
<polygon fill="midnightblue" stroke="midnightblue" points="277.56,-151.12 286.86,-146.05 276.43,-144.22 277.56,-151.12"/>
</g>
<!-- Node7 -->
<g id="node7" class="node">
<title>Node7</title>
<g id="a_node7"><a xlink:href="group__parts__3d__enclosure__mounts.html#ga0cbac43259ec43fff7785057277bcef3" target="_top" xlink:title="A screw mount post with screw bore and optional fins.">
<polygon fill="white" stroke="black" points="134.5,-114.5 134.5,-133.5 242.5,-133.5 242.5,-114.5 134.5,-114.5"/>
<text text-anchor="middle" x="188.5" y="-121.5" font-family="Helvetica,sans-Serif" font-size="10.00">mount_screw_post</text>
</a>
</g>
</g>
<!-- Node1&#45;&gt;Node7 -->
<g id="edge6" class="edge">
<title>Node1&#45;&gt;Node7</title>
<path fill="none" stroke="midnightblue" d="M276.78,-138.3C266.44,-136.6 254.41,-134.63 242.66,-132.71"/>
<polygon fill="midnightblue" stroke="midnightblue" points="276.43,-141.78 286.86,-139.95 277.56,-134.88 276.43,-141.78"/>
</g>
<!-- Node8 -->
<g id="node8" class="node">
<title>Node8</title>
<g id="a_node8"><a xlink:href="group__models__3d__misc__omdl__logo.html#gab176f64dad7e83d4fb056be44b71f630" target="_top" xlink:title="Standard omdl logo.">
<polygon fill="white" stroke="black" points="154.5,-76.5 154.5,-95.5 222.5,-95.5 222.5,-76.5 154.5,-76.5"/>
<text text-anchor="middle" x="188.5" y="-83.5" font-family="Helvetica,sans-Serif" font-size="10.00">omdl_logo</text>
</a>
</g>
</g>
<!-- Node1&#45;&gt;Node8 -->
<g id="edge7" class="edge">
<title>Node1&#45;&gt;Node8</title>
<path fill="none" stroke="midnightblue" d="M286.01,-127.19C276,-119.67 263.35,-111.03 251,-105 242.16,-100.68 232.13,-97.09 222.78,-94.23"/>
<polygon fill="midnightblue" stroke="midnightblue" points="283.99,-130.06 294.04,-133.42 288.28,-124.53 283.99,-130.06"/>
</g>
<!-- Node9 -->
<g id="node9" class="node">
<title>Node9</title>
<g id="a_node9"><a xlink:href="group__parts__3d__enclosure__power__strip.html#ga191779dedf39e4fd769a8dc96b0f8c9e" target="_top" xlink:title="A power strip generator for single gang electrical receptacles.">
<polygon fill="white" stroke="black" points="0,-38.5 0,-57.5 90,-57.5 90,-38.5 0,-38.5"/>
<text text-anchor="middle" x="45" y="-45.5" font-family="Helvetica,sans-Serif" font-size="10.00">power_strip_sg</text>
</a>
</g>
</g>
<!-- Node1&#45;&gt;Node9 -->
<g id="edge9" class="edge">
<title>Node1&#45;&gt;Node9</title>
<path fill="none" stroke="midnightblue" d="M297.56,-123.97C288.94,-105.96 273.36,-79.82 251,-67 201.54,-38.65 134.13,-38.25 90.34,-41.98"/>
<polygon fill="midnightblue" stroke="midnightblue" points="294.43,-125.56 301.73,-133.24 300.82,-122.69 294.43,-125.56"/>
</g>
<!-- Node10 -->
<g id="node10" class="node">
<title>Node10</title>
<g id="a_node10"><a xlink:href="group__parts__3d__enclosure__project__box__rectangle.html#ga6a5d093d732e65556c46252220f2c4b6" target="_top" xlink:title="A rectangular box maker for project boxes, enclosures and housings.">
<polygon fill="white" stroke="black" points="126,-0.5 126,-19.5 251,-19.5 251,-0.5 126,-0.5"/>
<text text-anchor="middle" x="188.5" y="-7.5" font-family="Helvetica,sans-Serif" font-size="10.00">project_box_rectangle</text>
</a>
</g>
</g>
<!-- Node1&#45;&gt;Node10 -->
<g id="edge10" class="edge">
<title>Node1&#45;&gt;Node10</title>
<path fill="none" stroke="midnightblue" d="M300.5,-123.66C293.35,-99.57 277.97,-58.61 251,-34 244.14,-27.74 235.47,-23.04 226.81,-19.54"/>
<polygon fill="midnightblue" stroke="midnightblue" points="297.17,-124.72 303.22,-133.42 303.91,-122.84 297.17,-124.72"/>
</g>
<!-- Node6 -->
<g id="node6" class="node">
<title>Node6</title>
<g id="a_node6"><a xlink:href="group__parts__3d__fastener__hinges.html#ga1ffc82e0bbac466d1dc4fbe6c214b765" target="_top" xlink:title="A print&#45;in&#45;place bi&#45;fold hinge generator.">
<polygon fill="white" stroke="black" points="15.5,-152.5 15.5,-171.5 74.5,-171.5 74.5,-152.5 15.5,-152.5"/>
<text text-anchor="middle" x="45" y="-159.5" font-family="Helvetica,sans-Serif" font-size="10.00">hinge_bf</text>
</a>
</g>
</g>
<!-- Node5&#45;&gt;Node6 -->
<g id="edge5" class="edge">
<title>Node5&#45;&gt;Node6</title>
<path fill="none" stroke="midnightblue" d="M148.92,-162C125.5,-162 96.1,-162 74.73,-162"/>
<polygon fill="midnightblue" stroke="midnightblue" points="149.21,-165.5 159.21,-162 149.21,-158.5 149.21,-165.5"/>
</g>
<!-- Node8&#45;&gt;Node9 -->
<g id="edge8" class="edge">
<title>Node8&#45;&gt;Node9</title>
<path fill="none" stroke="midnightblue" d="M144.45,-74.44C124.28,-69.02 100.55,-62.65 81.44,-57.52"/>
<polygon fill="midnightblue" stroke="midnightblue" points="143.76,-77.88 154.32,-77.09 145.57,-71.12 143.76,-77.88"/>
</g>
<!-- Node10&#45;&gt;Node9 -->
<g id="edge11" class="edge">
<title>Node10&#45;&gt;Node9</title>
<path fill="none" stroke="midnightblue" d="M141.9,-22.25C122.39,-27.48 99.96,-33.51 81.7,-38.41"/>
<polygon fill="midnightblue" stroke="midnightblue" points="143.04,-25.56 151.79,-19.59 141.23,-18.8 143.04,-25.56"/>
</g>
</g>
</svg>
