<?xml version="1.0" encoding="UTF-8" standalone="no"?>
<!DOCTYPE svg PUBLIC "-//W3C//DTD SVG 1.1//EN"
 "http://www.w3.org/Graphics/SVG/1.1/DTD/svg11.dtd">
<!-- Generated by graphviz version 2.43.0 (0)
 -->
<!-- Title: torus_rectangle_c Pages: 1 -->
<svg width="577pt" height="201pt"
 viewBox="0.00 0.00 577.00 201.21" xmlns="http://www.w3.org/2000/svg" xmlns:xlink="http://www.w3.org/1999/xlink">
<g id="graph0" class="graph" transform="scale(1 1) rotate(0) translate(4 197.21)">
<title>torus_rectangle_c</title>
<polygon fill="white" stroke="transparent" points="-4,4 -4,-197.21 573,-197.21 573,4 -4,4"/>
<!-- Node1 -->
<g id="node1" class="node">
<title>Node1</title>
<g id="a_node1"><a xlink:title="A rectangular cross&#45;sectional profile revolved about the z&#45;axis.">
<polygon fill="#bfbfbf" stroke="black" points="0,-97.71 0,-116.71 103,-116.71 103,-97.71 0,-97.71"/>
<text text-anchor="middle" x="51.5" y="-104.71" font-family="Helvetica,sans-Serif" font-size="10.00">torus_rectangle_c</text>
</a>
</g>
</g>
<!-- Node2 -->
<g id="node2" class="node">
<title>Node2</title>
<g id="a_node2"><a xlink:href="group__tools__extrude.html#ga78405b5fa18461a302a2f24646499ece" target="_top" xlink:title="Translate, rotate, and revolve a 2d shape about the z&#45;axis with linear elongation.">
<polygon fill="white" stroke="black" points="248,-173.71 248,-192.71 352,-192.71 352,-173.71 248,-173.71"/>
<text text-anchor="middle" x="300" y="-180.71" font-family="Helvetica,sans-Serif" font-size="10.00">extrude_rotate_trl</text>
</a>
</g>
</g>
<!-- Node1&#45;&gt;Node2 -->
<g id="edge1" class="edge">
<title>Node1&#45;&gt;Node2</title>
<path fill="none" stroke="midnightblue" d="M83.72,-116.83C128.08,-130.51 209.39,-155.58 258.39,-170.69"/>
<polygon fill="midnightblue" stroke="midnightblue" points="257.45,-174.06 268.03,-173.66 259.51,-167.37 257.45,-174.06"/>
</g>
<!-- Node8 -->
<g id="node8" class="node">
<title>Node8</title>
<g id="a_node8"><a xlink:href="group__shapes__basic__2d.html#ga803b8196745be0e3a338def3c58e3b2b" target="_top" xlink:title="A rectangle with a removed rectangular core.">
<polygon fill="white" stroke="black" points="139,-78.71 139,-97.71 212,-97.71 212,-78.71 139,-78.71"/>
<text text-anchor="middle" x="175.5" y="-85.71" font-family="Helvetica,sans-Serif" font-size="10.00">rectangle_c</text>
</a>
</g>
</g>
<!-- Node1&#45;&gt;Node8 -->
<g id="edge7" class="edge">
<title>Node1&#45;&gt;Node8</title>
<path fill="none" stroke="midnightblue" d="M103.18,-99.32C111.65,-98 120.39,-96.63 128.73,-95.34"/>
<polygon fill="midnightblue" stroke="midnightblue" points="129.32,-98.79 138.66,-93.79 128.24,-91.87 129.32,-98.79"/>
</g>
<!-- Node3 -->
<g id="node3" class="node">
<title>Node3</title>
<g id="a_node3"><a xlink:href="group__datatypes__binary.html#ga7ce4ed94d9b389ff817ea219918b8732" target="_top" xlink:title="Test if a binary bit position of an integer value equals a test bit.">
<polygon fill="white" stroke="black" points="399,-97.71 399,-116.71 478,-116.71 478,-97.71 399,-97.71"/>
<text text-anchor="middle" x="438.5" y="-104.71" font-family="Helvetica,sans-Serif" font-size="10.00">binary_bit_is</text>
</a>
</g>
</g>
<!-- Node2&#45;&gt;Node3 -->
<g id="edge2" class="edge">
<title>Node2&#45;&gt;Node3</title>
<path fill="none" stroke="midnightblue" d="M333.37,-173.69C339.81,-171.11 346.33,-167.96 352,-164.21 371.4,-151.37 368.66,-139.14 388,-126.21 390.88,-124.28 393.98,-122.51 397.18,-120.89"/>
<polygon fill="midnightblue" stroke="midnightblue" points="398.69,-124.05 406.34,-116.73 395.79,-117.68 398.69,-124.05"/>
</g>
<!-- Node4 -->
<g id="node4" class="node">
<title>Node4</title>
<g id="a_node4"><a xlink:href="group__datatypes__iterable__operate.html#ga3d37c2b0067d1661724bd89955c8f6ce" target="_top" xlink:title="Return an element of an iterable when it exists or a default value otherwise.">
<polygon fill="white" stroke="black" points="399,-59.71 399,-78.71 478,-78.71 478,-59.71 399,-59.71"/>
<text text-anchor="middle" x="438.5" y="-66.71" font-family="Helvetica,sans-Serif" font-size="10.00">defined_e_or</text>
</a>
</g>
</g>
<!-- Node2&#45;&gt;Node4 -->
<g id="edge3" class="edge">
<title>Node2&#45;&gt;Node4</title>
<path fill="none" stroke="midnightblue" d="M337.56,-173.59C342.8,-171.12 347.82,-168.04 352,-164.21 379.54,-138.94 360.59,-113.62 388,-88.21 389.7,-86.63 391.55,-85.18 393.49,-83.85"/>
<polygon fill="midnightblue" stroke="midnightblue" points="395.55,-86.7 402.52,-78.72 392.09,-80.62 395.55,-86.7"/>
</g>
<!-- Node5 -->
<g id="node5" class="node">
<title>Node5</title>
<g id="a_node5"><a xlink:href="group__tools__extrude.html#ga31947e37a3512d9814d47f8f8c960f84" target="_top" xlink:title="Translate, rotate, and revolve a 2d shape about the z&#45;axis.">
<polygon fill="white" stroke="black" points="388,-173.71 388,-192.71 489,-192.71 489,-173.71 388,-173.71"/>
<text text-anchor="middle" x="438.5" y="-180.71" font-family="Helvetica,sans-Serif" font-size="10.00">extrude_rotate_tr</text>
</a>
</g>
</g>
<!-- Node2&#45;&gt;Node5 -->
<g id="edge4" class="edge">
<title>Node2&#45;&gt;Node5</title>
<path fill="none" stroke="midnightblue" d="M352.22,-183.21C360.5,-183.21 369.14,-183.21 377.6,-183.21"/>
<polygon fill="midnightblue" stroke="midnightblue" points="377.81,-186.71 387.81,-183.21 377.81,-179.71 377.81,-186.71"/>
</g>
<!-- Node7 -->
<g id="node7" class="node">
<title>Node7</title>
<g id="a_node7"><a xlink:href="group__datatypes__scalar__test.html#ga258e8911375d30ff85a6e52df01dc1c5" target="_top" xlink:title="Test if a value is a single non&#45;iterable value.">
<polygon fill="white" stroke="black" points="409,-135.71 409,-154.71 468,-154.71 468,-135.71 409,-135.71"/>
<text text-anchor="middle" x="438.5" y="-142.71" font-family="Helvetica,sans-Serif" font-size="10.00">is_scalar</text>
</a>
</g>
</g>
<!-- Node2&#45;&gt;Node7 -->
<g id="edge6" class="edge">
<title>Node2&#45;&gt;Node7</title>
<path fill="none" stroke="midnightblue" d="M335.44,-173.62C354.77,-168.24 378.93,-161.51 398.89,-155.96"/>
<polygon fill="midnightblue" stroke="midnightblue" points="399.91,-159.31 408.6,-153.25 398.03,-152.56 399.91,-159.31"/>
</g>
<!-- Node6 -->
<g id="node6" class="node">
<title>Node6</title>
<g id="a_node6"><a xlink:href="group__units__angle.html#ga06a917b77748dfb74e765bcd7c4c0219" target="_top" xlink:title="Convert an angle from some units to another.">
<polygon fill="white" stroke="black" points="525,-173.71 525,-192.71 569,-192.71 569,-173.71 525,-173.71"/>
<text text-anchor="middle" x="547" y="-180.71" font-family="Helvetica,sans-Serif" font-size="10.00">angle</text>
</a>
</g>
</g>
<!-- Node5&#45;&gt;Node6 -->
<g id="edge5" class="edge">
<title>Node5&#45;&gt;Node6</title>
<path fill="none" stroke="midnightblue" d="M489.01,-183.21C497.77,-183.21 506.67,-183.21 514.75,-183.21"/>
<polygon fill="midnightblue" stroke="midnightblue" points="514.82,-186.71 524.82,-183.21 514.82,-179.71 514.82,-186.71"/>
</g>
<!-- Node8&#45;&gt;Node4 -->
<g id="edge9" class="edge">
<title>Node8&#45;&gt;Node4</title>
<path fill="none" stroke="midnightblue" d="M181.84,-78.65C192.07,-61.49 216.24,-25.94 248,-12.21 290.43,6.13 307.76,1.19 352,-12.21 378.17,-20.13 403.66,-39 419.89,-52.87"/>
<polygon fill="midnightblue" stroke="midnightblue" points="417.68,-55.59 427.49,-59.58 422.31,-50.34 417.68,-55.59"/>
</g>
<!-- Node9 -->
<g id="node9" class="node">
<title>Node9</title>
<g id="a_node9"><a xlink:href="group__datatypes__iterable__test.html#ga3fa2b76e04a4c8bba633d9e5e08004e8" target="_top" xlink:title="Test if no element of an iterable value has an undefined value.">
<polygon fill="white" stroke="black" points="265,-135.71 265,-154.71 335,-154.71 335,-135.71 265,-135.71"/>
<text text-anchor="middle" x="300" y="-142.71" font-family="Helvetica,sans-Serif" font-size="10.00">all_defined</text>
</a>
</g>
</g>
<!-- Node8&#45;&gt;Node9 -->
<g id="edge8" class="edge">
<title>Node8&#45;&gt;Node9</title>
<path fill="none" stroke="midnightblue" d="M192.95,-97.75C207.24,-105.85 228.64,-117.5 248,-126.21 252.45,-128.21 257.18,-130.18 261.9,-132.04"/>
<polygon fill="midnightblue" stroke="midnightblue" points="260.88,-135.4 271.47,-135.71 263.38,-128.86 260.88,-135.4"/>
</g>
<!-- Node10 -->
<g id="node10" class="node">
<title>Node10</title>
<g id="a_node10"><a xlink:href="group__datatypes__scalar__operate.html#gac119300e8c83de0037f2d0a4d9f0ab5c" target="_top" xlink:title="Return given value, if defined, or a secondary value, if primary is not defined.">
<polygon fill="white" stroke="black" points="266,-97.71 266,-116.71 334,-116.71 334,-97.71 266,-97.71"/>
<text text-anchor="middle" x="300" y="-104.71" font-family="Helvetica,sans-Serif" font-size="10.00">defined_or</text>
</a>
</g>
</g>
<!-- Node8&#45;&gt;Node10 -->
<g id="edge10" class="edge">
<title>Node8&#45;&gt;Node10</title>
<path fill="none" stroke="midnightblue" d="M212.26,-93.76C225.9,-95.87 241.59,-98.3 255.84,-100.52"/>
<polygon fill="midnightblue" stroke="midnightblue" points="255.5,-104 265.92,-102.08 256.57,-97.09 255.5,-104"/>
</g>
<!-- Node11 -->
<g id="node11" class="node">
<title>Node11</title>
<g id="a_node11"><a xlink:href="group__datatypes__scalar__test.html#ga51d7fdb800c10f4b7479d23b89ab8d22" target="_top" xlink:title="Test if a value is defined.">
<polygon fill="white" stroke="black" points="267,-21.71 267,-40.71 333,-40.71 333,-21.71 267,-21.71"/>
<text text-anchor="middle" x="300" y="-28.71" font-family="Helvetica,sans-Serif" font-size="10.00">is_defined</text>
</a>
</g>
</g>
<!-- Node8&#45;&gt;Node11 -->
<g id="edge11" class="edge">
<title>Node8&#45;&gt;Node11</title>
<path fill="none" stroke="midnightblue" d="M192.95,-78.67C207.24,-70.57 228.64,-58.91 248,-50.21 252.45,-48.21 257.18,-46.24 261.9,-44.37"/>
<polygon fill="midnightblue" stroke="midnightblue" points="263.38,-47.55 271.47,-40.71 260.88,-41.02 263.38,-47.55"/>
</g>
<!-- Node12 -->
<g id="node12" class="node">
<title>Node12</title>
<g id="a_node12"><a xlink:href="group__shapes__basic__2d.html#ga9f679c29426c44ee83b4a13b5dd47138" target="_top" xlink:title="A rectangle with corner rounds or chamfers.">
<polygon fill="white" stroke="black" points="269,-59.71 269,-78.71 331,-78.71 331,-59.71 269,-59.71"/>
<text text-anchor="middle" x="300" y="-66.71" font-family="Helvetica,sans-Serif" font-size="10.00">rectangle</text>
</a>
</g>
</g>
<!-- Node8&#45;&gt;Node12 -->
<g id="edge12" class="edge">
<title>Node8&#45;&gt;Node12</title>
<path fill="none" stroke="midnightblue" d="M212.26,-82.66C226.84,-80.4 243.75,-77.78 258.76,-75.45"/>
<polygon fill="midnightblue" stroke="midnightblue" points="259.44,-78.89 268.79,-73.89 258.37,-71.97 259.44,-78.89"/>
</g>
<!-- Node12&#45;&gt;Node3 -->
<g id="edge13" class="edge">
<title>Node12&#45;&gt;Node3</title>
<path fill="none" stroke="midnightblue" d="M331.29,-77.64C349.52,-82.72 373.04,-89.26 393.31,-94.91"/>
<polygon fill="midnightblue" stroke="midnightblue" points="392.39,-98.28 402.96,-97.59 394.27,-91.54 392.39,-98.28"/>
</g>
<!-- Node12&#45;&gt;Node4 -->
<g id="edge14" class="edge">
<title>Node12&#45;&gt;Node4</title>
<path fill="none" stroke="midnightblue" d="M331.29,-69.21C348.2,-69.21 369.67,-69.21 388.88,-69.21"/>
<polygon fill="midnightblue" stroke="midnightblue" points="388.97,-72.71 398.97,-69.21 388.97,-65.71 388.97,-72.71"/>
</g>
<!-- Node12&#45;&gt;Node7 -->
<g id="edge15" class="edge">
<title>Node12&#45;&gt;Node7</title>
<path fill="none" stroke="midnightblue" d="M331.23,-77.89C338.35,-80.62 345.7,-84.04 352,-88.21 371.4,-101.05 368.66,-113.28 388,-126.21 391.57,-128.6 395.49,-130.75 399.5,-132.67"/>
<polygon fill="midnightblue" stroke="midnightblue" points="398.37,-135.99 408.94,-136.72 401.13,-129.56 398.37,-135.99"/>
</g>
</g>
</svg>
