<?xml version="1.0" encoding="UTF-8" standalone="no"?>
<!DOCTYPE svg PUBLIC "-//W3C//DTD SVG 1.1//EN"
 "http://www.w3.org/Graphics/SVG/1.1/DTD/svg11.dtd">
<!-- Generated by graphviz version 2.43.0 (0)
 -->
<!-- Title: draft_arc Pages: 1 -->
<svg width="545pt" height="465pt"
 viewBox="0.00 0.00 545.00 465.00" xmlns="http://www.w3.org/2000/svg" xmlns:xlink="http://www.w3.org/1999/xlink">
<g id="graph0" class="graph" transform="scale(1 1) rotate(0) translate(4 461)">
<title>draft_arc</title>
<polygon fill="white" stroke="transparent" points="-4,4 -4,-461 541,-461 541,4 -4,4"/>
<!-- Node1 -->
<g id="node1" class="node">
<title>Node1</title>
<g id="a_node1"><a xlink:title="Draft an arc with configurable style and optional arrowheads.">
<polygon fill="#bfbfbf" stroke="black" points="0,-152.5 0,-171.5 59,-171.5 59,-152.5 0,-152.5"/>
<text text-anchor="middle" x="29.5" y="-159.5" font-family="Helvetica,sans-Serif" font-size="10.00">draft_arc</text>
</a>
</g>
</g>
<!-- Node2 -->
<g id="node2" class="node">
<title>Node2</title>
<g id="a_node2"><a xlink:href="group__datatypes__iterable__test.html#ga4dfc58aa5f208e103e622684db817ce6" target="_top" xlink:title="Test if all elements of an iterable value equal a comparison value.">
<polygon fill="white" stroke="black" points="100.5,-304.5 100.5,-323.5 161.5,-323.5 161.5,-304.5 100.5,-304.5"/>
<text text-anchor="middle" x="131" y="-311.5" font-family="Helvetica,sans-Serif" font-size="10.00">all_equal</text>
</a>
</g>
</g>
<!-- Node1&#45;&gt;Node2 -->
<g id="edge1" class="edge">
<title>Node1&#45;&gt;Node2</title>
<path fill="none" stroke="midnightblue" d="M33.48,-171.63C40.89,-194.34 61.92,-252.15 95,-290 97.65,-293.03 100.77,-295.87 104.03,-298.45"/>
<polygon fill="midnightblue" stroke="midnightblue" points="102.08,-301.35 112.25,-304.31 106.14,-295.65 102.08,-301.35"/>
</g>
<!-- Node3 -->
<g id="node3" class="node">
<title>Node3</title>
<g id="a_node3"><a xlink:href="group__datatypes__iterable__operate.html#ga3d37c2b0067d1661724bd89955c8f6ce" target="_top" xlink:title="Return an element of an iterable when it exists or a default value otherwise.">
<polygon fill="white" stroke="black" points="207,-361.5 207,-380.5 286,-380.5 286,-361.5 207,-361.5"/>
<text text-anchor="middle" x="246.5" y="-368.5" font-family="Helvetica,sans-Serif" font-size="10.00">defined_e_or</text>
</a>
</g>
</g>
<!-- Node1&#45;&gt;Node3 -->
<g id="edge2" class="edge">
<title>Node1&#45;&gt;Node3</title>
<path fill="none" stroke="midnightblue" d="M35.39,-171.65C44.87,-189.64 67.3,-228.79 95,-254 122.23,-278.79 140.37,-269.56 167,-295 188.67,-315.7 180.35,-332.38 203,-352 204.74,-353.51 206.61,-354.91 208.57,-356.22"/>
<polygon fill="midnightblue" stroke="midnightblue" points="207.15,-359.43 217.57,-361.35 210.62,-353.35 207.15,-359.43"/>
</g>
<!-- Node4 -->
<g id="node4" class="node">
<title>Node4</title>
<g id="a_node4"><a xlink:href="group__tools__drafting__primitive.html#ga6f12ccd4c9de0a8ab887184911f39c8f" target="_top" xlink:title="Draft an arrowhead at the terminal point of a line.">
<polygon fill="white" stroke="black" points="95,-190.5 95,-209.5 167,-209.5 167,-190.5 95,-190.5"/>
<text text-anchor="middle" x="131" y="-197.5" font-family="Helvetica,sans-Serif" font-size="10.00">draft_arrow</text>
</a>
</g>
</g>
<!-- Node1&#45;&gt;Node4 -->
<g id="edge3" class="edge">
<title>Node1&#45;&gt;Node4</title>
<path fill="none" stroke="midnightblue" d="M55.61,-171.59C67.63,-176.18 82.21,-181.75 95.28,-186.74"/>
<polygon fill="midnightblue" stroke="midnightblue" points="94.31,-190.12 104.9,-190.41 96.81,-183.58 94.31,-190.12"/>
</g>
<!-- Node8 -->
<g id="node8" class="node">
<title>Node8</title>
<g id="a_node8"><a xlink:href="group__tools__drafting__primitive.html#ga4e7c5fa02dbc244702042067553a9225" target="_top" xlink:title="Draft a simple line from an initial to a terminal point.">
<polygon fill="white" stroke="black" points="206.5,-323.5 206.5,-342.5 286.5,-342.5 286.5,-323.5 206.5,-323.5"/>
<text text-anchor="middle" x="246.5" y="-330.5" font-family="Helvetica,sans-Serif" font-size="10.00">draft_line_pp</text>
</a>
</g>
</g>
<!-- Node1&#45;&gt;Node8 -->
<g id="edge26" class="edge">
<title>Node1&#45;&gt;Node8</title>
<path fill="none" stroke="midnightblue" d="M40.5,-171.9C52.78,-183.79 74.49,-204.01 95,-219 125.09,-240.99 139.77,-236.54 167,-262 187.53,-281.2 181.37,-296.05 203,-314 204.96,-315.63 207.08,-317.14 209.29,-318.54"/>
<polygon fill="midnightblue" stroke="midnightblue" points="207.69,-321.66 218.13,-323.42 211.07,-315.53 207.69,-321.66"/>
</g>
<!-- Node21 -->
<g id="node21" class="node">
<title>Node21</title>
<g id="a_node21"><a xlink:href="group__math__polygon.html#ga0e085cf8ec515dccdeff907f84fdae55" target="_top" xlink:title="Compute coordinates of an arc with constant radius between two vectors in 2D.">
<polygon fill="white" stroke="black" points="203,-57.5 203,-76.5 290,-76.5 290,-57.5 203,-57.5"/>
<text text-anchor="middle" x="246.5" y="-64.5" font-family="Helvetica,sans-Serif" font-size="10.00">polygon_arc_p</text>
</a>
</g>
</g>
<!-- Node1&#45;&gt;Node21 -->
<g id="edge29" class="edge">
<title>Node1&#45;&gt;Node21</title>
<path fill="none" stroke="midnightblue" d="M59.19,-163.17C88.52,-163.02 134.28,-158.96 167,-138 190.67,-122.84 181.37,-103.95 203,-86 204.96,-84.37 207.08,-82.86 209.29,-81.46"/>
<polygon fill="midnightblue" stroke="midnightblue" points="211.07,-84.47 218.13,-76.58 207.69,-78.34 211.07,-84.47"/>
</g>
<!-- Node22 -->
<g id="node22" class="node">
<title>Node22</title>
<g id="a_node22"><a xlink:href="group__datatypes__iterable__operate.html#gadb933df06b10d64dda8823069bdc84b7" target="_top" xlink:title="Return a list of all n&#45;element sequential&#45;subsets of an iterable value.">
<polygon fill="white" stroke="black" points="206.5,-19.5 206.5,-38.5 286.5,-38.5 286.5,-19.5 206.5,-19.5"/>
<text text-anchor="middle" x="246.5" y="-26.5" font-family="Helvetica,sans-Serif" font-size="10.00">sequence_ns</text>
</a>
</g>
</g>
<!-- Node1&#45;&gt;Node22 -->
<g id="edge31" class="edge">
<title>Node1&#45;&gt;Node22</title>
<path fill="none" stroke="midnightblue" d="M55.58,-152.47C92.49,-138.31 158.05,-112.56 167,-105 189.89,-85.66 180.35,-67.62 203,-48 204.74,-46.49 206.61,-45.09 208.57,-43.78"/>
<polygon fill="midnightblue" stroke="midnightblue" points="210.62,-46.65 217.57,-38.65 207.15,-40.57 210.62,-46.65"/>
</g>
<!-- Node23 -->
<g id="node23" class="node">
<title>Node23</title>
<g id="a_node23"><a xlink:href="group__datatypes__iterable__operate.html#ga10badea95b6bf88048b4a0b347b2d291" target="_top" xlink:title="Return a list containing the first n elements of an iterable value.">
<polygon fill="white" stroke="black" points="110.5,-76.5 110.5,-95.5 151.5,-95.5 151.5,-76.5 110.5,-76.5"/>
<text text-anchor="middle" x="131" y="-83.5" font-family="Helvetica,sans-Serif" font-size="10.00">firstn</text>
</a>
</g>
</g>
<!-- Node1&#45;&gt;Node23 -->
<g id="edge27" class="edge">
<title>Node1&#45;&gt;Node23</title>
<path fill="none" stroke="midnightblue" d="M42.17,-152.14C54.93,-141.46 76.08,-124.08 95,-110 98.83,-107.15 102.96,-104.21 106.99,-101.4"/>
<polygon fill="midnightblue" stroke="midnightblue" points="109.25,-104.1 115.52,-95.56 105.29,-98.32 109.25,-104.1"/>
</g>
<!-- Node24 -->
<g id="node24" class="node">
<title>Node24</title>
<g id="a_node24"><a xlink:href="group__datatypes__iterable__operate.html#gaa735a2d01ca5c17ff07616657eb0aa83" target="_top" xlink:title="Return a list containing the last n elements of an iterable value.">
<polygon fill="white" stroke="black" points="110.5,-38.5 110.5,-57.5 151.5,-57.5 151.5,-38.5 110.5,-38.5"/>
<text text-anchor="middle" x="131" y="-45.5" font-family="Helvetica,sans-Serif" font-size="10.00">lastn</text>
</a>
</g>
</g>
<!-- Node1&#45;&gt;Node24 -->
<g id="edge28" class="edge">
<title>Node1&#45;&gt;Node24</title>
<path fill="none" stroke="midnightblue" d="M35.11,-152.26C44.3,-133.71 66.48,-92.82 95,-67 96.97,-65.21 99.14,-63.53 101.41,-61.97"/>
<polygon fill="midnightblue" stroke="midnightblue" points="103.65,-64.71 110.39,-56.53 100.02,-58.72 103.65,-64.71"/>
</g>
<!-- Node25 -->
<g id="node25" class="node">
<title>Node25</title>
<g id="a_node25"><a xlink:href="group__datatypes__iterable__operate.html#gafb1f112a3ab162d589c49d1b2de21b9e" target="_top" xlink:title="Reverse the elements of an iterable value.">
<polygon fill="white" stroke="black" points="104.5,-0.5 104.5,-19.5 157.5,-19.5 157.5,-0.5 104.5,-0.5"/>
<text text-anchor="middle" x="131" y="-7.5" font-family="Helvetica,sans-Serif" font-size="10.00">reverse</text>
</a>
</g>
</g>
<!-- Node1&#45;&gt;Node25 -->
<g id="edge30" class="edge">
<title>Node1&#45;&gt;Node25</title>
<path fill="none" stroke="midnightblue" d="M32.93,-152.45C39.35,-128.84 58.84,-66.86 95,-29 96.21,-27.73 97.53,-26.52 98.92,-25.38"/>
<polygon fill="midnightblue" stroke="midnightblue" points="101.17,-28.08 107.44,-19.55 97.21,-22.31 101.17,-28.08"/>
</g>
<!-- Node4&#45;&gt;Node3 -->
<g id="edge6" class="edge">
<title>Node4&#45;&gt;Node3</title>
<path fill="none" stroke="midnightblue" d="M138.12,-209.88C145.46,-221.93 157.91,-243.05 167,-262 185.63,-300.84 173.15,-320.94 203,-352 204.39,-353.44 205.9,-354.78 207.51,-356.03"/>
<polygon fill="midnightblue" stroke="midnightblue" points="205.81,-359.09 216.13,-361.49 209.55,-353.18 205.81,-359.09"/>
</g>
<!-- Node5 -->
<g id="node5" class="node">
<title>Node5</title>
<g id="a_node5"><a xlink:href="group__datatypes__euclidean.html#ga3d5c07c70f271bcf9144f50ce8620a89" target="_top" xlink:title="Compute the angle between two lines or vectors in a 3d or 2d&#45;space.">
<polygon fill="white" stroke="black" points="469.5,-209.5 469.5,-228.5 524.5,-228.5 524.5,-209.5 469.5,-209.5"/>
<text text-anchor="middle" x="497" y="-216.5" font-family="Helvetica,sans-Serif" font-size="10.00">angle_ll</text>
</a>
</g>
</g>
<!-- Node4&#45;&gt;Node5 -->
<g id="edge4" class="edge">
<title>Node4&#45;&gt;Node5</title>
<path fill="none" stroke="midnightblue" d="M167.23,-201.84C236.3,-205.44 388.88,-213.41 459.2,-217.08"/>
<polygon fill="midnightblue" stroke="midnightblue" points="459.18,-220.58 469.35,-217.61 459.55,-213.59 459.18,-220.58"/>
</g>
<!-- Node6 -->
<g id="node6" class="node">
<title>Node6</title>
<g id="a_node6"><a xlink:href="group__datatypes__binary.html#ga7ce4ed94d9b389ff817ea219918b8732" target="_top" xlink:title="Test if a binary bit position of an integer value equals a test bit.">
<polygon fill="white" stroke="black" points="207,-171.5 207,-190.5 286,-190.5 286,-171.5 207,-171.5"/>
<text text-anchor="middle" x="246.5" y="-178.5" font-family="Helvetica,sans-Serif" font-size="10.00">binary_bit_is</text>
</a>
</g>
</g>
<!-- Node4&#45;&gt;Node6 -->
<g id="edge5" class="edge">
<title>Node4&#45;&gt;Node6</title>
<path fill="none" stroke="midnightblue" d="M167.29,-194.09C176.56,-192.54 186.73,-190.84 196.58,-189.19"/>
<polygon fill="midnightblue" stroke="midnightblue" points="197.39,-192.6 206.68,-187.5 196.24,-185.7 197.39,-192.6"/>
</g>
<!-- Node7 -->
<g id="node7" class="node">
<title>Node7</title>
<g id="a_node7"><a xlink:href="group__tools__drafting__config.html#gabb4fa7092928ba8803b550ac6d733f64" target="_top" xlink:title="Get drafting configuration default helper function.">
<polygon fill="white" stroke="black" points="326,-247.5 326,-266.5 421,-266.5 421,-247.5 326,-247.5"/>
<text text-anchor="middle" x="373.5" y="-254.5" font-family="Helvetica,sans-Serif" font-size="10.00">draft_get_config</text>
</a>
</g>
</g>
<!-- Node4&#45;&gt;Node7 -->
<g id="edge7" class="edge">
<title>Node4&#45;&gt;Node7</title>
<path fill="none" stroke="midnightblue" d="M148.95,-209.61C162.99,-217.15 183.71,-227.29 203,-233 239.67,-243.86 282.31,-249.86 315.64,-253.15"/>
<polygon fill="midnightblue" stroke="midnightblue" points="315.39,-256.65 325.67,-254.09 316.04,-249.68 315.39,-256.65"/>
</g>
<!-- Node4&#45;&gt;Node8 -->
<g id="edge8" class="edge">
<title>Node4&#45;&gt;Node8</title>
<path fill="none" stroke="midnightblue" d="M150.38,-209.7C156.3,-213.53 162.49,-218.36 167,-224 193.93,-257.63 173.15,-282.94 203,-314 204.39,-315.44 205.9,-316.78 207.51,-318.03"/>
<polygon fill="midnightblue" stroke="midnightblue" points="205.81,-321.09 216.13,-323.49 209.55,-315.18 205.81,-321.09"/>
</g>
<!-- Node12 -->
<g id="node12" class="node">
<title>Node12</title>
<g id="a_node12"><a xlink:href="group__datatypes__euclidean.html#ga299bce4158dc8d0a7a8e7d9967b8ea4e" target="_top" xlink:title="Return the terminal point of a line or vector.">
<polygon fill="white" stroke="black" points="472,-152.5 472,-171.5 522,-171.5 522,-152.5 472,-152.5"/>
<text text-anchor="middle" x="497" y="-159.5" font-family="Helvetica,sans-Serif" font-size="10.00">line_tp</text>
</a>
</g>
</g>
<!-- Node4&#45;&gt;Node12 -->
<g id="edge23" class="edge">
<title>Node4&#45;&gt;Node12</title>
<path fill="none" stroke="midnightblue" d="M145.06,-190.45C158.71,-181.09 181.17,-167.48 203,-162 294.32,-139.1 406.73,-149.31 462.02,-156.73"/>
<polygon fill="midnightblue" stroke="midnightblue" points="461.59,-160.2 471.97,-158.12 462.55,-153.27 461.59,-160.2"/>
</g>
<!-- Node18 -->
<g id="node18" class="node">
<title>Node18</title>
<g id="a_node18"><a xlink:href="group__tools__operation__cs.html#gafa05aca176d441020de53da835e3dd60" target="_top" xlink:title="Conditionally apply the convex hull transformation.">
<polygon fill="white" stroke="black" points="221.5,-95.5 221.5,-114.5 271.5,-114.5 271.5,-95.5 221.5,-95.5"/>
<text text-anchor="middle" x="246.5" y="-102.5" font-family="Helvetica,sans-Serif" font-size="10.00">hull_cs</text>
</a>
</g>
</g>
<!-- Node4&#45;&gt;Node18 -->
<g id="edge20" class="edge">
<title>Node4&#45;&gt;Node18</title>
<path fill="none" stroke="midnightblue" d="M148.13,-190.47C154.36,-186.41 161.33,-181.38 167,-176 186.09,-157.89 183.14,-146.26 203,-129 206.8,-125.7 211.12,-122.64 215.52,-119.88"/>
<polygon fill="midnightblue" stroke="midnightblue" points="217.61,-122.72 224.51,-114.68 214.1,-116.66 217.61,-122.72"/>
</g>
<!-- Node20 -->
<g id="node20" class="node">
<title>Node20</title>
<g id="a_node20"><a xlink:href="group__datatypes__euclidean.html#gaa686049dfa9296b441a12e225aa1537d" target="_top" xlink:title="Construct a 2 dimensional directed line.">
<polygon fill="white" stroke="black" points="210.5,-285.5 210.5,-304.5 282.5,-304.5 282.5,-285.5 210.5,-285.5"/>
<text text-anchor="middle" x="246.5" y="-292.5" font-family="Helvetica,sans-Serif" font-size="10.00">line2d_new</text>
</a>
</g>
</g>
<!-- Node4&#45;&gt;Node20 -->
<g id="edge22" class="edge">
<title>Node4&#45;&gt;Node20</title>
<path fill="none" stroke="midnightblue" d="M148.13,-209.53C154.36,-213.59 161.33,-218.62 167,-224 186.09,-242.11 183.14,-253.74 203,-271 206.8,-274.3 211.12,-277.36 215.52,-280.12"/>
<polygon fill="midnightblue" stroke="midnightblue" points="214.1,-283.34 224.51,-285.32 217.61,-277.28 214.1,-283.34"/>
</g>
<!-- Node4&#45;&gt;Node21 -->
<g id="edge24" class="edge">
<title>Node4&#45;&gt;Node21</title>
<path fill="none" stroke="midnightblue" d="M150.38,-190.3C156.3,-186.47 162.49,-181.64 167,-176 193.93,-142.37 173.15,-117.06 203,-86 204.39,-84.56 205.9,-83.22 207.51,-81.97"/>
<polygon fill="midnightblue" stroke="midnightblue" points="209.55,-84.82 216.13,-76.51 205.81,-78.91 209.55,-84.82"/>
</g>
<!-- Node4&#45;&gt;Node22 -->
<g id="edge25" class="edge">
<title>Node4&#45;&gt;Node22</title>
<path fill="none" stroke="midnightblue" d="M138.12,-190.12C145.46,-178.07 157.91,-156.95 167,-138 185.63,-99.16 173.15,-79.06 203,-48 204.39,-46.56 205.9,-45.22 207.51,-43.97"/>
<polygon fill="midnightblue" stroke="midnightblue" points="209.55,-46.82 216.13,-38.51 205.81,-40.91 209.55,-46.82"/>
</g>
<!-- Node8&#45;&gt;Node7 -->
<g id="edge19" class="edge">
<title>Node8&#45;&gt;Node7</title>
<path fill="none" stroke="midnightblue" d="M273.55,-323.3C279.21,-320.67 284.99,-317.55 290,-314 308.98,-300.55 306.8,-289.14 326,-276 328.58,-274.23 331.35,-272.59 334.2,-271.07"/>
<polygon fill="midnightblue" stroke="midnightblue" points="335.98,-274.1 343.49,-266.63 332.95,-267.79 335.98,-274.1"/>
</g>
<!-- Node9 -->
<g id="node9" class="node">
<title>Node9</title>
<g id="a_node9"><a xlink:href="group__tools__align.html#ga7a21147611850c6cae7e95d23417099b" target="_top" xlink:title="Align a line or vector to a reference line or vector.">
<polygon fill="white" stroke="black" points="347.5,-323.5 347.5,-342.5 399.5,-342.5 399.5,-323.5 347.5,-323.5"/>
<text text-anchor="middle" x="373.5" y="-330.5" font-family="Helvetica,sans-Serif" font-size="10.00">align_ll</text>
</a>
</g>
</g>
<!-- Node8&#45;&gt;Node9 -->
<g id="edge9" class="edge">
<title>Node8&#45;&gt;Node9</title>
<path fill="none" stroke="midnightblue" d="M286.71,-333C302.76,-333 321.21,-333 336.88,-333"/>
<polygon fill="midnightblue" stroke="midnightblue" points="337.22,-336.5 347.22,-333 337.22,-329.5 337.22,-336.5"/>
</g>
<!-- Node17 -->
<g id="node17" class="node">
<title>Node17</title>
<g id="a_node17"><a xlink:href="group__datatypes__euclidean.html#gaef5b930729755b4420098776467ac210" target="_top" xlink:title="Compute the distance between two points.">
<polygon fill="white" stroke="black" points="336,-285.5 336,-304.5 411,-304.5 411,-285.5 336,-285.5"/>
<text text-anchor="middle" x="373.5" y="-292.5" font-family="Helvetica,sans-Serif" font-size="10.00">distance_pp</text>
</a>
</g>
</g>
<!-- Node8&#45;&gt;Node17 -->
<g id="edge18" class="edge">
<title>Node8&#45;&gt;Node17</title>
<path fill="none" stroke="midnightblue" d="M279.04,-323.41C294.88,-318.6 314.27,-312.7 331.28,-307.53"/>
<polygon fill="midnightblue" stroke="midnightblue" points="332.42,-310.84 340.97,-304.59 330.38,-304.15 332.42,-310.84"/>
</g>
<!-- Node9&#45;&gt;Node5 -->
<g id="edge10" class="edge">
<title>Node9&#45;&gt;Node5</title>
<path fill="none" stroke="midnightblue" d="M399.65,-326.58C407.2,-323.7 415.05,-319.64 421,-314 448.14,-288.3 430.72,-264.57 457,-238 458.39,-236.59 459.91,-235.28 461.51,-234.05"/>
<polygon fill="midnightblue" stroke="midnightblue" points="463.5,-236.93 470.02,-228.58 459.72,-231.03 463.5,-236.93"/>
</g>
<!-- Node10 -->
<g id="node10" class="node">
<title>Node10</title>
<g id="a_node10"><a xlink:href="group__datatypes__euclidean.html#ga882329ee346d5a7f9d0877afd115c3de" target="_top" xlink:title="Compute the cross product of two lines or vectors in a 3d or 2d&#45;space.">
<polygon fill="white" stroke="black" points="470.5,-437.5 470.5,-456.5 523.5,-456.5 523.5,-437.5 470.5,-437.5"/>
<text text-anchor="middle" x="497" y="-444.5" font-family="Helvetica,sans-Serif" font-size="10.00">cross_ll</text>
</a>
</g>
</g>
<!-- Node9&#45;&gt;Node10 -->
<g id="edge11" class="edge">
<title>Node9&#45;&gt;Node10</title>
<path fill="none" stroke="midnightblue" d="M380.95,-342.77C393.65,-361.37 423.55,-402.33 457,-428 459.04,-429.56 461.23,-431.05 463.49,-432.45"/>
<polygon fill="midnightblue" stroke="midnightblue" points="461.97,-435.61 472.41,-437.4 465.37,-429.49 461.97,-435.61"/>
</g>
<!-- Node11 -->
<g id="node11" class="node">
<title>Node11</title>
<g id="a_node11"><a xlink:href="group__datatypes__euclidean.html#ga8115b05f16bcc197e3e339a65f4d3e49" target="_top" xlink:title="Return the initial point of a line or vector.">
<polygon fill="white" stroke="black" points="472.5,-399.5 472.5,-418.5 521.5,-418.5 521.5,-399.5 472.5,-399.5"/>
<text text-anchor="middle" x="497" y="-406.5" font-family="Helvetica,sans-Serif" font-size="10.00">line_ip</text>
</a>
</g>
</g>
<!-- Node9&#45;&gt;Node11 -->
<g id="edge12" class="edge">
<title>Node9&#45;&gt;Node11</title>
<path fill="none" stroke="midnightblue" d="M386.97,-342.5C402.79,-354.35 431.15,-374.89 457,-390 459.71,-391.58 462.57,-393.15 465.46,-394.68"/>
<polygon fill="midnightblue" stroke="midnightblue" points="464.14,-397.93 474.64,-399.32 467.3,-391.68 464.14,-397.93"/>
</g>
<!-- Node9&#45;&gt;Node12 -->
<g id="edge13" class="edge">
<title>Node9&#45;&gt;Node12</title>
<path fill="none" stroke="midnightblue" d="M399.64,-327.23C407.37,-324.37 415.33,-320.16 421,-314 457,-274.92 429.13,-245.24 457,-200 461.92,-192.02 468.88,-184.52 475.56,-178.32"/>
<polygon fill="midnightblue" stroke="midnightblue" points="477.91,-180.91 483.14,-171.7 473.31,-175.64 477.91,-180.91"/>
</g>
<!-- Node13 -->
<g id="node13" class="node">
<title>Node13</title>
<g id="a_node13"><a xlink:href="group__datatypes__list__operate.html#ga1088f9b09ff8ed12e2c844758f39c039" target="_top" xlink:title="Compute the mean/average of a list of numbers.">
<polygon fill="white" stroke="black" points="475,-361.5 475,-380.5 519,-380.5 519,-361.5 475,-361.5"/>
<text text-anchor="middle" x="497" y="-368.5" font-family="Helvetica,sans-Serif" font-size="10.00">mean</text>
</a>
</g>
</g>
<!-- Node9&#45;&gt;Node13 -->
<g id="edge14" class="edge">
<title>Node9&#45;&gt;Node13</title>
<path fill="none" stroke="midnightblue" d="M399.67,-340.87C418.7,-346.82 444.92,-355.02 465.2,-361.37"/>
<polygon fill="midnightblue" stroke="midnightblue" points="464.32,-364.76 474.91,-364.4 466.41,-358.08 464.32,-364.76"/>
</g>
<!-- Node14 -->
<g id="node14" class="node">
<title>Node14</title>
<g id="a_node14"><a xlink:href="group__datatypes__euclidean.html#ga78d67c74076bef2e80a95b1e9b6eb2d7" target="_top" xlink:title="Return 3d point unchanged or add a zeroed third dimension to 2d point.">
<polygon fill="white" stroke="black" points="460,-323.5 460,-342.5 534,-342.5 534,-323.5 460,-323.5"/>
<text text-anchor="middle" x="497" y="-330.5" font-family="Helvetica,sans-Serif" font-size="10.00">point_to_3d</text>
</a>
</g>
</g>
<!-- Node9&#45;&gt;Node14 -->
<g id="edge15" class="edge">
<title>Node9&#45;&gt;Node14</title>
<path fill="none" stroke="midnightblue" d="M399.67,-333C414.07,-333 432.57,-333 449.5,-333"/>
<polygon fill="midnightblue" stroke="midnightblue" points="449.8,-336.5 459.8,-333 449.8,-329.5 449.8,-336.5"/>
</g>
<!-- Node15 -->
<g id="node15" class="node">
<title>Node15</title>
<g id="a_node15"><a xlink:href="group__datatypes__list__operate.html#ga7b8e6f2bbfa72ae61e39377e5ca6b5be" target="_top" xlink:title="Select specified element from list or return a default.">
<polygon fill="white" stroke="black" points="467.5,-285.5 467.5,-304.5 526.5,-304.5 526.5,-285.5 467.5,-285.5"/>
<text text-anchor="middle" x="497" y="-292.5" font-family="Helvetica,sans-Serif" font-size="10.00">select_ci</text>
</a>
</g>
</g>
<!-- Node9&#45;&gt;Node15 -->
<g id="edge16" class="edge">
<title>Node9&#45;&gt;Node15</title>
<path fill="none" stroke="midnightblue" d="M399.67,-325.13C416.48,-319.87 438.91,-312.86 457.89,-306.92"/>
<polygon fill="midnightblue" stroke="midnightblue" points="458.95,-310.25 467.45,-303.93 456.86,-303.57 458.95,-310.25"/>
</g>
<!-- Node16 -->
<g id="node16" class="node">
<title>Node16</title>
<g id="a_node16"><a xlink:href="group__datatypes__euclidean.html#ga6ef2a81f304d31b9ec9753ca4875ad45" target="_top" xlink:title="Convert line to vector by shifting it to the origin.">
<polygon fill="white" stroke="black" points="457,-247.5 457,-266.5 537,-266.5 537,-247.5 457,-247.5"/>
<text text-anchor="middle" x="497" y="-254.5" font-family="Helvetica,sans-Serif" font-size="10.00">vol_to_origin</text>
</a>
</g>
</g>
<!-- Node9&#45;&gt;Node16 -->
<g id="edge17" class="edge">
<title>Node9&#45;&gt;Node16</title>
<path fill="none" stroke="midnightblue" d="M399.63,-324.99C406.85,-322.1 414.52,-318.43 421,-314 440.2,-300.86 438.24,-289.76 457,-276 459.2,-274.39 461.56,-272.85 463.99,-271.4"/>
<polygon fill="midnightblue" stroke="midnightblue" points="465.82,-274.39 472.93,-266.54 462.48,-268.24 465.82,-274.39"/>
</g>
<!-- Node19 -->
<g id="node19" class="node">
<title>Node19</title>
<g id="a_node19"><a xlink:href="group__datatypes__scalar__test.html#ga51d7fdb800c10f4b7479d23b89ab8d22" target="_top" xlink:title="Test if a value is defined.">
<polygon fill="white" stroke="black" points="340.5,-95.5 340.5,-114.5 406.5,-114.5 406.5,-95.5 340.5,-95.5"/>
<text text-anchor="middle" x="373.5" y="-102.5" font-family="Helvetica,sans-Serif" font-size="10.00">is_defined</text>
</a>
</g>
</g>
<!-- Node18&#45;&gt;Node19 -->
<g id="edge21" class="edge">
<title>Node18&#45;&gt;Node19</title>
<path fill="none" stroke="midnightblue" d="M271.6,-105C288.2,-105 310.7,-105 330.23,-105"/>
<polygon fill="midnightblue" stroke="midnightblue" points="330.43,-108.5 340.43,-105 330.43,-101.5 330.43,-108.5"/>
</g>
</g>
</svg>
