<?xml version="1.0" encoding="UTF-8" standalone="no"?>
<!DOCTYPE svg PUBLIC "-//W3C//DTD SVG 1.1//EN"
 "http://www.w3.org/Graphics/SVG/1.1/DTD/svg11.dtd">
<!-- Generated by graphviz version 2.43.0 (0)
 -->
<!-- Title: radial_ball Pages: 1 -->
<svg width="193pt" height="104pt"
 viewBox="0.00 0.00 193.00 104.00" xmlns="http://www.w3.org/2000/svg" xmlns:xlink="http://www.w3.org/1999/xlink">
<g id="graph0" class="graph" transform="scale(1 1) rotate(0) translate(4 100)">
<title>radial_ball</title>
<polygon fill="white" stroke="transparent" points="-4,4 -4,-100 189,-100 189,4 -4,4"/>
<!-- Node1 -->
<g id="node1" class="node">
<title>Node1</title>
<g id="a_node1"><a xlink:title="Radial ball bearing model.">
<polygon fill="#bfbfbf" stroke="black" points="0,-38.5 0,-57.5 68,-57.5 68,-38.5 0,-38.5"/>
<text text-anchor="middle" x="34" y="-45.5" font-family="Helvetica,sans-Serif" font-size="10.00">radial_ball</text>
</a>
</g>
</g>
<!-- Node2 -->
<g id="node2" class="node">
<title>Node2</title>
<g id="a_node2"><a xlink:href="group__datatypes__table.html#ga311692917e3802691fe7a9e1ed8c41f7" target="_top" xlink:title="Test the existence of a table row identifier, table column identifier, or both.">
<polygon fill="white" stroke="black" points="104,-76.5 104,-95.5 185,-95.5 185,-76.5 104,-76.5"/>
<text text-anchor="middle" x="144.5" y="-83.5" font-family="Helvetica,sans-Serif" font-size="10.00">ctable_exists</text>
</a>
</g>
</g>
<!-- Node1&#45;&gt;Node2 -->
<g id="edge1" class="edge">
<title>Node1&#45;&gt;Node2</title>
<path fill="none" stroke="midnightblue" d="M62.38,-57.59C75.74,-62.27 92.02,-67.97 106.47,-73.03"/>
<polygon fill="midnightblue" stroke="midnightblue" points="105.53,-76.41 116.13,-76.41 107.85,-69.81 105.53,-76.41"/>
</g>
<!-- Node3 -->
<g id="node3" class="node">
<title>Node3</title>
<g id="a_node3"><a xlink:href="group__datatypes__table.html#gaee8b64344e9cf098ecb42613f0659d0d" target="_top" xlink:title="Get a row, a column, or a specific cell value from a table.">
<polygon fill="white" stroke="black" points="110.5,-38.5 110.5,-57.5 178.5,-57.5 178.5,-38.5 110.5,-38.5"/>
<text text-anchor="middle" x="144.5" y="-45.5" font-family="Helvetica,sans-Serif" font-size="10.00">ctable_get</text>
</a>
</g>
</g>
<!-- Node1&#45;&gt;Node3 -->
<g id="edge2" class="edge">
<title>Node1&#45;&gt;Node3</title>
<path fill="none" stroke="midnightblue" d="M68.14,-48C78.15,-48 89.28,-48 99.86,-48"/>
<polygon fill="midnightblue" stroke="midnightblue" points="100.19,-51.5 110.19,-48 100.19,-44.5 100.19,-51.5"/>
</g>
<!-- Node4 -->
<g id="node4" class="node">
<title>Node4</title>
<g id="a_node4"><a xlink:href="group__datatypes__list__operate.html#ga7b8e6f2bbfa72ae61e39377e5ca6b5be" target="_top" xlink:title="Select specified element from list or return a default.">
<polygon fill="white" stroke="black" points="115,-0.5 115,-19.5 174,-19.5 174,-0.5 115,-0.5"/>
<text text-anchor="middle" x="144.5" y="-7.5" font-family="Helvetica,sans-Serif" font-size="10.00">select_ci</text>
</a>
</g>
</g>
<!-- Node1&#45;&gt;Node4 -->
<g id="edge3" class="edge">
<title>Node1&#45;&gt;Node4</title>
<path fill="none" stroke="midnightblue" d="M62.38,-38.41C75.74,-33.73 92.02,-28.03 106.47,-22.97"/>
<polygon fill="midnightblue" stroke="midnightblue" points="107.85,-26.19 116.13,-19.59 105.53,-19.59 107.85,-26.19"/>
</g>
</g>
</svg>
