<?xml version="1.0" encoding="UTF-8" standalone="no"?>
<!DOCTYPE svg PUBLIC "-//W3C//DTD SVG 1.1//EN"
 "http://www.w3.org/Graphics/SVG/1.1/DTD/svg11.dtd">
<!-- Generated by graphviz version 2.43.0 (0)
 -->
<!-- Title: draft_make_3d_if_configured Pages: 1 -->
<svg width="566pt" height="332pt"
 viewBox="0.00 0.00 566.00 332.00" xmlns="http://www.w3.org/2000/svg" xmlns:xlink="http://www.w3.org/1999/xlink">
<g id="graph0" class="graph" transform="scale(1 1) rotate(0) translate(4 328)">
<title>draft_make_3d_if_configured</title>
<polygon fill="white" stroke="transparent" points="-4,4 -4,-328 562,-328 562,4 -4,4"/>
<!-- Node1 -->
<g id="node1" class="node">
<title>Node1</title>
<g id="a_node1"><a xlink:title="Extrude 2D drafted constructions to 3D if configured.">
<polygon fill="#bfbfbf" stroke="black" points="401,-152.5 401,-171.5 558,-171.5 558,-152.5 401,-152.5"/>
<text text-anchor="middle" x="479.5" y="-159.5" font-family="Helvetica,sans-Serif" font-size="10.00">draft_make_3d_if_configured</text>
</a>
</g>
</g>
<!-- Node2 -->
<g id="node2" class="node">
<title>Node2</title>
<g id="a_node2"><a xlink:href="group__tools__drafting__operation.html#ga4e20419a6d4623f21c05179fc8b6df95" target="_top" xlink:title="Construct drafting sheet axes.">
<polygon fill="white" stroke="black" points="282,-304.5 282,-323.5 349,-323.5 349,-304.5 282,-304.5"/>
<text text-anchor="middle" x="315.5" y="-311.5" font-family="Helvetica,sans-Serif" font-size="10.00">draft_axes</text>
</a>
</g>
</g>
<!-- Node1&#45;&gt;Node2 -->
<g id="edge1" class="edge">
<title>Node1&#45;&gt;Node2</title>
<path fill="none" stroke="midnightblue" d="M465.88,-180.25C446.64,-207.06 407.64,-257.42 365,-290 357.53,-295.7 348.5,-300.61 340.26,-304.48"/>
<polygon fill="midnightblue" stroke="midnightblue" points="468.93,-182.01 471.84,-171.82 463.21,-177.97 468.93,-182.01"/>
</g>
<!-- Node3 -->
<g id="node3" class="node">
<title>Node3</title>
<g id="a_node3"><a xlink:href="group__tools__drafting__dimension.html#ga6b8e17d22ac4a95d25a90be8a74c0689" target="_top" xlink:title="Construct a angular dimension arc.">
<polygon fill="white" stroke="black" points="2,-261.5 2,-280.5 97,-280.5 97,-261.5 2,-261.5"/>
<text text-anchor="middle" x="49.5" y="-268.5" font-family="Helvetica,sans-Serif" font-size="10.00">draft_dim_angle</text>
</a>
</g>
</g>
<!-- Node1&#45;&gt;Node3 -->
<g id="edge2" class="edge">
<title>Node1&#45;&gt;Node3</title>
<path fill="none" stroke="midnightblue" d="M460.71,-178.28C439.61,-196.53 402.54,-225.35 365,-239 274.35,-271.96 159.94,-274.75 97.12,-273.25"/>
<polygon fill="midnightblue" stroke="midnightblue" points="463.06,-180.88 468.24,-171.63 458.43,-175.63 463.06,-180.88"/>
</g>
<!-- Node4 -->
<g id="node4" class="node">
<title>Node4</title>
<g id="a_node4"><a xlink:href="group__tools__drafting__dimension.html#ga4866c090b81b437e2f1f707d28ad8ec7" target="_top" xlink:title="Construct a center mark dimension cross.">
<polygon fill="white" stroke="black" points="266,-76.5 266,-95.5 365,-95.5 365,-76.5 266,-76.5"/>
<text text-anchor="middle" x="315.5" y="-83.5" font-family="Helvetica,sans-Serif" font-size="10.00">draft_dim_center</text>
</a>
</g>
</g>
<!-- Node1&#45;&gt;Node4 -->
<g id="edge3" class="edge">
<title>Node1&#45;&gt;Node4</title>
<path fill="none" stroke="midnightblue" d="M448.53,-147.94C416.02,-132.69 365,-108.75 336.85,-95.55"/>
<polygon fill="midnightblue" stroke="midnightblue" points="447.44,-151.3 457.98,-152.37 450.42,-144.96 447.44,-151.3"/>
</g>
<!-- Node5 -->
<g id="node5" class="node">
<title>Node5</title>
<g id="a_node5"><a xlink:href="group__tools__drafting__dimension.html#ga5c4915c4c4464c5cdaefd501c2de261d" target="_top" xlink:title="Construct a dimension leader line at a point.">
<polygon fill="white" stroke="black" points="0,-204.5 0,-223.5 99,-223.5 99,-204.5 0,-204.5"/>
<text text-anchor="middle" x="49.5" y="-211.5" font-family="Helvetica,sans-Serif" font-size="10.00">draft_dim_leader</text>
</a>
</g>
</g>
<!-- Node1&#45;&gt;Node5 -->
<g id="edge4" class="edge">
<title>Node1&#45;&gt;Node5</title>
<path fill="none" stroke="midnightblue" d="M456.03,-177.26C433.97,-191.26 398.79,-210.99 365,-219 273.08,-240.79 161.77,-230.84 99.25,-222.11"/>
<polygon fill="midnightblue" stroke="midnightblue" points="458.16,-180.05 464.64,-171.67 454.35,-174.18 458.16,-180.05"/>
</g>
<!-- Node6 -->
<g id="node6" class="node">
<title>Node6</title>
<g id="a_node6"><a xlink:href="group__tools__drafting__dimension.html#ga27a35e94597435a74e22d76789e9be5e" target="_top" xlink:title="Construct a dimension line between two points.">
<polygon fill="white" stroke="black" points="6.5,-157.5 6.5,-176.5 92.5,-176.5 92.5,-157.5 6.5,-157.5"/>
<text text-anchor="middle" x="49.5" y="-164.5" font-family="Helvetica,sans-Serif" font-size="10.00">draft_dim_line</text>
</a>
</g>
</g>
<!-- Node1&#45;&gt;Node6 -->
<g id="edge5" class="edge">
<title>Node1&#45;&gt;Node6</title>
<path fill="none" stroke="midnightblue" d="M390.97,-163.02C300.06,-164.08 161.65,-165.7 92.66,-166.51"/>
<polygon fill="midnightblue" stroke="midnightblue" points="391.03,-166.52 400.99,-162.91 390.95,-159.52 391.03,-166.52"/>
</g>
<!-- Node7 -->
<g id="node7" class="node">
<title>Node7</title>
<g id="a_node7"><a xlink:href="group__tools__drafting__dimension.html#gaef1a8150a8ef7be88e086fb3dbab64a9" target="_top" xlink:title="Construct a radial dimension line.">
<polygon fill="white" stroke="black" points="0.5,-114.5 0.5,-133.5 98.5,-133.5 98.5,-114.5 0.5,-114.5"/>
<text text-anchor="middle" x="49.5" y="-121.5" font-family="Helvetica,sans-Serif" font-size="10.00">draft_dim_radius</text>
</a>
</g>
</g>
<!-- Node1&#45;&gt;Node7 -->
<g id="edge6" class="edge">
<title>Node1&#45;&gt;Node7</title>
<path fill="none" stroke="midnightblue" d="M390.98,-154.23C302.58,-146.38 169.27,-134.54 98.54,-128.27"/>
<polygon fill="midnightblue" stroke="midnightblue" points="390.72,-157.72 400.99,-155.12 391.34,-150.75 390.72,-157.72"/>
</g>
<!-- Node8 -->
<g id="node8" class="node">
<title>Node8</title>
<g id="a_node8"><a xlink:href="group__tools__drafting__operation.html#ga49aac81a903cd453ea9cadc85e84e414" target="_top" xlink:title="Construct a drafting sheet ruler.">
<polygon fill="white" stroke="black" points="282,-38.5 282,-57.5 349,-57.5 349,-38.5 282,-38.5"/>
<text text-anchor="middle" x="315.5" y="-45.5" font-family="Helvetica,sans-Serif" font-size="10.00">draft_ruler</text>
</a>
</g>
</g>
<!-- Node1&#45;&gt;Node8 -->
<g id="edge7" class="edge">
<title>Node1&#45;&gt;Node8</title>
<path fill="none" stroke="midnightblue" d="M462.15,-145.32C441.2,-124.69 403.02,-89.54 365,-67 358.93,-63.4 352.06,-60.23 345.44,-57.57"/>
<polygon fill="midnightblue" stroke="midnightblue" points="459.75,-147.87 469.3,-152.46 464.69,-142.91 459.75,-147.87"/>
</g>
<!-- Node9 -->
<g id="node9" class="node">
<title>Node9</title>
<g id="a_node9"><a xlink:href="group__tools__drafting__operation.html#gaae4b7ed59444eb6f6c0ae47bd36e1e9b" target="_top" xlink:title="Construct a text table that is populated by rows and columns.">
<polygon fill="white" stroke="black" points="281,-190.5 281,-209.5 350,-209.5 350,-190.5 281,-190.5"/>
<text text-anchor="middle" x="315.5" y="-197.5" font-family="Helvetica,sans-Serif" font-size="10.00">draft_table</text>
</a>
</g>
</g>
<!-- Node1&#45;&gt;Node9 -->
<g id="edge8" class="edge">
<title>Node1&#45;&gt;Node9</title>
<path fill="none" stroke="midnightblue" d="M427.83,-173.89C402.57,-179.81 372.7,-186.82 350.26,-192.08"/>
<polygon fill="midnightblue" stroke="midnightblue" points="428.68,-177.28 437.62,-171.59 427.09,-170.47 428.68,-177.28"/>
</g>
<!-- Node11 -->
<g id="node11" class="node">
<title>Node11</title>
<g id="a_node11"><a xlink:href="group__tools__drafting__operation.html#gabd9d0d4e3819d3bdec5e3649c8ad2c79" target="_top" xlink:title="Construct a text table that is populated by predefined zones.">
<polygon fill="white" stroke="black" points="278.5,-0.5 278.5,-19.5 352.5,-19.5 352.5,-0.5 278.5,-0.5"/>
<text text-anchor="middle" x="315.5" y="-7.5" font-family="Helvetica,sans-Serif" font-size="10.00">draft_ztable</text>
</a>
</g>
</g>
<!-- Node1&#45;&gt;Node11 -->
<g id="edge14" class="edge">
<title>Node1&#45;&gt;Node11</title>
<path fill="none" stroke="midnightblue" d="M467.2,-143.71C448.92,-115.51 410.32,-61.27 365,-29 359.77,-25.28 353.71,-22.16 347.68,-19.59"/>
<polygon fill="midnightblue" stroke="midnightblue" points="464.28,-145.65 472.6,-152.21 470.19,-141.9 464.28,-145.65"/>
</g>
<!-- Node10 -->
<g id="node10" class="node">
<title>Node10</title>
<g id="a_node10"><a xlink:href="group__tools__drafting__operation.html#gac1b780633ac5e2874a8a00177d98b305" target="_top" xlink:title="Construct a text note with optional heading and boarder.">
<polygon fill="white" stroke="black" points="149.5,-190.5 149.5,-209.5 215.5,-209.5 215.5,-190.5 149.5,-190.5"/>
<text text-anchor="middle" x="182.5" y="-197.5" font-family="Helvetica,sans-Serif" font-size="10.00">draft_note</text>
</a>
</g>
</g>
<!-- Node9&#45;&gt;Node10 -->
<g id="edge9" class="edge">
<title>Node9&#45;&gt;Node10</title>
<path fill="none" stroke="midnightblue" d="M270.54,-200C252.62,-200 232.28,-200 215.77,-200"/>
<polygon fill="midnightblue" stroke="midnightblue" points="270.76,-203.5 280.76,-200 270.76,-196.5 270.76,-203.5"/>
</g>
<!-- Node10&#45;&gt;Node3 -->
<g id="edge10" class="edge">
<title>Node10&#45;&gt;Node3</title>
<path fill="none" stroke="midnightblue" d="M154.95,-214.39C129.13,-228.38 90.64,-249.24 68.31,-261.35"/>
<polygon fill="midnightblue" stroke="midnightblue" points="156.71,-217.42 163.83,-209.58 153.37,-211.26 156.71,-217.42"/>
</g>
<!-- Node10&#45;&gt;Node5 -->
<g id="edge11" class="edge">
<title>Node10&#45;&gt;Node5</title>
<path fill="none" stroke="midnightblue" d="M139.48,-204.49C126.61,-205.87 112.34,-207.39 99.08,-208.81"/>
<polygon fill="midnightblue" stroke="midnightblue" points="139.88,-207.97 149.45,-203.42 139.14,-201.01 139.88,-207.97"/>
</g>
<!-- Node10&#45;&gt;Node6 -->
<g id="edge12" class="edge">
<title>Node10&#45;&gt;Node6</title>
<path fill="none" stroke="midnightblue" d="M139.54,-189.43C123.07,-185.28 104.3,-180.55 88.26,-176.51"/>
<polygon fill="midnightblue" stroke="midnightblue" points="138.9,-192.88 149.45,-191.93 140.61,-186.09 138.9,-192.88"/>
</g>
<!-- Node10&#45;&gt;Node7 -->
<g id="edge13" class="edge">
<title>Node10&#45;&gt;Node7</title>
<path fill="none" stroke="midnightblue" d="M158.79,-184.8C142.43,-174.07 119.68,-159.6 99,-148 89.99,-142.95 79.76,-137.8 71.04,-133.58"/>
<polygon fill="midnightblue" stroke="midnightblue" points="156.9,-187.74 167.17,-190.33 160.75,-181.9 156.9,-187.74"/>
</g>
<!-- Node12 -->
<g id="node12" class="node">
<title>Node12</title>
<g id="a_node12"><a xlink:href="group__tools__drafting__operation.html#ga172b76b2027c863e672bc7a84dabea5e" target="_top" xlink:title="Construct a sheet title block.">
<polygon fill="white" stroke="black" points="135,-0.5 135,-19.5 230,-19.5 230,-0.5 135,-0.5"/>
<text text-anchor="middle" x="182.5" y="-7.5" font-family="Helvetica,sans-Serif" font-size="10.00">draft_title_block</text>
</a>
</g>
</g>
<!-- Node11&#45;&gt;Node12 -->
<g id="edge15" class="edge">
<title>Node11&#45;&gt;Node12</title>
<path fill="none" stroke="midnightblue" d="M268.29,-10C255.99,-10 242.68,-10 230.33,-10"/>
<polygon fill="midnightblue" stroke="midnightblue" points="268.36,-13.5 278.36,-10 268.36,-6.5 268.36,-13.5"/>
</g>
</g>
</svg>
