<?xml version="1.0" encoding="UTF-8" standalone="no"?>
<!DOCTYPE svg PUBLIC "-//W3C//DTD SVG 1.1//EN"
 "http://www.w3.org/Graphics/SVG/1.1/DTD/svg11.dtd">
<!-- Generated by graphviz version 2.43.0 (0)
 -->
<!-- Title: draft_rectangle Pages: 1 -->
<svg width="709pt" height="601pt"
 viewBox="0.00 0.00 709.00 600.93" xmlns="http://www.w3.org/2000/svg" xmlns:xlink="http://www.w3.org/1999/xlink">
<g id="graph0" class="graph" transform="scale(1 1) rotate(0) translate(4 596.93)">
<title>draft_rectangle</title>
<polygon fill="white" stroke="transparent" points="-4,4 -4,-596.93 705,-596.93 705,4 -4,4"/>
<!-- Node1 -->
<g id="node1" class="node">
<title>Node1</title>
<g id="a_node1"><a xlink:title="Draft a rectangle with configurable style.">
<polygon fill="#bfbfbf" stroke="black" points="0,-331.78 0,-350.78 90,-350.78 90,-331.78 0,-331.78"/>
<text text-anchor="middle" x="45" y="-338.78" font-family="Helvetica,sans-Serif" font-size="10.00">draft_rectangle</text>
</a>
</g>
</g>
<!-- Node2 -->
<g id="node2" class="node">
<title>Node2</title>
<g id="a_node2"><a xlink:href="group__datatypes__iterable__operate.html#ga3d37c2b0067d1661724bd89955c8f6ce" target="_top" xlink:title="Return an element of an iterable when it exists or a default value otherwise.">
<polygon fill="white" stroke="black" points="371,-559.78 371,-578.78 450,-578.78 450,-559.78 371,-559.78"/>
<text text-anchor="middle" x="410.5" y="-566.78" font-family="Helvetica,sans-Serif" font-size="10.00">defined_e_or</text>
</a>
</g>
</g>
<!-- Node1&#45;&gt;Node2 -->
<g id="edge1" class="edge">
<title>Node1&#45;&gt;Node2</title>
<path fill="none" stroke="midnightblue" d="M49.56,-351.02C64.06,-389.02 122.73,-527.69 224,-578.28 270.7,-601.61 332.53,-591.83 371.67,-581.49"/>
<polygon fill="midnightblue" stroke="midnightblue" points="372.65,-584.85 381.35,-578.8 370.78,-578.11 372.65,-584.85"/>
</g>
<!-- Node3 -->
<g id="node3" class="node">
<title>Node3</title>
<g id="a_node3"><a xlink:href="group__tools__drafting__primitive.html#ga060910368142d6371cf4f3f30be7561e" target="_top" xlink:title="Draft a line with configurable style and optional arrowheads.">
<polygon fill="white" stroke="black" points="126,-331.78 126,-350.78 188,-350.78 188,-331.78 126,-331.78"/>
<text text-anchor="middle" x="157" y="-338.78" font-family="Helvetica,sans-Serif" font-size="10.00">draft_line</text>
</a>
</g>
</g>
<!-- Node1&#45;&gt;Node3 -->
<g id="edge2" class="edge">
<title>Node1&#45;&gt;Node3</title>
<path fill="none" stroke="midnightblue" d="M90.11,-341.28C98.51,-341.28 107.27,-341.28 115.56,-341.28"/>
<polygon fill="midnightblue" stroke="midnightblue" points="115.73,-344.78 125.73,-341.28 115.73,-337.78 115.73,-344.78"/>
</g>
<!-- Node23 -->
<g id="node23" class="node">
<title>Node23</title>
<g id="a_node23"><a xlink:href="group__datatypes__iterable__operate.html#gadb933df06b10d64dda8823069bdc84b7" target="_top" xlink:title="Return a list of all n&#45;element sequential&#45;subsets of an iterable value.">
<polygon fill="white" stroke="black" points="370.5,-65.78 370.5,-84.78 450.5,-84.78 450.5,-65.78 370.5,-65.78"/>
<text text-anchor="middle" x="410.5" y="-72.78" font-family="Helvetica,sans-Serif" font-size="10.00">sequence_ns</text>
</a>
</g>
</g>
<!-- Node1&#45;&gt;Node23 -->
<g id="edge38" class="edge">
<title>Node1&#45;&gt;Node23</title>
<path fill="none" stroke="midnightblue" d="M48.52,-331.67C60.03,-290.05 111.88,-124.63 224,-63.28 271.27,-37.42 335.79,-50.4 374.95,-62.55"/>
<polygon fill="midnightblue" stroke="midnightblue" points="373.98,-65.92 384.57,-65.68 376.14,-59.26 373.98,-65.92"/>
</g>
<!-- Node3&#45;&gt;Node2 -->
<g id="edge5" class="edge">
<title>Node3&#45;&gt;Node2</title>
<path fill="none" stroke="midnightblue" d="M157.66,-351.2C157.1,-385.27 160.27,-498.38 224,-550.28 261.95,-581.19 319.77,-582.22 360.76,-577.88"/>
<polygon fill="midnightblue" stroke="midnightblue" points="361.29,-581.34 370.8,-576.68 360.45,-574.39 361.29,-581.34"/>
</g>
<!-- Node4 -->
<g id="node4" class="node">
<title>Node4</title>
<g id="a_node4"><a xlink:href="group__datatypes__iterable__test.html#ga4dfc58aa5f208e103e622684db817ce6" target="_top" xlink:title="Test if all elements of an iterable value equal a comparison value.">
<polygon fill="white" stroke="black" points="247,-331.78 247,-350.78 308,-350.78 308,-331.78 247,-331.78"/>
<text text-anchor="middle" x="277.5" y="-338.78" font-family="Helvetica,sans-Serif" font-size="10.00">all_equal</text>
</a>
</g>
</g>
<!-- Node3&#45;&gt;Node4 -->
<g id="edge3" class="edge">
<title>Node3&#45;&gt;Node4</title>
<path fill="none" stroke="midnightblue" d="M188.21,-341.28C202.95,-341.28 220.87,-341.28 236.71,-341.28"/>
<polygon fill="midnightblue" stroke="midnightblue" points="236.76,-344.78 246.76,-341.28 236.76,-337.78 236.76,-344.78"/>
</g>
<!-- Node5 -->
<g id="node5" class="node">
<title>Node5</title>
<g id="a_node5"><a xlink:href="group__datatypes__euclidean.html#ga3d5c07c70f271bcf9144f50ce8620a89" target="_top" xlink:title="Compute the angle between two lines or vectors in a 3d or 2d&#45;space.">
<polygon fill="white" stroke="black" points="633.5,-407.78 633.5,-426.78 688.5,-426.78 688.5,-407.78 633.5,-407.78"/>
<text text-anchor="middle" x="661" y="-414.78" font-family="Helvetica,sans-Serif" font-size="10.00">angle_ll</text>
</a>
</g>
</g>
<!-- Node3&#45;&gt;Node5 -->
<g id="edge4" class="edge">
<title>Node3&#45;&gt;Node5</title>
<path fill="none" stroke="midnightblue" d="M159.34,-350.95C163.49,-376.56 178.65,-446.16 224,-474.28 259.25,-496.14 448.1,-513.58 585,-469.28 607.18,-462.11 628.64,-446 642.88,-433.61"/>
<polygon fill="midnightblue" stroke="midnightblue" points="645.3,-436.13 650.38,-426.83 640.61,-430.94 645.3,-436.13"/>
</g>
<!-- Node6 -->
<g id="node6" class="node">
<title>Node6</title>
<g id="a_node6"><a xlink:href="group__tools__drafting__primitive.html#ga6f12ccd4c9de0a8ab887184911f39c8f" target="_top" xlink:title="Draft an arrowhead at the terminal point of a line.">
<polygon fill="white" stroke="black" points="241.5,-293.78 241.5,-312.78 313.5,-312.78 313.5,-293.78 241.5,-293.78"/>
<text text-anchor="middle" x="277.5" y="-300.78" font-family="Helvetica,sans-Serif" font-size="10.00">draft_arrow</text>
</a>
</g>
</g>
<!-- Node3&#45;&gt;Node6 -->
<g id="edge6" class="edge">
<title>Node3&#45;&gt;Node6</title>
<path fill="none" stroke="midnightblue" d="M187.9,-331.69C202.78,-326.92 220.96,-321.09 236.97,-315.96"/>
<polygon fill="midnightblue" stroke="midnightblue" points="238.15,-319.26 246.61,-312.87 236.02,-312.59 238.15,-319.26"/>
</g>
<!-- Node8 -->
<g id="node8" class="node">
<title>Node8</title>
<g id="a_node8"><a xlink:href="group__tools__drafting__config.html#gabb4fa7092928ba8803b550ac6d733f64" target="_top" xlink:title="Get drafting configuration default helper function.">
<polygon fill="white" stroke="black" points="490,-179.78 490,-198.78 585,-198.78 585,-179.78 490,-179.78"/>
<text text-anchor="middle" x="537.5" y="-186.78" font-family="Helvetica,sans-Serif" font-size="10.00">draft_get_config</text>
</a>
</g>
</g>
<!-- Node3&#45;&gt;Node8 -->
<g id="edge29" class="edge">
<title>Node3&#45;&gt;Node8</title>
<path fill="none" stroke="midnightblue" d="M160.69,-331.67C167.48,-309.13 187.43,-252.42 224,-221.28 303.73,-153.41 349.96,-158.46 454,-170.28 466.91,-171.75 480.73,-174.47 493.31,-177.4"/>
<polygon fill="midnightblue" stroke="midnightblue" points="492.54,-180.81 503.08,-179.78 494.19,-174.01 492.54,-180.81"/>
</g>
<!-- Node9 -->
<g id="node9" class="node">
<title>Node9</title>
<g id="a_node9"><a xlink:href="group__tools__drafting__primitive.html#ga4e7c5fa02dbc244702042067553a9225" target="_top" xlink:title="Draft a simple line from an initial to a terminal point.">
<polygon fill="white" stroke="black" points="370.5,-103.78 370.5,-122.78 450.5,-122.78 450.5,-103.78 370.5,-103.78"/>
<text text-anchor="middle" x="410.5" y="-110.78" font-family="Helvetica,sans-Serif" font-size="10.00">draft_line_pp</text>
</a>
</g>
</g>
<!-- Node3&#45;&gt;Node9 -->
<g id="edge30" class="edge">
<title>Node3&#45;&gt;Node9</title>
<path fill="none" stroke="midnightblue" d="M157.8,-331.66C157.69,-298.57 162.16,-188.67 224,-137.28 261.65,-106 319.27,-103.24 360.29,-106.25"/>
<polygon fill="midnightblue" stroke="midnightblue" points="360.07,-109.75 370.34,-107.13 360.68,-102.77 360.07,-109.75"/>
</g>
<!-- Node12 -->
<g id="node12" class="node">
<title>Node12</title>
<g id="a_node12"><a xlink:href="group__datatypes__euclidean.html#ga8115b05f16bcc197e3e339a65f4d3e49" target="_top" xlink:title="Return the initial point of a line or vector.">
<polygon fill="white" stroke="black" points="636.5,-27.78 636.5,-46.78 685.5,-46.78 685.5,-27.78 636.5,-27.78"/>
<text text-anchor="middle" x="661" y="-34.78" font-family="Helvetica,sans-Serif" font-size="10.00">line_ip</text>
</a>
</g>
</g>
<!-- Node3&#45;&gt;Node12 -->
<g id="edge32" class="edge">
<title>Node3&#45;&gt;Node12</title>
<path fill="none" stroke="midnightblue" d="M158.79,-331.62C162.67,-286.72 181.27,-99.18 224,-63.28 341.67,35.55 546.26,-5.8 626.42,-27.32"/>
<polygon fill="midnightblue" stroke="midnightblue" points="625.87,-30.8 636.44,-30.09 627.73,-24.06 625.87,-30.8"/>
</g>
<!-- Node13 -->
<g id="node13" class="node">
<title>Node13</title>
<g id="a_node13"><a xlink:href="group__datatypes__euclidean.html#ga299bce4158dc8d0a7a8e7d9967b8ea4e" target="_top" xlink:title="Return the terminal point of a line or vector.">
<polygon fill="white" stroke="black" points="636,-255.78 636,-274.78 686,-274.78 686,-255.78 636,-255.78"/>
<text text-anchor="middle" x="661" y="-262.78" font-family="Helvetica,sans-Serif" font-size="10.00">line_tp</text>
</a>
</g>
</g>
<!-- Node3&#45;&gt;Node13 -->
<g id="edge33" class="edge">
<title>Node3&#45;&gt;Node13</title>
<path fill="none" stroke="midnightblue" d="M188.19,-350.12C199.42,-353.36 212.28,-357.04 224,-360.28 379.49,-403.32 445.69,-479.66 585,-398.28 627.2,-373.63 647.52,-315.51 655.58,-284.91"/>
<polygon fill="midnightblue" stroke="midnightblue" points="659.03,-285.54 658.02,-274.99 652.23,-283.87 659.03,-285.54"/>
</g>
<!-- Node21 -->
<g id="node21" class="node">
<title>Node21</title>
<g id="a_node21"><a xlink:href="group__datatypes__euclidean.html#gaa686049dfa9296b441a12e225aa1537d" target="_top" xlink:title="Construct a 2 dimensional directed line.">
<polygon fill="white" stroke="black" points="374.5,-179.78 374.5,-198.78 446.5,-198.78 446.5,-179.78 374.5,-179.78"/>
<text text-anchor="middle" x="410.5" y="-186.78" font-family="Helvetica,sans-Serif" font-size="10.00">line2d_new</text>
</a>
</g>
</g>
<!-- Node3&#45;&gt;Node21 -->
<g id="edge31" class="edge">
<title>Node3&#45;&gt;Node21</title>
<path fill="none" stroke="midnightblue" d="M167.68,-331.6C180.03,-319.56 202.4,-298.83 224,-284.28 274.55,-250.23 338.89,-219.86 376.99,-203.07"/>
<polygon fill="midnightblue" stroke="midnightblue" points="378.78,-206.11 386.54,-198.9 375.98,-199.69 378.78,-206.11"/>
</g>
<!-- Node3&#45;&gt;Node23 -->
<g id="edge37" class="edge">
<title>Node3&#45;&gt;Node23</title>
<path fill="none" stroke="midnightblue" d="M159.24,-331.66C164.69,-290.89 187.88,-133.01 224,-101.28 260.94,-68.83 318.94,-65.64 360.25,-68.47"/>
<polygon fill="midnightblue" stroke="midnightblue" points="360.12,-71.97 370.37,-69.31 360.69,-65 360.12,-71.97"/>
</g>
<!-- Node24 -->
<g id="node24" class="node">
<title>Node24</title>
<g id="a_node24"><a xlink:href="group__datatypes__list__operate.html#gac9437fd7e3cb8797fa5e901b2ab6e58a" target="_top" xlink:title="Serially merge the elements of a list.">
<polygon fill="white" stroke="black" points="248,-521.78 248,-540.78 307,-540.78 307,-521.78 248,-521.78"/>
<text text-anchor="middle" x="277.5" y="-528.78" font-family="Helvetica,sans-Serif" font-size="10.00">merge_s</text>
</a>
</g>
</g>
<!-- Node3&#45;&gt;Node24 -->
<g id="edge34" class="edge">
<title>Node3&#45;&gt;Node24</title>
<path fill="none" stroke="midnightblue" d="M159.28,-350.87C163.46,-378.62 179.12,-460.09 224,-507.28 228.16,-511.66 233.27,-515.3 238.65,-518.32"/>
<polygon fill="midnightblue" stroke="midnightblue" points="237.32,-521.56 247.84,-522.82 240.39,-515.28 237.32,-521.56"/>
</g>
<!-- Node25 -->
<g id="node25" class="node">
<title>Node25</title>
<g id="a_node25"><a xlink:href="group__math__polygon.html#gad35e17240bf9f3e0de4481ec467d599f" target="_top" xlink:title="Compute coordinates along a line in 2D.">
<polygon fill="white" stroke="black" points="232.5,-445.78 232.5,-464.78 322.5,-464.78 322.5,-445.78 232.5,-445.78"/>
<text text-anchor="middle" x="277.5" y="-452.78" font-family="Helvetica,sans-Serif" font-size="10.00">polygon_line_p</text>
</a>
</g>
</g>
<!-- Node3&#45;&gt;Node25 -->
<g id="edge35" class="edge">
<title>Node3&#45;&gt;Node25</title>
<path fill="none" stroke="midnightblue" d="M162.17,-350.83C170.91,-369.79 192.95,-412.42 224,-436.28 226.42,-438.14 229.04,-439.83 231.77,-441.37"/>
<polygon fill="midnightblue" stroke="midnightblue" points="230.25,-444.52 240.78,-445.75 233.32,-438.23 230.25,-444.52"/>
</g>
<!-- Node26 -->
<g id="node26" class="node">
<title>Node26</title>
<g id="a_node26"><a xlink:href="group__math__polygon.html#ga6aea22d31f8f086c44c7241eee3ab4c2" target="_top" xlink:title="Compute coordinates for an n&#45;sided regular polygon in 2D.">
<polygon fill="white" stroke="black" points="224,-407.78 224,-426.78 331,-426.78 331,-407.78 224,-407.78"/>
<text text-anchor="middle" x="277.5" y="-414.78" font-family="Helvetica,sans-Serif" font-size="10.00">polygon_regular_p</text>
</a>
</g>
</g>
<!-- Node3&#45;&gt;Node26 -->
<g id="edge36" class="edge">
<title>Node3&#45;&gt;Node26</title>
<path fill="none" stroke="midnightblue" d="M168.62,-350.97C181.2,-362.11 203.08,-380.52 224,-393.28 229.98,-396.93 236.6,-400.38 243.08,-403.46"/>
<polygon fill="midnightblue" stroke="midnightblue" points="241.81,-406.73 252.36,-407.69 244.72,-400.36 241.81,-406.73"/>
</g>
<!-- Node6&#45;&gt;Node2 -->
<g id="edge9" class="edge">
<title>Node6&#45;&gt;Node2</title>
<path fill="none" stroke="midnightblue" d="M313.65,-310.94C320.07,-313.65 326.23,-317.32 331,-322.28 335.12,-326.57 385.95,-492.17 403.55,-549.78"/>
<polygon fill="midnightblue" stroke="midnightblue" points="400.25,-550.95 406.52,-559.5 406.95,-548.91 400.25,-550.95"/>
</g>
<!-- Node6&#45;&gt;Node5 -->
<g id="edge7" class="edge">
<title>Node6&#45;&gt;Node5</title>
<path fill="none" stroke="midnightblue" d="M313.69,-311.68C319.96,-314.33 326.05,-317.78 331,-322.28 358.66,-347.43 336.08,-377.29 367,-398.28 445.17,-451.37 563.76,-437.54 623.25,-425.87"/>
<polygon fill="midnightblue" stroke="midnightblue" points="624.21,-429.24 633.3,-423.8 622.8,-422.38 624.21,-429.24"/>
</g>
<!-- Node7 -->
<g id="node7" class="node">
<title>Node7</title>
<g id="a_node7"><a xlink:href="group__datatypes__binary.html#ga7ce4ed94d9b389ff817ea219918b8732" target="_top" xlink:title="Test if a binary bit position of an integer value equals a test bit.">
<polygon fill="white" stroke="black" points="371,-293.78 371,-312.78 450,-312.78 450,-293.78 371,-293.78"/>
<text text-anchor="middle" x="410.5" y="-300.78" font-family="Helvetica,sans-Serif" font-size="10.00">binary_bit_is</text>
</a>
</g>
</g>
<!-- Node6&#45;&gt;Node7 -->
<g id="edge8" class="edge">
<title>Node6&#45;&gt;Node7</title>
<path fill="none" stroke="midnightblue" d="M313.61,-303.28C328.03,-303.28 344.98,-303.28 360.58,-303.28"/>
<polygon fill="midnightblue" stroke="midnightblue" points="360.61,-306.78 370.61,-303.28 360.61,-299.78 360.61,-306.78"/>
</g>
<!-- Node6&#45;&gt;Node8 -->
<g id="edge10" class="edge">
<title>Node6&#45;&gt;Node8</title>
<path fill="none" stroke="midnightblue" d="M293.09,-293.6C310.27,-282.46 339.93,-264.06 367,-251.28 409.55,-231.2 460.51,-213.34 495.37,-202.01"/>
<polygon fill="midnightblue" stroke="midnightblue" points="496.75,-205.25 505.2,-198.85 494.61,-198.58 496.75,-205.25"/>
</g>
<!-- Node6&#45;&gt;Node9 -->
<g id="edge11" class="edge">
<title>Node6&#45;&gt;Node9</title>
<path fill="none" stroke="midnightblue" d="M284.76,-293.48C299,-271.3 335.05,-215.62 367,-170.28 376.43,-156.91 387.49,-142.1 395.96,-130.93"/>
<polygon fill="midnightblue" stroke="midnightblue" points="398.84,-132.92 402.12,-122.85 393.28,-128.68 398.84,-132.92"/>
</g>
<!-- Node6&#45;&gt;Node13 -->
<g id="edge26" class="edge">
<title>Node6&#45;&gt;Node13</title>
<path fill="none" stroke="midnightblue" d="M313.6,-294.51C329.77,-290.79 349.26,-286.75 367,-284.28 460.01,-271.35 570.88,-267.19 625.75,-265.88"/>
<polygon fill="midnightblue" stroke="midnightblue" points="626.03,-269.37 635.95,-265.65 625.88,-262.37 626.03,-269.37"/>
</g>
<!-- Node19 -->
<g id="node19" class="node">
<title>Node19</title>
<g id="a_node19"><a xlink:href="group__tools__operation__cs.html#gafa05aca176d441020de53da835e3dd60" target="_top" xlink:title="Conditionally apply the convex hull transformation.">
<polygon fill="white" stroke="black" points="385.5,-369.78 385.5,-388.78 435.5,-388.78 435.5,-369.78 385.5,-369.78"/>
<text text-anchor="middle" x="410.5" y="-376.78" font-family="Helvetica,sans-Serif" font-size="10.00">hull_cs</text>
</a>
</g>
</g>
<!-- Node6&#45;&gt;Node19 -->
<g id="edge23" class="edge">
<title>Node6&#45;&gt;Node19</title>
<path fill="none" stroke="midnightblue" d="M312.11,-312.8C318.64,-315.37 325.24,-318.51 331,-322.28 350.46,-335.03 348.02,-346.83 367,-360.28 369.86,-362.31 372.96,-364.19 376.15,-365.92"/>
<polygon fill="midnightblue" stroke="midnightblue" points="374.71,-369.11 385.23,-370.39 377.8,-362.83 374.71,-369.11"/>
</g>
<!-- Node6&#45;&gt;Node21 -->
<g id="edge25" class="edge">
<title>Node6&#45;&gt;Node21</title>
<path fill="none" stroke="midnightblue" d="M286.29,-293.75C300.87,-276.31 333.78,-238.74 367,-213.28 371.26,-210.02 376.02,-206.9 380.76,-204.05"/>
<polygon fill="midnightblue" stroke="midnightblue" points="382.78,-206.93 389.74,-198.95 379.32,-200.85 382.78,-206.93"/>
</g>
<!-- Node22 -->
<g id="node22" class="node">
<title>Node22</title>
<g id="a_node22"><a xlink:href="group__math__polygon.html#ga0e085cf8ec515dccdeff907f84fdae55" target="_top" xlink:title="Compute coordinates of an arc with constant radius between two vectors in 2D.">
<polygon fill="white" stroke="black" points="367,-331.78 367,-350.78 454,-350.78 454,-331.78 367,-331.78"/>
<text text-anchor="middle" x="410.5" y="-338.78" font-family="Helvetica,sans-Serif" font-size="10.00">polygon_arc_p</text>
</a>
</g>
</g>
<!-- Node6&#45;&gt;Node22 -->
<g id="edge27" class="edge">
<title>Node6&#45;&gt;Node22</title>
<path fill="none" stroke="midnightblue" d="M311.56,-312.87C328.31,-317.73 348.86,-323.69 366.8,-328.9"/>
<polygon fill="midnightblue" stroke="midnightblue" points="365.87,-332.27 376.45,-331.7 367.82,-325.55 365.87,-332.27"/>
</g>
<!-- Node6&#45;&gt;Node23 -->
<g id="edge28" class="edge">
<title>Node6&#45;&gt;Node23</title>
<path fill="none" stroke="midnightblue" d="M280.02,-293.57C285.58,-261.08 307.69,-154.78 367,-94.28 368.4,-92.86 369.93,-91.53 371.54,-90.29"/>
<polygon fill="midnightblue" stroke="midnightblue" points="373.59,-93.14 380.19,-84.85 369.86,-87.21 373.59,-93.14"/>
</g>
<!-- Node9&#45;&gt;Node8 -->
<g id="edge22" class="edge">
<title>Node9&#45;&gt;Node8</title>
<path fill="none" stroke="midnightblue" d="M430.69,-122.91C438.2,-126.98 446.73,-132.01 454,-137.28 471.56,-150.04 471.67,-158.66 490,-170.28 492.96,-172.16 496.14,-173.92 499.4,-175.55"/>
<polygon fill="midnightblue" stroke="midnightblue" points="498.1,-178.8 508.65,-179.78 501.02,-172.44 498.1,-178.8"/>
</g>
<!-- Node10 -->
<g id="node10" class="node">
<title>Node10</title>
<g id="a_node10"><a xlink:href="group__tools__align.html#ga7a21147611850c6cae7e95d23417099b" target="_top" xlink:title="Align a line or vector to a reference line or vector.">
<polygon fill="white" stroke="black" points="511.5,-103.78 511.5,-122.78 563.5,-122.78 563.5,-103.78 511.5,-103.78"/>
<text text-anchor="middle" x="537.5" y="-110.78" font-family="Helvetica,sans-Serif" font-size="10.00">align_ll</text>
</a>
</g>
</g>
<!-- Node9&#45;&gt;Node10 -->
<g id="edge12" class="edge">
<title>Node9&#45;&gt;Node10</title>
<path fill="none" stroke="midnightblue" d="M450.71,-113.28C466.76,-113.28 485.21,-113.28 500.88,-113.28"/>
<polygon fill="midnightblue" stroke="midnightblue" points="501.22,-116.78 511.22,-113.28 501.22,-109.78 501.22,-116.78"/>
</g>
<!-- Node18 -->
<g id="node18" class="node">
<title>Node18</title>
<g id="a_node18"><a xlink:href="group__datatypes__euclidean.html#gaef5b930729755b4420098776467ac210" target="_top" xlink:title="Compute the distance between two points.">
<polygon fill="white" stroke="black" points="500,-141.78 500,-160.78 575,-160.78 575,-141.78 500,-141.78"/>
<text text-anchor="middle" x="537.5" y="-148.78" font-family="Helvetica,sans-Serif" font-size="10.00">distance_pp</text>
</a>
</g>
</g>
<!-- Node9&#45;&gt;Node18 -->
<g id="edge21" class="edge">
<title>Node9&#45;&gt;Node18</title>
<path fill="none" stroke="midnightblue" d="M443.04,-122.87C458.88,-127.69 478.27,-133.58 495.28,-138.75"/>
<polygon fill="midnightblue" stroke="midnightblue" points="494.38,-142.14 504.97,-141.7 496.42,-135.44 494.38,-142.14"/>
</g>
<!-- Node10&#45;&gt;Node5 -->
<g id="edge13" class="edge">
<title>Node10&#45;&gt;Node5</title>
<path fill="none" stroke="midnightblue" d="M563.91,-118.82C571.66,-121.66 579.56,-125.92 585,-132.28 630.13,-185.04 603.23,-217.17 621,-284.28 631.78,-324.99 646.05,-372.19 654,-397.99"/>
<polygon fill="midnightblue" stroke="midnightblue" points="650.69,-399.14 656.99,-407.65 657.37,-397.07 650.69,-399.14"/>
</g>
<!-- Node11 -->
<g id="node11" class="node">
<title>Node11</title>
<g id="a_node11"><a xlink:href="group__datatypes__euclidean.html#ga882329ee346d5a7f9d0877afd115c3de" target="_top" xlink:title="Compute the cross product of two lines or vectors in a 3d or 2d&#45;space.">
<polygon fill="white" stroke="black" points="634.5,-141.78 634.5,-160.78 687.5,-160.78 687.5,-141.78 634.5,-141.78"/>
<text text-anchor="middle" x="661" y="-148.78" font-family="Helvetica,sans-Serif" font-size="10.00">cross_ll</text>
</a>
</g>
</g>
<!-- Node10&#45;&gt;Node11 -->
<g id="edge14" class="edge">
<title>Node10&#45;&gt;Node11</title>
<path fill="none" stroke="midnightblue" d="M563.67,-121.16C581.31,-126.67 605.13,-134.12 624.67,-140.23"/>
<polygon fill="midnightblue" stroke="midnightblue" points="623.85,-143.64 634.44,-143.29 625.94,-136.96 623.85,-143.64"/>
</g>
<!-- Node10&#45;&gt;Node12 -->
<g id="edge15" class="edge">
<title>Node10&#45;&gt;Node12</title>
<path fill="none" stroke="midnightblue" d="M550.97,-103.78C566.79,-91.93 595.15,-71.39 621,-56.28 623.71,-54.7 626.57,-53.13 629.46,-51.61"/>
<polygon fill="midnightblue" stroke="midnightblue" points="631.3,-54.6 638.64,-46.97 628.14,-48.35 631.3,-54.6"/>
</g>
<!-- Node10&#45;&gt;Node13 -->
<g id="edge16" class="edge">
<title>Node10&#45;&gt;Node13</title>
<path fill="none" stroke="midnightblue" d="M563.64,-119.06C571.37,-121.91 579.33,-126.13 585,-132.28 621,-171.36 586.3,-206.05 621,-246.28 622.72,-248.28 624.7,-250.09 626.84,-251.72"/>
<polygon fill="midnightblue" stroke="midnightblue" points="625.28,-254.87 635.63,-257.16 628.97,-248.92 625.28,-254.87"/>
</g>
<!-- Node14 -->
<g id="node14" class="node">
<title>Node14</title>
<g id="a_node14"><a xlink:href="group__datatypes__list__operate.html#ga1088f9b09ff8ed12e2c844758f39c039" target="_top" xlink:title="Compute the mean/average of a list of numbers.">
<polygon fill="white" stroke="black" points="639,-103.78 639,-122.78 683,-122.78 683,-103.78 639,-103.78"/>
<text text-anchor="middle" x="661" y="-110.78" font-family="Helvetica,sans-Serif" font-size="10.00">mean</text>
</a>
</g>
</g>
<!-- Node10&#45;&gt;Node14 -->
<g id="edge17" class="edge">
<title>Node10&#45;&gt;Node14</title>
<path fill="none" stroke="midnightblue" d="M563.67,-113.28C582.53,-113.28 608.44,-113.28 628.64,-113.28"/>
<polygon fill="midnightblue" stroke="midnightblue" points="628.91,-116.78 638.91,-113.28 628.91,-109.78 628.91,-116.78"/>
</g>
<!-- Node15 -->
<g id="node15" class="node">
<title>Node15</title>
<g id="a_node15"><a xlink:href="group__datatypes__euclidean.html#ga78d67c74076bef2e80a95b1e9b6eb2d7" target="_top" xlink:title="Return 3d point unchanged or add a zeroed third dimension to 2d point.">
<polygon fill="white" stroke="black" points="624,-65.78 624,-84.78 698,-84.78 698,-65.78 624,-65.78"/>
<text text-anchor="middle" x="661" y="-72.78" font-family="Helvetica,sans-Serif" font-size="10.00">point_to_3d</text>
</a>
</g>
</g>
<!-- Node10&#45;&gt;Node15 -->
<g id="edge18" class="edge">
<title>Node10&#45;&gt;Node15</title>
<path fill="none" stroke="midnightblue" d="M563.67,-105.41C579.82,-100.36 601.14,-93.69 619.61,-87.91"/>
<polygon fill="midnightblue" stroke="midnightblue" points="620.76,-91.23 629.25,-84.9 618.67,-84.54 620.76,-91.23"/>
</g>
<!-- Node16 -->
<g id="node16" class="node">
<title>Node16</title>
<g id="a_node16"><a xlink:href="group__datatypes__list__operate.html#ga7b8e6f2bbfa72ae61e39377e5ca6b5be" target="_top" xlink:title="Select specified element from list or return a default.">
<polygon fill="white" stroke="black" points="631.5,-217.78 631.5,-236.78 690.5,-236.78 690.5,-217.78 631.5,-217.78"/>
<text text-anchor="middle" x="661" y="-224.78" font-family="Helvetica,sans-Serif" font-size="10.00">select_ci</text>
</a>
</g>
</g>
<!-- Node10&#45;&gt;Node16 -->
<g id="edge19" class="edge">
<title>Node10&#45;&gt;Node16</title>
<path fill="none" stroke="midnightblue" d="M563.65,-119.71C571.2,-122.59 579.05,-126.65 585,-132.28 612.14,-157.98 594.72,-181.71 621,-208.28 622.39,-209.69 623.91,-211.01 625.51,-212.24"/>
<polygon fill="midnightblue" stroke="midnightblue" points="623.72,-215.25 634.02,-217.7 627.5,-209.36 623.72,-215.25"/>
</g>
<!-- Node17 -->
<g id="node17" class="node">
<title>Node17</title>
<g id="a_node17"><a xlink:href="group__datatypes__euclidean.html#ga6ef2a81f304d31b9ec9753ca4875ad45" target="_top" xlink:title="Convert line to vector by shifting it to the origin.">
<polygon fill="white" stroke="black" points="621,-179.78 621,-198.78 701,-198.78 701,-179.78 621,-179.78"/>
<text text-anchor="middle" x="661" y="-186.78" font-family="Helvetica,sans-Serif" font-size="10.00">vol_to_origin</text>
</a>
</g>
</g>
<!-- Node10&#45;&gt;Node17 -->
<g id="edge20" class="edge">
<title>Node10&#45;&gt;Node17</title>
<path fill="none" stroke="midnightblue" d="M563.63,-121.3C570.85,-124.19 578.52,-127.85 585,-132.28 604.2,-145.42 602.24,-156.52 621,-170.28 623.2,-171.9 625.56,-173.44 627.99,-174.89"/>
<polygon fill="midnightblue" stroke="midnightblue" points="626.48,-178.05 636.93,-179.74 629.82,-171.9 626.48,-178.05"/>
</g>
<!-- Node20 -->
<g id="node20" class="node">
<title>Node20</title>
<g id="a_node20"><a xlink:href="group__datatypes__scalar__test.html#ga51d7fdb800c10f4b7479d23b89ab8d22" target="_top" xlink:title="Test if a value is defined.">
<polygon fill="white" stroke="black" points="504.5,-369.78 504.5,-388.78 570.5,-388.78 570.5,-369.78 504.5,-369.78"/>
<text text-anchor="middle" x="537.5" y="-376.78" font-family="Helvetica,sans-Serif" font-size="10.00">is_defined</text>
</a>
</g>
</g>
<!-- Node19&#45;&gt;Node20 -->
<g id="edge24" class="edge">
<title>Node19&#45;&gt;Node20</title>
<path fill="none" stroke="midnightblue" d="M435.6,-379.28C452.2,-379.28 474.7,-379.28 494.23,-379.28"/>
<polygon fill="midnightblue" stroke="midnightblue" points="494.43,-382.78 504.43,-379.28 494.43,-375.78 494.43,-382.78"/>
</g>
</g>
</svg>
