<?xml version="1.0" encoding="UTF-8" standalone="no"?>
<!DOCTYPE svg PUBLIC "-//W3C//DTD SVG 1.1//EN"
 "http://www.w3.org/Graphics/SVG/1.1/DTD/svg11.dtd">
<!-- Generated by graphviz version 2.43.0 (0)
 -->
<!-- Title: Miscellaneous Pages: 1 -->
<svg width="382pt" height="35pt"
 viewBox="0.00 0.00 382.00 34.70" xmlns="http://www.w3.org/2000/svg" xmlns:xlink="http://www.w3.org/1999/xlink">
<g id="graph0" class="graph" transform="scale(1 1) rotate(0) translate(4 30.7)">
<title>Miscellaneous</title>
<polygon fill="white" stroke="transparent" points="-4,4 -4,-30.7 378,-30.7 378,4 -4,4"/>
<!-- Node3 -->
<g id="node1" class="node">
<title>Node3</title>
<g id="a_node1"><a xlink:href="group__models__3d__misc__omdl__logo.html" target="_top" xlink:title="OpenSCAD mechanical design library logos.">
<polygon fill="white" stroke="black" points="374,-26.7 303,-26.7 303,-7.7 374,-7.7 374,-26.7"/>
<text text-anchor="middle" x="338.5" y="-14.7" font-family="Helvetica,sans-Serif" font-size="10.00">omdl logos</text>
</a>
</g>
</g>
<!-- Node2 -->
<g id="node2" class="node">
<title>Node2</title>
<g id="a_node2"><a xlink:href="group__models__3d.html" target="_top" xlink:title="3d black&#45;box models of commodity components.">
<polygon fill="white" stroke="black" points="67,-26.7 0,-26.7 0,-7.7 67,-7.7 67,-26.7"/>
<text text-anchor="middle" x="33.5" y="-14.7" font-family="Helvetica,sans-Serif" font-size="10.00">3d Models</text>
</a>
</g>
</g>
<!-- Node1 -->
<g id="node3" class="node">
<title>Node1</title>
<g id="a_node3"><a xlink:title="Miscellaneous auxiliary design models.">
<polygon fill="#bfbfbf" stroke="black" points="190,-26.7 104,-26.7 104,-7.7 190,-7.7 190,-26.7"/>
<text text-anchor="middle" x="147" y="-14.7" font-family="Helvetica,sans-Serif" font-size="10.00">Miscellaneous</text>
</a>
</g>
</g>
<!-- Node2&#45;&gt;Node1 -->
<g id="edge1" class="edge">
<title>Node2&#45;&gt;Node1</title>
<path fill="none" stroke="black" d="M77.31,-17.2C85.95,-17.2 95.03,-17.2 103.65,-17.2"/>
<polygon fill="black" stroke="black" points="77.05,-13.7 67.05,-17.2 77.05,-20.7 77.05,-13.7"/>
</g>
<!-- Node1&#45;&gt;Node3 -->
<g id="edge2" class="edge">
<title>Node1&#45;&gt;Node3</title>
<path fill="none" stroke="black" d="M200.34,-17.2C233.02,-17.2 274.19,-17.2 302.85,-17.2"/>
<polygon fill="black" stroke="black" points="200.06,-13.7 190.06,-17.2 200.06,-20.7 200.06,-13.7"/>
</g>
<!-- Node1&#45;&gt;Node3 -->
<g id="edge3" class="edge">
<title>Node1&#45;&gt;Node3</title>
<path fill="none" stroke="darkgreen" stroke-dasharray="5,2" d="M182.66,-7.69C190.9,-5.83 199.71,-4.16 208,-3.2 242,0.71 251.07,1.24 285,-3.2 292.3,-4.16 300.02,-5.83 307.23,-7.7"/>
<text text-anchor="middle" x="246.5" y="-6.2" font-family="Helvetica,sans-Serif" font-size="10.00">omdl_logo.scad</text>
</g>
</g>
</svg>
