<?xml version="1.0" encoding="UTF-8" standalone="no"?>
<!DOCTYPE svg PUBLIC "-//W3C//DTD SVG 1.1//EN"
 "http://www.w3.org/Graphics/SVG/1.1/DTD/svg11.dtd">
<!-- Generated by graphviz version 2.43.0 (0)
 -->
<!-- Title: strl Pages: 1 -->
<svg width="327pt" height="218pt"
 viewBox="0.00 0.00 327.00 218.00" xmlns="http://www.w3.org/2000/svg" xmlns:xlink="http://www.w3.org/1999/xlink">
<g id="graph0" class="graph" transform="scale(1 1) rotate(0) translate(4 214)">
<title>strl</title>
<polygon fill="white" stroke="transparent" points="-4,4 -4,-214 323,-214 323,4 -4,4"/>
<!-- Node1 -->
<g id="node1" class="node">
<title>Node1</title>
<g id="a_node1"><a xlink:title="Convert a list of values to a concatenated string.">
<polygon fill="#bfbfbf" stroke="black" points="287,-95.5 287,-114.5 319,-114.5 319,-95.5 287,-95.5"/>
<text text-anchor="middle" x="303" y="-102.5" font-family="Helvetica,sans-Serif" font-size="10.00">strl</text>
</a>
</g>
</g>
<!-- Node2 -->
<g id="node2" class="node">
<title>Node2</title>
<g id="a_node2"><a xlink:href="group__parts__3d__fastener__catch__latch.html#ga26a9933aa6d33599daab1be8d632c430" target="_top" xlink:title="A catch latch generator with configurable profile.">
<polygon fill="white" stroke="black" points="152.5,-190.5 152.5,-209.5 224.5,-209.5 224.5,-190.5 152.5,-190.5"/>
<text text-anchor="middle" x="188.5" y="-197.5" font-family="Helvetica,sans-Serif" font-size="10.00">catch_latch</text>
</a>
</g>
</g>
<!-- Node1&#45;&gt;Node2 -->
<g id="edge1" class="edge">
<title>Node1&#45;&gt;Node2</title>
<path fill="none" stroke="midnightblue" d="M292.68,-123.51C283.86,-139.37 269.27,-161.82 251,-176 243.12,-182.11 233.5,-186.84 224.22,-190.42"/>
<polygon fill="midnightblue" stroke="midnightblue" points="295.8,-125.1 297.4,-114.63 289.62,-121.81 295.8,-125.1"/>
</g>
<!-- Node3 -->
<g id="node3" class="node">
<title>Node3</title>
<g id="a_node3"><a xlink:href="group__parts__3d__fastener__hinges.html#ga1ffc82e0bbac466d1dc4fbe6c214b765" target="_top" xlink:title="A print&#45;in&#45;place bi&#45;fold hinge generator.">
<polygon fill="white" stroke="black" points="15.5,-123.5 15.5,-142.5 74.5,-142.5 74.5,-123.5 15.5,-123.5"/>
<text text-anchor="middle" x="45" y="-130.5" font-family="Helvetica,sans-Serif" font-size="10.00">hinge_bf</text>
</a>
</g>
</g>
<!-- Node1&#45;&gt;Node3 -->
<g id="edge2" class="edge">
<title>Node1&#45;&gt;Node3</title>
<path fill="none" stroke="midnightblue" d="M285.61,-121.5C276.32,-129.68 263.97,-138.7 251,-143 190.8,-162.96 115.2,-150.33 74.73,-140.78"/>
<polygon fill="midnightblue" stroke="midnightblue" points="288.01,-124.06 292.94,-114.68 283.24,-118.94 288.01,-124.06"/>
</g>
<!-- Node4 -->
<g id="node4" class="node">
<title>Node4</title>
<g id="a_node4"><a xlink:href="group__parts__3d__fastener__hinges.html#ga7e350f2c55116094108b99dd8103fc04" target="_top" xlink:title="A print&#45;in&#45;place single&#45;fold hinge generator.">
<polygon fill="white" stroke="black" points="159.5,-114.5 159.5,-133.5 217.5,-133.5 217.5,-114.5 159.5,-114.5"/>
<text text-anchor="middle" x="188.5" y="-121.5" font-family="Helvetica,sans-Serif" font-size="10.00">hinge_sf</text>
</a>
</g>
</g>
<!-- Node1&#45;&gt;Node4 -->
<g id="edge3" class="edge">
<title>Node1&#45;&gt;Node4</title>
<path fill="none" stroke="midnightblue" d="M276.78,-109.26C259.29,-112.21 235.96,-116.15 217.82,-119.22"/>
<polygon fill="midnightblue" stroke="midnightblue" points="277.55,-112.68 286.83,-107.56 276.38,-105.78 277.55,-112.68"/>
</g>
<!-- Node5 -->
<g id="node5" class="node">
<title>Node5</title>
<g id="a_node5"><a xlink:href="group__parts__3d__enclosure__power__strip.html#ga191779dedf39e4fd769a8dc96b0f8c9e" target="_top" xlink:title="A power strip generator for single gang electrical receptacles.">
<polygon fill="white" stroke="black" points="0,-66.5 0,-85.5 90,-85.5 90,-66.5 0,-66.5"/>
<text text-anchor="middle" x="45" y="-73.5" font-family="Helvetica,sans-Serif" font-size="10.00">power_strip_sg</text>
</a>
</g>
</g>
<!-- Node1&#45;&gt;Node5 -->
<g id="edge5" class="edge">
<title>Node1&#45;&gt;Node5</title>
<path fill="none" stroke="midnightblue" d="M276.76,-102.14C233.38,-97.23 144.14,-87.12 90.24,-81.01"/>
<polygon fill="midnightblue" stroke="midnightblue" points="276.42,-105.62 286.75,-103.27 277.21,-98.67 276.42,-105.62"/>
</g>
<!-- Node6 -->
<g id="node6" class="node">
<title>Node6</title>
<g id="a_node6"><a xlink:href="group__parts__3d__enclosure__project__box__rectangle.html#ga6a5d093d732e65556c46252220f2c4b6" target="_top" xlink:title="A rectangular box maker for project boxes, enclosures and housings.">
<polygon fill="white" stroke="black" points="126,-38.5 126,-57.5 251,-57.5 251,-38.5 126,-38.5"/>
<text text-anchor="middle" x="188.5" y="-45.5" font-family="Helvetica,sans-Serif" font-size="10.00">project_box_rectangle</text>
</a>
</g>
</g>
<!-- Node1&#45;&gt;Node6 -->
<g id="edge6" class="edge">
<title>Node1&#45;&gt;Node6</title>
<path fill="none" stroke="midnightblue" d="M280.09,-89.43C271.28,-83.55 260.89,-77.07 251,-72 240.39,-66.57 228.25,-61.59 217.58,-57.59"/>
<polygon fill="midnightblue" stroke="midnightblue" points="278.37,-92.5 288.6,-95.26 282.32,-86.72 278.37,-92.5"/>
</g>
<!-- Node7 -->
<g id="node7" class="node">
<title>Node7</title>
<g id="a_node7"><a xlink:href="group__datatypes__table.html#ga8d212217f9acb803e3107f488d5523e6" target="_top" xlink:title="Write formatted map entries to the console.">
<polygon fill="white" stroke="black" points="153,-0.5 153,-19.5 224,-19.5 224,-0.5 153,-0.5"/>
<text text-anchor="middle" x="188.5" y="-7.5" font-family="Helvetica,sans-Serif" font-size="10.00">table_write</text>
</a>
</g>
</g>
<!-- Node1&#45;&gt;Node7 -->
<g id="edge8" class="edge">
<title>Node1&#45;&gt;Node7</title>
<path fill="none" stroke="midnightblue" d="M293.89,-86.15C285.53,-68.88 270.93,-43.83 251,-29 243.11,-23.13 233.38,-19.05 224,-16.22"/>
<polygon fill="midnightblue" stroke="midnightblue" points="290.73,-87.65 298.08,-95.28 297.09,-84.73 290.73,-87.65"/>
</g>
<!-- Node4&#45;&gt;Node3 -->
<g id="edge4" class="edge">
<title>Node4&#45;&gt;Node3</title>
<path fill="none" stroke="midnightblue" d="M148.92,-126.45C125.5,-127.94 96.1,-129.81 74.73,-131.17"/>
<polygon fill="midnightblue" stroke="midnightblue" points="149.45,-129.93 159.21,-125.8 149,-122.94 149.45,-129.93"/>
</g>
<!-- Node6&#45;&gt;Node5 -->
<g id="edge7" class="edge">
<title>Node6&#45;&gt;Node5</title>
<path fill="none" stroke="midnightblue" d="M129.36,-59.5C116.31,-62.09 102.66,-64.79 90.28,-67.24"/>
<polygon fill="midnightblue" stroke="midnightblue" points="130.07,-62.93 139.2,-57.56 128.71,-56.07 130.07,-62.93"/>
</g>
</g>
</svg>
