<?xml version="1.0" encoding="UTF-8" standalone="no"?>
<!DOCTYPE svg PUBLIC "-//W3C//DTD SVG 1.1//EN"
 "http://www.w3.org/Graphics/SVG/1.1/DTD/svg11.dtd">
<!-- Generated by graphviz version 2.43.0 (0)
 -->
<!-- Title: extrude_linear_mss Pages: 1 -->
<svg width="441pt" height="285pt"
 viewBox="0.00 0.00 441.00 284.60" xmlns="http://www.w3.org/2000/svg" xmlns:xlink="http://www.w3.org/1999/xlink">
<g id="graph0" class="graph" transform="scale(1 1) rotate(0) translate(4 280.6)">
<title>extrude_linear_mss</title>
<polygon fill="white" stroke="transparent" points="-4,4 -4,-280.6 437,-280.6 437,4 -4,4"/>
<!-- Node1 -->
<g id="node1" class="node">
<title>Node1</title>
<g id="a_node1"><a xlink:title="Linearly extrude a 2d shape with multi&#45;segment uniformly&#45;spaced profile scaling.">
<polygon fill="#bfbfbf" stroke="black" points="320,-124.1 320,-143.1 433,-143.1 433,-124.1 320,-124.1"/>
<text text-anchor="middle" x="376.5" y="-131.1" font-family="Helvetica,sans-Serif" font-size="10.00">extrude_linear_mss</text>
</a>
</g>
</g>
<!-- Node2 -->
<g id="node2" class="node">
<title>Node2</title>
<g id="a_node2"><a xlink:href="group__parts__3d__fastener__catch__latch.html#ga26a9933aa6d33599daab1be8d632c430" target="_top" xlink:title="A catch latch generator with configurable profile.">
<polygon fill="white" stroke="black" points="178,-257.1 178,-276.1 250,-276.1 250,-257.1 178,-257.1"/>
<text text-anchor="middle" x="214" y="-264.1" font-family="Helvetica,sans-Serif" font-size="10.00">catch_latch</text>
</a>
</g>
</g>
<!-- Node1&#45;&gt;Node2 -->
<g id="edge1" class="edge">
<title>Node1&#45;&gt;Node2</title>
<path fill="none" stroke="midnightblue" d="M365.57,-152.23C351.05,-177.65 321.63,-222.86 284,-247.6 273.93,-254.22 261.58,-258.55 250.13,-261.38"/>
<polygon fill="midnightblue" stroke="midnightblue" points="368.76,-153.69 370.55,-143.24 362.64,-150.3 368.76,-153.69"/>
</g>
<!-- Node3 -->
<g id="node3" class="node">
<title>Node3</title>
<g id="a_node3"><a xlink:href="group__parts__3d__enclosure__clamps.html#ga8fd874789132e42e5470328d18560f1a" target="_top" xlink:title="A clamp, bushing, and/or grip for wire/hose wall penetrations.">
<polygon fill="white" stroke="black" points="182.5,-105.1 182.5,-124.1 245.5,-124.1 245.5,-105.1 182.5,-105.1"/>
<text text-anchor="middle" x="214" y="-112.1" font-family="Helvetica,sans-Serif" font-size="10.00">clamp_cg</text>
</a>
</g>
</g>
<!-- Node1&#45;&gt;Node3 -->
<g id="edge2" class="edge">
<title>Node1&#45;&gt;Node3</title>
<path fill="none" stroke="midnightblue" d="M309.77,-125.82C287.63,-123.2 263.95,-120.4 245.81,-118.25"/>
<polygon fill="midnightblue" stroke="midnightblue" points="309.47,-129.31 319.82,-127.01 310.3,-122.36 309.47,-129.31"/>
</g>
<!-- Node5 -->
<g id="node5" class="node">
<title>Node5</title>
<g id="a_node5"><a xlink:href="group__parts__3d__motion__bearing__linear__rod.html#ga48399d5e708b4894494c69b2d1e88e26" target="_top" xlink:title="Transform 2d or 3d shape into a linear rod ball or sled bearing.">
<polygon fill="white" stroke="black" points="144,-181.1 144,-200.1 284,-200.1 284,-181.1 144,-181.1"/>
<text text-anchor="middle" x="214" y="-188.1" font-family="Helvetica,sans-Serif" font-size="10.00">make_bearing_linear_rod</text>
</a>
</g>
</g>
<!-- Node1&#45;&gt;Node5 -->
<g id="edge4" class="edge">
<title>Node1&#45;&gt;Node5</title>
<path fill="none" stroke="midnightblue" d="M345.47,-147.19C327.79,-154.9 304.86,-164.43 284,-171.6 274.01,-175.03 263.05,-178.28 252.86,-181.09"/>
<polygon fill="midnightblue" stroke="midnightblue" points="346.97,-150.35 354.71,-143.11 344.15,-143.94 346.97,-150.35"/>
</g>
<!-- Node6 -->
<g id="node6" class="node">
<title>Node6</title>
<g id="a_node6"><a xlink:href="group__parts__3d__enclosure__mounts.html#ga0cbac43259ec43fff7785057277bcef3" target="_top" xlink:title="A screw mount post with screw bore and optional fins.">
<polygon fill="white" stroke="black" points="0,-10.1 0,-29.1 108,-29.1 108,-10.1 0,-10.1"/>
<text text-anchor="middle" x="54" y="-17.1" font-family="Helvetica,sans-Serif" font-size="10.00">mount_screw_post</text>
</a>
</g>
</g>
<!-- Node1&#45;&gt;Node6 -->
<g id="edge5" class="edge">
<title>Node1&#45;&gt;Node6</title>
<path fill="none" stroke="midnightblue" d="M366.99,-114.65C353.69,-87.69 325.19,-39.36 284,-19.6 222.34,9.97 140.16,-0.19 92.87,-10.05"/>
<polygon fill="midnightblue" stroke="midnightblue" points="363.89,-116.29 371.33,-123.83 370.22,-113.29 363.89,-116.29"/>
</g>
<!-- Node7 -->
<g id="node7" class="node">
<title>Node7</title>
<g id="a_node7"><a xlink:href="group__models__3d__misc__omdl__logo.html#gab176f64dad7e83d4fb056be44b71f630" target="_top" xlink:title="Standard omdl logo.">
<polygon fill="white" stroke="black" points="180,-219.1 180,-238.1 248,-238.1 248,-219.1 180,-219.1"/>
<text text-anchor="middle" x="214" y="-226.1" font-family="Helvetica,sans-Serif" font-size="10.00">omdl_logo</text>
</a>
</g>
</g>
<!-- Node1&#45;&gt;Node7 -->
<g id="edge6" class="edge">
<title>Node1&#45;&gt;Node7</title>
<path fill="none" stroke="midnightblue" d="M359.6,-150.5C342.48,-167.75 313.69,-194.11 284,-209.6 272.87,-215.41 259.79,-219.59 248.02,-222.52"/>
<polygon fill="midnightblue" stroke="midnightblue" points="362.14,-152.91 366.6,-143.29 357.12,-148.03 362.14,-152.91"/>
</g>
<!-- Node8 -->
<g id="node8" class="node">
<title>Node8</title>
<g id="a_node8"><a xlink:href="group__parts__3d__computer__pci__bracket.html#gaf56631cf80d8e5f0b77736b17b94ecd9" target="_top" xlink:title="PCI slot cover and adapter card bracket generator.">
<polygon fill="white" stroke="black" points="178,-67.1 178,-86.1 250,-86.1 250,-67.1 178,-67.1"/>
<text text-anchor="middle" x="214" y="-74.1" font-family="Helvetica,sans-Serif" font-size="10.00">pci_bracket</text>
</a>
</g>
</g>
<!-- Node1&#45;&gt;Node8 -->
<g id="edge8" class="edge">
<title>Node1&#45;&gt;Node8</title>
<path fill="none" stroke="midnightblue" d="M345.47,-120.01C327.79,-112.3 304.86,-102.77 284,-95.6 273.07,-91.84 260.98,-88.31 250.01,-85.33"/>
<polygon fill="midnightblue" stroke="midnightblue" points="344.15,-123.26 354.71,-124.09 346.97,-116.85 344.15,-123.26"/>
</g>
<!-- Node9 -->
<g id="node9" class="node">
<title>Node9</title>
<g id="a_node9"><a xlink:href="group__parts__3d__enclosure__project__box__rectangle.html#ga6a5d093d732e65556c46252220f2c4b6" target="_top" xlink:title="A rectangular box maker for project boxes, enclosures and housings.">
<polygon fill="white" stroke="black" points="151.5,-143.1 151.5,-162.1 276.5,-162.1 276.5,-143.1 151.5,-143.1"/>
<text text-anchor="middle" x="214" y="-150.1" font-family="Helvetica,sans-Serif" font-size="10.00">project_box_rectangle</text>
</a>
</g>
</g>
<!-- Node1&#45;&gt;Node9 -->
<g id="edge9" class="edge">
<title>Node1&#45;&gt;Node9</title>
<path fill="none" stroke="midnightblue" d="M309.86,-141.37C298.87,-142.67 287.5,-144.02 276.62,-145.31"/>
<polygon fill="midnightblue" stroke="midnightblue" points="310.3,-144.84 319.82,-140.19 309.47,-137.89 310.3,-144.84"/>
</g>
<!-- Node10 -->
<g id="node10" class="node">
<title>Node10</title>
<g id="a_node10"><a xlink:href="group__models__3d__fastener__screws.html#gaad990187680f7ac947e555483d854bfa" target="_top" xlink:title="Gapped fastener bore with engagement cylinders for self&#45;forming threads.">
<polygon fill="white" stroke="black" points="169,-29.1 169,-48.1 259,-48.1 259,-29.1 169,-29.1"/>
<text text-anchor="middle" x="214" y="-36.1" font-family="Helvetica,sans-Serif" font-size="10.00">screw_bore_tsf</text>
</a>
</g>
</g>
<!-- Node1&#45;&gt;Node10 -->
<g id="edge11" class="edge">
<title>Node1&#45;&gt;Node10</title>
<path fill="none" stroke="midnightblue" d="M359.6,-116.7C342.48,-99.45 313.69,-73.09 284,-57.6 276.29,-53.58 267.64,-50.33 259.13,-47.74"/>
<polygon fill="midnightblue" stroke="midnightblue" points="357.12,-119.17 366.6,-123.91 362.14,-114.29 357.12,-119.17"/>
</g>
<!-- Node4 -->
<g id="node4" class="node">
<title>Node4</title>
<g id="a_node4"><a xlink:href="group__parts__3d__enclosure__power__strip.html#ga191779dedf39e4fd769a8dc96b0f8c9e" target="_top" xlink:title="A power strip generator for single gang electrical receptacles.">
<polygon fill="white" stroke="black" points="9,-143.1 9,-162.1 99,-162.1 99,-143.1 9,-143.1"/>
<text text-anchor="middle" x="54" y="-150.1" font-family="Helvetica,sans-Serif" font-size="10.00">power_strip_sg</text>
</a>
</g>
</g>
<!-- Node3&#45;&gt;Node4 -->
<g id="edge3" class="edge">
<title>Node3&#45;&gt;Node4</title>
<path fill="none" stroke="midnightblue" d="M172.35,-124.38C148.49,-130.12 118.46,-137.34 94.76,-143.04"/>
<polygon fill="midnightblue" stroke="midnightblue" points="173.26,-127.76 182.16,-122.02 171.62,-120.95 173.26,-127.76"/>
</g>
<!-- Node7&#45;&gt;Node4 -->
<g id="edge7" class="edge">
<title>Node7&#45;&gt;Node4</title>
<path fill="none" stroke="midnightblue" d="M169.94,-218.9C161.19,-216.33 152.16,-213.24 144,-209.6 114.67,-196.53 83.85,-174.69 67.28,-162.18"/>
<polygon fill="midnightblue" stroke="midnightblue" points="169.08,-222.29 179.65,-221.58 170.94,-215.54 169.08,-222.29"/>
</g>
<!-- Node9&#45;&gt;Node4 -->
<g id="edge10" class="edge">
<title>Node9&#45;&gt;Node4</title>
<path fill="none" stroke="midnightblue" d="M141.09,-152.6C126.74,-152.6 112.08,-152.6 99.02,-152.6"/>
<polygon fill="midnightblue" stroke="midnightblue" points="141.46,-156.1 151.46,-152.6 141.46,-149.1 141.46,-156.1"/>
</g>
<!-- Node10&#45;&gt;Node6 -->
<g id="edge12" class="edge">
<title>Node10&#45;&gt;Node6</title>
<path fill="none" stroke="midnightblue" d="M158.97,-32.1C142.51,-30.12 124.43,-27.95 108.04,-25.98"/>
<polygon fill="midnightblue" stroke="midnightblue" points="158.64,-35.59 168.99,-33.31 159.48,-28.64 158.64,-35.59"/>
</g>
</g>
</svg>
