<?xml version="1.0" encoding="UTF-8" standalone="no"?>
<!DOCTYPE svg PUBLIC "-//W3C//DTD SVG 1.1//EN"
 "http://www.w3.org/Graphics/SVG/1.1/DTD/svg11.dtd">
<!-- Generated by graphviz version 2.43.0 (0)
 -->
<!-- Title: map_get_value Pages: 1 -->
<svg width="492pt" height="237pt"
 viewBox="0.00 0.00 492.00 237.00" xmlns="http://www.w3.org/2000/svg" xmlns:xlink="http://www.w3.org/1999/xlink">
<g id="graph0" class="graph" transform="scale(1 1) rotate(0) translate(4 233)">
<title>map_get_value</title>
<polygon fill="white" stroke="transparent" points="-4,4 -4,-233 488,-233 488,4 -4,4"/>
<!-- Node1 -->
<g id="node1" class="node">
<title>Node1</title>
<g id="a_node1"><a xlink:title="Get the map value associated with a key.">
<polygon fill="#bfbfbf" stroke="black" points="392,-76.5 392,-95.5 484,-95.5 484,-76.5 392,-76.5"/>
<text text-anchor="middle" x="438" y="-83.5" font-family="Helvetica,sans-Serif" font-size="10.00">map_get_value</text>
</a>
</g>
</g>
<!-- Node2 -->
<g id="node2" class="node">
<title>Node2</title>
<g id="a_node2"><a xlink:href="group__tools__drafting__operation.html#gaae4b7ed59444eb6f6c0ae47bd36e1e9b" target="_top" xlink:title="Construct a text table that is populated by rows and columns.">
<polygon fill="white" stroke="black" points="276.5,-152.5 276.5,-171.5 345.5,-171.5 345.5,-152.5 276.5,-152.5"/>
<text text-anchor="middle" x="311" y="-159.5" font-family="Helvetica,sans-Serif" font-size="10.00">draft_table</text>
</a>
</g>
</g>
<!-- Node1&#45;&gt;Node2 -->
<g id="edge1" class="edge">
<title>Node1&#45;&gt;Node2</title>
<path fill="none" stroke="midnightblue" d="M417.11,-101.74C401.16,-113.93 377.9,-130.74 356,-143 349.9,-146.41 343.07,-149.63 336.64,-152.42"/>
<polygon fill="midnightblue" stroke="midnightblue" points="419.4,-104.4 425.16,-95.51 415.11,-98.86 419.4,-104.4"/>
</g>
<!-- Node8 -->
<g id="node8" class="node">
<title>Node8</title>
<g id="a_node8"><a xlink:href="group__tools__drafting__operation.html#gabd9d0d4e3819d3bdec5e3649c8ad2c79" target="_top" xlink:title="Construct a text table that is populated by predefined zones.">
<polygon fill="white" stroke="black" points="274,-114.5 274,-133.5 348,-133.5 348,-114.5 274,-114.5"/>
<text text-anchor="middle" x="311" y="-121.5" font-family="Helvetica,sans-Serif" font-size="10.00">draft_ztable</text>
</a>
</g>
</g>
<!-- Node1&#45;&gt;Node8 -->
<g id="edge7" class="edge">
<title>Node1&#45;&gt;Node8</title>
<path fill="none" stroke="midnightblue" d="M395.77,-98.54C378.76,-103.7 359.37,-109.6 343.53,-114.41"/>
<polygon fill="midnightblue" stroke="midnightblue" points="396.91,-101.85 405.46,-95.59 394.87,-95.15 396.91,-101.85"/>
</g>
<!-- Node10 -->
<g id="node10" class="node">
<title>Node10</title>
<g id="a_node10"><a xlink:href="group__datatypes__map.html#ga680cb75c8d9f3769064128e9c3d5800e" target="_top" xlink:title="Dump each map entry to the console.">
<polygon fill="white" stroke="black" points="275.5,-76.5 275.5,-95.5 346.5,-95.5 346.5,-76.5 275.5,-76.5"/>
<text text-anchor="middle" x="311" y="-83.5" font-family="Helvetica,sans-Serif" font-size="10.00">map_dump</text>
</a>
</g>
</g>
<!-- Node1&#45;&gt;Node10 -->
<g id="edge9" class="edge">
<title>Node1&#45;&gt;Node10</title>
<path fill="none" stroke="midnightblue" d="M381.62,-86C369.81,-86 357.65,-86 346.86,-86"/>
<polygon fill="midnightblue" stroke="midnightblue" points="381.87,-89.5 391.87,-86 381.87,-82.5 381.87,-89.5"/>
</g>
<!-- Node11 -->
<g id="node11" class="node">
<title>Node11</title>
<g id="a_node11"><a xlink:href="group__datatypes__map.html#ga1ee3a7b76638ba11f1420da1dec59c8d" target="_top" xlink:title="Write formatted map entries to the console.">
<polygon fill="white" stroke="black" points="277,-38.5 277,-57.5 345,-57.5 345,-38.5 277,-38.5"/>
<text text-anchor="middle" x="311" y="-45.5" font-family="Helvetica,sans-Serif" font-size="10.00">map_write</text>
</a>
</g>
</g>
<!-- Node1&#45;&gt;Node11 -->
<g id="edge10" class="edge">
<title>Node1&#45;&gt;Node11</title>
<path fill="none" stroke="midnightblue" d="M395.77,-73.46C378.76,-68.3 359.37,-62.4 343.53,-57.59"/>
<polygon fill="midnightblue" stroke="midnightblue" points="394.87,-76.85 405.46,-76.41 396.91,-70.15 394.87,-76.85"/>
</g>
<!-- Node12 -->
<g id="node12" class="node">
<title>Node12</title>
<g id="a_node12"><a xlink:href="group__parts__3d__enclosure__power__strip.html#ga191779dedf39e4fd769a8dc96b0f8c9e" target="_top" xlink:title="A power strip generator for single gang electrical receptacles.">
<polygon fill="white" stroke="black" points="266,-0.5 266,-19.5 356,-19.5 356,-0.5 266,-0.5"/>
<text text-anchor="middle" x="311" y="-7.5" font-family="Helvetica,sans-Serif" font-size="10.00">power_strip_sg</text>
</a>
</g>
</g>
<!-- Node1&#45;&gt;Node12 -->
<g id="edge11" class="edge">
<title>Node1&#45;&gt;Node12</title>
<path fill="none" stroke="midnightblue" d="M417.11,-70.26C401.16,-58.07 377.9,-41.26 356,-29 349.9,-25.59 343.07,-22.37 336.64,-19.58"/>
<polygon fill="midnightblue" stroke="midnightblue" points="415.11,-73.14 425.16,-76.49 419.4,-67.6 415.11,-73.14"/>
</g>
<!-- Node3 -->
<g id="node3" class="node">
<title>Node3</title>
<g id="a_node3"><a xlink:href="group__tools__drafting__operation.html#gac1b780633ac5e2874a8a00177d98b305" target="_top" xlink:title="Construct a text note with optional heading and boarder.">
<polygon fill="white" stroke="black" points="149.5,-152.5 149.5,-171.5 215.5,-171.5 215.5,-152.5 149.5,-152.5"/>
<text text-anchor="middle" x="182.5" y="-159.5" font-family="Helvetica,sans-Serif" font-size="10.00">draft_note</text>
</a>
</g>
</g>
<!-- Node2&#45;&gt;Node3 -->
<g id="edge2" class="edge">
<title>Node2&#45;&gt;Node3</title>
<path fill="none" stroke="midnightblue" d="M266.42,-162C249.85,-162 231.27,-162 215.91,-162"/>
<polygon fill="midnightblue" stroke="midnightblue" points="266.43,-165.5 276.43,-162 266.43,-158.5 266.43,-165.5"/>
</g>
<!-- Node4 -->
<g id="node4" class="node">
<title>Node4</title>
<g id="a_node4"><a xlink:href="group__tools__drafting__dimension.html#ga6b8e17d22ac4a95d25a90be8a74c0689" target="_top" xlink:title="Construct a angular dimension arc.">
<polygon fill="white" stroke="black" points="2,-209.5 2,-228.5 97,-228.5 97,-209.5 2,-209.5"/>
<text text-anchor="middle" x="49.5" y="-216.5" font-family="Helvetica,sans-Serif" font-size="10.00">draft_dim_angle</text>
</a>
</g>
</g>
<!-- Node3&#45;&gt;Node4 -->
<g id="edge3" class="edge">
<title>Node3&#45;&gt;Node4</title>
<path fill="none" stroke="midnightblue" d="M152.43,-175.89C136.71,-183.28 116.9,-192.38 99,-200 91.51,-203.19 83.29,-206.48 75.79,-209.42"/>
<polygon fill="midnightblue" stroke="midnightblue" points="154.09,-178.98 161.64,-171.54 151.1,-172.65 154.09,-178.98"/>
</g>
<!-- Node5 -->
<g id="node5" class="node">
<title>Node5</title>
<g id="a_node5"><a xlink:href="group__tools__drafting__dimension.html#ga5c4915c4c4464c5cdaefd501c2de261d" target="_top" xlink:title="Construct a dimension leader line at a point.">
<polygon fill="white" stroke="black" points="0,-171.5 0,-190.5 99,-190.5 99,-171.5 0,-171.5"/>
<text text-anchor="middle" x="49.5" y="-178.5" font-family="Helvetica,sans-Serif" font-size="10.00">draft_dim_leader</text>
</a>
</g>
</g>
<!-- Node3&#45;&gt;Node5 -->
<g id="edge4" class="edge">
<title>Node3&#45;&gt;Node5</title>
<path fill="none" stroke="midnightblue" d="M139.48,-168.09C126.61,-169.96 112.34,-172.03 99.08,-173.95"/>
<polygon fill="midnightblue" stroke="midnightblue" points="140.06,-171.55 149.45,-166.65 139.05,-164.62 140.06,-171.55"/>
</g>
<!-- Node6 -->
<g id="node6" class="node">
<title>Node6</title>
<g id="a_node6"><a xlink:href="group__tools__drafting__dimension.html#ga27a35e94597435a74e22d76789e9be5e" target="_top" xlink:title="Construct a dimension line between two points.">
<polygon fill="white" stroke="black" points="6.5,-133.5 6.5,-152.5 92.5,-152.5 92.5,-133.5 6.5,-133.5"/>
<text text-anchor="middle" x="49.5" y="-140.5" font-family="Helvetica,sans-Serif" font-size="10.00">draft_dim_line</text>
</a>
</g>
</g>
<!-- Node3&#45;&gt;Node6 -->
<g id="edge5" class="edge">
<title>Node3&#45;&gt;Node6</title>
<path fill="none" stroke="midnightblue" d="M139.43,-155.9C124.45,-153.73 107.59,-151.28 92.61,-149.11"/>
<polygon fill="midnightblue" stroke="midnightblue" points="139.05,-159.38 149.45,-157.35 140.06,-152.45 139.05,-159.38"/>
</g>
<!-- Node7 -->
<g id="node7" class="node">
<title>Node7</title>
<g id="a_node7"><a xlink:href="group__tools__drafting__dimension.html#gaef1a8150a8ef7be88e086fb3dbab64a9" target="_top" xlink:title="Construct a radial dimension line.">
<polygon fill="white" stroke="black" points="0.5,-95.5 0.5,-114.5 98.5,-114.5 98.5,-95.5 0.5,-95.5"/>
<text text-anchor="middle" x="49.5" y="-102.5" font-family="Helvetica,sans-Serif" font-size="10.00">draft_dim_radius</text>
</a>
</g>
</g>
<!-- Node3&#45;&gt;Node7 -->
<g id="edge6" class="edge">
<title>Node3&#45;&gt;Node7</title>
<path fill="none" stroke="midnightblue" d="M147.18,-148.42C143.05,-146.66 138.91,-144.83 135,-143 118.61,-135.35 115.45,-131.53 99,-124 91.76,-120.69 83.77,-117.41 76.4,-114.53"/>
<polygon fill="midnightblue" stroke="midnightblue" points="146.11,-151.77 156.69,-152.39 148.81,-145.31 146.11,-151.77"/>
</g>
<!-- Node9 -->
<g id="node9" class="node">
<title>Node9</title>
<g id="a_node9"><a xlink:href="group__tools__drafting__operation.html#ga172b76b2027c863e672bc7a84dabea5e" target="_top" xlink:title="Construct a sheet title block.">
<polygon fill="white" stroke="black" points="135,-114.5 135,-133.5 230,-133.5 230,-114.5 135,-114.5"/>
<text text-anchor="middle" x="182.5" y="-121.5" font-family="Helvetica,sans-Serif" font-size="10.00">draft_title_block</text>
</a>
</g>
</g>
<!-- Node8&#45;&gt;Node9 -->
<g id="edge8" class="edge">
<title>Node8&#45;&gt;Node9</title>
<path fill="none" stroke="midnightblue" d="M263.57,-124C252.68,-124 241.06,-124 230.16,-124"/>
<polygon fill="midnightblue" stroke="midnightblue" points="263.75,-127.5 273.75,-124 263.75,-120.5 263.75,-127.5"/>
</g>
</g>
</svg>
