<?xml version="1.0" encoding="UTF-8" standalone="no"?>
<!DOCTYPE svg PUBLIC "-//W3C//DTD SVG 1.1//EN"
 "http://www.w3.org/Graphics/SVG/1.1/DTD/svg11.dtd">
<!-- Generated by graphviz version 2.43.0 (0)
 -->
<!-- Title: line_tp Pages: 1 -->
<svg width="603pt" height="332pt"
 viewBox="0.00 0.00 603.00 332.00" xmlns="http://www.w3.org/2000/svg" xmlns:xlink="http://www.w3.org/1999/xlink">
<g id="graph0" class="graph" transform="scale(1 1) rotate(0) translate(4 328)">
<title>line_tp</title>
<polygon fill="white" stroke="transparent" points="-4,4 -4,-328 599,-328 599,4 -4,4"/>
<!-- Node1 -->
<g id="node1" class="node">
<title>Node1</title>
<g id="a_node1"><a xlink:title="Return the terminal point of a line or vector.">
<polygon fill="#bfbfbf" stroke="black" points="545,-133.5 545,-152.5 595,-152.5 595,-133.5 545,-133.5"/>
<text text-anchor="middle" x="570" y="-140.5" font-family="Helvetica,sans-Serif" font-size="10.00">line_tp</text>
</a>
</g>
</g>
<!-- Node2 -->
<g id="node2" class="node">
<title>Node2</title>
<g id="a_node2"><a xlink:href="group__tools__align.html#ga7a21147611850c6cae7e95d23417099b" target="_top" xlink:title="Align a line or vector to a reference line or vector.">
<polygon fill="white" stroke="black" points="457,-190.5 457,-209.5 509,-209.5 509,-190.5 457,-190.5"/>
<text text-anchor="middle" x="483" y="-197.5" font-family="Helvetica,sans-Serif" font-size="10.00">align_ll</text>
</a>
</g>
</g>
<!-- Node1&#45;&gt;Node2 -->
<g id="edge1" class="edge">
<title>Node1&#45;&gt;Node2</title>
<path fill="none" stroke="midnightblue" d="M546.17,-158.31C530.9,-168.55 511.28,-181.71 498.21,-190.47"/>
<polygon fill="midnightblue" stroke="midnightblue" points="548.22,-161.15 554.58,-152.67 544.33,-155.33 548.22,-161.15"/>
</g>
<!-- Node6 -->
<g id="node6" class="node">
<title>Node6</title>
<g id="a_node6"><a xlink:href="group__tools__drafting__dimension.html#ga6b8e17d22ac4a95d25a90be8a74c0689" target="_top" xlink:title="Construct a angular dimension arc.">
<polygon fill="white" stroke="black" points="2,-304.5 2,-323.5 97,-323.5 97,-304.5 2,-304.5"/>
<text text-anchor="middle" x="49.5" y="-311.5" font-family="Helvetica,sans-Serif" font-size="10.00">draft_dim_angle</text>
</a>
</g>
</g>
<!-- Node1&#45;&gt;Node6 -->
<g id="edge20" class="edge">
<title>Node1&#45;&gt;Node6</title>
<path fill="none" stroke="midnightblue" d="M561.68,-162.11C552.3,-184.52 534.2,-221.69 509,-246 462.92,-290.45 446.03,-314 382,-314 382,-314 382,-314 268,-314 209.09,-314 141.21,-314 97.17,-314"/>
<polygon fill="midnightblue" stroke="midnightblue" points="564.98,-163.26 565.47,-152.68 558.49,-160.65 564.98,-163.26"/>
</g>
<!-- Node7 -->
<g id="node7" class="node">
<title>Node7</title>
<g id="a_node7"><a xlink:href="group__tools__drafting__primitive.html#ga6f12ccd4c9de0a8ab887184911f39c8f" target="_top" xlink:title="Draft an arrowhead at the terminal point of a line.">
<polygon fill="white" stroke="black" points="233,-266.5 233,-285.5 305,-285.5 305,-266.5 233,-266.5"/>
<text text-anchor="middle" x="269" y="-273.5" font-family="Helvetica,sans-Serif" font-size="10.00">draft_arrow</text>
</a>
</g>
</g>
<!-- Node1&#45;&gt;Node7 -->
<g id="edge19" class="edge">
<title>Node1&#45;&gt;Node7</title>
<path fill="none" stroke="midnightblue" d="M558.1,-161.58C547.41,-178.46 529.73,-203.08 509,-219 448.28,-265.65 355.21,-274.9 305.01,-276.27"/>
<polygon fill="midnightblue" stroke="midnightblue" points="561.32,-163.02 563.56,-152.67 555.35,-159.37 561.32,-163.02"/>
</g>
<!-- Node8 -->
<g id="node8" class="node">
<title>Node8</title>
<g id="a_node8"><a xlink:href="group__tools__drafting__primitive.html#ga060910368142d6371cf4f3f30be7561e" target="_top" xlink:title="Draft a line with configurable style and optional arrowheads.">
<polygon fill="white" stroke="black" points="135,-171.5 135,-190.5 197,-190.5 197,-171.5 135,-171.5"/>
<text text-anchor="middle" x="166" y="-178.5" font-family="Helvetica,sans-Serif" font-size="10.00">draft_line</text>
</a>
</g>
</g>
<!-- Node1&#45;&gt;Node8 -->
<g id="edge24" class="edge">
<title>Node1&#45;&gt;Node8</title>
<path fill="none" stroke="midnightblue" d="M534.58,-146.25C457.17,-153.57 270.37,-171.23 197.16,-178.15"/>
<polygon fill="midnightblue" stroke="midnightblue" points="535.13,-149.72 544.76,-145.29 534.47,-142.75 535.13,-149.72"/>
</g>
<!-- Node11 -->
<g id="node11" class="node">
<title>Node11</title>
<g id="a_node11"><a xlink:href="group__tools__drafting__dimension.html#ga5c4915c4c4464c5cdaefd501c2de261d" target="_top" xlink:title="Construct a dimension leader line at a point.">
<polygon fill="white" stroke="black" points="0,-114.5 0,-133.5 99,-133.5 99,-114.5 0,-114.5"/>
<text text-anchor="middle" x="49.5" y="-121.5" font-family="Helvetica,sans-Serif" font-size="10.00">draft_dim_leader</text>
</a>
</g>
</g>
<!-- Node1&#45;&gt;Node11 -->
<g id="edge21" class="edge">
<title>Node1&#45;&gt;Node11</title>
<path fill="none" stroke="midnightblue" d="M534.52,-137.38C497.08,-131.78 435.46,-124 382,-124 382,-124 382,-124 268,-124 210.04,-124 143.39,-124 99.31,-124"/>
<polygon fill="midnightblue" stroke="midnightblue" points="534.46,-140.92 544.87,-138.97 535.52,-134 534.46,-140.92"/>
</g>
<!-- Node12 -->
<g id="node12" class="node">
<title>Node12</title>
<g id="a_node12"><a xlink:href="group__tools__drafting__dimension.html#ga27a35e94597435a74e22d76789e9be5e" target="_top" xlink:title="Construct a dimension line between two points.">
<polygon fill="white" stroke="black" points="6.5,-76.5 6.5,-95.5 92.5,-95.5 92.5,-76.5 6.5,-76.5"/>
<text text-anchor="middle" x="49.5" y="-83.5" font-family="Helvetica,sans-Serif" font-size="10.00">draft_dim_line</text>
</a>
</g>
</g>
<!-- Node1&#45;&gt;Node12 -->
<g id="edge22" class="edge">
<title>Node1&#45;&gt;Node12</title>
<path fill="none" stroke="midnightblue" d="M541.42,-128.97C505.63,-112.1 440.79,-86 382,-86 382,-86 382,-86 268,-86 207.02,-86 136.42,-86 92.6,-86"/>
<polygon fill="midnightblue" stroke="midnightblue" points="540.19,-132.26 550.72,-133.46 543.24,-125.96 540.19,-132.26"/>
</g>
<!-- Node13 -->
<g id="node13" class="node">
<title>Node13</title>
<g id="a_node13"><a xlink:href="group__tools__drafting__dimension.html#gaef1a8150a8ef7be88e086fb3dbab64a9" target="_top" xlink:title="Construct a radial dimension line.">
<polygon fill="white" stroke="black" points="0.5,-38.5 0.5,-57.5 98.5,-57.5 98.5,-38.5 0.5,-38.5"/>
<text text-anchor="middle" x="49.5" y="-45.5" font-family="Helvetica,sans-Serif" font-size="10.00">draft_dim_radius</text>
</a>
</g>
</g>
<!-- Node1&#45;&gt;Node13 -->
<g id="edge23" class="edge">
<title>Node1&#45;&gt;Node13</title>
<path fill="none" stroke="midnightblue" d="M551.68,-126.18C540.28,-115.82 524.62,-102.87 509,-94 456.79,-64.37 442.03,-48 382,-48 382,-48 382,-48 268,-48 209.85,-48 142.95,-48 98.88,-48"/>
<polygon fill="midnightblue" stroke="midnightblue" points="549.47,-128.91 559.17,-133.18 554.25,-123.79 549.47,-128.91"/>
</g>
<!-- Node16 -->
<g id="node16" class="node">
<title>Node16</title>
<g id="a_node16"><a xlink:href="group__tools__drafting__operation.html#ga49aac81a903cd453ea9cadc85e84e414" target="_top" xlink:title="Construct a drafting sheet ruler.">
<polygon fill="white" stroke="black" points="16,-0.5 16,-19.5 83,-19.5 83,-0.5 16,-0.5"/>
<text text-anchor="middle" x="49.5" y="-7.5" font-family="Helvetica,sans-Serif" font-size="10.00">draft_ruler</text>
</a>
</g>
</g>
<!-- Node1&#45;&gt;Node16 -->
<g id="edge25" class="edge">
<title>Node1&#45;&gt;Node16</title>
<path fill="none" stroke="midnightblue" d="M559.46,-124.43C549.2,-106.09 531.32,-78.34 509,-61 460.97,-23.68 442.83,-10 382,-10 382,-10 382,-10 268,-10 202.49,-10 125.87,-10 83.29,-10"/>
<polygon fill="midnightblue" stroke="midnightblue" points="556.41,-126.15 564.23,-133.29 562.57,-122.83 556.41,-126.15"/>
</g>
<!-- Node3 -->
<g id="node3" class="node">
<title>Node3</title>
<g id="a_node3"><a xlink:href="group__tools__align.html#ga3f7b93a4934de605058ca07f0c22d688" target="_top" xlink:title="Align an objects Cartesian axis to reference line or vector.">
<polygon fill="white" stroke="black" points="353.5,-190.5 353.5,-209.5 408.5,-209.5 408.5,-190.5 353.5,-190.5"/>
<text text-anchor="middle" x="381" y="-197.5" font-family="Helvetica,sans-Serif" font-size="10.00">align_al</text>
</a>
</g>
</g>
<!-- Node2&#45;&gt;Node3 -->
<g id="edge2" class="edge">
<title>Node2&#45;&gt;Node3</title>
<path fill="none" stroke="midnightblue" d="M446.65,-200C434.14,-200 420.29,-200 408.63,-200"/>
<polygon fill="midnightblue" stroke="midnightblue" points="446.77,-203.5 456.77,-200 446.77,-196.5 446.77,-203.5"/>
</g>
<!-- Node4 -->
<g id="node4" class="node">
<title>Node4</title>
<g id="a_node4"><a xlink:href="group__tools__drafting__primitive.html#ga4e7c5fa02dbc244702042067553a9225" target="_top" xlink:title="Draft a simple line from an initial to a terminal point.">
<polygon fill="white" stroke="black" points="341,-228.5 341,-247.5 421,-247.5 421,-228.5 341,-228.5"/>
<text text-anchor="middle" x="381" y="-235.5" font-family="Helvetica,sans-Serif" font-size="10.00">draft_line_pp</text>
</a>
</g>
</g>
<!-- Node2&#45;&gt;Node4 -->
<g id="edge3" class="edge">
<title>Node2&#45;&gt;Node4</title>
<path fill="none" stroke="midnightblue" d="M447.09,-213.26C433.97,-218.25 419.31,-223.82 407.23,-228.41"/>
<polygon fill="midnightblue" stroke="midnightblue" points="448.66,-216.41 456.77,-209.59 446.17,-209.87 448.66,-216.41"/>
</g>
<!-- Node5 -->
<g id="node5" class="node">
<title>Node5</title>
<g id="a_node5"><a xlink:href="group__tools__drafting__primitive.html#gaeb2a388d77f8e435b02c4235e7791eda" target="_top" xlink:title="Draft an arc with configurable style and optional arrowheads.">
<polygon fill="white" stroke="black" points="136.5,-266.5 136.5,-285.5 195.5,-285.5 195.5,-266.5 136.5,-266.5"/>
<text text-anchor="middle" x="166" y="-273.5" font-family="Helvetica,sans-Serif" font-size="10.00">draft_arc</text>
</a>
</g>
</g>
<!-- Node4&#45;&gt;Node5 -->
<g id="edge4" class="edge">
<title>Node4&#45;&gt;Node5</title>
<path fill="none" stroke="midnightblue" d="M330.56,-242.5C301.89,-245.58 265.2,-250.32 233,-257 220.62,-259.57 207.18,-263.26 195.68,-266.72"/>
<polygon fill="midnightblue" stroke="midnightblue" points="331.15,-245.96 340.73,-241.44 330.43,-238.99 331.15,-245.96"/>
</g>
<!-- Node4&#45;&gt;Node7 -->
<g id="edge6" class="edge">
<title>Node4&#45;&gt;Node7</title>
<path fill="none" stroke="midnightblue" d="M342.45,-250.97C327.8,-256.03 311.3,-261.73 297.75,-266.41"/>
<polygon fill="midnightblue" stroke="midnightblue" points="343.93,-254.16 352.24,-247.59 341.65,-247.55 343.93,-254.16"/>
</g>
<!-- Node4&#45;&gt;Node8 -->
<g id="edge18" class="edge">
<title>Node4&#45;&gt;Node8</title>
<path fill="none" stroke="midnightblue" d="M334.5,-225.82C293.07,-214.74 233.06,-198.68 197.25,-189.09"/>
<polygon fill="midnightblue" stroke="midnightblue" points="333.78,-229.26 344.35,-228.46 335.59,-222.49 333.78,-229.26"/>
</g>
<!-- Node5&#45;&gt;Node6 -->
<g id="edge5" class="edge">
<title>Node5&#45;&gt;Node6</title>
<path fill="none" stroke="midnightblue" d="M126.57,-288.76C111.06,-293.9 93.48,-299.74 79.13,-304.5"/>
<polygon fill="midnightblue" stroke="midnightblue" points="128.01,-291.96 136.4,-285.49 125.81,-285.32 128.01,-291.96"/>
</g>
<!-- Node7&#45;&gt;Node5 -->
<g id="edge7" class="edge">
<title>Node7&#45;&gt;Node5</title>
<path fill="none" stroke="midnightblue" d="M222.72,-276C213.51,-276 204.07,-276 195.63,-276"/>
<polygon fill="midnightblue" stroke="midnightblue" points="222.96,-279.5 232.96,-276 222.96,-272.5 222.96,-279.5"/>
</g>
<!-- Node7&#45;&gt;Node8 -->
<g id="edge8" class="edge">
<title>Node7&#45;&gt;Node8</title>
<path fill="none" stroke="midnightblue" d="M250.17,-259.23C228.98,-239.3 194.33,-206.71 177.22,-190.61"/>
<polygon fill="midnightblue" stroke="midnightblue" points="247.89,-261.89 257.57,-266.19 252.69,-256.79 247.89,-261.89"/>
</g>
<!-- Node8&#45;&gt;Node6 -->
<g id="edge10" class="edge">
<title>Node8&#45;&gt;Node6</title>
<path fill="none" stroke="midnightblue" d="M158.48,-200.18C149.05,-225.23 129.36,-268.92 99,-295 94.54,-298.83 89.22,-301.94 83.76,-304.45"/>
<polygon fill="midnightblue" stroke="midnightblue" points="161.8,-201.29 161.89,-190.7 155.21,-198.93 161.8,-201.29"/>
</g>
<!-- Node9 -->
<g id="node9" class="node">
<title>Node9</title>
<g id="a_node9"><a xlink:href="group__tools__drafting__operation.html#ga4e20419a6d4623f21c05179fc8b6df95" target="_top" xlink:title="Construct drafting sheet axes.">
<polygon fill="white" stroke="black" points="16,-228.5 16,-247.5 83,-247.5 83,-228.5 16,-228.5"/>
<text text-anchor="middle" x="49.5" y="-235.5" font-family="Helvetica,sans-Serif" font-size="10.00">draft_axes</text>
</a>
</g>
</g>
<!-- Node8&#45;&gt;Node9 -->
<g id="edge9" class="edge">
<title>Node8&#45;&gt;Node9</title>
<path fill="none" stroke="midnightblue" d="M141.12,-195.9C128.78,-203.3 113.34,-212.11 99,-219 91.99,-222.37 84.22,-225.62 76.98,-228.45"/>
<polygon fill="midnightblue" stroke="midnightblue" points="143.16,-198.76 149.88,-190.57 139.52,-192.78 143.16,-198.76"/>
</g>
<!-- Node10 -->
<g id="node10" class="node">
<title>Node10</title>
<g id="a_node10"><a xlink:href="group__tools__drafting__dimension.html#ga4866c090b81b437e2f1f707d28ad8ec7" target="_top" xlink:title="Construct a center mark dimension cross.">
<polygon fill="white" stroke="black" points="0,-190.5 0,-209.5 99,-209.5 99,-190.5 0,-190.5"/>
<text text-anchor="middle" x="49.5" y="-197.5" font-family="Helvetica,sans-Serif" font-size="10.00">draft_dim_center</text>
</a>
</g>
</g>
<!-- Node8&#45;&gt;Node10 -->
<g id="edge11" class="edge">
<title>Node8&#45;&gt;Node10</title>
<path fill="none" stroke="midnightblue" d="M124.85,-187.66C116.63,-189.03 107.9,-190.47 99.42,-191.88"/>
<polygon fill="midnightblue" stroke="midnightblue" points="125.62,-191.08 134.92,-185.99 124.48,-184.18 125.62,-191.08"/>
</g>
<!-- Node8&#45;&gt;Node11 -->
<g id="edge12" class="edge">
<title>Node8&#45;&gt;Node11</title>
<path fill="none" stroke="midnightblue" d="M141.12,-166.1C128.78,-158.7 113.34,-149.89 99,-143 91.99,-139.63 84.22,-136.38 76.98,-133.55"/>
<polygon fill="midnightblue" stroke="midnightblue" points="139.52,-169.22 149.88,-171.43 143.16,-163.24 139.52,-169.22"/>
</g>
<!-- Node8&#45;&gt;Node12 -->
<g id="edge13" class="edge">
<title>Node8&#45;&gt;Node12</title>
<path fill="none" stroke="midnightblue" d="M153.07,-162.77C141.15,-145.8 121.41,-120.81 99,-105 93.68,-101.25 87.52,-98.1 81.4,-95.52"/>
<polygon fill="midnightblue" stroke="midnightblue" points="150.33,-164.97 158.85,-171.26 156.11,-161.03 150.33,-164.97"/>
</g>
<!-- Node8&#45;&gt;Node13 -->
<g id="edge14" class="edge">
<title>Node8&#45;&gt;Node13</title>
<path fill="none" stroke="midnightblue" d="M158.48,-161.82C149.05,-136.77 129.36,-93.08 99,-67 94.54,-63.17 89.22,-60.06 83.76,-57.55"/>
<polygon fill="midnightblue" stroke="midnightblue" points="155.21,-163.07 161.89,-171.3 161.8,-160.71 155.21,-163.07"/>
</g>
<!-- Node14 -->
<g id="node14" class="node">
<title>Node14</title>
<g id="a_node14"><a xlink:href="group__tools__drafting__primitive.html#gada1e771ce89ef86b6241c43dc01bf62d" target="_top" xlink:title="Draft a polygon with configurable style.">
<polygon fill="white" stroke="black" points="8,-152.5 8,-171.5 91,-171.5 91,-152.5 8,-152.5"/>
<text text-anchor="middle" x="49.5" y="-159.5" font-family="Helvetica,sans-Serif" font-size="10.00">draft_polygon</text>
</a>
</g>
</g>
<!-- Node8&#45;&gt;Node14 -->
<g id="edge15" class="edge">
<title>Node8&#45;&gt;Node14</title>
<path fill="none" stroke="midnightblue" d="M124.8,-174.33C113.89,-172.52 102.08,-170.56 91.15,-168.74"/>
<polygon fill="midnightblue" stroke="midnightblue" points="124.48,-177.82 134.92,-176.01 125.62,-170.92 124.48,-177.82"/>
</g>
<!-- Node15 -->
<g id="node15" class="node">
<title>Node15</title>
<g id="a_node15"><a xlink:href="group__tools__drafting__primitive.html#ga20eb57e9d25186784df7428089e3a2ae" target="_top" xlink:title="Draft a rectangle with configurable style.">
<polygon fill="white" stroke="black" points="4.5,-266.5 4.5,-285.5 94.5,-285.5 94.5,-266.5 4.5,-266.5"/>
<text text-anchor="middle" x="49.5" y="-273.5" font-family="Helvetica,sans-Serif" font-size="10.00">draft_rectangle</text>
</a>
</g>
</g>
<!-- Node8&#45;&gt;Node15 -->
<g id="edge16" class="edge">
<title>Node8&#45;&gt;Node15</title>
<path fill="none" stroke="midnightblue" d="M153.07,-199.23C141.15,-216.2 121.41,-241.19 99,-257 93.68,-260.75 87.52,-263.9 81.4,-266.48"/>
<polygon fill="midnightblue" stroke="midnightblue" points="156.11,-200.97 158.85,-190.74 150.33,-197.03 156.11,-200.97"/>
</g>
<!-- Node8&#45;&gt;Node16 -->
<g id="edge17" class="edge">
<title>Node8&#45;&gt;Node16</title>
<path fill="none" stroke="midnightblue" d="M161.54,-161.48C154.92,-129.6 137.53,-66.16 99,-29 94.51,-24.67 88.91,-21.29 83.14,-18.67"/>
<polygon fill="midnightblue" stroke="midnightblue" points="158.11,-162.2 163.45,-171.35 164.99,-160.87 158.11,-162.2"/>
</g>
</g>
</svg>
