<?xml version="1.0" encoding="UTF-8" standalone="no"?>
<!DOCTYPE svg PUBLIC "-//W3C//DTD SVG 1.1//EN"
 "http://www.w3.org/Graphics/SVG/1.1/DTD/svg11.dtd">
<!-- Generated by graphviz version 2.43.0 (0)
 -->
<!-- Title: draft_ruler Pages: 1 -->
<svg width="781pt" height="741pt"
 viewBox="0.00 0.00 781.00 740.93" xmlns="http://www.w3.org/2000/svg" xmlns:xlink="http://www.w3.org/1999/xlink">
<g id="graph0" class="graph" transform="scale(1 1) rotate(0) translate(4 736.93)">
<title>draft_ruler</title>
<polygon fill="white" stroke="transparent" points="-4,4 -4,-736.93 777,-736.93 777,4 -4,4"/>
<!-- Node1 -->
<g id="node1" class="node">
<title>Node1</title>
<g id="a_node1"><a xlink:title="Construct a drafting sheet ruler.">
<polygon fill="#bfbfbf" stroke="black" points="0,-266.5 0,-285.5 67,-285.5 67,-266.5 0,-266.5"/>
<text text-anchor="middle" x="33.5" y="-273.5" font-family="Helvetica,sans-Serif" font-size="10.00">draft_ruler</text>
</a>
</g>
</g>
<!-- Node2 -->
<g id="node2" class="node">
<title>Node2</title>
<g id="a_node2"><a xlink:href="group__datatypes__iterable__operate.html#ga3d37c2b0067d1661724bd89955c8f6ce" target="_top" xlink:title="Return an element of an iterable when it exists or a default value otherwise.">
<polygon fill="white" stroke="black" points="443,-570.5 443,-589.5 522,-589.5 522,-570.5 443,-570.5"/>
<text text-anchor="middle" x="482.5" y="-577.5" font-family="Helvetica,sans-Serif" font-size="10.00">defined_e_or</text>
</a>
</g>
</g>
<!-- Node1&#45;&gt;Node2 -->
<g id="edge1" class="edge">
<title>Node1&#45;&gt;Node2</title>
<path fill="none" stroke="midnightblue" d="M38.28,-285.57C57.19,-331.94 146.62,-533.62 296,-599 345.82,-620.81 410.13,-605.81 448.47,-592.93"/>
<polygon fill="midnightblue" stroke="midnightblue" points="449.81,-596.16 458.09,-589.55 447.5,-589.56 449.81,-596.16"/>
</g>
<!-- Node3 -->
<g id="node3" class="node">
<title>Node3</title>
<g id="a_node3"><a xlink:href="group__tools__drafting__primitive.html#ga9e80066573c9e9b2b1cf6af71cf453b0" target="_top" xlink:title="Check if any identified layers are active.">
<polygon fill="white" stroke="black" points="115,-665.5 115,-684.5 248,-684.5 248,-665.5 115,-665.5"/>
<text text-anchor="middle" x="181.5" y="-672.5" font-family="Helvetica,sans-Serif" font-size="10.00">draft_layers_any_active</text>
</a>
</g>
</g>
<!-- Node1&#45;&gt;Node3 -->
<g id="edge2" class="edge">
<title>Node1&#45;&gt;Node3</title>
<path fill="none" stroke="midnightblue" d="M34.95,-285.74C37.58,-338.97 52.72,-594.31 103,-651 106.33,-654.75 110.23,-657.93 114.49,-660.61"/>
<polygon fill="midnightblue" stroke="midnightblue" points="113.16,-663.87 123.64,-665.46 116.44,-657.68 113.16,-663.87"/>
</g>
<!-- Node4 -->
<g id="node4" class="node">
<title>Node4</title>
<g id="a_node4"><a xlink:href="group__tools__drafting__primitive.html#ga060910368142d6371cf4f3f30be7561e" target="_top" xlink:title="Draft a line with configurable style and optional arrowheads.">
<polygon fill="white" stroke="black" points="150.5,-361.5 150.5,-380.5 212.5,-380.5 212.5,-361.5 150.5,-361.5"/>
<text text-anchor="middle" x="181.5" y="-368.5" font-family="Helvetica,sans-Serif" font-size="10.00">draft_line</text>
</a>
</g>
</g>
<!-- Node1&#45;&gt;Node4 -->
<g id="edge3" class="edge">
<title>Node1&#45;&gt;Node4</title>
<path fill="none" stroke="midnightblue" d="M49.3,-285.63C74.66,-302.13 126.61,-335.94 156.98,-355.7"/>
<polygon fill="midnightblue" stroke="midnightblue" points="155.37,-358.82 165.66,-361.34 159.19,-352.95 155.37,-358.82"/>
</g>
<!-- Node13 -->
<g id="node13" class="node">
<title>Node13</title>
<g id="a_node13"><a xlink:href="group__datatypes__euclidean.html#ga8115b05f16bcc197e3e339a65f4d3e49" target="_top" xlink:title="Return the initial point of a line or vector.">
<polygon fill="white" stroke="black" points="708.5,-608.5 708.5,-627.5 757.5,-627.5 757.5,-608.5 708.5,-608.5"/>
<text text-anchor="middle" x="733" y="-615.5" font-family="Helvetica,sans-Serif" font-size="10.00">line_ip</text>
</a>
</g>
</g>
<!-- Node1&#45;&gt;Node13 -->
<g id="edge43" class="edge">
<title>Node1&#45;&gt;Node13</title>
<path fill="none" stroke="midnightblue" d="M34.54,-285.54C35.01,-342.43 40.44,-636.55 103,-694 183.61,-768.02 239.06,-713 348.5,-713 348.5,-713 348.5,-713 483.5,-713 571.93,-713 667.08,-659.87 709.44,-633.07"/>
<polygon fill="midnightblue" stroke="midnightblue" points="711.37,-635.99 717.89,-627.63 707.58,-630.1 711.37,-635.99"/>
</g>
<!-- Node14 -->
<g id="node14" class="node">
<title>Node14</title>
<g id="a_node14"><a xlink:href="group__datatypes__euclidean.html#ga299bce4158dc8d0a7a8e7d9967b8ea4e" target="_top" xlink:title="Return the terminal point of a line or vector.">
<polygon fill="white" stroke="black" points="708,-190.5 708,-209.5 758,-209.5 758,-190.5 708,-190.5"/>
<text text-anchor="middle" x="733" y="-197.5" font-family="Helvetica,sans-Serif" font-size="10.00">line_tp</text>
</a>
</g>
</g>
<!-- Node1&#45;&gt;Node14 -->
<g id="edge44" class="edge">
<title>Node1&#45;&gt;Node14</title>
<path fill="none" stroke="midnightblue" d="M34.75,-266.19C36.13,-234.43 45.09,-133.72 103,-86 188.21,-15.79 238.09,-48 348.5,-48 348.5,-48 348.5,-48 483.5,-48 585.96,-48 681.88,-143.19 717.44,-182.91"/>
<polygon fill="midnightblue" stroke="midnightblue" points="714.87,-185.29 724.1,-190.49 720.13,-180.67 714.87,-185.29"/>
</g>
<!-- Node22 -->
<g id="node22" class="node">
<title>Node22</title>
<g id="a_node22"><a xlink:href="group__datatypes__euclidean.html#gaa686049dfa9296b441a12e225aa1537d" target="_top" xlink:title="Construct a 2 dimensional directed line.">
<polygon fill="white" stroke="black" points="446.5,-190.5 446.5,-209.5 518.5,-209.5 518.5,-190.5 446.5,-190.5"/>
<text text-anchor="middle" x="482.5" y="-197.5" font-family="Helvetica,sans-Serif" font-size="10.00">line2d_new</text>
</a>
</g>
</g>
<!-- Node1&#45;&gt;Node22 -->
<g id="edge42" class="edge">
<title>Node1&#45;&gt;Node22</title>
<path fill="none" stroke="midnightblue" d="M67.2,-266.49C116.38,-252.59 212.55,-226.96 296,-214 343.55,-206.62 398.58,-203.08 436.29,-201.42"/>
<polygon fill="midnightblue" stroke="midnightblue" points="436.59,-204.91 446.44,-201 436.3,-197.92 436.59,-204.91"/>
</g>
<!-- Node28 -->
<g id="node28" class="node">
<title>Node28</title>
<g id="a_node28"><a xlink:href="group__tools__drafting__primitive.html#ga9a4b6eb4b387537f7bc1cc6c4d8f4449" target="_top" xlink:title="Extrude 2D drafted constructions to 3D if configured.">
<polygon fill="white" stroke="black" points="103,-95.5 103,-114.5 260,-114.5 260,-95.5 103,-95.5"/>
<text text-anchor="middle" x="181.5" y="-102.5" font-family="Helvetica,sans-Serif" font-size="10.00">draft_make_3d_if_configured</text>
</a>
</g>
</g>
<!-- Node1&#45;&gt;Node28 -->
<g id="edge39" class="edge">
<title>Node1&#45;&gt;Node28</title>
<path fill="none" stroke="midnightblue" d="M37.48,-266.5C45.06,-243.58 67.1,-184.45 103,-148 115.13,-135.68 131.55,-125.89 146.15,-118.78"/>
<polygon fill="midnightblue" stroke="midnightblue" points="147.81,-121.87 155.42,-114.5 144.87,-115.52 147.81,-121.87"/>
</g>
<!-- Node29 -->
<g id="node29" class="node">
<title>Node29</title>
<g id="a_node29"><a xlink:href="group__units__length.html#ga4e8b3884a104d09e926928dcedd30d03" target="_top" xlink:title="Convert a value from from one units to another with dimensions.">
<polygon fill="white" stroke="black" points="158,-0.5 158,-19.5 205,-19.5 205,-0.5 158,-0.5"/>
<text text-anchor="middle" x="181.5" y="-7.5" font-family="Helvetica,sans-Serif" font-size="10.00">length</text>
</a>
</g>
</g>
<!-- Node1&#45;&gt;Node29 -->
<g id="edge41" class="edge">
<title>Node1&#45;&gt;Node29</title>
<path fill="none" stroke="midnightblue" d="M34.19,-266.09C33.59,-229.71 36.52,-102.13 103,-34 114.67,-22.04 132.16,-16.01 147.58,-12.99"/>
<polygon fill="midnightblue" stroke="midnightblue" points="148.51,-16.38 157.83,-11.33 147.4,-9.47 148.51,-16.38"/>
</g>
<!-- Node4&#45;&gt;Node2 -->
<g id="edge6" class="edge">
<title>Node4&#45;&gt;Node2</title>
<path fill="none" stroke="midnightblue" d="M194.8,-380.75C214.98,-396.38 256.8,-427.3 296,-447 341.09,-469.66 365.11,-451.67 403,-485 429.57,-508.37 414.55,-530.43 439,-556 442.34,-559.49 446.3,-562.62 450.43,-565.37"/>
<polygon fill="midnightblue" stroke="midnightblue" points="448.65,-568.38 459.04,-570.48 452.23,-562.36 448.65,-568.38"/>
</g>
<!-- Node5 -->
<g id="node5" class="node">
<title>Node5</title>
<g id="a_node5"><a xlink:href="group__datatypes__iterable__test.html#ga4dfc58aa5f208e103e622684db817ce6" target="_top" xlink:title="Test if all elements of an iterable value equal a comparison value.">
<polygon fill="white" stroke="black" points="319,-418.5 319,-437.5 380,-437.5 380,-418.5 319,-418.5"/>
<text text-anchor="middle" x="349.5" y="-425.5" font-family="Helvetica,sans-Serif" font-size="10.00">all_equal</text>
</a>
</g>
</g>
<!-- Node4&#45;&gt;Node5 -->
<g id="edge4" class="edge">
<title>Node4&#45;&gt;Node5</title>
<path fill="none" stroke="midnightblue" d="M210.28,-380.54C237.93,-390.03 280.55,-404.67 311.15,-415.17"/>
<polygon fill="midnightblue" stroke="midnightblue" points="310.03,-418.49 320.62,-418.43 312.3,-411.87 310.03,-418.49"/>
</g>
<!-- Node6 -->
<g id="node6" class="node">
<title>Node6</title>
<g id="a_node6"><a xlink:href="group__datatypes__euclidean.html#ga3d5c07c70f271bcf9144f50ce8620a89" target="_top" xlink:title="Compute the angle between two lines or vectors in a 3d or 2d&#45;space.">
<polygon fill="white" stroke="black" points="705.5,-513.5 705.5,-532.5 760.5,-532.5 760.5,-513.5 705.5,-513.5"/>
<text text-anchor="middle" x="733" y="-520.5" font-family="Helvetica,sans-Serif" font-size="10.00">angle_ll</text>
</a>
</g>
</g>
<!-- Node4&#45;&gt;Node6 -->
<g id="edge5" class="edge">
<title>Node4&#45;&gt;Node6</title>
<path fill="none" stroke="midnightblue" d="M212.87,-372.49C266.45,-375.72 374.76,-385.09 403,-409 440.01,-440.34 401.35,-481.43 439,-512 481.8,-546.75 506.99,-524.44 562,-528 607.93,-530.97 660.95,-528.47 695.4,-526.06"/>
<polygon fill="midnightblue" stroke="midnightblue" points="695.75,-529.55 705.47,-525.32 695.24,-522.56 695.75,-529.55"/>
</g>
<!-- Node7 -->
<g id="node7" class="node">
<title>Node7</title>
<g id="a_node7"><a xlink:href="group__tools__drafting__primitive.html#ga6f12ccd4c9de0a8ab887184911f39c8f" target="_top" xlink:title="Draft an arrowhead at the terminal point of a line.">
<polygon fill="white" stroke="black" points="313.5,-304.5 313.5,-323.5 385.5,-323.5 385.5,-304.5 313.5,-304.5"/>
<text text-anchor="middle" x="349.5" y="-311.5" font-family="Helvetica,sans-Serif" font-size="10.00">draft_arrow</text>
</a>
</g>
</g>
<!-- Node4&#45;&gt;Node7 -->
<g id="edge7" class="edge">
<title>Node4&#45;&gt;Node7</title>
<path fill="none" stroke="midnightblue" d="M210.28,-361.46C237.93,-351.97 280.55,-337.33 311.15,-326.83"/>
<polygon fill="midnightblue" stroke="midnightblue" points="312.3,-330.13 320.62,-323.57 310.03,-323.51 312.3,-330.13"/>
</g>
<!-- Node9 -->
<g id="node9" class="node">
<title>Node9</title>
<g id="a_node9"><a xlink:href="group__tools__drafting__config.html#gabb4fa7092928ba8803b550ac6d733f64" target="_top" xlink:title="Get drafting configuration default helper function.">
<polygon fill="white" stroke="black" points="562,-209.5 562,-228.5 657,-228.5 657,-209.5 562,-209.5"/>
<text text-anchor="middle" x="609.5" y="-216.5" font-family="Helvetica,sans-Serif" font-size="10.00">draft_get_config</text>
</a>
</g>
</g>
<!-- Node4&#45;&gt;Node9 -->
<g id="edge30" class="edge">
<title>Node4&#45;&gt;Node9</title>
<path fill="none" stroke="midnightblue" d="M186.48,-361.4C198.47,-333.68 237.15,-253.05 296,-214 382.05,-156.9 425.13,-158.89 526,-181 546.54,-185.5 568.06,-195.62 583.97,-204.29"/>
<polygon fill="midnightblue" stroke="midnightblue" points="582.66,-207.57 593.09,-209.43 586.1,-201.47 582.66,-207.57"/>
</g>
<!-- Node10 -->
<g id="node10" class="node">
<title>Node10</title>
<g id="a_node10"><a xlink:href="group__tools__drafting__primitive.html#ga4e7c5fa02dbc244702042067553a9225" target="_top" xlink:title="Draft a simple line from an initial to a terminal point.">
<polygon fill="white" stroke="black" points="442.5,-456.5 442.5,-475.5 522.5,-475.5 522.5,-456.5 442.5,-456.5"/>
<text text-anchor="middle" x="482.5" y="-463.5" font-family="Helvetica,sans-Serif" font-size="10.00">draft_line_pp</text>
</a>
</g>
</g>
<!-- Node4&#45;&gt;Node10 -->
<g id="edge31" class="edge">
<title>Node4&#45;&gt;Node10</title>
<path fill="none" stroke="midnightblue" d="M212.71,-362.61C257.94,-351.93 344.19,-338.96 403,-376 432.94,-394.86 413.38,-422.6 439,-447 440.62,-448.54 442.38,-449.97 444.24,-451.29"/>
<polygon fill="midnightblue" stroke="midnightblue" points="442.46,-454.31 452.84,-456.44 446.06,-448.3 442.46,-454.31"/>
</g>
<!-- Node4&#45;&gt;Node13 -->
<g id="edge33" class="edge">
<title>Node4&#45;&gt;Node13</title>
<path fill="none" stroke="midnightblue" d="M183.84,-380.61C189.47,-416.89 214.8,-546.24 296,-599 423.99,-682.17 620.54,-646.21 698.49,-627.11"/>
<polygon fill="midnightblue" stroke="midnightblue" points="699.41,-630.48 708.25,-624.65 697.7,-623.7 699.41,-630.48"/>
</g>
<!-- Node4&#45;&gt;Node14 -->
<g id="edge34" class="edge">
<title>Node4&#45;&gt;Node14</title>
<path fill="none" stroke="midnightblue" d="M184.28,-361.22C191.18,-326.62 219.63,-209.58 296,-164 429.26,-84.46 627.55,-154.82 702.17,-186.47"/>
<polygon fill="midnightblue" stroke="midnightblue" points="700.88,-189.73 711.45,-190.48 703.66,-183.3 700.88,-189.73"/>
</g>
<!-- Node4&#45;&gt;Node22 -->
<g id="edge32" class="edge">
<title>Node4&#45;&gt;Node22</title>
<path fill="none" stroke="midnightblue" d="M188.95,-361.41C204.58,-338.96 246.8,-282.6 296,-253 319.6,-238.8 389.41,-220.98 436.34,-210.04"/>
<polygon fill="midnightblue" stroke="midnightblue" points="437.31,-213.41 446.27,-207.75 435.74,-206.59 437.31,-213.41"/>
</g>
<!-- Node24 -->
<g id="node24" class="node">
<title>Node24</title>
<g id="a_node24"><a xlink:href="group__datatypes__iterable__operate.html#gadb933df06b10d64dda8823069bdc84b7" target="_top" xlink:title="Return a list of all n&#45;element sequential&#45;subsets of an iterable value.">
<polygon fill="white" stroke="black" points="442.5,-228.5 442.5,-247.5 522.5,-247.5 522.5,-228.5 442.5,-228.5"/>
<text text-anchor="middle" x="482.5" y="-235.5" font-family="Helvetica,sans-Serif" font-size="10.00">sequence_ns</text>
</a>
</g>
</g>
<!-- Node4&#45;&gt;Node24 -->
<g id="edge38" class="edge">
<title>Node4&#45;&gt;Node24</title>
<path fill="none" stroke="midnightblue" d="M194.38,-361.31C214.3,-345.48 256.17,-313.95 296,-295 340.27,-273.94 394.13,-258.41 432.39,-248.92"/>
<polygon fill="midnightblue" stroke="midnightblue" points="433.37,-252.29 442.26,-246.52 431.71,-245.48 433.37,-252.29"/>
</g>
<!-- Node25 -->
<g id="node25" class="node">
<title>Node25</title>
<g id="a_node25"><a xlink:href="group__datatypes__list__operate.html#gac9437fd7e3cb8797fa5e901b2ab6e58a" target="_top" xlink:title="Serially merge the elements of a list.">
<polygon fill="white" stroke="black" points="320,-570.5 320,-589.5 379,-589.5 379,-570.5 320,-570.5"/>
<text text-anchor="middle" x="349.5" y="-577.5" font-family="Helvetica,sans-Serif" font-size="10.00">merge_s</text>
</a>
</g>
</g>
<!-- Node4&#45;&gt;Node25 -->
<g id="edge35" class="edge">
<title>Node4&#45;&gt;Node25</title>
<path fill="none" stroke="midnightblue" d="M185.69,-380.87C196.22,-411.97 232.87,-508.92 296,-561 300.3,-564.55 305.32,-567.46 310.51,-569.84"/>
<polygon fill="midnightblue" stroke="midnightblue" points="309.35,-573.15 319.94,-573.58 311.93,-566.64 309.35,-573.15"/>
</g>
<!-- Node26 -->
<g id="node26" class="node">
<title>Node26</title>
<g id="a_node26"><a xlink:href="group__math__polygon.html#gad35e17240bf9f3e0de4481ec467d599f" target="_top" xlink:title="Compute coordinates along a line in 2D.">
<polygon fill="white" stroke="black" points="304.5,-532.5 304.5,-551.5 394.5,-551.5 394.5,-532.5 304.5,-532.5"/>
<text text-anchor="middle" x="349.5" y="-539.5" font-family="Helvetica,sans-Serif" font-size="10.00">polygon_line_p</text>
</a>
</g>
</g>
<!-- Node4&#45;&gt;Node26 -->
<g id="edge36" class="edge">
<title>Node4&#45;&gt;Node26</title>
<path fill="none" stroke="midnightblue" d="M187.17,-380.72C200.44,-407.35 240.99,-482.18 296,-523 298.49,-524.85 301.17,-526.53 303.97,-528.06"/>
<polygon fill="midnightblue" stroke="midnightblue" points="302.63,-531.29 313.16,-532.44 305.64,-524.98 302.63,-531.29"/>
</g>
<!-- Node27 -->
<g id="node27" class="node">
<title>Node27</title>
<g id="a_node27"><a xlink:href="group__math__polygon.html#ga6aea22d31f8f086c44c7241eee3ab4c2" target="_top" xlink:title="Compute coordinates for an n&#45;sided regular polygon in 2D.">
<polygon fill="white" stroke="black" points="296,-494.5 296,-513.5 403,-513.5 403,-494.5 296,-494.5"/>
<text text-anchor="middle" x="349.5" y="-501.5" font-family="Helvetica,sans-Serif" font-size="10.00">polygon_regular_p</text>
</a>
</g>
</g>
<!-- Node4&#45;&gt;Node27 -->
<g id="edge37" class="edge">
<title>Node4&#45;&gt;Node27</title>
<path fill="none" stroke="midnightblue" d="M190.45,-380.57C207.83,-401.02 251.26,-449.59 296,-480 301.44,-483.7 307.54,-487.08 313.61,-490.06"/>
<polygon fill="midnightblue" stroke="midnightblue" points="312.46,-493.38 323.01,-494.4 315.4,-487.03 312.46,-493.38"/>
</g>
<!-- Node7&#45;&gt;Node2 -->
<g id="edge10" class="edge">
<title>Node7&#45;&gt;Node2</title>
<path fill="none" stroke="midnightblue" d="M356.64,-323.68C367.15,-340.52 388.82,-376.54 403,-409 423.43,-455.75 416.35,-472.28 439,-518 446.85,-533.84 458.29,-550.28 467.33,-562.25"/>
<polygon fill="midnightblue" stroke="midnightblue" points="464.78,-564.67 473.67,-570.44 470.32,-560.39 464.78,-564.67"/>
</g>
<!-- Node7&#45;&gt;Node6 -->
<g id="edge8" class="edge">
<title>Node7&#45;&gt;Node6</title>
<path fill="none" stroke="midnightblue" d="M360.74,-323.61C372.43,-335.09 391.42,-355.33 403,-376 427.94,-420.51 399.66,-452.51 439,-485 477.27,-516.61 625.18,-522.15 695.05,-522.96"/>
<polygon fill="midnightblue" stroke="midnightblue" points="695.13,-526.46 705.16,-523.05 695.2,-519.46 695.13,-526.46"/>
</g>
<!-- Node8 -->
<g id="node8" class="node">
<title>Node8</title>
<g id="a_node8"><a xlink:href="group__datatypes__binary.html#ga7ce4ed94d9b389ff817ea219918b8732" target="_top" xlink:title="Test if a binary bit position of an integer value equals a test bit.">
<polygon fill="white" stroke="black" points="443,-342.5 443,-361.5 522,-361.5 522,-342.5 443,-342.5"/>
<text text-anchor="middle" x="482.5" y="-349.5" font-family="Helvetica,sans-Serif" font-size="10.00">binary_bit_is</text>
</a>
</g>
</g>
<!-- Node7&#45;&gt;Node8 -->
<g id="edge9" class="edge">
<title>Node7&#45;&gt;Node8</title>
<path fill="none" stroke="midnightblue" d="M383.56,-323.59C400.31,-328.45 420.86,-334.41 438.8,-339.61"/>
<polygon fill="midnightblue" stroke="midnightblue" points="437.87,-342.99 448.45,-342.41 439.82,-336.27 437.87,-342.99"/>
</g>
<!-- Node7&#45;&gt;Node9 -->
<g id="edge11" class="edge">
<title>Node7&#45;&gt;Node9</title>
<path fill="none" stroke="midnightblue" d="M383.9,-304.43C419.52,-293.93 477.37,-276.02 526,-257 544.36,-249.82 564.47,-240.58 580.24,-233.02"/>
<polygon fill="midnightblue" stroke="midnightblue" points="581.97,-236.07 589.44,-228.56 578.92,-229.77 581.97,-236.07"/>
</g>
<!-- Node7&#45;&gt;Node10 -->
<g id="edge12" class="edge">
<title>Node7&#45;&gt;Node10</title>
<path fill="none" stroke="midnightblue" d="M382.42,-323.58C389.98,-327.1 397.45,-331.8 403,-338 437.04,-376 404.8,-409.14 439,-447 440.19,-448.32 441.49,-449.55 442.88,-450.7"/>
<polygon fill="midnightblue" stroke="midnightblue" points="441.23,-453.81 451.49,-456.45 445.11,-447.99 441.23,-453.81"/>
</g>
<!-- Node7&#45;&gt;Node14 -->
<g id="edge27" class="edge">
<title>Node7&#45;&gt;Node14</title>
<path fill="none" stroke="midnightblue" d="M385.54,-310.43C421.26,-306.32 478.08,-298.48 526,-286 586.01,-270.38 600.13,-262.72 657,-238 673.31,-230.91 691.09,-221.96 705.25,-214.52"/>
<polygon fill="midnightblue" stroke="midnightblue" points="707.21,-217.44 714.4,-209.66 703.93,-211.26 707.21,-217.44"/>
</g>
<!-- Node20 -->
<g id="node20" class="node">
<title>Node20</title>
<g id="a_node20"><a xlink:href="group__tools__operation__cs.html#gafa05aca176d441020de53da835e3dd60" target="_top" xlink:title="Conditionally apply the convex hull transformation.">
<polygon fill="white" stroke="black" points="457.5,-418.5 457.5,-437.5 507.5,-437.5 507.5,-418.5 457.5,-418.5"/>
<text text-anchor="middle" x="482.5" y="-425.5" font-family="Helvetica,sans-Serif" font-size="10.00">hull_cs</text>
</a>
</g>
</g>
<!-- Node7&#45;&gt;Node20 -->
<g id="edge24" class="edge">
<title>Node7&#45;&gt;Node20</title>
<path fill="none" stroke="midnightblue" d="M380.44,-323.55C388.45,-327.15 396.64,-331.89 403,-338 428.52,-362.51 413.38,-384.6 439,-409 441.74,-411.61 444.89,-413.89 448.22,-415.89"/>
<polygon fill="midnightblue" stroke="midnightblue" points="446.77,-419.08 457.27,-420.53 449.96,-412.85 446.77,-419.08"/>
</g>
<!-- Node7&#45;&gt;Node22 -->
<g id="edge26" class="edge">
<title>Node7&#45;&gt;Node22</title>
<path fill="none" stroke="midnightblue" d="M358.72,-304.23C376.96,-282.72 420.66,-232.11 439,-219 441.34,-217.33 443.86,-215.75 446.45,-214.28"/>
<polygon fill="midnightblue" stroke="midnightblue" points="448.12,-217.35 455.42,-209.67 444.93,-211.12 448.12,-217.35"/>
</g>
<!-- Node23 -->
<g id="node23" class="node">
<title>Node23</title>
<g id="a_node23"><a xlink:href="group__math__polygon.html#ga0e085cf8ec515dccdeff907f84fdae55" target="_top" xlink:title="Compute coordinates of an arc with constant radius between two vectors in 2D.">
<polygon fill="white" stroke="black" points="439,-380.5 439,-399.5 526,-399.5 526,-380.5 439,-380.5"/>
<text text-anchor="middle" x="482.5" y="-387.5" font-family="Helvetica,sans-Serif" font-size="10.00">polygon_arc_p</text>
</a>
</g>
</g>
<!-- Node7&#45;&gt;Node23 -->
<g id="edge28" class="edge">
<title>Node7&#45;&gt;Node23</title>
<path fill="none" stroke="midnightblue" d="M375.65,-323.59C384.61,-327.49 394.56,-332.41 403,-338 421.09,-349.99 420.86,-359.08 439,-371 441.62,-372.72 444.42,-374.35 447.28,-375.89"/>
<polygon fill="midnightblue" stroke="midnightblue" points="446,-379.16 456.52,-380.44 449.1,-372.88 446,-379.16"/>
</g>
<!-- Node7&#45;&gt;Node24 -->
<g id="edge29" class="edge">
<title>Node7&#45;&gt;Node24</title>
<path fill="none" stroke="midnightblue" d="M374.36,-304.49C383.55,-300.47 394,-295.45 403,-290 420.33,-279.49 422.13,-273.24 439,-262 443.76,-258.83 448.97,-255.66 454.05,-252.72"/>
<polygon fill="midnightblue" stroke="midnightblue" points="455.95,-255.66 462.95,-247.7 452.52,-249.56 455.95,-255.66"/>
</g>
<!-- Node10&#45;&gt;Node9 -->
<g id="edge23" class="edge">
<title>Node10&#45;&gt;Node9</title>
<path fill="none" stroke="midnightblue" d="M513.42,-456.36C518.06,-453.87 522.48,-450.79 526,-447 540.91,-430.95 586.13,-290.21 602.5,-238.21"/>
<polygon fill="midnightblue" stroke="midnightblue" points="605.88,-239.12 605.54,-228.53 599.21,-237.03 605.88,-239.12"/>
</g>
<!-- Node11 -->
<g id="node11" class="node">
<title>Node11</title>
<g id="a_node11"><a xlink:href="group__tools__align.html#ga7a21147611850c6cae7e95d23417099b" target="_top" xlink:title="Align a line or vector to a reference line or vector.">
<polygon fill="white" stroke="black" points="583.5,-418.5 583.5,-437.5 635.5,-437.5 635.5,-418.5 583.5,-418.5"/>
<text text-anchor="middle" x="609.5" y="-425.5" font-family="Helvetica,sans-Serif" font-size="10.00">align_ll</text>
</a>
</g>
</g>
<!-- Node10&#45;&gt;Node11 -->
<g id="edge13" class="edge">
<title>Node10&#45;&gt;Node11</title>
<path fill="none" stroke="midnightblue" d="M515.04,-456.41C532.86,-450.99 555.17,-444.21 573.53,-438.63"/>
<polygon fill="midnightblue" stroke="midnightblue" points="574.71,-441.93 583.26,-435.67 572.68,-435.23 574.71,-441.93"/>
</g>
<!-- Node19 -->
<g id="node19" class="node">
<title>Node19</title>
<g id="a_node19"><a xlink:href="group__datatypes__euclidean.html#gaef5b930729755b4420098776467ac210" target="_top" xlink:title="Compute the distance between two points.">
<polygon fill="white" stroke="black" points="572,-456.5 572,-475.5 647,-475.5 647,-456.5 572,-456.5"/>
<text text-anchor="middle" x="609.5" y="-463.5" font-family="Helvetica,sans-Serif" font-size="10.00">distance_pp</text>
</a>
</g>
</g>
<!-- Node10&#45;&gt;Node19 -->
<g id="edge22" class="edge">
<title>Node10&#45;&gt;Node19</title>
<path fill="none" stroke="midnightblue" d="M522.71,-466C535.14,-466 549,-466 561.9,-466"/>
<polygon fill="midnightblue" stroke="midnightblue" points="561.99,-469.5 571.99,-466 561.99,-462.5 561.99,-469.5"/>
</g>
<!-- Node11&#45;&gt;Node6 -->
<g id="edge14" class="edge">
<title>Node11&#45;&gt;Node6</title>
<path fill="none" stroke="midnightblue" d="M635.73,-435.06C643.12,-437.94 650.85,-441.85 657,-447 679.96,-466.25 670.68,-484.01 693,-504 694.69,-505.51 696.51,-506.93 698.43,-508.25"/>
<polygon fill="midnightblue" stroke="midnightblue" points="696.81,-511.36 707.19,-513.48 700.39,-505.35 696.81,-511.36"/>
</g>
<!-- Node12 -->
<g id="node12" class="node">
<title>Node12</title>
<g id="a_node12"><a xlink:href="group__datatypes__euclidean.html#ga882329ee346d5a7f9d0877afd115c3de" target="_top" xlink:title="Compute the cross product of two lines or vectors in a 3d or 2d&#45;space.">
<polygon fill="white" stroke="black" points="706.5,-475.5 706.5,-494.5 759.5,-494.5 759.5,-475.5 706.5,-475.5"/>
<text text-anchor="middle" x="733" y="-482.5" font-family="Helvetica,sans-Serif" font-size="10.00">cross_ll</text>
</a>
</g>
</g>
<!-- Node11&#45;&gt;Node12 -->
<g id="edge15" class="edge">
<title>Node11&#45;&gt;Node12</title>
<path fill="none" stroke="midnightblue" d="M635.31,-437.61C642.38,-440.49 650.05,-443.75 657,-447 673.39,-454.65 676.87,-457.81 693,-466 696.19,-467.62 699.53,-469.29 702.87,-470.93"/>
<polygon fill="midnightblue" stroke="midnightblue" points="701.58,-474.2 712.1,-475.46 704.66,-467.91 701.58,-474.2"/>
</g>
<!-- Node11&#45;&gt;Node13 -->
<g id="edge16" class="edge">
<title>Node11&#45;&gt;Node13</title>
<path fill="none" stroke="midnightblue" d="M635.92,-434.14C643.49,-437.01 651.28,-441.13 657,-447 688.51,-479.33 674.66,-500.74 693,-542 701.89,-562.01 713.5,-584.22 721.73,-599.44"/>
<polygon fill="midnightblue" stroke="midnightblue" points="718.73,-601.24 726.6,-608.33 724.87,-597.88 718.73,-601.24"/>
</g>
<!-- Node11&#45;&gt;Node14 -->
<g id="edge17" class="edge">
<title>Node11&#45;&gt;Node14</title>
<path fill="none" stroke="midnightblue" d="M635.5,-422.1C643.22,-419.23 651.21,-415.05 657,-409 660.46,-405.39 707.69,-270.03 725.37,-219.11"/>
<polygon fill="midnightblue" stroke="midnightblue" points="728.7,-220.2 728.67,-209.6 722.09,-217.9 728.7,-220.2"/>
</g>
<!-- Node15 -->
<g id="node15" class="node">
<title>Node15</title>
<g id="a_node15"><a xlink:href="group__datatypes__list__operate.html#ga1088f9b09ff8ed12e2c844758f39c039" target="_top" xlink:title="Compute the mean/average of a list of numbers.">
<polygon fill="white" stroke="black" points="711,-437.5 711,-456.5 755,-456.5 755,-437.5 711,-437.5"/>
<text text-anchor="middle" x="733" y="-444.5" font-family="Helvetica,sans-Serif" font-size="10.00">mean</text>
</a>
</g>
</g>
<!-- Node11&#45;&gt;Node15 -->
<g id="edge18" class="edge">
<title>Node11&#45;&gt;Node15</title>
<path fill="none" stroke="midnightblue" d="M635.67,-431.94C654.62,-434.9 680.68,-438.97 700.92,-442.14"/>
<polygon fill="midnightblue" stroke="midnightblue" points="700.49,-445.61 710.91,-443.7 701.57,-438.7 700.49,-445.61"/>
</g>
<!-- Node16 -->
<g id="node16" class="node">
<title>Node16</title>
<g id="a_node16"><a xlink:href="group__datatypes__euclidean.html#ga78d67c74076bef2e80a95b1e9b6eb2d7" target="_top" xlink:title="Return 3d point unchanged or add a zeroed third dimension to 2d point.">
<polygon fill="white" stroke="black" points="696,-399.5 696,-418.5 770,-418.5 770,-399.5 696,-399.5"/>
<text text-anchor="middle" x="733" y="-406.5" font-family="Helvetica,sans-Serif" font-size="10.00">point_to_3d</text>
</a>
</g>
</g>
<!-- Node11&#45;&gt;Node16 -->
<g id="edge19" class="edge">
<title>Node11&#45;&gt;Node16</title>
<path fill="none" stroke="midnightblue" d="M635.67,-424.06C650.07,-421.81 668.57,-418.92 685.5,-416.27"/>
<polygon fill="midnightblue" stroke="midnightblue" points="686.46,-419.66 695.8,-414.66 685.37,-412.75 686.46,-419.66"/>
</g>
<!-- Node17 -->
<g id="node17" class="node">
<title>Node17</title>
<g id="a_node17"><a xlink:href="group__datatypes__list__operate.html#ga7b8e6f2bbfa72ae61e39377e5ca6b5be" target="_top" xlink:title="Select specified element from list or return a default.">
<polygon fill="white" stroke="black" points="703.5,-361.5 703.5,-380.5 762.5,-380.5 762.5,-361.5 703.5,-361.5"/>
<text text-anchor="middle" x="733" y="-368.5" font-family="Helvetica,sans-Serif" font-size="10.00">select_ci</text>
</a>
</g>
</g>
<!-- Node11&#45;&gt;Node17 -->
<g id="edge20" class="edge">
<title>Node11&#45;&gt;Node17</title>
<path fill="none" stroke="midnightblue" d="M635.31,-418.39C642.38,-415.51 650.05,-412.25 657,-409 673.39,-401.35 676.87,-398.19 693,-390 696.19,-388.38 699.53,-386.71 702.87,-385.07"/>
<polygon fill="midnightblue" stroke="midnightblue" points="704.66,-388.09 712.1,-380.54 701.58,-381.8 704.66,-388.09"/>
</g>
<!-- Node18 -->
<g id="node18" class="node">
<title>Node18</title>
<g id="a_node18"><a xlink:href="group__datatypes__euclidean.html#ga6ef2a81f304d31b9ec9753ca4875ad45" target="_top" xlink:title="Convert line to vector by shifting it to the origin.">
<polygon fill="white" stroke="black" points="693,-323.5 693,-342.5 773,-342.5 773,-323.5 693,-323.5"/>
<text text-anchor="middle" x="733" y="-330.5" font-family="Helvetica,sans-Serif" font-size="10.00">vol_to_origin</text>
</a>
</g>
</g>
<!-- Node11&#45;&gt;Node18 -->
<g id="edge21" class="edge">
<title>Node11&#45;&gt;Node18</title>
<path fill="none" stroke="midnightblue" d="M635.73,-420.94C643.12,-418.06 650.85,-414.15 657,-409 679.96,-389.75 670.68,-371.99 693,-352 694.69,-350.49 696.51,-349.07 698.43,-347.75"/>
<polygon fill="midnightblue" stroke="midnightblue" points="700.39,-350.65 707.19,-342.52 696.81,-344.64 700.39,-350.65"/>
</g>
<!-- Node21 -->
<g id="node21" class="node">
<title>Node21</title>
<g id="a_node21"><a xlink:href="group__datatypes__scalar__test.html#ga51d7fdb800c10f4b7479d23b89ab8d22" target="_top" xlink:title="Test if a value is defined.">
<polygon fill="white" stroke="black" points="576.5,-380.5 576.5,-399.5 642.5,-399.5 642.5,-380.5 576.5,-380.5"/>
<text text-anchor="middle" x="609.5" y="-387.5" font-family="Helvetica,sans-Serif" font-size="10.00">is_defined</text>
</a>
</g>
</g>
<!-- Node20&#45;&gt;Node21 -->
<g id="edge25" class="edge">
<title>Node20&#45;&gt;Node21</title>
<path fill="none" stroke="midnightblue" d="M507.6,-420.67C524.47,-415.54 547.44,-408.56 567.2,-402.55"/>
<polygon fill="midnightblue" stroke="midnightblue" points="568.35,-405.86 576.9,-399.61 566.31,-399.17 568.35,-405.86"/>
</g>
<!-- Node28&#45;&gt;Node9 -->
<g id="edge40" class="edge">
<title>Node28&#45;&gt;Node9</title>
<path fill="none" stroke="midnightblue" d="M260.26,-102.15C332.19,-102.38 440.57,-110.1 526,-148 553.51,-160.2 578.71,-184.7 593.84,-201.47"/>
<polygon fill="midnightblue" stroke="midnightblue" points="591.58,-204.2 600.79,-209.43 596.85,-199.59 591.58,-204.2"/>
</g>
</g>
</svg>
