<?xml version="1.0" encoding="UTF-8" standalone="no"?>
<!DOCTYPE svg PUBLIC "-//W3C//DTD SVG 1.1//EN"
 "http://www.w3.org/Graphics/SVG/1.1/DTD/svg11.dtd">
<!-- Generated by graphviz version 2.43.0 (0)
 -->
<!-- Title: draft_move Pages: 1 -->
<svg width="237pt" height="142pt"
 viewBox="0.00 0.00 237.00 142.00" xmlns="http://www.w3.org/2000/svg" xmlns:xlink="http://www.w3.org/1999/xlink">
<g id="graph0" class="graph" transform="scale(1 1) rotate(0) translate(4 138)">
<title>draft_move</title>
<polygon fill="white" stroke="transparent" points="-4,4 -4,-138 233,-138 233,4 -4,4"/>
<!-- Node1 -->
<g id="node1" class="node">
<title>Node1</title>
<g id="a_node1"><a xlink:title="Move one or more child objects to sheet a reference zone.">
<polygon fill="#bfbfbf" stroke="black" points="0,-57.5 0,-76.5 72,-76.5 72,-57.5 0,-57.5"/>
<text text-anchor="middle" x="36" y="-64.5" font-family="Helvetica,sans-Serif" font-size="10.00">draft_move</text>
</a>
</g>
</g>
<!-- Node2 -->
<g id="node2" class="node">
<title>Node2</title>
<g id="a_node2"><a xlink:href="group__datatypes__iterable__test.html#ga2b8992c7b08651052cac8f5c4d2b4e7d" target="_top" xlink:title="Test if all elements of an iterable value are numbers.">
<polygon fill="white" stroke="black" points="130,-114.5 130,-133.5 207,-133.5 207,-114.5 130,-114.5"/>
<text text-anchor="middle" x="168.5" y="-121.5" font-family="Helvetica,sans-Serif" font-size="10.00">all_numbers</text>
</a>
</g>
</g>
<!-- Node1&#45;&gt;Node2 -->
<g id="edge1" class="edge">
<title>Node1&#45;&gt;Node2</title>
<path fill="none" stroke="midnightblue" d="M52.94,-76.62C67.07,-84.88 88.43,-96.72 108,-105 113.12,-107.17 118.57,-109.23 124.02,-111.14"/>
<polygon fill="midnightblue" stroke="midnightblue" points="123.16,-114.54 133.75,-114.4 125.39,-107.9 123.16,-114.54"/>
</g>
<!-- Node3 -->
<g id="node3" class="node">
<title>Node3</title>
<g id="a_node3"><a xlink:href="group__datatypes__iterable__test.html#gaf03535690f739eafba1a4cd1b56b4651" target="_top" xlink:title="Test if all elements of an iterable value are strings.">
<polygon fill="white" stroke="black" points="135,-76.5 135,-95.5 202,-95.5 202,-76.5 135,-76.5"/>
<text text-anchor="middle" x="168.5" y="-83.5" font-family="Helvetica,sans-Serif" font-size="10.00">all_strings</text>
</a>
</g>
</g>
<!-- Node1&#45;&gt;Node3 -->
<g id="edge2" class="edge">
<title>Node1&#45;&gt;Node3</title>
<path fill="none" stroke="midnightblue" d="M72.32,-72.14C88.44,-74.49 107.69,-77.29 124.64,-79.76"/>
<polygon fill="midnightblue" stroke="midnightblue" points="124.44,-83.27 134.84,-81.25 125.45,-76.34 124.44,-83.27"/>
</g>
<!-- Node4 -->
<g id="node4" class="node">
<title>Node4</title>
<g id="a_node4"><a xlink:href="group__datatypes__scalar__operate.html#gac119300e8c83de0037f2d0a4d9f0ab5c" target="_top" xlink:title="Return given value, if defined, or a secondary value, if primary is not defined.">
<polygon fill="white" stroke="black" points="134.5,-38.5 134.5,-57.5 202.5,-57.5 202.5,-38.5 134.5,-38.5"/>
<text text-anchor="middle" x="168.5" y="-45.5" font-family="Helvetica,sans-Serif" font-size="10.00">defined_or</text>
</a>
</g>
</g>
<!-- Node1&#45;&gt;Node4 -->
<g id="edge3" class="edge">
<title>Node1&#45;&gt;Node4</title>
<path fill="none" stroke="midnightblue" d="M72.32,-61.86C88.32,-59.53 107.39,-56.75 124.24,-54.3"/>
<polygon fill="midnightblue" stroke="midnightblue" points="125.01,-57.72 134.4,-52.82 124,-50.8 125.01,-57.72"/>
</g>
<!-- Node5 -->
<g id="node5" class="node">
<title>Node5</title>
<g id="a_node5"><a xlink:href="group__tools__drafting__primitive.html#ga28775e787b106e31d3cbb4e9a41d3a81" target="_top" xlink:title="Get sheet, sheet&#45;frame, or sheet&#45;zone reference coordinates.">
<polygon fill="white" stroke="black" points="108,-0.5 108,-19.5 229,-19.5 229,-0.5 108,-0.5"/>
<text text-anchor="middle" x="168.5" y="-7.5" font-family="Helvetica,sans-Serif" font-size="10.00">draft_sheet_get_zone</text>
</a>
</g>
</g>
<!-- Node1&#45;&gt;Node5 -->
<g id="edge4" class="edge">
<title>Node1&#45;&gt;Node5</title>
<path fill="none" stroke="midnightblue" d="M52.94,-57.38C67.07,-49.12 88.43,-37.28 108,-29 113.12,-26.83 118.57,-24.77 124.02,-22.86"/>
<polygon fill="midnightblue" stroke="midnightblue" points="125.39,-26.1 133.75,-19.6 123.16,-19.46 125.39,-26.1"/>
</g>
</g>
</svg>
