<?xml version="1.0" encoding="UTF-8" standalone="no"?>
<!DOCTYPE svg PUBLIC "-//W3C//DTD SVG 1.1//EN"
 "http://www.w3.org/Graphics/SVG/1.1/DTD/svg11.dtd">
<!-- Generated by graphviz version 2.43.0 (0)
 -->
<!-- Title: select_ci Pages: 1 -->
<svg width="746pt" height="726pt"
 viewBox="0.00 0.00 746.00 726.00" xmlns="http://www.w3.org/2000/svg" xmlns:xlink="http://www.w3.org/1999/xlink">
<g id="graph0" class="graph" transform="scale(1 1) rotate(0) translate(4 722)">
<title>select_ci</title>
<polygon fill="white" stroke="transparent" points="-4,4 -4,-722 742,-722 742,4 -4,4"/>
<!-- Node1 -->
<g id="node1" class="node">
<title>Node1</title>
<g id="a_node1"><a xlink:title="Select specified element from list or return a default.">
<polygon fill="#bfbfbf" stroke="black" points="679,-247.5 679,-266.5 738,-266.5 738,-247.5 679,-247.5"/>
<text text-anchor="middle" x="708.5" y="-254.5" font-family="Helvetica,sans-Serif" font-size="10.00">select_ci</text>
</a>
</g>
</g>
<!-- Node2 -->
<g id="node2" class="node">
<title>Node2</title>
<g id="a_node2"><a xlink:href="group__tools__align.html#ga3f7b93a4934de605058ca07f0c22d688" target="_top" xlink:title="Align an objects Cartesian axis to reference line or vector.">
<polygon fill="white" stroke="black" points="385.5,-527.5 385.5,-546.5 440.5,-546.5 440.5,-527.5 385.5,-527.5"/>
<text text-anchor="middle" x="413" y="-534.5" font-family="Helvetica,sans-Serif" font-size="10.00">align_al</text>
</a>
</g>
</g>
<!-- Node1&#45;&gt;Node2 -->
<g id="edge1" class="edge">
<title>Node1&#45;&gt;Node2</title>
<path fill="none" stroke="midnightblue" d="M705.54,-276.86C699.65,-332.24 680.15,-486.35 643,-518 585.46,-567.03 487.62,-553.88 440.68,-543.74"/>
<polygon fill="midnightblue" stroke="midnightblue" points="709.05,-276.93 706.59,-266.63 702.09,-276.22 709.05,-276.93"/>
</g>
<!-- Node3 -->
<g id="node3" class="node">
<title>Node3</title>
<g id="a_node3"><a xlink:href="group__tools__align.html#ga7a21147611850c6cae7e95d23417099b" target="_top" xlink:title="Align a line or vector to a reference line or vector.">
<polygon fill="white" stroke="black" points="547,-489.5 547,-508.5 599,-508.5 599,-489.5 547,-489.5"/>
<text text-anchor="middle" x="573" y="-496.5" font-family="Helvetica,sans-Serif" font-size="10.00">align_ll</text>
</a>
</g>
</g>
<!-- Node1&#45;&gt;Node3 -->
<g id="edge2" class="edge">
<title>Node1&#45;&gt;Node3</title>
<path fill="none" stroke="midnightblue" d="M707.37,-276.88C706.01,-319.11 696.91,-418.5 643,-475 631.53,-487.02 613.73,-493.02 599.08,-496.02"/>
<polygon fill="midnightblue" stroke="midnightblue" points="710.87,-276.86 707.58,-266.79 703.87,-276.71 710.87,-276.86"/>
</g>
<!-- Node17 -->
<g id="node17" class="node">
<title>Node17</title>
<g id="a_node17"><a xlink:href="group__parts__3d__fastener__catch__latch.html#ga26a9933aa6d33599daab1be8d632c430" target="_top" xlink:title="A catch latch generator with configurable profile.">
<polygon fill="white" stroke="black" points="377,-413.5 377,-432.5 449,-432.5 449,-413.5 377,-413.5"/>
<text text-anchor="middle" x="413" y="-420.5" font-family="Helvetica,sans-Serif" font-size="10.00">catch_latch</text>
</a>
</g>
</g>
<!-- Node1&#45;&gt;Node17 -->
<g id="edge20" class="edge">
<title>Node1&#45;&gt;Node17</title>
<path fill="none" stroke="midnightblue" d="M701.8,-276.12C693.26,-301.39 674.66,-345.43 643,-369 585.01,-412.17 497.73,-421.46 449.4,-423.08"/>
<polygon fill="midnightblue" stroke="midnightblue" points="705.15,-277.15 704.86,-266.56 698.48,-275.02 705.15,-277.15"/>
</g>
<!-- Node18 -->
<g id="node18" class="node">
<title>Node18</title>
<g id="a_node18"><a xlink:href="group__parts__3d__fastener__hinges.html#ga1ffc82e0bbac466d1dc4fbe6c214b765" target="_top" xlink:title="A print&#45;in&#45;place bi&#45;fold hinge generator.">
<polygon fill="white" stroke="black" points="248.5,-394.5 248.5,-413.5 307.5,-413.5 307.5,-394.5 248.5,-394.5"/>
<text text-anchor="middle" x="278" y="-401.5" font-family="Helvetica,sans-Serif" font-size="10.00">hinge_bf</text>
</a>
</g>
</g>
<!-- Node1&#45;&gt;Node18 -->
<g id="edge21" class="edge">
<title>Node1&#45;&gt;Node18</title>
<path fill="none" stroke="midnightblue" d="M704.94,-276.57C699.62,-309.01 684.19,-373.66 643,-407 544.15,-487.02 483.06,-469.97 359,-442 334.85,-436.56 309.43,-422.93 293.9,-413.57"/>
<polygon fill="midnightblue" stroke="midnightblue" points="708.43,-276.95 706.43,-266.54 701.5,-275.92 708.43,-276.95"/>
</g>
<!-- Node19 -->
<g id="node19" class="node">
<title>Node19</title>
<g id="a_node19"><a xlink:href="group__parts__3d__fastener__hinges.html#ga7e350f2c55116094108b99dd8103fc04" target="_top" xlink:title="A print&#45;in&#45;place single&#45;fold hinge generator.">
<polygon fill="white" stroke="black" points="384,-375.5 384,-394.5 442,-394.5 442,-375.5 384,-375.5"/>
<text text-anchor="middle" x="413" y="-382.5" font-family="Helvetica,sans-Serif" font-size="10.00">hinge_sf</text>
</a>
</g>
</g>
<!-- Node1&#45;&gt;Node19 -->
<g id="edge22" class="edge">
<title>Node1&#45;&gt;Node19</title>
<path fill="none" stroke="midnightblue" d="M696.79,-275.44C685.62,-292.99 666.47,-318.76 643,-333 578.51,-372.11 487.64,-381.85 442.19,-384.24"/>
<polygon fill="midnightblue" stroke="midnightblue" points="699.93,-277.03 702.15,-266.67 693.95,-273.38 699.93,-277.03"/>
</g>
<!-- Node20 -->
<g id="node20" class="node">
<title>Node20</title>
<g id="a_node20"><a xlink:href="group__models__3d__motion__bearing__linear__lmxuu.html#gaee2c61ec287975e6d54ade77e3c8010c" target="_top" xlink:title="Linear motion bearing model.">
<polygon fill="white" stroke="black" points="533,-114.5 533,-133.5 613,-133.5 613,-114.5 533,-114.5"/>
<text text-anchor="middle" x="573" y="-121.5" font-family="Helvetica,sans-Serif" font-size="10.00">linear_lmxuu</text>
</a>
</g>
</g>
<!-- Node1&#45;&gt;Node20 -->
<g id="edge24" class="edge">
<title>Node1&#45;&gt;Node20</title>
<path fill="none" stroke="midnightblue" d="M701.77,-237.72C693.19,-212.2 674.54,-167.59 643,-143 634.38,-136.28 623.53,-131.93 613.01,-129.12"/>
<polygon fill="midnightblue" stroke="midnightblue" points="698.47,-238.9 704.84,-247.37 705.14,-236.78 698.47,-238.9"/>
</g>
<!-- Node21 -->
<g id="node21" class="node">
<title>Node21</title>
<g id="a_node21"><a xlink:href="group__parts__3d__motion__bearing__linear__rod.html#ga48399d5e708b4894494c69b2d1e88e26" target="_top" xlink:title="Transform 2d or 3d shape into a linear rod ball or sled bearing.">
<polygon fill="white" stroke="black" points="503,-76.5 503,-95.5 643,-95.5 643,-76.5 503,-76.5"/>
<text text-anchor="middle" x="573" y="-83.5" font-family="Helvetica,sans-Serif" font-size="10.00">make_bearing_linear_rod</text>
</a>
</g>
</g>
<!-- Node1&#45;&gt;Node21 -->
<g id="edge25" class="edge">
<title>Node1&#45;&gt;Node21</title>
<path fill="none" stroke="midnightblue" d="M704.67,-237.03C699,-204.49 683.13,-140.13 643,-105 638.61,-101.15 633.5,-98.08 628.09,-95.62"/>
<polygon fill="midnightblue" stroke="midnightblue" points="701.25,-237.79 706.28,-247.12 708.16,-236.69 701.25,-237.79"/>
</g>
<!-- Node22 -->
<g id="node22" class="node">
<title>Node22</title>
<g id="a_node22"><a xlink:href="group__parts__3d__enclosure__mounts.html#ga1a26f176e04863a2bf335960a52b39a8" target="_top" xlink:title="A screw mount slot with optional cover envelope.">
<polygon fill="white" stroke="black" points="360.5,-223.5 360.5,-242.5 465.5,-242.5 465.5,-223.5 360.5,-223.5"/>
<text text-anchor="middle" x="413" y="-230.5" font-family="Helvetica,sans-Serif" font-size="10.00">mount_screw_slot</text>
</a>
</g>
</g>
<!-- Node1&#45;&gt;Node22 -->
<g id="edge26" class="edge">
<title>Node1&#45;&gt;Node22</title>
<path fill="none" stroke="midnightblue" d="M668.72,-260.02C627.45,-262.53 560.31,-264.59 503,-257 482.22,-254.25 459.4,-248.03 442.07,-242.61"/>
<polygon fill="midnightblue" stroke="midnightblue" points="669.14,-263.5 678.89,-259.36 668.69,-256.51 669.14,-263.5"/>
</g>
<!-- Node24 -->
<g id="node24" class="node">
<title>Node24</title>
<g id="a_node24"><a xlink:href="group__models__3d__misc__omdl__logo.html#gab176f64dad7e83d4fb056be44b71f630" target="_top" xlink:title="Standard omdl logo.">
<polygon fill="white" stroke="black" points="379,-147.5 379,-166.5 447,-166.5 447,-147.5 379,-147.5"/>
<text text-anchor="middle" x="413" y="-154.5" font-family="Helvetica,sans-Serif" font-size="10.00">omdl_logo</text>
</a>
</g>
</g>
<!-- Node1&#45;&gt;Node24 -->
<g id="edge28" class="edge">
<title>Node1&#45;&gt;Node24</title>
<path fill="none" stroke="midnightblue" d="M685.21,-241.86C673.13,-234.18 657.7,-225.19 643,-219 641.85,-218.51 510.26,-182.98 447.1,-165.93"/>
<polygon fill="midnightblue" stroke="midnightblue" points="683.44,-244.88 693.73,-247.41 687.26,-239.02 683.44,-244.88"/>
</g>
<!-- Node25 -->
<g id="node25" class="node">
<title>Node25</title>
<g id="a_node25"><a xlink:href="group__parts__3d__computer__pci__bracket.html#gaf56631cf80d8e5f0b77736b17b94ecd9" target="_top" xlink:title="PCI slot cover and adapter card bracket generator.">
<polygon fill="white" stroke="black" points="537,-38.5 537,-57.5 609,-57.5 609,-38.5 537,-38.5"/>
<text text-anchor="middle" x="573" y="-45.5" font-family="Helvetica,sans-Serif" font-size="10.00">pci_bracket</text>
</a>
</g>
</g>
<!-- Node1&#45;&gt;Node25 -->
<g id="edge30" class="edge">
<title>Node1&#45;&gt;Node25</title>
<path fill="none" stroke="midnightblue" d="M706.63,-237.09C703.85,-198.52 692.15,-113.35 643,-67 633.87,-58.39 621.2,-53.62 609.21,-50.99"/>
<polygon fill="midnightblue" stroke="midnightblue" points="703.16,-237.69 707.24,-247.47 710.15,-237.28 703.16,-237.69"/>
</g>
<!-- Node26 -->
<g id="node26" class="node">
<title>Node26</title>
<g id="a_node26"><a xlink:href="group__parts__3d__enclosure__project__box__rectangle.html#ga6a5d093d732e65556c46252220f2c4b6" target="_top" xlink:title="A rectangular box maker for project boxes, enclosures and housings.">
<polygon fill="white" stroke="black" points="510.5,-152.5 510.5,-171.5 635.5,-171.5 635.5,-152.5 510.5,-152.5"/>
<text text-anchor="middle" x="573" y="-159.5" font-family="Helvetica,sans-Serif" font-size="10.00">project_box_rectangle</text>
</a>
</g>
</g>
<!-- Node1&#45;&gt;Node26 -->
<g id="edge31" class="edge">
<title>Node1&#45;&gt;Node26</title>
<path fill="none" stroke="midnightblue" d="M695.09,-238.84C683.34,-222.91 664.37,-200.12 643,-186 633.79,-179.92 622.88,-175.2 612.47,-171.61"/>
<polygon fill="midnightblue" stroke="midnightblue" points="692.48,-241.21 701.13,-247.32 698.18,-237.15 692.48,-241.21"/>
</g>
<!-- Node27 -->
<g id="node27" class="node">
<title>Node27</title>
<g id="a_node27"><a xlink:href="group__models__3d__motion__bearing__radial__ball.html#ga3e39cd35457c1ceb70a6bb0e55022ee1" target="_top" xlink:title="Radial ball bearing model.">
<polygon fill="white" stroke="black" points="539,-0.5 539,-19.5 607,-19.5 607,-0.5 539,-0.5"/>
<text text-anchor="middle" x="573" y="-7.5" font-family="Helvetica,sans-Serif" font-size="10.00">radial_ball</text>
</a>
</g>
</g>
<!-- Node1&#45;&gt;Node27 -->
<g id="edge33" class="edge">
<title>Node1&#45;&gt;Node27</title>
<path fill="none" stroke="midnightblue" d="M707.97,-237.12C707.88,-193.12 701.27,-86.86 643,-29 633.57,-19.63 619.96,-14.78 607.33,-12.3"/>
<polygon fill="midnightblue" stroke="midnightblue" points="704.47,-237.08 707.88,-247.12 711.47,-237.15 704.47,-237.08"/>
</g>
<!-- Node28 -->
<g id="node28" class="node">
<title>Node28</title>
<g id="a_node28"><a xlink:href="group__models__3d__fastener__screws.html#ga57dcfe1241e15eaa58ccd08891504a93" target="_top" xlink:title="Flat and beveled&#45;head fastener bore with nut, nut slot, and bore tolerance.">
<polygon fill="white" stroke="black" points="537,-304.5 537,-323.5 609,-323.5 609,-304.5 537,-304.5"/>
<text text-anchor="middle" x="573" y="-311.5" font-family="Helvetica,sans-Serif" font-size="10.00">screw_bore</text>
</a>
</g>
</g>
<!-- Node1&#45;&gt;Node28 -->
<g id="edge34" class="edge">
<title>Node1&#45;&gt;Node28</title>
<path fill="none" stroke="midnightblue" d="M681.2,-271.5C669.65,-277.59 655.83,-284.52 643,-290 630.52,-295.33 616.42,-300.4 604.23,-304.49"/>
<polygon fill="midnightblue" stroke="midnightblue" points="683.13,-274.44 690.29,-266.63 679.82,-268.26 683.13,-274.44"/>
</g>
<!-- Node32 -->
<g id="node32" class="node">
<title>Node32</title>
<g id="a_node32"><a xlink:href="group__models__3d__fastener__screws.html#gaad990187680f7ac947e555483d854bfa" target="_top" xlink:title="Gapped fastener bore with engagement cylinders for self&#45;forming threads.">
<polygon fill="white" stroke="black" points="528,-228.5 528,-247.5 618,-247.5 618,-228.5 528,-228.5"/>
<text text-anchor="middle" x="573" y="-235.5" font-family="Helvetica,sans-Serif" font-size="10.00">screw_bore_tsf</text>
</a>
</g>
</g>
<!-- Node1&#45;&gt;Node32 -->
<g id="edge44" class="edge">
<title>Node1&#45;&gt;Node32</title>
<path fill="none" stroke="midnightblue" d="M668.85,-251.5C652.97,-249.24 634.5,-246.61 618.09,-244.28"/>
<polygon fill="midnightblue" stroke="midnightblue" points="668.47,-254.98 678.86,-252.92 669.45,-248.05 668.47,-254.98"/>
</g>
<!-- Node3&#45;&gt;Node2 -->
<g id="edge3" class="edge">
<title>Node3&#45;&gt;Node2</title>
<path fill="none" stroke="midnightblue" d="M537.22,-507.36C508.16,-514.35 467.33,-524.17 440.77,-530.56"/>
<polygon fill="midnightblue" stroke="midnightblue" points="538.06,-510.76 546.96,-505.02 536.42,-503.96 538.06,-510.76"/>
</g>
<!-- Node4 -->
<g id="node4" class="node">
<title>Node4</title>
<g id="a_node4"><a xlink:href="group__tools__drafting__primitive.html#ga4e7c5fa02dbc244702042067553a9225" target="_top" xlink:title="Draft a simple line from an initial to a terminal point.">
<polygon fill="white" stroke="black" points="373,-489.5 373,-508.5 453,-508.5 453,-489.5 373,-489.5"/>
<text text-anchor="middle" x="413" y="-496.5" font-family="Helvetica,sans-Serif" font-size="10.00">draft_line_pp</text>
</a>
</g>
</g>
<!-- Node3&#45;&gt;Node4 -->
<g id="edge4" class="edge">
<title>Node3&#45;&gt;Node4</title>
<path fill="none" stroke="midnightblue" d="M536.89,-499C512.06,-499 478.76,-499 453.08,-499"/>
<polygon fill="midnightblue" stroke="midnightblue" points="536.96,-502.5 546.96,-499 536.96,-495.5 536.96,-502.5"/>
</g>
<!-- Node5 -->
<g id="node5" class="node">
<title>Node5</title>
<g id="a_node5"><a xlink:href="group__tools__drafting__primitive.html#gaeb2a388d77f8e435b02c4235e7791eda" target="_top" xlink:title="Draft an arc with configurable style and optional arrowheads.">
<polygon fill="white" stroke="black" points="136.5,-451.5 136.5,-470.5 195.5,-470.5 195.5,-451.5 136.5,-451.5"/>
<text text-anchor="middle" x="166" y="-458.5" font-family="Helvetica,sans-Serif" font-size="10.00">draft_arc</text>
</a>
</g>
</g>
<!-- Node4&#45;&gt;Node5 -->
<g id="edge5" class="edge">
<title>Node4&#45;&gt;Node5</title>
<path fill="none" stroke="midnightblue" d="M362.65,-487.65C349.79,-484.91 335.91,-482.16 323,-480 278.73,-472.59 226.94,-466.86 195.58,-463.71"/>
<polygon fill="midnightblue" stroke="midnightblue" points="362.2,-491.13 372.71,-489.82 363.68,-484.29 362.2,-491.13"/>
</g>
<!-- Node7 -->
<g id="node7" class="node">
<title>Node7</title>
<g id="a_node7"><a xlink:href="group__tools__drafting__primitive.html#ga6f12ccd4c9de0a8ab887184911f39c8f" target="_top" xlink:title="Draft an arrowhead at the terminal point of a line.">
<polygon fill="white" stroke="black" points="242,-489.5 242,-508.5 314,-508.5 314,-489.5 242,-489.5"/>
<text text-anchor="middle" x="278" y="-496.5" font-family="Helvetica,sans-Serif" font-size="10.00">draft_arrow</text>
</a>
</g>
</g>
<!-- Node4&#45;&gt;Node7 -->
<g id="edge7" class="edge">
<title>Node4&#45;&gt;Node7</title>
<path fill="none" stroke="midnightblue" d="M362.53,-499C346.5,-499 329.06,-499 314.28,-499"/>
<polygon fill="midnightblue" stroke="midnightblue" points="362.81,-502.5 372.81,-499 362.81,-495.5 362.81,-502.5"/>
</g>
<!-- Node8 -->
<g id="node8" class="node">
<title>Node8</title>
<g id="a_node8"><a xlink:href="group__tools__drafting__primitive.html#ga060910368142d6371cf4f3f30be7561e" target="_top" xlink:title="Draft a line with configurable style and optional arrowheads.">
<polygon fill="white" stroke="black" points="135,-527.5 135,-546.5 197,-546.5 197,-527.5 135,-527.5"/>
<text text-anchor="middle" x="166" y="-534.5" font-family="Helvetica,sans-Serif" font-size="10.00">draft_line</text>
</a>
</g>
</g>
<!-- Node4&#45;&gt;Node8 -->
<g id="edge19" class="edge">
<title>Node4&#45;&gt;Node8</title>
<path fill="none" stroke="midnightblue" d="M362.65,-510.35C349.79,-513.09 335.91,-515.84 323,-518 279.41,-525.29 228.52,-530.96 197.02,-534.15"/>
<polygon fill="midnightblue" stroke="midnightblue" points="363.68,-513.71 372.71,-508.18 362.2,-506.87 363.68,-513.71"/>
</g>
<!-- Node6 -->
<g id="node6" class="node">
<title>Node6</title>
<g id="a_node6"><a xlink:href="group__tools__drafting__dimension.html#ga6b8e17d22ac4a95d25a90be8a74c0689" target="_top" xlink:title="Construct a angular dimension arc.">
<polygon fill="white" stroke="black" points="2,-394.5 2,-413.5 97,-413.5 97,-394.5 2,-394.5"/>
<text text-anchor="middle" x="49.5" y="-401.5" font-family="Helvetica,sans-Serif" font-size="10.00">draft_dim_angle</text>
</a>
</g>
</g>
<!-- Node5&#45;&gt;Node6 -->
<g id="edge6" class="edge">
<title>Node5&#45;&gt;Node6</title>
<path fill="none" stroke="midnightblue" d="M141.12,-446.1C128.78,-438.7 113.34,-429.89 99,-423 91.99,-419.63 84.22,-416.38 76.98,-413.55"/>
<polygon fill="midnightblue" stroke="midnightblue" points="139.52,-449.22 149.88,-451.43 143.16,-443.24 139.52,-449.22"/>
</g>
<!-- Node7&#45;&gt;Node5 -->
<g id="edge8" class="edge">
<title>Node7&#45;&gt;Node5</title>
<path fill="none" stroke="midnightblue" d="M239.45,-486.03C224.8,-480.97 208.3,-475.27 194.75,-470.59"/>
<polygon fill="midnightblue" stroke="midnightblue" points="238.65,-489.45 249.24,-489.41 240.93,-482.84 238.65,-489.45"/>
</g>
<!-- Node7&#45;&gt;Node8 -->
<g id="edge9" class="edge">
<title>Node7&#45;&gt;Node8</title>
<path fill="none" stroke="midnightblue" d="M239.45,-511.97C224.8,-517.03 208.3,-522.73 194.75,-527.41"/>
<polygon fill="midnightblue" stroke="midnightblue" points="240.93,-515.16 249.24,-508.59 238.65,-508.55 240.93,-515.16"/>
</g>
<!-- Node8&#45;&gt;Node6 -->
<g id="edge11" class="edge">
<title>Node8&#45;&gt;Node6</title>
<path fill="none" stroke="midnightblue" d="M155.15,-518.47C138.82,-488.01 107.14,-429.99 99,-423 94.54,-419.17 89.22,-416.06 83.76,-413.55"/>
<polygon fill="midnightblue" stroke="midnightblue" points="152.06,-520.12 159.86,-527.3 158.24,-516.83 152.06,-520.12"/>
</g>
<!-- Node9 -->
<g id="node9" class="node">
<title>Node9</title>
<g id="a_node9"><a xlink:href="group__tools__drafting__operation.html#ga4e20419a6d4623f21c05179fc8b6df95" target="_top" xlink:title="Construct drafting sheet axes.">
<polygon fill="white" stroke="black" points="16,-622.5 16,-641.5 83,-641.5 83,-622.5 16,-622.5"/>
<text text-anchor="middle" x="49.5" y="-629.5" font-family="Helvetica,sans-Serif" font-size="10.00">draft_axes</text>
</a>
</g>
</g>
<!-- Node8&#45;&gt;Node9 -->
<g id="edge10" class="edge">
<title>Node8&#45;&gt;Node9</title>
<path fill="none" stroke="midnightblue" d="M153.07,-555.23C141.15,-572.2 121.41,-597.19 99,-613 93.68,-616.75 87.52,-619.9 81.4,-622.48"/>
<polygon fill="midnightblue" stroke="midnightblue" points="156.11,-556.97 158.85,-546.74 150.33,-553.03 156.11,-556.97"/>
</g>
<!-- Node10 -->
<g id="node10" class="node">
<title>Node10</title>
<g id="a_node10"><a xlink:href="group__tools__drafting__dimension.html#ga4866c090b81b437e2f1f707d28ad8ec7" target="_top" xlink:title="Construct a center mark dimension cross.">
<polygon fill="white" stroke="black" points="0,-584.5 0,-603.5 99,-603.5 99,-584.5 0,-584.5"/>
<text text-anchor="middle" x="49.5" y="-591.5" font-family="Helvetica,sans-Serif" font-size="10.00">draft_dim_center</text>
</a>
</g>
</g>
<!-- Node8&#45;&gt;Node10 -->
<g id="edge12" class="edge">
<title>Node8&#45;&gt;Node10</title>
<path fill="none" stroke="midnightblue" d="M141.12,-551.9C128.78,-559.3 113.34,-568.11 99,-575 91.99,-578.37 84.22,-581.62 76.98,-584.45"/>
<polygon fill="midnightblue" stroke="midnightblue" points="143.16,-554.76 149.88,-546.57 139.52,-548.78 143.16,-554.76"/>
</g>
<!-- Node11 -->
<g id="node11" class="node">
<title>Node11</title>
<g id="a_node11"><a xlink:href="group__tools__drafting__dimension.html#ga5c4915c4c4464c5cdaefd501c2de261d" target="_top" xlink:title="Construct a dimension leader line at a point.">
<polygon fill="white" stroke="black" points="0,-546.5 0,-565.5 99,-565.5 99,-546.5 0,-546.5"/>
<text text-anchor="middle" x="49.5" y="-553.5" font-family="Helvetica,sans-Serif" font-size="10.00">draft_dim_leader</text>
</a>
</g>
</g>
<!-- Node8&#45;&gt;Node11 -->
<g id="edge13" class="edge">
<title>Node8&#45;&gt;Node11</title>
<path fill="none" stroke="midnightblue" d="M124.85,-543.66C116.63,-545.03 107.9,-546.47 99.42,-547.88"/>
<polygon fill="midnightblue" stroke="midnightblue" points="125.62,-547.08 134.92,-541.99 124.48,-540.18 125.62,-547.08"/>
</g>
<!-- Node12 -->
<g id="node12" class="node">
<title>Node12</title>
<g id="a_node12"><a xlink:href="group__tools__drafting__dimension.html#ga27a35e94597435a74e22d76789e9be5e" target="_top" xlink:title="Construct a dimension line between two points.">
<polygon fill="white" stroke="black" points="6.5,-508.5 6.5,-527.5 92.5,-527.5 92.5,-508.5 6.5,-508.5"/>
<text text-anchor="middle" x="49.5" y="-515.5" font-family="Helvetica,sans-Serif" font-size="10.00">draft_dim_line</text>
</a>
</g>
</g>
<!-- Node8&#45;&gt;Node12 -->
<g id="edge14" class="edge">
<title>Node8&#45;&gt;Node12</title>
<path fill="none" stroke="midnightblue" d="M124.89,-530.34C114.53,-528.62 103.34,-526.77 92.87,-525.03"/>
<polygon fill="midnightblue" stroke="midnightblue" points="124.48,-533.82 134.92,-532.01 125.62,-526.92 124.48,-533.82"/>
</g>
<!-- Node13 -->
<g id="node13" class="node">
<title>Node13</title>
<g id="a_node13"><a xlink:href="group__tools__drafting__dimension.html#gaef1a8150a8ef7be88e086fb3dbab64a9" target="_top" xlink:title="Construct a radial dimension line.">
<polygon fill="white" stroke="black" points="0.5,-470.5 0.5,-489.5 98.5,-489.5 98.5,-470.5 0.5,-470.5"/>
<text text-anchor="middle" x="49.5" y="-477.5" font-family="Helvetica,sans-Serif" font-size="10.00">draft_dim_radius</text>
</a>
</g>
</g>
<!-- Node8&#45;&gt;Node13 -->
<g id="edge15" class="edge">
<title>Node8&#45;&gt;Node13</title>
<path fill="none" stroke="midnightblue" d="M141.12,-522.1C128.78,-514.7 113.34,-505.89 99,-499 91.99,-495.63 84.22,-492.38 76.98,-489.55"/>
<polygon fill="midnightblue" stroke="midnightblue" points="139.52,-525.22 149.88,-527.43 143.16,-519.24 139.52,-525.22"/>
</g>
<!-- Node14 -->
<g id="node14" class="node">
<title>Node14</title>
<g id="a_node14"><a xlink:href="group__tools__drafting__primitive.html#gada1e771ce89ef86b6241c43dc01bf62d" target="_top" xlink:title="Draft a polygon with configurable style.">
<polygon fill="white" stroke="black" points="8,-432.5 8,-451.5 91,-451.5 91,-432.5 8,-432.5"/>
<text text-anchor="middle" x="49.5" y="-439.5" font-family="Helvetica,sans-Serif" font-size="10.00">draft_polygon</text>
</a>
</g>
</g>
<!-- Node8&#45;&gt;Node14 -->
<g id="edge16" class="edge">
<title>Node8&#45;&gt;Node14</title>
<path fill="none" stroke="midnightblue" d="M153.07,-518.77C141.15,-501.8 121.41,-476.81 99,-461 93.68,-457.25 87.52,-454.1 81.4,-451.52"/>
<polygon fill="midnightblue" stroke="midnightblue" points="150.33,-520.97 158.85,-527.26 156.11,-517.03 150.33,-520.97"/>
</g>
<!-- Node15 -->
<g id="node15" class="node">
<title>Node15</title>
<g id="a_node15"><a xlink:href="group__tools__drafting__primitive.html#ga20eb57e9d25186784df7428089e3a2ae" target="_top" xlink:title="Draft a rectangle with configurable style.">
<polygon fill="white" stroke="black" points="4.5,-698.5 4.5,-717.5 94.5,-717.5 94.5,-698.5 4.5,-698.5"/>
<text text-anchor="middle" x="49.5" y="-705.5" font-family="Helvetica,sans-Serif" font-size="10.00">draft_rectangle</text>
</a>
</g>
</g>
<!-- Node8&#45;&gt;Node15 -->
<g id="edge17" class="edge">
<title>Node8&#45;&gt;Node15</title>
<path fill="none" stroke="midnightblue" d="M161.54,-556.52C154.92,-588.4 137.53,-651.84 99,-689 95.09,-692.77 90.36,-695.81 85.39,-698.27"/>
<polygon fill="midnightblue" stroke="midnightblue" points="164.99,-557.13 163.45,-546.65 158.11,-555.8 164.99,-557.13"/>
</g>
<!-- Node16 -->
<g id="node16" class="node">
<title>Node16</title>
<g id="a_node16"><a xlink:href="group__tools__drafting__operation.html#ga49aac81a903cd453ea9cadc85e84e414" target="_top" xlink:title="Construct a drafting sheet ruler.">
<polygon fill="white" stroke="black" points="16,-660.5 16,-679.5 83,-679.5 83,-660.5 16,-660.5"/>
<text text-anchor="middle" x="49.5" y="-667.5" font-family="Helvetica,sans-Serif" font-size="10.00">draft_ruler</text>
</a>
</g>
</g>
<!-- Node8&#45;&gt;Node16 -->
<g id="edge18" class="edge">
<title>Node8&#45;&gt;Node16</title>
<path fill="none" stroke="midnightblue" d="M158.48,-556.18C149.05,-581.23 129.36,-624.92 99,-651 94.34,-655.01 88.73,-658.23 83,-660.79"/>
<polygon fill="midnightblue" stroke="midnightblue" points="161.8,-557.29 161.89,-546.7 155.21,-554.93 161.8,-557.29"/>
</g>
<!-- Node19&#45;&gt;Node18 -->
<g id="edge23" class="edge">
<title>Node19&#45;&gt;Node18</title>
<path fill="none" stroke="midnightblue" d="M373.86,-390.45C352.77,-393.46 326.98,-397.15 307.62,-399.91"/>
<polygon fill="midnightblue" stroke="midnightblue" points="374.39,-393.91 383.79,-389.03 373.4,-386.98 374.39,-393.91"/>
</g>
<!-- Node23 -->
<g id="node23" class="node">
<title>Node23</title>
<g id="a_node23"><a xlink:href="group__parts__3d__enclosure__power__strip.html#ga191779dedf39e4fd769a8dc96b0f8c9e" target="_top" xlink:title="A power strip generator for single gang electrical receptacles.">
<polygon fill="white" stroke="black" points="233,-242.5 233,-261.5 323,-261.5 323,-242.5 233,-242.5"/>
<text text-anchor="middle" x="278" y="-249.5" font-family="Helvetica,sans-Serif" font-size="10.00">power_strip_sg</text>
</a>
</g>
</g>
<!-- Node22&#45;&gt;Node23 -->
<g id="edge27" class="edge">
<title>Node22&#45;&gt;Node23</title>
<path fill="none" stroke="midnightblue" d="M350.03,-241.85C340.94,-243.15 331.74,-244.47 323.11,-245.7"/>
<polygon fill="midnightblue" stroke="midnightblue" points="350.79,-245.28 360.2,-240.4 349.8,-238.35 350.79,-245.28"/>
</g>
<!-- Node24&#45;&gt;Node23 -->
<g id="edge29" class="edge">
<title>Node24&#45;&gt;Node23</title>
<path fill="none" stroke="midnightblue" d="M369.57,-170.38C365.9,-172.08 362.32,-173.95 359,-176 328.66,-194.68 300.18,-226.34 286.87,-242.25"/>
<polygon fill="midnightblue" stroke="midnightblue" points="370.92,-173.61 378.79,-166.51 368.21,-167.16 370.92,-173.61"/>
</g>
<!-- Node26&#45;&gt;Node23 -->
<g id="edge32" class="edge">
<title>Node26&#45;&gt;Node23</title>
<path fill="none" stroke="midnightblue" d="M528.98,-149.87C510.12,-145.15 487.63,-140.33 467,-138 419.3,-132.62 401.59,-115.86 359,-138 315.45,-160.64 290.66,-219.06 282.27,-242.28"/>
<polygon fill="midnightblue" stroke="midnightblue" points="528.2,-153.28 538.76,-152.39 529.94,-146.5 528.2,-153.28"/>
</g>
<!-- Node28&#45;&gt;Node17 -->
<g id="edge35" class="edge">
<title>Node28&#45;&gt;Node17</title>
<path fill="none" stroke="midnightblue" d="M555.93,-331.14C536.5,-351.02 502.03,-383.64 467,-404 460.66,-407.68 453.49,-410.84 446.51,-413.46"/>
<polygon fill="midnightblue" stroke="midnightblue" points="558.66,-333.35 563.07,-323.72 553.61,-328.5 558.66,-333.35"/>
</g>
<!-- Node28&#45;&gt;Node19 -->
<g id="edge38" class="edge">
<title>Node28&#45;&gt;Node19</title>
<path fill="none" stroke="midnightblue" d="M541.17,-327.85C509.94,-341.89 462.47,-363.22 435.22,-375.46"/>
<polygon fill="midnightblue" stroke="midnightblue" points="543,-330.87 550.69,-323.58 540.14,-324.48 543,-330.87"/>
</g>
<!-- Node28&#45;&gt;Node22 -->
<g id="edge40" class="edge">
<title>Node28&#45;&gt;Node22</title>
<path fill="none" stroke="midnightblue" d="M527.37,-302C518.93,-298.77 510.43,-294.8 503,-290 483.46,-277.38 486.48,-264.72 467,-252 461.27,-248.26 454.71,-245.14 448.21,-242.59"/>
<polygon fill="midnightblue" stroke="midnightblue" points="526.22,-305.3 536.82,-305.34 528.56,-298.7 526.22,-305.3"/>
</g>
<!-- Node28&#45;&gt;Node23 -->
<g id="edge43" class="edge">
<title>Node28&#45;&gt;Node23</title>
<path fill="none" stroke="midnightblue" d="M533.5,-326.22C489.6,-338 416.47,-350.95 359,-328 325.02,-314.43 297.21,-278.8 285.28,-261.59"/>
<polygon fill="midnightblue" stroke="midnightblue" points="534.52,-329.57 543.21,-323.51 532.64,-322.83 534.52,-329.57"/>
</g>
<!-- Node29 -->
<g id="node29" class="node">
<title>Node29</title>
<g id="a_node29"><a xlink:href="group__parts__3d__enclosure__clamps.html#ga8fd874789132e42e5470328d18560f1a" target="_top" xlink:title="A clamp, bushing, and/or grip for wire/hose wall penetrations.">
<polygon fill="white" stroke="black" points="381.5,-299.5 381.5,-318.5 444.5,-318.5 444.5,-299.5 381.5,-299.5"/>
<text text-anchor="middle" x="413" y="-306.5" font-family="Helvetica,sans-Serif" font-size="10.00">clamp_cg</text>
</a>
</g>
</g>
<!-- Node28&#45;&gt;Node29 -->
<g id="edge36" class="edge">
<title>Node28&#45;&gt;Node29</title>
<path fill="none" stroke="midnightblue" d="M526.82,-312.57C500.51,-311.74 468.04,-310.71 444.7,-309.97"/>
<polygon fill="midnightblue" stroke="midnightblue" points="526.83,-316.07 536.93,-312.89 527.05,-309.08 526.83,-316.07"/>
</g>
<!-- Node30 -->
<g id="node30" class="node">
<title>Node30</title>
<g id="a_node30"><a xlink:href="group__parts__3d__enclosure__mounts.html#ga0cbac43259ec43fff7785057277bcef3" target="_top" xlink:title="A screw mount post with screw bore and optional fins.">
<polygon fill="white" stroke="black" points="359,-185.5 359,-204.5 467,-204.5 467,-185.5 359,-185.5"/>
<text text-anchor="middle" x="413" y="-192.5" font-family="Helvetica,sans-Serif" font-size="10.00">mount_screw_post</text>
</a>
</g>
</g>
<!-- Node28&#45;&gt;Node30 -->
<g id="edge39" class="edge">
<title>Node28&#45;&gt;Node30</title>
<path fill="none" stroke="midnightblue" d="M550.81,-298.14C536.7,-287.19 518.06,-271.96 503,-257 485.32,-239.43 487.44,-228.26 467,-214 461.55,-210.2 455.25,-207.07 448.95,-204.54"/>
<polygon fill="midnightblue" stroke="midnightblue" points="548.87,-301.06 558.94,-304.36 553.13,-295.5 548.87,-301.06"/>
</g>
<!-- Node31 -->
<g id="node31" class="node">
<title>Node31</title>
<g id="a_node31"><a xlink:href="group__parts__3d__enclosure__mounts.html#gae1cc60f3ff242fb07c5a50d34be8c051" target="_top" xlink:title="A mount tab with screw hole and support brace.">
<polygon fill="white" stroke="black" points="361.5,-261.5 361.5,-280.5 464.5,-280.5 464.5,-261.5 361.5,-261.5"/>
<text text-anchor="middle" x="413" y="-268.5" font-family="Helvetica,sans-Serif" font-size="10.00">mount_screw_tab</text>
</a>
</g>
</g>
<!-- Node28&#45;&gt;Node31 -->
<g id="edge41" class="edge">
<title>Node28&#45;&gt;Node31</title>
<path fill="none" stroke="midnightblue" d="M527.04,-301.76C502.26,-295.02 471.96,-286.77 448.97,-280.52"/>
<polygon fill="midnightblue" stroke="midnightblue" points="526.37,-305.21 536.93,-304.46 528.2,-298.45 526.37,-305.21"/>
</g>
<!-- Node29&#45;&gt;Node23 -->
<g id="edge37" class="edge">
<title>Node29&#45;&gt;Node23</title>
<path fill="none" stroke="midnightblue" d="M374.08,-295.92C368.98,-294.01 363.84,-292.01 359,-290 337.7,-281.15 313.9,-269.62 297.83,-261.6"/>
<polygon fill="midnightblue" stroke="midnightblue" points="373.15,-299.31 383.75,-299.46 375.55,-292.74 373.15,-299.31"/>
</g>
<!-- Node31&#45;&gt;Node23 -->
<g id="edge42" class="edge">
<title>Node31&#45;&gt;Node23</title>
<path fill="none" stroke="midnightblue" d="M351.14,-262.31C341.66,-260.95 332.02,-259.57 323,-258.29"/>
<polygon fill="midnightblue" stroke="midnightblue" points="350.94,-265.81 361.34,-263.76 351.93,-258.88 350.94,-265.81"/>
</g>
<!-- Node32&#45;&gt;Node30 -->
<g id="edge45" class="edge">
<title>Node32&#45;&gt;Node30</title>
<path fill="none" stroke="midnightblue" d="M527.04,-225.76C502.26,-219.02 471.96,-210.77 448.97,-204.52"/>
<polygon fill="midnightblue" stroke="midnightblue" points="526.37,-229.21 536.93,-228.46 528.2,-222.45 526.37,-229.21"/>
</g>
</g>
</svg>
