<?xml version="1.0" encoding="UTF-8" standalone="no"?>
<!DOCTYPE svg PUBLIC "-//W3C//DTD SVG 1.1//EN"
 "http://www.w3.org/Graphics/SVG/1.1/DTD/svg11.dtd">
<!-- Generated by graphviz version 2.43.0 (0)
 -->
<!-- Title: pg_rectangle Pages: 1 -->
<svg width="375pt" height="180pt"
 viewBox="0.00 0.00 375.00 180.00" xmlns="http://www.w3.org/2000/svg" xmlns:xlink="http://www.w3.org/1999/xlink">
<g id="graph0" class="graph" transform="scale(1 1) rotate(0) translate(4 176)">
<title>pg_rectangle</title>
<polygon fill="white" stroke="transparent" points="-4,4 -4,-176 371,-176 371,4 -4,4"/>
<!-- Node1 -->
<g id="node1" class="node">
<title>Node1</title>
<g id="a_node1"><a xlink:title="A polygon rectangle with vertex rounding.">
<polygon fill="#bfbfbf" stroke="black" points="287,-76.5 287,-95.5 367,-95.5 367,-76.5 287,-76.5"/>
<text text-anchor="middle" x="327" y="-83.5" font-family="Helvetica,sans-Serif" font-size="10.00">pg_rectangle</text>
</a>
</g>
</g>
<!-- Node2 -->
<g id="node2" class="node">
<title>Node2</title>
<g id="a_node2"><a xlink:href="group__parts__3d__fastener__catch__latch.html#ga26a9933aa6d33599daab1be8d632c430" target="_top" xlink:title="A catch latch generator with configurable profile.">
<polygon fill="white" stroke="black" points="152.5,-152.5 152.5,-171.5 224.5,-171.5 224.5,-152.5 152.5,-152.5"/>
<text text-anchor="middle" x="188.5" y="-159.5" font-family="Helvetica,sans-Serif" font-size="10.00">catch_latch</text>
</a>
</g>
</g>
<!-- Node1&#45;&gt;Node2 -->
<g id="edge1" class="edge">
<title>Node1&#45;&gt;Node2</title>
<path fill="none" stroke="midnightblue" d="M307.96,-102.62C293.48,-115.21 272.16,-132.13 251,-143 242.85,-147.19 233.61,-150.64 224.82,-153.4"/>
<polygon fill="midnightblue" stroke="midnightblue" points="310.49,-105.06 315.63,-95.79 305.84,-99.83 310.49,-105.06"/>
</g>
<!-- Node3 -->
<g id="node3" class="node">
<title>Node3</title>
<g id="a_node3"><a xlink:href="group__parts__3d__fastener__hinges.html#ga7e350f2c55116094108b99dd8103fc04" target="_top" xlink:title="A print&#45;in&#45;place single&#45;fold hinge generator.">
<polygon fill="white" stroke="black" points="159.5,-114.5 159.5,-133.5 217.5,-133.5 217.5,-114.5 159.5,-114.5"/>
<text text-anchor="middle" x="188.5" y="-121.5" font-family="Helvetica,sans-Serif" font-size="10.00">hinge_sf</text>
</a>
</g>
</g>
<!-- Node1&#45;&gt;Node3 -->
<g id="edge2" class="edge">
<title>Node1&#45;&gt;Node3</title>
<path fill="none" stroke="midnightblue" d="M281.82,-98.3C260.68,-104.18 236.02,-111.05 217.5,-116.2"/>
<polygon fill="midnightblue" stroke="midnightblue" points="282.86,-101.64 291.56,-95.59 280.98,-94.9 282.86,-101.64"/>
</g>
<!-- Node5 -->
<g id="node5" class="node">
<title>Node5</title>
<g id="a_node5"><a xlink:href="group__parts__3d__enclosure__mounts.html#ga0cbac43259ec43fff7785057277bcef3" target="_top" xlink:title="A screw mount post with screw bore and optional fins.">
<polygon fill="white" stroke="black" points="134.5,-76.5 134.5,-95.5 242.5,-95.5 242.5,-76.5 134.5,-76.5"/>
<text text-anchor="middle" x="188.5" y="-83.5" font-family="Helvetica,sans-Serif" font-size="10.00">mount_screw_post</text>
</a>
</g>
</g>
<!-- Node1&#45;&gt;Node5 -->
<g id="edge4" class="edge">
<title>Node1&#45;&gt;Node5</title>
<path fill="none" stroke="midnightblue" d="M276.57,-86C265.53,-86 253.79,-86 242.61,-86"/>
<polygon fill="midnightblue" stroke="midnightblue" points="276.88,-89.5 286.88,-86 276.88,-82.5 276.88,-89.5"/>
</g>
<!-- Node6 -->
<g id="node6" class="node">
<title>Node6</title>
<g id="a_node6"><a xlink:href="group__parts__3d__enclosure__mounts.html#gae1cc60f3ff242fb07c5a50d34be8c051" target="_top" xlink:title="A mount tab with screw hole and support brace.">
<polygon fill="white" stroke="black" points="137,-38.5 137,-57.5 240,-57.5 240,-38.5 137,-38.5"/>
<text text-anchor="middle" x="188.5" y="-45.5" font-family="Helvetica,sans-Serif" font-size="10.00">mount_screw_tab</text>
</a>
</g>
</g>
<!-- Node1&#45;&gt;Node6 -->
<g id="edge5" class="edge">
<title>Node1&#45;&gt;Node6</title>
<path fill="none" stroke="midnightblue" d="M281.75,-73.68C263,-68.46 241.47,-62.47 223.93,-57.59"/>
<polygon fill="midnightblue" stroke="midnightblue" points="280.98,-77.1 291.56,-76.41 282.86,-70.36 280.98,-77.1"/>
</g>
<!-- Node8 -->
<g id="node8" class="node">
<title>Node8</title>
<g id="a_node8"><a xlink:href="group__parts__3d__enclosure__project__box__rectangle.html#ga6a5d093d732e65556c46252220f2c4b6" target="_top" xlink:title="A rectangular box maker for project boxes, enclosures and housings.">
<polygon fill="white" stroke="black" points="126,-0.5 126,-19.5 251,-19.5 251,-0.5 126,-0.5"/>
<text text-anchor="middle" x="188.5" y="-7.5" font-family="Helvetica,sans-Serif" font-size="10.00">project_box_rectangle</text>
</a>
</g>
</g>
<!-- Node1&#45;&gt;Node8 -->
<g id="edge7" class="edge">
<title>Node1&#45;&gt;Node8</title>
<path fill="none" stroke="midnightblue" d="M307.96,-69.38C293.48,-56.79 272.16,-39.87 251,-29 243.74,-25.27 235.63,-22.12 227.73,-19.53"/>
<polygon fill="midnightblue" stroke="midnightblue" points="305.84,-72.17 315.63,-76.21 310.49,-66.94 305.84,-72.17"/>
</g>
<!-- Node4 -->
<g id="node4" class="node">
<title>Node4</title>
<g id="a_node4"><a xlink:href="group__parts__3d__fastener__hinges.html#ga1ffc82e0bbac466d1dc4fbe6c214b765" target="_top" xlink:title="A print&#45;in&#45;place bi&#45;fold hinge generator.">
<polygon fill="white" stroke="black" points="15.5,-114.5 15.5,-133.5 74.5,-133.5 74.5,-114.5 15.5,-114.5"/>
<text text-anchor="middle" x="45" y="-121.5" font-family="Helvetica,sans-Serif" font-size="10.00">hinge_bf</text>
</a>
</g>
</g>
<!-- Node3&#45;&gt;Node4 -->
<g id="edge3" class="edge">
<title>Node3&#45;&gt;Node4</title>
<path fill="none" stroke="midnightblue" d="M148.92,-124C125.5,-124 96.1,-124 74.73,-124"/>
<polygon fill="midnightblue" stroke="midnightblue" points="149.21,-127.5 159.21,-124 149.21,-120.5 149.21,-127.5"/>
</g>
<!-- Node7 -->
<g id="node7" class="node">
<title>Node7</title>
<g id="a_node7"><a xlink:href="group__parts__3d__enclosure__power__strip.html#ga191779dedf39e4fd769a8dc96b0f8c9e" target="_top" xlink:title="A power strip generator for single gang electrical receptacles.">
<polygon fill="white" stroke="black" points="0,-19.5 0,-38.5 90,-38.5 90,-19.5 0,-19.5"/>
<text text-anchor="middle" x="45" y="-26.5" font-family="Helvetica,sans-Serif" font-size="10.00">power_strip_sg</text>
</a>
</g>
</g>
<!-- Node6&#45;&gt;Node7 -->
<g id="edge6" class="edge">
<title>Node6&#45;&gt;Node7</title>
<path fill="none" stroke="midnightblue" d="M126.66,-39.83C114.42,-38.19 101.78,-36.49 90.24,-34.94"/>
<polygon fill="midnightblue" stroke="midnightblue" points="126.44,-43.33 136.81,-41.19 127.37,-36.39 126.44,-43.33"/>
</g>
<!-- Node8&#45;&gt;Node7 -->
<g id="edge8" class="edge">
<title>Node8&#45;&gt;Node7</title>
<path fill="none" stroke="midnightblue" d="M115.9,-19.61C107.07,-20.8 98.26,-21.98 90.01,-23.09"/>
<polygon fill="midnightblue" stroke="midnightblue" points="116.4,-23.08 125.85,-18.28 115.47,-16.14 116.4,-23.08"/>
</g>
</g>
</svg>
