<?xml version="1.0" encoding="UTF-8" standalone="no"?>
<!DOCTYPE svg PUBLIC "-//W3C//DTD SVG 1.1//EN"
 "http://www.w3.org/Graphics/SVG/1.1/DTD/svg11.dtd">
<!-- Generated by graphviz version 2.43.0 (0)
 -->
<!-- Title: defined_eon_or Pages: 1 -->
<svg width="495pt" height="275pt"
 viewBox="0.00 0.00 495.00 275.00" xmlns="http://www.w3.org/2000/svg" xmlns:xlink="http://www.w3.org/1999/xlink">
<g id="graph0" class="graph" transform="scale(1 1) rotate(0) translate(4 271)">
<title>defined_eon_or</title>
<polygon fill="white" stroke="transparent" points="-4,4 -4,-271 491,-271 491,4 -4,4"/>
<!-- Node1 -->
<g id="node1" class="node">
<title>Node1</title>
<g id="a_node1"><a xlink:title="Return the list element or scalar numeric value, if either is defined, otherwise the default value.">
<polygon fill="#bfbfbf" stroke="black" points="396,-171.5 396,-190.5 487,-190.5 487,-171.5 396,-171.5"/>
<text text-anchor="middle" x="441.5" y="-178.5" font-family="Helvetica,sans-Serif" font-size="10.00">defined_eon_or</text>
</a>
</g>
</g>
<!-- Node2 -->
<g id="node2" class="node">
<title>Node2</title>
<g id="a_node2"><a xlink:href="group__parts__3d__fastener__hinges.html#ga1ffc82e0bbac466d1dc4fbe6c214b765" target="_top" xlink:title="A print&#45;in&#45;place bi&#45;fold hinge generator.">
<polygon fill="white" stroke="black" points="15.5,-247.5 15.5,-266.5 74.5,-266.5 74.5,-247.5 15.5,-247.5"/>
<text text-anchor="middle" x="45" y="-254.5" font-family="Helvetica,sans-Serif" font-size="10.00">hinge_bf</text>
</a>
</g>
</g>
<!-- Node1&#45;&gt;Node2 -->
<g id="edge1" class="edge">
<title>Node1&#45;&gt;Node2</title>
<path fill="none" stroke="midnightblue" d="M418.1,-196.12C402.41,-206.12 380.65,-218.84 360,-227 306.47,-248.16 291.17,-250.29 234,-257 177.92,-263.58 111.78,-261.27 74.79,-259.08"/>
<polygon fill="midnightblue" stroke="midnightblue" points="420.11,-198.99 426.58,-190.6 416.29,-193.12 420.11,-198.99"/>
</g>
<!-- Node3 -->
<g id="node3" class="node">
<title>Node3</title>
<g id="a_node3"><a xlink:href="group__parts__3d__fastener__hinges.html#ga7e350f2c55116094108b99dd8103fc04" target="_top" xlink:title="A print&#45;in&#45;place single&#45;fold hinge generator.">
<polygon fill="white" stroke="black" points="151,-228.5 151,-247.5 209,-247.5 209,-228.5 151,-228.5"/>
<text text-anchor="middle" x="180" y="-235.5" font-family="Helvetica,sans-Serif" font-size="10.00">hinge_sf</text>
</a>
</g>
</g>
<!-- Node1&#45;&gt;Node3 -->
<g id="edge2" class="edge">
<title>Node1&#45;&gt;Node3</title>
<path fill="none" stroke="midnightblue" d="M399.87,-193.38C387.16,-197.05 373.06,-200.9 360,-204 307.06,-216.56 244.46,-227.59 209.07,-233.48"/>
<polygon fill="midnightblue" stroke="midnightblue" points="401.09,-196.67 409.71,-190.51 399.13,-189.95 401.09,-196.67"/>
</g>
<!-- Node4 -->
<g id="node4" class="node">
<title>Node4</title>
<g id="a_node4"><a xlink:href="group__parts__3d__enclosure__mounts.html#ga0cbac43259ec43fff7785057277bcef3" target="_top" xlink:title="A screw mount post with screw bore and optional fins.">
<polygon fill="white" stroke="black" points="126,-190.5 126,-209.5 234,-209.5 234,-190.5 126,-190.5"/>
<text text-anchor="middle" x="180" y="-197.5" font-family="Helvetica,sans-Serif" font-size="10.00">mount_screw_post</text>
</a>
</g>
</g>
<!-- Node1&#45;&gt;Node4 -->
<g id="edge4" class="edge">
<title>Node1&#45;&gt;Node4</title>
<path fill="none" stroke="midnightblue" d="M385.82,-185C341.25,-188.27 278.67,-192.85 234.44,-196.09"/>
<polygon fill="midnightblue" stroke="midnightblue" points="386.17,-188.49 395.89,-184.27 385.66,-181.51 386.17,-188.49"/>
</g>
<!-- Node5 -->
<g id="node5" class="node">
<title>Node5</title>
<g id="a_node5"><a xlink:href="group__parts__3d__enclosure__mounts.html#ga1a26f176e04863a2bf335960a52b39a8" target="_top" xlink:title="A screw mount slot with optional cover envelope.">
<polygon fill="white" stroke="black" points="127.5,-0.5 127.5,-19.5 232.5,-19.5 232.5,-0.5 127.5,-0.5"/>
<text text-anchor="middle" x="180" y="-7.5" font-family="Helvetica,sans-Serif" font-size="10.00">mount_screw_slot</text>
</a>
</g>
</g>
<!-- Node1&#45;&gt;Node5 -->
<g id="edge5" class="edge">
<title>Node1&#45;&gt;Node5</title>
<path fill="none" stroke="midnightblue" d="M424.38,-163.79C408.76,-147.61 383.98,-123.22 360,-105 307.93,-65.44 293.07,-57.06 234,-29 226.67,-25.52 218.52,-22.3 210.86,-19.53"/>
<polygon fill="midnightblue" stroke="midnightblue" points="422.23,-166.6 431.66,-171.42 427.29,-161.77 422.23,-166.6"/>
</g>
<!-- Node7 -->
<g id="node7" class="node">
<title>Node7</title>
<g id="a_node7"><a xlink:href="group__models__3d__fastener__screws.html#ga57dcfe1241e15eaa58ccd08891504a93" target="_top" xlink:title="Flat and beveled&#45;head fastener bore with nut, nut slot, and bore tolerance.">
<polygon fill="white" stroke="black" points="279,-114.5 279,-133.5 351,-133.5 351,-114.5 279,-114.5"/>
<text text-anchor="middle" x="315" y="-121.5" font-family="Helvetica,sans-Serif" font-size="10.00">screw_bore</text>
</a>
</g>
</g>
<!-- Node1&#45;&gt;Node7 -->
<g id="edge7" class="edge">
<title>Node1&#45;&gt;Node7</title>
<path fill="none" stroke="midnightblue" d="M411.32,-166.94C396.08,-159.67 377.1,-150.72 360,-143 353.02,-139.85 345.38,-136.51 338.45,-133.52"/>
<polygon fill="midnightblue" stroke="midnightblue" points="410.21,-170.28 420.74,-171.44 413.23,-163.97 410.21,-170.28"/>
</g>
<!-- Node11 -->
<g id="node11" class="node">
<title>Node11</title>
<g id="a_node11"><a xlink:href="group__models__3d__fastener__screws.html#gaad990187680f7ac947e555483d854bfa" target="_top" xlink:title="Gapped fastener bore with engagement cylinders for self&#45;forming threads.">
<polygon fill="white" stroke="black" points="270,-152.5 270,-171.5 360,-171.5 360,-152.5 270,-152.5"/>
<text text-anchor="middle" x="315" y="-159.5" font-family="Helvetica,sans-Serif" font-size="10.00">screw_bore_tsf</text>
</a>
</g>
</g>
<!-- Node1&#45;&gt;Node11 -->
<g id="edge17" class="edge">
<title>Node1&#45;&gt;Node11</title>
<path fill="none" stroke="midnightblue" d="M385.96,-172.68C377.38,-171.37 368.6,-170.03 360.28,-168.76"/>
<polygon fill="midnightblue" stroke="midnightblue" points="385.49,-176.15 395.9,-174.19 386.55,-169.23 385.49,-176.15"/>
</g>
<!-- Node3&#45;&gt;Node2 -->
<g id="edge3" class="edge">
<title>Node3&#45;&gt;Node2</title>
<path fill="none" stroke="midnightblue" d="M140.86,-243.45C119.77,-246.46 93.98,-250.15 74.62,-252.91"/>
<polygon fill="midnightblue" stroke="midnightblue" points="141.39,-246.91 150.79,-242.03 140.4,-239.98 141.39,-246.91"/>
</g>
<!-- Node6 -->
<g id="node6" class="node">
<title>Node6</title>
<g id="a_node6"><a xlink:href="group__parts__3d__enclosure__power__strip.html#ga191779dedf39e4fd769a8dc96b0f8c9e" target="_top" xlink:title="A power strip generator for single gang electrical receptacles.">
<polygon fill="white" stroke="black" points="0,-95.5 0,-114.5 90,-114.5 90,-95.5 0,-95.5"/>
<text text-anchor="middle" x="45" y="-102.5" font-family="Helvetica,sans-Serif" font-size="10.00">power_strip_sg</text>
</a>
</g>
</g>
<!-- Node5&#45;&gt;Node6 -->
<g id="edge6" class="edge">
<title>Node5&#45;&gt;Node6</title>
<path fill="none" stroke="midnightblue" d="M136.57,-23.38C132.9,-25.08 129.32,-26.95 126,-29 95.66,-47.68 67.18,-79.34 53.87,-95.25"/>
<polygon fill="midnightblue" stroke="midnightblue" points="137.92,-26.61 145.79,-19.51 135.21,-20.16 137.92,-26.61"/>
</g>
<!-- Node7&#45;&gt;Node3 -->
<g id="edge11" class="edge">
<title>Node7&#45;&gt;Node3</title>
<path fill="none" stroke="midnightblue" d="M275.21,-138.69C273.36,-140.02 271.6,-141.45 270,-143 243.12,-168.97 261.69,-193.9 234,-219 227.05,-225.3 217.86,-229.55 209.08,-232.4"/>
<polygon fill="midnightblue" stroke="midnightblue" points="277.01,-141.69 283.79,-133.56 273.41,-135.68 277.01,-141.69"/>
</g>
<!-- Node7&#45;&gt;Node4 -->
<g id="edge12" class="edge">
<title>Node7&#45;&gt;Node4</title>
<path fill="none" stroke="midnightblue" d="M278.62,-138.01C275.64,-139.57 272.72,-141.24 270,-143 251.78,-154.8 252.11,-164.04 234,-176 225.49,-181.62 215.44,-186.54 206.4,-190.44"/>
<polygon fill="midnightblue" stroke="midnightblue" points="280.17,-141.15 287.67,-133.67 277.14,-134.84 280.17,-141.15"/>
</g>
<!-- Node7&#45;&gt;Node5 -->
<g id="edge13" class="edge">
<title>Node7&#45;&gt;Node5</title>
<path fill="none" stroke="midnightblue" d="M302.95,-105.79C289.23,-84.58 263.94,-49.81 234,-29 228.54,-25.21 222.25,-22.09 215.94,-19.55"/>
<polygon fill="midnightblue" stroke="midnightblue" points="300.13,-107.88 308.42,-114.48 306.06,-104.15 300.13,-107.88"/>
</g>
<!-- Node7&#45;&gt;Node6 -->
<g id="edge16" class="edge">
<title>Node7&#45;&gt;Node6</title>
<path fill="none" stroke="midnightblue" d="M271.54,-135.98C233.12,-145.01 175.21,-154.09 126,-143 101.85,-137.56 76.43,-123.93 60.9,-114.57"/>
<polygon fill="midnightblue" stroke="midnightblue" points="272.47,-139.35 281.35,-133.57 270.8,-132.56 272.47,-139.35"/>
</g>
<!-- Node8 -->
<g id="node8" class="node">
<title>Node8</title>
<g id="a_node8"><a xlink:href="group__parts__3d__fastener__catch__latch.html#ga26a9933aa6d33599daab1be8d632c430" target="_top" xlink:title="A catch latch generator with configurable profile.">
<polygon fill="white" stroke="black" points="144,-38.5 144,-57.5 216,-57.5 216,-38.5 144,-38.5"/>
<text text-anchor="middle" x="180" y="-45.5" font-family="Helvetica,sans-Serif" font-size="10.00">catch_latch</text>
</a>
</g>
</g>
<!-- Node7&#45;&gt;Node8 -->
<g id="edge8" class="edge">
<title>Node7&#45;&gt;Node8</title>
<path fill="none" stroke="midnightblue" d="M294.86,-108.07C279.24,-95.64 256.19,-78.6 234,-67 227.16,-63.42 219.49,-60.24 212.16,-57.56"/>
<polygon fill="midnightblue" stroke="midnightblue" points="292.75,-110.86 302.73,-114.43 297.16,-105.42 292.75,-110.86"/>
</g>
<!-- Node9 -->
<g id="node9" class="node">
<title>Node9</title>
<g id="a_node9"><a xlink:href="group__parts__3d__enclosure__clamps.html#ga8fd874789132e42e5470328d18560f1a" target="_top" xlink:title="A clamp, bushing, and/or grip for wire/hose wall penetrations.">
<polygon fill="white" stroke="black" points="148.5,-114.5 148.5,-133.5 211.5,-133.5 211.5,-114.5 148.5,-114.5"/>
<text text-anchor="middle" x="180" y="-121.5" font-family="Helvetica,sans-Serif" font-size="10.00">clamp_cg</text>
</a>
</g>
</g>
<!-- Node7&#45;&gt;Node9 -->
<g id="edge9" class="edge">
<title>Node7&#45;&gt;Node9</title>
<path fill="none" stroke="midnightblue" d="M268.63,-124C249.94,-124 228.77,-124 211.92,-124"/>
<polygon fill="midnightblue" stroke="midnightblue" points="268.71,-127.5 278.71,-124 268.71,-120.5 268.71,-127.5"/>
</g>
<!-- Node10 -->
<g id="node10" class="node">
<title>Node10</title>
<g id="a_node10"><a xlink:href="group__parts__3d__enclosure__mounts.html#gae1cc60f3ff242fb07c5a50d34be8c051" target="_top" xlink:title="A mount tab with screw hole and support brace.">
<polygon fill="white" stroke="black" points="128.5,-76.5 128.5,-95.5 231.5,-95.5 231.5,-76.5 128.5,-76.5"/>
<text text-anchor="middle" x="180" y="-83.5" font-family="Helvetica,sans-Serif" font-size="10.00">mount_screw_tab</text>
</a>
</g>
</g>
<!-- Node7&#45;&gt;Node10 -->
<g id="edge14" class="edge">
<title>Node7&#45;&gt;Node10</title>
<path fill="none" stroke="midnightblue" d="M270.63,-111.61C252.42,-106.41 231.56,-100.45 214.55,-95.59"/>
<polygon fill="midnightblue" stroke="midnightblue" points="269.86,-115.03 280.44,-114.41 271.78,-108.3 269.86,-115.03"/>
</g>
<!-- Node9&#45;&gt;Node6 -->
<g id="edge10" class="edge">
<title>Node9&#45;&gt;Node6</title>
<path fill="none" stroke="midnightblue" d="M138.34,-118.19C123.12,-116.02 105.77,-113.54 90.24,-111.32"/>
<polygon fill="midnightblue" stroke="midnightblue" points="138.09,-121.69 148.49,-119.64 139.08,-114.76 138.09,-121.69"/>
</g>
<!-- Node10&#45;&gt;Node6 -->
<g id="edge15" class="edge">
<title>Node10&#45;&gt;Node6</title>
<path fill="none" stroke="midnightblue" d="M118.14,-94.69C108.66,-96.05 99.02,-97.43 90,-98.71"/>
<polygon fill="midnightblue" stroke="midnightblue" points="118.93,-98.12 128.34,-93.24 117.94,-91.19 118.93,-98.12"/>
</g>
<!-- Node11&#45;&gt;Node4 -->
<g id="edge18" class="edge">
<title>Node11&#45;&gt;Node4</title>
<path fill="none" stroke="midnightblue" d="M270.63,-174.39C252.42,-179.59 231.56,-185.55 214.55,-190.41"/>
<polygon fill="midnightblue" stroke="midnightblue" points="271.78,-177.7 280.44,-171.59 269.86,-170.97 271.78,-177.7"/>
</g>
</g>
</svg>
