<?xml version="1.0" encoding="UTF-8" standalone="no"?>
<!DOCTYPE svg PUBLIC "-//W3C//DTD SVG 1.1//EN"
 "http://www.w3.org/Graphics/SVG/1.1/DTD/svg11.dtd">
<!-- Generated by graphviz version 2.43.0 (0)
 -->
<!-- Title: ellipse_c Pages: 1 -->
<svg width="288pt" height="104pt"
 viewBox="0.00 0.00 288.00 104.00" xmlns="http://www.w3.org/2000/svg" xmlns:xlink="http://www.w3.org/1999/xlink">
<g id="graph0" class="graph" transform="scale(1 1) rotate(0) translate(4 100)">
<title>ellipse_c</title>
<polygon fill="white" stroke="transparent" points="-4,4 -4,-100 284,-100 284,4 -4,4"/>
<!-- Node1 -->
<g id="node1" class="node">
<title>Node1</title>
<g id="a_node1"><a xlink:title="An ellipse with a removed elliptical core.">
<polygon fill="#bfbfbf" stroke="black" points="0,-38.5 0,-57.5 59,-57.5 59,-38.5 0,-38.5"/>
<text text-anchor="middle" x="29.5" y="-45.5" font-family="Helvetica,sans-Serif" font-size="10.00">ellipse_c</text>
</a>
</g>
</g>
<!-- Node2 -->
<g id="node2" class="node">
<title>Node2</title>
<g id="a_node2"><a xlink:href="group__datatypes__iterable__test.html#ga3fa2b76e04a4c8bba633d9e5e08004e8" target="_top" xlink:title="Test if no element of an iterable value has an undefined value.">
<polygon fill="white" stroke="black" points="95,-76.5 95,-95.5 165,-95.5 165,-76.5 95,-76.5"/>
<text text-anchor="middle" x="130" y="-83.5" font-family="Helvetica,sans-Serif" font-size="10.00">all_defined</text>
</a>
</g>
</g>
<!-- Node1&#45;&gt;Node2 -->
<g id="edge1" class="edge">
<title>Node1&#45;&gt;Node2</title>
<path fill="none" stroke="midnightblue" d="M55.36,-57.59C67.25,-62.18 81.69,-67.75 94.63,-72.74"/>
<polygon fill="midnightblue" stroke="midnightblue" points="93.56,-76.08 104.15,-76.41 96.08,-69.55 93.56,-76.08"/>
</g>
<!-- Node3 -->
<g id="node3" class="node">
<title>Node3</title>
<g id="a_node3"><a xlink:href="group__shapes__basic__2d.html#ga7d62c56f88b839dc7e879ff16f968ea2" target="_top" xlink:title="An ellipse.">
<polygon fill="white" stroke="black" points="105.5,-38.5 105.5,-57.5 154.5,-57.5 154.5,-38.5 105.5,-38.5"/>
<text text-anchor="middle" x="130" y="-45.5" font-family="Helvetica,sans-Serif" font-size="10.00">ellipse</text>
</a>
</g>
</g>
<!-- Node1&#45;&gt;Node3 -->
<g id="edge2" class="edge">
<title>Node1&#45;&gt;Node3</title>
<path fill="none" stroke="midnightblue" d="M59.26,-48C70.47,-48 83.41,-48 95.08,-48"/>
<polygon fill="midnightblue" stroke="midnightblue" points="95.35,-51.5 105.35,-48 95.35,-44.5 95.35,-51.5"/>
</g>
<!-- Node5 -->
<g id="node5" class="node">
<title>Node5</title>
<g id="a_node5"><a xlink:href="group__datatypes__scalar__test.html#ga51d7fdb800c10f4b7479d23b89ab8d22" target="_top" xlink:title="Test if a value is defined.">
<polygon fill="white" stroke="black" points="97,-0.5 97,-19.5 163,-19.5 163,-0.5 97,-0.5"/>
<text text-anchor="middle" x="130" y="-7.5" font-family="Helvetica,sans-Serif" font-size="10.00">is_defined</text>
</a>
</g>
</g>
<!-- Node1&#45;&gt;Node5 -->
<g id="edge4" class="edge">
<title>Node1&#45;&gt;Node5</title>
<path fill="none" stroke="midnightblue" d="M55.36,-38.41C67.25,-33.82 81.69,-28.25 94.63,-23.26"/>
<polygon fill="midnightblue" stroke="midnightblue" points="96.08,-26.45 104.15,-19.59 93.56,-19.92 96.08,-26.45"/>
</g>
<!-- Node4 -->
<g id="node4" class="node">
<title>Node4</title>
<g id="a_node4"><a xlink:href="group__datatypes__iterable__operate.html#ga3d37c2b0067d1661724bd89955c8f6ce" target="_top" xlink:title="Return an element of an iterable when it exists or a default value otherwise.">
<polygon fill="white" stroke="black" points="201,-38.5 201,-57.5 280,-57.5 280,-38.5 201,-38.5"/>
<text text-anchor="middle" x="240.5" y="-45.5" font-family="Helvetica,sans-Serif" font-size="10.00">defined_e_or</text>
</a>
</g>
</g>
<!-- Node3&#45;&gt;Node4 -->
<g id="edge3" class="edge">
<title>Node3&#45;&gt;Node4</title>
<path fill="none" stroke="midnightblue" d="M154.54,-48C165.06,-48 177.87,-48 190.33,-48"/>
<polygon fill="midnightblue" stroke="midnightblue" points="190.65,-51.5 200.65,-48 190.65,-44.5 190.65,-51.5"/>
</g>
</g>
</svg>
