<?xml version="1.0" encoding="UTF-8" standalone="no"?>
<!DOCTYPE svg PUBLIC "-//W3C//DTD SVG 1.1//EN"
 "http://www.w3.org/Graphics/SVG/1.1/DTD/svg11.dtd">
<!-- Generated by graphviz version 2.43.0 (0)
 -->
<!-- Title: screw_bore_tsf Pages: 1 -->
<svg width="507pt" height="180pt"
 viewBox="0.00 0.00 507.00 180.00" xmlns="http://www.w3.org/2000/svg" xmlns:xlink="http://www.w3.org/1999/xlink">
<g id="graph0" class="graph" transform="scale(1 1) rotate(0) translate(4 176)">
<title>screw_bore_tsf</title>
<polygon fill="white" stroke="transparent" points="-4,4 -4,-176 503,-176 503,4 -4,4"/>
<!-- Node1 -->
<g id="node1" class="node">
<title>Node1</title>
<g id="a_node1"><a xlink:title="Gapped fastener bore with engagement cylinders for self&#45;forming threads.">
<polygon fill="#bfbfbf" stroke="black" points="0,-57.5 0,-76.5 90,-76.5 90,-57.5 0,-57.5"/>
<text text-anchor="middle" x="45" y="-64.5" font-family="Helvetica,sans-Serif" font-size="10.00">screw_bore_tsf</text>
</a>
</g>
</g>
<!-- Node2 -->
<g id="node2" class="node">
<title>Node2</title>
<g id="a_node2"><a xlink:href="group__datatypes__iterable__operate.html#ga3d37c2b0067d1661724bd89955c8f6ce" target="_top" xlink:title="Return an element of an iterable when it exists or a default value otherwise.">
<polygon fill="white" stroke="black" points="420,-152.5 420,-171.5 499,-171.5 499,-152.5 420,-152.5"/>
<text text-anchor="middle" x="459.5" y="-159.5" font-family="Helvetica,sans-Serif" font-size="10.00">defined_e_or</text>
</a>
</g>
</g>
<!-- Node1&#45;&gt;Node2 -->
<g id="edge1" class="edge">
<title>Node1&#45;&gt;Node2</title>
<path fill="none" stroke="midnightblue" d="M62.62,-76.55C78.43,-85.23 103.13,-97.76 126,-105 224.05,-136.04 344.04,-151.32 409.73,-157.85"/>
<polygon fill="midnightblue" stroke="midnightblue" points="409.51,-161.35 419.8,-158.83 410.18,-154.38 409.51,-161.35"/>
</g>
<!-- Node3 -->
<g id="node3" class="node">
<title>Node3</title>
<g id="a_node3"><a xlink:href="group__datatypes__iterable__operate.html#gaa10da05023bd79eec85459298bc937c2" target="_top" xlink:title="Return the list element or scalar numeric value, if either is defined, otherwise the default value.">
<polygon fill="white" stroke="black" points="137,-38.5 137,-57.5 228,-57.5 228,-38.5 137,-38.5"/>
<text text-anchor="middle" x="182.5" y="-45.5" font-family="Helvetica,sans-Serif" font-size="10.00">defined_eon_or</text>
</a>
</g>
</g>
<!-- Node1&#45;&gt;Node3 -->
<g id="edge2" class="edge">
<title>Node1&#45;&gt;Node3</title>
<path fill="none" stroke="midnightblue" d="M90.37,-60.78C101.95,-59.16 114.56,-57.39 126.61,-55.7"/>
<polygon fill="midnightblue" stroke="midnightblue" points="127.15,-59.16 136.57,-54.3 126.18,-52.22 127.15,-59.16"/>
</g>
<!-- Node4 -->
<g id="node4" class="node">
<title>Node4</title>
<g id="a_node4"><a xlink:href="group__tools__extrude.html#ga45661244067bf945b684550c3263ee45" target="_top" xlink:title="Linearly extrude a 2d shape with multi&#45;segment uniformly&#45;spaced profile scaling.">
<polygon fill="white" stroke="black" points="126,-76.5 126,-95.5 239,-95.5 239,-76.5 126,-76.5"/>
<text text-anchor="middle" x="182.5" y="-83.5" font-family="Helvetica,sans-Serif" font-size="10.00">extrude_linear_mss</text>
</a>
</g>
</g>
<!-- Node1&#45;&gt;Node4 -->
<g id="edge3" class="edge">
<title>Node1&#45;&gt;Node4</title>
<path fill="none" stroke="midnightblue" d="M90.37,-73.22C98.47,-74.36 107.07,-75.56 115.64,-76.77"/>
<polygon fill="midnightblue" stroke="midnightblue" points="115.26,-80.25 125.65,-78.17 116.23,-73.31 115.26,-80.25"/>
</g>
<!-- Node10 -->
<g id="node10" class="node">
<title>Node10</title>
<g id="a_node10"><a xlink:href="group__datatypes__list__operate.html#ga7b8e6f2bbfa72ae61e39377e5ca6b5be" target="_top" xlink:title="Select specified element from list or return a default.">
<polygon fill="white" stroke="black" points="153,-0.5 153,-19.5 212,-19.5 212,-0.5 153,-0.5"/>
<text text-anchor="middle" x="182.5" y="-7.5" font-family="Helvetica,sans-Serif" font-size="10.00">select_ci</text>
</a>
</g>
</g>
<!-- Node1&#45;&gt;Node10 -->
<g id="edge12" class="edge">
<title>Node1&#45;&gt;Node10</title>
<path fill="none" stroke="midnightblue" d="M64.48,-57.48C80.53,-49.4 104.5,-37.76 126,-29 131.5,-26.76 137.37,-24.56 143.16,-22.49"/>
<polygon fill="midnightblue" stroke="midnightblue" points="144.46,-25.74 152.75,-19.15 142.16,-19.13 144.46,-25.74"/>
</g>
<!-- Node5 -->
<g id="node5" class="node">
<title>Node5</title>
<g id="a_node5"><a xlink:href="group__tools__extrude.html#gab2442cfaf1ad44d6e295ab0979d9e03d" target="_top" xlink:title="Linearly extrude a 2d shape with uniformly&#45;spaced profile scaling.">
<polygon fill="white" stroke="black" points="275,-76.5 275,-95.5 384,-95.5 384,-76.5 275,-76.5"/>
<text text-anchor="middle" x="329.5" y="-83.5" font-family="Helvetica,sans-Serif" font-size="10.00">extrude_linear_uss</text>
</a>
</g>
</g>
<!-- Node4&#45;&gt;Node5 -->
<g id="edge4" class="edge">
<title>Node4&#45;&gt;Node5</title>
<path fill="none" stroke="midnightblue" d="M239.15,-86C247.44,-86 256.04,-86 264.48,-86"/>
<polygon fill="midnightblue" stroke="midnightblue" points="264.67,-89.5 274.67,-86 264.67,-82.5 264.67,-89.5"/>
</g>
<!-- Node6 -->
<g id="node6" class="node">
<title>Node6</title>
<g id="a_node6"><a xlink:href="group__datatypes__iterable__operate.html#gaccab3e37e43cb1d882713b3f3d6d9e1b" target="_top" xlink:title="Return the first element of an iterable value.">
<polygon fill="white" stroke="black" points="442,-114.5 442,-133.5 477,-133.5 477,-114.5 442,-114.5"/>
<text text-anchor="middle" x="459.5" y="-121.5" font-family="Helvetica,sans-Serif" font-size="10.00">first</text>
</a>
</g>
</g>
<!-- Node4&#45;&gt;Node6 -->
<g id="edge9" class="edge">
<title>Node4&#45;&gt;Node6</title>
<path fill="none" stroke="midnightblue" d="M224.79,-95.5C240.45,-98.86 258.49,-102.44 275,-105 330.36,-113.59 395.73,-119.31 431.59,-122.07"/>
<polygon fill="midnightblue" stroke="midnightblue" points="431.49,-125.58 441.73,-122.84 432.02,-118.6 431.49,-125.58"/>
</g>
<!-- Node7 -->
<g id="node7" class="node">
<title>Node7</title>
<g id="a_node7"><a xlink:href="group__datatypes__scalar__test.html#ga258e8911375d30ff85a6e52df01dc1c5" target="_top" xlink:title="Test if a value is a single non&#45;iterable value.">
<polygon fill="white" stroke="black" points="430,-19.5 430,-38.5 489,-38.5 489,-19.5 430,-19.5"/>
<text text-anchor="middle" x="459.5" y="-26.5" font-family="Helvetica,sans-Serif" font-size="10.00">is_scalar</text>
</a>
</g>
</g>
<!-- Node4&#45;&gt;Node7 -->
<g id="edge10" class="edge">
<title>Node4&#45;&gt;Node7</title>
<path fill="none" stroke="midnightblue" d="M219.61,-76.48C226.33,-73.93 233.09,-70.8 239,-67 258.57,-54.42 253.63,-38.19 275,-29 321.55,-8.98 381.08,-13.84 419.51,-20.39"/>
<polygon fill="midnightblue" stroke="midnightblue" points="419.29,-23.9 429.75,-22.26 420.55,-17.02 419.29,-23.9"/>
</g>
<!-- Node9 -->
<g id="node9" class="node">
<title>Node9</title>
<g id="a_node9"><a xlink:href="group__datatypes__list__operate.html#gae12565005038993506dc37249e32766d" target="_top" xlink:title="Compute the sum of a list of numbers.">
<polygon fill="white" stroke="black" points="310.5,-38.5 310.5,-57.5 348.5,-57.5 348.5,-38.5 310.5,-38.5"/>
<text text-anchor="middle" x="329.5" y="-45.5" font-family="Helvetica,sans-Serif" font-size="10.00">sum</text>
</a>
</g>
</g>
<!-- Node4&#45;&gt;Node9 -->
<g id="edge11" class="edge">
<title>Node4&#45;&gt;Node9</title>
<path fill="none" stroke="midnightblue" d="M220.09,-76.41C245.12,-69.85 277.78,-61.29 300.69,-55.29"/>
<polygon fill="midnightblue" stroke="midnightblue" points="301.68,-58.65 310.47,-52.73 299.9,-51.88 301.68,-58.65"/>
</g>
<!-- Node5&#45;&gt;Node2 -->
<g id="edge5" class="edge">
<title>Node5&#45;&gt;Node2</title>
<path fill="none" stroke="midnightblue" d="M344.47,-95.57C361.84,-107.31 392.55,-127.55 420,-143 422.86,-144.61 425.87,-146.23 428.9,-147.8"/>
<polygon fill="midnightblue" stroke="midnightblue" points="427.4,-150.96 437.9,-152.35 430.56,-144.72 427.4,-150.96"/>
</g>
<!-- Node5&#45;&gt;Node6 -->
<g id="edge6" class="edge">
<title>Node5&#45;&gt;Node6</title>
<path fill="none" stroke="midnightblue" d="M362.8,-95.59C384.24,-101.95 412.04,-110.21 432.14,-116.18"/>
<polygon fill="midnightblue" stroke="midnightblue" points="431.3,-119.58 441.88,-119.07 433.29,-112.86 431.3,-119.58"/>
</g>
<!-- Node5&#45;&gt;Node7 -->
<g id="edge7" class="edge">
<title>Node5&#45;&gt;Node7</title>
<path fill="none" stroke="midnightblue" d="M359.64,-76.43C367.62,-73.6 376.21,-70.35 384,-67 400.36,-59.96 418.15,-50.94 432.24,-43.45"/>
<polygon fill="midnightblue" stroke="midnightblue" points="434.19,-46.38 441.35,-38.56 430.88,-40.21 434.19,-46.38"/>
</g>
<!-- Node8 -->
<g id="node8" class="node">
<title>Node8</title>
<g id="a_node8"><a xlink:href="group__datatypes__iterable__operate.html#ga894d4bec62cc9cf38d5e099de3028c54" target="_top" xlink:title="Return the second element of an iterable value.">
<polygon fill="white" stroke="black" points="434,-76.5 434,-95.5 485,-95.5 485,-76.5 434,-76.5"/>
<text text-anchor="middle" x="459.5" y="-83.5" font-family="Helvetica,sans-Serif" font-size="10.00">second</text>
</a>
</g>
</g>
<!-- Node5&#45;&gt;Node8 -->
<g id="edge8" class="edge">
<title>Node5&#45;&gt;Node8</title>
<path fill="none" stroke="midnightblue" d="M384.04,-86C397.39,-86 411.37,-86 423.56,-86"/>
<polygon fill="midnightblue" stroke="midnightblue" points="423.75,-89.5 433.75,-86 423.75,-82.5 423.75,-89.5"/>
</g>
</g>
</svg>
