<?xml version="1.0" encoding="UTF-8" standalone="no"?>
<!DOCTYPE svg PUBLIC "-//W3C//DTD SVG 1.1//EN"
 "http://www.w3.org/Graphics/SVG/1.1/DTD/svg11.dtd">
<!-- Generated by graphviz version 2.43.0 (0)
 -->
<!-- Title: Mounts Pages: 1 -->
<svg width="224pt" height="35pt"
 viewBox="0.00 0.00 224.00 34.64" xmlns="http://www.w3.org/2000/svg" xmlns:xlink="http://www.w3.org/1999/xlink">
<g id="graph0" class="graph" transform="scale(1 1) rotate(0) translate(4 30.64)">
<title>Mounts</title>
<polygon fill="white" stroke="transparent" points="-4,4 -4,-30.64 220,-30.64 220,4 -4,4"/>
<!-- Node2 -->
<g id="node1" class="node">
<title>Node2</title>
<g id="a_node1"><a xlink:href="group__parts__3d__enclosure.html" target="_top" xlink:title="Project boxes, housings and enclosures.">
<polygon fill="white" stroke="black" points="64,-26.64 0,-26.64 0,-7.64 64,-7.64 64,-26.64"/>
<text text-anchor="middle" x="32" y="-14.64" font-family="Helvetica,sans-Serif" font-size="10.00">Enclosure</text>
</a>
</g>
</g>
<!-- Node1 -->
<g id="node2" class="node">
<title>Node1</title>
<g id="a_node2"><a xlink:title="Screw mounts tabs, mount slots, mount posts, etc.">
<polygon fill="#bfbfbf" stroke="black" points="216,-26.64 163,-26.64 163,-7.64 216,-7.64 216,-26.64"/>
<text text-anchor="middle" x="189.5" y="-14.64" font-family="Helvetica,sans-Serif" font-size="10.00">Mounts</text>
</a>
</g>
</g>
<!-- Node2&#45;&gt;Node1 -->
<g id="edge1" class="edge">
<title>Node2&#45;&gt;Node1</title>
<path fill="none" stroke="black" d="M74.43,-17.14C102.55,-17.14 138.85,-17.14 162.86,-17.14"/>
<polygon fill="black" stroke="black" points="74.09,-13.64 64.09,-17.14 74.09,-20.64 74.09,-13.64"/>
</g>
<!-- Node1&#45;&gt;Node2 -->
<g id="edge2" class="edge">
<title>Node1&#45;&gt;Node2</title>
<path fill="none" stroke="darkgreen" stroke-dasharray="5,2" d="M163.52,-7.64C157.54,-5.78 151.11,-4.1 145,-3.14 117.34,1.2 109.73,0.74 82,-3.14 75.17,-4.1 67.95,-5.77 61.21,-7.64"/>
<text text-anchor="middle" x="113.5" y="-6.14" font-family="Helvetica,sans-Serif" font-size="10.00">mounts.scad</text>
</g>
</g>
</svg>
