<?xml version="1.0" encoding="UTF-8" standalone="no"?>
<!DOCTYPE svg PUBLIC "-//W3C//DTD SVG 1.1//EN"
 "http://www.w3.org/Graphics/SVG/1.1/DTD/svg11.dtd">
<!-- Generated by graphviz version 2.43.0 (0)
 -->
<!-- Title: Data Types Pages: 1 -->
<svg width="331pt" height="592pt"
 viewBox="0.00 0.00 331.00 591.88" xmlns="http://www.w3.org/2000/svg" xmlns:xlink="http://www.w3.org/1999/xlink">
<g id="graph0" class="graph" transform="scale(1 1) rotate(0) translate(4 587.88)">
<title>Data Types</title>
<polygon fill="white" stroke="transparent" points="-4,4 -4,-587.88 327,-587.88 327,4 -4,4"/>
<!-- Node1 -->
<g id="node1" class="node">
<title>Node1</title>
<g id="a_node1"><a xlink:title="Data type identification and operations.">
<polygon fill="#bfbfbf" stroke="black" points="71,-307.12 0,-307.12 0,-288.12 71,-288.12 71,-307.12"/>
<text text-anchor="middle" x="35.5" y="-295.12" font-family="Helvetica,sans-Serif" font-size="10.00">Data Types</text>
</a>
</g>
</g>
<!-- Node8 -->
<g id="node2" class="node">
<title>Node8</title>
<g id="a_node2"><a xlink:href="group__datatypes__map.html" target="_top" xlink:title="Map data type and operations.">
<polygon fill="white" stroke="black" points="289.5,-567.12 246.5,-567.12 246.5,-548.12 289.5,-548.12 289.5,-567.12"/>
<text text-anchor="middle" x="268" y="-555.12" font-family="Helvetica,sans-Serif" font-size="10.00">Maps</text>
</a>
</g>
</g>
<!-- Node1&#45;&gt;Node8 -->
<g id="edge7" class="edge">
<title>Node1&#45;&gt;Node8</title>
<path fill="none" stroke="black" d="M37.29,-317.16C39.99,-373.02 50.94,-531.36 89,-562.62 134.27,-599.8 210.05,-579.2 246.37,-565.98"/>
<polygon fill="black" stroke="black" points="40.78,-316.98 36.84,-307.15 33.79,-317.3 40.78,-316.98"/>
</g>
<!-- Node1&#45;&gt;Node8 -->
<g id="edge19" class="edge">
<title>Node1&#45;&gt;Node8</title>
<path fill="none" stroke="darkgreen" stroke-dasharray="5,2" d="M37.3,-307.38C40.75,-347.28 55.81,-497.43 89,-528.62 94.72,-533.99 200.67,-548.74 246.34,-554.88"/>
<text text-anchor="middle" x="142" y="-549.62" font-family="Helvetica,sans-Serif" font-size="10.00">map.scad</text>
</g>
<!-- Node2 -->
<g id="node3" class="node">
<title>Node2</title>
<g id="a_node3"><a xlink:href="group__datatypes__binary.html" target="_top" xlink:title="Base&#45;2 binary numbers tests and operations.">
<polygon fill="white" stroke="black" points="315.5,-519.12 220.5,-519.12 220.5,-500.12 315.5,-500.12 315.5,-519.12"/>
<text text-anchor="middle" x="268" y="-507.12" font-family="Helvetica,sans-Serif" font-size="10.00">Binary Numbers</text>
</a>
</g>
</g>
<!-- Node1&#45;&gt;Node2 -->
<g id="edge1" class="edge">
<title>Node1&#45;&gt;Node2</title>
<path fill="none" stroke="black" d="M38.55,-317.27C43.86,-364.09 59.78,-480.11 89,-503.62 129.96,-536.57 195.01,-528.4 234.1,-519.2"/>
<polygon fill="black" stroke="black" points="42.01,-316.75 37.45,-307.19 35.05,-317.51 42.01,-316.75"/>
</g>
<!-- Node1&#45;&gt;Node2 -->
<g id="edge18" class="edge">
<title>Node1&#45;&gt;Node2</title>
<path fill="none" stroke="darkgreen" stroke-dasharray="5,2" d="M36.31,-307.52C36.3,-336.94 40.56,-424.49 89,-468.62 124.57,-501.02 148.17,-479.59 195,-490.62 207.21,-493.49 220.5,-496.92 232.3,-500.06"/>
<text text-anchor="middle" x="142" y="-493.62" font-family="Helvetica,sans-Serif" font-size="10.00">binary.scad</text>
</g>
<!-- Node3 -->
<g id="node4" class="node">
<title>Node3</title>
<g id="a_node4"><a xlink:href="group__datatypes__euclidean.html" target="_top" xlink:title="Tests and operations for Euclidean 3d space.">
<polygon fill="white" stroke="black" points="300,-455.12 236,-455.12 236,-436.12 300,-436.12 300,-455.12"/>
<text text-anchor="middle" x="268" y="-443.12" font-family="Helvetica,sans-Serif" font-size="10.00">Euclidean</text>
</a>
</g>
</g>
<!-- Node1&#45;&gt;Node3 -->
<g id="edge2" class="edge">
<title>Node1&#45;&gt;Node3</title>
<path fill="none" stroke="black" d="M36.88,-317.54C38.71,-350.41 47.67,-415.32 89,-444.62 132.61,-475.54 198.57,-465.13 236.75,-455.12"/>
<polygon fill="black" stroke="black" points="40.37,-317.21 36.49,-307.35 33.37,-317.48 40.37,-317.21"/>
</g>
<!-- Node1&#45;&gt;Node3 -->
<g id="edge17" class="edge">
<title>Node1&#45;&gt;Node3</title>
<path fill="none" stroke="darkgreen" stroke-dasharray="5,2" d="M38.17,-307.34C42.42,-329.01 55.77,-381.41 89,-407.62 91.9,-409.91 185.54,-429.13 235.81,-439.32"/>
<text text-anchor="middle" x="142" y="-432.62" font-family="Helvetica,sans-Serif" font-size="10.00">euclidean.scad</text>
</g>
<!-- Node7 -->
<g id="node5" class="node">
<title>Node7</title>
<g id="a_node5"><a xlink:href="group__datatypes__list__operate.html" target="_top" xlink:title="Operations for list data types.">
<polygon fill="white" stroke="black" points="313,-396.12 223,-396.12 223,-377.12 313,-377.12 313,-396.12"/>
<text text-anchor="middle" x="268" y="-384.12" font-family="Helvetica,sans-Serif" font-size="10.00">List Operations</text>
</a>
</g>
</g>
<!-- Node1&#45;&gt;Node7 -->
<g id="edge6" class="edge">
<title>Node1&#45;&gt;Node7</title>
<path fill="none" stroke="black" d="M41.89,-317.15C48.89,-338.29 63.35,-370.96 89,-385.62 132.87,-410.69 193.31,-404.15 231.26,-396.14"/>
<polygon fill="black" stroke="black" points="45.15,-315.84 38.89,-307.3 38.46,-317.88 45.15,-315.84"/>
</g>
<!-- Node1&#45;&gt;Node7 -->
<g id="edge15" class="edge">
<title>Node1&#45;&gt;Node7</title>
<path fill="none" stroke="darkgreen" stroke-dasharray="5,2" d="M44.73,-307.48C54.27,-318.25 71,-335.22 89,-344.62 100.86,-350.81 174.22,-367.04 222.99,-377.42"/>
<text text-anchor="middle" x="142" y="-373.62" font-family="Helvetica,sans-Serif" font-size="10.00">list_operate.scad</text>
</g>
<!-- Node6 -->
<g id="node6" class="node">
<title>Node6</title>
<g id="a_node6"><a xlink:href="group__datatypes__list__compare.html" target="_top" xlink:title="List comparision operations.">
<polygon fill="white" stroke="black" points="317,-337.12 219,-337.12 219,-318.12 317,-318.12 317,-337.12"/>
<text text-anchor="middle" x="268" y="-325.12" font-family="Helvetica,sans-Serif" font-size="10.00">List Comparision</text>
</a>
</g>
</g>
<!-- Node1&#45;&gt;Node6 -->
<g id="edge5" class="edge">
<title>Node1&#45;&gt;Node6</title>
<path fill="none" stroke="black" d="M57.94,-312.64C67.07,-318.18 78.12,-323.78 89,-326.62 131.91,-337.81 182.64,-336.77 218.95,-333.69"/>
<polygon fill="black" stroke="black" points="59.83,-309.7 49.52,-307.24 56.05,-315.59 59.83,-309.7"/>
</g>
<!-- Node1&#45;&gt;Node6 -->
<g id="edge16" class="edge">
<title>Node1&#45;&gt;Node6</title>
<path fill="none" stroke="darkgreen" stroke-dasharray="5,2" d="M71.24,-300.21C103.43,-302.82 152.59,-307.37 195,-313.62 203.57,-314.88 212.66,-316.46 221.4,-318.1"/>
<text text-anchor="middle" x="142" y="-316.62" font-family="Helvetica,sans-Serif" font-size="10.00">list_compare.scad</text>
</g>
<!-- Node9 -->
<g id="node7" class="node">
<title>Node9</title>
<g id="a_node7"><a xlink:href="group__datatypes__scalar__operate.html" target="_top" xlink:title="Operations for scalar data types.">
<polygon fill="white" stroke="black" points="319.5,-278.12 216.5,-278.12 216.5,-259.12 319.5,-259.12 319.5,-278.12"/>
<text text-anchor="middle" x="268" y="-266.12" font-family="Helvetica,sans-Serif" font-size="10.00">Scalar Operations</text>
</a>
</g>
</g>
<!-- Node1&#45;&gt;Node9 -->
<g id="edge8" class="edge">
<title>Node1&#45;&gt;Node9</title>
<path fill="none" stroke="black" d="M80.96,-292.03C119.74,-287.15 175.97,-280.07 216.44,-274.98"/>
<polygon fill="black" stroke="black" points="80.49,-288.56 71.01,-293.28 81.37,-295.5 80.49,-288.56"/>
</g>
<!-- Node1&#45;&gt;Node9 -->
<g id="edge12" class="edge">
<title>Node1&#45;&gt;Node9</title>
<path fill="none" stroke="darkgreen" stroke-dasharray="5,2" d="M46.79,-288.04C56.73,-279.49 72.64,-267.57 89,-262.62 132.5,-249.45 184.74,-253.38 221.33,-259.12"/>
<text text-anchor="middle" x="142" y="-265.62" font-family="Helvetica,sans-Serif" font-size="10.00">scalar_operate.scad</text>
</g>
<!-- Node5 -->
<g id="node8" class="node">
<title>Node5</title>
<g id="a_node8"><a xlink:href="group__datatypes__iterable__test.html" target="_top" xlink:title="Tests to differentiate iterable data types.">
<polygon fill="white" stroke="black" points="309,-219.12 227,-219.12 227,-200.12 309,-200.12 309,-219.12"/>
<text text-anchor="middle" x="268" y="-207.12" font-family="Helvetica,sans-Serif" font-size="10.00">Iterable Tests</text>
</a>
</g>
</g>
<!-- Node1&#45;&gt;Node5 -->
<g id="edge4" class="edge">
<title>Node1&#45;&gt;Node5</title>
<path fill="none" stroke="black" d="M51.22,-280.18C60.93,-269.79 74.49,-257.19 89,-249.62 132.81,-226.77 189.32,-216.91 226.79,-212.7"/>
<polygon fill="black" stroke="black" points="48.38,-278.12 44.32,-287.91 53.6,-282.78 48.38,-278.12"/>
</g>
<!-- Node1&#45;&gt;Node5 -->
<g id="edge13" class="edge">
<title>Node1&#45;&gt;Node5</title>
<path fill="none" stroke="darkgreen" stroke-dasharray="5,2" d="M38.41,-288.12C43.03,-268.04 56.86,-221.58 89,-202.62 136.15,-174.81 203.19,-188.8 240.08,-200.09"/>
<text text-anchor="middle" x="142" y="-205.62" font-family="Helvetica,sans-Serif" font-size="10.00">iterable_test.scad</text>
</g>
<!-- Node10 -->
<g id="node9" class="node">
<title>Node10</title>
<g id="a_node9"><a xlink:href="group__datatypes__scalar__test.html" target="_top" xlink:title="Tests to differentiate scalar data types.">
<polygon fill="white" stroke="black" points="305,-160.12 231,-160.12 231,-141.12 305,-141.12 305,-160.12"/>
<text text-anchor="middle" x="268" y="-148.12" font-family="Helvetica,sans-Serif" font-size="10.00">Scalar Tests</text>
</a>
</g>
</g>
<!-- Node1&#45;&gt;Node10 -->
<g id="edge9" class="edge">
<title>Node1&#45;&gt;Node10</title>
<path fill="none" stroke="black" d="M39.6,-278.03C44.85,-251.73 58.11,-205.55 89,-181.62 110.64,-164.86 185.48,-156.54 230.94,-152.95"/>
<polygon fill="black" stroke="black" points="36.14,-277.5 37.81,-287.96 43.03,-278.74 36.14,-277.5"/>
</g>
<!-- Node1&#45;&gt;Node10 -->
<g id="edge11" class="edge">
<title>Node1&#45;&gt;Node10</title>
<path fill="none" stroke="darkgreen" stroke-dasharray="5,2" d="M36.23,-288.06C36.03,-259.73 39.79,-176.05 89,-140.62 135.47,-107.16 207.73,-127.28 244.24,-141.02"/>
<text text-anchor="middle" x="142" y="-143.62" font-family="Helvetica,sans-Serif" font-size="10.00">scalar_test.scad</text>
</g>
<!-- Node4 -->
<g id="node10" class="node">
<title>Node4</title>
<g id="a_node10"><a xlink:href="group__datatypes__iterable__operate.html" target="_top" xlink:title="Operations for iterable data types.">
<polygon fill="white" stroke="black" points="323,-101.12 213,-101.12 213,-82.12 323,-82.12 323,-101.12"/>
<text text-anchor="middle" x="268" y="-89.12" font-family="Helvetica,sans-Serif" font-size="10.00">Iterable Operations</text>
</a>
</g>
</g>
<!-- Node1&#45;&gt;Node4 -->
<g id="edge3" class="edge">
<title>Node1&#45;&gt;Node4</title>
<path fill="none" stroke="black" d="M35.92,-277.92C35.99,-240.62 41.92,-159.75 89,-118.62 107.07,-102.84 167.46,-96.27 212.93,-93.55"/>
<polygon fill="black" stroke="black" points="32.42,-278.05 36.05,-288.01 39.42,-277.96 32.42,-278.05"/>
</g>
<!-- Node1&#45;&gt;Node4 -->
<g id="edge14" class="edge">
<title>Node1&#45;&gt;Node4</title>
<path fill="none" stroke="darkgreen" stroke-dasharray="5,2" d="M37.28,-288C40.63,-249.36 55.21,-106.24 89,-79.62 134.86,-43.49 209.69,-67.07 245.97,-82.02"/>
<text text-anchor="middle" x="142" y="-82.62" font-family="Helvetica,sans-Serif" font-size="10.00">iterable_operate.scad</text>
</g>
<!-- Node11 -->
<g id="node11" class="node">
<title>Node11</title>
<g id="a_node11"><a xlink:href="group__datatypes__table.html" target="_top" xlink:title="Table data type and operations.">
<polygon fill="white" stroke="black" points="291.5,-42.12 244.5,-42.12 244.5,-23.12 291.5,-23.12 291.5,-42.12"/>
<text text-anchor="middle" x="268" y="-30.12" font-family="Helvetica,sans-Serif" font-size="10.00">Tables</text>
</a>
</g>
</g>
<!-- Node1&#45;&gt;Node11 -->
<g id="edge10" class="edge">
<title>Node1&#45;&gt;Node11</title>
<path fill="none" stroke="black" d="M38.03,-277.98C42.45,-226.49 57.04,-89.52 89,-59.62 111.08,-38.96 201.48,-34.11 244.3,-32.97"/>
<polygon fill="black" stroke="black" points="34.53,-277.86 37.2,-288.11 41.5,-278.43 34.53,-277.86"/>
</g>
<!-- Node1&#45;&gt;Node11 -->
<g id="edge20" class="edge">
<title>Node1&#45;&gt;Node11</title>
<path fill="none" stroke="darkgreen" stroke-dasharray="5,2" d="M36.75,-287.93C38.14,-242.91 46.46,-54.88 89,-19.62 134.45,18.05 210.82,-7.54 246.93,-23.1"/>
<text text-anchor="middle" x="142" y="-22.62" font-family="Helvetica,sans-Serif" font-size="10.00">table.scad</text>
</g>
</g>
</svg>
