<?xml version="1.0" encoding="UTF-8" standalone="no"?>
<!DOCTYPE svg PUBLIC "-//W3C//DTD SVG 1.1//EN"
 "http://www.w3.org/Graphics/SVG/1.1/DTD/svg11.dtd">
<!-- Generated by graphviz version 2.43.0 (0)
 -->
<!-- Title: defined_or Pages: 1 -->
<svg width="376pt" height="636pt"
 viewBox="0.00 0.00 376.00 636.00" xmlns="http://www.w3.org/2000/svg" xmlns:xlink="http://www.w3.org/1999/xlink">
<g id="graph0" class="graph" transform="scale(1 1) rotate(0) translate(4 632)">
<title>defined_or</title>
<polygon fill="white" stroke="transparent" points="-4,4 -4,-632 372,-632 372,4 -4,4"/>
<!-- Node1 -->
<g id="node1" class="node">
<title>Node1</title>
<g id="a_node1"><a xlink:title="Return given value, if defined, or a secondary value, if primary is not defined.">
<polygon fill="#bfbfbf" stroke="black" points="300,-304.5 300,-323.5 368,-323.5 368,-304.5 300,-304.5"/>
<text text-anchor="middle" x="334" y="-311.5" font-family="Helvetica,sans-Serif" font-size="10.00">defined_or</text>
</a>
</g>
</g>
<!-- Node2 -->
<g id="node2" class="node">
<title>Node2</title>
<g id="a_node2"><a xlink:href="group__parts__3d__fastener__catch__latch.html#ga26a9933aa6d33599daab1be8d632c430" target="_top" xlink:title="A catch latch generator with configurable profile.">
<polygon fill="white" stroke="black" points="165.5,-608.5 165.5,-627.5 237.5,-627.5 237.5,-608.5 165.5,-608.5"/>
<text text-anchor="middle" x="201.5" y="-615.5" font-family="Helvetica,sans-Serif" font-size="10.00">catch_latch</text>
</a>
</g>
</g>
<!-- Node1&#45;&gt;Node2 -->
<g id="edge1" class="edge">
<title>Node1&#45;&gt;Node2</title>
<path fill="none" stroke="midnightblue" d="M330.48,-334.02C322.9,-391.34 298.67,-554.48 264,-594 257.12,-601.84 247.36,-607.14 237.64,-610.71"/>
<polygon fill="midnightblue" stroke="midnightblue" points="333.99,-334.12 331.81,-323.76 327.05,-333.22 333.99,-334.12"/>
</g>
<!-- Node3 -->
<g id="node3" class="node">
<title>Node3</title>
<g id="a_node3"><a xlink:href="group__tools__drafting__dimension.html#ga6b8e17d22ac4a95d25a90be8a74c0689" target="_top" xlink:title="Construct a angular dimension arc.">
<polygon fill="white" stroke="black" points="4,-565.5 4,-584.5 99,-584.5 99,-565.5 4,-565.5"/>
<text text-anchor="middle" x="51.5" y="-572.5" font-family="Helvetica,sans-Serif" font-size="10.00">draft_dim_angle</text>
</a>
</g>
</g>
<!-- Node1&#45;&gt;Node3 -->
<g id="edge2" class="edge">
<title>Node1&#45;&gt;Node3</title>
<path fill="none" stroke="midnightblue" d="M333.87,-333.71C334.73,-379.7 329.8,-494.35 264,-550 218.41,-588.56 146.17,-588.42 99.04,-583.06"/>
<polygon fill="midnightblue" stroke="midnightblue" points="337.37,-333.47 333.57,-323.58 330.37,-333.68 337.37,-333.47"/>
</g>
<!-- Node4 -->
<g id="node4" class="node">
<title>Node4</title>
<g id="a_node4"><a xlink:href="group__tools__drafting__dimension.html#ga5c4915c4c4464c5cdaefd501c2de261d" target="_top" xlink:title="Construct a dimension leader line at a point.">
<polygon fill="white" stroke="black" points="2,-522.5 2,-541.5 101,-541.5 101,-522.5 2,-522.5"/>
<text text-anchor="middle" x="51.5" y="-529.5" font-family="Helvetica,sans-Serif" font-size="10.00">draft_dim_leader</text>
</a>
</g>
</g>
<!-- Node1&#45;&gt;Node4 -->
<g id="edge3" class="edge">
<title>Node1&#45;&gt;Node4</title>
<path fill="none" stroke="midnightblue" d="M333.28,-333.8C332.69,-376.52 324.59,-477.2 264,-523 212.69,-561.78 132.7,-551.75 87.21,-541.51"/>
<polygon fill="midnightblue" stroke="midnightblue" points="336.78,-333.6 333.29,-323.59 329.78,-333.59 336.78,-333.6"/>
</g>
<!-- Node5 -->
<g id="node5" class="node">
<title>Node5</title>
<g id="a_node5"><a xlink:href="group__tools__drafting__dimension.html#ga27a35e94597435a74e22d76789e9be5e" target="_top" xlink:title="Construct a dimension line between two points.">
<polygon fill="white" stroke="black" points="8.5,-475.5 8.5,-494.5 94.5,-494.5 94.5,-475.5 8.5,-475.5"/>
<text text-anchor="middle" x="51.5" y="-482.5" font-family="Helvetica,sans-Serif" font-size="10.00">draft_dim_line</text>
</a>
</g>
</g>
<!-- Node1&#45;&gt;Node5 -->
<g id="edge4" class="edge">
<title>Node1&#45;&gt;Node5</title>
<path fill="none" stroke="midnightblue" d="M327.97,-333.77C319.66,-362.16 300.27,-414.04 264,-441 214.33,-477.91 140.83,-485.52 94.85,-486.27"/>
<polygon fill="midnightblue" stroke="midnightblue" points="331.43,-334.38 330.7,-323.81 324.68,-332.53 331.43,-334.38"/>
</g>
<!-- Node6 -->
<g id="node6" class="node">
<title>Node6</title>
<g id="a_node6"><a xlink:href="group__tools__drafting__dimension.html#gaef1a8150a8ef7be88e086fb3dbab64a9" target="_top" xlink:title="Construct a radial dimension line.">
<polygon fill="white" stroke="black" points="2.5,-437.5 2.5,-456.5 100.5,-456.5 100.5,-437.5 2.5,-437.5"/>
<text text-anchor="middle" x="51.5" y="-444.5" font-family="Helvetica,sans-Serif" font-size="10.00">draft_dim_radius</text>
</a>
</g>
</g>
<!-- Node1&#45;&gt;Node6 -->
<g id="edge5" class="edge">
<title>Node1&#45;&gt;Node6</title>
<path fill="none" stroke="midnightblue" d="M324.66,-333.04C313.96,-355.07 293.22,-390.67 264,-409 214.38,-440.12 146.07,-447.36 100.66,-448.31"/>
<polygon fill="midnightblue" stroke="midnightblue" points="327.95,-334.26 328.98,-323.71 321.6,-331.31 327.95,-334.26"/>
</g>
<!-- Node7 -->
<g id="node7" class="node">
<title>Node7</title>
<g id="a_node7"><a xlink:href="group__tools__drafting__operation.html#ga6273cb44e3132783d3714375c9fb1e4b" target="_top" xlink:title="Move one or more child objects to sheet a reference zone.">
<polygon fill="white" stroke="black" points="165.5,-380.5 165.5,-399.5 237.5,-399.5 237.5,-380.5 165.5,-380.5"/>
<text text-anchor="middle" x="201.5" y="-387.5" font-family="Helvetica,sans-Serif" font-size="10.00">draft_move</text>
</a>
</g>
</g>
<!-- Node1&#45;&gt;Node7 -->
<g id="edge6" class="edge">
<title>Node1&#45;&gt;Node7</title>
<path fill="none" stroke="midnightblue" d="M316.27,-331.06C303.08,-343.64 283.7,-360.36 264,-371 255.84,-375.41 246.5,-378.95 237.62,-381.73"/>
<polygon fill="midnightblue" stroke="midnightblue" points="318.93,-333.35 323.62,-323.84 314.03,-328.35 318.93,-333.35"/>
</g>
<!-- Node8 -->
<g id="node8" class="node">
<title>Node8</title>
<g id="a_node8"><a xlink:href="group__tools__drafting__operation.html#gac1b780633ac5e2874a8a00177d98b305" target="_top" xlink:title="Construct a text note with optional heading and boarder.">
<polygon fill="white" stroke="black" points="168.5,-494.5 168.5,-513.5 234.5,-513.5 234.5,-494.5 168.5,-494.5"/>
<text text-anchor="middle" x="201.5" y="-501.5" font-family="Helvetica,sans-Serif" font-size="10.00">draft_note</text>
</a>
</g>
</g>
<!-- Node1&#45;&gt;Node8 -->
<g id="edge7" class="edge">
<title>Node1&#45;&gt;Node8</title>
<path fill="none" stroke="midnightblue" d="M329.93,-333.86C323.62,-368.17 306.09,-438.82 264,-480 255.97,-487.85 245.08,-493.21 234.69,-496.83"/>
<polygon fill="midnightblue" stroke="midnightblue" points="333.43,-334.16 331.65,-323.71 326.53,-332.98 333.43,-334.16"/>
</g>
<!-- Node9 -->
<g id="node9" class="node">
<title>Node9</title>
<g id="a_node9"><a xlink:href="group__tools__drafting__primitive.html#gaf5c23ddb3b38a362eaece312029bcedd" target="_top" xlink:title="Add text to table cell at a given a column and row.">
<polygon fill="white" stroke="black" points="154.5,-342.5 154.5,-361.5 248.5,-361.5 248.5,-342.5 154.5,-342.5"/>
<text text-anchor="middle" x="201.5" y="-349.5" font-family="Helvetica,sans-Serif" font-size="10.00">draft_table_text</text>
</a>
</g>
</g>
<!-- Node1&#45;&gt;Node9 -->
<g id="edge12" class="edge">
<title>Node1&#45;&gt;Node9</title>
<path fill="none" stroke="midnightblue" d="M290.45,-326.39C272.58,-331.59 252.11,-337.55 235.42,-342.41"/>
<polygon fill="midnightblue" stroke="midnightblue" points="291.45,-329.75 300.07,-323.59 289.49,-323.02 291.45,-329.75"/>
</g>
<!-- Node10 -->
<g id="node10" class="node">
<title>Node10</title>
<g id="a_node10"><a xlink:href="group__tools__drafting__primitive.html#gaace78d1d977ad068ab277e50a591fde8" target="_top" xlink:title="Add text to ztable at a given zone index.">
<polygon fill="white" stroke="black" points="152,-304.5 152,-323.5 251,-323.5 251,-304.5 152,-304.5"/>
<text text-anchor="middle" x="201.5" y="-311.5" font-family="Helvetica,sans-Serif" font-size="10.00">draft_ztable_text</text>
</a>
</g>
</g>
<!-- Node1&#45;&gt;Node10 -->
<g id="edge13" class="edge">
<title>Node1&#45;&gt;Node10</title>
<path fill="none" stroke="midnightblue" d="M289.38,-314C277.22,-314 263.93,-314 251.48,-314"/>
<polygon fill="midnightblue" stroke="midnightblue" points="289.73,-317.5 299.73,-314 289.73,-310.5 289.73,-317.5"/>
</g>
<!-- Node11 -->
<g id="node11" class="node">
<title>Node11</title>
<g id="a_node11"><a xlink:href="group__parts__3d__enclosure__mounts.html#ga1a26f176e04863a2bf335960a52b39a8" target="_top" xlink:title="A screw mount slot with optional cover envelope.">
<polygon fill="white" stroke="black" points="149,-266.5 149,-285.5 254,-285.5 254,-266.5 149,-266.5"/>
<text text-anchor="middle" x="201.5" y="-273.5" font-family="Helvetica,sans-Serif" font-size="10.00">mount_screw_slot</text>
</a>
</g>
</g>
<!-- Node1&#45;&gt;Node11 -->
<g id="edge14" class="edge">
<title>Node1&#45;&gt;Node11</title>
<path fill="none" stroke="midnightblue" d="M290.45,-301.61C272.58,-296.41 252.11,-290.45 235.42,-285.59"/>
<polygon fill="midnightblue" stroke="midnightblue" points="289.49,-304.98 300.07,-304.41 291.45,-298.25 289.49,-304.98"/>
</g>
<!-- Node13 -->
<g id="node13" class="node">
<title>Node13</title>
<g id="a_node13"><a xlink:href="group__parts__3d__enclosure__mounts.html#gae1cc60f3ff242fb07c5a50d34be8c051" target="_top" xlink:title="A mount tab with screw hole and support brace.">
<polygon fill="white" stroke="black" points="150,-228.5 150,-247.5 253,-247.5 253,-228.5 150,-228.5"/>
<text text-anchor="middle" x="201.5" y="-235.5" font-family="Helvetica,sans-Serif" font-size="10.00">mount_screw_tab</text>
</a>
</g>
</g>
<!-- Node1&#45;&gt;Node13 -->
<g id="edge16" class="edge">
<title>Node1&#45;&gt;Node13</title>
<path fill="none" stroke="midnightblue" d="M316.27,-296.94C303.08,-284.36 283.7,-267.64 264,-257 257.02,-253.23 249.18,-250.09 241.49,-247.52"/>
<polygon fill="midnightblue" stroke="midnightblue" points="314.03,-299.65 323.62,-304.16 318.93,-294.65 314.03,-299.65"/>
</g>
<!-- Node14 -->
<g id="node14" class="node">
<title>Node14</title>
<g id="a_node14"><a xlink:href="group__parts__3d__computer__pci__bracket.html#gaf56631cf80d8e5f0b77736b17b94ecd9" target="_top" xlink:title="PCI slot cover and adapter card bracket generator.">
<polygon fill="white" stroke="black" points="165.5,-114.5 165.5,-133.5 237.5,-133.5 237.5,-114.5 165.5,-114.5"/>
<text text-anchor="middle" x="201.5" y="-121.5" font-family="Helvetica,sans-Serif" font-size="10.00">pci_bracket</text>
</a>
</g>
</g>
<!-- Node1&#45;&gt;Node14 -->
<g id="edge18" class="edge">
<title>Node1&#45;&gt;Node14</title>
<path fill="none" stroke="midnightblue" d="M330.57,-294.19C325.16,-258.73 308.87,-184.25 264,-143 256.68,-136.27 247.01,-131.92 237.52,-129.11"/>
<polygon fill="midnightblue" stroke="midnightblue" points="327.12,-294.82 331.96,-304.24 334.06,-293.86 327.12,-294.82"/>
</g>
<!-- Node15 -->
<g id="node15" class="node">
<title>Node15</title>
<g id="a_node15"><a xlink:href="group__shapes__polygon.html#ga22a29774c22e5cc9f3101ed0a0ed307a" target="_top" xlink:title="A polygon rectangle with side rounding.">
<polygon fill="white" stroke="black" points="154.5,-76.5 154.5,-95.5 248.5,-95.5 248.5,-76.5 154.5,-76.5"/>
<text text-anchor="middle" x="201.5" y="-83.5" font-family="Helvetica,sans-Serif" font-size="10.00">pg_rectangle_rs</text>
</a>
</g>
</g>
<!-- Node1&#45;&gt;Node15 -->
<g id="edge19" class="edge">
<title>Node1&#45;&gt;Node15</title>
<path fill="none" stroke="midnightblue" d="M332.24,-293.91C329.57,-252.6 317.61,-157.59 264,-105 259.61,-100.7 254.27,-97.36 248.59,-94.79"/>
<polygon fill="midnightblue" stroke="midnightblue" points="328.75,-294.26 332.77,-304.06 335.74,-293.89 328.75,-294.26"/>
</g>
<!-- Node16 -->
<g id="node16" class="node">
<title>Node16</title>
<g id="a_node16"><a xlink:href="group__tools__polytope.html#ga530c86f9c90ce074aa7adc29834f0539" target="_top" xlink:title="Assemble a polytope skeletal frame using child objects.">
<polygon fill="white" stroke="black" points="154.5,-38.5 154.5,-57.5 248.5,-57.5 248.5,-38.5 154.5,-38.5"/>
<text text-anchor="middle" x="201.5" y="-45.5" font-family="Helvetica,sans-Serif" font-size="10.00">polytope_frame</text>
</a>
</g>
</g>
<!-- Node1&#45;&gt;Node16 -->
<g id="edge20" class="edge">
<title>Node1&#45;&gt;Node16</title>
<path fill="none" stroke="midnightblue" d="M333.46,-294.19C333.42,-247.85 326.69,-131.42 264,-67 259.71,-62.6 254.43,-59.21 248.78,-56.6"/>
<polygon fill="midnightblue" stroke="midnightblue" points="329.96,-294.36 333.35,-304.39 336.96,-294.43 329.96,-294.36"/>
</g>
<!-- Node17 -->
<g id="node17" class="node">
<title>Node17</title>
<g id="a_node17"><a xlink:href="group__tools__polytope.html#ga00b574079f19251be7281151d11db8fa" target="_top" xlink:title="Label the vertices, paths, and edges of a polytope.">
<polygon fill="white" stroke="black" points="150.5,-0.5 150.5,-19.5 252.5,-19.5 252.5,-0.5 150.5,-0.5"/>
<text text-anchor="middle" x="201.5" y="-7.5" font-family="Helvetica,sans-Serif" font-size="10.00">polytope_number</text>
</a>
</g>
</g>
<!-- Node1&#45;&gt;Node17 -->
<g id="edge21" class="edge">
<title>Node1&#45;&gt;Node17</title>
<path fill="none" stroke="midnightblue" d="M330.76,-294.25C323.79,-236.27 300.77,-68.13 264,-29 260.33,-25.09 255.87,-21.98 251.05,-19.51"/>
<polygon fill="midnightblue" stroke="midnightblue" points="327.29,-294.79 331.94,-304.31 334.25,-293.97 327.29,-294.79"/>
</g>
<!-- Node18 -->
<g id="node18" class="node">
<title>Node18</title>
<g id="a_node18"><a xlink:href="group__parts__3d__enclosure__project__box__rectangle.html#ga6a5d093d732e65556c46252220f2c4b6" target="_top" xlink:title="A rectangular box maker for project boxes, enclosures and housings.">
<polygon fill="white" stroke="black" points="139,-190.5 139,-209.5 264,-209.5 264,-190.5 139,-190.5"/>
<text text-anchor="middle" x="201.5" y="-197.5" font-family="Helvetica,sans-Serif" font-size="10.00">project_box_rectangle</text>
</a>
</g>
</g>
<!-- Node1&#45;&gt;Node18 -->
<g id="edge22" class="edge">
<title>Node1&#45;&gt;Node18</title>
<path fill="none" stroke="midnightblue" d="M324.09,-295.24C312.95,-273.76 291.91,-238.97 264,-219 258.64,-215.16 252.48,-212.09 246.18,-209.62"/>
<polygon fill="midnightblue" stroke="midnightblue" points="321.03,-296.94 328.62,-304.33 327.29,-293.82 321.03,-296.94"/>
</g>
<!-- Node19 -->
<g id="node19" class="node">
<title>Node19</title>
<g id="a_node19"><a xlink:href="group__shapes__basic__2d.html#ga803b8196745be0e3a338def3c58e3b2b" target="_top" xlink:title="A rectangle with a removed rectangular core.">
<polygon fill="white" stroke="black" points="165,-152.5 165,-171.5 238,-171.5 238,-152.5 165,-152.5"/>
<text text-anchor="middle" x="201.5" y="-159.5" font-family="Helvetica,sans-Serif" font-size="10.00">rectangle_c</text>
</a>
</g>
</g>
<!-- Node1&#45;&gt;Node19 -->
<g id="edge24" class="edge">
<title>Node1&#45;&gt;Node19</title>
<path fill="none" stroke="midnightblue" d="M328.11,-294.59C319.83,-265.64 300.29,-211.31 264,-181 256.62,-174.84 247.26,-170.67 238.08,-167.86"/>
<polygon fill="midnightblue" stroke="midnightblue" points="324.76,-295.6 330.75,-304.34 331.52,-293.77 324.76,-295.6"/>
</g>
<!-- Node8&#45;&gt;Node3 -->
<g id="edge8" class="edge">
<title>Node8&#45;&gt;Node3</title>
<path fill="none" stroke="midnightblue" d="M171.52,-518.02C152.14,-527.39 126.05,-539.96 103,-551 93.02,-555.78 81.91,-561.06 72.66,-565.45"/>
<polygon fill="midnightblue" stroke="midnightblue" points="173.24,-521.08 180.72,-513.57 170.19,-514.77 173.24,-521.08"/>
</g>
<!-- Node8&#45;&gt;Node4 -->
<g id="edge9" class="edge">
<title>Node8&#45;&gt;Node4</title>
<path fill="none" stroke="midnightblue" d="M158.54,-511.94C140.67,-515.32 119.7,-519.29 101.16,-522.79"/>
<polygon fill="midnightblue" stroke="midnightblue" points="159.21,-515.37 168.39,-510.08 157.91,-508.5 159.21,-515.37"/>
</g>
<!-- Node8&#45;&gt;Node5 -->
<g id="edge10" class="edge">
<title>Node8&#45;&gt;Node5</title>
<path fill="none" stroke="midnightblue" d="M158.34,-498.59C138.39,-496.03 114.62,-492.98 94.67,-490.41"/>
<polygon fill="midnightblue" stroke="midnightblue" points="158.02,-502.08 168.39,-499.88 158.91,-495.13 158.02,-502.08"/>
</g>
<!-- Node8&#45;&gt;Node6 -->
<g id="edge11" class="edge">
<title>Node8&#45;&gt;Node6</title>
<path fill="none" stroke="midnightblue" d="M166.78,-490.74C148.02,-483.4 124.24,-474.13 103,-466 94.86,-462.88 85.98,-459.52 77.95,-456.51"/>
<polygon fill="midnightblue" stroke="midnightblue" points="165.5,-494 176.09,-494.39 168.06,-487.49 165.5,-494"/>
</g>
<!-- Node12 -->
<g id="node12" class="node">
<title>Node12</title>
<g id="a_node12"><a xlink:href="group__parts__3d__enclosure__power__strip.html#ga191779dedf39e4fd769a8dc96b0f8c9e" target="_top" xlink:title="A power strip generator for single gang electrical receptacles.">
<polygon fill="white" stroke="black" points="6.5,-209.5 6.5,-228.5 96.5,-228.5 96.5,-209.5 6.5,-209.5"/>
<text text-anchor="middle" x="51.5" y="-216.5" font-family="Helvetica,sans-Serif" font-size="10.00">power_strip_sg</text>
</a>
</g>
</g>
<!-- Node11&#45;&gt;Node12 -->
<g id="edge15" class="edge">
<title>Node11&#45;&gt;Node12</title>
<path fill="none" stroke="midnightblue" d="M157.42,-263.38C151.2,-261.36 144.91,-259.2 139,-257 115.79,-248.35 89.87,-236.68 72.51,-228.57"/>
<polygon fill="midnightblue" stroke="midnightblue" points="156.48,-266.75 167.07,-266.43 158.59,-260.08 156.48,-266.75"/>
</g>
<!-- Node13&#45;&gt;Node12 -->
<g id="edge17" class="edge">
<title>Node13&#45;&gt;Node12</title>
<path fill="none" stroke="midnightblue" d="M139.69,-230.19C125.34,-228.35 110.31,-226.42 96.85,-224.69"/>
<polygon fill="midnightblue" stroke="midnightblue" points="139.62,-233.71 149.98,-231.51 140.51,-226.77 139.62,-233.71"/>
</g>
<!-- Node18&#45;&gt;Node12 -->
<g id="edge23" class="edge">
<title>Node18&#45;&gt;Node12</title>
<path fill="none" stroke="midnightblue" d="M128.61,-209.23C117.68,-210.63 106.7,-212.04 96.61,-213.34"/>
<polygon fill="midnightblue" stroke="midnightblue" points="129.12,-212.69 138.59,-207.95 128.23,-205.75 129.12,-212.69"/>
</g>
<!-- Node19&#45;&gt;Node12 -->
<g id="edge25" class="edge">
<title>Node19&#45;&gt;Node12</title>
<path fill="none" stroke="midnightblue" d="M157.42,-174.62C151.2,-176.64 144.91,-178.8 139,-181 115.79,-189.65 89.87,-201.32 72.51,-209.43"/>
<polygon fill="midnightblue" stroke="midnightblue" points="158.59,-177.92 167.07,-171.57 156.48,-171.25 158.59,-177.92"/>
</g>
<!-- Node20 -->
<g id="node20" class="node">
<title>Node20</title>
<g id="a_node20"><a xlink:href="group__shapes__revolved.html#gad587c003585db775fd441468954b7c43" target="_top" xlink:title="A rectangular cross&#45;sectional profile revolved about the z&#45;axis.">
<polygon fill="white" stroke="black" points="0,-152.5 0,-171.5 103,-171.5 103,-152.5 0,-152.5"/>
<text text-anchor="middle" x="51.5" y="-159.5" font-family="Helvetica,sans-Serif" font-size="10.00">torus_rectangle_c</text>
</a>
</g>
</g>
<!-- Node19&#45;&gt;Node20 -->
<g id="edge26" class="edge">
<title>Node19&#45;&gt;Node20</title>
<path fill="none" stroke="midnightblue" d="M154.33,-162C138.07,-162 119.71,-162 103.1,-162"/>
<polygon fill="midnightblue" stroke="midnightblue" points="154.67,-165.5 164.67,-162 154.67,-158.5 154.67,-165.5"/>
</g>
</g>
</svg>
