<?xml version="1.0" encoding="UTF-8" standalone="no"?>
<!DOCTYPE svg PUBLIC "-//W3C//DTD SVG 1.1//EN"
 "http://www.w3.org/Graphics/SVG/1.1/DTD/svg11.dtd">
<!-- Generated by graphviz version 2.43.0 (0)
 -->
<!-- Title: draft_note Pages: 1 -->
<svg width="513pt" height="294pt"
 viewBox="0.00 0.00 513.00 294.00" xmlns="http://www.w3.org/2000/svg" xmlns:xlink="http://www.w3.org/1999/xlink">
<g id="graph0" class="graph" transform="scale(1 1) rotate(0) translate(4 290)">
<title>draft_note</title>
<polygon fill="white" stroke="transparent" points="-4,4 -4,-290 509,-290 509,4 -4,4"/>
<!-- Node1 -->
<g id="node1" class="node">
<title>Node1</title>
<g id="a_node1"><a xlink:title="Construct a text note with optional heading and boarder.">
<polygon fill="#bfbfbf" stroke="black" points="0,-171.5 0,-190.5 66,-190.5 66,-171.5 0,-171.5"/>
<text text-anchor="middle" x="33" y="-178.5" font-family="Helvetica,sans-Serif" font-size="10.00">draft_note</text>
</a>
</g>
</g>
<!-- Node2 -->
<g id="node2" class="node">
<title>Node2</title>
<g id="a_node2"><a xlink:href="group__datatypes__list__operate.html#gab05ff3da4d68d30922daa197f505580d" target="_top" xlink:title="Create a list of constant or incrementing elements.">
<polygon fill="white" stroke="black" points="117.5,-266.5 117.5,-285.5 165.5,-285.5 165.5,-266.5 117.5,-266.5"/>
<text text-anchor="middle" x="141.5" y="-273.5" font-family="Helvetica,sans-Serif" font-size="10.00">consts</text>
</a>
</g>
</g>
<!-- Node1&#45;&gt;Node2 -->
<g id="edge1" class="edge">
<title>Node1&#45;&gt;Node2</title>
<path fill="none" stroke="midnightblue" d="M40.96,-190.98C52.28,-206.65 76.06,-237.29 102,-257 104.03,-258.54 106.19,-260 108.43,-261.39"/>
<polygon fill="midnightblue" stroke="midnightblue" points="106.82,-264.5 117.26,-266.32 110.23,-258.39 106.82,-264.5"/>
</g>
<!-- Node3 -->
<g id="node3" class="node">
<title>Node3</title>
<g id="a_node3"><a xlink:href="group__datatypes__iterable__operate.html#ga3d37c2b0067d1661724bd89955c8f6ce" target="_top" xlink:title="Return an element of an iterable when it exists or a default value otherwise.">
<polygon fill="white" stroke="black" points="102,-228.5 102,-247.5 181,-247.5 181,-228.5 102,-228.5"/>
<text text-anchor="middle" x="141.5" y="-235.5" font-family="Helvetica,sans-Serif" font-size="10.00">defined_e_or</text>
</a>
</g>
</g>
<!-- Node1&#45;&gt;Node3 -->
<g id="edge2" class="edge">
<title>Node1&#45;&gt;Node3</title>
<path fill="none" stroke="midnightblue" d="M50.64,-190.61C64.32,-198.44 84.28,-209.69 102,-219 104.97,-220.56 108.08,-222.16 111.2,-223.74"/>
<polygon fill="midnightblue" stroke="midnightblue" points="109.91,-227 120.42,-228.33 113.03,-220.74 109.91,-227"/>
</g>
<!-- Node4 -->
<g id="node4" class="node">
<title>Node4</title>
<g id="a_node4"><a xlink:href="group__datatypes__scalar__operate.html#gac119300e8c83de0037f2d0a4d9f0ab5c" target="_top" xlink:title="Return given value, if defined, or a secondary value, if primary is not defined.">
<polygon fill="white" stroke="black" points="107.5,-190.5 107.5,-209.5 175.5,-209.5 175.5,-190.5 107.5,-190.5"/>
<text text-anchor="middle" x="141.5" y="-197.5" font-family="Helvetica,sans-Serif" font-size="10.00">defined_or</text>
</a>
</g>
</g>
<!-- Node1&#45;&gt;Node4 -->
<g id="edge3" class="edge">
<title>Node1&#45;&gt;Node4</title>
<path fill="none" stroke="midnightblue" d="M66.24,-186.75C75.98,-188.49 86.83,-190.42 97.16,-192.27"/>
<polygon fill="midnightblue" stroke="midnightblue" points="96.8,-195.76 107.26,-194.07 98.03,-188.87 96.8,-195.76"/>
</g>
<!-- Node5 -->
<g id="node5" class="node">
<title>Node5</title>
<g id="a_node5"><a xlink:href="group__tools__drafting__primitive.html#ga9e80066573c9e9b2b1cf6af71cf453b0" target="_top" xlink:title="Check if any identified layers are active.">
<polygon fill="white" stroke="black" points="229,-190.5 229,-209.5 362,-209.5 362,-190.5 229,-190.5"/>
<text text-anchor="middle" x="295.5" y="-197.5" font-family="Helvetica,sans-Serif" font-size="10.00">draft_layers_any_active</text>
</a>
</g>
</g>
<!-- Node1&#45;&gt;Node5 -->
<g id="edge4" class="edge">
<title>Node1&#45;&gt;Node5</title>
<path fill="none" stroke="midnightblue" d="M66.18,-179.47C96.01,-178.41 141.58,-177.72 181,-181 199.82,-182.56 220.21,-185.56 238.44,-188.72"/>
<polygon fill="midnightblue" stroke="midnightblue" points="237.87,-192.18 248.33,-190.49 239.1,-185.29 237.87,-192.18"/>
</g>
<!-- Node6 -->
<g id="node6" class="node">
<title>Node6</title>
<g id="a_node6"><a xlink:href="group__tools__drafting__operation.html#gaae4b7ed59444eb6f6c0ae47bd36e1e9b" target="_top" xlink:title="Construct a text table that is populated by rows and columns.">
<polygon fill="white" stroke="black" points="107,-114.5 107,-133.5 176,-133.5 176,-114.5 107,-114.5"/>
<text text-anchor="middle" x="141.5" y="-121.5" font-family="Helvetica,sans-Serif" font-size="10.00">draft_table</text>
</a>
</g>
</g>
<!-- Node1&#45;&gt;Node6 -->
<g id="edge5" class="edge">
<title>Node1&#45;&gt;Node6</title>
<path fill="none" stroke="midnightblue" d="M52.07,-171.33C69,-162.27 94.52,-148.61 113.8,-138.29"/>
<polygon fill="midnightblue" stroke="midnightblue" points="115.54,-141.33 122.7,-133.53 112.23,-135.16 115.54,-141.33"/>
</g>
<!-- Node12 -->
<g id="node12" class="node">
<title>Node12</title>
<g id="a_node12"><a xlink:href="group__datatypes__scalar__test.html#ga51d7fdb800c10f4b7479d23b89ab8d22" target="_top" xlink:title="Test if a value is defined.">
<polygon fill="white" stroke="black" points="108.5,-76.5 108.5,-95.5 174.5,-95.5 174.5,-76.5 108.5,-76.5"/>
<text text-anchor="middle" x="141.5" y="-83.5" font-family="Helvetica,sans-Serif" font-size="10.00">is_defined</text>
</a>
</g>
</g>
<!-- Node1&#45;&gt;Node12 -->
<g id="edge13" class="edge">
<title>Node1&#45;&gt;Node12</title>
<path fill="none" stroke="midnightblue" d="M40.96,-171.02C52.28,-155.35 76.06,-124.71 102,-105 104.03,-103.46 106.19,-102 108.43,-100.61"/>
<polygon fill="midnightblue" stroke="midnightblue" points="110.23,-103.61 117.26,-95.68 106.82,-97.5 110.23,-103.61"/>
</g>
<!-- Node6&#45;&gt;Node5 -->
<g id="edge7" class="edge">
<title>Node6&#45;&gt;Node5</title>
<path fill="none" stroke="midnightblue" d="M158.85,-133.68C165.79,-137.91 173.89,-143.04 181,-148 197.62,-159.6 199.03,-166.63 217,-176 225.53,-180.45 235.02,-184.23 244.36,-187.38"/>
<polygon fill="midnightblue" stroke="midnightblue" points="243.39,-190.75 253.98,-190.45 245.51,-184.08 243.39,-190.75"/>
</g>
<!-- Node7 -->
<g id="node7" class="node">
<title>Node7</title>
<g id="a_node7"><a xlink:href="group__tools__drafting__config.html#gabb4fa7092928ba8803b550ac6d733f64" target="_top" xlink:title="Get drafting configuration default helper function.">
<polygon fill="white" stroke="black" points="410,-133.5 410,-152.5 505,-152.5 505,-133.5 410,-133.5"/>
<text text-anchor="middle" x="457.5" y="-140.5" font-family="Helvetica,sans-Serif" font-size="10.00">draft_get_config</text>
</a>
</g>
</g>
<!-- Node6&#45;&gt;Node7 -->
<g id="edge6" class="edge">
<title>Node6&#45;&gt;Node7</title>
<path fill="none" stroke="midnightblue" d="M172.62,-133.5C186.05,-137.27 202.17,-141.14 217,-143 279.2,-150.81 351.21,-149.42 399.9,-146.96"/>
<polygon fill="midnightblue" stroke="midnightblue" points="400.13,-150.45 409.93,-146.42 399.75,-143.46 400.13,-150.45"/>
</g>
<!-- Node8 -->
<g id="node8" class="node">
<title>Node8</title>
<g id="a_node8"><a xlink:href="group__tools__drafting__primitive.html#ga9a4b6eb4b387537f7bc1cc6c4d8f4449" target="_top" xlink:title="Extrude 2D drafted constructions to 3D if configured.">
<polygon fill="white" stroke="black" points="217,-114.5 217,-133.5 374,-133.5 374,-114.5 217,-114.5"/>
<text text-anchor="middle" x="295.5" y="-121.5" font-family="Helvetica,sans-Serif" font-size="10.00">draft_make_3d_if_configured</text>
</a>
</g>
</g>
<!-- Node6&#45;&gt;Node8 -->
<g id="edge8" class="edge">
<title>Node6&#45;&gt;Node8</title>
<path fill="none" stroke="midnightblue" d="M176.23,-124C185.38,-124 195.72,-124 206.4,-124"/>
<polygon fill="midnightblue" stroke="midnightblue" points="206.7,-127.5 216.7,-124 206.7,-120.5 206.7,-127.5"/>
</g>
<!-- Node9 -->
<g id="node9" class="node">
<title>Node9</title>
<g id="a_node9"><a xlink:href="group__tools__drafting__primitive.html#ga86b6eb63073241bfdfb18ba221fd3ec2" target="_top" xlink:title="Get table cell coordinates given a column and row.">
<polygon fill="white" stroke="black" points="239,-76.5 239,-95.5 352,-95.5 352,-76.5 239,-76.5"/>
<text text-anchor="middle" x="295.5" y="-83.5" font-family="Helvetica,sans-Serif" font-size="10.00">draft_table_get_cell</text>
</a>
</g>
</g>
<!-- Node6&#45;&gt;Node9 -->
<g id="edge10" class="edge">
<title>Node6&#45;&gt;Node9</title>
<path fill="none" stroke="midnightblue" d="M176.23,-115.33C189,-112.06 203.66,-108.34 217,-105 226.08,-102.73 235.77,-100.33 245.1,-98.04"/>
<polygon fill="midnightblue" stroke="midnightblue" points="246.18,-101.38 255.06,-95.6 244.51,-94.58 246.18,-101.38"/>
</g>
<!-- Node10 -->
<g id="node10" class="node">
<title>Node10</title>
<g id="a_node10"><a xlink:href="group__datatypes__map.html#ga87e9b731478958b17b012e11d8ce818f" target="_top" xlink:title="Get the the first value associated with an existing key in one of two maps.">
<polygon fill="white" stroke="black" points="238.5,-38.5 238.5,-57.5 352.5,-57.5 352.5,-38.5 238.5,-38.5"/>
<text text-anchor="middle" x="295.5" y="-45.5" font-family="Helvetica,sans-Serif" font-size="10.00">map_get_firstof2_or</text>
</a>
</g>
</g>
<!-- Node6&#45;&gt;Node10 -->
<g id="edge11" class="edge">
<title>Node6&#45;&gt;Node10</title>
<path fill="none" stroke="midnightblue" d="M165.27,-114.43C170.64,-111.72 176.2,-108.54 181,-105 199.72,-91.19 196.89,-78.69 217,-67 220.88,-64.75 225.01,-62.76 229.28,-61.01"/>
<polygon fill="midnightblue" stroke="midnightblue" points="230.59,-64.25 238.78,-57.53 228.19,-57.68 230.59,-64.25"/>
</g>
<!-- Node11 -->
<g id="node11" class="node">
<title>Node11</title>
<g id="a_node11"><a xlink:href="group__datatypes__map.html#ga18d78aec6f24969b9ad51595533f78b2" target="_top" xlink:title="Get the map value associated with a key.">
<polygon fill="white" stroke="black" points="249.5,-0.5 249.5,-19.5 341.5,-19.5 341.5,-0.5 249.5,-0.5"/>
<text text-anchor="middle" x="295.5" y="-7.5" font-family="Helvetica,sans-Serif" font-size="10.00">map_get_value</text>
</a>
</g>
</g>
<!-- Node6&#45;&gt;Node11 -->
<g id="edge12" class="edge">
<title>Node6&#45;&gt;Node11</title>
<path fill="none" stroke="midnightblue" d="M168.14,-114.37C172.8,-111.82 177.34,-108.72 181,-105 207.22,-78.36 188.04,-52.63 217,-29 223.56,-23.65 231.4,-19.77 239.54,-16.97"/>
<polygon fill="midnightblue" stroke="midnightblue" points="240.56,-20.31 249.17,-14.14 238.59,-13.6 240.56,-20.31"/>
</g>
<!-- Node8&#45;&gt;Node7 -->
<g id="edge9" class="edge">
<title>Node8&#45;&gt;Node7</title>
<path fill="none" stroke="midnightblue" d="M374.16,-133.22C382.67,-134.23 391.21,-135.25 399.41,-136.22"/>
<polygon fill="midnightblue" stroke="midnightblue" points="399.23,-139.72 409.57,-137.43 400.05,-132.77 399.23,-139.72"/>
</g>
</g>
</svg>
