<?xml version="1.0" encoding="UTF-8" standalone="no"?>
<!DOCTYPE svg PUBLIC "-//W3C//DTD SVG 1.1//EN"
 "http://www.w3.org/Graphics/SVG/1.1/DTD/svg11.dtd">
<!-- Generated by graphviz version 2.43.0 (0)
 -->
<!-- Title: draft_ztable Pages: 1 -->
<svg width="406pt" height="180pt"
 viewBox="0.00 0.00 406.00 180.00" xmlns="http://www.w3.org/2000/svg" xmlns:xlink="http://www.w3.org/1999/xlink">
<g id="graph0" class="graph" transform="scale(1 1) rotate(0) translate(4 176)">
<title>draft_ztable</title>
<polygon fill="white" stroke="transparent" points="-4,4 -4,-176 402,-176 402,4 -4,4"/>
<!-- Node1 -->
<g id="node1" class="node">
<title>Node1</title>
<g id="a_node1"><a xlink:title="Construct a text table that is populated by predefined zones.">
<polygon fill="#bfbfbf" stroke="black" points="0,-76.5 0,-95.5 74,-95.5 74,-76.5 0,-76.5"/>
<text text-anchor="middle" x="37" y="-83.5" font-family="Helvetica,sans-Serif" font-size="10.00">draft_ztable</text>
</a>
</g>
</g>
<!-- Node2 -->
<g id="node2" class="node">
<title>Node2</title>
<g id="a_node2"><a xlink:href="group__datatypes__iterable__operate.html#ga3d37c2b0067d1661724bd89955c8f6ce" target="_top" xlink:title="Return an element of an iterable when it exists or a default value otherwise.">
<polygon fill="white" stroke="black" points="149,-152.5 149,-171.5 228,-171.5 228,-152.5 149,-152.5"/>
<text text-anchor="middle" x="188.5" y="-159.5" font-family="Helvetica,sans-Serif" font-size="10.00">defined_e_or</text>
</a>
</g>
</g>
<!-- Node1&#45;&gt;Node2 -->
<g id="edge1" class="edge">
<title>Node1&#45;&gt;Node2</title>
<path fill="none" stroke="midnightblue" d="M47.32,-95.61C60.22,-108.35 84.8,-130.67 110,-143 119.05,-147.43 129.22,-150.88 139.13,-153.54"/>
<polygon fill="midnightblue" stroke="midnightblue" points="138.37,-156.96 148.92,-155.95 140.05,-150.16 138.37,-156.96"/>
</g>
<!-- Node3 -->
<g id="node3" class="node">
<title>Node3</title>
<g id="a_node3"><a xlink:href="group__tools__drafting__primitive.html#ga9e80066573c9e9b2b1cf6af71cf453b0" target="_top" xlink:title="Check if any identified layers are active.">
<polygon fill="white" stroke="black" points="122,-114.5 122,-133.5 255,-133.5 255,-114.5 122,-114.5"/>
<text text-anchor="middle" x="188.5" y="-121.5" font-family="Helvetica,sans-Serif" font-size="10.00">draft_layers_any_active</text>
</a>
</g>
</g>
<!-- Node1&#45;&gt;Node3 -->
<g id="edge2" class="edge">
<title>Node1&#45;&gt;Node3</title>
<path fill="none" stroke="midnightblue" d="M73.86,-95.6C85.39,-98.64 98.22,-102 110,-105 119.07,-107.31 128.75,-109.72 138.09,-112.02"/>
<polygon fill="midnightblue" stroke="midnightblue" points="137.49,-115.48 148.04,-114.47 139.16,-108.68 137.49,-115.48"/>
</g>
<!-- Node4 -->
<g id="node4" class="node">
<title>Node4</title>
<g id="a_node4"><a xlink:href="group__tools__drafting__primitive.html#ga9a4b6eb4b387537f7bc1cc6c4d8f4449" target="_top" xlink:title="Extrude 2D drafted constructions to 3D if configured.">
<polygon fill="white" stroke="black" points="110,-76.5 110,-95.5 267,-95.5 267,-76.5 110,-76.5"/>
<text text-anchor="middle" x="188.5" y="-83.5" font-family="Helvetica,sans-Serif" font-size="10.00">draft_make_3d_if_configured</text>
</a>
</g>
</g>
<!-- Node1&#45;&gt;Node4 -->
<g id="edge3" class="edge">
<title>Node1&#45;&gt;Node4</title>
<path fill="none" stroke="midnightblue" d="M74.19,-86C82.1,-86 90.81,-86 99.77,-86"/>
<polygon fill="midnightblue" stroke="midnightblue" points="99.97,-89.5 109.97,-86 99.97,-82.5 99.97,-89.5"/>
</g>
<!-- Node6 -->
<g id="node6" class="node">
<title>Node6</title>
<g id="a_node6"><a xlink:href="group__tools__drafting__primitive.html#ga38f380c0ebc432c475fc6217a41496df" target="_top" xlink:title="Get ztable zone coordinates given a zone index.">
<polygon fill="white" stroke="black" points="126.5,-38.5 126.5,-57.5 250.5,-57.5 250.5,-38.5 126.5,-38.5"/>
<text text-anchor="middle" x="188.5" y="-45.5" font-family="Helvetica,sans-Serif" font-size="10.00">draft_ztable_get_zone</text>
</a>
</g>
</g>
<!-- Node1&#45;&gt;Node6 -->
<g id="edge5" class="edge">
<title>Node1&#45;&gt;Node6</title>
<path fill="none" stroke="midnightblue" d="M73.86,-76.4C85.39,-73.36 98.22,-70 110,-67 119.07,-64.69 128.75,-62.28 138.09,-59.98"/>
<polygon fill="midnightblue" stroke="midnightblue" points="139.16,-63.32 148.04,-57.53 137.49,-56.52 139.16,-63.32"/>
</g>
<!-- Node7 -->
<g id="node7" class="node">
<title>Node7</title>
<g id="a_node7"><a xlink:href="group__datatypes__map.html#ga18d78aec6f24969b9ad51595533f78b2" target="_top" xlink:title="Get the map value associated with a key.">
<polygon fill="white" stroke="black" points="142.5,-0.5 142.5,-19.5 234.5,-19.5 234.5,-0.5 142.5,-0.5"/>
<text text-anchor="middle" x="188.5" y="-7.5" font-family="Helvetica,sans-Serif" font-size="10.00">map_get_value</text>
</a>
</g>
</g>
<!-- Node1&#45;&gt;Node7 -->
<g id="edge6" class="edge">
<title>Node1&#45;&gt;Node7</title>
<path fill="none" stroke="midnightblue" d="M47.32,-76.39C60.22,-63.65 84.8,-41.33 110,-29 117.09,-25.53 124.86,-22.67 132.65,-20.31"/>
<polygon fill="midnightblue" stroke="midnightblue" points="133.79,-23.62 142.5,-17.58 131.93,-16.88 133.79,-23.62"/>
</g>
<!-- Node5 -->
<g id="node5" class="node">
<title>Node5</title>
<g id="a_node5"><a xlink:href="group__tools__drafting__config.html#gabb4fa7092928ba8803b550ac6d733f64" target="_top" xlink:title="Get drafting configuration default helper function.">
<polygon fill="white" stroke="black" points="303,-76.5 303,-95.5 398,-95.5 398,-76.5 303,-76.5"/>
<text text-anchor="middle" x="350.5" y="-83.5" font-family="Helvetica,sans-Serif" font-size="10.00">draft_get_config</text>
</a>
</g>
</g>
<!-- Node4&#45;&gt;Node5 -->
<g id="edge4" class="edge">
<title>Node4&#45;&gt;Node5</title>
<path fill="none" stroke="midnightblue" d="M267.16,-86C275.67,-86 284.21,-86 292.41,-86"/>
<polygon fill="midnightblue" stroke="midnightblue" points="292.57,-89.5 302.57,-86 292.57,-82.5 292.57,-89.5"/>
</g>
</g>
</svg>
