<?xml version="1.0" encoding="UTF-8" standalone="no"?>
<!DOCTYPE svg PUBLIC "-//W3C//DTD SVG 1.1//EN"
 "http://www.w3.org/Graphics/SVG/1.1/DTD/svg11.dtd">
<!-- Generated by graphviz version 2.43.0 (0)
 -->
<!-- Title: Maps Pages: 1 -->
<svg width="206pt" height="34pt"
 viewBox="0.00 0.00 206.00 34.04" xmlns="http://www.w3.org/2000/svg" xmlns:xlink="http://www.w3.org/1999/xlink">
<g id="graph0" class="graph" transform="scale(1 1) rotate(0) translate(4 30.04)">
<title>Maps</title>
<polygon fill="white" stroke="transparent" points="-4,4 -4,-30.04 202,-30.04 202,4 -4,4"/>
<!-- Node2 -->
<g id="node1" class="node">
<title>Node2</title>
<g id="a_node1"><a xlink:href="group__datatypes.html" target="_top" xlink:title="Data type identification and operations.">
<polygon fill="white" stroke="black" points="71,-26.04 0,-26.04 0,-7.04 71,-7.04 71,-26.04"/>
<text text-anchor="middle" x="35.5" y="-14.04" font-family="Helvetica,sans-Serif" font-size="10.00">Data Types</text>
</a>
</g>
</g>
<!-- Node1 -->
<g id="node2" class="node">
<title>Node1</title>
<g id="a_node2"><a xlink:title="Map data type and operations.">
<polygon fill="#bfbfbf" stroke="black" points="198,-26.04 155,-26.04 155,-7.04 198,-7.04 198,-26.04"/>
<text text-anchor="middle" x="176.5" y="-14.04" font-family="Helvetica,sans-Serif" font-size="10.00">Maps</text>
</a>
</g>
</g>
<!-- Node2&#45;&gt;Node1 -->
<g id="edge1" class="edge">
<title>Node2&#45;&gt;Node1</title>
<path fill="none" stroke="black" d="M81.49,-16.54C106.23,-16.54 135.72,-16.54 154.99,-16.54"/>
<polygon fill="black" stroke="black" points="81.22,-13.04 71.22,-16.54 81.22,-20.04 81.22,-13.04"/>
</g>
<!-- Node1&#45;&gt;Node2 -->
<g id="edge2" class="edge">
<title>Node1&#45;&gt;Node2</title>
<path fill="none" stroke="darkgreen" stroke-dasharray="5,2" d="M154.68,-7.48C149.05,-5.44 142.88,-3.58 137,-2.54 115.99,1.16 110.15,0.23 89,-2.54 81.7,-3.5 73.98,-5.17 66.77,-7.04"/>
<text text-anchor="middle" x="113" y="-5.54" font-family="Helvetica,sans-Serif" font-size="10.00">map.scad</text>
</g>
</g>
</svg>
