<?xml version="1.0" encoding="UTF-8" standalone="no"?>
<!DOCTYPE svg PUBLIC "-//W3C//DTD SVG 1.1//EN"
 "http://www.w3.org/Graphics/SVG/1.1/DTD/svg11.dtd">
<!-- Generated by graphviz version 2.43.0 (0)
 -->
<!-- Title: Math Pages: 1 -->
<svg width="268pt" height="348pt"
 viewBox="0.00 0.00 268.00 347.53" xmlns="http://www.w3.org/2000/svg" xmlns:xlink="http://www.w3.org/1999/xlink">
<g id="graph0" class="graph" transform="scale(1 1) rotate(0) translate(4 343.53)">
<title>Math</title>
<polygon fill="white" stroke="transparent" points="-4,4 -4,-343.53 264,-343.53 264,4 -4,4"/>
<!-- Node1 -->
<g id="node1" class="node">
<title>Node1</title>
<g id="a_node1"><a xlink:title="Mathematical functions and operations.">
<polygon fill="#bfbfbf" stroke="black" points="41,-183.88 0,-183.88 0,-164.88 41,-164.88 41,-183.88"/>
<text text-anchor="middle" x="20.5" y="-171.88" font-family="Helvetica,sans-Serif" font-size="10.00">Math</text>
</a>
</g>
</g>
<!-- Node4 -->
<g id="node2" class="node">
<title>Node4</title>
<g id="a_node2"><a xlink:href="group__math__polyhedron.html" target="_top" xlink:title="Polyhedron mathematical functions; 3&#45;polytope.">
<polygon fill="white" stroke="black" points="255,-325.88 178,-325.88 178,-306.88 255,-306.88 255,-325.88"/>
<text text-anchor="middle" x="216.5" y="-313.88" font-family="Helvetica,sans-Serif" font-size="10.00">Polyhedrons</text>
</a>
</g>
</g>
<!-- Node1&#45;&gt;Node4 -->
<g id="edge3" class="edge">
<title>Node1&#45;&gt;Node4</title>
<path fill="none" stroke="black" d="M23.6,-194.32C27.9,-230.78 39.01,-305.85 59,-321.38 97,-350.9 157.26,-337.21 190.84,-325.95"/>
<polygon fill="black" stroke="black" points="27.03,-193.52 22.44,-183.97 20.08,-194.3 27.03,-193.52"/>
</g>
<!-- Node1&#45;&gt;Node4 -->
<g id="edge9" class="edge">
<title>Node1&#45;&gt;Node4</title>
<path fill="none" stroke="darkgreen" stroke-dasharray="5,2" d="M21.71,-184.14C22.73,-205.89 28.42,-258.54 59,-285.38 67.87,-293.17 134.35,-304.33 177.76,-310.92"/>
<text text-anchor="middle" x="107" y="-309.38" font-family="Helvetica,sans-Serif" font-size="10.00">polyhedron.scad</text>
</g>
<!-- Node7 -->
<g id="node3" class="node">
<title>Node7</title>
<g id="a_node3"><a xlink:href="group__math__utility.html" target="_top" xlink:title="Miscellaneous mathematical utilities.">
<polygon fill="white" stroke="black" points="244,-277.88 189,-277.88 189,-258.88 244,-258.88 244,-277.88"/>
<text text-anchor="middle" x="216.5" y="-265.88" font-family="Helvetica,sans-Serif" font-size="10.00">Utilities</text>
</a>
</g>
</g>
<!-- Node1&#45;&gt;Node7 -->
<g id="edge6" class="edge">
<title>Node1&#45;&gt;Node7</title>
<path fill="none" stroke="black" d="M23.83,-194.15C27.44,-214.99 36.51,-246.89 59,-262.38 97.63,-288.98 155.26,-282.46 188.74,-275.37"/>
<polygon fill="black" stroke="black" points="27.28,-193.53 22.36,-184.15 20.35,-194.55 27.28,-193.53"/>
</g>
<!-- Node1&#45;&gt;Node7 -->
<g id="edge12" class="edge">
<title>Node1&#45;&gt;Node7</title>
<path fill="none" stroke="darkgreen" stroke-dasharray="5,2" d="M26.52,-183.99C32.71,-194.9 44.25,-212.48 59,-222.38 95.81,-247.07 112.52,-236.74 155,-249.38 166.08,-252.68 178.25,-256.46 188.75,-259.79"/>
<text text-anchor="middle" x="107" y="-252.38" font-family="Helvetica,sans-Serif" font-size="10.00">utility.scad</text>
</g>
<!-- Node2 -->
<g id="node4" class="node">
<title>Node2</title>
<g id="a_node4"><a xlink:href="group__math__linear__algebra.html" target="_top" xlink:title="Euclidean linear algebra functions.">
<polygon fill="white" stroke="black" points="260,-213.88 173,-213.88 173,-194.88 260,-194.88 260,-213.88"/>
<text text-anchor="middle" x="216.5" y="-201.88" font-family="Helvetica,sans-Serif" font-size="10.00">Linear Algebra</text>
</a>
</g>
</g>
<!-- Node1&#45;&gt;Node2 -->
<g id="edge1" class="edge">
<title>Node1&#45;&gt;Node2</title>
<path fill="none" stroke="black" d="M37.82,-190.72C43.94,-195.78 51.3,-200.72 59,-203.38 95.86,-216.1 140.57,-214.87 172.75,-211.34"/>
<polygon fill="black" stroke="black" points="40.09,-188.05 30.32,-183.95 35.4,-193.25 40.09,-188.05"/>
</g>
<!-- Node1&#45;&gt;Node2 -->
<g id="edge7" class="edge">
<title>Node1&#45;&gt;Node2</title>
<path fill="none" stroke="darkgreen" stroke-dasharray="5,2" d="M41.05,-176.05C67.15,-178.44 114.76,-183.33 155,-190.38 162.22,-191.64 169.87,-193.22 177.22,-194.86"/>
<text text-anchor="middle" x="107" y="-193.38" font-family="Helvetica,sans-Serif" font-size="10.00">linear_algebra.scad</text>
</g>
<!-- Node5 -->
<g id="node5" class="node">
<title>Node5</title>
<g id="a_node5"><a xlink:href="group__math__polytope.html" target="_top" xlink:title="Polytope mathematical functions.">
<polygon fill="white" stroke="black" points="249,-154.88 184,-154.88 184,-135.88 249,-135.88 249,-154.88"/>
<text text-anchor="middle" x="216.5" y="-142.88" font-family="Helvetica,sans-Serif" font-size="10.00">Polytopes</text>
</a>
</g>
</g>
<!-- Node1&#45;&gt;Node5 -->
<g id="edge4" class="edge">
<title>Node1&#45;&gt;Node5</title>
<path fill="none" stroke="black" d="M51.5,-169.89C87.44,-164.52 147.36,-155.56 183.97,-150.09"/>
<polygon fill="black" stroke="black" points="50.54,-166.5 41.17,-171.44 51.58,-173.42 50.54,-166.5"/>
</g>
<!-- Node1&#45;&gt;Node5 -->
<g id="edge10" class="edge">
<title>Node1&#45;&gt;Node5</title>
<path fill="none" stroke="darkgreen" stroke-dasharray="5,2" d="M28.28,-164.86C34.98,-156.36 46.08,-144.47 59,-139.38 99.85,-123.28 151.45,-129.88 183.97,-136.95"/>
<text text-anchor="middle" x="107" y="-142.38" font-family="Helvetica,sans-Serif" font-size="10.00">polytope.scad</text>
</g>
<!-- Node3 -->
<g id="node6" class="node">
<title>Node3</title>
<g id="a_node6"><a xlink:href="group__math__polygon.html" target="_top" xlink:title="Polygon mathematical functions; 2&#45;polytope.">
<polygon fill="white" stroke="black" points="247,-95.88 186,-95.88 186,-76.88 247,-76.88 247,-95.88"/>
<text text-anchor="middle" x="216.5" y="-83.88" font-family="Helvetica,sans-Serif" font-size="10.00">Polygons</text>
</a>
</g>
</g>
<!-- Node1&#45;&gt;Node3 -->
<g id="edge2" class="edge">
<title>Node1&#45;&gt;Node3</title>
<path fill="none" stroke="black" d="M31.56,-155.67C38.07,-145.27 47.48,-132.94 59,-125.38 97.97,-99.79 152.45,-90.99 185.78,-87.96"/>
<polygon fill="black" stroke="black" points="28.43,-154.09 26.41,-164.49 34.48,-157.62 28.43,-154.09"/>
</g>
<!-- Node1&#45;&gt;Node3 -->
<g id="edge8" class="edge">
<title>Node1&#45;&gt;Node3</title>
<path fill="none" stroke="darkgreen" stroke-dasharray="5,2" d="M21.86,-164.81C23.21,-144.56 29.51,-97.59 59,-77.38 99.07,-49.91 159.35,-65.12 192.17,-76.85"/>
<text text-anchor="middle" x="107" y="-80.38" font-family="Helvetica,sans-Serif" font-size="10.00">polygon.scad</text>
</g>
<!-- Node6 -->
<g id="node7" class="node">
<title>Node6</title>
<g id="a_node7"><a xlink:href="group__math__triangle.html" target="_top" xlink:title="Triangle mathematical functions.">
<polygon fill="white" stroke="black" points="246.5,-36.88 186.5,-36.88 186.5,-17.88 246.5,-17.88 246.5,-36.88"/>
<text text-anchor="middle" x="216.5" y="-24.88" font-family="Helvetica,sans-Serif" font-size="10.00">Triangles</text>
</a>
</g>
</g>
<!-- Node1&#45;&gt;Node6 -->
<g id="edge5" class="edge">
<title>Node1&#45;&gt;Node6</title>
<path fill="none" stroke="black" d="M21.97,-154.52C23.72,-128.22 30.91,-82.27 59,-57.38 77.48,-41 146.28,-32.88 186.24,-29.46"/>
<polygon fill="black" stroke="black" points="18.46,-154.62 21.5,-164.77 25.45,-154.94 18.46,-154.62"/>
</g>
<!-- Node1&#45;&gt;Node6 -->
<g id="edge11" class="edge">
<title>Node1&#45;&gt;Node6</title>
<path fill="none" stroke="darkgreen" stroke-dasharray="5,2" d="M22.3,-164.59C25.07,-133.18 35.46,-35.96 59,-17.38 98.11,13.49 161.28,-4.88 194.12,-17.87"/>
<text text-anchor="middle" x="107" y="-20.38" font-family="Helvetica,sans-Serif" font-size="10.00">triangle.scad</text>
</g>
</g>
</svg>
