<?xml version="1.0" encoding="UTF-8" standalone="no"?>
<!DOCTYPE svg PUBLIC "-//W3C//DTD SVG 1.1//EN"
 "http://www.w3.org/Graphics/SVG/1.1/DTD/svg11.dtd">
<!-- Generated by graphviz version 2.43.0 (0)
 -->
<!-- Title: ctable_get Pages: 1 -->
<svg width="192pt" height="66pt"
 viewBox="0.00 0.00 192.00 66.00" xmlns="http://www.w3.org/2000/svg" xmlns:xlink="http://www.w3.org/1999/xlink">
<g id="graph0" class="graph" transform="scale(1 1) rotate(0) translate(4 62)">
<title>ctable_get</title>
<polygon fill="white" stroke="transparent" points="-4,4 -4,-62 188,-62 188,4 -4,4"/>
<!-- Node1 -->
<g id="node1" class="node">
<title>Node1</title>
<g id="a_node1"><a xlink:title="Get a row, a column, or a specific cell value from a table.">
<polygon fill="#bfbfbf" stroke="black" points="116,-19.5 116,-38.5 184,-38.5 184,-19.5 116,-19.5"/>
<text text-anchor="middle" x="150" y="-26.5" font-family="Helvetica,sans-Serif" font-size="10.00">ctable_get</text>
</a>
</g>
</g>
<!-- Node2 -->
<g id="node2" class="node">
<title>Node2</title>
<g id="a_node2"><a xlink:href="group__models__3d__motion__bearing__linear__lmxuu.html#gaee2c61ec287975e6d54ade77e3c8010c" target="_top" xlink:title="Linear motion bearing model.">
<polygon fill="white" stroke="black" points="0,-38.5 0,-57.5 80,-57.5 80,-38.5 0,-38.5"/>
<text text-anchor="middle" x="40" y="-45.5" font-family="Helvetica,sans-Serif" font-size="10.00">linear_lmxuu</text>
</a>
</g>
</g>
<!-- Node1&#45;&gt;Node2 -->
<g id="edge1" class="edge">
<title>Node1&#45;&gt;Node2</title>
<path fill="none" stroke="midnightblue" d="M105.64,-36.63C97.18,-38.12 88.36,-39.67 80.05,-41.13"/>
<polygon fill="midnightblue" stroke="midnightblue" points="106.47,-40.04 115.72,-34.86 105.26,-33.14 106.47,-40.04"/>
</g>
<!-- Node3 -->
<g id="node3" class="node">
<title>Node3</title>
<g id="a_node3"><a xlink:href="group__models__3d__motion__bearing__radial__ball.html#ga3e39cd35457c1ceb70a6bb0e55022ee1" target="_top" xlink:title="Radial ball bearing model.">
<polygon fill="white" stroke="black" points="6,-0.5 6,-19.5 74,-19.5 74,-0.5 6,-0.5"/>
<text text-anchor="middle" x="40" y="-7.5" font-family="Helvetica,sans-Serif" font-size="10.00">radial_ball</text>
</a>
</g>
</g>
<!-- Node1&#45;&gt;Node3 -->
<g id="edge2" class="edge">
<title>Node1&#45;&gt;Node3</title>
<path fill="none" stroke="midnightblue" d="M105.56,-21.36C95.16,-19.53 84.22,-17.6 74.36,-15.87"/>
<polygon fill="midnightblue" stroke="midnightblue" points="105.26,-24.86 115.72,-23.14 106.47,-17.96 105.26,-24.86"/>
</g>
</g>
</svg>
