<?xml version="1.0" encoding="UTF-8" standalone="no"?>
<!DOCTYPE svg PUBLIC "-//W3C//DTD SVG 1.1//EN"
 "http://www.w3.org/Graphics/SVG/1.1/DTD/svg11.dtd">
<!-- Generated by graphviz version 2.43.0 (0)
 -->
<!-- Title: Tools Pages: 1 -->
<svg width="301pt" height="324pt"
 viewBox="0.00 0.00 301.00 323.60" xmlns="http://www.w3.org/2000/svg" xmlns:xlink="http://www.w3.org/1999/xlink">
<g id="graph0" class="graph" transform="scale(1 1) rotate(0) translate(4 319.6)">
<title>Tools</title>
<polygon fill="white" stroke="transparent" points="-4,4 -4,-319.6 297,-319.6 297,4 -4,4"/>
<!-- Node4 -->
<g id="node1" class="node">
<title>Node4</title>
<g id="a_node1"><a xlink:href="group__tools__drafting.html" target="_top" xlink:title="Drafting and drawing tools.">
<polygon fill="white" stroke="black" points="257,-314.94 201,-314.94 201,-295.94 257,-295.94 257,-314.94"/>
<text text-anchor="middle" x="229" y="-302.94" font-family="Helvetica,sans-Serif" font-size="10.00">Drafting</text>
</a>
</g>
</g>
<!-- Node5 -->
<g id="node2" class="node">
<title>Node5</title>
<g id="a_node2"><a xlink:href="group__tools__extrude.html" target="_top" xlink:title="Shape extrusion tools.">
<polygon fill="white" stroke="black" points="256,-270.94 202,-270.94 202,-251.94 256,-251.94 256,-270.94"/>
<text text-anchor="middle" x="229" y="-258.94" font-family="Helvetica,sans-Serif" font-size="10.00">Extrude</text>
</a>
</g>
</g>
<!-- Node6 -->
<g id="node3" class="node">
<title>Node6</title>
<g id="a_node3"><a xlink:href="group__tools__polytope.html" target="_top" xlink:title="Polygon and polyhedron tools.">
<polygon fill="white" stroke="black" points="258.5,-217.94 199.5,-217.94 199.5,-198.94 258.5,-198.94 258.5,-217.94"/>
<text text-anchor="middle" x="229" y="-205.94" font-family="Helvetica,sans-Serif" font-size="10.00">Polytope</text>
</a>
</g>
</g>
<!-- Node2 -->
<g id="node4" class="node">
<title>Node2</title>
<g id="a_node4"><a xlink:href="group__tools__align.html" target="_top" xlink:title="Shape alignment tools.">
<polygon fill="white" stroke="black" points="262.5,-158.94 195.5,-158.94 195.5,-139.94 262.5,-139.94 262.5,-158.94"/>
<text text-anchor="middle" x="229" y="-146.94" font-family="Helvetica,sans-Serif" font-size="10.00">Alignment</text>
</a>
</g>
</g>
<!-- Node7 -->
<g id="node5" class="node">
<title>Node7</title>
<g id="a_node5"><a xlink:href="group__tools__repeat.html" target="_top" xlink:title="Shape repetition tools.">
<polygon fill="white" stroke="black" points="254.5,-99.94 203.5,-99.94 203.5,-80.94 254.5,-80.94 254.5,-99.94"/>
<text text-anchor="middle" x="229" y="-87.94" font-family="Helvetica,sans-Serif" font-size="10.00">Repeat</text>
</a>
</g>
</g>
<!-- Node3 -->
<g id="node6" class="node">
<title>Node3</title>
<g id="a_node6"><a xlink:href="group__tools__operation__cs.html" target="_top" xlink:title="Conditional transformations and operations.">
<polygon fill="white" stroke="black" points="293,-40.94 165,-40.94 165,-21.94 293,-21.94 293,-40.94"/>
<text text-anchor="middle" x="229" y="-28.94" font-family="Helvetica,sans-Serif" font-size="10.00">Conditional Operations</text>
</a>
</g>
</g>
<!-- Node1 -->
<g id="node7" class="node">
<title>Node1</title>
<g id="a_node7"><a xlink:title="Tools and design components.">
<polygon fill="#bfbfbf" stroke="black" points="41,-171.94 0,-171.94 0,-152.94 41,-152.94 41,-171.94"/>
<text text-anchor="middle" x="20.5" y="-159.94" font-family="Helvetica,sans-Serif" font-size="10.00">Tools</text>
</a>
</g>
</g>
<!-- Node1&#45;&gt;Node4 -->
<g id="edge3" class="edge">
<title>Node1&#45;&gt;Node4</title>
<path fill="none" stroke="black" d="M21.09,-182.57C21.71,-211 27.46,-262.36 59,-288.44 99.11,-321.6 164.25,-317.12 200.83,-311.13"/>
<polygon fill="black" stroke="black" points="24.59,-182.24 21.07,-172.25 17.59,-182.25 24.59,-182.24"/>
</g>
<!-- Node1&#45;&gt;Node5 -->
<g id="edge4" class="edge">
<title>Node1&#45;&gt;Node5</title>
<path fill="none" stroke="black" d="M22.21,-182.27C24.29,-206.73 31.88,-247.39 59,-266.44 101.63,-296.38 166.39,-282.4 202.1,-271.01"/>
<polygon fill="black" stroke="black" points="25.69,-181.79 21.59,-172.02 18.7,-182.22 25.69,-181.79"/>
</g>
<!-- Node1&#45;&gt;Node5 -->
<g id="edge8" class="edge">
<title>Node1&#45;&gt;Node5</title>
<path fill="none" stroke="darkgreen" stroke-dasharray="5,2" d="M24.21,-172.28C28.79,-186.98 39.53,-214.43 59,-228.44 81.51,-244.62 160.13,-254.68 201.73,-258.99"/>
<text text-anchor="middle" x="103" y="-254.44" font-family="Helvetica,sans-Serif" font-size="10.00">extrude.scad</text>
</g>
<!-- Node1&#45;&gt;Node6 -->
<g id="edge5" class="edge">
<title>Node1&#45;&gt;Node6</title>
<path fill="none" stroke="black" d="M31.53,-180.93C37.95,-190.75 47.29,-201.91 59,-207.44 104.37,-228.85 164.54,-222.1 199.48,-215.26"/>
<polygon fill="black" stroke="black" points="34.41,-178.93 26.27,-172.15 28.4,-182.53 34.41,-178.93"/>
</g>
<!-- Node1&#45;&gt;Node6 -->
<g id="edge10" class="edge">
<title>Node1&#45;&gt;Node6</title>
<path fill="none" stroke="darkgreen" stroke-dasharray="5,2" d="M41.3,-166.85C78.05,-175.03 156.91,-192.6 199.43,-202.07"/>
<text text-anchor="middle" x="103" y="-192.44" font-family="Helvetica,sans-Serif" font-size="10.00">polytope.scad</text>
</g>
<!-- Node1&#45;&gt;Node2 -->
<g id="edge1" class="edge">
<title>Node1&#45;&gt;Node2</title>
<path fill="none" stroke="black" d="M51.32,-160.56C89.63,-158.15 155.9,-153.97 195.48,-151.48"/>
<polygon fill="black" stroke="black" points="51.06,-157.07 41.3,-161.19 51.5,-164.05 51.06,-157.07"/>
</g>
<!-- Node1&#45;&gt;Node2 -->
<g id="edge7" class="edge">
<title>Node1&#45;&gt;Node2</title>
<path fill="none" stroke="darkgreen" stroke-dasharray="5,2" d="M33.19,-152.93C40.22,-147.84 49.59,-142.09 59,-139.44 104.97,-126.46 160.67,-133.99 195.23,-141.22"/>
<text text-anchor="middle" x="103" y="-142.44" font-family="Helvetica,sans-Serif" font-size="10.00">align.scad</text>
</g>
<!-- Node1&#45;&gt;Node7 -->
<g id="edge6" class="edge">
<title>Node1&#45;&gt;Node7</title>
<path fill="none" stroke="black" d="M36.27,-145.14C42.65,-138.69 50.57,-131.86 59,-127.44 106.21,-102.66 169.2,-94.46 203.39,-91.75"/>
<polygon fill="black" stroke="black" points="33.31,-143.19 29.1,-152.91 38.46,-147.94 33.31,-143.19"/>
</g>
<!-- Node1&#45;&gt;Node7 -->
<g id="edge11" class="edge">
<title>Node1&#45;&gt;Node7</title>
<path fill="none" stroke="darkgreen" stroke-dasharray="5,2" d="M22.83,-152.86C25.79,-135.61 34.71,-99.71 59,-84.44 103.49,-56.46 168.39,-70.54 203.4,-81.54"/>
<text text-anchor="middle" x="103" y="-87.44" font-family="Helvetica,sans-Serif" font-size="10.00">repeat.scad</text>
</g>
<!-- Node1&#45;&gt;Node3 -->
<g id="edge2" class="edge">
<title>Node1&#45;&gt;Node3</title>
<path fill="none" stroke="black" d="M23.33,-142.63C26.53,-119.94 35.27,-83.34 59,-63.44 88.06,-39.06 129.88,-31 164.64,-29.06"/>
<polygon fill="black" stroke="black" points="19.83,-142.45 22.14,-152.79 26.78,-143.27 19.83,-142.45"/>
</g>
<!-- Node1&#45;&gt;Node3 -->
<g id="edge9" class="edge">
<title>Node1&#45;&gt;Node3</title>
<path fill="none" stroke="darkgreen" stroke-dasharray="5,2" d="M22.51,-152.55C25.79,-122.68 37.21,-34.31 59,-17.44 102.76,16.45 173.39,-6.98 207.83,-21.82"/>
<text text-anchor="middle" x="103" y="-20.44" font-family="Helvetica,sans-Serif" font-size="10.00">operation_cs.scad</text>
</g>
</g>
</svg>
