<?xml version="1.0" encoding="UTF-8" standalone="no"?>
<!DOCTYPE svg PUBLIC "-//W3C//DTD SVG 1.1//EN"
 "http://www.w3.org/Graphics/SVG/1.1/DTD/svg11.dtd">
<!-- Generated by graphviz version 2.43.0 (0)
 -->
<!-- Title: align_ll Pages: 1 -->
<svg width="176pt" height="294pt"
 viewBox="0.00 0.00 176.00 294.00" xmlns="http://www.w3.org/2000/svg" xmlns:xlink="http://www.w3.org/1999/xlink">
<g id="graph0" class="graph" transform="scale(1 1) rotate(0) translate(4 290)">
<title>align_ll</title>
<polygon fill="white" stroke="transparent" points="-4,4 -4,-290 172,-290 172,4 -4,4"/>
<!-- Node1 -->
<g id="node1" class="node">
<title>Node1</title>
<g id="a_node1"><a xlink:title="Align a line or vector to a reference line or vector.">
<polygon fill="#bfbfbf" stroke="black" points="0,-133.5 0,-152.5 52,-152.5 52,-133.5 0,-133.5"/>
<text text-anchor="middle" x="26" y="-140.5" font-family="Helvetica,sans-Serif" font-size="10.00">align_ll</text>
</a>
</g>
</g>
<!-- Node2 -->
<g id="node2" class="node">
<title>Node2</title>
<g id="a_node2"><a xlink:href="group__datatypes__euclidean.html#ga3d5c07c70f271bcf9144f50ce8620a89" target="_top" xlink:title="Compute the angle between two lines or vectors in a 3d or 2d&#45;space.">
<polygon fill="white" stroke="black" points="100.5,-266.5 100.5,-285.5 155.5,-285.5 155.5,-266.5 100.5,-266.5"/>
<text text-anchor="middle" x="128" y="-273.5" font-family="Helvetica,sans-Serif" font-size="10.00">angle_ll</text>
</a>
</g>
</g>
<!-- Node1&#45;&gt;Node2 -->
<g id="edge1" class="edge">
<title>Node1&#45;&gt;Node2</title>
<path fill="none" stroke="midnightblue" d="M29.84,-152.51C36.62,-173.8 55.66,-225.86 88,-257 89.46,-258.41 91.05,-259.73 92.73,-260.98"/>
<polygon fill="midnightblue" stroke="midnightblue" points="91.24,-264.17 101.57,-266.49 94.94,-258.23 91.24,-264.17"/>
</g>
<!-- Node3 -->
<g id="node3" class="node">
<title>Node3</title>
<g id="a_node3"><a xlink:href="group__datatypes__euclidean.html#ga882329ee346d5a7f9d0877afd115c3de" target="_top" xlink:title="Compute the cross product of two lines or vectors in a 3d or 2d&#45;space.">
<polygon fill="white" stroke="black" points="101.5,-228.5 101.5,-247.5 154.5,-247.5 154.5,-228.5 101.5,-228.5"/>
<text text-anchor="middle" x="128" y="-235.5" font-family="Helvetica,sans-Serif" font-size="10.00">cross_ll</text>
</a>
</g>
</g>
<!-- Node1&#45;&gt;Node3 -->
<g id="edge2" class="edge">
<title>Node1&#45;&gt;Node3</title>
<path fill="none" stroke="midnightblue" d="M32.67,-152.53C42.35,-168.14 63.41,-199.36 88,-219 89.82,-220.45 91.76,-221.83 93.78,-223.13"/>
<polygon fill="midnightblue" stroke="midnightblue" points="92.48,-226.42 102.9,-228.33 95.95,-220.34 92.48,-226.42"/>
</g>
<!-- Node4 -->
<g id="node4" class="node">
<title>Node4</title>
<g id="a_node4"><a xlink:href="group__datatypes__euclidean.html#ga8115b05f16bcc197e3e339a65f4d3e49" target="_top" xlink:title="Return the initial point of a line or vector.">
<polygon fill="white" stroke="black" points="103.5,-190.5 103.5,-209.5 152.5,-209.5 152.5,-190.5 103.5,-190.5"/>
<text text-anchor="middle" x="128" y="-197.5" font-family="Helvetica,sans-Serif" font-size="10.00">line_ip</text>
</a>
</g>
</g>
<!-- Node1&#45;&gt;Node4 -->
<g id="edge3" class="edge">
<title>Node1&#45;&gt;Node4</title>
<path fill="none" stroke="midnightblue" d="M41.78,-152.81C53.98,-160.76 71.84,-172.06 88,-181 90.9,-182.6 93.96,-184.22 97.03,-185.79"/>
<polygon fill="midnightblue" stroke="midnightblue" points="95.64,-189.01 106.15,-190.34 98.76,-182.74 95.64,-189.01"/>
</g>
<!-- Node5 -->
<g id="node5" class="node">
<title>Node5</title>
<g id="a_node5"><a xlink:href="group__datatypes__euclidean.html#ga299bce4158dc8d0a7a8e7d9967b8ea4e" target="_top" xlink:title="Return the terminal point of a line or vector.">
<polygon fill="white" stroke="black" points="103,-152.5 103,-171.5 153,-171.5 153,-152.5 103,-152.5"/>
<text text-anchor="middle" x="128" y="-159.5" font-family="Helvetica,sans-Serif" font-size="10.00">line_tp</text>
</a>
</g>
</g>
<!-- Node1&#45;&gt;Node5 -->
<g id="edge4" class="edge">
<title>Node1&#45;&gt;Node5</title>
<path fill="none" stroke="midnightblue" d="M52.23,-147.79C64.47,-150.12 79.35,-152.95 92.61,-155.47"/>
<polygon fill="midnightblue" stroke="midnightblue" points="92.33,-158.98 102.81,-157.4 93.64,-152.1 92.33,-158.98"/>
</g>
<!-- Node6 -->
<g id="node6" class="node">
<title>Node6</title>
<g id="a_node6"><a xlink:href="group__datatypes__list__operate.html#ga1088f9b09ff8ed12e2c844758f39c039" target="_top" xlink:title="Compute the mean/average of a list of numbers.">
<polygon fill="white" stroke="black" points="106,-114.5 106,-133.5 150,-133.5 150,-114.5 106,-114.5"/>
<text text-anchor="middle" x="128" y="-121.5" font-family="Helvetica,sans-Serif" font-size="10.00">mean</text>
</a>
</g>
</g>
<!-- Node1&#45;&gt;Node6 -->
<g id="edge5" class="edge">
<title>Node1&#45;&gt;Node6</title>
<path fill="none" stroke="midnightblue" d="M52.23,-138.21C65.42,-135.7 81.68,-132.61 95.67,-129.95"/>
<polygon fill="midnightblue" stroke="midnightblue" points="96.66,-133.33 105.83,-128.02 95.35,-126.45 96.66,-133.33"/>
</g>
<!-- Node7 -->
<g id="node7" class="node">
<title>Node7</title>
<g id="a_node7"><a xlink:href="group__datatypes__euclidean.html#ga78d67c74076bef2e80a95b1e9b6eb2d7" target="_top" xlink:title="Return 3d point unchanged or add a zeroed third dimension to 2d point.">
<polygon fill="white" stroke="black" points="91,-76.5 91,-95.5 165,-95.5 165,-76.5 91,-76.5"/>
<text text-anchor="middle" x="128" y="-83.5" font-family="Helvetica,sans-Serif" font-size="10.00">point_to_3d</text>
</a>
</g>
</g>
<!-- Node1&#45;&gt;Node7 -->
<g id="edge6" class="edge">
<title>Node1&#45;&gt;Node7</title>
<path fill="none" stroke="midnightblue" d="M41.78,-133.19C53.98,-125.24 71.84,-113.94 88,-105 90.9,-103.4 93.96,-101.78 97.03,-100.21"/>
<polygon fill="midnightblue" stroke="midnightblue" points="98.76,-103.26 106.15,-95.66 95.64,-96.99 98.76,-103.26"/>
</g>
<!-- Node8 -->
<g id="node8" class="node">
<title>Node8</title>
<g id="a_node8"><a xlink:href="group__datatypes__list__operate.html#ga7b8e6f2bbfa72ae61e39377e5ca6b5be" target="_top" xlink:title="Select specified element from list or return a default.">
<polygon fill="white" stroke="black" points="98.5,-38.5 98.5,-57.5 157.5,-57.5 157.5,-38.5 98.5,-38.5"/>
<text text-anchor="middle" x="128" y="-45.5" font-family="Helvetica,sans-Serif" font-size="10.00">select_ci</text>
</a>
</g>
</g>
<!-- Node1&#45;&gt;Node8 -->
<g id="edge7" class="edge">
<title>Node1&#45;&gt;Node8</title>
<path fill="none" stroke="midnightblue" d="M32.67,-133.47C42.35,-117.86 63.41,-86.64 88,-67 89.82,-65.55 91.76,-64.17 93.78,-62.87"/>
<polygon fill="midnightblue" stroke="midnightblue" points="95.95,-65.66 102.9,-57.67 92.48,-59.58 95.95,-65.66"/>
</g>
<!-- Node9 -->
<g id="node9" class="node">
<title>Node9</title>
<g id="a_node9"><a xlink:href="group__datatypes__euclidean.html#ga6ef2a81f304d31b9ec9753ca4875ad45" target="_top" xlink:title="Convert line to vector by shifting it to the origin.">
<polygon fill="white" stroke="black" points="88,-0.5 88,-19.5 168,-19.5 168,-0.5 88,-0.5"/>
<text text-anchor="middle" x="128" y="-7.5" font-family="Helvetica,sans-Serif" font-size="10.00">vol_to_origin</text>
</a>
</g>
</g>
<!-- Node1&#45;&gt;Node9 -->
<g id="edge8" class="edge">
<title>Node1&#45;&gt;Node9</title>
<path fill="none" stroke="midnightblue" d="M29.84,-133.49C36.62,-112.2 55.66,-60.14 88,-29 89.46,-27.59 91.05,-26.27 92.73,-25.02"/>
<polygon fill="midnightblue" stroke="midnightblue" points="94.94,-27.77 101.57,-19.51 91.24,-21.83 94.94,-27.77"/>
</g>
</g>
</svg>
