<?xml version="1.0" encoding="UTF-8" standalone="no"?>
<!DOCTYPE svg PUBLIC "-//W3C//DTD SVG 1.1//EN"
 "http://www.w3.org/Graphics/SVG/1.1/DTD/svg11.dtd">
<!-- Generated by graphviz version 2.43.0 (0)
 -->
<!-- Title: Motion Pages: 1 -->
<svg width="410pt" height="90pt"
 viewBox="0.00 0.00 410.00 89.54" xmlns="http://www.w3.org/2000/svg" xmlns:xlink="http://www.w3.org/1999/xlink">
<g id="graph0" class="graph" transform="scale(1 1) rotate(0) translate(4 85.54)">
<title>Motion</title>
<polygon fill="white" stroke="transparent" points="-4,4 -4,-85.54 406,-85.54 406,4 -4,4"/>
<!-- Node3 -->
<g id="node1" class="node">
<title>Node3</title>
<g id="a_node1"><a xlink:href="group__models__3d__motion__bearing__linear__lmxuu.html" target="_top" xlink:title="Linear motion bearing model.">
<polygon fill="white" stroke="black" points="402,-75.96 322,-75.96 322,-56.96 402,-56.96 402,-75.96"/>
<text text-anchor="middle" x="362" y="-63.96" font-family="Helvetica,sans-Serif" font-size="10.00">Linear lmxuu</text>
</a>
</g>
</g>
<!-- Node4 -->
<g id="node2" class="node">
<title>Node4</title>
<g id="a_node2"><a xlink:href="group__models__3d__motion__bearing__radial__ball.html" target="_top" xlink:title="Rotary motion radial ball bearing model.">
<polygon fill="white" stroke="black" points="396.5,-27.96 327.5,-27.96 327.5,-8.96 396.5,-8.96 396.5,-27.96"/>
<text text-anchor="middle" x="362" y="-15.96" font-family="Helvetica,sans-Serif" font-size="10.00">Radial Ball</text>
</a>
</g>
</g>
<!-- Node2 -->
<g id="node3" class="node">
<title>Node2</title>
<g id="a_node3"><a xlink:href="group__models__3d.html" target="_top" xlink:title="3d black&#45;box models of commodity components.">
<polygon fill="white" stroke="black" points="67,-51.96 0,-51.96 0,-32.96 67,-32.96 67,-51.96"/>
<text text-anchor="middle" x="33.5" y="-39.96" font-family="Helvetica,sans-Serif" font-size="10.00">3d Models</text>
</a>
</g>
</g>
<!-- Node1 -->
<g id="node4" class="node">
<title>Node1</title>
<g id="a_node4"><a xlink:title="Building blocks for basic mechanical motion.">
<polygon fill="#bfbfbf" stroke="black" points="154,-51.96 104,-51.96 104,-32.96 154,-32.96 154,-51.96"/>
<text text-anchor="middle" x="129" y="-39.96" font-family="Helvetica,sans-Serif" font-size="10.00">Motion</text>
</a>
</g>
</g>
<!-- Node2&#45;&gt;Node1 -->
<g id="edge1" class="edge">
<title>Node2&#45;&gt;Node1</title>
<path fill="none" stroke="black" d="M77.28,-42.46C86.35,-42.46 95.62,-42.46 103.72,-42.46"/>
<polygon fill="black" stroke="black" points="77.2,-38.96 67.2,-42.46 77.2,-45.96 77.2,-38.96"/>
</g>
<!-- Node1&#45;&gt;Node3 -->
<g id="edge2" class="edge">
<title>Node1&#45;&gt;Node3</title>
<path fill="none" stroke="black" d="M148.1,-58.51C155.07,-63.69 163.43,-68.79 172,-71.46 221.98,-87.04 283.05,-81.26 321.99,-74.7"/>
<polygon fill="black" stroke="black" points="150.08,-55.61 140.09,-52.07 145.69,-61.07 150.08,-55.61"/>
</g>
<!-- Node1&#45;&gt;Node3 -->
<g id="edge4" class="edge">
<title>Node1&#45;&gt;Node3</title>
<path fill="none" stroke="darkgreen" stroke-dasharray="5,2" d="M154.25,-44.32C187.9,-46.99 250.66,-52.27 304,-58.46 309.76,-59.13 315.83,-59.9 321.78,-60.7"/>
<text text-anchor="middle" x="238" y="-61.46" font-family="Helvetica,sans-Serif" font-size="10.00">bearing_linear_lmxuu.scad</text>
</g>
<!-- Node1&#45;&gt;Node4 -->
<g id="edge3" class="edge">
<title>Node1&#45;&gt;Node4</title>
<path fill="none" stroke="black" d="M164.48,-38.88C208.42,-34.31 283.88,-26.47 327.4,-21.95"/>
<polygon fill="black" stroke="black" points="163.87,-35.42 154.28,-39.94 164.59,-42.38 163.87,-35.42"/>
</g>
<!-- Node1&#45;&gt;Node4 -->
<g id="edge5" class="edge">
<title>Node1&#45;&gt;Node4</title>
<path fill="none" stroke="darkgreen" stroke-dasharray="5,2" d="M138.94,-32.8C146.79,-25.09 158.97,-14.86 172,-10.46 223.97,7.08 288.56,-1.67 327.2,-9.87"/>
<text text-anchor="middle" x="238" y="-13.46" font-family="Helvetica,sans-Serif" font-size="10.00">bearing_radial_ball.scad</text>
</g>
</g>
</svg>
