<?xml version="1.0" encoding="UTF-8" standalone="no"?>
<!DOCTYPE svg PUBLIC "-//W3C//DTD SVG 1.1//EN"
 "http://www.w3.org/Graphics/SVG/1.1/DTD/svg11.dtd">
<!-- Generated by graphviz version 2.43.0 (0)
 -->
<!-- Title: Linear lmxuu Pages: 1 -->
<svg width="306pt" height="29pt"
 viewBox="0.00 0.00 306.00 28.50" xmlns="http://www.w3.org/2000/svg" xmlns:xlink="http://www.w3.org/1999/xlink">
<g id="graph0" class="graph" transform="scale(1 1) rotate(0) translate(4 24.5)">
<title>Linear lmxuu</title>
<polygon fill="white" stroke="transparent" points="-4,4 -4,-24.5 302,-24.5 302,4 -4,4"/>
<!-- Node1 -->
<g id="node1" class="node">
<title>Node1</title>
<g id="a_node1"><a xlink:title="Linear motion bearing model.">
<polygon fill="#bfbfbf" stroke="black" points="80,-19 0,-19 0,0 80,0 80,-19"/>
<text text-anchor="middle" x="40" y="-7" font-family="Helvetica,sans-Serif" font-size="10.00">Linear lmxuu</text>
</a>
</g>
</g>
<!-- Node2 -->
<g id="node2" class="node">
<title>Node2</title>
<g id="a_node2"><a xlink:href="group__models__3d__motion.html" target="_top" xlink:title="Building blocks for basic mechanical motion.">
<polygon fill="white" stroke="black" points="298,-19 248,-19 248,0 298,0 298,-19"/>
<text text-anchor="middle" x="273" y="-7" font-family="Helvetica,sans-Serif" font-size="10.00">Motion</text>
</a>
</g>
</g>
<!-- Node1&#45;&gt;Node2 -->
<g id="edge2" class="edge">
<title>Node1&#45;&gt;Node2</title>
<path fill="none" stroke="darkgreen" stroke-dasharray="5,2" d="M80.19,-9.5C128.2,-9.5 208.06,-9.5 247.88,-9.5"/>
<text text-anchor="middle" x="164" y="-12.5" font-family="Helvetica,sans-Serif" font-size="10.00">bearing_linear_lmxuu.scad</text>
</g>
<!-- Node2&#45;&gt;Node1 -->
<g id="edge1" class="edge">
<title>Node2&#45;&gt;Node1</title>
<path fill="none" stroke="black" d="M237.37,-7.72C234.88,-7.63 232.4,-7.56 230,-7.5 171.35,-6.1 156.66,-6.47 98,-7.5 92.26,-7.6 86.19,-7.76 80.24,-7.94"/>
<polygon fill="black" stroke="black" points="237.44,-11.23 247.58,-8.14 237.73,-4.23 237.44,-11.23"/>
</g>
</g>
</svg>
