<?xml version="1.0" encoding="UTF-8" standalone="no"?>
<!DOCTYPE svg PUBLIC "-//W3C//DTD SVG 1.1//EN"
 "http://www.w3.org/Graphics/SVG/1.1/DTD/svg11.dtd">
<!-- Generated by graphviz version 2.43.0 (0)
 -->
<!-- Title: Bearing Pages: 1 -->
<svg width="264pt" height="64pt"
 viewBox="0.00 0.00 264.00 64.00" xmlns="http://www.w3.org/2000/svg" xmlns:xlink="http://www.w3.org/1999/xlink">
<g id="graph0" class="graph" transform="scale(1 1) rotate(0) translate(4 60)">
<title>Bearing</title>
<polygon fill="white" stroke="transparent" points="-4,4 -4,-60 260,-60 260,4 -4,4"/>
<!-- Node3 -->
<g id="node1" class="node">
<title>Node3</title>
<g id="a_node1"><a xlink:href="group__database__component__motion__bearing__linear__lmxuu.html" target="_top" xlink:title="[bearing] Linear motion bearing; linear_lmxuu; lm.">
<polygon fill="white" stroke="black" points="256,-56 176,-56 176,-37 256,-37 256,-56"/>
<text text-anchor="middle" x="216" y="-44" font-family="Helvetica,sans-Serif" font-size="10.00">linear_lmxuu</text>
</a>
</g>
</g>
<!-- Node1 -->
<g id="node2" class="node">
<title>Node1</title>
<g id="a_node2"><a xlink:title=" ">
<polygon fill="#bfbfbf" stroke="black" points="140,-37 86,-37 86,-18 140,-18 140,-37"/>
<text text-anchor="middle" x="113" y="-25" font-family="Helvetica,sans-Serif" font-size="10.00">Bearing</text>
</a>
</g>
</g>
<!-- Node1&#45;&gt;Node3 -->
<g id="edge2" class="edge">
<title>Node1&#45;&gt;Node3</title>
<path fill="none" stroke="black" d="M149.87,-34.25C158.25,-35.82 167.21,-37.51 175.73,-39.11"/>
<polygon fill="black" stroke="black" points="150.48,-30.8 140.01,-32.39 149.19,-37.68 150.48,-30.8"/>
</g>
<!-- Node4 -->
<g id="node3" class="node">
<title>Node4</title>
<g id="a_node3"><a xlink:href="group__database__component__motion__bearing__radial__ball.html" target="_top" xlink:title="[bearing] Radial ball bearing; radial_ball; rbb.">
<polygon fill="white" stroke="black" points="250,-19 182,-19 182,0 250,0 250,-19"/>
<text text-anchor="middle" x="216" y="-7" font-family="Helvetica,sans-Serif" font-size="10.00">radial_ball</text>
</a>
</g>
</g>
<!-- Node1&#45;&gt;Node4 -->
<g id="edge3" class="edge">
<title>Node1&#45;&gt;Node4</title>
<path fill="none" stroke="black" d="M150.01,-21.08C160.38,-19.23 171.63,-17.23 181.82,-15.41"/>
<polygon fill="black" stroke="black" points="149.24,-17.66 140.01,-22.86 150.47,-24.56 149.24,-17.66"/>
</g>
<!-- Node2 -->
<g id="node4" class="node">
<title>Node2</title>
<g id="a_node4"><a xlink:href="group__database__component__motion.html" target="_top" xlink:title="Mechanical motion design component specifications.">
<polygon fill="white" stroke="black" points="50,-37 0,-37 0,-18 50,-18 50,-37"/>
<text text-anchor="middle" x="25" y="-25" font-family="Helvetica,sans-Serif" font-size="10.00">Motion</text>
</a>
</g>
</g>
<!-- Node2&#45;&gt;Node1 -->
<g id="edge1" class="edge">
<title>Node2&#45;&gt;Node1</title>
<path fill="none" stroke="black" d="M60.67,-27.5C69.02,-27.5 77.82,-27.5 85.72,-27.5"/>
<polygon fill="black" stroke="black" points="60.41,-24 50.41,-27.5 60.41,-31 60.41,-24"/>
</g>
</g>
</svg>
