<?xml version="1.0" encoding="UTF-8" standalone="no"?>
<!DOCTYPE svg PUBLIC "-//W3C//DTD SVG 1.1//EN"
 "http://www.w3.org/Graphics/SVG/1.1/DTD/svg11.dtd">
<!-- Generated by graphviz version 2.43.0 (0)
 -->
<!-- Title: Shapes Pages: 1 -->
<svg width="286pt" height="290pt"
 viewBox="0.00 0.00 286.00 289.71" xmlns="http://www.w3.org/2000/svg" xmlns:xlink="http://www.w3.org/1999/xlink">
<g id="graph0" class="graph" transform="scale(1 1) rotate(0) translate(4 285.71)">
<title>Shapes</title>
<polygon fill="white" stroke="transparent" points="-4,4 -4,-285.71 282,-285.71 282,4 -4,4"/>
<!-- Node6 -->
<g id="node1" class="node">
<title>Node6</title>
<g id="a_node1"><a xlink:href="group__shapes__revolved.html" target="_top" xlink:title="Select 2D shapes revolved about the z&#45;axis.">
<polygon fill="white" stroke="black" points="269,-268.85 195,-268.85 195,-249.85 269,-249.85 269,-268.85"/>
<text text-anchor="middle" x="232" y="-256.85" font-family="Helvetica,sans-Serif" font-size="10.00">Revolutions</text>
</a>
</g>
</g>
<!-- Node1 -->
<g id="node2" class="node">
<title>Node1</title>
<g id="a_node2"><a xlink:title="Geometric shapes and basic constructs.">
<polygon fill="#bfbfbf" stroke="black" points="52,-156.85 0,-156.85 0,-137.85 52,-137.85 52,-156.85"/>
<text text-anchor="middle" x="26" y="-144.85" font-family="Helvetica,sans-Serif" font-size="10.00">Shapes</text>
</a>
</g>
</g>
<!-- Node1&#45;&gt;Node6 -->
<g id="edge5" class="edge">
<title>Node1&#45;&gt;Node6</title>
<path fill="none" stroke="black" d="M27.76,-167.35C30,-194.55 38.48,-242.35 70,-264.35 110.25,-292.44 170.98,-279.66 205.19,-268.85"/>
<polygon fill="black" stroke="black" points="31.24,-166.85 27.13,-157.09 24.25,-167.28 31.24,-166.85"/>
</g>
<!-- Node1&#45;&gt;Node6 -->
<g id="edge9" class="edge">
<title>Node1&#45;&gt;Node6</title>
<path fill="none" stroke="darkgreen" stroke-dasharray="5,2" d="M29.3,-157.01C33.89,-174.1 45.91,-209.53 70,-227.35 79.94,-234.7 150.36,-246.79 194.71,-253.81"/>
<text text-anchor="middle" x="119" y="-251.35" font-family="Helvetica,sans-Serif" font-size="10.00">revolved.scad</text>
</g>
<!-- Node2 -->
<g id="node3" class="node">
<title>Node2</title>
<g id="a_node3"><a xlink:href="group__shapes__basic__2d.html" target="_top" xlink:title="Basic 2D shape.">
<polygon fill="white" stroke="black" points="261,-220.85 203,-220.85 203,-201.85 261,-201.85 261,-220.85"/>
<text text-anchor="middle" x="232" y="-208.85" font-family="Helvetica,sans-Serif" font-size="10.00">Basic 2d</text>
</a>
</g>
</g>
<!-- Node1&#45;&gt;Node2 -->
<g id="edge1" class="edge">
<title>Node1&#45;&gt;Node2</title>
<path fill="none" stroke="black" d="M35.4,-166.27C42.51,-179.77 54.09,-196.97 70,-205.35 112.07,-227.52 169.26,-222.89 202.94,-217.28"/>
<polygon fill="black" stroke="black" points="38.36,-164.34 30.84,-156.87 32.06,-167.39 38.36,-164.34"/>
</g>
<!-- Node1&#45;&gt;Node2 -->
<g id="edge6" class="edge">
<title>Node1&#45;&gt;Node2</title>
<path fill="none" stroke="darkgreen" stroke-dasharray="5,2" d="M52.45,-155.7C58.21,-157.57 64.31,-159.54 70,-161.35 116.44,-176.12 170.58,-192.83 202.75,-202.71"/>
<text text-anchor="middle" x="119" y="-193.35" font-family="Helvetica,sans-Serif" font-size="10.00">basic_2d.scad</text>
</g>
<!-- Node3 -->
<g id="node4" class="node">
<title>Node3</title>
<g id="a_node4"><a xlink:href="group__shapes__basic__3d.html" target="_top" xlink:title="Basic 3D shapes.">
<polygon fill="white" stroke="black" points="261,-156.85 203,-156.85 203,-137.85 261,-137.85 261,-156.85"/>
<text text-anchor="middle" x="232" y="-144.85" font-family="Helvetica,sans-Serif" font-size="10.00">Basic 3d</text>
</a>
</g>
</g>
<!-- Node1&#45;&gt;Node3 -->
<g id="edge2" class="edge">
<title>Node1&#45;&gt;Node3</title>
<path fill="none" stroke="black" d="M62.07,-147.35C101.91,-147.35 166.12,-147.35 202.84,-147.35"/>
<polygon fill="black" stroke="black" points="62.01,-143.85 52.01,-147.35 62.01,-150.85 62.01,-143.85"/>
</g>
<!-- Node1&#45;&gt;Node3 -->
<g id="edge7" class="edge">
<title>Node1&#45;&gt;Node3</title>
<path fill="none" stroke="darkgreen" stroke-dasharray="5,2" d="M51.68,-137.85C57.6,-135.98 63.95,-134.31 70,-133.35 113.02,-126.52 124.7,-128.6 168,-133.35 179.58,-134.62 192.15,-137.17 202.99,-139.75"/>
<text text-anchor="middle" x="119" y="-136.35" font-family="Helvetica,sans-Serif" font-size="10.00">basic_3d.scad</text>
</g>
<!-- Node5 -->
<g id="node5" class="node">
<title>Node5</title>
<g id="a_node5"><a xlink:href="group__shapes__polyhedron__db.html" target="_top" xlink:title="Sizable polyhedra generated from shape database.">
<polygon fill="white" stroke="black" points="278,-97.85 186,-97.85 186,-78.85 278,-78.85 278,-97.85"/>
<text text-anchor="middle" x="232" y="-85.85" font-family="Helvetica,sans-Serif" font-size="10.00">Polyhedrons db</text>
</a>
</g>
</g>
<!-- Node1&#45;&gt;Node5 -->
<g id="edge4" class="edge">
<title>Node1&#45;&gt;Node5</title>
<path fill="none" stroke="black" d="M51.31,-132.88C57.28,-129.74 63.75,-126.67 70,-124.35 107.99,-110.24 153.17,-100.73 185.99,-95.05"/>
<polygon fill="black" stroke="black" points="49.51,-129.87 42.45,-137.77 52.9,-136 49.51,-129.87"/>
</g>
<!-- Node1&#45;&gt;Node5 -->
<g id="edge10" class="edge">
<title>Node1&#45;&gt;Node5</title>
<path fill="none" stroke="darkgreen" stroke-dasharray="5,2" d="M30.13,-137.76C35.56,-122.93 48.26,-94.93 70,-83.35 110.97,-61.52 166.5,-70.1 200.49,-78.84"/>
<text text-anchor="middle" x="119" y="-86.35" font-family="Helvetica,sans-Serif" font-size="10.00">polyhedron_db.scad</text>
</g>
<!-- Node4 -->
<g id="node6" class="node">
<title>Node4</title>
<g id="a_node6"><a xlink:href="group__shapes__polygon.html" target="_top" xlink:title="Roundable polygons generated in 2D space.">
<polygon fill="white" stroke="black" points="262.5,-38.85 201.5,-38.85 201.5,-19.85 262.5,-19.85 262.5,-38.85"/>
<text text-anchor="middle" x="232" y="-26.85" font-family="Helvetica,sans-Serif" font-size="10.00">Polygons</text>
</a>
</g>
</g>
<!-- Node1&#45;&gt;Node4 -->
<g id="edge3" class="edge">
<title>Node1&#45;&gt;Node4</title>
<path fill="none" stroke="black" d="M31.95,-128.15C37.83,-109.26 49.53,-81.04 70,-65.35 108.53,-35.82 166.62,-29.61 201.48,-28.79"/>
<polygon fill="black" stroke="black" points="28.58,-127.21 29.2,-137.79 35.31,-129.13 28.58,-127.21"/>
</g>
<!-- Node1&#45;&gt;Node4 -->
<g id="edge8" class="edge">
<title>Node1&#45;&gt;Node4</title>
<path fill="none" stroke="darkgreen" stroke-dasharray="5,2" d="M26.71,-137.62C26.56,-112.47 30.06,-45.27 70,-16.35 111.9,14 177.03,-6.15 210.14,-19.77"/>
<text text-anchor="middle" x="119" y="-19.35" font-family="Helvetica,sans-Serif" font-size="10.00">polygon.scad</text>
</g>
</g>
</svg>
