<?xml version="1.0" encoding="UTF-8" standalone="no"?>
<!DOCTYPE svg PUBLIC "-//W3C//DTD SVG 1.1//EN"
 "http://www.w3.org/Graphics/SVG/1.1/DTD/svg11.dtd">
<!-- Generated by graphviz version 2.43.0 (0)
 -->
<!-- Title: Hinges Pages: 1 -->
<svg width="210pt" height="29pt"
 viewBox="0.00 0.00 210.00 28.50" xmlns="http://www.w3.org/2000/svg" xmlns:xlink="http://www.w3.org/1999/xlink">
<g id="graph0" class="graph" transform="scale(1 1) rotate(0) translate(4 24.5)">
<title>Hinges</title>
<polygon fill="white" stroke="transparent" points="-4,4 -4,-24.5 206,-24.5 206,4 -4,4"/>
<!-- Node1 -->
<g id="node1" class="node">
<title>Node1</title>
<g id="a_node1"><a xlink:title="Print&#45;in&#45;place hinge generators.">
<polygon fill="#bfbfbf" stroke="black" points="50,-19 0,-19 0,0 50,0 50,-19"/>
<text text-anchor="middle" x="25" y="-7" font-family="Helvetica,sans-Serif" font-size="10.00">Hinges</text>
</a>
</g>
</g>
<!-- Node2 -->
<g id="node2" class="node">
<title>Node2</title>
<g id="a_node2"><a xlink:href="group__parts__3d__fastener.html" target="_top" xlink:title="Fasteners, connectors, joiners, latches, and hinges.">
<polygon fill="white" stroke="black" points="202,-19 144,-19 144,0 202,0 202,-19"/>
<text text-anchor="middle" x="173" y="-7" font-family="Helvetica,sans-Serif" font-size="10.00">Fastener</text>
</a>
</g>
</g>
<!-- Node1&#45;&gt;Node2 -->
<g id="edge2" class="edge">
<title>Node1&#45;&gt;Node2</title>
<path fill="none" stroke="darkgreen" stroke-dasharray="5,2" d="M50.11,-9.5C75.86,-9.5 116.65,-9.5 143.86,-9.5"/>
<text text-anchor="middle" x="97" y="-12.5" font-family="Helvetica,sans-Serif" font-size="10.00">hinges.scad</text>
</g>
<!-- Node2&#45;&gt;Node1 -->
<g id="edge1" class="edge">
<title>Node2&#45;&gt;Node1</title>
<path fill="none" stroke="black" d="M133.73,-7.71C131.11,-7.63 128.52,-7.55 126,-7.5 100.23,-6.94 93.77,-6.89 68,-7.5 62.31,-7.64 56.19,-7.87 50.42,-8.14"/>
<polygon fill="black" stroke="black" points="133.67,-11.21 143.79,-8.08 133.92,-4.21 133.67,-11.21"/>
</g>
</g>
</svg>
