<?xml version="1.0" encoding="UTF-8" standalone="no"?>
<!DOCTYPE svg PUBLIC "-//W3C//DTD SVG 1.1//EN"
 "http://www.w3.org/Graphics/SVG/1.1/DTD/svg11.dtd">
<!-- Generated by graphviz version 2.43.0 (0)
 -->
<!-- Title: sort_q Pages: 1 -->
<svg width="162pt" height="66pt"
 viewBox="0.00 0.00 162.00 66.00" xmlns="http://www.w3.org/2000/svg" xmlns:xlink="http://www.w3.org/1999/xlink">
<g id="graph0" class="graph" transform="scale(1 1) rotate(0) translate(4 62)">
<title>sort_q</title>
<polygon fill="white" stroke="transparent" points="-4,4 -4,-62 158,-62 158,4 -4,4"/>
<!-- Node1 -->
<g id="node1" class="node">
<title>Node1</title>
<g id="a_node1"><a xlink:title="Sort the elements of an iterable value using quick sort.">
<polygon fill="#bfbfbf" stroke="black" points="107,-19.5 107,-38.5 154,-38.5 154,-19.5 107,-19.5"/>
<text text-anchor="middle" x="130.5" y="-26.5" font-family="Helvetica,sans-Serif" font-size="10.00">sort_q</text>
</a>
</g>
</g>
<!-- Node2 -->
<g id="node2" class="node">
<title>Node2</title>
<g id="a_node2"><a xlink:href="group__datatypes__map.html#ga680cb75c8d9f3769064128e9c3d5800e" target="_top" xlink:title="Dump each map entry to the console.">
<polygon fill="white" stroke="black" points="0,-38.5 0,-57.5 71,-57.5 71,-38.5 0,-38.5"/>
<text text-anchor="middle" x="35.5" y="-45.5" font-family="Helvetica,sans-Serif" font-size="10.00">map_dump</text>
</a>
</g>
</g>
<!-- Node1&#45;&gt;Node2 -->
<g id="edge1" class="edge">
<title>Node1&#45;&gt;Node2</title>
<path fill="none" stroke="midnightblue" d="M97.16,-35.61C88.75,-37.32 79.66,-39.18 71.15,-40.92"/>
<polygon fill="midnightblue" stroke="midnightblue" points="97.89,-39.03 106.99,-33.6 96.49,-32.17 97.89,-39.03"/>
</g>
<!-- Node3 -->
<g id="node3" class="node">
<title>Node3</title>
<g id="a_node3"><a xlink:href="group__datatypes__map.html#ga1ee3a7b76638ba11f1420da1dec59c8d" target="_top" xlink:title="Write formatted map entries to the console.">
<polygon fill="white" stroke="black" points="1.5,-0.5 1.5,-19.5 69.5,-19.5 69.5,-0.5 1.5,-0.5"/>
<text text-anchor="middle" x="35.5" y="-7.5" font-family="Helvetica,sans-Serif" font-size="10.00">map_write</text>
</a>
</g>
</g>
<!-- Node1&#45;&gt;Node3 -->
<g id="edge2" class="edge">
<title>Node1&#45;&gt;Node3</title>
<path fill="none" stroke="midnightblue" d="M97.04,-22.37C88.19,-20.56 78.6,-18.6 69.71,-16.79"/>
<polygon fill="midnightblue" stroke="midnightblue" points="96.49,-25.83 106.99,-24.4 97.89,-18.97 96.49,-25.83"/>
</g>
</g>
</svg>
