<?xml version="1.0" encoding="UTF-8" standalone="no"?>
<!DOCTYPE svg PUBLIC "-//W3C//DTD SVG 1.1//EN"
 "http://www.w3.org/Graphics/SVG/1.1/DTD/svg11.dtd">
<!-- Generated by graphviz version 2.43.0 (0)
 -->
<!-- Title: extrude_rotate_trl Pages: 1 -->
<svg width="384pt" height="180pt"
 viewBox="0.00 0.00 384.00 180.00" xmlns="http://www.w3.org/2000/svg" xmlns:xlink="http://www.w3.org/1999/xlink">
<g id="graph0" class="graph" transform="scale(1 1) rotate(0) translate(4 176)">
<title>extrude_rotate_trl</title>
<polygon fill="white" stroke="transparent" points="-4,4 -4,-176 380,-176 380,4 -4,4"/>
<!-- Node1 -->
<g id="node1" class="node">
<title>Node1</title>
<g id="a_node1"><a xlink:title="Translate, rotate, and revolve a 2d shape about the z&#45;axis with linear elongation.">
<polygon fill="#bfbfbf" stroke="black" points="272,-76.5 272,-95.5 376,-95.5 376,-76.5 272,-76.5"/>
<text text-anchor="middle" x="324" y="-83.5" font-family="Helvetica,sans-Serif" font-size="10.00">extrude_rotate_trl</text>
</a>
</g>
</g>
<!-- Node2 -->
<g id="node2" class="node">
<title>Node2</title>
<g id="a_node2"><a xlink:href="group__parts__3d__enclosure__clamps.html#ga8fd874789132e42e5470328d18560f1a" target="_top" xlink:title="A clamp, bushing, and/or grip for wire/hose wall penetrations.">
<polygon fill="white" stroke="black" points="149.5,-152.5 149.5,-171.5 212.5,-171.5 212.5,-152.5 149.5,-152.5"/>
<text text-anchor="middle" x="181" y="-159.5" font-family="Helvetica,sans-Serif" font-size="10.00">clamp_cg</text>
</a>
</g>
</g>
<!-- Node1&#45;&gt;Node2 -->
<g id="edge1" class="edge">
<title>Node1&#45;&gt;Node2</title>
<path fill="none" stroke="midnightblue" d="M299.4,-101.16C282.15,-111.98 258.01,-126.58 236,-138 226.07,-143.15 214.81,-148.26 205.15,-152.44"/>
<polygon fill="midnightblue" stroke="midnightblue" points="301.64,-103.88 308.22,-95.58 297.9,-97.97 301.64,-103.88"/>
</g>
<!-- Node3 -->
<g id="node3" class="node">
<title>Node3</title>
<g id="a_node3"><a xlink:href="group__parts__3d__enclosure__power__strip.html#ga191779dedf39e4fd769a8dc96b0f8c9e" target="_top" xlink:title="A power strip generator for single gang electrical receptacles.">
<polygon fill="white" stroke="black" points="0,-133.5 0,-152.5 90,-152.5 90,-133.5 0,-133.5"/>
<text text-anchor="middle" x="45" y="-140.5" font-family="Helvetica,sans-Serif" font-size="10.00">power_strip_sg</text>
</a>
</g>
</g>
<!-- Node1&#45;&gt;Node3 -->
<g id="edge3" class="edge">
<title>Node1&#45;&gt;Node3</title>
<path fill="none" stroke="midnightblue" d="M270,-97.73C258.78,-100.17 247.01,-102.7 236,-105 186.12,-115.43 128.73,-126.83 90.2,-134.39"/>
<polygon fill="midnightblue" stroke="midnightblue" points="271.08,-101.08 280.11,-95.52 269.59,-94.24 271.08,-101.08"/>
</g>
<!-- Node4 -->
<g id="node4" class="node">
<title>Node4</title>
<g id="a_node4"><a xlink:href="group__shapes__revolved.html#ga58a3e713a904c96b69ddd8f87f7f3bb1" target="_top" xlink:title="An elliptical cross&#45;sectional profile revolved about the z&#45;axis.">
<polygon fill="white" stroke="black" points="133.5,-76.5 133.5,-95.5 228.5,-95.5 228.5,-76.5 133.5,-76.5"/>
<text text-anchor="middle" x="181" y="-83.5" font-family="Helvetica,sans-Serif" font-size="10.00">torus_ellipse_cs</text>
</a>
</g>
</g>
<!-- Node1&#45;&gt;Node4 -->
<g id="edge4" class="edge">
<title>Node1&#45;&gt;Node4</title>
<path fill="none" stroke="midnightblue" d="M261.69,-86C250.67,-86 239.35,-86 228.82,-86"/>
<polygon fill="midnightblue" stroke="midnightblue" points="261.7,-89.5 271.7,-86 261.7,-82.5 261.7,-89.5"/>
</g>
<!-- Node5 -->
<g id="node5" class="node">
<title>Node5</title>
<g id="a_node5"><a xlink:href="group__shapes__revolved.html#ga69b374bbebd7d87cfcd06b6bd3278404" target="_top" xlink:title="A trapezoidal cross&#45;sectional profile revolved about the z&#45;axis.">
<polygon fill="white" stroke="black" points="126,-38.5 126,-57.5 236,-57.5 236,-38.5 126,-38.5"/>
<text text-anchor="middle" x="181" y="-45.5" font-family="Helvetica,sans-Serif" font-size="10.00">torus_pg_trapezoid</text>
</a>
</g>
</g>
<!-- Node1&#45;&gt;Node5 -->
<g id="edge5" class="edge">
<title>Node1&#45;&gt;Node5</title>
<path fill="none" stroke="midnightblue" d="M277.56,-73.75C258.13,-68.52 235.77,-62.49 217.57,-57.59"/>
<polygon fill="midnightblue" stroke="midnightblue" points="276.85,-77.19 287.42,-76.41 278.68,-70.43 276.85,-77.19"/>
</g>
<!-- Node6 -->
<g id="node6" class="node">
<title>Node6</title>
<g id="a_node6"><a xlink:href="group__shapes__revolved.html#gad587c003585db775fd441468954b7c43" target="_top" xlink:title="A rectangular cross&#45;sectional profile revolved about the z&#45;axis.">
<polygon fill="white" stroke="black" points="129.5,-0.5 129.5,-19.5 232.5,-19.5 232.5,-0.5 129.5,-0.5"/>
<text text-anchor="middle" x="181" y="-7.5" font-family="Helvetica,sans-Serif" font-size="10.00">torus_rectangle_c</text>
</a>
</g>
</g>
<!-- Node1&#45;&gt;Node6 -->
<g id="edge6" class="edge">
<title>Node1&#45;&gt;Node6</title>
<path fill="none" stroke="midnightblue" d="M302.46,-70.49C285.35,-58.08 259.98,-40.86 236,-29 228.87,-25.48 220.93,-22.3 213.37,-19.6"/>
<polygon fill="midnightblue" stroke="midnightblue" points="300.48,-73.38 310.61,-76.49 304.63,-67.74 300.48,-73.38"/>
</g>
<!-- Node2&#45;&gt;Node3 -->
<g id="edge2" class="edge">
<title>Node2&#45;&gt;Node3</title>
<path fill="none" stroke="midnightblue" d="M138.94,-156.18C123.46,-153.98 105.8,-151.48 90.06,-149.25"/>
<polygon fill="midnightblue" stroke="midnightblue" points="138.87,-159.7 149.26,-157.64 139.85,-152.77 138.87,-159.7"/>
</g>
</g>
</svg>
