<?xml version="1.0" encoding="UTF-8" standalone="no"?>
<!DOCTYPE svg PUBLIC "-//W3C//DTD SVG 1.1//EN"
 "http://www.w3.org/Graphics/SVG/1.1/DTD/svg11.dtd">
<!-- Generated by graphviz version 2.43.0 (0)
 -->
<!-- Title: repeat_radial Pages: 1 -->
<svg width="391pt" height="180pt"
 viewBox="0.00 0.00 391.00 180.00" xmlns="http://www.w3.org/2000/svg" xmlns:xlink="http://www.w3.org/1999/xlink">
<g id="graph0" class="graph" transform="scale(1 1) rotate(0) translate(4 176)">
<title>repeat_radial</title>
<polygon fill="white" stroke="transparent" points="-4,4 -4,-176 387,-176 387,4 -4,4"/>
<!-- Node1 -->
<g id="node1" class="node">
<title>Node1</title>
<g id="a_node1"><a xlink:title="Radially repeat copies of child objects about a z&#45;axis radius.">
<polygon fill="#bfbfbf" stroke="black" points="302,-76.5 302,-95.5 383,-95.5 383,-76.5 302,-76.5"/>
<text text-anchor="middle" x="342.5" y="-83.5" font-family="Helvetica,sans-Serif" font-size="10.00">repeat_radial</text>
</a>
</g>
</g>
<!-- Node2 -->
<g id="node2" class="node">
<title>Node2</title>
<g id="a_node2"><a xlink:href="group__parts__3d__enclosure__clamps.html#ga8fd874789132e42e5470328d18560f1a" target="_top" xlink:title="A clamp, bushing, and/or grip for wire/hose wall penetrations.">
<polygon fill="white" stroke="black" points="164.5,-152.5 164.5,-171.5 227.5,-171.5 227.5,-152.5 164.5,-152.5"/>
<text text-anchor="middle" x="196" y="-159.5" font-family="Helvetica,sans-Serif" font-size="10.00">clamp_cg</text>
</a>
</g>
</g>
<!-- Node1&#45;&gt;Node2 -->
<g id="edge1" class="edge">
<title>Node1&#45;&gt;Node2</title>
<path fill="none" stroke="midnightblue" d="M323.41,-102.8C308.88,-115.48 287.43,-132.44 266,-143 254.07,-148.87 240.06,-153.16 227.79,-156.15"/>
<polygon fill="midnightblue" stroke="midnightblue" points="325.99,-105.19 331.11,-95.91 321.33,-99.97 325.99,-105.19"/>
</g>
<!-- Node4 -->
<g id="node4" class="node">
<title>Node4</title>
<g id="a_node4"><a xlink:href="group__parts__3d__motion__bearing__linear__rod.html#ga48399d5e708b4894494c69b2d1e88e26" target="_top" xlink:title="Transform 2d or 3d shape into a linear rod ball or sled bearing.">
<polygon fill="white" stroke="black" points="126,-114.5 126,-133.5 266,-133.5 266,-114.5 126,-114.5"/>
<text text-anchor="middle" x="196" y="-121.5" font-family="Helvetica,sans-Serif" font-size="10.00">make_bearing_linear_rod</text>
</a>
</g>
</g>
<!-- Node1&#45;&gt;Node4 -->
<g id="edge3" class="edge">
<title>Node1&#45;&gt;Node4</title>
<path fill="none" stroke="midnightblue" d="M295.17,-98.18C275.11,-103.46 251.97,-109.54 233.2,-114.48"/>
<polygon fill="midnightblue" stroke="midnightblue" points="296.26,-101.52 305.04,-95.59 294.48,-94.75 296.26,-101.52"/>
</g>
<!-- Node5 -->
<g id="node5" class="node">
<title>Node5</title>
<g id="a_node5"><a xlink:href="group__models__3d__misc__omdl__logo.html#gab176f64dad7e83d4fb056be44b71f630" target="_top" xlink:title="Standard omdl logo.">
<polygon fill="white" stroke="black" points="162,-76.5 162,-95.5 230,-95.5 230,-76.5 162,-76.5"/>
<text text-anchor="middle" x="196" y="-83.5" font-family="Helvetica,sans-Serif" font-size="10.00">omdl_logo</text>
</a>
</g>
</g>
<!-- Node1&#45;&gt;Node5 -->
<g id="edge4" class="edge">
<title>Node1&#45;&gt;Node5</title>
<path fill="none" stroke="midnightblue" d="M291.63,-86C271.39,-86 248.56,-86 230.39,-86"/>
<polygon fill="midnightblue" stroke="midnightblue" points="291.63,-89.5 301.63,-86 291.63,-82.5 291.63,-89.5"/>
</g>
<!-- Node6 -->
<g id="node6" class="node">
<title>Node6</title>
<g id="a_node6"><a xlink:href="group__shapes__basic__2d.html#ga7452bf5414a3677ec806a31aed6b61dd" target="_top" xlink:title="A two&#45;dimensional star.">
<polygon fill="white" stroke="black" points="172.5,-38.5 172.5,-57.5 219.5,-57.5 219.5,-38.5 172.5,-38.5"/>
<text text-anchor="middle" x="196" y="-45.5" font-family="Helvetica,sans-Serif" font-size="10.00">star2d</text>
</a>
</g>
</g>
<!-- Node1&#45;&gt;Node6 -->
<g id="edge6" class="edge">
<title>Node1&#45;&gt;Node6</title>
<path fill="none" stroke="midnightblue" d="M295.3,-73.85C270.13,-67.23 240.09,-59.33 219.9,-54.02"/>
<polygon fill="midnightblue" stroke="midnightblue" points="294.48,-77.25 305.04,-76.41 296.26,-70.48 294.48,-77.25"/>
</g>
<!-- Node7 -->
<g id="node7" class="node">
<title>Node7</title>
<g id="a_node7"><a xlink:href="group__shapes__basic__3d.html#gab99dacd3036b965579d68b1d3b7ee2d8" target="_top" xlink:title="A three&#45;dimensional star.">
<polygon fill="white" stroke="black" points="172.5,-0.5 172.5,-19.5 219.5,-19.5 219.5,-0.5 172.5,-0.5"/>
<text text-anchor="middle" x="196" y="-7.5" font-family="Helvetica,sans-Serif" font-size="10.00">star3d</text>
</a>
</g>
</g>
<!-- Node1&#45;&gt;Node7 -->
<g id="edge7" class="edge">
<title>Node1&#45;&gt;Node7</title>
<path fill="none" stroke="midnightblue" d="M323.41,-69.2C308.88,-56.52 287.43,-39.56 266,-29 251.29,-21.75 233.4,-16.93 219.53,-13.95"/>
<polygon fill="midnightblue" stroke="midnightblue" points="321.33,-72.03 331.11,-76.09 325.99,-66.81 321.33,-72.03"/>
</g>
<!-- Node3 -->
<g id="node3" class="node">
<title>Node3</title>
<g id="a_node3"><a xlink:href="group__parts__3d__enclosure__power__strip.html#ga191779dedf39e4fd769a8dc96b0f8c9e" target="_top" xlink:title="A power strip generator for single gang electrical receptacles.">
<polygon fill="white" stroke="black" points="0,-114.5 0,-133.5 90,-133.5 90,-114.5 0,-114.5"/>
<text text-anchor="middle" x="45" y="-121.5" font-family="Helvetica,sans-Serif" font-size="10.00">power_strip_sg</text>
</a>
</g>
</g>
<!-- Node2&#45;&gt;Node3 -->
<g id="edge2" class="edge">
<title>Node2&#45;&gt;Node3</title>
<path fill="none" stroke="midnightblue" d="M154.68,-151.72C132.46,-146.05 105.07,-139.06 83.34,-133.52"/>
<polygon fill="midnightblue" stroke="midnightblue" points="153.93,-155.14 164.49,-154.22 155.66,-148.36 153.93,-155.14"/>
</g>
<!-- Node5&#45;&gt;Node3 -->
<g id="edge5" class="edge">
<title>Node5&#45;&gt;Node3</title>
<path fill="none" stroke="midnightblue" d="M152,-96.97C130.32,-102.5 104.28,-109.14 83.43,-114.45"/>
<polygon fill="midnightblue" stroke="midnightblue" points="153.11,-100.3 161.93,-94.43 151.38,-93.51 153.11,-100.3"/>
</g>
</g>
</svg>
