<?xml version="1.0" encoding="UTF-8" standalone="no"?>
<!DOCTYPE svg PUBLIC "-//W3C//DTD SVG 1.1//EN"
 "http://www.w3.org/Graphics/SVG/1.1/DTD/svg11.dtd">
<!-- Generated by graphviz version 2.43.0 (0)
 -->
<!-- Title: mount_screw_tab Pages: 1 -->
<svg width="579pt" height="408pt"
 viewBox="0.00 0.00 579.00 408.00" xmlns="http://www.w3.org/2000/svg" xmlns:xlink="http://www.w3.org/1999/xlink">
<g id="graph0" class="graph" transform="scale(1 1) rotate(0) translate(4 404)">
<title>mount_screw_tab</title>
<polygon fill="white" stroke="transparent" points="-4,4 -4,-404 575,-404 575,4 -4,4"/>
<!-- Node1 -->
<g id="node1" class="node">
<title>Node1</title>
<g id="a_node1"><a xlink:title="A mount tab with screw hole and support brace.">
<polygon fill="#bfbfbf" stroke="black" points="0,-209.5 0,-228.5 103,-228.5 103,-209.5 0,-209.5"/>
<text text-anchor="middle" x="51.5" y="-216.5" font-family="Helvetica,sans-Serif" font-size="10.00">mount_screw_tab</text>
</a>
</g>
</g>
<!-- Node2 -->
<g id="node2" class="node">
<title>Node2</title>
<g id="a_node2"><a xlink:href="group__datatypes__iterable__operate.html#ga3d37c2b0067d1661724bd89955c8f6ce" target="_top" xlink:title="Return an element of an iterable when it exists or a default value otherwise.">
<polygon fill="white" stroke="black" points="300,-266.5 300,-285.5 379,-285.5 379,-266.5 300,-266.5"/>
<text text-anchor="middle" x="339.5" y="-273.5" font-family="Helvetica,sans-Serif" font-size="10.00">defined_e_or</text>
</a>
</g>
</g>
<!-- Node1&#45;&gt;Node2 -->
<g id="edge1" class="edge">
<title>Node1&#45;&gt;Node2</title>
<path fill="none" stroke="midnightblue" d="M94.69,-228.51C108.76,-231.62 124.54,-235.04 139,-238 190.42,-248.54 249.51,-259.68 289.95,-267.15"/>
<polygon fill="midnightblue" stroke="midnightblue" points="289.35,-270.59 299.82,-268.96 290.62,-263.71 289.35,-270.59"/>
</g>
<!-- Node3 -->
<g id="node3" class="node">
<title>Node3</title>
<g id="a_node3"><a xlink:href="group__datatypes__scalar__operate.html#gac119300e8c83de0037f2d0a4d9f0ab5c" target="_top" xlink:title="Return given value, if defined, or a secondary value, if primary is not defined.">
<polygon fill="white" stroke="black" points="159.5,-57.5 159.5,-76.5 227.5,-76.5 227.5,-57.5 159.5,-57.5"/>
<text text-anchor="middle" x="193.5" y="-64.5" font-family="Helvetica,sans-Serif" font-size="10.00">defined_or</text>
</a>
</g>
</g>
<!-- Node1&#45;&gt;Node3 -->
<g id="edge2" class="edge">
<title>Node1&#45;&gt;Node3</title>
<path fill="none" stroke="midnightblue" d="M56.15,-209.43C65.87,-185.22 94.66,-120.96 139,-86 142.35,-83.36 146.1,-81.06 150.02,-79.08"/>
<polygon fill="midnightblue" stroke="midnightblue" points="151.6,-82.21 159.35,-74.98 148.79,-75.8 151.6,-82.21"/>
</g>
<!-- Node4 -->
<g id="node4" class="node">
<title>Node4</title>
<g id="a_node4"><a xlink:href="group__tools__extrude.html#gab2442cfaf1ad44d6e295ab0979d9e03d" target="_top" xlink:title="Linearly extrude a 2d shape with uniformly&#45;spaced profile scaling.">
<polygon fill="white" stroke="black" points="139,-323.5 139,-342.5 248,-342.5 248,-323.5 139,-323.5"/>
<text text-anchor="middle" x="193.5" y="-330.5" font-family="Helvetica,sans-Serif" font-size="10.00">extrude_linear_uss</text>
</a>
</g>
</g>
<!-- Node1&#45;&gt;Node4 -->
<g id="edge3" class="edge">
<title>Node1&#45;&gt;Node4</title>
<path fill="none" stroke="midnightblue" d="M59.64,-228.57C73.33,-246.4 104.98,-285.05 139,-309 144.35,-312.77 150.39,-316.16 156.44,-319.12"/>
<polygon fill="midnightblue" stroke="midnightblue" points="155.29,-322.45 165.84,-323.42 158.2,-316.08 155.29,-322.45"/>
</g>
<!-- Node5 -->
<g id="node5" class="node">
<title>Node5</title>
<g id="a_node5"><a xlink:href="group__datatypes__iterable__operate.html#gaccab3e37e43cb1d882713b3f3d6d9e1b" target="_top" xlink:title="Return the first element of an iterable value.">
<polygon fill="white" stroke="black" points="322,-380.5 322,-399.5 357,-399.5 357,-380.5 322,-380.5"/>
<text text-anchor="middle" x="339.5" y="-387.5" font-family="Helvetica,sans-Serif" font-size="10.00">first</text>
</a>
</g>
</g>
<!-- Node1&#45;&gt;Node5 -->
<g id="edge8" class="edge">
<title>Node1&#45;&gt;Node5</title>
<path fill="none" stroke="midnightblue" d="M55.72,-228.62C64.59,-253.53 91.89,-320.38 139,-352 192.36,-387.82 270.88,-391.9 311.68,-391.27"/>
<polygon fill="midnightblue" stroke="midnightblue" points="311.99,-394.77 321.9,-391 311.81,-387.77 311.99,-394.77"/>
</g>
<!-- Node7 -->
<g id="node7" class="node">
<title>Node7</title>
<g id="a_node7"><a xlink:href="group__datatypes__iterable__operate.html#ga894d4bec62cc9cf38d5e099de3028c54" target="_top" xlink:title="Return the second element of an iterable value.">
<polygon fill="white" stroke="black" points="314,-304.5 314,-323.5 365,-323.5 365,-304.5 314,-304.5"/>
<text text-anchor="middle" x="339.5" y="-311.5" font-family="Helvetica,sans-Serif" font-size="10.00">second</text>
</a>
</g>
</g>
<!-- Node1&#45;&gt;Node7 -->
<g id="edge27" class="edge">
<title>Node1&#45;&gt;Node7</title>
<path fill="none" stroke="midnightblue" d="M69.27,-228.64C86.36,-238.15 113.87,-252.59 139,-262 195.28,-283.06 263.54,-298.86 303.87,-307.25"/>
<polygon fill="midnightblue" stroke="midnightblue" points="303.24,-310.69 313.74,-309.26 304.64,-303.83 303.24,-310.69"/>
</g>
<!-- Node8 -->
<g id="node8" class="node">
<title>Node8</title>
<g id="a_node8"><a xlink:href="group__datatypes__scalar__test.html#ga51d7fdb800c10f4b7479d23b89ab8d22" target="_top" xlink:title="Test if a value is defined.">
<polygon fill="white" stroke="black" points="160.5,-19.5 160.5,-38.5 226.5,-38.5 226.5,-19.5 160.5,-19.5"/>
<text text-anchor="middle" x="193.5" y="-26.5" font-family="Helvetica,sans-Serif" font-size="10.00">is_defined</text>
</a>
</g>
</g>
<!-- Node1&#45;&gt;Node8 -->
<g id="edge9" class="edge">
<title>Node1&#45;&gt;Node8</title>
<path fill="none" stroke="midnightblue" d="M54.69,-209.31C61.71,-180.47 86.31,-94.39 139,-48 142.6,-44.83 146.77,-42.18 151.16,-39.96"/>
<polygon fill="midnightblue" stroke="midnightblue" points="152.56,-43.17 160.36,-36 149.79,-36.74 152.56,-43.17"/>
</g>
<!-- Node9 -->
<g id="node9" class="node">
<title>Node9</title>
<g id="a_node9"><a xlink:href="group__shapes__polygon.html#ga9c1bd914355d92f9d66ba0e5c2d9dbac" target="_top" xlink:title="A polygon rectangle with vertex rounding.">
<polygon fill="white" stroke="black" points="153.5,-209.5 153.5,-228.5 233.5,-228.5 233.5,-209.5 153.5,-209.5"/>
<text text-anchor="middle" x="193.5" y="-216.5" font-family="Helvetica,sans-Serif" font-size="10.00">pg_rectangle</text>
</a>
</g>
</g>
<!-- Node1&#45;&gt;Node9 -->
<g id="edge10" class="edge">
<title>Node1&#45;&gt;Node9</title>
<path fill="none" stroke="midnightblue" d="M103.04,-219C116.15,-219 130.23,-219 143.27,-219"/>
<polygon fill="midnightblue" stroke="midnightblue" points="143.46,-222.5 153.46,-219 143.46,-215.5 143.46,-222.5"/>
</g>
<!-- Node12 -->
<g id="node12" class="node">
<title>Node12</title>
<g id="a_node12"><a xlink:href="group__shapes__polygon.html#ga24be160074502dce7ff8a78361d4b074" target="_top" xlink:title="A polygon triangle specified by size&#45;angle&#45;size with vertex rounding.">
<polygon fill="white" stroke="black" points="147,-95.5 147,-114.5 240,-114.5 240,-95.5 147,-95.5"/>
<text text-anchor="middle" x="193.5" y="-102.5" font-family="Helvetica,sans-Serif" font-size="10.00">pg_triangle_sas</text>
</a>
</g>
</g>
<!-- Node1&#45;&gt;Node12 -->
<g id="edge14" class="edge">
<title>Node1&#45;&gt;Node12</title>
<path fill="none" stroke="midnightblue" d="M64.44,-209.28C88.51,-189.68 143.1,-145.23 172.63,-121.18"/>
<polygon fill="midnightblue" stroke="midnightblue" points="175.05,-123.72 180.59,-114.69 170.63,-118.3 175.05,-123.72"/>
</g>
<!-- Node19 -->
<g id="node19" class="node">
<title>Node19</title>
<g id="a_node19"><a xlink:href="group__models__3d__fastener__screws.html#ga57dcfe1241e15eaa58ccd08891504a93" target="_top" xlink:title="Flat and beveled&#45;head fastener bore with nut, nut slot, and bore tolerance.">
<polygon fill="white" stroke="black" points="157.5,-171.5 157.5,-190.5 229.5,-190.5 229.5,-171.5 157.5,-171.5"/>
<text text-anchor="middle" x="193.5" y="-178.5" font-family="Helvetica,sans-Serif" font-size="10.00">screw_bore</text>
</a>
</g>
</g>
<!-- Node1&#45;&gt;Node19 -->
<g id="edge23" class="edge">
<title>Node1&#45;&gt;Node19</title>
<path fill="none" stroke="midnightblue" d="M87.83,-209.41C105.9,-204.51 128.1,-198.48 147.39,-193.24"/>
<polygon fill="midnightblue" stroke="midnightblue" points="148.45,-196.58 157.18,-190.59 146.62,-189.83 148.45,-196.58"/>
</g>
<!-- Node4&#45;&gt;Node2 -->
<g id="edge4" class="edge">
<title>Node4&#45;&gt;Node2</title>
<path fill="none" stroke="midnightblue" d="M216.04,-323.38C234.07,-315.45 260.54,-304.06 284,-295 289.26,-292.97 294.84,-290.91 300.34,-288.94"/>
<polygon fill="midnightblue" stroke="midnightblue" points="301.82,-292.13 310.08,-285.51 299.49,-285.53 301.82,-292.13"/>
</g>
<!-- Node4&#45;&gt;Node5 -->
<g id="edge5" class="edge">
<title>Node4&#45;&gt;Node5</title>
<path fill="none" stroke="midnightblue" d="M216.04,-342.62C234.07,-350.55 260.54,-361.94 284,-371 293.1,-374.51 303.16,-378.1 312.14,-381.2"/>
<polygon fill="midnightblue" stroke="midnightblue" points="311.1,-384.55 321.7,-384.46 313.36,-377.92 311.1,-384.55"/>
</g>
<!-- Node6 -->
<g id="node6" class="node">
<title>Node6</title>
<g id="a_node6"><a xlink:href="group__datatypes__scalar__test.html#ga258e8911375d30ff85a6e52df01dc1c5" target="_top" xlink:title="Test if a value is a single non&#45;iterable value.">
<polygon fill="white" stroke="black" points="310,-342.5 310,-361.5 369,-361.5 369,-342.5 310,-342.5"/>
<text text-anchor="middle" x="339.5" y="-349.5" font-family="Helvetica,sans-Serif" font-size="10.00">is_scalar</text>
</a>
</g>
</g>
<!-- Node4&#45;&gt;Node6 -->
<g id="edge6" class="edge">
<title>Node4&#45;&gt;Node6</title>
<path fill="none" stroke="midnightblue" d="M248.12,-340.07C265.31,-342.34 283.99,-344.81 299.88,-346.9"/>
<polygon fill="midnightblue" stroke="midnightblue" points="299.51,-350.39 309.88,-348.22 300.43,-343.45 299.51,-350.39"/>
</g>
<!-- Node4&#45;&gt;Node7 -->
<g id="edge7" class="edge">
<title>Node4&#45;&gt;Node7</title>
<path fill="none" stroke="midnightblue" d="M248.12,-325.93C266.62,-323.48 286.85,-320.81 303.47,-318.62"/>
<polygon fill="midnightblue" stroke="midnightblue" points="304.37,-322.03 313.82,-317.26 303.45,-315.09 304.37,-322.03"/>
</g>
<!-- Node9&#45;&gt;Node2 -->
<g id="edge11" class="edge">
<title>Node9&#45;&gt;Node2</title>
<path fill="none" stroke="midnightblue" d="M218.6,-228.54C242.17,-237.87 278.28,-252.16 304.71,-262.62"/>
<polygon fill="midnightblue" stroke="midnightblue" points="303.73,-266 314.32,-266.43 306.31,-259.49 303.73,-266"/>
</g>
<!-- Node10 -->
<g id="node10" class="node">
<title>Node10</title>
<g id="a_node10"><a xlink:href="group__math__polygon.html#ga7a0eff64929a142fc507615f83e3bd58" target="_top" xlink:title="Compute coordinates that round all of the vertices between each adjacent edges in 2D.">
<polygon fill="white" stroke="black" points="431,-171.5 431,-190.5 571,-190.5 571,-171.5 431,-171.5"/>
<text text-anchor="middle" x="501" y="-178.5" font-family="Helvetica,sans-Serif" font-size="10.00">polygon_round_eve_all_p</text>
</a>
</g>
</g>
<!-- Node9&#45;&gt;Node10 -->
<g id="edge12" class="edge">
<title>Node9&#45;&gt;Node10</title>
<path fill="none" stroke="midnightblue" d="M233.5,-214.15C280.49,-208.3 360.6,-198.34 420.75,-190.86"/>
<polygon fill="midnightblue" stroke="midnightblue" points="421.49,-194.29 430.98,-189.59 420.63,-187.35 421.49,-194.29"/>
</g>
<!-- Node11 -->
<g id="node11" class="node">
<title>Node11</title>
<g id="a_node11"><a xlink:href="group__math__linear__algebra.html#gaeabe74699fd0a437bad9a1d442bfd111" target="_top" xlink:title="Translate all coordinates dimensions.">
<polygon fill="white" stroke="black" points="465.5,-218.5 465.5,-237.5 536.5,-237.5 536.5,-218.5 465.5,-218.5"/>
<text text-anchor="middle" x="501" y="-225.5" font-family="Helvetica,sans-Serif" font-size="10.00">translate_p</text>
</a>
</g>
</g>
<!-- Node9&#45;&gt;Node11 -->
<g id="edge13" class="edge">
<title>Node9&#45;&gt;Node11</title>
<path fill="none" stroke="midnightblue" d="M233.5,-220.15C290.26,-221.82 395.34,-224.92 455.19,-226.68"/>
<polygon fill="midnightblue" stroke="midnightblue" points="455.37,-230.19 465.47,-226.98 455.57,-223.19 455.37,-230.19"/>
</g>
<!-- Node13 -->
<g id="node13" class="node">
<title>Node13</title>
<g id="a_node13"><a xlink:href="group__shapes__polygon.html#gac7e2c70b3428b729efd86a675df794e6" target="_top" xlink:title="A polygon triangle specified by three coordinate points with vertex rounding.">
<polygon fill="white" stroke="black" points="292,-76.5 292,-95.5 387,-95.5 387,-76.5 292,-76.5"/>
<text text-anchor="middle" x="339.5" y="-83.5" font-family="Helvetica,sans-Serif" font-size="10.00">pg_triangle_ppp</text>
</a>
</g>
</g>
<!-- Node12&#45;&gt;Node13 -->
<g id="edge15" class="edge">
<title>Node12&#45;&gt;Node13</title>
<path fill="none" stroke="midnightblue" d="M240.06,-98.99C253.32,-97.24 267.97,-95.31 281.83,-93.48"/>
<polygon fill="midnightblue" stroke="midnightblue" points="282.29,-96.95 291.75,-92.17 281.38,-90.01 282.29,-96.95"/>
</g>
<!-- Node17 -->
<g id="node17" class="node">
<title>Node17</title>
<g id="a_node17"><a xlink:href="group__math__triangle.html#gaab9b812d15418fd05c9d93f3bfcc1989" target="_top" xlink:title="Compute a set of vertex coordinates for a triangle given its side lengths in 2D.">
<polygon fill="white" stroke="black" points="284,-38.5 284,-57.5 395,-57.5 395,-38.5 284,-38.5"/>
<text text-anchor="middle" x="339.5" y="-45.5" font-family="Helvetica,sans-Serif" font-size="10.00">triangle2d_sss2ppp</text>
</a>
</g>
</g>
<!-- Node12&#45;&gt;Node17 -->
<g id="edge21" class="edge">
<title>Node12&#45;&gt;Node17</title>
<path fill="none" stroke="midnightblue" d="M223.67,-95.5C231.65,-92.67 240.24,-89.41 248,-86 264.57,-78.73 267.41,-74.22 284,-67 288.76,-64.93 293.82,-62.92 298.87,-61.03"/>
<polygon fill="midnightblue" stroke="midnightblue" points="300.27,-64.24 308.49,-57.56 297.89,-57.66 300.27,-64.24"/>
</g>
<!-- Node18 -->
<g id="node18" class="node">
<title>Node18</title>
<g id="a_node18"><a xlink:href="group__math__triangle.html#ga33761959a2184db852e773ca2330811b" target="_top" xlink:title="Compute the side lengths of a triangle given two sides and the included angle.">
<polygon fill="white" stroke="black" points="290.5,-0.5 290.5,-19.5 388.5,-19.5 388.5,-0.5 290.5,-0.5"/>
<text text-anchor="middle" x="339.5" y="-7.5" font-family="Helvetica,sans-Serif" font-size="10.00">triangle_sas2sss</text>
</a>
</g>
</g>
<!-- Node12&#45;&gt;Node18 -->
<g id="edge22" class="edge">
<title>Node12&#45;&gt;Node18</title>
<path fill="none" stroke="midnightblue" d="M231.6,-95.5C237.45,-93 243.15,-89.88 248,-86 271.4,-67.29 260.54,-47.64 284,-29 286.28,-27.19 288.74,-25.54 291.32,-24.05"/>
<polygon fill="midnightblue" stroke="midnightblue" points="293.02,-27.12 300.42,-19.54 289.91,-20.84 293.02,-27.12"/>
</g>
<!-- Node13&#45;&gt;Node10 -->
<g id="edge16" class="edge">
<title>Node13&#45;&gt;Node10</title>
<path fill="none" stroke="midnightblue" d="M375.96,-95.59C382.56,-98.14 389.19,-101.25 395,-105 414.54,-117.63 412.59,-128.77 431,-143 442.81,-152.13 457.1,-160.38 469.6,-166.85"/>
<polygon fill="midnightblue" stroke="midnightblue" points="468.23,-170.08 478.74,-171.43 471.37,-163.82 468.23,-170.08"/>
</g>
<!-- Node13&#45;&gt;Node11 -->
<g id="edge17" class="edge">
<title>Node13&#45;&gt;Node11</title>
<path fill="none" stroke="midnightblue" d="M380.96,-95.5C386.11,-97.97 390.98,-101.09 395,-105 427.35,-136.5 399.45,-167.7 431,-200 437.91,-207.07 446.84,-212.41 455.98,-216.43"/>
<polygon fill="midnightblue" stroke="midnightblue" points="454.9,-219.77 465.49,-220.16 457.46,-213.25 454.9,-219.77"/>
</g>
<!-- Node14 -->
<g id="node14" class="node">
<title>Node14</title>
<g id="a_node14"><a xlink:href="group__math__triangle.html#gac0d11ca2c5035a9e53c1144f3774b0b4" target="_top" xlink:title="Compute the center coordinate of a triangle&#39;s incircle in 2D.">
<polygon fill="white" stroke="black" points="445.5,-114.5 445.5,-133.5 556.5,-133.5 556.5,-114.5 445.5,-114.5"/>
<text text-anchor="middle" x="501" y="-121.5" font-family="Helvetica,sans-Serif" font-size="10.00">triangle2d_incenter</text>
</a>
</g>
</g>
<!-- Node13&#45;&gt;Node14 -->
<g id="edge18" class="edge">
<title>Node13&#45;&gt;Node14</title>
<path fill="none" stroke="midnightblue" d="M380.75,-95.59C401.8,-100.6 427.76,-106.79 450.07,-112.11"/>
<polygon fill="midnightblue" stroke="midnightblue" points="449.5,-115.57 460.04,-114.48 451.12,-108.76 449.5,-115.57"/>
</g>
<!-- Node15 -->
<g id="node15" class="node">
<title>Node15</title>
<g id="a_node15"><a xlink:href="group__math__triangle.html#ga51e8d8c2004f859d216790f7966b7dfd" target="_top" xlink:title="Compute the centroid of a triangle.">
<polygon fill="white" stroke="black" points="451.5,-76.5 451.5,-95.5 550.5,-95.5 550.5,-76.5 451.5,-76.5"/>
<text text-anchor="middle" x="501" y="-83.5" font-family="Helvetica,sans-Serif" font-size="10.00">triangle_centroid</text>
</a>
</g>
</g>
<!-- Node13&#45;&gt;Node15 -->
<g id="edge19" class="edge">
<title>Node13&#45;&gt;Node15</title>
<path fill="none" stroke="midnightblue" d="M387.06,-86C404.05,-86 423.49,-86 441.39,-86"/>
<polygon fill="midnightblue" stroke="midnightblue" points="441.44,-89.5 451.44,-86 441.44,-82.5 441.44,-89.5"/>
</g>
<!-- Node16 -->
<g id="node16" class="node">
<title>Node16</title>
<g id="a_node16"><a xlink:href="group__math__triangle.html#ga5cf2801b07faec68a51ac3cd901bc4b0" target="_top" xlink:title="Compute the coordinate of a triangle&#39;s circumcenter.">
<polygon fill="white" stroke="black" points="439.5,-38.5 439.5,-57.5 562.5,-57.5 562.5,-38.5 439.5,-38.5"/>
<text text-anchor="middle" x="501" y="-45.5" font-family="Helvetica,sans-Serif" font-size="10.00">triangle_circumcenter</text>
</a>
</g>
</g>
<!-- Node13&#45;&gt;Node16 -->
<g id="edge20" class="edge">
<title>Node13&#45;&gt;Node16</title>
<path fill="none" stroke="midnightblue" d="M380.75,-76.41C401.8,-71.4 427.76,-65.21 450.07,-59.89"/>
<polygon fill="midnightblue" stroke="midnightblue" points="451.12,-63.24 460.04,-57.52 449.5,-56.43 451.12,-63.24"/>
</g>
<!-- Node19&#45;&gt;Node2 -->
<g id="edge24" class="edge">
<title>Node19&#45;&gt;Node2</title>
<path fill="none" stroke="midnightblue" d="M227.29,-190.56C234.34,-193.18 241.58,-196.33 248,-200 276.46,-216.29 304.66,-241.87 321.83,-258.78"/>
<polygon fill="midnightblue" stroke="midnightblue" points="319.79,-261.7 329.33,-266.31 324.76,-256.76 319.79,-261.7"/>
</g>
<!-- Node20 -->
<g id="node20" class="node">
<title>Node20</title>
<g id="a_node20"><a xlink:href="group__datatypes__iterable__operate.html#gaa10da05023bd79eec85459298bc937c2" target="_top" xlink:title="Return the list element or scalar numeric value, if either is defined, otherwise the default value.">
<polygon fill="white" stroke="black" points="294,-114.5 294,-133.5 385,-133.5 385,-114.5 294,-114.5"/>
<text text-anchor="middle" x="339.5" y="-121.5" font-family="Helvetica,sans-Serif" font-size="10.00">defined_eon_or</text>
</a>
</g>
</g>
<!-- Node19&#45;&gt;Node20 -->
<g id="edge25" class="edge">
<title>Node19&#45;&gt;Node20</title>
<path fill="none" stroke="midnightblue" d="M216.04,-171.38C234.07,-163.45 260.54,-152.06 284,-143 289.26,-140.97 294.84,-138.91 300.34,-136.94"/>
<polygon fill="midnightblue" stroke="midnightblue" points="301.82,-140.13 310.08,-133.51 299.49,-133.53 301.82,-140.13"/>
</g>
<!-- Node21 -->
<g id="node21" class="node">
<title>Node21</title>
<g id="a_node21"><a xlink:href="group__datatypes__list__operate.html#ga7b8e6f2bbfa72ae61e39377e5ca6b5be" target="_top" xlink:title="Select specified element from list or return a default.">
<polygon fill="white" stroke="black" points="310,-152.5 310,-171.5 369,-171.5 369,-152.5 310,-152.5"/>
<text text-anchor="middle" x="339.5" y="-159.5" font-family="Helvetica,sans-Serif" font-size="10.00">select_ci</text>
</a>
</g>
</g>
<!-- Node19&#45;&gt;Node21 -->
<g id="edge26" class="edge">
<title>Node19&#45;&gt;Node21</title>
<path fill="none" stroke="midnightblue" d="M229.73,-176.35C251,-173.54 278.14,-169.96 299.98,-167.08"/>
<polygon fill="midnightblue" stroke="midnightblue" points="300.46,-170.55 309.92,-165.77 299.54,-163.61 300.46,-170.55"/>
</g>
</g>
</svg>
