<?xml version="1.0" encoding="UTF-8" standalone="no"?>
<!DOCTYPE svg PUBLIC "-//W3C//DTD SVG 1.1//EN"
 "http://www.w3.org/Graphics/SVG/1.1/DTD/svg11.dtd">
<!-- Generated by graphviz version 2.43.0 (0)
 -->
<!-- Title: extrude_linear_uss Pages: 1 -->
<svg width="586pt" height="412pt"
 viewBox="0.00 0.00 586.00 412.10" xmlns="http://www.w3.org/2000/svg" xmlns:xlink="http://www.w3.org/1999/xlink">
<g id="graph0" class="graph" transform="scale(1 1) rotate(0) translate(4 408.1)">
<title>extrude_linear_uss</title>
<polygon fill="white" stroke="transparent" points="-4,4 -4,-408.1 582,-408.1 582,4 -4,4"/>
<!-- Node1 -->
<g id="node1" class="node">
<title>Node1</title>
<g id="a_node1"><a xlink:title="Linearly extrude a 2d shape with uniformly&#45;spaced profile scaling.">
<polygon fill="#bfbfbf" stroke="black" points="469,-80.6 469,-99.6 578,-99.6 578,-80.6 469,-80.6"/>
<text text-anchor="middle" x="523.5" y="-87.6" font-family="Helvetica,sans-Serif" font-size="10.00">extrude_linear_uss</text>
</a>
</g>
</g>
<!-- Node2 -->
<g id="node2" class="node">
<title>Node2</title>
<g id="a_node2"><a xlink:href="group__tools__extrude.html#ga45661244067bf945b684550c3263ee45" target="_top" xlink:title="Linearly extrude a 2d shape with multi&#45;segment uniformly&#45;spaced profile scaling.">
<polygon fill="white" stroke="black" points="320,-232.6 320,-251.6 433,-251.6 433,-232.6 320,-232.6"/>
<text text-anchor="middle" x="376.5" y="-239.6" font-family="Helvetica,sans-Serif" font-size="10.00">extrude_linear_mss</text>
</a>
</g>
</g>
<!-- Node1&#45;&gt;Node2 -->
<g id="edge1" class="edge">
<title>Node1&#45;&gt;Node2</title>
<path fill="none" stroke="midnightblue" d="M506.48,-106.9C476,-138.85 410.57,-207.44 386.57,-232.6"/>
<polygon fill="midnightblue" stroke="midnightblue" points="509.06,-109.26 513.43,-99.61 503.99,-104.43 509.06,-109.26"/>
</g>
<!-- Node5 -->
<g id="node5" class="node">
<title>Node5</title>
<g id="a_node5"><a xlink:href="group__parts__3d__enclosure__power__strip.html#ga191779dedf39e4fd769a8dc96b0f8c9e" target="_top" xlink:title="A power strip generator for single gang electrical receptacles.">
<polygon fill="white" stroke="black" points="9,-118.6 9,-137.6 99,-137.6 99,-118.6 9,-118.6"/>
<text text-anchor="middle" x="54" y="-125.6" font-family="Helvetica,sans-Serif" font-size="10.00">power_strip_sg</text>
</a>
</g>
</g>
<!-- Node1&#45;&gt;Node5 -->
<g id="edge18" class="edge">
<title>Node1&#45;&gt;Node5</title>
<path fill="none" stroke="midnightblue" d="M503.93,-73.75C486.84,-59.88 460.11,-41 433,-33.1 309.68,2.83 261.85,17.98 144,-33.1 102.94,-50.9 72.16,-98 60.31,-118.42"/>
<polygon fill="midnightblue" stroke="midnightblue" points="502.03,-76.72 511.94,-80.47 506.52,-71.36 502.03,-76.72"/>
</g>
<!-- Node10 -->
<g id="node10" class="node">
<title>Node10</title>
<g id="a_node10"><a xlink:href="group__parts__3d__enclosure__project__box__rectangle.html#ga6a5d093d732e65556c46252220f2c4b6" target="_top" xlink:title="A rectangular box maker for project boxes, enclosures and housings.">
<polygon fill="white" stroke="black" points="151.5,-118.6 151.5,-137.6 276.5,-137.6 276.5,-118.6 151.5,-118.6"/>
<text text-anchor="middle" x="214" y="-125.6" font-family="Helvetica,sans-Serif" font-size="10.00">project_box_rectangle</text>
</a>
</g>
</g>
<!-- Node1&#45;&gt;Node10 -->
<g id="edge19" class="edge">
<title>Node1&#45;&gt;Node10</title>
<path fill="none" stroke="midnightblue" d="M472.55,-101.84C459.72,-104.54 445.89,-107.18 433,-109.1 380.58,-116.92 320.56,-121.86 276.78,-124.74"/>
<polygon fill="midnightblue" stroke="midnightblue" points="473.56,-105.2 482.59,-99.67 472.08,-98.36 473.56,-105.2"/>
</g>
<!-- Node12 -->
<g id="node12" class="node">
<title>Node12</title>
<g id="a_node12"><a xlink:href="group__parts__3d__fastener__hinges.html#ga7e350f2c55116094108b99dd8103fc04" target="_top" xlink:title="A print&#45;in&#45;place single&#45;fold hinge generator.">
<polygon fill="white" stroke="black" points="347.5,-42.6 347.5,-61.6 405.5,-61.6 405.5,-42.6 347.5,-42.6"/>
<text text-anchor="middle" x="376.5" y="-49.6" font-family="Helvetica,sans-Serif" font-size="10.00">hinge_sf</text>
</a>
</g>
</g>
<!-- Node1&#45;&gt;Node12 -->
<g id="edge14" class="edge">
<title>Node1&#45;&gt;Node12</title>
<path fill="none" stroke="midnightblue" d="M475.97,-77.91C452.89,-71.86 425.77,-64.76 405.84,-59.53"/>
<polygon fill="midnightblue" stroke="midnightblue" points="475.35,-81.37 485.91,-80.51 477.12,-74.59 475.35,-81.37"/>
</g>
<!-- Node14 -->
<g id="node14" class="node">
<title>Node14</title>
<g id="a_node14"><a xlink:href="group__parts__3d__enclosure__mounts.html#gae1cc60f3ff242fb07c5a50d34be8c051" target="_top" xlink:title="A mount tab with screw hole and support brace.">
<polygon fill="white" stroke="black" points="325,-80.6 325,-99.6 428,-99.6 428,-80.6 325,-80.6"/>
<text text-anchor="middle" x="376.5" y="-87.6" font-family="Helvetica,sans-Serif" font-size="10.00">mount_screw_tab</text>
</a>
</g>
</g>
<!-- Node1&#45;&gt;Node14 -->
<g id="edge16" class="edge">
<title>Node1&#45;&gt;Node14</title>
<path fill="none" stroke="midnightblue" d="M458.86,-90.1C448.69,-90.1 438.28,-90.1 428.45,-90.1"/>
<polygon fill="midnightblue" stroke="midnightblue" points="458.92,-93.6 468.92,-90.1 458.92,-86.6 458.92,-93.6"/>
</g>
<!-- Node3 -->
<g id="node3" class="node">
<title>Node3</title>
<g id="a_node3"><a xlink:href="group__parts__3d__fastener__catch__latch.html#ga26a9933aa6d33599daab1be8d632c430" target="_top" xlink:title="A catch latch generator with configurable profile.">
<polygon fill="white" stroke="black" points="178,-232.6 178,-251.6 250,-251.6 250,-232.6 178,-232.6"/>
<text text-anchor="middle" x="214" y="-239.6" font-family="Helvetica,sans-Serif" font-size="10.00">catch_latch</text>
</a>
</g>
</g>
<!-- Node2&#45;&gt;Node3 -->
<g id="edge2" class="edge">
<title>Node2&#45;&gt;Node3</title>
<path fill="none" stroke="midnightblue" d="M309.6,-242.1C289.18,-242.1 267.48,-242.1 250.02,-242.1"/>
<polygon fill="midnightblue" stroke="midnightblue" points="309.82,-245.6 319.82,-242.1 309.82,-238.6 309.82,-245.6"/>
</g>
<!-- Node4 -->
<g id="node4" class="node">
<title>Node4</title>
<g id="a_node4"><a xlink:href="group__parts__3d__enclosure__clamps.html#ga8fd874789132e42e5470328d18560f1a" target="_top" xlink:title="A clamp, bushing, and/or grip for wire/hose wall penetrations.">
<polygon fill="white" stroke="black" points="182.5,-156.6 182.5,-175.6 245.5,-175.6 245.5,-156.6 182.5,-156.6"/>
<text text-anchor="middle" x="214" y="-163.6" font-family="Helvetica,sans-Serif" font-size="10.00">clamp_cg</text>
</a>
</g>
</g>
<!-- Node2&#45;&gt;Node4 -->
<g id="edge3" class="edge">
<title>Node2&#45;&gt;Node4</title>
<path fill="none" stroke="midnightblue" d="M354.3,-226.43C336.36,-213.77 309.55,-196.3 284,-185.1 271.82,-179.77 257.77,-175.57 245.54,-172.5"/>
<polygon fill="midnightblue" stroke="midnightblue" points="352.66,-229.56 362.83,-232.54 356.74,-223.87 352.66,-229.56"/>
</g>
<!-- Node6 -->
<g id="node6" class="node">
<title>Node6</title>
<g id="a_node6"><a xlink:href="group__parts__3d__motion__bearing__linear__rod.html#ga48399d5e708b4894494c69b2d1e88e26" target="_top" xlink:title="Transform 2d or 3d shape into a linear rod ball or sled bearing.">
<polygon fill="white" stroke="black" points="144,-194.6 144,-213.6 284,-213.6 284,-194.6 144,-194.6"/>
<text text-anchor="middle" x="214" y="-201.6" font-family="Helvetica,sans-Serif" font-size="10.00">make_bearing_linear_rod</text>
</a>
</g>
</g>
<!-- Node2&#45;&gt;Node6 -->
<g id="edge5" class="edge">
<title>Node2&#45;&gt;Node6</title>
<path fill="none" stroke="midnightblue" d="M325.25,-230.21C302.69,-224.87 276.44,-218.65 255.21,-213.62"/>
<polygon fill="midnightblue" stroke="midnightblue" points="324.46,-233.62 335,-232.51 326.07,-226.81 324.46,-233.62"/>
</g>
<!-- Node7 -->
<g id="node7" class="node">
<title>Node7</title>
<g id="a_node7"><a xlink:href="group__parts__3d__enclosure__mounts.html#ga0cbac43259ec43fff7785057277bcef3" target="_top" xlink:title="A screw mount post with screw bore and optional fins.">
<polygon fill="white" stroke="black" points="0,-365.6 0,-384.6 108,-384.6 108,-365.6 0,-365.6"/>
<text text-anchor="middle" x="54" y="-372.6" font-family="Helvetica,sans-Serif" font-size="10.00">mount_screw_post</text>
</a>
</g>
</g>
<!-- Node2&#45;&gt;Node7 -->
<g id="edge6" class="edge">
<title>Node2&#45;&gt;Node7</title>
<path fill="none" stroke="midnightblue" d="M363.53,-260.35C348.01,-282.4 318.76,-318.82 284,-337.1 228.9,-366.09 156.9,-373.93 108.46,-375.59"/>
<polygon fill="midnightblue" stroke="midnightblue" points="366.57,-262.1 369.32,-251.87 360.79,-258.15 366.57,-262.1"/>
</g>
<!-- Node8 -->
<g id="node8" class="node">
<title>Node8</title>
<g id="a_node8"><a xlink:href="group__models__3d__misc__omdl__logo.html#gab176f64dad7e83d4fb056be44b71f630" target="_top" xlink:title="Standard omdl logo.">
<polygon fill="white" stroke="black" points="180,-270.6 180,-289.6 248,-289.6 248,-270.6 180,-270.6"/>
<text text-anchor="middle" x="214" y="-277.6" font-family="Helvetica,sans-Serif" font-size="10.00">omdl_logo</text>
</a>
</g>
</g>
<!-- Node2&#45;&gt;Node8 -->
<g id="edge7" class="edge">
<title>Node2&#45;&gt;Node8</title>
<path fill="none" stroke="midnightblue" d="M325.27,-254C300.14,-259.95 270.44,-266.98 248.19,-272.25"/>
<polygon fill="midnightblue" stroke="midnightblue" points="326.07,-257.4 335,-251.69 324.46,-250.59 326.07,-257.4"/>
</g>
<!-- Node9 -->
<g id="node9" class="node">
<title>Node9</title>
<g id="a_node9"><a xlink:href="group__parts__3d__computer__pci__bracket.html#gaf56631cf80d8e5f0b77736b17b94ecd9" target="_top" xlink:title="PCI slot cover and adapter card bracket generator.">
<polygon fill="white" stroke="black" points="178,-308.6 178,-327.6 250,-327.6 250,-308.6 178,-308.6"/>
<text text-anchor="middle" x="214" y="-315.6" font-family="Helvetica,sans-Serif" font-size="10.00">pci_bracket</text>
</a>
</g>
</g>
<!-- Node2&#45;&gt;Node9 -->
<g id="edge9" class="edge">
<title>Node2&#45;&gt;Node9</title>
<path fill="none" stroke="midnightblue" d="M354.3,-257.78C336.36,-270.43 309.55,-287.91 284,-299.1 273.3,-303.79 261.16,-307.6 250.07,-310.54"/>
<polygon fill="midnightblue" stroke="midnightblue" points="356.74,-260.34 362.83,-251.66 352.66,-254.65 356.74,-260.34"/>
</g>
<!-- Node2&#45;&gt;Node10 -->
<g id="edge10" class="edge">
<title>Node2&#45;&gt;Node10</title>
<path fill="none" stroke="midnightblue" d="M362.96,-224.12C347.05,-202.62 317.58,-167.07 284,-147.1 277.49,-143.23 270.16,-140.12 262.77,-137.64"/>
<polygon fill="midnightblue" stroke="midnightblue" points="360.24,-226.32 368.93,-232.38 365.91,-222.22 360.24,-226.32"/>
</g>
<!-- Node11 -->
<g id="node11" class="node">
<title>Node11</title>
<g id="a_node11"><a xlink:href="group__models__3d__fastener__screws.html#gaad990187680f7ac947e555483d854bfa" target="_top" xlink:title="Gapped fastener bore with engagement cylinders for self&#45;forming threads.">
<polygon fill="white" stroke="black" points="169,-384.6 169,-403.6 259,-403.6 259,-384.6 169,-384.6"/>
<text text-anchor="middle" x="214" y="-391.6" font-family="Helvetica,sans-Serif" font-size="10.00">screw_bore_tsf</text>
</a>
</g>
</g>
<!-- Node2&#45;&gt;Node11 -->
<g id="edge12" class="edge">
<title>Node2&#45;&gt;Node11</title>
<path fill="none" stroke="midnightblue" d="M366.89,-260.68C353.16,-288.37 323.74,-340.37 284,-370.1 275.67,-376.34 265.6,-381.04 255.76,-384.55"/>
<polygon fill="midnightblue" stroke="midnightblue" points="370.05,-262.2 371.23,-251.67 363.74,-259.16 370.05,-262.2"/>
</g>
<!-- Node4&#45;&gt;Node5 -->
<g id="edge4" class="edge">
<title>Node4&#45;&gt;Node5</title>
<path fill="none" stroke="midnightblue" d="M172.35,-156.33C148.49,-150.59 118.46,-143.37 94.76,-137.67"/>
<polygon fill="midnightblue" stroke="midnightblue" points="171.62,-159.75 182.16,-158.69 173.26,-152.95 171.62,-159.75"/>
</g>
<!-- Node8&#45;&gt;Node5 -->
<g id="edge8" class="edge">
<title>Node8&#45;&gt;Node5</title>
<path fill="none" stroke="midnightblue" d="M170.13,-273.37C160.94,-270.59 151.7,-266.66 144,-261.1 97.81,-227.78 68.52,-162.54 58.69,-137.87"/>
<polygon fill="midnightblue" stroke="midnightblue" points="169.43,-276.8 179.99,-275.96 171.21,-270.03 169.43,-276.8"/>
</g>
<!-- Node10&#45;&gt;Node5 -->
<g id="edge11" class="edge">
<title>Node10&#45;&gt;Node5</title>
<path fill="none" stroke="midnightblue" d="M141.09,-128.1C126.74,-128.1 112.08,-128.1 99.02,-128.1"/>
<polygon fill="midnightblue" stroke="midnightblue" points="141.46,-131.6 151.46,-128.1 141.46,-124.6 141.46,-131.6"/>
</g>
<!-- Node11&#45;&gt;Node7 -->
<g id="edge13" class="edge">
<title>Node11&#45;&gt;Node7</title>
<path fill="none" stroke="midnightblue" d="M158.97,-387.61C142.51,-385.63 124.43,-383.45 108.04,-381.48"/>
<polygon fill="midnightblue" stroke="midnightblue" points="158.64,-391.09 168.99,-388.81 159.48,-384.14 158.64,-391.09"/>
</g>
<!-- Node13 -->
<g id="node13" class="node">
<title>Node13</title>
<g id="a_node13"><a xlink:href="group__parts__3d__fastener__hinges.html#ga1ffc82e0bbac466d1dc4fbe6c214b765" target="_top" xlink:title="A print&#45;in&#45;place bi&#45;fold hinge generator.">
<polygon fill="white" stroke="black" points="184.5,-42.6 184.5,-61.6 243.5,-61.6 243.5,-42.6 184.5,-42.6"/>
<text text-anchor="middle" x="214" y="-49.6" font-family="Helvetica,sans-Serif" font-size="10.00">hinge_bf</text>
</a>
</g>
</g>
<!-- Node12&#45;&gt;Node13 -->
<g id="edge15" class="edge">
<title>Node12&#45;&gt;Node13</title>
<path fill="none" stroke="midnightblue" d="M337.07,-52.1C308.32,-52.1 269.63,-52.1 243.58,-52.1"/>
<polygon fill="midnightblue" stroke="midnightblue" points="337.18,-55.6 347.18,-52.1 337.18,-48.6 337.18,-55.6"/>
</g>
<!-- Node14&#45;&gt;Node5 -->
<g id="edge17" class="edge">
<title>Node14&#45;&gt;Node5</title>
<path fill="none" stroke="midnightblue" d="M314.72,-92.95C267.89,-95.67 201.61,-100.63 144,-109.1 127.59,-111.52 109.67,-115.15 94.23,-118.59"/>
<polygon fill="midnightblue" stroke="midnightblue" points="314.92,-96.45 324.71,-92.39 314.53,-89.46 314.92,-96.45"/>
</g>
</g>
</svg>
