<?xml version="1.0" encoding="UTF-8" standalone="no"?>
<!DOCTYPE svg PUBLIC "-//W3C//DTD SVG 1.1//EN"
 "http://www.w3.org/Graphics/SVG/1.1/DTD/svg11.dtd">
<!-- Generated by graphviz version 2.43.0 (0)
 -->
<!-- Title: polytope_frame Pages: 1 -->
<svg width="390pt" height="560pt"
 viewBox="0.00 0.00 390.00 560.00" xmlns="http://www.w3.org/2000/svg" xmlns:xlink="http://www.w3.org/1999/xlink">
<g id="graph0" class="graph" transform="scale(1 1) rotate(0) translate(4 556)">
<title>polytope_frame</title>
<polygon fill="white" stroke="transparent" points="-4,4 -4,-556 386,-556 386,4 -4,4"/>
<!-- Node1 -->
<g id="node1" class="node">
<title>Node1</title>
<g id="a_node1"><a xlink:title="Assemble a polytope skeletal frame using child objects.">
<polygon fill="#bfbfbf" stroke="black" points="0,-266.5 0,-285.5 94,-285.5 94,-266.5 0,-266.5"/>
<text text-anchor="middle" x="47" y="-273.5" font-family="Helvetica,sans-Serif" font-size="10.00">polytope_frame</text>
</a>
</g>
</g>
<!-- Node2 -->
<g id="node2" class="node">
<title>Node2</title>
<g id="a_node2"><a xlink:href="group__datatypes__list__operate.html#gab05ff3da4d68d30922daa197f505580d" target="_top" xlink:title="Create a list of constant or incrementing elements.">
<polygon fill="white" stroke="black" points="174,-532.5 174,-551.5 222,-551.5 222,-532.5 174,-532.5"/>
<text text-anchor="middle" x="198" y="-539.5" font-family="Helvetica,sans-Serif" font-size="10.00">consts</text>
</a>
</g>
</g>
<!-- Node1&#45;&gt;Node2 -->
<g id="edge1" class="edge">
<title>Node1&#45;&gt;Node2</title>
<path fill="none" stroke="midnightblue" d="M48.16,-285.7C49.32,-322.47 58.5,-454.59 130,-523 139.05,-531.66 151.76,-536.43 163.67,-539.03"/>
<polygon fill="midnightblue" stroke="midnightblue" points="163.38,-542.53 173.83,-540.8 164.58,-535.63 163.38,-542.53"/>
</g>
<!-- Node3 -->
<g id="node3" class="node">
<title>Node3</title>
<g id="a_node3"><a xlink:href="group__datatypes__scalar__operate.html#gac119300e8c83de0037f2d0a4d9f0ab5c" target="_top" xlink:title="Return given value, if defined, or a secondary value, if primary is not defined.">
<polygon fill="white" stroke="black" points="164,-494.5 164,-513.5 232,-513.5 232,-494.5 164,-494.5"/>
<text text-anchor="middle" x="198" y="-501.5" font-family="Helvetica,sans-Serif" font-size="10.00">defined_or</text>
</a>
</g>
</g>
<!-- Node1&#45;&gt;Node3 -->
<g id="edge2" class="edge">
<title>Node1&#45;&gt;Node3</title>
<path fill="none" stroke="midnightblue" d="M48.81,-285.57C52.13,-318.54 67.64,-428.44 130,-485 136.7,-491.08 145.21,-495.23 153.9,-498.05"/>
<polygon fill="midnightblue" stroke="midnightblue" points="153.13,-501.47 163.7,-500.72 154.96,-494.72 153.13,-501.47"/>
</g>
<!-- Node4 -->
<g id="node4" class="node">
<title>Node4</title>
<g id="a_node4"><a xlink:href="group__datatypes__euclidean.html#gaef5b930729755b4420098776467ac210" target="_top" xlink:title="Compute the distance between two points.">
<polygon fill="white" stroke="black" points="160.5,-456.5 160.5,-475.5 235.5,-475.5 235.5,-456.5 160.5,-456.5"/>
<text text-anchor="middle" x="198" y="-463.5" font-family="Helvetica,sans-Serif" font-size="10.00">distance_pp</text>
</a>
</g>
</g>
<!-- Node1&#45;&gt;Node4 -->
<g id="edge3" class="edge">
<title>Node1&#45;&gt;Node4</title>
<path fill="none" stroke="midnightblue" d="M49.79,-285.85C55.61,-315.1 76.87,-402.25 130,-447 135.85,-451.93 142.9,-455.58 150.2,-458.28"/>
<polygon fill="midnightblue" stroke="midnightblue" points="149.63,-461.77 160.21,-461.42 151.72,-455.09 149.63,-461.77"/>
</g>
<!-- Node5 -->
<g id="node5" class="node">
<title>Node5</title>
<g id="a_node5"><a xlink:href="group__datatypes__iterable__operate.html#gaccab3e37e43cb1d882713b3f3d6d9e1b" target="_top" xlink:title="Return the first element of an iterable value.">
<polygon fill="white" stroke="black" points="180.5,-418.5 180.5,-437.5 215.5,-437.5 215.5,-418.5 180.5,-418.5"/>
<text text-anchor="middle" x="198" y="-425.5" font-family="Helvetica,sans-Serif" font-size="10.00">first</text>
</a>
</g>
</g>
<!-- Node1&#45;&gt;Node5 -->
<g id="edge4" class="edge">
<title>Node1&#45;&gt;Node5</title>
<path fill="none" stroke="midnightblue" d="M51.18,-285.74C59.74,-310.35 85.64,-375.47 130,-409 141.64,-417.8 157.21,-422.53 170.4,-425.06"/>
<polygon fill="midnightblue" stroke="midnightblue" points="169.93,-428.53 180.36,-426.67 171.04,-421.62 169.93,-428.53"/>
</g>
<!-- Node6 -->
<g id="node6" class="node">
<title>Node6</title>
<g id="a_node6"><a xlink:href="group__datatypes__list__operate.html#ga079004ba232355ddd3a1b2e48fa668ba" target="_top" xlink:title="Create a element selection index list for a given list of values.">
<polygon fill="white" stroke="black" points="164.5,-380.5 164.5,-399.5 231.5,-399.5 231.5,-380.5 164.5,-380.5"/>
<text text-anchor="middle" x="198" y="-387.5" font-family="Helvetica,sans-Serif" font-size="10.00">index_gen</text>
</a>
</g>
</g>
<!-- Node1&#45;&gt;Node6 -->
<g id="edge5" class="edge">
<title>Node1&#45;&gt;Node6</title>
<path fill="none" stroke="midnightblue" d="M53.65,-285.72C65.35,-305 94.17,-348.16 130,-371 137.4,-375.72 145.99,-379.29 154.5,-381.98"/>
<polygon fill="midnightblue" stroke="midnightblue" points="153.81,-385.42 164.38,-384.76 155.7,-378.68 153.81,-385.42"/>
</g>
<!-- Node7 -->
<g id="node7" class="node">
<title>Node7</title>
<g id="a_node7"><a xlink:href="group__datatypes__scalar__test.html#ga30fa967b5bef4eeaf6afc6a9ae94d428" target="_top" xlink:title="Test if a numerical value is between an upper and lower bounds.">
<polygon fill="white" stroke="black" points="162,-342.5 162,-361.5 234,-361.5 234,-342.5 162,-342.5"/>
<text text-anchor="middle" x="198" y="-349.5" font-family="Helvetica,sans-Serif" font-size="10.00">is_between</text>
</a>
</g>
</g>
<!-- Node1&#45;&gt;Node7 -->
<g id="edge6" class="edge">
<title>Node1&#45;&gt;Node7</title>
<path fill="none" stroke="midnightblue" d="M59.2,-285.61C74.33,-298.15 102.57,-320.02 130,-333 136.92,-336.27 144.51,-339.09 152.01,-341.47"/>
<polygon fill="midnightblue" stroke="midnightblue" points="151.19,-344.88 161.77,-344.36 153.18,-338.17 151.19,-344.88"/>
</g>
<!-- Node8 -->
<g id="node8" class="node">
<title>Node8</title>
<g id="a_node8"><a xlink:href="group__datatypes__scalar__test.html#ga51d7fdb800c10f4b7479d23b89ab8d22" target="_top" xlink:title="Test if a value is defined.">
<polygon fill="white" stroke="black" points="165,-304.5 165,-323.5 231,-323.5 231,-304.5 165,-304.5"/>
<text text-anchor="middle" x="198" y="-311.5" font-family="Helvetica,sans-Serif" font-size="10.00">is_defined</text>
</a>
</g>
</g>
<!-- Node1&#45;&gt;Node8 -->
<g id="edge7" class="edge">
<title>Node1&#45;&gt;Node8</title>
<path fill="none" stroke="midnightblue" d="M85.6,-285.59C106.74,-290.98 133.17,-297.72 154.99,-303.29"/>
<polygon fill="midnightblue" stroke="midnightblue" points="154.41,-306.75 164.97,-305.83 156.14,-299.97 154.41,-306.75"/>
</g>
<!-- Node9 -->
<g id="node9" class="node">
<title>Node9</title>
<g id="a_node9"><a xlink:href="group__datatypes__scalar__test.html#ga068402d4bbb2bbd22b955ad1e14f104b" target="_top" xlink:title="Test if a numerical value is &#39;nan&#39; (not a number).">
<polygon fill="white" stroke="black" points="174,-266.5 174,-285.5 222,-285.5 222,-266.5 174,-266.5"/>
<text text-anchor="middle" x="198" y="-273.5" font-family="Helvetica,sans-Serif" font-size="10.00">is_nan</text>
</a>
</g>
</g>
<!-- Node1&#45;&gt;Node9 -->
<g id="edge8" class="edge">
<title>Node1&#45;&gt;Node9</title>
<path fill="none" stroke="midnightblue" d="M94.33,-276C116.73,-276 143.13,-276 163.54,-276"/>
<polygon fill="midnightblue" stroke="midnightblue" points="163.62,-279.5 173.62,-276 163.62,-272.5 163.62,-279.5"/>
</g>
<!-- Node10 -->
<g id="node10" class="node">
<title>Node10</title>
<g id="a_node10"><a xlink:href="group__tools__align.html#ga8f52a6a936d0f5e248f836d19df14a9f" target="_top" xlink:title="Orient a line or vector to a reference line or vector.">
<polygon fill="white" stroke="black" points="170,-228.5 170,-247.5 226,-247.5 226,-228.5 170,-228.5"/>
<text text-anchor="middle" x="198" y="-235.5" font-family="Helvetica,sans-Serif" font-size="10.00">orient_ll</text>
</a>
</g>
</g>
<!-- Node1&#45;&gt;Node10 -->
<g id="edge9" class="edge">
<title>Node1&#45;&gt;Node10</title>
<path fill="none" stroke="midnightblue" d="M85.6,-266.41C108.33,-260.61 137.18,-253.26 159.83,-247.48"/>
<polygon fill="midnightblue" stroke="midnightblue" points="160.93,-250.81 169.76,-244.95 159.2,-244.03 160.93,-250.81"/>
</g>
<!-- Node13 -->
<g id="node13" class="node">
<title>Node13</title>
<g id="a_node13"><a xlink:href="group__datatypes__euclidean.html#ga78d67c74076bef2e80a95b1e9b6eb2d7" target="_top" xlink:title="Return 3d point unchanged or add a zeroed third dimension to 2d point.">
<polygon fill="white" stroke="black" points="161,-190.5 161,-209.5 235,-209.5 235,-190.5 161,-190.5"/>
<text text-anchor="middle" x="198" y="-197.5" font-family="Helvetica,sans-Serif" font-size="10.00">point_to_3d</text>
</a>
</g>
</g>
<!-- Node1&#45;&gt;Node13 -->
<g id="edge12" class="edge">
<title>Node1&#45;&gt;Node13</title>
<path fill="none" stroke="midnightblue" d="M59.2,-266.39C74.33,-253.85 102.57,-231.98 130,-219 136.61,-215.87 143.84,-213.16 151.03,-210.85"/>
<polygon fill="midnightblue" stroke="midnightblue" points="152.16,-214.16 160.73,-207.93 150.15,-207.45 152.16,-214.16"/>
</g>
<!-- Node14 -->
<g id="node14" class="node">
<title>Node14</title>
<g id="a_node14"><a xlink:href="group__math__polytope.html#gaadf45c7557a63b989a950158a40dffc3" target="_top" xlink:title="Get the mean coordinate of all vertices of a polytope face.">
<polygon fill="white" stroke="black" points="138.5,-152.5 138.5,-171.5 257.5,-171.5 257.5,-152.5 138.5,-152.5"/>
<text text-anchor="middle" x="198" y="-159.5" font-family="Helvetica,sans-Serif" font-size="10.00">polytope_face_mean</text>
</a>
</g>
</g>
<!-- Node1&#45;&gt;Node14 -->
<g id="edge13" class="edge">
<title>Node1&#45;&gt;Node14</title>
<path fill="none" stroke="midnightblue" d="M53.65,-266.28C65.35,-247 94.17,-203.84 130,-181 133.35,-178.87 136.93,-176.97 140.65,-175.28"/>
<polygon fill="midnightblue" stroke="midnightblue" points="142.09,-178.47 150.07,-171.5 139.49,-171.97 142.09,-178.47"/>
</g>
<!-- Node15 -->
<g id="node15" class="node">
<title>Node15</title>
<g id="a_node15"><a xlink:href="group__math__polytope.html#ga596f64c7d6f8be6485a1ff9f482e3733" target="_top" xlink:title="Get the normal vector of a polytope face.">
<polygon fill="white" stroke="black" points="135.5,-114.5 135.5,-133.5 260.5,-133.5 260.5,-114.5 135.5,-114.5"/>
<text text-anchor="middle" x="198" y="-121.5" font-family="Helvetica,sans-Serif" font-size="10.00">polytope_face_normal</text>
</a>
</g>
</g>
<!-- Node1&#45;&gt;Node15 -->
<g id="edge14" class="edge">
<title>Node1&#45;&gt;Node15</title>
<path fill="none" stroke="midnightblue" d="M51.18,-266.26C59.74,-241.65 85.64,-176.53 130,-143 132.48,-141.13 135.13,-139.44 137.9,-137.92"/>
<polygon fill="midnightblue" stroke="midnightblue" points="139.51,-141.03 147.07,-133.6 136.53,-134.7 139.51,-141.03"/>
</g>
<!-- Node16 -->
<g id="node16" class="node">
<title>Node16</title>
<g id="a_node16"><a xlink:href="group__math__polytope.html#ga3acbef4dac1e9b9c464566f80b52a4f6" target="_top" xlink:title="List the edge coordinate index pairs of a polytope.">
<polygon fill="white" stroke="black" points="135,-76.5 135,-95.5 261,-95.5 261,-76.5 135,-76.5"/>
<text text-anchor="middle" x="198" y="-83.5" font-family="Helvetica,sans-Serif" font-size="10.00">polytope_faces2edges</text>
</a>
</g>
</g>
<!-- Node1&#45;&gt;Node16 -->
<g id="edge15" class="edge">
<title>Node1&#45;&gt;Node16</title>
<path fill="none" stroke="midnightblue" d="M49.79,-266.15C55.61,-236.9 76.87,-149.75 130,-105 132.02,-103.3 134.19,-101.74 136.46,-100.33"/>
<polygon fill="midnightblue" stroke="midnightblue" points="138.4,-103.27 145.65,-95.54 135.17,-97.06 138.4,-103.27"/>
</g>
<!-- Node17 -->
<g id="node17" class="node">
<title>Node17</title>
<g id="a_node17"><a xlink:href="group__math__polytope.html#gaceb7ea29cd4faeceef8de899526ff4fa" target="_top" xlink:title="Get a normal vector for a polytope vertex.">
<polygon fill="white" stroke="black" points="130,-38.5 130,-57.5 266,-57.5 266,-38.5 130,-38.5"/>
<text text-anchor="middle" x="198" y="-45.5" font-family="Helvetica,sans-Serif" font-size="10.00">polytope_vertex_normal</text>
</a>
</g>
</g>
<!-- Node1&#45;&gt;Node17 -->
<g id="edge16" class="edge">
<title>Node1&#45;&gt;Node17</title>
<path fill="none" stroke="midnightblue" d="M48.81,-266.43C52.13,-233.46 67.64,-123.56 130,-67 131.75,-65.42 133.62,-63.96 135.58,-62.63"/>
<polygon fill="midnightblue" stroke="midnightblue" points="137.68,-65.46 144.7,-57.53 134.26,-59.36 137.68,-65.46"/>
</g>
<!-- Node18 -->
<g id="node18" class="node">
<title>Node18</title>
<g id="a_node18"><a xlink:href="group__datatypes__iterable__operate.html#ga894d4bec62cc9cf38d5e099de3028c54" target="_top" xlink:title="Return the second element of an iterable value.">
<polygon fill="white" stroke="black" points="172.5,-0.5 172.5,-19.5 223.5,-19.5 223.5,-0.5 172.5,-0.5"/>
<text text-anchor="middle" x="198" y="-7.5" font-family="Helvetica,sans-Serif" font-size="10.00">second</text>
</a>
</g>
</g>
<!-- Node1&#45;&gt;Node18 -->
<g id="edge17" class="edge">
<title>Node1&#45;&gt;Node18</title>
<path fill="none" stroke="midnightblue" d="M48.16,-266.3C49.32,-229.53 58.5,-97.41 130,-29 138.72,-20.66 150.82,-15.94 162.34,-13.27"/>
<polygon fill="midnightblue" stroke="midnightblue" points="163.03,-16.71 172.21,-11.43 161.74,-9.83 163.03,-16.71"/>
</g>
<!-- Node11 -->
<g id="node11" class="node">
<title>Node11</title>
<g id="a_node11"><a xlink:href="group__datatypes__euclidean.html#ga3d5c07c70f271bcf9144f50ce8620a89" target="_top" xlink:title="Compute the angle between two lines or vectors in a 3d or 2d&#45;space.">
<polygon fill="white" stroke="black" points="314.5,-247.5 314.5,-266.5 369.5,-266.5 369.5,-247.5 314.5,-247.5"/>
<text text-anchor="middle" x="342" y="-254.5" font-family="Helvetica,sans-Serif" font-size="10.00">angle_ll</text>
</a>
</g>
</g>
<!-- Node10&#45;&gt;Node11 -->
<g id="edge10" class="edge">
<title>Node10&#45;&gt;Node11</title>
<path fill="none" stroke="midnightblue" d="M226.04,-241.62C248.15,-244.58 279.64,-248.79 304.07,-252.06"/>
<polygon fill="midnightblue" stroke="midnightblue" points="303.68,-255.54 314.06,-253.39 304.61,-248.6 303.68,-255.54"/>
</g>
<!-- Node12 -->
<g id="node12" class="node">
<title>Node12</title>
<g id="a_node12"><a xlink:href="group__datatypes__euclidean.html#ga6ef2a81f304d31b9ec9753ca4875ad45" target="_top" xlink:title="Convert line to vector by shifting it to the origin.">
<polygon fill="white" stroke="black" points="302,-209.5 302,-228.5 382,-228.5 382,-209.5 302,-209.5"/>
<text text-anchor="middle" x="342" y="-216.5" font-family="Helvetica,sans-Serif" font-size="10.00">vol_to_origin</text>
</a>
</g>
</g>
<!-- Node10&#45;&gt;Node12 -->
<g id="edge11" class="edge">
<title>Node10&#45;&gt;Node12</title>
<path fill="none" stroke="midnightblue" d="M226.04,-234.38C244.59,-231.9 269.74,-228.54 291.78,-225.59"/>
<polygon fill="midnightblue" stroke="midnightblue" points="292.54,-229.02 301.98,-224.22 291.61,-222.08 292.54,-229.02"/>
</g>
</g>
</svg>
