<?xml version="1.0" encoding="UTF-8" standalone="no"?>
<!DOCTYPE svg PUBLIC "-//W3C//DTD SVG 1.1//EN"
 "http://www.w3.org/Graphics/SVG/1.1/DTD/svg11.dtd">
<!-- Generated by graphviz version 2.43.0 (0)
 -->
<!-- Title: log_warn Pages: 1 -->
<svg width="345pt" height="161pt"
 viewBox="0.00 0.00 345.00 161.00" xmlns="http://www.w3.org/2000/svg" xmlns:xlink="http://www.w3.org/1999/xlink">
<g id="graph0" class="graph" transform="scale(1 1) rotate(0) translate(4 157)">
<title>log_warn</title>
<polygon fill="white" stroke="transparent" points="-4,4 -4,-157 341,-157 341,4 -4,4"/>
<!-- Node1 -->
<g id="node1" class="node">
<title>Node1</title>
<g id="a_node1"><a xlink:title="Output warning message to console.">
<polygon fill="#bfbfbf" stroke="black" points="276,-76.5 276,-95.5 337,-95.5 337,-76.5 276,-76.5"/>
<text text-anchor="middle" x="306.5" y="-83.5" font-family="Helvetica,sans-Serif" font-size="10.00">log_warn</text>
</a>
</g>
</g>
<!-- Node2 -->
<g id="node2" class="node">
<title>Node2</title>
<g id="a_node2"><a xlink:href="group__datatypes__map.html#ga4a3d0704d80be0d9e8bae1fcb3ab7958" target="_top" xlink:title="Perform basic format checks on a map and output errors to console.">
<polygon fill="white" stroke="black" points="159,-133.5 159,-152.5 231,-152.5 231,-133.5 159,-133.5"/>
<text text-anchor="middle" x="195" y="-140.5" font-family="Helvetica,sans-Serif" font-size="10.00">map_check</text>
</a>
</g>
</g>
<!-- Node1&#45;&gt;Node2 -->
<g id="edge1" class="edge">
<title>Node1&#45;&gt;Node2</title>
<path fill="none" stroke="midnightblue" d="M281.47,-100.86C269.24,-108.18 254.03,-116.93 240,-124 233.46,-127.29 226.22,-130.57 219.53,-133.45"/>
<polygon fill="midnightblue" stroke="midnightblue" points="283.43,-103.76 290.17,-95.59 279.8,-97.77 283.43,-103.76"/>
</g>
<!-- Node4 -->
<g id="node4" class="node">
<title>Node4</title>
<g id="a_node4"><a xlink:href="group__parts__3d__enclosure__power__strip.html#ga191779dedf39e4fd769a8dc96b0f8c9e" target="_top" xlink:title="A power strip generator for single gang electrical receptacles.">
<polygon fill="white" stroke="black" points="150,-95.5 150,-114.5 240,-114.5 240,-95.5 150,-95.5"/>
<text text-anchor="middle" x="195" y="-102.5" font-family="Helvetica,sans-Serif" font-size="10.00">power_strip_sg</text>
</a>
</g>
</g>
<!-- Node1&#45;&gt;Node4 -->
<g id="edge3" class="edge">
<title>Node1&#45;&gt;Node4</title>
<path fill="none" stroke="midnightblue" d="M265.94,-92.87C257.53,-94.32 248.61,-95.87 240.06,-97.36"/>
<polygon fill="midnightblue" stroke="midnightblue" points="266.61,-96.3 275.87,-91.14 265.42,-89.4 266.61,-96.3"/>
</g>
<!-- Node5 -->
<g id="node5" class="node">
<title>Node5</title>
<g id="a_node5"><a xlink:href="group__tools__repeat.html#gad3a61508128c356ec1348225ec9b3ce0" target="_top" xlink:title="Repeat copies of child objects about a Cartesian grid.">
<polygon fill="white" stroke="black" points="159,-57.5 159,-76.5 231,-76.5 231,-57.5 159,-57.5"/>
<text text-anchor="middle" x="195" y="-64.5" font-family="Helvetica,sans-Serif" font-size="10.00">repeat_grid</text>
</a>
</g>
</g>
<!-- Node1&#45;&gt;Node5 -->
<g id="edge4" class="edge">
<title>Node1&#45;&gt;Node5</title>
<path fill="none" stroke="midnightblue" d="M265.77,-79.11C254.43,-77.14 242.15,-75.01 231.1,-73.09"/>
<polygon fill="midnightblue" stroke="midnightblue" points="265.42,-82.6 275.87,-80.86 266.61,-75.7 265.42,-82.6"/>
</g>
<!-- Node6 -->
<g id="node6" class="node">
<title>Node6</title>
<g id="a_node6"><a xlink:href="group__datatypes__table.html#ga8a4429649e8b06d9f492e1a0d2653656" target="_top" xlink:title="Perform basic format checks on a table and output errors to console.">
<polygon fill="white" stroke="black" points="157.5,-19.5 157.5,-38.5 232.5,-38.5 232.5,-19.5 157.5,-19.5"/>
<text text-anchor="middle" x="195" y="-26.5" font-family="Helvetica,sans-Serif" font-size="10.00">table_check</text>
</a>
</g>
</g>
<!-- Node1&#45;&gt;Node6 -->
<g id="edge5" class="edge">
<title>Node1&#45;&gt;Node6</title>
<path fill="none" stroke="midnightblue" d="M281.47,-71.14C269.24,-63.82 254.03,-55.07 240,-48 233.46,-44.71 226.22,-41.43 219.53,-38.55"/>
<polygon fill="midnightblue" stroke="midnightblue" points="279.8,-74.23 290.17,-76.41 283.43,-68.24 279.8,-74.23"/>
</g>
<!-- Node3 -->
<g id="node3" class="node">
<title>Node3</title>
<g id="a_node3"><a xlink:href="group__common__validation.html#ga3afe594ef417bc40429be81e044d29bc" target="_top" xlink:title="Test data structure db and output the start of test to the test log.">
<polygon fill="white" stroke="black" points="1.5,-133.5 1.5,-152.5 112.5,-152.5 112.5,-133.5 1.5,-133.5"/>
<text text-anchor="middle" x="57" y="-140.5" font-family="Helvetica,sans-Serif" font-size="10.00">map_validate_start</text>
</a>
</g>
</g>
<!-- Node2&#45;&gt;Node3 -->
<g id="edge2" class="edge">
<title>Node2&#45;&gt;Node3</title>
<path fill="none" stroke="midnightblue" d="M148.71,-143C137.17,-143 124.65,-143 112.7,-143"/>
<polygon fill="midnightblue" stroke="midnightblue" points="148.98,-146.5 158.98,-143 148.98,-139.5 148.98,-146.5"/>
</g>
<!-- Node7 -->
<g id="node7" class="node">
<title>Node7</title>
<g id="a_node7"><a xlink:href="group__datatypes__table.html#ga7a45ee72b36421f4e73cfba4488f14be" target="_top" xlink:title="Dump table getter functions to the console.">
<polygon fill="white" stroke="black" points="0,-38.5 0,-57.5 114,-57.5 114,-38.5 0,-38.5"/>
<text text-anchor="middle" x="57" y="-45.5" font-family="Helvetica,sans-Serif" font-size="10.00">table_dump_getters</text>
</a>
</g>
</g>
<!-- Node6&#45;&gt;Node7 -->
<g id="edge6" class="edge">
<title>Node6&#45;&gt;Node7</title>
<path fill="none" stroke="midnightblue" d="M147.22,-35.54C136.52,-37.03 125.05,-38.63 114.01,-40.18"/>
<polygon fill="midnightblue" stroke="midnightblue" points="147.78,-38.99 157.2,-34.14 146.81,-32.06 147.78,-38.99"/>
</g>
<!-- Node8 -->
<g id="node8" class="node">
<title>Node8</title>
<g id="a_node8"><a xlink:href="group__common__validation.html#ga19d0234700fba9de9fb0cba52a3d8e17" target="_top" xlink:title="Test data structure db and output the start of test to the test log.">
<polygon fill="white" stroke="black" points="0,-0.5 0,-19.5 114,-19.5 114,-0.5 0,-0.5"/>
<text text-anchor="middle" x="57" y="-7.5" font-family="Helvetica,sans-Serif" font-size="10.00">table_validate_start</text>
</a>
</g>
</g>
<!-- Node6&#45;&gt;Node8 -->
<g id="edge7" class="edge">
<title>Node6&#45;&gt;Node8</title>
<path fill="none" stroke="midnightblue" d="M147.22,-22.46C136.52,-20.97 125.05,-19.37 114.01,-17.82"/>
<polygon fill="midnightblue" stroke="midnightblue" points="146.81,-25.94 157.2,-23.86 147.78,-19.01 146.81,-25.94"/>
</g>
</g>
</svg>
