<?xml version="1.0" encoding="UTF-8" standalone="no"?>
<!DOCTYPE svg PUBLIC "-//W3C//DTD SVG 1.1//EN"
 "http://www.w3.org/Graphics/SVG/1.1/DTD/svg11.dtd">
<!-- Generated by graphviz version 2.43.0 (0)
 -->
<!-- Title: Console Output Pages: 1 -->
<svg width="261pt" height="29pt"
 viewBox="0.00 0.00 261.00 28.50" xmlns="http://www.w3.org/2000/svg" xmlns:xlink="http://www.w3.org/1999/xlink">
<g id="graph0" class="graph" transform="scale(1 1) rotate(0) translate(4 24.5)">
<title>Console Output</title>
<polygon fill="white" stroke="transparent" points="-4,4 -4,-24.5 257,-24.5 257,4 -4,4"/>
<!-- Node1 -->
<g id="node1" class="node">
<title>Node1</title>
<g id="a_node1"><a xlink:title="Console message logging.">
<polygon fill="#bfbfbf" stroke="black" points="92,-19 0,-19 0,0 92,0 92,-19"/>
<text text-anchor="middle" x="46" y="-7" font-family="Helvetica,sans-Serif" font-size="10.00">Console Output</text>
</a>
</g>
</g>
<!-- Node2 -->
<g id="node2" class="node">
<title>Node2</title>
<g id="a_node2"><a xlink:href="group__common.html" target="_top" xlink:title="Rudimentary library components.">
<polygon fill="white" stroke="black" points="253,-19 192,-19 192,0 253,0 253,-19"/>
<text text-anchor="middle" x="222.5" y="-7" font-family="Helvetica,sans-Serif" font-size="10.00">Common</text>
</a>
</g>
</g>
<!-- Node1&#45;&gt;Node2 -->
<g id="edge2" class="edge">
<title>Node1&#45;&gt;Node2</title>
<path fill="none" stroke="darkgreen" stroke-dasharray="5,2" d="M92.39,-9.5C123.8,-9.5 164.69,-9.5 191.95,-9.5"/>
<text text-anchor="middle" x="142" y="-12.5" font-family="Helvetica,sans-Serif" font-size="10.00">console.scad</text>
</g>
<!-- Node2&#45;&gt;Node1 -->
<g id="edge1" class="edge">
<title>Node2&#45;&gt;Node1</title>
<path fill="none" stroke="black" d="M181.75,-7.7C179.13,-7.62 176.53,-7.55 174,-7.5 145.56,-6.9 138.44,-7.05 110,-7.5 104.2,-7.59 98.1,-7.73 92.08,-7.9"/>
<polygon fill="black" stroke="black" points="181.74,-11.2 191.86,-8.06 181.99,-4.21 181.74,-11.2"/>
</g>
</g>
</svg>
