<?xml version="1.0" encoding="UTF-8" standalone="no"?>
<!DOCTYPE svg PUBLIC "-//W3C//DTD SVG 1.1//EN"
 "http://www.w3.org/Graphics/SVG/1.1/DTD/svg11.dtd">
<!-- Generated by graphviz version 2.43.0 (0)
 -->
<!-- Title: Geometry Pages: 1 -->
<svg width="273pt" height="27pt"
 viewBox="0.00 0.00 273.00 27.00" xmlns="http://www.w3.org/2000/svg" xmlns:xlink="http://www.w3.org/1999/xlink">
<g id="graph0" class="graph" transform="scale(1 1) rotate(0) translate(4 23)">
<title>Geometry</title>
<polygon fill="white" stroke="transparent" points="-4,4 -4,-23 269,-23 269,4 -4,4"/>
<!-- Node2 -->
<g id="node1" class="node">
<title>Node2</title>
<g id="a_node1"><a xlink:href="group__database.html" target="_top" xlink:title="Design data and specifications.">
<polygon fill="white" stroke="black" points="63,-19 0,-19 0,0 63,0 63,-19"/>
<text text-anchor="middle" x="31.5" y="-7" font-family="Helvetica,sans-Serif" font-size="10.00">Database</text>
</a>
</g>
</g>
<!-- Node1 -->
<g id="node3" class="node">
<title>Node1</title>
<g id="a_node3"><a xlink:title="Geometric shape specifications.">
<polygon fill="#bfbfbf" stroke="black" points="164,-19 99,-19 99,0 164,0 164,-19"/>
<text text-anchor="middle" x="131.5" y="-7" font-family="Helvetica,sans-Serif" font-size="10.00">Geometry</text>
</a>
</g>
</g>
<!-- Node2&#45;&gt;Node1 -->
<g id="edge1" class="edge">
<title>Node2&#45;&gt;Node1</title>
<path fill="none" stroke="black" d="M73.38,-9.5C81.89,-9.5 90.74,-9.5 98.86,-9.5"/>
<polygon fill="black" stroke="black" points="73.24,-6 63.24,-9.5 73.24,-13 73.24,-6"/>
</g>
<!-- Node3 -->
<g id="node2" class="node">
<title>Node3</title>
<g id="a_node2"><a xlink:href="group__database__geometry__polyhedra.html" target="_top" xlink:title="Tables of polyhedra vertices, faces, and edges.">
<polygon fill="white" stroke="black" points="265,-19 200,-19 200,0 265,0 265,-19"/>
<text text-anchor="middle" x="232.5" y="-7" font-family="Helvetica,sans-Serif" font-size="10.00">Polyhedra</text>
</a>
</g>
</g>
<!-- Node1&#45;&gt;Node3 -->
<g id="edge2" class="edge">
<title>Node1&#45;&gt;Node3</title>
<path fill="none" stroke="black" d="M174.31,-9.5C182.86,-9.5 191.74,-9.5 199.86,-9.5"/>
<polygon fill="black" stroke="black" points="174.1,-6 164.1,-9.5 174.1,-13 174.1,-6"/>
</g>
</g>
</svg>
