<?xml version="1.0" encoding="UTF-8" standalone="no"?>
<!DOCTYPE svg PUBLIC "-//W3C//DTD SVG 1.1//EN"
 "http://www.w3.org/Graphics/SVG/1.1/DTD/svg11.dtd">
<!-- Generated by graphviz version 2.43.0 (0)
 -->
<!-- Title: extrude_linear_mss Pages: 1 -->
<svg width="381pt" height="170pt"
 viewBox="0.00 0.00 381.00 170.00" xmlns="http://www.w3.org/2000/svg" xmlns:xlink="http://www.w3.org/1999/xlink">
<g id="graph0" class="graph" transform="scale(1 1) rotate(0) translate(4 166)">
<title>extrude_linear_mss</title>
<polygon fill="white" stroke="transparent" points="-4,4 -4,-166 377,-166 377,4 -4,4"/>
<!-- Node1 -->
<g id="node1" class="node">
<title>Node1</title>
<g id="a_node1"><a xlink:title="Linearly extrude a 2d shape with multi&#45;segment uniformly&#45;spaced profile scaling.">
<polygon fill="#bfbfbf" stroke="black" points="0,-57.5 0,-76.5 113,-76.5 113,-57.5 0,-57.5"/>
<text text-anchor="middle" x="56.5" y="-64.5" font-family="Helvetica,sans-Serif" font-size="10.00">extrude_linear_mss</text>
</a>
</g>
</g>
<!-- Node2 -->
<g id="node2" class="node">
<title>Node2</title>
<g id="a_node2"><a xlink:href="group__tools__extrude.html#gab2442cfaf1ad44d6e295ab0979d9e03d" target="_top" xlink:title="Linearly extrude a 2d shape with uniformly&#45;spaced profile scaling.">
<polygon fill="white" stroke="black" points="149,-76.5 149,-95.5 258,-95.5 258,-76.5 149,-76.5"/>
<text text-anchor="middle" x="203.5" y="-83.5" font-family="Helvetica,sans-Serif" font-size="10.00">extrude_linear_uss</text>
</a>
</g>
</g>
<!-- Node1&#45;&gt;Node2 -->
<g id="edge1" class="edge">
<title>Node1&#45;&gt;Node2</title>
<path fill="none" stroke="midnightblue" d="M113.15,-74.29C121.44,-75.38 130.04,-76.5 138.48,-77.61"/>
<polygon fill="midnightblue" stroke="midnightblue" points="138.3,-81.12 148.67,-78.95 139.21,-74.18 138.3,-81.12"/>
</g>
<!-- Node4 -->
<g id="node4" class="node">
<title>Node4</title>
<g id="a_node4"><a xlink:href="group__datatypes__iterable__operate.html#gaccab3e37e43cb1d882713b3f3d6d9e1b" target="_top" xlink:title="Return the first element of an iterable value.">
<polygon fill="white" stroke="black" points="316,-142.5 316,-161.5 351,-161.5 351,-142.5 316,-142.5"/>
<text text-anchor="middle" x="333.5" y="-149.5" font-family="Helvetica,sans-Serif" font-size="10.00">first</text>
</a>
</g>
</g>
<!-- Node1&#45;&gt;Node4 -->
<g id="edge6" class="edge">
<title>Node1&#45;&gt;Node4</title>
<path fill="none" stroke="midnightblue" d="M78.25,-76.62C96.59,-84.88 124.2,-96.72 149,-105 203.7,-123.26 269.56,-138.56 305.63,-146.38"/>
<polygon fill="midnightblue" stroke="midnightblue" points="305.31,-149.89 315.82,-148.57 306.78,-143.05 305.31,-149.89"/>
</g>
<!-- Node5 -->
<g id="node5" class="node">
<title>Node5</title>
<g id="a_node5"><a xlink:href="group__datatypes__scalar__test.html#ga258e8911375d30ff85a6e52df01dc1c5" target="_top" xlink:title="Test if a value is a single non&#45;iterable value.">
<polygon fill="white" stroke="black" points="304,-28.5 304,-47.5 363,-47.5 363,-28.5 304,-28.5"/>
<text text-anchor="middle" x="333.5" y="-35.5" font-family="Helvetica,sans-Serif" font-size="10.00">is_scalar</text>
</a>
</g>
</g>
<!-- Node1&#45;&gt;Node5 -->
<g id="edge7" class="edge">
<title>Node1&#45;&gt;Node5</title>
<path fill="none" stroke="midnightblue" d="M113.15,-61.13C166.85,-55.47 246.72,-47.05 293.82,-42.08"/>
<polygon fill="midnightblue" stroke="midnightblue" points="294.34,-45.54 303.91,-41.01 293.6,-38.58 294.34,-45.54"/>
</g>
<!-- Node7 -->
<g id="node7" class="node">
<title>Node7</title>
<g id="a_node7"><a xlink:href="group__datatypes__list__operate.html#gae12565005038993506dc37249e32766d" target="_top" xlink:title="Compute the sum of a list of numbers.">
<polygon fill="white" stroke="black" points="184.5,-0.5 184.5,-19.5 222.5,-19.5 222.5,-0.5 184.5,-0.5"/>
<text text-anchor="middle" x="203.5" y="-7.5" font-family="Helvetica,sans-Serif" font-size="10.00">sum</text>
</a>
</g>
</g>
<!-- Node1&#45;&gt;Node7 -->
<g id="edge8" class="edge">
<title>Node1&#45;&gt;Node7</title>
<path fill="none" stroke="midnightblue" d="M81.77,-57.46C107.36,-47.4 147.63,-31.57 174.54,-20.99"/>
<polygon fill="midnightblue" stroke="midnightblue" points="176.11,-24.13 184.14,-17.22 173.55,-17.62 176.11,-24.13"/>
</g>
<!-- Node3 -->
<g id="node3" class="node">
<title>Node3</title>
<g id="a_node3"><a xlink:href="group__datatypes__iterable__operate.html#ga3d37c2b0067d1661724bd89955c8f6ce" target="_top" xlink:title="Return an element of an iterable when it exists or a default value otherwise.">
<polygon fill="white" stroke="black" points="294,-104.5 294,-123.5 373,-123.5 373,-104.5 294,-104.5"/>
<text text-anchor="middle" x="333.5" y="-111.5" font-family="Helvetica,sans-Serif" font-size="10.00">defined_e_or</text>
</a>
</g>
</g>
<!-- Node2&#45;&gt;Node3 -->
<g id="edge2" class="edge">
<title>Node2&#45;&gt;Node3</title>
<path fill="none" stroke="midnightblue" d="M248.19,-95.56C259.62,-98.06 272.01,-100.77 283.68,-103.32"/>
<polygon fill="midnightblue" stroke="midnightblue" points="283.2,-106.8 293.72,-105.52 284.7,-99.96 283.2,-106.8"/>
</g>
<!-- Node2&#45;&gt;Node4 -->
<g id="edge3" class="edge">
<title>Node2&#45;&gt;Node4</title>
<path fill="none" stroke="midnightblue" d="M222.6,-95.68C240.63,-105.27 269.13,-120.34 294,-133 298.15,-135.11 302.56,-137.32 306.87,-139.46"/>
<polygon fill="midnightblue" stroke="midnightblue" points="305.45,-142.67 315.97,-143.95 308.55,-136.39 305.45,-142.67"/>
</g>
<!-- Node2&#45;&gt;Node5 -->
<g id="edge4" class="edge">
<title>Node2&#45;&gt;Node5</title>
<path fill="none" stroke="midnightblue" d="M230.1,-76.4C249.45,-69.14 276.25,-59.09 297.58,-51.09"/>
<polygon fill="midnightblue" stroke="midnightblue" points="298.81,-54.37 306.95,-47.58 296.36,-47.82 298.81,-54.37"/>
</g>
<!-- Node6 -->
<g id="node6" class="node">
<title>Node6</title>
<g id="a_node6"><a xlink:href="group__datatypes__iterable__operate.html#ga894d4bec62cc9cf38d5e099de3028c54" target="_top" xlink:title="Return the second element of an iterable value.">
<polygon fill="white" stroke="black" points="308,-66.5 308,-85.5 359,-85.5 359,-66.5 308,-66.5"/>
<text text-anchor="middle" x="333.5" y="-73.5" font-family="Helvetica,sans-Serif" font-size="10.00">second</text>
</a>
</g>
</g>
<!-- Node2&#45;&gt;Node6 -->
<g id="edge5" class="edge">
<title>Node2&#45;&gt;Node6</title>
<path fill="none" stroke="midnightblue" d="M258.04,-81.82C271.39,-80.77 285.37,-79.68 297.56,-78.73"/>
<polygon fill="midnightblue" stroke="midnightblue" points="298.06,-82.2 307.75,-77.93 297.51,-75.22 298.06,-82.2"/>
</g>
</g>
</svg>
