<?xml version="1.0" encoding="UTF-8" standalone="no"?>
<!DOCTYPE svg PUBLIC "-//W3C//DTD SVG 1.1//EN"
 "http://www.w3.org/Graphics/SVG/1.1/DTD/svg11.dtd">
<!-- Generated by graphviz version 2.43.0 (0)
 -->
<!-- Title: Enclosure Pages: 1 -->
<svg width="469pt" height="236pt"
 viewBox="0.00 0.00 469.00 236.08" xmlns="http://www.w3.org/2000/svg" xmlns:xlink="http://www.w3.org/1999/xlink">
<g id="graph0" class="graph" transform="scale(1 1) rotate(0) translate(4 232.08)">
<title>Enclosure</title>
<polygon fill="white" stroke="transparent" points="-4,4 -4,-232.08 465,-232.08 465,4 -4,4"/>
<!-- Node1 -->
<g id="node1" class="node">
<title>Node1</title>
<g id="a_node1"><a xlink:title="Project boxes, housings and enclosures.">
<polygon fill="#bfbfbf" stroke="black" points="157,-128.83 93,-128.83 93,-109.83 157,-109.83 157,-128.83"/>
<text text-anchor="middle" x="125" y="-116.83" font-family="Helvetica,sans-Serif" font-size="10.00">Enclosure</text>
</a>
</g>
</g>
<!-- Node4 -->
<g id="node3" class="node">
<title>Node4</title>
<g id="a_node3"><a xlink:href="group__parts__3d__enclosure__mounts.html" target="_top" xlink:title="Screw mounts tabs, mount slots, mount posts, etc.">
<polygon fill="white" stroke="black" points="420.5,-211.83 367.5,-211.83 367.5,-192.83 420.5,-192.83 420.5,-211.83"/>
<text text-anchor="middle" x="394" y="-199.83" font-family="Helvetica,sans-Serif" font-size="10.00">Mounts</text>
</a>
</g>
</g>
<!-- Node1&#45;&gt;Node4 -->
<g id="edge3" class="edge">
<title>Node1&#45;&gt;Node4</title>
<path fill="none" stroke="black" d="M130.63,-138.84C136.79,-159.96 149.97,-192.62 175,-207.33 236.03,-243.2 324.22,-224 367.33,-211.04"/>
<polygon fill="black" stroke="black" points="133.96,-137.76 128.01,-129 127.2,-139.56 133.96,-137.76"/>
</g>
<!-- Node1&#45;&gt;Node4 -->
<g id="edge7" class="edge">
<title>Node1&#45;&gt;Node4</title>
<path fill="none" stroke="darkgreen" stroke-dasharray="5,2" d="M132.7,-129.07C141.14,-140.5 156.77,-159.07 175,-168.33 191.9,-176.92 313.07,-192.56 367.1,-199.21"/>
<text text-anchor="middle" x="242" y="-193.33" font-family="Helvetica,sans-Serif" font-size="10.00">mounts.scad</text>
</g>
<!-- Node3 -->
<g id="node4" class="node">
<title>Node3</title>
<g id="a_node4"><a xlink:href="group__parts__3d__enclosure__clamps.html" target="_top" xlink:title="Clamps, bushings, and grips for wires and hoses.">
<polygon fill="white" stroke="black" points="420.5,-163.83 367.5,-163.83 367.5,-144.83 420.5,-144.83 420.5,-163.83"/>
<text text-anchor="middle" x="394" y="-151.83" font-family="Helvetica,sans-Serif" font-size="10.00">Clamps</text>
</a>
</g>
</g>
<!-- Node1&#45;&gt;Node3 -->
<g id="edge2" class="edge">
<title>Node1&#45;&gt;Node3</title>
<path fill="none" stroke="black" d="M146.44,-134.58C154.85,-139.98 164.96,-145.43 175,-148.33 242.12,-167.7 325.72,-162.27 367.19,-157.72"/>
<polygon fill="black" stroke="black" points="148.31,-131.61 138.08,-128.86 144.36,-137.39 148.31,-131.61"/>
</g>
<!-- Node1&#45;&gt;Node3 -->
<g id="edge6" class="edge">
<title>Node1&#45;&gt;Node3</title>
<path fill="none" stroke="darkgreen" stroke-dasharray="5,2" d="M157.24,-120.77C193.79,-122.76 256.06,-127.07 309,-135.33 328.8,-138.42 350.88,-143.48 367.44,-147.6"/>
<text text-anchor="middle" x="242" y="-138.33" font-family="Helvetica,sans-Serif" font-size="10.00">clamps.scad</text>
</g>
<!-- Node5 -->
<g id="node5" class="node">
<title>Node5</title>
<g id="a_node5"><a xlink:href="group__parts__3d__enclosure__power__strip.html" target="_top" xlink:title="Electrical receptacle power strip generator.">
<polygon fill="white" stroke="black" points="446.5,-99.83 341.5,-99.83 341.5,-80.83 446.5,-80.83 446.5,-99.83"/>
<text text-anchor="middle" x="394" y="-87.83" font-family="Helvetica,sans-Serif" font-size="10.00">Power Strip Maker</text>
</a>
</g>
</g>
<!-- Node1&#45;&gt;Node5 -->
<g id="edge4" class="edge">
<title>Node1&#45;&gt;Node5</title>
<path fill="none" stroke="black" d="M167.26,-114.85C214.14,-109.76 290.73,-101.44 341.49,-95.92"/>
<polygon fill="black" stroke="black" points="166.71,-111.39 157.15,-115.95 167.47,-118.35 166.71,-111.39"/>
</g>
<!-- Node1&#45;&gt;Node5 -->
<g id="edge8" class="edge">
<title>Node1&#45;&gt;Node5</title>
<path fill="none" stroke="darkgreen" stroke-dasharray="5,2" d="M135.89,-109.71C145.14,-101.43 159.78,-90.09 175,-85.33 231.9,-67.52 301.3,-73.52 346.29,-80.77"/>
<text text-anchor="middle" x="242" y="-88.33" font-family="Helvetica,sans-Serif" font-size="10.00">power_strip.scad</text>
</g>
<!-- Node6 -->
<g id="node6" class="node">
<title>Node6</title>
<g id="a_node6"><a xlink:href="group__parts__3d__enclosure__project__box__rectangle.html" target="_top" xlink:title="Rectangular prism project box generator.">
<polygon fill="white" stroke="black" points="461,-40.83 327,-40.83 327,-21.83 461,-21.83 461,-40.83"/>
<text text-anchor="middle" x="394" y="-28.83" font-family="Helvetica,sans-Serif" font-size="10.00">Rectangular Project Box</text>
</a>
</g>
</g>
<!-- Node1&#45;&gt;Node6 -->
<g id="edge5" class="edge">
<title>Node1&#45;&gt;Node6</title>
<path fill="none" stroke="black" d="M139.01,-101.67C147.93,-90.89 160.69,-77.8 175,-70.33 222.03,-45.77 281.71,-36.36 326.73,-32.9"/>
<polygon fill="black" stroke="black" points="136.16,-99.63 132.74,-109.66 141.67,-103.96 136.16,-99.63"/>
</g>
<!-- Node1&#45;&gt;Node6 -->
<g id="edge9" class="edge">
<title>Node1&#45;&gt;Node6</title>
<path fill="none" stroke="darkgreen" stroke-dasharray="5,2" d="M127.38,-109.79C130.95,-89.12 142.58,-40.46 175,-20.33 236.01,17.55 326.15,-6.68 368.86,-21.82"/>
<text text-anchor="middle" x="242" y="-23.33" font-family="Helvetica,sans-Serif" font-size="10.00">project_box_rectangle.scad</text>
</g>
<!-- Node2 -->
<g id="node2" class="node">
<title>Node2</title>
<g id="a_node2"><a xlink:href="group__parts__3d.html" target="_top" xlink:title="3d parts, part generators, and small assemblies.">
<polygon fill="white" stroke="black" points="56,-128.83 0,-128.83 0,-109.83 56,-109.83 56,-128.83"/>
<text text-anchor="middle" x="28" y="-116.83" font-family="Helvetica,sans-Serif" font-size="10.00">3d Parts</text>
</a>
</g>
</g>
<!-- Node2&#45;&gt;Node1 -->
<g id="edge1" class="edge">
<title>Node2&#45;&gt;Node1</title>
<path fill="none" stroke="black" d="M66.22,-119.33C75,-119.33 84.27,-119.33 92.75,-119.33"/>
<polygon fill="black" stroke="black" points="66.22,-115.83 56.22,-119.33 66.22,-122.83 66.22,-115.83"/>
</g>
</g>
</svg>
