<?xml version="1.0" encoding="UTF-8" standalone="no"?>
<!DOCTYPE svg PUBLIC "-//W3C//DTD SVG 1.1//EN"
 "http://www.w3.org/Graphics/SVG/1.1/DTD/svg11.dtd">
<!-- Generated by graphviz version 2.43.0 (0)
 -->
<!-- Title: draft_table_text Pages: 1 -->
<svg width="251pt" height="104pt"
 viewBox="0.00 0.00 251.00 104.00" xmlns="http://www.w3.org/2000/svg" xmlns:xlink="http://www.w3.org/1999/xlink">
<g id="graph0" class="graph" transform="scale(1 1) rotate(0) translate(4 100)">
<title>draft_table_text</title>
<polygon fill="white" stroke="transparent" points="-4,4 -4,-100 247,-100 247,4 -4,4"/>
<!-- Node1 -->
<g id="node1" class="node">
<title>Node1</title>
<g id="a_node1"><a xlink:title="Add text to table cell at a given a column and row.">
<polygon fill="#bfbfbf" stroke="black" points="0,-38.5 0,-57.5 94,-57.5 94,-38.5 0,-38.5"/>
<text text-anchor="middle" x="47" y="-45.5" font-family="Helvetica,sans-Serif" font-size="10.00">draft_table_text</text>
</a>
</g>
</g>
<!-- Node2 -->
<g id="node2" class="node">
<title>Node2</title>
<g id="a_node2"><a xlink:href="group__datatypes__iterable__test.html#gaf03535690f739eafba1a4cd1b56b4651" target="_top" xlink:title="Test if all elements of an iterable value are strings.">
<polygon fill="white" stroke="black" points="153,-76.5 153,-95.5 220,-95.5 220,-76.5 153,-76.5"/>
<text text-anchor="middle" x="186.5" y="-83.5" font-family="Helvetica,sans-Serif" font-size="10.00">all_strings</text>
</a>
</g>
</g>
<!-- Node1&#45;&gt;Node2 -->
<g id="edge1" class="edge">
<title>Node1&#45;&gt;Node2</title>
<path fill="none" stroke="midnightblue" d="M82.7,-57.59C100.99,-62.64 123.58,-68.89 142.93,-74.23"/>
<polygon fill="midnightblue" stroke="midnightblue" points="142.14,-77.65 152.71,-76.94 144,-70.9 142.14,-77.65"/>
</g>
<!-- Node3 -->
<g id="node3" class="node">
<title>Node3</title>
<g id="a_node3"><a xlink:href="group__datatypes__scalar__operate.html#gac119300e8c83de0037f2d0a4d9f0ab5c" target="_top" xlink:title="Return given value, if defined, or a secondary value, if primary is not defined.">
<polygon fill="white" stroke="black" points="152.5,-38.5 152.5,-57.5 220.5,-57.5 220.5,-38.5 152.5,-38.5"/>
<text text-anchor="middle" x="186.5" y="-45.5" font-family="Helvetica,sans-Serif" font-size="10.00">defined_or</text>
</a>
</g>
</g>
<!-- Node1&#45;&gt;Node3 -->
<g id="edge2" class="edge">
<title>Node1&#45;&gt;Node3</title>
<path fill="none" stroke="midnightblue" d="M94.17,-48C109.64,-48 126.82,-48 142.07,-48"/>
<polygon fill="midnightblue" stroke="midnightblue" points="142.27,-51.5 152.27,-48 142.27,-44.5 142.27,-51.5"/>
</g>
<!-- Node4 -->
<g id="node4" class="node">
<title>Node4</title>
<g id="a_node4"><a xlink:href="group__tools__drafting__primitive.html#ga86b6eb63073241bfdfb18ba221fd3ec2" target="_top" xlink:title="Get table cell coordinates given a column and row.">
<polygon fill="white" stroke="black" points="130,-0.5 130,-19.5 243,-19.5 243,-0.5 130,-0.5"/>
<text text-anchor="middle" x="186.5" y="-7.5" font-family="Helvetica,sans-Serif" font-size="10.00">draft_table_get_cell</text>
</a>
</g>
</g>
<!-- Node1&#45;&gt;Node4 -->
<g id="edge3" class="edge">
<title>Node1&#45;&gt;Node4</title>
<path fill="none" stroke="midnightblue" d="M82.7,-38.41C100.37,-33.53 122.05,-27.54 140.94,-22.32"/>
<polygon fill="midnightblue" stroke="midnightblue" points="142.11,-25.62 150.81,-19.59 140.24,-18.88 142.11,-25.62"/>
</g>
</g>
</svg>
