<?xml version="1.0" encoding="UTF-8" standalone="no"?>
<!DOCTYPE svg PUBLIC "-//W3C//DTD SVG 1.1//EN"
 "http://www.w3.org/Graphics/SVG/1.1/DTD/svg11.dtd">
<!-- Generated by graphviz version 2.43.0 (0)
 -->
<!-- Title: pg_rectangle Pages: 1 -->
<svg width="264pt" height="104pt"
 viewBox="0.00 0.00 264.00 104.00" xmlns="http://www.w3.org/2000/svg" xmlns:xlink="http://www.w3.org/1999/xlink">
<g id="graph0" class="graph" transform="scale(1 1) rotate(0) translate(4 100)">
<title>pg_rectangle</title>
<polygon fill="white" stroke="transparent" points="-4,4 -4,-100 260,-100 260,4 -4,4"/>
<!-- Node1 -->
<g id="node1" class="node">
<title>Node1</title>
<g id="a_node1"><a xlink:title="A polygon rectangle with vertex rounding.">
<polygon fill="#bfbfbf" stroke="black" points="0,-38.5 0,-57.5 80,-57.5 80,-38.5 0,-38.5"/>
<text text-anchor="middle" x="40" y="-45.5" font-family="Helvetica,sans-Serif" font-size="10.00">pg_rectangle</text>
</a>
</g>
</g>
<!-- Node2 -->
<g id="node2" class="node">
<title>Node2</title>
<g id="a_node2"><a xlink:href="group__datatypes__iterable__operate.html#ga3d37c2b0067d1661724bd89955c8f6ce" target="_top" xlink:title="Return an element of an iterable when it exists or a default value otherwise.">
<polygon fill="white" stroke="black" points="146.5,-76.5 146.5,-95.5 225.5,-95.5 225.5,-76.5 146.5,-76.5"/>
<text text-anchor="middle" x="186" y="-83.5" font-family="Helvetica,sans-Serif" font-size="10.00">defined_e_or</text>
</a>
</g>
</g>
<!-- Node1&#45;&gt;Node2 -->
<g id="edge1" class="edge">
<title>Node1&#45;&gt;Node2</title>
<path fill="none" stroke="midnightblue" d="M77.34,-57.59C96.08,-62.54 119.14,-68.62 139.11,-73.89"/>
<polygon fill="midnightblue" stroke="midnightblue" points="138.36,-77.31 148.92,-76.48 140.15,-70.54 138.36,-77.31"/>
</g>
<!-- Node3 -->
<g id="node3" class="node">
<title>Node3</title>
<g id="a_node3"><a xlink:href="group__math__polygon.html#ga7a0eff64929a142fc507615f83e3bd58" target="_top" xlink:title="Compute coordinates that round all of the vertices between each adjacent edges in 2D.">
<polygon fill="white" stroke="black" points="116,-38.5 116,-57.5 256,-57.5 256,-38.5 116,-38.5"/>
<text text-anchor="middle" x="186" y="-45.5" font-family="Helvetica,sans-Serif" font-size="10.00">polygon_round_eve_all_p</text>
</a>
</g>
</g>
<!-- Node1&#45;&gt;Node3 -->
<g id="edge2" class="edge">
<title>Node1&#45;&gt;Node3</title>
<path fill="none" stroke="midnightblue" d="M80.35,-48C88.25,-48 96.82,-48 105.53,-48"/>
<polygon fill="midnightblue" stroke="midnightblue" points="105.79,-51.5 115.79,-48 105.79,-44.5 105.79,-51.5"/>
</g>
<!-- Node4 -->
<g id="node4" class="node">
<title>Node4</title>
<g id="a_node4"><a xlink:href="group__math__linear__algebra.html#gaeabe74699fd0a437bad9a1d442bfd111" target="_top" xlink:title="Translate all coordinates dimensions.">
<polygon fill="white" stroke="black" points="150.5,-0.5 150.5,-19.5 221.5,-19.5 221.5,-0.5 150.5,-0.5"/>
<text text-anchor="middle" x="186" y="-7.5" font-family="Helvetica,sans-Serif" font-size="10.00">translate_p</text>
</a>
</g>
</g>
<!-- Node1&#45;&gt;Node4 -->
<g id="edge3" class="edge">
<title>Node1&#45;&gt;Node4</title>
<path fill="none" stroke="midnightblue" d="M77.34,-38.41C96.44,-33.37 120.02,-27.15 140.24,-21.81"/>
<polygon fill="midnightblue" stroke="midnightblue" points="141.39,-25.13 150.16,-19.19 139.6,-18.36 141.39,-25.13"/>
</g>
</g>
</svg>
