<?xml version="1.0" encoding="UTF-8" standalone="no"?>
<!DOCTYPE svg PUBLIC "-//W3C//DTD SVG 1.1//EN"
 "http://www.w3.org/Graphics/SVG/1.1/DTD/svg11.dtd">
<!-- Generated by graphviz version 2.43.0 (0)
 -->
<!-- Title: Fastener Pages: 1 -->
<svg width="366pt" height="34pt"
 viewBox="0.00 0.00 366.00 34.15" xmlns="http://www.w3.org/2000/svg" xmlns:xlink="http://www.w3.org/1999/xlink">
<g id="graph0" class="graph" transform="scale(1 1) rotate(0) translate(4 30.15)">
<title>Fastener</title>
<polygon fill="white" stroke="transparent" points="-4,4 -4,-30.15 362,-30.15 362,4 -4,4"/>
<!-- Node3 -->
<g id="node1" class="node">
<title>Node3</title>
<g id="a_node1"><a xlink:href="group__models__3d__fastener__screws.html" target="_top" xlink:title="Screws, bolts and fastener bores.">
<polygon fill="white" stroke="black" points="358,-26.15 258,-26.15 258,-7.15 358,-7.15 358,-26.15"/>
<text text-anchor="middle" x="308" y="-14.15" font-family="Helvetica,sans-Serif" font-size="10.00">Screws and Bolts</text>
</a>
</g>
</g>
<!-- Node1 -->
<g id="node2" class="node">
<title>Node1</title>
<g id="a_node2"><a xlink:title="Fasteners, connectors, latches, and hinges.">
<polygon fill="#bfbfbf" stroke="black" points="162,-26.15 104,-26.15 104,-7.15 162,-7.15 162,-26.15"/>
<text text-anchor="middle" x="133" y="-14.15" font-family="Helvetica,sans-Serif" font-size="10.00">Fastener</text>
</a>
</g>
</g>
<!-- Node1&#45;&gt;Node3 -->
<g id="edge2" class="edge">
<title>Node1&#45;&gt;Node3</title>
<path fill="none" stroke="black" d="M172.44,-16.65C197.62,-16.65 230.76,-16.65 257.85,-16.65"/>
<polygon fill="black" stroke="black" points="172.18,-13.15 162.18,-16.65 172.18,-20.15 172.18,-13.15"/>
</g>
<!-- Node1&#45;&gt;Node3 -->
<g id="edge3" class="edge">
<title>Node1&#45;&gt;Node3</title>
<path fill="none" stroke="darkgreen" stroke-dasharray="5,2" d="M160.45,-7.14C166.77,-5.28 173.56,-3.61 180,-2.65 206.38,1.28 213.47,0.09 240,-2.65 249.22,-3.6 259.04,-5.27 268.24,-7.14"/>
<text text-anchor="middle" x="210" y="-5.65" font-family="Helvetica,sans-Serif" font-size="10.00">screws.scad</text>
</g>
<!-- Node2 -->
<g id="node3" class="node">
<title>Node2</title>
<g id="a_node3"><a xlink:href="group__models__3d.html" target="_top" xlink:title="3d black&#45;box models of commodity components.">
<polygon fill="white" stroke="black" points="67,-26.15 0,-26.15 0,-7.15 67,-7.15 67,-26.15"/>
<text text-anchor="middle" x="33.5" y="-14.15" font-family="Helvetica,sans-Serif" font-size="10.00">3d Models</text>
</a>
</g>
</g>
<!-- Node2&#45;&gt;Node1 -->
<g id="edge1" class="edge">
<title>Node2&#45;&gt;Node1</title>
<path fill="none" stroke="black" d="M77.49,-16.65C86.39,-16.65 95.54,-16.65 103.75,-16.65"/>
<polygon fill="black" stroke="black" points="77.24,-13.15 67.24,-16.65 77.24,-20.15 77.24,-13.15"/>
</g>
</g>
</svg>
