<?xml version="1.0" encoding="UTF-8" standalone="no"?>
<!DOCTYPE svg PUBLIC "-//W3C//DTD SVG 1.1//EN"
 "http://www.w3.org/Graphics/SVG/1.1/DTD/svg11.dtd">
<!-- Generated by graphviz version 2.43.0 (0)
 -->
<!-- Title: table_dump Pages: 1 -->
<svg width="236pt" height="256pt"
 viewBox="0.00 0.00 236.00 256.00" xmlns="http://www.w3.org/2000/svg" xmlns:xlink="http://www.w3.org/1999/xlink">
<g id="graph0" class="graph" transform="scale(1 1) rotate(0) translate(4 252)">
<title>table_dump</title>
<polygon fill="white" stroke="transparent" points="-4,4 -4,-252 232,-252 232,4 -4,4"/>
<!-- Node1 -->
<g id="node1" class="node">
<title>Node1</title>
<g id="a_node1"><a xlink:title="Dump a table to the console.">
<polygon fill="#bfbfbf" stroke="black" points="0,-114.5 0,-133.5 74,-133.5 74,-114.5 0,-114.5"/>
<text text-anchor="middle" x="37" y="-121.5" font-family="Helvetica,sans-Serif" font-size="10.00">table_dump</text>
</a>
</g>
</g>
<!-- Node2 -->
<g id="node2" class="node">
<title>Node2</title>
<g id="a_node2"><a xlink:href="group__datatypes__list__operate.html#gab05ff3da4d68d30922daa197f505580d" target="_top" xlink:title="Create a list of constant or incrementing elements.">
<polygon fill="white" stroke="black" points="145,-228.5 145,-247.5 193,-247.5 193,-228.5 145,-228.5"/>
<text text-anchor="middle" x="169" y="-235.5" font-family="Helvetica,sans-Serif" font-size="10.00">consts</text>
</a>
</g>
</g>
<!-- Node1&#45;&gt;Node2 -->
<g id="edge1" class="edge">
<title>Node1&#45;&gt;Node2</title>
<path fill="none" stroke="midnightblue" d="M42.72,-133.62C52.57,-152.71 77.14,-195.57 110,-219 117.38,-224.26 126.3,-228.13 134.91,-230.94"/>
<polygon fill="midnightblue" stroke="midnightblue" points="134.19,-234.38 144.77,-233.79 136.13,-227.65 134.19,-234.38"/>
</g>
<!-- Node3 -->
<g id="node3" class="node">
<title>Node3</title>
<g id="a_node3"><a xlink:href="group__datatypes__iterable__operate.html#gaccab3e37e43cb1d882713b3f3d6d9e1b" target="_top" xlink:title="Return the first element of an iterable value.">
<polygon fill="white" stroke="black" points="151.5,-190.5 151.5,-209.5 186.5,-209.5 186.5,-190.5 151.5,-190.5"/>
<text text-anchor="middle" x="169" y="-197.5" font-family="Helvetica,sans-Serif" font-size="10.00">first</text>
</a>
</g>
</g>
<!-- Node1&#45;&gt;Node3 -->
<g id="edge2" class="edge">
<title>Node1&#45;&gt;Node3</title>
<path fill="none" stroke="midnightblue" d="M47.91,-133.76C61.08,-146.26 85.56,-167.87 110,-181 119.87,-186.3 131.48,-190.47 141.71,-193.53"/>
<polygon fill="midnightblue" stroke="midnightblue" points="140.8,-196.91 151.37,-196.22 142.68,-190.16 140.8,-196.91"/>
</g>
<!-- Node4 -->
<g id="node4" class="node">
<title>Node4</title>
<g id="a_node4"><a xlink:href="group__datatypes__scalar__test.html#gac47a7785d144083733c43327ea092e1d" target="_top" xlink:title="Test if a value is a number.">
<polygon fill="white" stroke="black" points="135,-152.5 135,-171.5 203,-171.5 203,-152.5 135,-152.5"/>
<text text-anchor="middle" x="169" y="-159.5" font-family="Helvetica,sans-Serif" font-size="10.00">is_number</text>
</a>
</g>
</g>
<!-- Node1&#45;&gt;Node4 -->
<g id="edge3" class="edge">
<title>Node1&#45;&gt;Node4</title>
<path fill="none" stroke="midnightblue" d="M70.8,-133.59C87.28,-138.4 107.44,-144.3 125.13,-149.47"/>
<polygon fill="midnightblue" stroke="midnightblue" points="124.63,-152.97 135.21,-152.41 126.59,-146.25 124.63,-152.97"/>
</g>
<!-- Node5 -->
<g id="node5" class="node">
<title>Node5</title>
<g id="a_node5"><a xlink:href="group__common__console.html#ga2565219688decee9515f527f4553044a" target="_top" xlink:title="Output message to console.">
<polygon fill="white" stroke="black" points="139,-114.5 139,-133.5 199,-133.5 199,-114.5 139,-114.5"/>
<text text-anchor="middle" x="169" y="-121.5" font-family="Helvetica,sans-Serif" font-size="10.00">log_echo</text>
</a>
</g>
</g>
<!-- Node1&#45;&gt;Node5 -->
<g id="edge4" class="edge">
<title>Node1&#45;&gt;Node5</title>
<path fill="none" stroke="midnightblue" d="M74.21,-124C91.14,-124 111.32,-124 128.62,-124"/>
<polygon fill="midnightblue" stroke="midnightblue" points="128.97,-127.5 138.97,-124 128.97,-120.5 128.97,-127.5"/>
</g>
<!-- Node6 -->
<g id="node6" class="node">
<title>Node6</title>
<g id="a_node6"><a xlink:href="group__datatypes__table.html#ga81a0c09664cc9d9123fb2aa4a0a143c4" target="_top" xlink:title="Get the table row index that matches a table row identifier.">
<polygon fill="white" stroke="black" points="110,-76.5 110,-95.5 228,-95.5 228,-76.5 110,-76.5"/>
<text text-anchor="middle" x="169" y="-83.5" font-family="Helvetica,sans-Serif" font-size="10.00">table_get_row_index</text>
</a>
</g>
</g>
<!-- Node1&#45;&gt;Node6 -->
<g id="edge5" class="edge">
<title>Node1&#45;&gt;Node6</title>
<path fill="none" stroke="midnightblue" d="M70.8,-114.41C87.28,-109.6 107.44,-103.7 125.13,-98.53"/>
<polygon fill="midnightblue" stroke="midnightblue" points="126.59,-101.75 135.21,-95.59 124.63,-95.03 126.59,-101.75"/>
</g>
<!-- Node7 -->
<g id="node7" class="node">
<title>Node7</title>
<g id="a_node7"><a xlink:href="group__datatypes__table.html#ga4fb8609e20584a019b2a4028d692db82" target="_top" xlink:title="Get the size of a table.">
<polygon fill="white" stroke="black" points="125.5,-38.5 125.5,-57.5 212.5,-57.5 212.5,-38.5 125.5,-38.5"/>
<text text-anchor="middle" x="169" y="-45.5" font-family="Helvetica,sans-Serif" font-size="10.00">table_get_size</text>
</a>
</g>
</g>
<!-- Node1&#45;&gt;Node7 -->
<g id="edge6" class="edge">
<title>Node1&#45;&gt;Node7</title>
<path fill="none" stroke="midnightblue" d="M47.91,-114.24C61.08,-101.74 85.56,-80.13 110,-67 113.99,-64.85 118.27,-62.89 122.63,-61.12"/>
<polygon fill="midnightblue" stroke="midnightblue" points="124.08,-64.32 132.21,-57.53 121.62,-57.76 124.08,-64.32"/>
</g>
<!-- Node8 -->
<g id="node8" class="node">
<title>Node8</title>
<g id="a_node8"><a xlink:href="group__datatypes__table.html#gaff59353c2a35021843d7a7f34d34eac9" target="_top" xlink:title="Get the table cell value for a specified row and column identifier.">
<polygon fill="white" stroke="black" points="121.5,-0.5 121.5,-19.5 216.5,-19.5 216.5,-0.5 121.5,-0.5"/>
<text text-anchor="middle" x="169" y="-7.5" font-family="Helvetica,sans-Serif" font-size="10.00">table_get_value</text>
</a>
</g>
</g>
<!-- Node1&#45;&gt;Node8 -->
<g id="edge7" class="edge">
<title>Node1&#45;&gt;Node8</title>
<path fill="none" stroke="midnightblue" d="M42.72,-114.38C52.57,-95.29 77.14,-52.43 110,-29 112.72,-27.06 115.64,-25.31 118.69,-23.74"/>
<polygon fill="midnightblue" stroke="midnightblue" points="120.4,-26.81 128.08,-19.51 117.52,-20.42 120.4,-26.81"/>
</g>
</g>
</svg>
