<?xml version="1.0" encoding="UTF-8" standalone="no"?>
<!DOCTYPE svg PUBLIC "-//W3C//DTD SVG 1.1//EN"
 "http://www.w3.org/Graphics/SVG/1.1/DTD/svg11.dtd">
<!-- Generated by graphviz version 2.43.0 (0)
 -->
<!-- Title: Motor Pages: 1 -->
<svg width="261pt" height="27pt"
 viewBox="0.00 0.00 261.00 27.00" xmlns="http://www.w3.org/2000/svg" xmlns:xlink="http://www.w3.org/1999/xlink">
<g id="graph0" class="graph" transform="scale(1 1) rotate(0) translate(4 23)">
<title>Motor</title>
<polygon fill="white" stroke="transparent" points="-4,4 -4,-23 257,-23 257,4 -4,4"/>
<!-- Node1 -->
<g id="node1" class="node">
<title>Node1</title>
<g id="a_node1"><a xlink:title=" ">
<polygon fill="#bfbfbf" stroke="black" points="131,-19 86,-19 86,0 131,0 131,-19"/>
<text text-anchor="middle" x="108.5" y="-7" font-family="Helvetica,sans-Serif" font-size="10.00">Motor</text>
</a>
</g>
</g>
<!-- Node3 -->
<g id="node3" class="node">
<title>Node3</title>
<g id="a_node3"><a xlink:href="group__database__component__motion__motor__nema__stepper.html" target="_top" xlink:title="[motor] Nema stepper motor; nema_stepper; stepper motor.">
<polygon fill="white" stroke="black" points="253,-19 167,-19 167,0 253,0 253,-19"/>
<text text-anchor="middle" x="210" y="-7" font-family="Helvetica,sans-Serif" font-size="10.00">nema_stepper</text>
</a>
</g>
</g>
<!-- Node1&#45;&gt;Node3 -->
<g id="edge2" class="edge">
<title>Node1&#45;&gt;Node3</title>
<path fill="none" stroke="black" d="M141.31,-9.5C149.48,-9.5 158.39,-9.5 166.99,-9.5"/>
<polygon fill="black" stroke="black" points="141.09,-6 131.09,-9.5 141.09,-13 141.09,-6"/>
</g>
<!-- Node2 -->
<g id="node2" class="node">
<title>Node2</title>
<g id="a_node2"><a xlink:href="group__database__component__motion.html" target="_top" xlink:title="Mechanical motion design component specifications.">
<polygon fill="white" stroke="black" points="50,-19 0,-19 0,0 50,0 50,-19"/>
<text text-anchor="middle" x="25" y="-7" font-family="Helvetica,sans-Serif" font-size="10.00">Motion</text>
</a>
</g>
</g>
<!-- Node2&#45;&gt;Node1 -->
<g id="edge1" class="edge">
<title>Node2&#45;&gt;Node1</title>
<path fill="none" stroke="black" d="M60.28,-9.5C68.96,-9.5 78.03,-9.5 85.88,-9.5"/>
<polygon fill="black" stroke="black" points="60.01,-6 50.01,-9.5 60.01,-13 60.01,-6"/>
</g>
</g>
</svg>
