<?xml version="1.0" encoding="UTF-8" standalone="no"?>
<!DOCTYPE svg PUBLIC "-//W3C//DTD SVG 1.1//EN"
 "http://www.w3.org/Graphics/SVG/1.1/DTD/svg11.dtd">
<!-- Generated by graphviz version 2.43.0 (0)
 -->
<!-- Title: omdl&#45;base.scad Pages: 1 -->
<svg width="3499pt" height="95pt"
 viewBox="0.00 0.00 3498.50 95.00" xmlns="http://www.w3.org/2000/svg" xmlns:xlink="http://www.w3.org/1999/xlink">
<g id="graph0" class="graph" transform="scale(1 1) rotate(0) translate(4 91)">
<title>omdl&#45;base.scad</title>
<polygon fill="white" stroke="transparent" points="-4,4 -4,-91 3494.5,-91 3494.5,4 -4,4"/>
<!-- Node1 -->
<g id="node1" class="node">
<title>Node1</title>
<g id="a_node1"><a xlink:title="Include wrapper of base library components.">
<polygon fill="#bfbfbf" stroke="black" points="1818.5,-67.5 1818.5,-86.5 1912.5,-86.5 1912.5,-67.5 1818.5,-67.5"/>
<text text-anchor="middle" x="1865.5" y="-74.5" font-family="Helvetica,sans-Serif" font-size="10.00">omdl&#45;base.scad</text>
</a>
</g>
</g>
<!-- Node2 -->
<g id="node2" class="node">
<title>Node2</title>
<g id="a_node2"><a xlink:href="console_8scad.html" target="_top" xlink:title="Message logging functions.">
<polygon fill="white" stroke="black" points="0,-6 0,-25 125,-25 125,-6 0,-6"/>
<text text-anchor="middle" x="62.5" y="-13" font-family="Helvetica,sans-Serif" font-size="10.00">common/console.scad</text>
</a>
</g>
</g>
<!-- Node1&#45;&gt;Node2 -->
<g id="edge1" class="edge">
<title>Node1&#45;&gt;Node2</title>
<path fill="none" stroke="midnightblue" d="M1818.12,-75.89C1575.8,-75.18 473.26,-69.8 133.5,-31 125.24,-30.06 116.5,-28.63 108.1,-27.04"/>
<polygon fill="midnightblue" stroke="midnightblue" points="108.55,-23.56 98.06,-25.03 107.18,-30.43 108.55,-23.56"/>
</g>
<!-- Node3 -->
<g id="node3" class="node">
<title>Node3</title>
<g id="a_node3"><a xlink:href="constants_8scad.html" target="_top" xlink:title="Constant definitions.">
<polygon fill="white" stroke="black" points="143,-6 143,-25 278,-25 278,-6 143,-6"/>
<text text-anchor="middle" x="210.5" y="-13" font-family="Helvetica,sans-Serif" font-size="10.00">common/constants.scad</text>
</a>
</g>
</g>
<!-- Node1&#45;&gt;Node3 -->
<g id="edge2" class="edge">
<title>Node1&#45;&gt;Node3</title>
<path fill="none" stroke="midnightblue" d="M1818.22,-75.67C1589.31,-73.94 594.57,-64.56 286.5,-31 277.38,-30.01 267.72,-28.51 258.45,-26.85"/>
<polygon fill="midnightblue" stroke="midnightblue" points="259.07,-23.41 248.59,-25 257.78,-30.29 259.07,-23.41"/>
</g>
<!-- Node4 -->
<g id="node4" class="node">
<title>Node4</title>
<g id="a_node4"><a xlink:href="scalar__test_8scad.html" target="_top" xlink:title="Scalar data type tests.">
<polygon fill="white" stroke="black" points="296,-6 296,-25 443,-25 443,-6 296,-6"/>
<text text-anchor="middle" x="369.5" y="-13" font-family="Helvetica,sans-Serif" font-size="10.00">datatypes/scalar_test.scad</text>
</a>
</g>
</g>
<!-- Node1&#45;&gt;Node4 -->
<g id="edge3" class="edge">
<title>Node1&#45;&gt;Node4</title>
<path fill="none" stroke="midnightblue" d="M1818.32,-75.39C1604.65,-72.51 726.25,-59.13 452.5,-31 442.46,-29.97 431.8,-28.44 421.59,-26.76"/>
<polygon fill="midnightblue" stroke="midnightblue" points="422.01,-23.28 411.56,-25.03 420.83,-30.18 422.01,-23.28"/>
</g>
<!-- Node5 -->
<g id="node5" class="node">
<title>Node5</title>
<g id="a_node5"><a xlink:href="scalar__operate_8scad.html" target="_top" xlink:title="Scalar data type operations.">
<polygon fill="white" stroke="black" points="461.5,-6 461.5,-25 627.5,-25 627.5,-6 461.5,-6"/>
<text text-anchor="middle" x="544.5" y="-13" font-family="Helvetica,sans-Serif" font-size="10.00">datatypes/scalar_operate.scad</text>
</a>
</g>
</g>
<!-- Node1&#45;&gt;Node5 -->
<g id="edge4" class="edge">
<title>Node1&#45;&gt;Node5</title>
<path fill="none" stroke="midnightblue" d="M1818.48,-76.3C1654.89,-76.92 1095.54,-75.42 636.5,-31 625.17,-29.9 613.12,-28.31 601.6,-26.59"/>
<polygon fill="midnightblue" stroke="midnightblue" points="602.06,-23.12 591.64,-25.04 600.98,-30.03 602.06,-23.12"/>
</g>
<!-- Node6 -->
<g id="node6" class="node">
<title>Node6</title>
<g id="a_node6"><a xlink:href="iterable__test_8scad.html" target="_top" xlink:title="Iterable data type tests.">
<polygon fill="white" stroke="black" points="645.5,-0.5 645.5,-30.5 751.5,-30.5 751.5,-0.5 645.5,-0.5"/>
<text text-anchor="start" x="653.5" y="-18.5" font-family="Helvetica,sans-Serif" font-size="10.00">datatypes/iterable</text>
<text text-anchor="middle" x="698.5" y="-7.5" font-family="Helvetica,sans-Serif" font-size="10.00">_test.scad</text>
</a>
</g>
</g>
<!-- Node1&#45;&gt;Node6 -->
<g id="edge5" class="edge">
<title>Node1&#45;&gt;Node6</title>
<path fill="none" stroke="midnightblue" d="M1818.19,-75.26C1637.45,-72.27 989.67,-59.84 762.01,-30.99"/>
<polygon fill="midnightblue" stroke="midnightblue" points="762.19,-27.48 751.81,-29.64 761.27,-34.42 762.19,-27.48"/>
</g>
<!-- Node7 -->
<g id="node7" class="node">
<title>Node7</title>
<g id="a_node7"><a xlink:href="iterable__operate_8scad.html" target="_top" xlink:title="Iterable data type operations.">
<polygon fill="white" stroke="black" points="769.5,-0.5 769.5,-30.5 875.5,-30.5 875.5,-0.5 769.5,-0.5"/>
<text text-anchor="start" x="777.5" y="-18.5" font-family="Helvetica,sans-Serif" font-size="10.00">datatypes/iterable</text>
<text text-anchor="middle" x="822.5" y="-7.5" font-family="Helvetica,sans-Serif" font-size="10.00">_operate.scad</text>
</a>
</g>
</g>
<!-- Node1&#45;&gt;Node7 -->
<g id="edge6" class="edge">
<title>Node1&#45;&gt;Node7</title>
<path fill="none" stroke="midnightblue" d="M1818.37,-74.99C1651.43,-71.22 1087.97,-56.98 886.02,-30.99"/>
<polygon fill="midnightblue" stroke="midnightblue" points="886.19,-27.48 875.82,-29.63 885.26,-34.42 886.19,-27.48"/>
</g>
<!-- Node8 -->
<g id="node8" class="node">
<title>Node8</title>
<g id="a_node8"><a xlink:href="list__operate_8scad.html" target="_top" xlink:title="List data type operations.">
<polygon fill="white" stroke="black" points="893.5,-6 893.5,-25 1045.5,-25 1045.5,-6 893.5,-6"/>
<text text-anchor="middle" x="969.5" y="-13" font-family="Helvetica,sans-Serif" font-size="10.00">datatypes/list_operate.scad</text>
</a>
</g>
</g>
<!-- Node1&#45;&gt;Node8 -->
<g id="edge7" class="edge">
<title>Node1&#45;&gt;Node8</title>
<path fill="none" stroke="midnightblue" d="M1818.26,-75.25C1693.25,-72.87 1343.52,-63.56 1054.5,-31 1044.57,-29.88 1034.04,-28.36 1023.9,-26.72"/>
<polygon fill="midnightblue" stroke="midnightblue" points="1024.36,-23.25 1013.92,-25.06 1023.21,-30.16 1024.36,-23.25"/>
</g>
<!-- Node9 -->
<g id="node9" class="node">
<title>Node9</title>
<g id="a_node9"><a xlink:href="list__compare_8scad.html" target="_top" xlink:title="List data type comparision.">
<polygon fill="white" stroke="black" points="1064,-6 1064,-25 1221,-25 1221,-6 1064,-6"/>
<text text-anchor="middle" x="1142.5" y="-13" font-family="Helvetica,sans-Serif" font-size="10.00">datatypes/list_compare.scad</text>
</a>
</g>
</g>
<!-- Node1&#45;&gt;Node9 -->
<g id="edge8" class="edge">
<title>Node1&#45;&gt;Node9</title>
<path fill="none" stroke="midnightblue" d="M1818.28,-74.19C1712.55,-69.79 1448.8,-56.97 1229.5,-31 1219.58,-29.82 1209.06,-28.31 1198.9,-26.7"/>
<polygon fill="midnightblue" stroke="midnightblue" points="1199.32,-23.22 1188.89,-25.07 1198.2,-30.13 1199.32,-23.22"/>
</g>
<!-- Node10 -->
<g id="node10" class="node">
<title>Node10</title>
<g id="a_node10"><a xlink:href="euclidean_8scad.html" target="_top" xlink:title="Tests and operations for Euclidean 3d space.">
<polygon fill="white" stroke="black" points="1239,-6 1239,-25 1380,-25 1380,-6 1239,-6"/>
<text text-anchor="middle" x="1309.5" y="-13" font-family="Helvetica,sans-Serif" font-size="10.00">datatypes/euclidean.scad</text>
</a>
</g>
</g>
<!-- Node1&#45;&gt;Node10 -->
<g id="edge9" class="edge">
<title>Node1&#45;&gt;Node10</title>
<path fill="none" stroke="midnightblue" d="M1818.29,-72.92C1732.46,-67.02 1545.25,-52.74 1388.5,-31 1379.87,-29.8 1370.75,-28.33 1361.88,-26.78"/>
<polygon fill="midnightblue" stroke="midnightblue" points="1362.49,-23.33 1352.03,-25.01 1361.25,-30.22 1362.49,-23.33"/>
</g>
<!-- Node11 -->
<g id="node11" class="node">
<title>Node11</title>
<g id="a_node11"><a xlink:href="binary_8scad.html" target="_top" xlink:title="Base&#45;2 binary numbers tests and operations.">
<polygon fill="white" stroke="black" points="1398,-6 1398,-25 1521,-25 1521,-6 1398,-6"/>
<text text-anchor="middle" x="1459.5" y="-13" font-family="Helvetica,sans-Serif" font-size="10.00">datatypes/binary.scad</text>
</a>
</g>
</g>
<!-- Node1&#45;&gt;Node11 -->
<g id="edge10" class="edge">
<title>Node1&#45;&gt;Node11</title>
<path fill="none" stroke="midnightblue" d="M1818.47,-70.7C1753.51,-63.16 1632.77,-48.29 1530.5,-31 1523.42,-29.8 1515.97,-28.42 1508.67,-26.99"/>
<polygon fill="midnightblue" stroke="midnightblue" points="1509.34,-23.56 1498.84,-25.03 1507.96,-30.42 1509.34,-23.56"/>
</g>
<!-- Node12 -->
<g id="node12" class="node">
<title>Node12</title>
<g id="a_node12"><a xlink:href="map_8scad.html" target="_top" xlink:title="Map data structure and operations.">
<polygon fill="white" stroke="black" points="1539.5,-6 1539.5,-25 1655.5,-25 1655.5,-6 1539.5,-6"/>
<text text-anchor="middle" x="1597.5" y="-13" font-family="Helvetica,sans-Serif" font-size="10.00">datatypes/map.scad</text>
</a>
</g>
</g>
<!-- Node1&#45;&gt;Node12 -->
<g id="edge11" class="edge">
<title>Node1&#45;&gt;Node12</title>
<path fill="none" stroke="midnightblue" d="M1827.1,-67.48C1779.34,-56.87 1697.76,-38.76 1645.8,-27.22"/>
<polygon fill="midnightblue" stroke="midnightblue" points="1646.35,-23.76 1635.83,-25.01 1644.83,-30.59 1646.35,-23.76"/>
</g>
<!-- Node13 -->
<g id="node13" class="node">
<title>Node13</title>
<g id="a_node13"><a xlink:href="table_8scad.html" target="_top" xlink:title="Table data structure and operations.">
<polygon fill="white" stroke="black" points="1674,-6 1674,-25 1793,-25 1793,-6 1674,-6"/>
<text text-anchor="middle" x="1733.5" y="-13" font-family="Helvetica,sans-Serif" font-size="10.00">datatypes/table.scad</text>
</a>
</g>
</g>
<!-- Node1&#45;&gt;Node13 -->
<g id="edge12" class="edge">
<title>Node1&#45;&gt;Node13</title>
<path fill="none" stroke="midnightblue" d="M1846.59,-67.48C1824.34,-57.45 1787.19,-40.7 1761.57,-29.15"/>
<polygon fill="midnightblue" stroke="midnightblue" points="1762.93,-25.93 1752.38,-25.01 1760.06,-32.31 1762.93,-25.93"/>
</g>
<!-- Node14 -->
<g id="node14" class="node">
<title>Node14</title>
<g id="a_node14"><a xlink:href="triangle_8scad.html" target="_top" xlink:title="Triangle shapes, conversions, properties, and tests functions.">
<polygon fill="white" stroke="black" points="1811.5,-6 1811.5,-25 1919.5,-25 1919.5,-6 1811.5,-6"/>
<text text-anchor="middle" x="1865.5" y="-13" font-family="Helvetica,sans-Serif" font-size="10.00">math/triangle.scad</text>
</a>
</g>
</g>
<!-- Node1&#45;&gt;Node14 -->
<g id="edge13" class="edge">
<title>Node1&#45;&gt;Node14</title>
<path fill="none" stroke="midnightblue" d="M1865.5,-67.48C1865.5,-59.08 1865.5,-45.98 1865.5,-35.16"/>
<polygon fill="midnightblue" stroke="midnightblue" points="1869,-35.01 1865.5,-25.01 1862,-35.01 1869,-35.01"/>
</g>
<!-- Node15 -->
<g id="node15" class="node">
<title>Node15</title>
<g id="a_node15"><a xlink:href="linear__algebra_8scad.html" target="_top" xlink:title="Linear algebra mathematical functions.">
<polygon fill="white" stroke="black" points="1937.5,-6 1937.5,-25 2077.5,-25 2077.5,-6 1937.5,-6"/>
<text text-anchor="middle" x="2007.5" y="-13" font-family="Helvetica,sans-Serif" font-size="10.00">math/linear_algebra.scad</text>
</a>
</g>
</g>
<!-- Node1&#45;&gt;Node15 -->
<g id="edge14" class="edge">
<title>Node1&#45;&gt;Node15</title>
<path fill="none" stroke="midnightblue" d="M1885.85,-67.48C1909.89,-57.4 1950.1,-40.55 1977.66,-29"/>
<polygon fill="midnightblue" stroke="midnightblue" points="1979.32,-32.1 1987.19,-25.01 1976.62,-25.65 1979.32,-32.1"/>
</g>
<!-- Node16 -->
<g id="node16" class="node">
<title>Node16</title>
<g id="a_node16"><a xlink:href="math_2polygon_8scad.html" target="_top" xlink:title="Polygon shapes, conversions, properties, and tests functions.">
<polygon fill="white" stroke="black" points="2095.5,-6 2095.5,-25 2205.5,-25 2205.5,-6 2095.5,-6"/>
<text text-anchor="middle" x="2150.5" y="-13" font-family="Helvetica,sans-Serif" font-size="10.00">math/polygon.scad</text>
</a>
</g>
</g>
<!-- Node1&#45;&gt;Node16 -->
<g id="edge15" class="edge">
<title>Node1&#45;&gt;Node16</title>
<path fill="none" stroke="midnightblue" d="M1908.75,-67.48C1953.35,-58.64 2024.87,-44.25 2086.5,-31 2091.93,-29.83 2097.61,-28.58 2103.25,-27.33"/>
<polygon fill="midnightblue" stroke="midnightblue" points="2104.31,-30.68 2113.3,-25.07 2102.78,-23.85 2104.31,-30.68"/>
</g>
<!-- Node17 -->
<g id="node17" class="node">
<title>Node17</title>
<g id="a_node17"><a xlink:href="polyhedron_8scad.html" target="_top" xlink:title="Polyhedron shapes, conversions, properties, and tests functions..">
<polygon fill="white" stroke="black" points="2224,-6 2224,-25 2349,-25 2349,-6 2224,-6"/>
<text text-anchor="middle" x="2286.5" y="-13" font-family="Helvetica,sans-Serif" font-size="10.00">math/polyhedron.scad</text>
</a>
</g>
</g>
<!-- Node1&#45;&gt;Node17 -->
<g id="edge16" class="edge">
<title>Node1&#45;&gt;Node17</title>
<path fill="none" stroke="midnightblue" d="M1912.51,-71C1979.68,-63.62 2106.9,-48.75 2214.5,-31 2221.68,-29.82 2229.23,-28.44 2236.64,-27.01"/>
<polygon fill="midnightblue" stroke="midnightblue" points="2237.47,-30.42 2246.6,-25.06 2236.12,-23.55 2237.47,-30.42"/>
</g>
<!-- Node18 -->
<g id="node18" class="node">
<title>Node18</title>
<g id="a_node18"><a xlink:href="math_2polytope_8scad.html" target="_top" xlink:title="Polytope shapes, conversions, properties, and tests functions.">
<polygon fill="white" stroke="black" points="2367,-6 2367,-25 2480,-25 2480,-6 2367,-6"/>
<text text-anchor="middle" x="2423.5" y="-13" font-family="Helvetica,sans-Serif" font-size="10.00">math/polytope.scad</text>
</a>
</g>
</g>
<!-- Node1&#45;&gt;Node18 -->
<g id="edge17" class="edge">
<title>Node1&#45;&gt;Node18</title>
<path fill="none" stroke="midnightblue" d="M1912.65,-73.72C2000.69,-69.01 2195.89,-56.45 2358.5,-31 2365.25,-29.94 2372.36,-28.6 2379.28,-27.16"/>
<polygon fill="midnightblue" stroke="midnightblue" points="2380.22,-30.54 2389.25,-25.01 2378.73,-23.7 2380.22,-30.54"/>
</g>
<!-- Node19 -->
<g id="node19" class="node">
<title>Node19</title>
<g id="a_node19"><a xlink:href="utility_8scad.html" target="_top" xlink:title="Miscellaneous mathematical utilities.">
<polygon fill="white" stroke="black" points="2498.5,-6 2498.5,-25 2596.5,-25 2596.5,-6 2498.5,-6"/>
<text text-anchor="middle" x="2547.5" y="-13" font-family="Helvetica,sans-Serif" font-size="10.00">math/utility.scad</text>
</a>
</g>
</g>
<!-- Node1&#45;&gt;Node19 -->
<g id="edge18" class="edge">
<title>Node1&#45;&gt;Node19</title>
<path fill="none" stroke="midnightblue" d="M1912.79,-75.37C2017.39,-73.38 2276.07,-65.11 2489.5,-31 2495.41,-30.06 2501.6,-28.8 2507.64,-27.42"/>
<polygon fill="midnightblue" stroke="midnightblue" points="2508.7,-30.77 2517.6,-25.02 2507.06,-23.96 2508.7,-30.77"/>
</g>
<!-- Node20 -->
<g id="node20" class="node">
<title>Node20</title>
<g id="a_node20"><a xlink:href="basic__2d_8scad.html" target="_top" xlink:title="Basic 2D shapes.">
<polygon fill="white" stroke="black" points="2614.5,-6 2614.5,-25 2736.5,-25 2736.5,-6 2614.5,-6"/>
<text text-anchor="middle" x="2675.5" y="-13" font-family="Helvetica,sans-Serif" font-size="10.00">shapes/basic_2d.scad</text>
</a>
</g>
</g>
<!-- Node1&#45;&gt;Node20 -->
<g id="edge19" class="edge">
<title>Node1&#45;&gt;Node20</title>
<path fill="none" stroke="midnightblue" d="M1912.91,-75.47C2030.63,-73.65 2345.55,-65.64 2605.5,-31 2613.28,-29.96 2621.5,-28.55 2629.45,-27.02"/>
<polygon fill="midnightblue" stroke="midnightblue" points="2630.23,-30.43 2639.34,-25.02 2628.84,-23.57 2630.23,-30.43"/>
</g>
<!-- Node21 -->
<g id="node21" class="node">
<title>Node21</title>
<g id="a_node21"><a xlink:href="basic__3d_8scad.html" target="_top" xlink:title="Basic 3D shapes.">
<polygon fill="white" stroke="black" points="2754.5,-6 2754.5,-25 2876.5,-25 2876.5,-6 2754.5,-6"/>
<text text-anchor="middle" x="2815.5" y="-13" font-family="Helvetica,sans-Serif" font-size="10.00">shapes/basic_3d.scad</text>
</a>
</g>
</g>
<!-- Node1&#45;&gt;Node21 -->
<g id="edge20" class="edge">
<title>Node1&#45;&gt;Node21</title>
<path fill="none" stroke="midnightblue" d="M1912.95,-76.12C2045.29,-75.91 2429.52,-71.56 2745.5,-31 2753.38,-29.99 2761.69,-28.58 2769.73,-27.03"/>
<polygon fill="midnightblue" stroke="midnightblue" points="2770.6,-30.42 2779.71,-25.01 2769.21,-23.56 2770.6,-30.42"/>
</g>
<!-- Node22 -->
<g id="node22" class="node">
<title>Node22</title>
<g id="a_node22"><a xlink:href="shapes_2polygon_8scad.html" target="_top" xlink:title="Roundable polygons generated in 2D space.">
<polygon fill="white" stroke="black" points="2895,-6 2895,-25 3014,-25 3014,-6 2895,-6"/>
<text text-anchor="middle" x="2954.5" y="-13" font-family="Helvetica,sans-Serif" font-size="10.00">shapes/polygon.scad</text>
</a>
</g>
</g>
<!-- Node1&#45;&gt;Node22 -->
<g id="edge21" class="edge">
<title>Node1&#45;&gt;Node22</title>
<path fill="none" stroke="midnightblue" d="M1912.68,-74.94C2086.85,-70.87 2693.48,-55.25 2885.5,-31 2893.27,-30.02 2901.47,-28.62 2909.39,-27.08"/>
<polygon fill="midnightblue" stroke="midnightblue" points="2910.13,-30.5 2919.23,-25.07 2908.73,-23.64 2910.13,-30.5"/>
</g>
<!-- Node23 -->
<g id="node23" class="node">
<title>Node23</title>
<g id="a_node23"><a xlink:href="extrude_8scad.html" target="_top" xlink:title="Shape extrusion tools.">
<polygon fill="white" stroke="black" points="3032,-6 3032,-25 3139,-25 3139,-6 3032,-6"/>
<text text-anchor="middle" x="3085.5" y="-13" font-family="Helvetica,sans-Serif" font-size="10.00">tools/extrude.scad</text>
</a>
</g>
</g>
<!-- Node1&#45;&gt;Node23 -->
<g id="edge22" class="edge">
<title>Node1&#45;&gt;Node23</title>
<path fill="none" stroke="midnightblue" d="M1912.8,-75.37C2101.84,-72.65 2803.43,-60.73 3023.5,-31 3030.27,-30.09 3037.39,-28.77 3044.29,-27.29"/>
<polygon fill="midnightblue" stroke="midnightblue" points="3045.2,-30.68 3054.18,-25.05 3043.65,-23.85 3045.2,-30.68"/>
</g>
<!-- Node24 -->
<g id="node24" class="node">
<title>Node24</title>
<g id="a_node24"><a xlink:href="repeat_8scad.html" target="_top" xlink:title="Shape repetition tools.">
<polygon fill="white" stroke="black" points="3157,-6 3157,-25 3258,-25 3258,-6 3157,-6"/>
<text text-anchor="middle" x="3207.5" y="-13" font-family="Helvetica,sans-Serif" font-size="10.00">tools/repeat.scad</text>
</a>
</g>
</g>
<!-- Node1&#45;&gt;Node24 -->
<g id="edge23" class="edge">
<title>Node1&#45;&gt;Node24</title>
<path fill="none" stroke="midnightblue" d="M1912.7,-75.65C2114.15,-73.93 2902.77,-65.13 3148.5,-31 3154.88,-30.11 3161.57,-28.83 3168.06,-27.38"/>
<polygon fill="midnightblue" stroke="midnightblue" points="3169.1,-30.73 3178.02,-25.01 3167.48,-23.92 3169.1,-30.73"/>
</g>
<!-- Node25 -->
<g id="node25" class="node">
<title>Node25</title>
<g id="a_node25"><a xlink:href="angle_8scad.html" target="_top" xlink:title="Angle units and conversions.">
<polygon fill="white" stroke="black" points="3276.5,-6 3276.5,-25 3372.5,-25 3372.5,-6 3276.5,-6"/>
<text text-anchor="middle" x="3324.5" y="-13" font-family="Helvetica,sans-Serif" font-size="10.00">units/angle.scad</text>
</a>
</g>
</g>
<!-- Node1&#45;&gt;Node25 -->
<g id="edge24" class="edge">
<title>Node1&#45;&gt;Node25</title>
<path fill="none" stroke="midnightblue" d="M1912.73,-75.86C2125.61,-75.01 2997.29,-69.24 3267.5,-31 3273.52,-30.15 3279.83,-28.91 3285.96,-27.5"/>
<polygon fill="midnightblue" stroke="midnightblue" points="3287.16,-30.81 3296.04,-25.03 3285.49,-24.02 3287.16,-30.81"/>
</g>
<!-- Node26 -->
<g id="node26" class="node">
<title>Node26</title>
<g id="a_node26"><a xlink:href="length_8scad.html" target="_top" xlink:title="Length units and conversions.">
<polygon fill="white" stroke="black" points="3390.5,-6 3390.5,-25 3490.5,-25 3490.5,-6 3390.5,-6"/>
<text text-anchor="middle" x="3440.5" y="-13" font-family="Helvetica,sans-Serif" font-size="10.00">units/length.scad</text>
</a>
</g>
</g>
<!-- Node1&#45;&gt;Node26 -->
<g id="edge25" class="edge">
<title>Node1&#45;&gt;Node26</title>
<path fill="none" stroke="midnightblue" d="M1912.77,-75.94C2136.18,-75.46 3087.5,-71.03 3381.5,-31 3387.88,-30.13 3394.57,-28.85 3401.06,-27.41"/>
<polygon fill="midnightblue" stroke="midnightblue" points="3402.1,-30.76 3411.02,-25.04 3400.49,-23.95 3402.1,-30.76"/>
</g>
</g>
</svg>
