<?xml version="1.0" standalone="no"?>
<!DOCTYPE svg PUBLIC "-//W3C//DTD SVG 1.1//EN" "http://www.w3.org/Graphics/SVG/1.1/DTD/svg11.dtd">
<svg width="96mm" height="66mm" viewBox="-48 -33 96 66" xmlns="http://www.w3.org/2000/svg" version="1.1">
<title>OpenSCAD Model</title>
<path d="
M -29.4659,-30.7985 L -29.3359,-30.8264 L -29.2243,-30.8722 L -29.1325,-30.9349 L -29.0602,-31.0141 L -29.0077,-31.1092
 L -28.9756,-31.2194 L -28.965,-31.3438 L -28.9719,-31.4259 L -28.9928,-31.5039 L -29.0275,-31.5757 L -29.0762,-31.6395
 L -29.1393,-31.6943 L -29.2172,-31.7392 L -29.3101,-31.7722 L -29.4179,-31.7914 L -29.4179,-31.7968 L -29.3198,-31.8236
 L -29.2369,-31.8605 L -29.1682,-31.9067 L -29.1128,-31.9609 L -29.0704,-32.023 L -29.0409,-32.0925 L -29.0236,-32.1684
 L -29.0178,-32.2498 L -29.0265,-32.3512 L -29.0524,-32.4464 L -29.0967,-32.5327 L -29.1603,-32.6072 L -29.244,-32.6685
 L -29.3488,-32.7157 L -29.4753,-32.7457 L -29.6241,-32.7557 L -29.7414,-32.748 L -29.8519,-32.7252 L -29.9531,-32.6868
 L -30.0425,-32.6329 L -30.1186,-32.5632 L -30.1801,-32.4776 L -30.2246,-32.3759 L -30.2493,-32.2579 L -30.0038,-32.2389
 L -29.9667,-32.3725 L -29.8879,-32.4722 L -29.7728,-32.5343 L -29.6268,-32.555 L -29.471,-32.5327 L -29.359,-32.4661
 L -29.2913,-32.3612 L -29.2688,-32.224 L -29.2788,-32.1338 L -29.3088,-32.0613 L -29.3542,-32.0042 L -29.4105,-31.9602
 L -29.4754,-31.9287 L -29.5468,-31.9087 L -29.62,-31.898 L -29.6905,-31.8945 L -29.8235,-31.8945 L -29.8235,-31.6829
 L -29.6851,-31.6829 L -29.6127,-31.6798 L -29.5339,-31.6707 L -29.4549,-31.6526 L -29.382,-31.6226 L -29.3179,-31.5795
 L -29.2654,-31.5222 L -29.2303,-31.4474 L -29.2186,-31.352 L -29.2449,-31.195 L -29.3237,-31.0821 L -29.4486,-31.0139
 L -29.6133,-30.9912 L -29.7068,-30.9973 L -29.7868,-31.0156 L -29.8543,-31.0451 L -29.9102,-31.0848 L -29.9552,-31.134
 L -29.9896,-31.1919 L -30.0142,-31.2577 L -30.0296,-31.3303 L -30.2819,-31.3072 L -30.2629,-31.2097 L -30.2303,-31.1153
 L -30.1812,-31.0275 L -30.1123,-30.9499 L -30.023,-30.8844 L -29.9123,-30.8332 L -29.7768,-30.8002 L -29.6133,-30.7891
 z
M 30.2841,-31.01 L 29.2872,-31.01 L 29.3262,-31.0858 L 29.3781,-31.1585 L 29.4403,-31.2292 L 29.5103,-31.2989
 L 29.5868,-31.3679 L 29.6683,-31.4366 L 29.7521,-31.5054 L 29.8351,-31.5749 L 29.9162,-31.6456 L 29.9938,-31.718
 L 30.0652,-31.7925 L 30.1274,-31.8699 L 30.1793,-31.9506 L 30.2196,-32.0353 L 30.2456,-32.1245 L 30.2542,-32.2184
 L 30.2441,-32.3384 L 30.2135,-32.4436 L 30.1639,-32.5334 L 30.0962,-32.6077 L 30.0109,-32.666 L 29.9084,-32.708
 L 29.7894,-32.7335 L 29.6548,-32.7419 L 29.5183,-32.7321 L 29.3991,-32.7026 L 29.2966,-32.656 L 29.2099,-32.5948
 L 29.1398,-32.5207 L 29.0865,-32.4354 L 29.0499,-32.3415 L 29.0296,-32.2415 L 29.2791,-32.2184 L 29.2942,-32.2935
 L 29.3205,-32.3588 L 29.3569,-32.4142 L 29.4025,-32.4598 L 29.4563,-32.4954 L 29.5171,-32.5209 L 29.5838,-32.5361
 L 29.6548,-32.5412 L 29.7299,-32.5359 L 29.7979,-32.5202 L 29.8577,-32.4939 L 29.9084,-32.4571 L 29.9491,-32.4102
 L 29.9789,-32.3533 L 29.9972,-32.2867 L 30.0033,-32.2103 L 29.9899,-32.0997 L 29.9498,-32.0014 L 29.8879,-31.9112
 L 29.8094,-31.8251 L 29.7173,-31.741 L 29.6148,-31.657 L 29.5064,-31.5693 L 29.3971,-31.4745 L 29.2898,-31.3704
 L 29.1875,-31.2548 L 29.0955,-31.1241 L 29.0187,-30.9747 L 29.0187,-30.8025 L 30.2841,-30.8025 z
M -6.14999,-31.75 L -6.25,-31.85 L -7.5,-31.85 L -7.59999,-31.75 L -7.5,-31.65 L -6.25,-31.65
 z
M -11.15,-31.75 L -11.25,-31.85 L -12.5,-31.85 L -12.6,-31.75 L -12.5,-31.65 L -11.25,-31.65
 z
M -8.64999,-31.75 L -8.75,-31.85 L -10,-31.85 L -10.1,-31.75 L -10,-31.65 L -8.75,-31.65
 z
M -13.65,-31.75 L -13.75,-31.85 L -15,-31.85 L -15.1,-31.75 L -15,-31.65 L -13.75,-31.65
 z
M -16.15,-31.75 L -16.25,-31.85 L -17.5,-31.85 L -17.6,-31.75 L -17.5,-31.65 L -16.25,-31.65
 z
M -18.0953,-31.65 L -17.9953,-31.75 L -18.0953,-31.85 L -18.4336,-31.8319 L -18.5336,-31.7319 L -18.4336,-31.6319
 z
M 16.35,-31.75 L 16.25,-31.85 L 15,-31.85 L 14.9,-31.75 L 15,-31.65 L 16.25,-31.65
 z
M 13.85,-31.75 L 13.75,-31.85 L 12.5,-31.85 L 12.4,-31.75 L 12.5,-31.65 L 13.75,-31.65
 z
M 11.35,-31.75 L 11.25,-31.85 L 10,-31.85 L 9.89999,-31.75 L 10,-31.65 L 11.25,-31.65
 z
M 8.84999,-31.75 L 8.75,-31.85 L 7.5,-31.85 L 7.39999,-31.75 L 7.5,-31.65 L 8.75,-31.65
 z
M 1.34999,-31.75 L 1.25,-31.85 L 0,-31.85 L -0.0999908,-31.75 L 0,-31.65 L 1.25,-31.65
 z
M 3.84999,-31.75 L 3.75,-31.85 L 2.5,-31.85 L 2.39999,-31.75 L 2.5,-31.65 L 3.75,-31.65
 z
M 6.34999,-31.75 L 6.25,-31.85 L 5,-31.85 L 4.89999,-31.75 L 5,-31.65 L 6.25,-31.65
 z
M -3.64999,-31.75 L -3.75,-31.85 L -5,-31.85 L -5.09999,-31.75 L -5,-31.65 L -3.75,-31.65
 z
M -1.14999,-31.75 L -1.25,-31.85 L -2.5,-31.85 L -2.59999,-31.75 L -2.5,-31.65 L -1.25,-31.65
 z
M 18.1953,-31.75 L 18.0953,-31.85 L 17.5,-31.85 L 17.4,-31.75 L 17.5,-31.65 L 18.0953,-31.65
 z
M 18.8719,-31.7138 L 18.7719,-31.8138 L 18.4336,-31.8319 L 18.3336,-31.7319 L 18.4336,-31.6319 L 18.7719,-31.6138
 z
M -18.7719,-31.6138 L -18.672,-31.7138 L -18.7719,-31.8138 L -19.1064,-31.7598 L -19.2064,-31.6598 L -19.1064,-31.5598
 z
M 19.5409,-31.6058 L 19.4409,-31.7058 L 19.1064,-31.7598 L 19.0064,-31.6598 L 19.1064,-31.5598 L 19.4409,-31.5058
 z
M -19.4409,-31.5058 L -19.3409,-31.6058 L -19.4409,-31.7058 L -19.7678,-31.6164 L -19.8678,-31.5164 L -19.7678,-31.4164
 z
M 20.1946,-31.427 L 20.0946,-31.527 L 19.7678,-31.6164 L 19.6678,-31.5164 L 19.7678,-31.4164 L 20.0946,-31.327
 z
M -20.0946,-31.327 L -19.9946,-31.427 L -20.0946,-31.527 L -20.41,-31.4033 L -20.51,-31.3033 L -20.41,-31.2033
 z
M 20.8255,-31.1796 L 20.7255,-31.2796 L 20.41,-31.4033 L 20.31,-31.3033 L 20.41,-31.2033 L 20.7255,-31.0797
 z
M -20.7255,-31.0797 L -20.6255,-31.1796 L -20.7255,-31.2796 L -21.026,-31.123 L -21.1259,-31.023 L -21.026,-30.923
 z
M 21.4264,-30.8664 L 21.3264,-30.9664 L 21.026,-31.123 L 20.9259,-31.023 L 21.026,-30.923 L 21.3264,-30.7664
 z
M -21.3264,-30.7664 L -21.2264,-30.8664 L -21.3264,-30.9664 L -21.6085,-30.7787 L -21.7085,-30.6787 L -21.6085,-30.5787
 z
M 21.9906,-30.491 L 21.8905,-30.591 L 21.6085,-30.7787 L 21.5085,-30.6787 L 21.6085,-30.5787 L 21.8905,-30.391
 z
M -21.8905,-30.391 L -21.7906,-30.491 L -21.8905,-30.591 L -22.151,-30.3743 L -22.251,-30.2743 L -22.151,-30.1743
 z
M 22.5115,-30.0576 L 22.4115,-30.1575 L 22.151,-30.3743 L 22.051,-30.2743 L 22.151,-30.1743 L 22.4115,-29.9576
 z
M -22.5473,-29.8143 L -22.3115,-30.0576 L -22.4115,-30.1575 L -22.5115,-30.0576 L -22.7473,-29.8143 L -22.6473,-29.7143
 z
M 22.9832,-29.5711 L 22.7473,-29.8143 L 22.6473,-29.9143 L 22.5473,-29.8143 L 22.7832,-29.5711 L 22.8832,-29.4711
 z
M -22.9918,-29.3041 L -22.7832,-29.5711 L -22.8832,-29.6711 L -22.9832,-29.5711 L -23.1918,-29.3041 L -23.0918,-29.2041
 z
M 23.4005,-29.0371 L 23.1918,-29.3041 L 23.0918,-29.4041 L 22.9918,-29.3041 L 23.2005,-29.0371 L 23.3004,-28.9371
 z
M -23.3794,-28.7494 L -23.2005,-29.0371 L -23.3004,-29.1371 L -23.4005,-29.0371 L -23.5794,-28.7494 L -23.4794,-28.6494
 z
M 23.7584,-28.4617 L 23.5794,-28.7494 L 23.4794,-28.8494 L 23.3794,-28.7494 L 23.5584,-28.4617 L 23.6584,-28.3617
 z
M -23.7057,-28.1565 L -23.5584,-28.4617 L -23.6584,-28.5617 L -23.7584,-28.4617 L -23.9057,-28.1565 L -23.8057,-28.0565
 z
M 24.053,-27.8514 L 23.9057,-28.1565 L 23.8057,-28.2565 L 23.7057,-28.1565 L 23.853,-27.8514 L 23.953,-27.7514
 z
M -23.9669,-27.5323 L -23.853,-27.8514 L -23.953,-27.9514 L -24.053,-27.8514 L -24.1669,-27.5323 L -24.0669,-27.4323
 z
M 24.2809,-27.2132 L 24.1669,-27.5323 L 24.0669,-27.6323 L 23.9669,-27.5323 L 24.0809,-27.2132 L 24.1809,-27.1132
 z
M -24.1602,-26.8838 L -24.0809,-27.2132 L -24.1809,-27.3132 L -24.2809,-27.2132 L -24.3602,-26.8838 L -24.2602,-26.7838
 z
M 24.4395,-26.5544 L 24.3602,-26.8838 L 24.2602,-26.9838 L 24.1602,-26.8838 L 24.2394,-26.5544 L 24.3394,-26.4544
 z
M -24.2832,-26.2184 L -24.2394,-26.5544 L -24.3394,-26.6544 L -24.4395,-26.5544 L -24.4832,-26.2184 L -24.3832,-26.1184
 z
M 24.5269,-25.8824 L 24.4832,-26.2184 L 24.3832,-26.3184 L 24.2832,-26.2184 L 24.3269,-25.8824 L 24.4269,-25.7824
 z
M -24.3346,-25.5436 L -24.3269,-25.8824 L -24.4269,-25.9824 L -24.5269,-25.8824 L -24.5346,-25.5436 L -24.4346,-25.4436
 z
M 24.5423,-25.2049 L 24.5346,-25.5436 L 24.4346,-25.6436 L 24.3346,-25.5436 L 24.3423,-25.2049 L 24.4423,-25.1049
 z
M -24.3138,-24.8673 L -24.3423,-25.2049 L -24.4423,-25.3049 L -24.5423,-25.2049 L -24.5138,-24.8673 L -24.4138,-24.7673
 z
M 24.4853,-24.5296 L 24.5138,-24.8673 L 24.4138,-24.9673 L 24.3138,-24.8673 L 24.2853,-24.5296 L 24.3853,-24.4296
 z
M -24.221,-24.197 L -24.2853,-24.5296 L -24.3853,-24.6296 L -24.4853,-24.5296 L -24.4211,-24.197 L -24.321,-24.097
 z
M 24.3568,-23.8643 L 24.4211,-24.197 L 24.321,-24.297 L 24.221,-24.197 L 24.1568,-23.8643 L 24.2568,-23.7643
 z
M -24.0574,-23.5404 L -24.1568,-23.8643 L -24.2568,-23.9643 L -24.3568,-23.8643 L -24.2574,-23.5404 L -24.1574,-23.4404
 z
M 24.158,-23.2164 L 24.2574,-23.5404 L 24.1574,-23.6404 L 24.0574,-23.5404 L 23.958,-23.2164 L 24.058,-23.1164
 z
M -23.8247,-22.9049 L -23.958,-23.2164 L -24.058,-23.3164 L -24.158,-23.2164 L -24.0247,-22.9049 L -23.9247,-22.8049
 z
M 23.8914,-22.5934 L 24.0247,-22.9049 L 23.9247,-23.0049 L 23.8247,-22.9049 L 23.6914,-22.5934 L 23.7914,-22.4934
 z
M -23.5256,-22.2979 L -23.6914,-22.5934 L -23.7914,-22.6934 L -23.8914,-22.5934 L -23.7256,-22.2979 L -23.6256,-22.1979
 z
M 23.5599,-22.0024 L 23.7256,-22.2979 L 23.6256,-22.3979 L 23.5256,-22.2979 L 23.3599,-22.0024 L 23.4599,-21.9024
 z
M -23.2131,-21.7707 L -23.3599,-22.0024 L -23.4599,-22.1024 L -23.5599,-22.0024 L -23.4131,-21.7707 L -23.3131,-21.6707
 z
M 22.7443,-20.7146 L 23.4131,-21.7707 L 23.3131,-21.8707 L 23.2131,-21.7707 L 22.5443,-20.7146 L 22.6443,-20.6146
 z
M -21.8755,-19.6586 L -22.5443,-20.7146 L -22.6443,-20.8147 L -22.7443,-20.7146 L -22.0755,-19.6586 L -21.9755,-19.5586
 z
M 21.4066,-18.6026 L 22.0755,-19.6586 L 21.9755,-19.7586 L 21.8755,-19.6586 L 21.2066,-18.6026 L 21.3066,-18.5026
 z
M -20.5378,-17.5466 L -21.2066,-18.6026 L -21.3066,-18.7026 L -21.4066,-18.6026 L -20.7378,-17.5466 L -20.6378,-17.4466
 z
M 20.069,-16.4906 L 20.7378,-17.5466 L 20.6378,-17.6466 L 20.5378,-17.5466 L 19.869,-16.4906 L 19.969,-16.3905
 z
M -19.2002,-15.4345 L -19.869,-16.4906 L -19.969,-16.5905 L -20.069,-16.4906 L -19.4002,-15.4345 L -19.3002,-15.3345
 z
M 18.7314,-14.3785 L 19.4002,-15.4345 L 19.3002,-15.5345 L 19.2002,-15.4345 L 18.5314,-14.3785 L 18.6314,-14.2785
 z
M -17.8626,-13.3225 L -18.5314,-14.3785 L -18.6314,-14.4785 L -18.7314,-14.3785 L -18.0626,-13.3225 L -17.9626,-13.2225
 z
M 17.3938,-12.2664 L 18.0626,-13.3225 L 17.9626,-13.4225 L 17.8626,-13.3225 L 17.1938,-12.2664 L 17.2937,-12.1665
 z
M -16.5249,-11.2104 L -17.1938,-12.2664 L -17.2937,-12.3665 L -17.3938,-12.2664 L -16.7249,-11.2104 L -16.6249,-11.1104
 z
M 16.0561,-10.1544 L 16.7249,-11.2104 L 16.6249,-11.3104 L 16.5249,-11.2104 L 15.8561,-10.1544 L 15.9561,-10.0544
 z
M -15.1873,-9.09839 L -15.8561,-10.1544 L -15.9561,-10.2544 L -16.0561,-10.1544 L -15.3873,-9.09839 L -15.2873,-8.99838
 z
M 14.7185,-8.04236 L 15.3873,-9.09839 L 15.2873,-9.19838 L 15.1873,-9.09839 L 14.5185,-8.04236 L 14.6185,-7.94235
 z
M -13.8497,-6.98633 L -14.5185,-8.04236 L -14.6185,-8.14236 L -14.7185,-8.04236 L -14.0497,-6.98633 L -13.9497,-6.88634
 z
M 13.3809,-5.93031 L 14.0497,-6.98633 L 13.9497,-7.08633 L 13.8497,-6.98633 L 13.1809,-5.93031 L 13.2809,-5.83031
 z
M -12.512,-4.87428 L -13.1809,-5.93031 L -13.2809,-6.0303 L -13.3809,-5.93031 L -12.7121,-4.87428 L -12.612,-4.77429
 z
M 12.5653,-4.64255 L 12.7121,-4.87428 L 12.612,-4.97429 L 12.512,-4.87428 L 12.3653,-4.64255 L 12.4653,-4.54254
 z
M -12.251,-4.44704 L -12.3653,-4.64255 L -12.4653,-4.74254 L -12.5653,-4.64255 L -12.451,-4.44704 L -12.351,-4.34705
 z
M 12.3367,-4.25153 L 12.451,-4.44704 L 12.351,-4.54704 L 12.251,-4.44704 L 12.1367,-4.25153 L 12.2368,-4.15154
 z
M -12.0367,-4.04839 L -12.1367,-4.25153 L -12.2368,-4.35153 L -12.3367,-4.25153 L -12.2367,-4.04839 L -12.1367,-3.94838
 z
M 12.1367,-3.84523 L 12.2367,-4.04839 L 12.1367,-4.14838 L 12.0367,-4.04839 L 11.9367,-3.84523 L 12.0367,-3.74522
 z
M -11.8514,-3.63547 L -11.9367,-3.84523 L -12.0367,-3.94522 L -12.1367,-3.84523 L -12.0514,-3.63547 L -11.9514,-3.53546
 z
M 11.9661,-3.42569 L 12.0514,-3.63547 L 11.9514,-3.73546 L 11.8514,-3.63547 L 11.7661,-3.42569 L 11.8661,-3.3257
 z
M -11.6959,-3.21039 L -11.7661,-3.42569 L -11.8661,-3.5257 L -11.9661,-3.42569 L -11.896,-3.21039 L -11.7959,-3.11038
 z
M 11.8258,-2.99507 L 11.896,-3.21039 L 11.7959,-3.31038 L 11.6959,-3.21039 L 11.6258,-2.99507 L 11.7258,-2.89507
 z
M -11.5712,-2.77531 L -11.6258,-2.99507 L -11.7258,-3.09508 L -11.8258,-2.99507 L -11.7712,-2.77531 L -11.6712,-2.67531
 z
M 11.7166,-2.55554 L 11.7712,-2.77531 L 11.6712,-2.87531 L 11.5712,-2.77531 L 11.5166,-2.55554 L 11.6166,-2.45554
 z
M -11.4778,-2.33244 L -11.5166,-2.55554 L -11.6166,-2.65555 L -11.7166,-2.55554 L -11.6778,-2.33244 L -11.5778,-2.23245
 z
M 11.639,-2.10934 L 11.6778,-2.33244 L 11.5778,-2.43245 L 11.4778,-2.33244 L 11.439,-2.10934 L 11.539,-2.00935
 z
M -11.4162,-1.88405 L -11.439,-2.10934 L -11.539,-2.20935 L -11.639,-2.10934 L -11.6162,-1.88405 L -11.5162,-1.78406
 z
M 11.5934,-1.65875 L 11.6162,-1.88405 L 11.5162,-1.98405 L 11.4162,-1.88405 L 11.3934,-1.65875 L 11.4934,-1.55876
 z
M -11.3867,-1.4324 L -11.3934,-1.65875 L -11.4934,-1.75876 L -11.5934,-1.65875 L -11.5867,-1.4324 L -11.4867,-1.33241
 z
M 11.58,-1.20605 L 11.5867,-1.4324 L 11.4867,-1.53241 L 11.3867,-1.4324 L 11.38,-1.20605 L 11.48,-1.10606
 z
M -11.3895,-0.979813 L -11.38,-1.20605 L -11.48,-1.30606 L -11.58,-1.20605 L -11.5895,-0.979813 L -11.4895,-0.879807
 z
M 11.5989,-0.753571 L 11.5895,-0.979813 L 11.4895,-1.07982 L 11.3895,-0.979813 L 11.3989,-0.753571 L 11.4989,-0.653564
 z
M 10.1798,0.725616 L 9.71461,0.725616 L 9.71461,-0.977829 L 9.4895,-0.977829 L 9.03786,-0.667252 L 9.03786,-0.436691
 L 9.46913,-0.744553 L 9.46913,0.725616 L 8.98225,0.725616 L 8.98225,0.933121 L 10.1798,0.933121 z
M -9.08447,0.500473 L -8.81593,0.500473 L -8.81593,0.307877 L -9.08447,0.307877 L -9.08447,-0.977829 L -9.34081,-0.977829
 L -10.2156,0.310593 L -10.2156,0.500473 L -9.31503,0.500473 L -9.31503,0.933121 L -9.08447,0.933121 z
M -9.99043,0.307877 L -9.98094,0.296356 L -9.96873,0.280777 L -9.95517,0.26297 L -9.94162,0.244843 L -9.92822,0.2267
 L -9.91518,0.208893 L -9.90381,0.192947 L -9.89549,0.180405 L -9.40591,-0.541107 L -9.3942,-0.559586 L -9.38081,-0.582474
 L -9.36674,-0.607391 L -9.35301,-0.631973 L -9.32861,-0.676041 L -9.31978,-0.692505 L -9.31503,-0.702515 L -9.31503,0.307877
 z
M -11.4245,-0.528564 L -11.3989,-0.753571 L -11.4989,-0.853561 L -11.5989,-0.753571 L -11.6245,-0.528564 L -11.5245,-0.428558
 z
M 11.65,-0.303558 L 11.6245,-0.528564 L 11.5245,-0.628571 L 11.4245,-0.528564 L 11.45,-0.303558 L 11.55,-0.203568
 z
M -11.4916,-0.0809631 L -11.45,-0.303558 L -11.55,-0.403564 L -11.65,-0.303558 L -11.6916,-0.0809631 L -11.5916,0.0190277
 z
M 11.7331,0.141632 L 11.6916,-0.0809631 L 11.5916,-0.180954 L 11.4916,-0.0809631 L 11.5331,0.141632 L 11.6331,0.241623
 z
M -11.5904,0.360703 L -11.5331,0.141632 L -11.6331,0.041626 L -11.7331,0.141632 L -11.7904,0.360703 L -11.6904,0.460709
 z
M 11.8477,0.579788 L 11.7904,0.360703 L 11.6904,0.260712 L 11.5904,0.360703 L 11.6477,0.579788 L 11.7477,0.679779
 z
M -11.7205,0.79422 L -11.6477,0.579788 L -11.7477,0.479782 L -11.8477,0.579788 L -11.9205,0.79422 L -11.8205,0.894226
 z
M 11.9932,1.00867 L 11.9205,0.79422 L 11.8205,0.694229 L 11.7205,0.79422 L 11.7932,1.00867 L 11.8932,1.10866
 z
M -11.8811,1.21736 L -11.7932,1.00867 L -11.8932,0.908661 L -11.9932,1.00867 L -12.0811,1.21736 L -11.9811,1.31737
 z
M 12.169,1.42607 L 12.0811,1.21736 L 11.9811,1.11737 L 11.8811,1.21736 L 11.969,1.42607 L 12.069,1.52608
 z
M -12.0715,1.62798 L -11.969,1.42607 L -12.069,1.32607 L -12.169,1.42607 L -12.2715,1.62798 L -12.1715,1.72798
 z
M 12.374,1.8299 L 12.2715,1.62798 L 12.1715,1.52798 L 12.0715,1.62798 L 12.174,1.8299 L 12.274,1.9299
 z
M -12.2907,2.02399 L -12.174,1.8299 L -12.274,1.72989 L -12.374,1.8299 L -12.4907,2.02399 L -12.3907,2.12398
 z
M 12.6073,2.21808 L 12.4907,2.02399 L 12.3907,1.92398 L 12.2907,2.02399 L 12.4073,2.21808 L 12.5073,2.31807
 z
M -12.5375,2.40337 L -12.4073,2.21808 L -12.5073,2.11807 L -12.6073,2.21808 L -12.7375,2.40337 L -12.6375,2.50336
 z
M 12.8677,2.58864 L 12.7375,2.40337 L 12.6375,2.30336 L 12.5375,2.40337 L 12.6677,2.58864 L 12.7677,2.68864
 z
M -12.8107,2.76418 L -12.6677,2.58864 L -12.7677,2.48865 L -12.8677,2.58864 L -13.0107,2.76418 L -12.9107,2.86418
 z
M 13.1538,2.93971 L 13.0107,2.76418 L 12.9107,2.66417 L 12.8107,2.76418 L 12.9538,2.93971 L 13.0538,3.0397
 z
M -13.109,3.1046 L -12.9538,2.93971 L -13.0538,2.83971 L -13.1538,2.93971 L -13.309,3.1046 L -13.209,3.20459
 z
M 13.4642,3.26949 L 13.309,3.1046 L 13.209,3.00459 L 13.109,3.1046 L 13.2642,3.26949 L 13.3642,3.36949
 z
M -13.3642,3.36949 L -13.2642,3.26949 L -13.3642,3.16948 L -13.5308,3.32289 L -13.6308,3.4229 L -13.5308,3.52289
 z
M 13.7973,3.57629 L 13.6974,3.4763 L 13.5308,3.32289 L 13.4308,3.4229 L 13.5308,3.52289 L 13.6974,3.6763
 z
M 15.1738,4.7561 L 15.0738,4.6561 L 14.1247,3.84262 L 14.0247,3.94261 L 14.1247,4.04262 L 15.0738,4.85611
 z
M -14.1247,4.04262 L -14.0247,3.94261 L -14.1247,3.84262 L -15.0738,4.6561 L -15.1738,4.7561 L -15.0738,4.85611
 z
M -16.0229,5.66959 L -15.9229,5.5696 L -16.0229,5.46959 L -16.9719,6.28308 L -17.0719,6.38309 L -16.9719,6.48308
 z
M 17.0719,6.38309 L 16.9719,6.28308 L 16.0229,5.46959 L 15.9229,5.5696 L 16.0229,5.66959 L 16.9719,6.48308
 z
M 18.9701,8.01006 L 18.8701,7.91006 L 17.921,7.09657 L 17.821,7.19656 L 17.921,7.29657 L 18.8701,8.11006
 z
M -17.921,7.29657 L -17.821,7.19656 L -17.921,7.09657 L -18.8701,7.91006 L -18.9701,8.01006 L -18.8701,8.11006
 z
M 20.8682,9.63704 L 20.7682,9.53703 L 19.8191,8.72356 L 19.7191,8.82355 L 19.8191,8.92355 L 20.7682,9.73705
 z
M -19.8191,8.92355 L -19.7191,8.82355 L -19.8191,8.72356 L -20.7682,9.53703 L -20.8682,9.63704 L -20.7682,9.73705
 z
M 22.7664,11.264 L 22.6664,11.164 L 21.7173,10.3505 L 21.6173,10.4505 L 21.7173,10.5505 L 22.6664,11.364
 z
M -21.7173,10.5505 L -21.6173,10.4505 L -21.7173,10.3505 L -22.6664,11.164 L -22.7664,11.264 L -22.6664,11.364
 z
M 24.6645,12.891 L 24.5645,12.791 L 23.6154,11.9775 L 23.5154,12.0775 L 23.6154,12.1775 L 24.5645,12.991
 z
M -23.6154,12.1775 L -23.5154,12.0775 L -23.6154,11.9775 L -24.5645,12.791 L -24.6645,12.891 L -24.5645,12.991
 z
M 26.5626,14.518 L 26.4626,14.418 L 25.5136,13.6045 L 25.4136,13.7045 L 25.5136,13.8045 L 26.4626,14.618
 z
M -25.5136,13.8045 L -25.4136,13.7045 L -25.5136,13.6045 L -26.4626,14.418 L -26.5626,14.518 L -26.4626,14.618
 z
M 28.4608,16.145 L 28.3608,16.045 L 27.4117,15.2315 L 27.3117,15.3315 L 27.4117,15.4315 L 28.3608,16.2449
 z
M -27.4117,15.4315 L -27.3117,15.3315 L -27.4117,15.2315 L -28.3608,16.045 L -28.4608,16.145 L -28.3608,16.2449
 z
M 30.3589,17.7719 L 30.2589,17.6719 L 29.3098,16.8584 L 29.2099,16.9584 L 29.3098,17.0584 L 30.2589,17.8719
 z
M -29.3098,17.0584 L -29.2099,16.9584 L -29.3098,16.8584 L -30.2589,17.6719 L -30.3589,17.7719 L -30.2589,17.8719
 z
M 32.2571,19.3989 L 32.1571,19.2989 L 31.208,18.4854 L 31.108,18.5854 L 31.208,18.6854 L 32.1571,19.4989
 z
M -31.208,18.6854 L -31.108,18.5854 L -31.208,18.4854 L -32.1571,19.2989 L -32.2571,19.3989 L -32.1571,19.4989
 z
M -33.5335,20.6787 L -33.1061,20.3124 L -33.0061,20.2124 L -33.1061,20.1124 L -33.5335,20.4787 L -33.8108,20.7473
 L -33.9108,20.8473 L -33.8108,20.9473 z
M 33.6335,20.5787 L 33.5335,20.4787 L 33.1061,20.1124 L 33.0061,20.2124 L 33.1061,20.3124 L 33.5335,20.6787
 z
M 34.188,21.1158 L 34.088,21.0158 L 33.8108,20.7473 L 33.7108,20.8473 L 33.8108,20.9473 L 34.088,21.2158
 z
M -34.2306,21.416 L -33.988,21.1158 L -34.088,21.0158 L -34.188,21.1158 L -34.4306,21.416 L -34.3306,21.516
 z
M 34.6733,21.7162 L 34.4306,21.416 L 34.3306,21.316 L 34.2306,21.416 L 34.4733,21.7162 L 34.5733,21.8162
 z
M -34.6777,22.0437 L -34.4733,21.7162 L -34.5733,21.6162 L -34.6733,21.7162 L -34.8777,22.0437 L -34.7776,22.1437
 z
M 35.082,22.3711 L 34.8777,22.0437 L 34.7776,21.9437 L 34.6777,22.0437 L 34.882,22.3711 L 34.9821,22.4711
 z
M -35.0452,22.7209 L -34.882,22.3711 L -34.9821,22.2711 L -35.082,22.3711 L -35.2452,22.7209 L -35.1452,22.8209
 z
M 35.4084,23.0708 L 35.2452,22.7209 L 35.1452,22.6209 L 35.0452,22.7209 L 35.2084,23.0708 L 35.3083,23.1708
 z
M -35.3279,23.4378 L -35.2084,23.0708 L -35.3083,22.9707 L -35.4084,23.0708 L -35.5278,23.4378 L -35.4279,23.5378
 z
M 35.6474,23.8048 L 35.5278,23.4378 L 35.4279,23.3378 L 35.3279,23.4378 L 35.4473,23.8048 L 35.5473,23.9048
 z
M -35.5214,24.1836 L -35.4473,23.8048 L -35.5473,23.7048 L -35.6474,23.8048 L -35.7214,24.1836 L -35.6214,24.2836
 z
M 35.7955,24.5625 L 35.7214,24.1836 L 35.6214,24.0836 L 35.5214,24.1836 L 35.5955,24.5625 L 35.6955,24.6625
 z
M -35.6231,24.9475 L -35.5955,24.5625 L -35.6955,24.4625 L -35.7955,24.5625 L -35.8231,24.9475 L -35.7231,25.0475
 z
M 35.8506,25.3325 L 35.8231,24.9475 L 35.7231,24.8475 L 35.6231,24.9475 L 35.6506,25.3325 L 35.7506,25.4325
 z
M -35.6313,25.718 L -35.6506,25.3325 L -35.7506,25.2325 L -35.8506,25.3325 L -35.8313,25.718 L -35.7312,25.818
 z
M 35.8119,26.1035 L 35.8313,25.718 L 35.7312,25.618 L 35.6313,25.718 L 35.6119,26.1035 L 35.7119,26.2035
 z
M -35.5459,26.4838 L -35.6119,26.1035 L -35.7119,26.0035 L -35.8119,26.1035 L -35.7459,26.4838 L -35.6459,26.5838
 z
M 35.6799,26.8641 L 35.7459,26.4838 L 35.6459,26.3838 L 35.5459,26.4838 L 35.4799,26.8641 L 35.5799,26.9641
 z
M -35.3682,27.2336 L -35.4799,26.8641 L -35.5799,26.7641 L -35.6799,26.8641 L -35.5682,27.2336 L -35.4682,27.3336
 z
M 35.4565,27.6031 L 35.5682,27.2336 L 35.4682,27.1336 L 35.3682,27.2336 L 35.2565,27.6031 L 35.3565,27.7031
 z
M -35.1009,27.9563 L -35.2565,27.6031 L -35.3565,27.5031 L -35.4565,27.6031 L -35.3009,27.9563 L -35.2009,28.0563
 z
M 35.1452,28.3095 L 35.3009,27.9563 L 35.2009,27.8563 L 35.1009,27.9563 L 34.9452,28.3095 L 35.0452,28.4095
 z
M -34.7478,28.6412 L -34.9452,28.3095 L -35.0452,28.2095 L -35.1452,28.3095 L -34.9478,28.6412 L -34.8478,28.7412
 z
M 34.7504,28.9729 L 34.9478,28.6412 L 34.8478,28.5412 L 34.7478,28.6412 L 34.5504,28.9729 L 34.6504,29.0729
 z
M -34.3142,29.2782 L -34.5504,28.9729 L -34.6504,28.8729 L -34.7504,28.9729 L -34.5142,29.2782 L -34.4142,29.3782
 z
M 34.278,29.5835 L 34.5142,29.2782 L 34.4142,29.1782 L 34.3142,29.2782 L 34.078,29.5835 L 34.178,29.6835
 z
M -33.8066,29.8579 L -34.078,29.5835 L -34.178,29.4835 L -34.278,29.5835 L -34.0066,29.8579 L -33.9066,29.9579
 z
M 33.7351,30.1323 L 34.0066,29.8579 L 33.9066,29.7579 L 33.8066,29.8579 L 33.5351,30.1323 L 33.6351,30.2323
 z
M -33.2323,30.3717 L -33.3323,30.2717 L -33.6351,30.0323 L -33.7351,30.1323 L -33.6351,30.2323 L -33.3323,30.4717
 z
M 33.3323,30.4717 L 33.4323,30.3717 L 33.3323,30.2717 L 33.0295,30.5111 L 32.9295,30.6111 L 33.0295,30.7112
 z
M -32.5999,30.8121 L -32.6999,30.7121 L -33.0295,30.5111 L -33.1295,30.6111 L -33.0295,30.7112 L -32.6999,30.912
 z
M 32.6999,30.912 L 32.7999,30.8121 L 32.6999,30.7121 L 32.3703,30.9129 L 32.2703,31.013 L 32.3703,31.113
 z
M 46.7156,32.6983 L 46.8417,32.6607 L 46.9558,32.5941 L 47.054,32.4945 L 47.1347,32.3606 L 47.1964,32.1907
 L 47.2355,31.981 L 47.2486,31.7276 L 47.2357,31.4636 L 47.1971,31.2495 L 47.136,31.0795 L 47.056,30.9478
 L 46.9589,30.852 L 46.8465,30.7898 L 46.7222,30.7557 L 46.5895,30.7443 L 46.4511,30.7557 L 46.3237,30.7898
 L 46.2097,30.852 L 46.1121,30.9478 L 46.0322,31.0795 L 45.9717,31.2495 L 45.9336,31.4636 L 45.9209,31.7276
 L 45.9336,31.9821 L 45.9717,32.1921 L 46.0321,32.3618 L 46.1114,32.4952 L 46.2082,32.5942 L 46.3209,32.6607
 L 46.4464,32.6983 L 46.5813,32.7109 z
M 46.4905,32.5015 L 46.4077,32.4715 L 46.3363,32.4186 L 46.2768,32.3399 L 46.2297,32.2336 L 46.1955,32.0978
 L 46.1746,31.93 L 46.1677,31.7276 L 46.1745,31.5199 L 46.1948,31.3499 L 46.2285,31.2139 L 46.2755,31.1085
 L 46.3354,31.0313 L 46.4077,30.9803 L 46.4925,30.9518 L 46.5895,30.9423 L 46.6819,30.9517 L 46.7637,30.9796
 L 46.8344,31.0302 L 46.8932,31.1071 L 46.9397,31.2126 L 46.9733,31.3485 L 46.9936,31.5189 L 47.0004,31.7276
 L 46.9931,31.93 L 46.9713,32.0978 L 46.936,32.2336 L 46.8885,32.3399 L 46.829,32.4186 L 46.7576,32.4715
 L 46.6756,32.5015 L 46.584,32.5115 z
M -46.4142,32.6846 L -46.2774,32.649 L -46.1609,32.5919 L -46.0651,32.5154 L -45.9902,32.421 L -45.9363,32.31
 L -45.9037,32.1845 L -45.8929,32.0468 L -45.9037,31.9207 L -45.9363,31.8055 L -45.9888,31.7032 L -46.0597,31.6163
 L -46.1482,31.5459 L -46.2536,31.4935 L -46.3747,31.461 L -46.51,31.4501 L -46.6351,31.4591 L -46.7419,31.4861
 L -46.8314,31.5256 L -46.9046,31.5722 L -46.868,30.9659 L -46.0041,30.9659 L -46.0041,30.7584 L -47.0904,30.7584
 L -47.1542,31.7865 L -46.9155,31.7865 L -46.8831,31.7598 L -46.8483,31.7343 L -46.8103,31.7107 L -46.7683,31.6902
 L -46.7224,31.6732 L -46.6727,31.6603 L -46.6188,31.6522 L -46.5601,31.6495 L -46.4678,31.6569 L -46.3859,31.6793
 L -46.3152,31.7151 L -46.2563,31.7627 L -46.2095,31.8214 L -46.175,31.8902 L -46.1536,31.9677 L -46.1465,32.0523
 L -46.1539,32.1533 L -46.1763,32.2421 L -46.2124,32.3184 L -46.2611,32.3819 L -46.3216,32.4319 L -46.3933,32.468
 L -46.4751,32.4898 L -46.5656,32.4971 L -46.6559,32.4912 L -46.7317,32.4734 L -46.7948,32.4456 L -46.847,32.4097
 L -46.8889,32.3669 L -46.9209,32.3188 L -46.945,32.2671 L -46.9629,32.2137 L -47.2098,32.2421 L -47.1842,32.334
 L -47.1454,32.4198 L -47.092,32.4973 L -47.0226,32.5643 L -46.9367,32.6194 L -46.8334,32.6612 L -46.7119,32.6877
 L -46.571,32.6965 z
M -31.9188,31.1724 L -32.0188,31.0724 L -32.3703,30.9129 L -32.4703,31.013 L -32.3703,31.113 L -32.0188,31.2724
 z
M 32.0188,31.2724 L 32.1188,31.1724 L 32.0188,31.0724 L 31.6673,31.2318 L 31.5673,31.3318 L 31.6673,31.4318
 z
M -31.199,31.4474 L -31.299,31.3474 L -31.6673,31.2318 L -31.7673,31.3318 L -31.6673,31.4318 L -31.299,31.5474
 z
M 31.299,31.5474 L 31.399,31.4474 L 31.299,31.3474 L 30.9307,31.463 L 30.8307,31.563 L 30.9307,31.663
 z
M -30.4511,31.633 L -30.5511,31.533 L -30.9307,31.463 L -31.0307,31.563 L -30.9307,31.663 L -30.5511,31.733
 z
M 30.5511,31.733 L 30.6511,31.633 L 30.5511,31.533 L 30.1715,31.6031 L 30.0715,31.7031 L 30.1715,31.8031
 z
M -29.6862,31.7265 L -29.7863,31.6265 L -30.1715,31.6031 L -30.2715,31.7031 L -30.1715,31.8031 L -29.7863,31.8265
 z
M 29.7863,31.8265 L 29.8863,31.7265 L 29.7863,31.6265 L 29.401,31.65 L 29.375,31.65 L 29.275,31.75
 L 29.375,31.85 L 29.401,31.85 z
M -4.27499,31.75 L -4.375,31.65 L -5.625,31.65 L -5.72499,31.75 L -5.625,31.85 L -4.375,31.85
 z
M 25.725,31.75 L 25.625,31.65 L 24.375,31.65 L 24.275,31.75 L 24.375,31.85 L 25.625,31.85
 z
M 23.225,31.75 L 23.125,31.65 L 21.875,31.65 L 21.775,31.75 L 21.875,31.85 L 23.125,31.85
 z
M 20.725,31.75 L 20.625,31.65 L 19.375,31.65 L 19.275,31.75 L 19.375,31.85 L 20.625,31.85
 z
M 18.225,31.75 L 18.125,31.65 L 16.875,31.65 L 16.775,31.75 L 16.875,31.85 L 18.125,31.85
 z
M 15.725,31.75 L 15.625,31.65 L 14.375,31.65 L 14.275,31.75 L 14.375,31.85 L 15.625,31.85
 z
M 13.225,31.75 L 13.125,31.65 L 11.875,31.65 L 11.775,31.75 L 11.875,31.85 L 13.125,31.85
 z
M 10.725,31.75 L 10.625,31.65 L 9.375,31.65 L 9.27499,31.75 L 9.375,31.85 L 10.625,31.85
 z
M 8.22499,31.75 L 8.125,31.65 L 6.875,31.65 L 6.77499,31.75 L 6.875,31.85 L 8.125,31.85
 z
M 5.72499,31.75 L 5.625,31.65 L 4.375,31.65 L 4.27499,31.75 L 4.375,31.85 L 5.625,31.85
 z
M 3.22499,31.75 L 3.125,31.65 L 1.875,31.65 L 1.77499,31.75 L 1.875,31.85 L 3.125,31.85
 z
M -26.775,31.75 L -26.875,31.65 L -28.125,31.65 L -28.225,31.75 L -28.125,31.85 L -26.875,31.85
 z
M -1.77499,31.75 L -1.875,31.65 L -3.125,31.65 L -3.22499,31.75 L -3.125,31.85 L -1.875,31.85
 z
M -6.77499,31.75 L -6.875,31.65 L -8.125,31.65 L -8.22499,31.75 L -8.125,31.85 L -6.875,31.85
 z
M -9.27499,31.75 L -9.375,31.65 L -10.625,31.65 L -10.725,31.75 L -10.625,31.85 L -9.375,31.85
 z
M -11.775,31.75 L -11.875,31.65 L -13.125,31.65 L -13.225,31.75 L -13.125,31.85 L -11.875,31.85
 z
M -14.275,31.75 L -14.375,31.65 L -15.625,31.65 L -15.725,31.75 L -15.625,31.85 L -14.375,31.85
 z
M -16.775,31.75 L -16.875,31.65 L -18.125,31.65 L -18.225,31.75 L -18.125,31.85 L -16.875,31.85
 z
M -19.275,31.75 L -19.375,31.65 L -20.625,31.65 L -20.725,31.75 L -20.625,31.85 L -19.375,31.85
 z
M -21.775,31.75 L -21.875,31.65 L -23.125,31.65 L -23.225,31.75 L -23.125,31.85 L -21.875,31.85
 z
M -24.275,31.75 L -24.375,31.65 L -25.625,31.65 L -25.725,31.75 L -25.625,31.85 L -24.375,31.85
 z
M -29.275,31.75 L -29.375,31.65 L -29.401,31.65 L -29.501,31.75 L -29.401,31.85 L -29.375,31.85
 z
M 0.724991,31.75 L 0.625,31.65 L -0.625,31.65 L -0.724991,31.75 L -0.625,31.85 L 0.625,31.85
 z
M 28.225,31.75 L 28.125,31.65 L 26.875,31.65 L 26.775,31.75 L 26.875,31.85 L 28.125,31.85
 z
" stroke="black" fill="lightgray" stroke-width="0.5"/>
</svg>
