<?xml version="1.0" encoding="UTF-8" standalone="no"?>
<!DOCTYPE svg PUBLIC "-//W3C//DTD SVG 1.1//EN"
 "http://www.w3.org/Graphics/SVG/1.1/DTD/svg11.dtd">
<!-- Generated by graphviz version 2.43.0 (0)
 -->
<!-- Title: tools/drafting/draft&#45;base.scad Pages: 1 -->
<svg width="402pt" height="95pt"
 viewBox="0.00 0.00 402.00 95.00" xmlns="http://www.w3.org/2000/svg" xmlns:xlink="http://www.w3.org/1999/xlink">
<g id="graph0" class="graph" transform="scale(1 1) rotate(0) translate(4 91)">
<title>tools/drafting/draft&#45;base.scad</title>
<polygon fill="white" stroke="transparent" points="-4,4 -4,-91 398,-91 398,4 -4,4"/>
<!-- Node1 -->
<g id="node1" class="node">
<title>Node1</title>
<g id="a_node1"><a xlink:title="Drafting include wrapper.">
<polygon fill="#bfbfbf" stroke="black" points="132,-56.5 132,-86.5 239,-86.5 239,-56.5 132,-56.5"/>
<text text-anchor="start" x="140" y="-74.5" font-family="Helvetica,sans-Serif" font-size="10.00">tools/drafting/draft</text>
<text text-anchor="middle" x="185.5" y="-63.5" font-family="Helvetica,sans-Serif" font-size="10.00">&#45;base.scad</text>
</a>
</g>
</g>
<!-- Node2 -->
<g id="node2" class="node">
<title>Node2</title>
<g id="a_node2"><a xlink:href="config_8scad.html" target="_top" xlink:title="Drafting defaults and configurations.">
<polygon fill="white" stroke="black" points="0,-0.5 0,-19.5 71,-19.5 71,-0.5 0,-0.5"/>
<text text-anchor="middle" x="35.5" y="-7.5" font-family="Helvetica,sans-Serif" font-size="10.00">config.scad</text>
</a>
</g>
</g>
<!-- Node1&#45;&gt;Node2 -->
<g id="edge1" class="edge">
<title>Node1&#45;&gt;Node2</title>
<path fill="none" stroke="midnightblue" d="M149.95,-56.4C124.67,-46.37 91.03,-33.03 66.77,-23.4"/>
<polygon fill="midnightblue" stroke="midnightblue" points="67.91,-20.09 57.33,-19.66 65.33,-26.6 67.91,-20.09"/>
</g>
<!-- Node3 -->
<g id="node3" class="node">
<title>Node3</title>
<g id="a_node3"><a xlink:href="primitive_8scad.html" target="_top" xlink:title="Drafting base functions and primitives.">
<polygon fill="white" stroke="black" points="89.5,-0.5 89.5,-19.5 175.5,-19.5 175.5,-0.5 89.5,-0.5"/>
<text text-anchor="middle" x="132.5" y="-7.5" font-family="Helvetica,sans-Serif" font-size="10.00">primitive.scad</text>
</a>
</g>
</g>
<!-- Node1&#45;&gt;Node3 -->
<g id="edge2" class="edge">
<title>Node1&#45;&gt;Node3</title>
<path fill="none" stroke="midnightblue" d="M172.94,-56.4C165.16,-47.66 155.14,-36.41 147.02,-27.3"/>
<polygon fill="midnightblue" stroke="midnightblue" points="149.48,-24.8 140.21,-19.66 144.25,-29.45 149.48,-24.8"/>
</g>
<!-- Node4 -->
<g id="node4" class="node">
<title>Node4</title>
<g id="a_node4"><a xlink:href="operation_8scad.html" target="_top" xlink:title="Drafting tools and general operations.">
<polygon fill="white" stroke="black" points="194,-0.5 194,-19.5 283,-19.5 283,-0.5 194,-0.5"/>
<text text-anchor="middle" x="238.5" y="-7.5" font-family="Helvetica,sans-Serif" font-size="10.00">operation.scad</text>
</a>
</g>
</g>
<!-- Node1&#45;&gt;Node4 -->
<g id="edge3" class="edge">
<title>Node1&#45;&gt;Node4</title>
<path fill="none" stroke="midnightblue" d="M198.06,-56.4C205.84,-47.66 215.86,-36.41 223.98,-27.3"/>
<polygon fill="midnightblue" stroke="midnightblue" points="226.75,-29.45 230.79,-19.66 221.52,-24.8 226.75,-29.45"/>
</g>
<!-- Node5 -->
<g id="node5" class="node">
<title>Node5</title>
<g id="a_node5"><a xlink:href="dimension_8scad.html" target="_top" xlink:title="Drafting dimension operations.">
<polygon fill="white" stroke="black" points="301,-0.5 301,-19.5 394,-19.5 394,-0.5 301,-0.5"/>
<text text-anchor="middle" x="347.5" y="-7.5" font-family="Helvetica,sans-Serif" font-size="10.00">dimension.scad</text>
</a>
</g>
</g>
<!-- Node1&#45;&gt;Node5 -->
<g id="edge4" class="edge">
<title>Node1&#45;&gt;Node5</title>
<path fill="none" stroke="midnightblue" d="M223.89,-56.4C251.44,-46.28 288.17,-32.79 314.42,-23.15"/>
<polygon fill="midnightblue" stroke="midnightblue" points="315.75,-26.39 323.93,-19.66 313.33,-19.82 315.75,-26.39"/>
</g>
</g>
</svg>
