<?xml version="1.0" encoding="UTF-8" standalone="no"?>
<!DOCTYPE svg PUBLIC "-//W3C//DTD SVG 1.1//EN"
 "http://www.w3.org/Graphics/SVG/1.1/DTD/svg11.dtd">
<!-- Generated by graphviz version 2.43.0 (0)
 -->
<!-- Title: Clamps Pages: 1 -->
<svg width="222pt" height="35pt"
 viewBox="0.00 0.00 222.00 34.54" xmlns="http://www.w3.org/2000/svg" xmlns:xlink="http://www.w3.org/1999/xlink">
<g id="graph0" class="graph" transform="scale(1 1) rotate(0) translate(4 30.54)">
<title>Clamps</title>
<polygon fill="white" stroke="transparent" points="-4,4 -4,-30.54 218,-30.54 218,4 -4,4"/>
<!-- Node2 -->
<g id="node1" class="node">
<title>Node2</title>
<g id="a_node1"><a xlink:href="group__parts__3d__enclosure.html" target="_top" xlink:title="Project boxes, housings and enclosures.">
<polygon fill="white" stroke="black" points="64,-26.54 0,-26.54 0,-7.54 64,-7.54 64,-26.54"/>
<text text-anchor="middle" x="32" y="-14.54" font-family="Helvetica,sans-Serif" font-size="10.00">Enclosure</text>
</a>
</g>
</g>
<!-- Node1 -->
<g id="node2" class="node">
<title>Node1</title>
<g id="a_node2"><a xlink:title="Clamps, bushings, and grips for wires and hoses.">
<polygon fill="#bfbfbf" stroke="black" points="214,-26.54 161,-26.54 161,-7.54 214,-7.54 214,-26.54"/>
<text text-anchor="middle" x="187.5" y="-14.54" font-family="Helvetica,sans-Serif" font-size="10.00">Clamps</text>
</a>
</g>
</g>
<!-- Node2&#45;&gt;Node1 -->
<g id="edge1" class="edge">
<title>Node2&#45;&gt;Node1</title>
<path fill="none" stroke="black" d="M74.17,-17.04C101.66,-17.04 136.96,-17.04 160.58,-17.04"/>
<polygon fill="black" stroke="black" points="74.06,-13.54 64.06,-17.04 74.06,-20.54 74.06,-13.54"/>
</g>
<!-- Node1&#45;&gt;Node2 -->
<g id="edge2" class="edge">
<title>Node1&#45;&gt;Node2</title>
<path fill="none" stroke="darkgreen" stroke-dasharray="5,2" d="M161.52,-7.54C155.54,-5.68 149.11,-4 143,-3.04 116.22,1.16 108.85,0.72 82,-3.04 75.17,-4 67.95,-5.67 61.21,-7.54"/>
<text text-anchor="middle" x="112.5" y="-6.04" font-family="Helvetica,sans-Serif" font-size="10.00">clamps.scad</text>
</g>
</g>
</svg>
