<?xml version="1.0" encoding="UTF-8" standalone="no"?>
<!DOCTYPE svg PUBLIC "-//W3C//DTD SVG 1.1//EN"
 "http://www.w3.org/Graphics/SVG/1.1/DTD/svg11.dtd">
<!-- Generated by graphviz version 2.43.0 (0)
 -->
<!-- Title: line_ip Pages: 1 -->
<svg width="602pt" height="332pt"
 viewBox="0.00 0.00 602.00 332.00" xmlns="http://www.w3.org/2000/svg" xmlns:xlink="http://www.w3.org/1999/xlink">
<g id="graph0" class="graph" transform="scale(1 1) rotate(0) translate(4 328)">
<title>line_ip</title>
<polygon fill="white" stroke="transparent" points="-4,4 -4,-328 598,-328 598,4 -4,4"/>
<!-- Node1 -->
<g id="node1" class="node">
<title>Node1</title>
<g id="a_node1"><a xlink:title="Return the initial point of a line or vector.">
<polygon fill="#bfbfbf" stroke="black" points="545,-114.5 545,-133.5 594,-133.5 594,-114.5 545,-114.5"/>
<text text-anchor="middle" x="569.5" y="-121.5" font-family="Helvetica,sans-Serif" font-size="10.00">line_ip</text>
</a>
</g>
</g>
<!-- Node2 -->
<g id="node2" class="node">
<title>Node2</title>
<g id="a_node2"><a xlink:href="group__tools__align.html#ga7a21147611850c6cae7e95d23417099b" target="_top" xlink:title="Align a line or vector to a reference line or vector.">
<polygon fill="white" stroke="black" points="457,-171.5 457,-190.5 509,-190.5 509,-171.5 457,-171.5"/>
<text text-anchor="middle" x="483" y="-178.5" font-family="Helvetica,sans-Serif" font-size="10.00">align_ll</text>
</a>
</g>
</g>
<!-- Node1&#45;&gt;Node2 -->
<g id="edge1" class="edge">
<title>Node1&#45;&gt;Node2</title>
<path fill="none" stroke="midnightblue" d="M545.81,-139.31C530.63,-149.55 511.12,-162.71 498.12,-171.47"/>
<polygon fill="midnightblue" stroke="midnightblue" points="547.83,-142.16 554.17,-133.67 543.92,-136.36 547.83,-142.16"/>
</g>
<!-- Node8 -->
<g id="node8" class="node">
<title>Node8</title>
<g id="a_node8"><a xlink:href="group__tools__drafting__primitive.html#ga060910368142d6371cf4f3f30be7561e" target="_top" xlink:title="Draft a line with configurable style and optional arrowheads.">
<polygon fill="white" stroke="black" points="135,-152.5 135,-171.5 197,-171.5 197,-152.5 135,-152.5"/>
<text text-anchor="middle" x="166" y="-159.5" font-family="Helvetica,sans-Serif" font-size="10.00">draft_line</text>
</a>
</g>
</g>
<!-- Node1&#45;&gt;Node8 -->
<g id="edge19" class="edge">
<title>Node1&#45;&gt;Node8</title>
<path fill="none" stroke="midnightblue" d="M534.79,-127.19C457.93,-134.46 270.67,-152.19 197.25,-159.14"/>
<polygon fill="midnightblue" stroke="midnightblue" points="535.26,-130.66 544.88,-126.24 534.6,-123.69 535.26,-130.66"/>
</g>
<!-- Node16 -->
<g id="node16" class="node">
<title>Node16</title>
<g id="a_node16"><a xlink:href="group__tools__drafting__operation.html#ga49aac81a903cd453ea9cadc85e84e414" target="_top" xlink:title="Construct a drafting sheet ruler.">
<polygon fill="white" stroke="black" points="16,-0.5 16,-19.5 83,-19.5 83,-0.5 16,-0.5"/>
<text text-anchor="middle" x="49.5" y="-7.5" font-family="Helvetica,sans-Serif" font-size="10.00">draft_ruler</text>
</a>
</g>
</g>
<!-- Node1&#45;&gt;Node16 -->
<g id="edge20" class="edge">
<title>Node1&#45;&gt;Node16</title>
<path fill="none" stroke="midnightblue" d="M546.65,-108.58C512.98,-86.37 445.6,-48 382,-48 382,-48 382,-48 268,-48 201.68,-48 125.67,-30.65 83.35,-19.39"/>
<polygon fill="midnightblue" stroke="midnightblue" points="544.98,-111.68 555.23,-114.37 548.9,-105.88 544.98,-111.68"/>
</g>
<!-- Node3 -->
<g id="node3" class="node">
<title>Node3</title>
<g id="a_node3"><a xlink:href="group__tools__align.html#ga3f7b93a4934de605058ca07f0c22d688" target="_top" xlink:title="Align an objects Cartesian axis to reference line or vector.">
<polygon fill="white" stroke="black" points="353.5,-209.5 353.5,-228.5 408.5,-228.5 408.5,-209.5 353.5,-209.5"/>
<text text-anchor="middle" x="381" y="-216.5" font-family="Helvetica,sans-Serif" font-size="10.00">align_al</text>
</a>
</g>
</g>
<!-- Node2&#45;&gt;Node3 -->
<g id="edge2" class="edge">
<title>Node2&#45;&gt;Node3</title>
<path fill="none" stroke="midnightblue" d="M447.09,-194.26C433.97,-199.25 419.31,-204.82 407.23,-209.41"/>
<polygon fill="midnightblue" stroke="midnightblue" points="448.66,-197.41 456.77,-190.59 446.17,-190.87 448.66,-197.41"/>
</g>
<!-- Node4 -->
<g id="node4" class="node">
<title>Node4</title>
<g id="a_node4"><a xlink:href="group__tools__drafting__primitive.html#ga4e7c5fa02dbc244702042067553a9225" target="_top" xlink:title="Draft a simple line from an initial to a terminal point.">
<polygon fill="white" stroke="black" points="341,-171.5 341,-190.5 421,-190.5 421,-171.5 341,-171.5"/>
<text text-anchor="middle" x="381" y="-178.5" font-family="Helvetica,sans-Serif" font-size="10.00">draft_line_pp</text>
</a>
</g>
</g>
<!-- Node2&#45;&gt;Node4 -->
<g id="edge3" class="edge">
<title>Node2&#45;&gt;Node4</title>
<path fill="none" stroke="midnightblue" d="M446.72,-181C438.47,-181 429.65,-181 421.24,-181"/>
<polygon fill="midnightblue" stroke="midnightblue" points="446.77,-184.5 456.77,-181 446.77,-177.5 446.77,-184.5"/>
</g>
<!-- Node5 -->
<g id="node5" class="node">
<title>Node5</title>
<g id="a_node5"><a xlink:href="group__tools__drafting__primitive.html#gaeb2a388d77f8e435b02c4235e7791eda" target="_top" xlink:title="Draft an arc with configurable style and optional arrowheads.">
<polygon fill="white" stroke="black" points="136.5,-228.5 136.5,-247.5 195.5,-247.5 195.5,-228.5 136.5,-228.5"/>
<text text-anchor="middle" x="166" y="-235.5" font-family="Helvetica,sans-Serif" font-size="10.00">draft_arc</text>
</a>
</g>
</g>
<!-- Node4&#45;&gt;Node5 -->
<g id="edge4" class="edge">
<title>Node4&#45;&gt;Node5</title>
<path fill="none" stroke="midnightblue" d="M350.87,-195.07C347.53,-196.71 344.19,-198.38 341,-200 324.87,-208.19 322.22,-213.46 305,-219 268.39,-230.78 224.03,-235.25 195.66,-236.96"/>
<polygon fill="midnightblue" stroke="midnightblue" points="352.66,-198.09 360.1,-190.54 349.58,-191.8 352.66,-198.09"/>
</g>
<!-- Node7 -->
<g id="node7" class="node">
<title>Node7</title>
<g id="a_node7"><a xlink:href="group__tools__drafting__primitive.html#ga6f12ccd4c9de0a8ab887184911f39c8f" target="_top" xlink:title="Draft an arrowhead at the terminal point of a line.">
<polygon fill="white" stroke="black" points="233,-190.5 233,-209.5 305,-209.5 305,-190.5 233,-190.5"/>
<text text-anchor="middle" x="269" y="-197.5" font-family="Helvetica,sans-Serif" font-size="10.00">draft_arrow</text>
</a>
</g>
</g>
<!-- Node4&#45;&gt;Node7 -->
<g id="edge6" class="edge">
<title>Node4&#45;&gt;Node7</title>
<path fill="none" stroke="midnightblue" d="M330.92,-189.48C322.29,-190.97 313.46,-192.49 305.3,-193.9"/>
<polygon fill="midnightblue" stroke="midnightblue" points="331.65,-192.9 340.91,-187.75 330.46,-186.01 331.65,-192.9"/>
</g>
<!-- Node4&#45;&gt;Node8 -->
<g id="edge18" class="edge">
<title>Node4&#45;&gt;Node8</title>
<path fill="none" stroke="midnightblue" d="M330.82,-176.61C289.57,-172.93 231.98,-167.8 197.22,-164.7"/>
<polygon fill="midnightblue" stroke="midnightblue" points="330.66,-180.11 340.93,-177.52 331.28,-173.14 330.66,-180.11"/>
</g>
<!-- Node6 -->
<g id="node6" class="node">
<title>Node6</title>
<g id="a_node6"><a xlink:href="group__tools__drafting__dimension.html#ga6b8e17d22ac4a95d25a90be8a74c0689" target="_top" xlink:title="Construct a angular dimension arc.">
<polygon fill="white" stroke="black" points="2,-304.5 2,-323.5 97,-323.5 97,-304.5 2,-304.5"/>
<text text-anchor="middle" x="49.5" y="-311.5" font-family="Helvetica,sans-Serif" font-size="10.00">draft_dim_angle</text>
</a>
</g>
</g>
<!-- Node5&#45;&gt;Node6 -->
<g id="edge5" class="edge">
<title>Node5&#45;&gt;Node6</title>
<path fill="none" stroke="midnightblue" d="M148.9,-254.69C136.24,-267.09 117.68,-283.73 99,-295 93.04,-298.6 86.27,-301.75 79.73,-304.4"/>
<polygon fill="midnightblue" stroke="midnightblue" points="151.38,-257.16 155.97,-247.61 146.43,-252.22 151.38,-257.16"/>
</g>
<!-- Node7&#45;&gt;Node5 -->
<g id="edge7" class="edge">
<title>Node7&#45;&gt;Node5</title>
<path fill="none" stroke="midnightblue" d="M233.13,-213.12C219.78,-218.14 204.8,-223.78 192.48,-228.41"/>
<polygon fill="midnightblue" stroke="midnightblue" points="234.39,-216.39 242.51,-209.59 231.92,-209.83 234.39,-216.39"/>
</g>
<!-- Node7&#45;&gt;Node8 -->
<g id="edge8" class="edge">
<title>Node7&#45;&gt;Node8</title>
<path fill="none" stroke="midnightblue" d="M233.13,-186.88C219.78,-181.86 204.8,-176.22 192.48,-171.59"/>
<polygon fill="midnightblue" stroke="midnightblue" points="231.92,-190.17 242.51,-190.41 234.39,-183.61 231.92,-190.17"/>
</g>
<!-- Node8&#45;&gt;Node6 -->
<g id="edge10" class="edge">
<title>Node8&#45;&gt;Node6</title>
<path fill="none" stroke="midnightblue" d="M154.89,-180.74C148.97,-191.81 141.43,-206.13 135,-219 118.29,-252.43 126.32,-269.5 99,-295 94.9,-298.83 89.94,-301.91 84.78,-304.39"/>
<polygon fill="midnightblue" stroke="midnightblue" points="158.13,-182.08 159.78,-171.62 151.97,-178.77 158.13,-182.08"/>
</g>
<!-- Node9 -->
<g id="node9" class="node">
<title>Node9</title>
<g id="a_node9"><a xlink:href="group__tools__drafting__operation.html#ga4e20419a6d4623f21c05179fc8b6df95" target="_top" xlink:title="Construct drafting sheet axes.">
<polygon fill="white" stroke="black" points="16,-266.5 16,-285.5 83,-285.5 83,-266.5 16,-266.5"/>
<text text-anchor="middle" x="49.5" y="-273.5" font-family="Helvetica,sans-Serif" font-size="10.00">draft_axes</text>
</a>
</g>
</g>
<!-- Node8&#45;&gt;Node9 -->
<g id="edge9" class="edge">
<title>Node8&#45;&gt;Node9</title>
<path fill="none" stroke="midnightblue" d="M156.1,-181.03C145.32,-202.23 125.27,-236.25 99,-257 94.17,-260.81 88.49,-263.94 82.74,-266.48"/>
<polygon fill="midnightblue" stroke="midnightblue" points="159.39,-182.29 160.64,-171.77 153.1,-179.21 159.39,-182.29"/>
</g>
<!-- Node10 -->
<g id="node10" class="node">
<title>Node10</title>
<g id="a_node10"><a xlink:href="group__tools__drafting__dimension.html#ga4866c090b81b437e2f1f707d28ad8ec7" target="_top" xlink:title="Construct a center mark dimension cross.">
<polygon fill="white" stroke="black" points="0,-228.5 0,-247.5 99,-247.5 99,-228.5 0,-228.5"/>
<text text-anchor="middle" x="49.5" y="-235.5" font-family="Helvetica,sans-Serif" font-size="10.00">draft_dim_center</text>
</a>
</g>
</g>
<!-- Node8&#45;&gt;Node10 -->
<g id="edge11" class="edge">
<title>Node8&#45;&gt;Node10</title>
<path fill="none" stroke="midnightblue" d="M148.9,-178.69C136.24,-191.09 117.68,-207.73 99,-219 93.04,-222.6 86.27,-225.75 79.73,-228.4"/>
<polygon fill="midnightblue" stroke="midnightblue" points="151.38,-181.16 155.97,-171.61 146.43,-176.22 151.38,-181.16"/>
</g>
<!-- Node11 -->
<g id="node11" class="node">
<title>Node11</title>
<g id="a_node11"><a xlink:href="group__tools__drafting__dimension.html#ga5c4915c4c4464c5cdaefd501c2de261d" target="_top" xlink:title="Construct a dimension leader line at a point.">
<polygon fill="white" stroke="black" points="0,-190.5 0,-209.5 99,-209.5 99,-190.5 0,-190.5"/>
<text text-anchor="middle" x="49.5" y="-197.5" font-family="Helvetica,sans-Serif" font-size="10.00">draft_dim_leader</text>
</a>
</g>
</g>
<!-- Node8&#45;&gt;Node11 -->
<g id="edge12" class="edge">
<title>Node8&#45;&gt;Node11</title>
<path fill="none" stroke="midnightblue" d="M126.35,-174.83C110.99,-179.92 93.62,-185.69 79.38,-190.41"/>
<polygon fill="midnightblue" stroke="midnightblue" points="127.72,-178.06 136.11,-171.59 125.51,-171.42 127.72,-178.06"/>
</g>
<!-- Node12 -->
<g id="node12" class="node">
<title>Node12</title>
<g id="a_node12"><a xlink:href="group__tools__drafting__dimension.html#ga27a35e94597435a74e22d76789e9be5e" target="_top" xlink:title="Construct a dimension line between two points.">
<polygon fill="white" stroke="black" points="6.5,-152.5 6.5,-171.5 92.5,-171.5 92.5,-152.5 6.5,-152.5"/>
<text text-anchor="middle" x="49.5" y="-159.5" font-family="Helvetica,sans-Serif" font-size="10.00">draft_dim_line</text>
</a>
</g>
</g>
<!-- Node8&#45;&gt;Node12 -->
<g id="edge13" class="edge">
<title>Node8&#45;&gt;Node12</title>
<path fill="none" stroke="midnightblue" d="M124.89,-162C114.53,-162 103.34,-162 92.87,-162"/>
<polygon fill="midnightblue" stroke="midnightblue" points="124.92,-165.5 134.92,-162 124.92,-158.5 124.92,-165.5"/>
</g>
<!-- Node13 -->
<g id="node13" class="node">
<title>Node13</title>
<g id="a_node13"><a xlink:href="group__tools__drafting__dimension.html#gaef1a8150a8ef7be88e086fb3dbab64a9" target="_top" xlink:title="Construct a radial dimension line.">
<polygon fill="white" stroke="black" points="0.5,-114.5 0.5,-133.5 98.5,-133.5 98.5,-114.5 0.5,-114.5"/>
<text text-anchor="middle" x="49.5" y="-121.5" font-family="Helvetica,sans-Serif" font-size="10.00">draft_dim_radius</text>
</a>
</g>
</g>
<!-- Node8&#45;&gt;Node13 -->
<g id="edge14" class="edge">
<title>Node8&#45;&gt;Node13</title>
<path fill="none" stroke="midnightblue" d="M126.35,-149.17C110.99,-144.08 93.62,-138.31 79.38,-133.59"/>
<polygon fill="midnightblue" stroke="midnightblue" points="125.51,-152.58 136.11,-152.41 127.72,-145.94 125.51,-152.58"/>
</g>
<!-- Node14 -->
<g id="node14" class="node">
<title>Node14</title>
<g id="a_node14"><a xlink:href="group__tools__drafting__primitive.html#gada1e771ce89ef86b6241c43dc01bf62d" target="_top" xlink:title="Draft a polygon with configurable style.">
<polygon fill="white" stroke="black" points="8,-76.5 8,-95.5 91,-95.5 91,-76.5 8,-76.5"/>
<text text-anchor="middle" x="49.5" y="-83.5" font-family="Helvetica,sans-Serif" font-size="10.00">draft_polygon</text>
</a>
</g>
</g>
<!-- Node8&#45;&gt;Node14 -->
<g id="edge15" class="edge">
<title>Node8&#45;&gt;Node14</title>
<path fill="none" stroke="midnightblue" d="M148.9,-145.31C136.24,-132.91 117.68,-116.27 99,-105 93.04,-101.4 86.27,-98.25 79.73,-95.6"/>
<polygon fill="midnightblue" stroke="midnightblue" points="146.43,-147.78 155.97,-152.39 151.38,-142.84 146.43,-147.78"/>
</g>
<!-- Node15 -->
<g id="node15" class="node">
<title>Node15</title>
<g id="a_node15"><a xlink:href="group__tools__drafting__primitive.html#ga20eb57e9d25186784df7428089e3a2ae" target="_top" xlink:title="Draft a rectangle with configurable style.">
<polygon fill="white" stroke="black" points="4.5,-38.5 4.5,-57.5 94.5,-57.5 94.5,-38.5 4.5,-38.5"/>
<text text-anchor="middle" x="49.5" y="-45.5" font-family="Helvetica,sans-Serif" font-size="10.00">draft_rectangle</text>
</a>
</g>
</g>
<!-- Node8&#45;&gt;Node15 -->
<g id="edge16" class="edge">
<title>Node8&#45;&gt;Node15</title>
<path fill="none" stroke="midnightblue" d="M156.1,-142.97C145.32,-121.77 125.27,-87.75 99,-67 94.17,-63.19 88.49,-60.06 82.74,-57.52"/>
<polygon fill="midnightblue" stroke="midnightblue" points="153.1,-144.79 160.64,-152.23 159.39,-141.71 153.1,-144.79"/>
</g>
<!-- Node8&#45;&gt;Node16 -->
<g id="edge17" class="edge">
<title>Node8&#45;&gt;Node16</title>
<path fill="none" stroke="midnightblue" d="M160.06,-142.13C151.96,-113.42 133.23,-60.36 99,-29 94.47,-24.85 88.92,-21.56 83.22,-18.97"/>
<polygon fill="midnightblue" stroke="midnightblue" points="156.78,-143.4 162.74,-152.16 163.54,-141.6 156.78,-143.4"/>
</g>
</g>
</svg>
