<?xml version="1.0" encoding="UTF-8" standalone="no"?>
<!DOCTYPE svg PUBLIC "-//W3C//DTD SVG 1.1//EN"
 "http://www.w3.org/Graphics/SVG/1.1/DTD/svg11.dtd">
<!-- Generated by graphviz version 2.43.0 (0)
 -->
<!-- Title: Revolutions Pages: 1 -->
<svg width="239pt" height="29pt"
 viewBox="0.00 0.00 239.00 28.50" xmlns="http://www.w3.org/2000/svg" xmlns:xlink="http://www.w3.org/1999/xlink">
<g id="graph0" class="graph" transform="scale(1 1) rotate(0) translate(4 24.5)">
<title>Revolutions</title>
<polygon fill="white" stroke="transparent" points="-4,4 -4,-24.5 235,-24.5 235,4 -4,4"/>
<!-- Node1 -->
<g id="node1" class="node">
<title>Node1</title>
<g id="a_node1"><a xlink:title="Select 2D shapes revolved about the z&#45;axis.">
<polygon fill="#bfbfbf" stroke="black" points="74,-19 0,-19 0,0 74,0 74,-19"/>
<text text-anchor="middle" x="37" y="-7" font-family="Helvetica,sans-Serif" font-size="10.00">Revolutions</text>
</a>
</g>
</g>
<!-- Node2 -->
<g id="node2" class="node">
<title>Node2</title>
<g id="a_node2"><a xlink:href="group__shapes.html" target="_top" xlink:title="Geometric shapes and basic constructs.">
<polygon fill="white" stroke="black" points="231,-19 179,-19 179,0 231,0 231,-19"/>
<text text-anchor="middle" x="205" y="-7" font-family="Helvetica,sans-Serif" font-size="10.00">Shapes</text>
</a>
</g>
</g>
<!-- Node1&#45;&gt;Node2 -->
<g id="edge2" class="edge">
<title>Node1&#45;&gt;Node2</title>
<path fill="none" stroke="darkgreen" stroke-dasharray="5,2" d="M74.02,-9.5C105.68,-9.5 150.93,-9.5 178.84,-9.5"/>
<text text-anchor="middle" x="126.5" y="-12.5" font-family="Helvetica,sans-Serif" font-size="10.00">revolved.scad</text>
</g>
<!-- Node2&#45;&gt;Node1 -->
<g id="edge1" class="edge">
<title>Node2&#45;&gt;Node1</title>
<path fill="none" stroke="black" d="M168.83,-7.73C166.18,-7.64 163.55,-7.56 161,-7.5 130.34,-6.79 122.66,-6.93 92,-7.5 86.18,-7.61 80.02,-7.78 74.01,-7.98"/>
<polygon fill="black" stroke="black" points="168.86,-11.23 179,-8.14 169.14,-4.24 168.86,-11.23"/>
</g>
</g>
</svg>
