<?xml version="1.0" encoding="UTF-8" standalone="no"?>
<!DOCTYPE svg PUBLIC "-//W3C//DTD SVG 1.1//EN"
 "http://www.w3.org/Graphics/SVG/1.1/DTD/svg11.dtd">
<!-- Generated by graphviz version 2.43.0 (0)
 -->
<!-- Title: repeat_grid Pages: 1 -->
<svg width="274pt" height="142pt"
 viewBox="0.00 0.00 274.00 142.00" xmlns="http://www.w3.org/2000/svg" xmlns:xlink="http://www.w3.org/1999/xlink">
<g id="graph0" class="graph" transform="scale(1 1) rotate(0) translate(4 138)">
<title>repeat_grid</title>
<polygon fill="white" stroke="transparent" points="-4,4 -4,-138 270,-138 270,4 -4,4"/>
<!-- Node1 -->
<g id="node1" class="node">
<title>Node1</title>
<g id="a_node1"><a xlink:title="Repeat copies of child objects about a Cartesian grid.">
<polygon fill="#bfbfbf" stroke="black" points="0,-57.5 0,-76.5 72,-76.5 72,-57.5 0,-57.5"/>
<text text-anchor="middle" x="36" y="-64.5" font-family="Helvetica,sans-Serif" font-size="10.00">repeat_grid</text>
</a>
</g>
</g>
<!-- Node2 -->
<g id="node2" class="node">
<title>Node2</title>
<g id="a_node2"><a xlink:href="group__datatypes__iterable__operate.html#ga3d37c2b0067d1661724bd89955c8f6ce" target="_top" xlink:title="Return an element of an iterable when it exists or a default value otherwise.">
<polygon fill="white" stroke="black" points="108,-114.5 108,-133.5 187,-133.5 187,-114.5 108,-114.5"/>
<text text-anchor="middle" x="147.5" y="-121.5" font-family="Helvetica,sans-Serif" font-size="10.00">defined_e_or</text>
</a>
</g>
</g>
<!-- Node1&#45;&gt;Node2 -->
<g id="edge1" class="edge">
<title>Node1&#45;&gt;Node2</title>
<path fill="none" stroke="midnightblue" d="M54.42,-76.53C68.74,-84.32 89.6,-95.54 108,-105 111.14,-106.62 114.45,-108.29 117.74,-109.93"/>
<polygon fill="midnightblue" stroke="midnightblue" points="116.34,-113.15 126.85,-114.46 119.45,-106.88 116.34,-113.15"/>
</g>
<!-- Node3 -->
<g id="node3" class="node">
<title>Node3</title>
<g id="a_node3"><a xlink:href="group__datatypes__scalar__test.html#ga258e8911375d30ff85a6e52df01dc1c5" target="_top" xlink:title="Test if a value is a single non&#45;iterable value.">
<polygon fill="white" stroke="black" points="118,-76.5 118,-95.5 177,-95.5 177,-76.5 118,-76.5"/>
<text text-anchor="middle" x="147.5" y="-83.5" font-family="Helvetica,sans-Serif" font-size="10.00">is_scalar</text>
</a>
</g>
</g>
<!-- Node1&#45;&gt;Node3 -->
<g id="edge2" class="edge">
<title>Node1&#45;&gt;Node3</title>
<path fill="none" stroke="midnightblue" d="M72.25,-73.12C83.66,-75.1 96.37,-77.3 108.01,-79.32"/>
<polygon fill="midnightblue" stroke="midnightblue" points="107.44,-82.78 117.9,-81.04 108.64,-75.88 107.44,-82.78"/>
</g>
<!-- Node4 -->
<g id="node4" class="node">
<title>Node4</title>
<g id="a_node4"><a xlink:href="group__common__console.html#gacb9540a228d2c15623784ff0b0653722" target="_top" xlink:title="Output information message to console.">
<polygon fill="white" stroke="black" points="119.5,-38.5 119.5,-57.5 175.5,-57.5 175.5,-38.5 119.5,-38.5"/>
<text text-anchor="middle" x="147.5" y="-45.5" font-family="Helvetica,sans-Serif" font-size="10.00">log_info</text>
</a>
</g>
</g>
<!-- Node1&#45;&gt;Node4 -->
<g id="edge3" class="edge">
<title>Node1&#45;&gt;Node4</title>
<path fill="none" stroke="midnightblue" d="M72.25,-60.88C84.05,-58.84 97.24,-56.55 109.19,-54.47"/>
<polygon fill="midnightblue" stroke="midnightblue" points="110.05,-57.88 119.31,-52.72 108.85,-50.98 110.05,-57.88"/>
</g>
<!-- Node6 -->
<g id="node6" class="node">
<title>Node6</title>
<g id="a_node6"><a xlink:href="group__common__console.html#ga1ece4e2cff9ae45c85429c226eb8362c" target="_top" xlink:title="Output warning message to console.">
<polygon fill="white" stroke="black" points="117,-0.5 117,-19.5 178,-19.5 178,-0.5 117,-0.5"/>
<text text-anchor="middle" x="147.5" y="-7.5" font-family="Helvetica,sans-Serif" font-size="10.00">log_warn</text>
</a>
</g>
</g>
<!-- Node1&#45;&gt;Node6 -->
<g id="edge5" class="edge">
<title>Node1&#45;&gt;Node6</title>
<path fill="none" stroke="midnightblue" d="M54.42,-57.47C68.74,-49.68 89.6,-38.46 108,-29 111.14,-27.38 114.45,-25.71 117.74,-24.07"/>
<polygon fill="midnightblue" stroke="midnightblue" points="119.45,-27.12 126.85,-19.54 116.34,-20.85 119.45,-27.12"/>
</g>
<!-- Node5 -->
<g id="node5" class="node">
<title>Node5</title>
<g id="a_node5"><a xlink:href="group__common__console.html#ga4fb6c985031c9b551777b2e9ebd2fc34" target="_top" xlink:title="Format the function call stack as a string.">
<polygon fill="white" stroke="black" points="223,-19.5 223,-38.5 266,-38.5 266,-19.5 223,-19.5"/>
<text text-anchor="middle" x="244.5" y="-26.5" font-family="Helvetica,sans-Serif" font-size="10.00">stack</text>
</a>
</g>
</g>
<!-- Node4&#45;&gt;Node5 -->
<g id="edge4" class="edge">
<title>Node4&#45;&gt;Node5</title>
<path fill="none" stroke="midnightblue" d="M175.72,-42.56C187.34,-40.23 200.95,-37.51 212.92,-35.12"/>
<polygon fill="midnightblue" stroke="midnightblue" points="213.8,-38.51 222.92,-33.12 212.43,-31.65 213.8,-38.51"/>
</g>
<!-- Node6&#45;&gt;Node5 -->
<g id="edge6" class="edge">
<title>Node6&#45;&gt;Node5</title>
<path fill="none" stroke="midnightblue" d="M178.04,-15.91C189.02,-18.1 201.5,-20.6 212.6,-22.82"/>
<polygon fill="midnightblue" stroke="midnightblue" points="212.23,-26.31 222.72,-24.84 213.6,-19.45 212.23,-26.31"/>
</g>
</g>
</svg>
