<?xml version="1.0" encoding="UTF-8" standalone="no"?>
<!DOCTYPE svg PUBLIC "-//W3C//DTD SVG 1.1//EN"
 "http://www.w3.org/Graphics/SVG/1.1/DTD/svg11.dtd">
<!-- Generated by graphviz version 2.43.0 (0)
 -->
<!-- Title: pci_bracket Pages: 1 -->
<svg width="489pt" height="560pt"
 viewBox="0.00 0.00 489.00 560.00" xmlns="http://www.w3.org/2000/svg" xmlns:xlink="http://www.w3.org/1999/xlink">
<g id="graph0" class="graph" transform="scale(1 1) rotate(0) translate(4 556)">
<title>pci_bracket</title>
<polygon fill="white" stroke="transparent" points="-4,4 -4,-556 485,-556 485,4 -4,4"/>
<!-- Node1 -->
<g id="node1" class="node">
<title>Node1</title>
<g id="a_node1"><a xlink:title="PCI slot cover and adapter card bracket generator.">
<polygon fill="#bfbfbf" stroke="black" points="0,-247.5 0,-266.5 72,-266.5 72,-247.5 0,-247.5"/>
<text text-anchor="middle" x="36" y="-254.5" font-family="Helvetica,sans-Serif" font-size="10.00">pci_bracket</text>
</a>
</g>
</g>
<!-- Node2 -->
<g id="node2" class="node">
<title>Node2</title>
<g id="a_node2"><a xlink:href="group__datatypes__binary.html#ga7ce4ed94d9b389ff817ea219918b8732" target="_top" xlink:title="Test if a binary bit position of an integer value equals a test bit.">
<polygon fill="white" stroke="black" points="272,-418.5 272,-437.5 351,-437.5 351,-418.5 272,-418.5"/>
<text text-anchor="middle" x="311.5" y="-425.5" font-family="Helvetica,sans-Serif" font-size="10.00">binary_bit_is</text>
</a>
</g>
</g>
<!-- Node1&#45;&gt;Node2 -->
<g id="edge1" class="edge">
<title>Node1&#45;&gt;Node2</title>
<path fill="none" stroke="midnightblue" d="M39.09,-266.59C45.04,-291.42 64.53,-358.1 108,-390 152.72,-422.81 217.57,-429.82 261.74,-430.24"/>
<polygon fill="midnightblue" stroke="midnightblue" points="261.96,-433.74 271.95,-430.22 261.94,-426.74 261.96,-433.74"/>
</g>
<!-- Node3 -->
<g id="node3" class="node">
<title>Node3</title>
<g id="a_node3"><a xlink:href="group__datatypes__iterable__operate.html#ga3d37c2b0067d1661724bd89955c8f6ce" target="_top" xlink:title="Return an element of an iterable when it exists or a default value otherwise.">
<polygon fill="white" stroke="black" points="402,-456.5 402,-475.5 481,-475.5 481,-456.5 402,-456.5"/>
<text text-anchor="middle" x="441.5" y="-463.5" font-family="Helvetica,sans-Serif" font-size="10.00">defined_e_or</text>
</a>
</g>
</g>
<!-- Node1&#45;&gt;Node3 -->
<g id="edge2" class="edge">
<title>Node1&#45;&gt;Node3</title>
<path fill="none" stroke="midnightblue" d="M38.01,-266.74C41.57,-295.63 56.23,-381.38 108,-422 190.52,-486.75 321.55,-482.16 391.95,-473.76"/>
<polygon fill="midnightblue" stroke="midnightblue" points="392.41,-477.23 401.89,-472.5 391.53,-470.28 392.41,-477.23"/>
</g>
<!-- Node4 -->
<g id="node4" class="node">
<title>Node4</title>
<g id="a_node4"><a xlink:href="group__datatypes__scalar__operate.html#gac119300e8c83de0037f2d0a4d9f0ab5c" target="_top" xlink:title="Return given value, if defined, or a secondary value, if primary is not defined.">
<polygon fill="white" stroke="black" points="130.5,-76.5 130.5,-95.5 198.5,-95.5 198.5,-76.5 130.5,-76.5"/>
<text text-anchor="middle" x="164.5" y="-83.5" font-family="Helvetica,sans-Serif" font-size="10.00">defined_or</text>
</a>
</g>
</g>
<!-- Node1&#45;&gt;Node4 -->
<g id="edge3" class="edge">
<title>Node1&#45;&gt;Node4</title>
<path fill="none" stroke="midnightblue" d="M39.15,-247.37C45.37,-221.66 65.66,-150.61 108,-110 112.03,-106.14 116.77,-102.85 121.76,-100.06"/>
<polygon fill="midnightblue" stroke="midnightblue" points="123.49,-103.11 130.91,-95.55 120.4,-96.83 123.49,-103.11"/>
</g>
<!-- Node5 -->
<g id="node5" class="node">
<title>Node5</title>
<g id="a_node5"><a xlink:href="group__shapes__basic__2d.html#ga7d62c56f88b839dc7e879ff16f968ea2" target="_top" xlink:title="An ellipse.">
<polygon fill="white" stroke="black" points="287,-532.5 287,-551.5 336,-551.5 336,-532.5 287,-532.5"/>
<text text-anchor="middle" x="311.5" y="-539.5" font-family="Helvetica,sans-Serif" font-size="10.00">ellipse</text>
</a>
</g>
</g>
<!-- Node1&#45;&gt;Node5 -->
<g id="edge4" class="edge">
<title>Node1&#45;&gt;Node5</title>
<path fill="none" stroke="midnightblue" d="M38.3,-266.56C44.21,-308.56 69.91,-476.12 108,-510 154.66,-551.5 232.47,-551.15 276.82,-546.82"/>
<polygon fill="midnightblue" stroke="midnightblue" points="277.25,-550.29 286.81,-545.72 276.49,-543.33 277.25,-550.29"/>
</g>
<!-- Node6 -->
<g id="node6" class="node">
<title>Node6</title>
<g id="a_node6"><a xlink:href="group__shapes__basic__3d.html#gae55c3490ba068ba5713b3de4302315de" target="_top" xlink:title="An ellipsoid.">
<polygon fill="white" stroke="black" points="282.5,-494.5 282.5,-513.5 340.5,-513.5 340.5,-494.5 282.5,-494.5"/>
<text text-anchor="middle" x="311.5" y="-501.5" font-family="Helvetica,sans-Serif" font-size="10.00">ellipsoid</text>
</a>
</g>
</g>
<!-- Node1&#45;&gt;Node6 -->
<g id="edge6" class="edge">
<title>Node1&#45;&gt;Node6</title>
<path fill="none" stroke="midnightblue" d="M36.71,-266.55C36.24,-301.55 39.7,-423.6 108,-480 154.12,-518.09 227.57,-516.35 272.18,-510.77"/>
<polygon fill="midnightblue" stroke="midnightblue" points="272.9,-514.21 282.33,-509.37 271.94,-507.27 272.9,-514.21"/>
</g>
<!-- Node7 -->
<g id="node7" class="node">
<title>Node7</title>
<g id="a_node7"><a xlink:href="group__tools__extrude.html#ga45661244067bf945b684550c3263ee45" target="_top" xlink:title="Linearly extrude a 2d shape with multi&#45;segment uniformly&#45;spaced profile scaling.">
<polygon fill="white" stroke="black" points="108,-247.5 108,-266.5 221,-266.5 221,-247.5 108,-247.5"/>
<text text-anchor="middle" x="164.5" y="-254.5" font-family="Helvetica,sans-Serif" font-size="10.00">extrude_linear_mss</text>
</a>
</g>
</g>
<!-- Node1&#45;&gt;Node7 -->
<g id="edge8" class="edge">
<title>Node1&#45;&gt;Node7</title>
<path fill="none" stroke="midnightblue" d="M72.24,-257C80.12,-257 88.73,-257 97.41,-257"/>
<polygon fill="midnightblue" stroke="midnightblue" points="97.59,-260.5 107.59,-257 97.59,-253.5 97.59,-260.5"/>
</g>
<!-- Node9 -->
<g id="node9" class="node">
<title>Node9</title>
<g id="a_node9"><a xlink:href="group__datatypes__iterable__operate.html#gaccab3e37e43cb1d882713b3f3d6d9e1b" target="_top" xlink:title="Return the first element of an iterable value.">
<polygon fill="white" stroke="black" points="424,-190.5 424,-209.5 459,-209.5 459,-190.5 424,-190.5"/>
<text text-anchor="middle" x="441.5" y="-197.5" font-family="Helvetica,sans-Serif" font-size="10.00">first</text>
</a>
</g>
</g>
<!-- Node1&#45;&gt;Node9 -->
<g id="edge17" class="edge">
<title>Node1&#45;&gt;Node9</title>
<path fill="none" stroke="midnightblue" d="M63.63,-247.42C104.55,-233.26 185.65,-207.4 257,-198 305.03,-191.67 317.56,-197.35 366,-198 381.88,-198.21 399.65,-198.68 413.86,-199.11"/>
<polygon fill="midnightblue" stroke="midnightblue" points="413.83,-202.61 423.93,-199.43 414.05,-195.62 413.83,-202.61"/>
</g>
<!-- Node11 -->
<g id="node11" class="node">
<title>Node11</title>
<g id="a_node11"><a xlink:href="group__datatypes__iterable__operate.html#ga894d4bec62cc9cf38d5e099de3028c54" target="_top" xlink:title="Return the second element of an iterable value.">
<polygon fill="white" stroke="black" points="416,-133.5 416,-152.5 467,-152.5 467,-133.5 416,-133.5"/>
<text text-anchor="middle" x="441.5" y="-140.5" font-family="Helvetica,sans-Serif" font-size="10.00">second</text>
</a>
</g>
</g>
<!-- Node1&#45;&gt;Node11 -->
<g id="edge24" class="edge">
<title>Node1&#45;&gt;Node11</title>
<path fill="none" stroke="midnightblue" d="M46.04,-247.13C58.59,-234.08 82.63,-211.42 108,-200 209.47,-154.31 343.48,-145.04 405.83,-143.3"/>
<polygon fill="midnightblue" stroke="midnightblue" points="406,-146.8 415.92,-143.07 405.84,-139.8 406,-146.8"/>
</g>
<!-- Node13 -->
<g id="node13" class="node">
<title>Node13</title>
<g id="a_node13"><a xlink:href="group__shapes__basic__2d.html#ga523675020d361e525669de448e17cfd7" target="_top" xlink:title="An n&#45;sided equiangular/equilateral regular polygon.">
<polygon fill="white" stroke="black" points="144,-38.5 144,-57.5 185,-57.5 185,-38.5 144,-38.5"/>
<text text-anchor="middle" x="164.5" y="-45.5" font-family="Helvetica,sans-Serif" font-size="10.00">ngon</text>
</a>
</g>
</g>
<!-- Node1&#45;&gt;Node13 -->
<g id="edge18" class="edge">
<title>Node1&#45;&gt;Node13</title>
<path fill="none" stroke="midnightblue" d="M37.79,-247.15C40.79,-216.1 54.23,-119.3 108,-67 115.08,-60.12 124.75,-55.72 134.04,-52.92"/>
<polygon fill="midnightblue" stroke="midnightblue" points="134.99,-56.29 143.83,-50.46 133.28,-49.5 134.99,-56.29"/>
</g>
<!-- Node15 -->
<g id="node15" class="node">
<title>Node15</title>
<g id="a_node15"><a xlink:href="group__shapes__basic__2d.html#ga9f679c29426c44ee83b4a13b5dd47138" target="_top" xlink:title="A rectangle with corner rounds or chamfers.">
<polygon fill="white" stroke="black" points="133.5,-361.5 133.5,-380.5 195.5,-380.5 195.5,-361.5 133.5,-361.5"/>
<text text-anchor="middle" x="164.5" y="-368.5" font-family="Helvetica,sans-Serif" font-size="10.00">rectangle</text>
</a>
</g>
</g>
<!-- Node1&#45;&gt;Node15 -->
<g id="edge20" class="edge">
<title>Node1&#45;&gt;Node15</title>
<path fill="none" stroke="midnightblue" d="M47.79,-266.72C69.44,-286.24 118.44,-330.39 145.2,-354.51"/>
<polygon fill="midnightblue" stroke="midnightblue" points="142.97,-357.21 152.74,-361.31 147.66,-352.01 142.97,-357.21"/>
</g>
<!-- Node16 -->
<g id="node16" class="node">
<title>Node16</title>
<g id="a_node16"><a xlink:href="group__datatypes__list__operate.html#ga7b8e6f2bbfa72ae61e39377e5ca6b5be" target="_top" xlink:title="Select specified element from list or return a default.">
<polygon fill="white" stroke="black" points="135,-0.5 135,-19.5 194,-19.5 194,-0.5 135,-0.5"/>
<text text-anchor="middle" x="164.5" y="-7.5" font-family="Helvetica,sans-Serif" font-size="10.00">select_ci</text>
</a>
</g>
</g>
<!-- Node1&#45;&gt;Node16 -->
<g id="edge25" class="edge">
<title>Node1&#45;&gt;Node16</title>
<path fill="none" stroke="midnightblue" d="M37.07,-247.23C37.88,-212.47 45.28,-93.5 108,-29 112.82,-24.05 118.98,-20.38 125.44,-17.67"/>
<polygon fill="midnightblue" stroke="midnightblue" points="126.69,-20.94 134.99,-14.35 124.39,-14.33 126.69,-20.94"/>
</g>
<!-- Node5&#45;&gt;Node3 -->
<g id="edge5" class="edge">
<title>Node5&#45;&gt;Node3</title>
<path fill="none" stroke="midnightblue" d="M336.09,-535.38C345.66,-532.25 356.64,-528.08 366,-523 386.82,-511.7 408.03,-494.84 422.47,-482.39"/>
<polygon fill="midnightblue" stroke="midnightblue" points="424.94,-484.87 430.13,-475.64 420.31,-479.62 424.94,-484.87"/>
</g>
<!-- Node6&#45;&gt;Node3 -->
<g id="edge7" class="edge">
<title>Node6&#45;&gt;Node3</title>
<path fill="none" stroke="midnightblue" d="M340.59,-495.66C357.64,-490.6 379.71,-484.05 398.77,-478.39"/>
<polygon fill="midnightblue" stroke="midnightblue" points="399.83,-481.73 408.42,-475.52 397.83,-475.02 399.83,-481.73"/>
</g>
<!-- Node8 -->
<g id="node8" class="node">
<title>Node8</title>
<g id="a_node8"><a xlink:href="group__tools__extrude.html#gab2442cfaf1ad44d6e295ab0979d9e03d" target="_top" xlink:title="Linearly extrude a 2d shape with uniformly&#45;spaced profile scaling.">
<polygon fill="white" stroke="black" points="257,-266.5 257,-285.5 366,-285.5 366,-266.5 257,-266.5"/>
<text text-anchor="middle" x="311.5" y="-273.5" font-family="Helvetica,sans-Serif" font-size="10.00">extrude_linear_uss</text>
</a>
</g>
</g>
<!-- Node7&#45;&gt;Node8 -->
<g id="edge9" class="edge">
<title>Node7&#45;&gt;Node8</title>
<path fill="none" stroke="midnightblue" d="M221.15,-264.29C229.44,-265.38 238.04,-266.5 246.48,-267.61"/>
<polygon fill="midnightblue" stroke="midnightblue" points="246.3,-271.12 256.67,-268.95 247.21,-264.18 246.3,-271.12"/>
</g>
<!-- Node7&#45;&gt;Node9 -->
<g id="edge14" class="edge">
<title>Node7&#45;&gt;Node9</title>
<path fill="none" stroke="midnightblue" d="M183.88,-247.49C201.98,-238.59 230.66,-225.68 257,-219 311.44,-205.19 377.4,-201.39 413.55,-200.36"/>
<polygon fill="midnightblue" stroke="midnightblue" points="413.85,-203.85 423.77,-200.12 413.69,-196.85 413.85,-203.85"/>
</g>
<!-- Node10 -->
<g id="node10" class="node">
<title>Node10</title>
<g id="a_node10"><a xlink:href="group__datatypes__scalar__test.html#ga258e8911375d30ff85a6e52df01dc1c5" target="_top" xlink:title="Test if a value is a single non&#45;iterable value.">
<polygon fill="white" stroke="black" points="412,-304.5 412,-323.5 471,-323.5 471,-304.5 412,-304.5"/>
<text text-anchor="middle" x="441.5" y="-311.5" font-family="Helvetica,sans-Serif" font-size="10.00">is_scalar</text>
</a>
</g>
</g>
<!-- Node7&#45;&gt;Node10 -->
<g id="edge15" class="edge">
<title>Node7&#45;&gt;Node10</title>
<path fill="none" stroke="midnightblue" d="M183.88,-266.51C201.98,-275.41 230.66,-288.32 257,-295 305.95,-307.42 364.21,-311.75 401.75,-313.24"/>
<polygon fill="midnightblue" stroke="midnightblue" points="401.64,-316.74 411.76,-313.59 401.89,-309.74 401.64,-316.74"/>
</g>
<!-- Node12 -->
<g id="node12" class="node">
<title>Node12</title>
<g id="a_node12"><a xlink:href="group__datatypes__list__operate.html#gae12565005038993506dc37249e32766d" target="_top" xlink:title="Compute the sum of a list of numbers.">
<polygon fill="white" stroke="black" points="292.5,-228.5 292.5,-247.5 330.5,-247.5 330.5,-228.5 292.5,-228.5"/>
<text text-anchor="middle" x="311.5" y="-235.5" font-family="Helvetica,sans-Serif" font-size="10.00">sum</text>
</a>
</g>
</g>
<!-- Node7&#45;&gt;Node12 -->
<g id="edge16" class="edge">
<title>Node7&#45;&gt;Node12</title>
<path fill="none" stroke="midnightblue" d="M221.15,-249.71C242.05,-246.97 264.92,-243.97 282.3,-241.7"/>
<polygon fill="midnightblue" stroke="midnightblue" points="282.88,-245.15 292.34,-240.38 281.97,-238.21 282.88,-245.15"/>
</g>
<!-- Node8&#45;&gt;Node3 -->
<g id="edge10" class="edge">
<title>Node8&#45;&gt;Node3</title>
<path fill="none" stroke="midnightblue" d="M319.02,-285.68C339.3,-315.79 401.48,-408.08 428.15,-447.66"/>
<polygon fill="midnightblue" stroke="midnightblue" points="425.35,-449.77 433.84,-456.11 431.15,-445.86 425.35,-449.77"/>
</g>
<!-- Node8&#45;&gt;Node9 -->
<g id="edge11" class="edge">
<title>Node8&#45;&gt;Node9</title>
<path fill="none" stroke="midnightblue" d="M344.61,-266.43C351.83,-263.78 359.33,-260.62 366,-257 386.82,-245.7 408.03,-228.84 422.47,-216.39"/>
<polygon fill="midnightblue" stroke="midnightblue" points="424.94,-218.87 430.13,-209.64 420.31,-213.62 424.94,-218.87"/>
</g>
<!-- Node8&#45;&gt;Node10 -->
<g id="edge12" class="edge">
<title>Node8&#45;&gt;Node10</title>
<path fill="none" stroke="midnightblue" d="M344.8,-285.59C362.17,-290.75 383.71,-297.14 401.96,-302.56"/>
<polygon fill="midnightblue" stroke="midnightblue" points="401.12,-305.96 411.7,-305.45 403.11,-299.25 401.12,-305.96"/>
</g>
<!-- Node8&#45;&gt;Node11 -->
<g id="edge13" class="edge">
<title>Node8&#45;&gt;Node11</title>
<path fill="none" stroke="midnightblue" d="M351.12,-266.49C356.52,-264.01 361.69,-260.9 366,-257 393.73,-231.94 380.37,-211.48 402,-181 407.47,-173.29 414.59,-165.77 421.21,-159.49"/>
<polygon fill="midnightblue" stroke="midnightblue" points="423.59,-162.05 428.64,-152.73 418.88,-156.87 423.59,-162.05"/>
</g>
<!-- Node14 -->
<g id="node14" class="node">
<title>Node14</title>
<g id="a_node14"><a xlink:href="group__math__polygon.html#ga6aea22d31f8f086c44c7241eee3ab4c2" target="_top" xlink:title="Compute coordinates for an n&#45;sided regular polygon in 2D.">
<polygon fill="white" stroke="black" points="258,-38.5 258,-57.5 365,-57.5 365,-38.5 258,-38.5"/>
<text text-anchor="middle" x="311.5" y="-45.5" font-family="Helvetica,sans-Serif" font-size="10.00">polygon_regular_p</text>
</a>
</g>
</g>
<!-- Node13&#45;&gt;Node14 -->
<g id="edge19" class="edge">
<title>Node13&#45;&gt;Node14</title>
<path fill="none" stroke="midnightblue" d="M185.06,-48C201.21,-48 225.08,-48 247.67,-48"/>
<polygon fill="midnightblue" stroke="midnightblue" points="247.93,-51.5 257.93,-48 247.93,-44.5 247.93,-51.5"/>
</g>
<!-- Node15&#45;&gt;Node2 -->
<g id="edge21" class="edge">
<title>Node15&#45;&gt;Node2</title>
<path fill="none" stroke="midnightblue" d="M189.77,-380.54C213.61,-389.91 250.18,-404.29 276.83,-414.76"/>
<polygon fill="midnightblue" stroke="midnightblue" points="275.56,-418.03 286.15,-418.43 278.12,-411.51 275.56,-418.03"/>
</g>
<!-- Node15&#45;&gt;Node3 -->
<g id="edge22" class="edge">
<title>Node15&#45;&gt;Node3</title>
<path fill="none" stroke="midnightblue" d="M195.67,-372.39C236.07,-375.19 309.23,-383.64 366,-409 387.88,-418.77 409.21,-436.14 423.41,-449.14"/>
<polygon fill="midnightblue" stroke="midnightblue" points="421.21,-451.89 430.89,-456.21 426.02,-446.8 421.21,-451.89"/>
</g>
<!-- Node15&#45;&gt;Node10 -->
<g id="edge23" class="edge">
<title>Node15&#45;&gt;Node10</title>
<path fill="none" stroke="midnightblue" d="M195.72,-364.74C245.92,-354.33 346.45,-333.49 401.78,-322.03"/>
<polygon fill="midnightblue" stroke="midnightblue" points="402.81,-325.39 411.89,-319.93 401.39,-318.53 402.81,-325.39"/>
</g>
</g>
</svg>
