<?xml version="1.0" encoding="UTF-8" standalone="no"?>
<!DOCTYPE svg PUBLIC "-//W3C//DTD SVG 1.1//EN"
 "http://www.w3.org/Graphics/SVG/1.1/DTD/svg11.dtd">
<!-- Generated by graphviz version 2.43.0 (0)
 -->
<!-- Title: screw_mount_tab Pages: 1 -->
<svg width="579pt" height="398pt"
 viewBox="0.00 0.00 579.00 398.06" xmlns="http://www.w3.org/2000/svg" xmlns:xlink="http://www.w3.org/1999/xlink">
<g id="graph0" class="graph" transform="scale(1 1) rotate(0) translate(4 394.06)">
<title>screw_mount_tab</title>
<polygon fill="white" stroke="transparent" points="-4,4 -4,-394.06 575,-394.06 575,4 -4,4"/>
<!-- Node1 -->
<g id="node1" class="node">
<title>Node1</title>
<g id="a_node1"><a xlink:title="A mount tab with screw hole and support brace.">
<polygon fill="#bfbfbf" stroke="black" points="0,-228.5 0,-247.5 103,-247.5 103,-228.5 0,-228.5"/>
<text text-anchor="middle" x="51.5" y="-235.5" font-family="Helvetica,sans-Serif" font-size="10.00">screw_mount_tab</text>
</a>
</g>
</g>
<!-- Node2 -->
<g id="node2" class="node">
<title>Node2</title>
<g id="a_node2"><a xlink:href="group__datatypes__iterable__operate.html#ga3d37c2b0067d1661724bd89955c8f6ce" target="_top" xlink:title="Return an element of an iterable when it exists or a default value otherwise.">
<polygon fill="white" stroke="black" points="300,-228.5 300,-247.5 379,-247.5 379,-228.5 300,-228.5"/>
<text text-anchor="middle" x="339.5" y="-235.5" font-family="Helvetica,sans-Serif" font-size="10.00">defined_e_or</text>
</a>
</g>
</g>
<!-- Node1&#45;&gt;Node2 -->
<g id="edge1" class="edge">
<title>Node1&#45;&gt;Node2</title>
<path fill="none" stroke="midnightblue" d="M103.3,-238C155.86,-238 237.39,-238 289.34,-238"/>
<polygon fill="midnightblue" stroke="midnightblue" points="289.63,-241.5 299.63,-238 289.63,-234.5 289.63,-241.5"/>
</g>
<!-- Node3 -->
<g id="node3" class="node">
<title>Node3</title>
<g id="a_node3"><a xlink:href="group__datatypes__scalar__operate.html#gac119300e8c83de0037f2d0a4d9f0ab5c" target="_top" xlink:title="Return given value, if defined, or a secondary value, if primary is not defined.">
<polygon fill="white" stroke="black" points="159.5,-342.5 159.5,-361.5 227.5,-361.5 227.5,-342.5 159.5,-342.5"/>
<text text-anchor="middle" x="193.5" y="-349.5" font-family="Helvetica,sans-Serif" font-size="10.00">defined_or</text>
</a>
</g>
</g>
<!-- Node1&#45;&gt;Node3 -->
<g id="edge2" class="edge">
<title>Node1&#45;&gt;Node3</title>
<path fill="none" stroke="midnightblue" d="M58.72,-247.51C71.55,-266.4 102.78,-308.92 139,-333 142.37,-335.24 146.03,-337.25 149.8,-339.04"/>
<polygon fill="midnightblue" stroke="midnightblue" points="148.74,-342.4 159.32,-343.07 151.48,-335.95 148.74,-342.4"/>
</g>
<!-- Node4 -->
<g id="node4" class="node">
<title>Node4</title>
<g id="a_node4"><a xlink:href="group__tools__extrude.html#gab2442cfaf1ad44d6e295ab0979d9e03d" target="_top" xlink:title="Linearly extrude a 2d shape with uniformly&#45;spaced profile scaling.">
<polygon fill="white" stroke="black" points="139,-304.5 139,-323.5 248,-323.5 248,-304.5 139,-304.5"/>
<text text-anchor="middle" x="193.5" y="-311.5" font-family="Helvetica,sans-Serif" font-size="10.00">extrude_linear_uss</text>
</a>
</g>
</g>
<!-- Node1&#45;&gt;Node4 -->
<g id="edge3" class="edge">
<title>Node1&#45;&gt;Node4</title>
<path fill="none" stroke="midnightblue" d="M67.19,-247.57C84.16,-258.45 113.06,-276.45 139,-290 145.76,-293.53 153.15,-297.05 160.22,-300.27"/>
<polygon fill="midnightblue" stroke="midnightblue" points="159.01,-303.56 169.57,-304.43 161.85,-297.17 159.01,-303.56"/>
</g>
<!-- Node5 -->
<g id="node5" class="node">
<title>Node5</title>
<g id="a_node5"><a xlink:href="group__datatypes__iterable__operate.html#gaccab3e37e43cb1d882713b3f3d6d9e1b" target="_top" xlink:title="Return the first element of an iterable value.">
<polygon fill="white" stroke="black" points="322,-361.5 322,-380.5 357,-380.5 357,-361.5 322,-361.5"/>
<text text-anchor="middle" x="339.5" y="-368.5" font-family="Helvetica,sans-Serif" font-size="10.00">first</text>
</a>
</g>
</g>
<!-- Node1&#45;&gt;Node5 -->
<g id="edge8" class="edge">
<title>Node1&#45;&gt;Node5</title>
<path fill="none" stroke="midnightblue" d="M55.29,-247.76C63.26,-273.63 88.88,-343.81 139,-371 194.47,-401.1 272.05,-388.35 312.16,-378.5"/>
<polygon fill="midnightblue" stroke="midnightblue" points="313.17,-381.85 321.97,-375.96 311.42,-375.08 313.17,-381.85"/>
</g>
<!-- Node7 -->
<g id="node7" class="node">
<title>Node7</title>
<g id="a_node7"><a xlink:href="group__datatypes__iterable__operate.html#ga894d4bec62cc9cf38d5e099de3028c54" target="_top" xlink:title="Return the second element of an iterable value.">
<polygon fill="white" stroke="black" points="314,-266.5 314,-285.5 365,-285.5 365,-266.5 314,-266.5"/>
<text text-anchor="middle" x="339.5" y="-273.5" font-family="Helvetica,sans-Serif" font-size="10.00">second</text>
</a>
</g>
</g>
<!-- Node1&#45;&gt;Node7 -->
<g id="edge26" class="edge">
<title>Node1&#45;&gt;Node7</title>
<path fill="none" stroke="midnightblue" d="M103.22,-246.56C114.95,-248.45 127.4,-250.36 139,-252 196.71,-260.14 264.07,-267.88 303.9,-272.27"/>
<polygon fill="midnightblue" stroke="midnightblue" points="303.57,-275.75 313.89,-273.37 304.33,-268.8 303.57,-275.75"/>
</g>
<!-- Node8 -->
<g id="node8" class="node">
<title>Node8</title>
<g id="a_node8"><a xlink:href="group__datatypes__scalar__test.html#ga51d7fdb800c10f4b7479d23b89ab8d22" target="_top" xlink:title="Test if a value is defined.">
<polygon fill="white" stroke="black" points="160.5,-190.5 160.5,-209.5 226.5,-209.5 226.5,-190.5 160.5,-190.5"/>
<text text-anchor="middle" x="193.5" y="-197.5" font-family="Helvetica,sans-Serif" font-size="10.00">is_defined</text>
</a>
</g>
</g>
<!-- Node1&#45;&gt;Node8 -->
<g id="edge9" class="edge">
<title>Node1&#45;&gt;Node8</title>
<path fill="none" stroke="midnightblue" d="M87.83,-228.41C106.82,-223.26 130.36,-216.87 150.3,-211.45"/>
<polygon fill="midnightblue" stroke="midnightblue" points="151.33,-214.8 160.06,-208.8 149.49,-208.05 151.33,-214.8"/>
</g>
<!-- Node9 -->
<g id="node9" class="node">
<title>Node9</title>
<g id="a_node9"><a xlink:href="group__shapes__polygon.html#ga9c1bd914355d92f9d66ba0e5c2d9dbac" target="_top" xlink:title="A polygon rectangle with vertex rounding.">
<polygon fill="white" stroke="black" points="153.5,-152.5 153.5,-171.5 233.5,-171.5 233.5,-152.5 153.5,-152.5"/>
<text text-anchor="middle" x="193.5" y="-159.5" font-family="Helvetica,sans-Serif" font-size="10.00">pg_rectangle</text>
</a>
</g>
</g>
<!-- Node1&#45;&gt;Node9 -->
<g id="edge10" class="edge">
<title>Node1&#45;&gt;Node9</title>
<path fill="none" stroke="midnightblue" d="M64.82,-228.49C81.09,-216.27 110.99,-194.95 139,-181 143.13,-178.94 147.54,-177 151.99,-175.21"/>
<polygon fill="midnightblue" stroke="midnightblue" points="153.6,-178.34 161.7,-171.51 151.11,-171.8 153.6,-178.34"/>
</g>
<!-- Node12 -->
<g id="node12" class="node">
<title>Node12</title>
<g id="a_node12"><a xlink:href="group__shapes__polygon.html#ga24be160074502dce7ff8a78361d4b074" target="_top" xlink:title="A polygon triangle specified by size&#45;angle&#45;size with vertex rounding.">
<polygon fill="white" stroke="black" points="147,-57.5 147,-76.5 240,-76.5 240,-57.5 147,-57.5"/>
<text text-anchor="middle" x="193.5" y="-64.5" font-family="Helvetica,sans-Serif" font-size="10.00">pg_triangle_sas</text>
</a>
</g>
</g>
<!-- Node1&#45;&gt;Node12 -->
<g id="edge14" class="edge">
<title>Node1&#45;&gt;Node12</title>
<path fill="none" stroke="midnightblue" d="M57.11,-228.45C68.58,-205.33 100.28,-145.34 139,-105 147.25,-96.4 157.69,-88.49 167.15,-82.14"/>
<polygon fill="midnightblue" stroke="midnightblue" points="169.31,-84.91 175.82,-76.55 165.52,-79.02 169.31,-84.91"/>
</g>
<!-- Node19 -->
<g id="node19" class="node">
<title>Node19</title>
<g id="a_node19"><a xlink:href="group__models__3d__fastener__screws.html#ga316ccd977e13f1f12ecb057a6466374b" target="_top" xlink:title="Flat and beveled&#45;head screw bore with nut, nut slot, and bore tolerance.">
<polygon fill="white" stroke="black" points="157.5,-114.5 157.5,-133.5 229.5,-133.5 229.5,-114.5 157.5,-114.5"/>
<text text-anchor="middle" x="193.5" y="-121.5" font-family="Helvetica,sans-Serif" font-size="10.00">screw_bore</text>
</a>
</g>
</g>
<!-- Node1&#45;&gt;Node19 -->
<g id="edge23" class="edge">
<title>Node1&#45;&gt;Node19</title>
<path fill="none" stroke="midnightblue" d="M58.72,-228.49C71.55,-209.6 102.78,-167.08 139,-143 141.92,-141.06 145.06,-139.29 148.31,-137.68"/>
<polygon fill="midnightblue" stroke="midnightblue" points="149.89,-140.81 157.63,-133.58 147.07,-134.4 149.89,-140.81"/>
</g>
<!-- Node4&#45;&gt;Node2 -->
<g id="edge4" class="edge">
<title>Node4&#45;&gt;Node2</title>
<path fill="none" stroke="midnightblue" d="M207.58,-304.29C224.53,-292.04 255.32,-270.9 284,-257 288.34,-254.9 292.97,-252.92 297.63,-251.08"/>
<polygon fill="midnightblue" stroke="midnightblue" points="299,-254.3 307.16,-247.54 296.56,-247.74 299,-254.3"/>
</g>
<!-- Node4&#45;&gt;Node5 -->
<g id="edge5" class="edge">
<title>Node4&#45;&gt;Node5</title>
<path fill="none" stroke="midnightblue" d="M222.38,-323.57C230.66,-326.5 239.73,-329.8 248,-333 269.99,-341.51 294.65,-351.93 312.67,-359.7"/>
<polygon fill="midnightblue" stroke="midnightblue" points="311.37,-362.95 321.93,-363.71 314.15,-356.53 311.37,-362.95"/>
</g>
<!-- Node6 -->
<g id="node6" class="node">
<title>Node6</title>
<g id="a_node6"><a xlink:href="group__datatypes__scalar__test.html#ga258e8911375d30ff85a6e52df01dc1c5" target="_top" xlink:title="Test if a value is a single non&#45;iterable value.">
<polygon fill="white" stroke="black" points="310,-304.5 310,-323.5 369,-323.5 369,-304.5 310,-304.5"/>
<text text-anchor="middle" x="339.5" y="-311.5" font-family="Helvetica,sans-Serif" font-size="10.00">is_scalar</text>
</a>
</g>
</g>
<!-- Node4&#45;&gt;Node6 -->
<g id="edge6" class="edge">
<title>Node4&#45;&gt;Node6</title>
<path fill="none" stroke="midnightblue" d="M248.12,-314C265.14,-314 283.63,-314 299.43,-314"/>
<polygon fill="midnightblue" stroke="midnightblue" points="299.88,-317.5 309.88,-314 299.88,-310.5 299.88,-317.5"/>
</g>
<!-- Node4&#45;&gt;Node7 -->
<g id="edge7" class="edge">
<title>Node4&#45;&gt;Node7</title>
<path fill="none" stroke="midnightblue" d="M230.84,-304.41C253.28,-298.49 281.9,-290.94 304,-285.11"/>
<polygon fill="midnightblue" stroke="midnightblue" points="305.17,-288.41 313.95,-282.48 303.39,-281.65 305.17,-288.41"/>
</g>
<!-- Node9&#45;&gt;Node2 -->
<g id="edge11" class="edge">
<title>Node9&#45;&gt;Node2</title>
<path fill="none" stroke="midnightblue" d="M227.98,-171.56C234.83,-174.15 241.83,-177.29 248,-181 266.6,-192.19 265.83,-202.13 284,-214 289.82,-217.8 296.33,-221.25 302.78,-224.29"/>
<polygon fill="midnightblue" stroke="midnightblue" points="301.54,-227.56 312.1,-228.42 304.37,-221.17 301.54,-227.56"/>
</g>
<!-- Node10 -->
<g id="node10" class="node">
<title>Node10</title>
<g id="a_node10"><a xlink:href="group__math__polygon.html#ga7a0eff64929a142fc507615f83e3bd58" target="_top" xlink:title="Compute coordinates that round all of the vertices between each adjacent edges in 2D.">
<polygon fill="white" stroke="black" points="431,-190.5 431,-209.5 571,-209.5 571,-190.5 431,-190.5"/>
<text text-anchor="middle" x="501" y="-197.5" font-family="Helvetica,sans-Serif" font-size="10.00">polygon_round_eve_all_p</text>
</a>
</g>
</g>
<!-- Node9&#45;&gt;Node10 -->
<g id="edge12" class="edge">
<title>Node9&#45;&gt;Node10</title>
<path fill="none" stroke="midnightblue" d="M233.65,-168.51C249.29,-171.01 267.48,-173.79 284,-176 329.16,-182.04 379.79,-187.72 420.66,-192.04"/>
<polygon fill="midnightblue" stroke="midnightblue" points="420.53,-195.54 430.84,-193.11 421.26,-188.58 420.53,-195.54"/>
</g>
<!-- Node11 -->
<g id="node11" class="node">
<title>Node11</title>
<g id="a_node11"><a xlink:href="group__math__linear__algebra.html#gaeabe74699fd0a437bad9a1d442bfd111" target="_top" xlink:title="Translate all coordinates dimensions.">
<polygon fill="white" stroke="black" points="465.5,-152.5 465.5,-171.5 536.5,-171.5 536.5,-152.5 465.5,-152.5"/>
<text text-anchor="middle" x="501" y="-159.5" font-family="Helvetica,sans-Serif" font-size="10.00">translate_p</text>
</a>
</g>
</g>
<!-- Node9&#45;&gt;Node11 -->
<g id="edge13" class="edge">
<title>Node9&#45;&gt;Node11</title>
<path fill="none" stroke="midnightblue" d="M233.5,-162C290.26,-162 395.34,-162 455.19,-162"/>
<polygon fill="midnightblue" stroke="midnightblue" points="455.47,-165.5 465.47,-162 455.47,-158.5 455.47,-165.5"/>
</g>
<!-- Node13 -->
<g id="node13" class="node">
<title>Node13</title>
<g id="a_node13"><a xlink:href="group__shapes__polygon.html#gac7e2c70b3428b729efd86a675df794e6" target="_top" xlink:title="A polygon triangle specified by three coordinate points with vertex rounding.">
<polygon fill="white" stroke="black" points="292,-76.5 292,-95.5 387,-95.5 387,-76.5 292,-76.5"/>
<text text-anchor="middle" x="339.5" y="-83.5" font-family="Helvetica,sans-Serif" font-size="10.00">pg_triangle_ppp</text>
</a>
</g>
</g>
<!-- Node12&#45;&gt;Node13 -->
<g id="edge15" class="edge">
<title>Node12&#45;&gt;Node13</title>
<path fill="none" stroke="midnightblue" d="M240.06,-73.01C253.32,-74.76 267.97,-76.69 281.83,-78.52"/>
<polygon fill="midnightblue" stroke="midnightblue" points="281.38,-81.99 291.75,-79.83 282.29,-75.05 281.38,-81.99"/>
</g>
<!-- Node17 -->
<g id="node17" class="node">
<title>Node17</title>
<g id="a_node17"><a xlink:href="group__math__triangle.html#gaab9b812d15418fd05c9d93f3bfcc1989" target="_top" xlink:title="Compute a set of vertex coordinates for a triangle given its side lengths in 2D.">
<polygon fill="white" stroke="black" points="284,-38.5 284,-57.5 395,-57.5 395,-38.5 284,-38.5"/>
<text text-anchor="middle" x="339.5" y="-45.5" font-family="Helvetica,sans-Serif" font-size="10.00">triangle2d_sss2ppp</text>
</a>
</g>
</g>
<!-- Node12&#45;&gt;Node17 -->
<g id="edge21" class="edge">
<title>Node12&#45;&gt;Node17</title>
<path fill="none" stroke="midnightblue" d="M240.06,-60.99C250.83,-59.57 262.52,-58.03 273.95,-56.52"/>
<polygon fill="midnightblue" stroke="midnightblue" points="274.45,-59.98 283.91,-55.2 273.53,-53.04 274.45,-59.98"/>
</g>
<!-- Node18 -->
<g id="node18" class="node">
<title>Node18</title>
<g id="a_node18"><a xlink:href="group__math__triangle.html#ga33761959a2184db852e773ca2330811b" target="_top" xlink:title="Compute the side lengths of a triangle given two sides and the included angle.">
<polygon fill="white" stroke="black" points="290.5,-0.5 290.5,-19.5 388.5,-19.5 388.5,-0.5 290.5,-0.5"/>
<text text-anchor="middle" x="339.5" y="-7.5" font-family="Helvetica,sans-Serif" font-size="10.00">triangle_sas2sss</text>
</a>
</g>
</g>
<!-- Node12&#45;&gt;Node18 -->
<g id="edge22" class="edge">
<title>Node12&#45;&gt;Node18</title>
<path fill="none" stroke="midnightblue" d="M216.04,-57.38C234.07,-49.45 260.54,-38.06 284,-29 289.26,-26.97 294.84,-24.91 300.34,-22.94"/>
<polygon fill="midnightblue" stroke="midnightblue" points="301.82,-26.13 310.08,-19.51 299.49,-19.53 301.82,-26.13"/>
</g>
<!-- Node13&#45;&gt;Node10 -->
<g id="edge16" class="edge">
<title>Node13&#45;&gt;Node10</title>
<path fill="none" stroke="midnightblue" d="M380.12,-95.55C385.51,-98.02 390.68,-101.12 395,-105 422.8,-129.98 402.38,-156.96 431,-181 433,-182.68 435.13,-184.21 437.37,-185.6"/>
<polygon fill="midnightblue" stroke="midnightblue" points="435.93,-188.8 446.41,-190.35 439.18,-182.6 435.93,-188.8"/>
</g>
<!-- Node13&#45;&gt;Node11 -->
<g id="edge17" class="edge">
<title>Node13&#45;&gt;Node11</title>
<path fill="none" stroke="midnightblue" d="M375.96,-95.59C382.56,-98.14 389.19,-101.25 395,-105 414.54,-117.63 411.05,-131.03 431,-143 438.43,-147.46 446.93,-150.9 455.36,-153.54"/>
<polygon fill="midnightblue" stroke="midnightblue" points="454.6,-156.96 465.17,-156.29 456.49,-150.22 454.6,-156.96"/>
</g>
<!-- Node14 -->
<g id="node14" class="node">
<title>Node14</title>
<g id="a_node14"><a xlink:href="group__math__triangle.html#gac0d11ca2c5035a9e53c1144f3774b0b4" target="_top" xlink:title="Compute the center coordinate of a triangle&#39;s incircle in 2D.">
<polygon fill="white" stroke="black" points="445.5,-114.5 445.5,-133.5 556.5,-133.5 556.5,-114.5 445.5,-114.5"/>
<text text-anchor="middle" x="501" y="-121.5" font-family="Helvetica,sans-Serif" font-size="10.00">triangle2d_incenter</text>
</a>
</g>
</g>
<!-- Node13&#45;&gt;Node14 -->
<g id="edge18" class="edge">
<title>Node13&#45;&gt;Node14</title>
<path fill="none" stroke="midnightblue" d="M380.75,-95.59C401.8,-100.6 427.76,-106.79 450.07,-112.11"/>
<polygon fill="midnightblue" stroke="midnightblue" points="449.5,-115.57 460.04,-114.48 451.12,-108.76 449.5,-115.57"/>
</g>
<!-- Node15 -->
<g id="node15" class="node">
<title>Node15</title>
<g id="a_node15"><a xlink:href="group__math__triangle.html#ga51e8d8c2004f859d216790f7966b7dfd" target="_top" xlink:title="Compute the centroid of a triangle.">
<polygon fill="white" stroke="black" points="451.5,-76.5 451.5,-95.5 550.5,-95.5 550.5,-76.5 451.5,-76.5"/>
<text text-anchor="middle" x="501" y="-83.5" font-family="Helvetica,sans-Serif" font-size="10.00">triangle_centroid</text>
</a>
</g>
</g>
<!-- Node13&#45;&gt;Node15 -->
<g id="edge19" class="edge">
<title>Node13&#45;&gt;Node15</title>
<path fill="none" stroke="midnightblue" d="M387.06,-86C404.05,-86 423.49,-86 441.39,-86"/>
<polygon fill="midnightblue" stroke="midnightblue" points="441.44,-89.5 451.44,-86 441.44,-82.5 441.44,-89.5"/>
</g>
<!-- Node16 -->
<g id="node16" class="node">
<title>Node16</title>
<g id="a_node16"><a xlink:href="group__math__triangle.html#ga5cf2801b07faec68a51ac3cd901bc4b0" target="_top" xlink:title="Compute the coordinate of a triangle&#39;s circumcenter.">
<polygon fill="white" stroke="black" points="439.5,-38.5 439.5,-57.5 562.5,-57.5 562.5,-38.5 439.5,-38.5"/>
<text text-anchor="middle" x="501" y="-45.5" font-family="Helvetica,sans-Serif" font-size="10.00">triangle_circumcenter</text>
</a>
</g>
</g>
<!-- Node13&#45;&gt;Node16 -->
<g id="edge20" class="edge">
<title>Node13&#45;&gt;Node16</title>
<path fill="none" stroke="midnightblue" d="M380.75,-76.41C401.8,-71.4 427.76,-65.21 450.07,-59.89"/>
<polygon fill="midnightblue" stroke="midnightblue" points="451.12,-63.24 460.04,-57.52 449.5,-56.43 451.12,-63.24"/>
</g>
<!-- Node19&#45;&gt;Node2 -->
<g id="edge24" class="edge">
<title>Node19&#45;&gt;Node2</title>
<path fill="none" stroke="midnightblue" d="M229.02,-133.57C235.59,-136.12 242.21,-139.25 248,-143 280.44,-164.04 309.65,-198.95 325.65,-220.08"/>
<polygon fill="midnightblue" stroke="midnightblue" points="322.91,-222.26 331.67,-228.21 328.53,-218.09 322.91,-222.26"/>
</g>
<!-- Node20 -->
<g id="node20" class="node">
<title>Node20</title>
<g id="a_node20"><a xlink:href="group__datatypes__list__operate.html#ga7b8e6f2bbfa72ae61e39377e5ca6b5be" target="_top" xlink:title="Select specified element from list or return a default.">
<polygon fill="white" stroke="black" points="310,-114.5 310,-133.5 369,-133.5 369,-114.5 310,-114.5"/>
<text text-anchor="middle" x="339.5" y="-121.5" font-family="Helvetica,sans-Serif" font-size="10.00">select_ci</text>
</a>
</g>
</g>
<!-- Node19&#45;&gt;Node20 -->
<g id="edge25" class="edge">
<title>Node19&#45;&gt;Node20</title>
<path fill="none" stroke="midnightblue" d="M229.73,-124C250.91,-124 277.89,-124 299.68,-124"/>
<polygon fill="midnightblue" stroke="midnightblue" points="299.92,-127.5 309.92,-124 299.92,-120.5 299.92,-127.5"/>
</g>
</g>
</svg>
