<?xml version="1.0" encoding="UTF-8" standalone="no"?>
<!DOCTYPE svg PUBLIC "-//W3C//DTD SVG 1.1//EN"
 "http://www.w3.org/Graphics/SVG/1.1/DTD/svg11.dtd">
<!-- Generated by graphviz version 2.43.0 (0)
 -->
<!-- Title: pg_trapezoid Pages: 1 -->
<svg width="264pt" height="142pt"
 viewBox="0.00 0.00 264.00 142.00" xmlns="http://www.w3.org/2000/svg" xmlns:xlink="http://www.w3.org/1999/xlink">
<g id="graph0" class="graph" transform="scale(1 1) rotate(0) translate(4 138)">
<title>pg_trapezoid</title>
<polygon fill="white" stroke="transparent" points="-4,4 -4,-138 260,-138 260,4 -4,4"/>
<!-- Node1 -->
<g id="node1" class="node">
<title>Node1</title>
<g id="a_node1"><a xlink:title="A polygon trapezoid with individual vertex rounding and arc facets.">
<polygon fill="#bfbfbf" stroke="black" points="0,-57.5 0,-76.5 80,-76.5 80,-57.5 0,-57.5"/>
<text text-anchor="middle" x="40" y="-64.5" font-family="Helvetica,sans-Serif" font-size="10.00">pg_trapezoid</text>
</a>
</g>
</g>
<!-- Node2 -->
<g id="node2" class="node">
<title>Node2</title>
<g id="a_node2"><a xlink:href="group__math__polygon.html#gadd2e4f80e8c8f0aafa04f9a70a7c617e" target="_top" xlink:title="Compute the center of mass of a polygon in a Euclidean 2d&#45;space.">
<polygon fill="white" stroke="black" points="135.5,-114.5 135.5,-133.5 236.5,-133.5 236.5,-114.5 135.5,-114.5"/>
<text text-anchor="middle" x="186" y="-121.5" font-family="Helvetica,sans-Serif" font-size="10.00">polygon_centroid</text>
</a>
</g>
</g>
<!-- Node1&#45;&gt;Node2 -->
<g id="edge1" class="edge">
<title>Node1&#45;&gt;Node2</title>
<path fill="none" stroke="midnightblue" d="M57.54,-76.59C72.45,-84.95 95.17,-96.95 116,-105 122.23,-107.41 128.88,-109.64 135.51,-111.67"/>
<polygon fill="midnightblue" stroke="midnightblue" points="134.57,-115.04 145.15,-114.49 136.53,-108.32 134.57,-115.04"/>
</g>
<!-- Node3 -->
<g id="node3" class="node">
<title>Node3</title>
<g id="a_node3"><a xlink:href="group__math__polygon.html#ga7a0eff64929a142fc507615f83e3bd58" target="_top" xlink:title="Compute coordinates that round all of the vertices between each adjacent edges in 2D.">
<polygon fill="white" stroke="black" points="116,-76.5 116,-95.5 256,-95.5 256,-76.5 116,-76.5"/>
<text text-anchor="middle" x="186" y="-83.5" font-family="Helvetica,sans-Serif" font-size="10.00">polygon_round_eve_all_p</text>
</a>
</g>
</g>
<!-- Node1&#45;&gt;Node3 -->
<g id="edge2" class="edge">
<title>Node1&#45;&gt;Node3</title>
<path fill="none" stroke="midnightblue" d="M80.35,-72.19C88.34,-73.25 97,-74.39 105.81,-75.55"/>
<polygon fill="midnightblue" stroke="midnightblue" points="105.42,-79.03 115.79,-76.87 106.34,-72.09 105.42,-79.03"/>
</g>
<!-- Node4 -->
<g id="node4" class="node">
<title>Node4</title>
<g id="a_node4"><a xlink:href="group__math__polygon.html#ga45b00b87d541c116f7d4a403f5fcd2f5" target="_top" xlink:title="Compute the coordinates for a rounded trapezoid in 2D space.">
<polygon fill="white" stroke="black" points="127,-38.5 127,-57.5 245,-57.5 245,-38.5 127,-38.5"/>
<text text-anchor="middle" x="186" y="-45.5" font-family="Helvetica,sans-Serif" font-size="10.00">polygon_trapezoid_p</text>
</a>
</g>
</g>
<!-- Node1&#45;&gt;Node4 -->
<g id="edge3" class="edge">
<title>Node1&#45;&gt;Node4</title>
<path fill="none" stroke="midnightblue" d="M80.35,-61.81C91.65,-60.32 104.31,-58.65 116.82,-57"/>
<polygon fill="midnightblue" stroke="midnightblue" points="117.34,-60.46 126.79,-55.68 116.42,-53.52 117.34,-60.46"/>
</g>
<!-- Node5 -->
<g id="node5" class="node">
<title>Node5</title>
<g id="a_node5"><a xlink:href="group__math__linear__algebra.html#gaeabe74699fd0a437bad9a1d442bfd111" target="_top" xlink:title="Translate all coordinates dimensions.">
<polygon fill="white" stroke="black" points="150.5,-0.5 150.5,-19.5 221.5,-19.5 221.5,-0.5 150.5,-0.5"/>
<text text-anchor="middle" x="186" y="-7.5" font-family="Helvetica,sans-Serif" font-size="10.00">translate_p</text>
</a>
</g>
</g>
<!-- Node1&#45;&gt;Node5 -->
<g id="edge4" class="edge">
<title>Node1&#45;&gt;Node5</title>
<path fill="none" stroke="midnightblue" d="M57.54,-57.41C72.45,-49.05 95.17,-37.05 116,-29 123.74,-26.01 132.15,-23.28 140.34,-20.89"/>
<polygon fill="midnightblue" stroke="midnightblue" points="141.48,-24.2 150.16,-18.14 139.59,-17.46 141.48,-24.2"/>
</g>
</g>
</svg>
