<?xml version="1.0" encoding="UTF-8" standalone="no"?>
<!DOCTYPE svg PUBLIC "-//W3C//DTD SVG 1.1//EN"
 "http://www.w3.org/Graphics/SVG/1.1/DTD/svg11.dtd">
<!-- Generated by graphviz version 2.43.0 (0)
 -->
<!-- Title: lmxuu Pages: 1 -->
<svg width="319pt" height="29pt"
 viewBox="0.00 0.00 319.00 28.50" xmlns="http://www.w3.org/2000/svg" xmlns:xlink="http://www.w3.org/1999/xlink">
<g id="graph0" class="graph" transform="scale(1 1) rotate(0) translate(4 24.5)">
<title>lmxuu</title>
<polygon fill="white" stroke="transparent" points="-4,4 -4,-24.5 315,-24.5 315,4 -4,4"/>
<!-- Node3 -->
<g id="node1" class="node">
<title>Node3</title>
<g id="a_node1"><a xlink:href="group__database__component__bearing.html" target="_top" xlink:title="Mechanical bearing specifications.">
<polygon fill="white" stroke="black" points="311,-19 257,-19 257,0 311,0 311,-19"/>
<text text-anchor="middle" x="284" y="-7" font-family="Helvetica,sans-Serif" font-size="10.00">Bearing</text>
</a>
</g>
</g>
<!-- Node1 -->
<g id="node2" class="node">
<title>Node1</title>
<g id="a_node2"><a xlink:title="[linear] Linear motion bearing; lmxuu; lm.">
<polygon fill="#bfbfbf" stroke="black" points="131,-19 84,-19 84,0 131,0 131,-19"/>
<text text-anchor="middle" x="107.5" y="-7" font-family="Helvetica,sans-Serif" font-size="10.00">lmxuu</text>
</a>
</g>
</g>
<!-- Node1&#45;&gt;Node3 -->
<g id="edge2" class="edge">
<title>Node1&#45;&gt;Node3</title>
<path fill="none" stroke="darkgreen" stroke-dasharray="5,2" d="M131.31,-9.5C163.65,-9.5 222.66,-9.5 256.76,-9.5"/>
<text text-anchor="middle" x="194" y="-12.5" font-family="Helvetica,sans-Serif" font-size="10.00">linear_lmxuu.scad</text>
</g>
<!-- Node2 -->
<g id="node3" class="node">
<title>Node2</title>
<g id="a_node3"><a xlink:href="group__database__component__bearing__Linear.html" target="_top" xlink:title=" ">
<polygon fill="white" stroke="black" points="47,-19 0,-19 0,0 47,0 47,-19"/>
<text text-anchor="middle" x="23.5" y="-7" font-family="Helvetica,sans-Serif" font-size="10.00">Linear</text>
</a>
</g>
</g>
<!-- Node2&#45;&gt;Node1 -->
<g id="edge1" class="edge">
<title>Node2&#45;&gt;Node1</title>
<path fill="none" stroke="black" d="M57.39,-9.5C66.24,-9.5 75.62,-9.5 83.78,-9.5"/>
<polygon fill="black" stroke="black" points="57.34,-6 47.34,-9.5 57.34,-13 57.34,-6"/>
</g>
</g>
</svg>
