<?xml version="1.0" encoding="UTF-8" standalone="no"?>
<!DOCTYPE svg PUBLIC "-//W3C//DTD SVG 1.1//EN"
 "http://www.w3.org/Graphics/SVG/1.1/DTD/svg11.dtd">
<!-- Generated by graphviz version 2.43.0 (0)
 -->
<!-- Title: first Pages: 1 -->
<svg width="640pt" height="605pt"
 viewBox="0.00 0.00 640.00 604.61" xmlns="http://www.w3.org/2000/svg" xmlns:xlink="http://www.w3.org/1999/xlink">
<g id="graph0" class="graph" transform="scale(1 1) rotate(0) translate(4 600.61)">
<title>first</title>
<polygon fill="white" stroke="transparent" points="-4,4 -4,-600.61 636,-600.61 636,4 -4,4"/>
<!-- Node1 -->
<g id="node1" class="node">
<title>Node1</title>
<g id="a_node1"><a xlink:title="Return the first element of an iterable value.">
<polygon fill="#bfbfbf" stroke="black" points="597,-285.5 597,-304.5 632,-304.5 632,-285.5 597,-285.5"/>
<text text-anchor="middle" x="614.5" y="-292.5" font-family="Helvetica,sans-Serif" font-size="10.00">first</text>
</a>
</g>
</g>
<!-- Node2 -->
<g id="node2" class="node">
<title>Node2</title>
<g id="a_node2"><a xlink:href="group__parts__3d__fastener__catch__latch.html#gaa90b197081dba0e1fbe7c92aa4079279" target="_top" xlink:title="A catch latch generator.">
<polygon fill="white" stroke="black" points="160,-494.5 160,-513.5 232,-513.5 232,-494.5 160,-494.5"/>
<text text-anchor="middle" x="196" y="-501.5" font-family="Helvetica,sans-Serif" font-size="10.00">catch_latch</text>
</a>
</g>
</g>
<!-- Node1&#45;&gt;Node2 -->
<g id="edge1" class="edge">
<title>Node1&#45;&gt;Node2</title>
<path fill="none" stroke="midnightblue" d="M612.72,-314.61C610.05,-370.68 599.19,-529.61 561,-561 453.77,-649.14 266.79,-546.9 212.3,-513.7"/>
<polygon fill="midnightblue" stroke="midnightblue" points="616.22,-314.71 613.17,-304.57 609.23,-314.4 616.22,-314.71"/>
</g>
<!-- Node3 -->
<g id="node3" class="node">
<title>Node3</title>
<g id="a_node3"><a xlink:href="group__tools__drafting__operation.html#ga4e20419a6d4623f21c05179fc8b6df95" target="_top" xlink:title="Construct drafting sheet axes.">
<polygon fill="white" stroke="black" points="473,-532.5 473,-551.5 540,-551.5 540,-532.5 473,-532.5"/>
<text text-anchor="middle" x="506.5" y="-539.5" font-family="Helvetica,sans-Serif" font-size="10.00">draft_axes</text>
</a>
</g>
</g>
<!-- Node1&#45;&gt;Node3 -->
<g id="edge2" class="edge">
<title>Node1&#45;&gt;Node3</title>
<path fill="none" stroke="midnightblue" d="M611.38,-314.82C605.71,-364.37 588.7,-491.91 561,-523 555.49,-529.18 547.84,-533.35 540.04,-536.17"/>
<polygon fill="midnightblue" stroke="midnightblue" points="614.87,-315.07 612.5,-304.74 607.92,-314.29 614.87,-315.07"/>
</g>
<!-- Node4 -->
<g id="node4" class="node">
<title>Node4</title>
<g id="a_node4"><a xlink:href="group__tools__drafting__primitive.html#gada1e771ce89ef86b6241c43dc01bf62d" target="_top" xlink:title="Draft a polygon with configurable style.">
<polygon fill="white" stroke="black" points="465,-494.5 465,-513.5 548,-513.5 548,-494.5 465,-494.5"/>
<text text-anchor="middle" x="506.5" y="-501.5" font-family="Helvetica,sans-Serif" font-size="10.00">draft_polygon</text>
</a>
</g>
</g>
<!-- Node1&#45;&gt;Node4 -->
<g id="edge3" class="edge">
<title>Node1&#45;&gt;Node4</title>
<path fill="none" stroke="midnightblue" d="M613.14,-315.22C611.43,-352.27 602.77,-431.68 561,-480 555.61,-486.24 548.27,-490.93 540.76,-494.43"/>
<polygon fill="midnightblue" stroke="midnightblue" points="616.65,-314.88 613.48,-304.77 609.66,-314.65 616.65,-314.88"/>
</g>
<!-- Node5 -->
<g id="node5" class="node">
<title>Node5</title>
<g id="a_node5"><a xlink:href="group__tools__extrude.html#ga45661244067bf945b684550c3263ee45" target="_top" xlink:title="Linearly extrude a 2d shape with multi&#45;segment uniformly&#45;spaced profile scaling.">
<polygon fill="white" stroke="black" points="302.5,-380.5 302.5,-399.5 415.5,-399.5 415.5,-380.5 302.5,-380.5"/>
<text text-anchor="middle" x="359" y="-387.5" font-family="Helvetica,sans-Serif" font-size="10.00">extrude_linear_mss</text>
</a>
</g>
</g>
<!-- Node1&#45;&gt;Node5 -->
<g id="edge4" class="edge">
<title>Node1&#45;&gt;Node5</title>
<path fill="none" stroke="midnightblue" d="M605,-313.9C596.43,-330.59 581.53,-354.07 561,-366 516.94,-391.61 458.31,-395.9 415.75,-394.82"/>
<polygon fill="midnightblue" stroke="midnightblue" points="608.32,-315.08 609.52,-304.55 602.02,-312.04 608.32,-315.08"/>
</g>
<!-- Node7 -->
<g id="node7" class="node">
<title>Node7</title>
<g id="a_node7"><a xlink:href="group__parts__3d__enclosure__power__strip.html#ga191779dedf39e4fd769a8dc96b0f8c9e" target="_top" xlink:title="A power strip generator for single gang electrical receptacles.">
<polygon fill="white" stroke="black" points="0,-342.5 0,-361.5 90,-361.5 90,-342.5 0,-342.5"/>
<text text-anchor="middle" x="45" y="-349.5" font-family="Helvetica,sans-Serif" font-size="10.00">power_strip_sg</text>
</a>
</g>
</g>
<!-- Node1&#45;&gt;Node7 -->
<g id="edge26" class="edge">
<title>Node1&#45;&gt;Node7</title>
<path fill="none" stroke="midnightblue" d="M611.29,-314.74C606.95,-344.2 594.59,-399.56 561,-431 510.87,-477.93 333.89,-512.66 266,-523 204.49,-532.37 178.5,-556.4 126,-523 67.1,-485.53 50.83,-392.03 47.03,-361.68"/>
<polygon fill="midnightblue" stroke="midnightblue" points="614.76,-315.19 612.59,-304.82 607.82,-314.28 614.76,-315.19"/>
</g>
<!-- Node10 -->
<g id="node10" class="node">
<title>Node10</title>
<g id="a_node10"><a xlink:href="group__parts__3d__computer__pci__bracket.html#gaf56631cf80d8e5f0b77736b17b94ecd9" target="_top" xlink:title="PCI slot cover and adapter card bracket generator.">
<polygon fill="white" stroke="black" points="160,-456.5 160,-475.5 232,-475.5 232,-456.5 160,-456.5"/>
<text text-anchor="middle" x="196" y="-463.5" font-family="Helvetica,sans-Serif" font-size="10.00">pci_bracket</text>
</a>
</g>
</g>
<!-- Node1&#45;&gt;Node10 -->
<g id="edge23" class="edge">
<title>Node1&#45;&gt;Node10</title>
<path fill="none" stroke="midnightblue" d="M608.54,-314.41C601.73,-336.95 587.24,-373.53 561,-393 460.2,-467.81 302.11,-471.04 232.23,-468.31"/>
<polygon fill="midnightblue" stroke="midnightblue" points="611.96,-315.18 611.29,-304.61 605.22,-313.29 611.96,-315.18"/>
</g>
<!-- Node11 -->
<g id="node11" class="node">
<title>Node11</title>
<g id="a_node11"><a xlink:href="group__parts__3d__enclosure__project__box__rectangle.html#ga6a5d093d732e65556c46252220f2c4b6" target="_top" xlink:title="A rectangular box maker for project boxes, enclosures and housings.">
<polygon fill="white" stroke="black" points="133.5,-304.5 133.5,-323.5 258.5,-323.5 258.5,-304.5 133.5,-304.5"/>
<text text-anchor="middle" x="196" y="-311.5" font-family="Helvetica,sans-Serif" font-size="10.00">project_box_rectangle</text>
</a>
</g>
</g>
<!-- Node1&#45;&gt;Node11 -->
<g id="edge27" class="edge">
<title>Node1&#45;&gt;Node11</title>
<path fill="none" stroke="midnightblue" d="M596.55,-311.51C586.95,-319.69 574.25,-328.71 561,-333 444.36,-370.78 295.78,-340.49 230.41,-323.53"/>
<polygon fill="midnightblue" stroke="midnightblue" points="599.03,-313.98 604.11,-304.68 594.35,-308.78 599.03,-313.98"/>
</g>
<!-- Node12 -->
<g id="node12" class="node">
<title>Node12</title>
<g id="a_node12"><a xlink:href="group__tools__extrude.html#gab2442cfaf1ad44d6e295ab0979d9e03d" target="_top" xlink:title="Linearly extrude a 2d shape with uniformly&#45;spaced profile scaling.">
<polygon fill="white" stroke="black" points="452,-304.5 452,-323.5 561,-323.5 561,-304.5 452,-304.5"/>
<text text-anchor="middle" x="506.5" y="-311.5" font-family="Helvetica,sans-Serif" font-size="10.00">extrude_linear_uss</text>
</a>
</g>
</g>
<!-- Node1&#45;&gt;Node12 -->
<g id="edge14" class="edge">
<title>Node1&#45;&gt;Node12</title>
<path fill="none" stroke="midnightblue" d="M587.07,-299.74C579,-301.18 569.83,-302.83 560.66,-304.47"/>
<polygon fill="midnightblue" stroke="midnightblue" points="587.71,-303.18 596.94,-297.97 586.48,-296.29 587.71,-303.18"/>
</g>
<!-- Node13 -->
<g id="node13" class="node">
<title>Node13</title>
<g id="a_node13"><a xlink:href="group__parts__3d__enclosure__mounts.html#gacac878eda32a71cb3b1b174c9aebb56c" target="_top" xlink:title="A mount tab with screw hole and support brace.">
<polygon fill="white" stroke="black" points="307.5,-228.5 307.5,-247.5 410.5,-247.5 410.5,-228.5 307.5,-228.5"/>
<text text-anchor="middle" x="359" y="-235.5" font-family="Helvetica,sans-Serif" font-size="10.00">screw_mount_tab</text>
</a>
</g>
</g>
<!-- Node1&#45;&gt;Node13 -->
<g id="edge28" class="edge">
<title>Node1&#45;&gt;Node13</title>
<path fill="none" stroke="midnightblue" d="M586.97,-289.03C543.14,-279.18 455.23,-259.41 402.61,-247.58"/>
<polygon fill="midnightblue" stroke="midnightblue" points="586.34,-292.48 596.87,-291.26 587.88,-285.65 586.34,-292.48"/>
</g>
<!-- Node14 -->
<g id="node14" class="node">
<title>Node14</title>
<g id="a_node14"><a xlink:href="group__datatypes__map.html#ga4a3d0704d80be0d9e8bae1fcb3ab7958" target="_top" xlink:title="Perform basic format checks on a map and output errors to console.">
<polygon fill="white" stroke="black" points="470.5,-228.5 470.5,-247.5 542.5,-247.5 542.5,-228.5 470.5,-228.5"/>
<text text-anchor="middle" x="506.5" y="-235.5" font-family="Helvetica,sans-Serif" font-size="10.00">map_check</text>
</a>
</g>
</g>
<!-- Node1&#45;&gt;Node14 -->
<g id="edge20" class="edge">
<title>Node1&#45;&gt;Node14</title>
<path fill="none" stroke="midnightblue" d="M591.04,-279.92C581.89,-274.03 571.11,-267.41 561,-262 551.31,-256.81 540.27,-251.73 530.75,-247.59"/>
<polygon fill="midnightblue" stroke="midnightblue" points="589.27,-282.94 599.56,-285.49 593.1,-277.08 589.27,-282.94"/>
</g>
<!-- Node16 -->
<g id="node16" class="node">
<title>Node16</title>
<g id="a_node16"><a xlink:href="group__datatypes__map.html#ga1ee3a7b76638ba11f1420da1dec59c8d" target="_top" xlink:title="Write formatted map entries to the console.">
<polygon fill="white" stroke="black" points="472.5,-190.5 472.5,-209.5 540.5,-209.5 540.5,-190.5 472.5,-190.5"/>
<text text-anchor="middle" x="506.5" y="-197.5" font-family="Helvetica,sans-Serif" font-size="10.00">map_write</text>
</a>
</g>
</g>
<!-- Node1&#45;&gt;Node16 -->
<g id="edge22" class="edge">
<title>Node1&#45;&gt;Node16</title>
<path fill="none" stroke="midnightblue" d="M604.87,-276.34C596.07,-259.21 580.9,-234.25 561,-219 554.98,-214.38 547.73,-210.83 540.55,-208.11"/>
<polygon fill="midnightblue" stroke="midnightblue" points="601.76,-277.95 609.3,-285.39 608.05,-274.87 601.76,-277.95"/>
</g>
<!-- Node17 -->
<g id="node17" class="node">
<title>Node17</title>
<g id="a_node17"><a xlink:href="group__tools__polytope.html#ga530c86f9c90ce074aa7adc29834f0539" target="_top" xlink:title="Assemble a polytope skeletal frame using child objects.">
<polygon fill="white" stroke="black" points="459.5,-152.5 459.5,-171.5 553.5,-171.5 553.5,-152.5 459.5,-152.5"/>
<text text-anchor="middle" x="506.5" y="-159.5" font-family="Helvetica,sans-Serif" font-size="10.00">polytope_frame</text>
</a>
</g>
</g>
<!-- Node1&#45;&gt;Node17 -->
<g id="edge24" class="edge">
<title>Node1&#45;&gt;Node17</title>
<path fill="none" stroke="midnightblue" d="M609.43,-275.37C603.22,-250.16 589.03,-206.6 561,-181 556.78,-177.14 551.72,-174.06 546.43,-171.6"/>
<polygon fill="midnightblue" stroke="midnightblue" points="606.05,-276.27 611.68,-285.24 612.87,-274.71 606.05,-276.27"/>
</g>
<!-- Node18 -->
<g id="node18" class="node">
<title>Node18</title>
<g id="a_node18"><a xlink:href="group__tools__polytope.html#ga00b574079f19251be7281151d11db8fa" target="_top" xlink:title="Label the vertices, paths, and edges of a polytope.">
<polygon fill="white" stroke="black" points="455.5,-114.5 455.5,-133.5 557.5,-133.5 557.5,-114.5 455.5,-114.5"/>
<text text-anchor="middle" x="506.5" y="-121.5" font-family="Helvetica,sans-Serif" font-size="10.00">polytope_number</text>
</a>
</g>
</g>
<!-- Node1&#45;&gt;Node18 -->
<g id="edge25" class="edge">
<title>Node1&#45;&gt;Node18</title>
<path fill="none" stroke="midnightblue" d="M612.03,-275C608.62,-242.9 597.41,-179.73 561,-143 557.18,-139.15 552.54,-136.08 547.59,-133.63"/>
<polygon fill="midnightblue" stroke="midnightblue" points="608.58,-275.68 612.97,-285.32 615.55,-275.05 608.58,-275.68"/>
</g>
<!-- Node19 -->
<g id="node19" class="node">
<title>Node19</title>
<g id="a_node19"><a xlink:href="group__datatypes__table.html#ga8a4429649e8b06d9f492e1a0d2653656" target="_top" xlink:title="Perform basic format checks on a table and output errors to console.">
<polygon fill="white" stroke="black" points="469,-76.5 469,-95.5 544,-95.5 544,-76.5 469,-76.5"/>
<text text-anchor="middle" x="506.5" y="-83.5" font-family="Helvetica,sans-Serif" font-size="10.00">table_check</text>
</a>
</g>
</g>
<!-- Node1&#45;&gt;Node19 -->
<g id="edge29" class="edge">
<title>Node1&#45;&gt;Node19</title>
<path fill="none" stroke="midnightblue" d="M613.7,-274.95C612.99,-236.81 606.01,-153.35 561,-105 556.37,-100.02 550.34,-96.35 544.02,-93.63"/>
<polygon fill="midnightblue" stroke="midnightblue" points="610.2,-275.25 613.76,-285.24 617.2,-275.22 610.2,-275.25"/>
</g>
<!-- Node22 -->
<g id="node22" class="node">
<title>Node22</title>
<g id="a_node22"><a xlink:href="group__datatypes__table.html#gaafc45abc1b8026ee1518fad87a042be3" target="_top" xlink:title="Dump a table to the console.">
<polygon fill="white" stroke="black" points="469.5,-38.5 469.5,-57.5 543.5,-57.5 543.5,-38.5 469.5,-38.5"/>
<text text-anchor="middle" x="506.5" y="-45.5" font-family="Helvetica,sans-Serif" font-size="10.00">table_dump</text>
</a>
</g>
</g>
<!-- Node1&#45;&gt;Node22 -->
<g id="edge32" class="edge">
<title>Node1&#45;&gt;Node22</title>
<path fill="none" stroke="midnightblue" d="M611.38,-275.18C605.71,-225.63 588.7,-98.09 561,-67 556.34,-61.78 550.16,-57.99 543.64,-55.24"/>
<polygon fill="midnightblue" stroke="midnightblue" points="607.92,-275.71 612.5,-285.26 614.87,-274.93 607.92,-275.71"/>
</g>
<!-- Node23 -->
<g id="node23" class="node">
<title>Node23</title>
<g id="a_node23"><a xlink:href="group__datatypes__table.html#ga8d212217f9acb803e3107f488d5523e6" target="_top" xlink:title="Write formatted map entries to the console.">
<polygon fill="white" stroke="black" points="471,-0.5 471,-19.5 542,-19.5 542,-0.5 471,-0.5"/>
<text text-anchor="middle" x="506.5" y="-7.5" font-family="Helvetica,sans-Serif" font-size="10.00">table_write</text>
</a>
</g>
</g>
<!-- Node1&#45;&gt;Node23 -->
<g id="edge33" class="edge">
<title>Node1&#45;&gt;Node23</title>
<path fill="none" stroke="midnightblue" d="M612.1,-275.26C607.81,-220.15 593.16,-66.25 561,-29 556.04,-23.26 549.22,-19.25 542.12,-16.45"/>
<polygon fill="midnightblue" stroke="midnightblue" points="608.62,-275.73 612.86,-285.44 615.61,-275.21 608.62,-275.73"/>
</g>
<!-- Node5&#45;&gt;Node2 -->
<g id="edge5" class="edge">
<title>Node5&#45;&gt;Node2</title>
<path fill="none" stroke="midnightblue" d="M345.37,-407.99C329.35,-429.48 299.7,-465.02 266,-485 255.74,-491.08 243.47,-495.27 232.14,-498.14"/>
<polygon fill="midnightblue" stroke="midnightblue" points="348.33,-409.87 351.38,-399.72 342.67,-405.75 348.33,-409.87"/>
</g>
<!-- Node6 -->
<g id="node6" class="node">
<title>Node6</title>
<g id="a_node6"><a xlink:href="group__parts__3d__enclosure__clamps.html#ga8fd874789132e42e5470328d18560f1a" target="_top" xlink:title="A clamp, bushing, and/or grip for wire/hose wall penetrations.">
<polygon fill="white" stroke="black" points="164.5,-380.5 164.5,-399.5 227.5,-399.5 227.5,-380.5 164.5,-380.5"/>
<text text-anchor="middle" x="196" y="-387.5" font-family="Helvetica,sans-Serif" font-size="10.00">clamp_cg</text>
</a>
</g>
</g>
<!-- Node5&#45;&gt;Node6 -->
<g id="edge6" class="edge">
<title>Node5&#45;&gt;Node6</title>
<path fill="none" stroke="midnightblue" d="M292.07,-390C269.85,-390 246.11,-390 227.9,-390"/>
<polygon fill="midnightblue" stroke="midnightblue" points="292.14,-393.5 302.14,-390 292.14,-386.5 292.14,-393.5"/>
</g>
<!-- Node8 -->
<g id="node8" class="node">
<title>Node8</title>
<g id="a_node8"><a xlink:href="group__parts__3d__bearing__bearing__linear__rod.html#ga48399d5e708b4894494c69b2d1e88e26" target="_top" xlink:title="Transform 2d or 3d shape into a linear rod ball or sled bearing.">
<polygon fill="white" stroke="black" points="126,-342.5 126,-361.5 266,-361.5 266,-342.5 126,-342.5"/>
<text text-anchor="middle" x="196" y="-349.5" font-family="Helvetica,sans-Serif" font-size="10.00">make_bearing_linear_rod</text>
</a>
</g>
</g>
<!-- Node5&#45;&gt;Node8 -->
<g id="edge8" class="edge">
<title>Node5&#45;&gt;Node8</title>
<path fill="none" stroke="midnightblue" d="M307.6,-378.1C284.97,-372.76 258.63,-366.55 237.33,-361.52"/>
<polygon fill="midnightblue" stroke="midnightblue" points="306.84,-381.52 317.37,-380.41 308.44,-374.71 306.84,-381.52"/>
</g>
<!-- Node9 -->
<g id="node9" class="node">
<title>Node9</title>
<g id="a_node9"><a xlink:href="group__models__3d__misc__omdl__logo.html#gab176f64dad7e83d4fb056be44b71f630" target="_top" xlink:title="Standard omdl logo.">
<polygon fill="white" stroke="black" points="162,-418.5 162,-437.5 230,-437.5 230,-418.5 162,-418.5"/>
<text text-anchor="middle" x="196" y="-425.5" font-family="Helvetica,sans-Serif" font-size="10.00">omdl_logo</text>
</a>
</g>
</g>
<!-- Node5&#45;&gt;Node9 -->
<g id="edge9" class="edge">
<title>Node5&#45;&gt;Node9</title>
<path fill="none" stroke="midnightblue" d="M307.57,-401.9C282.28,-407.87 252.36,-414.93 230.03,-420.2"/>
<polygon fill="midnightblue" stroke="midnightblue" points="308.44,-405.29 317.37,-399.59 306.84,-398.48 308.44,-405.29"/>
</g>
<!-- Node5&#45;&gt;Node10 -->
<g id="edge11" class="edge">
<title>Node5&#45;&gt;Node10</title>
<path fill="none" stroke="midnightblue" d="M321.09,-403.71C314.53,-406.73 307.91,-410.18 302,-414 283.77,-425.78 284.99,-436.49 266,-447 255.67,-452.71 243.51,-456.8 232.29,-459.69"/>
<polygon fill="midnightblue" stroke="midnightblue" points="322.79,-406.79 330.57,-399.6 320.01,-400.36 322.79,-406.79"/>
</g>
<!-- Node5&#45;&gt;Node11 -->
<g id="edge12" class="edge">
<title>Node5&#45;&gt;Node11</title>
<path fill="none" stroke="midnightblue" d="M321.09,-376.29C314.53,-373.27 307.91,-369.82 302,-366 283.77,-354.22 284.99,-343.51 266,-333 259.04,-329.15 251.25,-326.04 243.48,-323.54"/>
<polygon fill="midnightblue" stroke="midnightblue" points="320.01,-379.64 330.57,-380.4 322.79,-373.21 320.01,-379.64"/>
</g>
<!-- Node6&#45;&gt;Node7 -->
<g id="edge7" class="edge">
<title>Node6&#45;&gt;Node7</title>
<path fill="none" stroke="midnightblue" d="M154.68,-379.72C132.46,-374.05 105.07,-367.06 83.34,-361.52"/>
<polygon fill="midnightblue" stroke="midnightblue" points="153.93,-383.14 164.49,-382.22 155.66,-376.36 153.93,-383.14"/>
</g>
<!-- Node9&#45;&gt;Node7 -->
<g id="edge10" class="edge">
<title>Node9&#45;&gt;Node7</title>
<path fill="none" stroke="midnightblue" d="M152.06,-418.69C143.24,-416.08 134.15,-412.88 126,-409 99.05,-396.18 71.56,-374.25 56.86,-361.66"/>
<polygon fill="midnightblue" stroke="midnightblue" points="151.29,-422.11 161.86,-421.38 153.14,-415.35 151.29,-422.11"/>
</g>
<!-- Node11&#45;&gt;Node7 -->
<g id="edge13" class="edge">
<title>Node11&#45;&gt;Node7</title>
<path fill="none" stroke="midnightblue" d="M147.51,-326.11C126.76,-331.4 102.77,-337.52 83.33,-342.48"/>
<polygon fill="midnightblue" stroke="midnightblue" points="148.58,-329.45 157.4,-323.59 146.85,-322.67 148.58,-329.45"/>
</g>
<!-- Node12&#45;&gt;Node5 -->
<g id="edge15" class="edge">
<title>Node12&#45;&gt;Node5</title>
<path fill="none" stroke="midnightblue" d="M478.21,-328.26C448.99,-343.52 403.45,-367.3 378.28,-380.45"/>
<polygon fill="midnightblue" stroke="midnightblue" points="479.83,-331.36 487.07,-323.63 476.59,-325.15 479.83,-331.36"/>
</g>
<!-- Node12&#45;&gt;Node7 -->
<g id="edge16" class="edge">
<title>Node12&#45;&gt;Node7</title>
<path fill="none" stroke="midnightblue" d="M461.39,-301.96C389.27,-284.41 242.48,-257.75 126,-295 96.76,-304.35 69.09,-328.73 55.24,-342.38"/>
<polygon fill="midnightblue" stroke="midnightblue" points="460.93,-305.45 471.48,-304.47 462.62,-298.66 460.93,-305.45"/>
</g>
<!-- Node12&#45;&gt;Node11 -->
<g id="edge17" class="edge">
<title>Node12&#45;&gt;Node11</title>
<path fill="none" stroke="midnightblue" d="M441.67,-314C387.97,-314 311.66,-314 258.6,-314"/>
<polygon fill="midnightblue" stroke="midnightblue" points="441.76,-317.5 451.76,-314 441.76,-310.5 441.76,-317.5"/>
</g>
<!-- Node12&#45;&gt;Node13 -->
<g id="edge18" class="edge">
<title>Node12&#45;&gt;Node13</title>
<path fill="none" stroke="midnightblue" d="M471.45,-300.2C464.85,-297.12 458.1,-293.67 452,-290 434.63,-279.55 433.46,-272.3 416,-262 406.62,-256.46 395.72,-251.5 386.04,-247.54"/>
<polygon fill="midnightblue" stroke="midnightblue" points="470.35,-303.54 480.91,-304.43 473.21,-297.16 470.35,-303.54"/>
</g>
<!-- Node13&#45;&gt;Node7 -->
<g id="edge19" class="edge">
<title>Node13&#45;&gt;Node7</title>
<path fill="none" stroke="midnightblue" d="M296.95,-232.6C248.08,-230.94 179.16,-234.76 126,-262 89.72,-280.59 62.29,-323.08 51.28,-342.27"/>
<polygon fill="midnightblue" stroke="midnightblue" points="296.93,-236.1 307.07,-233.03 297.22,-229.11 296.93,-236.1"/>
</g>
<!-- Node15 -->
<g id="node15" class="node">
<title>Node15</title>
<g id="a_node15"><a xlink:href="group__common__validation.html#ga3afe594ef417bc40429be81e044d29bc" target="_top" xlink:title="Test data structure db and output the start of test to the test log.">
<polygon fill="white" stroke="black" points="303.5,-190.5 303.5,-209.5 414.5,-209.5 414.5,-190.5 303.5,-190.5"/>
<text text-anchor="middle" x="359" y="-197.5" font-family="Helvetica,sans-Serif" font-size="10.00">map_validate_start</text>
</a>
</g>
</g>
<!-- Node14&#45;&gt;Node15 -->
<g id="edge21" class="edge">
<title>Node14&#45;&gt;Node15</title>
<path fill="none" stroke="midnightblue" d="M460.49,-226.24C439.91,-220.87 415.84,-214.58 396.42,-209.51"/>
<polygon fill="midnightblue" stroke="midnightblue" points="459.72,-229.66 470.28,-228.8 461.49,-222.89 459.72,-229.66"/>
</g>
<!-- Node20 -->
<g id="node20" class="node">
<title>Node20</title>
<g id="a_node20"><a xlink:href="group__datatypes__table.html#ga7a45ee72b36421f4e73cfba4488f14be" target="_top" xlink:title="Dump table getter functions to the console.">
<polygon fill="white" stroke="black" points="302,-95.5 302,-114.5 416,-114.5 416,-95.5 302,-95.5"/>
<text text-anchor="middle" x="359" y="-102.5" font-family="Helvetica,sans-Serif" font-size="10.00">table_dump_getters</text>
</a>
</g>
</g>
<!-- Node19&#45;&gt;Node20 -->
<g id="edge30" class="edge">
<title>Node19&#45;&gt;Node20</title>
<path fill="none" stroke="midnightblue" d="M458.74,-92.11C445.22,-93.87 430.31,-95.82 416.26,-97.65"/>
<polygon fill="midnightblue" stroke="midnightblue" points="459.32,-95.56 468.78,-90.79 458.42,-88.62 459.32,-95.56"/>
</g>
<!-- Node21 -->
<g id="node21" class="node">
<title>Node21</title>
<g id="a_node21"><a xlink:href="group__common__validation.html#ga19d0234700fba9de9fb0cba52a3d8e17" target="_top" xlink:title="Test data structure db and output the start of test to the test log.">
<polygon fill="white" stroke="black" points="302,-57.5 302,-76.5 416,-76.5 416,-57.5 302,-57.5"/>
<text text-anchor="middle" x="359" y="-64.5" font-family="Helvetica,sans-Serif" font-size="10.00">table_validate_start</text>
</a>
</g>
</g>
<!-- Node19&#45;&gt;Node21 -->
<g id="edge31" class="edge">
<title>Node19&#45;&gt;Node21</title>
<path fill="none" stroke="midnightblue" d="M458.74,-79.89C445.22,-78.13 430.31,-76.18 416.26,-74.35"/>
<polygon fill="midnightblue" stroke="midnightblue" points="458.42,-83.38 468.78,-81.21 459.32,-76.44 458.42,-83.38"/>
</g>
</g>
</svg>
