<?xml version="1.0" encoding="UTF-8" standalone="no"?>
<!DOCTYPE svg PUBLIC "-//W3C//DTD SVG 1.1//EN"
 "http://www.w3.org/Graphics/SVG/1.1/DTD/svg11.dtd">
<!-- Generated by graphviz version 2.43.0 (0)
 -->
<!-- Title: Triangles Pages: 1 -->
<svg width="209pt" height="35pt"
 viewBox="0.00 0.00 209.00 35.05" xmlns="http://www.w3.org/2000/svg" xmlns:xlink="http://www.w3.org/1999/xlink">
<g id="graph0" class="graph" transform="scale(1 1) rotate(0) translate(4 31.05)">
<title>Triangles</title>
<polygon fill="white" stroke="transparent" points="-4,4 -4,-31.05 205,-31.05 205,4 -4,4"/>
<!-- Node2 -->
<g id="node1" class="node">
<title>Node2</title>
<g id="a_node1"><a xlink:href="group__math.html" target="_top" xlink:title="Mathematical functions and operations.">
<polygon fill="white" stroke="black" points="41,-27.05 0,-27.05 0,-8.05 41,-8.05 41,-27.05"/>
<text text-anchor="middle" x="20.5" y="-15.05" font-family="Helvetica,sans-Serif" font-size="10.00">Math</text>
</a>
</g>
</g>
<!-- Node1 -->
<g id="node2" class="node">
<title>Node1</title>
<g id="a_node2"><a xlink:title="Triangle mathematical functions.">
<polygon fill="#bfbfbf" stroke="black" points="201,-27.05 141,-27.05 141,-8.05 201,-8.05 201,-27.05"/>
<text text-anchor="middle" x="171" y="-15.05" font-family="Helvetica,sans-Serif" font-size="10.00">Triangles</text>
</a>
</g>
</g>
<!-- Node2&#45;&gt;Node1 -->
<g id="edge1" class="edge">
<title>Node2&#45;&gt;Node1</title>
<path fill="none" stroke="black" d="M51.26,-17.55C77.28,-17.55 114.85,-17.55 140.73,-17.55"/>
<polygon fill="black" stroke="black" points="51.22,-14.05 41.22,-17.55 51.22,-21.05 51.22,-14.05"/>
</g>
<!-- Node1&#45;&gt;Node2 -->
<g id="edge2" class="edge">
<title>Node1&#45;&gt;Node2</title>
<path fill="none" stroke="darkgreen" stroke-dasharray="5,2" d="M142.96,-8.05C136.5,-6.18 129.57,-4.51 123,-3.55 94.85,0.55 86.99,1.5 59,-3.55 53.12,-4.62 46.96,-6.54 41.37,-8.64"/>
<text text-anchor="middle" x="91" y="-6.55" font-family="Helvetica,sans-Serif" font-size="10.00">triangle.scad</text>
</g>
</g>
</svg>
