<?xml version="1.0" encoding="UTF-8" standalone="no"?>
<!DOCTYPE svg PUBLIC "-//W3C//DTD SVG 1.1//EN"
 "http://www.w3.org/Graphics/SVG/1.1/DTD/svg11.dtd">
<!-- Generated by graphviz version 2.43.0 (0)
 -->
<!-- Title: extrude_rotate_tr Pages: 1 -->
<svg width="554pt" height="218pt"
 viewBox="0.00 0.00 554.00 218.00" xmlns="http://www.w3.org/2000/svg" xmlns:xlink="http://www.w3.org/1999/xlink">
<g id="graph0" class="graph" transform="scale(1 1) rotate(0) translate(4 214)">
<title>extrude_rotate_tr</title>
<polygon fill="white" stroke="transparent" points="-4,4 -4,-214 550,-214 550,4 -4,4"/>
<!-- Node1 -->
<g id="node1" class="node">
<title>Node1</title>
<g id="a_node1"><a xlink:title="Translate, rotate, and revolve a 2d shape about the z&#45;axis.">
<polygon fill="#bfbfbf" stroke="black" points="445,-95.5 445,-114.5 546,-114.5 546,-95.5 445,-95.5"/>
<text text-anchor="middle" x="495.5" y="-102.5" font-family="Helvetica,sans-Serif" font-size="10.00">extrude_rotate_tr</text>
</a>
</g>
</g>
<!-- Node2 -->
<g id="node2" class="node">
<title>Node2</title>
<g id="a_node2"><a xlink:href="group__parts__3d__fastener__catch__latch.html#gaa90b197081dba0e1fbe7c92aa4079279" target="_top" xlink:title="A catch latch generator.">
<polygon fill="white" stroke="black" points="319.5,-133.5 319.5,-152.5 391.5,-152.5 391.5,-133.5 319.5,-133.5"/>
<text text-anchor="middle" x="355.5" y="-140.5" font-family="Helvetica,sans-Serif" font-size="10.00">catch_latch</text>
</a>
</g>
</g>
<!-- Node1&#45;&gt;Node2 -->
<g id="edge1" class="edge">
<title>Node1&#45;&gt;Node2</title>
<path fill="none" stroke="midnightblue" d="M450.03,-117.25C431.01,-122.48 409.12,-128.51 391.31,-133.41"/>
<polygon fill="midnightblue" stroke="midnightblue" points="450.96,-120.62 459.68,-114.59 449.11,-113.87 450.96,-120.62"/>
</g>
<!-- Node3 -->
<g id="node3" class="node">
<title>Node3</title>
<g id="a_node3"><a xlink:href="group__tools__extrude.html#ga78405b5fa18461a302a2f24646499ece" target="_top" xlink:title="Translate, rotate, and revolve a 2d shape about the z&#45;axis with linear elongation.">
<polygon fill="white" stroke="black" points="303.5,-95.5 303.5,-114.5 407.5,-114.5 407.5,-95.5 303.5,-95.5"/>
<text text-anchor="middle" x="355.5" y="-102.5" font-family="Helvetica,sans-Serif" font-size="10.00">extrude_rotate_trl</text>
</a>
</g>
</g>
<!-- Node1&#45;&gt;Node3 -->
<g id="edge2" class="edge">
<title>Node1&#45;&gt;Node3</title>
<path fill="none" stroke="midnightblue" d="M434.64,-105C425.64,-105 416.43,-105 407.64,-105"/>
<polygon fill="midnightblue" stroke="midnightblue" points="434.68,-108.5 444.68,-105 434.68,-101.5 434.68,-108.5"/>
</g>
<!-- Node9 -->
<g id="node9" class="node">
<title>Node9</title>
<g id="a_node9"><a xlink:href="group__tools__extrude.html#ga2cbff19d3b793918b99aae3b56d37dfa" target="_top" xlink:title="Translate, rotate, scale, and revolve a 2d shape about the z&#45;axis.">
<polygon fill="white" stroke="black" points="302,-38.5 302,-57.5 409,-57.5 409,-38.5 302,-38.5"/>
<text text-anchor="middle" x="355.5" y="-45.5" font-family="Helvetica,sans-Serif" font-size="10.00">extrude_rotate_trs</text>
</a>
</g>
</g>
<!-- Node1&#45;&gt;Node9 -->
<g id="edge9" class="edge">
<title>Node1&#45;&gt;Node9</title>
<path fill="none" stroke="midnightblue" d="M461.87,-91.52C436.59,-81.08 402.19,-66.87 379.67,-57.57"/>
<polygon fill="midnightblue" stroke="midnightblue" points="460.82,-94.88 471.4,-95.46 463.5,-88.41 460.82,-94.88"/>
</g>
<!-- Node4 -->
<g id="node4" class="node">
<title>Node4</title>
<g id="a_node4"><a xlink:href="group__parts__3d__enclosure__clamps.html#ga8fd874789132e42e5470328d18560f1a" target="_top" xlink:title="A clamp, bushing, and/or grip for wire/hose wall penetrations.">
<polygon fill="white" stroke="black" points="164.5,-190.5 164.5,-209.5 227.5,-209.5 227.5,-190.5 164.5,-190.5"/>
<text text-anchor="middle" x="196" y="-197.5" font-family="Helvetica,sans-Serif" font-size="10.00">clamp_cg</text>
</a>
</g>
</g>
<!-- Node3&#45;&gt;Node4 -->
<g id="edge3" class="edge">
<title>Node3&#45;&gt;Node4</title>
<path fill="none" stroke="midnightblue" d="M309.77,-118.91C307.04,-120.45 304.42,-122.14 302,-124 279.73,-141.15 288.38,-158.99 266,-176 254.79,-184.52 240.33,-190.16 227.55,-193.82"/>
<polygon fill="midnightblue" stroke="midnightblue" points="311.31,-122.05 318.77,-114.53 308.25,-115.76 311.31,-122.05"/>
</g>
<!-- Node5 -->
<g id="node5" class="node">
<title>Node5</title>
<g id="a_node5"><a xlink:href="group__parts__3d__enclosure__power__strip.html#ga191779dedf39e4fd769a8dc96b0f8c9e" target="_top" xlink:title="A power strip generator for single gang electrical receptacles.">
<polygon fill="white" stroke="black" points="0,-171.5 0,-190.5 90,-190.5 90,-171.5 0,-171.5"/>
<text text-anchor="middle" x="45" y="-178.5" font-family="Helvetica,sans-Serif" font-size="10.00">power_strip_sg</text>
</a>
</g>
</g>
<!-- Node3&#45;&gt;Node5 -->
<g id="edge5" class="edge">
<title>Node3&#45;&gt;Node5</title>
<path fill="none" stroke="midnightblue" d="M316.14,-118.18C311.34,-120.04 306.53,-122 302,-124 285.45,-131.32 283.13,-137.17 266,-143 207.11,-163.06 135.59,-172.9 90.42,-177.46"/>
<polygon fill="midnightblue" stroke="midnightblue" points="317.74,-121.32 325.88,-114.55 315.29,-114.77 317.74,-121.32"/>
</g>
<!-- Node6 -->
<g id="node6" class="node">
<title>Node6</title>
<g id="a_node6"><a xlink:href="group__shapes__revolved.html#ga58a3e713a904c96b69ddd8f87f7f3bb1" target="_top" xlink:title="An elliptical cross&#45;sectional profile revolved about the z&#45;axis.">
<polygon fill="white" stroke="black" points="148.5,-114.5 148.5,-133.5 243.5,-133.5 243.5,-114.5 148.5,-114.5"/>
<text text-anchor="middle" x="196" y="-121.5" font-family="Helvetica,sans-Serif" font-size="10.00">torus_ellipse_cs</text>
</a>
</g>
</g>
<!-- Node3&#45;&gt;Node6 -->
<g id="edge6" class="edge">
<title>Node3&#45;&gt;Node6</title>
<path fill="none" stroke="midnightblue" d="M293.26,-112.39C276.76,-114.38 259.18,-116.5 243.62,-118.38"/>
<polygon fill="midnightblue" stroke="midnightblue" points="293.86,-115.84 303.36,-111.17 293.02,-108.89 293.86,-115.84"/>
</g>
<!-- Node7 -->
<g id="node7" class="node">
<title>Node7</title>
<g id="a_node7"><a xlink:href="group__shapes__revolved.html#ga69b374bbebd7d87cfcd06b6bd3278404" target="_top" xlink:title="A trapezoidal cross&#45;sectional profile revolved about the z&#45;axis.">
<polygon fill="white" stroke="black" points="141,-76.5 141,-95.5 251,-95.5 251,-76.5 141,-76.5"/>
<text text-anchor="middle" x="196" y="-83.5" font-family="Helvetica,sans-Serif" font-size="10.00">torus_pg_trapezoid</text>
</a>
</g>
</g>
<!-- Node3&#45;&gt;Node7 -->
<g id="edge7" class="edge">
<title>Node3&#45;&gt;Node7</title>
<path fill="none" stroke="midnightblue" d="M293.38,-97.63C279.45,-95.95 264.75,-94.17 251.13,-92.53"/>
<polygon fill="midnightblue" stroke="midnightblue" points="293.02,-101.11 303.36,-98.83 293.86,-94.16 293.02,-101.11"/>
</g>
<!-- Node8 -->
<g id="node8" class="node">
<title>Node8</title>
<g id="a_node8"><a xlink:href="group__shapes__revolved.html#gad587c003585db775fd441468954b7c43" target="_top" xlink:title="A rectangular cross&#45;sectional profile revolved about the z&#45;axis.">
<polygon fill="white" stroke="black" points="144.5,-38.5 144.5,-57.5 247.5,-57.5 247.5,-38.5 144.5,-38.5"/>
<text text-anchor="middle" x="196" y="-45.5" font-family="Helvetica,sans-Serif" font-size="10.00">torus_rectangle_c</text>
</a>
</g>
</g>
<!-- Node3&#45;&gt;Node8 -->
<g id="edge8" class="edge">
<title>Node3&#45;&gt;Node8</title>
<path fill="none" stroke="midnightblue" d="M325.02,-91.14C308,-83.44 286.05,-74.03 266,-67 256.15,-63.55 245.34,-60.32 235.25,-57.53"/>
<polygon fill="midnightblue" stroke="midnightblue" points="323.88,-94.46 334.42,-95.44 326.79,-88.1 323.88,-94.46"/>
</g>
<!-- Node4&#45;&gt;Node5 -->
<g id="edge4" class="edge">
<title>Node4&#45;&gt;Node5</title>
<path fill="none" stroke="midnightblue" d="M154.47,-194.83C134.52,-192.29 110.44,-189.22 90.03,-186.62"/>
<polygon fill="midnightblue" stroke="midnightblue" points="154.13,-198.32 164.49,-196.11 155.01,-191.37 154.13,-198.32"/>
</g>
<!-- Node10 -->
<g id="node10" class="node">
<title>Node10</title>
<g id="a_node10"><a xlink:href="group__parts__3d__bearing__bearing__linear__rod.html#ga48399d5e708b4894494c69b2d1e88e26" target="_top" xlink:title="Transform 2d or 3d shape into a linear rod ball or sled bearing.">
<polygon fill="white" stroke="black" points="126,-0.5 126,-19.5 266,-19.5 266,-0.5 126,-0.5"/>
<text text-anchor="middle" x="196" y="-7.5" font-family="Helvetica,sans-Serif" font-size="10.00">make_bearing_linear_rod</text>
</a>
</g>
</g>
<!-- Node9&#45;&gt;Node10 -->
<g id="edge10" class="edge">
<title>Node9&#45;&gt;Node10</title>
<path fill="none" stroke="midnightblue" d="M304.9,-36.03C282.82,-30.71 257.2,-24.52 236.46,-19.52"/>
<polygon fill="midnightblue" stroke="midnightblue" points="304.21,-39.47 314.76,-38.41 305.86,-32.66 304.21,-39.47"/>
</g>
</g>
</svg>
