<?xml version="1.0" encoding="UTF-8" standalone="no"?>
<!DOCTYPE svg PUBLIC "-//W3C//DTD SVG 1.1//EN"
 "http://www.w3.org/Graphics/SVG/1.1/DTD/svg11.dtd">
<!-- Generated by graphviz version 2.43.0 (0)
 -->
<!-- Title: catch_latch Pages: 1 -->
<svg width="520pt" height="653pt"
 viewBox="0.00 0.00 520.00 652.89" xmlns="http://www.w3.org/2000/svg" xmlns:xlink="http://www.w3.org/1999/xlink">
<g id="graph0" class="graph" transform="scale(1 1) rotate(0) translate(4 648.89)">
<title>catch_latch</title>
<polygon fill="white" stroke="transparent" points="-4,4 -4,-648.89 516,-648.89 516,4 -4,4"/>
<!-- Node1 -->
<g id="node1" class="node">
<title>Node1</title>
<g id="a_node1"><a xlink:title="A catch latch generator.">
<polygon fill="#bfbfbf" stroke="black" points="0,-285.5 0,-304.5 72,-304.5 72,-285.5 0,-285.5"/>
<text text-anchor="middle" x="36" y="-292.5" font-family="Helvetica,sans-Serif" font-size="10.00">catch_latch</text>
</a>
</g>
</g>
<!-- Node2 -->
<g id="node2" class="node">
<title>Node2</title>
<g id="a_node2"><a xlink:href="group__datatypes__iterable__operate.html#ga3d37c2b0067d1661724bd89955c8f6ce" target="_top" xlink:title="Return an element of an iterable when it exists or a default value otherwise.">
<polygon fill="white" stroke="black" points="433,-247.5 433,-266.5 512,-266.5 512,-247.5 433,-247.5"/>
<text text-anchor="middle" x="472.5" y="-254.5" font-family="Helvetica,sans-Serif" font-size="10.00">defined_e_or</text>
</a>
</g>
</g>
<!-- Node1&#45;&gt;Node2 -->
<g id="edge1" class="edge">
<title>Node1&#45;&gt;Node2</title>
<path fill="none" stroke="midnightblue" d="M50.06,-285.45C63.71,-276.09 86.17,-262.48 108,-257 217.83,-229.46 352.27,-240.52 422.87,-249.61"/>
<polygon fill="midnightblue" stroke="midnightblue" points="422.44,-253.08 432.81,-250.93 423.36,-246.14 422.44,-253.08"/>
</g>
<!-- Node3 -->
<g id="node3" class="node">
<title>Node3</title>
<g id="a_node3"><a xlink:href="group__datatypes__scalar__operate.html#gac119300e8c83de0037f2d0a4d9f0ab5c" target="_top" xlink:title="Return given value, if defined, or a secondary value, if primary is not defined.">
<polygon fill="white" stroke="black" points="130.5,-551.5 130.5,-570.5 198.5,-570.5 198.5,-551.5 130.5,-551.5"/>
<text text-anchor="middle" x="164.5" y="-558.5" font-family="Helvetica,sans-Serif" font-size="10.00">defined_or</text>
</a>
</g>
</g>
<!-- Node1&#45;&gt;Node3 -->
<g id="edge2" class="edge">
<title>Node1&#45;&gt;Node3</title>
<path fill="none" stroke="midnightblue" d="M36.8,-304.55C36.57,-340.77 40.65,-471.2 108,-542 111.64,-545.82 116.07,-548.88 120.84,-551.31"/>
<polygon fill="midnightblue" stroke="midnightblue" points="119.7,-554.64 130.28,-555.29 122.42,-548.18 119.7,-554.64"/>
</g>
<!-- Node4 -->
<g id="node4" class="node">
<title>Node4</title>
<g id="a_node4"><a xlink:href="group__tools__extrude.html#ga45661244067bf945b684550c3263ee45" target="_top" xlink:title="Linearly extrude a 2d shape with multi&#45;segment uniformly&#45;spaced profile scaling.">
<polygon fill="white" stroke="black" points="108,-513.5 108,-532.5 221,-532.5 221,-513.5 108,-513.5"/>
<text text-anchor="middle" x="164.5" y="-520.5" font-family="Helvetica,sans-Serif" font-size="10.00">extrude_linear_mss</text>
</a>
</g>
</g>
<!-- Node1&#45;&gt;Node4 -->
<g id="edge3" class="edge">
<title>Node1&#45;&gt;Node4</title>
<path fill="none" stroke="midnightblue" d="M38.8,-304.74C44.55,-333.84 64.71,-421.74 108,-480 116.12,-490.93 127.72,-500.51 138.22,-507.84"/>
<polygon fill="midnightblue" stroke="midnightblue" points="136.41,-510.83 146.68,-513.44 140.28,-505 136.41,-510.83"/>
</g>
<!-- Node6 -->
<g id="node6" class="node">
<title>Node6</title>
<g id="a_node6"><a xlink:href="group__datatypes__iterable__operate.html#gaccab3e37e43cb1d882713b3f3d6d9e1b" target="_top" xlink:title="Return the first element of an iterable value.">
<polygon fill="white" stroke="black" points="455,-608.5 455,-627.5 490,-627.5 490,-608.5 455,-608.5"/>
<text text-anchor="middle" x="472.5" y="-615.5" font-family="Helvetica,sans-Serif" font-size="10.00">first</text>
</a>
</g>
</g>
<!-- Node1&#45;&gt;Node6 -->
<g id="edge14" class="edge">
<title>Node1&#45;&gt;Node6</title>
<path fill="none" stroke="midnightblue" d="M38.14,-304.69C43.64,-349.72 68.7,-538.21 108,-580 197.33,-674.99 377.49,-641.96 445.08,-625.23"/>
<polygon fill="midnightblue" stroke="midnightblue" points="446.11,-628.58 454.93,-622.71 444.37,-621.8 446.11,-628.58"/>
</g>
<!-- Node8 -->
<g id="node8" class="node">
<title>Node8</title>
<g id="a_node8"><a xlink:href="group__datatypes__iterable__operate.html#ga894d4bec62cc9cf38d5e099de3028c54" target="_top" xlink:title="Return the second element of an iterable value.">
<polygon fill="white" stroke="black" points="447,-475.5 447,-494.5 498,-494.5 498,-475.5 447,-475.5"/>
<text text-anchor="middle" x="472.5" y="-482.5" font-family="Helvetica,sans-Serif" font-size="10.00">second</text>
</a>
</g>
</g>
<!-- Node1&#45;&gt;Node8 -->
<g id="edge26" class="edge">
<title>Node1&#45;&gt;Node8</title>
<path fill="none" stroke="midnightblue" d="M38.23,-304.52C42.32,-331.96 58.18,-411.51 108,-447 134.45,-465.84 351.04,-478.85 436.76,-483.3"/>
<polygon fill="midnightblue" stroke="midnightblue" points="436.61,-486.8 446.78,-483.82 436.97,-479.81 436.61,-486.8"/>
</g>
<!-- Node10 -->
<g id="node10" class="node">
<title>Node10</title>
<g id="a_node10"><a xlink:href="group__tools__extrude.html#ga31947e37a3512d9814d47f8f8c960f84" target="_top" xlink:title="Translate, rotate, and revolve a 2d shape about the z&#45;axis.">
<polygon fill="white" stroke="black" points="114,-418.5 114,-437.5 215,-437.5 215,-418.5 114,-418.5"/>
<text text-anchor="middle" x="164.5" y="-425.5" font-family="Helvetica,sans-Serif" font-size="10.00">extrude_rotate_tr</text>
</a>
</g>
</g>
<!-- Node1&#45;&gt;Node10 -->
<g id="edge12" class="edge">
<title>Node1&#45;&gt;Node10</title>
<path fill="none" stroke="midnightblue" d="M41.02,-304.81C50.04,-325.73 73.82,-375.17 108,-404 112.63,-407.9 117.98,-411.27 123.51,-414.13"/>
<polygon fill="midnightblue" stroke="midnightblue" points="122.32,-417.44 132.86,-418.5 125.28,-411.1 122.32,-417.44"/>
</g>
<!-- Node12 -->
<g id="node12" class="node">
<title>Node12</title>
<g id="a_node12"><a xlink:href="group__datatypes__iterable__operate.html#ga00726e9fc8df22b5fde111e335b266f8" target="_top" xlink:title="Return a list containing all but the last n elements of an iterable value.">
<polygon fill="white" stroke="black" points="141,-342.5 141,-361.5 188,-361.5 188,-342.5 141,-342.5"/>
<text text-anchor="middle" x="164.5" y="-349.5" font-family="Helvetica,sans-Serif" font-size="10.00">headn</text>
</a>
</g>
</g>
<!-- Node1&#45;&gt;Node12 -->
<g id="edge15" class="edge">
<title>Node1&#45;&gt;Node12</title>
<path fill="none" stroke="midnightblue" d="M52.99,-304.52C67.14,-312.71 88.52,-324.52 108,-333 115.34,-336.19 123.4,-339.22 131.05,-341.87"/>
<polygon fill="midnightblue" stroke="midnightblue" points="130.18,-345.27 140.77,-345.14 132.41,-338.64 130.18,-345.27"/>
</g>
<!-- Node13 -->
<g id="node13" class="node">
<title>Node13</title>
<g id="a_node13"><a xlink:href="group__datatypes__scalar__test.html#ga51d7fdb800c10f4b7479d23b89ab8d22" target="_top" xlink:title="Test if a value is defined.">
<polygon fill="white" stroke="black" points="131.5,-304.5 131.5,-323.5 197.5,-323.5 197.5,-304.5 131.5,-304.5"/>
<text text-anchor="middle" x="164.5" y="-311.5" font-family="Helvetica,sans-Serif" font-size="10.00">is_defined</text>
</a>
</g>
</g>
<!-- Node1&#45;&gt;Node13 -->
<g id="edge16" class="edge">
<title>Node1&#45;&gt;Node13</title>
<path fill="none" stroke="midnightblue" d="M72.24,-300.29C87.47,-302.58 105.42,-305.28 121.35,-307.67"/>
<polygon fill="midnightblue" stroke="midnightblue" points="121.07,-311.17 131.48,-309.19 122.11,-304.24 121.07,-311.17"/>
</g>
<!-- Node14 -->
<g id="node14" class="node">
<title>Node14</title>
<g id="a_node14"><a xlink:href="group__shapes__polygon.html#ga9c1bd914355d92f9d66ba0e5c2d9dbac" target="_top" xlink:title="A polygon rectangle with vertex rounding.">
<polygon fill="white" stroke="black" points="124.5,-152.5 124.5,-171.5 204.5,-171.5 204.5,-152.5 124.5,-152.5"/>
<text text-anchor="middle" x="164.5" y="-159.5" font-family="Helvetica,sans-Serif" font-size="10.00">pg_rectangle</text>
</a>
</g>
</g>
<!-- Node1&#45;&gt;Node14 -->
<g id="edge17" class="edge">
<title>Node1&#45;&gt;Node14</title>
<path fill="none" stroke="midnightblue" d="M40.47,-285.19C48.7,-263.28 71.5,-210.02 108,-181 110.28,-179.19 112.74,-177.54 115.32,-176.05"/>
<polygon fill="midnightblue" stroke="midnightblue" points="117.01,-179.12 124.42,-171.55 113.9,-172.85 117.01,-179.12"/>
</g>
<!-- Node15 -->
<g id="node15" class="node">
<title>Node15</title>
<g id="a_node15"><a xlink:href="group__math__polygon.html#ga7a0eff64929a142fc507615f83e3bd58" target="_top" xlink:title="Compute coordinates that round all of the vertices between each adjacent edges in 2D.">
<polygon fill="white" stroke="black" points="257,-114.5 257,-133.5 397,-133.5 397,-114.5 257,-114.5"/>
<text text-anchor="middle" x="327" y="-121.5" font-family="Helvetica,sans-Serif" font-size="10.00">polygon_round_eve_all_p</text>
</a>
</g>
</g>
<!-- Node1&#45;&gt;Node15 -->
<g id="edge21" class="edge">
<title>Node1&#45;&gt;Node15</title>
<path fill="none" stroke="midnightblue" d="M38.2,-285.44C42.21,-257.88 57.88,-178.06 108,-143 152.08,-112.16 214.1,-109.63 260.72,-113.52"/>
<polygon fill="midnightblue" stroke="midnightblue" points="260.44,-117.01 270.73,-114.47 261.1,-110.04 260.44,-117.01"/>
</g>
<!-- Node17 -->
<g id="node17" class="node">
<title>Node17</title>
<g id="a_node17"><a xlink:href="group__datatypes__iterable__operate.html#gafb1f112a3ab162d589c49d1b2de21b9e" target="_top" xlink:title="Reverse the elements of an iterable value.">
<polygon fill="white" stroke="black" points="138,-190.5 138,-209.5 191,-209.5 191,-190.5 138,-190.5"/>
<text text-anchor="middle" x="164.5" y="-197.5" font-family="Helvetica,sans-Serif" font-size="10.00">reverse</text>
</a>
</g>
</g>
<!-- Node1&#45;&gt;Node17 -->
<g id="edge22" class="edge">
<title>Node1&#45;&gt;Node17</title>
<path fill="none" stroke="midnightblue" d="M44.79,-285.1C56.94,-270.19 81.76,-241.83 108,-224 114.27,-219.74 121.41,-215.98 128.45,-212.76"/>
<polygon fill="midnightblue" stroke="midnightblue" points="130.05,-215.88 137.87,-208.73 127.3,-209.45 130.05,-215.88"/>
</g>
<!-- Node18 -->
<g id="node18" class="node">
<title>Node18</title>
<g id="a_node18"><a xlink:href="group__models__3d__fastener__screws.html#ga316ccd977e13f1f12ecb057a6466374b" target="_top" xlink:title="Flat and beveled&#45;head screw bore with nut, nut slot, and bore tolerance.">
<polygon fill="white" stroke="black" points="128.5,-266.5 128.5,-285.5 200.5,-285.5 200.5,-266.5 128.5,-266.5"/>
<text text-anchor="middle" x="164.5" y="-273.5" font-family="Helvetica,sans-Serif" font-size="10.00">screw_bore</text>
</a>
</g>
</g>
<!-- Node1&#45;&gt;Node18 -->
<g id="edge23" class="edge">
<title>Node1&#45;&gt;Node18</title>
<path fill="none" stroke="midnightblue" d="M72.24,-289.71C86.49,-287.57 103.13,-285.07 118.26,-282.79"/>
<polygon fill="midnightblue" stroke="midnightblue" points="119.08,-286.21 128.45,-281.26 118.04,-279.29 119.08,-286.21"/>
</g>
<!-- Node19 -->
<g id="node19" class="node">
<title>Node19</title>
<g id="a_node19"><a xlink:href="group__datatypes__list__operate.html#ga7b8e6f2bbfa72ae61e39377e5ca6b5be" target="_top" xlink:title="Select specified element from list or return a default.">
<polygon fill="white" stroke="black" points="297.5,-342.5 297.5,-361.5 356.5,-361.5 356.5,-342.5 297.5,-342.5"/>
<text text-anchor="middle" x="327" y="-349.5" font-family="Helvetica,sans-Serif" font-size="10.00">select_ci</text>
</a>
</g>
</g>
<!-- Node1&#45;&gt;Node19 -->
<g id="edge27" class="edge">
<title>Node1&#45;&gt;Node19</title>
<path fill="none" stroke="midnightblue" d="M42.29,-304.55C52.41,-321.72 76.37,-357.26 108,-371 168.45,-397.25 247.09,-379.2 291.5,-364.83"/>
<polygon fill="midnightblue" stroke="midnightblue" points="292.86,-368.07 301.23,-361.56 290.63,-361.43 292.86,-368.07"/>
</g>
<!-- Node20 -->
<g id="node20" class="node">
<title>Node20</title>
<g id="a_node20"><a xlink:href="group__datatypes__list__operate.html#gab842ea235bf5fc40a14512083b49c8d2" target="_top" xlink:title="Convert a list of values to a concatenated string.">
<polygon fill="white" stroke="black" points="148.5,-76.5 148.5,-95.5 180.5,-95.5 180.5,-76.5 148.5,-76.5"/>
<text text-anchor="middle" x="164.5" y="-83.5" font-family="Helvetica,sans-Serif" font-size="10.00">strl</text>
</a>
</g>
</g>
<!-- Node1&#45;&gt;Node20 -->
<g id="edge28" class="edge">
<title>Node1&#45;&gt;Node20</title>
<path fill="none" stroke="midnightblue" d="M38.1,-285.15C41.95,-254.96 57.52,-162.64 108,-110 116.26,-101.39 128.13,-95.69 138.77,-92.02"/>
<polygon fill="midnightblue" stroke="midnightblue" points="139.88,-95.34 148.44,-89.09 137.85,-88.64 139.88,-95.34"/>
</g>
<!-- Node21 -->
<g id="node21" class="node">
<title>Node21</title>
<g id="a_node21"><a xlink:href="group__datatypes__iterable__operate.html#gafacf0ab6a646e99fcf55351ca693823f" target="_top" xlink:title="Return a list containing all but the first n elements of an iterable value.">
<polygon fill="white" stroke="black" points="145.5,-38.5 145.5,-57.5 183.5,-57.5 183.5,-38.5 145.5,-38.5"/>
<text text-anchor="middle" x="164.5" y="-45.5" font-family="Helvetica,sans-Serif" font-size="10.00">tailn</text>
</a>
</g>
</g>
<!-- Node1&#45;&gt;Node21 -->
<g id="edge29" class="edge">
<title>Node1&#45;&gt;Node21</title>
<path fill="none" stroke="midnightblue" d="M37.07,-285.23C37.88,-250.47 45.28,-131.5 108,-67 115.27,-59.52 125.61,-54.99 135.39,-52.24"/>
<polygon fill="midnightblue" stroke="midnightblue" points="136.28,-55.62 145.24,-49.97 134.71,-48.8 136.28,-55.62"/>
</g>
<!-- Node22 -->
<g id="node22" class="node">
<title>Node22</title>
<g id="a_node22"><a xlink:href="group__datatypes__iterable__operate.html#ga4a000b3543933067bb00c6950e9122b3" target="_top" xlink:title="Return the third element of an iterable value.">
<polygon fill="white" stroke="black" points="145,-0.5 145,-19.5 184,-19.5 184,-0.5 145,-0.5"/>
<text text-anchor="middle" x="164.5" y="-7.5" font-family="Helvetica,sans-Serif" font-size="10.00">third</text>
</a>
</g>
</g>
<!-- Node1&#45;&gt;Node22 -->
<g id="edge30" class="edge">
<title>Node1&#45;&gt;Node22</title>
<path fill="none" stroke="midnightblue" d="M36.56,-285.26C35.39,-247.07 36.25,-105.88 108,-29 115.07,-21.43 125.27,-16.88 135.01,-14.14"/>
<polygon fill="midnightblue" stroke="midnightblue" points="135.88,-17.53 144.84,-11.89 134.31,-10.71 135.88,-17.53"/>
</g>
<!-- Node5 -->
<g id="node5" class="node">
<title>Node5</title>
<g id="a_node5"><a xlink:href="group__tools__extrude.html#gab2442cfaf1ad44d6e295ab0979d9e03d" target="_top" xlink:title="Linearly extrude a 2d shape with uniformly&#45;spaced profile scaling.">
<polygon fill="white" stroke="black" points="272.5,-494.5 272.5,-513.5 381.5,-513.5 381.5,-494.5 272.5,-494.5"/>
<text text-anchor="middle" x="327" y="-501.5" font-family="Helvetica,sans-Serif" font-size="10.00">extrude_linear_uss</text>
</a>
</g>
</g>
<!-- Node4&#45;&gt;Node5 -->
<g id="edge4" class="edge">
<title>Node4&#45;&gt;Node5</title>
<path fill="none" stroke="midnightblue" d="M221.18,-516.41C234.39,-514.85 248.57,-513.17 262.11,-511.56"/>
<polygon fill="midnightblue" stroke="midnightblue" points="262.79,-515.01 272.31,-510.36 261.97,-508.06 262.79,-515.01"/>
</g>
<!-- Node4&#45;&gt;Node6 -->
<g id="edge9" class="edge">
<title>Node4&#45;&gt;Node6</title>
<path fill="none" stroke="midnightblue" d="M204.56,-532.57C210.42,-535.05 216.13,-538.15 221,-542 244.51,-560.58 231.42,-583.39 257,-599 316.13,-635.09 402.04,-628.89 444.98,-622.71"/>
<polygon fill="midnightblue" stroke="midnightblue" points="445.59,-626.16 454.93,-621.17 444.52,-619.24 445.59,-626.16"/>
</g>
<!-- Node7 -->
<g id="node7" class="node">
<title>Node7</title>
<g id="a_node7"><a xlink:href="group__datatypes__scalar__test.html#ga258e8911375d30ff85a6e52df01dc1c5" target="_top" xlink:title="Test if a value is a single non&#45;iterable value.">
<polygon fill="white" stroke="black" points="443,-532.5 443,-551.5 502,-551.5 502,-532.5 443,-532.5"/>
<text text-anchor="middle" x="472.5" y="-539.5" font-family="Helvetica,sans-Serif" font-size="10.00">is_scalar</text>
</a>
</g>
</g>
<!-- Node4&#45;&gt;Node7 -->
<g id="edge10" class="edge">
<title>Node4&#45;&gt;Node7</title>
<path fill="none" stroke="midnightblue" d="M221.27,-526.46C282.52,-530.27 379.27,-536.27 432.75,-539.59"/>
<polygon fill="midnightblue" stroke="midnightblue" points="432.65,-543.09 442.84,-540.22 433.08,-536.11 432.65,-543.09"/>
</g>
<!-- Node9 -->
<g id="node9" class="node">
<title>Node9</title>
<g id="a_node9"><a xlink:href="group__datatypes__list__operate.html#gae12565005038993506dc37249e32766d" target="_top" xlink:title="Compute the sum of a list of numbers.">
<polygon fill="white" stroke="black" points="308,-570.5 308,-589.5 346,-589.5 346,-570.5 308,-570.5"/>
<text text-anchor="middle" x="327" y="-577.5" font-family="Helvetica,sans-Serif" font-size="10.00">sum</text>
</a>
</g>
</g>
<!-- Node4&#45;&gt;Node9 -->
<g id="edge11" class="edge">
<title>Node4&#45;&gt;Node9</title>
<path fill="none" stroke="midnightblue" d="M194.1,-532.54C202.77,-535.5 212.3,-538.82 221,-542 237.12,-547.89 240.89,-550.07 257,-556 270.52,-560.98 285.64,-566.27 298.26,-570.61"/>
<polygon fill="midnightblue" stroke="midnightblue" points="297.18,-573.94 307.78,-573.86 299.45,-567.31 297.18,-573.94"/>
</g>
<!-- Node5&#45;&gt;Node2 -->
<g id="edge5" class="edge">
<title>Node5&#45;&gt;Node2</title>
<path fill="none" stroke="midnightblue" d="M343.68,-494.46C359.11,-484.36 382.41,-467.13 397,-447 436.94,-391.88 458.89,-312.48 467.36,-276.29"/>
<polygon fill="midnightblue" stroke="midnightblue" points="470.78,-277.04 469.56,-266.52 463.95,-275.51 470.78,-277.04"/>
</g>
<!-- Node5&#45;&gt;Node6 -->
<g id="edge6" class="edge">
<title>Node5&#45;&gt;Node6</title>
<path fill="none" stroke="midnightblue" d="M340.23,-513.72C364.91,-533.32 420.86,-577.77 451.14,-601.82"/>
<polygon fill="midnightblue" stroke="midnightblue" points="449.29,-604.83 459.3,-608.31 453.64,-599.34 449.29,-604.83"/>
</g>
<!-- Node5&#45;&gt;Node7 -->
<g id="edge7" class="edge">
<title>Node5&#45;&gt;Node7</title>
<path fill="none" stroke="midnightblue" d="M364.21,-513.59C385.28,-519.17 411.83,-526.2 433.24,-531.87"/>
<polygon fill="midnightblue" stroke="midnightblue" points="432.43,-535.27 442.99,-534.45 434.22,-528.51 432.43,-535.27"/>
</g>
<!-- Node5&#45;&gt;Node8 -->
<g id="edge8" class="edge">
<title>Node5&#45;&gt;Node8</title>
<path fill="none" stroke="midnightblue" d="M381.84,-496.87C400.11,-494.45 420.03,-491.81 436.45,-489.64"/>
<polygon fill="midnightblue" stroke="midnightblue" points="437.22,-493.07 446.67,-488.29 436.3,-486.13 437.22,-493.07"/>
</g>
<!-- Node11 -->
<g id="node11" class="node">
<title>Node11</title>
<g id="a_node11"><a xlink:href="group__units__angle.html#ga06a917b77748dfb74e765bcd7c4c0219" target="_top" xlink:title="Convert an angle from some units to another.">
<polygon fill="white" stroke="black" points="305,-418.5 305,-437.5 349,-437.5 349,-418.5 305,-418.5"/>
<text text-anchor="middle" x="327" y="-425.5" font-family="Helvetica,sans-Serif" font-size="10.00">angle</text>
</a>
</g>
</g>
<!-- Node10&#45;&gt;Node11 -->
<g id="edge13" class="edge">
<title>Node10&#45;&gt;Node11</title>
<path fill="none" stroke="midnightblue" d="M215.4,-428C241.3,-428 272.14,-428 294.67,-428"/>
<polygon fill="midnightblue" stroke="midnightblue" points="294.69,-431.5 304.69,-428 294.69,-424.5 294.69,-431.5"/>
</g>
<!-- Node14&#45;&gt;Node2 -->
<g id="edge18" class="edge">
<title>Node14&#45;&gt;Node2</title>
<path fill="none" stroke="midnightblue" d="M204.56,-170.51C251.04,-181.07 330.69,-200.59 397,-224 412.46,-229.46 429.18,-236.73 442.87,-243.07"/>
<polygon fill="midnightblue" stroke="midnightblue" points="441.69,-246.38 452.23,-247.47 444.67,-240.05 441.69,-246.38"/>
</g>
<!-- Node14&#45;&gt;Node15 -->
<g id="edge19" class="edge">
<title>Node14&#45;&gt;Node15</title>
<path fill="none" stroke="midnightblue" d="M204.76,-152.7C226.19,-147.63 252.94,-141.3 275.85,-135.87"/>
<polygon fill="midnightblue" stroke="midnightblue" points="276.82,-139.24 285.75,-133.53 275.21,-132.43 276.82,-139.24"/>
</g>
<!-- Node16 -->
<g id="node16" class="node">
<title>Node16</title>
<g id="a_node16"><a xlink:href="group__math__linear__algebra.html#gaeabe74699fd0a437bad9a1d442bfd111" target="_top" xlink:title="Translate all coordinates dimensions.">
<polygon fill="white" stroke="black" points="291.5,-152.5 291.5,-171.5 362.5,-171.5 362.5,-152.5 291.5,-152.5"/>
<text text-anchor="middle" x="327" y="-159.5" font-family="Helvetica,sans-Serif" font-size="10.00">translate_p</text>
</a>
</g>
</g>
<!-- Node14&#45;&gt;Node16 -->
<g id="edge20" class="edge">
<title>Node14&#45;&gt;Node16</title>
<path fill="none" stroke="midnightblue" d="M204.76,-162C227.8,-162 257,-162 280.97,-162"/>
<polygon fill="midnightblue" stroke="midnightblue" points="281.23,-165.5 291.23,-162 281.23,-158.5 281.23,-165.5"/>
</g>
<!-- Node18&#45;&gt;Node2 -->
<g id="edge24" class="edge">
<title>Node18&#45;&gt;Node2</title>
<path fill="none" stroke="midnightblue" d="M200.6,-273.82C255.21,-270.43 360.67,-263.88 422.67,-260.03"/>
<polygon fill="midnightblue" stroke="midnightblue" points="423.21,-263.51 432.98,-259.39 422.78,-256.52 423.21,-263.51"/>
</g>
<!-- Node18&#45;&gt;Node19 -->
<g id="edge25" class="edge">
<title>Node18&#45;&gt;Node19</title>
<path fill="none" stroke="midnightblue" d="M196.39,-285.55C204.5,-288.33 213.17,-291.56 221,-295 249.49,-307.51 280.65,-324.93 301.57,-337.21"/>
<polygon fill="midnightblue" stroke="midnightblue" points="300.02,-340.37 310.41,-342.46 303.59,-334.35 300.02,-340.37"/>
</g>
</g>
</svg>
