<?xml version="1.0" encoding="UTF-8" standalone="no"?>
<!DOCTYPE svg PUBLIC "-//W3C//DTD SVG 1.1//EN"
 "http://www.w3.org/Graphics/SVG/1.1/DTD/svg11.dtd">
<!-- Generated by graphviz version 2.43.0 (0)
 -->
<!-- Title: DIN 982 hp Pages: 1 -->
<svg width="331pt" height="29pt"
 viewBox="0.00 0.00 331.00 28.50" xmlns="http://www.w3.org/2000/svg" xmlns:xlink="http://www.w3.org/1999/xlink">
<g id="graph0" class="graph" transform="scale(1 1) rotate(0) translate(4 24.5)">
<title>DIN 982 hp</title>
<polygon fill="white" stroke="transparent" points="-4,4 -4,-24.5 327,-24.5 327,4 -4,4"/>
<!-- Node1 -->
<g id="node1" class="node">
<title>Node1</title>
<g id="a_node1"><a xlink:title="[metric/nuts] Hexagon nylon insert stop nuts, heavy pattern; DIN 982 hp; ISO 7040.">
<polygon fill="#bfbfbf" stroke="black" points="147,-19 76,-19 76,0 147,0 147,-19"/>
<text text-anchor="middle" x="111.5" y="-7" font-family="Helvetica,sans-Serif" font-size="10.00">DIN 982 hp</text>
</a>
</g>
</g>
<!-- Node3 -->
<g id="node3" class="node">
<title>Node3</title>
<g id="a_node3"><a xlink:href="group__database__component__fastener.html" target="_top" xlink:title="Mechanical fastener specifications.">
<polygon fill="white" stroke="black" points="323,-19 265,-19 265,0 323,0 323,-19"/>
<text text-anchor="middle" x="294" y="-7" font-family="Helvetica,sans-Serif" font-size="10.00">Fastener</text>
</a>
</g>
</g>
<!-- Node1&#45;&gt;Node3 -->
<g id="edge2" class="edge">
<title>Node1&#45;&gt;Node3</title>
<path fill="none" stroke="darkgreen" stroke-dasharray="5,2" d="M147.3,-9.5C181.52,-9.5 233.1,-9.5 264.82,-9.5"/>
<text text-anchor="middle" x="206" y="-12.5" font-family="Helvetica,sans-Serif" font-size="10.00">din_982_hp.scad</text>
</g>
<!-- Node2 -->
<g id="node2" class="node">
<title>Node2</title>
<g id="a_node2"><a xlink:href="group__database__component__fastener__Metric__Nuts.html" target="_top" xlink:title=" ">
<polygon fill="white" stroke="black" points="39,-19 0,-19 0,0 39,0 39,-19"/>
<text text-anchor="middle" x="19.5" y="-7" font-family="Helvetica,sans-Serif" font-size="10.00">Nuts</text>
</a>
</g>
</g>
<!-- Node2&#45;&gt;Node1 -->
<g id="edge1" class="edge">
<title>Node2&#45;&gt;Node1</title>
<path fill="none" stroke="black" d="M49.28,-9.5C57.74,-9.5 67.09,-9.5 75.87,-9.5"/>
<polygon fill="black" stroke="black" points="49.15,-6 39.15,-9.5 49.15,-13 49.15,-6"/>
</g>
</g>
</svg>
