<?xml version="1.0" encoding="UTF-8" standalone="no"?>
<!DOCTYPE svg PUBLIC "-//W3C//DTD SVG 1.1//EN"
 "http://www.w3.org/Graphics/SVG/1.1/DTD/svg11.dtd">
<!-- Generated by graphviz version 2.43.0 (0)
 -->
<!-- Title: pg_ngon Pages: 1 -->
<svg width="242pt" height="104pt"
 viewBox="0.00 0.00 242.00 104.00" xmlns="http://www.w3.org/2000/svg" xmlns:xlink="http://www.w3.org/1999/xlink">
<g id="graph0" class="graph" transform="scale(1 1) rotate(0) translate(4 100)">
<title>pg_ngon</title>
<polygon fill="white" stroke="transparent" points="-4,4 -4,-100 238,-100 238,4 -4,4"/>
<!-- Node1 -->
<g id="node1" class="node">
<title>Node1</title>
<g id="a_node1"><a xlink:title="A n&#45;sided regular polygon with vertex rounding.">
<polygon fill="#bfbfbf" stroke="black" points="0,-38.5 0,-57.5 58,-57.5 58,-38.5 0,-38.5"/>
<text text-anchor="middle" x="29" y="-45.5" font-family="Helvetica,sans-Serif" font-size="10.00">pg_ngon</text>
</a>
</g>
</g>
<!-- Node2 -->
<g id="node2" class="node">
<title>Node2</title>
<g id="a_node2"><a xlink:href="group__math__polygon.html#ga6aea22d31f8f086c44c7241eee3ab4c2" target="_top" xlink:title="Compute coordinates for an n&#45;sided regular polygon in 2D.">
<polygon fill="white" stroke="black" points="110.5,-76.5 110.5,-95.5 217.5,-95.5 217.5,-76.5 110.5,-76.5"/>
<text text-anchor="middle" x="164" y="-83.5" font-family="Helvetica,sans-Serif" font-size="10.00">polygon_regular_p</text>
</a>
</g>
</g>
<!-- Node1&#45;&gt;Node2 -->
<g id="edge1" class="edge">
<title>Node1&#45;&gt;Node2</title>
<path fill="none" stroke="midnightblue" d="M58,-56.44C69.19,-59.78 82.19,-63.62 94,-67 101.81,-69.24 110.14,-71.57 118.2,-73.8"/>
<polygon fill="midnightblue" stroke="midnightblue" points="117.29,-77.18 127.86,-76.47 119.15,-70.43 117.29,-77.18"/>
</g>
<!-- Node3 -->
<g id="node3" class="node">
<title>Node3</title>
<g id="a_node3"><a xlink:href="group__math__polygon.html#ga7a0eff64929a142fc507615f83e3bd58" target="_top" xlink:title="Compute coordinates that round all of the vertices between each adjacent edges in 2D.">
<polygon fill="white" stroke="black" points="94,-38.5 94,-57.5 234,-57.5 234,-38.5 94,-38.5"/>
<text text-anchor="middle" x="164" y="-45.5" font-family="Helvetica,sans-Serif" font-size="10.00">polygon_round_eve_all_p</text>
</a>
</g>
</g>
<!-- Node1&#45;&gt;Node3 -->
<g id="edge2" class="edge">
<title>Node1&#45;&gt;Node3</title>
<path fill="none" stroke="midnightblue" d="M58.21,-48C65.85,-48 74.52,-48 83.52,-48"/>
<polygon fill="midnightblue" stroke="midnightblue" points="83.79,-51.5 93.79,-48 83.79,-44.5 83.79,-51.5"/>
</g>
<!-- Node4 -->
<g id="node4" class="node">
<title>Node4</title>
<g id="a_node4"><a xlink:href="group__math__linear__algebra.html#gaeabe74699fd0a437bad9a1d442bfd111" target="_top" xlink:title="Translate all coordinates dimensions.">
<polygon fill="white" stroke="black" points="128.5,-0.5 128.5,-19.5 199.5,-19.5 199.5,-0.5 128.5,-0.5"/>
<text text-anchor="middle" x="164" y="-7.5" font-family="Helvetica,sans-Serif" font-size="10.00">translate_p</text>
</a>
</g>
</g>
<!-- Node1&#45;&gt;Node4 -->
<g id="edge3" class="edge">
<title>Node1&#45;&gt;Node4</title>
<path fill="none" stroke="midnightblue" d="M58,-39.56C69.19,-36.22 82.19,-32.38 94,-29 101.9,-26.74 110.32,-24.38 118.47,-22.12"/>
<polygon fill="midnightblue" stroke="midnightblue" points="119.51,-25.47 128.21,-19.43 117.64,-18.72 119.51,-25.47"/>
</g>
</g>
</svg>
