<?xml version="1.0" encoding="UTF-8" standalone="no"?>
<!DOCTYPE svg PUBLIC "-//W3C//DTD SVG 1.1//EN"
 "http://www.w3.org/Graphics/SVG/1.1/DTD/svg11.dtd">
<!-- Generated by graphviz version 2.43.0 (0)
 -->
<!-- Title: project_box_rectangle Pages: 1 -->
<svg width="641pt" height="940pt"
 viewBox="0.00 0.00 641.00 940.00" xmlns="http://www.w3.org/2000/svg" xmlns:xlink="http://www.w3.org/1999/xlink">
<g id="graph0" class="graph" transform="scale(1 1) rotate(0) translate(4 936)">
<title>project_box_rectangle</title>
<polygon fill="white" stroke="transparent" points="-4,4 -4,-936 637,-936 637,4 -4,4"/>
<!-- Node1 -->
<g id="node1" class="node">
<title>Node1</title>
<g id="a_node1"><a xlink:title="A rectangular box maker for project boxes, enclosures and housings.">
<polygon fill="#bfbfbf" stroke="black" points="0,-437.5 0,-456.5 125,-456.5 125,-437.5 0,-437.5"/>
<text text-anchor="middle" x="62.5" y="-444.5" font-family="Helvetica,sans-Serif" font-size="10.00">project_box_rectangle</text>
</a>
</g>
</g>
<!-- Node2 -->
<g id="node2" class="node">
<title>Node2</title>
<g id="a_node2"><a xlink:href="group__datatypes__binary.html#ga7ce4ed94d9b389ff817ea219918b8732" target="_top" xlink:title="Test if a binary bit position of an integer value equals a test bit.">
<polygon fill="white" stroke="black" points="196,-912.5 196,-931.5 275,-931.5 275,-912.5 196,-912.5"/>
<text text-anchor="middle" x="235.5" y="-919.5" font-family="Helvetica,sans-Serif" font-size="10.00">binary_bit_is</text>
</a>
</g>
</g>
<!-- Node1&#45;&gt;Node2 -->
<g id="edge1" class="edge">
<title>Node1&#45;&gt;Node2</title>
<path fill="none" stroke="midnightblue" d="M64.23,-456.87C68.86,-517.16 96.16,-835.35 161,-903 167.7,-909.99 176.61,-914.53 185.91,-917.46"/>
<polygon fill="midnightblue" stroke="midnightblue" points="185.11,-920.87 195.66,-919.96 186.84,-914.08 185.11,-920.87"/>
</g>
<!-- Node3 -->
<g id="node3" class="node">
<title>Node3</title>
<g id="a_node3"><a xlink:href="group__datatypes__binary.html#ga0a002009bcaa8d53f301c6966bdf1134" target="_top" xlink:title="Decode the binary bits of a bit window to an integer value.">
<polygon fill="white" stroke="black" points="199,-874.5 199,-893.5 272,-893.5 272,-874.5 199,-874.5"/>
<text text-anchor="middle" x="235.5" y="-881.5" font-family="Helvetica,sans-Serif" font-size="10.00">binary_iw2i</text>
</a>
</g>
</g>
<!-- Node1&#45;&gt;Node3 -->
<g id="edge2" class="edge">
<title>Node1&#45;&gt;Node3</title>
<path fill="none" stroke="midnightblue" d="M64.5,-456.62C70.51,-512.73 103.53,-797.5 161,-860 168.37,-868.01 178.44,-873.36 188.77,-876.92"/>
<polygon fill="midnightblue" stroke="midnightblue" points="188.09,-880.37 198.67,-879.82 190.05,-873.65 188.09,-880.37"/>
</g>
<!-- Node4 -->
<g id="node4" class="node">
<title>Node4</title>
<g id="a_node4"><a xlink:href="group__datatypes__iterable__operate.html#ga3d37c2b0067d1661724bd89955c8f6ce" target="_top" xlink:title="Return an element of an iterable when it exists or a default value otherwise.">
<polygon fill="white" stroke="black" points="523.5,-722.5 523.5,-741.5 602.5,-741.5 602.5,-722.5 523.5,-722.5"/>
<text text-anchor="middle" x="563" y="-729.5" font-family="Helvetica,sans-Serif" font-size="10.00">defined_e_or</text>
</a>
</g>
</g>
<!-- Node1&#45;&gt;Node4 -->
<g id="edge3" class="edge">
<title>Node1&#45;&gt;Node4</title>
<path fill="none" stroke="midnightblue" d="M63.13,-456.62C62.09,-499.09 64.13,-671.01 161,-744 266.1,-823.19 325.93,-762.76 457,-751 475.51,-749.34 495.63,-746.06 513.27,-742.69"/>
<polygon fill="midnightblue" stroke="midnightblue" points="514.2,-746.08 523.33,-740.71 512.84,-739.21 514.2,-746.08"/>
</g>
<!-- Node5 -->
<g id="node5" class="node">
<title>Node5</title>
<g id="a_node5"><a xlink:href="group__datatypes__scalar__operate.html#gac119300e8c83de0037f2d0a4d9f0ab5c" target="_top" xlink:title="Return given value, if defined, or a secondary value, if primary is not defined.">
<polygon fill="white" stroke="black" points="201.5,-456.5 201.5,-475.5 269.5,-475.5 269.5,-456.5 201.5,-456.5"/>
<text text-anchor="middle" x="235.5" y="-463.5" font-family="Helvetica,sans-Serif" font-size="10.00">defined_or</text>
</a>
</g>
</g>
<!-- Node1&#45;&gt;Node5 -->
<g id="edge4" class="edge">
<title>Node1&#45;&gt;Node5</title>
<path fill="none" stroke="midnightblue" d="M125.23,-453.86C147.07,-456.29 171.15,-458.96 191.13,-461.18"/>
<polygon fill="midnightblue" stroke="midnightblue" points="190.85,-464.67 201.17,-462.3 191.62,-457.71 190.85,-464.67"/>
</g>
<!-- Node6 -->
<g id="node6" class="node">
<title>Node6</title>
<g id="a_node6"><a xlink:href="group__tools__operation__cs.html#ga3900ae7c9ca268f0224a65f56387059f" target="_top" xlink:title="Conditionally apply the difference boolean operation.">
<polygon fill="white" stroke="black" points="195,-380.5 195,-399.5 276,-399.5 276,-380.5 195,-380.5"/>
<text text-anchor="middle" x="235.5" y="-387.5" font-family="Helvetica,sans-Serif" font-size="10.00">difference_cs</text>
</a>
</g>
</g>
<!-- Node1&#45;&gt;Node6 -->
<g id="edge5" class="edge">
<title>Node1&#45;&gt;Node6</title>
<path fill="none" stroke="midnightblue" d="M91.63,-437.39C111.09,-430.76 137.6,-421.78 161,-414 172.23,-410.27 184.44,-406.26 195.63,-402.61"/>
<polygon fill="midnightblue" stroke="midnightblue" points="196.72,-405.93 205.15,-399.5 194.56,-399.27 196.72,-405.93"/>
</g>
<!-- Node7 -->
<g id="node7" class="node">
<title>Node7</title>
<g id="a_node7"><a xlink:href="group__datatypes__scalar__test.html#ga51d7fdb800c10f4b7479d23b89ab8d22" target="_top" xlink:title="Test if a value is defined.">
<polygon fill="white" stroke="black" points="368.5,-380.5 368.5,-399.5 434.5,-399.5 434.5,-380.5 368.5,-380.5"/>
<text text-anchor="middle" x="401.5" y="-387.5" font-family="Helvetica,sans-Serif" font-size="10.00">is_defined</text>
</a>
</g>
</g>
<!-- Node1&#45;&gt;Node7 -->
<g id="edge20" class="edge">
<title>Node1&#45;&gt;Node7</title>
<path fill="none" stroke="midnightblue" d="M125.2,-438.43C175.15,-431.27 247.27,-420.41 310,-409 325.79,-406.13 343.04,-402.6 358.21,-399.37"/>
<polygon fill="midnightblue" stroke="midnightblue" points="359.29,-402.72 368.33,-397.19 357.82,-395.88 359.29,-402.72"/>
</g>
<!-- Node8 -->
<g id="node8" class="node">
<title>Node8</title>
<g id="a_node8"><a xlink:href="group__tools__extrude.html#ga45661244067bf945b684550c3263ee45" target="_top" xlink:title="Linearly extrude a 2d shape with multi&#45;segment uniformly&#45;spaced profile scaling.">
<polygon fill="white" stroke="black" points="179,-684.5 179,-703.5 292,-703.5 292,-684.5 179,-684.5"/>
<text text-anchor="middle" x="235.5" y="-691.5" font-family="Helvetica,sans-Serif" font-size="10.00">extrude_linear_mss</text>
</a>
</g>
</g>
<!-- Node1&#45;&gt;Node8 -->
<g id="edge7" class="edge">
<title>Node1&#45;&gt;Node8</title>
<path fill="none" stroke="midnightblue" d="M64.87,-456.66C70.26,-490.99 93.11,-608.37 161,-670 165.46,-674.05 170.61,-677.41 176.07,-680.21"/>
<polygon fill="midnightblue" stroke="midnightblue" points="174.94,-683.54 185.5,-684.4 177.79,-677.14 174.94,-683.54"/>
</g>
<!-- Node9 -->
<g id="node9" class="node">
<title>Node9</title>
<g id="a_node9"><a xlink:href="group__tools__extrude.html#gab2442cfaf1ad44d6e295ab0979d9e03d" target="_top" xlink:title="Linearly extrude a 2d shape with uniformly&#45;spaced profile scaling.">
<polygon fill="white" stroke="black" points="347,-722.5 347,-741.5 456,-741.5 456,-722.5 347,-722.5"/>
<text text-anchor="middle" x="401.5" y="-729.5" font-family="Helvetica,sans-Serif" font-size="10.00">extrude_linear_uss</text>
</a>
</g>
</g>
<!-- Node1&#45;&gt;Node9 -->
<g id="edge17" class="edge">
<title>Node1&#45;&gt;Node9</title>
<path fill="none" stroke="midnightblue" d="M63.61,-456.6C64.62,-496.11 74.23,-647.13 161,-713 213.95,-753.19 293.79,-750.71 346.53,-743.1"/>
<polygon fill="midnightblue" stroke="midnightblue" points="347.35,-746.52 356.7,-741.52 346.28,-739.6 347.35,-746.52"/>
</g>
<!-- Node10 -->
<g id="node10" class="node">
<title>Node10</title>
<g id="a_node10"><a xlink:href="group__datatypes__iterable__operate.html#gaccab3e37e43cb1d882713b3f3d6d9e1b" target="_top" xlink:title="Return the first element of an iterable value.">
<polygon fill="white" stroke="black" points="545.5,-684.5 545.5,-703.5 580.5,-703.5 580.5,-684.5 545.5,-684.5"/>
<text text-anchor="middle" x="563" y="-691.5" font-family="Helvetica,sans-Serif" font-size="10.00">first</text>
</a>
</g>
</g>
<!-- Node1&#45;&gt;Node10 -->
<g id="edge18" class="edge">
<title>Node1&#45;&gt;Node10</title>
<path fill="none" stroke="midnightblue" d="M67.47,-456.71C78.31,-481.85 110.92,-549.3 161,-581 274.13,-652.62 330.87,-592.08 457,-637 461.17,-638.48 506.38,-663.29 536.1,-679.68"/>
<polygon fill="midnightblue" stroke="midnightblue" points="534.69,-682.9 545.14,-684.67 538.07,-676.77 534.69,-682.9"/>
</g>
<!-- Node11 -->
<g id="node11" class="node">
<title>Node11</title>
<g id="a_node11"><a xlink:href="group__datatypes__scalar__test.html#ga258e8911375d30ff85a6e52df01dc1c5" target="_top" xlink:title="Test if a value is a single non&#45;iterable value.">
<polygon fill="white" stroke="black" points="533.5,-760.5 533.5,-779.5 592.5,-779.5 592.5,-760.5 533.5,-760.5"/>
<text text-anchor="middle" x="563" y="-767.5" font-family="Helvetica,sans-Serif" font-size="10.00">is_scalar</text>
</a>
</g>
</g>
<!-- Node1&#45;&gt;Node11 -->
<g id="edge21" class="edge">
<title>Node1&#45;&gt;Node11</title>
<path fill="none" stroke="midnightblue" d="M64.78,-456.55C71.7,-506.5 106.31,-737.1 161,-778 272.31,-861.25 453.83,-809.81 528.4,-783.11"/>
<polygon fill="midnightblue" stroke="midnightblue" points="530.01,-786.25 538.2,-779.52 527.6,-779.68 530.01,-786.25"/>
</g>
<!-- Node12 -->
<g id="node12" class="node">
<title>Node12</title>
<g id="a_node12"><a xlink:href="group__datatypes__iterable__operate.html#ga894d4bec62cc9cf38d5e099de3028c54" target="_top" xlink:title="Return the second element of an iterable value.">
<polygon fill="white" stroke="black" points="537.5,-627.5 537.5,-646.5 588.5,-646.5 588.5,-627.5 537.5,-627.5"/>
<text text-anchor="middle" x="563" y="-634.5" font-family="Helvetica,sans-Serif" font-size="10.00">second</text>
</a>
</g>
</g>
<!-- Node1&#45;&gt;Node12 -->
<g id="edge39" class="edge">
<title>Node1&#45;&gt;Node12</title>
<path fill="none" stroke="midnightblue" d="M69.71,-456.67C83.43,-477.19 118.54,-525.08 161,-548 278.82,-611.6 327.13,-571.43 457,-604 480.89,-609.99 507.35,-618.32 527.72,-625.11"/>
<polygon fill="midnightblue" stroke="midnightblue" points="526.61,-628.42 537.2,-628.3 528.84,-621.79 526.61,-628.42"/>
</g>
<!-- Node13 -->
<g id="node13" class="node">
<title>Node13</title>
<g id="a_node13"><a xlink:href="group__datatypes__list__operate.html#gae12565005038993506dc37249e32766d" target="_top" xlink:title="Compute the sum of a list of numbers.">
<polygon fill="white" stroke="black" points="382.5,-646.5 382.5,-665.5 420.5,-665.5 420.5,-646.5 382.5,-646.5"/>
<text text-anchor="middle" x="401.5" y="-653.5" font-family="Helvetica,sans-Serif" font-size="10.00">sum</text>
</a>
</g>
</g>
<!-- Node1&#45;&gt;Node13 -->
<g id="edge43" class="edge">
<title>Node1&#45;&gt;Node13</title>
<path fill="none" stroke="midnightblue" d="M65.31,-456.8C71.72,-488.48 96.56,-588.59 161,-632 226.09,-675.85 324.57,-668.28 372.42,-661.13"/>
<polygon fill="midnightblue" stroke="midnightblue" points="373.05,-664.58 382.37,-659.54 371.94,-657.66 373.05,-664.58"/>
</g>
<!-- Node14 -->
<g id="node14" class="node">
<title>Node14</title>
<g id="a_node14"><a xlink:href="group__tools__extrude.html#gaf8c07d65b440b889fbc3e030dcc8112c" target="_top" xlink:title="Return the total extrusion height for extrude_linear_mss().">
<polygon fill="white" stroke="black" points="168.5,-342.5 168.5,-361.5 302.5,-361.5 302.5,-342.5 168.5,-342.5"/>
<text text-anchor="middle" x="235.5" y="-349.5" font-family="Helvetica,sans-Serif" font-size="10.00">extrude_linear_mss_eht</text>
</a>
</g>
</g>
<!-- Node1&#45;&gt;Node14 -->
<g id="edge16" class="edge">
<title>Node1&#45;&gt;Node14</title>
<path fill="none" stroke="midnightblue" d="M73.08,-437.28C89.57,-421.11 124.99,-388.73 161,-371 165.88,-368.6 171.09,-366.48 176.41,-364.61"/>
<polygon fill="midnightblue" stroke="midnightblue" points="177.59,-367.91 186.03,-361.51 175.44,-361.24 177.59,-367.91"/>
</g>
<!-- Node15 -->
<g id="node15" class="node">
<title>Node15</title>
<g id="a_node15"><a xlink:href="group__math__utility.html#gaf9e83459b8955e67df8371e48c5c6194" target="_top" xlink:title="Return facets number for the given arc radius.">
<polygon fill="white" stroke="black" points="212,-304.5 212,-323.5 259,-323.5 259,-304.5 212,-304.5"/>
<text text-anchor="middle" x="235.5" y="-311.5" font-family="Helvetica,sans-Serif" font-size="10.00">get_fn</text>
</a>
</g>
</g>
<!-- Node1&#45;&gt;Node15 -->
<g id="edge19" class="edge">
<title>Node1&#45;&gt;Node15</title>
<path fill="none" stroke="midnightblue" d="M68.92,-437.31C81.81,-415.19 116.6,-360.72 161,-333 173.17,-325.4 188.29,-320.83 201.64,-318.08"/>
<polygon fill="midnightblue" stroke="midnightblue" points="202.65,-321.46 211.88,-316.25 201.42,-314.57 202.65,-321.46"/>
</g>
<!-- Node16 -->
<g id="node16" class="node">
<title>Node16</title>
<g id="a_node16"><a xlink:href="group__datatypes__list__operate.html#ga9ca257ff58d64bacffa01387c9effa0e" target="_top" xlink:title="Limit a list of numbers between an upper and lower bounds.">
<polygon fill="white" stroke="black" points="216,-266.5 216,-285.5 255,-285.5 255,-266.5 216,-266.5"/>
<text text-anchor="middle" x="235.5" y="-273.5" font-family="Helvetica,sans-Serif" font-size="10.00">limit</text>
</a>
</g>
</g>
<!-- Node1&#45;&gt;Node16 -->
<g id="edge22" class="edge">
<title>Node1&#45;&gt;Node16</title>
<path fill="none" stroke="midnightblue" d="M66.79,-437.4C76.53,-410.42 107.93,-333.43 161,-295 174.06,-285.55 191.42,-280.79 205.98,-278.4"/>
<polygon fill="midnightblue" stroke="midnightblue" points="206.56,-281.85 216,-277.04 205.62,-274.92 206.56,-281.85"/>
</g>
<!-- Node17 -->
<g id="node17" class="node">
<title>Node17</title>
<g id="a_node17"><a xlink:href="group__datatypes__list__operate.html#gac9437fd7e3cb8797fa5e901b2ab6e58a" target="_top" xlink:title="Serially merge the elements of a list.">
<polygon fill="white" stroke="black" points="206,-228.5 206,-247.5 265,-247.5 265,-228.5 206,-228.5"/>
<text text-anchor="middle" x="235.5" y="-235.5" font-family="Helvetica,sans-Serif" font-size="10.00">merge_s</text>
</a>
</g>
</g>
<!-- Node1&#45;&gt;Node17 -->
<g id="edge23" class="edge">
<title>Node1&#45;&gt;Node17</title>
<path fill="none" stroke="midnightblue" d="M65.51,-437.34C72.54,-406.04 99.05,-306.57 161,-257 170.89,-249.09 183.71,-244.44 195.87,-241.72"/>
<polygon fill="midnightblue" stroke="midnightblue" points="196.66,-245.13 205.85,-239.86 195.38,-238.25 196.66,-245.13"/>
</g>
<!-- Node18 -->
<g id="node18" class="node">
<title>Node18</title>
<g id="a_node18"><a xlink:href="group__shapes__polygon.html#ga9c1bd914355d92f9d66ba0e5c2d9dbac" target="_top" xlink:title="A polygon rectangle with vertex rounding.">
<polygon fill="white" stroke="black" points="361.5,-532.5 361.5,-551.5 441.5,-551.5 441.5,-532.5 361.5,-532.5"/>
<text text-anchor="middle" x="401.5" y="-539.5" font-family="Helvetica,sans-Serif" font-size="10.00">pg_rectangle</text>
</a>
</g>
</g>
<!-- Node1&#45;&gt;Node18 -->
<g id="edge24" class="edge">
<title>Node1&#45;&gt;Node18</title>
<path fill="none" stroke="midnightblue" d="M72.02,-456.6C87.69,-473.52 122.99,-508.23 161,-523 223.25,-547.19 301.32,-548.55 351.07,-546.18"/>
<polygon fill="midnightblue" stroke="midnightblue" points="351.44,-549.67 361.24,-545.63 351.06,-542.68 351.44,-549.67"/>
</g>
<!-- Node21 -->
<g id="node21" class="node">
<title>Node21</title>
<g id="a_node21"><a xlink:href="group__shapes__polygon.html#ga24be160074502dce7ff8a78361d4b074" target="_top" xlink:title="A polygon triangle specified by size&#45;angle&#45;size with vertex rounding.">
<polygon fill="white" stroke="black" points="189,-494.5 189,-513.5 282,-513.5 282,-494.5 189,-494.5"/>
<text text-anchor="middle" x="235.5" y="-501.5" font-family="Helvetica,sans-Serif" font-size="10.00">pg_triangle_sas</text>
</a>
</g>
</g>
<!-- Node1&#45;&gt;Node21 -->
<g id="edge28" class="edge">
<title>Node1&#45;&gt;Node21</title>
<path fill="none" stroke="midnightblue" d="M85.69,-456.52C105.28,-464.71 134.72,-476.52 161,-485 168.41,-487.39 176.31,-489.69 184.08,-491.81"/>
<polygon fill="midnightblue" stroke="midnightblue" points="183.25,-495.21 193.81,-494.4 185.05,-488.45 183.25,-495.21"/>
</g>
<!-- Node28 -->
<g id="node28" class="node">
<title>Node28</title>
<g id="a_node28"><a xlink:href="group__math__polygon.html#ga14f9e097061ed4d570b7aae27a01e43e" target="_top" xlink:title="Compute the perimeter of an n&#45;sided regular polygon in 2D.">
<polygon fill="white" stroke="black" points="161,-190.5 161,-209.5 310,-209.5 310,-190.5 161,-190.5"/>
<text text-anchor="middle" x="235.5" y="-197.5" font-family="Helvetica,sans-Serif" font-size="10.00">polygon_regular_perimeter</text>
</a>
</g>
</g>
<!-- Node1&#45;&gt;Node28 -->
<g id="edge37" class="edge">
<title>Node1&#45;&gt;Node28</title>
<path fill="none" stroke="midnightblue" d="M64.6,-437.46C69.16,-402.49 89.82,-280.16 161,-219 162.97,-217.31 165.07,-215.77 167.27,-214.36"/>
<polygon fill="midnightblue" stroke="midnightblue" points="169.03,-217.38 176.18,-209.57 165.72,-211.22 169.03,-217.38"/>
</g>
<!-- Node29 -->
<g id="node29" class="node">
<title>Node29</title>
<g id="a_node29"><a xlink:href="group__datatypes__iterable__operate.html#gafb1f112a3ab162d589c49d1b2de21b9e" target="_top" xlink:title="Reverse the elements of an iterable value.">
<polygon fill="white" stroke="black" points="209,-152.5 209,-171.5 262,-171.5 262,-152.5 209,-152.5"/>
<text text-anchor="middle" x="235.5" y="-159.5" font-family="Helvetica,sans-Serif" font-size="10.00">reverse</text>
</a>
</g>
</g>
<!-- Node1&#45;&gt;Node29 -->
<g id="edge38" class="edge">
<title>Node1&#45;&gt;Node29</title>
<path fill="none" stroke="midnightblue" d="M63.97,-437.27C66.38,-398.54 80.63,-253.82 161,-181 171.25,-171.71 185.45,-166.85 198.63,-164.34"/>
<polygon fill="midnightblue" stroke="midnightblue" points="199.53,-167.74 208.9,-162.79 198.49,-160.82 199.53,-167.74"/>
</g>
<!-- Node30 -->
<g id="node30" class="node">
<title>Node30</title>
<g id="a_node30"><a xlink:href="group__datatypes__list__operate.html#ga7b8e6f2bbfa72ae61e39377e5ca6b5be" target="_top" xlink:title="Select specified element from list or return a default.">
<polygon fill="white" stroke="black" points="206,-114.5 206,-133.5 265,-133.5 265,-114.5 206,-114.5"/>
<text text-anchor="middle" x="235.5" y="-121.5" font-family="Helvetica,sans-Serif" font-size="10.00">select_ci</text>
</a>
</g>
</g>
<!-- Node1&#45;&gt;Node30 -->
<g id="edge40" class="edge">
<title>Node1&#45;&gt;Node30</title>
<path fill="none" stroke="midnightblue" d="M63.46,-437.38C63.85,-395.55 71.13,-227.85 161,-143 170.36,-134.16 183.27,-129.3 195.67,-126.67"/>
<polygon fill="midnightblue" stroke="midnightblue" points="196.59,-130.07 205.87,-124.95 195.43,-123.16 196.59,-130.07"/>
</g>
<!-- Node31 -->
<g id="node31" class="node">
<title>Node31</title>
<g id="a_node31"><a xlink:href="group__datatypes__iterable__operate.html#ga77aa841ef714d4120518e009d8d95c38" target="_top" xlink:title="Shift the elements of an iterable value.">
<polygon fill="white" stroke="black" points="216.5,-76.5 216.5,-95.5 254.5,-95.5 254.5,-76.5 216.5,-76.5"/>
<text text-anchor="middle" x="235.5" y="-83.5" font-family="Helvetica,sans-Serif" font-size="10.00">shift</text>
</a>
</g>
</g>
<!-- Node1&#45;&gt;Node31 -->
<g id="edge41" class="edge">
<title>Node1&#45;&gt;Node31</title>
<path fill="none" stroke="midnightblue" d="M63.07,-437.44C61.6,-392.68 61.56,-202.01 161,-105 172.96,-93.33 191.09,-88.56 206.36,-86.72"/>
<polygon fill="midnightblue" stroke="midnightblue" points="206.69,-90.2 216.35,-85.86 206.09,-83.23 206.69,-90.2"/>
</g>
<!-- Node32 -->
<g id="node32" class="node">
<title>Node32</title>
<g id="a_node32"><a xlink:href="group__datatypes__list__operate.html#gab842ea235bf5fc40a14512083b49c8d2" target="_top" xlink:title="Convert a list of values to a concatenated string.">
<polygon fill="white" stroke="black" points="219.5,-38.5 219.5,-57.5 251.5,-57.5 251.5,-38.5 219.5,-38.5"/>
<text text-anchor="middle" x="235.5" y="-45.5" font-family="Helvetica,sans-Serif" font-size="10.00">strl</text>
</a>
</g>
</g>
<!-- Node1&#45;&gt;Node32 -->
<g id="edge42" class="edge">
<title>Node1&#45;&gt;Node32</title>
<path fill="none" stroke="midnightblue" d="M64.64,-437.41C71.21,-383.85 105.79,-122.31 161,-67 173.56,-54.42 193.29,-49.82 209.14,-48.29"/>
<polygon fill="midnightblue" stroke="midnightblue" points="209.6,-51.76 219.37,-47.65 209.17,-44.78 209.6,-51.76"/>
</g>
<!-- Node33 -->
<g id="node33" class="node">
<title>Node33</title>
<g id="a_node33"><a xlink:href="group__datatypes__iterable__operate.html#ga4a000b3543933067bb00c6950e9122b3" target="_top" xlink:title="Return the third element of an iterable value.">
<polygon fill="white" stroke="black" points="216,-0.5 216,-19.5 255,-19.5 255,-0.5 216,-0.5"/>
<text text-anchor="middle" x="235.5" y="-7.5" font-family="Helvetica,sans-Serif" font-size="10.00">third</text>
</a>
</g>
</g>
<!-- Node1&#45;&gt;Node33 -->
<g id="edge44" class="edge">
<title>Node1&#45;&gt;Node33</title>
<path fill="none" stroke="midnightblue" d="M64.42,-437.21C70,-380.12 101,-90.45 161,-29 172.6,-17.12 190.57,-12.33 205.84,-10.53"/>
<polygon fill="midnightblue" stroke="midnightblue" points="206.19,-14.02 215.87,-9.71 205.62,-7.04 206.19,-14.02"/>
</g>
<!-- Node6&#45;&gt;Node7 -->
<g id="edge6" class="edge">
<title>Node6&#45;&gt;Node7</title>
<path fill="none" stroke="midnightblue" d="M276.2,-390C301.03,-390 332.98,-390 358.27,-390"/>
<polygon fill="midnightblue" stroke="midnightblue" points="358.31,-393.5 368.31,-390 358.31,-386.5 358.31,-393.5"/>
</g>
<!-- Node8&#45;&gt;Node9 -->
<g id="edge8" class="edge">
<title>Node8&#45;&gt;Node9</title>
<path fill="none" stroke="midnightblue" d="M277.88,-703.59C299.62,-708.63 326.46,-714.84 349.47,-720.18"/>
<polygon fill="midnightblue" stroke="midnightblue" points="348.88,-723.63 359.41,-722.48 350.46,-716.81 348.88,-723.63"/>
</g>
<!-- Node8&#45;&gt;Node10 -->
<g id="edge13" class="edge">
<title>Node8&#45;&gt;Node10</title>
<path fill="none" stroke="midnightblue" d="M292.09,-694C362.77,-694 482.02,-694 535.11,-694"/>
<polygon fill="midnightblue" stroke="midnightblue" points="535.39,-697.5 545.39,-694 535.39,-690.5 535.39,-697.5"/>
</g>
<!-- Node8&#45;&gt;Node11 -->
<g id="edge14" class="edge">
<title>Node8&#45;&gt;Node11</title>
<path fill="none" stroke="midnightblue" d="M250.6,-703.67C270.74,-716.93 309.38,-740.32 346,-751 406.09,-768.53 479.26,-771.3 523.15,-771.09"/>
<polygon fill="midnightblue" stroke="midnightblue" points="523.43,-774.59 533.39,-770.99 523.36,-767.59 523.43,-774.59"/>
</g>
<!-- Node8&#45;&gt;Node13 -->
<g id="edge15" class="edge">
<title>Node8&#45;&gt;Node13</title>
<path fill="none" stroke="midnightblue" d="M277.88,-684.41C307.41,-677.57 346.33,-668.55 372.32,-662.53"/>
<polygon fill="midnightblue" stroke="midnightblue" points="373.32,-665.89 382.27,-660.22 371.74,-659.07 373.32,-665.89"/>
</g>
<!-- Node9&#45;&gt;Node4 -->
<g id="edge9" class="edge">
<title>Node9&#45;&gt;Node4</title>
<path fill="none" stroke="midnightblue" d="M456.05,-732C474.6,-732 495.27,-732 513.4,-732"/>
<polygon fill="midnightblue" stroke="midnightblue" points="513.46,-735.5 523.46,-732 513.46,-728.5 513.46,-735.5"/>
</g>
<!-- Node9&#45;&gt;Node10 -->
<g id="edge10" class="edge">
<title>Node9&#45;&gt;Node10</title>
<path fill="none" stroke="midnightblue" d="M442.75,-722.41C471.82,-715.49 510.26,-706.33 535.53,-700.31"/>
<polygon fill="midnightblue" stroke="midnightblue" points="536.58,-703.65 545.49,-697.93 534.96,-696.85 536.58,-703.65"/>
</g>
<!-- Node9&#45;&gt;Node11 -->
<g id="edge11" class="edge">
<title>Node9&#45;&gt;Node11</title>
<path fill="none" stroke="midnightblue" d="M442.75,-741.59C467.46,-747.48 498.94,-754.98 523.35,-760.79"/>
<polygon fill="midnightblue" stroke="midnightblue" points="522.8,-764.26 533.33,-763.17 524.42,-757.45 522.8,-764.26"/>
</g>
<!-- Node9&#45;&gt;Node12 -->
<g id="edge12" class="edge">
<title>Node9&#45;&gt;Node12</title>
<path fill="none" stroke="midnightblue" d="M417.07,-722.45C434.82,-710.91 465.81,-691.03 493,-675 506.75,-666.9 522.29,-658.29 535.15,-651.31"/>
<polygon fill="midnightblue" stroke="midnightblue" points="536.83,-654.38 543.97,-646.56 533.5,-648.22 536.83,-654.38"/>
</g>
<!-- Node18&#45;&gt;Node4 -->
<g id="edge25" class="edge">
<title>Node18&#45;&gt;Node4</title>
<path fill="none" stroke="midnightblue" d="M408.32,-551.57C418.58,-568.55 440.35,-605.15 457,-637 474.31,-670.12 464.38,-688.96 493,-713 499.02,-718.06 506.28,-721.77 513.8,-724.51"/>
<polygon fill="midnightblue" stroke="midnightblue" points="512.8,-727.86 523.39,-727.47 514.87,-721.17 512.8,-727.86"/>
</g>
<!-- Node19 -->
<g id="node19" class="node">
<title>Node19</title>
<g id="a_node19"><a xlink:href="group__math__polygon.html#ga7a0eff64929a142fc507615f83e3bd58" target="_top" xlink:title="Compute coordinates that round all of the vertices between each adjacent edges in 2D.">
<polygon fill="white" stroke="black" points="493,-532.5 493,-551.5 633,-551.5 633,-532.5 493,-532.5"/>
<text text-anchor="middle" x="563" y="-539.5" font-family="Helvetica,sans-Serif" font-size="10.00">polygon_round_eve_all_p</text>
</a>
</g>
</g>
<!-- Node18&#45;&gt;Node19 -->
<g id="edge26" class="edge">
<title>Node18&#45;&gt;Node19</title>
<path fill="none" stroke="midnightblue" d="M441.52,-542C453.99,-542 468.27,-542 482.54,-542"/>
<polygon fill="midnightblue" stroke="midnightblue" points="482.9,-545.5 492.9,-542 482.9,-538.5 482.9,-545.5"/>
</g>
<!-- Node20 -->
<g id="node20" class="node">
<title>Node20</title>
<g id="a_node20"><a xlink:href="group__math__linear__algebra.html#gaeabe74699fd0a437bad9a1d442bfd111" target="_top" xlink:title="Translate all coordinates dimensions.">
<polygon fill="white" stroke="black" points="527.5,-570.5 527.5,-589.5 598.5,-589.5 598.5,-570.5 527.5,-570.5"/>
<text text-anchor="middle" x="563" y="-577.5" font-family="Helvetica,sans-Serif" font-size="10.00">translate_p</text>
</a>
</g>
</g>
<!-- Node18&#45;&gt;Node20 -->
<g id="edge27" class="edge">
<title>Node18&#45;&gt;Node20</title>
<path fill="none" stroke="midnightblue" d="M441.52,-551.3C464.52,-556.78 493.69,-563.73 517.57,-569.42"/>
<polygon fill="midnightblue" stroke="midnightblue" points="516.91,-572.86 527.45,-571.77 518.53,-566.05 516.91,-572.86"/>
</g>
<!-- Node22 -->
<g id="node22" class="node">
<title>Node22</title>
<g id="a_node22"><a xlink:href="group__shapes__polygon.html#gac7e2c70b3428b729efd86a675df794e6" target="_top" xlink:title="A polygon triangle specified by three coordinate points with vertex rounding.">
<polygon fill="white" stroke="black" points="354,-494.5 354,-513.5 449,-513.5 449,-494.5 354,-494.5"/>
<text text-anchor="middle" x="401.5" y="-501.5" font-family="Helvetica,sans-Serif" font-size="10.00">pg_triangle_ppp</text>
</a>
</g>
</g>
<!-- Node21&#45;&gt;Node22 -->
<g id="edge29" class="edge">
<title>Node21&#45;&gt;Node22</title>
<path fill="none" stroke="midnightblue" d="M282.18,-504C301.23,-504 323.55,-504 343.65,-504"/>
<polygon fill="midnightblue" stroke="midnightblue" points="343.92,-507.5 353.92,-504 343.92,-500.5 343.92,-507.5"/>
</g>
<!-- Node26 -->
<g id="node26" class="node">
<title>Node26</title>
<g id="a_node26"><a xlink:href="group__math__triangle.html#gaab9b812d15418fd05c9d93f3bfcc1989" target="_top" xlink:title="Compute a set of vertex coordinates for a triangle given its side lengths in 2D.">
<polygon fill="white" stroke="black" points="346,-456.5 346,-475.5 457,-475.5 457,-456.5 346,-456.5"/>
<text text-anchor="middle" x="401.5" y="-463.5" font-family="Helvetica,sans-Serif" font-size="10.00">triangle2d_sss2ppp</text>
</a>
</g>
</g>
<!-- Node21&#45;&gt;Node26 -->
<g id="edge35" class="edge">
<title>Node21&#45;&gt;Node26</title>
<path fill="none" stroke="midnightblue" d="M277.88,-494.41C299.62,-489.37 326.46,-483.16 349.47,-477.82"/>
<polygon fill="midnightblue" stroke="midnightblue" points="350.46,-481.19 359.41,-475.52 348.88,-474.37 350.46,-481.19"/>
</g>
<!-- Node27 -->
<g id="node27" class="node">
<title>Node27</title>
<g id="a_node27"><a xlink:href="group__math__triangle.html#ga33761959a2184db852e773ca2330811b" target="_top" xlink:title="Compute the side lengths of a triangle given two sides and the included angle.">
<polygon fill="white" stroke="black" points="352.5,-418.5 352.5,-437.5 450.5,-437.5 450.5,-418.5 352.5,-418.5"/>
<text text-anchor="middle" x="401.5" y="-425.5" font-family="Helvetica,sans-Serif" font-size="10.00">triangle_sas2sss</text>
</a>
</g>
</g>
<!-- Node21&#45;&gt;Node27 -->
<g id="edge36" class="edge">
<title>Node21&#45;&gt;Node27</title>
<path fill="none" stroke="midnightblue" d="M282,-496.47C291.65,-493.73 301.48,-490.02 310,-485 330.04,-473.19 326.46,-459.63 346,-447 349.08,-445.01 352.4,-443.19 355.83,-441.55"/>
<polygon fill="midnightblue" stroke="midnightblue" points="357.23,-444.76 365.04,-437.59 354.47,-438.32 357.23,-444.76"/>
</g>
<!-- Node22&#45;&gt;Node19 -->
<g id="edge30" class="edge">
<title>Node22&#45;&gt;Node19</title>
<path fill="none" stroke="midnightblue" d="M442.75,-513.59C463.8,-518.6 489.76,-524.79 512.07,-530.11"/>
<polygon fill="midnightblue" stroke="midnightblue" points="511.5,-533.57 522.04,-532.48 513.12,-526.76 511.5,-533.57"/>
</g>
<!-- Node22&#45;&gt;Node20 -->
<g id="edge31" class="edge">
<title>Node22&#45;&gt;Node20</title>
<path fill="none" stroke="midnightblue" d="M437.96,-513.59C444.56,-516.14 451.19,-519.25 457,-523 476.54,-535.63 473.05,-549.03 493,-561 500.43,-565.46 508.93,-568.9 517.36,-571.54"/>
<polygon fill="midnightblue" stroke="midnightblue" points="516.6,-574.96 527.17,-574.29 518.49,-568.22 516.6,-574.96"/>
</g>
<!-- Node23 -->
<g id="node23" class="node">
<title>Node23</title>
<g id="a_node23"><a xlink:href="group__math__triangle.html#gac0d11ca2c5035a9e53c1144f3774b0b4" target="_top" xlink:title="Compute the center coordinate of a triangle&#39;s incircle in 2D.">
<polygon fill="white" stroke="black" points="507.5,-494.5 507.5,-513.5 618.5,-513.5 618.5,-494.5 507.5,-494.5"/>
<text text-anchor="middle" x="563" y="-501.5" font-family="Helvetica,sans-Serif" font-size="10.00">triangle2d_incenter</text>
</a>
</g>
</g>
<!-- Node22&#45;&gt;Node23 -->
<g id="edge32" class="edge">
<title>Node22&#45;&gt;Node23</title>
<path fill="none" stroke="midnightblue" d="M449.06,-504C464.07,-504 480.99,-504 497.08,-504"/>
<polygon fill="midnightblue" stroke="midnightblue" points="497.5,-507.5 507.5,-504 497.5,-500.5 497.5,-507.5"/>
</g>
<!-- Node24 -->
<g id="node24" class="node">
<title>Node24</title>
<g id="a_node24"><a xlink:href="group__math__triangle.html#ga51e8d8c2004f859d216790f7966b7dfd" target="_top" xlink:title="Compute the centroid of a triangle.">
<polygon fill="white" stroke="black" points="513.5,-456.5 513.5,-475.5 612.5,-475.5 612.5,-456.5 513.5,-456.5"/>
<text text-anchor="middle" x="563" y="-463.5" font-family="Helvetica,sans-Serif" font-size="10.00">triangle_centroid</text>
</a>
</g>
</g>
<!-- Node22&#45;&gt;Node24 -->
<g id="edge33" class="edge">
<title>Node22&#45;&gt;Node24</title>
<path fill="none" stroke="midnightblue" d="M442.75,-494.41C463.8,-489.4 489.76,-483.21 512.07,-477.89"/>
<polygon fill="midnightblue" stroke="midnightblue" points="513.12,-481.24 522.04,-475.52 511.5,-474.43 513.12,-481.24"/>
</g>
<!-- Node25 -->
<g id="node25" class="node">
<title>Node25</title>
<g id="a_node25"><a xlink:href="group__math__triangle.html#ga5cf2801b07faec68a51ac3cd901bc4b0" target="_top" xlink:title="Compute the coordinate of a triangle&#39;s circumcenter.">
<polygon fill="white" stroke="black" points="501.5,-418.5 501.5,-437.5 624.5,-437.5 624.5,-418.5 501.5,-418.5"/>
<text text-anchor="middle" x="563" y="-425.5" font-family="Helvetica,sans-Serif" font-size="10.00">triangle_circumcenter</text>
</a>
</g>
</g>
<!-- Node22&#45;&gt;Node25 -->
<g id="edge34" class="edge">
<title>Node22&#45;&gt;Node25</title>
<path fill="none" stroke="midnightblue" d="M437.96,-494.41C444.56,-491.86 451.19,-488.75 457,-485 476.54,-472.37 473.05,-458.97 493,-447 496.6,-444.84 500.44,-442.92 504.41,-441.22"/>
<polygon fill="midnightblue" stroke="midnightblue" points="505.75,-444.45 513.83,-437.61 503.24,-437.92 505.75,-444.45"/>
</g>
</g>
</svg>
