<?xml version="1.0" encoding="UTF-8" standalone="no"?>
<!DOCTYPE svg PUBLIC "-//W3C//DTD SVG 1.1//EN"
 "http://www.w3.org/Graphics/SVG/1.1/DTD/svg11.dtd">
<!-- Generated by graphviz version 2.43.0 (0)
 -->
<!-- Title: line2d_new Pages: 1 -->
<svg width="421pt" height="332pt"
 viewBox="0.00 0.00 421.00 332.00" xmlns="http://www.w3.org/2000/svg" xmlns:xlink="http://www.w3.org/1999/xlink">
<g id="graph0" class="graph" transform="scale(1 1) rotate(0) translate(4 328)">
<title>line2d_new</title>
<polygon fill="white" stroke="transparent" points="-4,4 -4,-328 417,-328 417,4 -4,4"/>
<!-- Node1 -->
<g id="node1" class="node">
<title>Node1</title>
<g id="a_node1"><a xlink:title="Construct a 2 dimensional directed line.">
<polygon fill="#bfbfbf" stroke="black" points="341,-133.5 341,-152.5 413,-152.5 413,-133.5 341,-133.5"/>
<text text-anchor="middle" x="377" y="-140.5" font-family="Helvetica,sans-Serif" font-size="10.00">line2d_new</text>
</a>
</g>
</g>
<!-- Node2 -->
<g id="node2" class="node">
<title>Node2</title>
<g id="a_node2"><a xlink:href="group__tools__drafting__primitive.html#ga6f12ccd4c9de0a8ab887184911f39c8f" target="_top" xlink:title="Draft an arrowhead at the terminal point of a line.">
<polygon fill="white" stroke="black" points="233,-228.5 233,-247.5 305,-247.5 305,-228.5 233,-228.5"/>
<text text-anchor="middle" x="269" y="-235.5" font-family="Helvetica,sans-Serif" font-size="10.00">draft_arrow</text>
</a>
</g>
</g>
<!-- Node1&#45;&gt;Node2 -->
<g id="edge1" class="edge">
<title>Node1&#45;&gt;Node2</title>
<path fill="none" stroke="midnightblue" d="M360.42,-160.29C346.55,-175.25 325.36,-197.08 305,-214 298.88,-219.08 291.69,-224.15 285.43,-228.31"/>
<polygon fill="midnightblue" stroke="midnightblue" points="363.15,-162.49 367.32,-152.76 357.99,-157.76 363.15,-162.49"/>
</g>
<!-- Node4 -->
<g id="node4" class="node">
<title>Node4</title>
<g id="a_node4"><a xlink:href="group__tools__drafting__dimension.html#ga6b8e17d22ac4a95d25a90be8a74c0689" target="_top" xlink:title="Construct a angular dimension arc.">
<polygon fill="white" stroke="black" points="2,-304.5 2,-323.5 97,-323.5 97,-304.5 2,-304.5"/>
<text text-anchor="middle" x="49.5" y="-311.5" font-family="Helvetica,sans-Serif" font-size="10.00">draft_dim_angle</text>
</a>
</g>
</g>
<!-- Node1&#45;&gt;Node4 -->
<g id="edge14" class="edge">
<title>Node1&#45;&gt;Node4</title>
<path fill="none" stroke="midnightblue" d="M369.45,-162.19C359.63,-187.94 338.59,-233.17 305,-257 242.59,-301.28 151.67,-311.94 97.08,-314.07"/>
<polygon fill="midnightblue" stroke="midnightblue" points="372.75,-163.36 372.87,-152.77 366.17,-160.98 372.75,-163.36"/>
</g>
<!-- Node5 -->
<g id="node5" class="node">
<title>Node5</title>
<g id="a_node5"><a xlink:href="group__tools__drafting__primitive.html#ga060910368142d6371cf4f3f30be7561e" target="_top" xlink:title="Draft a line with configurable style and optional arrowheads.">
<polygon fill="white" stroke="black" points="135,-152.5 135,-171.5 197,-171.5 197,-152.5 135,-152.5"/>
<text text-anchor="middle" x="166" y="-159.5" font-family="Helvetica,sans-Serif" font-size="10.00">draft_line</text>
</a>
</g>
</g>
<!-- Node1&#45;&gt;Node5 -->
<g id="edge19" class="edge">
<title>Node1&#45;&gt;Node5</title>
<path fill="none" stroke="midnightblue" d="M330.42,-147.14C290,-150.82 232.12,-156.08 197.19,-159.26"/>
<polygon fill="midnightblue" stroke="midnightblue" points="330.9,-150.61 340.55,-146.22 330.27,-143.64 330.9,-150.61"/>
</g>
<!-- Node7 -->
<g id="node7" class="node">
<title>Node7</title>
<g id="a_node7"><a xlink:href="group__tools__drafting__dimension.html#ga4866c090b81b437e2f1f707d28ad8ec7" target="_top" xlink:title="Construct a center mark dimension cross.">
<polygon fill="white" stroke="black" points="0,-266.5 0,-285.5 99,-285.5 99,-266.5 0,-266.5"/>
<text text-anchor="middle" x="49.5" y="-273.5" font-family="Helvetica,sans-Serif" font-size="10.00">draft_dim_center</text>
</a>
</g>
</g>
<!-- Node1&#45;&gt;Node7 -->
<g id="edge15" class="edge">
<title>Node1&#45;&gt;Node7</title>
<path fill="none" stroke="midnightblue" d="M339.26,-156.05C291.55,-173.32 205.97,-205.4 135,-238 118.56,-245.55 115.45,-249.47 99,-257 91.76,-260.31 83.77,-263.59 76.4,-266.47"/>
<polygon fill="midnightblue" stroke="midnightblue" points="340.63,-159.28 348.85,-152.59 338.25,-152.69 340.63,-159.28"/>
</g>
<!-- Node8 -->
<g id="node8" class="node">
<title>Node8</title>
<g id="a_node8"><a xlink:href="group__tools__drafting__dimension.html#ga5c4915c4c4464c5cdaefd501c2de261d" target="_top" xlink:title="Construct a dimension leader line at a point.">
<polygon fill="white" stroke="black" points="0,-114.5 0,-133.5 99,-133.5 99,-114.5 0,-114.5"/>
<text text-anchor="middle" x="49.5" y="-121.5" font-family="Helvetica,sans-Serif" font-size="10.00">draft_dim_leader</text>
</a>
</g>
</g>
<!-- Node1&#45;&gt;Node8 -->
<g id="edge16" class="edge">
<title>Node1&#45;&gt;Node8</title>
<path fill="none" stroke="midnightblue" d="M330.77,-140.36C269.85,-136.8 161.85,-130.5 99.2,-126.84"/>
<polygon fill="midnightblue" stroke="midnightblue" points="330.67,-143.86 340.86,-140.95 331.08,-136.87 330.67,-143.86"/>
</g>
<!-- Node9 -->
<g id="node9" class="node">
<title>Node9</title>
<g id="a_node9"><a xlink:href="group__tools__drafting__dimension.html#ga27a35e94597435a74e22d76789e9be5e" target="_top" xlink:title="Construct a dimension line between two points.">
<polygon fill="white" stroke="black" points="6.5,-76.5 6.5,-95.5 92.5,-95.5 92.5,-76.5 6.5,-76.5"/>
<text text-anchor="middle" x="49.5" y="-83.5" font-family="Helvetica,sans-Serif" font-size="10.00">draft_dim_line</text>
</a>
</g>
</g>
<!-- Node1&#45;&gt;Node9 -->
<g id="edge17" class="edge">
<title>Node1&#45;&gt;Node9</title>
<path fill="none" stroke="midnightblue" d="M331.05,-134.7C322.41,-133.12 313.42,-131.5 305,-130 230.39,-116.72 143.38,-101.8 92.85,-93.19"/>
<polygon fill="midnightblue" stroke="midnightblue" points="330.52,-138.16 340.98,-136.52 331.78,-131.27 330.52,-138.16"/>
</g>
<!-- Node10 -->
<g id="node10" class="node">
<title>Node10</title>
<g id="a_node10"><a xlink:href="group__tools__drafting__dimension.html#gaef1a8150a8ef7be88e086fb3dbab64a9" target="_top" xlink:title="Construct a radial dimension line.">
<polygon fill="white" stroke="black" points="0.5,-38.5 0.5,-57.5 98.5,-57.5 98.5,-38.5 0.5,-38.5"/>
<text text-anchor="middle" x="49.5" y="-45.5" font-family="Helvetica,sans-Serif" font-size="10.00">draft_dim_radius</text>
</a>
</g>
</g>
<!-- Node1&#45;&gt;Node10 -->
<g id="edge18" class="edge">
<title>Node1&#45;&gt;Node10</title>
<path fill="none" stroke="midnightblue" d="M346.02,-129.15C333.5,-123.69 318.71,-117.62 305,-113 233.48,-88.91 148.06,-68.8 96.61,-57.59"/>
<polygon fill="midnightblue" stroke="midnightblue" points="344.94,-132.51 355.5,-133.37 347.79,-126.11 344.94,-132.51"/>
</g>
<!-- Node13 -->
<g id="node13" class="node">
<title>Node13</title>
<g id="a_node13"><a xlink:href="group__tools__drafting__operation.html#ga49aac81a903cd453ea9cadc85e84e414" target="_top" xlink:title="Construct a drafting sheet ruler.">
<polygon fill="white" stroke="black" points="16,-0.5 16,-19.5 83,-19.5 83,-0.5 16,-0.5"/>
<text text-anchor="middle" x="49.5" y="-7.5" font-family="Helvetica,sans-Serif" font-size="10.00">draft_ruler</text>
</a>
</g>
</g>
<!-- Node1&#45;&gt;Node13 -->
<g id="edge20" class="edge">
<title>Node1&#45;&gt;Node13</title>
<path fill="none" stroke="midnightblue" d="M358.66,-126.25C345.03,-113.89 325.06,-97.46 305,-87 230.51,-48.14 133.3,-25.62 83.33,-15.84"/>
<polygon fill="midnightblue" stroke="midnightblue" points="356.56,-129.08 366.27,-133.33 361.33,-123.96 356.56,-129.08"/>
</g>
<!-- Node3 -->
<g id="node3" class="node">
<title>Node3</title>
<g id="a_node3"><a xlink:href="group__tools__drafting__primitive.html#gaeb2a388d77f8e435b02c4235e7791eda" target="_top" xlink:title="Draft an arc with configurable style and optional arrowheads.">
<polygon fill="white" stroke="black" points="136.5,-247.5 136.5,-266.5 195.5,-266.5 195.5,-247.5 136.5,-247.5"/>
<text text-anchor="middle" x="166" y="-254.5" font-family="Helvetica,sans-Serif" font-size="10.00">draft_arc</text>
</a>
</g>
</g>
<!-- Node2&#45;&gt;Node3 -->
<g id="edge2" class="edge">
<title>Node2&#45;&gt;Node3</title>
<path fill="none" stroke="midnightblue" d="M223.02,-246.46C213.72,-248.21 204.16,-250.01 195.63,-251.61"/>
<polygon fill="midnightblue" stroke="midnightblue" points="223.78,-249.88 232.96,-244.59 222.48,-243 223.78,-249.88"/>
</g>
<!-- Node2&#45;&gt;Node5 -->
<g id="edge4" class="edge">
<title>Node2&#45;&gt;Node5</title>
<path fill="none" stroke="midnightblue" d="M247.18,-222.33C226.87,-207.05 196.63,-184.3 179.69,-171.55"/>
<polygon fill="midnightblue" stroke="midnightblue" points="245.11,-225.16 255.21,-228.37 249.32,-219.57 245.11,-225.16"/>
</g>
<!-- Node3&#45;&gt;Node4 -->
<g id="edge3" class="edge">
<title>Node3&#45;&gt;Node4</title>
<path fill="none" stroke="midnightblue" d="M141.12,-271.9C128.78,-279.3 113.34,-288.11 99,-295 91.99,-298.37 84.22,-301.62 76.98,-304.45"/>
<polygon fill="midnightblue" stroke="midnightblue" points="143.16,-274.76 149.88,-266.57 139.52,-268.78 143.16,-274.76"/>
</g>
<!-- Node5&#45;&gt;Node4 -->
<g id="edge6" class="edge">
<title>Node5&#45;&gt;Node4</title>
<path fill="none" stroke="midnightblue" d="M157.6,-180.92C144.52,-213.56 117.01,-278.5 99,-295 94.87,-298.79 89.89,-301.86 84.72,-304.33"/>
<polygon fill="midnightblue" stroke="midnightblue" points="160.87,-182.15 161.31,-171.57 154.37,-179.57 160.87,-182.15"/>
</g>
<!-- Node6 -->
<g id="node6" class="node">
<title>Node6</title>
<g id="a_node6"><a xlink:href="group__tools__drafting__operation.html#ga4e20419a6d4623f21c05179fc8b6df95" target="_top" xlink:title="Construct drafting sheet axes.">
<polygon fill="white" stroke="black" points="16,-228.5 16,-247.5 83,-247.5 83,-228.5 16,-228.5"/>
<text text-anchor="middle" x="49.5" y="-235.5" font-family="Helvetica,sans-Serif" font-size="10.00">draft_axes</text>
</a>
</g>
</g>
<!-- Node5&#45;&gt;Node6 -->
<g id="edge5" class="edge">
<title>Node5&#45;&gt;Node6</title>
<path fill="none" stroke="midnightblue" d="M144.72,-177.92C141.44,-180.58 138.1,-183.34 135,-186 118.52,-200.12 117.42,-207.51 99,-219 93.17,-222.64 86.52,-225.79 80.07,-228.42"/>
<polygon fill="midnightblue" stroke="midnightblue" points="146.96,-180.61 152.59,-171.63 142.59,-175.14 146.96,-180.61"/>
</g>
<!-- Node5&#45;&gt;Node7 -->
<g id="edge7" class="edge">
<title>Node5&#45;&gt;Node7</title>
<path fill="none" stroke="midnightblue" d="M142.63,-178.08C139.88,-180.56 137.26,-183.22 135,-186 112.68,-213.45 125.19,-233.21 99,-257 94.85,-260.77 89.87,-263.83 84.69,-266.3"/>
<polygon fill="midnightblue" stroke="midnightblue" points="144.96,-180.7 150.46,-171.64 140.51,-175.29 144.96,-180.7"/>
</g>
<!-- Node5&#45;&gt;Node8 -->
<g id="edge8" class="edge">
<title>Node5&#45;&gt;Node8</title>
<path fill="none" stroke="midnightblue" d="M126.35,-149.17C110.99,-144.08 93.62,-138.31 79.38,-133.59"/>
<polygon fill="midnightblue" stroke="midnightblue" points="125.51,-152.58 136.11,-152.41 127.72,-145.94 125.51,-152.58"/>
</g>
<!-- Node5&#45;&gt;Node9 -->
<g id="edge9" class="edge">
<title>Node5&#45;&gt;Node9</title>
<path fill="none" stroke="midnightblue" d="M148.9,-145.31C136.24,-132.91 117.68,-116.27 99,-105 93.04,-101.4 86.27,-98.25 79.73,-95.6"/>
<polygon fill="midnightblue" stroke="midnightblue" points="146.43,-147.78 155.97,-152.39 151.38,-142.84 146.43,-147.78"/>
</g>
<!-- Node5&#45;&gt;Node10 -->
<g id="edge10" class="edge">
<title>Node5&#45;&gt;Node10</title>
<path fill="none" stroke="midnightblue" d="M156.1,-142.97C145.32,-121.77 125.27,-87.75 99,-67 94.17,-63.19 88.49,-60.06 82.74,-57.52"/>
<polygon fill="midnightblue" stroke="midnightblue" points="153.1,-144.79 160.64,-152.23 159.39,-141.71 153.1,-144.79"/>
</g>
<!-- Node11 -->
<g id="node11" class="node">
<title>Node11</title>
<g id="a_node11"><a xlink:href="group__tools__drafting__primitive.html#gada1e771ce89ef86b6241c43dc01bf62d" target="_top" xlink:title="Draft a polygon with configurable style.">
<polygon fill="white" stroke="black" points="8,-190.5 8,-209.5 91,-209.5 91,-190.5 8,-190.5"/>
<text text-anchor="middle" x="49.5" y="-197.5" font-family="Helvetica,sans-Serif" font-size="10.00">draft_polygon</text>
</a>
</g>
</g>
<!-- Node5&#45;&gt;Node11 -->
<g id="edge11" class="edge">
<title>Node5&#45;&gt;Node11</title>
<path fill="none" stroke="midnightblue" d="M126.35,-174.83C110.99,-179.92 93.62,-185.69 79.38,-190.41"/>
<polygon fill="midnightblue" stroke="midnightblue" points="127.72,-178.06 136.11,-171.59 125.51,-171.42 127.72,-178.06"/>
</g>
<!-- Node12 -->
<g id="node12" class="node">
<title>Node12</title>
<g id="a_node12"><a xlink:href="group__tools__drafting__primitive.html#ga20eb57e9d25186784df7428089e3a2ae" target="_top" xlink:title="Draft a rectangle with configurable style.">
<polygon fill="white" stroke="black" points="4.5,-152.5 4.5,-171.5 94.5,-171.5 94.5,-152.5 4.5,-152.5"/>
<text text-anchor="middle" x="49.5" y="-159.5" font-family="Helvetica,sans-Serif" font-size="10.00">draft_rectangle</text>
</a>
</g>
</g>
<!-- Node5&#45;&gt;Node12 -->
<g id="edge12" class="edge">
<title>Node5&#45;&gt;Node12</title>
<path fill="none" stroke="midnightblue" d="M124.69,-162C114.96,-162 104.5,-162 94.6,-162"/>
<polygon fill="midnightblue" stroke="midnightblue" points="124.92,-165.5 134.92,-162 124.92,-158.5 124.92,-165.5"/>
</g>
<!-- Node5&#45;&gt;Node13 -->
<g id="edge13" class="edge">
<title>Node5&#45;&gt;Node13</title>
<path fill="none" stroke="midnightblue" d="M160.06,-142.13C151.96,-113.42 133.23,-60.36 99,-29 94.47,-24.85 88.92,-21.56 83.22,-18.97"/>
<polygon fill="midnightblue" stroke="midnightblue" points="156.78,-143.4 162.74,-152.16 163.54,-141.6 156.78,-143.4"/>
</g>
</g>
</svg>
