<?xml version="1.0" encoding="UTF-8" standalone="no"?>
<!DOCTYPE svg PUBLIC "-//W3C//DTD SVG 1.1//EN"
 "http://www.w3.org/Graphics/SVG/1.1/DTD/svg11.dtd">
<!-- Generated by graphviz version 2.43.0 (0)
 -->
<!-- Title: tailn Pages: 1 -->
<svg width="154pt" height="66pt"
 viewBox="0.00 0.00 154.00 66.00" xmlns="http://www.w3.org/2000/svg" xmlns:xlink="http://www.w3.org/1999/xlink">
<g id="graph0" class="graph" transform="scale(1 1) rotate(0) translate(4 62)">
<title>tailn</title>
<polygon fill="white" stroke="transparent" points="-4,4 -4,-62 150,-62 150,4 -4,4"/>
<!-- Node1 -->
<g id="node1" class="node">
<title>Node1</title>
<g id="a_node1"><a xlink:title="Return a list containing all but the first n elements of an iterable value.">
<polygon fill="#bfbfbf" stroke="black" points="108,-19.5 108,-38.5 146,-38.5 146,-19.5 108,-19.5"/>
<text text-anchor="middle" x="127" y="-26.5" font-family="Helvetica,sans-Serif" font-size="10.00">tailn</text>
</a>
</g>
</g>
<!-- Node2 -->
<g id="node2" class="node">
<title>Node2</title>
<g id="a_node2"><a xlink:href="group__parts__3d__fastener__catch__latch.html#gaa90b197081dba0e1fbe7c92aa4079279" target="_top" xlink:title="A catch latch generator.">
<polygon fill="white" stroke="black" points="0,-38.5 0,-57.5 72,-57.5 72,-38.5 0,-38.5"/>
<text text-anchor="middle" x="36" y="-45.5" font-family="Helvetica,sans-Serif" font-size="10.00">catch_latch</text>
</a>
</g>
</g>
<!-- Node1&#45;&gt;Node2 -->
<g id="edge1" class="edge">
<title>Node1&#45;&gt;Node2</title>
<path fill="none" stroke="midnightblue" d="M98.17,-34.94C89.97,-36.69 80.88,-38.63 72.28,-40.47"/>
<polygon fill="midnightblue" stroke="midnightblue" points="98.94,-38.36 107.99,-32.84 97.48,-31.51 98.94,-38.36"/>
</g>
<!-- Node3 -->
<g id="node3" class="node">
<title>Node3</title>
<g id="a_node3"><a xlink:href="group__datatypes__table.html#ga8d212217f9acb803e3107f488d5523e6" target="_top" xlink:title="Write formatted map entries to the console.">
<polygon fill="white" stroke="black" points="0.5,-0.5 0.5,-19.5 71.5,-19.5 71.5,-0.5 0.5,-0.5"/>
<text text-anchor="middle" x="36" y="-7.5" font-family="Helvetica,sans-Serif" font-size="10.00">table_write</text>
</a>
</g>
</g>
<!-- Node1&#45;&gt;Node3 -->
<g id="edge2" class="edge">
<title>Node1&#45;&gt;Node3</title>
<path fill="none" stroke="midnightblue" d="M97.97,-23.02C89.59,-21.23 80.3,-19.24 71.55,-17.38"/>
<polygon fill="midnightblue" stroke="midnightblue" points="97.48,-26.49 107.99,-25.16 98.94,-19.64 97.48,-26.49"/>
</g>
</g>
</svg>
