<?xml version="1.0" encoding="UTF-8" standalone="no"?>
<!DOCTYPE svg PUBLIC "-//W3C//DTD SVG 1.1//EN"
 "http://www.w3.org/Graphics/SVG/1.1/DTD/svg11.dtd">
<!-- Generated by graphviz version 2.43.0 (0)
 -->
<!-- Title: table_get_row_index Pages: 1 -->
<svg width="387pt" height="123pt"
 viewBox="0.00 0.00 387.00 123.00" xmlns="http://www.w3.org/2000/svg" xmlns:xlink="http://www.w3.org/1999/xlink">
<g id="graph0" class="graph" transform="scale(1 1) rotate(0) translate(4 119)">
<title>table_get_row_index</title>
<polygon fill="white" stroke="transparent" points="-4,4 -4,-119 383,-119 383,4 -4,4"/>
<!-- Node1 -->
<g id="node1" class="node">
<title>Node1</title>
<g id="a_node1"><a xlink:title="Get the table row index that matches a table row identifier.">
<polygon fill="#bfbfbf" stroke="black" points="261,-38.5 261,-57.5 379,-57.5 379,-38.5 261,-38.5"/>
<text text-anchor="middle" x="320" y="-45.5" font-family="Helvetica,sans-Serif" font-size="10.00">table_get_row_index</text>
</a>
</g>
</g>
<!-- Node2 -->
<g id="node2" class="node">
<title>Node2</title>
<g id="a_node2"><a xlink:href="group__datatypes__table.html#ga8a4429649e8b06d9f492e1a0d2653656" target="_top" xlink:title="Perform basic format checks on a table and output errors to console.">
<polygon fill="white" stroke="black" points="150,-76.5 150,-95.5 225,-95.5 225,-76.5 150,-76.5"/>
<text text-anchor="middle" x="187.5" y="-83.5" font-family="Helvetica,sans-Serif" font-size="10.00">table_check</text>
</a>
</g>
</g>
<!-- Node1&#45;&gt;Node2 -->
<g id="edge1" class="edge">
<title>Node1&#45;&gt;Node2</title>
<path fill="none" stroke="midnightblue" d="M276.45,-60.39C258.58,-65.59 238.11,-71.55 221.42,-76.41"/>
<polygon fill="midnightblue" stroke="midnightblue" points="277.45,-63.75 286.07,-57.59 275.49,-57.02 277.45,-63.75"/>
</g>
<!-- Node5 -->
<g id="node5" class="node">
<title>Node5</title>
<g id="a_node5"><a xlink:href="group__datatypes__table.html#gaafc45abc1b8026ee1518fad87a042be3" target="_top" xlink:title="Dump a table to the console.">
<polygon fill="white" stroke="black" points="150.5,-38.5 150.5,-57.5 224.5,-57.5 224.5,-38.5 150.5,-38.5"/>
<text text-anchor="middle" x="187.5" y="-45.5" font-family="Helvetica,sans-Serif" font-size="10.00">table_dump</text>
</a>
</g>
</g>
<!-- Node1&#45;&gt;Node5 -->
<g id="edge4" class="edge">
<title>Node1&#45;&gt;Node5</title>
<path fill="none" stroke="midnightblue" d="M250.56,-48C241.65,-48 232.82,-48 224.74,-48"/>
<polygon fill="midnightblue" stroke="midnightblue" points="250.62,-51.5 260.62,-48 250.62,-44.5 250.62,-51.5"/>
</g>
<!-- Node6 -->
<g id="node6" class="node">
<title>Node6</title>
<g id="a_node6"><a xlink:href="group__datatypes__table.html#ga8d212217f9acb803e3107f488d5523e6" target="_top" xlink:title="Write formatted map entries to the console.">
<polygon fill="white" stroke="black" points="152,-0.5 152,-19.5 223,-19.5 223,-0.5 152,-0.5"/>
<text text-anchor="middle" x="187.5" y="-7.5" font-family="Helvetica,sans-Serif" font-size="10.00">table_write</text>
</a>
</g>
</g>
<!-- Node1&#45;&gt;Node6 -->
<g id="edge5" class="edge">
<title>Node1&#45;&gt;Node6</title>
<path fill="none" stroke="midnightblue" d="M276.45,-35.61C258.58,-30.41 238.11,-24.45 221.42,-19.59"/>
<polygon fill="midnightblue" stroke="midnightblue" points="275.49,-38.98 286.07,-38.41 277.45,-32.25 275.49,-38.98"/>
</g>
<!-- Node3 -->
<g id="node3" class="node">
<title>Node3</title>
<g id="a_node3"><a xlink:href="group__datatypes__table.html#ga7a45ee72b36421f4e73cfba4488f14be" target="_top" xlink:title="Dump table getter functions to the console.">
<polygon fill="white" stroke="black" points="0,-95.5 0,-114.5 114,-114.5 114,-95.5 0,-95.5"/>
<text text-anchor="middle" x="57" y="-102.5" font-family="Helvetica,sans-Serif" font-size="10.00">table_dump_getters</text>
</a>
</g>
</g>
<!-- Node2&#45;&gt;Node3 -->
<g id="edge2" class="edge">
<title>Node2&#45;&gt;Node3</title>
<path fill="none" stroke="midnightblue" d="M139.6,-92.93C131.44,-94.14 122.87,-95.41 114.48,-96.65"/>
<polygon fill="midnightblue" stroke="midnightblue" points="140.3,-96.37 149.68,-91.44 139.27,-89.45 140.3,-96.37"/>
</g>
<!-- Node4 -->
<g id="node4" class="node">
<title>Node4</title>
<g id="a_node4"><a xlink:href="group__common__validation.html#ga19d0234700fba9de9fb0cba52a3d8e17" target="_top" xlink:title="Test data structure db and output the start of test to the test log.">
<polygon fill="white" stroke="black" points="0,-57.5 0,-76.5 114,-76.5 114,-57.5 0,-57.5"/>
<text text-anchor="middle" x="57" y="-64.5" font-family="Helvetica,sans-Serif" font-size="10.00">table_validate_start</text>
</a>
</g>
</g>
<!-- Node2&#45;&gt;Node4 -->
<g id="edge3" class="edge">
<title>Node2&#45;&gt;Node4</title>
<path fill="none" stroke="midnightblue" d="M139.6,-79.07C131.44,-77.86 122.87,-76.59 114.48,-75.35"/>
<polygon fill="midnightblue" stroke="midnightblue" points="139.27,-82.55 149.68,-80.56 140.3,-75.63 139.27,-82.55"/>
</g>
</g>
</svg>
