<?xml version="1.0" encoding="UTF-8" standalone="no"?>
<!DOCTYPE svg PUBLIC "-//W3C//DTD SVG 1.1//EN"
 "http://www.w3.org/Graphics/SVG/1.1/DTD/svg11.dtd">
<!-- Generated by graphviz version 2.43.0 (0)
 -->
<!-- Title: sum Pages: 1 -->
<svg width="497pt" height="218pt"
 viewBox="0.00 0.00 497.00 218.00" xmlns="http://www.w3.org/2000/svg" xmlns:xlink="http://www.w3.org/1999/xlink">
<g id="graph0" class="graph" transform="scale(1 1) rotate(0) translate(4 214)">
<title>sum</title>
<polygon fill="white" stroke="transparent" points="-4,4 -4,-214 493,-214 493,4 -4,4"/>
<!-- Node1 -->
<g id="node1" class="node">
<title>Node1</title>
<g id="a_node1"><a xlink:title="Compute the sum of a list of numbers.">
<polygon fill="#bfbfbf" stroke="black" points="451,-38.5 451,-57.5 489,-57.5 489,-38.5 451,-38.5"/>
<text text-anchor="middle" x="470" y="-45.5" font-family="Helvetica,sans-Serif" font-size="10.00">sum</text>
</a>
</g>
</g>
<!-- Node2 -->
<g id="node2" class="node">
<title>Node2</title>
<g id="a_node2"><a xlink:href="group__tools__extrude.html#ga45661244067bf945b684550c3263ee45" target="_top" xlink:title="Linearly extrude a 2d shape with multi&#45;segment uniformly&#45;spaced profile scaling.">
<polygon fill="white" stroke="black" points="302,-76.5 302,-95.5 415,-95.5 415,-76.5 302,-76.5"/>
<text text-anchor="middle" x="358.5" y="-83.5" font-family="Helvetica,sans-Serif" font-size="10.00">extrude_linear_mss</text>
</a>
</g>
</g>
<!-- Node1&#45;&gt;Node2 -->
<g id="edge1" class="edge">
<title>Node1&#45;&gt;Node2</title>
<path fill="none" stroke="midnightblue" d="M441.23,-57.64C424.63,-63.4 403.62,-70.69 387.06,-76.44"/>
<polygon fill="midnightblue" stroke="midnightblue" points="442.62,-60.86 450.92,-54.27 440.32,-54.25 442.62,-60.86"/>
</g>
<!-- Node9 -->
<g id="node9" class="node">
<title>Node9</title>
<g id="a_node9"><a xlink:href="group__parts__3d__enclosure__project__box__rectangle.html#ga6a5d093d732e65556c46252220f2c4b6" target="_top" xlink:title="A rectangular box maker for project boxes, enclosures and housings.">
<polygon fill="white" stroke="black" points="133.5,-0.5 133.5,-19.5 258.5,-19.5 258.5,-0.5 133.5,-0.5"/>
<text text-anchor="middle" x="196" y="-7.5" font-family="Helvetica,sans-Serif" font-size="10.00">project_box_rectangle</text>
</a>
</g>
</g>
<!-- Node1&#45;&gt;Node9 -->
<g id="edge11" class="edge">
<title>Node1&#45;&gt;Node9</title>
<path fill="none" stroke="midnightblue" d="M440.74,-44.05C397.95,-38.07 315.67,-26.58 258.61,-18.61"/>
<polygon fill="midnightblue" stroke="midnightblue" points="440.34,-47.53 450.73,-45.45 441.31,-40.6 440.34,-47.53"/>
</g>
<!-- Node3 -->
<g id="node3" class="node">
<title>Node3</title>
<g id="a_node3"><a xlink:href="group__parts__3d__fastener__catch__latch.html#gaa90b197081dba0e1fbe7c92aa4079279" target="_top" xlink:title="A catch latch generator.">
<polygon fill="white" stroke="black" points="160,-190.5 160,-209.5 232,-209.5 232,-190.5 160,-190.5"/>
<text text-anchor="middle" x="196" y="-197.5" font-family="Helvetica,sans-Serif" font-size="10.00">catch_latch</text>
</a>
</g>
</g>
<!-- Node2&#45;&gt;Node3 -->
<g id="edge2" class="edge">
<title>Node2&#45;&gt;Node3</title>
<path fill="none" stroke="midnightblue" d="M344.96,-103.99C329.05,-125.48 299.58,-161.03 266,-181 255.75,-187.1 243.48,-191.29 232.15,-194.16"/>
<polygon fill="midnightblue" stroke="midnightblue" points="347.91,-105.88 350.93,-95.72 342.24,-101.78 347.91,-105.88"/>
</g>
<!-- Node4 -->
<g id="node4" class="node">
<title>Node4</title>
<g id="a_node4"><a xlink:href="group__parts__3d__enclosure__clamps.html#ga8fd874789132e42e5470328d18560f1a" target="_top" xlink:title="A clamp, bushing, and/or grip for wire/hose wall penetrations.">
<polygon fill="white" stroke="black" points="164.5,-152.5 164.5,-171.5 227.5,-171.5 227.5,-152.5 164.5,-152.5"/>
<text text-anchor="middle" x="196" y="-159.5" font-family="Helvetica,sans-Serif" font-size="10.00">clamp_cg</text>
</a>
</g>
</g>
<!-- Node2&#45;&gt;Node4 -->
<g id="edge3" class="edge">
<title>Node2&#45;&gt;Node4</title>
<path fill="none" stroke="midnightblue" d="M336.3,-101.68C318.36,-114.33 291.55,-131.81 266,-143 253.82,-148.33 239.77,-152.53 227.54,-155.6"/>
<polygon fill="midnightblue" stroke="midnightblue" points="338.74,-104.24 344.83,-95.56 334.66,-98.55 338.74,-104.24"/>
</g>
<!-- Node6 -->
<g id="node6" class="node">
<title>Node6</title>
<g id="a_node6"><a xlink:href="group__parts__3d__bearing__bearing__linear__rod.html#ga48399d5e708b4894494c69b2d1e88e26" target="_top" xlink:title="Transform 2d or 3d shape into a linear rod ball or sled bearing.">
<polygon fill="white" stroke="black" points="126,-114.5 126,-133.5 266,-133.5 266,-114.5 126,-114.5"/>
<text text-anchor="middle" x="196" y="-121.5" font-family="Helvetica,sans-Serif" font-size="10.00">make_bearing_linear_rod</text>
</a>
</g>
</g>
<!-- Node2&#45;&gt;Node6 -->
<g id="edge5" class="edge">
<title>Node2&#45;&gt;Node6</title>
<path fill="none" stroke="midnightblue" d="M307.25,-97.9C284.69,-103.24 258.44,-109.45 237.21,-114.48"/>
<polygon fill="midnightblue" stroke="midnightblue" points="308.07,-101.3 317,-95.59 306.46,-94.49 308.07,-101.3"/>
</g>
<!-- Node7 -->
<g id="node7" class="node">
<title>Node7</title>
<g id="a_node7"><a xlink:href="group__models__3d__misc__omdl__logo.html#gab176f64dad7e83d4fb056be44b71f630" target="_top" xlink:title="Standard omdl logo.">
<polygon fill="white" stroke="black" points="162,-76.5 162,-95.5 230,-95.5 230,-76.5 162,-76.5"/>
<text text-anchor="middle" x="196" y="-83.5" font-family="Helvetica,sans-Serif" font-size="10.00">omdl_logo</text>
</a>
</g>
</g>
<!-- Node2&#45;&gt;Node7 -->
<g id="edge6" class="edge">
<title>Node2&#45;&gt;Node7</title>
<path fill="none" stroke="midnightblue" d="M291.57,-86C270.41,-86 247.89,-86 230.13,-86"/>
<polygon fill="midnightblue" stroke="midnightblue" points="291.82,-89.5 301.82,-86 291.82,-82.5 291.82,-89.5"/>
</g>
<!-- Node8 -->
<g id="node8" class="node">
<title>Node8</title>
<g id="a_node8"><a xlink:href="group__parts__3d__computer__pci__bracket.html#gaf56631cf80d8e5f0b77736b17b94ecd9" target="_top" xlink:title="PCI slot cover and adapter card bracket generator.">
<polygon fill="white" stroke="black" points="160,-38.5 160,-57.5 232,-57.5 232,-38.5 160,-38.5"/>
<text text-anchor="middle" x="196" y="-45.5" font-family="Helvetica,sans-Serif" font-size="10.00">pci_bracket</text>
</a>
</g>
</g>
<!-- Node2&#45;&gt;Node8 -->
<g id="edge8" class="edge">
<title>Node2&#45;&gt;Node8</title>
<path fill="none" stroke="midnightblue" d="M307.18,-74.09C282.77,-68.31 254.04,-61.5 232.04,-56.3"/>
<polygon fill="midnightblue" stroke="midnightblue" points="306.46,-77.51 317,-76.41 308.07,-70.7 306.46,-77.51"/>
</g>
<!-- Node2&#45;&gt;Node9 -->
<g id="edge9" class="edge">
<title>Node2&#45;&gt;Node9</title>
<path fill="none" stroke="midnightblue" d="M336.3,-70.32C318.36,-57.67 291.55,-40.19 266,-29 257.58,-25.31 248.26,-22.17 239.27,-19.56"/>
<polygon fill="midnightblue" stroke="midnightblue" points="334.66,-73.45 344.83,-76.44 338.74,-67.76 334.66,-73.45"/>
</g>
<!-- Node5 -->
<g id="node5" class="node">
<title>Node5</title>
<g id="a_node5"><a xlink:href="group__parts__3d__enclosure__power__strip.html#ga191779dedf39e4fd769a8dc96b0f8c9e" target="_top" xlink:title="A power strip generator for single gang electrical receptacles.">
<polygon fill="white" stroke="black" points="0,-76.5 0,-95.5 90,-95.5 90,-76.5 0,-76.5"/>
<text text-anchor="middle" x="45" y="-83.5" font-family="Helvetica,sans-Serif" font-size="10.00">power_strip_sg</text>
</a>
</g>
</g>
<!-- Node4&#45;&gt;Node5 -->
<g id="edge4" class="edge">
<title>Node4&#45;&gt;Node5</title>
<path fill="none" stroke="midnightblue" d="M154.52,-153.4C144.93,-150.67 134.91,-147.24 126,-143 99.05,-130.18 71.56,-108.25 56.86,-95.66"/>
<polygon fill="midnightblue" stroke="midnightblue" points="153.73,-156.81 164.29,-155.99 155.52,-150.04 153.73,-156.81"/>
</g>
<!-- Node7&#45;&gt;Node5 -->
<g id="edge7" class="edge">
<title>Node7&#45;&gt;Node5</title>
<path fill="none" stroke="midnightblue" d="M151.84,-86C132.42,-86 109.52,-86 90,-86"/>
<polygon fill="midnightblue" stroke="midnightblue" points="151.93,-89.5 161.93,-86 151.93,-82.5 151.93,-89.5"/>
</g>
<!-- Node9&#45;&gt;Node5 -->
<g id="edge10" class="edge">
<title>Node9&#45;&gt;Node5</title>
<path fill="none" stroke="midnightblue" d="M141.48,-22.71C136.16,-24.57 130.91,-26.67 126,-29 99.05,-41.82 71.56,-63.75 56.86,-76.34"/>
<polygon fill="midnightblue" stroke="midnightblue" points="142.66,-26.01 151.09,-19.6 140.5,-19.35 142.66,-26.01"/>
</g>
</g>
</svg>
