<?xml version="1.0" encoding="UTF-8" standalone="no"?>
<!DOCTYPE svg PUBLIC "-//W3C//DTD SVG 1.1//EN"
 "http://www.w3.org/Graphics/SVG/1.1/DTD/svg11.dtd">
<!-- Generated by graphviz version 2.43.0 (0)
 -->
<!-- Title: star2d Pages: 1 -->
<svg width="374pt" height="166pt"
 viewBox="0.00 0.00 374.00 166.18" xmlns="http://www.w3.org/2000/svg" xmlns:xlink="http://www.w3.org/1999/xlink">
<g id="graph0" class="graph" transform="scale(1 1) rotate(0) translate(4 162.18)">
<title>star2d</title>
<polygon fill="white" stroke="transparent" points="-4,4 -4,-162.18 370,-162.18 370,4 -4,4"/>
<!-- Node1 -->
<g id="node1" class="node">
<title>Node1</title>
<g id="a_node1"><a xlink:title="A two&#45;dimensional star.">
<polygon fill="#bfbfbf" stroke="black" points="0,-76.5 0,-95.5 47,-95.5 47,-76.5 0,-76.5"/>
<text text-anchor="middle" x="23.5" y="-83.5" font-family="Helvetica,sans-Serif" font-size="10.00">star2d</text>
</a>
</g>
</g>
<!-- Node2 -->
<g id="node2" class="node">
<title>Node2</title>
<g id="a_node2"><a xlink:href="group__units__angle.html#ga06a917b77748dfb74e765bcd7c4c0219" target="_top" xlink:title="Convert an angle from some units to another.">
<polygon fill="white" stroke="black" points="290.5,-123.5 290.5,-142.5 334.5,-142.5 334.5,-123.5 290.5,-123.5"/>
<text text-anchor="middle" x="312.5" y="-130.5" font-family="Helvetica,sans-Serif" font-size="10.00">angle</text>
</a>
</g>
</g>
<!-- Node1&#45;&gt;Node2 -->
<g id="edge1" class="edge">
<title>Node1&#45;&gt;Node2</title>
<path fill="none" stroke="midnightblue" d="M30.65,-95.55C40.04,-109.11 59.36,-133.39 83,-143 149.2,-169.92 235.26,-154.05 280.53,-142.24"/>
<polygon fill="midnightblue" stroke="midnightblue" points="281.61,-145.58 290.34,-139.58 279.77,-138.82 281.61,-145.58"/>
</g>
<!-- Node3 -->
<g id="node3" class="node">
<title>Node3</title>
<g id="a_node3"><a xlink:href="group__datatypes__iterable__operate.html#ga3d37c2b0067d1661724bd89955c8f6ce" target="_top" xlink:title="Return an element of an iterable when it exists or a default value otherwise.">
<polygon fill="white" stroke="black" points="113.5,-114.5 113.5,-133.5 192.5,-133.5 192.5,-114.5 113.5,-114.5"/>
<text text-anchor="middle" x="153" y="-121.5" font-family="Helvetica,sans-Serif" font-size="10.00">defined_e_or</text>
</a>
</g>
</g>
<!-- Node1&#45;&gt;Node3 -->
<g id="edge2" class="edge">
<title>Node1&#45;&gt;Node3</title>
<path fill="none" stroke="midnightblue" d="M47.21,-93.64C58.01,-97.21 71.14,-101.44 83,-105 90.53,-107.26 98.56,-109.56 106.37,-111.75"/>
<polygon fill="midnightblue" stroke="midnightblue" points="105.53,-115.15 116.1,-114.45 107.4,-108.4 105.53,-115.15"/>
</g>
<!-- Node4 -->
<g id="node4" class="node">
<title>Node4</title>
<g id="a_node4"><a xlink:href="group__math__polygon.html#ga7a0eff64929a142fc507615f83e3bd58" target="_top" xlink:title="Compute coordinates that round all of the vertices between each adjacent edges in 2D.">
<polygon fill="white" stroke="black" points="83,-76.5 83,-95.5 223,-95.5 223,-76.5 83,-76.5"/>
<text text-anchor="middle" x="153" y="-83.5" font-family="Helvetica,sans-Serif" font-size="10.00">polygon_round_eve_all_p</text>
</a>
</g>
</g>
<!-- Node1&#45;&gt;Node4 -->
<g id="edge3" class="edge">
<title>Node1&#45;&gt;Node4</title>
<path fill="none" stroke="midnightblue" d="M47,-86C54.51,-86 63.35,-86 72.67,-86"/>
<polygon fill="midnightblue" stroke="midnightblue" points="72.93,-89.5 82.93,-86 72.93,-82.5 72.93,-89.5"/>
</g>
<!-- Node5 -->
<g id="node5" class="node">
<title>Node5</title>
<g id="a_node5"><a xlink:href="group__tools__repeat.html#ga543a7c0b4c744d98e6197036da5681fe" target="_top" xlink:title="Radially repeat copies of child objects about a z&#45;axis radius.">
<polygon fill="white" stroke="black" points="112.5,-38.5 112.5,-57.5 193.5,-57.5 193.5,-38.5 112.5,-38.5"/>
<text text-anchor="middle" x="153" y="-45.5" font-family="Helvetica,sans-Serif" font-size="10.00">repeat_radial</text>
</a>
</g>
</g>
<!-- Node1&#45;&gt;Node5 -->
<g id="edge4" class="edge">
<title>Node1&#45;&gt;Node5</title>
<path fill="none" stroke="midnightblue" d="M47.21,-78.36C58.01,-74.79 71.14,-70.56 83,-67 90.53,-64.74 98.56,-62.44 106.37,-60.25"/>
<polygon fill="midnightblue" stroke="midnightblue" points="107.4,-63.6 116.1,-57.55 105.53,-56.85 107.4,-63.6"/>
</g>
<!-- Node8 -->
<g id="node8" class="node">
<title>Node8</title>
<g id="a_node8"><a xlink:href="group__math__triangle.html#gaab9b812d15418fd05c9d93f3bfcc1989" target="_top" xlink:title="Compute a set of vertex coordinates for a triangle given its side lengths in 2D.">
<polygon fill="white" stroke="black" points="97.5,-0.5 97.5,-19.5 208.5,-19.5 208.5,-0.5 97.5,-0.5"/>
<text text-anchor="middle" x="153" y="-7.5" font-family="Helvetica,sans-Serif" font-size="10.00">triangle2d_sss2ppp</text>
</a>
</g>
</g>
<!-- Node1&#45;&gt;Node8 -->
<g id="edge8" class="edge">
<title>Node1&#45;&gt;Node8</title>
<path fill="none" stroke="midnightblue" d="M31.72,-76.42C41.82,-63.7 61.35,-41.41 83,-29 86.86,-26.78 91,-24.82 95.25,-23.07"/>
<polygon fill="midnightblue" stroke="midnightblue" points="96.52,-26.34 104.7,-19.6 94.1,-19.77 96.52,-26.34"/>
</g>
<!-- Node5&#45;&gt;Node2 -->
<g id="edge5" class="edge">
<title>Node5&#45;&gt;Node2</title>
<path fill="none" stroke="midnightblue" d="M193.61,-56.2C203.48,-58.97 213.85,-62.52 223,-67 249.93,-80.17 276.99,-101.88 293.97,-116.78"/>
<polygon fill="midnightblue" stroke="midnightblue" points="291.66,-119.42 301.45,-123.48 296.33,-114.21 291.66,-119.42"/>
</g>
<!-- Node6 -->
<g id="node6" class="node">
<title>Node6</title>
<g id="a_node6"><a xlink:href="group__datatypes__euclidean.html#ga3d5c07c70f271bcf9144f50ce8620a89" target="_top" xlink:title="Compute the angle between two lines or vectors in a 3d or 2d&#45;space.">
<polygon fill="white" stroke="black" points="285,-57.5 285,-76.5 340,-76.5 340,-57.5 285,-57.5"/>
<text text-anchor="middle" x="312.5" y="-64.5" font-family="Helvetica,sans-Serif" font-size="10.00">angle_ll</text>
</a>
</g>
</g>
<!-- Node5&#45;&gt;Node6 -->
<g id="edge6" class="edge">
<title>Node5&#45;&gt;Node6</title>
<path fill="none" stroke="midnightblue" d="M193.74,-52.79C218.51,-55.78 250.16,-59.6 274.42,-62.53"/>
<polygon fill="midnightblue" stroke="midnightblue" points="274.3,-66.04 284.65,-63.76 275.14,-59.09 274.3,-66.04"/>
</g>
<!-- Node7 -->
<g id="node7" class="node">
<title>Node7</title>
<g id="a_node7"><a xlink:href="group__math__polygon.html#ga6aea22d31f8f086c44c7241eee3ab4c2" target="_top" xlink:title="Compute coordinates for an n&#45;sided regular polygon in 2D.">
<polygon fill="white" stroke="black" points="259,-19.5 259,-38.5 366,-38.5 366,-19.5 259,-19.5"/>
<text text-anchor="middle" x="312.5" y="-26.5" font-family="Helvetica,sans-Serif" font-size="10.00">polygon_regular_p</text>
</a>
</g>
</g>
<!-- Node5&#45;&gt;Node7 -->
<g id="edge7" class="edge">
<title>Node5&#45;&gt;Node7</title>
<path fill="none" stroke="midnightblue" d="M193.74,-43.21C210.43,-41.19 230.24,-38.8 248.81,-36.56"/>
<polygon fill="midnightblue" stroke="midnightblue" points="249.46,-40.01 258.97,-35.34 248.62,-33.06 249.46,-40.01"/>
</g>
</g>
</svg>
