<?xml version="1.0" encoding="UTF-8" standalone="no"?>
<!DOCTYPE svg PUBLIC "-//W3C//DTD SVG 1.1//EN"
 "http://www.w3.org/Graphics/SVG/1.1/DTD/svg11.dtd">
<!-- Generated by graphviz version 2.43.0 (0)
 -->
<!-- Title: Fastener Pages: 1 -->
<svg width="317pt" height="35pt"
 viewBox="0.00 0.00 317.00 34.59" xmlns="http://www.w3.org/2000/svg" xmlns:xlink="http://www.w3.org/1999/xlink">
<g id="graph0" class="graph" transform="scale(1 1) rotate(0) translate(4 30.59)">
<title>Fastener</title>
<polygon fill="white" stroke="transparent" points="-4,4 -4,-30.59 313,-30.59 313,4 -4,4"/>
<!-- Node3 -->
<g id="node1" class="node">
<title>Node3</title>
<g id="a_node1"><a xlink:href="group__models__3d__fastener__screws.html" target="_top" xlink:title="Screws and screw bores.">
<polygon fill="white" stroke="black" points="309,-26.59 258,-26.59 258,-7.59 309,-7.59 309,-26.59"/>
<text text-anchor="middle" x="283.5" y="-14.59" font-family="Helvetica,sans-Serif" font-size="10.00">Screws</text>
</a>
</g>
</g>
<!-- Node1 -->
<g id="node2" class="node">
<title>Node1</title>
<g id="a_node2"><a xlink:title="Fasteners, connectors, latches, and hinges.">
<polygon fill="#bfbfbf" stroke="black" points="162,-26.59 104,-26.59 104,-7.59 162,-7.59 162,-26.59"/>
<text text-anchor="middle" x="133" y="-14.59" font-family="Helvetica,sans-Serif" font-size="10.00">Fastener</text>
</a>
</g>
</g>
<!-- Node1&#45;&gt;Node3 -->
<g id="edge2" class="edge">
<title>Node1&#45;&gt;Node3</title>
<path fill="none" stroke="black" d="M172.51,-17.09C199.42,-17.09 234.54,-17.09 257.78,-17.09"/>
<polygon fill="black" stroke="black" points="172.28,-13.59 162.28,-17.09 172.28,-20.59 172.28,-13.59"/>
</g>
<!-- Node1&#45;&gt;Node3 -->
<g id="edge3" class="edge">
<title>Node1&#45;&gt;Node3</title>
<path fill="none" stroke="darkgreen" stroke-dasharray="5,2" d="M160.45,-7.59C166.77,-5.73 173.56,-4.05 180,-3.09 206.38,0.83 213.67,1.13 240,-3.09 245.98,-4.05 252.27,-5.73 258.11,-7.59"/>
<text text-anchor="middle" x="210" y="-6.09" font-family="Helvetica,sans-Serif" font-size="10.00">screws.scad</text>
</g>
<!-- Node2 -->
<g id="node3" class="node">
<title>Node2</title>
<g id="a_node3"><a xlink:href="group__models__3d.html" target="_top" xlink:title="3d black&#45;box models of commodity components.">
<polygon fill="white" stroke="black" points="67,-26.59 0,-26.59 0,-7.59 67,-7.59 67,-26.59"/>
<text text-anchor="middle" x="33.5" y="-14.59" font-family="Helvetica,sans-Serif" font-size="10.00">3d Models</text>
</a>
</g>
</g>
<!-- Node2&#45;&gt;Node1 -->
<g id="edge1" class="edge">
<title>Node2&#45;&gt;Node1</title>
<path fill="none" stroke="black" d="M77.49,-17.09C86.39,-17.09 95.54,-17.09 103.75,-17.09"/>
<polygon fill="black" stroke="black" points="77.24,-13.59 67.24,-17.09 77.24,-20.59 77.24,-13.59"/>
</g>
</g>
</svg>
