<?xml version="1.0" encoding="UTF-8" standalone="no"?>
<!DOCTYPE svg PUBLIC "-//W3C//DTD SVG 1.1//EN"
 "http://www.w3.org/Graphics/SVG/1.1/DTD/svg11.dtd">
<!-- Generated by graphviz version 2.43.0 (0)
 -->
<!-- Title: table_exists Pages: 1 -->
<svg width="234pt" height="104pt"
 viewBox="0.00 0.00 234.00 104.00" xmlns="http://www.w3.org/2000/svg" xmlns:xlink="http://www.w3.org/1999/xlink">
<g id="graph0" class="graph" transform="scale(1 1) rotate(0) translate(4 100)">
<title>table_exists</title>
<polygon fill="white" stroke="transparent" points="-4,4 -4,-100 230,-100 230,4 -4,4"/>
<!-- Node1 -->
<g id="node1" class="node">
<title>Node1</title>
<g id="a_node1"><a xlink:title="Test the existence of a table row identifier, table column identifier, or both.">
<polygon fill="#bfbfbf" stroke="black" points="150,-38.5 150,-57.5 226,-57.5 226,-38.5 150,-38.5"/>
<text text-anchor="middle" x="188" y="-45.5" font-family="Helvetica,sans-Serif" font-size="10.00">table_exists</text>
</a>
</g>
</g>
<!-- Node2 -->
<g id="node2" class="node">
<title>Node2</title>
<g id="a_node2"><a xlink:href="group__tools__drafting__operation.html#ga18ffa6ea975777b8ce07f900a6460c5f" target="_top" xlink:title="Construct a drafting sheet with frame, zone, grid, and origin.">
<polygon fill="white" stroke="black" points="21.5,-76.5 21.5,-95.5 92.5,-95.5 92.5,-76.5 21.5,-76.5"/>
<text text-anchor="middle" x="57" y="-83.5" font-family="Helvetica,sans-Serif" font-size="10.00">draft_sheet</text>
</a>
</g>
</g>
<!-- Node1&#45;&gt;Node2 -->
<g id="edge1" class="edge">
<title>Node1&#45;&gt;Node2</title>
<path fill="none" stroke="midnightblue" d="M144.45,-60.54C126.9,-65.7 106.89,-71.6 90.54,-76.41"/>
<polygon fill="midnightblue" stroke="midnightblue" points="145.84,-63.77 154.45,-57.59 143.87,-57.06 145.84,-63.77"/>
</g>
<!-- Node3 -->
<g id="node3" class="node">
<title>Node3</title>
<g id="a_node3"><a xlink:href="group__shapes__polyhedron__db.html#gaae64c8fb78026896742050d14a5e8911" target="_top" xlink:title="Construct a named polyhedron.">
<polygon fill="white" stroke="black" points="4,-38.5 4,-57.5 110,-57.5 110,-38.5 4,-38.5"/>
<text text-anchor="middle" x="57" y="-45.5" font-family="Helvetica,sans-Serif" font-size="10.00">ph_db_polyhedron</text>
</a>
</g>
</g>
<!-- Node1&#45;&gt;Node3 -->
<g id="edge2" class="edge">
<title>Node1&#45;&gt;Node3</title>
<path fill="none" stroke="midnightblue" d="M139.54,-48C129.96,-48 119.83,-48 110.1,-48"/>
<polygon fill="midnightblue" stroke="midnightblue" points="139.69,-51.5 149.69,-48 139.69,-44.5 139.69,-51.5"/>
</g>
<!-- Node4 -->
<g id="node4" class="node">
<title>Node4</title>
<g id="a_node4"><a xlink:href="group__datatypes__table.html#ga7a45ee72b36421f4e73cfba4488f14be" target="_top" xlink:title="Dump table getter functions to the console.">
<polygon fill="white" stroke="black" points="0,-0.5 0,-19.5 114,-19.5 114,-0.5 0,-0.5"/>
<text text-anchor="middle" x="57" y="-7.5" font-family="Helvetica,sans-Serif" font-size="10.00">table_dump_getters</text>
</a>
</g>
</g>
<!-- Node1&#45;&gt;Node4 -->
<g id="edge3" class="edge">
<title>Node1&#45;&gt;Node4</title>
<path fill="none" stroke="midnightblue" d="M144.45,-35.46C126.9,-30.3 106.89,-24.4 90.54,-19.59"/>
<polygon fill="midnightblue" stroke="midnightblue" points="143.87,-38.94 154.45,-38.41 145.84,-32.23 143.87,-38.94"/>
</g>
</g>
</svg>
