<?xml version="1.0" encoding="UTF-8" standalone="no"?>
<!DOCTYPE svg PUBLIC "-//W3C//DTD SVG 1.1//EN"
 "http://www.w3.org/Graphics/SVG/1.1/DTD/svg11.dtd">
<!-- Generated by graphviz version 2.43.0 (0)
 -->
<!-- Title: Imperial Pages: 1 -->
<svg width="253pt" height="138pt"
 viewBox="0.00 0.00 253.00 138.00" xmlns="http://www.w3.org/2000/svg" xmlns:xlink="http://www.w3.org/1999/xlink">
<g id="graph0" class="graph" transform="scale(1 1) rotate(0) translate(4 134)">
<title>Imperial</title>
<polygon fill="white" stroke="transparent" points="-4,4 -4,-134 249,-134 249,4 -4,4"/>
<!-- Node6 -->
<g id="node1" class="node">
<title>Node6</title>
<g id="a_node1"><a xlink:href="group__database__component__fastener__Imperial__Washers.html" target="_top" xlink:title=" ">
<polygon fill="white" stroke="black" points="245,-130 187,-130 187,-111 245,-111 245,-130"/>
<text text-anchor="middle" x="216" y="-118" font-family="Helvetica,sans-Serif" font-size="10.00">Washers</text>
</a>
</g>
</g>
<!-- Node4 -->
<g id="node2" class="node">
<title>Node4</title>
<g id="a_node2"><a xlink:href="group__database__component__fastener__Imperial__Nuts.html" target="_top" xlink:title=" ">
<polygon fill="white" stroke="black" points="235.5,-93 196.5,-93 196.5,-74 235.5,-74 235.5,-93"/>
<text text-anchor="middle" x="216" y="-81" font-family="Helvetica,sans-Serif" font-size="10.00">Nuts</text>
</a>
</g>
</g>
<!-- Node3 -->
<g id="node3" class="node">
<title>Node3</title>
<g id="a_node3"><a xlink:href="group__database__component__fastener__Imperial__Bolts.html" target="_top" xlink:title=" ">
<polygon fill="white" stroke="black" points="236.5,-56 195.5,-56 195.5,-37 236.5,-37 236.5,-56"/>
<text text-anchor="middle" x="216" y="-44" font-family="Helvetica,sans-Serif" font-size="10.00">Bolts</text>
</a>
</g>
</g>
<!-- Node5 -->
<g id="node4" class="node">
<title>Node5</title>
<g id="a_node4"><a xlink:href="group__database__component__fastener__Imperial__Screws.html" target="_top" xlink:title=" ">
<polygon fill="white" stroke="black" points="241.5,-19 190.5,-19 190.5,0 241.5,0 241.5,-19"/>
<text text-anchor="middle" x="216" y="-7" font-family="Helvetica,sans-Serif" font-size="10.00">Screws</text>
</a>
</g>
</g>
<!-- Node1 -->
<g id="node5" class="node">
<title>Node1</title>
<g id="a_node5"><a xlink:title=" ">
<polygon fill="#bfbfbf" stroke="black" points="151,-74 94,-74 94,-55 151,-55 151,-74"/>
<text text-anchor="middle" x="122.5" y="-62" font-family="Helvetica,sans-Serif" font-size="10.00">Imperial</text>
</a>
</g>
</g>
<!-- Node1&#45;&gt;Node6 -->
<g id="edge5" class="edge">
<title>Node1&#45;&gt;Node6</title>
<path fill="none" stroke="black" d="M148.39,-79.73C164.6,-89.65 185.26,-102.3 199.24,-110.86"/>
<polygon fill="black" stroke="black" points="149.79,-76.49 139.44,-74.25 146.14,-82.46 149.79,-76.49"/>
</g>
<!-- Node1&#45;&gt;Node4 -->
<g id="edge3" class="edge">
<title>Node1&#45;&gt;Node4</title>
<path fill="none" stroke="black" d="M161.37,-72.36C173.49,-74.88 186.37,-77.55 196.47,-79.65"/>
<polygon fill="black" stroke="black" points="161.95,-68.91 151.45,-70.3 160.53,-75.76 161.95,-68.91"/>
</g>
<!-- Node1&#45;&gt;Node3 -->
<g id="edge2" class="edge">
<title>Node1&#45;&gt;Node3</title>
<path fill="none" stroke="black" d="M161.43,-57.04C173.09,-54.75 185.44,-52.32 195.34,-50.37"/>
<polygon fill="black" stroke="black" points="160.59,-53.64 151.45,-59 161.94,-60.51 160.59,-53.64"/>
</g>
<!-- Node1&#45;&gt;Node5 -->
<g id="edge4" class="edge">
<title>Node1&#45;&gt;Node5</title>
<path fill="none" stroke="black" d="M148.33,-49.58C164.43,-39.9 184.95,-27.57 198.94,-19.16"/>
<polygon fill="black" stroke="black" points="146.21,-46.77 139.44,-54.92 149.81,-52.77 146.21,-46.77"/>
</g>
<!-- Node2 -->
<g id="node6" class="node">
<title>Node2</title>
<g id="a_node6"><a xlink:href="group__database__component__fastener.html" target="_top" xlink:title="Mechanical fastener specifications.">
<polygon fill="white" stroke="black" points="58,-74 0,-74 0,-55 58,-55 58,-74"/>
<text text-anchor="middle" x="29" y="-62" font-family="Helvetica,sans-Serif" font-size="10.00">Fastener</text>
</a>
</g>
</g>
<!-- Node2&#45;&gt;Node1 -->
<g id="edge1" class="edge">
<title>Node2&#45;&gt;Node1</title>
<path fill="none" stroke="black" d="M68.51,-64.5C76.97,-64.5 85.76,-64.5 93.7,-64.5"/>
<polygon fill="black" stroke="black" points="68.45,-61 58.45,-64.5 68.45,-68 68.45,-61"/>
</g>
</g>
</svg>
