<?xml version="1.0" encoding="UTF-8" standalone="no"?>
<!DOCTYPE svg PUBLIC "-//W3C//DTD SVG 1.1//EN"
 "http://www.w3.org/Graphics/SVG/1.1/DTD/svg11.dtd">
<!-- Generated by graphviz version 2.43.0 (0)
 -->
<!-- Title: ctable_exists Pages: 1 -->
<svg width="193pt" height="66pt"
 viewBox="0.00 0.00 193.00 66.00" xmlns="http://www.w3.org/2000/svg" xmlns:xlink="http://www.w3.org/1999/xlink">
<g id="graph0" class="graph" transform="scale(1 1) rotate(0) translate(4 62)">
<title>ctable_exists</title>
<polygon fill="white" stroke="transparent" points="-4,4 -4,-62 189,-62 189,4 -4,4"/>
<!-- Node1 -->
<g id="node1" class="node">
<title>Node1</title>
<g id="a_node1"><a xlink:title="Test the existence of a table row identifier, table column identifier, or both.">
<polygon fill="#bfbfbf" stroke="black" points="104,-19.5 104,-38.5 185,-38.5 185,-19.5 104,-19.5"/>
<text text-anchor="middle" x="144.5" y="-26.5" font-family="Helvetica,sans-Serif" font-size="10.00">ctable_exists</text>
</a>
</g>
</g>
<!-- Node2 -->
<g id="node2" class="node">
<title>Node2</title>
<g id="a_node2"><a xlink:href="group__models__3d__bearing__lmxuu.html#gaf396e2f094a50d28a1a3fcc294a1149a" target="_top" xlink:title="Linear motion bearing model.">
<polygon fill="white" stroke="black" points="10.5,-38.5 10.5,-57.5 57.5,-57.5 57.5,-38.5 10.5,-38.5"/>
<text text-anchor="middle" x="34" y="-45.5" font-family="Helvetica,sans-Serif" font-size="10.00">lmxuu</text>
</a>
</g>
</g>
<!-- Node1&#45;&gt;Node2 -->
<g id="edge1" class="edge">
<title>Node1&#45;&gt;Node2</title>
<path fill="none" stroke="midnightblue" d="M93.74,-37.71C81.16,-39.92 68.25,-42.18 57.75,-44.02"/>
<polygon fill="midnightblue" stroke="midnightblue" points="94.47,-41.14 103.71,-35.97 93.26,-34.24 94.47,-41.14"/>
</g>
<!-- Node3 -->
<g id="node3" class="node">
<title>Node3</title>
<g id="a_node3"><a xlink:href="group__models__3d__bearing__radial__ball.html#ga5493ed8f39baf9941e12118edf0bb7a8" target="_top" xlink:title="Radial ball bearing model.">
<polygon fill="white" stroke="black" points="0,-0.5 0,-19.5 68,-19.5 68,-0.5 0,-0.5"/>
<text text-anchor="middle" x="34" y="-7.5" font-family="Helvetica,sans-Serif" font-size="10.00">radial_ball</text>
</a>
</g>
</g>
<!-- Node1&#45;&gt;Node3 -->
<g id="edge2" class="edge">
<title>Node1&#45;&gt;Node3</title>
<path fill="none" stroke="midnightblue" d="M93.64,-20.27C84.95,-18.75 76.11,-17.2 68.02,-15.78"/>
<polygon fill="midnightblue" stroke="midnightblue" points="93.26,-23.76 103.71,-22.03 94.47,-16.86 93.26,-23.76"/>
</g>
</g>
</svg>
