<?xml version="1.0" encoding="UTF-8" standalone="no"?>
<!DOCTYPE svg PUBLIC "-//W3C//DTD SVG 1.1//EN"
 "http://www.w3.org/Graphics/SVG/1.1/DTD/svg11.dtd">
<!-- Generated by graphviz version 2.43.0 (0)
 -->
<!-- Title: triangle2d_sss2ppp Pages: 1 -->
<svg width="536pt" height="275pt"
 viewBox="0.00 0.00 536.00 275.00" xmlns="http://www.w3.org/2000/svg" xmlns:xlink="http://www.w3.org/1999/xlink">
<g id="graph0" class="graph" transform="scale(1 1) rotate(0) translate(4 271)">
<title>triangle2d_sss2ppp</title>
<polygon fill="white" stroke="transparent" points="-4,4 -4,-271 532,-271 532,4 -4,4"/>
<!-- Node1 -->
<g id="node1" class="node">
<title>Node1</title>
<g id="a_node1"><a xlink:title="Compute a set of vertex coordinates for a triangle given its side lengths in 2D.">
<polygon fill="#bfbfbf" stroke="black" points="417,-114.5 417,-133.5 528,-133.5 528,-114.5 417,-114.5"/>
<text text-anchor="middle" x="472.5" y="-121.5" font-family="Helvetica,sans-Serif" font-size="10.00">triangle2d_sss2ppp</text>
</a>
</g>
</g>
<!-- Node2 -->
<g id="node2" class="node">
<title>Node2</title>
<g id="a_node2"><a xlink:href="group__shapes__basic__3d.html#ga8a71b8cd52ae5ef7a2510ff579734108" target="_top" xlink:title="A cone.">
<polygon fill="white" stroke="black" points="314,-228.5 314,-247.5 354,-247.5 354,-228.5 314,-228.5"/>
<text text-anchor="middle" x="334" y="-235.5" font-family="Helvetica,sans-Serif" font-size="10.00">cone</text>
</a>
</g>
</g>
<!-- Node1&#45;&gt;Node2 -->
<g id="edge1" class="edge">
<title>Node1&#45;&gt;Node2</title>
<path fill="none" stroke="midnightblue" d="M456.93,-141.36C440.06,-160.74 410.75,-192.23 381,-214 372.71,-220.06 362.68,-225.49 354.11,-229.64"/>
<polygon fill="midnightblue" stroke="midnightblue" points="459.71,-143.5 463.57,-133.63 454.4,-138.94 459.71,-143.5"/>
</g>
<!-- Node5 -->
<g id="node5" class="node">
<title>Node5</title>
<g id="a_node5"><a xlink:href="group__models__3d__misc__omdl__logo.html#gab176f64dad7e83d4fb056be44b71f630" target="_top" xlink:title="Standard omdl logo.">
<polygon fill="white" stroke="black" points="154.5,-171.5 154.5,-190.5 222.5,-190.5 222.5,-171.5 154.5,-171.5"/>
<text text-anchor="middle" x="188.5" y="-178.5" font-family="Helvetica,sans-Serif" font-size="10.00">omdl_logo</text>
</a>
</g>
</g>
<!-- Node1&#45;&gt;Node5 -->
<g id="edge7" class="edge">
<title>Node1&#45;&gt;Node5</title>
<path fill="none" stroke="midnightblue" d="M452.69,-140.35C435.39,-154.23 408.35,-173.11 381,-181 327.34,-196.49 261.63,-191.65 222.81,-186.49"/>
<polygon fill="midnightblue" stroke="midnightblue" points="455.33,-142.71 460.8,-133.64 450.86,-137.32 455.33,-142.71"/>
</g>
<!-- Node6 -->
<g id="node6" class="node">
<title>Node6</title>
<g id="a_node6"><a xlink:href="group__shapes__polygon.html#gad85d14f73179499777da1e9297fbcae8" target="_top" xlink:title="A polygon triangle specified by angle&#45;angle&#45;size with vertex rounding.">
<polygon fill="white" stroke="black" points="287,-152.5 287,-171.5 381,-171.5 381,-152.5 287,-152.5"/>
<text text-anchor="middle" x="334" y="-159.5" font-family="Helvetica,sans-Serif" font-size="10.00">pg_triangle_aas</text>
</a>
</g>
</g>
<!-- Node1&#45;&gt;Node6 -->
<g id="edge8" class="edge">
<title>Node1&#45;&gt;Node6</title>
<path fill="none" stroke="midnightblue" d="M427.25,-136.32C408.5,-141.54 386.97,-147.53 369.43,-152.41"/>
<polygon fill="midnightblue" stroke="midnightblue" points="428.36,-139.64 437.06,-133.59 426.48,-132.9 428.36,-139.64"/>
</g>
<!-- Node7 -->
<g id="node7" class="node">
<title>Node7</title>
<g id="a_node7"><a xlink:href="group__shapes__polygon.html#ga45e8a17aef3dd6755f833f25a8937cf7" target="_top" xlink:title="A polygon triangle specified by angle&#45;size&#45;angle with vertex rounding.">
<polygon fill="white" stroke="black" points="287,-114.5 287,-133.5 381,-133.5 381,-114.5 287,-114.5"/>
<text text-anchor="middle" x="334" y="-121.5" font-family="Helvetica,sans-Serif" font-size="10.00">pg_triangle_asa</text>
</a>
</g>
</g>
<!-- Node1&#45;&gt;Node7 -->
<g id="edge9" class="edge">
<title>Node1&#45;&gt;Node7</title>
<path fill="none" stroke="midnightblue" d="M406.5,-124C398.03,-124 389.49,-124 381.41,-124"/>
<polygon fill="midnightblue" stroke="midnightblue" points="406.77,-127.5 416.77,-124 406.77,-120.5 406.77,-127.5"/>
</g>
<!-- Node8 -->
<g id="node8" class="node">
<title>Node8</title>
<g id="a_node8"><a xlink:href="group__shapes__polygon.html#ga24be160074502dce7ff8a78361d4b074" target="_top" xlink:title="A polygon triangle specified by size&#45;angle&#45;size with vertex rounding.">
<polygon fill="white" stroke="black" points="287.5,-76.5 287.5,-95.5 380.5,-95.5 380.5,-76.5 287.5,-76.5"/>
<text text-anchor="middle" x="334" y="-83.5" font-family="Helvetica,sans-Serif" font-size="10.00">pg_triangle_sas</text>
</a>
</g>
</g>
<!-- Node1&#45;&gt;Node8 -->
<g id="edge10" class="edge">
<title>Node1&#45;&gt;Node8</title>
<path fill="none" stroke="midnightblue" d="M427.25,-111.68C408.5,-106.46 386.97,-100.47 369.43,-95.59"/>
<polygon fill="midnightblue" stroke="midnightblue" points="426.48,-115.1 437.06,-114.41 428.36,-108.36 426.48,-115.1"/>
</g>
<!-- Node11 -->
<g id="node11" class="node">
<title>Node11</title>
<g id="a_node11"><a xlink:href="group__shapes__polygon.html#gab9843df753e0537b490ac67cec6e31a9" target="_top" xlink:title="A polygon triangle specified by three side lengths with vertex rounding.">
<polygon fill="white" stroke="black" points="288,-38.5 288,-57.5 380,-57.5 380,-38.5 288,-38.5"/>
<text text-anchor="middle" x="334" y="-45.5" font-family="Helvetica,sans-Serif" font-size="10.00">pg_triangle_sss</text>
</a>
</g>
</g>
<!-- Node1&#45;&gt;Node11 -->
<g id="edge15" class="edge">
<title>Node1&#45;&gt;Node11</title>
<path fill="none" stroke="midnightblue" d="M449.25,-108.48C431.3,-96.34 405.16,-79.48 381,-67 374.55,-63.67 367.38,-60.48 360.66,-57.69"/>
<polygon fill="midnightblue" stroke="midnightblue" points="447.6,-111.6 457.83,-114.35 451.55,-105.82 447.6,-111.6"/>
</g>
<!-- Node12 -->
<g id="node12" class="node">
<title>Node12</title>
<g id="a_node12"><a xlink:href="group__shapes__basic__2d.html#ga7452bf5414a3677ec806a31aed6b61dd" target="_top" xlink:title="A two&#45;dimensional star.">
<polygon fill="white" stroke="black" points="310.5,-0.5 310.5,-19.5 357.5,-19.5 357.5,-0.5 310.5,-0.5"/>
<text text-anchor="middle" x="334" y="-7.5" font-family="Helvetica,sans-Serif" font-size="10.00">star2d</text>
</a>
</g>
</g>
<!-- Node1&#45;&gt;Node12 -->
<g id="edge16" class="edge">
<title>Node1&#45;&gt;Node12</title>
<path fill="none" stroke="midnightblue" d="M458.47,-106.36C442.29,-85.5 412.9,-50.85 381,-29 374.01,-24.21 365.64,-20.31 357.96,-17.31"/>
<polygon fill="midnightblue" stroke="midnightblue" points="455.72,-108.53 464.56,-114.38 461.3,-104.3 455.72,-108.53"/>
</g>
<!-- Node3 -->
<g id="node3" class="node">
<title>Node3</title>
<g id="a_node3"><a xlink:href="group__parts__3d__enclosure__clamps.html#ga8fd874789132e42e5470328d18560f1a" target="_top" xlink:title="A clamp, bushing, and/or grip for wire/hose wall penetrations.">
<polygon fill="white" stroke="black" points="157,-247.5 157,-266.5 220,-266.5 220,-247.5 157,-247.5"/>
<text text-anchor="middle" x="188.5" y="-254.5" font-family="Helvetica,sans-Serif" font-size="10.00">clamp_cg</text>
</a>
</g>
</g>
<!-- Node2&#45;&gt;Node3 -->
<g id="edge2" class="edge">
<title>Node2&#45;&gt;Node3</title>
<path fill="none" stroke="midnightblue" d="M303.88,-241.86C279.55,-245.08 244.96,-249.66 220.2,-252.94"/>
<polygon fill="midnightblue" stroke="midnightblue" points="304.49,-245.31 313.94,-240.52 303.57,-238.37 304.49,-245.31"/>
</g>
<!-- Node4 -->
<g id="node4" class="node">
<title>Node4</title>
<g id="a_node4"><a xlink:href="group__parts__3d__enclosure__power__strip.html#ga191779dedf39e4fd769a8dc96b0f8c9e" target="_top" xlink:title="A power strip generator for single gang electrical receptacles.">
<polygon fill="white" stroke="black" points="0,-171.5 0,-190.5 90,-190.5 90,-171.5 0,-171.5"/>
<text text-anchor="middle" x="45" y="-178.5" font-family="Helvetica,sans-Serif" font-size="10.00">power_strip_sg</text>
</a>
</g>
</g>
<!-- Node2&#45;&gt;Node4 -->
<g id="edge6" class="edge">
<title>Node2&#45;&gt;Node4</title>
<path fill="none" stroke="midnightblue" d="M303.91,-233.15C263.77,-226.34 189.18,-213.29 126,-200 112.45,-197.15 97.68,-193.73 84.57,-190.58"/>
<polygon fill="midnightblue" stroke="midnightblue" points="303.37,-236.61 313.81,-234.82 304.54,-229.7 303.37,-236.61"/>
</g>
<!-- Node2&#45;&gt;Node5 -->
<g id="edge4" class="edge">
<title>Node2&#45;&gt;Node5</title>
<path fill="none" stroke="midnightblue" d="M304.14,-226.3C288.44,-219.96 268.67,-212 251,-205 238.85,-200.19 225.33,-194.9 214.06,-190.52"/>
<polygon fill="midnightblue" stroke="midnightblue" points="303.22,-229.7 313.8,-230.21 305.85,-223.21 303.22,-229.7"/>
</g>
<!-- Node3&#45;&gt;Node4 -->
<g id="edge3" class="edge">
<title>Node3&#45;&gt;Node4</title>
<path fill="none" stroke="midnightblue" d="M149.87,-243.72C141.85,-240.51 133.54,-236.87 126,-233 101.09,-220.22 74.21,-201.65 58.81,-190.51"/>
<polygon fill="midnightblue" stroke="midnightblue" points="148.83,-247.07 159.42,-247.42 151.36,-240.55 148.83,-247.07"/>
</g>
<!-- Node5&#45;&gt;Node4 -->
<g id="edge5" class="edge">
<title>Node5&#45;&gt;Node4</title>
<path fill="none" stroke="midnightblue" d="M144.06,-181C126.97,-181 107.38,-181 90.22,-181"/>
<polygon fill="midnightblue" stroke="midnightblue" points="144.32,-184.5 154.32,-181 144.32,-177.5 144.32,-184.5"/>
</g>
<!-- Node9 -->
<g id="node9" class="node">
<title>Node9</title>
<g id="a_node9"><a xlink:href="group__parts__3d__enclosure__project__box__rectangle.html#ga6a5d093d732e65556c46252220f2c4b6" target="_top" xlink:title="A rectangular box maker for project boxes, enclosures and housings.">
<polygon fill="white" stroke="black" points="126,-133.5 126,-152.5 251,-152.5 251,-133.5 126,-133.5"/>
<text text-anchor="middle" x="188.5" y="-140.5" font-family="Helvetica,sans-Serif" font-size="10.00">project_box_rectangle</text>
</a>
</g>
</g>
<!-- Node8&#45;&gt;Node9 -->
<g id="edge11" class="edge">
<title>Node8&#45;&gt;Node9</title>
<path fill="none" stroke="midnightblue" d="M299.05,-99.6C294.97,-101.36 290.87,-103.18 287,-105 270.62,-112.68 267.71,-117.08 251,-124 242.53,-127.51 233.18,-130.72 224.38,-133.46"/>
<polygon fill="midnightblue" stroke="midnightblue" points="300.61,-102.74 308.46,-95.64 297.89,-96.29 300.61,-102.74"/>
</g>
<!-- Node10 -->
<g id="node10" class="node">
<title>Node10</title>
<g id="a_node10"><a xlink:href="group__parts__3d__enclosure__mounts.html#gacac878eda32a71cb3b1b174c9aebb56c" target="_top" xlink:title="A mount tab with screw hole and support brace.">
<polygon fill="white" stroke="black" points="137,-95.5 137,-114.5 240,-114.5 240,-95.5 137,-95.5"/>
<text text-anchor="middle" x="188.5" y="-102.5" font-family="Helvetica,sans-Serif" font-size="10.00">screw_mount_tab</text>
</a>
</g>
</g>
<!-- Node8&#45;&gt;Node10 -->
<g id="edge13" class="edge">
<title>Node8&#45;&gt;Node10</title>
<path fill="none" stroke="midnightblue" d="M277.13,-93.4C264.93,-95.01 252.07,-96.72 240.09,-98.3"/>
<polygon fill="midnightblue" stroke="midnightblue" points="277.75,-96.85 287.2,-92.06 276.83,-89.91 277.75,-96.85"/>
</g>
<!-- Node9&#45;&gt;Node4 -->
<g id="edge12" class="edge">
<title>Node9&#45;&gt;Node4</title>
<path fill="none" stroke="midnightblue" d="M141.9,-155.25C122.39,-160.48 99.96,-166.51 81.7,-171.41"/>
<polygon fill="midnightblue" stroke="midnightblue" points="143.04,-158.56 151.79,-152.59 141.23,-151.8 143.04,-158.56"/>
</g>
<!-- Node10&#45;&gt;Node4 -->
<g id="edge14" class="edge">
<title>Node10&#45;&gt;Node4</title>
<path fill="none" stroke="midnightblue" d="M139.87,-118.03C135.1,-119.83 130.4,-121.82 126,-124 99.25,-137.23 71.69,-159.01 56.92,-171.47"/>
<polygon fill="midnightblue" stroke="midnightblue" points="141.4,-121.2 149.68,-114.6 139.09,-114.6 141.4,-121.2"/>
</g>
</g>
</svg>
