<?xml version="1.0" encoding="UTF-8" standalone="no"?>
<!DOCTYPE svg PUBLIC "-//W3C//DTD SVG 1.1//EN"
 "http://www.w3.org/Graphics/SVG/1.1/DTD/svg11.dtd">
<!-- Generated by graphviz version 2.43.0 (0)
 -->
<!-- Title: translate_p Pages: 1 -->
<svg width="654pt" height="256pt"
 viewBox="0.00 0.00 654.00 256.00" xmlns="http://www.w3.org/2000/svg" xmlns:xlink="http://www.w3.org/1999/xlink">
<g id="graph0" class="graph" transform="scale(1 1) rotate(0) translate(4 252)">
<title>translate_p</title>
<polygon fill="white" stroke="transparent" points="-4,4 -4,-252 650,-252 650,4 -4,4"/>
<!-- Node1 -->
<g id="node1" class="node">
<title>Node1</title>
<g id="a_node1"><a xlink:title="Translate all coordinates dimensions.">
<polygon fill="#bfbfbf" stroke="black" points="575,-114.5 575,-133.5 646,-133.5 646,-114.5 575,-114.5"/>
<text text-anchor="middle" x="610.5" y="-121.5" font-family="Helvetica,sans-Serif" font-size="10.00">translate_p</text>
</a>
</g>
</g>
<!-- Node2 -->
<g id="node2" class="node">
<title>Node2</title>
<g id="a_node2"><a xlink:href="group__shapes__polygon.html#ga1151092c15142c227983e6bd481872b3" target="_top" xlink:title="A n&#45;sided regular polygon with vertex rounding.">
<polygon fill="white" stroke="black" points="457,-228.5 457,-247.5 515,-247.5 515,-228.5 457,-228.5"/>
<text text-anchor="middle" x="486" y="-235.5" font-family="Helvetica,sans-Serif" font-size="10.00">pg_ngon</text>
</a>
</g>
</g>
<!-- Node1&#45;&gt;Node2 -->
<g id="edge1" class="edge">
<title>Node1&#45;&gt;Node2</title>
<path fill="none" stroke="midnightblue" d="M598.84,-142.33C586.55,-162.17 564.68,-193.68 539,-214 531.59,-219.86 522.52,-224.68 514.04,-228.42"/>
<polygon fill="midnightblue" stroke="midnightblue" points="601.92,-144 604.09,-133.63 595.93,-140.39 601.92,-144"/>
</g>
<!-- Node3 -->
<g id="node3" class="node">
<title>Node3</title>
<g id="a_node3"><a xlink:href="group__shapes__polygon.html#ga9c1bd914355d92f9d66ba0e5c2d9dbac" target="_top" xlink:title="A polygon rectangle with vertex rounding.">
<polygon fill="white" stroke="black" points="302,-228.5 302,-247.5 382,-247.5 382,-228.5 302,-228.5"/>
<text text-anchor="middle" x="342" y="-235.5" font-family="Helvetica,sans-Serif" font-size="10.00">pg_rectangle</text>
</a>
</g>
</g>
<!-- Node1&#45;&gt;Node3 -->
<g id="edge2" class="edge">
<title>Node1&#45;&gt;Node3</title>
<path fill="none" stroke="midnightblue" d="M592.39,-141.13C578.91,-153.76 559.1,-170.5 539,-181 511.67,-195.28 430.95,-216.48 382.04,-228.6"/>
<polygon fill="midnightblue" stroke="midnightblue" points="595.13,-143.35 599.91,-133.89 590.27,-138.31 595.13,-143.35"/>
</g>
<!-- Node8 -->
<g id="node8" class="node">
<title>Node8</title>
<g id="a_node8"><a xlink:href="group__shapes__polygon.html#ga22a29774c22e5cc9f3101ed0a0ed307a" target="_top" xlink:title="A polygon rectangle with side rounding.">
<polygon fill="white" stroke="black" points="439,-114.5 439,-133.5 533,-133.5 533,-114.5 439,-114.5"/>
<text text-anchor="middle" x="486" y="-121.5" font-family="Helvetica,sans-Serif" font-size="10.00">pg_rectangle_rs</text>
</a>
</g>
</g>
<!-- Node1&#45;&gt;Node8 -->
<g id="edge8" class="edge">
<title>Node1&#45;&gt;Node8</title>
<path fill="none" stroke="midnightblue" d="M564.43,-124C554.29,-124 543.5,-124 533.31,-124"/>
<polygon fill="midnightblue" stroke="midnightblue" points="564.72,-127.5 574.72,-124 564.72,-120.5 564.72,-127.5"/>
</g>
<!-- Node9 -->
<g id="node9" class="node">
<title>Node9</title>
<g id="a_node9"><a xlink:href="group__shapes__polygon.html#ga2ca38d6942a8955d3b483d1a60bf7ec3" target="_top" xlink:title="A polygon rhombus with vertex rounding.">
<polygon fill="white" stroke="black" points="447.5,-76.5 447.5,-95.5 524.5,-95.5 524.5,-76.5 447.5,-76.5"/>
<text text-anchor="middle" x="486" y="-83.5" font-family="Helvetica,sans-Serif" font-size="10.00">pg_rhombus</text>
</a>
</g>
</g>
<!-- Node1&#45;&gt;Node9 -->
<g id="edge9" class="edge">
<title>Node1&#45;&gt;Node9</title>
<path fill="none" stroke="midnightblue" d="M568.62,-111.32C552.07,-106.19 533.28,-100.36 517.9,-95.59"/>
<polygon fill="midnightblue" stroke="midnightblue" points="568,-114.79 578.59,-114.41 570.07,-108.11 568,-114.79"/>
</g>
<!-- Node10 -->
<g id="node10" class="node">
<title>Node10</title>
<g id="a_node10"><a xlink:href="group__shapes__polygon.html#ga155ae943a1aa91432b1992fd1de364c2" target="_top" xlink:title="A polygon trapezoid with individual vertex rounding and arc facets.">
<polygon fill="white" stroke="black" points="446,-38.5 446,-57.5 526,-57.5 526,-38.5 446,-38.5"/>
<text text-anchor="middle" x="486" y="-45.5" font-family="Helvetica,sans-Serif" font-size="10.00">pg_trapezoid</text>
</a>
</g>
</g>
<!-- Node1&#45;&gt;Node10 -->
<g id="edge10" class="edge">
<title>Node1&#45;&gt;Node10</title>
<path fill="none" stroke="midnightblue" d="M592.18,-107.25C578.59,-94.83 558.74,-78.17 539,-67 532.56,-63.35 525.29,-60.18 518.27,-57.53"/>
<polygon fill="midnightblue" stroke="midnightblue" points="590.08,-110.08 599.77,-114.35 594.86,-104.97 590.08,-110.08"/>
</g>
<!-- Node12 -->
<g id="node12" class="node">
<title>Node12</title>
<g id="a_node12"><a xlink:href="group__shapes__polygon.html#gac7e2c70b3428b729efd86a675df794e6" target="_top" xlink:title="A polygon triangle specified by three coordinate points with vertex rounding.">
<polygon fill="white" stroke="black" points="438.5,-152.5 438.5,-171.5 533.5,-171.5 533.5,-152.5 438.5,-152.5"/>
<text text-anchor="middle" x="486" y="-159.5" font-family="Helvetica,sans-Serif" font-size="10.00">pg_triangle_ppp</text>
</a>
</g>
</g>
<!-- Node1&#45;&gt;Node12 -->
<g id="edge12" class="edge">
<title>Node1&#45;&gt;Node12</title>
<path fill="none" stroke="midnightblue" d="M568.62,-136.68C552.07,-141.81 533.28,-147.64 517.9,-152.41"/>
<polygon fill="midnightblue" stroke="midnightblue" points="570.07,-139.89 578.59,-133.59 568,-133.21 570.07,-139.89"/>
</g>
<!-- Node17 -->
<g id="node17" class="node">
<title>Node17</title>
<g id="a_node17"><a xlink:href="group__shapes__polyhedron__db.html#gaae64c8fb78026896742050d14a5e8911" target="_top" xlink:title="Construct a named polyhedron.">
<polygon fill="white" stroke="black" points="433,-0.5 433,-19.5 539,-19.5 539,-0.5 433,-0.5"/>
<text text-anchor="middle" x="486" y="-7.5" font-family="Helvetica,sans-Serif" font-size="10.00">ph_db_polyhedron</text>
</a>
</g>
</g>
<!-- Node1&#45;&gt;Node17 -->
<g id="edge19" class="edge">
<title>Node1&#45;&gt;Node17</title>
<path fill="none" stroke="midnightblue" d="M600.11,-105.49C588.46,-84.24 566.7,-49.68 539,-29 533.92,-25.2 528,-22.1 522.01,-19.59"/>
<polygon fill="midnightblue" stroke="midnightblue" points="597.09,-107.27 604.87,-114.47 603.28,-103.99 597.09,-107.27"/>
</g>
<!-- Node4 -->
<g id="node4" class="node">
<title>Node4</title>
<g id="a_node4"><a xlink:href="group__parts__3d__fastener__catch__latch.html#gaa90b197081dba0e1fbe7c92aa4079279" target="_top" xlink:title="A catch latch generator.">
<polygon fill="white" stroke="black" points="152.5,-228.5 152.5,-247.5 224.5,-247.5 224.5,-228.5 152.5,-228.5"/>
<text text-anchor="middle" x="188.5" y="-235.5" font-family="Helvetica,sans-Serif" font-size="10.00">catch_latch</text>
</a>
</g>
</g>
<!-- Node3&#45;&gt;Node4 -->
<g id="edge3" class="edge">
<title>Node3&#45;&gt;Node4</title>
<path fill="none" stroke="midnightblue" d="M291.84,-238C269.88,-238 244.49,-238 224.5,-238"/>
<polygon fill="midnightblue" stroke="midnightblue" points="291.99,-241.5 301.98,-238 291.98,-234.5 291.99,-241.5"/>
</g>
<!-- Node5 -->
<g id="node5" class="node">
<title>Node5</title>
<g id="a_node5"><a xlink:href="group__parts__3d__enclosure__project__box__rectangle.html#ga6a5d093d732e65556c46252220f2c4b6" target="_top" xlink:title="A rectangular box maker for project boxes, enclosures and housings.">
<polygon fill="white" stroke="black" points="126,-171.5 126,-190.5 251,-190.5 251,-171.5 126,-171.5"/>
<text text-anchor="middle" x="188.5" y="-178.5" font-family="Helvetica,sans-Serif" font-size="10.00">project_box_rectangle</text>
</a>
</g>
</g>
<!-- Node3&#45;&gt;Node5 -->
<g id="edge4" class="edge">
<title>Node3&#45;&gt;Node5</title>
<path fill="none" stroke="midnightblue" d="M303.43,-224.96C297.91,-222.99 292.3,-220.96 287,-219 261.79,-209.65 233.14,-198.41 213.46,-190.59"/>
<polygon fill="midnightblue" stroke="midnightblue" points="302.59,-228.38 313.19,-228.41 304.93,-221.78 302.59,-228.38"/>
</g>
<!-- Node7 -->
<g id="node7" class="node">
<title>Node7</title>
<g id="a_node7"><a xlink:href="group__parts__3d__enclosure__mounts.html#gacac878eda32a71cb3b1b174c9aebb56c" target="_top" xlink:title="A mount tab with screw hole and support brace.">
<polygon fill="white" stroke="black" points="137,-133.5 137,-152.5 240,-152.5 240,-133.5 137,-133.5"/>
<text text-anchor="middle" x="188.5" y="-140.5" font-family="Helvetica,sans-Serif" font-size="10.00">screw_mount_tab</text>
</a>
</g>
</g>
<!-- Node3&#45;&gt;Node7 -->
<g id="edge6" class="edge">
<title>Node3&#45;&gt;Node7</title>
<path fill="none" stroke="midnightblue" d="M294.25,-223.92C291.7,-222.44 289.26,-220.8 287,-219 263.57,-200.33 274.79,-180.22 251,-162 245.94,-158.13 240.09,-155.04 234.04,-152.57"/>
<polygon fill="midnightblue" stroke="midnightblue" points="292.76,-227.09 303.27,-228.42 295.88,-220.82 292.76,-227.09"/>
</g>
<!-- Node6 -->
<g id="node6" class="node">
<title>Node6</title>
<g id="a_node6"><a xlink:href="group__parts__3d__enclosure__power__strip.html#ga191779dedf39e4fd769a8dc96b0f8c9e" target="_top" xlink:title="A power strip generator for single gang electrical receptacles.">
<polygon fill="white" stroke="black" points="0,-152.5 0,-171.5 90,-171.5 90,-152.5 0,-152.5"/>
<text text-anchor="middle" x="45" y="-159.5" font-family="Helvetica,sans-Serif" font-size="10.00">power_strip_sg</text>
</a>
</g>
</g>
<!-- Node5&#45;&gt;Node6 -->
<g id="edge5" class="edge">
<title>Node5&#45;&gt;Node6</title>
<path fill="none" stroke="midnightblue" d="M115.9,-171.39C107.07,-170.2 98.26,-169.02 90.01,-167.91"/>
<polygon fill="midnightblue" stroke="midnightblue" points="115.47,-174.86 125.85,-172.72 116.4,-167.92 115.47,-174.86"/>
</g>
<!-- Node7&#45;&gt;Node6 -->
<g id="edge7" class="edge">
<title>Node7&#45;&gt;Node6</title>
<path fill="none" stroke="midnightblue" d="M126.66,-151.17C114.42,-152.81 101.78,-154.51 90.24,-156.06"/>
<polygon fill="midnightblue" stroke="midnightblue" points="127.37,-154.61 136.81,-149.81 126.44,-147.67 127.37,-154.61"/>
</g>
<!-- Node11 -->
<g id="node11" class="node">
<title>Node11</title>
<g id="a_node11"><a xlink:href="group__shapes__revolved.html#ga69b374bbebd7d87cfcd06b6bd3278404" target="_top" xlink:title="A trapezoidal cross&#45;sectional profile revolved about the z&#45;axis.">
<polygon fill="white" stroke="black" points="287,-38.5 287,-57.5 397,-57.5 397,-38.5 287,-38.5"/>
<text text-anchor="middle" x="342" y="-45.5" font-family="Helvetica,sans-Serif" font-size="10.00">torus_pg_trapezoid</text>
</a>
</g>
</g>
<!-- Node10&#45;&gt;Node11 -->
<g id="edge11" class="edge">
<title>Node10&#45;&gt;Node11</title>
<path fill="none" stroke="midnightblue" d="M435.66,-48C423.24,-48 409.84,-48 397.2,-48"/>
<polygon fill="midnightblue" stroke="midnightblue" points="435.82,-51.5 445.82,-48 435.82,-44.5 435.82,-51.5"/>
</g>
<!-- Node13 -->
<g id="node13" class="node">
<title>Node13</title>
<g id="a_node13"><a xlink:href="group__shapes__polygon.html#gad85d14f73179499777da1e9297fbcae8" target="_top" xlink:title="A polygon triangle specified by angle&#45;angle&#45;size with vertex rounding.">
<polygon fill="white" stroke="black" points="295,-76.5 295,-95.5 389,-95.5 389,-76.5 295,-76.5"/>
<text text-anchor="middle" x="342" y="-83.5" font-family="Helvetica,sans-Serif" font-size="10.00">pg_triangle_aas</text>
</a>
</g>
</g>
<!-- Node12&#45;&gt;Node13 -->
<g id="edge13" class="edge">
<title>Node12&#45;&gt;Node13</title>
<path fill="none" stroke="midnightblue" d="M442.37,-148.31C439.1,-146.7 435.94,-144.93 433,-143 413.56,-130.22 416.52,-117.66 397,-105 391.16,-101.21 384.48,-98.08 377.85,-95.52"/>
<polygon fill="midnightblue" stroke="midnightblue" points="441.15,-151.6 451.72,-152.45 443.98,-145.2 441.15,-151.6"/>
</g>
<!-- Node14 -->
<g id="node14" class="node">
<title>Node14</title>
<g id="a_node14"><a xlink:href="group__shapes__polygon.html#ga45e8a17aef3dd6755f833f25a8937cf7" target="_top" xlink:title="A polygon triangle specified by angle&#45;size&#45;angle with vertex rounding.">
<polygon fill="white" stroke="black" points="295,-190.5 295,-209.5 389,-209.5 389,-190.5 295,-190.5"/>
<text text-anchor="middle" x="342" y="-197.5" font-family="Helvetica,sans-Serif" font-size="10.00">pg_triangle_asa</text>
</a>
</g>
</g>
<!-- Node12&#45;&gt;Node14 -->
<g id="edge14" class="edge">
<title>Node12&#45;&gt;Node14</title>
<path fill="none" stroke="midnightblue" d="M439.51,-174.17C419.87,-179.43 397.23,-185.49 378.82,-190.41"/>
<polygon fill="midnightblue" stroke="midnightblue" points="440.41,-177.56 449.17,-171.59 438.6,-170.79 440.41,-177.56"/>
</g>
<!-- Node15 -->
<g id="node15" class="node">
<title>Node15</title>
<g id="a_node15"><a xlink:href="group__shapes__polygon.html#ga24be160074502dce7ff8a78361d4b074" target="_top" xlink:title="A polygon triangle specified by size&#45;angle&#45;size with vertex rounding.">
<polygon fill="white" stroke="black" points="295.5,-114.5 295.5,-133.5 388.5,-133.5 388.5,-114.5 295.5,-114.5"/>
<text text-anchor="middle" x="342" y="-121.5" font-family="Helvetica,sans-Serif" font-size="10.00">pg_triangle_sas</text>
</a>
</g>
</g>
<!-- Node12&#45;&gt;Node15 -->
<g id="edge15" class="edge">
<title>Node12&#45;&gt;Node15</title>
<path fill="none" stroke="midnightblue" d="M439.51,-149.83C419.87,-144.57 397.23,-138.51 378.82,-133.59"/>
<polygon fill="midnightblue" stroke="midnightblue" points="438.6,-153.21 449.17,-152.41 440.41,-146.44 438.6,-153.21"/>
</g>
<!-- Node16 -->
<g id="node16" class="node">
<title>Node16</title>
<g id="a_node16"><a xlink:href="group__shapes__polygon.html#gab9843df753e0537b490ac67cec6e31a9" target="_top" xlink:title="A polygon triangle specified by three side lengths with vertex rounding.">
<polygon fill="white" stroke="black" points="296,-152.5 296,-171.5 388,-171.5 388,-152.5 296,-152.5"/>
<text text-anchor="middle" x="342" y="-159.5" font-family="Helvetica,sans-Serif" font-size="10.00">pg_triangle_sss</text>
</a>
</g>
</g>
<!-- Node12&#45;&gt;Node16 -->
<g id="edge18" class="edge">
<title>Node12&#45;&gt;Node16</title>
<path fill="none" stroke="midnightblue" d="M427.78,-162C414.67,-162 400.92,-162 388.39,-162"/>
<polygon fill="midnightblue" stroke="midnightblue" points="428.11,-165.5 438.11,-162 428.11,-158.5 428.11,-165.5"/>
</g>
<!-- Node15&#45;&gt;Node5 -->
<g id="edge16" class="edge">
<title>Node15&#45;&gt;Node5</title>
<path fill="none" stroke="midnightblue" d="M301.74,-137.05C296.74,-138.93 291.72,-140.94 287,-143 270.42,-150.24 267.71,-155.08 251,-162 242.53,-165.51 233.18,-168.72 224.38,-171.46"/>
<polygon fill="midnightblue" stroke="midnightblue" points="303.07,-140.29 311.27,-133.58 300.67,-133.71 303.07,-140.29"/>
</g>
<!-- Node15&#45;&gt;Node7 -->
<g id="edge17" class="edge">
<title>Node15&#45;&gt;Node7</title>
<path fill="none" stroke="midnightblue" d="M285.15,-131C270.44,-132.85 254.66,-134.83 240.23,-136.64"/>
<polygon fill="midnightblue" stroke="midnightblue" points="285.65,-134.47 295.13,-129.75 284.78,-127.52 285.65,-134.47"/>
</g>
</g>
</svg>
