<?xml version="1.0" encoding="UTF-8" standalone="no"?>
<!DOCTYPE svg PUBLIC "-//W3C//DTD SVG 1.1//EN"
 "http://www.w3.org/Graphics/SVG/1.1/DTD/svg11.dtd">
<!-- Generated by graphviz version 2.43.0 (0)
 -->
<!-- Title: table_get_value Pages: 1 -->
<svg width="245pt" height="104pt"
 viewBox="0.00 0.00 245.00 104.00" xmlns="http://www.w3.org/2000/svg" xmlns:xlink="http://www.w3.org/1999/xlink">
<g id="graph0" class="graph" transform="scale(1 1) rotate(0) translate(4 100)">
<title>table_get_value</title>
<polygon fill="white" stroke="transparent" points="-4,4 -4,-100 241,-100 241,4 -4,4"/>
<!-- Node1 -->
<g id="node1" class="node">
<title>Node1</title>
<g id="a_node1"><a xlink:title="Get the table cell value for a specified row and column identifier.">
<polygon fill="#bfbfbf" stroke="black" points="142,-38.5 142,-57.5 237,-57.5 237,-38.5 142,-38.5"/>
<text text-anchor="middle" x="189.5" y="-45.5" font-family="Helvetica,sans-Serif" font-size="10.00">table_get_value</text>
</a>
</g>
</g>
<!-- Node2 -->
<g id="node2" class="node">
<title>Node2</title>
<g id="a_node2"><a xlink:href="group__shapes__polyhedron__db.html#gaae64c8fb78026896742050d14a5e8911" target="_top" xlink:title="Construct a named polyhedron.">
<polygon fill="white" stroke="black" points="0,-76.5 0,-95.5 106,-95.5 106,-76.5 0,-76.5"/>
<text text-anchor="middle" x="53" y="-83.5" font-family="Helvetica,sans-Serif" font-size="10.00">ph_db_polyhedron</text>
</a>
</g>
</g>
<!-- Node1&#45;&gt;Node2 -->
<g id="edge1" class="edge">
<title>Node1&#45;&gt;Node2</title>
<path fill="none" stroke="midnightblue" d="M144.9,-60.32C126.42,-65.54 105.21,-71.53 87.93,-76.41"/>
<polygon fill="midnightblue" stroke="midnightblue" points="145.89,-63.68 154.56,-57.59 143.99,-56.94 145.89,-63.68"/>
</g>
<!-- Node3 -->
<g id="node3" class="node">
<title>Node3</title>
<g id="a_node3"><a xlink:href="group__datatypes__table.html#gaafc45abc1b8026ee1518fad87a042be3" target="_top" xlink:title="Dump a table to the console.">
<polygon fill="white" stroke="black" points="16,-38.5 16,-57.5 90,-57.5 90,-38.5 16,-38.5"/>
<text text-anchor="middle" x="53" y="-45.5" font-family="Helvetica,sans-Serif" font-size="10.00">table_dump</text>
</a>
</g>
</g>
<!-- Node1&#45;&gt;Node3 -->
<g id="edge2" class="edge">
<title>Node1&#45;&gt;Node3</title>
<path fill="none" stroke="midnightblue" d="M131.78,-48C117.78,-48 103.15,-48 90.4,-48"/>
<polygon fill="midnightblue" stroke="midnightblue" points="131.84,-51.5 141.84,-48 131.84,-44.5 131.84,-51.5"/>
</g>
<!-- Node4 -->
<g id="node4" class="node">
<title>Node4</title>
<g id="a_node4"><a xlink:href="group__datatypes__table.html#ga8d212217f9acb803e3107f488d5523e6" target="_top" xlink:title="Write formatted map entries to the console.">
<polygon fill="white" stroke="black" points="17.5,-0.5 17.5,-19.5 88.5,-19.5 88.5,-0.5 17.5,-0.5"/>
<text text-anchor="middle" x="53" y="-7.5" font-family="Helvetica,sans-Serif" font-size="10.00">table_write</text>
</a>
</g>
</g>
<!-- Node1&#45;&gt;Node4 -->
<g id="edge3" class="edge">
<title>Node1&#45;&gt;Node4</title>
<path fill="none" stroke="midnightblue" d="M144.9,-35.68C126.42,-30.46 105.21,-24.47 87.93,-19.59"/>
<polygon fill="midnightblue" stroke="midnightblue" points="143.99,-39.06 154.56,-38.41 145.89,-32.32 143.99,-39.06"/>
</g>
</g>
</svg>
