<?xml version="1.0" encoding="UTF-8" standalone="no"?>
<!DOCTYPE svg PUBLIC "-//W3C//DTD SVG 1.1//EN"
 "http://www.w3.org/Graphics/SVG/1.1/DTD/svg11.dtd">
<!-- Generated by graphviz version 2.43.0 (0)
 -->
<!-- Title: torus_ellipse_cs Pages: 1 -->
<svg width="580pt" height="294pt"
 viewBox="0.00 0.00 580.00 294.00" xmlns="http://www.w3.org/2000/svg" xmlns:xlink="http://www.w3.org/1999/xlink">
<g id="graph0" class="graph" transform="scale(1 1) rotate(0) translate(4 290)">
<title>torus_ellipse_cs</title>
<polygon fill="white" stroke="transparent" points="-4,4 -4,-290 576,-290 576,4 -4,4"/>
<!-- Node1 -->
<g id="node1" class="node">
<title>Node1</title>
<g id="a_node1"><a xlink:title="An elliptical cross&#45;sectional profile revolved about the z&#45;axis.">
<polygon fill="#bfbfbf" stroke="black" points="0,-133.5 0,-152.5 95,-152.5 95,-133.5 0,-133.5"/>
<text text-anchor="middle" x="47.5" y="-140.5" font-family="Helvetica,sans-Serif" font-size="10.00">torus_ellipse_cs</text>
</a>
</g>
</g>
<!-- Node2 -->
<g id="node2" class="node">
<title>Node2</title>
<g id="a_node2"><a xlink:href="group__shapes__basic__2d.html#ga3e186b32450bffe183da7422f0b19f95" target="_top" xlink:title="A sector of an ellipse with a removed elliptical core.">
<polygon fill="white" stroke="black" points="150.5,-190.5 150.5,-209.5 215.5,-209.5 215.5,-190.5 150.5,-190.5"/>
<text text-anchor="middle" x="183" y="-197.5" font-family="Helvetica,sans-Serif" font-size="10.00">ellipse_cs</text>
</a>
</g>
</g>
<!-- Node1&#45;&gt;Node2 -->
<g id="edge1" class="edge">
<title>Node1&#45;&gt;Node2</title>
<path fill="none" stroke="midnightblue" d="M70.84,-152.54C92.6,-161.83 125.87,-176.04 150.35,-186.49"/>
<polygon fill="midnightblue" stroke="midnightblue" points="149.01,-189.72 159.58,-190.43 151.76,-183.28 149.01,-189.72"/>
</g>
<!-- Node8 -->
<g id="node8" class="node">
<title>Node8</title>
<g id="a_node8"><a xlink:href="group__tools__extrude.html#ga78405b5fa18461a302a2f24646499ece" target="_top" xlink:title="Translate, rotate, and revolve a 2d shape about the z&#45;axis with linear elongation.">
<polygon fill="white" stroke="black" points="131,-76.5 131,-95.5 235,-95.5 235,-76.5 131,-76.5"/>
<text text-anchor="middle" x="183" y="-83.5" font-family="Helvetica,sans-Serif" font-size="10.00">extrude_rotate_trl</text>
</a>
</g>
</g>
<!-- Node1&#45;&gt;Node8 -->
<g id="edge9" class="edge">
<title>Node1&#45;&gt;Node8</title>
<path fill="none" stroke="midnightblue" d="M70.84,-133.46C92.6,-124.17 125.87,-109.96 150.35,-99.51"/>
<polygon fill="midnightblue" stroke="midnightblue" points="151.76,-102.72 159.58,-95.57 149.01,-96.28 151.76,-102.72"/>
</g>
<!-- Node3 -->
<g id="node3" class="node">
<title>Node3</title>
<g id="a_node3"><a xlink:href="group__datatypes__iterable__test.html#ga3fa2b76e04a4c8bba633d9e5e08004e8" target="_top" xlink:title="Test if no element of an iterable value has an undefined value.">
<polygon fill="white" stroke="black" points="286.5,-266.5 286.5,-285.5 356.5,-285.5 356.5,-266.5 286.5,-266.5"/>
<text text-anchor="middle" x="321.5" y="-273.5" font-family="Helvetica,sans-Serif" font-size="10.00">all_defined</text>
</a>
</g>
</g>
<!-- Node2&#45;&gt;Node3 -->
<g id="edge2" class="edge">
<title>Node2&#45;&gt;Node3</title>
<path fill="none" stroke="midnightblue" d="M199.17,-209.62C216.35,-220.38 245.3,-238.12 271,-252 277.21,-255.35 283.96,-258.77 290.42,-261.94"/>
<polygon fill="midnightblue" stroke="midnightblue" points="289.06,-265.16 299.58,-266.36 292.1,-258.86 289.06,-265.16"/>
</g>
<!-- Node4 -->
<g id="node4" class="node">
<title>Node4</title>
<g id="a_node4"><a xlink:href="group__shapes__basic__2d.html#ga7d62c56f88b839dc7e879ff16f968ea2" target="_top" xlink:title="An ellipse.">
<polygon fill="white" stroke="black" points="408,-209.5 408,-228.5 457,-228.5 457,-209.5 408,-209.5"/>
<text text-anchor="middle" x="432.5" y="-216.5" font-family="Helvetica,sans-Serif" font-size="10.00">ellipse</text>
</a>
</g>
</g>
<!-- Node2&#45;&gt;Node4 -->
<g id="edge3" class="edge">
<title>Node2&#45;&gt;Node4</title>
<path fill="none" stroke="midnightblue" d="M215.55,-208.6C231.95,-212.64 252.4,-216.99 271,-219 314.43,-223.69 364.86,-222.63 397.43,-221.11"/>
<polygon fill="midnightblue" stroke="midnightblue" points="397.95,-224.59 407.76,-220.59 397.59,-217.6 397.95,-224.59"/>
</g>
<!-- Node6 -->
<g id="node6" class="node">
<title>Node6</title>
<g id="a_node6"><a xlink:href="group__shapes__basic__2d.html#ga8925cd75276266667fbc1f0896482a7a" target="_top" xlink:title="An ellipse sector.">
<polygon fill="white" stroke="black" points="292,-190.5 292,-209.5 351,-209.5 351,-190.5 292,-190.5"/>
<text text-anchor="middle" x="321.5" y="-197.5" font-family="Helvetica,sans-Serif" font-size="10.00">ellipse_s</text>
</a>
</g>
</g>
<!-- Node2&#45;&gt;Node6 -->
<g id="edge5" class="edge">
<title>Node2&#45;&gt;Node6</title>
<path fill="none" stroke="midnightblue" d="M215.66,-200C235.33,-200 260.76,-200 281.65,-200"/>
<polygon fill="midnightblue" stroke="midnightblue" points="281.8,-203.5 291.8,-200 281.8,-196.5 281.8,-203.5"/>
</g>
<!-- Node7 -->
<g id="node7" class="node">
<title>Node7</title>
<g id="a_node7"><a xlink:href="group__datatypes__scalar__test.html#ga51d7fdb800c10f4b7479d23b89ab8d22" target="_top" xlink:title="Test if a value is defined.">
<polygon fill="white" stroke="black" points="288.5,-152.5 288.5,-171.5 354.5,-171.5 354.5,-152.5 288.5,-152.5"/>
<text text-anchor="middle" x="321.5" y="-159.5" font-family="Helvetica,sans-Serif" font-size="10.00">is_defined</text>
</a>
</g>
</g>
<!-- Node2&#45;&gt;Node7 -->
<g id="edge8" class="edge">
<title>Node2&#45;&gt;Node7</title>
<path fill="none" stroke="midnightblue" d="M215.66,-191.19C234.25,-186.01 257.99,-179.4 278.18,-173.78"/>
<polygon fill="midnightblue" stroke="midnightblue" points="279.37,-177.08 288.06,-171.03 277.49,-170.34 279.37,-177.08"/>
</g>
<!-- Node5 -->
<g id="node5" class="node">
<title>Node5</title>
<g id="a_node5"><a xlink:href="group__datatypes__iterable__operate.html#ga3d37c2b0067d1661724bd89955c8f6ce" target="_top" xlink:title="Return an element of an iterable when it exists or a default value otherwise.">
<polygon fill="white" stroke="black" points="493,-171.5 493,-190.5 572,-190.5 572,-171.5 493,-171.5"/>
<text text-anchor="middle" x="532.5" y="-178.5" font-family="Helvetica,sans-Serif" font-size="10.00">defined_e_or</text>
</a>
</g>
</g>
<!-- Node4&#45;&gt;Node5 -->
<g id="edge4" class="edge">
<title>Node4&#45;&gt;Node5</title>
<path fill="none" stroke="midnightblue" d="M457.22,-209.8C469.35,-205.1 484.32,-199.3 497.63,-194.13"/>
<polygon fill="midnightblue" stroke="midnightblue" points="498.91,-197.39 506.97,-190.51 496.38,-190.86 498.91,-197.39"/>
</g>
<!-- Node6&#45;&gt;Node4 -->
<g id="edge7" class="edge">
<title>Node6&#45;&gt;Node4</title>
<path fill="none" stroke="midnightblue" d="M351.14,-204.99C365.49,-207.49 382.95,-210.54 397.93,-213.15"/>
<polygon fill="midnightblue" stroke="midnightblue" points="397.38,-216.61 407.83,-214.87 398.58,-209.71 397.38,-216.61"/>
</g>
<!-- Node6&#45;&gt;Node5 -->
<g id="edge6" class="edge">
<title>Node6&#45;&gt;Node5</title>
<path fill="none" stroke="midnightblue" d="M351.12,-197.4C385.03,-194.32 442.06,-189.13 482.92,-185.42"/>
<polygon fill="midnightblue" stroke="midnightblue" points="483.3,-188.9 492.94,-184.51 482.66,-181.93 483.3,-188.9"/>
</g>
<!-- Node8&#45;&gt;Node5 -->
<g id="edge11" class="edge">
<title>Node8&#45;&gt;Node5</title>
<path fill="none" stroke="midnightblue" d="M218.91,-95.54C282.4,-112.9 416.65,-149.6 486.75,-168.77"/>
<polygon fill="midnightblue" stroke="midnightblue" points="486.04,-172.2 496.61,-171.46 487.89,-165.45 486.04,-172.2"/>
</g>
<!-- Node9 -->
<g id="node9" class="node">
<title>Node9</title>
<g id="a_node9"><a xlink:href="group__datatypes__binary.html#ga7ce4ed94d9b389ff817ea219918b8732" target="_top" xlink:title="Test if a binary bit position of an integer value equals a test bit.">
<polygon fill="white" stroke="black" points="282,-76.5 282,-95.5 361,-95.5 361,-76.5 282,-76.5"/>
<text text-anchor="middle" x="321.5" y="-83.5" font-family="Helvetica,sans-Serif" font-size="10.00">binary_bit_is</text>
</a>
</g>
</g>
<!-- Node8&#45;&gt;Node9 -->
<g id="edge10" class="edge">
<title>Node8&#45;&gt;Node9</title>
<path fill="none" stroke="midnightblue" d="M235.22,-86C247.15,-86 259.83,-86 271.66,-86"/>
<polygon fill="midnightblue" stroke="midnightblue" points="271.8,-89.5 281.8,-86 271.8,-82.5 271.8,-89.5"/>
</g>
<!-- Node10 -->
<g id="node10" class="node">
<title>Node10</title>
<g id="a_node10"><a xlink:href="group__tools__extrude.html#ga31947e37a3512d9814d47f8f8c960f84" target="_top" xlink:title="Translate, rotate, and revolve a 2d shape about the z&#45;axis.">
<polygon fill="white" stroke="black" points="271,-38.5 271,-57.5 372,-57.5 372,-38.5 271,-38.5"/>
<text text-anchor="middle" x="321.5" y="-45.5" font-family="Helvetica,sans-Serif" font-size="10.00">extrude_rotate_tr</text>
</a>
</g>
</g>
<!-- Node8&#45;&gt;Node10 -->
<g id="edge12" class="edge">
<title>Node8&#45;&gt;Node10</title>
<path fill="none" stroke="midnightblue" d="M218.44,-76.41C235.98,-71.53 257.51,-65.54 276.26,-60.32"/>
<polygon fill="midnightblue" stroke="midnightblue" points="277.37,-63.64 286.07,-57.59 275.49,-56.9 277.37,-63.64"/>
</g>
<!-- Node12 -->
<g id="node12" class="node">
<title>Node12</title>
<g id="a_node12"><a xlink:href="group__datatypes__scalar__test.html#ga258e8911375d30ff85a6e52df01dc1c5" target="_top" xlink:title="Test if a value is a single non&#45;iterable value.">
<polygon fill="white" stroke="black" points="292,-0.5 292,-19.5 351,-19.5 351,-0.5 292,-0.5"/>
<text text-anchor="middle" x="321.5" y="-7.5" font-family="Helvetica,sans-Serif" font-size="10.00">is_scalar</text>
</a>
</g>
</g>
<!-- Node8&#45;&gt;Node12 -->
<g id="edge14" class="edge">
<title>Node8&#45;&gt;Node12</title>
<path fill="none" stroke="midnightblue" d="M196.74,-76.4C213.24,-64.26 243.19,-43.24 271,-29 274.83,-27.04 278.9,-25.16 283.01,-23.41"/>
<polygon fill="midnightblue" stroke="midnightblue" points="284.6,-26.54 292.55,-19.53 281.97,-20.05 284.6,-26.54"/>
</g>
<!-- Node11 -->
<g id="node11" class="node">
<title>Node11</title>
<g id="a_node11"><a xlink:href="group__units__angle.html#ga06a917b77748dfb74e765bcd7c4c0219" target="_top" xlink:title="Convert an angle from some units to another.">
<polygon fill="white" stroke="black" points="410.5,-38.5 410.5,-57.5 454.5,-57.5 454.5,-38.5 410.5,-38.5"/>
<text text-anchor="middle" x="432.5" y="-45.5" font-family="Helvetica,sans-Serif" font-size="10.00">angle</text>
</a>
</g>
</g>
<!-- Node10&#45;&gt;Node11 -->
<g id="edge13" class="edge">
<title>Node10&#45;&gt;Node11</title>
<path fill="none" stroke="midnightblue" d="M372.22,-48C381.8,-48 391.57,-48 400.36,-48"/>
<polygon fill="midnightblue" stroke="midnightblue" points="400.49,-51.5 410.49,-48 400.49,-44.5 400.49,-51.5"/>
</g>
</g>
</svg>
