<?xml version="1.0" encoding="UTF-8" standalone="no"?>
<!DOCTYPE svg PUBLIC "-//W3C//DTD SVG 1.1//EN"
 "http://www.w3.org/Graphics/SVG/1.1/DTD/svg11.dtd">
<!-- Generated by graphviz version 2.43.0 (0)
 -->
<!-- Title: Polyhedrons Pages: 1 -->
<svg width="243pt" height="36pt"
 viewBox="0.00 0.00 243.00 35.81" xmlns="http://www.w3.org/2000/svg" xmlns:xlink="http://www.w3.org/1999/xlink">
<g id="graph0" class="graph" transform="scale(1 1) rotate(0) translate(4 31.81)">
<title>Polyhedrons</title>
<polygon fill="white" stroke="transparent" points="-4,4 -4,-31.81 239,-31.81 239,4 -4,4"/>
<!-- Node2 -->
<g id="node1" class="node">
<title>Node2</title>
<g id="a_node1"><a xlink:href="group__math.html" target="_top" xlink:title="Mathematical functions and operations.">
<polygon fill="white" stroke="black" points="41,-27.81 0,-27.81 0,-8.81 41,-8.81 41,-27.81"/>
<text text-anchor="middle" x="20.5" y="-15.81" font-family="Helvetica,sans-Serif" font-size="10.00">Math</text>
</a>
</g>
</g>
<!-- Node1 -->
<g id="node2" class="node">
<title>Node1</title>
<g id="a_node2"><a xlink:title="Polyhedron mathematical functions; 3&#45;polytope.">
<polygon fill="#bfbfbf" stroke="black" points="235,-27.81 158,-27.81 158,-8.81 235,-8.81 235,-27.81"/>
<text text-anchor="middle" x="196.5" y="-15.81" font-family="Helvetica,sans-Serif" font-size="10.00">Polyhedrons</text>
</a>
</g>
</g>
<!-- Node2&#45;&gt;Node1 -->
<g id="edge1" class="edge">
<title>Node2&#45;&gt;Node1</title>
<path fill="none" stroke="black" d="M51.22,-18.31C80.71,-18.31 126.02,-18.31 157.98,-18.31"/>
<polygon fill="black" stroke="black" points="51.12,-14.81 41.12,-18.31 51.12,-21.81 51.12,-14.81"/>
</g>
<!-- Node1&#45;&gt;Node2 -->
<g id="edge2" class="edge">
<title>Node1&#45;&gt;Node2</title>
<path fill="none" stroke="darkgreen" stroke-dasharray="5,2" d="M163.47,-8.8C155.85,-6.94 147.69,-5.26 140,-4.31 104.27,0.13 94.43,2.09 59,-4.31 53.12,-5.37 46.96,-7.3 41.37,-9.39"/>
<text text-anchor="middle" x="99.5" y="-7.31" font-family="Helvetica,sans-Serif" font-size="10.00">polyhedron.scad</text>
</g>
</g>
</svg>
