<?xml version="1.0" encoding="UTF-8" standalone="no"?>
<!DOCTYPE svg PUBLIC "-//W3C//DTD SVG 1.1//EN"
 "http://www.w3.org/Graphics/SVG/1.1/DTD/svg11.dtd">
<!-- Generated by graphviz version 2.43.0 (0)
 -->
<!-- Title: map_write Pages: 1 -->
<svg width="204pt" height="332pt"
 viewBox="0.00 0.00 204.00 332.00" xmlns="http://www.w3.org/2000/svg" xmlns:xlink="http://www.w3.org/1999/xlink">
<g id="graph0" class="graph" transform="scale(1 1) rotate(0) translate(4 328)">
<title>map_write</title>
<polygon fill="white" stroke="transparent" points="-4,4 -4,-328 200,-328 200,4 -4,4"/>
<!-- Node1 -->
<g id="node1" class="node">
<title>Node1</title>
<g id="a_node1"><a xlink:title="Write formatted map entries to the console.">
<polygon fill="#bfbfbf" stroke="black" points="0,-152.5 0,-171.5 68,-171.5 68,-152.5 0,-152.5"/>
<text text-anchor="middle" x="34" y="-159.5" font-family="Helvetica,sans-Serif" font-size="10.00">map_write</text>
</a>
</g>
</g>
<!-- Node2 -->
<g id="node2" class="node">
<title>Node2</title>
<g id="a_node2"><a xlink:href="group__datatypes__iterable__operate.html#gaccab3e37e43cb1d882713b3f3d6d9e1b" target="_top" xlink:title="Return the first element of an iterable value.">
<polygon fill="white" stroke="black" points="132.5,-304.5 132.5,-323.5 167.5,-323.5 167.5,-304.5 132.5,-304.5"/>
<text text-anchor="middle" x="150" y="-311.5" font-family="Helvetica,sans-Serif" font-size="10.00">first</text>
</a>
</g>
</g>
<!-- Node1&#45;&gt;Node2 -->
<g id="edge1" class="edge">
<title>Node1&#45;&gt;Node2</title>
<path fill="none" stroke="midnightblue" d="M37.56,-171.78C44.35,-195.91 65.02,-258.99 104,-295 109.36,-299.95 116.19,-303.72 122.91,-306.54"/>
<polygon fill="midnightblue" stroke="midnightblue" points="121.89,-309.89 132.48,-310.02 124.28,-303.31 121.89,-309.89"/>
</g>
<!-- Node3 -->
<g id="node3" class="node">
<title>Node3</title>
<g id="a_node3"><a xlink:href="group__datatypes__scalar__test.html#gac47a7785d144083733c43327ea092e1d" target="_top" xlink:title="Test if a value is a number.">
<polygon fill="white" stroke="black" points="116,-266.5 116,-285.5 184,-285.5 184,-266.5 116,-266.5"/>
<text text-anchor="middle" x="150" y="-273.5" font-family="Helvetica,sans-Serif" font-size="10.00">is_number</text>
</a>
</g>
</g>
<!-- Node1&#45;&gt;Node3 -->
<g id="edge2" class="edge">
<title>Node1&#45;&gt;Node3</title>
<path fill="none" stroke="midnightblue" d="M39.73,-171.69C49.37,-190.53 73.03,-232.41 104,-257 106.03,-258.61 108.23,-260.12 110.51,-261.51"/>
<polygon fill="midnightblue" stroke="midnightblue" points="109.14,-264.74 119.62,-266.33 112.42,-258.56 109.14,-264.74"/>
</g>
<!-- Node4 -->
<g id="node4" class="node">
<title>Node4</title>
<g id="a_node4"><a xlink:href="group__common__console.html#ga2565219688decee9515f527f4553044a" target="_top" xlink:title="Output message to console.">
<polygon fill="white" stroke="black" points="120,-228.5 120,-247.5 180,-247.5 180,-228.5 120,-228.5"/>
<text text-anchor="middle" x="150" y="-235.5" font-family="Helvetica,sans-Serif" font-size="10.00">log_echo</text>
</a>
</g>
</g>
<!-- Node1&#45;&gt;Node4 -->
<g id="edge3" class="edge">
<title>Node1&#45;&gt;Node4</title>
<path fill="none" stroke="midnightblue" d="M45.03,-171.91C57.85,-184.18 81.15,-205.15 104,-219 106.99,-220.81 110.19,-222.54 113.44,-224.15"/>
<polygon fill="midnightblue" stroke="midnightblue" points="112.12,-227.39 122.66,-228.39 115.04,-221.03 112.12,-227.39"/>
</g>
<!-- Node5 -->
<g id="node5" class="node">
<title>Node5</title>
<g id="a_node5"><a xlink:href="group__datatypes__map.html#ga7a66b27f62b89dfcd3c00087846de7c2" target="_top" xlink:title="Return the index of a map key.">
<polygon fill="white" stroke="black" points="104,-190.5 104,-209.5 196,-209.5 196,-190.5 104,-190.5"/>
<text text-anchor="middle" x="150" y="-197.5" font-family="Helvetica,sans-Serif" font-size="10.00">map_get_index</text>
</a>
</g>
</g>
<!-- Node1&#45;&gt;Node5 -->
<g id="edge4" class="edge">
<title>Node1&#45;&gt;Node5</title>
<path fill="none" stroke="midnightblue" d="M63.77,-171.59C77.94,-176.31 95.24,-182.08 110.53,-187.18"/>
<polygon fill="midnightblue" stroke="midnightblue" points="109.65,-190.57 120.24,-190.41 111.86,-183.93 109.65,-190.57"/>
</g>
<!-- Node6 -->
<g id="node6" class="node">
<title>Node6</title>
<g id="a_node6"><a xlink:href="group__datatypes__map.html#ga26256126d8c69481f34865669ef43896" target="_top" xlink:title="Get a list of all map keys.">
<polygon fill="white" stroke="black" points="106.5,-152.5 106.5,-171.5 193.5,-171.5 193.5,-152.5 106.5,-152.5"/>
<text text-anchor="middle" x="150" y="-159.5" font-family="Helvetica,sans-Serif" font-size="10.00">map_get_keys</text>
</a>
</g>
</g>
<!-- Node1&#45;&gt;Node6 -->
<g id="edge5" class="edge">
<title>Node1&#45;&gt;Node6</title>
<path fill="none" stroke="midnightblue" d="M68.28,-162C76.97,-162 86.55,-162 95.99,-162"/>
<polygon fill="midnightblue" stroke="midnightblue" points="96.12,-165.5 106.12,-162 96.12,-158.5 96.12,-165.5"/>
</g>
<!-- Node7 -->
<g id="node7" class="node">
<title>Node7</title>
<g id="a_node7"><a xlink:href="group__datatypes__map.html#gaca8f75d5b124f26ea647d5ba147f7067" target="_top" xlink:title="Get the number of map entries.">
<polygon fill="white" stroke="black" points="108,-114.5 108,-133.5 192,-133.5 192,-114.5 108,-114.5"/>
<text text-anchor="middle" x="150" y="-121.5" font-family="Helvetica,sans-Serif" font-size="10.00">map_get_size</text>
</a>
</g>
</g>
<!-- Node1&#45;&gt;Node7 -->
<g id="edge6" class="edge">
<title>Node1&#45;&gt;Node7</title>
<path fill="none" stroke="midnightblue" d="M63.77,-152.41C77.94,-147.69 95.24,-141.92 110.53,-136.82"/>
<polygon fill="midnightblue" stroke="midnightblue" points="111.86,-140.07 120.24,-133.59 109.65,-133.43 111.86,-140.07"/>
</g>
<!-- Node8 -->
<g id="node8" class="node">
<title>Node8</title>
<g id="a_node8"><a xlink:href="group__datatypes__map.html#ga18d78aec6f24969b9ad51595533f78b2" target="_top" xlink:title="Get the map value associated with a key.">
<polygon fill="white" stroke="black" points="104,-76.5 104,-95.5 196,-95.5 196,-76.5 104,-76.5"/>
<text text-anchor="middle" x="150" y="-83.5" font-family="Helvetica,sans-Serif" font-size="10.00">map_get_value</text>
</a>
</g>
</g>
<!-- Node1&#45;&gt;Node8 -->
<g id="edge7" class="edge">
<title>Node1&#45;&gt;Node8</title>
<path fill="none" stroke="midnightblue" d="M45.03,-152.09C57.85,-139.82 81.15,-118.85 104,-105 106.99,-103.19 110.19,-101.46 113.44,-99.85"/>
<polygon fill="midnightblue" stroke="midnightblue" points="115.04,-102.97 122.66,-95.61 112.12,-96.61 115.04,-102.97"/>
</g>
<!-- Node9 -->
<g id="node9" class="node">
<title>Node9</title>
<g id="a_node9"><a xlink:href="group__datatypes__list__operate.html#ga9b27b6cbb7a25f477c049a63cf43691c" target="_top" xlink:title="Sort the elements of an iterable value using quick sort.">
<polygon fill="white" stroke="black" points="126.5,-38.5 126.5,-57.5 173.5,-57.5 173.5,-38.5 126.5,-38.5"/>
<text text-anchor="middle" x="150" y="-45.5" font-family="Helvetica,sans-Serif" font-size="10.00">sort_q</text>
</a>
</g>
</g>
<!-- Node1&#45;&gt;Node9 -->
<g id="edge8" class="edge">
<title>Node1&#45;&gt;Node9</title>
<path fill="none" stroke="midnightblue" d="M39.73,-152.31C49.37,-133.47 73.03,-91.59 104,-67 107.86,-63.93 112.3,-61.28 116.84,-59.01"/>
<polygon fill="midnightblue" stroke="midnightblue" points="118.45,-62.12 126.17,-54.87 115.61,-55.72 118.45,-62.12"/>
</g>
<!-- Node10 -->
<g id="node10" class="node">
<title>Node10</title>
<g id="a_node10"><a xlink:href="group__datatypes__list__operate.html#gac68d885cc15339910c08a9094bcacfc7" target="_top" xlink:title="Convert a list of values to a concatenated HTML&#45;formatted string.">
<polygon fill="white" stroke="black" points="120,-0.5 120,-19.5 180,-19.5 180,-0.5 120,-0.5"/>
<text text-anchor="middle" x="150" y="-7.5" font-family="Helvetica,sans-Serif" font-size="10.00">strl_html</text>
</a>
</g>
</g>
<!-- Node1&#45;&gt;Node10 -->
<g id="edge9" class="edge">
<title>Node1&#45;&gt;Node10</title>
<path fill="none" stroke="midnightblue" d="M37.56,-152.22C44.35,-128.09 65.02,-65.01 104,-29 105.96,-27.19 108.12,-25.53 110.4,-24.03"/>
<polygon fill="midnightblue" stroke="midnightblue" points="112.58,-26.82 119.63,-18.92 109.18,-20.7 112.58,-26.82"/>
</g>
</g>
</svg>
