<?xml version="1.0" encoding="UTF-8" standalone="no"?>
<!DOCTYPE svg PUBLIC "-//W3C//DTD SVG 1.1//EN"
 "http://www.w3.org/Graphics/SVG/1.1/DTD/svg11.dtd">
<!-- Generated by graphviz version 2.43.0 (0)
 -->
<!-- Title: Screws Pages: 1 -->
<svg width="213pt" height="29pt"
 viewBox="0.00 0.00 213.00 28.50" xmlns="http://www.w3.org/2000/svg" xmlns:xlink="http://www.w3.org/1999/xlink">
<g id="graph0" class="graph" transform="scale(1 1) rotate(0) translate(4 24.5)">
<title>Screws</title>
<polygon fill="white" stroke="transparent" points="-4,4 -4,-24.5 209,-24.5 209,4 -4,4"/>
<!-- Node1 -->
<g id="node1" class="node">
<title>Node1</title>
<g id="a_node1"><a xlink:title="Screws and screw bores.">
<polygon fill="#bfbfbf" stroke="black" points="51,-19 0,-19 0,0 51,0 51,-19"/>
<text text-anchor="middle" x="25.5" y="-7" font-family="Helvetica,sans-Serif" font-size="10.00">Screws</text>
</a>
</g>
</g>
<!-- Node2 -->
<g id="node2" class="node">
<title>Node2</title>
<g id="a_node2"><a xlink:href="group__models__3d__fastener.html" target="_top" xlink:title="Fasteners, connectors, latches, and hinges.">
<polygon fill="white" stroke="black" points="205,-19 147,-19 147,0 205,0 205,-19"/>
<text text-anchor="middle" x="176" y="-7" font-family="Helvetica,sans-Serif" font-size="10.00">Fastener</text>
</a>
</g>
</g>
<!-- Node1&#45;&gt;Node2 -->
<g id="edge2" class="edge">
<title>Node1&#45;&gt;Node2</title>
<path fill="none" stroke="darkgreen" stroke-dasharray="5,2" d="M51.02,-9.5C77.38,-9.5 119.22,-9.5 146.89,-9.5"/>
<text text-anchor="middle" x="99" y="-12.5" font-family="Helvetica,sans-Serif" font-size="10.00">screws.scad</text>
</g>
<!-- Node2&#45;&gt;Node1 -->
<g id="edge1" class="edge">
<title>Node2&#45;&gt;Node1</title>
<path fill="none" stroke="black" d="M136.73,-7.71C134.11,-7.63 131.52,-7.55 129,-7.5 102.34,-6.92 95.66,-6.87 69,-7.5 63.24,-7.64 57.04,-7.87 51.21,-8.14"/>
<polygon fill="black" stroke="black" points="136.67,-11.21 146.79,-8.08 136.92,-4.21 136.67,-11.21"/>
</g>
</g>
</svg>
