<?xml version="1.0" encoding="UTF-8" standalone="no"?>
<!DOCTYPE svg PUBLIC "-//W3C//DTD SVG 1.1//EN"
 "http://www.w3.org/Graphics/SVG/1.1/DTD/svg11.dtd">
<!-- Generated by graphviz version 2.43.0 (0)
 -->
<!-- Title: Polyhedrons db Pages: 1 -->
<svg width="286pt" height="36pt"
 viewBox="0.00 0.00 286.00 36.10" xmlns="http://www.w3.org/2000/svg" xmlns:xlink="http://www.w3.org/1999/xlink">
<g id="graph0" class="graph" transform="scale(1 1) rotate(0) translate(4 32.1)">
<title>Polyhedrons db</title>
<polygon fill="white" stroke="transparent" points="-4,4 -4,-32.1 282,-32.1 282,4 -4,4"/>
<!-- Node2 -->
<g id="node1" class="node">
<title>Node2</title>
<g id="a_node1"><a xlink:href="group__shapes.html" target="_top" xlink:title="Geometric shapes and basic constructs.">
<polygon fill="white" stroke="black" points="52,-28.1 0,-28.1 0,-9.1 52,-9.1 52,-28.1"/>
<text text-anchor="middle" x="26" y="-16.1" font-family="Helvetica,sans-Serif" font-size="10.00">Shapes</text>
</a>
</g>
</g>
<!-- Node1 -->
<g id="node2" class="node">
<title>Node1</title>
<g id="a_node2"><a xlink:title="Sizable polyhedra generated from shape database.">
<polygon fill="#bfbfbf" stroke="black" points="278,-28.1 186,-28.1 186,-9.1 278,-9.1 278,-28.1"/>
<text text-anchor="middle" x="232" y="-16.1" font-family="Helvetica,sans-Serif" font-size="10.00">Polyhedrons db</text>
</a>
</g>
</g>
<!-- Node2&#45;&gt;Node1 -->
<g id="edge1" class="edge">
<title>Node2&#45;&gt;Node1</title>
<path fill="none" stroke="black" d="M62.03,-18.6C96.31,-18.6 148.65,-18.6 185.99,-18.6"/>
<polygon fill="black" stroke="black" points="62.01,-15.1 52.01,-18.6 62.01,-22.1 62.01,-15.1"/>
</g>
<!-- Node1&#45;&gt;Node2 -->
<g id="edge2" class="edge">
<title>Node1&#45;&gt;Node2</title>
<path fill="none" stroke="darkgreen" stroke-dasharray="5,2" d="M194.58,-9.09C185.93,-7.23 176.69,-5.56 168,-4.6 124.7,0.15 113.02,2.23 70,-4.6 63.95,-5.56 57.6,-7.24 51.68,-9.1"/>
<text text-anchor="middle" x="119" y="-7.6" font-family="Helvetica,sans-Serif" font-size="10.00">polyhedron_db.scad</text>
</g>
</g>
</svg>
