<?xml version="1.0" encoding="UTF-8" standalone="no"?>
<!DOCTYPE svg PUBLIC "-//W3C//DTD SVG 1.1//EN"
 "http://www.w3.org/Graphics/SVG/1.1/DTD/svg11.dtd">
<!-- Generated by graphviz version 2.43.0 (0)
 -->
<!-- Title: Fastener Pages: 1 -->
<svg width="348pt" height="35pt"
 viewBox="0.00 0.00 348.00 35.37" xmlns="http://www.w3.org/2000/svg" xmlns:xlink="http://www.w3.org/1999/xlink">
<g id="graph0" class="graph" transform="scale(1 1) rotate(0) translate(4 31.37)">
<title>Fastener</title>
<polygon fill="white" stroke="transparent" points="-4,4 -4,-31.37 344,-31.37 344,4 -4,4"/>
<!-- Node2 -->
<g id="node1" class="node">
<title>Node2</title>
<g id="a_node1"><a xlink:href="group__parts__3d.html" target="_top" xlink:title="3d parts, part generators, and small assemblies.">
<polygon fill="white" stroke="black" points="56,-27.37 0,-27.37 0,-8.37 56,-8.37 56,-27.37"/>
<text text-anchor="middle" x="28" y="-15.37" font-family="Helvetica,sans-Serif" font-size="10.00">3d Parts</text>
</a>
</g>
</g>
<!-- Node1 -->
<g id="node2" class="node">
<title>Node1</title>
<g id="a_node2"><a xlink:title="Fasteners, connectors, joiners, latches, and hinges.">
<polygon fill="#bfbfbf" stroke="black" points="151,-27.37 93,-27.37 93,-8.37 151,-8.37 151,-27.37"/>
<text text-anchor="middle" x="122" y="-15.37" font-family="Helvetica,sans-Serif" font-size="10.00">Fastener</text>
</a>
</g>
</g>
<!-- Node2&#45;&gt;Node1 -->
<g id="edge1" class="edge">
<title>Node2&#45;&gt;Node1</title>
<path fill="none" stroke="black" d="M66.23,-17.87C75.1,-17.87 84.42,-17.87 92.81,-17.87"/>
<polygon fill="black" stroke="black" points="66.11,-14.37 56.11,-17.87 66.11,-21.37 66.11,-14.37"/>
</g>
<!-- Node3 -->
<g id="node3" class="node">
<title>Node3</title>
<g id="a_node3"><a xlink:href="group__parts__3d__fastener__catch__latch.html" target="_top" xlink:title="Catch latch generator.">
<polygon fill="white" stroke="black" points="340,-27.37 269,-27.37 269,-8.37 340,-8.37 340,-27.37"/>
<text text-anchor="middle" x="304.5" y="-15.37" font-family="Helvetica,sans-Serif" font-size="10.00">Catch latch</text>
</a>
</g>
</g>
<!-- Node1&#45;&gt;Node3 -->
<g id="edge2" class="edge">
<title>Node1&#45;&gt;Node3</title>
<path fill="none" stroke="black" d="M161.45,-17.87C193.23,-17.87 237.96,-17.87 268.7,-17.87"/>
<polygon fill="black" stroke="black" points="161.2,-14.37 151.2,-17.87 161.2,-21.37 161.2,-14.37"/>
</g>
<!-- Node1&#45;&gt;Node3 -->
<g id="edge3" class="edge">
<title>Node1&#45;&gt;Node3</title>
<path fill="none" stroke="darkgreen" stroke-dasharray="5,2" d="M149.45,-8.36C155.77,-6.5 162.56,-4.82 169,-3.87 205.05,1.5 214.86,0.87 251,-3.87 258.3,-4.82 266.02,-6.49 273.23,-8.36"/>
<text text-anchor="middle" x="210" y="-6.87" font-family="Helvetica,sans-Serif" font-size="10.00">catch_latch.scad</text>
</g>
</g>
</svg>
