<?xml version="1.0" encoding="UTF-8" standalone="no"?>
<!DOCTYPE svg PUBLIC "-//W3C//DTD SVG 1.1//EN"
 "http://www.w3.org/Graphics/SVG/1.1/DTD/svg11.dtd">
<!-- Generated by graphviz version 2.43.0 (0)
 -->
<!-- Title: pg_triangle_sas Pages: 1 -->
<svg width="388pt" height="66pt"
 viewBox="0.00 0.00 388.00 66.00" xmlns="http://www.w3.org/2000/svg" xmlns:xlink="http://www.w3.org/1999/xlink">
<g id="graph0" class="graph" transform="scale(1 1) rotate(0) translate(4 62)">
<title>pg_triangle_sas</title>
<polygon fill="white" stroke="transparent" points="-4,4 -4,-62 384,-62 384,4 -4,4"/>
<!-- Node1 -->
<g id="node1" class="node">
<title>Node1</title>
<g id="a_node1"><a xlink:title="A polygon triangle specified by size&#45;angle&#45;size with vertex rounding.">
<polygon fill="#bfbfbf" stroke="black" points="287,-19.5 287,-38.5 380,-38.5 380,-19.5 287,-19.5"/>
<text text-anchor="middle" x="333.5" y="-26.5" font-family="Helvetica,sans-Serif" font-size="10.00">pg_triangle_sas</text>
</a>
</g>
</g>
<!-- Node2 -->
<g id="node2" class="node">
<title>Node2</title>
<g id="a_node2"><a xlink:href="group__parts__3d__enclosure__project__box__rectangle.html#ga6a5d093d732e65556c46252220f2c4b6" target="_top" xlink:title="A rectangular box maker for project boxes, enclosures and housings.">
<polygon fill="white" stroke="black" points="126,-38.5 126,-57.5 251,-57.5 251,-38.5 126,-38.5"/>
<text text-anchor="middle" x="188.5" y="-45.5" font-family="Helvetica,sans-Serif" font-size="10.00">project_box_rectangle</text>
</a>
</g>
</g>
<!-- Node1&#45;&gt;Node2 -->
<g id="edge1" class="edge">
<title>Node1&#45;&gt;Node2</title>
<path fill="none" stroke="midnightblue" d="M276.79,-36.4C268.38,-37.52 259.66,-38.68 251.14,-39.81"/>
<polygon fill="midnightblue" stroke="midnightblue" points="277.41,-39.85 286.86,-35.06 276.49,-32.91 277.41,-39.85"/>
</g>
<!-- Node4 -->
<g id="node4" class="node">
<title>Node4</title>
<g id="a_node4"><a xlink:href="group__parts__3d__enclosure__mounts.html#gacac878eda32a71cb3b1b174c9aebb56c" target="_top" xlink:title="A mount tab with screw hole and support brace.">
<polygon fill="white" stroke="black" points="137,-0.5 137,-19.5 240,-19.5 240,-0.5 137,-0.5"/>
<text text-anchor="middle" x="188.5" y="-7.5" font-family="Helvetica,sans-Serif" font-size="10.00">screw_mount_tab</text>
</a>
</g>
</g>
<!-- Node1&#45;&gt;Node4 -->
<g id="edge3" class="edge">
<title>Node1&#45;&gt;Node4</title>
<path fill="none" stroke="midnightblue" d="M276.88,-21.61C264.79,-20 252.05,-18.31 240.16,-16.73"/>
<polygon fill="midnightblue" stroke="midnightblue" points="276.49,-25.09 286.86,-22.94 277.41,-18.15 276.49,-25.09"/>
</g>
<!-- Node3 -->
<g id="node3" class="node">
<title>Node3</title>
<g id="a_node3"><a xlink:href="group__parts__3d__enclosure__power__strip.html#ga191779dedf39e4fd769a8dc96b0f8c9e" target="_top" xlink:title="A power strip generator for single gang electrical receptacles.">
<polygon fill="white" stroke="black" points="0,-19.5 0,-38.5 90,-38.5 90,-19.5 0,-19.5"/>
<text text-anchor="middle" x="45" y="-26.5" font-family="Helvetica,sans-Serif" font-size="10.00">power_strip_sg</text>
</a>
</g>
</g>
<!-- Node2&#45;&gt;Node3 -->
<g id="edge2" class="edge">
<title>Node2&#45;&gt;Node3</title>
<path fill="none" stroke="midnightblue" d="M115.9,-38.39C107.07,-37.2 98.26,-36.02 90.01,-34.91"/>
<polygon fill="midnightblue" stroke="midnightblue" points="115.47,-41.86 125.85,-39.72 116.4,-34.92 115.47,-41.86"/>
</g>
<!-- Node4&#45;&gt;Node3 -->
<g id="edge4" class="edge">
<title>Node4&#45;&gt;Node3</title>
<path fill="none" stroke="midnightblue" d="M126.66,-18.17C114.42,-19.81 101.78,-21.51 90.24,-23.06"/>
<polygon fill="midnightblue" stroke="midnightblue" points="127.37,-21.61 136.81,-16.81 126.44,-14.67 127.37,-21.61"/>
</g>
</g>
</svg>
