<?xml version="1.0" encoding="UTF-8" standalone="no"?>
<!DOCTYPE svg PUBLIC "-//W3C//DTD SVG 1.1//EN"
 "http://www.w3.org/Graphics/SVG/1.1/DTD/svg11.dtd">
<!-- Generated by graphviz version 2.43.0 (0)
 -->
<!-- Title: lmxuu Pages: 1 -->
<svg width="172pt" height="104pt"
 viewBox="0.00 0.00 172.00 104.00" xmlns="http://www.w3.org/2000/svg" xmlns:xlink="http://www.w3.org/1999/xlink">
<g id="graph0" class="graph" transform="scale(1 1) rotate(0) translate(4 100)">
<title>lmxuu</title>
<polygon fill="white" stroke="transparent" points="-4,4 -4,-100 168,-100 168,4 -4,4"/>
<!-- Node1 -->
<g id="node1" class="node">
<title>Node1</title>
<g id="a_node1"><a xlink:title="Linear motion bearing model.">
<polygon fill="#bfbfbf" stroke="black" points="0,-38.5 0,-57.5 47,-57.5 47,-38.5 0,-38.5"/>
<text text-anchor="middle" x="23.5" y="-45.5" font-family="Helvetica,sans-Serif" font-size="10.00">lmxuu</text>
</a>
</g>
</g>
<!-- Node2 -->
<g id="node2" class="node">
<title>Node2</title>
<g id="a_node2"><a xlink:href="group__datatypes__table.html#ga311692917e3802691fe7a9e1ed8c41f7" target="_top" xlink:title="Test the existence of a table row identifier, table column identifier, or both.">
<polygon fill="white" stroke="black" points="83,-76.5 83,-95.5 164,-95.5 164,-76.5 83,-76.5"/>
<text text-anchor="middle" x="123.5" y="-83.5" font-family="Helvetica,sans-Serif" font-size="10.00">ctable_exists</text>
</a>
</g>
</g>
<!-- Node1&#45;&gt;Node2 -->
<g id="edge1" class="edge">
<title>Node1&#45;&gt;Node2</title>
<path fill="none" stroke="midnightblue" d="M47.23,-56.81C59.42,-61.54 74.7,-67.46 88.3,-72.74"/>
<polygon fill="midnightblue" stroke="midnightblue" points="87.24,-76.08 97.83,-76.44 89.78,-69.56 87.24,-76.08"/>
</g>
<!-- Node3 -->
<g id="node3" class="node">
<title>Node3</title>
<g id="a_node3"><a xlink:href="group__datatypes__table.html#gaee8b64344e9cf098ecb42613f0659d0d" target="_top" xlink:title="Get a row, a column, or a specific cell value from a table.">
<polygon fill="white" stroke="black" points="89.5,-38.5 89.5,-57.5 157.5,-57.5 157.5,-38.5 89.5,-38.5"/>
<text text-anchor="middle" x="123.5" y="-45.5" font-family="Helvetica,sans-Serif" font-size="10.00">ctable_get</text>
</a>
</g>
</g>
<!-- Node1&#45;&gt;Node3 -->
<g id="edge2" class="edge">
<title>Node1&#45;&gt;Node3</title>
<path fill="none" stroke="midnightblue" d="M47.23,-48C56.84,-48 68.36,-48 79.47,-48"/>
<polygon fill="midnightblue" stroke="midnightblue" points="79.49,-51.5 89.49,-48 79.49,-44.5 79.49,-51.5"/>
</g>
<!-- Node4 -->
<g id="node4" class="node">
<title>Node4</title>
<g id="a_node4"><a xlink:href="group__datatypes__list__operate.html#ga7b8e6f2bbfa72ae61e39377e5ca6b5be" target="_top" xlink:title="Select specified element from list or return a default.">
<polygon fill="white" stroke="black" points="94,-0.5 94,-19.5 153,-19.5 153,-0.5 94,-0.5"/>
<text text-anchor="middle" x="123.5" y="-7.5" font-family="Helvetica,sans-Serif" font-size="10.00">select_ci</text>
</a>
</g>
</g>
<!-- Node1&#45;&gt;Node4 -->
<g id="edge3" class="edge">
<title>Node1&#45;&gt;Node4</title>
<path fill="none" stroke="midnightblue" d="M47.23,-39.19C59.42,-34.46 74.7,-28.54 88.3,-23.26"/>
<polygon fill="midnightblue" stroke="midnightblue" points="89.78,-26.44 97.83,-19.56 87.24,-19.92 89.78,-26.44"/>
</g>
</g>
</svg>
