<?xml version="1.0" encoding="UTF-8" standalone="no"?>
<!DOCTYPE svg PUBLIC "-//W3C//DTD SVG 1.1//EN"
 "http://www.w3.org/Graphics/SVG/1.1/DTD/svg11.dtd">
<!-- Generated by graphviz version 2.43.0 (0)
 -->
<!-- Title: Battery Pages: 1 -->
<svg width="352pt" height="81pt"
 viewBox="0.00 0.00 352.00 80.57" xmlns="http://www.w3.org/2000/svg" xmlns:xlink="http://www.w3.org/1999/xlink">
<g id="graph0" class="graph" transform="scale(1 1) rotate(0) translate(4 76.57)">
<title>Battery</title>
<polygon fill="white" stroke="transparent" points="-4,4 -4,-76.57 348,-76.57 348,4 -4,4"/>
<!-- Node4 -->
<g id="node1" class="node">
<title>Node4</title>
<g id="a_node1"><a xlink:href="group__database__component__battery__cylindrical.html" target="_top" xlink:title="Cylindrical batteries data table.">
<polygon fill="white" stroke="black" points="343.5,-70.82 275.5,-70.82 275.5,-51.82 343.5,-51.82 343.5,-70.82"/>
<text text-anchor="middle" x="309.5" y="-58.82" font-family="Helvetica,sans-Serif" font-size="10.00">Cylindrical</text>
</a>
</g>
</g>
<!-- Node1 -->
<g id="node2" class="node">
<title>Node1</title>
<g id="a_node2"><a xlink:title="Electric battery specifications.">
<polygon fill="#bfbfbf" stroke="black" points="163,-46.82 110,-46.82 110,-27.82 163,-27.82 163,-46.82"/>
<text text-anchor="middle" x="136.5" y="-34.82" font-family="Helvetica,sans-Serif" font-size="10.00">Battery</text>
</a>
</g>
</g>
<!-- Node1&#45;&gt;Node4 -->
<g id="edge3" class="edge">
<title>Node1&#45;&gt;Node4</title>
<path fill="none" stroke="black" d="M156.33,-53.38C163.56,-58.57 172.2,-63.66 181,-66.32 211.95,-75.7 249.07,-72.75 275.25,-68.49"/>
<polygon fill="black" stroke="black" points="158.06,-50.3 148.01,-46.94 153.77,-55.83 158.06,-50.3"/>
</g>
<!-- Node1&#45;&gt;Node4 -->
<g id="edge5" class="edge">
<title>Node1&#45;&gt;Node4</title>
<path fill="none" stroke="darkgreen" stroke-dasharray="5,2" d="M163.16,-40.6C187.38,-43.73 224.68,-48.65 257,-53.32 262.91,-54.18 269.2,-55.12 275.27,-56.06"/>
<text text-anchor="middle" x="219" y="-56.32" font-family="Helvetica,sans-Serif" font-size="10.00">cylindrical.scad</text>
</g>
<!-- Node3 -->
<g id="node4" class="node">
<title>Node3</title>
<g id="a_node4"><a xlink:href="group__database__component__battery__button.html" target="_top" xlink:title="Button cell batteries data table.">
<polygon fill="white" stroke="black" points="344,-22.82 275,-22.82 275,-3.82 344,-3.82 344,-22.82"/>
<text text-anchor="middle" x="309.5" y="-10.82" font-family="Helvetica,sans-Serif" font-size="10.00">Button cell</text>
</a>
</g>
</g>
<!-- Node1&#45;&gt;Node3 -->
<g id="edge2" class="edge">
<title>Node1&#45;&gt;Node3</title>
<path fill="none" stroke="black" d="M173.11,-32.33C203,-28.13 245.41,-22.18 274.76,-18.06"/>
<polygon fill="black" stroke="black" points="172.52,-28.87 163.1,-33.73 173.49,-35.81 172.52,-28.87"/>
</g>
<!-- Node1&#45;&gt;Node3 -->
<g id="edge4" class="edge">
<title>Node1&#45;&gt;Node3</title>
<path fill="none" stroke="darkgreen" stroke-dasharray="5,2" d="M147.21,-27.66C155.43,-20.21 167.93,-10.51 181,-6.32 211.72,3.5 248.71,-0.1 274.91,-5.04"/>
<text text-anchor="middle" x="219" y="-9.32" font-family="Helvetica,sans-Serif" font-size="10.00">button.scad</text>
</g>
<!-- Node2 -->
<g id="node3" class="node">
<title>Node2</title>
<g id="a_node3"><a xlink:href="group__database__component.html" target="_top" xlink:title="Design component specifications.">
<polygon fill="white" stroke="black" points="73,-46.82 0,-46.82 0,-27.82 73,-27.82 73,-46.82"/>
<text text-anchor="middle" x="36.5" y="-34.82" font-family="Helvetica,sans-Serif" font-size="10.00">Component</text>
</a>
</g>
</g>
<!-- Node2&#45;&gt;Node1 -->
<g id="edge1" class="edge">
<title>Node2&#45;&gt;Node1</title>
<path fill="none" stroke="black" d="M83.32,-37.32C92.44,-37.32 101.71,-37.32 109.85,-37.32"/>
<polygon fill="black" stroke="black" points="83.16,-33.82 73.16,-37.32 83.16,-40.82 83.16,-33.82"/>
</g>
</g>
</svg>
