<?xml version="1.0" encoding="UTF-8" standalone="no"?>
<!DOCTYPE svg PUBLIC "-//W3C//DTD SVG 1.1//EN"
 "http://www.w3.org/Graphics/SVG/1.1/DTD/svg11.dtd">
<!-- Generated by graphviz version 2.43.0 (0)
 -->
<!-- Title: map_get_keys Pages: 1 -->
<svg width="221pt" height="104pt"
 viewBox="0.00 0.00 221.00 104.00" xmlns="http://www.w3.org/2000/svg" xmlns:xlink="http://www.w3.org/1999/xlink">
<g id="graph0" class="graph" transform="scale(1 1) rotate(0) translate(4 100)">
<title>map_get_keys</title>
<polygon fill="white" stroke="transparent" points="-4,4 -4,-100 217,-100 217,4 -4,4"/>
<!-- Node1 -->
<g id="node1" class="node">
<title>Node1</title>
<g id="a_node1"><a xlink:title="Get a list of all map keys.">
<polygon fill="#bfbfbf" stroke="black" points="126,-38.5 126,-57.5 213,-57.5 213,-38.5 126,-38.5"/>
<text text-anchor="middle" x="169.5" y="-45.5" font-family="Helvetica,sans-Serif" font-size="10.00">map_get_keys</text>
</a>
</g>
</g>
<!-- Node2 -->
<g id="node2" class="node">
<title>Node2</title>
<g id="a_node2"><a xlink:href="group__datatypes__map.html#ga680cb75c8d9f3769064128e9c3d5800e" target="_top" xlink:title="Dump each map entry to the console.">
<polygon fill="white" stroke="black" points="9.5,-76.5 9.5,-95.5 80.5,-95.5 80.5,-76.5 9.5,-76.5"/>
<text text-anchor="middle" x="45" y="-83.5" font-family="Helvetica,sans-Serif" font-size="10.00">map_dump</text>
</a>
</g>
</g>
<!-- Node1&#45;&gt;Node2 -->
<g id="edge1" class="edge">
<title>Node1&#45;&gt;Node2</title>
<path fill="none" stroke="midnightblue" d="M127.62,-60.68C111.07,-65.81 92.28,-71.64 76.9,-76.41"/>
<polygon fill="midnightblue" stroke="midnightblue" points="129.07,-63.89 137.59,-57.59 127,-57.21 129.07,-63.89"/>
</g>
<!-- Node3 -->
<g id="node3" class="node">
<title>Node3</title>
<g id="a_node3"><a xlink:href="group__datatypes__map.html#ga1ee3a7b76638ba11f1420da1dec59c8d" target="_top" xlink:title="Write formatted map entries to the console.">
<polygon fill="white" stroke="black" points="11,-38.5 11,-57.5 79,-57.5 79,-38.5 11,-38.5"/>
<text text-anchor="middle" x="45" y="-45.5" font-family="Helvetica,sans-Serif" font-size="10.00">map_write</text>
</a>
</g>
</g>
<!-- Node1&#45;&gt;Node3 -->
<g id="edge2" class="edge">
<title>Node1&#45;&gt;Node3</title>
<path fill="none" stroke="midnightblue" d="M115.73,-48C103.31,-48 90.43,-48 79.16,-48"/>
<polygon fill="midnightblue" stroke="midnightblue" points="116,-51.5 126,-48 116,-44.5 116,-51.5"/>
</g>
<!-- Node4 -->
<g id="node4" class="node">
<title>Node4</title>
<g id="a_node4"><a xlink:href="group__parts__3d__enclosure__power__strip.html#ga191779dedf39e4fd769a8dc96b0f8c9e" target="_top" xlink:title="A power strip generator for single gang electrical receptacles.">
<polygon fill="white" stroke="black" points="0,-0.5 0,-19.5 90,-19.5 90,-0.5 0,-0.5"/>
<text text-anchor="middle" x="45" y="-7.5" font-family="Helvetica,sans-Serif" font-size="10.00">power_strip_sg</text>
</a>
</g>
</g>
<!-- Node1&#45;&gt;Node4 -->
<g id="edge3" class="edge">
<title>Node1&#45;&gt;Node4</title>
<path fill="none" stroke="midnightblue" d="M127.62,-35.32C111.07,-30.19 92.28,-24.36 76.9,-19.59"/>
<polygon fill="midnightblue" stroke="midnightblue" points="127,-38.79 137.59,-38.41 129.07,-32.11 127,-38.79"/>
</g>
</g>
</svg>
