<?xml version="1.0" encoding="UTF-8" standalone="no"?>
<!DOCTYPE svg PUBLIC "-//W3C//DTD SVG 1.1//EN"
 "http://www.w3.org/Graphics/SVG/1.1/DTD/svg11.dtd">
<!-- Generated by graphviz version 2.43.0 (0)
 -->
<!-- Title: draft_polygon Pages: 1 -->
<svg width="766pt" height="769pt"
 viewBox="0.00 0.00 766.00 769.00" xmlns="http://www.w3.org/2000/svg" xmlns:xlink="http://www.w3.org/1999/xlink">
<g id="graph0" class="graph" transform="scale(1 1) rotate(0) translate(4 765)">
<title>draft_polygon</title>
<polygon fill="white" stroke="transparent" points="-4,4 -4,-765 762,-765 762,4 -4,4"/>
<!-- Node1 -->
<g id="node1" class="node">
<title>Node1</title>
<g id="a_node1"><a xlink:title="Draft a polygon with configurable style.">
<polygon fill="#bfbfbf" stroke="black" points="0,-114.5 0,-133.5 83,-133.5 83,-114.5 0,-114.5"/>
<text text-anchor="middle" x="41.5" y="-121.5" font-family="Helvetica,sans-Serif" font-size="10.00">draft_polygon</text>
</a>
</g>
</g>
<!-- Node2 -->
<g id="node2" class="node">
<title>Node2</title>
<g id="a_node2"><a xlink:href="group__datatypes__list__operate.html#gab05ff3da4d68d30922daa197f505580d" target="_top" xlink:title="Create a list of constant or incrementing elements.">
<polygon fill="white" stroke="black" points="158,-437.5 158,-456.5 206,-456.5 206,-437.5 158,-437.5"/>
<text text-anchor="middle" x="182" y="-444.5" font-family="Helvetica,sans-Serif" font-size="10.00">consts</text>
</a>
</g>
</g>
<!-- Node1&#45;&gt;Node2 -->
<g id="edge1" class="edge">
<title>Node1&#45;&gt;Node2</title>
<path fill="none" stroke="midnightblue" d="M43.66,-133.71C49.45,-180.63 76.63,-383.42 119,-428 126.58,-435.98 137.41,-440.63 147.91,-443.34"/>
<polygon fill="midnightblue" stroke="midnightblue" points="147.25,-446.78 157.75,-445.38 148.67,-439.92 147.25,-446.78"/>
</g>
<!-- Node3 -->
<g id="node3" class="node">
<title>Node3</title>
<g id="a_node3"><a xlink:href="group__tools__drafting__primitive.html#ga060910368142d6371cf4f3f30be7561e" target="_top" xlink:title="Draft a line with configurable style and optional arrowheads.">
<polygon fill="white" stroke="black" points="151,-399.5 151,-418.5 213,-418.5 213,-399.5 151,-399.5"/>
<text text-anchor="middle" x="182" y="-406.5" font-family="Helvetica,sans-Serif" font-size="10.00">draft_line</text>
</a>
</g>
</g>
<!-- Node1&#45;&gt;Node3 -->
<g id="edge2" class="edge">
<title>Node1&#45;&gt;Node3</title>
<path fill="none" stroke="midnightblue" d="M47.27,-133.81C67.33,-175.09 145.08,-335.09 171.87,-390.21"/>
<polygon fill="midnightblue" stroke="midnightblue" points="168.73,-391.77 176.25,-399.23 175.03,-388.71 168.73,-391.77"/>
</g>
<!-- Node21 -->
<g id="node21" class="node">
<title>Node21</title>
<g id="a_node21"><a xlink:href="group__datatypes__scalar__test.html#ga51d7fdb800c10f4b7479d23b89ab8d22" target="_top" xlink:title="Test if a value is defined.">
<polygon fill="white" stroke="black" points="561.5,-209.5 561.5,-228.5 627.5,-228.5 627.5,-209.5 561.5,-209.5"/>
<text text-anchor="middle" x="594.5" y="-216.5" font-family="Helvetica,sans-Serif" font-size="10.00">is_defined</text>
</a>
</g>
</g>
<!-- Node1&#45;&gt;Node21 -->
<g id="edge40" class="edge">
<title>Node1&#45;&gt;Node21</title>
<path fill="none" stroke="midnightblue" d="M76.55,-133.59C89.72,-137 104.97,-140.59 119,-143 291.51,-172.62 342.03,-135.3 511,-181 516.6,-182.52 543.04,-194.85 564.5,-205.07"/>
<polygon fill="midnightblue" stroke="midnightblue" points="563.09,-208.27 573.62,-209.42 566.1,-201.95 563.09,-208.27"/>
</g>
<!-- Node28 -->
<g id="node28" class="node">
<title>Node28</title>
<g id="a_node28"><a xlink:href="group__datatypes__iterable__operate.html#gaccab3e37e43cb1d882713b3f3d6d9e1b" target="_top" xlink:title="Return the first element of an iterable value.">
<polygon fill="white" stroke="black" points="164.5,-114.5 164.5,-133.5 199.5,-133.5 199.5,-114.5 164.5,-114.5"/>
<text text-anchor="middle" x="182" y="-121.5" font-family="Helvetica,sans-Serif" font-size="10.00">first</text>
</a>
</g>
</g>
<!-- Node1&#45;&gt;Node28 -->
<g id="edge38" class="edge">
<title>Node1&#45;&gt;Node28</title>
<path fill="none" stroke="midnightblue" d="M83.31,-124C106.17,-124 134.03,-124 154.15,-124"/>
<polygon fill="midnightblue" stroke="midnightblue" points="154.16,-127.5 164.16,-124 154.16,-120.5 154.16,-127.5"/>
</g>
<!-- Node29 -->
<g id="node29" class="node">
<title>Node29</title>
<g id="a_node29"><a xlink:href="group__datatypes__list__operate.html#ga079004ba232355ddd3a1b2e48fa668ba" target="_top" xlink:title="Create a element selection index list for a given list of values.">
<polygon fill="white" stroke="black" points="148.5,-76.5 148.5,-95.5 215.5,-95.5 215.5,-76.5 148.5,-76.5"/>
<text text-anchor="middle" x="182" y="-83.5" font-family="Helvetica,sans-Serif" font-size="10.00">index_gen</text>
</a>
</g>
</g>
<!-- Node1&#45;&gt;Node29 -->
<g id="edge39" class="edge">
<title>Node1&#45;&gt;Node29</title>
<path fill="none" stroke="midnightblue" d="M77.45,-114.41C96.01,-109.32 118.97,-103.02 138.55,-97.65"/>
<polygon fill="midnightblue" stroke="midnightblue" points="139.72,-100.95 148.44,-94.93 137.87,-94.2 139.72,-100.95"/>
</g>
<!-- Node30 -->
<g id="node30" class="node">
<title>Node30</title>
<g id="a_node30"><a xlink:href="group__math__polytope.html#ga3acbef4dac1e9b9c464566f80b52a4f6" target="_top" xlink:title="List the edge coordinate index pairs of a polytope.">
<polygon fill="white" stroke="black" points="119,-38.5 119,-57.5 245,-57.5 245,-38.5 119,-38.5"/>
<text text-anchor="middle" x="182" y="-45.5" font-family="Helvetica,sans-Serif" font-size="10.00">polytope_faces2edges</text>
</a>
</g>
</g>
<!-- Node1&#45;&gt;Node30 -->
<g id="edge41" class="edge">
<title>Node1&#45;&gt;Node30</title>
<path fill="none" stroke="midnightblue" d="M53.11,-114.21C67.19,-101.68 93.29,-80.02 119,-67 123.35,-64.8 128.01,-62.79 132.74,-60.99"/>
<polygon fill="midnightblue" stroke="midnightblue" points="134.22,-64.18 142.49,-57.55 131.89,-57.57 134.22,-64.18"/>
</g>
<!-- Node31 -->
<g id="node31" class="node">
<title>Node31</title>
<g id="a_node31"><a xlink:href="group__datatypes__iterable__operate.html#ga894d4bec62cc9cf38d5e099de3028c54" target="_top" xlink:title="Return the second element of an iterable value.">
<polygon fill="white" stroke="black" points="156.5,-0.5 156.5,-19.5 207.5,-19.5 207.5,-0.5 156.5,-0.5"/>
<text text-anchor="middle" x="182" y="-7.5" font-family="Helvetica,sans-Serif" font-size="10.00">second</text>
</a>
</g>
</g>
<!-- Node1&#45;&gt;Node31 -->
<g id="edge42" class="edge">
<title>Node1&#45;&gt;Node31</title>
<path fill="none" stroke="midnightblue" d="M47.64,-114.33C58.32,-95.15 84.81,-52.15 119,-29 127.15,-23.48 136.96,-19.52 146.34,-16.69"/>
<polygon fill="midnightblue" stroke="midnightblue" points="147.51,-20 156.27,-14.05 145.7,-13.24 147.51,-20"/>
</g>
<!-- Node4 -->
<g id="node4" class="node">
<title>Node4</title>
<g id="a_node4"><a xlink:href="group__datatypes__iterable__test.html#ga4dfc58aa5f208e103e622684db817ce6" target="_top" xlink:title="Test if all elements of an iterable value equal a comparison value.">
<polygon fill="white" stroke="black" points="304,-703.5 304,-722.5 365,-722.5 365,-703.5 304,-703.5"/>
<text text-anchor="middle" x="334.5" y="-710.5" font-family="Helvetica,sans-Serif" font-size="10.00">all_equal</text>
</a>
</g>
</g>
<!-- Node3&#45;&gt;Node4 -->
<g id="edge3" class="edge">
<title>Node3&#45;&gt;Node4</title>
<path fill="none" stroke="midnightblue" d="M213.3,-411.43C224.85,-413.91 237.12,-418.74 245,-428 320.91,-517.16 211.11,-595.04 281,-689 284.6,-693.84 289.41,-697.73 294.67,-700.86"/>
<polygon fill="midnightblue" stroke="midnightblue" points="293.28,-704.08 303.79,-705.41 296.41,-697.81 293.28,-704.08"/>
</g>
<!-- Node5 -->
<g id="node5" class="node">
<title>Node5</title>
<g id="a_node5"><a xlink:href="group__datatypes__euclidean.html#ga3d5c07c70f271bcf9144f50ce8620a89" target="_top" xlink:title="Compute the angle between two lines or vectors in a 3d or 2d&#45;space.">
<polygon fill="white" stroke="black" points="690.5,-494.5 690.5,-513.5 745.5,-513.5 745.5,-494.5 690.5,-494.5"/>
<text text-anchor="middle" x="718" y="-501.5" font-family="Helvetica,sans-Serif" font-size="10.00">angle_ll</text>
</a>
</g>
</g>
<!-- Node3&#45;&gt;Node5 -->
<g id="edge4" class="edge">
<title>Node3&#45;&gt;Node5</title>
<path fill="none" stroke="midnightblue" d="M213.01,-412.87C224.11,-415.58 236.13,-420.18 245,-428 274.24,-453.79 250.7,-483.46 281,-508 331.54,-548.93 359.43,-531.28 424,-539 520.21,-550.5 547.94,-565.3 642,-542 659.56,-537.65 661.87,-531.19 678,-523 681.19,-521.38 684.53,-519.71 687.87,-518.07"/>
<polygon fill="midnightblue" stroke="midnightblue" points="689.66,-521.09 697.1,-513.54 686.58,-514.8 689.66,-521.09"/>
</g>
<!-- Node6 -->
<g id="node6" class="node">
<title>Node6</title>
<g id="a_node6"><a xlink:href="group__datatypes__iterable__operate.html#ga3d37c2b0067d1661724bd89955c8f6ce" target="_top" xlink:title="Return an element of an iterable when it exists or a default value otherwise.">
<polygon fill="white" stroke="black" points="428,-494.5 428,-513.5 507,-513.5 507,-494.5 428,-494.5"/>
<text text-anchor="middle" x="467.5" y="-501.5" font-family="Helvetica,sans-Serif" font-size="10.00">defined_e_or</text>
</a>
</g>
</g>
<!-- Node3&#45;&gt;Node6 -->
<g id="edge5" class="edge">
<title>Node3&#45;&gt;Node6</title>
<path fill="none" stroke="midnightblue" d="M213.02,-417.98C223.2,-421.08 234.61,-424.63 245,-428 310.47,-449.26 386.23,-475.64 430.03,-491.07"/>
<polygon fill="midnightblue" stroke="midnightblue" points="429.07,-494.44 439.66,-494.47 431.39,-487.84 429.07,-494.44"/>
</g>
<!-- Node7 -->
<g id="node7" class="node">
<title>Node7</title>
<g id="a_node7"><a xlink:href="group__tools__drafting__primitive.html#ga6f12ccd4c9de0a8ab887184911f39c8f" target="_top" xlink:title="Draft an arrowhead at the terminal point of a line.">
<polygon fill="white" stroke="black" points="298.5,-399.5 298.5,-418.5 370.5,-418.5 370.5,-399.5 298.5,-399.5"/>
<text text-anchor="middle" x="334.5" y="-406.5" font-family="Helvetica,sans-Serif" font-size="10.00">draft_arrow</text>
</a>
</g>
</g>
<!-- Node3&#45;&gt;Node7 -->
<g id="edge6" class="edge">
<title>Node3&#45;&gt;Node7</title>
<path fill="none" stroke="midnightblue" d="M213.09,-409C234.64,-409 264.01,-409 288.36,-409"/>
<polygon fill="midnightblue" stroke="midnightblue" points="288.44,-412.5 298.44,-409 288.44,-405.5 288.44,-412.5"/>
</g>
<!-- Node9 -->
<g id="node9" class="node">
<title>Node9</title>
<g id="a_node9"><a xlink:href="group__tools__drafting__config.html#gabb4fa7092928ba8803b550ac6d733f64" target="_top" xlink:title="Get drafting configuration default helper function.">
<polygon fill="white" stroke="black" points="547,-513.5 547,-532.5 642,-532.5 642,-513.5 547,-513.5"/>
<text text-anchor="middle" x="594.5" y="-520.5" font-family="Helvetica,sans-Serif" font-size="10.00">draft_get_config</text>
</a>
</g>
</g>
<!-- Node3&#45;&gt;Node9 -->
<g id="edge29" class="edge">
<title>Node3&#45;&gt;Node9</title>
<path fill="none" stroke="midnightblue" d="M213.28,-414.49C223.92,-417.37 235.56,-421.66 245,-428 265.98,-442.08 260.35,-457.45 281,-472 336.16,-510.87 357.51,-511.5 424,-523 461.02,-529.4 503.28,-529.42 536.34,-527.83"/>
<polygon fill="midnightblue" stroke="midnightblue" points="536.94,-531.3 546.73,-527.26 536.56,-524.31 536.94,-531.3"/>
</g>
<!-- Node10 -->
<g id="node10" class="node">
<title>Node10</title>
<g id="a_node10"><a xlink:href="group__tools__drafting__primitive.html#ga4e7c5fa02dbc244702042067553a9225" target="_top" xlink:title="Draft a simple line from an initial to a terminal point.">
<polygon fill="white" stroke="black" points="427.5,-608.5 427.5,-627.5 507.5,-627.5 507.5,-608.5 427.5,-608.5"/>
<text text-anchor="middle" x="467.5" y="-615.5" font-family="Helvetica,sans-Serif" font-size="10.00">draft_line_pp</text>
</a>
</g>
</g>
<!-- Node3&#45;&gt;Node10 -->
<g id="edge30" class="edge">
<title>Node3&#45;&gt;Node10</title>
<path fill="none" stroke="midnightblue" d="M213.27,-411.81C224.68,-414.36 236.85,-419.13 245,-428 296.1,-483.57 225.4,-542.93 281,-594 317.27,-627.31 375.66,-629.58 417.24,-625.89"/>
<polygon fill="midnightblue" stroke="midnightblue" points="417.84,-629.35 427.42,-624.84 417.12,-622.39 417.84,-629.35"/>
</g>
<!-- Node13 -->
<g id="node13" class="node">
<title>Node13</title>
<g id="a_node13"><a xlink:href="group__datatypes__euclidean.html#ga8115b05f16bcc197e3e339a65f4d3e49" target="_top" xlink:title="Return the initial point of a line or vector.">
<polygon fill="white" stroke="black" points="693.5,-722.5 693.5,-741.5 742.5,-741.5 742.5,-722.5 693.5,-722.5"/>
<text text-anchor="middle" x="718" y="-729.5" font-family="Helvetica,sans-Serif" font-size="10.00">line_ip</text>
</a>
</g>
</g>
<!-- Node3&#45;&gt;Node13 -->
<g id="edge32" class="edge">
<title>Node3&#45;&gt;Node13</title>
<path fill="none" stroke="midnightblue" d="M213.1,-411.6C224.62,-414.12 236.91,-418.92 245,-428 303.9,-494.14 220.32,-559.49 281,-624 336.7,-683.21 590.87,-717.61 683.29,-728.34"/>
<polygon fill="midnightblue" stroke="midnightblue" points="683.15,-731.85 693.48,-729.5 683.94,-724.89 683.15,-731.85"/>
</g>
<!-- Node14 -->
<g id="node14" class="node">
<title>Node14</title>
<g id="a_node14"><a xlink:href="group__datatypes__euclidean.html#ga299bce4158dc8d0a7a8e7d9967b8ea4e" target="_top" xlink:title="Return the terminal point of a line or vector.">
<polygon fill="white" stroke="black" points="693,-304.5 693,-323.5 743,-323.5 743,-304.5 693,-304.5"/>
<text text-anchor="middle" x="718" y="-311.5" font-family="Helvetica,sans-Serif" font-size="10.00">line_tp</text>
</a>
</g>
</g>
<!-- Node3&#45;&gt;Node14 -->
<g id="edge33" class="edge">
<title>Node3&#45;&gt;Node14</title>
<path fill="none" stroke="midnightblue" d="M185.97,-399.39C195.26,-370.8 226.48,-285.33 281,-238 332.67,-193.15 356.81,-193.9 424,-181 519.51,-162.67 559.93,-147.81 642,-200 677.49,-222.57 699.83,-268.67 710.18,-294.8"/>
<polygon fill="midnightblue" stroke="midnightblue" points="706.98,-296.23 713.79,-304.35 713.53,-293.76 706.98,-296.23"/>
</g>
<!-- Node22 -->
<g id="node22" class="node">
<title>Node22</title>
<g id="a_node22"><a xlink:href="group__datatypes__euclidean.html#gaa686049dfa9296b441a12e225aa1537d" target="_top" xlink:title="Construct a 2 dimensional directed line.">
<polygon fill="white" stroke="black" points="431.5,-228.5 431.5,-247.5 503.5,-247.5 503.5,-228.5 431.5,-228.5"/>
<text text-anchor="middle" x="467.5" y="-235.5" font-family="Helvetica,sans-Serif" font-size="10.00">line2d_new</text>
</a>
</g>
</g>
<!-- Node3&#45;&gt;Node22 -->
<g id="edge31" class="edge">
<title>Node3&#45;&gt;Node22</title>
<path fill="none" stroke="midnightblue" d="M213.25,-403.2C263.76,-392.98 362.24,-370.62 388,-347 419.76,-317.89 394.15,-288.06 424,-257 425.39,-255.56 426.9,-254.22 428.51,-252.97"/>
<polygon fill="midnightblue" stroke="midnightblue" points="430.55,-255.82 437.13,-247.51 426.81,-249.91 430.55,-255.82"/>
</g>
<!-- Node24 -->
<g id="node24" class="node">
<title>Node24</title>
<g id="a_node24"><a xlink:href="group__datatypes__iterable__operate.html#gadb933df06b10d64dda8823069bdc84b7" target="_top" xlink:title="Return a list of all n&#45;element sequential&#45;subsets of an iterable value.">
<polygon fill="white" stroke="black" points="427.5,-190.5 427.5,-209.5 507.5,-209.5 507.5,-190.5 427.5,-190.5"/>
<text text-anchor="middle" x="467.5" y="-197.5" font-family="Helvetica,sans-Serif" font-size="10.00">sequence_ns</text>
</a>
</g>
</g>
<!-- Node3&#45;&gt;Node24 -->
<g id="edge37" class="edge">
<title>Node3&#45;&gt;Node24</title>
<path fill="none" stroke="midnightblue" d="M195.68,-399.42C213.79,-386.11 248.45,-361.99 281,-347 326.2,-326.18 351.72,-348.06 388,-314 420.92,-283.1 393.01,-251.84 424,-219 425.22,-217.71 426.54,-216.5 427.95,-215.36"/>
<polygon fill="midnightblue" stroke="midnightblue" points="430.18,-218.08 436.63,-209.68 426.35,-212.23 430.18,-218.08"/>
</g>
<!-- Node25 -->
<g id="node25" class="node">
<title>Node25</title>
<g id="a_node25"><a xlink:href="group__datatypes__list__operate.html#gac9437fd7e3cb8797fa5e901b2ab6e58a" target="_top" xlink:title="Serially merge the elements of a list.">
<polygon fill="white" stroke="black" points="305,-285.5 305,-304.5 364,-304.5 364,-285.5 305,-285.5"/>
<text text-anchor="middle" x="334.5" y="-292.5" font-family="Helvetica,sans-Serif" font-size="10.00">merge_s</text>
</a>
</g>
</g>
<!-- Node3&#45;&gt;Node25 -->
<g id="edge34" class="edge">
<title>Node3&#45;&gt;Node25</title>
<path fill="none" stroke="midnightblue" d="M191.64,-399.26C207.78,-381.49 244.24,-343.39 281,-319 286.53,-315.33 292.72,-311.95 298.86,-308.96"/>
<polygon fill="midnightblue" stroke="midnightblue" points="300.72,-311.95 308.34,-304.59 297.8,-305.59 300.72,-311.95"/>
</g>
<!-- Node26 -->
<g id="node26" class="node">
<title>Node26</title>
<g id="a_node26"><a xlink:href="group__math__polygon.html#gad35e17240bf9f3e0de4481ec467d599f" target="_top" xlink:title="Compute coordinates along a line in 2D.">
<polygon fill="white" stroke="black" points="289.5,-247.5 289.5,-266.5 379.5,-266.5 379.5,-247.5 289.5,-247.5"/>
<text text-anchor="middle" x="334.5" y="-254.5" font-family="Helvetica,sans-Serif" font-size="10.00">polygon_line_p</text>
</a>
</g>
</g>
<!-- Node3&#45;&gt;Node26 -->
<g id="edge35" class="edge">
<title>Node3&#45;&gt;Node26</title>
<path fill="none" stroke="midnightblue" d="M187.51,-399.46C199.39,-375.31 233.89,-311.18 281,-276 283.48,-274.15 286.16,-272.46 288.96,-270.92"/>
<polygon fill="midnightblue" stroke="midnightblue" points="290.63,-274.01 298.14,-266.54 287.61,-267.69 290.63,-274.01"/>
</g>
<!-- Node27 -->
<g id="node27" class="node">
<title>Node27</title>
<g id="a_node27"><a xlink:href="group__math__polygon.html#ga6aea22d31f8f086c44c7241eee3ab4c2" target="_top" xlink:title="Compute coordinates for an n&#45;sided regular polygon in 2D.">
<polygon fill="white" stroke="black" points="281,-741.5 281,-760.5 388,-760.5 388,-741.5 281,-741.5"/>
<text text-anchor="middle" x="334.5" y="-748.5" font-family="Helvetica,sans-Serif" font-size="10.00">polygon_regular_p</text>
</a>
</g>
</g>
<!-- Node3&#45;&gt;Node27 -->
<g id="edge36" class="edge">
<title>Node3&#45;&gt;Node27</title>
<path fill="none" stroke="midnightblue" d="M213.07,-411.28C224.73,-413.74 237.14,-418.58 245,-428 332.2,-532.44 196.44,-625.42 281,-732 281.96,-733.21 283,-734.34 284.12,-735.4"/>
<polygon fill="midnightblue" stroke="midnightblue" points="282.19,-738.33 292.33,-741.41 286.33,-732.68 282.19,-738.33"/>
</g>
<!-- Node7&#45;&gt;Node5 -->
<g id="edge7" class="edge">
<title>Node7&#45;&gt;Node5</title>
<path fill="none" stroke="midnightblue" d="M370.68,-414.79C406.27,-420.88 462.76,-431.21 511,-443 571.08,-457.68 639.76,-478.94 680.69,-492.09"/>
<polygon fill="midnightblue" stroke="midnightblue" points="679.64,-495.43 690.23,-495.17 681.79,-488.77 679.64,-495.43"/>
</g>
<!-- Node7&#45;&gt;Node6 -->
<g id="edge9" class="edge">
<title>Node7&#45;&gt;Node6</title>
<path fill="none" stroke="midnightblue" d="M347.17,-418.53C369.34,-436.63 416.09,-474.64 424,-480 428.74,-483.21 433.93,-486.39 439.01,-489.34"/>
<polygon fill="midnightblue" stroke="midnightblue" points="437.48,-492.5 447.91,-494.35 440.91,-486.4 437.48,-492.5"/>
</g>
<!-- Node8 -->
<g id="node8" class="node">
<title>Node8</title>
<g id="a_node8"><a xlink:href="group__datatypes__binary.html#ga7ce4ed94d9b389ff817ea219918b8732" target="_top" xlink:title="Test if a binary bit position of an integer value equals a test bit.">
<polygon fill="white" stroke="black" points="428,-380.5 428,-399.5 507,-399.5 507,-380.5 428,-380.5"/>
<text text-anchor="middle" x="467.5" y="-387.5" font-family="Helvetica,sans-Serif" font-size="10.00">binary_bit_is</text>
</a>
</g>
</g>
<!-- Node7&#45;&gt;Node8 -->
<g id="edge8" class="edge">
<title>Node7&#45;&gt;Node8</title>
<path fill="none" stroke="midnightblue" d="M370.61,-403.91C385.03,-401.82 401.98,-399.36 417.58,-397.09"/>
<polygon fill="midnightblue" stroke="midnightblue" points="418.21,-400.54 427.61,-395.64 417.21,-393.61 418.21,-400.54"/>
</g>
<!-- Node7&#45;&gt;Node9 -->
<g id="edge10" class="edge">
<title>Node7&#45;&gt;Node9</title>
<path fill="none" stroke="midnightblue" d="M358.01,-418.55C391.48,-432.8 456.28,-460.55 511,-485 528.65,-492.88 548.31,-501.93 564.01,-509.22"/>
<polygon fill="midnightblue" stroke="midnightblue" points="562.67,-512.46 573.22,-513.5 565.63,-506.11 562.67,-512.46"/>
</g>
<!-- Node7&#45;&gt;Node10 -->
<g id="edge11" class="edge">
<title>Node7&#45;&gt;Node10</title>
<path fill="none" stroke="midnightblue" d="M341.47,-418.52C361.76,-450.89 428.29,-557.03 455.12,-599.85"/>
<polygon fill="midnightblue" stroke="midnightblue" points="452.22,-601.81 460.5,-608.42 458.15,-598.09 452.22,-601.81"/>
</g>
<!-- Node7&#45;&gt;Node14 -->
<g id="edge26" class="edge">
<title>Node7&#45;&gt;Node14</title>
<path fill="none" stroke="midnightblue" d="M358.57,-399.41C368.27,-394.72 379.29,-388.46 388,-381 408.25,-363.65 400.55,-345.69 424,-333 507.78,-287.66 625.37,-298.39 682.77,-307.49"/>
<polygon fill="midnightblue" stroke="midnightblue" points="682.32,-310.96 692.76,-309.16 683.48,-304.06 682.32,-310.96"/>
</g>
<!-- Node20 -->
<g id="node20" class="node">
<title>Node20</title>
<g id="a_node20"><a xlink:href="group__tools__operation__cs.html#gafa05aca176d441020de53da835e3dd60" target="_top" xlink:title="Conditionally apply the convex hull transformation.">
<polygon fill="white" stroke="black" points="442.5,-266.5 442.5,-285.5 492.5,-285.5 492.5,-266.5 442.5,-266.5"/>
<text text-anchor="middle" x="467.5" y="-273.5" font-family="Helvetica,sans-Serif" font-size="10.00">hull_cs</text>
</a>
</g>
</g>
<!-- Node7&#45;&gt;Node20 -->
<g id="edge23" class="edge">
<title>Node7&#45;&gt;Node20</title>
<path fill="none" stroke="midnightblue" d="M366.26,-399.48C374.1,-395.92 381.99,-391.18 388,-385 416.6,-355.58 396.68,-330.61 424,-300 427.07,-296.56 430.75,-293.51 434.64,-290.82"/>
<polygon fill="midnightblue" stroke="midnightblue" points="436.62,-293.71 443.35,-285.53 432.99,-287.73 436.62,-293.71"/>
</g>
<!-- Node7&#45;&gt;Node22 -->
<g id="edge25" class="edge">
<title>Node7&#45;&gt;Node22</title>
<path fill="none" stroke="midnightblue" d="M367.88,-399.46C375.35,-395.95 382.66,-391.24 388,-385 426.44,-340.11 385.38,-301.73 424,-257 425.13,-255.7 426.36,-254.48 427.67,-253.34"/>
<polygon fill="midnightblue" stroke="midnightblue" points="429.66,-256.22 435.91,-247.66 425.69,-250.45 429.66,-256.22"/>
</g>
<!-- Node23 -->
<g id="node23" class="node">
<title>Node23</title>
<g id="a_node23"><a xlink:href="group__math__polygon.html#ga0e085cf8ec515dccdeff907f84fdae55" target="_top" xlink:title="Compute coordinates of an arc with constant radius between two vectors in 2D.">
<polygon fill="white" stroke="black" points="424,-342.5 424,-361.5 511,-361.5 511,-342.5 424,-342.5"/>
<text text-anchor="middle" x="467.5" y="-349.5" font-family="Helvetica,sans-Serif" font-size="10.00">polygon_arc_p</text>
</a>
</g>
</g>
<!-- Node7&#45;&gt;Node23 -->
<g id="edge27" class="edge">
<title>Node7&#45;&gt;Node23</title>
<path fill="none" stroke="midnightblue" d="M357.43,-399.46C378.68,-390.21 411.14,-376.09 435.12,-365.65"/>
<polygon fill="midnightblue" stroke="midnightblue" points="436.73,-368.77 444.5,-361.57 433.94,-362.35 436.73,-368.77"/>
</g>
<!-- Node7&#45;&gt;Node24 -->
<g id="edge28" class="edge">
<title>Node7&#45;&gt;Node24</title>
<path fill="none" stroke="midnightblue" d="M345.9,-399.48C357.75,-388.09 376.88,-367.93 388,-347 415.73,-294.81 385.38,-263.73 424,-219 425.13,-217.7 426.36,-216.48 427.67,-215.34"/>
<polygon fill="midnightblue" stroke="midnightblue" points="429.66,-218.22 435.91,-209.66 425.69,-212.45 429.66,-218.22"/>
</g>
<!-- Node10&#45;&gt;Node9 -->
<g id="edge22" class="edge">
<title>Node10&#45;&gt;Node9</title>
<path fill="none" stroke="midnightblue" d="M481.41,-608.19C503.04,-591.75 546.79,-558.5 572.78,-538.75"/>
<polygon fill="midnightblue" stroke="midnightblue" points="575.01,-541.45 580.85,-532.61 570.77,-535.88 575.01,-541.45"/>
</g>
<!-- Node11 -->
<g id="node11" class="node">
<title>Node11</title>
<g id="a_node11"><a xlink:href="group__tools__align.html#ga7a21147611850c6cae7e95d23417099b" target="_top" xlink:title="Align a line or vector to a reference line or vector.">
<polygon fill="white" stroke="black" points="568.5,-627.5 568.5,-646.5 620.5,-646.5 620.5,-627.5 568.5,-627.5"/>
<text text-anchor="middle" x="594.5" y="-634.5" font-family="Helvetica,sans-Serif" font-size="10.00">align_ll</text>
</a>
</g>
</g>
<!-- Node10&#45;&gt;Node11 -->
<g id="edge12" class="edge">
<title>Node10&#45;&gt;Node11</title>
<path fill="none" stroke="midnightblue" d="M507.71,-623.96C523.76,-626.4 542.21,-629.2 557.88,-631.59"/>
<polygon fill="midnightblue" stroke="midnightblue" points="557.8,-635.11 568.22,-633.16 558.86,-628.19 557.8,-635.11"/>
</g>
<!-- Node19 -->
<g id="node19" class="node">
<title>Node19</title>
<g id="a_node19"><a xlink:href="group__datatypes__euclidean.html#gaef5b930729755b4420098776467ac210" target="_top" xlink:title="Compute the distance between two points.">
<polygon fill="white" stroke="black" points="557,-589.5 557,-608.5 632,-608.5 632,-589.5 557,-589.5"/>
<text text-anchor="middle" x="594.5" y="-596.5" font-family="Helvetica,sans-Serif" font-size="10.00">distance_pp</text>
</a>
</g>
</g>
<!-- Node10&#45;&gt;Node19 -->
<g id="edge21" class="edge">
<title>Node10&#45;&gt;Node19</title>
<path fill="none" stroke="midnightblue" d="M507.71,-612.04C520.14,-610.15 534,-608.04 546.9,-606.08"/>
<polygon fill="midnightblue" stroke="midnightblue" points="547.62,-609.51 556.99,-604.55 546.57,-602.59 547.62,-609.51"/>
</g>
<!-- Node11&#45;&gt;Node5 -->
<g id="edge13" class="edge">
<title>Node11&#45;&gt;Node5</title>
<path fill="none" stroke="midnightblue" d="M620.92,-630.86C628.49,-627.99 636.28,-623.87 642,-618 673.51,-585.67 647.56,-556.35 678,-523 679.19,-521.7 680.48,-520.48 681.86,-519.33"/>
<polygon fill="midnightblue" stroke="midnightblue" points="684.06,-522.07 690.38,-513.57 680.13,-516.27 684.06,-522.07"/>
</g>
<!-- Node12 -->
<g id="node12" class="node">
<title>Node12</title>
<g id="a_node12"><a xlink:href="group__datatypes__euclidean.html#ga882329ee346d5a7f9d0877afd115c3de" target="_top" xlink:title="Compute the cross product of two lines or vectors in a 3d or 2d&#45;space.">
<polygon fill="white" stroke="black" points="691.5,-608.5 691.5,-627.5 744.5,-627.5 744.5,-608.5 691.5,-608.5"/>
<text text-anchor="middle" x="718" y="-615.5" font-family="Helvetica,sans-Serif" font-size="10.00">cross_ll</text>
</a>
</g>
</g>
<!-- Node11&#45;&gt;Node12 -->
<g id="edge14" class="edge">
<title>Node11&#45;&gt;Node12</title>
<path fill="none" stroke="midnightblue" d="M620.67,-633.06C638.23,-630.32 661.91,-626.61 681.4,-623.57"/>
<polygon fill="midnightblue" stroke="midnightblue" points="682.1,-627 691.44,-622 681.02,-620.08 682.1,-627"/>
</g>
<!-- Node11&#45;&gt;Node13 -->
<g id="edge15" class="edge">
<title>Node11&#45;&gt;Node13</title>
<path fill="none" stroke="midnightblue" d="M619.61,-646.66C627.27,-650.43 635.45,-655.24 642,-661 663.12,-679.55 656.67,-694.69 678,-713 679.95,-714.67 682.07,-716.24 684.29,-717.7"/>
<polygon fill="midnightblue" stroke="midnightblue" points="682.71,-720.82 693.12,-722.77 686.19,-714.75 682.71,-720.82"/>
</g>
<!-- Node11&#45;&gt;Node14 -->
<g id="edge16" class="edge">
<title>Node11&#45;&gt;Node14</title>
<path fill="none" stroke="midnightblue" d="M620.87,-631.44C628.62,-628.59 636.53,-624.34 642,-618 646.8,-612.45 696.89,-399.83 712.43,-333.54"/>
<polygon fill="midnightblue" stroke="midnightblue" points="715.89,-334.1 714.77,-323.57 709.08,-332.51 715.89,-334.1"/>
</g>
<!-- Node15 -->
<g id="node15" class="node">
<title>Node15</title>
<g id="a_node15"><a xlink:href="group__datatypes__list__operate.html#ga1088f9b09ff8ed12e2c844758f39c039" target="_top" xlink:title="Compute the mean/average of a list of numbers.">
<polygon fill="white" stroke="black" points="696,-570.5 696,-589.5 740,-589.5 740,-570.5 696,-570.5"/>
<text text-anchor="middle" x="718" y="-577.5" font-family="Helvetica,sans-Serif" font-size="10.00">mean</text>
</a>
</g>
</g>
<!-- Node11&#45;&gt;Node15 -->
<g id="edge17" class="edge">
<title>Node11&#45;&gt;Node15</title>
<path fill="none" stroke="midnightblue" d="M620.31,-627.39C627.38,-624.51 635.05,-621.25 642,-618 658.39,-610.35 661.87,-607.19 678,-599 681.19,-597.38 684.53,-595.71 687.87,-594.07"/>
<polygon fill="midnightblue" stroke="midnightblue" points="689.66,-597.09 697.1,-589.54 686.58,-590.8 689.66,-597.09"/>
</g>
<!-- Node16 -->
<g id="node16" class="node">
<title>Node16</title>
<g id="a_node16"><a xlink:href="group__datatypes__euclidean.html#ga78d67c74076bef2e80a95b1e9b6eb2d7" target="_top" xlink:title="Return 3d point unchanged or add a zeroed third dimension to 2d point.">
<polygon fill="white" stroke="black" points="681,-532.5 681,-551.5 755,-551.5 755,-532.5 681,-532.5"/>
<text text-anchor="middle" x="718" y="-539.5" font-family="Helvetica,sans-Serif" font-size="10.00">point_to_3d</text>
</a>
</g>
</g>
<!-- Node11&#45;&gt;Node16 -->
<g id="edge18" class="edge">
<title>Node11&#45;&gt;Node16</title>
<path fill="none" stroke="midnightblue" d="M620.73,-629.94C628.12,-627.06 635.85,-623.15 642,-618 664.96,-598.75 655.68,-580.99 678,-561 679.69,-559.49 681.51,-558.07 683.43,-556.75"/>
<polygon fill="midnightblue" stroke="midnightblue" points="685.39,-559.65 692.19,-551.52 681.81,-553.64 685.39,-559.65"/>
</g>
<!-- Node17 -->
<g id="node17" class="node">
<title>Node17</title>
<g id="a_node17"><a xlink:href="group__datatypes__list__operate.html#ga7b8e6f2bbfa72ae61e39377e5ca6b5be" target="_top" xlink:title="Select specified element from list or return a default.">
<polygon fill="white" stroke="black" points="688.5,-684.5 688.5,-703.5 747.5,-703.5 747.5,-684.5 688.5,-684.5"/>
<text text-anchor="middle" x="718" y="-691.5" font-family="Helvetica,sans-Serif" font-size="10.00">select_ci</text>
</a>
</g>
</g>
<!-- Node11&#45;&gt;Node17 -->
<g id="edge19" class="edge">
<title>Node11&#45;&gt;Node17</title>
<path fill="none" stroke="midnightblue" d="M615.84,-646.54C635.37,-655.71 665.12,-669.66 687.3,-680.07"/>
<polygon fill="midnightblue" stroke="midnightblue" points="686.06,-683.35 696.6,-684.43 689.03,-677.01 686.06,-683.35"/>
</g>
<!-- Node18 -->
<g id="node18" class="node">
<title>Node18</title>
<g id="a_node18"><a xlink:href="group__datatypes__euclidean.html#ga6ef2a81f304d31b9ec9753ca4875ad45" target="_top" xlink:title="Convert line to vector by shifting it to the origin.">
<polygon fill="white" stroke="black" points="678,-646.5 678,-665.5 758,-665.5 758,-646.5 678,-646.5"/>
<text text-anchor="middle" x="718" y="-653.5" font-family="Helvetica,sans-Serif" font-size="10.00">vol_to_origin</text>
</a>
</g>
</g>
<!-- Node11&#45;&gt;Node18 -->
<g id="edge20" class="edge">
<title>Node11&#45;&gt;Node18</title>
<path fill="none" stroke="midnightblue" d="M620.67,-640.94C634.37,-643.08 651.8,-645.8 668.05,-648.35"/>
<polygon fill="midnightblue" stroke="midnightblue" points="667.56,-651.81 677.98,-649.9 668.64,-644.89 667.56,-651.81"/>
</g>
<!-- Node20&#45;&gt;Node21 -->
<g id="edge24" class="edge">
<title>Node20&#45;&gt;Node21</title>
<path fill="none" stroke="midnightblue" d="M490.14,-266.38C496.84,-263.39 504.23,-260.07 511,-257 528.48,-249.07 547.99,-240.09 563.65,-232.85"/>
<polygon fill="midnightblue" stroke="midnightblue" points="565.24,-235.97 572.85,-228.59 562.3,-229.61 565.24,-235.97"/>
</g>
</g>
</svg>
