<?xml version="1.0" encoding="UTF-8" standalone="no"?>
<!DOCTYPE svg PUBLIC "-//W3C//DTD SVG 1.1//EN"
 "http://www.w3.org/Graphics/SVG/1.1/DTD/svg11.dtd">
<!-- Generated by graphviz version 2.43.0 (0)
 -->
<!-- Title: Scalar Operations Pages: 1 -->
<svg width="316pt" height="35pt"
 viewBox="0.00 0.00 316.00 35.43" xmlns="http://www.w3.org/2000/svg" xmlns:xlink="http://www.w3.org/1999/xlink">
<g id="graph0" class="graph" transform="scale(1 1) rotate(0) translate(4 31.43)">
<title>Scalar Operations</title>
<polygon fill="white" stroke="transparent" points="-4,4 -4,-31.43 312,-31.43 312,4 -4,4"/>
<!-- Node2 -->
<g id="node1" class="node">
<title>Node2</title>
<g id="a_node1"><a xlink:href="group__datatypes.html" target="_top" xlink:title="Data type identification and operations.">
<polygon fill="white" stroke="black" points="71,-27.43 0,-27.43 0,-8.43 71,-8.43 71,-27.43"/>
<text text-anchor="middle" x="35.5" y="-15.43" font-family="Helvetica,sans-Serif" font-size="10.00">Data Types</text>
</a>
</g>
</g>
<!-- Node1 -->
<g id="node2" class="node">
<title>Node1</title>
<g id="a_node2"><a xlink:title="Operations for scalar data types.">
<polygon fill="#bfbfbf" stroke="black" points="308,-27.43 205,-27.43 205,-8.43 308,-8.43 308,-27.43"/>
<text text-anchor="middle" x="256.5" y="-15.43" font-family="Helvetica,sans-Serif" font-size="10.00">Scalar Operations</text>
</a>
</g>
</g>
<!-- Node2&#45;&gt;Node1 -->
<g id="edge1" class="edge">
<title>Node2&#45;&gt;Node1</title>
<path fill="none" stroke="black" d="M81.36,-17.93C117.18,-17.93 167.36,-17.93 204.66,-17.93"/>
<polygon fill="black" stroke="black" points="81.2,-14.43 71.2,-17.93 81.2,-21.43 81.2,-14.43"/>
</g>
<!-- Node1&#45;&gt;Node2 -->
<g id="edge2" class="edge">
<title>Node1&#45;&gt;Node2</title>
<path fill="none" stroke="darkgreen" stroke-dasharray="5,2" d="M215.86,-8.41C206.46,-6.55 196.42,-4.88 187,-3.93 143.67,0.46 132.19,1.73 89,-3.93 81.7,-4.88 73.98,-6.55 66.77,-8.42"/>
<text text-anchor="middle" x="138" y="-6.93" font-family="Helvetica,sans-Serif" font-size="10.00">scalar_operate.scad</text>
</g>
</g>
</svg>
