<?xml version="1.0" encoding="UTF-8" standalone="no"?>
<!DOCTYPE svg PUBLIC "-//W3C//DTD SVG 1.1//EN"
 "http://www.w3.org/Graphics/SVG/1.1/DTD/svg11.dtd">
<!-- Generated by graphviz version 2.43.0 (0)
 -->
<!-- Title: defined_or Pages: 1 -->
<svg width="376pt" height="598pt"
 viewBox="0.00 0.00 376.00 598.00" xmlns="http://www.w3.org/2000/svg" xmlns:xlink="http://www.w3.org/1999/xlink">
<g id="graph0" class="graph" transform="scale(1 1) rotate(0) translate(4 594)">
<title>defined_or</title>
<polygon fill="white" stroke="transparent" points="-4,4 -4,-594 372,-594 372,4 -4,4"/>
<!-- Node1 -->
<g id="node1" class="node">
<title>Node1</title>
<g id="a_node1"><a xlink:title="Return given value, if defined, or a secondary value, if primary is not defined.">
<polygon fill="#bfbfbf" stroke="black" points="300,-285.5 300,-304.5 368,-304.5 368,-285.5 300,-285.5"/>
<text text-anchor="middle" x="334" y="-292.5" font-family="Helvetica,sans-Serif" font-size="10.00">defined_or</text>
</a>
</g>
</g>
<!-- Node2 -->
<g id="node2" class="node">
<title>Node2</title>
<g id="a_node2"><a xlink:href="group__parts__3d__fastener__catch__latch.html#gaa90b197081dba0e1fbe7c92aa4079279" target="_top" xlink:title="A catch latch generator.">
<polygon fill="white" stroke="black" points="165.5,-570.5 165.5,-589.5 237.5,-589.5 237.5,-570.5 165.5,-570.5"/>
<text text-anchor="middle" x="201.5" y="-577.5" font-family="Helvetica,sans-Serif" font-size="10.00">catch_latch</text>
</a>
</g>
</g>
<!-- Node1&#45;&gt;Node2 -->
<g id="edge1" class="edge">
<title>Node1&#45;&gt;Node2</title>
<path fill="none" stroke="midnightblue" d="M333.5,-314.96C333.6,-362.75 327.28,-485.09 264,-556 257.06,-563.78 247.28,-569.06 237.56,-572.64"/>
<polygon fill="midnightblue" stroke="midnightblue" points="337,-314.68 333.37,-304.72 330,-314.77 337,-314.68"/>
</g>
<!-- Node3 -->
<g id="node3" class="node">
<title>Node3</title>
<g id="a_node3"><a xlink:href="group__tools__drafting__dimension.html#ga6b8e17d22ac4a95d25a90be8a74c0689" target="_top" xlink:title="Construct a angular dimension arc.">
<polygon fill="white" stroke="black" points="4,-527.5 4,-546.5 99,-546.5 99,-527.5 4,-527.5"/>
<text text-anchor="middle" x="51.5" y="-534.5" font-family="Helvetica,sans-Serif" font-size="10.00">draft_dim_angle</text>
</a>
</g>
</g>
<!-- Node1&#45;&gt;Node3 -->
<g id="edge2" class="edge">
<title>Node1&#45;&gt;Node3</title>
<path fill="none" stroke="midnightblue" d="M333.28,-314.9C332.72,-358.36 324.72,-461.86 264,-512 218.1,-549.91 146.28,-550.02 99.3,-544.89"/>
<polygon fill="midnightblue" stroke="midnightblue" points="336.78,-314.77 333.29,-304.77 329.78,-314.77 336.78,-314.77"/>
</g>
<!-- Node4 -->
<g id="node4" class="node">
<title>Node4</title>
<g id="a_node4"><a xlink:href="group__tools__drafting__dimension.html#ga5c4915c4c4464c5cdaefd501c2de261d" target="_top" xlink:title="Construct a dimension leader line at a point.">
<polygon fill="white" stroke="black" points="2,-484.5 2,-503.5 101,-503.5 101,-484.5 2,-484.5"/>
<text text-anchor="middle" x="51.5" y="-491.5" font-family="Helvetica,sans-Serif" font-size="10.00">draft_dim_leader</text>
</a>
</g>
</g>
<!-- Node1&#45;&gt;Node4 -->
<g id="edge3" class="edge">
<title>Node1&#45;&gt;Node4</title>
<path fill="none" stroke="midnightblue" d="M332.55,-314.65C330.46,-354.47 319.51,-444.32 264,-485 212.57,-522.69 133.7,-513.43 88.21,-503.54"/>
<polygon fill="midnightblue" stroke="midnightblue" points="336.05,-314.76 332.94,-304.63 329.06,-314.48 336.05,-314.76"/>
</g>
<!-- Node5 -->
<g id="node5" class="node">
<title>Node5</title>
<g id="a_node5"><a xlink:href="group__tools__drafting__dimension.html#ga27a35e94597435a74e22d76789e9be5e" target="_top" xlink:title="Construct a dimension line between two points.">
<polygon fill="white" stroke="black" points="8.5,-437.5 8.5,-456.5 94.5,-456.5 94.5,-437.5 8.5,-437.5"/>
<text text-anchor="middle" x="51.5" y="-444.5" font-family="Helvetica,sans-Serif" font-size="10.00">draft_dim_line</text>
</a>
</g>
</g>
<!-- Node1&#45;&gt;Node5 -->
<g id="edge4" class="edge">
<title>Node1&#45;&gt;Node5</title>
<path fill="none" stroke="midnightblue" d="M326.08,-314.09C316.21,-338.47 295.7,-380.13 264,-402 213.17,-437.06 140.33,-445.65 94.76,-447.3"/>
<polygon fill="midnightblue" stroke="midnightblue" points="329.44,-315.11 329.76,-304.52 322.9,-312.59 329.44,-315.11"/>
</g>
<!-- Node6 -->
<g id="node6" class="node">
<title>Node6</title>
<g id="a_node6"><a xlink:href="group__tools__drafting__dimension.html#gaef1a8150a8ef7be88e086fb3dbab64a9" target="_top" xlink:title="Construct a radial dimension line.">
<polygon fill="white" stroke="black" points="2.5,-399.5 2.5,-418.5 100.5,-418.5 100.5,-399.5 2.5,-399.5"/>
<text text-anchor="middle" x="51.5" y="-406.5" font-family="Helvetica,sans-Serif" font-size="10.00">draft_dim_radius</text>
</a>
</g>
</g>
<!-- Node1&#45;&gt;Node6 -->
<g id="edge5" class="edge">
<title>Node1&#45;&gt;Node6</title>
<path fill="none" stroke="midnightblue" d="M321.57,-313.4C309.52,-331.13 288.86,-357.23 264,-371 213.09,-399.19 145.69,-407.14 100.8,-409.04"/>
<polygon fill="midnightblue" stroke="midnightblue" points="324.82,-314.83 327.35,-304.54 318.95,-311 324.82,-314.83"/>
</g>
<!-- Node7 -->
<g id="node7" class="node">
<title>Node7</title>
<g id="a_node7"><a xlink:href="group__tools__drafting__operation.html#ga6273cb44e3132783d3714375c9fb1e4b" target="_top" xlink:title="Move one or more child objects to sheet a reference zone.">
<polygon fill="white" stroke="black" points="165.5,-342.5 165.5,-361.5 237.5,-361.5 237.5,-342.5 165.5,-342.5"/>
<text text-anchor="middle" x="201.5" y="-349.5" font-family="Helvetica,sans-Serif" font-size="10.00">draft_move</text>
</a>
</g>
</g>
<!-- Node1&#45;&gt;Node7 -->
<g id="edge6" class="edge">
<title>Node1&#45;&gt;Node7</title>
<path fill="none" stroke="midnightblue" d="M309.05,-309.77C296.05,-317.38 279.5,-326.42 264,-333 255.67,-336.54 246.45,-339.74 237.74,-342.46"/>
<polygon fill="midnightblue" stroke="midnightblue" points="311.04,-312.66 317.83,-304.53 307.45,-306.65 311.04,-312.66"/>
</g>
<!-- Node8 -->
<g id="node8" class="node">
<title>Node8</title>
<g id="a_node8"><a xlink:href="group__tools__drafting__operation.html#gac1b780633ac5e2874a8a00177d98b305" target="_top" xlink:title="Construct a text note with optional heading and boarder.">
<polygon fill="white" stroke="black" points="168.5,-456.5 168.5,-475.5 234.5,-475.5 234.5,-456.5 168.5,-456.5"/>
<text text-anchor="middle" x="201.5" y="-463.5" font-family="Helvetica,sans-Serif" font-size="10.00">draft_note</text>
</a>
</g>
</g>
<!-- Node1&#45;&gt;Node8 -->
<g id="edge7" class="edge">
<title>Node1&#45;&gt;Node8</title>
<path fill="none" stroke="midnightblue" d="M328.73,-314.75C321.03,-345.89 301.96,-406.5 264,-442 255.88,-449.59 245.08,-454.88 234.81,-458.51"/>
<polygon fill="midnightblue" stroke="midnightblue" points="332.21,-315.25 331.07,-304.71 325.39,-313.66 332.21,-315.25"/>
</g>
<!-- Node9 -->
<g id="node9" class="node">
<title>Node9</title>
<g id="a_node9"><a xlink:href="group__tools__drafting__primitive.html#gaf5c23ddb3b38a362eaece312029bcedd" target="_top" xlink:title="Add text to table cell at a given a column and row.">
<polygon fill="white" stroke="black" points="154.5,-304.5 154.5,-323.5 248.5,-323.5 248.5,-304.5 154.5,-304.5"/>
<text text-anchor="middle" x="201.5" y="-311.5" font-family="Helvetica,sans-Serif" font-size="10.00">draft_table_text</text>
</a>
</g>
</g>
<!-- Node1&#45;&gt;Node9 -->
<g id="edge12" class="edge">
<title>Node1&#45;&gt;Node9</title>
<path fill="none" stroke="midnightblue" d="M289.51,-301.33C276.34,-303.25 261.83,-305.36 248.51,-307.3"/>
<polygon fill="midnightblue" stroke="midnightblue" points="290.34,-304.75 299.73,-299.84 289.33,-297.82 290.34,-304.75"/>
</g>
<!-- Node10 -->
<g id="node10" class="node">
<title>Node10</title>
<g id="a_node10"><a xlink:href="group__tools__drafting__primitive.html#gaace78d1d977ad068ab277e50a591fde8" target="_top" xlink:title="Add text to ztable at a given zone index.">
<polygon fill="white" stroke="black" points="152,-266.5 152,-285.5 251,-285.5 251,-266.5 152,-266.5"/>
<text text-anchor="middle" x="201.5" y="-273.5" font-family="Helvetica,sans-Serif" font-size="10.00">draft_ztable_text</text>
</a>
</g>
</g>
<!-- Node1&#45;&gt;Node10 -->
<g id="edge13" class="edge">
<title>Node1&#45;&gt;Node10</title>
<path fill="none" stroke="midnightblue" d="M289.75,-288.7C277.49,-286.92 264.05,-284.96 251.48,-283.13"/>
<polygon fill="midnightblue" stroke="midnightblue" points="289.33,-292.18 299.73,-290.16 290.34,-285.25 289.33,-292.18"/>
</g>
<!-- Node11 -->
<g id="node11" class="node">
<title>Node11</title>
<g id="a_node11"><a xlink:href="group__parts__3d__computer__pci__bracket.html#gaf56631cf80d8e5f0b77736b17b94ecd9" target="_top" xlink:title="PCI slot cover and adapter card bracket generator.">
<polygon fill="white" stroke="black" points="165.5,-228.5 165.5,-247.5 237.5,-247.5 237.5,-228.5 165.5,-228.5"/>
<text text-anchor="middle" x="201.5" y="-235.5" font-family="Helvetica,sans-Serif" font-size="10.00">pci_bracket</text>
</a>
</g>
</g>
<!-- Node1&#45;&gt;Node11 -->
<g id="edge14" class="edge">
<title>Node1&#45;&gt;Node11</title>
<path fill="none" stroke="midnightblue" d="M309.05,-280.23C296.05,-272.62 279.5,-263.58 264,-257 255.67,-253.46 246.45,-250.26 237.74,-247.54"/>
<polygon fill="midnightblue" stroke="midnightblue" points="307.45,-283.35 317.83,-285.47 311.04,-277.34 307.45,-283.35"/>
</g>
<!-- Node12 -->
<g id="node12" class="node">
<title>Node12</title>
<g id="a_node12"><a xlink:href="group__shapes__polygon.html#ga22a29774c22e5cc9f3101ed0a0ed307a" target="_top" xlink:title="A polygon rectangle with side rounding.">
<polygon fill="white" stroke="black" points="154.5,-190.5 154.5,-209.5 248.5,-209.5 248.5,-190.5 154.5,-190.5"/>
<text text-anchor="middle" x="201.5" y="-197.5" font-family="Helvetica,sans-Serif" font-size="10.00">pg_rectangle_rs</text>
</a>
</g>
</g>
<!-- Node1&#45;&gt;Node12 -->
<g id="edge15" class="edge">
<title>Node1&#45;&gt;Node12</title>
<path fill="none" stroke="midnightblue" d="M320.8,-276.69C308.41,-259.45 287.72,-234.09 264,-219 257.97,-215.16 251.1,-212.05 244.21,-209.55"/>
<polygon fill="midnightblue" stroke="midnightblue" points="318.21,-279.1 326.79,-285.31 323.96,-275.1 318.21,-279.1"/>
</g>
<!-- Node13 -->
<g id="node13" class="node">
<title>Node13</title>
<g id="a_node13"><a xlink:href="group__tools__polytope.html#ga530c86f9c90ce074aa7adc29834f0539" target="_top" xlink:title="Assemble a polytope skeletal frame using child objects.">
<polygon fill="white" stroke="black" points="154.5,-152.5 154.5,-171.5 248.5,-171.5 248.5,-152.5 154.5,-152.5"/>
<text text-anchor="middle" x="201.5" y="-159.5" font-family="Helvetica,sans-Serif" font-size="10.00">polytope_frame</text>
</a>
</g>
</g>
<!-- Node1&#45;&gt;Node13 -->
<g id="edge16" class="edge">
<title>Node1&#45;&gt;Node13</title>
<path fill="none" stroke="midnightblue" d="M326.38,-275.85C316.64,-250.48 296.07,-206.05 264,-181 259.07,-177.15 253.35,-174.07 247.43,-171.62"/>
<polygon fill="midnightblue" stroke="midnightblue" points="323.16,-277.25 329.89,-285.44 329.74,-274.84 323.16,-277.25"/>
</g>
<!-- Node14 -->
<g id="node14" class="node">
<title>Node14</title>
<g id="a_node14"><a xlink:href="group__tools__polytope.html#ga00b574079f19251be7281151d11db8fa" target="_top" xlink:title="Label the vertices, paths, and edges of a polytope.">
<polygon fill="white" stroke="black" points="150.5,-114.5 150.5,-133.5 252.5,-133.5 252.5,-114.5 150.5,-114.5"/>
<text text-anchor="middle" x="201.5" y="-121.5" font-family="Helvetica,sans-Serif" font-size="10.00">polytope_number</text>
</a>
</g>
</g>
<!-- Node1&#45;&gt;Node14 -->
<g id="edge17" class="edge">
<title>Node1&#45;&gt;Node14</title>
<path fill="none" stroke="midnightblue" d="M329.42,-275.15C322.56,-242.77 304.46,-178.64 264,-143 259.56,-139.09 254.32,-135.98 248.8,-133.51"/>
<polygon fill="midnightblue" stroke="midnightblue" points="326.03,-276.04 331.4,-285.18 332.9,-274.69 326.03,-276.04"/>
</g>
<!-- Node15 -->
<g id="node15" class="node">
<title>Node15</title>
<g id="a_node15"><a xlink:href="group__parts__3d__enclosure__project__box__rectangle.html#ga6a5d093d732e65556c46252220f2c4b6" target="_top" xlink:title="A rectangular box maker for project boxes, enclosures and housings.">
<polygon fill="white" stroke="black" points="139,-76.5 139,-95.5 264,-95.5 264,-76.5 139,-76.5"/>
<text text-anchor="middle" x="201.5" y="-83.5" font-family="Helvetica,sans-Serif" font-size="10.00">project_box_rectangle</text>
</a>
</g>
</g>
<!-- Node1&#45;&gt;Node15 -->
<g id="edge18" class="edge">
<title>Node1&#45;&gt;Node15</title>
<path fill="none" stroke="midnightblue" d="M331.43,-274.65C327.36,-236.01 313.05,-151.72 264,-105 259.95,-101.15 255.14,-98.07 250.02,-95.62"/>
<polygon fill="midnightblue" stroke="midnightblue" points="327.99,-275.45 332.4,-285.08 334.96,-274.8 327.99,-275.45"/>
</g>
<!-- Node17 -->
<g id="node17" class="node">
<title>Node17</title>
<g id="a_node17"><a xlink:href="group__shapes__basic__2d.html#ga803b8196745be0e3a338def3c58e3b2b" target="_top" xlink:title="A rectangle with a removed rectangular core.">
<polygon fill="white" stroke="black" points="165,-0.5 165,-19.5 238,-19.5 238,-0.5 165,-0.5"/>
<text text-anchor="middle" x="201.5" y="-7.5" font-family="Helvetica,sans-Serif" font-size="10.00">rectangle_c</text>
</a>
</g>
</g>
<!-- Node1&#45;&gt;Node17 -->
<g id="edge20" class="edge">
<title>Node1&#45;&gt;Node17</title>
<path fill="none" stroke="midnightblue" d="M330.37,-275.14C322.66,-219.72 298.46,-65.07 264,-29 257.13,-21.81 247.6,-17.32 238.1,-14.53"/>
<polygon fill="midnightblue" stroke="midnightblue" points="326.95,-275.94 331.77,-285.38 333.89,-275 326.95,-275.94"/>
</g>
<!-- Node19 -->
<g id="node19" class="node">
<title>Node19</title>
<g id="a_node19"><a xlink:href="group__parts__3d__enclosure__mounts.html#gacac878eda32a71cb3b1b174c9aebb56c" target="_top" xlink:title="A mount tab with screw hole and support brace.">
<polygon fill="white" stroke="black" points="150,-38.5 150,-57.5 253,-57.5 253,-38.5 150,-38.5"/>
<text text-anchor="middle" x="201.5" y="-45.5" font-family="Helvetica,sans-Serif" font-size="10.00">screw_mount_tab</text>
</a>
</g>
</g>
<!-- Node1&#45;&gt;Node19 -->
<g id="edge23" class="edge">
<title>Node1&#45;&gt;Node19</title>
<path fill="none" stroke="midnightblue" d="M332.9,-274.94C331.55,-230.97 322.08,-125.42 264,-67 260.14,-63.12 255.5,-60.02 250.53,-57.56"/>
<polygon fill="midnightblue" stroke="midnightblue" points="329.4,-275.24 333.09,-285.17 336.4,-275.1 329.4,-275.24"/>
</g>
<!-- Node8&#45;&gt;Node3 -->
<g id="edge8" class="edge">
<title>Node8&#45;&gt;Node3</title>
<path fill="none" stroke="midnightblue" d="M171.52,-480.02C152.14,-489.39 126.05,-501.96 103,-513 93.02,-517.78 81.91,-523.06 72.66,-527.45"/>
<polygon fill="midnightblue" stroke="midnightblue" points="173.24,-483.08 180.72,-475.57 170.19,-476.77 173.24,-483.08"/>
</g>
<!-- Node8&#45;&gt;Node4 -->
<g id="edge9" class="edge">
<title>Node8&#45;&gt;Node4</title>
<path fill="none" stroke="midnightblue" d="M158.54,-473.94C140.67,-477.32 119.7,-481.29 101.16,-484.79"/>
<polygon fill="midnightblue" stroke="midnightblue" points="159.21,-477.37 168.39,-472.08 157.91,-470.5 159.21,-477.37"/>
</g>
<!-- Node8&#45;&gt;Node5 -->
<g id="edge10" class="edge">
<title>Node8&#45;&gt;Node5</title>
<path fill="none" stroke="midnightblue" d="M158.34,-460.59C138.39,-458.03 114.62,-454.98 94.67,-452.41"/>
<polygon fill="midnightblue" stroke="midnightblue" points="158.02,-464.08 168.39,-461.88 158.91,-457.13 158.02,-464.08"/>
</g>
<!-- Node8&#45;&gt;Node6 -->
<g id="edge11" class="edge">
<title>Node8&#45;&gt;Node6</title>
<path fill="none" stroke="midnightblue" d="M166.78,-452.74C148.02,-445.4 124.24,-436.13 103,-428 94.86,-424.88 85.98,-421.52 77.95,-418.51"/>
<polygon fill="midnightblue" stroke="midnightblue" points="165.5,-456 176.09,-456.39 168.06,-449.49 165.5,-456"/>
</g>
<!-- Node16 -->
<g id="node16" class="node">
<title>Node16</title>
<g id="a_node16"><a xlink:href="group__parts__3d__enclosure__power__strip.html#ga191779dedf39e4fd769a8dc96b0f8c9e" target="_top" xlink:title="A power strip generator for single gang electrical receptacles.">
<polygon fill="white" stroke="black" points="6.5,-38.5 6.5,-57.5 96.5,-57.5 96.5,-38.5 6.5,-38.5"/>
<text text-anchor="middle" x="51.5" y="-45.5" font-family="Helvetica,sans-Serif" font-size="10.00">power_strip_sg</text>
</a>
</g>
</g>
<!-- Node15&#45;&gt;Node16 -->
<g id="edge19" class="edge">
<title>Node15&#45;&gt;Node16</title>
<path fill="none" stroke="midnightblue" d="M153.33,-73.89C132.71,-68.6 108.89,-62.48 89.58,-57.52"/>
<polygon fill="midnightblue" stroke="midnightblue" points="152.6,-77.31 163.15,-76.41 154.34,-70.53 152.6,-77.31"/>
</g>
<!-- Node17&#45;&gt;Node16 -->
<g id="edge21" class="edge">
<title>Node17&#45;&gt;Node16</title>
<path fill="none" stroke="midnightblue" d="M154.72,-21.76C133.78,-27.13 109.3,-33.42 89.54,-38.49"/>
<polygon fill="midnightblue" stroke="midnightblue" points="155.86,-25.08 164.67,-19.2 154.12,-18.3 155.86,-25.08"/>
</g>
<!-- Node18 -->
<g id="node18" class="node">
<title>Node18</title>
<g id="a_node18"><a xlink:href="group__shapes__revolved.html#gad587c003585db775fd441468954b7c43" target="_top" xlink:title="A rectangular cross&#45;sectional profile revolved about the z&#45;axis.">
<polygon fill="white" stroke="black" points="0,-0.5 0,-19.5 103,-19.5 103,-0.5 0,-0.5"/>
<text text-anchor="middle" x="51.5" y="-7.5" font-family="Helvetica,sans-Serif" font-size="10.00">torus_rectangle_c</text>
</a>
</g>
</g>
<!-- Node17&#45;&gt;Node18 -->
<g id="edge22" class="edge">
<title>Node17&#45;&gt;Node18</title>
<path fill="none" stroke="midnightblue" d="M154.33,-10C138.07,-10 119.71,-10 103.1,-10"/>
<polygon fill="midnightblue" stroke="midnightblue" points="154.67,-13.5 164.67,-10 154.67,-6.5 154.67,-13.5"/>
</g>
<!-- Node19&#45;&gt;Node16 -->
<g id="edge24" class="edge">
<title>Node19&#45;&gt;Node16</title>
<path fill="none" stroke="midnightblue" d="M139.69,-48C125.34,-48 110.31,-48 96.85,-48"/>
<polygon fill="midnightblue" stroke="midnightblue" points="139.98,-51.5 149.98,-48 139.98,-44.5 139.98,-51.5"/>
</g>
</g>
</svg>
