<?xml version="1.0" encoding="UTF-8" standalone="no"?>
<!DOCTYPE svg PUBLIC "-//W3C//DTD SVG 1.1//EN"
 "http://www.w3.org/Graphics/SVG/1.1/DTD/svg11.dtd">
<!-- Generated by graphviz version 2.43.0 (0)
 -->
<!-- Title: select_ci Pages: 1 -->
<svg width="763pt" height="538pt"
 viewBox="0.00 0.00 763.00 538.05" xmlns="http://www.w3.org/2000/svg" xmlns:xlink="http://www.w3.org/1999/xlink">
<g id="graph0" class="graph" transform="scale(1 1) rotate(0) translate(4 534.05)">
<title>select_ci</title>
<polygon fill="white" stroke="transparent" points="-4,4 -4,-534.05 759,-534.05 759,4 -4,4"/>
<!-- Node1 -->
<g id="node1" class="node">
<title>Node1</title>
<g id="a_node1"><a xlink:title="Select specified element from list or return a default.">
<polygon fill="#bfbfbf" stroke="black" points="696,-168.55 696,-187.55 755,-187.55 755,-168.55 696,-168.55"/>
<text text-anchor="middle" x="725.5" y="-175.55" font-family="Helvetica,sans-Serif" font-size="10.00">select_ci</text>
</a>
</g>
</g>
<!-- Node2 -->
<g id="node2" class="node">
<title>Node2</title>
<g id="a_node2"><a xlink:href="group__tools__align.html#ga3f7b93a4934de605058ca07f0c22d688" target="_top" xlink:title="Align an objects Cartesian axis to reference line or vector.">
<polygon fill="white" stroke="black" points="394,-339.55 394,-358.55 449,-358.55 449,-339.55 394,-339.55"/>
<text text-anchor="middle" x="421.5" y="-346.55" font-family="Helvetica,sans-Serif" font-size="10.00">align_al</text>
</a>
</g>
</g>
<!-- Node1&#45;&gt;Node2 -->
<g id="edge1" class="edge">
<title>Node1&#45;&gt;Node2</title>
<path fill="none" stroke="midnightblue" d="M722.51,-197.93C717.99,-231.43 703.68,-298.55 660,-330.05 596.25,-376.01 496.3,-364.21 449.01,-355.07"/>
<polygon fill="midnightblue" stroke="midnightblue" points="726.03,-197.94 723.73,-187.59 719.08,-197.11 726.03,-197.94"/>
</g>
<!-- Node3 -->
<g id="node3" class="node">
<title>Node3</title>
<g id="a_node3"><a xlink:href="group__tools__align.html#ga7a21147611850c6cae7e95d23417099b" target="_top" xlink:title="Align a line or vector to a reference line or vector.">
<polygon fill="white" stroke="black" points="564,-301.55 564,-320.55 616,-320.55 616,-301.55 564,-301.55"/>
<text text-anchor="middle" x="590" y="-308.55" font-family="Helvetica,sans-Serif" font-size="10.00">align_ll</text>
</a>
</g>
</g>
<!-- Node1&#45;&gt;Node3 -->
<g id="edge2" class="edge">
<title>Node1&#45;&gt;Node3</title>
<path fill="none" stroke="midnightblue" d="M717.9,-197.25C708.63,-221.48 689.5,-262.91 660,-287.05 647.43,-297.32 630.18,-303.32 616.08,-306.75"/>
<polygon fill="midnightblue" stroke="midnightblue" points="721.23,-198.32 721.37,-187.73 714.65,-195.93 721.23,-198.32"/>
</g>
<!-- Node17 -->
<g id="node17" class="node">
<title>Node17</title>
<g id="a_node17"><a xlink:href="group__parts__3d__fastener__catch__latch.html#gaa90b197081dba0e1fbe7c92aa4079279" target="_top" xlink:title="A catch latch generator.">
<polygon fill="white" stroke="black" points="385.5,-244.55 385.5,-263.55 457.5,-263.55 457.5,-244.55 385.5,-244.55"/>
<text text-anchor="middle" x="421.5" y="-251.55" font-family="Helvetica,sans-Serif" font-size="10.00">catch_latch</text>
</a>
</g>
</g>
<!-- Node1&#45;&gt;Node17 -->
<g id="edge20" class="edge">
<title>Node1&#45;&gt;Node17</title>
<path fill="none" stroke="midnightblue" d="M715.07,-196.53C704.49,-215 685.43,-242.28 660,-254.05 593.96,-284.62 506.09,-273.03 457.88,-262.89"/>
<polygon fill="midnightblue" stroke="midnightblue" points="718.24,-198.03 719.94,-187.57 712.09,-194.69 718.24,-198.03"/>
</g>
<!-- Node18 -->
<g id="node18" class="node">
<title>Node18</title>
<g id="a_node18"><a xlink:href="group__models__3d__bearing__lmxuu.html#gaf396e2f094a50d28a1a3fcc294a1149a" target="_top" xlink:title="Linear motion bearing model.">
<polygon fill="white" stroke="black" points="566.5,-225.55 566.5,-244.55 613.5,-244.55 613.5,-225.55 566.5,-225.55"/>
<text text-anchor="middle" x="590" y="-232.55" font-family="Helvetica,sans-Serif" font-size="10.00">lmxuu</text>
</a>
</g>
</g>
<!-- Node1&#45;&gt;Node18 -->
<g id="edge21" class="edge">
<title>Node1&#45;&gt;Node18</title>
<path fill="none" stroke="midnightblue" d="M702.2,-193.16C690.11,-200.84 674.69,-209.83 660,-216.05 645.01,-222.39 627.29,-227.22 613.57,-230.42"/>
<polygon fill="midnightblue" stroke="midnightblue" points="704.25,-196.01 710.72,-187.62 700.43,-190.14 704.25,-196.01"/>
</g>
<!-- Node19 -->
<g id="node19" class="node">
<title>Node19</title>
<g id="a_node19"><a xlink:href="group__parts__3d__bearing__bearing__linear__rod.html#ga48399d5e708b4894494c69b2d1e88e26" target="_top" xlink:title="Transform 2d or 3d shape into a linear rod ball or sled bearing.">
<polygon fill="white" stroke="black" points="520,-187.55 520,-206.55 660,-206.55 660,-187.55 520,-187.55"/>
<text text-anchor="middle" x="590" y="-194.55" font-family="Helvetica,sans-Serif" font-size="10.00">make_bearing_linear_rod</text>
</a>
</g>
</g>
<!-- Node1&#45;&gt;Node19 -->
<g id="edge22" class="edge">
<title>Node1&#45;&gt;Node19</title>
<path fill="none" stroke="midnightblue" d="M685.67,-183.57C676.97,-184.81 667.48,-186.16 658,-187.51"/>
<polygon fill="midnightblue" stroke="midnightblue" points="686.45,-187 695.86,-182.12 685.47,-180.07 686.45,-187"/>
</g>
<!-- Node20 -->
<g id="node20" class="node">
<title>Node20</title>
<g id="a_node20"><a xlink:href="group__models__3d__misc__omdl__logo.html#gab176f64dad7e83d4fb056be44b71f630" target="_top" xlink:title="Standard omdl logo.">
<polygon fill="white" stroke="black" points="387.5,-73.55 387.5,-92.55 455.5,-92.55 455.5,-73.55 387.5,-73.55"/>
<text text-anchor="middle" x="421.5" y="-80.55" font-family="Helvetica,sans-Serif" font-size="10.00">omdl_logo</text>
</a>
</g>
</g>
<!-- Node1&#45;&gt;Node20 -->
<g id="edge23" class="edge">
<title>Node1&#45;&gt;Node20</title>
<path fill="none" stroke="midnightblue" d="M714.55,-159.43C703.75,-141.31 684.69,-114.7 660,-102.05 593.92,-68.19 503.74,-72.47 455.75,-78.05"/>
<polygon fill="midnightblue" stroke="midnightblue" points="711.71,-161.51 719.68,-168.49 717.8,-158.06 711.71,-161.51"/>
</g>
<!-- Node22 -->
<g id="node22" class="node">
<title>Node22</title>
<g id="a_node22"><a xlink:href="group__parts__3d__computer__pci__bracket.html#gaf56631cf80d8e5f0b77736b17b94ecd9" target="_top" xlink:title="PCI slot cover and adapter card bracket generator.">
<polygon fill="white" stroke="black" points="554,-111.55 554,-130.55 626,-130.55 626,-111.55 554,-111.55"/>
<text text-anchor="middle" x="590" y="-118.55" font-family="Helvetica,sans-Serif" font-size="10.00">pci_bracket</text>
</a>
</g>
</g>
<!-- Node1&#45;&gt;Node22 -->
<g id="edge25" class="edge">
<title>Node1&#45;&gt;Node22</title>
<path fill="none" stroke="midnightblue" d="M702.2,-162.93C690.11,-155.25 674.69,-146.26 660,-140.05 649.24,-135.49 637.09,-131.72 626,-128.77"/>
<polygon fill="midnightblue" stroke="midnightblue" points="700.43,-165.95 710.72,-168.47 704.25,-160.08 700.43,-165.95"/>
</g>
<!-- Node23 -->
<g id="node23" class="node">
<title>Node23</title>
<g id="a_node23"><a xlink:href="group__parts__3d__enclosure__project__box__rectangle.html#ga6a5d093d732e65556c46252220f2c4b6" target="_top" xlink:title="A rectangular box maker for project boxes, enclosures and housings.">
<polygon fill="white" stroke="black" points="359,-16.55 359,-35.55 484,-35.55 484,-16.55 359,-16.55"/>
<text text-anchor="middle" x="421.5" y="-23.55" font-family="Helvetica,sans-Serif" font-size="10.00">project_box_rectangle</text>
</a>
</g>
</g>
<!-- Node1&#45;&gt;Node23 -->
<g id="edge26" class="edge">
<title>Node1&#45;&gt;Node23</title>
<path fill="none" stroke="midnightblue" d="M722.82,-158.23C718.76,-124.31 705.1,-55.9 660,-26.05 596.22,16.17 500.17,-2.79 452.1,-16.44"/>
<polygon fill="midnightblue" stroke="midnightblue" points="719.35,-158.72 723.86,-168.3 726.32,-158 719.35,-158.72"/>
</g>
<!-- Node24 -->
<g id="node24" class="node">
<title>Node24</title>
<g id="a_node24"><a xlink:href="group__models__3d__bearing__radial__ball.html#ga5493ed8f39baf9941e12118edf0bb7a8" target="_top" xlink:title="Radial ball bearing model.">
<polygon fill="white" stroke="black" points="556,-35.55 556,-54.55 624,-54.55 624,-35.55 556,-35.55"/>
<text text-anchor="middle" x="590" y="-42.55" font-family="Helvetica,sans-Serif" font-size="10.00">radial_ball</text>
</a>
</g>
</g>
<!-- Node1&#45;&gt;Node24 -->
<g id="edge28" class="edge">
<title>Node1&#45;&gt;Node24</title>
<path fill="none" stroke="midnightblue" d="M717.9,-158.84C708.63,-134.61 689.5,-93.18 660,-69.05 649.79,-60.69 636.49,-55.17 624.29,-51.55"/>
<polygon fill="midnightblue" stroke="midnightblue" points="714.65,-160.17 721.37,-168.36 721.23,-157.77 714.65,-160.17"/>
</g>
<!-- Node25 -->
<g id="node25" class="node">
<title>Node25</title>
<g id="a_node25"><a xlink:href="group__models__3d__fastener__screws.html#ga316ccd977e13f1f12ecb057a6466374b" target="_top" xlink:title="Flat and beveled&#45;head screw bore with nut, nut slot, and bore tolerance.">
<polygon fill="white" stroke="black" points="554,-149.55 554,-168.55 626,-168.55 626,-149.55 554,-149.55"/>
<text text-anchor="middle" x="590" y="-156.55" font-family="Helvetica,sans-Serif" font-size="10.00">screw_bore</text>
</a>
</g>
</g>
<!-- Node1&#45;&gt;Node25 -->
<g id="edge29" class="edge">
<title>Node1&#45;&gt;Node25</title>
<path fill="none" stroke="midnightblue" d="M685.84,-172.54C667.03,-169.87 644.58,-166.67 626.25,-164.06"/>
<polygon fill="midnightblue" stroke="midnightblue" points="685.47,-176.03 695.86,-173.97 686.45,-169.1 685.47,-176.03"/>
</g>
<!-- Node3&#45;&gt;Node2 -->
<g id="edge3" class="edge">
<title>Node3&#45;&gt;Node2</title>
<path fill="none" stroke="midnightblue" d="M553.68,-319.11C522.41,-326.24 477.46,-336.5 449.13,-342.97"/>
<polygon fill="midnightblue" stroke="midnightblue" points="554.74,-322.45 563.71,-316.82 553.18,-315.63 554.74,-322.45"/>
</g>
<!-- Node4 -->
<g id="node4" class="node">
<title>Node4</title>
<g id="a_node4"><a xlink:href="group__tools__drafting__primitive.html#ga4e7c5fa02dbc244702042067553a9225" target="_top" xlink:title="Draft a simple line from an initial to a terminal point.">
<polygon fill="white" stroke="black" points="381.5,-301.55 381.5,-320.55 461.5,-320.55 461.5,-301.55 381.5,-301.55"/>
<text text-anchor="middle" x="421.5" y="-308.55" font-family="Helvetica,sans-Serif" font-size="10.00">draft_line_pp</text>
</a>
</g>
</g>
<!-- Node3&#45;&gt;Node4 -->
<g id="edge4" class="edge">
<title>Node3&#45;&gt;Node4</title>
<path fill="none" stroke="midnightblue" d="M553.56,-311.05C526.6,-311.05 489.52,-311.05 461.68,-311.05"/>
<polygon fill="midnightblue" stroke="midnightblue" points="553.71,-314.55 563.71,-311.05 553.71,-307.55 553.71,-314.55"/>
</g>
<!-- Node5 -->
<g id="node5" class="node">
<title>Node5</title>
<g id="a_node5"><a xlink:href="group__tools__drafting__primitive.html#gaeb2a388d77f8e435b02c4235e7791eda" target="_top" xlink:title="Draft an arc with configurable style and optional arrowheads.">
<polygon fill="white" stroke="black" points="136.5,-263.55 136.5,-282.55 195.5,-282.55 195.5,-263.55 136.5,-263.55"/>
<text text-anchor="middle" x="166" y="-270.55" font-family="Helvetica,sans-Serif" font-size="10.00">draft_arc</text>
</a>
</g>
</g>
<!-- Node4&#45;&gt;Node5 -->
<g id="edge5" class="edge">
<title>Node4&#45;&gt;Node5</title>
<path fill="none" stroke="midnightblue" d="M371.37,-300.76C355.93,-297.72 338.79,-294.54 323,-292.05 278.67,-285.04 226.9,-279.19 195.55,-275.91"/>
<polygon fill="midnightblue" stroke="midnightblue" points="370.75,-304.21 381.24,-302.73 372.12,-297.34 370.75,-304.21"/>
</g>
<!-- Node7 -->
<g id="node7" class="node">
<title>Node7</title>
<g id="a_node7"><a xlink:href="group__tools__drafting__primitive.html#ga6f12ccd4c9de0a8ab887184911f39c8f" target="_top" xlink:title="Draft an arrowhead at the terminal point of a line.">
<polygon fill="white" stroke="black" points="242,-301.55 242,-320.55 314,-320.55 314,-301.55 242,-301.55"/>
<text text-anchor="middle" x="278" y="-308.55" font-family="Helvetica,sans-Serif" font-size="10.00">draft_arrow</text>
</a>
</g>
</g>
<!-- Node4&#45;&gt;Node7 -->
<g id="edge7" class="edge">
<title>Node4&#45;&gt;Node7</title>
<path fill="none" stroke="midnightblue" d="M371.26,-311.05C352.41,-311.05 331.31,-311.05 314.05,-311.05"/>
<polygon fill="midnightblue" stroke="midnightblue" points="371.46,-314.55 381.46,-311.05 371.46,-307.55 371.46,-314.55"/>
</g>
<!-- Node8 -->
<g id="node8" class="node">
<title>Node8</title>
<g id="a_node8"><a xlink:href="group__tools__drafting__primitive.html#ga060910368142d6371cf4f3f30be7561e" target="_top" xlink:title="Draft a line with configurable style and optional arrowheads.">
<polygon fill="white" stroke="black" points="135,-339.55 135,-358.55 197,-358.55 197,-339.55 135,-339.55"/>
<text text-anchor="middle" x="166" y="-346.55" font-family="Helvetica,sans-Serif" font-size="10.00">draft_line</text>
</a>
</g>
</g>
<!-- Node4&#45;&gt;Node8 -->
<g id="edge19" class="edge">
<title>Node4&#45;&gt;Node8</title>
<path fill="none" stroke="midnightblue" d="M371.37,-321.33C355.93,-324.37 338.79,-327.55 323,-330.05 279.48,-336.93 228.78,-342.69 197.29,-346"/>
<polygon fill="midnightblue" stroke="midnightblue" points="372.12,-324.75 381.24,-319.36 370.75,-317.88 372.12,-324.75"/>
</g>
<!-- Node6 -->
<g id="node6" class="node">
<title>Node6</title>
<g id="a_node6"><a xlink:href="group__tools__drafting__dimension.html#ga6b8e17d22ac4a95d25a90be8a74c0689" target="_top" xlink:title="Construct a angular dimension arc.">
<polygon fill="white" stroke="black" points="2,-206.55 2,-225.55 97,-225.55 97,-206.55 2,-206.55"/>
<text text-anchor="middle" x="49.5" y="-213.55" font-family="Helvetica,sans-Serif" font-size="10.00">draft_dim_angle</text>
</a>
</g>
</g>
<!-- Node5&#45;&gt;Node6 -->
<g id="edge6" class="edge">
<title>Node5&#45;&gt;Node6</title>
<path fill="none" stroke="midnightblue" d="M141.12,-258.14C128.78,-250.74 113.34,-241.94 99,-235.05 91.99,-231.68 84.22,-228.43 76.98,-225.6"/>
<polygon fill="midnightblue" stroke="midnightblue" points="139.52,-261.27 149.88,-263.48 143.16,-255.29 139.52,-261.27"/>
</g>
<!-- Node7&#45;&gt;Node5 -->
<g id="edge8" class="edge">
<title>Node7&#45;&gt;Node5</title>
<path fill="none" stroke="midnightblue" d="M239.45,-298.07C224.8,-293.01 208.3,-287.31 194.75,-282.63"/>
<polygon fill="midnightblue" stroke="midnightblue" points="238.65,-301.5 249.24,-301.46 240.93,-294.88 238.65,-301.5"/>
</g>
<!-- Node7&#45;&gt;Node8 -->
<g id="edge9" class="edge">
<title>Node7&#45;&gt;Node8</title>
<path fill="none" stroke="midnightblue" d="M239.45,-324.02C224.8,-329.08 208.3,-334.78 194.75,-339.46"/>
<polygon fill="midnightblue" stroke="midnightblue" points="240.93,-327.21 249.24,-320.63 238.65,-320.59 240.93,-327.21"/>
</g>
<!-- Node8&#45;&gt;Node6 -->
<g id="edge11" class="edge">
<title>Node8&#45;&gt;Node6</title>
<path fill="none" stroke="midnightblue" d="M155.15,-330.52C138.82,-300.05 107.14,-242.04 99,-235.05 94.54,-231.22 89.22,-228.11 83.76,-225.6"/>
<polygon fill="midnightblue" stroke="midnightblue" points="152.06,-332.17 159.86,-339.34 158.24,-328.87 152.06,-332.17"/>
</g>
<!-- Node9 -->
<g id="node9" class="node">
<title>Node9</title>
<g id="a_node9"><a xlink:href="group__tools__drafting__operation.html#ga4e20419a6d4623f21c05179fc8b6df95" target="_top" xlink:title="Construct drafting sheet axes.">
<polygon fill="white" stroke="black" points="16,-472.55 16,-491.55 83,-491.55 83,-472.55 16,-472.55"/>
<text text-anchor="middle" x="49.5" y="-479.55" font-family="Helvetica,sans-Serif" font-size="10.00">draft_axes</text>
</a>
</g>
</g>
<!-- Node8&#45;&gt;Node9 -->
<g id="edge10" class="edge">
<title>Node8&#45;&gt;Node9</title>
<path fill="none" stroke="midnightblue" d="M158.48,-368.23C149.05,-393.27 129.36,-436.97 99,-463.05 94.34,-467.05 88.73,-470.27 83,-472.84"/>
<polygon fill="midnightblue" stroke="midnightblue" points="161.8,-369.34 161.89,-358.75 155.21,-366.97 161.8,-369.34"/>
</g>
<!-- Node10 -->
<g id="node10" class="node">
<title>Node10</title>
<g id="a_node10"><a xlink:href="group__tools__drafting__dimension.html#ga4866c090b81b437e2f1f707d28ad8ec7" target="_top" xlink:title="Construct a center mark dimension cross.">
<polygon fill="white" stroke="black" points="0,-434.55 0,-453.55 99,-453.55 99,-434.55 0,-434.55"/>
<text text-anchor="middle" x="49.5" y="-441.55" font-family="Helvetica,sans-Serif" font-size="10.00">draft_dim_center</text>
</a>
</g>
</g>
<!-- Node8&#45;&gt;Node10 -->
<g id="edge12" class="edge">
<title>Node8&#45;&gt;Node10</title>
<path fill="none" stroke="midnightblue" d="M153.07,-367.28C141.15,-384.25 121.41,-409.23 99,-425.05 93.68,-428.8 87.52,-431.95 81.4,-434.53"/>
<polygon fill="midnightblue" stroke="midnightblue" points="156.11,-369.02 158.85,-358.78 150.33,-365.08 156.11,-369.02"/>
</g>
<!-- Node11 -->
<g id="node11" class="node">
<title>Node11</title>
<g id="a_node11"><a xlink:href="group__tools__drafting__dimension.html#ga5c4915c4c4464c5cdaefd501c2de261d" target="_top" xlink:title="Construct a dimension leader line at a point.">
<polygon fill="white" stroke="black" points="0,-396.55 0,-415.55 99,-415.55 99,-396.55 0,-396.55"/>
<text text-anchor="middle" x="49.5" y="-403.55" font-family="Helvetica,sans-Serif" font-size="10.00">draft_dim_leader</text>
</a>
</g>
</g>
<!-- Node8&#45;&gt;Node11 -->
<g id="edge13" class="edge">
<title>Node8&#45;&gt;Node11</title>
<path fill="none" stroke="midnightblue" d="M141.12,-363.95C128.78,-371.35 113.34,-380.16 99,-387.05 91.99,-390.41 84.22,-393.66 76.98,-396.49"/>
<polygon fill="midnightblue" stroke="midnightblue" points="143.16,-366.8 149.88,-358.62 139.52,-360.82 143.16,-366.8"/>
</g>
<!-- Node12 -->
<g id="node12" class="node">
<title>Node12</title>
<g id="a_node12"><a xlink:href="group__tools__drafting__dimension.html#ga27a35e94597435a74e22d76789e9be5e" target="_top" xlink:title="Construct a dimension line between two points.">
<polygon fill="white" stroke="black" points="6.5,-358.55 6.5,-377.55 92.5,-377.55 92.5,-358.55 6.5,-358.55"/>
<text text-anchor="middle" x="49.5" y="-365.55" font-family="Helvetica,sans-Serif" font-size="10.00">draft_dim_line</text>
</a>
</g>
</g>
<!-- Node8&#45;&gt;Node12 -->
<g id="edge14" class="edge">
<title>Node8&#45;&gt;Node12</title>
<path fill="none" stroke="midnightblue" d="M124.89,-355.7C114.53,-357.42 103.34,-359.28 92.87,-361.02"/>
<polygon fill="midnightblue" stroke="midnightblue" points="125.62,-359.13 134.92,-354.04 124.48,-352.22 125.62,-359.13"/>
</g>
<!-- Node13 -->
<g id="node13" class="node">
<title>Node13</title>
<g id="a_node13"><a xlink:href="group__tools__drafting__dimension.html#gaef1a8150a8ef7be88e086fb3dbab64a9" target="_top" xlink:title="Construct a radial dimension line.">
<polygon fill="white" stroke="black" points="0.5,-320.55 0.5,-339.55 98.5,-339.55 98.5,-320.55 0.5,-320.55"/>
<text text-anchor="middle" x="49.5" y="-327.55" font-family="Helvetica,sans-Serif" font-size="10.00">draft_dim_radius</text>
</a>
</g>
</g>
<!-- Node8&#45;&gt;Node13 -->
<g id="edge15" class="edge">
<title>Node8&#45;&gt;Node13</title>
<path fill="none" stroke="midnightblue" d="M124.87,-342.39C116.37,-340.98 107.31,-339.47 98.54,-338.02"/>
<polygon fill="midnightblue" stroke="midnightblue" points="124.48,-345.87 134.92,-344.05 125.62,-338.96 124.48,-345.87"/>
</g>
<!-- Node14 -->
<g id="node14" class="node">
<title>Node14</title>
<g id="a_node14"><a xlink:href="group__tools__drafting__primitive.html#gada1e771ce89ef86b6241c43dc01bf62d" target="_top" xlink:title="Draft a polygon with configurable style.">
<polygon fill="white" stroke="black" points="8,-282.55 8,-301.55 91,-301.55 91,-282.55 8,-282.55"/>
<text text-anchor="middle" x="49.5" y="-289.55" font-family="Helvetica,sans-Serif" font-size="10.00">draft_polygon</text>
</a>
</g>
</g>
<!-- Node8&#45;&gt;Node14 -->
<g id="edge16" class="edge">
<title>Node8&#45;&gt;Node14</title>
<path fill="none" stroke="midnightblue" d="M141.12,-334.14C128.78,-326.74 113.34,-317.94 99,-311.05 91.99,-307.68 84.22,-304.43 76.98,-301.6"/>
<polygon fill="midnightblue" stroke="midnightblue" points="139.52,-337.27 149.88,-339.48 143.16,-331.29 139.52,-337.27"/>
</g>
<!-- Node15 -->
<g id="node15" class="node">
<title>Node15</title>
<g id="a_node15"><a xlink:href="group__tools__drafting__primitive.html#ga20eb57e9d25186784df7428089e3a2ae" target="_top" xlink:title="Draft a rectangle with configurable style.">
<polygon fill="white" stroke="black" points="4.5,-244.55 4.5,-263.55 94.5,-263.55 94.5,-244.55 4.5,-244.55"/>
<text text-anchor="middle" x="49.5" y="-251.55" font-family="Helvetica,sans-Serif" font-size="10.00">draft_rectangle</text>
</a>
</g>
</g>
<!-- Node8&#45;&gt;Node15 -->
<g id="edge17" class="edge">
<title>Node8&#45;&gt;Node15</title>
<path fill="none" stroke="midnightblue" d="M153.07,-330.82C141.15,-313.85 121.41,-288.86 99,-273.05 93.68,-269.29 87.52,-266.15 81.4,-263.56"/>
<polygon fill="midnightblue" stroke="midnightblue" points="150.33,-333.02 158.85,-339.31 156.11,-329.07 150.33,-333.02"/>
</g>
<!-- Node16 -->
<g id="node16" class="node">
<title>Node16</title>
<g id="a_node16"><a xlink:href="group__tools__drafting__operation.html#ga49aac81a903cd453ea9cadc85e84e414" target="_top" xlink:title="Construct a drafting sheet ruler.">
<polygon fill="white" stroke="black" points="16,-510.55 16,-529.55 83,-529.55 83,-510.55 16,-510.55"/>
<text text-anchor="middle" x="49.5" y="-517.55" font-family="Helvetica,sans-Serif" font-size="10.00">draft_ruler</text>
</a>
</g>
</g>
<!-- Node8&#45;&gt;Node16 -->
<g id="edge18" class="edge">
<title>Node8&#45;&gt;Node16</title>
<path fill="none" stroke="midnightblue" d="M161.54,-368.56C154.92,-400.45 137.53,-463.89 99,-501.05 94.51,-505.38 88.91,-508.75 83.14,-511.38"/>
<polygon fill="midnightblue" stroke="midnightblue" points="164.99,-369.17 163.45,-358.69 158.11,-367.84 164.99,-369.17"/>
</g>
<!-- Node21 -->
<g id="node21" class="node">
<title>Node21</title>
<g id="a_node21"><a xlink:href="group__parts__3d__enclosure__power__strip.html#ga191779dedf39e4fd769a8dc96b0f8c9e" target="_top" xlink:title="A power strip generator for single gang electrical receptacles.">
<polygon fill="white" stroke="black" points="233,-111.55 233,-130.55 323,-130.55 323,-111.55 233,-111.55"/>
<text text-anchor="middle" x="278" y="-118.55" font-family="Helvetica,sans-Serif" font-size="10.00">power_strip_sg</text>
</a>
</g>
</g>
<!-- Node20&#45;&gt;Node21 -->
<g id="edge24" class="edge">
<title>Node20&#45;&gt;Node21</title>
<path fill="none" stroke="midnightblue" d="M377.45,-94.61C357.28,-100.02 333.55,-106.4 314.44,-111.53"/>
<polygon fill="midnightblue" stroke="midnightblue" points="378.57,-97.93 387.32,-91.95 376.76,-91.17 378.57,-97.93"/>
</g>
<!-- Node23&#45;&gt;Node21 -->
<g id="edge27" class="edge">
<title>Node23&#45;&gt;Node21</title>
<path fill="none" stroke="midnightblue" d="M395.51,-40.97C384.25,-47.83 370.84,-56.18 359,-64.05 334.85,-80.09 307.5,-99.96 291.84,-111.5"/>
<polygon fill="midnightblue" stroke="midnightblue" points="397.65,-43.77 404.39,-35.6 394.02,-37.78 397.65,-43.77"/>
</g>
<!-- Node25&#45;&gt;Node17 -->
<g id="edge30" class="edge">
<title>Node25&#45;&gt;Node17</title>
<path fill="none" stroke="midnightblue" d="M544.1,-167.59C535.75,-170.22 527.35,-173.63 520,-178.05 500.05,-190.02 502.05,-201.36 484,-216.05 470.37,-227.13 453.25,-237.46 440.54,-244.54"/>
<polygon fill="midnightblue" stroke="midnightblue" points="545.15,-170.93 553.82,-164.84 543.24,-164.19 545.15,-170.93"/>
</g>
<!-- Node25&#45;&gt;Node21 -->
<g id="edge33" class="edge">
<title>Node25&#45;&gt;Node21</title>
<path fill="none" stroke="midnightblue" d="M543.74,-149.97C525.27,-146.5 503.67,-142.73 484,-140.05 428.75,-132.5 364.71,-127.1 323.11,-124.02"/>
<polygon fill="midnightblue" stroke="midnightblue" points="543.16,-153.42 553.64,-151.86 544.48,-146.55 543.16,-153.42"/>
</g>
<!-- Node26 -->
<g id="node26" class="node">
<title>Node26</title>
<g id="a_node26"><a xlink:href="group__parts__3d__enclosure__clamps.html#ga8fd874789132e42e5470328d18560f1a" target="_top" xlink:title="A clamp, bushing, and/or grip for wire/hose wall penetrations.">
<polygon fill="white" stroke="black" points="390,-187.55 390,-206.55 453,-206.55 453,-187.55 390,-187.55"/>
<text text-anchor="middle" x="421.5" y="-194.55" font-family="Helvetica,sans-Serif" font-size="10.00">clamp_cg</text>
</a>
</g>
</g>
<!-- Node25&#45;&gt;Node26 -->
<g id="edge31" class="edge">
<title>Node25&#45;&gt;Node26</title>
<path fill="none" stroke="midnightblue" d="M543.85,-169.35C515.03,-175.93 478.44,-184.28 453.01,-190.08"/>
<polygon fill="midnightblue" stroke="midnightblue" points="544.72,-172.74 553.69,-167.1 543.16,-165.92 544.72,-172.74"/>
</g>
<!-- Node27 -->
<g id="node27" class="node">
<title>Node27</title>
<g id="a_node27"><a xlink:href="group__parts__3d__enclosure__mounts.html#gacac878eda32a71cb3b1b174c9aebb56c" target="_top" xlink:title="A mount tab with screw hole and support brace.">
<polygon fill="white" stroke="black" points="370,-149.55 370,-168.55 473,-168.55 473,-149.55 370,-149.55"/>
<text text-anchor="middle" x="421.5" y="-156.55" font-family="Helvetica,sans-Serif" font-size="10.00">screw_mount_tab</text>
</a>
</g>
</g>
<!-- Node25&#45;&gt;Node27 -->
<g id="edge34" class="edge">
<title>Node25&#45;&gt;Node27</title>
<path fill="none" stroke="midnightblue" d="M543.4,-159.05C521.67,-159.05 495.6,-159.05 473.24,-159.05"/>
<polygon fill="midnightblue" stroke="midnightblue" points="543.69,-162.55 553.69,-159.05 543.69,-155.55 543.69,-162.55"/>
</g>
<!-- Node26&#45;&gt;Node21 -->
<g id="edge32" class="edge">
<title>Node26&#45;&gt;Node21</title>
<path fill="none" stroke="midnightblue" d="M380.08,-186.59C372.9,-184.16 365.61,-181.32 359,-178.05 332.25,-164.81 304.69,-143.04 289.92,-130.58"/>
<polygon fill="midnightblue" stroke="midnightblue" points="379.14,-189.96 389.73,-189.63 381.24,-183.28 379.14,-189.96"/>
</g>
<!-- Node27&#45;&gt;Node21 -->
<g id="edge35" class="edge">
<title>Node27&#45;&gt;Node21</title>
<path fill="none" stroke="midnightblue" d="M374.9,-146.8C355.39,-141.56 332.96,-135.54 314.7,-130.63"/>
<polygon fill="midnightblue" stroke="midnightblue" points="374.23,-150.24 384.79,-149.46 376.04,-143.48 374.23,-150.24"/>
</g>
</g>
</svg>
