<?xml version="1.0" encoding="UTF-8" standalone="no"?>
<!DOCTYPE svg PUBLIC "-//W3C//DTD SVG 1.1//EN"
 "http://www.w3.org/Graphics/SVG/1.1/DTD/svg11.dtd">
<!-- Generated by graphviz version 2.43.0 (0)
 -->
<!-- Title: third Pages: 1 -->
<svg width="334pt" height="218pt"
 viewBox="0.00 0.00 334.00 218.00" xmlns="http://www.w3.org/2000/svg" xmlns:xlink="http://www.w3.org/1999/xlink">
<g id="graph0" class="graph" transform="scale(1 1) rotate(0) translate(4 214)">
<title>third</title>
<polygon fill="white" stroke="transparent" points="-4,4 -4,-214 330,-214 330,4 -4,4"/>
<!-- Node1 -->
<g id="node1" class="node">
<title>Node1</title>
<g id="a_node1"><a xlink:title="Return the third element of an iterable value.">
<polygon fill="#bfbfbf" stroke="black" points="287,-95.5 287,-114.5 326,-114.5 326,-95.5 287,-95.5"/>
<text text-anchor="middle" x="306.5" y="-102.5" font-family="Helvetica,sans-Serif" font-size="10.00">third</text>
</a>
</g>
</g>
<!-- Node2 -->
<g id="node2" class="node">
<title>Node2</title>
<g id="a_node2"><a xlink:href="group__parts__3d__fastener__catch__latch.html#gaa90b197081dba0e1fbe7c92aa4079279" target="_top" xlink:title="A catch latch generator.">
<polygon fill="white" stroke="black" points="152.5,-190.5 152.5,-209.5 224.5,-209.5 224.5,-190.5 152.5,-190.5"/>
<text text-anchor="middle" x="188.5" y="-197.5" font-family="Helvetica,sans-Serif" font-size="10.00">catch_latch</text>
</a>
</g>
</g>
<!-- Node1&#45;&gt;Node2 -->
<g id="edge1" class="edge">
<title>Node1&#45;&gt;Node2</title>
<path fill="none" stroke="midnightblue" d="M296.51,-123.85C287.36,-141.11 271.6,-166.17 251,-181 243.2,-186.62 233.7,-190.6 224.52,-193.42"/>
<polygon fill="midnightblue" stroke="midnightblue" points="299.74,-125.22 301.13,-114.72 293.49,-122.07 299.74,-125.22"/>
</g>
<!-- Node3 -->
<g id="node3" class="node">
<title>Node3</title>
<g id="a_node3"><a xlink:href="group__tools__drafting__operation.html#ga4e20419a6d4623f21c05179fc8b6df95" target="_top" xlink:title="Construct drafting sheet axes.">
<polygon fill="white" stroke="black" points="155,-152.5 155,-171.5 222,-171.5 222,-152.5 155,-152.5"/>
<text text-anchor="middle" x="188.5" y="-159.5" font-family="Helvetica,sans-Serif" font-size="10.00">draft_axes</text>
</a>
</g>
</g>
<!-- Node1&#45;&gt;Node3 -->
<g id="edge2" class="edge">
<title>Node1&#45;&gt;Node3</title>
<path fill="none" stroke="midnightblue" d="M286.01,-120.81C276,-128.33 263.35,-136.97 251,-143 241.96,-147.41 231.68,-151.07 222.14,-153.96"/>
<polygon fill="midnightblue" stroke="midnightblue" points="288.28,-123.47 294.04,-114.58 283.99,-117.94 288.28,-123.47"/>
</g>
<!-- Node4 -->
<g id="node4" class="node">
<title>Node4</title>
<g id="a_node4"><a xlink:href="group__tools__drafting__dimension.html#ga6b8e17d22ac4a95d25a90be8a74c0689" target="_top" xlink:title="Construct a angular dimension arc.">
<polygon fill="white" stroke="black" points="141,-114.5 141,-133.5 236,-133.5 236,-114.5 141,-114.5"/>
<text text-anchor="middle" x="188.5" y="-121.5" font-family="Helvetica,sans-Serif" font-size="10.00">draft_dim_angle</text>
</a>
</g>
</g>
<!-- Node1&#45;&gt;Node4 -->
<g id="edge3" class="edge">
<title>Node1&#45;&gt;Node4</title>
<path fill="none" stroke="midnightblue" d="M276.77,-109.71C264.51,-111.71 249.87,-114.11 236.13,-116.36"/>
<polygon fill="midnightblue" stroke="midnightblue" points="277.56,-113.12 286.86,-108.05 276.43,-106.22 277.56,-113.12"/>
</g>
<!-- Node5 -->
<g id="node5" class="node">
<title>Node5</title>
<g id="a_node5"><a xlink:href="group__models__3d__misc__omdl__logo.html#gab176f64dad7e83d4fb056be44b71f630" target="_top" xlink:title="Standard omdl logo.">
<polygon fill="white" stroke="black" points="154.5,-76.5 154.5,-95.5 222.5,-95.5 222.5,-76.5 154.5,-76.5"/>
<text text-anchor="middle" x="188.5" y="-83.5" font-family="Helvetica,sans-Serif" font-size="10.00">omdl_logo</text>
</a>
</g>
</g>
<!-- Node1&#45;&gt;Node5 -->
<g id="edge4" class="edge">
<title>Node1&#45;&gt;Node5</title>
<path fill="none" stroke="midnightblue" d="M276.77,-100.29C260.35,-97.6 239.7,-94.22 222.6,-91.42"/>
<polygon fill="midnightblue" stroke="midnightblue" points="276.43,-103.78 286.86,-101.95 277.56,-96.88 276.43,-103.78"/>
</g>
<!-- Node6 -->
<g id="node6" class="node">
<title>Node6</title>
<g id="a_node6"><a xlink:href="group__parts__3d__enclosure__power__strip.html#ga191779dedf39e4fd769a8dc96b0f8c9e" target="_top" xlink:title="A power strip generator for single gang electrical receptacles.">
<polygon fill="white" stroke="black" points="0,-38.5 0,-57.5 90,-57.5 90,-38.5 0,-38.5"/>
<text text-anchor="middle" x="45" y="-45.5" font-family="Helvetica,sans-Serif" font-size="10.00">power_strip_sg</text>
</a>
</g>
</g>
<!-- Node1&#45;&gt;Node6 -->
<g id="edge6" class="edge">
<title>Node1&#45;&gt;Node6</title>
<path fill="none" stroke="midnightblue" d="M287.25,-88.68C277.26,-80.72 264.24,-71.84 251,-67 198.13,-47.66 132.72,-44.93 90.21,-45.69"/>
<polygon fill="midnightblue" stroke="midnightblue" points="285.26,-91.58 295.18,-95.31 289.75,-86.21 285.26,-91.58"/>
</g>
<!-- Node7 -->
<g id="node7" class="node">
<title>Node7</title>
<g id="a_node7"><a xlink:href="group__parts__3d__enclosure__project__box__rectangle.html#ga6a5d093d732e65556c46252220f2c4b6" target="_top" xlink:title="A rectangular box maker for project boxes, enclosures and housings.">
<polygon fill="white" stroke="black" points="126,-0.5 126,-19.5 251,-19.5 251,-0.5 126,-0.5"/>
<text text-anchor="middle" x="188.5" y="-7.5" font-family="Helvetica,sans-Serif" font-size="10.00">project_box_rectangle</text>
</a>
</g>
</g>
<!-- Node1&#45;&gt;Node7 -->
<g id="edge7" class="edge">
<title>Node1&#45;&gt;Node7</title>
<path fill="none" stroke="midnightblue" d="M295.25,-86.51C285.64,-70.66 269.93,-48.22 251,-34 242.93,-27.94 233.15,-23.22 223.77,-19.62"/>
<polygon fill="midnightblue" stroke="midnightblue" points="292.36,-88.51 300.42,-95.38 298.41,-84.98 292.36,-88.51"/>
</g>
<!-- Node5&#45;&gt;Node6 -->
<g id="edge5" class="edge">
<title>Node5&#45;&gt;Node6</title>
<path fill="none" stroke="midnightblue" d="M144.45,-74.44C124.28,-69.02 100.55,-62.65 81.44,-57.52"/>
<polygon fill="midnightblue" stroke="midnightblue" points="143.76,-77.88 154.32,-77.09 145.57,-71.12 143.76,-77.88"/>
</g>
<!-- Node7&#45;&gt;Node6 -->
<g id="edge8" class="edge">
<title>Node7&#45;&gt;Node6</title>
<path fill="none" stroke="midnightblue" d="M141.9,-22.25C122.39,-27.48 99.96,-33.51 81.7,-38.41"/>
<polygon fill="midnightblue" stroke="midnightblue" points="143.04,-25.56 151.79,-19.59 141.23,-18.8 143.04,-25.56"/>
</g>
</g>
</svg>
