<?xml version="1.0" encoding="UTF-8" standalone="no"?>
<!DOCTYPE svg PUBLIC "-//W3C//DTD SVG 1.1//EN"
 "http://www.w3.org/Graphics/SVG/1.1/DTD/svg11.dtd">
<!-- Generated by graphviz version 2.43.0 (0)
 -->
<!-- Title: Utility_Pipe Pages: 1 -->
<svg width="253pt" height="138pt"
 viewBox="0.00 0.00 253.00 138.00" xmlns="http://www.w3.org/2000/svg" xmlns:xlink="http://www.w3.org/1999/xlink">
<g id="graph0" class="graph" transform="scale(1 1) rotate(0) translate(4 134)">
<title>Utility_Pipe</title>
<polygon fill="white" stroke="transparent" points="-4,4 -4,-134 249,-134 249,4 -4,4"/>
<!-- Node5 -->
<g id="node1" class="node">
<title>Node5</title>
<g id="a_node1"><a xlink:href="group__database__component__structural__utility__pipe__pvc.html" target="_top" xlink:title="[utility_pipe] Polyvinyl chloride pipe; pvc; sch40 sch80 sch120.">
<polygon fill="white" stroke="black" points="244,-130 210,-130 210,-111 244,-111 244,-130"/>
<text text-anchor="middle" x="227" y="-118" font-family="Helvetica,sans-Serif" font-size="10.00">pvc</text>
</a>
</g>
</g>
<!-- Node4 -->
<g id="node2" class="node">
<title>Node4</title>
<g id="a_node2"><a xlink:href="group__database__component__structural__utility__pipe__ip.html" target="_top" xlink:title="[utility_pipe] Iron pipe; ip; steel.">
<polygon fill="white" stroke="black" points="241.5,-93 212.5,-93 212.5,-74 241.5,-74 241.5,-93"/>
<text text-anchor="middle" x="227" y="-81" font-family="Helvetica,sans-Serif" font-size="10.00">ip</text>
</a>
</g>
</g>
<!-- Node6 -->
<g id="node3" class="node">
<title>Node6</title>
<g id="a_node3"><a xlink:href="group__database__component__structural__utility__pipe__rsc.html" target="_top" xlink:title="[utility_pipe] Rigid steel conduit; rsc; heavy wall.">
<polygon fill="white" stroke="black" points="242.5,-56 211.5,-56 211.5,-37 242.5,-37 242.5,-56"/>
<text text-anchor="middle" x="227" y="-44" font-family="Helvetica,sans-Serif" font-size="10.00">rsc</text>
</a>
</g>
</g>
<!-- Node3 -->
<g id="node4" class="node">
<title>Node3</title>
<g id="a_node4"><a xlink:href="group__database__component__structural__utility__pipe__emt.html" target="_top" xlink:title="[utility_pipe] Electrical metalic conduit; emt; thin wall.">
<polygon fill="white" stroke="black" points="245,-19 209,-19 209,0 245,0 245,-19"/>
<text text-anchor="middle" x="227" y="-7" font-family="Helvetica,sans-Serif" font-size="10.00">emt</text>
</a>
</g>
</g>
<!-- Node1 -->
<g id="node5" class="node">
<title>Node1</title>
<g id="a_node5"><a xlink:title=" ">
<polygon fill="#bfbfbf" stroke="black" points="173,-74 100,-74 100,-55 173,-55 173,-74"/>
<text text-anchor="middle" x="136.5" y="-62" font-family="Helvetica,sans-Serif" font-size="10.00">Utility_Pipe</text>
</a>
</g>
</g>
<!-- Node1&#45;&gt;Node5 -->
<g id="edge4" class="edge">
<title>Node1&#45;&gt;Node5</title>
<path fill="none" stroke="black" d="M161.57,-79.73C177.25,-89.65 197.24,-102.3 210.76,-110.86"/>
<polygon fill="black" stroke="black" points="163.24,-76.64 152.92,-74.25 159.49,-82.56 163.24,-76.64"/>
</g>
<!-- Node1&#45;&gt;Node4 -->
<g id="edge3" class="edge">
<title>Node1&#45;&gt;Node4</title>
<path fill="none" stroke="black" d="M183.07,-74.28C193.82,-76.59 204.47,-78.88 212.47,-80.6"/>
<polygon fill="black" stroke="black" points="183.75,-70.85 173.24,-72.17 182.28,-77.69 183.75,-70.85"/>
</g>
<!-- Node1&#45;&gt;Node6 -->
<g id="edge5" class="edge">
<title>Node1&#45;&gt;Node6</title>
<path fill="none" stroke="black" d="M183.29,-55.19C193.38,-53.13 203.37,-51.1 211.15,-49.52"/>
<polygon fill="black" stroke="black" points="182.34,-51.81 173.24,-57.23 183.74,-58.67 182.34,-51.81"/>
</g>
<!-- Node1&#45;&gt;Node3 -->
<g id="edge2" class="edge">
<title>Node1&#45;&gt;Node3</title>
<path fill="none" stroke="black" d="M161.51,-49.58C177.09,-39.9 196.93,-27.57 210.46,-19.16"/>
<polygon fill="black" stroke="black" points="159.56,-46.67 152.92,-54.92 163.26,-52.61 159.56,-46.67"/>
</g>
<!-- Node2 -->
<g id="node6" class="node">
<title>Node2</title>
<g id="a_node6"><a xlink:href="group__database__component__structural.html" target="_top" xlink:title="Structural component specifications.">
<polygon fill="white" stroke="black" points="64,-74 0,-74 0,-55 64,-55 64,-74"/>
<text text-anchor="middle" x="32" y="-62" font-family="Helvetica,sans-Serif" font-size="10.00">Structural</text>
</a>
</g>
</g>
<!-- Node2&#45;&gt;Node1 -->
<g id="edge1" class="edge">
<title>Node2&#45;&gt;Node1</title>
<path fill="none" stroke="black" d="M74.17,-64.5C82.69,-64.5 91.6,-64.5 99.9,-64.5"/>
<polygon fill="black" stroke="black" points="74.03,-61 64.03,-64.5 74.03,-68 74.03,-61"/>
</g>
</g>
</svg>
