<?xml version="1.0" encoding="UTF-8" standalone="no"?>
<!DOCTYPE svg PUBLIC "-//W3C//DTD SVG 1.1//EN"
 "http://www.w3.org/Graphics/SVG/1.1/DTD/svg11.dtd">
<!-- Generated by graphviz version 2.43.0 (0)
 -->
<!-- Title: extrude_linear_mss Pages: 1 -->
<svg width="423pt" height="218pt"
 viewBox="0.00 0.00 423.00 218.00" xmlns="http://www.w3.org/2000/svg" xmlns:xlink="http://www.w3.org/1999/xlink">
<g id="graph0" class="graph" transform="scale(1 1) rotate(0) translate(4 214)">
<title>extrude_linear_mss</title>
<polygon fill="white" stroke="transparent" points="-4,4 -4,-214 419,-214 419,4 -4,4"/>
<!-- Node1 -->
<g id="node1" class="node">
<title>Node1</title>
<g id="a_node1"><a xlink:title="Linearly extrude a 2d shape with multi&#45;segment uniformly&#45;spaced profile scaling.">
<polygon fill="#bfbfbf" stroke="black" points="302,-95.5 302,-114.5 415,-114.5 415,-95.5 302,-95.5"/>
<text text-anchor="middle" x="358.5" y="-102.5" font-family="Helvetica,sans-Serif" font-size="10.00">extrude_linear_mss</text>
</a>
</g>
</g>
<!-- Node2 -->
<g id="node2" class="node">
<title>Node2</title>
<g id="a_node2"><a xlink:href="group__parts__3d__fastener__catch__latch.html#gaa90b197081dba0e1fbe7c92aa4079279" target="_top" xlink:title="A catch latch generator.">
<polygon fill="white" stroke="black" points="160,-190.5 160,-209.5 232,-209.5 232,-190.5 160,-190.5"/>
<text text-anchor="middle" x="196" y="-197.5" font-family="Helvetica,sans-Serif" font-size="10.00">catch_latch</text>
</a>
</g>
</g>
<!-- Node1&#45;&gt;Node2 -->
<g id="edge1" class="edge">
<title>Node1&#45;&gt;Node2</title>
<path fill="none" stroke="midnightblue" d="M341.6,-121.9C324.48,-139.15 295.69,-165.51 266,-181 255.54,-186.46 243.34,-190.48 232.13,-193.39"/>
<polygon fill="midnightblue" stroke="midnightblue" points="344.14,-124.31 348.6,-114.69 339.12,-119.43 344.14,-124.31"/>
</g>
<!-- Node3 -->
<g id="node3" class="node">
<title>Node3</title>
<g id="a_node3"><a xlink:href="group__parts__3d__enclosure__clamps.html#ga8fd874789132e42e5470328d18560f1a" target="_top" xlink:title="A clamp, bushing, and/or grip for wire/hose wall penetrations.">
<polygon fill="white" stroke="black" points="164.5,-152.5 164.5,-171.5 227.5,-171.5 227.5,-152.5 164.5,-152.5"/>
<text text-anchor="middle" x="196" y="-159.5" font-family="Helvetica,sans-Serif" font-size="10.00">clamp_cg</text>
</a>
</g>
</g>
<!-- Node1&#45;&gt;Node3 -->
<g id="edge2" class="edge">
<title>Node1&#45;&gt;Node3</title>
<path fill="none" stroke="midnightblue" d="M327.47,-118.59C309.79,-126.3 286.86,-135.83 266,-143 253.66,-147.24 239.84,-151.2 227.82,-154.39"/>
<polygon fill="midnightblue" stroke="midnightblue" points="328.97,-121.75 336.71,-114.51 326.15,-115.34 328.97,-121.75"/>
</g>
<!-- Node5 -->
<g id="node5" class="node">
<title>Node5</title>
<g id="a_node5"><a xlink:href="group__parts__3d__bearing__bearing__linear__rod.html#ga48399d5e708b4894494c69b2d1e88e26" target="_top" xlink:title="Transform 2d or 3d shape into a linear rod ball or sled bearing.">
<polygon fill="white" stroke="black" points="126,-114.5 126,-133.5 266,-133.5 266,-114.5 126,-114.5"/>
<text text-anchor="middle" x="196" y="-121.5" font-family="Helvetica,sans-Serif" font-size="10.00">make_bearing_linear_rod</text>
</a>
</g>
</g>
<!-- Node1&#45;&gt;Node5 -->
<g id="edge4" class="edge">
<title>Node1&#45;&gt;Node5</title>
<path fill="none" stroke="midnightblue" d="M291.68,-112.79C283.27,-113.79 274.63,-114.81 266.16,-115.81"/>
<polygon fill="midnightblue" stroke="midnightblue" points="292.3,-116.24 301.82,-111.59 291.47,-109.29 292.3,-116.24"/>
</g>
<!-- Node6 -->
<g id="node6" class="node">
<title>Node6</title>
<g id="a_node6"><a xlink:href="group__models__3d__misc__omdl__logo.html#gab176f64dad7e83d4fb056be44b71f630" target="_top" xlink:title="Standard omdl logo.">
<polygon fill="white" stroke="black" points="162,-76.5 162,-95.5 230,-95.5 230,-76.5 162,-76.5"/>
<text text-anchor="middle" x="196" y="-83.5" font-family="Helvetica,sans-Serif" font-size="10.00">omdl_logo</text>
</a>
</g>
</g>
<!-- Node1&#45;&gt;Node6 -->
<g id="edge5" class="edge">
<title>Node1&#45;&gt;Node6</title>
<path fill="none" stroke="midnightblue" d="M291.86,-97.23C270.62,-94.71 247.97,-92.03 230.13,-89.92"/>
<polygon fill="midnightblue" stroke="midnightblue" points="291.47,-100.71 301.82,-98.41 292.3,-93.76 291.47,-100.71"/>
</g>
<!-- Node7 -->
<g id="node7" class="node">
<title>Node7</title>
<g id="a_node7"><a xlink:href="group__parts__3d__computer__pci__bracket.html#gaf56631cf80d8e5f0b77736b17b94ecd9" target="_top" xlink:title="PCI slot cover and adapter card bracket generator.">
<polygon fill="white" stroke="black" points="160,-38.5 160,-57.5 232,-57.5 232,-38.5 160,-38.5"/>
<text text-anchor="middle" x="196" y="-45.5" font-family="Helvetica,sans-Serif" font-size="10.00">pci_bracket</text>
</a>
</g>
</g>
<!-- Node1&#45;&gt;Node7 -->
<g id="edge7" class="edge">
<title>Node1&#45;&gt;Node7</title>
<path fill="none" stroke="midnightblue" d="M327.47,-91.41C309.79,-83.7 286.86,-74.17 266,-67 255.07,-63.24 242.98,-59.71 232.01,-56.73"/>
<polygon fill="midnightblue" stroke="midnightblue" points="326.15,-94.66 336.71,-95.49 328.97,-88.25 326.15,-94.66"/>
</g>
<!-- Node8 -->
<g id="node8" class="node">
<title>Node8</title>
<g id="a_node8"><a xlink:href="group__parts__3d__enclosure__project__box__rectangle.html#ga6a5d093d732e65556c46252220f2c4b6" target="_top" xlink:title="A rectangular box maker for project boxes, enclosures and housings.">
<polygon fill="white" stroke="black" points="133.5,-0.5 133.5,-19.5 258.5,-19.5 258.5,-0.5 133.5,-0.5"/>
<text text-anchor="middle" x="196" y="-7.5" font-family="Helvetica,sans-Serif" font-size="10.00">project_box_rectangle</text>
</a>
</g>
</g>
<!-- Node1&#45;&gt;Node8 -->
<g id="edge8" class="edge">
<title>Node1&#45;&gt;Node8</title>
<path fill="none" stroke="midnightblue" d="M341.6,-88.1C324.48,-70.85 295.69,-44.49 266,-29 258.73,-25.21 250.62,-22.11 242.59,-19.59"/>
<polygon fill="midnightblue" stroke="midnightblue" points="339.12,-90.57 348.6,-95.31 344.14,-85.69 339.12,-90.57"/>
</g>
<!-- Node4 -->
<g id="node4" class="node">
<title>Node4</title>
<g id="a_node4"><a xlink:href="group__parts__3d__enclosure__power__strip.html#ga191779dedf39e4fd769a8dc96b0f8c9e" target="_top" xlink:title="A power strip generator for single gang electrical receptacles.">
<polygon fill="white" stroke="black" points="0,-76.5 0,-95.5 90,-95.5 90,-76.5 0,-76.5"/>
<text text-anchor="middle" x="45" y="-83.5" font-family="Helvetica,sans-Serif" font-size="10.00">power_strip_sg</text>
</a>
</g>
</g>
<!-- Node3&#45;&gt;Node4 -->
<g id="edge3" class="edge">
<title>Node3&#45;&gt;Node4</title>
<path fill="none" stroke="midnightblue" d="M154.52,-153.4C144.93,-150.67 134.91,-147.24 126,-143 99.05,-130.18 71.56,-108.25 56.86,-95.66"/>
<polygon fill="midnightblue" stroke="midnightblue" points="153.73,-156.81 164.29,-155.99 155.52,-150.04 153.73,-156.81"/>
</g>
<!-- Node6&#45;&gt;Node4 -->
<g id="edge6" class="edge">
<title>Node6&#45;&gt;Node4</title>
<path fill="none" stroke="midnightblue" d="M151.84,-86C132.42,-86 109.52,-86 90,-86"/>
<polygon fill="midnightblue" stroke="midnightblue" points="151.93,-89.5 161.93,-86 151.93,-82.5 151.93,-89.5"/>
</g>
<!-- Node8&#45;&gt;Node4 -->
<g id="edge9" class="edge">
<title>Node8&#45;&gt;Node4</title>
<path fill="none" stroke="midnightblue" d="M141.48,-22.71C136.16,-24.57 130.91,-26.67 126,-29 99.05,-41.82 71.56,-63.75 56.86,-76.34"/>
<polygon fill="midnightblue" stroke="midnightblue" points="142.66,-26.01 151.09,-19.6 140.5,-19.35 142.66,-26.01"/>
</g>
</g>
</svg>
