<?xml version="1.0" encoding="UTF-8" standalone="no"?>
<!DOCTYPE svg PUBLIC "-//W3C//DTD SVG 1.1//EN"
 "http://www.w3.org/Graphics/SVG/1.1/DTD/svg11.dtd">
<!-- Generated by graphviz version 2.43.0 (0)
 -->
<!-- Title: Bearing Pages: 1 -->
<svg width="345pt" height="138pt"
 viewBox="0.00 0.00 345.00 138.00" xmlns="http://www.w3.org/2000/svg" xmlns:xlink="http://www.w3.org/1999/xlink">
<g id="graph0" class="graph" transform="scale(1 1) rotate(0) translate(4 134)">
<title>Bearing</title>
<polygon fill="white" stroke="transparent" points="-4,4 -4,-134 341,-134 341,4 -4,4"/>
<!-- Node1 -->
<g id="node1" class="node">
<title>Node1</title>
<g id="a_node1"><a xlink:title="Mechanical bearing specifications.">
<polygon fill="#bfbfbf" stroke="black" points="164,-74 110,-74 110,-55 164,-55 164,-74"/>
<text text-anchor="middle" x="137" y="-62" font-family="Helvetica,sans-Serif" font-size="10.00">Bearing</text>
</a>
</g>
</g>
<!-- Node5 -->
<g id="node2" class="node">
<title>Node5</title>
<g id="a_node2"><a xlink:href="group__database__component__bearing__linear__lmxuu.html" target="_top" xlink:title="[linear] Linear motion bearing; lmxuu; lm.">
<polygon fill="white" stroke="black" points="337,-130 290,-130 290,-111 337,-111 337,-130"/>
<text text-anchor="middle" x="313.5" y="-118" font-family="Helvetica,sans-Serif" font-size="10.00">lmxuu</text>
</a>
</g>
</g>
<!-- Node1&#45;&gt;Node5 -->
<g id="edge4" class="edge">
<title>Node1&#45;&gt;Node5</title>
<path fill="none" stroke="darkgreen" stroke-dasharray="5,2" d="M149.99,-74.22C158.46,-80.61 170.34,-88.66 182,-93.5 217.9,-108.4 262.88,-115.37 289.57,-118.4"/>
<text text-anchor="middle" x="227" y="-118.5" font-family="Helvetica,sans-Serif" font-size="10.00">linear_lmxuu.scad</text>
</g>
<!-- Node6 -->
<g id="node3" class="node">
<title>Node6</title>
<g id="a_node3"><a xlink:href="group__database__component__bearing__radial__ball.html" target="_top" xlink:title="[radial] Radial ball bearing; ball; rbb.">
<polygon fill="white" stroke="black" points="331,-93 296,-93 296,-74 331,-74 331,-93"/>
<text text-anchor="middle" x="313.5" y="-81" font-family="Helvetica,sans-Serif" font-size="10.00">ball</text>
</a>
</g>
</g>
<!-- Node1&#45;&gt;Node6 -->
<g id="edge5" class="edge">
<title>Node1&#45;&gt;Node6</title>
<path fill="none" stroke="darkgreen" stroke-dasharray="5,2" d="M164.12,-67.34C200.44,-71.3 265.16,-78.35 295.69,-81.67"/>
<text text-anchor="middle" x="227" y="-81.5" font-family="Helvetica,sans-Serif" font-size="10.00">radial_ball.scad</text>
</g>
<!-- Node4 -->
<g id="node4" class="node">
<title>Node4</title>
<g id="a_node4"><a xlink:href="group__database__component__bearing__Radial.html" target="_top" xlink:title=" ">
<polygon fill="white" stroke="black" points="337,-56 290,-56 290,-37 337,-37 337,-56"/>
<text text-anchor="middle" x="313.5" y="-44" font-family="Helvetica,sans-Serif" font-size="10.00">Radial</text>
</a>
</g>
</g>
<!-- Node1&#45;&gt;Node4 -->
<g id="edge3" class="edge">
<title>Node1&#45;&gt;Node4</title>
<path fill="none" stroke="black" d="M174.34,-60.75C209.12,-57.16 260.5,-51.86 289.81,-48.84"/>
<polygon fill="black" stroke="black" points="173.71,-57.3 164.12,-61.81 174.43,-64.26 173.71,-57.3"/>
</g>
<!-- Node3 -->
<g id="node5" class="node">
<title>Node3</title>
<g id="a_node5"><a xlink:href="group__database__component__bearing__Linear.html" target="_top" xlink:title=" ">
<polygon fill="white" stroke="black" points="337,-19 290,-19 290,0 337,0 337,-19"/>
<text text-anchor="middle" x="313.5" y="-7" font-family="Helvetica,sans-Serif" font-size="10.00">Linear</text>
</a>
</g>
</g>
<!-- Node1&#45;&gt;Node3 -->
<g id="edge2" class="edge">
<title>Node1&#45;&gt;Node3</title>
<path fill="none" stroke="black" d="M171.12,-51.36C174.77,-50.01 178.46,-48.7 182,-47.5 219.33,-34.88 263.49,-22.55 289.68,-15.51"/>
<polygon fill="black" stroke="black" points="169.73,-48.14 161.61,-54.95 172.2,-54.69 169.73,-48.14"/>
</g>
<!-- Node2 -->
<g id="node6" class="node">
<title>Node2</title>
<g id="a_node6"><a xlink:href="group__database__component.html" target="_top" xlink:title="Design component specifications.">
<polygon fill="white" stroke="black" points="73,-74 0,-74 0,-55 73,-55 73,-74"/>
<text text-anchor="middle" x="36.5" y="-62" font-family="Helvetica,sans-Serif" font-size="10.00">Component</text>
</a>
</g>
</g>
<!-- Node2&#45;&gt;Node1 -->
<g id="edge1" class="edge">
<title>Node2&#45;&gt;Node1</title>
<path fill="none" stroke="black" d="M83.21,-64.5C92.32,-64.5 101.59,-64.5 109.77,-64.5"/>
<polygon fill="black" stroke="black" points="83.06,-61 73.06,-64.5 83.06,-68 83.06,-61"/>
</g>
</g>
</svg>
