<?xml version="1.0" encoding="UTF-8" standalone="no"?>
<!DOCTYPE svg PUBLIC "-//W3C//DTD SVG 1.1//EN"
 "http://www.w3.org/Graphics/SVG/1.1/DTD/svg11.dtd">
<!-- Generated by graphviz version 2.43.0 (0)
 -->
<!-- Title: sequence_ns Pages: 1 -->
<svg width="429pt" height="332pt"
 viewBox="0.00 0.00 429.00 332.00" xmlns="http://www.w3.org/2000/svg" xmlns:xlink="http://www.w3.org/1999/xlink">
<g id="graph0" class="graph" transform="scale(1 1) rotate(0) translate(4 328)">
<title>sequence_ns</title>
<polygon fill="white" stroke="transparent" points="-4,4 -4,-328 425,-328 425,4 -4,4"/>
<!-- Node1 -->
<g id="node1" class="node">
<title>Node1</title>
<g id="a_node1"><a xlink:title="Return a list of all n&#45;element sequential&#45;subsets of an iterable value.">
<polygon fill="#bfbfbf" stroke="black" points="341,-152.5 341,-171.5 421,-171.5 421,-152.5 341,-152.5"/>
<text text-anchor="middle" x="381" y="-159.5" font-family="Helvetica,sans-Serif" font-size="10.00">sequence_ns</text>
</a>
</g>
</g>
<!-- Node2 -->
<g id="node2" class="node">
<title>Node2</title>
<g id="a_node2"><a xlink:href="group__tools__drafting__primitive.html#gaeb2a388d77f8e435b02c4235e7791eda" target="_top" xlink:title="Draft an arc with configurable style and optional arrowheads.">
<polygon fill="white" stroke="black" points="136.5,-209.5 136.5,-228.5 195.5,-228.5 195.5,-209.5 136.5,-209.5"/>
<text text-anchor="middle" x="166" y="-216.5" font-family="Helvetica,sans-Serif" font-size="10.00">draft_arc</text>
</a>
</g>
</g>
<!-- Node1&#45;&gt;Node2 -->
<g id="edge1" class="edge">
<title>Node1&#45;&gt;Node2</title>
<path fill="none" stroke="midnightblue" d="M356.14,-176.67C341.81,-184.81 322.94,-194.39 305,-200 268.3,-211.47 223.95,-216.02 195.62,-217.82"/>
<polygon fill="midnightblue" stroke="midnightblue" points="357.97,-179.65 364.84,-171.59 354.44,-173.61 357.97,-179.65"/>
</g>
<!-- Node4 -->
<g id="node4" class="node">
<title>Node4</title>
<g id="a_node4"><a xlink:href="group__tools__drafting__primitive.html#ga6f12ccd4c9de0a8ab887184911f39c8f" target="_top" xlink:title="Draft an arrowhead at the terminal point of a line.">
<polygon fill="white" stroke="black" points="233,-171.5 233,-190.5 305,-190.5 305,-171.5 233,-171.5"/>
<text text-anchor="middle" x="269" y="-178.5" font-family="Helvetica,sans-Serif" font-size="10.00">draft_arrow</text>
</a>
</g>
</g>
<!-- Node1&#45;&gt;Node4 -->
<g id="edge3" class="edge">
<title>Node1&#45;&gt;Node4</title>
<path fill="none" stroke="midnightblue" d="M330.92,-170.48C322.29,-171.97 313.46,-173.49 305.3,-174.9"/>
<polygon fill="midnightblue" stroke="midnightblue" points="331.65,-173.9 340.91,-168.75 330.46,-167.01 331.65,-173.9"/>
</g>
<!-- Node5 -->
<g id="node5" class="node">
<title>Node5</title>
<g id="a_node5"><a xlink:href="group__tools__drafting__primitive.html#ga060910368142d6371cf4f3f30be7561e" target="_top" xlink:title="Draft a line with configurable style and optional arrowheads.">
<polygon fill="white" stroke="black" points="135,-152.5 135,-171.5 197,-171.5 197,-152.5 135,-152.5"/>
<text text-anchor="middle" x="166" y="-159.5" font-family="Helvetica,sans-Serif" font-size="10.00">draft_line</text>
</a>
</g>
</g>
<!-- Node1&#45;&gt;Node5 -->
<g id="edge15" class="edge">
<title>Node1&#45;&gt;Node5</title>
<path fill="none" stroke="midnightblue" d="M330.82,-162C289.57,-162 231.98,-162 197.22,-162"/>
<polygon fill="midnightblue" stroke="midnightblue" points="330.93,-165.5 340.93,-162 330.93,-158.5 330.93,-165.5"/>
</g>
<!-- Node12 -->
<g id="node12" class="node">
<title>Node12</title>
<g id="a_node12"><a xlink:href="group__tools__drafting__primitive.html#ga20eb57e9d25186784df7428089e3a2ae" target="_top" xlink:title="Draft a rectangle with configurable style.">
<polygon fill="white" stroke="black" points="4.5,-0.5 4.5,-19.5 94.5,-19.5 94.5,-0.5 4.5,-0.5"/>
<text text-anchor="middle" x="49.5" y="-7.5" font-family="Helvetica,sans-Serif" font-size="10.00">draft_rectangle</text>
</a>
</g>
</g>
<!-- Node1&#45;&gt;Node12 -->
<g id="edge16" class="edge">
<title>Node1&#45;&gt;Node12</title>
<path fill="none" stroke="midnightblue" d="M351.82,-147.87C301.52,-122.83 192.8,-69.51 99,-29 91.53,-25.77 83.32,-22.47 75.81,-19.54"/>
<polygon fill="midnightblue" stroke="midnightblue" points="350.28,-151.01 360.79,-152.35 353.4,-144.75 350.28,-151.01"/>
</g>
<!-- Node3 -->
<g id="node3" class="node">
<title>Node3</title>
<g id="a_node3"><a xlink:href="group__tools__drafting__dimension.html#ga6b8e17d22ac4a95d25a90be8a74c0689" target="_top" xlink:title="Construct a angular dimension arc.">
<polygon fill="white" stroke="black" points="2,-304.5 2,-323.5 97,-323.5 97,-304.5 2,-304.5"/>
<text text-anchor="middle" x="49.5" y="-311.5" font-family="Helvetica,sans-Serif" font-size="10.00">draft_dim_angle</text>
</a>
</g>
</g>
<!-- Node2&#45;&gt;Node3 -->
<g id="edge2" class="edge">
<title>Node2&#45;&gt;Node3</title>
<path fill="none" stroke="midnightblue" d="M153.07,-237.23C141.15,-254.2 121.41,-279.19 99,-295 93.68,-298.75 87.52,-301.9 81.4,-304.48"/>
<polygon fill="midnightblue" stroke="midnightblue" points="156.11,-238.97 158.85,-228.74 150.33,-235.03 156.11,-238.97"/>
</g>
<!-- Node4&#45;&gt;Node2 -->
<g id="edge4" class="edge">
<title>Node4&#45;&gt;Node2</title>
<path fill="none" stroke="midnightblue" d="M233.13,-194.12C219.78,-199.14 204.8,-204.78 192.48,-209.41"/>
<polygon fill="midnightblue" stroke="midnightblue" points="234.39,-197.39 242.51,-190.59 231.92,-190.83 234.39,-197.39"/>
</g>
<!-- Node4&#45;&gt;Node5 -->
<g id="edge5" class="edge">
<title>Node4&#45;&gt;Node5</title>
<path fill="none" stroke="midnightblue" d="M222.93,-172.52C214.24,-170.89 205.34,-169.21 197.27,-167.69"/>
<polygon fill="midnightblue" stroke="midnightblue" points="222.48,-176 232.96,-174.41 223.78,-169.12 222.48,-176"/>
</g>
<!-- Node5&#45;&gt;Node3 -->
<g id="edge7" class="edge">
<title>Node5&#45;&gt;Node3</title>
<path fill="none" stroke="midnightblue" d="M149.4,-179.44C144.37,-185.64 139.04,-192.86 135,-200 112.75,-239.29 130.75,-262.9 99,-295 95.18,-298.86 90.49,-301.95 85.55,-304.43"/>
<polygon fill="midnightblue" stroke="midnightblue" points="152.15,-181.61 155.95,-171.72 146.81,-177.08 152.15,-181.61"/>
</g>
<!-- Node6 -->
<g id="node6" class="node">
<title>Node6</title>
<g id="a_node6"><a xlink:href="group__tools__drafting__operation.html#ga4e20419a6d4623f21c05179fc8b6df95" target="_top" xlink:title="Construct drafting sheet axes.">
<polygon fill="white" stroke="black" points="16,-266.5 16,-285.5 83,-285.5 83,-266.5 16,-266.5"/>
<text text-anchor="middle" x="49.5" y="-273.5" font-family="Helvetica,sans-Serif" font-size="10.00">draft_axes</text>
</a>
</g>
</g>
<!-- Node5&#45;&gt;Node6 -->
<g id="edge6" class="edge">
<title>Node5&#45;&gt;Node6</title>
<path fill="none" stroke="midnightblue" d="M150.41,-179.68C145.38,-185.99 139.81,-193.21 135,-200 117.69,-224.46 122.1,-237.92 99,-257 94.33,-260.86 88.78,-264 83.13,-266.53"/>
<polygon fill="midnightblue" stroke="midnightblue" points="153.24,-181.76 156.81,-171.78 147.8,-177.35 153.24,-181.76"/>
</g>
<!-- Node7 -->
<g id="node7" class="node">
<title>Node7</title>
<g id="a_node7"><a xlink:href="group__tools__drafting__dimension.html#ga4866c090b81b437e2f1f707d28ad8ec7" target="_top" xlink:title="Construct a center mark dimension cross.">
<polygon fill="white" stroke="black" points="0,-228.5 0,-247.5 99,-247.5 99,-228.5 0,-228.5"/>
<text text-anchor="middle" x="49.5" y="-235.5" font-family="Helvetica,sans-Serif" font-size="10.00">draft_dim_center</text>
</a>
</g>
</g>
<!-- Node5&#45;&gt;Node7 -->
<g id="edge8" class="edge">
<title>Node5&#45;&gt;Node7</title>
<path fill="none" stroke="midnightblue" d="M148.9,-178.69C136.24,-191.09 117.68,-207.73 99,-219 93.04,-222.6 86.27,-225.75 79.73,-228.4"/>
<polygon fill="midnightblue" stroke="midnightblue" points="151.38,-181.16 155.97,-171.61 146.43,-176.22 151.38,-181.16"/>
</g>
<!-- Node8 -->
<g id="node8" class="node">
<title>Node8</title>
<g id="a_node8"><a xlink:href="group__tools__drafting__dimension.html#ga5c4915c4c4464c5cdaefd501c2de261d" target="_top" xlink:title="Construct a dimension leader line at a point.">
<polygon fill="white" stroke="black" points="0,-190.5 0,-209.5 99,-209.5 99,-190.5 0,-190.5"/>
<text text-anchor="middle" x="49.5" y="-197.5" font-family="Helvetica,sans-Serif" font-size="10.00">draft_dim_leader</text>
</a>
</g>
</g>
<!-- Node5&#45;&gt;Node8 -->
<g id="edge9" class="edge">
<title>Node5&#45;&gt;Node8</title>
<path fill="none" stroke="midnightblue" d="M126.35,-174.83C110.99,-179.92 93.62,-185.69 79.38,-190.41"/>
<polygon fill="midnightblue" stroke="midnightblue" points="127.72,-178.06 136.11,-171.59 125.51,-171.42 127.72,-178.06"/>
</g>
<!-- Node9 -->
<g id="node9" class="node">
<title>Node9</title>
<g id="a_node9"><a xlink:href="group__tools__drafting__dimension.html#ga27a35e94597435a74e22d76789e9be5e" target="_top" xlink:title="Construct a dimension line between two points.">
<polygon fill="white" stroke="black" points="6.5,-152.5 6.5,-171.5 92.5,-171.5 92.5,-152.5 6.5,-152.5"/>
<text text-anchor="middle" x="49.5" y="-159.5" font-family="Helvetica,sans-Serif" font-size="10.00">draft_dim_line</text>
</a>
</g>
</g>
<!-- Node5&#45;&gt;Node9 -->
<g id="edge10" class="edge">
<title>Node5&#45;&gt;Node9</title>
<path fill="none" stroke="midnightblue" d="M124.89,-162C114.53,-162 103.34,-162 92.87,-162"/>
<polygon fill="midnightblue" stroke="midnightblue" points="124.92,-165.5 134.92,-162 124.92,-158.5 124.92,-165.5"/>
</g>
<!-- Node10 -->
<g id="node10" class="node">
<title>Node10</title>
<g id="a_node10"><a xlink:href="group__tools__drafting__dimension.html#gaef1a8150a8ef7be88e086fb3dbab64a9" target="_top" xlink:title="Construct a radial dimension line.">
<polygon fill="white" stroke="black" points="0.5,-114.5 0.5,-133.5 98.5,-133.5 98.5,-114.5 0.5,-114.5"/>
<text text-anchor="middle" x="49.5" y="-121.5" font-family="Helvetica,sans-Serif" font-size="10.00">draft_dim_radius</text>
</a>
</g>
</g>
<!-- Node5&#45;&gt;Node10 -->
<g id="edge11" class="edge">
<title>Node5&#45;&gt;Node10</title>
<path fill="none" stroke="midnightblue" d="M126.35,-149.17C110.99,-144.08 93.62,-138.31 79.38,-133.59"/>
<polygon fill="midnightblue" stroke="midnightblue" points="125.51,-152.58 136.11,-152.41 127.72,-145.94 125.51,-152.58"/>
</g>
<!-- Node11 -->
<g id="node11" class="node">
<title>Node11</title>
<g id="a_node11"><a xlink:href="group__tools__drafting__primitive.html#gada1e771ce89ef86b6241c43dc01bf62d" target="_top" xlink:title="Draft a polygon with configurable style.">
<polygon fill="white" stroke="black" points="8,-76.5 8,-95.5 91,-95.5 91,-76.5 8,-76.5"/>
<text text-anchor="middle" x="49.5" y="-83.5" font-family="Helvetica,sans-Serif" font-size="10.00">draft_polygon</text>
</a>
</g>
</g>
<!-- Node5&#45;&gt;Node11 -->
<g id="edge12" class="edge">
<title>Node5&#45;&gt;Node11</title>
<path fill="none" stroke="midnightblue" d="M148.9,-145.31C136.24,-132.91 117.68,-116.27 99,-105 93.04,-101.4 86.27,-98.25 79.73,-95.6"/>
<polygon fill="midnightblue" stroke="midnightblue" points="146.43,-147.78 155.97,-152.39 151.38,-142.84 146.43,-147.78"/>
</g>
<!-- Node5&#45;&gt;Node12 -->
<g id="edge13" class="edge">
<title>Node5&#45;&gt;Node12</title>
<path fill="none" stroke="midnightblue" d="M157.6,-143.08C144.52,-110.44 117.01,-45.5 99,-29 94.87,-25.21 89.89,-22.14 84.72,-19.67"/>
<polygon fill="midnightblue" stroke="midnightblue" points="154.37,-144.43 161.31,-152.43 160.87,-141.85 154.37,-144.43"/>
</g>
<!-- Node13 -->
<g id="node13" class="node">
<title>Node13</title>
<g id="a_node13"><a xlink:href="group__tools__drafting__operation.html#ga49aac81a903cd453ea9cadc85e84e414" target="_top" xlink:title="Construct a drafting sheet ruler.">
<polygon fill="white" stroke="black" points="16,-38.5 16,-57.5 83,-57.5 83,-38.5 16,-38.5"/>
<text text-anchor="middle" x="49.5" y="-45.5" font-family="Helvetica,sans-Serif" font-size="10.00">draft_ruler</text>
</a>
</g>
</g>
<!-- Node5&#45;&gt;Node13 -->
<g id="edge14" class="edge">
<title>Node5&#45;&gt;Node13</title>
<path fill="none" stroke="midnightblue" d="M156.1,-142.97C145.32,-121.77 125.27,-87.75 99,-67 94.17,-63.19 88.49,-60.06 82.74,-57.52"/>
<polygon fill="midnightblue" stroke="midnightblue" points="153.1,-144.79 160.64,-152.23 159.39,-141.71 153.1,-144.79"/>
</g>
</g>
</svg>
