<?xml version="1.0" encoding="UTF-8" standalone="no"?>
<!DOCTYPE svg PUBLIC "-//W3C//DTD SVG 1.1//EN"
 "http://www.w3.org/Graphics/SVG/1.1/DTD/svg11.dtd">
<!-- Generated by graphviz version 2.43.0 (0)
 -->
<!-- Title: draft_line Pages: 1 -->
<svg width="205pt" height="332pt"
 viewBox="0.00 0.00 205.00 332.00" xmlns="http://www.w3.org/2000/svg" xmlns:xlink="http://www.w3.org/1999/xlink">
<g id="graph0" class="graph" transform="scale(1 1) rotate(0) translate(4 328)">
<title>draft_line</title>
<polygon fill="white" stroke="transparent" points="-4,4 -4,-328 201,-328 201,4 -4,4"/>
<!-- Node1 -->
<g id="node1" class="node">
<title>Node1</title>
<g id="a_node1"><a xlink:title="Draft a line with configurable style and optional arrowheads.">
<polygon fill="#bfbfbf" stroke="black" points="135,-152.5 135,-171.5 197,-171.5 197,-152.5 135,-152.5"/>
<text text-anchor="middle" x="166" y="-159.5" font-family="Helvetica,sans-Serif" font-size="10.00">draft_line</text>
</a>
</g>
</g>
<!-- Node2 -->
<g id="node2" class="node">
<title>Node2</title>
<g id="a_node2"><a xlink:href="group__tools__drafting__operation.html#ga4e20419a6d4623f21c05179fc8b6df95" target="_top" xlink:title="Construct drafting sheet axes.">
<polygon fill="white" stroke="black" points="16,-304.5 16,-323.5 83,-323.5 83,-304.5 16,-304.5"/>
<text text-anchor="middle" x="49.5" y="-311.5" font-family="Helvetica,sans-Serif" font-size="10.00">draft_axes</text>
</a>
</g>
</g>
<!-- Node1&#45;&gt;Node2 -->
<g id="edge1" class="edge">
<title>Node1&#45;&gt;Node2</title>
<path fill="none" stroke="midnightblue" d="M160.06,-181.87C151.96,-210.58 133.23,-263.64 99,-295 94.47,-299.15 88.92,-302.44 83.22,-305.03"/>
<polygon fill="midnightblue" stroke="midnightblue" points="163.54,-182.4 162.74,-171.84 156.78,-180.6 163.54,-182.4"/>
</g>
<!-- Node3 -->
<g id="node3" class="node">
<title>Node3</title>
<g id="a_node3"><a xlink:href="group__tools__drafting__dimension.html#ga6b8e17d22ac4a95d25a90be8a74c0689" target="_top" xlink:title="Construct a angular dimension arc.">
<polygon fill="white" stroke="black" points="2,-266.5 2,-285.5 97,-285.5 97,-266.5 2,-266.5"/>
<text text-anchor="middle" x="49.5" y="-273.5" font-family="Helvetica,sans-Serif" font-size="10.00">draft_dim_angle</text>
</a>
</g>
</g>
<!-- Node1&#45;&gt;Node3 -->
<g id="edge2" class="edge">
<title>Node1&#45;&gt;Node3</title>
<path fill="none" stroke="midnightblue" d="M156.1,-181.03C145.32,-202.23 125.27,-236.25 99,-257 94.17,-260.81 88.49,-263.94 82.74,-266.48"/>
<polygon fill="midnightblue" stroke="midnightblue" points="159.39,-182.29 160.64,-171.77 153.1,-179.21 159.39,-182.29"/>
</g>
<!-- Node4 -->
<g id="node4" class="node">
<title>Node4</title>
<g id="a_node4"><a xlink:href="group__tools__drafting__dimension.html#ga4866c090b81b437e2f1f707d28ad8ec7" target="_top" xlink:title="Construct a center mark dimension cross.">
<polygon fill="white" stroke="black" points="0,-228.5 0,-247.5 99,-247.5 99,-228.5 0,-228.5"/>
<text text-anchor="middle" x="49.5" y="-235.5" font-family="Helvetica,sans-Serif" font-size="10.00">draft_dim_center</text>
</a>
</g>
</g>
<!-- Node1&#45;&gt;Node4 -->
<g id="edge3" class="edge">
<title>Node1&#45;&gt;Node4</title>
<path fill="none" stroke="midnightblue" d="M148.9,-178.69C136.24,-191.09 117.68,-207.73 99,-219 93.04,-222.6 86.27,-225.75 79.73,-228.4"/>
<polygon fill="midnightblue" stroke="midnightblue" points="151.38,-181.16 155.97,-171.61 146.43,-176.22 151.38,-181.16"/>
</g>
<!-- Node5 -->
<g id="node5" class="node">
<title>Node5</title>
<g id="a_node5"><a xlink:href="group__tools__drafting__dimension.html#ga5c4915c4c4464c5cdaefd501c2de261d" target="_top" xlink:title="Construct a dimension leader line at a point.">
<polygon fill="white" stroke="black" points="0,-190.5 0,-209.5 99,-209.5 99,-190.5 0,-190.5"/>
<text text-anchor="middle" x="49.5" y="-197.5" font-family="Helvetica,sans-Serif" font-size="10.00">draft_dim_leader</text>
</a>
</g>
</g>
<!-- Node1&#45;&gt;Node5 -->
<g id="edge4" class="edge">
<title>Node1&#45;&gt;Node5</title>
<path fill="none" stroke="midnightblue" d="M126.35,-174.83C110.99,-179.92 93.62,-185.69 79.38,-190.41"/>
<polygon fill="midnightblue" stroke="midnightblue" points="127.72,-178.06 136.11,-171.59 125.51,-171.42 127.72,-178.06"/>
</g>
<!-- Node6 -->
<g id="node6" class="node">
<title>Node6</title>
<g id="a_node6"><a xlink:href="group__tools__drafting__dimension.html#ga27a35e94597435a74e22d76789e9be5e" target="_top" xlink:title="Construct a dimension line between two points.">
<polygon fill="white" stroke="black" points="6.5,-152.5 6.5,-171.5 92.5,-171.5 92.5,-152.5 6.5,-152.5"/>
<text text-anchor="middle" x="49.5" y="-159.5" font-family="Helvetica,sans-Serif" font-size="10.00">draft_dim_line</text>
</a>
</g>
</g>
<!-- Node1&#45;&gt;Node6 -->
<g id="edge5" class="edge">
<title>Node1&#45;&gt;Node6</title>
<path fill="none" stroke="midnightblue" d="M124.89,-162C114.53,-162 103.34,-162 92.87,-162"/>
<polygon fill="midnightblue" stroke="midnightblue" points="124.92,-165.5 134.92,-162 124.92,-158.5 124.92,-165.5"/>
</g>
<!-- Node7 -->
<g id="node7" class="node">
<title>Node7</title>
<g id="a_node7"><a xlink:href="group__tools__drafting__dimension.html#gaef1a8150a8ef7be88e086fb3dbab64a9" target="_top" xlink:title="Construct a radial dimension line.">
<polygon fill="white" stroke="black" points="0.5,-114.5 0.5,-133.5 98.5,-133.5 98.5,-114.5 0.5,-114.5"/>
<text text-anchor="middle" x="49.5" y="-121.5" font-family="Helvetica,sans-Serif" font-size="10.00">draft_dim_radius</text>
</a>
</g>
</g>
<!-- Node1&#45;&gt;Node7 -->
<g id="edge6" class="edge">
<title>Node1&#45;&gt;Node7</title>
<path fill="none" stroke="midnightblue" d="M126.35,-149.17C110.99,-144.08 93.62,-138.31 79.38,-133.59"/>
<polygon fill="midnightblue" stroke="midnightblue" points="125.51,-152.58 136.11,-152.41 127.72,-145.94 125.51,-152.58"/>
</g>
<!-- Node8 -->
<g id="node8" class="node">
<title>Node8</title>
<g id="a_node8"><a xlink:href="group__tools__drafting__primitive.html#gada1e771ce89ef86b6241c43dc01bf62d" target="_top" xlink:title="Draft a polygon with configurable style.">
<polygon fill="white" stroke="black" points="8,-76.5 8,-95.5 91,-95.5 91,-76.5 8,-76.5"/>
<text text-anchor="middle" x="49.5" y="-83.5" font-family="Helvetica,sans-Serif" font-size="10.00">draft_polygon</text>
</a>
</g>
</g>
<!-- Node1&#45;&gt;Node8 -->
<g id="edge7" class="edge">
<title>Node1&#45;&gt;Node8</title>
<path fill="none" stroke="midnightblue" d="M148.9,-145.31C136.24,-132.91 117.68,-116.27 99,-105 93.04,-101.4 86.27,-98.25 79.73,-95.6"/>
<polygon fill="midnightblue" stroke="midnightblue" points="146.43,-147.78 155.97,-152.39 151.38,-142.84 146.43,-147.78"/>
</g>
<!-- Node9 -->
<g id="node9" class="node">
<title>Node9</title>
<g id="a_node9"><a xlink:href="group__tools__drafting__primitive.html#ga20eb57e9d25186784df7428089e3a2ae" target="_top" xlink:title="Draft a rectangle with configurable style.">
<polygon fill="white" stroke="black" points="4.5,-38.5 4.5,-57.5 94.5,-57.5 94.5,-38.5 4.5,-38.5"/>
<text text-anchor="middle" x="49.5" y="-45.5" font-family="Helvetica,sans-Serif" font-size="10.00">draft_rectangle</text>
</a>
</g>
</g>
<!-- Node1&#45;&gt;Node9 -->
<g id="edge8" class="edge">
<title>Node1&#45;&gt;Node9</title>
<path fill="none" stroke="midnightblue" d="M156.1,-142.97C145.32,-121.77 125.27,-87.75 99,-67 94.17,-63.19 88.49,-60.06 82.74,-57.52"/>
<polygon fill="midnightblue" stroke="midnightblue" points="153.1,-144.79 160.64,-152.23 159.39,-141.71 153.1,-144.79"/>
</g>
<!-- Node10 -->
<g id="node10" class="node">
<title>Node10</title>
<g id="a_node10"><a xlink:href="group__tools__drafting__operation.html#ga49aac81a903cd453ea9cadc85e84e414" target="_top" xlink:title="Construct a drafting sheet ruler.">
<polygon fill="white" stroke="black" points="16,-0.5 16,-19.5 83,-19.5 83,-0.5 16,-0.5"/>
<text text-anchor="middle" x="49.5" y="-7.5" font-family="Helvetica,sans-Serif" font-size="10.00">draft_ruler</text>
</a>
</g>
</g>
<!-- Node1&#45;&gt;Node10 -->
<g id="edge9" class="edge">
<title>Node1&#45;&gt;Node10</title>
<path fill="none" stroke="midnightblue" d="M160.06,-142.13C151.96,-113.42 133.23,-60.36 99,-29 94.47,-24.85 88.92,-21.56 83.22,-18.97"/>
<polygon fill="midnightblue" stroke="midnightblue" points="156.78,-143.4 162.74,-152.16 163.54,-141.6 156.78,-143.4"/>
</g>
</g>
</svg>
