<?xml version="1.0" encoding="UTF-8" standalone="no"?>
<!DOCTYPE svg PUBLIC "-//W3C//DTD SVG 1.1//EN"
 "http://www.w3.org/Graphics/SVG/1.1/DTD/svg11.dtd">
<!-- Generated by graphviz version 2.43.0 (0)
 -->
<!-- Title: 3d Parts Pages: 1 -->
<svg width="242pt" height="138pt"
 viewBox="0.00 0.00 242.00 138.00" xmlns="http://www.w3.org/2000/svg" xmlns:xlink="http://www.w3.org/1999/xlink">
<g id="graph0" class="graph" transform="scale(1 1) rotate(0) translate(4 134)">
<title>3d Parts</title>
<polygon fill="white" stroke="transparent" points="-4,4 -4,-134 238,-134 238,4 -4,4"/>
<!-- Node5 -->
<g id="node1" class="node">
<title>Node5</title>
<g id="a_node1"><a xlink:href="group__parts__3d__enclosure.html" target="_top" xlink:title="Project boxes, housings and enclosures.">
<polygon fill="white" stroke="black" points="233.5,-130 169.5,-130 169.5,-111 233.5,-111 233.5,-130"/>
<text text-anchor="middle" x="201.5" y="-118" font-family="Helvetica,sans-Serif" font-size="10.00">Enclosure</text>
</a>
</g>
</g>
<!-- Node1 -->
<g id="node2" class="node">
<title>Node1</title>
<g id="a_node2"><a xlink:title="3d parts, part generators, and small assemblies.">
<polygon fill="#bfbfbf" stroke="black" points="133,-74 77,-74 77,-55 133,-55 133,-74"/>
<text text-anchor="middle" x="105" y="-62" font-family="Helvetica,sans-Serif" font-size="10.00">3d Parts</text>
</a>
</g>
</g>
<!-- Node1&#45;&gt;Node5 -->
<g id="edge4" class="edge">
<title>Node1&#45;&gt;Node5</title>
<path fill="none" stroke="black" d="M130.46,-79.43C142.09,-86.49 156.22,-95 169,-102.5 173.67,-105.24 178.76,-108.17 183.46,-110.86"/>
<polygon fill="black" stroke="black" points="132.09,-76.33 121.73,-74.13 128.46,-82.32 132.09,-76.33"/>
</g>
<!-- Node6 -->
<g id="node4" class="node">
<title>Node6</title>
<g id="a_node4"><a xlink:href="group__parts__3d__fastener.html" target="_top" xlink:title="Fasteners, connectors, joiners, latches, and hinges.">
<polygon fill="white" stroke="black" points="230.5,-93 172.5,-93 172.5,-74 230.5,-74 230.5,-93"/>
<text text-anchor="middle" x="201.5" y="-81" font-family="Helvetica,sans-Serif" font-size="10.00">Fastener</text>
</a>
</g>
</g>
<!-- Node1&#45;&gt;Node6 -->
<g id="edge5" class="edge">
<title>Node1&#45;&gt;Node6</title>
<path fill="none" stroke="black" d="M142.99,-71.94C152.78,-73.91 163.19,-76 172.43,-77.86"/>
<polygon fill="black" stroke="black" points="143.57,-68.48 133.08,-69.94 142.19,-75.35 143.57,-68.48"/>
</g>
<!-- Node3 -->
<g id="node5" class="node">
<title>Node3</title>
<g id="a_node5"><a xlink:href="group__parts__3d__bearing.html" target="_top" xlink:title="Mechanical motion bearings.">
<polygon fill="white" stroke="black" points="228.5,-56 174.5,-56 174.5,-37 228.5,-37 228.5,-56"/>
<text text-anchor="middle" x="201.5" y="-44" font-family="Helvetica,sans-Serif" font-size="10.00">Bearing</text>
</a>
</g>
</g>
<!-- Node1&#45;&gt;Node3 -->
<g id="edge2" class="edge">
<title>Node1&#45;&gt;Node3</title>
<path fill="none" stroke="black" d="M143.2,-57.41C153.64,-55.43 164.75,-53.31 174.39,-51.47"/>
<polygon fill="black" stroke="black" points="142.25,-54.03 133.08,-59.34 143.56,-60.91 142.25,-54.03"/>
</g>
<!-- Node4 -->
<g id="node6" class="node">
<title>Node4</title>
<g id="a_node6"><a xlink:href="group__parts__3d__computer.html" target="_top" xlink:title="Mechanical computer parts.">
<polygon fill="white" stroke="black" points="234,-19 169,-19 169,0 234,0 234,-19"/>
<text text-anchor="middle" x="201.5" y="-7" font-family="Helvetica,sans-Serif" font-size="10.00">Computer</text>
</a>
</g>
</g>
<!-- Node1&#45;&gt;Node4 -->
<g id="edge3" class="edge">
<title>Node1&#45;&gt;Node4</title>
<path fill="none" stroke="black" d="M130.97,-49.74C142.53,-42.94 156.44,-34.78 169,-27.5 173.69,-24.78 178.78,-21.86 183.48,-19.18"/>
<polygon fill="black" stroke="black" points="129.12,-46.77 122.29,-54.86 132.68,-52.8 129.12,-46.77"/>
</g>
<!-- Node2 -->
<g id="node3" class="node">
<title>Node2</title>
<g id="a_node3"><a xlink:href="group__parts.html" target="_top" xlink:title="Design parts, generators, and small assemblies.">
<polygon fill="white" stroke="black" points="41,-74 0,-74 0,-55 41,-55 41,-74"/>
<text text-anchor="middle" x="20.5" y="-62" font-family="Helvetica,sans-Serif" font-size="10.00">Parts</text>
</a>
</g>
</g>
<!-- Node2&#45;&gt;Node1 -->
<g id="edge1" class="edge">
<title>Node2&#45;&gt;Node1</title>
<path fill="none" stroke="black" d="M51.16,-64.5C59.52,-64.5 68.57,-64.5 76.79,-64.5"/>
<polygon fill="black" stroke="black" points="51.05,-61 41.05,-64.5 51.05,-68 51.05,-61"/>
</g>
</g>
</svg>
