<?xml version="1.0" encoding="UTF-8" standalone="no"?>
<!DOCTYPE svg PUBLIC "-//W3C//DTD SVG 1.1//EN"
 "http://www.w3.org/Graphics/SVG/1.1/DTD/svg11.dtd">
<!-- Generated by graphviz version 2.43.0 (0)
 -->
<!-- Title: index_gen Pages: 1 -->
<svg width="213pt" height="104pt"
 viewBox="0.00 0.00 213.00 104.00" xmlns="http://www.w3.org/2000/svg" xmlns:xlink="http://www.w3.org/1999/xlink">
<g id="graph0" class="graph" transform="scale(1 1) rotate(0) translate(4 100)">
<title>index_gen</title>
<polygon fill="white" stroke="transparent" points="-4,4 -4,-100 209,-100 209,4 -4,4"/>
<!-- Node1 -->
<g id="node1" class="node">
<title>Node1</title>
<g id="a_node1"><a xlink:title="Create a element selection index list for a given list of values.">
<polygon fill="#bfbfbf" stroke="black" points="138,-38.5 138,-57.5 205,-57.5 205,-38.5 138,-38.5"/>
<text text-anchor="middle" x="171.5" y="-45.5" font-family="Helvetica,sans-Serif" font-size="10.00">index_gen</text>
</a>
</g>
</g>
<!-- Node2 -->
<g id="node2" class="node">
<title>Node2</title>
<g id="a_node2"><a xlink:href="group__tools__drafting__primitive.html#gada1e771ce89ef86b6241c43dc01bf62d" target="_top" xlink:title="Draft a polygon with configurable style.">
<polygon fill="white" stroke="black" points="9.5,-76.5 9.5,-95.5 92.5,-95.5 92.5,-76.5 9.5,-76.5"/>
<text text-anchor="middle" x="51" y="-83.5" font-family="Helvetica,sans-Serif" font-size="10.00">draft_polygon</text>
</a>
</g>
</g>
<!-- Node1&#45;&gt;Node2 -->
<g id="edge1" class="edge">
<title>Node1&#45;&gt;Node2</title>
<path fill="none" stroke="midnightblue" d="M130.96,-60.68C114.95,-65.81 96.77,-71.64 81.89,-76.41"/>
<polygon fill="midnightblue" stroke="midnightblue" points="132.14,-63.98 140.6,-57.59 130.01,-57.31 132.14,-63.98"/>
</g>
<!-- Node3 -->
<g id="node3" class="node">
<title>Node3</title>
<g id="a_node3"><a xlink:href="group__tools__polytope.html#ga530c86f9c90ce074aa7adc29834f0539" target="_top" xlink:title="Assemble a polytope skeletal frame using child objects.">
<polygon fill="white" stroke="black" points="4,-38.5 4,-57.5 98,-57.5 98,-38.5 4,-38.5"/>
<text text-anchor="middle" x="51" y="-45.5" font-family="Helvetica,sans-Serif" font-size="10.00">polytope_frame</text>
</a>
</g>
</g>
<!-- Node1&#45;&gt;Node3 -->
<g id="edge2" class="edge">
<title>Node1&#45;&gt;Node3</title>
<path fill="none" stroke="midnightblue" d="M127.74,-48C118.19,-48 108.02,-48 98.34,-48"/>
<polygon fill="midnightblue" stroke="midnightblue" points="127.81,-51.5 137.81,-48 127.81,-44.5 127.81,-51.5"/>
</g>
<!-- Node4 -->
<g id="node4" class="node">
<title>Node4</title>
<g id="a_node4"><a xlink:href="group__tools__polytope.html#ga00b574079f19251be7281151d11db8fa" target="_top" xlink:title="Label the vertices, paths, and edges of a polytope.">
<polygon fill="white" stroke="black" points="0,-0.5 0,-19.5 102,-19.5 102,-0.5 0,-0.5"/>
<text text-anchor="middle" x="51" y="-7.5" font-family="Helvetica,sans-Serif" font-size="10.00">polytope_number</text>
</a>
</g>
</g>
<!-- Node1&#45;&gt;Node4 -->
<g id="edge3" class="edge">
<title>Node1&#45;&gt;Node4</title>
<path fill="none" stroke="midnightblue" d="M130.96,-35.32C114.95,-30.19 96.77,-24.36 81.89,-19.59"/>
<polygon fill="midnightblue" stroke="midnightblue" points="130.01,-38.69 140.6,-38.41 132.14,-32.02 130.01,-38.69"/>
</g>
</g>
</svg>
