<?xml version="1.0" encoding="UTF-8" standalone="no"?>
<!DOCTYPE svg PUBLIC "-//W3C//DTD SVG 1.1//EN"
 "http://www.w3.org/Graphics/SVG/1.1/DTD/svg11.dtd">
<!-- Generated by graphviz version 2.43.0 (0)
 -->
<!-- Title: Extrude Pages: 1 -->
<svg width="203pt" height="29pt"
 viewBox="0.00 0.00 203.00 28.50" xmlns="http://www.w3.org/2000/svg" xmlns:xlink="http://www.w3.org/1999/xlink">
<g id="graph0" class="graph" transform="scale(1 1) rotate(0) translate(4 24.5)">
<title>Extrude</title>
<polygon fill="white" stroke="transparent" points="-4,4 -4,-24.5 199,-24.5 199,4 -4,4"/>
<!-- Node1 -->
<g id="node1" class="node">
<title>Node1</title>
<g id="a_node1"><a xlink:title="Shape extrusion tools.">
<polygon fill="#bfbfbf" stroke="black" points="54,-19 0,-19 0,0 54,0 54,-19"/>
<text text-anchor="middle" x="27" y="-7" font-family="Helvetica,sans-Serif" font-size="10.00">Extrude</text>
</a>
</g>
</g>
<!-- Node2 -->
<g id="node2" class="node">
<title>Node2</title>
<g id="a_node2"><a xlink:href="group__tools.html" target="_top" xlink:title="Tools and design components.">
<polygon fill="white" stroke="black" points="195,-19 154,-19 154,0 195,0 195,-19"/>
<text text-anchor="middle" x="174.5" y="-7" font-family="Helvetica,sans-Serif" font-size="10.00">Tools</text>
</a>
</g>
</g>
<!-- Node1&#45;&gt;Node2 -->
<g id="edge2" class="edge">
<title>Node1&#45;&gt;Node2</title>
<path fill="none" stroke="darkgreen" stroke-dasharray="5,2" d="M54.01,-9.5C82.62,-9.5 127.95,-9.5 153.78,-9.5"/>
<text text-anchor="middle" x="104" y="-12.5" font-family="Helvetica,sans-Serif" font-size="10.00">extrude.scad</text>
</g>
<!-- Node2&#45;&gt;Node1 -->
<g id="edge1" class="edge">
<title>Node2&#45;&gt;Node1</title>
<path fill="none" stroke="black" d="M143.44,-7.76C140.93,-7.65 138.42,-7.56 136,-7.5 107.57,-6.74 100.44,-6.85 72,-7.5 66.19,-7.63 59.95,-7.86 54.05,-8.12"/>
<polygon fill="black" stroke="black" points="143.5,-11.26 153.66,-8.24 143.84,-4.27 143.5,-11.26"/>
</g>
</g>
</svg>
