<?xml version="1.0" encoding="UTF-8" standalone="no"?>
<!DOCTYPE svg PUBLIC "-//W3C//DTD SVG 1.1//EN"
 "http://www.w3.org/Graphics/SVG/1.1/DTD/svg11.dtd">
<!-- Generated by graphviz version 2.43.0 (0)
 -->
<!-- Title: draft_dim_radius Pages: 1 -->
<svg width="793pt" height="1120pt"
 viewBox="0.00 0.00 793.00 1120.00" xmlns="http://www.w3.org/2000/svg" xmlns:xlink="http://www.w3.org/1999/xlink">
<g id="graph0" class="graph" transform="scale(1 1) rotate(0) translate(4 1116)">
<title>draft_dim_radius</title>
<polygon fill="white" stroke="transparent" points="-4,4 -4,-1116 789,-1116 789,4 -4,4"/>
<!-- Node1 -->
<g id="node1" class="node">
<title>Node1</title>
<g id="a_node1"><a xlink:title="Construct a radial dimension line.">
<polygon fill="#bfbfbf" stroke="black" points="0,-304.5 0,-323.5 98,-323.5 98,-304.5 0,-304.5"/>
<text text-anchor="middle" x="49" y="-311.5" font-family="Helvetica,sans-Serif" font-size="10.00">draft_dim_radius</text>
</a>
</g>
</g>
<!-- Node2 -->
<g id="node2" class="node">
<title>Node2</title>
<g id="a_node2"><a xlink:href="group__datatypes__euclidean.html#ga3d5c07c70f271bcf9144f50ce8620a89" target="_top" xlink:title="Compute the angle between two lines or vectors in a 3d or 2d&#45;space.">
<polygon fill="white" stroke="black" points="717.5,-627.5 717.5,-646.5 772.5,-646.5 772.5,-627.5 717.5,-627.5"/>
<text text-anchor="middle" x="745" y="-634.5" font-family="Helvetica,sans-Serif" font-size="10.00">angle_ll</text>
</a>
</g>
</g>
<!-- Node1&#45;&gt;Node2 -->
<g id="edge1" class="edge">
<title>Node1&#45;&gt;Node2</title>
<path fill="none" stroke="midnightblue" d="M67.5,-323.63C106.37,-344.08 203.36,-390 290.5,-390 290.5,-390 290.5,-390 460.5,-390 599.37,-390 703.2,-560.55 734.34,-618.21"/>
<polygon fill="midnightblue" stroke="midnightblue" points="731.39,-620.11 739.15,-627.32 737.57,-616.84 731.39,-620.11"/>
</g>
<!-- Node3 -->
<g id="node3" class="node">
<title>Node3</title>
<g id="a_node3"><a xlink:href="group__datatypes__iterable__operate.html#ga3d37c2b0067d1661724bd89955c8f6ce" target="_top" xlink:title="Return an element of an iterable when it exists or a default value otherwise.">
<polygon fill="white" stroke="black" points="420,-884.5 420,-903.5 499,-903.5 499,-884.5 420,-884.5"/>
<text text-anchor="middle" x="459.5" y="-891.5" font-family="Helvetica,sans-Serif" font-size="10.00">defined_e_or</text>
</a>
</g>
</g>
<!-- Node1&#45;&gt;Node3 -->
<g id="edge2" class="edge">
<title>Node1&#45;&gt;Node3</title>
<path fill="none" stroke="midnightblue" d="M50.21,-323.76C51.62,-373.42 61.92,-602.09 134,-770 165,-842.21 167.97,-877.34 238,-913 298.64,-943.88 380.91,-922.94 425.86,-907.1"/>
<polygon fill="midnightblue" stroke="midnightblue" points="427.2,-910.34 435.39,-903.62 424.8,-903.76 427.2,-910.34"/>
</g>
<!-- Node4 -->
<g id="node4" class="node">
<title>Node4</title>
<g id="a_node4"><a xlink:href="group__datatypes__scalar__operate.html#gac119300e8c83de0037f2d0a4d9f0ab5c" target="_top" xlink:title="Return given value, if defined, or a secondary value, if primary is not defined.">
<polygon fill="white" stroke="black" points="257.5,-152.5 257.5,-171.5 325.5,-171.5 325.5,-152.5 257.5,-152.5"/>
<text text-anchor="middle" x="291.5" y="-159.5" font-family="Helvetica,sans-Serif" font-size="10.00">defined_or</text>
</a>
</g>
</g>
<!-- Node1&#45;&gt;Node4 -->
<g id="edge3" class="edge">
<title>Node1&#45;&gt;Node4</title>
<path fill="none" stroke="midnightblue" d="M94.25,-304.49C127.13,-295.55 171.4,-279.35 202,-252 226.91,-229.73 213.55,-208.78 238,-186 242.08,-182.2 246.86,-178.92 251.85,-176.11"/>
<polygon fill="midnightblue" stroke="midnightblue" points="253.58,-179.16 260.96,-171.55 250.45,-172.9 253.58,-179.16"/>
</g>
<!-- Node5 -->
<g id="node5" class="node">
<title>Node5</title>
<g id="a_node5"><a xlink:href="group__datatypes__euclidean.html#gaef5b930729755b4420098776467ac210" target="_top" xlink:title="Compute the distance between two points.">
<polygon fill="white" stroke="black" points="584,-988.5 584,-1007.5 659,-1007.5 659,-988.5 584,-988.5"/>
<text text-anchor="middle" x="621.5" y="-995.5" font-family="Helvetica,sans-Serif" font-size="10.00">distance_pp</text>
</a>
</g>
</g>
<!-- Node1&#45;&gt;Node5 -->
<g id="edge4" class="edge">
<title>Node1&#45;&gt;Node5</title>
<path fill="none" stroke="midnightblue" d="M50.64,-323.75C55,-387.75 81.61,-748.17 134,-843 219.89,-998.47 469.36,-1005.52 573.73,-1001.25"/>
<polygon fill="midnightblue" stroke="midnightblue" points="574.13,-1004.73 583.96,-1000.77 573.81,-997.74 574.13,-1004.73"/>
</g>
<!-- Node6 -->
<g id="node6" class="node">
<title>Node6</title>
<g id="a_node6"><a xlink:href="group__tools__drafting__primitive.html#ga9e80066573c9e9b2b1cf6af71cf453b0" target="_top" xlink:title="Check if any identified layers are active.">
<polygon fill="white" stroke="black" points="393,-114.5 393,-133.5 526,-133.5 526,-114.5 393,-114.5"/>
<text text-anchor="middle" x="459.5" y="-121.5" font-family="Helvetica,sans-Serif" font-size="10.00">draft_layers_any_active</text>
</a>
</g>
</g>
<!-- Node1&#45;&gt;Node6 -->
<g id="edge5" class="edge">
<title>Node1&#45;&gt;Node6</title>
<path fill="none" stroke="midnightblue" d="M61.48,-304.46C77.24,-291.62 106.7,-268.51 134,-252 162.75,-234.62 178.36,-242.87 202,-219 228.3,-192.45 207.31,-164.33 238,-143 282.98,-111.75 346.23,-109.41 393.46,-113.47"/>
<polygon fill="midnightblue" stroke="midnightblue" points="393.29,-116.97 403.59,-114.46 393.97,-110.01 393.29,-116.97"/>
</g>
<!-- Node7 -->
<g id="node7" class="node">
<title>Node7</title>
<g id="a_node7"><a xlink:href="group__tools__drafting__primitive.html#ga060910368142d6371cf4f3f30be7561e" target="_top" xlink:title="Draft a line with configurable style and optional arrowheads.">
<polygon fill="white" stroke="black" points="137,-741.5 137,-760.5 199,-760.5 199,-741.5 137,-741.5"/>
<text text-anchor="middle" x="168" y="-748.5" font-family="Helvetica,sans-Serif" font-size="10.00">draft_line</text>
</a>
</g>
</g>
<!-- Node1&#45;&gt;Node7 -->
<g id="edge6" class="edge">
<title>Node1&#45;&gt;Node7</title>
<path fill="none" stroke="midnightblue" d="M52.55,-323.53C67.27,-378.5 141.33,-655.11 161.77,-731.45"/>
<polygon fill="midnightblue" stroke="midnightblue" points="158.41,-732.46 164.38,-741.22 165.18,-730.65 158.41,-732.46"/>
</g>
<!-- Node16 -->
<g id="node16" class="node">
<title>Node16</title>
<g id="a_node16"><a xlink:href="group__datatypes__euclidean.html#ga299bce4158dc8d0a7a8e7d9967b8ea4e" target="_top" xlink:title="Return the terminal point of a line or vector.">
<polygon fill="white" stroke="black" points="720,-988.5 720,-1007.5 770,-1007.5 770,-988.5 720,-988.5"/>
<text text-anchor="middle" x="745" y="-995.5" font-family="Helvetica,sans-Serif" font-size="10.00">line_tp</text>
</a>
</g>
</g>
<!-- Node1&#45;&gt;Node16 -->
<g id="edge62" class="edge">
<title>Node1&#45;&gt;Node16</title>
<path fill="none" stroke="midnightblue" d="M49.75,-323.6C48.57,-380.19 47.02,-675.06 134,-892 178.65,-1003.38 170.51,-1112 290.5,-1112 290.5,-1112 290.5,-1112 460.5,-1112 565.19,-1112 676.94,-1044.26 722.66,-1013.21"/>
<polygon fill="midnightblue" stroke="midnightblue" points="724.66,-1016.08 730.9,-1007.52 720.68,-1010.32 724.66,-1016.08"/>
</g>
<!-- Node22 -->
<g id="node22" class="node">
<title>Node22</title>
<g id="a_node22"><a xlink:href="group__datatypes__scalar__test.html#ga51d7fdb800c10f4b7479d23b89ab8d22" target="_top" xlink:title="Test if a value is defined.">
<polygon fill="white" stroke="black" points="588.5,-342.5 588.5,-361.5 654.5,-361.5 654.5,-342.5 588.5,-342.5"/>
<text text-anchor="middle" x="621.5" y="-349.5" font-family="Helvetica,sans-Serif" font-size="10.00">is_defined</text>
</a>
</g>
</g>
<!-- Node1&#45;&gt;Node22 -->
<g id="edge57" class="edge">
<title>Node1&#45;&gt;Node22</title>
<path fill="none" stroke="midnightblue" d="M85.71,-323.6C100.54,-327.18 117.99,-330.89 134,-333 297.15,-354.45 493.5,-354.27 578.21,-352.94"/>
<polygon fill="midnightblue" stroke="midnightblue" points="578.51,-356.44 588.45,-352.77 578.39,-349.44 578.51,-356.44"/>
</g>
<!-- Node23 -->
<g id="node23" class="node">
<title>Node23</title>
<g id="a_node23"><a xlink:href="group__datatypes__euclidean.html#gaa686049dfa9296b441a12e225aa1537d" target="_top" xlink:title="Construct a 2 dimensional directed line.">
<polygon fill="white" stroke="black" points="423.5,-456.5 423.5,-475.5 495.5,-475.5 495.5,-456.5 423.5,-456.5"/>
<text text-anchor="middle" x="459.5" y="-463.5" font-family="Helvetica,sans-Serif" font-size="10.00">line2d_new</text>
</a>
</g>
</g>
<!-- Node1&#45;&gt;Node23 -->
<g id="edge61" class="edge">
<title>Node1&#45;&gt;Node23</title>
<path fill="none" stroke="midnightblue" d="M54.04,-323.57C64.01,-345.95 92.07,-401.87 134,-429 220.09,-484.69 346.46,-480.17 413.26,-472.71"/>
<polygon fill="midnightblue" stroke="midnightblue" points="413.94,-476.15 423.45,-471.5 413.11,-469.2 413.94,-476.15"/>
</g>
<!-- Node29 -->
<g id="node29" class="node">
<title>Node29</title>
<g id="a_node29"><a xlink:href="group__tools__drafting__primitive.html#ga9a4b6eb4b387537f7bc1cc6c4d8f4449" target="_top" xlink:title="Extrude 2D drafted constructions to 3D if configured.">
<polygon fill="white" stroke="black" points="381,-418.5 381,-437.5 538,-437.5 538,-418.5 381,-418.5"/>
<text text-anchor="middle" x="459.5" y="-425.5" font-family="Helvetica,sans-Serif" font-size="10.00">draft_make_3d_if_configured</text>
</a>
</g>
</g>
<!-- Node1&#45;&gt;Node29 -->
<g id="edge42" class="edge">
<title>Node1&#45;&gt;Node29</title>
<path fill="none" stroke="midnightblue" d="M55.45,-323.53C67.05,-342.76 96.22,-385.9 134,-404 208.62,-439.76 304.09,-442.45 372.12,-438.21"/>
<polygon fill="midnightblue" stroke="midnightblue" points="372.63,-441.69 382.37,-437.51 372.15,-434.7 372.63,-441.69"/>
</g>
<!-- Node30 -->
<g id="node30" class="node">
<title>Node30</title>
<g id="a_node30"><a xlink:href="group__tools__drafting__operation.html#gac1b780633ac5e2874a8a00177d98b305" target="_top" xlink:title="Construct a text note with optional heading and boarder.">
<polygon fill="white" stroke="black" points="135,-304.5 135,-323.5 201,-323.5 201,-304.5 135,-304.5"/>
<text text-anchor="middle" x="168" y="-311.5" font-family="Helvetica,sans-Serif" font-size="10.00">draft_note</text>
</a>
</g>
</g>
<!-- Node1&#45;&gt;Node30 -->
<g id="edge44" class="edge">
<title>Node1&#45;&gt;Node30</title>
<path fill="none" stroke="midnightblue" d="M98.26,-314C107.04,-314 116.12,-314 124.71,-314"/>
<polygon fill="midnightblue" stroke="midnightblue" points="124.87,-317.5 134.87,-314 124.87,-310.5 124.87,-317.5"/>
</g>
<!-- Node36 -->
<g id="node36" class="node">
<title>Node36</title>
<g id="a_node36"><a xlink:href="group__datatypes__iterable__test.html#gaba1e87e102e1f9231ba30b43c8caa947" target="_top" xlink:title="Test if an iterable value is empty.">
<polygon fill="white" stroke="black" points="137,-190.5 137,-209.5 199,-209.5 199,-190.5 137,-190.5"/>
<text text-anchor="middle" x="168" y="-197.5" font-family="Helvetica,sans-Serif" font-size="10.00">is_empty</text>
</a>
</g>
</g>
<!-- Node1&#45;&gt;Node36 -->
<g id="edge58" class="edge">
<title>Node1&#45;&gt;Node36</title>
<path fill="none" stroke="midnightblue" d="M58.03,-304.23C72.38,-287.07 103.75,-250.77 134,-224 137.22,-221.15 140.77,-218.3 144.32,-215.61"/>
<polygon fill="midnightblue" stroke="midnightblue" points="146.39,-218.43 152.41,-209.71 142.27,-212.77 146.39,-218.43"/>
</g>
<!-- Node37 -->
<g id="node37" class="node">
<title>Node37</title>
<g id="a_node37"><a xlink:href="group__datatypes__scalar__test.html#gac47a7785d144083733c43327ea092e1d" target="_top" xlink:title="Test if a value is a number.">
<polygon fill="white" stroke="black" points="134,-152.5 134,-171.5 202,-171.5 202,-152.5 134,-152.5"/>
<text text-anchor="middle" x="168" y="-159.5" font-family="Helvetica,sans-Serif" font-size="10.00">is_number</text>
</a>
</g>
</g>
<!-- Node1&#45;&gt;Node37 -->
<g id="edge59" class="edge">
<title>Node1&#45;&gt;Node37</title>
<path fill="none" stroke="midnightblue" d="M54.17,-304.2C64.62,-280.53 94,-219.39 134,-181 135.28,-179.77 136.65,-178.59 138.08,-177.47"/>
<polygon fill="midnightblue" stroke="midnightblue" points="140.41,-180.12 146.72,-171.6 136.48,-174.33 140.41,-180.12"/>
</g>
<!-- Node38 -->
<g id="node38" class="node">
<title>Node38</title>
<g id="a_node38"><a xlink:href="group__units__length.html#ga4e8b3884a104d09e926928dcedd30d03" target="_top" xlink:title="Convert a value from from one units to another with dimensions.">
<polygon fill="white" stroke="black" points="144.5,-114.5 144.5,-133.5 191.5,-133.5 191.5,-114.5 144.5,-114.5"/>
<text text-anchor="middle" x="168" y="-121.5" font-family="Helvetica,sans-Serif" font-size="10.00">length</text>
</a>
</g>
</g>
<!-- Node1&#45;&gt;Node38 -->
<g id="edge60" class="edge">
<title>Node1&#45;&gt;Node38</title>
<path fill="none" stroke="midnightblue" d="M52.56,-304.33C60.41,-276.29 86.53,-193.7 134,-143 135.18,-141.74 136.46,-140.54 137.82,-139.4"/>
<polygon fill="midnightblue" stroke="midnightblue" points="139.96,-142.17 146.09,-133.53 135.91,-136.46 139.96,-142.17"/>
</g>
<!-- Node39 -->
<g id="node39" class="node">
<title>Node39</title>
<g id="a_node39"><a xlink:href="group__datatypes__list__operate.html#ga0af5678e346d62c1163afbfb604ab62a" target="_top" xlink:title="Round a list of numbers to a fixed number of decimal point digits.">
<polygon fill="white" stroke="black" points="140,-76.5 140,-95.5 196,-95.5 196,-76.5 140,-76.5"/>
<text text-anchor="middle" x="168" y="-83.5" font-family="Helvetica,sans-Serif" font-size="10.00">round_d</text>
</a>
</g>
</g>
<!-- Node1&#45;&gt;Node39 -->
<g id="edge63" class="edge">
<title>Node1&#45;&gt;Node39</title>
<path fill="none" stroke="midnightblue" d="M51.61,-304.07C57.29,-271.78 79.12,-168.18 134,-105 135,-103.85 136.09,-102.75 137.25,-101.7"/>
<polygon fill="midnightblue" stroke="midnightblue" points="139.59,-104.32 145.54,-95.56 135.42,-98.69 139.59,-104.32"/>
</g>
<!-- Node40 -->
<g id="node40" class="node">
<title>Node40</title>
<g id="a_node40"><a xlink:href="group__datatypes__list__operate.html#gab8c413e8ab85026e681a97cee974aae1" target="_top" xlink:title="Round a list of numbers to a fixed number of significant figures.">
<polygon fill="white" stroke="black" points="140.5,-38.5 140.5,-57.5 195.5,-57.5 195.5,-38.5 140.5,-38.5"/>
<text text-anchor="middle" x="168" y="-45.5" font-family="Helvetica,sans-Serif" font-size="10.00">round_s</text>
</a>
</g>
</g>
<!-- Node1&#45;&gt;Node40 -->
<g id="edge64" class="edge">
<title>Node1&#45;&gt;Node40</title>
<path fill="none" stroke="midnightblue" d="M50.86,-304.33C54.47,-268.76 71.29,-143.27 134,-67 134.94,-65.85 135.98,-64.76 137.08,-63.72"/>
<polygon fill="midnightblue" stroke="midnightblue" points="139.22,-66.49 145.05,-57.64 134.97,-60.92 139.22,-66.49"/>
</g>
<!-- Node41 -->
<g id="node41" class="node">
<title>Node41</title>
<g id="a_node41"><a xlink:href="group__datatypes__iterable__operate.html#ga894d4bec62cc9cf38d5e099de3028c54" target="_top" xlink:title="Return the second element of an iterable value.">
<polygon fill="white" stroke="black" points="142.5,-0.5 142.5,-19.5 193.5,-19.5 193.5,-0.5 142.5,-0.5"/>
<text text-anchor="middle" x="168" y="-7.5" font-family="Helvetica,sans-Serif" font-size="10.00">second</text>
</a>
</g>
</g>
<!-- Node1&#45;&gt;Node41 -->
<g id="edge65" class="edge">
<title>Node1&#45;&gt;Node41</title>
<path fill="none" stroke="midnightblue" d="M50.32,-304.5C52.1,-265.88 63.43,-118.53 134,-29 134.92,-27.83 135.93,-26.72 137.02,-25.67"/>
<polygon fill="midnightblue" stroke="midnightblue" points="139.17,-28.43 144.93,-19.54 134.88,-22.9 139.17,-28.43"/>
</g>
<!-- Node7&#45;&gt;Node2 -->
<g id="edge8" class="edge">
<title>Node7&#45;&gt;Node2</title>
<path fill="none" stroke="midnightblue" d="M181.89,-741.28C195.15,-731.93 216.81,-718.45 238,-713 284.06,-701.16 297.97,-705.97 345,-713 361.55,-715.47 364.45,-721.53 381,-724 507.69,-742.92 552.99,-767.32 669,-713 696.16,-700.28 718.95,-673.28 732.04,-655.13"/>
<polygon fill="midnightblue" stroke="midnightblue" points="735.16,-656.78 737.98,-646.57 729.4,-652.8 735.16,-656.78"/>
</g>
<!-- Node7&#45;&gt;Node3 -->
<g id="edge9" class="edge">
<title>Node7&#45;&gt;Node3</title>
<path fill="none" stroke="midnightblue" d="M170.53,-760.81C175.18,-786.82 191.76,-857.59 238,-887 289.94,-920.03 363.56,-914.35 411.18,-905.54"/>
<polygon fill="midnightblue" stroke="midnightblue" points="412.08,-908.93 421.22,-903.57 410.73,-902.06 412.08,-908.93"/>
</g>
<!-- Node8 -->
<g id="node8" class="node">
<title>Node8</title>
<g id="a_node8"><a xlink:href="group__datatypes__iterable__test.html#ga4dfc58aa5f208e103e622684db817ce6" target="_top" xlink:title="Test if all elements of an iterable value equal a comparison value.">
<polygon fill="white" stroke="black" points="261,-722.5 261,-741.5 322,-741.5 322,-722.5 261,-722.5"/>
<text text-anchor="middle" x="291.5" y="-729.5" font-family="Helvetica,sans-Serif" font-size="10.00">all_equal</text>
</a>
</g>
</g>
<!-- Node7&#45;&gt;Node8 -->
<g id="edge7" class="edge">
<title>Node7&#45;&gt;Node8</title>
<path fill="none" stroke="midnightblue" d="M199.03,-746.3C214.63,-743.86 233.89,-740.85 250.71,-738.22"/>
<polygon fill="midnightblue" stroke="midnightblue" points="251.47,-741.65 260.81,-736.64 250.39,-734.73 251.47,-741.65"/>
</g>
<!-- Node9 -->
<g id="node9" class="node">
<title>Node9</title>
<g id="a_node9"><a xlink:href="group__tools__drafting__primitive.html#ga6f12ccd4c9de0a8ab887184911f39c8f" target="_top" xlink:title="Draft an arrowhead at the terminal point of a line.">
<polygon fill="white" stroke="black" points="255.5,-570.5 255.5,-589.5 327.5,-589.5 327.5,-570.5 255.5,-570.5"/>
<text text-anchor="middle" x="291.5" y="-577.5" font-family="Helvetica,sans-Serif" font-size="10.00">draft_arrow</text>
</a>
</g>
</g>
<!-- Node7&#45;&gt;Node9 -->
<g id="edge10" class="edge">
<title>Node7&#45;&gt;Node9</title>
<path fill="none" stroke="midnightblue" d="M174.48,-741.38C185.64,-722.02 212.15,-677.2 238,-642 249.53,-626.3 263.9,-609.49 274.69,-597.34"/>
<polygon fill="midnightblue" stroke="midnightblue" points="277.44,-599.53 281.51,-589.75 272.23,-594.85 277.44,-599.53"/>
</g>
<!-- Node11 -->
<g id="node11" class="node">
<title>Node11</title>
<g id="a_node11"><a xlink:href="group__tools__drafting__config.html#gabb4fa7092928ba8803b550ac6d733f64" target="_top" xlink:title="Get drafting configuration default helper function.">
<polygon fill="white" stroke="black" points="574,-684.5 574,-703.5 669,-703.5 669,-684.5 574,-684.5"/>
<text text-anchor="middle" x="621.5" y="-691.5" font-family="Helvetica,sans-Serif" font-size="10.00">draft_get_config</text>
</a>
</g>
</g>
<!-- Node7&#45;&gt;Node11 -->
<g id="edge33" class="edge">
<title>Node7&#45;&gt;Node11</title>
<path fill="none" stroke="midnightblue" d="M174.72,-741.3C184.98,-724.97 208.23,-692.58 238,-680 281.8,-661.49 299.62,-665.79 345,-680 363.59,-685.82 362.41,-699.18 381,-705 447.59,-725.85 468.38,-709.62 538,-705 546.39,-704.44 555.24,-703.57 563.89,-702.55"/>
<polygon fill="midnightblue" stroke="midnightblue" points="564.43,-706.01 573.92,-701.31 563.57,-699.07 564.43,-706.01"/>
</g>
<!-- Node12 -->
<g id="node12" class="node">
<title>Node12</title>
<g id="a_node12"><a xlink:href="group__tools__drafting__primitive.html#ga4e7c5fa02dbc244702042067553a9225" target="_top" xlink:title="Draft a simple line from an initial to a terminal point.">
<polygon fill="white" stroke="black" points="419.5,-836.5 419.5,-855.5 499.5,-855.5 499.5,-836.5 419.5,-836.5"/>
<text text-anchor="middle" x="459.5" y="-843.5" font-family="Helvetica,sans-Serif" font-size="10.00">draft_line_pp</text>
</a>
</g>
</g>
<!-- Node7&#45;&gt;Node12 -->
<g id="edge34" class="edge">
<title>Node7&#45;&gt;Node12</title>
<path fill="none" stroke="midnightblue" d="M171.39,-760.67C177.67,-783.77 197.09,-841.94 238,-865 298.06,-898.85 382.25,-875.92 427.24,-859.17"/>
<polygon fill="midnightblue" stroke="midnightblue" points="428.68,-862.37 436.75,-855.5 426.16,-855.83 428.68,-862.37"/>
</g>
<!-- Node15 -->
<g id="node15" class="node">
<title>Node15</title>
<g id="a_node15"><a xlink:href="group__datatypes__euclidean.html#ga8115b05f16bcc197e3e339a65f4d3e49" target="_top" xlink:title="Return the initial point of a line or vector.">
<polygon fill="white" stroke="black" points="720.5,-912.5 720.5,-931.5 769.5,-931.5 769.5,-912.5 720.5,-912.5"/>
<text text-anchor="middle" x="745" y="-919.5" font-family="Helvetica,sans-Serif" font-size="10.00">line_ip</text>
</a>
</g>
</g>
<!-- Node7&#45;&gt;Node15 -->
<g id="edge36" class="edge">
<title>Node7&#45;&gt;Node15</title>
<path fill="none" stroke="midnightblue" d="M169.65,-760.5C172.21,-789.45 184.26,-876.78 238,-913 388.01,-1014.08 624,-958.4 710.66,-932.72"/>
<polygon fill="midnightblue" stroke="midnightblue" points="711.91,-936 720.47,-929.75 709.89,-929.3 711.91,-936"/>
</g>
<!-- Node7&#45;&gt;Node16 -->
<g id="edge37" class="edge">
<title>Node7&#45;&gt;Node16</title>
<path fill="none" stroke="midnightblue" d="M169.26,-760.59C170.67,-792.6 179.74,-896.74 238,-949 258.85,-967.7 555.01,-1015.29 574,-1017 616.05,-1020.78 627.1,-1022.22 669,-1017 682.67,-1015.3 697.43,-1011.91 710.21,-1008.46"/>
<polygon fill="midnightblue" stroke="midnightblue" points="711.29,-1011.79 719.97,-1005.71 709.4,-1005.05 711.29,-1011.79"/>
</g>
<!-- Node7&#45;&gt;Node23 -->
<g id="edge35" class="edge">
<title>Node7&#45;&gt;Node23</title>
<path fill="none" stroke="midnightblue" d="M168.72,-741.35C168.23,-705.95 171.52,-582.03 238,-519 262.88,-495.41 355.96,-479.39 412.93,-471.55"/>
<polygon fill="midnightblue" stroke="midnightblue" points="413.68,-474.99 423.12,-470.19 412.75,-468.05 413.68,-474.99"/>
</g>
<!-- Node25 -->
<g id="node25" class="node">
<title>Node25</title>
<g id="a_node25"><a xlink:href="group__datatypes__iterable__operate.html#gadb933df06b10d64dda8823069bdc84b7" target="_top" xlink:title="Return a list of all n&#45;element sequential&#45;subsets of an iterable value.">
<polygon fill="white" stroke="black" points="419.5,-494.5 419.5,-513.5 499.5,-513.5 499.5,-494.5 419.5,-494.5"/>
<text text-anchor="middle" x="459.5" y="-501.5" font-family="Helvetica,sans-Serif" font-size="10.00">sequence_ns</text>
</a>
</g>
</g>
<!-- Node7&#45;&gt;Node25 -->
<g id="edge41" class="edge">
<title>Node7&#45;&gt;Node25</title>
<path fill="none" stroke="midnightblue" d="M169.49,-741.43C171.6,-710.41 182.6,-611.7 238,-561 262.83,-538.27 352.18,-520.56 409.24,-511.25"/>
<polygon fill="midnightblue" stroke="midnightblue" points="409.82,-514.7 419.15,-509.66 408.72,-507.79 409.82,-514.7"/>
</g>
<!-- Node26 -->
<g id="node26" class="node">
<title>Node26</title>
<g id="a_node26"><a xlink:href="group__datatypes__list__operate.html#gac9437fd7e3cb8797fa5e901b2ab6e58a" target="_top" xlink:title="Serially merge the elements of a list.">
<polygon fill="white" stroke="black" points="262,-836.5 262,-855.5 321,-855.5 321,-836.5 262,-836.5"/>
<text text-anchor="middle" x="291.5" y="-843.5" font-family="Helvetica,sans-Serif" font-size="10.00">merge_s</text>
</a>
</g>
</g>
<!-- Node7&#45;&gt;Node26 -->
<g id="edge38" class="edge">
<title>Node7&#45;&gt;Node26</title>
<path fill="none" stroke="midnightblue" d="M175.3,-760.54C186.26,-776.45 210.32,-808.45 238,-827 242.37,-829.93 247.24,-832.47 252.21,-834.65"/>
<polygon fill="midnightblue" stroke="midnightblue" points="251.19,-838.01 261.77,-838.42 253.76,-831.5 251.19,-838.01"/>
</g>
<!-- Node27 -->
<g id="node27" class="node">
<title>Node27</title>
<g id="a_node27"><a xlink:href="group__math__polygon.html#gad35e17240bf9f3e0de4481ec467d599f" target="_top" xlink:title="Compute coordinates along a line in 2D.">
<polygon fill="white" stroke="black" points="246.5,-798.5 246.5,-817.5 336.5,-817.5 336.5,-798.5 246.5,-798.5"/>
<text text-anchor="middle" x="291.5" y="-805.5" font-family="Helvetica,sans-Serif" font-size="10.00">polygon_line_p</text>
</a>
</g>
</g>
<!-- Node7&#45;&gt;Node27 -->
<g id="edge39" class="edge">
<title>Node7&#45;&gt;Node27</title>
<path fill="none" stroke="midnightblue" d="M184.81,-760.63C198.56,-768.79 219.19,-780.48 238,-789 242.46,-791.02 247.2,-792.98 251.93,-794.83"/>
<polygon fill="midnightblue" stroke="midnightblue" points="250.97,-798.21 261.57,-798.44 253.43,-791.65 250.97,-798.21"/>
</g>
<!-- Node28 -->
<g id="node28" class="node">
<title>Node28</title>
<g id="a_node28"><a xlink:href="group__math__polygon.html#ga6aea22d31f8f086c44c7241eee3ab4c2" target="_top" xlink:title="Compute coordinates for an n&#45;sided regular polygon in 2D.">
<polygon fill="white" stroke="black" points="238,-760.5 238,-779.5 345,-779.5 345,-760.5 238,-760.5"/>
<text text-anchor="middle" x="291.5" y="-767.5" font-family="Helvetica,sans-Serif" font-size="10.00">polygon_regular_p</text>
</a>
</g>
</g>
<!-- Node7&#45;&gt;Node28 -->
<g id="edge40" class="edge">
<title>Node7&#45;&gt;Node28</title>
<path fill="none" stroke="midnightblue" d="M199.03,-755.7C207.78,-757.06 217.69,-758.61 227.66,-760.17"/>
<polygon fill="midnightblue" stroke="midnightblue" points="227.2,-763.64 237.63,-761.73 228.29,-756.73 227.2,-763.64"/>
</g>
<!-- Node9&#45;&gt;Node2 -->
<g id="edge11" class="edge">
<title>Node9&#45;&gt;Node2</title>
<path fill="none" stroke="midnightblue" d="M327.58,-581.55C375.33,-583.93 463.39,-589.26 538,-599 597.84,-606.81 666.66,-620.46 707.67,-629.1"/>
<polygon fill="midnightblue" stroke="midnightblue" points="706.97,-632.53 717.48,-631.18 708.42,-625.68 706.97,-632.53"/>
</g>
<!-- Node9&#45;&gt;Node3 -->
<g id="edge13" class="edge">
<title>Node9&#45;&gt;Node3</title>
<path fill="none" stroke="midnightblue" d="M326.58,-589.58C333.64,-593.05 340.33,-597.73 345,-604 414.89,-697.96 307.83,-773.57 381,-865 388.36,-874.2 398.95,-880.48 409.96,-884.76"/>
<polygon fill="midnightblue" stroke="midnightblue" points="409.06,-888.16 419.66,-888.04 411.31,-881.53 409.06,-888.16"/>
</g>
<!-- Node10 -->
<g id="node10" class="node">
<title>Node10</title>
<g id="a_node10"><a xlink:href="group__datatypes__binary.html#ga7ce4ed94d9b389ff817ea219918b8732" target="_top" xlink:title="Test if a binary bit position of an integer value equals a test bit.">
<polygon fill="white" stroke="black" points="420,-646.5 420,-665.5 499,-665.5 499,-646.5 420,-646.5"/>
<text text-anchor="middle" x="459.5" y="-653.5" font-family="Helvetica,sans-Serif" font-size="10.00">binary_bit_is</text>
</a>
</g>
</g>
<!-- Node9&#45;&gt;Node10 -->
<g id="edge12" class="edge">
<title>Node9&#45;&gt;Node10</title>
<path fill="none" stroke="midnightblue" d="M317.65,-589.59C326.61,-593.49 336.56,-598.41 345,-604 363.09,-615.99 361.86,-626.76 381,-637 389.89,-641.75 399.98,-645.34 409.88,-648.04"/>
<polygon fill="midnightblue" stroke="midnightblue" points="409.11,-651.45 419.66,-650.45 410.79,-644.66 409.11,-651.45"/>
</g>
<!-- Node9&#45;&gt;Node11 -->
<g id="edge14" class="edge">
<title>Node9&#45;&gt;Node11</title>
<path fill="none" stroke="midnightblue" d="M322.44,-589.55C330.45,-593.15 338.64,-597.89 345,-604 370.52,-628.51 351.61,-655.31 381,-675 434.93,-711.13 511.8,-710.36 563.79,-704.19"/>
<polygon fill="midnightblue" stroke="midnightblue" points="564.37,-707.65 573.84,-702.9 563.47,-700.7 564.37,-707.65"/>
</g>
<!-- Node9&#45;&gt;Node12 -->
<g id="edge15" class="edge">
<title>Node9&#45;&gt;Node12</title>
<path fill="none" stroke="midnightblue" d="M325.27,-589.57C332.64,-593.07 339.8,-597.77 345,-604 386.7,-654 352.46,-687.48 381,-746 396.77,-778.33 424.08,-810.22 441.71,-829"/>
<polygon fill="midnightblue" stroke="midnightblue" points="439.39,-831.64 448.83,-836.44 444.44,-826.79 439.39,-831.64"/>
</g>
<!-- Node9&#45;&gt;Node16 -->
<g id="edge30" class="edge">
<title>Node9&#45;&gt;Node16</title>
<path fill="none" stroke="midnightblue" d="M327.53,-584.87C333.95,-587.1 340.15,-590.33 345,-595 382.06,-630.68 351.39,-662.93 381,-705 431.86,-777.27 472.54,-767.64 538,-827 555.23,-842.63 556.79,-849.34 574,-865 624.17,-910.64 688.37,-958.22 721.69,-982.19"/>
<polygon fill="midnightblue" stroke="midnightblue" points="720.06,-985.33 730.23,-988.3 724.13,-979.64 720.06,-985.33"/>
</g>
<!-- Node21 -->
<g id="node21" class="node">
<title>Node21</title>
<g id="a_node21"><a xlink:href="group__tools__operation__cs.html#gafa05aca176d441020de53da835e3dd60" target="_top" xlink:title="Conditionally apply the convex hull transformation.">
<polygon fill="white" stroke="black" points="434.5,-532.5 434.5,-551.5 484.5,-551.5 484.5,-532.5 434.5,-532.5"/>
<text text-anchor="middle" x="459.5" y="-539.5" font-family="Helvetica,sans-Serif" font-size="10.00">hull_cs</text>
</a>
</g>
</g>
<!-- Node9&#45;&gt;Node21 -->
<g id="edge27" class="edge">
<title>Node9&#45;&gt;Node21</title>
<path fill="none" stroke="midnightblue" d="M327.7,-571.94C356.18,-565.42 396.05,-556.29 424.27,-549.84"/>
<polygon fill="midnightblue" stroke="midnightblue" points="425.13,-553.23 434.1,-547.59 423.57,-546.41 425.13,-553.23"/>
</g>
<!-- Node9&#45;&gt;Node23 -->
<g id="edge29" class="edge">
<title>Node9&#45;&gt;Node23</title>
<path fill="none" stroke="midnightblue" d="M300.29,-570.32C318.05,-548.49 361.46,-496.46 381,-485 390.79,-479.26 402.25,-475.24 413.31,-472.44"/>
<polygon fill="midnightblue" stroke="midnightblue" points="414.31,-475.8 423.29,-470.19 412.77,-468.98 414.31,-475.8"/>
</g>
<!-- Node24 -->
<g id="node24" class="node">
<title>Node24</title>
<g id="a_node24"><a xlink:href="group__math__polygon.html#ga0e085cf8ec515dccdeff907f84fdae55" target="_top" xlink:title="Compute coordinates of an arc with constant radius between two vectors in 2D.">
<polygon fill="white" stroke="black" points="416,-608.5 416,-627.5 503,-627.5 503,-608.5 416,-608.5"/>
<text text-anchor="middle" x="459.5" y="-615.5" font-family="Helvetica,sans-Serif" font-size="10.00">polygon_arc_p</text>
</a>
</g>
</g>
<!-- Node9&#45;&gt;Node24 -->
<g id="edge31" class="edge">
<title>Node9&#45;&gt;Node24</title>
<path fill="none" stroke="midnightblue" d="M327.7,-588.06C350.73,-593.33 381.19,-600.3 406.92,-606.19"/>
<polygon fill="midnightblue" stroke="midnightblue" points="406.36,-609.66 416.89,-608.48 407.93,-602.83 406.36,-609.66"/>
</g>
<!-- Node9&#45;&gt;Node25 -->
<g id="edge32" class="edge">
<title>Node9&#45;&gt;Node25</title>
<path fill="none" stroke="midnightblue" d="M317.65,-570.41C326.61,-566.51 336.56,-561.59 345,-556 363.09,-544.01 361.86,-533.24 381,-523 389.7,-518.34 399.57,-514.81 409.27,-512.13"/>
<polygon fill="midnightblue" stroke="midnightblue" points="410.41,-515.45 419.26,-509.64 408.71,-508.66 410.41,-515.45"/>
</g>
<!-- Node12&#45;&gt;Node5 -->
<g id="edge25" class="edge">
<title>Node12&#45;&gt;Node5</title>
<path fill="none" stroke="midnightblue" d="M499.7,-853.56C513.29,-857.87 527.69,-864.59 538,-875 570.95,-908.26 543.07,-938.85 574,-974 577.05,-977.47 580.73,-980.51 584.66,-983.15"/>
<polygon fill="midnightblue" stroke="midnightblue" points="583.13,-986.31 593.53,-988.31 586.65,-980.26 583.13,-986.31"/>
</g>
<!-- Node12&#45;&gt;Node11 -->
<g id="edge26" class="edge">
<title>Node12&#45;&gt;Node11</title>
<path fill="none" stroke="midnightblue" d="M473.62,-836.48C489.45,-824.78 516.6,-804.01 538,-784 563.38,-760.27 590.08,-730.04 606,-711.35"/>
<polygon fill="midnightblue" stroke="midnightblue" points="608.73,-713.54 612.52,-703.65 603.39,-709.02 608.73,-713.54"/>
</g>
<!-- Node13 -->
<g id="node13" class="node">
<title>Node13</title>
<g id="a_node13"><a xlink:href="group__tools__align.html#ga7a21147611850c6cae7e95d23417099b" target="_top" xlink:title="Align a line or vector to a reference line or vector.">
<polygon fill="white" stroke="black" points="595.5,-836.5 595.5,-855.5 647.5,-855.5 647.5,-836.5 595.5,-836.5"/>
<text text-anchor="middle" x="621.5" y="-843.5" font-family="Helvetica,sans-Serif" font-size="10.00">align_ll</text>
</a>
</g>
</g>
<!-- Node12&#45;&gt;Node13 -->
<g id="edge16" class="edge">
<title>Node12&#45;&gt;Node13</title>
<path fill="none" stroke="midnightblue" d="M499.64,-846C525.71,-846 559.68,-846 584.97,-846"/>
<polygon fill="midnightblue" stroke="midnightblue" points="585.23,-849.5 595.23,-846 585.23,-842.5 585.23,-849.5"/>
</g>
<!-- Node13&#45;&gt;Node2 -->
<g id="edge17" class="edge">
<title>Node13&#45;&gt;Node2</title>
<path fill="none" stroke="midnightblue" d="M647.65,-837.37C655.38,-833.67 663.34,-828.63 669,-822 702.13,-783.2 685.29,-760.06 705,-713 713.46,-692.8 725.13,-670.62 733.5,-655.46"/>
<polygon fill="midnightblue" stroke="midnightblue" points="736.63,-657.04 738.46,-646.61 730.52,-653.63 736.63,-657.04"/>
</g>
<!-- Node14 -->
<g id="node14" class="node">
<title>Node14</title>
<g id="a_node14"><a xlink:href="group__datatypes__euclidean.html#ga882329ee346d5a7f9d0877afd115c3de" target="_top" xlink:title="Compute the cross product of two lines or vectors in a 3d or 2d&#45;space.">
<polygon fill="white" stroke="black" points="718.5,-760.5 718.5,-779.5 771.5,-779.5 771.5,-760.5 718.5,-760.5"/>
<text text-anchor="middle" x="745" y="-767.5" font-family="Helvetica,sans-Serif" font-size="10.00">cross_ll</text>
</a>
</g>
</g>
<!-- Node13&#45;&gt;Node14 -->
<g id="edge18" class="edge">
<title>Node13&#45;&gt;Node14</title>
<path fill="none" stroke="midnightblue" d="M644.02,-836.38C652.12,-832.38 661.25,-827.41 669,-822 686.8,-809.58 687.06,-801.21 705,-789 707.39,-787.37 709.95,-785.8 712.56,-784.31"/>
<polygon fill="midnightblue" stroke="midnightblue" points="714.31,-787.35 721.52,-779.58 711.04,-781.16 714.31,-787.35"/>
</g>
<!-- Node13&#45;&gt;Node15 -->
<g id="edge19" class="edge">
<title>Node13&#45;&gt;Node15</title>
<path fill="none" stroke="midnightblue" d="M634.97,-855.5C650.79,-867.35 679.15,-887.89 705,-903 707.71,-904.58 710.57,-906.15 713.46,-907.68"/>
<polygon fill="midnightblue" stroke="midnightblue" points="712.14,-910.93 722.64,-912.32 715.3,-904.68 712.14,-910.93"/>
</g>
<!-- Node13&#45;&gt;Node16 -->
<g id="edge20" class="edge">
<title>Node13&#45;&gt;Node16</title>
<path fill="none" stroke="midnightblue" d="M630.1,-855.51C650.04,-880.46 704.12,-948.11 729.92,-980.39"/>
<polygon fill="midnightblue" stroke="midnightblue" points="727.42,-982.87 736.4,-988.5 732.89,-978.5 727.42,-982.87"/>
</g>
<!-- Node17 -->
<g id="node17" class="node">
<title>Node17</title>
<g id="a_node17"><a xlink:href="group__datatypes__list__operate.html#ga1088f9b09ff8ed12e2c844758f39c039" target="_top" xlink:title="Compute the mean/average of a list of numbers.">
<polygon fill="white" stroke="black" points="723,-722.5 723,-741.5 767,-741.5 767,-722.5 723,-722.5"/>
<text text-anchor="middle" x="745" y="-729.5" font-family="Helvetica,sans-Serif" font-size="10.00">mean</text>
</a>
</g>
</g>
<!-- Node13&#45;&gt;Node17 -->
<g id="edge21" class="edge">
<title>Node13&#45;&gt;Node17</title>
<path fill="none" stroke="midnightblue" d="M647.57,-836.61C655.12,-832.91 662.98,-828.06 669,-822 693.93,-796.89 679.78,-775.82 705,-751 707.68,-748.36 710.8,-746.03 714.08,-743.99"/>
<polygon fill="midnightblue" stroke="midnightblue" points="715.81,-747.03 722.98,-739.23 712.51,-740.86 715.81,-747.03"/>
</g>
<!-- Node18 -->
<g id="node18" class="node">
<title>Node18</title>
<g id="a_node18"><a xlink:href="group__datatypes__euclidean.html#ga78d67c74076bef2e80a95b1e9b6eb2d7" target="_top" xlink:title="Return 3d point unchanged or add a zeroed third dimension to 2d point.">
<polygon fill="white" stroke="black" points="708,-874.5 708,-893.5 782,-893.5 782,-874.5 708,-874.5"/>
<text text-anchor="middle" x="745" y="-881.5" font-family="Helvetica,sans-Serif" font-size="10.00">point_to_3d</text>
</a>
</g>
</g>
<!-- Node13&#45;&gt;Node18 -->
<g id="edge22" class="edge">
<title>Node13&#45;&gt;Node18</title>
<path fill="none" stroke="midnightblue" d="M647.67,-853.87C663.82,-858.92 685.14,-865.59 703.61,-871.37"/>
<polygon fill="midnightblue" stroke="midnightblue" points="702.67,-874.74 713.25,-874.38 704.76,-868.06 702.67,-874.74"/>
</g>
<!-- Node19 -->
<g id="node19" class="node">
<title>Node19</title>
<g id="a_node19"><a xlink:href="group__datatypes__list__operate.html#ga7b8e6f2bbfa72ae61e39377e5ca6b5be" target="_top" xlink:title="Select specified element from list or return a default.">
<polygon fill="white" stroke="black" points="715.5,-836.5 715.5,-855.5 774.5,-855.5 774.5,-836.5 715.5,-836.5"/>
<text text-anchor="middle" x="745" y="-843.5" font-family="Helvetica,sans-Serif" font-size="10.00">select_ci</text>
</a>
</g>
</g>
<!-- Node13&#45;&gt;Node19 -->
<g id="edge23" class="edge">
<title>Node13&#45;&gt;Node19</title>
<path fill="none" stroke="midnightblue" d="M647.67,-846C664.33,-846 686.5,-846 705.36,-846"/>
<polygon fill="midnightblue" stroke="midnightblue" points="705.45,-849.5 715.45,-846 705.45,-842.5 705.45,-849.5"/>
</g>
<!-- Node20 -->
<g id="node20" class="node">
<title>Node20</title>
<g id="a_node20"><a xlink:href="group__datatypes__euclidean.html#ga6ef2a81f304d31b9ec9753ca4875ad45" target="_top" xlink:title="Convert line to vector by shifting it to the origin.">
<polygon fill="white" stroke="black" points="705,-798.5 705,-817.5 785,-817.5 785,-798.5 705,-798.5"/>
<text text-anchor="middle" x="745" y="-805.5" font-family="Helvetica,sans-Serif" font-size="10.00">vol_to_origin</text>
</a>
</g>
</g>
<!-- Node13&#45;&gt;Node20 -->
<g id="edge24" class="edge">
<title>Node13&#45;&gt;Node20</title>
<path fill="none" stroke="midnightblue" d="M647.67,-838.13C663.82,-833.08 685.14,-826.41 703.61,-820.63"/>
<polygon fill="midnightblue" stroke="midnightblue" points="704.76,-823.94 713.25,-817.62 702.67,-817.26 704.76,-823.94"/>
</g>
<!-- Node21&#45;&gt;Node22 -->
<g id="edge28" class="edge">
<title>Node21&#45;&gt;Node22</title>
<path fill="none" stroke="midnightblue" d="M484.53,-541.35C501.16,-539.75 522.93,-535.21 538,-523 587,-483.31 608.83,-407.45 616.74,-371.64"/>
<polygon fill="midnightblue" stroke="midnightblue" points="620.24,-372.02 618.84,-361.52 613.38,-370.6 620.24,-372.02"/>
</g>
<!-- Node29&#45;&gt;Node11 -->
<g id="edge43" class="edge">
<title>Node29&#45;&gt;Node11</title>
<path fill="none" stroke="midnightblue" d="M523.83,-437.55C529,-440.05 533.82,-443.15 538,-447 605.43,-509.12 617.8,-627.8 620.03,-674.47"/>
<polygon fill="midnightblue" stroke="midnightblue" points="616.53,-674.61 620.4,-684.47 623.53,-674.35 616.53,-674.61"/>
</g>
<!-- Node30&#45;&gt;Node3 -->
<g id="edge46" class="edge">
<title>Node30&#45;&gt;Node3</title>
<path fill="none" stroke="midnightblue" d="M169.57,-323.73C172.12,-361.45 184.86,-500.7 238,-599 271.05,-660.13 312.1,-651.79 345,-713 377.87,-774.15 335.08,-812.93 381,-865 388.72,-873.75 399.34,-879.87 410.24,-884.14"/>
<polygon fill="midnightblue" stroke="midnightblue" points="409.24,-887.5 419.83,-887.44 411.51,-880.88 409.24,-887.5"/>
</g>
<!-- Node30&#45;&gt;Node4 -->
<g id="edge47" class="edge">
<title>Node30&#45;&gt;Node4</title>
<path fill="none" stroke="midnightblue" d="M186.13,-304.47C191.83,-300.6 197.78,-295.69 202,-290 231.12,-250.7 205.1,-222.2 238,-186 241.45,-182.2 245.62,-178.97 250.08,-176.22"/>
<polygon fill="midnightblue" stroke="midnightblue" points="251.74,-179.3 258.92,-171.51 248.44,-173.12 251.74,-179.3"/>
</g>
<!-- Node30&#45;&gt;Node6 -->
<g id="edge48" class="edge">
<title>Node30&#45;&gt;Node6</title>
<path fill="none" stroke="midnightblue" d="M181.88,-304.45C188.42,-299.19 196.19,-292.27 202,-285 222.87,-258.91 212.58,-240.69 238,-219 276.39,-186.24 302.7,-208.52 345,-181 364.5,-168.31 360.89,-154.69 381,-143 384.88,-140.75 389.01,-138.76 393.28,-137.01"/>
<polygon fill="midnightblue" stroke="midnightblue" points="394.59,-140.25 402.78,-133.53 392.19,-133.68 394.59,-140.25"/>
</g>
<!-- Node30&#45;&gt;Node22 -->
<g id="edge56" class="edge">
<title>Node30&#45;&gt;Node22</title>
<path fill="none" stroke="midnightblue" d="M201.18,-314.98C265.41,-317.17 413.98,-323.48 538,-338 551.21,-339.55 565.52,-341.78 578.45,-344"/>
<polygon fill="midnightblue" stroke="midnightblue" points="578.03,-347.48 588.48,-345.78 579.25,-340.59 578.03,-347.48"/>
</g>
<!-- Node31 -->
<g id="node31" class="node">
<title>Node31</title>
<g id="a_node31"><a xlink:href="group__datatypes__list__operate.html#gab05ff3da4d68d30922daa197f505580d" target="_top" xlink:title="Create a list of constant or incrementing elements.">
<polygon fill="white" stroke="black" points="267.5,-228.5 267.5,-247.5 315.5,-247.5 315.5,-228.5 267.5,-228.5"/>
<text text-anchor="middle" x="291.5" y="-235.5" font-family="Helvetica,sans-Serif" font-size="10.00">consts</text>
</a>
</g>
</g>
<!-- Node30&#45;&gt;Node31 -->
<g id="edge45" class="edge">
<title>Node30&#45;&gt;Node31</title>
<path fill="none" stroke="midnightblue" d="M183.07,-304.3C189.03,-300.06 195.97,-294.93 202,-290 218.8,-276.26 219.43,-268.24 238,-257 244.07,-253.32 250.97,-250.19 257.72,-247.6"/>
<polygon fill="midnightblue" stroke="midnightblue" points="259.12,-250.82 267.39,-244.19 256.79,-244.22 259.12,-250.82"/>
</g>
<!-- Node32 -->
<g id="node32" class="node">
<title>Node32</title>
<g id="a_node32"><a xlink:href="group__tools__drafting__operation.html#gaae4b7ed59444eb6f6c0ae47bd36e1e9b" target="_top" xlink:title="Construct a text table that is populated by rows and columns.">
<polygon fill="white" stroke="black" points="257,-266.5 257,-285.5 326,-285.5 326,-266.5 257,-266.5"/>
<text text-anchor="middle" x="291.5" y="-273.5" font-family="Helvetica,sans-Serif" font-size="10.00">draft_table</text>
</a>
</g>
</g>
<!-- Node30&#45;&gt;Node32 -->
<g id="edge49" class="edge">
<title>Node30&#45;&gt;Node32</title>
<path fill="none" stroke="midnightblue" d="M199.66,-304.41C214.91,-299.64 233.55,-293.81 249.97,-288.68"/>
<polygon fill="midnightblue" stroke="midnightblue" points="251.35,-291.91 259.85,-285.59 249.26,-285.23 251.35,-291.91"/>
</g>
<!-- Node32&#45;&gt;Node6 -->
<g id="edge51" class="edge">
<title>Node32&#45;&gt;Node6</title>
<path fill="none" stroke="midnightblue" d="M326.03,-269.02C333.02,-266.25 339.83,-262.39 345,-257 381.79,-218.66 342.22,-179.32 381,-143 382.52,-141.58 384.12,-140.26 385.8,-139.04"/>
<polygon fill="midnightblue" stroke="midnightblue" points="387.96,-141.82 394.72,-133.66 384.35,-135.82 387.96,-141.82"/>
</g>
<!-- Node32&#45;&gt;Node11 -->
<g id="edge50" class="edge">
<title>Node32&#45;&gt;Node11</title>
<path fill="none" stroke="midnightblue" d="M326.13,-285.03C379.15,-301.01 481.9,-339.35 538,-409 604.25,-491.25 617.3,-624.56 619.87,-674.39"/>
<polygon fill="midnightblue" stroke="midnightblue" points="616.38,-674.61 620.3,-684.45 623.37,-674.31 616.38,-674.61"/>
</g>
<!-- Node32&#45;&gt;Node29 -->
<g id="edge52" class="edge">
<title>Node32&#45;&gt;Node29</title>
<path fill="none" stroke="midnightblue" d="M302.88,-285.51C330.48,-310.78 405.91,-379.85 440.61,-411.62"/>
<polygon fill="midnightblue" stroke="midnightblue" points="438.38,-414.32 448.12,-418.5 443.11,-409.16 438.38,-414.32"/>
</g>
<!-- Node33 -->
<g id="node33" class="node">
<title>Node33</title>
<g id="a_node33"><a xlink:href="group__tools__drafting__primitive.html#ga86b6eb63073241bfdfb18ba221fd3ec2" target="_top" xlink:title="Get table cell coordinates given a column and row.">
<polygon fill="white" stroke="black" points="403,-152.5 403,-171.5 516,-171.5 516,-152.5 403,-152.5"/>
<text text-anchor="middle" x="459.5" y="-159.5" font-family="Helvetica,sans-Serif" font-size="10.00">draft_table_get_cell</text>
</a>
</g>
</g>
<!-- Node32&#45;&gt;Node33 -->
<g id="edge53" class="edge">
<title>Node32&#45;&gt;Node33</title>
<path fill="none" stroke="midnightblue" d="M326.05,-268.27C332.89,-265.55 339.62,-261.89 345,-257 372.66,-231.86 352.04,-204.63 381,-181 384.76,-177.93 388.94,-175.35 393.36,-173.17"/>
<polygon fill="midnightblue" stroke="midnightblue" points="394.83,-176.35 402.7,-169.26 392.13,-169.89 394.83,-176.35"/>
</g>
<!-- Node34 -->
<g id="node34" class="node">
<title>Node34</title>
<g id="a_node34"><a xlink:href="group__datatypes__map.html#ga87e9b731478958b17b012e11d8ce818f" target="_top" xlink:title="Get the the first value associated with an existing key in one of two maps.">
<polygon fill="white" stroke="black" points="402.5,-228.5 402.5,-247.5 516.5,-247.5 516.5,-228.5 402.5,-228.5"/>
<text text-anchor="middle" x="459.5" y="-235.5" font-family="Helvetica,sans-Serif" font-size="10.00">map_get_firstof2_or</text>
</a>
</g>
</g>
<!-- Node32&#45;&gt;Node34 -->
<g id="edge54" class="edge">
<title>Node32&#45;&gt;Node34</title>
<path fill="none" stroke="midnightblue" d="M326.09,-268.31C349.28,-263 380.55,-255.84 406.88,-249.82"/>
<polygon fill="midnightblue" stroke="midnightblue" points="407.74,-253.21 416.7,-247.57 406.18,-246.39 407.74,-253.21"/>
</g>
<!-- Node35 -->
<g id="node35" class="node">
<title>Node35</title>
<g id="a_node35"><a xlink:href="group__datatypes__map.html#ga18d78aec6f24969b9ad51595533f78b2" target="_top" xlink:title="Get the map value associated with a key.">
<polygon fill="white" stroke="black" points="413.5,-190.5 413.5,-209.5 505.5,-209.5 505.5,-190.5 413.5,-190.5"/>
<text text-anchor="middle" x="459.5" y="-197.5" font-family="Helvetica,sans-Serif" font-size="10.00">map_get_value</text>
</a>
</g>
</g>
<!-- Node32&#45;&gt;Node35 -->
<g id="edge55" class="edge">
<title>Node32&#45;&gt;Node35</title>
<path fill="none" stroke="midnightblue" d="M326.11,-266.48C332.64,-263.91 339.24,-260.77 345,-257 364.46,-244.25 360.89,-230.69 381,-219 387.98,-214.94 395.8,-211.75 403.72,-209.23"/>
<polygon fill="midnightblue" stroke="midnightblue" points="404.71,-212.59 413.37,-206.49 402.8,-205.86 404.71,-212.59"/>
</g>
</g>
</svg>
