<?xml version="1.0" encoding="UTF-8" standalone="no"?>
<!DOCTYPE svg PUBLIC "-//W3C//DTD SVG 1.1//EN"
 "http://www.w3.org/Graphics/SVG/1.1/DTD/svg11.dtd">
<!-- Generated by graphviz version 2.43.0 (0)
 -->
<!-- Title: draft_arrow Pages: 1 -->
<svg width="450pt" height="389pt"
 viewBox="0.00 0.00 450.00 389.44" xmlns="http://www.w3.org/2000/svg" xmlns:xlink="http://www.w3.org/1999/xlink">
<g id="graph0" class="graph" transform="scale(1 1) rotate(0) translate(4 385.44)">
<title>draft_arrow</title>
<polygon fill="white" stroke="transparent" points="-4,4 -4,-385.44 446,-385.44 446,4 -4,4"/>
<!-- Node1 -->
<g id="node1" class="node">
<title>Node1</title>
<g id="a_node1"><a xlink:title="Draft an arrowhead at the terminal point of a line.">
<polygon fill="#bfbfbf" stroke="black" points="0,-171.5 0,-190.5 72,-190.5 72,-171.5 0,-171.5"/>
<text text-anchor="middle" x="36" y="-178.5" font-family="Helvetica,sans-Serif" font-size="10.00">draft_arrow</text>
</a>
</g>
</g>
<!-- Node2 -->
<g id="node2" class="node">
<title>Node2</title>
<g id="a_node2"><a xlink:href="group__datatypes__euclidean.html#ga3d5c07c70f271bcf9144f50ce8620a89" target="_top" xlink:title="Compute the angle between two lines or vectors in a 3d or 2d&#45;space.">
<polygon fill="white" stroke="black" points="374.5,-361.5 374.5,-380.5 429.5,-380.5 429.5,-361.5 374.5,-361.5"/>
<text text-anchor="middle" x="402" y="-368.5" font-family="Helvetica,sans-Serif" font-size="10.00">angle_ll</text>
</a>
</g>
</g>
<!-- Node1&#45;&gt;Node2 -->
<g id="edge1" class="edge">
<title>Node1&#45;&gt;Node2</title>
<path fill="none" stroke="midnightblue" d="M38.33,-190.86C42.63,-218.5 58.86,-297.07 108,-333 184.95,-389.27 304.59,-383.87 364.38,-376.68"/>
<polygon fill="midnightblue" stroke="midnightblue" points="365.01,-380.13 374.48,-375.38 364.12,-373.19 365.01,-380.13"/>
</g>
<!-- Node3 -->
<g id="node3" class="node">
<title>Node3</title>
<g id="a_node3"><a xlink:href="group__datatypes__binary.html#ga7ce4ed94d9b389ff817ea219918b8732" target="_top" xlink:title="Test if a binary bit position of an integer value equals a test bit.">
<polygon fill="white" stroke="black" points="112,-304.5 112,-323.5 191,-323.5 191,-304.5 112,-304.5"/>
<text text-anchor="middle" x="151.5" y="-311.5" font-family="Helvetica,sans-Serif" font-size="10.00">binary_bit_is</text>
</a>
</g>
</g>
<!-- Node1&#45;&gt;Node3 -->
<g id="edge2" class="edge">
<title>Node1&#45;&gt;Node3</title>
<path fill="none" stroke="midnightblue" d="M40.66,-190.58C49.29,-212.01 72.85,-264.35 108,-295 109.73,-296.51 111.6,-297.92 113.56,-299.23"/>
<polygon fill="midnightblue" stroke="midnightblue" points="112.13,-302.44 122.55,-304.37 115.61,-296.37 112.13,-302.44"/>
</g>
<!-- Node4 -->
<g id="node4" class="node">
<title>Node4</title>
<g id="a_node4"><a xlink:href="group__datatypes__iterable__operate.html#ga3d37c2b0067d1661724bd89955c8f6ce" target="_top" xlink:title="Return an element of an iterable when it exists or a default value otherwise.">
<polygon fill="white" stroke="black" points="112,-266.5 112,-285.5 191,-285.5 191,-266.5 112,-266.5"/>
<text text-anchor="middle" x="151.5" y="-273.5" font-family="Helvetica,sans-Serif" font-size="10.00">defined_e_or</text>
</a>
</g>
</g>
<!-- Node1&#45;&gt;Node4 -->
<g id="edge3" class="edge">
<title>Node1&#45;&gt;Node4</title>
<path fill="none" stroke="midnightblue" d="M45.04,-190.56C57.51,-205.02 82.74,-232.81 108,-252 112.28,-255.25 117.04,-258.36 121.79,-261.2"/>
<polygon fill="midnightblue" stroke="midnightblue" points="120.34,-264.41 130.76,-266.3 123.8,-258.32 120.34,-264.41"/>
</g>
<!-- Node5 -->
<g id="node5" class="node">
<title>Node5</title>
<g id="a_node5"><a xlink:href="group__tools__drafting__config.html#gabb4fa7092928ba8803b550ac6d733f64" target="_top" xlink:title="Get drafting configuration default helper function.">
<polygon fill="white" stroke="black" points="231,-266.5 231,-285.5 326,-285.5 326,-266.5 231,-266.5"/>
<text text-anchor="middle" x="278.5" y="-273.5" font-family="Helvetica,sans-Serif" font-size="10.00">draft_get_config</text>
</a>
</g>
</g>
<!-- Node1&#45;&gt;Node5 -->
<g id="edge4" class="edge">
<title>Node1&#45;&gt;Node5</title>
<path fill="none" stroke="midnightblue" d="M52.97,-190.55C67.12,-198.75 88.49,-210.57 108,-219 149.76,-237.05 199.25,-253.11 233.94,-263.55"/>
<polygon fill="midnightblue" stroke="midnightblue" points="233.17,-266.97 243.75,-266.47 235.17,-260.26 233.17,-266.97"/>
</g>
<!-- Node6 -->
<g id="node6" class="node">
<title>Node6</title>
<g id="a_node6"><a xlink:href="group__tools__drafting__primitive.html#ga4e7c5fa02dbc244702042067553a9225" target="_top" xlink:title="Draft a simple line from an initial to a terminal point.">
<polygon fill="white" stroke="black" points="111.5,-190.5 111.5,-209.5 191.5,-209.5 191.5,-190.5 111.5,-190.5"/>
<text text-anchor="middle" x="151.5" y="-197.5" font-family="Helvetica,sans-Serif" font-size="10.00">draft_line_pp</text>
</a>
</g>
</g>
<!-- Node1&#45;&gt;Node6 -->
<g id="edge5" class="edge">
<title>Node1&#45;&gt;Node6</title>
<path fill="none" stroke="midnightblue" d="M72.29,-186.91C81.47,-188.44 91.52,-190.13 101.27,-191.76"/>
<polygon fill="midnightblue" stroke="midnightblue" points="100.84,-195.24 111.28,-193.43 101.99,-188.33 100.84,-195.24"/>
</g>
<!-- Node10 -->
<g id="node10" class="node">
<title>Node10</title>
<g id="a_node10"><a xlink:href="group__datatypes__euclidean.html#ga299bce4158dc8d0a7a8e7d9967b8ea4e" target="_top" xlink:title="Return the terminal point of a line or vector.">
<polygon fill="white" stroke="black" points="377,-95.5 377,-114.5 427,-114.5 427,-95.5 377,-95.5"/>
<text text-anchor="middle" x="402" y="-102.5" font-family="Helvetica,sans-Serif" font-size="10.00">line_tp</text>
</a>
</g>
</g>
<!-- Node1&#45;&gt;Node10 -->
<g id="edge20" class="edge">
<title>Node1&#45;&gt;Node10</title>
<path fill="none" stroke="midnightblue" d="M72.12,-180.36C127.39,-178.48 237.51,-171.17 326,-143 343.24,-137.51 345.87,-132.19 362,-124 365.19,-122.38 368.53,-120.71 371.87,-119.07"/>
<polygon fill="midnightblue" stroke="midnightblue" points="373.66,-122.09 381.1,-114.54 370.58,-115.8 373.66,-122.09"/>
</g>
<!-- Node16 -->
<g id="node16" class="node">
<title>Node16</title>
<g id="a_node16"><a xlink:href="group__tools__operation__cs.html#gafa05aca176d441020de53da835e3dd60" target="_top" xlink:title="Conditionally apply the convex hull transformation.">
<polygon fill="white" stroke="black" points="126.5,-114.5 126.5,-133.5 176.5,-133.5 176.5,-114.5 126.5,-114.5"/>
<text text-anchor="middle" x="151.5" y="-121.5" font-family="Helvetica,sans-Serif" font-size="10.00">hull_cs</text>
</a>
</g>
</g>
<!-- Node1&#45;&gt;Node16 -->
<g id="edge17" class="edge">
<title>Node1&#45;&gt;Node16</title>
<path fill="none" stroke="midnightblue" d="M56,-171.46C74.17,-162.34 101.78,-148.47 122.48,-138.07"/>
<polygon fill="midnightblue" stroke="midnightblue" points="124.08,-141.19 131.44,-133.57 120.93,-134.93 124.08,-141.19"/>
</g>
<!-- Node18 -->
<g id="node18" class="node">
<title>Node18</title>
<g id="a_node18"><a xlink:href="group__datatypes__euclidean.html#gaa686049dfa9296b441a12e225aa1537d" target="_top" xlink:title="Construct a 2 dimensional directed line.">
<polygon fill="white" stroke="black" points="115.5,-76.5 115.5,-95.5 187.5,-95.5 187.5,-76.5 115.5,-76.5"/>
<text text-anchor="middle" x="151.5" y="-83.5" font-family="Helvetica,sans-Serif" font-size="10.00">line2d_new</text>
</a>
</g>
</g>
<!-- Node1&#45;&gt;Node18 -->
<g id="edge19" class="edge">
<title>Node1&#45;&gt;Node18</title>
<path fill="none" stroke="midnightblue" d="M43.89,-171.44C55.57,-155.79 80.66,-124.51 108,-105 110.34,-103.33 112.86,-101.75 115.45,-100.28"/>
<polygon fill="midnightblue" stroke="midnightblue" points="117.13,-103.35 124.43,-95.68 113.93,-97.12 117.13,-103.35"/>
</g>
<!-- Node19 -->
<g id="node19" class="node">
<title>Node19</title>
<g id="a_node19"><a xlink:href="group__math__polygon.html#ga0e085cf8ec515dccdeff907f84fdae55" target="_top" xlink:title="Compute coordinates of an arc with constant radius between two vectors in 2D.">
<polygon fill="white" stroke="black" points="108,-38.5 108,-57.5 195,-57.5 195,-38.5 108,-38.5"/>
<text text-anchor="middle" x="151.5" y="-45.5" font-family="Helvetica,sans-Serif" font-size="10.00">polygon_arc_p</text>
</a>
</g>
</g>
<!-- Node1&#45;&gt;Node19 -->
<g id="edge21" class="edge">
<title>Node1&#45;&gt;Node19</title>
<path fill="none" stroke="midnightblue" d="M40.66,-171.42C49.29,-149.99 72.85,-97.65 108,-67 109.73,-65.49 111.6,-64.08 113.56,-62.77"/>
<polygon fill="midnightblue" stroke="midnightblue" points="115.61,-65.63 122.55,-57.63 112.13,-59.56 115.61,-65.63"/>
</g>
<!-- Node20 -->
<g id="node20" class="node">
<title>Node20</title>
<g id="a_node20"><a xlink:href="group__datatypes__iterable__operate.html#gadb933df06b10d64dda8823069bdc84b7" target="_top" xlink:title="Return a list of all n&#45;element sequential&#45;subsets of an iterable value.">
<polygon fill="white" stroke="black" points="111.5,-0.5 111.5,-19.5 191.5,-19.5 191.5,-0.5 111.5,-0.5"/>
<text text-anchor="middle" x="151.5" y="-7.5" font-family="Helvetica,sans-Serif" font-size="10.00">sequence_ns</text>
</a>
</g>
</g>
<!-- Node1&#45;&gt;Node20 -->
<g id="edge22" class="edge">
<title>Node1&#45;&gt;Node20</title>
<path fill="none" stroke="midnightblue" d="M39,-171.45C44.93,-145.27 64.81,-71.48 108,-29 109.43,-27.6 110.97,-26.29 112.61,-25.07"/>
<polygon fill="midnightblue" stroke="midnightblue" points="114.64,-27.92 121.3,-19.68 110.96,-21.97 114.64,-27.92"/>
</g>
<!-- Node6&#45;&gt;Node5 -->
<g id="edge16" class="edge">
<title>Node6&#45;&gt;Node5</title>
<path fill="none" stroke="midnightblue" d="M171.69,-209.63C179.2,-213.7 187.73,-218.72 195,-224 212.56,-236.75 212.67,-245.38 231,-257 233.96,-258.88 237.14,-260.63 240.4,-262.26"/>
<polygon fill="midnightblue" stroke="midnightblue" points="239.1,-265.52 249.65,-266.5 242.02,-259.15 239.1,-265.52"/>
</g>
<!-- Node7 -->
<g id="node7" class="node">
<title>Node7</title>
<g id="a_node7"><a xlink:href="group__tools__align.html#ga7a21147611850c6cae7e95d23417099b" target="_top" xlink:title="Align a line or vector to a reference line or vector.">
<polygon fill="white" stroke="black" points="252.5,-228.5 252.5,-247.5 304.5,-247.5 304.5,-228.5 252.5,-228.5"/>
<text text-anchor="middle" x="278.5" y="-235.5" font-family="Helvetica,sans-Serif" font-size="10.00">align_ll</text>
</a>
</g>
</g>
<!-- Node6&#45;&gt;Node7 -->
<g id="edge6" class="edge">
<title>Node6&#45;&gt;Node7</title>
<path fill="none" stroke="midnightblue" d="M184.04,-209.59C201.86,-215.01 224.17,-221.79 242.53,-227.37"/>
<polygon fill="midnightblue" stroke="midnightblue" points="241.68,-230.77 252.26,-230.33 243.71,-224.07 241.68,-230.77"/>
</g>
<!-- Node15 -->
<g id="node15" class="node">
<title>Node15</title>
<g id="a_node15"><a xlink:href="group__datatypes__euclidean.html#gaef5b930729755b4420098776467ac210" target="_top" xlink:title="Compute the distance between two points.">
<polygon fill="white" stroke="black" points="241,-190.5 241,-209.5 316,-209.5 316,-190.5 241,-190.5"/>
<text text-anchor="middle" x="278.5" y="-197.5" font-family="Helvetica,sans-Serif" font-size="10.00">distance_pp</text>
</a>
</g>
</g>
<!-- Node6&#45;&gt;Node15 -->
<g id="edge15" class="edge">
<title>Node6&#45;&gt;Node15</title>
<path fill="none" stroke="midnightblue" d="M191.71,-200C204.14,-200 218,-200 230.9,-200"/>
<polygon fill="midnightblue" stroke="midnightblue" points="230.99,-203.5 240.99,-200 230.99,-196.5 230.99,-203.5"/>
</g>
<!-- Node7&#45;&gt;Node2 -->
<g id="edge7" class="edge">
<title>Node7&#45;&gt;Node2</title>
<path fill="none" stroke="midnightblue" d="M304.92,-244.14C312.49,-247.01 320.28,-251.13 326,-257 357.51,-289.33 331.56,-318.65 362,-352 363.19,-353.3 364.48,-354.52 365.86,-355.67"/>
<polygon fill="midnightblue" stroke="midnightblue" points="364.13,-358.73 374.38,-361.43 368.06,-352.93 364.13,-358.73"/>
</g>
<!-- Node8 -->
<g id="node8" class="node">
<title>Node8</title>
<g id="a_node8"><a xlink:href="group__datatypes__euclidean.html#ga882329ee346d5a7f9d0877afd115c3de" target="_top" xlink:title="Compute the cross product of two lines or vectors in a 3d or 2d&#45;space.">
<polygon fill="white" stroke="black" points="375.5,-323.5 375.5,-342.5 428.5,-342.5 428.5,-323.5 375.5,-323.5"/>
<text text-anchor="middle" x="402" y="-330.5" font-family="Helvetica,sans-Serif" font-size="10.00">cross_ll</text>
</a>
</g>
</g>
<!-- Node7&#45;&gt;Node8 -->
<g id="edge8" class="edge">
<title>Node7&#45;&gt;Node8</title>
<path fill="none" stroke="midnightblue" d="M304.73,-245.06C312.12,-247.94 319.85,-251.85 326,-257 348.96,-276.25 339.68,-294.01 362,-314 363.69,-315.51 365.51,-316.93 367.43,-318.25"/>
<polygon fill="midnightblue" stroke="midnightblue" points="365.81,-321.36 376.19,-323.48 369.39,-315.35 365.81,-321.36"/>
</g>
<!-- Node9 -->
<g id="node9" class="node">
<title>Node9</title>
<g id="a_node9"><a xlink:href="group__datatypes__euclidean.html#ga8115b05f16bcc197e3e339a65f4d3e49" target="_top" xlink:title="Return the initial point of a line or vector.">
<polygon fill="white" stroke="black" points="377.5,-285.5 377.5,-304.5 426.5,-304.5 426.5,-285.5 377.5,-285.5"/>
<text text-anchor="middle" x="402" y="-292.5" font-family="Helvetica,sans-Serif" font-size="10.00">line_ip</text>
</a>
</g>
</g>
<!-- Node7&#45;&gt;Node9 -->
<g id="edge9" class="edge">
<title>Node7&#45;&gt;Node9</title>
<path fill="none" stroke="midnightblue" d="M304.31,-247.61C311.38,-250.49 319.05,-253.75 326,-257 342.39,-264.65 345.87,-267.81 362,-276 365.19,-277.62 368.53,-279.29 371.87,-280.93"/>
<polygon fill="midnightblue" stroke="midnightblue" points="370.58,-284.2 381.1,-285.46 373.66,-277.91 370.58,-284.2"/>
</g>
<!-- Node7&#45;&gt;Node10 -->
<g id="edge10" class="edge">
<title>Node7&#45;&gt;Node10</title>
<path fill="none" stroke="midnightblue" d="M304.92,-231.86C312.49,-228.99 320.28,-224.87 326,-219 357.51,-186.67 331.56,-157.35 362,-124 363.78,-122.05 365.8,-120.28 367.96,-118.68"/>
<polygon fill="midnightblue" stroke="midnightblue" points="370.09,-121.48 376.81,-113.28 366.45,-115.5 370.09,-121.48"/>
</g>
<!-- Node11 -->
<g id="node11" class="node">
<title>Node11</title>
<g id="a_node11"><a xlink:href="group__datatypes__list__operate.html#ga1088f9b09ff8ed12e2c844758f39c039" target="_top" xlink:title="Compute the mean/average of a list of numbers.">
<polygon fill="white" stroke="black" points="380,-247.5 380,-266.5 424,-266.5 424,-247.5 380,-247.5"/>
<text text-anchor="middle" x="402" y="-254.5" font-family="Helvetica,sans-Serif" font-size="10.00">mean</text>
</a>
</g>
</g>
<!-- Node7&#45;&gt;Node11 -->
<g id="edge11" class="edge">
<title>Node7&#45;&gt;Node11</title>
<path fill="none" stroke="midnightblue" d="M304.67,-241.94C323.62,-244.9 349.68,-248.97 369.92,-252.14"/>
<polygon fill="midnightblue" stroke="midnightblue" points="369.49,-255.61 379.91,-253.7 370.57,-248.7 369.49,-255.61"/>
</g>
<!-- Node12 -->
<g id="node12" class="node">
<title>Node12</title>
<g id="a_node12"><a xlink:href="group__datatypes__euclidean.html#ga78d67c74076bef2e80a95b1e9b6eb2d7" target="_top" xlink:title="Return 3d point unchanged or add a zeroed third dimension to 2d point.">
<polygon fill="white" stroke="black" points="365,-209.5 365,-228.5 439,-228.5 439,-209.5 365,-209.5"/>
<text text-anchor="middle" x="402" y="-216.5" font-family="Helvetica,sans-Serif" font-size="10.00">point_to_3d</text>
</a>
</g>
</g>
<!-- Node7&#45;&gt;Node12 -->
<g id="edge12" class="edge">
<title>Node7&#45;&gt;Node12</title>
<path fill="none" stroke="midnightblue" d="M304.67,-234.06C319.07,-231.81 337.57,-228.92 354.5,-226.27"/>
<polygon fill="midnightblue" stroke="midnightblue" points="355.46,-229.66 364.8,-224.66 354.37,-222.75 355.46,-229.66"/>
</g>
<!-- Node13 -->
<g id="node13" class="node">
<title>Node13</title>
<g id="a_node13"><a xlink:href="group__datatypes__list__operate.html#ga7b8e6f2bbfa72ae61e39377e5ca6b5be" target="_top" xlink:title="Select specified element from list or return a default.">
<polygon fill="white" stroke="black" points="372.5,-171.5 372.5,-190.5 431.5,-190.5 431.5,-171.5 372.5,-171.5"/>
<text text-anchor="middle" x="402" y="-178.5" font-family="Helvetica,sans-Serif" font-size="10.00">select_ci</text>
</a>
</g>
</g>
<!-- Node7&#45;&gt;Node13 -->
<g id="edge13" class="edge">
<title>Node7&#45;&gt;Node13</title>
<path fill="none" stroke="midnightblue" d="M304.31,-228.39C311.38,-225.51 319.05,-222.25 326,-219 342.39,-211.35 345.87,-208.19 362,-200 365.19,-198.38 368.53,-196.71 371.87,-195.07"/>
<polygon fill="midnightblue" stroke="midnightblue" points="373.66,-198.09 381.1,-190.54 370.58,-191.8 373.66,-198.09"/>
</g>
<!-- Node14 -->
<g id="node14" class="node">
<title>Node14</title>
<g id="a_node14"><a xlink:href="group__datatypes__euclidean.html#ga6ef2a81f304d31b9ec9753ca4875ad45" target="_top" xlink:title="Convert line to vector by shifting it to the origin.">
<polygon fill="white" stroke="black" points="362,-133.5 362,-152.5 442,-152.5 442,-133.5 362,-133.5"/>
<text text-anchor="middle" x="402" y="-140.5" font-family="Helvetica,sans-Serif" font-size="10.00">vol_to_origin</text>
</a>
</g>
</g>
<!-- Node7&#45;&gt;Node14 -->
<g id="edge14" class="edge">
<title>Node7&#45;&gt;Node14</title>
<path fill="none" stroke="midnightblue" d="M304.73,-230.94C312.12,-228.06 319.85,-224.15 326,-219 348.96,-199.75 339.68,-181.99 362,-162 363.69,-160.49 365.51,-159.07 367.43,-157.75"/>
<polygon fill="midnightblue" stroke="midnightblue" points="369.39,-160.65 376.19,-152.52 365.81,-154.64 369.39,-160.65"/>
</g>
<!-- Node17 -->
<g id="node17" class="node">
<title>Node17</title>
<g id="a_node17"><a xlink:href="group__datatypes__scalar__test.html#ga51d7fdb800c10f4b7479d23b89ab8d22" target="_top" xlink:title="Test if a value is defined.">
<polygon fill="white" stroke="black" points="245.5,-114.5 245.5,-133.5 311.5,-133.5 311.5,-114.5 245.5,-114.5"/>
<text text-anchor="middle" x="278.5" y="-121.5" font-family="Helvetica,sans-Serif" font-size="10.00">is_defined</text>
</a>
</g>
</g>
<!-- Node16&#45;&gt;Node17 -->
<g id="edge18" class="edge">
<title>Node16&#45;&gt;Node17</title>
<path fill="none" stroke="midnightblue" d="M176.6,-124C193.2,-124 215.7,-124 235.23,-124"/>
<polygon fill="midnightblue" stroke="midnightblue" points="235.43,-127.5 245.43,-124 235.43,-120.5 235.43,-127.5"/>
</g>
</g>
</svg>
