<?xml version="1.0" encoding="UTF-8" standalone="no"?>
<!DOCTYPE svg PUBLIC "-//W3C//DTD SVG 1.1//EN"
 "http://www.w3.org/Graphics/SVG/1.1/DTD/svg11.dtd">
<!-- Generated by graphviz version 2.43.0 (0)
 -->
<!-- Title: cone Pages: 1 -->
<svg width="278pt" height="104pt"
 viewBox="0.00 0.00 278.00 104.00" xmlns="http://www.w3.org/2000/svg" xmlns:xlink="http://www.w3.org/1999/xlink">
<g id="graph0" class="graph" transform="scale(1 1) rotate(0) translate(4 100)">
<title>cone</title>
<polygon fill="white" stroke="transparent" points="-4,4 -4,-100 274,-100 274,4 -4,4"/>
<!-- Node1 -->
<g id="node1" class="node">
<title>Node1</title>
<g id="a_node1"><a xlink:title="A cone.">
<polygon fill="#bfbfbf" stroke="black" points="230,-38.5 230,-57.5 270,-57.5 270,-38.5 230,-38.5"/>
<text text-anchor="middle" x="250" y="-45.5" font-family="Helvetica,sans-Serif" font-size="10.00">cone</text>
</a>
</g>
</g>
<!-- Node2 -->
<g id="node2" class="node">
<title>Node2</title>
<g id="a_node2"><a xlink:href="group__parts__3d__enclosure__clamps.html#ga8fd874789132e42e5470328d18560f1a" target="_top" xlink:title="A clamp, bushing, and/or grip for wire/hose wall penetrations.">
<polygon fill="white" stroke="black" points="128.5,-76.5 128.5,-95.5 191.5,-95.5 191.5,-76.5 128.5,-76.5"/>
<text text-anchor="middle" x="160" y="-83.5" font-family="Helvetica,sans-Serif" font-size="10.00">clamp_cg</text>
</a>
</g>
</g>
<!-- Node1&#45;&gt;Node2 -->
<g id="edge1" class="edge">
<title>Node1&#45;&gt;Node2</title>
<path fill="none" stroke="midnightblue" d="M220.64,-60.24C208.5,-65.49 194.53,-71.52 183.16,-76.43"/>
<polygon fill="midnightblue" stroke="midnightblue" points="222.11,-63.42 229.91,-56.25 219.34,-57 222.11,-63.42"/>
</g>
<!-- Node3 -->
<g id="node3" class="node">
<title>Node3</title>
<g id="a_node3"><a xlink:href="group__parts__3d__enclosure__power__strip.html#ga191779dedf39e4fd769a8dc96b0f8c9e" target="_top" xlink:title="A power strip generator for single gang electrical receptacles.">
<polygon fill="white" stroke="black" points="0,-38.5 0,-57.5 90,-57.5 90,-38.5 0,-38.5"/>
<text text-anchor="middle" x="45" y="-45.5" font-family="Helvetica,sans-Serif" font-size="10.00">power_strip_sg</text>
</a>
</g>
</g>
<!-- Node1&#45;&gt;Node3 -->
<g id="edge5" class="edge">
<title>Node1&#45;&gt;Node3</title>
<path fill="none" stroke="midnightblue" d="M219.7,-48C185.72,-48 129.33,-48 90.05,-48"/>
<polygon fill="midnightblue" stroke="midnightblue" points="219.9,-51.5 229.9,-48 219.9,-44.5 219.9,-51.5"/>
</g>
<!-- Node4 -->
<g id="node4" class="node">
<title>Node4</title>
<g id="a_node4"><a xlink:href="group__models__3d__misc__omdl__logo.html#gab176f64dad7e83d4fb056be44b71f630" target="_top" xlink:title="Standard omdl logo.">
<polygon fill="white" stroke="black" points="126,-0.5 126,-19.5 194,-19.5 194,-0.5 126,-0.5"/>
<text text-anchor="middle" x="160" y="-7.5" font-family="Helvetica,sans-Serif" font-size="10.00">omdl_logo</text>
</a>
</g>
</g>
<!-- Node1&#45;&gt;Node4 -->
<g id="edge3" class="edge">
<title>Node1&#45;&gt;Node4</title>
<path fill="none" stroke="midnightblue" d="M220.64,-35.76C208.5,-30.51 194.53,-24.48 183.16,-19.57"/>
<polygon fill="midnightblue" stroke="midnightblue" points="219.34,-39 229.91,-39.75 222.11,-32.58 219.34,-39"/>
</g>
<!-- Node2&#45;&gt;Node3 -->
<g id="edge2" class="edge">
<title>Node2&#45;&gt;Node3</title>
<path fill="none" stroke="midnightblue" d="M120.86,-73.17C105.7,-68.08 88.56,-62.31 74.51,-57.59"/>
<polygon fill="midnightblue" stroke="midnightblue" points="119.89,-76.54 130.49,-76.41 122.12,-69.91 119.89,-76.54"/>
</g>
<!-- Node4&#45;&gt;Node3 -->
<g id="edge4" class="edge">
<title>Node4&#45;&gt;Node3</title>
<path fill="none" stroke="midnightblue" d="M120.86,-22.83C105.7,-27.92 88.56,-33.69 74.51,-38.41"/>
<polygon fill="midnightblue" stroke="midnightblue" points="122.12,-26.09 130.49,-19.59 119.89,-19.46 122.12,-26.09"/>
</g>
</g>
</svg>
