<?xml version="1.0" encoding="UTF-8" standalone="no"?>
<!DOCTYPE svg PUBLIC "-//W3C//DTD SVG 1.1//EN"
 "http://www.w3.org/Graphics/SVG/1.1/DTD/svg11.dtd">
<!-- Generated by graphviz version 2.43.0 (0)
 -->
<!-- Title: polytope_face_normal Pages: 1 -->
<svg width="271pt" height="66pt"
 viewBox="0.00 0.00 271.00 66.00" xmlns="http://www.w3.org/2000/svg" xmlns:xlink="http://www.w3.org/1999/xlink">
<g id="graph0" class="graph" transform="scale(1 1) rotate(0) translate(4 62)">
<title>polytope_face_normal</title>
<polygon fill="white" stroke="transparent" points="-4,4 -4,-62 267,-62 267,4 -4,4"/>
<!-- Node1 -->
<g id="node1" class="node">
<title>Node1</title>
<g id="a_node1"><a xlink:title="Get the normal vector of a polytope face.">
<polygon fill="#bfbfbf" stroke="black" points="138,-19.5 138,-38.5 263,-38.5 263,-19.5 138,-19.5"/>
<text text-anchor="middle" x="200.5" y="-26.5" font-family="Helvetica,sans-Serif" font-size="10.00">polytope_face_normal</text>
</a>
</g>
</g>
<!-- Node2 -->
<g id="node2" class="node">
<title>Node2</title>
<g id="a_node2"><a xlink:href="group__tools__polytope.html#ga530c86f9c90ce074aa7adc29834f0539" target="_top" xlink:title="Assemble a polytope skeletal frame using child objects.">
<polygon fill="white" stroke="black" points="4,-38.5 4,-57.5 98,-57.5 98,-38.5 4,-38.5"/>
<text text-anchor="middle" x="51" y="-45.5" font-family="Helvetica,sans-Serif" font-size="10.00">polytope_frame</text>
</a>
</g>
</g>
<!-- Node1&#45;&gt;Node2 -->
<g id="edge1" class="edge">
<title>Node1&#45;&gt;Node2</title>
<path fill="none" stroke="midnightblue" d="M127.78,-38.24C117.72,-39.53 107.6,-40.84 98.19,-42.05"/>
<polygon fill="midnightblue" stroke="midnightblue" points="128.33,-41.7 137.8,-36.95 127.44,-34.75 128.33,-41.7"/>
</g>
<!-- Node3 -->
<g id="node3" class="node">
<title>Node3</title>
<g id="a_node3"><a xlink:href="group__tools__polytope.html#ga00b574079f19251be7281151d11db8fa" target="_top" xlink:title="Label the vertices, paths, and edges of a polytope.">
<polygon fill="white" stroke="black" points="0,-0.5 0,-19.5 102,-19.5 102,-0.5 0,-0.5"/>
<text text-anchor="middle" x="51" y="-7.5" font-family="Helvetica,sans-Serif" font-size="10.00">polytope_number</text>
</a>
</g>
</g>
<!-- Node1&#45;&gt;Node3 -->
<g id="edge2" class="edge">
<title>Node1&#45;&gt;Node3</title>
<path fill="none" stroke="midnightblue" d="M127.74,-19.76C119.13,-18.65 110.48,-17.53 102.26,-16.47"/>
<polygon fill="midnightblue" stroke="midnightblue" points="127.44,-23.25 137.8,-21.05 128.33,-16.3 127.44,-23.25"/>
</g>
</g>
</svg>
