<?xml version="1.0" encoding="UTF-8" standalone="no"?>
<!DOCTYPE svg PUBLIC "-//W3C//DTD SVG 1.1//EN"
 "http://www.w3.org/Graphics/SVG/1.1/DTD/svg11.dtd">
<!-- Generated by graphviz version 2.43.0 (0)
 -->
<!-- Title: binary_bit_is Pages: 1 -->
<svg width="548pt" height="626pt"
 viewBox="0.00 0.00 548.00 626.00" xmlns="http://www.w3.org/2000/svg" xmlns:xlink="http://www.w3.org/1999/xlink">
<g id="graph0" class="graph" transform="scale(1 1) rotate(0) translate(4 622)">
<title>binary_bit_is</title>
<polygon fill="white" stroke="transparent" points="-4,4 -4,-622 544,-622 544,4 -4,4"/>
<!-- Node1 -->
<g id="node1" class="node">
<title>Node1</title>
<g id="a_node1"><a xlink:title="Test if a binary bit position of an integer value equals a test bit.">
<polygon fill="#bfbfbf" stroke="black" points="461,-332.5 461,-351.5 540,-351.5 540,-332.5 461,-332.5"/>
<text text-anchor="middle" x="500.5" y="-339.5" font-family="Helvetica,sans-Serif" font-size="10.00">binary_bit_is</text>
</a>
</g>
</g>
<!-- Node2 -->
<g id="node2" class="node">
<title>Node2</title>
<g id="a_node2"><a xlink:href="group__parts__3d__enclosure__clamps.html#ga8fd874789132e42e5470328d18560f1a" target="_top" xlink:title="A clamp, bushing, and/or grip for wire/hose wall penetrations.">
<polygon fill="white" stroke="black" points="162.5,-522.5 162.5,-541.5 225.5,-541.5 225.5,-522.5 162.5,-522.5"/>
<text text-anchor="middle" x="194" y="-529.5" font-family="Helvetica,sans-Serif" font-size="10.00">clamp_cg</text>
</a>
</g>
</g>
<!-- Node1&#45;&gt;Node2 -->
<g id="edge1" class="edge">
<title>Node1&#45;&gt;Node2</title>
<path fill="none" stroke="midnightblue" d="M491.86,-361.06C480.8,-386.33 457.96,-430.65 425,-456 363.99,-502.91 272.68,-521.59 225.56,-528.43"/>
<polygon fill="midnightblue" stroke="midnightblue" points="495.23,-362.09 495.88,-351.51 488.77,-359.37 495.23,-362.09"/>
</g>
<!-- Node3 -->
<g id="node3" class="node">
<title>Node3</title>
<g id="a_node3"><a xlink:href="group__parts__3d__enclosure__power__strip.html#ga191779dedf39e4fd769a8dc96b0f8c9e" target="_top" xlink:title="A power strip generator for single gang electrical receptacles.">
<polygon fill="white" stroke="black" points="6.5,-465.5 6.5,-484.5 96.5,-484.5 96.5,-465.5 6.5,-465.5"/>
<text text-anchor="middle" x="51.5" y="-472.5" font-family="Helvetica,sans-Serif" font-size="10.00">power_strip_sg</text>
</a>
</g>
</g>
<!-- Node1&#45;&gt;Node3 -->
<g id="edge25" class="edge">
<title>Node1&#45;&gt;Node3</title>
<path fill="none" stroke="midnightblue" d="M495.62,-361.66C488.03,-394.91 468.05,-462.18 425,-499 326.81,-582.97 259.89,-596.56 139,-551 103.27,-537.53 72.71,-501.86 59.49,-484.61"/>
<polygon fill="midnightblue" stroke="midnightblue" points="499.06,-362.3 497.73,-351.79 492.22,-360.83 499.06,-362.3"/>
</g>
<!-- Node4 -->
<g id="node4" class="node">
<title>Node4</title>
<g id="a_node4"><a xlink:href="group__shapes__basic__3d.html#gaf1d71183e9f3fb9a5e48b8c9a67085d6" target="_top" xlink:title="A cuboid with edge, round, or chamfer corners.">
<polygon fill="white" stroke="black" points="330.5,-256.5 330.5,-275.5 379.5,-275.5 379.5,-256.5 330.5,-256.5"/>
<text text-anchor="middle" x="355" y="-263.5" font-family="Helvetica,sans-Serif" font-size="10.00">cuboid</text>
</a>
</g>
</g>
<!-- Node1&#45;&gt;Node4 -->
<g id="edge3" class="edge">
<title>Node1&#45;&gt;Node4</title>
<path fill="none" stroke="midnightblue" d="M479.83,-326.02C465.33,-314.81 444.78,-300.1 425,-290 410.54,-282.62 393.29,-276.62 379.66,-272.46"/>
<polygon fill="midnightblue" stroke="midnightblue" points="477.99,-329.02 488.01,-332.47 482.32,-323.53 477.99,-329.02"/>
</g>
<!-- Node5 -->
<g id="node5" class="node">
<title>Node5</title>
<g id="a_node5"><a xlink:href="group__tools__drafting__primitive.html#ga6f12ccd4c9de0a8ab887184911f39c8f" target="_top" xlink:title="Draft an arrowhead at the terminal point of a line.">
<polygon fill="white" stroke="black" points="319,-218.5 319,-237.5 391,-237.5 391,-218.5 319,-218.5"/>
<text text-anchor="middle" x="355" y="-225.5" font-family="Helvetica,sans-Serif" font-size="10.00">draft_arrow</text>
</a>
</g>
</g>
<!-- Node1&#45;&gt;Node5 -->
<g id="edge4" class="edge">
<title>Node1&#45;&gt;Node5</title>
<path fill="none" stroke="midnightblue" d="M489.77,-323.38C477.54,-301.78 454.51,-266.64 425,-247 414.97,-240.32 402.63,-235.98 391.18,-233.16"/>
<polygon fill="midnightblue" stroke="midnightblue" points="486.75,-325.15 494.62,-332.25 492.9,-321.79 486.75,-325.15"/>
</g>
<!-- Node17 -->
<g id="node17" class="node">
<title>Node17</title>
<g id="a_node17"><a xlink:href="group__tools__extrude.html#ga78405b5fa18461a302a2f24646499ece" target="_top" xlink:title="Translate, rotate, and revolve a 2d shape about the z&#45;axis with linear elongation.">
<polygon fill="white" stroke="black" points="303,-427.5 303,-446.5 407,-446.5 407,-427.5 303,-427.5"/>
<text text-anchor="middle" x="355" y="-434.5" font-family="Helvetica,sans-Serif" font-size="10.00">extrude_rotate_trl</text>
</a>
</g>
</g>
<!-- Node1&#45;&gt;Node17 -->
<g id="edge17" class="edge">
<title>Node1&#45;&gt;Node17</title>
<path fill="none" stroke="midnightblue" d="M476.43,-357.27C446.6,-377.02 395.54,-410.82 370.59,-427.34"/>
<polygon fill="midnightblue" stroke="midnightblue" points="478.54,-360.07 484.95,-351.63 474.68,-354.23 478.54,-360.07"/>
</g>
<!-- Node21 -->
<g id="node21" class="node">
<title>Node21</title>
<g id="a_node21"><a xlink:href="group__parts__3d__bearing__bearing__linear__rod.html#ga48399d5e708b4894494c69b2d1e88e26" target="_top" xlink:title="Transform 2d or 3d shape into a linear rod ball or sled bearing.">
<polygon fill="white" stroke="black" points="285,-180.5 285,-199.5 425,-199.5 425,-180.5 285,-180.5"/>
<text text-anchor="middle" x="355" y="-187.5" font-family="Helvetica,sans-Serif" font-size="10.00">make_bearing_linear_rod</text>
</a>
</g>
</g>
<!-- Node1&#45;&gt;Node21 -->
<g id="edge23" class="edge">
<title>Node1&#45;&gt;Node21</title>
<path fill="none" stroke="midnightblue" d="M493.9,-322.42C484.52,-293.26 462.87,-238.67 425,-209 420.01,-205.09 414.27,-201.99 408.28,-199.52"/>
<polygon fill="midnightblue" stroke="midnightblue" points="490.63,-323.71 496.89,-332.25 497.32,-321.66 490.63,-323.71"/>
</g>
<!-- Node22 -->
<g id="node22" class="node">
<title>Node22</title>
<g id="a_node22"><a xlink:href="group__parts__3d__computer__pci__bracket.html#gaf56631cf80d8e5f0b77736b17b94ecd9" target="_top" xlink:title="PCI slot cover and adapter card bracket generator.">
<polygon fill="white" stroke="black" points="158,-256.5 158,-275.5 230,-275.5 230,-256.5 158,-256.5"/>
<text text-anchor="middle" x="194" y="-263.5" font-family="Helvetica,sans-Serif" font-size="10.00">pci_bracket</text>
</a>
</g>
</g>
<!-- Node1&#45;&gt;Node22 -->
<g id="edge24" class="edge">
<title>Node1&#45;&gt;Node22</title>
<path fill="none" stroke="midnightblue" d="M452.63,-329.99C443.47,-327.66 433.94,-325.25 425,-323 355.98,-305.65 275.21,-285.72 230.09,-274.62"/>
<polygon fill="midnightblue" stroke="midnightblue" points="451.82,-333.4 462.38,-332.48 453.55,-326.62 451.82,-333.4"/>
</g>
<!-- Node23 -->
<g id="node23" class="node">
<title>Node23</title>
<g id="a_node23"><a xlink:href="group__parts__3d__enclosure__project__box__rectangle.html#ga6a5d093d732e65556c46252220f2c4b6" target="_top" xlink:title="A rectangular box maker for project boxes, enclosures and housings.">
<polygon fill="white" stroke="black" points="292.5,-598.5 292.5,-617.5 417.5,-617.5 417.5,-598.5 292.5,-598.5"/>
<text text-anchor="middle" x="355" y="-605.5" font-family="Helvetica,sans-Serif" font-size="10.00">project_box_rectangle</text>
</a>
</g>
</g>
<!-- Node1&#45;&gt;Node23 -->
<g id="edge26" class="edge">
<title>Node1&#45;&gt;Node23</title>
<path fill="none" stroke="midnightblue" d="M499.15,-361.93C497.28,-407.52 486.33,-520.41 425,-584 418.92,-590.3 411.11,-594.95 402.94,-598.37"/>
<polygon fill="midnightblue" stroke="midnightblue" points="502.66,-361.96 499.46,-351.85 495.66,-361.74 502.66,-361.96"/>
</g>
<!-- Node24 -->
<g id="node24" class="node">
<title>Node24</title>
<g id="a_node24"><a xlink:href="group__shapes__basic__2d.html#ga9f679c29426c44ee83b4a13b5dd47138" target="_top" xlink:title="A rectangle with corner rounds or chamfers.">
<polygon fill="white" stroke="black" points="324,-332.5 324,-351.5 386,-351.5 386,-332.5 324,-332.5"/>
<text text-anchor="middle" x="355" y="-339.5" font-family="Helvetica,sans-Serif" font-size="10.00">rectangle</text>
</a>
</g>
</g>
<!-- Node1&#45;&gt;Node24 -->
<g id="edge28" class="edge">
<title>Node1&#45;&gt;Node24</title>
<path fill="none" stroke="midnightblue" d="M450.48,-342C429.15,-342 404.84,-342 386.22,-342"/>
<polygon fill="midnightblue" stroke="midnightblue" points="450.67,-345.5 460.67,-342 450.67,-338.5 450.67,-345.5"/>
</g>
<!-- Node2&#45;&gt;Node3 -->
<g id="edge2" class="edge">
<title>Node2&#45;&gt;Node3</title>
<path fill="none" stroke="midnightblue" d="M154.99,-519.03C149.6,-517.08 144.14,-515.03 139,-513 116.12,-503.96 90.35,-492.47 72.94,-484.5"/>
<polygon fill="midnightblue" stroke="midnightblue" points="153.95,-522.38 164.54,-522.44 156.3,-515.78 153.95,-522.38"/>
</g>
<!-- Node6 -->
<g id="node6" class="node">
<title>Node6</title>
<g id="a_node6"><a xlink:href="group__tools__drafting__primitive.html#gaeb2a388d77f8e435b02c4235e7791eda" target="_top" xlink:title="Draft an arc with configurable style and optional arrowheads.">
<polygon fill="white" stroke="black" points="164.5,-218.5 164.5,-237.5 223.5,-237.5 223.5,-218.5 164.5,-218.5"/>
<text text-anchor="middle" x="194" y="-225.5" font-family="Helvetica,sans-Serif" font-size="10.00">draft_arc</text>
</a>
</g>
</g>
<!-- Node5&#45;&gt;Node6 -->
<g id="edge5" class="edge">
<title>Node5&#45;&gt;Node6</title>
<path fill="none" stroke="midnightblue" d="M308.58,-228C281.22,-228 247.2,-228 223.56,-228"/>
<polygon fill="midnightblue" stroke="midnightblue" points="308.71,-231.5 318.71,-228 308.71,-224.5 308.71,-231.5"/>
</g>
<!-- Node8 -->
<g id="node8" class="node">
<title>Node8</title>
<g id="a_node8"><a xlink:href="group__tools__drafting__primitive.html#ga060910368142d6371cf4f3f30be7561e" target="_top" xlink:title="Draft a line with configurable style and optional arrowheads.">
<polygon fill="white" stroke="black" points="163,-180.5 163,-199.5 225,-199.5 225,-180.5 163,-180.5"/>
<text text-anchor="middle" x="194" y="-187.5" font-family="Helvetica,sans-Serif" font-size="10.00">draft_line</text>
</a>
</g>
</g>
<!-- Node5&#45;&gt;Node8 -->
<g id="edge7" class="edge">
<title>Node5&#45;&gt;Node8</title>
<path fill="none" stroke="midnightblue" d="M308.79,-217.19C281.97,-210.79 248.73,-202.84 225.11,-197.2"/>
<polygon fill="midnightblue" stroke="midnightblue" points="308.17,-220.65 318.71,-219.57 309.8,-213.84 308.17,-220.65"/>
</g>
<!-- Node7 -->
<g id="node7" class="node">
<title>Node7</title>
<g id="a_node7"><a xlink:href="group__tools__drafting__dimension.html#ga6b8e17d22ac4a95d25a90be8a74c0689" target="_top" xlink:title="Construct a angular dimension arc.">
<polygon fill="white" stroke="black" points="4,-304.5 4,-323.5 99,-323.5 99,-304.5 4,-304.5"/>
<text text-anchor="middle" x="51.5" y="-311.5" font-family="Helvetica,sans-Serif" font-size="10.00">draft_dim_angle</text>
</a>
</g>
</g>
<!-- Node6&#45;&gt;Node7 -->
<g id="edge6" class="edge">
<title>Node6&#45;&gt;Node7</title>
<path fill="none" stroke="midnightblue" d="M154.85,-238.21C149.25,-240.6 143.77,-243.5 139,-247 117.5,-262.77 124.33,-279 103,-295 97.9,-298.82 91.95,-301.95 85.96,-304.49"/>
<polygon fill="midnightblue" stroke="midnightblue" points="156.15,-241.46 164.27,-234.65 153.67,-234.91 156.15,-241.46"/>
</g>
<!-- Node8&#45;&gt;Node7 -->
<g id="edge9" class="edge">
<title>Node8&#45;&gt;Node7</title>
<path fill="none" stroke="midnightblue" d="M153.27,-199.56C148.06,-202.03 143.11,-205.12 139,-209 108.86,-237.44 132.83,-266.24 103,-295 99.02,-298.84 94.19,-301.91 89.12,-304.38"/>
<polygon fill="midnightblue" stroke="midnightblue" points="154.82,-202.72 162.82,-195.77 152.23,-196.21 154.82,-202.72"/>
</g>
<!-- Node9 -->
<g id="node9" class="node">
<title>Node9</title>
<g id="a_node9"><a xlink:href="group__tools__drafting__operation.html#ga4e20419a6d4623f21c05179fc8b6df95" target="_top" xlink:title="Construct drafting sheet axes.">
<polygon fill="white" stroke="black" points="18,-228.5 18,-247.5 85,-247.5 85,-228.5 18,-228.5"/>
<text text-anchor="middle" x="51.5" y="-235.5" font-family="Helvetica,sans-Serif" font-size="10.00">draft_axes</text>
</a>
</g>
</g>
<!-- Node8&#45;&gt;Node9 -->
<g id="edge8" class="edge">
<title>Node8&#45;&gt;Node9</title>
<path fill="none" stroke="midnightblue" d="M155.25,-202.9C131.73,-210.93 101.97,-221.1 80.55,-228.42"/>
<polygon fill="midnightblue" stroke="midnightblue" points="156.57,-206.14 164.91,-199.6 154.31,-199.52 156.57,-206.14"/>
</g>
<!-- Node10 -->
<g id="node10" class="node">
<title>Node10</title>
<g id="a_node10"><a xlink:href="group__tools__drafting__dimension.html#ga4866c090b81b437e2f1f707d28ad8ec7" target="_top" xlink:title="Construct a center mark dimension cross.">
<polygon fill="white" stroke="black" points="2,-190.5 2,-209.5 101,-209.5 101,-190.5 2,-190.5"/>
<text text-anchor="middle" x="51.5" y="-197.5" font-family="Helvetica,sans-Serif" font-size="10.00">draft_dim_center</text>
</a>
</g>
</g>
<!-- Node8&#45;&gt;Node10 -->
<g id="edge10" class="edge">
<title>Node8&#45;&gt;Node10</title>
<path fill="none" stroke="midnightblue" d="M152.7,-192.87C136.61,-194.01 117.94,-195.34 101.1,-196.54"/>
<polygon fill="midnightblue" stroke="midnightblue" points="153.13,-196.35 162.86,-192.15 152.64,-189.36 153.13,-196.35"/>
</g>
<!-- Node11 -->
<g id="node11" class="node">
<title>Node11</title>
<g id="a_node11"><a xlink:href="group__tools__drafting__dimension.html#ga5c4915c4c4464c5cdaefd501c2de261d" target="_top" xlink:title="Construct a dimension leader line at a point.">
<polygon fill="white" stroke="black" points="2,-152.5 2,-171.5 101,-171.5 101,-152.5 2,-152.5"/>
<text text-anchor="middle" x="51.5" y="-159.5" font-family="Helvetica,sans-Serif" font-size="10.00">draft_dim_leader</text>
</a>
</g>
</g>
<!-- Node8&#45;&gt;Node11 -->
<g id="edge11" class="edge">
<title>Node8&#45;&gt;Node11</title>
<path fill="none" stroke="midnightblue" d="M153.03,-182.03C136.6,-178.76 117.44,-174.94 100.28,-171.52"/>
<polygon fill="midnightblue" stroke="midnightblue" points="152.37,-185.47 162.86,-183.99 153.74,-178.61 152.37,-185.47"/>
</g>
<!-- Node12 -->
<g id="node12" class="node">
<title>Node12</title>
<g id="a_node12"><a xlink:href="group__tools__drafting__dimension.html#ga27a35e94597435a74e22d76789e9be5e" target="_top" xlink:title="Construct a dimension line between two points.">
<polygon fill="white" stroke="black" points="8.5,-114.5 8.5,-133.5 94.5,-133.5 94.5,-114.5 8.5,-114.5"/>
<text text-anchor="middle" x="51.5" y="-121.5" font-family="Helvetica,sans-Serif" font-size="10.00">draft_dim_line</text>
</a>
</g>
</g>
<!-- Node8&#45;&gt;Node12 -->
<g id="edge12" class="edge">
<title>Node8&#45;&gt;Node12</title>
<path fill="none" stroke="midnightblue" d="M166.91,-175.3C149.16,-165.57 124.99,-152.84 103,-143 95.56,-139.67 87.35,-136.41 79.74,-133.56"/>
<polygon fill="midnightblue" stroke="midnightblue" points="165.61,-178.58 176.05,-180.36 169,-172.45 165.61,-178.58"/>
</g>
<!-- Node13 -->
<g id="node13" class="node">
<title>Node13</title>
<g id="a_node13"><a xlink:href="group__tools__drafting__dimension.html#gaef1a8150a8ef7be88e086fb3dbab64a9" target="_top" xlink:title="Construct a radial dimension line.">
<polygon fill="white" stroke="black" points="2.5,-76.5 2.5,-95.5 100.5,-95.5 100.5,-76.5 2.5,-76.5"/>
<text text-anchor="middle" x="51.5" y="-83.5" font-family="Helvetica,sans-Serif" font-size="10.00">draft_dim_radius</text>
</a>
</g>
</g>
<!-- Node8&#45;&gt;Node13 -->
<g id="edge13" class="edge">
<title>Node8&#45;&gt;Node13</title>
<path fill="none" stroke="midnightblue" d="M178.3,-172.46C161.69,-153.58 133.03,-123.76 103,-105 97.12,-101.33 90.42,-98.19 83.87,-95.59"/>
<polygon fill="midnightblue" stroke="midnightblue" points="175.86,-174.99 185.04,-180.28 181.16,-170.42 175.86,-174.99"/>
</g>
<!-- Node14 -->
<g id="node14" class="node">
<title>Node14</title>
<g id="a_node14"><a xlink:href="group__tools__drafting__primitive.html#gada1e771ce89ef86b6241c43dc01bf62d" target="_top" xlink:title="Draft a polygon with configurable style.">
<polygon fill="white" stroke="black" points="10,-38.5 10,-57.5 93,-57.5 93,-38.5 10,-38.5"/>
<text text-anchor="middle" x="51.5" y="-45.5" font-family="Helvetica,sans-Serif" font-size="10.00">draft_polygon</text>
</a>
</g>
</g>
<!-- Node8&#45;&gt;Node14 -->
<g id="edge14" class="edge">
<title>Node8&#45;&gt;Node14</title>
<path fill="none" stroke="midnightblue" d="M183.74,-171.14C169.73,-144.43 140.75,-95.66 103,-67 98,-63.2 92.16,-60.09 86.26,-57.57"/>
<polygon fill="midnightblue" stroke="midnightblue" points="180.7,-172.88 188.36,-180.21 186.94,-169.71 180.7,-172.88"/>
</g>
<!-- Node15 -->
<g id="node15" class="node">
<title>Node15</title>
<g id="a_node15"><a xlink:href="group__tools__drafting__primitive.html#ga20eb57e9d25186784df7428089e3a2ae" target="_top" xlink:title="Draft a rectangle with configurable style.">
<polygon fill="white" stroke="black" points="6.5,-0.5 6.5,-19.5 96.5,-19.5 96.5,-0.5 6.5,-0.5"/>
<text text-anchor="middle" x="51.5" y="-7.5" font-family="Helvetica,sans-Serif" font-size="10.00">draft_rectangle</text>
</a>
</g>
</g>
<!-- Node8&#45;&gt;Node15 -->
<g id="edge15" class="edge">
<title>Node8&#45;&gt;Node15</title>
<path fill="none" stroke="midnightblue" d="M187.09,-170.58C175.95,-137.12 148.78,-68.39 103,-29 98.53,-25.15 93.2,-22.05 87.7,-19.55"/>
<polygon fill="midnightblue" stroke="midnightblue" points="183.76,-171.67 190.14,-180.13 190.43,-169.54 183.76,-171.67"/>
</g>
<!-- Node16 -->
<g id="node16" class="node">
<title>Node16</title>
<g id="a_node16"><a xlink:href="group__tools__drafting__operation.html#ga49aac81a903cd453ea9cadc85e84e414" target="_top" xlink:title="Construct a drafting sheet ruler.">
<polygon fill="white" stroke="black" points="18,-266.5 18,-285.5 85,-285.5 85,-266.5 18,-266.5"/>
<text text-anchor="middle" x="51.5" y="-273.5" font-family="Helvetica,sans-Serif" font-size="10.00">draft_ruler</text>
</a>
</g>
</g>
<!-- Node8&#45;&gt;Node16 -->
<g id="edge16" class="edge">
<title>Node8&#45;&gt;Node16</title>
<path fill="none" stroke="midnightblue" d="M153.17,-200.94C148.16,-203.18 143.3,-205.85 139,-209 117.5,-224.77 124.33,-241 103,-257 97.68,-260.99 91.43,-264.23 85.17,-266.83"/>
<polygon fill="midnightblue" stroke="midnightblue" points="154.84,-204.04 162.87,-197.13 152.28,-197.53 154.84,-204.04"/>
</g>
<!-- Node17&#45;&gt;Node2 -->
<g id="edge18" class="edge">
<title>Node17&#45;&gt;Node2</title>
<path fill="none" stroke="midnightblue" d="M333.33,-453.06C307.96,-472.57 266.21,-503.99 249,-513 241.69,-516.83 233.45,-520.17 225.64,-522.94"/>
<polygon fill="midnightblue" stroke="midnightblue" points="335.77,-455.59 341.55,-446.71 331.49,-450.05 335.77,-455.59"/>
</g>
<!-- Node17&#45;&gt;Node3 -->
<g id="edge19" class="edge">
<title>Node17&#45;&gt;Node3</title>
<path fill="none" stroke="midnightblue" d="M292.45,-430.34C249.08,-427.26 189.9,-426.31 139,-437 113.16,-442.43 85.61,-456.06 68.72,-465.43"/>
<polygon fill="midnightblue" stroke="midnightblue" points="292.33,-433.84 302.56,-431.12 292.86,-426.86 292.33,-433.84"/>
</g>
<!-- Node18 -->
<g id="node18" class="node">
<title>Node18</title>
<g id="a_node18"><a xlink:href="group__shapes__revolved.html#ga58a3e713a904c96b69ddd8f87f7f3bb1" target="_top" xlink:title="An elliptical cross&#45;sectional profile revolved about the z&#45;axis.">
<polygon fill="white" stroke="black" points="146.5,-484.5 146.5,-503.5 241.5,-503.5 241.5,-484.5 146.5,-484.5"/>
<text text-anchor="middle" x="194" y="-491.5" font-family="Helvetica,sans-Serif" font-size="10.00">torus_ellipse_cs</text>
</a>
</g>
</g>
<!-- Node17&#45;&gt;Node18 -->
<g id="edge20" class="edge">
<title>Node17&#45;&gt;Node18</title>
<path fill="none" stroke="midnightblue" d="M318.23,-450.04C297.94,-457.41 272.07,-466.77 249,-475 240.3,-478.11 230.79,-481.46 222.21,-484.48"/>
<polygon fill="midnightblue" stroke="midnightblue" points="319.5,-453.3 327.7,-446.59 317.11,-446.72 319.5,-453.3"/>
</g>
<!-- Node19 -->
<g id="node19" class="node">
<title>Node19</title>
<g id="a_node19"><a xlink:href="group__shapes__revolved.html#ga69b374bbebd7d87cfcd06b6bd3278404" target="_top" xlink:title="A trapezoidal cross&#45;sectional profile revolved about the z&#45;axis.">
<polygon fill="white" stroke="black" points="139,-446.5 139,-465.5 249,-465.5 249,-446.5 139,-446.5"/>
<text text-anchor="middle" x="194" y="-453.5" font-family="Helvetica,sans-Serif" font-size="10.00">torus_pg_trapezoid</text>
</a>
</g>
</g>
<!-- Node17&#45;&gt;Node19 -->
<g id="edge21" class="edge">
<title>Node17&#45;&gt;Node19</title>
<path fill="none" stroke="midnightblue" d="M292.56,-444.34C278.23,-446.05 263.08,-447.86 249.1,-449.53"/>
<polygon fill="midnightblue" stroke="midnightblue" points="293.3,-447.78 302.82,-443.12 292.47,-440.83 293.3,-447.78"/>
</g>
<!-- Node20 -->
<g id="node20" class="node">
<title>Node20</title>
<g id="a_node20"><a xlink:href="group__shapes__revolved.html#gad587c003585db775fd441468954b7c43" target="_top" xlink:title="A rectangular cross&#45;sectional profile revolved about the z&#45;axis.">
<polygon fill="white" stroke="black" points="0,-361.5 0,-380.5 103,-380.5 103,-361.5 0,-361.5"/>
<text text-anchor="middle" x="51.5" y="-368.5" font-family="Helvetica,sans-Serif" font-size="10.00">torus_rectangle_c</text>
</a>
</g>
</g>
<!-- Node17&#45;&gt;Node20 -->
<g id="edge22" class="edge">
<title>Node17&#45;&gt;Node20</title>
<path fill="none" stroke="midnightblue" d="M300.36,-425.26C242.05,-412.49 150,-392.34 96.01,-380.52"/>
<polygon fill="midnightblue" stroke="midnightblue" points="299.96,-428.75 310.48,-427.47 301.46,-421.92 299.96,-428.75"/>
</g>
<!-- Node23&#45;&gt;Node3 -->
<g id="edge27" class="edge">
<title>Node23&#45;&gt;Node3</title>
<path fill="none" stroke="midnightblue" d="M282.27,-613.46C238.35,-613.66 182.44,-608.05 139,-584 96.52,-560.48 67.42,-506.7 56.88,-484.68"/>
<polygon fill="midnightblue" stroke="midnightblue" points="282.35,-616.96 292.3,-613.32 282.25,-609.96 282.35,-616.96"/>
</g>
<!-- Node24&#45;&gt;Node3 -->
<g id="edge30" class="edge">
<title>Node24&#45;&gt;Node3</title>
<path fill="none" stroke="midnightblue" d="M314.44,-354.85C270.66,-369.57 198.44,-395.39 139,-424 112.77,-436.63 83.95,-454.48 67.08,-465.37"/>
<polygon fill="midnightblue" stroke="midnightblue" points="315.75,-358.1 324.13,-351.61 313.54,-351.46 315.75,-358.1"/>
</g>
<!-- Node24&#45;&gt;Node22 -->
<g id="edge29" class="edge">
<title>Node24&#45;&gt;Node22</title>
<path fill="none" stroke="midnightblue" d="M314.26,-331.26C304.34,-327.76 293.98,-323.36 285,-318 266.36,-306.87 267.62,-296.16 249,-285 242.78,-281.27 235.71,-278.12 228.79,-275.53"/>
<polygon fill="midnightblue" stroke="midnightblue" points="313.37,-334.65 323.96,-334.47 315.56,-328.01 313.37,-334.65"/>
</g>
<!-- Node25 -->
<g id="node25" class="node">
<title>Node25</title>
<g id="a_node25"><a xlink:href="group__shapes__basic__2d.html#ga803b8196745be0e3a338def3c58e3b2b" target="_top" xlink:title="A rectangle with a removed rectangular core.">
<polygon fill="white" stroke="black" points="157.5,-294.5 157.5,-313.5 230.5,-313.5 230.5,-294.5 157.5,-294.5"/>
<text text-anchor="middle" x="194" y="-301.5" font-family="Helvetica,sans-Serif" font-size="10.00">rectangle_c</text>
</a>
</g>
</g>
<!-- Node24&#45;&gt;Node25 -->
<g id="edge31" class="edge">
<title>Node24&#45;&gt;Node25</title>
<path fill="none" stroke="midnightblue" d="M313.95,-332.43C288.35,-326.31 255.44,-318.44 230.73,-312.54"/>
<polygon fill="midnightblue" stroke="midnightblue" points="313.18,-335.84 323.72,-334.76 314.81,-329.03 313.18,-335.84"/>
</g>
<!-- Node25&#45;&gt;Node3 -->
<g id="edge32" class="edge">
<title>Node25&#45;&gt;Node3</title>
<path fill="none" stroke="midnightblue" d="M153.35,-318.09C148.2,-320.9 143.25,-324.19 139,-328 115.29,-349.28 119.14,-362.52 103,-390 87,-417.23 67.91,-449.23 58.44,-465.07"/>
<polygon fill="midnightblue" stroke="midnightblue" points="155.26,-321.05 162.72,-313.53 152.19,-314.76 155.26,-321.05"/>
</g>
<!-- Node25&#45;&gt;Node20 -->
<g id="edge33" class="edge">
<title>Node25&#45;&gt;Node20</title>
<path fill="none" stroke="midnightblue" d="M161.2,-317.86C153.88,-321.13 146.15,-324.64 139,-328 115.48,-339.07 88.73,-352.5 71.28,-361.37"/>
<polygon fill="midnightblue" stroke="midnightblue" points="163.11,-320.84 170.83,-313.59 160.27,-314.44 163.11,-320.84"/>
</g>
</g>
</svg>
