<?xml version="1.0" encoding="UTF-8" standalone="no"?>
<!DOCTYPE svg PUBLIC "-//W3C//DTD SVG 1.1//EN"
 "http://www.w3.org/Graphics/SVG/1.1/DTD/svg11.dtd">
<!-- Generated by graphviz version 2.43.0 (0)
 -->
<!-- Title: radial ball Pages: 1 -->
<svg width="240pt" height="35pt"
 viewBox="0.00 0.00 240.00 35.30" xmlns="http://www.w3.org/2000/svg" xmlns:xlink="http://www.w3.org/1999/xlink">
<g id="graph0" class="graph" transform="scale(1 1) rotate(0) translate(4 31.3)">
<title>radial ball</title>
<polygon fill="white" stroke="transparent" points="-4,4 -4,-31.3 236,-31.3 236,4 -4,4"/>
<!-- Node2 -->
<g id="node1" class="node">
<title>Node2</title>
<g id="a_node1"><a xlink:href="group__models__3d__bearing.html" target="_top" xlink:title="Linear and radial bearings.">
<polygon fill="white" stroke="black" points="54,-27.3 0,-27.3 0,-8.3 54,-8.3 54,-27.3"/>
<text text-anchor="middle" x="27" y="-15.3" font-family="Helvetica,sans-Serif" font-size="10.00">Bearing</text>
</a>
</g>
</g>
<!-- Node1 -->
<g id="node2" class="node">
<title>Node1</title>
<g id="a_node2"><a xlink:title="Radial ball bearing model.">
<polygon fill="#bfbfbf" stroke="black" points="232,-27.3 167,-27.3 167,-8.3 232,-8.3 232,-27.3"/>
<text text-anchor="middle" x="199.5" y="-15.3" font-family="Helvetica,sans-Serif" font-size="10.00">radial ball</text>
</a>
</g>
</g>
<!-- Node2&#45;&gt;Node1 -->
<g id="edge1" class="edge">
<title>Node2&#45;&gt;Node1</title>
<path fill="none" stroke="black" d="M64.48,-17.8C94.96,-17.8 137.98,-17.8 166.98,-17.8"/>
<polygon fill="black" stroke="black" points="64.27,-14.3 54.27,-17.8 64.27,-21.3 64.27,-14.3"/>
</g>
<!-- Node1&#45;&gt;Node2 -->
<g id="edge2" class="edge">
<title>Node1&#45;&gt;Node2</title>
<path fill="none" stroke="darkgreen" stroke-dasharray="5,2" d="M169.99,-8.3C163.19,-6.43 155.9,-4.76 149,-3.8 115.1,0.9 105.82,1.45 72,-3.8 65.82,-4.76 59.32,-6.43 53.27,-8.3"/>
<text text-anchor="middle" x="110.5" y="-6.8" font-family="Helvetica,sans-Serif" font-size="10.00">radial_ball.scad</text>
</g>
</g>
</svg>
