<?xml version="1.0" encoding="UTF-8" standalone="no"?>
<!DOCTYPE svg PUBLIC "-//W3C//DTD SVG 1.1//EN"
 "http://www.w3.org/Graphics/SVG/1.1/DTD/svg11.dtd">
<!-- Generated by graphviz version 2.43.0 (0)
 -->
<!-- Title: extrude_linear_uss Pages: 1 -->
<svg width="568pt" height="294pt"
 viewBox="0.00 0.00 568.00 294.00" xmlns="http://www.w3.org/2000/svg" xmlns:xlink="http://www.w3.org/1999/xlink">
<g id="graph0" class="graph" transform="scale(1 1) rotate(0) translate(4 290)">
<title>extrude_linear_uss</title>
<polygon fill="white" stroke="transparent" points="-4,4 -4,-290 564,-290 564,4 -4,4"/>
<!-- Node1 -->
<g id="node1" class="node">
<title>Node1</title>
<g id="a_node1"><a xlink:title="Linearly extrude a 2d shape with uniformly&#45;spaced profile scaling.">
<polygon fill="#bfbfbf" stroke="black" points="451,-57.5 451,-76.5 560,-76.5 560,-57.5 451,-57.5"/>
<text text-anchor="middle" x="505.5" y="-64.5" font-family="Helvetica,sans-Serif" font-size="10.00">extrude_linear_uss</text>
</a>
</g>
</g>
<!-- Node2 -->
<g id="node2" class="node">
<title>Node2</title>
<g id="a_node2"><a xlink:href="group__tools__extrude.html#ga45661244067bf945b684550c3263ee45" target="_top" xlink:title="Linearly extrude a 2d shape with multi&#45;segment uniformly&#45;spaced profile scaling.">
<polygon fill="white" stroke="black" points="302,-152.5 302,-171.5 415,-171.5 415,-152.5 302,-152.5"/>
<text text-anchor="middle" x="358.5" y="-159.5" font-family="Helvetica,sans-Serif" font-size="10.00">extrude_linear_mss</text>
</a>
</g>
</g>
<!-- Node1&#45;&gt;Node2 -->
<g id="edge1" class="edge">
<title>Node1&#45;&gt;Node2</title>
<path fill="none" stroke="midnightblue" d="M481.19,-82.27C451.05,-102.02 399.45,-135.82 374.24,-152.34"/>
<polygon fill="midnightblue" stroke="midnightblue" points="483.35,-85.04 489.8,-76.63 479.52,-79.18 483.35,-85.04"/>
</g>
<!-- Node5 -->
<g id="node5" class="node">
<title>Node5</title>
<g id="a_node5"><a xlink:href="group__parts__3d__enclosure__power__strip.html#ga191779dedf39e4fd769a8dc96b0f8c9e" target="_top" xlink:title="A power strip generator for single gang electrical receptacles.">
<polygon fill="white" stroke="black" points="0,-76.5 0,-95.5 90,-95.5 90,-76.5 0,-76.5"/>
<text text-anchor="middle" x="45" y="-83.5" font-family="Helvetica,sans-Serif" font-size="10.00">power_strip_sg</text>
</a>
</g>
</g>
<!-- Node1&#45;&gt;Node5 -->
<g id="edge11" class="edge">
<title>Node1&#45;&gt;Node5</title>
<path fill="none" stroke="midnightblue" d="M440.71,-62.49C365.26,-58.2 236.02,-54.11 126,-67 110.12,-68.86 92.82,-72.73 78.39,-76.49"/>
<polygon fill="midnightblue" stroke="midnightblue" points="440.8,-66 450.99,-63.1 441.22,-59.01 440.8,-66"/>
</g>
<!-- Node9 -->
<g id="node9" class="node">
<title>Node9</title>
<g id="a_node9"><a xlink:href="group__parts__3d__enclosure__project__box__rectangle.html#ga6a5d093d732e65556c46252220f2c4b6" target="_top" xlink:title="A rectangular box maker for project boxes, enclosures and housings.">
<polygon fill="white" stroke="black" points="133.5,-76.5 133.5,-95.5 258.5,-95.5 258.5,-76.5 133.5,-76.5"/>
<text text-anchor="middle" x="196" y="-83.5" font-family="Helvetica,sans-Serif" font-size="10.00">project_box_rectangle</text>
</a>
</g>
</g>
<!-- Node1&#45;&gt;Node9 -->
<g id="edge12" class="edge">
<title>Node1&#45;&gt;Node9</title>
<path fill="none" stroke="midnightblue" d="M440.9,-70.93C387.46,-74.23 311.55,-78.92 258.67,-82.19"/>
<polygon fill="midnightblue" stroke="midnightblue" points="441.17,-74.42 450.94,-70.31 440.74,-67.43 441.17,-74.42"/>
</g>
<!-- Node10 -->
<g id="node10" class="node">
<title>Node10</title>
<g id="a_node10"><a xlink:href="group__parts__3d__enclosure__mounts.html#gacac878eda32a71cb3b1b174c9aebb56c" target="_top" xlink:title="A mount tab with screw hole and support brace.">
<polygon fill="white" stroke="black" points="307,-0.5 307,-19.5 410,-19.5 410,-0.5 307,-0.5"/>
<text text-anchor="middle" x="358.5" y="-7.5" font-family="Helvetica,sans-Serif" font-size="10.00">screw_mount_tab</text>
</a>
</g>
</g>
<!-- Node1&#45;&gt;Node10 -->
<g id="edge13" class="edge">
<title>Node1&#45;&gt;Node10</title>
<path fill="none" stroke="midnightblue" d="M470.91,-53.8C444.29,-43.33 407.72,-28.95 383.85,-19.57"/>
<polygon fill="midnightblue" stroke="midnightblue" points="469.64,-57.06 480.23,-57.46 472.2,-50.54 469.64,-57.06"/>
</g>
<!-- Node3 -->
<g id="node3" class="node">
<title>Node3</title>
<g id="a_node3"><a xlink:href="group__parts__3d__fastener__catch__latch.html#gaa90b197081dba0e1fbe7c92aa4079279" target="_top" xlink:title="A catch latch generator.">
<polygon fill="white" stroke="black" points="160,-266.5 160,-285.5 232,-285.5 232,-266.5 160,-266.5"/>
<text text-anchor="middle" x="196" y="-273.5" font-family="Helvetica,sans-Serif" font-size="10.00">catch_latch</text>
</a>
</g>
</g>
<!-- Node2&#45;&gt;Node3 -->
<g id="edge2" class="edge">
<title>Node2&#45;&gt;Node3</title>
<path fill="none" stroke="midnightblue" d="M344.96,-179.99C329.05,-201.48 299.58,-237.03 266,-257 255.75,-263.1 243.48,-267.29 232.15,-270.16"/>
<polygon fill="midnightblue" stroke="midnightblue" points="347.91,-181.88 350.93,-171.72 342.24,-177.78 347.91,-181.88"/>
</g>
<!-- Node4 -->
<g id="node4" class="node">
<title>Node4</title>
<g id="a_node4"><a xlink:href="group__parts__3d__enclosure__clamps.html#ga8fd874789132e42e5470328d18560f1a" target="_top" xlink:title="A clamp, bushing, and/or grip for wire/hose wall penetrations.">
<polygon fill="white" stroke="black" points="164.5,-228.5 164.5,-247.5 227.5,-247.5 227.5,-228.5 164.5,-228.5"/>
<text text-anchor="middle" x="196" y="-235.5" font-family="Helvetica,sans-Serif" font-size="10.00">clamp_cg</text>
</a>
</g>
</g>
<!-- Node2&#45;&gt;Node4 -->
<g id="edge3" class="edge">
<title>Node2&#45;&gt;Node4</title>
<path fill="none" stroke="midnightblue" d="M336.3,-177.68C318.36,-190.33 291.55,-207.81 266,-219 253.82,-224.33 239.77,-228.53 227.54,-231.6"/>
<polygon fill="midnightblue" stroke="midnightblue" points="338.74,-180.24 344.83,-171.56 334.66,-174.55 338.74,-180.24"/>
</g>
<!-- Node6 -->
<g id="node6" class="node">
<title>Node6</title>
<g id="a_node6"><a xlink:href="group__parts__3d__bearing__bearing__linear__rod.html#ga48399d5e708b4894494c69b2d1e88e26" target="_top" xlink:title="Transform 2d or 3d shape into a linear rod ball or sled bearing.">
<polygon fill="white" stroke="black" points="126,-190.5 126,-209.5 266,-209.5 266,-190.5 126,-190.5"/>
<text text-anchor="middle" x="196" y="-197.5" font-family="Helvetica,sans-Serif" font-size="10.00">make_bearing_linear_rod</text>
</a>
</g>
</g>
<!-- Node2&#45;&gt;Node6 -->
<g id="edge5" class="edge">
<title>Node2&#45;&gt;Node6</title>
<path fill="none" stroke="midnightblue" d="M307.25,-173.9C284.69,-179.24 258.44,-185.45 237.21,-190.48"/>
<polygon fill="midnightblue" stroke="midnightblue" points="308.07,-177.3 317,-171.59 306.46,-170.49 308.07,-177.3"/>
</g>
<!-- Node7 -->
<g id="node7" class="node">
<title>Node7</title>
<g id="a_node7"><a xlink:href="group__models__3d__misc__omdl__logo.html#gab176f64dad7e83d4fb056be44b71f630" target="_top" xlink:title="Standard omdl logo.">
<polygon fill="white" stroke="black" points="162,-152.5 162,-171.5 230,-171.5 230,-152.5 162,-152.5"/>
<text text-anchor="middle" x="196" y="-159.5" font-family="Helvetica,sans-Serif" font-size="10.00">omdl_logo</text>
</a>
</g>
</g>
<!-- Node2&#45;&gt;Node7 -->
<g id="edge6" class="edge">
<title>Node2&#45;&gt;Node7</title>
<path fill="none" stroke="midnightblue" d="M291.57,-162C270.41,-162 247.89,-162 230.13,-162"/>
<polygon fill="midnightblue" stroke="midnightblue" points="291.82,-165.5 301.82,-162 291.82,-158.5 291.82,-165.5"/>
</g>
<!-- Node8 -->
<g id="node8" class="node">
<title>Node8</title>
<g id="a_node8"><a xlink:href="group__parts__3d__computer__pci__bracket.html#gaf56631cf80d8e5f0b77736b17b94ecd9" target="_top" xlink:title="PCI slot cover and adapter card bracket generator.">
<polygon fill="white" stroke="black" points="160,-114.5 160,-133.5 232,-133.5 232,-114.5 160,-114.5"/>
<text text-anchor="middle" x="196" y="-121.5" font-family="Helvetica,sans-Serif" font-size="10.00">pci_bracket</text>
</a>
</g>
</g>
<!-- Node2&#45;&gt;Node8 -->
<g id="edge8" class="edge">
<title>Node2&#45;&gt;Node8</title>
<path fill="none" stroke="midnightblue" d="M307.18,-150.09C282.77,-144.31 254.04,-137.5 232.04,-132.3"/>
<polygon fill="midnightblue" stroke="midnightblue" points="306.46,-153.51 317,-152.41 308.07,-146.7 306.46,-153.51"/>
</g>
<!-- Node2&#45;&gt;Node9 -->
<g id="edge9" class="edge">
<title>Node2&#45;&gt;Node9</title>
<path fill="none" stroke="midnightblue" d="M336.3,-146.32C318.36,-133.67 291.55,-116.19 266,-105 257.58,-101.31 248.26,-98.17 239.27,-95.56"/>
<polygon fill="midnightblue" stroke="midnightblue" points="334.66,-149.45 344.83,-152.44 338.74,-143.76 334.66,-149.45"/>
</g>
<!-- Node4&#45;&gt;Node5 -->
<g id="edge4" class="edge">
<title>Node4&#45;&gt;Node5</title>
<path fill="none" stroke="midnightblue" d="M154.4,-232.26C144.42,-229.45 134.24,-225.25 126,-219 81.99,-185.62 57.17,-120.41 49.02,-95.76"/>
<polygon fill="midnightblue" stroke="midnightblue" points="153.7,-235.69 164.24,-234.64 155.35,-228.89 153.7,-235.69"/>
</g>
<!-- Node7&#45;&gt;Node5 -->
<g id="edge7" class="edge">
<title>Node7&#45;&gt;Node5</title>
<path fill="none" stroke="midnightblue" d="M152.06,-152.69C143.24,-150.08 134.15,-146.88 126,-143 99.05,-130.18 71.56,-108.25 56.86,-95.66"/>
<polygon fill="midnightblue" stroke="midnightblue" points="151.29,-156.11 161.86,-155.38 153.14,-149.35 151.29,-156.11"/>
</g>
<!-- Node9&#45;&gt;Node5 -->
<g id="edge10" class="edge">
<title>Node9&#45;&gt;Node5</title>
<path fill="none" stroke="midnightblue" d="M122.91,-86C111.75,-86 100.52,-86 90.22,-86"/>
<polygon fill="midnightblue" stroke="midnightblue" points="123.11,-89.5 133.11,-86 123.1,-82.5 123.11,-89.5"/>
</g>
<!-- Node10&#45;&gt;Node5 -->
<g id="edge14" class="edge">
<title>Node10&#45;&gt;Node5</title>
<path fill="none" stroke="midnightblue" d="M296.62,-8.6C248.91,-9.31 181.54,-14.36 126,-34 98.83,-43.61 71.63,-64.18 57,-76.37"/>
<polygon fill="midnightblue" stroke="midnightblue" points="296.82,-12.09 306.79,-8.51 296.76,-5.09 296.82,-12.09"/>
</g>
</g>
</svg>
