<?xml version="1.0" encoding="UTF-8" standalone="no"?>
<!DOCTYPE svg PUBLIC "-//W3C//DTD SVG 1.1//EN"
 "http://www.w3.org/Graphics/SVG/1.1/DTD/svg11.dtd">
<!-- Generated by graphviz version 2.43.0 (0)
 -->
<!-- Title: clamp_cg Pages: 1 -->
<svg width="539pt" height="661pt"
 viewBox="0.00 0.00 539.00 660.86" xmlns="http://www.w3.org/2000/svg" xmlns:xlink="http://www.w3.org/1999/xlink">
<g id="graph0" class="graph" transform="scale(1 1) rotate(0) translate(4 656.86)">
<title>clamp_cg</title>
<polygon fill="white" stroke="transparent" points="-4,4 -4,-656.86 535,-656.86 535,4 -4,4"/>
<!-- Node1 -->
<g id="node1" class="node">
<title>Node1</title>
<g id="a_node1"><a xlink:title="A clamp, bushing, and/or grip for wire/hose wall penetrations.">
<polygon fill="#bfbfbf" stroke="black" points="0,-193.74 0,-212.74 63,-212.74 63,-193.74 0,-193.74"/>
<text text-anchor="middle" x="31.5" y="-200.74" font-family="Helvetica,sans-Serif" font-size="10.00">clamp_cg</text>
</a>
</g>
</g>
<!-- Node2 -->
<g id="node2" class="node">
<title>Node2</title>
<g id="a_node2"><a xlink:href="group__datatypes__binary.html#ga7ce4ed94d9b389ff817ea219918b8732" target="_top" xlink:title="Test if a binary bit position of an integer value equals a test bit.">
<polygon fill="white" stroke="black" points="278.5,-193.74 278.5,-212.74 357.5,-212.74 357.5,-193.74 278.5,-193.74"/>
<text text-anchor="middle" x="318" y="-200.74" font-family="Helvetica,sans-Serif" font-size="10.00">binary_bit_is</text>
</a>
</g>
</g>
<!-- Node1&#45;&gt;Node2 -->
<g id="edge1" class="edge">
<title>Node1&#45;&gt;Node2</title>
<path fill="none" stroke="midnightblue" d="M63.22,-203.24C112.42,-203.24 209.33,-203.24 268.12,-203.24"/>
<polygon fill="midnightblue" stroke="midnightblue" points="268.28,-206.74 278.28,-203.24 268.28,-199.74 268.28,-206.74"/>
</g>
<!-- Node3 -->
<g id="node3" class="node">
<title>Node3</title>
<g id="a_node3"><a xlink:href="group__shapes__basic__3d.html#ga8a71b8cd52ae5ef7a2510ff579734108" target="_top" xlink:title="A cone.">
<polygon fill="white" stroke="black" points="135.5,-402.74 135.5,-421.74 175.5,-421.74 175.5,-402.74 135.5,-402.74"/>
<text text-anchor="middle" x="155.5" y="-409.74" font-family="Helvetica,sans-Serif" font-size="10.00">cone</text>
</a>
</g>
</g>
<!-- Node1&#45;&gt;Node3 -->
<g id="edge2" class="edge">
<title>Node1&#45;&gt;Node3</title>
<path fill="none" stroke="midnightblue" d="M36.96,-212.77C47.15,-234.32 73.25,-288.28 99,-331.24 112.33,-353.49 129.42,-377.9 141.09,-394.05"/>
<polygon fill="midnightblue" stroke="midnightblue" points="138.55,-396.5 147.27,-402.52 144.2,-392.38 138.55,-396.5"/>
</g>
<!-- Node5 -->
<g id="node5" class="node">
<title>Node5</title>
<g id="a_node5"><a xlink:href="group__datatypes__iterable__operate.html#ga3d37c2b0067d1661724bd89955c8f6ce" target="_top" xlink:title="Return an element of an iterable when it exists or a default value otherwise.">
<polygon fill="white" stroke="black" points="438,-269.74 438,-288.74 517,-288.74 517,-269.74 438,-269.74"/>
<text text-anchor="middle" x="477.5" y="-276.74" font-family="Helvetica,sans-Serif" font-size="10.00">defined_e_or</text>
</a>
</g>
</g>
<!-- Node1&#45;&gt;Node5 -->
<g id="edge8" class="edge">
<title>Node1&#45;&gt;Node5</title>
<path fill="none" stroke="midnightblue" d="M55.14,-193.73C114.98,-170.21 280.15,-115.99 388,-184.24 419.58,-204.23 396.34,-235.1 424,-260.24 425.72,-261.81 427.58,-263.24 429.53,-264.56"/>
<polygon fill="midnightblue" stroke="midnightblue" points="428.16,-267.81 438.6,-269.64 431.58,-261.7 428.16,-267.81"/>
</g>
<!-- Node6 -->
<g id="node6" class="node">
<title>Node6</title>
<g id="a_node6"><a xlink:href="group__datatypes__scalar__test.html#ga51d7fdb800c10f4b7479d23b89ab8d22" target="_top" xlink:title="Test if a value is defined.">
<polygon fill="white" stroke="black" points="285,-497.74 285,-516.74 351,-516.74 351,-497.74 285,-497.74"/>
<text text-anchor="middle" x="318" y="-504.74" font-family="Helvetica,sans-Serif" font-size="10.00">is_defined</text>
</a>
</g>
</g>
<!-- Node1&#45;&gt;Node6 -->
<g id="edge24" class="edge">
<title>Node1&#45;&gt;Node6</title>
<path fill="none" stroke="midnightblue" d="M32.44,-212.93C32.74,-247.37 38.36,-365.45 99,-431.24 145.03,-481.19 225.63,-498.31 274.88,-504.18"/>
<polygon fill="midnightblue" stroke="midnightblue" points="274.56,-507.67 284.88,-505.27 275.32,-500.71 274.56,-507.67"/>
</g>
<!-- Node7 -->
<g id="node7" class="node">
<title>Node7</title>
<g id="a_node7"><a xlink:href="group__math__polygon.html#ga7a0eff64929a142fc507615f83e3bd58" target="_top" xlink:title="Compute coordinates that round all of the vertices between each adjacent edges in 2D.">
<polygon fill="white" stroke="black" points="248,-345.74 248,-364.74 388,-364.74 388,-345.74 248,-345.74"/>
<text text-anchor="middle" x="318" y="-352.74" font-family="Helvetica,sans-Serif" font-size="10.00">polygon_round_eve_all_p</text>
</a>
</g>
</g>
<!-- Node1&#45;&gt;Node7 -->
<g id="edge25" class="edge">
<title>Node1&#45;&gt;Node7</title>
<path fill="none" stroke="midnightblue" d="M42.2,-213.02C54.59,-225.16 77.08,-245.98 99,-260.24 156.75,-297.81 231.85,-326.77 277.13,-342.38"/>
<polygon fill="midnightblue" stroke="midnightblue" points="276.28,-345.78 286.88,-345.69 278.53,-339.16 276.28,-345.78"/>
</g>
<!-- Node9 -->
<g id="node9" class="node">
<title>Node9</title>
<g id="a_node9"><a xlink:href="group__tools__extrude.html#ga45661244067bf945b684550c3263ee45" target="_top" xlink:title="Linearly extrude a 2d shape with multi&#45;segment uniformly&#45;spaced profile scaling.">
<polygon fill="white" stroke="black" points="99,-573.74 99,-592.74 212,-592.74 212,-573.74 99,-573.74"/>
<text text-anchor="middle" x="155.5" y="-580.74" font-family="Helvetica,sans-Serif" font-size="10.00">extrude_linear_mss</text>
</a>
</g>
</g>
<!-- Node1&#45;&gt;Node9 -->
<g id="edge9" class="edge">
<title>Node1&#45;&gt;Node9</title>
<path fill="none" stroke="midnightblue" d="M33.55,-212.85C37.85,-250.13 56,-388.33 99,-493.24 109.97,-520 128.45,-547.91 141.05,-565.42"/>
<polygon fill="midnightblue" stroke="midnightblue" points="138.29,-567.58 147.03,-573.57 143.94,-563.43 138.29,-567.58"/>
</g>
<!-- Node15 -->
<g id="node15" class="node">
<title>Node15</title>
<g id="a_node15"><a xlink:href="group__tools__extrude.html#ga78405b5fa18461a302a2f24646499ece" target="_top" xlink:title="Translate, rotate, and revolve a 2d shape about the z&#45;axis with linear elongation.">
<polygon fill="white" stroke="black" points="103.5,-231.74 103.5,-250.74 207.5,-250.74 207.5,-231.74 103.5,-231.74"/>
<text text-anchor="middle" x="155.5" y="-238.74" font-family="Helvetica,sans-Serif" font-size="10.00">extrude_rotate_trl</text>
</a>
</g>
</g>
<!-- Node1&#45;&gt;Node15 -->
<g id="edge18" class="edge">
<title>Node1&#45;&gt;Node15</title>
<path fill="none" stroke="midnightblue" d="M63.29,-212.83C78.6,-217.6 97.32,-223.43 113.8,-228.57"/>
<polygon fill="midnightblue" stroke="midnightblue" points="113.14,-232.03 123.72,-231.66 115.22,-225.34 113.14,-232.03"/>
</g>
<!-- Node17 -->
<g id="node17" class="node">
<title>Node17</title>
<g id="a_node17"><a xlink:href="group__tools__repeat.html#ga543a7c0b4c744d98e6197036da5681fe" target="_top" xlink:title="Radially repeat copies of child objects about a z&#45;axis radius.">
<polygon fill="white" stroke="black" points="277.5,-3.74 277.5,-22.74 358.5,-22.74 358.5,-3.74 277.5,-3.74"/>
<text text-anchor="middle" x="318" y="-10.74" font-family="Helvetica,sans-Serif" font-size="10.00">repeat_radial</text>
</a>
</g>
</g>
<!-- Node1&#45;&gt;Node17 -->
<g id="edge26" class="edge">
<title>Node1&#45;&gt;Node17</title>
<path fill="none" stroke="midnightblue" d="M32.93,-193.42C34.82,-163.44 44.97,-72.76 99,-32.24 147.14,3.85 219.15,2.56 267.08,-3.68"/>
<polygon fill="midnightblue" stroke="midnightblue" points="266.82,-7.18 277.22,-5.12 267.81,-0.25 266.82,-7.18"/>
</g>
<!-- Node20 -->
<g id="node20" class="node">
<title>Node20</title>
<g id="a_node20"><a xlink:href="group__datatypes__iterable__operate.html#gafb1f112a3ab162d589c49d1b2de21b9e" target="_top" xlink:title="Reverse the elements of an iterable value.">
<polygon fill="white" stroke="black" points="129,-79.74 129,-98.74 182,-98.74 182,-79.74 129,-79.74"/>
<text text-anchor="middle" x="155.5" y="-86.74" font-family="Helvetica,sans-Serif" font-size="10.00">reverse</text>
</a>
</g>
</g>
<!-- Node1&#45;&gt;Node20 -->
<g id="edge30" class="edge">
<title>Node1&#45;&gt;Node20</title>
<path fill="none" stroke="midnightblue" d="M37.41,-193.53C46.99,-175.47 69.79,-136.45 99,-113.24 105.05,-108.44 112.2,-104.42 119.33,-101.12"/>
<polygon fill="midnightblue" stroke="midnightblue" points="121.07,-104.18 128.92,-97.07 118.35,-97.73 121.07,-104.18"/>
</g>
<!-- Node21 -->
<g id="node21" class="node">
<title>Node21</title>
<g id="a_node21"><a xlink:href="group__shapes__basic__2d.html#ga89c8cb6f39cf9b045091f8b0434b25d0" target="_top" xlink:title="A rhombus.">
<polygon fill="white" stroke="black" points="288.5,-117.74 288.5,-136.74 347.5,-136.74 347.5,-117.74 288.5,-117.74"/>
<text text-anchor="middle" x="318" y="-124.74" font-family="Helvetica,sans-Serif" font-size="10.00">rhombus</text>
</a>
</g>
</g>
<!-- Node1&#45;&gt;Node21 -->
<g id="edge31" class="edge">
<title>Node1&#45;&gt;Node21</title>
<path fill="none" stroke="midnightblue" d="M41.33,-193.62C53.15,-181.43 75.38,-160.86 99,-151.24 158.09,-127.19 233.23,-124.34 278.08,-125.24"/>
<polygon fill="midnightblue" stroke="midnightblue" points="278.17,-128.75 288.27,-125.53 278.37,-121.75 278.17,-128.75"/>
</g>
<!-- Node22 -->
<g id="node22" class="node">
<title>Node22</title>
<g id="a_node22"><a xlink:href="group__models__3d__fastener__screws.html#ga316ccd977e13f1f12ecb057a6466374b" target="_top" xlink:title="Flat and beveled&#45;head screw bore with nut, nut slot, and bore tolerance.">
<polygon fill="white" stroke="black" points="119.5,-41.74 119.5,-60.74 191.5,-60.74 191.5,-41.74 119.5,-41.74"/>
<text text-anchor="middle" x="155.5" y="-48.74" font-family="Helvetica,sans-Serif" font-size="10.00">screw_bore</text>
</a>
</g>
</g>
<!-- Node1&#45;&gt;Node22 -->
<g id="edge35" class="edge">
<title>Node1&#45;&gt;Node22</title>
<path fill="none" stroke="midnightblue" d="M34.62,-193.66C40.48,-169.41 59.16,-105.08 99,-70.24 102.28,-67.38 106.01,-64.94 109.95,-62.87"/>
<polygon fill="midnightblue" stroke="midnightblue" points="111.7,-65.92 119.41,-58.66 108.85,-59.52 111.7,-65.92"/>
</g>
<!-- Node4 -->
<g id="node4" class="node">
<title>Node4</title>
<g id="a_node4"><a xlink:href="group__units__angle.html#ga06a917b77748dfb74e765bcd7c4c0219" target="_top" xlink:title="Convert an angle from some units to another.">
<polygon fill="white" stroke="black" points="455.5,-231.74 455.5,-250.74 499.5,-250.74 499.5,-231.74 455.5,-231.74"/>
<text text-anchor="middle" x="477.5" y="-238.74" font-family="Helvetica,sans-Serif" font-size="10.00">angle</text>
</a>
</g>
</g>
<!-- Node3&#45;&gt;Node4 -->
<g id="edge3" class="edge">
<title>Node3&#45;&gt;Node4</title>
<path fill="none" stroke="midnightblue" d="M175.55,-411.62C225.08,-409.62 356.21,-401.78 388,-374.24 428.16,-339.46 387.21,-298.58 424,-260.24 429.8,-254.2 437.68,-250.06 445.56,-247.25"/>
<polygon fill="midnightblue" stroke="midnightblue" points="446.8,-250.53 455.4,-244.33 444.81,-243.82 446.8,-250.53"/>
</g>
<!-- Node3&#45;&gt;Node5 -->
<g id="edge4" class="edge">
<title>Node3&#45;&gt;Node5</title>
<path fill="none" stroke="midnightblue" d="M175.66,-417.32C217.25,-427.24 317.73,-445.06 388,-407.24 431.65,-383.75 458.19,-328.19 469.72,-298.59"/>
<polygon fill="midnightblue" stroke="midnightblue" points="473.1,-299.56 473.3,-288.97 466.54,-297.12 473.1,-299.56"/>
</g>
<!-- Node3&#45;&gt;Node6 -->
<g id="edge5" class="edge">
<title>Node3&#45;&gt;Node6</title>
<path fill="none" stroke="midnightblue" d="M165.4,-421.94C180.72,-438.06 213.76,-470.38 248,-488.24 256.33,-492.59 265.76,-496.03 274.92,-498.71"/>
<polygon fill="midnightblue" stroke="midnightblue" points="274.11,-502.12 284.68,-501.34 275.93,-495.36 274.11,-502.12"/>
</g>
<!-- Node3&#45;&gt;Node7 -->
<g id="edge6" class="edge">
<title>Node3&#45;&gt;Node7</title>
<path fill="none" stroke="midnightblue" d="M175.76,-405.23C194.26,-398.5 223.01,-388.1 248,-379.24 258.33,-375.59 269.54,-371.66 279.87,-368.07"/>
<polygon fill="midnightblue" stroke="midnightblue" points="281.14,-371.33 289.44,-364.75 278.85,-364.72 281.14,-371.33"/>
</g>
<!-- Node8 -->
<g id="node8" class="node">
<title>Node8</title>
<g id="a_node8"><a xlink:href="group__math__triangle.html#gaab9b812d15418fd05c9d93f3bfcc1989" target="_top" xlink:title="Compute a set of vertex coordinates for a triangle given its side lengths in 2D.">
<polygon fill="white" stroke="black" points="262.5,-459.74 262.5,-478.74 373.5,-478.74 373.5,-459.74 262.5,-459.74"/>
<text text-anchor="middle" x="318" y="-466.74" font-family="Helvetica,sans-Serif" font-size="10.00">triangle2d_sss2ppp</text>
</a>
</g>
</g>
<!-- Node3&#45;&gt;Node8 -->
<g id="edge7" class="edge">
<title>Node3&#45;&gt;Node8</title>
<path fill="none" stroke="midnightblue" d="M175.76,-419.26C194.26,-425.99 223.01,-436.39 248,-445.24 258.33,-448.9 269.54,-452.83 279.87,-456.42"/>
<polygon fill="midnightblue" stroke="midnightblue" points="278.85,-459.77 289.44,-459.74 281.14,-453.15 278.85,-459.77"/>
</g>
<!-- Node10 -->
<g id="node10" class="node">
<title>Node10</title>
<g id="a_node10"><a xlink:href="group__tools__extrude.html#gab2442cfaf1ad44d6e295ab0979d9e03d" target="_top" xlink:title="Linearly extrude a 2d shape with uniformly&#45;spaced profile scaling.">
<polygon fill="white" stroke="black" points="263.5,-573.74 263.5,-592.74 372.5,-592.74 372.5,-573.74 263.5,-573.74"/>
<text text-anchor="middle" x="318" y="-580.74" font-family="Helvetica,sans-Serif" font-size="10.00">extrude_linear_uss</text>
</a>
</g>
</g>
<!-- Node9&#45;&gt;Node10 -->
<g id="edge10" class="edge">
<title>Node9&#45;&gt;Node10</title>
<path fill="none" stroke="midnightblue" d="M212.18,-583.24C225.39,-583.24 239.57,-583.24 253.11,-583.24"/>
<polygon fill="midnightblue" stroke="midnightblue" points="253.31,-586.74 263.31,-583.24 253.31,-579.74 253.31,-586.74"/>
</g>
<!-- Node11 -->
<g id="node11" class="node">
<title>Node11</title>
<g id="a_node11"><a xlink:href="group__datatypes__iterable__operate.html#gaccab3e37e43cb1d882713b3f3d6d9e1b" target="_top" xlink:title="Return the first element of an iterable value.">
<polygon fill="white" stroke="black" points="460,-630.74 460,-649.74 495,-649.74 495,-630.74 460,-630.74"/>
<text text-anchor="middle" x="477.5" y="-637.74" font-family="Helvetica,sans-Serif" font-size="10.00">first</text>
</a>
</g>
</g>
<!-- Node9&#45;&gt;Node11 -->
<g id="edge15" class="edge">
<title>Node9&#45;&gt;Node11</title>
<path fill="none" stroke="midnightblue" d="M167.34,-592.88C183.53,-606.56 215.61,-630.98 248,-640.24 318.5,-660.41 406.31,-651.45 449.69,-644.92"/>
<polygon fill="midnightblue" stroke="midnightblue" points="450.39,-648.35 459.72,-643.33 449.3,-641.44 450.39,-648.35"/>
</g>
<!-- Node12 -->
<g id="node12" class="node">
<title>Node12</title>
<g id="a_node12"><a xlink:href="group__datatypes__scalar__test.html#ga258e8911375d30ff85a6e52df01dc1c5" target="_top" xlink:title="Test if a value is a single non&#45;iterable value.">
<polygon fill="white" stroke="black" points="448,-421.74 448,-440.74 507,-440.74 507,-421.74 448,-421.74"/>
<text text-anchor="middle" x="477.5" y="-428.74" font-family="Helvetica,sans-Serif" font-size="10.00">is_scalar</text>
</a>
</g>
</g>
<!-- Node9&#45;&gt;Node12 -->
<g id="edge16" class="edge">
<title>Node9&#45;&gt;Node12</title>
<path fill="none" stroke="midnightblue" d="M201.09,-573.71C263.71,-560.09 371.92,-535.69 388,-526.24 421.33,-506.66 449.72,-470.68 464.83,-449.06"/>
<polygon fill="midnightblue" stroke="midnightblue" points="467.75,-451 470.47,-440.77 461.96,-447.07 467.75,-451"/>
</g>
<!-- Node14 -->
<g id="node14" class="node">
<title>Node14</title>
<g id="a_node14"><a xlink:href="group__datatypes__list__operate.html#gae12565005038993506dc37249e32766d" target="_top" xlink:title="Compute the sum of a list of numbers.">
<polygon fill="white" stroke="black" points="299,-611.74 299,-630.74 337,-630.74 337,-611.74 299,-611.74"/>
<text text-anchor="middle" x="318" y="-618.74" font-family="Helvetica,sans-Serif" font-size="10.00">sum</text>
</a>
</g>
</g>
<!-- Node9&#45;&gt;Node14 -->
<g id="edge17" class="edge">
<title>Node9&#45;&gt;Node14</title>
<path fill="none" stroke="midnightblue" d="M197,-592.83C225.73,-599.64 263.55,-608.59 288.99,-614.61"/>
<polygon fill="midnightblue" stroke="midnightblue" points="288.21,-618.02 298.74,-616.92 289.82,-611.21 288.21,-618.02"/>
</g>
<!-- Node10&#45;&gt;Node5 -->
<g id="edge11" class="edge">
<title>Node10&#45;&gt;Node5</title>
<path fill="none" stroke="midnightblue" d="M335.26,-573.72C350.92,-563.76 374.19,-546.73 388,-526.24 417.7,-482.19 406.23,-462.32 424,-412.24 438.59,-371.12 457.9,-323.76 468.56,-298.12"/>
<polygon fill="midnightblue" stroke="midnightblue" points="471.82,-299.41 472.45,-288.84 465.36,-296.71 471.82,-299.41"/>
</g>
<!-- Node10&#45;&gt;Node11 -->
<g id="edge12" class="edge">
<title>Node10&#45;&gt;Node11</title>
<path fill="none" stroke="midnightblue" d="M357.25,-592.77C367.34,-595.56 378.15,-598.79 388,-602.24 409.37,-609.73 432.9,-619.93 450.32,-627.88"/>
<polygon fill="midnightblue" stroke="midnightblue" points="449.26,-631.25 459.81,-632.26 452.19,-624.89 449.26,-631.25"/>
</g>
<!-- Node10&#45;&gt;Node12 -->
<g id="edge13" class="edge">
<title>Node10&#45;&gt;Node12</title>
<path fill="none" stroke="midnightblue" d="M360.19,-573.65C369.91,-570.15 379.82,-565.46 388,-559.24 426.9,-529.66 455.01,-477.97 468.16,-450.19"/>
<polygon fill="midnightblue" stroke="midnightblue" points="471.48,-451.36 472.46,-440.81 465.11,-448.45 471.48,-451.36"/>
</g>
<!-- Node13 -->
<g id="node13" class="node">
<title>Node13</title>
<g id="a_node13"><a xlink:href="group__datatypes__iterable__operate.html#ga894d4bec62cc9cf38d5e099de3028c54" target="_top" xlink:title="Return the second element of an iterable value.">
<polygon fill="white" stroke="black" points="452,-573.74 452,-592.74 503,-592.74 503,-573.74 452,-573.74"/>
<text text-anchor="middle" x="477.5" y="-580.74" font-family="Helvetica,sans-Serif" font-size="10.00">second</text>
</a>
</g>
</g>
<!-- Node10&#45;&gt;Node13 -->
<g id="edge14" class="edge">
<title>Node10&#45;&gt;Node13</title>
<path fill="none" stroke="midnightblue" d="M372.76,-583.24C395.53,-583.24 421.4,-583.24 441.61,-583.24"/>
<polygon fill="midnightblue" stroke="midnightblue" points="441.62,-586.74 451.62,-583.24 441.62,-579.74 441.62,-586.74"/>
</g>
<!-- Node15&#45;&gt;Node2 -->
<g id="edge19" class="edge">
<title>Node15&#45;&gt;Node2</title>
<path fill="none" stroke="midnightblue" d="M197,-231.66C218.76,-226.5 245.74,-220.12 268.6,-214.7"/>
<polygon fill="midnightblue" stroke="midnightblue" points="269.52,-218.08 278.45,-212.37 267.91,-211.27 269.52,-218.08"/>
</g>
<!-- Node15&#45;&gt;Node5 -->
<g id="edge20" class="edge">
<title>Node15&#45;&gt;Node5</title>
<path fill="none" stroke="midnightblue" d="M197.31,-250.83C213.07,-254.24 231.3,-257.83 248,-260.24 309.71,-269.18 381.46,-274.3 427.85,-276.92"/>
<polygon fill="midnightblue" stroke="midnightblue" points="427.75,-280.42 437.93,-277.47 428.14,-273.43 427.75,-280.42"/>
</g>
<!-- Node15&#45;&gt;Node12 -->
<g id="edge23" class="edge">
<title>Node15&#45;&gt;Node12</title>
<path fill="none" stroke="midnightblue" d="M197.65,-250.75C202.57,-252.35 207.46,-254.18 212,-256.24 229.51,-264.19 230.98,-271.29 248,-280.24 307.31,-311.44 332.71,-298.37 388,-336.24 419.42,-357.77 447.93,-392.28 463.67,-413.24"/>
<polygon fill="midnightblue" stroke="midnightblue" points="461.05,-415.59 469.79,-421.58 466.69,-411.44 461.05,-415.59"/>
</g>
<!-- Node16 -->
<g id="node16" class="node">
<title>Node16</title>
<g id="a_node16"><a xlink:href="group__tools__extrude.html#ga31947e37a3512d9814d47f8f8c960f84" target="_top" xlink:title="Translate, rotate, and revolve a 2d shape about the z&#45;axis.">
<polygon fill="white" stroke="black" points="267.5,-231.74 267.5,-250.74 368.5,-250.74 368.5,-231.74 267.5,-231.74"/>
<text text-anchor="middle" x="318" y="-238.74" font-family="Helvetica,sans-Serif" font-size="10.00">extrude_rotate_tr</text>
</a>
</g>
</g>
<!-- Node15&#45;&gt;Node16 -->
<g id="edge21" class="edge">
<title>Node15&#45;&gt;Node16</title>
<path fill="none" stroke="midnightblue" d="M207.72,-241.24C223.38,-241.24 240.73,-241.24 256.92,-241.24"/>
<polygon fill="midnightblue" stroke="midnightblue" points="257.36,-244.74 267.36,-241.24 257.36,-237.74 257.36,-244.74"/>
</g>
<!-- Node16&#45;&gt;Node4 -->
<g id="edge22" class="edge">
<title>Node16&#45;&gt;Node4</title>
<path fill="none" stroke="midnightblue" d="M368.83,-241.24C393.93,-241.24 423.57,-241.24 445.39,-241.24"/>
<polygon fill="midnightblue" stroke="midnightblue" points="445.42,-244.74 455.42,-241.24 445.42,-237.74 445.42,-244.74"/>
</g>
<!-- Node17&#45;&gt;Node4 -->
<g id="edge27" class="edge">
<title>Node17&#45;&gt;Node4</title>
<path fill="none" stroke="midnightblue" d="M358.52,-17.74C369.05,-20.54 379.78,-25.04 388,-32.24 395.68,-38.97 448.93,-171.8 468.93,-222.13"/>
<polygon fill="midnightblue" stroke="midnightblue" points="465.73,-223.54 472.67,-231.55 472.23,-220.96 465.73,-223.54"/>
</g>
<!-- Node18 -->
<g id="node18" class="node">
<title>Node18</title>
<g id="a_node18"><a xlink:href="group__datatypes__euclidean.html#ga3d5c07c70f271bcf9144f50ce8620a89" target="_top" xlink:title="Compute the angle between two lines or vectors in a 3d or 2d&#45;space.">
<polygon fill="white" stroke="black" points="450,-79.74 450,-98.74 505,-98.74 505,-79.74 450,-79.74"/>
<text text-anchor="middle" x="477.5" y="-86.74" font-family="Helvetica,sans-Serif" font-size="10.00">angle_ll</text>
</a>
</g>
</g>
<!-- Node17&#45;&gt;Node18 -->
<g id="edge28" class="edge">
<title>Node17&#45;&gt;Node18</title>
<path fill="none" stroke="midnightblue" d="M358.77,-21.98C368.53,-24.73 378.81,-28.14 388,-32.24 412.86,-43.36 438.77,-60.85 456.08,-73.53"/>
<polygon fill="midnightblue" stroke="midnightblue" points="454.19,-76.48 464.3,-79.66 458.37,-70.87 454.19,-76.48"/>
</g>
<!-- Node19 -->
<g id="node19" class="node">
<title>Node19</title>
<g id="a_node19"><a xlink:href="group__math__polygon.html#ga6aea22d31f8f086c44c7241eee3ab4c2" target="_top" xlink:title="Compute coordinates for an n&#45;sided regular polygon in 2D.">
<polygon fill="white" stroke="black" points="424,-3.74 424,-22.74 531,-22.74 531,-3.74 424,-3.74"/>
<text text-anchor="middle" x="477.5" y="-10.74" font-family="Helvetica,sans-Serif" font-size="10.00">polygon_regular_p</text>
</a>
</g>
</g>
<!-- Node17&#45;&gt;Node19 -->
<g id="edge29" class="edge">
<title>Node17&#45;&gt;Node19</title>
<path fill="none" stroke="midnightblue" d="M358.74,-13.24C375.43,-13.24 395.24,-13.24 413.81,-13.24"/>
<polygon fill="midnightblue" stroke="midnightblue" points="413.97,-16.74 423.97,-13.24 413.97,-9.74 413.97,-16.74"/>
</g>
<!-- Node21&#45;&gt;Node5 -->
<g id="edge33" class="edge">
<title>Node21&#45;&gt;Node5</title>
<path fill="none" stroke="midnightblue" d="M347.69,-131.18C361.49,-134.45 377.32,-140.4 388,-151.24 423.79,-187.6 388.44,-223.66 424,-260.24 425.59,-261.88 427.34,-263.38 429.19,-264.75"/>
<polygon fill="midnightblue" stroke="midnightblue" points="427.52,-267.83 437.9,-269.96 431.12,-261.82 427.52,-267.83"/>
</g>
<!-- Node21&#45;&gt;Node12 -->
<g id="edge34" class="edge">
<title>Node21&#45;&gt;Node12</title>
<path fill="none" stroke="midnightblue" d="M335.26,-136.77C350.92,-146.73 374.19,-163.76 388,-184.24 417.7,-228.3 406.23,-248.17 424,-298.24 438.59,-339.37 457.9,-386.72 468.56,-412.36"/>
<polygon fill="midnightblue" stroke="midnightblue" points="465.36,-413.78 472.45,-421.65 471.82,-411.08 465.36,-413.78"/>
</g>
<!-- Node21&#45;&gt;Node18 -->
<g id="edge32" class="edge">
<title>Node21&#45;&gt;Node18</title>
<path fill="none" stroke="midnightblue" d="M347.52,-120.36C373.42,-114.11 411.75,-104.87 439.9,-98.08"/>
<polygon fill="midnightblue" stroke="midnightblue" points="440.87,-101.44 449.77,-95.69 439.22,-94.64 440.87,-101.44"/>
</g>
<!-- Node22&#45;&gt;Node5 -->
<g id="edge36" class="edge">
<title>Node22&#45;&gt;Node5</title>
<path fill="none" stroke="midnightblue" d="M191.85,-58.94C254.94,-72.8 381.03,-101.21 388,-108.24 436.87,-157.55 377.8,-208.42 424,-260.24 425.55,-261.98 427.26,-263.55 429.1,-264.99"/>
<polygon fill="midnightblue" stroke="midnightblue" points="427.5,-268.11 437.84,-270.39 431.18,-262.15 427.5,-268.11"/>
</g>
<!-- Node23 -->
<g id="node23" class="node">
<title>Node23</title>
<g id="a_node23"><a xlink:href="group__datatypes__list__operate.html#ga7b8e6f2bbfa72ae61e39377e5ca6b5be" target="_top" xlink:title="Select specified element from list or return a default.">
<polygon fill="white" stroke="black" points="288.5,-41.74 288.5,-60.74 347.5,-60.74 347.5,-41.74 288.5,-41.74"/>
<text text-anchor="middle" x="318" y="-48.74" font-family="Helvetica,sans-Serif" font-size="10.00">select_ci</text>
</a>
</g>
</g>
<!-- Node22&#45;&gt;Node23 -->
<g id="edge37" class="edge">
<title>Node22&#45;&gt;Node23</title>
<path fill="none" stroke="midnightblue" d="M191.72,-51.24C217.3,-51.24 251.91,-51.24 278.26,-51.24"/>
<polygon fill="midnightblue" stroke="midnightblue" points="278.28,-54.74 288.28,-51.24 278.28,-47.74 278.28,-54.74"/>
</g>
</g>
</svg>
