<?xml version="1.0" encoding="UTF-8" standalone="no"?>
<!DOCTYPE svg PUBLIC "-//W3C//DTD SVG 1.1//EN"
 "http://www.w3.org/Graphics/SVG/1.1/DTD/svg11.dtd">
<!-- Generated by graphviz version 2.43.0 (0)
 -->
<!-- Title: draft_axes Pages: 1 -->
<svg width="807pt" height="644pt"
 viewBox="0.00 0.00 807.00 644.42" xmlns="http://www.w3.org/2000/svg" xmlns:xlink="http://www.w3.org/1999/xlink">
<g id="graph0" class="graph" transform="scale(1 1) rotate(0) translate(4 640.42)">
<title>draft_axes</title>
<polygon fill="white" stroke="transparent" points="-4,4 -4,-640.42 803,-640.42 803,4 -4,4"/>
<!-- Node1 -->
<g id="node1" class="node">
<title>Node1</title>
<g id="a_node1"><a xlink:title="Construct drafting sheet axes.">
<polygon fill="#bfbfbf" stroke="black" points="0,-415.17 0,-434.17 67,-434.17 67,-415.17 0,-415.17"/>
<text text-anchor="middle" x="33.5" y="-422.17" font-family="Helvetica,sans-Serif" font-size="10.00">draft_axes</text>
</a>
</g>
</g>
<!-- Node2 -->
<g id="node2" class="node">
<title>Node2</title>
<g id="a_node2"><a xlink:href="group__datatypes__iterable__operate.html#ga3d37c2b0067d1661724bd89955c8f6ce" target="_top" xlink:title="Return an element of an iterable when it exists or a default value otherwise.">
<polygon fill="white" stroke="black" points="469,-567.17 469,-586.17 548,-586.17 548,-567.17 469,-567.17"/>
<text text-anchor="middle" x="508.5" y="-574.17" font-family="Helvetica,sans-Serif" font-size="10.00">defined_e_or</text>
</a>
</g>
</g>
<!-- Node1&#45;&gt;Node2 -->
<g id="edge1" class="edge">
<title>Node1&#45;&gt;Node2</title>
<path fill="none" stroke="midnightblue" d="M67.36,-421.89C110.81,-420.03 187.52,-423.27 236,-462.67 268.47,-489.06 238.59,-524.47 272,-549.67 325.79,-590.25 407.1,-589.97 458.73,-584.49"/>
<polygon fill="midnightblue" stroke="midnightblue" points="459.43,-587.94 468.96,-583.3 458.62,-580.98 459.43,-587.94"/>
</g>
<!-- Node3 -->
<g id="node3" class="node">
<title>Node3</title>
<g id="a_node3"><a xlink:href="group__tools__drafting__config.html#ga4724fc457bbb495bef8b47911f86c314" target="_top" xlink:title="Get sheet configuration value helper function.">
<polygon fill="white" stroke="black" points="106,-548.17 106,-567.17 233,-567.17 233,-548.17 106,-548.17"/>
<text text-anchor="middle" x="169.5" y="-555.17" font-family="Helvetica,sans-Serif" font-size="10.00">draft_get_sheet_config</text>
</a>
</g>
</g>
<!-- Node1&#45;&gt;Node3 -->
<g id="edge2" class="edge">
<title>Node1&#45;&gt;Node3</title>
<path fill="none" stroke="midnightblue" d="M37.53,-434.28C44.97,-456.23 66.22,-510.36 103,-538.67 105.45,-540.56 108.09,-542.26 110.85,-543.8"/>
<polygon fill="midnightblue" stroke="midnightblue" points="109.44,-547 119.98,-548.14 112.45,-540.68 109.44,-547"/>
</g>
<!-- Node4 -->
<g id="node4" class="node">
<title>Node4</title>
<g id="a_node4"><a xlink:href="group__tools__drafting__config.html#gae17eb0796fc20eb5b6d9711f9353f2f9" target="_top" xlink:title="Get sheet size value helper function.">
<polygon fill="white" stroke="black" points="111,-510.17 111,-529.17 228,-529.17 228,-510.17 111,-510.17"/>
<text text-anchor="middle" x="169.5" y="-517.17" font-family="Helvetica,sans-Serif" font-size="10.00">draft_get_sheet_size</text>
</a>
</g>
</g>
<!-- Node1&#45;&gt;Node4 -->
<g id="edge3" class="edge">
<title>Node1&#45;&gt;Node4</title>
<path fill="none" stroke="midnightblue" d="M40.61,-434.42C51.28,-450.61 74.85,-483.04 103,-500.67 106.35,-502.77 109.93,-504.64 113.64,-506.32"/>
<polygon fill="midnightblue" stroke="midnightblue" points="112.45,-509.61 123.04,-510.07 115.05,-503.11 112.45,-509.61"/>
</g>
<!-- Node5 -->
<g id="node5" class="node">
<title>Node5</title>
<g id="a_node5"><a xlink:href="group__tools__drafting__primitive.html#ga9e80066573c9e9b2b1cf6af71cf453b0" target="_top" xlink:title="Check if any identified layers are active.">
<polygon fill="white" stroke="black" points="103,-472.17 103,-491.17 236,-491.17 236,-472.17 103,-472.17"/>
<text text-anchor="middle" x="169.5" y="-479.17" font-family="Helvetica,sans-Serif" font-size="10.00">draft_layers_any_active</text>
</a>
</g>
</g>
<!-- Node1&#45;&gt;Node5 -->
<g id="edge4" class="edge">
<title>Node1&#45;&gt;Node5</title>
<path fill="none" stroke="midnightblue" d="M53.17,-434.28C66.82,-441.15 85.86,-450.42 103,-457.67 111.93,-461.45 121.68,-465.21 130.86,-468.6"/>
<polygon fill="midnightblue" stroke="midnightblue" points="129.94,-471.99 140.54,-472.11 132.33,-465.41 129.94,-471.99"/>
</g>
<!-- Node6 -->
<g id="node6" class="node">
<title>Node6</title>
<g id="a_node6"><a xlink:href="group__tools__drafting__primitive.html#ga060910368142d6371cf4f3f30be7561e" target="_top" xlink:title="Draft a line with configurable style and optional arrowheads.">
<polygon fill="white" stroke="black" points="138.5,-377.17 138.5,-396.17 200.5,-396.17 200.5,-377.17 138.5,-377.17"/>
<text text-anchor="middle" x="169.5" y="-384.17" font-family="Helvetica,sans-Serif" font-size="10.00">draft_line</text>
</a>
</g>
</g>
<!-- Node1&#45;&gt;Node6 -->
<g id="edge5" class="edge">
<title>Node1&#45;&gt;Node6</title>
<path fill="none" stroke="midnightblue" d="M67.28,-415.38C85.75,-410.14 108.97,-403.55 128.51,-398.01"/>
<polygon fill="midnightblue" stroke="midnightblue" points="129.68,-401.32 138.35,-395.22 127.77,-394.58 129.68,-401.32"/>
</g>
<!-- Node23 -->
<g id="node23" class="node">
<title>Node23</title>
<g id="a_node23"><a xlink:href="group__datatypes__scalar__test.html#ga51d7fdb800c10f4b7479d23b89ab8d22" target="_top" xlink:title="Test if a value is defined.">
<polygon fill="white" stroke="black" points="602.5,-567.17 602.5,-586.17 668.5,-586.17 668.5,-567.17 602.5,-567.17"/>
<text text-anchor="middle" x="635.5" y="-574.17" font-family="Helvetica,sans-Serif" font-size="10.00">is_defined</text>
</a>
</g>
</g>
<!-- Node1&#45;&gt;Node23 -->
<g id="edge44" class="edge">
<title>Node1&#45;&gt;Node23</title>
<path fill="none" stroke="midnightblue" d="M35.48,-434.31C38.88,-462.06 52.83,-542.36 103,-576.67 259,-683.38 505.6,-619.34 597.97,-589.47"/>
<polygon fill="midnightblue" stroke="midnightblue" points="599.29,-592.72 607.7,-586.26 597.1,-586.07 599.29,-592.72"/>
</g>
<!-- Node30 -->
<g id="node30" class="node">
<title>Node30</title>
<g id="a_node30"><a xlink:href="group__tools__drafting__primitive.html#ga9a4b6eb4b387537f7bc1cc6c4d8f4449" target="_top" xlink:title="Extrude 2D drafted constructions to 3D if configured.">
<polygon fill="white" stroke="black" points="272,-73.17 272,-92.17 429,-92.17 429,-73.17 272,-73.17"/>
<text text-anchor="middle" x="350.5" y="-80.17" font-family="Helvetica,sans-Serif" font-size="10.00">draft_make_3d_if_configured</text>
</a>
</g>
</g>
<!-- Node1&#45;&gt;Node30 -->
<g id="edge41" class="edge">
<title>Node1&#45;&gt;Node30</title>
<path fill="none" stroke="midnightblue" d="M43.76,-414.75C56.11,-402.06 79.2,-380.25 103,-367.67 157.35,-338.95 195.17,-375.64 236,-329.67 302.67,-254.61 206.16,-182.46 272,-106.67 275.24,-102.95 279.04,-99.79 283.19,-97.12"/>
<polygon fill="midnightblue" stroke="midnightblue" points="285,-100.12 292.13,-92.29 281.67,-93.96 285,-100.12"/>
</g>
<!-- Node31 -->
<g id="node31" class="node">
<title>Node31</title>
<g id="a_node31"><a xlink:href="group__datatypes__iterable__operate.html#gaccab3e37e43cb1d882713b3f3d6d9e1b" target="_top" xlink:title="Return the first element of an iterable value.">
<polygon fill="white" stroke="black" points="152,-301.17 152,-320.17 187,-320.17 187,-301.17 152,-301.17"/>
<text text-anchor="middle" x="169.5" y="-308.17" font-family="Helvetica,sans-Serif" font-size="10.00">first</text>
</a>
</g>
</g>
<!-- Node1&#45;&gt;Node31 -->
<g id="edge43" class="edge">
<title>Node1&#45;&gt;Node31</title>
<path fill="none" stroke="midnightblue" d="M39.36,-415.09C49.06,-396.9 72.51,-357.18 103,-334.67 114.5,-326.19 129.31,-320.43 141.93,-316.68"/>
<polygon fill="midnightblue" stroke="midnightblue" points="143.16,-319.98 151.91,-313.99 141.34,-313.22 143.16,-319.98"/>
</g>
<!-- Node32 -->
<g id="node32" class="node">
<title>Node32</title>
<g id="a_node32"><a xlink:href="group__datatypes__iterable__operate.html#ga894d4bec62cc9cf38d5e099de3028c54" target="_top" xlink:title="Return the second element of an iterable value.">
<polygon fill="white" stroke="black" points="144,-263.17 144,-282.17 195,-282.17 195,-263.17 144,-263.17"/>
<text text-anchor="middle" x="169.5" y="-270.17" font-family="Helvetica,sans-Serif" font-size="10.00">second</text>
</a>
</g>
</g>
<!-- Node1&#45;&gt;Node32 -->
<g id="edge45" class="edge">
<title>Node1&#45;&gt;Node32</title>
<path fill="none" stroke="midnightblue" d="M36.68,-414.97C42.7,-390.44 61.89,-325.51 103,-291.67 111.73,-284.49 123.06,-280.02 133.83,-277.24"/>
<polygon fill="midnightblue" stroke="midnightblue" points="134.86,-280.6 143.89,-275.06 133.38,-273.76 134.86,-280.6"/>
</g>
<!-- Node33 -->
<g id="node33" class="node">
<title>Node33</title>
<g id="a_node33"><a xlink:href="group__datatypes__iterable__operate.html#ga4a000b3543933067bb00c6950e9122b3" target="_top" xlink:title="Return the third element of an iterable value.">
<polygon fill="white" stroke="black" points="150,-225.17 150,-244.17 189,-244.17 189,-225.17 150,-225.17"/>
<text text-anchor="middle" x="169.5" y="-232.17" font-family="Helvetica,sans-Serif" font-size="10.00">third</text>
</a>
</g>
</g>
<!-- Node1&#45;&gt;Node33 -->
<g id="edge46" class="edge">
<title>Node1&#45;&gt;Node33</title>
<path fill="none" stroke="midnightblue" d="M35.47,-414.88C38.88,-385.77 52.99,-298.98 103,-253.67 113.01,-244.61 127.1,-239.85 139.65,-237.36"/>
<polygon fill="midnightblue" stroke="midnightblue" points="140.38,-240.78 149.71,-235.75 139.28,-233.87 140.38,-240.78"/>
</g>
<!-- Node6&#45;&gt;Node2 -->
<g id="edge8" class="edge">
<title>Node6&#45;&gt;Node2</title>
<path fill="none" stroke="midnightblue" d="M191.45,-396.31C205.62,-403.72 223.89,-415.15 236,-429.67 262.28,-461.18 240.99,-487.81 272,-514.67 286.2,-526.97 394.21,-552.08 458.91,-566.28"/>
<polygon fill="midnightblue" stroke="midnightblue" points="458.39,-569.75 468.91,-568.46 459.88,-562.91 458.39,-569.75"/>
</g>
<!-- Node7 -->
<g id="node7" class="node">
<title>Node7</title>
<g id="a_node7"><a xlink:href="group__datatypes__iterable__test.html#ga4dfc58aa5f208e103e622684db817ce6" target="_top" xlink:title="Test if all elements of an iterable value equal a comparison value.">
<polygon fill="white" stroke="black" points="320,-187.17 320,-206.17 381,-206.17 381,-187.17 320,-187.17"/>
<text text-anchor="middle" x="350.5" y="-194.17" font-family="Helvetica,sans-Serif" font-size="10.00">all_equal</text>
</a>
</g>
</g>
<!-- Node6&#45;&gt;Node7 -->
<g id="edge6" class="edge">
<title>Node6&#45;&gt;Node7</title>
<path fill="none" stroke="midnightblue" d="M200.73,-382C213.24,-378.6 226.91,-372.75 236,-362.67 279.61,-314.33 227.17,-267.89 272,-220.67 281.81,-210.34 295.98,-204.42 309.52,-201.05"/>
<polygon fill="midnightblue" stroke="midnightblue" points="310.6,-204.4 319.68,-198.93 309.17,-197.54 310.6,-204.4"/>
</g>
<!-- Node8 -->
<g id="node8" class="node">
<title>Node8</title>
<g id="a_node8"><a xlink:href="group__datatypes__euclidean.html#ga3d5c07c70f271bcf9144f50ce8620a89" target="_top" xlink:title="Compute the angle between two lines or vectors in a 3d or 2d&#45;space.">
<polygon fill="white" stroke="black" points="731.5,-320.17 731.5,-339.17 786.5,-339.17 786.5,-320.17 731.5,-320.17"/>
<text text-anchor="middle" x="759" y="-327.17" font-family="Helvetica,sans-Serif" font-size="10.00">angle_ll</text>
</a>
</g>
</g>
<!-- Node6&#45;&gt;Node8 -->
<g id="edge7" class="edge">
<title>Node6&#45;&gt;Node8</title>
<path fill="none" stroke="midnightblue" d="M200.91,-388.16C261.1,-390.51 392.72,-392.54 429,-367.67 459.83,-346.54 433.42,-311.66 465,-291.67 497.67,-271 513.49,-288.15 552,-291.67 611.93,-297.15 680.45,-311.43 721.42,-320.84"/>
<polygon fill="midnightblue" stroke="midnightblue" points="720.69,-324.26 731.22,-323.11 722.28,-317.44 720.69,-324.26"/>
</g>
<!-- Node9 -->
<g id="node9" class="node">
<title>Node9</title>
<g id="a_node9"><a xlink:href="group__tools__drafting__primitive.html#ga6f12ccd4c9de0a8ab887184911f39c8f" target="_top" xlink:title="Draft an arrowhead at the terminal point of a line.">
<polygon fill="white" stroke="black" points="314.5,-453.17 314.5,-472.17 386.5,-472.17 386.5,-453.17 314.5,-453.17"/>
<text text-anchor="middle" x="350.5" y="-460.17" font-family="Helvetica,sans-Serif" font-size="10.00">draft_arrow</text>
</a>
</g>
</g>
<!-- Node6&#45;&gt;Node9 -->
<g id="edge9" class="edge">
<title>Node6&#45;&gt;Node9</title>
<path fill="none" stroke="midnightblue" d="M186.96,-396.23C206.7,-407.43 241.01,-426.05 272,-438.67 282.39,-442.91 293.81,-446.83 304.62,-450.22"/>
<polygon fill="midnightblue" stroke="midnightblue" points="303.74,-453.61 314.33,-453.18 305.78,-446.92 303.74,-453.61"/>
</g>
<!-- Node11 -->
<g id="node11" class="node">
<title>Node11</title>
<g id="a_node11"><a xlink:href="group__tools__drafting__config.html#gabb4fa7092928ba8803b550ac6d733f64" target="_top" xlink:title="Get drafting configuration default helper function.">
<polygon fill="white" stroke="black" points="588,-130.17 588,-149.17 683,-149.17 683,-130.17 588,-130.17"/>
<text text-anchor="middle" x="635.5" y="-137.17" font-family="Helvetica,sans-Serif" font-size="10.00">draft_get_config</text>
</a>
</g>
</g>
<!-- Node6&#45;&gt;Node11 -->
<g id="edge32" class="edge">
<title>Node6&#45;&gt;Node11</title>
<path fill="none" stroke="midnightblue" d="M200.5,-382.55C213.28,-379.26 227.22,-373.33 236,-362.67 300.65,-284.15 194.63,-202.7 272,-136.67 316.49,-98.71 487.41,-117.45 577.76,-130.57"/>
<polygon fill="midnightblue" stroke="midnightblue" points="577.43,-134.06 587.84,-132.06 578.46,-127.13 577.43,-134.06"/>
</g>
<!-- Node12 -->
<g id="node12" class="node">
<title>Node12</title>
<g id="a_node12"><a xlink:href="group__tools__drafting__primitive.html#ga4e7c5fa02dbc244702042067553a9225" target="_top" xlink:title="Draft a simple line from an initial to a terminal point.">
<polygon fill="white" stroke="black" points="468.5,-225.17 468.5,-244.17 548.5,-244.17 548.5,-225.17 468.5,-225.17"/>
<text text-anchor="middle" x="508.5" y="-232.17" font-family="Helvetica,sans-Serif" font-size="10.00">draft_line_pp</text>
</a>
</g>
</g>
<!-- Node6&#45;&gt;Node12 -->
<g id="edge33" class="edge">
<title>Node6&#45;&gt;Node12</title>
<path fill="none" stroke="midnightblue" d="M200.74,-381.59C213.09,-378.13 226.65,-372.33 236,-362.67 271.49,-326.02 231.89,-285.2 272,-253.67 324.76,-212.21 406.26,-215.98 458.22,-224.1"/>
<polygon fill="midnightblue" stroke="midnightblue" points="457.76,-227.58 468.2,-225.78 458.92,-220.67 457.76,-227.58"/>
</g>
<!-- Node15 -->
<g id="node15" class="node">
<title>Node15</title>
<g id="a_node15"><a xlink:href="group__datatypes__euclidean.html#ga8115b05f16bcc197e3e339a65f4d3e49" target="_top" xlink:title="Return the initial point of a line or vector.">
<polygon fill="white" stroke="black" points="734.5,-54.17 734.5,-73.17 783.5,-73.17 783.5,-54.17 734.5,-54.17"/>
<text text-anchor="middle" x="759" y="-61.17" font-family="Helvetica,sans-Serif" font-size="10.00">line_ip</text>
</a>
</g>
</g>
<!-- Node6&#45;&gt;Node15 -->
<g id="edge35" class="edge">
<title>Node6&#45;&gt;Node15</title>
<path fill="none" stroke="midnightblue" d="M187.27,-377.04C202.68,-367.22 224.77,-350.5 236,-329.67 264.31,-277.17 227.08,-102.92 272,-63.67 402.94,50.74 638.03,-19.06 724.72,-50.63"/>
<polygon fill="midnightblue" stroke="midnightblue" points="723.71,-53.99 734.3,-54.18 726.14,-47.42 723.71,-53.99"/>
</g>
<!-- Node16 -->
<g id="node16" class="node">
<title>Node16</title>
<g id="a_node16"><a xlink:href="group__datatypes__euclidean.html#ga299bce4158dc8d0a7a8e7d9967b8ea4e" target="_top" xlink:title="Return the terminal point of a line or vector.">
<polygon fill="white" stroke="black" points="734,-453.17 734,-472.17 784,-472.17 784,-453.17 734,-453.17"/>
<text text-anchor="middle" x="759" y="-460.17" font-family="Helvetica,sans-Serif" font-size="10.00">line_tp</text>
</a>
</g>
</g>
<!-- Node6&#45;&gt;Node16 -->
<g id="edge36" class="edge">
<title>Node6&#45;&gt;Node16</title>
<path fill="none" stroke="midnightblue" d="M200.23,-396.21C212.36,-401.19 225.88,-408.24 236,-417.67 259.87,-439.92 243.83,-465.2 272,-481.67 289.64,-491.99 598.54,-485.33 683,-476.67 696.38,-475.3 710.95,-472.82 723.66,-470.31"/>
<polygon fill="midnightblue" stroke="midnightblue" points="724.73,-473.67 733.83,-468.23 723.33,-466.81 724.73,-473.67"/>
</g>
<!-- Node24 -->
<g id="node24" class="node">
<title>Node24</title>
<g id="a_node24"><a xlink:href="group__datatypes__euclidean.html#gaa686049dfa9296b441a12e225aa1537d" target="_top" xlink:title="Construct a 2 dimensional directed line.">
<polygon fill="white" stroke="black" points="472.5,-301.17 472.5,-320.17 544.5,-320.17 544.5,-301.17 472.5,-301.17"/>
<text text-anchor="middle" x="508.5" y="-308.17" font-family="Helvetica,sans-Serif" font-size="10.00">line2d_new</text>
</a>
</g>
</g>
<!-- Node6&#45;&gt;Node24 -->
<g id="edge34" class="edge">
<title>Node6&#45;&gt;Node24</title>
<path fill="none" stroke="midnightblue" d="M194.7,-396.3C243.1,-413.87 353.64,-445.41 429,-400.67 457.73,-383.62 441.55,-358.47 465,-334.67 468.39,-331.23 472.38,-328.13 476.53,-325.4"/>
<polygon fill="midnightblue" stroke="midnightblue" points="478.32,-328.4 485.14,-320.29 474.75,-322.38 478.32,-328.4"/>
</g>
<!-- Node26 -->
<g id="node26" class="node">
<title>Node26</title>
<g id="a_node26"><a xlink:href="group__datatypes__iterable__operate.html#gadb933df06b10d64dda8823069bdc84b7" target="_top" xlink:title="Return a list of all n&#45;element sequential&#45;subsets of an iterable value.">
<polygon fill="white" stroke="black" points="468.5,-149.17 468.5,-168.17 548.5,-168.17 548.5,-149.17 468.5,-149.17"/>
<text text-anchor="middle" x="508.5" y="-156.17" font-family="Helvetica,sans-Serif" font-size="10.00">sequence_ns</text>
</a>
</g>
</g>
<!-- Node6&#45;&gt;Node26 -->
<g id="edge40" class="edge">
<title>Node6&#45;&gt;Node26</title>
<path fill="none" stroke="midnightblue" d="M200.67,-382.32C213.32,-378.99 227.12,-373.09 236,-362.67 290.34,-298.93 209.56,-233.51 272,-177.67 322.74,-132.31 406.65,-137.77 459.41,-147.23"/>
<polygon fill="midnightblue" stroke="midnightblue" points="459.04,-150.72 469.52,-149.16 460.36,-143.85 459.04,-150.72"/>
</g>
<!-- Node27 -->
<g id="node27" class="node">
<title>Node27</title>
<g id="a_node27"><a xlink:href="group__datatypes__list__operate.html#gac9437fd7e3cb8797fa5e901b2ab6e58a" target="_top" xlink:title="Serially merge the elements of a list.">
<polygon fill="white" stroke="black" points="321,-339.17 321,-358.17 380,-358.17 380,-339.17 321,-339.17"/>
<text text-anchor="middle" x="350.5" y="-346.17" font-family="Helvetica,sans-Serif" font-size="10.00">merge_s</text>
</a>
</g>
</g>
<!-- Node6&#45;&gt;Node27 -->
<g id="edge37" class="edge">
<title>Node6&#45;&gt;Node27</title>
<path fill="none" stroke="midnightblue" d="M200.86,-380.23C231.11,-373.81 277.65,-363.93 310.59,-356.93"/>
<polygon fill="midnightblue" stroke="midnightblue" points="311.71,-360.27 320.77,-354.77 310.26,-353.43 311.71,-360.27"/>
</g>
<!-- Node28 -->
<g id="node28" class="node">
<title>Node28</title>
<g id="a_node28"><a xlink:href="group__math__polygon.html#gad35e17240bf9f3e0de4481ec467d599f" target="_top" xlink:title="Compute coordinates along a line in 2D.">
<polygon fill="white" stroke="black" points="305.5,-301.17 305.5,-320.17 395.5,-320.17 395.5,-301.17 305.5,-301.17"/>
<text text-anchor="middle" x="350.5" y="-308.17" font-family="Helvetica,sans-Serif" font-size="10.00">polygon_line_p</text>
</a>
</g>
</g>
<!-- Node6&#45;&gt;Node28 -->
<g id="edge38" class="edge">
<title>Node6&#45;&gt;Node28</title>
<path fill="none" stroke="midnightblue" d="M200.64,-378.37C212.17,-374.51 225.14,-369.28 236,-362.67 254.54,-351.39 252.86,-339.91 272,-329.67 279.29,-325.77 287.4,-322.66 295.55,-320.17"/>
<polygon fill="midnightblue" stroke="midnightblue" points="296.74,-323.47 305.45,-317.45 294.88,-316.73 296.74,-323.47"/>
</g>
<!-- Node29 -->
<g id="node29" class="node">
<title>Node29</title>
<g id="a_node29"><a xlink:href="group__math__polygon.html#ga6aea22d31f8f086c44c7241eee3ab4c2" target="_top" xlink:title="Compute coordinates for an n&#45;sided regular polygon in 2D.">
<polygon fill="white" stroke="black" points="297,-263.17 297,-282.17 404,-282.17 404,-263.17 297,-263.17"/>
<text text-anchor="middle" x="350.5" y="-270.17" font-family="Helvetica,sans-Serif" font-size="10.00">polygon_regular_p</text>
</a>
</g>
</g>
<!-- Node6&#45;&gt;Node29 -->
<g id="edge39" class="edge">
<title>Node6&#45;&gt;Node29</title>
<path fill="none" stroke="midnightblue" d="M200.73,-380.69C212.79,-377.09 226.13,-371.44 236,-362.67 262.45,-339.18 244.29,-313.67 272,-291.67 276.59,-288.03 281.77,-285.07 287.24,-282.68"/>
<polygon fill="midnightblue" stroke="midnightblue" points="288.5,-285.94 296.63,-279.14 286.04,-279.39 288.5,-285.94"/>
</g>
<!-- Node9&#45;&gt;Node2 -->
<g id="edge12" class="edge">
<title>Node9&#45;&gt;Node2</title>
<path fill="none" stroke="midnightblue" d="M364.06,-472.3C379.56,-484.28 406.62,-505.5 429,-524.67 445.48,-538.79 446.86,-545.76 465,-557.67 467.62,-559.39 470.42,-561.03 473.28,-562.56"/>
<polygon fill="midnightblue" stroke="midnightblue" points="472,-565.83 482.52,-567.11 475.1,-559.55 472,-565.83"/>
</g>
<!-- Node9&#45;&gt;Node8 -->
<g id="edge10" class="edge">
<title>Node9&#45;&gt;Node8</title>
<path fill="none" stroke="midnightblue" d="M381.08,-453.14C396.61,-447.07 415.23,-438.01 429,-425.67 451.6,-405.43 439.49,-384.1 465,-367.67 544.74,-316.32 662.14,-319.33 721.2,-324.96"/>
<polygon fill="midnightblue" stroke="midnightblue" points="720.88,-328.44 731.19,-325.99 721.6,-321.48 720.88,-328.44"/>
</g>
<!-- Node10 -->
<g id="node10" class="node">
<title>Node10</title>
<g id="a_node10"><a xlink:href="group__datatypes__binary.html#ga7ce4ed94d9b389ff817ea219918b8732" target="_top" xlink:title="Test if a binary bit position of an integer value equals a test bit.">
<polygon fill="white" stroke="black" points="469,-377.17 469,-396.17 548,-396.17 548,-377.17 469,-377.17"/>
<text text-anchor="middle" x="508.5" y="-384.17" font-family="Helvetica,sans-Serif" font-size="10.00">binary_bit_is</text>
</a>
</g>
</g>
<!-- Node9&#45;&gt;Node10 -->
<g id="edge11" class="edge">
<title>Node9&#45;&gt;Node10</title>
<path fill="none" stroke="midnightblue" d="M386.81,-455.27C400.54,-451.5 416.05,-446.11 429,-438.67 447.82,-427.87 446.86,-417.59 465,-405.67 467.62,-403.95 470.42,-402.32 473.28,-400.78"/>
<polygon fill="midnightblue" stroke="midnightblue" points="475.1,-403.79 482.52,-396.23 472,-397.51 475.1,-403.79"/>
</g>
<!-- Node9&#45;&gt;Node11 -->
<g id="edge13" class="edge">
<title>Node9&#45;&gt;Node11</title>
<path fill="none" stroke="midnightblue" d="M362.06,-452.95C378.86,-436.87 411.57,-402.99 429,-367.67 459.72,-305.42 420.5,-268.96 465,-215.67 492.05,-183.29 513.5,-194.94 552,-177.67 569.51,-169.82 589.03,-160.84 604.68,-153.58"/>
<polygon fill="midnightblue" stroke="midnightblue" points="606.27,-156.7 613.87,-149.31 603.33,-150.35 606.27,-156.7"/>
</g>
<!-- Node9&#45;&gt;Node12 -->
<g id="edge14" class="edge">
<title>Node9&#45;&gt;Node12</title>
<path fill="none" stroke="midnightblue" d="M360.72,-453.02C376.19,-436.5 407.74,-401.33 429,-367.67 448.96,-336.07 445.73,-323.7 465,-291.67 473.33,-277.82 484.27,-263.22 492.96,-252.26"/>
<polygon fill="midnightblue" stroke="midnightblue" points="495.79,-254.32 499.35,-244.34 490.35,-249.93 495.79,-254.32"/>
</g>
<!-- Node9&#45;&gt;Node16 -->
<g id="edge29" class="edge">
<title>Node9&#45;&gt;Node16</title>
<path fill="none" stroke="midnightblue" d="M386.51,-462.67C463.58,-462.67 647.11,-462.67 723.61,-462.67"/>
<polygon fill="midnightblue" stroke="midnightblue" points="723.67,-466.17 733.67,-462.67 723.67,-459.17 723.67,-466.17"/>
</g>
<!-- Node22 -->
<g id="node22" class="node">
<title>Node22</title>
<g id="a_node22"><a xlink:href="group__tools__operation__cs.html#gafa05aca176d441020de53da835e3dd60" target="_top" xlink:title="Conditionally apply the convex hull transformation.">
<polygon fill="white" stroke="black" points="483.5,-529.17 483.5,-548.17 533.5,-548.17 533.5,-529.17 483.5,-529.17"/>
<text text-anchor="middle" x="508.5" y="-536.17" font-family="Helvetica,sans-Serif" font-size="10.00">hull_cs</text>
</a>
</g>
</g>
<!-- Node9&#45;&gt;Node22 -->
<g id="edge26" class="edge">
<title>Node9&#45;&gt;Node22</title>
<path fill="none" stroke="midnightblue" d="M371.26,-472.3C398.45,-485.55 447.59,-509.49 478.83,-524.7"/>
<polygon fill="midnightblue" stroke="midnightblue" points="477.38,-527.89 487.9,-529.13 480.45,-521.6 477.38,-527.89"/>
</g>
<!-- Node9&#45;&gt;Node24 -->
<g id="edge28" class="edge">
<title>Node9&#45;&gt;Node24</title>
<path fill="none" stroke="midnightblue" d="M386.72,-458.85C401.41,-455.61 417.66,-449.64 429,-438.67 464.15,-404.66 433.68,-372.24 465,-334.67 467.81,-331.31 471.22,-328.32 474.87,-325.7"/>
<polygon fill="midnightblue" stroke="midnightblue" points="477.02,-328.48 483.67,-320.23 473.33,-322.53 477.02,-328.48"/>
</g>
<!-- Node25 -->
<g id="node25" class="node">
<title>Node25</title>
<g id="a_node25"><a xlink:href="group__math__polygon.html#ga0e085cf8ec515dccdeff907f84fdae55" target="_top" xlink:title="Compute coordinates of an arc with constant radius between two vectors in 2D.">
<polygon fill="white" stroke="black" points="465,-415.17 465,-434.17 552,-434.17 552,-415.17 465,-415.17"/>
<text text-anchor="middle" x="508.5" y="-422.17" font-family="Helvetica,sans-Serif" font-size="10.00">polygon_arc_p</text>
</a>
</g>
</g>
<!-- Node9&#45;&gt;Node25 -->
<g id="edge30" class="edge">
<title>Node9&#45;&gt;Node25</title>
<path fill="none" stroke="midnightblue" d="M386.51,-454.15C407.81,-448.96 435.33,-442.25 458.75,-436.55"/>
<polygon fill="midnightblue" stroke="midnightblue" points="459.61,-439.94 468.5,-434.17 457.95,-433.14 459.61,-439.94"/>
</g>
<!-- Node9&#45;&gt;Node26 -->
<g id="edge31" class="edge">
<title>Node9&#45;&gt;Node26</title>
<path fill="none" stroke="midnightblue" d="M362.22,-453.03C379.26,-437.06 412.29,-403.33 429,-367.67 464.55,-291.82 416.03,-250.63 465,-182.67 467.38,-179.37 470.37,-176.45 473.66,-173.9"/>
<polygon fill="midnightblue" stroke="midnightblue" points="475.78,-176.7 482.25,-168.3 471.96,-170.83 475.78,-176.7"/>
</g>
<!-- Node12&#45;&gt;Node11 -->
<g id="edge25" class="edge">
<title>Node12&#45;&gt;Node11</title>
<path fill="none" stroke="midnightblue" d="M528.69,-225.05C536.2,-220.97 544.73,-215.95 552,-210.67 569.56,-197.92 571.59,-191.88 588,-177.67 596.54,-170.28 606.18,-162.34 614.46,-155.63"/>
<polygon fill="midnightblue" stroke="midnightblue" points="616.9,-158.17 622.5,-149.17 612.51,-152.71 616.9,-158.17"/>
</g>
<!-- Node13 -->
<g id="node13" class="node">
<title>Node13</title>
<g id="a_node13"><a xlink:href="group__tools__align.html#ga7a21147611850c6cae7e95d23417099b" target="_top" xlink:title="Align a line or vector to a reference line or vector.">
<polygon fill="white" stroke="black" points="609.5,-225.17 609.5,-244.17 661.5,-244.17 661.5,-225.17 609.5,-225.17"/>
<text text-anchor="middle" x="635.5" y="-232.17" font-family="Helvetica,sans-Serif" font-size="10.00">align_ll</text>
</a>
</g>
</g>
<!-- Node12&#45;&gt;Node13 -->
<g id="edge15" class="edge">
<title>Node12&#45;&gt;Node13</title>
<path fill="none" stroke="midnightblue" d="M548.71,-234.67C564.76,-234.67 583.21,-234.67 598.88,-234.67"/>
<polygon fill="midnightblue" stroke="midnightblue" points="599.22,-238.17 609.22,-234.67 599.22,-231.17 599.22,-238.17"/>
</g>
<!-- Node21 -->
<g id="node21" class="node">
<title>Node21</title>
<g id="a_node21"><a xlink:href="group__datatypes__euclidean.html#gaef5b930729755b4420098776467ac210" target="_top" xlink:title="Compute the distance between two points.">
<polygon fill="white" stroke="black" points="598,-187.17 598,-206.17 673,-206.17 673,-187.17 598,-187.17"/>
<text text-anchor="middle" x="635.5" y="-194.17" font-family="Helvetica,sans-Serif" font-size="10.00">distance_pp</text>
</a>
</g>
</g>
<!-- Node12&#45;&gt;Node21 -->
<g id="edge24" class="edge">
<title>Node12&#45;&gt;Node21</title>
<path fill="none" stroke="midnightblue" d="M541.04,-225.08C556.88,-220.27 576.27,-214.37 593.28,-209.21"/>
<polygon fill="midnightblue" stroke="midnightblue" points="594.42,-212.52 602.97,-206.26 592.38,-205.82 594.42,-212.52"/>
</g>
<!-- Node13&#45;&gt;Node8 -->
<g id="edge16" class="edge">
<title>Node13&#45;&gt;Node8</title>
<path fill="none" stroke="midnightblue" d="M660.61,-244.33C668.27,-248.1 676.45,-252.92 683,-258.67 704.12,-277.23 697.67,-292.37 719,-310.67 720.72,-312.15 722.57,-313.54 724.5,-314.84"/>
<polygon fill="midnightblue" stroke="midnightblue" points="722.91,-317.97 733.3,-320.02 726.46,-311.94 722.91,-317.97"/>
</g>
<!-- Node14 -->
<g id="node14" class="node">
<title>Node14</title>
<g id="a_node14"><a xlink:href="group__datatypes__euclidean.html#ga882329ee346d5a7f9d0877afd115c3de" target="_top" xlink:title="Compute the cross product of two lines or vectors in a 3d or 2d&#45;space.">
<polygon fill="white" stroke="black" points="732.5,-168.17 732.5,-187.17 785.5,-187.17 785.5,-168.17 732.5,-168.17"/>
<text text-anchor="middle" x="759" y="-175.17" font-family="Helvetica,sans-Serif" font-size="10.00">cross_ll</text>
</a>
</g>
</g>
<!-- Node13&#45;&gt;Node14 -->
<g id="edge17" class="edge">
<title>Node13&#45;&gt;Node14</title>
<path fill="none" stroke="midnightblue" d="M661.31,-225.06C668.38,-222.18 676.05,-218.92 683,-215.67 699.39,-208.02 702.87,-204.86 719,-196.67 722.19,-195.06 725.53,-193.39 728.87,-191.74"/>
<polygon fill="midnightblue" stroke="midnightblue" points="730.66,-194.76 738.1,-187.22 727.58,-188.47 730.66,-194.76"/>
</g>
<!-- Node13&#45;&gt;Node15 -->
<g id="edge18" class="edge">
<title>Node13&#45;&gt;Node15</title>
<path fill="none" stroke="midnightblue" d="M661.92,-228.53C669.49,-225.66 677.28,-221.54 683,-215.67 714.51,-183.34 698.1,-160.7 719,-120.67 726.2,-106.89 736.11,-92.44 744.14,-81.54"/>
<polygon fill="midnightblue" stroke="midnightblue" points="747.12,-83.41 750.34,-73.31 741.53,-79.19 747.12,-83.41"/>
</g>
<!-- Node13&#45;&gt;Node16 -->
<g id="edge19" class="edge">
<title>Node13&#45;&gt;Node16</title>
<path fill="none" stroke="midnightblue" d="M641.57,-244.18C659.98,-278.73 723.54,-398.01 748.16,-444.2"/>
<polygon fill="midnightblue" stroke="midnightblue" points="745.12,-445.95 752.91,-453.13 751.3,-442.66 745.12,-445.95"/>
</g>
<!-- Node17 -->
<g id="node17" class="node">
<title>Node17</title>
<g id="a_node17"><a xlink:href="group__datatypes__list__operate.html#ga1088f9b09ff8ed12e2c844758f39c039" target="_top" xlink:title="Compute the mean/average of a list of numbers.">
<polygon fill="white" stroke="black" points="737,-130.17 737,-149.17 781,-149.17 781,-130.17 737,-130.17"/>
<text text-anchor="middle" x="759" y="-137.17" font-family="Helvetica,sans-Serif" font-size="10.00">mean</text>
</a>
</g>
</g>
<!-- Node13&#45;&gt;Node17 -->
<g id="edge20" class="edge">
<title>Node13&#45;&gt;Node17</title>
<path fill="none" stroke="midnightblue" d="M661.73,-227.62C669.12,-224.73 676.85,-220.83 683,-215.67 705.96,-196.42 696.68,-178.66 719,-158.67 721.66,-156.29 724.68,-154.14 727.82,-152.21"/>
<polygon fill="midnightblue" stroke="midnightblue" points="729.68,-155.19 736.85,-147.38 726.38,-149.01 729.68,-155.19"/>
</g>
<!-- Node18 -->
<g id="node18" class="node">
<title>Node18</title>
<g id="a_node18"><a xlink:href="group__datatypes__euclidean.html#ga78d67c74076bef2e80a95b1e9b6eb2d7" target="_top" xlink:title="Return 3d point unchanged or add a zeroed third dimension to 2d point.">
<polygon fill="white" stroke="black" points="722,-282.17 722,-301.17 796,-301.17 796,-282.17 722,-282.17"/>
<text text-anchor="middle" x="759" y="-289.17" font-family="Helvetica,sans-Serif" font-size="10.00">point_to_3d</text>
</a>
</g>
</g>
<!-- Node13&#45;&gt;Node18 -->
<g id="edge21" class="edge">
<title>Node13&#45;&gt;Node18</title>
<path fill="none" stroke="midnightblue" d="M656.84,-244.21C676.37,-253.38 706.12,-267.33 728.3,-277.74"/>
<polygon fill="midnightblue" stroke="midnightblue" points="727.06,-281.02 737.6,-282.1 730.03,-274.69 727.06,-281.02"/>
</g>
<!-- Node19 -->
<g id="node19" class="node">
<title>Node19</title>
<g id="a_node19"><a xlink:href="group__datatypes__list__operate.html#ga7b8e6f2bbfa72ae61e39377e5ca6b5be" target="_top" xlink:title="Select specified element from list or return a default.">
<polygon fill="white" stroke="black" points="729.5,-244.17 729.5,-263.17 788.5,-263.17 788.5,-244.17 729.5,-244.17"/>
<text text-anchor="middle" x="759" y="-251.17" font-family="Helvetica,sans-Serif" font-size="10.00">select_ci</text>
</a>
</g>
</g>
<!-- Node13&#45;&gt;Node19 -->
<g id="edge22" class="edge">
<title>Node13&#45;&gt;Node19</title>
<path fill="none" stroke="midnightblue" d="M661.67,-238.61C678.33,-241.21 700.5,-244.68 719.36,-247.63"/>
<polygon fill="midnightblue" stroke="midnightblue" points="719.03,-251.12 729.45,-249.21 720.11,-244.21 719.03,-251.12"/>
</g>
<!-- Node20 -->
<g id="node20" class="node">
<title>Node20</title>
<g id="a_node20"><a xlink:href="group__datatypes__euclidean.html#ga6ef2a81f304d31b9ec9753ca4875ad45" target="_top" xlink:title="Convert line to vector by shifting it to the origin.">
<polygon fill="white" stroke="black" points="719,-206.17 719,-225.17 799,-225.17 799,-206.17 719,-206.17"/>
<text text-anchor="middle" x="759" y="-213.17" font-family="Helvetica,sans-Serif" font-size="10.00">vol_to_origin</text>
</a>
</g>
</g>
<!-- Node13&#45;&gt;Node20 -->
<g id="edge23" class="edge">
<title>Node13&#45;&gt;Node20</title>
<path fill="none" stroke="midnightblue" d="M661.67,-230.74C675.37,-228.59 692.8,-225.87 709.05,-223.33"/>
<polygon fill="midnightblue" stroke="midnightblue" points="709.64,-226.78 718.98,-221.78 708.56,-219.86 709.64,-226.78"/>
</g>
<!-- Node22&#45;&gt;Node23 -->
<g id="edge27" class="edge">
<title>Node22&#45;&gt;Node23</title>
<path fill="none" stroke="midnightblue" d="M533.6,-546C550.47,-551.13 573.44,-558.11 593.2,-564.12"/>
<polygon fill="midnightblue" stroke="midnightblue" points="592.31,-567.51 602.9,-567.07 594.35,-560.81 592.31,-567.51"/>
</g>
<!-- Node30&#45;&gt;Node11 -->
<g id="edge42" class="edge">
<title>Node30&#45;&gt;Node11</title>
<path fill="none" stroke="midnightblue" d="M429.01,-87.2C466.57,-90.6 512.09,-96.49 552,-106.67 570.15,-111.3 589.64,-118.96 605.11,-125.74"/>
<polygon fill="midnightblue" stroke="midnightblue" points="604.09,-129.12 614.65,-130.02 606.96,-122.73 604.09,-129.12"/>
</g>
</g>
</svg>
