<?xml version="1.0" encoding="UTF-8" standalone="no"?>
<!DOCTYPE svg PUBLIC "-//W3C//DTD SVG 1.1//EN"
 "http://www.w3.org/Graphics/SVG/1.1/DTD/svg11.dtd">
<!-- Generated by graphviz version 2.43.0 (0)
 -->
<!-- Title: strl Pages: 1 -->
<svg width="327pt" height="142pt"
 viewBox="0.00 0.00 327.00 142.00" xmlns="http://www.w3.org/2000/svg" xmlns:xlink="http://www.w3.org/1999/xlink">
<g id="graph0" class="graph" transform="scale(1 1) rotate(0) translate(4 138)">
<title>strl</title>
<polygon fill="white" stroke="transparent" points="-4,4 -4,-138 323,-138 323,4 -4,4"/>
<!-- Node1 -->
<g id="node1" class="node">
<title>Node1</title>
<g id="a_node1"><a xlink:title="Convert a list of values to a concatenated string.">
<polygon fill="#bfbfbf" stroke="black" points="287,-57.5 287,-76.5 319,-76.5 319,-57.5 287,-57.5"/>
<text text-anchor="middle" x="303" y="-64.5" font-family="Helvetica,sans-Serif" font-size="10.00">strl</text>
</a>
</g>
</g>
<!-- Node2 -->
<g id="node2" class="node">
<title>Node2</title>
<g id="a_node2"><a xlink:href="group__parts__3d__fastener__catch__latch.html#gaa90b197081dba0e1fbe7c92aa4079279" target="_top" xlink:title="A catch latch generator.">
<polygon fill="white" stroke="black" points="152.5,-114.5 152.5,-133.5 224.5,-133.5 224.5,-114.5 152.5,-114.5"/>
<text text-anchor="middle" x="188.5" y="-121.5" font-family="Helvetica,sans-Serif" font-size="10.00">catch_latch</text>
</a>
</g>
</g>
<!-- Node1&#45;&gt;Node2 -->
<g id="edge1" class="edge">
<title>Node1&#45;&gt;Node2</title>
<path fill="none" stroke="midnightblue" d="M280.09,-82.57C271.28,-88.45 260.89,-94.93 251,-100 240.39,-105.43 228.25,-110.41 217.58,-114.41"/>
<polygon fill="midnightblue" stroke="midnightblue" points="282.32,-85.28 288.6,-76.74 278.37,-79.5 282.32,-85.28"/>
</g>
<!-- Node3 -->
<g id="node3" class="node">
<title>Node3</title>
<g id="a_node3"><a xlink:href="group__parts__3d__enclosure__power__strip.html#ga191779dedf39e4fd769a8dc96b0f8c9e" target="_top" xlink:title="A power strip generator for single gang electrical receptacles.">
<polygon fill="white" stroke="black" points="0,-57.5 0,-76.5 90,-76.5 90,-57.5 0,-57.5"/>
<text text-anchor="middle" x="45" y="-64.5" font-family="Helvetica,sans-Serif" font-size="10.00">power_strip_sg</text>
</a>
</g>
</g>
<!-- Node1&#45;&gt;Node3 -->
<g id="edge2" class="edge">
<title>Node1&#45;&gt;Node3</title>
<path fill="none" stroke="midnightblue" d="M276.48,-67C233,-67 144.03,-67 90.24,-67"/>
<polygon fill="midnightblue" stroke="midnightblue" points="276.75,-70.5 286.75,-67 276.75,-63.5 276.75,-70.5"/>
</g>
<!-- Node4 -->
<g id="node4" class="node">
<title>Node4</title>
<g id="a_node4"><a xlink:href="group__parts__3d__enclosure__project__box__rectangle.html#ga6a5d093d732e65556c46252220f2c4b6" target="_top" xlink:title="A rectangular box maker for project boxes, enclosures and housings.">
<polygon fill="white" stroke="black" points="126,-38.5 126,-57.5 251,-57.5 251,-38.5 126,-38.5"/>
<text text-anchor="middle" x="188.5" y="-45.5" font-family="Helvetica,sans-Serif" font-size="10.00">project_box_rectangle</text>
</a>
</g>
</g>
<!-- Node1&#45;&gt;Node4 -->
<g id="edge3" class="edge">
<title>Node1&#45;&gt;Node4</title>
<path fill="none" stroke="midnightblue" d="M276.83,-62.75C267.58,-61.19 256.71,-59.35 245.83,-57.51"/>
<polygon fill="midnightblue" stroke="midnightblue" points="276.38,-66.22 286.83,-64.44 277.55,-59.32 276.38,-66.22"/>
</g>
<!-- Node5 -->
<g id="node5" class="node">
<title>Node5</title>
<g id="a_node5"><a xlink:href="group__datatypes__table.html#ga8d212217f9acb803e3107f488d5523e6" target="_top" xlink:title="Write formatted map entries to the console.">
<polygon fill="white" stroke="black" points="153,-0.5 153,-19.5 224,-19.5 224,-0.5 153,-0.5"/>
<text text-anchor="middle" x="188.5" y="-7.5" font-family="Helvetica,sans-Serif" font-size="10.00">table_write</text>
</a>
</g>
</g>
<!-- Node1&#45;&gt;Node5 -->
<g id="edge5" class="edge">
<title>Node1&#45;&gt;Node5</title>
<path fill="none" stroke="midnightblue" d="M283.62,-50.9C274.34,-43.42 262.61,-34.9 251,-29 242.63,-24.75 233.13,-21.24 224.15,-18.45"/>
<polygon fill="midnightblue" stroke="midnightblue" points="281.46,-53.66 291.38,-57.38 285.95,-48.28 281.46,-53.66"/>
</g>
<!-- Node4&#45;&gt;Node3 -->
<g id="edge4" class="edge">
<title>Node4&#45;&gt;Node3</title>
<path fill="none" stroke="midnightblue" d="M115.9,-57.61C107.07,-58.8 98.26,-59.98 90.01,-61.09"/>
<polygon fill="midnightblue" stroke="midnightblue" points="116.4,-61.08 125.85,-56.28 115.47,-54.14 116.4,-61.08"/>
</g>
</g>
</svg>
