<?xml version="1.0" encoding="UTF-8" standalone="no"?>
<!DOCTYPE svg PUBLIC "-//W3C//DTD SVG 1.1//EN"
 "http://www.w3.org/Graphics/SVG/1.1/DTD/svg11.dtd">
<!-- Generated by graphviz version 2.43.0 (0)
 -->
<!-- Title: polygon_round_eve_all_p Pages: 1 -->
<svg width="712pt" height="408pt"
 viewBox="0.00 0.00 712.00 408.00" xmlns="http://www.w3.org/2000/svg" xmlns:xlink="http://www.w3.org/1999/xlink">
<g id="graph0" class="graph" transform="scale(1 1) rotate(0) translate(4 404)">
<title>polygon_round_eve_all_p</title>
<polygon fill="white" stroke="transparent" points="-4,4 -4,-404 708,-404 708,4 -4,4"/>
<!-- Node1 -->
<g id="node1" class="node">
<title>Node1</title>
<g id="a_node1"><a xlink:title="Compute coordinates that round all of the vertices between each adjacent edges in 2D.">
<polygon fill="#bfbfbf" stroke="black" points="564,-171.5 564,-190.5 704,-190.5 704,-171.5 564,-171.5"/>
<text text-anchor="middle" x="634" y="-178.5" font-family="Helvetica,sans-Serif" font-size="10.00">polygon_round_eve_all_p</text>
</a>
</g>
</g>
<!-- Node2 -->
<g id="node2" class="node">
<title>Node2</title>
<g id="a_node2"><a xlink:href="group__parts__3d__fastener__catch__latch.html#gaa90b197081dba0e1fbe7c92aa4079279" target="_top" xlink:title="A catch latch generator.">
<polygon fill="white" stroke="black" points="306,-266.5 306,-285.5 378,-285.5 378,-266.5 306,-266.5"/>
<text text-anchor="middle" x="342" y="-273.5" font-family="Helvetica,sans-Serif" font-size="10.00">catch_latch</text>
</a>
</g>
</g>
<!-- Node1&#45;&gt;Node2 -->
<g id="edge1" class="edge">
<title>Node1&#45;&gt;Node2</title>
<path fill="none" stroke="midnightblue" d="M598.17,-194.08C577.8,-201.62 551.54,-211.12 528,-219 474.94,-236.76 412.64,-255.53 375.57,-266.48"/>
<polygon fill="midnightblue" stroke="midnightblue" points="599.5,-197.32 607.66,-190.56 597.07,-190.76 599.5,-197.32"/>
</g>
<!-- Node3 -->
<g id="node3" class="node">
<title>Node3</title>
<g id="a_node3"><a xlink:href="group__parts__3d__enclosure__clamps.html#ga8fd874789132e42e5470328d18560f1a" target="_top" xlink:title="A clamp, bushing, and/or grip for wire/hose wall penetrations.">
<polygon fill="white" stroke="black" points="310.5,-380.5 310.5,-399.5 373.5,-399.5 373.5,-380.5 310.5,-380.5"/>
<text text-anchor="middle" x="342" y="-387.5" font-family="Helvetica,sans-Serif" font-size="10.00">clamp_cg</text>
</a>
</g>
</g>
<!-- Node1&#45;&gt;Node3 -->
<g id="edge2" class="edge">
<title>Node1&#45;&gt;Node3</title>
<path fill="none" stroke="midnightblue" d="M626.89,-200.45C614.49,-236.52 582.81,-313.58 528,-352 481.42,-384.65 413,-390.5 373.74,-390.88"/>
<polygon fill="midnightblue" stroke="midnightblue" points="630.31,-201.25 630.12,-190.66 623.66,-199.06 630.31,-201.25"/>
</g>
<!-- Node5 -->
<g id="node5" class="node">
<title>Node5</title>
<g id="a_node5"><a xlink:href="group__shapes__basic__3d.html#ga8a71b8cd52ae5ef7a2510ff579734108" target="_top" xlink:title="A cone.">
<polygon fill="white" stroke="black" points="460.5,-323.5 460.5,-342.5 500.5,-342.5 500.5,-323.5 460.5,-323.5"/>
<text text-anchor="middle" x="480.5" y="-330.5" font-family="Helvetica,sans-Serif" font-size="10.00">cone</text>
</a>
</g>
</g>
<!-- Node1&#45;&gt;Node5 -->
<g id="edge4" class="edge">
<title>Node1&#45;&gt;Node5</title>
<path fill="none" stroke="midnightblue" d="M619.61,-198.59C600.67,-222.87 564.31,-267.34 528,-300 518.28,-308.74 506.23,-317.24 496.82,-323.42"/>
<polygon fill="midnightblue" stroke="midnightblue" points="622.42,-200.67 625.76,-190.62 616.88,-196.39 622.42,-200.67"/>
</g>
<!-- Node6 -->
<g id="node6" class="node">
<title>Node6</title>
<g id="a_node6"><a xlink:href="group__models__3d__misc__omdl__logo.html#gab176f64dad7e83d4fb056be44b71f630" target="_top" xlink:title="Standard omdl logo.">
<polygon fill="white" stroke="black" points="308,-304.5 308,-323.5 376,-323.5 376,-304.5 308,-304.5"/>
<text text-anchor="middle" x="342" y="-311.5" font-family="Helvetica,sans-Serif" font-size="10.00">omdl_logo</text>
</a>
</g>
</g>
<!-- Node1&#45;&gt;Node6 -->
<g id="edge9" class="edge">
<title>Node1&#45;&gt;Node6</title>
<path fill="none" stroke="midnightblue" d="M611.23,-196.59C590.52,-210.95 558.14,-232.21 528,-247 472.33,-274.32 455.36,-274.04 397,-295 388.3,-298.12 378.8,-301.49 370.22,-304.5"/>
<polygon fill="midnightblue" stroke="midnightblue" points="613.43,-199.32 619.61,-190.71 609.41,-193.59 613.43,-199.32"/>
</g>
<!-- Node7 -->
<g id="node7" class="node">
<title>Node7</title>
<g id="a_node7"><a xlink:href="group__shapes__polygon.html#ga1151092c15142c227983e6bd481872b3" target="_top" xlink:title="A n&#45;sided regular polygon with vertex rounding.">
<polygon fill="white" stroke="black" points="451.5,-114.5 451.5,-133.5 509.5,-133.5 509.5,-114.5 451.5,-114.5"/>
<text text-anchor="middle" x="480.5" y="-121.5" font-family="Helvetica,sans-Serif" font-size="10.00">pg_ngon</text>
</a>
</g>
</g>
<!-- Node1&#45;&gt;Node7 -->
<g id="edge10" class="edge">
<title>Node1&#45;&gt;Node7</title>
<path fill="none" stroke="midnightblue" d="M598.27,-167.93C570.43,-157.46 531.99,-142.99 506.94,-133.57"/>
<polygon fill="midnightblue" stroke="midnightblue" points="597.05,-171.21 607.64,-171.46 599.52,-164.66 597.05,-171.21"/>
</g>
<!-- Node8 -->
<g id="node8" class="node">
<title>Node8</title>
<g id="a_node8"><a xlink:href="group__shapes__polygon.html#ga9c1bd914355d92f9d66ba0e5c2d9dbac" target="_top" xlink:title="A polygon rectangle with vertex rounding.">
<polygon fill="white" stroke="black" points="440.5,-190.5 440.5,-209.5 520.5,-209.5 520.5,-190.5 440.5,-190.5"/>
<text text-anchor="middle" x="480.5" y="-197.5" font-family="Helvetica,sans-Serif" font-size="10.00">pg_rectangle</text>
</a>
</g>
</g>
<!-- Node1&#45;&gt;Node8 -->
<g id="edge11" class="edge">
<title>Node1&#45;&gt;Node8</title>
<path fill="none" stroke="midnightblue" d="M553.8,-190.93C542.3,-192.38 530.91,-193.8 520.69,-195.09"/>
<polygon fill="midnightblue" stroke="midnightblue" points="554.41,-194.38 563.9,-189.67 553.54,-187.44 554.41,-194.38"/>
</g>
<!-- Node11 -->
<g id="node11" class="node">
<title>Node11</title>
<g id="a_node11"><a xlink:href="group__shapes__polygon.html#ga2ca38d6942a8955d3b483d1a60bf7ec3" target="_top" xlink:title="A polygon rhombus with vertex rounding.">
<polygon fill="white" stroke="black" points="442,-76.5 442,-95.5 519,-95.5 519,-76.5 442,-76.5"/>
<text text-anchor="middle" x="480.5" y="-83.5" font-family="Helvetica,sans-Serif" font-size="10.00">pg_rhombus</text>
</a>
</g>
</g>
<!-- Node1&#45;&gt;Node11 -->
<g id="edge17" class="edge">
<title>Node1&#45;&gt;Node11</title>
<path fill="none" stroke="midnightblue" d="M613.77,-164.91C593.4,-148.4 559.84,-122.69 528,-105 521.75,-101.53 514.73,-98.33 508.08,-95.59"/>
<polygon fill="midnightblue" stroke="midnightblue" points="611.7,-167.74 621.65,-171.37 616.13,-162.32 611.7,-167.74"/>
</g>
<!-- Node12 -->
<g id="node12" class="node">
<title>Node12</title>
<g id="a_node12"><a xlink:href="group__shapes__polygon.html#ga155ae943a1aa91432b1992fd1de364c2" target="_top" xlink:title="A polygon trapezoid with individual vertex rounding and arc facets.">
<polygon fill="white" stroke="black" points="440.5,-38.5 440.5,-57.5 520.5,-57.5 520.5,-38.5 440.5,-38.5"/>
<text text-anchor="middle" x="480.5" y="-45.5" font-family="Helvetica,sans-Serif" font-size="10.00">pg_trapezoid</text>
</a>
</g>
</g>
<!-- Node1&#45;&gt;Node12 -->
<g id="edge18" class="edge">
<title>Node1&#45;&gt;Node12</title>
<path fill="none" stroke="midnightblue" d="M620.45,-163.04C602.47,-138.44 567.19,-94.23 528,-67 522.7,-63.32 516.58,-60.18 510.55,-57.57"/>
<polygon fill="midnightblue" stroke="midnightblue" points="617.8,-165.34 626.47,-171.43 623.49,-161.26 617.8,-165.34"/>
</g>
<!-- Node14 -->
<g id="node14" class="node">
<title>Node14</title>
<g id="a_node14"><a xlink:href="group__shapes__polygon.html#gac7e2c70b3428b729efd86a675df794e6" target="_top" xlink:title="A polygon triangle specified by three coordinate points with vertex rounding.">
<polygon fill="white" stroke="black" points="433,-152.5 433,-171.5 528,-171.5 528,-152.5 433,-152.5"/>
<text text-anchor="middle" x="480.5" y="-159.5" font-family="Helvetica,sans-Serif" font-size="10.00">pg_triangle_ppp</text>
</a>
</g>
</g>
<!-- Node1&#45;&gt;Node14 -->
<g id="edge20" class="edge">
<title>Node1&#45;&gt;Node14</title>
<path fill="none" stroke="midnightblue" d="M553.73,-171.06C545.07,-169.97 536.48,-168.89 528.39,-167.88"/>
<polygon fill="midnightblue" stroke="midnightblue" points="553.54,-174.56 563.9,-172.33 554.41,-167.62 553.54,-174.56"/>
</g>
<!-- Node19 -->
<g id="node19" class="node">
<title>Node19</title>
<g id="a_node19"><a xlink:href="group__shapes__basic__2d.html#ga7452bf5414a3677ec806a31aed6b61dd" target="_top" xlink:title="A two&#45;dimensional star.">
<polygon fill="white" stroke="black" points="457,-0.5 457,-19.5 504,-19.5 504,-0.5 457,-0.5"/>
<text text-anchor="middle" x="480.5" y="-7.5" font-family="Helvetica,sans-Serif" font-size="10.00">star2d</text>
</a>
</g>
</g>
<!-- Node1&#45;&gt;Node19 -->
<g id="edge27" class="edge">
<title>Node1&#45;&gt;Node19</title>
<path fill="none" stroke="midnightblue" d="M624.39,-161.95C609.18,-130.28 574.71,-66.55 528,-29 521.07,-23.43 512.28,-19.28 504.21,-16.3"/>
<polygon fill="midnightblue" stroke="midnightblue" points="621.39,-163.8 628.79,-171.38 627.73,-160.84 621.39,-163.8"/>
</g>
<!-- Node4 -->
<g id="node4" class="node">
<title>Node4</title>
<g id="a_node4"><a xlink:href="group__parts__3d__enclosure__power__strip.html#ga191779dedf39e4fd769a8dc96b0f8c9e" target="_top" xlink:title="A power strip generator for single gang electrical receptacles.">
<polygon fill="white" stroke="black" points="0,-304.5 0,-323.5 90,-323.5 90,-304.5 0,-304.5"/>
<text text-anchor="middle" x="45" y="-311.5" font-family="Helvetica,sans-Serif" font-size="10.00">power_strip_sg</text>
</a>
</g>
</g>
<!-- Node3&#45;&gt;Node4 -->
<g id="edge3" class="edge">
<title>Node3&#45;&gt;Node4</title>
<path fill="none" stroke="midnightblue" d="M300.39,-390.97C256.2,-390.79 184.11,-386.8 126,-366 98.86,-356.29 71.66,-335.75 57.01,-323.6"/>
<polygon fill="midnightblue" stroke="midnightblue" points="300.46,-394.47 310.45,-390.95 300.45,-387.47 300.46,-394.47"/>
</g>
<!-- Node5&#45;&gt;Node3 -->
<g id="edge5" class="edge">
<title>Node5&#45;&gt;Node3</title>
<path fill="none" stroke="midnightblue" d="M450.8,-344.98C425.51,-355.54 389.16,-370.72 365.81,-380.48"/>
<polygon fill="midnightblue" stroke="midnightblue" points="452.35,-348.13 460.23,-341.05 449.66,-341.67 452.35,-348.13"/>
</g>
<!-- Node5&#45;&gt;Node4 -->
<g id="edge8" class="edge">
<title>Node5&#45;&gt;Node4</title>
<path fill="none" stroke="midnightblue" d="M450.27,-334.32C389.63,-336.67 245.81,-340.28 126,-328 114.36,-326.81 101.86,-324.92 90.27,-322.9"/>
<polygon fill="midnightblue" stroke="midnightblue" points="450.42,-337.82 460.27,-333.91 450.14,-330.82 450.42,-337.82"/>
</g>
<!-- Node5&#45;&gt;Node6 -->
<g id="edge6" class="edge">
<title>Node5&#45;&gt;Node6</title>
<path fill="none" stroke="midnightblue" d="M450.25,-328.93C428.48,-325.9 398.75,-321.76 376.11,-318.61"/>
<polygon fill="midnightblue" stroke="midnightblue" points="449.85,-332.41 460.23,-330.32 450.81,-325.47 449.85,-332.41"/>
</g>
<!-- Node6&#45;&gt;Node4 -->
<g id="edge7" class="edge">
<title>Node6&#45;&gt;Node4</title>
<path fill="none" stroke="midnightblue" d="M297.5,-314C241.88,-314 146.09,-314 90.15,-314"/>
<polygon fill="midnightblue" stroke="midnightblue" points="297.73,-317.5 307.73,-314 297.73,-310.5 297.73,-317.5"/>
</g>
<!-- Node8&#45;&gt;Node2 -->
<g id="edge12" class="edge">
<title>Node8&#45;&gt;Node2</title>
<path fill="none" stroke="midnightblue" d="M455.33,-215C448.14,-219.49 440.24,-224.43 433,-229 416.94,-239.13 413.72,-243.01 397,-252 387.24,-257.25 376.11,-262.34 366.49,-266.47"/>
<polygon fill="midnightblue" stroke="midnightblue" points="457.33,-217.88 463.97,-209.62 453.63,-211.94 457.33,-217.88"/>
</g>
<!-- Node9 -->
<g id="node9" class="node">
<title>Node9</title>
<g id="a_node9"><a xlink:href="group__parts__3d__enclosure__project__box__rectangle.html#ga6a5d093d732e65556c46252220f2c4b6" target="_top" xlink:title="A rectangular box maker for project boxes, enclosures and housings.">
<polygon fill="white" stroke="black" points="126,-190.5 126,-209.5 251,-209.5 251,-190.5 126,-190.5"/>
<text text-anchor="middle" x="188.5" y="-197.5" font-family="Helvetica,sans-Serif" font-size="10.00">project_box_rectangle</text>
</a>
</g>
</g>
<!-- Node8&#45;&gt;Node9 -->
<g id="edge13" class="edge">
<title>Node8&#45;&gt;Node9</title>
<path fill="none" stroke="midnightblue" d="M430.28,-200C380.89,-200 304.68,-200 251.26,-200"/>
<polygon fill="midnightblue" stroke="midnightblue" points="430.39,-203.5 440.39,-200 430.39,-196.5 430.39,-203.5"/>
</g>
<!-- Node10 -->
<g id="node10" class="node">
<title>Node10</title>
<g id="a_node10"><a xlink:href="group__parts__3d__enclosure__mounts.html#gacac878eda32a71cb3b1b174c9aebb56c" target="_top" xlink:title="A mount tab with screw hole and support brace.">
<polygon fill="white" stroke="black" points="137,-228.5 137,-247.5 240,-247.5 240,-228.5 137,-228.5"/>
<text text-anchor="middle" x="188.5" y="-235.5" font-family="Helvetica,sans-Serif" font-size="10.00">screw_mount_tab</text>
</a>
</g>
</g>
<!-- Node8&#45;&gt;Node10 -->
<g id="edge15" class="edge">
<title>Node8&#45;&gt;Node10</title>
<path fill="none" stroke="midnightblue" d="M429.95,-208.85C419.11,-210.66 407.68,-212.48 397,-214 343.69,-221.6 282.4,-228.46 240.34,-232.88"/>
<polygon fill="midnightblue" stroke="midnightblue" points="430.85,-212.24 440.12,-207.12 429.68,-205.34 430.85,-212.24"/>
</g>
<!-- Node9&#45;&gt;Node4 -->
<g id="edge14" class="edge">
<title>Node9&#45;&gt;Node4</title>
<path fill="none" stroke="midnightblue" d="M135.78,-213.51C132.36,-215.14 129.07,-216.97 126,-219 90.95,-242.23 62.88,-285.19 51.49,-304.35"/>
<polygon fill="midnightblue" stroke="midnightblue" points="137.17,-216.72 145.02,-209.6 134.45,-210.27 137.17,-216.72"/>
</g>
<!-- Node10&#45;&gt;Node4 -->
<g id="edge16" class="edge">
<title>Node10&#45;&gt;Node4</title>
<path fill="none" stroke="midnightblue" d="M160.59,-252.46C132.16,-267.72 88.15,-291.36 63.78,-304.45"/>
<polygon fill="midnightblue" stroke="midnightblue" points="162.43,-255.44 169.58,-247.63 159.11,-249.27 162.43,-255.44"/>
</g>
<!-- Node13 -->
<g id="node13" class="node">
<title>Node13</title>
<g id="a_node13"><a xlink:href="group__shapes__revolved.html#ga69b374bbebd7d87cfcd06b6bd3278404" target="_top" xlink:title="A trapezoidal cross&#45;sectional profile revolved about the z&#45;axis.">
<polygon fill="white" stroke="black" points="287,-0.5 287,-19.5 397,-19.5 397,-0.5 287,-0.5"/>
<text text-anchor="middle" x="342" y="-7.5" font-family="Helvetica,sans-Serif" font-size="10.00">torus_pg_trapezoid</text>
</a>
</g>
</g>
<!-- Node12&#45;&gt;Node13 -->
<g id="edge19" class="edge">
<title>Node12&#45;&gt;Node13</title>
<path fill="none" stroke="midnightblue" d="M435.25,-35.68C416.5,-30.46 394.97,-24.47 377.43,-19.59"/>
<polygon fill="midnightblue" stroke="midnightblue" points="434.48,-39.1 445.06,-38.41 436.36,-32.36 434.48,-39.1"/>
</g>
<!-- Node15 -->
<g id="node15" class="node">
<title>Node15</title>
<g id="a_node15"><a xlink:href="group__shapes__polygon.html#gad85d14f73179499777da1e9297fbcae8" target="_top" xlink:title="A polygon triangle specified by angle&#45;angle&#45;size with vertex rounding.">
<polygon fill="white" stroke="black" points="295,-114.5 295,-133.5 389,-133.5 389,-114.5 295,-114.5"/>
<text text-anchor="middle" x="342" y="-121.5" font-family="Helvetica,sans-Serif" font-size="10.00">pg_triangle_aas</text>
</a>
</g>
</g>
<!-- Node14&#45;&gt;Node15 -->
<g id="edge21" class="edge">
<title>Node14&#45;&gt;Node15</title>
<path fill="none" stroke="midnightblue" d="M435.25,-149.68C416.5,-144.46 394.97,-138.47 377.43,-133.59"/>
<polygon fill="midnightblue" stroke="midnightblue" points="434.48,-153.1 445.06,-152.41 436.36,-146.36 434.48,-153.1"/>
</g>
<!-- Node16 -->
<g id="node16" class="node">
<title>Node16</title>
<g id="a_node16"><a xlink:href="group__shapes__polygon.html#ga45e8a17aef3dd6755f833f25a8937cf7" target="_top" xlink:title="A polygon triangle specified by angle&#45;size&#45;angle with vertex rounding.">
<polygon fill="white" stroke="black" points="295,-76.5 295,-95.5 389,-95.5 389,-76.5 295,-76.5"/>
<text text-anchor="middle" x="342" y="-83.5" font-family="Helvetica,sans-Serif" font-size="10.00">pg_triangle_asa</text>
</a>
</g>
</g>
<!-- Node14&#45;&gt;Node16 -->
<g id="edge22" class="edge">
<title>Node14&#45;&gt;Node16</title>
<path fill="none" stroke="midnightblue" d="M441.2,-147.93C438.35,-146.41 435.58,-144.77 433,-143 413.8,-129.86 416.52,-117.66 397,-105 391.16,-101.21 384.48,-98.08 377.85,-95.52"/>
<polygon fill="midnightblue" stroke="midnightblue" points="439.95,-151.21 450.49,-152.37 442.98,-144.9 439.95,-151.21"/>
</g>
<!-- Node17 -->
<g id="node17" class="node">
<title>Node17</title>
<g id="a_node17"><a xlink:href="group__shapes__polygon.html#ga24be160074502dce7ff8a78361d4b074" target="_top" xlink:title="A polygon triangle specified by size&#45;angle&#45;size with vertex rounding.">
<polygon fill="white" stroke="black" points="295.5,-152.5 295.5,-171.5 388.5,-171.5 388.5,-152.5 295.5,-152.5"/>
<text text-anchor="middle" x="342" y="-159.5" font-family="Helvetica,sans-Serif" font-size="10.00">pg_triangle_sas</text>
</a>
</g>
</g>
<!-- Node14&#45;&gt;Node17 -->
<g id="edge23" class="edge">
<title>Node14&#45;&gt;Node17</title>
<path fill="none" stroke="midnightblue" d="M422.72,-162C411.46,-162 399.77,-162 388.92,-162"/>
<polygon fill="midnightblue" stroke="midnightblue" points="422.91,-165.5 432.91,-162 422.91,-158.5 422.91,-165.5"/>
</g>
<!-- Node18 -->
<g id="node18" class="node">
<title>Node18</title>
<g id="a_node18"><a xlink:href="group__shapes__polygon.html#gab9843df753e0537b490ac67cec6e31a9" target="_top" xlink:title="A polygon triangle specified by three side lengths with vertex rounding.">
<polygon fill="white" stroke="black" points="296,-38.5 296,-57.5 388,-57.5 388,-38.5 296,-38.5"/>
<text text-anchor="middle" x="342" y="-45.5" font-family="Helvetica,sans-Serif" font-size="10.00">pg_triangle_sss</text>
</a>
</g>
</g>
<!-- Node14&#45;&gt;Node18 -->
<g id="edge26" class="edge">
<title>Node14&#45;&gt;Node18</title>
<path fill="none" stroke="midnightblue" d="M438.33,-147.32C436.44,-146 434.65,-144.56 433,-143 405.86,-117.3 424.77,-92.02 397,-67 392.72,-63.14 387.6,-60.06 382.26,-57.59"/>
<polygon fill="midnightblue" stroke="midnightblue" points="436.7,-150.43 447.1,-152.44 440.23,-144.38 436.7,-150.43"/>
</g>
<!-- Node17&#45;&gt;Node9 -->
<g id="edge24" class="edge">
<title>Node17&#45;&gt;Node9</title>
<path fill="none" stroke="midnightblue" d="M293,-174.04C271.83,-179.35 247.31,-185.5 227.45,-190.48"/>
<polygon fill="midnightblue" stroke="midnightblue" points="293.92,-177.42 302.77,-171.59 292.22,-170.63 293.92,-177.42"/>
</g>
<!-- Node17&#45;&gt;Node10 -->
<g id="edge25" class="edge">
<title>Node17&#45;&gt;Node10</title>
<path fill="none" stroke="midnightblue" d="M319.79,-177.71C302.11,-190.24 275.89,-207.52 251,-219 243.19,-222.6 234.51,-225.76 226.19,-228.41"/>
<polygon fill="midnightblue" stroke="midnightblue" points="322.14,-180.33 328.21,-171.65 318.05,-174.65 322.14,-180.33"/>
</g>
</g>
</svg>
