<?xml version="1.0" encoding="UTF-8" standalone="no"?>
<!DOCTYPE svg PUBLIC "-//W3C//DTD SVG 1.1//EN"
 "http://www.w3.org/Graphics/SVG/1.1/DTD/svg11.dtd">
<!-- Generated by graphviz version 2.43.0 (0)
 -->
<!-- Title: draft_dim_center Pages: 1 -->
<svg width="813pt" height="740pt"
 viewBox="0.00 0.00 813.00 740.00" xmlns="http://www.w3.org/2000/svg" xmlns:xlink="http://www.w3.org/1999/xlink">
<g id="graph0" class="graph" transform="scale(1 1) rotate(0) translate(4 736)">
<title>draft_dim_center</title>
<polygon fill="white" stroke="transparent" points="-4,4 -4,-736 809,-736 809,4 -4,4"/>
<!-- Node1 -->
<g id="node1" class="node">
<title>Node1</title>
<g id="a_node1"><a xlink:title="Construct a center mark dimension cross.">
<polygon fill="#bfbfbf" stroke="black" points="0,-247.5 0,-266.5 99,-266.5 99,-247.5 0,-247.5"/>
<text text-anchor="middle" x="49.5" y="-254.5" font-family="Helvetica,sans-Serif" font-size="10.00">draft_dim_center</text>
</a>
</g>
</g>
<!-- Node2 -->
<g id="node2" class="node">
<title>Node2</title>
<g id="a_node2"><a xlink:href="group__datatypes__euclidean.html#ga3d5c07c70f271bcf9144f50ce8620a89" target="_top" xlink:title="Compute the angle between two lines or vectors in a 3d or 2d&#45;space.">
<polygon fill="white" stroke="black" points="737.5,-612.5 737.5,-631.5 792.5,-631.5 792.5,-612.5 737.5,-612.5"/>
<text text-anchor="middle" x="765" y="-619.5" font-family="Helvetica,sans-Serif" font-size="10.00">angle_ll</text>
</a>
</g>
</g>
<!-- Node1&#45;&gt;Node2 -->
<g id="edge1" class="edge">
<title>Node1&#45;&gt;Node2</title>
<path fill="none" stroke="midnightblue" d="M51.2,-266.54C54.41,-304.71 70.45,-448.84 135,-543 212.86,-656.57 242.8,-732 380.5,-732 380.5,-732 380.5,-732 515.5,-732 596.53,-732 616.69,-712.56 689,-676 709.59,-665.59 730.71,-649.84 745.27,-638.03"/>
<polygon fill="midnightblue" stroke="midnightblue" points="747.56,-640.68 753.03,-631.6 743.09,-635.29 747.56,-640.68"/>
</g>
<!-- Node3 -->
<g id="node3" class="node">
<title>Node3</title>
<g id="a_node3"><a xlink:href="group__datatypes__iterable__operate.html#ga3d37c2b0067d1661724bd89955c8f6ce" target="_top" xlink:title="Return an element of an iterable when it exists or a default value otherwise.">
<polygon fill="white" stroke="black" points="475,-608.5 475,-627.5 554,-627.5 554,-608.5 475,-608.5"/>
<text text-anchor="middle" x="514.5" y="-615.5" font-family="Helvetica,sans-Serif" font-size="10.00">defined_e_or</text>
</a>
</g>
</g>
<!-- Node1&#45;&gt;Node3 -->
<g id="edge2" class="edge">
<title>Node1&#45;&gt;Node3</title>
<path fill="none" stroke="midnightblue" d="M53.32,-266.79C62.08,-296.1 90.87,-384.91 135,-447 203.13,-542.85 218.65,-584.75 328,-628 374.66,-646.46 433.13,-638.78 471.81,-629.93"/>
<polygon fill="midnightblue" stroke="midnightblue" points="472.79,-633.29 481.69,-627.54 471.15,-626.49 472.79,-633.29"/>
</g>
<!-- Node4 -->
<g id="node4" class="node">
<title>Node4</title>
<g id="a_node4"><a xlink:href="group__tools__drafting__primitive.html#ga9e80066573c9e9b2b1cf6af71cf453b0" target="_top" xlink:title="Check if any identified layers are active.">
<polygon fill="white" stroke="black" points="147,-418.5 147,-437.5 280,-437.5 280,-418.5 147,-418.5"/>
<text text-anchor="middle" x="213.5" y="-425.5" font-family="Helvetica,sans-Serif" font-size="10.00">draft_layers_any_active</text>
</a>
</g>
</g>
<!-- Node1&#45;&gt;Node4 -->
<g id="edge3" class="edge">
<title>Node1&#45;&gt;Node4</title>
<path fill="none" stroke="midnightblue" d="M52.93,-266.62C60.26,-293.63 84.84,-370.72 135,-409 137.45,-410.87 140.07,-412.56 142.79,-414.09"/>
<polygon fill="midnightblue" stroke="midnightblue" points="141.3,-417.26 151.83,-418.42 144.33,-410.94 141.3,-417.26"/>
</g>
<!-- Node5 -->
<g id="node5" class="node">
<title>Node5</title>
<g id="a_node5"><a xlink:href="group__tools__drafting__primitive.html#ga060910368142d6371cf4f3f30be7561e" target="_top" xlink:title="Draft a line with configurable style and optional arrowheads.">
<polygon fill="white" stroke="black" points="182.5,-380.5 182.5,-399.5 244.5,-399.5 244.5,-380.5 182.5,-380.5"/>
<text text-anchor="middle" x="213.5" y="-387.5" font-family="Helvetica,sans-Serif" font-size="10.00">draft_line</text>
</a>
</g>
</g>
<!-- Node1&#45;&gt;Node5 -->
<g id="edge4" class="edge">
<title>Node1&#45;&gt;Node5</title>
<path fill="none" stroke="midnightblue" d="M62.15,-266.57C89.57,-289.08 158.44,-345.62 192.62,-373.68"/>
<polygon fill="midnightblue" stroke="midnightblue" points="190.57,-376.52 200.52,-380.16 195.01,-371.11 190.57,-376.52"/>
</g>
<!-- Node21 -->
<g id="node21" class="node">
<title>Node21</title>
<g id="a_node21"><a xlink:href="group__datatypes__scalar__test.html#ga51d7fdb800c10f4b7479d23b89ab8d22" target="_top" xlink:title="Test if a value is defined.">
<polygon fill="white" stroke="black" points="608.5,-133.5 608.5,-152.5 674.5,-152.5 674.5,-133.5 608.5,-133.5"/>
<text text-anchor="middle" x="641.5" y="-140.5" font-family="Helvetica,sans-Serif" font-size="10.00">is_defined</text>
</a>
</g>
</g>
<!-- Node1&#45;&gt;Node21 -->
<g id="edge42" class="edge">
<title>Node1&#45;&gt;Node21</title>
<path fill="none" stroke="midnightblue" d="M51.3,-247.19C54.55,-214.56 69.91,-109.29 135,-67 174.09,-41.6 492.94,-55.07 558,-79 584.66,-88.8 609.59,-110.58 624.92,-126"/>
<polygon fill="midnightblue" stroke="midnightblue" points="622.57,-128.61 632.02,-133.39 627.62,-123.76 622.57,-128.61"/>
</g>
<!-- Node22 -->
<g id="node22" class="node">
<title>Node22</title>
<g id="a_node22"><a xlink:href="group__datatypes__euclidean.html#gaa686049dfa9296b441a12e225aa1537d" target="_top" xlink:title="Construct a 2 dimensional directed line.">
<polygon fill="white" stroke="black" points="478.5,-114.5 478.5,-133.5 550.5,-133.5 550.5,-114.5 478.5,-114.5"/>
<text text-anchor="middle" x="514.5" y="-121.5" font-family="Helvetica,sans-Serif" font-size="10.00">line2d_new</text>
</a>
</g>
</g>
<!-- Node1&#45;&gt;Node22 -->
<g id="edge44" class="edge">
<title>Node1&#45;&gt;Node22</title>
<path fill="none" stroke="midnightblue" d="M67.69,-247.48C110.28,-224.41 224.72,-165.55 328,-140 374.89,-128.4 430.26,-124.89 468.22,-123.98"/>
<polygon fill="midnightblue" stroke="midnightblue" points="468.51,-127.47 478.44,-123.79 468.38,-120.48 468.51,-127.47"/>
</g>
<!-- Node28 -->
<g id="node28" class="node">
<title>Node28</title>
<g id="a_node28"><a xlink:href="group__tools__drafting__primitive.html#ga9a4b6eb4b387537f7bc1cc6c4d8f4449" target="_top" xlink:title="Extrude 2D drafted constructions to 3D if configured.">
<polygon fill="white" stroke="black" points="135,-76.5 135,-95.5 292,-95.5 292,-76.5 135,-76.5"/>
<text text-anchor="middle" x="213.5" y="-83.5" font-family="Helvetica,sans-Serif" font-size="10.00">draft_make_3d_if_configured</text>
</a>
</g>
</g>
<!-- Node1&#45;&gt;Node28 -->
<g id="edge40" class="edge">
<title>Node1&#45;&gt;Node28</title>
<path fill="none" stroke="midnightblue" d="M53.26,-247.47C61.29,-221.39 87.19,-148.25 135,-110 140.32,-105.74 146.4,-102.24 152.76,-99.35"/>
<polygon fill="midnightblue" stroke="midnightblue" points="154.24,-102.53 162.22,-95.55 151.63,-96.03 154.24,-102.53"/>
</g>
<!-- Node29 -->
<g id="node29" class="node">
<title>Node29</title>
<g id="a_node29"><a xlink:href="group__datatypes__scalar__test.html#gac47a7785d144083733c43327ea092e1d" target="_top" xlink:title="Test if a value is a number.">
<polygon fill="white" stroke="black" points="179.5,-0.5 179.5,-19.5 247.5,-19.5 247.5,-0.5 179.5,-0.5"/>
<text text-anchor="middle" x="213.5" y="-7.5" font-family="Helvetica,sans-Serif" font-size="10.00">is_number</text>
</a>
</g>
</g>
<!-- Node1&#45;&gt;Node29 -->
<g id="edge43" class="edge">
<title>Node1&#45;&gt;Node29</title>
<path fill="none" stroke="midnightblue" d="M51.23,-247.33C54.34,-212.98 69.54,-95.53 135,-34 144.48,-25.09 157.2,-19.49 169.59,-15.97"/>
<polygon fill="midnightblue" stroke="midnightblue" points="170.51,-19.34 179.39,-13.56 168.84,-12.54 170.51,-19.34"/>
</g>
<!-- Node5&#45;&gt;Node2 -->
<g id="edge6" class="edge">
<title>Node5&#45;&gt;Node2</title>
<path fill="none" stroke="midnightblue" d="M244.6,-389.77C260.88,-391.31 280.05,-396.09 292,-409 358.99,-481.4 254.85,-561.83 328,-628 442.67,-731.74 651.93,-666.11 731.83,-635.35"/>
<polygon fill="midnightblue" stroke="midnightblue" points="733.32,-638.52 741.35,-631.61 730.76,-632 733.32,-638.52"/>
</g>
<!-- Node5&#45;&gt;Node3 -->
<g id="edge7" class="edge">
<title>Node5&#45;&gt;Node3</title>
<path fill="none" stroke="midnightblue" d="M244.87,-389.92C261.03,-391.53 279.99,-396.33 292,-409 351.14,-471.37 264.69,-540.87 328,-599 364.35,-632.38 423.18,-632.74 464.83,-627.58"/>
<polygon fill="midnightblue" stroke="midnightblue" points="465.34,-631.04 474.76,-626.2 464.37,-624.1 465.34,-631.04"/>
</g>
<!-- Node6 -->
<g id="node6" class="node">
<title>Node6</title>
<g id="a_node6"><a xlink:href="group__datatypes__iterable__test.html#ga4dfc58aa5f208e103e622684db817ce6" target="_top" xlink:title="Test if all elements of an iterable value equal a comparison value.">
<polygon fill="white" stroke="black" points="351,-380.5 351,-399.5 412,-399.5 412,-380.5 351,-380.5"/>
<text text-anchor="middle" x="381.5" y="-387.5" font-family="Helvetica,sans-Serif" font-size="10.00">all_equal</text>
</a>
</g>
</g>
<!-- Node5&#45;&gt;Node6 -->
<g id="edge5" class="edge">
<title>Node5&#45;&gt;Node6</title>
<path fill="none" stroke="midnightblue" d="M244.56,-390C271.44,-390 311.03,-390 340.56,-390"/>
<polygon fill="midnightblue" stroke="midnightblue" points="340.94,-393.5 350.94,-390 340.94,-386.5 340.94,-393.5"/>
</g>
<!-- Node7 -->
<g id="node7" class="node">
<title>Node7</title>
<g id="a_node7"><a xlink:href="group__tools__drafting__primitive.html#ga6f12ccd4c9de0a8ab887184911f39c8f" target="_top" xlink:title="Draft an arrowhead at the terminal point of a line.">
<polygon fill="white" stroke="black" points="345.5,-304.5 345.5,-323.5 417.5,-323.5 417.5,-304.5 345.5,-304.5"/>
<text text-anchor="middle" x="381.5" y="-311.5" font-family="Helvetica,sans-Serif" font-size="10.00">draft_arrow</text>
</a>
</g>
</g>
<!-- Node5&#45;&gt;Node7 -->
<g id="edge8" class="edge">
<title>Node5&#45;&gt;Node7</title>
<path fill="none" stroke="midnightblue" d="M235.42,-380.41C258.19,-369.97 295.68,-352.79 328,-338 335.14,-334.73 342.83,-331.21 350.06,-327.91"/>
<polygon fill="midnightblue" stroke="midnightblue" points="351.91,-330.91 359.55,-323.57 349,-324.55 351.91,-330.91"/>
</g>
<!-- Node9 -->
<g id="node9" class="node">
<title>Node9</title>
<g id="a_node9"><a xlink:href="group__tools__drafting__config.html#gabb4fa7092928ba8803b550ac6d733f64" target="_top" xlink:title="Get drafting configuration default helper function.">
<polygon fill="white" stroke="black" points="594,-266.5 594,-285.5 689,-285.5 689,-266.5 594,-266.5"/>
<text text-anchor="middle" x="641.5" y="-273.5" font-family="Helvetica,sans-Serif" font-size="10.00">draft_get_config</text>
</a>
</g>
</g>
<!-- Node5&#45;&gt;Node9 -->
<g id="edge31" class="edge">
<title>Node5&#45;&gt;Node9</title>
<path fill="none" stroke="midnightblue" d="M218.87,-380.27C231.64,-352.9 271.6,-274.45 328,-232 381.91,-191.42 404.51,-192.5 471,-181 509.1,-174.41 522.82,-164.96 558,-181 592.28,-196.63 617.82,-234.32 630.83,-257.25"/>
<polygon fill="midnightblue" stroke="midnightblue" points="627.92,-259.23 635.77,-266.34 634.07,-255.89 627.92,-259.23"/>
</g>
<!-- Node10 -->
<g id="node10" class="node">
<title>Node10</title>
<g id="a_node10"><a xlink:href="group__tools__drafting__primitive.html#ga4e7c5fa02dbc244702042067553a9225" target="_top" xlink:title="Draft a simple line from an initial to a terminal point.">
<polygon fill="white" stroke="black" points="474.5,-380.5 474.5,-399.5 554.5,-399.5 554.5,-380.5 474.5,-380.5"/>
<text text-anchor="middle" x="514.5" y="-387.5" font-family="Helvetica,sans-Serif" font-size="10.00">draft_line_pp</text>
</a>
</g>
</g>
<!-- Node5&#45;&gt;Node10 -->
<g id="edge32" class="edge">
<title>Node5&#45;&gt;Node10</title>
<path fill="none" stroke="midnightblue" d="M244.68,-383.55C267.45,-379.02 299.53,-373.37 328,-371 375.39,-367.06 387.78,-365.37 435,-371 447.06,-372.44 459.95,-375.08 471.72,-377.94"/>
<polygon fill="midnightblue" stroke="midnightblue" points="471.18,-381.42 481.73,-380.49 472.9,-374.63 471.18,-381.42"/>
</g>
<!-- Node13 -->
<g id="node13" class="node">
<title>Node13</title>
<g id="a_node13"><a xlink:href="group__datatypes__euclidean.html#ga8115b05f16bcc197e3e339a65f4d3e49" target="_top" xlink:title="Return the initial point of a line or vector.">
<polygon fill="white" stroke="black" points="740.5,-503.5 740.5,-522.5 789.5,-522.5 789.5,-503.5 740.5,-503.5"/>
<text text-anchor="middle" x="765" y="-510.5" font-family="Helvetica,sans-Serif" font-size="10.00">line_ip</text>
</a>
</g>
</g>
<!-- Node5&#45;&gt;Node13 -->
<g id="edge34" class="edge">
<title>Node5&#45;&gt;Node13</title>
<path fill="none" stroke="midnightblue" d="M244.63,-394.22C259.44,-397.07 277.22,-401.69 292,-409 310.42,-418.11 309.29,-429.52 328,-438 467.35,-501.17 653.83,-511.44 729.72,-512.89"/>
<polygon fill="midnightblue" stroke="midnightblue" points="730.04,-516.4 740.09,-513.05 730.15,-509.4 730.04,-516.4"/>
</g>
<!-- Node14 -->
<g id="node14" class="node">
<title>Node14</title>
<g id="a_node14"><a xlink:href="group__datatypes__euclidean.html#ga299bce4158dc8d0a7a8e7d9967b8ea4e" target="_top" xlink:title="Return the terminal point of a line or vector.">
<polygon fill="white" stroke="black" points="740,-437.5 740,-456.5 790,-456.5 790,-437.5 740,-437.5"/>
<text text-anchor="middle" x="765" y="-444.5" font-family="Helvetica,sans-Serif" font-size="10.00">line_tp</text>
</a>
</g>
</g>
<!-- Node5&#45;&gt;Node14 -->
<g id="edge35" class="edge">
<title>Node5&#45;&gt;Node14</title>
<path fill="none" stroke="midnightblue" d="M244.69,-396.49C321.9,-412.96 525.31,-455.54 594,-462 636.04,-465.95 646.98,-466.16 689,-462 702.55,-460.66 717.29,-457.98 730.08,-455.26"/>
<polygon fill="midnightblue" stroke="midnightblue" points="730.86,-458.67 739.86,-453.09 729.34,-451.84 730.86,-458.67"/>
</g>
<!-- Node5&#45;&gt;Node22 -->
<g id="edge33" class="edge">
<title>Node5&#45;&gt;Node22</title>
<path fill="none" stroke="midnightblue" d="M217.14,-380.26C226.47,-347.72 260.95,-241.66 328,-186 349.65,-168.03 421,-147.35 468.63,-134.99"/>
<polygon fill="midnightblue" stroke="midnightblue" points="469.59,-138.36 478.41,-132.48 467.86,-131.58 469.59,-138.36"/>
</g>
<!-- Node24 -->
<g id="node24" class="node">
<title>Node24</title>
<g id="a_node24"><a xlink:href="group__datatypes__iterable__operate.html#gadb933df06b10d64dda8823069bdc84b7" target="_top" xlink:title="Return a list of all n&#45;element sequential&#45;subsets of an iterable value.">
<polygon fill="white" stroke="black" points="474.5,-190.5 474.5,-209.5 554.5,-209.5 554.5,-190.5 474.5,-190.5"/>
<text text-anchor="middle" x="514.5" y="-197.5" font-family="Helvetica,sans-Serif" font-size="10.00">sequence_ns</text>
</a>
</g>
</g>
<!-- Node5&#45;&gt;Node24 -->
<g id="edge39" class="edge">
<title>Node5&#45;&gt;Node24</title>
<path fill="none" stroke="midnightblue" d="M224.56,-380.32C243.7,-362.22 287.08,-322.56 328,-295 387.7,-254.8 406.33,-250.59 471,-219 474.57,-217.25 478.35,-215.48 482.1,-213.75"/>
<polygon fill="midnightblue" stroke="midnightblue" points="483.64,-216.89 491.31,-209.58 480.76,-210.51 483.64,-216.89"/>
</g>
<!-- Node25 -->
<g id="node25" class="node">
<title>Node25</title>
<g id="a_node25"><a xlink:href="group__datatypes__list__operate.html#gac9437fd7e3cb8797fa5e901b2ab6e58a" target="_top" xlink:title="Serially merge the elements of a list.">
<polygon fill="white" stroke="black" points="352,-570.5 352,-589.5 411,-589.5 411,-570.5 352,-570.5"/>
<text text-anchor="middle" x="381.5" y="-577.5" font-family="Helvetica,sans-Serif" font-size="10.00">merge_s</text>
</a>
</g>
</g>
<!-- Node5&#45;&gt;Node25 -->
<g id="edge36" class="edge">
<title>Node5&#45;&gt;Node25</title>
<path fill="none" stroke="midnightblue" d="M244.65,-390.14C260.74,-391.81 279.71,-396.61 292,-409 340.9,-458.28 281.8,-509.18 328,-561 331.97,-565.45 337.06,-568.86 342.5,-571.47"/>
<polygon fill="midnightblue" stroke="midnightblue" points="341.28,-574.75 351.87,-575.15 343.84,-568.23 341.28,-574.75"/>
</g>
<!-- Node26 -->
<g id="node26" class="node">
<title>Node26</title>
<g id="a_node26"><a xlink:href="group__math__polygon.html#gad35e17240bf9f3e0de4481ec467d599f" target="_top" xlink:title="Compute coordinates along a line in 2D.">
<polygon fill="white" stroke="black" points="336.5,-532.5 336.5,-551.5 426.5,-551.5 426.5,-532.5 336.5,-532.5"/>
<text text-anchor="middle" x="381.5" y="-539.5" font-family="Helvetica,sans-Serif" font-size="10.00">polygon_line_p</text>
</a>
</g>
</g>
<!-- Node5&#45;&gt;Node26 -->
<g id="edge37" class="edge">
<title>Node5&#45;&gt;Node26</title>
<path fill="none" stroke="midnightblue" d="M244.68,-390.53C260.59,-392.36 279.36,-397.16 292,-409 330.78,-445.32 291.21,-484.66 328,-523 329.38,-524.44 330.89,-525.78 332.48,-527.01"/>
<polygon fill="midnightblue" stroke="midnightblue" points="330.72,-530.04 341.05,-532.37 334.43,-524.1 330.72,-530.04"/>
</g>
<!-- Node27 -->
<g id="node27" class="node">
<title>Node27</title>
<g id="a_node27"><a xlink:href="group__math__polygon.html#ga6aea22d31f8f086c44c7241eee3ab4c2" target="_top" xlink:title="Compute coordinates for an n&#45;sided regular polygon in 2D.">
<polygon fill="white" stroke="black" points="328,-494.5 328,-513.5 435,-513.5 435,-494.5 328,-494.5"/>
<text text-anchor="middle" x="381.5" y="-501.5" font-family="Helvetica,sans-Serif" font-size="10.00">polygon_regular_p</text>
</a>
</g>
</g>
<!-- Node5&#45;&gt;Node27 -->
<g id="edge38" class="edge">
<title>Node5&#45;&gt;Node27</title>
<path fill="none" stroke="midnightblue" d="M244.71,-391.48C260.24,-393.61 278.65,-398.41 292,-409 319.71,-431 302.48,-455.49 328,-480 331.98,-483.82 336.67,-487.1 341.58,-489.91"/>
<polygon fill="midnightblue" stroke="midnightblue" points="340.06,-493.06 350.56,-494.45 343.22,-486.81 340.06,-493.06"/>
</g>
<!-- Node7&#45;&gt;Node2 -->
<g id="edge9" class="edge">
<title>Node7&#45;&gt;Node2</title>
<path fill="none" stroke="midnightblue" d="M392.99,-323.85C404.22,-334.72 422.15,-353.07 435,-371 454.46,-398.16 448.14,-412.63 471,-437 549.4,-520.57 673.35,-582.2 731.65,-608.27"/>
<polygon fill="midnightblue" stroke="midnightblue" points="730.53,-611.6 741.09,-612.44 733.36,-605.2 730.53,-611.6"/>
</g>
<!-- Node7&#45;&gt;Node3 -->
<g id="edge11" class="edge">
<title>Node7&#45;&gt;Node3</title>
<path fill="none" stroke="midnightblue" d="M394.11,-323.79C405.94,-334.33 424.06,-352.15 435,-371 440.96,-381.26 490.39,-542.31 507.61,-598.69"/>
<polygon fill="midnightblue" stroke="midnightblue" points="504.34,-599.95 510.61,-608.49 511.03,-597.91 504.34,-599.95"/>
</g>
<!-- Node8 -->
<g id="node8" class="node">
<title>Node8</title>
<g id="a_node8"><a xlink:href="group__datatypes__binary.html#ga7ce4ed94d9b389ff817ea219918b8732" target="_top" xlink:title="Test if a binary bit position of an integer value equals a test bit.">
<polygon fill="white" stroke="black" points="475,-304.5 475,-323.5 554,-323.5 554,-304.5 475,-304.5"/>
<text text-anchor="middle" x="514.5" y="-311.5" font-family="Helvetica,sans-Serif" font-size="10.00">binary_bit_is</text>
</a>
</g>
</g>
<!-- Node7&#45;&gt;Node8 -->
<g id="edge10" class="edge">
<title>Node7&#45;&gt;Node8</title>
<path fill="none" stroke="midnightblue" d="M417.61,-314C432.03,-314 448.98,-314 464.58,-314"/>
<polygon fill="midnightblue" stroke="midnightblue" points="464.61,-317.5 474.61,-314 464.61,-310.5 464.61,-317.5"/>
</g>
<!-- Node7&#45;&gt;Node9 -->
<g id="edge12" class="edge">
<title>Node7&#45;&gt;Node9</title>
<path fill="none" stroke="midnightblue" d="M417.66,-305.61C433.83,-301.96 453.32,-297.88 471,-295 508.32,-288.92 550.57,-284.18 583.56,-280.95"/>
<polygon fill="midnightblue" stroke="midnightblue" points="584.31,-284.4 593.93,-279.96 583.64,-277.43 584.31,-284.4"/>
</g>
<!-- Node7&#45;&gt;Node10 -->
<g id="edge13" class="edge">
<title>Node7&#45;&gt;Node10</title>
<path fill="none" stroke="midnightblue" d="M407.65,-323.59C416.61,-327.49 426.56,-332.41 435,-338 453.09,-349.99 452.86,-359.08 471,-371 473.62,-372.72 476.42,-374.35 479.28,-375.89"/>
<polygon fill="midnightblue" stroke="midnightblue" points="478,-379.16 488.52,-380.44 481.1,-372.88 478,-379.16"/>
</g>
<!-- Node7&#45;&gt;Node14 -->
<g id="edge28" class="edge">
<title>Node7&#45;&gt;Node14</title>
<path fill="none" stroke="midnightblue" d="M391.48,-323.73C413.74,-347.82 469.72,-408.34 471,-409 555.85,-452.63 672.09,-452.92 729.3,-449.81"/>
<polygon fill="midnightblue" stroke="midnightblue" points="729.84,-453.29 739.6,-449.18 729.41,-446.3 729.84,-453.29"/>
</g>
<!-- Node20 -->
<g id="node20" class="node">
<title>Node20</title>
<g id="a_node20"><a xlink:href="group__tools__operation__cs.html#gafa05aca176d441020de53da835e3dd60" target="_top" xlink:title="Conditionally apply the convex hull transformation.">
<polygon fill="white" stroke="black" points="489.5,-228.5 489.5,-247.5 539.5,-247.5 539.5,-228.5 489.5,-228.5"/>
<text text-anchor="middle" x="514.5" y="-235.5" font-family="Helvetica,sans-Serif" font-size="10.00">hull_cs</text>
</a>
</g>
</g>
<!-- Node7&#45;&gt;Node20 -->
<g id="edge25" class="edge">
<title>Node7&#45;&gt;Node20</title>
<path fill="none" stroke="midnightblue" d="M398.76,-304.33C416.48,-293.83 445.68,-276.59 471,-262 476.36,-258.91 482.12,-255.63 487.62,-252.52"/>
<polygon fill="midnightblue" stroke="midnightblue" points="489.51,-255.47 496.5,-247.51 486.07,-249.37 489.51,-255.47"/>
</g>
<!-- Node7&#45;&gt;Node22 -->
<g id="edge27" class="edge">
<title>Node7&#45;&gt;Node22</title>
<path fill="none" stroke="midnightblue" d="M388.76,-304.2C403,-282.01 439.05,-226.34 471,-181 480.43,-167.62 491.49,-152.82 499.96,-141.65"/>
<polygon fill="midnightblue" stroke="midnightblue" points="502.84,-143.64 506.12,-133.57 497.28,-139.4 502.84,-143.64"/>
</g>
<!-- Node23 -->
<g id="node23" class="node">
<title>Node23</title>
<g id="a_node23"><a xlink:href="group__math__polygon.html#ga0e085cf8ec515dccdeff907f84fdae55" target="_top" xlink:title="Compute coordinates of an arc with constant radius between two vectors in 2D.">
<polygon fill="white" stroke="black" points="471,-342.5 471,-361.5 558,-361.5 558,-342.5 471,-342.5"/>
<text text-anchor="middle" x="514.5" y="-349.5" font-family="Helvetica,sans-Serif" font-size="10.00">polygon_arc_p</text>
</a>
</g>
</g>
<!-- Node7&#45;&gt;Node23 -->
<g id="edge29" class="edge">
<title>Node7&#45;&gt;Node23</title>
<path fill="none" stroke="midnightblue" d="M415.56,-323.59C432.31,-328.45 452.86,-334.41 470.8,-339.61"/>
<polygon fill="midnightblue" stroke="midnightblue" points="469.87,-342.99 480.45,-342.41 471.82,-336.27 469.87,-342.99"/>
</g>
<!-- Node7&#45;&gt;Node24 -->
<g id="edge30" class="edge">
<title>Node7&#45;&gt;Node24</title>
<path fill="none" stroke="midnightblue" d="M396.34,-304.34C407.48,-296.19 423.18,-283.82 435,-271 454.06,-250.34 449.37,-236.95 471,-219 472.96,-217.37 475.08,-215.86 477.29,-214.46"/>
<polygon fill="midnightblue" stroke="midnightblue" points="479.07,-217.47 486.13,-209.58 475.69,-211.34 479.07,-217.47"/>
</g>
<!-- Node10&#45;&gt;Node9 -->
<g id="edge24" class="edge">
<title>Node10&#45;&gt;Node9</title>
<path fill="none" stroke="midnightblue" d="M541.67,-380.46C547.32,-377.82 553.07,-374.66 558,-371 566,-365.07 604.48,-319.37 625.94,-293.58"/>
<polygon fill="midnightblue" stroke="midnightblue" points="628.8,-295.61 632.5,-285.68 623.42,-291.14 628.8,-295.61"/>
</g>
<!-- Node11 -->
<g id="node11" class="node">
<title>Node11</title>
<g id="a_node11"><a xlink:href="group__tools__align.html#ga7a21147611850c6cae7e95d23417099b" target="_top" xlink:title="Align a line or vector to a reference line or vector.">
<polygon fill="white" stroke="black" points="615.5,-342.5 615.5,-361.5 667.5,-361.5 667.5,-342.5 615.5,-342.5"/>
<text text-anchor="middle" x="641.5" y="-349.5" font-family="Helvetica,sans-Serif" font-size="10.00">align_ll</text>
</a>
</g>
</g>
<!-- Node10&#45;&gt;Node11 -->
<g id="edge14" class="edge">
<title>Node10&#45;&gt;Node11</title>
<path fill="none" stroke="midnightblue" d="M547.04,-380.41C564.86,-374.99 587.17,-368.21 605.53,-362.63"/>
<polygon fill="midnightblue" stroke="midnightblue" points="606.71,-365.93 615.26,-359.67 604.68,-359.23 606.71,-365.93"/>
</g>
<!-- Node19 -->
<g id="node19" class="node">
<title>Node19</title>
<g id="a_node19"><a xlink:href="group__datatypes__euclidean.html#gaef5b930729755b4420098776467ac210" target="_top" xlink:title="Compute the distance between two points.">
<polygon fill="white" stroke="black" points="604,-380.5 604,-399.5 679,-399.5 679,-380.5 604,-380.5"/>
<text text-anchor="middle" x="641.5" y="-387.5" font-family="Helvetica,sans-Serif" font-size="10.00">distance_pp</text>
</a>
</g>
</g>
<!-- Node10&#45;&gt;Node19 -->
<g id="edge23" class="edge">
<title>Node10&#45;&gt;Node19</title>
<path fill="none" stroke="midnightblue" d="M554.71,-390C567.14,-390 581,-390 593.9,-390"/>
<polygon fill="midnightblue" stroke="midnightblue" points="593.99,-393.5 603.99,-390 593.99,-386.5 593.99,-393.5"/>
</g>
<!-- Node11&#45;&gt;Node2 -->
<g id="edge15" class="edge">
<title>Node11&#45;&gt;Node2</title>
<path fill="none" stroke="midnightblue" d="M667.96,-357.49C675.71,-360.33 683.6,-364.6 689,-371 736.32,-427.01 702.32,-462.27 725,-532 733.23,-557.3 745.94,-585.23 754.59,-603.17"/>
<polygon fill="midnightblue" stroke="midnightblue" points="751.5,-604.81 759.04,-612.25 757.79,-601.73 751.5,-604.81"/>
</g>
<!-- Node12 -->
<g id="node12" class="node">
<title>Node12</title>
<g id="a_node12"><a xlink:href="group__datatypes__euclidean.html#ga882329ee346d5a7f9d0877afd115c3de" target="_top" xlink:title="Compute the cross product of two lines or vectors in a 3d or 2d&#45;space.">
<polygon fill="white" stroke="black" points="738.5,-399.5 738.5,-418.5 791.5,-418.5 791.5,-399.5 738.5,-399.5"/>
<text text-anchor="middle" x="765" y="-406.5" font-family="Helvetica,sans-Serif" font-size="10.00">cross_ll</text>
</a>
</g>
</g>
<!-- Node11&#45;&gt;Node12 -->
<g id="edge16" class="edge">
<title>Node11&#45;&gt;Node12</title>
<path fill="none" stroke="midnightblue" d="M667.31,-361.61C674.38,-364.49 682.05,-367.75 689,-371 705.39,-378.65 708.87,-381.81 725,-390 728.19,-391.62 731.53,-393.29 734.87,-394.93"/>
<polygon fill="midnightblue" stroke="midnightblue" points="733.58,-398.2 744.1,-399.46 736.66,-391.91 733.58,-398.2"/>
</g>
<!-- Node11&#45;&gt;Node13 -->
<g id="edge17" class="edge">
<title>Node11&#45;&gt;Node13</title>
<path fill="none" stroke="midnightblue" d="M667.92,-358.14C675.49,-361.01 683.28,-365.13 689,-371 720.51,-403.33 702.27,-426.98 725,-466 731.23,-476.69 739.88,-487.4 747.46,-495.89"/>
<polygon fill="midnightblue" stroke="midnightblue" points="744.92,-498.31 754.27,-503.28 750.06,-493.56 744.92,-498.31"/>
</g>
<!-- Node11&#45;&gt;Node14 -->
<g id="edge18" class="edge">
<title>Node11&#45;&gt;Node14</title>
<path fill="none" stroke="midnightblue" d="M667.73,-359.06C675.12,-361.94 682.85,-365.85 689,-371 711.96,-390.25 702.68,-408.01 725,-428 726.73,-429.55 728.61,-431.01 730.58,-432.36"/>
<polygon fill="midnightblue" stroke="midnightblue" points="729.21,-435.61 739.59,-437.69 732.77,-429.59 729.21,-435.61"/>
</g>
<!-- Node15 -->
<g id="node15" class="node">
<title>Node15</title>
<g id="a_node15"><a xlink:href="group__datatypes__list__operate.html#ga1088f9b09ff8ed12e2c844758f39c039" target="_top" xlink:title="Compute the mean/average of a list of numbers.">
<polygon fill="white" stroke="black" points="743,-361.5 743,-380.5 787,-380.5 787,-361.5 743,-361.5"/>
<text text-anchor="middle" x="765" y="-368.5" font-family="Helvetica,sans-Serif" font-size="10.00">mean</text>
</a>
</g>
</g>
<!-- Node11&#45;&gt;Node15 -->
<g id="edge19" class="edge">
<title>Node11&#45;&gt;Node15</title>
<path fill="none" stroke="midnightblue" d="M667.67,-355.94C686.62,-358.9 712.68,-362.97 732.92,-366.14"/>
<polygon fill="midnightblue" stroke="midnightblue" points="732.49,-369.61 742.91,-367.7 733.57,-362.7 732.49,-369.61"/>
</g>
<!-- Node16 -->
<g id="node16" class="node">
<title>Node16</title>
<g id="a_node16"><a xlink:href="group__datatypes__euclidean.html#ga78d67c74076bef2e80a95b1e9b6eb2d7" target="_top" xlink:title="Return 3d point unchanged or add a zeroed third dimension to 2d point.">
<polygon fill="white" stroke="black" points="728,-323.5 728,-342.5 802,-342.5 802,-323.5 728,-323.5"/>
<text text-anchor="middle" x="765" y="-330.5" font-family="Helvetica,sans-Serif" font-size="10.00">point_to_3d</text>
</a>
</g>
</g>
<!-- Node11&#45;&gt;Node16 -->
<g id="edge20" class="edge">
<title>Node11&#45;&gt;Node16</title>
<path fill="none" stroke="midnightblue" d="M667.67,-348.06C682.07,-345.81 700.57,-342.92 717.5,-340.27"/>
<polygon fill="midnightblue" stroke="midnightblue" points="718.46,-343.66 727.8,-338.66 717.37,-336.75 718.46,-343.66"/>
</g>
<!-- Node17 -->
<g id="node17" class="node">
<title>Node17</title>
<g id="a_node17"><a xlink:href="group__datatypes__list__operate.html#ga7b8e6f2bbfa72ae61e39377e5ca6b5be" target="_top" xlink:title="Select specified element from list or return a default.">
<polygon fill="white" stroke="black" points="735.5,-285.5 735.5,-304.5 794.5,-304.5 794.5,-285.5 735.5,-285.5"/>
<text text-anchor="middle" x="765" y="-292.5" font-family="Helvetica,sans-Serif" font-size="10.00">select_ci</text>
</a>
</g>
</g>
<!-- Node11&#45;&gt;Node17 -->
<g id="edge21" class="edge">
<title>Node11&#45;&gt;Node17</title>
<path fill="none" stroke="midnightblue" d="M662.84,-342.46C682.37,-333.29 712.12,-319.34 734.3,-308.93"/>
<polygon fill="midnightblue" stroke="midnightblue" points="736.03,-311.99 743.6,-304.57 733.06,-305.65 736.03,-311.99"/>
</g>
<!-- Node18 -->
<g id="node18" class="node">
<title>Node18</title>
<g id="a_node18"><a xlink:href="group__datatypes__euclidean.html#ga6ef2a81f304d31b9ec9753ca4875ad45" target="_top" xlink:title="Convert line to vector by shifting it to the origin.">
<polygon fill="white" stroke="black" points="725,-247.5 725,-266.5 805,-266.5 805,-247.5 725,-247.5"/>
<text text-anchor="middle" x="765" y="-254.5" font-family="Helvetica,sans-Serif" font-size="10.00">vol_to_origin</text>
</a>
</g>
</g>
<!-- Node11&#45;&gt;Node18 -->
<g id="edge22" class="edge">
<title>Node11&#45;&gt;Node18</title>
<path fill="none" stroke="midnightblue" d="M651.38,-342.14C665.73,-326.62 695.4,-296.2 725,-276 727.39,-274.37 729.94,-272.8 732.55,-271.31"/>
<polygon fill="midnightblue" stroke="midnightblue" points="734.3,-274.34 741.51,-266.58 731.03,-268.15 734.3,-274.34"/>
</g>
<!-- Node20&#45;&gt;Node21 -->
<g id="edge26" class="edge">
<title>Node20&#45;&gt;Node21</title>
<path fill="none" stroke="midnightblue" d="M539.6,-228.85C545.81,-226.06 552.33,-222.73 558,-219 583.72,-202.06 609.14,-177.05 624.82,-160.41"/>
<polygon fill="midnightblue" stroke="midnightblue" points="627.47,-162.69 631.69,-152.98 622.33,-157.94 627.47,-162.69"/>
</g>
<!-- Node28&#45;&gt;Node9 -->
<g id="edge41" class="edge">
<title>Node28&#45;&gt;Node9</title>
<path fill="none" stroke="midnightblue" d="M292,-81.39C379.76,-77.68 516.01,-76.99 558,-105 571.81,-114.21 614.95,-214.76 632.73,-257.24"/>
<polygon fill="midnightblue" stroke="midnightblue" points="629.5,-258.59 636.57,-266.47 635.96,-255.9 629.5,-258.59"/>
</g>
</g>
</svg>
