<?xml version="1.0" encoding="UTF-8" standalone="no"?>
<!DOCTYPE svg PUBLIC "-//W3C//DTD SVG 1.1//EN"
 "http://www.w3.org/Graphics/SVG/1.1/DTD/svg11.dtd">
<!-- Generated by graphviz version 2.43.0 (0)
 -->
<!-- Title: make_bearing_linear_rod Pages: 1 -->
<svg width="557pt" height="560pt"
 viewBox="0.00 0.00 557.00 560.00" xmlns="http://www.w3.org/2000/svg" xmlns:xlink="http://www.w3.org/1999/xlink">
<g id="graph0" class="graph" transform="scale(1 1) rotate(0) translate(4 556)">
<title>make_bearing_linear_rod</title>
<polygon fill="white" stroke="transparent" points="-4,4 -4,-556 553,-556 553,4 -4,4"/>
<!-- Node1 -->
<g id="node1" class="node">
<title>Node1</title>
<g id="a_node1"><a xlink:title="Transform 2d or 3d shape into a linear rod ball or sled bearing.">
<polygon fill="#bfbfbf" stroke="black" points="0,-323.5 0,-342.5 140,-342.5 140,-323.5 0,-323.5"/>
<text text-anchor="middle" x="70" y="-330.5" font-family="Helvetica,sans-Serif" font-size="10.00">make_bearing_linear_rod</text>
</a>
</g>
</g>
<!-- Node2 -->
<g id="node2" class="node">
<title>Node2</title>
<g id="a_node2"><a xlink:href="group__units__angle.html#ga06a917b77748dfb74e765bcd7c4c0219" target="_top" xlink:title="Convert an angle from some units to another.">
<polygon fill="white" stroke="black" points="487.5,-133.5 487.5,-152.5 531.5,-152.5 531.5,-133.5 487.5,-133.5"/>
<text text-anchor="middle" x="509.5" y="-140.5" font-family="Helvetica,sans-Serif" font-size="10.00">angle</text>
</a>
</g>
</g>
<!-- Node1&#45;&gt;Node2 -->
<g id="edge1" class="edge">
<title>Node1&#45;&gt;Node2</title>
<path fill="none" stroke="midnightblue" d="M77.95,-323.38C93.56,-302.3 133.34,-251.37 176,-219 235.22,-174.07 252.72,-160.37 325,-143 377.3,-130.43 440.43,-134.44 477.35,-138.63"/>
<polygon fill="midnightblue" stroke="midnightblue" points="477.14,-142.13 487.49,-139.86 477.98,-135.18 477.14,-142.13"/>
</g>
<!-- Node3 -->
<g id="node3" class="node">
<title>Node3</title>
<g id="a_node3"><a xlink:href="group__datatypes__binary.html#ga7ce4ed94d9b389ff817ea219918b8732" target="_top" xlink:title="Test if a binary bit position of an integer value equals a test bit.">
<polygon fill="white" stroke="black" points="193,-494.5 193,-513.5 272,-513.5 272,-494.5 193,-494.5"/>
<text text-anchor="middle" x="232.5" y="-501.5" font-family="Helvetica,sans-Serif" font-size="10.00">binary_bit_is</text>
</a>
</g>
</g>
<!-- Node1&#45;&gt;Node3 -->
<g id="edge2" class="edge">
<title>Node1&#45;&gt;Node3</title>
<path fill="none" stroke="midnightblue" d="M75.08,-342.78C86.74,-369.56 122.81,-444.73 176,-485 178.48,-486.88 181.15,-488.57 183.94,-490.11"/>
<polygon fill="midnightblue" stroke="midnightblue" points="182.62,-493.36 193.15,-494.49 185.62,-487.03 182.62,-493.36"/>
</g>
<!-- Node4 -->
<g id="node4" class="node">
<title>Node4</title>
<g id="a_node4"><a xlink:href="group__datatypes__iterable__operate.html#ga5edb69d3d9e3650e943ff8d010a43f07" target="_top" xlink:title="Count all occurrences of a match value in an iterable value.">
<polygon fill="white" stroke="black" points="210.5,-456.5 210.5,-475.5 254.5,-475.5 254.5,-456.5 210.5,-456.5"/>
<text text-anchor="middle" x="232.5" y="-463.5" font-family="Helvetica,sans-Serif" font-size="10.00">count</text>
</a>
</g>
</g>
<!-- Node1&#45;&gt;Node4 -->
<g id="edge3" class="edge">
<title>Node1&#45;&gt;Node4</title>
<path fill="none" stroke="midnightblue" d="M78.14,-342.69C93.81,-363.37 133.24,-412.36 176,-442 183.65,-447.3 192.65,-451.81 201.16,-455.44"/>
<polygon fill="midnightblue" stroke="midnightblue" points="199.87,-458.69 210.45,-459.15 202.47,-452.19 199.87,-458.69"/>
</g>
<!-- Node5 -->
<g id="node5" class="node">
<title>Node5</title>
<g id="a_node5"><a xlink:href="group__datatypes__iterable__operate.html#ga3d37c2b0067d1661724bd89955c8f6ce" target="_top" xlink:title="Return an element of an iterable when it exists or a default value otherwise.">
<polygon fill="white" stroke="black" points="470,-304.5 470,-323.5 549,-323.5 549,-304.5 470,-304.5"/>
<text text-anchor="middle" x="509.5" y="-311.5" font-family="Helvetica,sans-Serif" font-size="10.00">defined_e_or</text>
</a>
</g>
</g>
<!-- Node1&#45;&gt;Node5 -->
<g id="edge4" class="edge">
<title>Node1&#45;&gt;Node5</title>
<path fill="none" stroke="midnightblue" d="M140.32,-329.99C229.45,-326.12 381.96,-319.5 459.75,-316.12"/>
<polygon fill="midnightblue" stroke="midnightblue" points="459.93,-319.61 469.77,-315.68 459.62,-312.62 459.93,-319.61"/>
</g>
<!-- Node6 -->
<g id="node6" class="node">
<title>Node6</title>
<g id="a_node6"><a xlink:href="group__tools__operation__cs.html#ga3900ae7c9ca268f0224a65f56387059f" target="_top" xlink:title="Conditionally apply the difference boolean operation.">
<polygon fill="white" stroke="black" points="192,-532.5 192,-551.5 273,-551.5 273,-532.5 192,-532.5"/>
<text text-anchor="middle" x="232.5" y="-539.5" font-family="Helvetica,sans-Serif" font-size="10.00">difference_cs</text>
</a>
</g>
</g>
<!-- Node1&#45;&gt;Node6 -->
<g id="edge5" class="edge">
<title>Node1&#45;&gt;Node6</title>
<path fill="none" stroke="midnightblue" d="M73.69,-342.91C82.65,-374.14 114.49,-471.42 176,-523 178.05,-524.72 180.26,-526.28 182.58,-527.71"/>
<polygon fill="midnightblue" stroke="midnightblue" points="181.46,-531.07 191.95,-532.55 184.67,-524.85 181.46,-531.07"/>
</g>
<!-- Node7 -->
<g id="node7" class="node">
<title>Node7</title>
<g id="a_node7"><a xlink:href="group__datatypes__scalar__test.html#ga51d7fdb800c10f4b7479d23b89ab8d22" target="_top" xlink:title="Test if a value is defined.">
<polygon fill="white" stroke="black" points="346.5,-532.5 346.5,-551.5 412.5,-551.5 412.5,-532.5 346.5,-532.5"/>
<text text-anchor="middle" x="379.5" y="-539.5" font-family="Helvetica,sans-Serif" font-size="10.00">is_defined</text>
</a>
</g>
</g>
<!-- Node1&#45;&gt;Node7 -->
<g id="edge24" class="edge">
<title>Node1&#45;&gt;Node7</title>
<path fill="none" stroke="midnightblue" d="M81.91,-342.64C100.22,-358.4 138.79,-389.84 176,-409 223.11,-433.25 249.39,-411.81 289,-447 316.94,-471.82 297.27,-497.94 325,-523 328.56,-526.22 332.7,-528.9 337.07,-531.13"/>
<polygon fill="midnightblue" stroke="midnightblue" points="335.69,-534.35 346.26,-535.11 338.48,-527.92 335.69,-534.35"/>
</g>
<!-- Node8 -->
<g id="node8" class="node">
<title>Node8</title>
<g id="a_node8"><a xlink:href="group__tools__extrude.html#ga45661244067bf945b684550c3263ee45" target="_top" xlink:title="Linearly extrude a 2d shape with multi&#45;segment uniformly&#45;spaced profile scaling.">
<polygon fill="white" stroke="black" points="176,-342.5 176,-361.5 289,-361.5 289,-342.5 176,-342.5"/>
<text text-anchor="middle" x="232.5" y="-349.5" font-family="Helvetica,sans-Serif" font-size="10.00">extrude_linear_mss</text>
</a>
</g>
</g>
<!-- Node1&#45;&gt;Node8 -->
<g id="edge7" class="edge">
<title>Node1&#45;&gt;Node8</title>
<path fill="none" stroke="midnightblue" d="M140.46,-341.22C148.9,-342.22 157.49,-343.24 165.87,-344.23"/>
<polygon fill="midnightblue" stroke="midnightblue" points="165.6,-347.72 175.95,-345.42 166.43,-340.77 165.6,-347.72"/>
</g>
<!-- Node14 -->
<g id="node14" class="node">
<title>Node14</title>
<g id="a_node14"><a xlink:href="group__tools__extrude.html#ga2cbff19d3b793918b99aae3b56d37dfa" target="_top" xlink:title="Translate, rotate, scale, and revolve a 2d shape about the z&#45;axis.">
<polygon fill="white" stroke="black" points="179,-266.5 179,-285.5 286,-285.5 286,-266.5 179,-266.5"/>
<text text-anchor="middle" x="232.5" y="-273.5" font-family="Helvetica,sans-Serif" font-size="10.00">extrude_rotate_trs</text>
</a>
</g>
</g>
<!-- Node1&#45;&gt;Node14 -->
<g id="edge16" class="edge">
<title>Node1&#45;&gt;Node14</title>
<path fill="none" stroke="midnightblue" d="M97.86,-323.46C124.48,-314.01 165.44,-299.46 195,-288.96"/>
<polygon fill="midnightblue" stroke="midnightblue" points="196.3,-292.22 204.55,-285.57 193.95,-285.62 196.3,-292.22"/>
</g>
<!-- Node17 -->
<g id="node17" class="node">
<title>Node17</title>
<g id="a_node17"><a xlink:href="group__datatypes__scalar__test.html#ga30fa967b5bef4eeaf6afc6a9ae94d428" target="_top" xlink:title="Test if a numerical value is between an upper and lower bounds.">
<polygon fill="white" stroke="black" points="196.5,-228.5 196.5,-247.5 268.5,-247.5 268.5,-228.5 196.5,-228.5"/>
<text text-anchor="middle" x="232.5" y="-235.5" font-family="Helvetica,sans-Serif" font-size="10.00">is_between</text>
</a>
</g>
</g>
<!-- Node1&#45;&gt;Node17 -->
<g id="edge23" class="edge">
<title>Node1&#45;&gt;Node17</title>
<path fill="none" stroke="midnightblue" d="M81.92,-323.38C100.25,-307.65 138.84,-276.26 176,-257 180.03,-254.91 184.33,-252.98 188.69,-251.2"/>
<polygon fill="midnightblue" stroke="midnightblue" points="190.14,-254.4 198.25,-247.58 187.66,-247.85 190.14,-254.4"/>
</g>
<!-- Node18 -->
<g id="node18" class="node">
<title>Node18</title>
<g id="a_node18"><a xlink:href="group__tools__repeat.html#ga543a7c0b4c744d98e6197036da5681fe" target="_top" xlink:title="Radially repeat copies of child objects about a z&#45;axis radius.">
<polygon fill="white" stroke="black" points="192,-38.5 192,-57.5 273,-57.5 273,-38.5 192,-38.5"/>
<text text-anchor="middle" x="232.5" y="-45.5" font-family="Helvetica,sans-Serif" font-size="10.00">repeat_radial</text>
</a>
</g>
</g>
<!-- Node1&#45;&gt;Node18 -->
<g id="edge25" class="edge">
<title>Node1&#45;&gt;Node18</title>
<path fill="none" stroke="midnightblue" d="M71.93,-323.43C76.14,-285.31 96.83,-142.6 176,-67 178.11,-64.99 180.43,-63.19 182.91,-61.58"/>
<polygon fill="midnightblue" stroke="midnightblue" points="184.63,-64.63 191.77,-56.81 181.31,-58.47 184.63,-64.63"/>
</g>
<!-- Node21 -->
<g id="node21" class="node">
<title>Node21</title>
<g id="a_node21"><a xlink:href="group__datatypes__list__operate.html#ga7b8e6f2bbfa72ae61e39377e5ca6b5be" target="_top" xlink:title="Select specified element from list or return a default.">
<polygon fill="white" stroke="black" points="203,-76.5 203,-95.5 262,-95.5 262,-76.5 203,-76.5"/>
<text text-anchor="middle" x="232.5" y="-83.5" font-family="Helvetica,sans-Serif" font-size="10.00">select_ci</text>
</a>
</g>
</g>
<!-- Node1&#45;&gt;Node21 -->
<g id="edge29" class="edge">
<title>Node1&#45;&gt;Node21</title>
<path fill="none" stroke="midnightblue" d="M73.03,-323.08C80.5,-288.85 109.61,-174.31 176,-110 181.02,-105.14 187.17,-101.19 193.54,-98"/>
<polygon fill="midnightblue" stroke="midnightblue" points="195.18,-101.1 202.9,-93.85 192.34,-94.7 195.18,-101.1"/>
</g>
<!-- Node22 -->
<g id="node22" class="node">
<title>Node22</title>
<g id="a_node22"><a xlink:href="group__tools__operation__cs.html#ga69935df4a2195011bf7f4a7499de1128" target="_top" xlink:title="Conditionally apply the union boolean operation.">
<polygon fill="white" stroke="black" points="203,-380.5 203,-399.5 262,-399.5 262,-380.5 203,-380.5"/>
<text text-anchor="middle" x="232.5" y="-387.5" font-family="Helvetica,sans-Serif" font-size="10.00">union_cs</text>
</a>
</g>
</g>
<!-- Node1&#45;&gt;Node22 -->
<g id="edge30" class="edge">
<title>Node1&#45;&gt;Node22</title>
<path fill="none" stroke="midnightblue" d="M97.28,-342.65C118.49,-350.41 149.12,-361.54 176,-371 181.66,-372.99 187.66,-375.08 193.54,-377.1"/>
<polygon fill="midnightblue" stroke="midnightblue" points="192.64,-380.49 203.23,-380.43 194.91,-373.87 192.64,-380.49"/>
</g>
<!-- Node6&#45;&gt;Node7 -->
<g id="edge6" class="edge">
<title>Node6&#45;&gt;Node7</title>
<path fill="none" stroke="midnightblue" d="M273.12,-542C292.69,-542 316.3,-542 336.22,-542"/>
<polygon fill="midnightblue" stroke="midnightblue" points="336.25,-545.5 346.25,-542 336.25,-538.5 336.25,-545.5"/>
</g>
<!-- Node9 -->
<g id="node9" class="node">
<title>Node9</title>
<g id="a_node9"><a xlink:href="group__tools__extrude.html#gab2442cfaf1ad44d6e295ab0979d9e03d" target="_top" xlink:title="Linearly extrude a 2d shape with uniformly&#45;spaced profile scaling.">
<polygon fill="white" stroke="black" points="325,-380.5 325,-399.5 434,-399.5 434,-380.5 325,-380.5"/>
<text text-anchor="middle" x="379.5" y="-387.5" font-family="Helvetica,sans-Serif" font-size="10.00">extrude_linear_uss</text>
</a>
</g>
</g>
<!-- Node8&#45;&gt;Node9 -->
<g id="edge8" class="edge">
<title>Node8&#45;&gt;Node9</title>
<path fill="none" stroke="midnightblue" d="M270.09,-361.59C288.97,-366.54 312.19,-372.62 332.29,-377.89"/>
<polygon fill="midnightblue" stroke="midnightblue" points="331.61,-381.33 342.17,-380.48 333.39,-374.56 331.61,-381.33"/>
</g>
<!-- Node10 -->
<g id="node10" class="node">
<title>Node10</title>
<g id="a_node10"><a xlink:href="group__datatypes__iterable__operate.html#gaccab3e37e43cb1d882713b3f3d6d9e1b" target="_top" xlink:title="Return the first element of an iterable value.">
<polygon fill="white" stroke="black" points="492,-342.5 492,-361.5 527,-361.5 527,-342.5 492,-342.5"/>
<text text-anchor="middle" x="509.5" y="-349.5" font-family="Helvetica,sans-Serif" font-size="10.00">first</text>
</a>
</g>
</g>
<!-- Node8&#45;&gt;Node10 -->
<g id="edge13" class="edge">
<title>Node8&#45;&gt;Node10</title>
<path fill="none" stroke="midnightblue" d="M289.15,-352C347.6,-352 437.08,-352 481.52,-352"/>
<polygon fill="midnightblue" stroke="midnightblue" points="481.8,-355.5 491.8,-352 481.8,-348.5 481.8,-355.5"/>
</g>
<!-- Node11 -->
<g id="node11" class="node">
<title>Node11</title>
<g id="a_node11"><a xlink:href="group__datatypes__scalar__test.html#ga258e8911375d30ff85a6e52df01dc1c5" target="_top" xlink:title="Test if a value is a single non&#45;iterable value.">
<polygon fill="white" stroke="black" points="480,-418.5 480,-437.5 539,-437.5 539,-418.5 480,-418.5"/>
<text text-anchor="middle" x="509.5" y="-425.5" font-family="Helvetica,sans-Serif" font-size="10.00">is_scalar</text>
</a>
</g>
</g>
<!-- Node8&#45;&gt;Node11 -->
<g id="edge14" class="edge">
<title>Node8&#45;&gt;Node11</title>
<path fill="none" stroke="midnightblue" d="M273.74,-361.56C279.26,-364.03 284.54,-367.12 289,-371 315.7,-394.21 294.85,-423.48 325,-442 371.49,-470.55 437.59,-454.79 476.47,-441.12"/>
<polygon fill="midnightblue" stroke="midnightblue" points="478.02,-444.28 486.2,-437.54 475.61,-437.71 478.02,-444.28"/>
</g>
<!-- Node13 -->
<g id="node13" class="node">
<title>Node13</title>
<g id="a_node13"><a xlink:href="group__datatypes__list__operate.html#gae12565005038993506dc37249e32766d" target="_top" xlink:title="Compute the sum of a list of numbers.">
<polygon fill="white" stroke="black" points="360.5,-494.5 360.5,-513.5 398.5,-513.5 398.5,-494.5 360.5,-494.5"/>
<text text-anchor="middle" x="379.5" y="-501.5" font-family="Helvetica,sans-Serif" font-size="10.00">sum</text>
</a>
</g>
</g>
<!-- Node8&#45;&gt;Node13 -->
<g id="edge15" class="edge">
<title>Node8&#45;&gt;Node13</title>
<path fill="none" stroke="midnightblue" d="M275.41,-361.52C280.43,-363.98 285.13,-367.09 289,-371 324.88,-407.27 290.82,-442.12 325,-480 331.81,-487.55 341.45,-492.86 350.67,-496.53"/>
<polygon fill="midnightblue" stroke="midnightblue" points="349.77,-499.92 360.37,-499.9 352.07,-493.31 349.77,-499.92"/>
</g>
<!-- Node9&#45;&gt;Node5 -->
<g id="edge9" class="edge">
<title>Node9&#45;&gt;Node5</title>
<path fill="none" stroke="midnightblue" d="M394.47,-380.43C411.84,-368.69 442.55,-348.45 470,-333 472.86,-331.39 475.87,-329.77 478.9,-328.2"/>
<polygon fill="midnightblue" stroke="midnightblue" points="480.56,-331.28 487.9,-323.65 477.4,-325.04 480.56,-331.28"/>
</g>
<!-- Node9&#45;&gt;Node10 -->
<g id="edge10" class="edge">
<title>Node9&#45;&gt;Node10</title>
<path fill="none" stroke="midnightblue" d="M412.8,-380.41C434.24,-374.05 462.04,-365.79 482.14,-359.82"/>
<polygon fill="midnightblue" stroke="midnightblue" points="483.29,-363.14 491.88,-356.93 481.3,-356.42 483.29,-363.14"/>
</g>
<!-- Node9&#45;&gt;Node11 -->
<g id="edge11" class="edge">
<title>Node9&#45;&gt;Node11</title>
<path fill="none" stroke="midnightblue" d="M412.8,-399.59C430.17,-404.75 451.71,-411.14 469.96,-416.56"/>
<polygon fill="midnightblue" stroke="midnightblue" points="469.12,-419.96 479.7,-419.45 471.11,-413.25 469.12,-419.96"/>
</g>
<!-- Node12 -->
<g id="node12" class="node">
<title>Node12</title>
<g id="a_node12"><a xlink:href="group__datatypes__iterable__operate.html#ga894d4bec62cc9cf38d5e099de3028c54" target="_top" xlink:title="Return the second element of an iterable value.">
<polygon fill="white" stroke="black" points="484,-380.5 484,-399.5 535,-399.5 535,-380.5 484,-380.5"/>
<text text-anchor="middle" x="509.5" y="-387.5" font-family="Helvetica,sans-Serif" font-size="10.00">second</text>
</a>
</g>
</g>
<!-- Node9&#45;&gt;Node12 -->
<g id="edge12" class="edge">
<title>Node9&#45;&gt;Node12</title>
<path fill="none" stroke="midnightblue" d="M434.04,-390C447.39,-390 461.37,-390 473.56,-390"/>
<polygon fill="midnightblue" stroke="midnightblue" points="473.75,-393.5 483.75,-390 473.75,-386.5 473.75,-393.5"/>
</g>
<!-- Node14&#45;&gt;Node2 -->
<g id="edge17" class="edge">
<title>Node14&#45;&gt;Node2</title>
<path fill="none" stroke="midnightblue" d="M264.05,-266.45C272.25,-263.65 281.04,-260.41 289,-257 361.55,-225.95 443.05,-180.73 483.26,-157.69"/>
<polygon fill="midnightblue" stroke="midnightblue" points="485.19,-160.62 492.11,-152.59 481.7,-154.55 485.19,-160.62"/>
</g>
<!-- Node14&#45;&gt;Node5 -->
<g id="edge18" class="edge">
<title>Node14&#45;&gt;Node5</title>
<path fill="none" stroke="midnightblue" d="M260.92,-266.43C300.31,-254.21 374.72,-236.92 434,-257 457.21,-264.86 478.87,-283.17 492.79,-296.93"/>
<polygon fill="midnightblue" stroke="midnightblue" points="490.56,-299.66 500.04,-304.4 495.58,-294.79 490.56,-299.66"/>
</g>
<!-- Node14&#45;&gt;Node11 -->
<g id="edge22" class="edge">
<title>Node14&#45;&gt;Node11</title>
<path fill="none" stroke="midnightblue" d="M244.84,-285.59C256.93,-296.24 276.08,-314.4 289,-333 310.33,-363.69 294.49,-387.41 325,-409 367.36,-438.97 429.6,-438.62 469.59,-434.32"/>
<polygon fill="midnightblue" stroke="midnightblue" points="470.24,-437.76 479.75,-433.09 469.4,-430.81 470.24,-437.76"/>
</g>
<!-- Node15 -->
<g id="node15" class="node">
<title>Node15</title>
<g id="a_node15"><a xlink:href="group__tools__extrude.html#ga31947e37a3512d9814d47f8f8c960f84" target="_top" xlink:title="Translate, rotate, and revolve a 2d shape about the z&#45;axis.">
<polygon fill="white" stroke="black" points="329,-152.5 329,-171.5 430,-171.5 430,-152.5 329,-152.5"/>
<text text-anchor="middle" x="379.5" y="-159.5" font-family="Helvetica,sans-Serif" font-size="10.00">extrude_rotate_tr</text>
</a>
</g>
</g>
<!-- Node14&#45;&gt;Node15 -->
<g id="edge19" class="edge">
<title>Node14&#45;&gt;Node15</title>
<path fill="none" stroke="midnightblue" d="M273.74,-266.44C279.26,-263.97 284.54,-260.88 289,-257 315.7,-233.79 299.39,-210.42 325,-186 329.01,-182.18 333.72,-178.9 338.67,-176.1"/>
<polygon fill="midnightblue" stroke="midnightblue" points="340.34,-179.18 347.72,-171.58 337.21,-172.92 340.34,-179.18"/>
</g>
<!-- Node16 -->
<g id="node16" class="node">
<title>Node16</title>
<g id="a_node16"><a xlink:href="group__math__utility.html#gaf9e83459b8955e67df8371e48c5c6194" target="_top" xlink:title="Return facets number for the given arc radius.">
<polygon fill="white" stroke="black" points="356,-266.5 356,-285.5 403,-285.5 403,-266.5 356,-266.5"/>
<text text-anchor="middle" x="379.5" y="-273.5" font-family="Helvetica,sans-Serif" font-size="10.00">get_fn</text>
</a>
</g>
</g>
<!-- Node14&#45;&gt;Node16 -->
<g id="edge21" class="edge">
<title>Node14&#45;&gt;Node16</title>
<path fill="none" stroke="midnightblue" d="M286.26,-276C306.11,-276 328.09,-276 345.62,-276"/>
<polygon fill="midnightblue" stroke="midnightblue" points="345.9,-279.5 355.9,-276 345.9,-272.5 345.9,-279.5"/>
</g>
<!-- Node15&#45;&gt;Node2 -->
<g id="edge20" class="edge">
<title>Node15&#45;&gt;Node2</title>
<path fill="none" stroke="midnightblue" d="M430.35,-154.6C446.13,-152.26 463.11,-149.74 477.2,-147.65"/>
<polygon fill="midnightblue" stroke="midnightblue" points="477.97,-151.07 487.34,-146.14 476.94,-144.15 477.97,-151.07"/>
</g>
<!-- Node18&#45;&gt;Node2 -->
<g id="edge26" class="edge">
<title>Node18&#45;&gt;Node2</title>
<path fill="none" stroke="midnightblue" d="M268.69,-57.53C309.06,-68.77 377.02,-88.65 434,-110 449.14,-115.67 465.6,-122.85 479.2,-129.07"/>
<polygon fill="midnightblue" stroke="midnightblue" points="477.98,-132.36 488.53,-133.39 480.92,-126.01 477.98,-132.36"/>
</g>
<!-- Node19 -->
<g id="node19" class="node">
<title>Node19</title>
<g id="a_node19"><a xlink:href="group__datatypes__euclidean.html#ga3d5c07c70f271bcf9144f50ce8620a89" target="_top" xlink:title="Compute the angle between two lines or vectors in a 3d or 2d&#45;space.">
<polygon fill="white" stroke="black" points="352,-38.5 352,-57.5 407,-57.5 407,-38.5 352,-38.5"/>
<text text-anchor="middle" x="379.5" y="-45.5" font-family="Helvetica,sans-Serif" font-size="10.00">angle_ll</text>
</a>
</g>
</g>
<!-- Node18&#45;&gt;Node19 -->
<g id="edge27" class="edge">
<title>Node18&#45;&gt;Node19</title>
<path fill="none" stroke="midnightblue" d="M273.12,-48C294.5,-48 320.71,-48 341.65,-48"/>
<polygon fill="midnightblue" stroke="midnightblue" points="341.76,-51.5 351.76,-48 341.76,-44.5 341.76,-51.5"/>
</g>
<!-- Node20 -->
<g id="node20" class="node">
<title>Node20</title>
<g id="a_node20"><a xlink:href="group__math__polygon.html#ga6aea22d31f8f086c44c7241eee3ab4c2" target="_top" xlink:title="Compute coordinates for an n&#45;sided regular polygon in 2D.">
<polygon fill="white" stroke="black" points="326,-0.5 326,-19.5 433,-19.5 433,-0.5 326,-0.5"/>
<text text-anchor="middle" x="379.5" y="-7.5" font-family="Helvetica,sans-Serif" font-size="10.00">polygon_regular_p</text>
</a>
</g>
</g>
<!-- Node18&#45;&gt;Node20 -->
<g id="edge28" class="edge">
<title>Node18&#45;&gt;Node20</title>
<path fill="none" stroke="midnightblue" d="M270.09,-38.41C288.97,-33.46 312.19,-27.38 332.29,-22.11"/>
<polygon fill="midnightblue" stroke="midnightblue" points="333.39,-25.44 342.17,-19.52 331.61,-18.67 333.39,-25.44"/>
</g>
<!-- Node22&#45;&gt;Node7 -->
<g id="edge31" class="edge">
<title>Node22&#45;&gt;Node7</title>
<path fill="none" stroke="midnightblue" d="M262.03,-397.14C271.7,-400.79 281.84,-406.18 289,-414 323.43,-451.65 289.33,-486.53 325,-523 328.44,-526.51 332.57,-529.38 336.99,-531.72"/>
<polygon fill="midnightblue" stroke="midnightblue" points="335.78,-535.01 346.34,-535.81 338.58,-528.6 335.78,-535.01"/>
</g>
</g>
</svg>
