<?xml version="1.0" encoding="UTF-8" standalone="no"?>
<!DOCTYPE svg PUBLIC "-//W3C//DTD SVG 1.1//EN"
 "http://www.w3.org/Graphics/SVG/1.1/DTD/svg11.dtd">
<!-- Generated by graphviz version 2.43.0 (0)
 -->
<!-- Title: angle Pages: 1 -->
<svg width="634pt" height="436pt"
 viewBox="0.00 0.00 634.00 435.92" xmlns="http://www.w3.org/2000/svg" xmlns:xlink="http://www.w3.org/1999/xlink">
<g id="graph0" class="graph" transform="scale(1 1) rotate(0) translate(4 431.92)">
<title>angle</title>
<polygon fill="white" stroke="transparent" points="-4,4 -4,-431.92 630,-431.92 630,4 -4,4"/>
<!-- Node1 -->
<g id="node1" class="node">
<title>Node1</title>
<g id="a_node1"><a xlink:title="Convert an angle from some units to another.">
<polygon fill="#bfbfbf" stroke="black" points="582,-152.5 582,-171.5 626,-171.5 626,-152.5 582,-152.5"/>
<text text-anchor="middle" x="604" y="-159.5" font-family="Helvetica,sans-Serif" font-size="10.00">angle</text>
</a>
</g>
</g>
<!-- Node2 -->
<g id="node2" class="node">
<title>Node2</title>
<g id="a_node2"><a xlink:href="group__shapes__basic__3d.html#ga8a71b8cd52ae5ef7a2510ff579734108" target="_top" xlink:title="A cone.">
<polygon fill="white" stroke="black" points="475.5,-368.5 475.5,-387.5 515.5,-387.5 515.5,-368.5 475.5,-368.5"/>
<text text-anchor="middle" x="495.5" y="-375.5" font-family="Helvetica,sans-Serif" font-size="10.00">cone</text>
</a>
</g>
</g>
<!-- Node1&#45;&gt;Node2 -->
<g id="edge1" class="edge">
<title>Node1&#45;&gt;Node2</title>
<path fill="none" stroke="midnightblue" d="M600.82,-181.89C596.11,-217.13 582.32,-291.58 546,-342 538.05,-353.04 525.67,-362.04 515.29,-368.28"/>
<polygon fill="midnightblue" stroke="midnightblue" points="604.34,-181.88 602.08,-171.53 597.39,-181.03 604.34,-181.88"/>
</g>
<!-- Node5 -->
<g id="node5" class="node">
<title>Node5</title>
<g id="a_node5"><a xlink:href="group__models__3d__misc__omdl__logo.html#gab176f64dad7e83d4fb056be44b71f630" target="_top" xlink:title="Standard omdl logo.">
<polygon fill="white" stroke="black" points="321.5,-380.5 321.5,-399.5 389.5,-399.5 389.5,-380.5 321.5,-380.5"/>
<text text-anchor="middle" x="355.5" y="-387.5" font-family="Helvetica,sans-Serif" font-size="10.00">omdl_logo</text>
</a>
</g>
</g>
<!-- Node1&#45;&gt;Node5 -->
<g id="edge20" class="edge">
<title>Node1&#45;&gt;Node5</title>
<path fill="none" stroke="midnightblue" d="M597.85,-181.66C590.17,-207.92 573.58,-254.76 546,-286 502.29,-335.52 429.11,-366.1 387.65,-380.39"/>
<polygon fill="midnightblue" stroke="midnightblue" points="601.29,-182.34 600.6,-171.77 594.55,-180.46 601.29,-182.34"/>
</g>
<!-- Node6 -->
<g id="node6" class="node">
<title>Node6</title>
<g id="a_node6"><a xlink:href="group__tools__drafting__dimension.html#ga6b8e17d22ac4a95d25a90be8a74c0689" target="_top" xlink:title="Construct a angular dimension arc.">
<polygon fill="white" stroke="black" points="448,-0.5 448,-19.5 543,-19.5 543,-0.5 448,-0.5"/>
<text text-anchor="middle" x="495.5" y="-7.5" font-family="Helvetica,sans-Serif" font-size="10.00">draft_dim_angle</text>
</a>
</g>
</g>
<!-- Node1&#45;&gt;Node6 -->
<g id="edge7" class="edge">
<title>Node1&#45;&gt;Node6</title>
<path fill="none" stroke="midnightblue" d="M598.79,-142.45C591.98,-115.08 576.19,-65.18 546,-34 540.09,-27.89 532.3,-23.13 524.66,-19.52"/>
<polygon fill="midnightblue" stroke="midnightblue" points="595.42,-143.43 601.1,-152.38 602.24,-141.84 595.42,-143.43"/>
</g>
<!-- Node7 -->
<g id="node7" class="node">
<title>Node7</title>
<g id="a_node7"><a xlink:href="group__tools__extrude.html#ga31947e37a3512d9814d47f8f8c960f84" target="_top" xlink:title="Translate, rotate, and revolve a 2d shape about the z&#45;axis.">
<polygon fill="white" stroke="black" points="445,-257.5 445,-276.5 546,-276.5 546,-257.5 445,-257.5"/>
<text text-anchor="middle" x="495.5" y="-264.5" font-family="Helvetica,sans-Serif" font-size="10.00">extrude_rotate_tr</text>
</a>
</g>
</g>
<!-- Node1&#45;&gt;Node7 -->
<g id="edge8" class="edge">
<title>Node1&#45;&gt;Node7</title>
<path fill="none" stroke="midnightblue" d="M590.51,-180.43C579.75,-195.54 563.27,-216.97 546,-233 535.91,-242.36 523.07,-251.11 512.99,-257.39"/>
<polygon fill="midnightblue" stroke="midnightblue" points="593.58,-182.15 596.43,-171.94 587.84,-178.14 593.58,-182.15"/>
</g>
<!-- Node13 -->
<g id="node13" class="node">
<title>Node13</title>
<g id="a_node13"><a xlink:href="group__tools__extrude.html#ga2cbff19d3b793918b99aae3b56d37dfa" target="_top" xlink:title="Translate, rotate, scale, and revolve a 2d shape about the z&#45;axis.">
<polygon fill="white" stroke="black" points="302,-228.5 302,-247.5 409,-247.5 409,-228.5 302,-228.5"/>
<text text-anchor="middle" x="355.5" y="-235.5" font-family="Helvetica,sans-Serif" font-size="10.00">extrude_rotate_trs</text>
</a>
</g>
</g>
<!-- Node1&#45;&gt;Node13 -->
<g id="edge18" class="edge">
<title>Node1&#45;&gt;Node13</title>
<path fill="none" stroke="midnightblue" d="M572.36,-172.4C563.84,-175.24 554.58,-178.28 546,-181 491.31,-198.34 427.33,-217.31 389.46,-228.41"/>
<polygon fill="midnightblue" stroke="midnightblue" points="573.57,-175.69 581.93,-169.19 571.34,-169.05 573.57,-175.69"/>
</g>
<!-- Node14 -->
<g id="node14" class="node">
<title>Node14</title>
<g id="a_node14"><a xlink:href="group__parts__3d__bearing__bearing__linear__rod.html#ga48399d5e708b4894494c69b2d1e88e26" target="_top" xlink:title="Transform 2d or 3d shape into a linear rod ball or sled bearing.">
<polygon fill="white" stroke="black" points="126,-152.5 126,-171.5 266,-171.5 266,-152.5 126,-152.5"/>
<text text-anchor="middle" x="196" y="-159.5" font-family="Helvetica,sans-Serif" font-size="10.00">make_bearing_linear_rod</text>
</a>
</g>
</g>
<!-- Node1&#45;&gt;Node14 -->
<g id="edge19" class="edge">
<title>Node1&#45;&gt;Node14</title>
<path fill="none" stroke="midnightblue" d="M592.47,-143.47C582.55,-127.76 566.21,-105.94 546,-94 452.08,-38.48 403.81,-27.78 302,-67 256.58,-84.5 218.61,-131.76 203.73,-152.27"/>
<polygon fill="midnightblue" stroke="midnightblue" points="589.64,-145.55 597.8,-152.31 595.64,-141.94 589.64,-145.55"/>
</g>
<!-- Node15 -->
<g id="node15" class="node">
<title>Node15</title>
<g id="a_node15"><a xlink:href="group__tools__repeat.html#ga543a7c0b4c744d98e6197036da5681fe" target="_top" xlink:title="Radially repeat copies of child objects about a z&#45;axis radius.">
<polygon fill="white" stroke="black" points="455,-152.5 455,-171.5 536,-171.5 536,-152.5 455,-152.5"/>
<text text-anchor="middle" x="495.5" y="-159.5" font-family="Helvetica,sans-Serif" font-size="10.00">repeat_radial</text>
</a>
</g>
</g>
<!-- Node1&#45;&gt;Node15 -->
<g id="edge21" class="edge">
<title>Node1&#45;&gt;Node15</title>
<path fill="none" stroke="midnightblue" d="M571.8,-162C560.61,-162 547.84,-162 536.03,-162"/>
<polygon fill="midnightblue" stroke="midnightblue" points="571.96,-165.5 581.96,-162 571.96,-158.5 571.96,-165.5"/>
</g>
<!-- Node16 -->
<g id="node16" class="node">
<title>Node16</title>
<g id="a_node16"><a xlink:href="group__shapes__basic__2d.html#ga7452bf5414a3677ec806a31aed6b61dd" target="_top" xlink:title="A two&#45;dimensional star.">
<polygon fill="white" stroke="black" points="332,-114.5 332,-133.5 379,-133.5 379,-114.5 332,-114.5"/>
<text text-anchor="middle" x="355.5" y="-121.5" font-family="Helvetica,sans-Serif" font-size="10.00">star2d</text>
</a>
</g>
</g>
<!-- Node1&#45;&gt;Node16 -->
<g id="edge27" class="edge">
<title>Node1&#45;&gt;Node16</title>
<path fill="none" stroke="midnightblue" d="M572.44,-150.43C563.98,-147.61 554.72,-144.87 546,-143 486.67,-130.3 415.03,-126.05 379.21,-124.65"/>
<polygon fill="midnightblue" stroke="midnightblue" points="571.33,-153.75 581.93,-153.73 573.63,-147.14 571.33,-153.75"/>
</g>
<!-- Node17 -->
<g id="node17" class="node">
<title>Node17</title>
<g id="a_node17"><a xlink:href="group__shapes__basic__3d.html#gab99dacd3036b965579d68b1d3b7ee2d8" target="_top" xlink:title="A three&#45;dimensional star.">
<polygon fill="white" stroke="black" points="332,-76.5 332,-95.5 379,-95.5 379,-76.5 332,-76.5"/>
<text text-anchor="middle" x="355.5" y="-83.5" font-family="Helvetica,sans-Serif" font-size="10.00">star3d</text>
</a>
</g>
</g>
<!-- Node1&#45;&gt;Node17 -->
<g id="edge28" class="edge">
<title>Node1&#45;&gt;Node17</title>
<path fill="none" stroke="midnightblue" d="M583,-146.38C572.51,-138.88 559.13,-130.39 546,-125 488.67,-101.48 415.55,-91.6 379.17,-87.92"/>
<polygon fill="midnightblue" stroke="midnightblue" points="580.95,-149.21 591.07,-152.34 585.11,-143.58 580.95,-149.21"/>
</g>
<!-- Node3 -->
<g id="node3" class="node">
<title>Node3</title>
<g id="a_node3"><a xlink:href="group__parts__3d__enclosure__clamps.html#ga8fd874789132e42e5470328d18560f1a" target="_top" xlink:title="A clamp, bushing, and/or grip for wire/hose wall penetrations.">
<polygon fill="white" stroke="black" points="164.5,-228.5 164.5,-247.5 227.5,-247.5 227.5,-228.5 164.5,-228.5"/>
<text text-anchor="middle" x="196" y="-235.5" font-family="Helvetica,sans-Serif" font-size="10.00">clamp_cg</text>
</a>
</g>
</g>
<!-- Node2&#45;&gt;Node3 -->
<g id="edge2" class="edge">
<title>Node2&#45;&gt;Node3</title>
<path fill="none" stroke="midnightblue" d="M469,-363.35C452.25,-354.03 429.68,-342.06 409,-333 362.77,-312.75 344.3,-322.52 302,-295 282.5,-282.31 285.95,-268.97 266,-257 254.39,-250.03 240.16,-245.55 227.64,-242.71"/>
<polygon fill="midnightblue" stroke="midnightblue" points="467.7,-366.63 478.14,-368.49 471.14,-360.53 467.7,-366.63"/>
</g>
<!-- Node4 -->
<g id="node4" class="node">
<title>Node4</title>
<g id="a_node4"><a xlink:href="group__parts__3d__enclosure__power__strip.html#ga191779dedf39e4fd769a8dc96b0f8c9e" target="_top" xlink:title="A power strip generator for single gang electrical receptacles.">
<polygon fill="white" stroke="black" points="0,-399.5 0,-418.5 90,-418.5 90,-399.5 0,-399.5"/>
<text text-anchor="middle" x="45" y="-406.5" font-family="Helvetica,sans-Serif" font-size="10.00">power_strip_sg</text>
</a>
</g>
</g>
<!-- Node2&#45;&gt;Node4 -->
<g id="edge6" class="edge">
<title>Node2&#45;&gt;Node4</title>
<path fill="none" stroke="midnightblue" d="M465.74,-390.64C449.42,-397.25 428.43,-404.81 409,-409 285.95,-435.52 251.58,-428.59 126,-420 114.39,-419.21 101.9,-417.77 90.32,-416.19"/>
<polygon fill="midnightblue" stroke="midnightblue" points="467.36,-393.76 475.25,-386.69 464.67,-387.3 467.36,-393.76"/>
</g>
<!-- Node2&#45;&gt;Node5 -->
<g id="edge4" class="edge">
<title>Node2&#45;&gt;Node5</title>
<path fill="none" stroke="midnightblue" d="M465.17,-380.55C443.02,-382.48 412.6,-385.12 389.58,-387.12"/>
<polygon fill="midnightblue" stroke="midnightblue" points="465.65,-384.02 475.31,-379.67 465.05,-377.05 465.65,-384.02"/>
</g>
<!-- Node3&#45;&gt;Node4 -->
<g id="edge3" class="edge">
<title>Node3&#45;&gt;Node4</title>
<path fill="none" stroke="midnightblue" d="M154.42,-243.35C144.36,-246.16 134.13,-250.46 126,-257 77.44,-296.07 54.85,-372.66 48.19,-399.46"/>
<polygon fill="midnightblue" stroke="midnightblue" points="155.43,-246.7 164.36,-240.99 153.82,-239.89 155.43,-246.7"/>
</g>
<!-- Node5&#45;&gt;Node4 -->
<g id="edge5" class="edge">
<title>Node5&#45;&gt;Node4</title>
<path fill="none" stroke="midnightblue" d="M311.32,-398.02C296.96,-400.37 280.84,-402.66 266,-404 205.31,-409.47 134.84,-410.06 90.34,-409.73"/>
<polygon fill="midnightblue" stroke="midnightblue" points="312.15,-401.43 321.43,-396.31 310.99,-394.53 312.15,-401.43"/>
</g>
<!-- Node8 -->
<g id="node8" class="node">
<title>Node8</title>
<g id="a_node8"><a xlink:href="group__parts__3d__fastener__catch__latch.html#gaa90b197081dba0e1fbe7c92aa4079279" target="_top" xlink:title="A catch latch generator.">
<polygon fill="white" stroke="black" points="319.5,-266.5 319.5,-285.5 391.5,-285.5 391.5,-266.5 319.5,-266.5"/>
<text text-anchor="middle" x="355.5" y="-273.5" font-family="Helvetica,sans-Serif" font-size="10.00">catch_latch</text>
</a>
</g>
</g>
<!-- Node7&#45;&gt;Node8 -->
<g id="edge9" class="edge">
<title>Node7&#45;&gt;Node8</title>
<path fill="none" stroke="midnightblue" d="M434.62,-270.91C419.91,-271.86 404.64,-272.86 391.55,-273.71"/>
<polygon fill="midnightblue" stroke="midnightblue" points="434.93,-274.39 444.68,-270.25 434.47,-267.41 434.93,-274.39"/>
</g>
<!-- Node9 -->
<g id="node9" class="node">
<title>Node9</title>
<g id="a_node9"><a xlink:href="group__tools__extrude.html#ga78405b5fa18461a302a2f24646499ece" target="_top" xlink:title="Translate, rotate, and revolve a 2d shape about the z&#45;axis with linear elongation.">
<polygon fill="white" stroke="black" points="303.5,-342.5 303.5,-361.5 407.5,-361.5 407.5,-342.5 303.5,-342.5"/>
<text text-anchor="middle" x="355.5" y="-349.5" font-family="Helvetica,sans-Serif" font-size="10.00">extrude_rotate_trl</text>
</a>
</g>
</g>
<!-- Node7&#45;&gt;Node9 -->
<g id="edge10" class="edge">
<title>Node7&#45;&gt;Node9</title>
<path fill="none" stroke="midnightblue" d="M470.08,-282.04C441.82,-299.45 396.12,-327.59 372.22,-342.32"/>
<polygon fill="midnightblue" stroke="midnightblue" points="472.26,-284.81 478.94,-276.59 468.59,-278.85 472.26,-284.81"/>
</g>
<!-- Node7&#45;&gt;Node13 -->
<g id="edge16" class="edge">
<title>Node7&#45;&gt;Node13</title>
<path fill="none" stroke="midnightblue" d="M438.83,-255.3C426.6,-252.73 413.79,-250.04 402.02,-247.57"/>
<polygon fill="midnightblue" stroke="midnightblue" points="438.43,-258.79 448.93,-257.42 439.86,-251.94 438.43,-258.79"/>
</g>
<!-- Node9&#45;&gt;Node3 -->
<g id="edge11" class="edge">
<title>Node9&#45;&gt;Node3</title>
<path fill="none" stroke="midnightblue" d="M315.58,-337.91C310.67,-335.1 305.98,-331.82 302,-328 276.48,-303.49 293.4,-279.39 266,-257 255.22,-248.19 240.67,-243.46 227.71,-240.91"/>
<polygon fill="midnightblue" stroke="midnightblue" points="314.06,-341.06 324.56,-342.45 317.22,-334.81 314.06,-341.06"/>
</g>
<!-- Node9&#45;&gt;Node4 -->
<g id="edge12" class="edge">
<title>Node9&#45;&gt;Node4</title>
<path fill="none" stroke="midnightblue" d="M301.7,-363.7C289.97,-366.2 277.57,-368.76 266,-371 205.31,-382.75 134.84,-394.61 90.34,-401.88"/>
<polygon fill="midnightblue" stroke="midnightblue" points="302.77,-367.05 311.81,-361.53 301.3,-360.21 302.77,-367.05"/>
</g>
<!-- Node10 -->
<g id="node10" class="node">
<title>Node10</title>
<g id="a_node10"><a xlink:href="group__shapes__revolved.html#ga58a3e713a904c96b69ddd8f87f7f3bb1" target="_top" xlink:title="An elliptical cross&#45;sectional profile revolved about the z&#45;axis.">
<polygon fill="white" stroke="black" points="148.5,-342.5 148.5,-361.5 243.5,-361.5 243.5,-342.5 148.5,-342.5"/>
<text text-anchor="middle" x="196" y="-349.5" font-family="Helvetica,sans-Serif" font-size="10.00">torus_ellipse_cs</text>
</a>
</g>
</g>
<!-- Node9&#45;&gt;Node10 -->
<g id="edge13" class="edge">
<title>Node9&#45;&gt;Node10</title>
<path fill="none" stroke="midnightblue" d="M293.26,-352C276.76,-352 259.18,-352 243.62,-352"/>
<polygon fill="midnightblue" stroke="midnightblue" points="293.36,-355.5 303.36,-352 293.36,-348.5 293.36,-355.5"/>
</g>
<!-- Node11 -->
<g id="node11" class="node">
<title>Node11</title>
<g id="a_node11"><a xlink:href="group__shapes__revolved.html#ga69b374bbebd7d87cfcd06b6bd3278404" target="_top" xlink:title="A trapezoidal cross&#45;sectional profile revolved about the z&#45;axis.">
<polygon fill="white" stroke="black" points="141,-304.5 141,-323.5 251,-323.5 251,-304.5 141,-304.5"/>
<text text-anchor="middle" x="196" y="-311.5" font-family="Helvetica,sans-Serif" font-size="10.00">torus_pg_trapezoid</text>
</a>
</g>
</g>
<!-- Node9&#45;&gt;Node11 -->
<g id="edge14" class="edge">
<title>Node9&#45;&gt;Node11</title>
<path fill="none" stroke="midnightblue" d="M304.9,-340.03C282.82,-334.71 257.2,-328.52 236.46,-323.52"/>
<polygon fill="midnightblue" stroke="midnightblue" points="304.21,-343.47 314.76,-342.41 305.86,-336.66 304.21,-343.47"/>
</g>
<!-- Node12 -->
<g id="node12" class="node">
<title>Node12</title>
<g id="a_node12"><a xlink:href="group__shapes__revolved.html#gad587c003585db775fd441468954b7c43" target="_top" xlink:title="A rectangular cross&#45;sectional profile revolved about the z&#45;axis.">
<polygon fill="white" stroke="black" points="144.5,-266.5 144.5,-285.5 247.5,-285.5 247.5,-266.5 144.5,-266.5"/>
<text text-anchor="middle" x="196" y="-273.5" font-family="Helvetica,sans-Serif" font-size="10.00">torus_rectangle_c</text>
</a>
</g>
</g>
<!-- Node9&#45;&gt;Node12 -->
<g id="edge15" class="edge">
<title>Node9&#45;&gt;Node12</title>
<path fill="none" stroke="midnightblue" d="M319.86,-338.04C313.73,-335.05 307.54,-331.67 302,-328 283.91,-316.01 284.99,-305.51 266,-295 259.04,-291.15 251.25,-288.04 243.48,-285.54"/>
<polygon fill="midnightblue" stroke="midnightblue" points="318.8,-341.41 329.35,-342.41 321.73,-335.05 318.8,-341.41"/>
</g>
<!-- Node13&#45;&gt;Node14 -->
<g id="edge17" class="edge">
<title>Node13&#45;&gt;Node14</title>
<path fill="none" stroke="midnightblue" d="M325.37,-223.94C293.76,-208.69 244.15,-184.75 216.79,-171.55"/>
<polygon fill="midnightblue" stroke="midnightblue" points="324.03,-227.18 334.55,-228.37 327.07,-220.88 324.03,-227.18"/>
</g>
<!-- Node15&#45;&gt;Node3 -->
<g id="edge22" class="edge">
<title>Node15&#45;&gt;Node3</title>
<path fill="none" stroke="midnightblue" d="M447.27,-174.07C385.7,-189.79 279.76,-216.86 227.69,-230.16"/>
<polygon fill="midnightblue" stroke="midnightblue" points="448.3,-177.41 457.12,-171.55 446.57,-170.63 448.3,-177.41"/>
</g>
<!-- Node15&#45;&gt;Node5 -->
<g id="edge24" class="edge">
<title>Node15&#45;&gt;Node5</title>
<path fill="none" stroke="midnightblue" d="M482.41,-180.05C471.47,-197.01 455.5,-223.4 445,-248 422.64,-300.39 448,-329.48 409,-371 403.76,-376.58 396.75,-380.53 389.57,-383.32"/>
<polygon fill="midnightblue" stroke="midnightblue" points="485.35,-181.95 487.91,-171.66 479.5,-178.11 485.35,-181.95"/>
</g>
<!-- Node15&#45;&gt;Node14 -->
<g id="edge23" class="edge">
<title>Node15&#45;&gt;Node14</title>
<path fill="none" stroke="midnightblue" d="M444.97,-162C396.06,-162 320.84,-162 266.06,-162"/>
<polygon fill="midnightblue" stroke="midnightblue" points="444.99,-165.5 454.99,-162 444.99,-158.5 444.99,-165.5"/>
</g>
<!-- Node15&#45;&gt;Node16 -->
<g id="edge25" class="edge">
<title>Node15&#45;&gt;Node16</title>
<path fill="none" stroke="midnightblue" d="M449.87,-149.71C426.28,-143.21 398.32,-135.52 379.19,-130.25"/>
<polygon fill="midnightblue" stroke="midnightblue" points="449.11,-153.13 459.68,-152.41 450.96,-146.38 449.11,-153.13"/>
</g>
<!-- Node15&#45;&gt;Node17 -->
<g id="edge26" class="edge">
<title>Node15&#45;&gt;Node17</title>
<path fill="none" stroke="midnightblue" d="M474.04,-146.31C457.23,-133.94 432.46,-116.85 409,-105 399.57,-100.24 388.65,-96.09 379.22,-92.89"/>
<polygon fill="midnightblue" stroke="midnightblue" points="471.95,-149.11 482.05,-152.3 476.14,-143.51 471.95,-149.11"/>
</g>
</g>
</svg>
