<?xml version="1.0" encoding="UTF-8" standalone="no"?>
<!DOCTYPE svg PUBLIC "-//W3C//DTD SVG 1.1//EN"
 "http://www.w3.org/Graphics/SVG/1.1/DTD/svg11.dtd">
<!-- Generated by graphviz version 2.43.0 (0)
 -->
<!-- Title: triangle_centroid Pages: 1 -->
<svg width="655pt" height="161pt"
 viewBox="0.00 0.00 655.00 161.00" xmlns="http://www.w3.org/2000/svg" xmlns:xlink="http://www.w3.org/1999/xlink">
<g id="graph0" class="graph" transform="scale(1 1) rotate(0) translate(4 157)">
<title>triangle_centroid</title>
<polygon fill="white" stroke="transparent" points="-4,4 -4,-157 651,-157 651,4 -4,4"/>
<!-- Node1 -->
<g id="node1" class="node">
<title>Node1</title>
<g id="a_node1"><a xlink:title="Compute the centroid of a triangle.">
<polygon fill="#bfbfbf" stroke="black" points="548,-95.5 548,-114.5 647,-114.5 647,-95.5 548,-95.5"/>
<text text-anchor="middle" x="597.5" y="-102.5" font-family="Helvetica,sans-Serif" font-size="10.00">triangle_centroid</text>
</a>
</g>
</g>
<!-- Node2 -->
<g id="node2" class="node">
<title>Node2</title>
<g id="a_node2"><a xlink:href="group__models__3d__misc__omdl__logo.html#gab176f64dad7e83d4fb056be44b71f630" target="_top" xlink:title="Standard omdl logo.">
<polygon fill="white" stroke="black" points="430.5,-133.5 430.5,-152.5 498.5,-152.5 498.5,-133.5 430.5,-133.5"/>
<text text-anchor="middle" x="464.5" y="-140.5" font-family="Helvetica,sans-Serif" font-size="10.00">omdl_logo</text>
</a>
</g>
</g>
<!-- Node1&#45;&gt;Node2 -->
<g id="edge1" class="edge">
<title>Node1&#45;&gt;Node2</title>
<path fill="none" stroke="midnightblue" d="M553.79,-117.39C535.85,-122.59 515.3,-128.55 498.55,-133.41"/>
<polygon fill="midnightblue" stroke="midnightblue" points="554.81,-120.74 563.44,-114.59 552.86,-114.01 554.81,-120.74"/>
</g>
<!-- Node4 -->
<g id="node4" class="node">
<title>Node4</title>
<g id="a_node4"><a xlink:href="group__shapes__polygon.html#gac7e2c70b3428b729efd86a675df794e6" target="_top" xlink:title="A polygon triangle specified by three coordinate points with vertex rounding.">
<polygon fill="white" stroke="black" points="417,-76.5 417,-95.5 512,-95.5 512,-76.5 417,-76.5"/>
<text text-anchor="middle" x="464.5" y="-83.5" font-family="Helvetica,sans-Serif" font-size="10.00">pg_triangle_ppp</text>
</a>
</g>
</g>
<!-- Node1&#45;&gt;Node4 -->
<g id="edge3" class="edge">
<title>Node1&#45;&gt;Node4</title>
<path fill="none" stroke="midnightblue" d="M537.76,-96.48C529.18,-95.24 520.44,-93.97 512.15,-92.77"/>
<polygon fill="midnightblue" stroke="midnightblue" points="537.32,-99.95 547.72,-97.93 538.33,-93.03 537.32,-99.95"/>
</g>
<!-- Node3 -->
<g id="node3" class="node">
<title>Node3</title>
<g id="a_node3"><a xlink:href="group__parts__3d__enclosure__power__strip.html#ga191779dedf39e4fd769a8dc96b0f8c9e" target="_top" xlink:title="A power strip generator for single gang electrical receptacles.">
<polygon fill="white" stroke="black" points="0,-76.5 0,-95.5 90,-95.5 90,-76.5 0,-76.5"/>
<text text-anchor="middle" x="45" y="-83.5" font-family="Helvetica,sans-Serif" font-size="10.00">power_strip_sg</text>
</a>
</g>
</g>
<!-- Node2&#45;&gt;Node3 -->
<g id="edge2" class="edge">
<title>Node2&#45;&gt;Node3</title>
<path fill="none" stroke="midnightblue" d="M420.07,-145.79C384.25,-147.42 332.15,-148.26 287,-143 213.97,-134.5 197.54,-121.94 126,-105 113.08,-101.94 98.99,-98.6 86.29,-95.58"/>
<polygon fill="midnightblue" stroke="midnightblue" points="420.37,-149.28 430.19,-145.29 420.03,-142.29 420.37,-149.28"/>
</g>
<!-- Node5 -->
<g id="node5" class="node">
<title>Node5</title>
<g id="a_node5"><a xlink:href="group__shapes__polygon.html#gad85d14f73179499777da1e9297fbcae8" target="_top" xlink:title="A polygon triangle specified by angle&#45;angle&#45;size with vertex rounding.">
<polygon fill="white" stroke="black" points="287,-114.5 287,-133.5 381,-133.5 381,-114.5 287,-114.5"/>
<text text-anchor="middle" x="334" y="-121.5" font-family="Helvetica,sans-Serif" font-size="10.00">pg_triangle_aas</text>
</a>
</g>
</g>
<!-- Node4&#45;&gt;Node5 -->
<g id="edge4" class="edge">
<title>Node4&#45;&gt;Node5</title>
<path fill="none" stroke="midnightblue" d="M421.11,-98.54C403.63,-103.7 383.7,-109.6 367.42,-114.41"/>
<polygon fill="midnightblue" stroke="midnightblue" points="422.48,-101.78 431.07,-95.59 420.49,-95.07 422.48,-101.78"/>
</g>
<!-- Node6 -->
<g id="node6" class="node">
<title>Node6</title>
<g id="a_node6"><a xlink:href="group__shapes__polygon.html#ga45e8a17aef3dd6755f833f25a8937cf7" target="_top" xlink:title="A polygon triangle specified by angle&#45;size&#45;angle with vertex rounding.">
<polygon fill="white" stroke="black" points="287,-76.5 287,-95.5 381,-95.5 381,-76.5 287,-76.5"/>
<text text-anchor="middle" x="334" y="-83.5" font-family="Helvetica,sans-Serif" font-size="10.00">pg_triangle_asa</text>
</a>
</g>
</g>
<!-- Node4&#45;&gt;Node6 -->
<g id="edge5" class="edge">
<title>Node4&#45;&gt;Node6</title>
<path fill="none" stroke="midnightblue" d="M406.5,-86C397.99,-86 389.32,-86 381.08,-86"/>
<polygon fill="midnightblue" stroke="midnightblue" points="406.75,-89.5 416.75,-86 406.75,-82.5 406.75,-89.5"/>
</g>
<!-- Node7 -->
<g id="node7" class="node">
<title>Node7</title>
<g id="a_node7"><a xlink:href="group__shapes__polygon.html#ga24be160074502dce7ff8a78361d4b074" target="_top" xlink:title="A polygon triangle specified by size&#45;angle&#45;size with vertex rounding.">
<polygon fill="white" stroke="black" points="287.5,-38.5 287.5,-57.5 380.5,-57.5 380.5,-38.5 287.5,-38.5"/>
<text text-anchor="middle" x="334" y="-45.5" font-family="Helvetica,sans-Serif" font-size="10.00">pg_triangle_sas</text>
</a>
</g>
</g>
<!-- Node4&#45;&gt;Node7 -->
<g id="edge6" class="edge">
<title>Node4&#45;&gt;Node7</title>
<path fill="none" stroke="midnightblue" d="M421.11,-73.46C403.63,-68.3 383.7,-62.4 367.42,-57.59"/>
<polygon fill="midnightblue" stroke="midnightblue" points="420.49,-76.93 431.07,-76.41 422.48,-70.22 420.49,-76.93"/>
</g>
<!-- Node10 -->
<g id="node10" class="node">
<title>Node10</title>
<g id="a_node10"><a xlink:href="group__shapes__polygon.html#gab9843df753e0537b490ac67cec6e31a9" target="_top" xlink:title="A polygon triangle specified by three side lengths with vertex rounding.">
<polygon fill="white" stroke="black" points="288,-0.5 288,-19.5 380,-19.5 380,-0.5 288,-0.5"/>
<text text-anchor="middle" x="334" y="-7.5" font-family="Helvetica,sans-Serif" font-size="10.00">pg_triangle_sss</text>
</a>
</g>
</g>
<!-- Node4&#45;&gt;Node10 -->
<g id="edge11" class="edge">
<title>Node4&#45;&gt;Node10</title>
<path fill="none" stroke="midnightblue" d="M443.25,-70.19C427.01,-57.97 403.32,-41.14 381,-29 374.62,-25.53 367.48,-22.29 360.76,-19.51"/>
<polygon fill="midnightblue" stroke="midnightblue" points="441.38,-73.16 451.45,-76.45 445.62,-67.6 441.38,-73.16"/>
</g>
<!-- Node8 -->
<g id="node8" class="node">
<title>Node8</title>
<g id="a_node8"><a xlink:href="group__parts__3d__enclosure__project__box__rectangle.html#ga6a5d093d732e65556c46252220f2c4b6" target="_top" xlink:title="A rectangular box maker for project boxes, enclosures and housings.">
<polygon fill="white" stroke="black" points="126,-76.5 126,-95.5 251,-95.5 251,-76.5 126,-76.5"/>
<text text-anchor="middle" x="188.5" y="-83.5" font-family="Helvetica,sans-Serif" font-size="10.00">project_box_rectangle</text>
</a>
</g>
</g>
<!-- Node7&#45;&gt;Node8 -->
<g id="edge7" class="edge">
<title>Node7&#45;&gt;Node8</title>
<path fill="none" stroke="midnightblue" d="M287.03,-60.17C267.18,-65.43 244.31,-71.49 225.7,-76.41"/>
<polygon fill="midnightblue" stroke="midnightblue" points="288.02,-63.53 296.79,-57.59 286.23,-56.77 288.02,-63.53"/>
</g>
<!-- Node9 -->
<g id="node9" class="node">
<title>Node9</title>
<g id="a_node9"><a xlink:href="group__parts__3d__enclosure__mounts.html#gacac878eda32a71cb3b1b174c9aebb56c" target="_top" xlink:title="A mount tab with screw hole and support brace.">
<polygon fill="white" stroke="black" points="137,-38.5 137,-57.5 240,-57.5 240,-38.5 137,-38.5"/>
<text text-anchor="middle" x="188.5" y="-45.5" font-family="Helvetica,sans-Serif" font-size="10.00">screw_mount_tab</text>
</a>
</g>
</g>
<!-- Node7&#45;&gt;Node9 -->
<g id="edge9" class="edge">
<title>Node7&#45;&gt;Node9</title>
<path fill="none" stroke="midnightblue" d="M277.13,-48C264.93,-48 252.07,-48 240.09,-48"/>
<polygon fill="midnightblue" stroke="midnightblue" points="277.2,-51.5 287.2,-48 277.2,-44.5 277.2,-51.5"/>
</g>
<!-- Node8&#45;&gt;Node3 -->
<g id="edge8" class="edge">
<title>Node8&#45;&gt;Node3</title>
<path fill="none" stroke="midnightblue" d="M115.61,-86C106.88,-86 98.17,-86 90.01,-86"/>
<polygon fill="midnightblue" stroke="midnightblue" points="115.85,-89.5 125.85,-86 115.85,-82.5 115.85,-89.5"/>
</g>
<!-- Node9&#45;&gt;Node3 -->
<g id="edge10" class="edge">
<title>Node9&#45;&gt;Node3</title>
<path fill="none" stroke="midnightblue" d="M141.9,-60.25C122.39,-65.48 99.96,-71.51 81.7,-76.41"/>
<polygon fill="midnightblue" stroke="midnightblue" points="143.04,-63.56 151.79,-57.59 141.23,-56.8 143.04,-63.56"/>
</g>
</g>
</svg>
