<?xml version="1.0" encoding="UTF-8" standalone="no"?>
<!DOCTYPE svg PUBLIC "-//W3C//DTD SVG 1.1//EN"
 "http://www.w3.org/Graphics/SVG/1.1/DTD/svg11.dtd">
<!-- Generated by graphviz version 2.43.0 (0)
 -->
<!-- Title: screw_bore Pages: 1 -->
<svg width="345pt" height="142pt"
 viewBox="0.00 0.00 345.00 142.00" xmlns="http://www.w3.org/2000/svg" xmlns:xlink="http://www.w3.org/1999/xlink">
<g id="graph0" class="graph" transform="scale(1 1) rotate(0) translate(4 138)">
<title>screw_bore</title>
<polygon fill="white" stroke="transparent" points="-4,4 -4,-138 341,-138 341,4 -4,4"/>
<!-- Node1 -->
<g id="node1" class="node">
<title>Node1</title>
<g id="a_node1"><a xlink:title="Flat and beveled&#45;head screw bore with nut, nut slot, and bore tolerance.">
<polygon fill="#bfbfbf" stroke="black" points="265,-57.5 265,-76.5 337,-76.5 337,-57.5 265,-57.5"/>
<text text-anchor="middle" x="301" y="-64.5" font-family="Helvetica,sans-Serif" font-size="10.00">screw_bore</text>
</a>
</g>
</g>
<!-- Node2 -->
<g id="node2" class="node">
<title>Node2</title>
<g id="a_node2"><a xlink:href="group__parts__3d__fastener__catch__latch.html#gaa90b197081dba0e1fbe7c92aa4079279" target="_top" xlink:title="A catch latch generator.">
<polygon fill="white" stroke="black" points="141.5,-114.5 141.5,-133.5 213.5,-133.5 213.5,-114.5 141.5,-114.5"/>
<text text-anchor="middle" x="177.5" y="-121.5" font-family="Helvetica,sans-Serif" font-size="10.00">catch_latch</text>
</a>
</g>
</g>
<!-- Node1&#45;&gt;Node2 -->
<g id="edge1" class="edge">
<title>Node1&#45;&gt;Node2</title>
<path fill="none" stroke="midnightblue" d="M274.61,-81.64C261.25,-89.07 244.47,-97.99 229,-105 221.58,-108.36 213.37,-111.64 205.76,-114.49"/>
<polygon fill="midnightblue" stroke="midnightblue" points="276.67,-84.49 283.67,-76.53 273.24,-78.39 276.67,-84.49"/>
</g>
<!-- Node3 -->
<g id="node3" class="node">
<title>Node3</title>
<g id="a_node3"><a xlink:href="group__parts__3d__enclosure__clamps.html#ga8fd874789132e42e5470328d18560f1a" target="_top" xlink:title="A clamp, bushing, and/or grip for wire/hose wall penetrations.">
<polygon fill="white" stroke="black" points="146,-76.5 146,-95.5 209,-95.5 209,-76.5 146,-76.5"/>
<text text-anchor="middle" x="177.5" y="-83.5" font-family="Helvetica,sans-Serif" font-size="10.00">clamp_cg</text>
</a>
</g>
</g>
<!-- Node1&#45;&gt;Node3 -->
<g id="edge2" class="edge">
<title>Node1&#45;&gt;Node3</title>
<path fill="none" stroke="midnightblue" d="M254.6,-74.1C239.4,-76.48 222.82,-79.07 209.03,-81.23"/>
<polygon fill="midnightblue" stroke="midnightblue" points="255.52,-77.5 264.86,-72.5 254.44,-70.58 255.52,-77.5"/>
</g>
<!-- Node4 -->
<g id="node4" class="node">
<title>Node4</title>
<g id="a_node4"><a xlink:href="group__parts__3d__enclosure__power__strip.html#ga191779dedf39e4fd769a8dc96b0f8c9e" target="_top" xlink:title="A power strip generator for single gang electrical receptacles.">
<polygon fill="white" stroke="black" points="0,-38.5 0,-57.5 90,-57.5 90,-38.5 0,-38.5"/>
<text text-anchor="middle" x="45" y="-45.5" font-family="Helvetica,sans-Serif" font-size="10.00">power_strip_sg</text>
</a>
</g>
</g>
<!-- Node1&#45;&gt;Node4 -->
<g id="edge4" class="edge">
<title>Node1&#45;&gt;Node4</title>
<path fill="none" stroke="midnightblue" d="M254.85,-63.62C208.3,-60.14 136.2,-54.75 90.06,-51.3"/>
<polygon fill="midnightblue" stroke="midnightblue" points="254.72,-67.12 264.95,-64.38 255.24,-60.14 254.72,-67.12"/>
</g>
<!-- Node5 -->
<g id="node5" class="node">
<title>Node5</title>
<g id="a_node5"><a xlink:href="group__parts__3d__enclosure__mounts.html#gacac878eda32a71cb3b1b174c9aebb56c" target="_top" xlink:title="A mount tab with screw hole and support brace.">
<polygon fill="white" stroke="black" points="126,-0.5 126,-19.5 229,-19.5 229,-0.5 126,-0.5"/>
<text text-anchor="middle" x="177.5" y="-7.5" font-family="Helvetica,sans-Serif" font-size="10.00">screw_mount_tab</text>
</a>
</g>
</g>
<!-- Node1&#45;&gt;Node5 -->
<g id="edge5" class="edge">
<title>Node1&#45;&gt;Node5</title>
<path fill="none" stroke="midnightblue" d="M270.38,-53.1C248.21,-42.7 218.46,-28.75 198.9,-19.57"/>
<polygon fill="midnightblue" stroke="midnightblue" points="269.12,-56.38 279.66,-57.46 272.1,-50.04 269.12,-56.38"/>
</g>
<!-- Node3&#45;&gt;Node4 -->
<g id="edge3" class="edge">
<title>Node3&#45;&gt;Node4</title>
<path fill="none" stroke="midnightblue" d="M136.28,-74.29C117.8,-68.91 96.15,-62.6 78.69,-57.52"/>
<polygon fill="midnightblue" stroke="midnightblue" points="135.32,-77.66 145.9,-77.09 137.28,-70.93 135.32,-77.66"/>
</g>
<!-- Node5&#45;&gt;Node4 -->
<g id="edge6" class="edge">
<title>Node5&#45;&gt;Node4</title>
<path fill="none" stroke="midnightblue" d="M133.95,-22.39C116.08,-27.59 95.61,-33.55 78.92,-38.41"/>
<polygon fill="midnightblue" stroke="midnightblue" points="134.95,-25.75 143.57,-19.59 132.99,-19.02 134.95,-25.75"/>
</g>
</g>
</svg>
