<?xml version="1.0" encoding="UTF-8" standalone="no"?>
<!DOCTYPE svg PUBLIC "-//W3C//DTD SVG 1.1//EN"
 "http://www.w3.org/Graphics/SVG/1.1/DTD/svg11.dtd">
<!-- Generated by graphviz version 2.43.0 (0)
 -->
<!-- Title: Units Pages: 1 -->
<svg width="284pt" height="154pt"
 viewBox="0.00 0.00 284.00 154.24" xmlns="http://www.w3.org/2000/svg" xmlns:xlink="http://www.w3.org/1999/xlink">
<g id="graph0" class="graph" transform="scale(1 1) rotate(0) translate(4 150.24)">
<title>Units</title>
<polygon fill="white" stroke="transparent" points="-4,4 -4,-150.24 280,-150.24 280,4 -4,4"/>
<!-- Node3 -->
<g id="node1" class="node">
<title>Node3</title>
<g id="a_node1"><a xlink:href="group__units__coordinate.html" target="_top" xlink:title="Coordinate systems and conversions.">
<polygon fill="white" stroke="black" points="276,-137.19 156,-137.19 156,-118.19 276,-118.19 276,-137.19"/>
<text text-anchor="middle" x="216" y="-125.19" font-family="Helvetica,sans-Serif" font-size="10.00">Coordinates Systems</text>
</a>
</g>
</g>
<!-- Node1 -->
<g id="node2" class="node">
<title>Node1</title>
<g id="a_node2"><a xlink:title="Unit definitions and unit conversions.">
<polygon fill="#bfbfbf" stroke="black" points="42,-84.19 0,-84.19 0,-65.19 42,-65.19 42,-84.19"/>
<text text-anchor="middle" x="21" y="-72.19" font-family="Helvetica,sans-Serif" font-size="10.00">Units</text>
</a>
</g>
</g>
<!-- Node1&#45;&gt;Node3 -->
<g id="edge2" class="edge">
<title>Node1&#45;&gt;Node3</title>
<path fill="none" stroke="black" d="M28.77,-93.71C34.71,-107.26 44.81,-124.48 60,-132.69 98.97,-153.74 151.85,-145.67 184.68,-137.22"/>
<polygon fill="black" stroke="black" points="31.96,-92.27 25.02,-84.27 25.46,-94.85 31.96,-92.27"/>
</g>
<!-- Node1&#45;&gt;Node3 -->
<g id="edge5" class="edge">
<title>Node1&#45;&gt;Node3</title>
<path fill="none" stroke="darkgreen" stroke-dasharray="5,2" d="M42.28,-83.95C47.94,-86.34 54.15,-88.77 60,-90.69 94.84,-102.1 135.14,-111.61 165.91,-118.13"/>
<text text-anchor="middle" x="99" y="-113.69" font-family="Helvetica,sans-Serif" font-size="10.00">coordinate.scad</text>
</g>
<!-- Node4 -->
<g id="node3" class="node">
<title>Node4</title>
<g id="a_node3"><a xlink:href="group__units__length.html" target="_top" xlink:title="Length units and conversions.">
<polygon fill="white" stroke="black" points="255,-89.19 177,-89.19 177,-70.19 255,-70.19 255,-89.19"/>
<text text-anchor="middle" x="216" y="-77.19" font-family="Helvetica,sans-Serif" font-size="10.00">Length Units</text>
</a>
</g>
</g>
<!-- Node1&#45;&gt;Node4 -->
<g id="edge3" class="edge">
<title>Node1&#45;&gt;Node4</title>
<path fill="none" stroke="black" d="M52.44,-75.48C86.08,-76.35 140.31,-77.75 176.78,-78.7"/>
<polygon fill="black" stroke="black" points="52.38,-71.97 42.29,-75.21 52.2,-78.97 52.38,-71.97"/>
</g>
<!-- Node1&#45;&gt;Node4 -->
<g id="edge6" class="edge">
<title>Node1&#45;&gt;Node4</title>
<path fill="none" stroke="darkgreen" stroke-dasharray="5,2" d="M42.14,-65.77C47.81,-63.68 54.05,-61.75 60,-60.69 94.13,-54.6 103.59,-56.51 138,-60.69 153.31,-62.55 169.96,-66.42 183.85,-70.18"/>
<text text-anchor="middle" x="99" y="-63.69" font-family="Helvetica,sans-Serif" font-size="10.00">length.scad</text>
</g>
<!-- Node2 -->
<g id="node4" class="node">
<title>Node2</title>
<g id="a_node4"><a xlink:href="group__units__angle.html" target="_top" xlink:title="Angle units and conversions.">
<polygon fill="white" stroke="black" points="252.5,-25.19 179.5,-25.19 179.5,-6.19 252.5,-6.19 252.5,-25.19"/>
<text text-anchor="middle" x="216" y="-13.19" font-family="Helvetica,sans-Serif" font-size="10.00">Angle Units</text>
</a>
</g>
</g>
<!-- Node1&#45;&gt;Node2 -->
<g id="edge1" class="edge">
<title>Node1&#45;&gt;Node2</title>
<path fill="none" stroke="black" d="M45.04,-59.93C49.86,-57.26 54.99,-54.69 60,-52.69 99.44,-36.95 147.31,-26.79 179.32,-21.17"/>
<polygon fill="black" stroke="black" points="43.13,-56.99 36.29,-65.09 46.69,-63.02 43.13,-56.99"/>
</g>
<!-- Node1&#45;&gt;Node2 -->
<g id="edge4" class="edge">
<title>Node1&#45;&gt;Node2</title>
<path fill="none" stroke="darkgreen" stroke-dasharray="5,2" d="M24.92,-64.79C29.67,-50.71 40.56,-25.39 60,-14.69 96.9,5.62 146.61,0.72 179.68,-6.15"/>
<text text-anchor="middle" x="99" y="-17.69" font-family="Helvetica,sans-Serif" font-size="10.00">angle.scad</text>
</g>
</g>
</svg>
