<?xml version="1.0" encoding="UTF-8" standalone="no"?>
<!DOCTYPE svg PUBLIC "-//W3C//DTD SVG 1.1//EN"
 "http://www.w3.org/Graphics/SVG/1.1/DTD/svg11.dtd">
<!-- Generated by graphviz version 2.43.0 (0)
 -->
<!-- Title: Bearing Pages: 1 -->
<svg width="344pt" height="80pt"
 viewBox="0.00 0.00 344.00 80.48" xmlns="http://www.w3.org/2000/svg" xmlns:xlink="http://www.w3.org/1999/xlink">
<g id="graph0" class="graph" transform="scale(1 1) rotate(0) translate(4 76.48)">
<title>Bearing</title>
<polygon fill="white" stroke="transparent" points="-4,4 -4,-76.48 340,-76.48 340,4 -4,4"/>
<!-- Node3 -->
<g id="node1" class="node">
<title>Node3</title>
<g id="a_node1"><a xlink:href="group__models__3d__bearing__lmxuu.html" target="_top" xlink:title="Linear motion bearing model.">
<polygon fill="white" stroke="black" points="327,-70.73 280,-70.73 280,-51.73 327,-51.73 327,-70.73"/>
<text text-anchor="middle" x="303.5" y="-58.73" font-family="Helvetica,sans-Serif" font-size="10.00">lmxuu</text>
</a>
</g>
</g>
<!-- Node1 -->
<g id="node2" class="node">
<title>Node1</title>
<g id="a_node2"><a xlink:title="Linear and radial bearings.">
<polygon fill="#bfbfbf" stroke="black" points="158,-46.73 104,-46.73 104,-27.73 158,-27.73 158,-46.73"/>
<text text-anchor="middle" x="131" y="-34.73" font-family="Helvetica,sans-Serif" font-size="10.00">Bearing</text>
</a>
</g>
</g>
<!-- Node1&#45;&gt;Node3 -->
<g id="edge2" class="edge">
<title>Node1&#45;&gt;Node3</title>
<path fill="none" stroke="black" d="M150.58,-52.94C158,-58.24 166.93,-63.51 176,-66.23 210.95,-76.71 253.76,-71.49 279.55,-66.53"/>
<polygon fill="black" stroke="black" points="152.71,-50.16 142.65,-46.85 148.45,-55.72 152.71,-50.16"/>
</g>
<!-- Node1&#45;&gt;Node3 -->
<g id="edge4" class="edge">
<title>Node1&#45;&gt;Node3</title>
<path fill="none" stroke="darkgreen" stroke-dasharray="5,2" d="M158.47,-40.5C183,-43.59 220.5,-48.45 253,-53.23 261.79,-54.52 271.43,-56.05 279.85,-57.42"/>
<text text-anchor="middle" x="214.5" y="-56.23" font-family="Helvetica,sans-Serif" font-size="10.00">lmxuu.scad</text>
</g>
<!-- Node4 -->
<g id="node4" class="node">
<title>Node4</title>
<g id="a_node4"><a xlink:href="group__models__3d__bearing__radial__ball.html" target="_top" xlink:title="Radial ball bearing model.">
<polygon fill="white" stroke="black" points="336,-22.73 271,-22.73 271,-3.73 336,-3.73 336,-22.73"/>
<text text-anchor="middle" x="303.5" y="-10.73" font-family="Helvetica,sans-Serif" font-size="10.00">radial ball</text>
</a>
</g>
</g>
<!-- Node1&#45;&gt;Node4 -->
<g id="edge3" class="edge">
<title>Node1&#45;&gt;Node4</title>
<path fill="none" stroke="black" d="M168.48,-32.09C198.96,-27.8 241.98,-21.75 270.98,-17.66"/>
<polygon fill="black" stroke="black" points="167.68,-28.67 158.27,-33.53 168.66,-35.6 167.68,-28.67"/>
</g>
<!-- Node1&#45;&gt;Node4 -->
<g id="edge5" class="edge">
<title>Node1&#45;&gt;Node4</title>
<path fill="none" stroke="darkgreen" stroke-dasharray="5,2" d="M141.85,-27.56C150.17,-20.11 162.82,-10.4 176,-6.23 207.14,3.64 244.72,-0.29 270.79,-5.34"/>
<text text-anchor="middle" x="214.5" y="-9.23" font-family="Helvetica,sans-Serif" font-size="10.00">radial_ball.scad</text>
</g>
<!-- Node2 -->
<g id="node3" class="node">
<title>Node2</title>
<g id="a_node3"><a xlink:href="group__models__3d.html" target="_top" xlink:title="3d black&#45;box models of commodity components.">
<polygon fill="white" stroke="black" points="67,-46.73 0,-46.73 0,-27.73 67,-27.73 67,-46.73"/>
<text text-anchor="middle" x="33.5" y="-34.73" font-family="Helvetica,sans-Serif" font-size="10.00">3d Models</text>
</a>
</g>
</g>
<!-- Node2&#45;&gt;Node1 -->
<g id="edge1" class="edge">
<title>Node2&#45;&gt;Node1</title>
<path fill="none" stroke="black" d="M77.19,-37.23C86.28,-37.23 95.62,-37.23 103.87,-37.23"/>
<polygon fill="black" stroke="black" points="77.1,-33.73 67.1,-37.23 77.1,-40.73 77.1,-33.73"/>
</g>
</g>
</svg>
