<?xml version="1.0" encoding="UTF-8" standalone="no"?>
<!DOCTYPE svg PUBLIC "-//W3C//DTD SVG 1.1//EN"
 "http://www.w3.org/Graphics/SVG/1.1/DTD/svg11.dtd">
<!-- Generated by graphviz version 2.43.0 (0)
 -->
<!-- Title: second Pages: 1 -->
<svg width="660pt" height="674pt"
 viewBox="0.00 0.00 660.00 674.00" xmlns="http://www.w3.org/2000/svg" xmlns:xlink="http://www.w3.org/1999/xlink">
<g id="graph0" class="graph" transform="scale(1 1) rotate(0) translate(4 670)">
<title>second</title>
<polygon fill="white" stroke="transparent" points="-4,4 -4,-670 656,-670 656,4 -4,4"/>
<!-- Node1 -->
<g id="node1" class="node">
<title>Node1</title>
<g id="a_node1"><a xlink:title="Return the second element of an iterable value.">
<polygon fill="#bfbfbf" stroke="black" points="601,-266.5 601,-285.5 652,-285.5 652,-266.5 601,-266.5"/>
<text text-anchor="middle" x="626.5" y="-273.5" font-family="Helvetica,sans-Serif" font-size="10.00">second</text>
</a>
</g>
</g>
<!-- Node2 -->
<g id="node2" class="node">
<title>Node2</title>
<g id="a_node2"><a xlink:href="group__parts__3d__fastener__catch__latch.html#gaa90b197081dba0e1fbe7c92aa4079279" target="_top" xlink:title="A catch latch generator.">
<polygon fill="white" stroke="black" points="160,-570.5 160,-589.5 232,-589.5 232,-570.5 160,-570.5"/>
<text text-anchor="middle" x="196" y="-577.5" font-family="Helvetica,sans-Serif" font-size="10.00">catch_latch</text>
</a>
</g>
</g>
<!-- Node1&#45;&gt;Node2 -->
<g id="edge1" class="edge">
<title>Node1&#45;&gt;Node2</title>
<path fill="none" stroke="midnightblue" d="M621.52,-295.58C614.53,-326.06 597.56,-385.46 565,-425 477.96,-530.69 306.19,-565.56 232.23,-575.97"/>
<polygon fill="midnightblue" stroke="midnightblue" points="624.96,-296.27 623.66,-285.75 618.12,-294.78 624.96,-296.27"/>
</g>
<!-- Node3 -->
<g id="node3" class="node">
<title>Node3</title>
<g id="a_node3"><a xlink:href="group__tools__drafting__operation.html#ga4e20419a6d4623f21c05179fc8b6df95" target="_top" xlink:title="Construct drafting sheet axes.">
<polygon fill="white" stroke="black" points="474.5,-304.5 474.5,-323.5 541.5,-323.5 541.5,-304.5 474.5,-304.5"/>
<text text-anchor="middle" x="508" y="-311.5" font-family="Helvetica,sans-Serif" font-size="10.00">draft_axes</text>
</a>
</g>
</g>
<!-- Node1&#45;&gt;Node3 -->
<g id="edge2" class="edge">
<title>Node1&#45;&gt;Node3</title>
<path fill="none" stroke="midnightblue" d="M590.83,-287.31C574.07,-292.78 554.17,-299.26 538.2,-304.48"/>
<polygon fill="midnightblue" stroke="midnightblue" points="592.37,-290.49 600.79,-284.06 590.2,-283.83 592.37,-290.49"/>
</g>
<!-- Node4 -->
<g id="node4" class="node">
<title>Node4</title>
<g id="a_node4"><a xlink:href="group__tools__drafting__dimension.html#ga6b8e17d22ac4a95d25a90be8a74c0689" target="_top" xlink:title="Construct a angular dimension arc.">
<polygon fill="white" stroke="black" points="460.5,-266.5 460.5,-285.5 555.5,-285.5 555.5,-266.5 460.5,-266.5"/>
<text text-anchor="middle" x="508" y="-273.5" font-family="Helvetica,sans-Serif" font-size="10.00">draft_dim_angle</text>
</a>
</g>
</g>
<!-- Node1&#45;&gt;Node4 -->
<g id="edge3" class="edge">
<title>Node1&#45;&gt;Node4</title>
<path fill="none" stroke="midnightblue" d="M590.74,-276C579.77,-276 567.45,-276 555.78,-276"/>
<polygon fill="midnightblue" stroke="midnightblue" points="590.79,-279.5 600.79,-276 590.79,-272.5 590.79,-279.5"/>
</g>
<!-- Node5 -->
<g id="node5" class="node">
<title>Node5</title>
<g id="a_node5"><a xlink:href="group__tools__drafting__dimension.html#ga27a35e94597435a74e22d76789e9be5e" target="_top" xlink:title="Construct a dimension line between two points.">
<polygon fill="white" stroke="black" points="465,-228.5 465,-247.5 551,-247.5 551,-228.5 465,-228.5"/>
<text text-anchor="middle" x="508" y="-235.5" font-family="Helvetica,sans-Serif" font-size="10.00">draft_dim_line</text>
</a>
</g>
</g>
<!-- Node1&#45;&gt;Node5 -->
<g id="edge4" class="edge">
<title>Node1&#45;&gt;Node5</title>
<path fill="none" stroke="midnightblue" d="M590.83,-264.69C574.07,-259.22 554.17,-252.74 538.2,-247.52"/>
<polygon fill="midnightblue" stroke="midnightblue" points="590.2,-268.17 600.79,-267.94 592.37,-261.51 590.2,-268.17"/>
</g>
<!-- Node6 -->
<g id="node6" class="node">
<title>Node6</title>
<g id="a_node6"><a xlink:href="group__tools__drafting__dimension.html#gaef1a8150a8ef7be88e086fb3dbab64a9" target="_top" xlink:title="Construct a radial dimension line.">
<polygon fill="white" stroke="black" points="459,-190.5 459,-209.5 557,-209.5 557,-190.5 459,-190.5"/>
<text text-anchor="middle" x="508" y="-197.5" font-family="Helvetica,sans-Serif" font-size="10.00">draft_dim_radius</text>
</a>
</g>
</g>
<!-- Node1&#45;&gt;Node6 -->
<g id="edge5" class="edge">
<title>Node1&#45;&gt;Node6</title>
<path fill="none" stroke="midnightblue" d="M610.82,-258.63C599.43,-246.11 582.65,-229.61 565,-219 558.75,-215.24 551.66,-212.11 544.68,-209.54"/>
<polygon fill="midnightblue" stroke="midnightblue" points="608.24,-261 617.48,-266.18 613.49,-256.37 608.24,-261"/>
</g>
<!-- Node7 -->
<g id="node7" class="node">
<title>Node7</title>
<g id="a_node7"><a xlink:href="group__tools__drafting__primitive.html#gada1e771ce89ef86b6241c43dc01bf62d" target="_top" xlink:title="Draft a polygon with configurable style.">
<polygon fill="white" stroke="black" points="466.5,-152.5 466.5,-171.5 549.5,-171.5 549.5,-152.5 466.5,-152.5"/>
<text text-anchor="middle" x="508" y="-159.5" font-family="Helvetica,sans-Serif" font-size="10.00">draft_polygon</text>
</a>
</g>
</g>
<!-- Node1&#45;&gt;Node7 -->
<g id="edge6" class="edge">
<title>Node1&#45;&gt;Node7</title>
<path fill="none" stroke="midnightblue" d="M618.06,-257.07C608.73,-235.68 590.78,-201.23 565,-181 560.07,-177.13 554.32,-174.03 548.4,-171.55"/>
<polygon fill="midnightblue" stroke="midnightblue" points="614.87,-258.51 621.94,-266.4 621.33,-255.82 614.87,-258.51"/>
</g>
<!-- Node8 -->
<g id="node8" class="node">
<title>Node8</title>
<g id="a_node8"><a xlink:href="group__tools__extrude.html#gab2442cfaf1ad44d6e295ab0979d9e03d" target="_top" xlink:title="Linearly extrude a 2d shape with uniformly&#45;spaced profile scaling.">
<polygon fill="white" stroke="black" points="453.5,-570.5 453.5,-589.5 562.5,-589.5 562.5,-570.5 453.5,-570.5"/>
<text text-anchor="middle" x="508" y="-577.5" font-family="Helvetica,sans-Serif" font-size="10.00">extrude_linear_uss</text>
</a>
</g>
</g>
<!-- Node1&#45;&gt;Node8 -->
<g id="edge7" class="edge">
<title>Node1&#45;&gt;Node8</title>
<path fill="none" stroke="midnightblue" d="M623.56,-295.94C617.65,-353.06 598.22,-515.7 565,-556 559.82,-562.28 552.69,-566.96 545.25,-570.43"/>
<polygon fill="midnightblue" stroke="midnightblue" points="627.07,-296.02 624.59,-285.72 620.11,-295.32 627.07,-296.02"/>
</g>
<!-- Node11 -->
<g id="node11" class="node">
<title>Node11</title>
<g id="a_node11"><a xlink:href="group__parts__3d__enclosure__power__strip.html#ga191779dedf39e4fd769a8dc96b0f8c9e" target="_top" xlink:title="A power strip generator for single gang electrical receptacles.">
<polygon fill="white" stroke="black" points="0,-494.5 0,-513.5 90,-513.5 90,-494.5 0,-494.5"/>
<text text-anchor="middle" x="45" y="-501.5" font-family="Helvetica,sans-Serif" font-size="10.00">power_strip_sg</text>
</a>
</g>
</g>
<!-- Node1&#45;&gt;Node11 -->
<g id="edge25" class="edge">
<title>Node1&#45;&gt;Node11</title>
<path fill="none" stroke="midnightblue" d="M612.24,-293.75C601.21,-307.06 584.23,-324.39 565,-333 386.26,-413.03 292.15,-267.34 126,-371 78.68,-400.52 55.58,-469.26 48.47,-494.49"/>
<polygon fill="midnightblue" stroke="midnightblue" points="615.14,-295.74 618.6,-285.73 609.65,-291.39 615.14,-295.74"/>
</g>
<!-- Node14 -->
<g id="node14" class="node">
<title>Node14</title>
<g id="a_node14"><a xlink:href="group__parts__3d__computer__pci__bracket.html#gaf56631cf80d8e5f0b77736b17b94ecd9" target="_top" xlink:title="PCI slot cover and adapter card bracket generator.">
<polygon fill="white" stroke="black" points="160,-380.5 160,-399.5 232,-399.5 232,-380.5 160,-380.5"/>
<text text-anchor="middle" x="196" y="-387.5" font-family="Helvetica,sans-Serif" font-size="10.00">pci_bracket</text>
</a>
</g>
</g>
<!-- Node1&#45;&gt;Node14 -->
<g id="edge22" class="edge">
<title>Node1&#45;&gt;Node14</title>
<path fill="none" stroke="midnightblue" d="M618.62,-295.16C609.82,-316.57 592.35,-350.27 565,-366 457.2,-428.02 301.11,-409.74 232.09,-397.31"/>
<polygon fill="midnightblue" stroke="midnightblue" points="621.91,-296.37 622.25,-285.78 615.38,-293.84 621.91,-296.37"/>
</g>
<!-- Node15 -->
<g id="node15" class="node">
<title>Node15</title>
<g id="a_node15"><a xlink:href="group__parts__3d__enclosure__project__box__rectangle.html#ga6a5d093d732e65556c46252220f2c4b6" target="_top" xlink:title="A rectangular box maker for project boxes, enclosures and housings.">
<polygon fill="white" stroke="black" points="133.5,-418.5 133.5,-437.5 258.5,-437.5 258.5,-418.5 133.5,-418.5"/>
<text text-anchor="middle" x="196" y="-425.5" font-family="Helvetica,sans-Serif" font-size="10.00">project_box_rectangle</text>
</a>
</g>
</g>
<!-- Node1&#45;&gt;Node15 -->
<g id="edge26" class="edge">
<title>Node1&#45;&gt;Node15</title>
<path fill="none" stroke="midnightblue" d="M621.83,-295.77C615.52,-323.64 599.78,-373.77 565,-398 517,-431.43 350.42,-432.44 258.72,-430.27"/>
<polygon fill="midnightblue" stroke="midnightblue" points="625.33,-296.15 623.92,-285.64 618.47,-294.73 625.33,-296.15"/>
</g>
<!-- Node16 -->
<g id="node16" class="node">
<title>Node16</title>
<g id="a_node16"><a xlink:href="group__parts__3d__enclosure__mounts.html#gacac878eda32a71cb3b1b174c9aebb56c" target="_top" xlink:title="A mount tab with screw hole and support brace.">
<polygon fill="white" stroke="black" points="307,-646.5 307,-665.5 410,-665.5 410,-646.5 307,-646.5"/>
<text text-anchor="middle" x="358.5" y="-653.5" font-family="Helvetica,sans-Serif" font-size="10.00">screw_mount_tab</text>
</a>
</g>
</g>
<!-- Node1&#45;&gt;Node16 -->
<g id="edge27" class="edge">
<title>Node1&#45;&gt;Node16</title>
<path fill="none" stroke="midnightblue" d="M624.47,-295.86C620.78,-359.08 606.23,-554.09 565,-599 525.69,-641.82 457.3,-653.56 410.29,-656.23"/>
<polygon fill="midnightblue" stroke="midnightblue" points="627.97,-295.84 625.03,-285.66 620.98,-295.45 627.97,-295.84"/>
</g>
<!-- Node17 -->
<g id="node17" class="node">
<title>Node17</title>
<g id="a_node17"><a xlink:href="group__tools__polytope.html#ga530c86f9c90ce074aa7adc29834f0539" target="_top" xlink:title="Assemble a polytope skeletal frame using child objects.">
<polygon fill="white" stroke="black" points="461,-114.5 461,-133.5 555,-133.5 555,-114.5 461,-114.5"/>
<text text-anchor="middle" x="508" y="-121.5" font-family="Helvetica,sans-Serif" font-size="10.00">polytope_frame</text>
</a>
</g>
</g>
<!-- Node1&#45;&gt;Node17 -->
<g id="edge23" class="edge">
<title>Node1&#45;&gt;Node17</title>
<path fill="none" stroke="midnightblue" d="M621.73,-256.36C615.19,-227.52 599.04,-173.8 565,-143 560.74,-139.14 555.66,-136.06 550.33,-133.61"/>
<polygon fill="midnightblue" stroke="midnightblue" points="618.36,-257.36 623.84,-266.42 625.21,-255.92 618.36,-257.36"/>
</g>
<!-- Node18 -->
<g id="node18" class="node">
<title>Node18</title>
<g id="a_node18"><a xlink:href="group__tools__polytope.html#ga00b574079f19251be7281151d11db8fa" target="_top" xlink:title="Label the vertices, paths, and edges of a polytope.">
<polygon fill="white" stroke="black" points="457,-76.5 457,-95.5 559,-95.5 559,-76.5 457,-76.5"/>
<text text-anchor="middle" x="508" y="-83.5" font-family="Helvetica,sans-Serif" font-size="10.00">polytope_number</text>
</a>
</g>
</g>
<!-- Node1&#45;&gt;Node18 -->
<g id="edge24" class="edge">
<title>Node1&#45;&gt;Node18</title>
<path fill="none" stroke="midnightblue" d="M624.02,-256.36C620.33,-221.17 607.67,-147.12 565,-105 561.05,-101.11 556.28,-98.01 551.21,-95.55"/>
<polygon fill="midnightblue" stroke="midnightblue" points="620.54,-256.69 624.93,-266.33 627.51,-256.06 620.54,-256.69"/>
</g>
<!-- Node19 -->
<g id="node19" class="node">
<title>Node19</title>
<g id="a_node19"><a xlink:href="group__datatypes__table.html#ga7a45ee72b36421f4e73cfba4488f14be" target="_top" xlink:title="Dump table getter functions to the console.">
<polygon fill="white" stroke="black" points="451,-38.5 451,-57.5 565,-57.5 565,-38.5 451,-38.5"/>
<text text-anchor="middle" x="508" y="-45.5" font-family="Helvetica,sans-Serif" font-size="10.00">table_dump_getters</text>
</a>
</g>
</g>
<!-- Node1&#45;&gt;Node19 -->
<g id="edge28" class="edge">
<title>Node1&#45;&gt;Node19</title>
<path fill="none" stroke="midnightblue" d="M625.53,-256.09C624.49,-215.1 616.29,-120.67 565,-67 561.31,-63.14 556.81,-60.06 551.98,-57.61"/>
<polygon fill="midnightblue" stroke="midnightblue" points="622.03,-256.2 625.66,-266.15 629.03,-256.11 622.03,-256.2"/>
</g>
<!-- Node20 -->
<g id="node20" class="node">
<title>Node20</title>
<g id="a_node20"><a xlink:href="group__datatypes__table.html#ga8d212217f9acb803e3107f488d5523e6" target="_top" xlink:title="Write formatted map entries to the console.">
<polygon fill="white" stroke="black" points="472.5,-0.5 472.5,-19.5 543.5,-19.5 543.5,-0.5 472.5,-0.5"/>
<text text-anchor="middle" x="508" y="-7.5" font-family="Helvetica,sans-Serif" font-size="10.00">table_write</text>
</a>
</g>
</g>
<!-- Node1&#45;&gt;Node20 -->
<g id="edge29" class="edge">
<title>Node1&#45;&gt;Node20</title>
<path fill="none" stroke="midnightblue" d="M623.12,-256.24C616.43,-203.78 595.92,-62.73 565,-29 559.31,-22.79 551.52,-18.61 543.56,-15.8"/>
<polygon fill="midnightblue" stroke="midnightblue" points="619.66,-256.79 624.37,-266.28 626.61,-255.92 619.66,-256.79"/>
</g>
<!-- Node9 -->
<g id="node9" class="node">
<title>Node9</title>
<g id="a_node9"><a xlink:href="group__tools__extrude.html#ga45661244067bf945b684550c3263ee45" target="_top" xlink:title="Linearly extrude a 2d shape with multi&#45;segment uniformly&#45;spaced profile scaling.">
<polygon fill="white" stroke="black" points="302,-494.5 302,-513.5 415,-513.5 415,-494.5 302,-494.5"/>
<text text-anchor="middle" x="358.5" y="-501.5" font-family="Helvetica,sans-Serif" font-size="10.00">extrude_linear_mss</text>
</a>
</g>
</g>
<!-- Node8&#45;&gt;Node9 -->
<g id="edge8" class="edge">
<title>Node8&#45;&gt;Node9</title>
<path fill="none" stroke="midnightblue" d="M479.33,-565.74C449.71,-550.48 403.55,-526.7 378.03,-513.55"/>
<polygon fill="midnightblue" stroke="midnightblue" points="477.83,-568.91 488.32,-570.37 481.03,-562.68 477.83,-568.91"/>
</g>
<!-- Node8&#45;&gt;Node11 -->
<g id="edge18" class="edge">
<title>Node8&#45;&gt;Node11</title>
<path fill="none" stroke="midnightblue" d="M443.4,-590.25C349.92,-604.12 180.61,-624.4 126,-599 87.29,-580.99 60.6,-534.01 50.5,-513.65"/>
<polygon fill="midnightblue" stroke="midnightblue" points="443.94,-593.71 453.31,-588.76 442.9,-586.78 443.94,-593.71"/>
</g>
<!-- Node8&#45;&gt;Node15 -->
<g id="edge19" class="edge">
<title>Node8&#45;&gt;Node15</title>
<path fill="none" stroke="midnightblue" d="M494.42,-561.94C478.43,-540.38 448.83,-504.76 415,-485 366.69,-456.79 304.33,-442.31 258.69,-435.02"/>
<polygon fill="midnightblue" stroke="midnightblue" points="491.71,-564.18 500.4,-570.23 497.39,-560.08 491.71,-564.18"/>
</g>
<!-- Node8&#45;&gt;Node16 -->
<g id="edge20" class="edge">
<title>Node8&#45;&gt;Node16</title>
<path fill="none" stroke="midnightblue" d="M482.73,-594.66C464.4,-605.49 438.47,-620.33 415,-632 404.75,-637.09 393.17,-642.2 383.25,-646.39"/>
<polygon fill="midnightblue" stroke="midnightblue" points="484.52,-597.66 491.32,-589.54 480.94,-591.65 484.52,-597.66"/>
</g>
<!-- Node9&#45;&gt;Node2 -->
<g id="edge9" class="edge">
<title>Node9&#45;&gt;Node2</title>
<path fill="none" stroke="midnightblue" d="M321.12,-517.65C314.55,-520.69 307.92,-524.16 302,-528 283.79,-539.8 284.99,-550.49 266,-561 255.67,-566.71 243.51,-570.8 232.29,-573.69"/>
<polygon fill="midnightblue" stroke="midnightblue" points="322.84,-520.72 330.6,-513.51 320.04,-514.3 322.84,-520.72"/>
</g>
<!-- Node10 -->
<g id="node10" class="node">
<title>Node10</title>
<g id="a_node10"><a xlink:href="group__parts__3d__enclosure__clamps.html#ga8fd874789132e42e5470328d18560f1a" target="_top" xlink:title="A clamp, bushing, and/or grip for wire/hose wall penetrations.">
<polygon fill="white" stroke="black" points="164.5,-532.5 164.5,-551.5 227.5,-551.5 227.5,-532.5 164.5,-532.5"/>
<text text-anchor="middle" x="196" y="-539.5" font-family="Helvetica,sans-Serif" font-size="10.00">clamp_cg</text>
</a>
</g>
</g>
<!-- Node9&#45;&gt;Node10 -->
<g id="edge10" class="edge">
<title>Node9&#45;&gt;Node10</title>
<path fill="none" stroke="midnightblue" d="M307.26,-515.89C281.16,-522.07 250.1,-529.43 227.61,-534.75"/>
<polygon fill="midnightblue" stroke="midnightblue" points="308.07,-519.3 317,-513.59 306.46,-512.49 308.07,-519.3"/>
</g>
<!-- Node12 -->
<g id="node12" class="node">
<title>Node12</title>
<g id="a_node12"><a xlink:href="group__parts__3d__bearing__bearing__linear__rod.html#ga48399d5e708b4894494c69b2d1e88e26" target="_top" xlink:title="Transform 2d or 3d shape into a linear rod ball or sled bearing.">
<polygon fill="white" stroke="black" points="126,-494.5 126,-513.5 266,-513.5 266,-494.5 126,-494.5"/>
<text text-anchor="middle" x="196" y="-501.5" font-family="Helvetica,sans-Serif" font-size="10.00">make_bearing_linear_rod</text>
</a>
</g>
</g>
<!-- Node9&#45;&gt;Node12 -->
<g id="edge12" class="edge">
<title>Node9&#45;&gt;Node12</title>
<path fill="none" stroke="midnightblue" d="M291.68,-504C283.27,-504 274.63,-504 266.16,-504"/>
<polygon fill="midnightblue" stroke="midnightblue" points="291.82,-507.5 301.82,-504 291.82,-500.5 291.82,-507.5"/>
</g>
<!-- Node13 -->
<g id="node13" class="node">
<title>Node13</title>
<g id="a_node13"><a xlink:href="group__models__3d__misc__omdl__logo.html#gab176f64dad7e83d4fb056be44b71f630" target="_top" xlink:title="Standard omdl logo.">
<polygon fill="white" stroke="black" points="162,-456.5 162,-475.5 230,-475.5 230,-456.5 162,-456.5"/>
<text text-anchor="middle" x="196" y="-463.5" font-family="Helvetica,sans-Serif" font-size="10.00">omdl_logo</text>
</a>
</g>
</g>
<!-- Node9&#45;&gt;Node13 -->
<g id="edge13" class="edge">
<title>Node9&#45;&gt;Node13</title>
<path fill="none" stroke="midnightblue" d="M307.27,-492.11C282.14,-486.16 252.44,-479.12 230.19,-473.86"/>
<polygon fill="midnightblue" stroke="midnightblue" points="306.46,-495.51 317,-494.41 308.07,-488.7 306.46,-495.51"/>
</g>
<!-- Node9&#45;&gt;Node14 -->
<g id="edge15" class="edge">
<title>Node9&#45;&gt;Node14</title>
<path fill="none" stroke="midnightblue" d="M344.96,-486.01C329.05,-464.52 299.58,-428.97 266,-409 255.75,-402.9 243.48,-398.71 232.15,-395.84"/>
<polygon fill="midnightblue" stroke="midnightblue" points="342.24,-488.22 350.93,-494.28 347.91,-484.12 342.24,-488.22"/>
</g>
<!-- Node9&#45;&gt;Node15 -->
<g id="edge16" class="edge">
<title>Node9&#45;&gt;Node15</title>
<path fill="none" stroke="midnightblue" d="M321.12,-490.35C314.55,-487.31 307.92,-483.84 302,-480 283.79,-468.2 284.99,-457.51 266,-447 259.04,-443.15 251.25,-440.04 243.48,-437.54"/>
<polygon fill="midnightblue" stroke="midnightblue" points="320.04,-493.7 330.6,-494.49 322.84,-487.28 320.04,-493.7"/>
</g>
<!-- Node10&#45;&gt;Node11 -->
<g id="edge11" class="edge">
<title>Node10&#45;&gt;Node11</title>
<path fill="none" stroke="midnightblue" d="M154.68,-531.72C132.46,-526.05 105.07,-519.06 83.34,-513.52"/>
<polygon fill="midnightblue" stroke="midnightblue" points="153.93,-535.14 164.49,-534.22 155.66,-528.36 153.93,-535.14"/>
</g>
<!-- Node13&#45;&gt;Node11 -->
<g id="edge14" class="edge">
<title>Node13&#45;&gt;Node11</title>
<path fill="none" stroke="midnightblue" d="M152,-476.97C130.32,-482.5 104.28,-489.14 83.43,-494.45"/>
<polygon fill="midnightblue" stroke="midnightblue" points="153.11,-480.3 161.93,-474.43 151.38,-473.51 153.11,-480.3"/>
</g>
<!-- Node15&#45;&gt;Node11 -->
<g id="edge17" class="edge">
<title>Node15&#45;&gt;Node11</title>
<path fill="none" stroke="midnightblue" d="M141.48,-440.71C136.16,-442.57 130.91,-444.67 126,-447 99.05,-459.82 71.56,-481.75 56.86,-494.34"/>
<polygon fill="midnightblue" stroke="midnightblue" points="142.66,-444.01 151.09,-437.6 140.5,-437.35 142.66,-444.01"/>
</g>
<!-- Node16&#45;&gt;Node11 -->
<g id="edge21" class="edge">
<title>Node16&#45;&gt;Node11</title>
<path fill="none" stroke="midnightblue" d="M296.66,-663.63C247.04,-666.76 177.05,-663.85 126,-632 80.42,-603.57 56.54,-538.59 48.83,-513.83"/>
<polygon fill="midnightblue" stroke="midnightblue" points="297.21,-667.1 306.92,-662.88 296.7,-660.12 297.21,-667.1"/>
</g>
</g>
</svg>
