<?xml version="1.0" encoding="UTF-8" standalone="no"?>
<!DOCTYPE svg PUBLIC "-//W3C//DTD SVG 1.1//EN"
 "http://www.w3.org/Graphics/SVG/1.1/DTD/svg11.dtd">
<!-- Generated by graphviz version 2.43.0 (0)
 -->
<!-- Title: polygon_regular_p Pages: 1 -->
<svg width="534pt" height="560pt"
 viewBox="0.00 0.00 534.00 560.00" xmlns="http://www.w3.org/2000/svg" xmlns:xlink="http://www.w3.org/1999/xlink">
<g id="graph0" class="graph" transform="scale(1 1) rotate(0) translate(4 556)">
<title>polygon_regular_p</title>
<polygon fill="white" stroke="transparent" points="-4,4 -4,-556 530,-556 530,4 -4,4"/>
<!-- Node1 -->
<g id="node1" class="node">
<title>Node1</title>
<g id="a_node1"><a xlink:title="Compute coordinates for an n&#45;sided regular polygon in 2D.">
<polygon fill="#bfbfbf" stroke="black" points="419,-171.5 419,-190.5 526,-190.5 526,-171.5 419,-171.5"/>
<text text-anchor="middle" x="472.5" y="-178.5" font-family="Helvetica,sans-Serif" font-size="10.00">polygon_regular_p</text>
</a>
</g>
</g>
<!-- Node2 -->
<g id="node2" class="node">
<title>Node2</title>
<g id="a_node2"><a xlink:href="group__tools__drafting__primitive.html#ga060910368142d6371cf4f3f30be7561e" target="_top" xlink:title="Draft a line with configurable style and optional arrowheads.">
<polygon fill="white" stroke="black" points="311.5,-361.5 311.5,-380.5 373.5,-380.5 373.5,-361.5 311.5,-361.5"/>
<text text-anchor="middle" x="342.5" y="-368.5" font-family="Helvetica,sans-Serif" font-size="10.00">draft_line</text>
</a>
</g>
</g>
<!-- Node1&#45;&gt;Node2 -->
<g id="edge1" class="edge">
<title>Node1&#45;&gt;Node2</title>
<path fill="none" stroke="midnightblue" d="M459.33,-199.06C432.83,-238.4 370.64,-330.72 350.16,-361.11"/>
<polygon fill="midnightblue" stroke="midnightblue" points="462.29,-200.93 464.98,-190.68 456.49,-197.02 462.29,-200.93"/>
</g>
<!-- Node12 -->
<g id="node12" class="node">
<title>Node12</title>
<g id="a_node12"><a xlink:href="group__shapes__basic__2d.html#ga523675020d361e525669de448e17cfd7" target="_top" xlink:title="An n&#45;sided equiangular/equilateral regular polygon.">
<polygon fill="white" stroke="black" points="322,-190.5 322,-209.5 363,-209.5 363,-190.5 322,-190.5"/>
<text text-anchor="middle" x="342.5" y="-197.5" font-family="Helvetica,sans-Serif" font-size="10.00">ngon</text>
</a>
</g>
</g>
<!-- Node1&#45;&gt;Node12 -->
<g id="edge11" class="edge">
<title>Node1&#45;&gt;Node12</title>
<path fill="none" stroke="midnightblue" d="M408.45,-190.36C391.92,-192.81 375.3,-195.28 363.01,-197.1"/>
<polygon fill="midnightblue" stroke="midnightblue" points="409.32,-193.77 418.7,-188.84 408.29,-186.84 409.32,-193.77"/>
</g>
<!-- Node14 -->
<g id="node14" class="node">
<title>Node14</title>
<g id="a_node14"><a xlink:href="group__shapes__polygon.html#ga1151092c15142c227983e6bd481872b3" target="_top" xlink:title="A n&#45;sided regular polygon with vertex rounding.">
<polygon fill="white" stroke="black" points="313.5,-152.5 313.5,-171.5 371.5,-171.5 371.5,-152.5 313.5,-152.5"/>
<text text-anchor="middle" x="342.5" y="-159.5" font-family="Helvetica,sans-Serif" font-size="10.00">pg_ngon</text>
</a>
</g>
</g>
<!-- Node1&#45;&gt;Node14 -->
<g id="edge13" class="edge">
<title>Node1&#45;&gt;Node14</title>
<path fill="none" stroke="midnightblue" d="M408.79,-171.69C395.78,-169.76 382.69,-167.82 371.68,-166.18"/>
<polygon fill="midnightblue" stroke="midnightblue" points="408.29,-175.16 418.7,-173.16 409.32,-168.23 408.29,-175.16"/>
</g>
<!-- Node15 -->
<g id="node15" class="node">
<title>Node15</title>
<g id="a_node15"><a xlink:href="group__tools__repeat.html#ga543a7c0b4c744d98e6197036da5681fe" target="_top" xlink:title="Radially repeat copies of child objects about a z&#45;axis radius.">
<polygon fill="white" stroke="black" points="302,-95.5 302,-114.5 383,-114.5 383,-95.5 302,-95.5"/>
<text text-anchor="middle" x="342.5" y="-102.5" font-family="Helvetica,sans-Serif" font-size="10.00">repeat_radial</text>
</a>
</g>
</g>
<!-- Node1&#45;&gt;Node15 -->
<g id="edge14" class="edge">
<title>Node1&#45;&gt;Node15</title>
<path fill="none" stroke="midnightblue" d="M446.48,-166.14C420.75,-150.87 381.44,-127.53 359.58,-114.55"/>
<polygon fill="midnightblue" stroke="midnightblue" points="444.9,-169.28 455.29,-171.37 448.48,-163.26 444.9,-169.28"/>
</g>
<!-- Node3 -->
<g id="node3" class="node">
<title>Node3</title>
<g id="a_node3"><a xlink:href="group__tools__drafting__operation.html#ga4e20419a6d4623f21c05179fc8b6df95" target="_top" xlink:title="Construct drafting sheet axes.">
<polygon fill="white" stroke="black" points="162.5,-532.5 162.5,-551.5 229.5,-551.5 229.5,-532.5 162.5,-532.5"/>
<text text-anchor="middle" x="196" y="-539.5" font-family="Helvetica,sans-Serif" font-size="10.00">draft_axes</text>
</a>
</g>
</g>
<!-- Node2&#45;&gt;Node3 -->
<g id="edge2" class="edge">
<title>Node2&#45;&gt;Node3</title>
<path fill="none" stroke="midnightblue" d="M337.26,-390.56C329.2,-423.04 308.51,-487.97 266,-523 255.84,-531.38 242.26,-536.07 229.84,-538.7"/>
<polygon fill="midnightblue" stroke="midnightblue" points="340.74,-391.06 339.61,-380.53 333.92,-389.47 340.74,-391.06"/>
</g>
<!-- Node4 -->
<g id="node4" class="node">
<title>Node4</title>
<g id="a_node4"><a xlink:href="group__tools__drafting__dimension.html#ga6b8e17d22ac4a95d25a90be8a74c0689" target="_top" xlink:title="Construct a angular dimension arc.">
<polygon fill="white" stroke="black" points="148.5,-494.5 148.5,-513.5 243.5,-513.5 243.5,-494.5 148.5,-494.5"/>
<text text-anchor="middle" x="196" y="-501.5" font-family="Helvetica,sans-Serif" font-size="10.00">draft_dim_angle</text>
</a>
</g>
</g>
<!-- Node2&#45;&gt;Node4 -->
<g id="edge3" class="edge">
<title>Node2&#45;&gt;Node4</title>
<path fill="none" stroke="midnightblue" d="M334.02,-389.97C323,-415.46 299.95,-460.39 266,-485 259.36,-489.81 251.56,-493.41 243.63,-496.09"/>
<polygon fill="midnightblue" stroke="midnightblue" points="337.29,-391.22 337.89,-380.65 330.83,-388.54 337.29,-391.22"/>
</g>
<!-- Node5 -->
<g id="node5" class="node">
<title>Node5</title>
<g id="a_node5"><a xlink:href="group__tools__drafting__dimension.html#ga4866c090b81b437e2f1f707d28ad8ec7" target="_top" xlink:title="Construct a center mark dimension cross.">
<polygon fill="white" stroke="black" points="146.5,-456.5 146.5,-475.5 245.5,-475.5 245.5,-456.5 146.5,-456.5"/>
<text text-anchor="middle" x="196" y="-463.5" font-family="Helvetica,sans-Serif" font-size="10.00">draft_dim_center</text>
</a>
</g>
</g>
<!-- Node2&#45;&gt;Node5 -->
<g id="edge4" class="edge">
<title>Node2&#45;&gt;Node5</title>
<path fill="none" stroke="midnightblue" d="M328.48,-388.68C314.79,-406.02 291.71,-431.98 266,-447 259.35,-450.89 251.87,-454 244.36,-456.5"/>
<polygon fill="midnightblue" stroke="midnightblue" points="331.44,-390.57 334.74,-380.51 325.88,-386.32 331.44,-390.57"/>
</g>
<!-- Node6 -->
<g id="node6" class="node">
<title>Node6</title>
<g id="a_node6"><a xlink:href="group__tools__drafting__dimension.html#ga5c4915c4c4464c5cdaefd501c2de261d" target="_top" xlink:title="Construct a dimension leader line at a point.">
<polygon fill="white" stroke="black" points="146.5,-418.5 146.5,-437.5 245.5,-437.5 245.5,-418.5 146.5,-418.5"/>
<text text-anchor="middle" x="196" y="-425.5" font-family="Helvetica,sans-Serif" font-size="10.00">draft_dim_leader</text>
</a>
</g>
</g>
<!-- Node2&#45;&gt;Node6 -->
<g id="edge5" class="edge">
<title>Node2&#45;&gt;Node6</title>
<path fill="none" stroke="midnightblue" d="M316.05,-385.4C301.67,-393.12 283.19,-402.38 266,-409 256.72,-412.57 246.51,-415.77 236.84,-418.47"/>
<polygon fill="midnightblue" stroke="midnightblue" points="317.75,-388.45 324.84,-380.59 314.39,-382.31 317.75,-388.45"/>
</g>
<!-- Node7 -->
<g id="node7" class="node">
<title>Node7</title>
<g id="a_node7"><a xlink:href="group__tools__drafting__dimension.html#ga27a35e94597435a74e22d76789e9be5e" target="_top" xlink:title="Construct a dimension line between two points.">
<polygon fill="white" stroke="black" points="153,-380.5 153,-399.5 239,-399.5 239,-380.5 153,-380.5"/>
<text text-anchor="middle" x="196" y="-387.5" font-family="Helvetica,sans-Serif" font-size="10.00">draft_dim_line</text>
</a>
</g>
</g>
<!-- Node2&#45;&gt;Node7 -->
<g id="edge6" class="edge">
<title>Node2&#45;&gt;Node7</title>
<path fill="none" stroke="midnightblue" d="M301.18,-376.3C281.82,-378.85 258.62,-381.9 239.03,-384.47"/>
<polygon fill="midnightblue" stroke="midnightblue" points="301.75,-379.76 311.21,-374.98 300.84,-372.82 301.75,-379.76"/>
</g>
<!-- Node8 -->
<g id="node8" class="node">
<title>Node8</title>
<g id="a_node8"><a xlink:href="group__tools__drafting__dimension.html#gaef1a8150a8ef7be88e086fb3dbab64a9" target="_top" xlink:title="Construct a radial dimension line.">
<polygon fill="white" stroke="black" points="147,-342.5 147,-361.5 245,-361.5 245,-342.5 147,-342.5"/>
<text text-anchor="middle" x="196" y="-349.5" font-family="Helvetica,sans-Serif" font-size="10.00">draft_dim_radius</text>
</a>
</g>
</g>
<!-- Node2&#45;&gt;Node8 -->
<g id="edge7" class="edge">
<title>Node2&#45;&gt;Node8</title>
<path fill="none" stroke="midnightblue" d="M300.87,-365.66C283.56,-363.38 263.23,-360.71 245.17,-358.33"/>
<polygon fill="midnightblue" stroke="midnightblue" points="300.84,-369.18 311.21,-367.02 301.75,-362.24 300.84,-369.18"/>
</g>
<!-- Node9 -->
<g id="node9" class="node">
<title>Node9</title>
<g id="a_node9"><a xlink:href="group__tools__drafting__primitive.html#gada1e771ce89ef86b6241c43dc01bf62d" target="_top" xlink:title="Draft a polygon with configurable style.">
<polygon fill="white" stroke="black" points="154.5,-304.5 154.5,-323.5 237.5,-323.5 237.5,-304.5 154.5,-304.5"/>
<text text-anchor="middle" x="196" y="-311.5" font-family="Helvetica,sans-Serif" font-size="10.00">draft_polygon</text>
</a>
</g>
</g>
<!-- Node2&#45;&gt;Node9 -->
<g id="edge8" class="edge">
<title>Node2&#45;&gt;Node9</title>
<path fill="none" stroke="midnightblue" d="M316.05,-356.6C301.67,-348.88 283.19,-339.62 266,-333 256.72,-329.43 246.51,-326.23 236.84,-323.53"/>
<polygon fill="midnightblue" stroke="midnightblue" points="314.39,-359.69 324.84,-361.41 317.75,-353.55 314.39,-359.69"/>
</g>
<!-- Node10 -->
<g id="node10" class="node">
<title>Node10</title>
<g id="a_node10"><a xlink:href="group__tools__drafting__primitive.html#ga20eb57e9d25186784df7428089e3a2ae" target="_top" xlink:title="Draft a rectangle with configurable style.">
<polygon fill="white" stroke="black" points="151,-266.5 151,-285.5 241,-285.5 241,-266.5 151,-266.5"/>
<text text-anchor="middle" x="196" y="-273.5" font-family="Helvetica,sans-Serif" font-size="10.00">draft_rectangle</text>
</a>
</g>
</g>
<!-- Node2&#45;&gt;Node10 -->
<g id="edge9" class="edge">
<title>Node2&#45;&gt;Node10</title>
<path fill="none" stroke="midnightblue" d="M328.48,-353.32C314.79,-335.98 291.71,-310.02 266,-295 258.38,-290.55 249.68,-287.11 241.09,-284.45"/>
<polygon fill="midnightblue" stroke="midnightblue" points="325.88,-355.68 334.74,-361.49 331.44,-351.43 325.88,-355.68"/>
</g>
<!-- Node11 -->
<g id="node11" class="node">
<title>Node11</title>
<g id="a_node11"><a xlink:href="group__tools__drafting__operation.html#ga49aac81a903cd453ea9cadc85e84e414" target="_top" xlink:title="Construct a drafting sheet ruler.">
<polygon fill="white" stroke="black" points="162.5,-228.5 162.5,-247.5 229.5,-247.5 229.5,-228.5 162.5,-228.5"/>
<text text-anchor="middle" x="196" y="-235.5" font-family="Helvetica,sans-Serif" font-size="10.00">draft_ruler</text>
</a>
</g>
</g>
<!-- Node2&#45;&gt;Node11 -->
<g id="edge10" class="edge">
<title>Node2&#45;&gt;Node11</title>
<path fill="none" stroke="midnightblue" d="M334.02,-352.03C323,-326.54 299.95,-281.61 266,-257 255.44,-249.34 241.93,-244.77 229.67,-242.04"/>
<polygon fill="midnightblue" stroke="midnightblue" points="330.83,-353.46 337.89,-361.35 337.29,-350.78 330.83,-353.46"/>
</g>
<!-- Node13 -->
<g id="node13" class="node">
<title>Node13</title>
<g id="a_node13"><a xlink:href="group__parts__3d__computer__pci__bracket.html#gaf56631cf80d8e5f0b77736b17b94ecd9" target="_top" xlink:title="PCI slot cover and adapter card bracket generator.">
<polygon fill="white" stroke="black" points="160,-190.5 160,-209.5 232,-209.5 232,-190.5 160,-190.5"/>
<text text-anchor="middle" x="196" y="-197.5" font-family="Helvetica,sans-Serif" font-size="10.00">pci_bracket</text>
</a>
</g>
</g>
<!-- Node12&#45;&gt;Node13 -->
<g id="edge12" class="edge">
<title>Node12&#45;&gt;Node13</title>
<path fill="none" stroke="midnightblue" d="M311.46,-200C288.35,-200 256.36,-200 232.08,-200"/>
<polygon fill="midnightblue" stroke="midnightblue" points="311.71,-203.5 321.71,-200 311.71,-196.5 311.71,-203.5"/>
</g>
<!-- Node16 -->
<g id="node16" class="node">
<title>Node16</title>
<g id="a_node16"><a xlink:href="group__parts__3d__enclosure__clamps.html#ga8fd874789132e42e5470328d18560f1a" target="_top" xlink:title="A clamp, bushing, and/or grip for wire/hose wall penetrations.">
<polygon fill="white" stroke="black" points="164.5,-152.5 164.5,-171.5 227.5,-171.5 227.5,-152.5 164.5,-152.5"/>
<text text-anchor="middle" x="196" y="-159.5" font-family="Helvetica,sans-Serif" font-size="10.00">clamp_cg</text>
</a>
</g>
</g>
<!-- Node15&#45;&gt;Node16 -->
<g id="edge15" class="edge">
<title>Node15&#45;&gt;Node16</title>
<path fill="none" stroke="midnightblue" d="M316.05,-119.4C301.67,-127.12 283.19,-136.38 266,-143 253.71,-147.73 239.77,-151.8 227.65,-154.95"/>
<polygon fill="midnightblue" stroke="midnightblue" points="317.75,-122.45 324.84,-114.59 314.39,-116.31 317.75,-122.45"/>
</g>
<!-- Node18 -->
<g id="node18" class="node">
<title>Node18</title>
<g id="a_node18"><a xlink:href="group__parts__3d__bearing__bearing__linear__rod.html#ga48399d5e708b4894494c69b2d1e88e26" target="_top" xlink:title="Transform 2d or 3d shape into a linear rod ball or sled bearing.">
<polygon fill="white" stroke="black" points="126,-114.5 126,-133.5 266,-133.5 266,-114.5 126,-114.5"/>
<text text-anchor="middle" x="196" y="-121.5" font-family="Helvetica,sans-Serif" font-size="10.00">make_bearing_linear_rod</text>
</a>
</g>
</g>
<!-- Node15&#45;&gt;Node18 -->
<g id="edge17" class="edge">
<title>Node15&#45;&gt;Node18</title>
<path fill="none" stroke="midnightblue" d="M291.51,-111.57C283.32,-112.65 274.69,-113.78 266.13,-114.91"/>
<polygon fill="midnightblue" stroke="midnightblue" points="292.17,-115.02 301.63,-110.24 291.26,-108.08 292.17,-115.02"/>
</g>
<!-- Node19 -->
<g id="node19" class="node">
<title>Node19</title>
<g id="a_node19"><a xlink:href="group__models__3d__misc__omdl__logo.html#gab176f64dad7e83d4fb056be44b71f630" target="_top" xlink:title="Standard omdl logo.">
<polygon fill="white" stroke="black" points="162,-76.5 162,-95.5 230,-95.5 230,-76.5 162,-76.5"/>
<text text-anchor="middle" x="196" y="-83.5" font-family="Helvetica,sans-Serif" font-size="10.00">omdl_logo</text>
</a>
</g>
</g>
<!-- Node15&#45;&gt;Node19 -->
<g id="edge18" class="edge">
<title>Node15&#45;&gt;Node19</title>
<path fill="none" stroke="midnightblue" d="M291.63,-98.44C271.39,-95.78 248.56,-92.78 230.39,-90.39"/>
<polygon fill="midnightblue" stroke="midnightblue" points="291.26,-101.92 301.63,-99.76 292.17,-94.98 291.26,-101.92"/>
</g>
<!-- Node20 -->
<g id="node20" class="node">
<title>Node20</title>
<g id="a_node20"><a xlink:href="group__shapes__basic__2d.html#ga7452bf5414a3677ec806a31aed6b61dd" target="_top" xlink:title="A two&#45;dimensional star.">
<polygon fill="white" stroke="black" points="172.5,-38.5 172.5,-57.5 219.5,-57.5 219.5,-38.5 172.5,-38.5"/>
<text text-anchor="middle" x="196" y="-45.5" font-family="Helvetica,sans-Serif" font-size="10.00">star2d</text>
</a>
</g>
</g>
<!-- Node15&#45;&gt;Node20 -->
<g id="edge20" class="edge">
<title>Node15&#45;&gt;Node20</title>
<path fill="none" stroke="midnightblue" d="M316.05,-90.6C301.67,-82.88 283.19,-73.62 266,-67 250.93,-61.2 233.37,-56.39 219.74,-53.06"/>
<polygon fill="midnightblue" stroke="midnightblue" points="314.39,-93.69 324.84,-95.41 317.75,-87.55 314.39,-93.69"/>
</g>
<!-- Node21 -->
<g id="node21" class="node">
<title>Node21</title>
<g id="a_node21"><a xlink:href="group__shapes__basic__3d.html#gab99dacd3036b965579d68b1d3b7ee2d8" target="_top" xlink:title="A three&#45;dimensional star.">
<polygon fill="white" stroke="black" points="172.5,-0.5 172.5,-19.5 219.5,-19.5 219.5,-0.5 172.5,-0.5"/>
<text text-anchor="middle" x="196" y="-7.5" font-family="Helvetica,sans-Serif" font-size="10.00">star3d</text>
</a>
</g>
</g>
<!-- Node15&#45;&gt;Node21 -->
<g id="edge21" class="edge">
<title>Node15&#45;&gt;Node21</title>
<path fill="none" stroke="midnightblue" d="M328.48,-87.32C314.79,-69.98 291.71,-44.02 266,-29 251.73,-20.66 233.66,-15.86 219.6,-13.17"/>
<polygon fill="midnightblue" stroke="midnightblue" points="325.88,-89.68 334.74,-95.49 331.44,-85.43 325.88,-89.68"/>
</g>
<!-- Node17 -->
<g id="node17" class="node">
<title>Node17</title>
<g id="a_node17"><a xlink:href="group__parts__3d__enclosure__power__strip.html#ga191779dedf39e4fd769a8dc96b0f8c9e" target="_top" xlink:title="A power strip generator for single gang electrical receptacles.">
<polygon fill="white" stroke="black" points="0,-114.5 0,-133.5 90,-133.5 90,-114.5 0,-114.5"/>
<text text-anchor="middle" x="45" y="-121.5" font-family="Helvetica,sans-Serif" font-size="10.00">power_strip_sg</text>
</a>
</g>
</g>
<!-- Node16&#45;&gt;Node17 -->
<g id="edge16" class="edge">
<title>Node16&#45;&gt;Node17</title>
<path fill="none" stroke="midnightblue" d="M154.68,-151.72C132.46,-146.05 105.07,-139.06 83.34,-133.52"/>
<polygon fill="midnightblue" stroke="midnightblue" points="153.93,-155.14 164.49,-154.22 155.66,-148.36 153.93,-155.14"/>
</g>
<!-- Node19&#45;&gt;Node17 -->
<g id="edge19" class="edge">
<title>Node19&#45;&gt;Node17</title>
<path fill="none" stroke="midnightblue" d="M152,-96.97C130.32,-102.5 104.28,-109.14 83.43,-114.45"/>
<polygon fill="midnightblue" stroke="midnightblue" points="153.11,-100.3 161.93,-94.43 151.38,-93.51 153.11,-100.3"/>
</g>
</g>
</svg>
