<?xml version="1.0" standalone="no"?>
<!DOCTYPE svg PUBLIC "-//W3C//DTD SVG 1.1//EN" "http://www.w3.org/Graphics/SVG/1.1/DTD/svg11.dtd">
<svg width="280mm" height="218mm" viewBox="-140 -109 280 218" xmlns="http://www.w3.org/2000/svg" version="1.1">
<title>OpenSCAD Model</title>
<path d="
M 71.2,-107.95 L 71.1,-108.05 L 68.6,-108.05 L 68.5,-107.95 L 68.6,-107.85 L 71.1,-107.85
 z
M -68.5,-107.95 L -68.6,-108.05 L -71.1,-108.05 L -71.2,-107.95 L -71.1,-107.85 L -68.6,-107.85
 z
M 1.34999,-107.95 L 1.25,-108.05 L -1.25,-108.05 L -1.34999,-107.95 L -1.25,-107.85 L 1.25,-107.85
 z
M -139.6,-101.7 L -139.6,-107.85 L -133.45,-107.85 L -133.35,-107.95 L -133.45,-108.05 L -139.7,-108.05
 L -139.8,-107.95 L -139.8,-101.7 L -139.7,-101.6 z
M 139.8,-101.7 L 139.8,-107.95 L 139.7,-108.05 L 133.45,-108.05 L 133.35,-107.95 L 133.45,-107.85
 L 139.6,-107.85 L 139.6,-101.7 L 139.7,-101.6 z
M 130.975,101.6 L 130.975,-101.6 L 130.175,-102.4 L -130.175,-102.4 L -130.975,-101.6 L -130.975,101.6
 L -130.175,102.4 L 130.175,102.4 z
M -32.1437,-97.2375 L -32.1437,-100.8 L -0.399994,-100.8 L -0.399994,-97.2375 z
M -15.0387,-98.1449 L -16.8936,-98.1449 L -16.8936,-99.136 L -15.2425,-99.136 L -15.2425,-99.4468 L -16.8936,-99.4468
 L -16.8936,-100.359 L -15.1214,-100.359 L -15.1214,-100.674 L -17.2791,-100.674 L -17.2791,-97.83 L -15.0387,-97.83
 z
M 0.399994,-97.2375 L 0.399994,-100.8 L 32.1437,-100.8 L 32.1437,-97.2375 z
M 16.4998,-97.8535 L 16.7629,-97.9239 L 16.9993,-98.0399 L 17.2019,-98.2004 L 17.368,-98.4053 L 17.4946,-98.6545
 L 17.5749,-98.947 L 17.6016,-99.2813 L 17.5736,-99.6194 L 17.4896,-99.907 L 17.3556,-100.146 L 17.1777,-100.34
 L 16.9585,-100.488 L 16.7004,-100.592 L 16.41,-100.654 L 16.0938,-100.674 L 15.1532,-100.674 L 15.1532,-97.83
 L 16.2169,-97.83 z
M 15.5387,-98.1388 L 15.5387,-100.365 L 16.0857,-100.365 L 16.3239,-100.35 L 16.5419,-100.304 L 16.7352,-100.225
 L 16.8992,-100.111 L 17.0319,-99.9612 L 17.1313,-99.7748 L 17.1934,-99.549 L 17.2141,-99.2813 L 17.1944,-99.0159
 L 17.1353,-98.7847 L 17.0415,-98.5884 L 16.9174,-98.4275 L 16.7652,-98.3018 L 16.5873,-98.2115 L 16.3882,-98.157
 L 16.1725,-98.1388 z
M -64.6875,-97.2375 L -64.6875,-100.8 L -32.9437,-100.8 L -32.9437,-97.2375 z
M -49.324,-98.9826 L -47.7375,-98.9826 L -47.7375,-99.3015 L -49.324,-99.3015 L -49.324,-100.359 L -47.6891,-100.359
 L -47.6891,-100.674 L -49.7095,-100.674 L -49.7095,-97.83 L -49.324,-97.83 z
M 32.9437,-97.2375 L 32.9437,-100.8 L 64.6875,-100.8 L 64.6875,-97.2375 z
M 49.1813,-97.8031 L 49.3854,-97.8462 L 49.5681,-97.9146 L 49.7305,-98.0047 L 49.8731,-98.1147 L 49.996,-98.2428
 L 50.0999,-98.3857 L 50.1857,-98.5396 L 49.8708,-98.697 L 49.7992,-98.5716 L 49.7174,-98.4578 L 49.6248,-98.3572
 L 49.5206,-98.2711 L 49.4041,-98.2012 L 49.2744,-98.149 L 49.1308,-98.1164 L 48.9726,-98.1056 L 48.7483,-98.1268
 L 48.5477,-98.1904 L 48.3736,-98.2923 L 48.2288,-98.4286 L 48.1138,-98.5968 L 48.029,-98.7949 L 47.9768,-99.0187
 L 47.9594,-99.2642 L 47.9755,-99.5089 L 48.0239,-99.7305 L 48.1039,-99.9252 L 48.2147,-100.09 L 48.356,-100.222
 L 48.5275,-100.32 L 48.7281,-100.38 L 48.9565,-100.401 L 49.1243,-100.39 L 49.2724,-100.358 L 49.4018,-100.309
 L 49.5135,-100.245 L 49.6079,-100.169 L 49.6851,-100.083 L 49.7467,-99.9886 L 49.7941,-99.8899 L 50.1595,-100.011
 L 49.9758,-100.317 L 49.7114,-100.538 L 49.3692,-100.671 L 48.9524,-100.715 L 48.6396,-100.69 L 48.3631,-100.614
 L 48.1251,-100.49 L 47.9281,-100.323 L 47.7726,-100.114 L 47.6596,-99.8657 L 47.5907,-99.5811 L 47.5678,-99.2642
 L 47.5895,-98.9559 L 47.6546,-98.6728 L 47.7633,-98.4207 L 47.916,-98.2055 L 48.1118,-98.0304 L 48.3499,-97.8987
 L 48.6308,-97.8162 L 48.9545,-97.7887 z
M -97.2312,-97.2375 L -97.2312,-100.8 L -65.4875,-100.8 L -65.4875,-97.2375 z
M -81.0791,-97.7983 L -80.8828,-97.8271 L -80.7006,-97.8725 L -80.5336,-97.932 L -80.3819,-98.0039 L -80.2459,-98.0864
 L -80.1261,-98.1765 L -80.0229,-98.2711 L -80.0229,-99.2521 L -81.2279,-99.2521 L -81.2279,-98.9292 L -80.3782,-98.9292
 L -80.3782,-98.4164 L -80.4438,-98.3602 L -80.5235,-98.3044 L -80.6171,-98.2514 L -80.7243,-98.2035 L -80.8452,-98.1624
 L -80.9797,-98.1298 L -81.1275,-98.1086 L -81.2885,-98.1016 L -81.5294,-98.123 L -81.7396,-98.1874 L -81.9185,-98.2903
 L -82.0656,-98.4275 L -82.1806,-98.5966 L -82.2634,-98.7949 L -82.3134,-99.0187 L -82.33,-99.2642 L -82.3146,-99.5089
 L -82.2685,-99.7305 L -82.191,-99.9252 L -82.0818,-100.09 L -81.9402,-100.222 L -81.7659,-100.32 L -81.5582,-100.38
 L -81.3168,-100.401 L -81.149,-100.392 L -81.0009,-100.367 L -80.8709,-100.327 L -80.7576,-100.273 L -80.6605,-100.207
 L -80.579,-100.127 L -80.5106,-100.037 L -80.4528,-99.9363 L -80.0855,-100.045 L -80.1637,-100.193 L -80.2571,-100.325
 L -80.3691,-100.44 L -80.5033,-100.536 L -80.6618,-100.613 L -80.8465,-100.669 L -81.0604,-100.704 L -81.3067,-100.715
 L -81.6346,-100.69 L -81.9203,-100.614 L -82.1632,-100.49 L -82.3633,-100.323 L -82.5198,-100.114 L -82.6318,-99.8657
 L -82.6991,-99.5811 L -82.7216,-99.2642 L -82.6991,-98.9559 L -82.6318,-98.6728 L -82.5198,-98.4207 L -82.3633,-98.2055
 L -82.1622,-98.0304 L -81.9162,-97.8987 L -81.6251,-97.8162 L -81.2885,-97.7887 z
M 65.4875,-97.2375 L 65.4875,-100.8 L 97.2312,-100.8 L 97.2312,-97.2375 z
M 81.7115,-97.8411 L 81.9063,-97.8744 L 82.0844,-97.9317 L 82.2393,-98.0147 L 82.368,-98.1247 L 82.4674,-98.263
 L 82.531,-98.4313 L 82.5522,-98.6314 L 82.5406,-98.7658 L 82.5058,-98.8907 L 82.4488,-99.0035 L 82.3706,-99.1016
 L 82.2709,-99.1844 L 82.1495,-99.251 L 82.0075,-99.3 L 81.8457,-99.3297 L 81.9727,-99.3678 L 82.0829,-99.4216
 L 82.1763,-99.4892 L 82.2525,-99.5689 L 82.3115,-99.6595 L 82.3534,-99.7597 L 82.3784,-99.8681 L 82.3867,-99.9837
 L 82.3698,-100.153 L 82.3191,-100.296 L 82.2361,-100.414 L 82.1223,-100.511 L 81.979,-100.584 L 81.8074,-100.635
 L 81.6091,-100.664 L 81.3855,-100.674 L 80.3521,-100.674 L 80.3521,-97.83 L 81.5066,-97.83 z
M 80.7376,-99.465 L 80.7376,-100.365 L 81.3855,-100.365 L 81.649,-100.34 L 81.8417,-100.266 L 81.9598,-100.135
 L 81.9992,-99.9373 L 81.9911,-99.8338 L 81.9669,-99.7415 L 81.9245,-99.661 L 81.8619,-99.5931 L 81.7781,-99.5386
 L 81.6722,-99.4983 L 81.542,-99.4733 L 81.3855,-99.465 z
M 80.7376,-98.1388 L 80.7376,-99.1642 L 81.4562,-99.1642 L 81.6098,-99.1572 L 81.7479,-99.1359 L 81.8687,-99.0996
 L 81.9709,-99.0471 L 82.0529,-98.978 L 82.1132,-98.8917 L 82.1503,-98.7868 L 82.1626,-98.6616 L 82.15,-98.5229
 L 82.1122,-98.4093 L 82.0519,-98.3185 L 81.9719,-98.2478 L 81.8735,-98.1964 L 81.7579,-98.1631 L 81.628,-98.1449
 L 81.4865,-98.1388 z
M 125.812,-51.2 L 125.812,-96.8375 L 125.412,-97.2375 L 98.0312,-97.2375 L 98.0312,-100.8 L 129.375,-100.8
 L 129.375,-51.2 z
M 113.291,-98.6616 L 114.587,-98.6616 L 114.912,-97.83 L 115.306,-97.83 L 114.163,-100.674 L 113.725,-100.674
 L 112.565,-97.83 L 112.964,-97.83 z
M 113.409,-98.9624 L 113.772,-99.8969 L 113.802,-99.9782 L 113.831,-100.06 L 113.859,-100.14 L 113.884,-100.212
 L 113.905,-100.275 L 113.921,-100.327 L 113.933,-100.364 L 113.939,-100.383 L 113.945,-100.364 L 113.957,-100.328
 L 113.973,-100.277 L 113.994,-100.215 L 114.018,-100.143 L 114.045,-100.064 L 114.075,-99.9822 L 114.107,-99.901
 L 114.472,-98.9624 z
M 128.449,-75.4551 L 128.849,-75.4551 L 128.849,-75.7418 L 128.449,-75.7418 L 128.449,-77.6553 L 128.068,-77.6553
 L 126.766,-75.7377 L 126.766,-75.4551 L 128.106,-75.4551 L 128.106,-74.8112 L 128.449,-74.8112 z
M 127.101,-75.7418 L 127.115,-75.7589 L 127.133,-75.7821 L 127.154,-75.8086 L 127.174,-75.8356 L 127.194,-75.8626
 L 127.213,-75.8891 L 127.23,-75.9128 L 127.242,-75.9315 L 127.971,-77.0053 L 127.988,-77.0328 L 128.008,-77.0669
 L 128.029,-77.104 L 128.05,-77.1405 L 128.086,-77.2061 L 128.099,-77.2306 L 128.106,-77.2455 L 128.106,-75.7418
 z
M -129.375,-51.2 L -129.375,-100.8 L -98.0312,-100.8 L -98.0312,-97.2375 L -125.412,-97.2375 L -125.812,-96.8375
 L -125.812,-51.2 z
M -114.636,-99.1481 L -113.098,-99.1481 L -113.098,-97.83 L -112.713,-97.83 L -112.713,-100.674 L -113.098,-100.674
 L -113.098,-99.471 L -114.636,-99.471 L -114.636,-100.674 L -115.022,-100.674 L -115.022,-97.83 L -114.636,-97.83
 z
M -127.138,-75.4551 L -126.738,-75.4551 L -126.738,-75.7418 L -127.138,-75.7418 L -127.138,-77.6553 L -127.52,-77.6553
 L -128.822,-75.7377 L -128.822,-75.4551 L -127.481,-75.4551 L -127.481,-74.8112 L -127.138,-74.8112 z
M -128.486,-75.7418 L -128.472,-75.7589 L -128.454,-75.7821 L -128.434,-75.8086 L -128.414,-75.8356 L -128.394,-75.8626
 L -128.374,-75.8891 L -128.358,-75.9128 L -128.345,-75.9315 L -127.617,-77.0053 L -127.599,-77.0328 L -127.579,-77.0669
 L -127.558,-77.104 L -127.538,-77.1405 L -127.501,-77.2061 L -127.488,-77.2306 L -127.481,-77.2455 L -127.481,-75.7418
 z
M -125.012,96.4375 L -125.012,50.85 L -123.925,50.85 L -123.875,50.8 L -123.925,50.75 L -125.012,50.75
 L -125.012,3.00082 L -122.224,0.212128 L -122.157,0.0499878 L -118.925,0.0499878 L -118.875,-0 L -118.925,-0.0499878
 L -122.157,-0.0499878 L -122.224,-0.212128 L -125.012,-3.00082 L -125.012,-50.75 L -123.925,-50.75 L -123.875,-50.8
 L -123.925,-50.85 L -125.012,-50.85 L -125.012,-96.4375 L -97.6812,-96.4375 L -97.6812,-93.4 L -97.6312,-93.35
 L -97.5812,-93.4 L -97.5812,-96.4375 L -65.1375,-96.4375 L -65.1375,-93.4 L -65.0875,-93.35 L -65.0375,-93.4
 L -65.0375,-96.4375 L -32.5937,-96.4375 L -32.5937,-93.4 L -32.5437,-93.35 L -32.4937,-93.4 L -32.4937,-96.4375
 L -3.00084,-96.4375 L -0.212128,-93.6488 L -0.0499878,-93.5816 L -0.0499878,-93.4 L 0,-93.35 L 0.0499878,-93.4
 L 0.0499878,-93.5816 L 0.212128,-93.6488 L 3.00084,-96.4375 L 32.4937,-96.4375 L 32.4937,-93.4 L 32.5437,-93.35
 L 32.5937,-93.4 L 32.5937,-96.4375 L 65.0375,-96.4375 L 65.0375,-93.4 L 65.0875,-93.35 L 65.1375,-93.4
 L 65.1375,-96.4375 L 97.5812,-96.4375 L 97.5812,-93.4 L 97.6312,-93.35 L 97.6812,-93.4 L 97.6812,-96.4375
 L 125.012,-96.4375 L 125.012,-50.85 L 124.825,-50.85 L 124.775,-50.8 L 124.825,-50.75 L 125.012,-50.75
 L 125.012,-3.00082 L 122.224,-0.212128 L 122.136,-0 L 122.224,0.212128 L 125.012,3.00082 L 125.012,50.75
 L 124.825,50.75 L 124.775,50.8 L 124.825,50.85 L 125.012,50.85 L 125.012,96.4375 L 97.6812,96.4375
 L 97.6812,95.35 L 97.6312,95.3 L 97.5812,95.35 L 97.5812,96.4375 L 65.1375,96.4375 L 65.1375,95.35
 L 65.0875,95.3 L 65.0375,95.35 L 65.0375,96.4375 L 32.5937,96.4375 L 32.5937,95.35 L 32.5437,95.3
 L 32.4937,95.35 L 32.4937,96.4375 L 3.00084,96.4375 L 0.212128,93.6488 L 0.0499878,93.5816 L 0.0499878,90.35
 L 0,90.3 L -0.0499878,90.35 L -0.0499878,93.5816 L -0.212128,93.6488 L -3.00084,96.4375 L -32.4937,96.4375
 L -32.4937,95.35 L -32.5437,95.3 L -32.5937,95.35 L -32.5937,96.4375 L -65.0375,96.4375 L -65.0375,95.35
 L -65.0875,95.3 L -65.1375,95.35 L -65.1375,96.4375 L -97.5812,96.4375 L -97.5812,95.35 L -97.6312,95.3
 L -97.6812,95.35 L -97.6812,96.4375 z
M -65.0375,-90.9 L -65.0375,-92.15 L -65.0875,-92.2 L -65.1375,-92.15 L -65.1375,-90.9 L -65.0875,-90.85
 z
M 65.1375,-90.9 L 65.1375,-92.15 L 65.0875,-92.2 L 65.0375,-92.15 L 65.0375,-90.9 L 65.0875,-90.85
 z
M -32.4937,-90.9 L -32.4937,-92.15 L -32.5437,-92.2 L -32.5937,-92.15 L -32.5937,-90.9 L -32.5437,-90.85
 z
M 32.5937,-90.9 L 32.5937,-92.15 L 32.5437,-92.2 L 32.4937,-92.15 L 32.4937,-90.9 L 32.5437,-90.85
 z
M 97.6812,-90.9 L 97.6812,-92.15 L 97.6312,-92.2 L 97.5812,-92.15 L 97.5812,-90.9 L 97.6312,-90.85
 z
M -97.5812,-90.9 L -97.5812,-92.15 L -97.6312,-92.2 L -97.6812,-92.15 L -97.6812,-90.9 L -97.6312,-90.85
 z
M 0.0499878,-90.9 L 0.0499878,-92.15 L 0,-92.2 L -0.0499878,-92.15 L -0.0499878,-90.9 L 0,-90.85
 z
M -65.0375,-85.9 L -65.0375,-89.65 L -65.0875,-89.7 L -65.1375,-89.65 L -65.1375,-85.9 L -65.0875,-85.85
 z
M 32.5937,-85.9 L 32.5937,-89.65 L 32.5437,-89.7 L 32.4937,-89.65 L 32.4937,-85.9 L 32.5437,-85.85
 z
M 65.1375,-85.9 L 65.1375,-89.65 L 65.0875,-89.7 L 65.0375,-89.65 L 65.0375,-85.9 L 65.0875,-85.85
 z
M 0.0499878,-85.9 L 0.0499878,-89.65 L 0,-89.7 L -0.0499878,-89.65 L -0.0499878,-85.9 L 0,-85.85
 z
M -32.4937,-85.9 L -32.4937,-89.65 L -32.5437,-89.7 L -32.5937,-89.65 L -32.5937,-85.9 L -32.5437,-85.85
 z
M -97.5812,-85.9 L -97.5812,-89.65 L -97.6312,-89.7 L -97.6812,-89.65 L -97.6812,-85.9 L -97.6312,-85.85
 z
M 97.6812,-85.9 L 97.6812,-89.65 L 97.6312,-89.7 L 97.5812,-89.65 L 97.5812,-85.9 L 97.6312,-85.85
 z
M 97.6812,-83.4 L 97.6812,-84.65 L 97.6312,-84.7 L 97.5812,-84.65 L 97.5812,-83.4 L 97.6312,-83.35
 z
M -32.4937,-83.4 L -32.4937,-84.65 L -32.5437,-84.7 L -32.5937,-84.65 L -32.5937,-83.4 L -32.5437,-83.35
 z
M 0.0499878,-83.4 L 0.0499878,-84.65 L 0,-84.7 L -0.0499878,-84.65 L -0.0499878,-83.4 L 0,-83.35
 z
M 32.5937,-83.4 L 32.5937,-84.65 L 32.5437,-84.7 L 32.4937,-84.65 L 32.4937,-83.4 L 32.5437,-83.35
 z
M 65.1375,-83.4 L 65.1375,-84.65 L 65.0875,-84.7 L 65.0375,-84.65 L 65.0375,-83.4 L 65.0875,-83.35
 z
M -97.5812,-83.4 L -97.5812,-84.65 L -97.6312,-84.7 L -97.6812,-84.65 L -97.6812,-83.4 L -97.6312,-83.35
 z
M -65.0375,-83.4 L -65.0375,-84.65 L -65.0875,-84.7 L -65.1375,-84.65 L -65.1375,-83.4 L -65.0875,-83.35
 z
M 32.5937,-78.4 L 32.5937,-82.15 L 32.5437,-82.2 L 32.4937,-82.15 L 32.4937,-78.4 L 32.5437,-78.35
 z
M -97.5812,-78.4 L -97.5812,-82.15 L -97.6312,-82.2 L -97.6812,-82.15 L -97.6812,-78.4 L -97.6312,-78.35
 z
M 97.6812,-78.4 L 97.6812,-82.15 L 97.6312,-82.2 L 97.5812,-82.15 L 97.5812,-78.4 L 97.6312,-78.35
 z
M -32.4937,-78.4 L -32.4937,-82.15 L -32.5437,-82.2 L -32.5937,-82.15 L -32.5937,-78.4 L -32.5437,-78.35
 z
M -65.0375,-78.4 L -65.0375,-82.15 L -65.0875,-82.2 L -65.1375,-82.15 L -65.1375,-78.4 L -65.0875,-78.35
 z
M 0.0499878,-78.4 L 0.0499878,-82.15 L 0,-82.2 L -0.0499878,-82.15 L -0.0499878,-78.4 L 0,-78.35
 z
M 65.1375,-78.4 L 65.1375,-82.15 L 65.0875,-82.2 L 65.0375,-82.15 L 65.0375,-78.4 L 65.0875,-78.35
 z
M 18.1853,-71.5806 L 19.8074,-72.6645 L 20.8913,-74.2866 L 21.2719,-76.2 L 20.8913,-78.1134 L 19.8074,-79.7355
 L 18.1853,-80.8194 L 16.2719,-81.2 L 14.3584,-80.8194 L 12.7363,-79.7355 L 11.6525,-78.1134 L 11.2719,-76.2
 L 11.6525,-74.2866 L 12.7363,-72.6645 L 14.3584,-71.5806 L 16.2719,-71.2 z
M -46.9022,-71.5806 L -45.2801,-72.6645 L -44.1962,-74.2866 L -43.8156,-76.2 L -44.1962,-78.1134 L -45.2801,-79.7355
 L -46.9022,-80.8194 L -48.8156,-81.2 L -50.729,-80.8194 L -52.3512,-79.7355 L -53.435,-78.1134 L -53.8156,-76.2
 L -53.435,-74.2866 L -52.3512,-72.6645 L -50.729,-71.5806 L -48.8156,-71.2 z
M 53.8156,-81.2 L 43.8156,-81.2 L 43.8156,-71.2 L 53.8156,-71.2 z
M -76.3594,-81.2 L -86.3594,-81.2 L -86.3594,-71.2 L -76.3594,-71.2 z
M -111.99,-71.5806 L -110.368,-72.6645 L -109.284,-74.2866 L -108.903,-76.2 L -109.284,-78.1134 L -110.368,-79.7355
 L -111.99,-80.8194 L -113.903,-81.2 L -115.817,-80.8194 L -117.439,-79.7355 L -118.523,-78.1134 L -118.903,-76.2
 L -118.523,-74.2866 L -117.439,-72.6645 L -115.817,-71.5806 L -113.903,-71.2 z
M -11.2719,-81.2 L -21.2719,-81.2 L -21.2719,-71.2 L -11.2719,-71.2 z
M 83.2728,-71.5806 L 84.8949,-72.6645 L 85.9788,-74.2866 L 86.3594,-76.2 L 85.9788,-78.1134 L 84.8949,-79.7355
 L 83.2728,-80.8194 L 81.3594,-81.2 L 79.446,-80.8194 L 77.8238,-79.7355 L 76.74,-78.1134 L 76.3594,-76.2
 L 76.74,-74.2866 L 77.8238,-72.6645 L 79.446,-71.5806 L 81.3594,-71.2 z
M 118.903,-81.2 L 108.903,-81.2 L 108.903,-71.2 L 118.903,-71.2 z
M -97.5812,-75.9 L -97.5812,-77.15 L -97.6312,-77.2 L -97.6812,-77.15 L -97.6812,-75.9 L -97.6312,-75.85
 z
M 32.5937,-75.9 L 32.5937,-77.15 L 32.5437,-77.2 L 32.4937,-77.15 L 32.4937,-75.9 L 32.5437,-75.85
 z
M -65.0375,-75.9 L -65.0375,-77.15 L -65.0875,-77.2 L -65.1375,-77.15 L -65.1375,-75.9 L -65.0875,-75.85
 z
M 97.6812,-75.9 L 97.6812,-77.15 L 97.6312,-77.2 L 97.5812,-77.15 L 97.5812,-75.9 L 97.6312,-75.85
 z
M 65.1375,-75.9 L 65.1375,-77.15 L 65.0875,-77.2 L 65.0375,-77.15 L 65.0375,-75.9 L 65.0875,-75.85
 z
M -32.4937,-75.9 L -32.4937,-77.15 L -32.5437,-77.2 L -32.5937,-77.15 L -32.5937,-75.9 L -32.5437,-75.85
 z
M 0.0499878,-75.9 L 0.0499878,-77.15 L 0,-77.2 L -0.0499878,-77.15 L -0.0499878,-75.9 L 0,-75.85
 z
M 32.5937,-70.9 L 32.5937,-74.65 L 32.5437,-74.7 L 32.4937,-74.65 L 32.4937,-70.9 L 32.5437,-70.85
 z
M 0.0499878,-70.9 L 0.0499878,-74.65 L 0,-74.7 L -0.0499878,-74.65 L -0.0499878,-70.9 L 0,-70.85
 z
M -97.5812,-70.9 L -97.5812,-74.65 L -97.6312,-74.7 L -97.6812,-74.65 L -97.6812,-70.9 L -97.6312,-70.85
 z
M 97.6812,-70.9 L 97.6812,-74.65 L 97.6312,-74.7 L 97.5812,-74.65 L 97.5812,-70.9 L 97.6312,-70.85
 z
M -32.4937,-70.9 L -32.4937,-74.65 L -32.5437,-74.7 L -32.5937,-74.65 L -32.5937,-70.9 L -32.5437,-70.85
 z
M -65.0375,-70.9 L -65.0375,-74.65 L -65.0875,-74.7 L -65.1375,-74.65 L -65.1375,-70.9 L -65.0875,-70.85
 z
M 65.1375,-70.9 L 65.1375,-74.65 L 65.0875,-74.7 L 65.0375,-74.65 L 65.0375,-70.9 L 65.0875,-70.85
 z
M -97.5812,-68.4 L -97.5812,-69.65 L -97.6312,-69.7 L -97.6812,-69.65 L -97.6812,-68.4 L -97.6312,-68.35
 z
M 65.1375,-68.4 L 65.1375,-69.65 L 65.0875,-69.7 L 65.0375,-69.65 L 65.0375,-68.4 L 65.0875,-68.35
 z
M 0.0499878,-68.4 L 0.0499878,-69.65 L 0,-69.7 L -0.0499878,-69.65 L -0.0499878,-68.4 L 0,-68.35
 z
M 32.5937,-68.4 L 32.5937,-69.65 L 32.5437,-69.7 L 32.4937,-69.65 L 32.4937,-68.4 L 32.5437,-68.35
 z
M 97.6812,-68.4 L 97.6812,-69.65 L 97.6312,-69.7 L 97.5812,-69.65 L 97.5812,-68.4 L 97.6312,-68.35
 z
M -65.0375,-68.4 L -65.0375,-69.65 L -65.0875,-69.7 L -65.1375,-69.65 L -65.1375,-68.4 L -65.0875,-68.35
 z
M -32.4937,-68.4 L -32.4937,-69.65 L -32.5437,-69.7 L -32.5937,-69.65 L -32.5937,-68.4 L -32.5437,-68.35
 z
M -65.0375,-63.4 L -65.0375,-67.15 L -65.0875,-67.2 L -65.1375,-67.15 L -65.1375,-63.4 L -65.0875,-63.35
 z
M 97.6812,-63.4 L 97.6812,-67.15 L 97.6312,-67.2 L 97.5812,-67.15 L 97.5812,-63.4 L 97.6312,-63.35
 z
M 0.0499878,-63.4 L 0.0499878,-67.15 L 0,-67.2 L -0.0499878,-67.15 L -0.0499878,-63.4 L 0,-63.35
 z
M -97.5812,-63.4 L -97.5812,-67.15 L -97.6312,-67.2 L -97.6812,-67.15 L -97.6812,-63.4 L -97.6312,-63.35
 z
M 32.5937,-63.4 L 32.5937,-67.15 L 32.5437,-67.2 L 32.4937,-67.15 L 32.4937,-63.4 L 32.5437,-63.35
 z
M -32.4937,-63.4 L -32.4937,-67.15 L -32.5437,-67.2 L -32.5937,-67.15 L -32.5937,-63.4 L -32.5437,-63.35
 z
M 65.1375,-63.4 L 65.1375,-67.15 L 65.0875,-67.2 L 65.0375,-67.15 L 65.0375,-63.4 L 65.0875,-63.35
 z
M 97.6812,-60.9 L 97.6812,-62.15 L 97.6312,-62.2 L 97.5812,-62.15 L 97.5812,-60.9 L 97.6312,-60.85
 z
M 0.0499878,-60.9 L 0.0499878,-62.15 L 0,-62.2 L -0.0499878,-62.15 L -0.0499878,-60.9 L 0,-60.85
 z
M -32.4937,-60.9 L -32.4937,-62.15 L -32.5437,-62.2 L -32.5937,-62.15 L -32.5937,-60.9 L -32.5437,-60.85
 z
M -97.5812,-60.9 L -97.5812,-62.15 L -97.6312,-62.2 L -97.6812,-62.15 L -97.6812,-60.9 L -97.6312,-60.85
 z
M -65.0375,-60.9 L -65.0375,-62.15 L -65.0875,-62.2 L -65.1375,-62.15 L -65.1375,-60.9 L -65.0875,-60.85
 z
M 65.1375,-60.9 L 65.1375,-62.15 L 65.0875,-62.2 L 65.0375,-62.15 L 65.0375,-60.9 L 65.0875,-60.85
 z
M 32.5937,-60.9 L 32.5937,-62.15 L 32.5437,-62.2 L 32.4937,-62.15 L 32.4937,-60.9 L 32.5437,-60.85
 z
M -32.4937,-55.9 L -32.4937,-59.65 L -32.5437,-59.7 L -32.5937,-59.65 L -32.5937,-55.9 L -32.5437,-55.85
 z
M -65.0375,-55.9 L -65.0375,-59.65 L -65.0875,-59.7 L -65.1375,-59.65 L -65.1375,-55.9 L -65.0875,-55.85
 z
M 32.5937,-55.9 L 32.5937,-59.65 L 32.5437,-59.7 L 32.4937,-59.65 L 32.4937,-55.9 L 32.5437,-55.85
 z
M 97.6812,-55.9 L 97.6812,-59.65 L 97.6312,-59.7 L 97.5812,-59.65 L 97.5812,-55.9 L 97.6312,-55.85
 z
M 0.0499878,-55.9 L 0.0499878,-59.65 L 0,-59.7 L -0.0499878,-59.65 L -0.0499878,-55.9 L 0,-55.85
 z
M -97.5812,-55.9 L -97.5812,-59.65 L -97.6312,-59.7 L -97.6812,-59.65 L -97.6812,-55.9 L -97.6312,-55.85
 z
M 65.1375,-55.9 L 65.1375,-59.65 L 65.0875,-59.7 L 65.0375,-59.65 L 65.0375,-55.9 L 65.0875,-55.85
 z
M -97.5812,-53.4 L -97.5812,-54.65 L -97.6312,-54.7 L -97.6812,-54.65 L -97.6812,-53.4 L -97.6312,-53.35
 z
M 97.6812,-53.4 L 97.6812,-54.65 L 97.6312,-54.7 L 97.5812,-54.65 L 97.5812,-53.4 L 97.6312,-53.35
 z
M 0.0499878,-53.4 L 0.0499878,-54.65 L 0,-54.7 L -0.0499878,-54.65 L -0.0499878,-53.4 L 0,-53.35
 z
M 32.5937,-53.4 L 32.5937,-54.65 L 32.5437,-54.7 L 32.4937,-54.65 L 32.4937,-53.4 L 32.5437,-53.35
 z
M -32.4937,-53.4 L -32.4937,-54.65 L -32.5437,-54.7 L -32.5937,-54.65 L -32.5937,-53.4 L -32.5437,-53.35
 z
M 65.1375,-53.4 L 65.1375,-54.65 L 65.0875,-54.7 L 65.0375,-54.65 L 65.0375,-53.4 L 65.0875,-53.35
 z
M -65.0375,-53.4 L -65.0375,-54.65 L -65.0875,-54.7 L -65.1375,-54.65 L -65.1375,-53.4 L -65.0875,-53.35
 z
M -97.5812,-48.4 L -97.5812,-50.75 L -96.425,-50.75 L -96.375,-50.8 L -96.425,-50.85 L -97.5812,-50.85
 L -97.5812,-52.15 L -97.6312,-52.2 L -97.6812,-52.15 L -97.6812,-50.85 L -100.175,-50.85 L -100.225,-50.8
 L -100.175,-50.75 L -97.6812,-50.75 L -97.6812,-48.4 L -97.6312,-48.35 z
M 65.1375,-48.4 L 65.1375,-50.75 L 68.575,-50.75 L 68.625,-50.8 L 68.575,-50.85 L 65.1375,-50.85
 L 65.1375,-52.15 L 65.0875,-52.2 L 65.0375,-52.15 L 65.0375,-50.85 L 64.825,-50.85 L 64.775,-50.8
 L 64.825,-50.75 L 65.0375,-50.75 L 65.0375,-48.4 L 65.0875,-48.35 z
M 32.5937,-48.4 L 32.5937,-50.75 L 33.575,-50.75 L 33.625,-50.8 L 33.575,-50.85 L 32.5937,-50.85
 L 32.5937,-52.15 L 32.5437,-52.2 L 32.4937,-52.15 L 32.4937,-50.85 L 32.325,-50.85 L 32.275,-50.8
 L 32.325,-50.75 L 32.4937,-50.75 L 32.4937,-48.4 L 32.5437,-48.35 z
M 0.0499878,-48.4 L 0.0499878,-50.75 L 1.075,-50.75 L 1.125,-50.8 L 1.075,-50.85 L 0.0499878,-50.85
 L 0.0499878,-52.15 L 0,-52.2 L -0.0499878,-52.15 L -0.0499878,-50.85 L -2.67499,-50.85 L -2.72499,-50.8
 L -2.67499,-50.75 L -0.0499878,-50.75 L -0.0499878,-48.4 L 0,-48.35 z
M -32.4937,-48.4 L -32.4937,-50.75 L -28.925,-50.75 L -28.875,-50.8 L -28.925,-50.85 L -32.4937,-50.85
 L -32.4937,-52.15 L -32.5437,-52.2 L -32.5937,-52.15 L -32.5937,-50.85 L -32.675,-50.85 L -32.725,-50.8
 L -32.675,-50.75 L -32.5937,-50.75 L -32.5937,-48.4 L -32.5437,-48.35 z
M -65.0375,-48.4 L -65.0375,-50.75 L -63.925,-50.75 L -63.875,-50.8 L -63.925,-50.85 L -65.0375,-50.85
 L -65.0375,-52.15 L -65.0875,-52.2 L -65.1375,-52.15 L -65.1375,-50.85 L -65.175,-50.85 L -65.225,-50.8
 L -65.175,-50.75 L -65.1375,-50.75 L -65.1375,-48.4 L -65.0875,-48.35 z
M 97.6812,-48.4 L 97.6812,-50.75 L 98.575,-50.75 L 98.625,-50.8 L 98.575,-50.85 L 97.6812,-50.85
 L 97.6812,-52.15 L 97.6312,-52.2 L 97.5812,-52.15 L 97.5812,-50.85 L 94.825,-50.85 L 94.775,-50.8
 L 94.825,-50.75 L 97.5812,-50.75 L 97.5812,-48.4 L 97.6312,-48.35 z
M -56.375,-50.8 L -56.425,-50.85 L -57.675,-50.85 L -57.725,-50.8 L -57.675,-50.75 L -56.425,-50.75
 z
M -51.375,-50.8 L -51.425,-50.85 L -55.175,-50.85 L -55.225,-50.8 L -55.175,-50.75 L -51.425,-50.75
 z
M -48.875,-50.8 L -48.925,-50.85 L -50.175,-50.85 L -50.225,-50.8 L -50.175,-50.75 L -48.925,-50.75
 z
M -43.875,-50.8 L -43.925,-50.85 L -47.675,-50.85 L -47.725,-50.8 L -47.675,-50.75 L -43.925,-50.75
 z
M -18.875,-50.8 L -18.925,-50.85 L -20.175,-50.85 L -20.225,-50.8 L -20.175,-50.75 L -18.925,-50.75
 z
M -36.375,-50.8 L -36.425,-50.85 L -40.175,-50.85 L -40.225,-50.8 L -40.175,-50.75 L -36.425,-50.75
 z
M -33.875,-50.8 L -33.925,-50.85 L -35.175,-50.85 L -35.225,-50.8 L -35.175,-50.75 L -33.925,-50.75
 z
M -26.375,-50.8 L -26.425,-50.85 L -27.675,-50.85 L -27.725,-50.8 L -27.675,-50.75 L -26.425,-50.75
 z
M -21.375,-50.8 L -21.425,-50.85 L -25.175,-50.85 L -25.225,-50.8 L -25.175,-50.75 L -21.425,-50.75
 z
M 63.625,-50.8 L 63.575,-50.85 L 62.325,-50.85 L 62.275,-50.8 L 62.325,-50.75 L 63.575,-50.75
 z
M 106.125,-50.8 L 106.075,-50.85 L 102.325,-50.85 L 102.275,-50.8 L 102.325,-50.75 L 106.075,-50.75
 z
M 116.125,-50.8 L 116.075,-50.85 L 114.825,-50.85 L 114.775,-50.8 L 114.825,-50.75 L 116.075,-50.75
 z
M -73.875,-50.8 L -73.925,-50.85 L -77.675,-50.85 L -77.725,-50.8 L -77.675,-50.75 L -73.925,-50.75
 z
M -58.875,-50.8 L -58.925,-50.85 L -62.675,-50.85 L -62.725,-50.8 L -62.675,-50.75 L -58.925,-50.75
 z
M -111.375,-50.8 L -111.425,-50.85 L -115.175,-50.85 L -115.225,-50.8 L -115.175,-50.75 L -111.425,-50.75
 z
M -108.875,-50.8 L -108.925,-50.85 L -110.175,-50.85 L -110.225,-50.8 L -110.175,-50.75 L -108.925,-50.75
 z
M -81.375,-50.8 L -81.425,-50.85 L -85.175,-50.85 L -85.225,-50.8 L -85.175,-50.75 L -81.425,-50.75
 z
M -88.875,-50.8 L -88.925,-50.85 L -92.675,-50.85 L -92.725,-50.8 L -92.675,-50.75 L -88.925,-50.75
 z
M -41.375,-50.8 L -41.425,-50.85 L -42.675,-50.85 L -42.725,-50.8 L -42.675,-50.75 L -41.425,-50.75
 z
M -66.375,-50.8 L -66.425,-50.85 L -70.175,-50.85 L -70.225,-50.8 L -70.175,-50.75 L -66.425,-50.75
 z
M -13.875,-50.8 L -13.925,-50.85 L -17.675,-50.85 L -17.725,-50.8 L -17.675,-50.75 L -13.925,-50.75
 z
M -11.375,-50.8 L -11.425,-50.85 L -12.675,-50.85 L -12.725,-50.8 L -12.675,-50.75 L -11.425,-50.75
 z
M -6.37498,-50.8 L -6.42499,-50.85 L -10.175,-50.85 L -10.225,-50.8 L -10.175,-50.75 L -6.42499,-50.75
 z
M -3.87498,-50.8 L -3.92499,-50.85 L -5.17499,-50.85 L -5.22499,-50.8 L -5.17499,-50.75 L -3.92499,-50.75
 z
M -118.875,-50.8 L -118.925,-50.85 L -122.675,-50.85 L -122.725,-50.8 L -122.675,-50.75 L -118.925,-50.75
 z
M -116.375,-50.8 L -116.425,-50.85 L -117.675,-50.85 L -117.725,-50.8 L -117.675,-50.75 L -116.425,-50.75
 z
M 31.125,-50.8 L 31.075,-50.85 L 27.325,-50.85 L 27.275,-50.8 L 27.325,-50.75 L 31.075,-50.75
 z
M 61.125,-50.8 L 61.075,-50.85 L 57.325,-50.85 L 57.275,-50.8 L 57.325,-50.75 L 61.075,-50.75
 z
M 23.625,-50.8 L 23.575,-50.85 L 19.825,-50.85 L 19.775,-50.8 L 19.825,-50.75 L 23.575,-50.75
 z
M 16.125,-50.8 L 16.075,-50.85 L 12.325,-50.85 L 12.275,-50.8 L 12.325,-50.75 L 16.075,-50.75
 z
M 38.625,-50.8 L 38.575,-50.85 L 34.825,-50.85 L 34.775,-50.8 L 34.825,-50.75 L 38.575,-50.75
 z
M 78.625,-50.8 L 78.575,-50.85 L 77.325,-50.85 L 77.275,-50.8 L 77.325,-50.75 L 78.575,-50.75
 z
M 93.625,-50.8 L 93.575,-50.85 L 92.325,-50.85 L 92.275,-50.8 L 92.325,-50.75 L 93.575,-50.75
 z
M 101.125,-50.8 L 101.075,-50.85 L 99.825,-50.85 L 99.775,-50.8 L 99.825,-50.75 L 101.075,-50.75
 z
M 3.625,-50.8 L 3.575,-50.85 L 2.325,-50.85 L 2.27499,-50.8 L 2.325,-50.75 L 3.575,-50.75
 z
M 11.125,-50.8 L 11.075,-50.85 L 9.825,-50.85 L 9.77499,-50.8 L 9.825,-50.75 L 11.075,-50.75
 z
M 18.625,-50.8 L 18.575,-50.85 L 17.325,-50.85 L 17.275,-50.8 L 17.325,-50.75 L 18.575,-50.75
 z
M 121.125,-50.8 L 121.075,-50.85 L 117.325,-50.85 L 117.275,-50.8 L 117.325,-50.75 L 121.075,-50.75
 z
M 113.625,-50.8 L 113.575,-50.85 L 109.825,-50.85 L 109.775,-50.8 L 109.825,-50.75 L 113.575,-50.75
 z
M 56.125,-50.8 L 56.075,-50.85 L 54.825,-50.85 L 54.775,-50.8 L 54.825,-50.75 L 56.075,-50.75
 z
M 91.125,-50.8 L 91.075,-50.85 L 87.325,-50.85 L 87.275,-50.8 L 87.325,-50.75 L 91.075,-50.75
 z
M 83.625,-50.8 L 83.575,-50.85 L 79.825,-50.85 L 79.775,-50.8 L 79.825,-50.75 L 83.575,-50.75
 z
M 76.125,-50.8 L 76.075,-50.85 L 72.325,-50.85 L 72.275,-50.8 L 72.325,-50.75 L 76.075,-50.75
 z
M 41.125,-50.8 L 41.075,-50.85 L 39.825,-50.85 L 39.775,-50.8 L 39.825,-50.75 L 41.075,-50.75
 z
M 86.125,-50.8 L 86.075,-50.85 L 84.825,-50.85 L 84.775,-50.8 L 84.825,-50.75 L 86.075,-50.75
 z
M -101.375,-50.8 L -101.425,-50.85 L -102.675,-50.85 L -102.725,-50.8 L -102.675,-50.75 L -101.425,-50.75
 z
M -103.875,-50.8 L -103.925,-50.85 L -107.675,-50.85 L -107.725,-50.8 L -107.675,-50.75 L -103.925,-50.75
 z
M -78.875,-50.8 L -78.925,-50.85 L -80.175,-50.85 L -80.225,-50.8 L -80.175,-50.75 L -78.925,-50.75
 z
M -71.375,-50.8 L -71.425,-50.85 L -72.675,-50.85 L -72.725,-50.8 L -72.675,-50.75 L -71.425,-50.75
 z
M -86.375,-50.8 L -86.425,-50.85 L -87.675,-50.85 L -87.725,-50.8 L -87.675,-50.75 L -86.425,-50.75
 z
M 26.125,-50.8 L 26.075,-50.85 L 24.825,-50.85 L 24.775,-50.8 L 24.825,-50.75 L 26.075,-50.75
 z
M 53.625,-50.8 L 53.575,-50.85 L 49.825,-50.85 L 49.775,-50.8 L 49.825,-50.75 L 53.575,-50.75
 z
M 108.625,-50.8 L 108.575,-50.85 L 107.325,-50.85 L 107.275,-50.8 L 107.325,-50.75 L 108.575,-50.75
 z
M 123.625,-50.8 L 123.575,-50.85 L 122.325,-50.85 L 122.275,-50.8 L 122.325,-50.75 L 123.575,-50.75
 z
M 48.625,-50.8 L 48.575,-50.85 L 47.325,-50.85 L 47.275,-50.8 L 47.325,-50.75 L 48.575,-50.75
 z
M 71.125,-50.8 L 71.075,-50.85 L 69.825,-50.85 L 69.775,-50.8 L 69.825,-50.75 L 71.075,-50.75
 z
M -93.875,-50.8 L -93.925,-50.85 L -95.175,-50.85 L -95.225,-50.8 L -95.175,-50.75 L -93.925,-50.75
 z
M 8.625,-50.8 L 8.575,-50.85 L 4.825,-50.85 L 4.77499,-50.8 L 4.825,-50.75 L 8.575,-50.75
 z
M 46.125,-50.8 L 46.075,-50.85 L 42.325,-50.85 L 42.275,-50.8 L 42.325,-50.75 L 46.075,-50.75
 z
M 65.1375,-45.9 L 65.1375,-47.15 L 65.0875,-47.2 L 65.0375,-47.15 L 65.0375,-45.9 L 65.0875,-45.85
 z
M 97.6812,-45.9 L 97.6812,-47.15 L 97.6312,-47.2 L 97.5812,-47.15 L 97.5812,-45.9 L 97.6312,-45.85
 z
M 0.0499878,-45.9 L 0.0499878,-47.15 L 0,-47.2 L -0.0499878,-47.15 L -0.0499878,-45.9 L 0,-45.85
 z
M -32.4937,-45.9 L -32.4937,-47.15 L -32.5437,-47.2 L -32.5937,-47.15 L -32.5937,-45.9 L -32.5437,-45.85
 z
M -97.5812,-45.9 L -97.5812,-47.15 L -97.6312,-47.2 L -97.6812,-47.15 L -97.6812,-45.9 L -97.6312,-45.85
 z
M -65.0375,-45.9 L -65.0375,-47.15 L -65.0875,-47.2 L -65.1375,-47.15 L -65.1375,-45.9 L -65.0875,-45.85
 z
M 32.5937,-45.9 L 32.5937,-47.15 L 32.5437,-47.2 L 32.4937,-47.15 L 32.4937,-45.9 L 32.5437,-45.85
 z
M -65.0375,-40.9 L -65.0375,-44.65 L -65.0875,-44.7 L -65.1375,-44.65 L -65.1375,-40.9 L -65.0875,-40.85
 z
M 97.6812,-40.9 L 97.6812,-44.65 L 97.6312,-44.7 L 97.5812,-44.65 L 97.5812,-40.9 L 97.6312,-40.85
 z
M 32.5937,-40.9 L 32.5937,-44.65 L 32.5437,-44.7 L 32.4937,-44.65 L 32.4937,-40.9 L 32.5437,-40.85
 z
M -32.4937,-40.9 L -32.4937,-44.65 L -32.5437,-44.7 L -32.5937,-44.65 L -32.5937,-40.9 L -32.5437,-40.85
 z
M 0.0499878,-40.9 L 0.0499878,-44.65 L 0,-44.7 L -0.0499878,-44.65 L -0.0499878,-40.9 L 0,-40.85
 z
M -97.5812,-40.9 L -97.5812,-44.65 L -97.6312,-44.7 L -97.6812,-44.65 L -97.6812,-40.9 L -97.6312,-40.85
 z
M 65.1375,-40.9 L 65.1375,-44.65 L 65.0875,-44.7 L 65.0375,-44.65 L 65.0375,-40.9 L 65.0875,-40.85
 z
M 32.5937,-38.4 L 32.5937,-39.65 L 32.5437,-39.7 L 32.4937,-39.65 L 32.4937,-38.4 L 32.5437,-38.35
 z
M -32.4937,-38.4 L -32.4937,-39.65 L -32.5437,-39.7 L -32.5937,-39.65 L -32.5937,-38.4 L -32.5437,-38.35
 z
M -97.5812,-38.4 L -97.5812,-39.65 L -97.6312,-39.7 L -97.6812,-39.65 L -97.6812,-38.4 L -97.6312,-38.35
 z
M 0.0499878,-38.4 L 0.0499878,-39.65 L 0,-39.7 L -0.0499878,-39.65 L -0.0499878,-38.4 L 0,-38.35
 z
M -65.0375,-38.4 L -65.0375,-39.65 L -65.0875,-39.7 L -65.1375,-39.65 L -65.1375,-38.4 L -65.0875,-38.35
 z
M 97.6812,-38.4 L 97.6812,-39.65 L 97.6312,-39.7 L 97.5812,-39.65 L 97.5812,-38.4 L 97.6312,-38.35
 z
M 65.1375,-38.4 L 65.1375,-39.65 L 65.0875,-39.7 L 65.0375,-39.65 L 65.0375,-38.4 L 65.0875,-38.35
 z
M 65.1375,-33.4 L 65.1375,-37.15 L 65.0875,-37.2 L 65.0375,-37.15 L 65.0375,-33.4 L 65.0875,-33.35
 z
M 0.0499878,-33.4 L 0.0499878,-37.15 L 0,-37.2 L -0.0499878,-37.15 L -0.0499878,-33.4 L 0,-33.35
 z
M -65.0375,-33.4 L -65.0375,-37.15 L -65.0875,-37.2 L -65.1375,-37.15 L -65.1375,-33.4 L -65.0875,-33.35
 z
M -32.4937,-33.4 L -32.4937,-37.15 L -32.5437,-37.2 L -32.5937,-37.15 L -32.5937,-33.4 L -32.5437,-33.35
 z
M -97.5812,-33.4 L -97.5812,-37.15 L -97.6312,-37.2 L -97.6812,-37.15 L -97.6812,-33.4 L -97.6312,-33.35
 z
M 97.6812,-33.4 L 97.6812,-37.15 L 97.6312,-37.2 L 97.5812,-37.15 L 97.5812,-33.4 L 97.6312,-33.35
 z
M 32.5937,-33.4 L 32.5937,-37.15 L 32.5437,-37.2 L 32.4937,-37.15 L 32.4937,-33.4 L 32.5437,-33.35
 z
M 65.1375,-30.9 L 65.1375,-32.15 L 65.0875,-32.2 L 65.0375,-32.15 L 65.0375,-30.9 L 65.0875,-30.85
 z
M 32.5937,-30.9 L 32.5937,-32.15 L 32.5437,-32.2 L 32.4937,-32.15 L 32.4937,-30.9 L 32.5437,-30.85
 z
M 0.0499878,-30.9 L 0.0499878,-32.15 L 0,-32.2 L -0.0499878,-32.15 L -0.0499878,-30.9 L 0,-30.85
 z
M -97.5812,-30.9 L -97.5812,-32.15 L -97.6312,-32.2 L -97.6812,-32.15 L -97.6812,-30.9 L -97.6312,-30.85
 z
M -65.0375,-30.9 L -65.0375,-32.15 L -65.0875,-32.2 L -65.1375,-32.15 L -65.1375,-30.9 L -65.0875,-30.85
 z
M -32.4937,-30.9 L -32.4937,-32.15 L -32.5437,-32.2 L -32.5937,-32.15 L -32.5937,-30.9 L -32.5437,-30.85
 z
M 97.6812,-30.9 L 97.6812,-32.15 L 97.6312,-32.2 L 97.5812,-32.15 L 97.5812,-30.9 L 97.6312,-30.85
 z
M -11.2719,-30.4 L -21.2719,-30.4 L -21.2719,-20.4 L -11.2719,-20.4 z
M -76.3594,-30.4 L -86.3594,-30.4 L -86.3594,-20.4 L -76.3594,-20.4 z
M 53.8156,-30.4 L 43.8156,-30.4 L 43.8156,-20.4 L 53.8156,-20.4 z
M -111.99,-20.7806 L -110.368,-21.8645 L -109.284,-23.4866 L -108.903,-25.4 L -109.284,-27.3134 L -110.368,-28.9355
 L -111.99,-30.0194 L -113.903,-30.4 L -115.817,-30.0194 L -117.439,-28.9355 L -118.523,-27.3134 L -118.903,-25.4
 L -118.523,-23.4866 L -117.439,-21.8645 L -115.817,-20.7806 L -113.903,-20.4 z
M 18.1853,-20.7806 L 19.8074,-21.8645 L 20.8913,-23.4866 L 21.2719,-25.4 L 20.8913,-27.3134 L 19.8074,-28.9355
 L 18.1853,-30.0194 L 16.2719,-30.4 L 14.3584,-30.0194 L 12.7363,-28.9355 L 11.6525,-27.3134 L 11.2719,-25.4
 L 11.6525,-23.4866 L 12.7363,-21.8645 L 14.3584,-20.7806 L 16.2719,-20.4 z
M 83.2728,-20.7806 L 84.8949,-21.8645 L 85.9788,-23.4866 L 86.3594,-25.4 L 85.9788,-27.3134 L 84.8949,-28.9355
 L 83.2728,-30.0194 L 81.3594,-30.4 L 79.446,-30.0194 L 77.8238,-28.9355 L 76.74,-27.3134 L 76.3594,-25.4
 L 76.74,-23.4866 L 77.8238,-21.8645 L 79.446,-20.7806 L 81.3594,-20.4 z
M 118.903,-30.4 L 108.903,-30.4 L 108.903,-20.4 L 118.903,-20.4 z
M -46.9022,-20.7806 L -45.2801,-21.8645 L -44.1962,-23.4866 L -43.8156,-25.4 L -44.1962,-27.3134 L -45.2801,-28.9355
 L -46.9022,-30.0194 L -48.8156,-30.4 L -50.729,-30.0194 L -52.3512,-28.9355 L -53.435,-27.3134 L -53.8156,-25.4
 L -53.435,-23.4866 L -52.3512,-21.8645 L -50.729,-20.7806 L -48.8156,-20.4 z
M -65.0375,-25.9 L -65.0375,-29.65 L -65.0875,-29.7 L -65.1375,-29.65 L -65.1375,-25.9 L -65.0875,-25.85
 z
M 65.1375,-25.9 L 65.1375,-29.65 L 65.0875,-29.7 L 65.0375,-29.65 L 65.0375,-25.9 L 65.0875,-25.85
 z
M -32.4937,-25.9 L -32.4937,-29.65 L -32.5437,-29.7 L -32.5937,-29.65 L -32.5937,-25.9 L -32.5437,-25.85
 z
M -97.5812,-25.9 L -97.5812,-29.65 L -97.6312,-29.7 L -97.6812,-29.65 L -97.6812,-25.9 L -97.6312,-25.85
 z
M 97.6812,-25.9 L 97.6812,-29.65 L 97.6312,-29.7 L 97.5812,-29.65 L 97.5812,-25.9 L 97.6312,-25.85
 z
M 0.0499878,-25.9 L 0.0499878,-29.65 L 0,-29.7 L -0.0499878,-29.65 L -0.0499878,-25.9 L 0,-25.85
 z
M 32.5937,-25.9 L 32.5937,-29.65 L 32.5437,-29.7 L 32.4937,-29.65 L 32.4937,-25.9 L 32.5437,-25.85
 z
M 65.1375,-23.4 L 65.1375,-24.65 L 65.0875,-24.7 L 65.0375,-24.65 L 65.0375,-23.4 L 65.0875,-23.35
 z
M -65.0375,-23.4 L -65.0375,-24.65 L -65.0875,-24.7 L -65.1375,-24.65 L -65.1375,-23.4 L -65.0875,-23.35
 z
M -32.4937,-23.4 L -32.4937,-24.65 L -32.5437,-24.7 L -32.5937,-24.65 L -32.5937,-23.4 L -32.5437,-23.35
 z
M -97.5812,-23.4 L -97.5812,-24.65 L -97.6312,-24.7 L -97.6812,-24.65 L -97.6812,-23.4 L -97.6312,-23.35
 z
M 97.6812,-23.4 L 97.6812,-24.65 L 97.6312,-24.7 L 97.5812,-24.65 L 97.5812,-23.4 L 97.6312,-23.35
 z
M 0.0499878,-23.4 L 0.0499878,-24.65 L 0,-24.7 L -0.0499878,-24.65 L -0.0499878,-23.4 L 0,-23.35
 z
M 32.5937,-23.4 L 32.5937,-24.65 L 32.5437,-24.7 L 32.4937,-24.65 L 32.4937,-23.4 L 32.5437,-23.35
 z
M 0.0499878,-18.4 L 0.0499878,-22.15 L 0,-22.2 L -0.0499878,-22.15 L -0.0499878,-18.4 L 0,-18.35
 z
M -32.4937,-18.4 L -32.4937,-22.15 L -32.5437,-22.2 L -32.5937,-22.15 L -32.5937,-18.4 L -32.5437,-18.35
 z
M -65.0375,-18.4 L -65.0375,-22.15 L -65.0875,-22.2 L -65.1375,-22.15 L -65.1375,-18.4 L -65.0875,-18.35
 z
M -97.5812,-18.4 L -97.5812,-22.15 L -97.6312,-22.2 L -97.6812,-22.15 L -97.6812,-18.4 L -97.6312,-18.35
 z
M 65.1375,-18.4 L 65.1375,-22.15 L 65.0875,-22.2 L 65.0375,-22.15 L 65.0375,-18.4 L 65.0875,-18.35
 z
M 97.6812,-18.4 L 97.6812,-22.15 L 97.6312,-22.2 L 97.5812,-22.15 L 97.5812,-18.4 L 97.6312,-18.35
 z
M 32.5937,-18.4 L 32.5937,-22.15 L 32.5437,-22.2 L 32.4937,-22.15 L 32.4937,-18.4 L 32.5437,-18.35
 z
M -97.5812,-15.9 L -97.5812,-17.15 L -97.6312,-17.2 L -97.6812,-17.15 L -97.6812,-15.9 L -97.6312,-15.85
 z
M 65.1375,-15.9 L 65.1375,-17.15 L 65.0875,-17.2 L 65.0375,-17.15 L 65.0375,-15.9 L 65.0875,-15.85
 z
M -32.4937,-15.9 L -32.4937,-17.15 L -32.5437,-17.2 L -32.5937,-17.15 L -32.5937,-15.9 L -32.5437,-15.85
 z
M -65.0375,-15.9 L -65.0375,-17.15 L -65.0875,-17.2 L -65.1375,-17.15 L -65.1375,-15.9 L -65.0875,-15.85
 z
M 97.6812,-15.9 L 97.6812,-17.15 L 97.6312,-17.2 L 97.5812,-17.15 L 97.5812,-15.9 L 97.6312,-15.85
 z
M 32.5937,-15.9 L 32.5937,-17.15 L 32.5437,-17.2 L 32.4937,-17.15 L 32.4937,-15.9 L 32.5437,-15.85
 z
M 0.0499878,-15.9 L 0.0499878,-17.15 L 0,-17.2 L -0.0499878,-17.15 L -0.0499878,-15.9 L 0,-15.85
 z
M -32.4937,-10.9 L -32.4937,-14.65 L -32.5437,-14.7 L -32.5937,-14.65 L -32.5937,-10.9 L -32.5437,-10.85
 z
M 32.5937,-10.9 L 32.5937,-14.65 L 32.5437,-14.7 L 32.4937,-14.65 L 32.4937,-10.9 L 32.5437,-10.85
 z
M 97.6812,-10.9 L 97.6812,-14.65 L 97.6312,-14.7 L 97.5812,-14.65 L 97.5812,-10.9 L 97.6312,-10.85
 z
M -65.0375,-10.9 L -65.0375,-14.65 L -65.0875,-14.7 L -65.1375,-14.65 L -65.1375,-10.9 L -65.0875,-10.85
 z
M 65.1375,-10.9 L 65.1375,-14.65 L 65.0875,-14.7 L 65.0375,-14.65 L 65.0375,-10.9 L 65.0875,-10.85
 z
M 0.0499878,-10.9 L 0.0499878,-14.65 L 0,-14.7 L -0.0499878,-14.65 L -0.0499878,-10.9 L 0,-10.85
 z
M -97.5812,-10.9 L -97.5812,-14.65 L -97.6312,-14.7 L -97.6812,-14.65 L -97.6812,-10.9 L -97.6312,-10.85
 z
M 32.5937,-8.39999 L 32.5937,-9.64999 L 32.5437,-9.7 L 32.4937,-9.64999 L 32.4937,-8.39999 L 32.5437,-8.34999
 z
M -65.0375,-8.39999 L -65.0375,-9.64999 L -65.0875,-9.7 L -65.1375,-9.64999 L -65.1375,-8.39999 L -65.0875,-8.34999
 z
M 65.1375,-8.39999 L 65.1375,-9.64999 L 65.0875,-9.7 L 65.0375,-9.64999 L 65.0375,-8.39999 L 65.0875,-8.34999
 z
M 0.0499878,-8.39999 L 0.0499878,-9.64999 L 0,-9.7 L -0.0499878,-9.64999 L -0.0499878,-8.39999 L 0,-8.34999
 z
M -32.4937,-8.39999 L -32.4937,-9.64999 L -32.5437,-9.7 L -32.5937,-9.64999 L -32.5937,-8.39999 L -32.5437,-8.34999
 z
M -97.5812,-8.39999 L -97.5812,-9.64999 L -97.6312,-9.7 L -97.6812,-9.64999 L -97.6812,-8.39999 L -97.6312,-8.34999
 z
M 97.6812,-8.39999 L 97.6812,-9.64999 L 97.6312,-9.7 L 97.5812,-9.64999 L 97.5812,-8.39999 L 97.6312,-8.34999
 z
M -65.0375,-3.39999 L -65.0375,-7.14999 L -65.0875,-7.2 L -65.1375,-7.14999 L -65.1375,-3.39999 L -65.0875,-3.34999
 z
M -97.5812,-3.39999 L -97.5812,-7.14999 L -97.6312,-7.2 L -97.6812,-7.14999 L -97.6812,-3.39999 L -97.6312,-3.34999
 z
M 0.0499878,-3.39999 L 0.0499878,-7.14999 L 0,-7.2 L -0.0499878,-7.14999 L -0.0499878,-3.39999 L 0,-3.34999
 z
M -32.4937,-3.39999 L -32.4937,-7.14999 L -32.5437,-7.2 L -32.5937,-7.14999 L -32.5937,-3.39999 L -32.5437,-3.34999
 z
M 32.5937,-3.39999 L 32.5937,-7.14999 L 32.5437,-7.2 L 32.4937,-7.14999 L 32.4937,-3.39999 L 32.5437,-3.34999
 z
M 97.6812,-3.39999 L 97.6812,-7.14999 L 97.6312,-7.2 L 97.5812,-7.14999 L 97.5812,-3.39999 L 97.6312,-3.34999
 z
M 65.1375,-3.39999 L 65.1375,-7.14999 L 65.0875,-7.2 L 65.0375,-7.14999 L 65.0375,-3.39999 L 65.0875,-3.34999
 z
M -65.0375,-0.899994 L -65.0375,-2.14999 L -65.0875,-2.2 L -65.1375,-2.14999 L -65.1375,-0.899994 L -65.0875,-0.849991
 z
M -97.5812,-0.899994 L -97.5812,-2.14999 L -97.6312,-2.2 L -97.6812,-2.14999 L -97.6812,-0.899994 L -97.6312,-0.849991
 z
M 65.1375,-0.899994 L 65.1375,-2.14999 L 65.0875,-2.2 L 65.0375,-2.14999 L 65.0375,-0.899994 L 65.0875,-0.849991
 z
M -32.4937,-0.899994 L -32.4937,-2.14999 L -32.5437,-2.2 L -32.5937,-2.14999 L -32.5937,-0.899994 L -32.5437,-0.849991
 z
M 97.6812,-0.899994 L 97.6812,-2.14999 L 97.6312,-2.2 L 97.5812,-2.14999 L 97.5812,-0.899994 L 97.6312,-0.849991
 z
M 32.5937,-0.899994 L 32.5937,-2.14999 L 32.5437,-2.2 L 32.4937,-2.14999 L 32.4937,-0.899994 L 32.5437,-0.849991
 z
M 0.0499878,-0.899994 L 0.0499878,-2.14999 L 0,-2.2 L -0.0499878,-2.14999 L -0.0499878,-0.899994 L 0,-0.849991
 z
M -11.375,-0 L -11.425,-0.0499878 L -12.675,-0.0499878 L -12.725,-0 L -12.675,0.0499878 L -11.425,0.0499878
 z
M 53.625,-0 L 53.575,-0.0499878 L 49.825,-0.0499878 L 49.775,-0 L 49.825,0.0499878 L 53.575,0.0499878
 z
M 46.125,-0 L 46.075,-0.0499878 L 42.325,-0.0499878 L 42.275,-0 L 42.325,0.0499878 L 46.075,0.0499878
 z
M -18.875,-0 L -18.925,-0.0499878 L -20.175,-0.0499878 L -20.225,-0 L -20.175,0.0499878 L -18.925,0.0499878
 z
M -43.875,-0 L -43.925,-0.0499878 L -47.675,-0.0499878 L -47.725,-0 L -47.675,0.0499878 L -43.925,0.0499878
 z
M 101.125,-0 L 101.075,-0.0499878 L 99.825,-0.0499878 L 99.775,-0 L 99.825,0.0499878 L 101.075,0.0499878
 z
M 83.625,-0 L 83.575,-0.0499878 L 79.825,-0.0499878 L 79.775,-0 L 79.825,0.0499878 L 83.575,0.0499878
 z
M -6.37498,-0 L -6.42499,-0.0499878 L -10.175,-0.0499878 L -10.225,-0 L -10.175,0.0499878 L -6.42499,0.0499878
 z
M 116.125,-0 L 116.075,-0.0499878 L 114.825,-0.0499878 L 114.775,-0 L 114.825,0.0499878 L 116.075,0.0499878
 z
M 3.625,-0 L 3.575,-0.0499878 L 2.325,-0.0499878 L 2.27499,-0 L 2.325,0.0499878 L 3.575,0.0499878
 z
M 11.125,-0 L 11.075,-0.0499878 L 9.825,-0.0499878 L 9.77499,-0 L 9.825,0.0499878 L 11.075,0.0499878
 z
M 18.625,-0 L 18.575,-0.0499878 L 17.325,-0.0499878 L 17.275,-0 L 17.325,0.0499878 L 18.575,0.0499878
 z
M 121.125,-0 L 121.075,-0.0499878 L 117.325,-0.0499878 L 117.275,-0 L 117.325,0.0499878 L 121.075,0.0499878
 z
M 38.625,-0 L 38.575,-0.0499878 L 34.825,-0.0499878 L 34.775,-0 L 34.825,0.0499878 L 38.575,0.0499878
 z
M 106.125,-0 L 106.075,-0.0499878 L 102.325,-0.0499878 L 102.275,-0 L 102.325,0.0499878 L 106.075,0.0499878
 z
M 98.625,-0 L 98.575,-0.0499878 L 94.825,-0.0499878 L 94.775,-0 L 94.825,0.0499878 L 98.575,0.0499878
 z
M 91.125,-0 L 91.075,-0.0499878 L 87.325,-0.0499878 L 87.275,-0 L 87.325,0.0499878 L 91.075,0.0499878
 z
M 63.625,-0 L 63.575,-0.0499878 L 62.325,-0.0499878 L 62.275,-0 L 62.325,0.0499878 L 63.575,0.0499878
 z
M 76.125,-0 L 76.075,-0.0499878 L 72.325,-0.0499878 L 72.275,-0 L 72.325,0.0499878 L 76.075,0.0499878
 z
M -21.375,-0 L -21.425,-0.0499878 L -25.175,-0.0499878 L -25.225,-0 L -25.175,0.0499878 L -21.425,0.0499878
 z
M -26.375,-0 L -26.425,-0.0499878 L -27.675,-0.0499878 L -27.725,-0 L -27.675,0.0499878 L -26.425,0.0499878
 z
M 68.625,-0 L 68.575,-0.0499878 L 64.825,-0.0499878 L 64.775,-0 L 64.825,0.0499878 L 68.575,0.0499878
 z
M -33.875,-0 L -33.925,-0.0499878 L -35.175,-0.0499878 L -35.225,-0 L -35.175,0.0499878 L -33.925,0.0499878
 z
M -73.875,-0 L -73.925,-0.0499878 L -77.675,-0.0499878 L -77.725,-0 L -77.675,0.0499878 L -73.925,0.0499878
 z
M 93.625,-0 L 93.575,-0.0499878 L 92.325,-0.0499878 L 92.275,-0 L 92.325,0.0499878 L 93.575,0.0499878
 z
M 33.625,-0 L 33.575,-0.0499878 L 32.325,-0.0499878 L 32.275,-0 L 32.325,0.0499878 L 33.575,0.0499878
 z
M 78.625,-0 L 78.575,-0.0499878 L 77.325,-0.0499878 L 77.275,-0 L 77.325,0.0499878 L 78.575,0.0499878
 z
M 71.125,-0 L 71.075,-0.0499878 L 69.825,-0.0499878 L 69.775,-0 L 69.825,0.0499878 L 71.075,0.0499878
 z
M -41.375,-0 L -41.425,-0.0499878 L -42.675,-0.0499878 L -42.725,-0 L -42.675,0.0499878 L -41.425,0.0499878
 z
M 113.625,-0 L 113.575,-0.0499878 L 109.825,-0.0499878 L 109.775,-0 L 109.825,0.0499878 L 113.575,0.0499878
 z
M 26.125,-0 L 26.075,-0.0499878 L 24.825,-0.0499878 L 24.775,-0 L 24.825,0.0499878 L 26.075,0.0499878
 z
M -51.375,-0 L -51.425,-0.0499878 L -55.175,-0.0499878 L -55.225,-0 L -55.175,0.0499878 L -51.425,0.0499878
 z
M 61.125,-0 L 61.075,-0.0499878 L 57.325,-0.0499878 L 57.275,-0 L 57.325,0.0499878 L 61.075,0.0499878
 z
M 1.125,-0 L 1.075,-0.0499878 L -2.67499,-0.0499878 L -2.72499,-0 L -2.67499,0.0499878 L 1.075,0.0499878
 z
M -66.375,-0 L -66.425,-0.0499878 L -70.175,-0.0499878 L -70.225,-0 L -70.175,0.0499878 L -66.425,0.0499878
 z
M -103.875,-0 L -103.925,-0.0499878 L -107.675,-0.0499878 L -107.725,-0 L -107.675,0.0499878 L -103.925,0.0499878
 z
M -96.375,-0 L -96.425,-0.0499878 L -100.175,-0.0499878 L -100.225,-0 L -100.175,0.0499878 L -96.425,0.0499878
 z
M -88.875,-0 L -88.925,-0.0499878 L -92.675,-0.0499878 L -92.725,-0 L -92.675,0.0499878 L -88.925,0.0499878
 z
M -81.375,-0 L -81.425,-0.0499878 L -85.175,-0.0499878 L -85.225,-0 L -85.175,0.0499878 L -81.425,0.0499878
 z
M -36.375,-0 L -36.425,-0.0499878 L -40.175,-0.0499878 L -40.225,-0 L -40.175,0.0499878 L -36.425,0.0499878
 z
M 8.625,-0 L 8.575,-0.0499878 L 4.825,-0.0499878 L 4.77499,-0 L 4.825,0.0499878 L 8.575,0.0499878
 z
M 16.125,-0 L 16.075,-0.0499878 L 12.325,-0.0499878 L 12.275,-0 L 12.325,0.0499878 L 16.075,0.0499878
 z
M 23.625,-0 L 23.575,-0.0499878 L 19.825,-0.0499878 L 19.775,-0 L 19.825,0.0499878 L 23.575,0.0499878
 z
M 31.125,-0 L 31.075,-0.0499878 L 27.325,-0.0499878 L 27.275,-0 L 27.325,0.0499878 L 31.075,0.0499878
 z
M -28.875,-0 L -28.925,-0.0499878 L -32.675,-0.0499878 L -32.725,-0 L -32.675,0.0499878 L -28.925,0.0499878
 z
M -48.875,-0 L -48.925,-0.0499878 L -50.175,-0.0499878 L -50.225,-0 L -50.175,0.0499878 L -48.925,0.0499878
 z
M -56.375,-0 L -56.425,-0.0499878 L -57.675,-0.0499878 L -57.725,-0 L -57.675,0.0499878 L -56.425,0.0499878
 z
M 41.125,-0 L 41.075,-0.0499878 L 39.825,-0.0499878 L 39.775,-0 L 39.825,0.0499878 L 41.075,0.0499878
 z
M 108.625,-0 L 108.575,-0.0499878 L 107.325,-0.0499878 L 107.275,-0 L 107.325,0.0499878 L 108.575,0.0499878
 z
M 48.625,-0 L 48.575,-0.0499878 L 47.325,-0.0499878 L 47.275,-0 L 47.325,0.0499878 L 48.575,0.0499878
 z
M -13.875,-0 L -13.925,-0.0499878 L -17.675,-0.0499878 L -17.725,-0 L -17.675,0.0499878 L -13.925,0.0499878
 z
M 86.125,-0 L 86.075,-0.0499878 L 84.825,-0.0499878 L 84.775,-0 L 84.825,0.0499878 L 86.075,0.0499878
 z
M -116.375,-0 L -116.425,-0.0499878 L -117.675,-0.0499878 L -117.725,-0 L -117.675,0.0499878 L -116.425,0.0499878
 z
M -111.375,-0 L -111.425,-0.0499878 L -115.175,-0.0499878 L -115.225,-0 L -115.175,0.0499878 L -111.425,0.0499878
 z
M -108.875,-0 L -108.925,-0.0499878 L -110.175,-0.0499878 L -110.225,-0 L -110.175,0.0499878 L -108.925,0.0499878
 z
M -58.875,-0 L -58.925,-0.0499878 L -62.675,-0.0499878 L -62.725,-0 L -62.675,0.0499878 L -58.925,0.0499878
 z
M -86.375,-0 L -86.425,-0.0499878 L -87.675,-0.0499878 L -87.725,-0 L -87.675,0.0499878 L -86.425,0.0499878
 z
M -71.375,-0 L -71.425,-0.0499878 L -72.675,-0.0499878 L -72.725,-0 L -72.675,0.0499878 L -71.425,0.0499878
 z
M -78.875,-0 L -78.925,-0.0499878 L -80.175,-0.0499878 L -80.225,-0 L -80.175,0.0499878 L -78.925,0.0499878
 z
M -93.875,-0 L -93.925,-0.0499878 L -95.175,-0.0499878 L -95.225,-0 L -95.175,0.0499878 L -93.925,0.0499878
 z
M 56.125,-0 L 56.075,-0.0499878 L 54.825,-0.0499878 L 54.775,-0 L 54.825,0.0499878 L 56.075,0.0499878
 z
M -101.375,-0 L -101.425,-0.0499878 L -102.675,-0.0499878 L -102.725,-0 L -102.675,0.0499878 L -101.425,0.0499878
 z
M -63.875,-0 L -63.925,-0.0499878 L -65.175,-0.0499878 L -65.225,-0 L -65.175,0.0499878 L -63.925,0.0499878
 z
M -3.87498,-0 L -3.92499,-0.0499878 L -5.17499,-0.0499878 L -5.22499,-0 L -5.17499,0.0499878 L -3.92499,0.0499878
 z
M -32.4937,4.09999 L -32.4937,0.349991 L -32.5437,0.299988 L -32.5937,0.349991 L -32.5937,4.09999 L -32.5437,4.14999
 z
M 32.5937,4.09999 L 32.5937,0.349991 L 32.5437,0.299988 L 32.4937,0.349991 L 32.4937,4.09999 L 32.5437,4.14999
 z
M -65.0375,4.09999 L -65.0375,0.349991 L -65.0875,0.299988 L -65.1375,0.349991 L -65.1375,4.09999 L -65.0875,4.14999
 z
M 97.6812,4.09999 L 97.6812,0.349991 L 97.6312,0.299988 L 97.5812,0.349991 L 97.5812,4.09999 L 97.6312,4.14999
 z
M 65.1375,4.09999 L 65.1375,0.349991 L 65.0875,0.299988 L 65.0375,0.349991 L 65.0375,4.09999 L 65.0875,4.14999
 z
M 0.0499878,4.09999 L 0.0499878,0.349991 L 0,0.299988 L -0.0499878,0.349991 L -0.0499878,4.09999 L 0,4.14999
 z
M -97.5812,4.09999 L -97.5812,0.349991 L -97.6312,0.299988 L -97.6812,0.349991 L -97.6812,4.09999 L -97.6312,4.14999
 z
M 65.1375,6.59999 L 65.1375,5.34999 L 65.0875,5.29999 L 65.0375,5.34999 L 65.0375,6.59999 L 65.0875,6.64999
 z
M -65.0375,6.59999 L -65.0375,5.34999 L -65.0875,5.29999 L -65.1375,5.34999 L -65.1375,6.59999 L -65.0875,6.64999
 z
M -32.4937,6.59999 L -32.4937,5.34999 L -32.5437,5.29999 L -32.5937,5.34999 L -32.5937,6.59999 L -32.5437,6.64999
 z
M 0.0499878,6.59999 L 0.0499878,5.34999 L 0,5.29999 L -0.0499878,5.34999 L -0.0499878,6.59999 L 0,6.64999
 z
M 32.5937,6.59999 L 32.5937,5.34999 L 32.5437,5.29999 L 32.4937,5.34999 L 32.4937,6.59999 L 32.5437,6.64999
 z
M 97.6812,6.59999 L 97.6812,5.34999 L 97.6312,5.29999 L 97.5812,5.34999 L 97.5812,6.59999 L 97.6312,6.64999
 z
M -97.5812,6.59999 L -97.5812,5.34999 L -97.6312,5.29999 L -97.6812,5.34999 L -97.6812,6.59999 L -97.6312,6.64999
 z
M -65.0375,11.6 L -65.0375,7.84999 L -65.0875,7.79999 L -65.1375,7.84999 L -65.1375,11.6 L -65.0875,11.65
 z
M 0.0499878,11.6 L 0.0499878,7.84999 L 0,7.79999 L -0.0499878,7.84999 L -0.0499878,11.6 L 0,11.65
 z
M -32.4937,11.6 L -32.4937,7.84999 L -32.5437,7.79999 L -32.5937,7.84999 L -32.5937,11.6 L -32.5437,11.65
 z
M 65.1375,11.6 L 65.1375,7.84999 L 65.0875,7.79999 L 65.0375,7.84999 L 65.0375,11.6 L 65.0875,11.65
 z
M 97.6812,11.6 L 97.6812,7.84999 L 97.6312,7.79999 L 97.5812,7.84999 L 97.5812,11.6 L 97.6312,11.65
 z
M 32.5937,11.6 L 32.5937,7.84999 L 32.5437,7.79999 L 32.4937,7.84999 L 32.4937,11.6 L 32.5437,11.65
 z
M -97.5812,11.6 L -97.5812,7.84999 L -97.6312,7.79999 L -97.6812,7.84999 L -97.6812,11.6 L -97.6312,11.65
 z
M -32.4937,14.1 L -32.4937,12.85 L -32.5437,12.8 L -32.5937,12.85 L -32.5937,14.1 L -32.5437,14.15
 z
M -97.5812,14.1 L -97.5812,12.85 L -97.6312,12.8 L -97.6812,12.85 L -97.6812,14.1 L -97.6312,14.15
 z
M 32.5937,14.1 L 32.5937,12.85 L 32.5437,12.8 L 32.4937,12.85 L 32.4937,14.1 L 32.5437,14.15
 z
M -65.0375,14.1 L -65.0375,12.85 L -65.0875,12.8 L -65.1375,12.85 L -65.1375,14.1 L -65.0875,14.15
 z
M 97.6812,14.1 L 97.6812,12.85 L 97.6312,12.8 L 97.5812,12.85 L 97.5812,14.1 L 97.6312,14.15
 z
M 65.1375,14.1 L 65.1375,12.85 L 65.0875,12.8 L 65.0375,12.85 L 65.0375,14.1 L 65.0875,14.15
 z
M 0.0499878,14.1 L 0.0499878,12.85 L 0,12.8 L -0.0499878,12.85 L -0.0499878,14.1 L 0,14.15
 z
M 97.6812,19.1 L 97.6812,15.35 L 97.6312,15.3 L 97.5812,15.35 L 97.5812,19.1 L 97.6312,19.15
 z
M -32.4937,19.1 L -32.4937,15.35 L -32.5437,15.3 L -32.5937,15.35 L -32.5937,19.1 L -32.5437,19.15
 z
M -97.5812,19.1 L -97.5812,15.35 L -97.6312,15.3 L -97.6812,15.35 L -97.6812,19.1 L -97.6312,19.15
 z
M 32.5937,19.1 L 32.5937,15.35 L 32.5437,15.3 L 32.4937,15.35 L 32.4937,19.1 L 32.5437,19.15
 z
M 0.0499878,19.1 L 0.0499878,15.35 L 0,15.3 L -0.0499878,15.35 L -0.0499878,19.1 L 0,19.15
 z
M 65.1375,19.1 L 65.1375,15.35 L 65.0875,15.3 L 65.0375,15.35 L 65.0375,19.1 L 65.0875,19.15
 z
M -65.0375,19.1 L -65.0375,15.35 L -65.0875,15.3 L -65.1375,15.35 L -65.1375,19.1 L -65.0875,19.15
 z
M -32.4937,21.6 L -32.4937,20.35 L -32.5437,20.3 L -32.5937,20.35 L -32.5937,21.6 L -32.5437,21.65
 z
M -97.5812,21.6 L -97.5812,20.35 L -97.6312,20.3 L -97.6812,20.35 L -97.6812,21.6 L -97.6312,21.65
 z
M 0.0499878,21.6 L 0.0499878,20.35 L 0,20.3 L -0.0499878,20.35 L -0.0499878,21.6 L 0,21.65
 z
M 32.5937,21.6 L 32.5937,20.35 L 32.5437,20.3 L 32.4937,20.35 L 32.4937,21.6 L 32.5437,21.65
 z
M -65.0375,21.6 L -65.0375,20.35 L -65.0875,20.3 L -65.1375,20.35 L -65.1375,21.6 L -65.0875,21.65
 z
M 65.1375,21.6 L 65.1375,20.35 L 65.0875,20.3 L 65.0375,20.35 L 65.0375,21.6 L 65.0875,21.65
 z
M 97.6812,21.6 L 97.6812,20.35 L 97.6312,20.3 L 97.5812,20.35 L 97.5812,21.6 L 97.6312,21.65
 z
M -111.99,30.0194 L -110.368,28.9355 L -109.284,27.3134 L -108.903,25.4 L -109.284,23.4866 L -110.368,21.8645
 L -111.99,20.7806 L -113.903,20.4 L -115.817,20.7806 L -117.439,21.8645 L -118.523,23.4866 L -118.903,25.4
 L -118.523,27.3134 L -117.439,28.9355 L -115.817,30.0194 L -113.903,30.4 z
M 83.2728,30.0194 L 84.8949,28.9355 L 85.9788,27.3134 L 86.3594,25.4 L 85.9788,23.4866 L 84.8949,21.8645
 L 83.2728,20.7806 L 81.3594,20.4 L 79.446,20.7806 L 77.8238,21.8645 L 76.74,23.4866 L 76.3594,25.4
 L 76.74,27.3134 L 77.8238,28.9355 L 79.446,30.0194 L 81.3594,30.4 z
M 53.8156,20.4 L 43.8156,20.4 L 43.8156,30.4 L 53.8156,30.4 z
M 18.1853,30.0194 L 19.8074,28.9355 L 20.8913,27.3134 L 21.2719,25.4 L 20.8913,23.4866 L 19.8074,21.8645
 L 18.1853,20.7806 L 16.2719,20.4 L 14.3584,20.7806 L 12.7363,21.8645 L 11.6525,23.4866 L 11.2719,25.4
 L 11.6525,27.3134 L 12.7363,28.9355 L 14.3584,30.0194 L 16.2719,30.4 z
M -11.2719,20.4 L -21.2719,20.4 L -21.2719,30.4 L -11.2719,30.4 z
M 118.903,20.4 L 108.903,20.4 L 108.903,30.4 L 118.903,30.4 z
M -46.9022,30.0194 L -45.2801,28.9355 L -44.1962,27.3134 L -43.8156,25.4 L -44.1962,23.4866 L -45.2801,21.8645
 L -46.9022,20.7806 L -48.8156,20.4 L -50.729,20.7806 L -52.3512,21.8645 L -53.435,23.4866 L -53.8156,25.4
 L -53.435,27.3134 L -52.3512,28.9355 L -50.729,30.0194 L -48.8156,30.4 z
M -76.3594,20.4 L -86.3594,20.4 L -86.3594,30.4 L -76.3594,30.4 z
M 97.6812,26.6 L 97.6812,22.85 L 97.6312,22.8 L 97.5812,22.85 L 97.5812,26.6 L 97.6312,26.65
 z
M -97.5812,26.6 L -97.5812,22.85 L -97.6312,22.8 L -97.6812,22.85 L -97.6812,26.6 L -97.6312,26.65
 z
M 65.1375,26.6 L 65.1375,22.85 L 65.0875,22.8 L 65.0375,22.85 L 65.0375,26.6 L 65.0875,26.65
 z
M -65.0375,26.6 L -65.0375,22.85 L -65.0875,22.8 L -65.1375,22.85 L -65.1375,26.6 L -65.0875,26.65
 z
M 0.0499878,26.6 L 0.0499878,22.85 L 0,22.8 L -0.0499878,22.85 L -0.0499878,26.6 L 0,26.65
 z
M 32.5937,26.6 L 32.5937,22.85 L 32.5437,22.8 L 32.4937,22.85 L 32.4937,26.6 L 32.5437,26.65
 z
M -32.4937,26.6 L -32.4937,22.85 L -32.5437,22.8 L -32.5937,22.85 L -32.5937,26.6 L -32.5437,26.65
 z
M 97.6812,29.1 L 97.6812,27.85 L 97.6312,27.8 L 97.5812,27.85 L 97.5812,29.1 L 97.6312,29.15
 z
M 32.5937,29.1 L 32.5937,27.85 L 32.5437,27.8 L 32.4937,27.85 L 32.4937,29.1 L 32.5437,29.15
 z
M -97.5812,29.1 L -97.5812,27.85 L -97.6312,27.8 L -97.6812,27.85 L -97.6812,29.1 L -97.6312,29.15
 z
M -65.0375,29.1 L -65.0375,27.85 L -65.0875,27.8 L -65.1375,27.85 L -65.1375,29.1 L -65.0875,29.15
 z
M 65.1375,29.1 L 65.1375,27.85 L 65.0875,27.8 L 65.0375,27.85 L 65.0375,29.1 L 65.0875,29.15
 z
M -32.4937,29.1 L -32.4937,27.85 L -32.5437,27.8 L -32.5937,27.85 L -32.5937,29.1 L -32.5437,29.15
 z
M 0.0499878,29.1 L 0.0499878,27.85 L 0,27.8 L -0.0499878,27.85 L -0.0499878,29.1 L 0,29.15
 z
M -32.4937,34.1 L -32.4937,30.35 L -32.5437,30.3 L -32.5937,30.35 L -32.5937,34.1 L -32.5437,34.15
 z
M 0.0499878,34.1 L 0.0499878,30.35 L 0,30.3 L -0.0499878,30.35 L -0.0499878,34.1 L 0,34.15
 z
M -65.0375,34.1 L -65.0375,30.35 L -65.0875,30.3 L -65.1375,30.35 L -65.1375,34.1 L -65.0875,34.15
 z
M 65.1375,34.1 L 65.1375,30.35 L 65.0875,30.3 L 65.0375,30.35 L 65.0375,34.1 L 65.0875,34.15
 z
M 97.6812,34.1 L 97.6812,30.35 L 97.6312,30.3 L 97.5812,30.35 L 97.5812,34.1 L 97.6312,34.15
 z
M 32.5937,34.1 L 32.5937,30.35 L 32.5437,30.3 L 32.4937,30.35 L 32.4937,34.1 L 32.5437,34.15
 z
M -97.5812,34.1 L -97.5812,30.35 L -97.6312,30.3 L -97.6812,30.35 L -97.6812,34.1 L -97.6312,34.15
 z
M -32.4937,36.6 L -32.4937,35.35 L -32.5437,35.3 L -32.5937,35.35 L -32.5937,36.6 L -32.5437,36.65
 z
M -97.5812,36.6 L -97.5812,35.35 L -97.6312,35.3 L -97.6812,35.35 L -97.6812,36.6 L -97.6312,36.65
 z
M -65.0375,36.6 L -65.0375,35.35 L -65.0875,35.3 L -65.1375,35.35 L -65.1375,36.6 L -65.0875,36.65
 z
M 65.1375,36.6 L 65.1375,35.35 L 65.0875,35.3 L 65.0375,35.35 L 65.0375,36.6 L 65.0875,36.65
 z
M 0.0499878,36.6 L 0.0499878,35.35 L 0,35.3 L -0.0499878,35.35 L -0.0499878,36.6 L 0,36.65
 z
M 32.5937,36.6 L 32.5937,35.35 L 32.5437,35.3 L 32.4937,35.35 L 32.4937,36.6 L 32.5437,36.65
 z
M 97.6812,36.6 L 97.6812,35.35 L 97.6312,35.3 L 97.5812,35.35 L 97.5812,36.6 L 97.6312,36.65
 z
M 0.0499878,41.6 L 0.0499878,37.85 L 0,37.8 L -0.0499878,37.85 L -0.0499878,41.6 L 0,41.65
 z
M 32.5937,41.6 L 32.5937,37.85 L 32.5437,37.8 L 32.4937,37.85 L 32.4937,41.6 L 32.5437,41.65
 z
M -97.5812,41.6 L -97.5812,37.85 L -97.6312,37.8 L -97.6812,37.85 L -97.6812,41.6 L -97.6312,41.65
 z
M 65.1375,41.6 L 65.1375,37.85 L 65.0875,37.8 L 65.0375,37.85 L 65.0375,41.6 L 65.0875,41.65
 z
M -32.4937,41.6 L -32.4937,37.85 L -32.5437,37.8 L -32.5937,37.85 L -32.5937,41.6 L -32.5437,41.65
 z
M -65.0375,41.6 L -65.0375,37.85 L -65.0875,37.8 L -65.1375,37.85 L -65.1375,41.6 L -65.0875,41.65
 z
M 97.6812,41.6 L 97.6812,37.85 L 97.6312,37.8 L 97.5812,37.85 L 97.5812,41.6 L 97.6312,41.65
 z
M 0.0499878,44.1 L 0.0499878,42.85 L 0,42.8 L -0.0499878,42.85 L -0.0499878,44.1 L 0,44.15
 z
M 65.1375,44.1 L 65.1375,42.85 L 65.0875,42.8 L 65.0375,42.85 L 65.0375,44.1 L 65.0875,44.15
 z
M -65.0375,44.1 L -65.0375,42.85 L -65.0875,42.8 L -65.1375,42.85 L -65.1375,44.1 L -65.0875,44.15
 z
M 97.6812,44.1 L 97.6812,42.85 L 97.6312,42.8 L 97.5812,42.85 L 97.5812,44.1 L 97.6312,44.15
 z
M 32.5937,44.1 L 32.5937,42.85 L 32.5437,42.8 L 32.4937,42.85 L 32.4937,44.1 L 32.5437,44.15
 z
M -97.5812,44.1 L -97.5812,42.85 L -97.6312,42.8 L -97.6812,42.85 L -97.6812,44.1 L -97.6312,44.15
 z
M -32.4937,44.1 L -32.4937,42.85 L -32.5437,42.8 L -32.5937,42.85 L -32.5937,44.1 L -32.5437,44.15
 z
M 65.1375,49.1 L 65.1375,45.35 L 65.0875,45.3 L 65.0375,45.35 L 65.0375,49.1 L 65.0875,49.15
 z
M -97.5812,49.1 L -97.5812,45.35 L -97.6312,45.3 L -97.6812,45.35 L -97.6812,49.1 L -97.6312,49.15
 z
M 97.6812,49.1 L 97.6812,45.35 L 97.6312,45.3 L 97.5812,45.35 L 97.5812,49.1 L 97.6312,49.15
 z
M 32.5937,49.1 L 32.5937,45.35 L 32.5437,45.3 L 32.4937,45.35 L 32.4937,49.1 L 32.5437,49.15
 z
M 0.0499878,49.1 L 0.0499878,45.35 L 0,45.3 L -0.0499878,45.35 L -0.0499878,49.1 L 0,49.15
 z
M -32.4937,49.1 L -32.4937,45.35 L -32.5437,45.3 L -32.5937,45.35 L -32.5937,49.1 L -32.5437,49.15
 z
M -65.0375,49.1 L -65.0375,45.35 L -65.0875,45.3 L -65.1375,45.35 L -65.1375,49.1 L -65.0875,49.15
 z
M 65.1375,51.6 L 65.1375,50.85 L 68.575,50.85 L 68.625,50.8 L 68.575,50.75 L 65.1375,50.75
 L 65.1375,50.35 L 65.0875,50.3 L 65.0375,50.35 L 65.0375,50.75 L 64.825,50.75 L 64.775,50.8
 L 64.825,50.85 L 65.0375,50.85 L 65.0375,51.6 L 65.0875,51.65 z
M -32.4937,51.6 L -32.4937,50.85 L -28.925,50.85 L -28.875,50.8 L -28.925,50.75 L -32.4937,50.75
 L -32.4937,50.35 L -32.5437,50.3 L -32.5937,50.35 L -32.5937,50.75 L -32.675,50.75 L -32.725,50.8
 L -32.675,50.85 L -32.5937,50.85 L -32.5937,51.6 L -32.5437,51.65 z
M 0.0499878,51.6 L 0.0499878,50.85 L 1.075,50.85 L 1.125,50.8 L 1.075,50.75 L 0.0499878,50.75
 L 0.0499878,50.35 L 0,50.3 L -0.0499878,50.35 L -0.0499878,50.75 L -2.67499,50.75 L -2.72499,50.8
 L -2.67499,50.85 L -0.0499878,50.85 L -0.0499878,51.6 L 0,51.65 z
M 32.5937,51.6 L 32.5937,50.85 L 33.575,50.85 L 33.625,50.8 L 33.575,50.75 L 32.5937,50.75
 L 32.5937,50.35 L 32.5437,50.3 L 32.4937,50.35 L 32.4937,50.75 L 32.325,50.75 L 32.275,50.8
 L 32.325,50.85 L 32.4937,50.85 L 32.4937,51.6 L 32.5437,51.65 z
M -65.0375,51.6 L -65.0375,50.85 L -63.925,50.85 L -63.875,50.8 L -63.925,50.75 L -65.0375,50.75
 L -65.0375,50.35 L -65.0875,50.3 L -65.1375,50.35 L -65.1375,50.75 L -65.175,50.75 L -65.225,50.8
 L -65.175,50.85 L -65.1375,50.85 L -65.1375,51.6 L -65.0875,51.65 z
M 97.6812,51.6 L 97.6812,50.85 L 98.575,50.85 L 98.625,50.8 L 98.575,50.75 L 97.6812,50.75
 L 97.6812,50.35 L 97.6312,50.3 L 97.5812,50.35 L 97.5812,50.75 L 94.825,50.75 L 94.775,50.8
 L 94.825,50.85 L 97.5812,50.85 L 97.5812,51.6 L 97.6312,51.65 z
M -97.5812,51.6 L -97.5812,50.85 L -96.425,50.85 L -96.375,50.8 L -96.425,50.75 L -97.5812,50.75
 L -97.5812,50.35 L -97.6312,50.3 L -97.6812,50.35 L -97.6812,50.75 L -100.175,50.75 L -100.225,50.8
 L -100.175,50.85 L -97.6812,50.85 L -97.6812,51.6 L -97.6312,51.65 z
M 106.125,50.8 L 106.075,50.75 L 102.325,50.75 L 102.275,50.8 L 102.325,50.85 L 106.075,50.85
 z
M 123.625,50.8 L 123.575,50.75 L 122.325,50.75 L 122.275,50.8 L 122.325,50.85 L 123.575,50.85
 z
M 91.125,50.8 L 91.075,50.75 L 87.325,50.75 L 87.275,50.8 L 87.325,50.85 L 91.075,50.85
 z
M 113.625,50.8 L 113.575,50.75 L 109.825,50.75 L 109.775,50.8 L 109.825,50.85 L 113.575,50.85
 z
M 121.125,50.8 L 121.075,50.75 L 117.325,50.75 L 117.275,50.8 L 117.325,50.85 L 121.075,50.85
 z
M 18.625,50.8 L 18.575,50.75 L 17.325,50.75 L 17.275,50.8 L 17.325,50.85 L 18.575,50.85
 z
M 11.125,50.8 L 11.075,50.75 L 9.825,50.75 L 9.77499,50.8 L 9.825,50.85 L 11.075,50.85
 z
M 3.625,50.8 L 3.575,50.75 L 2.325,50.75 L 2.27499,50.8 L 2.325,50.85 L 3.575,50.85
 z
M 83.625,50.8 L 83.575,50.75 L 79.825,50.75 L 79.775,50.8 L 79.825,50.85 L 83.575,50.85
 z
M 46.125,50.8 L 46.075,50.75 L 42.325,50.75 L 42.275,50.8 L 42.325,50.85 L 46.075,50.85
 z
M -73.875,50.8 L -73.925,50.75 L -77.675,50.75 L -77.725,50.8 L -77.675,50.85 L -73.925,50.85
 z
M 8.625,50.8 L 8.575,50.75 L 4.825,50.75 L 4.77499,50.8 L 4.825,50.85 L 8.575,50.85
 z
M 93.625,50.8 L 93.575,50.75 L 92.325,50.75 L 92.275,50.8 L 92.325,50.85 L 93.575,50.85
 z
M 23.625,50.8 L 23.575,50.75 L 19.825,50.75 L 19.775,50.8 L 19.825,50.85 L 23.575,50.85
 z
M -103.875,50.8 L -103.925,50.75 L -107.675,50.75 L -107.725,50.8 L -107.675,50.85 L -103.925,50.85
 z
M -21.375,50.8 L -21.425,50.75 L -25.175,50.75 L -25.225,50.8 L -25.175,50.85 L -21.425,50.85
 z
M -88.875,50.8 L -88.925,50.75 L -92.675,50.75 L -92.725,50.8 L -92.675,50.85 L -88.925,50.85
 z
M 76.125,50.8 L 76.075,50.75 L 72.325,50.75 L 72.275,50.8 L 72.325,50.85 L 76.075,50.85
 z
M 61.125,50.8 L 61.075,50.75 L 57.325,50.75 L 57.275,50.8 L 57.325,50.85 L 61.075,50.85
 z
M 53.625,50.8 L 53.575,50.75 L 49.825,50.75 L 49.775,50.8 L 49.825,50.85 L 53.575,50.85
 z
M -81.375,50.8 L -81.425,50.75 L -85.175,50.75 L -85.225,50.8 L -85.175,50.85 L -81.425,50.85
 z
M 38.625,50.8 L 38.575,50.75 L 34.825,50.75 L 34.775,50.8 L 34.825,50.85 L 38.575,50.85
 z
M -93.875,50.8 L -93.925,50.75 L -95.175,50.75 L -95.225,50.8 L -95.175,50.85 L -93.925,50.85
 z
M 71.125,50.8 L 71.075,50.75 L 69.825,50.75 L 69.775,50.8 L 69.825,50.85 L 71.075,50.85
 z
M -43.875,50.8 L -43.925,50.75 L -47.675,50.75 L -47.725,50.8 L -47.675,50.85 L -43.925,50.85
 z
M 116.125,50.8 L 116.075,50.75 L 114.825,50.75 L 114.775,50.8 L 114.825,50.85 L 116.075,50.85
 z
M -118.875,50.8 L -118.925,50.75 L -122.675,50.75 L -122.725,50.8 L -122.675,50.85 L -118.925,50.85
 z
M -116.375,50.8 L -116.425,50.75 L -117.675,50.75 L -117.725,50.8 L -117.675,50.85 L -116.425,50.85
 z
M -111.375,50.8 L -111.425,50.75 L -115.175,50.75 L -115.225,50.8 L -115.175,50.85 L -111.425,50.85
 z
M -108.875,50.8 L -108.925,50.75 L -110.175,50.75 L -110.225,50.8 L -110.175,50.85 L -108.925,50.85
 z
M -86.375,50.8 L -86.425,50.75 L -87.675,50.75 L -87.725,50.8 L -87.675,50.85 L -86.425,50.85
 z
M 101.125,50.8 L 101.075,50.75 L 99.825,50.75 L 99.775,50.8 L 99.825,50.85 L 101.075,50.85
 z
M 86.125,50.8 L 86.075,50.75 L 84.825,50.75 L 84.775,50.8 L 84.825,50.85 L 86.075,50.85
 z
M -101.375,50.8 L -101.425,50.75 L -102.675,50.75 L -102.725,50.8 L -102.675,50.85 L -101.425,50.85
 z
M 56.125,50.8 L 56.075,50.75 L 54.825,50.75 L 54.775,50.8 L 54.825,50.85 L 56.075,50.85
 z
M -78.875,50.8 L -78.925,50.75 L -80.175,50.75 L -80.225,50.8 L -80.175,50.85 L -78.925,50.85
 z
M 78.625,50.8 L 78.575,50.75 L 77.325,50.75 L 77.275,50.8 L 77.325,50.85 L 78.575,50.85
 z
M 48.625,50.8 L 48.575,50.75 L 47.325,50.75 L 47.275,50.8 L 47.325,50.85 L 48.575,50.85
 z
M 108.625,50.8 L 108.575,50.75 L 107.325,50.75 L 107.275,50.8 L 107.325,50.85 L 108.575,50.85
 z
M 41.125,50.8 L 41.075,50.75 L 39.825,50.75 L 39.775,50.8 L 39.825,50.85 L 41.075,50.85
 z
M 26.125,50.8 L 26.075,50.75 L 24.825,50.75 L 24.775,50.8 L 24.825,50.85 L 26.075,50.85
 z
M -33.875,50.8 L -33.925,50.75 L -35.175,50.75 L -35.225,50.8 L -35.175,50.85 L -33.925,50.85
 z
M 16.125,50.8 L 16.075,50.75 L 12.325,50.75 L 12.275,50.8 L 12.325,50.85 L 16.075,50.85
 z
M -26.375,50.8 L -26.425,50.75 L -27.675,50.75 L -27.725,50.8 L -27.675,50.85 L -26.425,50.85
 z
M -3.87498,50.8 L -3.92499,50.75 L -5.17499,50.75 L -5.22499,50.8 L -5.17499,50.85 L -3.92499,50.85
 z
M -6.37498,50.8 L -6.42499,50.75 L -10.175,50.75 L -10.225,50.8 L -10.175,50.85 L -6.42499,50.85
 z
M -11.375,50.8 L -11.425,50.75 L -12.675,50.75 L -12.725,50.8 L -12.675,50.85 L -11.425,50.85
 z
M -13.875,50.8 L -13.925,50.75 L -17.675,50.75 L -17.725,50.8 L -17.675,50.85 L -13.925,50.85
 z
M -66.375,50.8 L -66.425,50.75 L -70.175,50.75 L -70.225,50.8 L -70.175,50.85 L -66.425,50.85
 z
M 31.125,50.8 L 31.075,50.75 L 27.325,50.75 L 27.275,50.8 L 27.325,50.85 L 31.075,50.85
 z
M -41.375,50.8 L -41.425,50.75 L -42.675,50.75 L -42.725,50.8 L -42.675,50.85 L -41.425,50.85
 z
M 63.625,50.8 L 63.575,50.75 L 62.325,50.75 L 62.275,50.8 L 62.325,50.85 L 63.575,50.85
 z
M -71.375,50.8 L -71.425,50.75 L -72.675,50.75 L -72.725,50.8 L -72.675,50.85 L -71.425,50.85
 z
M -36.375,50.8 L -36.425,50.75 L -40.175,50.75 L -40.225,50.8 L -40.175,50.85 L -36.425,50.85
 z
M -18.875,50.8 L -18.925,50.75 L -20.175,50.75 L -20.225,50.8 L -20.175,50.85 L -18.925,50.85
 z
M -48.875,50.8 L -48.925,50.75 L -50.175,50.75 L -50.225,50.8 L -50.175,50.85 L -48.925,50.85
 z
M -51.375,50.8 L -51.425,50.75 L -55.175,50.75 L -55.225,50.8 L -55.175,50.85 L -51.425,50.85
 z
M -56.375,50.8 L -56.425,50.75 L -57.675,50.75 L -57.725,50.8 L -57.675,50.85 L -56.425,50.85
 z
M -58.875,50.8 L -58.925,50.75 L -62.675,50.75 L -62.725,50.8 L -62.675,50.85 L -58.925,50.85
 z
M 65.1375,56.6 L 65.1375,52.85 L 65.0875,52.8 L 65.0375,52.85 L 65.0375,56.6 L 65.0875,56.65
 z
M 0.0499878,56.6 L 0.0499878,52.85 L 0,52.8 L -0.0499878,52.85 L -0.0499878,56.6 L 0,56.65
 z
M -32.4937,56.6 L -32.4937,52.85 L -32.5437,52.8 L -32.5937,52.85 L -32.5937,56.6 L -32.5437,56.65
 z
M 32.5937,56.6 L 32.5937,52.85 L 32.5437,52.8 L 32.4937,52.85 L 32.4937,56.6 L 32.5437,56.65
 z
M -97.5812,56.6 L -97.5812,52.85 L -97.6312,52.8 L -97.6812,52.85 L -97.6812,56.6 L -97.6312,56.65
 z
M 97.6812,56.6 L 97.6812,52.85 L 97.6312,52.8 L 97.5812,52.85 L 97.5812,56.6 L 97.6312,56.65
 z
M -65.0375,56.6 L -65.0375,52.85 L -65.0875,52.8 L -65.1375,52.85 L -65.1375,56.6 L -65.0875,56.65
 z
M -65.0375,59.1 L -65.0375,57.85 L -65.0875,57.8 L -65.1375,57.85 L -65.1375,59.1 L -65.0875,59.15
 z
M 97.6812,59.1 L 97.6812,57.85 L 97.6312,57.8 L 97.5812,57.85 L 97.5812,59.1 L 97.6312,59.15
 z
M 0.0499878,59.1 L 0.0499878,57.85 L 0,57.8 L -0.0499878,57.85 L -0.0499878,59.1 L 0,59.15
 z
M 65.1375,59.1 L 65.1375,57.85 L 65.0875,57.8 L 65.0375,57.85 L 65.0375,59.1 L 65.0875,59.15
 z
M 32.5937,59.1 L 32.5937,57.85 L 32.5437,57.8 L 32.4937,57.85 L 32.4937,59.1 L 32.5437,59.15
 z
M -32.4937,59.1 L -32.4937,57.85 L -32.5437,57.8 L -32.5937,57.85 L -32.5937,59.1 L -32.5437,59.15
 z
M -97.5812,59.1 L -97.5812,57.85 L -97.6312,57.8 L -97.6812,57.85 L -97.6812,59.1 L -97.6312,59.15
 z
M 65.1375,64.1 L 65.1375,60.35 L 65.0875,60.3 L 65.0375,60.35 L 65.0375,64.1 L 65.0875,64.15
 z
M 0.0499878,64.1 L 0.0499878,60.35 L 0,60.3 L -0.0499878,60.35 L -0.0499878,64.1 L 0,64.15
 z
M 32.5937,64.1 L 32.5937,60.35 L 32.5437,60.3 L 32.4937,60.35 L 32.4937,64.1 L 32.5437,64.15
 z
M -32.4937,64.1 L -32.4937,60.35 L -32.5437,60.3 L -32.5937,60.35 L -32.5937,64.1 L -32.5437,64.15
 z
M -97.5812,64.1 L -97.5812,60.35 L -97.6312,60.3 L -97.6812,60.35 L -97.6812,64.1 L -97.6312,64.15
 z
M -65.0375,64.1 L -65.0375,60.35 L -65.0875,60.3 L -65.1375,60.35 L -65.1375,64.1 L -65.0875,64.15
 z
M 97.6812,64.1 L 97.6812,60.35 L 97.6312,60.3 L 97.5812,60.35 L 97.5812,64.1 L 97.6312,64.15
 z
M 65.1375,66.6 L 65.1375,65.35 L 65.0875,65.3 L 65.0375,65.35 L 65.0375,66.6 L 65.0875,66.65
 z
M 97.6812,66.6 L 97.6812,65.35 L 97.6312,65.3 L 97.5812,65.35 L 97.5812,66.6 L 97.6312,66.65
 z
M -65.0375,66.6 L -65.0375,65.35 L -65.0875,65.3 L -65.1375,65.35 L -65.1375,66.6 L -65.0875,66.65
 z
M -32.4937,66.6 L -32.4937,65.35 L -32.5437,65.3 L -32.5937,65.35 L -32.5937,66.6 L -32.5437,66.65
 z
M 32.5937,66.6 L 32.5937,65.35 L 32.5437,65.3 L 32.4937,65.35 L 32.4937,66.6 L 32.5437,66.65
 z
M 0.0499878,66.6 L 0.0499878,65.35 L 0,65.3 L -0.0499878,65.35 L -0.0499878,66.6 L 0,66.65
 z
M -97.5812,66.6 L -97.5812,65.35 L -97.6312,65.3 L -97.6812,65.35 L -97.6812,66.6 L -97.6312,66.65
 z
M 0.0499878,71.6 L 0.0499878,67.85 L 0,67.8 L -0.0499878,67.85 L -0.0499878,71.6 L 0,71.65
 z
M 65.1375,71.6 L 65.1375,67.85 L 65.0875,67.8 L 65.0375,67.85 L 65.0375,71.6 L 65.0875,71.65
 z
M -65.0375,71.6 L -65.0375,67.85 L -65.0875,67.8 L -65.1375,67.85 L -65.1375,71.6 L -65.0875,71.65
 z
M -32.4937,71.6 L -32.4937,67.85 L -32.5437,67.8 L -32.5937,67.85 L -32.5937,71.6 L -32.5437,71.65
 z
M -97.5812,71.6 L -97.5812,67.85 L -97.6312,67.8 L -97.6812,67.85 L -97.6812,71.6 L -97.6312,71.65
 z
M 97.6812,71.6 L 97.6812,67.85 L 97.6312,67.8 L 97.5812,67.85 L 97.5812,71.6 L 97.6312,71.65
 z
M 32.5937,71.6 L 32.5937,67.85 L 32.5437,67.8 L 32.4937,67.85 L 32.4937,71.6 L 32.5437,71.65
 z
M 118.903,71.2 L 108.903,71.2 L 108.903,81.2 L 118.903,81.2 z
M 83.2728,80.8194 L 84.8949,79.7355 L 85.9788,78.1134 L 86.3594,76.2 L 85.9788,74.2866 L 84.8949,72.6645
 L 83.2728,71.5806 L 81.3594,71.2 L 79.446,71.5806 L 77.8238,72.6645 L 76.74,74.2866 L 76.3594,76.2
 L 76.74,78.1134 L 77.8238,79.7355 L 79.446,80.8194 L 81.3594,81.2 z
M -111.99,80.8194 L -110.368,79.7355 L -109.284,78.1134 L -108.903,76.2 L -109.284,74.2866 L -110.368,72.6645
 L -111.99,71.5806 L -113.903,71.2 L -115.817,71.5806 L -117.439,72.6645 L -118.523,74.2866 L -118.903,76.2
 L -118.523,78.1134 L -117.439,79.7355 L -115.817,80.8194 L -113.903,81.2 z
M 53.8156,71.2 L 43.8156,71.2 L 43.8156,81.2 L 53.8156,81.2 z
M 18.1853,80.8194 L 19.8074,79.7355 L 20.8913,78.1134 L 21.2719,76.2 L 20.8913,74.2866 L 19.8074,72.6645
 L 18.1853,71.5806 L 16.2719,71.2 L 14.3584,71.5806 L 12.7363,72.6645 L 11.6525,74.2866 L 11.2719,76.2
 L 11.6525,78.1134 L 12.7363,79.7355 L 14.3584,80.8194 L 16.2719,81.2 z
M -76.3594,71.2 L -86.3594,71.2 L -86.3594,81.2 L -76.3594,81.2 z
M -11.2719,71.2 L -21.2719,71.2 L -21.2719,81.2 L -11.2719,81.2 z
M -46.9022,80.8194 L -45.2801,79.7355 L -44.1962,78.1134 L -43.8156,76.2 L -44.1962,74.2866 L -45.2801,72.6645
 L -46.9022,71.5806 L -48.8156,71.2 L -50.729,71.5806 L -52.3512,72.6645 L -53.435,74.2866 L -53.8156,76.2
 L -53.435,78.1134 L -52.3512,79.7355 L -50.729,80.8194 L -48.8156,81.2 z
M 32.5937,74.1 L 32.5937,72.85 L 32.5437,72.8 L 32.4937,72.85 L 32.4937,74.1 L 32.5437,74.15
 z
M -65.0375,74.1 L -65.0375,72.85 L -65.0875,72.8 L -65.1375,72.85 L -65.1375,74.1 L -65.0875,74.15
 z
M 65.1375,74.1 L 65.1375,72.85 L 65.0875,72.8 L 65.0375,72.85 L 65.0375,74.1 L 65.0875,74.15
 z
M 97.6812,74.1 L 97.6812,72.85 L 97.6312,72.8 L 97.5812,72.85 L 97.5812,74.1 L 97.6312,74.15
 z
M -97.5812,74.1 L -97.5812,72.85 L -97.6312,72.8 L -97.6812,72.85 L -97.6812,74.1 L -97.6312,74.15
 z
M 0.0499878,74.1 L 0.0499878,72.85 L 0,72.8 L -0.0499878,72.85 L -0.0499878,74.1 L 0,74.15
 z
M -32.4937,74.1 L -32.4937,72.85 L -32.5437,72.8 L -32.5937,72.85 L -32.5937,74.1 L -32.5437,74.15
 z
M 0.0499878,79.1 L 0.0499878,75.35 L 0,75.3 L -0.0499878,75.35 L -0.0499878,79.1 L 0,79.15
 z
M -97.5812,79.1 L -97.5812,75.35 L -97.6312,75.3 L -97.6812,75.35 L -97.6812,79.1 L -97.6312,79.15
 z
M 97.6812,79.1 L 97.6812,75.35 L 97.6312,75.3 L 97.5812,75.35 L 97.5812,79.1 L 97.6312,79.15
 z
M 65.1375,79.1 L 65.1375,75.35 L 65.0875,75.3 L 65.0375,75.35 L 65.0375,79.1 L 65.0875,79.15
 z
M 32.5937,79.1 L 32.5937,75.35 L 32.5437,75.3 L 32.4937,75.35 L 32.4937,79.1 L 32.5437,79.15
 z
M -65.0375,79.1 L -65.0375,75.35 L -65.0875,75.3 L -65.1375,75.35 L -65.1375,79.1 L -65.0875,79.15
 z
M -32.4937,79.1 L -32.4937,75.35 L -32.5437,75.3 L -32.5937,75.35 L -32.5937,79.1 L -32.5437,79.15
 z
M 65.1375,81.6 L 65.1375,80.35 L 65.0875,80.3 L 65.0375,80.35 L 65.0375,81.6 L 65.0875,81.65
 z
M -97.5812,81.6 L -97.5812,80.35 L -97.6312,80.3 L -97.6812,80.35 L -97.6812,81.6 L -97.6312,81.65
 z
M -32.4937,81.6 L -32.4937,80.35 L -32.5437,80.3 L -32.5937,80.35 L -32.5937,81.6 L -32.5437,81.65
 z
M 32.5937,81.6 L 32.5937,80.35 L 32.5437,80.3 L 32.4937,80.35 L 32.4937,81.6 L 32.5437,81.65
 z
M 0.0499878,81.6 L 0.0499878,80.35 L 0,80.3 L -0.0499878,80.35 L -0.0499878,81.6 L 0,81.65
 z
M 97.6812,81.6 L 97.6812,80.35 L 97.6312,80.3 L 97.5812,80.35 L 97.5812,81.6 L 97.6312,81.65
 z
M -65.0375,81.6 L -65.0375,80.35 L -65.0875,80.3 L -65.1375,80.35 L -65.1375,81.6 L -65.0875,81.65
 z
M 65.1375,86.6 L 65.1375,82.85 L 65.0875,82.8 L 65.0375,82.85 L 65.0375,86.6 L 65.0875,86.65
 z
M 0.0499878,86.6 L 0.0499878,82.85 L 0,82.8 L -0.0499878,82.85 L -0.0499878,86.6 L 0,86.65
 z
M 97.6812,86.6 L 97.6812,82.85 L 97.6312,82.8 L 97.5812,82.85 L 97.5812,86.6 L 97.6312,86.65
 z
M -65.0375,86.6 L -65.0375,82.85 L -65.0875,82.8 L -65.1375,82.85 L -65.1375,86.6 L -65.0875,86.65
 z
M 32.5937,86.6 L 32.5937,82.85 L 32.5437,82.8 L 32.4937,82.85 L 32.4937,86.6 L 32.5437,86.65
 z
M -97.5812,86.6 L -97.5812,82.85 L -97.6312,82.8 L -97.6812,82.85 L -97.6812,86.6 L -97.6312,86.65
 z
M -32.4937,86.6 L -32.4937,82.85 L -32.5437,82.8 L -32.5937,82.85 L -32.5937,86.6 L -32.5437,86.65
 z
M 0.0499878,89.1 L 0.0499878,87.85 L 0,87.8 L -0.0499878,87.85 L -0.0499878,89.1 L 0,89.15
 z
M 65.1375,89.1 L 65.1375,87.85 L 65.0875,87.8 L 65.0375,87.85 L 65.0375,89.1 L 65.0875,89.15
 z
M 97.6812,89.1 L 97.6812,87.85 L 97.6312,87.8 L 97.5812,87.85 L 97.5812,89.1 L 97.6312,89.15
 z
M -32.4937,89.1 L -32.4937,87.85 L -32.5437,87.8 L -32.5937,87.85 L -32.5937,89.1 L -32.5437,89.15
 z
M 32.5937,89.1 L 32.5937,87.85 L 32.5437,87.8 L 32.4937,87.85 L 32.4937,89.1 L 32.5437,89.15
 z
M -97.5812,89.1 L -97.5812,87.85 L -97.6312,87.8 L -97.6812,87.85 L -97.6812,89.1 L -97.6312,89.15
 z
M -65.0375,89.1 L -65.0375,87.85 L -65.0875,87.8 L -65.1375,87.85 L -65.1375,89.1 L -65.0875,89.15
 z
M -65.0375,94.1 L -65.0375,90.35 L -65.0875,90.3 L -65.1375,90.35 L -65.1375,94.1 L -65.0875,94.15
 z
M 97.6812,94.1 L 97.6812,90.35 L 97.6312,90.3 L 97.5812,90.35 L 97.5812,94.1 L 97.6312,94.15
 z
M -97.5812,94.1 L -97.5812,90.35 L -97.6312,90.3 L -97.6812,90.35 L -97.6812,94.1 L -97.6312,94.15
 z
M 32.5937,94.1 L 32.5937,90.35 L 32.5437,90.3 L 32.4937,90.35 L 32.4937,94.1 L 32.5437,94.15
 z
M -32.4937,94.1 L -32.4937,90.35 L -32.5437,90.3 L -32.5937,90.35 L -32.5937,94.1 L -32.5437,94.15
 z
M 65.1375,94.1 L 65.1375,90.35 L 65.0875,90.3 L 65.0375,90.35 L 65.0375,94.1 L 65.0875,94.15
 z
M -2.10416,-96.3894 L -0.299988,-96.3894 L -0.299988,-94.5852 z
M 0.299988,-96.3894 L 2.10416,-96.3894 L 0.299988,-94.5852 z
M -129.375,-0.399994 L -129.375,-50.4 L -125.812,-50.4 L -125.812,-0.399994 z
M -127.545,-23.9838 L -127.351,-24.0254 L -127.185,-24.0936 L -127.048,-24.1869 L -126.941,-24.3048 L -126.863,-24.4463
 L -126.815,-24.6103 L -126.799,-24.7955 L -126.809,-24.9176 L -126.84,-25.0337 L -126.892,-25.1407 L -126.965,-25.2355
 L -127.058,-25.317 L -127.174,-25.3839 L -127.313,-25.4331 L -127.473,-25.4616 L -127.473,-25.4697 L -127.327,-25.5095
 L -127.204,-25.5645 L -127.102,-25.6332 L -127.019,-25.7139 L -126.956,-25.8062 L -126.912,-25.9097 L -126.886,-26.0227
 L -126.878,-26.1438 L -126.891,-26.2947 L -126.929,-26.4365 L -126.995,-26.5649 L -127.09,-26.6757 L -127.214,-26.767
 L -127.37,-26.8372 L -127.558,-26.8819 L -127.78,-26.8967 L -127.955,-26.8854 L -128.119,-26.8513 L -128.27,-26.7943
 L -128.403,-26.714 L -128.516,-26.6104 L -128.608,-26.4829 L -128.674,-26.3316 L -128.71,-26.156 L -128.345,-26.1277
 L -128.29,-26.3265 L -128.173,-26.4749 L -128.001,-26.5672 L -127.784,-26.598 L -127.552,-26.565 L -127.385,-26.4658
 L -127.285,-26.3096 L -127.251,-26.1055 L -127.266,-25.9713 L -127.311,-25.8633 L -127.378,-25.7782 L -127.462,-25.7129
 L -127.559,-25.666 L -127.665,-25.6362 L -127.774,-25.6203 L -127.879,-25.615 L -128.077,-25.615 L -128.077,-25.3001
 L -127.871,-25.3001 L -127.763,-25.2956 L -127.646,-25.282 L -127.528,-25.255 L -127.42,-25.2103 L -127.324,-25.1462
 L -127.246,-25.0609 L -127.194,-24.9497 L -127.176,-24.8076 L -127.216,-24.574 L -127.333,-24.4059 L -127.519,-24.3045
 L -127.764,-24.2707 L -127.903,-24.2798 L -128.022,-24.307 L -128.123,-24.3509 L -128.206,-24.41 L -128.273,-24.4832
 L -128.324,-24.5694 L -128.361,-24.6673 L -128.383,-24.7753 L -128.759,-24.741 L -128.731,-24.5959 L -128.682,-24.4554
 L -128.609,-24.3247 L -128.507,-24.2092 L -128.374,-24.1118 L -128.209,-24.0356 L -128.007,-23.9864 L -127.764,-23.97
 z
M 125.812,-0.399994 L 125.812,-50.4 L 129.375,-50.4 L 129.375,-0.399994 z
M 128.043,-23.9838 L 128.236,-24.0254 L 128.402,-24.0936 L 128.539,-24.1869 L 128.647,-24.3048 L 128.725,-24.4463
 L 128.773,-24.6103 L 128.788,-24.7955 L 128.778,-24.9176 L 128.747,-25.0337 L 128.695,-25.1407 L 128.623,-25.2355
 L 128.529,-25.317 L 128.413,-25.3839 L 128.275,-25.4331 L 128.114,-25.4616 L 128.114,-25.4697 L 128.26,-25.5095
 L 128.384,-25.5645 L 128.486,-25.6332 L 128.568,-25.7139 L 128.632,-25.8062 L 128.675,-25.9097 L 128.701,-26.0227
 L 128.71,-26.1438 L 128.697,-26.2947 L 128.658,-26.4365 L 128.592,-26.5649 L 128.498,-26.6757 L 128.373,-26.767
 L 128.217,-26.8372 L 128.029,-26.8819 L 127.807,-26.8967 L 127.633,-26.8854 L 127.468,-26.8513 L 127.318,-26.7943
 L 127.185,-26.714 L 127.072,-26.6104 L 126.98,-26.4829 L 126.914,-26.3316 L 126.877,-26.156 L 127.242,-26.1277
 L 127.298,-26.3265 L 127.415,-26.4749 L 127.586,-26.5672 L 127.803,-26.598 L 128.035,-26.565 L 128.202,-26.4658
 L 128.303,-26.3096 L 128.336,-26.1055 L 128.321,-25.9713 L 128.277,-25.8633 L 128.209,-25.7782 L 128.125,-25.7129
 L 128.029,-25.666 L 127.923,-25.6362 L 127.814,-25.6203 L 127.709,-25.615 L 127.511,-25.615 L 127.511,-25.3001
 L 127.717,-25.3001 L 127.824,-25.2956 L 127.942,-25.282 L 128.059,-25.255 L 128.168,-25.2103 L 128.263,-25.1462
 L 128.341,-25.0609 L 128.394,-24.9497 L 128.411,-24.8076 L 128.372,-24.574 L 128.255,-24.4059 L 128.069,-24.3045
 L 127.824,-24.2707 L 127.684,-24.2798 L 127.565,-24.307 L 127.465,-24.3509 L 127.382,-24.41 L 127.315,-24.4832
 L 127.264,-24.5694 L 127.227,-24.6673 L 127.204,-24.7753 L 126.829,-24.741 L 126.857,-24.5959 L 126.905,-24.4554
 L 126.978,-24.3247 L 127.081,-24.2092 L 127.214,-24.1118 L 127.379,-24.0356 L 127.58,-23.9864 L 127.824,-23.97
 z
M 123.16,-0.299988 L 124.964,-2.10416 L 124.964,-0.299988 z
M -124.964,-0.299988 L -124.964,-2.10416 L -123.16,-0.299988 z
M -124.964,0.299988 L -123.16,0.299988 L -124.964,2.10416 z
M 123.16,0.299988 L 124.964,0.299988 L 124.964,2.10416 z
M -129.375,50.4 L -129.375,0.399994 L -125.812,0.399994 L -125.812,50.4 z
M -126.825,26.5013 L -128.309,26.5013 L -128.251,26.3885 L -128.174,26.2803 L -128.081,26.1751 L -127.977,26.0714
 L -127.863,25.9687 L -127.742,25.8665 L -127.617,25.7641 L -127.493,25.6606 L -127.373,25.5554 L -127.257,25.4477
 L -127.151,25.3367 L -127.058,25.2216 L -126.981,25.1015 L -126.921,24.9753 L -126.883,24.8426 L -126.87,24.7029
 L -126.885,24.5242 L -126.93,24.3678 L -127.004,24.2341 L -127.105,24.1236 L -127.232,24.0368 L -127.384,23.9742
 L -127.562,23.9363 L -127.762,23.9237 L -127.965,23.9384 L -128.142,23.9823 L -128.295,24.0516 L -128.424,24.1427
 L -128.528,24.253 L -128.608,24.3799 L -128.662,24.5197 L -128.692,24.6685 L -128.321,24.7029 L -128.298,24.5911
 L -128.259,24.4939 L -128.205,24.4114 L -128.137,24.3436 L -128.057,24.2906 L -127.967,24.2527 L -127.868,24.23
 L -127.762,24.2224 L -127.65,24.2303 L -127.549,24.2538 L -127.46,24.2929 L -127.384,24.3476 L -127.324,24.4175
 L -127.279,24.502 L -127.252,24.6012 L -127.243,24.715 L -127.263,24.8795 L -127.323,25.0258 L -127.415,25.16
 L -127.532,25.2882 L -127.669,25.4133 L -127.821,25.5385 L -127.983,25.6689 L -128.145,25.81 L -128.305,25.9649
 L -128.457,26.137 L -128.594,26.3315 L -128.708,26.5538 L -128.708,26.8101 L -126.825,26.8101 z
M 125.812,50.4 L 125.812,0.399994 L 129.375,0.399994 L 129.375,50.4 z
M 128.762,26.5013 L 127.279,26.5013 L 127.337,26.3885 L 127.414,26.2803 L 127.507,26.1751 L 127.611,26.0714
 L 127.725,25.9687 L 127.846,25.8665 L 127.97,25.7641 L 128.094,25.6606 L 128.215,25.5554 L 128.33,25.4477
 L 128.436,25.3367 L 128.529,25.2216 L 128.606,25.1015 L 128.666,24.9753 L 128.705,24.8426 L 128.718,24.7029
 L 128.703,24.5242 L 128.657,24.3678 L 128.583,24.2341 L 128.483,24.1236 L 128.356,24.0368 L 128.203,23.9742
 L 128.026,23.9363 L 127.826,23.9237 L 127.623,23.9384 L 127.445,23.9823 L 127.293,24.0516 L 127.164,24.1427
 L 127.059,24.253 L 126.98,24.3799 L 126.925,24.5197 L 126.895,24.6685 L 127.267,24.7029 L 127.289,24.5911
 L 127.328,24.4939 L 127.382,24.4114 L 127.45,24.3436 L 127.53,24.2906 L 127.621,24.2527 L 127.72,24.23
 L 127.826,24.2224 L 127.937,24.2303 L 128.039,24.2538 L 128.128,24.2929 L 128.203,24.3476 L 128.264,24.4175
 L 128.308,24.502 L 128.335,24.6012 L 128.344,24.715 L 128.324,24.8795 L 128.265,25.0258 L 128.173,25.16
 L 128.056,25.2882 L 127.919,25.4133 L 127.766,25.5385 L 127.605,25.6689 L 127.442,25.81 L 127.282,25.9649
 L 127.13,26.137 L 126.993,26.3315 L 126.879,26.5538 L 126.879,26.8101 L 128.762,26.8101 z
M -129.375,100.8 L -129.375,51.2 L -125.812,51.2 L -125.812,96.8375 L -125.412,97.2375 L -98.0312,97.2375
 L -98.0312,100.8 z
M -126.819,77.2799 L -127.512,77.2799 L -127.512,74.7447 L -127.847,74.7447 L -128.519,75.2069 L -128.519,75.5501
 L -127.877,75.0919 L -127.877,77.2799 L -128.602,77.2799 L -128.602,77.5887 L -126.819,77.5887 z
M -114.636,99.2894 L -113.098,99.2894 L -113.098,100.607 L -112.713,100.607 L -112.713,97.7635 L -113.098,97.7635
 L -113.098,98.9665 L -114.636,98.9665 L -114.636,97.7635 L -115.022,97.7635 L -115.022,100.607 L -114.636,100.607
 z
M 98.0312,100.8 L 98.0312,97.2375 L 125.412,97.2375 L 125.812,96.8375 L 125.812,51.2 L 129.375,51.2
 L 129.375,100.8 z
M 128.768,77.2799 L 128.076,77.2799 L 128.076,74.7447 L 127.741,74.7447 L 127.069,75.2069 L 127.069,75.5501
 L 127.711,75.0919 L 127.711,77.2799 L 126.986,77.2799 L 126.986,77.5887 L 128.768,77.5887 z
M 113.291,99.7759 L 114.587,99.7759 L 114.912,100.607 L 115.306,100.607 L 114.163,97.7635 L 113.725,97.7635
 L 112.565,100.607 L 112.964,100.607 z
M 113.409,99.4751 L 113.772,98.5406 L 113.802,98.4593 L 113.831,98.3771 L 113.859,98.2979 L 113.884,98.2257
 L 113.905,98.1626 L 113.921,98.1107 L 113.933,98.0733 L 113.939,98.0541 L 113.945,98.073 L 113.957,98.1096
 L 113.973,98.1606 L 113.994,98.2227 L 114.018,98.2941 L 114.045,98.3731 L 114.075,98.4553 L 114.107,98.5365
 L 114.472,99.4751 z
M -2.10416,96.3894 L -0.299988,94.5852 L -0.299988,96.3894 z
M 0.299988,96.3894 L 0.299988,94.5852 L 2.10416,96.3894 z
M -97.2312,100.8 L -97.2312,97.2375 L -65.4875,97.2375 L -65.4875,100.8 z
M -81.0791,100.639 L -80.8828,100.61 L -80.7006,100.565 L -80.5336,100.505 L -80.3819,100.434 L -80.2459,100.351
 L -80.1261,100.261 L -80.0229,100.166 L -80.0229,99.1854 L -81.2279,99.1854 L -81.2279,99.5083 L -80.3782,99.5083
 L -80.3782,100.021 L -80.4438,100.077 L -80.5235,100.133 L -80.6171,100.186 L -80.7243,100.234 L -80.8452,100.275
 L -80.9797,100.308 L -81.1275,100.329 L -81.2885,100.336 L -81.5294,100.314 L -81.7396,100.25 L -81.9185,100.147
 L -82.0656,100.01 L -82.1806,99.8409 L -82.2634,99.6426 L -82.3134,99.4188 L -82.33,99.1733 L -82.3146,98.9286
 L -82.2685,98.707 L -82.191,98.5123 L -82.0818,98.3477 L -81.9402,98.2155 L -81.7659,98.1176 L -81.5582,98.0571
 L -81.3168,98.0369 L -81.149,98.0452 L -81.0009,98.0702 L -80.8709,98.1103 L -80.7576,98.1641 L -80.6605,98.2309
 L -80.579,98.3104 L -80.5106,98.401 L -80.4528,98.5012 L -80.0855,98.3922 L -80.1637,98.2445 L -80.2571,98.1126
 L -80.3691,97.9978 L -80.5033,97.9016 L -80.6618,97.825 L -80.8465,97.7684 L -81.0604,97.7336 L -81.3067,97.722
 L -81.6346,97.7475 L -81.9203,97.824 L -82.1632,97.9476 L -82.3633,98.1146 L -82.5198,98.3233 L -82.6318,98.5718
 L -82.6991,98.8564 L -82.7216,99.1733 L -82.6991,99.4816 L -82.6318,99.7647 L -82.5198,100.017 L -82.3633,100.232
 L -82.1622,100.407 L -81.9162,100.539 L -81.6251,100.621 L -81.2885,100.649 z
M -64.6875,100.8 L -64.6875,97.2375 L -32.9437,97.2375 L -32.9437,100.8 z
M -49.324,99.4549 L -47.7375,99.4549 L -47.7375,99.136 L -49.324,99.136 L -49.324,98.0784 L -47.6891,98.0784
 L -47.6891,97.7635 L -49.7095,97.7635 L -49.7095,100.607 L -49.324,100.607 z
M -32.1437,100.8 L -32.1437,97.2375 L -0.399994,97.2375 L -0.399994,100.8 z
M -15.0387,100.293 L -16.8936,100.293 L -16.8936,99.3015 L -15.2425,99.3015 L -15.2425,98.9907 L -16.8936,98.9907
 L -16.8936,98.0784 L -15.1214,98.0784 L -15.1214,97.7635 L -17.2791,97.7635 L -17.2791,100.607 L -15.0387,100.607
 z
M 0.399994,100.8 L 0.399994,97.2375 L 32.1437,97.2375 L 32.1437,100.8 z
M 16.4998,100.584 L 16.7629,100.514 L 16.9993,100.398 L 17.2019,100.237 L 17.368,100.032 L 17.4946,99.783
 L 17.5749,99.4905 L 17.6016,99.1562 L 17.5736,98.8181 L 17.4896,98.5305 L 17.3556,98.291 L 17.1777,98.0975
 L 16.9585,97.9492 L 16.7004,97.8452 L 16.41,97.7839 L 16.0938,97.7635 L 15.1532,97.7635 L 15.1532,100.607
 L 16.2169,100.607 z
M 15.5387,100.299 L 15.5387,98.0723 L 16.0857,98.0723 L 16.3239,98.0877 L 16.5419,98.1339 L 16.7352,98.2128
 L 16.8992,98.3266 L 17.0319,98.4763 L 17.1313,98.6627 L 17.1934,98.8885 L 17.2141,99.1562 L 17.1944,99.4216
 L 17.1353,99.6528 L 17.0415,99.8491 L 16.9174,100.01 L 16.7652,100.136 L 16.5873,100.226 L 16.3882,100.281
 L 16.1725,100.299 z
M 32.9437,100.8 L 32.9437,97.2375 L 64.6875,97.2375 L 64.6875,100.8 z
M 49.1813,100.634 L 49.3854,100.591 L 49.5681,100.523 L 49.7305,100.433 L 49.8731,100.323 L 49.996,100.195
 L 50.0999,100.052 L 50.1857,99.8979 L 49.8708,99.7405 L 49.7992,99.8659 L 49.7174,99.9797 L 49.6248,100.08
 L 49.5206,100.166 L 49.4041,100.236 L 49.2744,100.288 L 49.1308,100.321 L 48.9726,100.332 L 48.7483,100.311
 L 48.5477,100.247 L 48.3736,100.145 L 48.2288,100.009 L 48.1138,99.8407 L 48.029,99.6426 L 47.9768,99.4188
 L 47.9594,99.1733 L 47.9755,98.9286 L 48.0239,98.707 L 48.1039,98.5123 L 48.2147,98.3477 L 48.356,98.2155
 L 48.5275,98.1176 L 48.7281,98.0571 L 48.9565,98.0369 L 49.1243,98.0475 L 49.2724,98.0793 L 49.4018,98.1287
 L 49.5135,98.1923 L 49.6079,98.2683 L 49.6851,98.3548 L 49.7467,98.4489 L 49.7941,98.5476 L 50.1595,98.4265
 L 49.9758,98.1202 L 49.7114,97.8996 L 49.3692,97.7664 L 48.9524,97.722 L 48.6396,97.7475 L 48.3631,97.824
 L 48.1251,97.9476 L 47.9281,98.1146 L 47.7726,98.3233 L 47.6596,98.5718 L 47.5907,98.8564 L 47.5678,99.1733
 L 47.5895,99.4816 L 47.6546,99.7647 L 47.7633,100.017 L 47.916,100.232 L 48.1118,100.407 L 48.3499,100.539
 L 48.6308,100.621 L 48.9545,100.649 z
M 65.4875,100.8 L 65.4875,97.2375 L 97.2312,97.2375 L 97.2312,100.8 z
M 81.7115,100.596 L 81.9063,100.563 L 82.0844,100.506 L 82.2393,100.423 L 82.368,100.313 L 82.4674,100.175
 L 82.531,100.006 L 82.5522,99.8061 L 82.5406,99.6717 L 82.5058,99.5468 L 82.4488,99.434 L 82.3706,99.3359
 L 82.2709,99.2531 L 82.1495,99.1865 L 82.0075,99.1375 L 81.8457,99.1078 L 81.9727,99.0697 L 82.0829,99.0159
 L 82.1763,98.9483 L 82.2525,98.8686 L 82.3115,98.778 L 82.3534,98.6778 L 82.3784,98.5694 L 82.3867,98.4538
 L 82.3698,98.285 L 82.3191,98.1419 L 82.2361,98.0231 L 82.1223,97.927 L 81.979,97.8535 L 81.8074,97.8028
 L 81.6091,97.7733 L 81.3855,97.7635 L 80.3521,97.7635 L 80.3521,100.607 L 81.5066,100.607 z
M 80.7376,98.9725 L 80.7376,98.0723 L 81.3855,98.0723 L 81.649,98.097 L 81.8417,98.1712 L 81.9598,98.3029
 L 81.9992,98.5002 L 81.9911,98.6037 L 81.9669,98.696 L 81.9245,98.7765 L 81.8619,98.8444 L 81.7781,98.8989
 L 81.6722,98.9392 L 81.542,98.9642 L 81.3855,98.9725 z
M 80.7376,100.299 L 80.7376,99.2733 L 81.4562,99.2733 L 81.6098,99.2803 L 81.7479,99.3016 L 81.8687,99.3379
 L 81.9709,99.3904 L 82.0529,99.4595 L 82.1132,99.5458 L 82.1503,99.6507 L 82.1626,99.7759 L 82.15,99.9146
 L 82.1122,100.028 L 82.0519,100.119 L 81.9719,100.19 L 81.8735,100.241 L 81.7579,100.274 L 81.628,100.293
 L 81.4865,100.299 z
M -139.6,-52.725 L -139.6,-55.225 L -139.7,-55.325 L -139.8,-55.225 L -139.8,-52.725 L -139.7,-52.625
 z
M 139.8,-52.725 L 139.8,-55.225 L 139.7,-55.325 L 139.6,-55.225 L 139.6,-52.725 L 139.7,-52.625
 z
M 139.8,1.25 L 139.8,-1.25 L 139.7,-1.34999 L 139.6,-1.25 L 139.6,1.25 L 139.7,1.34999
 z
M -139.6,1.25 L -139.6,-1.25 L -139.7,-1.34999 L -139.8,-1.25 L -139.8,1.25 L -139.7,1.34999
 z
M -139.6,55.225 L -139.6,52.725 L -139.7,52.625 L -139.8,52.725 L -139.8,55.225 L -139.7,55.325
 z
M 139.8,55.225 L 139.8,52.725 L 139.7,52.625 L 139.6,52.725 L 139.6,55.225 L 139.7,55.325
 z
M -133.35,107.95 L -133.45,107.85 L -139.6,107.85 L -139.6,101.7 L -139.7,101.6 L -139.8,101.7
 L -139.8,107.95 L -139.7,108.05 L -133.45,108.05 z
M 139.8,107.95 L 139.8,101.7 L 139.7,101.6 L 139.6,101.7 L 139.6,107.85 L 133.45,107.85
 L 133.35,107.95 L 133.45,108.05 L 139.7,108.05 z
M 1.34999,107.95 L 1.25,107.85 L -1.25,107.85 L -1.34999,107.95 L -1.25,108.05 L 1.25,108.05
 z
M -68.5,107.95 L -68.6,107.85 L -71.1,107.85 L -71.2,107.95 L -71.1,108.05 L -68.6,108.05
 z
M 71.2,107.95 L 71.1,107.85 L 68.6,107.85 L 68.5,107.95 L 68.6,108.05 L 71.1,108.05
 z
" stroke="black" fill="lightgray" stroke-width="0.5"/>
</svg>
