<?xml version="1.0" standalone="no"?>
<!DOCTYPE svg PUBLIC "-//W3C//DTD SVG 1.1//EN" "http://www.w3.org/Graphics/SVG/1.1/DTD/svg11.dtd">
<svg width="146mm" height="95mm" viewBox="-19 -78 146 95" xmlns="http://www.w3.org/2000/svg" version="1.1">
<title>OpenSCAD Model</title>
<path d="
M -0.878281,-72.4826 L -0.722321,-72.516 L -0.579926,-72.5716 L -0.448441,-72.648 L -0.325241,-72.7441 L -0.210327,-72.8598
 L -0.103149,-72.9939 L -0.00312805,-73.1453 L 0.0897064,-73.3141 L 0.178436,-73.4988 L 0.266037,-73.6983 L 0.352509,-73.9125
 L 1.763,-77.5811 L 1.11876,-77.5811 L 0.399963,-75.4857 L 0.375473,-75.4138 L 0.347229,-75.3335 L 0.315201,-75.245
 L 0.281494,-75.1527 L 0.248138,-75.0611 L 0.215164,-74.9704 L 0.183517,-74.8828 L 0.154129,-74.8008 L 0.127014,-74.7246
 L 0.104218,-74.6592 L 0.0878296,-74.61 L 0.0778503,-74.5771 L 0.0695648,-74.6076 L 0.0537262,-74.6585 L 0.030365,-74.7297
 L 0.00193787,-74.8144 L -0.0291138,-74.9059 L -0.0628204,-75.0042 L -0.167984,-75.3094 L -0.200943,-75.4043 L -0.229752,-75.4857
 L -0.254425,-75.5535 L -1.02748,-77.5811 L -1.67848,-77.5811 L -0.223877,-73.9295 L -0.281525,-73.7837 L -0.403229,-73.5184
 L -0.53772,-73.306 L -0.685028,-73.1462 L -0.842865,-73.0351 L -1.009,-72.9684 L -1.18343,-72.9462 L -1.2245,-72.9467
 L -1.27084,-72.9484 L -1.32248,-72.9513 L -1.37483,-72.9552 L -1.42343,-72.9603 L -1.46828,-72.9665 L -1.46828,-72.5088
 L -1.39706,-72.4949 L -1.32812,-72.4847 L -1.26143,-72.4783 L -1.19398,-72.4745 L -1.12279,-72.4723 L -1.04782,-72.4715
 z
M 0.0999908,-68.75 L 0.0999908,-70 L 0,-70.1 L -0.0999908,-70 L -0.0999908,-68.75 L 0,-68.65
 z
M 52.9875,-69.4144 L 52.4752,-69.4963 L 52.0819,-67.0354 L 51.966,-67.1161 L 51.8557,-67.2104 L 51.7511,-67.3183
 L 51.6505,-67.4372 L 51.5524,-67.5645 L 51.4568,-67.7001 L 51.363,-67.8428 L 51.2705,-67.9909 L 51.1793,-68.1445
 L 51.0882,-68.3006 L 50.9963,-68.4561 L 50.9036,-68.6109 L 50.8091,-68.7637 L 50.7123,-68.9131 L 50.613,-69.0591
 L 50.5102,-69.1986 L 50.4027,-69.3285 L 50.2907,-69.4488 L 50.1732,-69.5584 L 50.0491,-69.6561 L 49.9186,-69.7418
 L 49.7807,-69.8125 L 49.6346,-69.865 L 49.4803,-69.8994 L 49.2769,-69.9205 L 49.0862,-69.9166 L 48.9084,-69.8878
 L 48.744,-69.8353 L 48.5935,-69.7604 L 48.457,-69.6629 L 48.3349,-69.5434 L 48.2276,-69.402 L 48.1352,-69.2388
 L 48.058,-69.0547 L 47.9967,-68.8504 L 47.9514,-68.6261 L 47.9255,-68.3951 L 47.9242,-68.1795 L 47.9476,-67.9795
 L 47.9926,-67.7947 L 48.0565,-67.6248 L 48.1391,-67.4699 L 48.2387,-67.3307 L 48.3537,-67.2082 L 48.4838,-67.1023
 L 48.6264,-67.0132 L 48.7785,-66.9408 L 48.9401,-66.8852 L 49.0955,-67.4921 L 48.9727,-67.5341 L 48.8626,-67.5866
 L 48.7653,-67.6496 L 48.6805,-67.7221 L 48.6082,-67.8029 L 48.5482,-67.8921 L 48.5007,-67.9884 L 48.4655,-68.0907
 L 48.4428,-68.1991 L 48.4322,-68.312 L 48.4336,-68.4279 L 48.4469,-68.5469 L 48.4727,-68.6716 L 48.5088,-68.7865
 L 48.5553,-68.8919 L 48.6118,-68.9864 L 48.6782,-69.069 L 48.7545,-69.1398 L 48.8403,-69.1978 L 48.935,-69.2422
 L 49.0385,-69.273 L 49.1508,-69.2894 L 49.2718,-69.2907 L 49.4014,-69.2768 L 49.5843,-69.2325 L 49.7491,-69.161
 L 49.8958,-69.0621 L 50.0298,-68.941 L 50.1565,-68.8022 L 50.2757,-68.646 L 50.3904,-68.4753 L 50.5031,-68.293
 L 50.614,-68.0992 L 50.7279,-67.8985 L 50.8493,-67.6953 L 50.9785,-67.4899 L 51.1182,-67.285 L 51.2714,-67.0837
 L 51.4382,-66.8859 L 51.6233,-66.6966 L 51.8316,-66.5209 L 52.063,-66.3586 L 52.4882,-66.2906 z
M 0.0999908,-66.25 L 0.0999908,-67.5 L 0,-67.6 L -0.0999908,-67.5 L -0.0999908,-66.25 L 0,-66.15
 z
M 52.1119,-63.9366 L 52.2259,-64.6498 L 48.8195,-66.5814 L 48.7172,-65.942 L 50.9493,-64.7405 L 50.999,-64.7133
 L 51.0554,-64.6831 L 51.1186,-64.6499 L 51.1858,-64.6154 L 51.2541,-64.581 L 51.3236,-64.5468 L 51.5291,-64.447
 L 51.5923,-64.4165 L 51.6481,-64.3898 L 51.6965,-64.367 L 51.6435,-64.3608 L 51.5823,-64.3539 L 51.513,-64.3465
 L 51.4386,-64.3384 L 51.3623,-64.3294 L 51.2838,-64.3196 L 51.2053,-64.3095 L 51.1288,-64.2994 L 51.0541,-64.2894
 L 50.9841,-64.2798 L 50.9214,-64.271 L 50.8661,-64.2628 L 48.3817,-63.8427 L 48.2789,-63.1999 z
M 0.0999908,-63.75 L 0.0999908,-65 L 0,-65.1 L -0.0999908,-65 L -0.0999908,-63.75 L 0,-63.65
 z
M 0.0999908,-61.25 L 0.0999908,-62.5 L 0,-62.6 L -0.0999908,-62.5 L -0.0999908,-61.25 L 0,-61.15
 z
M 48.321,-51.546 L 49.9531,-55.1979 L 49.9824,-55.2686 L 49.9531,-55.3393 L 49.8824,-55.3686 L 49.8117,-55.3393
 L 48.7149,-53.8979 L 49.9286,-61.4914 L 49.8286,-61.5914 L 49.7286,-61.4914 L 48.5183,-53.9194 L 47.9378,-55.5954
 L 47.9085,-55.6661 L 47.8378,-55.6954 L 47.7671,-55.6661 L 47.7378,-55.5954 L 48.1503,-51.6167 L 48.1796,-51.546
 L 48.2503,-51.5167 z
M 48.0232,-54.7714 L 48.4552,-53.5243 L 48.2716,-52.3757 z
M 48.6487,-53.4835 L 49.4572,-54.5462 L 48.4629,-52.3214 z
M 0.0999908,-58.75 L 0.0999908,-60 L 0,-60.1 L -0.0999908,-60 L -0.0999908,-58.75 L 0,-58.65
 z
M 0.0999908,-56.25 L 0.0999908,-57.5 L 0,-57.6 L -0.0999908,-57.5 L -0.0999908,-56.25 L 0,-56.15
 z
M 87.3492,-4.55836 L 87.3972,-4.53847 L 87.468,-4.56776 L 87.4972,-4.63847 L 87.494,-4.64912 L 88.0697,-5.01015
 L 88.1197,-5.06015 L 88.0697,-5.11015 L 87.4682,-4.73296 L 86.3217,-8.46185 L 86.2925,-8.53256 L 86.2218,-8.56184
 L 86.151,-8.53256 L 86.1217,-8.46185 L 86.2465,-6.63304 L 56.8128,-53.5727 L 58.3812,-52.6773 L 58.4519,-52.648
 L 58.5226,-52.6773 L 58.5519,-52.748 L 58.5226,-52.8187 L 55.642,-55.4965 L 56.1947,-55.843 L 56.2447,-55.8931
 L 56.1947,-55.9431 L 55.5703,-55.5515 L 55.5222,-55.5714 L 55.4515,-55.5421 L 55.4222,-55.4714 L 55.4255,-55.4607
 L 50.8149,-52.5696 L 50.7649,-52.5196 L 50.8149,-52.4696 L 55.4513,-55.3769 L 56.5977,-51.648 L 56.627,-51.5773
 L 56.6977,-51.548 L 56.7684,-51.5773 L 56.7977,-51.648 L 56.6729,-53.4768 L 86.1067,-6.53712 L 84.5383,-7.43257
 L 84.4675,-7.46187 L 84.3968,-7.43257 L 84.3675,-7.36186 L 84.3968,-7.29115 L 87.2775,-4.61337 L 82.6899,-1.73671
 L 82.6399,-1.68671 L 82.6899,-1.63672 z
M 0.0999908,-53.75 L 0.0999908,-55 L 0,-55.1 L -0.0999908,-55 L -0.0999908,-53.75 L 0,-53.65
 z
M 0.0999908,-51.25 L 0.0999908,-52.5 L 0,-52.6 L -0.0999908,-52.5 L -0.0999908,-51.25 L 0,-51.15
 z
M 80.6667,-0 L 48.7917,-50.8329 L 48.125,-51.4996 L 47.4583,-50.8329 L -0.666656,-0 L 0,0.666656
 L 80,0.666656 z
M 1.29781,-0.666656 L 47.9896,-49.9857 L 69.2787,-16.0347 L 69.2544,-16.0189 L 68.7242,-15.6479 L 68.2069,-15.2593
 L 67.703,-14.8534 L 67.213,-14.4308 L 66.7375,-13.992 L 66.2771,-13.5374 L 66.1771,-13.4373 L 65.7323,-12.9675
 L 65.3035,-12.4829 L 64.8913,-11.9841 L 64.4962,-11.4718 L 64.1185,-10.9464 L 63.7587,-10.4086 L 63.4173,-9.85898
 L 63.0945,-9.29817 L 62.7909,-8.72682 L 62.5066,-8.14555 L 62.2421,-7.55505 L 61.9976,-6.95596 L 61.7735,-6.349
 L 61.5699,-5.73482 L 61.3871,-5.11412 L 61.2254,-4.48763 L 61.0848,-3.85603 L 60.9656,-3.22008 L 60.8679,-2.58046
 L 60.7918,-1.93791 L 60.7373,-1.29315 L 60.7056,-0.666656 z
M 60.2966,-11.5508 L 60.4656,-11.5947 L 60.6337,-11.6651 L 60.7994,-11.7639 L 60.9628,-11.8911 L 61.1219,-12.0522
 L 61.2747,-12.2525 L 61.4212,-12.4919 L 61.5333,-12.716 L 61.618,-12.9333 L 61.6753,-13.1438 L 61.7053,-13.3459
 L 61.7083,-13.538 L 61.6842,-13.7201 L 61.6335,-13.8919 L 61.5568,-14.0532 L 61.454,-14.204 L 61.3255,-14.3429
 L 61.1716,-14.4687 L 60.9924,-14.5814 L 60.868,-14.6414 L 60.7401,-14.6857 L 60.6087,-14.7143 L 60.4757,-14.7261
 L 60.3432,-14.72 L 60.211,-14.696 L 60.0799,-14.6531 L 59.9503,-14.5905 L 59.8223,-14.5081 L 59.6978,-14.4048
 L 59.5787,-14.2795 L 59.4651,-14.1322 L 59.4533,-14.1388 L 59.498,-14.3058 L 59.5245,-14.4636 L 59.533,-14.612
 L 59.5249,-14.7514 L 59.5018,-14.8824 L 59.4636,-15.0049 L 59.4109,-15.1189 L 59.344,-15.2244 L 59.2629,-15.3214
 L 59.1689,-15.41 L 59.0635,-15.4902 L 58.9466,-15.5623 L 58.7926,-15.6365 L 58.6353,-15.6906 L 58.4746,-15.7246
 L 58.3127,-15.736 L 58.152,-15.7222 L 57.9925,-15.6832 L 57.8348,-15.6176 L 57.6796,-15.5239 L 57.527,-15.4022
 L 57.3793,-15.2501 L 57.2391,-15.0655 L 57.1062,-14.8483 L 57.0181,-14.6715 L 56.9484,-14.493 L 56.8972,-14.313
 L 56.8661,-14.1337 L 56.8564,-13.9575 L 56.8684,-13.7845 L 56.9027,-13.6159 L 56.9604,-13.4529 L 57.0414,-13.2954
 L 57.1473,-13.146 L 57.2796,-13.0069 L 57.4383,-12.8782 L 57.777,-13.3922 L 57.5983,-13.5486 L 57.4749,-13.7273
 L 57.407,-13.9282 L 57.3952,-14.1442 L 57.4402,-14.368 L 57.542,-14.5995 L 57.6952,-14.8254 L 57.868,-14.9848
 L 58.0605,-15.0779 L 58.2664,-15.1071 L 58.4793,-15.0752 L 58.6993,-14.9822 L 58.8297,-14.8973 L 58.9323,-14.8025
 L 59.0069,-14.6976 L 59.0582,-14.5862 L 59.0908,-14.4712 L 59.1048,-14.3528 L 59.1021,-14.2327 L 59.0846,-14.1125
 L 59.0525,-13.9923 L 59.0104,-13.8753 L 58.9628,-13.7647 L 58.9097,-13.6606 L 58.7489,-13.3699 L 59.2117,-13.1138
 L 59.3791,-13.4164 L 59.4396,-13.5188 L 59.5095,-13.6241 L 59.5888,-13.7325 L 59.6769,-13.8361 L 59.7733,-13.9275
 L 59.878,-14.0065 L 59.9906,-14.0699 L 60.1108,-14.1144 L 60.2387,-14.1401 L 60.3742,-14.1394 L 60.5172,-14.1049
 L 60.6677,-14.0365 L 60.8932,-13.8783 L 61.0475,-13.6928 L 61.1308,-13.4799 L 61.1458,-13.2462 L 61.0952,-12.9984
 L 60.9792,-12.7365 L 60.8959,-12.6 L 60.8081,-12.4833 L 60.7157,-12.3863 L 60.6191,-12.3075 L 60.5189,-12.2455
 L 60.415,-12.2001 L 60.3077,-12.1705 L 60.1976,-12.1558 L 60.0846,-12.1562 L 59.9692,-12.1703 L 59.8522,-12.1969
 L 59.7335,-12.2361 L 59.4786,-11.6563 L 59.635,-11.6017 L 59.7958,-11.5618 L 59.9608,-11.5368 L 60.1284,-11.5315
 z
M 58.6802,-8.14029 L 58.9265,-8.25075 L 59.1456,-8.44598 L 59.3376,-8.72598 L 59.4123,-8.87346 L 59.47,-9.01521
 L 59.5109,-9.15128 L 59.5365,-9.28284 L 59.5487,-9.41107 L 59.5474,-9.53598 L 59.5332,-9.65775 L 59.5065,-9.77649
 L 59.4674,-9.89218 L 59.4178,-10.0064 L 59.3596,-10.1206 L 59.2928,-10.2349 L 59.3026,-10.2527 L 59.4099,-10.2049
 L 59.5116,-10.1681 L 59.6076,-10.142 L 59.6986,-10.1275 L 59.785,-10.1249 L 59.8668,-10.1343 L 59.9442,-10.1567
 L 60.0173,-10.1931 L 60.0861,-10.2435 L 60.151,-10.3082 L 60.2122,-10.3873 L 60.2698,-10.481 L 60.3092,-10.5554
 L 60.3444,-10.6283 L 60.3753,-10.6996 L 60.4028,-10.7712 L 60.4279,-10.8445 L 60.4505,-10.9196 L 60.1182,-11.1034
 L 60.1083,-11.0723 L 60.0974,-11.0409 L 60.0855,-11.0092 L 60.0724,-10.9777 L 60.0579,-10.947 L 60.0422,-10.9169
 L 59.9712,-10.8201 L 59.8873,-10.7632 L 59.7907,-10.746 L 59.6784,-10.7629 L 59.5477,-10.8081 L 59.3987,-10.8815
 L 58.0162,-11.6465 L 57.6748,-11.791 L 57.351,-11.8371 L 57.0446,-11.7849 L 56.7594,-11.6331 L 56.4989,-11.3807
 L 56.2633,-11.0275 L 56.1559,-10.8168 L 56.0746,-10.6196 L 56.0193,-10.436 L 55.9875,-10.2646 L 55.9768,-10.1039
 L 55.987,-9.95393 L 56.0169,-9.81451 L 56.0648,-9.68529 L 56.1309,-9.56625 L 56.2129,-9.45638 L 56.3083,-9.35451
 L 56.4172,-9.26068 L 56.7762,-9.7905 L 56.69,-9.85928 L 56.6201,-9.93022 L 56.5666,-10.0034 L 56.5279,-10.079
 L 56.5028,-10.1575 L 56.4914,-10.2387 L 56.4927,-10.3228 L 56.506,-10.4098 L 56.5311,-10.4996 L 56.5665,-10.5928
 L 56.6105,-10.6899 L 56.6632,-10.7908 L 56.7294,-10.8999 L 56.7988,-10.9939 L 56.8715,-11.0728 L 56.9482,-11.1364
 L 57.03,-11.1849 L 57.1166,-11.2181 L 57.2088,-11.2355 L 57.3075,-11.2364 L 57.4126,-11.2209 L 57.5249,-11.1889
 L 57.6453,-11.1404 L 57.7738,-11.0753 L 57.9489,-10.9785 L 57.5618,-10.251 L 57.4754,-10.0753 L 57.3987,-9.8969
 L 57.3316,-9.71574 L 57.2806,-9.53491 L 57.2522,-9.35751 L 57.2464,-9.18356 L 57.2661,-9.01422 L 57.3144,-8.85057
 L 57.3913,-8.69263 L 57.5026,-8.5439 L 57.654,-8.40782 L 57.8455,-8.28441 L 58.136,-8.15897 L 58.4143,-8.11093
 z
M 58.3276,-8.75497 L 58.1581,-8.82832 L 58.0278,-8.91185 L 57.9256,-9.00262 L 57.8515,-9.10063 L 57.8015,-9.20474
 L 57.7714,-9.31374 L 57.7612,-9.42764 L 57.7691,-9.54579 L 57.7931,-9.66748 L 57.8333,-9.79268 L 57.8853,-9.92047
 L 57.9446,-10.0498 L 58.0112,-10.1806 L 58.3227,-10.7717 L 58.5867,-10.6256 L 58.6893,-10.5598 L 58.7876,-10.4782
 L 58.8815,-10.381 L 58.9664,-10.2706 L 59.0375,-10.1492 L 59.0948,-10.017 L 59.1354,-9.87526 L 59.1564,-9.72539
 L 59.1579,-9.5674 L 59.1354,-9.40404 L 59.0842,-9.23799 L 59.0044,-9.06923 L 58.8996,-8.91727 L 58.778,-8.80954
 L 58.6396,-8.746 L 58.4881,-8.72754 z
M 60.9056,-0.666656 L 60.9373,-1.29315 L 60.9918,-1.93791 L 61.0679,-2.58046 L 61.1656,-3.22008 L 61.2848,-3.85603
 L 61.4254,-4.48763 L 61.5871,-5.11412 L 61.7699,-5.73482 L 61.9735,-6.349 L 62.1976,-6.95596 L 62.4421,-7.55505
 L 62.7066,-8.14555 L 62.9909,-8.72682 L 63.2945,-9.29817 L 63.6173,-9.85898 L 63.9587,-10.4086 L 64.3185,-10.9464
 L 64.6962,-11.4718 L 65.0913,-11.9841 L 65.5035,-12.4829 L 65.9323,-12.9675 L 66.3588,-13.418 L 66.7375,-13.792
 L 67.213,-14.2308 L 67.703,-14.6534 L 68.2069,-15.0593 L 68.7242,-15.4479 L 69.2544,-15.8189 L 69.3678,-15.8927
 L 78.9153,-0.666656 z
M 0.0999908,-48.75 L 0.0999908,-50 L 0,-50.1 L -0.0999908,-50 L -0.0999908,-48.75 L 0,-48.65
 z
M 0.0999908,-46.25 L 0.0999908,-47.5 L 0,-47.6 L -0.0999908,-47.5 L -0.0999908,-46.25 L 0,-46.15
 z
M 0.0999908,-43.75 L 0.0999908,-45 L 0,-45.1 L -0.0999908,-45 L -0.0999908,-43.75 L 0,-43.65
 z
M 0.0999908,-41.25 L 0.0999908,-42.5 L 0,-42.6 L -0.0999908,-42.5 L -0.0999908,-41.25 L 0,-41.15
 z
M 0.0999908,-38.75 L 0.0999908,-40 L 0,-40.1 L -0.0999908,-40 L -0.0999908,-38.75 L 0,-38.65
 z
M 0.0999908,-36.25 L 0.0999908,-37.5 L 0,-37.6 L -0.0999908,-37.5 L -0.0999908,-36.25 L 0,-36.15
 z
M 74.3973,-32.4401 L 74.5461,-32.4678 L 74.6935,-32.5209 L 74.8397,-32.5994 L 74.943,-32.6716 L 75.0308,-32.7486
 L 75.103,-32.8306 L 75.1617,-32.9165 L 75.2087,-33.0053 L 75.244,-33.0971 L 75.2687,-33.1915 L 75.2834,-33.2881
 L 75.2883,-33.387 L 75.2854,-33.4874 L 75.2766,-33.5887 L 75.262,-33.6907 L 75.2424,-33.7929 L 75.2186,-33.8947
 L 75.1906,-33.9961 L 75.1604,-34.0963 L 75.1301,-34.1947 L 75.0996,-34.2912 L 75.0539,-34.4311 L 75.0117,-34.5633
 L 74.9729,-34.688 L 74.9405,-34.8049 L 74.9175,-34.9138 L 74.9039,-35.0149 L 74.9013,-35.1085 L 74.9112,-35.1947
 L 74.9337,-35.2738 L 74.9717,-35.3454 L 75.0282,-35.4095 L 75.1032,-35.4661 L 75.2463,-35.5301 L 75.3884,-35.5418
 L 75.5294,-35.5013 L 75.6709,-35.4068 L 75.8144,-35.2566 L 75.9599,-35.0508 L 76.0121,-34.9623 L 76.058,-34.8731
 L 76.0978,-34.7831 L 76.1296,-34.6934 L 76.1516,-34.6051 L 76.1638,-34.5183 L 76.1656,-34.4332 L 76.1564,-34.35
 L 76.1362,-34.2688 L 76.1031,-34.1907 L 76.0554,-34.1168 L 75.9931,-34.047 L 76.3423,-33.6177 L 76.5352,-33.8478
 L 76.6484,-34.0969 L 76.6821,-34.3651 L 76.6413,-34.6536 L 76.5308,-34.9639 L 76.3506,-35.2958 L 76.1026,-35.6363
 L 75.8438,-35.8842 L 75.5741,-36.0395 L 75.2976,-36.1007 L 75.0184,-36.0663 L 74.7363,-35.9364 L 74.6036,-35.8389
 L 74.5002,-35.7314 L 74.4262,-35.6139 L 74.3762,-35.4885 L 74.3445,-35.3572 L 74.331,-35.22 L 74.3336,-35.0787
 L 74.3499,-34.9348 L 74.3797,-34.7883 L 74.4178,-34.641 L 74.4589,-34.4946 L 74.5029,-34.3493 L 74.5494,-34.1967
 L 74.5935,-34.053 L 74.6353,-33.918 L 74.6706,-33.7918 L 74.6954,-33.6746 L 74.7097,-33.5664 L 74.7117,-33.4664
 L 74.6999,-33.3735 L 74.6741,-33.288 L 74.6312,-33.21 L 74.5679,-33.1396 L 74.4843,-33.077 L 74.3934,-33.0286
 L 74.3046,-32.999 L 74.2179,-32.988 L 74.1333,-32.9938 L 74.0508,-33.0148 L 73.9704,-33.0509 L 73.892,-33.1011
 L 73.8155,-33.1645 L 73.741,-33.2412 L 73.6681,-33.3291 L 73.5965,-33.4263 L 73.5262,-33.5327 L 73.3966,-33.7681
 L 73.3153,-33.9839 L 73.2822,-34.1802 L 73.298,-34.3604 L 73.3631,-34.5279 L 73.4774,-34.6827 L 73.1019,-35.0836
 L 72.9896,-34.956 L 72.9005,-34.8248 L 72.8346,-34.6898 L 72.7905,-34.5513 L 72.7669,-34.4091 L 72.7639,-34.2633
 L 72.7803,-34.1133 L 72.8153,-33.9585 L 72.869,-33.7989 L 72.9402,-33.6339 L 73.0281,-33.4629 L 73.1326,-33.2859
 L 73.2609,-33.0966 L 73.3934,-32.931 L 73.5303,-32.7889 L 73.6703,-32.6706 L 73.8122,-32.5762 L 73.9561,-32.5056
 L 74.1017,-32.4593 L 74.2487,-32.4374 z
M 0.0999908,-33.75 L 0.0999908,-35 L 0,-35.1 L -0.0999908,-35 L -0.0999908,-33.75 L 0,-33.65
 z
M 76.382,-29.208 L 75.7642,-30.1933 L 79.3722,-32.4557 L 79.0732,-32.9326 L 77.8155,-33.4767 L 77.3272,-33.1704
 L 78.552,-32.6659 L 75.4381,-30.7133 L 74.7915,-31.7445 L 74.352,-31.4689 L 75.9425,-28.9324 z
M 0.0999908,-31.25 L 0.0999908,-32.5 L 0,-32.6 L -0.0999908,-32.5 L -0.0999908,-31.25 L 0,-31.15
 z
M 0.0999908,-28.75 L 0.0999908,-30 L 0,-30.1 L -0.0999908,-30 L -0.0999908,-28.75 L 0,-28.65
 z
M 0.0999908,-26.25 L 0.0999908,-27.5 L 0,-27.6 L -0.0999908,-27.5 L -0.0999908,-26.25 L 0,-26.15
 z
M 0.0999908,-23.75 L 0.0999908,-25 L 0,-25.1 L -0.0999908,-25 L -0.0999908,-23.75 L 0,-23.65
 z
M 0.0999908,-21.25 L 0.0999908,-22.5 L 0,-22.6 L -0.0999908,-22.5 L -0.0999908,-21.25 L 0,-21.15
 z
M 0.0999908,-18.75 L 0.0999908,-20 L 0,-20.1 L -0.0999908,-20 L -0.0999908,-18.75 L 0,-18.65
 z
M 0.0999908,-16.25 L 0.0999908,-17.5 L 0,-17.6 L -0.0999908,-17.5 L -0.0999908,-16.25 L 0,-16.15
 z
M 0.0999908,-13.75 L 0.0999908,-15 L 0,-15.1 L -0.0999908,-15 L -0.0999908,-13.75 L 0,-13.65
 z
M 0.0999908,-11.25 L 0.0999908,-12.5 L 0,-12.6 L -0.0999908,-12.5 L -0.0999908,-11.25 L 0,-11.15
 z
M 0.0999908,-8.75 L 0.0999908,-10 L 0,-10.1 L -0.0999908,-10 L -0.0999908,-8.75 L 0,-8.64999
 z
M 0.0999908,-6.25 L 0.0999908,-7.5 L 0,-7.59999 L -0.0999908,-7.5 L -0.0999908,-6.25 L 0,-6.14999
 z
M 0.0999908,-3.75 L 0.0999908,-5 L 0,-5.09999 L -0.0999908,-5 L -0.0999908,-3.75 L 0,-3.64999
 z
M 0.0999908,-1.25 L 0.0999908,-2.5 L 0,-2.59999 L -0.0999908,-2.5 L -0.0999908,-1.25 L 0,-1.14999
 z
M 125.034,0.286728 L 126.02,1.79218 L 126.702,1.79218 L 125.38,-0.099762 L 126.624,-1.87645 L 125.942,-1.87645
 L 125.034,-0.449005 L 124.118,-1.87645 L 123.444,-1.87645 L 124.688,-0.0930023 L 123.383,1.79218 L 124.04,1.79218
 z
M 90.1,-0 L 90,-0.0999908 L 88.75,-0.0999908 L 88.65,-0 L 88.75,0.0999908 L 90,0.0999908
 z
M 95.1,-0 L 95,-0.0999908 L 93.75,-0.0999908 L 93.65,-0 L 93.75,0.0999908 L 95,0.0999908
 z
M 100.1,-0 L 100,-0.0999908 L 98.75,-0.0999908 L 98.65,-0 L 98.75,0.0999908 L 100,0.0999908
 z
M 102.6,-0 L 102.5,-0.0999908 L 101.25,-0.0999908 L 101.15,-0 L 101.25,0.0999908 L 102.5,0.0999908
 z
M 105.1,-0 L 105,-0.0999908 L 103.75,-0.0999908 L 103.65,-0 L 103.75,0.0999908 L 105,0.0999908
 z
M 107.6,-0 L 107.5,-0.0999908 L 106.25,-0.0999908 L 106.15,-0 L 106.25,0.0999908 L 107.5,0.0999908
 z
M 110.1,-0 L 110,-0.0999908 L 108.75,-0.0999908 L 108.65,-0 L 108.75,0.0999908 L 110,0.0999908
 z
M 112.6,-0 L 112.5,-0.0999908 L 111.25,-0.0999908 L 111.15,-0 L 111.25,0.0999908 L 112.5,0.0999908
 z
M 115.1,-0 L 115,-0.0999908 L 113.75,-0.0999908 L 113.65,-0 L 113.75,0.0999908 L 115,0.0999908
 z
M 117.6,-0 L 117.5,-0.0999908 L 116.25,-0.0999908 L 116.15,-0 L 116.25,0.0999908 L 117.5,0.0999908
 z
M 120.1,-0 L 120,-0.0999908 L 118.75,-0.0999908 L 118.65,-0 L 118.75,0.0999908 L 120,0.0999908
 z
M 82.6,-0 L 82.5,-0.0999908 L 81.25,-0.0999908 L 81.15,-0 L 81.25,0.0999908 L 82.5,0.0999908
 z
M 85.1,-0 L 85,-0.0999908 L 83.75,-0.0999908 L 83.65,-0 L 83.75,0.0999908 L 85,0.0999908
 z
M 87.6,-0 L 87.5,-0.0999908 L 86.25,-0.0999908 L 86.15,-0 L 86.25,0.0999908 L 87.5,0.0999908
 z
M 92.6,-0 L 92.5,-0.0999908 L 91.25,-0.0999908 L 91.15,-0 L 91.25,0.0999908 L 92.5,0.0999908
 z
M 97.6,-0 L 97.5,-0.0999908 L 96.25,-0.0999908 L 96.15,-0 L 96.25,0.0999908 L 97.5,0.0999908
 z
M -2.85652,1.23331 L -4.0181,2.60916 L -4.04738,2.67987 L -4.0181,2.7506 L -3.94739,2.77988 L -3.87668,2.7506
 L -0.667084,0.363419 L -0.637802,0.292709 L -0.667084,0.222 L -0.737793,0.192719 L -4.71097,0.655258 L -4.78168,0.684555
 L -4.81096,0.755264 L -4.78168,0.825974 L -4.71097,0.85527 L -2.92448,1.06027 L -10.033,3.88052 L -10.133,3.98051
 L -10.033,4.08052 z
M -3.84576,0.754547 L -1.45128,0.475784 L -2.53348,0.905136 z
M -2.46434,1.07773 L -1.3813,0.648026 L -3.31711,2.0878 z
M 89.9269,4.46507 L 89.8269,4.36507 L 82.8661,1.20227 L 84.6685,1.08411 L 84.7392,1.05482 L 84.7685,0.984116
 L 84.7392,0.913406 L 84.6685,0.884109 L 80.7226,0.228348 L 80.6519,0.257629 L 80.6227,0.328339 L 80.6519,0.399048
 L 83.7413,2.93991 L 83.812,2.96919 L 83.8827,2.93991 L 83.912,2.8692 L 83.8827,2.79848 L 82.7895,1.36746
 L 89.8269,4.56506 z
M 81.4265,0.545319 L 83.8055,0.940689 L 82.4869,1.02715 z
M 81.3521,0.717209 L 82.4107,1.19821 L 83.2115,2.24649 z
M 79.95,8.84464 L 79.95,9.52499 L 80,9.575 L 80.05,9.52499 L 80.05,8.81053 L 80.0707,8.80196
 L 80.1,8.73125 L 80.0707,8.66054 L 80.05,8.65195 L 80.05,3.17499 L 80,3.125 L 79.95,3.17499
 L 79.95,8.61784 L 76.1363,7.59596 L 76.0656,7.62526 L 76.0363,7.69597 L 76.0656,7.76668 L 77.6789,8.63124
 L 2.32111,8.63124 L 3.9344,7.76668 L 3.9637,7.69597 L 3.9344,7.62526 L 3.86369,7.59596 L 0.0499878,8.61784
 L 0.0499878,3.17499 L 0,3.125 L -0.0499878,3.17499 L -0.0499878,8.65195 L -0.0707092,8.66054 L -0.0999908,8.73125
 L -0.0707092,8.80196 L -0.0499878,8.81053 L -0.0499878,9.52499 L 0,9.575 L 0.0499878,9.52499 L 0.0499878,8.84464
 L 3.86369,9.86652 L 3.9344,9.83723 L 3.9637,9.76653 L 3.9344,9.6958 L 2.32108,8.83124 L 77.6789,8.83124
 L 76.0656,9.6958 L 76.0363,9.76653 L 76.0656,9.83723 L 76.1363,9.86652 z
M -13.278,7.243 L -13.3854,4.71037 L -13.3874,4.65381 L -13.3903,4.58987 L -13.394,4.51859 L -13.3986,4.44319
 L -13.4039,4.3669 L -13.41,4.28966 L -13.4292,4.06203 L -13.4353,3.99211 L -13.4409,3.9305 L -13.446,3.87721
 L -13.4136,3.91966 L -13.3764,3.96877 L -13.3347,4.02451 L -13.2897,4.08427 L -13.243,4.14537 L -13.1945,4.20779
 L -13.1457,4.2701 L -13.0979,4.33078 L -13.0511,4.38986 L -13.0071,4.44514 L -12.9675,4.49448 L -12.9322,4.53784
 L -11.3019,6.459 L -10.6968,6.21892 L -13.2883,3.30026 L -13.9596,3.56659 L -13.8799,7.48181 z
M 95.0167,4.80844 L 94.4271,4.54054 L 92.6776,6.37483 L 92.6382,6.4155 L 92.5941,6.46193 L 92.5454,6.51408
 L 92.4943,6.56969 L 92.443,6.62646 L 92.3916,6.68442 L 92.2904,6.79977 L 92.241,6.85614 L 92.1948,6.90904
 L 92.1543,6.95581 L 92.1195,6.99646 L 92.1276,6.94365 L 92.1372,6.88284 L 92.1483,6.81406 L 92.1602,6.7402
 L 92.1718,6.66417 L 92.1831,6.58597 L 92.1941,6.50757 L 92.2047,6.43105 L 92.2148,6.35641 L 92.2241,6.28635
 L 92.2321,6.2236 L 92.2389,6.16812 L 92.4917,3.66112 L 91.899,3.39182 L 91.5945,7.28307 L 92.252,7.58182
 z
M -15.0881,9.15396 L -14.3249,8.01585 L -14.5374,7.48007 L -15.2558,8.59309 L -16.6112,5.17671 L -15.4798,4.72784
 L -15.6711,4.24565 L -18.454,5.34975 L -18.2627,5.83192 L -17.1817,5.40306 L -15.6112,9.36153 z
M 96.2469,9.19113 L 96.4265,9.15276 L 96.5938,9.08868 L 96.7486,8.99948 L 96.8907,8.88513 L 97.0191,8.74605
 L 97.1324,8.58276 L 97.2306,8.39525 L 97.2806,8.26654 L 97.3147,8.13556 L 97.3329,8.00229 L 97.3341,7.86877
 L 97.3176,7.73711 L 97.2833,7.60728 L 97.2302,7.47993 L 97.1576,7.3557 L 97.0653,7.23456 L 96.9525,7.11853
 L 96.8183,7.00972 L 96.6625,6.90813 L 96.6681,6.89578 L 96.8382,6.92714 L 96.9975,6.94121 L 97.1461,6.93796
 L 97.2845,6.91888 L 97.4133,6.88551 L 97.5324,6.83783 L 97.6419,6.77626 L 97.7417,6.70125 L 97.832,6.61278
 L 97.9129,6.51215 L 97.9846,6.40073 L 98.0472,6.27852 L 98.1091,6.11917 L 98.1506,5.95805 L 98.1718,5.79515
 L 98.1704,5.63292 L 98.1441,5.47382 L 98.0926,5.31786 L 98.0148,5.16579 L 97.9092,5.01848 L 97.7758,4.87593
 L 97.6125,4.74069 L 97.4174,4.61543 L 97.1905,4.50011 L 97.0073,4.42618 L 96.8239,4.37079 L 96.6404,4.33395
 L 96.4592,4.317 L 96.2828,4.3213 L 96.1113,4.34682 L 95.9459,4.39435 L 95.7879,4.46471 L 95.6373,4.55788
 L 95.4967,4.67523 L 95.3685,4.81807 L 95.2527,4.9864 L 95.7918,5.28352 L 95.9336,5.09303 L 96.102,4.95602
 L 96.297,4.87248 L 96.5114,4.84367 L 96.738,4.8709 L 96.9768,4.95416 L 97.214,5.08907 L 97.3866,5.24879
 L 97.4945,5.43338 L 97.5399,5.63629 L 97.5249,5.85106 L 97.4494,6.07768 L 97.3751,6.2144 L 97.2887,6.32407
 L 97.19,6.40671 L 97.083,6.46667 L 96.971,6.50826 L 96.854,6.53148 L 96.7341,6.53824 L 96.6129,6.53035
 L 96.4905,6.50783 L 96.3705,6.47505 L 96.2566,6.43629 L 96.1486,6.3916 L 95.8461,6.25414 L 95.6273,6.73569
 L 95.9422,6.87875 L 96.049,6.931 L 96.1595,6.99239 L 96.2737,7.06291 L 96.384,7.14259 L 96.4827,7.23148
 L 96.5697,7.32957 L 96.6418,7.43681 L 96.6956,7.55318 L 96.7313,7.67865 L 96.7413,7.81374 L 96.7181,7.95901
 L 96.6618,8.11444 L 96.5219,8.3517 L 96.3491,8.52023 L 96.1434,8.62003 L 95.9117,8.65334 L 95.6607,8.62247
 L 95.3904,8.5274 L 95.2478,8.45514 L 95.1245,8.3768 L 95.0206,8.29233 L 94.9344,8.20227 L 94.8646,8.10725
 L 94.8112,8.00723 L 94.7732,7.90268 L 94.75,7.79404 L 94.7414,7.68132 L 94.7464,7.56523 L 94.7637,7.44649
 L 94.7934,7.32507 L 94.1954,7.11667 L 94.1532,7.27689 L 94.1262,7.44025 L 94.1142,7.60674 L 94.1221,7.7742
 L 94.1546,7.94041 L 94.2117,8.10538 L 94.2951,8.26741 L 94.4066,8.42487 L 94.5464,8.57773 L 94.7195,8.72365
 L 94.9312,8.86017 L 95.1815,8.98734 L 95.4136,9.08147 L 95.6369,9.1488 L 95.8513,9.1893 L 96.0551,9.20332
 z
M 42.2621,15.594 L 42.6096,15.5064 L 42.8845,15.3604 L 43.0832,15.1586 L 43.2025,14.9038 L 43.2422,14.5958
 L 43.2301,14.4315 L 43.194,14.2869 L 43.1337,14.1618 L 43.054,14.0527 L 42.9596,13.9561 L 42.8506,13.8719
 L 42.7294,13.799 L 42.5989,13.7363 L 42.4589,13.6837 L 42.3139,13.6378 L 42.1681,13.5948 L 42.0215,13.5549
 L 41.8676,13.5133 L 41.7224,13.4743 L 41.5858,13.4379 L 41.4602,13.4008 L 41.3477,13.3596 L 41.2485,13.3142
 L 41.1626,13.2628 L 41.0903,13.2034 L 41.0315,13.1361 L 40.9882,13.0583 L 40.9622,12.9674 L 40.9535,12.8632
 L 40.9608,12.7606 L 40.9829,12.6696 L 41.0196,12.5903 L 41.0695,12.5217 L 41.1311,12.4629 L 41.2044,12.4139
 L 41.2886,12.3742 L 41.383,12.3431 L 41.4875,12.3207 L 41.6008,12.3056 L 41.7211,12.2966 L 41.8486,12.2936
 L 42.1169,12.3088 L 42.3429,12.3546 L 42.5268,12.4309 L 42.6711,12.54 L 42.7784,12.6841 L 42.8488,12.8632
 L 43.388,12.7581 L 43.3396,12.5952 L 43.2757,12.4499 L 43.1964,12.3224 L 43.1024,12.2114 L 42.9945,12.1159
 L 42.8726,12.0359 L 42.7368,11.9701 L 42.587,11.9176 L 42.4233,11.8782 L 42.2457,11.8509 L 42.0541,11.8345
 L 41.8486,11.8291 L 41.6201,11.8372 L 41.4093,11.8615 L 41.2163,11.902 L 41.0417,11.9577 L 40.8863,12.0278
 L 40.7501,12.1122 L 40.6335,12.2109 L 40.5368,12.3239 L 40.4602,12.4512 L 40.4046,12.5919 L 40.3713,12.7451
 L 40.3601,12.9107 L 40.3664,13.0365 L 40.385,13.1518 L 40.4161,13.2565 L 40.4577,13.3519 L 40.508,13.4389
 L 40.567,13.5176 L 40.6338,13.5886 L 40.7079,13.6525 L 40.789,13.7091 L 40.8757,13.76 L 40.9661,13.8064
 L 41.0603,13.8482 L 41.1573,13.8859 L 41.2562,13.9198 L 41.357,13.9499 L 41.458,13.9776 L 41.5574,14.0042
 L 41.6553,14.0296 L 41.7981,14.0652 L 41.9326,14.0996 L 42.0588,14.133 L 42.1751,14.1677 L 42.2796,14.2061
 L 42.3725,14.2483 L 42.4531,14.2957 L 42.5209,14.35 L 42.5759,14.411 L 42.6164,14.4813 L 42.6407,14.5632
 L 42.6488,14.6568 L 42.627,14.812 L 42.5614,14.9386 L 42.4522,15.0366 L 42.297,15.1063 L 42.0935,15.1481
 L 41.8418,15.162 L 41.7392,15.1592 L 41.6392,15.1507 L 41.5418,15.1366 L 41.4489,15.1159 L 41.3625,15.0876
 L 41.2824,15.0518 L 41.2093,15.0081 L 41.1438,14.9561 L 41.0857,14.8959 L 41.0371,14.8264 L 40.9998,14.7467
 L 40.9738,14.6568 L 40.4246,14.7247 L 40.5171,15.0102 L 40.668,15.2385 L 40.8772,15.4096 L 41.1434,15.5282
 L 41.4649,15.5994 L 41.8418,15.6232 z
M 38.4832,16.7345 L 38.6962,16.7018 L 38.8901,16.6471 L 39.0655,16.5735 L 39.2231,16.4836 L 39.3631,16.3776
 L 39.4848,16.2572 L 39.5876,16.1244 L 39.6716,15.9792 L 39.7372,15.8243 L 39.7846,15.6627 L 39.814,15.4943
 L 39.1901,15.4367 L 39.1681,15.5646 L 39.1337,15.6815 L 39.0867,15.7876 L 39.0285,15.8828 L 38.9601,15.9669
 L 38.8816,16.0402 L 38.794,16.1024 L 38.6985,16.1532 L 38.5951,16.1928 L 38.4853,16.221 L 38.3706,16.238
 L 38.2509,16.2437 L 38.1238,16.2378 L 38.0046,16.2203 L 37.8932,16.1911 L 37.791,16.1502 L 37.6989,16.0976
 L 37.6169,16.0334 L 37.5461,15.9579 L 37.4873,15.8714 L 37.4406,15.774 L 37.4067,15.6657 L 37.3863,15.5465
 L 37.3795,15.4163 L 37.3944,15.2287 L 37.4391,15.0547 L 37.5135,14.8942 L 37.612,14.7427 L 37.729,14.5958
 L 37.8644,14.4534 L 38.0149,14.3132 L 38.1771,14.1731 L 38.351,14.033 L 38.5312,13.8889 L 38.7127,13.7369
 L 38.8952,13.5769 L 39.0754,13.4066 L 39.2501,13.2236 L 39.419,13.0276 L 39.5767,12.815 L 39.7174,12.5816
 L 39.8411,12.3275 L 39.8411,11.8969 L 36.6777,11.8969 L 36.6777,12.4156 L 39.1698,12.4156 L 39.1084,12.5428
 L 39.0327,12.6666 L 38.9426,12.7869 L 38.8411,12.905 L 38.7309,13.022 L 38.612,13.1378 L 38.486,13.2529
 L 38.3544,13.3676 L 38.217,13.482 L 38.0773,13.5965 L 37.9383,13.7118 L 37.8,13.8278 L 37.664,13.9452
 L 37.5318,14.0644 L 37.4033,14.1855 L 37.2818,14.3091 L 37.1705,14.4357 L 37.0693,14.5653 L 36.9797,14.6987
 L 36.9028,14.8365 L 36.8388,14.979 L 36.7907,15.1263 L 36.7619,15.2788 L 36.7523,15.4367 L 36.7636,15.6409
 L 36.7975,15.8285 L 36.854,15.9995 L 36.9318,16.1536 L 37.0296,16.2904 L 37.1473,16.4098 L 37.2847,16.5115
 L 37.4412,16.5951 L 37.6169,16.6607 L 37.8109,16.7078 L 38.0223,16.736 L 38.2509,16.7455 z
" stroke="black" fill="lightgray" stroke-width="0.5"/>
</svg>
