solid OpenSCAD_Model
  facet normal 0.809017 -0.525731 -0.262866
    outer loop
      vertex 55.3213 -72.9661 -40.1933
      vertex 89.5117 -37.0162 -6.86583
      vertex 68.3809 -72.9661 0
    endloop
  endfacet
  facet normal 0.809017 -0.525732 -0.262864
    outer loop
      vertex 89.5117 -37.0162 -6.86583
      vertex 55.3213 -72.9661 -40.1933
      vertex 76.4522 -37.0162 -47.0591
    endloop
  endfacet
  facet normal 0.934173 -0.187591 -0.303529
    outer loop
      vertex 89.5117 -37.0162 -6.86583
      vertex 76.4522 -37.0162 -47.0591
      vertex 89.5117 -1.0662 -29.0841
    endloop
  endfacet
  facet normal 0.809018 -2.24036e-06 -0.587784
    outer loop
      vertex 89.5117 -1.0662 -29.0841
      vertex 55.3213 -14.7979 -76.1432
      vertex 68.3809 21.1521 -58.1683
    endloop
  endfacet
  facet normal 0.809017 2.30875e-06 -0.587785
    outer loop
      vertex 55.3213 -14.7979 -76.1432
      vertex 89.5117 -1.0662 -29.0841
      vertex 76.4522 -37.0162 -47.0591
    endloop
  endfacet
  facet normal 0.525731 -0.447214 -0.723606
    outer loop
      vertex 21.1309 -37.0162 -87.2524
      vertex 76.4522 -37.0162 -47.0591
      vertex 55.3213 -72.9661 -40.1933
    endloop
  endfacet
  facet normal 0.525731 -0.447214 -0.723606
    outer loop
      vertex 21.1309 -37.0162 -87.2524
      vertex 55.3213 -72.9661 -40.1933
      vertex 21.1309 -72.9661 -65.0341
    endloop
  endfacet
  facet normal 0.525732 -0.447212 -0.723607
    outer loop
      vertex 76.4522 -37.0162 -47.0591
      vertex 21.1309 -37.0162 -87.2524
      vertex 55.3213 -14.7979 -76.1432
    endloop
  endfacet
  facet normal 0.57735 0.187591 -0.794655
    outer loop
      vertex 55.3213 -14.7979 -76.1432
      vertex 34.1904 21.1521 -83.0091
      vertex 68.3809 21.1521 -58.1683
    endloop
  endfacet
  facet normal 0.499999 0.525731 -0.688191
    outer loop
      vertex 34.1904 21.1521 -83.0091
      vertex 55.3213 57.1021 -40.1933
      vertex 68.3809 21.1521 -58.1683
    endloop
  endfacet
  facet normal 0.500001 0.52573 -0.688191
    outer loop
      vertex 55.3213 57.1021 -40.1933
      vertex 34.1904 21.1521 -83.0091
      vertex 21.1309 57.1021 -65.0341
    endloop
  endfacet
  facet normal 0.309018 1.64942e-06 -0.951056
    outer loop
      vertex -0 -1.0662 -94.1182
      vertex 55.3213 -14.7979 -76.1432
      vertex 21.1309 -37.0162 -87.2524
    endloop
  endfacet
  facet normal 0.309017 -1.44798e-06 -0.951057
    outer loop
      vertex 55.3213 -14.7979 -76.1432
      vertex -0 -1.0662 -94.1182
      vertex 34.1904 21.1521 -83.0091
    endloop
  endfacet
  facet normal -0 -0.187591 -0.982247
    outer loop
      vertex 21.1309 -37.0162 -87.2524
      vertex -21.1309 -37.0162 -87.2524
      vertex -0 -1.0662 -94.1182
    endloop
  endfacet
  facet normal -0.309018 1.64942e-06 -0.951056
    outer loop
      vertex -55.3213 -14.7979 -76.1432
      vertex -0 -1.0662 -94.1182
      vertex -21.1309 -37.0162 -87.2524
    endloop
  endfacet
  facet normal -0.309017 -1.44798e-06 -0.951057
    outer loop
      vertex -0 -1.0662 -94.1182
      vertex -55.3213 -14.7979 -76.1432
      vertex -34.1904 21.1521 -83.0091
    endloop
  endfacet
  facet normal -1.0582e-06 0.447213 -0.894427
    outer loop
      vertex -0 -1.0662 -94.1182
      vertex 21.1309 57.1021 -65.0341
      vertex 34.1904 21.1521 -83.0091
    endloop
  endfacet
  facet normal 0 0.447213 -0.894427
    outer loop
      vertex -0 -1.0662 -94.1182
      vertex -21.1309 57.1021 -65.0341
      vertex 21.1309 57.1021 -65.0341
    endloop
  endfacet
  facet normal 1.0582e-06 0.447213 -0.894427
    outer loop
      vertex -21.1309 57.1021 -65.0341
      vertex -0 -1.0662 -94.1182
      vertex -34.1904 21.1521 -83.0091
    endloop
  endfacet
  facet normal -0.57735 0.187591 -0.794655
    outer loop
      vertex -55.3213 -14.7979 -76.1432
      vertex -68.3809 21.1521 -58.1683
      vertex -34.1904 21.1521 -83.0091
    endloop
  endfacet
  facet normal -0.500001 0.52573 -0.688191
    outer loop
      vertex -34.1904 21.1521 -83.0091
      vertex -55.3213 57.1021 -40.1933
      vertex -21.1309 57.1021 -65.0341
    endloop
  endfacet
  facet normal -0.499999 0.525731 -0.688191
    outer loop
      vertex -55.3213 57.1021 -40.1933
      vertex -34.1904 21.1521 -83.0091
      vertex -68.3809 21.1521 -58.1683
    endloop
  endfacet
  facet normal 1 0 0
    outer loop
      vertex 89.5117 -14.7979 29.0841
      vertex 89.5117 -1.0662 -29.0841
      vertex 89.5117 21.1521 6.86583
    endloop
  endfacet
  facet normal 1 0 0
    outer loop
      vertex 89.5117 -1.0662 -29.0841
      vertex 89.5117 -14.7979 29.0841
      vertex 89.5117 -37.0162 -6.86583
    endloop
  endfacet
  facet normal 0.934173 0.187591 0.303529
    outer loop
      vertex 89.5117 -14.7979 29.0841
      vertex 89.5117 21.1521 6.86583
      vertex 76.4522 21.1521 47.0591
    endloop
  endfacet
  facet normal 0.809017 0.525731 0.262864
    outer loop
      vertex 89.5117 21.1521 6.86583
      vertex 55.3213 57.1021 40.1933
      vertex 76.4522 21.1521 47.0591
    endloop
  endfacet
  facet normal 0.809018 0.52573 0.262866
    outer loop
      vertex 55.3213 57.1021 40.1933
      vertex 89.5117 21.1521 6.86583
      vertex 68.3809 57.1021 0
    endloop
  endfacet
  facet normal 0.850651 0.447212 -0.276394
    outer loop
      vertex 89.5117 21.1521 6.86583
      vertex 55.3213 57.1021 -40.1933
      vertex 68.3809 57.1021 0
    endloop
  endfacet
  facet normal 0.850651 0.447213 -0.276393
    outer loop
      vertex 89.5117 -1.0662 -29.0841
      vertex 55.3213 57.1021 -40.1933
      vertex 89.5117 21.1521 6.86583
    endloop
  endfacet
  facet normal 0.850652 0.447213 -0.276392
    outer loop
      vertex 55.3213 57.1021 -40.1933
      vertex 89.5117 -1.0662 -29.0841
      vertex 68.3809 21.1521 -58.1683
    endloop
  endfacet
  facet normal 0.577349 0.794655 0.187592
    outer loop
      vertex 68.3809 57.1021 0
      vertex 34.1904 79.3204 11.1091
      vertex 55.3213 57.1021 40.1933
    endloop
  endfacet
  facet normal 0.309017 0.850651 0.425325
    outer loop
      vertex 55.3213 57.1021 40.1933
      vertex 0 79.3204 35.95
      vertex 21.1309 57.1021 65.0341
    endloop
  endfacet
  facet normal 0.309017 0.850651 0.425324
    outer loop
      vertex 0 79.3204 35.95
      vertex 55.3213 57.1021 40.1933
      vertex 34.1904 79.3204 11.1091
    endloop
  endfacet
  facet normal 0.5 0.850651 -0.162459
    outer loop
      vertex 68.3809 57.1021 0
      vertex 21.1309 79.3204 -29.0841
      vertex 34.1904 79.3204 11.1091
    endloop
  endfacet
  facet normal 0.5 0.850651 -0.16246
    outer loop
      vertex 21.1309 79.3204 -29.0841
      vertex 68.3809 57.1021 0
      vertex 55.3213 57.1021 -40.1933
    endloop
  endfacet
  facet normal 0.356822 0.794655 -0.491123
    outer loop
      vertex 55.3213 57.1021 -40.1933
      vertex 21.1309 57.1021 -65.0341
      vertex 21.1309 79.3204 -29.0841
    endloop
  endfacet
  facet normal 0 0.850651 -0.525731
    outer loop
      vertex 21.1309 57.1021 -65.0341
      vertex -21.1309 79.3204 -29.0841
      vertex 21.1309 79.3204 -29.0841
    endloop
  endfacet
  facet normal 0 0.850651 -0.525731
    outer loop
      vertex -21.1309 79.3204 -29.0841
      vertex 21.1309 57.1021 -65.0341
      vertex -21.1309 57.1021 -65.0341
    endloop
  endfacet
  facet normal 0 1 0
    outer loop
      vertex 34.1904 79.3204 11.1091
      vertex -34.1904 79.3204 11.1091
      vertex 0 79.3204 35.95
    endloop
  endfacet
  facet normal 0 1 -0
    outer loop
      vertex 21.1309 79.3204 -29.0841
      vertex -34.1904 79.3204 11.1091
      vertex 34.1904 79.3204 11.1091
    endloop
  endfacet
  facet normal 0 1 0
    outer loop
      vertex -34.1904 79.3204 11.1091
      vertex 21.1309 79.3204 -29.0841
      vertex -21.1309 79.3204 -29.0841
    endloop
  endfacet
  facet normal -0.356822 0.794655 -0.491123
    outer loop
      vertex -21.1309 57.1021 -65.0341
      vertex -55.3213 57.1021 -40.1933
      vertex -21.1309 79.3204 -29.0841
    endloop
  endfacet
  facet normal -0.5 0.850651 -0.162459
    outer loop
      vertex -21.1309 79.3204 -29.0841
      vertex -68.3809 57.1021 0
      vertex -34.1904 79.3204 11.1091
    endloop
  endfacet
  facet normal -0.5 0.850651 -0.16246
    outer loop
      vertex -68.3809 57.1021 0
      vertex -21.1309 79.3204 -29.0841
      vertex -55.3213 57.1021 -40.1933
    endloop
  endfacet
  facet normal 0.809017 -2.30875e-06 0.587785
    outer loop
      vertex 55.3213 -1.0662 76.1432
      vertex 89.5117 -14.7979 29.0841
      vertex 76.4522 21.1521 47.0591
    endloop
  endfacet
  facet normal 0.809018 2.24036e-06 0.587784
    outer loop
      vertex 89.5117 -14.7979 29.0841
      vertex 55.3213 -1.0662 76.1432
      vertex 68.3809 -37.0162 58.1683
    endloop
  endfacet
  facet normal 0.57735 -0.187591 0.794655
    outer loop
      vertex 68.3809 -37.0162 58.1683
      vertex 55.3213 -1.0662 76.1432
      vertex 34.1904 -37.0162 83.0091
    endloop
  endfacet
  facet normal 0.309018 -1.64942e-06 0.951056
    outer loop
      vertex -0 -14.7979 94.1182
      vertex 55.3213 -1.0662 76.1432
      vertex 21.1309 21.1521 87.2524
    endloop
  endfacet
  facet normal 0.309017 1.44798e-06 0.951057
    outer loop
      vertex 55.3213 -1.0662 76.1432
      vertex -0 -14.7979 94.1182
      vertex 34.1904 -37.0162 83.0091
    endloop
  endfacet
  facet normal 0.525731 0.447213 0.723607
    outer loop
      vertex 21.1309 21.1521 87.2524
      vertex 76.4522 21.1521 47.0591
      vertex 55.3213 57.1021 40.1933
    endloop
  endfacet
  facet normal 0.525732 0.447213 0.723607
    outer loop
      vertex 21.1309 21.1521 87.2524
      vertex 55.3213 57.1021 40.1933
      vertex 21.1309 57.1021 65.0341
    endloop
  endfacet
  facet normal 0.525732 0.447212 0.723607
    outer loop
      vertex 76.4522 21.1521 47.0591
      vertex 21.1309 21.1521 87.2524
      vertex 55.3213 -1.0662 76.1432
    endloop
  endfacet
  facet normal 0 0.187591 0.982247
    outer loop
      vertex 21.1309 21.1521 87.2524
      vertex -21.1309 21.1521 87.2524
      vertex -0 -14.7979 94.1182
    endloop
  endfacet
  facet normal -0.309018 -1.64942e-06 0.951056
    outer loop
      vertex -55.3213 -1.0662 76.1432
      vertex -0 -14.7979 94.1182
      vertex -21.1309 21.1521 87.2524
    endloop
  endfacet
  facet normal -0.309017 1.44798e-06 0.951057
    outer loop
      vertex -0 -14.7979 94.1182
      vertex -55.3213 -1.0662 76.1432
      vertex -34.1904 -37.0162 83.0091
    endloop
  endfacet
  facet normal -0 0.525731 0.850651
    outer loop
      vertex -21.1309 57.1021 65.0341
      vertex 21.1309 21.1521 87.2524
      vertex 21.1309 57.1021 65.0341
    endloop
  endfacet
  facet normal 0 0.525731 0.850651
    outer loop
      vertex 21.1309 21.1521 87.2524
      vertex -21.1309 57.1021 65.0341
      vertex -21.1309 21.1521 87.2524
    endloop
  endfacet
  facet normal 0 0.794654 0.607062
    outer loop
      vertex 21.1309 57.1021 65.0341
      vertex 0 79.3204 35.95
      vertex -21.1309 57.1021 65.0341
    endloop
  endfacet
  facet normal -0.309017 0.850651 0.425325
    outer loop
      vertex 0 79.3204 35.95
      vertex -55.3213 57.1021 40.1933
      vertex -21.1309 57.1021 65.0341
    endloop
  endfacet
  facet normal -0.309017 0.850651 0.425324
    outer loop
      vertex -55.3213 57.1021 40.1933
      vertex 0 79.3204 35.95
      vertex -34.1904 79.3204 11.1091
    endloop
  endfacet
  facet normal -0.525732 0.447213 0.723607
    outer loop
      vertex -55.3213 57.1021 40.1933
      vertex -21.1309 21.1521 87.2524
      vertex -21.1309 57.1021 65.0341
    endloop
  endfacet
  facet normal -0.525731 0.447213 0.723607
    outer loop
      vertex -76.4522 21.1521 47.0591
      vertex -21.1309 21.1521 87.2524
      vertex -55.3213 57.1021 40.1933
    endloop
  endfacet
  facet normal -0.525732 0.447212 0.723607
    outer loop
      vertex -21.1309 21.1521 87.2524
      vertex -76.4522 21.1521 47.0591
      vertex -55.3213 -1.0662 76.1432
    endloop
  endfacet
  facet normal -0.577349 0.794655 0.187592
    outer loop
      vertex -34.1904 79.3204 11.1091
      vertex -68.3809 57.1021 0
      vertex -55.3213 57.1021 40.1933
    endloop
  endfacet
  facet normal -0.809018 0.52573 0.262866
    outer loop
      vertex -89.5117 21.1521 6.86583
      vertex -55.3213 57.1021 40.1933
      vertex -68.3809 57.1021 0
    endloop
  endfacet
  facet normal -0.809017 0.525731 0.262864
    outer loop
      vertex -55.3213 57.1021 40.1933
      vertex -89.5117 21.1521 6.86583
      vertex -76.4522 21.1521 47.0591
    endloop
  endfacet
  facet normal 0.499999 -0.525732 0.688191
    outer loop
      vertex 34.1904 -37.0162 83.0091
      vertex 55.3213 -72.9661 40.1933
      vertex 68.3809 -37.0162 58.1683
    endloop
  endfacet
  facet normal 0.5 -0.525731 0.688191
    outer loop
      vertex 55.3213 -72.9661 40.1933
      vertex 34.1904 -37.0162 83.0091
      vertex 21.1309 -72.9661 65.0341
    endloop
  endfacet
  facet normal 0 -1 0
    outer loop
      vertex -55.3213 -72.9661 40.1933
      vertex 21.1309 -72.9661 65.0341
      vertex -21.1309 -72.9661 65.0341
    endloop
  endfacet
  facet normal 0 -1 0
    outer loop
      vertex -55.3213 -72.9661 40.1933
      vertex 55.3213 -72.9661 40.1933
      vertex 21.1309 -72.9661 65.0341
    endloop
  endfacet
  facet normal 0 -1 0
    outer loop
      vertex -68.3809 -72.9661 0
      vertex 55.3213 -72.9661 40.1933
      vertex -55.3213 -72.9661 40.1933
    endloop
  endfacet
  facet normal 0 -1 0
    outer loop
      vertex -68.3809 -72.9661 0
      vertex 68.3809 -72.9661 0
      vertex 55.3213 -72.9661 40.1933
    endloop
  endfacet
  facet normal 0 -1 0
    outer loop
      vertex -55.3213 -72.9661 -40.1933
      vertex 68.3809 -72.9661 0
      vertex -68.3809 -72.9661 0
    endloop
  endfacet
  facet normal 0 -1 0
    outer loop
      vertex -55.3213 -72.9661 -40.1933
      vertex 55.3213 -72.9661 -40.1933
      vertex 68.3809 -72.9661 0
    endloop
  endfacet
  facet normal 0 -1 0
    outer loop
      vertex -21.1309 -72.9661 -65.0341
      vertex 55.3213 -72.9661 -40.1933
      vertex -55.3213 -72.9661 -40.1933
    endloop
  endfacet
  facet normal 0 -1 0
    outer loop
      vertex 55.3213 -72.9661 -40.1933
      vertex -21.1309 -72.9661 -65.0341
      vertex 21.1309 -72.9661 -65.0341
    endloop
  endfacet
  facet normal -1.71221e-06 -0.447214 0.894427
    outer loop
      vertex -0 -14.7979 94.1182
      vertex 21.1309 -72.9661 65.0341
      vertex 34.1904 -37.0162 83.0091
    endloop
  endfacet
  facet normal 0 -0.447214 0.894427
    outer loop
      vertex -0 -14.7979 94.1182
      vertex -21.1309 -72.9661 65.0341
      vertex 21.1309 -72.9661 65.0341
    endloop
  endfacet
  facet normal 1.71221e-06 -0.447214 0.894427
    outer loop
      vertex -21.1309 -72.9661 65.0341
      vertex -0 -14.7979 94.1182
      vertex -34.1904 -37.0162 83.0091
    endloop
  endfacet
  facet normal -0.5 -0.525731 0.688191
    outer loop
      vertex -34.1904 -37.0162 83.0091
      vertex -55.3213 -72.9661 40.1933
      vertex -21.1309 -72.9661 65.0341
    endloop
  endfacet
  facet normal -0.499999 -0.525732 0.688191
    outer loop
      vertex -55.3213 -72.9661 40.1933
      vertex -34.1904 -37.0162 83.0091
      vertex -68.3809 -37.0162 58.1683
    endloop
  endfacet
  facet normal -0.57735 -0.187591 0.794655
    outer loop
      vertex -34.1904 -37.0162 83.0091
      vertex -55.3213 -1.0662 76.1432
      vertex -68.3809 -37.0162 58.1683
    endloop
  endfacet
  facet normal -0.809017 -2.30875e-06 0.587785
    outer loop
      vertex -89.5117 -14.7979 29.0841
      vertex -55.3213 -1.0662 76.1432
      vertex -76.4522 21.1521 47.0591
    endloop
  endfacet
  facet normal -0.809018 2.24036e-06 0.587784
    outer loop
      vertex -55.3213 -1.0662 76.1432
      vertex -89.5117 -14.7979 29.0841
      vertex -68.3809 -37.0162 58.1683
    endloop
  endfacet
  facet normal -0.850651 -0.447213 0.276393
    outer loop
      vertex -55.3213 -72.9661 40.1933
      vertex -89.5117 -14.7979 29.0841
      vertex -89.5117 -37.0162 -6.86583
    endloop
  endfacet
  facet normal -0.850651 -0.447213 0.276393
    outer loop
      vertex -55.3213 -72.9661 40.1933
      vertex -89.5117 -37.0162 -6.86583
      vertex -68.3809 -72.9661 0
    endloop
  endfacet
  facet normal -0.850651 -0.447214 0.276391
    outer loop
      vertex -89.5117 -14.7979 29.0841
      vertex -55.3213 -72.9661 40.1933
      vertex -68.3809 -37.0162 58.1683
    endloop
  endfacet
  facet normal -0.934173 0.187591 0.303529
    outer loop
      vertex -76.4522 21.1521 47.0591
      vertex -89.5117 21.1521 6.86583
      vertex -89.5117 -14.7979 29.0841
    endloop
  endfacet
  facet normal -1 0 0
    outer loop
      vertex -89.5117 -1.0662 -29.0841
      vertex -89.5117 -14.7979 29.0841
      vertex -89.5117 21.1521 6.86583
    endloop
  endfacet
  facet normal -1 0 -0
    outer loop
      vertex -89.5117 -14.7979 29.0841
      vertex -89.5117 -1.0662 -29.0841
      vertex -89.5117 -37.0162 -6.86583
    endloop
  endfacet
  facet normal 0 -0.525732 -0.85065
    outer loop
      vertex -21.1309 -72.9661 -65.0341
      vertex 21.1309 -37.0162 -87.2524
      vertex 21.1309 -72.9661 -65.0341
    endloop
  endfacet
  facet normal -0 -0.525732 -0.85065
    outer loop
      vertex 21.1309 -37.0162 -87.2524
      vertex -21.1309 -72.9661 -65.0341
      vertex -21.1309 -37.0162 -87.2524
    endloop
  endfacet
  facet normal -0.809017 -0.525732 -0.262864
    outer loop
      vertex -55.3213 -72.9661 -40.1933
      vertex -89.5117 -37.0162 -6.86583
      vertex -76.4522 -37.0162 -47.0591
    endloop
  endfacet
  facet normal -0.809017 -0.525731 -0.262866
    outer loop
      vertex -89.5117 -37.0162 -6.86583
      vertex -55.3213 -72.9661 -40.1933
      vertex -68.3809 -72.9661 0
    endloop
  endfacet
  facet normal -0.525731 -0.447214 -0.723606
    outer loop
      vertex -55.3213 -72.9661 -40.1933
      vertex -21.1309 -37.0162 -87.2524
      vertex -21.1309 -72.9661 -65.0341
    endloop
  endfacet
  facet normal -0.525731 -0.447214 -0.723606
    outer loop
      vertex -76.4522 -37.0162 -47.0591
      vertex -21.1309 -37.0162 -87.2524
      vertex -55.3213 -72.9661 -40.1933
    endloop
  endfacet
  facet normal -0.525732 -0.447212 -0.723607
    outer loop
      vertex -21.1309 -37.0162 -87.2524
      vertex -76.4522 -37.0162 -47.0591
      vertex -55.3213 -14.7979 -76.1432
    endloop
  endfacet
  facet normal -0.934173 -0.187591 -0.303529
    outer loop
      vertex -89.5117 -37.0162 -6.86583
      vertex -89.5117 -1.0662 -29.0841
      vertex -76.4522 -37.0162 -47.0591
    endloop
  endfacet
  facet normal -0.809018 -2.24036e-06 -0.587784
    outer loop
      vertex -55.3213 -14.7979 -76.1432
      vertex -89.5117 -1.0662 -29.0841
      vertex -68.3809 21.1521 -58.1683
    endloop
  endfacet
  facet normal -0.809017 2.30875e-06 -0.587785
    outer loop
      vertex -89.5117 -1.0662 -29.0841
      vertex -55.3213 -14.7979 -76.1432
      vertex -76.4522 -37.0162 -47.0591
    endloop
  endfacet
  facet normal 0.850651 -0.447214 0.276391
    outer loop
      vertex 55.3213 -72.9661 40.1933
      vertex 89.5117 -14.7979 29.0841
      vertex 68.3809 -37.0162 58.1683
    endloop
  endfacet
  facet normal 0.850651 -0.447213 0.276393
    outer loop
      vertex 89.5117 -14.7979 29.0841
      vertex 55.3213 -72.9661 40.1933
      vertex 89.5117 -37.0162 -6.86583
    endloop
  endfacet
  facet normal 0.850651 -0.447213 0.276393
    outer loop
      vertex 89.5117 -37.0162 -6.86583
      vertex 55.3213 -72.9661 40.1933
      vertex 68.3809 -72.9661 0
    endloop
  endfacet
  facet normal -0.850652 0.447213 -0.276392
    outer loop
      vertex -89.5117 -1.0662 -29.0841
      vertex -55.3213 57.1021 -40.1933
      vertex -68.3809 21.1521 -58.1683
    endloop
  endfacet
  facet normal -0.850651 0.447212 -0.276394
    outer loop
      vertex -55.3213 57.1021 -40.1933
      vertex -89.5117 21.1521 6.86583
      vertex -68.3809 57.1021 0
    endloop
  endfacet
  facet normal -0.850651 0.447213 -0.276393
    outer loop
      vertex -55.3213 57.1021 -40.1933
      vertex -89.5117 -1.0662 -29.0841
      vertex -89.5117 21.1521 6.86583
    endloop
  endfacet
endsolid OpenSCAD_Model
