solid OpenSCAD_Model
  facet normal -0.143412 -0.989663 -0
    outer loop
      vertex -20.3346 -45.0802 42.9103
      vertex -93.8891 -34.4214 0
      vertex -20.3346 -45.0802 -42.9102
    endloop
  endfacet
  facet normal 0 -1 0
    outer loop
      vertex -20.3346 -45.0802 -42.9102
      vertex 65.4859 -45.0802 42.9103
      vertex -20.3346 -45.0802 42.9103
    endloop
  endfacet
  facet normal 0 -1 -0
    outer loop
      vertex 65.4859 -45.0802 42.9103
      vertex -20.3346 -45.0802 -42.9102
      vertex 65.4859 -45.0802 -42.9102
    endloop
  endfacet
  facet normal 0.476156 0.777305 -0.411184
    outer loop
      vertex 75.1299 28.6142 2.5149e-05
      vertex 22.5758 24.969 -67.7492
      vertex 1.94842 73.4431 -6.5668e-05
    endloop
  endfacet
  facet normal -0.120744 0.789557 0.601682
    outer loop
      vertex 1.94842 73.4431 -6.5668e-05
      vertex -59.3217 31.3735 42.9102
      vertex 22.5757 24.9691 67.7493
    endloop
  endfacet
  facet normal -0.120742 0.789555 -0.601684
    outer loop
      vertex 1.94842 73.4431 -6.5668e-05
      vertex 22.5758 24.969 -67.7492
      vertex -59.3216 31.3734 -42.9104
    endloop
  endfacet
  facet normal -0.56604 0.824378 -1.62014e-06
    outer loop
      vertex 1.94842 73.4431 -6.5668e-05
      vertex -59.3216 31.3734 -42.9104
      vertex -59.3217 31.3735 42.9102
    endloop
  endfacet
  facet normal -0.297729 -0.151824 0.942501
    outer loop
      vertex -59.3217 31.3735 42.9102
      vertex -20.3346 -45.0802 42.9103
      vertex 22.5757 24.9691 67.7493
    endloop
  endfacet
  facet normal 0 -0.334204 0.942501
    outer loop
      vertex 22.5757 24.9691 67.7493
      vertex -20.3346 -45.0802 42.9103
      vertex 65.4859 -45.0802 42.9103
    endloop
  endfacet
  facet normal -0.297726 -0.151826 -0.942501
    outer loop
      vertex 22.5758 24.969 -67.7492
      vertex -20.3346 -45.0802 -42.9102
      vertex -59.3216 31.3734 -42.9104
    endloop
  endfacet
  facet normal 0 -0.334205 -0.942501
    outer loop
      vertex -20.3346 -45.0802 -42.9102
      vertex 22.5758 24.969 -67.7492
      vertex 65.4859 -45.0802 -42.9102
    endloop
  endfacet
  facet normal 0.758232 0.251118 0.601684
    outer loop
      vertex 65.4859 -45.0802 42.9103
      vertex 75.1299 28.6142 2.5149e-05
      vertex 22.5757 24.9691 67.7493
    endloop
  endfacet
  facet normal 0.991546 -0.129758 0
    outer loop
      vertex 65.4859 -45.0802 42.9103
      vertex 65.4859 -45.0802 -42.9102
      vertex 75.1299 28.6142 2.5149e-05
    endloop
  endfacet
  facet normal 0.758233 0.251118 -0.601684
    outer loop
      vertex 75.1299 28.6142 2.5149e-05
      vertex 65.4859 -45.0802 -42.9102
      vertex 22.5758 24.969 -67.7492
    endloop
  endfacet
  facet normal 0.476155 0.777306 0.411183
    outer loop
      vertex 22.5757 24.9691 67.7493
      vertex 75.1299 28.6142 2.5149e-05
      vertex 1.94842 73.4431 -6.5668e-05
    endloop
  endfacet
  facet normal -0.514336 -0.262281 0.816497
    outer loop
      vertex -59.3217 31.3735 42.9102
      vertex -93.8891 -34.4214 0
      vertex -20.3346 -45.0802 42.9103
    endloop
  endfacet
  facet normal -0.885259 0.465099 -1.57347e-06
    outer loop
      vertex -59.3217 31.3735 42.9102
      vertex -59.3216 31.3734 -42.9104
      vertex -93.8891 -34.4214 0
    endloop
  endfacet
  facet normal -0.514335 -0.262284 -0.816497
    outer loop
      vertex -93.8891 -34.4214 0
      vertex -59.3216 31.3734 -42.9104
      vertex -20.3346 -45.0802 -42.9102
    endloop
  endfacet
endsolid OpenSCAD_Model
