solid OpenSCAD_Model
  facet normal 0.309017 -0.850651 -0.425325
    outer loop
      vertex 1.55e-07 -92.4594 -38.0954
      vertex 58.6227 -68.9152 -42.5919
      vertex 36.2309 -92.4594 -11.7721
    endloop
  endfacet
  facet normal 0.309017 -0.850651 -0.425324
    outer loop
      vertex 58.6227 -68.9152 -42.5919
      vertex 1.55e-07 -92.4594 -38.0954
      vertex 22.3919 -68.9152 -68.9152
    endloop
  endfacet
  facet normal -0 -0.794655 -0.607061
    outer loop
      vertex 22.3919 -68.9152 -68.9152
      vertex 1.55e-07 -92.4594 -38.0954
      vertex -22.3919 -68.9152 -68.9152
    endloop
  endfacet
  facet normal -0.309017 -0.850651 -0.425325
    outer loop
      vertex -58.6227 -68.9152 -42.5919
      vertex 1.55e-07 -92.4594 -38.0954
      vertex -36.2309 -92.4594 -11.7721
    endloop
  endfacet
  facet normal -0.309017 -0.850651 -0.425324
    outer loop
      vertex 1.55e-07 -92.4594 -38.0954
      vertex -58.6227 -68.9152 -42.5919
      vertex -22.3919 -68.9152 -68.9152
    endloop
  endfacet
  facet normal 0 -1 0
    outer loop
      vertex -36.2309 -92.4594 -11.7721
      vertex 22.3919 -92.4594 30.8198
      vertex -22.3919 -92.4594 30.8198
    endloop
  endfacet
  facet normal 0 -1 0
    outer loop
      vertex -36.2309 -92.4594 -11.7721
      vertex 36.2309 -92.4594 -11.7721
      vertex 22.3919 -92.4594 30.8198
    endloop
  endfacet
  facet normal -0 -1 0
    outer loop
      vertex 36.2309 -92.4594 -11.7721
      vertex -36.2309 -92.4594 -11.7721
      vertex 1.55e-07 -92.4594 -38.0954
    endloop
  endfacet
  facet normal -0.417776 -0.898352 0.135744
    outer loop
      vertex -22.3919 -92.4594 30.8198
      vertex -62.4477 -75.4226 20.2905
      vertex -36.2309 -92.4594 -11.7721
    endloop
  endfacet
  facet normal -0.638197 -0.760845 -0.117555
    outer loop
      vertex -84.8396 -51.8784 -10.5293
      vertex -36.2309 -92.4594 -11.7721
      vertex -62.4477 -75.4226 20.2905
    endloop
  endfacet
  facet normal -0.638197 -0.760845 -0.117557
    outer loop
      vertex -36.2309 -92.4594 -11.7721
      vertex -84.8396 -51.8784 -10.5293
      vertex -58.6227 -68.9152 -42.5919
    endloop
  endfacet
  facet normal -0.447214 -0.760845 0.470227
    outer loop
      vertex -62.4477 -51.8784 58.3859
      vertex -22.3919 -92.4594 30.8198
      vertex -22.3919 -68.9152 68.9152
    endloop
  endfacet
  facet normal -0.447214 -0.760845 0.470227
    outer loop
      vertex -22.3919 -92.4594 30.8198
      vertex -62.4477 -51.8784 58.3859
      vertex -62.4477 -75.4226 20.2905
    endloop
  endfacet
  facet normal -0.417775 -0.523168 0.742804
    outer loop
      vertex -22.3919 -68.9152 68.9152
      vertex -36.2309 -30.8198 87.9629
      vertex -62.4477 -51.8784 58.3859
    endloop
  endfacet
  facet normal -0.638198 -0.235113 0.733093
    outer loop
      vertex -84.8396 -13.783 51.1103
      vertex -36.2309 -30.8198 87.9629
      vertex -58.6227 7.27557 80.6873
    endloop
  endfacet
  facet normal -0.638198 -0.235114 0.733093
    outer loop
      vertex -36.2309 -30.8198 87.9629
      vertex -84.8396 -13.783 51.1103
      vertex -62.4477 -51.8784 58.3859
    endloop
  endfacet
  facet normal -0.850651 -0.447214 0.276393
    outer loop
      vertex -62.4477 -75.4226 20.2905
      vertex -98.6786 -13.783 8.51838
      vertex -84.8396 -51.8784 -10.5293
    endloop
  endfacet
  facet normal -0.850651 -0.447213 0.276394
    outer loop
      vertex -98.6786 -13.783 8.51838
      vertex -62.4477 -51.8784 58.3859
      vertex -84.8396 -13.783 51.1103
    endloop
  endfacet
  facet normal -0.850651 -0.447214 0.276393
    outer loop
      vertex -98.6786 -13.783 8.51838
      vertex -62.4477 -75.4226 20.2905
      vertex -62.4477 -51.8784 58.3859
    endloop
  endfacet
  facet normal -0.774597 0.0838939 0.626867
    outer loop
      vertex -58.6227 7.27557 80.6873
      vertex -81.0146 30.8198 49.8675
      vertex -84.8396 -13.783 51.1103
    endloop
  endfacet
  facet normal -0.947213 0.0898058 0.307769
    outer loop
      vertex -98.6786 -13.783 8.51838
      vertex -81.0146 30.8198 49.8675
      vertex -94.8536 30.8198 7.27557
    endloop
  endfacet
  facet normal -0.947213 0.0898057 0.307769
    outer loop
      vertex -81.0146 30.8198 49.8675
      vertex -98.6786 -13.783 8.51838
      vertex -84.8396 -13.783 51.1103
    endloop
  endfacet
  facet normal 0 -0.52573 -0.850651
    outer loop
      vertex -22.3919 -68.9152 -68.9152
      vertex 22.3919 -30.8198 -92.4594
      vertex 22.3919 -68.9152 -68.9152
    endloop
  endfacet
  facet normal -0 -0.52573 -0.850651
    outer loop
      vertex 22.3919 -30.8198 -92.4594
      vertex -22.3919 -68.9152 -68.9152
      vertex -22.3919 -30.8198 -92.4594
    endloop
  endfacet
  facet normal -0 -0.187593 -0.982247
    outer loop
      vertex 22.3919 -30.8198 -92.4594
      vertex -22.3919 -30.8198 -92.4594
      vertex 0 7.27557 -99.735
    endloop
  endfacet
  facet normal -0.309017 -5.59682e-07 -0.951056
    outer loop
      vertex -58.6227 -7.27557 -80.6873
      vertex 0 7.27557 -99.735
      vertex -22.3919 -30.8198 -92.4594
    endloop
  endfacet
  facet normal -0.309017 -1.50941e-06 -0.951056
    outer loop
      vertex 0 7.27557 -99.735
      vertex -58.6227 -7.27557 -80.6873
      vertex -36.2309 30.8198 -87.9629
    endloop
  endfacet
  facet normal -0.525733 -0.447212 -0.723606
    outer loop
      vertex -58.6227 -68.9152 -42.5919
      vertex -22.3919 -30.8198 -92.4594
      vertex -22.3919 -68.9152 -68.9152
    endloop
  endfacet
  facet normal -0.525731 -0.447214 -0.723607
    outer loop
      vertex -81.0146 -30.8198 -49.8675
      vertex -22.3919 -30.8198 -92.4594
      vertex -58.6227 -68.9152 -42.5919
    endloop
  endfacet
  facet normal -0.525731 -0.447213 -0.723607
    outer loop
      vertex -22.3919 -30.8198 -92.4594
      vertex -81.0146 -30.8198 -49.8675
      vertex -58.6227 -7.27557 -80.6873
    endloop
  endfacet
  facet normal -0.577352 0.187591 -0.794654
    outer loop
      vertex -58.6227 -7.27557 -80.6873
      vertex -72.4617 30.8198 -61.6396
      vertex -36.2309 30.8198 -87.9629
    endloop
  endfacet
  facet normal -0.5 0.525731 -0.688191
    outer loop
      vertex -36.2309 30.8198 -87.9629
      vertex -58.6228 68.9152 -42.5919
      vertex -22.3919 68.9152 -68.9152
    endloop
  endfacet
  facet normal -0.500001 0.525731 -0.688191
    outer loop
      vertex -58.6228 68.9152 -42.5919
      vertex -36.2309 30.8198 -87.9629
      vertex -72.4617 30.8198 -61.6396
    endloop
  endfacet
  facet normal -0.809017 -5.07866e-07 -0.587786
    outer loop
      vertex -58.6227 -7.27557 -80.6873
      vertex -94.8536 7.27557 -30.8198
      vertex -72.4617 30.8198 -61.6396
    endloop
  endfacet
  facet normal -0.809017 -5.07866e-07 -0.587786
    outer loop
      vertex -94.8536 7.27557 -30.8198
      vertex -58.6227 -7.27557 -80.6873
      vertex -81.0146 -30.8198 -49.8675
    endloop
  endfacet
  facet normal -0.774597 -0.523168 -0.35538
    outer loop
      vertex -58.6227 -68.9152 -42.5919
      vertex -84.8396 -51.8784 -10.5293
      vertex -81.0146 -30.8198 -49.8675
    endloop
  endfacet
  facet normal -0.947213 -0.235115 -0.217963
    outer loop
      vertex -81.0146 -30.8198 -49.8675
      vertex -98.6786 -13.783 8.51838
      vertex -94.8536 7.27557 -30.8198
    endloop
  endfacet
  facet normal -0.947213 -0.235115 -0.217963
    outer loop
      vertex -98.6786 -13.783 8.51838
      vertex -81.0146 -30.8198 -49.8675
      vertex -84.8396 -51.8784 -10.5293
    endloop
  endfacet
  facet normal -0.850651 0.447213 -0.276394
    outer loop
      vertex -94.8536 7.27557 -30.8198
      vertex -58.6228 68.9152 -42.5919
      vertex -72.4617 30.8198 -61.6396
    endloop
  endfacet
  facet normal -0.850651 0.447214 -0.276392
    outer loop
      vertex -58.6228 68.9152 -42.5919
      vertex -94.8536 30.8198 7.27557
      vertex -72.4617 68.9152 -8.21e-07
    endloop
  endfacet
  facet normal -0.850651 0.447213 -0.276393
    outer loop
      vertex -58.6228 68.9152 -42.5919
      vertex -94.8536 7.27557 -30.8198
      vertex -94.8536 30.8198 7.27557
    endloop
  endfacet
  facet normal -0.995125 0.0838941 -0.0518494
    outer loop
      vertex -98.6786 -13.783 8.51838
      vertex -94.8536 30.8198 7.27557
      vertex -94.8536 7.27557 -30.8198
    endloop
  endfacet
  facet normal -0.809017 0.525731 0.262867
    outer loop
      vertex -94.8536 30.8198 7.27557
      vertex -58.6227 68.9152 42.5919
      vertex -72.4617 68.9152 -8.21e-07
    endloop
  endfacet
  facet normal -0.809017 0.525731 0.262866
    outer loop
      vertex -58.6227 68.9152 42.5919
      vertex -94.8536 30.8198 7.27557
      vertex -81.0146 30.8198 49.8675
    endloop
  endfacet
  facet normal 0.309017 -5.59682e-07 -0.951056
    outer loop
      vertex 0 7.27557 -99.735
      vertex 58.6227 -7.27557 -80.6873
      vertex 22.3919 -30.8198 -92.4594
    endloop
  endfacet
  facet normal 0.309017 -1.50941e-06 -0.951056
    outer loop
      vertex 58.6227 -7.27557 -80.6873
      vertex 0 7.27557 -99.735
      vertex 36.2309 30.8198 -87.9629
    endloop
  endfacet
  facet normal 0.417775 0.523168 -0.742804
    outer loop
      vertex 36.2309 30.8198 -87.9629
      vertex 22.3919 68.9152 -68.9152
      vertex 62.4477 51.8784 -58.3859
    endloop
  endfacet
  facet normal 0.447214 0.760845 -0.470227
    outer loop
      vertex 62.4477 51.8784 -58.3859
      vertex 22.3919 92.4594 -30.8198
      vertex 62.4477 75.4226 -20.2905
    endloop
  endfacet
  facet normal 0.447214 0.760845 -0.470227
    outer loop
      vertex 22.3919 92.4594 -30.8198
      vertex 62.4477 51.8784 -58.3859
      vertex 22.3919 68.9152 -68.9152
    endloop
  endfacet
  facet normal -2.99581e-07 0.447214 -0.894427
    outer loop
      vertex 0 7.27557 -99.735
      vertex 22.3919 68.9152 -68.9152
      vertex 36.2309 30.8198 -87.9629
    endloop
  endfacet
  facet normal 0 0.447213 -0.894427
    outer loop
      vertex 0 7.27557 -99.735
      vertex -22.3919 68.9152 -68.9152
      vertex 22.3919 68.9152 -68.9152
    endloop
  endfacet
  facet normal 2.99581e-07 0.447214 -0.894427
    outer loop
      vertex -22.3919 68.9152 -68.9152
      vertex 0 7.27557 -99.735
      vertex -36.2309 30.8198 -87.9629
    endloop
  endfacet
  facet normal 0.417776 0.898352 -0.135744
    outer loop
      vertex 22.3919 92.4594 -30.8198
      vertex 36.2309 92.4594 11.7721
      vertex 62.4477 75.4226 -20.2905
    endloop
  endfacet
  facet normal 0.638197 0.760845 0.117557
    outer loop
      vertex 84.8396 51.8784 10.5293
      vertex 36.2309 92.4594 11.7721
      vertex 58.6227 68.9152 42.5919
    endloop
  endfacet
  facet normal 0.638197 0.760845 0.117555
    outer loop
      vertex 36.2309 92.4594 11.7721
      vertex 84.8396 51.8784 10.5293
      vertex 62.4477 75.4226 -20.2905
    endloop
  endfacet
  facet normal 0 0.850651 -0.52573
    outer loop
      vertex 22.3919 68.9152 -68.9152
      vertex -22.3919 92.4594 -30.8198
      vertex 22.3919 92.4594 -30.8198
    endloop
  endfacet
  facet normal 0 0.850651 -0.52573
    outer loop
      vertex -22.3919 92.4594 -30.8198
      vertex 22.3919 68.9152 -68.9152
      vertex -22.3919 68.9152 -68.9152
    endloop
  endfacet
  facet normal -0.356822 0.794655 -0.491123
    outer loop
      vertex -22.3919 68.9152 -68.9152
      vertex -58.6228 68.9152 -42.5919
      vertex -22.3919 92.4594 -30.8198
    endloop
  endfacet
  facet normal -0.5 0.850651 -0.16246
    outer loop
      vertex -22.3919 92.4594 -30.8198
      vertex -72.4617 68.9152 -8.21e-07
      vertex -36.2309 92.4594 11.7721
    endloop
  endfacet
  facet normal -0.499999 0.850651 -0.162459
    outer loop
      vertex -72.4617 68.9152 -8.21e-07
      vertex -22.3919 92.4594 -30.8198
      vertex -58.6228 68.9152 -42.5919
    endloop
  endfacet
  facet normal 0 1 0
    outer loop
      vertex 36.2309 92.4594 11.7721
      vertex -36.2309 92.4594 11.7721
      vertex 3.46e-07 92.4594 38.0954
    endloop
  endfacet
  facet normal 0 1 -0
    outer loop
      vertex 22.3919 92.4594 -30.8198
      vertex -36.2309 92.4594 11.7721
      vertex 36.2309 92.4594 11.7721
    endloop
  endfacet
  facet normal 0 1 0
    outer loop
      vertex -36.2309 92.4594 11.7721
      vertex 22.3919 92.4594 -30.8198
      vertex -22.3919 92.4594 -30.8198
    endloop
  endfacet
  facet normal -0.57735 0.794654 0.187593
    outer loop
      vertex -72.4617 68.9152 -8.21e-07
      vertex -58.6227 68.9152 42.5919
      vertex -36.2309 92.4594 11.7721
    endloop
  endfacet
  facet normal -0.309017 0.850651 0.425324
    outer loop
      vertex 3.46e-07 92.4594 38.0954
      vertex -58.6227 68.9152 42.5919
      vertex -22.3919 68.9152 68.9152
    endloop
  endfacet
  facet normal -0.309017 0.850651 0.425325
    outer loop
      vertex -58.6227 68.9152 42.5919
      vertex 3.46e-07 92.4594 38.0954
      vertex -36.2309 92.4594 11.7721
    endloop
  endfacet
  facet normal 0.638198 0.235113 -0.733093
    outer loop
      vertex 36.2309 30.8198 -87.9629
      vertex 84.8396 13.783 -51.1103
      vertex 58.6227 -7.27557 -80.6873
    endloop
  endfacet
  facet normal 0.638198 0.235114 -0.733093
    outer loop
      vertex 84.8396 13.783 -51.1103
      vertex 36.2309 30.8198 -87.9629
      vertex 62.4477 51.8784 -58.3859
    endloop
  endfacet
  facet normal 0.774597 -0.0838939 -0.626867
    outer loop
      vertex 58.6227 -7.27557 -80.6873
      vertex 84.8396 13.783 -51.1103
      vertex 81.0146 -30.8198 -49.8675
    endloop
  endfacet
  facet normal 0.947213 -0.0898058 -0.307769
    outer loop
      vertex 81.0146 -30.8198 -49.8675
      vertex 98.6786 13.783 -8.51838
      vertex 94.8536 -30.8198 -7.27557
    endloop
  endfacet
  facet normal 0.947213 -0.0898057 -0.307769
    outer loop
      vertex 98.6786 13.783 -8.51838
      vertex 81.0146 -30.8198 -49.8675
      vertex 84.8396 13.783 -51.1103
    endloop
  endfacet
  facet normal 0.850651 0.447214 -0.276393
    outer loop
      vertex 98.6786 13.783 -8.51838
      vertex 62.4477 75.4226 -20.2905
      vertex 84.8396 51.8784 10.5293
    endloop
  endfacet
  facet normal 0.850651 0.447214 -0.276393
    outer loop
      vertex 62.4477 75.4226 -20.2905
      vertex 98.6786 13.783 -8.51838
      vertex 62.4477 51.8784 -58.3859
    endloop
  endfacet
  facet normal 0.850651 0.447213 -0.276394
    outer loop
      vertex 62.4477 51.8784 -58.3859
      vertex 98.6786 13.783 -8.51838
      vertex 84.8396 13.783 -51.1103
    endloop
  endfacet
  facet normal 0.995125 -0.0838941 0.0518494
    outer loop
      vertex 98.6786 13.783 -8.51838
      vertex 94.8536 -7.27557 30.8198
      vertex 94.8536 -30.8198 -7.27557
    endloop
  endfacet
  facet normal 0.809017 5.07866e-07 0.587786
    outer loop
      vertex 58.6227 7.27557 80.6873
      vertex 94.8536 -7.27557 30.8198
      vertex 81.0146 30.8198 49.8675
    endloop
  endfacet
  facet normal 0.809017 5.07866e-07 0.587786
    outer loop
      vertex 94.8536 -7.27557 30.8198
      vertex 58.6227 7.27557 80.6873
      vertex 72.4617 -30.8198 61.6396
    endloop
  endfacet
  facet normal 0.947213 0.235115 0.217963
    outer loop
      vertex 81.0146 30.8198 49.8675
      vertex 98.6786 13.783 -8.51838
      vertex 84.8396 51.8784 10.5293
    endloop
  endfacet
  facet normal 0.947213 0.235115 0.217963
    outer loop
      vertex 98.6786 13.783 -8.51838
      vertex 81.0146 30.8198 49.8675
      vertex 94.8536 -7.27557 30.8198
    endloop
  endfacet
  facet normal 0.774597 0.523168 0.35538
    outer loop
      vertex 84.8396 51.8784 10.5293
      vertex 58.6227 68.9152 42.5919
      vertex 81.0146 30.8198 49.8675
    endloop
  endfacet
  facet normal 0.309017 0.850651 0.425325
    outer loop
      vertex 58.6227 68.9152 42.5919
      vertex 3.46e-07 92.4594 38.0954
      vertex 22.3919 68.9152 68.9152
    endloop
  endfacet
  facet normal 0.309017 0.850651 0.425325
    outer loop
      vertex 3.46e-07 92.4594 38.0954
      vertex 58.6227 68.9152 42.5919
      vertex 36.2309 92.4594 11.7721
    endloop
  endfacet
  facet normal 0.525731 0.447214 0.723607
    outer loop
      vertex 22.3919 30.8198 92.4594
      vertex 81.0146 30.8198 49.8675
      vertex 58.6227 68.9152 42.5919
    endloop
  endfacet
  facet normal 0.525733 0.447212 0.723606
    outer loop
      vertex 22.3919 30.8198 92.4594
      vertex 58.6227 68.9152 42.5919
      vertex 22.3919 68.9152 68.9152
    endloop
  endfacet
  facet normal 0.525731 0.447213 0.723607
    outer loop
      vertex 81.0146 30.8198 49.8675
      vertex 22.3919 30.8198 92.4594
      vertex 58.6227 7.27557 80.6873
    endloop
  endfacet
  facet normal 0 0.794655 0.607061
    outer loop
      vertex 3.46e-07 92.4594 38.0954
      vertex -22.3919 68.9152 68.9152
      vertex 22.3919 68.9152 68.9152
    endloop
  endfacet
  facet normal -0 0.52573 0.850651
    outer loop
      vertex -22.3919 68.9152 68.9152
      vertex 22.3919 30.8198 92.4594
      vertex 22.3919 68.9152 68.9152
    endloop
  endfacet
  facet normal 0 0.52573 0.850651
    outer loop
      vertex 22.3919 30.8198 92.4594
      vertex -22.3919 68.9152 68.9152
      vertex -22.3919 30.8198 92.4594
    endloop
  endfacet
  facet normal 0.809017 -0.525731 -0.262867
    outer loop
      vertex 58.6227 -68.9152 -42.5919
      vertex 94.8536 -30.8198 -7.27557
      vertex 72.4617 -68.9152 1.62e-07
    endloop
  endfacet
  facet normal 0.809017 -0.525731 -0.262866
    outer loop
      vertex 94.8536 -30.8198 -7.27557
      vertex 58.6227 -68.9152 -42.5919
      vertex 81.0146 -30.8198 -49.8675
    endloop
  endfacet
  facet normal 0.57735 -0.794654 -0.187593
    outer loop
      vertex 58.6227 -68.9152 -42.5919
      vertex 72.4617 -68.9152 1.62e-07
      vertex 36.2309 -92.4594 -11.7721
    endloop
  endfacet
  facet normal 0.5 -0.850651 0.16246
    outer loop
      vertex 22.3919 -92.4594 30.8198
      vertex 72.4617 -68.9152 1.62e-07
      vertex 58.6227 -68.9152 42.5919
    endloop
  endfacet
  facet normal 0.5 -0.850651 0.16246
    outer loop
      vertex 72.4617 -68.9152 1.62e-07
      vertex 22.3919 -92.4594 30.8198
      vertex 36.2309 -92.4594 -11.7721
    endloop
  endfacet
  facet normal 0.850651 -0.447214 0.276393
    outer loop
      vertex 58.6227 -68.9152 42.5919
      vertex 94.8536 -7.27557 30.8198
      vertex 72.4617 -30.8198 61.6396
    endloop
  endfacet
  facet normal 0.850651 -0.447214 0.276393
    outer loop
      vertex 94.8536 -7.27557 30.8198
      vertex 58.6227 -68.9152 42.5919
      vertex 94.8536 -30.8198 -7.27557
    endloop
  endfacet
  facet normal 0.850651 -0.447213 0.276394
    outer loop
      vertex 94.8536 -30.8198 -7.27557
      vertex 58.6227 -68.9152 42.5919
      vertex 72.4617 -68.9152 1.62e-07
    endloop
  endfacet
  facet normal 0.356823 -0.794655 0.491123
    outer loop
      vertex 58.6227 -68.9152 42.5919
      vertex 22.3919 -68.9152 68.9152
      vertex 22.3919 -92.4594 30.8198
    endloop
  endfacet
  facet normal 0 -0.850651 0.52573
    outer loop
      vertex -22.3919 -92.4594 30.8198
      vertex 22.3919 -68.9152 68.9152
      vertex -22.3919 -68.9152 68.9152
    endloop
  endfacet
  facet normal 0 -0.850651 0.52573
    outer loop
      vertex 22.3919 -68.9152 68.9152
      vertex -22.3919 -92.4594 30.8198
      vertex 22.3919 -92.4594 30.8198
    endloop
  endfacet
  facet normal 0.500001 -0.525731 0.68819
    outer loop
      vertex 36.2309 -30.8198 87.9629
      vertex 58.6227 -68.9152 42.5919
      vertex 72.4617 -30.8198 61.6396
    endloop
  endfacet
  facet normal 0.500001 -0.525731 0.68819
    outer loop
      vertex 58.6227 -68.9152 42.5919
      vertex 36.2309 -30.8198 87.9629
      vertex 22.3919 -68.9152 68.9152
    endloop
  endfacet
  facet normal 0.577352 -0.187591 0.794654
    outer loop
      vertex 72.4617 -30.8198 61.6396
      vertex 58.6227 7.27557 80.6873
      vertex 36.2309 -30.8198 87.9629
    endloop
  endfacet
  facet normal 0.309017 5.62617e-07 0.951056
    outer loop
      vertex 5e-07 -7.27557 99.735
      vertex 58.6227 7.27557 80.6873
      vertex 22.3919 30.8198 92.4594
    endloop
  endfacet
  facet normal 0.309017 1.5076e-06 0.951056
    outer loop
      vertex 58.6227 7.27557 80.6873
      vertex 5e-07 -7.27557 99.735
      vertex 36.2309 -30.8198 87.9629
    endloop
  endfacet
  facet normal -2.99581e-07 -0.447214 0.894427
    outer loop
      vertex 5e-07 -7.27557 99.735
      vertex 22.3919 -68.9152 68.9152
      vertex 36.2309 -30.8198 87.9629
    endloop
  endfacet
  facet normal 0 -0.447213 0.894427
    outer loop
      vertex 5e-07 -7.27557 99.735
      vertex -22.3919 -68.9152 68.9152
      vertex 22.3919 -68.9152 68.9152
    endloop
  endfacet
  facet normal 2.99581e-07 -0.447214 0.894427
    outer loop
      vertex -22.3919 -68.9152 68.9152
      vertex 5e-07 -7.27557 99.735
      vertex -36.2309 -30.8198 87.9629
    endloop
  endfacet
  facet normal 0 0.187593 0.982247
    outer loop
      vertex 22.3919 30.8198 92.4594
      vertex -22.3919 30.8198 92.4594
      vertex 5e-07 -7.27557 99.735
    endloop
  endfacet
  facet normal -0.309017 5.56747e-07 0.951056
    outer loop
      vertex -58.6227 7.27557 80.6873
      vertex 5e-07 -7.27557 99.735
      vertex -22.3919 30.8198 92.4594
    endloop
  endfacet
  facet normal -0.309017 1.51123e-06 0.951056
    outer loop
      vertex 5e-07 -7.27557 99.735
      vertex -58.6227 7.27557 80.6873
      vertex -36.2309 -30.8198 87.9629
    endloop
  endfacet
  facet normal 0.525731 -0.447214 -0.723607
    outer loop
      vertex 22.3919 -30.8198 -92.4594
      vertex 81.0146 -30.8198 -49.8675
      vertex 58.6227 -68.9152 -42.5919
    endloop
  endfacet
  facet normal 0.525733 -0.447212 -0.723606
    outer loop
      vertex 22.3919 -30.8198 -92.4594
      vertex 58.6227 -68.9152 -42.5919
      vertex 22.3919 -68.9152 -68.9152
    endloop
  endfacet
  facet normal 0.525731 -0.447213 -0.723607
    outer loop
      vertex 81.0146 -30.8198 -49.8675
      vertex 22.3919 -30.8198 -92.4594
      vertex 58.6227 -7.27557 -80.6873
    endloop
  endfacet
  facet normal -0.525733 0.447212 0.723606
    outer loop
      vertex -58.6227 68.9152 42.5919
      vertex -22.3919 30.8198 92.4594
      vertex -22.3919 68.9152 68.9152
    endloop
  endfacet
  facet normal -0.525731 0.447214 0.723607
    outer loop
      vertex -81.0146 30.8198 49.8675
      vertex -22.3919 30.8198 92.4594
      vertex -58.6227 68.9152 42.5919
    endloop
  endfacet
  facet normal -0.525731 0.447213 0.723607
    outer loop
      vertex -22.3919 30.8198 92.4594
      vertex -81.0146 30.8198 49.8675
      vertex -58.6227 7.27557 80.6873
    endloop
  endfacet
endsolid OpenSCAD_Model
